solid feed
  facet normal 0 0 -1
    outer loop
      vertex 3.8976107500e-01 1.9089303000e-02 9.3168255000e-06
      vertex 3.8976107500e-01 2.3939303000e-02 9.3168255000e-06
      vertex 3.9023646500e-01 2.3915953000e-02 9.3168255000e-06
    endloop
  endfacet
  facet normal 0 0 -1
    outer loop
      vertex 3.8976107500e-01 1.9089303000e-02 9.3168255000e-06
      vertex 3.9023646500e-01 2.3915953000e-02 9.3168255000e-06
      vertex 3.9070726500e-01 2.3846113000e-02 9.3168255000e-06
    endloop
  endfacet
  facet normal 0 0 -1
    outer loop
      vertex 3.8976107500e-01 1.9089303000e-02 9.3168255000e-06
      vertex 3.9070726500e-01 2.3846113000e-02 9.3168255000e-06
      vertex 3.9116895500e-01 2.3730463000e-02 9.3168255000e-06
    endloop
  endfacet
  facet normal 0 0 -1
    outer loop
      vertex 3.8976107500e-01 1.9089303000e-02 9.3168255000e-06
      vertex 3.9116895500e-01 2.3730463000e-02 9.3168255000e-06
      vertex 3.9161709500e-01 2.3570123000e-02 9.3168255000e-06
    endloop
  endfacet
  facet normal 0 0 -1
    outer loop
      vertex 3.8976107500e-01 1.9089303000e-02 9.3168255000e-06
      vertex 3.9161709500e-01 2.3570123000e-02 9.3168255000e-06
      vertex 3.9204735500e-01 2.3366623000e-02 9.3168255000e-06
    endloop
  endfacet
  facet normal 0 0 -1
    outer loop
      vertex 3.8976107500e-01 1.9089303000e-02 9.3168255000e-06
      vertex 3.9204735500e-01 2.3366623000e-02 9.3168255000e-06
      vertex 3.9245559500e-01 2.3121933000e-02 9.3168255000e-06
    endloop
  endfacet
  facet normal 0 0 -1
    outer loop
      vertex 3.8976107500e-01 1.9089303000e-02 9.3168255000e-06
      vertex 3.9245559500e-01 2.3121933000e-02 9.3168255000e-06
      vertex 3.9283788500e-01 2.2838403000e-02 9.3168255000e-06
    endloop
  endfacet
  facet normal 0 0 -1
    outer loop
      vertex 3.8976107500e-01 1.9089303000e-02 9.3168255000e-06
      vertex 3.9283788500e-01 2.2838403000e-02 9.3168255000e-06
      vertex 3.9319054500e-01 2.2518773000e-02 9.3168255000e-06
    endloop
  endfacet
  facet normal 0 0 -1
    outer loop
      vertex 3.8976107500e-01 1.9089303000e-02 9.3168255000e-06
      vertex 3.9319054500e-01 2.2518773000e-02 9.3168255000e-06
      vertex 3.9351017500e-01 2.2166113000e-02 9.3168255000e-06
    endloop
  endfacet
  facet normal 0 0 -1
    outer loop
      vertex 3.8976107500e-01 1.9089303000e-02 9.3168255000e-06
      vertex 3.9351017500e-01 2.2166113000e-02 9.3168255000e-06
      vertex 3.9379370500e-01 2.1783823000e-02 9.3168255000e-06
    endloop
  endfacet
  facet normal 0 0 -1
    outer loop
      vertex 3.8976107500e-01 1.9089303000e-02 9.3168255000e-06
      vertex 3.9379370500e-01 2.1783823000e-02 9.3168255000e-06
      vertex 3.9403839500e-01 2.1375573000e-02 9.3168255000e-06
    endloop
  endfacet
  facet normal 0 0 -1
    outer loop
      vertex 3.8976107500e-01 1.9089303000e-02 9.3168255000e-06
      vertex 3.9403839500e-01 2.1375573000e-02 9.3168255000e-06
      vertex 3.9424189500e-01 2.0945313000e-02 9.3168255000e-06
    endloop
  endfacet
  facet normal 0 0 -1
    outer loop
      vertex 3.8976107500e-01 1.9089303000e-02 9.3168255000e-06
      vertex 3.9424189500e-01 2.0945313000e-02 9.3168255000e-06
      vertex 3.9440223500e-01 2.0497183000e-02 9.3168255000e-06
    endloop
  endfacet
  facet normal 0 0 -1
    outer loop
      vertex 3.8976107500e-01 1.9089303000e-02 9.3168255000e-06
      vertex 3.9440223500e-01 2.0497183000e-02 9.3168255000e-06
      vertex 3.9451788500e-01 2.0035493000e-02 9.3168255000e-06
    endloop
  endfacet
  facet normal 0 0 -1
    outer loop
      vertex 3.8976107500e-01 1.9089303000e-02 9.3168255000e-06
      vertex 3.9451788500e-01 2.0035493000e-02 9.3168255000e-06
      vertex 3.9458772500e-01 1.9564683000e-02 9.3168255000e-06
    endloop
  endfacet
  facet normal 0 0 -1
    outer loop
      vertex 3.8976107500e-01 1.9089303000e-02 9.3168255000e-06
      vertex 3.9458772500e-01 1.9564683000e-02 9.3168255000e-06
      vertex 3.9461107500e-01 1.9089303000e-02 9.3168255000e-06
    endloop
  endfacet
  facet normal 0 0 -1
    outer loop
      vertex 3.8976107500e-01 1.9089303000e-02 9.3168255000e-06
      vertex 3.9461107500e-01 1.9089303000e-02 9.3168255000e-06
      vertex 3.9458772500e-01 1.8613923000e-02 9.3168255000e-06
    endloop
  endfacet
  facet normal 0 0 -1
    outer loop
      vertex 3.8976107500e-01 1.9089303000e-02 9.3168255000e-06
      vertex 3.9458772500e-01 1.8613923000e-02 9.3168255000e-06
      vertex 3.9451788500e-01 1.8143113000e-02 9.3168255000e-06
    endloop
  endfacet
  facet normal 0 0 -1
    outer loop
      vertex 3.8976107500e-01 1.9089303000e-02 9.3168255000e-06
      vertex 3.9451788500e-01 1.8143113000e-02 9.3168255000e-06
      vertex 3.9440223500e-01 1.7681423000e-02 9.3168255000e-06
    endloop
  endfacet
  facet normal 0 0 -1
    outer loop
      vertex 3.8976107500e-01 1.9089303000e-02 9.3168255000e-06
      vertex 3.9440223500e-01 1.7681423000e-02 9.3168255000e-06
      vertex 3.9424189500e-01 1.7233293000e-02 9.3168255000e-06
    endloop
  endfacet
  facet normal 0 0 -1
    outer loop
      vertex 3.8976107500e-01 1.9089303000e-02 9.3168255000e-06
      vertex 3.9424189500e-01 1.7233293000e-02 9.3168255000e-06
      vertex 3.9403839500e-01 1.6803033000e-02 9.3168255000e-06
    endloop
  endfacet
  facet normal 0 0 -1
    outer loop
      vertex 3.8976107500e-01 1.9089303000e-02 9.3168255000e-06
      vertex 3.9403839500e-01 1.6803033000e-02 9.3168255000e-06
      vertex 3.9379370500e-01 1.6394783000e-02 9.3168255000e-06
    endloop
  endfacet
  facet normal 0 0 -1
    outer loop
      vertex 3.8976107500e-01 1.9089303000e-02 9.3168255000e-06
      vertex 3.9379370500e-01 1.6394783000e-02 9.3168255000e-06
      vertex 3.9351017500e-01 1.6012493000e-02 9.3168255000e-06
    endloop
  endfacet
  facet normal 0 0 -1
    outer loop
      vertex 3.8976107500e-01 1.9089303000e-02 9.3168255000e-06
      vertex 3.9351017500e-01 1.6012493000e-02 9.3168255000e-06
      vertex 3.9319054500e-01 1.5659833000e-02 9.3168255000e-06
    endloop
  endfacet
  facet normal 0 0 -1
    outer loop
      vertex 3.8976107500e-01 1.9089303000e-02 9.3168255000e-06
      vertex 3.9319054500e-01 1.5659833000e-02 9.3168255000e-06
      vertex 3.9283788500e-01 1.5340203000e-02 9.3168255000e-06
    endloop
  endfacet
  facet normal 0 0 -1
    outer loop
      vertex 3.8976107500e-01 1.9089303000e-02 9.3168255000e-06
      vertex 3.9283788500e-01 1.5340203000e-02 9.3168255000e-06
      vertex 3.9245559500e-01 1.5056673000e-02 9.3168255000e-06
    endloop
  endfacet
  facet normal 0 0 -1
    outer loop
      vertex 3.8976107500e-01 1.9089303000e-02 9.3168255000e-06
      vertex 3.9245559500e-01 1.5056673000e-02 9.3168255000e-06
      vertex 3.9204735500e-01 1.4811983000e-02 9.3168255000e-06
    endloop
  endfacet
  facet normal 0 0 -1
    outer loop
      vertex 3.8976107500e-01 1.9089303000e-02 9.3168255000e-06
      vertex 3.9204735500e-01 1.4811983000e-02 9.3168255000e-06
      vertex 3.9161709500e-01 1.4608483000e-02 9.3168255000e-06
    endloop
  endfacet
  facet normal 0 0 -1
    outer loop
      vertex 3.8976107500e-01 1.9089303000e-02 9.3168255000e-06
      vertex 3.9161709500e-01 1.4608483000e-02 9.3168255000e-06
      vertex 3.9116895500e-01 1.4448143000e-02 9.3168255000e-06
    endloop
  endfacet
  facet normal 0 0 -1
    outer loop
      vertex 3.8976107500e-01 1.9089303000e-02 9.3168255000e-06
      vertex 3.9116895500e-01 1.4448143000e-02 9.3168255000e-06
      vertex 3.9070726500e-01 1.4332493000e-02 9.3168255000e-06
    endloop
  endfacet
  facet normal 0 0 -1
    outer loop
      vertex 3.8976107500e-01 1.9089303000e-02 9.3168255000e-06
      vertex 3.9070726500e-01 1.4332493000e-02 9.3168255000e-06
      vertex 3.9023646500e-01 1.4262653000e-02 9.3168255000e-06
    endloop
  endfacet
  facet normal 0 0 -1
    outer loop
      vertex 3.8976107500e-01 1.9089303000e-02 9.3168255000e-06
      vertex 3.9023646500e-01 1.4262653000e-02 9.3168255000e-06
      vertex 3.8976107500e-01 1.4239303000e-02 9.3168255000e-06
    endloop
  endfacet
  facet normal 0 0 -1
    outer loop
      vertex 3.8976107500e-01 1.9089303000e-02 9.3168255000e-06
      vertex 3.8976107500e-01 1.4239303000e-02 9.3168255000e-06
      vertex 3.8928569500e-01 1.4262653000e-02 9.3168255000e-06
    endloop
  endfacet
  facet normal 0 0 -1
    outer loop
      vertex 3.8976107500e-01 1.9089303000e-02 9.3168255000e-06
      vertex 3.8928569500e-01 1.4262653000e-02 9.3168255000e-06
      vertex 3.8881489500e-01 1.4332493000e-02 9.3168255000e-06
    endloop
  endfacet
  facet normal 0 0 -1
    outer loop
      vertex 3.8976107500e-01 1.9089303000e-02 9.3168255000e-06
      vertex 3.8881489500e-01 1.4332493000e-02 9.3168255000e-06
      vertex 3.8835319500e-01 1.4448143000e-02 9.3168255000e-06
    endloop
  endfacet
  facet normal 0 0 -1
    outer loop
      vertex 3.8976107500e-01 1.9089303000e-02 9.3168255000e-06
      vertex 3.8835319500e-01 1.4448143000e-02 9.3168255000e-06
      vertex 3.8790506500e-01 1.4608483000e-02 9.3168255000e-06
    endloop
  endfacet
  facet normal 0 0 -1
    outer loop
      vertex 3.8976107500e-01 1.9089303000e-02 9.3168255000e-06
      vertex 3.8790506500e-01 1.4608483000e-02 9.3168255000e-06
      vertex 3.8747480500e-01 1.4811983000e-02 9.3168255000e-06
    endloop
  endfacet
  facet normal 0 0 -1
    outer loop
      vertex 3.8976107500e-01 1.9089303000e-02 9.3168255000e-06
      vertex 3.8747480500e-01 1.4811983000e-02 9.3168255000e-06
      vertex 3.8706656500e-01 1.5056673000e-02 9.3168255000e-06
    endloop
  endfacet
  facet normal 0 0 -1
    outer loop
      vertex 3.8976107500e-01 1.9089303000e-02 9.3168255000e-06
      vertex 3.8706656500e-01 1.5056673000e-02 9.3168255000e-06
      vertex 3.8668427500e-01 1.5340203000e-02 9.3168255000e-06
    endloop
  endfacet
  facet normal 0 0 -1
    outer loop
      vertex 3.8976107500e-01 1.9089303000e-02 9.3168255000e-06
      vertex 3.8668427500e-01 1.5340203000e-02 9.3168255000e-06
      vertex 3.8633161500e-01 1.5659833000e-02 9.3168255000e-06
    endloop
  endfacet
  facet normal 0 0 -1
    outer loop
      vertex 3.8976107500e-01 1.9089303000e-02 9.3168255000e-06
      vertex 3.8633161500e-01 1.5659833000e-02 9.3168255000e-06
      vertex 3.8601197500e-01 1.6012493000e-02 9.3168255000e-06
    endloop
  endfacet
  facet normal 0 0 -1
    outer loop
      vertex 3.8976107500e-01 1.9089303000e-02 9.3168255000e-06
      vertex 3.8601197500e-01 1.6012493000e-02 9.3168255000e-06
      vertex 3.8572845500e-01 1.6394783000e-02 9.3168255000e-06
    endloop
  endfacet
  facet normal 0 0 -1
    outer loop
      vertex 3.8976107500e-01 1.9089303000e-02 9.3168255000e-06
      vertex 3.8572845500e-01 1.6394783000e-02 9.3168255000e-06
      vertex 3.8548376500e-01 1.6803033000e-02 9.3168255000e-06
    endloop
  endfacet
  facet normal 0 0 -1
    outer loop
      vertex 3.8976107500e-01 1.9089303000e-02 9.3168255000e-06
      vertex 3.8548376500e-01 1.6803033000e-02 9.3168255000e-06
      vertex 3.8528026500e-01 1.7233293000e-02 9.3168255000e-06
    endloop
  endfacet
  facet normal 0 0 -1
    outer loop
      vertex 3.8976107500e-01 1.9089303000e-02 9.3168255000e-06
      vertex 3.8528026500e-01 1.7233293000e-02 9.3168255000e-06
      vertex 3.8511991500e-01 1.7681423000e-02 9.3168255000e-06
    endloop
  endfacet
  facet normal 0 0 -1
    outer loop
      vertex 3.8976107500e-01 1.9089303000e-02 9.3168255000e-06
      vertex 3.8511991500e-01 1.7681423000e-02 9.3168255000e-06
      vertex 3.8500427500e-01 1.8143113000e-02 9.3168255000e-06
    endloop
  endfacet
  facet normal 0 0 -1
    outer loop
      vertex 3.8976107500e-01 1.9089303000e-02 9.3168255000e-06
      vertex 3.8500427500e-01 1.8143113000e-02 9.3168255000e-06
      vertex 3.8493443500e-01 1.8613923000e-02 9.3168255000e-06
    endloop
  endfacet
  facet normal 0 0 -1
    outer loop
      vertex 3.8976107500e-01 1.9089303000e-02 9.3168255000e-06
      vertex 3.8493443500e-01 1.8613923000e-02 9.3168255000e-06
      vertex 3.8491107500e-01 1.9089303000e-02 9.3168255000e-06
    endloop
  endfacet
  facet normal 0 0 -1
    outer loop
      vertex 3.8976107500e-01 1.9089303000e-02 9.3168255000e-06
      vertex 3.8491107500e-01 1.9089303000e-02 9.3168255000e-06
      vertex 3.8493443500e-01 1.9564683000e-02 9.3168255000e-06
    endloop
  endfacet
  facet normal 0 0 -1
    outer loop
      vertex 3.8976107500e-01 1.9089303000e-02 9.3168255000e-06
      vertex 3.8493443500e-01 1.9564683000e-02 9.3168255000e-06
      vertex 3.8500427500e-01 2.0035493000e-02 9.3168255000e-06
    endloop
  endfacet
  facet normal 0 0 -1
    outer loop
      vertex 3.8976107500e-01 1.9089303000e-02 9.3168255000e-06
      vertex 3.8500427500e-01 2.0035493000e-02 9.3168255000e-06
      vertex 3.8511991500e-01 2.0497183000e-02 9.3168255000e-06
    endloop
  endfacet
  facet normal 0 0 -1
    outer loop
      vertex 3.8976107500e-01 1.9089303000e-02 9.3168255000e-06
      vertex 3.8511991500e-01 2.0497183000e-02 9.3168255000e-06
      vertex 3.8528026500e-01 2.0945313000e-02 9.3168255000e-06
    endloop
  endfacet
  facet normal 0 0 -1
    outer loop
      vertex 3.8976107500e-01 1.9089303000e-02 9.3168255000e-06
      vertex 3.8528026500e-01 2.0945313000e-02 9.3168255000e-06
      vertex 3.8548376500e-01 2.1375573000e-02 9.3168255000e-06
    endloop
  endfacet
  facet normal 0 0 -1
    outer loop
      vertex 3.8976107500e-01 1.9089303000e-02 9.3168255000e-06
      vertex 3.8548376500e-01 2.1375573000e-02 9.3168255000e-06
      vertex 3.8572845500e-01 2.1783823000e-02 9.3168255000e-06
    endloop
  endfacet
  facet normal 0 0 -1
    outer loop
      vertex 3.8976107500e-01 1.9089303000e-02 9.3168255000e-06
      vertex 3.8572845500e-01 2.1783823000e-02 9.3168255000e-06
      vertex 3.8601197500e-01 2.2166113000e-02 9.3168255000e-06
    endloop
  endfacet
  facet normal 0 0 -1
    outer loop
      vertex 3.8976107500e-01 1.9089303000e-02 9.3168255000e-06
      vertex 3.8601197500e-01 2.2166113000e-02 9.3168255000e-06
      vertex 3.8633161500e-01 2.2518773000e-02 9.3168255000e-06
    endloop
  endfacet
  facet normal 0 0 -1
    outer loop
      vertex 3.8976107500e-01 1.9089303000e-02 9.3168255000e-06
      vertex 3.8633161500e-01 2.2518773000e-02 9.3168255000e-06
      vertex 3.8668427500e-01 2.2838403000e-02 9.3168255000e-06
    endloop
  endfacet
  facet normal 0 0 -1
    outer loop
      vertex 3.8976107500e-01 1.9089303000e-02 9.3168255000e-06
      vertex 3.8668427500e-01 2.2838403000e-02 9.3168255000e-06
      vertex 3.8706656500e-01 2.3121933000e-02 9.3168255000e-06
    endloop
  endfacet
  facet normal 0 0 -1
    outer loop
      vertex 3.8976107500e-01 1.9089303000e-02 9.3168255000e-06
      vertex 3.8706656500e-01 2.3121933000e-02 9.3168255000e-06
      vertex 3.8747480500e-01 2.3366623000e-02 9.3168255000e-06
    endloop
  endfacet
  facet normal 0 0 -1
    outer loop
      vertex 3.8976107500e-01 1.9089303000e-02 9.3168255000e-06
      vertex 3.8747480500e-01 2.3366623000e-02 9.3168255000e-06
      vertex 3.8790506500e-01 2.3570123000e-02 9.3168255000e-06
    endloop
  endfacet
  facet normal 0 0 -1
    outer loop
      vertex 3.8976107500e-01 1.9089303000e-02 9.3168255000e-06
      vertex 3.8790506500e-01 2.3570123000e-02 9.3168255000e-06
      vertex 3.8835319500e-01 2.3730463000e-02 9.3168255000e-06
    endloop
  endfacet
  facet normal 0 0 -1
    outer loop
      vertex 3.8976107500e-01 1.9089303000e-02 9.3168255000e-06
      vertex 3.8835319500e-01 2.3730463000e-02 9.3168255000e-06
      vertex 3.8881489500e-01 2.3846113000e-02 9.3168255000e-06
    endloop
  endfacet
  facet normal 0 0 -1
    outer loop
      vertex 3.8976107500e-01 1.9089303000e-02 9.3168255000e-06
      vertex 3.8881489500e-01 2.3846113000e-02 9.3168255000e-06
      vertex 3.8928569500e-01 2.3915953000e-02 9.3168255000e-06
    endloop
  endfacet
  facet normal 0 0 -1
    outer loop
      vertex 3.8976107500e-01 1.9089303000e-02 9.3168255000e-06
      vertex 3.8928569500e-01 2.3915953000e-02 9.3168255000e-06
      vertex 3.8976107500e-01 2.3939303000e-02 9.3168255000e-06
    endloop
  endfacet
endsolid feed
