# vtk DataFile Version 3.0
LIGGGHTS particles timestep 2600000
ASCII
DATASET POLYDATA
POINTS 443 float
0.0204535 0.0189175 0.00700153
0.0256354 0.0177718 0.00725487
0.0198978 0.0192782 0.0069246
0.0263728 0.0167668 0.00763906
0.019165 0.0180713 0.0070986
0.0250593 0.0164233 0.00787239
0.0251239 0.0166588 0.00769581
0.0253408 0.0176719 0.00728016
0.024668 0.016061 0.00813819
0.0310685 0.0176463 0.00723456
0.031312 0.0187826 0.0070284
0.0312311 0.0171747 0.00736159
0.0252736 0.0173788 0.00732955
0.0253457 0.0164998 0.00782032
0.0309386 0.0170871 0.00740876
0.0200806 0.0186373 0.00724744
0.0267476 0.0175402 0.00727872
0.0255679 0.0174784 0.00731138
0.0311334 0.0179273 0.00715191
0.0310037 0.0173654 0.00731742
0.0260364 0.0184299 0.00712001
0.0256982 0.0168106 0.00759259
0.0266868 0.0181148 0.00716036
0.0243074 0.0149801 0.0095108
0.0307523 0.0163907 0.00791543
0.0186715 0.0160842 0.00812762
0.0247306 0.0162962 0.00796284
0.0270862 0.0182205 0.00712655
0.0262726 0.0195977 0.00699881
0.0186115 0.0158841 0.00834295
0.0246075 0.0158267 0.00831549
0.031165 0.0169023 0.00747662
0.0260865 0.0168357 0.00758137
0.0251127 0.0178642 0.00724911
0.024932 0.0159499 0.00822738
0.0312963 0.0174562 0.00727878
0.0308137 0.0166021 0.00771165
0.0308736 0.0168102 0.00750399
0.0249971 0.0161883 0.0080486
0.0263613 0.0165275 0.00781956
0.0252835 0.0162651 0.00799634
0.0314799 0.0170251 0.00743681
0.0261538 0.0175462 0.00728081
0.0189743 0.0172483 0.00739686
0.0245488 0.0156206 0.00852542
0.0260976 0.0187212 0.00706392
0.0263074 0.0169955 0.00745622
0.0311941 0.0182092 0.00706918
0.0248566 0.0167703 0.00761757
0.0247926 0.0165326 0.00778899
0.0249849 0.0172912 0.00736994
0.0250491 0.0175751 0.00729734
0.0262407 0.0172667 0.00734681
0.0312526 0.0184915 0.00698642
0.0249201 0.0170086 0.00744688
0.0252044 0.0170876 0.00738936
0.027077 0.0177007 0.00724563
0.0259271 0.019207 0.00697879
0.0265313 0.0173372 0.00732309
0.0254676 0.0182502 0.00718384
0.0254751 0.0169701 0.00747089
0.025866 0.0170106 0.00744487
0.0258548 0.0175697 0.00728693
0.0269442 0.0179624 0.00718325
0.0260058 0.0178235 0.00723379
0.0259288 0.0172833 0.00733668
0.0255857 0.0188252 0.00706036
0.0257522 0.0183372 0.00714602
0.025643 0.0171919 0.00735867
0.0258091 0.0180473 0.00719821
0.0255294 0.0185361 0.00711725
0.0258135 0.0186284 0.00708994
0.0315796 0.0173587 0.00729428
0.0262908 0.0179135 0.00720824
0.0187964 0.0165429 0.00777558
0.0261565 0.01901 0.00700847
0.0260987 0.0181411 0.00717182
0.0244918 0.015463 0.00877419
0.0257921 0.0161842 0.00806747
0.0256327 0.0165764 0.00776818
0.0266804 0.0186385 0.0070613
0.0254039 0.0179609 0.00723089
0.0254096 0.0167343 0.00764447
0.0244315 0.0153044 0.00902157
0.0191032 0.0177983 0.00720669
0.0252202 0.0160305 0.00817224
0.026772 0.0192208 0.00695013
0.019597 0.0187897 0.00699463
0.026538 0.0183714 0.00711587
0.0192949 0.0173673 0.00733056
0.0306915 0.0161792 0.0081193
0.0306318 0.0159676 0.00832336
0.0267334 0.0189285 0.0070057
0.0264784 0.0191623 0.00697008
0.0203148 0.0181554 0.00712339
0.031099 0.0166581 0.00763785
0.0266614 0.0168277 0.00758437
0.0261455 0.0163631 0.00794775
0.0270523 0.0193239 0.00692227
0.0260817 0.0161247 0.00811821
0.0206696 0.0186672 0.00705039
0.0258561 0.0164187 0.00789166
0.025823 0.0199745 0.00712407
0.018861 0.0167902 0.00761852
0.0275472 0.0192959 0.0069186
0.0255063 0.0161069 0.0081202
0.0197284 0.0167876 0.00759203
0.0190394 0.0175121 0.00726976
0.0255687 0.0163419 0.00794398
0.0243705 0.0151428 0.00926684
0.0272616 0.0187567 0.00702136
0.0189199 0.0170835 0.00764151
0.0265336 0.0194567 0.00695402
0.0248715 0.0157148 0.00840369
0.0270453 0.019706 0.00705457
0.0193426 0.018948 0.00700996
0.0272905 0.0191435 0.00694848
0.0257303 0.0159494 0.0082436
0.0253016 0.0187289 0.00708706
0.025358 0.0190183 0.00703147
0.0263811 0.0186235 0.00707333
0.0258699 0.0189178 0.00703437
0.0198904 0.017417 0.00728855
0.0264435 0.0176206 0.00725802
0.0266627 0.0178216 0.00721903
0.0193532 0.0176325 0.00720294
0.0268194 0.0172566 0.00734542
0.0251758 0.0181536 0.00720158
0.0192848 0.018654 0.00702329
0.0205628 0.0173889 0.0072811
0.0195909 0.017407 0.00730254
0.0268373 0.0183863 0.00710338
0.0195247 0.0198005 0.00710363
0.0270137 0.0190317 0.00697785
0.0191746 0.0170442 0.00748745
0.0211034 0.0182745 0.00712926
0.0254149 0.0193076 0.0069759
0.0187313 0.0162837 0.00791176
0.0214016 0.0183362 0.00712691
0.0256427 0.0191144 0.00700479
0.0252395 0.0184416 0.00714689
0.0268268 0.0195141 0.00698101
0.0209622 0.0187331 0.00704701
0.0190953 0.0165203 0.00776294
0.0208505 0.0184321 0.00709537
0.0254738 0.0196016 0.00698275
0.0257618 0.0196884 0.00702016
0.0201671 0.0178969 0.00716052
0.026059 0.016597 0.00776105
0.0200855 0.0172088 0.00738126
0.0242418 0.0148837 0.00978721
0.0305702 0.0157562 0.00852709
0.0259869 0.0195002 0.00695762
0.019664 0.0190963 0.006972
0.0195407 0.0184983 0.00704034
0.0205605 0.0179293 0.00716892
0.0197588 0.0195297 0.00701096
0.0254454 0.015872 0.00829656
0.0215372 0.0186005 0.00708547
0.02605 0.0197885 0.00706234
0.0251185 0.0170299 0.00767092
0.0256688 0.020427 0.00728284
0.0189708 0.016078 0.00814728
0.0201787 0.0187977 0.0070137
0.02516 0.0157954 0.00834858
0.0192252 0.0183614 0.00705176
0.0270761 0.0174085 0.00731343
0.0250397 0.0154352 0.00880977
0.0204473 0.0195488 0.00703499
0.0203812 0.0176912 0.00720315
0.0206463 0.0208154 0.00748886
0.0253826 0.015644 0.00848111
0.0248822 0.0165583 0.00807415
0.0173257 0.0232663 0.0107352
0.0246606 0.0161403 0.00842742
0.027244 0.017972 0.00718479
0.0199487 0.0176929 0.00718628
0.0249487 0.016795 0.00790201
0.0194 0.019238 0.00695886
0.020679 0.017658 0.00721743
0.0248137 0.0155435 0.00864315
0.017721 0.0239319 0.0119126
0.0199487 0.0169692 0.0074991
0.0202466 0.0169352 0.00750954
0.02602 0.0158898 0.00829435
0.0215808 0.0188933 0.00703664
0.0212006 0.0185547 0.00708405
0.0217737 0.0202425 0.00723835
0.0203822 0.0185814 0.00705605
0.0250981 0.0155938 0.00856197
0.0248179 0.0163227 0.00824861
0.0199711 0.0181214 0.00712631
0.0211177 0.0193091 0.0070012
0.02092 0.0195345 0.0070096
0.01942 0.0179166 0.0071313
0.0196493 0.0176746 0.00718014
0.0213195 0.0180514 0.00717332
0.0262144 0.0193036 0.00698765
0.0195899 0.0200707 0.00721648
0.0265813 0.0197352 0.00705488
0.0194808 0.0182079 0.00708576
0.020773 0.0181393 0.00714196
0.0269625 0.0187369 0.00703427
0.0272739 0.0195141 0.00699082
0.0197163 0.0179633 0.00713396
0.018425 0.0239283 0.011883
0.0205629 0.018353 0.00712799
0.0208603 0.0174232 0.00726214
0.0201449 0.0183984 0.00707772
0.0263292 0.0198899 0.0071048
0.019457 0.0171374 0.00743455
0.0163172 0.0115808 0.0228896
0.0256977 0.0194041 0.0069492
0.020265 0.0174238 0.00727374
0.0202064 0.0191037 0.0069629
0.025539 0.019872 0.00710159
0.0198453 0.0183876 0.00706905
0.019875 0.018684 0.00703399
0.0215273 0.0200811 0.00718114
0.0197534 0.0171773 0.00740648
0.0201494 0.0203283 0.00731362
0.0213555 0.0191265 0.00699059
0.0191605 0.0167739 0.0076166
0.0206812 0.0171384 0.00739623
0.0197415 0.0207043 0.00746689
0.0205434 0.0199636 0.00715853
0.0199992 0.0166682 0.00764094
0.0165155 0.0233195 0.0107944
0.025417 0.0172506 0.00755979
0.0213431 0.0193391 0.00720194
0.0247559 0.0153838 0.00889246
0.0200748 0.0208545 0.00751767
0.0185604 0.0156834 0.00855995
0.0162818 0.0230395 0.0105083
0.0218707 0.0188191 0.00705729
0.0203833 0.0171734 0.00738887
0.0198067 0.0209776 0.0075721
0.0209582 0.0193595 0.00725023
0.0266025 0.0170557 0.00739846
0.0241773 0.0148167 0.0100724
0.0245947 0.015907 0.00860423
0.0137181 0.0206177 0.00740075
0.0217243 0.0191536 0.00699611
0.0210208 0.0202133 0.00724479
0.0256037 0.0155335 0.0086512
0.0210577 0.0208905 0.00750846
0.0194215 0.0166031 0.00770516
0.0202592 0.0210764 0.00759999
0.0219953 0.0196768 0.00701212
0.0170623 0.0232877 0.0108781
0.0202992 0.0166693 0.0076381
0.015043 0.0208249 0.00736517
0.0249821 0.0152764 0.0090577
0.020765 0.0204676 0.0073502
0.0193312 0.0163598 0.00785554
0.0246956 0.0152268 0.00914086
0.0203701 0.0144293 0.0115793
0.0190299 0.0162889 0.00794229
0.0260886 0.0171581 0.0075815
0.0246705 0.0157273 0.00883211
0.0256682 0.0157138 0.00842027
0.0194408 0.0168691 0.00756778
0.0210975 0.0197682 0.00707211
0.0143164 0.0207762 0.00739677
0.0140171 0.0206035 0.00738137
0.0212344 0.0200189 0.00716377
0.0199374 0.0189746 0.00699311
0.0210475 0.0190207 0.00704446
0.0208046 0.0192577 0.00701352
0.02075 0.0189629 0.0070019
0.0201687 0.0194047 0.00694908
0.0210272 0.0179838 0.00717625
0.0212858 0.0188386 0.00703788
0.0204593 0.0192637 0.00694251
0.021701 0.0183536 0.00713217
0.0216962 0.0196761 0.00703528
0.0256061 0.0201349 0.00725519
0.0180189 0.0239311 0.0118696
0.0208694 0.0199489 0.00714506
0.0200247 0.0196621 0.00705304
0.0198802 0.0201411 0.00724357
0.0194595 0.0195303 0.00699078
0.0206911 0.0197216 0.00706051
0.0215357 0.0193826 0.00695178
0.020298 0.019798 0.0071099
0.0152807 0.0227963 0.00985001
0.0213099 0.0202899 0.00726788
0.0212584 0.019038 0.00726029
0.0200044 0.0205661 0.00742472
0.0207218 0.0201891 0.00724757
0.019655 0.0203417 0.00732729
0.0212936 0.0195536 0.00699817
0.0214303 0.0198077 0.00708023
0.0247628 0.0150672 0.0093858
0.0171406 0.0229684 0.0102898
0.0196577 0.0164408 0.00779398
0.0157047 0.0228717 0.0100217
0.0244124 0.0154601 0.00927724
0.0202556 0.0213679 0.00771394
0.0208864 0.0200203 0.00743594
0.0244728 0.0156192 0.00903019
0.0256729 0.01713 0.00765945
0.0165438 0.0229701 0.0103149
0.0201514 0.016451 0.00778117
0.0199099 0.0163093 0.00788916
0.0159877 0.023024 0.010427
0.0165786 0.0230958 0.0105732
0.0182435 0.024018 0.0121043
0.0168328 0.0229963 0.0104107
0.0157075 0.0230315 0.0102755
0.0243457 0.0152942 0.00952469
0.0205443 0.0168989 0.00751406
0.0215599 0.0204463 0.00732305
0.0201847 0.0162224 0.00797254
0.0158338 0.023227 0.0106066
0.0196667 0.0205331 0.0161693
0.0172434 0.0234002 0.0110896
0.0224896 0.0220433 0.00869757
0.0169578 0.0231146 0.0106564
0.0190047 0.0238544 0.0134507
0.019586 0.016804 0.00785555
0.0229008 0.0207481 0.0152239
0.0197515 0.017169 0.00770635
0.0195671 0.0162351 0.00799266
0.0159689 0.0207372 0.0152303
0.0188984 0.016915 0.00788877
0.0214388 0.0209684 0.00757078
0.0189108 0.0158782 0.00836287
0.0242654 0.0151827 0.00979138
0.0172208 0.0192322 0.0155881
0.0207113 0.0141856 0.0120759
0.0192686 0.0161603 0.00807068
0.0259154 0.0169931 0.00777096
0.0180982 0.0146796 0.0110168
0.0199473 0.0174169 0.00758311
0.0200613 0.0229595 0.0144652
0.0157969 0.0234276 0.0108683
0.0169512 0.0142171 0.0123656
0.0185112 0.0154825 0.00877724
0.0184188 0.020194 0.015475
0.0220359 0.0201089 0.00717994
0.0201644 0.0200505 0.00720145
0.0189507 0.0240245 0.0120793
0.0227868 0.0220799 0.00871845
0.014927 0.022784 0.00978281
0.0204238 0.0202163 0.00726718
0.0203534 0.0207532 0.0074715
0.0217895 0.0199475 0.00712274
0.0187259 0.0239311 0.011904
0.0218408 0.0194266 0.00695265
0.0211938 0.0200849 0.00745357
0.0210339 0.0205936 0.00739304
0.0162646 0.0229449 0.010224
0.0147411 0.020858 0.00738822
0.0214499 0.0207054 0.00742687
0.0154165 0.0229348 0.0100853
0.0185866 0.0240874 0.0122982
0.0150294 0.0232996 0.0140194
0.0172699 0.0230354 0.0105521
0.0204669 0.0204955 0.00736813
0.0191784 0.0239297 0.0119085
0.0218441 0.020538 0.00735215
0.0208994 0.0211267 0.0076045
0.019843 0.0239482 0.0119284
0.0192393 0.0240722 0.0121654
0.0194795 0.0239373 0.0119174
0.0161274 0.0232471 0.0106692
0.0159827 0.0229143 0.010129
0.0160061 0.0185342 0.0217397
0.0156103 0.0187323 0.018504
0.0217354 0.0194544 0.0187573
0.0152888 0.018694 0.0164221
0.0199769 0.0152293 0.0158698
0.0176048 0.0161266 0.0187356
0.0196047 0.0147186 0.0110813
0.0216067 0.0143181 0.012771
0.0184043 0.0146016 0.0110954
0.0194133 0.015983 0.00831313
0.0204299 0.01602 0.0218378
0.0153597 0.01815 0.0198913
0.0179677 0.0147842 0.0119557
0.0206866 0.0145605 0.0147884
0.0183036 0.01835 0.0156444
0.0177554 0.0195058 0.0156376
0.018607 0.0180226 0.0193072
0.0173688 0.0141644 0.0122462
0.0150703 0.0193436 0.020124
0.0197734 0.015917 0.0185407
0.019547 0.0190568 0.0254229
0.0230351 0.017017 0.0231166
0.0226733 0.0169974 0.0251708
0.0203959 0.0185813 0.0262616
0.0229356 0.0179963 0.0242442
0.0168131 0.0186693 0.0273531
0.0180063 0.0160057 0.0297441
0.0162004 0.0180795 0.0282252
0.0169928 0.014838 0.0274009
0.0147366 0.0166275 0.0269022
0.0234724 0.0177005 0.0272728
0.0168492 0.0191624 0.030047
0.0173166 0.0173038 0.0279888
0.0165936 0.0192939 0.0288972
0.0165567 0.0178958 0.0283551
0.0191901 0.0173724 0.0233176
0.0197729 0.0162515 0.0229236
0.0154692 0.0163199 0.0297528
0.0189004 0.0191546 0.0300383
0.0172313 0.0177913 0.0278335
0.0199651 0.0161171 0.0295115
0.01565 0.0193965 0.0250149
0.02244 0.0157578 0.028936
0.0191668 0.0154699 0.0228098
0.0199412 0.0155071 0.0301757
0.0160061 0.0185342 0.0242396
0.0177352 0.0223004 0.0195031
0.016085 0.0233435 0.0110222
0.0166373 0.0230976 0.0108558
0.0158388 0.0206878 0.0201015
0.0207892 0.0224153 0.0206617
0.021044 0.0208566 0.0171089
0.016777 0.0233604 0.0109359
0.0150347 0.0209132 0.020475
0.0209071 0.0215003 0.0191005
0.0175451 0.023143 0.0217669
0.022993 0.0215979 0.0188016
0.0185841 0.0230946 0.0210367
0.0200949 0.0246689 0.0134037
0.0152109 0.0205601 0.0284766
0.0177352 0.0223004 0.0291686
0.0152051 0.0215543 0.0270812
0.0167618 0.0232048 0.0281334
0.0234359 0.0206576 0.0229726
0.0158388 0.0206878 0.030044
0.0207892 0.0224153 0.0257583
0.0202221 0.0209567 0.0299194
0.0228592 0.0207093 0.0301762
0.0179319 0.0222086 0.023614
0.0150347 0.0209132 0.0247771
0.0216317 0.0220736 0.0240514
0.0209071 0.0215003 0.0243958
0.0175451 0.023143 0.0253097
0.0200892 0.0228233 0.0252451
0.015475 0.0205045 0.023006

VERTICES 443 886
1 0
1 1
1 2
1 3
1 4
1 5
1 6
1 7
1 8
1 9
1 10
1 11
1 12
1 13
1 14
1 15
1 16
1 17
1 18
1 19
1 20
1 21
1 22
1 23
1 24
1 25
1 26
1 27
1 28
1 29
1 30
1 31
1 32
1 33
1 34
1 35
1 36
1 37
1 38
1 39
1 40
1 41
1 42
1 43
1 44
1 45
1 46
1 47
1 48
1 49
1 50
1 51
1 52
1 53
1 54
1 55
1 56
1 57
1 58
1 59
1 60
1 61
1 62
1 63
1 64
1 65
1 66
1 67
1 68
1 69
1 70
1 71
1 72
1 73
1 74
1 75
1 76
1 77
1 78
1 79
1 80
1 81
1 82
1 83
1 84
1 85
1 86
1 87
1 88
1 89
1 90
1 91
1 92
1 93
1 94
1 95
1 96
1 97
1 98
1 99
1 100
1 101
1 102
1 103
1 104
1 105
1 106
1 107
1 108
1 109
1 110
1 111
1 112
1 113
1 114
1 115
1 116
1 117
1 118
1 119
1 120
1 121
1 122
1 123
1 124
1 125
1 126
1 127
1 128
1 129
1 130
1 131
1 132
1 133
1 134
1 135
1 136
1 137
1 138
1 139
1 140
1 141
1 142
1 143
1 144
1 145
1 146
1 147
1 148
1 149
1 150
1 151
1 152
1 153
1 154
1 155
1 156
1 157
1 158
1 159
1 160
1 161
1 162
1 163
1 164
1 165
1 166
1 167
1 168
1 169
1 170
1 171
1 172
1 173
1 174
1 175
1 176
1 177
1 178
1 179
1 180
1 181
1 182
1 183
1 184
1 185
1 186
1 187
1 188
1 189
1 190
1 191
1 192
1 193
1 194
1 195
1 196
1 197
1 198
1 199
1 200
1 201
1 202
1 203
1 204
1 205
1 206
1 207
1 208
1 209
1 210
1 211
1 212
1 213
1 214
1 215
1 216
1 217
1 218
1 219
1 220
1 221
1 222
1 223
1 224
1 225
1 226
1 227
1 228
1 229
1 230
1 231
1 232
1 233
1 234
1 235
1 236
1 237
1 238
1 239
1 240
1 241
1 242
1 243
1 244
1 245
1 246
1 247
1 248
1 249
1 250
1 251
1 252
1 253
1 254
1 255
1 256
1 257
1 258
1 259
1 260
1 261
1 262
1 263
1 264
1 265
1 266
1 267
1 268
1 269
1 270
1 271
1 272
1 273
1 274
1 275
1 276
1 277
1 278
1 279
1 280
1 281
1 282
1 283
1 284
1 285
1 286
1 287
1 288
1 289
1 290
1 291
1 292
1 293
1 294
1 295
1 296
1 297
1 298
1 299
1 300
1 301
1 302
1 303
1 304
1 305
1 306
1 307
1 308
1 309
1 310
1 311
1 312
1 313
1 314
1 315
1 316
1 317
1 318
1 319
1 320
1 321
1 322
1 323
1 324
1 325
1 326
1 327
1 328
1 329
1 330
1 331
1 332
1 333
1 334
1 335
1 336
1 337
1 338
1 339
1 340
1 341
1 342
1 343
1 344
1 345
1 346
1 347
1 348
1 349
1 350
1 351
1 352
1 353
1 354
1 355
1 356
1 357
1 358
1 359
1 360
1 361
1 362
1 363
1 364
1 365
1 366
1 367
1 368
1 369
1 370
1 371
1 372
1 373
1 374
1 375
1 376
1 377
1 378
1 379
1 380
1 381
1 382
1 383
1 384
1 385
1 386
1 387
1 388
1 389
1 390
1 391
1 392
1 393
1 394
1 395
1 396
1 397
1 398
1 399
1 400
1 401
1 402
1 403
1 404
1 405
1 406
1 407
1 408
1 409
1 410
1 411
1 412
1 413
1 414
1 415
1 416
1 417
1 418
1 419
1 420
1 421
1 422
1 423
1 424
1 425
1 426
1 427
1 428
1 429
1 430
1 431
1 432
1 433
1 434
1 435
1 436
1 437
1 438
1 439
1 440
1 441
1 442

POINT_DATA 443
SCALARS id int 1
LOOKUP_TABLE default
1
2
3
4
5
6
7
8
9
10
11
12
13
14
15
16
17
18
19
20
21
22
23
24
25
26
27
28
29
30
31
32
33
34
35
36
37
39
40
41
42
43
44
45
46
47
48
49
50
51
52
53
54
56
57
58
59
60
61
62
63
64
65
67
68
69
70
71
72
73
74
75
76
77
78
79
80
81
82
83
84
85
86
87
88
89
90
91
92
93
94
95
96
97
98
99
100
101
102
103
104
105
106
107
108
109
110
111
112
113
114
115
116
117
118
119
120
121
122
123
124
125
126
127
129
130
131
132
133
134
135
136
137
138
139
140
141
142
143
144
145
146
147
148
149
150
151
153
154
155
156
157
158
159
160
161
162
163
164
165
166
167
168
169
170
171
172
173
174
175
176
177
178
179
180
181
182
183
184
185
186
187
188
189
190
191
192
193
194
195
196
197
198
199
200
201
202
203
204
205
206
207
208
209
210
211
212
213
214
215
217
218
219
220
221
222
223
224
225
226
227
228
229
230
231
232
233
234
235
236
237
238
239
240
241
242
243
244
245
246
247
248
249
250
251
252
253
254
255
256
257
258
259
260
261
262
263
264
265
266
267
268
269
270
271
273
274
275
276
277
278
279
280
281
282
283
284
285
286
287
288
289
290
291
292
293
294
295
296
297
298
299
300
301
302
303
304
305
306
307
308
309
310
311
312
313
314
315
316
317
318
319
320
321
322
323
324
325
326
327
328
329
330
331
332
333
334
335
336
337
338
339
340
341
342
343
344
345
346
347
348
349
350
351
352
353
354
355
356
357
358
359
360
361
362
363
364
365
366
367
368
369
370
371
372
373
374
375
376
377
378
379
380
381
382
383
384
385
386
387
388
389
390
391
392
393
394
395
396
397
398
399
400
401
402
403
404
405
406
407
408
409
410
411
412
413
414
415
416
417
418
419
420
421
422
423
424
425
426
427
428
429
430
431
432
433
434
435
436
437
438
439
440
441
442
443
444
445
446
447
448
449
450

SCALARS type int 1
LOOKUP_TABLE default
1
1
1
1
1
1
1
1
1
1
1
1
1
1
1
1
1
1
1
1
1
1
1
1
1
1
1
1
1
1
1
1
1
1
1
1
1
1
1
1
1
1
1
1
1
1
1
1
1
1
1
1
1
1
1
1
1
1
1
1
1
1
1
1
1
1
1
1
1
1
1
1
1
1
1
1
1
1
1
1
1
1
1
1
1
1
1
1
1
1
1
1
1
1
1
1
1
1
1
1
1
1
1
1
1
1
1
1
1
1
1
1
1
1
1
1
1
1
1
1
1
1
1
1
1
1
1
1
1
1
1
1
1
1
1
1
1
1
1
1
1
1
1
1
1
1
1
1
1
1
1
1
1
1
1
1
1
1
1
1
1
1
1
1
1
1
1
1
1
1
1
1
1
1
1
1
1
1
1
1
1
1
1
1
1
1
1
1
1
1
1
1
1
1
1
1
1
1
1
1
1
1
1
1
1
1
1
1
1
1
1
1
1
1
1
1
1
1
1
1
1
1
1
1
1
1
1
1
1
1
1
1
1
1
1
1
1
1
1
1
1
1
1
1
1
1
1
1
1
1
1
1
1
1
1
1
1
1
1
1
1
1
1
1
1
1
1
1
1
1
1
1
1
1
1
1
1
1
1
1
1
1
1
1
1
1
1
1
1
1
1
1
1
1
1
1
1
1
1
1
1
1
1
1
1
1
1
1
1
1
1
1
1
1
1
1
1
1
1
1
1
1
1
1
1
1
1
1
1
1
1
1
1
1
1
1
1
1
1
1
1
1
1
1
1
1
1
1
1
1
1
1
1
1
1
1
1
1
1
1
1
1
1
1
1
1
1
1
1
1
1
1
1
1
1
1
1
1
1
1
1
1
1
1
1
1
1
1
1
1
1
1
1
1
1
1
1
1
1
1
1
1
1
1
1
1
1
1
1
1
1
1
1
1
1
1
1
1
1
1
1
1
1
1
1
1
1
1
1
1
1
1
1
1
1
1
1
1
1
1
1
1
1

SCALARS radius float 1
LOOKUP_TABLE default
0.00015
0.00015
0.00015
0.00015
0.00015
0.00015
0.00015
0.00015
0.00015
0.00015
0.00015
0.00015
0.00015
0.00015
0.00015
0.00015
0.00015
0.00015
0.00015
0.00015
0.00015
0.00015
0.00015
0.00015
0.00015
0.00015
0.00015
0.00015
0.00015
0.00015
0.00015
0.00015
0.00015
0.00015
0.00015
0.00015
0.00015
0.00015
0.00015
0.00015
0.00015
0.00015
0.00015
0.00015
0.00015
0.00015
0.00015
0.00015
0.00015
0.00015
0.00015
0.00015
0.00015
0.00015
0.00015
0.00015
0.00015
0.00015
0.00015
0.00015
0.00015
0.00015
0.00015
0.00015
0.00015
0.00015
0.00015
0.00015
0.00015
0.00015
0.00015
0.00015
0.00015
0.00015
0.00015
0.00015
0.00015
0.00015
0.00015
0.00015
0.00015
0.00015
0.00015
0.00015
0.00015
0.00015
0.00015
0.00015
0.00015
0.00015
0.00015
0.00015
0.00015
0.00015
0.00015
0.00015
0.00015
0.00015
0.00015
0.00015
0.00015
0.00015
0.00015
0.00015
0.00015
0.00015
0.00015
0.00015
0.00015
0.00015
0.00015
0.00015
0.00015
0.00015
0.00015
0.00015
0.00015
0.00015
0.00015
0.00015
0.00015
0.00015
0.00015
0.00015
0.00015
0.00015
0.00015
0.00015
0.00015
0.00015
0.00015
0.00015
0.00015
0.00015
0.00015
0.00015
0.00015
0.00015
0.00015
0.00015
0.00015
0.00015
0.00015
0.00015
0.00015
0.00015
0.00015
0.00015
0.00015
0.00015
0.00015
0.00015
0.00015
0.00015
0.00015
0.00015
0.00015
0.00015
0.00015
0.00015
0.00015
0.00015
0.00015
0.00015
0.00015
0.00015
0.00015
0.00015
0.00015
0.00015
0.00015
0.00015
0.00015
0.00015
0.00015
0.00015
0.00015
0.00015
0.00015
0.00015
0.00015
0.00015
0.00015
0.00015
0.00015
0.00015
0.00015
0.00015
0.00015
0.00015
0.00015
0.00015
0.00015
0.00015
0.00015
0.00015
0.00015
0.00015
0.00015
0.00015
0.00015
0.00015
0.00015
0.00015
0.00015
0.00015
0.00015
0.00015
0.00015
0.00015
0.00015
0.00015
0.00015
0.00015
0.00015
0.00015
0.00015
0.00015
0.00015
0.00015
0.00015
0.00015
0.00015
0.00015
0.00015
0.00015
0.00015
0.00015
0.00015
0.00015
0.00015
0.00015
0.00015
0.00015
0.00015
0.00015
0.00015
0.00015
0.00015
0.00015
0.00015
0.00015
0.00015
0.00015
0.00015
0.00015
0.00015
0.00015
0.00015
0.00015
0.00015
0.00015
0.00015
0.00015
0.00015
0.00015
0.00015
0.00015
0.00015
0.00015
0.00015
0.00015
0.00015
0.00015
0.00015
0.00015
0.00015
0.00015
0.00015
0.00015
0.00015
0.00015
0.00015
0.00015
0.00015
0.00015
0.00015
0.00015
0.00015
0.00015
0.00015
0.00015
0.00015
0.00015
0.00015
0.00015
0.00015
0.00015
0.00015
0.00015
0.00015
0.00015
0.00015
0.00015
0.00015
0.00015
0.00015
0.00015
0.00015
0.00015
0.00015
0.00015
0.00015
0.00015
0.00015
0.00015
0.00015
0.00015
0.00015
0.00015
0.00015
0.00015
0.00015
0.00015
0.00015
0.00015
0.00015
0.00015
0.00015
0.00015
0.00015
0.00015
0.00015
0.00015
0.00015
0.00015
0.00015
0.00015
0.00015
0.00015
0.00015
0.00015
0.00015
0.00015
0.00015
0.00015
0.00015
0.00015
0.00015
0.00015
0.00015
0.00015
0.00015
0.00015
0.00015
0.00015
0.00015
0.00015
0.00015
0.00015
0.00015
0.00015
0.00015
0.00015
0.00015
0.00015
0.00015
0.00015
0.00015
0.00015
0.00015
0.00015
0.00015
0.00015
0.00015
0.00015
0.00015
0.00015
0.00015
0.00015
0.00015
0.00015
0.00015
0.00015
0.00015
0.00015
0.00015
0.00015
0.00015
0.00015
0.00015
0.00015
0.00015
0.00015
0.00015
0.00015
0.00015
0.00015
0.00015
0.00015
0.00015
0.00015
0.00015
0.00015
0.00015
0.00015
0.00015
0.00015
0.00015
0.00015
0.00015
0.00015
0.00015
0.00015
0.00015
0.00015
0.00015
0.00015
0.00015
0.00015
0.00015
0.00015
0.00015
0.00015
0.00015
0.00015
0.00015
0.00015
0.00015
0.00015
0.00015
0.00015
0.00015
0.00015
0.00015
0.00015
0.00015
0.00015
0.00015
0.00015
0.00015
0.00015
0.00015
0.00015
0.00015
0.00015
0.00015
0.00015
0.00015
0.00015
0.00015
0.00015
0.00015

SCALARS mass float 1
LOOKUP_TABLE default
3.95841e-09
3.95841e-09
3.95841e-09
3.95841e-09
3.95841e-09
3.95841e-09
3.95841e-09
3.95841e-09
3.95841e-09
3.95841e-09
3.95841e-09
3.95841e-09
3.95841e-09
3.95841e-09
3.95841e-09
3.95841e-09
3.95841e-09
3.95841e-09
3.95841e-09
3.95841e-09
3.95841e-09
3.95841e-09
3.95841e-09
3.95841e-09
3.95841e-09
3.95841e-09
3.95841e-09
3.95841e-09
3.95841e-09
3.95841e-09
3.95841e-09
3.95841e-09
3.95841e-09
3.95841e-09
3.95841e-09
3.95841e-09
3.95841e-09
3.95841e-09
3.95841e-09
3.95841e-09
3.95841e-09
3.95841e-09
3.95841e-09
3.95841e-09
3.95841e-09
3.95841e-09
3.95841e-09
3.95841e-09
3.95841e-09
3.95841e-09
3.95841e-09
3.95841e-09
3.95841e-09
3.95841e-09
3.95841e-09
3.95841e-09
3.95841e-09
3.95841e-09
3.95841e-09
3.95841e-09
3.95841e-09
3.95841e-09
3.95841e-09
3.95841e-09
3.95841e-09
3.95841e-09
3.95841e-09
3.95841e-09
3.95841e-09
3.95841e-09
3.95841e-09
3.95841e-09
3.95841e-09
3.95841e-09
3.95841e-09
3.95841e-09
3.95841e-09
3.95841e-09
3.95841e-09
3.95841e-09
3.95841e-09
3.95841e-09
3.95841e-09
3.95841e-09
3.95841e-09
3.95841e-09
3.95841e-09
3.95841e-09
3.95841e-09
3.95841e-09
3.95841e-09
3.95841e-09
3.95841e-09
3.95841e-09
3.95841e-09
3.95841e-09
3.95841e-09
3.95841e-09
3.95841e-09
3.95841e-09
3.95841e-09
3.95841e-09
3.95841e-09
3.95841e-09
3.95841e-09
3.95841e-09
3.95841e-09
3.95841e-09
3.95841e-09
3.95841e-09
3.95841e-09
3.95841e-09
3.95841e-09
3.95841e-09
3.95841e-09
3.95841e-09
3.95841e-09
3.95841e-09
3.95841e-09
3.95841e-09
3.95841e-09
3.95841e-09
3.95841e-09
3.95841e-09
3.95841e-09
3.95841e-09
3.95841e-09
3.95841e-09
3.95841e-09
3.95841e-09
3.95841e-09
3.95841e-09
3.95841e-09
3.95841e-09
3.95841e-09
3.95841e-09
3.95841e-09
3.95841e-09
3.95841e-09
3.95841e-09
3.95841e-09
3.95841e-09
3.95841e-09
3.95841e-09
3.95841e-09
3.95841e-09
3.95841e-09
3.95841e-09
3.95841e-09
3.95841e-09
3.95841e-09
3.95841e-09
3.95841e-09
3.95841e-09
3.95841e-09
3.95841e-09
3.95841e-09
3.95841e-09
3.95841e-09
3.95841e-09
3.95841e-09
3.95841e-09
3.95841e-09
3.95841e-09
3.95841e-09
3.95841e-09
3.95841e-09
3.95841e-09
3.95841e-09
3.95841e-09
3.95841e-09
3.95841e-09
3.95841e-09
3.95841e-09
3.95841e-09
3.95841e-09
3.95841e-09
3.95841e-09
3.95841e-09
3.95841e-09
3.95841e-09
3.95841e-09
3.95841e-09
3.95841e-09
3.95841e-09
3.95841e-09
3.95841e-09
3.95841e-09
3.95841e-09
3.95841e-09
3.95841e-09
3.95841e-09
3.95841e-09
3.95841e-09
3.95841e-09
3.95841e-09
3.95841e-09
3.95841e-09
3.95841e-09
3.95841e-09
3.95841e-09
3.95841e-09
3.95841e-09
3.95841e-09
3.95841e-09
3.95841e-09
3.95841e-09
3.95841e-09
3.95841e-09
3.95841e-09
3.95841e-09
3.95841e-09
3.95841e-09
3.95841e-09
3.95841e-09
3.95841e-09
3.95841e-09
3.95841e-09
3.95841e-09
3.95841e-09
3.95841e-09
3.95841e-09
3.95841e-09
3.95841e-09
3.95841e-09
3.95841e-09
3.95841e-09
3.95841e-09
3.95841e-09
3.95841e-09
3.95841e-09
3.95841e-09
3.95841e-09
3.95841e-09
3.95841e-09
3.95841e-09
3.95841e-09
3.95841e-09
3.95841e-09
3.95841e-09
3.95841e-09
3.95841e-09
3.95841e-09
3.95841e-09
3.95841e-09
3.95841e-09
3.95841e-09
3.95841e-09
3.95841e-09
3.95841e-09
3.95841e-09
3.95841e-09
3.95841e-09
3.95841e-09
3.95841e-09
3.95841e-09
3.95841e-09
3.95841e-09
3.95841e-09
3.95841e-09
3.95841e-09
3.95841e-09
3.95841e-09
3.95841e-09
3.95841e-09
3.95841e-09
3.95841e-09
3.95841e-09
3.95841e-09
3.95841e-09
3.95841e-09
3.95841e-09
3.95841e-09
3.95841e-09
3.95841e-09
3.95841e-09
3.95841e-09
3.95841e-09
3.95841e-09
3.95841e-09
3.95841e-09
3.95841e-09
3.95841e-09
3.95841e-09
3.95841e-09
3.95841e-09
3.95841e-09
3.95841e-09
3.95841e-09
3.95841e-09
3.95841e-09
3.95841e-09
3.95841e-09
3.95841e-09
3.95841e-09
3.95841e-09
3.95841e-09
3.95841e-09
3.95841e-09
3.95841e-09
3.95841e-09
3.95841e-09
3.95841e-09
3.95841e-09
3.95841e-09
3.95841e-09
3.95841e-09
3.95841e-09
3.95841e-09
3.95841e-09
3.95841e-09
3.95841e-09
3.95841e-09
3.95841e-09
3.95841e-09
3.95841e-09
3.95841e-09
3.95841e-09
3.95841e-09
3.95841e-09
3.95841e-09
3.95841e-09
3.95841e-09
3.95841e-09
3.95841e-09
3.95841e-09
3.95841e-09
3.95841e-09
3.95841e-09
3.95841e-09
3.95841e-09
3.95841e-09
3.95841e-09
3.95841e-09
3.95841e-09
3.95841e-09
3.95841e-09
3.95841e-09
3.95841e-09
3.95841e-09
3.95841e-09
3.95841e-09
3.95841e-09
3.95841e-09
3.95841e-09
3.95841e-09
3.95841e-09
3.95841e-09
3.95841e-09
3.95841e-09
3.95841e-09
3.95841e-09
3.95841e-09
3.95841e-09
3.95841e-09
3.95841e-09
3.95841e-09
3.95841e-09
3.95841e-09
3.95841e-09
3.95841e-09
3.95841e-09
3.95841e-09
3.95841e-09
3.95841e-09
3.95841e-09
3.95841e-09
3.95841e-09
3.95841e-09
3.95841e-09
3.95841e-09
3.95841e-09
3.95841e-09
3.95841e-09
3.95841e-09
3.95841e-09
3.95841e-09
3.95841e-09
3.95841e-09
3.95841e-09
3.95841e-09
3.95841e-09
3.95841e-09
3.95841e-09
3.95841e-09
3.95841e-09
3.95841e-09
3.95841e-09
3.95841e-09
3.95841e-09
3.95841e-09
3.95841e-09
3.95841e-09
3.95841e-09
3.95841e-09
3.95841e-09
3.95841e-09
3.95841e-09
3.95841e-09
3.95841e-09
3.95841e-09
3.95841e-09
3.95841e-09
3.95841e-09
3.95841e-09
3.95841e-09
3.95841e-09
3.95841e-09
3.95841e-09
3.95841e-09
3.95841e-09
3.95841e-09
3.95841e-09
3.95841e-09
3.95841e-09
3.95841e-09
3.95841e-09
3.95841e-09
3.95841e-09
3.95841e-09
3.95841e-09
3.95841e-09
3.95841e-09
3.95841e-09
3.95841e-09
3.95841e-09
3.95841e-09
3.95841e-09
3.95841e-09
3.95841e-09
3.95841e-09
3.95841e-09
3.95841e-09
3.95841e-09
3.95841e-09
3.95841e-09
3.95841e-09
3.95841e-09
3.95841e-09
3.95841e-09
3.95841e-09
3.95841e-09
3.95841e-09

VECTORS velocity float
0.0040462 -0.00152726 0.00037068
0.00464208 -0.000387523 -4.96202e-05
0.00415211 -0.00179231 0.000422597
0.00449209 -0.000223723 0.000263098
0.00418484 -0.00176781 0.000694823
0.00464967 -0.000255764 0.000296173
0.00468041 -0.000345122 0.000352409
0.00455164 -0.000458779 8.91285e-05
0.00423568 -0.000216622 0.000249621
0.00481157 -2.05176e-05 -0.000197861
0.00425676 4.37898e-05 0.000309142
0.00492612 -0.000130301 -0.00017105
0.00476117 -0.000328294 0.000129837
0.00467496 -0.000316472 0.00034675
0.00486487 7.46562e-05 7.29219e-05
0.00410669 -0.00151891 0.000424975
0.00448982 -0.000206817 0.000125737
0.00453874 -0.00047026 7.16131e-05
0.00478472 -2.85999e-05 -0.000196458
0.00486026 6.95842e-06 -7.51961e-05
0.00394088 -0.00011606 -9.56211e-05
0.00457872 -0.000320143 0.000326791
0.00441735 -0.000164489 8.73392e-05
0.00446988 -0.000125658 0.000292665
0.00461794 0.000126843 0.000144871
0.00420013 -0.00119491 0.00152072
0.00444215 -0.000280168 0.000285661
0.00441918 -0.000171029 -0.000167433
0.00444068 -0.00034378 -3.21629e-05
0.00391761 -0.00115436 0.00144535
0.00420109 -0.000198424 0.000242663
0.00485661 6.15338e-05 0.000198526
0.00446985 -0.000213666 0.000241124
0.00454695 -0.000448899 8.82704e-05
0.00426767 -0.000115356 0.000174379
0.00484281 2.55879e-05 -0.000211263
0.00477059 0.000118912 0.000162398
0.00485025 9.70357e-05 0.000158539
0.00442978 -0.000299763 0.000303256
0.00454356 -0.000220078 0.000251339
0.00461899 -0.000291715 0.000315944
0.00489449 -0.000116657 0.000290856
0.00470391 -0.000362784 -7.63619e-05
0.00436432 -0.00178901 0.000697023
0.00424089 -0.000186957 0.000240787
0.00407238 -0.00028792 -6.57928e-05
0.00449932 -0.000335736 0.000146716
0.0044698 4.46659e-05 -0.000204224
0.00469198 -0.000357754 0.000318347
0.0046154 -0.000322025 0.000308769
0.00476286 -0.000466806 0.000250563
0.0046425 -0.000461489 0.000208072
0.00455286 -0.000356595 7.22408e-05
0.00438034 7.64895e-05 -0.000215106
0.00473381 -0.000423496 0.000289682
0.00481089 -0.000434727 0.000264901
0.00439869 -0.000183231 0.000100788
0.00448288 -0.00041095 -6.51741e-05
0.00449692 -0.00026997 0.000113975
0.00457792 -0.000410964 -4.4444e-05
0.00459773 -0.000351957 0.000292963
0.00459211 -0.000303227 0.000328799
0.00472964 -0.000309631 -0.00010891
0.0044406 -0.000140959 0.000103026
0.00353406 0.000441584 -0.000190023
0.00452983 -0.000404921 -0.00010218
0.00407271 -0.000325229 -6.83943e-05
0.00437252 0.00011146 -0.000149171
0.00458572 -0.000407576 0.00020896
0.00204704 -1.63714e-05 -5.88252e-05
0.0039802 -0.000274664 -7.66243e-05
0.00399115 -0.000252035 -7.85802e-05
0.00481817 7.1606e-05 -0.000201599
0.00353326 0.000555656 -0.000211498
0.00432873 -0.00152523 0.00106388
0.00416387 -0.000269817 -2.51536e-05
0.00308018 -0.000259697 -4.85351e-05
0.00434732 -0.000185443 0.00024817
0.0046154 -0.000330114 0.000337851
0.00459424 -0.000324008 0.000335168
0.00415147 -0.000254058 -7.64842e-05
0.00456267 -0.000445876 1.2133e-05
0.00465038 -0.000315231 0.000334342
0.00440968 -0.000156676 0.000268886
0.00431981 -0.00174704 0.000769877
0.0044897 -0.000260032 0.000281703
0.0042601 -0.000277284 -7.23816e-05
0.00399485 -0.00169076 0.000405591
0.00427723 -0.000225731 6.23635e-06
0.0043743 -0.00173175 0.000692954
0.00451344 0.000137537 0.000118872
0.00438885 0.000169006 8.43341e-05
0.00420679 -0.000287539 -7.61817e-05
0.00427594 -0.000476513 -1.78991e-05
0.00414357 -0.00145645 0.000387341
0.00472302 -0.000119326 -0.000115238
0.00449615 -0.000279593 9.2428e-05
0.00460479 -0.000327156 0.000171314
0.00425132 -0.000275218 -8.16905e-05
0.00463098 -0.000250606 0.000277422
0.00410062 -0.00142216 0.000363962
0.00458307 -0.000307037 0.000309945
0.00450559 -0.000338853 -1.62019e-06
0.00434101 -0.00184665 0.000640467
0.00433832 -0.000392639 -5.74495e-05
0.00457756 -0.000333145 0.000338155
0.004411 -0.00152965 0.000651852
0.00436338 -0.00176395 0.00071503
0.00463472 -0.000324516 0.000344074
0.00442883 -0.000125341 0.000286425
0.00427136 0.00033135 -0.000193979
0.00435482 -0.00184356 0.000661883
0.00435854 -0.000427762 -7.01943e-05
0.00428751 -9.03955e-05 0.00014473
0.00426182 -0.000292815 -1.16523e-05
0.00392983 -0.00178349 -7.67852e-05
0.00426102 -0.000281532 -7.2546e-05
0.00457811 -0.000323736 0.000339993
0.00414075 -0.000354754 -7.01361e-05
0.00417743 -0.000291732 -7.82833e-05
0.00412791 -0.00029128 -6.41293e-05
0.00417143 -0.000325276 -6.93019e-05
0.00443187 -0.00153148 0.000578315
0.00465994 -0.00031864 -6.69982e-05
0.00449851 -0.000184424 0.000102661
0.00434164 -0.00173083 0.000692178
0.00445412 -0.000224104 0.000104701
0.00456381 -0.000399526 -8.11339e-06
0.00390295 -0.00177386 0.000172668
0.00436071 -0.00138304 0.000515103
0.00440613 -0.0016626 0.000650367
0.00429468 -0.000220937 -8.99747e-05
0.00425148 -0.00185962 -0.000456994
0.00425155 -0.000306556 -7.57578e-05
0.00434517 -0.00181837 0.000712247
0.00382188 -0.00190873 0.000431663
0.00429575 -0.000307819 -6.91519e-05
0.00431259 -0.0012412 0.00152147
0.00393093 -0.00190624 0.000434827
0.00421062 -0.000374873 -6.59527e-05
0.0045252 -0.000329247 -0.000128492
0.00428483 -0.00029851 -1.28878e-05
0.00413204 -0.00159688 0.000375648
0.00432275 -0.00156046 0.00112452
0.0041664 -0.00136967 0.000344991
0.00432696 -0.00029585 -9.69862e-06
0.00465971 -0.000489627 -8.08823e-05
0.00422818 -0.0015033 0.000403263
0.0043537 -0.000203301 0.000233178
0.00445648 -0.0015343 0.000599445
0.00471924 -0.000126242 0.000346861
0.00425965 0.000206009 4.10087e-05
0.00468349 -0.000474529 -6.98527e-05
0.0039964 -0.0017547 -0.000197963
0.00394682 -0.00167265 0.00041301
0.00417996 -0.00139053 0.000385458
0.00425587 -0.0014838 -0.00030374
0.00455582 -0.000288437 0.000350752
0.0038271 -0.00182937 0.000418512
0.00448207 -0.000325996 -2.11537e-05
0.00488233 -0.000344321 0.000254477
0.00465254 -0.000334113 -1.48264e-05
0.00424454 -0.00114549 0.00142254
0.00404718 -0.00152634 0.00038619
0.00446294 -0.000231235 0.000282595
0.0039909 -0.00176903 0.000431677
0.00438467 -0.000197128 9.79832e-05
0.00441515 -0.000185552 0.000251868
0.00480073 -0.00236314 5.97435e-05
0.00426181 -0.00143308 0.000454971
0.00416882 -0.00201761 -0.000886723
0.00451646 -0.000255789 0.000346233
0.00464138 -0.000403254 0.000285558
0.00242257 -0.00249075 -0.00515264
0.00416692 -0.000216601 0.000263788
0.00440679 -0.000198586 0.000136745
0.004319 -0.00157235 0.000423436
0.00459712 -0.000245302 0.000328897
0.00397816 -0.00184594 -0.000412935
0.00427096 -0.00134162 0.000413066
0.00438881 -3.97611e-05 2.0445e-05
4.99138e-05 -0.000886685 -0.00195636
0.00454193 -0.00155878 0.000624517
0.00453106 -0.00133528 0.00073745
0.0045898 -0.000244969 0.000272675
0.00416809 -0.00188844 0.000437861
0.0039111 -0.00192743 0.000438308
0.00435617 -0.00143265 -0.000662953
0.00411418 -0.00144597 0.000380794
0.00448269 -0.000205975 0.000276857
0.00442056 -0.000369591 0.000314168
0.00416576 -0.00156698 0.000389959
0.00476707 -0.00186158 -8.28429e-05
0.00478388 -0.00183213 -0.00084005
0.00424186 -0.00175612 0.000431165
0.00432772 -0.00167112 0.000585595
0.00402658 -0.00193148 0.000442123
0.00434282 -0.000300958 -1.00397e-05
0.00424124 -0.00185125 -0.000454328
0.00443301 -0.00042509 -5.03106e-05
0.0040445 -0.00168995 0.000415525
0.00416637 -0.00139085 0.00037284
0.00425741 -0.000370544 -6.13365e-05
0.00423564 -0.000270984 2.10779e-06
0.00422553 -0.00166973 0.000421731
-7.8494e-07 -7.41405e-05 -2.64021e-05
0.00417584 -0.00138831 0.000375363
0.00407237 -0.00147484 0.000396112
0.0040753 -0.00151134 0.000398345
0.00448573 -0.000347965 -2.69779e-05
0.00435583 -0.00171527 0.00072115
-0.0623814 0.0853285 -0.28741
0.00439377 -0.000469592 -4.20035e-05
0.00436338 -0.00146652 0.000556915
0.00415982 -0.00189969 0.000438768
0.00461079 -0.000484351 -5.46937e-05
0.00406347 -0.00161141 0.000399482
0.00402968 -0.00162316 0.000284956
0.00446557 -0.00157078 -0.000726261
0.00449099 -0.00162176 0.000618776
0.00432617 -0.00219251 -0.000962205
0.00461918 -0.00208636 0.000466218
0.004344 -0.00174218 0.000858837
0.00446983 -0.00138246 0.00052333
0.00408979 -0.00237186 -0.00102349
0.00450778 -0.00206104 -0.000900794
0.00447767 -0.00129988 0.000553927
0.00147674 0.00063664 -0.0006391
0.00469157 -0.000276597 0.000171466
0.0046558 -0.00178838 0.000108175
0.00439083 -0.000154832 0.000207748
0.0041561 -0.00220989 -0.000961742
0.00226962 -0.000981999 0.00117694
-0.013886 -0.017707 0.00226138
0.00424711 -0.00161493 0.00039248
0.00448701 -0.00141616 0.000538196
0.00407776 -0.00236701 -0.00102127
0.00423317 -0.00152647 -0.00052293
0.00448896 -0.000271973 9.01099e-05
0.00469569 8.30117e-06 0.000359834
0.00408753 -0.000195617 0.000233677
0.00330539 -0.00600266 -0.00129876
0.00469345 -0.00217757 0.000500138
0.00439493 -0.00178659 -0.000799231
0.00450894 -0.000259529 0.000352607
-5.4888e-15 9.05571e-14 -2.31806e-13
0.00419903 -0.00180282 0.000457688
0.00153846 -0.000320206 -0.000161338
0.00446443 -0.00189178 -0.000843346
0.0095879 0.00325566 -0.00829129
0.0044383 -0.00122843 0.000948762
9.00516e-15 -2.99433e-14 1.60954e-13
0.00435407 -0.000172003 0.000230264
0.00423862 -0.00195914 -0.000867146
0.00440851 -0.00120786 0.00150596
0.00442197 -0.000147496 0.000215498
-0.00301996 0.0377909 -0.0627452
0.00426191 -0.00131298 0.00133507
0.0046034 -0.000214767 0.00020971
0.00443275 -0.000137204 0.000162902
0.00453513 -0.000311771 0.000324682
0.00433278 -0.00169706 0.000726164
0.00464089 -0.00175842 -0.000814348
-1.10967e-14 3.6892e-14 -1.9831e-13
0.00348963 -0.00239974 -0.000650748
0.00447573 -0.0016775 -0.000774576
0.00400529 -0.00162818 0.000199364
0.00443066 -0.00170554 0.000216362
0.00458286 -0.00173449 -0.00068875
0.00407681 -0.00168919 0.000401173
0.00435828 -0.00198783 -0.00087761
0.00397827 -0.0016734 0.000411932
0.00418075 -0.00200095 0.000454039
0.00456824 -0.00253511 0.000557473
0.00392631 -0.00176619 0.000409061
0.00450919 -0.00153516 -0.000474264
0.00456323 -0.000318747 2.37102e-05
-3.22253e-05 0.000856381 0.000770073
0.00455073 -0.00188161 -0.000836605
0.00415817 -0.00119984 -0.00056682
0.00434511 -0.00209852 -0.000923531
0.0042643 -0.00187462 -0.000459744
0.00463217 -0.00198424 -0.000907705
0.00482435 -0.00206408 0.000506878
0.00460508 -0.0022589 -0.000635784
0.000193505 0.000170644 -0.000286478
0.0043887 -0.0016624 -0.000753158
0.00439367 -0.00192241 0.000425055
0.00419278 -0.00223152 -0.000993469
0.00440469 -0.00195635 -0.000872114
0.00423758 -0.00171598 -0.000772117
0.00478583 -0.00189776 -9.94613e-05
0.00455191 -0.00148618 -0.000943626
0.00446633 -0.000150216 0.000193325
0.000505899 -0.0032739 -0.00539152
0.00429924 -0.00140557 0.0009161
-1.99341e-05 0.000316413 -0.000974249
0.00455396 -0.000293618 0.000369358
2.00517e-15 -3.30827e-14 8.46847e-14
0.00441848 -0.00185124 -0.000836119
0.00477007 -0.000284162 0.00042319
0.00468167 -0.000128891 0.000252742
-0.00170631 -0.00251382 -0.00548006
0.00431293 -0.00116482 0.000914311
0.00432627 -0.00116329 0.00105948
-0.0198525 0.017436 -0.0216416
-0.0170461 -0.00198401 -0.00696091
-0.00880647 0.00340243 -0.00865298
-4.76669e-05 -0.000179619 1.50471e-05
-0.000253812 -0.0003568 -0.000562904
0.00447464 -0.000111394 0.000279744
0.00450304 -0.00143557 0.000530713
0.00434561 -0.00156273 -0.000712697
0.00433965 -0.00109208 0.00099968
-0.0159678 -0.00137077 -0.00828325
6.44148e-10 0.0217403 -0.00689778
0.0158399 -0.00520824 -0.00779664
6.02207e-05 -1.23501e-05 -0.000911556
0.00297524 0.0018085 -0.00265389
0.00138432 0.0599803 -0.0441986
0.00347408 -0.0010467 0.000232919
7.32361e-11 0.0172328 -0.00784988
0.00451029 -0.0016988 0.000614959
0.00449552 -0.00125862 0.00125325
9.04674e-05 0.0175802 -0.00793397
0.00440644 -0.00191799 0.000617757
-0.00145326 -0.00243186 -0.00235381
0.00390836 -0.00108286 0.00136171
0.00445673 -0.000125306 0.00025926
5.17281e-11 0.018918 -0.000836375
-0.00142117 0.00146501 -0.00401213
0.0041946 -0.00120303 0.00148457
0.00470262 -2.35231e-05 0.000256736
0.0163369 0.0678126 -0.0787315
0.0043857 -0.00153209 0.000571566
-0.00163234 0.0742633 -0.0968287
-0.00907162 0.00274916 0.00398343
0.000208672 -0.000286735 0.000644688
-0.000506003 -0.00071837 0.000760869
0.00961237 0.0372291 -0.0478041
0.00449409 -0.00137681 -0.000646305
0.00444844 -0.00219939 -0.000969692
-1.3299e-06 -1.39794e-05 -2.42248e-05
0.00163585 -0.0105356 -0.00744971
-0.0143227 -0.0316585 -0.0485902
0.00438301 -0.0020978 -0.000923511
0.00418585 -0.00211843 -0.000927316
0.00454788 -0.00147704 -0.000686838
4.11679e-06 -1.98318e-05 -1.92801e-05
0.00411445 -0.0019746 0.000428005
0.00436891 -0.00165711 -0.000743238
0.00412601 -0.00181108 -0.000805445
-0.000540972 -5.28316e-05 -0.00054328
2.23476e-15 -7.42989e-15 3.99381e-14
0.000315064 -0.00299262 -0.00118138
0.0047286 0.00207017 0.00382287
-0.00486403 -0.029964 -0.057823
0.00727051 0.00262791 -0.00561166
0.00311942 -0.000616491 -0.00702503
0.00425557 -0.00208279 -0.000915321
3.70601e-06 -7.53166e-06 -1.61789e-05
0.00427217 -0.00131545 -0.00061593
-5.20889e-16 8.59344e-15 -2.19977e-14
-1.34243e-05 0.000224847 -0.000202568
1.94048e-06 -8.28497e-06 -1.50818e-05
-1.2407e-05 0.000205454 -0.000163257
-0.013874 -0.00115145 -0.00972219
-0.00020481 -0.000690719 0.00027172
0.0 -0.0 -0.03
0.0 -0.0 -0.03
0.0 -0.0 -0.03
-4.48432e-09 0.0229301 0.00159853
0.0 0.0 -0.226205
0.0 -0.0 -0.03
-0.0292062 0.0483025 -0.121409
-0.0123261 -0.00357693 -0.00812271
0.0125708 0.0384755 -0.0244528
0.0584478 0.0264445 -0.0769077
0.0 -0.0 -0.03
0.0 -0.0 -0.03
0.00643554 -0.0518448 -0.0442829
-0.00499657 -0.0826076 -0.0943522
-7.93526e-05 0.00164189 -0.107369
-0.0374021 -0.00848351 -0.0204698
0.0 -0.0 -0.03
0.00455015 -0.00544272 -0.0017911
0.0 -0.0 -0.03
0.0 -0.0 -0.03
0.0 -0.0 -0.03
0.0 -0.0 -0.03
0.0 -0.0 -0.03
0.0 -0.0 -0.03
0.0 -0.0 -0.03
0.0 -0.0 -0.03
0.0 -0.0 -0.03
0.0 -0.0 -0.03
0.0 -0.0 -0.03
0.0 -0.0 -0.03
0.0 -0.0 -0.03
0.0 -0.0 -0.03
0.0 -0.0 -0.03
0.0 -0.0 -0.03
0.0 -0.0 -0.03
0.0 -0.0 -0.03
0.0 -0.0 -0.03
0.0 -0.0 -0.03
0.0 -0.0 -0.03
0.0 -0.0 -0.03
0.0 -0.0 -0.03
0.0 -0.0 -0.03
0.0 -0.0 -0.03
0.0 -0.0 -0.03
0.0 -0.0 -0.03
0.0 -0.0 -0.03
0.0 -0.0 -0.03
-0.00317131 -0.0373037 -0.00705673
0.000302344 -0.00232145 -0.0141001
0.0 -0.0 -0.03
0.0 -0.0 -0.03
0.0 0.0 -0.163882
0.00619956 -0.00698665 -0.00888185
0.0 -0.0 -0.03
0.0 -0.0 -0.03
0.0 -0.0 -0.03
0.0 -0.0 -0.03
0.0 -0.0 -0.03
0.000329067 0.105417 -0.156486
0.0 -0.0 -0.03
0.0 -0.0 -0.03
0.0 -0.0 -0.03
0.0 -0.0 -0.03
0.0 -0.0 -0.03
0.0 -0.0 -0.03
0.0 -0.0 -0.03
0.0 -0.0 -0.03
0.0 -0.0 -0.03
0.0 -0.0 -0.03
0.0 -0.0 -0.03
0.0 -0.0 -0.03
0.0 -0.0 -0.03
0.0 -0.0 -0.03
0.0 -0.0 -0.03
0.0 -0.0 -0.03

VECTORS force float
1.47346e-09 5.3581e-09 6.28762e-10
-3.22401e-09 -1.73298e-09 -9.32605e-10
-1.58107e-09 -2.26575e-09 7.84568e-10
-5.86391e-09 -6.16441e-10 2.1621e-10
-2.18634e-09 4.90985e-09 -1.18757e-09
-1.97636e-09 7.07256e-10 8.8908e-10
2.38191e-09 -1.27592e-09 1.74456e-09
7.98703e-09 1.13046e-08 -3.67538e-09
1.07216e-09 -3.01015e-09 1.68615e-09
2.9644e-09 4.37129e-09 -1.75917e-09
-5.76225e-10 1.71676e-10 -1.13145e-11
1.79468e-09 -6.61852e-09 -1.50873e-08
-9.72287e-10 -1.77602e-10 1.32507e-09
2.07788e-09 -2.45544e-09 1.5559e-09
-1.96285e-10 7.23273e-10 3.79179e-09
-4.87989e-09 3.75748e-09 -1.40015e-09
9.44801e-09 -3.54503e-09 2.00363e-09
5.43655e-09 1.05523e-09 -3.45112e-09
2.74408e-09 2.49017e-09 -2.40124e-09
-1.54529e-09 3.51509e-09 9.28204e-09
-3.07485e-08 -2.43793e-08 6.64357e-09
4.26902e-09 -2.09046e-09 2.44364e-09
-2.24669e-09 -4.70502e-11 -5.15716e-09
-1.6754e-09 -2.00688e-09 3.93255e-09
5.66687e-10 1.60008e-09 -3.34251e-09
-3.55783e-09 -1.58049e-09 -1.9335e-10
1.67292e-09 6.05912e-10 -2.20996e-10
-8.07028e-10 7.44392e-10 2.72629e-11
7.71498e-09 3.82938e-09 3.22292e-09
-2.33578e-09 -5.98902e-10 1.58905e-09
2.70791e-09 -1.00725e-09 2.04601e-09
-5.32094e-11 -1.75832e-09 5.37894e-09
-4.63043e-09 -4.43503e-10 3.73005e-09
2.67747e-09 1.24845e-08 -4.16332e-09
1.71825e-09 -3.28338e-09 1.36646e-09
6.68301e-09 2.97306e-09 -4.91918e-11
-2.34707e-09 2.26527e-09 -4.90414e-09
-3.32997e-09 -1.88262e-09 -3.01783e-09
2.81703e-10 -1.12109e-09 1.56408e-09
-4.79211e-09 1.55564e-09 -1.61008e-09
1.15049e-09 -1.33191e-09 2.28158e-09
4.01282e-09 -2.51482e-09 -1.68513e-09
1.41439e-08 6.17825e-09 -1.01904e-09
-1.61155e-09 3.45707e-09 1.97683e-10
-1.01667e-10 -4.83204e-10 1.20892e-09
-1.03749e-08 -5.35477e-09 8.89311e-11
-4.01606e-09 3.8233e-09 6.38353e-09
-6.26281e-09 -5.60238e-10 6.28186e-10
8.59294e-10 1.40897e-09 3.88938e-09
1.70742e-09 3.32634e-09 6.40035e-10
1.6109e-09 1.46676e-09 -5.26628e-09
3.63311e-09 6.57786e-09 -1.97753e-09
-6.82315e-10 4.30739e-09 2.46808e-09
-1.18176e-09 -1.53595e-09 4.2075e-10
3.04601e-09 5.76701e-10 5.7593e-10
4.60746e-09 1.36898e-09 -2.60306e-09
-4.33298e-09 -2.19251e-09 1.30994e-09
3.10712e-09 -7.97596e-09 2.48808e-09
-3.38437e-09 -2.49129e-09 -3.66108e-11
-1.72835e-08 1.56544e-08 -3.59422e-09
7.46844e-09 -3.30642e-09 3.43994e-09
9.7607e-09 -3.10759e-09 -5.19813e-10
5.18058e-09 4.40734e-10 1.53246e-09
-6.72626e-10 -5.47114e-10 5.5753e-10
-1.0427e-08 7.39074e-09 -1.39446e-09
9.76085e-09 -1.24089e-09 -4.30847e-09
-6.96601e-09 7.83182e-10 1.15484e-09
-2.01407e-08 1.21714e-08 -2.65124e-09
3.36884e-09 -3.69869e-09 -7.02119e-10
6.42314e-09 -1.78993e-08 3.04206e-09
1.54024e-09 6.14293e-09 5.69698e-09
-9.96129e-09 5.18787e-09 -7.23706e-10
-7.25422e-09 4.9085e-09 2.53264e-08
-1.56758e-08 6.05013e-09 1.13968e-10
-2.48543e-09 4.01977e-09 -9.45096e-10
-4.31689e-09 -1.10671e-10 6.25288e-09
1.41426e-08 -3.17015e-08 4.94973e-09
-1.72904e-09 -3.01897e-09 2.58262e-10
4.59556e-09 6.75538e-10 2.86726e-10
3.07313e-09 -3.04675e-09 3.00224e-09
-5.39764e-09 -5.77306e-09 9.32242e-10
3.62768e-09 9.11442e-09 -7.25778e-09
-1.95379e-09 -1.59228e-09 6.04154e-10
-7.56417e-10 -3.80425e-09 6.06548e-10
2.10673e-09 5.17352e-09 -2.1025e-09
-8.25169e-10 -1.92851e-09 1.42653e-09
4.91072e-09 -2.54772e-10 -4.94782e-10
-6.17782e-10 -1.55035e-09 -1.33558e-10
2.30524e-09 2.54208e-09 -4.22095e-09
2.8702e-09 2.80133e-10 2.12566e-09
-1.43355e-09 -1.26118e-09 2.29241e-11
3.29588e-09 -1.27104e-09 1.68749e-09
-1.80931e-09 -1.54179e-09 7.43065e-10
1.03793e-08 3.50931e-09 9.0537e-10
2.00097e-09 8.09857e-10 8.76898e-10
-2.99547e-09 -2.72066e-09 4.63426e-09
-6.14114e-09 8.84039e-10 -4.43649e-09
1.52239e-09 -2.12006e-09 1.77494e-09
3.37927e-09 -1.49019e-09 2.97417e-11
5.16443e-09 -1.12173e-09 7.62349e-10
-4.45887e-10 1.97239e-09 -6.8587e-10
-5.69535e-10 -4.63352e-09 2.4469e-09
1.71311e-09 -2.56334e-09 -7.26854e-10
1.85363e-09 6.58565e-09 -2.75316e-09
3.10451e-09 6.02986e-09 2.70773e-09
1.60185e-09 -1.2146e-09 2.46355e-10
2.4132e-09 -1.30608e-08 1.71843e-09
1.81447e-09 1.83142e-09 -1.2379e-09
2.74241e-09 -1.76245e-09 9.6857e-10
1.68538e-10 -1.99207e-09 2.09314e-09
-1.36534e-08 3.21004e-09 -3.75144e-10
-3.20774e-09 8.58003e-09 3.81581e-09
3.42518e-09 3.63746e-09 -2.65044e-09
3.337e-09 -4.25242e-09 3.21718e-09
-2.95805e-09 6.58125e-09 2.67984e-09
-1.16471e-11 -1.03639e-09 6.1974e-09
2.59322e-09 -7.82632e-10 6.04243e-10
5.03361e-09 -2.13246e-09 1.52072e-09
1.14728e-09 -6.77386e-09 1.70474e-09
-4.7534e-09 -1.49148e-09 -3.12375e-10
-5.77684e-09 -1.8725e-09 -8.31044e-10
-2.57362e-09 -6.67467e-09 6.09657e-10
4.93032e-09 -1.72082e-09 1.36063e-09
2.29959e-08 -1.92666e-09 -6.6564e-10
9.87766e-09 7.66793e-10 -3.53027e-09
4.7186e-09 2.56189e-09 -1.53857e-09
-2.03733e-09 -7.43449e-09 1.5909e-09
9.40806e-09 1.89245e-08 -4.11801e-09
-2.21951e-10 4.50636e-10 4.66628e-09
2.54772e-10 -1.02073e-09 2.23509e-09
1.54464e-09 -1.37044e-09 9.64789e-10
1.3398e-09 -4.68707e-09 1.04786e-09
-4.86179e-10 -1.64223e-09 -3.93954e-10
-9.99634e-10 -1.56283e-09 3.85357e-10
3.30436e-09 2.62724e-09 -3.97303e-09
-6.01477e-10 -1.86923e-09 2.21291e-10
1.0987e-09 -6.53281e-10 -3.93242e-10
-7.77413e-09 -2.17526e-09 1.74556e-09
-3.05349e-09 3.96124e-09 -6.22145e-10
-4.72548e-09 -6.18855e-09 9.09634e-10
-8.0687e-09 1.18962e-08 -5.49027e-09
5.57969e-09 1.72715e-09 2.30999e-09
-2.46489e-09 2.54174e-09 -6.26626e-10
-1.31013e-09 3.13419e-09 9.66905e-09
2.16211e-09 3.73816e-09 -2.09707e-10
1.89693e-09 4.70783e-10 9.65909e-10
-6.66946e-10 3.00467e-09 2.56952e-09
3.75964e-09 6.24535e-10 -9.9274e-10
-5.05842e-10 -3.2692e-09 2.25173e-09
2.37136e-09 -2.75034e-09 2.75161e-09
-7.82496e-10 -1.47373e-09 6.16977e-09
-1.86379e-10 9.3942e-10 -1.03509e-09
2.05442e-10 -2.06474e-09 1.91167e-09
-3.50592e-10 -1.77613e-09 3.09702e-09
-5.26055e-10 1.36486e-09 -5.5578e-10
5.59747e-09 1.48877e-09 -1.04053e-09
-7.26046e-10 -1.21456e-09 -8.31419e-10
4.54025e-09 -1.86734e-09 2.30694e-09
-6.22002e-09 1.97784e-09 -5.05675e-10
3.32909e-09 -2.46225e-10 -2.23416e-10
-6.22768e-10 -1.3295e-10 -4.92057e-09
-1.18297e-09 -4.26068e-09 -1.88405e-09
-9.87789e-09 -4.78554e-10 -3.41281e-09
1.57542e-09 1.91798e-09 -2.48094e-10
-3.00441e-10 -2.13601e-09 7.71057e-10
3.53084e-10 2.0091e-09 6.03181e-11
-7.66605e-09 -2.94357e-09 4.38469e-10
-1.47055e-09 -2.62766e-10 1.29263e-09
1.90335e-09 -3.38042e-10 -4.51747e-09
4.53979e-09 -1.37978e-10 -2.33484e-09
1.36553e-09 7.22484e-10 2.26625e-10
4.93611e-10 -1.84249e-09 3.11133e-09
-9.61483e-10 1.41282e-09 2.60855e-09
1.5201e-08 3.58785e-08 2.03624e-09
2.55014e-09 -8.08433e-10 -3.62458e-10
4.71245e-09 3.63011e-09 -2.66485e-09
6.42558e-09 -2.11327e-10 -2.93588e-10
1.11417e-09 -1.01195e-09 6.86926e-09
-8.00386e-10 -2.56735e-09 1.68555e-09
1.41324e-09 1.32366e-09 -2.49814e-10
-2.50109e-09 1.08782e-09 -4.5587e-09
0.0 0.0 -3.8832e-08
3.55319e-09 -2.09633e-09 4.29323e-09
-2.51351e-09 -6.98498e-09 1.07453e-09
7.54893e-09 7.07258e-10 3.005e-10
-1.64246e-09 -1.34034e-09 8.99021e-11
-3.40131e-09 8.59566e-10 -5.17719e-10
1.5895e-09 -2.44392e-09 -1.30241e-09
1.90597e-09 2.40364e-09 2.35616e-10
-1.82927e-09 -5.12642e-10 5.69832e-10
4.86936e-10 3.77995e-10 -5.35004e-09
1.98725e-09 -1.68138e-10 2.33689e-09
-2.93171e-09 3.02121e-09 2.35386e-09
-2.77253e-09 1.27283e-09 2.25802e-10
-3.17833e-09 2.33534e-09 -6.59761e-10
6.43785e-09 -1.6371e-09 3.6288e-09
2.34962e-09 2.34416e-09 -3.95085e-10
6.38789e-09 1.30526e-09 6.89304e-09
-4.9782e-10 -1.59052e-09 -9.07871e-10
1.49595e-09 2.91866e-10 1.94816e-09
9.08919e-10 -3.42917e-11 2.92901e-10
2.48387e-09 5.94243e-09 -4.943e-10
-1.01996e-08 -2.88922e-09 1.45917e-09
8.39772e-10 2.80646e-09 8.85715e-10
2.54898e-09 -1.13722e-09 8.20826e-10
2.65108e-12 2.17159e-10 -1.38327e-10
6.53726e-11 1.0675e-09 4.67619e-12
-1.88273e-09 3.6888e-09 -2.56963e-10
1.57202e-09 1.13199e-09 2.38875e-10
2.71048e-09 -6.31752e-10 -8.07772e-10
1.7926e-08 -2.01789e-09 -1.68345e-09
0.0 0.0 -3.8832e-08
3.41066e-09 -2.60566e-09 1.20208e-09
3.48626e-10 -1.71706e-09 -6.4248e-10
7.14744e-10 -2.61833e-09 4.91824e-10
3.3364e-09 1.16749e-08 8.6419e-09
1.29899e-09 -6.64724e-10 -3.73083e-11
9.17466e-10 -1.30385e-09 -2.05692e-09
-9.35268e-10 -1.03063e-09 -2.04482e-09
-7.4855e-10 -5.06662e-09 1.20608e-09
-1.42001e-09 -2.64729e-09 2.65687e-10
-3.24265e-09 9.95934e-10 8.30606e-10
2.8783e-09 8.82339e-10 4.65848e-09
4.73214e-09 -1.29994e-09 -9.20552e-10
2.69329e-10 9.41217e-11 9.42551e-11
-7.77741e-13 1.32188e-09 8.88179e-10
9.93465e-09 -5.42806e-09 -2.2004e-09
9.30147e-09 2.30625e-08 5.00362e-08
2.07364e-09 -2.18141e-09 -1.70591e-09
4.56896e-09 -7.62153e-10 7.59944e-10
-9.14331e-10 -1.03046e-09 9.11793e-10
-2.31058e-10 -1.47894e-09 -5.87525e-10
-2.7875e-09 -1.1375e-09 1.05657e-09
0.0 0.0 -3.8832e-08
-1.72575e-09 -3.77333e-09 6.92203e-10
1.34554e-09 -4.60662e-09 1.09439e-09
-1.31753e-10 -3.74097e-10 -1.05125e-10
-7.98113e-09 6.15711e-10 5.89618e-09
-3.75546e-09 9.69049e-10 4.23423e-09
-1.18393e-09 -8.70323e-10 7.47401e-09
1.30134e-09 1.35196e-09 2.32938e-09
-1.58962e-09 3.25689e-09 2.70869e-09
-1.50551e-10 -2.49162e-09 6.74286e-10
2.72338e-11 -4.93829e-10 -7.11994e-10
1.96846e-10 -1.7286e-09 3.51497e-09
3.00887e-23 -4.96308e-24 -6.61744e-24
-1.95458e-09 -2.14158e-10 1.11377e-08
-9.82732e-10 -2.63976e-10 -7.40569e-11
-7.56197e-09 3.33401e-10 1.45728e-09
0.0 0.0 -3.8832e-08
3.59964e-09 -3.40257e-09 -2.70906e-09
2.06795e-23 -4.96308e-24 0.0
-2.3808e-09 -7.80515e-10 1.77563e-09
1.3546e-09 -1.39687e-09 -3.86521e-10
1.00248e-09 -3.17364e-09 2.50587e-09
1.24581e-10 -6.85996e-10 6.17934e-10
4.12451e-10 1.19984e-08 -1.99212e-08
-6.17485e-09 -1.03865e-09 2.35987e-09
1.0536e-09 -3.22939e-09 8.93637e-09
2.84119e-09 -2.09793e-09 6.32483e-10
4.2095e-09 -3.62904e-09 2.92017e-09
2.52942e-09 -1.31289e-08 -8.63101e-09
-3.7755e-11 2.94733e-09 -8.64022e-09
-4.31788e-22 -1.1746e-22 0.0
-1.16748e-08 4.80786e-09 1.60947e-09
-1.91503e-09 2.46509e-09 -3.69496e-09
9.7967e-11 -1.32135e-09 1.06295e-09
-2.78619e-10 2.33811e-09 4.22939e-09
6.5919e-10 -1.50312e-11 1.37087e-09
1.65357e-09 1.98629e-09 -9.5189e-10
-2.70941e-09 -1.55805e-09 -3.60948e-10
-1.35401e-10 1.94586e-09 -2.71844e-10
-2.41417e-09 3.64552e-10 -3.73497e-10
-3.12514e-10 -1.00385e-09 -6.82859e-10
-2.04438e-09 6.77774e-09 -1.15667e-09
-3.83646e-09 1.18201e-09 4.93812e-09
-1.9072e-09 -5.91449e-09 -2.6223e-09
3.24979e-09 -3.15157e-09 5.70777e-09
-4.1538e-10 -2.4722e-10 2.05202e-10
-6.0199e-10 -8.18312e-10 -2.69916e-10
-1.38797e-09 -1.09896e-09 -2.91306e-10
-2.46293e-10 -1.81217e-09 -4.58419e-10
-1.12224e-09 2.58207e-09 7.02913e-10
1.71041e-09 -3.31516e-09 2.47813e-09
4.34654e-10 -2.85573e-10 -6.91993e-09
2.77824e-09 8.56124e-10 1.39056e-09
2.20389e-09 -1.20869e-09 -7.28001e-10
-1.89916e-09 2.37932e-09 -7.76728e-10
-5.30033e-10 -1.64698e-09 -6.966e-10
5.49044e-10 2.51031e-10 6.50623e-10
-6.65694e-10 -1.4495e-09 -6.48127e-10
6.38326e-09 2.19005e-09 3.68318e-09
-1.48257e-09 4.99697e-09 1.82305e-09
-3.50717e-09 -6.45334e-10 8.70325e-10
0.0 0.0 -3.8832e-08
-5.85723e-10 6.04602e-09 1.23063e-08
-1.04188e-11 -6.52243e-11 -4.63386e-10
-2.53967e-10 -1.49094e-09 -2.19011e-09
1.11669e-23 1.65436e-24 0.0
-9.50639e-10 -1.66959e-10 2.03822e-09
2.46155e-10 -2.01588e-10 -2.04349e-09
3.96934e-09 7.18857e-09 4.14124e-10
-8.94893e-08 -5.14801e-09 -4.18691e-08
5.61171e-09 -3.38714e-09 -1.38431e-09
-1.65829e-09 -5.05765e-09 8.56125e-09
0.0 0.0 -3.8832e-08
-7.15122e-08 5.36049e-08 6.0022e-08
-6.89052e-09 1.98709e-09 -9.43846e-09
-5.89559e-09 8.16689e-10 4.76061e-10
2.43691e-09 -2.32628e-09 -3.06703e-09
-1.87523e-09 -1.13345e-09 4.62015e-10
-6.32052e-09 3.36599e-09 2.68297e-09
2.01385e-09 1.77414e-09 6.39209e-10
4.74726e-09 3.71729e-11 -2.28527e-09
0.0 0.0 -3.8832e-08
9.87922e-18 -1.2695e-10 -4.00026e-10
0.0 0.0 -3.8832e-08
4.77207e-08 2.46625e-08 2.25305e-08
-1.92293e-09 4.67283e-09 1.07755e-09
0.0 0.0 -3.8832e-08
5.59458e-10 -8.64252e-09 1.54307e-09
1.26556e-18 -1.43523e-10 -3.14959e-10
6.35904e-09 -8.69691e-09 -1.72503e-09
1.36748e-08 -1.59383e-09 -8.79238e-10
-3.06844e-12 -1.36163e-10 -3.33018e-10
-1.94918e-10 8.02957e-09 1.6447e-09
7.50737e-11 -3.09773e-09 -1.51432e-09
-8.47564e-09 2.94497e-09 -2.64567e-09
-1.10012e-10 -2.31943e-10 3.38851e-10
1.12596e-18 -1.52546e-11 -3.45783e-10
3.08618e-10 -5.21431e-10 1.31817e-09
5.18363e-09 7.99638e-09 -3.6795e-09
-4.71826e-09 -2.4351e-10 5.31657e-09
0.0 0.0 -3.8832e-08
7.96332e-09 -3.42308e-09 -1.91509e-10
0.0 0.0 -3.8832e-08
0.0 0.0 -3.8832e-08
2.4921e-10 -2.58946e-10 1.87628e-10
4.01974e-10 -1.33871e-09 1.65798e-09
0.0 0.0 -3.8832e-08
1.99429e-09 -2.52392e-09 -1.81295e-09
-2.98959e-09 -2.75972e-09 -2.43967e-09
3.60963e-10 -6.15584e-10 8.25796e-10
-8.20472e-10 -5.32591e-09 -3.80604e-09
5.42533e-10 -1.21548e-08 -1.76353e-08
-4.44891e-10 -1.58512e-10 5.52858e-10
1.19984e-09 -2.68649e-10 -1.77297e-10
9.71791e-10 -1.45632e-09 -6.86574e-10
-2.83648e-09 -2.77646e-10 -7.27237e-10
-7.18971e-09 -6.61627e-10 -3.68163e-10
-2.92611e-10 4.71846e-09 -4.39972e-09
2.87451e-10 -2.13733e-09 -1.0711e-09
-7.26602e-08 5.21224e-08 1.12514e-07
5.83162e-23 7.44463e-24 0.0
-5.92026e-10 -6.49702e-10 -1.14021e-09
-9.92541e-09 -2.10549e-08 -3.31428e-08
0.0 0.0 -3.8832e-08
-9.77382e-11 7.04416e-11 2.82843e-10
-1.71485e-08 -6.10238e-08 -4.4e-08
4.0228e-10 -7.2126e-10 -2.0246e-10
-8.87495e-11 3.72552e-10 6.61413e-10
2.47648e-09 1.19478e-09 5.6716e-10
-2.48154e-24 0.0 0.0
-1.57826e-11 2.07915e-10 -1.62466e-10
-2.05049e-10 3.51876e-10 6.38208e-10
-1.42619e-11 2.07985e-10 -1.63904e-10
0.0 0.0 -3.8832e-08
1.07505e-07 -4.9866e-08 -1.25775e-07
0.0 0.0 0.0
0.0 0.0 0.0
0.0 0.0 0.0
-5.68345e-17 3.03917e-11 -4.35595e-10
0.0 0.0 -3.8832e-08
0.0 0.0 0.0
0.0 0.0 -3.8832e-08
4.22899e-09 5.34259e-10 4.22764e-09
0.0 0.0 -3.8832e-08
0.0 0.0 -3.8832e-08
0.0 0.0 0.0
0.0 0.0 0.0
0.0 0.0 -3.8832e-08
0.0 0.0 -3.8832e-08
0.0 0.0 -3.8832e-08
0.0 0.0 -3.8832e-08
0.0 0.0 0.0
0.0 0.0 -3.8832e-08
0.0 0.0 0.0
0.0 0.0 0.0
0.0 0.0 0.0
0.0 0.0 0.0
0.0 0.0 0.0
0.0 0.0 0.0
0.0 0.0 0.0
0.0 0.0 0.0
0.0 0.0 0.0
0.0 0.0 0.0
0.0 0.0 0.0
0.0 0.0 0.0
0.0 0.0 0.0
0.0 0.0 0.0
0.0 0.0 0.0
0.0 0.0 0.0
0.0 0.0 0.0
0.0 0.0 0.0
0.0 0.0 0.0
0.0 0.0 0.0
0.0 0.0 0.0
0.0 0.0 0.0
0.0 0.0 0.0
0.0 0.0 0.0
0.0 0.0 0.0
0.0 0.0 0.0
0.0 0.0 0.0
0.0 0.0 0.0
0.0 0.0 0.0
0.0 0.0 -3.8832e-08
2.51586e-08 4.32657e-08 1.23712e-07
0.0 0.0 0.0
0.0 0.0 0.0
0.0 0.0 -3.8832e-08
0.0 0.0 -3.8832e-08
0.0 0.0 0.0
0.0 0.0 0.0
0.0 0.0 0.0
0.0 0.0 0.0
0.0 0.0 0.0
0.0 0.0 -3.8832e-08
0.0 0.0 0.0
0.0 0.0 0.0
0.0 0.0 0.0
0.0 0.0 0.0
0.0 0.0 0.0
0.0 0.0 0.0
0.0 0.0 0.0
0.0 0.0 0.0
0.0 0.0 0.0
0.0 0.0 0.0
0.0 0.0 0.0
0.0 0.0 0.0
0.0 0.0 0.0
0.0 0.0 0.0
0.0 0.0 0.0
0.0 0.0 0.0
