# vtk DataFile Version 3.0
LIGGGHTS particles timestep 2400000
ASCII
DATASET POLYDATA
POINTS 368 float
0.0196305 0.0193174 0.00692309
0.0247311 0.0178485 0.00724966
0.0190819 0.0197116 0.00703991
0.0254442 0.0167984 0.00759985
0.0183449 0.0185221 0.0070488
0.0241587 0.0164855 0.00782121
0.0242181 0.0167255 0.00765123
0.0244381 0.0177512 0.00726331
0.0237762 0.0161214 0.00808092
0.0301457 0.0176606 0.00727082
0.030402 0.0187923 0.00696686
0.030306 0.0171869 0.00739926
0.0243685 0.0174419 0.00731106
0.0244521 0.0165393 0.00778206
0.0300155 0.0170952 0.00742317
0.0192673 0.0190279 0.0071595
0.0258247 0.0176059 0.00727987
0.0246539 0.0175454 0.00729638
0.0302108 0.0179414 0.00718767
0.0300807 0.0173795 0.00735297
0.0251426 0.0185104 0.00713262
0.0248281 0.0168446 0.00756336
0.0257662 0.018181 0.00717466
0.0234007 0.0150183 0.00943155
0.0298389 0.016366 0.00788763
0.0178568 0.016418 0.00786441
0.0238348 0.0163615 0.0079108
0.026173 0.0182722 0.00714513
0.0253741 0.0196875 0.00701135
0.0177899 0.0161609 0.00800369
0.0237164 0.0158838 0.00825398
0.0302407 0.0169028 0.00747065
0.0251626 0.0168799 0.00753653
0.0242094 0.0179429 0.00723237
0.0240368 0.0160024 0.00816988
0.030371 0.0174675 0.00731544
0.0298968 0.0165879 0.00769425
0.0299551 0.0168128 0.00750451
0.0240962 0.0162407 0.00799467
0.0254356 0.0165575 0.0077785
0.024387 0.0163006 0.00795168
0.0305667 0.0170412 0.00742814
0.0252411 0.0176005 0.00729076
0.0181519 0.017668 0.00722323
0.0236554 0.0156739 0.00845942
0.0252061 0.0188091 0.00707509
0.0253973 0.0170369 0.00742409
0.0302758 0.0182223 0.00710503
0.0239534 0.0168414 0.00757084
0.023894 0.0166015 0.00774081
0.0240792 0.0173668 0.0073368
0.0241444 0.0176535 0.00727761
0.0253207 0.0173176 0.00735096
0.030341 0.0185061 0.00703293
0.024014 0.0170811 0.00740101
0.0243018 0.0171528 0.00735567
0.0261586 0.0177587 0.00724111
0.0250318 0.0192943 0.00699018
0.0256115 0.0173869 0.00732583
0.0245676 0.0183319 0.00718606
0.024576 0.017018 0.00744233
0.0249634 0.0170834 0.00744211
0.0249439 0.0176397 0.00728318
0.0260185 0.0180203 0.00719677
0.0251072 0.0178884 0.00724532
0.0250238 0.0173541 0.00732798
0.0246963 0.0189072 0.00707471
0.0248563 0.0184215 0.00716045
0.0247256 0.0172577 0.00734149
0.0249478 0.0181395 0.00720549
0.0246327 0.0186191 0.007129
0.0249197 0.018709 0.00710257
0.0306527 0.0173659 0.00733217
0.0253927 0.0179781 0.00722395
0.0179749 0.0169544 0.00762615
0.025262 0.0190991 0.0070194
0.0252333 0.0182288 0.00718223
0.0235961 0.0155091 0.008703
0.0248999 0.0162133 0.00802784
0.0247385 0.0166113 0.00772925
0.0257869 0.0187083 0.00707591
0.024503 0.0180409 0.00722001
0.0245106 0.0167792 0.00761168
0.023532 0.0153455 0.00894614
0.0182801 0.0182326 0.00709343
0.0243272 0.016065 0.00812844
0.025882 0.0192881 0.00696509
0.0187785 0.0192426 0.00697834
0.025631 0.018445 0.00712972
0.0184671 0.0177828 0.00715904
0.0297817 0.0161541 0.00809212
0.0297214 0.0159425 0.00829608
0.025859 0.0189942 0.00702049
0.0255837 0.0192599 0.00697954
0.0194921 0.0185399 0.00703185
0.0301818 0.0166545 0.0076284
0.0257329 0.0168648 0.00755236
0.0252511 0.016367 0.00791869
0.0261631 0.0193892 0.00693759
0.0251815 0.0161335 0.00809366
0.0198426 0.0190887 0.00695428
0.0249695 0.0164468 0.00785299
0.0249186 0.0200579 0.00713413
0.0180362 0.0171958 0.00745895
0.0266683 0.0193705 0.00692606
0.0246134 0.0161394 0.00807792
0.0189092 0.0171647 0.00743852
0.0182157 0.0179404 0.007115
0.0246734 0.0163745 0.00790153
0.0234658 0.0151817 0.00918853
0.0263707 0.0187379 0.00705237
0.0180997 0.0174889 0.00745817
0.0256397 0.0195545 0.00696949
0.0239733 0.0157623 0.00834996
0.0261662 0.0197637 0.007056
0.0185266 0.0194019 0.00701189
0.0264105 0.0192211 0.00696123
0.0248343 0.015979 0.0082034
0.0244043 0.0188111 0.00709832
0.024468 0.0191 0.00704866
0.0254871 0.0187045 0.00708587
0.0249791 0.0190031 0.00704674
0.019065 0.01778 0.00714623
0.0255321 0.0176723 0.00727823
0.0257351 0.0178879 0.00723017
0.0185281 0.0180647 0.00707601
0.025904 0.0173204 0.00733055
0.0242744 0.0182323 0.00718769
0.018469 0.0191075 0.0070076
0.0197586 0.0177424 0.00717158
0.0187659 0.0178022 0.00714059
0.0259308 0.0184473 0.00712003
0.0187086 0.0202493 0.00722851
0.0261401 0.0190951 0.00699303
0.0183638 0.0174139 0.00733721
0.0202846 0.0187169 0.00703048
0.0245241 0.0193885 0.00698835
0.01791 0.0166795 0.0077272
0.0205805 0.0187665 0.00703081
0.0247515 0.0192001 0.00704083
0.0243393 0.0185218 0.00714372
0.0259379 0.0195821 0.00698591
0.0201341 0.0191593 0.00695142
0.0182661 0.016886 0.00760294
0.0200178 0.0188533 0.00701645
0.0245845 0.0196771 0.00704345
0.0248688 0.0197715 0.0070604
0.019324 0.0182938 0.00706626
0.025154 0.0166372 0.0077127
0.0192691 0.0175774 0.00723169
0.0233365 0.0149134 0.00970517
0.02966 0.0157311 0.00849984
0.0250883 0.0195882 0.0069695
0.018839 0.0195393 0.0070038
0.0187131 0.0189415 0.00695432
0.0197239 0.0183088 0.00707773
0.0189438 0.0199625 0.00712944
0.024548 0.015905 0.00825363
0.0207611 0.0190034 0.0069953
0.0251507 0.0198774 0.00707451
0.0242016 0.0171035 0.0076341
0.0247732 0.0204659 0.00742964
0.0181803 0.0163592 0.0078743
0.0193457 0.0192269 0.00694916
0.0242618 0.0158307 0.00830404
0.0184077 0.0188143 0.00702399
0.0261651 0.0174638 0.00729578
0.0241413 0.0154696 0.00876686
0.0195709 0.0200066 0.00718947
0.0195312 0.0180809 0.00710829
0.020573 0.0212786 0.00767156
0.0244853 0.015677 0.00843819
0.0239757 0.0166119 0.00802949
0.017313 0.02391 0.0119534
0.0237551 0.016193 0.00837488
0.0263859 0.0180633 0.00717743
0.0191276 0.0180691 0.00709624
0.0240396 0.0168496 0.00785803
0.0185847 0.0196952 0.00703561
0.0198264 0.0180311 0.00712671
0.0239117 0.0155848 0.00858731
0.0177185 0.0239214 0.0118932
0.019141 0.0173338 0.00735116
0.0194155 0.0172214 0.007396
0.0251159 0.0158993 0.00826924
0.0207616 0.0193012 0.00695942
0.0203839 0.0189968 0.00698606
0.0209335 0.0206244 0.00740747
0.0195532 0.0190114 0.00697041
0.0242006 0.0156272 0.00851854
0.0239218 0.0163715 0.0082007
0.0191485 0.0185347 0.00703277
0.020251 0.0197311 0.00707917
0.0200558 0.0199433 0.00716215
0.0185928 0.0183542 0.00703091
0.0188284 0.0180914 0.0070909
0.0204636 0.0184804 0.0070754
0.0253159 0.0193935 0.00699948
0.0187731 0.0205196 0.00734133
0.0256848 0.0198334 0.00707043
0.0186548 0.0186488 0.00698489
0.0199127 0.0185397 0.00704652
0.026075 0.0187884 0.00705211
0.0263955 0.019571 0.00699195
0.0188916 0.0183799 0.00703819
0.0184238 0.0239408 0.0119175
0.0197284 0.018776 0.00703293
0.0199689 0.0170884 0.00744196
0.0193442 0.0187966 0.00698471
0.0254285 0.0199818 0.00711801
0.0186219 0.0175488 0.00726525
0.0177734 0.0240507 0.0121752
0.0248047 0.0194909 0.00696063
0.0194633 0.0177921 0.00715326
0.0193722 0.0195381 0.00698804
0.0246437 0.0199431 0.00716886
0.0190448 0.0188096 0.00697216
0.0190473 0.0191095 0.00697243
0.0206816 0.0204707 0.00735338
0.0189217 0.0175419 0.00725927
0.0193184 0.0207951 0.00748966
0.0204954 0.0195728 0.00700702
0.0183318 0.0171457 0.00746789
0.019791 0.0173088 0.00734293
0.0189365 0.0212039 0.00762699
0.0196998 0.0203804 0.0073414
0.0190798 0.0169398 0.00753992
0.0170792 0.0238933 0.0121406
0.0244973 0.0172918 0.00753661
0.0204345 0.019728 0.00735037
0.0238524 0.015425 0.00883422
0.0198262 0.020963 0.00756595
0.0177327 0.0159608 0.00821974
0.0160548 0.0232121 0.0105976
0.021034 0.0191764 0.00697324
0.0195436 0.017465 0.00727652
0.0190522 0.0216868 0.0078286
0.0200872 0.0196839 0.00732599
0.0256991 0.0171042 0.00737473
0.0232765 0.014859 0.00999403
0.0236909 0.0159578 0.00854959
0.0136895 0.0207119 0.00741988
0.0208797 0.0195742 0.00699861
0.0201767 0.0206125 0.00742195
0.024707 0.0155669 0.00860759
0.020912 0.0213099 0.00773372
0.0186316 0.0170069 0.00752194
0.0202808 0.0211953 0.00764592
0.0211488 0.0200725 0.00718674
0.0181926 0.0239779 0.0121526
0.0194596 0.0169527 0.00752204
0.0150856 0.0220026 0.00865018
0.0240772 0.0153092 0.00901211
0.020581 0.0209533 0.00754426
0.0185318 0.0167565 0.00765375
0.0237883 0.0152612 0.00907721
0.0205074 0.0141749 0.0120046
0.0182049 0.0166254 0.00773823
0.0252007 0.0171876 0.00759325
0.0237673 0.0157718 0.00877217
0.0248036 0.0157406 0.00838285
0.018635 0.0172779 0.00739333
0.020233 0.0201702 0.00724658
0.0142957 0.0207929 0.00740102
0.0154663 0.0230269 0.0125702
0.0203871 0.0204156 0.00733881
0.0191045 0.019404 0.00696982
0.0202181 0.0194416 0.00700791
0.0199418 0.0196838 0.00706349
0.0199169 0.0194015 0.00695379
0.0193563 0.0198174 0.00709904
0.0201752 0.0183981 0.00707883
0.0204629 0.0192824 0.00693941
0.0196443 0.019648 0.00705055
0.0208781 0.0187317 0.00704495
0.0208493 0.0200836 0.00719817
0.024708 0.0202147 0.00727913
0.01802 0.02393 0.0119055
0.0200151 0.0203604 0.00732607
0.0192176 0.0200688 0.00719052
0.0190435 0.0206328 0.00740507
0.0186442 0.0199759 0.00712305
0.0198379 0.0201335 0.00724161
0.0206726 0.0197997 0.00709146
0.0194332 0.020257 0.00728063
0.0152813 0.0228068 0.00986449
0.0204641 0.020695 0.00744614
0.0203675 0.0194475 0.00726801
0.0191899 0.0210498 0.0075823
0.0198771 0.0206038 0.00743429
0.0188524 0.0208516 0.00747992
0.0204281 0.0199595 0.00715967
0.0205789 0.0202023 0.00725093
0.0238503 0.0150984 0.00932144
0.0186177 0.0242387 0.0124654
0.0188266 0.0167982 0.00761636
0.0157062 0.0228835 0.0100403
0.0235086 0.0154906 0.00920771
0.0203512 0.0214801 0.00775553
0.0200383 0.020429 0.00761721
0.0235685 0.0156547 0.00896385
0.0247532 0.0171717 0.00763705
0.0163316 0.0231143 0.0105019
0.0192809 0.0167363 0.00763021
0.0190276 0.0165952 0.00770795
0.0158955 0.0230349 0.0104153
0.0165596 0.0206739 0.0152636
0.0190158 0.0239668 0.0125557
0.0163212 0.0231719 0.0107961
0.0156272 0.0230448 0.0102813
0.0234335 0.015328 0.0094484
0.0195789 0.0167026 0.00763698
0.0211069 0.0209019 0.00751176
0.0196634 0.0141829 0.0119884
0.0157755 0.0205918 0.0154641
0.0196542 0.0182676 0.0206102
0.0171385 0.0198365 0.0208994
0.0229391 0.0202526 0.0154156
0.0173661 0.0200727 0.0154619
0.0196823 0.0199739 0.0163121
0.0201015 0.0153736 0.0193198
0.0228994 0.0180428 0.0188415
0.0189287 0.017228 0.0077311
0.0187201 0.0165441 0.00775083
0.0159407 0.017941 0.0180136
0.0177135 0.0151418 0.0198813
0.0185685 0.0215225 0.0157298
0.0176521 0.0147815 0.011795
0.0228287 0.0147627 0.012098
0.0172191 0.0180305 0.0208523
0.0207949 0.0141904 0.0121042
0.0186822 0.0162889 0.00790392
0.0230732 0.0167803 0.0188964
0.0177254 0.0176999 0.0211191
0.0202862 0.0138629 0.0133032
0.0201768 0.0180519 0.0185282
0.0160612 0.0197825 0.0201954
0.0154392 0.0146133 0.0136254
0.018018 0.0172585 0.0209563
0.0183309 0.0186511 0.0214611
0.0212086 0.0204972 0.00735122
0.0193188 0.0205169 0.00737721
0.0190315 0.0240685 0.0121587
0.0185681 0.0240517 0.012156
0.0154139 0.0229429 0.0100967
0.0195827 0.0206584 0.00745182
0.0201265 0.0209417 0.00755053
0.020955 0.0203459 0.00729814
0.0187253 0.0239425 0.0119233
0.0209865 0.0198362 0.00709829
0.0203514 0.0204834 0.00762883
0.0208598 0.0210584 0.00757874
0.0162609 0.0229552 0.0102576
0.0148305 0.0227096 0.0096579
0.0221917 0.021245 0.0190119
0.0160609 0.0228033 0.0152654
0.0173678 0.0238844 0.0122502
0.0144669 0.0204907 0.0199781
0.0160867 0.0216457 0.0205595
0.0191932 0.0238057 0.0128244
0.0191769 0.0239514 0.0119183
0.0213655 0.0207366 0.00744104
0.0213047 0.0222373 0.0203091
0.0198538 0.024174 0.012526
0.0195394 0.0206572 0.0168105
0.0194792 0.0239671 0.011943
0.0156011 0.0225042 0.0204835
0.0159823 0.022921 0.0101517

VERTICES 368 736
1 0
1 1
1 2
1 3
1 4
1 5
1 6
1 7
1 8
1 9
1 10
1 11
1 12
1 13
1 14
1 15
1 16
1 17
1 18
1 19
1 20
1 21
1 22
1 23
1 24
1 25
1 26
1 27
1 28
1 29
1 30
1 31
1 32
1 33
1 34
1 35
1 36
1 37
1 38
1 39
1 40
1 41
1 42
1 43
1 44
1 45
1 46
1 47
1 48
1 49
1 50
1 51
1 52
1 53
1 54
1 55
1 56
1 57
1 58
1 59
1 60
1 61
1 62
1 63
1 64
1 65
1 66
1 67
1 68
1 69
1 70
1 71
1 72
1 73
1 74
1 75
1 76
1 77
1 78
1 79
1 80
1 81
1 82
1 83
1 84
1 85
1 86
1 87
1 88
1 89
1 90
1 91
1 92
1 93
1 94
1 95
1 96
1 97
1 98
1 99
1 100
1 101
1 102
1 103
1 104
1 105
1 106
1 107
1 108
1 109
1 110
1 111
1 112
1 113
1 114
1 115
1 116
1 117
1 118
1 119
1 120
1 121
1 122
1 123
1 124
1 125
1 126
1 127
1 128
1 129
1 130
1 131
1 132
1 133
1 134
1 135
1 136
1 137
1 138
1 139
1 140
1 141
1 142
1 143
1 144
1 145
1 146
1 147
1 148
1 149
1 150
1 151
1 152
1 153
1 154
1 155
1 156
1 157
1 158
1 159
1 160
1 161
1 162
1 163
1 164
1 165
1 166
1 167
1 168
1 169
1 170
1 171
1 172
1 173
1 174
1 175
1 176
1 177
1 178
1 179
1 180
1 181
1 182
1 183
1 184
1 185
1 186
1 187
1 188
1 189
1 190
1 191
1 192
1 193
1 194
1 195
1 196
1 197
1 198
1 199
1 200
1 201
1 202
1 203
1 204
1 205
1 206
1 207
1 208
1 209
1 210
1 211
1 212
1 213
1 214
1 215
1 216
1 217
1 218
1 219
1 220
1 221
1 222
1 223
1 224
1 225
1 226
1 227
1 228
1 229
1 230
1 231
1 232
1 233
1 234
1 235
1 236
1 237
1 238
1 239
1 240
1 241
1 242
1 243
1 244
1 245
1 246
1 247
1 248
1 249
1 250
1 251
1 252
1 253
1 254
1 255
1 256
1 257
1 258
1 259
1 260
1 261
1 262
1 263
1 264
1 265
1 266
1 267
1 268
1 269
1 270
1 271
1 272
1 273
1 274
1 275
1 276
1 277
1 278
1 279
1 280
1 281
1 282
1 283
1 284
1 285
1 286
1 287
1 288
1 289
1 290
1 291
1 292
1 293
1 294
1 295
1 296
1 297
1 298
1 299
1 300
1 301
1 302
1 303
1 304
1 305
1 306
1 307
1 308
1 309
1 310
1 311
1 312
1 313
1 314
1 315
1 316
1 317
1 318
1 319
1 320
1 321
1 322
1 323
1 324
1 325
1 326
1 327
1 328
1 329
1 330
1 331
1 332
1 333
1 334
1 335
1 336
1 337
1 338
1 339
1 340
1 341
1 342
1 343
1 344
1 345
1 346
1 347
1 348
1 349
1 350
1 351
1 352
1 353
1 354
1 355
1 356
1 357
1 358
1 359
1 360
1 361
1 362
1 363
1 364
1 365
1 366
1 367

POINT_DATA 368
SCALARS id int 1
LOOKUP_TABLE default
1
2
3
4
5
6
7
8
9
10
11
12
13
14
15
16
17
18
19
20
21
22
23
24
25
26
27
28
29
30
31
32
33
34
35
36
37
39
40
41
42
43
44
45
46
47
48
49
50
51
52
53
54
56
57
58
59
60
61
62
63
64
65
67
68
69
70
71
72
73
74
75
76
77
78
79
80
81
82
83
84
85
86
87
88
89
90
91
92
93
94
95
96
97
98
99
100
101
102
103
104
105
106
107
108
109
110
111
112
113
114
115
116
117
118
119
120
121
122
123
124
125
126
127
129
130
131
132
133
134
135
136
137
138
139
140
141
142
143
144
145
146
147
148
149
150
151
153
154
155
156
157
158
159
160
161
162
163
164
165
166
167
168
169
170
171
172
173
174
175
176
177
178
179
180
181
182
183
184
185
186
187
188
189
190
191
192
193
194
195
196
197
198
199
200
201
202
203
204
205
206
207
208
209
210
211
212
213
214
215
217
218
219
220
221
222
223
224
225
226
227
228
229
230
231
232
233
234
235
236
237
238
239
240
241
242
243
244
245
246
247
248
249
250
251
252
253
254
255
256
257
258
259
260
261
262
263
264
265
266
267
268
269
270
271
273
274
275
276
277
278
279
280
281
282
283
284
285
286
287
288
289
290
291
292
293
294
295
296
297
298
299
300
301
302
303
304
305
306
307
308
309
310
311
312
313
314
315
316
317
318
319
320
321
322
323
324
325
326
327
328
329
330
331
332
333
334
335
336
337
338
339
340
341
342
343
344
345
346
347
348
349
350
351
352
353
354
355
356
357
358
359
360
361
362
363
364
365
366
367
368
369
370
371
372
373
374
375

SCALARS type int 1
LOOKUP_TABLE default
1
1
1
1
1
1
1
1
1
1
1
1
1
1
1
1
1
1
1
1
1
1
1
1
1
1
1
1
1
1
1
1
1
1
1
1
1
1
1
1
1
1
1
1
1
1
1
1
1
1
1
1
1
1
1
1
1
1
1
1
1
1
1
1
1
1
1
1
1
1
1
1
1
1
1
1
1
1
1
1
1
1
1
1
1
1
1
1
1
1
1
1
1
1
1
1
1
1
1
1
1
1
1
1
1
1
1
1
1
1
1
1
1
1
1
1
1
1
1
1
1
1
1
1
1
1
1
1
1
1
1
1
1
1
1
1
1
1
1
1
1
1
1
1
1
1
1
1
1
1
1
1
1
1
1
1
1
1
1
1
1
1
1
1
1
1
1
1
1
1
1
1
1
1
1
1
1
1
1
1
1
1
1
1
1
1
1
1
1
1
1
1
1
1
1
1
1
1
1
1
1
1
1
1
1
1
1
1
1
1
1
1
1
1
1
1
1
1
1
1
1
1
1
1
1
1
1
1
1
1
1
1
1
1
1
1
1
1
1
1
1
1
1
1
1
1
1
1
1
1
1
1
1
1
1
1
1
1
1
1
1
1
1
1
1
1
1
1
1
1
1
1
1
1
1
1
1
1
1
1
1
1
1
1
1
1
1
1
1
1
1
1
1
1
1
1
1
1
1
1
1
1
1
1
1
1
1
1
1
1
1
1
1
1
1
1
1
1
1
1
1
1
1
1
1
1
1
1
1
1
1
1
1
1
1
1
1
1
1
1
1
1
1
1
1
1
1
1
1
1
1
1
1
1
1
1
1
1
1
1
1
1
1
1
1
1
1
1

SCALARS radius float 1
LOOKUP_TABLE default
0.00015
0.00015
0.00015
0.00015
0.00015
0.00015
0.00015
0.00015
0.00015
0.00015
0.00015
0.00015
0.00015
0.00015
0.00015
0.00015
0.00015
0.00015
0.00015
0.00015
0.00015
0.00015
0.00015
0.00015
0.00015
0.00015
0.00015
0.00015
0.00015
0.00015
0.00015
0.00015
0.00015
0.00015
0.00015
0.00015
0.00015
0.00015
0.00015
0.00015
0.00015
0.00015
0.00015
0.00015
0.00015
0.00015
0.00015
0.00015
0.00015
0.00015
0.00015
0.00015
0.00015
0.00015
0.00015
0.00015
0.00015
0.00015
0.00015
0.00015
0.00015
0.00015
0.00015
0.00015
0.00015
0.00015
0.00015
0.00015
0.00015
0.00015
0.00015
0.00015
0.00015
0.00015
0.00015
0.00015
0.00015
0.00015
0.00015
0.00015
0.00015
0.00015
0.00015
0.00015
0.00015
0.00015
0.00015
0.00015
0.00015
0.00015
0.00015
0.00015
0.00015
0.00015
0.00015
0.00015
0.00015
0.00015
0.00015
0.00015
0.00015
0.00015
0.00015
0.00015
0.00015
0.00015
0.00015
0.00015
0.00015
0.00015
0.00015
0.00015
0.00015
0.00015
0.00015
0.00015
0.00015
0.00015
0.00015
0.00015
0.00015
0.00015
0.00015
0.00015
0.00015
0.00015
0.00015
0.00015
0.00015
0.00015
0.00015
0.00015
0.00015
0.00015
0.00015
0.00015
0.00015
0.00015
0.00015
0.00015
0.00015
0.00015
0.00015
0.00015
0.00015
0.00015
0.00015
0.00015
0.00015
0.00015
0.00015
0.00015
0.00015
0.00015
0.00015
0.00015
0.00015
0.00015
0.00015
0.00015
0.00015
0.00015
0.00015
0.00015
0.00015
0.00015
0.00015
0.00015
0.00015
0.00015
0.00015
0.00015
0.00015
0.00015
0.00015
0.00015
0.00015
0.00015
0.00015
0.00015
0.00015
0.00015
0.00015
0.00015
0.00015
0.00015
0.00015
0.00015
0.00015
0.00015
0.00015
0.00015
0.00015
0.00015
0.00015
0.00015
0.00015
0.00015
0.00015
0.00015
0.00015
0.00015
0.00015
0.00015
0.00015
0.00015
0.00015
0.00015
0.00015
0.00015
0.00015
0.00015
0.00015
0.00015
0.00015
0.00015
0.00015
0.00015
0.00015
0.00015
0.00015
0.00015
0.00015
0.00015
0.00015
0.00015
0.00015
0.00015
0.00015
0.00015
0.00015
0.00015
0.00015
0.00015
0.00015
0.00015
0.00015
0.00015
0.00015
0.00015
0.00015
0.00015
0.00015
0.00015
0.00015
0.00015
0.00015
0.00015
0.00015
0.00015
0.00015
0.00015
0.00015
0.00015
0.00015
0.00015
0.00015
0.00015
0.00015
0.00015
0.00015
0.00015
0.00015
0.00015
0.00015
0.00015
0.00015
0.00015
0.00015
0.00015
0.00015
0.00015
0.00015
0.00015
0.00015
0.00015
0.00015
0.00015
0.00015
0.00015
0.00015
0.00015
0.00015
0.00015
0.00015
0.00015
0.00015
0.00015
0.00015
0.00015
0.00015
0.00015
0.00015
0.00015
0.00015
0.00015
0.00015
0.00015
0.00015
0.00015
0.00015
0.00015
0.00015
0.00015
0.00015
0.00015
0.00015
0.00015
0.00015
0.00015
0.00015
0.00015
0.00015
0.00015
0.00015
0.00015
0.00015
0.00015
0.00015
0.00015
0.00015
0.00015
0.00015
0.00015
0.00015
0.00015
0.00015
0.00015
0.00015
0.00015
0.00015
0.00015
0.00015
0.00015
0.00015
0.00015
0.00015
0.00015
0.00015
0.00015
0.00015
0.00015
0.00015
0.00015
0.00015
0.00015
0.00015
0.00015
0.00015
0.00015
0.00015
0.00015
0.00015
0.00015
0.00015
0.00015
0.00015
0.00015
0.00015
0.00015
0.00015
0.00015
0.00015
0.00015
0.00015
0.00015
0.00015
0.00015

SCALARS mass float 1
LOOKUP_TABLE default
3.95841e-09
3.95841e-09
3.95841e-09
3.95841e-09
3.95841e-09
3.95841e-09
3.95841e-09
3.95841e-09
3.95841e-09
3.95841e-09
3.95841e-09
3.95841e-09
3.95841e-09
3.95841e-09
3.95841e-09
3.95841e-09
3.95841e-09
3.95841e-09
3.95841e-09
3.95841e-09
3.95841e-09
3.95841e-09
3.95841e-09
3.95841e-09
3.95841e-09
3.95841e-09
3.95841e-09
3.95841e-09
3.95841e-09
3.95841e-09
3.95841e-09
3.95841e-09
3.95841e-09
3.95841e-09
3.95841e-09
3.95841e-09
3.95841e-09
3.95841e-09
3.95841e-09
3.95841e-09
3.95841e-09
3.95841e-09
3.95841e-09
3.95841e-09
3.95841e-09
3.95841e-09
3.95841e-09
3.95841e-09
3.95841e-09
3.95841e-09
3.95841e-09
3.95841e-09
3.95841e-09
3.95841e-09
3.95841e-09
3.95841e-09
3.95841e-09
3.95841e-09
3.95841e-09
3.95841e-09
3.95841e-09
3.95841e-09
3.95841e-09
3.95841e-09
3.95841e-09
3.95841e-09
3.95841e-09
3.95841e-09
3.95841e-09
3.95841e-09
3.95841e-09
3.95841e-09
3.95841e-09
3.95841e-09
3.95841e-09
3.95841e-09
3.95841e-09
3.95841e-09
3.95841e-09
3.95841e-09
3.95841e-09
3.95841e-09
3.95841e-09
3.95841e-09
3.95841e-09
3.95841e-09
3.95841e-09
3.95841e-09
3.95841e-09
3.95841e-09
3.95841e-09
3.95841e-09
3.95841e-09
3.95841e-09
3.95841e-09
3.95841e-09
3.95841e-09
3.95841e-09
3.95841e-09
3.95841e-09
3.95841e-09
3.95841e-09
3.95841e-09
3.95841e-09
3.95841e-09
3.95841e-09
3.95841e-09
3.95841e-09
3.95841e-09
3.95841e-09
3.95841e-09
3.95841e-09
3.95841e-09
3.95841e-09
3.95841e-09
3.95841e-09
3.95841e-09
3.95841e-09
3.95841e-09
3.95841e-09
3.95841e-09
3.95841e-09
3.95841e-09
3.95841e-09
3.95841e-09
3.95841e-09
3.95841e-09
3.95841e-09
3.95841e-09
3.95841e-09
3.95841e-09
3.95841e-09
3.95841e-09
3.95841e-09
3.95841e-09
3.95841e-09
3.95841e-09
3.95841e-09
3.95841e-09
3.95841e-09
3.95841e-09
3.95841e-09
3.95841e-09
3.95841e-09
3.95841e-09
3.95841e-09
3.95841e-09
3.95841e-09
3.95841e-09
3.95841e-09
3.95841e-09
3.95841e-09
3.95841e-09
3.95841e-09
3.95841e-09
3.95841e-09
3.95841e-09
3.95841e-09
3.95841e-09
3.95841e-09
3.95841e-09
3.95841e-09
3.95841e-09
3.95841e-09
3.95841e-09
3.95841e-09
3.95841e-09
3.95841e-09
3.95841e-09
3.95841e-09
3.95841e-09
3.95841e-09
3.95841e-09
3.95841e-09
3.95841e-09
3.95841e-09
3.95841e-09
3.95841e-09
3.95841e-09
3.95841e-09
3.95841e-09
3.95841e-09
3.95841e-09
3.95841e-09
3.95841e-09
3.95841e-09
3.95841e-09
3.95841e-09
3.95841e-09
3.95841e-09
3.95841e-09
3.95841e-09
3.95841e-09
3.95841e-09
3.95841e-09
3.95841e-09
3.95841e-09
3.95841e-09
3.95841e-09
3.95841e-09
3.95841e-09
3.95841e-09
3.95841e-09
3.95841e-09
3.95841e-09
3.95841e-09
3.95841e-09
3.95841e-09
3.95841e-09
3.95841e-09
3.95841e-09
3.95841e-09
3.95841e-09
3.95841e-09
3.95841e-09
3.95841e-09
3.95841e-09
3.95841e-09
3.95841e-09
3.95841e-09
3.95841e-09
3.95841e-09
3.95841e-09
3.95841e-09
3.95841e-09
3.95841e-09
3.95841e-09
3.95841e-09
3.95841e-09
3.95841e-09
3.95841e-09
3.95841e-09
3.95841e-09
3.95841e-09
3.95841e-09
3.95841e-09
3.95841e-09
3.95841e-09
3.95841e-09
3.95841e-09
3.95841e-09
3.95841e-09
3.95841e-09
3.95841e-09
3.95841e-09
3.95841e-09
3.95841e-09
3.95841e-09
3.95841e-09
3.95841e-09
3.95841e-09
3.95841e-09
3.95841e-09
3.95841e-09
3.95841e-09
3.95841e-09
3.95841e-09
3.95841e-09
3.95841e-09
3.95841e-09
3.95841e-09
3.95841e-09
3.95841e-09
3.95841e-09
3.95841e-09
3.95841e-09
3.95841e-09
3.95841e-09
3.95841e-09
3.95841e-09
3.95841e-09
3.95841e-09
3.95841e-09
3.95841e-09
3.95841e-09
3.95841e-09
3.95841e-09
3.95841e-09
3.95841e-09
3.95841e-09
3.95841e-09
3.95841e-09
3.95841e-09
3.95841e-09
3.95841e-09
3.95841e-09
3.95841e-09
3.95841e-09
3.95841e-09
3.95841e-09
3.95841e-09
3.95841e-09
3.95841e-09
3.95841e-09
3.95841e-09
3.95841e-09
3.95841e-09
3.95841e-09
3.95841e-09
3.95841e-09
3.95841e-09
3.95841e-09
3.95841e-09
3.95841e-09
3.95841e-09
3.95841e-09
3.95841e-09
3.95841e-09
3.95841e-09
3.95841e-09
3.95841e-09
3.95841e-09
3.95841e-09
3.95841e-09
3.95841e-09
3.95841e-09
3.95841e-09
3.95841e-09
3.95841e-09
3.95841e-09
3.95841e-09
3.95841e-09
3.95841e-09
3.95841e-09
3.95841e-09
3.95841e-09
3.95841e-09
3.95841e-09
3.95841e-09
3.95841e-09
3.95841e-09
3.95841e-09
3.95841e-09
3.95841e-09
3.95841e-09
3.95841e-09
3.95841e-09
3.95841e-09
3.95841e-09
3.95841e-09
3.95841e-09
3.95841e-09
3.95841e-09
3.95841e-09
3.95841e-09
3.95841e-09
3.95841e-09
3.95841e-09
3.95841e-09
3.95841e-09
3.95841e-09
3.95841e-09
3.95841e-09
3.95841e-09
3.95841e-09
3.95841e-09
3.95841e-09
3.95841e-09
3.95841e-09
3.95841e-09
3.95841e-09
3.95841e-09
3.95841e-09
3.95841e-09
3.95841e-09
3.95841e-09
3.95841e-09
3.95841e-09

VECTORS velocity float
0.00362425 -0.00232348 -0.000436858
0.00471167 -0.000481088 9.29383e-05
0.0038074 -0.0030112 -0.00140128
0.00476717 -0.000406276 0.000376176
0.00420304 -0.00263373 0.000496931
0.00420519 -0.000498814 0.000321554
0.00441617 -0.000427671 0.000263849
0.00469339 -0.000505528 9.87393e-05
0.00414766 -0.000487913 0.000180589
0.00466291 -0.000319288 -0.000112857
0.00446609 -0.0002093 0.000266634
0.00461657 -0.000387533 -0.000339389
0.00455766 0.000221257 1.30614e-05
0.00444762 -0.00051415 0.000134064
0.00464891 -0.000257279 0.000115071
0.00378933 -0.00262105 0.000404805
0.00482476 -0.000355398 -9.15036e-05
0.00477237 -0.000467469 0.000100984
0.00467888 -0.000320729 -0.00011128
0.00464441 -0.000314628 -0.000110255
0.00439486 -0.000417448 -5.80855e-05
0.00452372 -0.000364851 0.000256571
0.00472274 -0.000368825 -7.77632e-05
0.00470857 -0.000264961 0.000477025
0.00426652 -3.04088e-05 0.000275909
0.00382101 -0.00238005 0.00125066
0.00417318 -0.000439977 0.000242754
0.00468301 -0.000371623 -7.53262e-05
0.00446348 -0.000512507 -8.18251e-05
0.0037494 -0.0018771 0.00225355
0.00427285 -0.000417063 0.000261191
0.00458824 -0.000330805 0.000131353
0.00479253 -0.00044063 0.000305645
0.00464447 -0.000473761 9.06278e-05
0.00418383 -0.000358186 0.000367374
0.00464736 -0.000326241 -0.000108731
0.00434791 -0.000179067 0.000124195
0.00457338 -0.000255382 9.54874e-05
0.00435443 -0.000193916 0.000126982
0.00460129 -0.000397973 0.000398577
0.00441189 -0.000339111 0.000341519
0.00460092 -0.000356147 -9.8777e-05
0.00480496 -0.000459818 0.000106712
0.00414409 -0.00249557 0.00106755
0.00440278 -0.000347546 0.000364264
0.00448841 -0.000505574 -4.36443e-05
0.00474664 -0.000451616 0.000304522
0.00471153 -0.000324642 -0.000107285
0.00447798 -0.000430762 0.000264189
0.00433666 -0.000408866 0.000260988
0.00466382 -0.000445694 0.000215697
0.00465282 -0.000457809 0.000114905
0.00478635 -0.000463579 0.000192908
0.00472509 -0.000335252 -9.34963e-05
0.00459195 -0.000449333 0.000291182
0.00441292 0.000226987 -3.87945e-05
0.00469017 -0.000419129 -6.73846e-05
0.0042631 -0.000381221 -6.24212e-05
0.00478732 -0.000415183 0.000108922
0.00460535 -0.000448041 9.29882e-05
0.00438373 -0.000377297 0.000251725
0.00480539 -0.000525989 0.000147622
0.00476278 -0.000493477 9.82595e-05
0.00472087 -0.000394335 -7.25572e-05
0.00470007 -0.000464408 0.000116686
0.00478346 -0.000507492 0.00011671
0.0044089 -0.000435292 -1.8314e-05
0.00457796 -0.000510774 9.938e-05
0.00460259 -0.00054194 0.000104391
0.0045967 -0.000520414 0.000111754
0.00458599 -0.000459577 0.000117329
0.00436569 -0.000466416 -3.41459e-05
0.00463235 -0.000362892 -9.70498e-05
0.00463408 -0.000281448 -0.000102777
0.00379255 -0.00240588 0.00103473
0.00447313 -0.000519588 -4.06894e-05
0.00451215 -0.000371264 -6.69995e-05
0.00470352 -0.000260924 0.000509255
0.00425845 -0.000240226 0.000255054
0.00444035 -0.000342106 0.000317491
0.00456528 -0.000512864 -4.57959e-05
0.00466118 -0.000473596 9.01476e-05
0.00442111 -0.000441424 0.0002152
0.00470732 -0.000272062 0.00053462
0.00426028 -0.00253863 0.00101767
0.00402035 0.000159793 -4.41415e-05
0.00448686 -0.000496464 -4.7266e-05
0.00376975 -0.00273137 -0.000520989
0.00465894 -0.00039092 -7.14908e-05
0.00427723 -0.00242345 0.00103447
0.00433255 -4.06705e-05 0.000287175
0.00442379 -5.28525e-05 0.000302718
0.00453591 -0.000503656 -4.61046e-05
0.00448539 -0.00052036 -4.14301e-05
0.0041609 -0.00237898 0.000535195
0.00436355 -0.000282106 0.00011631
0.00476037 -0.000352646 0.000358681
0.00438617 -0.000295503 0.000308897
0.00446825 -0.000452737 -5.3353e-05
0.00423513 -0.00029059 0.000301915
0.00391767 -0.00284115 0.000616433
0.00440608 -0.000268717 0.000277511
0.00441573 -0.000488743 -8.83749e-05
0.00405376 -0.00250035 0.00105493
0.00446588 -0.000348425 -2.71245e-05
0.00424233 -0.000342301 0.000335844
0.00383783 -0.00226068 0.000952264
0.00423269 -0.0024845 0.00115331
0.00442892 -0.000352405 0.00035818
0.00470704 -0.000277975 0.000513609
0.00459142 -0.000430826 -6.14715e-05
0.00390818 -0.00245417 0.00104377
0.00448773 -0.000519786 -8.50178e-05
0.00441752 -0.000214822 0.00023792
0.00444743 -0.000438401 -5.94044e-05
0.00370129 -0.00279449 -0.000543539
0.00449469 -0.000404535 -6.02018e-05
0.00415088 -0.000217382 0.000231189
0.00454652 -0.000449572 9.46801e-05
0.00437928 -0.000433079 -8.14365e-06
0.00454801 -0.000425679 -6.13318e-05
0.00445825 -0.000496214 -3.67495e-05
0.00427883 -0.00237212 0.000869203
0.00481482 -0.000408102 2.67124e-05
0.00477012 -0.000372151 -7.90095e-05
0.00420558 -0.00261408 0.000561984
0.00478626 -0.000507299 -5.96366e-05
0.00460047 -0.000472742 9.41627e-05
0.00379709 -0.00277497 -0.000348017
0.00420563 -0.00274835 0.000578744
0.00427107 -0.00234933 0.00097529
0.00467305 -0.000353356 -7.87235e-05
0.00392015 -0.00291043 -0.000607207
0.00451779 -0.00045704 -5.84171e-05
0.00390661 -0.00214238 0.000906642
0.00439779 -0.00240747 0.000558529
0.00421114 -0.000414934 -4.53157e-05
0.00383262 -0.00246835 0.00100747
0.00438393 -0.00196021 0.000433966
0.00426644 -0.000416958 -6.53541e-05
0.00456549 -0.000462881 0.000100629
0.00449425 -0.000497406 -7.84037e-05
0.00387665 -0.00253205 0.000521291
0.00373305 -0.00223098 0.000916751
0.00419109 -0.00271136 0.000565195
0.0041188 -0.000354591 -0.000357542
0.00409277 -0.000348417 -0.000407562
0.00451387 -0.00257368 0.000594018
0.00461234 -0.000382109 0.000382683
0.00422206 -0.00232554 0.000968326
0.00465122 -0.000187251 0.000446562
0.00453851 -7.05206e-05 0.000327736
0.0042137 -0.000374454 -4.76879e-05
0.00370437 -0.00287282 -0.000646207
0.00382915 -0.00269322 -0.000537691
0.00455567 -0.00269746 0.000588917
0.00396637 -0.00310448 -0.00101984
0.00410674 -9.97923e-05 0.000161891
0.00419672 -0.00176167 0.000389799
0.00443262 -0.000512821 -8.59431e-05
0.00497936 -0.000239432 -4.00484e-06
0.00439456 1.67955e-05 -0.000859161
0.00173252 -0.00203894 0.000931732
0.00380756 -0.00303999 -0.000118272
0.00434968 9.06764e-05 1.46225e-05
0.00410637 -0.002738 2.58667e-05
0.00475512 -0.000422567 -7.11874e-05
0.00477609 -0.000283907 0.000371356
0.00385622 -0.00323107 -0.00102732
0.0044345 -0.00271802 0.000528909
7.05731e-15 -1.16435e-13 2.98048e-13
0.00415503 -0.000121636 0.000138013
0.0044372 -0.000372534 0.000182542
0.000846692 -0.000323787 -0.00101358
0.00480074 -0.000325477 0.000545553
0.00466821 -0.000408395 -6.82091e-05
0.00443933 -0.00248969 0.000406591
0.00458518 -0.000432522 0.000189576
0.0037355 -0.00281963 -0.000550753
0.004428 -0.00278017 0.000604104
0.00434568 -0.000350198 0.000461117
-6.69285e-06 0.000129687 -9.43378e-05
0.00386538 -0.00223717 0.000938821
0.00448132 -0.00106637 0.000371161
0.00411294 -0.000295686 0.000305327
0.0038831 -0.00189359 -0.000836683
0.00392589 -0.00247034 0.000528322
0.00379136 -0.00173163 -0.000767884
0.0038874 -0.00297115 0.000450163
0.00422779 -0.000201137 0.000250307
0.00452706 -0.000292632 0.00032963
0.00444374 -0.00258761 0.00060667
0.00331974 -0.00205589 -0.000640298
0.00321324 -0.00196779 -0.000779506
0.00430073 -0.00259235 0.000584527
0.00419877 -0.00239147 0.000893781
0.00476593 -0.00214815 0.000519398
0.0044816 -0.000520854 -5.39694e-05
0.00402236 -0.00291705 -0.000863597
0.00446463 -0.000525353 -9.04439e-05
0.00425249 -0.00274172 0.000592012
0.00449017 -0.00254557 0.000556101
0.00457172 -0.000475545 -5.33527e-05
0.0044535 -0.000436163 -5.81823e-05
0.00435909 -0.00249103 0.000606715
0.000220067 -0.00046851 -6.78172e-06
0.00412765 -0.0027688 0.000664014
0.00730871 0.000884559 -0.000645422
0.00369414 -0.00273325 0.000582143
0.00444675 -0.000538524 -9.5619e-05
0.00414946 -0.00242852 0.00102422
-0.0383547 -0.00483396 0.00345258
0.00420005 -0.000393266 -5.62799e-05
0.00442581 -0.00282559 0.000161753
0.00344182 -0.00265681 -0.000818201
0.00430657 -0.000334142 -0.000512994
0.00370655 -0.00288111 0.000613208
0.00372723 -0.00290819 0.000178712
0.00404148 -0.00211636 -0.000919316
0.00418776 -0.00223481 0.000931171
0.0040095 -0.00301772 -0.000883716
0.00324444 -0.00206028 -0.000958584
0.00420733 -0.00223369 0.000900324
0.0058694 0.000222319 -0.000286621
0.00402399 -0.00302732 -0.000947128
0.00338099 -0.00173994 -0.000913305
0.00430688 -0.0019034 0.000762651
0.000908448 0.000231594 -0.0011219
0.00477198 -4.34269e-05 -0.000199025
0.00507127 -0.00235457 -0.00101863
0.00474747 -0.000318917 0.00054246
-5.20951e-16 8.5935e-15 -2.19971e-14
0.00377625 -0.00192286 0.00227083
0.00388777 -0.00157602 -0.00176354
0.00406518 -0.00147136 0.00038502
0.00458574 -0.00114254 0.000397913
0.00266174 -0.00471163 -0.00171069
0.00315057 -0.00189091 -0.000705896
0.00472733 -0.000419091 0.000285019
0.00456839 -0.000206137 0.000398755
0.00476837 -0.000342365 0.00052309
-1.10934e-14 3.68927e-14 -1.9831e-13
0.00376668 -0.00156429 -0.00274532
0.0040509 -0.00220475 -0.00087708
0.00398794 -0.000168944 0.000219773
-3.31704e-05 1.04691e-05 3.0571e-05
0.00380175 -0.00226861 0.000953252
-5.48897e-15 9.05566e-14 -2.31805e-13
0.00390797 -0.00228866 -0.0009901
-0.011383 0.0110881 0.000529588
0.00415117 -0.00110257 0.000393867
0.0188239 -0.0180299 -0.0202717
0.00473955 -0.000196782 0.000446075
0.00281036 -0.00123124 -0.000555499
0.00378661 -0.0022014 0.000906908
0.00471143 -0.000344774 0.000565671
-0.000348892 -0.000473034 0.000916501
0.00380036 -0.00226749 0.000930168
0.00470388 -0.000366304 0.000231563
0.00452374 -0.000405671 0.000519765
0.00407936 -0.000209822 0.000237931
0.00380474 -0.00236968 0.00100897
0.00399716 -0.00239676 -0.00104145
-4.53623e-15 1.50835e-14 -8.10776e-14
-0.0154938 0.0342187 -0.027445
0.00403644 -0.0022099 -0.000943125
0.00370772 -0.00297758 -0.000550398
0.00361266 -0.00233745 4.80684e-05
0.0028444 -0.00210601 -0.000878803
0.0034386 -0.00151939 -0.0007069
0.00373929 -0.00313896 -0.00101734
0.00471566 -0.00219187 0.000518797
0.00378321 -0.00241693 0.000537049
0.00294822 -0.00183387 -0.000559627
0.00441166 -0.00168349 0.000400354
0.00390698 -0.00230051 -0.000986947
0.004405 -0.000427826 -0.000123387
0.00213703 0.000230219 5.33217e-05
0.00407478 -0.00228894 -0.00107237
0.00400607 -0.00311712 -0.000977931
0.00408789 -0.00310945 -0.000964448
0.003929 -0.00286135 -0.000525216
0.00322458 -0.00185793 -0.00082774
0.00389723 -0.00241198 -0.00105177
0.00404465 -0.00312212 -0.000972848
-2.58532e-05 0.000227604 -0.000767948
0.00382772 -0.00160648 -0.000727037
0.00406198 -0.0023649 -0.00021762
0.00396154 -0.0030663 -0.000938965
0.00410634 -0.00239331 -0.000834582
0.00398401 -0.00318946 -0.00100923
0.0039726 -0.00239484 -0.00104058
0.00389843 -0.00230159 -0.000981097
0.00458998 -0.000355638 0.000616115
0.00961885 0.0103005 0.0185689
0.00332283 0.000152793 -0.000261753
-0.0399337 -0.00503188 -0.0137664
0.0044164 -0.000253146 0.000520785
-5.4888e-15 9.05573e-14 -2.31806e-13
0.00399689 -0.00259115 -0.00097582
0.00443432 -0.000293614 0.000484407
0.00461979 -0.000395095 -0.000102989
0.00332106 -0.00131399 -0.000322669
0.0049026 -0.00130973 0.0004681
0.00375152 0.000566191 -0.000494443
-0.000601996 -0.000100417 -6.02403e-05
4.34283e-08 0.0174563 -0.00747723
0.031661 0.006646 -0.0051409
0.00223018 -0.00574195 -0.000901039
4.85178e-05 -0.000279672 -0.000421292
0.00434135 -0.000313023 0.000502164
0.00503863 0.000139611 -0.00022206
0.00176548 -0.00109067 -0.000469775
-4.61809e-05 0.00082404 -0.00136815
-9.15992e-06 0.0312232 0.00618927
0.0 -0.0 -0.03
0.0 -0.0 -0.03
6.03085e-11 0.018112 -0.00558876
5.31858e-11 0.0183371 -0.00471361
5.43772e-10 0.022399 -0.0043346
0.0 -0.0 -0.03
0.0 -0.0 -0.03
0.0041673 -0.00223576 0.000918268
0.00541479 -0.00102101 0.000210116
0.0 0.0 -0.0954278
0.0 -0.0 -0.03
8.18618e-05 0.0243094 -0.0141832
0.00150979 -0.0409941 -0.0274483
0.0388845 -0.0313471 -0.110237
0.0 -0.0 -0.03
-5.5648e-05 -7.85653e-05 0.000146015
0.0100291 -0.00092794 0.00146471
0.0 -0.0 -0.03
0.0 -0.0 -0.03
0.00121028 -0.0812398 -0.197836
0.0 -0.0 -0.03
0.0 -0.0 -0.03
0.0108116 -0.00387834 -0.00738608
0.0 -0.0 -0.03
0.0 -0.0 -0.03
0.00207316 -0.000608024 -0.000284983
0.0041386 -0.00306771 -0.000932695
-0.000393276 -0.000988221 -0.00178178
-0.00160097 -0.00152524 0.000812531
-7.83408e-05 -0.000292346 -0.000360904
0.0041215 -0.00268136 -0.000806826
-2.96264e-15 4.8881e-14 -1.25125e-13
0.00293125 -0.00192036 -0.000812317
0.000124926 0.000570895 -0.000473954
0.00392304 -0.00229377 -0.000995099
0.00423524 -0.0021021 -0.000935499
0.0023379 -0.000315487 -0.000184204
-0.000345863 -0.000196047 0.000330342
3.30214e-06 1.37867e-05 -3.2817e-05
0.0 -0.0 -0.03
0.0 0.0 -0.251054
0.0130141 0.00280299 0.000394652
0.0 -0.0 -0.03
0.0 -0.0 -0.03
-4.39733e-05 -0.07902 -0.0114644
-8.00639e-05 0.00103449 -0.000981652
0.000435803 0.000294866 9.9224e-05
0.0 -0.0 -0.03
-0.00233353 0.0523368 -0.0841507
0.0 0.0 -0.180863
5.22042e-05 0.00167034 0.00290789
0.0 -0.0 -0.03
0.00269856 0.000135504 0.00235285

VECTORS force float
1.42696e-08 -1.51804e-08 -1.12122e-08
-2.69742e-10 -2.36118e-09 1.225e-09
7.37396e-09 4.65405e-09 -5.00976e-09
3.36851e-09 -2.62908e-09 2.62776e-09
4.4153e-10 2.02174e-10 1.78362e-08
-2.18343e-09 7.98097e-09 -5.46446e-09
7.1686e-09 -4.63067e-09 5.79932e-09
9.48379e-12 -1.28695e-11 1.31353e-10
-3.05483e-09 -2.26591e-09 -8.21883e-09
2.93291e-10 -4.9051e-10 -1.01706e-10
2.31326e-09 1.32158e-09 -1.58242e-09
-4.33431e-11 -9.39405e-11 -4.11946e-09
-2.10623e-09 -8.65799e-10 2.24443e-09
6.23103e-09 1.68101e-09 1.09228e-09
-7.8992e-11 5.03767e-10 -5.74295e-11
-2.47825e-09 6.1435e-09 1.25164e-09
2.8358e-09 -1.51947e-09 9.51761e-10
-2.53963e-09 1.15766e-09 1.70018e-10
-2.64563e-09 -3.25775e-10 -7.54597e-11
1.34887e-10 3.29324e-10 8.43879e-10
-3.68413e-09 -2.8096e-09 7.68317e-10
-1.38924e-08 6.07711e-09 7.06707e-10
2.68155e-09 -1.41306e-09 2.70407e-10
-4.29213e-09 -2.74825e-09 1.14353e-09
2.99304e-11 -4.33954e-10 4.36333e-10
5.63279e-09 2.01346e-09 -1.23896e-08
-5.3739e-09 5.80022e-09 -3.38798e-09
-7.83248e-11 -4.35267e-10 4.09803e-11
-1.64593e-10 9.92861e-10 6.80378e-10
3.65314e-10 6.4504e-09 -5.96311e-09
-8.94883e-11 -8.8946e-10 -9.63522e-09
-1.15382e-09 1.00802e-09 -2.03577e-11
4.64965e-09 -3.85999e-09 -6.40353e-10
-3.01677e-09 -2.7573e-09 5.16058e-10
-2.74953e-09 7.54164e-09 -7.84792e-09
-4.9869e-11 1.43133e-10 1.03424e-10
3.62672e-10 -2.06658e-09 -1.79623e-09
-6.91955e-11 -1.65697e-10 -4.17111e-10
-7.37352e-09 8.55121e-09 -8.11403e-09
3.55973e-09 -3.09597e-09 1.48803e-09
-2.2203e-09 1.94902e-09 -1.83943e-09
-8.64711e-10 1.39277e-09 -8.96477e-10
2.75096e-09 -3.75204e-09 1.61219e-09
-1.3802e-08 6.2202e-09 -3.55743e-09
-4.53244e-09 1.11157e-09 -6.5404e-09
-2.49426e-09 -3.36881e-09 8.55279e-10
9.74589e-09 -4.68588e-09 4.99618e-09
-2.43187e-09 7.38634e-10 -3.83572e-10
4.75962e-09 -3.93256e-09 -1.01002e-09
5.0848e-09 2.53706e-09 5.29884e-10
-3.96965e-09 -7.55288e-09 4.84134e-09
-1.32784e-09 -7.09233e-09 -3.3789e-10
5.51299e-09 -3.58199e-09 2.67312e-09
6.6896e-10 2.88273e-09 2.52777e-10
-3.6681e-09 -7.17462e-09 4.40812e-09
-1.08731e-08 4.31945e-09 -1.50262e-09
4.92578e-09 -9.89063e-10 -3.61336e-11
-9.74645e-10 5.8057e-09 -1.01049e-09
3.09872e-09 -3.64869e-09 -1.84619e-10
7.58392e-10 2.47388e-09 5.37761e-10
-1.42559e-09 -3.43557e-10 2.8793e-10
2.19325e-09 -6.50936e-09 -1.49296e-09
2.26429e-09 -3.40921e-09 1.65294e-09
3.7832e-09 -4.37455e-10 -1.57586e-10
1.78166e-09 -3.10922e-10 -1.78466e-09
3.30462e-09 -4.37649e-09 1.58516e-09
-2.43023e-09 4.36075e-09 -9.77861e-10
4.97404e-09 2.93558e-09 -6.71987e-10
-9.16402e-09 1.70554e-09 -6.23968e-10
3.52919e-09 7.94305e-10 6.01137e-10
3.10719e-09 3.59507e-09 -8.01119e-10
-4.50405e-09 -4.72347e-11 1.16133e-09
-4.48762e-10 -2.28398e-11 -2.06327e-10
-2.23965e-09 -5.35763e-09 8.42716e-10
-1.82649e-08 9.03455e-09 9.41355e-10
1.33879e-09 -8.28465e-10 4.50755e-10
3.35349e-09 -2.86027e-09 7.44828e-10
3.53748e-09 9.47539e-10 -1.72606e-09
-4.45149e-09 1.44573e-09 -3.32152e-09
9.57174e-11 1.10391e-09 -3.33671e-10
-3.63143e-10 -2.20514e-09 4.80951e-10
-1.44015e-09 -4.09248e-10 5.01158e-10
6.98684e-09 -4.23095e-09 -8.67232e-10
2.63563e-09 -7.36941e-09 -1.51987e-09
-7.32229e-09 4.43699e-10 1.22515e-09
-4.40468e-09 1.32299e-08 -8.88884e-09
1.06367e-09 -6.26787e-10 -9.49552e-11
4.69581e-09 5.08892e-10 9.01441e-10
7.69054e-10 -1.36326e-09 3.06415e-10
-1.0351e-08 3.4846e-10 -1.04316e-09
2.2665e-11 -4.29958e-10 7.91341e-10
-6.92672e-10 -8.65882e-10 7.28431e-10
-6.54775e-10 -6.5608e-10 1.01449e-10
7.5277e-10 1.04661e-09 -8.71157e-11
-4.15512e-09 -8.42286e-09 5.29295e-09
4.16049e-10 1.52777e-09 -5.45652e-10
1.457e-09 -8.3548e-10 3.89285e-09
-8.14912e-11 6.73949e-10 -2.82803e-10
2.34511e-09 -8.008e-10 -2.27501e-10
-6.91396e-09 1.86744e-09 -1.46933e-09
-1.83628e-09 -5.47744e-09 -4.03383e-10
-1.3569e-10 1.20017e-09 -1.64524e-10
1.78734e-10 2.55932e-09 5.47538e-10
-3.06746e-09 2.97917e-09 1.00702e-09
5.448e-09 -1.12434e-09 -5.64813e-10
-1.63428e-09 2.38969e-09 -1.68802e-09
-2.76568e-09 1.07093e-08 -4.72771e-09
-3.76129e-09 6.47938e-10 -5.4041e-09
-5.75218e-10 3.84297e-10 -5.67232e-10
8.9354e-10 -5.52855e-09 2.86204e-10
1.39425e-09 2.9611e-09 -5.88746e-10
4.63336e-09 3.96244e-09 -2.72959e-09
-1.50324e-11 8.16525e-10 2.51649e-10
-7.83057e-10 7.23346e-09 -6.43891e-09
-3.43985e-10 -1.69023e-09 -5.5172e-10
2.42905e-10 -1.76533e-09 3.24979e-09
3.29288e-09 -6.7623e-10 1.05089e-10
-7.87861e-09 3.23772e-09 -2.52621e-09
1.16384e-09 5.56586e-09 -1.48783e-09
9.16107e-10 6.97308e-09 -7.34943e-10
-2.11571e-09 -2.63095e-09 6.38064e-10
-1.32473e-10 -2.40216e-10 5.71692e-10
-1.83867e-08 1.36523e-09 -1.86076e-09
2.3103e-09 -3.75095e-09 8.19236e-10
2.2184e-09 -2.57449e-09 1.06942e-10
-1.01849e-09 -9.9949e-10 6.11608e-10
1.73697e-09 -3.37824e-10 1.07908e-09
-4.9867e-10 5.72915e-10 -6.15106e-10
6.07404e-09 -3.40033e-10 9.42615e-09
-3.53774e-09 -4.7293e-09 -4.15591e-09
-9.32829e-09 9.1179e-10 3.26208e-09
-4.79927e-10 -7.44553e-11 5.42025e-13
1.7175e-10 7.90185e-09 1.65026e-09
9.84551e-10 -5.75326e-10 6.59454e-10
7.03994e-09 -1.46265e-09 -1.50633e-09
6.64385e-09 -1.1461e-08 5.51943e-09
1.49296e-09 8.83243e-09 -1.63027e-09
-7.08058e-10 4.11277e-09 4.62771e-10
-2.75132e-09 -1.43504e-09 -3.71526e-09
-1.40387e-09 4.01941e-09 -4.41656e-09
2.03298e-09 3.44224e-09 -9.54061e-10
-5.47482e-10 -3.054e-10 1.84311e-10
-7.96897e-10 -2.31465e-09 -8.76213e-10
-2.00464e-08 -2.30756e-09 3.86997e-09
8.16983e-09 -2.25434e-09 -2.27068e-10
2.20927e-09 5.62116e-09 2.66494e-09
4.30017e-09 4.72252e-09 -6.98019e-12
-6.10146e-09 2.60867e-09 -8.42396e-10
2.85849e-09 -1.87209e-09 1.26276e-09
-5.96741e-09 1.62644e-08 -1.18189e-08
-8.71019e-09 -2.75296e-09 1.42652e-09
-6.76335e-10 -8.46383e-10 7.58305e-10
4.0233e-09 5.22226e-09 8.55334e-10
4.82818e-09 3.09583e-09 7.24342e-10
-4.71408e-09 3.2522e-09 1.17329e-09
-1.42721e-08 2.29783e-09 -1.21108e-09
-5.81769e-09 -2.5358e-09 -1.4566e-08
-6.43872e-09 1.40175e-08 1.44402e-08
-3.19968e-09 -3.73623e-09 -2.41278e-09
3.61208e-10 2.54307e-09 7.61926e-10
-9.98429e-09 9.05426e-10 8.60361e-10
-7.56305e-10 -5.17236e-10 -8.61266e-11
1.34754e-09 -2.50692e-08 1.30909e-08
9.92138e-09 -1.83957e-09 -2.3154e-09
6.06459e-10 1.2018e-08 -8.96701e-09
1.28685e-08 -1.95668e-09 1.63711e-08
2.32987e-10 -1.57869e-09 1.90703e-10
1.42169e-08 -5.09146e-09 8.74357e-10
5.76405e-09 -1.64855e-08 -6.14199e-09
-1.25831e-08 5.49153e-09 -4.41767e-10
1.54269e-22 -1.65436e-24 -6.61744e-24
-1.25436e-08 1.63148e-09 -3.49514e-09
-1.55819e-09 2.7022e-09 6.86808e-09
2.25328e-08 -2.24783e-08 1.09169e-08
-3.6777e-09 9.56264e-09 -2.44723e-09
2.17335e-10 -2.38456e-12 3.64081e-11
-1.82658e-09 -1.73832e-09 -8.43429e-09
-2.96787e-10 -9.11067e-09 -2.06682e-09
3.20004e-09 1.81562e-09 -1.4942e-09
-2.4193e-08 -1.67022e-10 -2.99552e-09
-1.10873e-08 3.4092e-09 -1.77978e-09
-1.32145e-11 2.09662e-10 -1.61019e-10
-7.59647e-09 9.2216e-09 -3.84368e-09
-2.65358e-09 7.02978e-09 -2.63963e-09
-6.60602e-09 1.52759e-09 -1.99854e-09
6.40633e-09 -5.9801e-09 2.73614e-09
5.45215e-09 6.36705e-09 -5.03905e-10
1.4227e-09 -2.50061e-09 -1.18883e-09
1.24588e-09 -9.96664e-09 5.2144e-09
-1.47047e-08 -5.11132e-10 -3.59947e-09
-8.78824e-09 3.63037e-09 -5.31933e-09
-5.06442e-09 -4.0109e-09 5.70396e-09
-2.14513e-09 6.29998e-09 -4.54569e-09
-1.13849e-08 -2.47632e-09 6.19966e-09
-5.55634e-09 -1.92884e-08 9.78699e-09
-1.4728e-08 1.28173e-09 4.66006e-09
7.38134e-09 -1.11944e-08 2.83971e-09
2.59503e-10 4.61456e-10 3.8755e-10
-6.20356e-11 1.27005e-08 4.57473e-09
-8.0691e-10 2.20357e-10 1.0402e-10
1.32171e-08 4.56802e-10 -5.64925e-10
2.60614e-10 -4.2337e-09 6.39144e-09
2.39829e-10 1.6295e-09 -3.95144e-10
2.69528e-09 -3.69887e-10 2.94467e-11
-7.50769e-09 -1.76531e-09 6.85402e-10
1.25629e-09 1.07047e-09 2.24463e-09
4.26873e-09 -1.35076e-09 1.39358e-08
-1.63577e-08 1.29199e-08 -5.63706e-09
7.9623e-09 -5.73834e-09 1.95436e-09
4.23697e-10 -4.8771e-11 -4.08931e-11
-8.54879e-09 8.97082e-09 -5.44509e-09
0.0 0.0 -3.8832e-08
3.10766e-09 8.1734e-09 -1.9807e-09
-1.56125e-08 1.35496e-08 -6.32616e-09
6.91984e-09 6.132e-09 -8.21158e-10
2.3622e-10 6.90528e-09 -1.82614e-09
3.63759e-09 -4.02278e-09 5.57005e-09
1.05051e-08 1.21441e-09 1.20352e-09
3.26093e-09 -3.46174e-09 -2.96235e-10
-7.95741e-09 5.14727e-09 6.46794e-11
-5.21006e-09 -1.18807e-08 -2.4771e-09
-1.74145e-08 1.69023e-09 2.19474e-08
6.19387e-09 8.21234e-10 1.53129e-09
-1.64671e-08 1.42542e-08 -6.37632e-09
-2.93539e-09 -6.55352e-09 -2.63217e-09
-7.20517e-09 -2.84031e-09 -2.18752e-09
-5.88873e-09 3.16442e-09 -8.62064e-10
-4.62181e-08 1.43622e-08 6.08792e-08
2.42808e-09 -2.74702e-09 2.52203e-09
-1.03423e-09 -1.01992e-08 -3.12069e-09
7.63208e-09 -3.44919e-10 5.66558e-10
-2.22305e-23 -3.30872e-24 0.0
1.68823e-09 6.50532e-09 -8.66959e-09
-6.62258e-09 -1.10148e-08 -2.26873e-08
1.34473e-08 1.37485e-09 1.45369e-09
4.16502e-09 -8.72079e-09 4.79771e-09
-1.06634e-08 1.55781e-09 -1.91529e-10
-3.71692e-09 1.59729e-10 -1.12298e-08
4.54655e-09 -1.8267e-09 -8.70904e-11
8.86973e-10 -8.48578e-10 -2.12047e-09
-5.25754e-09 8.37019e-09 -9.67866e-09
-4.83901e-22 -1.19941e-22 0.0
5.41108e-09 -3.93683e-09 7.58538e-09
1.33823e-10 -6.95688e-10 3.11002e-09
8.48799e-09 2.43615e-09 -5.04545e-09
-1.96724e-09 -2.65165e-10 1.17674e-08
1.91002e-08 4.34851e-09 -1.74604e-09
2.06795e-24 0.0 0.0
7.97997e-09 -8.74513e-09 -4.00017e-09
0.0 0.0 -3.8832e-08
-7.08135e-09 7.01932e-10 9.7548e-11
-5.88985e-06 2.14523e-07 -3.38741e-07
2.60804e-09 2.71849e-09 -8.00069e-09
1.64798e-08 -1.53173e-08 -7.59147e-09
-2.4843e-09 4.67443e-09 -3.22139e-09
6.20795e-09 -2.38896e-09 3.75725e-09
-2.40583e-10 -3.35257e-10 6.54455e-10
-4.25723e-09 -1.63719e-08 7.73522e-09
2.19309e-09 -5.01272e-09 1.35152e-09
-7.99493e-09 6.79634e-09 -9.80088e-10
1.78304e-09 4.16985e-09 -3.92171e-09
1.07659e-08 7.86172e-09 -3.60541e-09
1.43018e-08 -1.21899e-08 -3.37619e-09
-7.85822e-24 -8.27181e-25 0.0
0.0 0.0 -3.8832e-08
1.94678e-09 -1.39141e-09 -1.33023e-09
1.17123e-08 8.82511e-09 -1.90262e-09
-4.24247e-09 4.64481e-09 -7.03157e-09
-8.95947e-09 -1.06211e-10 -1.38679e-11
7.10684e-09 1.28779e-09 3.20417e-09
1.70122e-09 -3.39415e-09 -5.69525e-09
3.97495e-09 6.24421e-09 -3.29835e-09
1.46264e-09 4.06103e-09 -2.04616e-09
7.01513e-09 2.67166e-09 4.16534e-10
-4.18314e-09 -1.1698e-10 3.17906e-09
9.24462e-09 -2.86663e-09 7.50521e-10
-1.59246e-10 -1.28178e-09 3.05691e-09
1.5001e-06 5.37191e-08 1.41031e-07
6.66772e-09 -1.56348e-08 -6.96223e-09
-5.37667e-09 -6.73209e-09 -7.32817e-09
7.85569e-09 1.55895e-10 1.6938e-09
-7.67497e-10 -1.06192e-09 2.02597e-09
-1.08637e-08 -3.65919e-09 2.43801e-09
-4.15165e-09 -1.14195e-08 -8.38521e-10
3.7684e-09 -1.21833e-08 -5.1689e-09
2.84748e-10 7.87173e-11 -1.20849e-10
3.81609e-09 -9.51804e-09 -1.40825e-09
-7.99426e-10 -3.00478e-09 -1.29949e-08
-6.76381e-09 -1.07113e-08 -3.20107e-09
-2.98228e-10 -1.40404e-08 1.08445e-09
1.74081e-08 2.63344e-08 1.51177e-08
8.24296e-09 -9.36608e-09 -3.48267e-09
8.14667e-09 -5.99617e-09 -3.01449e-09
-4.64378e-09 -1.28628e-09 2.24585e-09
-3.87743e-09 -2.05943e-08 -3.72003e-08
1.35575e-08 1.23899e-08 -7.13254e-09
-8.38627e-06 8.51284e-07 1.49328e-06
-6.34405e-09 -1.46514e-08 9.58657e-10
-8.06501e-24 -6.61744e-24 0.0
2.08255e-08 -9.57001e-09 -6.50394e-09
-8.83145e-10 -8.96106e-09 2.07573e-09
1.25552e-09 -5.99409e-09 3.60603e-09
-3.03712e-08 -2.5954e-08 -5.65141e-08
-5.90644e-09 6.51103e-10 -6.12255e-10
2.19962e-08 -1.06894e-08 4.15023e-09
1.21826e-08 9.7777e-08 7.21548e-08
3.69009e-13 3.63562e-11 -4.06276e-10
0.0 0.0 -3.8832e-08
5.76821e-08 5.9344e-08 6.52848e-08
-1.63664e-08 5.05649e-09 -9.83605e-09
-1.24301e-08 -1.50925e-08 3.31029e-09
-8.76418e-09 1.21198e-08 -5.55755e-09
-1.43431e-08 -4.05319e-09 -1.18928e-09
-2.64978e-11 -4.51427e-10 7.48822e-10
0.0 0.0 -3.8832e-08
0.0 0.0 0.0
0.0 0.0 0.0
1.07152e-18 -1.02786e-10 -3.30884e-10
1.0993e-18 -8.59413e-11 -3.35219e-10
1.1877e-17 -8.055e-11 -4.12029e-10
0.0 0.0 0.0
0.0 0.0 0.0
-1.10076e-08 6.43715e-09 1.9481e-10
-5.22123e-09 7.47167e-09 -3.63933e-09
0.0 0.0 -3.8832e-08
0.0 0.0 0.0
4.31388e-11 2.3103e-09 -2.06267e-09
0.0 0.0 -3.8832e-08
0.0 0.0 -3.8832e-08
0.0 0.0 0.0
2.57948e-10 -4.85234e-10 1.75273e-09
-1.84912e-08 7.03012e-09 -1.14221e-08
0.0 0.0 0.0
0.0 0.0 0.0
0.0 0.0 -3.8832e-08
0.0 0.0 0.0
0.0 0.0 0.0
-2.12569e-09 2.99463e-10 2.24278e-09
0.0 0.0 0.0
0.0 0.0 0.0
-1.07231e-09 1.04229e-08 3.36086e-09
3.41545e-09 -1.3382e-08 -5.86472e-09
1.80455e-09 -1.19899e-08 -2.16079e-08
0.0 0.0 -3.8832e-08
-7.41471e-10 -3.70046e-09 -1.85908e-09
-3.1128e-09 -1.2218e-08 -3.7669e-09
1.12703e-23 -1.65436e-24 0.0
1.21108e-08 -2.40378e-09 -1.98441e-09
1.37145e-07 -1.79212e-10 -1.08703e-09
4.03477e-09 7.75004e-10 1.04382e-09
1.09074e-09 3.05681e-09 8.08862e-10
8.34251e-09 1.21754e-08 -6.26266e-09
-2.4719e-08 1.63322e-07 1.42476e-07
8.87721e-11 1.13974e-10 -1.71914e-10
0.0 0.0 0.0
0.0 0.0 -3.8832e-08
0.0 0.0 -3.8832e-08
0.0 0.0 0.0
0.0 0.0 0.0
0.0 0.0 -3.8832e-08
9.9241e-07 6.26706e-08 1.3725e-07
1.29388e-08 2.70965e-09 2.24359e-09
0.0 0.0 0.0
0.0 0.0 -3.8832e-08
0.0 0.0 -3.8832e-08
3.48246e-08 -1.27138e-08 -1.96836e-08
0.0 0.0 0.0
2.93613e-06 -1.3397e-07 4.04468e-07
