# vtk DataFile Version 3.0
LIGGGHTS particles timestep 4200000
ASCII
DATASET POLYDATA
POINTS 667 float
0.027541 0.0176429 0.00726491
0.0328328 0.0169351 0.00754769
0.0269556 0.0180269 0.00717975
0.033769 0.0162165 0.00798967
0.0261978 0.0168191 0.0075961
0.0322234 0.0158548 0.00847114
0.0322871 0.0160494 0.00825189
0.0324777 0.0167108 0.00762075
0.0317714 0.0153478 0.00899581
0.0383889 0.0176153 0.00720038
0.0386446 0.0187564 0.00704867
0.0385514 0.0171666 0.0074047
0.0324104 0.016467 0.00778204
0.0325262 0.0159022 0.0084218
0.0382624 0.017086 0.00745297
0.027133 0.0174783 0.00754873
0.0338777 0.0172187 0.00746049
0.0327704 0.0166693 0.00767193
0.0384536 0.0178932 0.0071077
0.0383274 0.0173504 0.00732685
0.0332665 0.0175773 0.0072746
0.0328997 0.0161477 0.00811232
0.033885 0.0175446 0.00730942
0.0313337 0.0146541 0.0108914
0.0380835 0.0163236 0.00789152
0.0257317 0.0152238 0.00913275
0.0318349 0.015559 0.00879243
0.0344856 0.0178505 0.00714338
0.0334573 0.0187581 0.0071868
0.0256686 0.015071 0.00938303
0.0317076 0.0151411 0.00920358
0.0384883 0.0169051 0.00753736
0.033395 0.0162294 0.00799518
0.0321993 0.0168078 0.00756532
0.0320834 0.0154463 0.00891706
0.0386157 0.0174327 0.0072724
0.0381415 0.0165619 0.00771869
0.0382004 0.0168242 0.00758572
0.0321538 0.0156548 0.00869696
0.0337979 0.0160159 0.00821083
0.0324421 0.0157023 0.00862908
0.0388396 0.0172507 0.0073547
0.033396 0.0168956 0.00758367
0.026023 0.0161211 0.00811979
0.031644 0.0150388 0.00947834
0.0333329 0.0178462 0.00715907
0.033585 0.0163843 0.00782227
0.0385183 0.0181711 0.00701502
0.0319631 0.0159615 0.008367
0.0318987 0.0157679 0.0085869
0.032084 0.0163515 0.00792747
0.0321444 0.0166057 0.00778005
0.0335266 0.0166497 0.00769538
0.0385852 0.0184634 0.00702345
0.0320268 0.0161557 0.00814738
0.0323626 0.01627 0.00800316
0.034266 0.0171929 0.00748327
0.0331566 0.0183014 0.007063
0.0338086 0.0167516 0.00766329
0.032604 0.0172513 0.00738819
0.0326657 0.0162788 0.00797769
0.033104 0.0162925 0.00794705
0.0330719 0.0167698 0.00762177
0.034164 0.0174447 0.00735608
0.0331424 0.0170377 0.00750683
0.0331501 0.0165061 0.00774156
0.0327335 0.0177912 0.00715603
0.0329627 0.0174695 0.00730829
0.0328688 0.0164213 0.00780904
0.0329033 0.0172015 0.00742923
0.0326693 0.0175238 0.00727766
0.0330271 0.01774 0.00719578
0.0386805 0.0177106 0.00717972
0.0334524 0.0171651 0.00746476
0.0258609 0.0155396 0.00863929
0.0333832 0.0181599 0.00719934
0.0332004 0.0173194 0.00741291
0.0315802 0.0149376 0.00975341
0.0330488 0.0157018 0.00859819
0.0328124 0.0159572 0.00832696
0.0338224 0.0178062 0.00717659
0.0325395 0.016981 0.00750444
0.0325785 0.0160889 0.00819293
0.0314548 0.0147712 0.0103156
0.0261439 0.0166197 0.00781358
0.0323684 0.0155089 0.00884746
0.0339593 0.0184385 0.00711286
0.0266747 0.0175324 0.0072796
0.0335528 0.0176633 0.00724967
0.026367 0.0162783 0.00800789
0.0380278 0.0161417 0.00812348
0.0379653 0.0159605 0.00835422
0.0339317 0.0180552 0.00704747
0.0337189 0.018266 0.00706345
0.0273973 0.0170541 0.00739969
0.0384261 0.0166433 0.00767009
0.0341468 0.0163924 0.00783705
0.0334988 0.0160381 0.00820165
0.0338397 0.018868 0.00722414
0.0334269 0.015845 0.00841967
0.027784 0.0174723 0.00730755
0.0331069 0.0158973 0.00837819
0.0328873 0.0189271 0.00717204
0.0259212 0.0157332 0.00841824
0.0335387 0.0193274 0.007315
0.0326756 0.0155703 0.00876348
0.02687 0.0160232 0.0082124
0.0260835 0.0163561 0.00794347
0.0327591 0.015761 0.0085475
0.031394 0.0147129 0.0106035
0.0344687 0.0181317 0.00704032
0.0259874 0.0160253 0.00840182
0.0337133 0.0186054 0.00715288
0.0320198 0.0152375 0.00912283
0.0328089 0.0194674 0.00727989
0.0263874 0.0176183 0.00727357
0.0342289 0.0185645 0.00715051
0.0329653 0.0155111 0.00881417
0.0323894 0.0176211 0.00723093
0.0324533 0.0178884 0.00711092
0.0336033 0.0179901 0.0070865
0.0330935 0.0180086 0.00707993
0.0269933 0.0164912 0.00785801
0.0336898 0.0170016 0.00754765
0.0336365 0.0173849 0.00737626
0.026424 0.0165138 0.00783112
0.0341026 0.0167033 0.00769797
0.0322609 0.0170775 0.00744934
0.0263222 0.0173336 0.00734224
0.0278212 0.016536 0.00779194
0.0266741 0.016384 0.00793415
0.0341084 0.0177238 0.00721418
0.0265828 0.0184784 0.00709596
0.0342052 0.0182714 0.00707284
0.0263062 0.0160433 0.00818417
0.0282505 0.0171063 0.00739835
0.0325183 0.018168 0.00702381
0.0257968 0.0153816 0.00888609
0.0285119 0.0172504 0.00736821
0.032798 0.0180613 0.00704209
0.0323249 0.0173466 0.00733346
0.0335838 0.0190217 0.00725405
0.028047 0.0176178 0.00727711
0.026152 0.0155947 0.00855069
0.0280103 0.0172807 0.00735486
0.0325801 0.0184597 0.00705701
0.0329232 0.0186292 0.00717152
0.0273179 0.0168213 0.00757134
0.0331895 0.0160882 0.00816204
0.0272485 0.0163658 0.00795359
0.0312742 0.0145956 0.0111796
0.0379003 0.0157795 0.00858448
0.0332173 0.0185875 0.00712923
0.0267403 0.0178188 0.00721399
0.0266094 0.017247 0.007345
0.0276499 0.0169158 0.00748425
0.0268078 0.0182828 0.0071288
0.0326025 0.0153774 0.00898132
0.0285323 0.0175702 0.00729427
0.0331831 0.0188796 0.00718825
0.0323683 0.0170814 0.00772941
0.0327377 0.0191835 0.0072143
0.026029 0.0152781 0.00904527
0.0272582 0.0175444 0.00728426
0.032306 0.0153091 0.00906423
0.0262572 0.0170496 0.00741356
0.0342882 0.0169219 0.00761
0.032185 0.0149907 0.00954187
0.0274358 0.0182068 0.00713273
0.0275709 0.0166934 0.00766946
0.0276873 0.0195934 0.00702829
0.0325411 0.0151825 0.00920089
0.0319579 0.0161207 0.00862124
0.0208666 0.0183503 0.00711044
0.0318982 0.0159263 0.00884174
0.0344131 0.0175918 0.00727687
0.0270473 0.0167191 0.00767058
0.0321441 0.0166882 0.00806848
0.0264525 0.0179035 0.00720763
0.0278965 0.016763 0.00761076
0.0319524 0.0150674 0.00936061
0.0213545 0.0169961 0.00744903
0.0271849 0.016134 0.0081331
0.0274932 0.0162226 0.00805902
0.0333427 0.0156545 0.00863552
0.0286144 0.0178515 0.00723003
0.0282717 0.0174248 0.00732471
0.0287237 0.0192483 0.00694309
0.0274783 0.0173464 0.0073329
0.0322424 0.0150979 0.00926761
0.0321913 0.0159739 0.00874459
0.0270627 0.0169464 0.00747548
0.0282098 0.0182777 0.00712606
0.0279568 0.0184338 0.00708663
0.0264835 0.0167489 0.00765449
0.0267346 0.0166186 0.0077544
0.0285027 0.0169488 0.00743806
0.0334729 0.0184321 0.00710646
0.026648 0.0187655 0.00703879
0.0333095 0.0191432 0.0072555
0.0265406 0.0169977 0.00749699
0.0279504 0.0169895 0.00742166
0.0342174 0.017972 0.00708552
0.0330989 0.0195333 0.00731967
0.0267927 0.0168491 0.0075631
0.0206782 0.0176983 0.0072108
0.027727 0.0171838 0.00737375
0.028134 0.0166147 0.00771849
0.0271857 0.0172607 0.0073491
0.0330282 0.0192474 0.00725262
0.026617 0.0161484 0.00811091
0.0267073 0.0172121 0.00762641
0.0328618 0.0183568 0.00706203
0.0273027 0.0165922 0.00776438
0.0272512 0.0179759 0.00718397
0.0326402 0.018748 0.00711405
0.0268993 0.0171855 0.00739745
0.0269654 0.0174616 0.00730051
0.0284577 0.0191105 0.00695754
0.0269277 0.0162577 0.00803453
0.0271661 0.0190422 0.00697118
0.0284354 0.0180855 0.00717348
0.0262012 0.0158182 0.00835231
0.0280603 0.0163911 0.00790448
0.0267719 0.0193501 0.00708719
0.0275657 0.0186832 0.00703338
0.0273203 0.0159217 0.00829613
0.0202588 0.0170634 0.00744487
0.0326453 0.0165809 0.00792984
0.02845 0.0183453 0.00732283
0.0318894 0.0149654 0.00963559
0.0270999 0.0195785 0.00701009
0.0256015 0.0149391 0.009644
0.0214521 0.0184054 0.00711647
0.028914 0.0178394 0.00723662
0.0275447 0.0164508 0.00787129
0.0268338 0.0196399 0.00713411
0.0279869 0.0182603 0.00732947
0.0338657 0.0164831 0.00778427
0.0314949 0.0150684 0.0103258
0.0318256 0.0157189 0.00904605
0.0198805 0.0156657 0.00862218
0.0287757 0.0180983 0.0071748
0.0279613 0.0192013 0.00695029
0.0328308 0.0151232 0.00925158
0.0277499 0.0198782 0.00713176
0.0264505 0.0156881 0.00845698
0.0268966 0.0199177 0.00722821
0.0289741 0.0187968 0.00699795
0.0220464 0.0172796 0.00732469
0.0276268 0.0160133 0.00822745
0.0203917 0.0164169 0.00781137
0.0321172 0.0149039 0.0098209
0.0276826 0.0193101 0.00692664
0.0264023 0.0155043 0.00868912
0.0318252 0.0148696 0.00991255
0.0279065 0.0160935 0.00815368
0.0260932 0.0154361 0.00879845
0.0333604 0.0165908 0.00793805
0.0329136 0.0164827 0.00809924
0.0328922 0.0153182 0.00903201
0.0265562 0.0159134 0.0082872
0.0281441 0.0186626 0.00703592
0.0200035 0.0160501 0.00817832
0.0199447 0.0158574 0.00840061
0.0281309 0.0189545 0.00696803
0.0270403 0.0177445 0.00723499
0.0280369 0.0180004 0.00718821
0.0277697 0.0181325 0.0071542
0.0278148 0.0178022 0.0072314
0.0271063 0.0183056 0.00711008
0.0281894 0.0168432 0.00752892
0.0282702 0.0178173 0.00723363
0.027548 0.0179358 0.00720062
0.0287774 0.0174025 0.00733627
0.0286503 0.018664 0.00704197
0.032676 0.018882 0.0073801
0.0208111 0.016657 0.00767435
0.0278577 0.0187485 0.00701237
0.0268729 0.0185693 0.00706823
0.0269314 0.0188601 0.00701231
0.0265197 0.0181905 0.00715215
0.0276583 0.0184047 0.00709518
0.028661 0.018368 0.00711079
0.0273432 0.0184857 0.00707207
0.0201963 0.0167991 0.00757219
0.0282388 0.0193148 0.00693948
0.0282319 0.0180995 0.00739347
0.0270211 0.0193012 0.00692748
0.0277273 0.0190138 0.00695914
0.0267127 0.0190564 0.00707285
0.0283972 0.0185064 0.00707534
0.0283972 0.0188202 0.00700256
0.0315168 0.0148437 0.0100312
0.0206751 0.0188974 0.00701103
0.02681 0.0157885 0.00838932
0.0203227 0.0173275 0.00731766
0.0316814 0.0153567 0.0094959
0.0269529 0.0202123 0.00723403
0.0279285 0.0190124 0.00718169
0.0317603 0.015508 0.00924919
0.0329709 0.0166937 0.0078938
0.0207131 0.0190602 0.00726015
0.0275638 0.0157814 0.00840692
0.0271062 0.0157521 0.00842022
0.022036 0.0175751 0.0072744
0.022348 0.017899 0.00722763
0.0212542 0.0192417 0.0070963
0.0211502 0.019752 0.00707354
0.0217825 0.0180065 0.00719373
0.0316146 0.0152414 0.00976466
0.0277831 0.0163063 0.00798198
0.0285066 0.019448 0.0069975
0.0273482 0.0156128 0.0085299
0.0200771 0.0163027 0.00788739
0.0216848 0.0188786 0.00704201
0.0207332 0.019188 0.00696297
0.0284871 0.0197725 0.0070946
0.0204525 0.0178918 0.0071713
0.0206787 0.0171442 0.00739354
0.0268119 0.0166188 0.00806003
0.0274607 0.0198054 0.00709932
0.0268147 0.0168703 0.00789652
0.0267036 0.0155768 0.00857328
0.0215038 0.0181144 0.00716763
0.0259733 0.0158971 0.00867264
0.0280382 0.0197982 0.00710939
0.0259637 0.0151345 0.00930068
0.0315515 0.0151415 0.0100404
0.0209031 0.0174816 0.00725455
0.0272427 0.0154532 0.00876091
0.0263435 0.0153457 0.00893685
0.0332536 0.01643 0.00816773
0.0258322 0.0148713 0.00982331
0.0272301 0.0171577 0.00762731
0.0226023 0.0180569 0.00720737
0.0205141 0.0169181 0.00750589
0.0213866 0.0167462 0.00762042
0.0255409 0.0148727 0.0099302
0.021095 0.0168008 0.00757614
0.0289771 0.0190885 0.00692805
0.0272103 0.0187503 0.00702414
0.0229009 0.0180859 0.00720358
0.0272394 0.0201268 0.00720966
0.020136 0.0165498 0.00772787
0.0274448 0.0189576 0.00704291
0.0273957 0.0195296 0.00699903
0.0287107 0.0189495 0.00696582
0.0223346 0.0176032 0.00727581
0.0289218 0.0185131 0.0070804
0.028158 0.019204 0.00720631
0.02797 0.019497 0.00699994
0.0203876 0.0176026 0.00721735
0.0200733 0.0163964 0.00817233
0.0282499 0.0195968 0.00704157
0.020612 0.0174144 0.00728182
0.0215093 0.0175393 0.00726692
0.0214437 0.0172513 0.00731914
0.0209667 0.0177745 0.00724172
0.0273922 0.0192347 0.00692838
0.0220494 0.0178706 0.00722428
0.0287942 0.019533 0.00700633
0.0271649 0.0198538 0.00711018
0.0224594 0.0184779 0.00713178
0.0223433 0.0182047 0.00717527
0.0221619 0.0184394 0.00713049
0.0147069 0.0190583 0.00712168
0.0211248 0.0186763 0.00706119
0.0205176 0.0181811 0.00712624
0.0212195 0.017613 0.00724359
0.022543 0.0191774 0.00701454
0.0213102 0.0195214 0.00696768
0.0261849 0.016393 0.00822339
0.021655 0.0166461 0.00770958
0.0263346 0.0170699 0.00770269
0.0231036 0.0197612 0.00702394
0.0258998 0.014995 0.00955846
0.0269995 0.0155491 0.00861368
0.0265197 0.0165723 0.00810938
0.0165731 0.0231181 0.0105501
0.0258626 0.0157143 0.00888317
0.026757 0.0163811 0.00824809
0.0219794 0.0170171 0.00745357
0.0216363 0.0168867 0.00753138
0.0217758 0.0183021 0.00714303
0.0210836 0.0165509 0.00774163
0.0215811 0.0193935 0.00695118
0.0265223 0.0168219 0.00794285
0.0220458 0.0181662 0.00717367
0.0269614 0.0170715 0.00772911
0.0271452 0.0167675 0.00794998
0.0215332 0.0191316 0.00709703
0.022678 0.0194336 0.00709311
0.0215386 0.0201912 0.00722388
0.0213752 0.0164969 0.00778688
0.0209646 0.020256 0.00726458
0.0197521 0.0152778 0.0090616
0.0202613 0.0159418 0.00828688
0.0220704 0.0199823 0.0071297
0.0210634 0.0194706 0.00713056
0.0206943 0.0164209 0.00781778
0.0212617 0.0202963 0.00727149
0.0221636 0.0164538 0.0173054
0.0262847 0.0151871 0.00918458
0.0266563 0.0154171 0.00882279
0.0202641 0.0161413 0.00806103
0.0215938 0.0207395 0.00746155
0.0211455 0.0200352 0.00717226
0.0258249 0.0155511 0.00913204
0.0208267 0.0186433 0.00706004
0.0264667 0.0163359 0.00830896
0.0265819 0.0153941 0.00911248
0.0269601 0.0153887 0.00886408
0.0219129 0.0194548 0.00704815
0.0210635 0.0170632 0.00742061
0.0217816 0.0174191 0.00730454
0.0208228 0.0169115 0.00751609
0.0343992 0.0166686 0.00772672
0.0217131 0.0171399 0.00739016
0.0228426 0.0191937 0.00702001
0.0214326 0.0178247 0.00721517
0.0214443 0.018701 0.00706575
0.0211529 0.0173206 0.00729525
0.0211647 0.0183196 0.00712323
0.0270168 0.0204878 0.00733417
0.0209732 0.0189307 0.00701354
0.0209183 0.0180591 0.00716015
0.0205444 0.0239375 0.011917
0.0218112 0.0191778 0.00699435
0.0179563 0.0230462 0.0101809
0.0217139 0.0185956 0.0071442
0.0275353 0.0200784 0.00719881
0.0221469 0.0196338 0.00699172
0.0227389 0.018624 0.00712612
0.021993 0.0189435 0.0070394
0.0229709 0.0190864 0.00726935
0.0212164 0.0180286 0.00717439
0.0207957 0.0194814 0.0069709
0.0205824 0.0184705 0.00708115
0.021416 0.0199168 0.0071196
0.0217535 0.017712 0.00724324
0.0219973 0.0186833 0.00718871
0.0212672 0.018943 0.00707193
0.0270814 0.0160966 0.00841219
0.0227262 0.0183268 0.00716493
0.0274999 0.0170523 0.00770536
0.0262222 0.0157711 0.0087829
0.0152658 0.0202318 0.00726295
0.0226758 0.019942 0.00709962
0.0232824 0.0195252 0.00697544
0.0231449 0.0189436 0.00707104
0.0205424 0.0162241 0.00798555
0.0172321 0.0232521 0.0107394
0.0215411 0.016915 0.00781447
0.02185 0.0202901 0.0072552
0.0223678 0.0199486 0.00710948
0.0202054 0.0157486 0.00850943
0.0198163 0.0154742 0.00884394
0.0219093 0.0167744 0.00761542
0.0210288 0.02053 0.00736832
0.0217735 0.0200194 0.00715119
0.0266922 0.0161448 0.00842117
0.0229673 0.0200089 0.00712412
0.0225301 0.0201817 0.00720596
0.0162084 0.022954 0.010247
0.0234013 0.0197921 0.00704359
0.0213063 0.016258 0.00823802
0.0223451 0.017307 0.00732192
0.0150505 0.0206627 0.00733457
0.0205388 0.0160092 0.00819481
0.021375 0.0159694 0.00819321
0.0217473 0.0159967 0.00814138
0.0257173 0.0154053 0.00937118
0.0205542 0.0155971 0.00897281
0.0196882 0.0150803 0.00927827
0.0208143 0.0161183 0.00805547
0.0184755 0.023069 0.0103288
0.0262049 0.0155963 0.00902611
0.0216443 0.0163907 0.00786669
0.0148521 0.0197103 0.00720076
0.0209668 0.0163231 0.00789809
0.0158684 0.0228422 0.00997025
0.0196244 0.014987 0.00955622
0.0211645 0.0210892 0.00762218
0.0211059 0.0160643 0.00810051
0.0228198 0.0202254 0.00727033
0.0149122 0.020002 0.00723616
0.0212585 0.0162682 0.00794204
0.0262147 0.0150628 0.00944849
0.0254774 0.0148016 0.0102146
0.0223491 0.0194085 0.00696971
0.0228484 0.0188978 0.00707072
0.0153149 0.0205256 0.00729864
0.0172342 0.019901 0.00715404
0.0221071 0.0192329 0.00699307
0.0209674 0.0191887 0.00716647
0.0226129 0.0177605 0.00725274
0.021326 0.0205697 0.0073768
0.0222779 0.0187125 0.0070867
0.0224624 0.0196842 0.00700396
0.0222976 0.0190105 0.00705787
0.0216231 0.0204709 0.00733118
0.0183235 0.0232719 0.0105735
0.0218819 0.0197525 0.00706757
0.015428 0.0218135 0.00845204
0.0147917 0.0194089 0.00716418
0.0228123 0.0196894 0.00701234
0.0196473 0.0241762 0.0123529
0.0186023 0.0233051 0.0104677
0.0232017 0.0192342 0.00702294
0.0151532 0.0198247 0.00721365
0.0222326 0.0202187 0.0072182
0.022943 0.019752 0.00727717
0.021093 0.0208035 0.00747363
0.0215803 0.0196844 0.0070249
0.0183122 0.0226154 0.00934283
0.0229954 0.0194521 0.00702366
0.022552 0.018852 0.0070704
0.0149724 0.0202938 0.00727157
0.0256431 0.015254 0.00961934
0.0222438 0.0206511 0.007492
0.0195566 0.0240367 0.0121033
0.0215275 0.0161601 0.00801898
0.0226849 0.0204458 0.00742268
0.0212087 0.0168092 0.00785362
0.0186757 0.0231711 0.0108245
0.0266139 0.0159053 0.00858396
0.0255902 0.0152566 0.00991463
0.0211604 0.0165513 0.00803163
0.0223126 0.0208675 0.00768796
0.0268469 0.0152537 0.00910685
0.0225996 0.0174644 0.00729872
0.0204517 0.0166613 0.00764807
0.0208122 0.0159201 0.00828065
0.021106 0.015866 0.00832567
0.0220483 0.0165561 0.00776709
0.0202446 0.0239292 0.0119058
0.0214455 0.0164697 0.00807725
0.0171418 0.014212 0.012256
0.0173848 0.0202353 0.00717492
0.0195614 0.0149079 0.00983874
0.0178312 0.0215019 0.00770733
0.0209679 0.0239319 0.0120654
0.0204984 0.0158139 0.00841888
0.0149073 0.0210298 0.015988
0.0208251 0.0165538 0.00805592
0.0176826 0.0227855 0.00981535
0.0156087 0.0235226 0.0135996
0.0226127 0.0220318 0.00868018
0.0213475 0.0238907 0.0124286
0.0168469 0.0231667 0.0106652
0.0225341 0.0206612 0.00756718
0.0208683 0.0157238 0.00850045
0.0208683 0.0173346 0.00752685
0.0181867 0.0223403 0.00891782
0.017737 0.0224967 0.00928023
0.0203691 0.0156659 0.00874687
0.0204914 0.0173045 0.00756466
0.0168826 0.0142307 0.0124058
0.0161624 0.0144137 0.013028
0.0194995 0.0148462 0.0101257
0.0184999 0.0229058 0.0100728
0.0137282 0.0205663 0.0153175
0.0210746 0.0175506 0.00749875
0.0220879 0.0204609 0.0073202
0.0223946 0.0204357 0.00734745
0.0225449 0.0197464 0.00728559
0.0205705 0.024129 0.0123004
0.0177615 0.0211638 0.00762405
0.0218766 0.0206539 0.00740985
0.0194035 0.0239181 0.0118742
0.0151887 0.0210517 0.00739921
0.0157853 0.0226754 0.00968693
0.0165435 0.0229597 0.010296
0.0228619 0.0221685 0.00877707
0.0168205 0.0229958 0.0104072
0.0197273 0.0239157 0.0118832
0.0175527 0.0208971 0.00741014
0.0180767 0.0221457 0.00862358
0.0214345 0.0209692 0.00757041
0.0210865 0.0240025 0.0123317
0.0180873 0.0231987 0.0104036
0.0189956 0.0243254 0.0137995
0.0220385 0.021679 0.00830014
0.0230616 0.0219526 0.00860836
0.0162361 0.0231391 0.0106121
0.0161401 0.0236998 0.0131603
0.0191038 0.0239269 0.0119017
0.0171159 0.0229515 0.0102572
0.0174313 0.0230252 0.0104535
0.0174034 0.0228857 0.0100478
0.0176977 0.0229391 0.0100726
0.0220294 0.020834 0.00759484
0.021086 0.0170143 0.0165491
0.0145577 0.0201295 0.0162759
0.0160845 0.016481 0.018238
0.0158383 0.0144894 0.0133193
0.0199471 0.016063 0.00861906
0.0171875 0.0222291 0.0140832
0.0194935 0.0150477 0.0105485
0.0225929 0.019117 0.0164114
0.0204292 0.0159533 0.0164737
0.0163831 0.0237728 0.0129422
0.0177986 0.0185679 0.0161532
0.016848 0.0213818 0.015858
0.0206597 0.016909 0.007768
0.017781 0.0178283 0.0187407
0.0180266 0.0141519 0.0120399
0.0197161 0.0154128 0.00933238
0.02267 0.0219753 0.015478
0.0152338 0.0202915 0.0162483
0.0198464 0.0157326 0.00899384
0.0168238 0.0149501 0.016146
0.0213444 0.019401 0.0256243
0.0229449 0.0161596 0.0216486
0.0163745 0.0173595 0.0243035
0.0230665 0.0194827 0.0222802
0.022758 0.0173024 0.02437
0.0191389 0.0185709 0.0274339
0.018894 0.0189455 0.0245448
0.0198134 0.0141967 0.0264648
0.022155 0.0198169 0.0197338
0.0174398 0.0183973 0.0247911
0.02342 0.0175213 0.021848
0.0172739 0.0159474 0.0270556
0.018121 0.0149172 0.0231866
0.017502 0.0192537 0.0275203
0.018981 0.0187153 0.0265994
0.0214622 0.0169128 0.0264586
0.0177118 0.0149102 0.0264891
0.0183408 0.0180474 0.0274607
0.0209214 0.0197566 0.0227456
0.0225132 0.0186159 0.0198318
0.0165343 0.01861 0.0247368
0.0168273 0.0153527 0.0210248
0.0161852 0.015115 0.0236786
0.0203779 0.018928 0.0267363
0.0198854 0.0144399 0.02076
0.0218597 0.0191396 0.0200751
0.0202291 0.0239383 0.0122052
0.0182519 0.0230651 0.0101288
0.0151608 0.0233348 0.0138932
0.0171068 0.0230781 0.0105291
0.0222752 0.0209563 0.0169029
0.0187824 0.0238993 0.0118537
0.0177004 0.0230927 0.0103303
0.017562 0.0231531 0.0107492
0.01861 0.0234531 0.0107342
0.0346845 0.0220437 0.0429868
0.0210648 0.0241251 0.0126073
0.0175082 0.0229369 0.0129458
0.0153013 0.021121 0.0202963
0.0170671 0.0234951 0.0242985
0.0161418 0.0207169 0.024613
0.0148742 0.0213857 0.0192278
0.0157865 0.0218611 0.024362
0.0222752 0.0209563 0.0228175
0.0188741 0.0238161 0.0266813
0.0176586 0.0231518 0.0256181
0.0232716 0.0214748 0.022747
0.0177343 0.022623 0.0220925
0.016815 0.0208972 0.0257101
0.0217555 0.022893 0.0274182
0.0167043 0.0204947 0.0212563
0.018283 0.0233852 0.0251632
0.0199239 0.0213919 0.0251776
0.018332 0.0213812 0.023064

VERTICES 667 1334
1 0
1 1
1 2
1 3
1 4
1 5
1 6
1 7
1 8
1 9
1 10
1 11
1 12
1 13
1 14
1 15
1 16
1 17
1 18
1 19
1 20
1 21
1 22
1 23
1 24
1 25
1 26
1 27
1 28
1 29
1 30
1 31
1 32
1 33
1 34
1 35
1 36
1 37
1 38
1 39
1 40
1 41
1 42
1 43
1 44
1 45
1 46
1 47
1 48
1 49
1 50
1 51
1 52
1 53
1 54
1 55
1 56
1 57
1 58
1 59
1 60
1 61
1 62
1 63
1 64
1 65
1 66
1 67
1 68
1 69
1 70
1 71
1 72
1 73
1 74
1 75
1 76
1 77
1 78
1 79
1 80
1 81
1 82
1 83
1 84
1 85
1 86
1 87
1 88
1 89
1 90
1 91
1 92
1 93
1 94
1 95
1 96
1 97
1 98
1 99
1 100
1 101
1 102
1 103
1 104
1 105
1 106
1 107
1 108
1 109
1 110
1 111
1 112
1 113
1 114
1 115
1 116
1 117
1 118
1 119
1 120
1 121
1 122
1 123
1 124
1 125
1 126
1 127
1 128
1 129
1 130
1 131
1 132
1 133
1 134
1 135
1 136
1 137
1 138
1 139
1 140
1 141
1 142
1 143
1 144
1 145
1 146
1 147
1 148
1 149
1 150
1 151
1 152
1 153
1 154
1 155
1 156
1 157
1 158
1 159
1 160
1 161
1 162
1 163
1 164
1 165
1 166
1 167
1 168
1 169
1 170
1 171
1 172
1 173
1 174
1 175
1 176
1 177
1 178
1 179
1 180
1 181
1 182
1 183
1 184
1 185
1 186
1 187
1 188
1 189
1 190
1 191
1 192
1 193
1 194
1 195
1 196
1 197
1 198
1 199
1 200
1 201
1 202
1 203
1 204
1 205
1 206
1 207
1 208
1 209
1 210
1 211
1 212
1 213
1 214
1 215
1 216
1 217
1 218
1 219
1 220
1 221
1 222
1 223
1 224
1 225
1 226
1 227
1 228
1 229
1 230
1 231
1 232
1 233
1 234
1 235
1 236
1 237
1 238
1 239
1 240
1 241
1 242
1 243
1 244
1 245
1 246
1 247
1 248
1 249
1 250
1 251
1 252
1 253
1 254
1 255
1 256
1 257
1 258
1 259
1 260
1 261
1 262
1 263
1 264
1 265
1 266
1 267
1 268
1 269
1 270
1 271
1 272
1 273
1 274
1 275
1 276
1 277
1 278
1 279
1 280
1 281
1 282
1 283
1 284
1 285
1 286
1 287
1 288
1 289
1 290
1 291
1 292
1 293
1 294
1 295
1 296
1 297
1 298
1 299
1 300
1 301
1 302
1 303
1 304
1 305
1 306
1 307
1 308
1 309
1 310
1 311
1 312
1 313
1 314
1 315
1 316
1 317
1 318
1 319
1 320
1 321
1 322
1 323
1 324
1 325
1 326
1 327
1 328
1 329
1 330
1 331
1 332
1 333
1 334
1 335
1 336
1 337
1 338
1 339
1 340
1 341
1 342
1 343
1 344
1 345
1 346
1 347
1 348
1 349
1 350
1 351
1 352
1 353
1 354
1 355
1 356
1 357
1 358
1 359
1 360
1 361
1 362
1 363
1 364
1 365
1 366
1 367
1 368
1 369
1 370
1 371
1 372
1 373
1 374
1 375
1 376
1 377
1 378
1 379
1 380
1 381
1 382
1 383
1 384
1 385
1 386
1 387
1 388
1 389
1 390
1 391
1 392
1 393
1 394
1 395
1 396
1 397
1 398
1 399
1 400
1 401
1 402
1 403
1 404
1 405
1 406
1 407
1 408
1 409
1 410
1 411
1 412
1 413
1 414
1 415
1 416
1 417
1 418
1 419
1 420
1 421
1 422
1 423
1 424
1 425
1 426
1 427
1 428
1 429
1 430
1 431
1 432
1 433
1 434
1 435
1 436
1 437
1 438
1 439
1 440
1 441
1 442
1 443
1 444
1 445
1 446
1 447
1 448
1 449
1 450
1 451
1 452
1 453
1 454
1 455
1 456
1 457
1 458
1 459
1 460
1 461
1 462
1 463
1 464
1 465
1 466
1 467
1 468
1 469
1 470
1 471
1 472
1 473
1 474
1 475
1 476
1 477
1 478
1 479
1 480
1 481
1 482
1 483
1 484
1 485
1 486
1 487
1 488
1 489
1 490
1 491
1 492
1 493
1 494
1 495
1 496
1 497
1 498
1 499
1 500
1 501
1 502
1 503
1 504
1 505
1 506
1 507
1 508
1 509
1 510
1 511
1 512
1 513
1 514
1 515
1 516
1 517
1 518
1 519
1 520
1 521
1 522
1 523
1 524
1 525
1 526
1 527
1 528
1 529
1 530
1 531
1 532
1 533
1 534
1 535
1 536
1 537
1 538
1 539
1 540
1 541
1 542
1 543
1 544
1 545
1 546
1 547
1 548
1 549
1 550
1 551
1 552
1 553
1 554
1 555
1 556
1 557
1 558
1 559
1 560
1 561
1 562
1 563
1 564
1 565
1 566
1 567
1 568
1 569
1 570
1 571
1 572
1 573
1 574
1 575
1 576
1 577
1 578
1 579
1 580
1 581
1 582
1 583
1 584
1 585
1 586
1 587
1 588
1 589
1 590
1 591
1 592
1 593
1 594
1 595
1 596
1 597
1 598
1 599
1 600
1 601
1 602
1 603
1 604
1 605
1 606
1 607
1 608
1 609
1 610
1 611
1 612
1 613
1 614
1 615
1 616
1 617
1 618
1 619
1 620
1 621
1 622
1 623
1 624
1 625
1 626
1 627
1 628
1 629
1 630
1 631
1 632
1 633
1 634
1 635
1 636
1 637
1 638
1 639
1 640
1 641
1 642
1 643
1 644
1 645
1 646
1 647
1 648
1 649
1 650
1 651
1 652
1 653
1 654
1 655
1 656
1 657
1 658
1 659
1 660
1 661
1 662
1 663
1 664
1 665
1 666

POINT_DATA 667
SCALARS id int 1
LOOKUP_TABLE default
1
2
3
4
5
6
7
8
9
10
11
12
13
14
15
16
17
18
19
20
21
22
23
24
25
26
27
28
29
30
31
32
33
34
35
36
37
39
40
41
42
43
44
45
46
47
48
49
50
51
52
53
54
56
57
58
59
60
61
62
63
64
65
67
68
69
70
71
72
73
74
75
76
77
78
79
80
81
82
83
84
85
86
87
88
89
90
91
92
93
94
95
96
97
98
99
100
101
102
103
104
105
106
107
108
109
110
111
112
113
114
115
116
117
118
119
120
121
122
123
124
125
126
127
129
130
131
132
133
134
135
136
137
138
139
140
141
142
143
144
145
146
147
148
149
150
151
153
154
155
156
157
158
159
160
161
162
163
164
165
166
167
168
169
170
171
172
173
174
175
176
177
178
179
180
181
182
183
184
185
186
187
188
189
190
191
192
193
194
195
196
197
198
199
200
201
202
203
204
205
206
207
208
209
210
211
212
213
214
215
217
218
219
220
221
222
223
224
225
226
227
228
229
230
231
232
233
234
235
236
237
238
239
240
241
242
243
244
245
246
247
248
249
250
251
252
253
254
255
256
257
258
259
260
261
262
263
264
265
266
267
268
269
270
271
273
274
275
276
277
278
279
280
281
282
283
284
285
286
287
288
289
290
291
292
293
294
295
296
297
298
299
300
301
302
303
304
305
306
307
308
309
310
311
312
313
314
315
316
317
318
319
320
321
322
323
324
325
326
327
328
329
330
331
332
333
334
335
336
337
338
339
340
341
342
343
344
345
346
347
348
349
350
351
352
353
354
355
356
357
358
359
360
361
362
363
364
365
366
367
368
369
370
371
372
373
374
375
376
377
378
379
380
381
382
383
384
385
386
387
388
389
390
391
392
393
394
395
396
397
398
399
400
401
402
403
404
405
406
407
408
409
410
411
412
413
414
415
416
417
418
419
420
421
422
423
424
425
426
427
428
429
430
431
432
433
434
435
436
437
438
439
440
441
442
443
444
445
446
447
448
449
450
451
452
453
454
455
456
457
458
459
460
461
462
463
464
465
466
467
468
469
470
471
472
473
474
475
476
477
478
479
480
481
482
483
484
485
486
487
488
489
490
491
492
493
494
495
496
497
498
499
500
501
502
503
504
505
506
507
508
509
510
511
512
513
514
515
516
517
518
519
520
521
522
523
524
525
526
527
528
529
530
531
532
533
534
535
536
537
538
539
540
541
542
543
544
545
546
547
548
549
550
551
552
553
554
555
556
557
558
559
560
561
562
563
564
565
566
567
568
569
570
571
572
573
574
575
576
577
578
579
580
581
582
583
584
585
586
587
588
589
590
591
592
593
594
595
596
597
598
599
600
601
602
603
605
606
607
608
609
610
611
612
613
614
615
616
617
618
619
620
621
622
623
624
625
626
627
628
629
630
631
632
633
634
635
636
637
638
639
640
641
642
643
644
645
646
647
648
649
650
651
652
653
654
655
656
657
658
659
660
661
662
663
664
665
666
667
668
669
670
671
672
673
674
675

SCALARS type int 1
LOOKUP_TABLE default
1
1
1
1
1
1
1
1
1
1
1
1
1
1
1
1
1
1
1
1
1
1
1
1
1
1
1
1
1
1
1
1
1
1
1
1
1
1
1
1
1
1
1
1
1
1
1
1
1
1
1
1
1
1
1
1
1
1
1
1
1
1
1
1
1
1
1
1
1
1
1
1
1
1
1
1
1
1
1
1
1
1
1
1
1
1
1
1
1
1
1
1
1
1
1
1
1
1
1
1
1
1
1
1
1
1
1
1
1
1
1
1
1
1
1
1
1
1
1
1
1
1
1
1
1
1
1
1
1
1
1
1
1
1
1
1
1
1
1
1
1
1
1
1
1
1
1
1
1
1
1
1
1
1
1
1
1
1
1
1
1
1
1
1
1
1
1
1
1
1
1
1
1
1
1
1
1
1
1
1
1
1
1
1
1
1
1
1
1
1
1
1
1
1
1
1
1
1
1
1
1
1
1
1
1
1
1
1
1
1
1
1
1
1
1
1
1
1
1
1
1
1
1
1
1
1
1
1
1
1
1
1
1
1
1
1
1
1
1
1
1
1
1
1
1
1
1
1
1
1
1
1
1
1
1
1
1
1
1
1
1
1
1
1
1
1
1
1
1
1
1
1
1
1
1
1
1
1
1
1
1
1
1
1
1
1
1
1
1
1
1
1
1
1
1
1
1
1
1
1
1
1
1
1
1
1
1
1
1
1
1
1
1
1
1
1
1
1
1
1
1
1
1
1
1
1
1
1
1
1
1
1
1
1
1
1
1
1
1
1
1
1
1
1
1
1
1
1
1
1
1
1
1
1
1
1
1
1
1
1
1
1
1
1
1
1
1
1
1
1
1
1
1
1
1
1
1
1
1
1
1
1
1
1
1
1
1
1
1
1
1
1
1
1
1
1
1
1
1
1
1
1
1
1
1
1
1
1
1
1
1
1
1
1
1
1
1
1
1
1
1
1
1
1
1
1
1
1
1
1
1
1
1
1
1
1
1
1
1
1
1
1
1
1
1
1
1
1
1
1
1
1
1
1
1
1
1
1
1
1
1
1
1
1
1
1
1
1
1
1
1
1
1
1
1
1
1
1
1
1
1
1
1
1
1
1
1
1
1
1
1
1
1
1
1
1
1
1
1
1
1
1
1
1
1
1
1
1
1
1
1
1
1
1
1
1
1
1
1
1
1
1
1
1
1
1
1
1
1
1
1
1
1
1
1
1
1
1
1
1
1
1
1
1
1
1
1
1
1
1
1
1
1
1
1
1
1
1
1
1
1
1
1
1
1
1
1
1
1
1
1
1
1
1
1
1
1
1
1
1
1
1
1
1
1
1
1
1
1
1
1
1
1
1
1
1
1
1
1
1
1
1
1
1
1
1
1
1
1
1
1
1
1
1
1
1
1
1
1
1
1
1
1
1
1
1
1
1
1
1
1
1
1
1
1
1
1
1
1
1
1
1
1
1
1
1
1
1
1
1
1
1
1
1
1
1
1
1
1
1
1
1
1
1
1
1
1

SCALARS radius float 1
LOOKUP_TABLE default
0.00015
0.00015
0.00015
0.00015
0.00015
0.00015
0.00015
0.00015
0.00015
0.00015
0.00015
0.00015
0.00015
0.00015
0.00015
0.00015
0.00015
0.00015
0.00015
0.00015
0.00015
0.00015
0.00015
0.00015
0.00015
0.00015
0.00015
0.00015
0.00015
0.00015
0.00015
0.00015
0.00015
0.00015
0.00015
0.00015
0.00015
0.00015
0.00015
0.00015
0.00015
0.00015
0.00015
0.00015
0.00015
0.00015
0.00015
0.00015
0.00015
0.00015
0.00015
0.00015
0.00015
0.00015
0.00015
0.00015
0.00015
0.00015
0.00015
0.00015
0.00015
0.00015
0.00015
0.00015
0.00015
0.00015
0.00015
0.00015
0.00015
0.00015
0.00015
0.00015
0.00015
0.00015
0.00015
0.00015
0.00015
0.00015
0.00015
0.00015
0.00015
0.00015
0.00015
0.00015
0.00015
0.00015
0.00015
0.00015
0.00015
0.00015
0.00015
0.00015
0.00015
0.00015
0.00015
0.00015
0.00015
0.00015
0.00015
0.00015
0.00015
0.00015
0.00015
0.00015
0.00015
0.00015
0.00015
0.00015
0.00015
0.00015
0.00015
0.00015
0.00015
0.00015
0.00015
0.00015
0.00015
0.00015
0.00015
0.00015
0.00015
0.00015
0.00015
0.00015
0.00015
0.00015
0.00015
0.00015
0.00015
0.00015
0.00015
0.00015
0.00015
0.00015
0.00015
0.00015
0.00015
0.00015
0.00015
0.00015
0.00015
0.00015
0.00015
0.00015
0.00015
0.00015
0.00015
0.00015
0.00015
0.00015
0.00015
0.00015
0.00015
0.00015
0.00015
0.00015
0.00015
0.00015
0.00015
0.00015
0.00015
0.00015
0.00015
0.00015
0.00015
0.00015
0.00015
0.00015
0.00015
0.00015
0.00015
0.00015
0.00015
0.00015
0.00015
0.00015
0.00015
0.00015
0.00015
0.00015
0.00015
0.00015
0.00015
0.00015
0.00015
0.00015
0.00015
0.00015
0.00015
0.00015
0.00015
0.00015
0.00015
0.00015
0.00015
0.00015
0.00015
0.00015
0.00015
0.00015
0.00015
0.00015
0.00015
0.00015
0.00015
0.00015
0.00015
0.00015
0.00015
0.00015
0.00015
0.00015
0.00015
0.00015
0.00015
0.00015
0.00015
0.00015
0.00015
0.00015
0.00015
0.00015
0.00015
0.00015
0.00015
0.00015
0.00015
0.00015
0.00015
0.00015
0.00015
0.00015
0.00015
0.00015
0.00015
0.00015
0.00015
0.00015
0.00015
0.00015
0.00015
0.00015
0.00015
0.00015
0.00015
0.00015
0.00015
0.00015
0.00015
0.00015
0.00015
0.00015
0.00015
0.00015
0.00015
0.00015
0.00015
0.00015
0.00015
0.00015
0.00015
0.00015
0.00015
0.00015
0.00015
0.00015
0.00015
0.00015
0.00015
0.00015
0.00015
0.00015
0.00015
0.00015
0.00015
0.00015
0.00015
0.00015
0.00015
0.00015
0.00015
0.00015
0.00015
0.00015
0.00015
0.00015
0.00015
0.00015
0.00015
0.00015
0.00015
0.00015
0.00015
0.00015
0.00015
0.00015
0.00015
0.00015
0.00015
0.00015
0.00015
0.00015
0.00015
0.00015
0.00015
0.00015
0.00015
0.00015
0.00015
0.00015
0.00015
0.00015
0.00015
0.00015
0.00015
0.00015
0.00015
0.00015
0.00015
0.00015
0.00015
0.00015
0.00015
0.00015
0.00015
0.00015
0.00015
0.00015
0.00015
0.00015
0.00015
0.00015
0.00015
0.00015
0.00015
0.00015
0.00015
0.00015
0.00015
0.00015
0.00015
0.00015
0.00015
0.00015
0.00015
0.00015
0.00015
0.00015
0.00015
0.00015
0.00015
0.00015
0.00015
0.00015
0.00015
0.00015
0.00015
0.00015
0.00015
0.00015
0.00015
0.00015
0.00015
0.00015
0.00015
0.00015
0.00015
0.00015
0.00015
0.00015
0.00015
0.00015
0.00015
0.00015
0.00015
0.00015
0.00015
0.00015
0.00015
0.00015
0.00015
0.00015
0.00015
0.00015
0.00015
0.00015
0.00015
0.00015
0.00015
0.00015
0.00015
0.00015
0.00015
0.00015
0.00015
0.00015
0.00015
0.00015
0.00015
0.00015
0.00015
0.00015
0.00015
0.00015
0.00015
0.00015
0.00015
0.00015
0.00015
0.00015
0.00015
0.00015
0.00015
0.00015
0.00015
0.00015
0.00015
0.00015
0.00015
0.00015
0.00015
0.00015
0.00015
0.00015
0.00015
0.00015
0.00015
0.00015
0.00015
0.00015
0.00015
0.00015
0.00015
0.00015
0.00015
0.00015
0.00015
0.00015
0.00015
0.00015
0.00015
0.00015
0.00015
0.00015
0.00015
0.00015
0.00015
0.00015
0.00015
0.00015
0.00015
0.00015
0.00015
0.00015
0.00015
0.00015
0.00015
0.00015
0.00015
0.00015
0.00015
0.00015
0.00015
0.00015
0.00015
0.00015
0.00015
0.00015
0.00015
0.00015
0.00015
0.00015
0.00015
0.00015
0.00015
0.00015
0.00015
0.00015
0.00015
0.00015
0.00015
0.00015
0.00015
0.00015
0.00015
0.00015
0.00015
0.00015
0.00015
0.00015
0.00015
0.00015
0.00015
0.00015
0.00015
0.00015
0.00015
0.00015
0.00015
0.00015
0.00015
0.00015
0.00015
0.00015
0.00015
0.00015
0.00015
0.00015
0.00015
0.00015
0.00015
0.00015
0.00015
0.00015
0.00015
0.00015
0.00015
0.00015
0.00015
0.00015
0.00015
0.00015
0.00015
0.00015
0.00015
0.00015
0.00015
0.00015
0.00015
0.00015
0.00015
0.00015
0.00015
0.00015
0.00015
0.00015
0.00015
0.00015
0.00015
0.00015
0.00015
0.00015
0.00015
0.00015
0.00015
0.00015
0.00015
0.00015
0.00015
0.00015
0.00015
0.00015
0.00015
0.00015
0.00015
0.00015
0.00015
0.00015
0.00015
0.00015
0.00015
0.00015
0.00015
0.00015
0.00015
0.00015
0.00015
0.00015
0.00015
0.00015
0.00015
0.00015
0.00015
0.00015
0.00015
0.00015
0.00015
0.00015
0.00015
0.00015
0.00015
0.00015
0.00015
0.00015
0.00015
0.00015
0.00015
0.00015
0.00015
0.00015
0.00015
0.00015
0.00015
0.00015
0.00015
0.00015
0.00015
0.00015
0.00015
0.00015
0.00015
0.00015
0.00015
0.00015
0.00015
0.00015
0.00015
0.00015
0.00015
0.00015
0.00015
0.00015
0.00015
0.00015
0.00015
0.00015
0.00015
0.00015
0.00015
0.00015
0.00015
0.00015
0.00015
0.00015
0.00015
0.00015
0.00015
0.00015
0.00015
0.00015
0.00015
0.00015
0.00015
0.00015
0.00015
0.00015
0.00015
0.00015
0.00015
0.00015
0.00015
0.00015
0.00015
0.00015
0.00015
0.00015
0.00015
0.00015
0.00015
0.00015
0.00015
0.00015
0.00015
0.00015
0.00015
0.00015
0.00015
0.00015
0.00015
0.00015
0.00015
0.00015
0.00015
0.00015
0.00015
0.00015
0.00015

SCALARS mass float 1
LOOKUP_TABLE default
3.95841e-09
3.95841e-09
3.95841e-09
3.95841e-09
3.95841e-09
3.95841e-09
3.95841e-09
3.95841e-09
3.95841e-09
3.95841e-09
3.95841e-09
3.95841e-09
3.95841e-09
3.95841e-09
3.95841e-09
3.95841e-09
3.95841e-09
3.95841e-09
3.95841e-09
3.95841e-09
3.95841e-09
3.95841e-09
3.95841e-09
3.95841e-09
3.95841e-09
3.95841e-09
3.95841e-09
3.95841e-09
3.95841e-09
3.95841e-09
3.95841e-09
3.95841e-09
3.95841e-09
3.95841e-09
3.95841e-09
3.95841e-09
3.95841e-09
3.95841e-09
3.95841e-09
3.95841e-09
3.95841e-09
3.95841e-09
3.95841e-09
3.95841e-09
3.95841e-09
3.95841e-09
3.95841e-09
3.95841e-09
3.95841e-09
3.95841e-09
3.95841e-09
3.95841e-09
3.95841e-09
3.95841e-09
3.95841e-09
3.95841e-09
3.95841e-09
3.95841e-09
3.95841e-09
3.95841e-09
3.95841e-09
3.95841e-09
3.95841e-09
3.95841e-09
3.95841e-09
3.95841e-09
3.95841e-09
3.95841e-09
3.95841e-09
3.95841e-09
3.95841e-09
3.95841e-09
3.95841e-09
3.95841e-09
3.95841e-09
3.95841e-09
3.95841e-09
3.95841e-09
3.95841e-09
3.95841e-09
3.95841e-09
3.95841e-09
3.95841e-09
3.95841e-09
3.95841e-09
3.95841e-09
3.95841e-09
3.95841e-09
3.95841e-09
3.95841e-09
3.95841e-09
3.95841e-09
3.95841e-09
3.95841e-09
3.95841e-09
3.95841e-09
3.95841e-09
3.95841e-09
3.95841e-09
3.95841e-09
3.95841e-09
3.95841e-09
3.95841e-09
3.95841e-09
3.95841e-09
3.95841e-09
3.95841e-09
3.95841e-09
3.95841e-09
3.95841e-09
3.95841e-09
3.95841e-09
3.95841e-09
3.95841e-09
3.95841e-09
3.95841e-09
3.95841e-09
3.95841e-09
3.95841e-09
3.95841e-09
3.95841e-09
3.95841e-09
3.95841e-09
3.95841e-09
3.95841e-09
3.95841e-09
3.95841e-09
3.95841e-09
3.95841e-09
3.95841e-09
3.95841e-09
3.95841e-09
3.95841e-09
3.95841e-09
3.95841e-09
3.95841e-09
3.95841e-09
3.95841e-09
3.95841e-09
3.95841e-09
3.95841e-09
3.95841e-09
3.95841e-09
3.95841e-09
3.95841e-09
3.95841e-09
3.95841e-09
3.95841e-09
3.95841e-09
3.95841e-09
3.95841e-09
3.95841e-09
3.95841e-09
3.95841e-09
3.95841e-09
3.95841e-09
3.95841e-09
3.95841e-09
3.95841e-09
3.95841e-09
3.95841e-09
3.95841e-09
3.95841e-09
3.95841e-09
3.95841e-09
3.95841e-09
3.95841e-09
3.95841e-09
3.95841e-09
3.95841e-09
3.95841e-09
3.95841e-09
3.95841e-09
3.95841e-09
3.95841e-09
3.95841e-09
3.95841e-09
3.95841e-09
3.95841e-09
3.95841e-09
3.95841e-09
3.95841e-09
3.95841e-09
3.95841e-09
3.95841e-09
3.95841e-09
3.95841e-09
3.95841e-09
3.95841e-09
3.95841e-09
3.95841e-09
3.95841e-09
3.95841e-09
3.95841e-09
3.95841e-09
3.95841e-09
3.95841e-09
3.95841e-09
3.95841e-09
3.95841e-09
3.95841e-09
3.95841e-09
3.95841e-09
3.95841e-09
3.95841e-09
3.95841e-09
3.95841e-09
3.95841e-09
3.95841e-09
3.95841e-09
3.95841e-09
3.95841e-09
3.95841e-09
3.95841e-09
3.95841e-09
3.95841e-09
3.95841e-09
3.95841e-09
3.95841e-09
3.95841e-09
3.95841e-09
3.95841e-09
3.95841e-09
3.95841e-09
3.95841e-09
3.95841e-09
3.95841e-09
3.95841e-09
3.95841e-09
3.95841e-09
3.95841e-09
3.95841e-09
3.95841e-09
3.95841e-09
3.95841e-09
3.95841e-09
3.95841e-09
3.95841e-09
3.95841e-09
3.95841e-09
3.95841e-09
3.95841e-09
3.95841e-09
3.95841e-09
3.95841e-09
3.95841e-09
3.95841e-09
3.95841e-09
3.95841e-09
3.95841e-09
3.95841e-09
3.95841e-09
3.95841e-09
3.95841e-09
3.95841e-09
3.95841e-09
3.95841e-09
3.95841e-09
3.95841e-09
3.95841e-09
3.95841e-09
3.95841e-09
3.95841e-09
3.95841e-09
3.95841e-09
3.95841e-09
3.95841e-09
3.95841e-09
3.95841e-09
3.95841e-09
3.95841e-09
3.95841e-09
3.95841e-09
3.95841e-09
3.95841e-09
3.95841e-09
3.95841e-09
3.95841e-09
3.95841e-09
3.95841e-09
3.95841e-09
3.95841e-09
3.95841e-09
3.95841e-09
3.95841e-09
3.95841e-09
3.95841e-09
3.95841e-09
3.95841e-09
3.95841e-09
3.95841e-09
3.95841e-09
3.95841e-09
3.95841e-09
3.95841e-09
3.95841e-09
3.95841e-09
3.95841e-09
3.95841e-09
3.95841e-09
3.95841e-09
3.95841e-09
3.95841e-09
3.95841e-09
3.95841e-09
3.95841e-09
3.95841e-09
3.95841e-09
3.95841e-09
3.95841e-09
3.95841e-09
3.95841e-09
3.95841e-09
3.95841e-09
3.95841e-09
3.95841e-09
3.95841e-09
3.95841e-09
3.95841e-09
3.95841e-09
3.95841e-09
3.95841e-09
3.95841e-09
3.95841e-09
3.95841e-09
3.95841e-09
3.95841e-09
3.95841e-09
3.95841e-09
3.95841e-09
3.95841e-09
3.95841e-09
3.95841e-09
3.95841e-09
3.95841e-09
3.95841e-09
3.95841e-09
3.95841e-09
3.95841e-09
3.95841e-09
3.95841e-09
3.95841e-09
3.95841e-09
3.95841e-09
3.95841e-09
3.95841e-09
3.95841e-09
3.95841e-09
3.95841e-09
3.95841e-09
3.95841e-09
3.95841e-09
3.95841e-09
3.95841e-09
3.95841e-09
3.95841e-09
3.95841e-09
3.95841e-09
3.95841e-09
3.95841e-09
3.95841e-09
3.95841e-09
3.95841e-09
3.95841e-09
3.95841e-09
3.95841e-09
3.95841e-09
3.95841e-09
3.95841e-09
3.95841e-09
3.95841e-09
3.95841e-09
3.95841e-09
3.95841e-09
3.95841e-09
3.95841e-09
3.95841e-09
3.95841e-09
3.95841e-09
3.95841e-09
3.95841e-09
3.95841e-09
3.95841e-09
3.95841e-09
3.95841e-09
3.95841e-09
3.95841e-09
3.95841e-09
3.95841e-09
3.95841e-09
3.95841e-09
3.95841e-09
3.95841e-09
3.95841e-09
3.95841e-09
3.95841e-09
3.95841e-09
3.95841e-09
3.95841e-09
3.95841e-09
3.95841e-09
3.95841e-09
3.95841e-09
3.95841e-09
3.95841e-09
3.95841e-09
3.95841e-09
3.95841e-09
3.95841e-09
3.95841e-09
3.95841e-09
3.95841e-09
3.95841e-09
3.95841e-09
3.95841e-09
3.95841e-09
3.95841e-09
3.95841e-09
3.95841e-09
3.95841e-09
3.95841e-09
3.95841e-09
3.95841e-09
3.95841e-09
3.95841e-09
3.95841e-09
3.95841e-09
3.95841e-09
3.95841e-09
3.95841e-09
3.95841e-09
3.95841e-09
3.95841e-09
3.95841e-09
3.95841e-09
3.95841e-09
3.95841e-09
3.95841e-09
3.95841e-09
3.95841e-09
3.95841e-09
3.95841e-09
3.95841e-09
3.95841e-09
3.95841e-09
3.95841e-09
3.95841e-09
3.95841e-09
3.95841e-09
3.95841e-09
3.95841e-09
3.95841e-09
3.95841e-09
3.95841e-09
3.95841e-09
3.95841e-09
3.95841e-09
3.95841e-09
3.95841e-09
3.95841e-09
3.95841e-09
3.95841e-09
3.95841e-09
3.95841e-09
3.95841e-09
3.95841e-09
3.95841e-09
3.95841e-09
3.95841e-09
3.95841e-09
3.95841e-09
3.95841e-09
3.95841e-09
3.95841e-09
3.95841e-09
3.95841e-09
3.95841e-09
3.95841e-09
3.95841e-09
3.95841e-09
3.95841e-09
3.95841e-09
3.95841e-09
3.95841e-09
3.95841e-09
3.95841e-09
3.95841e-09
3.95841e-09
3.95841e-09
3.95841e-09
3.95841e-09
3.95841e-09
3.95841e-09
3.95841e-09
3.95841e-09
3.95841e-09
3.95841e-09
3.95841e-09
3.95841e-09
3.95841e-09
3.95841e-09
3.95841e-09
3.95841e-09
3.95841e-09
3.95841e-09
3.95841e-09
3.95841e-09
3.95841e-09
3.95841e-09
3.95841e-09
3.95841e-09
3.95841e-09
3.95841e-09
3.95841e-09
3.95841e-09
3.95841e-09
3.95841e-09
3.95841e-09
3.95841e-09
3.95841e-09
3.95841e-09
3.95841e-09
3.95841e-09
3.95841e-09
3.95841e-09
3.95841e-09
3.95841e-09
3.95841e-09
3.95841e-09
3.95841e-09
3.95841e-09
3.95841e-09
3.95841e-09
3.95841e-09
3.95841e-09
3.95841e-09
3.95841e-09
3.95841e-09
3.95841e-09
3.95841e-09
3.95841e-09
3.95841e-09
3.95841e-09
3.95841e-09
3.95841e-09
3.95841e-09
3.95841e-09
3.95841e-09
3.95841e-09
3.95841e-09
3.95841e-09
3.95841e-09
3.95841e-09
3.95841e-09
3.95841e-09
3.95841e-09
3.95841e-09
3.95841e-09
3.95841e-09
3.95841e-09
3.95841e-09
3.95841e-09
3.95841e-09
3.95841e-09
3.95841e-09
3.95841e-09
3.95841e-09
3.95841e-09
3.95841e-09
3.95841e-09
3.95841e-09
3.95841e-09
3.95841e-09
3.95841e-09
3.95841e-09
3.95841e-09
3.95841e-09
3.95841e-09
3.95841e-09
3.95841e-09
3.95841e-09
3.95841e-09
3.95841e-09
3.95841e-09
3.95841e-09
3.95841e-09
3.95841e-09
3.95841e-09
3.95841e-09
3.95841e-09
3.95841e-09
3.95841e-09
3.95841e-09
3.95841e-09
3.95841e-09
3.95841e-09
3.95841e-09
3.95841e-09
3.95841e-09
3.95841e-09
3.95841e-09
3.95841e-09
3.95841e-09
3.95841e-09
3.95841e-09
3.95841e-09
3.95841e-09
3.95841e-09
3.95841e-09
3.95841e-09
3.95841e-09
3.95841e-09
3.95841e-09
3.95841e-09
3.95841e-09
3.95841e-09
3.95841e-09
3.95841e-09
3.95841e-09
3.95841e-09
3.95841e-09
3.95841e-09
3.95841e-09
3.95841e-09
3.95841e-09
3.95841e-09
3.95841e-09
3.95841e-09
3.95841e-09
3.95841e-09
3.95841e-09
3.95841e-09
3.95841e-09
3.95841e-09
3.95841e-09
3.95841e-09
3.95841e-09
3.95841e-09
3.95841e-09
3.95841e-09
3.95841e-09
3.95841e-09
3.95841e-09
3.95841e-09
3.95841e-09
3.95841e-09
3.95841e-09
3.95841e-09
3.95841e-09
3.95841e-09
3.95841e-09
3.95841e-09
3.95841e-09
3.95841e-09
3.95841e-09
3.95841e-09
3.95841e-09
3.95841e-09
3.95841e-09
3.95841e-09
3.95841e-09
3.95841e-09
3.95841e-09
3.95841e-09
3.95841e-09
3.95841e-09
3.95841e-09

VECTORS velocity float
0.00458559 -0.000245433 0.000118288
0.00456219 -1.11436e-05 0.000226731
0.00460483 -0.000387043 0.000122059
0.00397386 0.000190712 -0.000452885
0.00450875 -0.000290545 0.000308013
0.00459548 -0.000254679 1.51761e-05
0.00444675 -0.000184531 -1.31194e-05
0.00442093 -0.000220673 0.000291847
0.00474886 7.00621e-05 0.000182333
0.00490773 0.000483635 3.95837e-05
0.00484559 0.000530524 -0.000164303
0.00476056 0.000264712 -0.000263498
0.00432706 -0.000286753 8.96259e-05
0.00433305 -4.38225e-05 -0.000120123
0.00458918 0.000372464 -0.000316139
0.00462236 -0.000344109 0.0001527
0.000420841 0.00324489 -0.00141231
0.00453569 -7.81358e-05 2.17055e-05
0.00494575 0.000482846 3.82092e-05
0.00483278 0.000416715 -0.000121227
0.00461483 4.02192e-05 0.000201383
0.0041884 -0.000108531 -9.5117e-05
0.00371665 -0.000546617 0.000216454
0.00420514 0.000297968 -0.000324346
0.00445744 0.000433269 -0.000326147
0.0047153 -0.000272391 0.000356831
0.00464742 3.793e-05 0.000180434
0.00412413 -0.000542198 0.000177593
0.00477773 -0.000273177 0.000409547
0.00471974 -0.000278602 0.000360785
0.00483244 -8.28762e-05 2.57589e-05
0.00464925 0.000292748 -0.000273611
0.00389508 0.000229857 -0.000614015
0.00433467 -0.000488545 0.000381048
0.00470995 5.21054e-05 0.00017754
0.00488897 0.000464529 4.11006e-05
0.00444157 0.000420673 -0.000328307
0.00443323 0.000406681 -0.000327887
0.00451503 -8.04892e-05 3.33957e-05
0.00414434 0.000184459 -0.000405653
0.00440461 -6.57082e-05 -0.000152442
0.00499796 0.000427398 -0.000348441
0.00411527 0.00053124 -2.17673e-05
0.00426237 -0.000245494 0.000277604
0.00482444 -0.000265661 -8.6618e-05
0.00472144 0.000161675 2.19441e-05
0.00400553 0.000361944 -0.000398504
0.0049872 0.000482572 4.36135e-05
0.00452196 -0.00021246 8.51109e-05
0.00454996 -6.831e-05 0.000122549
0.00435192 -0.000378157 0.000169634
0.00429982 -0.000419579 0.000264634
0.00414307 0.000560066 -5.57812e-05
0.00486993 0.000521697 -0.00017007
0.00440327 -0.000314134 8.56454e-05
0.00449065 -0.000249078 5.66822e-05
0.00426008 -0.000300769 0.000171727
0.00467287 -0.000165554 9.0728e-05
0.00429702 0.000148165 0.000132026
0.00473667 -0.000271739 0.000318162
0.00439994 -0.000126556 -9.50313e-05
0.00424 -0.000155858 -1.09876e-05
0.00460453 8.24867e-06 0.000214266
0.00375552 -0.000482957 0.000205882
0.00454032 1.78933e-06 0.000211883
0.00456048 -3.39999e-05 0.000223786
0.00484616 -0.000125933 0.000286986
0.0046345 5.54343e-06 0.000175193
0.00441526 -0.000141563 -6.91364e-05
0.00460623 4.22774e-05 0.000239439
0.00465709 -0.000499307 0.000149002
0.00458749 2.67219e-05 0.000192748
0.00492014 0.000456737 4.61651e-05
0.00473185 0.000374322 5.85823e-05
0.00442284 -0.000228688 0.000317596
0.0050386 0.000203412 -0.00029566
0.00468342 0.000184988 0.000156298
0.00471895 -0.000247009 -0.000173809
0.00429662 0.000304378 -0.000555145
0.0043213 -0.000116812 -0.000101427
0.00411737 -0.000502771 0.000102707
0.00452738 -0.000347698 0.000364236
0.0043862 -9.72266e-05 -9.49434e-05
0.0045835 0.000272075 -0.000194688
0.00444962 -0.000273112 0.000308153
0.00463582 -7.56561e-05 -7.43512e-05
0.00460707 -0.000326351 1.97969e-05
0.00463945 -0.000404592 0.000148819
0.00466496 0.000322925 6.02517e-05
0.00438914 -0.000261507 0.000280086
0.00459645 0.000432998 -0.000311723
0.00471485 0.000425998 -0.000298578
0.00426879 -0.000501958 0.000172432
0.00455826 -0.00032924 4.82578e-05
0.00471506 -0.000243303 0.000112589
0.00447533 0.000331692 -0.000286702
0.00424892 0.00023525 8.77013e-05
0.00394804 0.000344315 -0.00062215
0.00497908 -0.000278973 -8.42548e-06
0.00413746 0.000300374 -0.000560204
0.00458369 -0.000236722 0.000113349
0.0040821 0.000210305 -0.000437145
0.00480746 -0.000720822 0.000306589
0.00441748 -0.000244624 0.000315183
0.00423034 -2.86112e-05 0.000368178
0.00430922 -4.75574e-05 -0.000138389
0.00430639 -0.000283484 0.000321406
0.00429307 -0.00025471 0.000278539
0.00427832 -7.60759e-05 -0.000154685
0.00436364 0.000344709 -0.000266767
0.00456889 -0.000508968 1.23281e-06
0.00435178 -0.000232666 0.000289811
0.00468433 -0.000262513 0.000242063
0.0047569 6.57182e-05 0.000178726
0.00460108 -0.000881277 0.000207584
0.00464442 -0.000406741 0.000148923
0.00443655 -0.000140823 3.37689e-05
0.00433772 0.000305129 -0.000573974
0.00457466 -0.000895131 0.000218967
0.00454632 -0.00116264 -7.62106e-05
0.00455651 -0.000291435 -0.00015327
0.00477472 -7.87857e-05 1.48638e-05
0.00440757 -0.000336229 0.000271065
0.0046268 0.000276148 7.0537e-05
9.47883e-05 0.00318746 -0.00140102
0.00443869 -0.000274574 0.000290269
0.00424602 -9.87181e-05 0.000244155
0.00447499 -0.000616776 0.000475241
0.00464658 -0.000406909 0.000143363
0.00465845 -0.000286769 0.000101639
0.00440679 -0.000303699 0.000315423
0.00405584 -0.000613189 0.000248628
0.00461523 -0.00042088 4.79719e-05
0.00462645 -0.000317306 -2.50254e-05
0.00437693 -0.00024261 0.000292561
0.00467976 -0.000293115 0.00012801
0.00443006 -0.00111294 0.000174374
0.00469967 -0.000265601 0.000359806
0.00467402 -0.000271049 0.000122118
0.00469382 -0.000166148 -0.000163316
0.00452616 -0.000734562 0.000480483
0.004918 -0.000384371 0.000368039
0.00461236 -0.000285454 0.00012464
0.00442425 -0.000226166 0.000309169
0.00466523 -0.000299696 0.000128343
0.00447645 -0.00124219 0.000966373
0.00472592 -0.000719452 0.000331741
0.00472649 -0.000255459 8.15421e-05
0.00420564 0.000143553 -0.000381396
0.00455404 -0.000229708 6.8964e-05
0.00435864 0.000286584 -0.000266712
0.00474432 0.000427828 -0.000299075
0.0047791 -0.000275355 0.000319409
0.00464401 -0.000416283 0.000155992
0.00463487 -0.000405543 0.000150264
0.00466102 -0.000323597 0.000140728
0.00460481 -0.000407659 6.56386e-05
0.00456844 -0.000118452 -0.000113183
0.00454849 -0.00010349 8.13067e-05
0.00478293 -0.000428219 0.000398862
0.00454836 -0.000352425 0.000420896
0.00470736 -0.00089449 0.000242656
0.00471009 -0.000248613 0.000341591
0.00462345 -0.000354329 0.000148258
0.00479327 4.39472e-05 0.000234111
0.00456262 -0.000375391 0.000212212
0.00444215 -0.000226336 0.000279277
0.00467208 -4.50065e-05 0.00020585
0.00451503 -0.00029446 0.000121675
0.00516009 0.000253231 -0.000355416
0.0042981 -0.000210608 1.90554e-05
0.00495428 -0.000177674 -4.15192e-05
0.00602368 0.00448297 -0.00291938
0.00449286 -0.000990193 0.000315349
0.00584809 0.00433159 -0.00302919
0.00369024 -0.000473072 0.000198563
0.00453036 -0.000391555 0.000224898
0.00467367 -0.000317278 0.000216937
0.0046449 -0.000409481 0.000136862
0.00465974 -0.000290204 0.000107841
0.0048021 -0.000152337 2.26183e-05
0.00470568 -0.000985691 0.00106346
0.00414796 -7.64696e-05 0.00013933
0.00461617 -0.000264494 9.4378e-05
0.00416206 0.000294149 -0.000536994
0.00448669 -9.37111e-05 7.85133e-05
0.0046472 -0.000273528 0.00012312
0.00446936 -0.000109923 0.000293126
0.00464157 -0.000334664 0.000141284
0.00472617 4.72657e-05 0.000236992
0.00411746 0.00181484 -0.000904562
0.00461129 -0.000403288 0.000201262
0.00446618 -0.00010216 8.1935e-05
0.00444837 -0.000131966 8.87792e-05
0.00449221 -0.000316905 0.000263475
0.00444493 -0.00042331 0.000232317
0.00470389 -0.000268932 0.000122652
0.00470062 -0.00028664 0.000193968
0.00461653 -0.000429225 -2.74911e-05
0.00477722 -0.000546032 0.000303158
0.00456873 -0.000372178 0.000186412
0.00466986 -0.000294992 0.000123814
0.00421736 -0.000454924 0.000138422
0.00453724 -0.000518821 0.000294329
0.00457112 -0.000352967 0.00016076
0.00473104 -0.00128406 0.00054455
0.00466163 -0.000310497 0.000131263
0.00464964 -0.000289285 0.000108019
0.004619 -0.00035551 0.000142375
0.00468164 -0.000798797 0.000237299
0.00434837 -0.000287874 0.000308599
0.00464038 -0.000346056 0.000148017
0.00470191 -0.000757426 0.000453859
0.00469743 -0.000269097 5.55435e-05
0.00460237 -0.000336512 0.000132691
0.00449296 -0.000948293 0.000128749
0.0046406 -0.000391778 0.000158701
0.00463967 -0.000389103 0.000150038
0.00442773 -7.71929e-05 3.56093e-06
0.00431443 -0.000291973 0.000306385
0.00450146 -0.00026537 -8.99863e-05
0.00449824 -8.0178e-05 7.61424e-05
0.00440662 -0.000234058 0.000311471
0.00462558 -0.000275928 9.59052e-05
0.00438955 -0.000368319 -6.18352e-05
0.00445062 -0.000187991 4.79638e-05
0.00431079 -2.2961e-05 0.000107734
0.0044504 -0.00118601 0.000427492
0.00435991 -0.000160358 -5.53944e-05
0.00450333 -7.62383e-05 7.51584e-05
0.00463694 -0.000330868 -8.81591e-05
0.00430827 -0.000328958 -2.4937e-05
0.00468675 3.8392e-05 0.000517337
0.00445701 -0.00144604 0.000371369
0.00448179 -6.37956e-05 7.08683e-05
0.00465725 -0.000264233 9.40057e-05
0.00429619 -0.000377901 -2.32498e-05
0.00448724 -0.000117279 9.08579e-05
0.00416281 0.000121941 0.000127915
0.00455695 0.000364055 -0.00475927
0.00562421 0.00444979 -0.00269221
0.0040269 -0.00161575 0.00367984
0.00446803 -9.75549e-05 7.61226e-05
0.00450937 -8.11071e-05 -0.000185444
0.00513782 0.000190318 -0.000461509
0.0042615 -0.000250207 5.04342e-06
0.00442133 -0.000216028 0.000301812
0.00426494 -0.000395027 3.29475e-06
0.004365 -0.000182745 -0.000175162
0.0047971 -0.0009293 0.000302706
0.00461951 -0.000276267 8.33873e-05
0.00382429 -0.00109162 0.000860025
0.00452375 0.000216178 0.000253714
0.00436529 -0.00010752 5.99618e-05
0.00443456 -0.000212349 0.000289349
0.00467886 0.000257352 0.000115205
0.00466058 -0.000231971 5.96653e-05
0.00443374 -0.00021245 0.000306177
0.00471453 -6.42731e-05 0.000168108
0.0045125 -0.000333129 -4.90922e-05
0.00462412 0.000247735 -0.000510164
0.0043821 -0.000249758 0.000273757
0.00445515 -0.000129781 9.00163e-05
0.0036696 -0.00344314 0.00352342
0.00367123 -0.00277941 0.00362759
0.00441674 -0.000129836 9.38195e-05
0.00461855 -0.000376265 0.000145194
0.00451376 -0.000106508 8.26822e-05
0.00449147 -0.000142732 8.81883e-05
0.00461711 -0.000264985 0.000120392
0.00458939 -0.000363423 -6.14608e-05
0.00467052 -0.000308841 0.000125404
0.00451157 -0.000107522 8.31579e-05
0.00460997 -0.000267494 0.000120228
0.00456258 -0.000101604 8.10706e-05
0.0044456 -6.77868e-05 7.30242e-05
0.00446922 -0.00104768 0.000102752
0.00486011 -0.00224134 0.00140105
0.0044442 -0.000174689 9.57848e-05
0.00459928 -0.000433598 -5.94614e-05
0.00459069 -0.000380055 -7.01638e-05
0.00462976 -0.000413812 0.000102863
0.00445117 -0.000167308 9.39087e-05
0.00448276 -9.53968e-05 7.44672e-05
0.00455734 -0.000317129 -1.25883e-05
0.00420502 -0.00128724 0.000185362
0.00449424 -5.76504e-05 -0.00019258
0.00451043 -6.85307e-05 7.90231e-05
0.0043868 -0.000334969 -7.38292e-05
0.00454152 -0.000134845 -0.00012467
0.00457482 -0.000406748 -7.80797e-05
0.00447758 -9.10455e-05 7.7375e-05
0.00443576 -8.37946e-05 6.56844e-05
0.00464515 1.53737e-05 -0.000170669
0.00402038 -0.00167732 0.000353272
0.00434283 -0.000273138 0.000343646
0.00451937 -0.00128799 0.00048648
0.00513444 0.00328592 -0.00345287
0.00445649 -0.00041135 -4.61154e-05
0.00437478 -7.15694e-05 6.79413e-05
0.00543049 0.00444674 -0.00263558
0.00444932 -0.000128884 0.000135765
0.00423686 -0.00274118 0.000912305
0.00448979 -0.000148107 0.00020526
0.00437078 -0.000113709 0.000157856
0.00462897 -0.00106172 0.000321543
0.0043178 -0.00116328 0.000289624
0.00332402 -0.00173986 2.12144e-05
0.00404075 -0.00187668 -0.000946529
0.00468112 -0.00109488 0.000323974
0.00533026 0.00102983 -0.00436154
0.00463215 -0.000258948 8.64017e-05
0.00440719 -0.00015057 0.000242226
0.00439853 -7.15989e-05 0.000134776
0.00411048 -0.00094921 0.000872263
0.00363785 -0.00137903 0.000339807
0.00404638 -0.00174941 0.000410202
0.00438293 -9.743e-05 -0.000200916
0.00450208 -0.00149589 0.000477792
0.00520652 -0.00155941 0.000581976
0.00435656 -0.000174326 0.000130531
0.00426318 -0.000280013 -5.81819e-06
0.0045808 -0.000284605 -9.2739e-05
0.00437182 -0.000270349 0.000376822
0.00456337 -0.00115977 0.000323204
0.00443867 -0.000217208 0.000295376
0.00429274 -0.000187323 2.164e-05
0.00472228 -6.82139e-05 0.000452589
0.00510882 0.000136513 -0.00473123
0.00518352 -0.000855638 0.000530175
0.00446421 -0.000105459 0.000137877
0.00444449 -0.00020344 0.000284013
0.00464121 -0.000427061 -0.000117416
0.00469408 4.25612e-05 0.000505767
0.00460854 -0.000471702 0.000111448
0.00418246 -0.00108377 0.000222082
0.00437778 -0.0012326 0.000449809
0.00498607 -0.00114225 0.00108012
0.00462877 -4.39995e-05 0.000492756
0.00473823 -0.00168751 0.000879377
0.00448301 -7.99519e-05 0.000296644
0.0046034 -0.000305777 -7.9565e-05
0.0041138 -0.000314952 6.99713e-05
0.00448717 -0.000382679 -3.77459e-05
0.00402702 -0.00123316 0.000321292
0.00453672 -0.000154397 -7.79028e-05
0.00431351 -0.000276725 -6.55723e-06
0.00437382 -0.000139522 -0.000141862
0.00465292 -0.00117304 0.000165448
0.00448195 -0.000121869 5.87398e-05
0.00447969 -0.000152466 -0.000225921
0.0043488 -0.000108067 6.64923e-05
0.00457502 -0.00151986 0.000624841
0.00452153 -0.00103029 0.00093518
0.00436011 -0.000170953 0.000111091
0.00515031 -0.00143748 0.000564759
0.00471071 -0.00096342 0.000211639
0.004764 -0.00102428 0.000377142
0.00455848 -0.000722431 0.000352124
0.0043578 -9.51625e-05 -0.000118933
0.00437889 -0.00117291 0.000313955
0.00439366 -7.77576e-05 0.000298628
0.00425917 -0.000329643 -5.39591e-07
0.00398716 -0.00138181 0.000346288
0.00395301 -0.00138719 0.000385427
0.00394341 -0.00136445 0.000370466
0.00363275 -0.00424695 -0.000531537
0.0041631 -0.00100411 0.000274571
0.00440779 -0.0015634 0.000403047
0.00456496 -0.000532424 0.000214221
0.00222898 0.000324382 8.49898e-07
0.00333436 -0.00246483 -0.00147485
0.00430554 -0.000358289 0.000292947
0.005546 -0.00126469 0.00102829
0.00459993 -0.000328286 0.000207182
0.00366923 -0.00224185 -0.000737323
0.00470814 4.10821e-05 0.000508448
0.00442658 -0.00014523 0.000188729
0.00442099 -0.000276056 0.000289086
-0.00407145 0.00743135 -0.00606926
0.00447155 -0.000220223 0.000321097
0.00432623 -0.000228194 0.000296499
0.00565707 -0.000849948 0.00077789
0.00509485 -0.0011207 0.00115746
0.00425065 -0.00112939 0.00029352
0.00485785 -0.0015018 0.00102032
0.00337844 -0.0024701 0.000484718
0.00460889 -0.00026743 0.000236806
0.00407165 -0.00131201 0.000337839
0.00431711 -0.00059999 -0.000726516
0.00471808 -0.000366691 0.000160661
0.00333186 -0.00168652 0.000260559
0.00129724 0.00230018 -0.00406889
0.00397846 -0.00119542 -0.00056131
0.00484176 -0.00113051 0.000848538
0.00390013 -0.00229979 -0.000883685
0.00477013 0.00651578 0.0128863
0.00533324 -0.00186469 0.00160678
0.00368379 -0.00169235 -0.000727729
0.00360413 -0.00161733 -0.000438095
0.00422243 -0.00225862 0.00133147
0.00381636 -0.00143637 -0.0006423
-0.0644911 0.0920163 -0.174443
0.00449165 -0.000197494 0.00028095
0.0043757 -0.000284833 0.000365407
0.0030915 -0.00229905 0.00212302
0.00423209 -0.00145066 -0.000131871
0.0044045 -0.00186178 -0.000873486
0.00457084 -0.000244191 0.000339745
0.00419629 -0.00132507 0.000318139
0.00432658 -0.000246684 0.000307392
0.00435847 -4.66707e-05 0.000376125
0.00444794 -0.000170351 0.000210346
0.00313336 -0.0016433 5.10962e-06
0.00455178 -0.000257882 -0.000457114
0.00473694 -0.00110064 0.000619458
0.00468028 -0.0020004 0.000921599
0.00425748 0.000538238 -4.26904e-05
0.00510421 -0.00120285 0.00100486
-0.000106977 3.25792e-05 4.33652e-06
0.00450181 -0.000902788 0.000226122
0.00396378 -0.00159402 0.000417237
0.00526242 -0.000914168 0.000404802
0.00449965 -0.0010693 0.000312169
0.0044992 -0.000422926 -5.13157e-05
0.00390664 -0.00161637 0.000360454
0.00439775 -0.000820881 0.000245697
-3.40584e-06 0.000117327 -0.000100702
0.00335282 -0.00169801 0.000365131
0.00176377 0.000303594 -0.00265146
0.00403697 -0.00125318 0.000358402
0.00451381 -0.000334 -2.11092e-05
0.00282508 -0.00170156 -0.000710854
0.00417534 -0.0011039 -0.00135936
0.00371387 -0.00138212 0.000361504
0.00329228 0.00078792 -0.000795898
0.00441522 -0.000977926 0.000270115
0.00524208 -0.00146252 -0.0137175
0.00433063 -0.00160966 0.000396072
0.00444494 -0.00184805 -0.000904718
0.00479501 -0.00110734 0.000367465
0.00399578 -0.00132329 0.000372522
0.0038203 -0.0017337 0.000410952
0.00431656 -1.75578e-05 0.00019495
0.00350736 -0.000838352 0.000226173
0.00469285 -0.000252003 0.000126741
0.00448547 -0.000145296 0.000240131
0.00382266 -0.00365951 -0.000460506
0.00360147 -0.00163003 -0.000722975
0.00316793 -0.00285407 0.000543531
0.00359642 5.94644e-06 7.84171e-05
0.00357494 -0.00214374 0.00155263
0.00424736 -0.00450054 -0.00885017
0.00518152 -0.000749527 0.000770815
0.00409704 -0.00158019 -0.000530017
0.00343462 -0.00128731 -0.000597631
0.00395794 -0.000832536 0.000779381
0.00399887 -3.54414e-05 0.00625857
0.00572496 -0.000906665 0.000758014
0.00422985 -0.00202436 -0.000906836
0.0037657 -0.00146649 -0.000627782
0.00432946 -0.000228628 0.000308318
0.00387398 -0.00205864 -0.000790159
0.00390842 -0.00151238 -0.000560386
-0.000341876 -0.00101422 -0.00153674
0.00373431 -0.00258585 -0.00135385
0.00458475 -0.00130063 0.000729129
0.00463641 -0.00110549 0.000197675
0.0033942 -0.00608069 -0.00132114
0.00366671 -0.00243343 0.0024538
0.00636217 -0.00146488 0.00116479
0.00522807 -0.00134467 0.00135169
0.00451541 -0.000247995 0.000321716
0.0381592 -0.0156771 -0.0312157
0.00510813 -0.000162726 -0.000438469
0.00513966 -0.000600861 0.000536129
0.011858 -0.0103246 -0.0238136
0.00455248 -0.000130602 0.000248999
0.00663283 -0.00125757 0.00104231
0.00345415 -0.00422177 -0.000527852
0.00502994 -0.000897884 0.000544548
-6.38715e-05 0.00149548 -0.00235472
0.00487069 -0.000524437 -0.000669775
0.00449321 -0.00103267 0.000224584
0.00536574 -0.00131863 0.000905336
0.00405998 -0.00185605 -0.000640377
0.00357252 -0.00424621 -0.000531241
0.0051822 -0.00139853 0.000671504
0.00475683 6.47756e-05 0.000450757
0.0044787 -0.000197957 0.000425554
0.00318955 -0.00141105 0.000303357
0.00372234 -0.000437228 0.000175255
0.00469005 -0.00380214 -0.000481017
-1.41021e-14 1.83956e-14 -1.92805e-13
0.0032958 -0.00163222 0.00033546
0.00340706 -0.00160176 0.000388997
0.00416763 -0.00122555 0.000227091
0.004227 -0.00161765 -0.000743975
0.0039163 -0.00143447 0.00035737
0.00325231 -0.00132134 -0.000503654
0.00358524 -0.00144304 0.000332915
0.00416946 -0.00136549 -0.000507121
0.00393084 -0.00161539 -0.00391282
0.00315162 -0.00165302 -0.00064647
-0.000800852 -0.0184364 -0.0270234
0.00340529 -0.00407637 -0.000509941
0.00251122 0.000158521 -0.00900403
0.00434441 -0.00101302 -0.00182496
0.00211916 -0.00587459 -0.0102783
0.00222399 0.000238358 1.90832e-05
0.00357048 -0.00424872 -0.000531529
0.00377057 -0.00179872 -0.000785717
0.00104978 -0.00231551 -0.00242481
0.00421807 -0.00191011 -0.00083556
0.00342034 -0.00200558 -0.000881266
-0.0152102 -0.0442469 -0.0698626
0.00174802 -0.000197691 -0.00412317
0.00388091 -0.000979887 0.000282869
0.00369136 -0.00427023 -0.000534557
0.00442924 -0.000228848 0.000299754
0.0040223 -0.0017931 -0.000612063
0.00139799 -0.000392756 -0.00109639
0.00549971 -0.00112058 0.000865665
0.00422603 -0.00178085 -0.000512528
0.00503157 -0.00125763 0.000962659
-0.00187488 -0.0231066 -0.0171965
0.00437964 -0.000231473 0.000325628
0.00427085 -0.000126312 0.00027545
0.00497672 -0.000999654 0.000222789
0.00456672 -0.00190101 -0.000520803
0.00442697 8.61457e-05 0.000371981
0.0046109 -0.00133514 0.000221986
0.00416995 -0.00111512 0.000901284
0.00435231 -0.00109431 0.00106341
0.00411505 -0.000959056 0.00085336
0.00486981 -0.00148359 0.00115759
-5.54e-06 9.48799e-05 -7.29134e-05
0.00522609 -0.00115365 0.000721621
0.00261494 0.000124278 -0.00202792
-5.13282e-15 6.69559e-15 -7.01767e-14
0.00477857 2.90493e-05 -6.17447e-05
-0.000104755 -0.0410898 0.0122332
-0.000468981 0.00174006 -0.00177667
0.00344966 -0.000164399 -8.61982e-06
-5.08872e-06 0.0211188 -0.00927404
0.0020594 0.0183625 -0.010029
4.79026e-05 0.000145388 -0.000571693
0.00602745 0.00312178 -0.00275253
2.65252e-05 -0.00034725 -0.00282915
-0.00112242 -0.000836469 -0.00215475
-0.00127713 -0.00135995 -0.00220348
0.00400352 -0.00181638 -0.000565811
0.00350444 -0.000449932 0.000312351
0.0050758 -0.00076923 0.000821459
-0.00517781 -0.0528119 -0.0872954
-2.95836e-05 -0.0101641 -0.0163614
0.0164101 -0.00713584 -0.0116856
0.00471136 -0.00142254 0.000316499
0.00181433 0.000645537 -0.00347789
0.0160323 -0.00309389 -0.0155422
0.00458041 -0.000718057 -0.000323002
-0.000530211 -0.00724384 -0.0207574
-3.68779e-10 0.0176732 -0.00699817
0.00496616 -0.000219986 0.000691557
0.00406453 -0.00165833 -0.000558348
0.00369739 -0.00180462 -0.000608937
0.00372388 -0.00162831 -0.000696741
0.00310259 -0.0629938 -0.156328
-0.0157999 -0.0742584 -0.0483497
0.00422293 -0.00159208 -0.00034364
-3.34806e-05 -0.000594883 -2.92264e-05
-4.53627e-15 1.50836e-14 -8.10777e-14
0.351376 0.109351 0.219563
-0.00272617 -0.000510676 -0.000681612
0.000192779 -0.00237332 -0.00166997
1.27465e-05 -3.19262e-05 2.67009e-07
4.67034e-05 -0.000847703 -0.00152816
-5.98099e-13 -3.54371e-12 -1.0814e-12
-0.0192511 -0.0485037 -0.0758086
0.00436639 -0.00129194 -3.34774e-05
-0.000491793 2.14674e-05 -0.000649255
0.00183049 -0.000746679 -0.00176413
-0.0202073 0.0311342 0.0479357
-0.0172963 -0.0483722 -0.0442317
4.87058e-05 -7.68678e-05 -0.000790209
-0.00488751 -0.0321364 -0.0150025
0.00729751 0.00236904 -0.00597387
-0.000595397 -0.000526599 -6.42912e-05
0.00464303 -0.00111458 -0.00249725
0.0199231 0.00172535 0.0702161
-0.0414506 0.00720263 0.027073
0.000111207 -0.000238288 -0.000378329
0.00424624 -0.00147043 -0.000234397
-0.00207824 -0.0118619 0.0190035
-2.4042e-09 0.0222544 -0.00495457
0.0 0.0 -0.0685876
0.00566971 -1.45387e-06 -0.00738354
0.0137537 0.0269368 -0.0252305
8.76456e-06 0.0629219 -0.0755184
0.038034 0.0265866 -0.120635
1.56488e-10 0.0228699 -0.000348669
0.0 0.0 -0.198295
0.0168063 0.000247941 -0.0247076
0.00292447 0.0129229 0.0298558
7.22382e-10 0.02026 -0.0109317
0.0046276 -0.00155882 0.000281188
0.0 -0.0 -0.03
-0.000158138 -0.000869656 0.00144397
0.0095006 0.0683801 0.00857807
-0.000410798 0.0390702 -0.0277895
-2.37225e-09 0.0221218 -0.00573187
0.0252945 0.0349035 -0.0507711
0.0 0.0 -0.213893
0.0 -0.0 -0.03
0.0 -0.0 -0.03
0.0 -0.0 -0.03
0.0 -0.0 -0.03
0.0 -0.0 -0.03
0.0 -0.0 -0.03
0.0 -0.0 -0.03
0.0 -0.0 -0.03
0.0 -0.0 -0.03
0.0 -0.0 -0.03
0.0 -0.0 -0.03
0.0 -0.0 -0.03
0.0 -0.0 -0.03
0.0 -0.0 -0.03
0.0 -0.0 -0.03
0.0 -0.0 -0.03
0.0 -0.0 -0.03
0.0 -0.0 -0.03
0.0 -0.0 -0.03
0.0 -0.0 -0.03
0.0 -0.0 -0.03
0.0 -0.0 -0.03
0.0 -0.0 -0.03
0.0 -0.0 -0.03
0.0 -0.0 -0.03
0.0 -0.0 -0.03
-3.25795e-05 6.21319e-05 -7.25885e-05
0.00162904 -0.00679123 -0.0124208
0.006709 0.00251699 -0.00499289
-0.00214858 -0.00826023 0.00105695
0.0 0.0 -0.175782
-0.010281 -0.0270253 -0.0487178
-0.00218255 -0.00475971 -0.00733912
0.0316519 0.0411569 0.0821066
0.000605416 -0.00882503 0.00101388
0.398157 -0.0541004 0.385283
0.000138528 0.00195667 -0.00158079
8.8058e-06 0.077353 -0.149007
0.0 -0.0 -0.03
0.0 -0.0 -0.03
0.0 -0.0 -0.03
0.0 -0.0 -0.03
0.0 -0.0 -0.03
0.0 -0.0 -0.03
0.0 -0.0 -0.03
0.0 -0.0 -0.03
0.0 -0.0 -0.03
0.0 -0.0 -0.03
0.0 -0.0 -0.03
0.0 -0.0 -0.03
0.0 -0.0 -0.03
0.0 -0.0 -0.03
0.0 -0.0 -0.03
0.0 -0.0 -0.03

VECTORS force float
-2.39788e-09 -1.80798e-09 4.27477e-10
7.61623e-09 5.00375e-10 2.79776e-09
6.08165e-10 -6.7596e-11 -5.06326e-10
-1.35932e-08 1.10586e-08 -1.02323e-08
1.7583e-09 5.28739e-10 2.50199e-11
-6.79155e-11 7.59555e-09 -1.06175e-08
3.0386e-09 1.09943e-09 -4.75603e-09
-1.11125e-10 -8.68298e-09 3.04009e-09
1.92002e-09 3.89994e-09 -8.54125e-09
3.20728e-10 -3.50463e-10 4.69729e-10
-8.27384e-12 -2.61398e-11 2.718e-11
2.57241e-09 1.83392e-09 -1.34659e-09
5.30762e-09 -7.90742e-09 9.87403e-09
-7.38986e-09 -5.89228e-09 3.50176e-09
9.5901e-10 -2.31774e-10 9.40845e-10
-7.0682e-10 -5.86128e-10 1.53765e-11
6.3159e-09 9.09089e-09 -4.69679e-09
5.85684e-09 -4.59808e-09 1.48777e-10
-9.23666e-10 -4.24535e-10 9.25953e-11
5.4381e-10 -5.84029e-10 -4.64047e-10
4.04771e-08 -2.36797e-08 1.84603e-08
-5.87517e-09 1.2255e-08 -4.86793e-09
1.99598e-08 -1.83744e-08 9.58915e-09
1.07618e-08 3.85924e-09 -9.31891e-09
-2.09929e-09 -3.08066e-11 4.8198e-10
6.32734e-10 2.03836e-10 -6.50509e-10
-4.00371e-09 4.21601e-09 -4.69027e-09
2.52645e-08 -1.53742e-08 4.37491e-09
3.32352e-08 -2.2232e-08 1.12219e-08
9.03946e-10 5.59378e-10 -8.62202e-10
5.3102e-09 6.07106e-09 -9.65189e-09
2.42715e-09 2.12999e-09 -9.82442e-10
1.58947e-08 -2.19172e-08 9.35714e-09
-7.66063e-09 -2.1029e-08 8.58973e-09
-3.08725e-09 1.03348e-08 -3.66972e-09
1.92536e-09 1.9877e-10 2.02765e-10
-6.49992e-10 6.25216e-10 -4.89525e-11
-1.11458e-09 -1.5525e-11 -1.60181e-10
-1.02351e-08 -1.70788e-09 1.25351e-08
-1.09504e-08 1.31966e-08 -1.40174e-08
-1.15878e-08 -6.52139e-09 9.99654e-09
2.07486e-09 -7.75985e-10 3.66593e-10
9.0066e-09 -9.5801e-09 -1.65121e-09
7.93217e-10 -3.28226e-10 1.15923e-09
6.01385e-10 3.31828e-10 -8.80117e-09
-3.91552e-08 8.17114e-09 -1.93364e-08
-1.0048e-08 1.0139e-09 -1.23332e-09
4.51139e-10 -3.00671e-10 6.149e-11
1.47496e-10 7.83158e-09 1.13527e-09
-5.29015e-09 5.11483e-09 -1.61434e-09
-2.58629e-09 -1.68754e-08 5.73163e-09
-3.84608e-10 -2.02479e-08 1.07017e-08
2.37794e-09 -4.74014e-09 -5.20323e-09
-1.94808e-10 -2.07599e-12 4.70733e-11
-2.95765e-09 -4.64042e-09 3.54585e-10
3.82647e-09 -8.36515e-09 1.27334e-08
3.80249e-09 -2.27412e-08 1.34113e-08
-4.52665e-08 -1.83376e-08 3.29114e-08
8.5104e-09 7.12695e-09 -5.73661e-09
3.59142e-09 -1.06314e-08 2.61514e-09
-1.76765e-09 -1.757e-09 1.2993e-09
-9.48639e-09 1.16284e-08 -1.20995e-08
1.11905e-08 7.62821e-09 -1.4704e-09
1.2569e-08 -2.48522e-08 1.25222e-08
1.02801e-08 6.21994e-09 -3.42652e-09
-6.0544e-10 8.53949e-09 -6.54077e-09
5.47654e-10 -1.21912e-08 6.21585e-09
1.39142e-09 -2.93847e-09 1.10833e-08
5.69764e-09 -7.41613e-09 5.32226e-09
8.2849e-09 -5.53813e-09 -4.51977e-09
-3.73061e-09 -1.50538e-08 9.7803e-09
1.35813e-08 -5.93397e-09 -1.17204e-09
1.29685e-10 5.93482e-10 -2.33469e-10
-7.30655e-09 -2.80869e-09 7.94965e-09
-3.55955e-10 -1.16132e-10 3.97352e-10
2.6774e-08 1.02019e-08 -6.10987e-08
5.58182e-09 1.54827e-08 -2.4472e-09
2.56462e-09 1.51576e-09 -8.15016e-09
-2.93012e-09 -1.44573e-09 1.29991e-09
-2.36796e-09 8.79717e-09 -1.2024e-08
3.35748e-08 -1.43312e-08 6.75549e-10
1.97292e-10 -1.26265e-08 5.0988e-09
-4.18158e-09 -1.87097e-10 1.14693e-09
-4.25713e-09 4.58609e-10 -1.63276e-08
5.76167e-10 4.22047e-10 -3.86315e-11
-9.05547e-10 -1.12711e-09 -4.36208e-09
2.48006e-08 -1.21654e-08 -1.85415e-09
-5.73154e-10 -9.90262e-12 -3.04833e-10
3.29644e-08 -3.69607e-08 2.18129e-08
5.86595e-11 -1.74576e-09 1.7038e-09
-1.50215e-09 -1.448e-09 1.50125e-09
-6.79713e-10 -2.03404e-09 2.59854e-09
2.61027e-08 -9.53339e-10 1.44579e-09
2.26626e-08 -1.28144e-08 6.65103e-09
-2.80967e-09 -2.69787e-09 6.93895e-10
1.00231e-10 1.81096e-09 -4.78393e-10
-1.4164e-08 7.09752e-09 -4.77622e-09
1.03786e-08 -1.39282e-08 -9.9432e-10
-6.13197e-09 -3.58669e-09 2.15075e-09
6.31678e-10 -6.2742e-10 6.78088e-11
-2.10361e-09 1.29849e-09 -4.19188e-10
-4.51622e-09 -5.31956e-09 5.80475e-09
1.89029e-08 -1.2702e-08 -7.03564e-09
-6.6227e-10 -4.23092e-10 1.40748e-09
1.80451e-08 1.08229e-08 3.42383e-09
-6.10012e-10 1.11603e-08 -8.38814e-09
2.46995e-09 -5.48739e-10 1.15443e-09
2.3548e-09 -6.09933e-10 9.37513e-10
6.06025e-09 7.88701e-09 -1.3385e-08
4.17862e-09 2.07822e-09 -1.72149e-08
3.42867e-08 -1.18069e-08 -2.44997e-09
-1.48243e-09 -1.63347e-10 1.46224e-09
2.34657e-08 -2.61157e-08 -3.8758e-09
1.83765e-09 5.58718e-09 -1.05431e-08
-2.63397e-09 -1.28609e-08 -2.8308e-09
-2.24264e-10 -1.17922e-09 1.07773e-10
1.58625e-08 1.4973e-09 -6.27573e-10
3.99732e-09 1.91622e-09 -1.00562e-09
-3.13366e-09 -1.84258e-10 2.40367e-08
4.87422e-09 -6.42926e-09 1.45133e-08
4.59107e-08 -6.7412e-09 -2.57047e-08
-2.30744e-08 6.86889e-09 5.02895e-08
-1.23878e-09 -1.52942e-09 -1.68743e-09
1.23417e-09 -1.99644e-09 7.40452e-10
-1.93325e-09 -1.93473e-09 7.66216e-10
-8.50913e-10 -1.70277e-09 2.13783e-09
-7.37897e-09 -4.94368e-10 8.12331e-10
-4.3384e-09 -1.91312e-08 5.95543e-09
-6.70145e-10 -6.9221e-10 -7.29971e-10
8.20461e-10 -6.04223e-11 5.33915e-10
-1.45668e-10 5.36565e-10 -1.20284e-10
3.91489e-08 -1.29296e-08 1.73628e-09
4.01647e-10 2.70827e-10 -7.82893e-10
2.08341e-08 -1.29423e-08 -1.92309e-09
-1.56571e-09 -1.35366e-09 6.32233e-10
1.38619e-09 -3.19473e-10 -1.62511e-11
1.2294e-08 -9.95784e-09 1.00503e-08
-3.79436e-10 -9.30452e-11 -2.27017e-10
4.36542e-10 1.22376e-09 -1.9415e-10
-5.54985e-09 -5.65976e-09 1.10441e-09
-1.37478e-09 -1.23324e-08 6.69529e-09
-5.0859e-09 6.95295e-09 -8.84433e-10
-2.52338e-09 -3.23456e-09 4.72226e-10
-9.96463e-10 -6.00115e-12 4.13254e-11
4.79298e-11 -8.21097e-10 3.63192e-11
1.31093e-08 6.98128e-09 -2.58574e-08
1.8758e-08 -9.31849e-09 -2.71094e-10
-2.38537e-09 -2.30857e-09 2.41054e-09
-6.22566e-09 -9.27436e-09 8.781e-10
-1.96519e-09 -1.57431e-09 -1.74802e-09
9.85863e-09 3.04906e-09 -3.10526e-10
-1.11039e-09 -2.63902e-09 3.36161e-09
7.27002e-09 -1.17839e-08 -2.78424e-08
2.34146e-10 4.9782e-10 -1.11697e-10
-8.20819e-10 -6.19073e-10 1.50329e-10
3.39429e-09 8.2333e-11 -2.46601e-10
1.05854e-09 -4.38696e-10 -9.47291e-10
-4.06764e-09 7.07768e-09 -6.75565e-09
3.50016e-10 1.21636e-10 1.15496e-10
2.22411e-08 -1.45734e-08 3.39363e-10
-5.55418e-09 -1.41613e-08 7.64592e-09
2.5033e-09 -1.30494e-08 8.76256e-10
-1.07747e-10 2.93466e-10 -8.28754e-10
-1.60694e-09 -6.27141e-10 7.25381e-11
-6.49505e-09 9.82185e-09 -6.21699e-09
5.01714e-10 -9.40882e-11 -5.19298e-10
-8.39358e-09 -2.2035e-08 9.97971e-09
-4.24226e-10 2.59657e-09 -4.91872e-09
1.03648e-08 -2.12624e-09 2.07567e-10
-6.59192e-10 -1.68225e-10 7.59391e-11
1.99103e-09 1.06063e-09 4.39071e-10
-8.39514e-09 -5.83292e-09 -1.20362e-08
-3.69461e-10 -2.66297e-09 4.28544e-10
-2.97778e-09 1.13134e-08 -2.24381e-10
1.74552e-09 -4.24907e-09 -1.80217e-08
1.63468e-08 -1.71739e-08 1.02301e-08
7.50586e-10 -1.63831e-09 -1.24026e-09
-4.32081e-09 -8.42057e-09 4.11419e-09
-3.21671e-10 -7.747e-10 2.10351e-09
6.69785e-10 5.43153e-10 1.01446e-09
4.8455e-09 5.48379e-09 -7.03356e-09
-4.55503e-08 -2.01345e-09 5.20198e-09
-3.38065e-09 2.23229e-09 -1.34956e-09
1.77786e-09 2.4423e-09 -1.80186e-09
2.06143e-09 1.85091e-09 -2.26729e-09
4.30743e-10 -2.44996e-10 3.68494e-10
1.75909e-10 -8.99211e-10 1.56371e-10
1.00758e-09 -2.4997e-10 -1.41811e-09
-1.23922e-09 -8.13443e-10 8.02157e-10
-2.09078e-09 5.61769e-09 -6.05555e-09
6.24101e-10 2.65253e-09 -1.58282e-08
1.75014e-10 5.34956e-10 -6.5324e-11
1.86398e-09 3.21942e-09 -3.0629e-10
1.85272e-10 1.16552e-10 -7.61722e-10
1.58413e-09 -1.90797e-09 2.44002e-09
1.9973e-09 -3.99768e-09 4.15901e-09
2.55211e-09 2.12869e-09 -5.77088e-10
1.85967e-08 -6.31951e-09 -1.70735e-08
1.87308e-09 5.69784e-10 -1.49649e-09
2.3311e-09 1.14573e-08 2.65909e-09
8.3809e-10 -1.87123e-09 1.58371e-09
1.53458e-09 3.03984e-10 -8.96231e-11
1.94363e-08 3.88361e-09 -9.1159e-09
-9.94328e-09 -9.46074e-09 -4.57516e-09
1.69083e-09 1.08059e-09 -3.91325e-10
7.73876e-09 -4.16854e-08 2.14477e-08
2.64176e-10 -1.67785e-10 4.19049e-10
-1.67545e-10 -1.66408e-09 1.1468e-09
-4.51428e-10 -5.34238e-10 -1.03397e-10
-4.30495e-09 9.33761e-09 2.63601e-09
2.8637e-09 -1.10286e-10 1.85435e-10
2.31421e-12 -2.31142e-10 -7.657e-10
-7.96905e-09 -9.37249e-09 2.95848e-08
-6.26255e-10 -2.51886e-09 1.89771e-10
4.04462e-10 1.6083e-09 -9.17877e-10
-5.79841e-11 -1.5262e-08 -1.0576e-08
-8.51647e-10 4.10755e-10 -3.94177e-10
-4.22297e-10 4.63233e-10 -1.09676e-10
1.6365e-09 1.6467e-09 -4.0725e-09
-5.10277e-12 -8.98652e-10 -1.97677e-11
-1.75208e-09 3.41848e-09 1.05568e-09
1.58257e-10 3.08923e-11 -3.53124e-10
-1.04681e-09 -2.04684e-10 1.41402e-09
1.87919e-10 -2.22915e-09 1.92309e-09
-2.29176e-09 -2.07726e-10 -1.16639e-09
-6.61637e-10 1.73907e-09 2.14845e-09
-3.41302e-09 2.97003e-09 -3.14222e-09
-7.45069e-09 -3.81613e-09 8.88408e-09
1.04346e-08 -5.60095e-09 2.62299e-09
-8.30982e-10 9.84939e-10 -2.09446e-10
4.46318e-09 1.45805e-09 -7.59981e-09
2.94239e-10 6.46681e-10 -5.05696e-10
7.43785e-10 4.25425e-10 -8.53253e-10
6.10777e-09 9.72415e-10 2.42766e-09
6.52711e-10 -1.29999e-10 -1.18659e-10
1.1368e-09 -1.59893e-10 -1.87749e-09
1.01919e-09 7.03262e-10 -2.61376e-09
1.1276e-09 -2.21837e-09 4.28926e-10
-1.41214e-08 7.82387e-09 -4.64928e-09
-1.50048e-09 -1.59809e-09 -3.56494e-09
-4.03572e-09 2.96023e-09 -5.44653e-10
3.91412e-08 1.14015e-07 -5.91474e-08
-8.06444e-10 3.01315e-11 -1.97056e-10
-1.81894e-09 2.49666e-11 -2.66934e-09
-3.21064e-09 1.10245e-08 -8.33473e-09
4.70569e-10 -2.79797e-10 3.3488e-10
5.37291e-10 5.25319e-11 2.18504e-09
1.16025e-09 -2.43862e-11 8.79036e-10
-2.16424e-10 -9.04084e-10 -1.90034e-09
1.21951e-08 1.71761e-08 1.67237e-08
-3.06346e-09 2.31491e-09 -2.14127e-09
-8.24017e-09 1.51073e-08 -1.28912e-08
1.06493e-09 -1.77408e-09 -8.00012e-09
-5.16923e-09 -6.93462e-10 -1.20393e-09
-1.62955e-09 -2.48437e-10 1.47291e-09
-2.23171e-09 -9.92338e-10 -9.87472e-09
-3.06191e-09 -2.69288e-09 2.15422e-09
-2.16687e-09 -6.93658e-10 3.71618e-10
2.44339e-09 2.40334e-09 -1.27652e-08
-3.28607e-09 -2.45236e-09 1.42745e-09
2.76466e-09 7.93025e-09 -3.01827e-09
-4.01767e-09 5.0362e-10 1.04616e-10
2.6152e-09 -1.59185e-09 4.49846e-10
1.04007e-07 7.90037e-08 -1.12905e-07
1.13709e-07 -4.99775e-09 -2.91211e-07
-2.35878e-09 9.0435e-10 -3.43127e-10
-2.66038e-10 5.95616e-11 -2.01663e-10
-2.35699e-10 -1.6402e-09 4.94902e-10
-9.06566e-11 -8.39502e-10 1.19561e-09
-2.16068e-09 -1.95284e-09 2.46696e-10
4.2042e-09 -1.73044e-09 3.71909e-10
2.28924e-09 -1.06003e-11 3.69599e-10
-5.07613e-11 -1.45212e-09 5.60671e-10
-1.57704e-09 1.19256e-09 -1.21982e-09
4.21857e-09 1.0004e-09 -1.97052e-10
-1.07602e-09 -5.99429e-10 -3.09559e-10
6.79696e-10 4.41802e-11 -3.89727e-08
1.73658e-07 2.78221e-08 -5.44272e-08
2.75518e-09 -1.16716e-09 8.49141e-10
1.1125e-09 -1.48271e-09 1.0706e-09
3.50995e-09 -2.36223e-09 -4.93628e-10
3.21201e-10 -5.6562e-10 -3.7166e-10
2.50204e-10 7.44657e-10 1.19934e-09
-5.40683e-10 -4.95054e-10 1.21597e-10
2.80145e-09 -1.65181e-09 3.58953e-09
-6.33839e-09 4.12212e-09 -2.34077e-08
2.52724e-09 1.07396e-09 5.13963e-10
8.10121e-10 -1.93565e-10 -2.87046e-10
-3.02624e-09 2.87712e-09 -7.58606e-11
-3.08648e-09 2.48574e-11 4.85887e-10
-4.73624e-10 6.55138e-10 -1.34707e-10
2.31164e-09 1.44991e-09 -3.86632e-10
-7.07288e-10 2.53919e-09 -2.13737e-09
2.92859e-09 -5.26696e-10 -1.2554e-08
1.13503e-09 9.40168e-09 -1.88215e-09
1.60679e-09 -5.90539e-10 1.22195e-09
5.08474e-10 -3.20531e-08 -1.53957e-09
6.43313e-09 8.76523e-09 -1.10673e-08
1.11544e-09 -6.21461e-10 2.06591e-10
-1.98284e-09 3.82431e-10 -1.26778e-09
5.56923e-09 8.31053e-10 -1.00364e-08
2.54194e-09 1.20534e-10 -7.34124e-10
3.52612e-09 -3.48161e-09 5.6885e-09
-1.74767e-09 3.91351e-09 -3.27948e-09
1.66113e-09 -5.0041e-10 -2.42699e-09
2.59168e-08 2.51718e-09 8.46104e-09
-5.30715e-09 2.51572e-08 -2.26903e-09
2.37771e-08 -1.22975e-08 1.488e-08
-8.67169e-09 1.8572e-08 2.88478e-08
5.0454e-10 3.72811e-09 1.26764e-09
2.92561e-09 -8.9074e-10 -1.56578e-08
2.92943e-10 -8.00863e-10 1.09392e-09
2.44199e-10 1.36412e-10 -4.67631e-09
1.8645e-09 1.87073e-09 -2.17687e-09
1.24068e-09 1.71524e-08 -2.23071e-08
7.23894e-09 -3.56443e-08 2.47032e-09
-4.742e-11 -3.62638e-10 7.27675e-11
1.91592e-09 1.28525e-09 -2.85876e-09
1.38087e-08 -2.51589e-08 1.03814e-08
-1.04239e-07 -3.74009e-08 4.74818e-08
5.33985e-10 1.70357e-10 -1.00013e-09
1.64898e-09 -1.15338e-09 -4.41684e-11
-8.4387e-11 9.21951e-10 2.49043e-10
9.8551e-10 -3.64812e-10 1.73386e-09
5.66724e-09 2.70363e-08 -5.11583e-09
7.52889e-10 2.4389e-10 1.52003e-09
-4.9145e-10 -4.71871e-10 -1.85379e-09
1.6327e-10 -1.22629e-09 -1.23895e-09
7.62975e-09 -2.1344e-09 -1.00947e-08
3.41338e-08 1.3047e-08 4.23271e-08
1.78294e-09 1.55275e-09 -2.8705e-09
-3.43628e-09 -3.46164e-10 9.89082e-10
-2.6704e-08 4.45874e-08 -8.61331e-09
2.11926e-09 6.87895e-10 -1.23723e-09
-5.00717e-11 -1.11711e-09 -4.22734e-10
2.00819e-09 1.71697e-08 -1.94933e-09
-3.08331e-09 7.66305e-09 -3.65107e-09
-4.55523e-08 -3.44659e-08 8.42155e-09
-5.6537e-11 -7.14319e-10 -4.41802e-10
-8.15467e-09 -4.81364e-09 5.0796e-08
1.62049e-09 -5.35432e-10 -1.1949e-09
1.04593e-08 1.07658e-09 3.18366e-10
1.22158e-08 4.63634e-09 -1.43606e-09
2.93634e-09 -1.80666e-09 -2.30317e-10
2.0884e-09 3.34839e-09 -3.04564e-08
-6.27515e-10 5.23416e-09 3.62945e-09
1.2065e-09 -2.26013e-09 -7.79391e-10
9.83948e-10 5.91147e-10 1.41169e-09
2.38477e-08 2.67333e-08 -1.24358e-08
-1.76945e-09 -4.48012e-10 -9.1709e-10
3.57652e-10 1.04984e-09 -5.55999e-10
1.36039e-09 -1.20309e-09 -1.71591e-09
1.85779e-08 -3.74646e-08 2.68387e-08
2.18537e-09 2.38015e-09 -1.57277e-08
1.05416e-09 9.9635e-10 -5.53097e-09
6.25773e-08 -2.33219e-08 1.05639e-08
2.90987e-08 -5.59139e-09 2.47353e-08
3.48248e-08 -6.61255e-08 2.43562e-08
2.14454e-08 -2.87835e-08 5.06862e-08
-2.20482e-09 -5.95656e-10 8.93987e-10
-1.7257e-08 1.5434e-08 -1.36861e-09
-1.10467e-09 -1.85927e-09 -2.18524e-09
1.8508e-09 -8.29111e-10 -1.48922e-11
7.15713e-09 1.35306e-08 -2.9216e-09
9.64719e-09 -1.42316e-09 3.23571e-10
1.54736e-08 3.93099e-09 3.4918e-09
-7.55753e-12 1.43674e-11 1.85529e-12
-5.23687e-09 1.55855e-08 -2.76159e-09
2.26273e-08 4.23381e-09 3.94345e-09
3.72109e-08 -5.98418e-08 2.68354e-08
1.07704e-08 5.09826e-09 -1.55825e-09
0.0 0.0 -3.8832e-08
8.66215e-10 1.08088e-09 2.73933e-09
4.38024e-09 9.64126e-09 -4.13695e-08
4.00538e-09 -1.25582e-09 -6.42633e-10
-4.14731e-09 1.96696e-09 -1.78885e-08
1.02645e-09 3.43292e-10 -1.73912e-09
1.95219e-09 1.59643e-09 -3.57439e-09
-1.05522e-09 1.99584e-10 1.08042e-09
0.0 0.0 -3.8832e-08
7.01199e-10 -4.48932e-10 6.07954e-10
6.26989e-10 -1.97086e-09 4.83152e-10
-2.45997e-08 1.19281e-08 -1.24087e-09
-1.05277e-08 1.38102e-08 9.23427e-09
4.42102e-09 -7.9846e-10 3.90594e-09
1.84451e-08 -1.43782e-07 1.12116e-07
-1.71817e-08 1.8616e-08 -1.6306e-09
-2.57361e-10 8.24704e-10 4.57108e-09
2.79485e-09 1.53946e-08 -5.7639e-09
-1.73596e-09 -6.37994e-11 -3.52143e-09
2.07058e-09 -1.21877e-09 -2.09068e-10
3.19802e-08 -2.26749e-08 -2.79575e-09
-9.09445e-09 1.13122e-08 -2.32366e-08
-6.33331e-09 -2.99691e-09 1.7366e-09
2.47314e-08 -2.91477e-09 1.33984e-08
3.57699e-09 -8.26685e-09 4.03645e-09
1.5866e-07 -1.04046e-07 1.67356e-08
-2.64346e-08 4.02431e-08 -8.28291e-08
-4.22863e-08 5.75289e-08 1.22079e-08
1.08892e-08 1.77628e-09 -5.60077e-09
-2.19018e-08 5.69863e-08 -6.09373e-08
1.9958e-09 2.19605e-08 1.49234e-08
0.0 0.0 -3.8832e-08
-5.41322e-09 1.93486e-08 1.06832e-08
-2.51158e-09 1.25217e-09 1.77362e-09
-3.13462e-08 5.90866e-08 -6.32894e-08
1.64439e-08 -8.85786e-09 6.64995e-09
2.78581e-08 1.16285e-08 1.66182e-08
9.37243e-10 -5.57737e-10 -3.15138e-10
-9.59709e-09 1.91803e-08 -3.39329e-09
6.20174e-10 -1.41176e-09 1.86918e-09
-3.39595e-09 2.833e-09 9.75585e-10
-2.31251e-10 6.65082e-10 -4.2412e-09
1.00836e-08 1.63338e-08 -1.19799e-08
-9.3245e-08 -1.25167e-07 2.88169e-08
5.48452e-09 -1.95242e-09 -1.9497e-10
-8.7652e-09 2.34698e-08 5.9148e-08
-2.19442e-09 -1.21489e-09 8.33747e-10
-8.92676e-09 1.75895e-08 -4.37383e-09
-5.93113e-10 3.03002e-09 1.73467e-09
1.17111e-08 1.23531e-08 -1.30322e-09
6.92064e-09 -5.55899e-09 -5.5185e-09
-3.88771e-08 -7.79324e-08 1.01788e-09
1.99972e-09 3.31233e-08 -5.37768e-09
-1.5199e-09 -2.37024e-09 -1.27873e-09
7.86126e-09 1.041e-08 2.48311e-09
1.81761e-09 -1.50209e-08 7.36176e-09
9.00332e-10 2.44314e-10 -6.34603e-11
1.39171e-08 5.81232e-09 -9.27523e-09
0.0 0.0 -3.8832e-08
1.04755e-08 -2.06769e-09 9.75048e-09
5.11718e-09 -1.47712e-09 -3.4322e-10
3.34329e-08 1.62132e-08 6.0839e-09
0.0 0.0 -3.8832e-08
2.28941e-08 -5.31152e-09 -1.00788e-09
-9.58092e-09 8.27375e-09 -1.01197e-09
1.21596e-10 2.05389e-08 -1.33094e-09
0.0 0.0 -3.8832e-08
-2.84727e-12 1.41743e-08 -2.83807e-09
5.24579e-08 -1.7107e-08 -4.34832e-09
1.26147e-08 1.15786e-08 -1.54808e-09
1.29018e-08 -8.77313e-09 5.02063e-09
1.36536e-08 -3.69636e-09 -7.61008e-09
2.83341e-09 5.17634e-10 4.92063e-10
-1.48473e-08 1.5511e-08 -6.50485e-10
-1.11645e-09 -4.30052e-09 -9.4653e-10
5.21149e-10 -8.46569e-10 -4.36912e-10
1.98265e-11 7.23944e-11 8.99132e-12
-4.0028e-09 1.35433e-08 6.12484e-09
-2.37685e-09 2.55952e-09 -3.21855e-09
-6.37991e-09 3.39479e-09 3.17043e-10
-1.01555e-07 -7.0326e-08 4.32671e-08
-8.55761e-10 -1.23135e-08 -2.12676e-08
-1.04563e-10 2.97174e-09 -3.42072e-08
8.70267e-09 -1.25351e-08 7.9015e-09
1.34602e-08 -1.05656e-08 6.7781e-09
1.63738e-07 -2.43873e-07 2.91242e-07
-1.10407e-07 -1.97e-07 2.14221e-07
-1.2908e-08 -1.2665e-09 1.22779e-08
-5.95483e-09 6.4957e-10 1.94854e-11
-1.17237e-08 -2.42351e-09 -2.38806e-09
7.07059e-10 -1.05499e-09 3.07021e-10
-4.98446e-09 -3.82205e-09 -9.26362e-09
-9.5898e-10 -1.01403e-08 -7.60159e-09
6.05051e-11 6.00862e-10 9.14297e-10
-1.30118e-08 -1.27815e-08 -3.27639e-09
9.12155e-09 2.26448e-09 3.71383e-08
3.74807e-08 2.81207e-08 8.77423e-10
-1.82603e-10 -8.35694e-10 -1.4348e-10
-1.04073e-07 4.06949e-08 -4.153e-08
-1.46156e-08 1.39162e-08 -2.60048e-08
-3.35916e-09 4.04775e-09 -3.87713e-08
2.60049e-10 5.26898e-10 -9.24123e-10
0.0 0.0 -3.8832e-08
2.0615e-08 -6.73271e-09 -2.29459e-08
-4.86918e-08 -1.98941e-08 -3.37818e-08
4.68068e-09 -3.72523e-09 -2.47589e-08
-5.82361e-09 3.7234e-09 -1.16559e-09
-2.15474e-08 1.37936e-08 -1.11467e-08
1.91989e-11 6.22885e-11 1.5726e-11
1.66596e-08 -6.09726e-08 7.05608e-08
1.1563e-08 3.16121e-08 5.02727e-08
-2.91389e-10 -2.35201e-11 -3.87623e-08
-5.31164e-09 -1.82763e-08 -1.60326e-08
-1.13669e-07 -2.07706e-08 8.46257e-08
-8.97718e-10 -1.0853e-08 -9.66486e-10
4.18883e-11 6.76191e-11 9.4752e-12
-5.20725e-08 2.45038e-08 -1.08997e-08
-2.47815e-09 -1.56966e-09 -4.10837e-11
-1.13936e-10 -2.35519e-10 4.5841e-10
-9.06887e-09 2.21521e-08 -7.325e-09
4.80243e-10 -1.9928e-09 1.36225e-09
1.74563e-10 3.00797e-11 1.66884e-12
8.27181e-24 -1.65436e-24 0.0
-8.60176e-09 2.4332e-08 -6.29407e-09
3.08666e-08 -8.3438e-09 4.05469e-08
1.19195e-08 5.23364e-09 -1.29042e-09
-1.34871e-08 -4.75772e-09 -1.31735e-09
4.40641e-09 1.50406e-08 -3.56657e-09
3.8164e-08 3.44185e-09 -1.61093e-09
1.1336e-11 1.81616e-08 -1.21932e-08
2.68142e-08 8.31106e-09 -1.90288e-08
0.0 0.0 -3.8832e-08
6.82933e-09 1.25338e-08 -1.12482e-08
-1.81072e-09 -1.17904e-08 -1.74978e-08
-8.44722e-10 1.2967e-09 1.61704e-10
-6.37249e-09 7.26652e-09 -3.91552e-08
9.21077e-10 -2.09607e-10 -3.05335e-10
2.54362e-10 -6.14258e-09 -2.98376e-08
-1.50436e-09 8.24189e-09 6.99474e-11
-2.19789e-13 1.47656e-11 -3.50167e-12
6.35603e-09 -1.48727e-08 -3.68564e-09
0.0 0.0 -3.8832e-08
-5.1692e-09 -8.91301e-10 3.07447e-10
-1.32841e-08 -3.88158e-09 -4.31489e-09
-3.75506e-09 -8.3933e-09 -1.29904e-08
-7.17026e-09 5.45212e-09 -2.44082e-08
-3.1243e-09 -9.50945e-09 2.66022e-10
1.26015e-11 5.36009e-11 1.00604e-11
2.01744e-10 5.64172e-10 -1.53847e-09
1.08648e-08 8.39255e-09 -4.45104e-09
-9.13838e-10 3.2581e-10 3.34054e-10
-1.11352e-08 3.15051e-08 3.41643e-09
3.85001e-09 -4.69588e-09 -1.1289e-09
2.91704e-08 -7.4632e-09 5.13439e-08
0.0 0.0 -3.8832e-08
7.97653e-10 -8.02235e-11 -4.58733e-10
-6.25754e-10 -2.41124e-10 -2.73635e-09
0.0 0.0 -3.8832e-08
-2.63256e-08 1.34673e-08 6.2093e-09
-3.02125e-09 2.39662e-09 -4.00514e-09
1.39422e-08 4.50025e-09 -1.87302e-09
-9.75053e-09 1.56645e-08 -1.36624e-08
-3.62745e-08 1.52194e-08 -6.2148e-09
-1.21344e-08 2.36334e-08 -2.33419e-08
-1.86602e-08 7.53891e-09 -8.05097e-09
-1.05193e-10 2.04936e-10 -1.78181e-10
0.0 0.0 -3.8832e-08
-1.59722e-09 -2.94838e-10 1.80367e-09
-4.96308e-24 2.89513e-24 0.0
4.3611e-09 7.79478e-09 -2.82755e-08
0.0 0.0 -3.8832e-08
-8.03277e-09 -3.61767e-09 -3.19376e-08
2.73678e-08 -2.13585e-07 2.47869e-07
-1.35141e-11 3.76009e-10 -6.73792e-10
0.0 0.0 -3.8832e-08
3.98604e-09 -5.45143e-09 -1.10587e-08
-2.27903e-10 1.12389e-10 5.65924e-10
5.46508e-11 4.41794e-09 3.69414e-09
9.64085e-08 -1.57592e-08 7.40087e-08
2.0066e-09 -1.26938e-08 -1.76739e-08
2.20561e-09 -2.54365e-09 -9.87677e-10
-1.15705e-08 2.05653e-08 -2.32172e-08
-4.49096e-08 -4.51766e-08 3.45779e-08
3.47975e-09 -1.15919e-08 -2.05514e-08
-2.61683e-11 -2.58457e-10 1.93816e-11
0.0 0.0 -3.8832e-08
-1.84527e-10 -4.54034e-09 -2.12504e-08
-1.33608e-09 -2.37164e-10 2.20858e-09
6.40346e-10 -8.76271e-10 6.78497e-10
6.89183e-09 -1.9723e-09 -3.36435e-08
-6.55453e-09 -6.02781e-09 -2.70357e-08
-9.52079e-18 -1.2774e-10 -3.23156e-10
-3.25489e-08 -4.77199e-08 9.4567e-09
2.1489e-08 -2.51766e-08 -1.17838e-09
-2.85485e-09 -3.86853e-09 -2.11427e-09
2.40979e-09 1.00139e-10 -1.32868e-11
0.0 0.0 -3.8832e-08
0.0 0.0 -3.8832e-08
1.79835e-08 -1.15893e-09 -1.36947e-08
-1.49442e-11 2.49977e-10 2.78128e-11
-4.46678e-23 1.65436e-24 6.61744e-24
-2.02205e-05 -5.2479e-06 -1.07737e-05
-2.20394e-06 2.55521e-07 4.59251e-07
1.42478e-10 -5.24525e-09 -3.67817e-09
1.73059e-08 5.17162e-09 1.28397e-08
1.24677e-11 3.22416e-10 5.82402e-10
-5.25964e-17 -3.11631e-16 -1.03055e-16
5.04292e-09 -1.15371e-08 -2.07825e-08
5.84008e-09 -1.34024e-08 7.2742e-09
6.0917e-08 -5.51283e-09 3.78621e-08
-5.44803e-09 -1.72193e-08 -1.92201e-08
0.0 0.0 -3.8832e-08
-1.36948e-09 -8.02672e-09 -6.99433e-09
5.43529e-08 -1.3106e-08 -1.18774e-08
0.0 0.0 -3.8832e-08
0.0 0.0 -3.8832e-08
-3.73612e-09 2.04911e-10 -4.42625e-10
-1.36196e-06 2.37103e-07 8.38314e-07
0.0 0.0 -3.8832e-08
-2.61438e-05 5.00378e-06 1.69119e-05
-6.63572e-09 -7.82505e-09 -6.87872e-09
-6.69161e-09 -5.01775e-09 -5.45455e-09
0.0 0.0 -3.8832e-08
-3.59585e-17 -8.99137e-11 -4.09838e-10
0.0 0.0 -3.8832e-08
3.94971e-09 1.18096e-08 -2.55256e-08
-2.40958e-09 1.36028e-08 4.69046e-08
0.0 0.0 -3.8832e-08
0.0 0.0 -3.8832e-08
-1.49181e-15 -7.18608e-12 -4.20867e-10
0.0 0.0 -3.8832e-08
4.93137e-09 -6.33442e-09 -2.01564e-08
0.0 0.0 -3.8832e-08
1.16744e-17 -2.02838e-10 -3.72163e-10
6.51169e-09 7.7208e-09 -1.16584e-08
0.0 0.0 0.0
-5.86578e-11 -3.18831e-10 5.29429e-10
0.0 0.0 -3.8832e-08
-9.48134e-11 4.75874e-09 -4.9438e-09
-3.67706e-17 -1.04683e-10 -4.0732e-10
0.0 0.0 -3.8832e-08
0.0 0.0 -3.8832e-08
0.0 0.0 0.0
0.0 0.0 0.0
0.0 0.0 0.0
0.0 0.0 0.0
0.0 0.0 0.0
0.0 0.0 0.0
0.0 0.0 0.0
0.0 0.0 0.0
0.0 0.0 0.0
0.0 0.0 0.0
0.0 0.0 0.0
0.0 0.0 0.0
0.0 0.0 0.0
0.0 0.0 0.0
0.0 0.0 0.0
0.0 0.0 0.0
0.0 0.0 0.0
0.0 0.0 0.0
0.0 0.0 0.0
0.0 0.0 0.0
0.0 0.0 0.0
0.0 0.0 0.0
0.0 0.0 0.0
0.0 0.0 0.0
0.0 0.0 0.0
0.0 0.0 0.0
-3.23047e-09 -7.45828e-10 -4.04649e-10
-5.5294e-09 -1.36263e-08 -1.83288e-08
-1.65453e-10 5.46435e-11 3.60101e-10
0.0 0.0 -3.8832e-08
0.0 0.0 -3.8832e-08
1.70864e-09 -1.19793e-08 -2.15947e-08
5.2903e-09 -1.13879e-08 -2.10975e-08
0.0 0.0 -3.8832e-08
0.0 0.0 -3.8832e-08
0.0 0.0 -3.8832e-08
0.0 0.0 -3.8832e-08
0.0 0.0 -3.8832e-08
0.0 0.0 0.0
0.0 0.0 0.0
0.0 0.0 0.0
0.0 0.0 0.0
0.0 0.0 0.0
0.0 0.0 0.0
0.0 0.0 0.0
0.0 0.0 0.0
0.0 0.0 0.0
0.0 0.0 0.0
0.0 0.0 0.0
0.0 0.0 0.0
0.0 0.0 0.0
0.0 0.0 0.0
0.0 0.0 0.0
0.0 0.0 0.0
