# vtk DataFile Version 3.0
LIGGGHTS particles timestep 1800000
ASCII
DATASET POLYDATA
POINTS 296 float
0.0239807 0.015839 0.00835487
0.0240744 0.0177901 0.00746048
0.0178615 0.0184068 0.00705072
0.0259614 0.0186696 0.00712859
0.0293364 0.0162376 0.00807734
0.0190032 0.0188051 0.0070619
0.0230904 0.0154208 0.00891307
0.0300059 0.0191111 0.00705564
0.0240182 0.0173961 0.00742058
0.0261262 0.0177366 0.00729711
0.0256864 0.0183787 0.00719123
0.0234218 0.0165465 0.00784367
0.0180448 0.017508 0.00735781
0.0236808 0.0175942 0.0073346
0.0174436 0.0166428 0.00782828
0.0248156 0.0178209 0.00730496
0.0297615 0.0179592 0.00725529
0.023678 0.0160601 0.00818798
0.0239345 0.0170152 0.0075093
0.0232513 0.0159469 0.00834501
0.0250556 0.0170515 0.00747703
0.0238642 0.0183674 0.00734146
0.0301451 0.0180732 0.00720507
0.0238643 0.0166938 0.00773689
0.0295915 0.0172009 0.00744462
0.0254544 0.0170253 0.0074932
0.0298477 0.0183336 0.00714388
0.029252 0.0159451 0.00833682
0.0254642 0.0174065 0.00737263
0.0246285 0.0169017 0.00758687
0.0249717 0.0167324 0.00770313
0.0181944 0.0199682 0.00714057
0.0235114 0.0168878 0.00765552
0.0300924 0.0194924 0.0071398
0.0244017 0.017489 0.00735449
0.0237758 0.0163756 0.00796239
0.0291692 0.0156634 0.00860833
0.0182808 0.0203297 0.00728832
0.0235903 0.0157502 0.00842508
0.0244671 0.0178567 0.00749785
0.0250622 0.0174359 0.00736606
0.0256884 0.0177923 0.00730026
0.022668 0.0147385 0.0107147
0.0294257 0.0165288 0.00781813
0.0231683 0.0156401 0.00858774
0.0247136 0.0172418 0.00739448
0.0183769 0.020683 0.00762174
0.0255691 0.0187552 0.00712478
0.0258705 0.0190731 0.00705632
0.0245907 0.0181483 0.00725293
0.0290976 0.0154769 0.0089549
0.0175297 0.0169892 0.00764765
0.017701 0.0177123 0.00736295
0.0193016 0.0174395 0.00735142
0.0296759 0.017582 0.00735726
0.0241921 0.0181148 0.00725619
0.0295056 0.0168302 0.00756756
0.0240707 0.0161508 0.00812117
0.0259692 0.0180991 0.00723451
0.0243434 0.0188916 0.00713919
0.0300581 0.0176978 0.0073155
0.0254038 0.0220185 0.00860408
0.0242505 0.016786 0.00766948
0.0252892 0.0177618 0.00731652
0.0177804 0.0180217 0.0071223
0.0243178 0.0171078 0.00744163
0.0299304 0.0187188 0.00707488
0.0180241 0.0191891 0.00707871
0.0235965 0.0172211 0.00745145
0.0184482 0.0193713 0.00706512
0.0253527 0.01815 0.00724407
0.0233367 0.0162461 0.0080937
0.0251485 0.018785 0.00713223
0.0184589 0.0210736 0.00759634
0.0201583 0.0199493 0.00721575
0.0208408 0.0204654 0.00740137
0.0200628 0.0195796 0.00709656
0.0189382 0.0214562 0.00778233
0.0235884 0.0153472 0.00963173
0.0289184 0.0151674 0.00966972
0.0256549 0.0167486 0.0077012
0.0242051 0.019846 0.00726976
0.0290052 0.0153079 0.00930542
0.0252724 0.0195109 0.00699893
0.0233592 0.0151037 0.00940904
0.0248161 0.0211862 0.00799221
0.0249048 0.0164154 0.00793796
0.0249335 0.0198917 0.00712798
0.0256711 0.0194776 0.00699572
0.0254705 0.0191369 0.00705681
0.0238294 0.0153796 0.00899125
0.0239327 0.0187177 0.00716109
0.0250364 0.0202567 0.00727304
0.0189808 0.01996 0.00718488
0.0244796 0.016263 0.0080446
0.0187255 0.017377 0.00739886
0.0196277 0.0193029 0.00697227
0.0203789 0.0221337 0.00836258
0.0183443 0.018197 0.00709866
0.025047 0.0184052 0.00720603
0.0183612 0.0189786 0.00703396
0.0229272 0.0150161 0.00958266
0.0200757 0.0206839 0.00750471
0.024521 0.0196962 0.00706863
0.0192286 0.0193096 0.00700209
0.0240076 0.019106 0.00710106
0.0193037 0.0208697 0.00757173
0.0199729 0.021148 0.00768844
0.0234445 0.0153157 0.00908073
0.0181421 0.0178632 0.00718631
0.0194032 0.0216642 0.00789727
0.0245616 0.0165792 0.00781385
0.0239014 0.0155969 0.00866324
0.0230108 0.0152043 0.00923981
0.0248708 0.0195127 0.0070054
0.0181091 0.0195787 0.00710965
0.0246669 0.0185365 0.00719295
0.0235169 0.0155342 0.00875364
0.0237663 0.0179827 0.00729317
0.0188806 0.0195076 0.00704644
0.0253333 0.0198826 0.00713349
0.0193772 0.0189382 0.0070134
0.0201664 0.0203218 0.0073611
0.0204342 0.0190617 0.00702708
0.0242683 0.0185029 0.00719619
0.0243882 0.0159513 0.0082781
0.0247417 0.0189226 0.00711919
0.0227545 0.0148085 0.0103304
0.0179388 0.0187992 0.00705317
0.0242641 0.0202033 0.00743926
0.025071 0.0191712 0.00706276
0.0196445 0.0213622 0.00777994
0.0244491 0.0192991 0.00705818
0.0203058 0.0214835 0.00781162
0.019544 0.0181673 0.00714528
0.0189381 0.0207293 0.00749062
0.0191029 0.0184187 0.0070888
0.0241657 0.016467 0.00789544
0.0176164 0.0173356 0.00746754
0.0202542 0.0183738 0.00713624
0.0241353 0.0194526 0.00725402
0.0183463 0.017267 0.00746277
0.0203947 0.0211147 0.00766545
0.0201731 0.0187617 0.00706997
0.0228466 0.0149542 0.00996952
0.0185674 0.0197521 0.00709266
0.0182773 0.0185867 0.00703821
0.0205608 0.0198381 0.00716276
0.02006 0.0216202 0.0082475
0.0196673 0.0196739 0.00711647
0.0190831 0.0171394 0.00750051
0.0197749 0.0188998 0.00703352
0.0200773 0.0223446 0.00852455
0.0192684 0.0196958 0.00709824
0.0223368 0.0147085 0.0122591
0.0243568 0.0205463 0.00762276
0.0190329 0.0217924 0.00797737
0.0237481 0.0151607 0.00931598
0.017269 0.0159842 0.00824739
0.0194181 0.017792 0.00720266
0.0193473 0.0204967 0.00742499
0.0248235 0.016102 0.00817302
0.0200042 0.0220811 0.00823263
0.0239697 0.0151828 0.00964828
0.0198134 0.0177348 0.00722541
0.0186469 0.0170236 0.00756891
0.019698 0.0208033 0.00756038
0.0205164 0.0194437 0.0071123
0.018677 0.018574 0.00704857
0.0192686 0.0212403 0.00771808
0.014967 0.0229628 0.0101349
0.0224975 0.0146472 0.011487
0.0194784 0.0185563 0.00707938
0.0241405 0.0152416 0.0092042
0.0197537 0.0200372 0.00725969
0.0198735 0.0184987 0.00710256
0.0189948 0.0203307 0.0073345
0.0204596 0.0205784 0.00745438
0.0165265 0.0237899 0.0128966
0.0211675 0.0217428 0.00821891
0.018751 0.0191132 0.00702413
0.0242123 0.0154576 0.00887531
0.0226169 0.0146751 0.0111063
0.0200434 0.0191936 0.0069938
0.0173566 0.0163148 0.00803989
0.0232751 0.0149493 0.00976833
0.020547 0.0202103 0.00730853
0.0197043 0.0219158 0.00802604
0.0199317 0.0216245 0.00787318
0.0213521 0.022294 0.00875047
0.0193365 0.0201204 0.00727324
0.0258718 0.0174338 0.00736132
0.0207737 0.0220309 0.0083694
0.0175221 0.0240801 0.0124328
0.018978 0.0176635 0.00728009
0.0196529 0.0172628 0.00742439
0.0189875 0.0220722 0.00832461
0.0246145 0.0215186 0.00822414
0.0258533 0.0170512 0.00747665
0.0250217 0.0221092 0.00869641
0.0209485 0.0211778 0.00769973
0.0231903 0.014852 0.0101469
0.0210272 0.0214705 0.00796071
0.0197371 0.0204094 0.00740546
0.0199409 0.0181099 0.0071685
0.0222856 0.0150206 0.012504
0.0246125 0.0200858 0.00726685
0.0186188 0.0201232 0.00723255
0.0169568 0.023893 0.0124594
0.0224157 0.0146181 0.0118775
0.0172387 0.0239518 0.0121813
0.0177024 0.0239704 0.012093
0.0299723 0.0173213 0.0074215
0.0186332 0.0204962 0.00737807
0.0203698 0.0218273 0.00810484
0.0179682 0.0171587 0.00753755
0.0208062 0.0208365 0.00754698
0.0190959 0.0180241 0.00715322
0.0171862 0.0157182 0.00853434
0.0242936 0.0156703 0.00854646
0.0243157 0.0150431 0.00950412
0.0207567 0.0217256 0.00810994
0.0231101 0.0191304 0.0156592
0.0187318 0.0239767 0.0120962
0.0149529 0.0181665 0.0187882
0.0156258 0.020316 0.0154452
0.0153447 0.0230048 0.0102589
0.0180358 0.0238019 0.013138
0.0148229 0.0231015 0.0104846
0.0151739 0.0201441 0.0210827
0.0185617 0.0214025 0.00790614
0.0170004 0.0204297 0.0154049
0.0227243 0.0150215 0.0125056
0.0203297 0.0138886 0.0127538
0.018474 0.0217776 0.0156285
0.019705 0.014158 0.0121268
0.0222198 0.0147701 0.0128089
0.0178453 0.0242022 0.0126344
0.0180214 0.0240098 0.0123311
0.0195545 0.0207922 0.0208431
0.0204413 0.0197501 0.0197848
0.0224662 0.0198197 0.0242638
0.019124 0.0195029 0.0165465
0.0234014 0.020003 0.0226243
0.020998 0.0200577 0.0155961
0.0175919 0.0224879 0.0152087
0.0211929 0.0220458 0.00847905
0.0187637 0.0166168 0.0239441
0.023798 0.022842 0.0147075
0.0178811 0.0167969 0.00780561
0.0206274 0.0189867 0.0169679
0.0220158 0.0181166 0.0155402
0.0197503 0.0136012 0.0137872
0.0193299 0.0220154 0.00812577
0.0232843 0.0191616 0.0210272
0.0194088 0.018073 0.0238007
0.022004 0.0203373 0.0194067
0.0205078 0.021095 0.0151042
0.0233019 0.0203004 0.0201876
0.0202128 0.0141015 0.0122468
0.0171126 0.0238054 0.012827
0.0166492 0.0208378 0.0188005
0.0182687 0.0169168 0.00764333
0.0174625 0.0211184 0.0216709
0.0157672 0.0233508 0.0109459
0.0196309 0.0221019 0.00837462
0.0210973 0.0176849 0.0204461
0.0213028 0.0165741 0.023134
0.0212466 0.0191129 0.0190627
0.0154542 0.0163496 0.0226268
0.0185721 0.0166744 0.00774918
0.0206352 0.0242509 0.0129094
0.017319 0.0170935 0.0196239
0.0207009 0.0158222 0.0186662
0.0238248 0.0199748 0.0188922
0.0162844 0.0168814 0.0221587
0.0212376 0.0175192 0.0213796
0.0213649 0.0157703 0.0219529
0.0172127 0.0241571 0.0126784
0.0154267 0.0216624 0.0193347
0.0226886 0.0165359 0.0190447
0.021032 0.0224914 0.0194115
0.0192925 0.0237452 0.0199301
0.0196544 0.0191834 0.0212452
0.0157233 0.0230451 0.0103799
0.0152598 0.0163249 0.019796
0.0182411 0.0147082 0.0115828
0.0216142 0.0189523 0.016637
0.0155545 0.0220406 0.0200042
0.0181725 0.0227722 0.0207467
0.0214055 0.0196779 0.0208135
0.0145622 0.0195411 0.016903
0.0188572 0.0210947 0.00763176
0.0186359 0.0217964 0.00802589
0.0208948 0.022307 0.00863296
0.0183321 0.0239749 0.0120816

VERTICES 296 592
1 0
1 1
1 2
1 3
1 4
1 5
1 6
1 7
1 8
1 9
1 10
1 11
1 12
1 13
1 14
1 15
1 16
1 17
1 18
1 19
1 20
1 21
1 22
1 23
1 24
1 25
1 26
1 27
1 28
1 29
1 30
1 31
1 32
1 33
1 34
1 35
1 36
1 37
1 38
1 39
1 40
1 41
1 42
1 43
1 44
1 45
1 46
1 47
1 48
1 49
1 50
1 51
1 52
1 53
1 54
1 55
1 56
1 57
1 58
1 59
1 60
1 61
1 62
1 63
1 64
1 65
1 66
1 67
1 68
1 69
1 70
1 71
1 72
1 73
1 74
1 75
1 76
1 77
1 78
1 79
1 80
1 81
1 82
1 83
1 84
1 85
1 86
1 87
1 88
1 89
1 90
1 91
1 92
1 93
1 94
1 95
1 96
1 97
1 98
1 99
1 100
1 101
1 102
1 103
1 104
1 105
1 106
1 107
1 108
1 109
1 110
1 111
1 112
1 113
1 114
1 115
1 116
1 117
1 118
1 119
1 120
1 121
1 122
1 123
1 124
1 125
1 126
1 127
1 128
1 129
1 130
1 131
1 132
1 133
1 134
1 135
1 136
1 137
1 138
1 139
1 140
1 141
1 142
1 143
1 144
1 145
1 146
1 147
1 148
1 149
1 150
1 151
1 152
1 153
1 154
1 155
1 156
1 157
1 158
1 159
1 160
1 161
1 162
1 163
1 164
1 165
1 166
1 167
1 168
1 169
1 170
1 171
1 172
1 173
1 174
1 175
1 176
1 177
1 178
1 179
1 180
1 181
1 182
1 183
1 184
1 185
1 186
1 187
1 188
1 189
1 190
1 191
1 192
1 193
1 194
1 195
1 196
1 197
1 198
1 199
1 200
1 201
1 202
1 203
1 204
1 205
1 206
1 207
1 208
1 209
1 210
1 211
1 212
1 213
1 214
1 215
1 216
1 217
1 218
1 219
1 220
1 221
1 222
1 223
1 224
1 225
1 226
1 227
1 228
1 229
1 230
1 231
1 232
1 233
1 234
1 235
1 236
1 237
1 238
1 239
1 240
1 241
1 242
1 243
1 244
1 245
1 246
1 247
1 248
1 249
1 250
1 251
1 252
1 253
1 254
1 255
1 256
1 257
1 258
1 259
1 260
1 261
1 262
1 263
1 264
1 265
1 266
1 267
1 268
1 269
1 270
1 271
1 272
1 273
1 274
1 275
1 276
1 277
1 278
1 279
1 280
1 281
1 282
1 283
1 284
1 285
1 286
1 287
1 288
1 289
1 290
1 291
1 292
1 293
1 294
1 295

POINT_DATA 296
SCALARS id int 1
LOOKUP_TABLE default
1
2
3
4
6
7
8
9
10
11
12
13
14
15
16
17
18
19
20
21
22
23
24
25
26
27
28
29
30
31
32
33
34
35
36
37
38
39
40
41
42
43
44
45
46
47
48
49
50
51
52
53
54
55
56
57
58
59
60
61
62
63
64
65
66
67
68
69
70
71
72
73
75
76
77
78
79
80
81
82
83
84
85
86
87
88
89
90
91
92
93
94
95
96
97
98
99
100
101
103
104
105
106
107
108
109
110
111
112
113
114
115
116
117
118
119
120
121
122
123
124
125
126
127
128
129
130
131
132
133
134
135
136
137
138
139
140
141
142
143
144
145
146
147
148
149
150
151
152
153
154
155
156
157
158
159
160
161
162
163
164
165
166
167
168
169
171
172
173
174
175
176
177
178
179
180
181
182
183
184
185
186
187
188
189
190
191
192
193
194
195
196
197
198
199
200
201
202
203
204
205
206
207
208
209
210
211
212
213
214
215
216
217
218
219
220
221
222
223
224
225
226
227
228
229
230
231
232
233
234
235
236
237
238
239
240
241
242
243
244
245
246
247
248
249
250
251
252
253
254
255
256
257
258
259
260
261
262
263
264
265
266
267
268
269
270
271
272
273
274
275
276
277
278
279
280
281
282
283
284
285
286
287
288
289
290
291
292
293
294
295
296
297
298
299
300

SCALARS type int 1
LOOKUP_TABLE default
1
1
1
1
1
1
1
1
1
1
1
1
1
1
1
1
1
1
1
1
1
1
1
1
1
1
1
1
1
1
1
1
1
1
1
1
1
1
1
1
1
1
1
1
1
1
1
1
1
1
1
1
1
1
1
1
1
1
1
1
1
1
1
1
1
1
1
1
1
1
1
1
1
1
1
1
1
1
1
1
1
1
1
1
1
1
1
1
1
1
1
1
1
1
1
1
1
1
1
1
1
1
1
1
1
1
1
1
1
1
1
1
1
1
1
1
1
1
1
1
1
1
1
1
1
1
1
1
1
1
1
1
1
1
1
1
1
1
1
1
1
1
1
1
1
1
1
1
1
1
1
1
1
1
1
1
1
1
1
1
1
1
1
1
1
1
1
1
1
1
1
1
1
1
1
1
1
1
1
1
1
1
1
1
1
1
1
1
1
1
1
1
1
1
1
1
1
1
1
1
1
1
1
1
1
1
1
1
1
1
1
1
1
1
1
1
1
1
1
1
1
1
1
1
1
1
1
1
1
1
1
1
1
1
1
1
1
1
1
1
1
1
1
1
1
1
1
1
1
1
1
1
1
1
1
1
1
1
1
1
1
1
1
1
1
1
1
1
1
1
1
1
1
1
1
1
1
1
1
1
1
1
1
1
1
1
1
1
1
1
1
1
1
1
1
1

SCALARS radius float 1
LOOKUP_TABLE default
0.0002
0.0002
0.0002
0.0002
0.0002
0.0002
0.0002
0.0002
0.0002
0.0002
0.0002
0.0002
0.0002
0.0002
0.0002
0.0002
0.0002
0.0002
0.0002
0.0002
0.0002
0.0002
0.0002
0.0002
0.0002
0.0002
0.0002
0.0002
0.0002
0.0002
0.0002
0.0002
0.0002
0.0002
0.0002
0.0002
0.0002
0.0002
0.0002
0.0002
0.0002
0.0002
0.0002
0.0002
0.0002
0.0002
0.0002
0.0002
0.0002
0.0002
0.0002
0.0002
0.0002
0.0002
0.0002
0.0002
0.0002
0.0002
0.0002
0.0002
0.0002
0.0002
0.0002
0.0002
0.0002
0.0002
0.0002
0.0002
0.0002
0.0002
0.0002
0.0002
0.0002
0.0002
0.0002
0.0002
0.0002
0.0002
0.0002
0.0002
0.0002
0.0002
0.0002
0.0002
0.0002
0.0002
0.0002
0.0002
0.0002
0.0002
0.0002
0.0002
0.0002
0.0002
0.0002
0.0002
0.0002
0.0002
0.0002
0.0002
0.0002
0.0002
0.0002
0.0002
0.0002
0.0002
0.0002
0.0002
0.0002
0.0002
0.0002
0.0002
0.0002
0.0002
0.0002
0.0002
0.0002
0.0002
0.0002
0.0002
0.0002
0.0002
0.0002
0.0002
0.0002
0.0002
0.0002
0.0002
0.0002
0.0002
0.0002
0.0002
0.0002
0.0002
0.0002
0.0002
0.0002
0.0002
0.0002
0.0002
0.0002
0.0002
0.0002
0.0002
0.0002
0.0002
0.0002
0.0002
0.0002
0.0002
0.0002
0.0002
0.0002
0.0002
0.0002
0.0002
0.0002
0.0002
0.0002
0.0002
0.0002
0.0002
0.0002
0.0002
0.0002
0.0002
0.0002
0.0002
0.0002
0.0002
0.0002
0.0002
0.0002
0.0002
0.0002
0.0002
0.0002
0.0002
0.0002
0.0002
0.0002
0.0002
0.0002
0.0002
0.0002
0.0002
0.0002
0.0002
0.0002
0.0002
0.0002
0.0002
0.0002
0.0002
0.0002
0.0002
0.0002
0.0002
0.0002
0.0002
0.0002
0.0002
0.0002
0.0002
0.0002
0.0002
0.0002
0.0002
0.0002
0.0002
0.0002
0.0002
0.0002
0.0002
0.0002
0.0002
0.0002
0.0002
0.0002
0.0002
0.0002
0.0002
0.0002
0.0002
0.0002
0.0002
0.0002
0.0002
0.0002
0.0002
0.0002
0.0002
0.0002
0.0002
0.0002
0.0002
0.0002
0.0002
0.0002
0.0002
0.0002
0.0002
0.0002
0.0002
0.0002
0.0002
0.0002
0.0002
0.0002
0.0002
0.0002
0.0002
0.0002
0.0002
0.0002
0.0002
0.0002
0.0002
0.0002
0.0002
0.0002
0.0002
0.0002
0.0002
0.0002
0.0002
0.0002
0.0002
0.0002
0.0002
0.0002
0.0002
0.0002
0.0002
0.0002
0.0002
0.0002
0.0002
0.0002
0.0002
0.0002
0.0002
0.0002
0.0002
0.0002
0.0002
0.0002
0.0002
0.0002
0.0002
0.0002
0.0002
0.0002
0.0002
0.0002
0.0002

SCALARS mass float 1
LOOKUP_TABLE default
9.38289e-09
9.38289e-09
9.38289e-09
9.38289e-09
9.38289e-09
9.38289e-09
9.38289e-09
9.38289e-09
9.38289e-09
9.38289e-09
9.38289e-09
9.38289e-09
9.38289e-09
9.38289e-09
9.38289e-09
9.38289e-09
9.38289e-09
9.38289e-09
9.38289e-09
9.38289e-09
9.38289e-09
9.38289e-09
9.38289e-09
9.38289e-09
9.38289e-09
9.38289e-09
9.38289e-09
9.38289e-09
9.38289e-09
9.38289e-09
9.38289e-09
9.38289e-09
9.38289e-09
9.38289e-09
9.38289e-09
9.38289e-09
9.38289e-09
9.38289e-09
9.38289e-09
9.38289e-09
9.38289e-09
9.38289e-09
9.38289e-09
9.38289e-09
9.38289e-09
9.38289e-09
9.38289e-09
9.38289e-09
9.38289e-09
9.38289e-09
9.38289e-09
9.38289e-09
9.38289e-09
9.38289e-09
9.38289e-09
9.38289e-09
9.38289e-09
9.38289e-09
9.38289e-09
9.38289e-09
9.38289e-09
9.38289e-09
9.38289e-09
9.38289e-09
9.38289e-09
9.38289e-09
9.38289e-09
9.38289e-09
9.38289e-09
9.38289e-09
9.38289e-09
9.38289e-09
9.38289e-09
9.38289e-09
9.38289e-09
9.38289e-09
9.38289e-09
9.38289e-09
9.38289e-09
9.38289e-09
9.38289e-09
9.38289e-09
9.38289e-09
9.38289e-09
9.38289e-09
9.38289e-09
9.38289e-09
9.38289e-09
9.38289e-09
9.38289e-09
9.38289e-09
9.38289e-09
9.38289e-09
9.38289e-09
9.38289e-09
9.38289e-09
9.38289e-09
9.38289e-09
9.38289e-09
9.38289e-09
9.38289e-09
9.38289e-09
9.38289e-09
9.38289e-09
9.38289e-09
9.38289e-09
9.38289e-09
9.38289e-09
9.38289e-09
9.38289e-09
9.38289e-09
9.38289e-09
9.38289e-09
9.38289e-09
9.38289e-09
9.38289e-09
9.38289e-09
9.38289e-09
9.38289e-09
9.38289e-09
9.38289e-09
9.38289e-09
9.38289e-09
9.38289e-09
9.38289e-09
9.38289e-09
9.38289e-09
9.38289e-09
9.38289e-09
9.38289e-09
9.38289e-09
9.38289e-09
9.38289e-09
9.38289e-09
9.38289e-09
9.38289e-09
9.38289e-09
9.38289e-09
9.38289e-09
9.38289e-09
9.38289e-09
9.38289e-09
9.38289e-09
9.38289e-09
9.38289e-09
9.38289e-09
9.38289e-09
9.38289e-09
9.38289e-09
9.38289e-09
9.38289e-09
9.38289e-09
9.38289e-09
9.38289e-09
9.38289e-09
9.38289e-09
9.38289e-09
9.38289e-09
9.38289e-09
9.38289e-09
9.38289e-09
9.38289e-09
9.38289e-09
9.38289e-09
9.38289e-09
9.38289e-09
9.38289e-09
9.38289e-09
9.38289e-09
9.38289e-09
9.38289e-09
9.38289e-09
9.38289e-09
9.38289e-09
9.38289e-09
9.38289e-09
9.38289e-09
9.38289e-09
9.38289e-09
9.38289e-09
9.38289e-09
9.38289e-09
9.38289e-09
9.38289e-09
9.38289e-09
9.38289e-09
9.38289e-09
9.38289e-09
9.38289e-09
9.38289e-09
9.38289e-09
9.38289e-09
9.38289e-09
9.38289e-09
9.38289e-09
9.38289e-09
9.38289e-09
9.38289e-09
9.38289e-09
9.38289e-09
9.38289e-09
9.38289e-09
9.38289e-09
9.38289e-09
9.38289e-09
9.38289e-09
9.38289e-09
9.38289e-09
9.38289e-09
9.38289e-09
9.38289e-09
9.38289e-09
9.38289e-09
9.38289e-09
9.38289e-09
9.38289e-09
9.38289e-09
9.38289e-09
9.38289e-09
9.38289e-09
9.38289e-09
9.38289e-09
9.38289e-09
9.38289e-09
9.38289e-09
9.38289e-09
9.38289e-09
9.38289e-09
9.38289e-09
9.38289e-09
9.38289e-09
9.38289e-09
9.38289e-09
9.38289e-09
9.38289e-09
9.38289e-09
9.38289e-09
9.38289e-09
9.38289e-09
9.38289e-09
9.38289e-09
9.38289e-09
9.38289e-09
9.38289e-09
9.38289e-09
9.38289e-09
9.38289e-09
9.38289e-09
9.38289e-09
9.38289e-09
9.38289e-09
9.38289e-09
9.38289e-09
9.38289e-09
9.38289e-09
9.38289e-09
9.38289e-09
9.38289e-09
9.38289e-09
9.38289e-09
9.38289e-09
9.38289e-09
9.38289e-09
9.38289e-09
9.38289e-09
9.38289e-09
9.38289e-09
9.38289e-09
9.38289e-09
9.38289e-09
9.38289e-09
9.38289e-09
9.38289e-09
9.38289e-09
9.38289e-09
9.38289e-09
9.38289e-09
9.38289e-09
9.38289e-09
9.38289e-09
9.38289e-09
9.38289e-09
9.38289e-09
9.38289e-09
9.38289e-09
9.38289e-09
9.38289e-09
9.38289e-09
9.38289e-09
9.38289e-09
9.38289e-09
9.38289e-09
9.38289e-09
9.38289e-09
9.38289e-09
9.38289e-09

VECTORS velocity float
0.000677882 0.00282724 -0.00185482
0.00652243 -0.0147542 0.00346481
0.00457279 -0.00536418 0.00148918
0.0155899 -0.00382785 0.000230759
0.0058025 -0.000257316 0.000311945
0.00517334 -0.00548135 0.000275907
1.01872e-06 -0.0146959 0.0217973
0.00570623 -0.000404212 0.00031482
0.00684911 -0.014893 0.00707545
0.0079974 -0.0046069 0.00060997
0.0118242 -0.00204275 1.65555e-05
0.000396923 -0.0205935 0.014442
0.00453494 -0.00517783 0.00231531
0.000505009 -0.0275112 0.000423774
0.00463047 -0.00498638 0.0024105
0.00376649 0.00111742 -0.00014483
0.00544613 -0.000404414 -0.00013708
0.00588118 -0.0112641 0.00942681
0.00698894 -0.0140452 0.00959267
-0.000154169 -0.0154037 0.0208363
0.000344075 0.00127416 -0.000816391
0.000324905 -0.0275743 0.00357683
0.00531632 -0.000388822 -0.000122062
0.00594673 -0.0127576 0.00914051
0.00595088 -0.000430224 0.000175024
0.000326726 0.000290272 -0.000170622
0.00534085 -0.000370738 -0.000129949
0.00565621 -0.00012312 0.000440608
0.000244746 0.000225954 -7.15831e-05
0.00057921 0.0022172 -0.000621928
0.000158936 0.00124161 -0.000878434
0.00486085 -0.00528708 -0.000836606
0.000633616 -0.0240174 0.0079251
0.00575333 -0.000419896 0.000314406
0.00119136 0.00267098 -0.000488329
0.0054861 -0.0119207 0.00865909
0.00543466 -9.4343e-05 0.000397654
0.00486202 -0.00528648 -0.000718958
0.00552035 -0.00882405 0.0118133
0.00409418 0.00166472 0.000537479
0.00120244 0.00139176 -0.00023752
0.00227971 0.000855082 -0.000229521
0.000474388 -0.00377683 0.0242956
0.00589616 -0.000389609 0.000200981
-1.28581e-05 -0.0146365 0.0218552
0.000806832 0.00221995 -0.000375604
0.00459019 -0.00513558 -0.00197992
0.013878 -0.00140824 -0.00016122
0.0208217 0.0036986 -0.00133128
0.00181805 0.00111409 -0.000162871
0.00543735 -0.000345218 0.000275078
0.00481604 -0.00497334 0.00230148
0.00461163 -0.00496927 0.00229138
0.00352782 -0.00488252 0.00223774
0.00581335 -0.000407532 0.00016866
0.00429347 -0.0158117 0.00286639
0.00598868 -0.000441794 0.000193235
0.000293704 0.00286312 -0.00205459
0.0102549 -0.00363504 0.000358009
0.00700029 -0.0184201 -0.00469214
0.00557406 -0.000270348 -0.000164382
0.00386476 -0.000593713 0.000470089
0.000669835 0.00269693 -0.00198615
0.0016683 0.000837292 -0.000149145
0.00439788 -0.0051494 0.00228722
0.000816094 0.00268972 -0.00168875
0.00552649 -0.000374946 8.90295e-05
0.00471559 -0.00533571 -0.000818552
0.000662828 -0.0270214 0.00251421
0.0049819 -0.00541367 -0.000781661
0.00505705 0.000183004 -0.000173631
0.000208114 -0.0173408 0.0185325
0.00995309 -0.00318374 0.000325247
0.00473053 -0.00507978 -0.00169388
-0.000743033 -0.00281552 -0.000960726
0.00224025 -0.0172252 -0.00860105
0.00153611 -0.00336893 -0.000115806
0.00298918 -0.0053328 -0.00196551
0.00667129 0.00661309 -0.00280456
0.00569706 -0.000429378 0.000306225
0.000112957 0.000306572 -0.000227834
-0.00787054 -0.0234656 -0.0055998
0.00566148 -0.00042925 0.00030673
0.0135119 -0.00268706 -0.000658401
0.00668741 -0.00745708 0.0130111
-2.02973e-05 -0.0210319 -0.0135632
-1.59112e-05 0.00136234 -0.00102878
0.0068097 -0.015076 -0.00525202
0.0111999 0.000743353 0.000520467
0.0143733 -0.00127556 -0.000216121
0.00124745 0.00146949 -0.00187608
0.000359164 -0.0271264 0.0042747
0.00686577 -0.0137054 -0.012457
0.00484121 -0.00526454 -0.00180563
-0.000115904 0.00176805 -0.00135135
0.00412646 -0.00519635 0.00228899
0.0035566 -0.0053344 -0.000755684
0.000447659 -0.000993494 -0.000748084
0.00476168 -0.0052415 0.00089629
0.00361286 -0.0015585 0.000177006
0.00476973 -0.00522137 -0.00082683
0.000112487 -0.0137707 0.021996
0.0050756 -0.00225504 -0.00102061
0.000673795 -0.0237836 -0.00682493
0.00294292 -0.00537701 -0.000664273
0.000158343 -0.0269703 0.00420815
0.00473419 -0.00489126 -0.00158446
0.000327487 -0.00371449 -0.00145885
0.00675901 -0.0100506 0.012568
0.00465077 -0.00485105 0.00216123
0.00385507 -0.00322414 -0.00107673
0.000357773 0.0018945 -0.00113369
0.000836674 0.00246732 -0.00162264
-0.000177331 -0.0152076 0.0212951
0.0117443 -0.00415774 0.000336554
0.00482095 -0.00530998 -0.000898176
0.00464634 0.0010549 -0.000141248
0.00620524 -0.0088964 0.0129508
0.000228833 -0.0272193 0.00152383
0.00495252 -0.00535445 -0.000898934
0.00697213 -0.00166083 -0.000457336
0.00483215 -0.00434039 0.000881505
0.00161696 -0.00279369 -0.00108903
0.00866619 -0.013158 0.00306035
0.00653615 -0.016806 0.00264011
-0.000778264 0.00186264 -0.00135071
0.0056634 0.00118208 -0.000406651
0.000369989 -0.00635757 0.0241541
0.00460607 -0.00535875 -3.40548e-05
-0.00251432 -0.0216884 -0.0109878
0.0136593 -0.00259676 0.000122386
0.00244351 -0.00261848 -0.000984059
0.00471596 -0.00613877 0.000996593
1.63349e-10 -2.69501e-09 -1.0566e-09
0.0044706 -0.00531573 0.00112588
0.00515013 -0.0054922 -0.00178931
0.0047812 -0.005544 0.00100078
0.00032524 0.00276282 -0.0021089
0.00482869 -0.00490601 0.002233
0.00559817 -0.0172423 0.00301801
-0.00313115 -0.024665 0.00178959
0.00424235 -0.00551896 0.00250188
1.69609e-10 -2.79823e-09 -1.09721e-09
0.00707448 -0.0123629 0.00248993
0.00026999 -0.00943965 0.0228159
0.00489638 -0.00532506 -0.000879956
0.00471548 -0.00533966 0.000504491
-0.00336936 -0.0119984 -0.00313429
0.00241968 -0.00195872 -0.00147535
0.00452974 -0.00504391 -0.00174286
-0.00110223 -0.00185174 0.000897608
0.00483523 -0.00454921 0.000901614
0.00115814 -0.000300085 -0.000694502
0.00458978 -0.00525104 -0.00182097
0.000494357 0.00606355 0.0249782
-0.000948577 -0.0219165 -0.0111078
0.00292041 -0.00366111 -0.00475811
0.00141499 0.000846292 -0.00209605
0.00470411 -0.0039103 0.00460933
0.00366082 -0.00511078 0.00136176
0.00468909 -0.0048524 -0.00164601
-4.37506e-05 0.00121686 -0.000919831
0.000224944 -0.00028623 -0.000278676
0.00462914 0.00319531 -0.00459464
0.00259339 -0.010873 0.00186627
0.00530472 -0.00536818 0.00235765
0.00502724 -0.00296876 -0.00129431
0.00679617 -0.0111601 -0.000616651
0.00475452 -0.00512405 0.000995948
0.0033299 -0.00510372 -0.00173634
-0.00044564 -0.000565461 -0.00128074
0.000590579 0.00387774 0.0257373
0.00495825 -0.00525227 0.00103524
0.000197001 0.00107672 -0.00157987
0.00367988 -0.00477703 -0.00195257
0.00445572 -0.00980851 0.00173097
0.00502212 -0.00540212 -0.00182072
0.0042211 -0.00562668 -0.00229796
-0.0175865 -0.00350903 0.0193051
0.013733 -0.0160375 -0.00969547
0.00510367 -0.0055488 -0.000493335
-0.00196145 0.00136155 -0.00184759
0.000369049 0.000199595 0.0250954
0.00379463 -0.00355284 0.000641709
0.00449789 -0.00450383 0.0033441
0.00545014 -0.00445908 0.0155657
-0.00258311 -0.0142793 -0.00546817
5.72595e-06 -6.5771e-05 -3.12895e-05
-0.000116359 -1.27299e-05 -0.000188689
-0.00882968 -0.00474018 -0.00847627
0.00456462 -0.00455916 -0.00148539
6.90397e-06 0.000277436 -5.25229e-05
-0.0140469 -0.0231915 -0.0207229
-0.000113934 0.000156094 -0.000329478
0.00350723 -0.00511129 0.0016872
0.00616005 -0.000900061 0.000256969
-0.0144679 -0.0153486 -0.0214643
9.15639e-05 -0.0193649 -0.0142862
0.000122632 0.000229259 -0.00016871
-0.00404244 -6.38374e-05 0.000563879
0.00259075 -0.0123826 -0.0126356
0.00703094 -0.00396843 0.0162024
0.0072771 -0.013755 -0.0117588
0.0046363 -0.00477548 -0.0019586
0.00276708 -0.0102253 0.00176981
-0.000103976 0.0061668 0.024659
-0.00420762 -0.0207222 -0.0227977
0.00489592 -0.00522909 -0.0010204
-0.00301775 -0.00157655 0.000881364
-6.00734e-05 0.00639445 0.0247465
-0.000127671 -0.00183354 0.000723531
0.00020402 0.000131347 -0.000197954
0.00591354 -0.000311642 0.000147444
0.00509609 -0.00545415 -0.00128286
0.0022247 -0.00132312 -0.000684314
0.00502475 -0.00519525 0.00233241
0.00316914 -0.0146004 -0.00577124
0.00354275 -0.00558079 0.000558232
0.00460985 -0.00402298 0.00462083
-0.00200017 0.00191667 -0.00156504
0.00482485 0.00239989 -0.00342746
-0.00652001 -0.0191127 -0.0173095
-3.16585e-07 0.0241971 0.0010988
9.28117e-05 -0.00114436 -0.00205064
0.0 -0.0 -0.03
1.01849e-10 0.0229524 -0.00732935
-7.03136e-05 0.000203679 -0.000423219
-0.00122351 0.0795789 -0.178998
-0.0208408 0.00232946 0.0166283
0.0 -0.0 -0.03
0.00100394 -0.0170792 -0.0131744
8.85183e-11 0.0227065 -0.00802362
0.0253371 -0.0146413 -0.0406614
0.0146313 -0.0473816 0.0171333
-0.000779841 0.0361338 -0.0238051
-0.000188495 -0.00123249 0.00204645
0.00192996 -0.00207345 0.018364
-7.66422e-05 -0.000188701 -0.0003803
0.000175795 -0.000519093 -0.000146281
0.0 -0.0 -0.03
0.0 -0.0 -0.03
0.0 -0.0 -0.03
0.0 0.0 -0.194656
0.0 -0.0 -0.03
5.07945e-05 0.0358262 0.0349022
-0.00259751 0.0815792 -0.0596601
0.00535959 -0.0128579 -0.0133689
0.0 -0.0 -0.03
0.000398479 0.0673041 -0.0835273
0.0248997 0.0894867 -0.0368585
-0.00275283 0.0299145 -0.0326264
-6.67206e-11 0.0235084 0.00538973
0.00140737 -0.108781 -0.109577
-0.000610141 -0.00102158 -0.00143414
0.0 -0.0 -0.03
0.0 -0.0 -0.03
0.0 -0.0 -0.03
5.34161e-06 0.0236666 -0.0133981
0.0 -0.0 -0.03
0.000883716 -0.00912944 -0.00455082
-0.00129824 0.00167539 -0.000592688
0.0 -0.0 -0.03
0.00521722 -0.00542902 0.00250914
0.0 -0.0 -0.03
-0.0043982 -0.0315962 0.00475108
-0.000465293 0.00247904 -0.00266169
0.0 -0.0 -0.03
0.0 -0.0 -0.03
0.0 -0.0 -0.03
0.0 -0.0 -0.03
0.00193945 -0.00449982 0.00218035
0.000124976 0.103961 -0.175579
0.0 -0.0 -0.03
0.0 -0.0 -0.03
0.0 -0.0 -0.03
0.0 -0.0 -0.03
0.0 -0.0 -0.03
0.0 -0.0 -0.03
-0.000225275 0.000495295 -8.91798e-05
0.0 -0.0 -0.03
0.0 -0.0 -0.03
0.0 -0.0 -0.03
0.0 -0.0 -0.03
0.0 -0.0 -0.03
-0.00028268 0.000548517 -0.000724343
0.0 -0.0 -0.03
0.000449487 0.041137 -0.0336131
0.0 0.0 -0.190045
0.0 -0.0 -0.03
0.0 -0.0 -0.03
0.0 -0.0 -0.03
-0.000442881 0.040538 0.0301662
0.00446015 -0.00565854 -0.00199367
0.00160837 -0.0125671 -0.0137379
-0.0436826 -0.0019629 -0.0262177
1.39559e-05 -0.00087589 -9.14877e-05

VECTORS force float
-1.30347e-08 -3.06987e-08 3.95143e-11
1.37017e-09 -3.73874e-08 -5.15989e-08
2.36897e-08 -3.69895e-09 -5.75868e-08
-4.11788e-08 2.72916e-08 -3.80646e-09
-1.03245e-08 3.61356e-09 -1.63256e-09
2.46162e-08 4.22591e-08 6.53255e-08
6.45276e-08 2.27763e-08 -1.01243e-07
-5.69685e-10 1.4024e-09 -6.70405e-10
1.84577e-08 4.55324e-08 -2.02988e-08
-3.60725e-08 3.3149e-08 -5.5555e-09
-3.9484e-08 1.29471e-08 -4.44784e-10
-1.16928e-07 7.93076e-08 -1.35859e-07
-2.71292e-08 6.341e-08 -1.16477e-08
1.28398e-07 3.29424e-08 -6.24641e-08
1.70279e-08 4.17499e-08 -1.5671e-09
-9.89601e-09 1.30165e-08 2.18752e-09
-3.69378e-09 3.47411e-09 3.82305e-09
3.5135e-10 3.29266e-07 6.68674e-08
4.10595e-08 1.03779e-07 -1.81306e-07
-3.34051e-08 1.36851e-07 4.95834e-08
-2.99324e-09 1.20112e-08 1.47034e-08
1.22294e-08 -1.458e-08 -9.50096e-09
-8.21295e-09 1.1953e-09 -1.44068e-10
9.7337e-08 4.49049e-07 -3.11894e-07
-6.0631e-09 5.96886e-10 1.26001e-09
-3.23911e-08 -4.09197e-08 1.93427e-08
-5.34329e-09 2.60611e-09 -9.31872e-10
-8.98945e-10 -1.97093e-09 2.30433e-09
-6.00664e-08 -4.98991e-08 1.55939e-08
-1.1985e-08 1.57557e-09 2.10235e-08
9.22955e-09 1.44525e-08 -1.64336e-10
-7.70027e-09 -3.40837e-08 -2.64723e-09
-1.94169e-09 6.00029e-08 -9.28818e-08
1.46271e-09 3.28509e-09 2.76852e-10
2.22131e-08 1.97221e-08 -1.13149e-08
-4.11378e-08 -4.39271e-07 2.30149e-07
5.11366e-09 -5.1724e-09 8.44387e-10
-1.51551e-08 -4.74276e-08 -2.17401e-08
-2.78962e-07 1.04756e-06 1.47466e-07
-3.56511e-08 4.82479e-08 -3.16943e-08
-1.45099e-10 2.00728e-08 3.42242e-09
-3.94798e-08 8.98701e-10 1.05105e-09
4.20754e-08 -1.6139e-08 -5.08061e-08
1.32584e-08 -2.14712e-10 4.26535e-11
-7.69211e-08 6.74627e-08 -1.83075e-08
3.75248e-09 1.39243e-08 1.09568e-08
-9.55739e-09 -1.13449e-08 -6.01875e-08
-5.01278e-08 3.49879e-09 1.47212e-09
-4.16974e-08 8.65483e-09 -3.22502e-10
-3.92131e-08 -9.59055e-09 1.34467e-09
-2.62742e-09 9.74507e-12 -1.22239e-09
2.8817e-08 3.39597e-08 -1.57544e-08
6.47652e-09 3.96523e-08 1.04166e-08
2.94684e-08 3.25731e-08 -6.48834e-09
1.16311e-09 6.02177e-10 1.50087e-10
0.0 0.0 -9.20462e-08
-6.1754e-09 -1.48918e-09 3.5754e-09
3.55002e-08 1.501e-08 4.29973e-08
-3.27493e-08 3.01661e-08 -3.79103e-09
-2.06506e-08 9.47394e-09 -8.39043e-08
-3.31197e-09 9.19752e-10 9.66658e-10
-2.33478e-05 2.36165e-06 2.75534e-06
-6.69722e-09 3.32847e-10 -4.53885e-08
-5.82731e-10 -1.64529e-08 -3.26219e-09
1.82726e-08 1.82578e-08 1.18169e-09
1.70867e-08 5.66748e-08 1.94663e-08
-2.48868e-09 1.19245e-09 -7.76874e-10
-1.01112e-09 -6.50418e-10 -1.6181e-08
1.41391e-07 9.00015e-08 -1.60452e-08
-8.56282e-09 6.14212e-09 -4.90906e-08
-3.61825e-08 -1.26284e-08 1.2894e-09
-7.31108e-09 3.92685e-08 -1.28641e-07
-5.42223e-08 2.61854e-08 -2.29223e-09
-2.57077e-09 -1.31901e-08 4.89313e-09
1.68531e-08 4.19783e-08 -4.57837e-08
0.0 0.0 -9.20462e-08
-2.39515e-08 -3.87054e-08 2.87262e-08
2.76909e-08 4.41704e-09 -8.60547e-09
3.41593e-10 -1.28174e-09 -9.26757e-08
-1.99922e-09 -3.94444e-10 -2.49683e-10
1.23356e-08 -1.19749e-08 8.82405e-09
1.72242e-10 -1.27148e-07 3.89874e-08
7.73964e-09 -1.43244e-10 -2.45344e-09
2.82774e-08 -4.13507e-09 2.88446e-09
-2.32024e-08 -3.07106e-08 -3.44303e-08
-3.83758e-11 -7.62511e-10 5.43275e-10
-8.10367e-10 1.49616e-08 -1.12674e-08
-9.29403e-09 4.97588e-09 7.53399e-10
-4.19801e-08 -5.2146e-09 -2.92418e-09
-5.98557e-08 7.29327e-10 -3.47717e-09
-1.88758e-08 -4.61454e-08 1.62891e-08
-5.20288e-08 -1.19423e-07 -3.86916e-08
-1.47759e-09 -1.94256e-08 -1.54266e-08
-3.47987e-09 -2.70723e-08 -3.15894e-08
4.31548e-09 -7.65238e-09 -7.7026e-09
-7.81839e-08 6.80669e-08 -4.77029e-08
-1.74076e-08 5.32466e-09 -6.60659e-10
-1.1785e-08 -1.05693e-08 -1.29686e-08
-3.65706e-08 1.11746e-08 4.98136e-08
-3.64745e-08 3.44123e-08 -1.22615e-09
1.7743e-08 -2.46121e-08 -1.1514e-09
2.02029e-08 8.10229e-08 3.43151e-09
-9.19145e-08 8.4824e-09 1.47811e-08
-8.87756e-08 8.60174e-08 6.80518e-09
-2.44345e-09 -1.23851e-08 -2.70371e-08
-2.34969e-08 -2.29939e-07 1.16781e-07
1.17224e-08 -2.89674e-08 -8.50089e-09
-1.60913e-09 8.57583e-09 3.38833e-09
-6.43818e-09 -5.85971e-08 3.04791e-08
2.72117e-08 -1.29607e-08 -3.6036e-08
1.20581e-08 -1.19523e-09 -4.41978e-09
-1.81324e-08 1.88214e-09 4.96614e-09
-5.07847e-08 -5.07746e-08 -1.54745e-08
-5.5089e-08 1.40394e-07 -9.92267e-08
-2.31331e-07 9.52207e-08 -6.32705e-08
-1.72047e-09 -9.41901e-09 -1.89936e-08
1.47569e-08 -2.7968e-08 4.61736e-09
6.9365e-09 5.86214e-08 -2.19466e-07
3.49214e-08 3.31219e-08 9.70907e-08
1.37832e-09 1.55782e-09 4.83866e-09
-1.61534e-08 1.23775e-08 -7.13071e-09
-2.13426e-09 1.02436e-08 -7.27773e-12
1.53174e-07 4.87214e-09 -5.85994e-08
-1.66305e-08 1.83427e-08 -2.61003e-08
-7.76287e-08 9.16501e-08 -7.59235e-09
-2.40266e-09 -6.69062e-10 -7.09295e-09
-2.55442e-08 -1.29757e-09 2.35829e-09
1.59427e-08 3.0979e-08 -3.15774e-08
-5.19651e-10 3.05088e-09 -3.67247e-08
4.76587e-08 -5.35711e-08 -2.49059e-08
9.01477e-08 -1.35914e-08 -3.60887e-08
-4.50844e-08 4.44981e-08 -1.66576e-08
-2.45907e-08 5.21024e-08 -8.93527e-09
-2.42565e-14 4.00184e-13 1.56872e-13
-2.86863e-08 9.73775e-08 3.00007e-08
-1.93706e-08 -1.94046e-08 -1.23328e-08
3.21857e-08 -1.05016e-08 1.65029e-08
-3.05099e-08 -7.02084e-09 -9.19659e-09
3.61093e-10 3.59754e-08 -1.32526e-08
-1.68711e-08 5.69851e-08 -1.03099e-08
-1.03868e-08 -1.69783e-07 1.04577e-07
-6.50922e-08 3.91768e-08 1.11521e-08
1.14788e-13 -1.89379e-12 -7.4259e-13
-3.38542e-08 5.67794e-08 -1.24583e-09
2.38961e-08 7.8845e-08 -1.01405e-07
5.46151e-09 -1.46267e-08 2.45823e-08
-2.17023e-08 -4.63328e-09 2.65491e-08
3.27635e-08 -5.83833e-10 8.76426e-09
-2.36379e-08 1.1815e-07 8.74965e-08
-2.03963e-08 -7.41534e-09 7.22564e-09
2.15634e-08 6.79765e-08 -3.37063e-08
-2.53076e-08 2.64208e-08 -2.05383e-08
8.9272e-09 2.77774e-08 2.62892e-08
6.23485e-09 -2.5055e-08 8.54772e-10
5.72771e-09 -1.74742e-08 -9.82998e-08
-2.56734e-10 -4.45329e-09 -7.76306e-10
-1.34321e-08 -6.29918e-09 -2.99539e-08
-1.5479e-08 3.44901e-08 6.78862e-08
-7.74183e-09 1.42287e-08 4.79833e-09
3.82458e-08 6.74559e-08 2.68436e-08
-7.54367e-09 -2.40217e-10 -8.64696e-09
-1.14255e-10 1.49754e-08 -1.12858e-08
2.22953e-10 -1.4609e-08 1.72731e-08
-1.81029e-08 -2.33244e-09 -4.42528e-08
1.16249e-08 6.91829e-08 -1.24132e-08
-6.29381e-08 -5.11997e-08 -3.79351e-09
-5.96334e-08 8.94134e-08 3.48979e-08
1.1339e-08 8.83533e-08 -5.69123e-08
3.84433e-10 4.23198e-09 4.69413e-08
-5.79793e-08 -3.58765e-08 -2.94335e-08
4.49055e-07 7.71615e-07 1.79258e-06
-5.15054e-09 -2.08841e-09 -9.24697e-08
-1.54501e-08 1.47497e-07 -1.6179e-08
-4.1338e-09 -7.35608e-09 -1.76834e-09
6.40508e-09 8.44998e-09 3.22363e-09
-4.89125e-08 3.96244e-08 2.34293e-08
-2.13202e-08 1.80621e-08 1.77306e-08
-2.2579e-08 1.38676e-09 1.05162e-09
1.14139e-07 2.98807e-08 -1.13137e-07
0.0 0.0 -9.20462e-08
2.0062e-09 4.00477e-08 -2.01188e-08
-4.57488e-09 -1.10366e-08 -1.48952e-08
5.23548e-09 9.18924e-10 -9.81352e-08
-3.9716e-08 1.98735e-08 -4.17314e-08
-4.93337e-10 5.29792e-08 1.01816e-08
1.59929e-07 -1.11703e-07 6.11831e-08
2.64702e-08 1.02344e-08 -3.70512e-08
-6.97905e-09 2.42863e-09 6.78225e-09
-1.15457e-08 5.22036e-08 3.59451e-08
0.0 0.0 -9.20462e-08
-7.49149e-09 -2.63348e-09 4.98842e-09
-1.22487e-09 -1.31623e-08 -3.94868e-10
0.0 0.0 -9.20462e-08
-8.67538e-09 1.02218e-08 -4.16292e-09
1.94356e-09 6.90244e-08 1.34522e-08
-2.67326e-08 1.08992e-08 1.99777e-08
1.81537e-08 -2.75167e-08 -5.21648e-08
-5.52924e-11 -9.30019e-10 3.98847e-10
-1.36552e-08 -2.18876e-09 7.37989e-09
-2.43581e-07 5.18521e-07 5.10934e-07
0.0 0.0 -9.20462e-08
2.3149e-09 7.61048e-10 -9.42317e-08
0.0 0.0 -9.20462e-08
-1.90233e-08 4.34247e-09 7.14214e-09
-1.39134e-08 5.43452e-08 -1.49705e-08
2.34998e-09 -2.29054e-08 -8.99024e-08
-1.66621e-08 7.05196e-09 -6.82793e-08
5.81615e-09 -9.86353e-09 5.50755e-09
0.0 0.0 -9.20462e-08
0.0 0.0 -9.20462e-08
1.37722e-07 5.35847e-09 -4.49338e-08
-1.15962e-08 -2.601e-09 1.47804e-08
1.33662e-09 -3.60865e-09 -9.67863e-10
-1.91332e-08 -3.2057e-08 -1.89809e-08
-1.83076e-07 2.54874e-07 1.42399e-07
-2.1533e-08 6.72369e-08 -2.29905e-08
-1.09032e-07 1.27194e-07 1.45132e-06
2.87688e-08 5.94649e-10 1.85875e-08
-2.00806e-08 -2.01111e-08 1.353e-08
-1.45273e-08 -7.62966e-09 -2.13869e-08
-7.41673e-09 -6.8008e-09 3.44195e-10
-1.0274e-09 -5.12293e-09 -7.15392e-08
0.0 0.0 -9.20462e-08
1.01598e-09 7.03856e-10 -1.67148e-09
0.0 0.0 0.0
1.0763e-17 -3.97293e-10 -1.24881e-09
-1.64852e-07 1.83417e-07 3.41412e-07
0.0 0.0 -9.20462e-08
0.0 0.0 -9.20462e-08
0.0 0.0 0.0
1.87604e-08 1.73983e-08 -2.07953e-08
6.80908e-17 -4.37042e-10 -1.23473e-09
-6.02544e-09 -2.78686e-08 -6.62671e-08
0.0 0.0 -9.20462e-08
-6.44619e-10 9.51579e-09 -1.00955e-08
-1.79102e-10 -1.17914e-09 1.95772e-09
1.30118e-08 3.76177e-09 -8.27735e-08
1.30235e-08 -3.55698e-08 -5.13884e-08
-5.64616e-09 -2.16965e-08 2.15649e-08
0.0 0.0 0.0
0.0 0.0 0.0
0.0 0.0 0.0
0.0 0.0 -9.20462e-08
0.0 0.0 0.0
0.0 0.0 -9.20462e-08
0.0 0.0 -9.20462e-08
0.0 0.0 -9.20462e-08
0.0 0.0 0.0
0.0 0.0 -9.20462e-08
0.0 0.0 -9.20462e-08
0.0 0.0 -9.20462e-08
-6.2882e-18 2.90692e-10 -1.27929e-09
0.0 0.0 -9.20462e-08
-3.14542e-08 -1.77712e-08 1.35661e-08
0.0 0.0 0.0
0.0 0.0 0.0
0.0 0.0 0.0
8.92791e-12 4.06126e-09 -4.17933e-09
0.0 0.0 0.0
0.0 0.0 -9.20462e-08
-1.39315e-08 1.62059e-08 -1.72065e-07
0.0 0.0 0.0
-4.24434e-08 7.3383e-08 -3.30639e-08
0.0 0.0 0.0
0.0 0.0 -9.20462e-08
-6.90674e-09 -4.84771e-09 3.58238e-08
0.0 0.0 0.0
0.0 0.0 0.0
0.0 0.0 0.0
0.0 0.0 0.0
-1.04664e-08 7.02392e-08 -3.65573e-08
0.0 0.0 -9.20462e-08
0.0 0.0 0.0
0.0 0.0 0.0
0.0 0.0 0.0
0.0 0.0 0.0
0.0 0.0 0.0
0.0 0.0 0.0
1.14743e-08 2.32157e-08 -9.40872e-09
0.0 0.0 0.0
0.0 0.0 0.0
0.0 0.0 0.0
0.0 0.0 0.0
0.0 0.0 0.0
3.93776e-07 -1.63126e-07 -2.78229e-07
0.0 0.0 0.0
0.0 0.0 -9.20462e-08
0.0 0.0 -9.20462e-08
0.0 0.0 0.0
0.0 0.0 0.0
0.0 0.0 0.0
0.0 0.0 -9.20462e-08
1.01422e-07 -1.58198e-09 5.53619e-09
-1.15087e-08 -2.33502e-08 -3.39095e-08
0.0 0.0 -9.20462e-08
-2.8722e-09 4.86655e-10 -9.8765e-10
