# vtk DataFile Version 3.0
LIGGGHTS particles timestep 2800000
ASCII
DATASET POLYDATA
POINTS 296 float
0.0297605 0.0156258 0.00867883
0.0296475 0.0172434 0.00774833
0.0208481 0.0141507 0.0123467
0.031463 0.0185052 0.00703329
0.0350625 0.0158496 0.00843925
0.0242503 0.0157851 0.00840955
0.0287155 0.0150952 0.00981656
0.0357374 0.0185911 0.0072339
0.0296838 0.016851 0.0076615
0.0319608 0.0175615 0.00727687
0.0314424 0.0181148 0.00713791
0.0290544 0.0158143 0.00845381
0.022484 0.0146976 0.010769
0.029298 0.0166993 0.00768112
0.0177212 0.015683 0.0139504
0.0305828 0.0174585 0.00736404
0.0354781 0.0174725 0.00737755
0.0293626 0.0156413 0.00864098
0.0296063 0.0164984 0.0078378
0.028889 0.0154095 0.00910181
0.0308804 0.0167942 0.00757903
0.029465 0.0174242 0.00744178
0.0359339 0.017677 0.00726534
0.0295277 0.0162049 0.0080979
0.0353082 0.0167775 0.00773538
0.0312568 0.0169194 0.00752794
0.0355687 0.0178388 0.00724492
0.0349769 0.0156121 0.00874953
0.0312254 0.0172901 0.00738105
0.0304724 0.0167136 0.00765302
0.0307852 0.0165233 0.00785742
0.0226478 0.0148839 0.0100442
0.0291372 0.0161089 0.00819619
0.0358235 0.0189685 0.00733479
0.0299046 0.0171229 0.00746666
0.0294462 0.015923 0.00836963
0.0348909 0.0153744 0.00905949
0.0227336 0.0150725 0.00970213
0.0292757 0.01543 0.00896929
0.0301942 0.0174244 0.00754416
0.0308454 0.0171649 0.007433
0.0313502 0.0176593 0.00727254
0.0283845 0.0145888 0.0112293
0.0351494 0.0161266 0.00816415
0.0288001 0.0152581 0.00946119
0.0303442 0.0170572 0.00749348
0.0222507 0.0148294 0.011909
0.0311085 0.0183307 0.00709505
0.0314893 0.0188968 0.00711534
0.030293 0.0177272 0.00730233
0.0348065 0.0151513 0.00938055
0.0189749 0.0141516 0.0121374
0.0240007 0.0150643 0.0103621
0.0243749 0.0153167 0.00909317
0.0353931 0.017125 0.00755631
0.0298506 0.0175341 0.00737123
0.0352219 0.0164304 0.00791433
0.0298454 0.0159201 0.00839515
0.0317806 0.0179058 0.00718215
0.0300092 0.0183055 0.00714492
0.0358459 0.0173302 0.00744415
0.0308203 0.0199786 0.0072902
0.0300059 0.0164843 0.00785121
0.0309598 0.0175806 0.00730994
0.0220749 0.0150422 0.0125865
0.0300715 0.0167816 0.00759173
0.0356517 0.0182137 0.00713297
0.0221586 0.0147429 0.0122885
0.0292193 0.0164025 0.0079373
0.0231447 0.0149358 0.00982495
0.0310807 0.0179461 0.00720125
0.0289723 0.01554 0.00873304
0.0307155 0.0182633 0.00712648
0.022867 0.015255 0.00915692
0.0256329 0.0169368 0.007576
0.0258508 0.0178995 0.00727529
0.0253104 0.0167373 0.00770292
0.023565 0.0166333 0.00806094
0.028979 0.0149282 0.0103668
0.0346364 0.0149347 0.0101222
0.0313903 0.016613 0.00774762
0.0298164 0.0189394 0.00731282
0.0347177 0.0149863 0.00973393
0.0308689 0.0190266 0.00709859
0.0291534 0.0152105 0.00964254
0.0304501 0.0201301 0.00729539
0.030701 0.0162436 0.00813064
0.030665 0.0193662 0.00715393
0.0312265 0.0191954 0.00715814
0.0311316 0.018728 0.00705577
0.0295304 0.0152573 0.00934789
0.0295508 0.017791 0.0073072
0.0305061 0.0197414 0.00721967
0.0238972 0.0159272 0.00828659
0.0303183 0.0161489 0.00819803
0.0240063 0.0154438 0.00889871
0.0249106 0.0167293 0.00770947
0.0240926 0.018381 0.0072143
0.0234633 0.0148746 0.0100589
0.0306799 0.0178805 0.00723677
0.0230727 0.0148403 0.0102066
0.0285519 0.0148714 0.0105584
0.0250745 0.0174163 0.00742192
0.0300868 0.0190831 0.00705557
0.0243876 0.0161751 0.00810916
0.0296377 0.0181679 0.00720541
0.0241169 0.0169545 0.00755114
0.0250702 0.0178001 0.00730947
0.0296672 0.0150958 0.0100979
0.0226783 0.0147834 0.0104301
0.0238076 0.0171625 0.00740595
0.0304024 0.0164305 0.0079267
0.0296712 0.0154486 0.00902614
0.0286265 0.0149303 0.0101699
0.0304572 0.0189323 0.00705052
0.0224039 0.0146501 0.0111579
0.030353 0.0181054 0.00718692
0.0292021 0.0154875 0.00935817
0.0293787 0.0170356 0.00748028
0.0236071 0.0154534 0.00887615
0.0310224 0.0195357 0.00721359
0.0246572 0.0164332 0.0079196
0.0254287 0.017232 0.0073996
0.025479 0.0164494 0.00792364
0.029942 0.0179149 0.00726358
0.030236 0.0158671 0.0084696
0.0303565 0.0184922 0.00707687
0.02864 0.0149067 0.0113114
0.0220672 0.0146743 0.0127431
0.0299085 0.0193286 0.00731619
0.0307401 0.0186504 0.00702892
0.0243011 0.0176914 0.00732253
0.0300118 0.0186907 0.00703531
0.0250438 0.0184474 0.00719827
0.0247644 0.0156493 0.00857118
0.0238789 0.0165768 0.00781957
0.0243655 0.0155577 0.00871782
0.0299269 0.0162021 0.00812339
0.0199338 0.0141339 0.0121666
0.0256685 0.0161702 0.00813828
0.0297226 0.0185525 0.00727457
0.0235358 0.0147099 0.0108053
0.0254387 0.0185097 0.0071745
0.0252685 0.0161581 0.00813947
0.028475 0.014924 0.0109474
0.0230612 0.0151131 0.00947634
0.0232154 0.0147509 0.0105694
0.0259322 0.0171459 0.00741303
0.0252851 0.0181326 0.00724941
0.0249049 0.0170577 0.00747351
0.0238405 0.0151564 0.0093245
0.0248687 0.0161671 0.00813105
0.0234407 0.0173157 0.00745014
0.0242617 0.016482 0.00788589
0.0279655 0.0152006 0.0130531
0.0299751 0.0196963 0.00717336
0.0231876 0.0163044 0.00801649
0.0299242 0.0150655 0.00979284
0.0188257 0.018142 0.00712443
0.0247067 0.0154359 0.00890441
0.024516 0.0171068 0.00755318
0.0306189 0.0159598 0.00840032
0.0239914 0.0179413 0.00728212
0.0290699 0.0150357 0.00999243
0.0251595 0.0156131 0.00862388
0.023956 0.0149711 0.00965957
0.024214 0.0173054 0.0073821
0.0258026 0.0166406 0.00778571
0.0234411 0.0151442 0.00934089
0.0236773 0.0169214 0.00779798
0.0176255 0.0181047 0.0071964
0.0281573 0.0149749 0.0123105
0.0246146 0.0159287 0.0083274
0.0299733 0.0152056 0.00942142
0.0246138 0.0174451 0.00736239
0.0250327 0.0158746 0.00834896
0.0239926 0.0162417 0.00805863
0.0254698 0.0177833 0.00731144
0.0181255 0.0204077 0.00730654
0.0254469 0.0194373 0.00700164
0.0232586 0.0153371 0.00904184
0.0300641 0.0154041 0.00908633
0.0283092 0.0146868 0.0116097
0.0250792 0.0164375 0.00792474
0.0194893 0.0141421 0.0121531
0.0288959 0.01471 0.0106915
0.0257408 0.0174922 0.00735449
0.0238978 0.0175471 0.00734353
0.0243635 0.0180904 0.00726079
0.0246481 0.0194181 0.00702989
0.0245108 0.0167362 0.00770346
0.0316165 0.0173699 0.00734567
0.0251378 0.018903 0.00711061
0.0183384 0.0212919 0.00767579
0.0235563 0.0149691 0.00968155
0.0250999 0.0153945 0.00896512
0.0231068 0.0159882 0.00824753
0.0300553 0.020079 0.00725734
0.0316469 0.0170055 0.00750773
0.0301391 0.020461 0.00734143
0.0262388 0.0185545 0.00714145
0.0287401 0.0146217 0.0110492
0.0258483 0.0194448 0.00698786
0.0246723 0.0178396 0.00730134
0.0254578 0.0158787 0.0083542
0.0251534 0.0220799 0.00866758
0.0302702 0.0194285 0.00713919
0.0234187 0.0156479 0.00858177
0.0184815 0.0205696 0.00739559
0.0280609 0.0150757 0.0126853
0.0184612 0.0201983 0.0072482
0.0183735 0.0198317 0.00711444
0.0357592 0.0169792 0.00762508
0.0234975 0.0159189 0.00829833
0.024482 0.0184719 0.00720207
0.0228837 0.0147013 0.0107873
0.0259262 0.0182853 0.00720119
0.0238927 0.0156514 0.00857625
0.0180827 0.0175155 0.00735307
0.0301535 0.0155852 0.00874104
0.0305364 0.015678 0.00867189
0.025857 0.0186732 0.00713116
0.0238678 0.0192307 0.00707912
0.0188084 0.0188432 0.00700912
0.0179576 0.0196553 0.00712805
0.0185983 0.0217286 0.00786861
0.0177119 0.0184861 0.00711243
0.0193493 0.0194293 0.00700468
0.0174532 0.0173757 0.00745629
0.0189793 0.0218412 0.00793962
0.0229469 0.0154733 0.00883156
0.0190535 0.0210417 0.00762379
0.0311258 0.0163835 0.00801384
0.0243454 0.0149516 0.0097521
0.0185211 0.0185672 0.00704427
0.0242299 0.0151096 0.00940309
0.0282453 0.0149268 0.0119233
0.0191296 0.0200856 0.00724526
0.0187624 0.0199485 0.00716539
0.0186732 0.019571 0.00706766
0.0197828 0.0217296 0.00792013
0.0241657 0.0204685 0.0075876
0.0189839 0.0192671 0.00701594
0.0244457 0.020062 0.00723297
0.0251419 0.0198309 0.00711079
0.01863 0.020921 0.00754669
0.025538 0.018912 0.00709658
0.0228031 0.0146231 0.0111713
0.0255414 0.0198101 0.00711206
0.0253689 0.0152335 0.00921346
0.0244888 0.018998 0.00725958
0.0243084 0.0193542 0.00723565
0.0246669 0.0150323 0.00952822
0.0233537 0.0169425 0.00756405
0.0239955 0.0198172 0.00715576
0.0182364 0.0208683 0.00749887
0.0250469 0.0194447 0.00701263
0.0241798 0.0187668 0.00715473
0.0239481 0.0194847 0.00737289
0.0193789 0.0217546 0.00793193
0.0190227 0.0206723 0.00747347
0.0182113 0.0190507 0.0070518
0.0236115 0.0147879 0.0104202
0.0187376 0.021276 0.00769642
0.0178765 0.0192649 0.00709673
0.0232707 0.0166234 0.00779024
0.0201212 0.0211838 0.00769891
0.0188175 0.0203586 0.0073337
0.0237005 0.0184583 0.00720049
0.0180354 0.0182533 0.0070787
0.0242519 0.0148576 0.0101295
0.0235272 0.0176961 0.00736301
0.017937 0.0178538 0.00719714
0.0254696 0.0154754 0.00883555
0.0243634 0.019703 0.00704785
0.0223366 0.0148086 0.0115189
0.0240793 0.0201432 0.00737165
0.0248334 0.0152304 0.00922333
0.0182924 0.0194411 0.00708312
0.0175392 0.0177223 0.00727614
0.0295335 0.0151141 0.00972137
0.0236141 0.0180727 0.0072607
0.0190735 0.0214692 0.00779669
0.0185955 0.0191789 0.00705298
0.0181302 0.0186602 0.00702048
0.0183342 0.0178078 0.00720668
0.0238628 0.0148739 0.0100384
0.0247423 0.0198207 0.00709837
0.0180387 0.0200456 0.00716041
0.0190552 0.0196893 0.00708121
0.0237875 0.0188439 0.00714071
0.0177954 0.0188744 0.00706541
0.0235784 0.0162336 0.00806396
0.0230279 0.015698 0.00851094
0.0247748 0.0187399 0.00715217
0.0184283 0.0181828 0.00710435

VERTICES 296 592
1 0
1 1
1 2
1 3
1 4
1 5
1 6
1 7
1 8
1 9
1 10
1 11
1 12
1 13
1 14
1 15
1 16
1 17
1 18
1 19
1 20
1 21
1 22
1 23
1 24
1 25
1 26
1 27
1 28
1 29
1 30
1 31
1 32
1 33
1 34
1 35
1 36
1 37
1 38
1 39
1 40
1 41
1 42
1 43
1 44
1 45
1 46
1 47
1 48
1 49
1 50
1 51
1 52
1 53
1 54
1 55
1 56
1 57
1 58
1 59
1 60
1 61
1 62
1 63
1 64
1 65
1 66
1 67
1 68
1 69
1 70
1 71
1 72
1 73
1 74
1 75
1 76
1 77
1 78
1 79
1 80
1 81
1 82
1 83
1 84
1 85
1 86
1 87
1 88
1 89
1 90
1 91
1 92
1 93
1 94
1 95
1 96
1 97
1 98
1 99
1 100
1 101
1 102
1 103
1 104
1 105
1 106
1 107
1 108
1 109
1 110
1 111
1 112
1 113
1 114
1 115
1 116
1 117
1 118
1 119
1 120
1 121
1 122
1 123
1 124
1 125
1 126
1 127
1 128
1 129
1 130
1 131
1 132
1 133
1 134
1 135
1 136
1 137
1 138
1 139
1 140
1 141
1 142
1 143
1 144
1 145
1 146
1 147
1 148
1 149
1 150
1 151
1 152
1 153
1 154
1 155
1 156
1 157
1 158
1 159
1 160
1 161
1 162
1 163
1 164
1 165
1 166
1 167
1 168
1 169
1 170
1 171
1 172
1 173
1 174
1 175
1 176
1 177
1 178
1 179
1 180
1 181
1 182
1 183
1 184
1 185
1 186
1 187
1 188
1 189
1 190
1 191
1 192
1 193
1 194
1 195
1 196
1 197
1 198
1 199
1 200
1 201
1 202
1 203
1 204
1 205
1 206
1 207
1 208
1 209
1 210
1 211
1 212
1 213
1 214
1 215
1 216
1 217
1 218
1 219
1 220
1 221
1 222
1 223
1 224
1 225
1 226
1 227
1 228
1 229
1 230
1 231
1 232
1 233
1 234
1 235
1 236
1 237
1 238
1 239
1 240
1 241
1 242
1 243
1 244
1 245
1 246
1 247
1 248
1 249
1 250
1 251
1 252
1 253
1 254
1 255
1 256
1 257
1 258
1 259
1 260
1 261
1 262
1 263
1 264
1 265
1 266
1 267
1 268
1 269
1 270
1 271
1 272
1 273
1 274
1 275
1 276
1 277
1 278
1 279
1 280
1 281
1 282
1 283
1 284
1 285
1 286
1 287
1 288
1 289
1 290
1 291
1 292
1 293
1 294
1 295

POINT_DATA 296
SCALARS id int 1
LOOKUP_TABLE default
1
2
3
4
6
7
8
9
10
11
12
13
14
15
16
17
18
19
20
21
22
23
24
25
26
27
28
29
30
31
32
33
34
35
36
37
38
39
40
41
42
43
44
45
46
47
48
49
50
51
52
53
54
55
56
57
58
59
60
61
62
63
64
65
66
67
68
69
70
71
72
73
75
76
77
78
79
80
81
82
83
84
85
86
87
88
89
90
91
92
93
94
95
96
97
98
99
100
101
103
104
105
106
107
108
109
110
111
112
113
114
115
116
117
118
119
120
121
122
123
124
125
126
127
128
129
130
131
132
133
134
135
136
137
138
139
140
141
142
143
144
145
146
147
148
149
150
151
152
153
154
155
156
157
158
159
160
161
162
163
164
165
166
167
168
169
171
172
173
174
175
176
177
178
179
180
181
182
183
184
185
186
187
188
189
190
191
192
193
194
195
196
197
198
199
200
201
202
203
204
205
206
207
208
209
210
211
212
213
214
215
216
217
218
219
220
221
222
223
224
225
226
227
228
229
230
231
232
233
234
235
236
237
238
239
240
241
242
243
244
245
246
247
248
249
250
251
252
253
254
255
256
257
258
259
260
261
262
263
264
265
266
267
268
269
270
271
272
273
274
275
276
277
278
279
280
281
282
283
284
285
286
287
288
289
290
291
292
293
294
295
296
297
298
299
300

SCALARS type int 1
LOOKUP_TABLE default
1
1
1
1
1
1
1
1
1
1
1
1
1
1
1
1
1
1
1
1
1
1
1
1
1
1
1
1
1
1
1
1
1
1
1
1
1
1
1
1
1
1
1
1
1
1
1
1
1
1
1
1
1
1
1
1
1
1
1
1
1
1
1
1
1
1
1
1
1
1
1
1
1
1
1
1
1
1
1
1
1
1
1
1
1
1
1
1
1
1
1
1
1
1
1
1
1
1
1
1
1
1
1
1
1
1
1
1
1
1
1
1
1
1
1
1
1
1
1
1
1
1
1
1
1
1
1
1
1
1
1
1
1
1
1
1
1
1
1
1
1
1
1
1
1
1
1
1
1
1
1
1
1
1
1
1
1
1
1
1
1
1
1
1
1
1
1
1
1
1
1
1
1
1
1
1
1
1
1
1
1
1
1
1
1
1
1
1
1
1
1
1
1
1
1
1
1
1
1
1
1
1
1
1
1
1
1
1
1
1
1
1
1
1
1
1
1
1
1
1
1
1
1
1
1
1
1
1
1
1
1
1
1
1
1
1
1
1
1
1
1
1
1
1
1
1
1
1
1
1
1
1
1
1
1
1
1
1
1
1
1
1
1
1
1
1
1
1
1
1
1
1
1
1
1
1
1
1
1
1
1
1
1
1
1
1
1
1
1
1
1
1
1
1
1
1

SCALARS radius float 1
LOOKUP_TABLE default
0.0002
0.0002
0.0002
0.0002
0.0002
0.0002
0.0002
0.0002
0.0002
0.0002
0.0002
0.0002
0.0002
0.0002
0.0002
0.0002
0.0002
0.0002
0.0002
0.0002
0.0002
0.0002
0.0002
0.0002
0.0002
0.0002
0.0002
0.0002
0.0002
0.0002
0.0002
0.0002
0.0002
0.0002
0.0002
0.0002
0.0002
0.0002
0.0002
0.0002
0.0002
0.0002
0.0002
0.0002
0.0002
0.0002
0.0002
0.0002
0.0002
0.0002
0.0002
0.0002
0.0002
0.0002
0.0002
0.0002
0.0002
0.0002
0.0002
0.0002
0.0002
0.0002
0.0002
0.0002
0.0002
0.0002
0.0002
0.0002
0.0002
0.0002
0.0002
0.0002
0.0002
0.0002
0.0002
0.0002
0.0002
0.0002
0.0002
0.0002
0.0002
0.0002
0.0002
0.0002
0.0002
0.0002
0.0002
0.0002
0.0002
0.0002
0.0002
0.0002
0.0002
0.0002
0.0002
0.0002
0.0002
0.0002
0.0002
0.0002
0.0002
0.0002
0.0002
0.0002
0.0002
0.0002
0.0002
0.0002
0.0002
0.0002
0.0002
0.0002
0.0002
0.0002
0.0002
0.0002
0.0002
0.0002
0.0002
0.0002
0.0002
0.0002
0.0002
0.0002
0.0002
0.0002
0.0002
0.0002
0.0002
0.0002
0.0002
0.0002
0.0002
0.0002
0.0002
0.0002
0.0002
0.0002
0.0002
0.0002
0.0002
0.0002
0.0002
0.0002
0.0002
0.0002
0.0002
0.0002
0.0002
0.0002
0.0002
0.0002
0.0002
0.0002
0.0002
0.0002
0.0002
0.0002
0.0002
0.0002
0.0002
0.0002
0.0002
0.0002
0.0002
0.0002
0.0002
0.0002
0.0002
0.0002
0.0002
0.0002
0.0002
0.0002
0.0002
0.0002
0.0002
0.0002
0.0002
0.0002
0.0002
0.0002
0.0002
0.0002
0.0002
0.0002
0.0002
0.0002
0.0002
0.0002
0.0002
0.0002
0.0002
0.0002
0.0002
0.0002
0.0002
0.0002
0.0002
0.0002
0.0002
0.0002
0.0002
0.0002
0.0002
0.0002
0.0002
0.0002
0.0002
0.0002
0.0002
0.0002
0.0002
0.0002
0.0002
0.0002
0.0002
0.0002
0.0002
0.0002
0.0002
0.0002
0.0002
0.0002
0.0002
0.0002
0.0002
0.0002
0.0002
0.0002
0.0002
0.0002
0.0002
0.0002
0.0002
0.0002
0.0002
0.0002
0.0002
0.0002
0.0002
0.0002
0.0002
0.0002
0.0002
0.0002
0.0002
0.0002
0.0002
0.0002
0.0002
0.0002
0.0002
0.0002
0.0002
0.0002
0.0002
0.0002
0.0002
0.0002
0.0002
0.0002
0.0002
0.0002
0.0002
0.0002
0.0002
0.0002
0.0002
0.0002
0.0002
0.0002
0.0002
0.0002
0.0002
0.0002
0.0002
0.0002
0.0002
0.0002
0.0002
0.0002
0.0002
0.0002
0.0002
0.0002
0.0002
0.0002
0.0002
0.0002
0.0002
0.0002
0.0002
0.0002
0.0002
0.0002

SCALARS mass float 1
LOOKUP_TABLE default
9.38289e-09
9.38289e-09
9.38289e-09
9.38289e-09
9.38289e-09
9.38289e-09
9.38289e-09
9.38289e-09
9.38289e-09
9.38289e-09
9.38289e-09
9.38289e-09
9.38289e-09
9.38289e-09
9.38289e-09
9.38289e-09
9.38289e-09
9.38289e-09
9.38289e-09
9.38289e-09
9.38289e-09
9.38289e-09
9.38289e-09
9.38289e-09
9.38289e-09
9.38289e-09
9.38289e-09
9.38289e-09
9.38289e-09
9.38289e-09
9.38289e-09
9.38289e-09
9.38289e-09
9.38289e-09
9.38289e-09
9.38289e-09
9.38289e-09
9.38289e-09
9.38289e-09
9.38289e-09
9.38289e-09
9.38289e-09
9.38289e-09
9.38289e-09
9.38289e-09
9.38289e-09
9.38289e-09
9.38289e-09
9.38289e-09
9.38289e-09
9.38289e-09
9.38289e-09
9.38289e-09
9.38289e-09
9.38289e-09
9.38289e-09
9.38289e-09
9.38289e-09
9.38289e-09
9.38289e-09
9.38289e-09
9.38289e-09
9.38289e-09
9.38289e-09
9.38289e-09
9.38289e-09
9.38289e-09
9.38289e-09
9.38289e-09
9.38289e-09
9.38289e-09
9.38289e-09
9.38289e-09
9.38289e-09
9.38289e-09
9.38289e-09
9.38289e-09
9.38289e-09
9.38289e-09
9.38289e-09
9.38289e-09
9.38289e-09
9.38289e-09
9.38289e-09
9.38289e-09
9.38289e-09
9.38289e-09
9.38289e-09
9.38289e-09
9.38289e-09
9.38289e-09
9.38289e-09
9.38289e-09
9.38289e-09
9.38289e-09
9.38289e-09
9.38289e-09
9.38289e-09
9.38289e-09
9.38289e-09
9.38289e-09
9.38289e-09
9.38289e-09
9.38289e-09
9.38289e-09
9.38289e-09
9.38289e-09
9.38289e-09
9.38289e-09
9.38289e-09
9.38289e-09
9.38289e-09
9.38289e-09
9.38289e-09
9.38289e-09
9.38289e-09
9.38289e-09
9.38289e-09
9.38289e-09
9.38289e-09
9.38289e-09
9.38289e-09
9.38289e-09
9.38289e-09
9.38289e-09
9.38289e-09
9.38289e-09
9.38289e-09
9.38289e-09
9.38289e-09
9.38289e-09
9.38289e-09
9.38289e-09
9.38289e-09
9.38289e-09
9.38289e-09
9.38289e-09
9.38289e-09
9.38289e-09
9.38289e-09
9.38289e-09
9.38289e-09
9.38289e-09
9.38289e-09
9.38289e-09
9.38289e-09
9.38289e-09
9.38289e-09
9.38289e-09
9.38289e-09
9.38289e-09
9.38289e-09
9.38289e-09
9.38289e-09
9.38289e-09
9.38289e-09
9.38289e-09
9.38289e-09
9.38289e-09
9.38289e-09
9.38289e-09
9.38289e-09
9.38289e-09
9.38289e-09
9.38289e-09
9.38289e-09
9.38289e-09
9.38289e-09
9.38289e-09
9.38289e-09
9.38289e-09
9.38289e-09
9.38289e-09
9.38289e-09
9.38289e-09
9.38289e-09
9.38289e-09
9.38289e-09
9.38289e-09
9.38289e-09
9.38289e-09
9.38289e-09
9.38289e-09
9.38289e-09
9.38289e-09
9.38289e-09
9.38289e-09
9.38289e-09
9.38289e-09
9.38289e-09
9.38289e-09
9.38289e-09
9.38289e-09
9.38289e-09
9.38289e-09
9.38289e-09
9.38289e-09
9.38289e-09
9.38289e-09
9.38289e-09
9.38289e-09
9.38289e-09
9.38289e-09
9.38289e-09
9.38289e-09
9.38289e-09
9.38289e-09
9.38289e-09
9.38289e-09
9.38289e-09
9.38289e-09
9.38289e-09
9.38289e-09
9.38289e-09
9.38289e-09
9.38289e-09
9.38289e-09
9.38289e-09
9.38289e-09
9.38289e-09
9.38289e-09
9.38289e-09
9.38289e-09
9.38289e-09
9.38289e-09
9.38289e-09
9.38289e-09
9.38289e-09
9.38289e-09
9.38289e-09
9.38289e-09
9.38289e-09
9.38289e-09
9.38289e-09
9.38289e-09
9.38289e-09
9.38289e-09
9.38289e-09
9.38289e-09
9.38289e-09
9.38289e-09
9.38289e-09
9.38289e-09
9.38289e-09
9.38289e-09
9.38289e-09
9.38289e-09
9.38289e-09
9.38289e-09
9.38289e-09
9.38289e-09
9.38289e-09
9.38289e-09
9.38289e-09
9.38289e-09
9.38289e-09
9.38289e-09
9.38289e-09
9.38289e-09
9.38289e-09
9.38289e-09
9.38289e-09
9.38289e-09
9.38289e-09
9.38289e-09
9.38289e-09
9.38289e-09
9.38289e-09
9.38289e-09
9.38289e-09
9.38289e-09
9.38289e-09
9.38289e-09
9.38289e-09
9.38289e-09
9.38289e-09
9.38289e-09
9.38289e-09
9.38289e-09
9.38289e-09
9.38289e-09
9.38289e-09
9.38289e-09
9.38289e-09
9.38289e-09
9.38289e-09
9.38289e-09
9.38289e-09
9.38289e-09
9.38289e-09
9.38289e-09
9.38289e-09
9.38289e-09
9.38289e-09
9.38289e-09
9.38289e-09

VECTORS velocity float
0.00558366 -5.01752e-05 0.000392511
0.00590673 -0.000341011 0.000334578
-0.00110907 -0.00117566 0.00216418
0.00608604 -1.95881e-05 0.000432148
0.00572137 7.11703e-05 9.96378e-05
0.00663096 -0.000878282 -0.00109191
0.00565117 -1.59299e-05 0.000708071
0.00604207 -0.000121039 7.0368e-05
0.0060683 -0.000692615 3.39842e-05
0.00594659 -0.000144037 0.000323945
0.00605853 -0.000196036 -0.000132898
0.00546888 -0.000231636 0.000670429
0.00356302 -0.00186751 0.00986801
0.00606377 -0.000823199 -5.1902e-05
-0.0106407 -0.050689 -0.0595058
0.00605214 -0.0002131 -0.000201498
0.00595338 -0.000129805 -3.15272e-07
0.00556206 -0.000201926 0.000550379
0.00614124 -0.000458873 0.000204636
0.00565366 -0.000202416 0.000576782
0.00572157 -0.000158473 7.16105e-05
0.00582264 -0.000605951 0.000217929
0.00611308 0.000177115 -0.000184612
0.00540652 -0.000481298 0.00052539
0.00576218 -0.000114611 -3.46281e-05
0.00570564 -4.06599e-05 0.000279808
0.00596754 -0.000113166 4.38472e-05
0.00586559 0.000122882 0.000174467
0.00605485 -0.000186038 -0.000199747
0.00568063 -4.67278e-05 0.00036347
0.00542471 0.000108184 0.000198977
0.00410544 -0.00297508 0.0092331
0.00503531 -0.000213304 0.000573838
0.00612805 -0.00012154 6.00236e-05
0.00574192 -0.000218134 0.000130474
0.00523491 -0.000355633 0.000707152
0.00594997 5.40114e-05 0.00015379
0.00388831 -0.00286731 0.00909075
0.0056726 -0.000183419 0.000484033
0.00597798 1.76775e-05 0.000247476
0.00596863 -0.000267939 -0.000209249
0.00606568 -8.4989e-05 4.07542e-05
0.00525588 9.91058e-05 0.000686153
0.00558383 -4.58792e-05 -4.04966e-05
0.00568772 -0.000204729 0.000620605
0.00617466 0.000115712 0.000352153
0.00411475 0.00293287 0.0100617
0.00605438 -3.97383e-05 0.000180568
0.00601724 8.90644e-05 0.000438806
0.00597913 -0.000242544 -8.49598e-05
0.00599578 -3.46339e-05 0.000130019
-3.29524e-05 -0.000329861 0.000547799
0.00937879 -0.00145108 0.00446089
0.00665783 -0.00163994 0.00241392
0.00588306 -0.000135621 -2.63282e-05
0.00599769 -0.000243592 0.000134149
0.00566513 -8.84342e-05 -4.90716e-05
0.00532048 0.000169569 0.000128801
0.00612678 -0.00017498 -0.000208086
0.00590526 -0.000235416 -0.000220391
0.00610988 0.000183892 -0.000194249
0.0055997 -0.000201635 0.000349465
0.00534536 0.00023426 0.000105536
0.00606082 -0.00015609 -0.000201699
0.00456437 0.000203519 0.00554066
0.00622634 -9.75632e-05 -0.000156336
0.00599171 -0.000109412 6.84025e-05
0.00334369 0.00469549 0.0104997
0.00567346 -0.000625645 0.00013417
0.00625036 -0.00300196 0.0117461
0.00605456 -0.000126041 -0.000124383
0.00561283 -0.00015751 0.000581447
0.00609352 -0.000528331 -0.000111255
0.00429752 -0.00461933 0.0111412
0.00544273 -0.00272402 0.000710102
0.00818943 0.000958651 -0.000390845
0.00493658 -0.00146593 0.00124294
0.00539698 -0.00277917 0.00356958
0.00449705 -5.20173e-05 0.000245044
0.00581217 -0.000130347 9.48058e-05
0.00583311 -0.000237905 -3.87799e-05
0.00606 -0.000538022 0.000244289
0.00598883 -0.000132144 0.000110815
0.00597803 6.82358e-05 0.000421279
0.00572647 -0.00018181 0.000524716
0.00561084 -0.000185775 0.00035291
0.00537064 0.000133038 0.000201436
0.0058853 4.96621e-05 0.000424713
0.0059572 8.10277e-05 0.000435588
0.0060348 4.71535e-05 0.000426075
0.00567669 -0.000367941 0.000176083
0.0057943 -0.000542586 0.000256361
0.00557846 -0.000155513 0.000358398
0.00513962 -0.00179214 0.00142374
0.00530611 -4.56039e-07 0.000245532
0.00621621 -0.000860416 0.00124374
0.00481012 -0.00125309 0.000866265
0.00476377 -0.0067219 0.00118037
0.00858224 -0.00210658 0.00903728
0.00583098 -0.000582881 -7.04218e-05
0.00746802 -0.00238611 0.012287
0.00568286 -0.000124449 0.000610235
0.00632487 -0.00144607 0.000628634
0.006041 -0.000460918 0.000286689
0.00794561 -0.00293407 0.00226152
0.00579404 -0.000512396 0.000142396
0.00745784 -0.00281564 0.00192304
0.00870232 -0.00128223 0.000238905
0.00579179 -0.000379713 0.000188577
0.00374683 -0.00250069 0.00955391
0.00490583 -0.00563065 0.00396432
0.00542792 -2.58945e-05 0.000292598
0.00564782 -0.000132395 0.000345863
0.00567204 -8.42584e-06 0.000686166
0.00607882 -0.000442743 0.000307084
0.0033982 -0.000735157 0.0102093
0.00595489 -0.000244103 -0.000187027
0.00573624 -0.000138072 0.000511578
0.0058349 -0.000686427 0.000167067
0.00611699 -0.00158536 0.00249475
0.00586952 9.46683e-05 0.000427318
0.0075916 -0.000745032 0.000903747
0.00603435 -0.0024099 0.000459882
0.00576062 -0.00110741 0.000959704
0.0058951 -0.000367908 7.94203e-05
0.00540259 1.55117e-05 0.000257927
0.00557256 -0.000149911 -0.000197523
0.00804181 0.00197909 -0.000429017
0.00495584 0.000267796 0.00569239
0.00598067 -0.000469401 0.000280705
0.00611117 -0.000454166 0.00011433
0.00686264 -0.00294152 0.000496062
0.00549442 -0.000303352 -0.000142921
0.00790558 -0.000983274 -5.76874e-05
0.00850923 -0.00179566 0.0028711
0.00603214 -0.00529813 0.0038983
0.00618282 -3.53242e-05 -9.86694e-05
0.00530163 0.000158852 0.000112957
-1.22918e-05 -0.000157901 0.000168579
0.00619604 -0.00100337 0.000882577
0.00580026 -0.000477899 0.000135957
0.0116273 -0.00199187 0.00925748
0.00676634 0.00178974 -0.000541998
0.0069056 0.000109896 4.37472e-05
0.00581434 -6.5011e-05 0.000546205
0.00557681 -0.00357855 0.0112575
0.00983999 -0.0021029 0.0114861
0.00517209 -0.00369202 -0.000603102
0.00893875 -0.000391274 -0.000248948
0.006396 -0.00151627 0.000938793
0.00619158 -0.00111841 0.00219409
0.00650223 -0.000954595 0.000866032
0.00403538 -0.00723427 0.00481249
0.00672361 -0.00351435 0.00235891
0.00512128 0.00131006 0.00134612
0.00554137 -0.000464074 0.000276477
0.00398422 -0.00749223 0.0062716
0.00580384 -0.000398834 0.000225278
0.00525544 -0.00100178 0.000342125
0.00708145 -0.00187263 0.0027781
0.00633613 -0.00270426 0.000684101
0.00534665 0.0001165 0.00018374
0.00458819 -0.00506208 0.000828062
0.00573707 -0.000213562 0.00052162
0.00577112 -0.0005938 0.00086412
0.00583819 -0.000791914 0.0024941
0.00552879 -0.00411578 0.000930748
0.00377361 0.00210086 -0.00151105
0.00643661 -0.00368407 0.00883712
0.00400626 -0.0064852 0.00482251
0.00509743 -0.00352739 0.00147593
0.00512078 0.00053178 0.00171967
0.00858503 -0.00206378 0.00244836
0.00584282 -0.000301858 0.000247475
0.00899116 -0.00085362 0.000172359
0.00659334 -0.000688939 0.00069119
0.00447772 -0.00216395 0.000820102
0.00871526 -0.000695631 0.000112151
0.0050783 -0.00375344 -0.00114826
0.00292146 0.000395339 -0.000163514
0.00400648 -0.00567386 0.00884928
0.00567103 -7.85166e-05 0.00028669
0.0063773 0.000784931 0.000879873
0.00595113 -0.000812077 0.000701238
-2.60326e-05 -0.000259651 0.000431774
0.00483599 6.27949e-05 0.000359394
0.00732105 -0.00219088 0.000235831
0.00411294 -0.00587163 0.00246207
0.00668384 -0.00525056 0.000858128
0.0030594 -0.0011541 0.000120419
0.00470467 -0.0024941 0.000949686
0.00593505 -0.000116045 0.000320931
0.00280782 0.00132686 -0.000333694
0.0027454 -0.013667 -0.00530036
0.00869299 -0.00241576 0.0088538
0.00678661 -0.00318132 0.00489624
0.00370725 -0.00733078 0.00718528
0.00568024 -0.000455022 0.00030406
0.00573351 -0.000157368 0.000331041
0.00585009 -0.00044682 0.000319465
0.00168581 0.000513191 -0.000147255
0.0051389 0.000129379 0.00044392
0.00131013 0.000678634 -0.000158232
0.00825296 -0.00370333 0.0006006
0.00640655 -0.000275034 0.000348513
-0.00213269 0.000302689 -0.000276423
0.00578985 -0.000289753 0.000325056
0.00540429 -0.00176231 0.00279885
0.00510188 -0.00375948 -0.00116586
0.00444508 0.0017238 0.0012385
0.00507487 -0.00377911 -0.00109847
0.00504462 -0.0038968 -0.000733875
0.00590334 -0.000101382 -4.12371e-05
0.00525524 -0.00241369 0.00202084
0.00360979 -0.000934 0.000226403
0.00377362 -0.000454803 0.00252125
0.00159597 0.00224208 -0.000476807
0.00500136 -0.00117614 0.00169442
0.0048658 -0.00364794 0.00157883
0.00555871 2.95108e-05 0.000301964
0.00545749 0.000104289 0.00020304
0.00224352 0.00219687 -0.000475432
0.00375954 -0.0064648 0.000388233
0.00514611 -0.0040491 0.000835557
0.00484389 -0.00385834 -0.00072624
3.44605e-12 2.04178e-11 8.22397e-12
0.00505487 -0.00374838 0.00049561
0.00506974 -0.00388115 -0.000743436
0.00509488 -0.00352405 0.00149957
-5.55583e-15 -3.29181e-14 8.20299e-14
0.00344131 -0.00619731 0.0093748
0.00467989 -0.00279237 -0.000803721
0.00544445 0.000152385 0.000151757
0.00624234 -0.00159576 0.00301099
0.00505174 -0.00396498 0.000815575
0.00623641 -0.00149511 0.00247434
0.00571494 -0.000264179 0.00178325
0.00505492 -0.00384358 -0.00119857
0.00503272 -0.0038019 -0.00118468
0.00502034 -0.00389297 -0.000771837
-2.75777e-15 4.54914e-14 -1.16448e-13
-0.000589674 -0.0222402 -0.0111331
0.00497789 -0.00364381 -0.000704039
0.00648503 -0.0130787 -0.0119533
0.00769428 -0.00387666 -0.00124555
0.0054456 -0.00564845 -0.00189856
0.00370761 0.00361115 -0.000789343
0.00380218 -0.000435995 0.00258685
0.0078619 -0.00110143 -0.000204612
0.00418876 -0.00454197 0.00707016
0.00412773 -0.00484947 0.00100297
0.00133265 -0.00625424 0.000578705
0.00587297 -0.00177186 0.00271796
0.00397202 -0.00738127 0.00515844
0.000226451 -0.0182873 -0.0225666
0.00510256 -0.00376007 -0.00116446
0.00297278 0.000711693 -0.00022443
0.00537626 -0.00652417 0.00131152
0.0038869 -0.00648219 -0.000804709
-1.66672e-14 -9.87522e-14 2.46084e-13
0.00383322 -0.0027076 -0.000827733
0.0046896 -0.00382078 -0.000707581
0.00978238 -0.00140809 0.00913798
0.00289643 -0.00491238 -0.00177485
0.0046609 -0.0038179 -0.000702276
0.00402052 -0.00755103 0.0054984
-2.7583e-15 4.54913e-14 -1.16448e-13
0.0048225 -0.00327955 -0.000980245
0.00453533 -0.00695452 0.00220795
0.00499258 -0.00387207 0.000816086
0.00799527 -0.000963916 0.00308785
0.00391896 -0.0070563 0.00402002
0.00505269 -0.00359024 0.00155324
0.00567383 -0.00059506 0.000882727
0.0085683 -0.00944467 -0.00319779
0.00381864 0.000927029 0.0098379
0.000499412 -0.0195049 -0.0182895
0.00665805 -0.00197415 0.00298733
0.00482911 -0.00385359 -0.000721417
0.00516165 -0.00353868 0.00150437
0.00573812 -0.000403138 0.000165684
0.00358672 -0.00688721 0.00318244
4.47715e-07 6.00384e-07 2.71254e-07
0.00518626 -0.00399412 0.000734371
0.00464129 -0.00381445 -0.000700649
0.00503468 -0.00373788 0.00161392
0.00795734 -0.00141566 0.0038681
0.00775684 -0.00704709 -0.00235341
0.00503679 -0.00389053 -0.000797715
0.00501195 -0.0038202 -0.0011913
0.00517195 -0.00693344 0.00132314
0.00466434 -0.00381812 -0.000704447
0.00512914 -0.00286744 0.00198846
0.00345435 -0.00699401 0.008214
0.00592645 -0.00267036 0.00036868
0.00495922 -0.00394448 0.000815881

VECTORS force float
-1.43665e-08 -2.55629e-08 1.72242e-08
-1.12158e-08 -6.63957e-09 1.91168e-08
-8.96646e-10 -1.06425e-09 2.00785e-09
-8.61551e-09 8.70816e-09 -6.06686e-10
-2.04934e-09 4.26071e-10 1.43786e-09
0.0 0.0 -9.20462e-08
-4.41049e-09 8.76252e-09 8.14483e-09
1.88825e-09 1.53515e-09 -1.98663e-10
-2.18712e-08 -2.27029e-08 8.21548e-09
5.98683e-09 -4.11791e-09 3.61586e-09
1.48249e-09 2.67756e-09 -9.35749e-09
-1.91069e-08 -6.68665e-08 8.28091e-09
-4.63326e-10 1.75104e-08 -1.55037e-08
3.45127e-09 3.88137e-08 9.67314e-09
0.0 0.0 -9.20462e-08
1.43186e-09 7.28687e-09 5.26042e-09
5.25559e-10 1.26141e-10 1.55108e-09
-2.35523e-08 -5.15753e-08 4.17524e-08
5.50327e-08 1.85231e-08 -5.81955e-08
3.63523e-09 -1.55029e-08 9.28852e-09
1.84111e-09 -5.80482e-09 1.99624e-09
3.32304e-09 -2.40445e-08 -3.1419e-08
2.36161e-10 -7.82137e-10 1.67307e-09
4.75969e-08 4.95395e-08 -4.90034e-08
1.89152e-09 7.48645e-10 -1.09382e-09
3.07306e-09 3.556e-09 1.02502e-09
-4.70419e-10 -4.00181e-10 -2.8196e-10
-1.35859e-09 -4.1244e-09 4.45334e-09
1.32047e-08 1.80384e-09 -4.39995e-09
-9.3637e-09 4.23247e-09 1.07587e-09
1.44288e-08 -7.08029e-09 7.99216e-09
-5.67905e-09 1.47104e-08 -3.29625e-09
7.64251e-08 -5.68885e-08 -7.14959e-08
-1.05452e-08 5.28187e-09 3.89818e-10
-4.72584e-10 -1.00177e-08 -5.87782e-09
3.57605e-09 -1.51671e-08 1.51951e-08
-2.6156e-09 -4.21327e-09 4.10206e-09
-3.34139e-08 2.44126e-08 2.89838e-08
1.72422e-10 -3.57075e-08 2.36925e-08
-1.19787e-09 2.3475e-09 -8.63784e-09
-2.71737e-09 -2.93355e-09 3.90403e-09
9.55665e-09 -3.50142e-09 8.26864e-09
-2.61195e-08 -1.55168e-10 -5.13168e-09
-2.21129e-09 4.14216e-09 -4.5146e-11
4.91236e-09 -1.12233e-08 7.18761e-09
3.68431e-09 7.35249e-09 -6.44756e-09
-3.34107e-08 -2.21241e-08 8.04254e-08
2.89496e-10 -3.2484e-10 1.38909e-09
-9.33995e-09 -3.89478e-09 -2.2285e-09
2.69467e-09 1.64133e-08 4.95372e-11
-3.40979e-09 -1.8362e-09 5.46808e-10
-1.38653e-10 -1.38643e-09 2.35708e-09
-2.84304e-07 2.03666e-07 1.60576e-07
-4.40505e-08 -5.09832e-09 -9.31027e-09
-2.03712e-09 -5.03134e-10 1.23622e-10
2.27663e-10 -4.13094e-09 -5.53305e-09
2.63374e-09 3.84252e-09 -7.6363e-10
-2.39276e-08 1.52238e-08 -1.84707e-08
-3.64908e-09 -6.72535e-09 7.23311e-10
3.88127e-09 -8.25353e-09 -5.95906e-09
2.97211e-09 1.76964e-10 -4.0582e-10
-4.62256e-09 2.18447e-08 4.67594e-09
3.0612e-09 1.26395e-09 -1.37445e-08
6.62907e-09 -1.81601e-09 -6.79407e-09
-4.04733e-11 -3.36491e-10 1.4724e-09
7.89109e-09 1.65681e-09 -1.57065e-08
-2.08632e-10 -2.51615e-10 -1.29722e-09
-3.0269e-08 2.77895e-08 1.06475e-07
6.21058e-08 4.29148e-08 -6.12255e-08
-2.34577e-08 2.58538e-08 9.45618e-08
1.25197e-08 -2.77069e-09 -7.54277e-09
-5.89889e-10 -1.64447e-08 2.84826e-08
-4.48118e-09 -1.461e-08 7.7446e-09
5.90828e-08 7.48893e-09 3.95291e-08
-4.13689e-08 3.5942e-08 -1.69347e-07
-7.67113e-09 2.37782e-08 2.01786e-08
4.53867e-08 -9.59169e-09 -2.10351e-08
5.0242e-08 -1.18276e-08 -7.18125e-08
2.02048e-09 -7.92202e-09 -5.16015e-10
-1.7701e-09 2.29495e-09 -3.99605e-09
-6.97386e-09 -4.36769e-10 5.77633e-11
-7.99361e-09 -4.64006e-09 3.20844e-09
7.86233e-09 -1.79439e-10 -4.57564e-09
-6.15337e-09 -1.66394e-09 -2.54317e-09
1.08799e-08 5.8992e-10 -1.70997e-09
-1.10594e-08 9.79212e-10 2.9215e-10
-4.30427e-09 -2.0442e-10 1.21801e-08
7.38812e-09 7.71859e-11 6.27576e-10
-1.93551e-09 -5.0595e-09 1.35991e-09
-1.43014e-08 4.07249e-09 -1.14831e-09
7.72777e-09 3.96353e-09 5.90131e-09
1.0588e-08 -7.7265e-09 4.79925e-09
-4.25498e-10 6.8623e-09 2.43078e-09
-7.90773e-08 -3.91167e-09 -1.58291e-08
-6.40606e-09 -5.5e-10 -2.57526e-09
-2.44804e-08 1.39811e-08 -1.54773e-08
6.61687e-08 4.01671e-08 1.70361e-08
4.66257e-08 -5.74981e-08 -4.31206e-08
-7.35515e-08 -2.06444e-08 -4.84701e-08
-4.52259e-08 -2.11924e-08 1.89566e-08
-4.54891e-09 -6.8882e-08 9.10394e-08
6.99577e-09 6.63945e-10 6.75768e-09
-1.33718e-07 4.6158e-08 -3.81029e-08
-2.15814e-08 9.73999e-09 6.06682e-10
6.08355e-08 -1.02275e-07 2.69251e-08
-1.97737e-10 -1.24481e-08 -6.88605e-09
5.48446e-08 -1.10005e-07 9.6029e-08
3.29526e-08 1.60247e-08 1.57065e-09
-7.36537e-09 4.00673e-09 -6.45935e-09
-2.7328e-09 2.61834e-08 -2.37641e-08
2.60876e-08 -1.47389e-07 4.31502e-08
-4.59876e-09 4.12842e-10 2.32063e-09
6.01314e-09 -2.5957e-08 1.63707e-08
7.80009e-09 1.15956e-09 -7.31904e-10
-3.82503e-08 2.3696e-08 -9.40676e-09
-1.15515e-08 2.88411e-08 1.08195e-08
3.92786e-09 1.779e-08 -9.59812e-09
8.35315e-09 -5.06888e-09 2.55953e-09
-5.99414e-09 -7.8335e-09 3.40161e-08
1.6188e-10 6.42443e-09 -6.78869e-09
1.62268e-08 8.266e-09 3.97678e-09
6.49084e-08 6.00959e-08 1.91404e-08
-1.67082e-07 3.97277e-08 -3.76023e-08
1.26306e-07 4.80675e-08 -3.81315e-08
3.69173e-09 5.74788e-09 9.4486e-09
-6.13148e-09 2.79301e-09 -5.19002e-09
-3.03108e-09 -8.65741e-09 1.00497e-09
-6.42212e-10 4.08283e-09 -1.03039e-08
-1.10893e-10 -4.43859e-10 8.37987e-10
-1.18442e-08 6.58892e-09 -1.11408e-08
-2.34199e-08 1.5749e-08 1.18847e-08
-4.23546e-08 3.19113e-08 -4.80688e-09
1.90238e-08 4.85855e-09 -7.21662e-09
3.13421e-08 -5.32791e-08 9.38939e-09
1.16354e-07 -5.83611e-08 1.01101e-07
2.53937e-07 -3.17371e-08 6.06241e-08
-2.56232e-08 4.36562e-08 -6.39667e-08
3.76454e-09 5.98903e-09 -4.65988e-09
-8.34957e-10 -8.04338e-09 3.02218e-09
1.00049e-09 -3.06322e-08 2.64782e-08
1.80838e-08 -6.79518e-09 -1.00781e-09
7.6112e-08 9.78128e-10 5.78602e-08
-4.0844e-08 4.99992e-09 3.3128e-10
-3.40165e-08 -3.34353e-08 4.57333e-09
-1.5768e-09 -3.32589e-09 9.34841e-09
1.84023e-08 1.11978e-07 1.1963e-07
4.90421e-08 -8.47195e-08 8.20404e-08
7.50552e-09 -3.95143e-09 -9.5331e-08
2.17802e-08 -2.17294e-08 -1.56527e-08
7.07914e-08 5.46539e-09 -6.37444e-08
-1.89582e-09 3.19416e-08 1.22624e-08
-2.93598e-08 -8.94566e-08 6.39438e-08
1.07148e-08 9.1617e-09 -5.53723e-10
1.60421e-07 -7.61681e-08 1.83843e-08
-2.18201e-08 -2.88593e-09 2.94736e-08
-7.33261e-09 -1.92331e-09 -3.007e-09
-2.85326e-08 1.45394e-08 3.43452e-08
-1.10123e-08 2.69608e-09 -6.68934e-09
-4.32864e-09 3.41704e-09 5.62335e-10
4.22726e-08 -1.51451e-08 2.52267e-08
1.22092e-07 -1.95075e-07 3.16924e-08
-3.57858e-09 -2.29305e-09 8.51926e-09
-2.25241e-08 3.48656e-08 -3.00307e-08
-6.13635e-09 1.56478e-09 2.47714e-09
4.83839e-08 -1.2381e-08 4.55964e-10
-3.59636e-08 3.67369e-08 4.92651e-08
1.51474e-07 -1.96622e-07 7.24269e-08
-3.14677e-08 2.74041e-08 -2.11961e-08
-3.42982e-08 6.67099e-08 9.39649e-08
1.54011e-07 -1.36561e-07 -7.18923e-08
-1.29026e-09 -2.128e-09 -9.20145e-10
-2.38011e-08 -3.07458e-09 -4.78475e-08
-4.53151e-08 -1.68858e-07 1.35947e-07
3.90048e-09 -9.45069e-09 -1.24506e-08
-4.81395e-08 1.93229e-08 1.65607e-09
7.5251e-08 -5.34344e-08 2.3587e-08
4.10451e-08 7.40936e-09 -7.67801e-09
2.73969e-08 -1.3382e-09 4.93941e-09
2.41753e-10 -4.53012e-10 -9.00107e-10
-4.23498e-08 1.0612e-08 7.96944e-11
1.31031e-08 1.42286e-08 6.88058e-08
7.33752e-09 -4.10998e-09 -8.84167e-09
4.40625e-08 1.02865e-08 2.38879e-08
1.80792e-08 1.14819e-08 -1.38629e-08
-1.53919e-10 -1.43398e-09 2.50993e-09
1.75183e-08 -1.14845e-08 -2.25333e-08
5.0476e-08 1.09262e-08 -1.05675e-08
9.13895e-08 -1.40076e-07 7.78403e-08
7.23411e-09 -6.4564e-08 8.97802e-09
-3.93493e-08 3.2635e-08 -5.09674e-09
1.38018e-07 -1.26497e-07 -5.33493e-08
1.5838e-08 -2.12869e-09 -7.94863e-10
-3.79491e-08 -2.58513e-09 1.64076e-09
-2.27107e-09 2.50914e-09 -2.12426e-11
-2.21869e-08 1.70107e-08 -7.1377e-09
-2.08348e-08 -1.22337e-07 1.66102e-07
-1.41825e-08 1.22908e-08 4.2284e-08
-5.83897e-09 -9.13826e-09 -2.87914e-09
1.20829e-08 -8.83849e-09 5.66818e-09
-8.44234e-09 -1.53724e-08 -4.78533e-09
-3.07804e-08 -2.98841e-09 1.38113e-09
-5.40013e-09 -4.61389e-09 -4.00133e-08
-6.20998e-08 -4.93173e-08 5.60149e-08
5.97852e-08 3.79594e-08 -7.15955e-09
-3.95045e-08 4.42588e-08 -4.20419e-08
-3.6314e-07 1.19364e-07 1.22367e-07
-1.34375e-09 4.81979e-09 3.73911e-09
-2.97444e-08 5.38514e-08 -4.36627e-08
-1.12288e-09 -5.10499e-10 6.43769e-10
4.21313e-08 1.37096e-08 -1.00265e-07
-7.81811e-10 -3.24806e-09 1.87578e-09
-6.81346e-09 -5.69901e-09 1.45091e-09
-1.07617e-09 -1.93813e-09 7.60243e-11
-2.9848e-08 5.86103e-08 -6.16118e-08
-1.60966e-08 1.71453e-08 5.37739e-09
-2.40164e-08 7.95916e-09 -5.29449e-08
2.60127e-10 3.97948e-09 -3.69378e-10
4.76024e-08 -2.08828e-10 -1.33555e-08
-1.49931e-09 1.29045e-09 -1.34804e-10
3.67771e-09 8.73052e-10 -1.16556e-09
4.97653e-09 -3.3049e-09 1.55195e-09
-7.18939e-09 -3.93042e-08 9.15864e-09
5.19276e-09 -2.6e-08 -1.69684e-08
-2.75205e-09 2.14766e-09 -6.55725e-09
4.62491e-10 -1.04687e-09 -1.65929e-09
3.2359e-16 1.91725e-15 7.77176e-16
-4.14308e-10 -2.70743e-09 -3.06722e-09
2.98656e-09 7.4025e-09 -3.82072e-10
1.50684e-10 2.73105e-09 -1.28e-09
4.1359e-24 6.61744e-24 0.0
2.53545e-08 1.37172e-09 3.43553e-08
-1.91782e-08 4.44854e-09 3.57491e-10
1.39861e-08 -1.48477e-08 1.79568e-08
6.1975e-08 4.04198e-08 -4.43215e-08
-1.7479e-09 5.76556e-09 6.88232e-10
4.11565e-09 -4.38564e-09 4.11155e-08
6.96724e-09 -1.65568e-09 5.38124e-09
-6.11192e-09 -4.3562e-09 -1.04051e-09
-2.11478e-09 -1.28912e-09 -3.40892e-09
-4.96923e-09 -8.54557e-09 2.76265e-08
5.06235e-22 0.0 -1.32349e-23
7.35339e-08 -7.43771e-09 -1.7617e-08
2.8487e-09 -1.11191e-08 -1.47522e-09
0.0 0.0 -9.20462e-08
-2.74296e-08 -2.03254e-08 -1.27364e-08
1.08968e-09 5.16864e-09 2.10556e-09
-6.08426e-08 1.63009e-08 -2.6609e-09
-6.26702e-09 1.48381e-08 -9.3419e-08
-7.08181e-09 -2.0241e-08 -7.58203e-09
-1.18964e-07 -1.80797e-07 2.93715e-07
1.00061e-07 -3.08491e-08 -2.50697e-10
1.32122e-07 -1.71337e-08 -8.30668e-08
-3.15921e-08 3.20984e-08 -6.61469e-08
4.31721e-08 -2.89247e-08 2.73022e-09
-1.47631e-08 -3.80262e-08 4.53808e-08
1.53943e-09 4.52129e-09 2.21637e-09
-4.12689e-08 6.26449e-09 3.23603e-10
6.39917e-08 -1.15274e-08 -2.62086e-08
-2.76002e-08 -1.07123e-07 2.68359e-10
-1.98523e-23 0.0 -1.32349e-23
-4.34166e-09 3.47279e-09 1.2768e-09
-5.94631e-11 3.57145e-09 1.79698e-10
-1.80958e-10 4.19384e-11 -9.21682e-08
-9.13622e-09 8.76175e-09 3.00387e-09
-2.373e-09 -2.58057e-09 -1.13032e-10
-5.69201e-09 1.8963e-08 4.29355e-08
-4.504e-22 -3.97047e-23 0.0
1.77509e-09 -1.74566e-09 9.5239e-10
8.56655e-08 1.0722e-08 -6.2593e-08
8.66946e-10 3.15228e-10 1.08749e-09
-4.4628e-08 9.51971e-09 -7.54683e-08
2.888e-08 -6.20389e-09 -1.37891e-07
-1.87506e-09 -1.23728e-11 3.98484e-10
1.14162e-08 -4.29565e-09 1.73226e-08
-3.92269e-08 7.21245e-08 2.30351e-08
-3.27775e-08 -1.65894e-08 5.80812e-08
3.14447e-08 1.48433e-08 2.08159e-08
3.92007e-08 -1.05648e-09 -2.52549e-08
7.90832e-09 2.47409e-09 3.06555e-11
4.01058e-09 1.3612e-09 7.06443e-10
-4.53928e-09 -2.7089e-09 -3.55743e-09
4.52554e-08 6.80523e-09 -1.66138e-07
-3.50563e-10 -3.92014e-10 -1.81057e-10
-1.26562e-09 -2.54426e-09 -1.02771e-08
1.6782e-09 2.35899e-09 -1.09482e-09
-2.52244e-09 6.57728e-09 -3.253e-09
-9.73944e-09 1.40857e-08 1.74848e-08
-2.65448e-08 1.4268e-08 7.75738e-09
-9.64922e-10 2.88466e-09 -1.12742e-08
2.72481e-09 2.70528e-09 2.02635e-09
4.14448e-09 3.21164e-08 -8.1063e-08
-2.18603e-09 -8.36817e-10 -3.09218e-10
6.28489e-09 -7.98119e-09 3.95903e-09
-4.8979e-09 2.44354e-08 5.70607e-08
8.08709e-08 -3.30986e-08 -9.60263e-09
-3.54192e-09 9.898e-09 1.14026e-08
