# vtk DataFile Version 3.0
LIGGGHTS particles timestep 1400000
ASCII
DATASET POLYDATA
POINTS 223 float
0.0218055 0.0162972 0.00799502
0.0219888 0.018823 0.00721386
0.0160748 0.0209085 0.00738531
0.0237805 0.0186975 0.00716348
0.0270402 0.0163832 0.0080043
0.0187282 0.0231032 0.0106787
0.0210223 0.0162916 0.00799451
0.027704 0.0192673 0.00696491
0.0217544 0.0183188 0.00719031
0.0236503 0.0179064 0.00728584
0.0233836 0.0186482 0.00716917
0.0213692 0.0176846 0.0073409
0.0161539 0.0197285 0.00724868
0.0216733 0.0190608 0.00714902
0.0156063 0.0187562 0.00713194
0.0225442 0.0183413 0.00720819
0.0274649 0.0181167 0.00720533
0.0215223 0.0167493 0.00768117
0.0217751 0.0178334 0.00728189
0.0211929 0.0169325 0.00754748
0.0228775 0.0173769 0.00736431
0.021835 0.0198368 0.00717672
0.0278503 0.0182404 0.0071815
0.0216924 0.0174482 0.0073505
0.0272935 0.0173551 0.00737999
0.0206133 0.0162464 0.0157316
0.0275505 0.0184983 0.00712117
0.0269594 0.01607 0.00823956
0.0232032 0.0176066 0.00733022
0.0224404 0.0171874 0.0074383
0.0227936 0.0170162 0.00751536
0.0174156 0.0230474 0.0104216
0.0214507 0.0180645 0.00724599
0.0277868 0.0196351 0.00709855
0.0220911 0.0180752 0.00724118
0.0216044 0.0170748 0.00746367
0.0268736 0.0157575 0.00847391
0.0172514 0.023324 0.010957
0.0214387 0.0164241 0.00789835
0.0221675 0.0184676 0.00725455
0.0228509 0.0177936 0.00729938
0.0232674 0.0180204 0.00726619
0.0206108 0.0151261 0.00953861
0.0271266 0.0166871 0.00775899
0.0211073 0.0166075 0.00776444
0.0225252 0.017564 0.00733345
0.0181311 0.0237288 0.0116495
0.0231636 0.0189781 0.00711641
0.0235605 0.0190274 0.00711109
0.0223778 0.0188288 0.00712068
0.0267955 0.0155102 0.00877842
0.0156936 0.019157 0.00718056
0.0158816 0.0200192 0.00728515
0.0184458 0.0206773 0.00743641
0.0273794 0.0177359 0.00729262
0.022041 0.0191843 0.0070503
0.0272068 0.016985 0.00750444
0.0218892 0.0166225 0.00777779
0.0235578 0.0182925 0.00722535
0.0222149 0.019962 0.00717699
0.0277646 0.0178595 0.00726878
0.0255863 0.0221108 0.0142938
0.0220594 0.0172907 0.00737363
0.0229056 0.0181897 0.00728809
0.0159774 0.0204586 0.00733846
0.0221422 0.0176771 0.00731064
0.0276364 0.0188799 0.00703776
0.0163917 0.0216356 0.00829881
0.0216183 0.0186852 0.00727531
0.0181528 0.0229101 0.00997728
0.0229859 0.0185663 0.00717991
0.0212793 0.0173056 0.00743221
0.0228781 0.0192809 0.00705681
0.0174299 0.0236993 0.0116049
0.0176507 0.0234514 0.0110559
0.0204725 0.0239648 0.012032
0.0189608 0.0232055 0.0113577
0.0184164 0.0234797 0.010909
0.0238563 0.0164064 0.016846
0.0266264 0.0151351 0.00946255
0.0179487 0.0233212 0.011618
0.022507 0.0222202 0.00885561
0.0267132 0.0153001 0.00910868
0.0232897 0.0197611 0.00715469
0.0211942 0.0155899 0.00871314
0.0246207 0.0221431 0.00872989
0.0226677 0.0165673 0.00783344
0.02319 0.0203931 0.00756114
0.0238156 0.0194825 0.00704161
0.0234246 0.0193989 0.00705167
0.0216419 0.0157288 0.00852721
0.0219215 0.0202131 0.00728114
0.0232575 0.022249 0.00886124
0.0175824 0.0232012 0.0107511
0.0222698 0.0165262 0.00785428
0.0170488 0.0142008 0.0124944
0.0192574 0.0236034 0.0113389
0.0214858 0.0238689 0.0126748
0.0181733 0.0210098 0.00755144
0.0227716 0.0188986 0.00711922
0.0191165 0.0231407 0.010767
0.0208616 0.0157443 0.0085533
0.0193483 0.0237517 0.011699
0.0228206 0.0203282 0.00742208
0.018295 0.0231073 0.0102949
0.0222448 0.0204295 0.00737392
0.0180567 0.0235242 0.0110863
0.0200373 0.0239573 0.0120316
0.0212756 0.015845 0.008416
0.0167107 0.014259 0.0127
0.0176887 0.0232225 0.0132303
0.0223519 0.0168506 0.00763504
0.0217179 0.0159862 0.00823066
0.0209421 0.0160009 0.00825729
0.0229986 0.0200288 0.00721393
0.0169034 0.0230138 0.0104187
0.02242 0.0193117 0.00703896
0.0213517 0.0161022 0.00811932
0.0217498 0.0194516 0.00711096
0.0179694 0.0232124 0.0108506
0.0233659 0.0200981 0.00735615
0.0183296 0.0231415 0.0106919
0.0188098 0.0235596 0.011138
0.0193413 0.0232589 0.01287
0.0221162 0.0195897 0.00702907
0.0221861 0.0162009 0.00807152
0.0224982 0.0197032 0.00706423
0.0206972 0.0152757 0.00917785
0.0162528 0.0211885 0.00766153
0.0237035 0.0222215 0.00882343
0.0228971 0.0196803 0.00704583
0.0180691 0.024237 0.0127781
0.0225999 0.0200593 0.00722456
0.0186117 0.0238393 0.0118487
0.0193106 0.0233441 0.0104687
0.0181391 0.0239976 0.0123812
0.0186771 0.0216113 0.00789641
0.0219712 0.0169481 0.00756032
0.0157806 0.0195562 0.00722898
0.01966 0.0236132 0.0113282
0.0225542 0.0205848 0.00757431
0.0174641 0.0141624 0.0123297
0.0195872 0.0238042 0.0122979
0.0193477 0.023198 0.0111167
0.0207855 0.0154869 0.00884985
0.0177501 0.0229886 0.0102115
0.0164746 0.0209096 0.00739613
0.0190117 0.0238598 0.0118861
0.0217048 0.0205476 0.0197222
0.0180047 0.0237664 0.0133529
0.0182621 0.0141374 0.0121609
0.0196572 0.0232144 0.0114125
0.0228736 0.0203746 0.0162775
0.0173753 0.023299 0.0117192
0.0203143 0.0146144 0.0113464
0.0242145 0.0221822 0.00877189
0.0192127 0.0207602 0.0216002
0.0213883 0.0153553 0.00897252
0.0142803 0.0149193 0.0110678
0.0185947 0.0210973 0.00763227
0.0187071 0.0195478 0.0156342
0.0218311 0.0152097 0.0140793
0.0201391 0.0204827 0.0215828
0.0211063 0.0161532 0.0210661
0.0189186 0.022334 0.00878612
0.01813 0.0139456 0.0124861
0.0174322 0.0218587 0.015594
0.0208138 0.0238983 0.0125683
0.0204884 0.0218215 0.0149566
0.0184043 0.0220234 0.00841815
0.0204693 0.0195001 0.0183223
0.016032 0.0189085 0.0215749
0.0204428 0.0148541 0.0102398
0.0195162 0.023147 0.0107524
0.0214162 0.0151334 0.00930414
0.0189828 0.0202927 0.0191428
0.0195753 0.0235119 0.0109139
0.0205341 0.0241241 0.0123934
0.0200546 0.0241385 0.0123878
0.0156505 0.0191762 0.0164304
0.023516 0.0197798 0.0164845
0.0183728 0.0231793 0.0111505
0.02179 0.0154791 0.00880241
0.0206225 0.0149417 0.00989333
0.0196662 0.0238695 0.0119112
0.0147746 0.0148961 0.0123845
0.0209842 0.0148329 0.0102999
0.0178107 0.0227725 0.0136799
0.0195196 0.0205499 0.0153693
0.0184246 0.0236042 0.0112897
0.0231437 0.0176511 0.0202668
0.0188391 0.023456 0.0107526
0.0237184 0.017517 0.00734673
0.0183725 0.0211044 0.0178207
0.0155509 0.0234747 0.013725
0.0182794 0.0203402 0.00728985
0.0178402 0.01415 0.01214
0.0195295 0.0186718 0.0212634
0.0245733 0.0197953 0.0156166
0.0200958 0.0154267 0.0210762
0.0231993 0.0226206 0.00914995
0.0211837 0.0239309 0.01242
0.022659 0.0158496 0.0184963
0.0216087 0.0238325 0.0130537
0.0191774 0.0235221 0.0109555
0.0193468 0.02307 0.00998069
0.0203254 0.0148252 0.0110066
0.022877 0.0222739 0.00889914
0.0185279 0.0220241 0.0196394
0.0151862 0.0233358 0.0139923
0.0204273 0.0147533 0.0106265
0.0164702 0.0223815 0.0153562
0.0169975 0.0213865 0.019681
0.0276754 0.0174747 0.00735695
0.0198378 0.0226428 0.0199633
0.0187704 0.0236618 0.0115228
0.0167047 0.015005 0.0103988
0.0208506 0.0239531 0.0121718
0.0180432 0.0200408 0.00715857
0.0177943 0.0141518 0.0125553
0.0220984 0.0158946 0.00831332
0.0219374 0.0168761 0.0195568
0.0218135 0.0196237 0.0188503

VERTICES 223 446
1 0
1 1
1 2
1 3
1 4
1 5
1 6
1 7
1 8
1 9
1 10
1 11
1 12
1 13
1 14
1 15
1 16
1 17
1 18
1 19
1 20
1 21
1 22
1 23
1 24
1 25
1 26
1 27
1 28
1 29
1 30
1 31
1 32
1 33
1 34
1 35
1 36
1 37
1 38
1 39
1 40
1 41
1 42
1 43
1 44
1 45
1 46
1 47
1 48
1 49
1 50
1 51
1 52
1 53
1 54
1 55
1 56
1 57
1 58
1 59
1 60
1 61
1 62
1 63
1 64
1 65
1 66
1 67
1 68
1 69
1 70
1 71
1 72
1 73
1 74
1 75
1 76
1 77
1 78
1 79
1 80
1 81
1 82
1 83
1 84
1 85
1 86
1 87
1 88
1 89
1 90
1 91
1 92
1 93
1 94
1 95
1 96
1 97
1 98
1 99
1 100
1 101
1 102
1 103
1 104
1 105
1 106
1 107
1 108
1 109
1 110
1 111
1 112
1 113
1 114
1 115
1 116
1 117
1 118
1 119
1 120
1 121
1 122
1 123
1 124
1 125
1 126
1 127
1 128
1 129
1 130
1 131
1 132
1 133
1 134
1 135
1 136
1 137
1 138
1 139
1 140
1 141
1 142
1 143
1 144
1 145
1 146
1 147
1 148
1 149
1 150
1 151
1 152
1 153
1 154
1 155
1 156
1 157
1 158
1 159
1 160
1 161
1 162
1 163
1 164
1 165
1 166
1 167
1 168
1 169
1 170
1 171
1 172
1 173
1 174
1 175
1 176
1 177
1 178
1 179
1 180
1 181
1 182
1 183
1 184
1 185
1 186
1 187
1 188
1 189
1 190
1 191
1 192
1 193
1 194
1 195
1 196
1 197
1 198
1 199
1 200
1 201
1 202
1 203
1 204
1 205
1 206
1 207
1 208
1 209
1 210
1 211
1 212
1 213
1 214
1 215
1 216
1 217
1 218
1 219
1 220
1 221
1 222

POINT_DATA 223
SCALARS id int 1
LOOKUP_TABLE default
1
2
3
4
6
7
8
9
10
11
12
13
14
15
16
17
18
19
20
21
22
23
24
25
26
27
28
29
30
31
32
33
34
35
36
37
38
39
40
41
42
43
44
45
46
47
48
49
50
51
52
53
54
55
56
57
58
59
60
61
62
63
64
65
66
67
68
69
70
71
72
73
75
76
77
78
79
80
81
82
83
84
85
86
87
88
89
90
91
92
93
94
95
96
97
98
99
100
101
103
104
105
106
107
108
109
110
111
112
113
114
115
116
117
118
119
120
121
122
123
124
125
126
127
128
129
130
131
132
133
134
135
136
137
138
139
140
141
142
143
144
145
146
147
148
149
150
151
152
153
154
155
156
157
158
159
160
161
162
163
164
165
166
167
168
169
170
171
172
173
174
175
176
177
178
179
180
181
182
183
184
185
186
187
188
189
190
191
192
193
194
195
196
197
198
199
200
201
202
203
204
205
206
207
208
209
210
211
212
213
214
215
216
217
218
219
220
221
222
223
224
225
226

SCALARS type int 1
LOOKUP_TABLE default
1
1
1
1
1
1
1
1
1
1
1
1
1
1
1
1
1
1
1
1
1
1
1
1
1
1
1
1
1
1
1
1
1
1
1
1
1
1
1
1
1
1
1
1
1
1
1
1
1
1
1
1
1
1
1
1
1
1
1
1
1
1
1
1
1
1
1
1
1
1
1
1
1
1
1
1
1
1
1
1
1
1
1
1
1
1
1
1
1
1
1
1
1
1
1
1
1
1
1
1
1
1
1
1
1
1
1
1
1
1
1
1
1
1
1
1
1
1
1
1
1
1
1
1
1
1
1
1
1
1
1
1
1
1
1
1
1
1
1
1
1
1
1
1
1
1
1
1
1
1
1
1
1
1
1
1
1
1
1
1
1
1
1
1
1
1
1
1
1
1
1
1
1
1
1
1
1
1
1
1
1
1
1
1
1
1
1
1
1
1
1
1
1
1
1
1
1
1
1
1
1
1
1
1
1
1
1
1
1
1
1
1
1
1
1
1
1
1
1
1
1
1
1

SCALARS radius float 1
LOOKUP_TABLE default
0.0002
0.0002
0.0002
0.0002
0.0002
0.0002
0.0002
0.0002
0.0002
0.0002
0.0002
0.0002
0.0002
0.0002
0.0002
0.0002
0.0002
0.0002
0.0002
0.0002
0.0002
0.0002
0.0002
0.0002
0.0002
0.0002
0.0002
0.0002
0.0002
0.0002
0.0002
0.0002
0.0002
0.0002
0.0002
0.0002
0.0002
0.0002
0.0002
0.0002
0.0002
0.0002
0.0002
0.0002
0.0002
0.0002
0.0002
0.0002
0.0002
0.0002
0.0002
0.0002
0.0002
0.0002
0.0002
0.0002
0.0002
0.0002
0.0002
0.0002
0.0002
0.0002
0.0002
0.0002
0.0002
0.0002
0.0002
0.0002
0.0002
0.0002
0.0002
0.0002
0.0002
0.0002
0.0002
0.0002
0.0002
0.0002
0.0002
0.0002
0.0002
0.0002
0.0002
0.0002
0.0002
0.0002
0.0002
0.0002
0.0002
0.0002
0.0002
0.0002
0.0002
0.0002
0.0002
0.0002
0.0002
0.0002
0.0002
0.0002
0.0002
0.0002
0.0002
0.0002
0.0002
0.0002
0.0002
0.0002
0.0002
0.0002
0.0002
0.0002
0.0002
0.0002
0.0002
0.0002
0.0002
0.0002
0.0002
0.0002
0.0002
0.0002
0.0002
0.0002
0.0002
0.0002
0.0002
0.0002
0.0002
0.0002
0.0002
0.0002
0.0002
0.0002
0.0002
0.0002
0.0002
0.0002
0.0002
0.0002
0.0002
0.0002
0.0002
0.0002
0.0002
0.0002
0.0002
0.0002
0.0002
0.0002
0.0002
0.0002
0.0002
0.0002
0.0002
0.0002
0.0002
0.0002
0.0002
0.0002
0.0002
0.0002
0.0002
0.0002
0.0002
0.0002
0.0002
0.0002
0.0002
0.0002
0.0002
0.0002
0.0002
0.0002
0.0002
0.0002
0.0002
0.0002
0.0002
0.0002
0.0002
0.0002
0.0002
0.0002
0.0002
0.0002
0.0002
0.0002
0.0002
0.0002
0.0002
0.0002
0.0002
0.0002
0.0002
0.0002
0.0002
0.0002
0.0002
0.0002
0.0002
0.0002
0.0002
0.0002
0.0002
0.0002
0.0002
0.0002
0.0002
0.0002
0.0002
0.0002
0.0002
0.0002
0.0002
0.0002
0.0002
0.0002
0.0002
0.0002
0.0002
0.0002
0.0002

SCALARS mass float 1
LOOKUP_TABLE default
9.38289e-09
9.38289e-09
9.38289e-09
9.38289e-09
9.38289e-09
9.38289e-09
9.38289e-09
9.38289e-09
9.38289e-09
9.38289e-09
9.38289e-09
9.38289e-09
9.38289e-09
9.38289e-09
9.38289e-09
9.38289e-09
9.38289e-09
9.38289e-09
9.38289e-09
9.38289e-09
9.38289e-09
9.38289e-09
9.38289e-09
9.38289e-09
9.38289e-09
9.38289e-09
9.38289e-09
9.38289e-09
9.38289e-09
9.38289e-09
9.38289e-09
9.38289e-09
9.38289e-09
9.38289e-09
9.38289e-09
9.38289e-09
9.38289e-09
9.38289e-09
9.38289e-09
9.38289e-09
9.38289e-09
9.38289e-09
9.38289e-09
9.38289e-09
9.38289e-09
9.38289e-09
9.38289e-09
9.38289e-09
9.38289e-09
9.38289e-09
9.38289e-09
9.38289e-09
9.38289e-09
9.38289e-09
9.38289e-09
9.38289e-09
9.38289e-09
9.38289e-09
9.38289e-09
9.38289e-09
9.38289e-09
9.38289e-09
9.38289e-09
9.38289e-09
9.38289e-09
9.38289e-09
9.38289e-09
9.38289e-09
9.38289e-09
9.38289e-09
9.38289e-09
9.38289e-09
9.38289e-09
9.38289e-09
9.38289e-09
9.38289e-09
9.38289e-09
9.38289e-09
9.38289e-09
9.38289e-09
9.38289e-09
9.38289e-09
9.38289e-09
9.38289e-09
9.38289e-09
9.38289e-09
9.38289e-09
9.38289e-09
9.38289e-09
9.38289e-09
9.38289e-09
9.38289e-09
9.38289e-09
9.38289e-09
9.38289e-09
9.38289e-09
9.38289e-09
9.38289e-09
9.38289e-09
9.38289e-09
9.38289e-09
9.38289e-09
9.38289e-09
9.38289e-09
9.38289e-09
9.38289e-09
9.38289e-09
9.38289e-09
9.38289e-09
9.38289e-09
9.38289e-09
9.38289e-09
9.38289e-09
9.38289e-09
9.38289e-09
9.38289e-09
9.38289e-09
9.38289e-09
9.38289e-09
9.38289e-09
9.38289e-09
9.38289e-09
9.38289e-09
9.38289e-09
9.38289e-09
9.38289e-09
9.38289e-09
9.38289e-09
9.38289e-09
9.38289e-09
9.38289e-09
9.38289e-09
9.38289e-09
9.38289e-09
9.38289e-09
9.38289e-09
9.38289e-09
9.38289e-09
9.38289e-09
9.38289e-09
9.38289e-09
9.38289e-09
9.38289e-09
9.38289e-09
9.38289e-09
9.38289e-09
9.38289e-09
9.38289e-09
9.38289e-09
9.38289e-09
9.38289e-09
9.38289e-09
9.38289e-09
9.38289e-09
9.38289e-09
9.38289e-09
9.38289e-09
9.38289e-09
9.38289e-09
9.38289e-09
9.38289e-09
9.38289e-09
9.38289e-09
9.38289e-09
9.38289e-09
9.38289e-09
9.38289e-09
9.38289e-09
9.38289e-09
9.38289e-09
9.38289e-09
9.38289e-09
9.38289e-09
9.38289e-09
9.38289e-09
9.38289e-09
9.38289e-09
9.38289e-09
9.38289e-09
9.38289e-09
9.38289e-09
9.38289e-09
9.38289e-09
9.38289e-09
9.38289e-09
9.38289e-09
9.38289e-09
9.38289e-09
9.38289e-09
9.38289e-09
9.38289e-09
9.38289e-09
9.38289e-09
9.38289e-09
9.38289e-09
9.38289e-09
9.38289e-09
9.38289e-09
9.38289e-09
9.38289e-09
9.38289e-09
9.38289e-09
9.38289e-09
9.38289e-09
9.38289e-09
9.38289e-09
9.38289e-09
9.38289e-09
9.38289e-09
9.38289e-09
9.38289e-09
9.38289e-09
9.38289e-09
9.38289e-09
9.38289e-09
9.38289e-09
9.38289e-09
9.38289e-09
9.38289e-09
9.38289e-09
9.38289e-09
9.38289e-09
9.38289e-09

VECTORS velocity float
0.00589572 -0.000499636 0.000528161
0.00559846 -0.00141395 0.000774511
0.00490572 -0.00780926 -0.000956828
0.00492224 -0.00145899 0.000256816
0.00568711 -0.000332599 0.000262793
-0.000854686 -0.00190074 -0.0282346
0.00565576 -0.000784024 0.000595616
0.00548115 -0.000372091 -2.20596e-05
0.00595945 -0.0017074 0.000448767
0.00560294 0.000536944 -6.09291e-05
0.00447553 0.000161761 4.54969e-05
0.00520379 -0.00157674 -0.00237721
0.00466675 -0.00530197 -0.000664051
0.00543236 -0.00192651 -0.000172174
0.00433524 -0.00495475 -0.000620471
0.00540351 -0.00158522 0.000375199
0.00576645 -0.000384177 0.000163942
0.00596981 -0.00112876 0.000934948
0.0049773 -0.00149464 -0.000621799
0.00575671 -0.00127175 0.0011304
0.00449732 0.000184356 -2.20996e-05
0.00565498 -0.000953325 0.000162706
0.00573268 -0.000312302 0.000137879
0.00494563 -0.00121925 0.000196851
0.00595059 -0.000433324 0.00018706
0.0103304 -0.0514239 0.0411045
0.00571152 -0.000391453 2.87715e-07
0.00545925 -0.000246277 0.000290865
0.00472683 -9.07874e-05 3.66598e-05
0.0044685 -0.000312448 -0.00204843
0.00427491 0.00018114 -0.000133024
0.000119545 -0.000357399 -0.000162518
0.0054174 -0.0016859 -0.00170932
0.00573932 -0.000421857 -2.80722e-05
0.0050854 -0.0015384 0.000333409
0.00555247 -0.00114645 0.000993905
0.00541538 -0.000202355 0.000308785
-0.0154553 -0.00134133 0.00110121
0.00577466 -0.00094134 0.000672788
0.00543514 -0.00159402 0.000691995
0.00459841 -0.000110753 3.76335e-05
0.00557589 -0.000351453 -9.53765e-06
0.00551283 -0.000890472 0.00055234
0.00592058 -0.00042571 0.000219479
0.00562371 -0.000871314 0.00109096
0.00478835 -3.02674e-05 -2.01806e-05
-0.00755479 -0.0134126 -0.0241775
0.00522733 0.000355262 7.06876e-05
0.00520087 -0.00132841 0.000275405
0.00554605 -0.00097681 0.000391222
0.005623 -5.72051e-05 0.000509455
0.00442975 -0.00511393 -0.000640243
0.00466674 -0.00530198 -0.000664047
-0.00795697 -0.0395446 -0.0164079
0.00586331 -0.00040992 0.000170089
0.00553437 -0.00136841 0.000548841
0.00598818 -0.000444662 0.000202637
0.00629806 -0.000629731 0.00063649
0.00502031 0.000140411 -1.73984e-05
0.00575395 -0.0010253 -0.000791782
0.00581979 -0.000320533 0.000146851
1.59382e-05 0.026818 -0.0288559
0.0051731 -0.000511155 0.000227718
0.00563655 -0.000772965 0.000165846
0.00480246 -0.00532928 -0.000667861
0.00461189 -0.000820323 0.000333434
0.00559358 -0.000412837 -0.000173139
-0.236563 -0.0990998 -0.086985
0.00549286 -0.00175614 0.000103658
3.76281e-05 0.000335854 -0.000983067
0.00448908 -0.000229711 7.90591e-05
0.0054958 -0.00150333 0.0017639
0.000398018 -0.000568834 0.000115945
0.0243861 0.00697477 -0.0618081
-0.000961265 -0.000794802 -0.0239401
-0.00031425 0.000656098 0.00119846
0.0291628 -0.00627799 -0.0490617
-0.00165228 -0.00129354 6.86109e-05
-0.0266717 -0.0471026 -0.0729316
0.00585665 4.4097e-05 0.000655872
0.0222426 0.00514673 -0.0637386
0.00125352 0.0885823 0.0158579
0.00580923 4.59293e-05 0.000645586
0.00591206 -0.00136343 0.000366253
0.00419396 -0.000190188 0.000431295
2.98192e-06 -0.000822005 -0.00363007
0.00411384 0.0154275 -0.0109303
0.00575967 -0.00123693 0.000278439
0.00456031 0.000938946 -0.000113388
0.00537533 -0.00146173 0.000378047
0.00558811 -0.000621824 0.000397381
0.00582989 -0.000500604 -0.00131748
0.0221216 -0.0113219 0.00439871
0.00386983 0.000338445 0.0127898
0.00661481 0.000195674 9.50047e-05
0.00114225 -0.000827371 0.00150224
0.000736271 0.000640777 0.001825
0.000552164 -0.00123364 -0.00138304
-0.00260345 -0.0274365 -0.0113238
0.0052637 -0.000117201 0.000160716
-0.000886964 -0.000563929 -0.0226497
0.00405204 -0.000205066 9.24875e-05
-0.0010517 0.000589328 0.00226693
0.00568191 -0.00106948 0.000372115
0.000135432 -0.000289562 -0.000800286
0.00543421 -0.000983852 0.000317544
0.00299919 -0.000691804 -0.00191943
5.63302e-06 -0.000650461 0.000222979
0.0051097 -0.000756365 0.000249483
0.000165416 8.2963e-05 -0.000358994
0.0172615 -0.0580075 -0.0443092
0.00619259 0.000300499 -0.000236264
0.00640441 -0.000634937 0.00042652
0.00502189 -0.00048818 0.000299957
0.0060925 -0.00122975 0.000492683
0.00320302 -0.000295166 -0.00635356
0.0047018 -0.00151161 0.000532358
0.0058232 -0.000843683 0.000586948
0.00553881 -0.0011993 0.000764836
0.0109919 -0.00297368 0.00213017
0.0061016 -0.00126318 0.000389192
0.00246041 -0.000638321 -0.00192681
-0.000336779 0.000735857 0.0100535
0.0868508 -0.00990931 -0.00319666
0.00562539 -0.00160767 -0.00142344
0.00619164 3.04748e-05 0.000124402
0.00573543 -0.00127557 -0.000456153
0.00585473 -0.000859199 0.000440809
0.0069648 -0.0416223 -0.0721269
0.00337796 -0.000561729 0.000663184
0.00571771 -0.000845157 -0.000435152
0.0263168 0.0302085 -0.0120839
0.00593151 -0.00131513 0.000195497
-0.00861923 -0.0164435 -0.028633
0.00677434 -0.0239153 -0.0437476
0.0203549 0.0229517 -0.0158616
-0.0113652 -0.0489677 -0.0133574
0.00587363 -0.0005474 0.000534141
0.00453455 -0.0052236 -0.000654008
0.00262482 -0.00371976 -0.014556
0.00539532 -0.000991736 0.0003984
-0.000168691 0.00388197 -0.012457
-0.012938 -0.0130912 -0.00274612
0.00886057 -0.0101203 -0.0252811
0.00406642 -9.31738e-05 0.000146585
-0.000443438 -0.000419796 0.00124344
0.00515461 -0.00665511 -0.00220321
-0.00669654 -0.00398297 -0.00246706
0.0 -0.0 -0.03
0.0533983 -0.0229129 -0.0575305
1.42495e-05 -1.75917e-05 2.054e-05
0.00334873 -0.0182319 -0.0647194
-5.30246e-09 0.0280293 -0.00770792
0.0160726 0.0104614 -0.0719506
-0.000140107 -8.20711e-05 -0.0100191
-0.010467 0.00321596 0.00257504
0.0 -0.0 -0.03
0.00378551 -0.000377281 0.000986829
0.0122243 0.00251635 -0.0454046
-0.0115857 -0.0531358 -0.00638182
8.1829e-07 0.0255494 0.0520038
-5.52993e-05 -0.0428529 -0.180431
0.0 -0.0 -0.03
0.0 -0.0 -0.03
-0.0226359 -0.0508255 -0.0799461
2.29271e-06 -7.73151e-06 5.41887e-06
-0.000878428 0.0364832 -0.0239187
9.59244e-06 0.00182676 0.000657863
-0.00070651 0.0647453 -0.039274
0.00634639 -0.0428686 -0.0740373
0.0 0.0 -0.0552362
0.0 -0.0 -0.03
0.00620101 -0.000894279 0.000944657
-0.00046923 -0.00326506 -0.0264379
0.00410841 -0.000625286 0.000979972
0.0 -0.0 -0.03
0.00109321 -0.00533819 -0.0218198
-0.000362378 0.000752708 0.000792026
5.22475e-05 -5.82465e-05 -0.000109933
3.5801e-09 0.0289051 -0.000695107
0.000586513 0.0308142 0.0246872
0.00118834 5.54041e-05 0.00559656
0.00493442 -0.000843205 0.000672525
0.00495087 -0.000325763 0.000865946
-0.000727836 -0.000144957 0.00203392
0.000153211 -0.0744262 -0.180502
0.0344171 0.0264153 -0.103191
0.0372543 -0.0723543 0.039613
1.02448e-10 0.0225348 -0.00864373
-0.013487 -0.00165338 -0.00672849
0.0 -0.0 -0.03
0.00348485 -0.00256625 0.00271864
0.000306607 -0.000329226 4.62999e-05
0.0 0.0 -0.113547
0.0102068 0.00407444 -0.00710218
0.000862387 -0.00667025 -0.00261813
-7.56088e-05 0.000778077 -0.00129186
0.0 -0.0 -0.03
3.10539e-05 0.0269722 -0.0186068
0.0 -0.0 -0.03
0.0654865 0.0481877 0.030606
-0.000304302 0.000560301 7.79792e-05
0.0 -0.0 -0.03
0.00404439 -0.0044373 -0.00269248
0.00277721 0.000139852 0.00147476
-0.00375637 -0.0439569 -0.0277014
-0.00164528 0.0133363 -0.00162674
0.130487 0.0517828 0.00851317
0.0 -0.0 -0.03
0.00852287 0.00338705 -0.00596105
0.00302338 0.00193703 0.00200093
0.00016381 0.0581587 -0.144145
0.0 -0.0 -0.03
0.00592111 -0.000342779 0.000156288
0.0 -0.0 -0.03
0.00966272 0.00251211 0.0165408
0.00916854 0.0379674 -0.0771098
-4.10626e-05 0.00194384 -0.00216417
-0.00115424 -0.0045259 -0.000346162
0.000217514 0.00488483 -0.0139118
0.00677502 -0.000369095 8.45678e-05
0.0 -0.0 -0.03
0.0 -0.0 -0.03

VECTORS force float
4.81683e-08 -7.45436e-08 6.26274e-08
-4.95357e-08 6.26422e-08 -9.66914e-09
2.5802e-07 -1.31073e-07 2.2538e-07
-4.76345e-08 1.02492e-08 -2.55277e-09
5.4527e-09 1.22628e-08 2.3573e-09
-8.5985e-07 2.52862e-07 -1.10241e-08
3.54962e-08 -8.37816e-09 1.15635e-07
1.59235e-08 -3.11202e-09 -6.4534e-09
-4.5124e-08 2.27954e-08 -3.05873e-10
-4.79812e-08 2.65656e-08 3.26917e-09
-3.66464e-08 9.99727e-09 -2.02982e-08
-1.43435e-08 -1.91181e-07 1.07087e-07
2.84325e-12 -4.59091e-11 -5.61331e-12
4.18257e-09 3.44818e-08 -9.94922e-08
5.31896e-11 -2.17398e-10 -3.1818e-11
-2.16727e-08 -3.53257e-09 2.43032e-08
-2.77038e-09 1.31572e-09 8.34814e-10
1.2109e-07 -2.33777e-08 8.96088e-08
1.02375e-07 9.05384e-09 5.36224e-08
4.70324e-08 9.18428e-09 3.91203e-08
-4.12255e-08 2.02736e-08 -4.75234e-09
-2.71723e-08 2.38983e-08 -1.23813e-07
-1.27155e-09 -2.58093e-09 5.17279e-10
1.28948e-07 -9.03163e-08 9.03525e-09
3.25642e-10 3.59218e-09 -4.2592e-09
0.0 0.0 -9.20462e-08
2.30285e-09 1.2651e-09 7.54192e-10
8.45487e-09 1.31163e-09 -5.05047e-09
-4.25459e-08 2.38868e-08 -2.5131e-09
-3.07241e-08 -3.35383e-08 -2.05889e-08
-2.77908e-08 1.56692e-08 -1.11084e-08
1.67624e-06 -8.02007e-08 -1.117e-06
-1.55924e-08 -8.7054e-08 8.20003e-08
-4.84612e-09 -1.00309e-08 -3.08535e-09
3.25089e-08 2.3715e-08 6.65158e-09
1.68303e-07 -6.23274e-08 1.09259e-07
2.23002e-09 8.50824e-10 7.02669e-10
0.0 0.0 -9.20462e-08
1.89467e-07 -9.4741e-08 4.6982e-08
-4.22033e-08 9.88935e-09 1.26292e-08
4.20949e-09 4.58703e-08 -2.92601e-08
3.22445e-08 -2.59783e-08 2.0266e-08
2.25013e-08 -1.65216e-08 -1.57741e-08
4.23538e-09 1.09819e-08 2.47171e-09
6.29638e-08 -3.11425e-08 9.88211e-08
9.47432e-08 -1.06831e-07 3.76262e-08
5.78567e-09 -2.85565e-08 -5.15744e-08
-2.27168e-08 -1.26442e-07 4.48998e-09
6.14976e-08 2.53316e-08 2.40172e-08
-1.07262e-07 1.30823e-07 -3.11527e-08
1.7189e-09 6.52952e-09 1.17307e-08
6.1727e-11 -1.02419e-10 -1.06155e-11
2.85497e-12 -4.59023e-11 -5.61349e-12
2.29441e-09 7.04051e-09 2.86515e-09
-5.3621e-09 4.14159e-09 -1.72567e-09
6.69252e-08 2.58824e-08 -9.20766e-11
1.64581e-09 5.33372e-09 -2.84214e-09
5.78693e-08 -5.9212e-08 2.50737e-09
-3.76972e-08 1.44104e-08 -1.06667e-09
-3.74483e-09 2.40187e-08 -9.92398e-08
-4.90443e-09 1.95958e-09 8.50387e-10
2.75234e-11 2.28125e-08 -2.82536e-08
1.06321e-07 -9.94819e-08 -2.81232e-08
5.60013e-09 -3.33501e-09 7.71215e-08
-3.01931e-11 -2.28911e-11 -3.68275e-13
1.17668e-07 -5.46397e-08 -4.15263e-08
-2.54043e-09 1.60501e-09 3.03831e-09
-0.000399184 -0.000151284 -0.00013361
-2.41327e-08 4.18712e-08 -3.79996e-08
-2.43486e-09 -4.28314e-10 -4.51033e-10
1.57646e-07 -7.38055e-08 6.68541e-09
1.25001e-07 2.06365e-08 7.03636e-08
1.81111e-08 -3.43238e-08 1.17322e-08
0.0 0.0 -9.20462e-08
0.0 0.0 -9.20462e-08
4.67741e-09 -1.68677e-09 2.88862e-08
0.0 0.0 -9.20462e-08
4.63186e-07 2.27791e-07 2.75841e-07
0.0 0.0 -9.20462e-08
-5.58145e-09 -8.04598e-09 1.62168e-08
0.0 0.0 -9.20462e-08
0.00296456 0.0031894 -0.00512737
-1.64151e-09 -2.20119e-09 1.53708e-08
6.38855e-11 1.94224e-09 -1.39079e-08
-1.28487e-08 2.75853e-08 -5.20264e-08
-2.72694e-08 2.00627e-08 6.11718e-09
-7.59457e-09 1.34169e-08 -9.4399e-09
-4.30215e-08 -2.32041e-08 -3.0893e-08
-4.50818e-08 4.86596e-09 -7.85805e-10
7.14457e-08 3.0421e-08 -5.0277e-09
7.1152e-08 -6.64407e-08 7.48716e-08
1.99084e-08 4.91429e-08 4.05274e-09
0.000213022 0.000391204 -0.000484734
-4.84334e-06 -1.16372e-06 -1.41129e-06
5.38035e-08 4.99108e-09 7.38987e-10
4.20188e-10 -1.02589e-09 2.49602e-09
-1.1864e-07 -2.05333e-07 -2.96274e-07
4.23534e-08 -3.83276e-08 -1.58902e-08
0.0 0.0 -9.20462e-08
-8.34524e-08 4.35883e-08 -1.02308e-08
0.0 0.0 -9.20462e-08
1.35073e-09 -1.48183e-09 3.95905e-08
-5.26775e-08 2.13691e-08 3.40411e-08
-2.41461e-08 -1.95925e-08 -6.36582e-08
1.70159e-07 -2.14633e-08 -1.19467e-07
-7.01108e-08 -5.67724e-08 -1.59945e-08
-1.21838e-08 -3.16014e-08 -6.11123e-08
7.54346e-09 -2.04508e-11 7.83743e-09
-2.33012e-08 -2.14458e-08 -8.48806e-09
2.42339e-10 -1.3402e-09 2.12798e-09
0.0 0.0 -9.20462e-08
2.26629e-08 -4.75178e-09 -1.43335e-08
9.4309e-08 -5.61222e-08 5.04124e-08
3.85971e-08 -5.16709e-08 2.59701e-08
1.8445e-08 2.7864e-08 -2.75645e-08
2.18357e-09 2.58004e-08 5.74082e-08
3.50115e-09 2.34009e-08 -8.62392e-08
2.49638e-08 -6.98126e-08 5.0054e-08
-5.38208e-09 -1.95892e-08 -7.81237e-08
1.95252e-06 1.89065e-06 2.15456e-06
4.62787e-08 -4.87407e-09 6.69098e-09
2.75711e-06 -7.29341e-07 -8.09807e-07
0.0 0.0 -9.20462e-08
0.0 0.0 -9.20462e-08
0.0 0.0 -9.20462e-08
2.68871e-08 -1.52085e-09 1.14287e-09
-4.3715e-08 1.27678e-08 -2.35202e-08
8.64009e-08 -1.31062e-08 -3.1355e-08
5.13376e-09 -2.79159e-08 -4.85144e-08
-2.77593e-05 2.05092e-06 2.79617e-06
1.31199e-08 -2.22487e-08 3.68329e-08
0.0 0.0 -9.20462e-08
2.19824e-09 -3.65133e-09 -1.43495e-07
0.0 0.0 -9.20462e-08
2.26251e-09 -2.82491e-08 -5.03003e-08
0.0 0.0 -9.20462e-08
0.0 0.0 -9.20462e-08
6.91808e-08 -7.35167e-09 5.62054e-08
3.9592e-11 -7.00498e-11 -8.4292e-12
0.0 0.0 -9.20462e-08
-5.517e-08 -4.46985e-08 -3.22284e-08
2.54092e-08 -7.64875e-07 6.13838e-07
0.0 0.0 -9.20462e-08
0.0 0.0 -9.20462e-08
-3.43334e-08 2.70633e-08 -6.16216e-09
5.15649e-07 -8.26931e-07 -2.36033e-06
3.04344e-07 -1.48043e-07 -7.34784e-08
-5.80646e-08 7.69898e-09 1.01009e-08
0.0 0.0 0.0
0.0 0.0 -9.20462e-08
-9.98591e-10 -1.26438e-09 1.32253e-09
0.0 0.0 -9.20462e-08
-3.05748e-16 -4.20172e-10 -1.53935e-09
0.0 0.0 -9.20462e-08
-7.25917e-10 1.58407e-10 -8.37478e-08
1.19343e-05 -1.59345e-06 -1.66251e-06
0.0 0.0 0.0
-2.84713e-08 5.34329e-08 -2.98762e-08
0.0 0.0 -9.20462e-08
0.0 0.0 -9.20462e-08
0.0 0.0 -9.20462e-08
0.0 0.0 -9.20462e-08
0.0 0.0 0.0
0.0 0.0 0.0
0.0 0.0 -9.20462e-08
2.29384e-09 -2.80162e-09 -4.32665e-09
2.45935e-09 6.03154e-09 -6.99229e-09
1.60952e-08 1.88785e-08 -3.20613e-08
0.0 0.0 -9.20462e-08
5.35137e-09 -2.78781e-08 -4.85164e-08
0.0 0.0 -9.20462e-08
0.0 0.0 0.0
-1.10203e-07 3.08565e-09 -1.57851e-07
0.0 0.0 -9.20462e-08
-2.76264e-08 3.99751e-08 -4.68856e-08
0.0 0.0 0.0
-3.99664e-08 -1.19425e-08 -5.09499e-08
-1.0473e-08 2.74323e-08 1.67903e-08
6.0455e-09 -5.72127e-09 -9.66309e-10
1.72726e-13 -3.57259e-11 -1.58624e-09
0.0 0.0 -9.20462e-08
-7.86785e-07 -6.90047e-08 -4.58823e-07
6.8767e-10 -6.02407e-08 7.29541e-08
9.57309e-08 -6.59984e-08 -7.01381e-08
7.1026e-08 3.28171e-08 1.81472e-07
0.0 0.0 -9.20462e-08
-3.043e-09 1.95976e-08 -7.55272e-08
0.0 0.0 -9.20462e-08
6.64616e-18 -4.66077e-10 -1.22748e-09
9.36523e-09 -1.97691e-08 -8.15439e-08
0.0 0.0 0.0
9.32562e-07 -3.72652e-08 3.434e-07
-3.24184e-08 3.08639e-08 -5.58732e-09
0.0 0.0 -9.20462e-08
-1.19463e-09 2.4744e-11 1.83852e-09
-1.04454e-08 7.70916e-09 2.41124e-09
2.94928e-10 -1.6135e-09 2.68527e-09
0.0 0.0 0.0
0.0 0.0 -9.20462e-08
0.0 0.0 0.0
0.0 0.0 -9.20462e-08
4.96376e-08 -1.8873e-08 4.89368e-08
0.0 0.0 0.0
-1.58158e-09 -6.14839e-09 1.20315e-09
2.14656e-08 2.87483e-08 -5.92781e-09
0.0 0.0 -9.20462e-08
-4.56663e-09 -4.29393e-08 1.48591e-08
-0.000464575 0.00265552 -0.00330669
0.0 0.0 0.0
-3.22693e-10 3.6395e-10 1.21651e-09
-1.35815e-08 4.32896e-08 -7.25179e-08
0.0 0.0 -9.20462e-08
0.0 0.0 0.0
-9.41435e-09 6.10914e-09 -1.14301e-09
0.0 0.0 0.0
0.0 0.0 -9.20462e-08
0.0 0.0 -9.20462e-08
-1.57754e-08 3.42192e-09 -7.45227e-11
1.83958e-08 3.6443e-08 4.59489e-09
4.2369e-08 -4.63151e-08 -1.4957e-09
8.39964e-08 -1.95456e-08 7.71628e-09
0.0 0.0 0.0
0.0 0.0 0.0
