# vtk DataFile Version 3.0
LIGGGHTS particles timestep 2200000
ASCII
DATASET POLYDATA
POINTS 296 float
0.0262697 0.0157168 0.00849264
0.026356 0.0175858 0.007594
0.0190306 0.0147886 0.0105945
0.028176 0.0186658 0.00708691
0.0316524 0.0161703 0.0082373
0.0208956 0.0170782 0.00747354
0.0253012 0.0151119 0.00940363
0.0323092 0.0189373 0.00718088
0.0262702 0.0171967 0.00755827
0.0283834 0.0176376 0.00732808
0.0279573 0.0182722 0.00717547
0.0256275 0.0160876 0.00819986
0.0195273 0.0156406 0.0087242
0.0258876 0.0170246 0.00749735
0.0186134 0.0140257 0.0123463
0.0270733 0.0176663 0.0073049
0.0320612 0.0177843 0.00722489
0.0259292 0.015881 0.00836187
0.0261895 0.0168182 0.00765933
0.0254589 0.0155348 0.00874314
0.027291 0.0169585 0.00752396
0.0260524 0.0177886 0.00743101
0.0324459 0.0179022 0.00715452
0.0261083 0.0165054 0.0078951
0.0318925 0.017052 0.00749839
0.0276922 0.0169657 0.00750677
0.0321457 0.018166 0.0071403
0.0315554 0.0158983 0.00851398
0.0276799 0.017347 0.00738662
0.0269444 0.0168091 0.00765658
0.0272905 0.0166496 0.00777811
0.0196086 0.0160411 0.00828636
0.0257144 0.0163999 0.00796571
0.0323941 0.0193191 0.00726498
0.0265901 0.0173488 0.00737247
0.0260195 0.0161928 0.0081282
0.0314695 0.0156169 0.00878493
0.0197432 0.0164918 0.0078722
0.0258415 0.015602 0.00863475
0.0267297 0.0176987 0.00750706
0.02728 0.0173333 0.00738477
0.0278752 0.0177204 0.00730246
0.0248316 0.014601 0.0114673
0.0317425 0.0164363 0.00795247
0.0253796 0.0153237 0.00907349
0.0269297 0.0171439 0.00742428
0.0192959 0.0153743 0.00960828
0.0277786 0.0186203 0.00709244
0.0281066 0.0190493 0.00699704
0.0268284 0.0179746 0.00723454
0.0313913 0.0153709 0.00909049
0.0187137 0.0142542 0.0120337
0.0188632 0.0146593 0.0113609
0.0211647 0.0159992 0.00824681
0.0319777 0.0174148 0.0073532
0.026414 0.017842 0.00726862
0.0318061 0.0166932 0.00765264
0.0263602 0.0160285 0.008259
0.0282456 0.018003 0.00724156
0.0266018 0.0186089 0.00712011
0.0323582 0.0175299 0.00730887
0.0274222 0.0203029 0.0073299
0.0265299 0.016654 0.00779006
0.027473 0.01768 0.00730677
0.0189434 0.0146625 0.010969
0.0265933 0.0169616 0.00754088
0.0322203 0.0185566 0.00709666
0.0192042 0.0149704 0.00983569
0.0258065 0.0167129 0.00773441
0.020036 0.0166919 0.00768717
0.0276396 0.0180346 0.00722658
0.0255408 0.0157752 0.00843413
0.0273751 0.0185748 0.00710258
0.0199767 0.0174093 0.0073449
0.0221964 0.0180898 0.0072416
0.0228307 0.0189615 0.00711009
0.022128 0.0177011 0.00730614
0.0205279 0.0186539 0.00734132
0.0255633 0.0149509 0.00997809
0.0312195 0.0150032 0.0097711
0.0278456 0.0166784 0.00773889
0.0263802 0.0192696 0.00720687
0.0313046 0.0151389 0.00940458
0.0274721 0.0193267 0.00698113
0.0257205 0.0152267 0.00925879
0.0270256 0.020354 0.00733953
0.0272277 0.0163453 0.00803026
0.027236 0.0196323 0.00708546
0.0278709 0.0193724 0.00700623
0.0277094 0.0190065 0.00701496
0.0261296 0.015282 0.00914777
0.0261331 0.0181239 0.00722847
0.0271794 0.0200054 0.00721795
0.0207434 0.0174415 0.0073472
0.0267986 0.0161892 0.00814637
0.0207942 0.0161087 0.0081432
0.0216941 0.0178127 0.00727515
0.0210436 0.0204541 0.00739202
0.020334 0.0158856 0.00842236
0.0272759 0.018196 0.00718455
0.0200851 0.0163043 0.00796075
0.0250956 0.0148586 0.0103839
0.0221205 0.0188779 0.0072171
0.026691 0.0193943 0.00698823
0.0211357 0.017365 0.00733193
0.0262153 0.0185076 0.0071509
0.0208531 0.0185782 0.00712121
0.0220381 0.0192282 0.0070427
0.0260877 0.0152491 0.00984468
0.0198311 0.0158148 0.0085309
0.0207815 0.0193432 0.00708307
0.0268797 0.0165024 0.00791106
0.0261829 0.0154881 0.00880914
0.0251666 0.0149014 0.00999256
0.0270747 0.0192814 0.00698106
0.0192765 0.0150685 0.00945467
0.0269113 0.0183583 0.00715768
0.0258372 0.0155322 0.00902853
0.0259715 0.0173996 0.00738624
0.0205011 0.0171422 0.00745539
0.0276328 0.0196765 0.00711
0.0215601 0.0174223 0.00733734
0.0221782 0.0184841 0.0071772
0.0223483 0.017372 0.00736242
0.0265187 0.0182247 0.00719417
0.0267107 0.015877 0.0083804
0.0269701 0.0187597 0.00708068
0.0249044 0.0149063 0.0112195
0.0191176 0.0148618 0.0102109
0.0264747 0.0196579 0.00722269
0.0273118 0.0189634 0.00703222
0.0212432 0.0192603 0.00709092
0.0266526 0.0190004 0.0070457
0.0216723 0.0198941 0.00715948
0.0213626 0.0165997 0.0077774
0.020903 0.0181873 0.00718934
0.0209419 0.0167348 0.00767348
0.0264488 0.0163407 0.00802507
0.018777 0.0144642 0.0116993
0.0221343 0.0166772 0.00774821
0.026335 0.018875 0.00725404
0.0201668 0.0156501 0.00869908
0.0223611 0.0194575 0.00709788
0.022101 0.017007 0.00752439
0.0249989 0.0149205 0.010767
0.0200401 0.0170517 0.00751252
0.0200075 0.0160471 0.00825718
0.0225436 0.0182871 0.00721744
0.0219525 0.0196123 0.007114
0.0216864 0.018207 0.00720756
0.020775 0.0158452 0.00844353
0.0216911 0.0170708 0.00750786
0.0206251 0.0203602 0.00736832
0.0213041 0.017724 0.00727908
0.0240119 0.0163952 0.0146984
0.0265507 0.0200506 0.00722037
0.0203121 0.0189926 0.00703554
0.0263704 0.0150266 0.0096699
0.018201 0.0141065 0.0122223
0.0212019 0.016294 0.00797909
0.0212489 0.0185096 0.00714382
0.0271466 0.0160352 0.00826958
0.0209096 0.0201019 0.00725757
0.0256447 0.0150198 0.0095926
0.0216986 0.0161246 0.00812284
0.0205663 0.0156255 0.00870465
0.0211167 0.0188811 0.00707669
0.0225037 0.0178385 0.00729066
0.0204363 0.0164709 0.00786646
0.0207369 0.0189569 0.0071765
0.0153159 0.0209721 0.00742951
0.0247153 0.0149409 0.0120807
0.0212851 0.0169932 0.00750923
0.0264781 0.0151904 0.00932126
0.0216554 0.0185999 0.00713956
0.0217353 0.016725 0.00770392
0.0209108 0.0177926 0.00725416
0.0224459 0.0190669 0.0070815
0.0165471 0.0230869 0.0105762
0.0225355 0.0201327 0.00723113
0.0204189 0.0167895 0.00762518
0.0265316 0.0153821 0.00897424
0.0247492 0.0146099 0.0118586
0.02195 0.0173544 0.00739602
0.0184382 0.0138402 0.0126544
0.0255014 0.0148267 0.0103532
0.0225254 0.0186809 0.00714965
0.0208779 0.0197302 0.00711313
0.0212897 0.0196572 0.00707486
0.0218482 0.0205674 0.00741723
0.0212964 0.0181182 0.007212
0.028078 0.0173851 0.00738282
0.0216147 0.0202631 0.00730386
0.0170672 0.0233096 0.0109899
0.020404 0.016191 0.00817384
0.0215208 0.0158694 0.00837432
0.02022 0.0185569 0.0071051
0.026634 0.0203918 0.00741175
0.0280897 0.0169956 0.00747332
0.0267209 0.0207755 0.00748393
0.0226568 0.0197347 0.00707813
0.0253948 0.0148719 0.0107361
0.0229202 0.0200159 0.00718518
0.0215168 0.0189691 0.00707266
0.0218893 0.0164118 0.00792014
0.0239203 0.0167142 0.0149217
0.0268514 0.0197381 0.00711498
0.0203578 0.0175234 0.00727901
0.0173312 0.0230743 0.0105055
0.0241129 0.0161185 0.0144278
0.0177214 0.0230189 0.0102778
0.0181279 0.0233542 0.0107698
0.0322743 0.0171703 0.00746362
0.0204438 0.0179094 0.0072188
0.0213012 0.020027 0.0072268
0.0196998 0.0150542 0.00950049
0.022741 0.0193453 0.00704203
0.020832 0.0164252 0.00790163
0.0177913 0.0141212 0.0122297
0.0266178 0.0155912 0.00864435
0.0270586 0.015723 0.00850362
0.0222759 0.0198473 0.00712576
0.0223592 0.0223215 0.00895435
0.0187297 0.0239586 0.0120377
0.0156762 0.0233188 0.0107783
0.0162224 0.0232616 0.0108128
0.0154268 0.0227986 0.00985689
0.0191523 0.023955 0.012048
0.0146834 0.0206207 0.00739824
0.0159581 0.0234633 0.0110367
0.0200581 0.0177834 0.00722901
0.0166578 0.0232623 0.0109374
0.0276093 0.0164325 0.00794783
0.0209433 0.0155271 0.00879533
0.0181887 0.0238301 0.0118319
0.0211778 0.0157347 0.00854651
0.0241324 0.0157201 0.0144567
0.0174366 0.023263 0.010842
0.0182693 0.0235531 0.0110868
0.0179315 0.0236058 0.0112962
0.020336 0.0239725 0.0120808
0.0227874 0.0228044 0.00928665
0.0194385 0.0240861 0.0122947
0.023204 0.0225739 0.00910645
0.0226143 0.0204435 0.00747062
0.0177764 0.0231161 0.0106846
0.0219898 0.0201231 0.00724175
0.0194509 0.0150832 0.0102226
0.0229908 0.0203104 0.00744648
0.0196131 0.0149496 0.00987679
0.0215082 0.0209457 0.00763392
0.0218924 0.0211843 0.00792091
0.0205305 0.0151165 0.00930937
0.0205113 0.0198764 0.00717894
0.0230215 0.0222845 0.00889916
0.02003 0.0240941 0.0123079
0.0222301 0.0204193 0.007362
0.0211245 0.0208678 0.0075517
0.0227123 0.0224507 0.00909115
0.0207759 0.0239396 0.0125927
0.0156744 0.0235403 0.013672
0.0157565 0.023091 0.0104594
0.0201205 0.0153889 0.00899836
0.0166851 0.0235348 0.011268
0.0161628 0.0230629 0.0104688
0.0203948 0.0193811 0.00698817
0.0208585 0.0239637 0.0122021
0.0200105 0.0240407 0.01407
0.0211605 0.0212051 0.00776978
0.0167051 0.0142494 0.0127238
0.0206072 0.0153613 0.00900239
0.0207591 0.0207137 0.00750014
0.0174226 0.0141532 0.0123815
0.0220985 0.0161323 0.00811528
0.0219007 0.020876 0.00766625
0.0188001 0.0149027 0.0116731
0.0236267 0.0225479 0.00912236
0.0202941 0.0149947 0.00970059
0.0162791 0.02327 0.0112141
0.0148683 0.0210241 0.00746293
0.0260227 0.0150911 0.00948302
0.0208005 0.0210846 0.00764405
0.0197413 0.0239598 0.0120658
0.0189591 0.0241364 0.0123842
0.0158352 0.0229189 0.0101071
0.0170533 0.0141835 0.0125382
0.0200326 0.0151336 0.00929344
0.0222669 0.0207212 0.00762173
0.0169374 0.0231076 0.0106701
0.0177785 0.0234231 0.0109748
0.0216744 0.0218042 0.00838653
0.015503 0.0229697 0.0101711
0.0205197 0.0182974 0.00715799
0.0201388 0.01817 0.00716557
0.0214095 0.0206075 0.00744328
0.0183284 0.0236514 0.0114816

VERTICES 296 592
1 0
1 1
1 2
1 3
1 4
1 5
1 6
1 7
1 8
1 9
1 10
1 11
1 12
1 13
1 14
1 15
1 16
1 17
1 18
1 19
1 20
1 21
1 22
1 23
1 24
1 25
1 26
1 27
1 28
1 29
1 30
1 31
1 32
1 33
1 34
1 35
1 36
1 37
1 38
1 39
1 40
1 41
1 42
1 43
1 44
1 45
1 46
1 47
1 48
1 49
1 50
1 51
1 52
1 53
1 54
1 55
1 56
1 57
1 58
1 59
1 60
1 61
1 62
1 63
1 64
1 65
1 66
1 67
1 68
1 69
1 70
1 71
1 72
1 73
1 74
1 75
1 76
1 77
1 78
1 79
1 80
1 81
1 82
1 83
1 84
1 85
1 86
1 87
1 88
1 89
1 90
1 91
1 92
1 93
1 94
1 95
1 96
1 97
1 98
1 99
1 100
1 101
1 102
1 103
1 104
1 105
1 106
1 107
1 108
1 109
1 110
1 111
1 112
1 113
1 114
1 115
1 116
1 117
1 118
1 119
1 120
1 121
1 122
1 123
1 124
1 125
1 126
1 127
1 128
1 129
1 130
1 131
1 132
1 133
1 134
1 135
1 136
1 137
1 138
1 139
1 140
1 141
1 142
1 143
1 144
1 145
1 146
1 147
1 148
1 149
1 150
1 151
1 152
1 153
1 154
1 155
1 156
1 157
1 158
1 159
1 160
1 161
1 162
1 163
1 164
1 165
1 166
1 167
1 168
1 169
1 170
1 171
1 172
1 173
1 174
1 175
1 176
1 177
1 178
1 179
1 180
1 181
1 182
1 183
1 184
1 185
1 186
1 187
1 188
1 189
1 190
1 191
1 192
1 193
1 194
1 195
1 196
1 197
1 198
1 199
1 200
1 201
1 202
1 203
1 204
1 205
1 206
1 207
1 208
1 209
1 210
1 211
1 212
1 213
1 214
1 215
1 216
1 217
1 218
1 219
1 220
1 221
1 222
1 223
1 224
1 225
1 226
1 227
1 228
1 229
1 230
1 231
1 232
1 233
1 234
1 235
1 236
1 237
1 238
1 239
1 240
1 241
1 242
1 243
1 244
1 245
1 246
1 247
1 248
1 249
1 250
1 251
1 252
1 253
1 254
1 255
1 256
1 257
1 258
1 259
1 260
1 261
1 262
1 263
1 264
1 265
1 266
1 267
1 268
1 269
1 270
1 271
1 272
1 273
1 274
1 275
1 276
1 277
1 278
1 279
1 280
1 281
1 282
1 283
1 284
1 285
1 286
1 287
1 288
1 289
1 290
1 291
1 292
1 293
1 294
1 295

POINT_DATA 296
SCALARS id int 1
LOOKUP_TABLE default
1
2
3
4
6
7
8
9
10
11
12
13
14
15
16
17
18
19
20
21
22
23
24
25
26
27
28
29
30
31
32
33
34
35
36
37
38
39
40
41
42
43
44
45
46
47
48
49
50
51
52
53
54
55
56
57
58
59
60
61
62
63
64
65
66
67
68
69
70
71
72
73
75
76
77
78
79
80
81
82
83
84
85
86
87
88
89
90
91
92
93
94
95
96
97
98
99
100
101
103
104
105
106
107
108
109
110
111
112
113
114
115
116
117
118
119
120
121
122
123
124
125
126
127
128
129
130
131
132
133
134
135
136
137
138
139
140
141
142
143
144
145
146
147
148
149
150
151
152
153
154
155
156
157
158
159
160
161
162
163
164
165
166
167
168
169
171
172
173
174
175
176
177
178
179
180
181
182
183
184
185
186
187
188
189
190
191
192
193
194
195
196
197
198
199
200
201
202
203
204
205
206
207
208
209
210
211
212
213
214
215
216
217
218
219
220
221
222
223
224
225
226
227
228
229
230
231
232
233
234
235
236
237
238
239
240
241
242
243
244
245
246
247
248
249
250
251
252
253
254
255
256
257
258
259
260
261
262
263
264
265
266
267
268
269
270
271
272
273
274
275
276
277
278
279
280
281
282
283
284
285
286
287
288
289
290
291
292
293
294
295
296
297
298
299
300

SCALARS type int 1
LOOKUP_TABLE default
1
1
1
1
1
1
1
1
1
1
1
1
1
1
1
1
1
1
1
1
1
1
1
1
1
1
1
1
1
1
1
1
1
1
1
1
1
1
1
1
1
1
1
1
1
1
1
1
1
1
1
1
1
1
1
1
1
1
1
1
1
1
1
1
1
1
1
1
1
1
1
1
1
1
1
1
1
1
1
1
1
1
1
1
1
1
1
1
1
1
1
1
1
1
1
1
1
1
1
1
1
1
1
1
1
1
1
1
1
1
1
1
1
1
1
1
1
1
1
1
1
1
1
1
1
1
1
1
1
1
1
1
1
1
1
1
1
1
1
1
1
1
1
1
1
1
1
1
1
1
1
1
1
1
1
1
1
1
1
1
1
1
1
1
1
1
1
1
1
1
1
1
1
1
1
1
1
1
1
1
1
1
1
1
1
1
1
1
1
1
1
1
1
1
1
1
1
1
1
1
1
1
1
1
1
1
1
1
1
1
1
1
1
1
1
1
1
1
1
1
1
1
1
1
1
1
1
1
1
1
1
1
1
1
1
1
1
1
1
1
1
1
1
1
1
1
1
1
1
1
1
1
1
1
1
1
1
1
1
1
1
1
1
1
1
1
1
1
1
1
1
1
1
1
1
1
1
1
1
1
1
1
1
1
1
1
1
1
1
1
1
1
1
1
1
1

SCALARS radius float 1
LOOKUP_TABLE default
0.0002
0.0002
0.0002
0.0002
0.0002
0.0002
0.0002
0.0002
0.0002
0.0002
0.0002
0.0002
0.0002
0.0002
0.0002
0.0002
0.0002
0.0002
0.0002
0.0002
0.0002
0.0002
0.0002
0.0002
0.0002
0.0002
0.0002
0.0002
0.0002
0.0002
0.0002
0.0002
0.0002
0.0002
0.0002
0.0002
0.0002
0.0002
0.0002
0.0002
0.0002
0.0002
0.0002
0.0002
0.0002
0.0002
0.0002
0.0002
0.0002
0.0002
0.0002
0.0002
0.0002
0.0002
0.0002
0.0002
0.0002
0.0002
0.0002
0.0002
0.0002
0.0002
0.0002
0.0002
0.0002
0.0002
0.0002
0.0002
0.0002
0.0002
0.0002
0.0002
0.0002
0.0002
0.0002
0.0002
0.0002
0.0002
0.0002
0.0002
0.0002
0.0002
0.0002
0.0002
0.0002
0.0002
0.0002
0.0002
0.0002
0.0002
0.0002
0.0002
0.0002
0.0002
0.0002
0.0002
0.0002
0.0002
0.0002
0.0002
0.0002
0.0002
0.0002
0.0002
0.0002
0.0002
0.0002
0.0002
0.0002
0.0002
0.0002
0.0002
0.0002
0.0002
0.0002
0.0002
0.0002
0.0002
0.0002
0.0002
0.0002
0.0002
0.0002
0.0002
0.0002
0.0002
0.0002
0.0002
0.0002
0.0002
0.0002
0.0002
0.0002
0.0002
0.0002
0.0002
0.0002
0.0002
0.0002
0.0002
0.0002
0.0002
0.0002
0.0002
0.0002
0.0002
0.0002
0.0002
0.0002
0.0002
0.0002
0.0002
0.0002
0.0002
0.0002
0.0002
0.0002
0.0002
0.0002
0.0002
0.0002
0.0002
0.0002
0.0002
0.0002
0.0002
0.0002
0.0002
0.0002
0.0002
0.0002
0.0002
0.0002
0.0002
0.0002
0.0002
0.0002
0.0002
0.0002
0.0002
0.0002
0.0002
0.0002
0.0002
0.0002
0.0002
0.0002
0.0002
0.0002
0.0002
0.0002
0.0002
0.0002
0.0002
0.0002
0.0002
0.0002
0.0002
0.0002
0.0002
0.0002
0.0002
0.0002
0.0002
0.0002
0.0002
0.0002
0.0002
0.0002
0.0002
0.0002
0.0002
0.0002
0.0002
0.0002
0.0002
0.0002
0.0002
0.0002
0.0002
0.0002
0.0002
0.0002
0.0002
0.0002
0.0002
0.0002
0.0002
0.0002
0.0002
0.0002
0.0002
0.0002
0.0002
0.0002
0.0002
0.0002
0.0002
0.0002
0.0002
0.0002
0.0002
0.0002
0.0002
0.0002
0.0002
0.0002
0.0002
0.0002
0.0002
0.0002
0.0002
0.0002
0.0002
0.0002
0.0002
0.0002
0.0002
0.0002
0.0002
0.0002
0.0002
0.0002
0.0002
0.0002
0.0002
0.0002
0.0002
0.0002
0.0002
0.0002
0.0002
0.0002
0.0002
0.0002
0.0002
0.0002
0.0002
0.0002
0.0002
0.0002
0.0002
0.0002
0.0002
0.0002
0.0002
0.0002
0.0002
0.0002
0.0002
0.0002
0.0002
0.0002
0.0002
0.0002
0.0002

SCALARS mass float 1
LOOKUP_TABLE default
9.38289e-09
9.38289e-09
9.38289e-09
9.38289e-09
9.38289e-09
9.38289e-09
9.38289e-09
9.38289e-09
9.38289e-09
9.38289e-09
9.38289e-09
9.38289e-09
9.38289e-09
9.38289e-09
9.38289e-09
9.38289e-09
9.38289e-09
9.38289e-09
9.38289e-09
9.38289e-09
9.38289e-09
9.38289e-09
9.38289e-09
9.38289e-09
9.38289e-09
9.38289e-09
9.38289e-09
9.38289e-09
9.38289e-09
9.38289e-09
9.38289e-09
9.38289e-09
9.38289e-09
9.38289e-09
9.38289e-09
9.38289e-09
9.38289e-09
9.38289e-09
9.38289e-09
9.38289e-09
9.38289e-09
9.38289e-09
9.38289e-09
9.38289e-09
9.38289e-09
9.38289e-09
9.38289e-09
9.38289e-09
9.38289e-09
9.38289e-09
9.38289e-09
9.38289e-09
9.38289e-09
9.38289e-09
9.38289e-09
9.38289e-09
9.38289e-09
9.38289e-09
9.38289e-09
9.38289e-09
9.38289e-09
9.38289e-09
9.38289e-09
9.38289e-09
9.38289e-09
9.38289e-09
9.38289e-09
9.38289e-09
9.38289e-09
9.38289e-09
9.38289e-09
9.38289e-09
9.38289e-09
9.38289e-09
9.38289e-09
9.38289e-09
9.38289e-09
9.38289e-09
9.38289e-09
9.38289e-09
9.38289e-09
9.38289e-09
9.38289e-09
9.38289e-09
9.38289e-09
9.38289e-09
9.38289e-09
9.38289e-09
9.38289e-09
9.38289e-09
9.38289e-09
9.38289e-09
9.38289e-09
9.38289e-09
9.38289e-09
9.38289e-09
9.38289e-09
9.38289e-09
9.38289e-09
9.38289e-09
9.38289e-09
9.38289e-09
9.38289e-09
9.38289e-09
9.38289e-09
9.38289e-09
9.38289e-09
9.38289e-09
9.38289e-09
9.38289e-09
9.38289e-09
9.38289e-09
9.38289e-09
9.38289e-09
9.38289e-09
9.38289e-09
9.38289e-09
9.38289e-09
9.38289e-09
9.38289e-09
9.38289e-09
9.38289e-09
9.38289e-09
9.38289e-09
9.38289e-09
9.38289e-09
9.38289e-09
9.38289e-09
9.38289e-09
9.38289e-09
9.38289e-09
9.38289e-09
9.38289e-09
9.38289e-09
9.38289e-09
9.38289e-09
9.38289e-09
9.38289e-09
9.38289e-09
9.38289e-09
9.38289e-09
9.38289e-09
9.38289e-09
9.38289e-09
9.38289e-09
9.38289e-09
9.38289e-09
9.38289e-09
9.38289e-09
9.38289e-09
9.38289e-09
9.38289e-09
9.38289e-09
9.38289e-09
9.38289e-09
9.38289e-09
9.38289e-09
9.38289e-09
9.38289e-09
9.38289e-09
9.38289e-09
9.38289e-09
9.38289e-09
9.38289e-09
9.38289e-09
9.38289e-09
9.38289e-09
9.38289e-09
9.38289e-09
9.38289e-09
9.38289e-09
9.38289e-09
9.38289e-09
9.38289e-09
9.38289e-09
9.38289e-09
9.38289e-09
9.38289e-09
9.38289e-09
9.38289e-09
9.38289e-09
9.38289e-09
9.38289e-09
9.38289e-09
9.38289e-09
9.38289e-09
9.38289e-09
9.38289e-09
9.38289e-09
9.38289e-09
9.38289e-09
9.38289e-09
9.38289e-09
9.38289e-09
9.38289e-09
9.38289e-09
9.38289e-09
9.38289e-09
9.38289e-09
9.38289e-09
9.38289e-09
9.38289e-09
9.38289e-09
9.38289e-09
9.38289e-09
9.38289e-09
9.38289e-09
9.38289e-09
9.38289e-09
9.38289e-09
9.38289e-09
9.38289e-09
9.38289e-09
9.38289e-09
9.38289e-09
9.38289e-09
9.38289e-09
9.38289e-09
9.38289e-09
9.38289e-09
9.38289e-09
9.38289e-09
9.38289e-09
9.38289e-09
9.38289e-09
9.38289e-09
9.38289e-09
9.38289e-09
9.38289e-09
9.38289e-09
9.38289e-09
9.38289e-09
9.38289e-09
9.38289e-09
9.38289e-09
9.38289e-09
9.38289e-09
9.38289e-09
9.38289e-09
9.38289e-09
9.38289e-09
9.38289e-09
9.38289e-09
9.38289e-09
9.38289e-09
9.38289e-09
9.38289e-09
9.38289e-09
9.38289e-09
9.38289e-09
9.38289e-09
9.38289e-09
9.38289e-09
9.38289e-09
9.38289e-09
9.38289e-09
9.38289e-09
9.38289e-09
9.38289e-09
9.38289e-09
9.38289e-09
9.38289e-09
9.38289e-09
9.38289e-09
9.38289e-09
9.38289e-09
9.38289e-09
9.38289e-09
9.38289e-09
9.38289e-09
9.38289e-09
9.38289e-09
9.38289e-09
9.38289e-09
9.38289e-09
9.38289e-09
9.38289e-09
9.38289e-09
9.38289e-09
9.38289e-09
9.38289e-09
9.38289e-09
9.38289e-09
9.38289e-09
9.38289e-09
9.38289e-09
9.38289e-09
9.38289e-09
9.38289e-09
9.38289e-09
9.38289e-09
9.38289e-09
9.38289e-09
9.38289e-09
9.38289e-09
9.38289e-09

VECTORS velocity float
0.00595185 -0.000297943 0.000352602
0.00626839 -0.000341164 0.000222489
0.00348328 -0.00390952 0.0108691
0.00572418 -0.000292253 0.000151373
0.0055117 -0.000587627 0.000726316
8.19227e-05 0.00148635 -0.00070851
0.00534882 -0.000247764 0.000353615
0.00549561 -0.000869007 0.000205141
0.00598589 -0.000640513 0.000354217
0.00591927 -0.000213339 0.000127576
0.00626033 -0.000100352 9.54077e-05
0.00581872 -0.000429415 0.000435904
-0.00485102 0.00519936 -0.00593248
0.00591676 -0.000455044 0.00042929
0.000915366 0.000798521 -0.00143606
0.00612521 8.01924e-05 3.47608e-05
0.00558438 -0.000870695 0.000269922
0.00586803 -0.000385371 0.000412359
0.00589223 -0.000521352 0.000425296
0.00545433 -0.000304584 0.000410467
0.0060507 -0.000119182 -4.71338e-05
0.00614725 -0.000513675 0.000183299
0.00545059 -0.000906543 2.30646e-05
0.00583726 -0.000402061 0.000443549
0.00586196 -0.000805986 0.000621243
0.00594124 -0.00024187 6.55581e-06
0.00547657 -0.000868613 0.000177569
0.00540426 -0.00048785 0.000787871
0.00602607 -0.000141765 0.000130921
0.00622068 -0.000358953 0.000113607
0.00637402 -0.000142676 -5.32197e-05
0.00645776 0.00141184 -0.0019521
0.00584637 -0.000422088 0.000440931
0.00550607 -0.000870395 0.000206281
0.00618391 -0.00034445 0.000148333
0.00579408 -0.000378485 0.00039832
0.00540999 -0.000491413 0.000786957
0.00470188 -0.00331173 0.0032538
0.0057011 -0.000320417 0.000420087
0.00611587 -2.39109e-05 -2.37464e-05
0.00587249 -6.94211e-05 7.36972e-05
0.00508728 -0.000963325 0.000285518
0.00401253 -0.00161142 0.0084369
0.00584556 -0.000856256 0.000580226
0.00530197 -0.000229666 0.000366045
0.00612789 -0.000475224 0.00017193
0.00174985 -0.00791041 0.0160822
0.00572062 -0.000351598 0.000149609
0.00556385 -0.000339089 0.000161189
0.00551607 -0.000758863 -0.00178963
0.00539758 -0.000535914 0.000747024
0.00643255 -0.00209625 -0.00110604
0.00410482 -0.000245069 -0.00106576
0.00632106 -2.47432e-06 -0.000379864
0.00574386 -0.000830029 0.000489957
0.00595221 -0.00018568 -0.000113578
0.00590171 -0.000813979 0.00062801
0.00593196 -0.000270606 0.000332725
0.00624643 -0.000107632 0.000107458
0.00568694 -0.000367134 -7.78278e-05
0.00569553 -0.00064881 0.000544883
0.00571481 -0.000300648 1.81081e-05
0.00597016 -0.000343258 0.000336364
0.00612102 -7.78497e-05 9.29398e-05
0.00730877 0.00118882 -0.000531297
0.00604328 -0.000595008 0.000293729
0.00548933 -0.000868839 0.00020411
0.0041534 -0.00201802 0.00843723
0.00589329 -0.000403235 0.000462218
0.00405342 -0.00367698 0.00121347
0.00625464 -0.000118548 0.000104187
0.00577671 -0.000432351 0.000431043
0.00523791 -0.00039766 -8.89315e-05
0.00487878 -0.00316977 0.00140309
0.00540753 -0.00143143 0.000399294
0.00462862 -0.00155726 0.000388728
0.00508882 -0.00128706 0.000352894
0.00467295 -0.00358238 0.00086111
0.00580678 -0.000270055 0.000674118
0.00569113 -0.000605423 0.000776401
0.00596974 -0.000256893 5.37586e-05
0.00563204 -0.00043634 2.78576e-05
0.0054807 -0.000582443 0.000734767
0.00549077 -0.000393797 -4.3673e-05
0.0051937 -6.86289e-05 0.000517181
0.00570306 -0.000284513 2.56751e-05
0.00598147 -0.000306299 9.94098e-05
0.00552608 -0.000331944 -5.41657e-06
0.00555774 -0.000332732 1.42332e-05
0.00553504 -0.000406826 -0.000108204
0.00530329 -0.0012087 -0.000313873
0.00583271 -0.000508318 -1.05547e-05
0.0056703 -0.000293582 1.98577e-05
0.00478516 -0.00302573 0.00111089
0.00594409 -0.000182867 0.000248963
0.00692323 0.000489873 -0.00105765
0.00391006 -0.00133954 0.000337205
0.00388105 -0.00347754 -0.00145037
0.00797072 8.14565e-05 -0.000227661
0.00558556 -0.000451213 0.000193781
0.00625406 -0.000827917 0.000354295
0.00582233 -0.000328157 0.00088526
0.00538497 -0.00157162 0.000538615
0.0055431 -0.000363954 -2.25784e-05
0.0048891 -0.00251457 0.000635318
0.0056047 -0.000451701 -5.62138e-05
0.00465331 -0.0032261 0.000718132
0.00592625 -0.0015302 0.000438999
0.0049251 -0.000709884 0.000981462
0.0012709 0.000571541 -0.000678694
0.00456058 -0.00424851 -0.00117011
0.00602321 -0.000247925 0.000181957
0.00575875 -0.00026235 0.000332958
0.00578563 -0.000288971 0.00083312
0.0055369 -0.000335612 -0.000237049
0.00331639 -0.00337755 0.00745286
0.00563358 -0.000370183 -4.1012e-05
0.00538465 -0.000165817 0.00044721
0.00608007 -0.000528172 0.000322354
0.000269736 0.000561843 -0.000334268
0.00553635 -0.000325473 -9.20223e-06
0.00410406 -0.00213064 0.000493652
0.00539459 -0.00149797 0.000446406
0.00464473 -0.00169058 0.000275221
0.00577731 -0.00038596 -0.000112537
0.00586021 -0.000212565 0.000233115
0.00567724 -0.000252835 -0.000124013
0.00401264 -0.00161108 0.00843743
0.00395423 -0.00235174 0.00977986
0.0055355 -0.000372963 -1.27688e-05
0.0054907 -0.000358826 -9.07588e-05
0.00251594 -0.00252824 -0.000239367
0.00561466 -0.000370735 -7.16404e-05
0.00643319 -0.00147656 -0.000636923
0.0041931 0.000335775 -4.52259e-05
0.00477085 -0.00317684 0.000686383
0.00288104 0.00174178 -0.00102278
0.00586973 -0.000295043 0.00033982
0.00579871 -0.00192168 -0.000648117
0.00414397 -0.000758646 0.000625945
0.00567152 -0.000452569 1.58402e-05
0.00634871 0.000335537 -0.000640977
0.00541521 -0.000758623 0.000183995
0.00431182 -0.000799305 0.000624254
0.00548318 -0.000525977 0.000873329
0.00459999 -0.00326402 0.00146654
0.00681173 -0.00115528 0.000858916
0.00455069 -0.000814342 0.0002648
0.00655643 -0.00131824 -5.99797e-05
0.00487143 -0.00190707 0.000465789
0.00596571 0.000662698 -0.00111181
0.0043788 -0.000884663 -0.000514721
0.0042654 -0.00632179 -0.00257215
0.00414738 -0.00221135 0.000521445
0.00441758 0.00496387 0.00201808
0.00588385 -0.000418787 -2.47063e-05
0.00482138 -0.00521471 0.000964747
0.00519364 6.2544e-05 0.000484718
-0.000432455 -0.00338837 0.00306505
0.00441925 0.000293052 -0.000116946
0.00443122 -0.00262587 0.000566994
0.00593461 -0.000166352 0.000234739
0.0056634 -0.00474787 -0.00196787
0.00513998 2.02122e-05 0.000583245
0.00309679 0.000124787 0.000310508
0.00417499 0.00135105 -0.00176056
0.00325414 -0.00301694 0.000667445
0.00525401 -0.00160849 0.000277984
0.00516038 0.000354736 -0.000448686
0.0029068 -0.00366326 -0.000232022
0.00162621 -0.00448462 -0.00190087
0.00458947 -9.47635e-05 0.00626462
0.0016307 0.00391375 -0.00259794
0.00525162 8.99375e-05 0.000451956
0.00377331 -0.00191678 0.000395642
0.00438743 -0.000294009 0.0003459
0.0044583 -0.00312227 0.000703908
0.00487284 -0.000853858 0.000292714
5.9727e-05 -8.97669e-05 5.6715e-05
0.00574251 -0.00051293 -0.000346772
0.00280606 0.000315762 -0.000252542
0.00578493 -0.000217986 0.000299395
0.00401208 -0.00161172 0.00843696
0.00454045 -0.000925804 0.000179144
-0.00391534 0.00212753 -0.00354574
0.00611893 -0.000612682 0.000626485
0.00495629 -0.000816838 0.000270565
0.00569241 -0.00461628 -0.00194598
0.00490034 -0.00283693 -0.00111306
0.00515813 -0.00212778 -0.000947953
0.00492843 -0.00220064 0.000515068
0.0059608 -0.000138723 0.000107899
0.00543888 -0.00228367 -0.00101261
0.000945134 0.00141981 -0.00144738
0.00724325 0.000106009 -0.000714117
0.00555354 -0.000992468 0.000851107
0.00484529 -0.0035433 0.000715939
0.005712 -0.000391645 -5.47697e-06
0.00596253 -0.000100312 8.82013e-05
0.00573211 -0.000399585 -1.38198e-05
0.00586917 -0.00127316 0.00025557
0.00536665 -0.00126855 0.000511727
0.00576804 -0.00118064 0.000369968
0.00259489 -0.00226276 0.000230374
0.00350058 -0.000270722 0.000298014
0.0047552 0.00429679 0.00310942
0.00551822 -0.000324079 -8.4512e-06
0.00477469 -0.00316329 0.00132008
7.88723e-05 -0.000312414 9.50898e-05
0.00488334 0.00362871 0.00355577
0.00127087 -0.000381313 0.000264862
0.00172182 -0.0130671 -0.0234317
0.00582322 -0.000697155 0.000572207
0.00305852 -0.00313028 0.000615256
0.00597117 -0.0028428 -0.00121185
0.00405751 0.0022355 -0.00789366
0.00524464 -0.00142652 0.000397823
0.0050028 0.00079047 -0.00126299
0.000897613 0.00093627 -0.00359313
0.00601437 -0.000230817 0.000293845
0.00592887 -0.000157736 0.000236388
0.00597483 -0.000634578 -0.000350555
0.000181962 -0.000245209 0.000715912
0.000232208 -0.000986618 0.000371946
0.00183672 -0.0108411 -0.0169164
0.00274952 0.0023724 -0.000442332
0.0011947 -0.00905574 -0.0162809
-5.24782e-05 -0.0010239 -8.77842e-05
0.00459785 -0.00555973 -0.00129155
-0.00931462 -0.00236286 -0.00702523
0.00471357 -0.0032205 0.00111263
-0.00820447 -0.0193789 -0.00308739
0.00596172 -0.000279491 6.94508e-05
0.00401316 0.000833881 -0.00117248
-1.74268e-05 -0.00957978 -0.0172692
0.00548399 3.12994e-05 -0.000360226
0.00488626 0.00362816 0.00355217
0.00310612 0.000502822 -0.0010956
-0.000931417 -0.00447179 -0.0283715
0.0141582 -0.00209013 -0.00933872
1.18397e-06 0.000411899 -0.000308161
0.00016785 -0.00260057 -0.00182792
-4.85033e-06 0.00297381 -0.00222358
0.00705224 -0.00321055 -0.00257448
0.00494213 -0.000708546 0.000537019
-0.00676437 -0.0285525 -0.00285162
0.00580837 -0.00059874 -0.000617743
0.00537 -0.00144363 -0.0172844
0.00485225 -0.000931828 0.000344005
0.003902 0.00222119 -0.00813487
0.00302803 -0.00462047 -0.00336846
-0.000313922 -0.00132724 -0.00119484
0.0389918 -0.000429092 0.00152191
0.00456539 -0.00591527 -0.00242946
-0.000796147 -0.000791145 -0.000710399
-0.000174469 -0.000133525 -0.000226745
0.00489438 -0.000461766 0.000707671
0.00325642 -0.006241 -0.002474
9.39371e-06 0.00276542 -0.00126313
-0.00054141 0.000567348 -0.00134975
0.00848241 0.00374271 -0.00518403
0.00155455 -0.0114048 -0.0164976
0.00550283 0.000148733 -0.000689874
-0.000410595 -0.00484014 -0.0113148
7.60637e-05 0.000278648 0.000669979
0.00473727 -0.00564378 -0.00230162
-0.000259946 0.00145459 -0.00123547
-0.0712206 0.143972 -0.158349
0.00575477 -0.00570788 -0.00339315
0.00051495 -0.000713094 0.00056782
0.0149419 0.00187146 -0.00296023
0.00291886 -0.00506824 -0.00202625
-0.000475918 0.00290618 -0.00756282
0.00241233 -0.000893668 0.000706115
0.00320873 -0.00179963 -0.000808908
0.00431731 -0.00200895 -0.00146844
0.00602611 -0.0194646 -0.00382321
0.0819392 0.00043512 -0.00463232
0.013065 0.00285368 0.00851825
8.1708e-13 -2.88972e-12 -5.19734e-13
0.00514096 3.07921e-05 0.00062673
0.0052046 -0.00517096 -0.00218779
3.60892e-05 -0.000229526 -0.000430265
0.0149793 0.00359966 0.00524389
0.00101065 -0.00817732 -0.0183719
0.00159341 -0.00135038 0.00277789
0.00771366 -0.000297644 -0.000833136
0.0038376 -0.000301485 0.000635417
6.28746e-06 0.000122041 -0.000246514
0.00672811 -0.00234446 -0.006572
-0.00444495 -0.0155149 -0.0139331
0.00192811 -0.00703055 -0.0167361
0.00468247 -0.00352498 0.000703316
0.00469335 -0.00338251 0.000683745
0.00537179 -0.00657366 -0.00269525
0.00306971 -0.00667906 -0.0271861

VECTORS force float
1.44288e-08 -5.84183e-09 -7.12876e-11
-3.75567e-09 -1.11211e-08 4.80652e-09
0.0 0.0 -9.20462e-08
-1.31092e-08 -5.09295e-10 3.99808e-10
-1.401e-10 1.01913e-09 -2.09377e-10
-6.96229e-09 6.15515e-08 -2.84511e-08
2.81028e-10 -1.04054e-08 2.27003e-08
-9.02656e-11 -9.94567e-10 -7.34437e-11
-1.80991e-08 1.31924e-09 2.95062e-08
1.88226e-08 9.7774e-09 -2.85545e-09
-1.3737e-08 2.01573e-09 -5.17701e-10
7.17857e-09 7.89101e-09 -7.3365e-09
3.88437e-09 2.23311e-08 -3.83494e-08
-1.06092e-08 -3.66443e-09 -3.99395e-09
8.69088e-09 -5.0103e-08 1.9935e-08
-2.04357e-09 2.10358e-08 -1.59645e-09
-5.45347e-10 -5.12247e-10 -1.43917e-09
8.51205e-09 -1.38817e-09 -2.64285e-09
-1.75925e-08 -8.81864e-09 -9.09039e-09
5.70878e-09 3.29469e-09 -7.30096e-10
2.64333e-08 2.32218e-09 -1.76718e-08
5.3421e-09 9.78077e-09 -4.68911e-09
-1.17731e-09 -1.31753e-09 4.327e-10
8.48415e-09 -9.49275e-09 9.07803e-09
-1.29052e-10 1.45909e-10 -6.2775e-11
-5.60852e-09 1.39295e-08 -2.98552e-08
-5.59346e-10 -6.90241e-10 -1.03934e-09
-3.67971e-10 8.0625e-10 -8.9958e-10
-5.76918e-09 1.17421e-08 -4.028e-09
2.13231e-08 -6.09356e-09 -1.59477e-09
5.57275e-08 1.35917e-09 -3.54788e-09
-1.34776e-08 3.18959e-08 -3.57631e-08
4.91593e-09 9.60808e-09 -7.85188e-09
-1.86427e-10 -8.72296e-10 -2.14085e-10
6.75882e-09 -6.29886e-10 3.30907e-09
1.04496e-08 -7.90477e-09 1.07285e-08
5.20074e-10 1.11127e-09 -5.94496e-10
9.2256e-08 -7.09845e-08 5.93528e-08
-1.52045e-09 2.74307e-09 -3.00259e-09
-3.05217e-09 4.06292e-09 5.45333e-09
-2.53566e-08 8.42677e-09 -1.34141e-09
-8.1749e-09 -2.75716e-09 1.91492e-10
-4.55118e-10 -4.68543e-10 2.26732e-09
5.00097e-10 6.72687e-10 9.11158e-11
-2.68704e-09 4.66213e-09 1.1674e-08
-7.95905e-09 -3.54722e-09 -4.07396e-09
-5.98419e-09 1.87022e-09 1.14945e-08
-1.80978e-08 6.68718e-10 -1.60666e-09
-4.49198e-09 7.66601e-09 4.8152e-09
-1.51545e-08 -1.44959e-08 -7.15361e-08
3.52365e-11 1.37045e-09 -5.34433e-10
-1.20098e-07 -2.15649e-08 -1.04435e-08
-7.84586e-09 1.99534e-08 -1.61054e-07
-2.48798e-08 1.12756e-08 -2.08335e-08
-9.45561e-11 -1.25553e-10 -4.82122e-10
4.38458e-08 -3.95825e-08 -3.84676e-09
3.28982e-11 1.69463e-10 -1.55431e-10
1.19186e-08 -1.08921e-08 3.01585e-09
1.44098e-09 1.38946e-08 -4.79084e-09
2.45144e-08 -1.5056e-08 8.20527e-09
-1.36732e-10 5.40567e-10 -2.24552e-10
-4.74435e-09 -1.19138e-08 -3.88027e-09
-1.53759e-08 -5.45096e-09 1.70294e-08
-7.40421e-09 9.67947e-11 -4.86572e-10
0.0 0.0 -9.20462e-08
-1.61979e-08 -1.04671e-08 4.54943e-09
-2.07388e-10 -9.07422e-10 -2.55202e-10
0.0 0.0 -9.20462e-08
7.90151e-09 1.89966e-09 -2.989e-09
-1.0066e-07 2.70942e-08 -6.53019e-08
-1.2416e-08 -7.0028e-09 3.21443e-09
1.1872e-08 1.44861e-08 -2.65753e-09
-1.40281e-08 2.59604e-09 2.56697e-09
-1.88247e-08 -3.28859e-08 9.05302e-09
6.59134e-09 4.60034e-08 -1.09619e-08
6.44331e-09 1.11736e-08 1.15655e-09
5.2191e-09 4.82863e-08 -2.04402e-08
-2.97842e-09 6.94037e-08 3.98766e-09
-1.19667e-08 -4.92118e-10 -2.02975e-08
6.97828e-10 3.94812e-10 -2.11887e-09
-1.74722e-08 2.15599e-08 -1.45373e-08
-2.73123e-09 -1.40305e-08 8.48398e-09
-1.52277e-10 4.87486e-10 -1.51777e-09
-8.61058e-09 -1.43322e-09 2.28429e-10
6.01217e-09 -3.9351e-09 -1.60629e-08
9.53993e-10 -2.45085e-09 -1.55118e-09
3.82875e-09 3.43254e-09 -4.74057e-10
-9.21394e-09 -2.60079e-09 -2.76937e-09
-4.99264e-09 1.44248e-08 -2.45756e-09
-1.04452e-08 -4.48673e-10 4.53175e-09
5.69014e-09 2.2131e-08 -5.08952e-09
-7.2703e-09 1.63094e-08 3.02741e-10
-1.96125e-09 -9.40305e-09 -3.6175e-09
4.7529e-08 2.21683e-08 -3.79771e-08
8.28803e-09 1.41889e-09 -4.82893e-09
3.17719e-08 6.86286e-09 2.59378e-08
-2.38378e-08 2.23749e-08 -4.3541e-09
-2.8886e-08 -3.73389e-09 -1.07222e-09
7.06193e-08 -1.37165e-07 1.44825e-07
2.33428e-08 -6.75113e-09 2.64629e-09
9.48258e-08 -1.81121e-07 2.27541e-07
-1.36346e-08 1.95756e-09 -3.32064e-08
-3.05947e-08 5.06782e-08 7.28817e-09
-7.24015e-09 -4.45523e-09 5.33306e-09
2.15865e-08 -2.31648e-08 -2.23598e-08
-2.08492e-09 6.27793e-09 8.70691e-10
-1.08905e-08 1.01178e-08 4.13454e-09
-1.57479e-08 4.62721e-08 -1.05394e-08
-7.34084e-09 2.17774e-09 7.223e-10
-1.99698e-08 4.02233e-08 -3.77885e-08
5.42299e-08 8.23554e-10 8.60817e-08
4.69922e-09 1.09668e-08 1.25781e-08
2.61214e-09 1.1807e-08 -9.61011e-09
-3.44775e-09 4.56694e-09 -2.66599e-08
-9.9633e-09 3.22774e-09 1.15804e-08
-2.61398e-09 1.49872e-08 -1.13165e-08
1.65668e-08 -1.46015e-08 7.45449e-09
5.98791e-09 -3.11055e-09 -9.31076e-09
4.04882e-09 3.49929e-09 1.36804e-09
1.43416e-08 9.16931e-08 -5.78997e-08
-1.27726e-08 1.00338e-08 5.66239e-09
-5.18018e-09 9.71691e-09 -2.93383e-09
-3.76329e-08 4.78879e-08 -2.91961e-09
-4.17879e-08 2.86178e-08 -7.47092e-09
-6.24407e-09 -1.96206e-08 -6.19322e-10
1.98761e-09 8.0035e-09 -2.60101e-09
1.14158e-09 1.82892e-08 2.70238e-09
-4.59411e-10 -4.85302e-10 2.27098e-09
0.0 0.0 -9.20462e-08
-8.71443e-09 -5.8142e-09 1.27398e-09
-6.24054e-09 4.69851e-09 -1.15448e-09
1.25434e-09 -5.03874e-08 3.24425e-08
-5.62229e-09 -4.84101e-09 4.51733e-09
-2.68882e-08 -6.25852e-09 -1.92886e-09
-8.1067e-09 -6.03962e-09 7.88179e-09
-8.97553e-08 2.2147e-08 1.81737e-09
1.70676e-07 1.23317e-07 -1.90499e-08
4.30878e-09 -1.17342e-08 1.36571e-08
1.04803e-07 8.88063e-08 -1.64474e-07
-3.42277e-08 5.69189e-08 -4.43681e-08
6.65593e-09 -1.47651e-08 -1.97189e-09
-5.90305e-08 -8.22325e-08 1.00315e-07
6.10914e-09 -4.66115e-09 2.83271e-09
-6.44706e-08 5.16275e-08 -2.47807e-08
7.27695e-09 3.22971e-09 -2.83992e-08
-1.39586e-08 1.41087e-08 1.1597e-08
-3.40089e-08 6.31004e-08 -7.88726e-08
-1.40675e-08 -2.2497e-08 3.59294e-09
-2.56352e-08 3.27782e-08 -1.99859e-08
-4.12577e-08 -7.20077e-08 1.05492e-08
-3.69287e-08 2.6071e-08 -3.92892e-08
-4.40051e-09 5.4033e-08 -3.67281e-08
5.65316e-09 -9.44631e-09 3.16176e-08
8.18013e-09 -2.15652e-08 4.82232e-09
-5.35547e-10 -8.04583e-10 6.96794e-10
-7.64374e-09 -8.20115e-09 -5.497e-09
-2.31221e-08 -5.87999e-09 7.47015e-09
-1.14692e-09 6.01815e-09 -8.51915e-09
0.0 0.0 -9.20462e-08
2.55179e-09 -1.05479e-08 -2.2324e-08
6.5898e-08 -1.17568e-07 2.53635e-08
1.47895e-08 -6.17033e-09 3.16948e-09
2.56275e-08 3.6593e-10 -1.53916e-09
-4.66524e-09 4.39214e-09 -1.7239e-08
5.5435e-08 1.9549e-08 6.90981e-08
-2.43917e-08 3.66222e-08 -4.11319e-08
-2.67676e-08 -6.96355e-08 2.18743e-08
-4.38264e-08 2.90608e-08 3.31377e-09
3.05109e-08 6.59138e-08 1.15597e-07
-5.96957e-09 -4.31693e-08 9.2073e-08
0.0 0.0 -9.20462e-08
-4.04708e-10 -3.98155e-10 1.87293e-09
-1.38912e-08 1.21809e-08 -1.21778e-08
-6.20058e-09 -1.62398e-09 -4.04313e-09
6.69893e-08 -3.91412e-08 -2.28703e-08
-3.79662e-08 4.86205e-08 -3.78644e-08
1.09181e-08 6.90584e-08 -8.74418e-09
-2.61982e-09 -1.18385e-08 7.97006e-09
1.19373e-08 -2.15155e-10 -5.45178e-09
9.55483e-09 1.06221e-08 1.24036e-08
-8.22975e-08 1.36408e-07 9.18169e-08
1.2478e-08 -1.14713e-08 -1.43745e-08
-4.58243e-10 -4.57259e-10 2.262e-09
-2.48201e-08 6.39298e-08 -2.75712e-08
1.71769e-08 3.35332e-08 -5.05266e-08
-6.67686e-09 -9.13378e-10 -1.98484e-08
6.2536e-09 -1.38714e-08 3.20463e-09
1.66281e-09 1.01394e-08 2.46909e-08
3.76496e-08 -5.55993e-08 -4.2647e-08
1.56902e-08 7.03742e-09 3.81029e-09
-6.72131e-08 3.24786e-08 -4.27429e-09
-2.2513e-08 2.2432e-09 -1.75287e-09
2.32521e-08 -2.63581e-08 -9.84296e-09
8.52182e-09 1.32482e-08 -1.24054e-08
-2.38924e-09 -1.16538e-07 1.59823e-07
-6.6168e-08 -8.5561e-09 4.00588e-08
-9.1506e-09 1.19664e-08 -1.5261e-09
-4.99345e-09 -1.87117e-08 -5.78133e-09
-4.80292e-09 -9.67346e-09 3.42921e-09
-3.28243e-09 -1.27998e-08 -5.26798e-09
6.6839e-09 1.1809e-08 7.80723e-09
-3.34546e-09 -7.61577e-09 -1.50322e-08
1.56332e-08 3.30818e-09 9.13362e-09
3.15874e-08 -1.80576e-08 -1.37832e-08
-1.58655e-09 3.70197e-08 -2.2147e-08
8.66588e-11 -7.76425e-10 3.61201e-10
-5.33146e-09 -4.90893e-09 4.54944e-09
3.74002e-09 3.98967e-09 -1.56171e-08
-6.51921e-09 -6.71202e-09 -1.92865e-08
1.3322e-10 -4.85864e-10 7.3927e-10
2.11317e-08 -7.8604e-08 -2.0974e-07
4.18423e-09 -3.0394e-08 -4.66887e-08
4.02278e-10 6.24e-10 -2.47472e-10
-7.19914e-09 -2.1537e-08 -2.16604e-11
1.29171e-08 -2.65003e-08 -1.48923e-08
-2.16291e-07 -2.55617e-07 3.1154e-07
-9.26032e-09 5.09402e-09 7.20315e-10
7.59445e-08 9.09916e-08 3.56371e-09
8.89025e-09 -5.59089e-08 6.7891e-08
2.37151e-08 2.37237e-09 -6.94665e-09
-1.25534e-08 -3.17689e-09 1.25416e-09
4.34866e-09 6.20767e-11 -1.39599e-09
1.32248e-07 -2.89628e-09 -6.55823e-09
3.64092e-07 -5.70775e-09 -2.59561e-08
-2.18269e-08 8.95581e-09 9.75879e-08
0.0 0.0 -9.20462e-08
3.00441e-07 -1.2594e-07 -4.59148e-08
-1.65792e-09 7.7062e-10 1.79711e-10
-5.21847e-11 4.18646e-11 6.84115e-12
0.0 0.0 -9.20462e-08
-2.70348e-09 -6.74452e-09 9.90657e-10
0.0 0.0 -9.20462e-08
-9.26796e-09 1.72302e-08 -1.05469e-08
-5.54372e-08 -3.69506e-08 4.40298e-08
1.9758e-11 -2.82156e-08 -5.08636e-08
-4.20097e-08 -2.26301e-08 2.54544e-08
-2.00891e-10 -4.86913e-10 1.15321e-09
7.90221e-08 3.1219e-08 1.42423e-08
0.0 0.0 -9.20462e-08
-1.41744e-08 -3.09936e-08 -7.45052e-08
8.97454e-12 7.64564e-10 -7.55989e-10
8.02851e-10 -1.24009e-08 -8.71655e-09
2.46516e-09 1.09959e-08 -9.49502e-09
-2.89392e-08 -2.75384e-08 -2.02613e-08
-9.52875e-09 -3.89423e-09 -8.43881e-09
0.0 0.0 -9.20462e-08
-3.43921e-08 5.90278e-09 -1.59511e-08
0.0 0.0 -9.20462e-08
-4.1606e-09 1.24714e-08 8.26763e-09
-4.87439e-10 1.93741e-09 -9.04751e-08
1.49817e-08 2.54958e-08 2.64483e-08
-3.32305e-09 5.12734e-09 1.13652e-09
-2.62028e-08 4.27581e-08 -6.45352e-08
-1.14769e-08 -9.62743e-09 7.10554e-09
-6.49417e-07 2.66062e-09 -1.77341e-08
4.44885e-10 -3.32115e-09 -1.59944e-09
-9.49871e-09 -1.30464e-08 -1.9113e-08
2.45695e-08 2.55124e-08 2.89782e-08
0.0 0.0 -9.20462e-08
-5.50995e-09 -3.72275e-10 -2.0778e-09
-8.08747e-10 3.07568e-10 1.8271e-09
-2.08109e-08 5.54204e-08 1.18286e-07
1.72405e-07 -3.76757e-08 3.02638e-08
0.0 0.0 -9.20462e-08
9.02914e-09 -2.65185e-09 2.21626e-08
1.32508e-08 2.18359e-08 -2.16589e-08
-1.36931e-10 7.16538e-10 -8.49616e-10
0.0 0.0 -9.20462e-08
2.32136e-08 1.12009e-09 1.09337e-08
-1.53476e-09 5.29937e-11 2.0172e-09
-2.74892e-08 4.18501e-08 -4.47632e-08
-1.33701e-07 -7.1322e-08 -1.0821e-08
-4.95635e-10 2.03684e-08 -5.6534e-08
-2.08123e-08 4.34451e-08 -2.07461e-08
-1.72338e-08 2.43903e-08 1.6049e-08
0.0 0.0 -9.20462e-08
0.0 0.0 -9.20462e-08
-1.14829e-08 2.26157e-08 -8.55098e-08
0.0 0.0 -9.20462e-08
3.81791e-16 -1.23503e-15 -3.6598e-16
3.15379e-10 1.02857e-09 -6.68458e-09
-1.41054e-08 -4.68007e-08 -3.43536e-09
3.11232e-09 3.70776e-09 7.08262e-09
0.0 0.0 -9.20462e-08
-5.2357e-08 4.69302e-08 6.42442e-08
9.22275e-09 6.9236e-08 -6.4804e-08
-7.86822e-08 1.51865e-07 -1.93187e-07
-3.48915e-08 -1.77701e-08 -2.29873e-08
1.89071e-11 4.92013e-10 -7.72909e-10
-6.39417e-08 -1.98347e-07 1.31699e-07
-4.87451e-09 -1.85341e-08 -1.65443e-08
1.17938e-06 -8.62149e-07 4.21025e-08
-2.42712e-08 -1.02662e-08 2.50524e-09
4.56179e-08 -8.51019e-09 3.31262e-08
-2.39077e-08 4.8206e-10 7.46322e-10
-1.19657e-09 -1.87147e-08 -7.62135e-08
