# vtk DataFile Version 3.0
LIGGGHTS particles timestep 600000
ASCII
DATASET POLYDATA
POINTS 149 float
0.0158207 0.0150327 0.0128946
0.0186745 0.0213507 0.00772212
0.0162709 0.0224008 0.0151411
0.0217531 0.0238045 0.0128828
0.0223954 0.0164317 0.00792191
0.01745 0.0241045 0.0126978
0.0169836 0.0183619 0.00707588
0.0236571 0.0216564 0.00835415
0.0183651 0.0208808 0.00751259
0.0198089 0.0207155 0.00752337
0.0202101 0.0220348 0.00824143
0.018118 0.0217707 0.0080923
0.0145501 0.0229219 0.00999121
0.0183634 0.0215998 0.00781608
0.0140551 0.0228175 0.00976797
0.019156 0.0208098 0.00753767
0.0228179 0.0182176 0.0072333
0.0177581 0.0188342 0.00706429
0.0181845 0.0205538 0.00736917
0.0174351 0.0190962 0.00711292
0.0188924 0.019816 0.00712101
0.0180812 0.0240907 0.0126244
0.0231933 0.0183541 0.00721394
0.0178763 0.0201671 0.00719312
0.0226446 0.0174457 0.00735244
0.017213 0.0234039 0.0139335
0.0229114 0.0186342 0.00716823
0.022316 0.0161057 0.00813972
0.0193557 0.0201112 0.00727088
0.0184997 0.0197443 0.00709689
0.0198411 0.0141397 0.0121571
0.0172274 0.0239675 0.0121975
0.0178119 0.0221209 0.00872442
0.0238439 0.0220592 0.00866773
0.0189287 0.020509 0.00740155
0.0178631 0.0195227 0.0071223
0.0222351 0.0158133 0.00840031
0.0169471 0.0239026 0.0124928
0.0176663 0.0148115 0.0108028
0.0187638 0.0208909 0.00754364
0.01938 0.0204973 0.00742743
0.0198976 0.0210795 0.00766347
0.0193953 0.0141463 0.0121461
0.0224775 0.0167555 0.00770191
0.017504 0.0184007 0.00704152
0.0187698 0.0201721 0.00725562
0.0186307 0.020404 0.0162982
0.0203243 0.0223032 0.00851513
0.0208965 0.0233498 0.0110436
0.0195179 0.0212815 0.00791091
0.0221521 0.0155559 0.008695
0.0116781 0.0199176 0.017378
0.0146994 0.0232578 0.0105708
0.0168942 0.022615 0.0149543
0.0227312 0.0178316 0.00729287
0.0205849 0.0234581 0.0106969
0.0225579 0.017075 0.00747515
0.0183055 0.0141404 0.0121558
0.020002 0.0217907 0.00800238
0.0214416 0.0238791 0.0126397
0.0246687 0.0180079 0.00727515
0.0176575 0.0239827 0.0121219
0.0181123 0.0198368 0.00713404
0.019498 0.0209931 0.00763442
0.0157682 0.0208972 0.0152069
0.0182749 0.0201896 0.00722913
0.0231021 0.0195328 0.00701993
0.0166138 0.0238191 0.0128246
0.018277 0.0212449 0.00765278
0.0182442 0.0240023 0.0121423
0.0198593 0.021467 0.00781573
0.0172735 0.0203245 0.00724193
0.02273 0.023535 0.0135826
0.0155233 0.0198826 0.0261827
0.016662 0.0226949 0.0271392
0.0206845 0.0179397 0.0232734
0.0165068 0.0179677 0.0304031
0.0179122 0.0216798 0.0236545
0.0160125 0.0184836 0.0298215
0.0233448 0.0169138 0.0289795
0.0151697 0.0176819 0.023168
0.0215346 0.021448 0.0287069
0.0215037 0.0148063 0.0117835
0.0220639 0.0204455 0.0262204
0.0203067 0.0156342 0.0298758
0.0183789 0.0216368 0.0272623
0.0205328 0.015653 0.0225413
0.022049 0.0186735 0.025794
0.0223433 0.0183719 0.0198004
0.0222009 0.0210111 0.0247664
0.0208281 0.014685 0.0279644
0.0179951 0.0242837 0.0130087
0.0233506 0.0205377 0.0301014
0.0169242 0.0194627 0.0234522
0.0197235 0.0152615 0.0202941
0.015107 0.01696 0.028035
0.0183301 0.0220896 0.0184467
0.0181511 0.0229725 0.0289165
0.0180391 0.0196979 0.0297781
0.0156224 0.0210079 0.0191689
0.0195733 0.0235668 0.0115132
0.0143932 0.0188804 0.0249571
0.0177552 0.0144259 0.0231982
0.0198023 0.0211495 0.0267867
0.0212653 0.0209509 0.0236745
0.0168752 0.021301 0.0216857
0.0204404 0.0193464 0.0156753
0.0181484 0.0223897 0.024901
0.0199927 0.0200304 0.0262949
0.0189359 0.0154522 0.0235875
0.0149739 0.0166798 0.0295945
0.0163497 0.0195255 0.0243615
0.0198393 0.0155082 0.0183348
0.0168839 0.016962 0.02449
0.0157573 0.0155327 0.0183655
0.0238177 0.0200194 0.0186727
0.0159562 0.0187297 0.0156333
0.0210981 0.0225532 0.0146013
0.018355 0.0159093 0.0153351
0.0187865 0.0237144 0.0148063
0.0161146 0.0176486 0.0173023
0.0228921 0.0217668 0.0263807
0.0165856 0.0223402 0.025021
0.0183753 0.0233242 0.0150934
0.0174748 0.0198996 0.0218749
0.02043 0.0230674 0.0100485
0.0178878 0.0163826 0.0229105
0.0203839 0.0232799 0.0204348
0.0169712 0.0168558 0.022607
0.0159022 0.0208424 0.0204254
0.023604 0.0178789 0.0285213
0.0226533 0.0204526 0.016232
0.0182239 0.0232236 0.0222536
0.0211871 0.0217488 0.0204948
0.0158706 0.0178038 0.0262231
0.0187768 0.0210677 0.0160343
0.017375 0.0207121 0.0204842
0.0187109 0.0235556 0.0277752
0.0164505 0.0147939 0.0129681
0.0150093 0.0201991 0.0174793
0.0187181 0.0230181 0.0226215
0.0216343 0.0183079 0.0236364
0.0150016 0.0165685 0.0264372
0.0202019 0.020177 0.0301486
0.01617 0.0189135 0.0226625
0.0163867 0.0158228 0.0225857
0.0174724 0.0185867 0.0229588
0.0154545 0.0212038 0.0224014
0.0173038 0.0232965 0.0302016

VERTICES 149 298
1 0
1 1
1 2
1 3
1 4
1 5
1 6
1 7
1 8
1 9
1 10
1 11
1 12
1 13
1 14
1 15
1 16
1 17
1 18
1 19
1 20
1 21
1 22
1 23
1 24
1 25
1 26
1 27
1 28
1 29
1 30
1 31
1 32
1 33
1 34
1 35
1 36
1 37
1 38
1 39
1 40
1 41
1 42
1 43
1 44
1 45
1 46
1 47
1 48
1 49
1 50
1 51
1 52
1 53
1 54
1 55
1 56
1 57
1 58
1 59
1 60
1 61
1 62
1 63
1 64
1 65
1 66
1 67
1 68
1 69
1 70
1 71
1 72
1 73
1 74
1 75
1 76
1 77
1 78
1 79
1 80
1 81
1 82
1 83
1 84
1 85
1 86
1 87
1 88
1 89
1 90
1 91
1 92
1 93
1 94
1 95
1 96
1 97
1 98
1 99
1 100
1 101
1 102
1 103
1 104
1 105
1 106
1 107
1 108
1 109
1 110
1 111
1 112
1 113
1 114
1 115
1 116
1 117
1 118
1 119
1 120
1 121
1 122
1 123
1 124
1 125
1 126
1 127
1 128
1 129
1 130
1 131
1 132
1 133
1 134
1 135
1 136
1 137
1 138
1 139
1 140
1 141
1 142
1 143
1 144
1 145
1 146
1 147
1 148

POINT_DATA 149
SCALARS id int 1
LOOKUP_TABLE default
1
2
3
4
6
7
8
9
10
11
12
13
14
15
16
17
18
19
20
21
22
23
24
25
26
27
28
29
30
31
32
33
34
35
36
37
38
39
40
41
42
43
44
45
46
47
48
49
50
51
52
53
54
55
56
57
58
59
60
61
62
63
64
65
66
67
68
69
70
71
72
73
75
76
77
78
79
80
81
82
83
84
85
86
87
88
89
90
91
92
93
94
95
96
97
98
99
100
101
102
103
104
105
106
107
108
109
110
111
112
113
114
115
116
117
118
119
120
121
122
123
124
125
126
127
128
129
130
131
132
133
134
135
136
137
138
139
140
141
142
143
144
145
146
147
148
149
150
151

SCALARS type int 1
LOOKUP_TABLE default
1
1
1
1
1
1
1
1
1
1
1
1
1
1
1
1
1
1
1
1
1
1
1
1
1
1
1
1
1
1
1
1
1
1
1
1
1
1
1
1
1
1
1
1
1
1
1
1
1
1
1
1
1
1
1
1
1
1
1
1
1
1
1
1
1
1
1
1
1
1
1
1
1
1
1
1
1
1
1
1
1
1
1
1
1
1
1
1
1
1
1
1
1
1
1
1
1
1
1
1
1
1
1
1
1
1
1
1
1
1
1
1
1
1
1
1
1
1
1
1
1
1
1
1
1
1
1
1
1
1
1
1
1
1
1
1
1
1
1
1
1
1
1
1
1
1
1
1
1

SCALARS radius float 1
LOOKUP_TABLE default
0.0002
0.0002
0.0002
0.0002
0.0002
0.0002
0.0002
0.0002
0.0002
0.0002
0.0002
0.0002
0.0002
0.0002
0.0002
0.0002
0.0002
0.0002
0.0002
0.0002
0.0002
0.0002
0.0002
0.0002
0.0002
0.0002
0.0002
0.0002
0.0002
0.0002
0.0002
0.0002
0.0002
0.0002
0.0002
0.0002
0.0002
0.0002
0.0002
0.0002
0.0002
0.0002
0.0002
0.0002
0.0002
0.0002
0.0002
0.0002
0.0002
0.0002
0.0002
0.0002
0.0002
0.0002
0.0002
0.0002
0.0002
0.0002
0.0002
0.0002
0.0002
0.0002
0.0002
0.0002
0.0002
0.0002
0.0002
0.0002
0.0002
0.0002
0.0002
0.0002
0.0002
0.0002
0.0002
0.0002
0.0002
0.0002
0.0002
0.0002
0.0002
0.0002
0.0002
0.0002
0.0002
0.0002
0.0002
0.0002
0.0002
0.0002
0.0002
0.0002
0.0002
0.0002
0.0002
0.0002
0.0002
0.0002
0.0002
0.0002
0.0002
0.0002
0.0002
0.0002
0.0002
0.0002
0.0002
0.0002
0.0002
0.0002
0.0002
0.0002
0.0002
0.0002
0.0002
0.0002
0.0002
0.0002
0.0002
0.0002
0.0002
0.0002
0.0002
0.0002
0.0002
0.0002
0.0002
0.0002
0.0002
0.0002
0.0002
0.0002
0.0002
0.0002
0.0002
0.0002
0.0002
0.0002
0.0002
0.0002
0.0002
0.0002
0.0002
0.0002
0.0002
0.0002
0.0002
0.0002
0.0002

SCALARS mass float 1
LOOKUP_TABLE default
9.38289e-09
9.38289e-09
9.38289e-09
9.38289e-09
9.38289e-09
9.38289e-09
9.38289e-09
9.38289e-09
9.38289e-09
9.38289e-09
9.38289e-09
9.38289e-09
9.38289e-09
9.38289e-09
9.38289e-09
9.38289e-09
9.38289e-09
9.38289e-09
9.38289e-09
9.38289e-09
9.38289e-09
9.38289e-09
9.38289e-09
9.38289e-09
9.38289e-09
9.38289e-09
9.38289e-09
9.38289e-09
9.38289e-09
9.38289e-09
9.38289e-09
9.38289e-09
9.38289e-09
9.38289e-09
9.38289e-09
9.38289e-09
9.38289e-09
9.38289e-09
9.38289e-09
9.38289e-09
9.38289e-09
9.38289e-09
9.38289e-09
9.38289e-09
9.38289e-09
9.38289e-09
9.38289e-09
9.38289e-09
9.38289e-09
9.38289e-09
9.38289e-09
9.38289e-09
9.38289e-09
9.38289e-09
9.38289e-09
9.38289e-09
9.38289e-09
9.38289e-09
9.38289e-09
9.38289e-09
9.38289e-09
9.38289e-09
9.38289e-09
9.38289e-09
9.38289e-09
9.38289e-09
9.38289e-09
9.38289e-09
9.38289e-09
9.38289e-09
9.38289e-09
9.38289e-09
9.38289e-09
9.38289e-09
9.38289e-09
9.38289e-09
9.38289e-09
9.38289e-09
9.38289e-09
9.38289e-09
9.38289e-09
9.38289e-09
9.38289e-09
9.38289e-09
9.38289e-09
9.38289e-09
9.38289e-09
9.38289e-09
9.38289e-09
9.38289e-09
9.38289e-09
9.38289e-09
9.38289e-09
9.38289e-09
9.38289e-09
9.38289e-09
9.38289e-09
9.38289e-09
9.38289e-09
9.38289e-09
9.38289e-09
9.38289e-09
9.38289e-09
9.38289e-09
9.38289e-09
9.38289e-09
9.38289e-09
9.38289e-09
9.38289e-09
9.38289e-09
9.38289e-09
9.38289e-09
9.38289e-09
9.38289e-09
9.38289e-09
9.38289e-09
9.38289e-09
9.38289e-09
9.38289e-09
9.38289e-09
9.38289e-09
9.38289e-09
9.38289e-09
9.38289e-09
9.38289e-09
9.38289e-09
9.38289e-09
9.38289e-09
9.38289e-09
9.38289e-09
9.38289e-09
9.38289e-09
9.38289e-09
9.38289e-09
9.38289e-09
9.38289e-09
9.38289e-09
9.38289e-09
9.38289e-09
9.38289e-09
9.38289e-09
9.38289e-09
9.38289e-09
9.38289e-09
9.38289e-09
9.38289e-09
9.38289e-09
9.38289e-09
9.38289e-09

VECTORS velocity float
-0.0756254 -0.0455361 -0.119189
-5.55114e-15 -3.28903e-14 8.20413e-14
0.00123609 0.0552365 -0.0464901
-0.00924561 0.00120292 -0.00901031
0.00562056 3.84736e-06 0.000191106
0.0352718 0.0228681 0.00217457
-3.02068e-15 3.94355e-15 -4.13218e-14
0.000839381 -0.0180354 -0.0141386
-0.000206189 -0.00121616 -0.000495264
0.000451159 -0.0173345 -0.00678255
0.00168032 -0.01275 -0.010267
-0.0280247 -0.0148763 -0.0162157
-0.00691554 -0.0031917 -0.00817363
0.00736892 -0.00386626 0.00138644
-3.52326e-05 0.000194648 -0.000687283
-0.00163325 -0.0115437 -0.00474315
0.00588388 -8.74991e-05 4.17827e-05
1.37393e-14 -1.79215e-14 1.87837e-13
-0.000244041 -0.00149609 -0.000620088
-1.00796e-14 1.31473e-14 -1.3781e-13
0.00146222 -0.00713383 -0.00276409
0.0734636 -0.0171792 0.0435277
0.00592688 -0.000171562 5.70971e-05
-1.6945e-05 -0.000100398 -4.14366e-05
0.00598087 -0.000116585 6.1894e-05
0.00080519 0.0775591 -0.121651
0.00578307 -0.000285237 0.000208302
0.00544127 4.47322e-05 0.000118214
-0.000164811 -0.000976492 -0.000403023
-5.50019e-06 1.83722e-05 1.49751e-06
-6.38092e-05 -0.000336711 0.000559354
-0.00140107 -0.00342163 0.00160078
-0.000212516 -0.0151579 -0.0205926
4.61761e-06 0.00115914 -0.00313408
-0.00266366 -0.00837815 -0.00354254
-6.55229e-06 -6.25774e-05 -5.48888e-06
0.00526987 -0.000102824 -8.98973e-05
0.0108974 0.00164828 -0.0130253
-0.00879571 0.0448279 -0.142877
-3.29065e-05 -0.00468998 -0.00189227
0.000788166 -0.0100777 -0.00399149
0.00272653 -0.0177979 -0.00701746
7.81248e-07 3.23162e-05 -5.36189e-05
0.00581646 -0.00018165 -5.94569e-06
-1.00792e-14 1.31496e-14 -1.3781e-13
-0.00280852 -0.00831582 -0.00352718
1.4068e-08 0.028139 -0.00794026
0.00291523 -0.00047555 -0.0228723
-0.0325755 -0.010974 -0.149792
-0.00275621 -0.0105925 -0.0072803
0.00603733 -0.000259362 -3.38441e-05
0.0308097 0.113525 -0.055315
-0.00343806 -0.0279716 0.0121708
-0.000806109 0.0685374 -0.0591227
0.00589329 -0.000110631 4.28044e-05
-0.054155 -0.0348184 -0.172812
0.00597627 -9.45215e-05 8.40154e-05
-6.44207e-05 0.00187368 -0.00305018
0.00410784 -0.0133924 -0.0118598
-0.00589821 0.00217652 -0.00308498
-1.51333e-15 4.70116e-14 3.02347e-13
0.000542597 -0.000723375 -0.000447101
-8.43029e-07 -1.87054e-05 -9.08577e-06
-0.000872195 -0.0127673 -0.00518768
1.3946e-07 0.021628 -0.0107569
-8.96245e-05 2.19351e-05 1.23854e-05
0.0050231 -0.00220897 0.000515544
0.0111685 0.00313131 -0.0104447
-0.000556767 -0.00141519 -0.00158062
-2.83663e-05 -0.00102036 -0.00183928
-0.000122366 -0.0149173 -0.00587176
0.00496083 -0.00423352 -0.000766753
-0.0101774 0.00234261 -0.00811351
0.0 -0.0 -0.03
0.0 -0.0 -0.03
0.0 -0.0 -0.03
0.0 -0.0 -0.03
0.0 -0.0 -0.03
0.0 -0.0 -0.03
0.0 -0.0 -0.03
0.0 -0.0 -0.03
0.0 -0.0 -0.03
0.0324518 0.0191051 -0.0540869
0.0 -0.0 -0.03
0.0 -0.0 -0.03
0.0 -0.0 -0.03
0.0 -0.0 -0.03
0.0 -0.0 -0.03
0.0 -0.0 -0.03
0.0 -0.0 -0.03
0.0 -0.0 -0.03
0.0719724 -0.00772506 0.0572954
0.0 -0.0 -0.03
0.0 -0.0 -0.03
0.0 -0.0 -0.03
0.0 -0.0 -0.03
0.0 -0.0 -0.03
0.0 -0.0 -0.03
0.0 -0.0 -0.03
0.0 -0.0 -0.03
1.04444e-05 -0.0493877 -0.019303
0.0 -0.0 -0.03
0.0 -0.0 -0.03
0.0 -0.0 -0.03
0.0 -0.0 -0.03
0.0 -0.0 -0.03
4.1514e-05 0.026226 -0.0520523
0.0 -0.0 -0.03
0.0 -0.0 -0.03
0.0 -0.0 -0.03
0.0 -0.0 -0.03
0.0 -0.0 -0.03
0.0 0.0 -0.0529603
0.0 -0.0 -0.03
0.0 0.0 -0.0469468
0.0 -0.0 -0.03
6.91174e-11 0.0240451 0.0018106
9.07795e-05 0.0681344 -0.13804
-0.0020042 -0.0400299 -0.00179856
-0.00607565 0.0905294 -0.105378
0.0 0.0 -0.151865
0.0 -0.0 -0.03
0.0 -0.0 -0.03
-0.00575961 0.0886834 -0.106179
0.0 -0.0 -0.03
-9.38451e-06 -0.035982 -0.137842
0.0 -0.0 -0.03
0.0 -0.0 -0.03
0.0 -0.0 -0.03
0.0 -0.0 -0.03
0.0 -0.0 -0.03
2.30661e-09 0.0277319 -0.00824766
0.0 -0.0 -0.03
0.0 -0.0 -0.03
0.0 -0.0 -0.03
2.80231e-10 0.0265613 -0.0118877
0.0 -0.0 -0.03
0.0 -0.0 -0.03
0.0515513 0.0513554 -0.0318655
0.0 0.0 -0.139965
0.0 -0.0 -0.03
0.0 -0.0 -0.03
0.0 -0.0 -0.03
0.0 -0.0 -0.03
0.0 -0.0 -0.03
0.0 -0.0 -0.03
0.0 -0.0 -0.03
0.0 -0.0 -0.03
0.0 -0.0 -0.03

VECTORS force float
0.0 0.0 -9.20462e-08
-5.92261e-22 -3.56019e-21 -1.46907e-21
5.47759e-10 1.48925e-08 -2.00844e-08
-2.14625e-09 9.82671e-10 -8.17781e-10
3.16367e-08 -6.46076e-10 -2.70401e-08
0.0 0.0 -9.20462e-08
4.16072e-22 4.7811e-22 1.32349e-23
-2.43993e-09 -3.6284e-09 -2.10988e-09
-2.26652e-09 6.92361e-09 6.71984e-09
2.37189e-10 8.1593e-09 3.17895e-09
-1.96583e-08 -2.11376e-08 1.32147e-09
0.0 0.0 -9.20462e-08
-4.11179e-06 -3.05445e-07 -9.35768e-07
0.0 0.0 -9.20462e-08
-1.36074e-09 -2.03991e-10 -1.84965e-09
-9.54337e-10 6.2776e-09 2.54755e-09
-2.2825e-09 -4.40225e-09 4.73032e-10
-2.48154e-23 1.32349e-22 0.0
7.69485e-10 7.37744e-09 3.74749e-09
-1.98523e-23 1.5551e-22 1.32349e-23
-4.21919e-09 8.13375e-09 2.88131e-09
0.0 0.0 -9.20462e-08
2.82955e-10 5.66222e-10 -5.59136e-10
1.2222e-09 7.24391e-09 2.98919e-09
2.12213e-08 4.34001e-09 6.23914e-09
0.0 0.0 -9.20462e-08
1.23435e-10 1.29206e-09 -2.99117e-10
-2.37297e-08 1.07877e-08 2.59695e-09
1.22263e-09 7.24388e-09 2.98974e-09
1.16821e-11 6.25543e-09 -1.86482e-11
-2.72285e-10 -1.34272e-09 2.2159e-09
-1.11274e-06 -7.0743e-07 -6.71906e-09
-2.59475e-07 1.64162e-07 5.65265e-07
5.74684e-08 -4.05769e-07 -2.7984e-07
8.10765e-09 1.16287e-08 5.20909e-09
7.17408e-09 -1.89048e-08 -2.3278e-09
-7.37946e-09 -9.71385e-10 2.24169e-09
4.28861e-09 1.12432e-09 -6.38996e-09
0.0 0.0 -9.20462e-08
-1.41898e-09 8.64506e-09 5.67812e-09
-7.93319e-09 7.66501e-09 2.62909e-09
-3.52265e-09 8.85021e-09 3.54377e-09
-5.77851e-11 -1.43844e-09 2.38795e-09
2.28141e-09 -1.57804e-08 -1.10795e-08
1.05879e-22 2.64698e-22 1.32349e-23
8.85411e-09 1.04616e-08 4.80253e-09
1.2321e-15 -4.5428e-10 -1.6084e-09
0.0 0.0 -9.20462e-08
0.0 0.0 -9.20462e-08
-1.06401e-08 1.27318e-09 -5.02694e-08
3.70823e-09 -6.04685e-09 -5.90357e-09
0.0 0.0 -9.20462e-08
0.0 0.0 -9.20462e-08
1.79315e-09 1.39644e-08 -2.453e-08
2.35488e-09 -4.21594e-09 2.21164e-09
0.0 0.0 -9.20462e-08
-1.65702e-08 -9.01294e-09 -4.7365e-09
-4.63417e-10 -2.39997e-09 1.68891e-08
1.58148e-08 2.34303e-08 -4.28941e-08
-3.78301e-09 -3.55375e-08 -6.53061e-08
-3.90677e-21 -1.15805e-22 0.0
-2.75993e-07 3.62054e-09 -1.14577e-07
2.82048e-09 -3.25669e-09 -2.11318e-09
-8.95108e-10 2.97465e-09 -1.08517e-08
1.75391e-12 2.4514e-10 -1.59913e-09
2.22007e-09 2.42752e-10 -2.01252e-10
1.77632e-11 1.0532e-11 3.07924e-12
-3.65387e-10 2.35835e-10 1.02167e-09
0.0 0.0 -9.20462e-08
-3.71253e-12 1.20297e-09 2.17226e-09
-3.49344e-09 -3.80722e-09 -5.15379e-09
2.88262e-11 -7.21328e-11 -6.51249e-12
1.87404e-09 -1.12447e-10 2.06011e-09
0.0 0.0 0.0
0.0 0.0 0.0
0.0 0.0 0.0
0.0 0.0 0.0
0.0 0.0 0.0
0.0 0.0 0.0
0.0 0.0 0.0
0.0 0.0 0.0
0.0 0.0 0.0
0.0 0.0 -9.20462e-08
0.0 0.0 0.0
0.0 0.0 0.0
0.0 0.0 0.0
0.0 0.0 0.0
0.0 0.0 0.0
0.0 0.0 0.0
0.0 0.0 0.0
0.0 0.0 0.0
0.0 0.0 -9.20462e-08
0.0 0.0 0.0
0.0 0.0 0.0
0.0 0.0 0.0
0.0 0.0 0.0
0.0 0.0 0.0
0.0 0.0 0.0
0.0 0.0 0.0
0.0 0.0 0.0
0.0 0.0 -9.20462e-08
0.0 0.0 0.0
0.0 0.0 0.0
0.0 0.0 0.0
0.0 0.0 0.0
0.0 0.0 0.0
0.0 0.0 -9.20462e-08
0.0 0.0 0.0
0.0 0.0 0.0
0.0 0.0 0.0
0.0 0.0 0.0
0.0 0.0 0.0
0.0 0.0 -9.20462e-08
0.0 0.0 0.0
0.0 0.0 -9.20462e-08
0.0 0.0 0.0
6.36623e-18 9.50659e-11 -1.30819e-09
0.0 0.0 -9.20462e-08
0.0 0.0 -9.20462e-08
0.0 0.0 -9.20462e-08
0.0 0.0 -9.20462e-08
0.0 0.0 0.0
0.0 0.0 0.0
0.0 0.0 -9.20462e-08
0.0 0.0 0.0
0.0 0.0 -9.20462e-08
0.0 0.0 0.0
0.0 0.0 0.0
0.0 0.0 0.0
0.0 0.0 0.0
0.0 0.0 0.0
1.51171e-16 -4.54724e-10 -1.5212e-09
0.0 0.0 0.0
0.0 0.0 0.0
0.0 0.0 0.0
1.72613e-17 -6.56648e-10 -1.45622e-09
0.0 0.0 0.0
0.0 0.0 0.0
0.0 0.0 -9.20462e-08
0.0 0.0 -9.20462e-08
0.0 0.0 0.0
0.0 0.0 0.0
0.0 0.0 0.0
0.0 0.0 0.0
0.0 0.0 0.0
0.0 0.0 0.0
0.0 0.0 0.0
0.0 0.0 0.0
0.0 0.0 0.0
