# vtk DataFile Version 3.0
LIGGGHTS particles timestep 3200000
ASCII
DATASET POLYDATA
POINTS 295 float
0.0324369 0.0153208 0.00912864
0.0311591 0.0152076 0.00997497
0.0211386 0.0167582 0.00766363
0.0339829 0.0183226 0.0071344
0.0374231 0.0159729 0.00839756
0.0270347 0.0163215 0.00805118
0.0307222 0.0146098 0.0112057
0.0380854 0.0186847 0.00711698
0.0317971 0.0158948 0.00852359
0.0342603 0.0177892 0.00723581
0.033894 0.0179339 0.0071663
0.0320732 0.0155105 0.00892364
0.0252623 0.0147635 0.0106763
0.0310656 0.0150447 0.00964779
0.0194298 0.0160033 0.0083235
0.0327263 0.0172805 0.00743558
0.0378368 0.0175537 0.00730264
0.0320761 0.015025 0.0101987
0.0321615 0.0157754 0.00863724
0.0316788 0.0151193 0.00940242
0.0331541 0.0167339 0.00769603
0.0313395 0.0157208 0.0086756
0.0383026 0.0180267 0.00710857
0.0317089 0.0156178 0.00879834
0.0376622 0.0168512 0.00764291
0.0334734 0.0169595 0.00761107
0.037922 0.0179063 0.00713414
0.0373353 0.0157285 0.00870182
0.0334489 0.0173244 0.00744907
0.0327687 0.0168238 0.00763885
0.0331793 0.0163913 0.00790096
0.0266734 0.0149691 0.00983558
0.0313084 0.0151906 0.00926891
0.0381743 0.019073 0.00715324
0.0318657 0.0161568 0.00822933
0.0316228 0.0153363 0.00906906
0.037248 0.0154873 0.00900871
0.0267887 0.0151915 0.00935851
0.0324519 0.0150646 0.00943543
0.0321778 0.0169819 0.00789519
0.0330642 0.0170907 0.00753462
0.0336491 0.0176445 0.00731703
0.0315925 0.0148069 0.0104366
0.0375073 0.0162232 0.00809721
0.0308019 0.0146826 0.0108206
0.0324155 0.016989 0.00754995
0.015382 0.0364643 0.0433732
0.0335349 0.0180929 0.00709064
0.0339342 0.0187091 0.00723551
0.0323345 0.017346 0.00738886
0.0371611 0.015246 0.00931566
0.0212584 0.0173883 0.0073324
0.0267962 0.0155721 0.00921147
0.0265967 0.0158492 0.00882854
0.0377487 0.0172006 0.00746852
0.0319251 0.01642 0.00793409
0.0375758 0.0165029 0.00781961
0.0324565 0.0155871 0.0088309
0.0343438 0.0181545 0.00709598
0.0319922 0.0171514 0.00745912
0.0382175 0.0176552 0.00723251
0.0328675 0.0194993 0.00734317
0.0323745 0.0163193 0.00802303
0.0330784 0.0174597 0.00737258
0.0159213 0.0193779 0.017063
0.0324063 0.0165865 0.00772701
0.0380062 0.0182941 0.00708367
0.0309445 0.0148659 0.0102123
0.0270611 0.0150273 0.00975627
0.0332685 0.0177898 0.00723566
0.0332351 0.0152768 0.00913495
0.0329035 0.017933 0.00715593
0.0214121 0.0409037 0.0408462
0.0278738 0.0179287 0.00725411
0.0281995 0.0186691 0.00708643
0.0273941 0.0176029 0.00732365
0.0261665 0.0157332 0.00851913
0.0340972 0.0165291 0.0078292
0.0369887 0.0148981 0.0100085
0.0338395 0.0168044 0.00769608
0.0316833 0.016914 0.00754974
0.0370753 0.0150295 0.00964083
0.0332463 0.0186287 0.00719185
0.0320623 0.0150427 0.00954806
0.0325072 0.0193385 0.007277
0.0335495 0.0162679 0.00802071
0.0328827 0.0187954 0.00719495
0.0335355 0.0188927 0.00727366
0.0336155 0.0184767 0.00716905
0.0334409 0.0155012 0.00887529
0.0314258 0.0160076 0.00839944
0.0324864 0.0188455 0.00717444
0.0264835 0.0159106 0.00835049
0.0328901 0.016211 0.00811604
0.0263768 0.0155089 0.0087749
0.0268059 0.0171687 0.00741697
0.025612 0.0166562 0.00777012
0.0254693 0.01497 0.00967939
0.0326324 0.0176596 0.00726417
0.0245696 0.0150006 0.0122667
0.0310663 0.0200544 0.0155218
0.0271134 0.0178824 0.00725527
0.0319288 0.0179476 0.00716387
0.0267601 0.016551 0.00787242
0.0315072 0.0162843 0.00810626
0.0258167 0.016384 0.00797975
0.0271728 0.0182679 0.00716658
0.0331642 0.0157015 0.00866731
0.0274227 0.0149745 0.00991904
0.025674 0.0156025 0.00863569
0.0327939 0.0164733 0.00782988
0.0320053 0.0152272 0.00919778
0.0308972 0.0150036 0.0106217
0.032785 0.0183687 0.00709762
0.0160785 0.029856 0.0308004
0.0322357 0.0177008 0.0072332
0.0317209 0.0152434 0.00986402
0.0312515 0.0154313 0.00895447
0.0256201 0.0153794 0.00898372
0.0330493 0.0191478 0.00728464
0.0268931 0.0168509 0.00764366
0.0274857 0.0180258 0.00722669
0.02779 0.0175475 0.0073415
0.0320266 0.0166948 0.00766185
0.0330092 0.0159524 0.00839693
0.0323143 0.018074 0.00711134
0.0313372 0.0148903 0.0101405
0.01515 0.0147349 0.0139112
0.0317376 0.0172564 0.00774919
0.0331661 0.0182472 0.00710225
0.0260783 0.0170831 0.00745531
0.0318217 0.0174823 0.00730548
0.0273469 0.0186208 0.00709489
0.027605 0.0163334 0.00802948
0.0261135 0.0160282 0.00825433
0.0268691 0.0160263 0.00827081
0.0323084 0.0160567 0.0083174
0.0205332 0.0164907 0.00782614
0.0280728 0.0171508 0.00743708
0.0315958 0.0165802 0.00777337
0.0272365 0.0151837 0.00943264
0.0276189 0.0190429 0.0070095
0.0276736 0.0171744 0.00742659
0.0318415 0.0147247 0.0109415
0.0262772 0.0149734 0.00977578
0.0276113 0.0152348 0.00968095
0.0282732 0.0179051 0.00726463
0.0278003 0.0186928 0.00707591
0.0270062 0.0175067 0.00734109
0.0256492 0.0151638 0.00931938
0.0272914 0.0168834 0.0076259
0.0246772 0.0146105 0.0114062
0.0262117 0.0163389 0.0080224
0.0285982 0.0215781 0.0147897
0.0320132 0.0183384 0.00715428
0.0245013 0.0146575 0.0122108
0.0333898 0.0160256 0.00829598
0.0208776 0.017275 0.00738074
0.0272075 0.0158595 0.00840346
0.026507 0.016941 0.00758786
0.0339478 0.016228 0.00804599
0.025459 0.0160892 0.0081953
0.0338243 0.0155676 0.00878176
0.0279146 0.0165248 0.00786336
0.0265144 0.0153055 0.00909066
0.0259987 0.0167703 0.00769167
0.0281892 0.0175239 0.007352
0.0263643 0.0151385 0.00942167
0.0247626 0.0149 0.0111423
0.0196797 0.0169156 0.00762495
0.0330903 0.0150654 0.00944217
0.0273232 0.0165564 0.0078539
0.0328359 0.0152756 0.009159
0.0264219 0.0172763 0.00738716
0.0276872 0.0168257 0.00762209
0.0265974 0.0162579 0.00809055
0.0277686 0.0183043 0.00716564
0.0201768 0.0191542 0.00700421
0.0270201 0.0196837 0.00709915
0.0255899 0.0148795 0.0100498
0.0328527 0.0155416 0.00886082
0.030685 0.014905 0.0114731
0.0272766 0.0172204 0.00741091
0.0207922 0.016923 0.00755035
0.0317234 0.0148883 0.0100368
0.0281677 0.0182806 0.00717617
0.0257574 0.0158795 0.00835956
0.0256991 0.0169789 0.00752818
0.0268215 0.0188913 0.00706078
0.0263744 0.0166316 0.00780383
0.0340459 0.0174894 0.00739124
0.0272224 0.0189961 0.00703476
0.0203659 0.0199879 0.00722592
0.0253811 0.0154054 0.00949201
0.0275494 0.0160283 0.00828208
0.0243099 0.0149039 0.0130803
0.0320976 0.0187281 0.00712325
0.0338523 0.0171705 0.00753529
0.0321871 0.0191088 0.00720746
0.0281601 0.0193942 0.00702038
0.0320524 0.0148308 0.010597
0.0274531 0.0197343 0.0071268
0.0266257 0.0176254 0.00730874
0.0280864 0.0168013 0.00763102
0.0262241 0.0193858 0.00701591
0.0323969 0.0184648 0.00709023
0.0257029 0.0152871 0.00974486
0.0205538 0.0193201 0.00713958
0.0290073 0.0214523 0.0148777
0.0205334 0.0189304 0.00705223
0.0204353 0.0185476 0.00711413
0.0381304 0.0173018 0.00740449
0.0260211 0.0152504 0.00918106
0.0262262 0.0176199 0.00732705
0.0250419 0.0150256 0.0104825
0.0280182 0.0190207 0.00700259
0.0259855 0.0154657 0.00884589
0.0201378 0.0163778 0.00789055
0.0326699 0.0158194 0.00856201
0.0337905 0.0159841 0.00832125
0.0277607 0.0194168 0.00701972
0.0253776 0.0157757 0.00843042
0.0209627 0.0176523 0.00727892
0.0200204 0.0183764 0.00712767
0.0204529 0.0203522 0.00736619
0.0197645 0.017252 0.00742604
0.0214747 0.0182044 0.00720218
0.0195095 0.0162679 0.00803432
0.0205398 0.0207166 0.00750647
0.0207901 0.0212186 0.00769668
0.0210613 0.0198736 0.00716479
0.0335158 0.0165843 0.00777841
0.0268473 0.0154777 0.00882615
0.0205709 0.0175208 0.00730664
0.0267936 0.0157121 0.00850656
0.0312229 0.0147334 0.0107105
0.0211855 0.0188654 0.00708129
0.0208353 0.0186733 0.00710448
0.0207371 0.0182905 0.00716668
0.0212909 0.0209705 0.00760452
0.0260712 0.0186105 0.0071362
0.021044 0.0180393 0.00721846
0.026154 0.0189947 0.00706214
0.0265045 0.0196636 0.00708067
0.0206672 0.0197081 0.00710948
0.0273646 0.0193677 0.00699346
0.027481 0.0154242 0.00893178
0.0267133 0.0199833 0.00719981
0.027923 0.015913 0.00836651
0.0266919 0.0181194 0.00720842
0.0263112 0.0180013 0.00724217
0.0272083 0.0155673 0.00867657
0.0245996 0.0146454 0.0117971
0.0258967 0.0178445 0.00729731
0.0202795 0.0196108 0.00712435
0.02697 0.0193028 0.00698782
0.0257875 0.0173472 0.00738003
0.0252866 0.0155001 0.00879881
0.0209087 0.0208631 0.00755532
0.0210005 0.0195048 0.00702219
0.0202698 0.0177748 0.00723722
0.0278261 0.0155237 0.00875565
0.0207476 0.0201021 0.00726149
0.0199363 0.0179902 0.00718855
0.0243583 0.0151054 0.0127744
0.021204 0.020612 0.00744987
0.0208835 0.0191224 0.00702906
0.025093 0.0150226 0.00955582
0.0200969 0.0170471 0.00751294
0.0271207 0.0153359 0.00908135
0.0248363 0.0147555 0.0106936
0.0200076 0.0166941 0.00768314
0.0279791 0.0162191 0.00811309
0.0264513 0.0187302 0.0071022
0.0140992 0.0251877 0.0223557
0.0259829 0.0182275 0.0072102
0.0275583 0.0157099 0.00852405
0.020354 0.0181607 0.00717458
0.0195914 0.016551 0.00776385
0.0335464 0.0157752 0.00856575
0.0250039 0.0149086 0.00994285
0.0208345 0.0204665 0.00740178
0.0206558 0.0179036 0.00722714
0.0201836 0.0173989 0.00734343
0.0203966 0.0168043 0.00761885
0.0275973 0.0152722 0.00928296
0.0265821 0.0192076 0.0070093
0.0200999 0.0187649 0.0070669
0.0211422 0.0184219 0.00715587
0.0251933 0.0152633 0.0091687
0.0198514 0.0176062 0.00726181
0.0259732 0.0150658 0.00953265
0.0239348 0.0199198 0.0155499
0.0267931 0.0184992 0.00713461
0.0204834 0.0171562 0.00744927

VERTICES 295 590
1 0
1 1
1 2
1 3
1 4
1 5
1 6
1 7
1 8
1 9
1 10
1 11
1 12
1 13
1 14
1 15
1 16
1 17
1 18
1 19
1 20
1 21
1 22
1 23
1 24
1 25
1 26
1 27
1 28
1 29
1 30
1 31
1 32
1 33
1 34
1 35
1 36
1 37
1 38
1 39
1 40
1 41
1 42
1 43
1 44
1 45
1 46
1 47
1 48
1 49
1 50
1 51
1 52
1 53
1 54
1 55
1 56
1 57
1 58
1 59
1 60
1 61
1 62
1 63
1 64
1 65
1 66
1 67
1 68
1 69
1 70
1 71
1 72
1 73
1 74
1 75
1 76
1 77
1 78
1 79
1 80
1 81
1 82
1 83
1 84
1 85
1 86
1 87
1 88
1 89
1 90
1 91
1 92
1 93
1 94
1 95
1 96
1 97
1 98
1 99
1 100
1 101
1 102
1 103
1 104
1 105
1 106
1 107
1 108
1 109
1 110
1 111
1 112
1 113
1 114
1 115
1 116
1 117
1 118
1 119
1 120
1 121
1 122
1 123
1 124
1 125
1 126
1 127
1 128
1 129
1 130
1 131
1 132
1 133
1 134
1 135
1 136
1 137
1 138
1 139
1 140
1 141
1 142
1 143
1 144
1 145
1 146
1 147
1 148
1 149
1 150
1 151
1 152
1 153
1 154
1 155
1 156
1 157
1 158
1 159
1 160
1 161
1 162
1 163
1 164
1 165
1 166
1 167
1 168
1 169
1 170
1 171
1 172
1 173
1 174
1 175
1 176
1 177
1 178
1 179
1 180
1 181
1 182
1 183
1 184
1 185
1 186
1 187
1 188
1 189
1 190
1 191
1 192
1 193
1 194
1 195
1 196
1 197
1 198
1 199
1 200
1 201
1 202
1 203
1 204
1 205
1 206
1 207
1 208
1 209
1 210
1 211
1 212
1 213
1 214
1 215
1 216
1 217
1 218
1 219
1 220
1 221
1 222
1 223
1 224
1 225
1 226
1 227
1 228
1 229
1 230
1 231
1 232
1 233
1 234
1 235
1 236
1 237
1 238
1 239
1 240
1 241
1 242
1 243
1 244
1 245
1 246
1 247
1 248
1 249
1 250
1 251
1 252
1 253
1 254
1 255
1 256
1 257
1 258
1 259
1 260
1 261
1 262
1 263
1 264
1 265
1 266
1 267
1 268
1 269
1 270
1 271
1 272
1 273
1 274
1 275
1 276
1 277
1 278
1 279
1 280
1 281
1 282
1 283
1 284
1 285
1 286
1 287
1 288
1 289
1 290
1 291
1 292
1 293
1 294

POINT_DATA 295
SCALARS id int 1
LOOKUP_TABLE default
1
2
3
4
6
7
8
9
10
11
12
13
14
15
16
17
18
19
20
21
22
23
24
25
26
27
28
29
30
31
32
33
34
35
36
37
38
39
40
41
42
43
44
45
46
47
48
49
50
51
52
53
54
55
56
57
58
59
60
61
62
63
64
65
66
67
68
70
71
72
73
75
76
77
78
79
80
81
82
83
84
85
86
87
88
89
90
91
92
93
94
95
96
97
98
99
100
101
103
104
105
106
107
108
109
110
111
112
113
114
115
116
117
118
119
120
121
122
123
124
125
126
127
128
129
130
131
132
133
134
135
136
137
138
139
140
141
142
143
144
145
146
147
148
149
150
151
152
153
154
155
156
157
158
159
160
161
162
163
164
165
166
167
168
169
171
172
173
174
175
176
177
178
179
180
181
182
183
184
185
186
187
188
189
190
191
192
193
194
195
196
197
198
199
200
201
202
203
204
205
206
207
208
209
210
211
212
213
214
215
216
217
218
219
220
221
222
223
224
225
226
227
228
229
230
231
232
233
234
235
236
237
238
239
240
241
242
243
244
245
246
247
248
249
250
251
252
253
254
255
256
257
258
259
260
261
262
263
264
265
266
267
268
269
270
271
272
273
274
275
276
277
278
279
280
281
282
283
284
285
286
287
288
289
290
291
292
293
294
295
296
297
298
299
300

SCALARS type int 1
LOOKUP_TABLE default
1
1
1
1
1
1
1
1
1
1
1
1
1
1
1
1
1
1
1
1
1
1
1
1
1
1
1
1
1
1
1
1
1
1
1
1
1
1
1
1
1
1
1
1
1
1
1
1
1
1
1
1
1
1
1
1
1
1
1
1
1
1
1
1
1
1
1
1
1
1
1
1
1
1
1
1
1
1
1
1
1
1
1
1
1
1
1
1
1
1
1
1
1
1
1
1
1
1
1
1
1
1
1
1
1
1
1
1
1
1
1
1
1
1
1
1
1
1
1
1
1
1
1
1
1
1
1
1
1
1
1
1
1
1
1
1
1
1
1
1
1
1
1
1
1
1
1
1
1
1
1
1
1
1
1
1
1
1
1
1
1
1
1
1
1
1
1
1
1
1
1
1
1
1
1
1
1
1
1
1
1
1
1
1
1
1
1
1
1
1
1
1
1
1
1
1
1
1
1
1
1
1
1
1
1
1
1
1
1
1
1
1
1
1
1
1
1
1
1
1
1
1
1
1
1
1
1
1
1
1
1
1
1
1
1
1
1
1
1
1
1
1
1
1
1
1
1
1
1
1
1
1
1
1
1
1
1
1
1
1
1
1
1
1
1
1
1
1
1
1
1
1
1
1
1
1
1
1
1
1
1
1
1
1
1
1
1
1
1
1
1
1
1
1
1

SCALARS radius float 1
LOOKUP_TABLE default
0.0002
0.0002
0.0002
0.0002
0.0002
0.0002
0.0002
0.0002
0.0002
0.0002
0.0002
0.0002
0.0002
0.0002
0.0002
0.0002
0.0002
0.0002
0.0002
0.0002
0.0002
0.0002
0.0002
0.0002
0.0002
0.0002
0.0002
0.0002
0.0002
0.0002
0.0002
0.0002
0.0002
0.0002
0.0002
0.0002
0.0002
0.0002
0.0002
0.0002
0.0002
0.0002
0.0002
0.0002
0.0002
0.0002
0.0002
0.0002
0.0002
0.0002
0.0002
0.0002
0.0002
0.0002
0.0002
0.0002
0.0002
0.0002
0.0002
0.0002
0.0002
0.0002
0.0002
0.0002
0.0002
0.0002
0.0002
0.0002
0.0002
0.0002
0.0002
0.0002
0.0002
0.0002
0.0002
0.0002
0.0002
0.0002
0.0002
0.0002
0.0002
0.0002
0.0002
0.0002
0.0002
0.0002
0.0002
0.0002
0.0002
0.0002
0.0002
0.0002
0.0002
0.0002
0.0002
0.0002
0.0002
0.0002
0.0002
0.0002
0.0002
0.0002
0.0002
0.0002
0.0002
0.0002
0.0002
0.0002
0.0002
0.0002
0.0002
0.0002
0.0002
0.0002
0.0002
0.0002
0.0002
0.0002
0.0002
0.0002
0.0002
0.0002
0.0002
0.0002
0.0002
0.0002
0.0002
0.0002
0.0002
0.0002
0.0002
0.0002
0.0002
0.0002
0.0002
0.0002
0.0002
0.0002
0.0002
0.0002
0.0002
0.0002
0.0002
0.0002
0.0002
0.0002
0.0002
0.0002
0.0002
0.0002
0.0002
0.0002
0.0002
0.0002
0.0002
0.0002
0.0002
0.0002
0.0002
0.0002
0.0002
0.0002
0.0002
0.0002
0.0002
0.0002
0.0002
0.0002
0.0002
0.0002
0.0002
0.0002
0.0002
0.0002
0.0002
0.0002
0.0002
0.0002
0.0002
0.0002
0.0002
0.0002
0.0002
0.0002
0.0002
0.0002
0.0002
0.0002
0.0002
0.0002
0.0002
0.0002
0.0002
0.0002
0.0002
0.0002
0.0002
0.0002
0.0002
0.0002
0.0002
0.0002
0.0002
0.0002
0.0002
0.0002
0.0002
0.0002
0.0002
0.0002
0.0002
0.0002
0.0002
0.0002
0.0002
0.0002
0.0002
0.0002
0.0002
0.0002
0.0002
0.0002
0.0002
0.0002
0.0002
0.0002
0.0002
0.0002
0.0002
0.0002
0.0002
0.0002
0.0002
0.0002
0.0002
0.0002
0.0002
0.0002
0.0002
0.0002
0.0002
0.0002
0.0002
0.0002
0.0002
0.0002
0.0002
0.0002
0.0002
0.0002
0.0002
0.0002
0.0002
0.0002
0.0002
0.0002
0.0002
0.0002
0.0002
0.0002
0.0002
0.0002
0.0002
0.0002
0.0002
0.0002
0.0002
0.0002
0.0002
0.0002
0.0002
0.0002
0.0002
0.0002
0.0002
0.0002
0.0002
0.0002
0.0002
0.0002
0.0002
0.0002
0.0002
0.0002
0.0002
0.0002
0.0002
0.0002
0.0002
0.0002
0.0002
0.0002
0.0002
0.0002
0.0002

SCALARS mass float 1
LOOKUP_TABLE default
9.38289e-09
9.38289e-09
9.38289e-09
9.38289e-09
9.38289e-09
9.38289e-09
9.38289e-09
9.38289e-09
9.38289e-09
9.38289e-09
9.38289e-09
9.38289e-09
9.38289e-09
9.38289e-09
9.38289e-09
9.38289e-09
9.38289e-09
9.38289e-09
9.38289e-09
9.38289e-09
9.38289e-09
9.38289e-09
9.38289e-09
9.38289e-09
9.38289e-09
9.38289e-09
9.38289e-09
9.38289e-09
9.38289e-09
9.38289e-09
9.38289e-09
9.38289e-09
9.38289e-09
9.38289e-09
9.38289e-09
9.38289e-09
9.38289e-09
9.38289e-09
9.38289e-09
9.38289e-09
9.38289e-09
9.38289e-09
9.38289e-09
9.38289e-09
9.38289e-09
9.38289e-09
9.38289e-09
9.38289e-09
9.38289e-09
9.38289e-09
9.38289e-09
9.38289e-09
9.38289e-09
9.38289e-09
9.38289e-09
9.38289e-09
9.38289e-09
9.38289e-09
9.38289e-09
9.38289e-09
9.38289e-09
9.38289e-09
9.38289e-09
9.38289e-09
9.38289e-09
9.38289e-09
9.38289e-09
9.38289e-09
9.38289e-09
9.38289e-09
9.38289e-09
9.38289e-09
9.38289e-09
9.38289e-09
9.38289e-09
9.38289e-09
9.38289e-09
9.38289e-09
9.38289e-09
9.38289e-09
9.38289e-09
9.38289e-09
9.38289e-09
9.38289e-09
9.38289e-09
9.38289e-09
9.38289e-09
9.38289e-09
9.38289e-09
9.38289e-09
9.38289e-09
9.38289e-09
9.38289e-09
9.38289e-09
9.38289e-09
9.38289e-09
9.38289e-09
9.38289e-09
9.38289e-09
9.38289e-09
9.38289e-09
9.38289e-09
9.38289e-09
9.38289e-09
9.38289e-09
9.38289e-09
9.38289e-09
9.38289e-09
9.38289e-09
9.38289e-09
9.38289e-09
9.38289e-09
9.38289e-09
9.38289e-09
9.38289e-09
9.38289e-09
9.38289e-09
9.38289e-09
9.38289e-09
9.38289e-09
9.38289e-09
9.38289e-09
9.38289e-09
9.38289e-09
9.38289e-09
9.38289e-09
9.38289e-09
9.38289e-09
9.38289e-09
9.38289e-09
9.38289e-09
9.38289e-09
9.38289e-09
9.38289e-09
9.38289e-09
9.38289e-09
9.38289e-09
9.38289e-09
9.38289e-09
9.38289e-09
9.38289e-09
9.38289e-09
9.38289e-09
9.38289e-09
9.38289e-09
9.38289e-09
9.38289e-09
9.38289e-09
9.38289e-09
9.38289e-09
9.38289e-09
9.38289e-09
9.38289e-09
9.38289e-09
9.38289e-09
9.38289e-09
9.38289e-09
9.38289e-09
9.38289e-09
9.38289e-09
9.38289e-09
9.38289e-09
9.38289e-09
9.38289e-09
9.38289e-09
9.38289e-09
9.38289e-09
9.38289e-09
9.38289e-09
9.38289e-09
9.38289e-09
9.38289e-09
9.38289e-09
9.38289e-09
9.38289e-09
9.38289e-09
9.38289e-09
9.38289e-09
9.38289e-09
9.38289e-09
9.38289e-09
9.38289e-09
9.38289e-09
9.38289e-09
9.38289e-09
9.38289e-09
9.38289e-09
9.38289e-09
9.38289e-09
9.38289e-09
9.38289e-09
9.38289e-09
9.38289e-09
9.38289e-09
9.38289e-09
9.38289e-09
9.38289e-09
9.38289e-09
9.38289e-09
9.38289e-09
9.38289e-09
9.38289e-09
9.38289e-09
9.38289e-09
9.38289e-09
9.38289e-09
9.38289e-09
9.38289e-09
9.38289e-09
9.38289e-09
9.38289e-09
9.38289e-09
9.38289e-09
9.38289e-09
9.38289e-09
9.38289e-09
9.38289e-09
9.38289e-09
9.38289e-09
9.38289e-09
9.38289e-09
9.38289e-09
9.38289e-09
9.38289e-09
9.38289e-09
9.38289e-09
9.38289e-09
9.38289e-09
9.38289e-09
9.38289e-09
9.38289e-09
9.38289e-09
9.38289e-09
9.38289e-09
9.38289e-09
9.38289e-09
9.38289e-09
9.38289e-09
9.38289e-09
9.38289e-09
9.38289e-09
9.38289e-09
9.38289e-09
9.38289e-09
9.38289e-09
9.38289e-09
9.38289e-09
9.38289e-09
9.38289e-09
9.38289e-09
9.38289e-09
9.38289e-09
9.38289e-09
9.38289e-09
9.38289e-09
9.38289e-09
9.38289e-09
9.38289e-09
9.38289e-09
9.38289e-09
9.38289e-09
9.38289e-09
9.38289e-09
9.38289e-09
9.38289e-09
9.38289e-09
9.38289e-09
9.38289e-09
9.38289e-09
9.38289e-09
9.38289e-09
9.38289e-09
9.38289e-09
9.38289e-09
9.38289e-09
9.38289e-09
9.38289e-09
9.38289e-09
9.38289e-09
9.38289e-09
9.38289e-09
9.38289e-09
9.38289e-09
9.38289e-09
9.38289e-09
9.38289e-09
9.38289e-09
9.38289e-09
9.38289e-09
9.38289e-09
9.38289e-09
9.38289e-09
9.38289e-09
9.38289e-09
9.38289e-09

VECTORS velocity float
0.00626016 -0.00176117 0.00267324
0.000502566 -0.0159074 0.0255868
0.00581828 -0.00122413 0.000949605
0.00488916 -0.000254607 7.4808e-05
0.00640042 0.000665183 -0.000545586
0.00558954 -0.000105425 0.000186236
0.00111948 -0.00452205 0.0239469
0.00596305 0.00105316 -0.000163257
0.00335828 -0.00703911 0.00741392
0.00526352 -0.000113282 -0.000366972
0.00587241 9.85736e-05 0.000290585
0.00642862 -0.00269638 0.00297053
0.00626099 -0.00154892 0.00640308
0.00909068 0.00395346 0.00301702
0.00513434 -0.00150578 0.00187982
0.00392595 -0.0020205 0.00108211
0.00629392 0.000940969 -0.000211394
0.0303909 -0.000796133 -0.0490288
0.00645703 -0.00278905 0.00269815
0.000289395 0.000824206 -0.00222944
0.00313061 4.10342e-05 0.000150725
0.00742345 0.00368021 -0.00318485
0.00624966 0.00116502 -0.000138496
0.00377785 -0.00711449 0.00699046
0.00617692 0.000759323 -0.000586515
0.00154506 0.0029289 -0.00122402
0.00630923 0.00101557 -8.49387e-05
0.00661082 0.000641647 -0.000461806
-0.000482815 0.00278545 -0.001252
0.00282339 -0.00125388 0.000697283
0.00400617 -0.000156985 -0.000125816
0.000479734 0.00361858 -0.007941
-0.00233349 -0.00102955 0.00336563
0.00481378 0.00136266 -0.000601856
0.00241742 -0.00696131 0.0068592
0.00249574 -0.00678621 0.00656277
0.00652484 0.000632111 -0.00048127
0.0123183 0.00155592 -0.00192461
0.00175312 -0.0014444 0.00357198
0.00486497 -0.0160923 0.00900141
0.00595813 0.000803179 -8.87374e-05
-0.000175276 0.00260302 -0.00115841
0.0267002 6.52508e-05 0.0228839
0.00602517 0.000722824 -0.000634655
0.000495732 -0.00465386 0.0237818
0.00255798 -0.00238952 0.00124594
-0.00149758 0.00402927 -0.045794
0.00673287 -0.00156389 0.000616102
0.00424475 -1.76672e-05 5.08349e-05
0.00360086 -0.0026032 0.00120028
0.00629213 0.000655997 -0.000509895
0.00545858 -0.00233407 0.000554885
0.00416429 0.00184429 -0.000654776
0.0034083 0.00820893 -0.00967114
0.0062274 0.000804313 -0.000489614
0.00302421 -0.0060986 0.00659838
0.00611701 0.00078799 -0.000562039
0.00771335 -0.00201622 0.00190884
0.00512221 0.000639306 0.000229171
0.00269871 -0.00132328 0.000649731
0.00620555 0.000955625 -7.32056e-05
0.00116 0.000579044 0.000226053
0.00195955 0.00811796 -0.00666722
0.00153667 0.00218211 -0.00089662
0.000984779 0.0210865 -0.0403661
0.00200528 0.0105847 -0.00468122
0.00613321 0.0010364 -0.000249355
-0.000679595 -0.0115895 0.0370149
0.00227275 0.000752718 -0.00137463
-0.000120394 0.00132383 -0.00058914
0.00387386 -0.000260301 8.75753e-05
0.000898215 0.00424112 -0.00182329
-0.0750875 0.147288 -0.26995
0.00500049 0.000602699 -6.57514e-05
0.00568383 0.00105798 -0.000190584
0.00550294 0.00131098 -0.000229894
0.00619094 -0.000575462 0.000823098
0.00405879 0.00427621 -0.00174984
0.00613881 -3.36697e-06 -0.000821343
0.00238904 0.00284318 -0.0011571
0.00514506 -0.003765 0.00188238
0.00621399 0.000312503 -0.000732522
0.0038809 -0.0011651 2.2512e-05
0.00192983 -0.00169754 0.00419987
0.00146519 -4.29333e-05 0.000122484
0.00472414 -0.00065865 -0.00342402
0.00363211 -0.00112576 0.00016992
0.00461286 0.000415604 0.000492951
0.00439544 -0.00102591 -2.4312e-05
0.00445095 -0.000118905 -9.44307e-05
0.00667109 0.00437676 -0.00391045
0.00384786 -0.00200001 -8.35095e-05
0.00587699 -0.000333023 0.000377084
0.00462409 -0.000731719 0.000555611
0.00800427 -2.89701e-05 8.31351e-05
0.00631809 -0.000322051 0.000156329
0.00568443 -0.00092777 0.000830286
0.000497754 -0.0103059 0.0225721
0.00500351 0.000754317 -0.000172819
-0.000826206 0.00389023 0.0230884
2.00388e-10 0.0233791 -0.00588454
0.00278151 0.00051692 -7.18801e-05
0.00522728 -0.00282838 0.00057112
0.00584216 -5.88864e-05 0.000201853
0.00316667 -0.00719513 0.00695562
0.00586493 -0.000876159 0.000765163
0.00234856 0.000537764 -0.000117447
0.00610194 0.000996828 -0.00140996
0.00214223 0.000990306 -0.00192524
0.006233 0.000287672 -0.000491942
0.00416813 -0.000848831 0.000578465
0.00467463 -0.00254276 0.00312093
9.37032e-06 -0.00496104 0.0236094
0.00660419 -0.00275921 -0.000127155
-0.0252129 -0.120989 -0.26039
0.00491689 -0.00270833 0.000721086
0.000123039 -0.000197923 0.000100208
0.00553892 -0.00109576 0.00136194
0.0060191 0.00282198 -0.00460159
0.000355762 0.000205328 7.28853e-05
0.00623336 -0.000207688 0.000219684
0.00247368 0.00116205 -0.000220535
0.00540454 0.000508421 -6.25909e-05
-0.00197743 -0.00681848 0.00263342
0.00471967 -0.00074583 0.000593006
0.000914309 -0.00229293 0.000750641
0.0035645 -0.0143654 0.0349935
0.0079597 -0.00142922 -0.00790092
0.00438361 -0.00436231 0.00308073
0.00679222 -0.00202781 0.000551816
0.00545592 0.000217771 -0.00030764
0.00358427 3.0785e-05 0.000159758
0.00417564 -0.000403364 1.45091e-05
0.00644594 -0.000189829 -3.55598e-06
0.00590075 -0.00056407 0.000510299
0.00640528 0.000101398 5.00888e-05
0.000125199 0.0066855 -0.00729034
0.00528662 -0.00248255 0.00182924
0.00542134 0.00159267 -0.000302114
0.00336858 -0.0065491 0.00658074
0.00558585 0.000248415 0.00015615
0.00552092 0.000684805 6.0711e-05
0.00578186 0.00046621 -6.37671e-05
0.0311068 0.0105399 -0.0457725
0.00132247 0.00101872 -0.00214041
0.00575196 4.56765e-05 -8.43196e-05
0.00518054 0.00125388 -0.000225141
0.00553578 0.000589506 -7.92861e-05
0.00583407 -0.000274709 0.00013612
0.00313976 0.00297357 -0.0042811
0.00620395 -0.000136051 9.9649e-05
0.00662363 0.000920071 -0.00418425
0.00593717 -0.000543258 0.000584624
-3.04328e-05 0.037039 -0.0272474
0.00552291 -0.00265731 0.0002118
0.00323149 0.00334527 0.0130608
0.00154571 0.00284965 -0.00331128
0.00537415 -0.00219722 0.000916239
0.00642021 0.000179333 -5.5351e-05
0.00620874 -0.000781464 0.000433654
0.00388227 0.00279354 -0.00406228
0.00562059 0.000440844 -0.000254222
0.00364014 0.000465301 -0.000703358
0.00534144 0.00096781 -0.000933627
0.0104911 0.000334507 -0.000676368
0.00628559 -0.000421322 0.000431314
0.00553951 0.00152674 -0.000308045
0.00545331 0.00143928 -0.00246148
0.00592945 -0.000546758 -0.00711834
0.00548414 -0.00244194 0.000979731
0.0105171 -0.00296067 0.0015039
0.00636395 -0.000233884 6.40959e-06
0.00364615 -0.00595972 -0.00437885
0.0062801 -0.000821991 0.000272983
0.00584764 0.00041887 -0.00036303
0.00606794 -0.000164585 0.000304065
0.00514288 0.000637041 -9.21894e-05
0.00504556 -0.00228104 0.000528489
0.000325921 0.000378558 0.000101145
0.00495706 -0.00443139 0.0225044
0.00807021 -0.000954261 0.000543952
0.000969027 -0.00013797 0.019105
0.00593982 -7.04857e-05 0.000104838
0.00553035 -0.00222236 0.000912125
-0.000874535 -3.63523e-05 -0.000110468
0.0051873 0.00109877 -0.000190371
0.00538345 0.000467552 -0.000417804
0.00590409 -0.000657114 0.000616291
0.00574135 -0.000655996 -5.49827e-05
0.00581626 -0.000536437 0.000524618
0.00163958 0.00209579 -0.00112019
0.00553555 -3.79844e-05 5.69732e-05
0.00531109 -0.0021098 -0.00102735
0.00701792 0.00879985 -0.00917148
0.00634475 -0.000166674 1.55511e-06
0.000533625 0.00757367 0.0236747
0.00589965 -0.00260785 -0.000232523
0.000571694 0.00281399 -0.00123349
0.00407065 -0.00242706 -0.000207454
0.00494537 0.00079143 0.000374367
0.0444883 -0.00613028 -0.0502295
0.00144329 0.000955473 0.000369044
0.00576423 -0.000587328 0.00018822
0.00583801 0.001089 -0.000826774
0.0052182 -0.00135208 8.92987e-05
0.00626365 -0.0030902 -0.000552999
9.94242e-05 -0.0101402 0.0218533
0.00494695 -0.00228105 0.000215015
2.50359e-05 0.0340619 -0.0237132
0.00499668 -0.00237406 0.000516685
0.00504765 -0.00241805 0.000463923
0.00626842 0.000739983 -0.000542671
0.00624131 0.0011992 -0.00210206
0.00581052 -0.00113154 0.000407465
-0.0060534 -0.0045993 0.0177551
0.00544835 0.000624357 -5.47829e-05
0.00740356 0.0011623 -0.00195239
0.00501154 -0.00226669 0.00169246
-0.00158928 0.00621371 -0.00681597
0.000873658 0.00415691 -0.0047021
0.0050355 0.000845874 0.000423181
0.00547089 -0.000116155 0.000153864
0.00546353 -0.00225087 0.000547242
0.00522579 -0.00238834 0.000587563
0.00535281 -0.00210085 -0.00095894
0.00550936 -0.0024234 0.000980787
0.00534472 -0.00238142 0.000561839
0.00533254 -0.00174269 0.00169818
0.00537509 -0.00206732 -0.000933943
-0.000289148 -0.0026657 -0.00103237
0.00510298 -0.00237775 -0.00104933
0.00364784 0.00122886 -0.000481469
0.00590543 0.000205845 -2.2796e-05
0.00540093 -0.00224822 0.000775165
0.00613868 0.00013817 2.52643e-05
0.00523276 0.00783809 -0.0393969
0.00489655 -0.00255063 0.000571018
0.00526457 -0.00223093 0.000580768
0.00516676 -0.00232638 0.000579107
0.00536921 -0.00213004 -0.000516889
0.00579705 -0.00147817 0.000118432
0.00534039 -0.0021884 0.00054076
0.00539055 -0.00140774 0.000101222
0.00418112 -0.000234453 3.48735e-05
0.00536569 -0.00225098 -0.000965494
0.00519959 0.000202701 0.000173105
0.00570305 0.000229632 0.000127787
0.00231508 0.000864378 0.000362777
0.00791774 0.00296957 -0.00264734
0.00566257 -0.000698665 -4.92621e-05
0.00584513 -0.00112753 8.46582e-05
0.00594887 0.000256837 -4.42033e-05
0.00612786 0.00143477 -0.00388745
0.00537613 -0.001936 0.000838964
0.00530356 -0.0019877 -0.00149609
0.00534015 -0.000225611 6.90258e-05
0.00594547 -0.000496458 -8.78761e-05
0.00707097 0.00358548 -0.00563062
0.00537339 -0.00196424 -0.00103394
0.00521959 -0.00239985 -0.00106206
0.00534838 -0.00240817 0.000618516
0.00592201 9.56953e-05 0.000445859
0.00529577 -0.00210728 -0.000972941
0.00535407 -0.00244207 0.000657958
0.000142902 0.00754989 0.0233313
0.00539125 -0.00200704 -0.000913926
0.00504323 -0.00235762 0.000550322
8.48697e-05 -0.0112539 0.0239891
0.00555423 -0.00251961 0.00097522
0.00566057 0.000235061 0.000128246
0.000400995 -0.00469606 0.0246451
0.00546152 -0.00250212 0.00103622
0.00760656 0.00130269 -0.00129642
0.00582847 -0.00114322 4.95308e-05
0.0722883 -0.146033 -0.266957
0.00544731 -0.00152933 0.000112673
0.00624573 5.21409e-05 0.000143269
0.00519922 -0.00241665 0.00060077
0.00543239 -0.00244148 0.000977302
0.00247658 0.00320791 -0.00368807
0.014338 0.00770046 -0.0372503
0.00538995 -0.00208866 -0.000945541
0.00534725 -0.0022889 0.00058111
0.00553098 -0.00239626 0.00096985
0.00564834 -0.0026704 0.00108496
0.00568815 0.000274247 8.77762e-06
0.00549256 -0.000796143 -1.76595e-05
0.00492206 -0.00234902 0.000555587
0.00540367 -0.00218476 0.00051868
0.00817403 0.0053417 -0.00838428
0.00549824 -0.00239857 0.00101647
0.00178772 0.00147644 -0.00285496
2.21389e-11 0.0235549 -0.00504325
0.00551127 -0.000658691 -5.28383e-05
0.00549301 -0.00240837 0.000922457

VECTORS force float
3.10431e-08 6.58074e-08 -5.65831e-08
4.66817e-07 -1.67107e-06 7.26952e-07
1.37326e-08 -3.85356e-08 3.57839e-09
3.25914e-08 6.17902e-08 6.3787e-08
-6.29359e-09 -2.14626e-09 1.12311e-09
2.91763e-08 -2.07174e-08 1.68188e-08
-3.8629e-09 -5.58944e-12 -2.59119e-09
1.99149e-09 -3.03426e-09 8.86168e-10
-1.01653e-07 -1.47239e-08 -1.85164e-07
7.71284e-07 -2.99151e-07 1.08889e-07
-6.24433e-07 3.92206e-07 -2.16786e-07
1.94536e-08 -1.8736e-08 -2.05494e-08
4.4738e-09 6.14204e-10 -2.18851e-09
9.91415e-07 2.47678e-06 -3.5311e-06
-7.12083e-11 3.97716e-09 -3.62171e-09
-1.90766e-08 1.30528e-08 -9.66585e-09
-5.38979e-09 -3.48097e-09 2.16378e-09
0.0 0.0 -9.20462e-08
-1.13091e-07 -2.08678e-08 5.26004e-08
6.15878e-11 2.69436e-08 -6.27718e-08
1.8957e-08 -8.58957e-08 4.0349e-08
4.70614e-09 1.21045e-08 -1.14333e-08
4.85087e-09 1.2697e-09 -4.38958e-09
2.90326e-08 -7.48502e-09 2.87708e-08
5.59927e-09 5.25292e-09 -2.7156e-10
-2.07431e-08 -2.70048e-09 7.30196e-10
9.98029e-10 -9.46572e-10 3.7504e-09
1.08163e-09 -3.84966e-09 2.09435e-10
-1.95681e-09 -6.3916e-09 3.27687e-09
1.18636e-08 -9.86937e-08 6.48949e-08
2.43888e-08 -6.48243e-08 1.12099e-07
-2.62575e-08 1.70184e-08 -4.15579e-08
-3.42931e-08 1.74824e-08 -2.66347e-08
-3.42188e-09 -1.52376e-09 -3.23322e-10
1.90093e-07 1.32579e-07 -2.59535e-07
-1.76316e-08 9.66535e-12 1.86699e-08
-2.87664e-10 -3.00985e-09 -5.00339e-09
-1.73432e-09 9.25106e-09 -5.97353e-08
-1.61872e-08 3.12671e-08 -5.17865e-08
-1.08776e-08 -5.95623e-07 4.00215e-07
1.36936e-10 1.07413e-08 1.01175e-09
2.68782e-09 -3.03615e-10 -8.37061e-10
1.03924e-06 -1.42914e-06 2.7134e-06
-6.14257e-09 1.92538e-09 9.34128e-10
-9.39045e-10 3.92801e-11 1.37622e-10
-2.36766e-08 -2.33852e-08 -1.34082e-10
0.0 0.0 -9.20462e-08
-2.41033e-07 -3.61994e-08 -8.70971e-08
1.25348e-07 1.47596e-07 3.73088e-08
-5.49564e-08 2.38896e-08 -2.92072e-08
-1.88254e-08 1.02633e-08 -6.76438e-09
-1.49751e-08 1.97907e-09 -5.12687e-10
2.66273e-08 -1.03914e-08 1.93034e-08
0.0 0.0 -9.20462e-08
1.06256e-08 -3.75688e-09 -4.55428e-10
6.42416e-07 2.27074e-07 -4.38564e-08
-7.59886e-09 6.60038e-09 6.93185e-10
2.99573e-08 3.85182e-08 -5.90906e-08
5.12521e-07 -3.04463e-07 -6.84416e-08
2.91407e-09 1.24661e-08 4.19419e-09
-2.8348e-09 1.18781e-10 -8.91132e-10
-5.46532e-08 -2.94134e-08 -1.06406e-08
6.45307e-10 6.13663e-10 -9.24848e-08
-2.6712e-08 1.2262e-09 -4.15656e-10
0.0 0.0 -9.20462e-08
0.0 0.0 -9.20462e-08
5.42913e-09 -3.73412e-09 -1.84968e-09
-1.84964e-07 -5.56379e-08 1.43212e-07
-6.66902e-09 -4.5083e-09 1.07419e-08
-1.46075e-11 -4.38963e-09 1.9347e-09
-3.89685e-09 4.07411e-08 -4.7863e-08
-1.24209e-08 -4.12469e-09 8.99242e-10
0.0 0.0 -9.20462e-08
3.63674e-08 2.64088e-08 -6.00604e-09
-2.48895e-08 1.66631e-08 -3.6626e-09
-7.43937e-09 -5.80376e-10 -6.76081e-10
1.67037e-08 -8.87356e-10 -4.09234e-08
2.90161e-08 -5.18927e-08 2.04596e-08
1.67705e-09 -9.25952e-10 -1.71125e-08
5.8163e-08 -1.71568e-08 3.79173e-09
-1.30347e-08 3.43446e-08 -2.21502e-08
-5.28841e-09 3.4449e-09 -6.20314e-09
-1.41036e-07 1.89168e-08 1.90844e-08
-1.60196e-08 9.36089e-09 -7.0106e-08
-6.40488e-08 -1.60556e-08 -9.236e-09
5.25394e-08 1.69625e-08 3.66486e-08
-1.98107e-07 -7.96027e-08 -2.98899e-08
-5.29208e-08 -2.27916e-08 -8.25902e-09
-2.49109e-08 3.33768e-09 -1.68303e-08
-8.79135e-09 4.29372e-08 -4.76456e-08
3.37238e-09 1.11251e-08 -1.07115e-08
-2.89657e-07 1.14027e-07 -5.97232e-08
-1.12576e-08 -6.7513e-08 2.37182e-08
1.50494e-08 -1.13754e-07 1.07456e-07
-2.91031e-08 1.53765e-08 -2.02534e-08
-7.76357e-09 1.31466e-08 1.23039e-08
-4.47944e-09 1.37285e-08 -1.1359e-08
1.94858e-09 1.76433e-08 -3.18446e-08
4.20681e-08 -4.42783e-08 6.39994e-09
-1.79747e-09 3.31833e-10 -5.16795e-10
1.68451e-17 -3.23268e-10 -1.27088e-09
-1.20681e-08 -3.14482e-08 3.55878e-10
2.98925e-08 1.25525e-07 1.99685e-08
-8.54035e-09 -2.16894e-08 2.59799e-08
-1.63214e-07 -4.36584e-07 2.99991e-07
-4.62677e-09 2.59022e-08 -2.29407e-08
8.01936e-09 -2.51519e-08 -4.01855e-09
5.4909e-08 4.73332e-08 -5.8389e-08
-1.74069e-08 1.36753e-08 -2.71327e-08
-7.15861e-09 -4.69137e-09 4.70156e-08
-2.6257e-08 -1.4019e-07 1.20819e-07
3.30211e-08 -7.33664e-09 -8.14186e-08
-1.72311e-10 8.99604e-10 4.15019e-10
3.27243e-08 5.12493e-08 -1.08868e-08
0.0 0.0 -9.20462e-08
-8.10868e-08 5.66269e-08 7.05826e-08
-7.27211e-07 -1.37479e-07 2.67522e-07
-1.52116e-08 3.54178e-08 -5.42425e-08
-4.41996e-09 -3.92575e-08 5.84705e-08
1.26317e-07 6.98806e-08 2.44554e-08
5.2563e-09 -1.9027e-09 2.0761e-08
-2.73353e-08 1.98224e-08 -4.42034e-09
-6.16346e-09 1.78793e-08 -7.88606e-09
-1.03331e-07 1.95344e-07 -2.48666e-07
8.80537e-08 -7.57499e-08 9.0201e-08
6.45436e-09 4.12202e-08 -7.2433e-08
1.147e-06 -1.07174e-06 2.69567e-06
4.62475e-09 -3.09335e-09 -6.87111e-10
8.34556e-09 -2.32174e-08 2.77764e-08
-1.04387e-08 -6.54363e-08 -8.7343e-09
-1.26143e-08 4.24287e-08 -2.88172e-08
-3.97941e-08 2.94271e-08 -2.6387e-08
4.74337e-08 -3.53871e-08 3.06373e-08
2.5903e-08 -2.44554e-08 6.01907e-09
-4.44566e-09 -5.38856e-09 -5.59039e-10
-1.163e-08 -2.39449e-08 2.00853e-08
2.81804e-09 5.14229e-08 4.11161e-08
-8.54396e-09 5.46973e-09 8.4848e-09
-7.89923e-08 -8.1875e-08 1.04629e-07
8.84735e-08 -2.80136e-07 2.76002e-07
1.29768e-08 -8.25936e-09 2.66316e-08
-1.37283e-08 7.59901e-09 -2.2194e-08
-7.61625e-08 6.38684e-08 -2.53571e-09
-6.53954e-09 2.00405e-08 -7.80041e-08
-1.23231e-08 2.97774e-08 -5.87754e-08
-9.72449e-09 8.42116e-09 -1.25336e-08
3.26519e-08 9.0456e-08 -3.01058e-08
-2.65767e-08 1.80906e-08 -4.96858e-09
-1.93532e-09 -4.58991e-08 5.10288e-09
-8.32861e-08 1.37489e-07 1.8816e-07
8.87167e-09 -2.39821e-08 2.36471e-08
0.0 0.0 -9.20462e-08
-7.33744e-10 -1.57387e-08 -6.31091e-09
-1.99394e-11 1.16264e-08 -1.27672e-08
5.79997e-08 1.09484e-07 -1.38022e-08
6.72597e-10 9.39117e-10 -8.78113e-11
-8.38534e-09 -5.08029e-08 1.94941e-08
1.47443e-08 -8.74416e-10 5.87094e-09
1.04384e-08 1.9868e-09 -3.63604e-09
2.13998e-08 2.88868e-08 3.12391e-09
-3.60387e-09 -6.88807e-09 6.68138e-08
-5.32167e-08 5.97117e-08 -3.96706e-08
-2.77181e-08 4.16298e-08 -4.51333e-08
1.41916e-08 -5.98272e-08 7.18597e-08
-1.97598e-08 2.00521e-10 -3.51753e-08
-1.35715e-08 3.07826e-08 -2.53177e-08
2.734e-08 7.10754e-08 9.19229e-09
-2.20396e-08 2.28818e-08 -2.21533e-08
0.0 0.0 -9.20462e-08
1.973e-09 1.15631e-08 -1.26244e-08
0.0 0.0 -9.20462e-08
1.12441e-08 -3.18684e-08 2.85134e-08
8.19553e-09 -1.5056e-08 -1.16835e-08
2.43848e-08 3.25914e-08 -4.81345e-09
-3.47444e-08 -4.2173e-09 2.0118e-08
-2.05339e-08 -3.5941e-08 2.41181e-08
-1.46475e-08 2.41524e-08 -6.29987e-09
-1.32683e-13 1.24379e-13 1.36501e-13
4.05482e-09 -8.84485e-09 1.03716e-08
-6.9445e-09 1.16055e-07 1.73914e-08
6.88925e-08 1.35128e-08 -1.54894e-08
-3.8657e-09 3.0272e-10 -8.71737e-09
-2.07788e-08 -2.8056e-08 1.09843e-08
3.27231e-08 3.9633e-09 -1.69379e-08
-1.84226e-07 -1.59351e-07 1.23893e-07
-1.01017e-08 2.97422e-08 -8.08409e-09
-3.09166e-08 1.18505e-07 -4.65323e-08
-7.7242e-09 1.43672e-08 -1.41657e-08
1.89951e-08 -3.99374e-09 -2.60325e-09
1.45406e-08 8.35796e-09 -4.06002e-09
2.36205e-08 -3.19197e-09 -1.32973e-08
1.6327e-08 -1.94832e-08 8.10064e-08
5.72867e-09 -2.49449e-08 2.60508e-08
4.79643e-08 -3.9222e-09 -5.54927e-08
6.02833e-09 -7.85517e-09 -1.80544e-08
2.1802e-11 4.63545e-10 3.13215e-10
5.64126e-09 7.58362e-08 4.15973e-08
3.59915e-08 3.13528e-08 8.81905e-10
-7.95807e-08 6.40325e-08 6.69939e-09
-1.34916e-08 2.4184e-09 1.0537e-08
0.0 0.0 -9.20462e-08
3.08721e-09 2.70656e-08 6.93868e-09
1.68288e-08 -4.34509e-09 3.78337e-09
1.09565e-08 -1.0242e-07 1.74691e-07
1.83911e-09 -1.13382e-08 -1.29233e-08
-3.65415e-08 1.64295e-08 -5.4361e-08
7.69266e-09 -2.38846e-09 1.28332e-08
-2.95944e-08 1.79335e-09 -2.94942e-09
1.86055e-11 1.05587e-08 -1.11076e-08
-3.14647e-08 6.18131e-09 5.90042e-09
-2.7207e-08 7.4938e-09 2.39656e-09
-2.17552e-09 -2.77408e-09 -4.6117e-09
1.73912e-07 -1.0619e-07 2.07686e-07
7.38925e-09 1.15659e-08 -3.39381e-09
2.45311e-09 -1.35777e-09 1.10275e-08
-1.56216e-09 -1.37441e-08 -7.07957e-10
1.13419e-07 -5.82921e-08 9.52205e-08
-5.48068e-09 2.83393e-09 -5.33081e-10
-3.87192e-08 -3.96724e-08 4.66272e-08
-2.19576e-08 -3.3207e-08 2.4776e-08
4.55796e-09 -1.11762e-08 -1.52535e-08
2.40071e-08 2.74553e-08 -9.38464e-09
-6.83101e-09 4.03641e-09 3.84837e-09
-4.57532e-09 -3.57666e-09 -2.39467e-09
-3.51298e-09 -1.9667e-08 -7.03425e-09
4.9406e-09 2.13026e-08 -2.83051e-09
-4.38715e-08 3.51215e-08 -2.32787e-09
6.29329e-09 4.70528e-09 -6.28676e-09
-3.47931e-09 -2.67014e-08 -7.22633e-09
5.60445e-09 7.72368e-09 -6.18495e-09
4.28672e-08 2.77675e-08 1.29007e-08
2.68687e-08 -2.22245e-08 6.78257e-09
3.87937e-08 -1.24346e-08 2.68279e-08
7.14672e-09 1.02083e-08 3.00752e-08
3.42718e-08 -2.89714e-08 3.22636e-08
-2.08724e-09 1.52641e-08 -8.04082e-08
-6.52104e-09 2.09157e-08 1.73774e-09
-4.14886e-08 1.58739e-08 -6.78175e-09
-2.27615e-08 1.38375e-08 -5.75713e-09
-7.21468e-09 -1.42503e-09 5.2058e-10
-3.13702e-08 -7.85669e-08 3.31071e-09
-2.79992e-08 1.64452e-08 -5.08243e-10
-6.67724e-08 8.16715e-09 -1.77649e-09
2.1562e-09 -1.60785e-08 -6.88832e-09
1.00992e-08 1.56062e-08 2.62163e-09
-3.01667e-09 2.30778e-08 1.74866e-08
-6.25032e-09 -8.85016e-09 3.00486e-09
-5.09544e-09 -2.55132e-09 -1.05811e-08
-2.07461e-08 2.24102e-08 -3.00288e-08
-8.3681e-09 8.12151e-09 9.22967e-09
-9.65677e-09 4.02317e-08 -7.00811e-09
-9.37347e-10 6.92544e-09 -5.18781e-09
0.0 0.0 -9.20462e-08
-1.40857e-08 -3.89064e-08 2.1536e-08
-9.61722e-09 2.24054e-09 -1.46067e-08
6.97039e-09 -7.91128e-09 3.20021e-08
-2.59825e-09 -9.13042e-09 5.82465e-09
1.81012e-08 5.07614e-09 -7.30037e-09
-5.91724e-09 -1.97401e-08 -2.78428e-09
1.41895e-08 1.49025e-08 -4.63475e-09
-5.88195e-09 6.33849e-09 -1.4937e-08
-2.21133e-09 -1.66675e-09 1.34414e-08
-4.09274e-09 -4.94269e-09 -1.94758e-09
-8.94168e-09 4.19483e-09 -2.76506e-08
-3.14838e-11 1.0205e-09 -1.90757e-10
-1.38351e-08 -1.27661e-11 -2.71136e-10
-2.235e-08 1.27363e-08 1.21901e-08
1.1051e-08 2.89965e-08 -4.70897e-08
-1.29745e-08 7.95928e-09 1.09766e-08
9.40399e-09 -1.68368e-08 2.08047e-08
-1.75131e-09 -3.18074e-10 8.95307e-09
3.96595e-09 6.93705e-09 -7.12526e-09
-9.19132e-08 -6.34854e-08 5.40203e-08
-4.36615e-08 2.45795e-08 2.22014e-09
0.0 0.0 -9.20462e-08
-2.20136e-08 8.26139e-09 -5.37667e-09
1.09121e-08 1.48476e-08 -3.47031e-09
-6.90385e-09 5.46512e-09 -9.3681e-09
2.12589e-09 8.31634e-09 -2.47115e-09
-1.17734e-08 2.77671e-08 -2.99096e-08
1.46204e-08 1.31759e-08 -6.46441e-08
-6.50389e-09 -8.87175e-09 -8.40369e-09
-6.99557e-09 4.31084e-09 4.73975e-09
4.14948e-09 1.18572e-08 -1.39828e-09
7.20703e-09 -1.22469e-09 -3.69452e-08
-3.03709e-08 -7.22516e-09 3.84137e-09
1.2952e-08 -9.89016e-09 1.95998e-09
2.63394e-11 -1.70514e-11 1.3949e-12
-4.08e-08 2.84329e-08 -6.0953e-09
1.37651e-09 1.54441e-08 -2.81032e-08
5.80844e-09 1.18158e-08 -1.50857e-08
-5.38568e-09 -4.03217e-08 2.05755e-07
-6.50257e-18 -2.73948e-10 -1.28119e-09
-2.01533e-08 2.44777e-09 -2.42585e-09
-4.28671e-09 -1.01848e-08 -1.09718e-08
