# vtk DataFile Version 3.0
LIGGGHTS particles timestep 200000
ASCII
DATASET POLYDATA
POINTS 75 float
0.017475 0.0141252 0.0125542
0.0208103 0.0180917 0.016368
0.0162799 0.0175749 0.024068
0.0230384 0.0201199 0.0228503
0.0161573 0.0163353 0.015871
0.0199654 0.0156232 0.0207644
0.014806 0.0209169 0.0160798
0.0167297 0.0161526 0.0238318
0.0232827 0.0227615 0.00941213
0.0156328 0.0224028 0.0161917
0.020595 0.0201703 0.0246772
0.0214123 0.0238945 0.0129537
0.0179123 0.0229729 0.0101568
0.015043 0.01872 0.0244019
0.0182569 0.0231779 0.0253657
0.0146267 0.0194466 0.0238934
0.0170298 0.0231095 0.0106558
0.0205023 0.0174865 0.00730252
0.0166121 0.0142835 0.0127872
0.0209147 0.0202667 0.0193026
0.0163245 0.0156891 0.0151281
0.0198698 0.0239637 0.0120731
0.0171238 0.0224213 0.0272093
0.0196152 0.0148628 0.0183731
0.0180919 0.0206486 0.0153234
0.019249 0.0147325 0.0111869
0.0172321 0.0195895 0.0268698
0.0205903 0.0186768 0.00709714
0.0198546 0.016645 0.0218537
0.0170528 0.0209794 0.0224801
0.0191256 0.0201351 0.0204186
0.0194779 0.0164716 0.0224676
0.0170201 0.0185949 0.0199568
0.0195611 0.0239076 0.0124348
0.0237252 0.0222314 0.00883768
0.0176572 0.0201024 0.0207395
0.0186325 0.0233335 0.0122685
0.0216864 0.0171255 0.0232451
0.0163876 0.0198651 0.0225774
0.0164414 0.0149756 0.0209638
0.0186023 0.019719 0.0215884
0.020246 0.0236696 0.0184627
0.0206905 0.0239683 0.0121284
0.0194373 0.0161727 0.0206174
0.0224537 0.0157916 0.0187474
0.0169226 0.0142128 0.0125443
0.0205117 0.0232201 0.0221386
0.0187283 0.0173021 0.0253135
0.0218509 0.0200714 0.0163551
0.0215986 0.0189505 0.0255397
0.0165344 0.0186388 0.0235978
0.0203516 0.0173587 0.026199
0.0164249 0.0149564 0.0187889
0.0148175 0.0177697 0.022085
0.0170079 0.0178758 0.0249645
0.0199979 0.0161888 0.00818354
0.0221062 0.0204172 0.0171498
0.0191003 0.0144318 0.0182563
0.0173369 0.0145672 0.0211257
0.0199787 0.0216175 0.0265569
0.0222889 0.0184249 0.0185008
0.0204544 0.0148469 0.0258411
0.017687 0.0174519 0.0192294
0.0161947 0.0236502 0.0134704
0.0213116 0.0210464 0.0236692
0.0157658 0.0180083 0.0255427
0.0194678 0.0239636 0.012042
0.0228694 0.0209418 0.0166503
0.0145717 0.019672 0.0164111
0.0230906 0.0209042 0.0181314
0.0182867 0.0221328 0.0275369
0.0221414 0.0221204 0.0209018
0.0165637 0.0230975 0.0105987
0.0216583 0.0175982 0.0226116
0.0234002 0.018439 0.0252383

VERTICES 75 150
1 0
1 1
1 2
1 3
1 4
1 5
1 6
1 7
1 8
1 9
1 10
1 11
1 12
1 13
1 14
1 15
1 16
1 17
1 18
1 19
1 20
1 21
1 22
1 23
1 24
1 25
1 26
1 27
1 28
1 29
1 30
1 31
1 32
1 33
1 34
1 35
1 36
1 37
1 38
1 39
1 40
1 41
1 42
1 43
1 44
1 45
1 46
1 47
1 48
1 49
1 50
1 51
1 52
1 53
1 54
1 55
1 56
1 57
1 58
1 59
1 60
1 61
1 62
1 63
1 64
1 65
1 66
1 67
1 68
1 69
1 70
1 71
1 72
1 73
1 74

POINT_DATA 75
SCALARS id int 1
LOOKUP_TABLE default
1
2
3
4
5
6
7
8
9
10
11
12
13
14
15
16
17
18
19
20
21
22
23
24
25
26
27
28
29
30
31
32
33
34
35
36
37
38
39
40
41
42
43
44
45
46
47
48
49
50
51
52
53
54
55
56
57
58
59
60
61
62
63
64
65
66
67
68
69
70
71
72
73
74
75

SCALARS type int 1
LOOKUP_TABLE default
1
1
1
1
1
1
1
1
1
1
1
1
1
1
1
1
1
1
1
1
1
1
1
1
1
1
1
1
1
1
1
1
1
1
1
1
1
1
1
1
1
1
1
1
1
1
1
1
1
1
1
1
1
1
1
1
1
1
1
1
1
1
1
1
1
1
1
1
1
1
1
1
1
1
1

SCALARS radius float 1
LOOKUP_TABLE default
0.0002
0.0002
0.0002
0.0002
0.0002
0.0002
0.0002
0.0002
0.0002
0.0002
0.0002
0.0002
0.0002
0.0002
0.0002
0.0002
0.0002
0.0002
0.0002
0.0002
0.0002
0.0002
0.0002
0.0002
0.0002
0.0002
0.0002
0.0002
0.0002
0.0002
0.0002
0.0002
0.0002
0.0002
0.0002
0.0002
0.0002
0.0002
0.0002
0.0002
0.0002
0.0002
0.0002
0.0002
0.0002
0.0002
0.0002
0.0002
0.0002
0.0002
0.0002
0.0002
0.0002
0.0002
0.0002
0.0002
0.0002
0.0002
0.0002
0.0002
0.0002
0.0002
0.0002
0.0002
0.0002
0.0002
0.0002
0.0002
0.0002
0.0002
0.0002
0.0002
0.0002
0.0002
0.0002

SCALARS mass float 1
LOOKUP_TABLE default
9.38289e-09
9.38289e-09
9.38289e-09
9.38289e-09
9.38289e-09
9.38289e-09
9.38289e-09
9.38289e-09
9.38289e-09
9.38289e-09
9.38289e-09
9.38289e-09
9.38289e-09
9.38289e-09
9.38289e-09
9.38289e-09
9.38289e-09
9.38289e-09
9.38289e-09
9.38289e-09
9.38289e-09
9.38289e-09
9.38289e-09
9.38289e-09
9.38289e-09
9.38289e-09
9.38289e-09
9.38289e-09
9.38289e-09
9.38289e-09
9.38289e-09
9.38289e-09
9.38289e-09
9.38289e-09
9.38289e-09
9.38289e-09
9.38289e-09
9.38289e-09
9.38289e-09
9.38289e-09
9.38289e-09
9.38289e-09
9.38289e-09
9.38289e-09
9.38289e-09
9.38289e-09
9.38289e-09
9.38289e-09
9.38289e-09
9.38289e-09
9.38289e-09
9.38289e-09
9.38289e-09
9.38289e-09
9.38289e-09
9.38289e-09
9.38289e-09
9.38289e-09
9.38289e-09
9.38289e-09
9.38289e-09
9.38289e-09
9.38289e-09
9.38289e-09
9.38289e-09
9.38289e-09
9.38289e-09
9.38289e-09
9.38289e-09
9.38289e-09
9.38289e-09
9.38289e-09
9.38289e-09
9.38289e-09
9.38289e-09

VECTORS velocity float
0.0035135 0.015882 -0.0381941
0.000967644 0.0206519 0.0497169
0.0 -0.0 -0.03
0.0 -0.0 -0.03
-0.00485035 -0.0247034 -0.106559
0.0 -0.0 -0.03
-1.61331e-09 0.026851 -0.0109364
0.0 -0.0 -0.03
-0.00111874 0.0117451 -0.0635036
0.0 0.0 -0.211784
0.0 -0.0 -0.03
-0.0315081 -0.0298648 -0.0465372
7.96412e-05 0.000278796 -0.000762916
0.0 -0.0 -0.03
0.0 -0.0 -0.03
0.0 -0.0 -0.03
-0.000379783 -0.00025171 0.000451513
0.00126697 0.096364 -0.0305781
0.00464655 -0.000309857 -0.00581626
0.0 -0.0 -0.03
-0.00217376 -0.0495205 -0.0439855
0.00200261 -0.00353424 -0.00529602
0.0 -0.0 -0.03
0.0 0.0 -0.0453281
9.17919e-11 0.0222259 -0.00931353
0.0182296 0.0248221 -0.0546835
0.0 -0.0 -0.03
0.00539528 -0.00260153 0.00059287
0.0 -0.0 -0.03
0.0 -0.0 -0.03
0.0 -0.0 -0.03
0.0 -0.0 -0.03
0.0 -0.0 -0.03
0.00110343 -0.0051222 0.0152622
-5.85762e-05 1.91655e-05 -0.000930889
0.0 -0.0 -0.03
-0.0282025 -0.0473807 -0.0812722
0.0 -0.0 -0.03
0.0 -0.0 -0.03
0.0 -0.0 -0.03
0.0 -0.0 -0.03
0.0 -0.0 -0.03
-7.26535e-05 -3.47535e-05 -0.000140115
0.0 -0.0 -0.03
0.0 -0.0 -0.03
0.00992089 -0.00206967 -0.00102684
0.0 -0.0 -0.03
0.0 -0.0 -0.03
-3.60284e-09 0.0284746 -0.00595802
0.0 -0.0 -0.03
0.0 -0.0 -0.03
0.0 -0.0 -0.03
0.0 -0.0 -0.03
0.0 -0.0 -0.03
0.0 -0.0 -0.03
0.0502808 0.0717039 -0.117408
0.0 0.0 -0.16142
0.0 0.0 -0.0659291
0.0 -0.0 -0.03
0.0 -0.0 -0.03
0.0 -0.0 -0.03
0.0 -0.0 -0.03
0.0 -0.0 -0.03
0.000805444 0.0336858 -0.0212095
0.0 -0.0 -0.03
0.0 -0.0 -0.03
0.000663773 -0.00162079 0.000519243
-0.00202873 0.045224 -0.0313963
-3.89491e-09 0.0288165 -0.00351972
0.0 0.0 -0.0824394
0.0 -0.0 -0.03
0.0 -0.0 -0.03
-0.00865004 -0.00151957 -0.00586821
0.0 -0.0 -0.03
0.0 -0.0 -0.03

VECTORS force float
0.0 0.0 -9.20462e-08
0.0 0.0 -9.20462e-08
0.0 0.0 0.0
0.0 0.0 0.0
0.0 0.0 -9.20462e-08
0.0 0.0 0.0
-8.60929e-17 -6.00387e-10 -1.4735e-09
0.0 0.0 0.0
0.0 0.0 -9.20462e-08
0.0 0.0 -9.20462e-08
0.0 0.0 0.0
0.0 0.0 -9.20462e-08
-1.10118e-08 4.4504e-09 9.46312e-09
0.0 0.0 0.0
0.0 0.0 0.0
0.0 0.0 0.0
2.97998e-07 -5.5377e-08 -2.46107e-07
0.0 0.0 -9.20462e-08
0.0 0.0 -9.20462e-08
0.0 0.0 0.0
1.57958e-09 -2.29728e-08 -8.82767e-09
0.0 0.0 -9.20462e-08
0.0 0.0 0.0
0.0 0.0 -9.20462e-08
7.27443e-18 -5.08308e-10 -1.20816e-09
0.0 0.0 -9.20462e-08
0.0 0.0 0.0
-2.34632e-11 2.43409e-11 -4.85387e-12
0.0 0.0 0.0
0.0 0.0 0.0
0.0 0.0 0.0
0.0 0.0 0.0
0.0 0.0 0.0
0.0 0.0 -9.20462e-08
1.01629e-07 -1.34353e-08 -1.5084e-08
0.0 0.0 0.0
0.0 0.0 -9.20462e-08
0.0 0.0 0.0
0.0 0.0 0.0
0.0 0.0 0.0
0.0 0.0 0.0
0.0 0.0 0.0
2.76183e-09 1.25807e-09 5.17451e-09
0.0 0.0 0.0
0.0 0.0 0.0
0.0 0.0 -9.20462e-08
0.0 0.0 0.0
0.0 0.0 0.0
5.96531e-13 -3.26425e-10 -1.56306e-09
0.0 0.0 0.0
0.0 0.0 0.0
0.0 0.0 0.0
0.0 0.0 0.0
0.0 0.0 0.0
0.0 0.0 0.0
0.0 0.0 -9.20462e-08
0.0 0.0 -9.20462e-08
0.0 0.0 -9.20462e-08
0.0 0.0 0.0
0.0 0.0 0.0
0.0 0.0 0.0
0.0 0.0 0.0
0.0 0.0 0.0
0.0 0.0 -9.20462e-08
0.0 0.0 0.0
0.0 0.0 0.0
-1.78409e-06 3.113e-08 8.33863e-08
0.0 0.0 -9.20462e-08
-1.98481e-16 -1.86056e-10 -1.58283e-09
0.0 0.0 -9.20462e-08
0.0 0.0 0.0
0.0 0.0 0.0
-5.18675e-06 -3.59883e-07 -1.57514e-06
0.0 0.0 0.0
0.0 0.0 0.0
