# vtk DataFile Version 3.0
LIGGGHTS particles timestep 7800000
ASCII
DATASET POLYDATA
POINTS 294 float
0.057443 0.0149029 0.0116558
0.0581902 0.0159822 0.00868603
0.0474746 0.0177705 0.0074331
0.0571071 0.0152204 0.0131701
0.0645322 0.0170277 0.00766661
0.0537775 0.0176013 0.00736068
0.0481971 0.0189982 0.00710173
0.0648488 0.0184426 0.00723018
0.0603137 0.0170087 0.00768673
0.0588297 0.015696 0.00898459
0.0587842 0.016838 0.00783384
0.0604047 0.0173413 0.00735324
0.051626 0.0149271 0.0109393
0.04858 0.019641 0.00709363
0.0406533 0.0175728 0.0073614
0.0546515 0.0198223 0.00726947
0.0649965 0.017473 0.00734916
0.0591286 0.016984 0.00769237
0.057635 0.0148917 0.0108843
0.052577 0.0172562 0.00756993
0.0604084 0.0182378 0.00731013
0.0580686 0.0156091 0.00908684
0.0647627 0.0180523 0.00721318
0.0542611 0.0206743 0.00737048
0.0655007 0.0179816 0.00718135
0.0593516 0.0154154 0.00927483
0.0650922 0.0178268 0.00718897
0.0642643 0.0160734 0.00834275
0.0593848 0.0176184 0.00733642
0.0545589 0.0202474 0.00727312
0.054995 0.0208288 0.00735492
0.0540703 0.0159693 0.00870037
0.0526023 0.0168877 0.00772348
0.0649348 0.0188329 0.00724702
0.0607527 0.0180347 0.00732385
0.05948 0.0168522 0.0078308
0.0641791 0.0157532 0.00856679
0.0543213 0.017021 0.00757958
0.0594837 0.0185766 0.00731171
0.0528284 0.0183325 0.007104
0.058554 0.0151595 0.00987833
0.0590823 0.0178799 0.00732985
0.0604378 0.0177882 0.00731682
0.0646102 0.017344 0.0074346
0.0579822 0.0153617 0.00938895
0.0578951 0.0151151 0.0096916
0.0153817 0.0364662 0.0432188
0.0573581 0.0149276 0.0120458
0.0570195 0.0154214 0.0135047
0.0530842 0.0194862 0.00721473
0.0643559 0.0163945 0.00812254
0.0474462 0.0173823 0.00752562
0.0529698 0.0158956 0.00857892
0.0472393 0.0183927 0.00731472
0.0657904 0.0177059 0.00717963
0.0600914 0.0175883 0.00732454
0.0652956 0.0172552 0.00750116
0.0539184 0.0204579 0.00733558
0.0580919 0.0149207 0.010337
0.0537354 0.0190124 0.00716147
0.0654134 0.0175993 0.0072599
0.0526634 0.0176356 0.00747678
0.0591324 0.0167022 0.00797621
0.0578068 0.014928 0.0119407
0.040486 0.0168308 0.00760913
0.0530024 0.019113 0.00709658
0.0646765 0.0176619 0.00720111
0.0546714 0.0165715 0.00797527
0.0514331 0.0148928 0.0117143
0.0588662 0.0185317 0.00731936
0.0572714 0.0149517 0.0124355
0.0569272 0.015621 0.0138388
0.0519532 0.0152508 0.00946401
0.0547015 0.0168043 0.00765138
0.0538672 0.0179641 0.00721412
0.0543548 0.0173863 0.00742016
0.0577264 0.0149425 0.0104981
0.0640924 0.015488 0.00885341
0.0586041 0.0173494 0.00734555
0.0535692 0.018215 0.00712317
0.0644441 0.016712 0.00789579
0.0583082 0.015184 0.00953937
0.0601011 0.0166561 0.00803828
0.0534318 0.0193025 0.00714173
0.0582059 0.0149384 0.00987323
0.0607588 0.0175252 0.00732496
0.0546652 0.0210553 0.00744842
0.0571859 0.0150707 0.0128077
0.0587796 0.0181413 0.00732816
0.0523722 0.0164017 0.00797481
0.0596474 0.0171095 0.00757438
0.0520229 0.0148005 0.0108128
0.0600449 0.0172152 0.00747438
0.0481089 0.0182233 0.00726102
0.0534637 0.0163802 0.0079891
0.05335 0.0151567 0.00973124
0.0455063 0.0149048 0.0114454
0.0583452 0.0164228 0.00824486
0.0450141 0.0154326 0.0135303
0.0478076 0.0190892 0.0071035
0.0522326 0.0151118 0.00975087
0.0536477 0.0186144 0.00714192
0.0481624 0.0197584 0.0071061
0.0529974 0.0174156 0.00748042
0.0547346 0.0171695 0.00749176
0.0530799 0.0164688 0.00805835
0.0584312 0.0157173 0.00895738
0.0525849 0.0150036 0.00990643
0.0470128 0.0172665 0.00759856
0.0590288 0.015942 0.00874001
0.0591577 0.0188082 0.00731071
0.0530942 0.0177768 0.00733848
0.0586303 0.0159628 0.00871248
0.0405673 0.0172023 0.007485
0.0535386 0.0205758 0.00740148
0.0549068 0.0204412 0.00731086
0.0534807 0.0178538 0.00727048
0.052863 0.0149088 0.010178
0.0583945 0.0154369 0.00924184
0.05305 0.0161258 0.00826184
0.053385 0.0174976 0.00742524
0.0522865 0.0161159 0.00824113
0.052915 0.0187227 0.00708671
0.0599217 0.0169066 0.00778317
0.0536063 0.0200793 0.00725071
0.0578081 0.0148612 0.00998816
0.040326 0.0162729 0.00815055
0.0540306 0.0187433 0.00718103
0.0584346 0.0166982 0.00796894
0.0542629 0.016435 0.00808193
0.0531844 0.0181427 0.00720476
0.0543177 0.0182002 0.00719197
0.0543994 0.0185913 0.00721076
0.0533244 0.0158235 0.00874931
0.0527015 0.0147387 0.010502
0.0542061 0.0200627 0.00723519
0.0494611 0.0191868 0.0070103
0.0520396 0.0155184 0.00917957
0.0600392 0.0183918 0.00730927
0.0539113 0.0169028 0.00764713
0.0517702 0.0148022 0.0101662
0.0531936 0.0170908 0.0076065
0.0597248 0.0178287 0.00732382
0.0471498 0.0180031 0.0074141
0.0549402 0.0179893 0.00724346
0.051855 0.0150095 0.00983444
0.0527322 0.0165366 0.00786416
0.0547005 0.0183093 0.0072305
0.0464893 0.0157825 0.00877036
0.053198 0.0167304 0.00777987
0.0476251 0.0168764 0.00762319
0.0523686 0.0150138 0.0105528
0.0485818 0.018873 0.00710628
0.0590162 0.0191823 0.00730488
0.0472976 0.0170409 0.00778345
0.0589297 0.0154239 0.00926021
0.0471473 0.0162836 0.00814059
0.0535968 0.0167017 0.00779176
0.052122 0.0150464 0.01013
0.0591689 0.0182703 0.0073212
0.0468673 0.0185395 0.00732055
0.0586924 0.0177478 0.00733673
0.054851 0.0190929 0.00726694
0.049052 0.0191333 0.00703855
0.0531077 0.015376 0.00936613
0.0524118 0.0155603 0.00903906
0.0527143 0.0157152 0.00882821
0.0479986 0.0167507 0.00776841
0.0409118 0.0186846 0.00699135
0.0584608 0.0149148 0.0101811
0.0539145 0.019791 0.00720041
0.0587777 0.0165561 0.00811758
0.0536839 0.0159841 0.00859818
0.0541138 0.0191363 0.00720003
0.0543436 0.0166687 0.00776753
0.0521998 0.015857 0.00853346
0.0492825 0.0181684 0.007199
0.0486713 0.0192561 0.00703426
0.05208 0.0147719 0.0104179
0.0600915 0.0179883 0.00731666
0.0527216 0.0152802 0.00948353
0.0545573 0.0178802 0.00720491
0.0490488 0.0178129 0.00727274
0.0533503 0.0189114 0.00712296
0.0527009 0.0162004 0.00808158
0.0467787 0.0181523 0.00741929
0.0535443 0.0153633 0.00944921
0.0547981 0.0186967 0.00725066
0.0478918 0.0194735 0.0070315
0.0589942 0.0175036 0.00743278
0.0526119 0.0159572 0.00841125
0.0487017 0.0173477 0.00739968
0.045188 0.0151042 0.0127877
0.0541734 0.0177183 0.00729029
0.0547163 0.0175379 0.00733727
0.0532605 0.0185221 0.00710345
0.0585326 0.0170571 0.00760909
0.0527446 0.0179736 0.00725937
0.0470405 0.0192972 0.00712737
0.0587972 0.0151978 0.00956263
0.0524291 0.0148038 0.0102161
0.0539667 0.0165586 0.00784331
0.053949 0.0183522 0.00716224
0.048111 0.0186137 0.00717385
0.0532577 0.0202581 0.00733181
0.0538302 0.0163285 0.00814068
0.0465861 0.0160236 0.00834435
0.0482813 0.0193827 0.00702971
0.0464981 0.0149196 0.0109944
0.0437429 0.0201029 0.0155186
0.0651782 0.018217 0.00720606
0.0529712 0.0150742 0.0098302
0.046954 0.0189188 0.00722385
0.0464675 0.016513 0.00783733
0.047647 0.0199521 0.00713791
0.0541265 0.0162049 0.0083793
0.0452767 0.0150028 0.0124106
0.0596754 0.0182256 0.00731653
0.0592961 0.0172413 0.00743595
0.0523439 0.0153358 0.00936405
0.0472597 0.0166427 0.00778371
0.0483692 0.0165224 0.00803373
0.0429517 0.0226695 0.0089447
0.0435446 0.0210167 0.015159
0.041077 0.0194644 0.00705817
0.0468409 0.0176842 0.00752057
0.040744 0.0179424 0.00723831
0.0436544 0.020484 0.0153879
0.043104 0.0230516 0.01032
0.0484374 0.0168305 0.00772434
0.059229 0.0156831 0.00900406
0.0471184 0.0196776 0.00703135
0.0458304 0.0149499 0.0110753
0.0532705 0.0155898 0.00906943
0.0597302 0.0174167 0.00733198
0.0478076 0.0179759 0.00735021
0.0485308 0.0159453 0.00865815
0.0475672 0.0161481 0.00832928
0.0478021 0.0164081 0.00808701
0.0476334 0.0183303 0.00728707
0.048646 0.0177349 0.00731635
0.0484921 0.0184899 0.0071783
0.04772 0.0187087 0.00719058
0.0459496 0.015151 0.0103124
0.0517039 0.0148264 0.01056
0.0535901 0.0171283 0.00756952
0.0474128 0.0191511 0.00712135
0.0535272 0.0196915 0.00719313
0.0475038 0.0195707 0.00703207
0.0513451 0.0149273 0.0121029
0.0534542 0.0161489 0.00831529
0.0539567 0.0172683 0.00749106
0.0489554 0.0186957 0.00712055
0.0490973 0.0172905 0.00737069
0.0487427 0.020267 0.007316
0.0465453 0.0169043 0.00773503
0.0466122 0.0172908 0.00763568
0.0480457 0.0159692 0.00856629
0.0480966 0.0170626 0.00753031
0.0453344 0.0146746 0.0121893
0.0531772 0.0198727 0.00726106
0.0482529 0.0156294 0.00893952
0.0428382 0.0206756 0.00728284
0.0441966 0.0194209 0.0156396
0.0478423 0.0174093 0.00747714
0.0487719 0.0170012 0.00758672
0.046324 0.0162217 0.00811066
0.0473957 0.015616 0.00885594
0.0484602 0.0200048 0.00720887
0.0451062 0.0152472 0.0131532
0.0463423 0.0151337 0.0102858
0.0538169 0.0194036 0.00718025
0.053926 0.0154653 0.00938601
0.0404043 0.0165174 0.00784385
0.047326 0.018772 0.00721803
0.0542898 0.019656 0.00723123
0.0454118 0.0148189 0.0118243
0.0408251 0.0183139 0.0071142
0.0594448 0.015922 0.00876681
0.0468551 0.0149906 0.0106568
0.0461503 0.0154438 0.00953904
0.0488493 0.0167321 0.00787242
0.0458926 0.0148211 0.0115083
0.0461866 0.0148754 0.0112421
0.054599 0.0194032 0.00725256
0.053677 0.015753 0.00892462
0.0470077 0.0158042 0.00861809
0.0488382 0.0182828 0.00719912
0.0468604 0.0166346 0.00776052
0.0409951 0.0190744 0.00702472
0.0515401 0.0148981 0.0113289
0.0438476 0.0196398 0.0156025
0.0527906 0.0154946 0.00915294
0.048488 0.0180963 0.00724986

VERTICES 294 588
1 0
1 1
1 2
1 3
1 4
1 5
1 6
1 7
1 8
1 9
1 10
1 11
1 12
1 13
1 14
1 15
1 16
1 17
1 18
1 19
1 20
1 21
1 22
1 23
1 24
1 25
1 26
1 27
1 28
1 29
1 30
1 31
1 32
1 33
1 34
1 35
1 36
1 37
1 38
1 39
1 40
1 41
1 42
1 43
1 44
1 45
1 46
1 47
1 48
1 49
1 50
1 51
1 52
1 53
1 54
1 55
1 56
1 57
1 58
1 59
1 60
1 61
1 62
1 63
1 64
1 65
1 66
1 67
1 68
1 69
1 70
1 71
1 72
1 73
1 74
1 75
1 76
1 77
1 78
1 79
1 80
1 81
1 82
1 83
1 84
1 85
1 86
1 87
1 88
1 89
1 90
1 91
1 92
1 93
1 94
1 95
1 96
1 97
1 98
1 99
1 100
1 101
1 102
1 103
1 104
1 105
1 106
1 107
1 108
1 109
1 110
1 111
1 112
1 113
1 114
1 115
1 116
1 117
1 118
1 119
1 120
1 121
1 122
1 123
1 124
1 125
1 126
1 127
1 128
1 129
1 130
1 131
1 132
1 133
1 134
1 135
1 136
1 137
1 138
1 139
1 140
1 141
1 142
1 143
1 144
1 145
1 146
1 147
1 148
1 149
1 150
1 151
1 152
1 153
1 154
1 155
1 156
1 157
1 158
1 159
1 160
1 161
1 162
1 163
1 164
1 165
1 166
1 167
1 168
1 169
1 170
1 171
1 172
1 173
1 174
1 175
1 176
1 177
1 178
1 179
1 180
1 181
1 182
1 183
1 184
1 185
1 186
1 187
1 188
1 189
1 190
1 191
1 192
1 193
1 194
1 195
1 196
1 197
1 198
1 199
1 200
1 201
1 202
1 203
1 204
1 205
1 206
1 207
1 208
1 209
1 210
1 211
1 212
1 213
1 214
1 215
1 216
1 217
1 218
1 219
1 220
1 221
1 222
1 223
1 224
1 225
1 226
1 227
1 228
1 229
1 230
1 231
1 232
1 233
1 234
1 235
1 236
1 237
1 238
1 239
1 240
1 241
1 242
1 243
1 244
1 245
1 246
1 247
1 248
1 249
1 250
1 251
1 252
1 253
1 254
1 255
1 256
1 257
1 258
1 259
1 260
1 261
1 262
1 263
1 264
1 265
1 266
1 267
1 268
1 269
1 270
1 271
1 272
1 273
1 274
1 275
1 276
1 277
1 278
1 279
1 280
1 281
1 282
1 283
1 284
1 285
1 286
1 287
1 288
1 289
1 290
1 291
1 292
1 293

POINT_DATA 294
SCALARS id int 1
LOOKUP_TABLE default
1
2
3
4
6
7
8
9
10
11
12
13
14
15
16
17
18
19
20
21
22
23
24
25
26
27
28
29
30
31
32
33
34
35
36
37
38
39
40
41
42
43
44
45
46
47
48
49
50
51
52
53
54
55
56
57
58
59
60
61
62
63
64
65
66
67
68
70
71
72
73
75
77
78
79
80
81
82
83
84
85
86
87
88
89
90
91
92
93
94
95
96
97
98
99
100
101
103
104
105
106
107
108
109
110
111
112
113
114
115
116
117
118
119
120
121
122
123
124
125
126
127
128
129
130
131
132
133
134
135
136
137
138
139
140
141
142
143
144
145
146
147
148
149
150
151
152
153
154
155
156
157
158
159
160
161
162
163
164
165
166
167
168
169
171
172
173
174
175
176
177
178
179
180
181
182
183
184
185
186
187
188
189
190
191
192
193
194
195
196
197
198
199
200
201
202
203
204
205
206
207
208
209
210
211
212
213
214
215
216
217
218
219
220
221
222
223
224
225
226
227
228
229
230
231
232
233
234
235
236
237
238
239
240
241
242
243
244
245
246
247
248
249
250
251
252
253
254
255
256
257
258
259
260
261
262
263
264
265
266
267
268
269
270
271
272
273
274
275
276
277
278
279
280
281
282
283
284
285
286
287
288
289
290
291
292
293
294
295
296
297
298
299
300

SCALARS type int 1
LOOKUP_TABLE default
1
1
1
1
1
1
1
1
1
1
1
1
1
1
1
1
1
1
1
1
1
1
1
1
1
1
1
1
1
1
1
1
1
1
1
1
1
1
1
1
1
1
1
1
1
1
1
1
1
1
1
1
1
1
1
1
1
1
1
1
1
1
1
1
1
1
1
1
1
1
1
1
1
1
1
1
1
1
1
1
1
1
1
1
1
1
1
1
1
1
1
1
1
1
1
1
1
1
1
1
1
1
1
1
1
1
1
1
1
1
1
1
1
1
1
1
1
1
1
1
1
1
1
1
1
1
1
1
1
1
1
1
1
1
1
1
1
1
1
1
1
1
1
1
1
1
1
1
1
1
1
1
1
1
1
1
1
1
1
1
1
1
1
1
1
1
1
1
1
1
1
1
1
1
1
1
1
1
1
1
1
1
1
1
1
1
1
1
1
1
1
1
1
1
1
1
1
1
1
1
1
1
1
1
1
1
1
1
1
1
1
1
1
1
1
1
1
1
1
1
1
1
1
1
1
1
1
1
1
1
1
1
1
1
1
1
1
1
1
1
1
1
1
1
1
1
1
1
1
1
1
1
1
1
1
1
1
1
1
1
1
1
1
1
1
1
1
1
1
1
1
1
1
1
1
1
1
1
1
1
1
1
1
1
1
1
1
1
1
1
1
1
1
1

SCALARS radius float 1
LOOKUP_TABLE default
0.0002
0.0002
0.0002
0.0002
0.0002
0.0002
0.0002
0.0002
0.0002
0.0002
0.0002
0.0002
0.0002
0.0002
0.0002
0.0002
0.0002
0.0002
0.0002
0.0002
0.0002
0.0002
0.0002
0.0002
0.0002
0.0002
0.0002
0.0002
0.0002
0.0002
0.0002
0.0002
0.0002
0.0002
0.0002
0.0002
0.0002
0.0002
0.0002
0.0002
0.0002
0.0002
0.0002
0.0002
0.0002
0.0002
0.0002
0.0002
0.0002
0.0002
0.0002
0.0002
0.0002
0.0002
0.0002
0.0002
0.0002
0.0002
0.0002
0.0002
0.0002
0.0002
0.0002
0.0002
0.0002
0.0002
0.0002
0.0002
0.0002
0.0002
0.0002
0.0002
0.0002
0.0002
0.0002
0.0002
0.0002
0.0002
0.0002
0.0002
0.0002
0.0002
0.0002
0.0002
0.0002
0.0002
0.0002
0.0002
0.0002
0.0002
0.0002
0.0002
0.0002
0.0002
0.0002
0.0002
0.0002
0.0002
0.0002
0.0002
0.0002
0.0002
0.0002
0.0002
0.0002
0.0002
0.0002
0.0002
0.0002
0.0002
0.0002
0.0002
0.0002
0.0002
0.0002
0.0002
0.0002
0.0002
0.0002
0.0002
0.0002
0.0002
0.0002
0.0002
0.0002
0.0002
0.0002
0.0002
0.0002
0.0002
0.0002
0.0002
0.0002
0.0002
0.0002
0.0002
0.0002
0.0002
0.0002
0.0002
0.0002
0.0002
0.0002
0.0002
0.0002
0.0002
0.0002
0.0002
0.0002
0.0002
0.0002
0.0002
0.0002
0.0002
0.0002
0.0002
0.0002
0.0002
0.0002
0.0002
0.0002
0.0002
0.0002
0.0002
0.0002
0.0002
0.0002
0.0002
0.0002
0.0002
0.0002
0.0002
0.0002
0.0002
0.0002
0.0002
0.0002
0.0002
0.0002
0.0002
0.0002
0.0002
0.0002
0.0002
0.0002
0.0002
0.0002
0.0002
0.0002
0.0002
0.0002
0.0002
0.0002
0.0002
0.0002
0.0002
0.0002
0.0002
0.0002
0.0002
0.0002
0.0002
0.0002
0.0002
0.0002
0.0002
0.0002
0.0002
0.0002
0.0002
0.0002
0.0002
0.0002
0.0002
0.0002
0.0002
0.0002
0.0002
0.0002
0.0002
0.0002
0.0002
0.0002
0.0002
0.0002
0.0002
0.0002
0.0002
0.0002
0.0002
0.0002
0.0002
0.0002
0.0002
0.0002
0.0002
0.0002
0.0002
0.0002
0.0002
0.0002
0.0002
0.0002
0.0002
0.0002
0.0002
0.0002
0.0002
0.0002
0.0002
0.0002
0.0002
0.0002
0.0002
0.0002
0.0002
0.0002
0.0002
0.0002
0.0002
0.0002
0.0002
0.0002
0.0002
0.0002
0.0002
0.0002
0.0002
0.0002
0.0002
0.0002
0.0002
0.0002
0.0002
0.0002
0.0002
0.0002
0.0002
0.0002
0.0002
0.0002
0.0002
0.0002
0.0002
0.0002
0.0002
0.0002
0.0002
0.0002
0.0002
0.0002
0.0002
0.0002
0.0002

SCALARS mass float 1
LOOKUP_TABLE default
9.38289e-09
9.38289e-09
9.38289e-09
9.38289e-09
9.38289e-09
9.38289e-09
9.38289e-09
9.38289e-09
9.38289e-09
9.38289e-09
9.38289e-09
9.38289e-09
9.38289e-09
9.38289e-09
9.38289e-09
9.38289e-09
9.38289e-09
9.38289e-09
9.38289e-09
9.38289e-09
9.38289e-09
9.38289e-09
9.38289e-09
9.38289e-09
9.38289e-09
9.38289e-09
9.38289e-09
9.38289e-09
9.38289e-09
9.38289e-09
9.38289e-09
9.38289e-09
9.38289e-09
9.38289e-09
9.38289e-09
9.38289e-09
9.38289e-09
9.38289e-09
9.38289e-09
9.38289e-09
9.38289e-09
9.38289e-09
9.38289e-09
9.38289e-09
9.38289e-09
9.38289e-09
9.38289e-09
9.38289e-09
9.38289e-09
9.38289e-09
9.38289e-09
9.38289e-09
9.38289e-09
9.38289e-09
9.38289e-09
9.38289e-09
9.38289e-09
9.38289e-09
9.38289e-09
9.38289e-09
9.38289e-09
9.38289e-09
9.38289e-09
9.38289e-09
9.38289e-09
9.38289e-09
9.38289e-09
9.38289e-09
9.38289e-09
9.38289e-09
9.38289e-09
9.38289e-09
9.38289e-09
9.38289e-09
9.38289e-09
9.38289e-09
9.38289e-09
9.38289e-09
9.38289e-09
9.38289e-09
9.38289e-09
9.38289e-09
9.38289e-09
9.38289e-09
9.38289e-09
9.38289e-09
9.38289e-09
9.38289e-09
9.38289e-09
9.38289e-09
9.38289e-09
9.38289e-09
9.38289e-09
9.38289e-09
9.38289e-09
9.38289e-09
9.38289e-09
9.38289e-09
9.38289e-09
9.38289e-09
9.38289e-09
9.38289e-09
9.38289e-09
9.38289e-09
9.38289e-09
9.38289e-09
9.38289e-09
9.38289e-09
9.38289e-09
9.38289e-09
9.38289e-09
9.38289e-09
9.38289e-09
9.38289e-09
9.38289e-09
9.38289e-09
9.38289e-09
9.38289e-09
9.38289e-09
9.38289e-09
9.38289e-09
9.38289e-09
9.38289e-09
9.38289e-09
9.38289e-09
9.38289e-09
9.38289e-09
9.38289e-09
9.38289e-09
9.38289e-09
9.38289e-09
9.38289e-09
9.38289e-09
9.38289e-09
9.38289e-09
9.38289e-09
9.38289e-09
9.38289e-09
9.38289e-09
9.38289e-09
9.38289e-09
9.38289e-09
9.38289e-09
9.38289e-09
9.38289e-09
9.38289e-09
9.38289e-09
9.38289e-09
9.38289e-09
9.38289e-09
9.38289e-09
9.38289e-09
9.38289e-09
9.38289e-09
9.38289e-09
9.38289e-09
9.38289e-09
9.38289e-09
9.38289e-09
9.38289e-09
9.38289e-09
9.38289e-09
9.38289e-09
9.38289e-09
9.38289e-09
9.38289e-09
9.38289e-09
9.38289e-09
9.38289e-09
9.38289e-09
9.38289e-09
9.38289e-09
9.38289e-09
9.38289e-09
9.38289e-09
9.38289e-09
9.38289e-09
9.38289e-09
9.38289e-09
9.38289e-09
9.38289e-09
9.38289e-09
9.38289e-09
9.38289e-09
9.38289e-09
9.38289e-09
9.38289e-09
9.38289e-09
9.38289e-09
9.38289e-09
9.38289e-09
9.38289e-09
9.38289e-09
9.38289e-09
9.38289e-09
9.38289e-09
9.38289e-09
9.38289e-09
9.38289e-09
9.38289e-09
9.38289e-09
9.38289e-09
9.38289e-09
9.38289e-09
9.38289e-09
9.38289e-09
9.38289e-09
9.38289e-09
9.38289e-09
9.38289e-09
9.38289e-09
9.38289e-09
9.38289e-09
9.38289e-09
9.38289e-09
9.38289e-09
9.38289e-09
9.38289e-09
9.38289e-09
9.38289e-09
9.38289e-09
9.38289e-09
9.38289e-09
9.38289e-09
9.38289e-09
9.38289e-09
9.38289e-09
9.38289e-09
9.38289e-09
9.38289e-09
9.38289e-09
9.38289e-09
9.38289e-09
9.38289e-09
9.38289e-09
9.38289e-09
9.38289e-09
9.38289e-09
9.38289e-09
9.38289e-09
9.38289e-09
9.38289e-09
9.38289e-09
9.38289e-09
9.38289e-09
9.38289e-09
9.38289e-09
9.38289e-09
9.38289e-09
9.38289e-09
9.38289e-09
9.38289e-09
9.38289e-09
9.38289e-09
9.38289e-09
9.38289e-09
9.38289e-09
9.38289e-09
9.38289e-09
9.38289e-09
9.38289e-09
9.38289e-09
9.38289e-09
9.38289e-09
9.38289e-09
9.38289e-09
9.38289e-09
9.38289e-09
9.38289e-09
9.38289e-09
9.38289e-09
9.38289e-09
9.38289e-09
9.38289e-09
9.38289e-09
9.38289e-09
9.38289e-09
9.38289e-09
9.38289e-09
9.38289e-09
9.38289e-09
9.38289e-09
9.38289e-09
9.38289e-09
9.38289e-09
9.38289e-09
9.38289e-09
9.38289e-09
9.38289e-09
9.38289e-09
9.38289e-09
9.38289e-09
9.38289e-09
9.38289e-09

VECTORS velocity float
0.000150533 0.00107852 0.0242753
0.00172391 -0.012828 0.0129526
0.00511313 -0.00362997 0.000291364
0.000421524 0.00960682 0.0217642
0.00606364 0.000272971 -4.86255e-05
0.00534934 -0.000214972 -0.000126152
0.00578087 -0.00108588 -6.86032e-05
0.00592717 0.000308285 -0.000205719
0.00632994 0.000310754 -0.000224966
0.00105423 -0.010415 0.0105804
0.00529462 -0.000248174 0.000343362
0.00567182 0.000461112 -0.000419736
0.00378117 -0.00306551 0.00910384
0.00339539 0.00113493 0.0006086
0.00565006 -0.000805816 0.000497667
0.0042975 0.000844295 0.000426083
0.00606015 0.000270372 -4.40843e-05
0.00529364 -0.000274794 0.000376905
0.00352102 0.000712483 0.0103118
0.00515373 -0.00197731 0.000555419
0.00511757 -0.000282601 0.000204704
0.001332 -0.0119722 0.0162091
0.0060009 0.000288579 -0.00019351
1.14705e-14 -4.0524e-14 1.38595e-13
0.00563547 -9.61825e-05 -0.000227369
0.00430626 -0.00931867 0.00848486
0.00595642 0.000223557 -0.000206786
0.00609764 0.000138085 -0.000232102
0.00560668 -0.000639471 7.71602e-06
0.00438038 0.00100277 0.000432571
0.00258006 0.00188592 0.000337415
0.000134817 0.000847447 -0.00018141
0.00451369 -0.00198626 0.000595169
0.00585226 0.000325938 -0.000213142
0.00550801 9.80231e-05 0.000266904
0.00573619 0.000142165 -5.76341e-05
0.00607136 0.000145637 -0.000214543
0.00542967 -0.000123985 3.68578e-05
0.00622268 -0.00168119 -3.26895e-05
0.00539637 -0.00267416 0.000829868
0.00524421 -0.00130603 0.00613431
0.00572031 -0.000573807 6.28528e-07
0.00565912 -0.000295352 -0.000118502
0.00604855 0.000273398 -4.51003e-05
0.00226992 -0.00780892 0.0191502
0.00237336 -0.00234823 0.0233775
-8.14632e-316 8.17842e-316 5.97366e-14
0.000276118 0.00115767 0.0242909
0.000437141 0.0126525 0.0199415
0.00639665 -0.00379712 0.000879695
0.00616842 0.000116581 -0.000241658
0.00131952 -0.00331578 0.000624207
0.00547065 -0.00145583 0.00307577
0.00503516 -0.00330239 0.000226688
0.00574056 1.19756e-05 0.000225275
0.00532789 0.000218124 -3.89871e-05
0.00638219 0.000440901 -0.000436806
1.88795e-14 -6.6701e-14 2.2812e-13
0.00259936 0.000822461 0.00817117
0.00428428 -4.17998e-05 0.000388287
0.00570642 -8.1544e-05 -6.26848e-05
0.00526101 -0.00221731 0.000602306
0.00547978 -0.000232355 0.000321
0.000696059 1.71573e-06 0.00498029
0.005515 -0.000724659 0.000618421
0.00487093 -0.00353822 0.000506896
0.00606004 0.000268349 -4.19662e-05
0.00489757 5.18029e-05 0.000951325
0.00409676 -0.000376914 0.00934828
0.00565956 -0.000352094 -7.16139e-05
0.000267591 0.00291702 0.0241785
0.000407128 0.0134157 0.019479
0.00514137 -0.00151127 0.00286017
0.0049993 3.56805e-06 0.00106964
0.00557047 0.000472231 1.06159e-05
0.00567801 -0.000127712 -0.000257493
0.0036635 -0.000348585 0.0101482
0.0060851 0.000184082 -0.000134589
0.00583451 -0.000207894 -5.97396e-05
0.00521869 0.00050438 0.000534852
0.00621655 0.00012257 -0.00020556
0.0028058 -0.00789135 0.00868842
0.00737895 0.000809947 -0.00070234
0.00729928 -0.0028503 0.000684754
0.00403198 -0.00838859 0.00551777
0.00518373 0.00154929 0.000197399
7.81162e-14 2.24333e-13 -3.20822e-14
0.000310273 0.00630235 0.0231044
0.00568181 -0.000607729 0.000154138
0.00506027 -0.00146952 0.00310411
0.00571445 -0.00011114 0.00013168
0.00314512 0.000680127 0.00834676
0.00593998 6.63242e-05 2.92431e-05
0.00226139 0.000188377 -0.000288851
0.00500923 0.000382221 0.000505708
0.000572779 -0.0069195 0.0108852
0.0067667 -0.000245177 -0.0014399
0.00584583 -0.00111125 0.00121989
0.0109695 -0.0118922 -0.0167837
0.00539163 -0.00231313 0.000139799
0.00397755 -0.00815679 0.00370681
0.00560689 0.000760176 0.000531117
0.00347388 -0.000848837 0.000269259
0.00521954 -0.00260919 0.000791097
0.00497258 -0.000277575 0.000531958
0.00489962 -0.00192399 0.00237351
0.000322325 -0.0134681 0.0133634
0.00045479 -0.00959701 0.00992773
0.000559128 0.00149004 -0.000403208
0.000788423 -0.010484 0.0106419
0.0063101 -0.00162657 -3.50841e-05
0.00569429 -0.0026234 0.000685222
0.000471738 -0.013215 0.0135877
0.00568055 -0.000743885 0.000538188
-1.76888e-14 6.24936e-14 -2.13731e-13
0.00403735 0.00157318 0.000416574
0.00526982 0.000206621 2.78321e-05
-0.000208553 -0.00237737 0.0134185
0.00451245 -0.00937967 0.0113334
0.00521678 -0.00145258 0.00297821
0.00443014 0.00022147 -0.000328829
0.00510768 -0.00170485 0.00291122
0.00547156 -0.00283231 0.000324762
0.00614649 0.000319326 -0.00022107
0.00466544 -0.00150527 -0.000812861
0.00202404 0.00172838 0.0262867
0.0062957 -0.000564404 0.000996236
0.00500762 0.000877022 0.000483898
0.00582516 -0.00102015 0.00114946
0.00472927 6.52279e-05 0.000931018
0.00563479 -0.00250876 0.000474513
0.00592301 0.000352315 0.000620189
0.00466055 0.000587101 0.000457199
0.00622311 -0.000535087 0.00205955
-0.00222059 0.00135315 0.0144902
0.00445681 0.000761474 0.00043225
9.58052e-09 -3.38954e-07 5.96421e-08
0.00504017 -0.00182967 0.00255063
0.00527514 6.21275e-05 -8.0257e-05
0.00396658 -0.000466674 -0.000166598
0.00186158 -0.00444381 0.0081345
0.00495426 -0.00296694 0.000993725
0.00608353 -0.00149363 -4.96605e-05
0.00467699 -0.00409242 0.000442836
0.00591372 0.000124675 0.000517004
0.00383607 -0.00455241 0.00751977
0.00428613 -0.00204826 0.000630313
0.0058509 0.000149254 0.000536626
-0.0302881 0.00179782 -0.0396674
0.0047726 -0.00270072 0.00169136
1.19407e-05 3.7554e-05 -9.85035e-06
0.00519477 -0.00401037 0.0125241
0.0010575 0.00150103 -0.000335982
0.00641555 -0.00154158 -2.80497e-05
-0.0118821 0.0143798 -0.0387225
0.00521125 -0.0098655 0.0100799
0.0197 0.0182504 -0.0165439
0.00505351 0.00030732 0.000538671
0.00485723 -0.00217986 0.00636165
0.00568744 -0.000459754 -7.50047e-05
0.00438515 -0.00547532 0.000793854
0.00564833 -0.000681588 -7.95281e-05
0.00474822 0.000399206 0.0004505
0.00218377 -0.000219016 1.19647e-05
0.00621604 -0.000551083 0.00142398
0.00479861 -0.00266144 0.0014716
0.00518431 -0.0018909 0.0025349
-0.000341007 0.00934842 0.000217337
0.00555657 -0.00100669 -0.000359474
0.00290725 0.00117751 0.00788623
0.00437556 0.000391872 0.000393573
0.00670558 -1.09899e-05 0.000113221
-8.26086e-05 -0.000275494 0.000295745
0.0055707 -0.00169278 0.000470051
0.00493054 0.000133833 0.000857692
0.00514787 -0.00170002 0.00304704
0.00111612 0.00222047 -0.000444827
0.00252178 0.00108742 -0.000795509
0.00387594 0.000191875 0.00831283
0.00561491 -0.000279078 -4.97615e-05
0.00501037 -0.00168041 0.00305244
0.00594668 0.000191594 0.000572665
2.10169e-05 6.03885e-05 -1.1669e-05
0.0051959 -0.00245367 0.000416218
0.00512812 -0.00147163 0.00314758
0.00473231 -0.00400604 0.000426473
0.00102375 -0.00787213 0.00994641
0.00542961 0.000231414 0.000507464
0.00494329 -0.00213794 0.000168441
0.00563089 -0.000476422 0.000343187
0.00544345 -0.00139757 0.00281185
0.00432831 0.00152769 -0.00084741
0.00619198 -0.000863382 -0.00669741
0.00571843 0.000118764 -0.000350514
0.0053238 -0.000189463 0.000559201
0.00599095 -0.00250639 0.000478572
0.00556684 -3.97502e-06 9.38206e-05
0.00528342 -0.00290524 0.00096755
0.00483921 -0.0045231 0.000529522
0.0057855 -0.00971632 0.00487507
-0.00112038 -0.00646073 0.011431
0.00494248 0.000225979 0.0007243
0.00592899 0.000647467 0.000609634
5.67747e-05 0.000267866 -2.57386e-05
0.00500153 -0.00210747 -0.00102389
0.00482784 0.000306919 0.000612194
0.00718855 0.0099556 -0.00942918
0.00517708 -0.000743967 -8.6505e-05
0.00828868 -0.00200261 0.00190039
0.000209177 0.0236325 -0.00624965
0.00588085 0.000239935 -0.000219576
0.000684227 -0.00945176 0.0102772
0.00473336 -0.00453435 0.000539827
0.000884238 0.00161917 -0.00241837
-5.75501e-15 -2.98023e-14 8.81032e-14
0.00448044 -8.1074e-06 0.000979557
0.0066573 -0.000823345 -0.00606221
0.00618941 -0.0015655 -4.28123e-05
0.00559128 -0.000426776 0.000459001
0.00526914 -0.00133386 0.00252805
0.000508565 0.0132146 -0.0135424
-0.0019117 0.025565 -0.0265292
-0.00245607 -0.0712957 -0.147516
1.62993e-05 0.0302957 -0.0170115
0.00549418 -0.000885019 -0.000327071
0.000213083 0.00523391 -0.00122955
0.00575631 -0.000816139 0.000509125
0.000176423 0.0230025 -0.00846051
-0.00156569 -0.0134379 -0.0891056
-0.00355087 0.0115133 -0.0122728
0.00154371 -0.0094831 0.00961505
0.00461125 -0.00451126 0.000522582
0.00245645 -0.00532044 0.0237678
0.0052019 -0.00056466 0.00191145
0.00567018 -0.000374757 -1.11547e-05
0.00469794 -0.00279863 0.000141473
0.048437 -0.00984593 0.00292897
0.0202795 0.00795618 -0.0119875
0.0081966 0.0134351 -0.0117573
0.00499549 -0.00253517 2.98303e-05
0.00296329 0.00143267 -0.00061579
0.000774768 0.00133554 -0.000298391
0.00535011 -0.00244479 -4.83902e-05
-0.133784 -0.0536679 -0.376664
0.00359105 -0.00231804 0.00868811
0.00456933 0.000835452 -0.000584067
0.0053481 -0.00325335 0.000165667
0.00492351 -0.00134814 -0.00210474
0.00472419 -0.00352555 0.000388234
0.00348789 0.00165683 0.00924087
0.000283299 2.598e-05 9.40502e-05
0.00512161 -0.000525534 -0.000119788
1.91844e-08 1.87346e-07 -3.4089e-08
0.0035373 0.00218906 -0.000882049
0.00125765 0.00140803 0.000545778
0.000571884 0.00118251 0.00644533
0.000548236 0.0045956 -0.00111812
0.03375 0.00829816 -0.00470367
0.00124412 0.00309726 0.000471532
0.00820696 -0.000453915 -0.00686821
0.00491958 -0.00194502 -0.00273345
-0.044364 0.0170629 -0.0226049
0.000985696 -0.0929806 -0.0608495
-4.44263e-11 0.0240915 -0.00205289
0.0010169 2.94769e-06 -0.000108352
0.00584096 0.00177086 -0.00113688
0.00917077 0.0103218 -0.00952871
-0.000607885 0.00465898 -0.00486418
0.00199658 0.000766731 0.00044913
0.00539375 -0.000468374 -0.00313386
-0.0130549 -0.0531004 -0.0196432
0.00670084 -0.000422685 0.000645045
0.00084099 -0.00715201 0.0103346
0.0051633 -0.000511255 0.000896674
0.00520905 -0.00321741 0.000123367
0.00457694 0.000601597 0.00043073
0.00698228 -0.000450372 -0.00484967
0.00591137 -0.000803839 0.000537865
0.000804566 -0.00905587 0.00915063
0.000881828 0.00260161 -0.00730146
0.00033285 -0.0101365 0.0206655
0.00657352 0.00195406 -0.00125565
0.00534925 -0.00154084 0.00135253
0.00971807 -0.00386525 0.00453731
0.00449253 0.000314486 0.000424652
0.00732081 0.000776255 0.000484628
-0.00135769 0.00794904 -0.00833559
0.00241942 0.0017548 -0.000405579
1.28459e-05 2.91561e-05 -8.0818e-06
0.00553616 -0.000938774 -0.00034103
0.00327695 -0.00148395 0.0090646
0.000212049 0.02413 -0.00343487
0.00473336 -0.00158883 0.00296834
0.00265445 0.00135078 -0.000553004

VECTORS force float
-1.00191e-10 7.58421e-10 6.9583e-10
1.50391e-08 5.77781e-08 -5.85081e-08
8.39517e-08 -1.36135e-08 -8.65228e-09
-2.79617e-09 3.47213e-09 -2.14154e-09
-1.56946e-10 2.99187e-10 -4.77328e-10
2.41886e-09 -9.64675e-09 -7.48829e-09
-1.60311e-08 4.73685e-09 -9.9249e-09
-3.07483e-10 4.61581e-10 1.45853e-10
8.83778e-09 -1.69129e-09 7.59324e-09
-1.12981e-07 2.62197e-08 1.8862e-08
2.16561e-08 2.33584e-08 -1.69457e-08
-5.29607e-09 -7.09344e-09 -2.48167e-08
1.05637e-08 -1.18237e-09 -8.3242e-08
-8.97969e-09 -2.76159e-08 -1.51217e-09
2.24945e-08 -7.58125e-09 1.46309e-08
-2.77129e-08 1.77158e-08 -1.68288e-09
3.66764e-10 5.18768e-10 -3.24796e-10
4.73338e-08 -1.59779e-08 3.0509e-08
0.0 0.0 -9.20462e-08
8.09127e-09 3.21974e-08 -1.34923e-08
-2.5834e-08 4.46274e-09 -1.7341e-08
4.31998e-07 -1.42925e-08 1.29868e-07
6.20601e-10 5.65396e-10 -7.51953e-10
-3.85466e-22 -8.27181e-23 1.32349e-23
-8.76761e-11 1.19618e-10 -8.90658e-11
-1.46292e-08 -1.3984e-07 9.90071e-08
8.89262e-11 -3.41637e-10 -7.18688e-11
-1.63199e-09 2.85107e-10 1.96446e-10
8.42099e-09 -7.07569e-09 2.33792e-08
-5.97763e-08 -2.49883e-08 -6.57852e-09
-2.59891e-08 -3.29924e-08 -4.18035e-09
-2.42222e-08 7.6367e-09 1.32308e-08
-7.55381e-09 3.39284e-08 -1.14818e-08
1.99862e-10 9.06694e-10 -2.45599e-10
-2.20146e-08 2.18852e-08 7.36841e-09
2.97321e-08 -3.53918e-08 3.93003e-08
-5.83863e-10 -2.5074e-09 -4.26431e-09
2.68135e-08 4.67664e-08 -2.81236e-08
1.87545e-08 -1.39449e-08 -7.20543e-10
2.99542e-08 -3.44608e-08 -5.83232e-08
0.0 0.0 -9.20462e-08
6.044e-09 -1.58969e-08 -1.88231e-08
-8.67154e-10 1.02874e-09 -2.201e-08
1.90182e-09 -9.91037e-11 -2.7365e-10
9.60311e-08 -3.83929e-07 -9.47086e-09
-4.08194e-08 -8.26397e-08 -5.30626e-08
0.0 0.0 0.0
7.47592e-10 3.20768e-10 1.62795e-10
3.77072e-10 2.66525e-09 -2.43837e-09
-2.54667e-08 -3.14414e-08 3.94189e-08
2.82718e-09 -4.41841e-09 -5.54176e-09
-3.86035e-09 1.5803e-08 -3.83336e-09
-3.42757e-08 -8.05413e-09 -9.07751e-09
1.99693e-08 -1.57952e-08 2.22968e-09
5.34282e-10 -5.43651e-10 -4.00951e-11
2.82771e-08 -2.21919e-09 4.24422e-08
5.00059e-10 3.73109e-11 9.99379e-11
5.54211e-23 3.30872e-24 0.0
8.74204e-08 -3.33522e-08 -8.46318e-08
4.98344e-08 -4.51187e-08 2.85175e-09
-1.18284e-10 -2.16569e-10 -2.07064e-10
-2.27828e-08 5.90453e-08 -1.08596e-07
4.56832e-08 -1.39133e-08 1.29244e-08
-3.86052e-09 5.93121e-10 1.58566e-08
-1.50478e-08 -3.51499e-08 -1.15352e-08
-4.77729e-08 -1.679e-09 8.33885e-09
-4.63174e-11 2.39002e-10 3.67762e-10
-2.36302e-08 -1.62363e-08 2.6253e-08
3.17547e-08 -9.79849e-09 -1.0242e-07
-1.68284e-09 -2.31197e-08 1.0231e-08
-7.26615e-11 4.90883e-09 -6.71193e-10
2.09051e-10 6.39831e-10 -2.01441e-09
-1.61585e-08 2.25124e-08 -1.27512e-08
4.04874e-09 -1.69374e-08 3.33255e-09
3.20132e-08 4.25726e-08 -3.56898e-08
7.39724e-10 6.49586e-08 -1.9075e-08
-3.07789e-08 1.62494e-08 -5.51763e-08
3.95146e-09 4.03911e-09 1.53107e-09
5.41505e-11 2.40269e-11 -1.432e-10
1.18591e-08 4.18924e-09 -2.35263e-08
-2.14766e-09 -4.41491e-10 -1.17867e-09
6.44811e-07 -1.08351e-06 1.21957e-06
1.16499e-09 -1.01888e-08 9.07618e-09
2.37891e-08 3.93438e-08 2.00754e-08
0.0 0.0 -9.20462e-08
-5.81991e-09 -9.0599e-09 -1.47554e-09
-1.69111e-15 5.76978e-15 1.86657e-15
-2.02966e-09 5.80545e-09 -1.8393e-09
1.73193e-08 1.4395e-08 3.85487e-09
-1.84121e-08 -1.42729e-08 -5.69007e-08
1.70033e-08 -1.00798e-08 3.42483e-09
-1.39306e-09 1.15393e-10 -9.6957e-08
2.25711e-08 -1.6318e-08 1.35472e-08
5.00881e-09 1.16032e-08 -8.2339e-09
-1.34367e-08 -5.53301e-08 3.74488e-08
-4.04623e-09 6.6345e-08 -8.51852e-08
3.49137e-07 3.40271e-07 -2.15604e-06
-4.05465e-09 -3.89104e-08 4.18581e-08
9.46965e-09 -2.41742e-08 -3.14898e-08
-2.86939e-09 7.0184e-09 -5.48047e-10
-1.16883e-08 1.98619e-08 -8.90551e-08
-7.50191e-08 -2.6385e-08 -5.21092e-09
-4.06473e-09 1.3615e-08 8.61359e-09
-3.79209e-08 8.42341e-08 -4.61029e-08
2.41196e-08 -2.89682e-09 8.64255e-09
2.32783e-08 -7.57413e-09 1.66095e-08
3.49105e-08 -3.60467e-08 1.67665e-08
3.51025e-08 3.26251e-09 -9.32266e-08
-5.97164e-09 -2.05454e-08 5.37426e-09
8.19383e-08 -1.40853e-07 1.64527e-07
5.52188e-09 -1.23418e-08 1.21985e-09
1.06179e-08 6.04475e-08 3.03753e-09
-6.42009e-08 -5.35535e-08 9.40379e-08
1.72571e-08 -6.81605e-09 1.78548e-08
-1.65436e-24 9.92617e-24 -1.32349e-23
-4.92142e-08 -2.32749e-08 -9.0842e-09
-2.10791e-08 -1.74425e-08 -2.63634e-08
0.0 0.0 -9.20462e-08
1.35309e-07 -7.47376e-08 1.60012e-07
-1.3537e-07 -2.60025e-08 -5.55796e-08
2.43533e-08 1.09196e-08 -4.40479e-09
7.59437e-09 -5.49047e-11 -5.0894e-08
6.93736e-09 -5.42547e-11 -9.67181e-09
-7.29519e-09 -2.78033e-08 2.69859e-08
-3.56959e-08 -1.18711e-08 2.94998e-09
1.47076e-08 -2.59956e-08 6.98669e-09
-2.8263e-08 5.36875e-09 -1.2115e-08
5.23177e-08 4.72263e-08 1.58844e-08
2.64809e-08 -1.94726e-08 2.99748e-08
-3.19775e-08 -1.02472e-08 4.0881e-09
6.48386e-08 -4.26704e-08 -7.25994e-09
4.50061e-08 2.81591e-08 7.81903e-09
-2.63642e-08 1.80575e-08 -1.73085e-09
-1.97418e-08 3.47031e-08 -5.11747e-08
0.0 0.0 -9.20462e-08
-5.38421e-08 -1.04155e-08 -4.47411e-09
1.32491e-10 3.8806e-10 -7.48682e-11
-2.36879e-09 1.34673e-08 -8.27822e-09
2.35801e-08 -1.64538e-08 3.25008e-08
-4.1736e-08 -2.41433e-08 6.02497e-08
0.0 0.0 -9.20462e-08
-3.3381e-08 5.95383e-08 -2.51262e-08
2.26563e-08 -2.68335e-08 -3.47075e-09
4.11139e-08 -5.25137e-08 9.44711e-09
4.0783e-08 2.74986e-08 2.14467e-08
1.55126e-08 5.14428e-08 -7.76278e-08
-2.64908e-08 2.45386e-08 -1.04267e-08
8.58978e-08 3.66895e-08 1.43252e-08
0.0 0.0 -9.20462e-08
-2.3458e-08 3.21341e-08 1.41766e-08
1.81634e-09 -5.52651e-09 1.21765e-09
0.0 0.0 -9.20462e-08
-2.01244e-08 -1.95948e-08 -1.0827e-09
1.57942e-08 1.72348e-08 8.15228e-09
9.26496e-10 2.71413e-09 -9.03617e-08
-2.68575e-08 7.7665e-08 -7.76369e-08
-2.50105e-08 2.72141e-08 -3.08524e-08
-1.52264e-08 -6.95222e-08 1.12039e-08
6.92331e-09 6.72083e-08 -9.01966e-08
2.88614e-08 -7.59347e-09 6.55212e-10
1.09574e-08 -2.56055e-08 4.63883e-09
1.15402e-08 6.88554e-08 -2.6559e-09
-2.50261e-08 -1.99868e-08 -4.34891e-09
1.67632e-08 -8.47001e-09 -4.57164e-09
-1.88758e-08 3.29718e-08 -5.03789e-08
-1.66286e-08 4.04898e-09 -3.25253e-08
-4.2314e-09 -2.94778e-08 -8.86889e-09
0.0 0.0 -9.20462e-08
-7.04839e-09 8.82412e-09 8.01038e-09
0.0 0.0 -9.20462e-08
-3.47765e-08 -2.26927e-08 1.79155e-08
7.87915e-08 -9.24177e-08 1.0057e-07
7.38146e-09 5.07174e-09 7.85501e-09
-4.23108e-08 9.16197e-09 3.08651e-09
1.63565e-08 -1.92702e-09 7.30163e-09
-4.72453e-09 3.18697e-08 -7.2066e-08
-1.59582e-08 -2.40124e-08 4.98891e-09
-1.60646e-08 -4.48125e-08 -3.65458e-08
9.59054e-09 2.77601e-08 -9.82758e-08
8.07125e-09 -9.53939e-09 4.77528e-10
-2.74594e-08 9.81177e-09 -1.11141e-08
7.90383e-08 5.02138e-08 3.50195e-08
3.9823e-09 1.54863e-08 -2.92785e-09
4.70591e-08 -2.15376e-08 1.27352e-11
-8.38766e-08 -5.07185e-09 -4.6899e-08
1.03316e-08 -4.68481e-08 8.75935e-09
-1.21772e-07 8.32431e-07 3.08164e-08
3.39046e-09 2.21866e-08 -7.06587e-10
-3.31124e-08 8.22918e-09 7.81054e-09
-8.60704e-09 3.55191e-08 3.11421e-08
-3.63403e-09 2.64009e-08 -3.8531e-08
-4.43896e-08 3.14237e-08 5.83068e-10
0.0 0.0 -9.20462e-08
-1.83783e-08 3.16568e-08 -1.84182e-08
9.83929e-08 4.70508e-08 5.58103e-08
-8.30454e-08 -1.14375e-07 1.93569e-09
1.33986e-10 7.84958e-11 9.40557e-11
2.86337e-08 -2.69776e-08 -2.99197e-09
1.18348e-08 -1.29913e-09 4.8018e-09
0.0 0.0 -9.20462e-08
0.0 0.0 -9.20462e-08
-2.29103e-09 -1.00155e-08 2.08113e-09
2.45735e-08 4.49565e-08 -2.49954e-08
7.28993e-09 -1.12984e-08 -4.17397e-10
-4.28114e-10 -3.12603e-08 -1.1931e-08
-1.6062e-08 -3.3823e-08 4.76653e-08
-1.99071e-08 2.51624e-08 -2.81603e-08
-3.42324e-08 2.12604e-08 5.94794e-09
0.0 0.0 -9.20462e-08
-7.0251e-12 -3.17828e-10 -1.30715e-09
-1.20771e-09 -8.11348e-10 -1.2015e-11
0.0 0.0 -9.20462e-08
3.05337e-08 -1.96706e-08 2.30685e-09
0.0 0.0 -9.20462e-08
-1.36485e-22 8.93355e-23 1.32349e-23
-6.4512e-08 -3.13383e-08 2.03047e-08
0.0 0.0 -9.20462e-08
3.05674e-08 -1.10025e-08 4.74451e-10
-1.8328e-09 -1.04361e-09 2.44775e-08
1.67335e-08 9.25444e-09 -2.31796e-08
-7.11715e-09 2.18271e-08 -2.3146e-08
-3.39331e-09 2.3562e-08 -2.4636e-08
0.0 0.0 -9.20462e-08
1.5503e-11 8.35894e-09 -8.26341e-09
1.26578e-09 3.24539e-09 -8.18896e-11
7.44925e-09 -2.34525e-08 4.61304e-09
-1.32907e-08 -2.73161e-09 -1.45394e-09
-1.12077e-11 -4.20111e-10 -1.29299e-09
0.0 0.0 -9.20462e-08
-1.52119e-08 -2.01072e-09 2.84093e-09
-1.83391e-07 -1.01039e-07 1.00092e-07
-6.9188e-09 6.767e-09 -4.2151e-09
1.15694e-05 -9.75959e-07 -4.62088e-07
-2.57447e-08 3.97478e-08 -6.11099e-08
1.30699e-08 -7.78017e-09 1.44585e-08
6.34711e-08 -3.0142e-08 -8.27383e-12
0.0 0.0 -9.20462e-08
0.0 0.0 -9.20462e-08
0.0 0.0 -9.20462e-08
1.78187e-08 -1.49984e-09 -4.4158e-09
-1.27018e-08 3.14063e-08 -9.58042e-09
-2.3843e-08 -2.8266e-08 3.01324e-08
2.28874e-08 7.01623e-09 -9.55747e-09
0.00455319 0.00863109 0.0154013
1.25338e-08 -3.47283e-09 -8.26374e-08
-2.41778e-08 1.82983e-08 -1.40845e-08
1.09081e-08 3.81784e-09 -1.35337e-08
-3.88486e-08 -7.78185e-09 -6.32394e-09
-4.06695e-08 -4.29371e-08 8.25764e-09
3.86881e-09 3.71608e-09 -4.97026e-08
5.23714e-08 -1.81229e-08 1.9711e-08
5.01288e-08 -3.96023e-08 1.0903e-08
-4.23292e-11 -1.14361e-10 2.22143e-11
-2.79351e-08 -2.94602e-09 3.659e-09
-4.1815e-09 6.87064e-09 4.57849e-09
0.0 0.0 -9.20462e-08
4.09698e-09 -2.31179e-08 4.89348e-09
-3.5815e-08 3.81501e-08 -4.33362e-08
0.0 0.0 -9.20462e-08
0.0 0.0 -9.20462e-08
5.96362e-08 -2.07328e-07 -8.55885e-08
2.1897e-08 3.53502e-08 -3.3902e-08
0.0 0.0 -9.20462e-08
-1.07146e-17 -1.05823e-10 -1.31131e-09
-4.27181e-09 3.35948e-09 1.02581e-10
-4.15349e-08 1.53346e-08 -9.96071e-09
-2.12885e-08 2.46518e-08 -3.28895e-08
-2.17684e-09 2.36917e-08 -2.46312e-08
5.06573e-08 -4.38343e-09 1.79723e-08
-1.94183e-08 -9.92854e-08 2.08158e-08
-3.95409e-05 0.000817782 -0.000399212
1.83884e-08 -3.18791e-08 4.48859e-09
-7.55128e-09 5.31166e-08 -8.42086e-08
6.67796e-08 -1.40987e-08 2.9476e-08
3.22132e-08 -6.11968e-08 1.93194e-08
-1.31213e-08 -1.46406e-08 -6.29246e-09
-3.50275e-07 -3.40206e-07 1.97222e-06
1.4794e-08 1.515e-08 -3.44281e-09
-6.2207e-08 -1.57966e-07 1.81067e-07
2.80383e-09 2.43429e-08 -6.59281e-08
-3.03132e-10 4.4008e-10 1.1596e-09
-1.40216e-08 4.10628e-09 -3.11675e-08
0.0 0.0 -9.20462e-08
0.0 0.0 -9.20462e-08
2.48605e-09 -7.67063e-09 1.17537e-09
-1.70141e-08 3.44616e-08 -5.53624e-08
-1.30586e-09 2.38047e-08 -2.46485e-08
2.02833e-08 7.18374e-09 -1.35827e-08
1.59428e-09 2.02595e-09 -6.37097e-10
-1.13556e-08 -5.28644e-10 -1.04097e-09
0.0 0.0 -9.20462e-08
-7.41053e-12 -1.54869e-10 -1.33398e-09
-2.70351e-08 6.94794e-09 -3.14571e-09
1.03927e-08 -3.05677e-09 -1.37276e-09
