# vtk DataFile Version 3.0
LIGGGHTS particles timestep 7200000
ASCII
DATASET POLYDATA
POINTS 294 float
0.0549915 0.0168675 0.0076236
0.0549487 0.0158107 0.00897325
0.0444848 0.0184982 0.00725216
0.0543982 0.0152834 0.00975321
0.0609732 0.0167907 0.00782767
0.0504853 0.0175581 0.00733649
0.0447743 0.0197736 0.00706752
0.0612833 0.0181683 0.00734422
0.0564969 0.0167912 0.0079254
0.0545678 0.0156868 0.00913666
0.0554277 0.0173906 0.00736099
0.0541271 0.0149965 0.0123752
0.0483105 0.0149886 0.0100586
0.045856 0.0195675 0.00700995
0.0373211 0.018239 0.00713951
0.0531381 0.0164709 0.0147626
0.0614389 0.0171912 0.00746595
0.0557594 0.0171873 0.00745715
0.0553163 0.0167676 0.0078346
0.0491925 0.0177026 0.00728569
0.0571464 0.0176621 0.00735535
0.0546935 0.0149045 0.0115245
0.0612031 0.0177766 0.0073334
0.0535763 0.0152813 0.0132252
0.0619394 0.0177138 0.00730036
0.053934 0.0147933 0.0117812
0.0615329 0.0175518 0.00730702
0.0607106 0.0159414 0.00863362
0.0559847 0.0179257 0.00733821
0.0533255 0.0159014 0.0142173
0.0536615 0.0150619 0.0129017
0.0505383 0.0154965 0.00904371
0.0493782 0.0173524 0.00733925
0.0613839 0.0185554 0.00734747
0.0569419 0.0170016 0.00763929
0.0547808 0.0147825 0.0111536
0.0606157 0.0156605 0.00890206
0.0511211 0.0167428 0.00772783
0.05648 0.0183211 0.0073653
0.0494451 0.0188556 0.00706973
0.0552029 0.0152542 0.00982412
0.0556538 0.0181492 0.00731405
0.0570622 0.0172714 0.00736957
0.0610582 0.0170824 0.00756753
0.0546525 0.0149823 0.0102116
0.0566032 0.0154279 0.00946236
0.0153817 0.0364662 0.0432188
0.0548836 0.0165826 0.00799265
0.0540173 0.0147276 0.0113955
0.0501423 0.0197263 0.00722456
0.0608019 0.0162232 0.00836483
0.0441301 0.0186664 0.00717545
0.0496835 0.0163 0.00833019
0.0439666 0.0196614 0.00706297
0.0622552 0.017469 0.00728145
0.0566659 0.0173256 0.00736768
0.0617117 0.0169594 0.00764444
0.0534042 0.0156695 0.0139009
0.0546876 0.0159961 0.008736
0.050536 0.0190913 0.00707743
0.061853 0.0173231 0.00737904
0.0492774 0.0180868 0.0072137
0.0546225 0.0149133 0.0119181
0.0540908 0.0146931 0.0110038
0.0371482 0.0175006 0.00733189
0.0498415 0.0194831 0.00712267
0.0611236 0.0173851 0.00731438
0.0506974 0.0157353 0.00876501
0.048599 0.0148824 0.0105907
0.0557597 0.0185519 0.00733541
0.0551568 0.0164679 0.00821125
0.0537486 0.0148982 0.0125473
0.0486669 0.0158264 0.00878381
0.0482287 0.0149052 0.0104411
0.0504168 0.0179243 0.00719019
0.0510208 0.0170939 0.00756449
0.0551674 0.0176664 0.00748808
0.0605262 0.0153783 0.00917103
0.0553466 0.0184043 0.00729297
0.0501218 0.0184397 0.00711238
0.0608889 0.016506 0.00809564
0.0550553 0.0147561 0.0104075
0.0557346 0.0169007 0.00773502
0.0504777 0.0194817 0.00716371
0.0558476 0.0166911 0.00805647
0.054478 0.01468 0.0108793
0.0538396 0.0148018 0.0121699
0.0542628 0.0149035 0.0102549
0.0555338 0.0191811 0.00733262
0.0490623 0.0171455 0.00747111
0.0561529 0.0171297 0.00749922
0.0486801 0.0149383 0.010203
0.056525 0.0170531 0.00762442
0.0445964 0.0189827 0.00710792
0.0501134 0.0166621 0.00787711
0.0500071 0.0152552 0.00938513
0.0428244 0.0162476 0.00808941
0.0543271 0.0147927 0.0116404
0.0422357 0.014889 0.0103804
0.0444621 0.0202034 0.00715038
0.0489379 0.0154595 0.00919224
0.0502099 0.0188502 0.00703557
0.0456646 0.0232854 0.0108945
0.0495821 0.0178297 0.00724528
0.0514189 0.0171273 0.00758373
0.0497335 0.01684 0.00775171
0.0549529 0.0147491 0.0107941
0.0491413 0.0150093 0.0096788
0.0434234 0.0187571 0.00709922
0.0540362 0.0150849 0.0127545
0.056806 0.0185525 0.00735251
0.0496786 0.018228 0.00717024
0.0543864 0.0148126 0.0112454
0.0372325 0.0178493 0.00715501
0.0528551 0.0174866 0.0153366
0.0534894 0.01545 0.0135775
0.0500389 0.0180551 0.00718449
0.049504 0.0150111 0.00984941
0.055045 0.0150233 0.01011
0.0497609 0.016563 0.00803897
0.0501064 0.0176722 0.00727827
0.0489811 0.016868 0.00774751
0.0495232 0.0192478 0.00706532
0.0561248 0.0168971 0.00782337
0.0526766 0.0182587 0.0155668
0.0555913 0.0152915 0.00973611
0.0369744 0.0168042 0.00768525
0.0505783 0.0186948 0.00704622
0.0550783 0.0172183 0.00745211
0.0508704 0.016207 0.00823716
0.0497614 0.0186126 0.00709827
0.0508269 0.0180886 0.00718659
0.0509069 0.0184682 0.00707131
0.0498068 0.0160291 0.00859738
0.0494126 0.0149405 0.0102324
0.0532329 0.0161805 0.0144887
0.045038 0.0176771 0.00754688
0.0488213 0.0163214 0.0082919
0.0572161 0.018056 0.00734773
0.0505957 0.0168665 0.00771208
0.0484842 0.0152734 0.00933219
0.0497591 0.0174843 0.00734181
0.0563788 0.0178651 0.00736919
0.0442026 0.0190522 0.00709913
0.0514304 0.0178 0.00731768
0.0485724 0.0155503 0.00905731
0.0494305 0.017046 0.00759131
0.051226 0.0181135 0.00717654
0.0429744 0.0156128 0.00892462
0.0498039 0.0171051 0.00746063
0.0435527 0.0177558 0.0074217
0.0490023 0.0149196 0.0104423
0.0450613 0.0194893 0.0070113
0.0571757 0.0187048 0.00734238
0.0437215 0.0185089 0.00719714
0.0542452 0.0148328 0.0120298
0.0439998 0.0165523 0.00784964
0.0501441 0.0169405 0.00759162
0.0488492 0.0151852 0.00946971
0.0560801 0.0183136 0.00735819
0.043667 0.0199212 0.00711512
0.055441 0.0187925 0.00731286
0.0516178 0.0187282 0.00699256
0.0454564 0.0195514 0.00701473
0.0497008 0.0154572 0.00922048
0.0491958 0.0162471 0.00841102
0.0494146 0.0158494 0.00884514
0.0440481 0.0182933 0.00729401
0.0378041 0.020435 0.00749948
0.0554087 0.0163059 0.00843301
0.0511969 0.0197401 0.00729813
0.0554094 0.0170071 0.00752793
0.050175 0.0161136 0.0084484
0.0508966 0.0189336 0.00700569
0.051069 0.0164288 0.00797007
0.048969 0.0165887 0.00803358
0.0443896 0.016745 0.00779962
0.0451622 0.0198706 0.00707749
0.0487609 0.0150089 0.0098177
0.0567501 0.0177165 0.00736192
0.0492315 0.0152875 0.00940276
0.0510324 0.0177644 0.00729928
0.0443474 0.0163682 0.00792713
0.0501684 0.0192483 0.0070647
0.0493488 0.0167789 0.00787754
0.0438764 0.0192711 0.00699482
0.0501443 0.0155708 0.00902854
0.051306 0.0184845 0.0070501
0.0453265 0.0205633 0.00735856
0.0555701 0.0177585 0.00729507
0.0493807 0.0165023 0.00816468
0.0447878 0.0167212 0.00782942
0.042578 0.0155581 0.00903926
0.050854 0.0174275 0.00742003
0.0512525 0.0174605 0.00743789
0.0498458 0.0190154 0.00702298
0.0552552 0.0180041 0.00727302
0.0493622 0.018471 0.00714178
0.0438392 0.0206799 0.00729565
0.0541777 0.0148347 0.0106397
0.0490615 0.0148797 0.0100487
0.0505736 0.0165361 0.00793635
0.0505001 0.0183102 0.00712327
0.0446839 0.0193574 0.00699642
0.0525202 0.0189804 0.0156446
0.0504766 0.0162777 0.00822583
0.0432029 0.0163151 0.0079789
0.045347 0.0202147 0.00716357
0.0424304 0.0149264 0.010033
0.0420013 0.0147994 0.011531
0.0616134 0.0179425 0.00733713
0.0496062 0.0151978 0.0095107
0.0437525 0.0203062 0.00718257
0.0431717 0.0176358 0.0074442
0.0454878 0.0214726 0.00789542
0.0506247 0.016011 0.00848454
0.0426746 0.0157907 0.00872852
0.0568199 0.0181104 0.00735647
0.055901 0.017535 0.00731924
0.0490356 0.0157413 0.00891336
0.0433425 0.0183817 0.00721133
0.0440483 0.0169376 0.00771959
0.041674 0.0151193 0.0128487
0.0418157 0.0147553 0.0123077
0.038239 0.0206947 0.00747268
0.0438014 0.018887 0.00708408
0.0374024 0.0186254 0.00720353
0.0419028 0.0147715 0.0119177
0.0417308 0.014753 0.0126986
0.0438815 0.0175417 0.007511
0.0547609 0.0152211 0.00990974
0.0455957 0.0223833 0.0084302
0.0435097 0.0161528 0.00817769
0.0497833 0.0157192 0.00892954
0.0562948 0.0174743 0.00735391
0.0443966 0.0181112 0.00736746
0.0436831 0.0167791 0.00775874
0.0432959 0.0166538 0.00778763
0.0436383 0.0181313 0.00730984
0.0442918 0.0194333 0.00701682
0.0445787 0.0174418 0.00758951
0.0449773 0.0191043 0.00709562
0.0443772 0.0198183 0.00708317
0.0429057 0.0165256 0.00781364
0.0483973 0.0151157 0.00968939
0.0501509 0.017298 0.00741241
0.0441368 0.0204314 0.0071974
0.0508013 0.0196972 0.00725775
0.0453625 0.0209089 0.00755672
0.0480602 0.0148982 0.0112554
0.0500966 0.016389 0.00816916
0.0505289 0.0171898 0.00748624
0.0453717 0.0191702 0.00710167
0.0446161 0.0170625 0.00771088
0.0479309 0.0149315 0.0117686
0.0435816 0.0195361 0.00704788
0.0434992 0.0191449 0.00703704
0.0433817 0.0170239 0.00766282
0.0442706 0.0176785 0.0074945
0.0427506 0.0160131 0.00840495
0.0504593 0.0199503 0.00732104
0.0437468 0.0171825 0.00762399
0.0415799 0.0152732 0.0132058
0.0421735 0.0149619 0.0107687
0.0439638 0.0179168 0.00739918
0.0441829 0.0172973 0.00760798
0.0430787 0.0172666 0.00756656
0.0430523 0.0158467 0.00860961
0.0477619 0.0150283 0.0125028
0.0423973 0.0151489 0.00970232
0.0442549 0.0160991 0.00820819
0.0508597 0.0193195 0.0071338
0.0504033 0.0152519 0.00932987
0.0370613 0.0171524 0.00750857
0.0440519 0.0200463 0.00713014
0.0512551 0.019364 0.0071747
0.0431291 0.0160807 0.00829449
0.0374922 0.0190102 0.00726566
0.0546353 0.0147211 0.010514
0.042488 0.0153502 0.00936884
0.0429922 0.0168961 0.00769011
0.0435973 0.0164088 0.00788297
0.0434359 0.0159184 0.00849327
0.0438195 0.0159926 0.00837356
0.0515532 0.019106 0.00710691
0.0502036 0.0158375 0.00873638
0.0439056 0.0162252 0.00805975
0.0447433 0.0179289 0.00744804
0.0432574 0.0180085 0.00732717
0.0379051 0.0208902 0.00757395
0.0481444 0.0149176 0.010832
0.0421045 0.0148981 0.0111574
0.0493225 0.015564 0.00912845
0.0449467 0.0173013 0.00765846

VERTICES 294 588
1 0
1 1
1 2
1 3
1 4
1 5
1 6
1 7
1 8
1 9
1 10
1 11
1 12
1 13
1 14
1 15
1 16
1 17
1 18
1 19
1 20
1 21
1 22
1 23
1 24
1 25
1 26
1 27
1 28
1 29
1 30
1 31
1 32
1 33
1 34
1 35
1 36
1 37
1 38
1 39
1 40
1 41
1 42
1 43
1 44
1 45
1 46
1 47
1 48
1 49
1 50
1 51
1 52
1 53
1 54
1 55
1 56
1 57
1 58
1 59
1 60
1 61
1 62
1 63
1 64
1 65
1 66
1 67
1 68
1 69
1 70
1 71
1 72
1 73
1 74
1 75
1 76
1 77
1 78
1 79
1 80
1 81
1 82
1 83
1 84
1 85
1 86
1 87
1 88
1 89
1 90
1 91
1 92
1 93
1 94
1 95
1 96
1 97
1 98
1 99
1 100
1 101
1 102
1 103
1 104
1 105
1 106
1 107
1 108
1 109
1 110
1 111
1 112
1 113
1 114
1 115
1 116
1 117
1 118
1 119
1 120
1 121
1 122
1 123
1 124
1 125
1 126
1 127
1 128
1 129
1 130
1 131
1 132
1 133
1 134
1 135
1 136
1 137
1 138
1 139
1 140
1 141
1 142
1 143
1 144
1 145
1 146
1 147
1 148
1 149
1 150
1 151
1 152
1 153
1 154
1 155
1 156
1 157
1 158
1 159
1 160
1 161
1 162
1 163
1 164
1 165
1 166
1 167
1 168
1 169
1 170
1 171
1 172
1 173
1 174
1 175
1 176
1 177
1 178
1 179
1 180
1 181
1 182
1 183
1 184
1 185
1 186
1 187
1 188
1 189
1 190
1 191
1 192
1 193
1 194
1 195
1 196
1 197
1 198
1 199
1 200
1 201
1 202
1 203
1 204
1 205
1 206
1 207
1 208
1 209
1 210
1 211
1 212
1 213
1 214
1 215
1 216
1 217
1 218
1 219
1 220
1 221
1 222
1 223
1 224
1 225
1 226
1 227
1 228
1 229
1 230
1 231
1 232
1 233
1 234
1 235
1 236
1 237
1 238
1 239
1 240
1 241
1 242
1 243
1 244
1 245
1 246
1 247
1 248
1 249
1 250
1 251
1 252
1 253
1 254
1 255
1 256
1 257
1 258
1 259
1 260
1 261
1 262
1 263
1 264
1 265
1 266
1 267
1 268
1 269
1 270
1 271
1 272
1 273
1 274
1 275
1 276
1 277
1 278
1 279
1 280
1 281
1 282
1 283
1 284
1 285
1 286
1 287
1 288
1 289
1 290
1 291
1 292
1 293

POINT_DATA 294
SCALARS id int 1
LOOKUP_TABLE default
1
2
3
4
6
7
8
9
10
11
12
13
14
15
16
17
18
19
20
21
22
23
24
25
26
27
28
29
30
31
32
33
34
35
36
37
38
39
40
41
42
43
44
45
46
47
48
49
50
51
52
53
54
55
56
57
58
59
60
61
62
63
64
65
66
67
68
70
71
72
73
75
77
78
79
80
81
82
83
84
85
86
87
88
89
90
91
92
93
94
95
96
97
98
99
100
101
103
104
105
106
107
108
109
110
111
112
113
114
115
116
117
118
119
120
121
122
123
124
125
126
127
128
129
130
131
132
133
134
135
136
137
138
139
140
141
142
143
144
145
146
147
148
149
150
151
152
153
154
155
156
157
158
159
160
161
162
163
164
165
166
167
168
169
171
172
173
174
175
176
177
178
179
180
181
182
183
184
185
186
187
188
189
190
191
192
193
194
195
196
197
198
199
200
201
202
203
204
205
206
207
208
209
210
211
212
213
214
215
216
217
218
219
220
221
222
223
224
225
226
227
228
229
230
231
232
233
234
235
236
237
238
239
240
241
242
243
244
245
246
247
248
249
250
251
252
253
254
255
256
257
258
259
260
261
262
263
264
265
266
267
268
269
270
271
272
273
274
275
276
277
278
279
280
281
282
283
284
285
286
287
288
289
290
291
292
293
294
295
296
297
298
299
300

SCALARS type int 1
LOOKUP_TABLE default
1
1
1
1
1
1
1
1
1
1
1
1
1
1
1
1
1
1
1
1
1
1
1
1
1
1
1
1
1
1
1
1
1
1
1
1
1
1
1
1
1
1
1
1
1
1
1
1
1
1
1
1
1
1
1
1
1
1
1
1
1
1
1
1
1
1
1
1
1
1
1
1
1
1
1
1
1
1
1
1
1
1
1
1
1
1
1
1
1
1
1
1
1
1
1
1
1
1
1
1
1
1
1
1
1
1
1
1
1
1
1
1
1
1
1
1
1
1
1
1
1
1
1
1
1
1
1
1
1
1
1
1
1
1
1
1
1
1
1
1
1
1
1
1
1
1
1
1
1
1
1
1
1
1
1
1
1
1
1
1
1
1
1
1
1
1
1
1
1
1
1
1
1
1
1
1
1
1
1
1
1
1
1
1
1
1
1
1
1
1
1
1
1
1
1
1
1
1
1
1
1
1
1
1
1
1
1
1
1
1
1
1
1
1
1
1
1
1
1
1
1
1
1
1
1
1
1
1
1
1
1
1
1
1
1
1
1
1
1
1
1
1
1
1
1
1
1
1
1
1
1
1
1
1
1
1
1
1
1
1
1
1
1
1
1
1
1
1
1
1
1
1
1
1
1
1
1
1
1
1
1
1
1
1
1
1
1
1
1
1
1
1
1
1

SCALARS radius float 1
LOOKUP_TABLE default
0.0002
0.0002
0.0002
0.0002
0.0002
0.0002
0.0002
0.0002
0.0002
0.0002
0.0002
0.0002
0.0002
0.0002
0.0002
0.0002
0.0002
0.0002
0.0002
0.0002
0.0002
0.0002
0.0002
0.0002
0.0002
0.0002
0.0002
0.0002
0.0002
0.0002
0.0002
0.0002
0.0002
0.0002
0.0002
0.0002
0.0002
0.0002
0.0002
0.0002
0.0002
0.0002
0.0002
0.0002
0.0002
0.0002
0.0002
0.0002
0.0002
0.0002
0.0002
0.0002
0.0002
0.0002
0.0002
0.0002
0.0002
0.0002
0.0002
0.0002
0.0002
0.0002
0.0002
0.0002
0.0002
0.0002
0.0002
0.0002
0.0002
0.0002
0.0002
0.0002
0.0002
0.0002
0.0002
0.0002
0.0002
0.0002
0.0002
0.0002
0.0002
0.0002
0.0002
0.0002
0.0002
0.0002
0.0002
0.0002
0.0002
0.0002
0.0002
0.0002
0.0002
0.0002
0.0002
0.0002
0.0002
0.0002
0.0002
0.0002
0.0002
0.0002
0.0002
0.0002
0.0002
0.0002
0.0002
0.0002
0.0002
0.0002
0.0002
0.0002
0.0002
0.0002
0.0002
0.0002
0.0002
0.0002
0.0002
0.0002
0.0002
0.0002
0.0002
0.0002
0.0002
0.0002
0.0002
0.0002
0.0002
0.0002
0.0002
0.0002
0.0002
0.0002
0.0002
0.0002
0.0002
0.0002
0.0002
0.0002
0.0002
0.0002
0.0002
0.0002
0.0002
0.0002
0.0002
0.0002
0.0002
0.0002
0.0002
0.0002
0.0002
0.0002
0.0002
0.0002
0.0002
0.0002
0.0002
0.0002
0.0002
0.0002
0.0002
0.0002
0.0002
0.0002
0.0002
0.0002
0.0002
0.0002
0.0002
0.0002
0.0002
0.0002
0.0002
0.0002
0.0002
0.0002
0.0002
0.0002
0.0002
0.0002
0.0002
0.0002
0.0002
0.0002
0.0002
0.0002
0.0002
0.0002
0.0002
0.0002
0.0002
0.0002
0.0002
0.0002
0.0002
0.0002
0.0002
0.0002
0.0002
0.0002
0.0002
0.0002
0.0002
0.0002
0.0002
0.0002
0.0002
0.0002
0.0002
0.0002
0.0002
0.0002
0.0002
0.0002
0.0002
0.0002
0.0002
0.0002
0.0002
0.0002
0.0002
0.0002
0.0002
0.0002
0.0002
0.0002
0.0002
0.0002
0.0002
0.0002
0.0002
0.0002
0.0002
0.0002
0.0002
0.0002
0.0002
0.0002
0.0002
0.0002
0.0002
0.0002
0.0002
0.0002
0.0002
0.0002
0.0002
0.0002
0.0002
0.0002
0.0002
0.0002
0.0002
0.0002
0.0002
0.0002
0.0002
0.0002
0.0002
0.0002
0.0002
0.0002
0.0002
0.0002
0.0002
0.0002
0.0002
0.0002
0.0002
0.0002
0.0002
0.0002
0.0002
0.0002
0.0002
0.0002
0.0002
0.0002
0.0002
0.0002
0.0002
0.0002
0.0002
0.0002
0.0002
0.0002
0.0002
0.0002
0.0002
0.0002
0.0002
0.0002

SCALARS mass float 1
LOOKUP_TABLE default
9.38289e-09
9.38289e-09
9.38289e-09
9.38289e-09
9.38289e-09
9.38289e-09
9.38289e-09
9.38289e-09
9.38289e-09
9.38289e-09
9.38289e-09
9.38289e-09
9.38289e-09
9.38289e-09
9.38289e-09
9.38289e-09
9.38289e-09
9.38289e-09
9.38289e-09
9.38289e-09
9.38289e-09
9.38289e-09
9.38289e-09
9.38289e-09
9.38289e-09
9.38289e-09
9.38289e-09
9.38289e-09
9.38289e-09
9.38289e-09
9.38289e-09
9.38289e-09
9.38289e-09
9.38289e-09
9.38289e-09
9.38289e-09
9.38289e-09
9.38289e-09
9.38289e-09
9.38289e-09
9.38289e-09
9.38289e-09
9.38289e-09
9.38289e-09
9.38289e-09
9.38289e-09
9.38289e-09
9.38289e-09
9.38289e-09
9.38289e-09
9.38289e-09
9.38289e-09
9.38289e-09
9.38289e-09
9.38289e-09
9.38289e-09
9.38289e-09
9.38289e-09
9.38289e-09
9.38289e-09
9.38289e-09
9.38289e-09
9.38289e-09
9.38289e-09
9.38289e-09
9.38289e-09
9.38289e-09
9.38289e-09
9.38289e-09
9.38289e-09
9.38289e-09
9.38289e-09
9.38289e-09
9.38289e-09
9.38289e-09
9.38289e-09
9.38289e-09
9.38289e-09
9.38289e-09
9.38289e-09
9.38289e-09
9.38289e-09
9.38289e-09
9.38289e-09
9.38289e-09
9.38289e-09
9.38289e-09
9.38289e-09
9.38289e-09
9.38289e-09
9.38289e-09
9.38289e-09
9.38289e-09
9.38289e-09
9.38289e-09
9.38289e-09
9.38289e-09
9.38289e-09
9.38289e-09
9.38289e-09
9.38289e-09
9.38289e-09
9.38289e-09
9.38289e-09
9.38289e-09
9.38289e-09
9.38289e-09
9.38289e-09
9.38289e-09
9.38289e-09
9.38289e-09
9.38289e-09
9.38289e-09
9.38289e-09
9.38289e-09
9.38289e-09
9.38289e-09
9.38289e-09
9.38289e-09
9.38289e-09
9.38289e-09
9.38289e-09
9.38289e-09
9.38289e-09
9.38289e-09
9.38289e-09
9.38289e-09
9.38289e-09
9.38289e-09
9.38289e-09
9.38289e-09
9.38289e-09
9.38289e-09
9.38289e-09
9.38289e-09
9.38289e-09
9.38289e-09
9.38289e-09
9.38289e-09
9.38289e-09
9.38289e-09
9.38289e-09
9.38289e-09
9.38289e-09
9.38289e-09
9.38289e-09
9.38289e-09
9.38289e-09
9.38289e-09
9.38289e-09
9.38289e-09
9.38289e-09
9.38289e-09
9.38289e-09
9.38289e-09
9.38289e-09
9.38289e-09
9.38289e-09
9.38289e-09
9.38289e-09
9.38289e-09
9.38289e-09
9.38289e-09
9.38289e-09
9.38289e-09
9.38289e-09
9.38289e-09
9.38289e-09
9.38289e-09
9.38289e-09
9.38289e-09
9.38289e-09
9.38289e-09
9.38289e-09
9.38289e-09
9.38289e-09
9.38289e-09
9.38289e-09
9.38289e-09
9.38289e-09
9.38289e-09
9.38289e-09
9.38289e-09
9.38289e-09
9.38289e-09
9.38289e-09
9.38289e-09
9.38289e-09
9.38289e-09
9.38289e-09
9.38289e-09
9.38289e-09
9.38289e-09
9.38289e-09
9.38289e-09
9.38289e-09
9.38289e-09
9.38289e-09
9.38289e-09
9.38289e-09
9.38289e-09
9.38289e-09
9.38289e-09
9.38289e-09
9.38289e-09
9.38289e-09
9.38289e-09
9.38289e-09
9.38289e-09
9.38289e-09
9.38289e-09
9.38289e-09
9.38289e-09
9.38289e-09
9.38289e-09
9.38289e-09
9.38289e-09
9.38289e-09
9.38289e-09
9.38289e-09
9.38289e-09
9.38289e-09
9.38289e-09
9.38289e-09
9.38289e-09
9.38289e-09
9.38289e-09
9.38289e-09
9.38289e-09
9.38289e-09
9.38289e-09
9.38289e-09
9.38289e-09
9.38289e-09
9.38289e-09
9.38289e-09
9.38289e-09
9.38289e-09
9.38289e-09
9.38289e-09
9.38289e-09
9.38289e-09
9.38289e-09
9.38289e-09
9.38289e-09
9.38289e-09
9.38289e-09
9.38289e-09
9.38289e-09
9.38289e-09
9.38289e-09
9.38289e-09
9.38289e-09
9.38289e-09
9.38289e-09
9.38289e-09
9.38289e-09
9.38289e-09
9.38289e-09
9.38289e-09
9.38289e-09
9.38289e-09
9.38289e-09
9.38289e-09
9.38289e-09
9.38289e-09
9.38289e-09
9.38289e-09
9.38289e-09
9.38289e-09
9.38289e-09
9.38289e-09
9.38289e-09
9.38289e-09
9.38289e-09
9.38289e-09
9.38289e-09
9.38289e-09
9.38289e-09
9.38289e-09
9.38289e-09
9.38289e-09
9.38289e-09
9.38289e-09
9.38289e-09
9.38289e-09
9.38289e-09
9.38289e-09
9.38289e-09
9.38289e-09
9.38289e-09
9.38289e-09
9.38289e-09
9.38289e-09

VECTORS velocity float
0.0054307 -0.00139073 0.00315885
-0.00035593 -0.0143844 0.0189723
0.00609771 -0.000987529 0.000711072
0.00297735 -0.00566455 0.0105315
0.00535385 0.000308418 -0.000724597
0.00586949 -0.000559768 0.000698458
0.00612065 -0.00112636 -0.000344422
0.00579606 0.000591667 0.000223727
0.0064183 -0.000482944 -0.000185206
5.77095e-05 -0.0140816 0.0200797
0.0050275 -0.00215113 0.000622457
0.00114738 0.00219259 0.000610582
0.00819603 0.00234709 -0.00999587
0.00623254 0.00121523 6.40738e-05
0.00599231 -0.00115758 -0.00133851
0.00849785 -0.00581409 -0.00745641
0.00625231 0.000521153 -0.000224217
0.00538446 -0.0020794 0.00076762
0.00597762 -0.000902555 0.00253328
0.0056953 -0.00156229 9.18719e-06
0.00625655 0.000749606 -8.17976e-05
0.000493817 0.00387452 -0.00331507
0.0060285 0.000554275 -0.000154678
0.00740668 -0.00302093 -0.00852777
0.00583581 0.000683681 -0.000182008
0.00804842 -0.000269664 -0.00956854
0.00606493 0.000611148 -0.000193653
0.00577311 0.000117845 -0.000785488
0.00587097 -0.00210392 0.000483594
0.00726371 -0.00709172 -0.00412708
0.00792434 -0.00203421 -0.00859737
0.00237508 6.94798e-05 -0.0004572
0.00598221 -0.00146345 6.48691e-08
0.00628199 0.000464861 0.000243147
-2.00067e-05 0.00209481 -0.00211336
-0.000701849 0.0037272 -0.00348406
0.0063908 -3.35136e-05 -0.00071867
0.00578857 -0.000769117 0.00017601
0.00568468 -0.00162899 -0.000564911
0.00530024 -0.00136734 2.08692e-07
0.00777329 -0.000119613 -0.000731003
0.00557087 -0.0024339 0.000473115
0.00565458 0.000871309 -0.000773873
0.00588857 0.000382545 -0.000465991
0.0105772 -0.00277563 0.00333656
0.00115982 0.0111226 -0.0127776
-8.14632e-316 8.17842e-316 5.97366e-14
0.00676101 -0.000406147 0.00390581
0.00767511 -0.000356239 -0.00960124
0.00447102 -0.00031634 0.000190407
0.00557764 0.000165362 -0.000807041
0.00607629 -0.000917802 0.00069603
0.00548558 -0.00117161 0.00037058
0.00600325 -0.000890642 -0.000154089
0.00585345 0.000719525 -0.00038077
0.00551286 -0.000262848 -0.000210187
0.00627267 0.000537881 -0.000236169
0.00714581 -0.00592957 -0.00605229
0.000627823 -0.0139928 0.0171837
0.00550758 -0.00102365 -2.2939e-05
0.00622213 0.00076379 -0.000404323
0.00557574 -0.00146644 2.65887e-06
0.00456303 0.00388112 -0.00232218
0.00782646 -8.04304e-05 -0.00949878
0.00577519 -0.00103052 0.000358241
0.00515184 -0.00109167 6.22263e-05
0.00624519 0.000513469 -0.000218794
0.00515095 -0.00100308 0.000237267
0.00917298 -0.000828328 -0.013623
0.00554144 -0.00218648 0.000431112
0.0040858 -0.00566352 0.00891645
0.0067414 -0.00186799 -0.00956346
0.00874714 0.0079914 -0.00719458
0.00759543 -0.000317243 -0.0102254
0.00563312 -0.00081445 -0.000112435
0.00594854 -0.000445789 0.000665756
0.00559104 -0.00110786 -0.00028239
0.00601236 5.19785e-05 -0.000759831
0.00562653 -0.00241707 0.000449815
0.00542858 -0.00106032 -9.3696e-05
0.00538736 0.000208143 -0.000822825
0.0062227 -0.000363729 -0.000460369
0.00554931 -0.000681295 0.00217076
0.00506435 -0.00103116 -5.6675e-06
0.00572046 -0.000660286 0.00217614
0.00189833 0.000165654 0.00177882
0.00893611 -0.000648465 -0.0093392
0.00775389 0.00650789 -0.00767717
0.0055108 -0.00240574 0.000441838
0.00585682 -0.000467429 0.00116192
0.00564758 3.93943e-07 0.00112773
0.00917712 0.000928018 -0.0136591
0.00607919 -0.000459461 -0.000172174
0.00598473 -0.00107921 0.00074738
0.00499369 -0.00126262 0.000554232
-0.00239393 0.0078557 -0.00794533
0.00581164 -0.000589598 0.000485426
0.000519032 0.00194281 0.000642929
0.00563305 0.000950407 0.00136281
0.00588866 -0.000901837 -0.000306578
0.00981329 0.0093602 -0.00862976
0.0056219 -0.00121488 -4.22454e-05
0.000149293 0.043192 -0.0533195
0.00568068 -0.00131917 -2.85839e-05
0.00590121 -0.000297341 0.000589093
0.00570284 -0.000953849 0.000751624
0.00239468 0.000840631 -0.00163757
0.00741758 0.0083607 -0.0078765
0.00517368 -0.000409354 0.000506649
0.000617399 0.00215044 0.000411159
0.00466006 -3.78908e-05 -8.0631e-05
0.00550033 -0.00130184 -2.49574e-05
-0.00023714 0.00113478 0.000710759
0.00548525 -0.000970741 0.000337007
0.000275446 0.022295 0.00909609
0.00734443 -0.00635217 -0.00572727
0.00556056 -0.00112189 -6.31725e-06
0.0135648 0.00449252 -0.0182567
0.00945797 -0.000496954 -0.000196592
0.00552517 -0.00122739 0.000450851
0.00577811 -0.000951753 0.000569015
0.00565624 -0.000430932 0.00109782
0.00541672 -0.00141393 5.64111e-06
0.00575101 4.06167e-05 0.00119362
0.000248292 0.0237297 0.00463338
0.008422 -0.00214056 0.00147088
0.0057539 -0.00100984 0.000347455
0.00577518 -0.000980784 -7.44803e-05
0.00549943 -0.0025416 0.000743054
0.00577386 -0.00088517 2.05956e-05
0.00533577 -0.00127147 -1.56431e-05
0.00573725 -0.000550432 0.000391755
0.00598564 -0.000874855 -9.53387e-05
0.00543395 -0.00116737 0.000365555
0.0124737 -0.00187888 -0.0200668
0.00777087 -0.00469485 -0.00570659
0.0064024 -0.000264749 0.000516533
0.00528554 -0.000417027 0.00102385
0.00646286 0.000697243 -0.000147354
0.00543475 -0.000746756 0.000485062
0.00806459 0.00802973 -0.00759591
0.00583249 -0.00104439 0.000601585
0.00611089 -0.000606868 -4.16045e-05
0.00600156 -0.000963348 0.0004922
0.00579742 -0.000393393 0.000621016
0.00895358 0.00768178 -0.00695192
0.0058276 -0.000486551 0.00117363
0.00581954 -0.000307383 0.000644916
0.00582075 -0.000596993 0.000474329
0.00579246 -0.00093515 0.000839162
0.00592364 -0.00075167 0.000627766
0.0055482 0.00175261 -0.00790462
0.00630728 -0.00109209 0.000167153
0.00389765 0.00193938 -0.000104355
0.00576977 0.000623005 0.000194476
0.000956114 0.0023448 0.000556377
0.00591571 -0.000570174 0.000427515
0.00575993 -0.00106775 0.000747745
0.00944484 0.00810775 -0.0108546
0.00554208 -0.0020662 0.000454109
0.00590674 -0.000755896 -0.00020078
0.00545242 -0.00242916 0.000430584
0.00569637 -0.000179526 -0.000239442
0.00622543 -0.00017834 -0.000230236
0.00385218 0.0147675 -0.0162711
0.00529309 -0.000395924 0.000987719
0.00789388 0.0113628 -0.0108082
0.00606001 -0.000869499 0.000707653
0.00469284 -0.00441403 -0.00176355
-0.000293891 -0.0138114 0.0139386
0.00465394 -0.000497162 0.000135193
0.00556874 -0.00252533 0.00103545
0.00548886 -0.00123161 0.00041789
0.00563138 -0.000787234 9.88686e-05
0.00574021 -0.000894686 9.68933e-06
0.00514067 -0.000415845 0.00100549
0.0058504 -0.0007973 0.00048853
0.0061277 -0.000990789 -0.000200168
0.0096797 0.00361737 -0.0130868
0.0057141 -0.000216909 -0.000108465
0.011111 0.0091214 -0.00876874
0.00585623 -0.000374993 0.000612804
0.00583372 -0.00077333 0.000524339
0.00535457 -0.00130775 -1.02989e-05
0.00563627 -0.00100827 0.000584349
0.0055897 -0.000420079 -0.000199393
0.00132428 -0.000707535 0.00053688
0.00600502 -0.000598877 -0.000199762
1.01952e-05 -2.61995e-05 -1.2874e-05
0.00533703 -0.00243057 0.00043658
0.00548252 -0.00112438 0.000432397
0.00578197 -0.000806841 0.000628948
0.00602524 -0.000906042 0.000527619
0.00591267 -0.000398455 0.000705768
0.00585433 -0.000329631 0.00061452
0.0054685 -0.00142151 2.48815e-07
0.00515481 -0.0027486 0.00042418
0.00544206 -0.00142476 2.17601e-05
0.00586664 -0.00100625 -0.000119526
0.00772043 0.0048231 -0.0084738
0.00629158 0.0059913 -0.00877088
0.0051739 -0.000949193 0.000148595
0.00556561 -0.000867055 -2.27486e-05
0.00623701 -0.00110654 0.000844103
0.000244797 0.0243026 0.000447426
0.00555275 -0.00103454 0.000201804
0.00581849 -0.000605212 0.000466121
0.00415755 -3.25589e-05 0.000365205
0.00562104 0.000675833 0.00136841
0.00589503 0.00113134 0.0012272
0.00582774 0.0006417 1.94161e-05
0.0136734 0.0115149 -0.0143003
0.00591872 -0.000932197 -0.000208672
0.0058344 -0.000628828 0.000481648
-0.00247288 -0.0792659 -0.0222172
0.00592493 -0.000975569 6.41746e-05
0.00579044 -0.000641645 0.000570111
0.00622746 -0.00044751 -0.000181036
0.00522629 -0.00213705 0.000324377
0.00924811 0.00869441 -0.00789231
0.00621734 -0.000692645 0.000630419
0.00589546 -0.000770685 0.000576992
0.00551857 0.00110241 -0.00267771
0.00592038 8.96526e-06 0.00104874
0.00479968 -0.00444083 -0.00178865
0.00553132 -0.000528079 0.000530824
0.00598983 -0.00116256 -0.0013372
0.00591518 0.000539258 0.00115853
0.00583924 -0.000262517 0.000932513
0.00590828 -0.00079185 0.000651348
0.00692089 -0.00154697 0.00298677
0.00177735 -0.0693033 -0.169979
0.00584504 -0.000595635 0.000469798
0.00969539 0.0135252 -0.0158926
0.00566981 -0.000361597 0.000521116
0.00609881 -0.000773628 0.000654396
0.00586057 -0.000597077 0.000446396
0.00586128 -0.000611824 0.000430391
0.00609864 -0.000745341 0.00065104
0.00605656 -0.00105546 7.43936e-05
0.00589052 -0.000766658 0.000641218
0.00609546 -0.00133702 0.000833589
0.00608075 -0.000984215 -0.00014673
0.00582664 -0.000590509 0.000450012
0.00815276 0.00646403 -0.00853185
0.0058405 -0.000905105 0.000889145
0.00587389 -0.000895216 -0.0003848
0.00470416 -0.00062629 9.1413e-05
-4.54657e-06 -6.11026e-06 -4.35521e-06
0.000761322 -0.000192419 0.0175888
0.00551744 -0.00121291 0.000430141
0.00582264 -0.000552119 0.000682466
0.00594592 -0.000122109 0.000443235
0.00587908 -0.000759911 0.000640616
0.000121805 0.00232423 0.0234575
0.00577517 -0.000512003 -0.000192082
0.00562737 -0.000516225 -0.000216921
0.00580649 -0.000589264 0.000430125
0.00590175 -0.000827744 0.000675218
0.00579653 -0.000598578 0.000533351
0.00367377 0.000688758 0.00047367
0.00593025 -0.000800451 0.000633464
0.00602358 -0.00108766 -0.00172797
0.00574762 0.0014403 0.00126538
0.00597842 -0.000821075 0.000691041
0.005889 -0.000786894 0.000636558
0.00573796 -0.000602188 0.00044349
0.00576117 -0.000589026 0.000480033
0.00482245 0.00125537 0.00475715
0.00565741 0.000296791 0.00112103
0.0057952 -0.000691563 0.000593494
0.00524441 -0.000637274 0.000130759
-0.00159413 0.000970131 -0.0016057
0.0057655 -0.00101507 0.000350642
0.00600278 -0.000929329 -0.000195664
0.00521573 -0.000351325 0.000225523
0.00579206 -0.000600625 0.000466289
0.00458236 -0.000887307 -0.00102271
0.0074438 -0.00204764 0.00395075
0.00603082 -0.000622476 0.000702066
0.00576993 -0.000602325 0.000442304
0.00589499 -0.000598896 0.000394723
0.00587275 -0.000589348 0.000463763
0.005967 -0.000559632 0.000415226
0.00523013 -0.000372117 0.000220155
0.00399716 -0.00119204 0.000615359
0.00591732 -0.000564469 0.000418839
0.00625457 -0.000457841 0.000566651
0.00606314 -0.00065492 0.000594366
0.00479968 -0.00444084 -0.00178864
0.00751193 -0.000654773 -0.00963306
0.00507333 0.00196295 0.00122417
0.010232 0.0092947 -0.00855226
0.00595503 -0.000523152 0.000567369

VECTORS force float
-3.74972e-09 1.64025e-08 -1.50101e-08
-1.33904e-08 9.634e-09 -2.29938e-08
1.09706e-08 -2.38155e-08 8.36856e-09
1.48228e-08 -2.95478e-08 5.59643e-08
5.38504e-10 3.06098e-10 3.6495e-10
6.14319e-09 -9.2459e-09 2.53794e-09
-3.96978e-11 -2.64542e-08 -1.02952e-08
-5.48159e-11 -4.16013e-10 -5.34343e-12
-4.94549e-08 9.47226e-09 -9.74927e-10
-1.54679e-11 2.53079e-10 8.88642e-10
-2.33554e-08 1.97026e-08 -6.76054e-09
-1.73304e-08 1.49381e-08 3.73191e-08
-2.85128e-08 6.81155e-09 -1.06626e-07
3.99224e-09 1.79679e-08 -1.36492e-08
-1.36036e-10 -3.03765e-10 1.97343e-09
1.21403e-08 3.99467e-09 -6.84861e-08
3.70811e-10 -9.16826e-11 -2.53059e-11
-1.58068e-08 3.43638e-08 -3.02329e-08
-2.35637e-08 3.73574e-08 -4.5054e-08
4.51372e-10 1.07845e-08 -2.88632e-09
-5.11701e-08 2.04428e-08 8.43784e-10
0.0 0.0 -9.20462e-08
-1.9515e-10 -4.69483e-10 4.86006e-10
0.0 0.0 -9.20462e-08
4.56938e-10 -2.39278e-10 -9.51891e-11
-2.77638e-08 2.04828e-08 1.74924e-08
-1.34012e-11 -1.95812e-10 5.66558e-11
-4.42023e-09 -1.64632e-11 2.14727e-10
4.32197e-08 -2.63038e-08 -1.78863e-08
2.28549e-08 2.28408e-08 -8.06281e-08
1.79257e-07 4.7534e-08 4.55494e-08
-6.94869e-09 3.36283e-09 2.38644e-09
6.94608e-09 1.44016e-08 -1.10309e-10
-1.37941e-10 -4.92925e-10 -2.0138e-11
-8.71589e-09 9.56983e-09 -8.58546e-09
-7.29491e-09 -1.63109e-09 -5.474e-08
2.48981e-09 -7.43911e-10 -1.2421e-09
7.78401e-09 -1.76733e-09 5.20413e-09
-4.54217e-08 3.60246e-08 -5.34417e-08
1.97277e-08 1.31422e-08 -5.57323e-09
-3.47994e-08 1.0976e-08 -7.99012e-09
-3.09194e-08 -6.08844e-08 5.17703e-10
-4.52968e-08 1.76423e-08 -1.85094e-08
-7.26418e-10 -3.14244e-10 -5.64179e-10
1.33614e-07 6.29295e-08 2.97851e-08
2.61673e-09 2.55214e-08 -2.93136e-08
0.0 0.0 0.0
-3.2172e-07 -1.31185e-06 1.29039e-06
2.77638e-08 -2.04828e-08 -2.01585e-07
9.99836e-09 8.65762e-09 5.3138e-09
-3.19226e-09 8.53899e-12 4.66294e-10
1.35638e-08 -1.38622e-09 8.52374e-09
1.44028e-09 -1.39823e-08 1.07541e-08
1.67268e-08 -4.56051e-09 -1.45959e-08
7.95442e-10 -1.20841e-10 1.82975e-10
-4.87532e-08 1.07657e-09 -3.91107e-09
9.05075e-10 -2.47298e-11 4.19236e-11
8.24223e-10 8.7152e-10 -8.46668e-08
-5.05025e-09 -1.63896e-08 1.50708e-08
-1.71725e-09 -4.0223e-09 -1.81997e-09
2.54071e-10 3.14484e-11 1.51396e-11
3.56755e-09 9.1792e-09 -3.80943e-09
0.0 0.0 -9.20462e-08
0.0 0.0 -9.20462e-08
-1.00081e-10 -1.25861e-09 9.71068e-10
1.67192e-09 2.49823e-08 1.15517e-09
-3.74797e-10 -4.37945e-10 1.64107e-11
-9.0588e-09 2.37497e-09 -4.07759e-09
9.11766e-09 1.18971e-10 -9.39101e-08
-4.58609e-09 3.23182e-08 1.86533e-08
-2.26031e-07 -8.9611e-07 1.25723e-06
0.0 0.0 -9.20462e-08
-2.4357e-08 -5.86277e-09 5.136e-09
0.0 0.0 -9.20462e-08
1.45346e-08 -1.805e-08 7.86435e-10
2.14357e-08 3.66456e-09 2.33603e-09
-1.97918e-08 -1.20683e-09 -1.55158e-08
4.31591e-10 -2.65566e-10 -1.31249e-09
-1.97497e-08 -5.5354e-09 -4.02969e-09
6.13675e-09 -1.49939e-08 2.20332e-09
-1.39332e-09 4.29122e-10 3.13379e-10
3.23881e-08 -2.091e-08 2.48339e-08
-2.34817e-08 2.39285e-08 -4.37312e-08
-6.92674e-09 9.02157e-09 9.39858e-09
-2.35004e-08 2.48521e-08 -4.82241e-08
-7.61567e-08 2.27725e-08 -6.63597e-09
7.92475e-09 2.69533e-10 -8.52078e-08
-7.39725e-08 -1.20916e-07 1.60286e-07
-6.25079e-09 -2.26995e-08 -2.6645e-09
1.62273e-08 1.27221e-08 2.06518e-09
-5.55516e-08 -1.31087e-08 -4.54339e-08
1.04236e-09 -5.01546e-08 -1.06053e-08
-4.28124e-08 2.61938e-08 -6.53006e-09
1.54822e-08 1.55603e-08 -5.17104e-10
1.45167e-10 -2.31388e-08 3.33785e-08
-1.10679e-08 1.0599e-08 -9.69785e-09
-1.2297e-09 -6.79278e-09 1.45292e-08
-6.47044e-08 -8.06526e-09 1.70589e-08
-1.04332e-08 1.51735e-08 -5.23286e-09
6.78323e-09 2.26333e-08 4.92755e-09
-1.5801e-08 1.73649e-08 -5.24974e-08
-1.03052e-08 -4.31995e-09 2.80175e-09
0.0 0.0 -9.20462e-08
7.4418e-09 -2.81417e-09 3.46514e-09
5.53509e-09 -2.239e-08 6.51305e-09
2.43408e-09 -3.1986e-08 -4.78309e-09
-1.85992e-08 1.15595e-08 -3.75193e-08
1.02562e-07 -3.9006e-08 -1.31366e-08
-3.69215e-08 -8.42757e-09 7.7018e-10
-4.43729e-08 3.77462e-08 4.46732e-08
-4.05003e-08 5.49605e-09 3.89829e-09
8.31704e-10 -1.37589e-08 6.31578e-09
-3.99623e-08 -5.3185e-08 3.93658e-08
-6.40573e-11 6.6425e-10 -1.32565e-09
-9.23271e-12 5.33557e-10 -1.19616e-09
1.71138e-08 -2.21182e-08 -2.73727e-08
1.22077e-09 -1.53925e-08 1.04042e-08
4.44154e-09 4.58479e-08 -1.33174e-07
1.01932e-07 -1.34054e-08 5.21665e-08
-1.08634e-08 -1.99415e-08 -3.19236e-09
1.02501e-08 -8.35903e-09 1.21848e-08
-6.19898e-09 -1.30665e-09 6.42988e-09
2.4266e-09 2.28462e-08 -2.90797e-09
-1.50437e-08 1.5829e-08 -3.71437e-08
-6.17296e-12 2.81581e-10 -1.29024e-09
-3.64199e-08 2.30618e-08 -1.63745e-08
1.71924e-09 2.90044e-09 -1.67303e-09
2.03897e-09 -2.63318e-09 7.19587e-11
2.46037e-09 2.2146e-08 -1.57935e-08
2.45389e-08 -1.09104e-08 8.6084e-09
1.01322e-08 -1.42498e-08 2.9791e-09
9.23102e-10 -1.40808e-08 3.74633e-09
1.35427e-08 2.53349e-09 -4.70348e-09
1.41466e-08 -7.29373e-09 7.49151e-09
-7.71214e-09 -4.40471e-08 -2.41976e-08
1.57404e-08 9.02517e-09 -8.24282e-08
9.5827e-09 -2.537e-09 1.30169e-09
-7.98318e-09 -1.32928e-08 1.00269e-08
-3.65629e-08 1.23638e-08 -3.16751e-09
1.10704e-08 3.74781e-09 1.0926e-09
-4.17829e-08 1.82694e-08 1.45744e-07
5.46086e-09 -1.53085e-08 8.59283e-09
9.60031e-08 1.09107e-08 -2.99411e-08
1.55092e-08 2.77529e-09 -1.74017e-08
2.09885e-09 3.01208e-09 -1.02611e-09
-5.19317e-08 7.46343e-08 -1.1159e-07
2.08997e-08 2.11229e-08 3.67327e-08
1.11992e-09 2.80826e-09 -2.15181e-09
-4.26931e-09 -1.1305e-08 1.71742e-08
1.28222e-08 -2.3959e-08 9.2498e-09
-3.24545e-09 -7.12925e-09 4.7698e-09
0.0 0.0 -9.20462e-08
3.59523e-08 -1.44409e-08 -3.55437e-08
-3.66056e-08 -1.73844e-08 1.52828e-09
-3.18185e-08 1.73301e-08 -8.6152e-09
-2.65738e-08 4.22619e-08 6.89898e-09
-5.77546e-09 -9.3475e-09 -3.50366e-10
1.01434e-08 -1.39316e-08 3.38353e-08
-1.05465e-08 4.97559e-08 -5.9553e-08
-5.00742e-08 7.57165e-09 -1.88839e-08
1.05165e-08 -2.32212e-09 2.24059e-09
-5.18012e-09 -1.45767e-09 -2.48146e-09
1.74156e-08 6.54549e-09 -1.02735e-09
2.01656e-08 -3.79114e-09 -4.82116e-08
1.4929e-09 2.45622e-08 -2.64329e-08
-1.95343e-08 -1.14509e-08 1.0562e-08
3.02249e-08 1.10649e-08 -1.13092e-08
1.12669e-08 -3.72049e-09 7.8119e-10
3.28762e-12 -2.25772e-11 -4.94278e-12
1.41844e-07 -1.42395e-07 2.37373e-07
-6.22135e-09 -1.02192e-08 -4.5178e-09
-3.9606e-09 1.56966e-08 -5.88163e-08
-6.58189e-09 -5.59358e-09 6.41871e-09
6.2331e-09 2.69559e-09 3.69874e-09
7.58572e-09 -9.74566e-09 -8.57172e-10
3.69983e-08 -1.2628e-08 1.9153e-08
9.37531e-09 -9.02195e-09 9.47797e-10
-8.54678e-09 -1.67291e-08 -1.87869e-08
2.24191e-08 4.98298e-08 8.51281e-09
-8.75829e-09 -3.39417e-08 1.37128e-08
0.0 0.0 -9.20462e-08
1.12933e-08 -8.38066e-09 3.08086e-09
7.55877e-09 -7.3433e-09 3.15904e-09
2.1843e-09 -9.91761e-10 2.40839e-09
2.20887e-08 -4.16189e-10 2.0384e-08
-7.15736e-09 5.16173e-09 7.43799e-09
-1.05974e-08 -2.26657e-09 3.34724e-09
1.8998e-08 3.76832e-09 -8.41041e-09
-1.18964e-08 -4.32803e-09 -3.93124e-11
6.52834e-08 1.32292e-08 2.62057e-08
3.32311e-10 -3.48181e-09 2.44459e-08
5.20279e-10 -2.14486e-08 4.00117e-09
1.85717e-08 -6.96613e-10 1.4554e-08
1.12811e-08 -1.15981e-08 -1.48248e-09
1.07323e-08 -1.50086e-08 6.70792e-09
-6.30544e-09 1.57746e-08 -2.87348e-09
3.94132e-08 -3.14108e-08 1.22225e-09
1.43233e-08 1.29643e-08 -4.91399e-09
1.16825e-09 2.0012e-08 1.50959e-08
-1.10175e-07 -5.64915e-08 1.32636e-07
0.0 0.0 -9.20462e-08
2.45827e-08 4.78677e-09 -7.21112e-10
6.31952e-10 -1.3713e-08 -1.38403e-09
3.12282e-08 9.46702e-09 -1.75106e-09
-7.65133e-12 5.6625e-11 -1.33411e-09
-5.60939e-09 6.7232e-09 -1.9865e-11
-1.14103e-08 1.90566e-09 -3.35017e-09
-9.8471e-09 -1.29413e-08 -1.06491e-08
-1.0362e-08 1.1082e-08 -1.39786e-08
2.76436e-08 -1.31893e-08 -4.84698e-09
2.61446e-10 -2.20948e-10 -4.88811e-10
-1.28173e-08 3.81201e-08 -3.50547e-08
8.3356e-09 4.03042e-08 -1.68827e-08
2.11622e-08 -2.34554e-09 -4.25902e-09
0.0 0.0 -9.20462e-08
-4.20742e-09 4.73403e-09 -1.70565e-09
-8.75361e-09 -3.46175e-08 1.28914e-09
-5.70134e-08 4.43691e-08 5.8347e-09
-5.74365e-09 -1.93652e-09 -6.18731e-09
6.57918e-09 1.94593e-08 -8.49524e-09
-7.09692e-09 -1.801e-08 4.17246e-09
8.52166e-09 -6.77398e-09 -7.96253e-09
2.58518e-08 -2.02348e-08 -4.21678e-08
5.57762e-09 2.23843e-09 -1.24165e-08
-2.57206e-11 2.88838e-12 5.31305e-12
-1.37573e-08 2.21341e-09 -3.19575e-09
-9.02995e-10 -1.86049e-09 5.52613e-10
2.03228e-08 -7.33625e-09 -1.46419e-08
-6.5902e-09 -2.50476e-08 -7.99305e-09
4.55143e-09 -5.00354e-09 1.63131e-09
1.17722e-07 4.79155e-08 -4.27729e-08
0.0 0.0 -9.20462e-08
-1.18507e-08 9.90636e-09 -1.38085e-08
1.50963e-08 2.2866e-08 -3.2313e-08
2.34846e-08 -2.36287e-08 9.46082e-09
9.33439e-09 -2.74314e-09 -3.96542e-10
5.56461e-09 -2.10638e-09 2.20769e-09
-1.10075e-09 3.01767e-09 4.49049e-09
6.70333e-10 -8.39461e-09 3.67152e-09
2.1326e-08 3.12591e-09 -4.66153e-08
1.06086e-08 -1.09535e-08 2.20613e-09
1.9711e-08 -1.44053e-08 7.77096e-09
1.15138e-08 4.3065e-09 -1.49551e-08
-7.67464e-09 2.00264e-09 2.25579e-09
3.50441e-08 -2.68497e-08 -3.68446e-08
1.25733e-08 -8.06537e-09 9.54187e-09
-7.97808e-09 1.53269e-08 2.19621e-08
-8.04876e-09 6.81579e-09 2.97645e-09
-3.65571e-10 2.1368e-09 -3.80511e-10
-1.77122e-08 -1.80603e-08 1.99082e-08
-1.844e-08 -1.09292e-08 2.96401e-09
-1.17281e-08 -1.32434e-08 5.66806e-09
2.63304e-08 -1.06011e-09 1.788e-09
1.03535e-08 -1.33336e-08 8.62409e-10
-1.16567e-10 7.94059e-10 8.39991e-10
-1.08746e-08 -2.93905e-08 -5.54453e-09
-6.63427e-09 -1.37421e-08 -2.74935e-08
9.79179e-09 7.07262e-10 -1.5078e-10
6.33864e-09 -5.24389e-09 4.40074e-09
9.28727e-09 -2.17455e-08 2.12151e-08
1.58214e-08 2.00683e-09 2.47558e-09
5.05947e-09 -4.46475e-09 -6.93287e-09
-1.33625e-08 8.50414e-09 3.77541e-08
-4.75237e-09 2.2784e-08 -6.09104e-09
5.30096e-09 -2.88359e-09 3.53251e-09
1.18496e-09 -3.51792e-09 -5.12525e-10
1.09845e-08 1.0825e-08 -4.97172e-09
-1.27127e-08 -4.47326e-09 9.60379e-09
-1.08952e-08 9.02249e-09 5.34286e-08
8.22846e-09 -1.53388e-08 -2.21251e-08
6.85973e-09 -2.01549e-09 5.67343e-09
3.49631e-09 -5.46309e-09 -5.52375e-09
-1.27967e-08 -1.5559e-09 -1.82236e-09
1.88236e-09 -1.96894e-09 1.20765e-09
5.94335e-09 1.56573e-08 -8.95707e-09
5.15679e-09 -5.95931e-09 -1.11857e-09
-1.11062e-08 -1.42073e-10 -3.04726e-09
-5.58832e-09 1.12617e-09 1.43534e-09
-1.84819e-09 4.29969e-08 -2.62837e-08
4.24561e-08 -4.79059e-09 1.21319e-08
4.21187e-09 1.20159e-08 -4.39867e-09
4.81648e-10 -4.80874e-09 7.27251e-09
-2.20659e-09 9.46824e-09 -1.12436e-08
-3.43097e-08 -1.57931e-09 2.70715e-09
4.54636e-09 2.23703e-10 2.13355e-09
3.83008e-09 -4.66928e-09 4.13721e-09
2.63218e-09 -4.85688e-09 3.54754e-09
2.61921e-09 -1.21153e-08 4.0094e-09
6.88037e-09 -1.24159e-08 -3.45182e-09
-2.5736e-11 2.86543e-12 5.31124e-12
6.0649e-09 -9.08583e-10 -8.72533e-08
-1.75228e-10 -1.89907e-09 -8.37174e-09
-5.70805e-09 2.94178e-08 2.03898e-08
1.81263e-08 -1.20582e-09 1.5719e-09
