# vtk DataFile Version 3.0
LIGGGHTS particles timestep 6400000
ASCII
DATASET POLYDATA
POINTS 294 float
0.0513342 0.0172629 0.00772693
0.0509888 0.0173948 0.00744243
0.0400775 0.0183285 0.0070783
0.0505933 0.0180106 0.00721212
0.0562897 0.0167672 0.00797692
0.046043 0.0165762 0.00796358
0.0425926 0.0160847 0.0144108
0.0565935 0.0180463 0.00736239
0.0518193 0.0160294 0.00827225
0.0507633 0.0187793 0.00714559
0.0510578 0.0185225 0.00706028
0.0501783 0.0153006 0.00930936
0.0452541 0.0159588 0.00873716
0.0431256 0.0147951 0.0124037
0.035419 0.0207681 0.015277
0.0488803 0.0153606 0.0134012
0.0567336 0.0170903 0.00755911
0.051293 0.0178991 0.0072671
0.051558 0.016936 0.00767233
0.0449744 0.0197978 0.00706802
0.0523101 0.0173786 0.00753294
0.0505933 0.0153087 0.00925685
0.0565082 0.0176556 0.00736893
0.0497978 0.0152537 0.00942346
0.0572309 0.0175637 0.00735636
0.0501883 0.0163804 0.00816355
0.0568344 0.0174242 0.00736345
0.0555744 0.0147849 0.0103139
0.0514619 0.018658 0.00701291
0.0495661 0.0149821 0.0105076
0.0498835 0.0155134 0.00913152
0.0432923 0.0147165 0.0116297
0.0451886 0.0191321 0.00710116
0.0566787 0.0184371 0.00735661
0.0520097 0.016352 0.00793974
0.0506735 0.0155594 0.00895571
0.0555049 0.0147673 0.0107073
0.0458435 0.0158122 0.00888479
0.0521892 0.0183632 0.00712537
0.045802 0.0204025 0.00730895
0.0513822 0.0160878 0.00828098
0.0515151 0.0190556 0.00708735
0.0522431 0.0166622 0.00783566
0.0563575 0.0170253 0.00767893
0.0507349 0.0168966 0.00761943
0.0512619 0.0158358 0.00856737
0.0153817 0.0364662 0.0432188
0.0508872 0.0177515 0.00729256
0.0502731 0.0166417 0.0078729
0.0467796 0.0200374 0.00718746
0.0556606 0.0150379 0.0100162
0.0397638 0.0185723 0.0070317
0.0447006 0.0159444 0.0084398
0.0414513 0.0206375 0.0153388
0.0575223 0.0172897 0.00735858
0.052735 0.0168688 0.00772433
0.0569282 0.0168476 0.00781058
0.0496262 0.0149124 0.0101184
0.05068 0.0183836 0.0070967
0.0463311 0.0195353 0.00705221
0.0571425 0.0171866 0.00745625
0.0450537 0.020184 0.00713558
0.0504835 0.0150979 0.00957852
0.0503366 0.0169145 0.00758728
0.0324488 0.0173774 0.00738024
0.0465245 0.0206646 0.00751813
0.0564234 0.0172647 0.00736534
0.0430344 0.0148925 0.0127808
0.0448439 0.0148956 0.0114656
0.0519013 0.0189518 0.00707763
0.0511331 0.0169285 0.0076393
0.049969 0.0157746 0.00884092
0.0449144 0.0186416 0.00726717
0.0442522 0.0165395 0.00786544
0.0457757 0.0179226 0.00751364
0.0461978 0.0158275 0.008698
0.05085 0.0191643 0.00708079
0.0554184 0.0147516 0.0110975
0.0515896 0.0194317 0.00721947
0.045654 0.0196655 0.0070317
0.0557467 0.0152909 0.00971863
0.0509561 0.0160388 0.00840165
0.0516762 0.0173259 0.00752596
0.0467613 0.0196658 0.00704042
0.0516269 0.0162909 0.00803845
0.0505847 0.0163275 0.00815716
0.050098 0.0161203 0.00845372
0.0505061 0.0176312 0.00730921
0.0522377 0.0187447 0.00701528
0.0448981 0.0194053 0.00707418
0.0523638 0.0170121 0.00768394
0.0434198 0.0150352 0.0125293
0.0519724 0.0170852 0.00764566
0.0413598 0.0210191 0.0151472
0.045599 0.0162161 0.00807005
0.0435491 0.0147714 0.0122523
0.0381766 0.016317 0.00794928
0.050351 0.0158324 0.00873738
0.0377666 0.0152841 0.00960356
0.0426579 0.0157006 0.0143201
0.0446753 0.0167258 0.00782038
0.0460306 0.0197992 0.00704812
0.0440621 0.0159662 0.00838868
0.0452717 0.0195355 0.00701557
0.0465608 0.0158673 0.00851118
0.0455921 0.0175094 0.00763691
0.0507441 0.0158236 0.00866384
0.044199 0.0149346 0.0109981
0.0388562 0.0191853 0.00713033
0.0500875 0.0150539 0.00961365
0.0524633 0.0178555 0.00732407
0.0453535 0.0199243 0.00708363
0.0504943 0.0160667 0.00844659
0.0325351 0.0177362 0.00722596
0.0487958 0.0155533 0.0137414
0.0497107 0.0150312 0.00974593
0.0455695 0.0192769 0.00708162
0.0445424 0.0156078 0.00923783
0.0510726 0.0162919 0.0081147
0.0451102 0.016588 0.00789416
0.0455634 0.0184911 0.0073274
0.0452922 0.0187656 0.00722302
0.0461786 0.0205032 0.00739837
0.051846 0.0166864 0.00779363
0.0487031 0.015786 0.0140533
0.0510476 0.0156219 0.00882867
0.0322762 0.0166598 0.00768879
0.0459538 0.0194032 0.00706805
0.0509912 0.0181478 0.00718306
0.043925 0.0146898 0.0121385
0.0457301 0.0200568 0.0071076
0.0453899 0.0180294 0.00746031
0.0464587 0.0177149 0.00755427
0.0446048 0.014938 0.0121038
0.0444216 0.0161525 0.00855831
0.048961 0.0151968 0.0130454
0.040311 0.01769 0.00730705
0.0448121 0.0189982 0.00711765
0.0526814 0.0172353 0.00757313
0.0458551 0.0159512 0.0085097
0.04442 0.017286 0.00762757
0.045954 0.0184211 0.0073759
0.0517524 0.0181907 0.00718889
0.041136 0.0223084 0.0140659
0.0467387 0.0164334 0.00793988
0.0445017 0.0176612 0.00751556
0.0451993 0.0175698 0.00759142
0.0459348 0.0172406 0.00774385
0.0382208 0.0165755 0.00819451
0.0456278 0.016615 0.00800194
0.0389588 0.0179919 0.00728305
0.0452483 0.0149021 0.0115594
0.0425002 0.0163778 0.0146668
0.0527536 0.0175967 0.00741736
0.0390624 0.018845 0.00708881
0.0502642 0.0155618 0.0090188
0.0393598 0.0167176 0.00766329
0.0459802 0.0163223 0.00833593
0.0439908 0.0152318 0.00995969
0.0518468 0.0185563 0.00705151
0.0391425 0.0205603 0.00727931
0.0522272 0.0191823 0.00710257
0.0461372 0.0180814 0.00748048
0.0432081 0.0147148 0.0120207
0.0448493 0.0147602 0.0118419
0.0445913 0.0180471 0.00740071
0.0448965 0.0161517 0.00810312
0.0393725 0.0184901 0.00704128
0.0368352 0.0154575 0.0135717
0.0514612 0.0165722 0.00780751
0.046608 0.0173294 0.00762905
0.0513834 0.0175982 0.00751448
0.0438953 0.0149667 0.01074
0.0461201 0.0187761 0.00727579
0.0440025 0.014697 0.0117448
0.0451406 0.0183227 0.00735155
0.0398345 0.0168967 0.00756061
0.043574 0.0149884 0.0105029
0.0449451 0.0157924 0.00896239
0.052015 0.0176295 0.0074331
0.042722 0.0153986 0.0140657
0.0462605 0.0169997 0.00780138
0.0393016 0.0164238 0.00792842
0.0464073 0.0199261 0.00709246
0.0448772 0.0177986 0.00752934
0.0392994 0.0197498 0.00716431
0.0443259 0.0146793 0.0119803
0.0454755 0.0169647 0.0078284
0.0437522 0.015321 0.00966506
0.0511503 0.0189088 0.00701388
0.0448134 0.017413 0.00761441
0.0386265 0.0153814 0.00921366
0.0381182 0.0160918 0.00827446
0.0464642 0.0167182 0.00799951
0.0466353 0.016141 0.00822912
0.0461042 0.0201638 0.00720035
0.0512112 0.0193185 0.00715644
0.0454204 0.0203152 0.00722666
0.0427677 0.0156293 0.0138064
0.050607 0.0172743 0.00745909
0.043647 0.0151343 0.0101378
0.0452399 0.016328 0.00821292
0.0457684 0.0189498 0.00719757
0.0422156 0.0173948 0.0153141
0.0486009 0.0160603 0.0143825
0.0441247 0.0147867 0.0113641
0.0385407 0.0162454 0.00809868
0.0434799 0.0148419 0.010863
0.0378536 0.0154658 0.00925814
0.0375207 0.0148713 0.0106748
0.0569198 0.017815 0.00735776
0.0445044 0.0149035 0.0112544
0.0436189 0.0147041 0.0118643
0.0388146 0.017619 0.0072696
0.0439293 0.015699 0.00888431
0.0433875 0.0147953 0.0112493
0.0380485 0.0150071 0.00966527
0.0520955 0.0180065 0.00728026
0.0513675 0.0182773 0.00712309
0.0448965 0.0170662 0.00780086
0.0387319 0.0186196 0.00709378
0.0394766 0.0170601 0.00748872
0.0372237 0.0147513 0.012224
0.0373454 0.0148885 0.0114508
0.0369167 0.015277 0.0132242
0.0394606 0.0188788 0.00707432
0.0357349 0.0194687 0.0156223
0.0374336 0.0148395 0.0110638
0.0372467 0.0147958 0.0118271
0.0392702 0.0177076 0.00725804
0.0510734 0.0166236 0.00789122
0.044257 0.0156513 0.00900934
0.0388642 0.0161099 0.00829099
0.0444985 0.014766 0.0116299
0.0516808 0.017823 0.00732904
0.0397053 0.0181786 0.00711436
0.0390874 0.0169823 0.00753821
0.0389485 0.0166485 0.0077093
0.0390073 0.0183302 0.0070734
0.0420383 0.0181977 0.0155674
0.0399432 0.0175374 0.00734423
0.0421301 0.0177666 0.0154392
0.0423115 0.0170157 0.0151092
0.0385107 0.0165821 0.00775435
0.0443287 0.0169114 0.00773999
0.0463109 0.0162846 0.00804441
0.0423986 0.0166769 0.0149146
0.0465188 0.0188025 0.00729444
0.0438345 0.0155231 0.00933569
0.0442001 0.0155026 0.00937081
0.0455121 0.0161506 0.00845802
0.046212 0.0159925 0.00833387
0.0437065 0.0147063 0.0114737
0.0400928 0.0171884 0.00747015
0.0441992 0.0163544 0.00822169
0.0390352 0.0200474 0.00720436
0.0389395 0.0195751 0.00716369
0.0387877 0.0172224 0.00742629
0.0396591 0.0177999 0.00724241
0.0383679 0.0157263 0.00875992
0.0472216 0.01863 0.0072619
0.0391669 0.0173408 0.00737961
0.0370794 0.0148548 0.0125823
0.0376798 0.0151044 0.0099501
0.039317 0.0180839 0.00713082
0.0395557 0.0174331 0.007364
0.0384639 0.0174358 0.00732828
0.0381691 0.0152458 0.00936777
0.0443367 0.0158154 0.00855446
0.0379458 0.0156796 0.00893298
0.0387239 0.0156237 0.00891066
0.0462402 0.0191428 0.00716902
0.043804 0.0148175 0.0111002
0.0323625 0.0170186 0.00753451
0.0416062 0.0199717 0.0155432
0.0468928 0.0176276 0.00752809
0.0384842 0.0160016 0.00841063
0.03675 0.0156664 0.0139021
0.0506741 0.0166303 0.00791161
0.0380321 0.0158522 0.00858279
0.0384899 0.0169527 0.00756941
0.0389059 0.0163546 0.00797724
0.0382704 0.0154863 0.00906467
0.0388073 0.0158657 0.00860335
0.0467935 0.0169734 0.00768952
0.0429621 0.0151889 0.0130399
0.0391984 0.0159265 0.00854557
0.0400269 0.0179526 0.00720522
0.0386186 0.0180933 0.00709874
0.0370037 0.01513 0.0128625
0.0445828 0.0157924 0.00885087
0.0375929 0.0148996 0.0102824
0.044537 0.0162818 0.00798114
0.0392649 0.0161698 0.00823516

VERTICES 294 588
1 0
1 1
1 2
1 3
1 4
1 5
1 6
1 7
1 8
1 9
1 10
1 11
1 12
1 13
1 14
1 15
1 16
1 17
1 18
1 19
1 20
1 21
1 22
1 23
1 24
1 25
1 26
1 27
1 28
1 29
1 30
1 31
1 32
1 33
1 34
1 35
1 36
1 37
1 38
1 39
1 40
1 41
1 42
1 43
1 44
1 45
1 46
1 47
1 48
1 49
1 50
1 51
1 52
1 53
1 54
1 55
1 56
1 57
1 58
1 59
1 60
1 61
1 62
1 63
1 64
1 65
1 66
1 67
1 68
1 69
1 70
1 71
1 72
1 73
1 74
1 75
1 76
1 77
1 78
1 79
1 80
1 81
1 82
1 83
1 84
1 85
1 86
1 87
1 88
1 89
1 90
1 91
1 92
1 93
1 94
1 95
1 96
1 97
1 98
1 99
1 100
1 101
1 102
1 103
1 104
1 105
1 106
1 107
1 108
1 109
1 110
1 111
1 112
1 113
1 114
1 115
1 116
1 117
1 118
1 119
1 120
1 121
1 122
1 123
1 124
1 125
1 126
1 127
1 128
1 129
1 130
1 131
1 132
1 133
1 134
1 135
1 136
1 137
1 138
1 139
1 140
1 141
1 142
1 143
1 144
1 145
1 146
1 147
1 148
1 149
1 150
1 151
1 152
1 153
1 154
1 155
1 156
1 157
1 158
1 159
1 160
1 161
1 162
1 163
1 164
1 165
1 166
1 167
1 168
1 169
1 170
1 171
1 172
1 173
1 174
1 175
1 176
1 177
1 178
1 179
1 180
1 181
1 182
1 183
1 184
1 185
1 186
1 187
1 188
1 189
1 190
1 191
1 192
1 193
1 194
1 195
1 196
1 197
1 198
1 199
1 200
1 201
1 202
1 203
1 204
1 205
1 206
1 207
1 208
1 209
1 210
1 211
1 212
1 213
1 214
1 215
1 216
1 217
1 218
1 219
1 220
1 221
1 222
1 223
1 224
1 225
1 226
1 227
1 228
1 229
1 230
1 231
1 232
1 233
1 234
1 235
1 236
1 237
1 238
1 239
1 240
1 241
1 242
1 243
1 244
1 245
1 246
1 247
1 248
1 249
1 250
1 251
1 252
1 253
1 254
1 255
1 256
1 257
1 258
1 259
1 260
1 261
1 262
1 263
1 264
1 265
1 266
1 267
1 268
1 269
1 270
1 271
1 272
1 273
1 274
1 275
1 276
1 277
1 278
1 279
1 280
1 281
1 282
1 283
1 284
1 285
1 286
1 287
1 288
1 289
1 290
1 291
1 292
1 293

POINT_DATA 294
SCALARS id int 1
LOOKUP_TABLE default
1
2
3
4
6
7
8
9
10
11
12
13
14
15
16
17
18
19
20
21
22
23
24
25
26
27
28
29
30
31
32
33
34
35
36
37
38
39
40
41
42
43
44
45
46
47
48
49
50
51
52
53
54
55
56
57
58
59
60
61
62
63
64
65
66
67
68
70
71
72
73
75
77
78
79
80
81
82
83
84
85
86
87
88
89
90
91
92
93
94
95
96
97
98
99
100
101
103
104
105
106
107
108
109
110
111
112
113
114
115
116
117
118
119
120
121
122
123
124
125
126
127
128
129
130
131
132
133
134
135
136
137
138
139
140
141
142
143
144
145
146
147
148
149
150
151
152
153
154
155
156
157
158
159
160
161
162
163
164
165
166
167
168
169
171
172
173
174
175
176
177
178
179
180
181
182
183
184
185
186
187
188
189
190
191
192
193
194
195
196
197
198
199
200
201
202
203
204
205
206
207
208
209
210
211
212
213
214
215
216
217
218
219
220
221
222
223
224
225
226
227
228
229
230
231
232
233
234
235
236
237
238
239
240
241
242
243
244
245
246
247
248
249
250
251
252
253
254
255
256
257
258
259
260
261
262
263
264
265
266
267
268
269
270
271
272
273
274
275
276
277
278
279
280
281
282
283
284
285
286
287
288
289
290
291
292
293
294
295
296
297
298
299
300

SCALARS type int 1
LOOKUP_TABLE default
1
1
1
1
1
1
1
1
1
1
1
1
1
1
1
1
1
1
1
1
1
1
1
1
1
1
1
1
1
1
1
1
1
1
1
1
1
1
1
1
1
1
1
1
1
1
1
1
1
1
1
1
1
1
1
1
1
1
1
1
1
1
1
1
1
1
1
1
1
1
1
1
1
1
1
1
1
1
1
1
1
1
1
1
1
1
1
1
1
1
1
1
1
1
1
1
1
1
1
1
1
1
1
1
1
1
1
1
1
1
1
1
1
1
1
1
1
1
1
1
1
1
1
1
1
1
1
1
1
1
1
1
1
1
1
1
1
1
1
1
1
1
1
1
1
1
1
1
1
1
1
1
1
1
1
1
1
1
1
1
1
1
1
1
1
1
1
1
1
1
1
1
1
1
1
1
1
1
1
1
1
1
1
1
1
1
1
1
1
1
1
1
1
1
1
1
1
1
1
1
1
1
1
1
1
1
1
1
1
1
1
1
1
1
1
1
1
1
1
1
1
1
1
1
1
1
1
1
1
1
1
1
1
1
1
1
1
1
1
1
1
1
1
1
1
1
1
1
1
1
1
1
1
1
1
1
1
1
1
1
1
1
1
1
1
1
1
1
1
1
1
1
1
1
1
1
1
1
1
1
1
1
1
1
1
1
1
1
1
1
1
1
1
1

SCALARS radius float 1
LOOKUP_TABLE default
0.0002
0.0002
0.0002
0.0002
0.0002
0.0002
0.0002
0.0002
0.0002
0.0002
0.0002
0.0002
0.0002
0.0002
0.0002
0.0002
0.0002
0.0002
0.0002
0.0002
0.0002
0.0002
0.0002
0.0002
0.0002
0.0002
0.0002
0.0002
0.0002
0.0002
0.0002
0.0002
0.0002
0.0002
0.0002
0.0002
0.0002
0.0002
0.0002
0.0002
0.0002
0.0002
0.0002
0.0002
0.0002
0.0002
0.0002
0.0002
0.0002
0.0002
0.0002
0.0002
0.0002
0.0002
0.0002
0.0002
0.0002
0.0002
0.0002
0.0002
0.0002
0.0002
0.0002
0.0002
0.0002
0.0002
0.0002
0.0002
0.0002
0.0002
0.0002
0.0002
0.0002
0.0002
0.0002
0.0002
0.0002
0.0002
0.0002
0.0002
0.0002
0.0002
0.0002
0.0002
0.0002
0.0002
0.0002
0.0002
0.0002
0.0002
0.0002
0.0002
0.0002
0.0002
0.0002
0.0002
0.0002
0.0002
0.0002
0.0002
0.0002
0.0002
0.0002
0.0002
0.0002
0.0002
0.0002
0.0002
0.0002
0.0002
0.0002
0.0002
0.0002
0.0002
0.0002
0.0002
0.0002
0.0002
0.0002
0.0002
0.0002
0.0002
0.0002
0.0002
0.0002
0.0002
0.0002
0.0002
0.0002
0.0002
0.0002
0.0002
0.0002
0.0002
0.0002
0.0002
0.0002
0.0002
0.0002
0.0002
0.0002
0.0002
0.0002
0.0002
0.0002
0.0002
0.0002
0.0002
0.0002
0.0002
0.0002
0.0002
0.0002
0.0002
0.0002
0.0002
0.0002
0.0002
0.0002
0.0002
0.0002
0.0002
0.0002
0.0002
0.0002
0.0002
0.0002
0.0002
0.0002
0.0002
0.0002
0.0002
0.0002
0.0002
0.0002
0.0002
0.0002
0.0002
0.0002
0.0002
0.0002
0.0002
0.0002
0.0002
0.0002
0.0002
0.0002
0.0002
0.0002
0.0002
0.0002
0.0002
0.0002
0.0002
0.0002
0.0002
0.0002
0.0002
0.0002
0.0002
0.0002
0.0002
0.0002
0.0002
0.0002
0.0002
0.0002
0.0002
0.0002
0.0002
0.0002
0.0002
0.0002
0.0002
0.0002
0.0002
0.0002
0.0002
0.0002
0.0002
0.0002
0.0002
0.0002
0.0002
0.0002
0.0002
0.0002
0.0002
0.0002
0.0002
0.0002
0.0002
0.0002
0.0002
0.0002
0.0002
0.0002
0.0002
0.0002
0.0002
0.0002
0.0002
0.0002
0.0002
0.0002
0.0002
0.0002
0.0002
0.0002
0.0002
0.0002
0.0002
0.0002
0.0002
0.0002
0.0002
0.0002
0.0002
0.0002
0.0002
0.0002
0.0002
0.0002
0.0002
0.0002
0.0002
0.0002
0.0002
0.0002
0.0002
0.0002
0.0002
0.0002
0.0002
0.0002
0.0002
0.0002
0.0002
0.0002
0.0002
0.0002
0.0002
0.0002
0.0002
0.0002
0.0002
0.0002
0.0002
0.0002
0.0002
0.0002
0.0002
0.0002
0.0002

SCALARS mass float 1
LOOKUP_TABLE default
9.38289e-09
9.38289e-09
9.38289e-09
9.38289e-09
9.38289e-09
9.38289e-09
9.38289e-09
9.38289e-09
9.38289e-09
9.38289e-09
9.38289e-09
9.38289e-09
9.38289e-09
9.38289e-09
9.38289e-09
9.38289e-09
9.38289e-09
9.38289e-09
9.38289e-09
9.38289e-09
9.38289e-09
9.38289e-09
9.38289e-09
9.38289e-09
9.38289e-09
9.38289e-09
9.38289e-09
9.38289e-09
9.38289e-09
9.38289e-09
9.38289e-09
9.38289e-09
9.38289e-09
9.38289e-09
9.38289e-09
9.38289e-09
9.38289e-09
9.38289e-09
9.38289e-09
9.38289e-09
9.38289e-09
9.38289e-09
9.38289e-09
9.38289e-09
9.38289e-09
9.38289e-09
9.38289e-09
9.38289e-09
9.38289e-09
9.38289e-09
9.38289e-09
9.38289e-09
9.38289e-09
9.38289e-09
9.38289e-09
9.38289e-09
9.38289e-09
9.38289e-09
9.38289e-09
9.38289e-09
9.38289e-09
9.38289e-09
9.38289e-09
9.38289e-09
9.38289e-09
9.38289e-09
9.38289e-09
9.38289e-09
9.38289e-09
9.38289e-09
9.38289e-09
9.38289e-09
9.38289e-09
9.38289e-09
9.38289e-09
9.38289e-09
9.38289e-09
9.38289e-09
9.38289e-09
9.38289e-09
9.38289e-09
9.38289e-09
9.38289e-09
9.38289e-09
9.38289e-09
9.38289e-09
9.38289e-09
9.38289e-09
9.38289e-09
9.38289e-09
9.38289e-09
9.38289e-09
9.38289e-09
9.38289e-09
9.38289e-09
9.38289e-09
9.38289e-09
9.38289e-09
9.38289e-09
9.38289e-09
9.38289e-09
9.38289e-09
9.38289e-09
9.38289e-09
9.38289e-09
9.38289e-09
9.38289e-09
9.38289e-09
9.38289e-09
9.38289e-09
9.38289e-09
9.38289e-09
9.38289e-09
9.38289e-09
9.38289e-09
9.38289e-09
9.38289e-09
9.38289e-09
9.38289e-09
9.38289e-09
9.38289e-09
9.38289e-09
9.38289e-09
9.38289e-09
9.38289e-09
9.38289e-09
9.38289e-09
9.38289e-09
9.38289e-09
9.38289e-09
9.38289e-09
9.38289e-09
9.38289e-09
9.38289e-09
9.38289e-09
9.38289e-09
9.38289e-09
9.38289e-09
9.38289e-09
9.38289e-09
9.38289e-09
9.38289e-09
9.38289e-09
9.38289e-09
9.38289e-09
9.38289e-09
9.38289e-09
9.38289e-09
9.38289e-09
9.38289e-09
9.38289e-09
9.38289e-09
9.38289e-09
9.38289e-09
9.38289e-09
9.38289e-09
9.38289e-09
9.38289e-09
9.38289e-09
9.38289e-09
9.38289e-09
9.38289e-09
9.38289e-09
9.38289e-09
9.38289e-09
9.38289e-09
9.38289e-09
9.38289e-09
9.38289e-09
9.38289e-09
9.38289e-09
9.38289e-09
9.38289e-09
9.38289e-09
9.38289e-09
9.38289e-09
9.38289e-09
9.38289e-09
9.38289e-09
9.38289e-09
9.38289e-09
9.38289e-09
9.38289e-09
9.38289e-09
9.38289e-09
9.38289e-09
9.38289e-09
9.38289e-09
9.38289e-09
9.38289e-09
9.38289e-09
9.38289e-09
9.38289e-09
9.38289e-09
9.38289e-09
9.38289e-09
9.38289e-09
9.38289e-09
9.38289e-09
9.38289e-09
9.38289e-09
9.38289e-09
9.38289e-09
9.38289e-09
9.38289e-09
9.38289e-09
9.38289e-09
9.38289e-09
9.38289e-09
9.38289e-09
9.38289e-09
9.38289e-09
9.38289e-09
9.38289e-09
9.38289e-09
9.38289e-09
9.38289e-09
9.38289e-09
9.38289e-09
9.38289e-09
9.38289e-09
9.38289e-09
9.38289e-09
9.38289e-09
9.38289e-09
9.38289e-09
9.38289e-09
9.38289e-09
9.38289e-09
9.38289e-09
9.38289e-09
9.38289e-09
9.38289e-09
9.38289e-09
9.38289e-09
9.38289e-09
9.38289e-09
9.38289e-09
9.38289e-09
9.38289e-09
9.38289e-09
9.38289e-09
9.38289e-09
9.38289e-09
9.38289e-09
9.38289e-09
9.38289e-09
9.38289e-09
9.38289e-09
9.38289e-09
9.38289e-09
9.38289e-09
9.38289e-09
9.38289e-09
9.38289e-09
9.38289e-09
9.38289e-09
9.38289e-09
9.38289e-09
9.38289e-09
9.38289e-09
9.38289e-09
9.38289e-09
9.38289e-09
9.38289e-09
9.38289e-09
9.38289e-09
9.38289e-09
9.38289e-09
9.38289e-09
9.38289e-09
9.38289e-09
9.38289e-09
9.38289e-09
9.38289e-09
9.38289e-09
9.38289e-09
9.38289e-09
9.38289e-09
9.38289e-09
9.38289e-09
9.38289e-09
9.38289e-09
9.38289e-09
9.38289e-09
9.38289e-09
9.38289e-09
9.38289e-09
9.38289e-09
9.38289e-09
9.38289e-09
9.38289e-09
9.38289e-09
9.38289e-09

VECTORS velocity float
0.00677354 0.000347219 0.00134109
0.00308831 -0.00183458 0.000980636
0.00568019 0.00198845 -0.000430993
0.00574962 -0.00113145 0.000602441
0.0060505 -0.00058145 -2.004e-05
-0.0235208 -0.0176908 -0.0443197
0.00102238 0.0145932 0.0151888
0.0058871 0.000469761 -0.000164864
0.00561077 -0.000500015 -0.000276483
0.00560696 -0.000703989 -6.20221e-05
0.00572799 -0.000559717 0.000228713
0.00595611 -0.00016741 -0.000776215
0.00203544 -0.000569815 0.000547361
0.000176579 0.0027079 0.0244507
0.000102574 0.0226653 -0.0102686
0.00500202 -6.73978e-05 0.00325091
0.00562076 8.28925e-05 -0.000352942
0.00632779 -0.000234243 0.000644503
0.00637794 0.000226117 0.000774441
0.00570429 0.000441501 1.03133e-06
0.00694573 0.000191563 -0.000978312
0.00557681 0.000540768 -0.000322343
0.00602865 0.000422749 -8.38337e-05
0.00603854 -0.000197263 -0.000724485
0.00573259 0.000278419 -6.79671e-05
0.0060978 -0.000490489 -0.000349629
0.00604379 0.000270906 -2.32956e-05
0.00469548 -0.00355105 0.003434
0.00572864 -0.000552382 -4.32644e-05
0.00502677 -0.00109094 1.8036e-05
0.00591114 -0.000135366 -0.000779405
0.000436172 -0.00102153 0.0244066
0.00380922 -0.00100965 0.000544825
0.00579688 0.000519505 -0.000134274
0.00585438 -0.000306564 0.000511063
0.0051774 0.000342423 -0.000697355
0.00497725 -0.00234658 0.00351338
-0.000194478 0.00602449 -0.0152222
0.00602714 -0.00038668 -0.000499425
0.00610966 -0.000728729 0.000117958
0.00585043 -0.000375451 -0.000416256
0.00557042 -0.000560469 0.000168022
0.00600627 9.97941e-05 0.000488553
0.00579288 -0.000148236 0.000269834
0.00587304 0.000896121 0.000110696
0.00589368 -0.000517604 -0.000460853
-8.14632e-316 8.17842e-316 5.97366e-14
0.0057559 -0.00107544 0.000885686
0.00613949 -0.000433488 -0.00029782
0.00507166 -0.000394553 0.000243674
0.0046156 -0.00350886 0.00344529
0.00487856 0.00101361 -0.000120489
0.000775696 -0.000859971 0.000486569
0.000149248 0.0228461 -0.00938171
0.00560279 0.000143141 -5.93339e-05
0.00594541 0.000672303 -0.000623313
0.00543267 -0.000216319 -0.000364712
0.00568024 -0.000504746 -4.60679e-05
0.00571896 -0.00133615 -2.06373e-05
0.00481523 -0.00153224 0.000776693
0.00604562 0.000191855 -9.1224e-05
0.00585537 0.000374957 -3.82694e-05
0.00607566 0.000475477 -8.66184e-05
0.00584537 1.30561e-05 9.20771e-05
0.00597478 -7.00207e-05 0.000302474
0.00727264 -0.00293959 -0.00165899
0.00606905 0.000403593 0.000723366
0.000812952 0.00465669 0.0225277
0.00712194 -0.00143872 0.00809015
0.00570079 -0.000304282 0.000331921
0.00587306 0.00116834 5.73705e-05
0.00593105 -0.000158198 -0.000879866
0.000424217 -0.00628115 0.00138556
-0.000335403 -0.00138459 0.00355045
-0.000360232 -0.00067209 0.000452762
0.00159607 0.00353676 -0.0109919
0.00562461 -0.000630751 0.000203129
0.005339 0.000439699 0.00366313
0.00551479 -0.000720449 0.000114463
0.00540761 -0.000883367 5.60828e-05
0.00454425 -0.00348467 0.00343236
0.00587263 9.43717e-05 -0.00105105
0.00623117 -0.000136671 0.000806236
-1.11205e-05 1.78625e-05 -3.72387e-05
0.00591631 -0.000101264 -9.5821e-05
0.00602677 3.62318e-05 -0.00054911
0.00610446 -0.000605955 -0.000334566
0.00572667 -0.00106913 0.000890498
0.00576449 -0.0001726 0.000500976
0.0054111 0.000501779 8.94149e-05
0.0059568 0.000207577 -0.000442336
0.00885152 0.0018829 0.00504398
0.00570883 -0.000763837 0.000798262
6.09164e-05 0.0220003 -0.0118675
0.013125 0.00544454 -0.0192348
0.0091046 -0.00155184 -0.00068933
0.0026967 -0.00662399 0.0065437
0.00609422 -0.000207 -0.000812939
0.003893 -0.00296677 0.00883539
0.0016172 0.0151294 0.0136337
-4.42145e-06 1.54235e-05 -5.13164e-06
0.00539752 -0.000876268 -0.000378135
0.00395113 -0.0063909 0.00707312
0.00572328 -6.30095e-06 0.000320963
0.00373721 -0.0040049 -0.0195882
-0.000232443 -0.017161 0.00578209
0.00606583 -6.03015e-05 -0.000875731
0.00716534 -0.00207901 0.00927467
0.00568165 -0.00261407 -0.00050736
0.00600165 0.000238883 0.000150427
0.00608923 0.000326403 -0.000357542
0.00587601 -0.00018559 2.0085e-05
0.00614045 -0.000200936 -0.000736095
0.0060376 -8.16032e-05 0.000310534
0.00538369 0.000214059 0.00319078
0.00594969 -5.08733e-05 9.88879e-05
0.00457556 -0.00166214 0.000893025
0.0028317 -0.00380149 0.00721102
0.00572434 0.000281853 -0.000931565
0.0313371 0.0175051 -0.0209406
-0.00214328 -0.00338064 0.000906766
-0.000969355 -0.00230198 0.000665301
0.00568475 -0.000822912 2.7514e-05
0.0060402 -0.000176075 0.000531486
0.00535334 0.00178745 0.00196169
0.00541396 -0.00026604 -0.00063685
0.00584907 -4.67849e-05 0.000286548
0.00508496 -0.00141248 0.000882058
0.00608599 -0.000662112 0.000215476
0.013519 -0.000239239 0.00671992
0.00597513 -0.000751779 9.06332e-05
0.00303524 -0.00448308 0.00163362
0.00197779 0.0089505 -0.00227474
0.00790524 0.0019894 0.00870994
-0.000741396 -0.00998178 0.00829352
0.00489693 -0.000174946 0.00325785
0.00459172 0.00261185 -0.000707009
0.00484706 -0.00460875 0.00179449
0.00692883 0.000308485 -0.0005141
-0.000289562 0.00520387 -0.0149096
0.000702919 -0.00261552 0.000865411
-0.00159055 -0.00106241 0.000169731
0.00576917 0.000100744 0.000485623
0.000122482 0.0627752 -0.0760244
0.000139869 -0.00571405 0.0054919
0.00491596 -0.00336342 0.00138962
0.00127573 -0.00823049 0.00275281
0.0313106 0.0223908 -0.0342664
0.00125488 -0.0149838 0.0125489
0.00387658 0.00740567 -0.0551931
0.00582339 -0.00156359 0.00079423
0.000723819 -0.00110389 0.00264473
0.00118391 0.0155279 0.0130868
0.00611829 0.000607886 -0.000599588
0.00624727 -0.002405 -0.000517891
0.00598469 -0.000205397 -0.000778304
0.00776156 -0.00100186 0.000316658
-0.0184196 -0.00651518 -0.0156326
-0.000215771 -0.00858528 0.0222684
0.00586612 -0.000217578 0.00062522
0.00491004 -0.00455774 -0.0018328
0.00562782 2.66455e-05 -0.000463686
-0.000146609 -0.0004403 -0.000169496
9.40372e-05 0.00021138 0.0249292
0.00422397 -0.00216003 0.00846332
0.0053026 -0.00226865 0.00120769
0.00465015 0.00839085 -0.0136293
0.00522759 -0.000852724 -0.000342067
0.00343222 0.00463212 0.00830556
0.00579875 0.000290433 0.000362592
0.0157235 0.00824873 0.0071171
0.00653126 0.000150123 0.00103044
0.00162231 -0.00583949 0.0168025
0.00377723 -0.00226976 0.000974515
0.0116277 0.00101243 0.00485237
0.00143109 -0.0055751 0.00185229
0.00753447 0.00112711 -0.000561142
-0.00189855 -0.00781477 0.0215883
-4.59413e-05 -0.00266243 0.00165006
0.00686566 0.000557346 0.00025849
0.0010582 0.0111521 0.0185236
0.0118448 -0.0105049 -0.00807693
0.0073147 -0.00080122 0.00059584
0.00556897 -0.00135476 -0.000263904
0.00458877 -0.00365888 0.00101425
0.00520426 -0.00288834 -0.000506211
0.0119506 -0.000222251 0.00420665
0.0481531 0.0229628 0.0130192
0.00100247 -0.00700904 0.0213809
0.00563039 -0.000576831 0.000168402
0.000459733 -0.00294944 0.00106267
0.00925833 -0.00135223 0.00205882
0.00420036 -0.00557049 0.00750819
-0.00899484 -0.0146666 0.00851098
0.00109767 0.00825755 -0.00837845
0.00605042 -0.00093269 -1.69396e-05
0.00552974 -0.00053333 0.00024895
0.00593598 -0.000216834 0.000356619
0.000207886 0.0128335 0.0195607
0.00302546 -0.00180853 0.000965581
0.000140234 -0.00809042 0.0228205
-0.00256306 0.0121726 -0.0311776
0.00329457 -0.00270749 0.0010824
0.000266088 0.0221505 0.00972377
0.00895225 -0.0103728 -0.00702052
0.00323991 -0.00279934 0.00953163
0.00534989 -0.00175338 0.00257853
-0.000168148 -0.00630424 0.0230514
0.00390794 -0.00380805 0.00838671
0.00392088 1.6029e-05 0.0104038
0.0058259 0.00038837 -0.000151888
0.0107337 0.000110793 0.00585378
0.011419 0.000376065 0.011277
0.00384976 -0.000793078 0.000433616
0.000983003 -0.0111655 0.0171742
4.75803e-05 -0.00320565 0.0240692
0.00507299 -0.0029046 0.00370884
0.00590597 -0.00013968 -0.000217965
0.0056714 -0.000349428 0.000537455
0.020016 -0.0117688 -0.0232447
0.00564227 -0.00152078 -0.000108182
0.00659313 -2.14009e-05 0.000298626
0.00395199 -0.000574903 0.0107374
0.00411996 -0.00105109 0.0104581
0.00369352 0.00329774 0.00889921
0.0061808 -0.00107816 -0.000382913
0.000230192 0.0242234 -0.00246756
0.00377108 -0.000630623 0.0103014
0.00435227 -0.000879575 0.0106395
0.00528294 -0.00135687 0.000681268
0.00586768 0.000714829 -0.000215565
0.0028706 -0.00392936 0.0105085
0.00648939 -0.000771239 0.00134608
0.010128 0.000203176 0.00519919
0.00648272 -8.98231e-05 0.000452951
0.00466928 0.00293521 -0.000821807
0.00687368 -0.00167073 0.000640382
0.00559147 -0.00135256 -4.57695e-05
0.00563093 -0.00165825 0.000534094
0.000283718 0.023789 0.00507721
0.00498724 0.00190143 -0.000446687
0.000263329 0.0229262 0.00745743
0.000573189 0.0198231 0.011145
0.000105643 0.00193085 -0.000969507
0.00380426 -0.00195554 0.00144017
-0.0024863 0.00454843 -0.00496442
0.000688512 0.0183853 0.0130705
0.00373134 0.000667422 -4.23747e-05
0.00108337 -0.0115084 0.0175414
0.00311613 -0.00390915 0.010044
-0.00489546 -0.00415407 -0.027871
0.00254166 0.00871006 -0.00832072
0.00480945 0.000527703 0.00493437
0.00591139 0.00233829 -0.000577539
0.00468277 0.00139072 -0.0141779
0.00509779 -0.00297185 -0.000510906
0.00493593 -0.00244746 -0.000454645
0.00603251 -0.00250408 0.00103318
0.00449022 0.00143652 -0.000306912
0.00716302 -0.00273158 0.00395344
0.02078 0.133893 -0.0330891
0.00559552 -0.00135131 0.00062806
0.00359991 0.000596199 0.0103809
0.00375775 -0.00164213 0.00950789
0.00576469 -0.00146094 0.000742919
0.00517455 0.00136479 -0.000221965
0.00527913 -0.00335082 0.00152308
0.00548387 -0.00266252 0.00372296
0.00116307 -0.00481363 0.00523588
0.00428496 -0.0043589 0.00814639
0.00837955 -0.00127048 0.00188503
0.0047779 -0.00191643 0.000908562
0.00559113 -0.00507242 0.0171023
0.00591183 -5.82982e-05 0.00029462
0.000197764 0.0238497 -0.00538857
0.00125939 0.0333104 -0.00781494
0.00459987 -0.00174598 0.00250075
0.00377828 0.00476216 0.0085403
0.00588352 0.000502744 -0.000210357
0.00435641 -0.00510527 0.00781636
0.000220396 0.00400135 -0.00200917
0.00442635 -0.000419981 0.000811617
0.00764771 -0.00291472 0.00411968
0.00562436 -0.000885084 0.00146815
1.28931e-05 1.55412e-05 -1.46651e-05
0.000733797 0.0077228 0.0201985
0.00545094 -0.000455013 0.000828939
0.00416929 0.0021993 -0.000581505
0.00568842 -0.00179789 0.000858872
0.00356972 0.00173977 0.00935877
-8.90691e-05 -0.00384163 0.00338555
0.00382784 -0.000478177 0.0103032
0.00185211 -0.000566184 -0.0243264
0.0059702 -0.000409983 0.000902271

VECTORS force float
-1.34432e-10 -1.72143e-08 1.61436e-08
-1.94214e-09 2.51969e-10 -2.10827e-09
1.27719e-08 -2.80048e-09 -5.61218e-09
-4.80233e-09 -5.31917e-09 -1.19799e-08
5.38205e-09 9.89081e-09 -1.41676e-08
0.0 0.0 -9.20462e-08
-2.52775e-09 3.70963e-08 -1.70701e-08
-3.47035e-09 -6.7113e-09 -6.59872e-11
-2.65357e-08 1.61349e-08 2.93319e-08
-2.4129e-09 -1.3435e-08 -7.33482e-10
-6.94134e-09 -1.78777e-08 3.96899e-08
3.35416e-09 -1.03827e-08 1.67662e-08
3.99644e-07 -7.27823e-08 7.88963e-08
-3.55694e-08 5.55512e-08 6.65201e-08
-3.32766e-10 7.85611e-10 -1.98236e-09
2.15042e-09 -6.45742e-09 1.1131e-08
1.94929e-09 -1.63101e-08 -2.22406e-08
7.35347e-09 7.54304e-09 1.2275e-09
2.14216e-08 1.19086e-08 -8.62517e-09
-2.11743e-09 1.28566e-09 -1.13344e-08
-1.22198e-08 3.13117e-08 -5.4318e-08
-5.16354e-08 1.34464e-08 -2.50234e-08
2.02087e-09 -6.49086e-09 1.77738e-09
1.15174e-09 -3.32017e-08 -8.17291e-09
-3.50917e-09 -2.22171e-10 -3.64647e-11
6.61186e-09 5.19041e-09 -6.3403e-09
1.71913e-08 -2.96464e-09 1.09431e-09
5.07497e-09 6.36397e-09 -6.79619e-10
-1.8412e-08 1.95798e-08 -3.51652e-08
1.22436e-08 1.7335e-08 1.68734e-08
2.15261e-09 5.47847e-09 5.28883e-10
-1.14198e-08 5.96955e-07 -2.36856e-07
4.03197e-08 3.71789e-09 1.68393e-09
-4.39302e-09 -5.56891e-09 -4.04066e-10
8.90098e-09 4.78671e-08 -1.69521e-08
2.41601e-09 -9.40514e-09 -1.0273e-08
-5.17659e-09 6.41538e-08 9.0265e-09
3.38564e-08 1.67851e-07 9.03512e-08
-5.51311e-08 4.30991e-09 1.20936e-08
5.01314e-08 2.16491e-08 3.65795e-09
2.34311e-09 2.37303e-08 -1.3142e-08
-1.56383e-08 2.2258e-08 8.33976e-09
2.85994e-08 -2.4495e-08 -1.22178e-08
-4.99381e-09 -5.057e-09 -1.42141e-08
1.64933e-08 -1.9769e-09 1.08633e-08
4.98274e-09 5.10938e-09 -1.4235e-08
0.0 0.0 0.0
-2.81485e-09 2.71869e-09 -2.7787e-09
-2.08972e-08 -1.38247e-08 -8.14171e-09
-1.38782e-08 7.5013e-09 3.79152e-09
9.19116e-10 4.40265e-09 -1.43405e-09
-1.62534e-08 -9.37636e-09 -1.69216e-09
-9.35286e-09 -4.61989e-08 -1.34634e-07
-5.86368e-11 -2.76875e-10 -1.39516e-09
-7.67416e-09 -1.11154e-09 2.96907e-10
-2.56076e-08 1.24175e-08 -9.4121e-09
1.62605e-08 -1.07743e-09 -6.0122e-09
-1.65016e-08 1.03602e-08 2.21577e-08
2.94989e-09 2.92937e-09 5.69223e-09
-2.36015e-08 2.53194e-08 -1.47163e-08
2.34685e-08 -2.45791e-09 3.41781e-09
1.87448e-08 -1.20911e-08 1.58808e-09
2.15559e-08 1.47802e-08 -1.06143e-08
2.21616e-09 -1.25831e-08 -6.04014e-10
1.3855e-11 1.7334e-11 -1.10355e-11
-1.98825e-08 -5.23505e-09 -4.27172e-09
-5.12238e-09 -4.75444e-09 -2.337e-09
8.65166e-09 3.93026e-09 -8.65647e-08
9.76914e-07 1.25901e-07 -1.31986e-08
-2.67933e-08 2.42987e-08 -1.39249e-08
2.21519e-08 -4.69578e-09 1.81141e-08
-2.711e-09 1.04387e-08 -2.48313e-08
-1.99561e-08 1.95505e-08 -9.44961e-08
-2.19878e-07 -5.18989e-07 1.49868e-07
1.51058e-08 1.01135e-07 -3.3847e-08
0.0 0.0 -9.20462e-08
-4.46522e-09 -1.93996e-08 7.15468e-09
-7.75534e-09 4.88328e-09 1.72242e-08
2.50677e-08 8.58853e-09 7.17502e-09
-1.87687e-08 2.04725e-08 -6.827e-08
-2.74782e-09 -5.0164e-11 -1.91715e-10
1.86358e-08 -4.72253e-08 5.95964e-08
5.12835e-09 -2.83923e-08 3.74254e-08
-6.43085e-09 8.9951e-09 -3.5225e-09
-9.41628e-09 1.92304e-08 1.11497e-09
2.75466e-08 -1.29142e-08 1.3903e-08
1.07739e-08 -5.54133e-09 8.03348e-09
3.64547e-09 1.42147e-09 -2.79507e-09
-1.49799e-08 1.32776e-08 1.06395e-08
9.022e-09 -1.16498e-08 -1.95323e-08
-3.93159e-08 2.0456e-08 3.97482e-08
7.11946e-08 8.63875e-08 4.16684e-08
2.07887e-08 -2.24919e-08 1.65926e-08
-3.72035e-10 1.10935e-09 -2.16928e-09
0.0 0.0 -9.20462e-08
2.60691e-07 7.10629e-07 1.50933e-06
-3.4308e-09 -1.28969e-08 1.16419e-08
-1.69005e-08 9.20071e-09 -1.457e-08
-2.69365e-08 -1.43189e-07 1.64009e-07
-1.62239e-09 -4.26363e-08 -3.47553e-08
-4.55412e-09 9.60137e-09 -3.31648e-09
-1.95159e-08 -1.30369e-08 -1.22716e-08
2.38554e-07 -2.14322e-07 1.13304e-06
1.41229e-08 9.00585e-09 -1.74194e-08
-3.01903e-09 -3.9368e-09 -7.12996e-08
-3.45166e-08 9.14445e-09 -1.15209e-08
-3.59194e-08 -2.30154e-08 3.89125e-08
-4.02613e-08 -2.05514e-07 4.00155e-07
-8.38374e-10 9.05569e-09 7.75228e-10
1.91071e-08 6.01432e-09 9.9885e-09
-1.66026e-08 2.76134e-08 -1.23766e-08
-1.70952e-08 -7.77584e-09 1.36958e-08
2.90535e-08 -1.5743e-08 -2.03755e-09
-7.0632e-12 1.94848e-11 2.54032e-11
-7.50193e-09 1.9136e-09 1.48625e-08
-5.17252e-09 2.4012e-08 2.24435e-08
2.84801e-08 3.73004e-08 -4.45775e-09
5.05601e-08 -2.46208e-07 4.97091e-07
-5.26421e-08 -8.31496e-09 4.16752e-08
0.0 0.0 -9.20462e-08
-9.06588e-08 -9.29519e-08 2.07867e-08
-7.70819e-08 -5.56887e-08 5.99293e-09
-2.6396e-08 -2.02473e-08 -1.26229e-08
2.71793e-08 2.8613e-08 -1.63855e-08
2.57515e-09 1.66666e-08 9.01246e-09
3.03277e-08 -2.04305e-08 1.12467e-08
1.02712e-10 2.55629e-12 -4.52943e-11
-2.8331e-08 2.35692e-08 -1.12195e-08
-1.40759e-08 -1.91373e-08 5.67382e-10
0.0 0.0 -9.20462e-08
-2.48224e-08 9.18784e-09 2.48542e-08
-2.75898e-08 5.69627e-08 -3.24091e-08
-1.22596e-10 -2.23352e-08 5.16307e-09
1.23291e-07 1.08966e-07 -7.19416e-08
1.31573e-07 -3.06596e-07 8.87804e-07
-3.97123e-09 -2.34382e-10 3.8599e-09
-2.84334e-08 4.79406e-09 -3.91476e-09
-5.70321e-09 1.60729e-08 -1.3047e-08
-2.90287e-08 2.45828e-08 -7.88475e-09
0.0 0.0 -9.20462e-08
-3.25318e-09 3.29336e-08 -1.31142e-08
-3.83263e-08 7.4279e-08 -2.58547e-08
-2.42173e-09 2.47651e-08 1.27224e-09
-8.92557e-11 2.19485e-08 -4.14304e-08
6.61236e-08 1.2403e-07 -4.09804e-08
7.58815e-09 3.59287e-08 -9.14992e-09
-5.23091e-09 6.66208e-08 -1.42831e-08
0.0 0.0 -9.20462e-08
-3.12436e-09 -1.17606e-08 8.61276e-09
0.0 0.0 -9.20462e-08
1.99627e-09 7.12066e-09 -7.64305e-09
5.54398e-10 -9.97189e-10 2.43588e-09
3.66547e-09 -1.12597e-08 -1.06642e-08
5.3327e-08 -5.32373e-08 3.69956e-08
-6.17498e-09 6.42235e-09 -8.32939e-10
8.20609e-09 -4.18062e-09 6.16116e-09
-2.34609e-08 2.11768e-08 -2.3708e-08
0.0 0.0 -9.20462e-08
1.52462e-08 -2.32458e-07 2.90195e-07
-3.25022e-08 2.83777e-08 -2.61012e-08
2.69464e-11 -5.84026e-11 -1.74658e-11
-9.26719e-09 3.15515e-10 -4.55668e-09
5.23898e-09 1.47013e-08 -2.11505e-09
-3.20597e-08 -1.909e-07 -1.73894e-08
1.18131e-07 -3.90554e-08 4.07144e-08
-1.05141e-08 1.534e-08 3.65236e-09
0.0 0.0 -9.20462e-08
-2.35853e-08 2.05959e-09 -1.4838e-08
-2.04384e-08 2.66622e-08 -3.3467e-08
1.77303e-08 1.61431e-08 1.41888e-08
0.0 0.0 -9.20462e-08
-1.32638e-08 -9.24753e-09 3.11961e-08
7.84967e-08 -9.90979e-08 3.30844e-07
-1.42713e-08 -5.14293e-09 -2.19671e-10
0.0 0.0 -9.20462e-08
-1.38378e-08 6.98643e-08 -9.98628e-09
1.8588e-08 -2.57176e-08 -3.14072e-08
-2.19891e-07 -2.22803e-07 1.26573e-07
1.41555e-07 7.76732e-08 -4.85317e-08
-8.43664e-08 2.18329e-08 8.73676e-09
1.66536e-09 3.94343e-09 -9.68192e-10
-4.48673e-08 6.95891e-08 -8.74162e-08
4.5698e-08 2.28534e-08 -1.45138e-08
-1.1331e-08 -4.84819e-09 -1.29134e-08
-6.98092e-09 2.11341e-08 -8.46162e-08
-8.36789e-09 -6.16949e-09 -3.13747e-10
-2.48063e-07 -1.1076e-07 -4.73644e-08
0.0 0.0 -9.20462e-08
8.7647e-08 7.07373e-08 5.9612e-08
1.91562e-08 1.13774e-08 3.40939e-08
-1.80948e-08 6.88647e-08 -1.37998e-08
2.09693e-08 -4.48937e-08 5.21345e-08
-1.38828e-08 -4.52903e-08 1.66118e-07
-7.98031e-08 1.45438e-07 -3.85929e-08
-9.80846e-10 2.81189e-08 -2.91193e-08
-3.38198e-08 -2.71611e-08 -1.88887e-08
1.15585e-08 1.911e-08 1.59042e-08
1.73194e-08 2.20468e-08 3.74055e-08
1.52525e-09 7.94353e-10 -1.93239e-09
-1.6831e-09 2.55487e-09 -7.48428e-10
-2.18006e-07 1.16202e-07 -2.73796e-07
0.0 0.0 -9.20462e-08
-1.70069e-08 8.94604e-09 -5.24356e-09
-9.25106e-12 5.77102e-10 -1.18734e-09
4.10826e-09 -1.46974e-08 -9.40476e-09
-1.0384e-08 3.21038e-08 -9.57205e-08
1.50098e-08 9.94195e-09 -1.22718e-08
5.8782e-09 -1.47305e-07 -3.16214e-07
-8.06155e-08 -1.39939e-07 2.06735e-07
-4.57942e-08 6.02645e-08 7.72471e-09
-3.90149e-09 -4.07751e-09 -1.76542e-09
-2.56881e-07 -2.85179e-07 6.84332e-07
-2.60691e-07 -7.10629e-07 -1.69342e-06
8.09723e-09 -4.23436e-09 1.58894e-09
5.0901e-08 -3.2503e-08 9.29518e-08
9.38581e-08 6.3318e-07 -3.13084e-07
2.42397e-08 -7.18666e-08 1.44104e-07
-1.88276e-08 -1.42357e-08 -3.98869e-08
2.69771e-09 -9.3596e-09 1.22125e-09
0.0 0.0 -9.20462e-08
-1.1488e-08 -7.09267e-09 -2.76396e-08
-2.57513e-08 2.50281e-08 -1.43017e-08
2.40988e-08 1.07453e-08 4.28821e-09
4.20502e-09 -3.36896e-08 1.69236e-08
-3.14847e-09 6.90845e-08 -1.64151e-08
1.46286e-08 -1.96942e-08 -2.64709e-09
1.54246e-12 -9.52119e-11 -1.34474e-09
-2.10294e-08 -2.87948e-08 2.45113e-08
-3.17375e-09 -2.10835e-08 -5.27729e-10
2.70799e-08 3.33806e-08 -2.07631e-08
-2.52562e-08 2.1234e-08 5.16564e-08
9.5713e-08 -1.3165e-07 2.83721e-07
1.43798e-08 2.28975e-08 -3.8391e-08
2.65425e-07 -4.3099e-08 2.38958e-07
-3.83158e-08 -1.65961e-08 -2.21796e-08
-4.6667e-09 3.71629e-09 -3.82485e-09
-5.82826e-08 3.12864e-09 -4.53121e-09
-2.7149e-09 -1.52606e-08 -6.041e-08
-1.00569e-08 1.89305e-08 -1.40739e-08
7.06492e-09 5.27222e-09 -4.35392e-09
-3.36588e-08 1.91152e-08 -5.67026e-09
-7.63774e-12 4.38398e-10 -1.23674e-09
-4.01909e-10 2.20149e-09 -6.5892e-11
5.50687e-12 1.00171e-10 -5.02978e-11
2.19878e-07 5.18989e-07 -3.3396e-07
3.47268e-10 2.90627e-08 -2.93334e-08
-1.08929e-10 1.00134e-09 -7.19667e-10
-1.6505e-08 1.51466e-08 -3.53193e-09
-7.42136e-08 -1.36329e-07 2.31041e-07
-3.32712e-08 -1.99689e-07 5.43131e-07
0.0 0.0 -9.20462e-08
-1.26509e-08 2.41546e-08 -2.42046e-08
0.0 0.0 -9.20462e-08
-1.20446e-08 1.45577e-08 -1.65333e-08
0.0 0.0 -9.20462e-08
-4.88066e-10 -9.12416e-09 -3.95519e-10
6.89883e-09 1.08361e-08 9.27932e-10
-4.68514e-08 -1.16405e-08 3.18907e-09
-1.65406e-08 1.80588e-08 -7.79563e-09
-5.212e-08 3.36135e-08 -3.46141e-08
2.57696e-09 -2.28829e-08 5.00062e-09
6.21395e-09 1.52834e-08 -1.42728e-08
-1.92308e-09 -1.13957e-08 1.82476e-08
-4.08387e-08 -2.10672e-07 2.72274e-08
-3.10584e-08 2.04849e-08 -1.03442e-08
1.1525e-08 -1.96783e-08 1.3158e-08
-1.22624e-08 -2.47065e-09 -1.54017e-09
-4.91067e-08 2.25313e-08 -3.1683e-08
2.72901e-07 -5.94927e-07 3.4277e-06
-1.27461e-07 -1.08058e-07 2.22117e-07
-6.01802e-08 -1.69492e-08 1.90319e-08
-4.79441e-08 4.3004e-08 -1.65055e-08
-1.04042e-08 3.27393e-08 -9.58294e-08
8.69044e-11 1.4433e-11 1.42895e-11
-8.25589e-12 -2.59419e-10 -1.32712e-09
7.58309e-09 -2.34607e-08 4.60065e-09
2.38154e-09 6.60092e-09 -7.66213e-09
2.52927e-08 5.58288e-09 -5.63146e-08
-4.57845e-08 1.59127e-08 1.53257e-08
-1.30804e-07 -5.3599e-08 2.10952e-07
-7.64284e-12 1.00892e-10 -5.02987e-11
-4.65819e-09 3.73124e-08 -5.64325e-08
2.89893e-08 6.29295e-08 -7.74159e-08
-1.60123e-08 9.72766e-10 6.34065e-09
-3.30561e-09 -7.26756e-09 3.81041e-09
-1.48508e-08 -6.44603e-08 -1.05368e-08
1.84868e-08 3.38532e-09 -1.40885e-08
-2.91631e-08 -3.53524e-11 -1.92981e-09
3.62877e-09 5.61933e-09 -2.63501e-09
-8.13564e-09 9.71516e-09 1.32624e-08
4.23045e-07 2.0702e-07 2.24289e-06
-7.40877e-08 -8.19944e-08 -1.31535e-08
0.0 0.0 -9.20462e-08
5.24218e-08 1.63051e-08 -1.72204e-08
