# vtk DataFile Version 3.0
LIGGGHTS particles timestep 5600000
ASCII
DATASET POLYDATA
POINTS 202 float
0.0212385 0.0150269 0.00996877
0.0153153 0.0208542 0.0164116
0.0208971 0.0143371 0.0144009
0.0304528 0.0225467 0.0139801
0.0215795 0.0147675 0.0127227
0.0256191 0.0183354 0.015905
0.0281744 0.0181739 0.00728639
0.0193086 0.0201496 0.0162058
0.0188489 0.0221354 0.0147139
0.0199717 0.0242374 0.0132416
0.0119833 0.00845317 0.0362251
0.0204538 0.00619956 0.0363131
0.016361 0.0230774 0.0148722
0.0262613 0.0156821 0.0142095
0.0297164 0.0233327 0.0107396
0.0288645 0.0210651 0.00769134
0.020843 0.0146396 0.0120589
0.0166618 0.0263065 0.0229682
0.0224633 0.0151418 0.0151712
0.0199972 0.0232147 0.0148611
0.032281 0.0212958 0.00630102
0.0193953 0.0222013 0.0185578
0.0187901 0.0224247 0.0176154
0.028648 0.0200268 0.00731051
0.014436 0.0224813 0.0156702
0.00328607 0.0109634 0.0435188
0.0209391 0.0240219 0.0130986
0.0311252 0.0201778 0.0156245
0.0194654 0.0190876 0.0159867
0.0300227 0.0233497 0.0119382
0.0192703 0.0240469 0.0144365
0.151427 0.0197366 0.00603425
0.0131769 0.0203378 0.0157656
0.0193994 0.0141771 0.0139344
0.0182527 0.0225709 0.0159931
0.0236634 0.0222295 0.00877323
0.0211171 0.0201995 0.0158092
0.0167309 0.0147315 0.0144669
0.0162971 0.0237244 0.0139111
0.0209599 0.0236816 0.0147051
0.0159311 0.0187999 0.0167318
0.0173221 0.0229831 0.0165249
0.0233458 0.0226866 0.00925903
0.0355669 0.0190259 0.00580114
0.0275174 0.0157378 0.00876292
0.0251589 0.02186 0.0166813
0.0176087 0.0151049 0.0149799
0.0209678 0.0214494 0.0169666
0.0238232 0.0163487 0.0160069
0.00955374 0.0042762 0.0435188
0.021304 0.0155455 0.0142503
0.0231719 0.0156806 0.0156307
0.0217925 0.0238399 0.0137394
0.0270173 -0.009792 0.0522606
0.0198858 0.0230806 0.0185901
0.015932 0.0159655 0.0147106
0.0211952 0.0141801 0.0134587
0.0204343 0.0148036 0.0151554
0.0153157 0.0231042 0.0177461
0.0178761 0.0244018 0.0174795
0.0194189 0.0231525 0.0133592
0.0181424 0.0233201 0.0109485
0.0252777 0.0212016 0.0162012
0.0257409 0.0210406 0.01692
0.0159362 0.0232156 0.016922
0.019669 0.0180874 0.0158456
0.0219423 0.0149947 0.0160116
0.0251449 0.0209044 0.0154948
0.0180845 0.0180682 0.0167369
0.0155732 0.0173771 0.0189142
0.027771 0.0163819 0.00810377
0.0274425 0.0148228 0.0120246
0.0161161 0.0209149 0.0171882
0.0221145 0.015941 0.0146819
0.0253517 0.0170228 0.0164067
0.0144639 0.0156349 0.0143549
0.0295046 0.0230068 0.00969891
0.019163 0.0162312 0.0159796
0.0185942 0.0111932 0.0246551
0.0292845 0.0224302 0.00878541
0.019833 0.0216003 0.0152834
0.028058 0.0154056 0.00919759
0.0290501 0.02176 0.00813315
0.0193544 0.0215007 0.0165298
0.0248122 0.0218575 0.0158725
0.0231464 0.0108804 0.0280988
0.0250725 0.0201827 0.0157267
0.021911 0.0161194 0.0156446
0.0248315 0.0162476 0.0159593
0.0302468 0.0230634 0.0130352
0.0230556 0.0215973 0.00828938
0.0145421 0.0208853 0.0155529
0.0215915 0.0176239 0.0157302
0.0202913 0.020285 0.0169854
0.0142323 0.0224402 0.0143999
0.023574 0.0150758 0.0149432
0.0151599 0.0152262 0.0137646
0.0260019 0.0187665 0.0169592
0.0172652 0.024052 0.013098
0.0175664 0.0156676 0.0164691
0.017097 0.0242948 0.014048
0.0228535 0.0146717 0.0143796
0.0180491 0.0242902 0.0137406
0.0235234 0.0230872 0.0098985
0.018905 0.0231489 0.0147085
0.0221767 0.0182681 0.00726483
0.0166497 0.0220485 0.0158102
0.0209137 0.0211277 0.0154926
0.013392 0.0212335 0.0153766
0.0211035 0.0144571 0.019377
0.0176467 0.0141022 0.0132616
0.0189699 0.0242916 0.0133396
0.0177494 0.023509 0.02024
0.17926 0.0199157 0.00578127
0.0180587 0.0239049 0.0147055
0.0204048 0.0223111 0.0145728
0.0182511 0.0143204 0.0153437
0.0203683 0.0151944 0.0142203
0.0184124 0.0138999 0.0139467
0.0215661 0.0158359 0.0165394
0.0147076 0.0163406 0.0150244
0.0162954 0.0222962 0.0167613
0.0173588 0.0147595 0.0158844
0.0238601 0.020058 0.0174819
0.0279767 0.0171768 0.00758848
0.0223737 0.0149751 0.0132935
0.0245124 0.0222767 0.0150992
0.0251818 0.0203309 0.0166425
0.0200395 0.014498 0.0160221
0.0211669 0.0166628 0.0152561
0.016777 0.0197685 0.0196325
0.0181654 0.02347 0.012142
0.0164128 0.0150523 0.0153589
0.0191694 0.0236883 0.0124768
0.0155779 0.0217871 0.0159605
0.0226433 0.0235502 0.0142177
0.021876 0.0228532 0.015209
0.0245534 0.0181126 0.0167037
0.0205908 0.0177083 0.0157449
0.0219191 0.0145009 0.0140689
0.0204238 0.0187363 0.0159446
0.016516 0.0211804 0.016298
0.0187717 0.023856 0.0170379
0.0180767 0.0205842 0.0165445
0.0257597 0.0177975 0.0168897
0.0240358 0.0143002 0.0211514
0.0189965 0.0245486 0.0179731
0.0169607 0.0235627 0.0157951
0.0178627 0.0214545 0.0170064
0.0185728 0.0154562 0.0221138
0.02561 0.0193552 0.0159445
0.0192665 0.0136112 0.0174568
0.0198322 0.015716 0.0154442
0.0247787 0.0215398 0.0150951
0.0265792 0.015009 0.0127958
0.0202447 0.019718 0.0160373
0.0166953 0.0238593 0.0167715
0.0272395 0.0150345 0.0100002
0.0267379 0.0147787 0.0119119
0.0158838 0.0145656 0.0139626
0.017606 0.0217563 0.0160404
0.0161999 0.0229382 0.0159911
0.0205217 0.0144278 0.0178567
0.00655484 0.0301156 0.0456213
0.0185861 0.0147248 0.0144928
0.0145208 0.0177756 0.0230642
0.0169552 0.0240634 0.0178037
0.0225616 0.0147152 0.0179818
0.0216134 0.0181231 0.0166142
0.0206158 0.0148864 0.0130533
0.0142217 0.0217045 0.0150771
0.0205784 0.0160122 0.014756
0.0259179 0.0154104 0.0403785
0.021251 0.0147908 0.0167055
0.017705 0.0239851 0.0165831
0.0213835 0.0190186 0.0159456
0.0259915 0.0200848 0.0171242
0.0188533 0.00939825 0.0314238
0.0258595 0.0204243 0.0156139
0.0166725 0.014309 0.0133783
0.01551 0.0226293 0.0153349
0.0121557 0.0200931 0.0239018
0.0147003 0.0231281 0.0149546
0.0945306 0.0198379 0.00577278
0.0215077 0.0148766 0.0149812
0.0206749 0.0234925 0.0162703
0.0170644 0.0157695 0.0156059
0.0199822 0.0167336 0.0153048
0.0148766 0.0198312 0.0257511
0.0176621 0.0145233 0.0141683
0.0190997 0.0206667 0.0179818
0.0179491 0.0234521 0.0156135
0.0185977 0.0140007 0.0129693
0.0270193 0.014768 0.0110018
0.0195112 0.0145795 0.014843
0.0201329 0.0207124 0.0159811
0.0195977 0.014 0.0129705
0.0155165 0.0234054 0.0144481
0.0242345 0.0156121 0.0154689
0.0172116 0.0234158 0.0144683
0.0283999 0.019076 0.00717847
0.0172814 0.0227054 0.015374

VERTICES 202 404
1 0
1 1
1 2
1 3
1 4
1 5
1 6
1 7
1 8
1 9
1 10
1 11
1 12
1 13
1 14
1 15
1 16
1 17
1 18
1 19
1 20
1 21
1 22
1 23
1 24
1 25
1 26
1 27
1 28
1 29
1 30
1 31
1 32
1 33
1 34
1 35
1 36
1 37
1 38
1 39
1 40
1 41
1 42
1 43
1 44
1 45
1 46
1 47
1 48
1 49
1 50
1 51
1 52
1 53
1 54
1 55
1 56
1 57
1 58
1 59
1 60
1 61
1 62
1 63
1 64
1 65
1 66
1 67
1 68
1 69
1 70
1 71
1 72
1 73
1 74
1 75
1 76
1 77
1 78
1 79
1 80
1 81
1 82
1 83
1 84
1 85
1 86
1 87
1 88
1 89
1 90
1 91
1 92
1 93
1 94
1 95
1 96
1 97
1 98
1 99
1 100
1 101
1 102
1 103
1 104
1 105
1 106
1 107
1 108
1 109
1 110
1 111
1 112
1 113
1 114
1 115
1 116
1 117
1 118
1 119
1 120
1 121
1 122
1 123
1 124
1 125
1 126
1 127
1 128
1 129
1 130
1 131
1 132
1 133
1 134
1 135
1 136
1 137
1 138
1 139
1 140
1 141
1 142
1 143
1 144
1 145
1 146
1 147
1 148
1 149
1 150
1 151
1 152
1 153
1 154
1 155
1 156
1 157
1 158
1 159
1 160
1 161
1 162
1 163
1 164
1 165
1 166
1 167
1 168
1 169
1 170
1 171
1 172
1 173
1 174
1 175
1 176
1 177
1 178
1 179
1 180
1 181
1 182
1 183
1 184
1 185
1 186
1 187
1 188
1 189
1 190
1 191
1 192
1 193
1 194
1 195
1 196
1 197
1 198
1 199
1 200
1 201

POINT_DATA 202
SCALARS id int 1
LOOKUP_TABLE default
1
2
3
5
8
9
10
11
12
13
16
17
18
19
20
21
22
23
26
27
28
30
31
32
33
35
36
37
41
42
43
45
47
48
49
52
53
54
55
57
58
59
60
61
63
64
65
68
69
70
71
72
73
74
76
77
80
84
86
87
88
89
90
95
96
97
99
103
105
106
107
111
112
113
115
117
118
119
120
121
123
124
125
126
127
130
131
132
133
134
137
141
143
144
145
146
147
148
149
150
151
152
155
156
157
160
161
162
163
164
169
170
171
172
174
175
176
177
179
180
181
182
183
185
186
187
188
189
190
192
193
194
196
198
199
201
203
204
205
206
208
209
211
212
213
216
217
220
221
222
223
224
225
226
227
228
229
232
234
235
238
239
241
242
243
244
245
246
249
250
252
253
254
258
259
262
264
265
266
267
268
269
270
271
274
275
276
278
279
283
284
286
288
289
290
291
292
294
295
296
299
300

SCALARS type int 1
LOOKUP_TABLE default
1
1
1
1
1
1
1
1
1
1
1
1
1
1
1
1
1
1
1
1
1
1
1
1
1
1
1
1
1
1
1
1
1
1
1
1
1
1
1
1
1
1
1
1
1
1
1
1
1
1
1
1
1
1
1
1
1
1
1
1
1
1
1
1
1
1
1
1
1
1
1
1
1
1
1
1
1
1
1
1
1
1
1
1
1
1
1
1
1
1
1
1
1
1
1
1
1
1
1
1
1
1
1
1
1
1
1
1
1
1
1
1
1
1
1
1
1
1
1
1
1
1
1
1
1
1
1
1
1
1
1
1
1
1
1
1
1
1
1
1
1
1
1
1
1
1
1
1
1
1
1
1
1
1
1
1
1
1
1
1
1
1
1
1
1
1
1
1
1
1
1
1
1
1
1
1
1
1
1
1
1
1
1
1
1
1
1
1
1
1
1
1
1
1
1
1
1
1
1
1
1
1

SCALARS radius float 1
LOOKUP_TABLE default
0.0005
0.0005
0.0005
0.0005
0.0005
0.0005
0.0005
0.0005
0.0005
0.0005
0.0005
0.0005
0.0005
0.0005
0.0005
0.0005
0.0005
0.0005
0.0005
0.0005
0.0005
0.0005
0.0005
0.0005
0.0005
0.0005
0.0005
0.0005
0.0005
0.0005
0.0005
0.0005
0.0005
0.0005
0.0005
0.0005
0.0005
0.0005
0.0005
0.0005
0.0005
0.0005
0.0005
0.0005
0.0005
0.0005
0.0005
0.0005
0.0005
0.0005
0.0005
0.0005
0.0005
0.0005
0.0005
0.0005
0.0005
0.0005
0.0005
0.0005
0.0005
0.0005
0.0005
0.0005
0.0005
0.0005
0.0005
0.0005
0.0005
0.0005
0.0005
0.0005
0.0005
0.0005
0.0005
0.0005
0.0005
0.0005
0.0005
0.0005
0.0005
0.0005
0.0005
0.0005
0.0005
0.0005
0.0005
0.0005
0.0005
0.0005
0.0005
0.0005
0.0005
0.0005
0.0005
0.0005
0.0005
0.0005
0.0005
0.0005
0.0005
0.0005
0.0005
0.0005
0.0005
0.0005
0.0005
0.0005
0.0005
0.0005
0.0005
0.0005
0.0005
0.0005
0.0005
0.0005
0.0005
0.0005
0.0005
0.0005
0.0005
0.0005
0.0005
0.0005
0.0005
0.0005
0.0005
0.0005
0.0005
0.0005
0.0005
0.0005
0.0005
0.0005
0.0005
0.0005
0.0005
0.0005
0.0005
0.0005
0.0005
0.0005
0.0005
0.0005
0.0005
0.0005
0.0005
0.0005
0.0005
0.0005
0.0005
0.0005
0.0005
0.0005
0.0005
0.0005
0.0005
0.0005
0.0005
0.0005
0.0005
0.0005
0.0005
0.0005
0.0005
0.0005
0.0005
0.0005
0.0005
0.0005
0.0005
0.0005
0.0005
0.0005
0.0005
0.0005
0.0005
0.0005
0.0005
0.0005
0.0005
0.0005
0.0005
0.0005
0.0005
0.0005
0.0005
0.0005
0.0005
0.0005
0.0005
0.0005
0.0005
0.0005
0.0005
0.0005
0.0005
0.0005
0.0005
0.0005
0.0005
0.0005

SCALARS mass float 1
LOOKUP_TABLE default
1.46608e-07
1.46608e-07
1.46608e-07
1.46608e-07
1.46608e-07
1.46608e-07
1.46608e-07
1.46608e-07
1.46608e-07
1.46608e-07
1.46608e-07
1.46608e-07
1.46608e-07
1.46608e-07
1.46608e-07
1.46608e-07
1.46608e-07
1.46608e-07
1.46608e-07
1.46608e-07
1.46608e-07
1.46608e-07
1.46608e-07
1.46608e-07
1.46608e-07
1.46608e-07
1.46608e-07
1.46608e-07
1.46608e-07
1.46608e-07
1.46608e-07
1.46608e-07
1.46608e-07
1.46608e-07
1.46608e-07
1.46608e-07
1.46608e-07
1.46608e-07
1.46608e-07
1.46608e-07
1.46608e-07
1.46608e-07
1.46608e-07
1.46608e-07
1.46608e-07
1.46608e-07
1.46608e-07
1.46608e-07
1.46608e-07
1.46608e-07
1.46608e-07
1.46608e-07
1.46608e-07
1.46608e-07
1.46608e-07
1.46608e-07
1.46608e-07
1.46608e-07
1.46608e-07
1.46608e-07
1.46608e-07
1.46608e-07
1.46608e-07
1.46608e-07
1.46608e-07
1.46608e-07
1.46608e-07
1.46608e-07
1.46608e-07
1.46608e-07
1.46608e-07
1.46608e-07
1.46608e-07
1.46608e-07
1.46608e-07
1.46608e-07
1.46608e-07
1.46608e-07
1.46608e-07
1.46608e-07
1.46608e-07
1.46608e-07
1.46608e-07
1.46608e-07
1.46608e-07
1.46608e-07
1.46608e-07
1.46608e-07
1.46608e-07
1.46608e-07
1.46608e-07
1.46608e-07
1.46608e-07
1.46608e-07
1.46608e-07
1.46608e-07
1.46608e-07
1.46608e-07
1.46608e-07
1.46608e-07
1.46608e-07
1.46608e-07
1.46608e-07
1.46608e-07
1.46608e-07
1.46608e-07
1.46608e-07
1.46608e-07
1.46608e-07
1.46608e-07
1.46608e-07
1.46608e-07
1.46608e-07
1.46608e-07
1.46608e-07
1.46608e-07
1.46608e-07
1.46608e-07
1.46608e-07
1.46608e-07
1.46608e-07
1.46608e-07
1.46608e-07
1.46608e-07
1.46608e-07
1.46608e-07
1.46608e-07
1.46608e-07
1.46608e-07
1.46608e-07
1.46608e-07
1.46608e-07
1.46608e-07
1.46608e-07
1.46608e-07
1.46608e-07
1.46608e-07
1.46608e-07
1.46608e-07
1.46608e-07
1.46608e-07
1.46608e-07
1.46608e-07
1.46608e-07
1.46608e-07
1.46608e-07
1.46608e-07
1.46608e-07
1.46608e-07
1.46608e-07
1.46608e-07
1.46608e-07
1.46608e-07
1.46608e-07
1.46608e-07
1.46608e-07
1.46608e-07
1.46608e-07
1.46608e-07
1.46608e-07
1.46608e-07
1.46608e-07
1.46608e-07
1.46608e-07
1.46608e-07
1.46608e-07
1.46608e-07
1.46608e-07
1.46608e-07
1.46608e-07
1.46608e-07
1.46608e-07
1.46608e-07
1.46608e-07
1.46608e-07
1.46608e-07
1.46608e-07
1.46608e-07
1.46608e-07
1.46608e-07
1.46608e-07
1.46608e-07
1.46608e-07
1.46608e-07
1.46608e-07
1.46608e-07
1.46608e-07
1.46608e-07
1.46608e-07
1.46608e-07
1.46608e-07
1.46608e-07
1.46608e-07
1.46608e-07
1.46608e-07
1.46608e-07
1.46608e-07
1.46608e-07
1.46608e-07
1.46608e-07
1.46608e-07
1.46608e-07

VECTORS velocity float
0.000329462 -0.00771289 0.0223806
-0.0743149 -0.0879368 0.0146105
0.00621777 0.0024731 0.00921253
0.000281115 0.0140466 -0.0201048
0.00533824 0.000327762 0.00612251
0.0174666 -0.0509792 -0.00402745
0.000745807 -0.0221856 0.00513738
0.0349611 0.0124041 0.111723
-0.0318326 -0.269239 0.272879
0.00298731 -0.0343575 0.0876579
-0.0937461 0.0951484 0.643518
-0.0104957 0.0588905 -0.0395216
0.00641568 0.00527652 -0.00754208
0.000489139 0.0152156 0.0190051
0.00121561 -0.00167446 -0.0175495
0.000476631 -0.0206058 -0.00953279
0.00477608 -5.52225e-05 0.00639334
-0.130735 0.0121206 0.233467
-0.00534259 0.00109741 -0.00675935
0.056413 -0.164923 0.287795
-2.57628e-15 -6.63162e-14 2.26003e-13
0.0449847 -0.018033 0.858466
-0.253948 -0.149491 0.801656
-6.30945e-05 -0.0246846 -0.00672715
-0.00273316 0.00369275 -0.00350674
9.55221e-317 -9.53188e-317 -2.81922e-12
-0.0246384 0.00348458 -0.0135954
0.000226843 0.0235384 -0.00677382
0.0203156 -0.0299283 0.00167736
0.000267105 0.00229603 -0.0242551
0.0904383 -0.254137 0.426697
2.1457e-14 3.22042e-14 -3.48876e-13
0.00565361 0.00331105 0.00123457
0.000352457 0.00178229 0.00141595
0.0210408 -0.124024 0.196263
-0.00868465 -0.00373527 -0.00543324
0.0208609 -0.0720623 0.030286
-8.2084e-05 0.00274593 -0.000474975
-0.000393618 -0.000245417 0.00228324
0.279543 -0.318643 0.407368
-3.49563e-09 0.0289141 0.00144146
0.0415336 -0.034986 -0.0390305
0.00314893 -0.00397228 -0.0112315
-2.39599e-15 -1.27487e-14 4.91517e-14
0.000717086 -0.0129596 0.0157978
-2.29097e-05 -0.000186001 -0.000144493
0.000690793 -0.000640479 0.000673145
0.275255 -0.122312 0.170569
-0.00367385 -0.00530484 -0.00537644
9.52579e-317 9.5521e-317 1.89627e-12
0.00277982 0.00819748 0.012061
-0.00713275 0.0142168 -0.0176028
-0.00189011 -0.00564401 -0.00761897
0.0694187 -0.386483 0.0597474
0.0305993 0.00392822 0.854534
0.0110224 -0.0420609 -0.0560476
0.000116569 0.00166316 0.00510974
0.000823667 0.018472 -0.000230252
-0.0577593 -0.0295155 0.0494559
-0.00885338 0.0392187 0.128633
0.073998 0.00277327 0.0157149
-0.000770835 0.000452012 -0.00822058
0.000349162 -0.000259004 -8.21909e-05
0.000149187 0.000128866 0.000195413
-0.0390709 -0.0349703 0.0283607
0.0140697 -0.033588 -0.000132724
-0.0156734 -0.00558386 -0.0155435
0.00156297 -0.00130964 9.50568e-05
0.12379 0.0485218 -0.402989
0.0887871 0.0724509 -0.216556
0.000526282 -0.0189292 0.0150666
0.00342553 0.00384181 0.0189379
-0.0461183 -0.0908089 0.0879986
0.00267176 0.0106431 0.00913181
-0.00111902 -0.00142603 -0.00200053
-0.000640527 -7.73365e-05 0.00188864
0.000163574 -0.00978454 -0.0241277
-0.00817648 0.0189521 0.0123085
0.00652186 0.101417 -0.160647
0.000368344 -0.012852 -0.0151103
-0.0497341 -0.134261 0.134264
0.000760737 -0.0108772 0.019744
0.0010099 -0.0155959 -0.0135527
0.13413 -0.0572844 0.394706
0.000244733 -0.000640365 -0.000621666
-0.0610803 -0.0765281 0.387652
0.00432993 -0.00081399 0.00351245
-0.00537654 0.00865957 0.008619
-0.00127906 0.00218798 0.0104261
-0.000299869 0.0115215 -0.0241403
0.00245948 -0.0162998 -0.0122153
0.00740593 0.00265018 -0.00203451
0.0036342 -0.0255297 0.0303681
0.0451187 -0.162548 0.214829
0.00372213 0.0013769 -0.00160473
-0.004035 -0.00332233 -0.00264034
-0.000853713 6.05738e-05 0.00141037
-0.0265178 0.018807 -0.0518279
-0.000244124 0.00050052 0.00201468
0.0038223 -0.00947341 -0.00724455
-0.00279093 0.00172594 0.00132301
0.00345643 -0.00102729 -0.00392997
0.115478 0.0231201 0.080099
-0.000791893 -0.00548268 -0.0147656
0.00298743 -0.231118 0.454068
-6.96186e-05 -0.0229043 0.00422903
-0.0986843 -0.0755596 0.0506684
0.049245 -0.00112958 0.0304064
0.00535156 0.00370857 -0.00073746
-0.0332495 0.0797272 -0.27416
0.000304013 -0.000428638 0.00100872
-0.00172999 0.2053 0.262997
-0.1533 0.14691 0.0901017
4.92764e-15 1.58559e-14 1.95752e-13
0.0610305 -0.038938 0.17886
0.171542 -0.126365 0.173378
-0.00330514 -0.000562622 -0.000608993
0.0026176 0.00853559 0.0129619
-0.00180557 -0.000791215 -0.000937577
-0.0534482 -0.00887489 -0.0150343
0.00136155 -0.00141558 0.00030327
-0.0412574 -0.0381331 0.0272637
0.000703505 -0.00107283 0.000410888
0.045617 -0.131755 0.0237598
0.000385594 -0.0220382 0.0107611
0.00702731 0.00246553 0.00324461
0.000143801 0.00170738 0.00227749
0.00179446 -1.12803e-05 0.00114235
-0.0681413 0.00161504 -0.0355743
-0.000982474 0.0166123 0.0103507
-0.14705 -0.0721019 0.0756634
0.195897 -0.0325957 0.372429
-0.00988121 0.00760817 -0.00559615
0.391607 -0.0563667 0.303911
-0.0968026 -0.0553886 0.0108499
0.00582063 0.00348247 -0.00235545
0.506603 -0.372445 0.521083
-0.000452253 0.0280613 0.00337482
0.0257048 -0.0123552 -0.00140981
-0.000258685 0.00300673 0.00191179
0.00932295 -0.0268926 0.0157789
-0.0664128 -0.0912404 0.0503945
0.017208 0.0384768 0.485467
-0.0130107 -0.00599643 -0.00316982
0.00786473 0.0116612 -0.0305248
-0.0671328 -0.094519 0.10039
-0.0748438 0.152591 0.541013
-0.0588375 0.0289581 -0.0151941
-0.0254416 -0.0204215 0.0336479
-0.0802022 0.285138 0.0799292
-0.0249845 -0.00563679 -0.0106614
-0.113873 -0.142975 -0.0953213
3.53878e-08 0.021208 0.0203557
0.0023232 0.0011844 -0.00368346
8.29959e-05 0.00737945 0.0238067
0.0117643 -0.0228143 0.0906386
-0.0741101 -0.0150876 0.0477593
0.00011123 -0.00956189 0.0240235
0.00044073 0.0028044 0.0233308
-0.000416335 0.000569897 0.000318778
-0.0482442 -0.0216277 0.00682172
-0.0411118 -0.0167341 0.0217607
-0.0636321 -0.206858 -0.0541171
-0.0625818 -0.0170672 -0.0385119
-0.000471231 0.000350805 0.00300093
0.0940981 0.0383165 -0.315453
-0.0359019 0.0114569 0.0874494
-0.057801 0.0314244 -0.00324003
0.00125194 0.0421494 0.0859234
0.00137087 0.00814578 0.0164337
0.00605124 -3.25011e-05 -0.00335568
0.00231601 0.0109742 0.00909348
0.088976 -0.185036 0.904555
-0.0214804 -0.0376362 -0.0312225
-0.0295474 0.0195579 0.136714
0.00319519 0.00626665 0.00204685
0.00019679 0.000271938 0.000311823
-0.0283497 -0.154239 -0.19836
0.00245021 0.00116117 -0.000704961
0.000206373 0.00458897 -0.00816275
-0.00698489 0.00544661 0.00658921
0.082178 0.000697314 -0.266097
0.00177472 0.000364803 -0.000703967
8.84568e-15 6.53688e-14 -1.70084e-13
0.0352712 0.0216425 -0.0324365
0.145269 -0.0659818 0.385743
-0.00756309 -0.00021759 0.00225667
0.00442991 0.00700782 0.00264833
-0.305476 -0.0940782 0.354497
-0.000290717 0.000318986 0.000855562
0.0308312 -0.138667 0.635373
0.0107049 0.010227 0.28031
3.03052e-05 0.000828023 -0.000707202
0.000551279 -0.00360541 0.0244805
0.0025309 0.00733505 0.000506835
0.044621 -0.0047344 0.156037
-4.92544e-05 -0.000318752 0.00131232
8.83249e-05 -7.47731e-05 -0.000926457
-0.00239683 -0.000785999 -0.000797559
-0.0382608 0.00180568 -0.00178025
0.00100668 -0.0146901 -0.00102529
-0.0552447 -0.0494501 0.101978

VECTORS force float
-4.8825e-09 7.3964e-09 2.08473e-08
0.0 0.0 -1.43822e-06
0.0 0.0 -1.43822e-06
-2.41967e-09 -7.13097e-09 -1.50439e-08
2.73736e-06 4.88977e-07 3.01152e-07
0.0 0.0 -1.43822e-06
-2.53221e-08 -6.55246e-08 4.39226e-08
0.0 0.0 -1.43822e-06
0.0 0.0 -1.43822e-06
0.0 0.0 -1.43822e-06
0.0 0.0 -1.43822e-06
0.0 0.0 -1.43822e-06
-7.9034e-08 5.58805e-07 -1.26264e-06
1.17817e-09 1.89713e-08 3.13237e-09
3.25238e-08 -3.79662e-08 1.51019e-07
4.12963e-08 2.38818e-07 1.20677e-08
-1.41657e-06 -5.0786e-07 3.14032e-07
0.0 0.0 -1.43822e-06
1.12296e-05 1.38348e-06 -9.26548e-06
0.0 0.0 -1.43822e-06
4.58112e-19 -3.12343e-21 4.23516e-21
0.0 0.0 -1.43822e-06
0.0 0.0 -1.43822e-06
1.59297e-08 -1.72987e-09 3.36835e-08
0.0 0.0 -1.43822e-06
0.0 0.0 0.0
-0.000111703 1.08874e-05 -0.000140317
-8.98863e-10 3.03309e-09 -1.59663e-08
0.0 0.0 -1.43822e-06
-4.91586e-10 -1.2459e-08 -8.51106e-09
0.0 0.0 -1.43822e-06
3.78783e-20 -1.15938e-19 -9.95264e-21
-1.54784e-07 3.27386e-07 -1.96414e-06
-5.60079e-08 -4.46129e-07 -8.99747e-08
0.0 0.0 -1.43822e-06
-0.00158784 -0.000395998 -0.000211499
0.0 0.0 -1.43822e-06
2.86368e-07 2.76396e-07 2.24633e-06
-3.92393e-05 3.48277e-05 -6.90405e-05
0.0 0.0 -1.43822e-06
-2.44058e-14 1.20823e-09 -2.31531e-08
-9.94717e-06 2.45193e-05 -3.87407e-05
0.0001869 0.000204008 0.000138112
1.38576e-18 -2.19964e-19 6.35275e-21
-6.37042e-09 -1.52175e-08 7.91188e-08
-1.20291e-07 -2.46636e-07 -8.62299e-08
-8.73489e-07 1.14113e-06 7.41536e-07
0.0 0.0 -1.43822e-06
2.46379e-08 -1.15113e-07 -5.74761e-09
0.0 0.0 0.0
-2.40467e-07 5.41083e-07 -5.6908e-07
0.0 0.0 -1.43822e-06
0.0 0.0 -1.43822e-06
0.0 0.0 -1.43822e-06
0.0 0.0 -1.43822e-06
0.0 0.0 -1.43822e-06
7.78442e-06 -2.1546e-06 8.27356e-06
5.23912e-07 -2.04492e-07 -1.19288e-06
6.32732e-07 -2.61656e-07 -1.36346e-06
0.0 0.0 -1.43822e-06
0.0 0.0 -1.43822e-06
3.65703e-06 -3.36501e-06 -7.33565e-06
2.85544e-07 -6.16771e-07 -1.87347e-07
7.33883e-08 -2.47537e-07 -1.00321e-08
0.0 0.0 -1.43822e-06
0.0 0.0 -1.43822e-06
-8.46081e-06 -4.55012e-06 1.37106e-05
-9.56297e-08 -7.75483e-07 -9.10682e-08
0.0 0.0 -1.43822e-06
0.0 0.0 -1.43822e-06
-6.74321e-09 -2.03572e-08 2.53354e-08
-3.61695e-08 1.61482e-08 8.40645e-08
0.0 0.0 -1.43822e-06
-1.07534e-06 3.1306e-06 -5.79755e-06
2.39361e-08 -9.64427e-08 -3.94321e-07
6.74099e-07 3.52361e-07 1.39676e-06
-3.40052e-09 -1.63157e-08 -2.72304e-09
4.29485e-08 1.87509e-08 -1.09402e-09
0.0 0.0 -1.43822e-06
7.62681e-08 -3.29149e-07 -1.64395e-07
0.0 0.0 -1.43822e-06
-8.8052e-09 -1.37676e-08 3.88008e-08
-4.97144e-08 -2.20366e-08 2.76908e-08
0.0 0.0 -1.43822e-06
2.90167e-08 -3.90881e-07 -6.30933e-08
0.0 0.0 -1.43822e-06
-1.66317e-06 -2.25617e-08 -1.17519e-06
2.95912e-08 -3.52193e-07 -1.13217e-06
0.0 0.0 -1.43822e-06
9.55838e-09 -1.27183e-08 -9.60958e-09
-2.22053e-06 2.74834e-06 -1.87915e-06
-5.37922e-09 2.53377e-09 -1.4734e-06
0.0 0.0 -1.43822e-06
0.0 0.0 -1.43822e-06
-1.05072e-06 -4.33267e-07 -1.63291e-06
-4.61712e-07 -3.50716e-07 2.95671e-06
-2.87541e-07 4.02729e-07 4.32914e-07
0.0 0.0 -1.43822e-06
9.20474e-06 -4.21376e-06 8.1763e-06
0.0 0.0 -1.43822e-06
-6.7067e-05 -2.04131e-05 8.18025e-05
2.63049e-05 6.30226e-06 1.34394e-05
0.0 0.0 -1.43822e-06
2.23321e-05 5.87695e-05 9.17902e-05
0.0 0.0 -1.43822e-06
-2.41179e-08 1.29427e-07 -7.14905e-10
1.43936e-07 -1.06619e-07 -1.90498e-06
0.0 0.0 -1.43822e-06
-7.68989e-07 4.86008e-06 2.61036e-06
0.0 0.0 -1.43822e-06
5.19899e-07 2.88067e-07 3.20419e-07
0.0 0.0 -1.43822e-06
0.0 0.0 -1.43822e-06
-5.39927e-19 7.69874e-20 4.02341e-21
0.0 0.0 -1.43822e-06
0.0 0.0 -1.43822e-06
5.66046e-07 -2.00712e-08 7.33691e-07
2.32826e-07 -8.81572e-08 4.64005e-08
5.76133e-08 2.84854e-08 -4.17431e-08
8.76084e-08 -4.69902e-08 -9.80155e-07
-3.13497e-08 -2.04198e-07 -1.12618e-07
0.0 0.0 -1.43822e-06
3.05359e-08 3.28192e-07 -8.64434e-08
0.0 0.0 -1.43822e-06
-1.29171e-08 -1.67012e-07 9.44119e-08
4.16721e-06 6.60447e-07 4.32716e-06
1.98311e-07 -1.19399e-07 -7.03325e-09
2.22679e-07 -1.22476e-06 5.38881e-07
0.0 0.0 -1.43822e-06
-3.72864e-09 2.24883e-09 -3.79185e-07
0.0 0.0 -1.43822e-06
0.0 0.0 -1.43822e-06
-2.95649e-06 -5.21335e-07 4.07422e-06
0.0 0.0 -1.43822e-06
0.0 0.0 -1.43822e-06
0.0 0.0 -1.43822e-06
0.0 0.0 -1.43822e-06
0.0 0.0 -1.43822e-06
-4.20109e-07 2.35033e-07 1.24683e-07
-2.97647e-06 -1.2964e-05 1.21669e-06
0.0 0.0 -1.43822e-06
0.0 0.0 -1.43822e-06
0.0 0.0 -1.43822e-06
0.0 0.0 -1.43822e-06
9.13995e-08 1.40853e-07 -1.12606e-06
0.0 0.0 -1.43822e-06
0.0 0.0 -1.43822e-06
9.94717e-06 -2.45193e-05 3.58643e-05
0.0 0.0 -1.43822e-06
0.0 0.0 -1.43822e-06
0.0 0.0 -1.43822e-06
0.0 0.0 -1.43822e-06
5.3292e-10 1.86909e-08 -1.86892e-08
5.21549e-08 -7.10569e-08 -5.73909e-08
-4.42239e-10 1.53379e-08 7.87501e-10
0.0 0.0 -1.43822e-06
0.0 0.0 -1.43822e-06
-2.603e-09 9.63808e-09 1.53141e-08
9.2293e-10 2.56533e-08 8.06868e-09
7.69674e-08 -1.34927e-07 3.54221e-07
0.0 0.0 -1.43822e-06
0.0 0.0 -1.43822e-06
0.0 0.0 -1.43822e-06
0.0 0.0 -1.43822e-06
2.44252e-06 -1.01731e-06 3.21325e-08
0.0 0.0 -1.43822e-06
0.0 0.0 -1.43822e-06
0.0 0.0 -1.43822e-06
0.0 0.0 -1.43822e-06
8.30013e-06 5.10936e-06 6.10052e-06
1.40806e-07 1.82091e-07 -1.19466e-06
1.78913e-07 6.4259e-08 1.40801e-07
0.0 0.0 -1.43822e-06
0.0 0.0 -1.43822e-06
0.0 0.0 -1.43822e-06
0.0 0.0 -1.43822e-06
2.44981e-07 -1.04711e-08 -5.53141e-08
0.0 0.0 -1.43822e-06
-8.16215e-06 -7.13728e-06 6.38284e-06
6.76515e-09 -3.79039e-09 -1.75619e-08
3.26484e-06 2.99193e-05 1.00309e-05
0.0 0.0 -1.43822e-06
-5.63026e-06 -3.99935e-06 2.82576e-06
-6.93773e-20 -9.97381e-20 -4.31987e-20
0.0 0.0 -1.43822e-06
0.0 0.0 -1.43822e-06
3.07806e-06 5.61979e-07 6.46187e-07
2.56967e-08 -1.01775e-07 -5.8192e-08
0.0 0.0 -1.43822e-06
2.22418e-06 -2.05113e-07 1.58188e-08
0.0 0.0 -1.43822e-06
0.0 0.0 -1.43822e-06
2.86042e-08 -3.9579e-07 -1.0471e-07
-4.70528e-10 1.36113e-08 7.23758e-09
2.55662e-06 -1.57696e-06 1.79104e-06
0.0 0.0 -1.43822e-06
-3.15027e-08 -1.07609e-06 1.01825e-06
1.36756e-06 -6.18165e-07 9.9734e-06
5.58614e-07 -6.82724e-07 3.53044e-07
0.000169781 -1.11626e-05 6.67744e-05
-2.00576e-08 3.99429e-08 4.66772e-08
0.0 0.0 -1.43822e-06
