# vtk DataFile Version 3.0
LIGGGHTS particles timestep 4000000
ASCII
DATASET POLYDATA
POINTS 223 float
0.0195363 0.0236954 0.013961
0.0249455 0.0188667 0.0167442
0.021177 0.0158177 0.0156678
0.0290489 0.0153367 0.0135894
0.0253408 0.0177955 0.0165953
0.0184148 0.0139436 0.0142422
0.0228939 0.0145893 0.0145865
0.0264666 0.0233398 0.01085
0.017507 0.0142459 0.0139517
0.0240598 0.0214016 0.0162231
0.0196416 0.0241051 0.0128098
0.0236358 0.017856 0.016694
0.023642 0.02073 0.0156115
0.0147074 0.0223942 0.0156177
0.0240917 0.018762 0.0159404
0.0281172 0.0188641 0.0158301
0.0273612 0.0218876 0.0146146
0.0189055 0.0226663 0.0159328
0.0213597 0.0148314 0.0146426
0.0199656 0.0220706 0.015929
0.0181757 0.0237712 0.0149688
0.032281 0.0212958 0.00630102
0.0160485 0.0207573 0.0156446
0.0174651 0.023533 0.0143052
0.026986 0.022871 0.0132907
0.0224032 0.0211268 0.0154463
0.00328607 0.0109634 0.0435188
0.0206551 0.0239767 0.0126303
0.0294248 0.0148944 0.012157
0.0162182 0.0232239 0.0130299
0.0283055 0.0179671 0.0156628
0.0189268 0.0243323 0.013479
0.0239328 0.0177092 0.0157504
0.151427 0.0197366 0.00603425
0.0233414 0.0188152 0.0167361
0.0170097 0.0229747 0.0136106
0.0210274 0.0241366 0.0142314
0.0213674 0.0232077 0.0141486
0.0252676 0.0168544 0.016265
0.0233662 0.0215911 0.0151444
0.01471 0.0231119 0.0149215
0.0199974 0.024519 0.0136082
0.0201803 0.0158698 0.0157491
0.0230026 0.0236682 0.0150126
0.0177619 0.0203893 0.0157535
0.0355669 0.0190259 0.00580114
0.0247811 0.0159966 0.0160944
0.0258957 0.0222031 0.00869226
0.0258341 0.0196142 0.0167195
0.0259099 0.0186024 0.0167527
0.0222105 0.0186431 0.0159537
0.0208221 0.0229917 0.0152824
0.0242446 0.0168396 0.0161331
0.0187252 0.0174299 0.00751813
0.0191645 0.0160507 0.0157954
0.0215943 0.0238382 0.0134252
0.0228425 0.0160244 0.0147566
0.0217592 0.0233318 0.016045
0.0190923 0.0193106 0.00715755
0.0192941 0.0184128 0.00721453
0.0373563 0.0312924 0.0428602
0.0241683 0.0155037 0.0154768
0.0223929 0.0211629 0.0166323
0.0197118 0.021789 0.00816399
0.0170592 0.0191351 0.015941
0.0227737 0.0202688 0.015793
0.0158127 0.0110236 0.0293395
0.0198003 0.0140055 0.0129609
0.0170565 0.00281502 0.0434878
0.0235764 0.0147435 0.0113384
0.0250724 0.0214817 0.0161703
0.0192 0.0245553 0.017354
0.0152077 0.0228559 0.0137974
0.0185738 0.0167171 0.0152798
0.0180432 0.0138354 0.0217173
0.0169094 0.0158057 0.0145419
0.0195433 0.015326 0.0152032
0.0260836 0.0228295 0.00931267
0.0233577 0.016706 0.0152765
0.0221494 0.0239116 0.0142535
0.019171 0.0215022 0.0161429
0.0206576 0.0234735 0.0117506
0.0156549 0.0132595 0.024232
0.0186219 0.0237808 0.0158648
0.0279521 0.0197363 0.0157365
0.0207977 0.0153852 0.0165278
0.0193309 0.0204404 0.00744151
0.0277464 0.0205584 0.0155181
0.0180559 0.0220112 0.0158223
0.0243022 0.0164104 0.0150767
0.027558 0.0212418 0.0152222
0.020448 0.023394 0.0163922
0.0208153 0.0140881 0.0132352
0.0139717 0.0561929 0.018799
0.0240414 0.0151891 0.00951175
0.0210068 0.0139045 0.0142345
0.0180554 0.0188234 0.0159447
0.0256223 0.0207164 0.0165047
0.0285431 0.0170375 0.0152898
0.0173362 0.0220657 0.0147603
0.0199407 0.0224995 0.00894474
0.0149465 0.0148857 0.0147142
0.0249218 0.0200163 0.0166418
0.024751 0.0209517 0.0169469
0.0223796 0.0216695 0.0174955
0.02083 0.0227228 0.00925434
0.0162458 0.01852 0.0159169
0.0224458 0.0176401 0.0157221
0.0219569 0.0236216 0.0169813
0.0153671 0.0222585 0.0145776
0.0156192 0.0233895 0.0145364
0.0231562 0.0183246 0.0158847
0.0177353 0.0243141 0.0136918
0.0214745 0.0199279 0.0167146
0.0164366 0.0237776 0.0149646
0.0171165 0.0212893 0.0153527
0.0220037 0.019626 0.0159155
0.0221825 0.0191456 0.0168177
0.018088 0.0147774 0.0127676
0.0175287 0.0146131 0.0119553
0.0238339 0.0197296 0.0158873
0.0155404 0.0158622 0.0166825
0.0181807 0.0240693 0.0128227
0.0192265 0.0142463 0.0137432
0.0221866 0.0225962 0.0141934
0.0163103 0.0237219 0.013895
0.0186701 0.0200033 0.0166449
0.0116236 0.0165703 0.0249241
0.0184146 0.0236491 0.0140007
0.0227723 0.022964 0.0156837
0.0209595 0.0231431 0.0131535
0.0171722 0.0151136 0.0135844
0.018573 0.016183 0.00825005
0.0180755 0.0175317 0.0156754
0.0184517 0.0157673 0.0149785
0.0262623 0.0230989 0.0100096
0.0203839 0.0149243 0.0148398
0.0210614 0.0148263 0.0155975
0.0163888 0.0218981 0.0149063
0.0188144 0.0140921 0.0128175
0.0241241 0.0194343 0.0167987
0.0201114 0.0162618 0.0173834
0.0196985 0.0195346 0.0167234
0.0240156 0.0204295 0.0165547
0.0169941 0.0238777 0.0131825
0.0171709 0.0181449 0.0158497
0.0228596 0.0232544 0.0139643
0.0234197 0.0148176 0.0122518
0.0204289 0.0238705 0.0134988
0.0213272 0.0223005 0.014528
0.0181643 0.0145453 0.0150266
0.0230702 0.0153569 0.0139704
0.0188971 0.0150018 0.0145131
0.0212977 0.0215269 0.016179
0.0168006 0.0201304 0.0158474
0.0205792 0.0241784 0.0170042
0.0195184 0.0205463 0.0165282
0.0222124 0.0151502 0.0150564
0.024474 0.0221772 0.0157471
0.0224459 0.0228119 0.0166165
0.0211759 0.0189465 0.016766
0.0206827 0.0224523 0.0168928
0.0195513 0.0235715 0.0154568
0.0157373 0.014529 0.0142168
0.0231906 0.0207189 0.0170396
0.0218355 0.0143552 0.0139032
0.02181 0.0205969 0.0160507
0.0218469 0.0177196 0.0174297
0.0215436 0.0233958 0.0125246
0.0237768 0.0157142 0.014581
0.0171769 0.0144487 0.0148736
0.0213707 0.0217563 0.0173877
0.0255399 0.0209824 0.00773112
0.0245489 0.0168665 0.00775885
0.0225764 0.018006 0.0166586
0.023257 0.0197215 0.0172055
0.0190177 0.0232333 0.014681
0.0155967 0.0227992 0.0153872
0.0235752 0.02274 0.0183997
0.0178221 0.015451 0.0142651
0.0195662 0.0142866 0.0147366
0.0220529 0.0233645 0.0150845
0.018138 0.0227935 0.0151752
0.0215565 0.0215733 0.0151682
0.0155579 0.0215093 0.015205
0.0161598 0.0226908 0.0140546
0.0234894 0.0222426 0.0159083
0.0232689 0.0170438 0.0162134
0.0222987 0.0231799 0.0131415
0.0244896 0.0173916 0.0169303
0.0203604 0.0234287 0.0144651
0.0175881 0.0163512 0.0150437
0.023219 0.0152469 0.0152669
0.0185933 0.0151039 0.0135662
0.0217794 0.0162858 0.0169592
0.0239159 0.0208548 0.0177142
0.0224635 0.0201012 0.0167292
0.0160316 0.0194969 0.0159319
0.0132532 0.0213635 0.0162189
0.0230914 0.0223178 0.0145149
0.021733 0.0225054 0.0154827
0.0245456 0.0200925 0.0175652
0.0232464 0.0226127 0.017464
0.0205034 0.0202281 0.0166512
0.0225147 0.022019 0.0158833
0.0229936 0.0219515 0.0167584
0.0165206 0.0228331 0.0150041
0.0236518 0.0228809 0.0151218
0.0229475 0.0193001 0.0159522
0.0243688 0.0216678 0.0180802
0.0165426 0.0142286 0.0136866
0.0166673 0.0166848 0.0152611
0.0185653 0.0152463 0.0158288
0.0250904 0.0191845 0.00719197
0.0141891 0.0153251 0.0151972
0.0201602 0.0208614 0.00762876
0.0206758 0.0171218 0.0169651
0.017307 0.0233847 0.0152826
0.0137637 0.022106 0.0157799
0.020188 0.0144104 0.013963
0.0238641 0.0216986 0.0171803
0.0266959 0.0233432 0.0120918
0.0191284 0.0144254 0.0156333

VERTICES 223 446
1 0
1 1
1 2
1 3
1 4
1 5
1 6
1 7
1 8
1 9
1 10
1 11
1 12
1 13
1 14
1 15
1 16
1 17
1 18
1 19
1 20
1 21
1 22
1 23
1 24
1 25
1 26
1 27
1 28
1 29
1 30
1 31
1 32
1 33
1 34
1 35
1 36
1 37
1 38
1 39
1 40
1 41
1 42
1 43
1 44
1 45
1 46
1 47
1 48
1 49
1 50
1 51
1 52
1 53
1 54
1 55
1 56
1 57
1 58
1 59
1 60
1 61
1 62
1 63
1 64
1 65
1 66
1 67
1 68
1 69
1 70
1 71
1 72
1 73
1 74
1 75
1 76
1 77
1 78
1 79
1 80
1 81
1 82
1 83
1 84
1 85
1 86
1 87
1 88
1 89
1 90
1 91
1 92
1 93
1 94
1 95
1 96
1 97
1 98
1 99
1 100
1 101
1 102
1 103
1 104
1 105
1 106
1 107
1 108
1 109
1 110
1 111
1 112
1 113
1 114
1 115
1 116
1 117
1 118
1 119
1 120
1 121
1 122
1 123
1 124
1 125
1 126
1 127
1 128
1 129
1 130
1 131
1 132
1 133
1 134
1 135
1 136
1 137
1 138
1 139
1 140
1 141
1 142
1 143
1 144
1 145
1 146
1 147
1 148
1 149
1 150
1 151
1 152
1 153
1 154
1 155
1 156
1 157
1 158
1 159
1 160
1 161
1 162
1 163
1 164
1 165
1 166
1 167
1 168
1 169
1 170
1 171
1 172
1 173
1 174
1 175
1 176
1 177
1 178
1 179
1 180
1 181
1 182
1 183
1 184
1 185
1 186
1 187
1 188
1 189
1 190
1 191
1 192
1 193
1 194
1 195
1 196
1 197
1 198
1 199
1 200
1 201
1 202
1 203
1 204
1 205
1 206
1 207
1 208
1 209
1 210
1 211
1 212
1 213
1 214
1 215
1 216
1 217
1 218
1 219
1 220
1 221
1 222

POINT_DATA 223
SCALARS id int 1
LOOKUP_TABLE default
1
2
3
5
7
8
9
10
11
12
13
16
17
18
19
20
21
22
23
26
27
28
30
31
32
33
35
36
37
41
42
43
44
45
47
48
49
52
53
54
55
57
58
59
60
61
62
63
64
65
68
69
70
71
72
73
74
76
77
80
81
84
85
86
87
88
89
90
91
94
95
96
97
99
103
105
106
107
111
112
113
115
116
117
118
119
120
121
123
124
125
126
127
129
130
131
132
133
134
137
139
141
143
144
145
146
147
148
149
150
151
152
155
156
157
160
161
162
163
164
167
169
170
171
172
174
175
176
177
179
180
181
182
183
185
186
187
188
189
190
192
193
194
196
198
199
201
202
203
204
205
206
207
208
209
211
212
213
214
216
217
218
220
221
222
223
224
225
226
227
228
229
232
234
235
237
238
239
241
242
243
244
245
246
249
250
252
253
254
258
259
262
264
265
266
267
268
269
270
271
272
273
274
275
276
277
278
279
280
283
284
286
288
289
290
291
292
293
294
295
296
299
300

SCALARS type int 1
LOOKUP_TABLE default
1
1
1
1
1
1
1
1
1
1
1
1
1
1
1
1
1
1
1
1
1
1
1
1
1
1
1
1
1
1
1
1
1
1
1
1
1
1
1
1
1
1
1
1
1
1
1
1
1
1
1
1
1
1
1
1
1
1
1
1
1
1
1
1
1
1
1
1
1
1
1
1
1
1
1
1
1
1
1
1
1
1
1
1
1
1
1
1
1
1
1
1
1
1
1
1
1
1
1
1
1
1
1
1
1
1
1
1
1
1
1
1
1
1
1
1
1
1
1
1
1
1
1
1
1
1
1
1
1
1
1
1
1
1
1
1
1
1
1
1
1
1
1
1
1
1
1
1
1
1
1
1
1
1
1
1
1
1
1
1
1
1
1
1
1
1
1
1
1
1
1
1
1
1
1
1
1
1
1
1
1
1
1
1
1
1
1
1
1
1
1
1
1
1
1
1
1
1
1
1
1
1
1
1
1
1
1
1
1
1
1
1
1
1
1
1
1
1
1
1
1
1
1

SCALARS radius float 1
LOOKUP_TABLE default
0.0005
0.0005
0.0005
0.0005
0.0005
0.0005
0.0005
0.0005
0.0005
0.0005
0.0005
0.0005
0.0005
0.0005
0.0005
0.0005
0.0005
0.0005
0.0005
0.0005
0.0005
0.0005
0.0005
0.0005
0.0005
0.0005
0.0005
0.0005
0.0005
0.0005
0.0005
0.0005
0.0005
0.0005
0.0005
0.0005
0.0005
0.0005
0.0005
0.0005
0.0005
0.0005
0.0005
0.0005
0.0005
0.0005
0.0005
0.0005
0.0005
0.0005
0.0005
0.0005
0.0005
0.0005
0.0005
0.0005
0.0005
0.0005
0.0005
0.0005
0.0005
0.0005
0.0005
0.0005
0.0005
0.0005
0.0005
0.0005
0.0005
0.0005
0.0005
0.0005
0.0005
0.0005
0.0005
0.0005
0.0005
0.0005
0.0005
0.0005
0.0005
0.0005
0.0005
0.0005
0.0005
0.0005
0.0005
0.0005
0.0005
0.0005
0.0005
0.0005
0.0005
0.0005
0.0005
0.0005
0.0005
0.0005
0.0005
0.0005
0.0005
0.0005
0.0005
0.0005
0.0005
0.0005
0.0005
0.0005
0.0005
0.0005
0.0005
0.0005
0.0005
0.0005
0.0005
0.0005
0.0005
0.0005
0.0005
0.0005
0.0005
0.0005
0.0005
0.0005
0.0005
0.0005
0.0005
0.0005
0.0005
0.0005
0.0005
0.0005
0.0005
0.0005
0.0005
0.0005
0.0005
0.0005
0.0005
0.0005
0.0005
0.0005
0.0005
0.0005
0.0005
0.0005
0.0005
0.0005
0.0005
0.0005
0.0005
0.0005
0.0005
0.0005
0.0005
0.0005
0.0005
0.0005
0.0005
0.0005
0.0005
0.0005
0.0005
0.0005
0.0005
0.0005
0.0005
0.0005
0.0005
0.0005
0.0005
0.0005
0.0005
0.0005
0.0005
0.0005
0.0005
0.0005
0.0005
0.0005
0.0005
0.0005
0.0005
0.0005
0.0005
0.0005
0.0005
0.0005
0.0005
0.0005
0.0005
0.0005
0.0005
0.0005
0.0005
0.0005
0.0005
0.0005
0.0005
0.0005
0.0005
0.0005
0.0005
0.0005
0.0005
0.0005
0.0005
0.0005
0.0005
0.0005
0.0005
0.0005
0.0005
0.0005
0.0005
0.0005
0.0005
0.0005
0.0005
0.0005
0.0005
0.0005
0.0005

SCALARS mass float 1
LOOKUP_TABLE default
1.46608e-07
1.46608e-07
1.46608e-07
1.46608e-07
1.46608e-07
1.46608e-07
1.46608e-07
1.46608e-07
1.46608e-07
1.46608e-07
1.46608e-07
1.46608e-07
1.46608e-07
1.46608e-07
1.46608e-07
1.46608e-07
1.46608e-07
1.46608e-07
1.46608e-07
1.46608e-07
1.46608e-07
1.46608e-07
1.46608e-07
1.46608e-07
1.46608e-07
1.46608e-07
1.46608e-07
1.46608e-07
1.46608e-07
1.46608e-07
1.46608e-07
1.46608e-07
1.46608e-07
1.46608e-07
1.46608e-07
1.46608e-07
1.46608e-07
1.46608e-07
1.46608e-07
1.46608e-07
1.46608e-07
1.46608e-07
1.46608e-07
1.46608e-07
1.46608e-07
1.46608e-07
1.46608e-07
1.46608e-07
1.46608e-07
1.46608e-07
1.46608e-07
1.46608e-07
1.46608e-07
1.46608e-07
1.46608e-07
1.46608e-07
1.46608e-07
1.46608e-07
1.46608e-07
1.46608e-07
1.46608e-07
1.46608e-07
1.46608e-07
1.46608e-07
1.46608e-07
1.46608e-07
1.46608e-07
1.46608e-07
1.46608e-07
1.46608e-07
1.46608e-07
1.46608e-07
1.46608e-07
1.46608e-07
1.46608e-07
1.46608e-07
1.46608e-07
1.46608e-07
1.46608e-07
1.46608e-07
1.46608e-07
1.46608e-07
1.46608e-07
1.46608e-07
1.46608e-07
1.46608e-07
1.46608e-07
1.46608e-07
1.46608e-07
1.46608e-07
1.46608e-07
1.46608e-07
1.46608e-07
1.46608e-07
1.46608e-07
1.46608e-07
1.46608e-07
1.46608e-07
1.46608e-07
1.46608e-07
1.46608e-07
1.46608e-07
1.46608e-07
1.46608e-07
1.46608e-07
1.46608e-07
1.46608e-07
1.46608e-07
1.46608e-07
1.46608e-07
1.46608e-07
1.46608e-07
1.46608e-07
1.46608e-07
1.46608e-07
1.46608e-07
1.46608e-07
1.46608e-07
1.46608e-07
1.46608e-07
1.46608e-07
1.46608e-07
1.46608e-07
1.46608e-07
1.46608e-07
1.46608e-07
1.46608e-07
1.46608e-07
1.46608e-07
1.46608e-07
1.46608e-07
1.46608e-07
1.46608e-07
1.46608e-07
1.46608e-07
1.46608e-07
1.46608e-07
1.46608e-07
1.46608e-07
1.46608e-07
1.46608e-07
1.46608e-07
1.46608e-07
1.46608e-07
1.46608e-07
1.46608e-07
1.46608e-07
1.46608e-07
1.46608e-07
1.46608e-07
1.46608e-07
1.46608e-07
1.46608e-07
1.46608e-07
1.46608e-07
1.46608e-07
1.46608e-07
1.46608e-07
1.46608e-07
1.46608e-07
1.46608e-07
1.46608e-07
1.46608e-07
1.46608e-07
1.46608e-07
1.46608e-07
1.46608e-07
1.46608e-07
1.46608e-07
1.46608e-07
1.46608e-07
1.46608e-07
1.46608e-07
1.46608e-07
1.46608e-07
1.46608e-07
1.46608e-07
1.46608e-07
1.46608e-07
1.46608e-07
1.46608e-07
1.46608e-07
1.46608e-07
1.46608e-07
1.46608e-07
1.46608e-07
1.46608e-07
1.46608e-07
1.46608e-07
1.46608e-07
1.46608e-07
1.46608e-07
1.46608e-07
1.46608e-07
1.46608e-07
1.46608e-07
1.46608e-07
1.46608e-07
1.46608e-07
1.46608e-07
1.46608e-07
1.46608e-07
1.46608e-07
1.46608e-07
1.46608e-07
1.46608e-07
1.46608e-07
1.46608e-07
1.46608e-07
1.46608e-07
1.46608e-07
1.46608e-07
1.46608e-07
1.46608e-07
1.46608e-07
1.46608e-07
1.46608e-07
1.46608e-07
1.46608e-07
1.46608e-07
1.46608e-07
1.46608e-07
1.46608e-07

VECTORS velocity float
-0.00856479 0.0060625 -0.0114478
0.000217276 0.00236587 0.000457695
-0.0013567 0.0104 0.0537289
-0.000180659 0.0108594 0.0237021
-0.000759587 0.00361069 0.00414072
0.00343845 -0.00577137 -0.0135993
-3.17868e-05 0.000224835 -0.000148516
0.00432861 -0.00154879 -0.0172617
0.00265596 -0.00193327 -0.00540008
0.000873352 0.00111383 0.00142501
-0.000550539 -0.000381415 -0.00262619
-0.00463169 0.00276952 -0.00296271
0.00397566 0.00230674 -0.000208457
0.00576626 0.00436507 -0.00170487
0.00564979 0.00573134 0.00172501
0.00155906 0.0215377 0.00134877
0.000707252 0.0163009 -0.0161749
-0.0135868 0.00957524 -0.0250184
-0.000674946 -0.00167235 -0.000273672
-0.0227746 -0.0309619 -0.00409636
-0.0138216 -0.00773621 0.00985635
-2.59645e-15 -6.63209e-14 2.26002e-13
0.00251846 0.00304602 -0.00107953
-0.0148218 -0.00263185 0.0115892
0.000182632 0.016077 -0.0204281
0.00480342 0.00309422 -0.00325897
9.55221e-317 -9.53188e-317 -2.81922e-12
0.000984045 0.00171931 -0.00219901
0.000424963 0.00441279 0.0236546
0.00900157 0.00259232 -0.00828251
0.00023513 0.0226339 0.00836431
-0.0197649 0.00754492 -0.0215008
0.00524363 0.0040454 -0.000436329
2.22633e-14 3.16419e-14 -3.48878e-13
-0.00405832 -0.000247598 0.00217064
0.00340938 0.000389235 -0.00451858
0.000490638 0.000106184 -0.001175
0.00227725 0.0011363 -0.00132164
0.000331861 0.00595853 0.00364204
0.00564807 0.00292577 -0.00271948
0.00585057 0.00315909 -0.00220612
4.18872e-05 -0.000156185 -0.000863026
-0.00681471 0.00249638 -0.000612531
-0.000338744 -0.000205824 -8.31234e-05
0.00165938 0.0180426 -0.00875156
-2.33531e-15 -1.26554e-14 4.91785e-14
0.00258083 0.00351979 0.00298573
0.00147193 -0.0116598 -0.0151387
-0.000379517 -0.000588392 -0.00161858
0.000540781 0.00306293 0.0010541
0.00422925 0.00537553 0.00245854
-0.0336433 -0.0330837 -0.0444691
0.00213269 0.00345198 0.000198881
0.00117251 -0.0186516 0.00834882
0.0028435 0.00181632 0.00257844
0.00069837 0.000551941 -0.000497012
0.00475075 0.00370629 0.00276561
-0.00370893 0.00155776 -0.00071932
0.000624312 -0.0243603 -0.0020128
-7.74634e-05 -0.0242873 0.00360656
0.143161 0.010459 -0.255032
0.00334943 0.000906015 0.00382664
0.00430172 0.0079762 -0.000234779
0.00134329 -0.0159303 -0.0115405
-0.0161783 0.00404869 -0.000999287
0.00394577 0.00388991 -0.00123257
0.0405382 0.109727 -0.142694
0.00504921 0.00219152 -0.0047435
9.3664e-15 7.12204e-14 1.94478e-13
0.000102453 -0.00241469 0.0259048
0.000246219 0.000153076 4.48322e-05
-0.0363771 0.0206017 0.0538116
0.00551522 0.0021555 -0.00288288
0.000229332 0.0156744 0.00943731
0.0117523 0.102484 -0.269011
0.00654822 -0.00329158 -0.00149854
-0.00613082 -0.00672067 -0.00938369
0.000882519 -0.0024159 -0.00964341
0.00472137 0.00489814 0.00206782
-0.000152099 0.000227966 -5.25276e-05
-0.0444405 0.00506546 0.00060776
0.00212326 0.00113659 -0.00383371
0.0679613 0.0785531 -0.297992
-0.00904585 -0.000250363 0.00932798
0.000605392 0.0223005 -0.00392121
-0.103198 -0.171897 0.102331
0.000403699 -0.0239661 -0.00895909
0.00101081 0.0207813 -0.00763544
-0.0331869 0.0323961 -0.0252711
0.00227638 -0.000540677 0.00110134
0.00205572 0.0153421 -0.00746705
-0.0288704 -0.00474956 -0.0334109
-0.00154857 0.00261081 -0.00672019
-0.0170272 0.184859 -0.798536
0.000138736 -0.0127491 0.0224936
-0.000716013 -0.00978772 -0.0115336
-0.00259401 0.0059976 0.00171465
0.000196664 0.000202136 0.00111229
0.000211168 0.0222928 0.0127513
0.0010234 0.016942 -0.0149453
0.000144146 -0.0146643 -0.0213231
0.00538983 -0.00144608 -0.00592469
-0.00109043 0.000631427 0.00156818
0.000316042 0.00119153 0.000200177
-0.00199039 0.00857113 0.00085963
-0.000388508 -0.00905001 -0.0147936
0.00581116 0.00424686 -0.00141929
0.00571431 0.0026634 -0.00596953
-0.0120741 0.00409635 0.000115985
0.00727725 0.00340732 -0.00212654
0.00276641 0.00162012 -0.00340758
0.00459389 0.00363715 -0.0012864
0.00184744 -0.00134509 7.14133e-06
-0.000950714 0.00677075 -0.00472251
0.00103425 -0.000406285 1.20145e-05
1.51421e-05 0.0219713 -0.0125782
0.00423886 0.00688583 0.000776056
-0.000249385 0.00756568 0.000739074
0.00567536 0.00239057 -0.0126915
0.00805776 0.00263111 -0.0138512
0.00217263 0.00504136 -0.000306442
-0.00623177 -0.0838661 0.112921
0.000246483 -0.000907445 -0.000289229
0.000953419 0.00109401 -0.00836344
0.00294175 0.000986606 -0.000755882
0.000950574 -0.00098478 -0.00410556
-4.74364e-07 0.0284533 -0.00515981
0.127629 -0.0177872 -0.194818
0.00243653 -0.00495642 0.00321657
-0.003473 0.00160455 0.00234854
0.00313493 0.0022839 -0.00688243
0.00441786 0.00522236 0.00855699
-0.000231004 -0.0171821 0.0162161
-7.06931e-10 0.0226772 0.00814882
0.0247104 0.0177561 -0.0227918
0.00137555 -0.00443797 -0.015392
-0.00239765 -1.51756e-05 -0.0117246
0.000115828 0.00660282 0.00254719
0.00636996 -0.00147078 -0.000985761
0.00511671 0.00310124 -0.00619769
-0.00232924 -0.000701963 -7.25231e-05
-0.0759242 -0.0639424 -0.244464
0.00213928 0.0110467 -0.00136203
0.000524022 0.00373033 -0.000355628
0.00221626 -0.000532582 -0.00373594
0.00780614 0.00114615 0.000758836
0.000812234 0.000360555 -0.00057814
0.000192317 0.00455764 0.0245764
0.000679302 5.6313e-05 -0.0031567
0.00400537 0.00219885 -0.00240903
-0.0064632 -0.00577237 -0.0314474
0.00463681 0.0030604 0.00446837
-0.00343138 -0.00810302 -0.0141685
0.00366386 0.0390359 -0.0160479
0.00545395 0.00581669 -0.00400732
-0.0175764 -0.00917751 -0.0308048
-0.0102918 0.0239277 -0.00768717
-0.000904863 0.000260499 -0.000868293
-0.000953328 -9.06539e-05 0.000561762
-0.0149607 0.000208062 -0.000716937
-1.44208e-10 0.0291343 0.000350757
-0.0197911 -0.00704605 0.00898423
0.00359583 0.00435807 0.00953157
0.00641686 -0.00300032 -0.00317608
0.002016 0.0047691 0.00191082
0.0004926 0.000124311 0.00169077
0.00478874 0.00681331 -0.00018518
-0.0778145 -0.0104579 -0.06557
0.00114823 0.000613203 -0.00144648
0.00451572 0.00321201 0.0039417
-0.0100678 0.0127835 -0.0134253
0.000735324 -0.00102984 -0.0232153
-0.000256015 -0.0223666 -0.0134381
0.000467545 -0.0202172 0.0121118
0.0116748 0.00643931 0.0121922
-0.00894996 -0.00931503 -0.00860776
0.00805736 0.00167874 0.00620542
0.00297295 0.0106219 -0.0141154
0.00137878 0.00186 0.00521116
0.0189256 0.0117989 -0.0063917
-0.000459028 -0.00800212 -0.0126341
-0.000248017 0.000886428 0.000153701
-0.00711403 -0.00835288 0.00869175
0.00495772 0.0026826 -0.00265949
0.00517755 0.00223196 -0.00157604
0.00620765 0.00582201 -0.0068604
-0.00444364 0.00244961 -0.0075438
0.00388174 0.00816771 0.000830539
3.3055e-05 -0.000169149 -0.000192242
-0.00237448 0.00281713 0.00243557
-0.00575629 0.00524967 -0.00903114
0.00503053 -0.0011983 0.00165695
0.000761444 -0.00262186 -0.00298111
0.00161077 -0.00181786 -0.00951939
0.000299157 -0.0276331 0.00603015
0.00224544 0.000102342 0.00325027
-0.0043363 0.00742967 -0.00357202
0.0048203 0.00614916 -0.00219712
0.00591495 0.00692918 -0.0040876
0.00271497 9.84386e-05 -5.63093e-05
0.00114292 0.00129361 -6.50073e-05
0.00140225 -0.000739052 0.00201849
-0.000628154 0.0037526 0.00634839
1.69907e-05 0.0285612 -0.00633014
-6.59067e-05 0.000464522 0.00390972
0.00421888 0.00680663 0.00180003
0.00761302 -0.000785665 -0.00293358
0.00161182 -0.000819711 0.00125092
0.0035162 0.00449726 0.000814619
0.00023983 0.00146595 0.00226594
-1.1614e-05 0.00121945 -0.00242546
0.0053781 0.000960215 0.000158499
0.0137775 -0.00749324 -0.0331807
0.00168617 -0.0205214 0.000464928
0.0045515 -0.00469854 -0.00428247
1.68608e-05 -0.022315 -0.00994016
0.052225 0.0915038 -0.113125
-0.00258219 0.00465207 0.0159278
0.00443131 0.00662612 -0.00534936
0.00110419 -0.00682798 -0.0130539
0.00137383 0.000316688 0.00274317
-0.000246366 0.00451935 -0.0212449
-0.00693947 0.00943481 -0.0240447

VECTORS force float
0.0 0.0 -1.43822e-06
-9.44288e-07 1.25996e-06 4.1777e-07
0.0 0.0 -1.43822e-06
-1.03894e-09 1.50104e-08 -5.34593e-09
-7.02889e-07 -1.64179e-06 1.19298e-06
-8.18562e-06 2.74724e-06 5.46426e-06
-6.2403e-07 2.57841e-07 -1.11583e-08
-9.17771e-06 -9.13174e-07 9.40461e-06
-3.1411e-06 -6.9944e-07 -1.01429e-06
-1.32923e-06 -1.77245e-06 6.55447e-07
-6.71675e-06 4.37184e-06 -1.21508e-05
1.4152e-08 1.42716e-08 -1.38754e-06
8.0393e-07 6.84413e-07 8.99783e-07
1.79055e-07 -6.21331e-07 1.35904e-06
-2.04936e-07 6.68245e-07 -3.55256e-08
-3.60859e-08 2.16976e-08 -1.76113e-08
-5.53938e-09 8.35454e-09 -2.15622e-08
0.0 0.0 -1.43822e-06
3.40566e-07 2.50754e-07 7.11851e-07
0.0 0.0 -1.43822e-06
3.30623e-08 6.22795e-07 -1.5091e-06
-1.17149e-19 9.26442e-21 1.27055e-21
2.37549e-06 -9.28703e-06 -5.70762e-06
0.0 0.0 -1.43822e-06
1.99466e-08 -1.76629e-08 2.03598e-09
5.079e-08 2.11748e-07 -7.05848e-07
0.0 0.0 0.0
2.4878e-07 8.03587e-08 -1.07384e-06
-4.15367e-09 1.69089e-08 7.90169e-09
-1.41918e-09 4.26409e-09 6.03004e-09
1.95937e-09 -8.18142e-08 -2.39217e-08
0.0 0.0 -1.43822e-06
7.67093e-07 -5.52916e-07 2.28553e-07
-1.13526e-18 1.40449e-19 -5.781e-20
-6.10893e-07 -3.07366e-07 -1.85996e-06
1.03979e-07 4.19261e-06 3.70192e-06
-4.06007e-07 1.3912e-08 -4.7412e-07
-4.73865e-08 -2.43199e-07 3.77209e-07
-4.10415e-08 9.64712e-08 6.32691e-08
-1.3893e-06 -2.4327e-06 3.3116e-07
1.33503e-07 -5.8399e-08 2.63988e-07
-1.43935e-06 2.10374e-06 -6.00535e-06
5.54066e-06 2.45015e-06 1.20185e-06
7.20335e-08 -9.20784e-07 -4.9299e-07
7.05593e-07 -5.38661e-07 -6.71248e-08
7.49836e-19 -5.30984e-20 2.03288e-20
-7.41403e-07 -9.99216e-08 -1.59225e-06
6.39887e-06 -3.39854e-06 -2.81051e-06
-1.5234e-06 6.49477e-08 5.42279e-07
-1.09844e-07 9.71239e-07 2.50033e-07
-7.53493e-07 1.98601e-06 1.28537e-06
0.0 0.0 -1.43822e-06
6.37668e-07 -5.5655e-07 1.12285e-07
-7.69174e-08 -3.25085e-08 1.03802e-07
-3.7623e-08 -1.47673e-07 -1.02466e-07
7.99141e-08 -1.86565e-07 1.00066e-07
2.89511e-07 8.94611e-08 -1.01119e-06
1.97504e-06 -1.2161e-06 3.93996e-07
-1.07147e-08 -1.92124e-08 1.45462e-08
9.66096e-10 -6.58552e-09 1.4051e-08
0.0 0.0 -1.43822e-06
-2.50489e-07 -2.2632e-07 -1.60481e-06
9.53579e-07 2.51226e-06 -1.47708e-06
-1.33223e-08 -3.47643e-08 -1.70083e-08
4.48027e-06 5.82807e-06 -1.26924e-06
1.85546e-06 4.85721e-08 -4.30242e-06
0.0 0.0 -1.43822e-06
-2.62546e-06 3.73284e-06 8.99252e-06
-1.62921e-20 -5.29396e-23 1.90582e-21
-4.57835e-10 1.44511e-08 5.42287e-09
8.87513e-07 9.87134e-07 9.92013e-07
0.0 0.0 -1.43822e-06
3.31011e-06 -5.89473e-07 7.03713e-06
-2.24918e-08 -1.49884e-07 -1.05756e-07
0.0 0.0 -1.43822e-06
1.85137e-07 -1.96717e-07 -1.70851e-07
8.89882e-06 3.6047e-06 1.86495e-05
2.26879e-05 4.95456e-06 5.55074e-06
-1.84045e-07 -1.17907e-07 -1.58612e-07
-5.97649e-07 9.9613e-07 6.70069e-07
0.0 0.0 -1.43822e-06
8.92965e-08 5.53967e-08 2.55954e-07
0.0 0.0 -1.43822e-06
0.0 0.0 -1.43822e-06
-1.27641e-08 1.26339e-08 -8.69382e-09
0.0 0.0 -1.43822e-06
1.7738e-09 -1.1287e-08 1.35212e-08
-3.47389e-09 9.10458e-09 -1.7398e-08
0.0 0.0 -1.43822e-06
-6.37183e-08 -1.98596e-07 8.22426e-08
-5.27269e-09 5.87457e-09 -5.62556e-08
0.0 0.0 -1.43822e-06
-4.16638e-08 -3.76012e-08 1.15965e-07
0.0 0.0 -1.43822e-06
-5.18713e-10 1.17157e-08 1.24063e-08
-5.68832e-07 -6.57094e-09 -9.15902e-07
1.04338e-07 7.40525e-07 2.21027e-09
5.85749e-07 -1.51274e-06 4.83871e-08
-1.53306e-09 1.3102e-08 -1.10861e-08
3.58242e-07 -1.14485e-06 2.03354e-06
-2.54628e-09 -1.66446e-08 -2.66334e-09
4.83933e-08 -4.35576e-08 9.02362e-09
-8.40534e-07 -1.02133e-06 8.72921e-07
-4.25728e-08 6.18377e-07 -4.92342e-07
-1.11835e-07 -5.3415e-07 -5.50564e-07
-1.33859e-08 -3.89964e-08 -4.66058e-09
0.0 0.0 -1.43822e-06
-7.58665e-07 5.59257e-07 -3.38546e-07
1.23256e-06 -5.32803e-06 2.02306e-06
2.90029e-06 -3.18756e-06 7.40539e-06
-9.55317e-06 -4.8941e-06 5.45654e-06
2.21566e-07 -4.14725e-07 1.05706e-06
-3.77803e-07 -4.94231e-06 4.23666e-06
0.0 0.0 -1.43822e-06
7.39342e-06 -2.54132e-07 -1.62291e-06
-1.28043e-08 1.83963e-07 -1.54116e-07
-3.35848e-07 4.64388e-07 -2.02813e-07
-2.10631e-07 2.22269e-07 -1.27557e-07
6.89796e-07 1.31981e-06 -1.28567e-06
6.16782e-07 -1.08014e-06 -9.94307e-07
-2.71768e-07 -4.14834e-08 5.1096e-07
0.0 0.0 -1.43822e-06
-1.08084e-06 -3.98284e-08 2.76491e-07
2.00607e-06 -7.39821e-07 4.56339e-06
-4.91836e-07 2.20195e-07 2.86379e-07
4.62815e-06 2.90251e-06 1.06974e-06
1.51965e-12 -3.59607e-09 -2.28992e-08
0.0 0.0 -1.43822e-06
6.97844e-06 1.7493e-06 -2.90524e-06
2.13312e-06 -2.40407e-06 -1.02046e-06
-2.07101e-08 6.4305e-08 -2.01109e-07
1.66622e-06 -6.14979e-07 3.29069e-06
2.6615e-09 2.42308e-09 1.63718e-08
-1.05135e-12 6.28494e-09 -1.77614e-08
0.0 0.0 -1.43822e-06
-9.54755e-05 9.94743e-06 3.37947e-05
-2.17169e-06 -8.42426e-08 4.78109e-07
0.0 0.0 -1.43822e-06
1.13054e-06 -5.21621e-06 4.01622e-06
1.3043e-07 -9.929e-07 5.01612e-07
-1.44217e-06 -1.13067e-06 -8.7863e-07
0.0 0.0 -1.43822e-06
-7.26276e-08 8.2407e-07 -5.5944e-08
-4.6528e-07 1.38667e-06 -8.26234e-07
-2.09468e-06 1.09407e-05 7.28984e-06
-3.87615e-07 6.66432e-07 1.07618e-06
-3.27317e-07 1.65691e-07 2.46715e-07
-1.69787e-09 1.71851e-08 7.13934e-09
-1.20427e-06 1.2911e-06 -3.76202e-06
-9.3651e-08 -3.16016e-07 7.46167e-07
0.0 0.0 -1.43822e-06
-9.43903e-08 2.30136e-07 2.65287e-07
-3.6038e-06 -3.61213e-06 -6.87589e-06
0.0 0.0 -1.43822e-06
6.43867e-07 -2.63077e-07 1.36101e-06
0.0 0.0 -1.43822e-06
5.82734e-07 5.88826e-07 -1.75757e-07
-1.16913e-06 4.26048e-07 5.54101e-07
-6.9408e-07 -3.05664e-07 -1.48866e-06
1.84717e-08 2.41537e-07 -6.58918e-07
-1.17885e-15 5.65602e-11 -2.33606e-08
0.0 0.0 -1.43822e-06
0.0 0.0 -1.43822e-06
4.69363e-08 -3.96638e-08 8.81266e-09
1.47478e-07 3.30421e-06 9.28143e-07
1.06953e-07 -1.64515e-06 -1.6845e-06
8.40315e-07 -3.01195e-07 7.37149e-07
0.0 0.0 -1.43822e-06
-1.84347e-08 -7.82448e-08 -1.26192e-07
4.2094e-08 5.15675e-07 -7.17961e-07
-2.73335e-08 -1.3381e-07 -1.00845e-06
0.0 0.0 -1.43822e-06
-7.79131e-10 -8.39584e-09 1.32342e-08
-1.93269e-09 -3.4759e-11 1.95511e-08
0.0 0.0 -1.43822e-06
-8.83424e-07 3.71131e-07 3.00028e-08
7.01446e-06 -4.02327e-06 8.11937e-06
0.0 0.0 -1.43822e-06
-7.3941e-07 1.37851e-06 2.17252e-06
4.42357e-06 -1.66678e-06 5.1868e-06
0.0 0.0 -1.43822e-06
-1.48176e-06 4.41541e-08 -2.44653e-08
4.65866e-08 7.25142e-07 -9.26967e-07
-5.07176e-07 -4.79289e-07 1.84851e-07
5.54337e-07 -3.92531e-06 6.31134e-06
-8.93643e-07 -4.09336e-07 1.59753e-06
-3.11007e-06 -1.08018e-06 -1.01065e-07
-2.89669e-08 -1.57454e-07 -7.6483e-07
2.54869e-07 1.34222e-07 -9.61711e-07
-3.38782e-07 -5.64608e-08 -1.0279e-06
1.31974e-07 1.07138e-06 -1.24481e-06
-1.23002e-07 -1.64115e-07 -7.71073e-08
-1.82196e-07 5.50729e-09 -9.81131e-07
-9.05059e-06 -3.84334e-06 -9.01036e-06
0.0 0.0 -1.43822e-06
1.2968e-06 -2.21279e-07 1.12096e-06
5.56978e-07 5.20403e-07 -6.66093e-07
-2.91658e-07 1.78123e-06 1.88517e-06
2.41988e-07 2.43573e-07 -1.64613e-07
2.25421e-06 2.03092e-06 -5.15129e-07
-7.72515e-07 -5.29247e-07 -8.78475e-07
-7.47744e-08 -5.33359e-07 -3.63873e-07
2.48921e-06 -5.21468e-08 1.65146e-06
1.78866e-07 -1.00719e-08 -1.63248e-08
-8.49637e-08 -1.3942e-06 2.16591e-06
1.29015e-06 1.18813e-06 3.91724e-06
-2.51182e-06 -3.33749e-06 1.47644e-06
-7.60937e-07 1.65848e-06 1.7397e-06
-3.54826e-07 1.21282e-06 1.27534e-06
7.72023e-08 -1.0784e-07 -7.5566e-07
0.0 0.0 -1.43822e-06
1.50404e-08 -7.37801e-08 -1.94482e-08
0.0 0.0 -1.43822e-06
-2.3251e-08 -5.76854e-08 1.43487e-08
3.18129e-08 -6.16473e-08 -4.62869e-09
-2.03456e-10 -1.24117e-08 9.46204e-09
0.0 0.0 -1.43822e-06
0.0 0.0 -1.43822e-06
-3.48311e-08 7.42423e-07 -1.05983e-07
4.04259e-06 3.05908e-06 2.03687e-06
1.10464e-06 -7.18791e-07 -6.68108e-09
-1.16029e-06 -6.71355e-07 1.21561e-06
0.0 0.0 -1.43822e-06
