# vtk DataFile Version 3.0
LIGGGHTS particles timestep 3200000
ASCII
DATASET POLYDATA
POINTS 235 float
0.0191271 0.0245164 0.0136573
0.0244429 0.0193213 0.0159653
0.0184798 0.0147293 0.0138489
0.0281145 0.0232845 0.0124283
0.0218152 0.0246528 0.0191795
0.0189801 0.0143805 0.0160375
0.021943 0.015012 0.0148598
0.0250039 0.0147883 0.0109576
0.0182971 0.0145393 0.0153245
0.0213972 0.0155567 0.016492
0.0196056 0.0240986 0.012681
0.0241587 0.0161101 0.0148354
0.0206166 0.0148986 0.0163411
0.0145836 0.0217655 0.0169421
0.0204502 0.0147135 0.0136691
0.0274058 0.0228059 0.00926266
0.0263656 0.0187247 0.00720215
0.0210688 0.0215264 0.00803703
0.0202163 0.0142542 0.0145682
0.0238786 0.0167328 0.0164138
0.0185053 0.0243189 0.0169616
0.0166088 0.0237679 0.016643
0.0323628 0.0185121 0.00591356
0.0145349 0.0202905 0.0165998
0.0170282 0.0211997 0.0161395
0.025961 0.0172507 0.00756103
0.0196047 0.0144284 0.0132176
0.00328607 0.0109634 0.0435188
0.0205592 0.0240476 0.0126527
0.0283279 0.022904 0.0133718
0.0129462 0.0204907 0.0157142
0.0276231 0.0231998 0.010252
0.0186459 0.0240911 0.0127854
0.0208189 0.014793 0.0153642
0.151427 0.0197366 0.00603425
0.0206921 0.022227 0.015686
0.0151432 0.0210474 0.0163613
0.0209059 0.0242618 0.0140495
0.021307 0.0234938 0.0142559
0.0256219 0.0211493 0.0168338
0.0202252 0.015526 0.0142071
0.0139054 0.0223201 0.0156069
0.0201049 0.0244756 0.0135616
0.0236893 0.017988 0.0158868
0.0229964 0.0237223 0.015036
0.0177125 0.0163694 0.0162326
0.0237665 0.0220041 0.0148897
0.0241644 0.0158407 0.0157982
0.0250634 0.0210737 0.0160394
0.0254024 0.0189522 0.0160825
0.025348 0.0176961 0.0157647
0.0202032 0.0181562 0.00730283
0.0186364 0.0240258 0.0144446
0.0252026 0.0167544 0.0161918
0.0162708 0.023306 0.0130996
0.0224662 0.0186857 0.0167756
0.0215678 0.0239191 0.0134393
0.0217974 0.0227877 0.00926209
0.0196684 0.0240613 0.014425
0.0165245 0.0228568 0.0140024
0.024347 0.0154084 0.0137957
0.0169526 0.023383 0.0124945
0.0213512 0.0215922 0.0160993
0.0237308 0.0151747 0.0150993
0.0188797 0.0146334 0.011894
0.017949 0.0223281 0.0150255
0.0180702 0.0194949 0.0167439
0.0199251 0.0154541 0.00921179
0.0167466 0.019913 0.0167194
0.0190891 0.0136451 0.0135667
0.023127 0.0206285 0.0160239
0.0222982 0.0230436 0.0134236
0.0211144 0.0157315 0.0155488
0.0239403 0.0169541 0.015441
0.0127094 0.0195411 0.0159196
0.0200643 0.023969 0.0157968
0.0185336 0.0156128 0.0163678
0.0149942 0.0148712 0.0146652
0.0219787 0.0150434 0.0158588
0.0251584 0.0200144 0.0158647
0.0204333 0.0190703 0.00717237
0.0219471 0.0241291 0.0143216
0.0178168 0.0237821 0.0149588
0.0195147 0.0238208 0.013469
0.0223211 0.0174565 0.0165131
0.018222 0.0237347 0.016201
0.0272282 0.0222158 0.00855919
0.0175382 0.0227379 0.015845
0.0167229 0.0221559 0.0146804
0.0269644 0.0213075 0.00789598
0.0172794 0.0237039 0.0158642
0.0229818 0.0147192 0.0145182
0.0266673 0.0202862 0.00739708
0.0191902 0.0240844 0.016267
0.0201383 0.013739 0.0137146
0.0193509 0.0232749 0.015702
0.0225256 0.0225776 0.0141286
0.0235343 0.0214394 0.015663
0.01935 0.0215516 0.0161654
0.0250023 0.0219337 0.0164931
0.0278775 0.023385 0.0112268
0.02414 0.0210475 0.0166373
0.0172179 0.0202477 0.015899
0.0159903 0.0156396 0.0161624
0.02191 0.0162788 0.0159713
0.0219198 0.0231567 0.0160424
0.0193953 0.0189628 0.0159466
0.0174671 0.0231063 0.0137812
0.0138088 0.0163063 0.0150065
0.0204116 0.0173491 0.00752739
0.0191099 0.0231953 0.0147304
0.012544 0.0204321 0.0166359
0.0144135 0.0229593 0.0150298
0.0207899 0.0166204 0.00792892
0.0173366 0.0242078 0.0141926
0.0210492 0.0229385 0.0150601
0.0165844 0.0237762 0.0149162
0.0178411 0.0207053 0.0165346
0.0196784 0.0160421 0.00847656
0.0198853 0.0146186 0.01568
0.0180856 0.0140565 0.0144748
0.0171041 0.0140018 0.0142913
0.0257112 0.0182449 0.0170955
0.0203218 0.014619 0.0119428
0.0154064 0.0223696 0.0164774
0.0177049 0.0239173 0.0127518
0.0198303 0.0166618 0.00792559
0.0181783 0.0199423 0.0158556
0.0214125 0.0229679 0.00970552
0.0156443 0.0234723 0.0143911
0.0178299 0.0217875 0.015979
0.0177243 0.0244584 0.0182497
0.0181489 0.0243277 0.0136272
0.0217846 0.0235989 0.0151516
0.0179531 0.0208687 0.0155544
0.0162853 0.0143407 0.013828
0.0174879 0.0234746 0.0117407
0.0188165 0.0204953 0.0166009
0.0158336 0.0152122 0.015088
0.0248602 0.0147575 0.0118957
0.0196545 0.0223264 0.0156118
0.0200572 0.0229906 0.0149672
0.0134542 0.0193583 0.0165612
0.0191329 0.0141856 0.0144071
0.0194115 0.0240851 0.0180131
0.0187874 0.018059 0.015857
0.0189195 0.0170901 0.0160653
0.0246185 0.0183367 0.0160067
0.0164486 0.0238444 0.0139277
0.0167164 0.0153667 0.0155313
0.0225108 0.0229641 0.0149418
0.0224681 0.0232388 0.0126896
0.0187574 0.0217405 0.0150358
0.0180585 0.016489 0.0151392
0.0147227 0.0218591 0.0159562
0.0217322 0.0232696 0.0105824
0.0238817 0.022814 0.015481
0.0172461 0.0229928 0.0147737
0.0158963 0.0204243 0.0165954
0.0203619 0.0204971 0.0165476
0.0241629 0.0203166 0.015768
0.0194745 0.0157195 0.0156186
0.0203416 0.0214232 0.016169
0.0245026 0.0221281 0.0157092
0.0200196 0.0163081 0.0150147
0.0210952 0.0183294 0.0167005
0.0186977 0.022289 0.0159369
0.0229692 0.0229262 0.0157984
0.015067 0.0156999 0.0155065
0.022731 0.0154829 0.0163506
0.0213193 0.0142245 0.0135234
0.0190773 0.014845 0.0106731
0.0186887 0.0146374 0.0128754
0.0189531 0.0208688 0.015552
0.0221454 0.0144573 0.0140367
0.0175455 0.0146516 0.0159803
0.0193703 0.0152155 0.0137888
0.0244403 0.0212823 0.015332
0.0160821 0.0213884 0.0164064
0.0231232 0.0229088 0.0137112
0.0229164 0.0221058 0.017145
0.0244522 0.0203148 0.0172722
0.0175315 0.0241068 0.0168265
0.0152275 0.0225567 0.015448
0.0188996 0.0230787 0.0165863
0.0166345 0.0148113 0.0146435
0.019742 0.0153578 0.016513
0.0206202 0.0238128 0.0148931
0.0165839 0.0229995 0.0160037
0.0183098 0.0156005 0.0143093
0.0135387 0.0203657 0.0165571
0.0141134 0.0211497 0.01631
0.0216181 0.0190575 0.0171868
0.0207397 0.0215918 0.0170712
0.0191821 0.0199419 0.0158526
0.0229206 0.0196049 0.0167704
0.0235604 0.0222553 0.0162456
0.0197396 0.0217382 0.0170728
0.017256 0.0214986 0.0152127
0.0229391 0.0164272 0.0160968
0.0191849 0.0149519 0.0150474
0.0227697 0.0153739 0.0152907
0.0176728 0.0153163 0.0152441
0.0196841 0.0176308 0.0157103
0.0180981 0.0176427 0.0165392
0.0235195 0.0189591 0.0160906
0.0165774 0.0164591 0.0162227
0.01742 0.0192691 0.0159377
0.0183805 0.0189676 0.0159487
0.0221697 0.0221715 0.0161722
0.0201969 0.0228942 0.016248
0.0210306 0.0235854 0.0158695
0.0178449 0.0173501 0.0156071
0.019248 0.0158281 0.0145696
0.0200244 0.0188101 0.0167495
0.0160901 0.0229268 0.0151008
0.0234399 0.0228938 0.0146263
0.0211139 0.0146706 0.0144166
0.0239467 0.018538 0.0171371
0.019073 0.016552 0.0152367
0.0157745 0.0142446 0.0146822
0.0152861 0.0196442 0.0167332
0.0142342 0.015402 0.0150398
0.0219594 0.020851 0.0164659
0.0176278 0.0182923 0.0158776
0.0227765 0.0219677 0.0148734
0.0160867 0.0221631 0.0157743
0.0182413 0.0231761 0.0131525
0.0202861 0.017659 0.0165708
0.0248791 0.0166677 0.0152491
0.0131194 0.0212541 0.0163364
0.0216613 0.014604 0.0166997
0.0207433 0.0195864 0.0167072
0.0256102 0.0157792 0.00867662
0.0184007 0.0231222 0.0154313

VERTICES 235 470
1 0
1 1
1 2
1 3
1 4
1 5
1 6
1 7
1 8
1 9
1 10
1 11
1 12
1 13
1 14
1 15
1 16
1 17
1 18
1 19
1 20
1 21
1 22
1 23
1 24
1 25
1 26
1 27
1 28
1 29
1 30
1 31
1 32
1 33
1 34
1 35
1 36
1 37
1 38
1 39
1 40
1 41
1 42
1 43
1 44
1 45
1 46
1 47
1 48
1 49
1 50
1 51
1 52
1 53
1 54
1 55
1 56
1 57
1 58
1 59
1 60
1 61
1 62
1 63
1 64
1 65
1 66
1 67
1 68
1 69
1 70
1 71
1 72
1 73
1 74
1 75
1 76
1 77
1 78
1 79
1 80
1 81
1 82
1 83
1 84
1 85
1 86
1 87
1 88
1 89
1 90
1 91
1 92
1 93
1 94
1 95
1 96
1 97
1 98
1 99
1 100
1 101
1 102
1 103
1 104
1 105
1 106
1 107
1 108
1 109
1 110
1 111
1 112
1 113
1 114
1 115
1 116
1 117
1 118
1 119
1 120
1 121
1 122
1 123
1 124
1 125
1 126
1 127
1 128
1 129
1 130
1 131
1 132
1 133
1 134
1 135
1 136
1 137
1 138
1 139
1 140
1 141
1 142
1 143
1 144
1 145
1 146
1 147
1 148
1 149
1 150
1 151
1 152
1 153
1 154
1 155
1 156
1 157
1 158
1 159
1 160
1 161
1 162
1 163
1 164
1 165
1 166
1 167
1 168
1 169
1 170
1 171
1 172
1 173
1 174
1 175
1 176
1 177
1 178
1 179
1 180
1 181
1 182
1 183
1 184
1 185
1 186
1 187
1 188
1 189
1 190
1 191
1 192
1 193
1 194
1 195
1 196
1 197
1 198
1 199
1 200
1 201
1 202
1 203
1 204
1 205
1 206
1 207
1 208
1 209
1 210
1 211
1 212
1 213
1 214
1 215
1 216
1 217
1 218
1 219
1 220
1 221
1 222
1 223
1 224
1 225
1 226
1 227
1 228
1 229
1 230
1 231
1 232
1 233
1 234

POINT_DATA 235
SCALARS id int 1
LOOKUP_TABLE default
1
2
3
5
7
8
9
10
11
12
13
16
17
18
19
20
21
22
23
24
26
27
28
30
31
32
33
35
36
37
41
42
43
44
45
47
48
49
52
53
54
55
57
58
59
60
61
62
63
64
65
68
69
70
71
72
73
74
76
77
78
80
81
84
85
86
87
88
89
90
91
94
95
96
97
99
103
105
106
107
111
112
113
115
116
117
118
119
120
121
123
124
125
126
127
129
130
131
132
133
134
137
139
141
143
144
145
146
147
148
149
150
151
152
155
156
157
160
161
162
163
164
165
167
169
170
171
172
173
174
175
176
177
179
180
181
182
183
185
186
187
188
189
190
192
193
194
196
198
199
201
202
203
204
205
206
207
208
209
210
211
212
213
214
216
217
218
220
221
222
223
224
225
226
227
228
229
232
233
234
235
237
238
239
241
242
243
244
245
246
249
250
252
253
254
256
257
258
259
261
262
264
265
266
267
268
269
270
271
272
273
274
275
276
277
278
279
280
282
283
284
285
286
287
288
289
290
291
292
293
294
295
296
299
300

SCALARS type int 1
LOOKUP_TABLE default
1
1
1
1
1
1
1
1
1
1
1
1
1
1
1
1
1
1
1
1
1
1
1
1
1
1
1
1
1
1
1
1
1
1
1
1
1
1
1
1
1
1
1
1
1
1
1
1
1
1
1
1
1
1
1
1
1
1
1
1
1
1
1
1
1
1
1
1
1
1
1
1
1
1
1
1
1
1
1
1
1
1
1
1
1
1
1
1
1
1
1
1
1
1
1
1
1
1
1
1
1
1
1
1
1
1
1
1
1
1
1
1
1
1
1
1
1
1
1
1
1
1
1
1
1
1
1
1
1
1
1
1
1
1
1
1
1
1
1
1
1
1
1
1
1
1
1
1
1
1
1
1
1
1
1
1
1
1
1
1
1
1
1
1
1
1
1
1
1
1
1
1
1
1
1
1
1
1
1
1
1
1
1
1
1
1
1
1
1
1
1
1
1
1
1
1
1
1
1
1
1
1
1
1
1
1
1
1
1
1
1
1
1
1
1
1
1
1
1
1
1
1
1
1
1
1
1
1
1
1
1
1
1
1
1

SCALARS radius float 1
LOOKUP_TABLE default
0.0005
0.0005
0.0005
0.0005
0.0005
0.0005
0.0005
0.0005
0.0005
0.0005
0.0005
0.0005
0.0005
0.0005
0.0005
0.0005
0.0005
0.0005
0.0005
0.0005
0.0005
0.0005
0.0005
0.0005
0.0005
0.0005
0.0005
0.0005
0.0005
0.0005
0.0005
0.0005
0.0005
0.0005
0.0005
0.0005
0.0005
0.0005
0.0005
0.0005
0.0005
0.0005
0.0005
0.0005
0.0005
0.0005
0.0005
0.0005
0.0005
0.0005
0.0005
0.0005
0.0005
0.0005
0.0005
0.0005
0.0005
0.0005
0.0005
0.0005
0.0005
0.0005
0.0005
0.0005
0.0005
0.0005
0.0005
0.0005
0.0005
0.0005
0.0005
0.0005
0.0005
0.0005
0.0005
0.0005
0.0005
0.0005
0.0005
0.0005
0.0005
0.0005
0.0005
0.0005
0.0005
0.0005
0.0005
0.0005
0.0005
0.0005
0.0005
0.0005
0.0005
0.0005
0.0005
0.0005
0.0005
0.0005
0.0005
0.0005
0.0005
0.0005
0.0005
0.0005
0.0005
0.0005
0.0005
0.0005
0.0005
0.0005
0.0005
0.0005
0.0005
0.0005
0.0005
0.0005
0.0005
0.0005
0.0005
0.0005
0.0005
0.0005
0.0005
0.0005
0.0005
0.0005
0.0005
0.0005
0.0005
0.0005
0.0005
0.0005
0.0005
0.0005
0.0005
0.0005
0.0005
0.0005
0.0005
0.0005
0.0005
0.0005
0.0005
0.0005
0.0005
0.0005
0.0005
0.0005
0.0005
0.0005
0.0005
0.0005
0.0005
0.0005
0.0005
0.0005
0.0005
0.0005
0.0005
0.0005
0.0005
0.0005
0.0005
0.0005
0.0005
0.0005
0.0005
0.0005
0.0005
0.0005
0.0005
0.0005
0.0005
0.0005
0.0005
0.0005
0.0005
0.0005
0.0005
0.0005
0.0005
0.0005
0.0005
0.0005
0.0005
0.0005
0.0005
0.0005
0.0005
0.0005
0.0005
0.0005
0.0005
0.0005
0.0005
0.0005
0.0005
0.0005
0.0005
0.0005
0.0005
0.0005
0.0005
0.0005
0.0005
0.0005
0.0005
0.0005
0.0005
0.0005
0.0005
0.0005
0.0005
0.0005
0.0005
0.0005
0.0005
0.0005
0.0005
0.0005
0.0005
0.0005
0.0005
0.0005
0.0005
0.0005
0.0005
0.0005
0.0005
0.0005
0.0005
0.0005
0.0005
0.0005
0.0005

SCALARS mass float 1
LOOKUP_TABLE default
1.46608e-07
1.46608e-07
1.46608e-07
1.46608e-07
1.46608e-07
1.46608e-07
1.46608e-07
1.46608e-07
1.46608e-07
1.46608e-07
1.46608e-07
1.46608e-07
1.46608e-07
1.46608e-07
1.46608e-07
1.46608e-07
1.46608e-07
1.46608e-07
1.46608e-07
1.46608e-07
1.46608e-07
1.46608e-07
1.46608e-07
1.46608e-07
1.46608e-07
1.46608e-07
1.46608e-07
1.46608e-07
1.46608e-07
1.46608e-07
1.46608e-07
1.46608e-07
1.46608e-07
1.46608e-07
1.46608e-07
1.46608e-07
1.46608e-07
1.46608e-07
1.46608e-07
1.46608e-07
1.46608e-07
1.46608e-07
1.46608e-07
1.46608e-07
1.46608e-07
1.46608e-07
1.46608e-07
1.46608e-07
1.46608e-07
1.46608e-07
1.46608e-07
1.46608e-07
1.46608e-07
1.46608e-07
1.46608e-07
1.46608e-07
1.46608e-07
1.46608e-07
1.46608e-07
1.46608e-07
1.46608e-07
1.46608e-07
1.46608e-07
1.46608e-07
1.46608e-07
1.46608e-07
1.46608e-07
1.46608e-07
1.46608e-07
1.46608e-07
1.46608e-07
1.46608e-07
1.46608e-07
1.46608e-07
1.46608e-07
1.46608e-07
1.46608e-07
1.46608e-07
1.46608e-07
1.46608e-07
1.46608e-07
1.46608e-07
1.46608e-07
1.46608e-07
1.46608e-07
1.46608e-07
1.46608e-07
1.46608e-07
1.46608e-07
1.46608e-07
1.46608e-07
1.46608e-07
1.46608e-07
1.46608e-07
1.46608e-07
1.46608e-07
1.46608e-07
1.46608e-07
1.46608e-07
1.46608e-07
1.46608e-07
1.46608e-07
1.46608e-07
1.46608e-07
1.46608e-07
1.46608e-07
1.46608e-07
1.46608e-07
1.46608e-07
1.46608e-07
1.46608e-07
1.46608e-07
1.46608e-07
1.46608e-07
1.46608e-07
1.46608e-07
1.46608e-07
1.46608e-07
1.46608e-07
1.46608e-07
1.46608e-07
1.46608e-07
1.46608e-07
1.46608e-07
1.46608e-07
1.46608e-07
1.46608e-07
1.46608e-07
1.46608e-07
1.46608e-07
1.46608e-07
1.46608e-07
1.46608e-07
1.46608e-07
1.46608e-07
1.46608e-07
1.46608e-07
1.46608e-07
1.46608e-07
1.46608e-07
1.46608e-07
1.46608e-07
1.46608e-07
1.46608e-07
1.46608e-07
1.46608e-07
1.46608e-07
1.46608e-07
1.46608e-07
1.46608e-07
1.46608e-07
1.46608e-07
1.46608e-07
1.46608e-07
1.46608e-07
1.46608e-07
1.46608e-07
1.46608e-07
1.46608e-07
1.46608e-07
1.46608e-07
1.46608e-07
1.46608e-07
1.46608e-07
1.46608e-07
1.46608e-07
1.46608e-07
1.46608e-07
1.46608e-07
1.46608e-07
1.46608e-07
1.46608e-07
1.46608e-07
1.46608e-07
1.46608e-07
1.46608e-07
1.46608e-07
1.46608e-07
1.46608e-07
1.46608e-07
1.46608e-07
1.46608e-07
1.46608e-07
1.46608e-07
1.46608e-07
1.46608e-07
1.46608e-07
1.46608e-07
1.46608e-07
1.46608e-07
1.46608e-07
1.46608e-07
1.46608e-07
1.46608e-07
1.46608e-07
1.46608e-07
1.46608e-07
1.46608e-07
1.46608e-07
1.46608e-07
1.46608e-07
1.46608e-07
1.46608e-07
1.46608e-07
1.46608e-07
1.46608e-07
1.46608e-07
1.46608e-07
1.46608e-07
1.46608e-07
1.46608e-07
1.46608e-07
1.46608e-07
1.46608e-07
1.46608e-07
1.46608e-07
1.46608e-07
1.46608e-07
1.46608e-07
1.46608e-07
1.46608e-07
1.46608e-07
1.46608e-07
1.46608e-07
1.46608e-07
1.46608e-07
1.46608e-07
1.46608e-07
1.46608e-07
1.46608e-07
1.46608e-07
1.46608e-07
1.46608e-07
1.46608e-07
1.46608e-07

VECTORS velocity float
-0.000343976 0.00113315 0.00164954
-0.0192705 0.0105278 0.00347058
-0.000565473 0.00833946 0.0211815
0.000983912 0.00381769 -0.0217953
0.0185757 -0.0265282 -0.0449957
0.00762386 0.00889792 0.00633702
0.0155248 0.00237678 0.00276907
0.000493465 -0.00326688 0.02287
-0.00343149 0.0149104 0.0187912
-0.000234785 0.00245851 0.000932545
0.000318349 -0.0012399 0.00250487
0.00872724 0.00918446 0.00660682
-0.00529734 0.00207086 0.00991167
0.0041171 0.00295859 -0.00248042
0.00276569 0.00591213 0.0189969
0.00163578 -0.0100145 -0.016275
0.000381064 -0.023644 0.00257217
-2.27722e-05 -0.0202575 -0.0154488
0.0115944 0.0021462 0.00437823
0.00644924 -0.00966243 -0.00293152
0.0176246 0.000197401 -0.00173667
0.0026439 0.00016088 -0.0036781
-2.3823e-15 -9.59006e-15 -2.35335e-14
0.000333717 0.00374036 -0.00148167
-0.000428842 0.0104317 0.00187379
-0.000113924 -0.021929 0.00986236
0.00799097 0.00255417 0.010849
6.38833e-209 -1.5534e-208 -2.81922e-12
0.000977113 -0.000783288 -0.00102517
8.65232e-05 0.0131829 -0.0219848
0.00195342 0.00317798 -0.00192659
0.00141849 -0.00688857 -0.0182876
0.000725578 0.00123084 0.00463625
0.0121587 -0.00567732 0.0105636
2.13502e-14 3.20332e-14 -3.48898e-13
0.00159851 0.00370271 -0.017811
-0.00018819 0.00377981 -0.000564456
-5.17431e-05 -0.00151015 0.000439409
0.000736952 -0.00626044 0.00232161
0.000742588 -0.000943065 -0.00123438
0.00485914 0.00564843 0.00637267
7.40454e-05 -2.18838e-05 -0.00130047
-0.000135682 0.000778184 0.00160272
0.000687015 0.0180689 0.00648099
-0.0611469 -0.0616341 0.113849
0.00312599 0.0389259 0.0119242
-0.00347014 -0.00252631 0.000327287
0.0056063 0.00306498 0.00575931
0.000180411 -0.000244852 -0.0040805
-8.1255e-05 0.0178687 0.0057486
0.00504915 0.0040227 -0.00157226
0.000247874 -0.0243159 0.00468138
0.00346072 -8.46e-05 -0.000783368
-0.00795222 -0.0200354 0.0103591
0.00365634 0.00353633 -0.004043
0.0022798 0.0260161 -0.00449101
-0.000984368 -0.00137637 0.000312429
0.00117154 0.00200609 -0.00263276
-8.50061e-05 0.00199718 0.00162928
0.00362035 -0.000382399 -0.00950927
0.000565144 0.0129598 0.0190342
0.0015133 0.00248332 -0.00285518
-0.00219023 0.0061036 -0.000730413
0.0108896 0.00834102 0.00967069
0.00248609 -0.00592624 0.0224748
0.00491944 0.00430082 0.00354269
-0.00517555 0.0112784 1.03785e-05
-0.000253839 -0.0152236 0.02029
0.00780771 0.0144467 -0.00181011
0.00109138 0.00185877 -0.00257666
0.00255054 0.0113516 0.00236712
0.00019051 0.00860624 -0.0239271
0.000974924 0.00115869 -0.00125286
0.00492028 0.0297386 -0.00891529
-0.00131064 0.00406114 -0.00181929
-0.00324641 0.0105094 0.0228436
0.0165101 -0.0146884 -0.0832977
-0.00096689 0.000404353 0.000305515
0.0126401 0.0061677 0.00313803
-0.0058931 -0.00094391 0.00347061
0.00071064 -0.0225597 0.000667189
-0.000669028 -0.00278222 -0.00214244
0.00327711 0.00141429 -0.00134739
-0.00114167 0.00356525 0.00597142
8.77585e-08 0.0276574 0.00906214
0.0122525 0.00355001 -0.00248187
0.000894842 -0.0155723 -0.0155279
-0.000266448 -0.00125869 -0.012526
0.00413713 0.00447583 -0.00377547
0.00230177 -0.00851214 -0.00577498
0.00496975 -0.000328656 -0.00167889
-0.00245154 0.000676085 -0.00517229
7.48451e-05 -0.0240126 -0.00782202
-0.0134948 -0.00205947 -0.000251314
0.0076285 -0.00165489 0.00750821
0.00646487 -0.000185201 -0.0042629
0.00422444 0.030895 0.00575152
0.000259434 0.00930931 0.000202293
-0.000781991 0.0044033 0.00292011
0.00116085 -0.000745806 -0.00159786
0.000188901 -0.000372718 -0.0257663
-0.0420176 -0.0521666 0.0521294
0.00425397 0.0117057 -0.00469142
-0.0305526 0.0215561 -0.0272877
-0.00211359 -0.000577424 0.00243611
-0.00740816 0.0107487 -0.00430268
0.00369847 0.0018841 0.00143352
0.00628594 -0.000876193 -0.00241171
-0.00095171 0.000838666 -0.0012659
0.000176931 -0.0226351 0.00994685
0.00222108 -0.000770449 -0.00205612
0.00123048 -0.00052838 -0.00186298
0.000211222 0.00103779 -0.000186423
0.000264905 -0.0207053 0.0138841
0.000411235 0.000443821 -0.000369594
-0.00155479 0.000839425 0.00285316
0.00249425 -9.66177e-05 -0.00188027
0.00401373 0.00581054 0.00247635
-0.000582483 -0.0167298 0.018285
0.00559003 0.00352063 -0.0128183
-0.00391278 0.0108672 0.0214886
0.000240333 0.00120068 0.0026081
-0.00128042 -0.167482 -0.0206979
-3.25082e-06 0.00133526 -0.00221621
0.00123376 0.00115628 -0.000408701
0.000399533 0.00129747 0.00301205
0.000126541 -0.0211974 0.0129211
0.00983095 7.26387e-05 0.00412635
0.000663704 -0.00589403 -0.0122149
0.00118151 0.000475641 -0.00131149
-0.00304215 -0.0010891 0.00850287
-0.129952 0.0596959 -0.0745232
0.000527773 0.00121159 0.000776662
-0.0141002 -0.00233326 0.00594295
0.0084495 0.00151888 0.00177956
-0.000241997 -0.00030562 0.00191565
0.000607089 0.000902823 -0.000998966
0.00654327 0.0145065 -0.00495907
-0.00157438 0.00302399 -0.000418145
0.00136 0.000232518 0.0140442
-0.00441841 2.83112e-05 -0.00632524
-0.00057947 -0.000157749 0.0028312
0.00108047 -0.000261914 -0.00583323
-0.00196026 -0.00155271 0.00288121
-0.117042 0.103855 -0.0744376
0.00635498 -0.00396846 0.00407863
0.00928003 -0.00240329 0.0100241
0.00270457 0.0105135 0.00662703
0.00152783 7.84117e-06 -0.00187976
-0.00514872 0.0140467 0.00410778
-0.009438 0.0646968 0.0648157
-0.00165204 0.00543054 -0.0190193
0.00504875 0.00219865 -0.00118384
0.00388603 0.00591472 0.00553343
0.00027123 0.00391449 -0.00129062
0.000505744 -0.00584644 -0.0229467
0.0028873 0.00225736 -0.00314107
0.00393168 0.00296355 -0.00297708
0.000237875 0.001451 -0.00154252
-0.00265146 0.00963439 -0.00351611
-0.02163 -0.0346817 0.00686221
-0.00370929 -0.012217 -0.0153461
-0.00160215 0.00945684 -0.00578314
-0.00186173 0.00524064 0.00307509
0.00332655 0.00483206 0.00162188
-0.000551426 0.022041 0.0154361
-0.00713555 -0.00350873 0.0107906
-0.0229438 -0.00038254 0.0170372
-0.00304507 0.00430488 0.00252313
0.0142239 0.0108469 -0.00410873
-0.00394188 -0.00178856 -0.00123626
-0.000141969 -0.00561709 0.0253117
0.00143262 -0.00468261 0.0228435
0.00893323 0.00626255 -0.00317503
-0.0034504 -0.000247861 -0.00293144
-0.0184446 -0.00491052 -0.00613827
0.00349951 0.00277968 0.00429185
-0.00485525 0.00657848 -0.00151909
0.000162621 0.00156481 -0.00224522
0.00065682 0.0260366 -0.0239249
-0.0839871 0.0394118 0.0451204
-0.0242181 -0.0221801 -0.102225
0.00329779 -0.0010243 -0.00555991
0.000999162 0.00369738 -0.00100308
-0.0199619 -0.0260945 -0.010906
-0.000633445 1.74517e-05 0.00353278
-0.0243803 -0.00954105 -0.0339664
8.4954e-05 -0.000435909 0.000600086
0.00364426 -0.000147257 -0.00188411
0.00207013 0.012434 0.0144173
0.00119115 0.0011803 -0.00458805
0.000858439 0.00388999 -0.00125016
-0.01344 0.0277271 -0.0187259
0.0111853 -0.0164916 -0.00454447
0.002922 0.00854425 -0.00136222
1.78976e-09 0.0292362 -0.00276063
0.00501663 -0.00496866 0.00129151
0.0159749 0.000652758 -0.0041212
0.00604139 0.00316871 -0.000403136
0.00106544 0.0243842 0.018264
-0.000820574 -0.000287725 -0.0150843
0.0101066 0.00795127 0.00704147
-0.00122854 0.0165751 0.0159211
0.00483135 0.00906626 0.0024223
0.0148417 0.0182278 -0.0035274
-0.0153498 0.0332372 0.0272249
-0.0290788 0.0238658 -0.0348199
0.00351021 0.0115775 -0.000819803
0.00851338 -0.00192286 0.00303585
0.0126161 -0.00837158 -0.0615387
0.00781788 0.0242997 -0.0192151
0.00187801 0.00642173 0.0173076
0.00367351 0.0112455 0.00517815
0.00672728 0.00792836 0.00242574
-7.76244e-06 0.0290154 0.00170616
0.00105232 0.000358985 -0.00192013
0.0222974 0.0566344 0.0191378
0.0124903 -0.00121548 0.010104
-0.0410774 -0.13455 0.0963334
0.00944518 0.00616322 0.00555696
-0.000681649 -0.000353004 0.00154961
-0.000591911 0.00163367 -0.00238733
-0.000654419 0.000949887 0.000510609
0.0262977 0.00308638 -0.000889902
0.0020644 0.0154985 0.00281513
0.00841493 0.014497 -0.00565745
0.000885486 0.00109067 -0.00180766
0.00448571 0.00320807 -0.000630715
-0.0114969 0.00807149 0.00254188
0.00628207 0.0211985 0.00442925
0.00106777 0.00205363 -0.000359417
-0.00202759 0.00170228 -0.00246371
0.00631652 0.0125126 -0.00122805
0.000936962 -0.015356 0.0169211
0.00713659 0.00298674 -0.00277567

VECTORS force float
4.52079e-06 1.32467e-06 -9.80259e-08
1.639e-05 2.10139e-05 1.03281e-06
-1.78022e-07 -7.984e-07 -1.48517e-06
-1.71959e-08 -5.57525e-09 -3.6531e-08
-2.6216e-07 -3.53281e-07 -9.93474e-07
0.0 0.0 -1.43822e-06
0.0 0.0 -1.43822e-06
2.76254e-08 1.43169e-08 -1.03304e-08
8.31277e-07 -5.23287e-07 -6.33803e-07
0.0 0.0 -1.43822e-06
5.93475e-06 -7.70106e-07 -1.26299e-06
9.17644e-07 9.78685e-07 -6.03894e-06
0.0 0.0 -1.43822e-06
3.06817e-07 -1.60127e-07 1.51743e-08
-4.13532e-08 -1.28606e-07 -8.35131e-07
-3.17272e-07 4.65146e-08 -1.26365e-07
-3.58102e-09 -1.30193e-08 1.52348e-08
1.40283e-09 -1.08525e-08 8.7959e-09
0.0 0.0 -1.43822e-06
3.79383e-09 -1.21294e-05 3.23489e-06
0.0 0.0 -1.43822e-06
6.63114e-07 5.69047e-07 -6.33342e-07
-7.96476e-20 -1.37008e-19 6.45863e-20
-7.85793e-07 1.15472e-07 3.94858e-07
0.0 0.0 -1.43822e-06
-2.87105e-08 -8.63698e-08 4.7513e-08
-5.14938e-08 -2.49378e-07 -8.37003e-07
1.64763e-211 -4.00641e-211 0.0
-1.38703e-05 1.37714e-06 1.63309e-06
2.68576e-08 -9.87962e-08 1.49102e-07
-3.88121e-09 -1.79774e-07 -1.67113e-08
-2.22038e-08 -5.44942e-08 -9.70817e-08
-5.60806e-06 -2.56684e-07 6.19914e-06
-6.22375e-09 1.03084e-07 -1.30279e-06
-1.7073e-20 3.30846e-19 2.85874e-20
0.0 0.0 -1.43822e-06
2.38426e-07 -1.82398e-06 1.28111e-06
-2.70183e-05 -2.85896e-06 -4.21905e-06
-2.72751e-06 -1.3964e-05 -2.10172e-05
5.80875e-06 2.173e-07 -9.1166e-07
-1.39342e-07 -5.10128e-07 -5.11099e-07
1.84961e-07 5.06606e-07 -3.03867e-07
1.3996e-06 3.65961e-06 5.93753e-07
-5.06334e-06 -8.56611e-06 -3.60843e-06
0.00140057 -0.00114384 -0.0036619
0.0 0.0 -1.43822e-06
-7.84652e-05 0.000122332 1.73088e-05
-9.17644e-07 -9.78685e-07 3.1625e-06
-6.93802e-06 -1.07386e-06 -3.5698e-06
1.47464e-05 1.24193e-05 -1.36754e-06
0.0 0.0 -1.43822e-06
-2.18432e-09 -8.78951e-09 1.38693e-08
5.98407e-06 4.97975e-07 -5.82557e-06
0.0 0.0 -1.43822e-06
-3.99228e-08 -8.44208e-06 6.46084e-05
0.0 0.0 -1.43822e-06
-4.06023e-05 6.08727e-08 -1.33444e-05
-8.20989e-07 -2.3181e-06 -2.72332e-06
7.19838e-06 2.58476e-06 9.81598e-06
-2.69227e-06 6.47866e-06 1.49639e-06
-5.53329e-09 2.20811e-08 6.12817e-09
-1.10647e-05 9.3851e-06 5.95402e-05
1.29838e-07 2.59876e-06 3.09823e-07
-4.3721e-07 -6.35075e-07 1.13751e-07
-7.11246e-08 3.06493e-07 -6.47735e-07
-9.84864e-06 -5.98005e-06 -2.59123e-06
0.0 0.0 -1.43822e-06
1.36789e-08 -3.91032e-10 -1.35726e-09
1.04242e-06 -1.05031e-06 1.30728e-08
0.0 0.0 -1.43822e-06
2.64324e-06 -3.14285e-05 5.62992e-06
-1.50071e-05 0.000104397 -0.000251456
0.0 0.0 -1.43822e-06
-3.79383e-09 1.21294e-05 -6.11134e-06
8.58297e-08 -1.92872e-07 4.10261e-08
5.83271e-05 -7.14409e-06 -3.04551e-05
0.0 0.0 -1.43822e-06
2.16801e-07 -6.71149e-07 -1.29278e-06
0.0 0.0 -1.43822e-06
0.0 0.0 -1.43822e-06
-1.18558e-08 -2.86542e-08 1.9663e-08
4.23223e-05 -4.01655e-06 1.922e-05
5.67084e-06 7.6307e-07 -2.62919e-06
6.56623e-06 4.94425e-07 9.02178e-06
2.62962e-10 8.75448e-09 -2.18012e-08
-4.74022e-06 1.88437e-06 3.06473e-06
7.56926e-08 -1.40912e-07 1.895e-08
0.0 0.0 -1.43822e-06
-3.11425e-06 4.84952e-06 -5.69099e-06
1.79122e-05 2.23332e-05 1.32182e-05
1.41935e-06 1.42971e-06 1.8378e-06
-1.53939e-07 -1.10122e-07 -2.20611e-07
-9.45855e-10 -9.78383e-09 1.26158e-08
-5.40594e-05 6.38419e-06 2.59266e-05
-1.51616e-07 2.75657e-07 -1.42437e-06
4.85718e-06 8.71888e-06 7.13262e-06
-0.000779972 -0.000538574 0.000391941
3.55112e-05 -5.62859e-05 1.39194e-05
3.04671e-07 -2.87557e-06 -1.16412e-07
1.7349e-05 2.06736e-05 1.9099e-05
-4.4368e-10 -1.60429e-08 -4.87359e-09
0.0 0.0 -1.43822e-06
-2.40102e-09 -2.21294e-08 -1.42506e-06
-1.75014e-07 2.00106e-07 -7.67315e-07
-7.08585e-09 -2.03266e-08 2.02339e-08
0.0 0.0 -1.43822e-06
-1.18174e-07 7.70778e-07 -5.9413e-09
-6.83238e-06 5.03374e-06 3.24597e-06
-1.40244e-07 3.22279e-08 9.41827e-08
-4.29611e-09 -2.77035e-09 1.25328e-08
7.6153e-06 7.50796e-07 -1.19969e-06
2.93693e-07 -1.26383e-07 -7.13596e-07
3.6043e-07 1.01838e-07 9.9574e-07
-2.30851e-09 8.16292e-10 1.48e-08
1.07669e-06 4.7675e-07 2.66189e-06
-1.48806e-05 -4.10058e-05 1.62867e-05
1.36852e-07 9.50846e-07 -1.07336e-06
3.66288e-07 -1.01126e-07 -8.20522e-07
-8.41473e-09 -5.20681e-09 1.68202e-08
0.0 0.0 -1.43822e-06
8.03935e-07 -1.253e-06 -1.74563e-06
1.22916e-06 -1.01086e-06 -1.78283e-06
0.0 0.0 -1.43822e-06
5.75026e-11 -2.64725e-08 4.45289e-08
1.83002e-06 -8.65428e-08 9.16079e-07
-1.48649e-05 4.86236e-06 -1.47898e-05
-4.61943e-09 -7.72688e-10 1.41718e-08
-7.49494e-07 5.58245e-07 -1.10808e-06
2.10197e-06 -3.20098e-07 1.38777e-06
2.76281e-07 1.92226e-07 -3.84252e-07
0.0 0.0 -1.43822e-06
0.0 0.0 -1.43822e-06
-1.02501e-06 3.05087e-06 8.04957e-07
-0.000127908 5.76965e-05 0.00057049
-1.64223e-06 2.54338e-06 -1.66952e-06
5.1581e-07 1.93718e-07 6.05552e-07
-1.50473e-05 -4.01591e-06 3.15424e-06
-1.59068e-07 5.4764e-07 -7.9815e-07
-1.40882e-07 -3.34779e-07 4.41044e-08
4.44209e-09 2.98692e-08 -9.70224e-09
3.21359e-06 4.76346e-06 -2.49497e-06
5.08488e-06 2.47808e-06 -3.16715e-06
1.61658e-07 -9.67156e-08 1.32435e-07
-4.41356e-07 4.19114e-07 -8.21804e-06
0.0 0.0 -1.43822e-06
1.45667e-06 -6.59653e-07 7.66563e-07
-3.74021e-07 1.41747e-08 -1.83663e-07
-3.74848e-06 -2.90287e-06 -5.54876e-07
5.98508e-07 2.16743e-06 4.50723e-06
1.87822e-06 4.91584e-07 2.00459e-06
-0.000967462 -0.00176934 -8.96406e-05
0.00010061 2.46781e-06 -0.000190622
7.90659e-08 6.18245e-07 5.73058e-06
3.59251e-07 1.82325e-07 1.22908e-07
1.05274e-06 -1.61548e-06 1.51335e-06
-8.74958e-08 -3.02624e-07 -1.78695e-06
-5.98301e-05 9.24294e-05 -6.78784e-06
-1.51722e-06 2.60723e-06 -1.22257e-06
2.17566e-07 3.78813e-07 -2.75031e-08
0.0 0.0 -1.43822e-06
2.10818e-07 8.81213e-07 -3.31862e-07
1.08564e-05 8.38544e-06 2.33143e-05
1.72262e-06 -9.15976e-07 -4.60972e-07
-8.28575e-07 -5.17605e-05 8.48011e-05
-9.46237e-08 -3.46156e-07 -2.24724e-07
0.0 0.0 -1.43822e-06
0.0 0.0 -1.43822e-06
-0.000165142 -0.000199378 0.000311424
1.07574e-07 -3.26197e-07 -2.45018e-07
-1.80947e-06 -5.34476e-06 4.67995e-06
6.79154e-08 6.66623e-08 1.61603e-07
3.59991e-08 2.50555e-08 -2.15058e-07
-2.95406e-08 -2.54385e-07 -6.19672e-07
-3.99336e-06 -7.08173e-07 1.35125e-07
-1.05909e-07 2.10487e-07 -3.38314e-07
7.09497e-08 -1.45305e-07 -7.32218e-07
-1.39633e-07 -1.36257e-07 -1.7309e-06
7.1049e-06 -7.9471e-07 -4.34617e-07
-1.03055e-06 2.00677e-07 -9.18147e-08
-0.000158192 0.0002555 0.000718674
0.0 0.0 -1.43822e-06
0.0 0.0 -1.43822e-06
1.1927e-07 -1.57362e-07 -1.08054e-06
2.15865e-06 1.22226e-07 2.46314e-06
0.0 0.0 -1.43822e-06
1.86365e-06 -1.47467e-07 -6.49002e-07
0.0 0.0 -1.43822e-06
1.12966e-06 -3.1188e-06 -3.89154e-07
8.46712e-07 1.10486e-06 -5.10156e-07
-5.60234e-07 -2.45177e-06 3.54678e-06
-3.20002e-07 1.65158e-07 -1.13825e-06
-1.36405e-06 -5.65693e-07 3.90489e-07
0.0 0.0 -1.43822e-06
0.0 0.0 -1.43822e-06
-7.73701e-08 9.2864e-07 -2.66951e-07
9.00214e-10 1.27741e-10 -2.4169e-08
-1.66834e-06 3.10476e-06 -5.72029e-06
0.0 0.0 -1.43822e-06
-3.28729e-07 5.99886e-06 3.17935e-07
-4.68899e-06 4.20542e-06 2.54458e-05
-1.03174e-05 -9.17933e-06 -1.87676e-05
-5.26414e-07 -6.05835e-07 6.29204e-08
-3.64715e-07 -2.47367e-07 -2.18391e-07
-2.12753e-07 1.31367e-07 9.19355e-08
0.0 0.0 -1.43822e-06
-1.639e-05 -2.10139e-05 -3.90926e-06
0.0 0.0 -1.43822e-06
-1.93259e-07 7.751e-07 -1.94017e-08
7.72553e-07 -8.2657e-07 -1.96232e-06
0.0 0.0 -1.43822e-06
0.0 0.0 -1.43822e-06
0.0 0.0 -1.43822e-06
-4.88697e-07 2.43502e-07 9.40261e-07
1.87961e-06 -1.97874e-06 -3.2916e-06
2.27067e-08 -1.87359e-08 -2.37332e-08
-2.15568e-07 1.08148e-06 -7.91005e-07
-0.000332552 0.000667634 0.000256452
6.22375e-09 -1.03084e-07 -1.57365e-06
0.0 0.0 -1.43822e-06
1.68907e-06 -1.60544e-06 3.6635e-07
5.51674e-08 9.6628e-08 2.18378e-07
2.52688e-07 -1.00202e-06 -7.10076e-08
2.55767e-07 3.06565e-07 5.89524e-07
-5.14002e-07 8.38637e-07 -3.62946e-07
-1.81778e-07 4.85451e-07 1.85856e-07
-3.20538e-05 4.40483e-05 0.000123989
5.39651e-07 -1.70295e-06 5.0962e-07
1.39421e-05 -1.92623e-05 2.29723e-06
0.0 0.0 -1.43822e-06
0.0 0.0 -1.43822e-06
-7.44795e-07 -6.78267e-07 7.25051e-07
0.0 0.0 -1.43822e-06
-4.16113e-07 1.06357e-06 3.89264e-07
1.90287e-08 4.42675e-08 -3.70164e-08
-8.36276e-06 -3.44641e-06 3.00555e-06
