# vtk DataFile Version 3.0
LIGGGHTS particles timestep 7000000
ASCII
DATASET POLYDATA
POINTS 183 float
0.0237825 0.0227647 0.0152322
0.021048 0.0234005 0.0123389
0.0229622 0.0175825 0.015692
0.0319215 0.023352 0.0109373
0.0274661 0.0194522 0.015812
0.0294537 0.0151471 0.00974144
0.0210808 0.0174869 0.017819
0.0203672 0.0239756 0.0126808
0.0234778 0.0206894 0.0196161
0.0188513 0.0238371 0.0134837
0.0276188 0.0186394 0.0158049
0.0311735 0.021697 0.00809598
0.0302216 0.0175425 0.00744698
0.0246251 0.0193533 0.00717769
0.0256684 0.0229532 0.00967373
0.0248849 0.0217331 0.0159195
0.032281 0.0212958 0.00630102
0.0299906 0.0165677 0.00800984
0.0144945 0.0230167 0.0150223
0.00328607 0.0109634 0.0435188
0.0222643 0.0162064 0.0150739
0.032381 0.0231845 0.0127618
0.0222143 0.0221077 0.0147796
0.0314984 0.0225766 0.00897437
0.017921 0.0147293 0.0154415
0.151427 0.0197366 0.00603425
0.0190609 0.0212654 0.00782533
0.020651 0.0140805 0.0131754
0.0170669 0.014736 0.0145893
0.0254892 0.0226066 0.00905938
0.0220829 0.0149207 0.0150524
0.0243698 0.0186654 0.0200763
0.0173569 0.024026 0.0131089
0.0231368 0.0232696 0.014608
0.0205463 0.0230009 0.00979114
0.0157716 0.0199849 0.0158897
0.0355669 0.0190259 0.00580114
0.0287252 0.015066 0.0127425
0.0257666 0.0200491 0.0166641
0.0225471 0.022095 0.0157541
0.0766103 0.0168486 0.00637995
0.0238855 0.0171384 0.0155266
0.00955374 0.0042762 0.0435188
0.0173795 0.015664 0.0147925
0.0265237 0.0230619 0.00983562
0.0220046 0.0237688 0.0138208
0.0158784 0.0216785 0.0150921
0.0209659 0.0219077 0.0149079
0.0240087 0.0154974 0.0152133
0.0259375 0.0170774 0.0215511
0.016923 0.0215076 0.0152884
0.0212222 0.023972 0.0132472
0.0220025 0.0173172 0.0156005
0.0217783 0.0193744 0.0159334
0.0253658 0.0215665 0.0168191
0.024959 0.0171768 0.0164144
0.0210096 0.01607 0.018085
0.0232822 0.0148636 0.0105782
0.0193072 0.0237418 0.0163204
0.0269704 0.0215218 0.0149179
0.0152874 0.0147147 0.0145063
0.0231174 0.0226397 0.0180253
0.0290453 0.0147465 0.011392
0.0296575 0.0148191 0.0117421
0.0196522 0.0229233 0.00972933
0.043524 0.00404526 0.0390958
0.0310169 0.0210359 0.00764142
0.0178582 0.0153292 0.0139508
0.0307415 0.0198254 0.00731295
0.0302461 0.0150798 0.00992179
0.0304487 0.018704 0.00718895
0.0224769 0.0155378 0.0143614
0.0183592 0.0153957 0.0148202
0.0271721 0.0208874 0.0154112
0.0228978 0.0201754 0.0158977
0.0317047 0.0230146 0.00977444
0.0160998 0.0143799 0.0140021
0.0204949 0.0231568 0.0132225
0.0208064 0.0228201 0.0163084
0.0185788 0.0213671 0.016215
0.0187644 0.0199339 0.00727087
0.0260278 0.0233741 0.0113297
0.0171808 0.0218489 0.0163395
0.0246337 0.0201168 0.0166518
0.0182997 0.0240884 0.012778
0.0175693 0.0155331 0.0160509
0.017588 0.0237931 0.0140534
0.0258584 0.0232529 0.0104889
0.0182896 0.0244556 0.01375
0.0262636 0.0233184 0.0122489
0.0232502 0.0163734 0.0150616
0.0732354 0.0191636 0.00573512
0.0162383 0.0208229 0.0155816
0.0226824 0.0150722 0.0134811
0.0201291 0.0221375 0.00848153
0.0194776 0.0153069 0.015194
0.0196781 0.0140088 0.0129558
0.0194046 0.0241078 0.0127823
0.0163689 0.015958 0.0147282
0.17926 0.0199157 0.00578127
0.0202436 0.0239355 0.0141698
0.0186948 0.0230074 0.0153416
0.0147247 0.022653 0.0141198
0.0234744 0.0151624 0.00966107
0.0214898 0.014246 0.013694
0.0220977 0.0250862 0.0202893
0.0155566 0.0229925 0.0135559
0.0169388 0.0141908 0.0134799
0.0186788 0.0140277 0.0129245
0.0292679 0.0148698 0.0106092
0.0254163 0.0210051 0.0162938
0.0162738 0.0164081 0.0156162
0.0250737 0.0178493 0.0171582
0.0165692 0.0153406 0.0139675
0.021162 0.0147303 0.0145055
0.0215593 0.0222065 0.0156551
0.0206043 0.0139135 0.0141601
0.0158828 0.0179956 0.0158261
0.0223808 0.0238636 0.0147286
0.0199914 0.0219769 0.0159129
0.0226455 0.0232629 0.0155325
0.0178576 0.0141239 0.0146006
0.0212285 0.0148713 0.0158454
0.024036 0.0167334 0.00783096
0.0208697 0.0239079 0.0165722
0.0201684 0.0148331 0.0146474
0.0212597 0.0238328 0.0145228
0.0251549 0.0192407 0.0167553
0.0229763 0.0153876 0.0152145
0.022746 0.0186027 0.0159224
0.0163248 0.0232287 0.0144626
0.0216518 0.0233684 0.0162139
0.0193878 0.0244946 0.013708
0.0273083 0.0202055 0.0156787
0.0203435 0.0229802 0.0153832
0.0149424 0.0219908 0.0148386
0.0265792 0.0225231 0.0138755
0.0278757 0.0177492 0.0155999
-0.00873639 0.0123654 0.0376028
0.017276 0.0231643 0.0147663
0.0284985 0.0155102 0.0138907
0.0280984 0.0167932 0.0150803
0.0217864 0.0215748 0.0195625
0.0190423 0.0236518 0.0146142
0.0153292 0.0233249 0.0145477
0.00508007 0.0298083 0.0435188
0.0233223 0.0164396 0.0173069
0.0209246 0.0154191 0.0171597
0.0157465 0.0224139 0.0144206
0.0234773 0.0192954 0.0159341
0.0236626 0.0219879 0.0158505
0.0197156 0.0143613 0.0138908
0.0193074 0.0221248 0.00852248
0.0181892 0.0144181 0.013704
0.0188925 0.0146642 0.0143711
0.0166619 0.022376 0.0148638
0.0240191 0.0159839 0.00845378
0.0246527 0.0222748 0.0163396
0.0214503 0.023036 0.0134631
0.028459 0.0186122 0.0158293
0.0203797 0.0173556 0.0165182
0.0154268 0.0227127 0.0153332
0.0180729 0.0237821 0.0149284
0.0163525 0.0232644 0.0129099
0.0945306 0.0198379 0.00577278
0.0246666 0.0159954 0.0157783
0.0205851 0.0154701 0.0153685
0.0229888 0.0212978 0.0153455
0.0218207 0.023011 0.0149652
0.0217927 0.0183035 0.0158814
0.0177069 0.0142474 0.012842
0.0209196 0.0226069 0.0141944
0.016868 0.0147605 0.0126612
0.0234681 0.0156659 0.0143892
0.0282916 0.0160352 0.0145592
0.0236981 0.0183003 0.015879
0.0175386 0.0146255 0.0119318
0.0223265 0.0144686 0.0141944
0.0166137 0.0238821 0.0137629
0.026972 0.0230262 0.0130972
0.0201543 0.0234696 0.0117456
0.0296676 0.0156618 0.00884794
0.017112 0.0197608 0.0158992

VERTICES 183 366
1 0
1 1
1 2
1 3
1 4
1 5
1 6
1 7
1 8
1 9
1 10
1 11
1 12
1 13
1 14
1 15
1 16
1 17
1 18
1 19
1 20
1 21
1 22
1 23
1 24
1 25
1 26
1 27
1 28
1 29
1 30
1 31
1 32
1 33
1 34
1 35
1 36
1 37
1 38
1 39
1 40
1 41
1 42
1 43
1 44
1 45
1 46
1 47
1 48
1 49
1 50
1 51
1 52
1 53
1 54
1 55
1 56
1 57
1 58
1 59
1 60
1 61
1 62
1 63
1 64
1 65
1 66
1 67
1 68
1 69
1 70
1 71
1 72
1 73
1 74
1 75
1 76
1 77
1 78
1 79
1 80
1 81
1 82
1 83
1 84
1 85
1 86
1 87
1 88
1 89
1 90
1 91
1 92
1 93
1 94
1 95
1 96
1 97
1 98
1 99
1 100
1 101
1 102
1 103
1 104
1 105
1 106
1 107
1 108
1 109
1 110
1 111
1 112
1 113
1 114
1 115
1 116
1 117
1 118
1 119
1 120
1 121
1 122
1 123
1 124
1 125
1 126
1 127
1 128
1 129
1 130
1 131
1 132
1 133
1 134
1 135
1 136
1 137
1 138
1 139
1 140
1 141
1 142
1 143
1 144
1 145
1 146
1 147
1 148
1 149
1 150
1 151
1 152
1 153
1 154
1 155
1 156
1 157
1 158
1 159
1 160
1 161
1 162
1 163
1 164
1 165
1 166
1 167
1 168
1 169
1 170
1 171
1 172
1 173
1 174
1 175
1 176
1 177
1 178
1 179
1 180
1 181
1 182

POINT_DATA 183
SCALARS id int 1
LOOKUP_TABLE default
1
2
3
5
9
10
11
13
17
18
19
20
21
22
26
27
28
32
33
35
36
37
41
42
43
45
47
48
49
52
53
54
55
57
58
59
61
63
64
65
68
69
70
71
72
73
76
77
80
84
86
87
88
89
90
95
96
97
99
103
105
106
107
111
112
117
118
119
121
124
125
127
130
131
132
134
137
141
143
144
145
146
147
148
149
150
151
152
155
156
157
160
161
162
163
164
169
170
171
172
174
175
176
177
179
181
182
183
185
186
187
190
192
193
194
196
198
199
201
203
204
205
206
208
209
211
212
213
216
217
220
221
222
223
224
225
226
227
228
229
232
234
235
238
239
242
243
244
245
246
249
250
252
253
258
259
262
264
265
266
267
268
269
270
271
274
275
276
278
279
283
284
286
288
289
290
291
292
294
295
296
299
300

SCALARS type int 1
LOOKUP_TABLE default
1
1
1
1
1
1
1
1
1
1
1
1
1
1
1
1
1
1
1
1
1
1
1
1
1
1
1
1
1
1
1
1
1
1
1
1
1
1
1
1
1
1
1
1
1
1
1
1
1
1
1
1
1
1
1
1
1
1
1
1
1
1
1
1
1
1
1
1
1
1
1
1
1
1
1
1
1
1
1
1
1
1
1
1
1
1
1
1
1
1
1
1
1
1
1
1
1
1
1
1
1
1
1
1
1
1
1
1
1
1
1
1
1
1
1
1
1
1
1
1
1
1
1
1
1
1
1
1
1
1
1
1
1
1
1
1
1
1
1
1
1
1
1
1
1
1
1
1
1
1
1
1
1
1
1
1
1
1
1
1
1
1
1
1
1
1
1
1
1
1
1
1
1
1
1
1
1
1
1
1
1
1
1

SCALARS radius float 1
LOOKUP_TABLE default
0.0005
0.0005
0.0005
0.0005
0.0005
0.0005
0.0005
0.0005
0.0005
0.0005
0.0005
0.0005
0.0005
0.0005
0.0005
0.0005
0.0005
0.0005
0.0005
0.0005
0.0005
0.0005
0.0005
0.0005
0.0005
0.0005
0.0005
0.0005
0.0005
0.0005
0.0005
0.0005
0.0005
0.0005
0.0005
0.0005
0.0005
0.0005
0.0005
0.0005
0.0005
0.0005
0.0005
0.0005
0.0005
0.0005
0.0005
0.0005
0.0005
0.0005
0.0005
0.0005
0.0005
0.0005
0.0005
0.0005
0.0005
0.0005
0.0005
0.0005
0.0005
0.0005
0.0005
0.0005
0.0005
0.0005
0.0005
0.0005
0.0005
0.0005
0.0005
0.0005
0.0005
0.0005
0.0005
0.0005
0.0005
0.0005
0.0005
0.0005
0.0005
0.0005
0.0005
0.0005
0.0005
0.0005
0.0005
0.0005
0.0005
0.0005
0.0005
0.0005
0.0005
0.0005
0.0005
0.0005
0.0005
0.0005
0.0005
0.0005
0.0005
0.0005
0.0005
0.0005
0.0005
0.0005
0.0005
0.0005
0.0005
0.0005
0.0005
0.0005
0.0005
0.0005
0.0005
0.0005
0.0005
0.0005
0.0005
0.0005
0.0005
0.0005
0.0005
0.0005
0.0005
0.0005
0.0005
0.0005
0.0005
0.0005
0.0005
0.0005
0.0005
0.0005
0.0005
0.0005
0.0005
0.0005
0.0005
0.0005
0.0005
0.0005
0.0005
0.0005
0.0005
0.0005
0.0005
0.0005
0.0005
0.0005
0.0005
0.0005
0.0005
0.0005
0.0005
0.0005
0.0005
0.0005
0.0005
0.0005
0.0005
0.0005
0.0005
0.0005
0.0005
0.0005
0.0005
0.0005
0.0005
0.0005
0.0005
0.0005
0.0005
0.0005
0.0005
0.0005
0.0005
0.0005
0.0005
0.0005
0.0005
0.0005
0.0005

SCALARS mass float 1
LOOKUP_TABLE default
1.46608e-07
1.46608e-07
1.46608e-07
1.46608e-07
1.46608e-07
1.46608e-07
1.46608e-07
1.46608e-07
1.46608e-07
1.46608e-07
1.46608e-07
1.46608e-07
1.46608e-07
1.46608e-07
1.46608e-07
1.46608e-07
1.46608e-07
1.46608e-07
1.46608e-07
1.46608e-07
1.46608e-07
1.46608e-07
1.46608e-07
1.46608e-07
1.46608e-07
1.46608e-07
1.46608e-07
1.46608e-07
1.46608e-07
1.46608e-07
1.46608e-07
1.46608e-07
1.46608e-07
1.46608e-07
1.46608e-07
1.46608e-07
1.46608e-07
1.46608e-07
1.46608e-07
1.46608e-07
1.46608e-07
1.46608e-07
1.46608e-07
1.46608e-07
1.46608e-07
1.46608e-07
1.46608e-07
1.46608e-07
1.46608e-07
1.46608e-07
1.46608e-07
1.46608e-07
1.46608e-07
1.46608e-07
1.46608e-07
1.46608e-07
1.46608e-07
1.46608e-07
1.46608e-07
1.46608e-07
1.46608e-07
1.46608e-07
1.46608e-07
1.46608e-07
1.46608e-07
1.46608e-07
1.46608e-07
1.46608e-07
1.46608e-07
1.46608e-07
1.46608e-07
1.46608e-07
1.46608e-07
1.46608e-07
1.46608e-07
1.46608e-07
1.46608e-07
1.46608e-07
1.46608e-07
1.46608e-07
1.46608e-07
1.46608e-07
1.46608e-07
1.46608e-07
1.46608e-07
1.46608e-07
1.46608e-07
1.46608e-07
1.46608e-07
1.46608e-07
1.46608e-07
1.46608e-07
1.46608e-07
1.46608e-07
1.46608e-07
1.46608e-07
1.46608e-07
1.46608e-07
1.46608e-07
1.46608e-07
1.46608e-07
1.46608e-07
1.46608e-07
1.46608e-07
1.46608e-07
1.46608e-07
1.46608e-07
1.46608e-07
1.46608e-07
1.46608e-07
1.46608e-07
1.46608e-07
1.46608e-07
1.46608e-07
1.46608e-07
1.46608e-07
1.46608e-07
1.46608e-07
1.46608e-07
1.46608e-07
1.46608e-07
1.46608e-07
1.46608e-07
1.46608e-07
1.46608e-07
1.46608e-07
1.46608e-07
1.46608e-07
1.46608e-07
1.46608e-07
1.46608e-07
1.46608e-07
1.46608e-07
1.46608e-07
1.46608e-07
1.46608e-07
1.46608e-07
1.46608e-07
1.46608e-07
1.46608e-07
1.46608e-07
1.46608e-07
1.46608e-07
1.46608e-07
1.46608e-07
1.46608e-07
1.46608e-07
1.46608e-07
1.46608e-07
1.46608e-07
1.46608e-07
1.46608e-07
1.46608e-07
1.46608e-07
1.46608e-07
1.46608e-07
1.46608e-07
1.46608e-07
1.46608e-07
1.46608e-07
1.46608e-07
1.46608e-07
1.46608e-07
1.46608e-07
1.46608e-07
1.46608e-07
1.46608e-07
1.46608e-07
1.46608e-07
1.46608e-07
1.46608e-07
1.46608e-07
1.46608e-07
1.46608e-07
1.46608e-07
1.46608e-07
1.46608e-07
1.46608e-07
1.46608e-07
1.46608e-07
1.46608e-07
1.46608e-07
1.46608e-07

VECTORS velocity float
0.00614866 -0.000691136 0.00286344
0.0455261 0.0133621 -0.0125597
0.00100164 0.0215393 0.00754492
3.34243e-05 -0.00156902 -0.0266988
0.00296123 0.0151996 -0.000226698
0.000243831 -0.00976989 0.0226117
-0.0215829 -0.0938012 -0.0832975
0.00257571 -0.00568767 0.00141314
0.0614826 -0.0248118 0.04937
-0.00105847 -0.00359525 -0.00398907
0.00170533 0.0207761 0.00265222
0.0024648 -0.0170283 -0.0142458
-4.42308e-05 -0.0243467 0.00825547
0.00238048 -0.0188919 0.000177336
0.0021071 -0.00653592 -0.02103
-0.0033789 -0.00551841 0.000575159
-2.58151e-15 -6.63187e-14 2.26003e-13
0.00106346 -0.0209 0.0152962
0.00441638 0.000148996 -0.00453926
9.55221e-317 -9.53188e-317 -2.81922e-12
0.00648153 0.0172424 -0.0203619
0.00141198 0.00649439 -0.015994
0.0131948 -0.00241445 -0.0113101
0.00177659 -0.0134948 -0.0163813
-0.00034169 -0.0362444 -0.0516986
2.12941e-14 3.22004e-14 -3.48886e-13
0.000762771 -0.0199778 -0.0108626
8.96817e-05 -4.29636e-05 0.000150346
0.00639043 0.00275366 0.00594958
0.00137591 -0.0137385 -0.0156887
-0.00730336 0.00788317 -0.00657642
0.0941803 -0.0688439 0.0356553
0.000378362 0.000934014 -0.000658001
0.000341024 -0.00222288 0.00126784
0.0003588 -0.01003 -0.02156
-0.0180877 0.00347677 -0.0161169
-2.15972e-15 -1.27052e-14 4.91735e-14
0.00166059 0.011134 0.024482
0.00139021 0.027772 -0.00543837
-0.0185059 -0.0161259 0.050784
-5.58578e-16 3.34198e-15 1.28475e-14
5.97906e-05 0.00958554 0.00315116
9.52579e-317 9.5521e-317 1.89627e-12
-0.00791836 0.0174577 -0.0352528
0.00134108 -0.00770064 -0.0221656
0.000796266 -0.000156421 -0.000335191
0.00690261 -0.00854119 0.00941886
0.00634495 0.00131895 -0.00115148
0.00172958 0.000473408 0.00187646
-0.0104445 -0.03332 0.0691512
-0.00640455 0.00153398 0.0208763
0.000621464 -0.000237555 -0.000167889
0.000598732 0.0222903 0.00962067
-8.62886e-05 0.0242213 0.00403262
0.00014753 -0.000259406 -0.00211925
-0.00171622 -0.0276899 -0.0150239
-0.0453275 -0.120683 -0.0929507
0.000628211 -0.00813537 0.0272624
-0.111885 -0.00997874 0.124892
0.00192114 0.0145286 -0.0125977
0.00555496 -0.00295843 -0.00302809
-0.0233138 -0.00188458 -0.0571112
0.00042559 -0.00264481 0.0165247
0.0044852 0.00299823 0.0133003
0.000346091 -0.0105275 -0.0217802
0.157758 -0.120181 -0.576876
0.000455717 -0.0202234 -0.00931462
-0.00974839 -0.00127092 -0.00218583
7.90076e-05 -0.0252945 -0.00479457
0.000409182 -0.00919914 0.0228067
0.00122629 -0.0207233 0.00101532
0.00674161 0.000992368 -0.00364103
0.00583132 -0.0012246 -0.00268608
0.00283768 0.0114402 -0.00648581
-0.00324005 0.0346098 -0.00289795
0.000643958 -0.00987303 -0.0205971
0.00799502 -0.00142953 -0.0079462
0.00392486 -0.000191811 -6.97164e-05
0.0479812 -0.0415674 0.0545671
-0.0741396 -0.0754813 0.0454677
0.00146463 -0.0200492 -0.00371592
0.00130553 0.000285761 -0.0236807
-0.149314 -0.0744771 0.195956
-3.75339e-07 0.028519 -0.00575211
-0.000553348 0.000381662 -0.00934622
0.0753297 0.0199697 -0.0567147
0.00179526 -0.000269647 -0.000268684
0.000950988 -0.00641357 -0.0226717
-0.000346504 -0.000846931 -0.00112657
0.00047313 0.00424191 -0.0239035
0.00906493 -0.00172047 -0.00401856
1.03286e-14 -2.66819e-14 1.89082e-13
-0.0149212 0.0267665 -0.0116273
0.00492918 0.001742 0.00264903
-0.000288535 -0.0152595 -0.0173559
-0.0138224 -0.0103452 -0.0142067
0.000322403 0.000583816 -0.00117695
9.00611e-05 -9.28895e-05 -0.00264443
0.00405847 0.0113254 0.00444752
3.77567e-15 1.60068e-14 1.95761e-13
-0.0699 -0.0860311 0.0457884
-0.0693275 -0.0287238 0.0607427
0.00553701 0.00173142 -0.00505152
0.00104981 -0.010004 0.0210596
0.000656819 0.00065789 -0.000671538
-0.0404824 0.0217655 0.0337659
0.00845415 0.00289191 -0.00685623
0.00302389 -0.00135504 0.00170933
0.000401103 0.000549397 -0.00144114
-1.12179e-05 -0.00661733 0.0237606
-0.000127525 -0.00157221 -0.00875122
0.00152448 0.0246088 -0.00194924
0.0136874 0.00673901 -0.0340442
0.0036566 0.00491265 0.00965704
-7.72613e-05 0.00042055 -0.0028166
-0.0186662 -0.0175123 0.0123099
-0.000168443 6.25779e-05 0.000172128
3.73512e-07 0.0235326 0.00553709
-0.00010267 -0.000545951 0.000138884
0.0539903 -0.0907228 0.046004
-0.00297639 -0.0152296 0.000507756
0.00453927 -0.000352235 -0.00223886
0.00289919 0.00287647 -0.0162541
0.00059343 -0.0196481 0.0128702
0.0489373 -0.00748198 0.0393341
0.00198433 -0.00383379 -0.000440553
0.00976897 -0.0137619 -0.00889566
-0.00175639 0.0274223 -0.000709372
0.00402468 -0.00235485 -0.00177593
0.000278039 0.0250021 0.000673566
0.011546 0.00631219 0.00909278
0.030559 0.0286885 0.0393753
-0.00198068 0.00353494 -0.0107454
0.0027686 0.0105873 -0.00165013
-0.0486542 2.49255 2.38267
0.00540732 0.00727324 -0.00805872
0.00135561 0.0161346 -0.0199432
1.00318e-05 0.0237505 0.00976757
-0.159451 0.000142734 -0.495769
0.0146964 0.000907415 0.00356849
0.000293879 0.0111085 0.0226518
0.000317357 0.0213141 0.0133991
0.0324165 0.0150749 0.0392619
-0.113303 -0.0652139 -0.033946
0.00359247 0.000972801 -0.00262847
-9.52722e-317 -9.52407e-317 -1.3683e-12
-0.0672832 0.0248188 -0.0202192
-0.0656016 -0.0191756 0.00224316
0.0186601 9.04207e-05 0.00656687
-7.00246e-06 0.0240674 -0.00131607
0.00138085 -0.000369323 0.00233907
-0.000106041 0.000875709 -0.00148412
-0.000589545 -0.017704 -0.0196979
-0.00158146 0.00189852 -0.0032545
-0.0017891 -0.00253612 -0.00210751
0.0024924 -0.000478538 0.00525062
-0.000785651 -0.0145437 0.0123668
0.00712392 0.00496399 -0.00383956
0.00205586 -7.54733e-05 -0.000937189
0.00424197 0.00825907 0.000551419
-0.0204333 -0.104672 -0.0409926
0.0100437 0.00112071 -0.00327928
0.00840673 -0.00852078 -0.00801539
0.00462441 0.00150724 -0.00230221
8.75732e-15 6.53083e-14 -1.70112e-13
0.000940922 -8.75623e-06 0.00310364
-0.00805769 0.0032777 -0.000943922
0.0146999 -0.000807062 0.0131365
-0.0141944 0.0131944 -0.0270469
0.000474883 0.0242505 0.00417748
0.00143707 0.000396676 -0.000700755
-7.81401e-05 -0.00263633 -0.00335862
0.00410623 0.00108803 0.00288085
0.00660947 0.00150104 -0.000431807
0.000615811 0.0172529 0.0156632
-1.38029e-05 0.0238082 0.0041555
0.000137861 0.000768693 -0.00104313
0.00073724 0.000625311 -0.000428776
0.00195792 0.00819978 0.00542498
0.00176598 0.0144453 -0.0204164
0.00570171 -0.00136822 -0.00196968
0.000882478 -0.0130172 0.0179294
-7.30765e-09 0.0238401 -0.00405849

VECTORS force float
4.09749e-08 3.20358e-07 -1.46758e-06
5.655e-06 -1.03466e-06 1.81456e-06
-3.65447e-08 1.12792e-07 2.23398e-08
-3.77958e-10 -1.46673e-08 -4.97492e-09
3.18622e-08 -1.799e-07 1.15284e-08
-2.16326e-08 9.49718e-09 7.07079e-09
0.0 0.0 -1.43822e-06
1.62076e-06 -4.99299e-07 -6.57267e-07
0.0 0.0 -1.43822e-06
4.77176e-07 -1.05004e-05 1.92827e-05
1.05539e-07 4.11117e-08 -3.33899e-08
-1.44538e-06 -6.86614e-06 -6.4517e-06
2.40678e-09 3.04421e-10 1.59725e-08
-1.38227e-05 -1.48698e-05 2.58102e-06
2.58777e-07 -8.80585e-08 5.4313e-09
-1.18651e-05 -2.86736e-05 1.43323e-05
1.31029e-19 2.11758e-21 2.11758e-21
3.43883e-06 -2.4578e-06 -2.77819e-06
2.13904e-07 2.18132e-07 2.50826e-07
0.0 0.0 0.0
-4.32852e-07 -1.23207e-07 -6.91287e-07
9.57009e-07 -9.78457e-07 2.64922e-06
0.0 0.0 -1.43822e-06
2.3729e-06 5.38901e-06 -4.82369e-06
0.0 0.0 -1.43822e-06
-2.80672e-19 1.67448e-19 -3.59989e-21
-1.27577e-08 -2.90544e-08 -3.39041e-09
1.76812e-07 2.61348e-08 -9.91176e-08
3.8641e-08 -2.31696e-07 -1.20885e-06
1.32958e-08 1.83867e-08 7.79432e-09
-3.555e-07 -1.4146e-07 3.10447e-07
0.0 0.0 -1.43822e-06
-8.43686e-07 4.03236e-07 -1.44841e-06
8.36656e-08 -4.20847e-07 3.36236e-07
-4.07538e-09 -1.63132e-08 -1.79445e-09
0.0 0.0 -1.43822e-06
-1.21483e-19 -3.00167e-20 -1.29173e-20
5.39535e-08 6.61843e-08 7.0988e-08
-4.01818e-07 3.40155e-07 -2.92269e-07
1.84907e-05 1.57702e-05 3.17078e-05
1.11239e-20 -2.69992e-21 1.27055e-21
-3.64341e-09 -7.26896e-08 -6.32682e-08
0.0 0.0 0.0
0.0 0.0 -1.43822e-06
-5.83929e-08 1.16257e-07 -8.00567e-08
2.26149e-07 -8.77878e-08 3.49349e-07
0.0 0.0 -1.43822e-06
-2.34846e-06 -1.63789e-05 -6.34029e-06
1.21818e-06 -2.5174e-07 5.85133e-07
0.0 0.0 -1.43822e-06
0.0 0.0 -1.43822e-06
7.64837e-08 -1.68226e-07 2.16127e-07
-2.10472e-09 1.24694e-08 -1.59344e-08
0.0 0.0 -1.43822e-06
6.16032e-08 -2.08972e-06 2.45175e-07
0.0 0.0 -1.43822e-06
0.0 0.0 -1.43822e-06
-2.48883e-08 -1.45936e-08 -1.4259e-07
0.0 0.0 -1.43822e-06
-9.2835e-09 1.58607e-08 -2.02728e-08
-2.00027e-09 -1.69358e-08 3.86898e-08
0.0 0.0 -1.43822e-06
-1.21153e-06 3.50683e-07 4.01747e-07
-7.34667e-06 -1.66059e-07 -1.40918e-06
-2.61045e-09 -1.68921e-08 -2.2249e-09
0.0 0.0 -1.43822e-06
-4.27761e-07 -6.19451e-06 -1.49272e-06
1.96062e-06 -3.68771e-06 5.01138e-06
4.7263e-06 -1.4479e-06 -3.83118e-06
4.46051e-09 2.58887e-09 1.25437e-08
5.266e-09 1.09607e-08 1.48715e-08
-1.60775e-06 -9.90939e-07 1.51789e-06
0.0 0.0 -1.43822e-06
-1.79106e-09 -2.55171e-08 7.12308e-09
0.0 0.0 -1.43822e-06
-1.71843e-06 -2.29558e-07 -2.10844e-06
3.90545e-08 -3.94201e-08 1.66482e-08
-6.8982e-07 -3.10541e-07 -1.287e-06
0.0 0.0 -1.43822e-06
0.0 0.0 -1.43822e-06
-6.37534e-09 -5.88063e-08 1.2711e-08
-1.73326e-06 -5.59325e-08 7.15714e-07
0.0 0.0 -1.43822e-06
3.06295e-10 -4.10615e-09 -2.29697e-08
-5.72852e-07 -1.26069e-06 2.11925e-06
0.0 0.0 -1.43822e-06
-5.53602e-07 -6.10795e-08 5.73317e-07
-3.94532e-07 -1.80398e-07 1.63473e-07
-7.45866e-07 -1.78583e-06 5.59048e-06
1.58088e-07 -5.98745e-08 3.93058e-09
1.39622e-07 -1.29113e-07 -3.42605e-07
-2.1021e-19 -5.96099e-20 3.38813e-21
4.09263e-07 2.42022e-07 -5.60648e-07
7.31453e-08 -2.13258e-08 2.34192e-07
-4.27075e-09 -1.91151e-08 8.88189e-10
1.08982e-07 -3.11022e-07 -7.03619e-07
4.50563e-07 -1.10892e-06 1.22619e-06
1.37874e-07 -2.15254e-06 4.48914e-06
3.10716e-08 4.5811e-08 -1.23381e-06
-2.1338e-20 -2.78594e-20 2.11758e-21
0.0 0.0 -1.43822e-06
0.0 0.0 -1.43822e-06
-2.08625e-07 1.49383e-08 -1.55365e-07
-2.80518e-08 1.23288e-08 1.46712e-08
8.13799e-08 2.16711e-07 -3.27445e-07
0.0 0.0 -1.43822e-06
-2.86464e-09 4.79315e-09 1.34131e-08
3.57696e-07 9.81403e-08 -7.01668e-07
1.38264e-06 -1.0001e-06 1.69966e-07
6.5212e-07 5.21474e-07 2.03371e-08
8.05413e-07 -6.73385e-06 1.01293e-06
0.0 0.0 -1.43822e-06
0.0 0.0 -1.43822e-06
-2.04393e-07 -5.54331e-07 -5.43581e-07
3.15067e-09 -4.83294e-07 -6.59864e-07
-6.79911e-05 6.96788e-05 -3.03593e-06
9.80383e-08 -6.42606e-08 -2.01977e-07
1.10528e-09 -6.70388e-09 -2.13574e-08
2.28666e-08 -1.46941e-07 9.33344e-08
0.0 0.0 -1.43822e-06
0.0 0.0 -1.43822e-06
-4.16637e-08 3.74984e-08 -1.33704e-06
2.3969e-08 -5.72381e-09 -1.46218e-07
-8.23955e-09 -1.48241e-08 2.52953e-08
-3.7411e-07 -3.13306e-07 -1.34579e-06
-2.13141e-08 -4.0474e-07 -4.39973e-07
0.0 0.0 -1.43822e-06
4.09058e-07 5.34264e-07 -4.59937e-08
-3.88693e-08 -3.14726e-08 -3.7758e-07
2.15082e-08 2.25277e-07 -2.64874e-07
0.0 0.0 -1.43822e-06
0.0 0.0 -1.43822e-06
-9.46672e-06 2.26109e-05 -4.54302e-05
1.12328e-08 -9.89435e-08 6.4907e-09
0.0 0.0 -1.43822e-06
0.0 0.0 -1.43822e-06
1.80002e-09 -1.44174e-08 -1.67257e-08
-1.40638e-08 -2.27668e-08 -3.62075e-08
0.0 0.0 -1.43822e-06
0.0 0.0 -1.43822e-06
-1.06319e-08 2.75131e-08 1.43291e-08
-3.2637e-09 1.48142e-08 -7.88887e-09
0.0 0.0 -1.43822e-06
0.0 0.0 -1.43822e-06
2.05378e-07 5.20393e-07 -5.08804e-08
0.0 0.0 0.0
0.0 0.0 -1.43822e-06
0.0 0.0 -1.43822e-06
0.0 0.0 -1.43822e-06
-2.08971e-08 5.12705e-08 -2.18793e-08
-1.00712e-07 1.01071e-06 -7.44078e-07
-1.37558e-07 1.09418e-07 6.14315e-08
-2.61614e-08 -2.73666e-08 -2.23741e-08
6.05341e-08 5.09444e-07 4.7614e-07
-2.21993e-07 -3.22121e-07 -5.71896e-07
0.0 0.0 -1.43822e-06
-2.39519e-08 -6.53915e-08 1.56315e-07
5.77964e-05 4.13566e-05 -2.55732e-05
2.85144e-07 -2.53119e-08 5.71525e-07
-3.37287e-08 -7.15048e-07 1.29186e-07
0.0 0.0 -1.43822e-06
0.0 0.0 -1.43822e-06
0.0 0.0 -1.43822e-06
1.0171e-07 -6.43146e-08 -7.68389e-07
1.85686e-20 3.84341e-20 1.43996e-20
-5.29268e-08 -1.13143e-07 1.29564e-07
-8.84515e-08 -3.71068e-08 1.65579e-08
3.97736e-05 -4.13063e-05 -2.65353e-06
0.0 0.0 -1.43822e-06
-3.7248e-08 1.44226e-07 -8.58595e-09
4.41977e-06 -1.23204e-06 2.46611e-06
0.0 0.0 -1.43822e-06
-3.21433e-06 1.56949e-06 4.18008e-07
-5.4883e-07 6.43262e-08 1.45672e-06
-1.14316e-08 2.36421e-08 3.43727e-09
6.85909e-08 -1.84907e-08 -2.03122e-08
2.26397e-07 1.20173e-07 1.17666e-06
-4.83306e-07 -1.68951e-07 1.91914e-07
0.0 0.0 -1.43822e-06
1.50404e-08 -1.89569e-08 -1.45319e-08
2.96385e-07 2.11117e-08 3.52293e-07
-4.14851e-08 -1.12006e-07 1.81257e-07
2.13842e-11 -3.38455e-09 -1.86203e-08
