# vtk DataFile Version 3.0
LIGGGHTS particles timestep 2000000
ASCII
DATASET POLYDATA
POINTS 272 float
0.0190793 0.0240569 0.0139218
0.0206327 0.0193993 0.00718518
0.0173078 0.0140907 0.0135122
0.0177318 0.0178652 0.0157862
0.0264539 0.0228643 0.009431
0.0189394 0.0170772 0.00766165
0.0181801 0.0156635 0.0143842
0.024856 0.0197017 0.0167564
0.0236085 0.0221474 0.0161195
0.0220291 0.0210289 0.0156106
0.0199905 0.0186403 0.00720142
0.022911 0.016882 0.0158825
0.0191922 0.0241063 0.0129295
0.021583 0.0224937 0.0143958
0.0239019 0.0226809 0.0153012
0.0234323 0.015444 0.0147547
0.0187639 0.0162684 0.00817313
0.0258862 0.0211843 0.00782199
0.0242305 0.0150207 0.0100842
0.0179481 0.0205719 0.0156989
0.0197996 0.0172206 0.00757402
0.0230911 0.0163691 0.0150432
0.0237009 0.0187167 0.0159314
0.0199573 0.0238132 0.0154693
0.0222333 0.0200981 0.0158886
0.0231185 0.0221023 0.0152488
0.0222496 0.015179 0.0150956
0.0211368 0.0227958 0.0152502
0.0203289 0.0231857 0.0167565
0.0235668 0.0150109 0.0129049
0.0179649 0.0144488 0.0141754
0.0232779 0.0204298 0.0175863
0.0233956 0.015378 0.0137575
0.0207512 0.0240562 0.0125993
0.027169 0.0232527 0.0125285
0.0181791 0.0152113 0.0161846
0.0247867 0.0160537 0.0160279
0.0236162 0.0152301 0.0249514
0.026256 0.0222804 0.00872981
0.0182072 0.0240826 0.0130114
0.0200469 0.0218515 0.00818674
0.151427 0.0197366 0.00603425
0.0231942 0.0192349 0.0166229
0.0174391 0.015272 0.013839
0.021171 0.0155723 0.0164931
0.0208799 0.0243039 0.0139229
0.0191899 0.01835 0.00722707
0.021287 0.023435 0.0140711
0.025661 0.0205655 0.0165385
0.021916 0.0118268 0.0322571
0.0128507 0.0208109 0.0164417
0.0245726 0.0206437 0.0165758
0.0200933 0.0242854 0.0133097
0.0215644 0.0234047 0.0123815
0.0232116 0.0233649 0.0149521
0.0221344 0.0196123 0.0168284
0.0206493 0.0183617 0.0167094
0.0245491 0.0220729 0.0157843
0.0246842 0.0176835 0.0157379
0.0228937 0.0145277 0.0146901
0.0256081 0.0176652 0.0165509
0.0168869 0.0171605 0.0155239
0.0176246 0.0240681 0.0138111
0.0258509 0.0196013 0.0167521
0.0125125 0.0184187 0.016214
0.0211394 0.0232399 0.0127978
0.0215528 0.0238893 0.0133344
0.0201408 0.0229091 0.0150853
0.0230186 0.0210308 0.0156329
0.0200166 0.0235849 0.0141691
0.00923244 0.014653 0.0354095
0.021835 0.0218594 0.0151093
0.0202549 0.0152259 0.0162908
0.0123308 0.0195609 0.0164241
0.0191402 0.0150045 0.0160021
0.0242912 0.0168637 0.0163417
0.0165178 0.0233203 0.0127744
0.0238031 0.0171752 0.0155264
0.0168732 0.0164614 0.0167238
0.0172925 0.0230857 0.0133615
0.0230097 0.0155826 0.0156552
0.018238 0.0143412 0.0151311
0.0208296 0.023403 0.0111587
0.00801766 0.0223684 0.0383971
0.018699 0.0172189 0.0155499
0.0214826 0.0177667 0.0166238
0.0222557 0.0232164 0.0130857
0.0176475 0.0148497 0.012957
0.0239939 0.0151717 0.0155843
0.0186551 0.0236588 0.0154009
0.0245825 0.0180239 0.0166727
0.0142664 0.0137938 0.024029
0.0192482 0.0184149 0.0177296
0.0184099 0.0150948 0.0135554
0.0201182 0.0210202 0.00769636
0.0226326 0.021368 0.0165262
0.0211615 0.0225938 0.016317
0.0240991 0.0209682 0.0173946
0.0178643 0.0146283 0.0120064
0.0218553 0.0241377 0.0142439
0.016798 0.0241228 0.0143511
0.0181788 0.0221741 0.0222264
0.0181496 0.0234283 0.0143725
0.0170979 0.0161373 0.0155909
0.0184302 0.0234534 0.0210433
0.0263077 0.0204943 0.0074595
0.0162523 0.0239546 0.0195858
0.0159876 0.0165203 0.0171934
0.024794 0.0167744 0.0153346
0.0219494 0.0230233 0.0158759
0.0219597 0.0145931 0.0143389
0.0241183 0.0161462 0.0149484
0.0188719 0.0226654 0.0153122
0.0186616 0.0141163 0.0160084
0.0192752 0.024047 0.016162
0.0193489 0.0146189 0.0119429
0.019949 0.0146482 0.0155342
0.0198222 0.0166495 0.0161749
0.0251522 0.021381 0.016229
0.0271387 0.0226255 0.00901783
0.0224926 0.0151639 0.0164017
0.0205999 0.0144696 0.0141475
0.0152869 0.0157307 0.0170995
0.0237894 0.0200347 0.0167029
0.0215703 0.0157282 0.0155896
0.0213981 0.0142398 0.0135908
0.0186787 0.0222967 0.0163184
0.0214456 0.0250413 0.020215
0.013472 0.0200498 0.0166519
0.0188369 0.0163676 0.0150427
0.0171253 0.0214053 0.0155732
0.0195047 0.0219987 0.0158389
0.0206176 0.0160175 0.0157861
0.013878 0.0222823 0.0156692
0.0173632 0.022465 0.0143714
0.0185736 0.0200038 0.0164642
0.0160034 0.023613 0.0141259
0.0193642 0.0152545 0.0138074
0.0181184 0.023113 0.0176917
0.0171844 0.0173761 0.0164659
0.0174477 0.0174176 0.017461
0.0164494 0.0227738 0.0139088
0.0196421 0.0142189 0.0163835
0.0166118 0.0147782 0.0146453
0.016373 0.0142861 0.0138082
0.0190639 0.0154262 0.0147872
0.0189436 0.0141222 0.0143229
0.0154125 0.0194794 0.019002
0.0156423 0.02245 0.0143835
0.0173076 0.019488 0.0159324
0.0166268 0.0164264 0.0192316
0.0181526 0.0188932 0.0159384
0.0151824 0.023293 0.0146622
0.0153875 0.0226836 0.015566
0.0217944 0.02067 0.0165866
0.0165035 0.0226082 0.0148942
0.0224897 0.0176743 0.0165196
0.0218232 0.0234775 0.0149941
0.0197348 0.0156336 0.015499
0.0152817 0.0151921 0.0150648
0.0135355 0.021486 0.0161675
0.0146177 0.0195211 0.0182771
0.021656 0.0146512 0.0165988
0.0222449 0.0227783 0.0138928
0.017876 0.0182716 0.0167393
0.0178066 0.0167981 0.015344
0.0183953 0.0174578 0.0164726
0.0170855 0.014236 0.017457
0.018805 0.0137765 0.0133946
0.0197211 0.0147051 0.0145625
0.023859 0.0214676 0.0153628
0.0242839 0.0216382 0.0166529
0.0205166 0.0140646 0.0131529
0.0232063 0.0161311 0.0165123
0.014345 0.0229437 0.0150825
0.0196363 0.0149371 0.0170792
0.0224006 0.0226615 0.0148971
0.0226665 0.0235626 0.014151
0.0232147 0.0200913 0.0158733
0.0155675 0.014604 0.0143083
0.0252667 0.0187898 0.0167375
0.0191207 0.023309 0.0145862
0.0240611 0.0205692 0.0157198
0.0223695 0.0221105 0.0159105
0.0219828 0.0167039 0.0162141
0.0172308 0.0158953 0.0146299
0.0195771 0.0141163 0.0128148
0.0230035 0.0222156 0.0169129
0.0180737 0.0157828 0.0153711
0.0242655 0.0195448 0.0159177
0.0235525 0.0209795 0.0164766
0.0211383 0.0195195 0.0167577
0.0175085 0.0150173 0.0150197
0.0163006 0.0175541 0.0169327
0.0229425 0.0229158 0.0157918
0.0187593 0.016129 0.0160112
0.0186282 0.0143134 0.0125695
0.0206501 0.0143671 0.0166166
0.0163902 0.0203519 0.0157627
0.0155074 0.0229848 0.0135548
0.0185598 0.0220998 0.0178838
0.0235634 0.0190231 0.0175346
0.0208851 0.0177267 0.017503
0.0208958 0.0102494 0.0257247
0.020475 0.0222001 0.0157059
0.0232942 0.0182394 0.0167115
0.024872 0.0160671 0.0220332
0.0133433 0.0167312 0.0162094
0.0190335 0.016688 0.0167935
0.0196869 0.0207286 0.0164919
0.020094 0.0222219 0.0166301
0.0194991 0.0158049 0.0166015
0.0186775 0.0189964 0.0167832
0.0195231 0.0230642 0.0159695
0.0227744 0.0203923 0.0167191
0.0235445 0.0214334 0.018085
0.0215316 0.0236155 0.0165648
0.020787 0.0238263 0.0148436
0.0202393 0.0241292 0.0164178
0.0168349 0.0151548 0.0158779
0.0201372 0.0190553 0.0174321
0.0239331 0.0180621 0.0174609
0.0130466 0.0140216 0.0233111
0.0242024 0.0189452 0.0167655
0.0210074 0.0169385 0.0163261
0.0249501 0.0151428 0.024401
0.0206066 0.0155349 0.0200216
0.0219557 0.0222826 0.0169272
0.0215152 0.021668 0.0161829
0.0225288 0.0230669 0.0166896
0.0152547 0.0178997 0.0260288
0.0245557 0.0190705 0.0176926
0.0216427 0.0168851 0.017137
0.0198277 0.0120993 0.0224105
0.0217832 0.0133561 0.0356587
0.0206376 0.0150715 0.014945
0.0205662 0.0213573 0.016236
0.0175377 0.014456 0.0160508
0.0201125 0.0197581 0.0167211
0.0210506 0.0148382 0.0158252
0.0212108 0.0154464 0.0174842
0.0148464 0.0158586 0.0156702
0.0181305 0.0162159 0.0167851
0.0208197 0.0204476 0.0165647
0.0174656 0.0178989 0.0188521
0.0207834 0.0234601 0.0159088
0.0142833 0.0152352 0.0151016
0.0188185 0.0116138 0.0229232
0.0156933 0.016989 0.0163606
0.015282 0.0220341 0.0205963
0.0224807 0.0190461 0.0159461
0.0219746 0.0186271 0.0167685
0.0173605 0.015595 0.0166121
0.019893 0.0149361 0.0180728
0.0160322 0.0156484 0.0155431
0.0138114 0.0156114 0.0211738
0.0181293 0.0166604 0.0176817
0.0203862 0.015848 0.0170638
0.0212914 0.0161201 0.0294073
0.0186802 0.0146571 0.0168493
0.0220335 0.0159309 0.0168499
0.0156139 0.0164404 0.0183711
0.0144787 0.0166721 0.0161842
0.0202832 0.0169017 0.0170262
0.0195545 0.0135854 0.0192912
0.0133767 0.0184377 0.0175836
0.0202567 0.0158466 0.0187993
0.0189474 0.0175614 0.0173008
0.0198009 0.0230552 0.0187218
0.0175982 0.0303168 0.0687103
0.0231431 0.0178836 0.0157879
0.0178865 0.0229663 0.0158841

VERTICES 272 544
1 0
1 1
1 2
1 3
1 4
1 5
1 6
1 7
1 8
1 9
1 10
1 11
1 12
1 13
1 14
1 15
1 16
1 17
1 18
1 19
1 20
1 21
1 22
1 23
1 24
1 25
1 26
1 27
1 28
1 29
1 30
1 31
1 32
1 33
1 34
1 35
1 36
1 37
1 38
1 39
1 40
1 41
1 42
1 43
1 44
1 45
1 46
1 47
1 48
1 49
1 50
1 51
1 52
1 53
1 54
1 55
1 56
1 57
1 58
1 59
1 60
1 61
1 62
1 63
1 64
1 65
1 66
1 67
1 68
1 69
1 70
1 71
1 72
1 73
1 74
1 75
1 76
1 77
1 78
1 79
1 80
1 81
1 82
1 83
1 84
1 85
1 86
1 87
1 88
1 89
1 90
1 91
1 92
1 93
1 94
1 95
1 96
1 97
1 98
1 99
1 100
1 101
1 102
1 103
1 104
1 105
1 106
1 107
1 108
1 109
1 110
1 111
1 112
1 113
1 114
1 115
1 116
1 117
1 118
1 119
1 120
1 121
1 122
1 123
1 124
1 125
1 126
1 127
1 128
1 129
1 130
1 131
1 132
1 133
1 134
1 135
1 136
1 137
1 138
1 139
1 140
1 141
1 142
1 143
1 144
1 145
1 146
1 147
1 148
1 149
1 150
1 151
1 152
1 153
1 154
1 155
1 156
1 157
1 158
1 159
1 160
1 161
1 162
1 163
1 164
1 165
1 166
1 167
1 168
1 169
1 170
1 171
1 172
1 173
1 174
1 175
1 176
1 177
1 178
1 179
1 180
1 181
1 182
1 183
1 184
1 185
1 186
1 187
1 188
1 189
1 190
1 191
1 192
1 193
1 194
1 195
1 196
1 197
1 198
1 199
1 200
1 201
1 202
1 203
1 204
1 205
1 206
1 207
1 208
1 209
1 210
1 211
1 212
1 213
1 214
1 215
1 216
1 217
1 218
1 219
1 220
1 221
1 222
1 223
1 224
1 225
1 226
1 227
1 228
1 229
1 230
1 231
1 232
1 233
1 234
1 235
1 236
1 237
1 238
1 239
1 240
1 241
1 242
1 243
1 244
1 245
1 246
1 247
1 248
1 249
1 250
1 251
1 252
1 253
1 254
1 255
1 256
1 257
1 258
1 259
1 260
1 261
1 262
1 263
1 264
1 265
1 266
1 267
1 268
1 269
1 270
1 271

POINT_DATA 272
SCALARS id int 1
LOOKUP_TABLE default
1
2
3
4
5
6
7
8
9
10
11
12
13
16
17
18
19
20
21
22
23
24
25
26
27
28
29
30
31
32
33
34
35
36
37
38
39
41
42
43
44
45
46
47
48
49
51
52
53
54
55
56
57
58
59
60
61
62
63
64
65
68
69
70
71
72
73
74
75
76
77
78
79
80
81
84
85
86
87
88
89
90
91
93
94
95
96
97
98
99
101
103
104
105
106
107
109
110
111
112
113
114
115
116
117
118
119
120
121
123
124
125
126
127
129
130
131
132
133
134
136
137
139
141
142
143
144
145
146
147
148
149
150
151
152
154
155
156
157
158
160
161
162
163
164
165
167
169
170
171
172
173
174
175
176
177
178
179
180
181
182
183
185
186
187
188
189
190
192
193
194
195
196
197
198
199
201
202
203
204
205
206
207
208
209
210
211
212
213
214
215
216
217
218
220
221
222
223
224
225
226
227
228
229
230
231
232
233
234
235
236
237
238
239
241
242
243
244
245
246
247
248
249
250
252
253
254
256
257
258
259
260
261
262
263
264
265
266
267
268
269
270
271
272
273
274
275
276
277
278
279
280
281
282
283
284
285
286
287
288
289
290
291
292
293
294
295
296
297
298
299
300

SCALARS type int 1
LOOKUP_TABLE default
1
1
1
1
1
1
1
1
1
1
1
1
1
1
1
1
1
1
1
1
1
1
1
1
1
1
1
1
1
1
1
1
1
1
1
1
1
1
1
1
1
1
1
1
1
1
1
1
1
1
1
1
1
1
1
1
1
1
1
1
1
1
1
1
1
1
1
1
1
1
1
1
1
1
1
1
1
1
1
1
1
1
1
1
1
1
1
1
1
1
1
1
1
1
1
1
1
1
1
1
1
1
1
1
1
1
1
1
1
1
1
1
1
1
1
1
1
1
1
1
1
1
1
1
1
1
1
1
1
1
1
1
1
1
1
1
1
1
1
1
1
1
1
1
1
1
1
1
1
1
1
1
1
1
1
1
1
1
1
1
1
1
1
1
1
1
1
1
1
1
1
1
1
1
1
1
1
1
1
1
1
1
1
1
1
1
1
1
1
1
1
1
1
1
1
1
1
1
1
1
1
1
1
1
1
1
1
1
1
1
1
1
1
1
1
1
1
1
1
1
1
1
1
1
1
1
1
1
1
1
1
1
1
1
1
1
1
1
1
1
1
1
1
1
1
1
1
1
1
1
1
1
1
1
1
1
1
1
1
1
1
1
1
1
1
1
1
1
1
1
1
1

SCALARS radius float 1
LOOKUP_TABLE default
0.0005
0.0005
0.0005
0.0005
0.0005
0.0005
0.0005
0.0005
0.0005
0.0005
0.0005
0.0005
0.0005
0.0005
0.0005
0.0005
0.0005
0.0005
0.0005
0.0005
0.0005
0.0005
0.0005
0.0005
0.0005
0.0005
0.0005
0.0005
0.0005
0.0005
0.0005
0.0005
0.0005
0.0005
0.0005
0.0005
0.0005
0.0005
0.0005
0.0005
0.0005
0.0005
0.0005
0.0005
0.0005
0.0005
0.0005
0.0005
0.0005
0.0005
0.0005
0.0005
0.0005
0.0005
0.0005
0.0005
0.0005
0.0005
0.0005
0.0005
0.0005
0.0005
0.0005
0.0005
0.0005
0.0005
0.0005
0.0005
0.0005
0.0005
0.0005
0.0005
0.0005
0.0005
0.0005
0.0005
0.0005
0.0005
0.0005
0.0005
0.0005
0.0005
0.0005
0.0005
0.0005
0.0005
0.0005
0.0005
0.0005
0.0005
0.0005
0.0005
0.0005
0.0005
0.0005
0.0005
0.0005
0.0005
0.0005
0.0005
0.0005
0.0005
0.0005
0.0005
0.0005
0.0005
0.0005
0.0005
0.0005
0.0005
0.0005
0.0005
0.0005
0.0005
0.0005
0.0005
0.0005
0.0005
0.0005
0.0005
0.0005
0.0005
0.0005
0.0005
0.0005
0.0005
0.0005
0.0005
0.0005
0.0005
0.0005
0.0005
0.0005
0.0005
0.0005
0.0005
0.0005
0.0005
0.0005
0.0005
0.0005
0.0005
0.0005
0.0005
0.0005
0.0005
0.0005
0.0005
0.0005
0.0005
0.0005
0.0005
0.0005
0.0005
0.0005
0.0005
0.0005
0.0005
0.0005
0.0005
0.0005
0.0005
0.0005
0.0005
0.0005
0.0005
0.0005
0.0005
0.0005
0.0005
0.0005
0.0005
0.0005
0.0005
0.0005
0.0005
0.0005
0.0005
0.0005
0.0005
0.0005
0.0005
0.0005
0.0005
0.0005
0.0005
0.0005
0.0005
0.0005
0.0005
0.0005
0.0005
0.0005
0.0005
0.0005
0.0005
0.0005
0.0005
0.0005
0.0005
0.0005
0.0005
0.0005
0.0005
0.0005
0.0005
0.0005
0.0005
0.0005
0.0005
0.0005
0.0005
0.0005
0.0005
0.0005
0.0005
0.0005
0.0005
0.0005
0.0005
0.0005
0.0005
0.0005
0.0005
0.0005
0.0005
0.0005
0.0005
0.0005
0.0005
0.0005
0.0005
0.0005
0.0005
0.0005
0.0005
0.0005
0.0005
0.0005
0.0005
0.0005
0.0005
0.0005
0.0005
0.0005
0.0005
0.0005
0.0005
0.0005
0.0005
0.0005
0.0005
0.0005
0.0005
0.0005
0.0005
0.0005
0.0005
0.0005
0.0005
0.0005
0.0005
0.0005
0.0005
0.0005
0.0005
0.0005
0.0005
0.0005
0.0005
0.0005
0.0005

SCALARS mass float 1
LOOKUP_TABLE default
1.46608e-07
1.46608e-07
1.46608e-07
1.46608e-07
1.46608e-07
1.46608e-07
1.46608e-07
1.46608e-07
1.46608e-07
1.46608e-07
1.46608e-07
1.46608e-07
1.46608e-07
1.46608e-07
1.46608e-07
1.46608e-07
1.46608e-07
1.46608e-07
1.46608e-07
1.46608e-07
1.46608e-07
1.46608e-07
1.46608e-07
1.46608e-07
1.46608e-07
1.46608e-07
1.46608e-07
1.46608e-07
1.46608e-07
1.46608e-07
1.46608e-07
1.46608e-07
1.46608e-07
1.46608e-07
1.46608e-07
1.46608e-07
1.46608e-07
1.46608e-07
1.46608e-07
1.46608e-07
1.46608e-07
1.46608e-07
1.46608e-07
1.46608e-07
1.46608e-07
1.46608e-07
1.46608e-07
1.46608e-07
1.46608e-07
1.46608e-07
1.46608e-07
1.46608e-07
1.46608e-07
1.46608e-07
1.46608e-07
1.46608e-07
1.46608e-07
1.46608e-07
1.46608e-07
1.46608e-07
1.46608e-07
1.46608e-07
1.46608e-07
1.46608e-07
1.46608e-07
1.46608e-07
1.46608e-07
1.46608e-07
1.46608e-07
1.46608e-07
1.46608e-07
1.46608e-07
1.46608e-07
1.46608e-07
1.46608e-07
1.46608e-07
1.46608e-07
1.46608e-07
1.46608e-07
1.46608e-07
1.46608e-07
1.46608e-07
1.46608e-07
1.46608e-07
1.46608e-07
1.46608e-07
1.46608e-07
1.46608e-07
1.46608e-07
1.46608e-07
1.46608e-07
1.46608e-07
1.46608e-07
1.46608e-07
1.46608e-07
1.46608e-07
1.46608e-07
1.46608e-07
1.46608e-07
1.46608e-07
1.46608e-07
1.46608e-07
1.46608e-07
1.46608e-07
1.46608e-07
1.46608e-07
1.46608e-07
1.46608e-07
1.46608e-07
1.46608e-07
1.46608e-07
1.46608e-07
1.46608e-07
1.46608e-07
1.46608e-07
1.46608e-07
1.46608e-07
1.46608e-07
1.46608e-07
1.46608e-07
1.46608e-07
1.46608e-07
1.46608e-07
1.46608e-07
1.46608e-07
1.46608e-07
1.46608e-07
1.46608e-07
1.46608e-07
1.46608e-07
1.46608e-07
1.46608e-07
1.46608e-07
1.46608e-07
1.46608e-07
1.46608e-07
1.46608e-07
1.46608e-07
1.46608e-07
1.46608e-07
1.46608e-07
1.46608e-07
1.46608e-07
1.46608e-07
1.46608e-07
1.46608e-07
1.46608e-07
1.46608e-07
1.46608e-07
1.46608e-07
1.46608e-07
1.46608e-07
1.46608e-07
1.46608e-07
1.46608e-07
1.46608e-07
1.46608e-07
1.46608e-07
1.46608e-07
1.46608e-07
1.46608e-07
1.46608e-07
1.46608e-07
1.46608e-07
1.46608e-07
1.46608e-07
1.46608e-07
1.46608e-07
1.46608e-07
1.46608e-07
1.46608e-07
1.46608e-07
1.46608e-07
1.46608e-07
1.46608e-07
1.46608e-07
1.46608e-07
1.46608e-07
1.46608e-07
1.46608e-07
1.46608e-07
1.46608e-07
1.46608e-07
1.46608e-07
1.46608e-07
1.46608e-07
1.46608e-07
1.46608e-07
1.46608e-07
1.46608e-07
1.46608e-07
1.46608e-07
1.46608e-07
1.46608e-07
1.46608e-07
1.46608e-07
1.46608e-07
1.46608e-07
1.46608e-07
1.46608e-07
1.46608e-07
1.46608e-07
1.46608e-07
1.46608e-07
1.46608e-07
1.46608e-07
1.46608e-07
1.46608e-07
1.46608e-07
1.46608e-07
1.46608e-07
1.46608e-07
1.46608e-07
1.46608e-07
1.46608e-07
1.46608e-07
1.46608e-07
1.46608e-07
1.46608e-07
1.46608e-07
1.46608e-07
1.46608e-07
1.46608e-07
1.46608e-07
1.46608e-07
1.46608e-07
1.46608e-07
1.46608e-07
1.46608e-07
1.46608e-07
1.46608e-07
1.46608e-07
1.46608e-07
1.46608e-07
1.46608e-07
1.46608e-07
1.46608e-07
1.46608e-07
1.46608e-07
1.46608e-07
1.46608e-07
1.46608e-07
1.46608e-07
1.46608e-07
1.46608e-07
1.46608e-07
1.46608e-07
1.46608e-07
1.46608e-07
1.46608e-07
1.46608e-07
1.46608e-07
1.46608e-07
1.46608e-07
1.46608e-07
1.46608e-07
1.46608e-07
1.46608e-07
1.46608e-07
1.46608e-07
1.46608e-07
1.46608e-07
1.46608e-07
1.46608e-07
1.46608e-07
1.46608e-07
1.46608e-07
1.46608e-07
1.46608e-07
1.46608e-07
1.46608e-07
1.46608e-07

VECTORS velocity float
0.00259824 0.000724668 0.000405981
-0.000145577 -0.0208212 -0.00288179
0.00124824 -0.00100647 0.00250035
0.00542308 0.0233652 0.00696475
0.00137026 -0.00109792 -0.00731767
0.000947263 -0.0183587 0.0107705
0.00216656 0.00362306 0.00538087
0.000384242 0.0007359 0.00186117
0.00123776 0.000809429 0.000766228
0.00488596 0.00363254 -9.70606e-05
0.00105053 -0.0218186 0.000693836
-0.00293015 0.0134856 -0.00210608
0.000128167 -0.00124647 0.000683401
0.00515329 0.000730252 -0.000961714
-0.00020826 -2.02141e-05 -0.000136001
0.0323561 -0.00121009 0.010494
0.000644695 -0.017151 0.0152692
-0.000249715 -0.0216931 -0.0139593
0.00249048 -0.00819838 0.0258306
-0.00100368 0.0362628 -0.0080513
0.000379523 -0.0221122 0.0105344
0.00449722 0.00542233 0.00448368
-0.00142935 0.00870233 -0.000735035
-0.00131415 0.000197855 0.000151892
0.00513875 0.00469037 0.00184715
0.000149314 -0.000768996 6.65096e-05
0.0098681 0.010521 0.00155388
-0.00182965 -0.00191545 -0.00185628
-0.00760226 -0.00113789 -0.00685979
0.000452455 0.00929845 0.0257721
0.000420891 0.000115491 0.00315891
0.0176375 -0.0196963 -0.0110812
-0.00037244 0.0119729 0.0267411
-0.0055979 -0.00235812 -0.00160259
0.00158718 0.00512332 -0.0215876
0.00336252 -0.00140048 0.00343302
-0.00174151 0.00136179 -0.00668704
0.213618 -0.145745 0.0672711
0.00173879 -0.0140225 -0.0140532
0.000161037 -0.000433461 0.000663913
0.00127935 -0.0134344 -0.0111793
2.07676e-14 3.22787e-14 -3.48911e-13
-0.00780568 0.00572191 -0.00723662
0.00187143 0.0027753 0.00457215
0.00557914 0.000839357 0.00201415
7.90554e-06 0.00106525 -3.47183e-05
0.000496576 -0.0240007 0.00417653
0.00216473 0.00308309 -0.00206528
0.00106378 -0.00186704 -0.0037563
0.189783 -0.294705 0.328191
0.00335322 0.00572836 -0.00110531
0.00171933 -0.000877622 0.00189034
-0.000870756 0.000342585 0.00216337
0.00133581 0.000613852 -0.00158071
-0.000740296 0.000845718 0.000409857
0.00442084 0.00539611 -0.0123216
3.79088e-08 0.0288045 0.00380191
-0.00307539 -0.00563082 -0.0100591
-0.00158318 0.0182032 0.00678927
0.00910899 0.00543794 0.00619921
0.00570809 0.0169935 0.00607376
0.00164642 0.00772189 0.000825492
0.00067262 0.000531288 0.000545579
0.00018656 -0.000284864 0.000457542
0.00516116 0.00596667 -0.0182804
0.000972094 0.00390765 -0.00970382
-0.000293267 0.000949929 -4.49938e-05
0.0009144 0.000311481 0.00120852
0.00464112 0.00467028 -0.000143407
-0.000626106 0.0201402 -0.03991
-0.200618 -0.182909 0.402471
0.00487816 0.00234836 -0.000593492
0.00348583 0.00233349 0.0038408
0.00136071 0.0118186 -0.00474983
0.00162669 0.000771581 -0.000976672
0.00858552 0.00550459 -0.000874583
0.00372904 0.00226059 -0.0011737
0.00238905 0.0107659 0.0049708
-0.0100487 0.00321047 -0.0427094
0.00492491 0.0014309 -0.00318778
0.00661239 0.00218142 0.000933128
0.000816108 0.000590026 0.0035077
0.000329943 -0.00235572 -0.0236313
-0.284218 0.0940754 0.482331
0.00286009 0.0147115 -0.0272317
-0.00700533 0.00776203 0.000955691
9.61758e-05 0.000132017 -8.27155e-05
0.00458294 0.00103736 0.00595065
0.0259103 -0.000761106 0.0425298
-0.0195567 -0.00109865 -0.00876034
-0.00227056 0.00272902 0.00540424
-0.00351233 -0.163149 0.0698445
-0.00315026 -0.00411714 -0.0172601
0.00402337 0.00114477 0.00607549
9.70552e-05 -0.0210626 -0.00990234
-0.00143854 -0.00574624 -0.00254043
0.00158931 -0.000334576 0.000191613
0.00449964 0.00406223 0.00112914
0.00486979 -0.00110559 0.00593467
0.000480715 0.000603742 -0.000443424
0.000467834 -2.35202e-05 -0.00014152
0.0596508 -0.0171177 0.0205613
0.00132011 -0.000340561 -0.000923439
0.00246023 0.0060896 0.00493361
0.0403588 0.00917482 -0.00940569
-0.0001424 -0.0230223 -0.00855432
-0.0187674 0.0233696 -0.025546
-0.00106625 -0.0131853 -0.011086
0.0248218 0.0130385 0.00776426
0.0016717 -0.00177698 -0.000994064
0.00874076 0.00386519 0.00715488
0.027687 0.00606211 0.0119917
-0.016162 -0.00128797 -0.0030501
0.00252141 0.000450336 0.00174186
-0.0126744 -0.00569427 -0.0100153
0.00195946 -0.00151706 0.0024213
0.00422421 0.000882765 0.00430137
-9.37922e-05 0.0175796 0.00923542
-0.000152946 2.75111e-05 -5.95321e-05
0.00169281 0.00148428 -0.000804599
-0.000736653 -0.0015541 -0.00740486
0.0057048 0.00246565 0.00356554
0.0151169 0.0102851 -0.00300594
-0.00250923 0.00282091 -0.0155691
0.00400357 0.000280856 -0.00114605
0.00901422 0.00253319 0.00756136
-0.0399354 0.0297333 -0.0779819
0.0470085 -0.0415877 -0.0345859
-7.98833e-08 0.0284764 -0.0055356
0.00105383 0.00203204 0.00472214
0.00189271 0.0174809 -0.110542
-0.00570047 0.0236634 -0.016229
0.000537966 0.00750539 0.00679802
0.00531997 0.00476387 -0.0013676
0.0106187 0.043244 -0.0551493
-0.00350733 0.0298066 -0.00685247
0.000355908 -4.77847e-05 -0.000832817
0.00415355 0.00156723 0.00388546
-0.00360684 -0.00704586 -0.101503
0.025122 0.00117244 0.0103276
-0.0543368 -0.0269753 -0.0869231
0.00473959 0.00143048 -0.00276855
0.00180905 -0.000357272 0.00264747
0.00164761 -0.00115225 0.00108659
0.000675299 -0.00138665 0.00158736
0.00489646 0.00182398 0.00244
0.00512332 -0.000591302 0.00588879
-0.0438531 -0.0871615 -0.0521066
0.00482526 0.00227327 -0.00257068
0.00265658 0.0210997 -0.00162837
-0.0146307 0.00296184 -0.0841991
-7.19087e-05 0.0164749 0.000133821
0.00580928 0.00193262 -0.00353027
0.00556748 0.0644804 -0.0131439
-0.00100294 0.0116512 -0.00564354
0.0147942 -0.0151153 -0.0035122
-0.00567407 0.0113827 0.0132914
0.00142639 -0.00114515 -0.000820198
0.00580937 0.00160287 0.00119134
-2.09956e-06 0.00125182 0.00073371
0.00198788 0.0067695 -0.00100215
-0.0234464 -0.0741367 -0.118541
0.00614488 0.00011583 0.002783
0.00347334 0.000434058 -0.000464785
-0.0428437 0.0312813 -0.0557639
0.00236185 0.00635856 0.00212553
-0.0299605 0.0264516 -0.0325782
0.0462217 0.023439 -0.0364194
0.00685537 -0.00396792 0.00588461
0.00543979 0.00161374 0.00368518
0.00446668 0.00450757 -0.00134893
0.00110913 -5.33909e-05 0.000162322
0.00717252 0.00196003 0.00951411
0.00815825 0.0254546 0.00655962
0.00623835 0.00188477 -0.00365297
0.00863795 0.00640724 -0.00653887
0.00545625 0.00439707 -0.00249084
0.000554484 0.000425019 -0.000340582
0.00505671 0.00542648 0.00148598
3.70072e-05 -0.000163175 0.00107796
-0.000938729 0.00035123 3.23009e-05
0.00198442 6.2526e-05 -0.000402847
0.004687 0.00559609 0.000379929
0.00102982 -0.000539011 0.00226923
0.000840516 0.0211025 0.0103374
0.00418958 0.00592087 0.00519728
0.00603346 0.0016571 0.00961374
-0.0053741 -0.00370474 -0.00321736
0.00244197 0.0023729 0.00496722
0.0241047 -0.000642339 0.00114943
0.00248879 0.00161089 -0.000141284
-0.00163969 0.000275535 -0.00116673
0.00404219 -0.000722433 -0.00953978
0.00943956 0.00696234 -0.013196
-0.000325136 -6.72043e-05 0.000123978
0.000697591 0.000254875 0.00764103
0.00527699 -0.000301805 0.00709099
0.00052593 -3.60137e-05 0.000353926
-0.0200387 0.00961412 -0.00689945
0.000276549 0.00242923 -0.00122947
-0.0110507 -0.0438844 -0.134265
-0.0151585 0.00768232 -0.00229989
0.0 0.0 -0.138297
-0.0378852 0.0558553 0.107124
0.00112866 0.000788349 -8.50749e-05
0.00840718 0.00939105 0.0016905
0.23387 -0.123924 -0.0194488
-0.0503219 -0.0671161 -0.0366404
-0.0148386 0.0149343 0.000695292
-2.20472e-08 0.0276064 -0.00927572
-0.0061886 -0.00205978 -0.00328712
0.00786254 0.0126696 0.00153737
-0.00386138 0.0261724 0.000861941
-0.00875443 -0.013169 -0.0273316
0.00184638 0.000713556 0.00228327
0.0124473 0.0338735 -0.0110186
-0.00824645 0.000546383 -0.00875538
-0.00213008 0.00263247 -0.00247092
-0.0121222 0.00112805 -0.0116173
0.005063 0.00212215 -0.0196793
-0.0159059 -0.0152538 -0.0262465
-0.00241406 -0.0112544 0.0104707
-0.0754897 -0.0673029 -0.00989748
-0.0025598 0.00480915 0.00280359
-0.0104224 0.00725026 0.00463135
-0.101991 0.00943416 0.0549127
0.172498 -0.00224862 -0.050869
-0.0123221 0.00112833 -0.0268782
0.00044567 -0.000579284 -0.000302673
-9.38886e-05 -4.80756e-05 -0.000230132
-0.0497352 -0.147613 0.113484
-0.00524344 0.0209292 -0.00335601
0.00408857 0.0325825 0.010976
0.0980354 -0.0837082 0.0178061
0.151546 -0.233819 0.418014
0.00270098 0.00174916 0.00369237
0.000144383 0.000347999 -0.000169136
0.00253122 0.000760143 -0.00407801
-0.00770716 0.00906745 -0.00241113
0.00420295 -2.62679e-05 0.00189259
0.00458183 -0.0198785 -0.00108263
-0.00259345 0.000222981 0.00147493
-0.0050147 0.00131142 0.00162648
0.000961291 0.000316976 -0.000183001
0.0 -0.0 -0.03
0.00286472 -6.04216e-05 -0.00247158
-0.000729944 0.000701885 0.0016167
-0.00160932 -0.0106289 0.0562661
-0.00504979 0.00881501 0.00274105
-0.00314868 -0.0112407 -0.0429951
-0.000544273 -0.0203735 -0.00439524
0.00321509 0.00874096 0.000136856
-0.00333207 0.00237309 -0.0125174
0.000109746 0.0933403 -0.0125469
-0.00449594 0.00205846 0.00332448
0.0447882 -0.0789636 -0.0425963
-0.0108807 0.00270627 0.00342513
0.0166242 0.0109309 -0.00673021
0.0928414 -0.167243 0.219367
0.00471823 0.0015054 0.000681758
0.00688708 0.00420963 -0.00920175
0.0 0.0 -0.04575
-0.00311811 0.00671476 0.00510266
-0.00426599 0.020958 0.0109123
0.0562636 0.059008 -0.136419
0.0336437 -0.0485951 -0.119798
0.0 -0.0 -0.03
-0.00665263 0.0247146 -0.0386567
0.0 -0.0 -0.03
0.0123179 0.30889 1.36131
-0.00511215 0.00747647 0.00267854
-0.0778537 -0.0400646 -0.0929624

VECTORS force float
-2.47186e-06 -2.42011e-06 3.08203e-06
2.72119e-08 -2.26557e-08 2.55187e-08
-4.58865e-07 7.23972e-07 -1.68477e-06
0.0 0.0 -1.43822e-06
-2.70644e-08 -2.15093e-08 1.67815e-07
-2.20046e-08 -9.84951e-08 8.76622e-08
-3.21673e-07 1.62123e-07 -1.75628e-06
2.93505e-06 6.2456e-06 -1.41127e-06
-3.43865e-08 2.38965e-07 -1.54717e-06
9.78629e-07 -9.18613e-06 1.03581e-06
1.70904e-07 -7.70096e-08 1.16109e-07
-5.28235e-08 -1.46377e-08 -9.29436e-07
3.15139e-06 1.29279e-07 -1.97574e-06
1.04133e-06 -7.85667e-07 4.07988e-06
5.39554e-06 -7.46422e-06 2.72233e-06
0.0 0.0 -1.43822e-06
-5.55901e-09 -1.50198e-08 3.45137e-08
-1.05015e-09 -1.07536e-08 1.09148e-08
-6.06668e-08 -8.26714e-08 3.15698e-08
0.0 0.0 -1.43822e-06
-8.16254e-09 -8.45386e-09 2.07433e-08
-2.05505e-07 5.00395e-07 -3.13715e-07
-4.16376e-06 5.70306e-06 8.28539e-06
-3.92174e-07 -3.86107e-06 -5.8959e-06
3.03914e-06 -9.73915e-06 4.86737e-06
-3.74565e-06 2.52309e-06 1.4868e-06
3.41735e-07 1.15006e-07 1.96566e-07
8.81667e-07 1.18355e-06 -1.75715e-06
2.15318e-08 9.15437e-07 -7.13975e-07
1.12945e-07 8.29031e-08 2.94176e-07
3.46142e-07 1.28568e-07 -6.53048e-07
0.0 0.0 -1.43822e-06
1.64647e-08 -2.20186e-08 6.49131e-08
-2.42966e-06 -5.33913e-06 1.58813e-05
2.70369e-07 -2.93672e-06 2.22264e-06
-2.57862e-07 -9.43131e-07 2.09367e-06
-2.3328e-07 1.99509e-07 -1.10301e-06
0.0 0.0 -1.43822e-06
-4.47395e-08 3.29132e-08 6.17831e-08
1.42576e-06 2.52022e-07 8.28663e-07
1.3624e-08 1.85964e-08 4.63859e-08
2.05125e-18 -1.3314e-18 5.71747e-21
0.0 0.0 -1.43822e-06
5.39544e-07 4.35611e-07 -9.39574e-07
-6.17833e-09 1.14185e-06 2.15039e-07
-7.9369e-06 -3.64276e-07 -9.17587e-07
1.44165e-07 3.86541e-07 4.38651e-09
2.03651e-06 3.74246e-06 -1.30598e-07
3.77967e-09 7.5241e-07 -4.07779e-07
0.0 0.0 -1.43822e-06
-1.70398e-07 1.52499e-06 -8.73005e-08
-1.11272e-06 -5.76743e-07 -2.97539e-07
2.41782e-06 7.56151e-06 -1.98924e-06
-1.15608e-05 -8.27999e-07 -1.40151e-05
1.38665e-07 2.44992e-06 1.39877e-06
3.61024e-06 7.29386e-06 3.70509e-06
-1.42764e-10 2.80475e-09 -2.3113e-08
-4.24107e-07 -1.00722e-07 -8.73877e-07
7.91308e-07 7.92892e-07 2.68493e-06
3.46771e-07 4.83813e-08 -7.56867e-07
-3.74915e-07 3.57709e-07 4.98426e-08
0.0 0.0 -1.43822e-06
-1.08985e-06 -2.98291e-06 8.50949e-07
-1.22357e-07 -4.00155e-07 -7.97598e-07
1.06305e-07 3.1517e-08 -7.66841e-07
1.33573e-05 3.34392e-07 3.72823e-05
1.34128e-05 -1.39519e-06 4.11304e-06
3.17473e-06 -2.67936e-06 -9.19184e-07
2.50819e-10 -3.01225e-06 5.30793e-06
0.0 0.0 -1.43822e-06
0.0 0.0 -1.43822e-06
7.01807e-07 -4.25153e-06 6.36976e-06
6.68199e-07 9.37254e-07 4.64573e-07
4.27323e-08 -7.42728e-08 2.71317e-08
1.71852e-06 -4.36725e-07 -1.05959e-08
-1.88208e-10 -1.92205e-07 -1.34535e-07
-2.97595e-08 1.52402e-08 1.28673e-08
-1.09976e-07 3.56299e-07 1.67555e-07
4.95317e-07 -3.45649e-06 1.27291e-06
3.41572e-08 -1.21612e-08 -3.41626e-07
1.77615e-08 -7.03298e-07 -8.29964e-07
3.20684e-07 -5.31208e-07 2.62313e-07
1.07913e-08 -1.19899e-08 -2.59179e-09
0.0 0.0 -1.43822e-06
0.0 0.0 -1.43822e-06
0.0 0.0 -1.43822e-06
-4.4769e-07 -8.86987e-07 -2.00027e-07
-1.0716e-07 -1.05258e-06 -1.36692e-06
0.0 0.0 -1.43822e-06
0.0 0.0 -1.43822e-06
0.0 0.0 -1.43822e-06
0.0 0.0 -1.43822e-06
0.0 0.0 -1.43822e-06
1.94363e-06 1.21597e-07 -9.89031e-08
-3.15858e-09 -1.87684e-08 5.14925e-09
1.8081e-06 3.99577e-06 5.07364e-06
-1.31043e-08 4.46703e-07 3.36381e-07
-8.3541e-07 -4.18085e-07 2.82161e-09
9.63029e-07 -7.41562e-09 -2.29676e-06
1.38719e-07 9.15635e-07 2.01644e-06
-2.90396e-06 -4.47193e-06 2.38473e-07
0.0 0.0 -1.43822e-06
2.73766e-07 4.79418e-07 -9.62692e-07
7.75314e-07 3.83797e-07 9.66993e-07
0.0 0.0 -1.43822e-06
6.63501e-09 -1.48403e-08 1.08588e-08
0.0 0.0 -1.43822e-06
-7.79972e-09 -2.99003e-07 -3.48356e-07
-8.64922e-07 -6.7883e-07 4.04975e-07
-7.5119e-07 1.21993e-06 -6.44701e-07
6.97287e-07 3.34077e-08 -7.99399e-07
0.0 0.0 -1.43822e-06
0.0 0.0 -1.43822e-06
-8.27062e-08 7.7975e-07 9.96204e-07
-4.676e-07 1.45947e-06 2.48925e-06
-2.38857e-07 4.03232e-07 -1.00743e-06
7.8297e-07 4.49255e-07 -4.37207e-07
2.42795e-06 3.41805e-06 -4.15264e-06
-2.59419e-06 -4.9118e-07 -1.52126e-06
-3.05666e-08 -2.95041e-08 7.42262e-09
5.49336e-08 -4.70342e-07 -5.44284e-07
-2.09542e-06 -3.53098e-07 -3.40491e-06
0.0 0.0 -1.43822e-06
2.37539e-06 -2.50775e-06 8.77878e-06
-3.1846e-08 -8.71618e-08 -1.1249e-06
-8.78964e-07 -5.31098e-07 5.29361e-07
0.0 0.0 -1.43822e-06
0.0 0.0 -1.43822e-06
2.0699e-10 -4.65335e-09 -2.27656e-08
0.0 0.0 -1.43822e-06
0.0 0.0 -1.43822e-06
-1.1928e-06 -8.63769e-07 5.42322e-07
-4.87026e-08 -1.17427e-07 -2.51313e-07
1.41414e-07 -9.94831e-07 5.76496e-07
0.0 0.0 -1.43822e-06
-3.49017e-08 -3.74037e-07 2.6347e-07
-9.83257e-06 -2.75037e-06 2.68251e-06
1.59278e-06 -5.53389e-07 -1.85025e-06
0.0 0.0 -1.43822e-06
-4.95317e-07 3.45649e-06 -4.14936e-06
0.0 0.0 -1.43822e-06
1.21988e-05 7.24323e-06 -7.52656e-06
1.68974e-07 -8.54494e-07 6.78806e-07
-6.91032e-08 6.34603e-07 -2.76357e-08
-3.71743e-07 4.45123e-08 -7.12546e-07
-1.8811e-06 3.90535e-07 -1.61744e-06
0.0 0.0 -1.43822e-06
0.0 0.0 -1.43822e-06
2.60638e-06 4.10291e-06 -3.66304e-06
-4.59698e-07 7.62154e-07 -1.45988e-07
0.0 0.0 -1.43822e-06
7.64908e-07 1.20702e-06 1.04715e-06
-1.4127e-06 1.79308e-07 1.45052e-06
0.0 0.0 -1.43822e-06
-1.13543e-07 -1.01233e-07 -1.39642e-06
0.0 0.0 -1.43822e-06
0.0 0.0 -1.43822e-06
1.20816e-07 -5.21223e-08 -1.13513e-06
2.40142e-06 -3.42671e-07 -5.65477e-07
-7.08637e-08 2.259e-07 -1.24975e-06
-1.02983e-06 -3.80692e-07 1.26189e-06
0.0 0.0 -1.43822e-06
-1.63251e-07 1.92446e-07 -1.38125e-06
1.26566e-06 -1.21976e-06 1.7887e-06
0.0 0.0 -1.43822e-06
4.52901e-07 2.21691e-07 7.95019e-07
0.0 0.0 -1.43822e-06
0.0 0.0 -1.43822e-06
-1.97459e-07 1.31967e-06 -1.34468e-06
-3.42363e-07 4.43523e-07 -1.66504e-06
-7.65649e-07 1.98536e-06 2.88386e-06
-8.76802e-07 2.41922e-06 3.17519e-07
-1.10377e-06 -4.49033e-07 2.29113e-07
0.0 0.0 -1.43822e-06
1.09307e-06 -4.45798e-07 1.68316e-07
-4.88307e-07 4.49282e-07 -2.80995e-08
4.99109e-06 9.03642e-06 -5.78425e-06
6.71627e-07 -5.03396e-07 3.49482e-07
3.88721e-06 -2.79392e-06 1.14493e-06
6.39922e-10 6.06961e-07 -2.39591e-07
-2.56388e-08 -1.56127e-08 -7.27297e-07
0.0 0.0 -1.43822e-06
2.08435e-08 2.04984e-06 9.59026e-07
3.28617e-08 7.09926e-06 -1.0997e-06
0.0 0.0 -1.43822e-06
1.18038e-06 2.6402e-07 1.01741e-07
-1.10362e-06 -1.75109e-06 -1.08915e-06
1.77242e-06 -1.01877e-06 -2.94441e-07
-2.8794e-06 -1.70443e-06 4.71901e-07
-1.09331e-07 1.6255e-07 -1.14261e-06
7.10347e-06 -4.27524e-06 -2.47203e-06
-2.18292e-08 8.67177e-07 8.54899e-08
2.55493e-07 -6.22986e-07 -4.48164e-07
0.0 0.0 -1.43822e-06
-2.26573e-06 3.75139e-06 -1.25665e-07
-2.9352e-07 4.99427e-06 -3.81862e-06
-9.58493e-07 -1.01318e-06 -1.68215e-06
1.95357e-07 -1.52363e-07 1.37442e-07
0.0 0.0 -1.43822e-06
-3.30323e-06 -4.58069e-07 1.41369e-06
0.0 0.0 -1.43822e-06
0.0 0.0 -1.43822e-06
0.0 0.0 -1.43822e-06
0.0 0.0 -1.43822e-06
-4.80553e-08 -1.08317e-06 1.07275e-06
0.0 0.0 -1.43822e-06
0.0 0.0 -1.43822e-06
0.0 0.0 -1.43822e-06
3.94161e-06 6.48666e-07 3.64058e-06
-5.01023e-10 1.26991e-10 -2.73811e-08
-4.19991e-07 6.30693e-07 2.95658e-07
-2.45449e-06 -3.36568e-06 2.55467e-06
1.15155e-06 6.17012e-07 1.59226e-06
-8.2286e-07 -1.01548e-06 1.07558e-06
2.37889e-07 6.39888e-07 9.71377e-07
0.0 0.0 -1.43822e-06
-2.11449e-07 -1.82499e-07 -8.73706e-07
-8.93162e-08 5.9222e-08 -1.40391e-06
-2.68069e-09 -1.96108e-07 -1.30016e-06
2.24077e-07 -2.35013e-07 -1.0452e-06
0.0 0.0 -1.43822e-06
0.0 0.0 -1.43822e-06
0.0 0.0 -1.43822e-06
8.34353e-07 -3.59996e-06 5.65152e-06
2.56946e-07 1.20152e-07 1.1002e-07
0.0 0.0 -1.43822e-06
0.0 0.0 -1.43822e-06
-1.11624e-07 -2.62934e-07 -1.15439e-06
-1.59656e-06 -2.26764e-07 1.28263e-06
-9.28821e-07 -6.69687e-07 -2.00283e-07
0.0 0.0 -1.43822e-06
0.0 0.0 -1.43822e-06
0.0 0.0 -1.43822e-06
0.0 0.0 -1.43822e-06
0.0 0.0 -1.43822e-06
-1.24677e-06 -1.71196e-06 -2.99263e-06
1.16605e-06 -1.67284e-07 -3.37674e-07
-9.75062e-07 -2.33729e-06 2.14876e-06
1.81466e-07 3.85243e-07 1.17173e-07
3.79475e-07 -3.15298e-06 -2.12576e-06
7.69728e-07 2.99597e-06 4.80379e-06
4.88096e-08 -1.96502e-07 -2.30137e-07
0.0 0.0 -1.43822e-06
5.25893e-07 -5.77908e-07 3.22911e-07
0.0 0.0 0.0
-9.1159e-07 2.70008e-07 -4.92897e-07
-1.84133e-07 -6.73215e-07 3.4295e-07
0.0 0.0 -1.43822e-06
2.67657e-07 3.33503e-07 1.33181e-07
0.0 0.0 -1.43822e-06
0.0 0.0 -1.43822e-06
-4.11725e-06 -5.55997e-06 -2.19462e-06
0.0 0.0 -1.43822e-06
0.0 0.0 -1.43822e-06
-5.67845e-08 -1.31325e-07 -3.91922e-08
0.0 0.0 -1.43822e-06
0.0 0.0 -1.43822e-06
0.0 0.0 -1.43822e-06
0.0 0.0 -1.43822e-06
3.32294e-07 2.8899e-08 2.92953e-07
1.30515e-06 5.8788e-07 7.96137e-07
0.0 0.0 -1.43822e-06
2.47237e-07 1.28788e-07 2.49293e-06
0.0 0.0 -1.43822e-06
0.0 0.0 -1.43822e-06
0.0 0.0 -1.43822e-06
0.0 0.0 0.0
0.0 0.0 -1.43822e-06
0.0 0.0 0.0
0.0 0.0 -1.43822e-06
2.22917e-07 3.35482e-07 1.5603e-07
0.0 0.0 -1.43822e-06
