# vtk DataFile Version 3.0
LIGGGHTS particles timestep 3000000
ASCII
DATASET POLYDATA
POINTS 240 float
0.0191292 0.0245192 0.0136735
0.0234972 0.0168431 0.0153731
0.0177245 0.0146128 0.0119528
0.0191344 0.0206749 0.0209873
0.0279143 0.0205506 0.0155099
0.0195638 0.019874 0.0233317
0.0199051 0.0230757 0.0170341
0.0188456 0.0105025 0.0277965
0.0214337 0.014819 0.0146218
0.0248686 0.0173202 0.00753244
0.0178979 0.014962 0.0149307
0.019283 0.020445 0.0165612
0.019608 0.0240981 0.0127082
0.0238443 0.0147914 0.0109598
0.0234896 0.0168901 0.0172519
0.0158053 0.021948 0.0167714
0.0193965 0.0142949 0.0137967
0.0272003 0.0228521 0.0133887
0.0261804 0.0225388 0.00899896
0.021123 0.0227488 0.00929936
0.0189299 0.0144668 0.015332
0.0248267 0.0179262 0.0172854
0.0186783 0.0243369 0.0169605
0.0164059 0.023768 0.0169648
0.0323628 0.0185121 0.00591356
0.0155636 0.0209608 0.0171759
0.0161544 0.0197402 0.0162655
0.0258792 0.0216478 0.00818115
0.0188925 0.0140666 0.0128613
0.00328607 0.0109634 0.0435188
0.0206422 0.0240486 0.0125703
0.0280932 0.0196947 0.0157585
0.0124828 0.0202321 0.0166019
0.0275272 0.0219213 0.0145552
0.0186355 0.0240766 0.0127939
0.0204281 0.0145905 0.0152121
0.151427 0.0197366 0.00603425
0.0204833 0.022815 0.0157702
0.0149807 0.0212517 0.016417
0.0209717 0.02427 0.0139726
0.0238162 0.0171557 0.0205713
0.021435 0.0234365 0.0142167
0.0256828 0.0211636 0.016934
0.0196578 0.0148157 0.0146093
0.0142132 0.0227906 0.015246
0.0201102 0.0244614 0.0135505
0.023354 0.0151192 0.0132744
0.0228666 0.0236683 0.0150943
0.0237414 0.0209272 0.0182484
0.0237037 0.0203598 0.0162458
0.0250864 0.0201458 0.0187448
0.0255773 0.0206652 0.0163817
0.024469 0.0170558 0.015474
0.0245175 0.0160571 0.0154559
0.0200394 0.0222468 0.00863285
0.018556 0.0241097 0.0143752
0.0250762 0.0166104 0.0161319
0.0153096 0.0229014 0.0137441
0.0231941 0.0153939 0.0142267
0.0216295 0.0238331 0.0133781
0.0214682 0.0234196 0.0123411
0.0198485 0.0240676 0.0144368
0.015516 0.0223103 0.0145237
0.0242061 0.0151923 0.00953096
0.0229782 0.0197136 0.0210881
0.0160789 0.0231785 0.0131472
0.0201566 0.0209384 0.0164817
0.0234562 0.0147926 0.0152117
0.0187749 0.0167877 0.00783693
0.017578 0.0216435 0.0151098
0.0176652 0.0215823 0.0162056
0.019644 0.0190373 0.00717736
0.016188 0.0172864 0.0169561
0.0183369 0.0137948 0.0136478
0.0226733 0.0173552 0.015615
0.0218501 0.0225677 0.0141852
0.0206996 0.0155354 0.015395
0.023544 0.0148357 0.0122902
0.0132412 0.0195943 0.0167359
0.0200955 0.0238903 0.0156153
0.0185389 0.0196887 0.0167372
0.0151286 0.0147989 0.0145936
0.0214788 0.0149073 0.0156167
0.0245419 0.0176323 0.0162878
0.0202668 0.0228175 0.00942366
0.021961 0.0241293 0.014326
0.0174855 0.0241226 0.0143446
0.0195088 0.0238165 0.0135624
0.0192881 0.0213947 0.0161951
0.0181326 0.0239504 0.0162172
0.0268427 0.0233473 0.0120419
0.0176082 0.0235903 0.0154458
0.0164907 0.0217484 0.0152185
0.0265177 0.0232782 0.0105232
0.0173148 0.0241531 0.0171254
0.0225384 0.0145514 0.0142603
0.0263762 0.0229902 0.0096732
0.0191897 0.0240348 0.016155
0.0201882 0.0136861 0.0138547
0.0186252 0.0236518 0.0153326
0.0229946 0.0214782 0.0153628
0.0233331 0.0188071 0.0159382
0.0190904 0.0223726 0.0165773
0.025133 0.0218758 0.0166755
0.0277367 0.0212735 0.0151828
0.0241106 0.019449 0.016316
0.0163523 0.0187601 0.0162707
0.0168589 0.0211955 0.0166593
0.0219437 0.0184536 0.0167355
0.0226571 0.0237545 0.0187178
0.0182926 0.0179148 0.0158334
0.0162738 0.0227158 0.0140126
0.0139305 0.020307 0.016606
0.0203709 0.0215039 0.00802282
0.0191682 0.023346 0.0145476
0.0130149 0.0210424 0.0163544
0.0149779 0.0232092 0.0147564
0.0207928 0.020394 0.00742957
0.0170819 0.0240315 0.0133549
0.02142 0.0226662 0.0154256
0.0170107 0.0232705 0.0145582
0.0228444 0.0229722 0.0222538
0.0167795 0.0220404 0.0161301
0.0194479 0.0198992 0.00734959
0.0195715 0.0154895 0.0153431
0.0179081 0.0142421 0.012863
0.017353 0.0140234 0.0136653
0.025511 0.0175238 0.0165342
0.0198848 0.0140109 0.0129717
0.0159268 0.0227042 0.0160941
0.0176671 0.024031 0.0125258
0.0196809 0.0209282 0.00765187
0.0173103 0.0183744 0.0158952
0.0210262 0.0233406 0.0128706
0.0157759 0.0237847 0.0148528
0.0170067 0.0227937 0.015501
0.01896 0.0233788 0.0169127
0.0180413 0.0238564 0.0135608
0.0216426 0.0236116 0.0151511
0.0170365 0.0199578 0.0158486
0.0163945 0.0142761 0.0137979
0.0169002 0.0234071 0.0123757
0.0176104 0.0225783 0.0162703
0.0164005 0.015074 0.0149834
0.0248424 0.0165268 0.00802733
0.0189744 0.0226954 0.0152829
0.0200648 0.0230687 0.0148951
0.0167165 0.022852 0.0167109
0.0186899 0.0146858 0.0143863
0.0224687 0.0183059 0.0158849
0.0175466 0.020474 0.0165377
0.0176776 0.0171723 0.0160979
0.0239298 0.0159157 0.0146586
0.0163169 0.0237462 0.0139353
0.0166624 0.0202598 0.0169525
0.0222994 0.0228917 0.0149762
0.0223438 0.0231674 0.013173
0.0178104 0.0208024 0.0155972
0.0171484 0.0155961 0.0143431
0.0146491 0.0221751 0.0162242
0.0212093 0.0229381 0.0135357
0.0242575 0.0223453 0.0157573
0.0170291 0.0222725 0.0145604
0.0150069 0.020278 0.0166433
0.0184206 0.0226177 0.0173054
0.0235834 0.0178097 0.0157744
0.0192966 0.0190356 0.0167331
0.0197234 0.022165 0.0157271
0.0250897 0.0214406 0.0160578
0.0185425 0.0160035 0.0147358
0.0184197 0.0209381 0.0163891
0.0179783 0.0226205 0.0153423
0.0219825 0.0232494 0.016091
0.0143255 0.0194012 0.0167588
0.0231432 0.0202134 0.0187821
0.0208739 0.01409 0.0132563
0.0189415 0.0176814 0.00738317
0.0183427 0.0156215 0.008858
0.0180316 0.0198747 0.015896
0.0216852 0.0143159 0.0137951
0.0177927 0.0144391 0.0157765
0.0186783 0.0149644 0.0132461
0.024317 0.0185465 0.0159357
0.0159388 0.0207165 0.0162817
0.0229977 0.0221683 0.014632
0.0228518 0.0215685 0.0167714
0.0199129 0.021932 0.0169406
0.0184602 0.0246285 0.0178917
0.0151825 0.0225204 0.0154518
0.0178142 0.0233121 0.0169178
0.0170893 0.0145785 0.0144542
0.0235221 0.0208977 0.0206632
0.0207218 0.0238189 0.0148391
0.0168282 0.0236106 0.0160699
0.0174026 0.0149858 0.0133004
0.0163898 0.0223167 0.0174946
0.0139901 0.0212508 0.0162809
0.022139 0.0201513 0.01656
0.0212248 0.0226913 0.0164345
0.0182355 0.0189006 0.0159872
0.0224786 0.0175676 0.0166682
0.024643 0.0202452 0.0166382
0.0184939 0.0230201 0.0161002
0.0167539 0.0209016 0.0156794
0.0218637 0.0149011 0.0165396
0.019794 0.016886 0.0162759
0.022289 0.0151259 0.0150398
0.0174278 0.0154291 0.0156795
0.0186609 0.0170448 0.0155069
0.0173923 0.0192202 0.0164223
0.0229766 0.0161447 0.0148823
0.0172362 0.0220452 0.0170285
0.0165434 0.0177844 0.0161651
0.0171328 0.0183325 0.0168783
0.0207679 0.0217701 0.0161314
0.0195544 0.023121 0.0159775
0.0210541 0.0236124 0.0159661
0.0169347 0.0161289 0.0151619
0.0180914 0.0154182 0.0140622
0.0185236 0.0219634 0.0158623
0.0160854 0.0228733 0.0151221
0.0234599 0.022983 0.0148079
0.0205398 0.0145482 0.0142195
0.0239633 0.0166582 0.0162396
0.01784 0.0164872 0.0153879
0.0159466 0.014232 0.0146908
0.0199787 0.0202365 0.0181086
0.0143421 0.0151972 0.0150656
0.0185323 0.0216487 0.0170834
0.0167686 0.0168817 0.0157986
0.0223591 0.0192937 0.0160054
0.0157259 0.0215888 0.0158417
0.0170466 0.0230427 0.0134661
0.020477 0.0175966 0.0168122
0.0235632 0.0158065 0.0156181
0.013753 0.0220884 0.0157891
0.0214845 0.0198505 0.0174115
0.0186179 0.0205759 0.0173019
0.0254726 0.0200542 0.00734179
0.0180399 0.0232846 0.014598

VERTICES 240 480
1 0
1 1
1 2
1 3
1 4
1 5
1 6
1 7
1 8
1 9
1 10
1 11
1 12
1 13
1 14
1 15
1 16
1 17
1 18
1 19
1 20
1 21
1 22
1 23
1 24
1 25
1 26
1 27
1 28
1 29
1 30
1 31
1 32
1 33
1 34
1 35
1 36
1 37
1 38
1 39
1 40
1 41
1 42
1 43
1 44
1 45
1 46
1 47
1 48
1 49
1 50
1 51
1 52
1 53
1 54
1 55
1 56
1 57
1 58
1 59
1 60
1 61
1 62
1 63
1 64
1 65
1 66
1 67
1 68
1 69
1 70
1 71
1 72
1 73
1 74
1 75
1 76
1 77
1 78
1 79
1 80
1 81
1 82
1 83
1 84
1 85
1 86
1 87
1 88
1 89
1 90
1 91
1 92
1 93
1 94
1 95
1 96
1 97
1 98
1 99
1 100
1 101
1 102
1 103
1 104
1 105
1 106
1 107
1 108
1 109
1 110
1 111
1 112
1 113
1 114
1 115
1 116
1 117
1 118
1 119
1 120
1 121
1 122
1 123
1 124
1 125
1 126
1 127
1 128
1 129
1 130
1 131
1 132
1 133
1 134
1 135
1 136
1 137
1 138
1 139
1 140
1 141
1 142
1 143
1 144
1 145
1 146
1 147
1 148
1 149
1 150
1 151
1 152
1 153
1 154
1 155
1 156
1 157
1 158
1 159
1 160
1 161
1 162
1 163
1 164
1 165
1 166
1 167
1 168
1 169
1 170
1 171
1 172
1 173
1 174
1 175
1 176
1 177
1 178
1 179
1 180
1 181
1 182
1 183
1 184
1 185
1 186
1 187
1 188
1 189
1 190
1 191
1 192
1 193
1 194
1 195
1 196
1 197
1 198
1 199
1 200
1 201
1 202
1 203
1 204
1 205
1 206
1 207
1 208
1 209
1 210
1 211
1 212
1 213
1 214
1 215
1 216
1 217
1 218
1 219
1 220
1 221
1 222
1 223
1 224
1 225
1 226
1 227
1 228
1 229
1 230
1 231
1 232
1 233
1 234
1 235
1 236
1 237
1 238
1 239

POINT_DATA 240
SCALARS id int 1
LOOKUP_TABLE default
1
2
3
4
5
6
7
8
9
10
11
12
13
16
17
18
19
20
21
22
23
24
26
27
28
30
31
32
33
35
36
37
41
42
43
44
45
47
48
49
51
52
53
54
55
57
58
59
60
61
62
63
64
65
68
69
70
71
72
73
74
76
77
78
79
80
81
84
85
86
87
88
89
90
91
94
95
96
97
99
103
105
106
107
111
112
113
115
116
117
118
119
120
121
123
124
125
126
127
129
130
131
132
133
134
137
139
141
143
144
145
146
147
148
149
150
151
152
155
156
157
158
160
161
162
163
164
165
167
169
170
171
172
173
174
175
176
177
179
180
181
182
183
185
186
187
188
189
190
192
193
194
196
198
199
201
202
203
204
205
206
207
208
209
210
211
212
213
214
216
217
218
220
221
222
223
224
225
226
227
228
229
232
233
234
235
237
238
239
241
242
243
244
245
246
249
250
252
253
254
256
257
258
259
261
262
264
265
266
267
268
269
270
271
272
273
274
275
276
277
278
279
280
282
283
284
285
286
287
288
289
290
291
292
293
294
295
296
299
300

SCALARS type int 1
LOOKUP_TABLE default
1
1
1
1
1
1
1
1
1
1
1
1
1
1
1
1
1
1
1
1
1
1
1
1
1
1
1
1
1
1
1
1
1
1
1
1
1
1
1
1
1
1
1
1
1
1
1
1
1
1
1
1
1
1
1
1
1
1
1
1
1
1
1
1
1
1
1
1
1
1
1
1
1
1
1
1
1
1
1
1
1
1
1
1
1
1
1
1
1
1
1
1
1
1
1
1
1
1
1
1
1
1
1
1
1
1
1
1
1
1
1
1
1
1
1
1
1
1
1
1
1
1
1
1
1
1
1
1
1
1
1
1
1
1
1
1
1
1
1
1
1
1
1
1
1
1
1
1
1
1
1
1
1
1
1
1
1
1
1
1
1
1
1
1
1
1
1
1
1
1
1
1
1
1
1
1
1
1
1
1
1
1
1
1
1
1
1
1
1
1
1
1
1
1
1
1
1
1
1
1
1
1
1
1
1
1
1
1
1
1
1
1
1
1
1
1
1
1
1
1
1
1
1
1
1
1
1
1
1
1
1
1
1
1
1
1
1
1
1
1

SCALARS radius float 1
LOOKUP_TABLE default
0.0005
0.0005
0.0005
0.0005
0.0005
0.0005
0.0005
0.0005
0.0005
0.0005
0.0005
0.0005
0.0005
0.0005
0.0005
0.0005
0.0005
0.0005
0.0005
0.0005
0.0005
0.0005
0.0005
0.0005
0.0005
0.0005
0.0005
0.0005
0.0005
0.0005
0.0005
0.0005
0.0005
0.0005
0.0005
0.0005
0.0005
0.0005
0.0005
0.0005
0.0005
0.0005
0.0005
0.0005
0.0005
0.0005
0.0005
0.0005
0.0005
0.0005
0.0005
0.0005
0.0005
0.0005
0.0005
0.0005
0.0005
0.0005
0.0005
0.0005
0.0005
0.0005
0.0005
0.0005
0.0005
0.0005
0.0005
0.0005
0.0005
0.0005
0.0005
0.0005
0.0005
0.0005
0.0005
0.0005
0.0005
0.0005
0.0005
0.0005
0.0005
0.0005
0.0005
0.0005
0.0005
0.0005
0.0005
0.0005
0.0005
0.0005
0.0005
0.0005
0.0005
0.0005
0.0005
0.0005
0.0005
0.0005
0.0005
0.0005
0.0005
0.0005
0.0005
0.0005
0.0005
0.0005
0.0005
0.0005
0.0005
0.0005
0.0005
0.0005
0.0005
0.0005
0.0005
0.0005
0.0005
0.0005
0.0005
0.0005
0.0005
0.0005
0.0005
0.0005
0.0005
0.0005
0.0005
0.0005
0.0005
0.0005
0.0005
0.0005
0.0005
0.0005
0.0005
0.0005
0.0005
0.0005
0.0005
0.0005
0.0005
0.0005
0.0005
0.0005
0.0005
0.0005
0.0005
0.0005
0.0005
0.0005
0.0005
0.0005
0.0005
0.0005
0.0005
0.0005
0.0005
0.0005
0.0005
0.0005
0.0005
0.0005
0.0005
0.0005
0.0005
0.0005
0.0005
0.0005
0.0005
0.0005
0.0005
0.0005
0.0005
0.0005
0.0005
0.0005
0.0005
0.0005
0.0005
0.0005
0.0005
0.0005
0.0005
0.0005
0.0005
0.0005
0.0005
0.0005
0.0005
0.0005
0.0005
0.0005
0.0005
0.0005
0.0005
0.0005
0.0005
0.0005
0.0005
0.0005
0.0005
0.0005
0.0005
0.0005
0.0005
0.0005
0.0005
0.0005
0.0005
0.0005
0.0005
0.0005
0.0005
0.0005
0.0005
0.0005
0.0005
0.0005
0.0005
0.0005
0.0005
0.0005
0.0005
0.0005
0.0005
0.0005
0.0005
0.0005
0.0005
0.0005
0.0005
0.0005
0.0005
0.0005
0.0005
0.0005
0.0005
0.0005
0.0005
0.0005

SCALARS mass float 1
LOOKUP_TABLE default
1.46608e-07
1.46608e-07
1.46608e-07
1.46608e-07
1.46608e-07
1.46608e-07
1.46608e-07
1.46608e-07
1.46608e-07
1.46608e-07
1.46608e-07
1.46608e-07
1.46608e-07
1.46608e-07
1.46608e-07
1.46608e-07
1.46608e-07
1.46608e-07
1.46608e-07
1.46608e-07
1.46608e-07
1.46608e-07
1.46608e-07
1.46608e-07
1.46608e-07
1.46608e-07
1.46608e-07
1.46608e-07
1.46608e-07
1.46608e-07
1.46608e-07
1.46608e-07
1.46608e-07
1.46608e-07
1.46608e-07
1.46608e-07
1.46608e-07
1.46608e-07
1.46608e-07
1.46608e-07
1.46608e-07
1.46608e-07
1.46608e-07
1.46608e-07
1.46608e-07
1.46608e-07
1.46608e-07
1.46608e-07
1.46608e-07
1.46608e-07
1.46608e-07
1.46608e-07
1.46608e-07
1.46608e-07
1.46608e-07
1.46608e-07
1.46608e-07
1.46608e-07
1.46608e-07
1.46608e-07
1.46608e-07
1.46608e-07
1.46608e-07
1.46608e-07
1.46608e-07
1.46608e-07
1.46608e-07
1.46608e-07
1.46608e-07
1.46608e-07
1.46608e-07
1.46608e-07
1.46608e-07
1.46608e-07
1.46608e-07
1.46608e-07
1.46608e-07
1.46608e-07
1.46608e-07
1.46608e-07
1.46608e-07
1.46608e-07
1.46608e-07
1.46608e-07
1.46608e-07
1.46608e-07
1.46608e-07
1.46608e-07
1.46608e-07
1.46608e-07
1.46608e-07
1.46608e-07
1.46608e-07
1.46608e-07
1.46608e-07
1.46608e-07
1.46608e-07
1.46608e-07
1.46608e-07
1.46608e-07
1.46608e-07
1.46608e-07
1.46608e-07
1.46608e-07
1.46608e-07
1.46608e-07
1.46608e-07
1.46608e-07
1.46608e-07
1.46608e-07
1.46608e-07
1.46608e-07
1.46608e-07
1.46608e-07
1.46608e-07
1.46608e-07
1.46608e-07
1.46608e-07
1.46608e-07
1.46608e-07
1.46608e-07
1.46608e-07
1.46608e-07
1.46608e-07
1.46608e-07
1.46608e-07
1.46608e-07
1.46608e-07
1.46608e-07
1.46608e-07
1.46608e-07
1.46608e-07
1.46608e-07
1.46608e-07
1.46608e-07
1.46608e-07
1.46608e-07
1.46608e-07
1.46608e-07
1.46608e-07
1.46608e-07
1.46608e-07
1.46608e-07
1.46608e-07
1.46608e-07
1.46608e-07
1.46608e-07
1.46608e-07
1.46608e-07
1.46608e-07
1.46608e-07
1.46608e-07
1.46608e-07
1.46608e-07
1.46608e-07
1.46608e-07
1.46608e-07
1.46608e-07
1.46608e-07
1.46608e-07
1.46608e-07
1.46608e-07
1.46608e-07
1.46608e-07
1.46608e-07
1.46608e-07
1.46608e-07
1.46608e-07
1.46608e-07
1.46608e-07
1.46608e-07
1.46608e-07
1.46608e-07
1.46608e-07
1.46608e-07
1.46608e-07
1.46608e-07
1.46608e-07
1.46608e-07
1.46608e-07
1.46608e-07
1.46608e-07
1.46608e-07
1.46608e-07
1.46608e-07
1.46608e-07
1.46608e-07
1.46608e-07
1.46608e-07
1.46608e-07
1.46608e-07
1.46608e-07
1.46608e-07
1.46608e-07
1.46608e-07
1.46608e-07
1.46608e-07
1.46608e-07
1.46608e-07
1.46608e-07
1.46608e-07
1.46608e-07
1.46608e-07
1.46608e-07
1.46608e-07
1.46608e-07
1.46608e-07
1.46608e-07
1.46608e-07
1.46608e-07
1.46608e-07
1.46608e-07
1.46608e-07
1.46608e-07
1.46608e-07
1.46608e-07
1.46608e-07
1.46608e-07
1.46608e-07
1.46608e-07
1.46608e-07
1.46608e-07
1.46608e-07
1.46608e-07
1.46608e-07
1.46608e-07
1.46608e-07
1.46608e-07
1.46608e-07
1.46608e-07
1.46608e-07
1.46608e-07
1.46608e-07
1.46608e-07
1.46608e-07
1.46608e-07
1.46608e-07
1.46608e-07
1.46608e-07
1.46608e-07

VECTORS velocity float
0.0218036 0.0020458 -0.0184541
0.0178603 -0.00905825 -0.00839126
-0.000396859 -0.00117485 0.00199062
-0.561344 -0.16939 0.968163
0.00288296 0.0139778 -0.00512316
-0.36649 -0.266471 1.28254
-0.00357 0.00129565 0.0173317
-0.110743 -0.143989 -0.00174083
0.00349466 0.000608137 0.00202401
0.000428225 -0.0245017 0.007802
0.00137142 0.000714318 0.000885897
-0.0111106 0.0128467 -0.0031263
0.0219913 0.00113928 -0.0152049
0.000142505 -0.00385227 0.0252272
0.00338752 -0.257174 0.0765115
-0.00472586 0.0238149 0.000989701
-0.000518855 0.000140229 -0.000758269
-0.00368212 0.0151826 -0.0265478
0.00147907 -0.00990554 -0.0139163
0.000391912 -0.0109796 -0.0170842
-0.000276122 -0.00021614 -0.00112081
-0.0495541 0.00924952 -0.0525013
4.13893e-05 -0.000219659 0.000417108
-5.73766e-06 0.00126676 0.00160795
-2.43707e-15 -9.58711e-15 -2.3529e-14
0.000150809 0.0085765 0.00453145
0.00303907 0.010622 -0.000384229
7.10202e-05 -0.0196672 -0.0157368
-1.51795e-05 -0.00219255 -0.00200737
8.00232e-152 -1.94586e-151 -2.81922e-12
0.00425586 -0.00462579 -0.00630542
7.51382e-05 0.0155691 -0.00234094
0.00128527 0.000407544 -0.00144224
0.0016202 0.0155139 -0.0157139
-0.00317193 -0.00078521 0.0121107
-0.000328532 0.000615695 0.00112976
2.12907e-14 3.20188e-14 -3.48903e-13
-0.00840925 -0.00113673 0.0299046
0.00034164 0.00127928 -0.000443824
-0.0478151 0.00829361 0.0164684
0.119581 -0.518695 0.76678
-0.00818335 0.0115944 -0.0078592
-0.00166969 0.00915824 -0.00421863
0.000866732 0.00296083 -0.00291125
0.000437718 0.000329533 -0.000188173
0.0194983 0.00934234 0.0133325
0.00211756 0.00372036 0.00897304
-0.00459588 0.00475343 -0.00146484
-0.0897674 -0.147261 0.328106
-0.0374785 -0.038547 0.0655083
0.118002 -0.123358 0.261296
-0.00611984 0.0267329 -0.0114553
0.0135431 0.00462591 0.00351482
0.00409192 0.00391158 0.00234215
-0.000202659 -0.0163476 -0.0187417
-0.00312631 -0.00260452 -0.00441351
0.010628 0.00663594 0.0069411
0.00444328 0.00201252 -0.00815032
0.00146172 0.00655667 0.0174379
-0.0230858 0.00455983 -0.000757463
0.0158472 -0.0115915 0.00083151
-0.0102137 0.0119515 -0.000566101
-0.00641008 0.00891913 -0.0110804
5.05402e-05 -0.0126915 0.0224305
0.0828984 -0.182726 0.762987
0.00273206 0.0007744 -0.00207798
0.00806238 -0.0153814 0.0052002
-0.00505139 -0.00862564 0.00565506
-5.50725e-07 -0.0220537 0.0123674
0.000564454 -0.000863098 -0.00129632
0.00140122 -0.00119042 0.00527868
0.000242569 -0.0160713 -0.0017973
-0.0318316 0.00836802 -0.0208849
0.00114 -0.000978156 0.00195157
0.01021 -0.0127272 -0.0220315
-0.0189016 0.023782 -0.00424083
0.00159768 -0.00126898 -0.00132727
0.000615313 0.00506063 0.0242117
0.000775479 0.000200025 0.000893084
-0.0173556 -0.00254541 -0.00414393
-0.0112401 -0.0125447 0.0143908
-8.88588e-05 0.00097995 -0.00169586
0.00910942 0.00143845 0.00155451
0.00121226 0.00876941 0.00178918
0.000298614 -0.0119003 -0.021585
-0.018326 0.00993582 -0.0159559
-0.0139573 0.0042862 -0.0104969
0.0159103 0.00884102 -0.0229428
0.0192999 -0.0113997 -0.00110373
-7.84719e-05 -0.00082912 0.000519892
0.00148472 0.00215906 -0.0219897
-0.0143184 -0.00459249 0.016361
-0.000532101 -0.00633865 0.00530978
0.000415452 -0.00544084 -0.0219718
0.000548728 0.00160298 0.00403288
0.00245207 0.000953948 0.000382525
0.00272705 -0.00705129 -0.0169311
-0.00973914 0.00331686 0.0144526
-5.18027e-05 2.14389e-05 -7.79789e-05
-0.00959799 -0.00319651 0.0219404
-0.112242 0.000613416 -0.00572621
-0.00310067 0.00793407 -2.64303e-05
0.00540466 0.00453767 -0.00210194
-0.000372311 0.0108703 -0.0040809
0.00330542 0.0127847 -0.00757999
-0.00767226 -0.0281529 0.0611138
0.0043739 0.0118126 -0.00417231
0.00580843 0.000611972 0.000201106
-0.0138666 -0.0597423 -0.0140793
-0.0122136 0.187258 0.372015
0.00206132 0.0026039 0.00470224
-0.00166305 0.00397936 -0.00526284
0.00153296 -0.00130767 -0.00303261
-0.000698221 -0.0196609 -0.0121421
-0.00638936 -0.0161962 0.00327543
0.000219159 0.000796804 9.59673e-05
0.00016723 0.00130201 0.000183375
8.43214e-05 -0.0239395 -0.00843824
0.00400219 0.00452308 -0.00506539
-0.0261665 0.000423972 0.00203818
-0.0211344 -0.00583314 -0.000583075
0.084265 0.224677 0.970029
-0.0011371 -6.71277e-05 0.00512173
0.000572408 -0.0237493 -0.00682823
0.000786273 0.000672885 -0.00144308
0.000181227 -0.0013701 0.00203574
-0.000977328 -0.000309017 0.00122796
0.00546407 0.0225026 0.00634153
-7.99494e-05 3.44279e-06 -0.000754142
0.0210561 0.00346317 -0.0230968
0.000905509 0.00080786 -0.00194807
0.000448802 -0.0219235 -0.0101488
0.00202695 0.00643126 0.000807393
0.00299519 -0.00639147 -0.013186
7.30108e-05 4.74127e-05 0.000685162
-0.0154954 -0.010365 0.0177409
-0.00369794 -0.00216225 -0.00194935
-0.00891088 0.00193222 -0.0101154
0.00406844 0.0257027 -0.0196197
0.00372134 0.00591355 -0.00105674
-0.0020046 4.41764e-05 -0.00631214
0.00118513 0.000282932 -0.00121245
-0.00128023 -0.00280647 0.0122343
-0.00277668 -0.00032262 0.000523193
0.000890874 -0.0233015 0.0141403
0.00130619 -0.0166725 0.0217371
-0.0450334 -0.024812 -0.00395628
-0.00800191 -0.00648983 0.0195541
-0.000295532 2.02523e-05 -0.000797041
0.00374728 -0.0115787 -0.00200539
0.00701341 -0.00349026 0.0118956
6.23907e-05 0.00570504 0.00453027
0.0120877 0.0016324 -0.00672282
-0.000446357 -0.00228813 -0.00288349
0.00291039 0.00285994 0.0116955
-0.0552418 0.0381053 -0.00459389
-0.0105855 0.00388316 0.00826147
0.00718178 0.00298382 -0.00140942
0.00420264 0.00668031 0.00668202
0.00110815 0.00094255 -0.00154315
0.000618304 0.00524661 -0.00606206
-0.0135191 0.074092 0.00827116
-0.0133449 -0.0083001 0.00650551
0.00236456 0.00154769 -0.00179208
0.00114358 -0.00239169 -0.000384602
-1.34513e-05 -0.00983324 0.000456101
-0.102166 -0.125701 0.00567104
-0.00854423 0.00450254 -0.000189526
-0.00524053 0.0235239 -0.0112121
0.0084393 1.84479e-05 -0.00144836
0.0120933 -0.00862529 0.00733409
-0.00683675 -0.00954146 0.00781202
-0.00159943 -0.00748768 -0.0151486
0.00392102 -0.000172838 -0.00257829
0.0534264 -0.132452 0.507719
0.00191549 -0.000985692 0.0023422
0.000385869 -0.0217477 0.00789977
0.000119237 -0.0162731 0.0196736
0.00676137 0.00330846 0.00184271
0.00189062 0.00011463 0.0018731
0.00156348 -0.00156126 -7.69112e-05
-0.0031904 -0.00151538 -0.00573588
0.00253829 -0.00491453 -0.00851154
0.00372034 0.0117024 0.00361202
-0.00461781 0.00286853 -0.00392923
-0.0892916 -0.175766 0.0814563
-0.00645962 -0.00692809 0.00815143
-0.00456378 0.0101417 -0.00357334
0.000903839 -0.00148251 -0.00277857
0.00241637 0.00201055 0.00663485
-0.00239441 0.00164519 -0.000783655
0.0354723 -0.0961381 0.700764
-0.00565341 0.034024 -0.0399516
-0.020505 -0.00129686 0.0283004
0.00534607 0.00180699 0.00301661
0.00145414 -0.00279755 0.00688703
0.00052672 -0.00105077 -0.00213594
0.0336575 -0.0656087 0.100494
-0.00139684 0.00289223 -0.0165601
0.000998053 0.00153464 0.00389345
0.0278577 -0.0713424 -0.0279114
0.0116059 0.0011848 0.0141474
0.00159106 0.00228493 -0.00181638
0.000946785 0.00254739 0.00434566
0.0332341 0.0192388 -0.0087821
-3.04157e-07 0.0263079 0.0121842
0.00388457 0.000863167 0.000507568
0.00115119 -4.02449e-05 0.00116509
0.00416532 0.00400689 0.00560653
0.0032235 0.00852924 0.0024563
0.00884056 -0.00610281 -0.00703723
-0.000192464 0.00172004 0.00665342
0.0044011 0.0124022 -0.00182046
0.00146691 0.0062186 0.00169906
0.0164143 -0.0260821 -0.011668
-0.0110848 -0.0054924 0.0340233
-0.000655592 0.00306128 0.0126799
0.00323934 0.00829078 0.00792665
0.00171039 0.00232831 0.00154024
0.00481627 -0.00388684 0.00242646
-0.0066928 -0.00232965 -0.00331119
-0.00230206 -0.00393944 0.00733162
0.000343775 -0.000620406 0.00115859
0.00917115 -0.0112849 -0.00720367
0.00392252 0.00556669 0.00572566
-6.81395e-05 0.000124415 -0.00536138
-0.15616 -0.0129349 0.261632
0.00031327 -0.000533566 0.000594711
0.00255355 -0.000277921 0.00444586
0.0049596 0.0116109 0.00410876
0.0321847 -0.00429905 -0.00527033
-0.000784358 0.0120899 0.00598801
0.00162978 0.00410634 0.000949741
-0.0799654 -0.349199 -0.0115127
0.00459651 0.000828831 0.000310928
0.000457691 -0.000468255 -0.00110861
-0.0591635 -0.0234421 0.0988451
-0.00564037 -0.0257749 0.0161265
-9.87329e-06 -0.024751 -0.0071601
-0.00771637 0.0101873 -0.000422282

VECTORS force float
-3.94097e-05 -9.21226e-06 0.00025002
-1.5504e-06 -1.64061e-06 -9.84211e-07
2.34491e-07 1.83535e-07 -3.656e-07
0.0 0.0 -1.43822e-06
-9.10962e-06 3.32283e-05 -1.88082e-05
0.0 0.0 -1.43822e-06
1.25183e-06 -1.09867e-06 -1.05905e-06
0.0 0.0 -1.43822e-06
-1.08535e-06 5.56383e-07 4.50687e-07
-5.36209e-10 1.51831e-08 1.2994e-08
-3.39764e-07 -1.88664e-07 -1.1067e-06
0.0 0.0 -1.43822e-06
-0.000160568 2.01605e-05 8.10053e-05
-3.10811e-09 1.42356e-08 9.13618e-09
0.0 0.0 -1.43822e-06
-1.60419e-07 4.32677e-06 4.55615e-06
2.81422e-07 1.49028e-07 -2.66786e-07
-2.43687e-08 -3.61818e-09 9.67814e-08
-5.96375e-05 -1.86252e-05 4.79499e-07
-6.44799e-09 8.53516e-08 1.12796e-07
-2.42246e-07 3.67283e-07 6.3783e-08
0.0 0.0 -1.43822e-06
3.82591e-06 -1.82444e-06 -5.53574e-07
2.01192e-07 -4.02672e-07 -1.0524e-06
4.03664e-20 1.16467e-21 -5.50571e-21
0.0 0.0 -1.43822e-06
-3.96897e-06 -2.21358e-06 1.90223e-07
-8.16462e-10 -1.30858e-08 8.8065e-09
-1.10396e-07 -3.62027e-07 -8.06102e-07
1.72208e-154 -4.18746e-154 0.0
8.97789e-05 -3.10339e-05 -0.000100136
-3.12062e-06 1.37028e-05 1.54391e-06
-9.20354e-08 9.43168e-07 1.32167e-06
2.09127e-06 -2.65029e-07 -4.51417e-07
0.000104013 -3.12013e-06 7.51331e-05
5.2049e-07 4.04771e-07 5.08584e-07
1.21457e-19 -8.24798e-20 -3.38813e-21
6.71862e-06 -7.78337e-06 -1.41728e-06
-1.18382e-06 5.39907e-07 2.31256e-07
0.000386555 -0.000269339 -0.000864741
0.0 0.0 -1.43822e-06
-7.37986e-05 -0.000222979 -0.00027454
0.000100709 4.78193e-05 -1.548e-05
-1.60103e-07 -2.06586e-07 -2.62544e-07
-1.17497e-07 -1.15713e-07 -1.62633e-07
0.000331531 -0.000220036 -0.000433718
1.44134e-06 -2.28313e-06 3.37709e-06
-5.29797e-05 -5.5067e-05 0.00017979
0.0 0.0 -1.43822e-06
1.87297e-07 -9.20825e-07 -7.82099e-07
0.0 0.0 -1.43822e-06
0.000691903 2.44555e-05 -2.66933e-05
8.80482e-07 -7.34018e-07 -4.06337e-08
-1.9843e-06 -5.99582e-08 -1.14155e-06
1.00659e-08 -7.4632e-08 -6.17218e-08
0.000164401 -4.37501e-05 1.86845e-05
1.2168e-06 -1.16221e-07 3.34635e-07
-6.4895e-06 1.72079e-05 -5.37384e-06
0.0 0.0 -1.43822e-06
0.000248024 -0.000160336 -0.000163392
0.000110341 -0.000149079 -3.37751e-05
-0.000395161 6.96607e-05 0.000262196
3.43839e-05 3.00424e-06 -1.32328e-05
-1.38463e-10 1.184e-08 1.13509e-08
0.0 0.0 -1.43822e-06
2.20995e-07 -1.59544e-06 -2.09129e-06
0.0 0.0 -1.43822e-06
0.0 0.0 -1.43822e-06
-2.09029e-10 2.97948e-09 1.32276e-08
-8.8971e-06 -7.29324e-06 1.12673e-05
-3.17768e-06 -1.30293e-05 1.08073e-05
-1.03577e-08 8.91473e-08 7.58777e-09
0.0 0.0 -1.43822e-06
-2.24508e-08 -2.04489e-07 1.00279e-07
-1.07044e-06 5.55696e-06 4.16802e-06
0.000234951 -0.000276774 0.000127003
-6.76735e-08 -3.32399e-07 -2.64256e-07
-1.07896e-08 -1.10975e-08 4.47215e-08
4.03752e-07 3.29394e-07 -3.88877e-07
5.01677e-05 8.25287e-06 1.14359e-05
5.57179e-07 2.76267e-07 -8.8109e-07
1.57167e-07 -2.3097e-07 -7.85889e-08
6.58263e-09 6.60238e-09 1.08412e-07
2.51635e-07 6.55507e-08 -7.27246e-07
-7.43298e-08 -1.50254e-07 -1.43664e-07
-0.000186992 -2.75056e-05 -0.000128966
5.21432e-05 -2.94863e-06 9.78994e-07
-0.000116591 -5.55739e-05 0.000127576
0.0 0.0 -1.43822e-06
4.82271e-07 -8.11096e-07 9.07633e-06
1.85971e-06 -1.03335e-06 5.39797e-06
2.064e-05 3.54771e-05 -3.45087e-05
-1.31838e-05 -2.09434e-05 1.63253e-05
1.60336e-05 -6.22111e-07 9.71263e-07
1.34919e-07 8.19024e-07 -7.31811e-07
-5.38801e-08 -2.1711e-08 3.84992e-08
3.00485e-06 1.09487e-05 7.51994e-06
-4.27963e-06 5.94491e-06 4.08409e-07
-9.23366e-08 2.60874e-07 1.78922e-07
2.00017e-06 -7.21574e-06 -4.48413e-06
0.0 0.0 -1.43822e-06
0.0 0.0 -1.43822e-06
1.03738e-06 -2.03376e-07 -4.36629e-07
-3.08185e-05 -8.91902e-05 3.11542e-05
-1.37577e-05 8.69293e-06 -1.12886e-05
-1.87297e-07 9.20825e-07 -2.09434e-06
-3.42128e-06 -2.87795e-06 2.38981e-06
-5.42347e-08 -6.39965e-07 -6.84156e-07
0.0 0.0 -1.43822e-06
0.0 0.0 -1.43822e-06
-3.59117e-08 -1.10383e-06 -1.23743e-05
1.32851e-06 3.47965e-08 -9.96126e-07
-2.93815e-08 4.9436e-08 -7.99879e-07
-1.30261e-09 -1.2583e-07 -5.68119e-08
0.00022677 -2.98078e-06 3.04927e-06
2.40073e-07 1.66651e-07 2.39074e-09
1.35354e-06 3.03576e-07 -7.68755e-07
-8.76713e-10 -8.96311e-09 1.09923e-08
-4.78565e-05 -3.16153e-05 2.22279e-05
0.0 0.0 -1.43822e-06
5.46871e-05 6.74077e-05 -6.05016e-05
0.0 0.0 -1.43822e-06
-9.11218e-06 -9.52855e-06 7.64094e-06
2.1777e-09 2.61675e-08 1.73803e-08
6.21079e-08 2.18154e-07 -9.74035e-07
-5.21487e-08 -3.20236e-07 -1.54237e-07
-3.69478e-07 -3.85763e-07 -5.49453e-08
-2.36935e-07 2.30814e-08 -7.04443e-07
5.0387e-08 9.98101e-08 -2.6965e-07
-2.23428e-05 -6.19748e-06 7.43046e-05
-3.59161e-09 1.51493e-08 -6.72228e-09
-8.39218e-09 -2.07427e-08 3.46882e-09
1.28072e-07 1.06662e-06 -1.00397e-06
1.40821e-05 -6.37371e-05 -3.05121e-05
1.73335e-06 1.26923e-06 -4.9875e-06
2.05508e-05 -2.78493e-06 -1.34413e-05
1.50195e-06 -1.43148e-06 -1.23874e-06
8.1258e-06 2.32845e-05 -3.44035e-05
-0.000140944 -0.000312089 -0.000193208
3.41012e-06 -7.15696e-06 9.46301e-06
1.90908e-08 -5.37964e-07 -8.40034e-07
-2.55508e-09 1.91931e-08 2.41235e-08
-1.46031e-09 1.6388e-06 -2.08173e-07
-4.73085e-08 -3.22739e-07 -3.87726e-07
-3.10728e-08 8.33629e-08 -1.08225e-07
0.0 0.0 -1.43822e-06
-3.81571e-07 -2.15616e-06 -1.74193e-06
-2.15542e-05 -1.67605e-05 3.77592e-05
6.47284e-07 7.84692e-07 1.06033e-07
0.0 0.0 -1.43822e-06
-9.62335e-07 -2.36835e-06 -4.97809e-06
-1.66249e-06 -9.68854e-06 5.92707e-06
0.0 0.0 -1.43822e-06
1.77862e-07 1.39883e-06 8.96964e-07
-1.41933e-06 3.94638e-07 1.43114e-07
0.000311896 -0.000276891 4.63266e-05
-8.69825e-05 -3.89841e-06 4.17124e-06
6.17586e-06 -4.32888e-06 -1.13863e-06
2.76629e-08 9.79868e-07 1.07205e-06
7.52645e-07 -8.409e-08 1.9566e-07
4.27261e-05 -0.000103165 5.26831e-05
0.0 0.0 -1.43822e-06
-1.20031e-05 1.3079e-06 -1.18108e-05
5.36675e-07 1.55158e-07 5.0943e-07
0.0 0.0 -1.43822e-06
-2.25131e-10 2.87335e-07 -1.79252e-06
0.0 0.0 -1.43822e-06
2.24007e-07 -2.52367e-07 -2.55064e-06
-5.84983e-05 -0.00021405 7.9261e-05
5.6642e-07 -5.45612e-07 1.88613e-06
1.35802e-06 -3.38244e-06 -2.54995e-06
3.32185e-05 3.44823e-05 -5.14296e-05
0.0 0.0 -1.43822e-06
-2.15842e-08 4.30048e-07 2.56843e-07
0.0 0.0 -1.43822e-06
-4.02126e-07 2.30736e-07 -5.59065e-07
-3.6413e-09 -1.02361e-08 2.22787e-08
-1.73889e-10 7.04821e-09 1.43011e-08
2.84452e-06 5.2578e-06 6.39755e-06
-6.66941e-07 1.02818e-06 7.89515e-07
9.38661e-08 7.37432e-07 -1.02707e-06
5.79743e-07 -3.81821e-07 1.22373e-06
0.0 0.0 -1.43822e-06
-1.45231e-07 -4.67587e-07 -1.28364e-06
-0.000115359 -2.38616e-05 6.25087e-05
0.0 0.0 -1.43822e-06
0.0 0.0 -1.43822e-06
-3.11286e-07 -1.10395e-06 2.70437e-06
4.92265e-08 -4.61864e-07 5.42021e-07
2.58112e-06 4.34381e-09 9.52568e-06
-1.84541e-07 1.00434e-07 -6.00673e-07
0.0 0.0 -1.43822e-06
0.000565206 0.000131601 -0.00046611
2.05499e-05 -2.12412e-05 -4.48575e-06
-2.48888e-07 -6.27091e-08 -8.90789e-07
0.0 0.0 -1.43822e-06
-9.41956e-08 -7.40982e-07 -5.61614e-07
0.0 0.0 -1.43822e-06
0.0 0.0 -1.43822e-06
8.95341e-06 2.30862e-06 8.68649e-06
0.0 0.0 -1.43822e-06
0.0 0.0 -1.43822e-06
-1.02654e-07 -3.50908e-07 -1.65175e-06
-3.163e-06 -2.13466e-05 1.7033e-05
-1.47062e-08 3.26303e-09 1.32235e-07
1.03212e-10 1.10503e-08 -2.05856e-08
-1.74155e-07 3.42914e-07 1.38462e-07
-1.65125e-07 1.62425e-07 -1.00494e-06
8.60431e-07 -3.99305e-06 -1.3927e-06
-1.85832e-07 -1.75708e-06 -1.70828e-06
7.26879e-07 -5.58955e-08 -1.87709e-06
-1.08667e-05 -9.92336e-06 2.7824e-05
-2.12976e-06 -1.66274e-06 -9.7935e-07
-1.4098e-07 5.88053e-07 5.59158e-07
0.0 0.0 -1.43822e-06
-2.10109e-06 2.63641e-06 -3.81116e-06
0.0 0.0 -1.43822e-06
-3.52259e-07 1.45699e-06 2.85113e-06
3.81371e-07 5.84526e-07 2.56346e-07
-1.03139e-06 -1.02714e-05 5.57921e-06
1.43044e-05 -3.98839e-06 -3.80593e-05
-2.29243e-05 -1.54961e-05 3.47812e-05
-2.87915e-07 -2.0809e-07 5.73587e-08
3.78938e-09 -2.19277e-07 -1.17108e-06
9.70483e-07 -1.45337e-06 9.72582e-07
1.39147e-07 -1.56951e-07 -1.23459e-06
0.0 0.0 -1.43822e-06
1.6138e-07 -1.05526e-07 -1.00668e-07
1.07789e-06 5.99612e-06 8.77982e-07
3.66311e-06 7.71035e-07 -4.8333e-07
0.0 0.0 -1.43822e-06
-6.76833e-07 -1.07872e-05 6.76526e-06
-1.06641e-05 1.63767e-05 1.97362e-05
0.0 0.0 -1.43822e-06
-1.84379e-06 2.11947e-07 -1.14005e-07
-1.1734e-07 -2.97447e-07 -4.50178e-08
0.0 0.0 -1.43822e-06
0.0 0.0 -1.43822e-06
1.48988e-09 -7.9921e-09 1.42196e-08
-1.8765e-05 -1.65372e-05 1.90878e-05
