# vtk DataFile Version 3.0
LIGGGHTS particles timestep 7600000
ASCII
DATASET POLYDATA
POINTS 297 float
0.0567898 0.0154459 0.00938024
0.0592191 0.0207195 0.00722502
0.0514286 0.0155674 0.00882893
0.0578273 0.0192925 0.00727143
0.0574151 0.0164276 0.00816375
0.0630963 0.0162353 0.00815362
0.0515585 0.0159332 0.00834298
0.057746 0.0178307 0.00743027
0.0637426 0.0188716 0.00724365
0.0589196 0.0183584 0.00727218
0.0583058 0.0187634 0.00727092
0.0504032 0.014976 0.0110767
0.0565293 0.0149973 0.0103937
0.0531736 0.016802 0.00767467
0.0569935 0.0159941 0.0086971
0.0526222 0.0158424 0.00849921
0.0565627 0.0147979 0.0101353
0.0637054 0.0175029 0.00723152
0.0591691 0.0189708 0.00725737
0.0586086 0.0195235 0.00725261
0.0579818 0.0171235 0.00746245
0.05753 0.0168394 0.00774124
0.0572681 0.0158995 0.00877234
0.0633537 0.0171829 0.00746388
0.0592195 0.0183511 0.00726904
0.0634175 0.0174171 0.0072876
0.0577057 0.0175565 0.00730458
0.0635411 0.0179954 0.00720538
0.0637675 0.0177994 0.00718672
0.0564716 0.0147469 0.0105486
0.058748 0.0170699 0.00752872
0.0587859 0.0175803 0.00728899
0.0514972 0.0173324 0.00772996
0.0582436 0.017558 0.00729538
0.0638002 0.0191657 0.00725686
0.0574658 0.0166314 0.0079496
0.0582865 0.020694 0.00724709
0.0635759 0.0170214 0.00758443
0.057682 0.0186113 0.00728143
0.0595145 0.0206489 0.00722123
0.0570613 0.0161832 0.00847426
0.0566245 0.0149738 0.00990004
0.0578891 0.019586 0.00726713
0.0631606 0.0164717 0.00798041
0.0632248 0.0167081 0.0078072
0.0590986 0.0204448 0.00723051
0.0585095 0.0176968 0.00728974
0.0513677 0.0154066 0.00907618
0.0575363 0.0173355 0.0075942
0.0584742 0.0197917 0.00725145
0.0509802 0.0158458 0.00853765
0.0635112 0.0167851 0.00775757
0.0587683 0.0209657 0.00738652
0.0531044 0.0165272 0.00779391
0.052354 0.0180472 0.00719542
0.0634812 0.0177017 0.00721715
0.0574223 0.0174702 0.00735163
0.0636457 0.0172634 0.0074072
0.05907 0.0173142 0.00729113
0.0571242 0.0163732 0.00825087
0.058011 0.0177847 0.00757795
0.0580132 0.020175 0.00725851
0.063289 0.0169444 0.00763399
0.057545 0.0180531 0.00729327
0.0514974 0.0157397 0.00856434
0.0587399 0.0178889 0.00728341
0.0596483 0.0174013 0.00728308
0.0587728 0.0172815 0.0073161
0.0636735 0.0185799 0.00723098
0.0506076 0.014953 0.00997465
0.0582963 0.0202739 0.00725093
0.0584967 0.017397 0.00729577
0.063604 0.0182884 0.00721834
0.0565874 0.0151612 0.0101492
0.0577494 0.0189036 0.00727702
0.0568547 0.0156167 0.00914232
0.0572993 0.0169726 0.00760334
0.0519837 0.0155594 0.00888893
0.0593491 0.017424 0.00728591
0.0533094 0.0173615 0.00743221
0.0512126 0.0156943 0.00865196
0.0639893 0.0175983 0.0071683
0.0508585 0.0155007 0.00901153
0.0582366 0.0199749 0.00725523
0.0585082 0.0204861 0.00724392
0.0579438 0.0173742 0.00730227
0.0578438 0.018079 0.00728947
0.0511019 0.0162346 0.00809731
0.0581165 0.017954 0.00728896
0.0567096 0.0152421 0.00958516
0.0581849 0.0195364 0.00726069
0.0563876 0.0148098 0.0110132
0.0634469 0.0165488 0.00793078
0.0523912 0.0159361 0.00833232
0.058793 0.0168613 0.00773954
0.0530122 0.0162664 0.00796685
0.059084 0.0176138 0.00728507
0.0560372 0.0150876 0.0125394
0.0458603 0.0195415 0.00696589
0.0511424 0.0155087 0.00889667
0.0519139 0.0161767 0.00802769
0.0502524 0.0149308 0.0116437
0.0522355 0.0175066 0.00742864
0.0504911 0.0148587 0.0105184
0.0558909 0.0152597 0.0130968
0.0530319 0.0185689 0.00703344
0.0578117 0.016323 0.00826578
0.0574846 0.0177593 0.00730153
0.0518338 0.0189352 0.00726882
0.0522171 0.0197585 0.00721959
0.0510152 0.0151868 0.00939114
0.0513973 0.0162868 0.00799432
0.0583895 0.0180783 0.00728352
0.056144 0.0149667 0.0120955
0.0516856 0.0163383 0.00791928
0.0593209 0.01802 0.00727446
0.0598529 0.0205963 0.00723447
0.0573884 0.016074 0.00855997
0.0576371 0.017264 0.00731534
0.0508212 0.0155782 0.0092989
0.0573603 0.01718 0.00739542
0.0588692 0.0207285 0.00723312
0.0520326 0.016692 0.00775272
0.0559644 0.0151373 0.0128285
0.0580481 0.0189312 0.00727043
0.0505837 0.0151678 0.0101827
0.0579742 0.0176899 0.00729572
0.0526712 0.0160116 0.00825571
0.0584674 0.0171422 0.00745139
0.0585742 0.0207786 0.00725473
0.0593188 0.017168 0.00743924
0.0559993 0.0148291 0.0127298
0.0535101 0.0169558 0.00759203
0.059048 0.0170749 0.00752862
0.0585335 0.0200903 0.00724717
0.0519711 0.0164166 0.007857
0.0579514 0.0198815 0.00726281
0.0533696 0.0176312 0.00731559
0.0516176 0.0161303 0.00812458
0.0518479 0.015981 0.00824565
0.0524053 0.0170662 0.00762028
0.0562314 0.0147991 0.0117259
0.050544 0.0148054 0.010228
0.0525262 0.017604 0.00738391
0.0522924 0.0194693 0.00712884
0.0512738 0.0158914 0.00843411
0.0577225 0.0165241 0.00806184
0.0507503 0.0149685 0.00971125
0.0582928 0.0177952 0.0074724
0.0527047 0.0171546 0.00755216
0.0449538 0.0158362 0.00878518
0.0510811 0.0153485 0.00914296
0.0522927 0.0177805 0.00731838
0.0516566 0.0154606 0.00901619
0.0520997 0.0158919 0.00843244
0.0514428 0.0164947 0.00778284
0.0517883 0.0191694 0.0070868
0.0531499 0.0189009 0.0070539
0.0580382 0.0183075 0.00728284
0.0582197 0.0172595 0.00732934
0.0529652 0.0182805 0.00708235
0.059432 0.0185628 0.00726254
0.050439 0.0149971 0.0107794
0.0532521 0.0183612 0.00704782
0.0585112 0.0169335 0.00766233
0.0515195 0.0167695 0.00768002
0.0588 0.0204167 0.00723776
0.0523342 0.0168225 0.00778021
0.0527275 0.0161869 0.00801889
0.0507957 0.015288 0.0092135
0.0519186 0.0197353 0.00723754
0.0525775 0.0189416 0.00704359
0.051725 0.0188915 0.0069927
0.052648 0.0181418 0.0071482
0.0460874 0.0180582 0.007446
0.0583137 0.0209627 0.00737765
0.0518534 0.0194529 0.00716036
0.0588662 0.0199151 0.00724206
0.052171 0.0172378 0.00754513
0.051335 0.0160875 0.00821554
0.0586502 0.0182265 0.00727774
0.0586422 0.0189402 0.00726374
0.0531723 0.0180716 0.00714102
0.0572361 0.0167666 0.00781201
0.0522739 0.0165339 0.007835
0.057591 0.0170468 0.00753331
0.0521609 0.0160865 0.0082125
0.04575 0.0189766 0.00713541
0.0458051 0.019259 0.00705065
0.0578435 0.0169348 0.00765022
0.0457288 0.017689 0.0075374
0.0518782 0.0171412 0.00756183
0.0521041 0.0169647 0.00765031
0.0519463 0.0186948 0.00694458
0.0518075 0.0168811 0.00769359
0.0571823 0.0165663 0.00802878
0.0529307 0.0169685 0.00761765
0.0448881 0.0157247 0.00905582
0.0517437 0.0165913 0.00776907
0.0524432 0.0161049 0.00807471
0.0528836 0.0179639 0.00720171
0.0509188 0.0156576 0.00876308
0.0590383 0.0179196 0.00727954
0.0520773 0.0192618 0.00710262
0.0511652 0.0164526 0.00790122
0.0580772 0.0204787 0.00725407
0.0527698 0.0187134 0.00701334
0.0526406 0.0168876 0.00767283
0.0520088 0.017689 0.00735505
0.0582322 0.0170091 0.00758168
0.0578352 0.0173567 0.00758137
0.0519448 0.0174148 0.00745864
0.0452974 0.0160033 0.00845778
0.0560635 0.0148089 0.0124309
0.0450057 0.0159692 0.00852133
0.0524701 0.0173355 0.00750532
0.0569264 0.0158049 0.00892001
0.0528233 0.0176942 0.00731833
0.0503148 0.0148969 0.0113523
0.052334 0.0157757 0.00857932
0.0525873 0.0178691 0.00725742
0.0517149 0.0156477 0.00878909
0.0460181 0.0177784 0.00752899
0.0527898 0.0164505 0.00788534
0.0566604 0.0152709 0.00987966
0.0524666 0.0185977 0.00698199
0.0519 0.0184148 0.00705807
0.0455908 0.0171292 0.00770345
0.0444318 0.0149961 0.0108092
0.0455736 0.0181533 0.00738144
0.045235 0.0167514 0.00779774
0.0453625 0.0173133 0.00763032
0.0450519 0.0160548 0.00823753
0.0451071 0.0161886 0.00796721
0.0457988 0.017969 0.00745441
0.0453987 0.0162841 0.00794565
0.0578247 0.0167237 0.00786251
0.0525024 0.0163616 0.00792518
0.0447509 0.0154757 0.00956311
0.0530654 0.0175266 0.00737583
0.0529949 0.0172472 0.00749709
0.0394264 0.0174585 0.00729705
0.0454608 0.0165678 0.00787053
0.0521284 0.0182359 0.0071365
0.0458781 0.0182588 0.00736898
0.0521831 0.0185049 0.0070156
0.0516662 0.0185985 0.00701787
0.0456602 0.017409 0.00762048
0.0588594 0.018708 0.00726595
0.0514868 0.0177605 0.00728402
0.0517195 0.0175919 0.00736997
0.0462412 0.0175798 0.00755703
0.0524106 0.018319 0.00707775
0.052563 0.01663 0.00780549
0.0512353 0.0167106 0.00776521
0.0510404 0.0160381 0.00831546
0.046312 0.017863 0.00748433
0.0518386 0.0181485 0.00718183
0.0531277 0.017799 0.00725801
0.0515841 0.0170436 0.00757653
0.0453419 0.0161041 0.00817876
0.051652 0.0173173 0.00747343
0.0523311 0.0191128 0.00704488
0.0461687 0.0172947 0.00763051
0.0513596 0.0172214 0.0074876
0.0528701 0.0190065 0.00703106
0.0459486 0.0174972 0.00760729
0.0452987 0.0170324 0.00771403
0.0519627 0.0157194 0.00863601
0.0458783 0.017212 0.00768056
0.0456432 0.0184451 0.00737916
0.0522412 0.0187951 0.0069668
0.0456948 0.0186942 0.00722017
0.0527046 0.0184291 0.00708298
0.0532465 0.0170923 0.00754873
0.0512949 0.0169474 0.00759107
0.0457467 0.0166506 0.00782403
0.0517545 0.0175281 0.00766102
0.0520118 0.0189774 0.00703105
0.053319 0.0186532 0.00706241
0.0527613 0.0174248 0.00743488
0.0515508 0.0180346 0.00718044
0.0513007 0.0152469 0.00932114
0.0517835 0.017866 0.00726637
0.0528653 0.0166987 0.0077346
0.0454282 0.0175939 0.00754686
0.0514248 0.0175097 0.00743643
0.0575398 0.016236 0.008358
0.0520664 0.0179635 0.00724569
0.0455038 0.0178735 0.00746436
0.0465283 0.0176566 0.00750871
0.0593668 0.0177234 0.00727981
0.0522186 0.0162884 0.00799831
0.0507286 0.0151334 0.00946165
0.0516084 0.0183099 0.00707591
0.0451709 0.016469 0.00788188
0.0455245 0.0168488 0.00778683

VERTICES 297 594
1 0
1 1
1 2
1 3
1 4
1 5
1 6
1 7
1 8
1 9
1 10
1 11
1 12
1 13
1 14
1 15
1 16
1 17
1 18
1 19
1 20
1 21
1 22
1 23
1 24
1 25
1 26
1 27
1 28
1 29
1 30
1 31
1 32
1 33
1 34
1 35
1 36
1 37
1 38
1 39
1 40
1 41
1 42
1 43
1 44
1 45
1 46
1 47
1 48
1 49
1 50
1 51
1 52
1 53
1 54
1 55
1 56
1 57
1 58
1 59
1 60
1 61
1 62
1 63
1 64
1 65
1 66
1 67
1 68
1 69
1 70
1 71
1 72
1 73
1 74
1 75
1 76
1 77
1 78
1 79
1 80
1 81
1 82
1 83
1 84
1 85
1 86
1 87
1 88
1 89
1 90
1 91
1 92
1 93
1 94
1 95
1 96
1 97
1 98
1 99
1 100
1 101
1 102
1 103
1 104
1 105
1 106
1 107
1 108
1 109
1 110
1 111
1 112
1 113
1 114
1 115
1 116
1 117
1 118
1 119
1 120
1 121
1 122
1 123
1 124
1 125
1 126
1 127
1 128
1 129
1 130
1 131
1 132
1 133
1 134
1 135
1 136
1 137
1 138
1 139
1 140
1 141
1 142
1 143
1 144
1 145
1 146
1 147
1 148
1 149
1 150
1 151
1 152
1 153
1 154
1 155
1 156
1 157
1 158
1 159
1 160
1 161
1 162
1 163
1 164
1 165
1 166
1 167
1 168
1 169
1 170
1 171
1 172
1 173
1 174
1 175
1 176
1 177
1 178
1 179
1 180
1 181
1 182
1 183
1 184
1 185
1 186
1 187
1 188
1 189
1 190
1 191
1 192
1 193
1 194
1 195
1 196
1 197
1 198
1 199
1 200
1 201
1 202
1 203
1 204
1 205
1 206
1 207
1 208
1 209
1 210
1 211
1 212
1 213
1 214
1 215
1 216
1 217
1 218
1 219
1 220
1 221
1 222
1 223
1 224
1 225
1 226
1 227
1 228
1 229
1 230
1 231
1 232
1 233
1 234
1 235
1 236
1 237
1 238
1 239
1 240
1 241
1 242
1 243
1 244
1 245
1 246
1 247
1 248
1 249
1 250
1 251
1 252
1 253
1 254
1 255
1 256
1 257
1 258
1 259
1 260
1 261
1 262
1 263
1 264
1 265
1 266
1 267
1 268
1 269
1 270
1 271
1 272
1 273
1 274
1 275
1 276
1 277
1 278
1 279
1 280
1 281
1 282
1 283
1 284
1 285
1 286
1 287
1 288
1 289
1 290
1 291
1 292
1 293
1 294
1 295
1 296

POINT_DATA 297
SCALARS id int 1
LOOKUP_TABLE default
1
2
3
4
5
6
7
8
9
10
11
12
13
14
15
16
17
18
19
20
21
22
23
24
25
26
27
28
29
30
31
32
33
34
35
36
37
38
39
40
41
42
43
44
45
46
47
48
49
50
51
52
53
54
55
56
57
58
59
60
61
62
63
64
65
66
67
68
69
70
71
72
73
74
75
76
77
78
80
81
82
83
84
85
86
87
88
89
90
91
92
93
94
95
96
97
98
99
100
101
102
103
104
105
106
107
108
109
110
111
112
113
114
115
116
117
118
119
120
121
122
123
124
125
126
127
128
129
130
131
132
133
134
135
136
137
138
139
140
141
142
143
144
145
146
147
148
149
150
151
152
153
154
155
156
157
158
159
160
161
162
163
164
165
167
168
169
170
171
172
173
174
175
176
177
178
179
180
181
182
183
185
186
187
188
189
190
191
192
193
194
195
196
197
198
199
200
201
202
203
204
205
206
207
208
209
210
211
212
213
214
215
216
217
218
219
220
221
222
223
224
225
226
227
228
229
230
231
232
233
234
235
236
237
238
239
240
241
242
243
244
245
246
247
248
249
250
251
252
253
254
255
256
257
258
259
260
261
262
263
264
265
266
267
268
269
270
271
272
273
274
275
276
277
278
279
280
281
282
283
284
285
286
287
288
289
290
291
292
293
294
295
296
297
298
299
300

SCALARS type int 1
LOOKUP_TABLE default
1
1
1
1
1
1
1
1
1
1
1
1
1
1
1
1
1
1
1
1
1
1
1
1
1
1
1
1
1
1
1
1
1
1
1
1
1
1
1
1
1
1
1
1
1
1
1
1
1
1
1
1
1
1
1
1
1
1
1
1
1
1
1
1
1
1
1
1
1
1
1
1
1
1
1
1
1
1
1
1
1
1
1
1
1
1
1
1
1
1
1
1
1
1
1
1
1
1
1
1
1
1
1
1
1
1
1
1
1
1
1
1
1
1
1
1
1
1
1
1
1
1
1
1
1
1
1
1
1
1
1
1
1
1
1
1
1
1
1
1
1
1
1
1
1
1
1
1
1
1
1
1
1
1
1
1
1
1
1
1
1
1
1
1
1
1
1
1
1
1
1
1
1
1
1
1
1
1
1
1
1
1
1
1
1
1
1
1
1
1
1
1
1
1
1
1
1
1
1
1
1
1
1
1
1
1
1
1
1
1
1
1
1
1
1
1
1
1
1
1
1
1
1
1
1
1
1
1
1
1
1
1
1
1
1
1
1
1
1
1
1
1
1
1
1
1
1
1
1
1
1
1
1
1
1
1
1
1
1
1
1
1
1
1
1
1
1
1
1
1
1
1
1
1
1
1
1
1
1
1
1
1
1
1
1
1
1
1
1
1
1
1
1
1
1
1
1

SCALARS radius float 1
LOOKUP_TABLE default
0.00015
0.00015
0.00015
0.00015
0.00015
0.00015
0.00015
0.00015
0.00015
0.00015
0.00015
0.00015
0.00015
0.00015
0.00015
0.00015
0.00015
0.00015
0.00015
0.00015
0.00015
0.00015
0.00015
0.00015
0.00015
0.00015
0.00015
0.00015
0.00015
0.00015
0.00015
0.00015
0.00015
0.00015
0.00015
0.00015
0.00015
0.00015
0.00015
0.00015
0.00015
0.00015
0.00015
0.00015
0.00015
0.00015
0.00015
0.00015
0.00015
0.00015
0.00015
0.00015
0.00015
0.00015
0.00015
0.00015
0.00015
0.00015
0.00015
0.00015
0.00015
0.00015
0.00015
0.00015
0.00015
0.00015
0.00015
0.00015
0.00015
0.00015
0.00015
0.00015
0.00015
0.00015
0.00015
0.00015
0.00015
0.00015
0.00015
0.00015
0.00015
0.00015
0.00015
0.00015
0.00015
0.00015
0.00015
0.00015
0.00015
0.00015
0.00015
0.00015
0.00015
0.00015
0.00015
0.00015
0.00015
0.00015
0.00015
0.00015
0.00015
0.00015
0.00015
0.00015
0.00015
0.00015
0.00015
0.00015
0.00015
0.00015
0.00015
0.00015
0.00015
0.00015
0.00015
0.00015
0.00015
0.00015
0.00015
0.00015
0.00015
0.00015
0.00015
0.00015
0.00015
0.00015
0.00015
0.00015
0.00015
0.00015
0.00015
0.00015
0.00015
0.00015
0.00015
0.00015
0.00015
0.00015
0.00015
0.00015
0.00015
0.00015
0.00015
0.00015
0.00015
0.00015
0.00015
0.00015
0.00015
0.00015
0.00015
0.00015
0.00015
0.00015
0.00015
0.00015
0.00015
0.00015
0.00015
0.00015
0.00015
0.00015
0.00015
0.00015
0.00015
0.00015
0.00015
0.00015
0.00015
0.00015
0.00015
0.00015
0.00015
0.00015
0.00015
0.00015
0.00015
0.00015
0.00015
0.00015
0.00015
0.00015
0.00015
0.00015
0.00015
0.00015
0.00015
0.00015
0.00015
0.00015
0.00015
0.00015
0.00015
0.00015
0.00015
0.00015
0.00015
0.00015
0.00015
0.00015
0.00015
0.00015
0.00015
0.00015
0.00015
0.00015
0.00015
0.00015
0.00015
0.00015
0.00015
0.00015
0.00015
0.00015
0.00015
0.00015
0.00015
0.00015
0.00015
0.00015
0.00015
0.00015
0.00015
0.00015
0.00015
0.00015
0.00015
0.00015
0.00015
0.00015
0.00015
0.00015
0.00015
0.00015
0.00015
0.00015
0.00015
0.00015
0.00015
0.00015
0.00015
0.00015
0.00015
0.00015
0.00015
0.00015
0.00015
0.00015
0.00015
0.00015
0.00015
0.00015
0.00015
0.00015
0.00015
0.00015
0.00015
0.00015
0.00015
0.00015
0.00015
0.00015
0.00015
0.00015
0.00015
0.00015
0.00015
0.00015
0.00015
0.00015
0.00015
0.00015
0.00015
0.00015
0.00015
0.00015
0.00015
0.00015
0.00015
0.00015
0.00015
0.00015
0.00015
0.00015
0.00015
0.00015
0.00015
0.00015
0.00015
0.00015
0.00015
0.00015
0.00015
0.00015
0.00015
0.00015
0.00015

SCALARS mass float 1
LOOKUP_TABLE default
3.95841e-09
3.95841e-09
3.95841e-09
3.95841e-09
3.95841e-09
3.95841e-09
3.95841e-09
3.95841e-09
3.95841e-09
3.95841e-09
3.95841e-09
3.95841e-09
3.95841e-09
3.95841e-09
3.95841e-09
3.95841e-09
3.95841e-09
3.95841e-09
3.95841e-09
3.95841e-09
3.95841e-09
3.95841e-09
3.95841e-09
3.95841e-09
3.95841e-09
3.95841e-09
3.95841e-09
3.95841e-09
3.95841e-09
3.95841e-09
3.95841e-09
3.95841e-09
3.95841e-09
3.95841e-09
3.95841e-09
3.95841e-09
3.95841e-09
3.95841e-09
3.95841e-09
3.95841e-09
3.95841e-09
3.95841e-09
3.95841e-09
3.95841e-09
3.95841e-09
3.95841e-09
3.95841e-09
3.95841e-09
3.95841e-09
3.95841e-09
3.95841e-09
3.95841e-09
3.95841e-09
3.95841e-09
3.95841e-09
3.95841e-09
3.95841e-09
3.95841e-09
3.95841e-09
3.95841e-09
3.95841e-09
3.95841e-09
3.95841e-09
3.95841e-09
3.95841e-09
3.95841e-09
3.95841e-09
3.95841e-09
3.95841e-09
3.95841e-09
3.95841e-09
3.95841e-09
3.95841e-09
3.95841e-09
3.95841e-09
3.95841e-09
3.95841e-09
3.95841e-09
3.95841e-09
3.95841e-09
3.95841e-09
3.95841e-09
3.95841e-09
3.95841e-09
3.95841e-09
3.95841e-09
3.95841e-09
3.95841e-09
3.95841e-09
3.95841e-09
3.95841e-09
3.95841e-09
3.95841e-09
3.95841e-09
3.95841e-09
3.95841e-09
3.95841e-09
3.95841e-09
3.95841e-09
3.95841e-09
3.95841e-09
3.95841e-09
3.95841e-09
3.95841e-09
3.95841e-09
3.95841e-09
3.95841e-09
3.95841e-09
3.95841e-09
3.95841e-09
3.95841e-09
3.95841e-09
3.95841e-09
3.95841e-09
3.95841e-09
3.95841e-09
3.95841e-09
3.95841e-09
3.95841e-09
3.95841e-09
3.95841e-09
3.95841e-09
3.95841e-09
3.95841e-09
3.95841e-09
3.95841e-09
3.95841e-09
3.95841e-09
3.95841e-09
3.95841e-09
3.95841e-09
3.95841e-09
3.95841e-09
3.95841e-09
3.95841e-09
3.95841e-09
3.95841e-09
3.95841e-09
3.95841e-09
3.95841e-09
3.95841e-09
3.95841e-09
3.95841e-09
3.95841e-09
3.95841e-09
3.95841e-09
3.95841e-09
3.95841e-09
3.95841e-09
3.95841e-09
3.95841e-09
3.95841e-09
3.95841e-09
3.95841e-09
3.95841e-09
3.95841e-09
3.95841e-09
3.95841e-09
3.95841e-09
3.95841e-09
3.95841e-09
3.95841e-09
3.95841e-09
3.95841e-09
3.95841e-09
3.95841e-09
3.95841e-09
3.95841e-09
3.95841e-09
3.95841e-09
3.95841e-09
3.95841e-09
3.95841e-09
3.95841e-09
3.95841e-09
3.95841e-09
3.95841e-09
3.95841e-09
3.95841e-09
3.95841e-09
3.95841e-09
3.95841e-09
3.95841e-09
3.95841e-09
3.95841e-09
3.95841e-09
3.95841e-09
3.95841e-09
3.95841e-09
3.95841e-09
3.95841e-09
3.95841e-09
3.95841e-09
3.95841e-09
3.95841e-09
3.95841e-09
3.95841e-09
3.95841e-09
3.95841e-09
3.95841e-09
3.95841e-09
3.95841e-09
3.95841e-09
3.95841e-09
3.95841e-09
3.95841e-09
3.95841e-09
3.95841e-09
3.95841e-09
3.95841e-09
3.95841e-09
3.95841e-09
3.95841e-09
3.95841e-09
3.95841e-09
3.95841e-09
3.95841e-09
3.95841e-09
3.95841e-09
3.95841e-09
3.95841e-09
3.95841e-09
3.95841e-09
3.95841e-09
3.95841e-09
3.95841e-09
3.95841e-09
3.95841e-09
3.95841e-09
3.95841e-09
3.95841e-09
3.95841e-09
3.95841e-09
3.95841e-09
3.95841e-09
3.95841e-09
3.95841e-09
3.95841e-09
3.95841e-09
3.95841e-09
3.95841e-09
3.95841e-09
3.95841e-09
3.95841e-09
3.95841e-09
3.95841e-09
3.95841e-09
3.95841e-09
3.95841e-09
3.95841e-09
3.95841e-09
3.95841e-09
3.95841e-09
3.95841e-09
3.95841e-09
3.95841e-09
3.95841e-09
3.95841e-09
3.95841e-09
3.95841e-09
3.95841e-09
3.95841e-09
3.95841e-09
3.95841e-09
3.95841e-09
3.95841e-09
3.95841e-09
3.95841e-09
3.95841e-09
3.95841e-09
3.95841e-09
3.95841e-09
3.95841e-09
3.95841e-09
3.95841e-09
3.95841e-09
3.95841e-09
3.95841e-09
3.95841e-09
3.95841e-09
3.95841e-09
3.95841e-09
3.95841e-09
3.95841e-09
3.95841e-09
3.95841e-09
3.95841e-09
3.95841e-09
3.95841e-09
3.95841e-09
3.95841e-09
3.95841e-09
3.95841e-09
3.95841e-09
3.95841e-09
3.95841e-09
3.95841e-09

VECTORS velocity float
0.00625478 0.000790205 -0.00139032
1.32662e-05 -4.46944e-06 -1.33826e-06
0.00459617 0.00049731 -0.000332646
0.0046363 -0.00436122 -6.61468e-05
0.00622657 -5.92737e-05 -4.12814e-05
0.00589326 0.000521222 -0.000233928
0.00654321 -0.00057309 -0.000510155
0.00603443 0.000929273 -0.000186156
0.00604439 0.000428781 -0.000202437
0.00596421 0.00228401 -0.000110743
5.78256e-16 1.04163e-15 5.28012e-14
0.00461758 -0.00246388 -0.00281652
0.00382641 -0.000307124 -0.00242638
0.00557081 0.00063751 -0.000557133
0.00621116 0.000260323 -0.00107828
0.0061902 0.000290999 4.09748e-05
0.00912005 0.00307412 -0.00899056
0.00594922 0.000445148 -0.000175974
1.97478e-15 3.55643e-15 1.80287e-13
0.00469668 -0.00477264 2.83876e-05
0.00608492 0.000261379 -0.000171035
0.005878 6.9959e-05 2.43361e-05
0.00620344 -0.00011702 -0.000592887
0.00612198 0.000465849 -0.000177827
0.00604866 0.00261284 -0.000122561
0.0062079 0.000431948 -0.000162935
0.00607394 0.000264661 2.32352e-05
0.00597921 0.000457383 -0.000199281
0.0059874 0.000468925 -0.000200664
0.00617348 0.00117619 0.000831703
0.00616626 0.000257478 -0.000277845
0.00590002 -0.000806899 -5.09274e-05
0.00559956 0.000894286 0.0002397
0.00578649 0.000591606 -2.69881e-05
0.00559727 0.000515256 -0.000181323
0.00585511 0.000114072 1.11912e-05
1.33861e-06 -2.10357e-06 -2.41892e-08
0.00609107 0.000446115 -0.000176311
0.00463929 -0.0062952 -4.74599e-05
-3.79119e-15 1.67926e-16 9.76215e-14
0.00562899 0.000252038 -0.000929063
0.00615098 0.00213427 -0.0014886
0.00475955 -0.00438726 -6.88172e-05
0.00596449 0.000511702 -0.000224185
0.00602907 0.000496579 -0.000212637
-1.08215e-05 7.62249e-06 3.84719e-06
0.00591006 -0.000465407 0.000104469
0.00579218 -0.000535388 0.00134405
0.00627006 -0.000215912 -0.000123657
0.00484116 -0.00473715 -5.3736e-05
0.00530698 -0.000590184 -3.25337e-05
0.00605998 0.00046193 -0.000185898
3.79471e-07 -7.59663e-08 9.38938e-08
0.00524266 0.00058806 -0.000527516
0.00529496 0.000134289 0.000279802
0.00596718 0.000468979 -0.000196602
0.00606734 0.000148221 6.34206e-05
0.00619721 0.000428273 -0.00015616
0.00544588 0.000114042 -6.06104e-05
0.00543161 0.000152766 -0.000662667
0.00634631 0.00201347 -0.000649195
0.0049248 -0.00476963 -6.82102e-05
0.00608697 0.000477484 -0.000194105
0.00703822 -0.000303107 0.000192038
0.0056981 -9.6635e-05 0.000933225
0.00478261 0.000570641 -6.06383e-05
0.00420995 0.0012751 -7.12485e-05
0.00550537 -3.96498e-05 -0.000178498
0.00629103 0.000373804 -0.000213899
0.00579118 -0.000150394 0.000469895
0.00498719 -0.00501089 -6.83495e-05
0.00569712 0.000421038 -2.34943e-05
0.00613503 0.00041605 -0.000206597
0.00643848 -0.000364862 -0.00206458
0.00359035 -0.00605267 -2.54008e-05
0.0062244 0.000552946 -0.00127535
0.00597488 0.000122677 -2.22806e-05
0.00506916 0.000139528 0.000189188
0.0047694 0.00166422 -7.0334e-05
0.00538344 -3.50512e-05 -0.000270887
0.0056562 -0.000286661 -0.000601259
0.00601566 0.00050092 -0.000215237
0.00628809 0.000138114 0.000887626
0.00488782 -0.0047427 -7.46283e-05
-2.37279e-05 3.23422e-06 -2.56813e-06
0.00606006 0.000240249 -0.000126533
0.0068005 3.61582e-05 -9.66418e-05
0.00573023 -0.000588216 0.000280731
0.006887 0.000293653 -6.47168e-05
0.00556676 0.00087449 -0.00146298
0.00516287 -0.00197962 -0.000101584
0.0344248 -0.0172285 -0.153995
0.00601144 0.000477915 -0.000198375
0.00591376 0.000117524 0.000237746
0.00608977 0.000249878 -0.000179332
0.0056878 0.0010791 -0.000347503
0.00601278 2.06116e-06 -4.02172e-05
0.00900864 -0.00238314 -0.00965502
0.00601243 -0.000577379 0.000587538
0.00505765 -0.00014857 0.000693535
0.00670376 -0.000680839 -0.000357799
0.00605266 -0.00850632 -0.00116179
0.00603796 -5.63384e-05 -0.00145863
0.00499935 0.00154511 -0.000479315
0.00657111 -0.00626196 -0.00202148
0.00625214 -0.000356616 0.000592206
0.0060218 0.000189638 -0.000119392
0.00601114 0.000180783 0.000274257
0.00552232 2.26352e-05 0.000310726
0.00583315 -0.0010102 -0.000761993
0.00552145 -0.000379085 0.00121245
0.00493268 -0.00076006 0.000390316
0.00679783 0.000523705 -7.3262e-05
0.0241165 -0.017266 -0.0760216
0.00550729 -0.00043788 -0.000270041
0.00422813 0.00194894 -8.44624e-05
5.65513e-15 -2.50912e-16 -1.45618e-13
0.00640041 -0.000156939 -0.000561131
0.00637133 0.000391404 -0.000250704
0.00517476 -0.00397665 0.00212343
0.00611168 9.63567e-05 -7.96183e-06
-8.85429e-08 -1.5583e-06 1.63203e-07
0.00635056 0.000291393 0.000396641
0.00659705 -0.0101711 -0.00479043
0.00306991 -0.00043085 -2.51352e-05
0.00588815 -0.000890652 0.000992728
0.00590458 0.000807 -0.000147868
0.00495781 0.00129829 -0.000764037
0.00615966 0.000218585 -0.000300715
4.23303e-06 -6.8257e-07 -3.65617e-07
0.00584144 0.000989228 -0.000957363
0.0091575 -0.01577 -0.00939472
0.0057231 0.000411928 -0.000475668
0.00613519 0.000638309 -0.000580832
0.00502753 -0.00493839 -6.85568e-05
0.00641006 0.000291035 0.000709787
0.00481518 -0.0047634 -6.5715e-05
0.00526689 -6.70378e-05 -0.00025867
0.00556383 -0.000607498 -0.000365313
0.00614391 8.91645e-05 -0.0011015
0.00607815 0.00010256 -0.000598872
0.0322335 -0.00188803 -0.118392
0.00534912 -0.000283292 0.000159644
0.0055635 0.000170004 -0.000233402
0.00571418 0.000125264 -0.00043521
0.00525786 -0.00140689 0.000202835
0.00592898 0.000221924 -0.000135662
0.00526986 0.000185423 0.000372194
0.00649175 0.000356661 0.000382142
0.00564537 0.000186535 -0.000575399
0.00619749 0.00100741 0.000688247
0.00590793 -0.000455133 0.00148883
0.00547796 0.000256179 0.000462441
0.00570991 -0.000318346 0.00089581
0.00534814 0.000100569 0.000319554
0.00532243 -0.000577856 0.000614303
0.0056624 -0.000321943 0.000238731
0.00624815 0.000158438 0.000583028
0.00419682 0.00226814 -0.00011131
0.00606108 0.000129707 -0.000264231
0.00525347 -7.75335e-05 0.000150897
0.00564966 0.00301648 -0.00011998
0.00624074 0.00665686 -0.00297298
0.00552188 -0.000766171 0.000467637
0.00565218 0.000184899 -0.000121015
0.00570137 -0.000221948 0.000621178
-1.49257e-05 -2.42387e-05 1.89702e-06
0.00647247 0.000204845 -0.000294092
0.0050883 0.00128176 -0.000744816
0.00604906 1.24022e-05 0.00066616
0.00576302 -0.000157443 -0.000532267
0.00664405 0.000459882 0.000571562
0.00549261 5.60357e-05 0.000362497
0.00509856 0.000276154 -0.000203151
0.00591316 -0.000586247 0.000622006
-1.31959e-06 -7.29113e-07 4.62591e-07
0.00575976 -0.000180205 -0.000420106
-2.08747e-15 -3.75954e-15 -1.9058e-13
0.00595248 4.98326e-05 -0.000383896
0.00567045 -0.00109775 0.000263632
0.00630819 0.00143424 -8.62285e-05
-3.44176e-15 -6.19807e-15 -3.14202e-13
0.00513097 -4.63858e-05 -0.000254411
0.00588529 0.000110773 -6.56235e-05
0.00642644 0.000188073 -6.62636e-05
0.00605758 7.43844e-05 3.72234e-05
0.00594038 0.000207177 0.000323447
0.00559446 -0.000487366 0.000530298
0.00580101 -0.000535917 0.000560878
0.00623688 0.000171326 -8.31985e-05
0.00601957 -0.000523595 0.000567631
0.00567624 0.00011835 0.000441217
0.00586158 0.000393367 0.000351761
0.00531111 6.45251e-05 -0.000312118
0.00597696 4.55001e-05 0.00055776
0.00564494 5.65197e-05 -0.00037641
0.00572754 0.000412194 -0.000458968
0.00600164 0.00098496 0.000650692
0.00580363 -0.000141722 0.000509648
0.00574105 -0.000136599 0.00149928
0.00539238 0.000461958 -0.00049714
0.0050616 -0.000528914 1.89183e-05
0.00471641 0.00145046 -9.08505e-05
0.00593604 -0.00015525 -0.000233221
0.00598947 -0.000113988 0.000801796
0.00504521 -0.00492934 -6.72017e-05
0.00668264 0.000380796 0.000682544
0.0055206 -0.000276258 -0.00190948
0.00561936 0.000179959 0.000413951
0.00620214 0.000309294 -0.000220685
0.00627143 0.000458389 -0.000210108
0.00585122 0.000102682 0.000370929
0.00617876 -0.000807094 -0.000423431
0.0134898 0.0012912 -0.0198782
0.00609391 0.00103236 0.000641975
0.00567335 0.000143946 -0.00044548
0.00636073 0.000340294 -0.00117068
0.00555487 0.000299115 -0.000452604
0.0026458 -0.00421121 -0.00258434
0.00582003 0.000259601 7.30776e-06
0.00542802 0.000168258 -0.000251844
0.00483185 -8.09574e-05 0.000569919
0.00590141 -0.000646241 0.000651184
0.00538443 7.39192e-05 -0.00164906
0.00774835 0.00306683 -0.000805259
0.00567182 -0.0002911 0.000540353
0.00543728 0.00022539 0.000388401
0.00575912 -0.000495533 0.000546567
0.00562661 0.00113881 3.03808e-06
0.0059466 -0.00049581 0.000546689
0.0057362 -0.000595073 0.000574298
0.00558303 -0.000532374 0.000542548
0.00599275 0.00101321 0.000587496
0.00589675 -0.00069007 0.000480034
0.00594617 -0.000511886 0.000535374
0.00606779 -0.000852425 -0.000454531
0.00605703 0.000194509 -0.000111569
0.00463409 -0.000877019 -0.00338049
0.00145037 -0.00199439 0.00348632
0.00581314 0.000605099 -0.000567013
0.00555071 0.000179057 -0.000367627
0.00546618 -0.000817916 0.000506456
0.00580019 -0.000522704 0.000557288
0.00540029 0.000308484 0.000935945
0.00593631 -0.00050247 0.000527736
0.00533898 0.000158308 0.000806776
0.00540444 5.0483e-05 0.000358171
0.0059345 -0.000521285 0.000563568
5.78327e-16 1.04162e-15 5.28012e-14
0.00571563 -0.00021436 0.000472159
0.00587298 -1.13912e-05 0.000416136
0.00591014 -0.000914336 -0.00045282
0.00550491 -0.00053454 0.000136862
0.00501908 -0.000880667 -0.00334114
0.00588279 -0.000170028 0.000956675
0.00539907 -0.000738453 5.58866e-06
0.00582045 -0.00101457 -0.00049811
0.00553343 -0.000274315 -0.000629373
0.00518748 -3.82044e-05 -0.000261042
0.00577039 -0.000186622 0.000572067
0.00611797 -0.00086955 -0.000452778
0.00560689 0.000120249 0.000392922
0.0062251 1.96327e-05 0.000150517
0.0059107 -0.00105014 -0.000386759
0.00578377 -0.000260878 0.000596888
0.00653488 0.000957223 0.000644969
0.00589173 -0.00103029 -0.000416993
0.00566389 -0.000549273 0.000554436
0.00483675 0.000105618 0.000256397
0.00580701 -0.000973846 -0.000394884
0.00591131 -0.000535315 0.000532288
0.00565317 -9.54926e-05 0.000514799
0.00524234 -0.000419182 0.000487144
0.00558809 0.000423846 0.000259198
0.00554461 6.63206e-05 -0.00033354
0.00581322 -0.000330127 0.000683368
0.0057552 -0.000663249 -0.000461298
0.00596026 -0.000414044 0.000325823
0.00569128 -0.000167178 0.000444332
0.00507769 -0.000671096 0.000452293
0.00558747 0.000231478 -0.000366131
0.00558729 -0.000136565 0.000513961
0.00592058 -0.000584053 0.00150155
0.00557539 2.47265e-05 0.0004913
0.00568281 0.000640411 -0.000459632
0.00668056 -0.000745847 0.000687673
0.00570947 -0.000136222 0.000514986
0.0065557 -0.000239247 -0.000446061
0.00541491 0.000271437 0.000741792
0.00600055 -0.00051707 0.000572939
0.00549734 -0.00132223 -0.000279564
0.000670466 0.00188344 -4.55769e-05
0.00631565 0.000196175 0.000240056
0.00512005 9.27894e-05 0.000473108
0.00524245 5.24656e-05 0.000449167
0.00581185 -0.000636441 0.000592783
0.00571605 -0.00049914 0.000543339

VECTORS force float
4.54894e-08 4.19535e-08 4.85636e-09
5.07531e-10 1.1528e-09 1.64919e-11
-1.21514e-08 1.73748e-08 -7.23208e-09
9.74026e-12 -4.72506e-11 -1.50006e-12
8.63296e-09 -1.75783e-08 2.26358e-08
7.68549e-10 1.31918e-09 -9.19059e-10
1.02065e-08 -3.63986e-08 2.8752e-08
-1.1191e-08 -9.06392e-09 1.5683e-08
-2.55659e-10 -1.34714e-09 -5.0817e-11
-3.51125e-09 -5.37107e-09 2.24933e-09
-4.1359e-24 -1.13737e-24 0.0
0.0 0.0 -3.8832e-08
0.0 0.0 -3.8832e-08
5.93507e-08 -4.92644e-08 3.34391e-08
-2.78448e-08 -3.37579e-09 4.9896e-09
9.91422e-09 -9.72e-09 -6.22114e-09
0.0 0.0 -3.8832e-08
6.46397e-10 2.23977e-09 -1.71956e-09
-1.63885e-23 1.28213e-23 0.0
-5.62656e-09 5.67433e-09 -7.72807e-10
1.82144e-08 -1.2025e-08 8.3509e-09
9.94475e-09 -1.56954e-08 1.27982e-08
-3.76655e-08 1.34653e-08 -1.26656e-08
1.42681e-09 7.58291e-10 1.28149e-09
-4.83232e-09 -1.22762e-09 -1.36867e-10
-1.8665e-10 1.21691e-10 1.63453e-11
7.46732e-09 -1.18561e-08 3.39904e-09
-2.91548e-11 -2.09444e-10 1.58727e-10
-1.56592e-10 -3.3138e-10 4.60694e-12
0.0 0.0 -3.8832e-08
7.64721e-09 8.03566e-09 2.09099e-08
3.08102e-08 -1.8739e-08 7.22174e-09
-1.24445e-08 -2.00139e-08 3.45892e-09
-1.54718e-08 -4.27731e-08 4.42417e-09
-3.06009e-10 -1.53002e-09 -6.63258e-11
-3.38039e-09 -1.35204e-08 1.70993e-08
-5.77093e-12 1.23794e-10 -6.80525e-11
1.16731e-09 -7.09486e-10 9.66635e-10
8.94165e-11 3.0411e-10 -6.99039e-12
-5.79026e-24 -1.39289e-22 0.0
6.57302e-08 -1.5376e-08 1.34588e-08
1.51473e-08 4.25383e-08 8.25979e-08
3.23807e-12 -3.81041e-11 1.07321e-12
1.82944e-10 7.2373e-10 -5.00497e-10
-2.296e-10 1.25364e-10 -3.4254e-10
4.79121e-10 -5.79256e-10 3.9899e-10
4.3287e-08 4.51245e-08 -1.36581e-08
2.85318e-08 -1.16045e-08 3.51674e-08
9.64229e-09 -2.90056e-09 -2.43983e-08
-2.00291e-09 3.34647e-09 2.57179e-09
7.24734e-08 -3.62963e-08 1.39687e-08
-2.54295e-10 -9.05452e-10 4.16052e-10
3.28606e-11 -9.93369e-11 -3.5152e-11
-1.5908e-08 1.17657e-08 -4.08056e-09
7.91727e-09 1.2073e-08 3.50461e-09
-6.52995e-10 3.5397e-10 -1.06372e-10
-2.51737e-09 1.99638e-09 6.47248e-09
-1.20895e-09 -1.17925e-09 8.44846e-10
3.01025e-08 -1.78893e-08 -1.21033e-08
-8.14422e-09 -1.41103e-09 1.15727e-09
2.4626e-09 6.06268e-09 -2.07261e-09
2.40164e-11 -4.86489e-09 1.19242e-09
6.54621e-10 9.04572e-10 3.10523e-10
-2.90558e-08 -4.56534e-08 2.45014e-08
5.77861e-08 -7.52634e-08 4.15562e-08
1.80962e-08 3.37224e-09 6.38005e-10
-1.81384e-08 -4.88771e-09 2.88483e-10
2.69664e-08 -2.24791e-08 -2.52275e-08
-3.29473e-10 -7.14555e-10 -9.77682e-11
-1.46574e-07 4.22293e-08 7.67752e-08
-3.53807e-09 1.3569e-08 -3.45561e-10
4.41158e-10 -6.05017e-08 -1.31627e-08
-1.86456e-10 -5.89008e-10 -2.49085e-10
0.0 0.0 -3.8832e-08
-8.38684e-10 5.0581e-10 1.51405e-11
3.76963e-08 4.17432e-08 -5.6653e-08
1.95955e-09 -7.12658e-09 8.40999e-09
-8.65561e-09 -2.42146e-08 1.88574e-08
3.43175e-08 5.59656e-09 -6.01435e-09
3.19419e-08 -3.45198e-08 1.23942e-08
2.79667e-08 -3.93158e-08 2.86402e-08
5.09011e-10 4.19336e-10 -4.28923e-10
4.5923e-08 9.42685e-08 -9.66441e-09
9.60964e-10 1.25612e-09 -2.18452e-09
2.66931e-09 -5.0505e-10 -2.42551e-10
2.99736e-09 -4.14636e-09 -5.88217e-09
-1.14133e-08 -1.54832e-08 1.08182e-08
-5.10989e-08 2.4142e-10 3.31265e-08
-1.96026e-08 -1.40229e-10 5.36736e-09
-5.46259e-09 -6.35723e-08 5.71169e-08
-4.75257e-11 1.47656e-10 -2.1767e-12
0.0 0.0 -3.8832e-08
-8.9191e-10 -6.95087e-10 5.87303e-10
1.97495e-08 1.4064e-08 1.25074e-09
2.01872e-10 -1.1393e-08 1.09034e-08
-1.6588e-08 -1.4665e-08 2.62784e-08
8.46086e-11 -9.6315e-09 3.23146e-09
0.0 0.0 -3.8832e-08
-3.00458e-10 -1.99662e-10 2.51365e-10
-1.63843e-08 2.73119e-09 9.04439e-09
7.39452e-09 -2.91517e-08 -6.39174e-09
3.88865e-09 2.2667e-08 2.3245e-07
0.0 0.0 -3.8832e-08
9.36888e-09 4.31691e-08 -9.52856e-09
1.00071e-08 2.34659e-09 -3.05513e-08
-3.26037e-09 -8.76192e-09 -5.45986e-09
2.77431e-08 -9.00131e-09 -1.0005e-08
1.42583e-08 -1.59701e-08 -8.67315e-09
2.17955e-09 5.05458e-09 -4.89844e-09
7.59563e-09 4.40611e-09 -2.00946e-09
4.16129e-09 -2.54008e-09 -7.57078e-09
2.78094e-08 -3.49819e-08 2.87544e-08
-1.62128e-08 1.38544e-08 -3.21379e-09
7.89968e-09 9.2162e-10 -3.23124e-08
-1.34528e-08 1.4295e-08 -1.95385e-08
-1.71758e-08 -7.34234e-09 2.72389e-10
-2.68834e-24 -4.69683e-23 0.0
3.3158e-09 -8.86139e-09 5.91416e-09
-1.87339e-08 1.28525e-08 -7.63265e-09
-3.6788e-09 5.02388e-08 4.62663e-08
-7.57359e-10 -5.60428e-09 6.27749e-09
7.66485e-11 -2.65231e-10 -1.03281e-10
1.51054e-08 5.12747e-09 2.15727e-08
0.0 0.0 -3.8832e-08
-1.26195e-09 5.06781e-10 5.30178e-12
-1.29529e-08 1.18176e-07 4.56819e-08
-1.34737e-09 1.86429e-08 -6.83795e-10
-1.28415e-08 1.03783e-08 -6.34087e-09
-1.74551e-09 1.05868e-08 3.21952e-08
-2.45892e-10 -2.57725e-10 -1.31983e-10
1.24683e-08 1.45378e-08 -1.30908e-08
0.0 0.0 -3.8832e-08
4.13185e-08 -4.12896e-08 1.50586e-08
1.66843e-08 2.32342e-09 -5.62617e-10
-6.24464e-09 7.96684e-09 2.05164e-10
5.24136e-08 -6.18547e-08 1.71127e-09
-5.26488e-09 -9.37883e-09 -3.05582e-11
3.90991e-08 -1.43443e-08 3.97356e-09
3.71602e-08 -3.99264e-09 9.98207e-09
6.06606e-08 -3.93195e-08 1.90579e-08
-3.118e-08 2.71144e-09 1.19484e-08
0.0 0.0 -3.8832e-08
1.44881e-07 -2.97532e-10 1.21861e-07
1.08813e-08 1.45401e-08 1.36264e-09
1.55474e-08 1.28155e-08 -1.93626e-09
2.87679e-08 -6.85753e-08 7.06791e-08
8.44647e-09 -1.64653e-08 2.02918e-08
-6.58032e-08 4.43221e-09 5.69848e-08
1.15311e-09 -4.13352e-09 -7.78077e-09
-3.12682e-08 -9.51231e-09 -6.73933e-09
1.15747e-09 2.50412e-10 1.00648e-09
1.80625e-08 1.93688e-08 4.50803e-10
1.2401e-08 1.8772e-08 -1.24979e-08
7.43107e-09 -2.24013e-08 2.2318e-08
-1.77847e-08 -1.69131e-08 -1.31917e-08
2.89263e-08 -3.39665e-08 1.25263e-08
6.90728e-09 9.27582e-09 1.67812e-08
4.02447e-09 6.21583e-09 9.29742e-10
3.40784e-08 2.22741e-08 -1.6057e-09
4.58875e-09 1.09417e-08 1.71931e-08
-2.81648e-08 1.48151e-08 -1.69562e-09
3.01799e-09 3.0013e-09 -3.82218e-10
-3.22875e-09 -3.69171e-09 -1.34813e-08
-1.99109e-08 1.01322e-08 6.77405e-09
-2.20618e-09 6.98943e-09 -1.19051e-09
3.86314e-08 -2.71153e-08 1.90885e-08
1.40888e-10 2.33435e-09 -1.55884e-10
2.10255e-08 -1.82716e-08 1.19622e-08
-1.57487e-08 -8.90012e-09 -1.13051e-08
9.12205e-09 1.69845e-09 -2.67368e-08
-4.22942e-10 1.18283e-08 -6.84728e-09
8.2516e-09 -1.827e-09 3.02866e-12
-4.89461e-09 -1.64986e-08 -5.04545e-09
1.98009e-08 1.8454e-08 -1.4136e-08
-1.21498e-08 5.66272e-09 -5.04979e-09
-5.5214e-11 -4.85048e-11 -4.42484e-11
6.59641e-09 1.52906e-08 -4.10389e-09
7.23783e-25 -5.16988e-25 0.0
-2.40914e-08 -9.05589e-09 3.36654e-09
6.07569e-09 -6.9843e-09 3.19779e-08
-1.96915e-09 -4.58553e-09 9.0286e-10
-3.56722e-24 5.16988e-25 0.0
3.82659e-08 2.25456e-08 -1.10824e-08
-2.4426e-09 -9.42237e-09 7.57856e-09
-9.40376e-08 2.2925e-08 -6.46816e-08
2.70363e-08 -5.57075e-09 1.01662e-08
1.77719e-08 4.94341e-09 1.0287e-09
4.91936e-10 5.16954e-10 2.90526e-10
3.48672e-10 4.28324e-10 -2.25612e-10
1.66625e-08 -2.45054e-08 2.10078e-08
-2.76744e-09 3.83699e-09 -8.77525e-10
1.45992e-08 -7.4855e-09 -1.35834e-10
5.92753e-09 -1.92755e-08 2.90113e-09
9.74379e-09 -6.17385e-09 2.3467e-09
6.38252e-09 -2.23549e-08 6.9722e-09
-1.33505e-08 -5.67111e-09 1.60775e-09
-4.43274e-08 1.43442e-09 -1.60598e-08
-1.72838e-09 -1.50292e-09 1.28537e-09
7.75438e-08 -2.22307e-08 -5.28393e-09
2.77105e-08 -3.32797e-09 -4.38144e-09
4.69868e-08 2.11303e-08 -1.73806e-08
-1.55721e-08 1.69516e-08 -8.37649e-10
-1.6308e-08 -3.18418e-09 1.10892e-09
1.22428e-08 1.27681e-08 1.1225e-08
-1.95463e-08 3.45878e-08 1.6356e-08
-2.22635e-10 1.06673e-08 -5.84282e-10
-1.31779e-08 -4.93394e-09 -3.24681e-09
-1.73829e-08 -2.14065e-08 2.43357e-08
3.67181e-08 1.05154e-09 4.48178e-10
1.36827e-08 -5.61524e-09 -1.26544e-08
1.15575e-08 -7.41751e-09 -7.46991e-09
-6.78268e-09 3.07933e-09 -3.21943e-08
3.8336e-11 6.63796e-10 -2.0928e-09
0.0 0.0 -3.8832e-08
-1.27004e-09 -2.38419e-09 -2.66343e-10
-3.22666e-08 6.44321e-09 4.41847e-09
7.88174e-10 3.6512e-08 -3.14121e-08
1.77376e-08 1.13434e-08 -2.46867e-09
-3.88865e-09 -2.2667e-08 -3.10114e-07
-6.33816e-09 8.78836e-09 -2.97778e-08
3.19809e-08 1.76211e-08 -1.66952e-09
-2.1907e-08 -1.59434e-09 8.8862e-09
-4.35674e-09 6.31917e-09 -3.36825e-09
-1.45533e-08 -9.50839e-09 3.03681e-08
6.29872e-09 -9.33679e-08 1.33115e-07
6.80676e-09 -1.61023e-08 -1.88233e-09
1.84457e-08 -1.09159e-08 2.65961e-09
-1.71769e-09 2.2404e-09 -9.26556e-10
5.2841e-09 9.06395e-09 -2.2035e-08
-6.46143e-09 8.3948e-09 -2.58773e-09
-2.32696e-10 -6.67406e-10 3.32309e-10
1.9291e-10 1.13399e-09 -4.00208e-11
-6.41967e-10 -3.32475e-10 2.54588e-10
2.92383e-11 2.00788e-11 -6.05659e-12
-5.65026e-09 -3.25769e-09 3.30464e-09
1.46116e-09 9.97379e-10 -2.36054e-10
3.99142e-09 -2.71436e-08 2.46687e-08
6.8544e-08 -6.12463e-08 5.81726e-08
9.74496e-07 1.10393e-06 -1.85578e-06
-5.48586e-09 4.29167e-09 -8.66591e-09
2.02294e-09 -1.78884e-08 9.64449e-09
-5.40196e-12 -1.3457e-10 4.50804e-11
1.38467e-09 1.14972e-09 -3.95027e-10
1.52629e-08 1.16182e-08 9.82814e-09
-5.20632e-09 5.93417e-09 -9.2349e-10
3.3536e-08 -1.74989e-09 1.99461e-08
8.80673e-09 -1.55806e-08 -4.55211e-09
-3.08589e-09 2.78757e-09 -1.30739e-09
-2.22305e-24 -1.03398e-24 0.0
-1.05589e-09 -8.69791e-09 7.82195e-09
-2.2143e-09 -5.78052e-10 1.21753e-08
-1.22444e-08 9.04381e-09 -3.93136e-09
1.46754e-08 -3.8022e-09 2.66883e-09
-1.73143e-08 -6.69061e-09 4.87331e-08
3.69204e-08 -1.03598e-08 -6.37068e-10
3.02956e-08 -3.79086e-08 1.9689e-08
-5.71194e-09 5.36591e-09 -3.46015e-08
-3.01441e-09 -8.31423e-09 -2.02313e-08
5.25146e-08 5.98288e-09 -4.96138e-09
-6.37156e-09 -3.31064e-08 1.71283e-08
6.65138e-10 -8.2414e-10 -7.12773e-10
-5.47249e-09 -1.10242e-08 1.2573e-08
1.13849e-08 3.14893e-09 7.17609e-09
-2.82711e-09 1.9586e-09 -3.48493e-09
-3.9903e-09 -2.85353e-08 9.06308e-09
7.51451e-09 4.62792e-09 2.44991e-09
2.62283e-09 3.51406e-09 -9.30148e-09
-1.3333e-12 3.58415e-10 -4.65247e-10
-1.14604e-08 -1.8162e-08 1.87415e-08
-2.32016e-09 3.70269e-09 -6.31694e-10
1.62663e-09 1.2291e-09 1.11726e-09
3.25483e-08 -1.18119e-10 1.60199e-08
-5.19886e-10 -1.37617e-09 4.95589e-10
-2.11334e-08 1.14601e-08 -1.63812e-08
1.90639e-08 -2.12989e-08 4.17089e-09
9.88428e-09 -2.1125e-08 1.78555e-08
3.34617e-10 4.22759e-10 -6.70935e-10
2.25822e-09 7.62238e-09 -2.48341e-09
2.6586e-08 1.39402e-08 2.63629e-08
3.98774e-09 1.30519e-08 9.26065e-10
-1.05589e-08 -6.74813e-09 4.25723e-09
5.06795e-09 -7.69766e-09 4.17893e-09
6.83382e-10 1.05336e-09 9.50428e-09
1.27346e-08 7.66317e-10 1.14527e-08
-4.99117e-09 -2.24126e-08 1.40706e-08
-1.0736e-09 1.01722e-09 -5.42036e-10
-4.3845e-09 -2.65691e-08 -7.40184e-09
-1.52076e-09 -1.39352e-08 2.61986e-08
2.6679e-09 2.15371e-08 2.41726e-10
-6.05179e-09 1.54195e-09 -2.14025e-09
-1.00963e-08 8.708e-09 -1.94186e-09
1.12803e-08 6.56471e-09 -7.01668e-10
1.46884e-08 -1.758e-08 -2.81536e-08
-1.73423e-08 -1.72977e-09 1.59607e-08
-2.62977e-08 -9.10635e-09 3.25959e-09
1.94125e-11 2.22187e-11 -3.89395e-12
2.22036e-10 1.4614e-09 -2.6587e-10
