# vtk DataFile Version 3.0
LIGGGHTS particles timestep 4800000
ASCII
DATASET POLYDATA
POINTS 297 float
0.0407411 0.0161398 0.00825451
0.041193 0.0179358 0.00720623
0.0351312 0.0176245 0.00724877
0.0425064 0.0186523 0.00701746
0.0408256 0.0163757 0.00794559
0.046703 0.0159812 0.00832928
0.0353571 0.0161108 0.00810376
0.0413583 0.0163124 0.00800044
0.0473439 0.0186158 0.00720054
0.0412352 0.0169086 0.00756045
0.0423729 0.0175332 0.00739308
0.0343766 0.015015 0.00948719
0.0408878 0.0165505 0.00770988
0.0345878 0.0149163 0.00990575
0.0411319 0.0176519 0.00730115
0.0341956 0.0148838 0.010356
0.0409495 0.0168157 0.00758051
0.0473122 0.017276 0.00751286
0.0410028 0.0162297 0.00813863
0.0423583 0.0169117 0.00760571
0.0411109 0.0164241 0.00786561
0.0414158 0.0164986 0.00777242
0.041253 0.0182148 0.007113
0.0469592 0.0169195 0.00765943
0.0415382 0.0167342 0.00763277
0.047025 0.0171955 0.00756203
0.041748 0.0191955 0.00695893
0.047162 0.0177613 0.00741696
0.0473849 0.0175618 0.00743919
0.0414399 0.0177782 0.00727052
0.0418682 0.0172071 0.00748412
0.0419066 0.0169262 0.00758208
0.0351249 0.0171465 0.00779341
0.042034 0.0178139 0.00728277
0.0474053 0.0189004 0.00712837
0.041299 0.0171905 0.00746634
0.0411723 0.0166279 0.00765415
0.0471683 0.0167044 0.00765998
0.0424563 0.0183711 0.00710902
0.0406132 0.0157741 0.00871266
0.0417388 0.0177606 0.00728889
0.0410721 0.017373 0.00739435
0.0426899 0.0181962 0.00717864
0.0467679 0.016189 0.00812282
0.0468328 0.0163967 0.00791637
0.0409992 0.0160452 0.0083752
0.0421229 0.0167326 0.00765744
0.0352711 0.0169755 0.00759494
0.0427403 0.0184783 0.00708784
0.0423337 0.017814 0.00729511
0.035286 0.0158971 0.0083019
0.0471237 0.0164845 0.00785911
0.0417061 0.0164368 0.0078161
0.0347649 0.0152744 0.00912099
0.0360605 0.017804 0.00715354
0.0470923 0.0174787 0.00748955
0.0428729 0.0190378 0.00692151
0.0472431 0.0169908 0.00758597
0.0421026 0.0164968 0.00784178
0.0406772 0.0159569 0.00848359
0.041805 0.0174847 0.00738628
0.0422067 0.0186518 0.00700245
0.0468944 0.0166735 0.00781837
0.0413822 0.017499 0.00736391
0.0352232 0.0157188 0.00853475
0.0420961 0.0174206 0.00742026
0.0415831 0.0172911 0.00744377
0.0416151 0.0170094 0.00754154
0.0472825 0.0183311 0.00727272
0.0341344 0.0148411 0.0106465
0.0421566 0.0183714 0.00709655
0.0421495 0.0171126 0.00752814
0.0472217 0.0180464 0.00734487
0.0410112 0.0170943 0.00748747
0.0425531 0.018936 0.00693174
0.0416011 0.018817 0.00721154
0.0420414 0.0194542 0.00700166
0.0348223 0.0163187 0.00791811
0.0418312 0.0167057 0.00777093
0.0350845 0.0161834 0.00797181
0.035208 0.0167132 0.00772603
0.0475284 0.0170695 0.00753739
0.0350711 0.0173632 0.00738337
0.042787 0.0187619 0.00700212
0.0426213 0.0170516 0.00756856
0.0416627 0.0189091 0.00693276
0.0417055 0.0173027 0.00771739
0.0353327 0.0172367 0.00746076
0.0424124 0.0172524 0.00749105
0.0413792 0.0187928 0.00701097
0.0419601 0.018873 0.00691633
0.0413175 0.0185082 0.00708306
0.047063 0.0162764 0.00806644
0.0351588 0.0155407 0.0087674
0.0416196 0.0186144 0.00699098
0.0350226 0.0159896 0.00819223
0.0415641 0.0160885 0.00828667
0.0402537 0.0148791 0.0100947
0.0340013 0.0147438 0.0112234
0.034947 0.0168467 0.0076621
0.0356382 0.0160427 0.00818327
0.0342639 0.0149159 0.0100657
0.0361484 0.0168891 0.00760888
0.0345625 0.0155233 0.00876989
0.0401244 0.0148714 0.0106767
0.0365229 0.0172649 0.00741062
0.0415626 0.0183351 0.00708446
0.0420455 0.0191581 0.00695337
0.0372013 0.0180412 0.00706114
0.0368108 0.0171869 0.00744221
0.0347556 0.0160861 0.00809537
0.0353931 0.0174911 0.00731375
0.0424009 0.0166301 0.00770409
0.0403164 0.0149045 0.00980243
0.0355427 0.0168549 0.00763592
0.0419606 0.0162865 0.00800185
0.0416493 0.0162612 0.00805259
0.0404371 0.015271 0.00934303
0.0423393 0.0192182 0.00696372
0.03432 0.0149395 0.00977193
0.0426392 0.0192221 0.00695896
0.0412742 0.0161455 0.00823503
0.0357582 0.0165068 0.00784131
0.0400593 0.0148349 0.0109673
0.0419137 0.0186082 0.00704959
0.0346269 0.0157053 0.0085403
0.0420939 0.0180931 0.00718945
0.0349595 0.0158006 0.00841739
0.0418615 0.0183176 0.00710281
0.0413148 0.0159642 0.00847048
0.0417988 0.0180394 0.00719571
0.0399942 0.014833 0.0112602
0.0344389 0.0151658 0.00923547
0.0414444 0.0190841 0.00704098
0.0422536 0.0189349 0.00691496
0.0356939 0.0162414 0.00796551
0.0423936 0.0180928 0.00720192
0.0348292 0.0154444 0.00888228
0.0354798 0.0165942 0.0077703
0.0355711 0.015842 0.00839592
0.0360225 0.0163715 0.00788475
0.0401897 0.014842 0.0103854
0.0344985 0.0153445 0.00900204
0.0364005 0.0167412 0.00767657
0.0369982 0.0173944 0.00733349
0.0350285 0.0151844 0.0092322
0.0414999 0.0180569 0.00717735
0.0346927 0.0158885 0.0083121
0.0403731 0.0150881 0.00957209
0.0362739 0.0162185 0.00794237
0.0286739 0.0158229 0.0083591
0.035144 0.0164613 0.00787575
0.036002 0.0175386 0.00728049
0.0348839 0.0165811 0.00778646
0.035374 0.0153027 0.00908877
0.0354458 0.0177533 0.00717789
0.0371674 0.0177566 0.00714977
0.0348949 0.0156224 0.00864994
0.041438 0.0171608 0.00773052
0.0415073 0.0193724 0.00698734
0.0364628 0.0170031 0.0075442
0.0416049 0.0159088 0.00852333
0.034642 0.0149541 0.00961314
0.0367507 0.0169249 0.00757523
0.0411349 0.0172589 0.00770799
0.0355163 0.0180435 0.00714952
0.0413338 0.0168269 0.00783174
0.0358214 0.0167576 0.00768938
0.035439 0.0154808 0.00885632
0.035244 0.0181773 0.00706501
0.0371116 0.0171447 0.0074551
0.0370475 0.0168834 0.0075877
0.0369591 0.0182134 0.00710257
0.0362701 0.0174113 0.00733976
0.0298055 0.0182904 0.00710594
0.0418568 0.01612 0.00822875
0.037271 0.0175028 0.00727149
0.0411566 0.0158128 0.00867549
0.0360869 0.0166321 0.0077508
0.0354141 0.016337 0.00791514
0.0409682 0.0170271 0.00779986
0.0423764 0.0163755 0.00786085
0.0347034 0.0151161 0.00936826
0.0417543 0.0195404 0.0070152
0.0359061 0.0159402 0.00827124
0.0410305 0.0167477 0.00788975
0.0357717 0.0155827 0.0087339
0.0338717 0.0146266 0.0117973
0.0339362 0.0146865 0.0115106
0.0399292 0.0148322 0.011553
0.029456 0.0179186 0.00722507
0.035719 0.0176414 0.00723079
0.035883 0.0170152 0.00754852
0.0366469 0.0180791 0.00706205
0.0356663 0.0173788 0.00736595
0.040897 0.0157192 0.00879321
0.0362128 0.0160305 0.00817004
0.0286084 0.0156093 0.00855934
0.0356048 0.0171169 0.00750088
0.0355033 0.015659 0.0086237
0.0366884 0.0166631 0.00770782
0.0350102 0.017103 0.00751962
0.0406977 0.0153679 0.00923036
0.036894 0.0176468 0.00720936
0.0353081 0.0184604 0.00714074
0.0414468 0.0157597 0.00873011
0.0363256 0.0176734 0.00720482
0.0359592 0.0161219 0.00803848
0.0357761 0.0179034 0.00709587
0.040666 0.0151337 0.00952576
0.0415239 0.0185407 0.00729949
0.0359448 0.0172761 0.00741405
0.0290582 0.0161449 0.00807918
0.0408476 0.0166331 0.00809812
0.0287405 0.0160457 0.00816966
0.0363385 0.0164795 0.00780935
0.0408329 0.0155364 0.00902224
0.0366273 0.0164018 0.0078419
0.0340668 0.0147948 0.0109351
0.0350938 0.0153625 0.00899984
0.0362106 0.0171499 0.00747441
0.035185 0.0178875 0.00711497
0.0297429 0.0180076 0.00718902
0.0357074 0.0154045 0.0089665
0.0407065 0.0153621 0.009716
0.0363834 0.0179361 0.00707215
0.0364484 0.0185196 0.00717497
0.0293315 0.0173466 0.00735623
0.0284876 0.0153559 0.00908943
0.0292929 0.0183939 0.00709861
0.0289875 0.0169653 0.00744034
0.029106 0.0175386 0.00730882
0.0288039 0.0162713 0.00798231
0.028869 0.0164975 0.00779644
0.0295191 0.0182021 0.00714338
0.0291901 0.016595 0.0077051
0.0405492 0.0155913 0.00894173
0.0360254 0.0154904 0.00886475
0.0285509 0.0154757 0.00882174
0.0356424 0.0152264 0.00919898
0.0364995 0.0159841 0.00824529
0.023031 0.0171652 0.0073474
0.0292404 0.0168236 0.00751748
0.035675 0.0189371 0.00727507
0.0295821 0.0184853 0.00706017
0.0363931 0.0182347 0.00709896
0.0367022 0.018364 0.00713809
0.0293935 0.0176326 0.00729064
0.0422425 0.0162176 0.00807799
0.0366046 0.0187666 0.00724263
0.0358605 0.0185031 0.00716102
0.029965 0.0178113 0.00723522
0.0361313 0.0183773 0.00713224
0.0360963 0.0156678 0.00863346
0.035376 0.0185651 0.00741356
0.0345305 0.0148762 0.0101975
0.0300277 0.0180942 0.00715212
0.0359332 0.0187892 0.0072376
0.0352466 0.0149485 0.00955601
0.0355788 0.0183345 0.00711192
0.0291233 0.0163701 0.00789202
0.0353933 0.0188342 0.00728212
0.0365803 0.0175276 0.00727769
0.029902 0.0175283 0.00731836
0.0354627 0.0191434 0.0073233
0.0369776 0.0165889 0.00773705
0.0296794 0.017724 0.00727235
0.0290472 0.0172519 0.0073746
0.0353087 0.0151246 0.00932118
0.0296167 0.0174379 0.00733862
0.0293545 0.0186756 0.0070159
0.0366386 0.017792 0.00714855
0.0294161 0.0189573 0.00693318
0.0361187 0.0180809 0.00705389
0.0355771 0.0150483 0.00943139
0.0355875 0.0186219 0.00719714
0.0295404 0.0168145 0.00751472
0.0353134 0.0166796 0.00800487
0.0369017 0.0179208 0.00706908
0.0349058 0.0149293 0.00975415
0.0365603 0.0161655 0.00801424
0.0362225 0.0187114 0.00722182
0.0348514 0.0148898 0.0100465
0.0359351 0.0190812 0.00731463
0.0361598 0.0158484 0.00840244
0.0291681 0.0178248 0.0072432
0.0366179 0.0190564 0.00731924
0.0404105 0.0153874 0.00961825
0.0358428 0.0181958 0.00707968
0.029231 0.0181112 0.00717755
0.0301869 0.0176148 0.0072815
0.0403413 0.015205 0.00984655
0.0358427 0.0157605 0.00850291
0.0349665 0.0150182 0.00947416
0.0369642 0.0185041 0.00717929
0.0289364 0.0167309 0.00762039
0.0293969 0.0170615 0.00742317

VERTICES 297 594
1 0
1 1
1 2
1 3
1 4
1 5
1 6
1 7
1 8
1 9
1 10
1 11
1 12
1 13
1 14
1 15
1 16
1 17
1 18
1 19
1 20
1 21
1 22
1 23
1 24
1 25
1 26
1 27
1 28
1 29
1 30
1 31
1 32
1 33
1 34
1 35
1 36
1 37
1 38
1 39
1 40
1 41
1 42
1 43
1 44
1 45
1 46
1 47
1 48
1 49
1 50
1 51
1 52
1 53
1 54
1 55
1 56
1 57
1 58
1 59
1 60
1 61
1 62
1 63
1 64
1 65
1 66
1 67
1 68
1 69
1 70
1 71
1 72
1 73
1 74
1 75
1 76
1 77
1 78
1 79
1 80
1 81
1 82
1 83
1 84
1 85
1 86
1 87
1 88
1 89
1 90
1 91
1 92
1 93
1 94
1 95
1 96
1 97
1 98
1 99
1 100
1 101
1 102
1 103
1 104
1 105
1 106
1 107
1 108
1 109
1 110
1 111
1 112
1 113
1 114
1 115
1 116
1 117
1 118
1 119
1 120
1 121
1 122
1 123
1 124
1 125
1 126
1 127
1 128
1 129
1 130
1 131
1 132
1 133
1 134
1 135
1 136
1 137
1 138
1 139
1 140
1 141
1 142
1 143
1 144
1 145
1 146
1 147
1 148
1 149
1 150
1 151
1 152
1 153
1 154
1 155
1 156
1 157
1 158
1 159
1 160
1 161
1 162
1 163
1 164
1 165
1 166
1 167
1 168
1 169
1 170
1 171
1 172
1 173
1 174
1 175
1 176
1 177
1 178
1 179
1 180
1 181
1 182
1 183
1 184
1 185
1 186
1 187
1 188
1 189
1 190
1 191
1 192
1 193
1 194
1 195
1 196
1 197
1 198
1 199
1 200
1 201
1 202
1 203
1 204
1 205
1 206
1 207
1 208
1 209
1 210
1 211
1 212
1 213
1 214
1 215
1 216
1 217
1 218
1 219
1 220
1 221
1 222
1 223
1 224
1 225
1 226
1 227
1 228
1 229
1 230
1 231
1 232
1 233
1 234
1 235
1 236
1 237
1 238
1 239
1 240
1 241
1 242
1 243
1 244
1 245
1 246
1 247
1 248
1 249
1 250
1 251
1 252
1 253
1 254
1 255
1 256
1 257
1 258
1 259
1 260
1 261
1 262
1 263
1 264
1 265
1 266
1 267
1 268
1 269
1 270
1 271
1 272
1 273
1 274
1 275
1 276
1 277
1 278
1 279
1 280
1 281
1 282
1 283
1 284
1 285
1 286
1 287
1 288
1 289
1 290
1 291
1 292
1 293
1 294
1 295
1 296

POINT_DATA 297
SCALARS id int 1
LOOKUP_TABLE default
1
2
3
4
5
6
7
8
9
10
11
12
13
14
15
16
17
18
19
20
21
22
23
24
25
26
27
28
29
30
31
32
33
34
35
36
37
38
39
40
41
42
43
44
45
46
47
48
49
50
51
52
53
54
55
56
57
58
59
60
61
62
63
64
65
66
67
68
69
70
71
72
73
74
75
76
77
78
80
81
82
83
84
85
86
87
88
89
90
91
92
93
94
95
96
97
98
99
100
101
102
103
104
105
106
107
108
109
110
111
112
113
114
115
116
117
118
119
120
121
122
123
124
125
126
127
128
129
130
131
132
133
134
135
136
137
138
139
140
141
142
143
144
145
146
147
148
149
150
151
152
153
154
155
156
157
158
159
160
161
162
163
164
165
167
168
169
170
171
172
173
174
175
176
177
178
179
180
181
182
183
185
186
187
188
189
190
191
192
193
194
195
196
197
198
199
200
201
202
203
204
205
206
207
208
209
210
211
212
213
214
215
216
217
218
219
220
221
222
223
224
225
226
227
228
229
230
231
232
233
234
235
236
237
238
239
240
241
242
243
244
245
246
247
248
249
250
251
252
253
254
255
256
257
258
259
260
261
262
263
264
265
266
267
268
269
270
271
272
273
274
275
276
277
278
279
280
281
282
283
284
285
286
287
288
289
290
291
292
293
294
295
296
297
298
299
300

SCALARS type int 1
LOOKUP_TABLE default
1
1
1
1
1
1
1
1
1
1
1
1
1
1
1
1
1
1
1
1
1
1
1
1
1
1
1
1
1
1
1
1
1
1
1
1
1
1
1
1
1
1
1
1
1
1
1
1
1
1
1
1
1
1
1
1
1
1
1
1
1
1
1
1
1
1
1
1
1
1
1
1
1
1
1
1
1
1
1
1
1
1
1
1
1
1
1
1
1
1
1
1
1
1
1
1
1
1
1
1
1
1
1
1
1
1
1
1
1
1
1
1
1
1
1
1
1
1
1
1
1
1
1
1
1
1
1
1
1
1
1
1
1
1
1
1
1
1
1
1
1
1
1
1
1
1
1
1
1
1
1
1
1
1
1
1
1
1
1
1
1
1
1
1
1
1
1
1
1
1
1
1
1
1
1
1
1
1
1
1
1
1
1
1
1
1
1
1
1
1
1
1
1
1
1
1
1
1
1
1
1
1
1
1
1
1
1
1
1
1
1
1
1
1
1
1
1
1
1
1
1
1
1
1
1
1
1
1
1
1
1
1
1
1
1
1
1
1
1
1
1
1
1
1
1
1
1
1
1
1
1
1
1
1
1
1
1
1
1
1
1
1
1
1
1
1
1
1
1
1
1
1
1
1
1
1
1
1
1
1
1
1
1
1
1
1
1
1
1
1
1
1
1
1
1
1
1

SCALARS radius float 1
LOOKUP_TABLE default
0.00015
0.00015
0.00015
0.00015
0.00015
0.00015
0.00015
0.00015
0.00015
0.00015
0.00015
0.00015
0.00015
0.00015
0.00015
0.00015
0.00015
0.00015
0.00015
0.00015
0.00015
0.00015
0.00015
0.00015
0.00015
0.00015
0.00015
0.00015
0.00015
0.00015
0.00015
0.00015
0.00015
0.00015
0.00015
0.00015
0.00015
0.00015
0.00015
0.00015
0.00015
0.00015
0.00015
0.00015
0.00015
0.00015
0.00015
0.00015
0.00015
0.00015
0.00015
0.00015
0.00015
0.00015
0.00015
0.00015
0.00015
0.00015
0.00015
0.00015
0.00015
0.00015
0.00015
0.00015
0.00015
0.00015
0.00015
0.00015
0.00015
0.00015
0.00015
0.00015
0.00015
0.00015
0.00015
0.00015
0.00015
0.00015
0.00015
0.00015
0.00015
0.00015
0.00015
0.00015
0.00015
0.00015
0.00015
0.00015
0.00015
0.00015
0.00015
0.00015
0.00015
0.00015
0.00015
0.00015
0.00015
0.00015
0.00015
0.00015
0.00015
0.00015
0.00015
0.00015
0.00015
0.00015
0.00015
0.00015
0.00015
0.00015
0.00015
0.00015
0.00015
0.00015
0.00015
0.00015
0.00015
0.00015
0.00015
0.00015
0.00015
0.00015
0.00015
0.00015
0.00015
0.00015
0.00015
0.00015
0.00015
0.00015
0.00015
0.00015
0.00015
0.00015
0.00015
0.00015
0.00015
0.00015
0.00015
0.00015
0.00015
0.00015
0.00015
0.00015
0.00015
0.00015
0.00015
0.00015
0.00015
0.00015
0.00015
0.00015
0.00015
0.00015
0.00015
0.00015
0.00015
0.00015
0.00015
0.00015
0.00015
0.00015
0.00015
0.00015
0.00015
0.00015
0.00015
0.00015
0.00015
0.00015
0.00015
0.00015
0.00015
0.00015
0.00015
0.00015
0.00015
0.00015
0.00015
0.00015
0.00015
0.00015
0.00015
0.00015
0.00015
0.00015
0.00015
0.00015
0.00015
0.00015
0.00015
0.00015
0.00015
0.00015
0.00015
0.00015
0.00015
0.00015
0.00015
0.00015
0.00015
0.00015
0.00015
0.00015
0.00015
0.00015
0.00015
0.00015
0.00015
0.00015
0.00015
0.00015
0.00015
0.00015
0.00015
0.00015
0.00015
0.00015
0.00015
0.00015
0.00015
0.00015
0.00015
0.00015
0.00015
0.00015
0.00015
0.00015
0.00015
0.00015
0.00015
0.00015
0.00015
0.00015
0.00015
0.00015
0.00015
0.00015
0.00015
0.00015
0.00015
0.00015
0.00015
0.00015
0.00015
0.00015
0.00015
0.00015
0.00015
0.00015
0.00015
0.00015
0.00015
0.00015
0.00015
0.00015
0.00015
0.00015
0.00015
0.00015
0.00015
0.00015
0.00015
0.00015
0.00015
0.00015
0.00015
0.00015
0.00015
0.00015
0.00015
0.00015
0.00015
0.00015
0.00015
0.00015
0.00015
0.00015
0.00015
0.00015
0.00015
0.00015
0.00015
0.00015
0.00015
0.00015
0.00015
0.00015
0.00015
0.00015
0.00015
0.00015
0.00015
0.00015
0.00015
0.00015
0.00015

SCALARS mass float 1
LOOKUP_TABLE default
3.95841e-09
3.95841e-09
3.95841e-09
3.95841e-09
3.95841e-09
3.95841e-09
3.95841e-09
3.95841e-09
3.95841e-09
3.95841e-09
3.95841e-09
3.95841e-09
3.95841e-09
3.95841e-09
3.95841e-09
3.95841e-09
3.95841e-09
3.95841e-09
3.95841e-09
3.95841e-09
3.95841e-09
3.95841e-09
3.95841e-09
3.95841e-09
3.95841e-09
3.95841e-09
3.95841e-09
3.95841e-09
3.95841e-09
3.95841e-09
3.95841e-09
3.95841e-09
3.95841e-09
3.95841e-09
3.95841e-09
3.95841e-09
3.95841e-09
3.95841e-09
3.95841e-09
3.95841e-09
3.95841e-09
3.95841e-09
3.95841e-09
3.95841e-09
3.95841e-09
3.95841e-09
3.95841e-09
3.95841e-09
3.95841e-09
3.95841e-09
3.95841e-09
3.95841e-09
3.95841e-09
3.95841e-09
3.95841e-09
3.95841e-09
3.95841e-09
3.95841e-09
3.95841e-09
3.95841e-09
3.95841e-09
3.95841e-09
3.95841e-09
3.95841e-09
3.95841e-09
3.95841e-09
3.95841e-09
3.95841e-09
3.95841e-09
3.95841e-09
3.95841e-09
3.95841e-09
3.95841e-09
3.95841e-09
3.95841e-09
3.95841e-09
3.95841e-09
3.95841e-09
3.95841e-09
3.95841e-09
3.95841e-09
3.95841e-09
3.95841e-09
3.95841e-09
3.95841e-09
3.95841e-09
3.95841e-09
3.95841e-09
3.95841e-09
3.95841e-09
3.95841e-09
3.95841e-09
3.95841e-09
3.95841e-09
3.95841e-09
3.95841e-09
3.95841e-09
3.95841e-09
3.95841e-09
3.95841e-09
3.95841e-09
3.95841e-09
3.95841e-09
3.95841e-09
3.95841e-09
3.95841e-09
3.95841e-09
3.95841e-09
3.95841e-09
3.95841e-09
3.95841e-09
3.95841e-09
3.95841e-09
3.95841e-09
3.95841e-09
3.95841e-09
3.95841e-09
3.95841e-09
3.95841e-09
3.95841e-09
3.95841e-09
3.95841e-09
3.95841e-09
3.95841e-09
3.95841e-09
3.95841e-09
3.95841e-09
3.95841e-09
3.95841e-09
3.95841e-09
3.95841e-09
3.95841e-09
3.95841e-09
3.95841e-09
3.95841e-09
3.95841e-09
3.95841e-09
3.95841e-09
3.95841e-09
3.95841e-09
3.95841e-09
3.95841e-09
3.95841e-09
3.95841e-09
3.95841e-09
3.95841e-09
3.95841e-09
3.95841e-09
3.95841e-09
3.95841e-09
3.95841e-09
3.95841e-09
3.95841e-09
3.95841e-09
3.95841e-09
3.95841e-09
3.95841e-09
3.95841e-09
3.95841e-09
3.95841e-09
3.95841e-09
3.95841e-09
3.95841e-09
3.95841e-09
3.95841e-09
3.95841e-09
3.95841e-09
3.95841e-09
3.95841e-09
3.95841e-09
3.95841e-09
3.95841e-09
3.95841e-09
3.95841e-09
3.95841e-09
3.95841e-09
3.95841e-09
3.95841e-09
3.95841e-09
3.95841e-09
3.95841e-09
3.95841e-09
3.95841e-09
3.95841e-09
3.95841e-09
3.95841e-09
3.95841e-09
3.95841e-09
3.95841e-09
3.95841e-09
3.95841e-09
3.95841e-09
3.95841e-09
3.95841e-09
3.95841e-09
3.95841e-09
3.95841e-09
3.95841e-09
3.95841e-09
3.95841e-09
3.95841e-09
3.95841e-09
3.95841e-09
3.95841e-09
3.95841e-09
3.95841e-09
3.95841e-09
3.95841e-09
3.95841e-09
3.95841e-09
3.95841e-09
3.95841e-09
3.95841e-09
3.95841e-09
3.95841e-09
3.95841e-09
3.95841e-09
3.95841e-09
3.95841e-09
3.95841e-09
3.95841e-09
3.95841e-09
3.95841e-09
3.95841e-09
3.95841e-09
3.95841e-09
3.95841e-09
3.95841e-09
3.95841e-09
3.95841e-09
3.95841e-09
3.95841e-09
3.95841e-09
3.95841e-09
3.95841e-09
3.95841e-09
3.95841e-09
3.95841e-09
3.95841e-09
3.95841e-09
3.95841e-09
3.95841e-09
3.95841e-09
3.95841e-09
3.95841e-09
3.95841e-09
3.95841e-09
3.95841e-09
3.95841e-09
3.95841e-09
3.95841e-09
3.95841e-09
3.95841e-09
3.95841e-09
3.95841e-09
3.95841e-09
3.95841e-09
3.95841e-09
3.95841e-09
3.95841e-09
3.95841e-09
3.95841e-09
3.95841e-09
3.95841e-09
3.95841e-09
3.95841e-09
3.95841e-09
3.95841e-09
3.95841e-09
3.95841e-09
3.95841e-09
3.95841e-09
3.95841e-09
3.95841e-09
3.95841e-09
3.95841e-09
3.95841e-09
3.95841e-09
3.95841e-09
3.95841e-09
3.95841e-09
3.95841e-09
3.95841e-09
3.95841e-09
3.95841e-09
3.95841e-09
3.95841e-09
3.95841e-09
3.95841e-09
3.95841e-09
3.95841e-09
3.95841e-09
3.95841e-09
3.95841e-09
3.95841e-09
3.95841e-09
3.95841e-09

VECTORS velocity float
0.00596238 0.000268006 -3.6588e-05
0.00554238 -0.000419179 0.000355571
0.00578117 -0.000171602 -3.14375e-05
0.00620104 0.00154266 -1.8824e-05
0.00597021 -0.000259695 3.20853e-05
0.00617269 0.000931357 -0.000256421
0.0061888 -3.38821e-05 0.000239757
0.00499216 -0.00050226 0.000468427
0.00589967 0.000771433 -0.000806871
0.00566462 -0.000431147 0.000383886
0.00469166 0.00162164 -0.000363364
0.0053407 6.92548e-05 0.000220429
0.00561163 -0.000235408 -3.2512e-05
0.00536266 -0.000175522 4.05496e-05
0.0054266 -0.000596395 0.000430591
0.00568883 -0.000247741 0.00029883
0.00555258 -0.000584706 0.000429658
0.00627722 0.000530014 -0.000791829
0.0062298 -0.000164943 -0.000144051
0.00592867 0.0007128 4.23976e-06
0.0054982 -0.000297593 4.7638e-05
0.00540499 -0.000291178 0.000583074
0.0056275 -0.000590714 0.000403905
0.00609944 0.000741415 -0.00067172
0.00565943 -0.000310156 0.000444209
0.00621285 0.000671159 -0.000817481
0.00615349 -0.00025694 -7.87891e-05
0.00643825 0.000622184 -0.000830339
0.00642336 0.000606251 -0.000824869
0.00548891 -0.000337591 0.00035289
0.00572395 0.000157712 0.000195421
0.00624706 0.0003711 0.000106522
0.00605343 -5.14548e-05 -0.00017846
0.00513786 0.00115002 -0.000181953
0.00603664 0.000750564 -0.000816877
0.00561115 -0.000507965 0.000424721
0.00565196 -0.00012929 0.000277738
0.00591228 0.000558707 -0.000760999
0.00579124 0.00154208 -0.000298898
0.00583309 0.000229637 -5.04715e-05
0.00535807 -0.000412929 0.000365043
0.00523382 -0.000696677 0.000472767
0.00569323 0.00131839 -0.000205476
0.00620875 0.000927675 -0.000248851
0.00624607 0.000925266 -0.000242815
0.00606335 -5.30315e-05 -0.000269808
0.00658826 0.000916697 -0.000106986
0.00572281 -0.000279141 -0.000319133
0.00563864 0.000776601 0.000132848
0.00468227 0.00167803 -0.000382375
0.0060933 -1.99714e-05 0.00025085
0.00611277 0.000925169 -0.00026058
0.00581555 0.00044399 -0.000868688
0.00586089 -2.39458e-05 0.000234503
0.00549263 -8.52614e-05 -0.000222547
0.00638031 0.000635714 -0.000826941
0.00542493 0.000595892 6.7055e-06
0.00606931 0.000523588 -0.000768045
0.00666234 0.000549475 -0.000827342
0.0058977 0.000198052 -5.26583e-05
0.00535793 -0.000378262 0.000349691
0.00610644 0.000411742 0.000202191
0.00612609 0.000914963 -0.000376203
0.00554706 -0.000363429 0.000369244
0.00602035 -2.24041e-05 0.000250604
0.00555993 0.000314958 0.000120285
0.00566414 -0.00019763 0.00033963
0.00563192 -0.000212088 0.000444435
0.00581615 0.000779366 -0.000800072
0.00582332 -0.000390911 0.000351009
0.00569536 0.000427293 9.03798e-05
0.00595668 0.000816899 -3.16169e-05
0.00579121 0.000774096 -0.000796105
0.00561302 -0.000425855 0.000373877
0.00530549 0.00139986 -0.000136109
0.00580697 -0.000482915 0.000375478
0.00482452 -0.000211034 -1.70259e-05
0.00606416 -5.91586e-05 0.00017023
0.0065845 4.36689e-05 -0.000269351
0.0060768 -1.8804e-05 0.000299293
0.00597933 -0.000220102 -0.000125748
0.00612124 0.000379231 -0.00074069
0.00567949 -8.55934e-05 -4.19575e-05
0.00522057 0.000696434 0.000137384
0.00489656 0.00136219 -0.000264118
0.0061467 -0.000219641 0.000618859
0.0058674 0.000297336 0.000258544
0.00564819 -0.000261442 -0.000222925
0.00527052 0.00166918 -0.000349834
0.00615929 0.000152643 0.00054984
0.00608576 -0.000269154 0.000358282
0.00589029 -2.56131e-05 9.85364e-05
0.00623098 0.000917124 -0.000236805
0.0060183 -3.65725e-05 0.000247053
0.00613724 -0.00013561 0.000388633
0.00605949 -6.96461e-05 0.000261666
0.00633244 0.000264858 -0.000703976
0.00586626 0.000615673 -0.000243393
0.00576242 0.000213428 0.000553198
0.00595579 -9.47331e-05 -8.17429e-05
0.00621152 -1.17971e-05 0.000241578
0.00556062 -9.90791e-05 0.000255935
0.00579335 -3.38811e-05 -7.75979e-05
0.00589161 -0.000123892 0.00026956
0.00566267 0.000820573 -0.000342384
0.00558502 -0.000162135 -7.13388e-06
0.00578092 -0.000240127 0.000303983
0.00640549 -0.00026824 -4.61793e-05
0.00563983 1.09014e-06 8.5792e-05
0.00570223 -3.14737e-05 -0.00013684
0.00607793 -5.33952e-05 0.000257071
0.00581307 -0.000226449 -3.11279e-05
0.00684765 0.00161928 -0.000287825
0.00561803 0.000237716 -0.000149198
0.00589331 7.05988e-05 -0.000123767
0.00634218 0.000640607 -0.00111925
0.0058865 0.000451518 -0.000985449
0.00577013 0.000259088 -0.00022995
0.00628152 0.000446744 5.6112e-05
0.00536361 3.21522e-05 0.000213949
0.00622082 0.00145224 0.000149585
0.00579227 -0.000984623 0.000525897
0.0060703 -0.000138458 -0.0001027
0.00586088 0.000756965 -0.000323496
0.0061847 -0.000435107 0.000374076
0.00595048 -0.000136695 0.000244412
0.00538138 0.00041937 7.70764e-05
0.00600809 -4.98475e-05 0.000298276
0.00582313 -0.00037513 0.000377143
0.00719955 -0.00107626 0.000280197
0.00559701 -0.000356745 0.00035001
0.00571306 0.000630978 -0.000293482
0.00563035 -2.15334e-05 0.00025522
0.00622182 0.000239894 0.000406807
0.00546809 0.000728532 4.63326e-05
0.00619559 -1.0076e-05 0.00022908
0.00541252 0.00159068 -0.000324259
0.00593633 -2.8282e-05 0.000268492
0.00608853 1.55295e-05 -0.000132864
0.00613966 1.62276e-05 0.000236286
0.00610247 -5.73044e-06 0.00023584
0.00621037 0.000748113 -0.000215095
0.00581317 -7.47622e-05 0.000289528
0.00569783 -0.000209412 -7.12288e-05
0.00565866 -1.47655e-05 -0.00013446
0.00589167 -2.70136e-06 0.00022315
0.00557631 -0.000333224 0.000321332
0.00602908 -9.03549e-05 0.000250335
0.00554234 0.000144743 -0.000174452
0.00596461 -0.000193826 0.000119688
0.00604327 -0.000549239 -0.000476059
0.00610322 -9.95048e-05 7.23073e-05
0.00564344 -8.81955e-05 -0.000190204
0.00604768 -9.69607e-05 -1.48649e-05
0.00596208 3.19112e-05 0.000182516
0.00589867 -0.00024154 2.81492e-05
0.0056792 -7.46065e-05 -0.000168054
0.00601364 -4.7293e-05 0.000287965
0.00618058 -2.87993e-05 0.000264675
0.00582599 -0.000101268 8.5994e-05
0.00562538 -0.000203036 -5.31791e-05
0.00739095 0.000347383 -0.000895265
0.00535281 -0.000119212 6.01592e-05
0.00573528 -6.98477e-05 -0.000139886
0.00557244 0.000206058 0.000202765
0.00588946 -0.000276365 2.16226e-05
0.00566337 -0.000364761 0.00042192
0.00587655 -0.000148638 -0.000194975
0.00600402 2.44386e-05 0.000180735
0.0058452 -0.000319565 -1.03233e-05
0.00573001 -1.79026e-05 -0.000144161
0.00581842 -5.02994e-05 -0.000133672
0.00566491 -1.10277e-05 9.15786e-05
0.00558815 4.76039e-05 -0.00011051
0.00587699 -0.000270026 -0.00017726
0.00625079 0.000662781 -0.00120655
0.00568647 -5.93496e-05 -0.000141032
0.00716296 -0.000850623 0.000537193
0.0059086 -3.14799e-05 3.34646e-05
0.00616026 -7.59681e-05 0.000150328
0.00645434 -4.97768e-05 0.00109927
0.0066461 0.000850377 -0.00154793
0.00566294 -7.06159e-05 0.0001679
0.00518537 -5.7372e-05 -4.20127e-05
0.00612579 1.98081e-05 0.000280762
0.00601832 -0.000310543 0.000538041
0.0060167 -1.81845e-05 0.000222245
0.00575162 0.000198872 0.00062336
0.00577728 0.000307031 0.000625011
0.00576022 0.000937205 -0.000116705
0.00579789 5.81713e-06 2.38224e-05
0.00587368 -0.000261456 4.10254e-05
0.00575933 -4.87127e-05 -7.11308e-05
0.00557993 3.99938e-06 0.000102716
0.00579133 -0.000254794 3.71723e-05
0.00636428 0.000319117 -0.000128425
0.00641021 0.000151731 0.000161261
0.00614387 0.000394039 -0.000144909
0.00566988 -0.000173986 -1.53296e-05
0.00604278 2.23333e-05 0.000193145
0.00572543 -8.82488e-05 -0.000126412
0.0057216 -4.93214e-05 -5.45965e-05
0.00610894 7.76679e-05 7.53157e-05
0.00555182 -2.59187e-05 -7.21572e-05
0.00575699 -0.000370449 6.20035e-05
0.00758191 0.000254931 -0.000759143
0.00553948 6.14945e-05 -0.000121748
0.00618031 8.96049e-06 0.000322884
0.00591872 -0.000290859 5.94657e-05
0.00533329 0.00108635 -0.00114915
0.00521608 -0.000432299 0.000340359
0.00571606 -4.43156e-05 -8.57925e-05
0.0061056 -0.000216907 2.52751e-05
0.00552756 -0.000256934 2.48745e-05
0.00591898 -0.000154176 -2.13608e-05
0.00582109 -0.000230147 -4.26174e-05
0.00577471 0.000314963 -0.000174566
0.0057172 -7.31717e-05 -0.000113673
0.00576864 -0.000142325 0.000434094
0.005942 -2.16255e-05 0.00023372
0.00571128 8.83229e-06 -9.41715e-05
0.00589212 -0.00027519 -4.36141e-05
0.00568569 -0.000215129 -0.000183351
0.0059758 8.45642e-06 0.000208808
0.00574618 0.00121975 -0.00136856
0.0055064 8.5317e-05 -9.28413e-05
0.00576918 1.20207e-05 7.50365e-05
0.00542189 6.4258e-05 5.55055e-05
0.00589293 0.00045521 -0.000253162
0.00590085 -7.38588e-05 -0.00023378
0.00554055 -0.000179661 6.15143e-05
0.00545083 8.74782e-05 5.49098e-05
0.00607779 -0.000177367 -5.54294e-05
0.00605998 -0.000201027 -9.16216e-05
0.00581318 -0.000118118 -0.000215002
0.00588501 -0.000140344 -4.40289e-05
0.00563404 0.000145498 1.98224e-05
0.00618276 0.00010096 9.70269e-05
0.00603438 7.8241e-05 -0.000403367
0.00595072 2.85684e-06 0.000205929
0.00636575 6.93594e-05 0.000257879
0.00545445 -0.000111178 4.53659e-05
0.00562245 -6.79946e-05 -4.92484e-05
0.00559289 -0.000381119 1.57163e-05
0.00597807 -0.000158909 -0.000213142
0.00557978 2.15315e-05 7.68851e-05
0.00571254 6.30058e-06 8.85297e-05
0.00562139 2.90715e-05 6.24663e-05
0.00652935 0.000893946 -0.0015615
0.00417364 0.000978896 0.000336585
0.00563317 -0.000137514 7.36538e-05
0.00554548 -0.000331402 -0.000146015
0.00559074 -7.14505e-05 5.55089e-05
0.00619473 7.26862e-05 0.000117563
0.00568913 -0.000406139 9.16058e-05
0.00563964 -0.000137247 8.53211e-05
0.00574825 -0.000408014 -0.000132714
0.00566579 -0.000245995 3.58702e-05
0.00582407 -0.000126645 -6.50444e-06
0.00578126 -0.000265626 4.3176e-05
0.00608945 -0.000199003 1.27753e-05
0.00559442 -0.000385256 7.37192e-05
0.00559169 -8.24374e-05 7.61286e-05
0.00541772 -0.000385812 -0.000133643
0.00556385 -0.000428947 -1.15224e-05
0.00609489 0.00109912 -0.000713132
0.00568425 -0.000134942 -0.000136779
0.00542618 0.000127842 4.89016e-05
0.00591873 2.36551e-05 0.000171099
0.00544426 -0.000118681 9.76054e-05
0.00601511 -0.00012036 -0.00022713
0.00552314 -1.49059e-05 0.000107274
0.00615858 -0.000140286 -0.000224768
0.0058195 -6.41004e-05 6.55204e-05
0.00590019 9.08793e-07 0.000197991
0.00562756 -0.000287205 6.31925e-05
0.00544705 5.74871e-05 -0.000232427
0.00610862 -6.65781e-05 -0.000126267
0.00559633 1.62546e-05 -0.000104112
0.00552239 -7.51224e-05 7.72951e-05
0.00598545 9.3228e-05 0.00018331
0.00570502 -7.70415e-05 6.89896e-05
0.00536623 -0.000116009 3.17198e-05
0.00550391 -0.000263064 1.89281e-05
0.00620654 0.000125382 0.00016218
0.0057036 0.00010065 4.66171e-05
0.000506677 0.00115771 0.000312532
0.00666038 0.00329373 -0.000961912
0.00579905 -0.000167117 5.25168e-05
0.00580365 1.98385e-05 7.24217e-05
0.0053631 -0.00050359 -8.73456e-05
0.00669493 0.00326345 -0.0012953
0.00609402 -1.20542e-05 0.000241911
0.00579601 -2.90207e-05 0.000168191
0.00573328 -7.13693e-05 7.33789e-05
0.00584432 -0.000218159 -2.9264e-05
0.0054446 9.71494e-05 3.73307e-05

VECTORS force float
1.56571e-08 7.94746e-09 -7.30857e-10
1.10014e-08 1.70486e-08 -4.2053e-09
1.66489e-09 -3.39038e-10 -1.256e-09
-8.23709e-11 1.55181e-09 -1.1449e-09
-1.73867e-08 -5.50955e-09 -5.76188e-09
1.49351e-10 -3.97506e-10 4.86446e-10
-1.13639e-09 -1.34133e-10 -4.68145e-09
-3.7766e-08 -7.76795e-09 2.09512e-08
-1.34264e-11 1.48102e-09 -3.35382e-10
-8.80761e-09 -9.15151e-10 7.09012e-10
-1.82936e-08 5.69013e-09 -2.59588e-09
7.32064e-10 3.65974e-09 -8.5493e-11
-1.69075e-09 6.65868e-09 -6.26459e-09
2.41305e-09 -6.366e-10 5.48547e-10
6.38893e-09 9.45931e-09 -2.07033e-09
2.47485e-10 -1.97787e-09 -3.96858e-09
-2.08991e-11 -8.36139e-11 3.58811e-11
8.39487e-10 1.38989e-09 -4.08581e-10
-9.52868e-09 5.83315e-10 -2.55547e-08
1.86377e-08 -3.56651e-09 3.18328e-09
-3.41787e-09 -1.01409e-08 4.3925e-09
-1.80236e-08 -1.23542e-08 1.30189e-08
4.4874e-09 -1.99084e-09 3.92624e-09
3.45119e-10 -9.94406e-11 -1.25928e-09
1.05582e-08 -1.87702e-08 9.15649e-09
7.08902e-10 7.01497e-10 -1.7674e-10
-3.72657e-08 2.55002e-08 -2.58214e-08
4.84774e-10 7.32353e-10 -1.81335e-10
1.81977e-10 4.35884e-10 -1.67173e-10
2.02527e-08 7.70632e-09 -3.08041e-09
2.10969e-08 -4.68373e-09 -2.39015e-09
1.37128e-08 -2.21806e-08 -4.96112e-09
1.09983e-08 6.6703e-09 -1.25607e-08
-7.82008e-09 3.43692e-09 -1.86169e-09
5.48262e-10 2.0274e-09 -5.55388e-10
1.24096e-09 4.21071e-09 -1.74822e-09
2.03151e-09 3.16247e-09 3.60131e-09
1.71037e-10 -7.59085e-11 3.30288e-11
-1.59135e-08 8.32273e-09 -4.88245e-09
-2.09589e-09 4.06213e-09 -7.61241e-09
2.46815e-08 -1.12122e-08 5.75904e-09
-1.492e-09 3.04779e-09 -1.67985e-09
-1.99049e-08 7.44292e-09 -1.35061e-09
-2.88233e-10 -5.6396e-10 5.96024e-10
1.921e-10 -1.90837e-10 7.7592e-10
4.76761e-09 4.75e-09 -2.32331e-09
1.19833e-08 -3.01386e-08 6.75845e-09
4.23306e-10 4.81481e-09 -9.91818e-09
-2.63405e-08 -2.71785e-08 7.33864e-09
-1.83595e-08 4.71129e-09 -2.30214e-09
-7.95312e-10 2.19342e-09 -2.09474e-09
-1.9811e-09 -7.4607e-10 9.3441e-10
-1.72169e-08 -6.95587e-09 1.1939e-08
2.38911e-09 3.63825e-09 -3.13613e-09
1.3172e-08 -3.44486e-09 2.93524e-09
1.78323e-10 9.34256e-10 -1.8417e-10
2.31398e-09 1.00365e-08 6.66345e-09
-9.1294e-10 -3.69218e-10 2.67274e-10
3.14732e-08 -1.63749e-08 3.49122e-08
9.25299e-09 2.40451e-09 -5.5875e-09
1.40512e-08 -2.66621e-08 1.00547e-08
3.91241e-10 -1.30008e-08 -2.12417e-08
-1.02007e-09 2.43357e-10 1.03093e-09
1.30256e-08 3.29556e-09 -4.43048e-09
3.29635e-10 2.1738e-09 -1.91127e-09
2.84558e-08 -2.6782e-08 1.0483e-08
1.66426e-08 -4.97508e-09 -3.74385e-09
2.44413e-08 -1.21543e-08 1.37441e-09
-2.80089e-10 1.28069e-09 -2.78211e-10
-3.91634e-10 -2.90783e-10 -4.61411e-09
-9.40011e-09 4.92753e-09 6.37829e-10
2.38584e-08 -1.89679e-09 -9.29326e-10
-4.96698e-09 1.94346e-09 1.09445e-11
-6.91666e-10 4.99229e-09 -2.61218e-09
4.15311e-08 -1.82332e-08 1.68067e-08
0.0 0.0 -3.8832e-08
-2.71565e-09 2.60323e-08 9.53085e-09
1.24027e-09 2.83483e-09 3.77814e-09
2.34286e-08 -1.83591e-08 3.77161e-09
2.74392e-09 3.49948e-09 1.73645e-09
-3.46384e-09 4.77797e-09 -1.12156e-08
-1.0792e-09 -3.77381e-10 2.57529e-10
7.24031e-09 -2.52471e-09 -1.31868e-09
9.54183e-08 1.3848e-08 -7.22034e-11
9.45413e-09 1.30338e-09 3.53877e-10
-6.32506e-08 -1.09007e-08 1.10542e-09
1.2514e-08 -8.40111e-09 -5.62497e-09
2.83214e-09 5.77347e-10 -1.21845e-08
2.01825e-08 1.53211e-08 -4.07771e-09
6.17469e-09 2.97064e-08 -1.33482e-09
-8.01843e-08 3.35537e-08 4.17393e-10
-2.7414e-10 1.98469e-08 -1.41624e-09
-5.9858e-10 -7.19148e-10 8.02771e-10
-9.80334e-10 2.06688e-10 -3.5743e-09
2.40372e-09 2.21412e-08 -1.69066e-09
-1.8145e-09 1.38413e-09 9.19985e-10
-2.28787e-08 -1.53959e-08 4.0843e-08
7.53497e-10 -1.48144e-08 1.74936e-08
-4.45322e-10 1.61583e-09 -4.07787e-10
-6.97247e-09 -1.5133e-09 -2.56088e-09
-1.01045e-09 2.57593e-09 -7.42725e-09
9.31353e-10 2.17228e-10 -2.27932e-09
-6.91753e-09 1.84629e-09 -1.36704e-09
3.93841e-09 9.33343e-09 2.93693e-09
-1.1596e-09 -7.8818e-10 -2.64671e-08
4.2917e-09 -8.10457e-09 5.15441e-09
-2.1509e-09 2.0621e-08 -8.85823e-09
-3.25372e-08 3.38793e-08 -7.99079e-09
3.97782e-09 -4.81261e-09 -2.36021e-09
5.67433e-09 -4.86662e-10 8.93077e-10
-1.57167e-09 3.96343e-09 2.1958e-09
-7.66788e-10 -1.40046e-09 -1.15163e-08
6.91992e-09 -2.36702e-08 7.80756e-09
-6.8246e-09 -3.85683e-08 1.47281e-08
-4.62236e-09 5.70341e-09 -2.89434e-09
1.68895e-08 -9.2252e-09 1.18118e-08
-3.3746e-08 -1.12583e-08 1.10232e-08
-2.02881e-08 2.36294e-08 -3.65933e-08
-1.32301e-08 -6.05165e-09 2.41099e-09
2.83197e-10 3.25783e-09 -1.20695e-09
8.7174e-09 -5.66485e-09 -5.36408e-09
-4.77839e-08 -9.77297e-09 2.69098e-08
-7.90384e-09 -8.79567e-11 -6.50875e-09
-9.04383e-10 -5.26588e-11 -3.30784e-08
-7.89833e-09 1.69797e-08 -2.23316e-08
4.07177e-09 9.63253e-09 3.02664e-09
-1.96524e-08 1.06384e-08 -4.29424e-09
-3.31592e-11 3.48399e-09 -8.78731e-11
-2.73847e-09 6.1288e-09 -2.87651e-09
-3.06441e-08 -8.03549e-09 2.0218e-08
-1.04574e-08 -3.94742e-09 1.33499e-09
8.54407e-09 -5.95749e-10 -3.19099e-08
-4.23136e-09 6.08083e-10 -9.33533e-10
-1.22332e-08 -6.64161e-09 -2.79284e-08
-6.57542e-08 -5.94407e-09 1.79814e-08
-1.08561e-08 3.12342e-09 -7.45007e-09
-1.90133e-08 6.96336e-09 -3.87532e-09
1.043e-09 1.49014e-09 -4.27713e-09
-3.89397e-09 1.02531e-08 -5.72037e-09
1.19714e-09 2.61676e-09 -2.69021e-09
-6.49849e-09 -9.84491e-10 -9.8626e-10
1.30258e-08 -2.00249e-09 -8.61749e-09
-1.38017e-09 2.68002e-09 9.66378e-10
-1.10659e-08 -1.2326e-09 -8.50729e-10
6.85071e-09 -3.89421e-09 1.11526e-09
1.76335e-09 7.91608e-10 6.44189e-10
8.55379e-09 1.23685e-08 -7.95446e-09
-7.18802e-10 6.8267e-09 2.31508e-09
-8.96799e-09 2.59702e-08 -6.89607e-09
-6.13708e-09 5.06608e-09 -5.87269e-09
-2.13413e-08 5.5018e-08 1.22193e-08
-2.74617e-09 6.39313e-09 4.03528e-10
-7.31711e-09 -1.63533e-09 6.6016e-10
-2.77432e-09 6.97744e-11 1.25226e-09
1.97608e-09 1.65332e-09 -1.08243e-09
4.13424e-09 2.32195e-09 -4.61297e-10
2.25181e-10 -1.4352e-09 2.43286e-09
-1.7789e-09 -1.33835e-09 -5.79477e-09
7.35997e-09 -1.52705e-08 -3.46346e-09
-5.17476e-08 -1.14666e-07 -1.53096e-08
-5.96447e-09 -6.82722e-09 3.54513e-09
-3.45354e-09 -7.11784e-09 9.7927e-09
-1.61664e-09 -1.33854e-09 -2.10305e-09
-3.57811e-09 2.95592e-09 -1.38789e-09
1.18213e-08 4.63462e-09 -1.55707e-09
3.71577e-09 -2.6976e-09 1.87739e-09
-5.35719e-09 5.42361e-09 9.77444e-10
-9.13721e-09 -2.79127e-09 -4.17828e-09
1.56657e-09 -4.64198e-10 4.2507e-10
4.46153e-10 6.38482e-10 -3.65091e-12
1.08683e-09 -7.21701e-09 3.74128e-09
-5.53326e-09 -7.51045e-09 4.40255e-09
7.36421e-09 -2.08917e-09 -1.21997e-09
7.69611e-09 -2.65894e-09 1.42637e-10
5.37998e-09 1.23263e-09 -7.08767e-10
-2.70925e-08 -5.69482e-09 -8.8538e-09
4.3619e-09 -2.31186e-10 -1.64787e-10
-2.145e-09 -1.72483e-08 4.02171e-08
-5.10387e-09 9.37906e-10 -1.04458e-09
-6.85638e-09 5.64954e-09 -1.07696e-09
-6.14227e-10 1.28565e-08 -6.53135e-10
8.22356e-09 -1.46279e-08 1.55872e-08
-2.33054e-09 2.72546e-09 -2.76821e-09
1.65897e-07 1.25925e-07 2.19388e-08
-1.5127e-08 -6.13015e-10 4.86817e-09
-3.58601e-09 7.26244e-09 5.7123e-09
-6.96152e-09 -2.62187e-09 3.37691e-09
-1.10919e-09 -1.97854e-09 4.54557e-09
-4.14585e-11 6.55348e-10 2.77643e-09
9.20721e-09 -3.51698e-10 -3.13565e-08
9.16955e-10 -2.14338e-09 -5.95682e-10
6.6915e-09 -4.08207e-09 1.56048e-09
-9.20324e-09 -2.65503e-09 3.21528e-10
1.7165e-09 -5.22561e-09 -4.73308e-10
-2.23865e-09 -1.2379e-09 1.22237e-09
-1.33085e-08 -1.06503e-08 -7.18523e-09
-8.75766e-09 7.85652e-09 -1.22318e-08
-1.45622e-08 -3.47004e-08 2.1765e-08
-2.03221e-09 3.85166e-09 -3.95567e-09
-2.02075e-11 1.75902e-09 -5.89015e-10
-7.45481e-09 3.55904e-09 4.76363e-10
-1.02244e-11 -3.31931e-09 -2.35306e-09
4.59017e-09 -1.61415e-08 -2.04583e-08
4.74929e-09 -2.42353e-09 1.13897e-09
2.20558e-09 2.23987e-09 -1.57644e-10
-1.49399e-08 1.60102e-08 -1.99305e-08
9.79044e-09 -6.56915e-09 -5.58046e-10
-1.63679e-08 -1.73421e-10 -1.15579e-09
1.49055e-09 -4.01743e-09 -3.65821e-10
-2.7434e-08 1.35846e-08 -1.93004e-08
1.67357e-09 1.68468e-08 -1.68405e-08
-1.32734e-08 -1.74753e-09 3.20491e-10
4.13277e-09 -7.01686e-10 -4.05303e-09
-1.21238e-09 4.62278e-09 7.04974e-09
1.41999e-09 -1.41608e-08 -1.01257e-08
-1.59518e-09 8.21542e-10 -5.51593e-09
3.19308e-08 -6.74255e-09 -6.73589e-10
-9.43837e-09 6.46747e-09 1.05454e-08
-8.40596e-10 -1.16609e-10 -3.57149e-09
-8.28615e-10 1.18405e-09 -8.77235e-10
1.27341e-09 6.44084e-10 6.96369e-10
-2.0749e-09 -4.92479e-10 -1.23687e-09
-1.27207e-10 -2.31912e-09 1.35071e-09
1.67447e-09 1.53954e-10 -1.10926e-09
-2.6102e-09 7.38433e-09 -1.77957e-08
2.93075e-09 -7.24179e-09 -1.72058e-09
1.52652e-09 -7.57402e-09 -3.60547e-09
1.41982e-08 -1.00623e-08 1.45398e-09
-6.01292e-10 8.6824e-09 -2.81839e-08
-5.03526e-10 -8.5332e-10 -8.39802e-10
5.47962e-09 -1.13163e-08 -9.66324e-09
2.69099e-09 -1.60044e-08 3.25389e-09
-1.2584e-09 -8.51933e-09 2.96235e-10
1.31375e-09 5.53842e-10 -8.73928e-10
-1.18911e-09 -3.65016e-09 9.22898e-10
1.70014e-08 -3.71678e-09 -1.11961e-09
1.68951e-08 -1.05627e-08 8.08213e-09
-2.32557e-09 4.21309e-09 -5.13183e-09
2.00085e-09 -2.79926e-10 5.42603e-09
2.9149e-09 9.89013e-10 -2.6589e-10
-1.15845e-08 -2.96249e-09 2.73094e-09
2.27588e-11 1.47823e-11 -4.26391e-12
2.19704e-08 -5.01692e-09 -6.73018e-11
1.54078e-09 -2.28138e-09 7.48474e-10
3.59897e-09 4.5854e-10 7.80647e-11
5.07181e-09 -4.28336e-09 -1.20066e-09
5.85523e-09 -3.39964e-09 -1.287e-09
4.99735e-10 -3.07154e-09 1.57942e-09
1.11517e-08 -1.19354e-08 1.52459e-08
-1.02895e-09 -3.41828e-09 -3.99037e-10
8.70496e-09 7.20145e-09 9.05447e-10
2.23326e-09 7.9135e-10 -6.9937e-10
9.0571e-09 6.50057e-09 5.7207e-10
-1.18616e-09 8.73098e-10 -1.19944e-08
-2.58252e-09 -7.72658e-09 2.5906e-09
-2.57021e-09 -1.82494e-09 -1.43476e-09
1.04716e-09 -2.76827e-09 7.91422e-10
1.31658e-09 -5.79319e-09 -1.3807e-09
1.70021e-09 -3.65899e-10 1.41958e-09
1.75051e-09 -3.30817e-09 -6.62817e-10
-5.06368e-09 -3.02909e-09 -3.4584e-09
-2.20694e-10 -4.23156e-09 4.82501e-09
2.77544e-09 -7.6617e-09 3.84994e-09
1.79013e-08 -1.38579e-08 -2.23284e-09
-9.03121e-12 -1.40423e-09 2.15509e-10
-9.49288e-09 4.79506e-09 -1.55394e-09
6.7303e-09 2.72861e-09 -1.96649e-09
5.40674e-09 -1.00239e-08 1.9747e-09
6.06468e-10 2.13343e-09 2.09834e-09
4.07968e-09 7.39412e-09 -1.56942e-09
2.92846e-09 1.69423e-09 1.256e-10
1.66418e-09 -6.07627e-09 2.36415e-09
-1.19104e-09 -1.30377e-09 2.56876e-10
1.29781e-10 -4.26516e-09 -1.6593e-09
-7.40906e-10 1.02464e-09 -1.55022e-09
3.09197e-09 -2.43956e-09 3.20595e-09
6.81436e-09 -6.88116e-09 5.27454e-09
-1.63408e-09 5.77125e-09 -1.10681e-08
1.38958e-09 -7.05953e-11 8.33142e-10
-8.10483e-10 -5.916e-09 2.91892e-09
-1.35203e-08 -1.35454e-09 3.57071e-10
3.47023e-10 -1.19993e-08 -3.62031e-09
-1.32927e-09 -9.31933e-10 3.52775e-09
4.44934e-10 -3.5772e-09 -5.16077e-10
-6.24834e-09 2.40933e-09 -1.28448e-08
1.094e-10 -5.52809e-09 1.25172e-09
-1.23665e-09 -2.11672e-09 -4.30477e-10
0.0 0.0 -3.8832e-08
-1.67852e-10 -7.76736e-09 -1.38704e-09
2.51284e-09 -2.45899e-11 4.87503e-10
-1.60954e-09 -3.3282e-09 1.02662e-09
1.8575e-09 -1.24811e-08 1.33335e-08
-3.79292e-09 -3.06333e-09 5.95882e-09
7.46775e-10 -4.10468e-09 1.47304e-09
4.65868e-09 2.45024e-09 5.12533e-10
1.92641e-08 -4.73929e-10 2.39051e-09
1.69182e-08 -6.51778e-09 8.83135e-10
