# vtk DataFile Version 3.0
LIGGGHTS particles timestep 7200000
ASCII
DATASET POLYDATA
POINTS 297 float
0.0541586 0.0150331 0.0106592
0.057665 0.0173452 0.00730591
0.0491144 0.0157361 0.00885574
0.0555545 0.0188297 0.00727419
0.0553864 0.0154989 0.0094485
0.0607417 0.0161907 0.00833359
0.0492739 0.0162198 0.00837596
0.0555822 0.0177154 0.0075014
0.0613731 0.0187271 0.00729672
0.0573317 0.0176633 0.00758163
0.0560583 0.0178694 0.00729317
0.0478589 0.0149271 0.0118908
0.053985 0.0146603 0.0112476
0.0508514 0.0169239 0.00756417
0.055059 0.0156538 0.00924171
0.0502087 0.0158049 0.0086968
0.0543063 0.015146 0.00989574
0.0613361 0.0173588 0.00727707
0.0575122 0.0170118 0.00756731
0.0563526 0.0178177 0.0073189
0.054096 0.0150867 0.0127642
0.0549293 0.0154248 0.00956851
0.0545413 0.0149654 0.0101392
0.0609863 0.0170517 0.00753456
0.0569637 0.0169552 0.0076154
0.0610464 0.0172687 0.00733631
0.055406 0.0175217 0.00725275
0.061171 0.0178503 0.00728636
0.0613958 0.0176527 0.00726729
0.0541813 0.0148656 0.0104113
0.0551528 0.0169929 0.00774541
0.0562094 0.0170862 0.00748553
0.049224 0.0173525 0.00761505
0.0557355 0.0173056 0.00732595
0.0614425 0.019019 0.00729891
0.0547766 0.0155598 0.00934806
0.0571431 0.0185906 0.00729424
0.0612184 0.016891 0.00763623
0.0553422 0.0185992 0.00724794
0.0574974 0.017613 0.00730247
0.0548164 0.0164535 0.0080871
0.0545038 0.0154622 0.00942634
0.0554695 0.0191305 0.00727498
0.0608052 0.0164032 0.00813155
0.060863 0.0166169 0.00792906
0.0573608 0.0173233 0.00733396
0.0564028 0.0172418 0.00731708
0.0489455 0.0154918 0.00912595
0.0553297 0.017913 0.00748485
0.0561521 0.0181767 0.00731068
0.048702 0.016052 0.00848374
0.0611564 0.0166767 0.00783984
0.0571518 0.0171214 0.00745112
0.0507869 0.016662 0.00769526
0.0500757 0.0182194 0.00710273
0.0611105 0.0175565 0.00728144
0.0552578 0.0182483 0.00723049
0.0612797 0.01712 0.00745233
0.0565523 0.0170769 0.00751817
0.055196 0.0150698 0.00995864
0.0558881 0.0173553 0.00758237
0.0558607 0.0188517 0.00730314
0.0609248 0.0168322 0.00772954
0.055636 0.0180586 0.00752091
0.04933 0.0160176 0.00859051
0.0556298 0.0170386 0.00744386
0.0569877 0.0167527 0.00783553
0.0559191 0.017019 0.00752052
0.0613025 0.0184355 0.00729448
0.0481689 0.014904 0.010465
0.0563425 0.0185905 0.00731297
0.0560405 0.0172755 0.0073223
0.0612313 0.0181441 0.00729221
0.0542433 0.0150061 0.0101535
0.0555432 0.0181589 0.00725387
0.0545829 0.0158129 0.0089404
0.0550677 0.0173675 0.00733566
0.0496857 0.0157401 0.00884984
0.0571337 0.0161512 0.00851305
0.0511977 0.0173054 0.00744107
0.0490239 0.0159302 0.00864568
0.0616299 0.0174111 0.00724597
0.0485474 0.015656 0.00901477
0.0556052 0.0184562 0.00726815
0.0565766 0.0183744 0.00730959
0.0554262 0.0172454 0.00736781
0.0558988 0.0179155 0.00754303
0.04882 0.0164687 0.00806845
0.055995 0.0175688 0.00727867
0.0545217 0.015642 0.00918313
0.055853 0.0182527 0.00728521
0.0541177 0.0147201 0.0106659
0.0610949 0.0164638 0.00804205
0.0500792 0.0161698 0.00833103
0.0550239 0.016349 0.00827886
0.0507349 0.0164634 0.00791406
0.0572512 0.0168883 0.00768746
0.0537521 0.0150412 0.0123328
0.0435764 0.0197611 0.00703743
0.0488266 0.0156565 0.00890498
0.0496308 0.01648 0.00808041
0.0477681 0.0150009 0.0122675
0.0499511 0.0176355 0.00721194
0.0479984 0.0148875 0.0113056
0.0536819 0.0151051 0.0126181
0.0507209 0.0185545 0.00701371
0.0548108 0.0157294 0.00910267
0.0554688 0.0178167 0.00723715
0.0494949 0.0193544 0.00707591
0.0504446 0.0197106 0.00718612
0.0483863 0.0149746 0.00992046
0.0491063 0.0165521 0.00801494
0.0562897 0.0175194 0.0073045
0.0538112 0.0148857 0.0120819
0.049402 0.0166291 0.00795632
0.0567758 0.0172031 0.00736278
0.0572899 0.0178355 0.00730684
0.0545404 0.0147644 0.0104106
0.0551348 0.0176443 0.00721566
0.0482826 0.0152069 0.0100802
0.0551955 0.017939 0.00721539
0.0570012 0.0179417 0.00730386
0.0497638 0.0168779 0.00763144
0.0536968 0.0147964 0.0125915
0.0557568 0.017897 0.00726609
0.0481311 0.0150248 0.0107373
0.0556972 0.0175937 0.00725187
0.0503728 0.0162199 0.00823054
0.0552863 0.0170035 0.00747699
0.0568078 0.0181735 0.00730613
0.055497 0.0168642 0.00764864
0.0538688 0.0147252 0.0118334
0.0511473 0.0170244 0.00754846
0.0552957 0.0167231 0.00782217
0.0558964 0.0185539 0.00729788
0.0496996 0.0166814 0.00785265
0.0562382 0.0188757 0.00731265
0.05147 0.0174286 0.00741438
0.0493325 0.0164282 0.00816819
0.049562 0.0162822 0.00829537
0.0501088 0.0171753 0.00740376
0.054018 0.0149537 0.0112318
0.0480674 0.0149412 0.0110186
0.0502385 0.0177403 0.00724183
0.0502223 0.0195247 0.00710871
0.0489874 0.0161356 0.00843011
0.0542926 0.0148336 0.0110071
0.0482379 0.0149033 0.0101721
0.0561764 0.0174515 0.00757433
0.050392 0.0172745 0.00740402
0.042662 0.015877 0.00850749
0.0484445 0.0150703 0.00964164
0.0500178 0.0179342 0.00718095
0.0495246 0.0155751 0.00905074
0.0497852 0.0161276 0.00842314
0.0491751 0.0167596 0.00780919
0.0495577 0.0196461 0.00710633
0.0509178 0.0187757 0.00696545
0.0561715 0.0177702 0.00755328
0.0549367 0.0168306 0.00757673
0.0510089 0.0180517 0.00712943
0.0570283 0.0173571 0.00731265
0.0479286 0.0149094 0.0115971
0.0509068 0.0183213 0.00704653
0.0546091 0.0151407 0.00990512
0.0492473 0.0169754 0.00759527
0.0564986 0.0180831 0.00732282
0.0500537 0.0169561 0.00760111
0.0504447 0.016414 0.00801327
0.0484824 0.0153905 0.00913956
0.0501301 0.0197969 0.00719475
0.0503933 0.019045 0.0069576
0.049433 0.0190714 0.00699791
0.0505891 0.0181944 0.0070836
0.0437998 0.0182619 0.00722733
0.0571893 0.0182662 0.00729631
0.0498499 0.0197024 0.00714449
0.0566513 0.0177667 0.00731374
0.0498871 0.0173563 0.00731381
0.049046 0.0163439 0.00822235
0.056488 0.0176935 0.00755606
0.0565951 0.0174721 0.00731791
0.051269 0.0179207 0.00720266
0.055002 0.0170962 0.00745322
0.0499884 0.0167307 0.00778795
0.0553361 0.0173566 0.00763143
0.0498541 0.0163259 0.00820875
0.0434536 0.0191826 0.0069363
0.0435123 0.0194724 0.00698701
0.055014 0.0152467 0.00979563
0.0434433 0.0178869 0.00732069
0.0495941 0.0172603 0.00732794
0.0498174 0.0170811 0.00741733
0.0496927 0.0189212 0.00699591
0.0495351 0.0170315 0.00751271
0.055287 0.0148757 0.0101685
0.0506176 0.0170913 0.00747864
0.0426009 0.015702 0.00874338
0.0494647 0.0168367 0.00774886
0.0501426 0.0163694 0.00810926
0.0510106 0.0177729 0.00724022
0.0487141 0.0158438 0.00869938
0.0556385 0.0166644 0.00796238
0.049938 0.0194262 0.0070568
0.0488809 0.0166769 0.00786126
0.0568437 0.0187254 0.00729994
0.0504835 0.0187369 0.00699269
0.0503311 0.0169947 0.00749357
0.0497273 0.0178344 0.00718697
0.0541097 0.0150089 0.0121889
0.0552508 0.017618 0.00749107
0.0496647 0.0175506 0.00726155
0.0430072 0.0160898 0.00820576
0.0539289 0.0146923 0.0115408
0.0427167 0.0160529 0.00827073
0.0501713 0.0174514 0.00729924
0.0553129 0.0159383 0.00886873
0.0507378 0.0176535 0.00727674
0.0476902 0.01507 0.0125865
0.0500108 0.0159748 0.00854864
0.0506115 0.017904 0.00715557
0.0493985 0.0158179 0.0088038
0.0437298 0.0179798 0.00731098
0.0505032 0.0166143 0.00779782
0.0540498 0.014634 0.0109458
0.0501956 0.0188217 0.00699045
0.0496231 0.0186092 0.0070544
0.0433137 0.01733 0.00750232
0.0424642 0.0153544 0.00921286
0.0432851 0.0183546 0.00716347
0.0429612 0.0169611 0.00761364
0.0430909 0.0175168 0.00742832
0.042774 0.0162285 0.00803432
0.0428315 0.0164054 0.00779895
0.0435096 0.0181695 0.00723664
0.0431191 0.0164962 0.00777965
0.0546676 0.0153208 0.00967152
0.0502152 0.0165639 0.00789143
0.0425314 0.0155284 0.00897792
0.050971 0.0174809 0.00735286
0.0506855 0.0173661 0.00737512
0.0371069 0.0175194 0.00726765
0.043184 0.0167741 0.007687
0.049859 0.0184252 0.00707619
0.043593 0.018465 0.00714972
0.0499101 0.0187161 0.00702228
0.0493763 0.0187791 0.00703561
0.0433791 0.0176084 0.00741186
0.0569486 0.0176463 0.00730795
0.049192 0.017913 0.00719814
0.0494386 0.0177438 0.00722146
0.0439504 0.0177905 0.00738522
0.0501419 0.0185271 0.00704514
0.0502708 0.0167618 0.00767275
0.0489472 0.0169346 0.0077227
0.048759 0.0162604 0.00827564
0.0440188 0.018071 0.00730197
0.0495642 0.01832 0.00710837
0.0512433 0.0176042 0.00732618
0.0493085 0.0171804 0.00738434
0.0430717 0.0162843 0.00798663
0.04937 0.0174514 0.00727125
0.050176 0.0192449 0.00701102
0.0438853 0.0175092 0.00746896
0.0490627 0.0173508 0.00736143
0.0506805 0.0189586 0.00694714
0.0436649 0.0176987 0.00739466
0.043026 0.0172389 0.00752098
0.0496696 0.015947 0.00863313
0.0435998 0.0174181 0.00748315
0.0433546 0.0186464 0.00716348
0.0499744 0.0190242 0.00698556
0.0433969 0.0188954 0.00700158
0.0504309 0.0184465 0.00704616
0.0509184 0.0171976 0.00746103
0.0489976 0.0170762 0.00746312
0.04347 0.0168631 0.00766823
0.0495151 0.0175536 0.00752159
0.0497406 0.0192164 0.00697296
0.0512047 0.0182856 0.00705256
0.0504593 0.0175422 0.00728672
0.0492557 0.0182011 0.0071436
0.0490003 0.0152325 0.00936104
0.0495021 0.018031 0.00716245
0.0505555 0.0168167 0.00758258
0.0431558 0.0177946 0.00733569
0.0491277 0.0176282 0.00726749
0.0543707 0.0152919 0.00964149
0.0497922 0.0181265 0.00713445
0.0432205 0.0180742 0.00724829
0.0442369 0.0178791 0.00737686
0.0573999 0.0166955 0.00788399
0.0499132 0.0165194 0.00798725
0.0484304 0.0151925 0.00936193
0.0493175 0.0184898 0.00708973
0.0428963 0.0166832 0.0077063
0.0432488 0.0170519 0.00759433

VERTICES 297 594
1 0
1 1
1 2
1 3
1 4
1 5
1 6
1 7
1 8
1 9
1 10
1 11
1 12
1 13
1 14
1 15
1 16
1 17
1 18
1 19
1 20
1 21
1 22
1 23
1 24
1 25
1 26
1 27
1 28
1 29
1 30
1 31
1 32
1 33
1 34
1 35
1 36
1 37
1 38
1 39
1 40
1 41
1 42
1 43
1 44
1 45
1 46
1 47
1 48
1 49
1 50
1 51
1 52
1 53
1 54
1 55
1 56
1 57
1 58
1 59
1 60
1 61
1 62
1 63
1 64
1 65
1 66
1 67
1 68
1 69
1 70
1 71
1 72
1 73
1 74
1 75
1 76
1 77
1 78
1 79
1 80
1 81
1 82
1 83
1 84
1 85
1 86
1 87
1 88
1 89
1 90
1 91
1 92
1 93
1 94
1 95
1 96
1 97
1 98
1 99
1 100
1 101
1 102
1 103
1 104
1 105
1 106
1 107
1 108
1 109
1 110
1 111
1 112
1 113
1 114
1 115
1 116
1 117
1 118
1 119
1 120
1 121
1 122
1 123
1 124
1 125
1 126
1 127
1 128
1 129
1 130
1 131
1 132
1 133
1 134
1 135
1 136
1 137
1 138
1 139
1 140
1 141
1 142
1 143
1 144
1 145
1 146
1 147
1 148
1 149
1 150
1 151
1 152
1 153
1 154
1 155
1 156
1 157
1 158
1 159
1 160
1 161
1 162
1 163
1 164
1 165
1 166
1 167
1 168
1 169
1 170
1 171
1 172
1 173
1 174
1 175
1 176
1 177
1 178
1 179
1 180
1 181
1 182
1 183
1 184
1 185
1 186
1 187
1 188
1 189
1 190
1 191
1 192
1 193
1 194
1 195
1 196
1 197
1 198
1 199
1 200
1 201
1 202
1 203
1 204
1 205
1 206
1 207
1 208
1 209
1 210
1 211
1 212
1 213
1 214
1 215
1 216
1 217
1 218
1 219
1 220
1 221
1 222
1 223
1 224
1 225
1 226
1 227
1 228
1 229
1 230
1 231
1 232
1 233
1 234
1 235
1 236
1 237
1 238
1 239
1 240
1 241
1 242
1 243
1 244
1 245
1 246
1 247
1 248
1 249
1 250
1 251
1 252
1 253
1 254
1 255
1 256
1 257
1 258
1 259
1 260
1 261
1 262
1 263
1 264
1 265
1 266
1 267
1 268
1 269
1 270
1 271
1 272
1 273
1 274
1 275
1 276
1 277
1 278
1 279
1 280
1 281
1 282
1 283
1 284
1 285
1 286
1 287
1 288
1 289
1 290
1 291
1 292
1 293
1 294
1 295
1 296

POINT_DATA 297
SCALARS id int 1
LOOKUP_TABLE default
1
2
3
4
5
6
7
8
9
10
11
12
13
14
15
16
17
18
19
20
21
22
23
24
25
26
27
28
29
30
31
32
33
34
35
36
37
38
39
40
41
42
43
44
45
46
47
48
49
50
51
52
53
54
55
56
57
58
59
60
61
62
63
64
65
66
67
68
69
70
71
72
73
74
75
76
77
78
80
81
82
83
84
85
86
87
88
89
90
91
92
93
94
95
96
97
98
99
100
101
102
103
104
105
106
107
108
109
110
111
112
113
114
115
116
117
118
119
120
121
122
123
124
125
126
127
128
129
130
131
132
133
134
135
136
137
138
139
140
141
142
143
144
145
146
147
148
149
150
151
152
153
154
155
156
157
158
159
160
161
162
163
164
165
167
168
169
170
171
172
173
174
175
176
177
178
179
180
181
182
183
185
186
187
188
189
190
191
192
193
194
195
196
197
198
199
200
201
202
203
204
205
206
207
208
209
210
211
212
213
214
215
216
217
218
219
220
221
222
223
224
225
226
227
228
229
230
231
232
233
234
235
236
237
238
239
240
241
242
243
244
245
246
247
248
249
250
251
252
253
254
255
256
257
258
259
260
261
262
263
264
265
266
267
268
269
270
271
272
273
274
275
276
277
278
279
280
281
282
283
284
285
286
287
288
289
290
291
292
293
294
295
296
297
298
299
300

SCALARS type int 1
LOOKUP_TABLE default
1
1
1
1
1
1
1
1
1
1
1
1
1
1
1
1
1
1
1
1
1
1
1
1
1
1
1
1
1
1
1
1
1
1
1
1
1
1
1
1
1
1
1
1
1
1
1
1
1
1
1
1
1
1
1
1
1
1
1
1
1
1
1
1
1
1
1
1
1
1
1
1
1
1
1
1
1
1
1
1
1
1
1
1
1
1
1
1
1
1
1
1
1
1
1
1
1
1
1
1
1
1
1
1
1
1
1
1
1
1
1
1
1
1
1
1
1
1
1
1
1
1
1
1
1
1
1
1
1
1
1
1
1
1
1
1
1
1
1
1
1
1
1
1
1
1
1
1
1
1
1
1
1
1
1
1
1
1
1
1
1
1
1
1
1
1
1
1
1
1
1
1
1
1
1
1
1
1
1
1
1
1
1
1
1
1
1
1
1
1
1
1
1
1
1
1
1
1
1
1
1
1
1
1
1
1
1
1
1
1
1
1
1
1
1
1
1
1
1
1
1
1
1
1
1
1
1
1
1
1
1
1
1
1
1
1
1
1
1
1
1
1
1
1
1
1
1
1
1
1
1
1
1
1
1
1
1
1
1
1
1
1
1
1
1
1
1
1
1
1
1
1
1
1
1
1
1
1
1
1
1
1
1
1
1
1
1
1
1
1
1
1
1
1
1
1
1

SCALARS radius float 1
LOOKUP_TABLE default
0.00015
0.00015
0.00015
0.00015
0.00015
0.00015
0.00015
0.00015
0.00015
0.00015
0.00015
0.00015
0.00015
0.00015
0.00015
0.00015
0.00015
0.00015
0.00015
0.00015
0.00015
0.00015
0.00015
0.00015
0.00015
0.00015
0.00015
0.00015
0.00015
0.00015
0.00015
0.00015
0.00015
0.00015
0.00015
0.00015
0.00015
0.00015
0.00015
0.00015
0.00015
0.00015
0.00015
0.00015
0.00015
0.00015
0.00015
0.00015
0.00015
0.00015
0.00015
0.00015
0.00015
0.00015
0.00015
0.00015
0.00015
0.00015
0.00015
0.00015
0.00015
0.00015
0.00015
0.00015
0.00015
0.00015
0.00015
0.00015
0.00015
0.00015
0.00015
0.00015
0.00015
0.00015
0.00015
0.00015
0.00015
0.00015
0.00015
0.00015
0.00015
0.00015
0.00015
0.00015
0.00015
0.00015
0.00015
0.00015
0.00015
0.00015
0.00015
0.00015
0.00015
0.00015
0.00015
0.00015
0.00015
0.00015
0.00015
0.00015
0.00015
0.00015
0.00015
0.00015
0.00015
0.00015
0.00015
0.00015
0.00015
0.00015
0.00015
0.00015
0.00015
0.00015
0.00015
0.00015
0.00015
0.00015
0.00015
0.00015
0.00015
0.00015
0.00015
0.00015
0.00015
0.00015
0.00015
0.00015
0.00015
0.00015
0.00015
0.00015
0.00015
0.00015
0.00015
0.00015
0.00015
0.00015
0.00015
0.00015
0.00015
0.00015
0.00015
0.00015
0.00015
0.00015
0.00015
0.00015
0.00015
0.00015
0.00015
0.00015
0.00015
0.00015
0.00015
0.00015
0.00015
0.00015
0.00015
0.00015
0.00015
0.00015
0.00015
0.00015
0.00015
0.00015
0.00015
0.00015
0.00015
0.00015
0.00015
0.00015
0.00015
0.00015
0.00015
0.00015
0.00015
0.00015
0.00015
0.00015
0.00015
0.00015
0.00015
0.00015
0.00015
0.00015
0.00015
0.00015
0.00015
0.00015
0.00015
0.00015
0.00015
0.00015
0.00015
0.00015
0.00015
0.00015
0.00015
0.00015
0.00015
0.00015
0.00015
0.00015
0.00015
0.00015
0.00015
0.00015
0.00015
0.00015
0.00015
0.00015
0.00015
0.00015
0.00015
0.00015
0.00015
0.00015
0.00015
0.00015
0.00015
0.00015
0.00015
0.00015
0.00015
0.00015
0.00015
0.00015
0.00015
0.00015
0.00015
0.00015
0.00015
0.00015
0.00015
0.00015
0.00015
0.00015
0.00015
0.00015
0.00015
0.00015
0.00015
0.00015
0.00015
0.00015
0.00015
0.00015
0.00015
0.00015
0.00015
0.00015
0.00015
0.00015
0.00015
0.00015
0.00015
0.00015
0.00015
0.00015
0.00015
0.00015
0.00015
0.00015
0.00015
0.00015
0.00015
0.00015
0.00015
0.00015
0.00015
0.00015
0.00015
0.00015
0.00015
0.00015
0.00015
0.00015
0.00015
0.00015
0.00015
0.00015
0.00015
0.00015
0.00015
0.00015
0.00015
0.00015
0.00015
0.00015
0.00015
0.00015
0.00015
0.00015
0.00015
0.00015
0.00015

SCALARS mass float 1
LOOKUP_TABLE default
3.95841e-09
3.95841e-09
3.95841e-09
3.95841e-09
3.95841e-09
3.95841e-09
3.95841e-09
3.95841e-09
3.95841e-09
3.95841e-09
3.95841e-09
3.95841e-09
3.95841e-09
3.95841e-09
3.95841e-09
3.95841e-09
3.95841e-09
3.95841e-09
3.95841e-09
3.95841e-09
3.95841e-09
3.95841e-09
3.95841e-09
3.95841e-09
3.95841e-09
3.95841e-09
3.95841e-09
3.95841e-09
3.95841e-09
3.95841e-09
3.95841e-09
3.95841e-09
3.95841e-09
3.95841e-09
3.95841e-09
3.95841e-09
3.95841e-09
3.95841e-09
3.95841e-09
3.95841e-09
3.95841e-09
3.95841e-09
3.95841e-09
3.95841e-09
3.95841e-09
3.95841e-09
3.95841e-09
3.95841e-09
3.95841e-09
3.95841e-09
3.95841e-09
3.95841e-09
3.95841e-09
3.95841e-09
3.95841e-09
3.95841e-09
3.95841e-09
3.95841e-09
3.95841e-09
3.95841e-09
3.95841e-09
3.95841e-09
3.95841e-09
3.95841e-09
3.95841e-09
3.95841e-09
3.95841e-09
3.95841e-09
3.95841e-09
3.95841e-09
3.95841e-09
3.95841e-09
3.95841e-09
3.95841e-09
3.95841e-09
3.95841e-09
3.95841e-09
3.95841e-09
3.95841e-09
3.95841e-09
3.95841e-09
3.95841e-09
3.95841e-09
3.95841e-09
3.95841e-09
3.95841e-09
3.95841e-09
3.95841e-09
3.95841e-09
3.95841e-09
3.95841e-09
3.95841e-09
3.95841e-09
3.95841e-09
3.95841e-09
3.95841e-09
3.95841e-09
3.95841e-09
3.95841e-09
3.95841e-09
3.95841e-09
3.95841e-09
3.95841e-09
3.95841e-09
3.95841e-09
3.95841e-09
3.95841e-09
3.95841e-09
3.95841e-09
3.95841e-09
3.95841e-09
3.95841e-09
3.95841e-09
3.95841e-09
3.95841e-09
3.95841e-09
3.95841e-09
3.95841e-09
3.95841e-09
3.95841e-09
3.95841e-09
3.95841e-09
3.95841e-09
3.95841e-09
3.95841e-09
3.95841e-09
3.95841e-09
3.95841e-09
3.95841e-09
3.95841e-09
3.95841e-09
3.95841e-09
3.95841e-09
3.95841e-09
3.95841e-09
3.95841e-09
3.95841e-09
3.95841e-09
3.95841e-09
3.95841e-09
3.95841e-09
3.95841e-09
3.95841e-09
3.95841e-09
3.95841e-09
3.95841e-09
3.95841e-09
3.95841e-09
3.95841e-09
3.95841e-09
3.95841e-09
3.95841e-09
3.95841e-09
3.95841e-09
3.95841e-09
3.95841e-09
3.95841e-09
3.95841e-09
3.95841e-09
3.95841e-09
3.95841e-09
3.95841e-09
3.95841e-09
3.95841e-09
3.95841e-09
3.95841e-09
3.95841e-09
3.95841e-09
3.95841e-09
3.95841e-09
3.95841e-09
3.95841e-09
3.95841e-09
3.95841e-09
3.95841e-09
3.95841e-09
3.95841e-09
3.95841e-09
3.95841e-09
3.95841e-09
3.95841e-09
3.95841e-09
3.95841e-09
3.95841e-09
3.95841e-09
3.95841e-09
3.95841e-09
3.95841e-09
3.95841e-09
3.95841e-09
3.95841e-09
3.95841e-09
3.95841e-09
3.95841e-09
3.95841e-09
3.95841e-09
3.95841e-09
3.95841e-09
3.95841e-09
3.95841e-09
3.95841e-09
3.95841e-09
3.95841e-09
3.95841e-09
3.95841e-09
3.95841e-09
3.95841e-09
3.95841e-09
3.95841e-09
3.95841e-09
3.95841e-09
3.95841e-09
3.95841e-09
3.95841e-09
3.95841e-09
3.95841e-09
3.95841e-09
3.95841e-09
3.95841e-09
3.95841e-09
3.95841e-09
3.95841e-09
3.95841e-09
3.95841e-09
3.95841e-09
3.95841e-09
3.95841e-09
3.95841e-09
3.95841e-09
3.95841e-09
3.95841e-09
3.95841e-09
3.95841e-09
3.95841e-09
3.95841e-09
3.95841e-09
3.95841e-09
3.95841e-09
3.95841e-09
3.95841e-09
3.95841e-09
3.95841e-09
3.95841e-09
3.95841e-09
3.95841e-09
3.95841e-09
3.95841e-09
3.95841e-09
3.95841e-09
3.95841e-09
3.95841e-09
3.95841e-09
3.95841e-09
3.95841e-09
3.95841e-09
3.95841e-09
3.95841e-09
3.95841e-09
3.95841e-09
3.95841e-09
3.95841e-09
3.95841e-09
3.95841e-09
3.95841e-09
3.95841e-09
3.95841e-09
3.95841e-09
3.95841e-09
3.95841e-09
3.95841e-09
3.95841e-09
3.95841e-09
3.95841e-09
3.95841e-09
3.95841e-09
3.95841e-09
3.95841e-09
3.95841e-09
3.95841e-09
3.95841e-09
3.95841e-09
3.95841e-09
3.95841e-09
3.95841e-09
3.95841e-09
3.95841e-09
3.95841e-09
3.95841e-09
3.95841e-09
3.95841e-09
3.95841e-09
3.95841e-09
3.95841e-09
3.95841e-09
3.95841e-09
3.95841e-09
3.95841e-09

VECTORS velocity float
0.00102611 -0.00522643 0.00485759
1.41018e-06 1.49061e-06 -4.4851e-08
0.0187491 0.00526952 -0.00315981
7.43194e-15 2.30995e-15 -8.03931e-14
0.00148103 0.00399712 -0.0046827
0.00548545 0.000130731 -0.000769084
0.00515238 0.0014012 -0.000854816
0.00101567 -0.000888939 -0.00213953
0.00608295 0.000232316 0.0002335
0.0384066 -0.00655404 0.00774416
0.00157133 -0.00321788 -2.76981e-05
0.0127354 -0.0163416 -0.0291162
0.00265327 0.000167697 0.0110083
0.00556751 0.0013314 -0.000132888
6.37902e-06 -0.0138538 0.0202168
0.00550591 0.00060621 -0.00153144
-0.000559929 -0.0187233 0.0228085
0.00622312 0.000347511 -9.97617e-05
-0.000364194 0.0225903 -0.0227552
0.0021941 -0.00060638 3.56499e-05
-0.00795541 0.0227906 -0.00323316
0.000361526 -0.0133124 0.0216173
0.00319383 -0.0170072 0.0248278
0.00605595 0.000210921 -0.000236522
-0.00124331 0.00886673 -0.00895464
0.00621236 0.000317855 -6.91219e-05
0.00669792 -0.00321705 0.00128107
0.00604103 0.000319525 -4.67198e-05
0.00606958 0.000340467 -0.000212462
0.00114286 -0.024548 0.0206775
-0.0054934 0.00799944 -0.00526769
0.00625891 0.0011894 -0.000232519
0.00750058 0.0027495 -0.0024795
0.00188305 -0.000973703 0.000342464
0.00614245 0.000236693 0.000241293
0.00288034 -0.0163475 0.021017
-3.49642e-06 -1.98613e-06 1.01062e-07
0.00606323 -5.0837e-05 -0.000650667
0.00462765 -0.00696146 0.000227742
0.0044305 0.00352267 -0.000118019
0.0159133 0.0252308 -0.0308774
-0.00362388 -0.0106544 0.0110241
0.00483483 -0.00562812 0.00028527
0.00562021 2.08935e-05 -0.000670722
0.00577964 -4.30879e-05 -0.000632078
-0.000251921 -3.63156e-05 0.0156055
0.00505135 0.00211368 -0.00102391
0.031354 0.000147966 -0.017187
0.00241138 6.71969e-05 0.000920059
7.02805e-11 1.38815e-10 1.04981e-11
0.00151424 0.00245435 -0.00215372
0.00576341 -6.94805e-05 -0.000623952
0.00697691 0.00336484 -0.00346316
0.00629823 0.000660944 -0.00168965
0.00377247 0.00058005 -0.000275939
0.00616686 0.000314138 -8.93164e-05
0.0022406 -0.0167858 -0.000203963
0.00624493 0.000325652 -8.89045e-05
0.00336145 0.000641977 -0.001164
0.0168798 -0.0139437 0.00982843
-0.0113195 -0.00301823 -0.0488307
2.78536e-11 -1.5167e-11 2.14587e-12
0.00575741 -0.000105704 -0.000673425
0.00222327 -0.0054691 0.0014417
0.0113192 0.00237785 -0.00115992
0.00665362 -0.00375629 0.00125398
-0.00854857 0.00833338 -0.00846122
0.00702906 -0.00208579 0.000225977
0.00589962 0.00029568 0.000228597
0.0139915 0.0066501 -0.034911
-7.81752e-08 -6.11064e-08 2.42153e-09
0.00268954 0.000775665 -0.000493242
0.00582248 0.000337031 0.000219617
0.00105098 -0.0259274 0.0193804
0.00523179 -0.0064062 0.000202223
0.000293214 -0.0134725 0.0194583
0.00514394 -0.00406388 0.00143335
0.0182623 -0.00066239 -0.00227023
0.00364879 0.0129458 -0.0248677
0.00508837 0.00130177 -0.000101045
0.00799384 0.00217094 -0.00132144
0.00620836 0.000492952 -0.000205323
0.0105288 0.0196535 -0.0112655
0.0056305 -0.00509639 0.00037412
-1.7713e-05 -3.72229e-05 -1.10773e-05
0.00631767 -0.00350901 0.000941506
0.00182504 -0.00633217 0.000859665
0.00581126 0.00138698 -0.00121423
0.00634026 0.00181246 0.000668855
0.00274405 -0.00161589 0.000570946
-8.95787e-08 -2.79823e-08 -9.08742e-09
0.000540931 -0.0203046 0.0245987
0.00578472 -8.36818e-05 -0.000595877
0.00583982 0.000284398 -0.00129172
0.0203066 0.0231715 -0.0298672
0.00674139 0.000604313 -0.00174127
0.00061228 0.0213799 -0.0215205
0.00404086 0.0015712 0.00782919
0.00575147 -0.000931497 -0.000278054
0.015138 0.00766996 -0.00409257
0.0059079 -0.000628724 -0.00305913
0.0279377 -0.0138797 -0.0897667
0.00410982 0.000304003 -0.000243238
0.0131151 -0.00387268 -0.0343226
0.00408025 0.00305375 0.00902007
0.0041993 0.000973308 -0.000313956
3.15294e-05 -0.0140193 0.0196422
0.000317272 -0.000587252 9.08165e-06
0.00591905 0.000900843 -0.0012607
0.000698252 -0.000251277 -3.78206e-05
0.0189402 0.0085779 -0.0293066
0.00527585 0.00144601 -0.000825958
0.00658992 0.00279483 0.00071221
0.00477022 0.00340878 0.00605321
0.0061866 -0.000174715 -0.00298856
0.00258087 0.00231185 -0.0019906
0.00651134 0.00414387 -0.003823
0.0143731 0.0259641 -0.028796
0.00513897 -0.00522974 0.0022209
0.0132512 0.0139421 -0.0423548
0.00466797 -0.00487752 0.000305534
-1.63611e-05 0.00219418 -2.57578e-05
0.00427334 -0.00014197 -0.000661812
0.0115066 0.000586488 -0.0275062
-7.69632e-06 3.88157e-06 -6.00069e-07
0.0126801 0.00384078 -0.0332161
0.00607556 -0.000383035 0.000434906
0.00596771 0.0005791 -0.00157516
0.00606805 -0.00355611 0.00109619
-5.02913e-07 -4.98583e-07 1.66017e-08
0.00924345 -0.00196782 0.00436911
0.00522463 0.00232892 0.00670781
0.00500737 0.00114514 -4.55574e-05
-0.00182301 0.0152073 0.00246765
8.68019e-12 1.93205e-11 1.07542e-12
0.00562322 -0.000785847 -0.00303126
1.05889e-09 1.36081e-09 -3.80076e-11
0.00497392 0.00144033 -0.000165914
0.00442288 0.00152722 -0.00106899
0.00593352 -0.000333071 -0.00256053
0.00516821 0.00161684 -0.00022949
0.00191089 -0.000810431 0.0224034
0.0131002 0.000142115 -0.033626
0.00520858 0.00108819 -0.00211756
0.00132206 -0.00078899 -0.000186345
0.0048048 0.00197934 -0.00148714
-0.00223237 0.0164298 -0.0769057
0.0184454 0.0104603 -0.0343413
-0.00369587 -0.00265118 -0.0036247
0.0056317 0.00128155 -0.000900534
0.005466 -0.000669656 0.000588206
0.0244842 0.00676153 -0.0305606
0.00479118 2.12116e-05 -0.00431823
0.00119493 0.0082554 -0.00894123
0.00502893 0.00074774 -0.00159877
0.00588566 0.00136718 -0.000619378
0.00628742 0.00139312 0.000777499
0.00397877 0.00142343 -0.000433196
-0.00248467 -0.0181917 -0.00869608
0.00574662 -0.000779073 0.0023671
0.00455887 0.00176177 -0.000325432
0.00268651 0.00346485 -9.31466e-05
0.0135988 -0.010323 -0.0321337
0.00368492 0.00122141 0.000546392
0.00128126 -0.0167395 0.0237259
0.00615519 0.00177037 -0.00118681
-0.000116091 1.04554e-05 0.00452611
0.00519085 0.00108264 -0.000707377
0.00585061 0.000328212 -0.00125659
0.012436 0.0235323 -0.0228094
0.00521569 4.68763e-05 0.000316313
0.00279282 -0.000296774 7.84411e-05
0.00588389 0.00151011 -0.0048554
0.00315289 0.000193654 -0.000173782
0.00598778 -0.000985305 0.000712468
4.9247e-07 2.28529e-07 -1.37378e-08
0.00582483 0.00183072 0.0012557
0.00152604 0.00285218 -7.10146e-05
0.00495108 0.00123697 -6.69292e-05
0.00438817 0.00144753 -0.000990157
0.0060941 -0.00181354 -0.00248526
0.00415743 0.00295245 -0.000226141
0.00529706 0.00186753 -0.000309066
0.0059925 -0.00375862 0.000282841
0.00581499 -0.000358934 -0.00225796
0.00200187 0.00103551 -0.00602249
0.0060738 -0.000597949 -0.00279612
0.00553004 -0.000927845 -0.000253126
0.00571194 -0.000950812 -0.000275554
0.0107944 -0.0160794 0.0119058
0.00564783 -0.000656691 0.000586177
0.00509789 0.000583146 0.000433399
0.00463482 0.000144148 0.000165026
0.00263007 -0.000905989 5.37436e-05
0.00446262 -0.00282086 -0.0037206
0.0245044 -0.0107991 0.00911044
0.00535869 0.00111443 -1.69329e-05
0.00599013 -0.000752577 0.000669032
0.00627146 0.000110613 -0.00322029
0.0059298 0.000719442 -0.00171679
0.00535084 0.00179325 -0.000262758
0.00324114 0.00298904 -0.00252713
-0.00649611 0.0431709 -0.0626436
0.00279204 -0.000716781 -6.83779e-05
0.00568717 0.00175848 -0.00108061
0.00137981 0.00109464 -4.28981e-05
0.0037405 0.000596581 -0.00050624
0.00528019 0.00161335 -0.00023032
0.0044151 0.00168385 -0.000494509
-0.0037674 -0.00906159 -0.00362835
0.007616 -0.00553185 0.00165637
0.00523503 0.00106351 -0.00208473
0.0052958 -0.000537583 0.000397303
0.00217023 -0.0018209 0.014922
0.00533438 -0.00063922 0.000571966
0.0048722 0.00125995 -9.51474e-05
-0.15468 -0.0952592 0.102135
0.00549822 0.00087551 -0.00200137
0.0269526 -0.0250315 -0.0770753
0.00470872 0.0005044 -0.00128395
-4.85467e-06 -3.91053e-07 -1.34078e-05
0.0204863 0.00426673 -0.00206365
0.00558803 -0.000711523 0.00060227
0.00600052 0.000263232 -0.00131823
-0.00737269 0.00443459 0.0327305
0.00315533 -0.000618129 -3.58953e-05
0.00380781 0.00090216 -0.000333872
0.00575578 -0.000776684 0.000445432
0.00569928 -0.000683728 0.000606008
0.00559916 -0.000660918 0.000586629
0.00578404 -0.000794381 0.000508297
0.0056983 -0.000785132 0.000494293
0.00561375 -0.000694389 0.000582631
0.00584457 -0.000803324 0.000536734
0.00555461 -0.000726183 0.000603806
0.0058477 -0.00077763 0.000487154
0.000611077 -0.0137544 0.0206454
0.00614843 0.000577312 -0.00164309
0.0061493 -0.000771447 0.000689926
0.0051459 0.00128127 -9.00542e-05
0.00500481 0.00131154 -0.000112603
0.00643025 0.00130884 -0.000831352
0.00553423 -0.000739144 0.000479845
0.00319394 0.000199427 -0.00018198
0.00613448 -0.000827399 0.000678806
0.00343236 -0.000268909 -0.000102519
0.0062079 0.00493155 -0.00107059
0.00567943 -0.000715601 0.000472894
-0.000644202 0.00191699 1.81134e-05
0.00653355 0.00126317 -0.00304008
0.00639642 0.00109647 -0.00335317
0.00567142 -0.000647505 0.00058642
0.00390916 0.000254792 -0.000225149
0.00581373 0.00033629 -0.00146503
0.00614236 0.00173698 -0.00054417
0.00549862 0.00155517 -0.000936554
0.00590346 -0.00110105 0.00074466
0.00391377 0.000614811 -0.000289237
0.00520244 0.00160575 -0.000210166
0.00559456 0.000463821 -0.00139842
0.00574285 -0.000758631 0.000405309
0.00630086 0.0011932 -0.000251229
0.00188297 -0.00082616 -0.000164585
0.00569812 -0.000572015 0.000566602
0.00620166 0.000768879 -0.000708164
0.00334072 0.0010033 0.000486969
0.00567923 -0.000611259 0.000573102
0.00572793 -0.000794084 0.000512127
0.00574229 0.000140115 -0.00108375
0.00572298 -0.000659962 0.000472006
0.00615638 -0.000774803 0.000663401
0.00269561 -0.00120425 -0.00314058
0.00534927 -0.000700938 0.000581421
0.00399746 0.000654403 -0.000286576
0.00511874 0.00136597 -0.000124665
0.00616897 0.00102168 -0.000636323
0.0055953 -0.000924418 0.000552875
0.00538343 0.00533401 -0.00246801
0.00296712 -0.000854836 -4.29335e-05
0.00517485 0.00160301 -0.000203904
0.00545537 0.00167868 -0.00015785
0.0059417 0.00274468 -0.000654949
0.010686 0.0313799 -0.0311648
0.00546667 0.00194546 -0.000551533
0.00527368 0.00172692 -0.000204612
0.00566377 -0.000742678 0.000512843
0.00637678 0.00127951 -0.000106519
0.000162738 -0.0114671 0.0228211
0.00511353 -0.00033367 -0.00427027
0.00561711 -0.000687302 0.000578943
0.00585678 -0.00117356 0.000764552
-8.43695e-05 0.0220821 -0.0222389
0.0059778 0.000642309 -0.00174441
0.0165818 0.0130506 -0.0327177
0.00663314 0.00367392 -0.00155559
0.00582757 -0.000793014 0.00050873
0.00573851 -0.000780202 0.000500539

VECTORS force float
0.0 0.0 -3.8832e-08
1.40512e-11 1.98074e-11 -5.44627e-13
-4.41964e-08 4.01823e-08 2.503e-08
4.55777e-22 -1.12104e-21 1.32349e-23
-7.14097e-08 -9.59258e-07 1.15071e-06
-3.64101e-09 -1.69689e-09 1.91474e-09
-1.45684e-08 1.53508e-08 -1.85124e-08
0.0 0.0 -3.8832e-08
1.94081e-10 -1.09992e-09 3.3421e-10
0.0 0.0 -3.8832e-08
-1.6268e-08 -1.45041e-08 -2.87226e-08
-6.76112e-10 1.06434e-10 -3.86878e-08
-2.12458e-08 1.03512e-08 4.42916e-08
-1.52742e-08 2.58931e-08 -2.48597e-08
-1.31443e-08 6.1693e-08 -6.66556e-08
-9.64352e-09 1.75155e-08 -1.75256e-08
0.0 0.0 -3.8832e-08
6.74108e-10 4.45507e-09 -4.05927e-09
-1.56341e-10 9.77559e-09 -9.84693e-09
-3.22511e-09 -1.271e-08 -8.13765e-08
0.0 0.0 -3.8832e-08
2.58054e-09 2.70856e-08 -3.69069e-08
-3.66461e-09 2.29092e-08 -3.54422e-08
1.70439e-09 -4.37759e-09 -4.83817e-10
1.01981e-09 1.03166e-08 -8.43644e-09
-5.17254e-09 -2.38044e-09 2.01964e-09
-3.8496e-08 4.41178e-08 -1.52741e-08
3.16955e-09 2.64712e-09 8.98755e-09
-1.62031e-09 2.76764e-09 2.22813e-10
0.0 0.0 -3.8832e-08
2.30943e-09 -3.12462e-08 4.45869e-08
-8.57529e-09 -9.64124e-09 2.0436e-08
-3.33244e-09 8.25184e-10 -2.2886e-08
2.66861e-08 -2.69211e-08 7.85838e-09
-2.91155e-09 5.50994e-10 -6.71683e-10
0.0 0.0 -3.8832e-08
-4.35793e-09 -2.22339e-09 1.23518e-10
-1.94039e-09 -2.17633e-09 1.03487e-10
-3.84472e-11 -2.21454e-10 -7.25946e-12
-1.47647e-08 -1.1313e-08 3.84891e-10
0.0 0.0 -3.8832e-08
0.0 0.0 -3.8832e-08
-4.35837e-12 -5.7458e-13 5.75985e-13
6.68621e-09 -1.38576e-09 1.8479e-09
-4.16332e-10 -1.31996e-09 -1.8461e-09
0.0 0.0 -3.8832e-08
-7.11365e-09 -3.97951e-08 9.37737e-09
0.0 0.0 -3.8832e-08
-2.02234e-08 1.8208e-08 -2.24734e-09
-8.79402e-15 -8.87105e-15 -1.04361e-15
-3.41393e-08 1.68928e-07 -1.88496e-07
4.88647e-10 -4.06724e-09 -2.07413e-09
0.0 0.0 -3.8832e-08
-9.19396e-09 3.97768e-08 -2.77689e-08
-1.71223e-08 3.81556e-09 1.36183e-10
-5.00607e-10 1.16926e-09 -3.1578e-09
-9.30592e-09 2.12831e-08 -1.2847e-08
-1.07664e-08 8.06201e-09 -4.09724e-09
7.83054e-08 -9.41403e-09 5.8884e-08
-1.66546e-07 5.447e-07 1.19754e-07
0.0 0.0 -3.8832e-08
2.5072e-17 1.0977e-15 6.96235e-17
3.87803e-09 2.1933e-09 5.02601e-09
-6.87173e-09 1.11423e-08 -1.31831e-08
-1.51667e-08 1.64215e-08 -1.88727e-08
-5.56577e-08 4.1681e-08 3.2398e-08
9.33909e-09 1.17231e-08 -1.48859e-08
-4.6716e-08 4.19889e-08 3.76604e-08
-2.44641e-10 -2.02302e-11 3.26172e-10
0.0 0.0 -3.8832e-08
-1.66088e-11 -1.20294e-11 5.05275e-13
-1.49671e-08 8.55379e-09 -3.00304e-09
1.43538e-09 2.24036e-09 -1.0852e-09
0.0 0.0 -3.8832e-08
-3.98224e-08 2.02232e-09 -7.95462e-09
-1.27167e-07 6.00995e-08 1.88827e-07
3.17287e-09 1.30527e-08 -5.65805e-09
-9.83378e-09 1.88552e-08 -1.98563e-08
0.0 0.0 -3.8832e-08
-2.01853e-08 8.81695e-09 -5.1024e-09
-1.41106e-08 1.68044e-08 -2.09775e-08
4.76834e-09 3.37893e-09 -1.62478e-09
0.0 0.0 -3.8832e-08
-4.08146e-11 -8.63659e-11 -4.75431e-12
5.23462e-09 1.49986e-08 2.5235e-09
4.62565e-08 -2.98475e-08 -3.33393e-07
-1.15335e-08 -3.58745e-09 -1.26624e-08
-2.88904e-09 1.33221e-09 -3.76806e-08
-2.69505e-08 4.68811e-09 -3.71339e-08
0.0 0.0 -3.8832e-08
6.59112e-12 1.95898e-12 6.65763e-13
0.0 0.0 -3.8832e-08
6.70404e-09 -1.91021e-09 1.20775e-09
-2.57457e-09 1.31411e-08 -1.11194e-08
0.0 0.0 -3.8832e-08
-2.23237e-08 -2.70419e-08 2.44054e-08
-5.87595e-10 9.77344e-09 -9.85174e-09
6.65188e-09 -5.98705e-09 -2.72989e-08
-3.1415e-09 2.10431e-09 1.03692e-09
-2.56729e-08 -9.16267e-08 5.67251e-08
-1.91655e-08 8.90349e-09 -2.12841e-08
0.0 0.0 -3.8832e-08
-1.66954e-08 5.47399e-09 -1.8326e-09
0.0 0.0 -3.8832e-08
0.0 0.0 -3.8832e-08
-1.77522e-08 2.5424e-09 2.503e-09
-3.18733e-08 2.20467e-07 2.99491e-08
-4.34388e-09 1.04034e-08 2.86964e-09
-1.01881e-07 -3.62643e-07 -7.07983e-08
-6.98991e-09 -4.04395e-09 -2.74487e-09
0.0 0.0 -3.8832e-08
-4.61974e-08 5.96413e-08 -3.41193e-08
2.83259e-08 3.23647e-08 1.29492e-08
7.89229e-09 -1.68248e-10 -3.21142e-08
-3.34607e-09 9.21415e-10 -3.86043e-08
-2.24746e-09 -1.86988e-08 -7.73669e-09
0.0 0.0 -3.8832e-08
0.0 0.0 -3.8832e-08
-2.71315e-08 -3.29128e-09 -1.38184e-08
0.0 0.0 -3.8832e-08
-1.9657e-08 1.49231e-08 4.91594e-09
1.07017e-09 -1.75095e-08 -2.95928e-09
4.37991e-08 -7.34207e-08 7.42966e-08
6.66397e-09 1.05243e-09 -3.35842e-08
-4.08355e-10 4.5205e-10 -2.47639e-11
0.0 0.0 -3.8832e-08
-2.23169e-08 2.55117e-09 -9.67527e-09
-9.79498e-09 1.78423e-08 -1.74854e-08
-5.65198e-08 5.59249e-08 -7.13507e-08
8.54488e-11 9.24912e-11 -2.8962e-12
-9.00146e-08 7.88314e-08 1.61024e-08
0.0 0.0 -3.8832e-08
-2.02866e-08 9.23335e-09 -5.27971e-09
0.0 0.0 -3.8832e-08
-1.4905e-16 3.58751e-15 8.52237e-17
-3.9198e-08 -2.06192e-08 -2.00959e-08
-2.20775e-13 -3.51467e-13 8.58553e-15
-1.90406e-08 6.89477e-09 -4.34071e-09
-1.38765e-08 1.42841e-08 -1.80658e-08
0.0 0.0 -3.8832e-08
-2.10702e-08 8.3385e-09 -2.71348e-09
-3.20879e-08 7.37114e-09 3.15992e-08
0.0 0.0 -3.8832e-08
-1.54903e-08 1.37136e-08 -1.99352e-08
3.63423e-08 -4.05712e-08 -1.15451e-08
-1.28077e-08 1.7345e-08 -1.83127e-08
0.0 0.0 -3.8832e-08
-8.64937e-09 8.44924e-08 4.29221e-08
0.0 0.0 -3.8832e-08
-1.73145e-08 2.3337e-08 1.21036e-08
8.13723e-09 -1.1159e-09 1.44253e-09
0.0 0.0 -3.8832e-08
-9.52196e-09 1.03958e-08 -4.20006e-08
1.6222e-09 1.02068e-08 -1.10781e-08
-9.40381e-09 1.69834e-08 -1.72634e-08
3.62244e-09 -9.39088e-10 -3.53711e-08
4.19449e-08 -9.59665e-08 -7.25469e-08
-1.59087e-08 2.41279e-10 9.01631e-11
-3.57025e-08 3.47727e-08 1.44691e-07
2.83706e-09 1.23413e-08 -1.92127e-08
-1.80339e-08 8.93583e-09 -4.90176e-09
9.0963e-09 -1.10426e-08 9.29788e-09
0.0 0.0 -3.8832e-08
0.0 0.0 -3.8832e-08
0.0 0.0 -3.8832e-08
1.12362e-07 -1.05806e-07 1.25401e-07
0.0 0.0 -3.8832e-08
-1.81363e-08 1.09978e-08 -1.75999e-09
-9.37029e-09 5.67017e-09 -1.41382e-08
1.09733e-09 6.39503e-09 -6.99695e-09
4.50163e-07 2.40905e-07 1.37305e-07
-1.98559e-08 -3.26577e-09 -6.95269e-10
-1.86652e-08 -1.24159e-07 -1.80184e-08
-1.6203e-08 -1.47903e-09 6.24792e-09
1.22993e-09 2.78465e-09 -6.58625e-10
-5.79413e-10 -5.49271e-10 1.8883e-11
-3.27213e-08 -1.32574e-07 -5.33577e-08
-8.09616e-09 -1.65022e-08 -2.25099e-10
-1.53997e-08 3.05432e-09 -1.68658e-09
2.13542e-09 -1.34681e-08 1.89949e-08
-1.23392e-09 -9.73486e-09 -2.65721e-08
2.96414e-08 1.6524e-08 3.71346e-08
-1.96128e-08 7.19332e-09 -4.52547e-09
0.0 0.0 -3.8832e-08
-3.5177e-08 -2.08907e-09 1.61564e-09
7.92047e-09 -2.52996e-08 2.76131e-07
-1.17122e-08 1.32802e-08 -3.69451e-08
3.94206e-09 4.07765e-09 -1.03578e-09
5.16945e-09 6.21333e-09 6.31626e-10
0.0 0.0 -3.8832e-08
-1.44236e-10 -1.86423e-09 -5.04553e-10
3.70116e-08 3.22338e-08 3.64565e-08
1.28678e-07 -1.0786e-07 6.17585e-08
-3.40953e-08 1.77859e-09 1.09698e-08
4.60204e-09 6.3966e-08 1.49043e-07
2.03842e-08 -2.90455e-08 1.9687e-08
-2.1245e-08 9.91135e-09 -3.90614e-09
5.18126e-10 -2.55687e-09 2.95457e-09
0.0 0.0 -3.8832e-08
-9.47583e-09 1.71817e-08 -1.77022e-08
-1.53473e-08 9.80584e-09 -4.37056e-09
4.5989e-08 -5.82571e-08 6.51535e-08
-1.76332e-09 1.17365e-08 -1.70297e-08
-1.0791e-08 1.43168e-08 1.01031e-09
-1.20303e-09 -1.47196e-08 -9.8519e-09
-1.42941e-08 -1.16824e-08 4.47723e-10
-3.04183e-08 3.37549e-10 1.74137e-08
-1.56509e-08 2.03182e-08 -1.23343e-08
-1.63606e-08 1.09857e-08 2.5571e-09
0.0 0.0 -3.8832e-08
-6.29962e-10 -2.28335e-10 -3.93778e-08
-1.56393e-08 -2.82084e-09 -2.0911e-08
-1.0522e-08 -9.08107e-10 -1.34406e-09
6.39436e-09 -1.84139e-11 -3.38674e-08
-9.02328e-09 3.72901e-09 -2.57276e-09
-1.86044e-08 7.78536e-09 -7.47504e-09
1.67032e-05 9.3819e-06 -9.93383e-06
-1.56269e-08 -1.00635e-09 -2.75372e-08
0.0 0.0 -3.8832e-08
-9.81667e-09 1.78605e-08 -1.7323e-08
1.94369e-09 -5.1985e-09 3.37627e-09
-1.51133e-08 1.63789e-08 -1.89772e-08
-1.04075e-09 3.12387e-09 -1.36257e-09
-1.07748e-08 7.22184e-09 -1.16909e-08
0.0 0.0 -3.8832e-08
-1.99555e-08 -7.35294e-09 7.99336e-10
-1.81344e-08 2.39693e-09 3.45239e-10
5.73691e-09 -1.56916e-09 -3.36726e-09
1.23234e-08 -3.33039e-10 -7.50032e-09
2.0879e-09 -2.28832e-09 7.43336e-10
1.29383e-09 6.04039e-09 -1.88303e-09
1.11862e-09 -9.37584e-10 -5.86276e-10
-7.58959e-09 4.9897e-09 -2.22131e-09
-3.08653e-10 1.35323e-09 -1.62218e-09
-1.17307e-09 -2.77166e-09 3.76245e-10
-4.92779e-09 -7.06431e-10 -1.31094e-09
-2.13952e-08 2.67918e-08 1.50903e-07
-2.19139e-09 8.50124e-09 -1.20493e-08
8.33104e-09 -1.64075e-09 2.56321e-09
-2.03685e-08 8.69011e-09 -3.3102e-09
-2.01819e-08 8.71963e-09 -5.01454e-09
-6.50442e-12 1.94234e-11 -9.83066e-12
4.91426e-09 -2.61345e-09 2.86499e-09
-1.5911e-08 5.35114e-09 -2.75502e-10
-1.85336e-09 -2.33862e-09 5.27507e-10
-2.49844e-08 1.072e-08 -9.29917e-10
-1.51238e-08 -5.8725e-09 7.78961e-09
5.42588e-10 -3.86368e-09 -6.94455e-09
7.52807e-09 -1.87714e-08 1.71223e-09
2.13594e-08 -3.70028e-08 -4.40026e-09
4.24848e-08 -1.80512e-08 -5.05212e-08
-8.38531e-09 2.14174e-09 -1.28354e-09
-2.54848e-08 2.96479e-09 3.65726e-09
-1.47224e-08 3.0783e-08 -5.58127e-09
-1.24642e-08 -4.55622e-08 1.14317e-08
-2.58425e-08 2.33485e-08 -1.85886e-09
-2.00419e-09 8.6853e-10 -6.20344e-10
-1.73899e-08 3.72264e-09 8.32676e-10
-1.83829e-08 9.10384e-09 -5.39201e-09
7.84755e-08 5.85612e-09 -2.30351e-08
2.6584e-09 6.93119e-09 1.03376e-08
-4.83214e-08 -3.27242e-10 2.3954e-09
-2.52779e-08 -4.93429e-09 -3.23107e-09
1.90746e-09 -4.6624e-09 -1.49738e-10
5.70326e-08 -3.5586e-09 5.43414e-08
-2.13302e-08 -1.9701e-09 4.58034e-10
-3.28307e-09 -6.65759e-09 1.86731e-09
5.50412e-09 2.90028e-09 -5.2287e-10
-1.04202e-08 1.94297e-08 -1.76739e-08
4.62524e-09 -3.06664e-09 -1.74141e-10
3.93815e-10 -3.19422e-10 -7.97288e-10
-1.32147e-08 -4.58459e-09 -2.79056e-08
2.6926e-09 3.28464e-09 -2.73817e-10
-2.72582e-08 -1.84777e-09 1.01374e-08
-1.87791e-08 1.4742e-08 -8.04891e-09
2.19694e-08 -3.30934e-08 7.2918e-08
1.93116e-08 -8.91682e-09 2.80807e-09
0.0 0.0 -3.8832e-08
-2.0546e-08 1.16893e-09 -2.2338e-09
-1.74128e-08 7.00889e-09 -9.11547e-09
-9.42409e-09 2.24322e-08 -2.65489e-09
-2.877e-08 -1.91784e-08 1.96797e-08
-5.63305e-09 1.06359e-08 -8.99513e-09
2.53996e-08 -4.92816e-09 9.2873e-09
-6.86163e-09 5.11756e-09 -9.19547e-09
-1.51371e-09 -1.24017e-09 5.26607e-10
5.66415e-08 -1.09782e-09 3.61772e-08
-1.45316e-08 5.10941e-07 6.91815e-08
0.0 0.0 -3.8832e-08
-1.39635e-09 -1.04042e-09 2.55149e-09
-3.19232e-09 5.8238e-10 -4.33869e-10
-2.74731e-10 9.77405e-09 -9.84729e-09
8.45211e-09 1.56837e-08 -2.53663e-08
0.0 0.0 -3.8832e-08
0.0 0.0 -3.8832e-08
-2.27182e-09 3.49085e-09 -2.47279e-09
1.09946e-08 -1.83672e-09 -1.34766e-09
