# vtk DataFile Version 3.0
LIGGGHTS particles timestep 5400000
ASCII
DATASET POLYDATA
POINTS 297 float
0.0435912 0.0148209 0.0108227
0.0442221 0.0160549 0.00826884
0.0386262 0.017573 0.0072247
0.0457938 0.0191542 0.00708273
0.0439154 0.0153706 0.00948777
0.0502455 0.0161802 0.00829311
0.0388899 0.0163573 0.00789109
0.044796 0.0160581 0.00826178
0.0508669 0.0187097 0.00699269
0.0453623 0.0169117 0.00798817
0.0455192 0.0179229 0.00744992
0.0378736 0.0150312 0.00955045
0.0440702 0.0156269 0.00885612
0.0381062 0.0149302 0.00985387
0.0444446 0.0158141 0.00856184
0.0376814 0.0148478 0.0104011
0.0441442 0.0157945 0.0085358
0.0508415 0.0173962 0.00737593
0.044239 0.0154822 0.00936187
0.0455809 0.0173448 0.00763523
0.0439768 0.0154629 0.00920944
0.0451318 0.016143 0.00803851
0.0442762 0.0161881 0.00800556
0.0504893 0.017046 0.00753726
0.0454685 0.0162549 0.00795869
0.0505556 0.0173191 0.00742408
0.0451673 0.0186762 0.00719009
0.0506851 0.0178537 0.00718879
0.0509071 0.0176701 0.00727257
0.0445102 0.0160481 0.00838603
0.0449956 0.0171638 0.00765232
0.0451916 0.0169512 0.00773221
0.0386865 0.0172641 0.00761322
0.0452337 0.0177984 0.00746962
0.0509235 0.0190039 0.00697836
0.0448387 0.0161892 0.00799538
0.0443117 0.0155943 0.00909331
0.0507091 0.0168471 0.00758305
0.046039 0.0188914 0.00718168
0.0441779 0.0151098 0.0103542
0.0445762 0.017468 0.00752863
0.0443541 0.01575 0.00884051
0.0463344 0.0188504 0.0072145
0.0503051 0.0163772 0.00807479
0.0503646 0.0165741 0.00785647
0.0441158 0.0153319 0.00970622
0.0455029 0.0170238 0.00773053
0.038795 0.0170199 0.00747686
0.0460743 0.0192598 0.00706865
0.0455331 0.0182317 0.00735413
0.0388331 0.0161756 0.00812285
0.0506498 0.0166312 0.00778269
0.0456488 0.016483 0.00787312
0.0382988 0.0153842 0.00911635
0.0396023 0.0183257 0.00700675
0.0506201 0.0175774 0.0072859
0.0453305 0.0195584 0.00696758
0.050774 0.0171211 0.00747959
0.0456533 0.0167752 0.00780527
0.0439122 0.0151602 0.0100669
0.0448854 0.0168955 0.00772893
0.0457437 0.0188387 0.0071782
0.0504242 0.0167711 0.00763816
0.0448231 0.0167015 0.00805905
0.0387746 0.0159939 0.00835431
0.0450956 0.0174356 0.00757394
0.0449298 0.0164863 0.00786013
0.0452124 0.0164061 0.00791985
0.0508069 0.0184187 0.00703383
0.0376226 0.014829 0.0106947
0.0456271 0.0185067 0.00727431
0.0452994 0.0172298 0.00765221
0.0507484 0.0181299 0.00709027
0.0442016 0.0160874 0.00856635
0.0452717 0.0192676 0.00701186
0.0445116 0.0171872 0.00761223
0.0449193 0.0189689 0.00708159
0.0383026 0.0163004 0.0079332
0.0453601 0.0166533 0.00783679
0.0386012 0.0162913 0.00796097
0.0387296 0.0167568 0.00760518
0.0510598 0.0172116 0.00746702
0.0385612 0.0173055 0.00734382
0.0455564 0.0193639 0.00700098
0.0456581 0.017672 0.00753794
0.0450738 0.0182915 0.00730431
0.0450862 0.0167425 0.00792099
0.0388603 0.0172872 0.00735757
0.0453752 0.0175488 0.0075574
0.044408 0.016753 0.00777935
0.0454602 0.0187412 0.00718956
0.0443379 0.0164461 0.0078657
0.0505884 0.0164186 0.00798522
0.0387164 0.0158123 0.00858583
0.0446906 0.0166544 0.00779404
0.0385473 0.0161093 0.00819322
0.0450903 0.0160345 0.00831509
0.0434621 0.0146646 0.011384
0.0374932 0.0147783 0.0112784
0.0384306 0.016781 0.00760439
0.0391778 0.0164246 0.00781971
0.0377455 0.0148674 0.0101087
0.0397409 0.0174318 0.00731919
0.0380655 0.0155741 0.0088586
0.0433377 0.0146605 0.0119786
0.0401111 0.0178547 0.00718937
0.0446285 0.0163821 0.00790329
0.0452184 0.0189849 0.00709684
0.0407741 0.0188017 0.00695833
0.0404106 0.0178699 0.00719653
0.0382486 0.0161189 0.00816583
0.0389251 0.0175566 0.00724268
0.0457876 0.0171396 0.00770695
0.0435261 0.0147095 0.0110935
0.0390828 0.0170977 0.00742509
0.0459139 0.016617 0.00781394
0.045383 0.0160894 0.00819398
0.0443732 0.0148992 0.0110436
0.0449725 0.0192517 0.00699659
0.0378085 0.014915 0.00981926
0.0450308 0.0195448 0.00697089
0.0447403 0.0158941 0.00850663
0.0393089 0.0169188 0.00750802
0.0433017 0.0149739 0.01215
0.0453342 0.0184418 0.00727484
0.0381297 0.0157553 0.00862807
0.0452743 0.0180828 0.00738326
0.0384907 0.0159274 0.00842501
0.0449801 0.017972 0.00739807
0.0450279 0.0159233 0.00858669
0.044956 0.0176862 0.00748599
0.0434406 0.0149366 0.011568
0.0379363 0.0152121 0.00931929
0.044731 0.018126 0.00733296
0.0455058 0.0190705 0.00708945
0.0392432 0.0166566 0.00764108
0.0459223 0.0185598 0.00727766
0.038364 0.0155652 0.00888615
0.039017 0.0168352 0.00755787
0.0391167 0.0162432 0.00805074
0.0396065 0.0168868 0.00752903
0.0433993 0.0146631 0.0116841
0.0380001 0.0153935 0.00908905
0.0400016 0.0172953 0.00737683
0.0406233 0.0180752 0.00713486
0.0385896 0.015449 0.00904613
0.0445735 0.0162289 0.00815521
0.038192 0.0159366 0.00839725
0.0439398 0.0149633 0.0106249
0.0398638 0.0167418 0.00758141
0.0321374 0.0157796 0.00855903
0.0386655 0.0165265 0.00778626
0.0395565 0.0180438 0.00710159
0.0383663 0.0165218 0.00774111
0.0389433 0.0156974 0.00874504
0.0389884 0.0178349 0.00715069
0.0407149 0.0185093 0.00698971
0.0384284 0.0157462 0.00865576
0.045013 0.0164282 0.00814289
0.0448017 0.0184055 0.00725016
0.0400611 0.0175742 0.00728357
0.045732 0.0161448 0.00805056
0.0381723 0.0150186 0.00957491
0.0403606 0.0175893 0.00729075
0.044039 0.0157118 0.00913615
0.0390428 0.0181221 0.00708342
0.0454423 0.0165216 0.00809352
0.0393742 0.0171864 0.00738826
0.0390014 0.0158797 0.00851397
0.0387463 0.0181306 0.0070383
0.0407056 0.0178034 0.00723153
0.0406538 0.0175233 0.00732552
0.0405003 0.0189219 0.00698194
0.0398503 0.0179913 0.00713175
0.0332757 0.0181206 0.00702444
0.0459042 0.0163255 0.00788414
0.0408539 0.0182596 0.00708111
0.0446717 0.0157829 0.00877665
0.0396716 0.0171549 0.00741136
0.0389518 0.0165747 0.00769178
0.0452718 0.0163556 0.00827647
0.0459687 0.0169031 0.00774213
0.0382351 0.0152024 0.00934627
0.0448684 0.0186858 0.00716684
0.0394779 0.0164175 0.00786251
0.0447877 0.0163515 0.00832556
0.0393574 0.0160462 0.00831793
0.0373676 0.014732 0.0118633
0.0374293 0.0147546 0.0115705
0.0433711 0.0149387 0.01186
0.0329278 0.0177411 0.00718698
0.0392749 0.017937 0.0071266
0.0394448 0.0174726 0.00729297
0.0401642 0.0187621 0.00698168
0.0392149 0.0176518 0.00722214
0.0438401 0.0152465 0.0097887
0.039796 0.0165222 0.00777415
0.032077 0.0155845 0.00877875
0.039148 0.0173697 0.00731604
0.0390599 0.0160614 0.0082825
0.0403012 0.0173095 0.0073843
0.0384959 0.0170426 0.00747279
0.0445103 0.0150143 0.0108029
0.0404844 0.0183249 0.00704344
0.0388007 0.0183977 0.00716359
0.0453401 0.0159907 0.00847567
0.0398962 0.0182726 0.00703824
0.0395408 0.0166206 0.00765092
0.0393223 0.0182179 0.00703215
0.0447258 0.014983 0.0110094
0.04451 0.0166281 0.00803235
0.0395054 0.0177584 0.00719739
0.0325063 0.0160503 0.00823958
0.0436498 0.0150401 0.0106265
0.0322011 0.0159776 0.00834286
0.0399291 0.0170129 0.00747072
0.0442223 0.0152516 0.009974
0.0402284 0.0170333 0.00747607
0.0375584 0.0148015 0.0109865
0.038654 0.015631 0.00881658
0.0398003 0.0177108 0.00722591
0.038689 0.0178514 0.00713178
0.0332145 0.0178343 0.00715892
0.0392991 0.0158635 0.00854856
0.0445994 0.0156701 0.00904506
0.0399389 0.0185642 0.00697287
0.0399521 0.0191597 0.00702891
0.0327996 0.0172007 0.00741943
0.0319541 0.0151629 0.00918752
0.0327605 0.0182034 0.0070109
0.0324483 0.0168442 0.0075606
0.0325785 0.0173822 0.00732931
0.0322586 0.0161698 0.00811977
0.0323198 0.016371 0.00790591
0.0329879 0.0180234 0.00710541
0.0326323 0.0164397 0.00780089
0.0442233 0.0149869 0.0107199
0.0396124 0.0159538 0.00844624
0.0320154 0.0153743 0.00898374
0.0392409 0.01568 0.00877864
0.0400944 0.0165216 0.00774343
0.0265133 0.0170773 0.00738317
0.0326906 0.0166867 0.00764105
0.0391947 0.0190121 0.00721712
0.0330478 0.0183132 0.00705586
0.0398294 0.018861 0.00700596
0.0402317 0.0190534 0.00700638
0.0328645 0.0174704 0.00730344
0.0462074 0.0165569 0.00779649
0.0396213 0.0195594 0.00708163
0.0392486 0.0187851 0.00702854
0.0334397 0.0176569 0.00724737
0.0395254 0.0189008 0.00702326
0.0396692 0.0161375 0.00821585
0.038856 0.0181453 0.00731713
0.0380439 0.0148572 0.0101381
0.0334982 0.0179401 0.00711324
0.0393852 0.0191785 0.00705588
0.0388166 0.0153316 0.0092034
0.0390504 0.0184094 0.00699762
0.0325672 0.0162453 0.00801995
0.0390861 0.0186126 0.0072153
0.040157 0.0181357 0.00709484
0.0333738 0.0173817 0.0073657
0.038924 0.0188636 0.00724044
0.0405921 0.0172448 0.00741852
0.033151 0.0175616 0.00727626
0.0325135 0.0171132 0.00744497
0.038881 0.0155144 0.0089744
0.033086 0.0172892 0.00739342
0.0328224 0.0185094 0.00708162
0.0402095 0.0184388 0.00700524
0.0328861 0.0187959 0.00714406
0.0396456 0.0186243 0.00699162
0.0391786 0.015497 0.00900802
0.0388537 0.0186612 0.00703033
0.0329904 0.0166957 0.00765072
0.0389003 0.0168492 0.00783391
0.0404356 0.0186301 0.00695706
0.0384608 0.0150833 0.00950405
0.0401633 0.0167555 0.00756871
0.0396723 0.0192654 0.0070514
0.038398 0.0149004 0.00973334
0.0389741 0.0191185 0.0073903
0.0397331 0.016319 0.00798573
0.0326428 0.0176514 0.00721355
0.0389796 0.0192599 0.00708167
0.0438791 0.0150526 0.010345
0.0393674 0.0185119 0.0069933
0.0327032 0.0179304 0.0071213
0.0336668 0.0174816 0.007335
0.0435105 0.0149467 0.0112764
0.0394142 0.016228 0.00808617
0.0385245 0.0152662 0.00927493
0.04042 0.0192866 0.00702019
0.0323913 0.016604 0.00773098
0.0328368 0.0169289 0.00754093

VERTICES 297 594
1 0
1 1
1 2
1 3
1 4
1 5
1 6
1 7
1 8
1 9
1 10
1 11
1 12
1 13
1 14
1 15
1 16
1 17
1 18
1 19
1 20
1 21
1 22
1 23
1 24
1 25
1 26
1 27
1 28
1 29
1 30
1 31
1 32
1 33
1 34
1 35
1 36
1 37
1 38
1 39
1 40
1 41
1 42
1 43
1 44
1 45
1 46
1 47
1 48
1 49
1 50
1 51
1 52
1 53
1 54
1 55
1 56
1 57
1 58
1 59
1 60
1 61
1 62
1 63
1 64
1 65
1 66
1 67
1 68
1 69
1 70
1 71
1 72
1 73
1 74
1 75
1 76
1 77
1 78
1 79
1 80
1 81
1 82
1 83
1 84
1 85
1 86
1 87
1 88
1 89
1 90
1 91
1 92
1 93
1 94
1 95
1 96
1 97
1 98
1 99
1 100
1 101
1 102
1 103
1 104
1 105
1 106
1 107
1 108
1 109
1 110
1 111
1 112
1 113
1 114
1 115
1 116
1 117
1 118
1 119
1 120
1 121
1 122
1 123
1 124
1 125
1 126
1 127
1 128
1 129
1 130
1 131
1 132
1 133
1 134
1 135
1 136
1 137
1 138
1 139
1 140
1 141
1 142
1 143
1 144
1 145
1 146
1 147
1 148
1 149
1 150
1 151
1 152
1 153
1 154
1 155
1 156
1 157
1 158
1 159
1 160
1 161
1 162
1 163
1 164
1 165
1 166
1 167
1 168
1 169
1 170
1 171
1 172
1 173
1 174
1 175
1 176
1 177
1 178
1 179
1 180
1 181
1 182
1 183
1 184
1 185
1 186
1 187
1 188
1 189
1 190
1 191
1 192
1 193
1 194
1 195
1 196
1 197
1 198
1 199
1 200
1 201
1 202
1 203
1 204
1 205
1 206
1 207
1 208
1 209
1 210
1 211
1 212
1 213
1 214
1 215
1 216
1 217
1 218
1 219
1 220
1 221
1 222
1 223
1 224
1 225
1 226
1 227
1 228
1 229
1 230
1 231
1 232
1 233
1 234
1 235
1 236
1 237
1 238
1 239
1 240
1 241
1 242
1 243
1 244
1 245
1 246
1 247
1 248
1 249
1 250
1 251
1 252
1 253
1 254
1 255
1 256
1 257
1 258
1 259
1 260
1 261
1 262
1 263
1 264
1 265
1 266
1 267
1 268
1 269
1 270
1 271
1 272
1 273
1 274
1 275
1 276
1 277
1 278
1 279
1 280
1 281
1 282
1 283
1 284
1 285
1 286
1 287
1 288
1 289
1 290
1 291
1 292
1 293
1 294
1 295
1 296

POINT_DATA 297
SCALARS id int 1
LOOKUP_TABLE default
1
2
3
4
5
6
7
8
9
10
11
12
13
14
15
16
17
18
19
20
21
22
23
24
25
26
27
28
29
30
31
32
33
34
35
36
37
38
39
40
41
42
43
44
45
46
47
48
49
50
51
52
53
54
55
56
57
58
59
60
61
62
63
64
65
66
67
68
69
70
71
72
73
74
75
76
77
78
80
81
82
83
84
85
86
87
88
89
90
91
92
93
94
95
96
97
98
99
100
101
102
103
104
105
106
107
108
109
110
111
112
113
114
115
116
117
118
119
120
121
122
123
124
125
126
127
128
129
130
131
132
133
134
135
136
137
138
139
140
141
142
143
144
145
146
147
148
149
150
151
152
153
154
155
156
157
158
159
160
161
162
163
164
165
167
168
169
170
171
172
173
174
175
176
177
178
179
180
181
182
183
185
186
187
188
189
190
191
192
193
194
195
196
197
198
199
200
201
202
203
204
205
206
207
208
209
210
211
212
213
214
215
216
217
218
219
220
221
222
223
224
225
226
227
228
229
230
231
232
233
234
235
236
237
238
239
240
241
242
243
244
245
246
247
248
249
250
251
252
253
254
255
256
257
258
259
260
261
262
263
264
265
266
267
268
269
270
271
272
273
274
275
276
277
278
279
280
281
282
283
284
285
286
287
288
289
290
291
292
293
294
295
296
297
298
299
300

SCALARS type int 1
LOOKUP_TABLE default
1
1
1
1
1
1
1
1
1
1
1
1
1
1
1
1
1
1
1
1
1
1
1
1
1
1
1
1
1
1
1
1
1
1
1
1
1
1
1
1
1
1
1
1
1
1
1
1
1
1
1
1
1
1
1
1
1
1
1
1
1
1
1
1
1
1
1
1
1
1
1
1
1
1
1
1
1
1
1
1
1
1
1
1
1
1
1
1
1
1
1
1
1
1
1
1
1
1
1
1
1
1
1
1
1
1
1
1
1
1
1
1
1
1
1
1
1
1
1
1
1
1
1
1
1
1
1
1
1
1
1
1
1
1
1
1
1
1
1
1
1
1
1
1
1
1
1
1
1
1
1
1
1
1
1
1
1
1
1
1
1
1
1
1
1
1
1
1
1
1
1
1
1
1
1
1
1
1
1
1
1
1
1
1
1
1
1
1
1
1
1
1
1
1
1
1
1
1
1
1
1
1
1
1
1
1
1
1
1
1
1
1
1
1
1
1
1
1
1
1
1
1
1
1
1
1
1
1
1
1
1
1
1
1
1
1
1
1
1
1
1
1
1
1
1
1
1
1
1
1
1
1
1
1
1
1
1
1
1
1
1
1
1
1
1
1
1
1
1
1
1
1
1
1
1
1
1
1
1
1
1
1
1
1
1
1
1
1
1
1
1
1
1
1
1
1
1

SCALARS radius float 1
LOOKUP_TABLE default
0.00015
0.00015
0.00015
0.00015
0.00015
0.00015
0.00015
0.00015
0.00015
0.00015
0.00015
0.00015
0.00015
0.00015
0.00015
0.00015
0.00015
0.00015
0.00015
0.00015
0.00015
0.00015
0.00015
0.00015
0.00015
0.00015
0.00015
0.00015
0.00015
0.00015
0.00015
0.00015
0.00015
0.00015
0.00015
0.00015
0.00015
0.00015
0.00015
0.00015
0.00015
0.00015
0.00015
0.00015
0.00015
0.00015
0.00015
0.00015
0.00015
0.00015
0.00015
0.00015
0.00015
0.00015
0.00015
0.00015
0.00015
0.00015
0.00015
0.00015
0.00015
0.00015
0.00015
0.00015
0.00015
0.00015
0.00015
0.00015
0.00015
0.00015
0.00015
0.00015
0.00015
0.00015
0.00015
0.00015
0.00015
0.00015
0.00015
0.00015
0.00015
0.00015
0.00015
0.00015
0.00015
0.00015
0.00015
0.00015
0.00015
0.00015
0.00015
0.00015
0.00015
0.00015
0.00015
0.00015
0.00015
0.00015
0.00015
0.00015
0.00015
0.00015
0.00015
0.00015
0.00015
0.00015
0.00015
0.00015
0.00015
0.00015
0.00015
0.00015
0.00015
0.00015
0.00015
0.00015
0.00015
0.00015
0.00015
0.00015
0.00015
0.00015
0.00015
0.00015
0.00015
0.00015
0.00015
0.00015
0.00015
0.00015
0.00015
0.00015
0.00015
0.00015
0.00015
0.00015
0.00015
0.00015
0.00015
0.00015
0.00015
0.00015
0.00015
0.00015
0.00015
0.00015
0.00015
0.00015
0.00015
0.00015
0.00015
0.00015
0.00015
0.00015
0.00015
0.00015
0.00015
0.00015
0.00015
0.00015
0.00015
0.00015
0.00015
0.00015
0.00015
0.00015
0.00015
0.00015
0.00015
0.00015
0.00015
0.00015
0.00015
0.00015
0.00015
0.00015
0.00015
0.00015
0.00015
0.00015
0.00015
0.00015
0.00015
0.00015
0.00015
0.00015
0.00015
0.00015
0.00015
0.00015
0.00015
0.00015
0.00015
0.00015
0.00015
0.00015
0.00015
0.00015
0.00015
0.00015
0.00015
0.00015
0.00015
0.00015
0.00015
0.00015
0.00015
0.00015
0.00015
0.00015
0.00015
0.00015
0.00015
0.00015
0.00015
0.00015
0.00015
0.00015
0.00015
0.00015
0.00015
0.00015
0.00015
0.00015
0.00015
0.00015
0.00015
0.00015
0.00015
0.00015
0.00015
0.00015
0.00015
0.00015
0.00015
0.00015
0.00015
0.00015
0.00015
0.00015
0.00015
0.00015
0.00015
0.00015
0.00015
0.00015
0.00015
0.00015
0.00015
0.00015
0.00015
0.00015
0.00015
0.00015
0.00015
0.00015
0.00015
0.00015
0.00015
0.00015
0.00015
0.00015
0.00015
0.00015
0.00015
0.00015
0.00015
0.00015
0.00015
0.00015
0.00015
0.00015
0.00015
0.00015
0.00015
0.00015
0.00015
0.00015
0.00015
0.00015
0.00015
0.00015
0.00015
0.00015
0.00015
0.00015
0.00015
0.00015
0.00015
0.00015
0.00015
0.00015
0.00015
0.00015
0.00015
0.00015
0.00015

SCALARS mass float 1
LOOKUP_TABLE default
3.95841e-09
3.95841e-09
3.95841e-09
3.95841e-09
3.95841e-09
3.95841e-09
3.95841e-09
3.95841e-09
3.95841e-09
3.95841e-09
3.95841e-09
3.95841e-09
3.95841e-09
3.95841e-09
3.95841e-09
3.95841e-09
3.95841e-09
3.95841e-09
3.95841e-09
3.95841e-09
3.95841e-09
3.95841e-09
3.95841e-09
3.95841e-09
3.95841e-09
3.95841e-09
3.95841e-09
3.95841e-09
3.95841e-09
3.95841e-09
3.95841e-09
3.95841e-09
3.95841e-09
3.95841e-09
3.95841e-09
3.95841e-09
3.95841e-09
3.95841e-09
3.95841e-09
3.95841e-09
3.95841e-09
3.95841e-09
3.95841e-09
3.95841e-09
3.95841e-09
3.95841e-09
3.95841e-09
3.95841e-09
3.95841e-09
3.95841e-09
3.95841e-09
3.95841e-09
3.95841e-09
3.95841e-09
3.95841e-09
3.95841e-09
3.95841e-09
3.95841e-09
3.95841e-09
3.95841e-09
3.95841e-09
3.95841e-09
3.95841e-09
3.95841e-09
3.95841e-09
3.95841e-09
3.95841e-09
3.95841e-09
3.95841e-09
3.95841e-09
3.95841e-09
3.95841e-09
3.95841e-09
3.95841e-09
3.95841e-09
3.95841e-09
3.95841e-09
3.95841e-09
3.95841e-09
3.95841e-09
3.95841e-09
3.95841e-09
3.95841e-09
3.95841e-09
3.95841e-09
3.95841e-09
3.95841e-09
3.95841e-09
3.95841e-09
3.95841e-09
3.95841e-09
3.95841e-09
3.95841e-09
3.95841e-09
3.95841e-09
3.95841e-09
3.95841e-09
3.95841e-09
3.95841e-09
3.95841e-09
3.95841e-09
3.95841e-09
3.95841e-09
3.95841e-09
3.95841e-09
3.95841e-09
3.95841e-09
3.95841e-09
3.95841e-09
3.95841e-09
3.95841e-09
3.95841e-09
3.95841e-09
3.95841e-09
3.95841e-09
3.95841e-09
3.95841e-09
3.95841e-09
3.95841e-09
3.95841e-09
3.95841e-09
3.95841e-09
3.95841e-09
3.95841e-09
3.95841e-09
3.95841e-09
3.95841e-09
3.95841e-09
3.95841e-09
3.95841e-09
3.95841e-09
3.95841e-09
3.95841e-09
3.95841e-09
3.95841e-09
3.95841e-09
3.95841e-09
3.95841e-09
3.95841e-09
3.95841e-09
3.95841e-09
3.95841e-09
3.95841e-09
3.95841e-09
3.95841e-09
3.95841e-09
3.95841e-09
3.95841e-09
3.95841e-09
3.95841e-09
3.95841e-09
3.95841e-09
3.95841e-09
3.95841e-09
3.95841e-09
3.95841e-09
3.95841e-09
3.95841e-09
3.95841e-09
3.95841e-09
3.95841e-09
3.95841e-09
3.95841e-09
3.95841e-09
3.95841e-09
3.95841e-09
3.95841e-09
3.95841e-09
3.95841e-09
3.95841e-09
3.95841e-09
3.95841e-09
3.95841e-09
3.95841e-09
3.95841e-09
3.95841e-09
3.95841e-09
3.95841e-09
3.95841e-09
3.95841e-09
3.95841e-09
3.95841e-09
3.95841e-09
3.95841e-09
3.95841e-09
3.95841e-09
3.95841e-09
3.95841e-09
3.95841e-09
3.95841e-09
3.95841e-09
3.95841e-09
3.95841e-09
3.95841e-09
3.95841e-09
3.95841e-09
3.95841e-09
3.95841e-09
3.95841e-09
3.95841e-09
3.95841e-09
3.95841e-09
3.95841e-09
3.95841e-09
3.95841e-09
3.95841e-09
3.95841e-09
3.95841e-09
3.95841e-09
3.95841e-09
3.95841e-09
3.95841e-09
3.95841e-09
3.95841e-09
3.95841e-09
3.95841e-09
3.95841e-09
3.95841e-09
3.95841e-09
3.95841e-09
3.95841e-09
3.95841e-09
3.95841e-09
3.95841e-09
3.95841e-09
3.95841e-09
3.95841e-09
3.95841e-09
3.95841e-09
3.95841e-09
3.95841e-09
3.95841e-09
3.95841e-09
3.95841e-09
3.95841e-09
3.95841e-09
3.95841e-09
3.95841e-09
3.95841e-09
3.95841e-09
3.95841e-09
3.95841e-09
3.95841e-09
3.95841e-09
3.95841e-09
3.95841e-09
3.95841e-09
3.95841e-09
3.95841e-09
3.95841e-09
3.95841e-09
3.95841e-09
3.95841e-09
3.95841e-09
3.95841e-09
3.95841e-09
3.95841e-09
3.95841e-09
3.95841e-09
3.95841e-09
3.95841e-09
3.95841e-09
3.95841e-09
3.95841e-09
3.95841e-09
3.95841e-09
3.95841e-09
3.95841e-09
3.95841e-09
3.95841e-09
3.95841e-09
3.95841e-09
3.95841e-09
3.95841e-09
3.95841e-09
3.95841e-09
3.95841e-09
3.95841e-09
3.95841e-09
3.95841e-09
3.95841e-09
3.95841e-09
3.95841e-09
3.95841e-09
3.95841e-09
3.95841e-09
3.95841e-09
3.95841e-09
3.95841e-09
3.95841e-09
3.95841e-09
3.95841e-09
3.95841e-09
3.95841e-09
3.95841e-09
3.95841e-09
3.95841e-09

VECTORS velocity float
0.00473031 -0.000849415 0.00570831
0.000983516 -0.0146516 0.0204383
0.00517699 -0.00437316 0.00170969
0.00400328 0.00390398 -0.000951768
0.00236494 -0.00677958 0.0178419
0.00536178 -0.000757496 -5.69137e-05
0.00498503 -0.00069552 0.00105459
0.00847461 -0.00530472 0.018259
0.00526199 -0.000791596 -5.88237e-05
0.0021317 -0.0072214 0.00261931
0.00610652 -0.00170699 0.000950135
0.00497933 -0.00294126 0.00421946
0.0160162 0.0148593 -0.00404012
0.00598629 -0.000528659 0.000810589
0.007003 -0.00541092 0.0185458
0.00479652 0.000209472 0.00523542
0.00304288 -0.00764021 0.0101565
0.00588231 -0.000505607 0.00068098
0.00376043 -0.00634419 0.0191526
0.00215931 -0.000689872 0.000370971
0.00199525 -0.00674523 0.0167209
0.00781607 -0.00380743 0.0153876
0.00244571 -0.014844 0.0198128
0.00586228 -0.000473598 0.000613419
0.00814059 -0.00570434 0.00538831
0.00583685 -0.00048202 0.000671868
0.00586572 -0.000611232 0.000590951
0.00586947 -0.000784855 -8.14286e-05
0.00582372 -0.000494788 0.000671072
0.00694066 -0.0049971 0.0198111
0.000552875 -0.00223931 0.000742756
0.00134883 -0.00168239 0.000599386
0.0048352 -0.00209868 0.000163355
0.00221317 -0.000760978 0.000393857
0.00535327 -0.000802523 7.74861e-05
0.00647868 -0.00804009 0.016601
0.00526804 -0.00563298 0.01921
0.00588503 -0.000438029 0.000648477
0.00449118 0.00511526 -0.00129786
0.00516184 0.00907218 -0.0221224
0.00547682 -0.00125643 0.000764352
0.00648364 -0.00508612 0.0181798
0.00451742 0.00518674 -0.00131959
0.0055622 -0.000790498 -5.77054e-05
0.00572036 -0.000836019 -5.24225e-05
0.0028606 -0.00612547 0.0178149
0.00290123 -0.00193364 0.000800744
0.00474434 -0.0020777 0.000927587
0.00275521 0.00582445 -0.00164176
0.00591172 -0.000377109 0.000519358
0.0047964 -0.00054855 0.000933167
0.00579814 -0.000593156 0.000436561
0.00189877 -0.00196499 0.000261209
0.00531542 -0.000495918 0.000863798
0.00500682 -0.0027755 0.0011786
0.00587615 -0.000511378 0.000679676
0.00525845 -0.000659964 -0.000202081
0.00583624 -0.00045015 0.000635895
0.00359229 -0.00179322 0.000194162
0.00150134 -0.00536551 0.0156022
-0.00100113 -0.00172186 0.000453203
0.00477061 0.00349221 -0.000773454
0.00587199 -0.000860029 -2.62778e-05
0.00562796 -0.00822635 0.00429678
0.00443792 -0.000471016 0.000846376
0.0019908 -0.00275201 0.0010003
0.00633648 -0.0116564 0.00388228
0.00704096 -0.006527 0.00855341
0.00535093 -0.00081512 -0.000105386
0.00435085 -2.18301e-05 0.00510453
0.00553044 0.00130051 -3.24517e-05
0.00206494 -0.00271831 0.000977461
0.00550543 -0.00098447 -0.000850131
0.00150724 -0.0081766 0.0201334
0.00518663 -0.000472525 0.000498256
0.00552848 -0.00126637 0.000770973
0.00513553 -0.0019311 0.000907344
0.00512342 -0.00236056 0.00304134
0.00518588 -0.00725306 0.00257812
0.00528446 -0.000866718 0.0012796
0.00497139 -0.00181299 0.00105291
0.00588957 -0.000498877 0.000678597
0.00543623 -0.00531283 -0.000304558
0.00548321 0.0011139 2.40505e-05
0.00520972 -0.002258 0.00105922
0.00625366 -0.00114654 0.000766687
0.00417736 -0.00680303 0.00164184
0.00494319 -0.00206834 0.00094959
0.00186487 -0.000999722 0.000342852
0.000820412 -0.0192571 0.0127527
0.005542 0.00136177 -4.55499e-05
0.00114592 -0.0171342 0.0141457
0.00559665 -0.000901075 5.21389e-05
0.00417464 -0.00044361 0.000791856
0.00237416 -0.0158313 0.00714238
0.00545863 -0.000706022 0.00119671
0.00976512 -0.00390605 0.0158482
0.00386279 0.000968095 0.00790497
0.00334403 -0.000275374 0.00499859
0.00492813 -0.00453975 0.000893293
0.0064471 -0.000307009 0.000752018
0.00452567 -0.000115322 0.00493845
0.00624218 -0.000559375 0.000437275
0.00506941 -0.00271933 0.00376576
0.00698043 -9.79499e-05 -0.00761778
0.00535648 0.00114276 -0.000158089
0.0022096 -0.0132917 0.0135963
0.00519956 -0.000384096 0.000461689
0.00444176 0.00267083 7.54453e-05
0.00492066 0.00253334 -0.000673751
0.00458523 -0.00277842 0.002389
0.00554809 -0.00203904 0.000918957
0.00319529 7.25626e-05 -0.000362353
0.00454688 -0.00124388 0.00614549
0.00526473 -0.00197991 0.000874632
0.00209751 0.000325235 -0.000370077
0.0126185 -0.00292816 0.00575269
-0.0021172 -0.00132527 0.00242903
0.00515712 -0.00195779 0.000948794
0.00489954 -0.00187027 0.00461239
0.00523568 -0.00249337 -0.000526534
0.00716862 -0.00467316 0.0181094
0.00591295 -0.0017299 0.000774631
0.00585557 0.00187725 0.0010866
0.00594967 -0.000326675 0.000504415
0.00347818 -0.00186727 0.00258644
0.00635035 -0.00120321 0.000796427
0.00462722 -0.00053217 0.000941073
0.00654763 -0.00257572 0.00126954
0.00829172 -0.00298344 0.0128065
0.0028714 -0.00234235 0.000922213
0.00554626 0.00357019 0.00175574
0.0038485 -0.00237742 0.00326491
0.00652698 -0.00248541 0.00123942
0.00471078 0.00164634 -0.000177408
0.00560407 -0.00108492 0.000415235
0.004553 0.00444629 -0.00108484
0.00516771 -0.000519765 0.000979868
0.0048764 -0.00188937 0.000729449
0.00497841 -0.000505387 0.000909948
0.00642898 -0.000209461 6.60639e-05
0.00680388 -0.000869098 -0.00666815
0.00461353 -0.00370512 0.00297936
0.0066216 0.000734866 -5.96859e-06
0.00742814 0.00126684 -0.000132773
0.00521991 -0.000427071 0.000799392
0.00463693 -0.00811803 0.0171389
0.00312933 -0.0020393 0.00251601
0.00295819 -0.00530683 0.0162337
0.00672549 9.49156e-05 -0.000122682
0.00544927 -0.00057284 0.000401406
0.00503448 -0.00121585 0.00108673
0.00529646 -0.000106041 0.000159172
0.00616518 -0.00382581 0.00224402
0.00453826 -0.000254458 0.000528187
0.00583586 -0.00204754 0.000799972
0.00623381 0.00221816 -0.000494581
0.0043822 -0.000469217 0.000850494
0.00576435 -0.00530475 0.00683721
0.00564307 -0.00237879 0.00110644
0.0041389 0.00115437 -0.000222857
0.0102602 -0.00235632 0.00383201
0.00545593 -0.000389409 0.000693763
0.00396111 0.0023784 -0.000652275
0.00401509 -0.00932089 0.0103766
0.00491585 -0.00194799 0.000399754
0.00806338 -0.0039823 0.00213203
0.00677629 -0.00121655 0.000701291
0.00460232 -0.000325377 0.000639742
0.00471652 -0.0039301 0.00164498
0.00621764 0.000964553 -7.29575e-05
0.00470032 0.00134426 -0.000266206
0.00363357 0.000915631 -8.18811e-05
0.0054121 0.00059727 3.56244e-05
0.0053916 -0.000249049 4.24619e-05
0.00374947 0.000376037 5.79667e-05
0.00666138 0.00243545 -0.000575034
0.00618711 -0.00526232 0.0172905
0.00696412 -0.000517114 0.000436755
0.00531779 -0.00215321 0.000558417
0.00808363 -0.00398835 0.00311874
0.00334952 0.000127884 -0.000408269
0.00496409 -0.000746339 0.000388379
0.00580282 -0.00203776 0.001063
0.00584685 0.00020348 -0.000242667
0.00952583 -0.00521822 0.0101876
0.0050201 0.00060502 -0.00046632
0.00355124 -0.000291015 0.00523148
0.00325466 -0.000327502 0.0050687
0.00594902 0.00266469 0.000129177
0.00550225 -0.000364204 0.0004078
0.00578129 -0.00251474 0.00111867
0.0061978 -0.00189611 0.000907585
0.00473151 -0.000483077 -0.000259843
0.0059278 -0.00221415 0.000848657
0.00169684 -0.00595003 0.0170917
0.00603583 0.000289132 -0.00033217
0.00545721 -0.00049951 0.000537421
0.00586095 -0.00202078 0.00095897
0.00487833 -0.000412712 0.000803529
0.00615441 0.00150629 -0.000263717
0.00538829 -0.00585644 -0.00101703
0.00540608 -0.00143025 0.00678526
0.007139 0.00113788 -7.99113e-05
0.00547188 -0.00330493 0.000633663
0.015071 -0.00512934 0.00231306
0.0062357 -0.00205553 -0.0050191
0.00589978 6.48143e-05 -0.000165287
0.00448716 -0.00108243 0.000299036
0.00891091 0.000680775 0.00306398
0.00691589 -0.0190839 0.010899
0.00606292 -0.00271165 0.00121162
0.00565419 -0.000612264 0.000391312
0.00456407 0.000127523 0.0050249
0.00555975 -0.000604563 0.000366868
0.00773429 0.000278672 0.000207362
-0.000918109 -0.0070564 0.0180161
0.00784675 0.00131684 -0.000137589
0.00375275 -0.000189078 0.00501684
0.00464018 -0.000428788 0.000790867
0.00394707 0.000767441 -9.88285e-05
0.0032768 -0.00362502 0.00137667
0.00543507 -0.000337654 0.000397497
0.0047948 0.000720914 -0.000520347
0.0062467 -0.00500054 0.0170945
0.00589893 -0.00181804 -0.000426442
0.00403892 0.000935638 -8.43631e-05
0.00590775 -0.000527169 0.000500606
0.0055591 -0.000434958 0.000745389
0.00546918 -0.000553616 0.000260671
0.00596551 -0.00054821 0.000517346
0.00592998 -0.000526012 0.000501832
0.00570472 -0.000600993 0.000374954
0.00582336 -0.00058892 0.000410988
0.00543209 -0.000358585 0.000397223
0.00590369 -0.000627887 0.000378098
0.00418524 -0.00327729 0.0118382
0.00539877 0.000862964 -0.000838616
0.00555578 -0.00039626 0.000714892
0.00478598 0.000654857 -0.000567059
0.00599181 0.00117226 -0.000997288
0.00609983 -0.000418987 0.000174115
0.00593729 -0.00054866 0.00050972
0.00586229 -0.00163431 -0.001404
0.00536074 -0.000348912 0.000402685
0.00196734 0.000188964 -6.64871e-05
0.00352879 -0.000376988 -0.000196354
0.00558771 -0.000353014 0.0004091
0.0020626 -0.000315082 -0.00015765
0.000443814 0.00137853 0.000104197
0.00843007 -0.000263513 -0.00220672
0.00541442 -0.000334846 0.000390453
0.00849062 -0.000169853 -0.000391045
0.00552576 0.000360895 -0.000226441
0.00509046 -0.00426304 0.00133109
0.00489158 -0.00018485 0.000680617
0.00539267 -0.000238489 3.80467e-05
0.00500151 0.000619148 -0.000164549
0.00532573 -0.000334923 0.00064591
0.00405111 -0.00222016 -0.00048455
0.00579936 -0.000620224 0.000389355
0.00502553 -0.00170941 -0.00151388
0.00702218 0.00142413 -0.000198248
0.00565134 -0.000185118 0.000339204
0.00476745 -0.00227329 -0.0018213
0.00603915 0.00124442 -0.000173124
0.00557659 -0.000275038 0.000373644
0.00595755 -0.000538542 0.000511931
0.0049025 -0.00028601 0.000569584
0.00569476 -0.000199135 0.000347903
0.00531176 -0.000408975 0.000404226
0.00653247 -0.000766635 -0.0016247
0.00541533 -0.000446629 0.000387517
0.00574294 -0.00268965 -0.000522565
0.00506656 0.000537577 -0.000479111
0.00488498 -0.00387588 -0.000424279
0.00589587 -0.00051001 0.000499013
0.00473745 -0.00133368 0.000868888
0.00567194 0.000596372 -0.000179234
0.00515125 -0.000294107 0.000563306
0.00667735 0.00149996 -0.000262333
0.00454253 0.00213705 3.02122e-05
0.00571331 -0.000268609 0.000557715
0.00515203 -0.00277981 -0.0016681
0.00578744 0.00033101 -3.86926e-05
0.0055354 -0.000453045 0.000447492
0.00474316 -0.00454928 -0.00064341
0.00147959 -0.00548606 0.016036
0.00533829 -0.00158272 -0.000350931
0.00547892 -0.000530638 0.000232435
0.00539457 -0.000329682 0.00039167
0.00578291 0.00284996 0.00151883
0.00522598 0.000456911 -0.000376871
0.00527296 -0.000446241 0.000731966
0.00174092 0.000998716 1.53689e-05
0.00591118 -0.000569284 0.000478808
0.00586517 -0.000524353 0.000497008

VECTORS force float
1.13679e-07 1.00045e-07 7.43044e-08
1.26989e-08 7.25848e-08 -5.27713e-08
-1.41757e-08 -7.63393e-09 4.28355e-09
-2.12696e-08 -1.87528e-08 7.86765e-09
-8.16759e-07 1.09682e-07 6.33391e-08
-5.10257e-09 2.72112e-09 -2.19328e-09
3.31768e-08 -3.05114e-08 4.11195e-08
-9.16639e-08 -1.75588e-07 -4.12727e-08
-8.44585e-10 -2.07482e-09 -1.98615e-09
-2.61959e-08 8.72675e-09 -1.72359e-10
3.66566e-09 -1.59973e-08 6.52049e-09
3.05671e-09 8.1593e-09 -2.99027e-08
8.76504e-07 5.80327e-07 -4.08581e-06
1.73957e-08 -2.90101e-10 -1.60906e-08
1.78667e-07 6.16569e-08 -3.14889e-07
9.23549e-09 -2.484e-09 -3.17448e-08
-3.16434e-08 -1.64949e-08 1.59488e-08
-1.19531e-09 6.14699e-10 -2.62051e-10
1.76969e-08 1.40686e-09 1.50906e-07
5.64792e-09 -2.65806e-08 7.38271e-09
5.46182e-07 1.3168e-06 -1.65451e-06
-5.47514e-08 3.22159e-09 7.02789e-08
6.05121e-08 8.75233e-08 1.5319e-08
-5.92859e-10 5.44205e-10 6.16183e-09
-1.90822e-09 1.84194e-09 -2.5251e-08
2.3708e-09 2.41619e-09 -2.19295e-09
1.93783e-09 -4.74113e-09 1.07898e-10
1.47121e-10 -7.6601e-10 -2.96769e-09
-3.73641e-10 2.83147e-10 -3.43462e-10
-8.85054e-08 1.28603e-07 -2.8053e-07
-7.99615e-09 2.52863e-08 -8.61396e-09
-1.20378e-08 2.21755e-08 -1.19993e-08
-5.58782e-08 1.03364e-07 6.19038e-08
-1.13414e-08 -1.57366e-08 2.36252e-09
-9.6899e-10 -2.43931e-09 -1.07373e-09
-1.01562e-07 -1.14857e-07 -5.21237e-08
4.56665e-08 -1.97087e-07 2.24265e-07
-8.97995e-11 8.41824e-10 1.37013e-10
-1.08707e-08 -4.22645e-09 6.85427e-10
-3.80585e-09 9.60175e-09 -2.85895e-08
-1.03884e-11 1.42602e-11 2.26699e-12
-3.00898e-07 4.27486e-08 3.45033e-08
-1.42356e-08 -2.66823e-09 -2.6669e-10
-2.97089e-09 2.37765e-09 -4.0091e-09
-1.34245e-09 3.14734e-09 1.25148e-09
-7.36031e-07 -8.17118e-07 1.46459e-07
-1.75509e-08 2.11916e-08 -7.47807e-09
-2.09393e-08 -2.19127e-08 -5.91481e-09
2.60035e-08 1.61454e-08 -4.68049e-09
-1.50861e-08 6.21785e-09 -2.67627e-09
2.1302e-08 -1.88967e-08 1.80144e-08
-4.77135e-09 4.90997e-09 -2.50783e-09
-8.4159e-09 2.07741e-08 -6.16072e-09
1.58595e-09 -2.7515e-09 1.06405e-08
-1.88502e-08 2.2716e-08 -4.70375e-09
-5.91591e-10 1.39409e-09 -5.06955e-10
2.47513e-08 -7.8811e-09 3.39387e-09
-3.1959e-09 -7.08719e-10 9.86638e-10
0.0 0.0 -3.8832e-08
-9.89924e-09 1.64688e-08 -3.73061e-08
7.26283e-09 2.93238e-08 -4.75334e-09
-6.50789e-09 1.32282e-08 -4.11587e-09
-5.12005e-10 -1.18158e-09 -1.23543e-09
0.0 0.0 -3.8832e-08
2.55381e-08 -2.67216e-09 6.04535e-09
-9.08059e-09 1.72312e-08 -5.94302e-09
-1.33753e-08 3.26084e-08 1.04263e-09
-9.91816e-09 2.8879e-08 4.46244e-08
-4.77525e-10 -1.60761e-09 2.87075e-10
0.0 0.0 -3.8832e-08
-1.81242e-08 2.44144e-08 -8.74848e-09
-1.1692e-08 2.48729e-08 -8.35648e-09
-3.66542e-10 -2.63869e-09 -6.61725e-09
-1.0292e-08 1.9019e-08 4.32735e-08
-9.03346e-11 4.82782e-09 -1.66154e-08
8.53908e-12 9.8485e-12 -1.12208e-11
-7.46333e-09 -1.33772e-08 1.56397e-10
-1.59416e-08 -9.90696e-09 -8.71654e-10
-2.15533e-08 7.59607e-08 -3.08192e-08
-4.22795e-08 -2.64991e-08 2.45742e-08
4.49415e-08 -3.21969e-08 6.61749e-08
-1.85068e-09 1.89778e-10 -2.32974e-10
-1.43776e-08 -2.53636e-09 -4.33726e-08
-2.11041e-08 7.58056e-09 -2.66932e-09
2.93013e-08 -1.88601e-08 7.07594e-09
4.39459e-08 4.95421e-08 -8.17609e-09
0.0 0.0 -3.8832e-08
-1.42692e-08 -1.44174e-08 -2.02787e-08
4.69368e-09 -2.50575e-08 -5.61738e-09
1.41785e-09 7.18069e-08 1.63547e-08
2.57028e-09 -1.05794e-08 3.34408e-09
-3.40158e-08 -1.11271e-07 -1.45338e-07
4.37615e-09 2.18943e-09 -3.54795e-09
3.97532e-09 4.74299e-09 -4.50846e-09
-6.22877e-09 3.96523e-08 5.61342e-08
-5.75736e-08 -2.15222e-08 2.44915e-08
-1.28173e-09 -1.19019e-08 5.56134e-08
0.0 0.0 -3.8832e-08
0.0 0.0 -3.8832e-08
2.99961e-08 4.71039e-08 -5.39064e-09
-8.46683e-09 6.84977e-09 -1.56253e-08
-5.90189e-09 9.45142e-10 -4.35022e-08
5.03214e-09 1.05002e-08 2.8571e-09
-8.40139e-10 6.55464e-09 -2.59079e-09
2.26882e-08 -9.17866e-10 -2.09355e-08
5.72051e-08 -3.67014e-08 1.97695e-08
-5.19645e-08 -8.92103e-08 -1.01765e-07
-8.21757e-10 -1.17487e-08 -3.50266e-09
-1.17823e-08 5.98771e-10 -4.76084e-10
1.08039e-07 -1.20906e-08 7.914e-09
-1.72378e-08 6.22912e-08 2.76052e-08
-2.21997e-08 1.17765e-08 2.41518e-09
7.79059e-09 -6.01612e-09 1.11035e-08
2.00298e-08 -1.023e-08 3.40835e-09
4.85138e-09 2.11343e-08 -2.23961e-08
-9.63576e-09 5.90014e-09 1.25145e-09
0.0 0.0 -3.8832e-08
4.48088e-09 2.71603e-09 -1.48092e-08
6.68907e-09 -1.58605e-08 7.57156e-09
9.13754e-09 -2.73977e-09 -3.19287e-08
-1.82974e-09 -1.97596e-08 -1.36199e-08
1.30308e-08 -6.1969e-08 6.26729e-08
-2.09326e-08 1.11507e-08 -1.54295e-08
7.70745e-09 2.682e-10 -3.22842e-08
1.49755e-08 2.21565e-09 3.59484e-10
-1.02763e-08 2.54574e-08 -3.0189e-08
-1.65661e-09 -4.47814e-09 -1.14895e-09
2.04369e-08 -2.23098e-08 3.09951e-08
1.4112e-08 1.48575e-08 -3.84908e-09
7.01559e-08 -2.13411e-09 3.73707e-08
-1.28849e-08 7.68483e-09 -1.7936e-09
-8.51111e-09 1.15456e-08 -2.40822e-09
-8.71829e-09 2.31829e-08 -3.14691e-08
-5.4629e-09 -1.75644e-08 -2.80848e-09
2.82405e-09 -1.1093e-09 -5.28452e-10
1.24845e-08 -5.51313e-08 1.41741e-08
3.78584e-09 -2.76562e-08 8.81604e-09
2.9154e-09 9.58275e-09 6.57483e-09
2.61295e-08 -1.68762e-08 1.57198e-08
1.66984e-08 -2.02981e-08 2.40393e-08
-4.82714e-09 -1.14422e-09 1.16788e-08
5.85922e-09 -3.29664e-10 -3.41991e-08
4.19893e-09 -5.51613e-09 -2.69507e-08
-3.49194e-08 -1.60679e-09 2.30781e-09
-1.85126e-08 3.31288e-09 -1.15697e-09
6.71371e-09 1.41662e-08 6.69234e-09
5.60916e-08 -2.03607e-07 -6.1369e-08
-4.50572e-08 5.85968e-08 2.88495e-08
2.26904e-08 3.5596e-08 -8.25972e-08
-4.5215e-09 -3.68983e-08 2.24759e-08
4.49451e-09 1.32067e-09 -2.68196e-09
4.89898e-08 -4.6788e-08 3.54013e-08
-9.01051e-09 3.47962e-08 -2.98963e-08
2.0151e-08 2.77381e-08 9.97828e-09
1.22315e-09 -7.22085e-10 7.83188e-10
-9.702e-09 3.23266e-08 2.27747e-08
-1.72184e-08 1.06225e-09 -2.06788e-09
-8.88878e-09 -8.761e-09 1.56035e-08
1.7612e-07 1.22768e-07 4.34197e-08
-4.54506e-09 -2.73783e-08 8.51053e-09
2.58418e-08 -2.67284e-08 1.03164e-08
4.36351e-09 7.87554e-09 -1.85372e-08
1.82219e-09 1.87148e-08 -1.41747e-08
-1.70085e-08 2.54743e-09 -1.57939e-09
2.83995e-06 4.21873e-06 -6.47082e-06
-1.37621e-08 1.47777e-08 4.26268e-09
-2.32267e-08 -7.40172e-08 1.40237e-09
-2.06166e-08 9.59676e-09 -5.8167e-11
-3.62541e-09 -1.19797e-08 1.31475e-08
5.91711e-09 -9.36969e-09 7.66806e-09
-1.92541e-08 1.04522e-08 -5.28287e-09
2.30177e-08 2.76485e-08 -7.92883e-09
-9.90885e-09 8.24775e-09 2.98504e-09
3.61619e-08 -2.34215e-08 9.55445e-10
1.56449e-09 9.74963e-11 -1.48525e-09
-1.46804e-08 9.90166e-09 -1.11251e-08
-1.37511e-08 -4.67697e-09 4.29463e-10
2.75815e-09 7.78233e-09 8.69904e-08
-2.62516e-08 1.46593e-09 3.69838e-09
-2.03402e-09 -2.25988e-08 -2.75081e-08
0.0 0.0 -3.8832e-08
-1.26242e-08 -2.51101e-09 -1.39009e-09
-7.11454e-09 -2.20501e-08 1.90295e-08
3.17414e-09 -1.69504e-08 1.08699e-08
3.02313e-09 -1.23135e-08 1.16552e-08
1.39748e-07 3.07107e-07 3.92332e-07
-1.74028e-08 -8.4631e-09 9.09199e-09
2.78072e-09 -3.50653e-10 -3.67187e-08
0.0 0.0 -3.8832e-08
8.08628e-09 -2.02623e-10 -3.20564e-08
8.25233e-10 -5.62009e-10 2.37377e-10
-1.37881e-09 1.47031e-09 -3.64156e-08
1.59819e-08 4.03888e-08 -1.4879e-08
-1.77685e-08 -1.83217e-09 1.24175e-09
-8.60131e-09 3.79434e-08 -8.07115e-09
3.95055e-08 5.00177e-09 -1.17429e-08
2.722e-08 -3.47453e-08 2.1396e-08
2.61138e-09 1.34167e-09 3.33654e-09
-2.92729e-08 3.97023e-09 -8.12832e-09
-3.64238e-09 -1.52049e-08 1.73963e-08
3.84975e-08 -4.47857e-10 -3.54947e-09
1.40825e-10 -2.26826e-09 -3.54711e-08
-2.77252e-08 2.75941e-09 -3.61572e-08
-2.13297e-08 4.66184e-09 3.88369e-10
1.51389e-08 2.33817e-08 1.33796e-08
0.0 0.0 -3.8832e-08
-7.74373e-09 4.82429e-09 -3.51668e-08
4.9126e-08 4.36449e-09 -7.85057e-09
-2.56794e-08 7.32233e-08 -5.55372e-09
-1.15329e-08 -3.72599e-09 -3.19442e-08
0.0 0.0 -3.8832e-08
-1.57182e-08 1.68508e-08 -1.12528e-08
6.20965e-09 -4.25867e-10 -6.7982e-10
1.25152e-07 5.42043e-09 9.70492e-08
4.71524e-09 2.57379e-09 -2.119e-09
-3.25952e-09 -1.34853e-08 1.04765e-08
2.41444e-07 -1.51537e-07 3.62286e-07
9.06831e-09 -2.40686e-09 -9.11691e-10
0.0 0.0 -3.8832e-08
4.17153e-09 1.34432e-08 -1.20977e-08
-3.66041e-08 -1.74082e-08 3.46069e-09
-1.52665e-08 -3.77752e-09 -2.33287e-09
9.04229e-10 1.00027e-09 -2.4703e-10
2.75966e-09 -9.6171e-09 -1.02591e-08
-5.15991e-08 -6.14809e-08 5.64629e-08
-2.305e-08 6.79381e-09 4.84782e-10
3.44895e-08 -7.30659e-09 8.62895e-10
-1.132e-09 2.23683e-09 -5.64682e-10
-1.42986e-09 -2.17561e-09 3.04129e-09
1.09773e-09 -2.9322e-09 1.18888e-09
-3.06435e-09 -3.12934e-09 -1.68832e-09
-2.11046e-10 -1.53449e-10 1.85174e-10
2.22181e-10 -6.88904e-10 -1.08941e-09
9.69e-10 2.9729e-10 -3.5116e-09
-8.14537e-10 -7.07261e-10 5.21021e-10
-4.31945e-09 2.59776e-09 1.10989e-09
-4.36347e-09 1.08243e-08 -2.03464e-08
-1.88169e-09 7.28054e-09 -9.78772e-09
-2.03241e-09 -3.03056e-09 8.56578e-10
2.3816e-09 -6.55965e-10 -6.32983e-09
3.78915e-08 7.50443e-09 1.80184e-08
-3.72144e-12 2.75534e-13 -7.49981e-14
-1.8634e-09 -1.54974e-09 -1.41147e-09
-2.16622e-08 -1.09723e-08 -1.36416e-08
-1.97575e-09 -2.12221e-09 -8.4276e-10
-1.72402e-08 -2.40645e-09 4.98162e-10
1.9329e-08 -1.79569e-08 -2.76955e-09
-1.21496e-10 -1.24863e-09 3.33186e-10
-1.32207e-08 1.18057e-08 1.56638e-09
-1.6652e-09 -1.61437e-08 -7.88708e-10
-1.88728e-08 1.5721e-08 3.01472e-08
-3.39979e-10 1.51969e-10 1.72274e-10
-1.73783e-08 -3.1676e-09 3.28951e-11
4.33475e-09 -2.28466e-08 3.03737e-08
7.31003e-09 1.68762e-08 3.78649e-08
6.79655e-10 -2.6021e-09 -1.64551e-08
3.10742e-09 -1.37499e-09 6.5128e-10
-3.99471e-08 5.92032e-09 -6.21415e-11
-1.64474e-08 2.02739e-09 -1.05546e-08
-1.38015e-08 9.9126e-09 -4.3417e-08
4.6469e-10 -3.54579e-10 9.95655e-10
-2.04136e-08 -3.46675e-08 -1.13047e-07
-1.47989e-08 4.7984e-09 -1.648e-09
1.72343e-09 -4.41334e-11 4.7451e-10
9.91e-08 -1.91318e-08 -5.01823e-08
1.49664e-07 -5.57653e-08 2.53092e-08
3.0679e-10 -1.6081e-09 3.09226e-10
-2.68417e-09 -1.15873e-09 1.25458e-09
-1.24432e-08 4.61105e-09 -1.63106e-10
3.2958e-09 4.50575e-10 2.31218e-10
-4.18674e-10 -5.83653e-10 -9.4136e-10
-2.7857e-08 -2.71656e-09 5.31557e-09
9.10297e-10 -3.28091e-10 6.09434e-10
-2.24213e-08 1.33054e-08 3.89376e-09
-1.06854e-08 -3.07123e-09 4.1523e-09
-1.75944e-08 3.50602e-08 5.63227e-09
-3.31812e-09 3.3249e-09 -1.96999e-09
-4.01276e-09 -1.18314e-08 -1.70197e-08
-2.59919e-08 -8.55977e-09 8.78901e-09
1.35048e-08 -1.06353e-08 9.88863e-09
9.62467e-09 3.81971e-09 -9.97255e-10
-3.87852e-09 -3.62188e-09 -2.84666e-09
-7.36559e-09 3.04074e-09 -6.98386e-09
-1.3408e-08 -4.43876e-08 -6.44492e-09
3.20065e-08 -3.48788e-08 3.24715e-08
-4.35183e-10 -7.53851e-10 -7.34858e-10
2.54914e-11 -3.52072e-11 -4.37897e-12
2.83959e-09 2.22175e-08 -6.10727e-08
-3.87415e-08 4.31649e-08 3.40975e-08
-1.65854e-09 -1.51142e-09 3.83938e-09
1.88899e-09 1.25099e-09 -1.01506e-09
-1.02473e-09 1.14153e-08 -1.05986e-08
1.45416e-08 -1.02426e-08 2.30829e-08
-1.11862e-08 -2.00208e-09 1.22448e-08
2.5076e-08 -7.81006e-11 -1.18926e-09
-2.56914e-09 -3.13089e-11 -4.70326e-09
-2.96348e-09 3.69331e-09 -1.90711e-09
