# vtk DataFile Version 3.0
LIGGGHTS particles timestep 1400000
ASCII
DATASET POLYDATA
POINTS 226 float
0.0211147 0.0168092 0.0075681
0.0216693 0.0193273 0.00706755
0.0178175 0.0229609 0.0100732
0.0228456 0.0190518 0.00704433
0.0212404 0.0173074 0.00729883
0.0269433 0.0161935 0.00808333
0.0172316 0.0204117 0.00720295
0.0216793 0.0169313 0.00750527
0.0275697 0.0188472 0.006995
0.0216778 0.0179063 0.0072081
0.022522 0.0178809 0.00723357
0.0156718 0.0193099 0.00714894
0.0213207 0.0176744 0.00723708
0.0158327 0.0188213 0.0070887
0.0216084 0.0190347 0.0070424
0.0154859 0.0184358 0.00704288
0.0213839 0.0179638 0.00719006
0.0275501 0.0175086 0.00729618
0.021375 0.0169362 0.00749008
0.0223435 0.0174996 0.00729253
0.0215372 0.0171569 0.00736771
0.021781 0.0173275 0.00732031
0.0217302 0.019621 0.00706776
0.0271959 0.0171292 0.00737972
0.0217489 0.0176197 0.00726083
0.0272602 0.0174149 0.00731427
0.0228436 0.0198869 0.00707411
0.0273888 0.0179861 0.00718335
0.0276144 0.0177942 0.00723072
0.02189 0.0191343 0.00700396
0.0220301 0.0182893 0.00715221
0.0220414 0.0175555 0.0072779
0.0172924 0.022902 0.0100958
0.0223113 0.018393 0.00714221
0.0276264 0.0191365 0.00693942
0.0217417 0.0181955 0.0071603
0.0215067 0.0174453 0.00729121
0.0274198 0.0169483 0.00746397
0.0226273 0.0188481 0.00707314
0.0212441 0.0161984 0.0079846
0.0220423 0.0188818 0.0070589
0.0215092 0.0185428 0.00709457
0.022807 0.018245 0.00717838
0.0270064 0.0164264 0.00790497
0.0270689 0.0166521 0.00771751
0.0213738 0.0166876 0.007658
0.022351 0.0172032 0.00733809
0.0178124 0.0212921 0.00758626
0.0228586 0.018661 0.00711147
0.0225149 0.0181768 0.00718475
0.0173082 0.0201149 0.00716904
0.0273547 0.0167201 0.00765354
0.0219226 0.0170788 0.00741019
0.0159633 0.0192395 0.00713929
0.0214469 0.0238649 0.0125027
0.0273245 0.0177005 0.00724881
0.0230432 0.0184279 0.00715113
0.0274858 0.0172229 0.00736165
0.0221994 0.0169859 0.00747926
0.0213083 0.0164421 0.00782188
0.0220871 0.0185884 0.00710266
0.02252 0.019399 0.00697605
0.0271314 0.0168778 0.00753004
0.0217601 0.0187767 0.0070615
0.0174109 0.01977 0.00712862
0.0222336 0.018073 0.00719475
0.0218059 0.0184846 0.00711266
0.0219775 0.017918 0.00721421
0.0275127 0.0185583 0.00705216
0.0154257 0.0181421 0.00703172
0.022481 0.0191056 0.00702512
0.0222406 0.0177774 0.00724545
0.0274526 0.0182718 0.00711787
0.0214472 0.0182532 0.00714236
0.0228147 0.0193458 0.00699324
0.0230653 0.0219401 0.00860083
0.0259429 0.0231476 0.0124923
0.0168045 0.0228238 0.0100318
0.0494727 0.0330925 0.0185994
0.0213938 0.0160396 0.00856977
0.0171937 0.0206918 0.00730344
0.0175296 0.0212072 0.00753302
0.0277445 0.0170758 0.00739905
0.017701 0.0226358 0.00953175
0.0231191 0.0189319 0.00707234
0.0227083 0.017159 0.00735369
0.0222561 0.0202681 0.00723695
0.021727 0.0172143 0.00759284
0.0179056 0.0215469 0.00771413
0.0226385 0.0174461 0.00730176
0.0220091 0.0201075 0.00718006
0.0225515 0.0199481 0.00710493
0.0217937 0.0199114 0.00710854
0.0272922 0.0164944 0.007841
0.0172354 0.0195188 0.00711749
0.0222516 0.019945 0.00711087
0.0168296 0.0204947 0.00724028
0.0219507 0.0165833 0.00774579
0.0209258 0.0160933 0.00807815
0.015119 0.0159664 0.00838521
0.0175854 0.0214784 0.00764884
0.017591 0.0200097 0.00713832
0.0155459 0.0187276 0.00707829
0.0186677 0.0214521 0.00770837
0.0158854 0.0202898 0.00726781
0.0208083 0.0157075 0.00852235
0.0194253 0.0231394 0.0100847
0.0220141 0.0197071 0.00702351
0.022987 0.0195947 0.00695657
0.0186783 0.0229387 0.0142135
0.0203036 0.0239281 0.0118713
0.0162911 0.0211462 0.0074839
0.0198437 0.0232725 0.011972
0.0224994 0.0169837 0.0074788
0.0209863 0.0163218 0.00789349
0.0181418 0.0212158 0.00757793
0.0222296 0.0167399 0.00764832
0.0219528 0.0168319 0.0075779
0.0210505 0.0165655 0.00773079
0.02326 0.0194732 0.00698371
0.0156084 0.0190189 0.00711363
0.0230897 0.019229 0.00702076
0.0216734 0.0166814 0.00767115
0.0178734 0.0207563 0.00737536
0.0207492 0.0155148 0.00874451
0.0223998 0.0197028 0.00701406
0.0159489 0.0205809 0.00730312
0.0223309 0.0188011 0.00707301
0.0162484 0.0205704 0.00729001
0.0222275 0.0194634 0.0069595
0.0216081 0.0164379 0.0078337
0.0221881 0.0191675 0.00700649
0.0206883 0.0153234 0.00896738
0.0157571 0.0197012 0.00719641
0.0226171 0.0219864 0.00864905
0.0226923 0.0196444 0.00698295
0.0175212 0.020326 0.00717883
0.0225599 0.0185596 0.00712057
0.0161154 0.0200988 0.00724366
0.0179233 0.0210305 0.00748876
0.0175144 0.0194128 0.00708697
0.0177464 0.0205059 0.00726628
0.0208663 0.0159013 0.00830089
0.0158211 0.0199947 0.00723201
0.0186204 0.0209483 0.007503
0.0210228 0.0239155 0.0120815
0.0173844 0.0142002 0.0121311
0.0219297 0.0194275 0.00695493
0.0160837 0.0209609 0.00734855
0.0211837 0.0159848 0.0081864
0.0180798 0.0200298 0.00710448
0.0154545 0.0212038 0.0196722
0.0173389 0.0209319 0.00740962
0.021232 0.0238944 0.0122951
0.0175933 0.0228322 0.00992094
0.0178553 0.0141842 0.0119863
0.0182362 0.0229807 0.0136755
0.0228695 0.021147 0.0159499
0.0170943 0.0198264 0.00715715
0.0203585 0.0175199 0.0215502
0.0238105 0.0218612 0.00851905
0.018813 0.0216921 0.00781453
0.0218819 0.0163404 0.00790782
0.0137968 0.0149391 0.0129751
0.0198918 0.0241583 0.0124811
0.0187086 0.0189789 0.0215328
0.0218324 0.0162383 0.0210161
0.0203775 0.0240277 0.012179
0.0211184 0.0159068 0.00846861
0.0185205 0.0212131 0.00760249
0.0175959 0.0141072 0.0123225
0.0174326 0.0195838 0.0163773
0.0207615 0.0239266 0.0119215
0.0208525 0.0205134 0.0182166
0.0171845 0.0234184 0.0215249
0.0199943 0.0239333 0.0119045
0.0162229 0.0237227 0.0130815
0.0220694 0.016149 0.00804276
0.0196976 0.0194351 0.0190928
0.0215438 0.0161942 0.00799641
0.0182372 0.0205512 0.0073177
0.0176375 0.020945 0.0074351
0.0215746 0.0148192 0.0114427
0.0214513 0.024142 0.0136191
0.0225296 0.0167399 0.00765098
0.0157682 0.0235571 0.0134298
0.0236101 0.0196259 0.00696725
0.0177429 0.0196074 0.00708882
0.0203472 0.0148947 0.0106297
0.0181735 0.0141743 0.0120027
0.0209803 0.0240439 0.0123608
0.0149616 0.0155596 0.00896456
0.0206729 0.0151328 0.00919847
0.0168374 0.0196392 0.0202168
0.0197015 0.022942 0.0127779
0.0184163 0.0216792 0.00778247
0.0231437 0.0176511 0.0176177
0.0187245 0.0220224 0.008221
0.0214016 0.0158426 0.00833574
0.0180128 0.0197383 0.00708157
0.0141701 0.0188625 0.0212134
0.0182045 0.0214871 0.00769104
0.0170876 0.015219 0.0210262
0.0184834 0.020704 0.00739567
0.0178636 0.0217086 0.00797931
0.0200958 0.0154267 0.0184463
0.0220275 0.023735 0.0129722
0.0207293 0.0240427 0.0121964
0.0217543 0.0160201 0.00812034
0.0210951 0.0238492 0.0125587
0.017822 0.0202008 0.00714896
0.0195972 0.0204017 0.0195894
0.0205679 0.0150056 0.00944908
0.0219026 0.0203679 0.00728429
0.0192119 0.0231446 0.0103168
0.0148808 0.0178579 0.019631
0.0212633 0.0169798 0.00776506
0.0164664 0.0210217 0.0199133
0.0180945 0.0203098 0.00721118
0.0232234 0.0162226 0.0155193
0.0189035 0.021893 0.00801803
0.015339 0.017763 0.00723966
0.0170935 0.0142051 0.012306
0.0208772 0.0198064 0.0195068
0.0181592 0.0200768 0.0188003
0.0163787 0.0217583 0.015598

VERTICES 226 452
1 0
1 1
1 2
1 3
1 4
1 5
1 6
1 7
1 8
1 9
1 10
1 11
1 12
1 13
1 14
1 15
1 16
1 17
1 18
1 19
1 20
1 21
1 22
1 23
1 24
1 25
1 26
1 27
1 28
1 29
1 30
1 31
1 32
1 33
1 34
1 35
1 36
1 37
1 38
1 39
1 40
1 41
1 42
1 43
1 44
1 45
1 46
1 47
1 48
1 49
1 50
1 51
1 52
1 53
1 54
1 55
1 56
1 57
1 58
1 59
1 60
1 61
1 62
1 63
1 64
1 65
1 66
1 67
1 68
1 69
1 70
1 71
1 72
1 73
1 74
1 75
1 76
1 77
1 78
1 79
1 80
1 81
1 82
1 83
1 84
1 85
1 86
1 87
1 88
1 89
1 90
1 91
1 92
1 93
1 94
1 95
1 96
1 97
1 98
1 99
1 100
1 101
1 102
1 103
1 104
1 105
1 106
1 107
1 108
1 109
1 110
1 111
1 112
1 113
1 114
1 115
1 116
1 117
1 118
1 119
1 120
1 121
1 122
1 123
1 124
1 125
1 126
1 127
1 128
1 129
1 130
1 131
1 132
1 133
1 134
1 135
1 136
1 137
1 138
1 139
1 140
1 141
1 142
1 143
1 144
1 145
1 146
1 147
1 148
1 149
1 150
1 151
1 152
1 153
1 154
1 155
1 156
1 157
1 158
1 159
1 160
1 161
1 162
1 163
1 164
1 165
1 166
1 167
1 168
1 169
1 170
1 171
1 172
1 173
1 174
1 175
1 176
1 177
1 178
1 179
1 180
1 181
1 182
1 183
1 184
1 185
1 186
1 187
1 188
1 189
1 190
1 191
1 192
1 193
1 194
1 195
1 196
1 197
1 198
1 199
1 200
1 201
1 202
1 203
1 204
1 205
1 206
1 207
1 208
1 209
1 210
1 211
1 212
1 213
1 214
1 215
1 216
1 217
1 218
1 219
1 220
1 221
1 222
1 223
1 224
1 225

POINT_DATA 226
SCALARS id int 1
LOOKUP_TABLE default
1
2
3
4
5
6
7
8
9
10
11
12
13
14
15
16
17
18
19
20
21
22
23
24
25
26
27
28
29
30
31
32
33
34
35
36
37
38
39
40
41
42
43
44
45
46
47
48
49
50
51
52
53
54
55
56
57
58
59
60
61
62
63
64
65
66
67
68
69
70
71
72
73
74
75
76
77
78
79
80
81
82
83
84
85
86
87
88
89
90
91
92
93
94
95
96
97
98
99
100
101
102
103
104
105
106
107
108
109
110
111
112
113
114
115
116
117
118
119
120
121
122
123
124
125
126
127
128
129
130
131
132
133
134
135
136
137
138
139
140
141
142
143
144
145
146
147
148
149
150
151
152
153
154
155
156
157
158
159
160
161
162
163
164
165
166
167
168
169
170
171
172
173
174
175
176
177
178
179
180
181
182
183
184
185
186
187
188
189
190
191
192
193
194
195
196
197
198
199
200
201
202
203
204
205
206
207
208
209
210
211
212
213
214
215
216
217
218
219
220
221
222
223
224
225
226

SCALARS type int 1
LOOKUP_TABLE default
1
1
1
1
1
1
1
1
1
1
1
1
1
1
1
1
1
1
1
1
1
1
1
1
1
1
1
1
1
1
1
1
1
1
1
1
1
1
1
1
1
1
1
1
1
1
1
1
1
1
1
1
1
1
1
1
1
1
1
1
1
1
1
1
1
1
1
1
1
1
1
1
1
1
1
1
1
1
1
1
1
1
1
1
1
1
1
1
1
1
1
1
1
1
1
1
1
1
1
1
1
1
1
1
1
1
1
1
1
1
1
1
1
1
1
1
1
1
1
1
1
1
1
1
1
1
1
1
1
1
1
1
1
1
1
1
1
1
1
1
1
1
1
1
1
1
1
1
1
1
1
1
1
1
1
1
1
1
1
1
1
1
1
1
1
1
1
1
1
1
1
1
1
1
1
1
1
1
1
1
1
1
1
1
1
1
1
1
1
1
1
1
1
1
1
1
1
1
1
1
1
1
1
1
1
1
1
1
1
1
1
1
1
1
1
1
1
1
1
1
1
1
1
1
1
1

SCALARS radius float 1
LOOKUP_TABLE default
0.00015
0.00015
0.00015
0.00015
0.00015
0.00015
0.00015
0.00015
0.00015
0.00015
0.00015
0.00015
0.00015
0.00015
0.00015
0.00015
0.00015
0.00015
0.00015
0.00015
0.00015
0.00015
0.00015
0.00015
0.00015
0.00015
0.00015
0.00015
0.00015
0.00015
0.00015
0.00015
0.00015
0.00015
0.00015
0.00015
0.00015
0.00015
0.00015
0.00015
0.00015
0.00015
0.00015
0.00015
0.00015
0.00015
0.00015
0.00015
0.00015
0.00015
0.00015
0.00015
0.00015
0.00015
0.00015
0.00015
0.00015
0.00015
0.00015
0.00015
0.00015
0.00015
0.00015
0.00015
0.00015
0.00015
0.00015
0.00015
0.00015
0.00015
0.00015
0.00015
0.00015
0.00015
0.00015
0.00015
0.00015
0.00015
0.00015
0.00015
0.00015
0.00015
0.00015
0.00015
0.00015
0.00015
0.00015
0.00015
0.00015
0.00015
0.00015
0.00015
0.00015
0.00015
0.00015
0.00015
0.00015
0.00015
0.00015
0.00015
0.00015
0.00015
0.00015
0.00015
0.00015
0.00015
0.00015
0.00015
0.00015
0.00015
0.00015
0.00015
0.00015
0.00015
0.00015
0.00015
0.00015
0.00015
0.00015
0.00015
0.00015
0.00015
0.00015
0.00015
0.00015
0.00015
0.00015
0.00015
0.00015
0.00015
0.00015
0.00015
0.00015
0.00015
0.00015
0.00015
0.00015
0.00015
0.00015
0.00015
0.00015
0.00015
0.00015
0.00015
0.00015
0.00015
0.00015
0.00015
0.00015
0.00015
0.00015
0.00015
0.00015
0.00015
0.00015
0.00015
0.00015
0.00015
0.00015
0.00015
0.00015
0.00015
0.00015
0.00015
0.00015
0.00015
0.00015
0.00015
0.00015
0.00015
0.00015
0.00015
0.00015
0.00015
0.00015
0.00015
0.00015
0.00015
0.00015
0.00015
0.00015
0.00015
0.00015
0.00015
0.00015
0.00015
0.00015
0.00015
0.00015
0.00015
0.00015
0.00015
0.00015
0.00015
0.00015
0.00015
0.00015
0.00015
0.00015
0.00015
0.00015
0.00015
0.00015
0.00015
0.00015
0.00015
0.00015
0.00015
0.00015
0.00015
0.00015
0.00015
0.00015
0.00015
0.00015
0.00015
0.00015
0.00015
0.00015
0.00015
0.00015
0.00015
0.00015
0.00015
0.00015
0.00015

SCALARS mass float 1
LOOKUP_TABLE default
3.95841e-09
3.95841e-09
3.95841e-09
3.95841e-09
3.95841e-09
3.95841e-09
3.95841e-09
3.95841e-09
3.95841e-09
3.95841e-09
3.95841e-09
3.95841e-09
3.95841e-09
3.95841e-09
3.95841e-09
3.95841e-09
3.95841e-09
3.95841e-09
3.95841e-09
3.95841e-09
3.95841e-09
3.95841e-09
3.95841e-09
3.95841e-09
3.95841e-09
3.95841e-09
3.95841e-09
3.95841e-09
3.95841e-09
3.95841e-09
3.95841e-09
3.95841e-09
3.95841e-09
3.95841e-09
3.95841e-09
3.95841e-09
3.95841e-09
3.95841e-09
3.95841e-09
3.95841e-09
3.95841e-09
3.95841e-09
3.95841e-09
3.95841e-09
3.95841e-09
3.95841e-09
3.95841e-09
3.95841e-09
3.95841e-09
3.95841e-09
3.95841e-09
3.95841e-09
3.95841e-09
3.95841e-09
3.95841e-09
3.95841e-09
3.95841e-09
3.95841e-09
3.95841e-09
3.95841e-09
3.95841e-09
3.95841e-09
3.95841e-09
3.95841e-09
3.95841e-09
3.95841e-09
3.95841e-09
3.95841e-09
3.95841e-09
3.95841e-09
3.95841e-09
3.95841e-09
3.95841e-09
3.95841e-09
3.95841e-09
3.95841e-09
3.95841e-09
3.95841e-09
3.95841e-09
3.95841e-09
3.95841e-09
3.95841e-09
3.95841e-09
3.95841e-09
3.95841e-09
3.95841e-09
3.95841e-09
3.95841e-09
3.95841e-09
3.95841e-09
3.95841e-09
3.95841e-09
3.95841e-09
3.95841e-09
3.95841e-09
3.95841e-09
3.95841e-09
3.95841e-09
3.95841e-09
3.95841e-09
3.95841e-09
3.95841e-09
3.95841e-09
3.95841e-09
3.95841e-09
3.95841e-09
3.95841e-09
3.95841e-09
3.95841e-09
3.95841e-09
3.95841e-09
3.95841e-09
3.95841e-09
3.95841e-09
3.95841e-09
3.95841e-09
3.95841e-09
3.95841e-09
3.95841e-09
3.95841e-09
3.95841e-09
3.95841e-09
3.95841e-09
3.95841e-09
3.95841e-09
3.95841e-09
3.95841e-09
3.95841e-09
3.95841e-09
3.95841e-09
3.95841e-09
3.95841e-09
3.95841e-09
3.95841e-09
3.95841e-09
3.95841e-09
3.95841e-09
3.95841e-09
3.95841e-09
3.95841e-09
3.95841e-09
3.95841e-09
3.95841e-09
3.95841e-09
3.95841e-09
3.95841e-09
3.95841e-09
3.95841e-09
3.95841e-09
3.95841e-09
3.95841e-09
3.95841e-09
3.95841e-09
3.95841e-09
3.95841e-09
3.95841e-09
3.95841e-09
3.95841e-09
3.95841e-09
3.95841e-09
3.95841e-09
3.95841e-09
3.95841e-09
3.95841e-09
3.95841e-09
3.95841e-09
3.95841e-09
3.95841e-09
3.95841e-09
3.95841e-09
3.95841e-09
3.95841e-09
3.95841e-09
3.95841e-09
3.95841e-09
3.95841e-09
3.95841e-09
3.95841e-09
3.95841e-09
3.95841e-09
3.95841e-09
3.95841e-09
3.95841e-09
3.95841e-09
3.95841e-09
3.95841e-09
3.95841e-09
3.95841e-09
3.95841e-09
3.95841e-09
3.95841e-09
3.95841e-09
3.95841e-09
3.95841e-09
3.95841e-09
3.95841e-09
3.95841e-09
3.95841e-09
3.95841e-09
3.95841e-09
3.95841e-09
3.95841e-09
3.95841e-09
3.95841e-09
3.95841e-09
3.95841e-09
3.95841e-09
3.95841e-09
3.95841e-09
3.95841e-09
3.95841e-09
3.95841e-09
3.95841e-09
3.95841e-09
3.95841e-09
3.95841e-09
3.95841e-09
3.95841e-09
3.95841e-09
3.95841e-09
3.95841e-09
3.95841e-09
3.95841e-09
3.95841e-09
3.95841e-09
3.95841e-09

VECTORS velocity float
0.00584729 -0.00101233 0.000824003
0.00558343 -0.00107342 0.00031751
0.0152678 -0.00723589 -0.016773
0.00569113 -0.00109786 0.000342586
0.00587142 -0.00134585 0.000451572
0.00569857 -0.000228549 0.000274106
-1.27594e-05 -2.80989e-06 -1.49396e-06
0.00585689 -0.00107529 0.00077387
0.00537193 -0.000322449 -0.000103497
0.00570896 -0.00120186 0.000368383
0.00573726 -0.00117723 0.000228253
0.00493691 -0.00330931 -0.000421255
0.00575827 -0.00132233 0.000399163
0.00483724 -0.00330244 -0.000420123
0.00552426 -0.00109756 0.000269798
0.00484824 -0.00331153 -0.000431312
0.00566916 -0.0012859 0.000379025
0.0059836 -0.00034376 0.000155143
0.00583592 -0.000941352 0.000807056
0.00589588 -0.00105328 0.000291133
0.00594077 -0.00123222 0.000434408
0.00588547 -0.00115003 0.000611724
0.00569146 -0.00108848 0.00026485
0.00607232 -0.000412211 0.000172612
0.00577351 -0.00119578 0.000442477
0.00601216 -0.000398943 0.000167408
0.00571765 -0.00114051 -0.000581056
0.00587906 -0.000373818 0.000160498
0.00592448 -0.000328552 0.000150858
0.0055648 -0.00117626 0.000348179
0.00565599 -0.00109832 0.000343208
0.00577837 -0.00116126 0.000356801
-9.57398e-05 0.00232274 -0.000875627
0.00569492 -0.00119068 0.000359619
0.00549783 -0.000344587 -0.000104898
0.00568471 -0.00117082 0.000362345
0.0058592 -0.00130124 0.000246841
0.00607689 -0.000409214 0.000169683
0.00568383 -0.00114818 0.00035211
0.00578137 -0.00115728 0.000988654
0.00563499 -0.00115309 0.000354163
0.00522873 -0.00113347 0.000338745
0.00570767 -0.00113919 0.000201707
0.00581973 -0.000359035 0.000152391
0.00591796 -0.000391598 0.000163635
0.00583927 -0.000930083 0.00079866
0.00593516 -0.00104234 0.00017905
-0.00130004 -0.00494285 -0.000882481
0.00566402 -0.00113963 0.000343798
0.00572333 -0.00117609 0.000359854
-0.00111451 -0.00142115 -0.00013142
0.0059324 -0.000474088 0.000221436
0.00586216 -0.00106722 0.000910773
0.00493461 -0.00330985 -0.000421769
0.00364896 -0.000184981 0.00413949
0.00594115 -0.000389878 0.000165076
0.00570102 -0.00111666 0.00021358
0.00605949 -0.000349156 0.000156999
0.00604506 -0.000893326 0.000367081
0.00594256 -0.00110375 0.000936361
0.00568099 -0.00118045 0.00035864
0.00566149 -0.00114361 0.000354167
0.00599029 -0.000411267 0.000171616
0.00558233 -0.0011091 0.000343846
-3.40251e-06 -6.17957e-06 -2.0194e-06
0.00566842 -0.001079 0.000337132
0.00563425 -0.00112855 0.000351144
0.0057078 -0.00115039 0.000351772
0.00544259 -0.000285358 0.000132103
0.00486564 -0.00339851 0.00189742
0.00566542 -0.00113919 0.000354161
0.00576285 -0.00108585 0.000348528
0.00558058 -0.000311069 0.000141299
0.00557863 -0.00124696 0.000370352
0.00567278 -0.00109006 0.000345078
0.00299995 -0.000614704 -0.000973978
-0.0435662 0.0600931 -0.158092
-0.00270563 -0.0141081 -0.0273811
0.336293 0.103395 -0.352508
0.0414864 0.013783 -0.0600212
-2.98183e-06 -3.15058e-06 -4.54209e-07
-0.00192168 -0.0033381 -0.00133202
0.00608403 -0.000299576 0.000145937
0.0119209 -0.00990395 -0.0190057
0.00574703 -0.00103542 0.000335937
0.00569692 -0.000382537 0.000236777
0.00571006 -0.00104405 -0.00054733
0.00561746 -0.00102899 0.000622638
0.00135687 -0.00709741 0.00414228
0.00610063 -0.000278085 8.4547e-05
0.00570781 -0.00103614 -0.000544799
0.00572863 -0.00107912 -0.000557639
0.00572471 -0.00100661 -0.00052217
0.00582364 -0.000453905 0.000210281
1.0443e-08 -2.51047e-09 -1.00347e-09
0.00572754 -0.0010094 -0.000567502
-5.13348e-15 6.69417e-15 -7.01754e-14
0.00582937 -0.00107897 0.000910948
0.00564149 -0.00107727 0.000670399
0.0133223 0.0669511 0.00337629
-0.000460101 -0.00246332 -0.00404735
-5.96132e-06 -4.082e-06 -6.2334e-07
0.00483397 -0.00330007 -0.000418051
-0.00112681 -0.00203948 -0.000893423
0.00471292 -0.00578339 -0.00072299
0.00494099 -0.000959727 0.000634164
-0.0209115 -0.069315 -0.10239
0.00555928 -0.000948427 -0.000508316
0.00571704 -0.00111844 -0.000571575
0.230084 -0.820959 0.00360458
-0.000369099 -0.000287626 4.96138e-05
0.0481155 -0.00817467 -0.0228227
-0.0504201 0.0357509 -0.113815
0.0060046 -0.000785712 0.000491957
0.00578157 -0.000978399 0.000860663
0.00113361 -0.00373337 -0.0014181
0.00593496 -0.000816534 0.000723783
0.00586131 -0.00103767 0.00091923
0.00591523 -0.00104577 0.000922566
0.00569423 -0.000992041 0.000327884
0.00484553 -0.00329343 -0.000420974
0.00570988 -0.0010142 0.000328876
0.00580561 -0.00099108 0.00080943
0.000781922 -0.00354135 -0.00136806
0.00544391 -0.000953006 0.000796218
0.00570528 -0.00109281 -0.000423884
0.00480255 -0.00580264 -0.000725658
0.00569766 -0.00092398 0.000317222
0.00491336 -0.00276803 -0.000623474
0.00564557 -0.00121305 0.000242822
0.00580619 -0.000983355 0.00085007
0.00561487 -0.00113852 0.000356806
0.00542459 -0.00080854 0.00105001
0.00462537 -0.0053144 -0.000665418
-0.00117789 0.000161881 -0.000507662
0.00569693 -0.00112739 -0.000577055
0.000357041 -0.00251036 -0.000971513
0.00570044 -0.00117383 0.000357213
0.00471295 -0.00578335 -0.000722989
0.000174816 -0.00277313 -0.00109136
-5.93473e-09 1.2813e-09 5.56358e-10
0.000336479 -0.00408815 -0.00161776
0.00498934 -0.00109484 0.000486738
0.0047098 -0.00536114 -0.000671428
0.00087307 -0.00119204 -0.000417761
-0.000136414 0.000328323 -0.0002427
0.003537 0.00198912 -0.00767054
0.00562792 -0.00115372 0.000330882
-0.00807846 -0.0110243 0.0158681
0.00554637 -0.00127384 0.00106415
1.19156e-05 -1.47318e-05 3.27461e-07
0.0 -0.0 -0.03
-1.51093e-05 2.03728e-06 2.52132e-06
-4.93509e-05 0.00124888 0.000567455
3.21217e-05 0.000223414 -0.000641676
9.58458e-08 -6.92661e-06 8.742e-06
0.000489529 0.0706838 -0.137103
-0.000502836 0.03533 -0.0174253
1.27518e-10 1.87648e-10 8.46837e-12
0.0 -0.0 -0.03
0.000116724 -0.00156306 -0.00122806
0.00149582 -0.00348193 -0.00127702
0.00571723 -0.00105952 0.000888279
0.0688661 -0.0405386 -0.0426965
-0.000841208 -0.0771717 0.0333974
0.0 -0.0 -0.03
0.0 -0.0 -0.03
-0.019851 0.0174291 -0.0211188
0.00299578 -0.00383173 -0.00132256
-0.00133603 -0.00189331 -0.000852679
0.0281642 -0.0078797 -0.0396769
-5.20527e-09 0.0289015 -0.00308318
-1.82992e-05 -0.000130495 -1.45665e-05
0.0 0.0 -0.0715895
0.0 -0.0 -0.03
-0.000458421 -0.0012495 -0.00121934
0.00787017 0.000953617 -0.0098782
0.00576718 -0.00104287 0.000876469
0.0 -0.0 -0.03
0.0059075 -0.000941396 0.000828514
0.000433858 -0.000257483 -6.95625e-05
0.000200576 -0.00254296 -0.0010073
-0.0546036 0.0256368 -0.194384
-0.0196092 -0.0700456 -0.00500036
0.00577047 -0.000787249 0.000518292
0.0109845 0.00330923 -0.00981004
1.4509e-15 -9.01636e-15 -5.27658e-14
5.83151e-07 -2.04059e-05 -4.01426e-06
0.0408205 0.0339946 -0.100959
-6.91878e-06 7.05997e-05 -0.000117214
-0.000777638 -0.000716169 -0.00335204
0.00667733 0.0519406 -0.159039
0.00554082 -0.000661566 0.00114758
0.0 -0.0 -0.03
-0.0390151 0.0365218 -0.101045
4.33193e-07 2.81234e-06 1.15797e-06
0.0 0.0 -0.1299
-0.00220378 -0.00506626 -0.00783836
0.00998066 0.0015345 -0.00229827
-1.64231e-05 2.78977e-06 2.83165e-06
0.0 -0.0 -0.03
0.00246288 -0.0034654 -0.000894484
0.0 -0.0 -0.03
0.00121564 -0.00134358 -0.00045647
-0.00844082 -0.00403985 0.00734421
0.0 -0.0 -0.03
-0.00654876 0.00227513 -0.00386085
-0.00235023 0.000137733 -0.00129036
0.00572775 -0.000887346 0.000767196
-0.00294267 -0.002126 -0.000933513
1.38125e-05 -3.34179e-05 -9.22937e-06
0.0 -0.0 -0.03
0.00580084 -0.000436176 0.00129436
0.00572389 -0.00103445 -0.000538265
0.0188354 -0.108416 -0.129645
0.0 -0.0 -0.03
0.00580923 -0.000990783 0.000818834
0.0 -0.0 -0.03
-9.03608e-07 -2.33011e-05 1.32145e-06
-3.28218e-05 -0.0238198 -0.0281751
0.00452372 -0.0025424 -0.0035336
0.0138915 0.0311951 -0.0170718
0.00119604 -0.00124023 0.00258034
0.0 -0.0 -0.03
0.0 -0.0 -0.03
2.14636e-05 0.029172 -0.0189724

VECTORS force float
1.08807e-09 -1.11572e-08 5.03612e-09
-4.3217e-09 -1.69915e-10 5.12419e-10
8.47433e-11 -5.78602e-09 -9.75749e-09
-4.17393e-09 8.6459e-10 -1.13863e-10
-6.64923e-10 2.05873e-09 -3.42621e-09
-3.50439e-09 5.83265e-10 7.25046e-10
7.246e-10 1.67447e-09 3.3067e-10
-5.88847e-10 5.60258e-09 -2.20262e-09
1.44063e-09 1.42476e-10 -2.19349e-10
8.99881e-10 -4.43973e-10 -4.65582e-10
8.49311e-10 2.08313e-09 2.65897e-09
2.11365e-10 5.49928e-10 5.38472e-11
2.08812e-10 1.21339e-09 -1.546e-09
3.58099e-10 -2.16483e-10 -2.50518e-10
-9.04921e-09 2.76996e-09 -2.52258e-09
4.79604e-10 -7.17603e-10 1.72623e-09
-1.35835e-09 -1.14798e-09 -1.02548e-09
-3.42195e-10 2.0924e-11 -4.76767e-11
-3.59776e-09 -3.29836e-09 1.75143e-09
-2.53118e-09 -7.75543e-09 1.41482e-09
-7.11265e-09 9.40359e-09 3.28689e-09
-1.32401e-09 1.47797e-09 -1.11434e-09
2.81756e-09 4.13434e-09 1.43447e-08
-1.25319e-09 -9.72745e-10 1.02708e-09
-3.51979e-10 -8.33715e-10 -6.39978e-10
-1.83858e-10 1.83751e-09 -2.57128e-10
-1.33967e-09 -9.36065e-10 -9.52471e-10
-5.08604e-10 -4.51643e-10 7.92393e-11
2.41686e-10 2.01425e-10 -6.91459e-11
-5.95232e-09 2.06169e-09 -1.01115e-09
-1.0696e-09 3.5574e-09 -4.05419e-10
3.44388e-10 -1.2268e-09 2.34124e-09
6.23402e-08 -1.11209e-07 -1.93728e-07
-1.41899e-10 8.50209e-10 4.95279e-10
-2.20385e-10 -3.03248e-10 1.11682e-10
2.31466e-09 1.64014e-09 6.29468e-10
-1.01457e-09 5.95378e-09 -1.82019e-09
-5.853e-10 -7.54334e-10 6.37951e-10
-3.52054e-09 -2.19622e-09 1.13366e-09
-1.55798e-08 6.82921e-10 1.93293e-09
-1.73474e-09 1.56329e-09 -1.71278e-09
-2.47764e-09 -9.97313e-10 -2.78004e-10
-1.71946e-09 -2.85058e-09 -6.55846e-11
-3.27208e-09 2.26861e-09 -3.90236e-09
3.10702e-09 2.90043e-09 -1.00819e-09
6.85861e-09 -3.13464e-09 1.33407e-09
-3.88846e-09 -2.00102e-09 4.67125e-09
0.0 0.0 -3.8832e-08
-4.44842e-10 -2.21587e-10 -5.63982e-10
-1.46086e-10 -3.63041e-10 -9.22931e-10
2.00529e-08 1.58748e-08 1.45001e-08
-2.32763e-09 2.27297e-09 -7.36548e-10
-1.76854e-09 5.79701e-09 -1.96375e-09
1.42243e-11 -2.02691e-10 1.12847e-11
-2.04573e-08 -1.7789e-08 -3.76071e-08
8.37805e-10 9.20377e-10 -2.97061e-10
-1.89856e-09 -1.22993e-09 1.90095e-10
4.70437e-11 9.17502e-10 -1.76734e-10
-5.9328e-09 1.25893e-09 -4.93116e-09
8.4684e-09 -9.84774e-09 1.08249e-08
-1.2341e-09 1.49194e-09 -2.91808e-10
-1.23392e-09 3.82526e-10 -1.44556e-09
-2.38421e-09 -2.62055e-10 1.1911e-09
-7.5843e-09 4.19836e-09 -2.29078e-09
6.36349e-10 5.11591e-10 2.99411e-10
5.32093e-10 1.67712e-10 4.46987e-10
-1.56211e-09 4.03793e-09 -5.84865e-10
3.04974e-09 -2.77232e-09 5.46272e-10
-2.08807e-10 -2.292e-10 4.58452e-10
-2.29709e-09 1.64456e-09 -2.08919e-09
-4.95241e-09 -1.16117e-09 2.4638e-10
4.89649e-09 -3.48962e-09 2.13233e-09
1.07794e-11 -8.20984e-10 3.20817e-10
3.70109e-09 -1.61785e-09 1.30475e-09
-2.47884e-10 5.73106e-10 2.37892e-10
-1.86616e-07 3.52991e-08 3.28764e-08
0.0 0.0 -3.8832e-08
0.00217286 0.0120536 0.0138016
0.0 0.0 -3.8832e-08
0.0 0.0 -3.8832e-08
-2.38674e-09 1.11323e-09 -1.25082e-10
4.25555e-09 7.85132e-10 -1.16409e-08
2.02361e-10 -5.89444e-10 1.2412e-10
-3.03383e-06 2.40262e-06 4.97612e-06
-1.76498e-09 1.22387e-09 -5.05682e-10
-7.67262e-09 -1.72126e-09 1.28288e-09
-2.26397e-09 1.78028e-09 1.26294e-09
4.17804e-09 4.88738e-09 2.33584e-09
0.0 0.0 -3.8832e-08
5.16152e-09 5.82662e-09 -7.72269e-10
-2.70229e-10 -3.26247e-10 7.38164e-10
-1.33489e-09 -9.0876e-10 -2.82167e-10
3.33385e-09 5.54413e-09 3.27435e-09
1.0535e-09 -1.87988e-09 2.5275e-09
1.25516e-12 7.17003e-14 -8.49374e-14
-4.22625e-10 -1.28856e-11 3.47166e-09
-1.48893e-22 5.74891e-23 1.98523e-23
-6.48521e-11 3.70155e-09 1.43023e-10
7.52296e-09 -1.75926e-08 -5.36892e-09
0.0 0.0 -3.8832e-08
4.34183e-09 -1.27805e-08 -1.86747e-08
1.90756e-09 -8.30551e-10 -4.1914e-10
6.45417e-10 -8.46822e-10 9.65952e-10
-2.945e-10 6.83304e-09 3.74224e-09
-1.79957e-11 -6.44124e-11 -7.80428e-12
1.738e-09 -7.86919e-09 -1.85417e-09
-7.29973e-09 3.12416e-09 -3.38701e-08
5.23463e-09 1.62366e-10 -5.63074e-10
-1.22687e-09 2.64786e-10 -4.10074e-11
0.0 0.0 -3.8832e-08
9.00026e-08 -3.45737e-10 -1.22503e-09
0.0 0.0 -3.8832e-08
0.0 0.0 -3.8832e-08
-4.64246e-09 4.27153e-09 3.94999e-10
-9.55432e-09 -1.35881e-08 -8.5338e-09
-6.91904e-09 2.71536e-09 -6.11735e-10
4.94097e-09 -6.15521e-09 3.09468e-09
3.75623e-09 5.437e-09 2.00932e-09
1.21873e-08 3.3081e-09 6.74875e-09
-1.82578e-09 1.23286e-10 -4.10792e-10
-4.66124e-10 1.462e-10 -2.33231e-10
-5.83392e-10 5.0872e-12 -5.08064e-10
-6.49926e-09 1.52159e-09 2.62658e-10
-5.87889e-09 3.04923e-09 6.98276e-10
2.11013e-08 8.37079e-09 -1.65981e-08
-7.56543e-10 1.16175e-09 -9.46468e-10
-2.6933e-11 -6.25333e-11 -7.53004e-12
-3.34783e-09 9.7798e-11 -5.6389e-10
-1.37439e-10 2.17437e-10 3.07931e-11
-7.47229e-10 2.98242e-10 -1.18521e-09
4.62336e-09 -1.13366e-08 6.84179e-09
-5.23968e-09 3.43424e-09 -9.36531e-10
1.52127e-08 1.66359e-08 3.01797e-09
7.30954e-12 -2.82799e-11 -3.00752e-12
5.59949e-07 -1.06273e-07 -1.00419e-07
-8.67044e-10 -5.50051e-10 -7.17083e-10
-5.58615e-09 3.7815e-09 7.9476e-09
3.59863e-10 -2.28624e-09 -1.50925e-10
-1.8383e-11 -6.48385e-11 -7.85123e-12
-3.37827e-09 3.40453e-09 2.15471e-09
4.08412e-13 -2.94044e-12 -3.10452e-13
-3.62342e-09 3.30467e-09 1.0804e-09
1.15458e-08 -8.41181e-10 1.72159e-08
3.47266e-12 -2.08468e-11 -3.19217e-12
-4.9321e-09 1.87355e-10 4.4723e-11
-4.17554e-08 3.4918e-08 1.3043e-07
3.11602e-09 -9.6109e-10 4.92816e-10
1.36667e-09 2.04865e-09 2.61807e-09
0.0 0.0 -3.8832e-08
-4.21456e-08 -5.23597e-09 -8.795e-08
-1.31415e-09 5.90952e-10 2.50226e-10
0.0 0.0 0.0
-2.16951e-09 5.3368e-10 1.22192e-10
3.68636e-08 -1.09493e-07 -3.83531e-07
1.75426e-11 1.19541e-10 -4.0373e-10
-3.3684e-11 -1.60369e-10 1.92912e-10
0.0 0.0 -3.8832e-08
8.81014e-10 1.9583e-09 -2.4692e-09
-1.00865e-14 8.30833e-14 8.71465e-15
0.0 0.0 0.0
-1.46048e-09 3.567e-08 3.17866e-08
4.63272e-09 5.23103e-09 4.69805e-09
2.80569e-09 4.90868e-09 -2.15731e-09
0.0 0.0 -3.8832e-08
0.0 0.0 -3.8832e-08
0.0 0.0 0.0
0.0 0.0 0.0
0.0 0.0 -3.8832e-08
2.12748e-08 8.35551e-09 5.1127e-08
-2.90236e-10 4.82356e-09 1.37939e-09
1.84115e-09 -9.1025e-11 -3.35175e-08
1.35055e-16 -7.04025e-11 -6.76848e-10
4.83069e-08 -1.86195e-09 3.48879e-08
0.0 0.0 -3.8832e-08
0.0 0.0 0.0
-4.91811e-07 2.99763e-08 -4.52753e-07
5.05642e-09 1.70476e-09 -3.84499e-10
-5.49343e-09 6.46329e-09 -4.82648e-09
0.0 0.0 0.0
1.36731e-08 -1.65673e-09 3.7661e-09
-4.33409e-09 3.11237e-10 -2.73985e-10
-3.65974e-09 3.36988e-09 1.85189e-09
0.0 0.0 -3.8832e-08
0.0 0.0 -3.8832e-08
-7.62153e-09 2.8103e-09 -3.33964e-09
-5.71195e-11 1.07519e-10 3.00615e-10
-6.969e-23 -1.8198e-23 0.0
2.83171e-09 -4.13879e-09 -3.48328e-10
0.0 0.0 -3.8832e-08
5.61908e-11 -6.33257e-10 1.05184e-09
0.0 0.0 -3.8832e-08
0.0 0.0 -3.8832e-08
-3.1015e-10 1.73519e-09 1.76381e-08
0.0 0.0 0.0
0.0 0.0 -3.8832e-08
-1.09765e-11 -1.49916e-10 -6.08885e-11
0.0 0.0 -3.8832e-08
-1.58639e-09 7.26573e-09 9.407e-09
-1.28423e-08 1.94685e-08 -1.65267e-08
1.62972e-09 -5.47545e-10 -3.05017e-10
0.0 0.0 0.0
-1.69858e-08 1.25877e-09 1.55838e-08
0.0 0.0 0.0
-6.69617e-09 6.81153e-10 -1.66461e-10
0.0 0.0 -3.8832e-08
0.0 0.0 0.0
8.12349e-10 1.78762e-10 1.29467e-09
4.22034e-09 -1.97523e-08 -2.54016e-08
3.35831e-08 -1.26818e-08 1.00526e-08
0.0 0.0 -3.8832e-08
1.5373e-09 -1.83449e-09 -1.19717e-09
0.0 0.0 0.0
-1.18237e-08 -9.50582e-09 3.25199e-08
-1.27163e-09 -1.69953e-09 -8.28734e-10
0.0 0.0 -3.8832e-08
0.0 0.0 0.0
6.31087e-09 9.32866e-10 -2.99051e-09
0.0 0.0 0.0
-2.7493e-09 1.35229e-09 -7.12042e-11
0.0 0.0 -3.8832e-08
2.07228e-09 7.85844e-09 8.76773e-09
-4.80657e-10 -1.92517e-09 1.05572e-09
2.52404e-10 1.09325e-08 -3.95941e-08
0.0 0.0 0.0
0.0 0.0 0.0
1.22296e-11 2.54333e-09 -2.61386e-09
