# vtk DataFile Version 3.0
LIGGGHTS particles timestep 2600000
ASCII
DATASET POLYDATA
POINTS 297 float
0.0279694 0.0162712 0.0080057
0.0284945 0.0185343 0.00707011
0.0226602 0.0192793 0.0071001
0.0295795 0.0186069 0.00702573
0.0280878 0.0166806 0.00766557
0.0338349 0.015828 0.00841746
0.0227944 0.0174397 0.0073042
0.028581 0.0163901 0.00789372
0.0344566 0.0183575 0.00709964
0.0285087 0.0171574 0.00738975
0.0294439 0.0173259 0.00736244
0.0219089 0.0160172 0.00812698
0.0281592 0.0169541 0.00743852
0.0220811 0.0156873 0.00847399
0.0284345 0.0182512 0.00714935
0.0217167 0.0154417 0.00879106
0.0282209 0.0172389 0.00736721
0.0344499 0.0170877 0.00753419
0.0282766 0.0163283 0.00795925
0.0291844 0.0168825 0.00746956
0.028357 0.0165458 0.00776889
0.0286202 0.0166533 0.00767314
0.0285557 0.0188205 0.00700447
0.034092 0.0167245 0.00768814
0.02862 0.0169109 0.00751943
0.0341555 0.0169938 0.00757228
0.029467 0.0194111 0.00702833
0.034281 0.0175211 0.00731545
0.0345129 0.0173501 0.00739893
0.028719 0.018341 0.00711777
0.0288843 0.0175289 0.00730829
0.0289011 0.0169755 0.00743687
0.0225616 0.018628 0.00738502
0.0292366 0.0177475 0.007262
0.0345214 0.0186405 0.0071753
0.0285714 0.0174433 0.0073242
0.0283579 0.0167774 0.00757829
0.0343195 0.0165496 0.00777557
0.0294377 0.0182655 0.00712887
0.0280596 0.0156551 0.00851496
0.0288916 0.0181037 0.00717988
0.0283402 0.017812 0.00723574
0.0297156 0.0178171 0.00724434
0.0338988 0.0160226 0.00819823
0.0339656 0.0162304 0.00799246
0.028196 0.0161035 0.00814072
0.0291317 0.0166548 0.00765759
0.0227567 0.0185064 0.00713507
0.0296997 0.0181103 0.0071617
0.0295023 0.0176127 0.00729663
0.0227319 0.0171493 0.0073604
0.0342559 0.016281 0.00789294
0.0288441 0.0164961 0.00779618
0.0222637 0.0163399 0.00791962
0.0234706 0.019269 0.00702246
0.0342194 0.01726 0.00744968
0.0299654 0.0179737 0.00718905
0.0343831 0.016819 0.00765971
0.0291304 0.0164231 0.00784821
0.0281211 0.0158786 0.00832449
0.028945 0.0178153 0.00724261
0.0293529 0.0188017 0.00698015
0.0340284 0.0164551 0.00780398
0.028607 0.0180099 0.0071932
0.0226772 0.0169092 0.00753176
0.0291752 0.0174582 0.00732836
0.0286602 0.0177239 0.00726644
0.0287943 0.0172483 0.00737225
0.0344028 0.0180624 0.00709299
0.0216564 0.0152639 0.009025
0.0292923 0.0185194 0.00706297
0.0291257 0.0171698 0.00739465
0.0343386 0.0177827 0.00718038
0.0282814 0.0175253 0.00730153
0.0296393 0.0188997 0.00699862
0.0287481 0.0194699 0.00726832
0.0301986 0.0191068 0.00701708
0.022344 0.0178329 0.00723883
0.0288761 0.0168094 0.00768537
0.0225704 0.0176381 0.00728058
0.0226956 0.0182166 0.0071828
0.0346294 0.0166667 0.00773806
0.022595 0.0189907 0.00704787
0.0297775 0.018388 0.00707939
0.0294444 0.0167632 0.00755978
0.0289751 0.0194997 0.00701213
0.0286531 0.0167237 0.00796287
0.0228175 0.0187989 0.00710854
0.0294405 0.0170337 0.00743018
0.0286833 0.0194018 0.00698346
0.0291934 0.0192958 0.0069856
0.0286159 0.0191038 0.00692605
0.0341989 0.0160853 0.00811306
0.0226204 0.0166701 0.00770383
0.0289058 0.0192039 0.0069467
0.0225099 0.0173494 0.00733497
0.0287905 0.0160364 0.00817592
0.0277709 0.0155769 0.00856547
0.0215424 0.0150013 0.00954787
0.0224695 0.0184118 0.00714336
0.0230172 0.0172413 0.0073355
0.0217807 0.0156266 0.00856362
0.0234895 0.018206 0.00718785
0.0221028 0.0167441 0.0076424
0.0276509 0.0153044 0.00909684
0.0240119 0.0184503 0.00715247
0.0288449 0.0189132 0.00698868
0.0296931 0.0192021 0.00700131
0.024576 0.0188144 0.00709357
0.0242718 0.0183026 0.00717675
0.0222842 0.0175425 0.00728502
0.0228799 0.0190841 0.00703974
0.0293917 0.0165358 0.00774821
0.0278361 0.0158103 0.00838866
0.0229807 0.0183099 0.00717011
0.0291233 0.0161922 0.00803958
0.028837 0.0162646 0.00798685
0.0279043 0.016046 0.00819284
0.0299189 0.0190061 0.00697693
0.0218463 0.0158277 0.00835093
0.0298699 0.0187083 0.0069844
0.0285344 0.0161605 0.008081
0.0231423 0.0178212 0.00724614
0.0275928 0.0151802 0.00936417
0.0291305 0.0190029 0.00697002
0.022164 0.0169876 0.00747819
0.0291916 0.0181016 0.00717929
0.0224489 0.0170681 0.00741945
0.0290678 0.0187143 0.00702253
0.0284227 0.0159485 0.00826152
0.0290044 0.0184315 0.00710027
0.0275346 0.0150588 0.00963225
0.0219752 0.0162799 0.00799825
0.0287494 0.0196902 0.00706467
0.0294156 0.0190958 0.00696016
0.0230797 0.0175312 0.00729072
0.0294499 0.0179536 0.00721682
0.0223304 0.0165852 0.00775592
0.0229195 0.0180197 0.00721501
0.0229487 0.0168035 0.00760353
0.0233674 0.0176255 0.0072775
0.0277089 0.0154285 0.0088298
0.0220378 0.0165002 0.00780452
0.023763 0.0179604 0.00722742
0.0246459 0.0182894 0.00718066
0.0225527 0.016179 0.00803711
0.0287812 0.0186272 0.007053
0.0222249 0.0172624 0.00737453
0.0279937 0.0154809 0.00875012
0.0236715 0.0173848 0.00731645
0.0164674 0.0184004 0.00703744
0.0226326 0.0179272 0.00723011
0.0233997 0.018981 0.00706741
0.0224068 0.0181223 0.00719109
0.022821 0.0160715 0.00811767
0.0229472 0.0193734 0.00708181
0.024478 0.018535 0.00714165
0.022392 0.0168292 0.00759174
0.0284054 0.016581 0.00806285
0.0297437 0.0195194 0.00706983
0.0237852 0.018256 0.00718156
0.0286787 0.015823 0.00835465
0.0221717 0.0159064 0.00822009
0.024043 0.0181045 0.0072064
0.0283848 0.0168269 0.00787296
0.0230166 0.0196593 0.00702351
0.0281528 0.0162194 0.00841403
0.0232047 0.0181128 0.00720103
0.0228278 0.016319 0.00794681
0.0227843 0.0198456 0.00705937
0.0244503 0.0180645 0.00721466
0.0242248 0.0178689 0.00724395
0.0245455 0.019108 0.00703989
0.0236239 0.0187841 0.00709864
0.0188588 0.0198821 0.00709129
0.0290769 0.0159684 0.00823393
0.0245089 0.0177738 0.00726016
0.0283479 0.0157344 0.00845785
0.0234287 0.0179157 0.00723268
0.0228565 0.0177296 0.00725876
0.0281521 0.0169675 0.00773812
0.0293905 0.0163041 0.00793884
0.0222155 0.0162006 0.00818091
0.0299728 0.0193028 0.00704146
0.023215 0.0170391 0.0074354
0.0281343 0.0164313 0.00820252
0.0231877 0.0165298 0.00779565
0.0214213 0.0148269 0.0101082
0.0214819 0.0149 0.00982367
0.0274708 0.0149324 0.00989674
0.0176939 0.0207647 0.00736657
0.0231838 0.0191887 0.00708855
0.0232656 0.0184031 0.00715612
0.0242624 0.0192677 0.0070189
0.0231117 0.0188977 0.00707798
0.028285 0.0155312 0.00866942
0.0235182 0.0171415 0.00740562
0.0164032 0.0181079 0.00705609
0.0230416 0.0186002 0.00712468
0.0228899 0.01656 0.007776
0.0239572 0.0177346 0.00726349
0.0225323 0.0187013 0.0070956
0.0279352 0.0153579 0.00901737
0.0242133 0.0186743 0.00711866
0.0228447 0.0201016 0.00720356
0.0286042 0.0156129 0.0085555
0.0236949 0.0190726 0.00705593
0.0233051 0.0173355 0.00732228
0.0232533 0.0194754 0.00703437
0.0278769 0.0152329 0.00928378
0.0287446 0.0191479 0.00719343
0.0233285 0.018693 0.00711165
0.0167527 0.0184927 0.00704529
0.02807 0.0165441 0.00793208
0.0165298 0.0186919 0.00707041
0.0236621 0.0176811 0.00727033
0.0282191 0.01541 0.0089358
0.0239666 0.0174383 0.0073096
0.021597 0.0151025 0.00927076
0.0225591 0.0164275 0.00786927
0.0235524 0.0184959 0.00714309
0.0227136 0.0195378 0.00695765
0.0179894 0.020706 0.00736304
0.0231258 0.0162903 0.00796533
0.0277646 0.0157075 0.00892516
0.0237532 0.0193686 0.0070084
0.0243007 0.0195973 0.00695639
0.0173417 0.0203109 0.00718528
0.016292 0.017591 0.00733966
0.0179632 0.0211601 0.00754348
0.0168298 0.0200335 0.00719626
0.0171868 0.0205595 0.00724989
0.016595 0.0189826 0.00710567
0.0166602 0.0192739 0.00713619
0.0182372 0.0208824 0.00745062
0.0168872 0.01947 0.0071383
0.027891 0.0160934 0.00848875
0.0234373 0.0163931 0.0078908
0.0163484 0.0178493 0.00719795
0.0231191 0.0160454 0.00813849
0.023815 0.0168822 0.00754281
0.0172283 0.0239423 0.01201
0.0171787 0.0198775 0.00715586
0.0245695 0.0200261 0.00711506
0.0185227 0.0202844 0.00722998
0.024037 0.0194657 0.00701253
0.0245278 0.0194035 0.00698544
0.0175147 0.0205459 0.00726662
0.0293835 0.0160819 0.0081402
0.0247829 0.0195578 0.00695188
0.0235622 0.0198956 0.00715464
0.0182268 0.0202487 0.00719559
0.0238106 0.0196604 0.00696927
0.0234969 0.016633 0.00772085
0.0231485 0.0211636 0.00802199
0.0220162 0.0154956 0.00869538
0.0192766 0.0195379 0.00698148
0.0237653 0.0200808 0.00727487
0.022636 0.0156442 0.0084919
0.0231237 0.0200028 0.00715506
0.0168808 0.0190737 0.00710095
0.0234486 0.0219037 0.00855515
0.0239191 0.0187322 0.00710819
0.0184773 0.0198272 0.00705608
0.024556 0.019744 0.00701366
0.0241106 0.0171784 0.00735074
0.0179466 0.0203649 0.00722326
0.0168947 0.0203255 0.00721937
0.0227352 0.01583 0.00827824
0.0181483 0.0199774 0.00709447
0.0180881 0.0214123 0.00765317
0.0239901 0.0190202 0.00706375
0.0203586 0.0230821 0.00978263
0.0235158 0.0196048 0.00696825
0.0230335 0.0158086 0.00830162
0.0230765 0.0202361 0.00733834
0.0176038 0.0170538 0.00765492
0.0225324 0.0171069 0.00770494
0.0242846 0.0189658 0.00708137
0.022367 0.0157391 0.00839921
0.0238157 0.0171271 0.00736964
0.024038 0.019989 0.00718995
0.0223022 0.0155473 0.00862062
0.0242927 0.0198657 0.00709029
0.0235151 0.0168774 0.00754793
0.017307 0.0208571 0.00737747
0.0250808 0.0195233 0.00694607
0.0278122 0.0158804 0.00868469
0.023298 0.0197655 0.00709757
0.0176946 0.0210431 0.00747834
0.0188114 0.0195973 0.00700971
0.0276929 0.0155865 0.00919013
0.023246 0.0167699 0.00762555
0.0224684 0.0159496 0.00821115
0.0247999 0.0192627 0.00700324
0.0167646 0.0197416 0.00717318
0.0174414 0.0200231 0.00715053

VERTICES 297 594
1 0
1 1
1 2
1 3
1 4
1 5
1 6
1 7
1 8
1 9
1 10
1 11
1 12
1 13
1 14
1 15
1 16
1 17
1 18
1 19
1 20
1 21
1 22
1 23
1 24
1 25
1 26
1 27
1 28
1 29
1 30
1 31
1 32
1 33
1 34
1 35
1 36
1 37
1 38
1 39
1 40
1 41
1 42
1 43
1 44
1 45
1 46
1 47
1 48
1 49
1 50
1 51
1 52
1 53
1 54
1 55
1 56
1 57
1 58
1 59
1 60
1 61
1 62
1 63
1 64
1 65
1 66
1 67
1 68
1 69
1 70
1 71
1 72
1 73
1 74
1 75
1 76
1 77
1 78
1 79
1 80
1 81
1 82
1 83
1 84
1 85
1 86
1 87
1 88
1 89
1 90
1 91
1 92
1 93
1 94
1 95
1 96
1 97
1 98
1 99
1 100
1 101
1 102
1 103
1 104
1 105
1 106
1 107
1 108
1 109
1 110
1 111
1 112
1 113
1 114
1 115
1 116
1 117
1 118
1 119
1 120
1 121
1 122
1 123
1 124
1 125
1 126
1 127
1 128
1 129
1 130
1 131
1 132
1 133
1 134
1 135
1 136
1 137
1 138
1 139
1 140
1 141
1 142
1 143
1 144
1 145
1 146
1 147
1 148
1 149
1 150
1 151
1 152
1 153
1 154
1 155
1 156
1 157
1 158
1 159
1 160
1 161
1 162
1 163
1 164
1 165
1 166
1 167
1 168
1 169
1 170
1 171
1 172
1 173
1 174
1 175
1 176
1 177
1 178
1 179
1 180
1 181
1 182
1 183
1 184
1 185
1 186
1 187
1 188
1 189
1 190
1 191
1 192
1 193
1 194
1 195
1 196
1 197
1 198
1 199
1 200
1 201
1 202
1 203
1 204
1 205
1 206
1 207
1 208
1 209
1 210
1 211
1 212
1 213
1 214
1 215
1 216
1 217
1 218
1 219
1 220
1 221
1 222
1 223
1 224
1 225
1 226
1 227
1 228
1 229
1 230
1 231
1 232
1 233
1 234
1 235
1 236
1 237
1 238
1 239
1 240
1 241
1 242
1 243
1 244
1 245
1 246
1 247
1 248
1 249
1 250
1 251
1 252
1 253
1 254
1 255
1 256
1 257
1 258
1 259
1 260
1 261
1 262
1 263
1 264
1 265
1 266
1 267
1 268
1 269
1 270
1 271
1 272
1 273
1 274
1 275
1 276
1 277
1 278
1 279
1 280
1 281
1 282
1 283
1 284
1 285
1 286
1 287
1 288
1 289
1 290
1 291
1 292
1 293
1 294
1 295
1 296

POINT_DATA 297
SCALARS id int 1
LOOKUP_TABLE default
1
2
3
4
5
6
7
8
9
10
11
12
13
14
15
16
17
18
19
20
21
22
23
24
25
26
27
28
29
30
31
32
33
34
35
36
37
38
39
40
41
42
43
44
45
46
47
48
49
50
51
52
53
54
55
56
57
58
59
60
61
62
63
64
65
66
67
68
69
70
71
72
73
74
75
76
77
78
80
81
82
83
84
85
86
87
88
89
90
91
92
93
94
95
96
97
98
99
100
101
102
103
104
105
106
107
108
109
110
111
112
113
114
115
116
117
118
119
120
121
122
123
124
125
126
127
128
129
130
131
132
133
134
135
136
137
138
139
140
141
142
143
144
145
146
147
148
149
150
151
152
153
154
155
156
157
158
159
160
161
162
163
164
165
167
168
169
170
171
172
173
174
175
176
177
178
179
180
181
182
183
185
186
187
188
189
190
191
192
193
194
195
196
197
198
199
200
201
202
203
204
205
206
207
208
209
210
211
212
213
214
215
216
217
218
219
220
221
222
223
224
225
226
227
228
229
230
231
232
233
234
235
236
237
238
239
240
241
242
243
244
245
246
247
248
249
250
251
252
253
254
255
256
257
258
259
260
261
262
263
264
265
266
267
268
269
270
271
272
273
274
275
276
277
278
279
280
281
282
283
284
285
286
287
288
289
290
291
292
293
294
295
296
297
298
299
300

SCALARS type int 1
LOOKUP_TABLE default
1
1
1
1
1
1
1
1
1
1
1
1
1
1
1
1
1
1
1
1
1
1
1
1
1
1
1
1
1
1
1
1
1
1
1
1
1
1
1
1
1
1
1
1
1
1
1
1
1
1
1
1
1
1
1
1
1
1
1
1
1
1
1
1
1
1
1
1
1
1
1
1
1
1
1
1
1
1
1
1
1
1
1
1
1
1
1
1
1
1
1
1
1
1
1
1
1
1
1
1
1
1
1
1
1
1
1
1
1
1
1
1
1
1
1
1
1
1
1
1
1
1
1
1
1
1
1
1
1
1
1
1
1
1
1
1
1
1
1
1
1
1
1
1
1
1
1
1
1
1
1
1
1
1
1
1
1
1
1
1
1
1
1
1
1
1
1
1
1
1
1
1
1
1
1
1
1
1
1
1
1
1
1
1
1
1
1
1
1
1
1
1
1
1
1
1
1
1
1
1
1
1
1
1
1
1
1
1
1
1
1
1
1
1
1
1
1
1
1
1
1
1
1
1
1
1
1
1
1
1
1
1
1
1
1
1
1
1
1
1
1
1
1
1
1
1
1
1
1
1
1
1
1
1
1
1
1
1
1
1
1
1
1
1
1
1
1
1
1
1
1
1
1
1
1
1
1
1
1
1
1
1
1
1
1
1
1
1
1
1
1
1
1
1
1
1
1

SCALARS radius float 1
LOOKUP_TABLE default
0.00015
0.00015
0.00015
0.00015
0.00015
0.00015
0.00015
0.00015
0.00015
0.00015
0.00015
0.00015
0.00015
0.00015
0.00015
0.00015
0.00015
0.00015
0.00015
0.00015
0.00015
0.00015
0.00015
0.00015
0.00015
0.00015
0.00015
0.00015
0.00015
0.00015
0.00015
0.00015
0.00015
0.00015
0.00015
0.00015
0.00015
0.00015
0.00015
0.00015
0.00015
0.00015
0.00015
0.00015
0.00015
0.00015
0.00015
0.00015
0.00015
0.00015
0.00015
0.00015
0.00015
0.00015
0.00015
0.00015
0.00015
0.00015
0.00015
0.00015
0.00015
0.00015
0.00015
0.00015
0.00015
0.00015
0.00015
0.00015
0.00015
0.00015
0.00015
0.00015
0.00015
0.00015
0.00015
0.00015
0.00015
0.00015
0.00015
0.00015
0.00015
0.00015
0.00015
0.00015
0.00015
0.00015
0.00015
0.00015
0.00015
0.00015
0.00015
0.00015
0.00015
0.00015
0.00015
0.00015
0.00015
0.00015
0.00015
0.00015
0.00015
0.00015
0.00015
0.00015
0.00015
0.00015
0.00015
0.00015
0.00015
0.00015
0.00015
0.00015
0.00015
0.00015
0.00015
0.00015
0.00015
0.00015
0.00015
0.00015
0.00015
0.00015
0.00015
0.00015
0.00015
0.00015
0.00015
0.00015
0.00015
0.00015
0.00015
0.00015
0.00015
0.00015
0.00015
0.00015
0.00015
0.00015
0.00015
0.00015
0.00015
0.00015
0.00015
0.00015
0.00015
0.00015
0.00015
0.00015
0.00015
0.00015
0.00015
0.00015
0.00015
0.00015
0.00015
0.00015
0.00015
0.00015
0.00015
0.00015
0.00015
0.00015
0.00015
0.00015
0.00015
0.00015
0.00015
0.00015
0.00015
0.00015
0.00015
0.00015
0.00015
0.00015
0.00015
0.00015
0.00015
0.00015
0.00015
0.00015
0.00015
0.00015
0.00015
0.00015
0.00015
0.00015
0.00015
0.00015
0.00015
0.00015
0.00015
0.00015
0.00015
0.00015
0.00015
0.00015
0.00015
0.00015
0.00015
0.00015
0.00015
0.00015
0.00015
0.00015
0.00015
0.00015
0.00015
0.00015
0.00015
0.00015
0.00015
0.00015
0.00015
0.00015
0.00015
0.00015
0.00015
0.00015
0.00015
0.00015
0.00015
0.00015
0.00015
0.00015
0.00015
0.00015
0.00015
0.00015
0.00015
0.00015
0.00015
0.00015
0.00015
0.00015
0.00015
0.00015
0.00015
0.00015
0.00015
0.00015
0.00015
0.00015
0.00015
0.00015
0.00015
0.00015
0.00015
0.00015
0.00015
0.00015
0.00015
0.00015
0.00015
0.00015
0.00015
0.00015
0.00015
0.00015
0.00015
0.00015
0.00015
0.00015
0.00015
0.00015
0.00015
0.00015
0.00015
0.00015
0.00015
0.00015
0.00015
0.00015
0.00015
0.00015
0.00015
0.00015
0.00015
0.00015
0.00015
0.00015
0.00015
0.00015
0.00015
0.00015
0.00015
0.00015
0.00015
0.00015
0.00015
0.00015
0.00015
0.00015
0.00015
0.00015
0.00015
0.00015
0.00015

SCALARS mass float 1
LOOKUP_TABLE default
3.95841e-09
3.95841e-09
3.95841e-09
3.95841e-09
3.95841e-09
3.95841e-09
3.95841e-09
3.95841e-09
3.95841e-09
3.95841e-09
3.95841e-09
3.95841e-09
3.95841e-09
3.95841e-09
3.95841e-09
3.95841e-09
3.95841e-09
3.95841e-09
3.95841e-09
3.95841e-09
3.95841e-09
3.95841e-09
3.95841e-09
3.95841e-09
3.95841e-09
3.95841e-09
3.95841e-09
3.95841e-09
3.95841e-09
3.95841e-09
3.95841e-09
3.95841e-09
3.95841e-09
3.95841e-09
3.95841e-09
3.95841e-09
3.95841e-09
3.95841e-09
3.95841e-09
3.95841e-09
3.95841e-09
3.95841e-09
3.95841e-09
3.95841e-09
3.95841e-09
3.95841e-09
3.95841e-09
3.95841e-09
3.95841e-09
3.95841e-09
3.95841e-09
3.95841e-09
3.95841e-09
3.95841e-09
3.95841e-09
3.95841e-09
3.95841e-09
3.95841e-09
3.95841e-09
3.95841e-09
3.95841e-09
3.95841e-09
3.95841e-09
3.95841e-09
3.95841e-09
3.95841e-09
3.95841e-09
3.95841e-09
3.95841e-09
3.95841e-09
3.95841e-09
3.95841e-09
3.95841e-09
3.95841e-09
3.95841e-09
3.95841e-09
3.95841e-09
3.95841e-09
3.95841e-09
3.95841e-09
3.95841e-09
3.95841e-09
3.95841e-09
3.95841e-09
3.95841e-09
3.95841e-09
3.95841e-09
3.95841e-09
3.95841e-09
3.95841e-09
3.95841e-09
3.95841e-09
3.95841e-09
3.95841e-09
3.95841e-09
3.95841e-09
3.95841e-09
3.95841e-09
3.95841e-09
3.95841e-09
3.95841e-09
3.95841e-09
3.95841e-09
3.95841e-09
3.95841e-09
3.95841e-09
3.95841e-09
3.95841e-09
3.95841e-09
3.95841e-09
3.95841e-09
3.95841e-09
3.95841e-09
3.95841e-09
3.95841e-09
3.95841e-09
3.95841e-09
3.95841e-09
3.95841e-09
3.95841e-09
3.95841e-09
3.95841e-09
3.95841e-09
3.95841e-09
3.95841e-09
3.95841e-09
3.95841e-09
3.95841e-09
3.95841e-09
3.95841e-09
3.95841e-09
3.95841e-09
3.95841e-09
3.95841e-09
3.95841e-09
3.95841e-09
3.95841e-09
3.95841e-09
3.95841e-09
3.95841e-09
3.95841e-09
3.95841e-09
3.95841e-09
3.95841e-09
3.95841e-09
3.95841e-09
3.95841e-09
3.95841e-09
3.95841e-09
3.95841e-09
3.95841e-09
3.95841e-09
3.95841e-09
3.95841e-09
3.95841e-09
3.95841e-09
3.95841e-09
3.95841e-09
3.95841e-09
3.95841e-09
3.95841e-09
3.95841e-09
3.95841e-09
3.95841e-09
3.95841e-09
3.95841e-09
3.95841e-09
3.95841e-09
3.95841e-09
3.95841e-09
3.95841e-09
3.95841e-09
3.95841e-09
3.95841e-09
3.95841e-09
3.95841e-09
3.95841e-09
3.95841e-09
3.95841e-09
3.95841e-09
3.95841e-09
3.95841e-09
3.95841e-09
3.95841e-09
3.95841e-09
3.95841e-09
3.95841e-09
3.95841e-09
3.95841e-09
3.95841e-09
3.95841e-09
3.95841e-09
3.95841e-09
3.95841e-09
3.95841e-09
3.95841e-09
3.95841e-09
3.95841e-09
3.95841e-09
3.95841e-09
3.95841e-09
3.95841e-09
3.95841e-09
3.95841e-09
3.95841e-09
3.95841e-09
3.95841e-09
3.95841e-09
3.95841e-09
3.95841e-09
3.95841e-09
3.95841e-09
3.95841e-09
3.95841e-09
3.95841e-09
3.95841e-09
3.95841e-09
3.95841e-09
3.95841e-09
3.95841e-09
3.95841e-09
3.95841e-09
3.95841e-09
3.95841e-09
3.95841e-09
3.95841e-09
3.95841e-09
3.95841e-09
3.95841e-09
3.95841e-09
3.95841e-09
3.95841e-09
3.95841e-09
3.95841e-09
3.95841e-09
3.95841e-09
3.95841e-09
3.95841e-09
3.95841e-09
3.95841e-09
3.95841e-09
3.95841e-09
3.95841e-09
3.95841e-09
3.95841e-09
3.95841e-09
3.95841e-09
3.95841e-09
3.95841e-09
3.95841e-09
3.95841e-09
3.95841e-09
3.95841e-09
3.95841e-09
3.95841e-09
3.95841e-09
3.95841e-09
3.95841e-09
3.95841e-09
3.95841e-09
3.95841e-09
3.95841e-09
3.95841e-09
3.95841e-09
3.95841e-09
3.95841e-09
3.95841e-09
3.95841e-09
3.95841e-09
3.95841e-09
3.95841e-09
3.95841e-09
3.95841e-09
3.95841e-09
3.95841e-09
3.95841e-09
3.95841e-09
3.95841e-09
3.95841e-09
3.95841e-09
3.95841e-09
3.95841e-09
3.95841e-09
3.95841e-09
3.95841e-09
3.95841e-09
3.95841e-09
3.95841e-09
3.95841e-09
3.95841e-09
3.95841e-09
3.95841e-09
3.95841e-09
3.95841e-09
3.95841e-09
3.95841e-09
3.95841e-09

VECTORS velocity float
0.00595252 -0.000471831 0.000262105
0.00574931 -0.000554238 0.000200393
0.00580095 -0.00149101 -0.0001852
0.00576931 -0.000840596 -9.06951e-06
0.00596424 -0.000538729 0.000290114
0.00589688 -0.000346031 7.73674e-05
0.00486504 -0.00137898 -6.41552e-06
0.00607775 -0.000435514 0.000189667
0.00572115 -0.000217054 3.71555e-05
0.0056353 -0.000535396 0.00019437
0.00585977 -0.000250635 0.000130038
0.00589345 -0.000859462 0.000738607
0.00561842 -0.000614666 0.000338337
0.00583542 -0.000960085 0.000761517
0.00560767 -0.000522374 0.000189756
0.00570111 -0.000782842 0.000752441
0.00560455 -0.000634521 0.00021991
0.00601296 -5.68723e-05 -6.66701e-05
0.00600995 -0.000475372 0.000213875
0.00588585 -0.000291703 0.000121812
0.00602238 -0.000466768 0.000221434
0.00598209 -0.000422569 0.000182413
0.00590155 -0.000568901 0.000207984
0.00597145 -0.000154811 0.000339034
0.00588618 -0.00041532 0.000183895
0.00588425 -0.000138516 0.000329005
0.00592363 -0.000800768 0.000249621
0.00544277 -0.000193318 -2.27444e-05
0.00570824 9.72013e-05 -0.000139045
0.00566157 -0.0006522 0.000220887
0.00561082 -0.000480461 0.000183009
0.00586197 -0.000347607 0.000154956
0.00562264 -0.00132463 0.000471771
0.00563521 -0.000650657 0.000218897
0.00567814 -0.000205829 3.83968e-05
0.00556174 -0.00052556 0.00019159
0.0059313 -0.000474224 0.000226797
0.00603286 -8.84987e-05 0.000314404
0.00572308 -0.000812571 -1.57014e-05
0.00594096 -0.000490686 0.000260335
0.00565352 -0.000653111 0.000224103
0.00528604 -0.000578056 0.000199966
0.00586811 -0.000316317 -0.000164176
0.00597474 -0.000364655 9.55549e-05
0.00602876 -0.000271782 0.000221005
0.00597488 -0.000498995 0.000192579
0.0059793 -0.000319809 0.000101234
0.00569282 -0.00145335 0.000416109
0.00573317 -0.00087152 -1.77649e-05
0.00585495 -0.000241231 0.000131326
0.00507206 -0.000873527 0.00056027
0.0061388 -0.000263719 -2.76898e-05
0.00604714 -0.000382666 0.000147902
0.00590307 -0.000824799 0.000731687
0.00589351 -0.00166141 0.000361565
0.00582165 -0.000255687 3.82863e-05
0.00596966 -0.000462227 -0.000126553
0.00594133 -7.57974e-05 0.000303614
0.00608748 -0.000322327 8.80312e-05
0.0059607 -0.000516649 0.000213159
0.0056331 -0.000658576 0.000224948
0.00583564 -0.000806645 -2.06437e-05
0.00606096 -0.000168687 0.000353174
0.00560631 -0.000525049 0.000191916
0.00525882 -0.00089357 0.000580793
0.00566045 -0.000247787 0.00012864
0.00557295 -0.000528061 0.000193881
0.00568317 -0.000403427 0.000166091
0.00567211 -0.000211252 3.13834e-05
0.00541617 -0.000517264 0.00089565
0.00573606 -0.000807623 -1.72542e-05
0.00575291 -0.000250877 0.000129904
0.00537425 -0.000159472 -2.23071e-06
0.00522679 -0.000560129 0.000196902
0.00583406 -0.0008292 0.000203511
0.00602494 -0.000659908 0.000315573
0.0059297 -0.000997902 0.000209998
0.00536905 -0.00071651 0.000287715
0.00593744 -0.00037236 0.000152031
0.00487343 -0.00125847 0.000394447
0.00568694 -0.00148459 0.000403341
0.00599491 -4.37953e-06 0.000274421
0.00578156 -0.00136317 0.000408063
0.00574332 -0.000866203 3.45927e-06
0.00590197 -0.00027563 9.68211e-05
0.00594294 -0.000689186 0.000277048
0.00602401 -0.000425939 0.000174861
0.00578432 -0.00143668 0.000413629
0.00585919 -0.000254752 0.00013335
0.00600329 -0.000688795 0.000303046
0.00590267 -0.000740929 0.000262426
0.00600391 -0.000673246 -6.73553e-05
0.00616116 -0.000261223 -2.79056e-05
0.00542933 -0.000919075 0.000576262
0.00596589 -0.000722123 0.000271578
0.00483788 -0.00114917 0.000554318
0.00586609 -0.000351818 0.000140224
0.00593901 -0.000295729 0.000287342
0.00534543 -0.00039646 0.000956941
0.00566172 -0.000631973 0.000265116
0.00487509 -0.00138449 0.000288747
0.00576056 -0.000885746 0.000678768
0.005791 -0.00168904 0.00029821
0.00585417 -0.000732348 0.000747669
0.00559955 3.87344e-05 0.000608448
0.00593891 -0.00145295 0.00026317
0.00587325 -0.000698076 0.000226917
0.00593119 -0.000837351 0.000243634
0.00435033 -0.000819244 1.76008e-05
0.00591456 -0.00140408 0.000248579
0.00534274 -0.00082557 -1.20219e-05
0.00587135 -0.00141292 0.000401121
0.00600325 -0.000307566 8.56588e-05
0.0059642 -0.000432082 0.000191311
0.00572554 -0.0015642 0.000366618
0.00619408 -0.000345543 5.59741e-05
0.00614859 -0.000385337 0.000148833
0.00593666 -0.000475301 0.000214938
0.00587866 -0.000907424 0.000225472
0.00586156 -0.00090845 0.000694356
0.00579511 -0.000834106 -1.25683e-05
0.0058846 -0.000401259 0.000160837
0.0057731 -0.00156657 0.000335812
0.00552493 0.000201073 0.000262393
0.00588446 -0.000749505 0.000151984
0.00538122 -0.000803588 0.000414843
0.00565628 -0.000639726 0.000217719
0.00508021 -0.00109555 0.000759213
0.00578471 -0.00074787 5.95794e-05
0.00594679 -0.000576139 9.64358e-05
0.0056798 -0.000723505 9.87652e-05
0.0063033 -8.03688e-05 0.00035363
0.00589349 -0.000837673 0.000729444
0.00595083 -0.000670968 0.000290765
0.00588256 -0.000775978 0.000254719
0.00499433 -0.00141886 0.000233682
0.00565447 -0.000678734 0.000140229
0.00582291 -0.000816254 0.00074271
0.00573693 -0.00151374 0.000408518
0.00539112 -0.000559109 0.00036344
0.00575816 -0.00163788 0.00029424
0.00581908 0.000112522 0.00046179
0.00586414 -0.000801627 0.000723183
0.00564182 -0.00120391 0.000211625
0.00595795 -0.00133926 0.000236218
0.0057135 -0.000914824 0.000793068
0.00575254 -0.000678508 0.000199961
0.00536357 -0.000739171 0.000466207
0.00533436 7.98146e-05 0.000494251
0.00519787 -0.00117487 0.000378056
0.00532401 -0.00273888 -0.000377666
0.00538491 -0.00140995 0.000407443
0.00577272 -0.00169319 0.000325874
0.00553235 -0.000671294 0.000267101
0.00579121 -0.000799012 0.000706699
0.00603627 -0.00129412 7.81682e-05
0.00597037 -0.00134604 0.000239071
0.0050809 -0.00139059 0.00038863
0.0060564 -0.00041153 0.000218881
0.00592999 -0.000822669 0.000245274
0.00571829 -0.00122266 0.000220558
0.00597855 -0.00040435 0.000152164
0.00581467 -0.000950702 0.000762311
0.00566871 -0.00127185 0.000225881
0.0060018 -0.000430602 0.000215262
0.00584567 -0.00128916 -0.000582385
0.00620875 -0.00069874 0.00028035
0.0057691 -0.00164928 0.000302443
0.00574442 -0.00100794 0.00063173
0.00585442 -0.0011052 -0.000677045
0.00588306 -0.0014089 0.000247663
0.00565502 -0.00120171 0.000213723
0.00603016 -0.000698887 -8.12522e-05
0.00590105 -0.0016243 0.00021923
-1.40974e-06 1.21728e-07 -7.9815e-08
0.00587367 -3.42245e-05 0.00033841
0.0055534 -0.00144131 0.000252841
0.00592251 -0.000494705 0.000220785
0.00578373 -0.00166709 0.000296854
0.00538207 -0.00144828 0.000229621
0.00563241 -0.000629041 0.000324101
0.00610917 -0.000306553 8.10113e-05
0.00576679 -0.000998884 0.000630615
0.00598188 -0.000925474 0.00022782
0.00514905 -0.000930473 0.000615041
0.00603729 -0.000571088 0.000358381
0.0054631 -0.000815067 0.000558541
0.00563814 -0.000318335 0.00105697
0.00539156 -0.000311484 0.000998278
0.00577942 0.000171638 0.000399025
-1.27419e-10 -2.41704e-11 -1.84544e-11
0.00578465 -0.00144703 0.000172772
0.0057496 -0.00168206 0.000343485
0.00584114 -0.000828336 -2.84039e-05
0.00577516 -0.00155172 0.000421716
0.00600464 -0.000498244 0.000260132
0.00565412 -0.0014556 0.000665407
0.0049984 -0.00255397 0.00143408
0.00575412 -0.00158308 0.000379522
0.00545208 -0.000881245 0.000583176
0.00559547 -0.00121553 0.00021242
0.00561082 -0.00140758 0.000416782
0.00550144 0.000186724 0.000540966
0.0059396 -0.00142302 0.000259956
0.00560714 -0.0013069 -0.000377826
0.00595523 -0.000132784 0.000452067
0.00604952 -0.00158076 0.000659601
0.00555915 -0.00163621 0.000278799
0.00582504 -0.00147825 5.63256e-05
0.00566197 0.000104809 0.000534029
0.00570137 -0.000745815 8.35592e-05
0.00577243 -0.00169791 0.000391901
0.00532136 -0.00273667 -0.000354234
0.0059839 -0.000495943 0.000325163
0.00532023 -0.00273828 -0.000355417
0.00562255 -0.00118118 0.000236794
0.00561773 0.000135587 0.000499133
0.00528487 -0.00116732 0.000204482
0.00534372 -0.000446281 0.000928688
0.00575319 -0.000895641 0.000778219
0.00595228 -0.00170913 0.000303625
0.00590248 -0.00129314 0.000334937
7.72184e-15 4.57531e-14 -1.14014e-13
0.00575871 -0.000930033 0.000623416
0.00576369 9.83079e-05 0.000466275
0.00576523 -0.00133984 0.000237708
0.00567021 -0.000484154 -4.01878e-05
-2.19753e-07 -7.38072e-08 -8.32501e-09
0.00488998 -0.00253962 0.00142411
-3.76623e-15 -2.23152e-14 5.5608e-14
0.00533663 -0.0027175 -0.000649571
-0.000381442 -0.00020919 -0.000109759
0.00531697 -0.00273348 -0.000351319
0.00531555 -0.00269736 -0.000647611
-1.78878e-14 -1.05985e-13 2.64107e-13
0.00533575 -0.00271616 -0.000649383
0.0059724 -0.000262409 0.000179698
0.00509556 -0.00133032 0.000909231
0.00494313 -0.00254723 0.00142854
0.00579244 -0.000955272 0.000672729
0.00582961 -0.00083187 0.000555515
-0.000123965 -0.000386802 0.00021734
3.55579e-15 -4.63912e-15 4.86207e-14
-2.67423e-07 1.08281e-05 3.87392e-06
-3.33841e-15 -1.95398e-14 4.90669e-14
0.00572783 -0.000856251 -4.06444e-06
0.0056889 -0.000526741 -6.38808e-05
4.61896e-10 -3.74657e-10 -1.1928e-10
0.0062259 -2.3686e-05 0.000386391
0.00553844 -0.000341425 -1.18193e-05
0.00607658 -0.000597485 -0.000691407
-3.15295e-15 -1.9884e-14 4.9013e-14
0.00663272 -0.00150892 -0.00275681
0.00554329 -0.00139559 0.000954097
-0.000120998 -0.0209473 -0.0135669
0.00569816 -0.000940429 0.000751678
-0.00687137 -0.0331627 -0.0137734
0.00531519 -0.000196943 -0.000336954
0.00591037 -0.000936759 0.000736809
0.00573466 -0.00140418 -0.000120426
0.00529969 -0.00271465 -0.000646546
0.00014945 -0.000179583 -0.00125704
0.00593221 -0.00148252 0.000265625
-5.13214e-15 6.69614e-15 -7.01753e-14
0.00557113 -0.000295044 3.73054e-05
0.00568991 -0.000888959 0.00015315
1.68169e-14 9.96414e-14 -2.48301e-13
0.00514986 -0.00267659 -0.000632101
0.00581727 -0.000876601 0.000773123
3.86145e-15 -5.16462e-15 5.44655e-14
-1.78878e-14 -1.05984e-13 2.64107e-13
0.00615947 -0.0015611 0.000214427
-0.0218504 -0.0755185 -0.10169
0.00645233 -0.00213392 0.000778431
0.00578171 -0.000909233 0.00078402
0.00371169 -4.34505e-06 0.000819193
0.00514119 0.112554 -0.0658731
0.00559548 -0.00079669 0.000579414
0.00633974 -0.00150565 -0.000875856
0.0058511 -0.000992598 0.00079521
0.00570418 -0.000823962 0.000570396
0.00509786 -1.91885e-05 -0.00111389
0.00577369 -0.00101207 0.000828296
0.00527984 0.000116206 -0.00119258
0.00583967 -0.00137969 0.000972561
-0.000147071 -0.00087162 -0.000359737
0.00547277 -0.000503638 -6.29624e-05
0.00556022 0.000113577 0.000422504
0.00626832 -0.00172575 0.000769714
-1.07071e-14 -6.34409e-14 1.5809e-13
4.48622e-07 -2.06943e-07 -1.42164e-09
0.0059733 -8.10151e-05 0.000482013
0.00537782 -0.000744662 0.000496811
0.00579942 -0.000943267 0.000800809
0.00575071 -0.000317824 -0.000104471
0.00532712 -0.0027173 -0.000648888
1.13743e-08 -2.00057e-08 -2.74051e-09

VECTORS force float
4.37863e-09 -9.67902e-10 -1.0028e-10
8.09574e-10 -5.90928e-11 2.11891e-10
-5.26999e-09 -1.3149e-08 -4.73809e-09
-2.56361e-09 6.22922e-11 -2.33611e-09
-7.80029e-10 2.82361e-09 -3.86864e-09
-3.42313e-09 4.9351e-10 -1.40609e-09
-1.45823e-08 -7.96936e-09 -1.16067e-08
-5.30545e-09 -2.02627e-09 -1.08569e-09
-7.53332e-11 -5.33329e-10 -6.0689e-11
1.10061e-09 3.17247e-09 -8.19968e-10
-2.29367e-09 1.50988e-09 -4.16958e-10
-2.28391e-09 1.4745e-09 -7.83335e-10
-8.14991e-10 7.29594e-10 2.80669e-10
-3.31681e-09 4.78982e-09 -3.8064e-09
9.97674e-10 1.50391e-09 5.59113e-10
6.13524e-10 -7.35813e-09 -8.24992e-09
6.97724e-10 -1.16018e-10 -9.98043e-10
6.33823e-10 2.39525e-10 -1.29007e-10
1.26518e-09 4.43674e-09 6.60381e-09
-6.81809e-10 1.12838e-09 3.76999e-10
-2.72936e-09 2.23155e-09 -1.30858e-09
-2.29548e-09 1.51728e-09 -9.88619e-10
-1.66795e-09 -2.88624e-09 7.23142e-10
1.23609e-10 -1.20603e-10 2.22305e-10
-2.96983e-10 1.8092e-09 -1.51706e-09
2.14984e-10 1.13302e-11 7.59545e-11
-3.22699e-09 1.80033e-09 2.08617e-11
-1.18593e-10 -1.60915e-10 -5.61041e-10
1.34266e-10 5.84735e-10 -1.53322e-10
1.54622e-09 -8.6902e-10 -2.3243e-11
-5.29003e-10 3.8397e-09 -8.53388e-10
2.30879e-10 2.49969e-09 -4.54998e-10
1.5203e-09 -6.88644e-10 -1.36672e-09
1.26902e-09 1.94857e-09 -4.32686e-10
-8.36519e-11 -2.61903e-10 4.46513e-11
8.30673e-10 2.53692e-09 -7.9958e-10
1.39515e-10 1.43684e-09 -1.84295e-09
1.44956e-10 -5.74164e-10 1.18526e-10
1.13549e-09 1.55283e-09 -7.73045e-10
-2.52274e-09 1.00423e-08 9.50638e-09
7.56015e-10 -1.133e-09 -1.33456e-10
7.01545e-09 -6.30377e-09 1.27029e-09
5.37841e-10 4.1566e-11 -8.41219e-10
4.88066e-10 8.13242e-10 5.71985e-10
1.84705e-10 8.03656e-10 -7.32224e-10
2.92562e-09 -2.1326e-09 1.50826e-09
-2.21471e-09 1.25971e-09 1.88458e-11
4.81795e-09 4.11836e-09 4.83193e-09
-1.73872e-09 -8.2962e-10 -2.54599e-10
-1.25934e-09 8.1774e-10 5.33142e-10
-1.98412e-08 -3.43743e-09 -1.71146e-09
9.21923e-11 -4.05419e-10 -8.26265e-10
-3.76138e-09 -5.00682e-11 6.03983e-10
2.2911e-10 2.46091e-09 4.11018e-11
-7.66087e-09 1.3433e-08 1.40729e-08
1.20864e-10 2.87304e-11 -2.4729e-10
-8.10161e-11 2.42633e-09 -5.83619e-10
3.30677e-10 -1.66657e-10 1.26864e-10
-3.15836e-09 8.87835e-10 -9.86127e-10
-1.70949e-09 1.65687e-09 2.99022e-09
2.13987e-09 -5.74701e-10 2.15564e-11
1.2058e-09 4.09408e-10 5.01193e-10
6.82224e-12 -2.04869e-10 -5.55961e-10
-1.3759e-10 1.24866e-09 3.65416e-12
-5.39074e-10 -7.35351e-09 -3.58777e-09
-3.33407e-09 1.75959e-09 -4.583e-10
6.29601e-10 2.28104e-09 -7.99979e-10
4.14589e-10 1.73704e-09 -6.90836e-10
1.33497e-10 -5.47231e-10 3.72332e-11
-3.94575e-10 1.22505e-10 -4.58759e-09
-9.25806e-10 3.71265e-11 1.86088e-10
5.82073e-10 2.03728e-09 -3.21605e-10
-3.33904e-10 -2.01721e-10 -7.47389e-11
3.05927e-10 -8.13767e-10 -1.01591e-10
-4.21773e-09 1.72142e-09 -9.91643e-11
3.307e-09 5.1993e-09 4.5988e-10
-1.8755e-09 1.34002e-09 -4.52202e-10
-3.18233e-09 -1.93329e-09 -2.05761e-09
-2.51586e-09 1.43335e-09 -4.86179e-10
-3.71787e-09 -8.80346e-09 3.78352e-09
6.38693e-09 1.36487e-09 1.29149e-08
5.52591e-10 1.41611e-10 -2.13287e-11
4.39766e-09 1.6476e-08 -8.54805e-09
-2.86997e-09 -1.34845e-09 7.48268e-10
-2.9015e-10 5.03388e-10 -6.18965e-10
-1.80998e-09 6.19292e-10 -8.6509e-10
-1.80508e-09 -2.85404e-10 -1.07437e-09
5.99935e-09 7.46341e-09 -6.6887e-09
-2.43396e-09 1.83201e-09 -1.02961e-10
2.88121e-09 2.0197e-09 9.83805e-10
-1.88265e-09 1.91989e-09 3.22729e-10
5.63723e-10 -2.84471e-09 1.93708e-09
8.02306e-10 2.34755e-10 -3.45801e-10
-1.00242e-09 -5.31325e-09 4.45942e-09
2.54038e-09 -2.63431e-09 3.02539e-10
-1.15455e-08 -5.4405e-09 -1.0747e-09
-1.33436e-09 -3.1909e-09 1.0923e-09
-8.76941e-09 -1.03899e-08 6.38662e-09
2.96894e-09 3.02571e-09 -9.47842e-09
-4.12839e-10 -3.77562e-09 6.82319e-10
-4.77405e-09 -2.89628e-10 -1.26323e-08
-4.75845e-09 5.22384e-09 1.99324e-09
-4.39107e-09 -9.4032e-09 3.31473e-09
3.81638e-09 9.24907e-09 -1.2342e-10
-6.47027e-10 -3.03484e-09 -1.2304e-08
1.14149e-08 -1.40809e-08 3.06365e-09
-5.44117e-10 -1.48535e-09 3.44291e-11
-1.77645e-09 1.73194e-09 8.02592e-10
1.59579e-08 -4.61147e-09 -2.61835e-10
1.42533e-08 -1.3864e-08 2.78001e-09
-1.39908e-09 -3.16811e-09 -2.76604e-08
-2.64371e-09 1.38289e-08 -4.71253e-09
-1.44785e-09 4.47918e-10 4.02519e-10
-2.69816e-09 -3.14021e-09 -1.77734e-09
1.35511e-09 -1.17347e-08 3.24048e-09
-1.63026e-09 7.51301e-10 -1.45982e-09
-4.02971e-09 -2.60702e-09 1.03853e-09
1.33915e-10 -1.32282e-09 -4.48046e-10
-3.84703e-09 1.25204e-09 -1.50377e-10
-4.77421e-09 7.05407e-09 1.70815e-09
-6.65467e-09 4.26909e-09 1.44989e-09
-2.77946e-09 4.7678e-11 6.27396e-09
-4.49722e-09 -1.64302e-08 -8.15608e-13
-2.3184e-09 6.15694e-09 -1.02016e-08
-6.41932e-10 2.96096e-10 3.71098e-09
1.59719e-09 4.74352e-09 -1.13556e-08
1.4544e-09 -7.42149e-10 -2.46639e-11
-7.90656e-09 -1.29985e-09 2.68045e-10
-2.92151e-10 -9.7312e-11 1.21855e-09
2.88584e-09 -2.87859e-09 2.94741e-09
2.80396e-09 -1.01109e-09 4.74237e-10
-9.5595e-10 1.21032e-10 -3.35864e-09
-5.06051e-09 2.93221e-09 -4.25839e-09
1.04348e-10 4.09746e-10 9.02813e-10
-2.02071e-09 2.50477e-09 1.45298e-09
-7.47825e-09 -9.33399e-09 -4.11061e-09
8.52927e-10 -7.54595e-10 -9.71307e-10
-6.07448e-10 -2.91742e-09 3.54979e-09
-2.8035e-09 -8.32074e-09 3.01337e-09
7.02915e-09 2.89634e-09 -2.3429e-09
2.08587e-09 -1.88318e-08 1.45394e-09
-1.5718e-09 1.60745e-09 -7.8045e-09
-1.26176e-09 4.73477e-09 -2.36781e-09
2.81022e-09 -6.96364e-09 6.00863e-11
-2.06731e-10 -7.2424e-09 8.75293e-10
1.18531e-08 -5.223e-09 3.57944e-09
6.13118e-11 -1.54479e-09 -1.18478e-09
-2.99516e-09 8.31774e-09 3.12243e-09
-1.35136e-09 2.16899e-10 2.54023e-09
1.34375e-08 -1.61486e-08 -1.2434e-08
4.63223e-10 -1.65693e-10 -1.68358e-09
-2.74882e-09 -4.48036e-09 6.65143e-09
-1.24784e-08 1.16947e-08 1.62488e-08
3.12084e-12 -2.31947e-09 5.44756e-10
1.27906e-08 -5.78445e-09 4.0268e-09
-8.30148e-09 1.927e-08 1.44097e-08
9.95497e-09 -1.47808e-09 1.37363e-09
5.56354e-09 -6.78601e-09 -2.05059e-08
-2.80272e-09 -1.43965e-09 -1.87154e-09
-3.73441e-09 -1.48602e-09 -4.79116e-10
-1.27682e-09 -5.80141e-09 8.42728e-10
-5.61258e-09 -6.42157e-09 6.0498e-09
2.18187e-09 3.56573e-09 -3.10722e-09
-1.50579e-09 -1.1738e-08 1.58898e-09
-2.37489e-09 -1.08215e-09 -1.26116e-09
-3.56694e-10 1.87329e-08 3.1418e-08
-5.67149e-09 1.08129e-08 -2.76172e-09
-2.82174e-09 -1.89311e-08 -3.4264e-10
9.77918e-09 -2.42868e-09 8.62333e-10
-1.44199e-08 -4.36735e-09 -1.19444e-09
5.93929e-09 -1.07054e-08 1.89054e-09
-1.46502e-09 -5.38631e-09 1.28969e-10
1.75432e-08 -6.35978e-09 -8.00164e-09
-1.68277e-08 -2.56954e-10 -5.92541e-09
6.68946e-11 -3.29161e-11 -3.60623e-11
1.31627e-09 5.74183e-10 2.57265e-09
-2.09099e-10 -3.85206e-09 2.82933e-10
2.14025e-10 1.19688e-08 1.78057e-08
7.54819e-09 -1.71194e-08 1.68749e-09
-1.40984e-08 -6.57038e-09 2.11296e-09
-1.53301e-09 -2.22639e-09 -3.34379e-10
-1.379e-09 -3.63034e-10 3.18258e-11
5.49536e-10 4.52358e-09 4.7679e-09
-1.87435e-09 1.39631e-09 1.11383e-10
-3.12076e-09 -4.72202e-09 3.21563e-09
-3.18923e-09 6.31002e-09 -5.67512e-09
-5.03142e-09 1.23904e-08 -8.99662e-09
8.96163e-10 9.84856e-10 -8.6678e-09
-3.23291e-10 3.55464e-09 -9.74133e-09
-6.69582e-09 4.26571e-09 -8.33853e-09
1.32909e-14 4.32552e-14 1.8296e-14
-3.13995e-08 1.357e-08 8.74076e-09
-7.63337e-09 -5.6074e-09 4.05046e-09
-1.17486e-09 -4.87811e-09 6.78465e-10
-1.16906e-08 5.63929e-09 1.1512e-09
-4.9046e-09 2.72386e-09 -3.41357e-09
-7.05872e-10 -1.01667e-08 2.47254e-09
4.26768e-11 4.11331e-11 1.95296e-11
-2.93112e-09 4.98932e-09 -1.68402e-09
-3.34959e-09 -2.46284e-09 -7.85407e-10
1.14597e-09 -5.36237e-09 2.36786e-09
6.842e-09 1.33815e-08 9.59888e-10
-9.45465e-10 -1.9191e-09 -2.66328e-10
4.821e-09 -3.30559e-09 4.61103e-10
1.53169e-08 3.76018e-10 4.28182e-10
1.03158e-09 -5.46037e-09 5.38704e-09
-4.32399e-09 6.79364e-09 1.02778e-08
-1.61223e-09 -1.56304e-08 2.00029e-09
-1.74259e-08 1.68233e-08 4.20261e-08
8.27525e-10 -4.39093e-09 -2.63707e-09
1.79871e-09 -7.78744e-10 2.71594e-09
-1.36522e-08 -1.64342e-09 -4.42767e-09
2.79348e-10 4.38942e-10 -5.54157e-11
-2.8914e-09 4.81351e-10 -5.88628e-09
-2.0183e-11 -1.71672e-10 -1.64083e-10
6.59613e-09 -1.02586e-08 9.17952e-09
-7.93969e-09 3.79555e-09 -1.43334e-08
4.76478e-10 1.63697e-10 1.69678e-09
7.04602e-09 3.83289e-09 -6.72505e-09
2.06622e-09 -5.7367e-09 6.15564e-09
-1.21078e-08 -5.07547e-10 7.56043e-10
8.08087e-11 6.59852e-09 3.85325e-09
-1.98523e-23 3.30872e-24 0.0
1.34012e-08 1.05547e-08 -7.76368e-09
-9.74278e-10 -9.35305e-10 -6.68259e-09
-6.65171e-09 5.13308e-09 1.3399e-08
-6.34112e-09 -3.02496e-09 3.5621e-09
1.22274e-10 4.08301e-11 3.83901e-11
-2.83605e-11 -1.5028e-10 7.69e-11
1.24077e-23 -3.30872e-24 -6.61744e-24
-2.08566e-11 3.53876e-11 8.54409e-13
4.7494e-09 2.61439e-09 1.38751e-09
4.83875e-11 -2.0101e-10 -1.53132e-11
-7.5422e-11 -2.2378e-10 -5.4314e-12
1.65436e-24 0.0 0.0
-7.67742e-11 -1.65231e-10 7.78944e-13
3.03787e-10 4.38908e-10 -2.58141e-09
-2.04966e-08 -6.41359e-09 4.89354e-09
-7.20981e-11 -6.09493e-11 3.02546e-11
1.21986e-08 7.86478e-09 -7.57024e-09
3.00617e-11 6.24857e-09 -3.30369e-09
9.03624e-11 3.01063e-10 -2.68135e-10
6.20385e-24 0.0 0.0
-5.16032e-10 -3.82555e-09 -1.38227e-09
3.55688e-23 2.11758e-22 -5.36013e-22
-1.11151e-08 -9.72094e-09 -1.20329e-09
2.84087e-09 9.07335e-09 -2.3377e-09
6.79496e-14 -6.58789e-14 -2.1841e-14
-2.45026e-09 3.23487e-10 -5.99149e-11
7.1623e-09 4.01195e-09 2.41349e-09
-1.39647e-08 2.47664e-08 3.52451e-09
3.41212e-23 2.21684e-22 -5.39322e-22
-5.68525e-09 -9.67275e-09 -1.90252e-08
-1.75125e-09 -8.51941e-09 6.7739e-09
1.4866e-10 -3.43967e-10 1.93009e-10
-3.55363e-09 4.02467e-09 -4.67692e-09
1.12379e-09 2.94341e-09 1.25729e-09
3.02276e-08 2.67654e-09 -6.625e-09
-7.32887e-09 2.41878e-10 -9.093e-10
-2.62525e-09 1.13674e-08 2.78748e-08
2.865e-10 2.8378e-10 -2.47781e-11
4.16429e-07 -1.37057e-07 -1.15178e-07
-4.18916e-09 -1.16227e-08 -6.62963e-09
1.71226e-22 1.99764e-22 0.0
4.86671e-09 1.00022e-08 7.52833e-09
-5.89931e-09 4.24436e-09 -5.0733e-11
-1.11256e-22 2.48154e-23 0.0
-3.00938e-10 5.08278e-11 2.39305e-11
6.90118e-09 -5.87282e-09 1.15755e-09
-4.1359e-23 5.45939e-23 -5.9557e-22
1.24077e-24 -8.27181e-24 -6.61744e-24
-1.19721e-08 -1.10343e-08 -1.4158e-08
0.0 0.0 -3.8832e-08
-2.27827e-10 -3.01696e-08 1.40666e-08
7.94392e-09 7.66764e-09 3.33358e-10
5.51664e-08 1.47537e-08 2.59524e-08
0.0 0.0 -3.8832e-08
2.94768e-09 7.4361e-10 -5.61493e-09
2.09524e-09 2.01613e-10 2.29444e-08
1.61152e-09 3.80384e-09 -5.48235e-09
-2.00512e-09 -1.47791e-09 -5.59418e-09
-1.23127e-08 -1.60157e-08 -6.66754e-10
2.97683e-09 6.92547e-09 -7.91359e-09
-7.22451e-09 4.45993e-09 -2.53571e-09
3.72714e-09 -7.6813e-09 4.68621e-09
5.15099e-10 3.05613e-09 1.2613e-09
9.16368e-09 3.38827e-10 -9.51687e-10
1.93709e-09 9.41207e-10 -3.40067e-09
-2.17138e-08 1.70901e-08 -1.01743e-08
2.48154e-23 -1.65436e-24 0.0
-3.55835e-10 9.62677e-12 4.8809e-11
8.70699e-10 1.02711e-09 -3.03314e-09
-2.51461e-09 8.93087e-09 -5.79773e-09
6.31048e-09 -3.35832e-09 -1.23486e-09
2.17971e-08 1.00953e-08 -9.19891e-10
9.8842e-12 -1.42832e-11 1.07325e-12
8.2612e-12 -1.15009e-11 -1.70153e-12
