# vtk DataFile Version 3.0
LIGGGHTS particles timestep 5200000
ASCII
DATASET POLYDATA
POINTS 297 float
0.0430456 0.0160102 0.00830952
0.043483 0.017749 0.0073666
0.0374587 0.0176319 0.00720173
0.0447859 0.018803 0.00712456
0.04311 0.0161846 0.00807413
0.0491028 0.0163175 0.00825596
0.0377438 0.0162527 0.00796547
0.0436664 0.0161361 0.00811209
0.0497321 0.0188643 0.0070052
0.0435216 0.016733 0.00771499
0.0446203 0.0176421 0.00747707
0.0367075 0.0150382 0.00948552
0.0431709 0.0163598 0.0078381
0.0369379 0.0149071 0.00984065
0.0434211 0.0174701 0.00745798
0.0365319 0.0148167 0.0103339
0.0432325 0.0166357 0.00773733
0.0496978 0.0175131 0.00724528
0.0433358 0.016056 0.00823525
0.0447169 0.0169685 0.00769465
0.0434044 0.0162347 0.00800435
0.0437227 0.0163406 0.00789999
0.0435455 0.0180301 0.00728274
0.0493653 0.0172131 0.00750836
0.0438285 0.0165924 0.0077759
0.0494157 0.0174313 0.00730788
0.0440395 0.0190343 0.00700155
0.0495385 0.0180003 0.00716622
0.0497617 0.0178013 0.00719125
0.0437326 0.0175958 0.00743151
0.0441899 0.0172063 0.00758448
0.044261 0.0169302 0.00767785
0.0375063 0.0173189 0.00761079
0.0443088 0.0177906 0.00740947
0.0497941 0.0191535 0.00695516
0.0435889 0.0170104 0.00762263
0.0434608 0.0164544 0.00780807
0.0495714 0.0169923 0.00754413
0.0447263 0.0184953 0.00721691
0.0429162 0.0156601 0.00878178
0.0440245 0.0176954 0.00742009
0.0433607 0.0171914 0.00755108
0.0449613 0.0183224 0.00728698
0.049168 0.0165253 0.00804955
0.0492332 0.0167331 0.00784313
0.0432667 0.0158811 0.00846893
0.0444993 0.016761 0.00774573
0.0376266 0.0170161 0.0075054
0.045003 0.0186101 0.0071997
0.0446303 0.0179284 0.00738805
0.0376835 0.016071 0.00819641
0.0495243 0.0167913 0.00776186
0.0440179 0.016374 0.00785864
0.0371242 0.0153511 0.00909627
0.0384543 0.0180905 0.00704001
0.0494749 0.0177123 0.00722104
0.0449974 0.0194301 0.006951
0.0496189 0.0172144 0.0073482
0.0444531 0.01648 0.00784024
0.0429807 0.0158346 0.00854643
0.0439629 0.017414 0.00750402
0.0444961 0.0186739 0.00714539
0.0492999 0.0169703 0.00767203
0.0436707 0.0173162 0.00752108
0.0376205 0.0158898 0.00842706
0.0442474 0.0175085 0.00749367
0.0438987 0.0171349 0.00759307
0.0439455 0.0168551 0.00769064
0.0496662 0.0185765 0.00705823
0.0364703 0.0147816 0.0106254
0.0444259 0.0183883 0.00723012
0.0444791 0.0171377 0.00762554
0.0496024 0.0182884 0.00711223
0.0432929 0.0169141 0.00764342
0.044731 0.0192931 0.00696727
0.0439747 0.0186558 0.00738223
0.0440935 0.0193281 0.00696278
0.0371609 0.0163511 0.00792056
0.0441342 0.016637 0.00777321
0.0374446 0.0162564 0.00794413
0.037567 0.0167539 0.00763836
0.0499023 0.0173117 0.00733273
0.0374004 0.0173694 0.00733469
0.0449799 0.0191389 0.00703244
0.044909 0.0171918 0.0076377
0.0439441 0.0187251 0.00709198
0.044056 0.0171567 0.00784831
0.0376838 0.0172788 0.00737233
0.0446711 0.017361 0.00756859
0.0436706 0.0185935 0.0071147
0.0442584 0.0188432 0.00707625
0.0436079 0.0183113 0.00719887
0.0494618 0.0165951 0.00797995
0.0375559 0.0157088 0.00865737
0.0439196 0.0184394 0.00717985
0.0373835 0.0160751 0.00817513
0.0438944 0.0159846 0.00829693
0.0426098 0.0149868 0.0100507
0.0363371 0.0147327 0.0112083
0.037284 0.0168491 0.0076096
0.0380429 0.0162744 0.00797165
0.0365931 0.0148593 0.0100434
0.0385711 0.0171913 0.00739182
0.0369018 0.0155777 0.008792
0.0424786 0.0147729 0.0105718
0.0389484 0.0175931 0.00723111
0.0438576 0.0181581 0.00726377
0.0443514 0.0191796 0.0070001
0.0396887 0.0184795 0.00697594
0.0392479 0.0175863 0.00724584
0.0370963 0.0161205 0.0081011
0.0377422 0.0175417 0.00724026
0.0447953 0.0166937 0.00778604
0.0426621 0.0150193 0.00975711
0.0379261 0.0169978 0.00750635
0.0442818 0.0162513 0.00793156
0.0439708 0.01618 0.00808255
0.0427873 0.0153116 0.00925278
0.0444755 0.0194504 0.00696463
0.0366485 0.0149202 0.00975493
0.04473 0.0196076 0.00698788
0.0435994 0.0159601 0.00834561
0.038166 0.0167492 0.00764608
0.0424137 0.0147853 0.0108645
0.0441923 0.0185627 0.00715965
0.0369685 0.0157583 0.00856198
0.0443949 0.0181007 0.00731813
0.0373213 0.0158938 0.00840594
0.0441532 0.0182649 0.00725032
0.0437223 0.0157924 0.00856179
0.0440854 0.0179768 0.007336
0.0423695 0.0149544 0.0111085
0.036773 0.0152172 0.0092539
0.0437436 0.0188257 0.00729113
0.044608 0.0190298 0.00704146
0.0381005 0.0164799 0.00776085
0.0446767 0.0182121 0.0073023
0.037189 0.0155321 0.00886597
0.0378664 0.0167356 0.00763926
0.0379832 0.0160852 0.00819668
0.0384541 0.0166664 0.00765776
0.0425435 0.0148055 0.0102805
0.0368371 0.0153977 0.00902302
0.0388282 0.0170513 0.00745765
0.0394646 0.0177899 0.0071849
0.0374234 0.0153472 0.00911738
0.0437951 0.0178769 0.00734764
0.0370342 0.0159399 0.00833241
0.0427228 0.0151368 0.00948787
0.0387111 0.0165253 0.00772136
0.0309896 0.015824 0.00848449
0.0375082 0.0165213 0.00781839
0.0384029 0.0178096 0.00713429
0.0372237 0.0165971 0.00776069
0.0377879 0.0155411 0.00888638
0.0378005 0.0178059 0.00711068
0.0395941 0.0182041 0.00704812
0.0372567 0.0157128 0.00863625
0.0437781 0.0170438 0.00785302
0.0437468 0.0189366 0.00701237
0.0388859 0.0173177 0.00733237
0.0440174 0.0158168 0.00851309
0.0369947 0.0149909 0.00955826
0.0391856 0.0173079 0.00733878
0.0434065 0.0171137 0.0078372
0.0378642 0.018099 0.00710347
0.0436175 0.0166404 0.00798375
0.0382257 0.0170057 0.00749417
0.0378556 0.0157218 0.00865667
0.0375806 0.0181874 0.00706159
0.0395516 0.0175195 0.00728129
0.0394767 0.0172438 0.0073728
0.039423 0.0186165 0.00700078
0.0386915 0.0177361 0.00717142
0.0321138 0.0181898 0.00703506
0.0442369 0.0160692 0.00816568
0.0397167 0.0179467 0.00714151
0.0435 0.0156772 0.00872703
0.0385147 0.0169285 0.00752492
0.0378008 0.0164745 0.00777173
0.0432746 0.0168585 0.00793763
0.0447646 0.0164096 0.00787725
0.0370602 0.0151703 0.00932695
0.0438113 0.0192266 0.00697144
0.0383322 0.0162244 0.00803324
0.0432934 0.0165727 0.00802708
0.0382094 0.0158616 0.00849502
0.0362069 0.0146977 0.0117929
0.036272 0.0147129 0.0115005
0.0422952 0.0149186 0.011397
0.031766 0.0178162 0.00715621
0.0381031 0.0177971 0.00713407
0.0382829 0.0172684 0.00736108
0.0390512 0.018471 0.00700347
0.0380416 0.0175249 0.00724423
0.0432023 0.0157066 0.00870429
0.0386477 0.0163321 0.00794184
0.0309245 0.015613 0.00868758
0.0379832 0.0172605 0.00737328
0.0379203 0.0159028 0.00842635
0.0391289 0.0170391 0.00745921
0.0373432 0.0171075 0.00746927
0.0430734 0.0153577 0.009175
0.0393421 0.0180473 0.00709154
0.0376412 0.0184606 0.00716955
0.0439158 0.0156495 0.00874104
0.0387542 0.0180164 0.00708484
0.0383896 0.0164159 0.00780963
0.0381548 0.0180748 0.00703304
0.0430086 0.0152091 0.0094274
0.0437723 0.0183912 0.00743675
0.0383411 0.017531 0.00722806
0.0313713 0.0161365 0.00819991
0.0431392 0.0164315 0.00824216
0.0310547 0.016035 0.00828141
0.0387721 0.0167873 0.00758855
0.0431383 0.0155324 0.00893992
0.0390718 0.0167738 0.00758711
0.0364019 0.014755 0.0109163
0.0374882 0.0155282 0.00888708
0.038629 0.0174628 0.00727797
0.037517 0.0178944 0.00706871
0.0320532 0.0179036 0.0071206
0.0381447 0.0156806 0.00872534
0.043436 0.0155027 0.00896248
0.0388055 0.0182989 0.00699801
0.0388779 0.0188612 0.00704827
0.0316431 0.0172597 0.00734281
0.0307941 0.015221 0.00912267
0.0316056 0.0182965 0.00704988
0.0313005 0.0168971 0.00748511
0.031418 0.0174465 0.00727628
0.0311198 0.0162459 0.00807831
0.0311848 0.0164528 0.00787107
0.0318296 0.0180989 0.00707768
0.0314979 0.0165311 0.00776612
0.0428518 0.0154857 0.00901711
0.0384659 0.0157732 0.00862294
0.0308593 0.0154154 0.00890367
0.038077 0.0154999 0.00895505
0.0389474 0.0163203 0.00794201
0.0253492 0.0171193 0.00736612
0.0315478 0.0167461 0.0075629
0.0380159 0.0189399 0.00716562
0.0318954 0.0183901 0.00698874
0.0387476 0.0185917 0.00702843
0.0391561 0.0187512 0.00702545
0.0317043 0.017535 0.00724035
0.0445741 0.0161992 0.00797439
0.0388158 0.0191809 0.00708144
0.0380997 0.0186411 0.00706193
0.0322762 0.0177095 0.00717129
0.0384607 0.0186769 0.00704928
0.038529 0.0159544 0.0083923
0.0377087 0.0182171 0.00733123
0.0368804 0.0148339 0.0101258
0.0323364 0.0179941 0.00708109
0.0383034 0.0189304 0.00708039
0.0376591 0.015179 0.00934714
0.0379281 0.0183921 0.00711454
0.0314361 0.0163323 0.00798203
0.0377068 0.0186464 0.00739579
0.0390113 0.0178713 0.00713825
0.0322127 0.01744 0.00728721
0.0377445 0.0189255 0.00729255
0.03942 0.0169693 0.00747969
0.0319898 0.0176218 0.00720183
0.0313589 0.0171673 0.00736863
0.0377231 0.0153601 0.00911669
0.031928 0.0173493 0.00731426
0.0316704 0.0185871 0.00701338
0.039073 0.0181709 0.00704319
0.0317338 0.0188734 0.00707646
0.0385202 0.0183832 0.00703639
0.0380122 0.0153189 0.00918535
0.0378069 0.0186985 0.00709235
0.0318474 0.0167568 0.00757182
0.0377175 0.0167704 0.00789735
0.0393185 0.0183355 0.00699167
0.0372924 0.0150056 0.00959226
0.0390108 0.0165118 0.00771993
0.0386003 0.0189725 0.00707119
0.0372346 0.0148639 0.00985028
0.0378064 0.0192025 0.0071954
0.0385887 0.0161367 0.00816173
0.0314784 0.0177285 0.00719355
0.0383095 0.019229 0.00710851
0.0427724 0.0154464 0.00952037
0.0382215 0.0183662 0.00705824
0.0315414 0.0180099 0.00711086
0.0324981 0.0175286 0.0072611
0.0427025 0.0153166 0.00978164
0.0382724 0.0160428 0.00826439
0.0373594 0.0151661 0.00934782
0.0393814 0.0189491 0.00703425
0.0312484 0.01667 0.00767416
0.0316922 0.016989 0.00746237

VERTICES 297 594
1 0
1 1
1 2
1 3
1 4
1 5
1 6
1 7
1 8
1 9
1 10
1 11
1 12
1 13
1 14
1 15
1 16
1 17
1 18
1 19
1 20
1 21
1 22
1 23
1 24
1 25
1 26
1 27
1 28
1 29
1 30
1 31
1 32
1 33
1 34
1 35
1 36
1 37
1 38
1 39
1 40
1 41
1 42
1 43
1 44
1 45
1 46
1 47
1 48
1 49
1 50
1 51
1 52
1 53
1 54
1 55
1 56
1 57
1 58
1 59
1 60
1 61
1 62
1 63
1 64
1 65
1 66
1 67
1 68
1 69
1 70
1 71
1 72
1 73
1 74
1 75
1 76
1 77
1 78
1 79
1 80
1 81
1 82
1 83
1 84
1 85
1 86
1 87
1 88
1 89
1 90
1 91
1 92
1 93
1 94
1 95
1 96
1 97
1 98
1 99
1 100
1 101
1 102
1 103
1 104
1 105
1 106
1 107
1 108
1 109
1 110
1 111
1 112
1 113
1 114
1 115
1 116
1 117
1 118
1 119
1 120
1 121
1 122
1 123
1 124
1 125
1 126
1 127
1 128
1 129
1 130
1 131
1 132
1 133
1 134
1 135
1 136
1 137
1 138
1 139
1 140
1 141
1 142
1 143
1 144
1 145
1 146
1 147
1 148
1 149
1 150
1 151
1 152
1 153
1 154
1 155
1 156
1 157
1 158
1 159
1 160
1 161
1 162
1 163
1 164
1 165
1 166
1 167
1 168
1 169
1 170
1 171
1 172
1 173
1 174
1 175
1 176
1 177
1 178
1 179
1 180
1 181
1 182
1 183
1 184
1 185
1 186
1 187
1 188
1 189
1 190
1 191
1 192
1 193
1 194
1 195
1 196
1 197
1 198
1 199
1 200
1 201
1 202
1 203
1 204
1 205
1 206
1 207
1 208
1 209
1 210
1 211
1 212
1 213
1 214
1 215
1 216
1 217
1 218
1 219
1 220
1 221
1 222
1 223
1 224
1 225
1 226
1 227
1 228
1 229
1 230
1 231
1 232
1 233
1 234
1 235
1 236
1 237
1 238
1 239
1 240
1 241
1 242
1 243
1 244
1 245
1 246
1 247
1 248
1 249
1 250
1 251
1 252
1 253
1 254
1 255
1 256
1 257
1 258
1 259
1 260
1 261
1 262
1 263
1 264
1 265
1 266
1 267
1 268
1 269
1 270
1 271
1 272
1 273
1 274
1 275
1 276
1 277
1 278
1 279
1 280
1 281
1 282
1 283
1 284
1 285
1 286
1 287
1 288
1 289
1 290
1 291
1 292
1 293
1 294
1 295
1 296

POINT_DATA 297
SCALARS id int 1
LOOKUP_TABLE default
1
2
3
4
5
6
7
8
9
10
11
12
13
14
15
16
17
18
19
20
21
22
23
24
25
26
27
28
29
30
31
32
33
34
35
36
37
38
39
40
41
42
43
44
45
46
47
48
49
50
51
52
53
54
55
56
57
58
59
60
61
62
63
64
65
66
67
68
69
70
71
72
73
74
75
76
77
78
80
81
82
83
84
85
86
87
88
89
90
91
92
93
94
95
96
97
98
99
100
101
102
103
104
105
106
107
108
109
110
111
112
113
114
115
116
117
118
119
120
121
122
123
124
125
126
127
128
129
130
131
132
133
134
135
136
137
138
139
140
141
142
143
144
145
146
147
148
149
150
151
152
153
154
155
156
157
158
159
160
161
162
163
164
165
167
168
169
170
171
172
173
174
175
176
177
178
179
180
181
182
183
185
186
187
188
189
190
191
192
193
194
195
196
197
198
199
200
201
202
203
204
205
206
207
208
209
210
211
212
213
214
215
216
217
218
219
220
221
222
223
224
225
226
227
228
229
230
231
232
233
234
235
236
237
238
239
240
241
242
243
244
245
246
247
248
249
250
251
252
253
254
255
256
257
258
259
260
261
262
263
264
265
266
267
268
269
270
271
272
273
274
275
276
277
278
279
280
281
282
283
284
285
286
287
288
289
290
291
292
293
294
295
296
297
298
299
300

SCALARS type int 1
LOOKUP_TABLE default
1
1
1
1
1
1
1
1
1
1
1
1
1
1
1
1
1
1
1
1
1
1
1
1
1
1
1
1
1
1
1
1
1
1
1
1
1
1
1
1
1
1
1
1
1
1
1
1
1
1
1
1
1
1
1
1
1
1
1
1
1
1
1
1
1
1
1
1
1
1
1
1
1
1
1
1
1
1
1
1
1
1
1
1
1
1
1
1
1
1
1
1
1
1
1
1
1
1
1
1
1
1
1
1
1
1
1
1
1
1
1
1
1
1
1
1
1
1
1
1
1
1
1
1
1
1
1
1
1
1
1
1
1
1
1
1
1
1
1
1
1
1
1
1
1
1
1
1
1
1
1
1
1
1
1
1
1
1
1
1
1
1
1
1
1
1
1
1
1
1
1
1
1
1
1
1
1
1
1
1
1
1
1
1
1
1
1
1
1
1
1
1
1
1
1
1
1
1
1
1
1
1
1
1
1
1
1
1
1
1
1
1
1
1
1
1
1
1
1
1
1
1
1
1
1
1
1
1
1
1
1
1
1
1
1
1
1
1
1
1
1
1
1
1
1
1
1
1
1
1
1
1
1
1
1
1
1
1
1
1
1
1
1
1
1
1
1
1
1
1
1
1
1
1
1
1
1
1
1
1
1
1
1
1
1
1
1
1
1
1
1
1
1
1
1
1
1

SCALARS radius float 1
LOOKUP_TABLE default
0.00015
0.00015
0.00015
0.00015
0.00015
0.00015
0.00015
0.00015
0.00015
0.00015
0.00015
0.00015
0.00015
0.00015
0.00015
0.00015
0.00015
0.00015
0.00015
0.00015
0.00015
0.00015
0.00015
0.00015
0.00015
0.00015
0.00015
0.00015
0.00015
0.00015
0.00015
0.00015
0.00015
0.00015
0.00015
0.00015
0.00015
0.00015
0.00015
0.00015
0.00015
0.00015
0.00015
0.00015
0.00015
0.00015
0.00015
0.00015
0.00015
0.00015
0.00015
0.00015
0.00015
0.00015
0.00015
0.00015
0.00015
0.00015
0.00015
0.00015
0.00015
0.00015
0.00015
0.00015
0.00015
0.00015
0.00015
0.00015
0.00015
0.00015
0.00015
0.00015
0.00015
0.00015
0.00015
0.00015
0.00015
0.00015
0.00015
0.00015
0.00015
0.00015
0.00015
0.00015
0.00015
0.00015
0.00015
0.00015
0.00015
0.00015
0.00015
0.00015
0.00015
0.00015
0.00015
0.00015
0.00015
0.00015
0.00015
0.00015
0.00015
0.00015
0.00015
0.00015
0.00015
0.00015
0.00015
0.00015
0.00015
0.00015
0.00015
0.00015
0.00015
0.00015
0.00015
0.00015
0.00015
0.00015
0.00015
0.00015
0.00015
0.00015
0.00015
0.00015
0.00015
0.00015
0.00015
0.00015
0.00015
0.00015
0.00015
0.00015
0.00015
0.00015
0.00015
0.00015
0.00015
0.00015
0.00015
0.00015
0.00015
0.00015
0.00015
0.00015
0.00015
0.00015
0.00015
0.00015
0.00015
0.00015
0.00015
0.00015
0.00015
0.00015
0.00015
0.00015
0.00015
0.00015
0.00015
0.00015
0.00015
0.00015
0.00015
0.00015
0.00015
0.00015
0.00015
0.00015
0.00015
0.00015
0.00015
0.00015
0.00015
0.00015
0.00015
0.00015
0.00015
0.00015
0.00015
0.00015
0.00015
0.00015
0.00015
0.00015
0.00015
0.00015
0.00015
0.00015
0.00015
0.00015
0.00015
0.00015
0.00015
0.00015
0.00015
0.00015
0.00015
0.00015
0.00015
0.00015
0.00015
0.00015
0.00015
0.00015
0.00015
0.00015
0.00015
0.00015
0.00015
0.00015
0.00015
0.00015
0.00015
0.00015
0.00015
0.00015
0.00015
0.00015
0.00015
0.00015
0.00015
0.00015
0.00015
0.00015
0.00015
0.00015
0.00015
0.00015
0.00015
0.00015
0.00015
0.00015
0.00015
0.00015
0.00015
0.00015
0.00015
0.00015
0.00015
0.00015
0.00015
0.00015
0.00015
0.00015
0.00015
0.00015
0.00015
0.00015
0.00015
0.00015
0.00015
0.00015
0.00015
0.00015
0.00015
0.00015
0.00015
0.00015
0.00015
0.00015
0.00015
0.00015
0.00015
0.00015
0.00015
0.00015
0.00015
0.00015
0.00015
0.00015
0.00015
0.00015
0.00015
0.00015
0.00015
0.00015
0.00015
0.00015
0.00015
0.00015
0.00015
0.00015
0.00015
0.00015
0.00015
0.00015
0.00015
0.00015
0.00015
0.00015
0.00015
0.00015
0.00015
0.00015
0.00015
0.00015
0.00015

SCALARS mass float 1
LOOKUP_TABLE default
3.95841e-09
3.95841e-09
3.95841e-09
3.95841e-09
3.95841e-09
3.95841e-09
3.95841e-09
3.95841e-09
3.95841e-09
3.95841e-09
3.95841e-09
3.95841e-09
3.95841e-09
3.95841e-09
3.95841e-09
3.95841e-09
3.95841e-09
3.95841e-09
3.95841e-09
3.95841e-09
3.95841e-09
3.95841e-09
3.95841e-09
3.95841e-09
3.95841e-09
3.95841e-09
3.95841e-09
3.95841e-09
3.95841e-09
3.95841e-09
3.95841e-09
3.95841e-09
3.95841e-09
3.95841e-09
3.95841e-09
3.95841e-09
3.95841e-09
3.95841e-09
3.95841e-09
3.95841e-09
3.95841e-09
3.95841e-09
3.95841e-09
3.95841e-09
3.95841e-09
3.95841e-09
3.95841e-09
3.95841e-09
3.95841e-09
3.95841e-09
3.95841e-09
3.95841e-09
3.95841e-09
3.95841e-09
3.95841e-09
3.95841e-09
3.95841e-09
3.95841e-09
3.95841e-09
3.95841e-09
3.95841e-09
3.95841e-09
3.95841e-09
3.95841e-09
3.95841e-09
3.95841e-09
3.95841e-09
3.95841e-09
3.95841e-09
3.95841e-09
3.95841e-09
3.95841e-09
3.95841e-09
3.95841e-09
3.95841e-09
3.95841e-09
3.95841e-09
3.95841e-09
3.95841e-09
3.95841e-09
3.95841e-09
3.95841e-09
3.95841e-09
3.95841e-09
3.95841e-09
3.95841e-09
3.95841e-09
3.95841e-09
3.95841e-09
3.95841e-09
3.95841e-09
3.95841e-09
3.95841e-09
3.95841e-09
3.95841e-09
3.95841e-09
3.95841e-09
3.95841e-09
3.95841e-09
3.95841e-09
3.95841e-09
3.95841e-09
3.95841e-09
3.95841e-09
3.95841e-09
3.95841e-09
3.95841e-09
3.95841e-09
3.95841e-09
3.95841e-09
3.95841e-09
3.95841e-09
3.95841e-09
3.95841e-09
3.95841e-09
3.95841e-09
3.95841e-09
3.95841e-09
3.95841e-09
3.95841e-09
3.95841e-09
3.95841e-09
3.95841e-09
3.95841e-09
3.95841e-09
3.95841e-09
3.95841e-09
3.95841e-09
3.95841e-09
3.95841e-09
3.95841e-09
3.95841e-09
3.95841e-09
3.95841e-09
3.95841e-09
3.95841e-09
3.95841e-09
3.95841e-09
3.95841e-09
3.95841e-09
3.95841e-09
3.95841e-09
3.95841e-09
3.95841e-09
3.95841e-09
3.95841e-09
3.95841e-09
3.95841e-09
3.95841e-09
3.95841e-09
3.95841e-09
3.95841e-09
3.95841e-09
3.95841e-09
3.95841e-09
3.95841e-09
3.95841e-09
3.95841e-09
3.95841e-09
3.95841e-09
3.95841e-09
3.95841e-09
3.95841e-09
3.95841e-09
3.95841e-09
3.95841e-09
3.95841e-09
3.95841e-09
3.95841e-09
3.95841e-09
3.95841e-09
3.95841e-09
3.95841e-09
3.95841e-09
3.95841e-09
3.95841e-09
3.95841e-09
3.95841e-09
3.95841e-09
3.95841e-09
3.95841e-09
3.95841e-09
3.95841e-09
3.95841e-09
3.95841e-09
3.95841e-09
3.95841e-09
3.95841e-09
3.95841e-09
3.95841e-09
3.95841e-09
3.95841e-09
3.95841e-09
3.95841e-09
3.95841e-09
3.95841e-09
3.95841e-09
3.95841e-09
3.95841e-09
3.95841e-09
3.95841e-09
3.95841e-09
3.95841e-09
3.95841e-09
3.95841e-09
3.95841e-09
3.95841e-09
3.95841e-09
3.95841e-09
3.95841e-09
3.95841e-09
3.95841e-09
3.95841e-09
3.95841e-09
3.95841e-09
3.95841e-09
3.95841e-09
3.95841e-09
3.95841e-09
3.95841e-09
3.95841e-09
3.95841e-09
3.95841e-09
3.95841e-09
3.95841e-09
3.95841e-09
3.95841e-09
3.95841e-09
3.95841e-09
3.95841e-09
3.95841e-09
3.95841e-09
3.95841e-09
3.95841e-09
3.95841e-09
3.95841e-09
3.95841e-09
3.95841e-09
3.95841e-09
3.95841e-09
3.95841e-09
3.95841e-09
3.95841e-09
3.95841e-09
3.95841e-09
3.95841e-09
3.95841e-09
3.95841e-09
3.95841e-09
3.95841e-09
3.95841e-09
3.95841e-09
3.95841e-09
3.95841e-09
3.95841e-09
3.95841e-09
3.95841e-09
3.95841e-09
3.95841e-09
3.95841e-09
3.95841e-09
3.95841e-09
3.95841e-09
3.95841e-09
3.95841e-09
3.95841e-09
3.95841e-09
3.95841e-09
3.95841e-09
3.95841e-09
3.95841e-09
3.95841e-09
3.95841e-09
3.95841e-09
3.95841e-09
3.95841e-09
3.95841e-09
3.95841e-09
3.95841e-09
3.95841e-09
3.95841e-09
3.95841e-09
3.95841e-09
3.95841e-09
3.95841e-09
3.95841e-09
3.95841e-09
3.95841e-09
3.95841e-09
3.95841e-09
3.95841e-09
3.95841e-09
3.95841e-09
3.95841e-09
3.95841e-09
3.95841e-09
3.95841e-09

VECTORS velocity float
0.00599854 -0.000159861 -0.000105836
0.00586364 0.00131175 -1.89429e-05
0.00535248 0.000160477 -0.000237497
0.0062838 -0.000428728 0.000558494
0.00606307 -6.53772e-05 -0.000253384
0.00553824 -0.000402114 0.00103625
0.00610003 0.000847942 -0.000592418
0.00522334 -0.000159968 -2.98663e-05
0.00580377 -0.00115188 -5.42657e-05
0.00580805 0.000624313 8.53205e-05
0.00592076 -0.000212599 0.000467592
0.00586981 0.000212835 -8.38366e-05
0.00580592 0.000271305 -0.00068269
0.00577459 0.000140784 -0.000186613
0.00578434 0.00105661 -4.70979e-05
0.00586317 0.000182268 -0.000210848
0.00576666 0.000675032 -1.57943e-05
0.0052821 -0.00120209 -3.10789e-05
0.00624351 -0.000159015 0.000773976
0.00527838 -0.00026282 0.000432326
0.00538222 0.000304046 0.000480903
0.00547796 -7.96735e-05 0.000118756
0.00603947 0.00156584 -0.000100082
0.00406702 -0.000683237 -0.00110068
0.00548415 5.12767e-05 0.000210777
0.00527193 -0.000764392 0.000295723
0.00606087 -0.000428539 0.000554397
0.00559498 -0.00109119 -7.22127e-05
0.00551393 -0.00117082 -4.66338e-05
0.00472034 -0.000121137 0.000359335
0.00547083 0.000550709 0.000192472
0.0048811 0.000301398 8.78808e-05
0.00546466 0.000152013 -0.000227829
0.00573111 -0.000258087 0.000467605
0.00590918 -0.00116038 4.8943e-06
0.00572433 0.000844622 -0.000213871
0.00558522 0.000423503 0.00015502
0.0050513 -0.000861316 0.000413268
0.00632829 -0.000215114 0.000495614
0.00567875 -0.000256295 -0.000358998
0.00580004 0.000363071 0.000279407
0.00550019 0.000869605 -9.49085e-05
0.00635118 -0.000199244 0.000491951
0.00568024 -9.48294e-05 0.000776243
0.00559004 0.000395702 0.000262324
0.00660435 -0.000533996 0.000867714
0.00505404 0.000397349 8.77348e-05
0.00548311 0.000289312 -0.000291447
0.00638299 -0.000334405 0.000536692
0.00612006 -0.000209465 0.000478901
0.00632882 0.000765457 -0.000620325
0.00500935 -0.00105031 0.00031758
0.00555917 0.000197427 0.000195233
0.00588995 0.00026936 -4.5354e-05
0.00616448 0.00129221 -0.000180722
0.00543503 -0.00100916 -8.06616e-05
0.0022613 0.00103913 0.000142336
0.00512412 -0.000714015 0.000611138
0.00528752 0.000275016 0.000133197
0.00599525 0.000123199 -0.000127814
0.0055591 0.00029461 0.000293442
0.00624485 -0.000276513 0.000510877
0.0067235 -0.00245351 -0.00242476
0.00563181 0.000496517 -1.33687e-05
0.0061296 0.000758616 -0.000657516
0.00571562 0.000153771 0.000335824
0.00549799 0.000159909 0.000145351
0.00555013 0.000123713 0.000189534
0.00577222 -0.00113618 -6.73819e-05
0.00574552 0.000108217 -0.000252265
0.00597809 -0.000334772 0.000507883
0.00535084 -0.000134028 0.00042139
0.00568043 -0.00111501 -6.31694e-05
0.00593361 0.000830377 -7.17514e-05
0.00219399 0.00112269 -0.00015493
0.00585948 -0.000506846 0.000475825
0.00614722 -0.000435088 0.000650687
0.00602973 0.000168456 0.000112967
0.00542105 0.000113144 0.000208568
0.00606179 0.000303455 -5.53966e-05
0.00555303 0.000331556 -0.000264904
0.0051999 -0.000938402 0.000783163
0.0054837 0.000128695 -0.000220861
0.00181079 0.000616522 -6.60466e-05
0.00554853 -0.000470505 0.000527929
0.00599938 -0.000368596 0.000521775
0.00554504 0.000659954 0.00030576
0.00548317 0.000240521 -0.00026801
0.00565337 -0.000286478 0.000471939
0.00592441 -0.00031161 0.000519425
0.00611055 -0.000403513 0.00054446
0.00614956 0.00168014 -0.000131654
0.00512159 -0.00108236 0.000387819
0.0057365 0.000797711 -0.000720303
0.00593196 -0.00042746 0.000539003
0.00622968 0.000276987 -2.12282e-05
0.00579721 -0.000106223 -0.000160669
0.00629716 0.00177704 0.00128122
0.00597628 0.000359054 -0.000170408
0.00551642 0.000215249 -5.02707e-05
0.00610764 0.00127078 -0.000815972
0.00580094 0.000220638 -0.000187858
0.00551951 0.00158185 -0.000906234
0.00591293 0.000127226 0.000130127
0.00542227 0.00053464 0.00148307
0.00579796 0.00170357 -0.000350302
0.00543622 -0.000436485 0.000514267
0.00612879 -0.000527786 0.000603106
0.00539053 0.00222832 -4.17788e-05
0.00584264 0.0017903 -0.000370723
0.00610446 0.000143356 0.000149963
0.00542459 0.000238666 -0.000286416
0.0054511 -0.00023285 0.000439875
0.00564878 0.00118518 0.000586229
0.00558948 0.000761625 -0.000538131
0.00562616 -0.000125985 0.000150354
0.00571529 5.29354e-05 4.0875e-05
0.0053765 -0.00101542 -0.000247064
0.00223758 0.00120851 0.000172198
0.00589775 0.000202012 -0.000125252
0.00220093 0.00124676 0.000178923
0.00589614 -0.000243181 8.25303e-06
0.00554265 0.00143021 -0.000854246
0.00547811 0.000646412 0.0027562
0.0059586 -0.000369383 0.000515471
0.00588449 0.000116488 0.000153119
0.00614311 -0.000179445 0.000472307
0.00604916 0.000289799 -5.18758e-05
0.0059996 -0.000368401 0.000517992
0.00668951 6.36201e-05 -0.000481257
0.00629695 0.000407073 0.000301416
0.00597627 0.00170812 0.00344427
0.005923 0.00018496 1.84078e-05
0.00590294 -0.000378074 0.000478415
0.00616547 -0.000498993 0.000574877
0.00586825 0.00139201 -0.000818083
0.00630135 -0.00022078 0.000497897
0.00592575 0.000289068 -7.72207e-05
0.00556451 0.000834893 -0.000571844
0.00630112 0.00112491 -0.000864881
0.00562947 0.00155511 -0.000919388
0.00557203 0.00161947 0.000271706
0.00590325 0.000161264 7.97229e-05
0.00552698 0.00159907 -0.000775359
0.00613442 0.00174814 -0.000353285
0.00597141 0.000741707 -0.000634557
0.00490809 -0.00024337 0.000411034
0.00594232 0.000118433 0.000150813
0.00573869 0.000208565 0.000147099
0.00573192 0.00158922 -0.000921832
0.00589841 -0.000288232 0.000610857
0.00585382 0.00032969 -0.00016389
0.00574668 0.00148726 -0.000282233
0.00576288 0.000224312 6.6503e-05
0.00576312 0.00111667 -0.00113817
0.00574374 0.000356813 0.000126948
0.00591283 0.00198137 -0.000429536
0.00571374 0.000318833 -0.000106009
0.00546641 0.000671323 7.97873e-05
0.00599413 -0.000362077 0.000501383
0.00558734 0.00167935 -0.000505454
0.00712025 0.000154767 -0.000606135
0.00582367 0.000197633 -8.7837e-05
0.00566186 0.00197532 -0.00041104
0.0051728 0.000562345 -0.00029769
0.0061699 0.000314907 -8.78833e-05
0.0054494 0.000955674 6.04809e-05
0.00538889 0.0012378 -0.000768146
0.00578985 0.0011118 -0.0011294
0.0060853 8.91959e-05 -0.000133597
0.00599924 0.00168992 -0.000325718
0.00568732 0.00173133 -0.000361734
0.00534611 0.00216715 -2.75603e-05
0.00574365 0.00164963 -0.000342744
0.00561116 -0.00109578 0.000120223
0.0055792 -0.000246578 3.50912e-05
0.00591921 0.00202894 -0.000458361
0.00687241 0.000128641 -0.000532638
0.00547064 0.00157637 -0.000950117
0.00584471 0.000858451 -0.000577873
0.00582537 0.000529186 -0.000196764
0.00570721 -0.00032912 0.000348137
0.0059612 0.000230919 -4.997e-05
0.0060963 -0.000355902 0.000574727
0.00618036 0.00127832 -0.00100912
0.00550115 0.000568532 -0.000146277
0.00612998 0.00112851 -0.00113397
0.00595781 0.000685314 -0.000158358
0.00599821 0.000519778 -0.000154745
0.00531178 0.0013327 0.00373277
0.00571763 -0.000549771 -0.000133936
0.00576057 0.000795987 -0.00036617
0.00545493 0.00124915 -0.000770193
0.00575258 0.00195999 -6.65839e-05
0.00549106 0.000737531 -0.000591926
0.00679844 -0.000686295 0.000581591
0.0058774 0.0015648 -0.000853114
0.00587854 -0.000305741 0.000657998
0.00550756 0.000751797 -0.000520636
0.00615576 0.00106508 -0.00102024
0.00568592 0.00170956 -0.000913815
0.00544999 0.000155549 -0.00018737
0.00588973 -0.000600947 0.000826939
0.00608894 0.00173904 -0.000390799
0.00588275 1.9146e-05 0.000146577
0.00683817 0.000132154 -0.000550585
0.00601209 0.00161302 -0.000150079
0.00590689 0.00147134 -0.000931185
0.00619623 0.000870207 -5.01484e-05
0.00331271 -7.04957e-06 0.00153194
0.00599561 -7.99513e-05 0.000558214
0.00549046 0.00122135 -0.000752366
0.00591673 -9.52434e-05 0.000416103
0.00584428 7.22646e-05 -0.000358556
0.00589844 -0.000261456 0.00058803
0.0056435 0.00155515 -0.000932599
0.00700659 -0.000788288 0.000256905
0.00569774 0.00165514 -0.000970238
0.0058672 0.000244419 -0.000204432
0.00584322 0.000755927 -0.000673349
0.00558851 0.00163179 -0.000663094
0.0056963 0.000130332 -0.000237125
0.00567828 -0.000666967 -0.000916673
0.00582473 0.00117562 -0.00121614
0.00669193 7.19118e-05 -0.000458445
0.00599359 0.00163981 -0.000107896
0.00506436 0.00167579 -6.5209e-05
0.00538854 -0.00033865 0.000240511
0.00582576 -0.000535701 0.000599338
0.00589978 -0.000615139 -0.000175411
0.00542705 -0.00028537 0.000358975
0.00534663 -0.000483966 -5.99749e-05
0.00583018 -0.000235541 0.000556104
0.00563113 -0.00033423 0.00035698
0.00577792 -0.000687613 -0.000761743
0.00559949 -0.000321244 0.000241493
0.00533103 -0.000694099 -0.000432283
0.00624157 0.00110563 -0.00109701
0.00585539 -0.000391984 0.000659366
0.00589736 0.0012146 -0.00125037
0.00590793 0.0012936 -0.00127092
0.00549962 -0.00010876 4.44121e-05
0.00550018 -0.000265421 0.000336664
0.00506207 -2.13699e-05 0.000159252
0.00596189 -0.000829612 0.000279652
0.00547539 0.00152397 -9.88578e-05
0.00530148 0.00212505 -3.58502e-05
0.00552264 -0.0005148 -0.000238468
0.00567477 -0.000428631 0.000238771
0.0046243 0.00184205 -3.03176e-05
0.00379213 9.02508e-05 -0.000160455
0.00535639 -0.000517999 0.000430785
0.00544546 0.00124369 -0.00012381
0.00629562 0.00111684 -0.00108393
0.00590512 -0.000150884 -6.846e-05
0.00580605 -9.10426e-05 -0.000257535
0.00562031 -0.000351145 -0.000211869
0.0050145 0.000973413 -0.000128144
0.00597808 0.00110296 -0.00109613
0.00588777 0.000507737 -0.000380212
0.00572722 -0.000336307 0.000207666
0.00664812 -0.00147309 0.0011763
0.00613574 0.00167631 -0.000316305
0.00550586 -0.000463991 0.000444034
0.00538695 -0.0014529 0.00070098
0.00566669 0.00153798 -0.000928404
0.00565856 -0.000545455 5.50154e-05
0.00542974 -0.000322823 0.000390935
0.00600601 0.00111293 -0.00111148
0.00541304 -0.00037576 0.00042037
0.00599539 -0.000621896 0.000232613
0.0060586 0.0017477 -0.000232588
0.00592532 -0.000632623 0.000292125
0.00589934 0.00133309 -0.00014446
0.0061115 0.00121536 -0.00124319
0.00396601 0.00111789 -0.000500806
0.00557225 -0.000114259 0.000302465
0.0057041 0.000627412 -0.000404406
0.00588251 0.00196076 -0.00043525
0.00585982 0.000557996 -0.000819979
0.0057349 0.00163196 -0.000983062
0.00495798 0.00150417 -7.68832e-05
0.00572358 2.52313e-05 -0.0011232
0.00538453 -0.00214795 -0.00142901
0.00613047 0.00134476 -0.000966546
0.00578615 -0.000548085 -6.51481e-05
0.000626113 0.00103934 7.06442e-05
0.0067337 0.0028124 -0.0018727
0.00594389 0.000942336 -0.000224634
0.00577882 -0.000590336 -0.000210825
0.00542837 -0.00028918 0.000382919
0.00730382 0.00466178 -0.00367245
0.00633264 0.00113003 -0.00108411
0.00598734 0.000777626 -0.000642681
0.00502445 0.00245 9.93469e-06
0.00552719 -0.000315098 0.000333966
0.00541636 -0.000244875 0.000345042

VECTORS force float
4.25907e-09 1.16737e-08 -1.35044e-08
1.39566e-08 4.56579e-08 -1.21142e-08
-6.17308e-09 4.83415e-09 -1.91703e-11
5.1406e-09 2.48864e-09 -1.18579e-09
4.09339e-09 1.24273e-08 -1.41338e-08
1.92319e-09 1.08392e-08 -1.01095e-08
-5.55426e-09 -1.02706e-08 3.70166e-09
-2.69563e-08 5.03542e-09 -1.65667e-08
3.34272e-09 2.81483e-09 -6.83702e-10
-4.17224e-08 -1.84993e-08 7.54459e-09
2.14087e-09 -5.34941e-09 2.38203e-09
-7.23831e-10 3.98566e-09 -4.27745e-09
3.70169e-09 1.03938e-08 -1.37883e-08
-3.04326e-09 -2.37503e-09 3.41372e-09
-1.48348e-08 1.61843e-09 2.78324e-09
8.0315e-09 2.61175e-09 3.86067e-09
4.96318e-09 -1.57719e-08 1.0261e-09
-7.63373e-10 -1.94304e-09 -9.26302e-10
1.5157e-08 -2.24118e-09 -4.46949e-08
-6.74889e-09 1.42369e-09 -2.07314e-09
-3.64561e-08 -1.50136e-08 -3.53755e-08
-1.75323e-08 4.41616e-09 -9.12284e-09
-9.00209e-10 4.18405e-08 -9.72355e-09
-3.36529e-08 1.07251e-08 5.95343e-08
-2.92829e-09 3.71667e-09 -1.46311e-09
-5.19131e-09 4.75437e-09 2.62415e-09
-3.34418e-11 1.00053e-09 5.56723e-11
3.84361e-09 3.04468e-09 -2.79133e-09
-2.19952e-09 -1.47547e-09 5.12259e-10
-2.09395e-08 -9.12406e-10 -5.9724e-10
-5.9219e-09 7.74407e-09 -7.77548e-09
-2.07851e-08 1.24785e-08 1.56421e-09
-3.40972e-09 5.75679e-09 -4.71066e-09
-3.92244e-09 9.59766e-09 -3.89258e-09
-3.25073e-09 1.22724e-09 4.04758e-10
-1.10025e-08 -4.09422e-08 6.67973e-09
-1.51317e-08 -1.23903e-08 -3.61515e-09
-1.055e-09 5.29045e-09 -7.37047e-09
-1.01777e-09 -4.61367e-10 2.67493e-10
-4.35299e-08 -5.0702e-08 -7.87531e-08
7.02679e-09 2.92388e-08 -8.70852e-09
1.85648e-08 -2.15788e-08 1.0478e-08
3.11084e-09 1.36732e-09 -2.53769e-10
1.042e-08 4.68854e-09 -5.17189e-09
-2.09498e-08 2.46108e-08 -1.43012e-08
6.01304e-09 5.73254e-08 -5.68915e-08
-2.1366e-08 9.97208e-09 -4.95741e-09
1.39276e-09 1.20642e-10 -1.98822e-09
3.82893e-09 -1.18101e-09 6.94243e-10
-4.30139e-09 -3.22546e-09 2.13986e-10
-8.58321e-09 -3.16651e-09 2.35409e-09
-5.24133e-09 1.93819e-09 -9.15988e-09
-2.9745e-09 6.51877e-11 -5.02275e-09
-7.41788e-09 6.57963e-09 -5.94102e-09
7.51622e-09 -4.94026e-10 2.69786e-10
2.32845e-09 4.66406e-09 5.96173e-09
4.80598e-10 2.65654e-10 -4.56689e-10
-1.05514e-08 1.00833e-09 1.49988e-08
-1.87393e-08 1.0856e-08 -6.84468e-09
-2.34604e-08 6.14092e-08 -6.04959e-08
-1.52566e-08 3.42206e-08 -1.40789e-08
-1.19153e-09 1.46762e-09 -9.81132e-10
-2.30179e-08 -1.57376e-08 -1.4277e-08
-1.18036e-08 -4.75987e-09 4.47484e-09
-8.90806e-09 1.77507e-09 -3.42599e-09
-1.50968e-08 1.83403e-08 -7.61989e-09
-7.13335e-11 2.44931e-08 -1.41906e-08
-3.553e-09 1.63791e-08 -6.23315e-09
-3.42392e-09 2.72778e-09 1.07733e-09
5.55289e-09 2.08552e-09 1.98677e-09
1.3443e-08 4.21041e-10 6.00258e-10
-1.16402e-08 -1.77267e-09 5.31723e-09
-4.78511e-09 4.26445e-10 -4.79306e-10
-2.69364e-08 -7.84303e-09 2.50977e-08
-1.26381e-09 -2.88967e-09 -2.85465e-10
3.74838e-09 4.99349e-09 -2.33901e-09
4.45288e-09 6.50457e-09 2.42146e-09
-1.53108e-09 -6.12437e-09 9.26899e-09
-1.33749e-08 9.90484e-09 -2.2611e-09
7.53868e-10 1.71698e-09 -1.9207e-09
5.51546e-09 -3.88716e-09 -2.12703e-09
2.37899e-10 3.71677e-09 -3.81215e-09
1.35028e-09 3.4911e-09 -1.53052e-09
3.85602e-09 -1.69283e-09 2.60889e-09
-2.00035e-09 -5.26514e-09 1.43111e-09
9.12358e-09 -3.65656e-09 1.97467e-09
-1.04225e-08 1.24156e-08 -6.5162e-09
1.57973e-09 1.71307e-09 -1.88487e-09
-5.06376e-09 -9.00675e-09 2.38761e-09
5.65262e-09 9.83129e-09 -3.23213e-09
-1.6611e-09 7.12029e-10 -1.27624e-09
2.79213e-10 2.05755e-08 -2.78172e-09
-1.96159e-08 7.74068e-09 -1.42412e-11
-6.39091e-09 -1.03706e-09 -2.34433e-09
2.03945e-10 -9.30842e-09 -5.32584e-10
8.12373e-09 -1.54304e-09 4.27906e-09
-9.27049e-09 -1.16682e-08 1.70794e-08
-3.94417e-08 -1.11399e-08 6.84285e-08
-5.19613e-10 1.15556e-09 1.80121e-09
-5.52081e-10 5.58155e-10 -6.53649e-10
-7.58676e-09 1.94206e-09 -1.24723e-08
4.96845e-09 -9.97104e-10 4.04098e-09
5.85437e-09 2.17465e-09 1.55211e-10
-4.30335e-09 3.86556e-09 -8.71009e-11
0.0 0.0 -3.8832e-08
-3.08521e-09 -8.85103e-10 -2.21615e-10
-2.15893e-09 -1.40758e-09 -2.80952e-09
-1.94968e-10 -3.07041e-09 -4.46187e-10
-5.99639e-09 -2.56742e-09 -2.81482e-10
-5.18382e-09 2.64276e-09 -8.38905e-10
-4.83804e-09 -5.47766e-09 1.03068e-08
-1.85106e-09 3.14884e-09 -7.49178e-09
5.47504e-09 5.87804e-09 -3.37011e-10
3.70673e-09 2.30947e-08 4.39486e-08
1.22777e-08 1.59463e-09 -1.09203e-09
-1.12847e-08 6.01395e-09 -2.20888e-08
2.75517e-08 3.24714e-09 -8.14244e-10
-1.85523e-08 9.70671e-08 1.07026e-07
-2.2077e-09 2.84656e-09 2.45254e-09
2.15381e-09 1.04663e-09 -1.69892e-09
1.59224e-09 2.02583e-09 2.10683e-09
1.2873e-08 1.80682e-08 -1.26279e-08
1.37072e-08 3.59202e-09 -4.93462e-09
0.0 0.0 -3.8832e-08
7.6582e-09 1.71278e-09 9.32538e-10
1.95849e-09 1.08873e-09 6.47039e-11
5.91864e-09 3.84798e-09 -9.01589e-10
-1.14523e-08 -2.55981e-09 2.84981e-09
5.1345e-09 -8.7721e-09 2.09344e-09
-1.22307e-08 -1.73604e-09 7.31765e-09
9.95673e-09 1.87839e-08 -4.95936e-09
1.46931e-09 -5.01084e-10 -3.75841e-08
-4.42214e-09 2.76007e-09 -4.76348e-09
5.39908e-09 2.347e-09 -1.35507e-09
-2.83694e-10 -7.58806e-10 -5.65276e-12
1.85803e-08 3.07608e-09 -6.19065e-09
-5.43882e-09 -2.76915e-09 6.84776e-10
8.03416e-09 5.43155e-09 -6.42976e-09
1.68295e-08 1.00193e-09 -1.02714e-10
7.35793e-10 2.43445e-09 -7.23296e-09
1.83985e-09 5.34107e-09 -2.60299e-09
0.0 0.0 -3.8832e-08
-1.0499e-08 1.93887e-10 -7.14735e-10
3.65408e-09 8.23898e-10 4.13673e-10
1.96618e-09 4.18837e-10 5.53361e-10
1.51615e-08 -4.97017e-09 1.07378e-08
-2.21773e-08 -8.1361e-09 2.05089e-09
-9.02127e-09 -2.76032e-09 2.43345e-09
1.28919e-08 -3.29495e-08 -4.74184e-08
-1.60377e-09 1.66745e-09 2.85166e-10
5.05301e-09 2.66951e-11 -1.78881e-09
-8.11342e-09 -1.65685e-09 -9.7844e-10
2.17319e-10 -3.90857e-09 3.72484e-09
-4.30729e-09 -3.36371e-09 -3.77982e-09
2.251e-08 -1.17154e-08 1.38495e-08
-1.69499e-09 2.57477e-09 -1.1429e-09
-5.5349e-09 -2.11855e-09 1.27421e-09
-1.23452e-08 3.51752e-09 -4.6475e-09
-2.85744e-09 3.67748e-09 -1.07683e-08
-9.96286e-11 -2.16415e-09 4.55944e-10
4.72714e-10 -1.61409e-09 -1.70364e-10
-2.31051e-08 -1.27292e-08 2.22167e-08
-2.25702e-09 -3.37097e-09 1.78224e-10
-1.7416e-09 1.10629e-08 7.77819e-10
-1.33931e-08 7.7897e-09 1.67628e-08
2.43334e-09 -7.26661e-09 4.68995e-09
-1.93727e-08 -1.29118e-08 -1.63386e-08
-1.25462e-08 4.50946e-09 -2.19421e-09
-2.55366e-08 -6.38795e-09 9.69983e-09
6.73591e-10 4.50223e-09 2.82302e-09
-9.44944e-09 -1.16538e-09 -9.95744e-10
-6.43869e-09 -4.92041e-10 -2.23841e-09
-4.22253e-09 -1.94342e-09 -7.8229e-10
3.27881e-11 1.27609e-09 -9.63976e-10
-3.38293e-09 8.39902e-08 -1.00389e-08
9.14616e-10 2.94869e-09 -6.68888e-09
2.54211e-09 4.77056e-09 -3.02986e-09
-7.89758e-09 -3.11541e-08 4.16243e-08
3.25743e-09 3.38942e-09 -5.55693e-09
1.40013e-08 -8.13827e-09 3.31465e-09
2.27915e-09 -3.41093e-09 3.79583e-08
1.26983e-08 1.51101e-09 8.51683e-10
-1.13702e-09 -8.65221e-10 -2.30762e-09
3.12784e-09 3.99305e-09 1.42551e-09
-6.99348e-09 -2.84356e-11 4.26177e-09
-9.18497e-09 7.15773e-09 -3.83075e-09
-1.68232e-08 -2.25945e-09 4.90623e-09
-7.24442e-10 -9.95296e-10 5.41058e-09
1.31854e-09 6.27775e-10 3.80434e-09
0.0 0.0 -3.8832e-08
-9.04424e-09 -3.54775e-09 1.1123e-08
9.48924e-09 -8.69139e-09 1.83329e-10
4.6727e-09 -5.62728e-09 1.19299e-09
-1.92106e-11 5.67933e-09 1.60499e-09
-2.23158e-09 -2.72033e-09 -7.86909e-09
4.29872e-08 9.11427e-08 -1.32122e-07
8.91324e-09 -2.29794e-09 -1.73651e-09
-3.91799e-11 1.94795e-09 1.15834e-09
6.5446e-09 -7.65206e-10 -4.9748e-10
-1.5355e-08 -6.57666e-11 -1.57151e-09
1.49518e-09 2.25097e-09 -9.05475e-09
-3.32123e-10 3.49337e-09 4.66266e-10
-6.98624e-08 -4.95626e-08 1.4467e-07
-2.58824e-09 -1.96544e-09 -8.60997e-10
3.00294e-09 3.36707e-09 -3.29726e-09
-2.07725e-09 6.56464e-10 -3.88265e-09
4.49169e-09 7.29187e-10 3.62309e-09
-8.93417e-09 6.0174e-09 4.23316e-09
5.90245e-09 -4.58116e-09 2.08639e-09
-7.20936e-09 -2.80185e-08 6.75057e-08
7.5866e-09 1.89266e-08 7.48068e-09
4.03575e-09 3.11574e-09 -4.21706e-09
-5.50386e-09 2.50982e-09 -3.83511e-09
-2.04966e-08 6.23839e-09 -3.54812e-10
-3.58229e-10 1.1179e-09 -1.45968e-09
8.58701e-10 3.21709e-09 -1.85478e-09
-5.54509e-08 2.92803e-08 -1.94836e-08
2.89813e-09 -2.33881e-09 -1.15607e-09
-8.49611e-10 9.1551e-10 9.90498e-10
1.81778e-08 -8.45289e-09 1.01476e-08
4.73445e-09 1.87872e-09 1.63801e-09
2.28127e-09 6.08482e-09 -5.14842e-09
-7.98774e-10 -1.95751e-08 2.28622e-08
-9.83571e-09 5.58364e-10 -1.82803e-09
-2.86282e-08 -9.83626e-10 4.12659e-09
8.26215e-10 1.15733e-09 9.25579e-10
-3.11776e-09 -6.01365e-11 -1.07359e-10
1.51812e-10 2.74687e-09 6.33877e-09
-2.5856e-10 -1.1246e-09 5.80705e-09
-2.8795e-09 -1.28161e-09 1.08599e-08
-8.10479e-10 1.85818e-09 2.17241e-09
-1.82932e-09 2.08603e-09 -2.87559e-09
1.60886e-09 -2.09693e-10 -3.877e-09
1.51795e-09 -8.27322e-09 -9.29327e-09
-4.74428e-10 -5.4128e-09 2.59329e-08
4.00385e-09 1.05761e-08 2.04617e-09
-1.13681e-07 1.54566e-07 1.8402e-07
-1.5535e-08 -8.05602e-09 8.95451e-09
3.56332e-10 2.08112e-09 4.29135e-09
1.43114e-08 -5.57831e-09 6.09016e-09
-8.73646e-10 -1.9685e-09 9.17385e-09
1.00361e-11 -3.33615e-13 -8.47149e-16
-1.22345e-09 2.14987e-09 -3.58498e-10
8.8119e-10 4.20329e-09 4.08357e-10
-2.36089e-08 -1.43052e-08 -2.50589e-09
3.58778e-09 4.41544e-10 -6.1362e-10
8.43078e-10 5.3349e-09 4.25528e-10
-1.86158e-09 -8.08639e-09 -9.95392e-10
-8.7535e-09 8.14283e-09 6.07142e-10
3.77653e-09 3.88062e-09 5.74351e-11
-1.19579e-09 -2.17674e-12 -1.02643e-09
4.8307e-09 -5.73227e-09 1.95251e-09
4.39061e-09 1.22434e-09 8.62358e-10
-1.36285e-08 -2.7331e-09 5.48611e-09
2.85864e-09 7.64296e-10 -3.26448e-09
7.24e-09 1.72925e-10 -8.10255e-10
2.1471e-08 -6.5776e-08 1.03953e-08
2.07694e-09 4.55945e-09 1.12289e-09
-1.84472e-08 -8.46609e-09 9.29881e-09
1.09715e-09 -3.1168e-09 6.04063e-09
1.41884e-08 -9.29221e-10 -7.1195e-09
1.73906e-09 -3.10238e-09 -2.52621e-09
7.46939e-09 -1.33449e-09 8.29217e-10
8.42413e-09 -2.1213e-09 1.84603e-10
-3.49764e-11 -2.66797e-09 -6.92742e-10
2.26216e-09 8.29751e-10 2.13019e-10
-3.28949e-09 -6.48847e-09 1.26901e-08
1.31706e-09 3.62623e-09 -3.10895e-09
1.35371e-08 -2.84801e-09 6.8168e-09
9.02039e-09 1.73921e-09 5.83563e-09
1.1867e-09 1.50882e-09 -5.03633e-10
-2.11158e-09 2.02818e-09 2.53127e-09
2.36646e-09 6.57439e-09 -5.87164e-09
-7.63346e-10 -2.80252e-09 2.16181e-09
1.11124e-08 -9.7047e-09 1.391e-08
2.69091e-09 1.82413e-09 1.01823e-09
2.5729e-09 4.28817e-09 -4.70727e-09
7.19948e-09 -5.03691e-09 -1.03343e-09
-4.8508e-09 7.50181e-10 2.67014e-09
7.27332e-09 -7.70303e-09 4.83485e-09
-5.19415e-10 3.52125e-09 5.85995e-09
1.2026e-09 4.87831e-09 5.53892e-10
2.16913e-08 -2.40156e-10 9.8753e-09
2.06309e-09 1.26122e-09 -8.96213e-10
8.25842e-09 -1.78047e-09 3.50355e-09
1.04033e-09 -3.68233e-09 -5.75392e-09
7.47564e-10 6.47366e-09 7.02551e-10
-1.67914e-08 -1.23606e-07 -2.29776e-07
-2.43842e-11 -3.30271e-09 8.02535e-09
-1.0694e-08 1.05119e-09 3.43169e-08
5.76724e-09 3.02576e-09 -7.23177e-10
-1.79214e-08 1.09706e-07 3.06124e-07
-7.2972e-09 -3.68893e-09 5.49184e-09
1.48682e-08 -8.58227e-09 7.83637e-09
-1.11566e-09 7.28523e-09 8.98356e-10
-3.80284e-09 4.0732e-09 2.25482e-09
-1.8479e-09 -4.17894e-10 -2.00916e-09
