# vtk DataFile Version 3.0
LIGGGHTS particles timestep 8800000
ASCII
DATASET POLYDATA
POINTS 297 float
0.0637361 0.0152533 0.00951157
0.0651965 0.0206686 0.00728839
0.0576549 0.0150021 0.00974693
0.0646151 0.0183822 0.00718563
0.0643311 0.0161061 0.00825814
0.0700079 0.0159046 0.00837136
0.058107 0.0161486 0.00844624
0.0647113 0.017658 0.00758085
0.0706407 0.0184827 0.00734372
0.0656667 0.01825 0.00714332
0.0650738 0.0179975 0.00715374
0.0529053 0.0196896 0.0071425
0.0640134 0.0160564 0.00861671
0.0602628 0.0171204 0.00750245
0.0639144 0.0156774 0.00876058
0.057978 0.0159567 0.00863734
0.0650039 0.0162743 0.0081272
0.070619 0.0171385 0.00740038
0.065511 0.0185057 0.00716273
0.0652381 0.0186296 0.00717461
0.0649278 0.0168813 0.00770818
0.0644613 0.0165861 0.00792223
0.0642015 0.015627 0.00859503
0.0702685 0.0168234 0.00764492
0.0658081 0.0185442 0.00714778
0.0703305 0.0170539 0.00746321
0.0643745 0.0172748 0.00741755
0.0704456 0.0176044 0.00732407
0.0706871 0.0174265 0.00732478
0.0645147 0.0157138 0.00852633
0.0657452 0.01696 0.0076359
0.0655852 0.0174567 0.00729448
0.058545 0.0175941 0.00753231
0.0650548 0.017309 0.00740794
0.0707058 0.0187755 0.00735027
0.0643962 0.016346 0.00808993
0.064941 0.0198455 0.00724824
0.0704902 0.0166691 0.00777556
0.0644877 0.0177947 0.00715967
0.0651722 0.0209606 0.00735248
0.0639716 0.0157866 0.0084871
0.0634709 0.0149618 0.0112637
0.0646803 0.0186748 0.00719848
0.070073 0.0161343 0.00818975
0.0701382 0.016364 0.00800814
0.0655611 0.0200657 0.00723501
0.0652853 0.0174643 0.0072953
0.0575953 0.0148114 0.00997068
0.064567 0.0171033 0.00785976
0.0653034 0.0189221 0.00718692
0.0575387 0.01481 0.0102652
0.0704244 0.0164389 0.00795759
0.0650643 0.0203998 0.00727161
0.0601839 0.0169158 0.0077072
0.0594515 0.0183809 0.00726591
0.0703872 0.0173102 0.00731795
0.0643536 0.0172609 0.00771649
0.0705542 0.0169011 0.00759206
0.0659421 0.0172708 0.00741611
0.0640365 0.0160265 0.0083191
0.0649742 0.0178135 0.0073687
0.0648107 0.0192603 0.00722358
0.0702034 0.0165937 0.00782653
0.0644288 0.0175126 0.00724295
0.0588166 0.0159766 0.00863083
0.0655111 0.0176962 0.00712974
0.066212 0.0180035 0.00714215
0.0656572 0.0171965 0.00747358
0.0705764 0.0181898 0.00733721
0.0576715 0.0152787 0.00986195
0.0651114 0.0193681 0.00721721
0.0653592 0.0172303 0.00746784
0.0705108 0.0178971 0.00733063
0.0640769 0.0163005 0.00844939
0.0645498 0.0180892 0.00717275
0.0637864 0.0153241 0.00922443
0.0642312 0.0167415 0.00780855
0.0583716 0.0162653 0.00833295
0.0662241 0.0177038 0.00714662
0.060379 0.0176233 0.00727143
0.0574908 0.0149565 0.0105226
0.0709189 0.0172361 0.00731884
0.0573009 0.0149487 0.0113455
0.0650463 0.0190756 0.00720489
0.0651847 0.0196587 0.00722912
0.064862 0.0171223 0.00754207
0.0647145 0.0176406 0.00728138
0.0608932 0.017362 0.00727081
0.0649953 0.0175474 0.00723189
0.0632697 0.0149436 0.0114854
0.0649813 0.0187827 0.00719931
0.0652945 0.0165707 0.00791546
0.0703592 0.0162092 0.0081392
0.0587316 0.0165278 0.00807443
0.0658051 0.016718 0.00780269
0.0601273 0.0167077 0.00791579
0.0660214 0.0175107 0.00725436
0.0632043 0.0149075 0.011776
0.0528417 0.0194068 0.00706518
0.0609598 0.0176586 0.0072825
0.0584841 0.0167311 0.00798182
0.0536903 0.0201286 0.0072059
0.059322 0.0177948 0.00727889
0.0592648 0.0164882 0.00812296
0.063074 0.0148829 0.012361
0.0596316 0.0192764 0.00724628
0.0650015 0.0165207 0.00795617
0.0644367 0.0175441 0.00754113
0.0586095 0.017887 0.00752603
0.0588023 0.0192208 0.00725646
0.0597776 0.0164248 0.00819509
0.058585 0.0161205 0.00848976
0.0652278 0.0177473 0.00721404
0.0643461 0.0154056 0.00897931
0.0581049 0.0163599 0.00823337
0.0659321 0.0181109 0.00712974
0.0654482 0.0205076 0.00726196
0.0642724 0.0158648 0.0084265
0.0645645 0.0170887 0.00756013
0.057238 0.0148514 0.0116222
0.0642962 0.0169777 0.00763548
0.0653164 0.0202383 0.00725344
0.0591229 0.0170425 0.00760767
0.0644819 0.0163728 0.00837618
0.0648511 0.018198 0.00716722
0.0606651 0.0177136 0.00727096
0.0647594 0.0173634 0.00738705
0.059016 0.0166043 0.00800199
0.0654469 0.0169886 0.00762225
0.0652888 0.0199399 0.00723933
0.0662933 0.0173999 0.00731558
0.0631391 0.0148889 0.0120682
0.0605983 0.0174168 0.00727237
0.0660301 0.0170344 0.00757844
0.0653732 0.0192228 0.00719949
0.0590732 0.0168122 0.00779349
0.0647455 0.0189677 0.00721125
0.0604457 0.0179181 0.00726415
0.058553 0.0158695 0.00873448
0.0584367 0.0164722 0.00812568
0.0594962 0.0173194 0.00728956
0.0655854 0.0165079 0.00795302
0.0574242 0.0148224 0.0107826
0.0596335 0.0179178 0.00727305
0.0590461 0.019046 0.00725723
0.0581998 0.0158149 0.00878489
0.0646358 0.0161953 0.0081896
0.0541563 0.0201634 0.00718325
0.0652343 0.0176741 0.00750489
0.0598085 0.0174488 0.00732083
0.0519034 0.0156207 0.00878586
0.0583272 0.0160068 0.00859258
0.0593866 0.0180881 0.0072724
0.0594811 0.0161402 0.00847683
0.0588856 0.0161829 0.00842421
0.0578529 0.0155703 0.00907875
0.0586071 0.0183414 0.00727594
0.0589421 0.0198506 0.0072425
0.0647845 0.0179032 0.0071543
0.06515 0.0170508 0.00758624
0.0598294 0.0187977 0.00725355
0.0656207 0.0187848 0.00716742
0.0571731 0.014861 0.0119149
0.0598704 0.0190948 0.00724724
0.0655067 0.0167465 0.00778904
0.0583855 0.0173657 0.00764349
0.0654803 0.0197093 0.00722004
0.0594396 0.0171114 0.00749815
0.0598343 0.0166328 0.00798652
0.0571248 0.0150082 0.0121718
0.0587373 0.0189279 0.00726295
0.0591516 0.019636 0.00724444
0.0585421 0.0180486 0.00728243
0.0597634 0.0185035 0.00726008
0.0530619 0.0179091 0.00721524
0.0650593 0.0201069 0.00733626
0.0586721 0.0186345 0.00726945
0.0656386 0.0190839 0.00718195
0.0592581 0.0175018 0.00728537
0.0586616 0.0163217 0.00828084
0.065373 0.018012 0.00713783
0.064917 0.0184904 0.00718004
0.0600683 0.0186163 0.00725451
0.0641662 0.0165052 0.00798153
0.0593712 0.016905 0.00770486
0.0645261 0.0168257 0.00775372
0.0587839 0.0167363 0.00786526
0.0527116 0.0188241 0.00701116
0.0527768 0.0191166 0.00702559
0.0647656 0.0166756 0.00785436
0.0526946 0.0175325 0.00739318
0.0588943 0.0171528 0.00744776
0.0591888 0.0172254 0.00737927
0.0588509 0.0181667 0.00727672
0.0588412 0.0169443 0.00765676
0.0641013 0.0162672 0.00815225
0.0600312 0.0172528 0.00736531
0.0517739 0.015301 0.00927676
0.0587935 0.0174261 0.00753798
0.0595487 0.0165595 0.00805566
0.0600034 0.0183235 0.007261
0.0573613 0.0148321 0.0110757
0.0656707 0.0179502 0.00713525
0.0589811 0.0187533 0.00726372
0.0581151 0.0154995 0.00932483
0.0648758 0.0195529 0.00723591
0.0593963 0.0194625 0.00724518
0.0597231 0.0171831 0.00743066
0.0590262 0.0176922 0.00728417
0.0652158 0.0168093 0.00775148
0.0646394 0.0173601 0.00766373
0.0589611 0.0173995 0.00729063
0.0522499 0.0158424 0.00847004
0.0644414 0.0154852 0.00870621
0.0519646 0.0157965 0.00855063
0.0595601 0.0176124 0.00727988
0.0638486 0.0154773 0.00897412
0.0599385 0.0180307 0.00726749
0.0529689 0.0199723 0.00721991
0.0589637 0.0163957 0.00821118
0.0596985 0.0182107 0.00726657
0.0594916 0.0163516 0.00826418
0.0529855 0.0176228 0.00733965
0.0598957 0.0168402 0.00777865
0.0641 0.0154476 0.00881307
0.0593494 0.0191566 0.00725173
0.0587859 0.0178739 0.0072832
0.052573 0.0170063 0.00765275
0.0517106 0.015141 0.00952252
0.0525278 0.0179896 0.00721347
0.052217 0.016645 0.00779816
0.0523468 0.0171801 0.00755995
0.0520278 0.0159429 0.00829061
0.0520928 0.0161232 0.00805545
0.0527586 0.017808 0.0072746
0.0523842 0.0162242 0.00803585
0.0647008 0.0164354 0.00802188
0.0596054 0.0167676 0.0078471
0.0518371 0.015461 0.00903099
0.0601596 0.017828 0.00726907
0.0600929 0.0175333 0.00727594
0.0462007 0.0165443 0.00780012
0.0524441 0.0164583 0.00785816
0.0591545 0.0182781 0.00727119
0.0528214 0.0180797 0.00716018
0.0592193 0.0185709 0.00726471
0.0584771 0.0177558 0.00728892
0.0526362 0.0172624 0.00750986
0.0651395 0.0182901 0.0071612
0.0583001 0.0169804 0.00761161
0.0586121 0.0170789 0.00751752
0.0532165 0.0174422 0.00740324
0.0595164 0.0186737 0.00725943
0.0596668 0.016975 0.00763923
0.0581668 0.0155762 0.00903899
0.0584258 0.015677 0.00892625
0.0533143 0.0177553 0.00726639
0.0587209 0.0175811 0.00728969
0.0602246 0.0181208 0.00726258
0.05817 0.0165669 0.00802627
0.0523145 0.0160011 0.00822381
0.0585549 0.0168709 0.007726
0.0591111 0.0193388 0.00725075
0.0531566 0.0171714 0.0075203
0.0577875 0.0153803 0.00930152
0.0588673 0.0195136 0.00724997
0.0529264 0.0173529 0.00745632
0.0522793 0.016912 0.00767627
0.0579134 0.0157668 0.0088604
0.0528679 0.0170827 0.007573
0.0525927 0.0182726 0.00713803
0.0592843 0.0188637 0.00725822
0.0526464 0.0185317 0.00699671
0.0595814 0.0189665 0.00725294
0.0603121 0.0173292 0.00729287
0.0577346 0.0151937 0.00953029
0.0527951 0.0168085 0.00769218
0.058858 0.017719 0.00753109
0.0589163 0.0184603 0.00727021
0.0592229 0.0199559 0.00723735
0.0598735 0.0177379 0.00727397
0.0583573 0.0171884 0.00740311
0.0591818 0.0161523 0.00845982
0.0586597 0.017288 0.00730772
0.0599523 0.0170482 0.00757006
0.0524117 0.017455 0.00745888
0.0582358 0.0167735 0.00781898
0.0645707 0.0159554 0.00835748
0.0590902 0.0179853 0.00728084
0.0524686 0.0177184 0.00732713
0.0535794 0.0176212 0.00730857
0.0658109 0.017685 0.00713066
0.059322 0.0166961 0.00791446
0.0570586 0.0150594 0.0124598
0.0584158 0.0174622 0.00729538
0.0521573 0.0163664 0.00789211
0.0525077 0.0167273 0.00774166

VERTICES 297 594
1 0
1 1
1 2
1 3
1 4
1 5
1 6
1 7
1 8
1 9
1 10
1 11
1 12
1 13
1 14
1 15
1 16
1 17
1 18
1 19
1 20
1 21
1 22
1 23
1 24
1 25
1 26
1 27
1 28
1 29
1 30
1 31
1 32
1 33
1 34
1 35
1 36
1 37
1 38
1 39
1 40
1 41
1 42
1 43
1 44
1 45
1 46
1 47
1 48
1 49
1 50
1 51
1 52
1 53
1 54
1 55
1 56
1 57
1 58
1 59
1 60
1 61
1 62
1 63
1 64
1 65
1 66
1 67
1 68
1 69
1 70
1 71
1 72
1 73
1 74
1 75
1 76
1 77
1 78
1 79
1 80
1 81
1 82
1 83
1 84
1 85
1 86
1 87
1 88
1 89
1 90
1 91
1 92
1 93
1 94
1 95
1 96
1 97
1 98
1 99
1 100
1 101
1 102
1 103
1 104
1 105
1 106
1 107
1 108
1 109
1 110
1 111
1 112
1 113
1 114
1 115
1 116
1 117
1 118
1 119
1 120
1 121
1 122
1 123
1 124
1 125
1 126
1 127
1 128
1 129
1 130
1 131
1 132
1 133
1 134
1 135
1 136
1 137
1 138
1 139
1 140
1 141
1 142
1 143
1 144
1 145
1 146
1 147
1 148
1 149
1 150
1 151
1 152
1 153
1 154
1 155
1 156
1 157
1 158
1 159
1 160
1 161
1 162
1 163
1 164
1 165
1 166
1 167
1 168
1 169
1 170
1 171
1 172
1 173
1 174
1 175
1 176
1 177
1 178
1 179
1 180
1 181
1 182
1 183
1 184
1 185
1 186
1 187
1 188
1 189
1 190
1 191
1 192
1 193
1 194
1 195
1 196
1 197
1 198
1 199
1 200
1 201
1 202
1 203
1 204
1 205
1 206
1 207
1 208
1 209
1 210
1 211
1 212
1 213
1 214
1 215
1 216
1 217
1 218
1 219
1 220
1 221
1 222
1 223
1 224
1 225
1 226
1 227
1 228
1 229
1 230
1 231
1 232
1 233
1 234
1 235
1 236
1 237
1 238
1 239
1 240
1 241
1 242
1 243
1 244
1 245
1 246
1 247
1 248
1 249
1 250
1 251
1 252
1 253
1 254
1 255
1 256
1 257
1 258
1 259
1 260
1 261
1 262
1 263
1 264
1 265
1 266
1 267
1 268
1 269
1 270
1 271
1 272
1 273
1 274
1 275
1 276
1 277
1 278
1 279
1 280
1 281
1 282
1 283
1 284
1 285
1 286
1 287
1 288
1 289
1 290
1 291
1 292
1 293
1 294
1 295
1 296

POINT_DATA 297
SCALARS id int 1
LOOKUP_TABLE default
1
2
3
4
5
6
7
8
9
10
11
12
13
14
15
16
17
18
19
20
21
22
23
24
25
26
27
28
29
30
31
32
33
34
35
36
37
38
39
40
41
42
43
44
45
46
47
48
49
50
51
52
53
54
55
56
57
58
59
60
61
62
63
64
65
66
67
68
69
70
71
72
73
74
75
76
77
78
80
81
82
83
84
85
86
87
88
89
90
91
92
93
94
95
96
97
98
99
100
101
102
103
104
105
106
107
108
109
110
111
112
113
114
115
116
117
118
119
120
121
122
123
124
125
126
127
128
129
130
131
132
133
134
135
136
137
138
139
140
141
142
143
144
145
146
147
148
149
150
151
152
153
154
155
156
157
158
159
160
161
162
163
164
165
167
168
169
170
171
172
173
174
175
176
177
178
179
180
181
182
183
185
186
187
188
189
190
191
192
193
194
195
196
197
198
199
200
201
202
203
204
205
206
207
208
209
210
211
212
213
214
215
216
217
218
219
220
221
222
223
224
225
226
227
228
229
230
231
232
233
234
235
236
237
238
239
240
241
242
243
244
245
246
247
248
249
250
251
252
253
254
255
256
257
258
259
260
261
262
263
264
265
266
267
268
269
270
271
272
273
274
275
276
277
278
279
280
281
282
283
284
285
286
287
288
289
290
291
292
293
294
295
296
297
298
299
300

SCALARS type int 1
LOOKUP_TABLE default
1
1
1
1
1
1
1
1
1
1
1
1
1
1
1
1
1
1
1
1
1
1
1
1
1
1
1
1
1
1
1
1
1
1
1
1
1
1
1
1
1
1
1
1
1
1
1
1
1
1
1
1
1
1
1
1
1
1
1
1
1
1
1
1
1
1
1
1
1
1
1
1
1
1
1
1
1
1
1
1
1
1
1
1
1
1
1
1
1
1
1
1
1
1
1
1
1
1
1
1
1
1
1
1
1
1
1
1
1
1
1
1
1
1
1
1
1
1
1
1
1
1
1
1
1
1
1
1
1
1
1
1
1
1
1
1
1
1
1
1
1
1
1
1
1
1
1
1
1
1
1
1
1
1
1
1
1
1
1
1
1
1
1
1
1
1
1
1
1
1
1
1
1
1
1
1
1
1
1
1
1
1
1
1
1
1
1
1
1
1
1
1
1
1
1
1
1
1
1
1
1
1
1
1
1
1
1
1
1
1
1
1
1
1
1
1
1
1
1
1
1
1
1
1
1
1
1
1
1
1
1
1
1
1
1
1
1
1
1
1
1
1
1
1
1
1
1
1
1
1
1
1
1
1
1
1
1
1
1
1
1
1
1
1
1
1
1
1
1
1
1
1
1
1
1
1
1
1
1
1
1
1
1
1
1
1
1
1
1
1
1
1
1
1
1
1
1

SCALARS radius float 1
LOOKUP_TABLE default
0.00015
0.00015
0.00015
0.00015
0.00015
0.00015
0.00015
0.00015
0.00015
0.00015
0.00015
0.00015
0.00015
0.00015
0.00015
0.00015
0.00015
0.00015
0.00015
0.00015
0.00015
0.00015
0.00015
0.00015
0.00015
0.00015
0.00015
0.00015
0.00015
0.00015
0.00015
0.00015
0.00015
0.00015
0.00015
0.00015
0.00015
0.00015
0.00015
0.00015
0.00015
0.00015
0.00015
0.00015
0.00015
0.00015
0.00015
0.00015
0.00015
0.00015
0.00015
0.00015
0.00015
0.00015
0.00015
0.00015
0.00015
0.00015
0.00015
0.00015
0.00015
0.00015
0.00015
0.00015
0.00015
0.00015
0.00015
0.00015
0.00015
0.00015
0.00015
0.00015
0.00015
0.00015
0.00015
0.00015
0.00015
0.00015
0.00015
0.00015
0.00015
0.00015
0.00015
0.00015
0.00015
0.00015
0.00015
0.00015
0.00015
0.00015
0.00015
0.00015
0.00015
0.00015
0.00015
0.00015
0.00015
0.00015
0.00015
0.00015
0.00015
0.00015
0.00015
0.00015
0.00015
0.00015
0.00015
0.00015
0.00015
0.00015
0.00015
0.00015
0.00015
0.00015
0.00015
0.00015
0.00015
0.00015
0.00015
0.00015
0.00015
0.00015
0.00015
0.00015
0.00015
0.00015
0.00015
0.00015
0.00015
0.00015
0.00015
0.00015
0.00015
0.00015
0.00015
0.00015
0.00015
0.00015
0.00015
0.00015
0.00015
0.00015
0.00015
0.00015
0.00015
0.00015
0.00015
0.00015
0.00015
0.00015
0.00015
0.00015
0.00015
0.00015
0.00015
0.00015
0.00015
0.00015
0.00015
0.00015
0.00015
0.00015
0.00015
0.00015
0.00015
0.00015
0.00015
0.00015
0.00015
0.00015
0.00015
0.00015
0.00015
0.00015
0.00015
0.00015
0.00015
0.00015
0.00015
0.00015
0.00015
0.00015
0.00015
0.00015
0.00015
0.00015
0.00015
0.00015
0.00015
0.00015
0.00015
0.00015
0.00015
0.00015
0.00015
0.00015
0.00015
0.00015
0.00015
0.00015
0.00015
0.00015
0.00015
0.00015
0.00015
0.00015
0.00015
0.00015
0.00015
0.00015
0.00015
0.00015
0.00015
0.00015
0.00015
0.00015
0.00015
0.00015
0.00015
0.00015
0.00015
0.00015
0.00015
0.00015
0.00015
0.00015
0.00015
0.00015
0.00015
0.00015
0.00015
0.00015
0.00015
0.00015
0.00015
0.00015
0.00015
0.00015
0.00015
0.00015
0.00015
0.00015
0.00015
0.00015
0.00015
0.00015
0.00015
0.00015
0.00015
0.00015
0.00015
0.00015
0.00015
0.00015
0.00015
0.00015
0.00015
0.00015
0.00015
0.00015
0.00015
0.00015
0.00015
0.00015
0.00015
0.00015
0.00015
0.00015
0.00015
0.00015
0.00015
0.00015
0.00015
0.00015
0.00015
0.00015
0.00015
0.00015
0.00015
0.00015
0.00015
0.00015
0.00015
0.00015
0.00015
0.00015
0.00015
0.00015
0.00015
0.00015
0.00015
0.00015
0.00015
0.00015
0.00015
0.00015
0.00015

SCALARS mass float 1
LOOKUP_TABLE default
3.95841e-09
3.95841e-09
3.95841e-09
3.95841e-09
3.95841e-09
3.95841e-09
3.95841e-09
3.95841e-09
3.95841e-09
3.95841e-09
3.95841e-09
3.95841e-09
3.95841e-09
3.95841e-09
3.95841e-09
3.95841e-09
3.95841e-09
3.95841e-09
3.95841e-09
3.95841e-09
3.95841e-09
3.95841e-09
3.95841e-09
3.95841e-09
3.95841e-09
3.95841e-09
3.95841e-09
3.95841e-09
3.95841e-09
3.95841e-09
3.95841e-09
3.95841e-09
3.95841e-09
3.95841e-09
3.95841e-09
3.95841e-09
3.95841e-09
3.95841e-09
3.95841e-09
3.95841e-09
3.95841e-09
3.95841e-09
3.95841e-09
3.95841e-09
3.95841e-09
3.95841e-09
3.95841e-09
3.95841e-09
3.95841e-09
3.95841e-09
3.95841e-09
3.95841e-09
3.95841e-09
3.95841e-09
3.95841e-09
3.95841e-09
3.95841e-09
3.95841e-09
3.95841e-09
3.95841e-09
3.95841e-09
3.95841e-09
3.95841e-09
3.95841e-09
3.95841e-09
3.95841e-09
3.95841e-09
3.95841e-09
3.95841e-09
3.95841e-09
3.95841e-09
3.95841e-09
3.95841e-09
3.95841e-09
3.95841e-09
3.95841e-09
3.95841e-09
3.95841e-09
3.95841e-09
3.95841e-09
3.95841e-09
3.95841e-09
3.95841e-09
3.95841e-09
3.95841e-09
3.95841e-09
3.95841e-09
3.95841e-09
3.95841e-09
3.95841e-09
3.95841e-09
3.95841e-09
3.95841e-09
3.95841e-09
3.95841e-09
3.95841e-09
3.95841e-09
3.95841e-09
3.95841e-09
3.95841e-09
3.95841e-09
3.95841e-09
3.95841e-09
3.95841e-09
3.95841e-09
3.95841e-09
3.95841e-09
3.95841e-09
3.95841e-09
3.95841e-09
3.95841e-09
3.95841e-09
3.95841e-09
3.95841e-09
3.95841e-09
3.95841e-09
3.95841e-09
3.95841e-09
3.95841e-09
3.95841e-09
3.95841e-09
3.95841e-09
3.95841e-09
3.95841e-09
3.95841e-09
3.95841e-09
3.95841e-09
3.95841e-09
3.95841e-09
3.95841e-09
3.95841e-09
3.95841e-09
3.95841e-09
3.95841e-09
3.95841e-09
3.95841e-09
3.95841e-09
3.95841e-09
3.95841e-09
3.95841e-09
3.95841e-09
3.95841e-09
3.95841e-09
3.95841e-09
3.95841e-09
3.95841e-09
3.95841e-09
3.95841e-09
3.95841e-09
3.95841e-09
3.95841e-09
3.95841e-09
3.95841e-09
3.95841e-09
3.95841e-09
3.95841e-09
3.95841e-09
3.95841e-09
3.95841e-09
3.95841e-09
3.95841e-09
3.95841e-09
3.95841e-09
3.95841e-09
3.95841e-09
3.95841e-09
3.95841e-09
3.95841e-09
3.95841e-09
3.95841e-09
3.95841e-09
3.95841e-09
3.95841e-09
3.95841e-09
3.95841e-09
3.95841e-09
3.95841e-09
3.95841e-09
3.95841e-09
3.95841e-09
3.95841e-09
3.95841e-09
3.95841e-09
3.95841e-09
3.95841e-09
3.95841e-09
3.95841e-09
3.95841e-09
3.95841e-09
3.95841e-09
3.95841e-09
3.95841e-09
3.95841e-09
3.95841e-09
3.95841e-09
3.95841e-09
3.95841e-09
3.95841e-09
3.95841e-09
3.95841e-09
3.95841e-09
3.95841e-09
3.95841e-09
3.95841e-09
3.95841e-09
3.95841e-09
3.95841e-09
3.95841e-09
3.95841e-09
3.95841e-09
3.95841e-09
3.95841e-09
3.95841e-09
3.95841e-09
3.95841e-09
3.95841e-09
3.95841e-09
3.95841e-09
3.95841e-09
3.95841e-09
3.95841e-09
3.95841e-09
3.95841e-09
3.95841e-09
3.95841e-09
3.95841e-09
3.95841e-09
3.95841e-09
3.95841e-09
3.95841e-09
3.95841e-09
3.95841e-09
3.95841e-09
3.95841e-09
3.95841e-09
3.95841e-09
3.95841e-09
3.95841e-09
3.95841e-09
3.95841e-09
3.95841e-09
3.95841e-09
3.95841e-09
3.95841e-09
3.95841e-09
3.95841e-09
3.95841e-09
3.95841e-09
3.95841e-09
3.95841e-09
3.95841e-09
3.95841e-09
3.95841e-09
3.95841e-09
3.95841e-09
3.95841e-09
3.95841e-09
3.95841e-09
3.95841e-09
3.95841e-09
3.95841e-09
3.95841e-09
3.95841e-09
3.95841e-09
3.95841e-09
3.95841e-09
3.95841e-09
3.95841e-09
3.95841e-09
3.95841e-09
3.95841e-09
3.95841e-09
3.95841e-09
3.95841e-09
3.95841e-09
3.95841e-09
3.95841e-09
3.95841e-09
3.95841e-09
3.95841e-09
3.95841e-09
3.95841e-09
3.95841e-09
3.95841e-09
3.95841e-09
3.95841e-09
3.95841e-09
3.95841e-09
3.95841e-09
3.95841e-09
3.95841e-09
3.95841e-09
3.95841e-09
3.95841e-09
3.95841e-09
3.95841e-09
3.95841e-09

VECTORS velocity float
0.005553 1.78358e-05 0.000116683
0.00558332 -0.000324659 -0.000195937
0.00555472 -0.000110912 -0.000510845
0.00570593 -0.000331984 -0.000230957
0.00584649 -0.000286196 0.00018456
0.00584929 -0.000450572 0.000551064
0.00585777 0.000115065 -5.79348e-06
0.00529982 -0.000132298 -0.000208794
0.0054962 -0.000434974 0.000369573
0.00583389 -0.000229124 -2.49374e-05
0.00575728 -0.000307377 -0.000130221
0.00591715 -6.09185e-05 -0.000559803
0.00599566 -0.000359375 0.000139529
0.00553035 9.02253e-05 2.61413e-07
0.00594592 -2.07478e-05 0.000216717
0.00577583 0.000147549 -3.90564e-05
0.00023632 -0.000181359 0.000117671
0.00563663 -0.000231128 0.00018113
0.00571594 -0.000303749 -0.000205296
0.00569993 -0.00034585 -0.00024043
0.00576498 -0.000224357 3.40092e-05
0.00579612 -0.000191748 0.000167386
0.00598345 -0.000159324 0.000379881
0.0057953 -0.000419611 0.000519071
0.0056988 -0.000193774 -0.000230357
0.00565545 -0.000420076 0.000444359
0.00524311 0.000100719 0.000116255
0.00537437 -0.000406715 0.00036136
0.00550266 -0.000232487 0.000180425
0.00585543 -0.000273834 8.3846e-05
0.00582153 -0.00024678 6.003e-05
0.00585218 -0.000212741 3.5357e-05
0.00554275 9.85157e-05 -8.54314e-05
0.00578918 -0.000252942 -8.07807e-06
0.00548521 -0.000453347 0.000368623
0.00582955 -0.000257566 7.07042e-05
0.00575919 -0.000327108 -0.000243495
0.0058499 -0.000352903 0.000474098
0.00526275 2.26838e-05 -0.000491375
0.00544546 -0.000357468 -6.06668e-05
0.0059094 -0.000354243 0.000139139
0.00852941 0.00059714 -0.00841689
0.00570395 -0.000341374 -0.000229218
0.0058358 -0.000444428 0.000545675
0.00582457 -0.000434464 0.000538126
0.00570502 -0.000304216 -0.000241659
0.00582312 -0.000237835 4.16047e-05
0.00561451 -0.000182882 -0.00047608
0.00586658 5.7245e-06 0.000134868
0.00574282 -0.000370797 -0.000245471
0.00609401 -0.000183478 -0.000315576
0.0058101 -0.000417583 0.000524254
0.00565702 -0.000368191 -0.000235554
0.0054809 0.000111381 -2.30546e-05
0.00580276 0.000206184 -6.85253e-05
0.00546928 -0.00041259 0.00037011
0.00608927 -0.000496416 0.000285692
0.00584552 -0.000206705 0.000352106
0.00583995 -0.000416761 0.000134572
0.00584555 -0.000352964 0.000115506
0.00546058 2.98403e-05 7.94612e-05
0.00575214 -0.000301506 -0.000243817
0.00582246 -0.000425097 0.000528732
0.00437422 0.000227672 -0.00149481
0.0140797 0.00233376 -0.00212306
0.00581868 -0.000222211 4.26426e-05
0.00580215 -0.00029387 0.000232324
0.0058164 -0.000267541 7.88869e-05
0.005493 -0.000432392 0.000368993
0.014249 0.0128423 -0.0327801
0.00576629 -0.000331566 -0.000246623
0.00580381 -0.000230286 5.7467e-05
0.00538394 -0.000405984 0.000362383
0.00583934 -0.000298213 0.000264463
0.00570001 -0.000357324 -0.000225104
0.00559887 8.53727e-05 0.000164472
0.00579107 -0.000150731 0.000301907
0.00576797 4.79414e-05 5.93877e-05
0.00573857 -0.000310854 0.000231043
0.00569224 0.000175181 7.18361e-05
0.00688928 -0.000100903 -0.000133754
0.00567657 -1.79659e-05 4.78492e-06
0.0060531 0.000455001 -0.000152335
0.00575485 -0.000321868 -0.000240815
0.00575748 -0.00034699 -0.000245117
0.00576069 -0.000201172 4.08507e-05
0.00521014 -0.00025693 -0.000192217
0.00549592 -8.17456e-05 -0.000207143
0.00534046 -7.917e-05 0.00020237
0.00805094 0.000665781 -0.00878827
0.00573248 -0.00030665 -0.000229897
0.00582267 -0.000191356 1.75946e-05
0.00582908 -0.000420648 0.000526175
0.0055292 0.000447557 -0.000345064
0.00582804 -0.00024419 4.838e-05
0.00551294 0.00012445 -3.7583e-05
0.00575873 -0.000355183 0.000189861
0.00760249 -5.34381e-06 -0.00896755
0.00597735 -0.000204814 -0.000207962
0.00556052 -2.12376e-05 0.000214715
0.00592813 6.4574e-05 1.26563e-05
-3.00398e-15 1.06127e-14 -3.62944e-14
0.00572015 0.000115891 -6.77413e-05
0.00577909 0.000149388 -6.91338e-05
0.00757195 -0.00243858 -0.009039
0.00600384 0.00030674 -7.18619e-05
0.00580142 -0.000210546 3.70972e-05
0.00460081 0.00177622 -0.00149916
0.0056233 0.000114574 -4.01067e-05
0.00578824 0.00012362 -6.62798e-05
0.00525128 0.000175419 -9.12025e-05
0.00610324 9.06308e-05 -0.000619498
0.00579578 -0.000253924 -1.20679e-05
0.00587853 1.19652e-05 0.000389507
0.00578633 6.93673e-05 4.23728e-05
0.00583777 -0.00021131 0.000225139
0.00558998 -0.000297743 -0.000242769
0.00588418 -0.000339567 0.000125563
0.00574735 -0.000100334 0.000199383
0.0059843 0.000581861 -0.000152308
0.00576232 -0.000114176 0.000295762
0.00567576 -0.000350312 -0.000239121
0.00553733 0.000199314 -0.000132071
0.00579672 -0.000194136 4.20927e-05
0.00575421 -0.000290764 -0.000210669
0.00565062 0.00028332 0.000206989
0.00475038 -0.0075346 -0.0189796
0.00580722 0.000203937 -8.55327e-05
0.00582034 -0.000227979 5.98654e-05
0.00572231 -0.000346963 -0.000240993
0.00780838 0.0032459 -0.00249876
0.00764441 -0.0012363 -0.00901614
0.00556766 6.57129e-05 -5.58383e-05
0.00587302 -0.000409761 0.000154055
0.00577904 -0.000315075 -0.000244595
0.00553544 0.000210283 -0.000130162
0.00573416 -0.000296685 -0.000236519
0.00569884 0.000234084 -4.88238e-05
0.0129375 0.00556466 -0.00538079
0.00600852 3.92931e-05 4.92934e-05
0.00556311 0.000126591 -6.27312e-05
0.00582372 -0.000213883 2.98205e-05
0.00603408 0.000170624 -0.000194004
0.00578551 0.000201944 -6.93602e-05
0.00579599 0.000163898 -6.66497e-05
0.00553964 -0.000715236 -0.00155196
0.00574583 -0.000287225 8.03372e-05
1.88059e-14 5.84669e-15 -2.03381e-13
0.00575068 -0.000118482 5.25012e-05
0.0056563 0.000177307 -5.61887e-05
0.00535186 0.000150498 8.90385e-05
0.00591357 7.72335e-05 -6.9267e-05
0.00582353 0.000213843 -7.12381e-05
0.00791793 0.00058063 -0.000458157
0.00763642 0.00339016 -0.00330293
0.00547947 -0.000131973 -0.000352995
0.00565687 1.33581e-05 -6.22685e-05
0.00588615 0.000212739 -6.82528e-05
0.0056017 -0.000457236 -0.000254673
0.00577256 -0.000233773 3.42011e-06
0.00579399 0.000235179 -6.85661e-05
0.00571397 -0.000308158 -0.000248649
0.00479184 0.00107758 -0.000479819
0.00595238 0.000230241 -6.9744e-05
0.00582894 -0.000216642 4.01566e-05
0.00547065 0.00017476 -9.30166e-05
0.00574945 -0.000289817 -0.000241011
0.00553968 0.000177429 -9.97417e-05
0.00540784 0.00014202 -5.34913e-05
0.00519757 0.00142956 -0.000679119
0.00576788 0.000158611 -6.60851e-05
0.00587612 0.00019424 -6.83085e-05
0.00564233 6.62941e-05 -6.29691e-05
0.00576723 0.000203322 -6.63113e-05
0.00625039 -0.000494245 -0.000161967
0.00570812 -0.000374161 -0.000203214
0.00569349 -3.63615e-05 -6.204e-05
0.00577785 -0.000321641 -0.000240397
0.00559108 0.000152698 -7.2588e-05
0.00537052 0.000725001 -0.000701423
0.00574861 -0.000268798 -0.000228582
0.00575027 -0.000299261 -0.000224186
0.00575253 0.000192062 -6.53983e-05
0.00580887 -0.000191799 0.000294537
0.00553488 0.000226381 -0.000143311
0.00580375 -0.000110996 0.00024843
0.00584657 0.00020095 -0.000116195
0.00600981 -0.000390374 0.000544653
0.00600854 -0.000354103 0.000558068
0.00578335 -0.000259657 5.27741e-05
0.00577335 -0.000665668 -3.03321e-05
0.00554167 0.000193177 -8.84669e-05
0.00554565 0.000184881 -0.000105789
0.00563704 2.9172e-05 -6.08982e-05
0.00557602 0.00018192 -8.46885e-05
0.00582939 -0.000260247 0.000241378
0.0055926 0.000121475 -3.32292e-05
0.00587705 0.000695683 -0.000587617
0.00556192 0.000181708 -6.37694e-05
0.00548406 0.000372048 -0.000284634
0.00574715 0.000192126 -6.61625e-05
0.00542757 0.00040328 -0.000304398
0.00586557 -0.000233087 6.87601e-05
0.00576725 0.000166644 -6.68453e-05
0.0118099 0.00678866 -0.0259305
0.00576072 -0.000313657 -0.000244119
0.00593486 0.000244286 -6.96032e-05
0.0055937 0.000177052 -7.02666e-05
0.00565355 0.00021624 -4.82306e-05
0.00579649 -0.000202764 2.39604e-05
0.0120073 0.00168078 -0.00868879
0.00556236 0.000218738 -6.17312e-05
0.00570354 -0.000166223 0.000186977
0.00605615 -1.13968e-05 0.000487609
0.00576397 -0.00031756 0.000211638
0.00564808 6.64378e-05 -6.66411e-05
0.00577366 0.000187423 0.000291622
0.0057609 0.00017893 -6.94613e-05
0.00587066 -2.70616e-05 -0.000491598
0.00571122 0.000185464 -7.84392e-05
0.00579507 0.000200118 -6.88553e-05
0.00612946 0.000530198 -0.000431621
0.00571076 -0.00057357 -6.3745e-05
0.00550479 0.000133358 -4.29807e-05
0.00583705 -1.61989e-05 0.000437536
0.00581142 0.000215371 -6.78561e-05
0.00562654 5.47809e-05 -6.68771e-05
0.00615434 -0.000699872 -3.13019e-05
0.0057875 0.000700141 -0.000606548
0.00566686 -0.000579018 8.02338e-05
0.00583133 -0.000606659 -0.00017741
0.00612326 -0.000674265 -2.94343e-05
0.00588033 -0.000310726 0.00102223
0.00601093 -0.000850215 -7.71501e-05
0.00562293 -0.000693574 -6.16632e-05
0.00579627 -0.000227022 0.000162728
0.00573818 -0.000293276 4.64863e-05
0.00547819 0.000228411 -0.000145814
0.00566026 0.000511014 -0.000231182
0.00571159 0.000170239 -7.10635e-05
0.00567655 0.000137402 -3.80487e-05
0.00601745 -0.000352855 -0.000560483
0.00590246 -0.000478243 -1.56541e-05
0.00581158 0.000164142 -6.89437e-05
0.00583875 -0.000822142 0.000118071
0.00577732 0.000178022 -6.71797e-05
0.00559692 8.81383e-05 -6.58006e-05
0.0059586 -0.000719959 -1.63374e-05
0.00574774 -0.000304672 -0.000237857
0.00582667 6.05864e-05 3.98499e-05
0.00556096 0.000142258 -3.9609e-05
0.005901 -0.000370768 -0.000152762
0.00578944 0.000214267 -6.72559e-05
0.00556132 0.000180052 -8.80769e-05
-0.00221345 0.0234021 -0.0253691
0.0127541 0.00559187 -0.00546122
0.00667045 -3.92462e-05 -0.000335846
0.00555916 0.00010879 -6.81923e-05
0.00572213 0.00019713 -6.43288e-05
0.00586726 3.27062e-05 9.24728e-05
0.00563008 4.12339e-05 0.000321377
0.00583009 0.00010668 -1.07234e-05
0.00581905 0.000186834 -6.77171e-05
0.00587319 -0.000454238 -0.000119098
0.00548171 -0.000149279 -0.000453691
0.00583549 0.00018809 -6.82135e-05
0.00584935 -0.000560009 -7.34967e-05
0.00596063 -0.000630567 -8.76854e-05
0.00567784 2.32593e-05 -0.000132187
0.0061451 -0.000554675 -9.19639e-05
0.00591582 -0.000559778 0.000395603
0.00578652 0.000187707 -6.7032e-05
0.00600776 -0.000438443 0.000552093
0.00581046 0.000243967 -6.82735e-05
0.00560267 8.88638e-05 -1.73335e-06
0.00554536 -0.000124899 -0.000500262
0.00620537 -0.000732915 -1.43307e-05
0.00566609 0.000191944 -2.23899e-05
0.0057388 4.22403e-05 -6.3676e-05
0.00581843 0.000411668 -7.16549e-05
0.00573242 0.000171711 -6.17639e-05
0.00555481 9.64233e-05 -2.14792e-05
0.0086774 0.00666133 -0.00656643
0.00554517 0.00012943 -4.24329e-05
0.00551835 0.000128854 -4.31847e-05
0.00593158 -0.000652666 -2.28386e-06
0.0058843 3.30193e-05 8.58431e-05
0.00586334 -0.000292132 9.02781e-05
0.00579407 0.000180729 -6.66223e-05
0.00571698 -0.000663503 -2.2618e-05
0.0069813 0.000421313 -0.000536396
0.0057846 -0.000288648 0.000229768
0.00546581 0.000250887 -0.000174929
0.006025 0.00163743 -0.000615206
0.00552392 0.000106132 -5.33912e-05
0.00592686 -0.000316584 0.00059991
0.00606547 -0.000616514 -5.19438e-05

VECTORS force float
4.02766e-10 -1.53497e-09 -1.50499e-08
2.9752e-09 -1.19554e-09 -2.65975e-09
-4.90915e-09 -1.7477e-09 -6.15751e-11
1.15471e-09 3.59101e-10 7.9872e-10
6.27405e-11 -1.99832e-09 5.1834e-09
-2.95236e-10 -9.20261e-10 6.65693e-10
8.6161e-09 -4.14412e-09 3.14986e-09
-2.2312e-08 7.94676e-09 1.76185e-08
4.3801e-09 8.30705e-09 7.81107e-10
-8.43252e-10 -1.13486e-09 -1.4617e-10
1.0253e-09 -3.41474e-09 -4.46687e-09
-6.45398e-09 -1.45286e-09 6.51548e-09
-6.51806e-10 -3.25393e-10 -6.41271e-09
7.60849e-09 -3.52591e-09 3.78765e-09
4.8817e-09 -1.12084e-08 -1.08139e-08
2.22577e-08 4.75935e-09 -1.42955e-09
4.32505e-10 -1.99234e-09 2.29866e-09
3.75255e-09 -4.37481e-09 1.99282e-09
-2.08995e-10 -2.14031e-09 4.94388e-10
2.32938e-09 1.1665e-09 -2.56942e-09
-1.49508e-09 -3.70078e-09 -3.89454e-09
2.0542e-09 -3.1226e-09 1.49749e-09
-3.91453e-09 3.16198e-10 -9.26754e-09
-1.34622e-10 -3.85978e-09 5.61496e-09
1.14909e-10 -1.09437e-09 9.24098e-10
-2.18361e-09 -1.58521e-09 6.75579e-09
3.37071e-09 5.03616e-09 7.19379e-09
6.32088e-10 -3.03716e-09 7.09659e-10
-1.38461e-09 -4.3372e-09 2.76578e-09
1.3105e-08 -7.24872e-09 -7.48349e-09
1.09703e-09 -9.75727e-10 -3.24599e-11
8.59422e-10 -8.78854e-10 -2.33412e-10
-2.57825e-10 -1.5255e-09 3.31162e-09
-3.8207e-10 4.53935e-09 1.83182e-09
3.35413e-09 9.3003e-09 6.13639e-11
8.14809e-10 -2.78071e-09 1.92621e-09
5.96132e-10 2.17418e-09 3.37252e-11
2.04345e-09 -6.09996e-09 4.69645e-09
7.97018e-09 5.8463e-08 2.98649e-08
-4.20032e-10 -1.91562e-09 -1.5324e-09
6.60229e-10 9.62991e-10 -1.88179e-09
-4.85711e-09 -1.59707e-09 -1.11925e-08
-7.63657e-10 -7.80927e-10 3.47176e-10
-4.3507e-10 -2.25995e-09 1.96006e-09
6.49669e-11 -3.86462e-09 2.88561e-09
5.05248e-09 -5.59969e-09 -8.25297e-11
3.38616e-10 -1.13453e-09 -7.65629e-10
-6.37662e-09 8.81375e-09 -2.25838e-10
-8.32158e-10 1.26064e-10 1.85428e-10
8.32067e-10 1.5518e-09 -2.10886e-09
1.54553e-08 -1.2118e-08 -7.50527e-10
8.1249e-10 -4.80713e-09 3.92312e-09
1.00862e-09 -5.32296e-10 3.2807e-10
6.24575e-09 -3.91225e-09 3.66746e-09
-1.78536e-09 -2.93975e-09 -5.69048e-11
2.48724e-10 -3.822e-09 1.74022e-09
1.2296e-08 -2.25342e-09 -4.25998e-09
2.02221e-09 1.08801e-09 -6.84399e-09
6.74886e-10 3.51237e-09 -3.60763e-10
-5.82953e-09 4.67443e-10 -2.10451e-09
-6.71733e-09 9.67773e-09 2.36818e-09
1.63717e-10 1.19171e-09 1.80914e-10
-4.47134e-11 -4.34202e-09 3.53496e-09
1.73317e-07 -2.31728e-07 3.59271e-07
-1.37519e-08 1.73199e-08 -1.74125e-08
1.87296e-09 -1.3511e-09 -3.32834e-10
-5.53789e-10 -1.52497e-09 -2.66441e-10
5.28992e-10 8.14231e-10 -7.50294e-10
7.20504e-09 1.58056e-09 5.84926e-10
6.76296e-09 -2.37396e-09 -3.36996e-08
-1.12387e-10 1.88493e-09 -1.28254e-10
-3.24644e-10 -2.35971e-09 -2.45044e-09
1.27928e-08 -3.66535e-09 7.82694e-10
-7.47064e-10 -2.70457e-09 2.90456e-09
-2.65917e-09 6.97979e-09 -2.22023e-09
-2.34458e-09 3.71237e-09 -7.1943e-09
5.65329e-10 -2.8448e-09 -3.16148e-09
-7.51841e-10 5.67795e-09 -5.66727e-09
-9.17911e-11 -1.50072e-09 -1.294e-09
5.1224e-10 -3.2751e-09 -1.35199e-09
4.2299e-09 -2.0291e-08 -1.84602e-09
-5.35388e-10 -1.72512e-09 8.27289e-10
8.71607e-09 5.83309e-09 7.60208e-09
3.42072e-10 1.25141e-09 -4.2445e-10
1.82838e-09 1.83511e-09 -2.2103e-10
-6.13513e-10 -2.62468e-09 -6.8097e-09
-2.54301e-08 1.21181e-08 -4.69752e-09
7.08016e-10 1.46736e-10 -6.22934e-10
-6.5815e-09 1.89797e-09 7.31495e-09
1.06501e-08 -2.74885e-09 1.08513e-08
3.45482e-09 2.56574e-10 -1.92411e-09
-1.20931e-09 -2.53223e-09 7.73255e-10
3.18959e-09 -3.96197e-09 3.37579e-09
-5.73465e-08 4.54941e-08 -5.40448e-08
6.4772e-09 4.51426e-09 -2.48233e-09
-4.10307e-09 -3.12126e-09 2.87449e-09
6.17312e-10 1.02613e-09 -6.3351e-10
7.21134e-10 1.13082e-09 1.06491e-08
-5.39293e-09 1.67064e-09 -9.40898e-09
4.07961e-09 5.54974e-10 3.89034e-10
7.63928e-11 -6.83433e-09 6.30767e-09
7.65142e-23 1.68745e-22 3.97047e-23
-4.00029e-10 7.25329e-09 -8.21488e-10
-5.17356e-09 -4.46527e-09 5.38799e-09
-6.21025e-09 -3.22032e-09 9.6203e-09
-2.76351e-09 -4.24487e-09 1.1716e-10
5.10949e-10 -3.16334e-10 2.37432e-09
2.58556e-07 -1.26684e-07 6.38074e-07
2.56359e-09 -6.97889e-09 9.05013e-10
-6.95718e-10 -8.02654e-09 2.20549e-10
1.56734e-09 3.79252e-09 -3.29096e-09
1.16275e-08 -1.16098e-09 1.54726e-08
-2.61395e-10 -3.46877e-09 -3.44035e-09
-6.15948e-09 1.38821e-09 -2.59848e-09
1.54128e-08 4.72772e-09 -1.80474e-09
-7.41998e-10 -6.62765e-10 -4.29849e-10
2.27437e-09 -4.39511e-09 -2.5056e-09
-3.20851e-09 -2.75444e-10 -2.16408e-09
-7.86671e-10 4.14737e-09 4.49602e-09
7.12469e-09 -1.75744e-08 1.24072e-10
2.43903e-10 2.32372e-09 2.0621e-09
2.91438e-09 -2.67515e-10 4.5119e-11
1.00002e-08 -4.68938e-09 -3.46782e-09
-2.26835e-09 -1.26196e-09 -7.21922e-10
-2.07867e-09 -4.97271e-09 -2.88472e-09
2.91643e-09 -6.12912e-09 4.96677e-11
0.0 0.0 -3.8832e-08
-6.1135e-10 4.94633e-09 -1.14854e-09
-8.4765e-11 -5.86189e-10 -1.07608e-09
3.79748e-09 7.28426e-10 1.99453e-10
-3.87166e-10 2.85285e-09 -1.86479e-09
-4.23909e-09 7.53602e-09 9.70801e-09
1.99099e-09 -1.68238e-09 4.82683e-10
-5.93615e-09 2.88408e-09 -2.18044e-09
-1.13097e-09 -3.08449e-10 5.2301e-11
-2.98463e-09 6.24732e-09 -2.45556e-09
9.86081e-10 4.79094e-10 -7.73842e-10
1.37987e-09 -5.74555e-09 5.17142e-10
1.92188e-08 4.66654e-09 -1.13365e-08
-1.02837e-10 -3.34197e-09 6.10345e-09
-6.21986e-09 3.09325e-09 -6.65479e-10
-7.92158e-10 2.54289e-09 -6.67903e-10
4.523e-08 -3.0259e-08 1.4935e-08
-4.38447e-09 -5.09664e-09 -9.99506e-11
1.76571e-09 -4.91156e-09 6.83315e-11
0.0 0.0 -3.8832e-08
3.24725e-09 -4.45632e-10 1.35143e-09
-5.79026e-24 -2.4195e-23 0.0
5.19353e-10 -9.43646e-10 -1.79345e-09
5.52198e-09 -9.37251e-10 4.60547e-09
1.0559e-07 -1.08595e-09 -1.42125e-08
-7.47494e-10 -2.30657e-08 2.1493e-08
-5.52149e-09 -2.3028e-09 4.04157e-10
7.7657e-08 -1.75144e-10 3.32713e-10
-5.81042e-08 -1.11613e-07 1.10045e-07
-1.11238e-08 -6.51423e-09 1.02573e-08
5.77846e-10 -3.18085e-09 6.97333e-11
-1.76761e-09 -6.70945e-09 1.32901e-10
-8.95974e-09 3.29e-09 -8.81282e-10
-7.64307e-10 -2.0423e-09 -3.8237e-09
7.3591e-09 -1.33731e-09 -1.43323e-10
-1.62145e-09 -1.34812e-09 -4.20333e-10
5.90746e-09 -4.0928e-09 2.11236e-10
-2.26675e-10 1.22383e-10 1.53034e-11
3.39782e-09 8.86088e-10 -3.27726e-09
4.11367e-09 -1.18955e-09 3.32726e-09
3.02099e-09 -1.22811e-09 -1.41492e-10
-2.0063e-11 8.21406e-09 -7.60396e-09
5.80474e-09 3.33253e-09 -2.98141e-09
1.81247e-09 5.95168e-09 6.53438e-09
-9.85879e-10 -3.08723e-09 4.49337e-11
-1.48341e-09 -5.83709e-09 6.84678e-11
-1.76354e-09 -4.60301e-09 1.21255e-09
3.85959e-09 -2.19179e-09 1.0479e-11
-4.91803e-09 2.39897e-09 -5.36802e-09
3.43442e-09 -4.73465e-11 2.71283e-09
7.34948e-09 2.74652e-08 -8.10544e-10
-1.13046e-09 -7.3714e-10 -9.96829e-10
-4.41833e-09 7.31178e-09 -2.43882e-09
-1.32309e-07 3.84157e-08 -4.43104e-08
4.13253e-09 -5.1541e-10 -3.64327e-09
1.72528e-09 -2.39577e-09 -2.56116e-10
9.94247e-09 5.25599e-11 2.25081e-10
1.02127e-09 -2.2447e-09 -5.73974e-10
1.2769e-08 5.59162e-09 -6.71361e-09
1.25184e-10 -2.86638e-09 1.44961e-10
6.66695e-09 1.76021e-08 -1.4828e-08
-1.12702e-09 2.87081e-09 -9.00898e-10
2.32584e-09 5.52753e-11 9.79682e-10
-2.02126e-09 -2.66308e-09 1.11962e-10
1.24544e-08 4.60639e-09 -2.85187e-09
-5.63651e-10 -4.68354e-10 3.84889e-09
1.98721e-09 5.27048e-09 -3.84189e-09
3.60679e-09 -4.04596e-09 -8.50194e-11
2.05138e-09 4.73695e-09 -2.19218e-09
-1.22357e-09 -2.02337e-09 5.39316e-10
4.62201e-09 -3.29322e-09 2.83154e-09
4.90343e-09 1.05115e-08 -1.53834e-08
3.70178e-09 3.10135e-09 -5.93059e-10
4.69995e-08 2.53923e-08 -2.74494e-08
3.15273e-09 -1.14327e-09 -5.50938e-10
5.18552e-08 -1.75321e-08 2.26832e-08
8.76136e-10 -5.94943e-10 -1.2113e-09
-1.99281e-10 -2.28972e-09 1.73395e-11
0.0 0.0 -3.8832e-08
-3.96642e-10 1.37274e-09 -5.0638e-11
-2.54584e-09 -5.66698e-09 1.69967e-10
9.62544e-10 4.29857e-09 8.33047e-10
-1.51856e-09 3.01597e-09 -1.12273e-09
-1.44665e-09 -2.22993e-09 -6.77579e-10
9.75625e-08 -5.21043e-08 1.59162e-07
3.29146e-09 -5.38631e-10 2.59876e-10
-8.66471e-09 -2.91961e-09 3.09002e-08
-6.81438e-09 1.40304e-09 -7.97612e-09
-2.18306e-08 1.77937e-08 1.88404e-08
-4.55105e-10 3.50594e-09 1.46335e-10
-6.33063e-09 -5.72664e-09 -9.41297e-09
-2.11538e-09 -1.2823e-09 -6.65067e-10
-2.16331e-09 2.25975e-09 -4.59559e-09
-2.22999e-08 4.85362e-09 -8.73437e-09
-4.30378e-09 -4.79645e-09 -6.00101e-10
5.29044e-08 8.59189e-09 -6.8414e-09
-2.54293e-09 2.29172e-09 -1.72063e-09
3.85255e-09 1.99546e-09 -3.39466e-10
2.90427e-09 -6.46366e-09 7.83022e-09
2.48693e-09 -5.57381e-09 -7.76834e-12
6.38862e-10 -8.15642e-10 5.50859e-10
-1.71641e-09 -9.3239e-10 1.28114e-09
3.10479e-09 9.59345e-09 -1.50512e-08
7.57329e-09 1.20088e-08 -3.88236e-09
-4.12064e-09 -9.48235e-09 -2.92779e-09
2.40517e-09 4.2313e-09 -4.13822e-09
-5.39713e-09 9.5576e-09 -1.92004e-08
-5.99494e-10 -8.70158e-09 1.17529e-09
1.29414e-09 3.45807e-09 -5.26719e-09
-2.88844e-09 -7.14381e-10 4.29207e-09
3.06908e-10 -2.21241e-09 2.67998e-09
-4.79644e-09 7.08921e-09 -9.7664e-09
-3.87774e-08 -6.8825e-08 1.08831e-07
2.30271e-09 -9.45103e-10 4.56102e-10
2.72264e-09 -2.11117e-09 4.36916e-09
-1.33897e-11 2.12442e-11 -3.47013e-12
1.75999e-08 1.72548e-09 2.67968e-09
-4.37415e-09 4.43386e-09 3.77488e-10
2.7005e-09 2.73484e-09 -6.13878e-09
2.16472e-09 1.25766e-10 -3.42208e-11
-3.22762e-09 -4.93256e-09 1.46205e-09
4.44651e-09 -1.93154e-09 -1.34751e-09
1.87675e-09 -5.18375e-09 1.08363e-09
-1.4811e-09 2.16189e-09 6.09899e-10
-2.25701e-09 1.57687e-09 1.32608e-09
-3.37217e-10 -3.25293e-09 1.03347e-09
1.83893e-09 -4.94927e-09 1.23189e-11
2.32547e-09 2.7627e-09 -2.3798e-09
-3.55658e-08 -4.21038e-08 1.73185e-08
4.05343e-09 3.96292e-08 -5.4757e-08
-7.44136e-10 5.41039e-09 -6.70535e-09
-5.74045e-10 -9.34678e-10 3.36336e-09
3.13368e-09 -4.06383e-09 -8.01527e-10
6.60193e-09 1.17977e-10 -6.85907e-10
-1.06402e-08 -5.92661e-09 1.07914e-08
-3.70753e-09 2.07243e-09 -1.18247e-09
-2.11499e-10 -6.23178e-09 2.92721e-10
1.55561e-08 -3.90139e-09 1.38294e-09
-2.19217e-09 -1.24556e-08 1.26445e-08
-1.70371e-09 -8.01898e-09 2.33514e-10
1.95275e-08 1.60065e-09 -3.35237e-09
-1.32418e-08 1.35123e-09 -4.16869e-09
1.84383e-08 3.82754e-09 2.80974e-09
8.07957e-09 -3.45498e-09 9.75725e-10
1.46128e-08 9.36566e-09 -4.34569e-09
2.8599e-09 -2.80877e-09 -1.50019e-10
-6.19623e-10 5.26155e-09 -4.14212e-09
3.76055e-09 -5.11381e-09 7.61851e-11
3.10227e-09 -2.77129e-09 3.43938e-09
3.90606e-09 -1.21095e-08 4.29712e-09
-4.06021e-09 -1.12287e-08 5.72678e-09
6.65843e-09 -1.13143e-10 7.55819e-10
2.62878e-09 1.5761e-08 -2.91796e-10
-3.75227e-09 -2.00789e-09 7.75835e-11
1.25719e-09 -2.36283e-09 1.42249e-09
-1.808e-09 1.22738e-09 2.23539e-10
5.5817e-08 -1.14538e-07 1.14923e-07
-3.62612e-09 -2.77693e-09 5.68585e-09
5.85756e-09 -1.59645e-09 1.59012e-09
9.34507e-09 6.01441e-09 -6.03506e-09
1.94143e-09 2.06408e-09 -1.63178e-09
6.69443e-09 -1.60704e-09 -3.68792e-09
-4.32144e-09 4.84972e-09 -1.39221e-09
5.44134e-09 7.76719e-09 -4.11828e-09
9.0609e-11 -1.71766e-09 9.28877e-10
7.8575e-10 3.07327e-10 9.62928e-11
-2.89236e-09 3.21873e-09 -2.32961e-09
-3.68225e-09 2.47555e-09 4.73668e-09
-4.51204e-09 -1.88009e-10 4.69498e-10
-9.20764e-09 -7.86483e-09 9.28705e-09
5.05631e-09 -1.90152e-09 -3.95866e-09
