# vtk DataFile Version 3.0
LIGGGHTS particles timestep 2800000
ASCII
DATASET POLYDATA
POINTS 297 float
0.0291143 0.0161927 0.00803823
0.0296508 0.0184298 0.00707359
0.02379 0.0190681 0.00713911
0.0307292 0.0185024 0.00700588
0.0292212 0.0166029 0.00769778
0.0350094 0.0158095 0.00840738
0.0239149 0.0172275 0.00734212
0.0297159 0.016324 0.00792183
0.0356295 0.0183445 0.00711539
0.029644 0.0170689 0.00742458
0.0306092 0.0172768 0.00735941
0.0230316 0.015855 0.00827027
0.0292943 0.0168761 0.00747093
0.0231979 0.015539 0.00864942
0.029588 0.0181482 0.00715572
0.0228526 0.015319 0.00896991
0.0293593 0.0171602 0.00739987
0.0356055 0.0170784 0.0075206
0.0294124 0.0162515 0.0079979
0.0303362 0.0168338 0.00748786
0.0294815 0.0164686 0.00780282
0.0297492 0.0165706 0.00771366
0.0297149 0.0187203 0.00703552
0.035248 0.016731 0.00770399
0.0297595 0.016824 0.00755354
0.0353121 0.0169915 0.00756971
0.030593 0.0193439 0.00709317
0.035441 0.0175123 0.00730123
0.0356703 0.0173387 0.0073864
0.0298733 0.0182337 0.00711912
0.0300371 0.0174319 0.00734007
0.0300414 0.016887 0.0074718
0.0237219 0.0183728 0.00741426
0.0303984 0.0176776 0.00725455
0.0356857 0.0186292 0.00719138
0.0297097 0.0173542 0.00735921
0.0294918 0.016699 0.00761108
0.0354773 0.0165573 0.0077892
0.0306055 0.0181649 0.00710713
0.0292206 0.0156075 0.00859592
0.0300491 0.0179995 0.00718389
0.0294894 0.0177311 0.00726899
0.0308939 0.0177503 0.00721253
0.0350666 0.0159896 0.00817435
0.035125 0.0162173 0.00798797
0.0293429 0.0160322 0.00819051
0.0302808 0.0166117 0.00768176
0.0238868 0.0182955 0.00717592
0.0308765 0.0180386 0.0071314
0.0306727 0.0175581 0.00727669
0.0238474 0.01697 0.00748051
0.0354136 0.0162967 0.00792351
0.0299836 0.016428 0.00783505
0.0233747 0.0161733 0.00804653
0.0245828 0.0190603 0.00704941
0.0353761 0.017252 0.00743543
0.0311453 0.0179077 0.00715696
0.0355414 0.0168179 0.00765488
0.0302769 0.0163925 0.00788655
0.0292741 0.0158198 0.00839084
0.0301006 0.0177135 0.00725853
0.0305025 0.0186973 0.00696028
0.0351843 0.0164704 0.0078383
0.0297634 0.0179146 0.00722361
0.0237847 0.0167283 0.00765246
0.0303349 0.0173963 0.00733724
0.0298145 0.0176281 0.00729611
0.0299322 0.0171588 0.00740735
0.0355731 0.0180519 0.00708057
0.022788 0.0151552 0.00921276
0.030446 0.018411 0.00704406
0.0302296 0.0171216 0.00741969
0.0355042 0.017773 0.00716688
0.0294244 0.0174457 0.00733441
0.0307925 0.018794 0.00703703
0.0299348 0.0193469 0.00730535
0.0313283 0.0190554 0.00708542
0.0234657 0.0176201 0.00727952
0.030006 0.0167253 0.00772202
0.0236932 0.0174276 0.00731388
0.0238222 0.018006 0.00722062
0.0357951 0.0166738 0.00772458
0.0237237 0.0187781 0.00710006
0.0309601 0.0183149 0.00704983
0.0305984 0.0167223 0.00758163
0.0301189 0.0193868 0.00706886
0.0297895 0.0166601 0.00799711
0.0239516 0.0185858 0.00713708
0.0305988 0.0169897 0.00744577
0.0298287 0.0192944 0.00702969
0.0303418 0.0191876 0.00704363
0.0297698 0.0190071 0.00696671
0.0353553 0.0160568 0.00809389
0.0237225 0.0164885 0.00782165
0.0300534 0.0190972 0.00700497
0.0236258 0.0171359 0.00736458
0.0298982 0.0160039 0.00824648
0.028931 0.0155281 0.00865726
0.0226598 0.0149138 0.00974125
0.0235945 0.0181991 0.00718945
0.0241364 0.017042 0.00742794
0.0229134 0.015487 0.00872893
0.024619 0.017989 0.00722724
0.0232111 0.0165754 0.00776325
0.0288057 0.0153029 0.00919838
0.0251374 0.0182698 0.00717757
0.0299907 0.0188047 0.00695181
0.0308357 0.019115 0.00706322
0.0256854 0.0187062 0.00707944
0.0253985 0.0181233 0.00719676
0.0234011 0.0173316 0.00733039
0.0240133 0.0188749 0.00708645
0.0305429 0.0165102 0.00778639
0.0289917 0.0157452 0.00845925
0.0241087 0.0180962 0.00720802
0.0302634 0.0161782 0.00809594
0.02997 0.0162136 0.00804444
0.0290542 0.0159646 0.00823641
0.031065 0.0189193 0.00703917
0.0229741 0.0156764 0.00850435
0.0310108 0.0185996 0.00696989
0.0296469 0.0161135 0.0081242
0.0242676 0.017609 0.00728493
0.0287406 0.0151977 0.00947165
0.030282 0.0188974 0.00699668
0.0232737 0.0168148 0.00759365
0.0303473 0.0180214 0.00715906
0.0235628 0.0168934 0.00753639
0.0302203 0.0186039 0.00700116
0.0295722 0.0158987 0.00833051
0.0301584 0.0183214 0.00708192
0.0286763 0.0150739 0.00973727
0.0230901 0.0161047 0.00811475
0.0298902 0.0195752 0.00711581
0.0305664 0.0189904 0.0070189
0.0242024 0.0173221 0.00734328
0.0306132 0.0178763 0.00718881
0.0234363 0.0164129 0.00787681
0.0240441 0.0178067 0.00725272
0.0240847 0.0167239 0.0076531
0.0244885 0.0174085 0.00731685
0.02887 0.0154032 0.00892306
0.0231496 0.0163358 0.00793297
0.0248437 0.0177928 0.00725888
0.0257404 0.018131 0.00718477
0.0236575 0.016004 0.00816472
0.0299354 0.0185168 0.00703638
0.0233359 0.0170542 0.00742401
0.0291604 0.0154575 0.00884862
0.0247245 0.0172113 0.00734867
0.0175105 0.0177973 0.00718369
0.0237575 0.0177173 0.00727004
0.0245221 0.0187686 0.00710375
0.02353 0.0179096 0.00723416
0.0239575 0.0160019 0.00816871
0.0240753 0.0191683 0.00707765
0.0256207 0.018402 0.00713803
0.023499 0.0166525 0.00770706
0.0295262 0.0165109 0.00809642
0.0308257 0.0195255 0.00714662
0.0249056 0.0180829 0.00721408
0.0298273 0.0157934 0.00844823
0.023287 0.0157303 0.00836619
0.0251653 0.0179348 0.0072384
0.0295201 0.0167543 0.00790458
0.0241269 0.0194502 0.00698912
0.0293148 0.0161653 0.00845793
0.0243322 0.0178985 0.00723988
0.0239619 0.0162447 0.00799259
0.0238945 0.0196282 0.00705434
0.0255765 0.0178849 0.00723561
0.0253454 0.0176979 0.00727614
0.0256162 0.0190208 0.00702304
0.0247491 0.0185747 0.00713283
0.0191825 0.0196651 0.00702613
0.0301916 0.0159681 0.00829775
0.0256237 0.0175865 0.00728969
0.0295028 0.0156879 0.00853323
0.0245543 0.0176993 0.00727196
0.0239792 0.0175173 0.00729768
0.0292891 0.016891 0.0077705
0.0305389 0.0162959 0.00799626
0.0233149 0.0160211 0.00829802
0.0311002 0.0192488 0.0071091
0.0243352 0.016858 0.00755684
0.0292746 0.0163659 0.00823857
0.0243115 0.0163794 0.00789742
0.0225311 0.0147647 0.010308
0.0225949 0.0148377 0.0100241
0.0286103 0.0149502 0.0100025
0.0182336 0.0202831 0.0072099
0.024299 0.0189685 0.00708145
0.0243968 0.018188 0.00719519
0.0252821 0.0190845 0.0070215
0.0242367 0.0186773 0.0071183
0.0294493 0.0154756 0.0087383
0.0246438 0.0169543 0.00748693
0.017446 0.0175373 0.00731881
0.0241741 0.0183863 0.00716324
0.0240225 0.0164845 0.00782275
0.0250649 0.0175927 0.00729109
0.023659 0.0184886 0.00714475
0.0290916 0.0153318 0.00911221
0.0253468 0.0185235 0.00712389
0.0239587 0.0199044 0.00715383
0.0297582 0.015583 0.00865057
0.0248075 0.0188636 0.00707726
0.024423 0.0171207 0.00737062
0.0243553 0.0192578 0.00701787
0.0290271 0.0152179 0.00938215
0.02988 0.0190423 0.00724352
0.0244593 0.0184787 0.00715029
0.0178055 0.0178899 0.00712869
0.0292043 0.0164697 0.00796603
0.0175754 0.0180819 0.00711474
0.0247788 0.0175029 0.00730363
0.029392 0.0153437 0.00900162
0.0250154 0.0173003 0.00733631
0.022723 0.0149994 0.00946079
0.0236619 0.0162488 0.00799147
0.024682 0.0182803 0.00718226
0.0238355 0.0193368 0.00701375
0.0185271 0.0202211 0.00720488
0.0242446 0.0161422 0.00806847
0.0289112 0.0156945 0.00898296
0.0248527 0.0191868 0.00701572
0.0253276 0.0195395 0.00695726
0.0181612 0.0196262 0.00706002
0.017317 0.0170174 0.00758903
0.0181643 0.0208053 0.00741472
0.0178175 0.0192354 0.00704788
0.0179363 0.0198216 0.00709511
0.0176372 0.0183557 0.00700894
0.0176967 0.0186497 0.00700082
0.0183866 0.0206065 0.00735002
0.0179819 0.0187466 0.00699306
0.0290436 0.0160544 0.00852245
0.0245483 0.0162315 0.00800708
0.0173815 0.0172774 0.00745392
0.0242435 0.0159028 0.00824924
0.0249501 0.0167712 0.00761458
0.0172344 0.0239295 0.0119898
0.0180846 0.0191027 0.00701567
0.0251153 0.0200745 0.00714439
0.019088 0.0199315 0.00712662
0.0251144 0.0193324 0.00699767
0.0254948 0.0192912 0.00697653
0.0182219 0.0199191 0.00708351
0.0305253 0.0160815 0.00820565
0.025675 0.0195305 0.00696167
0.0246268 0.0197277 0.00701603
0.0188136 0.0198264 0.00706589
0.0248775 0.019543 0.00694868
0.02462 0.016465 0.00783294
0.0240236 0.0201508 0.0073123
0.0231379 0.0153747 0.00889315
0.0193003 0.0193036 0.00694608
0.0245385 0.0200002 0.0071051
0.0237635 0.0155444 0.00865155
0.0241671 0.019747 0.00700621
0.0179227 0.0184526 0.0069915
0.0240883 0.0203922 0.00747824
0.0250481 0.0185518 0.00712784
0.0187519 0.0195385 0.00700845
0.0255061 0.0197652 0.00704208
0.0252204 0.0170878 0.00738917
0.01852 0.0198877 0.00707065
0.0178777 0.0195284 0.00707142
0.0238618 0.0156971 0.00841274
0.0184587 0.0195961 0.00703539
0.0182294 0.0210755 0.00752757
0.0251069 0.018846 0.00707128
0.0195915 0.0192361 0.00692143
0.0246267 0.0193828 0.00698624
0.0241606 0.0156816 0.0084341
0.0242436 0.0199984 0.00716
0.0182107 0.0185528 0.00698513
0.0236865 0.017158 0.00765753
0.025405 0.0188125 0.00706832
0.0234805 0.015598 0.00856786
0.0249339 0.0170158 0.00744173
0.0249032 0.0198376 0.00705483
0.0234263 0.0154331 0.00881257
0.0252002 0.019796 0.00704641
0.02466 0.0167097 0.00765979
0.0179984 0.0201122 0.00713586
0.0259731 0.0194973 0.0069563
0.0289664 0.0158566 0.00873663
0.0243951 0.0195484 0.00708082
0.0180992 0.020535 0.00730187
0.0190236 0.0194154 0.00697683
0.028834 0.015596 0.00925561
0.0243831 0.0166161 0.00772768
0.0235813 0.0157898 0.00836043
0.0257961 0.0192557 0.00697377
0.0177569 0.0189426 0.00702437
0.0182608 0.0193453 0.00702593

VERTICES 297 594
1 0
1 1
1 2
1 3
1 4
1 5
1 6
1 7
1 8
1 9
1 10
1 11
1 12
1 13
1 14
1 15
1 16
1 17
1 18
1 19
1 20
1 21
1 22
1 23
1 24
1 25
1 26
1 27
1 28
1 29
1 30
1 31
1 32
1 33
1 34
1 35
1 36
1 37
1 38
1 39
1 40
1 41
1 42
1 43
1 44
1 45
1 46
1 47
1 48
1 49
1 50
1 51
1 52
1 53
1 54
1 55
1 56
1 57
1 58
1 59
1 60
1 61
1 62
1 63
1 64
1 65
1 66
1 67
1 68
1 69
1 70
1 71
1 72
1 73
1 74
1 75
1 76
1 77
1 78
1 79
1 80
1 81
1 82
1 83
1 84
1 85
1 86
1 87
1 88
1 89
1 90
1 91
1 92
1 93
1 94
1 95
1 96
1 97
1 98
1 99
1 100
1 101
1 102
1 103
1 104
1 105
1 106
1 107
1 108
1 109
1 110
1 111
1 112
1 113
1 114
1 115
1 116
1 117
1 118
1 119
1 120
1 121
1 122
1 123
1 124
1 125
1 126
1 127
1 128
1 129
1 130
1 131
1 132
1 133
1 134
1 135
1 136
1 137
1 138
1 139
1 140
1 141
1 142
1 143
1 144
1 145
1 146
1 147
1 148
1 149
1 150
1 151
1 152
1 153
1 154
1 155
1 156
1 157
1 158
1 159
1 160
1 161
1 162
1 163
1 164
1 165
1 166
1 167
1 168
1 169
1 170
1 171
1 172
1 173
1 174
1 175
1 176
1 177
1 178
1 179
1 180
1 181
1 182
1 183
1 184
1 185
1 186
1 187
1 188
1 189
1 190
1 191
1 192
1 193
1 194
1 195
1 196
1 197
1 198
1 199
1 200
1 201
1 202
1 203
1 204
1 205
1 206
1 207
1 208
1 209
1 210
1 211
1 212
1 213
1 214
1 215
1 216
1 217
1 218
1 219
1 220
1 221
1 222
1 223
1 224
1 225
1 226
1 227
1 228
1 229
1 230
1 231
1 232
1 233
1 234
1 235
1 236
1 237
1 238
1 239
1 240
1 241
1 242
1 243
1 244
1 245
1 246
1 247
1 248
1 249
1 250
1 251
1 252
1 253
1 254
1 255
1 256
1 257
1 258
1 259
1 260
1 261
1 262
1 263
1 264
1 265
1 266
1 267
1 268
1 269
1 270
1 271
1 272
1 273
1 274
1 275
1 276
1 277
1 278
1 279
1 280
1 281
1 282
1 283
1 284
1 285
1 286
1 287
1 288
1 289
1 290
1 291
1 292
1 293
1 294
1 295
1 296

POINT_DATA 297
SCALARS id int 1
LOOKUP_TABLE default
1
2
3
4
5
6
7
8
9
10
11
12
13
14
15
16
17
18
19
20
21
22
23
24
25
26
27
28
29
30
31
32
33
34
35
36
37
38
39
40
41
42
43
44
45
46
47
48
49
50
51
52
53
54
55
56
57
58
59
60
61
62
63
64
65
66
67
68
69
70
71
72
73
74
75
76
77
78
80
81
82
83
84
85
86
87
88
89
90
91
92
93
94
95
96
97
98
99
100
101
102
103
104
105
106
107
108
109
110
111
112
113
114
115
116
117
118
119
120
121
122
123
124
125
126
127
128
129
130
131
132
133
134
135
136
137
138
139
140
141
142
143
144
145
146
147
148
149
150
151
152
153
154
155
156
157
158
159
160
161
162
163
164
165
167
168
169
170
171
172
173
174
175
176
177
178
179
180
181
182
183
185
186
187
188
189
190
191
192
193
194
195
196
197
198
199
200
201
202
203
204
205
206
207
208
209
210
211
212
213
214
215
216
217
218
219
220
221
222
223
224
225
226
227
228
229
230
231
232
233
234
235
236
237
238
239
240
241
242
243
244
245
246
247
248
249
250
251
252
253
254
255
256
257
258
259
260
261
262
263
264
265
266
267
268
269
270
271
272
273
274
275
276
277
278
279
280
281
282
283
284
285
286
287
288
289
290
291
292
293
294
295
296
297
298
299
300

SCALARS type int 1
LOOKUP_TABLE default
1
1
1
1
1
1
1
1
1
1
1
1
1
1
1
1
1
1
1
1
1
1
1
1
1
1
1
1
1
1
1
1
1
1
1
1
1
1
1
1
1
1
1
1
1
1
1
1
1
1
1
1
1
1
1
1
1
1
1
1
1
1
1
1
1
1
1
1
1
1
1
1
1
1
1
1
1
1
1
1
1
1
1
1
1
1
1
1
1
1
1
1
1
1
1
1
1
1
1
1
1
1
1
1
1
1
1
1
1
1
1
1
1
1
1
1
1
1
1
1
1
1
1
1
1
1
1
1
1
1
1
1
1
1
1
1
1
1
1
1
1
1
1
1
1
1
1
1
1
1
1
1
1
1
1
1
1
1
1
1
1
1
1
1
1
1
1
1
1
1
1
1
1
1
1
1
1
1
1
1
1
1
1
1
1
1
1
1
1
1
1
1
1
1
1
1
1
1
1
1
1
1
1
1
1
1
1
1
1
1
1
1
1
1
1
1
1
1
1
1
1
1
1
1
1
1
1
1
1
1
1
1
1
1
1
1
1
1
1
1
1
1
1
1
1
1
1
1
1
1
1
1
1
1
1
1
1
1
1
1
1
1
1
1
1
1
1
1
1
1
1
1
1
1
1
1
1
1
1
1
1
1
1
1
1
1
1
1
1
1
1
1
1
1
1
1
1

SCALARS radius float 1
LOOKUP_TABLE default
0.00015
0.00015
0.00015
0.00015
0.00015
0.00015
0.00015
0.00015
0.00015
0.00015
0.00015
0.00015
0.00015
0.00015
0.00015
0.00015
0.00015
0.00015
0.00015
0.00015
0.00015
0.00015
0.00015
0.00015
0.00015
0.00015
0.00015
0.00015
0.00015
0.00015
0.00015
0.00015
0.00015
0.00015
0.00015
0.00015
0.00015
0.00015
0.00015
0.00015
0.00015
0.00015
0.00015
0.00015
0.00015
0.00015
0.00015
0.00015
0.00015
0.00015
0.00015
0.00015
0.00015
0.00015
0.00015
0.00015
0.00015
0.00015
0.00015
0.00015
0.00015
0.00015
0.00015
0.00015
0.00015
0.00015
0.00015
0.00015
0.00015
0.00015
0.00015
0.00015
0.00015
0.00015
0.00015
0.00015
0.00015
0.00015
0.00015
0.00015
0.00015
0.00015
0.00015
0.00015
0.00015
0.00015
0.00015
0.00015
0.00015
0.00015
0.00015
0.00015
0.00015
0.00015
0.00015
0.00015
0.00015
0.00015
0.00015
0.00015
0.00015
0.00015
0.00015
0.00015
0.00015
0.00015
0.00015
0.00015
0.00015
0.00015
0.00015
0.00015
0.00015
0.00015
0.00015
0.00015
0.00015
0.00015
0.00015
0.00015
0.00015
0.00015
0.00015
0.00015
0.00015
0.00015
0.00015
0.00015
0.00015
0.00015
0.00015
0.00015
0.00015
0.00015
0.00015
0.00015
0.00015
0.00015
0.00015
0.00015
0.00015
0.00015
0.00015
0.00015
0.00015
0.00015
0.00015
0.00015
0.00015
0.00015
0.00015
0.00015
0.00015
0.00015
0.00015
0.00015
0.00015
0.00015
0.00015
0.00015
0.00015
0.00015
0.00015
0.00015
0.00015
0.00015
0.00015
0.00015
0.00015
0.00015
0.00015
0.00015
0.00015
0.00015
0.00015
0.00015
0.00015
0.00015
0.00015
0.00015
0.00015
0.00015
0.00015
0.00015
0.00015
0.00015
0.00015
0.00015
0.00015
0.00015
0.00015
0.00015
0.00015
0.00015
0.00015
0.00015
0.00015
0.00015
0.00015
0.00015
0.00015
0.00015
0.00015
0.00015
0.00015
0.00015
0.00015
0.00015
0.00015
0.00015
0.00015
0.00015
0.00015
0.00015
0.00015
0.00015
0.00015
0.00015
0.00015
0.00015
0.00015
0.00015
0.00015
0.00015
0.00015
0.00015
0.00015
0.00015
0.00015
0.00015
0.00015
0.00015
0.00015
0.00015
0.00015
0.00015
0.00015
0.00015
0.00015
0.00015
0.00015
0.00015
0.00015
0.00015
0.00015
0.00015
0.00015
0.00015
0.00015
0.00015
0.00015
0.00015
0.00015
0.00015
0.00015
0.00015
0.00015
0.00015
0.00015
0.00015
0.00015
0.00015
0.00015
0.00015
0.00015
0.00015
0.00015
0.00015
0.00015
0.00015
0.00015
0.00015
0.00015
0.00015
0.00015
0.00015
0.00015
0.00015
0.00015
0.00015
0.00015
0.00015
0.00015
0.00015
0.00015
0.00015
0.00015
0.00015
0.00015
0.00015
0.00015
0.00015
0.00015
0.00015
0.00015
0.00015
0.00015

SCALARS mass float 1
LOOKUP_TABLE default
3.95841e-09
3.95841e-09
3.95841e-09
3.95841e-09
3.95841e-09
3.95841e-09
3.95841e-09
3.95841e-09
3.95841e-09
3.95841e-09
3.95841e-09
3.95841e-09
3.95841e-09
3.95841e-09
3.95841e-09
3.95841e-09
3.95841e-09
3.95841e-09
3.95841e-09
3.95841e-09
3.95841e-09
3.95841e-09
3.95841e-09
3.95841e-09
3.95841e-09
3.95841e-09
3.95841e-09
3.95841e-09
3.95841e-09
3.95841e-09
3.95841e-09
3.95841e-09
3.95841e-09
3.95841e-09
3.95841e-09
3.95841e-09
3.95841e-09
3.95841e-09
3.95841e-09
3.95841e-09
3.95841e-09
3.95841e-09
3.95841e-09
3.95841e-09
3.95841e-09
3.95841e-09
3.95841e-09
3.95841e-09
3.95841e-09
3.95841e-09
3.95841e-09
3.95841e-09
3.95841e-09
3.95841e-09
3.95841e-09
3.95841e-09
3.95841e-09
3.95841e-09
3.95841e-09
3.95841e-09
3.95841e-09
3.95841e-09
3.95841e-09
3.95841e-09
3.95841e-09
3.95841e-09
3.95841e-09
3.95841e-09
3.95841e-09
3.95841e-09
3.95841e-09
3.95841e-09
3.95841e-09
3.95841e-09
3.95841e-09
3.95841e-09
3.95841e-09
3.95841e-09
3.95841e-09
3.95841e-09
3.95841e-09
3.95841e-09
3.95841e-09
3.95841e-09
3.95841e-09
3.95841e-09
3.95841e-09
3.95841e-09
3.95841e-09
3.95841e-09
3.95841e-09
3.95841e-09
3.95841e-09
3.95841e-09
3.95841e-09
3.95841e-09
3.95841e-09
3.95841e-09
3.95841e-09
3.95841e-09
3.95841e-09
3.95841e-09
3.95841e-09
3.95841e-09
3.95841e-09
3.95841e-09
3.95841e-09
3.95841e-09
3.95841e-09
3.95841e-09
3.95841e-09
3.95841e-09
3.95841e-09
3.95841e-09
3.95841e-09
3.95841e-09
3.95841e-09
3.95841e-09
3.95841e-09
3.95841e-09
3.95841e-09
3.95841e-09
3.95841e-09
3.95841e-09
3.95841e-09
3.95841e-09
3.95841e-09
3.95841e-09
3.95841e-09
3.95841e-09
3.95841e-09
3.95841e-09
3.95841e-09
3.95841e-09
3.95841e-09
3.95841e-09
3.95841e-09
3.95841e-09
3.95841e-09
3.95841e-09
3.95841e-09
3.95841e-09
3.95841e-09
3.95841e-09
3.95841e-09
3.95841e-09
3.95841e-09
3.95841e-09
3.95841e-09
3.95841e-09
3.95841e-09
3.95841e-09
3.95841e-09
3.95841e-09
3.95841e-09
3.95841e-09
3.95841e-09
3.95841e-09
3.95841e-09
3.95841e-09
3.95841e-09
3.95841e-09
3.95841e-09
3.95841e-09
3.95841e-09
3.95841e-09
3.95841e-09
3.95841e-09
3.95841e-09
3.95841e-09
3.95841e-09
3.95841e-09
3.95841e-09
3.95841e-09
3.95841e-09
3.95841e-09
3.95841e-09
3.95841e-09
3.95841e-09
3.95841e-09
3.95841e-09
3.95841e-09
3.95841e-09
3.95841e-09
3.95841e-09
3.95841e-09
3.95841e-09
3.95841e-09
3.95841e-09
3.95841e-09
3.95841e-09
3.95841e-09
3.95841e-09
3.95841e-09
3.95841e-09
3.95841e-09
3.95841e-09
3.95841e-09
3.95841e-09
3.95841e-09
3.95841e-09
3.95841e-09
3.95841e-09
3.95841e-09
3.95841e-09
3.95841e-09
3.95841e-09
3.95841e-09
3.95841e-09
3.95841e-09
3.95841e-09
3.95841e-09
3.95841e-09
3.95841e-09
3.95841e-09
3.95841e-09
3.95841e-09
3.95841e-09
3.95841e-09
3.95841e-09
3.95841e-09
3.95841e-09
3.95841e-09
3.95841e-09
3.95841e-09
3.95841e-09
3.95841e-09
3.95841e-09
3.95841e-09
3.95841e-09
3.95841e-09
3.95841e-09
3.95841e-09
3.95841e-09
3.95841e-09
3.95841e-09
3.95841e-09
3.95841e-09
3.95841e-09
3.95841e-09
3.95841e-09
3.95841e-09
3.95841e-09
3.95841e-09
3.95841e-09
3.95841e-09
3.95841e-09
3.95841e-09
3.95841e-09
3.95841e-09
3.95841e-09
3.95841e-09
3.95841e-09
3.95841e-09
3.95841e-09
3.95841e-09
3.95841e-09
3.95841e-09
3.95841e-09
3.95841e-09
3.95841e-09
3.95841e-09
3.95841e-09
3.95841e-09
3.95841e-09
3.95841e-09
3.95841e-09
3.95841e-09
3.95841e-09
3.95841e-09
3.95841e-09
3.95841e-09
3.95841e-09
3.95841e-09
3.95841e-09
3.95841e-09
3.95841e-09
3.95841e-09
3.95841e-09
3.95841e-09
3.95841e-09
3.95841e-09
3.95841e-09
3.95841e-09
3.95841e-09
3.95841e-09
3.95841e-09
3.95841e-09
3.95841e-09
3.95841e-09
3.95841e-09
3.95841e-09
3.95841e-09
3.95841e-09
3.95841e-09
3.95841e-09
3.95841e-09

VECTORS velocity float
0.00546617 -9.06388e-05 -8.23077e-05
0.00588389 -0.000767423 -0.000106688
0.00596588 -0.000845705 0.000144489
0.00589057 -0.000374183 -0.000147807
0.00583566 -0.000263887 5.76881e-05
0.00586116 0.000442712 -0.000361954
0.00534185 -0.000118802 9.57357e-07
0.00555896 -1.6442e-05 0.000357609
0.00605604 0.000345926 0.000195156
0.00601485 -0.000863195 0.000258475
0.00609405 -0.00058786 -0.000123109
0.00529557 -0.000758787 0.000210605
0.00464032 -0.000742717 0.000506972
0.00522189 -0.000371166 0.000606879
0.0059268 -0.000801435 -3.99889e-05
0.00575622 -0.000463199 0.00076543
0.00590538 -0.00100706 0.000230498
0.0060935 0.000323018 -0.00026184
0.00545064 -0.000178483 2.82095e-05
0.00603186 -0.000708663 0.000244413
0.00560071 -0.000258031 -0.000117626
0.00603517 -0.000735704 0.000525576
0.00583226 -0.000729436 -1.77369e-05
0.00593845 0.000408184 -0.000300625
0.00610185 -0.000938295 0.000140822
0.00604403 0.00039252 -0.000295551
0.00534151 -2.06185e-05 0.000367906
0.00606696 0.000347063 -0.000280965
0.00610508 0.000347493 -0.000268442
0.0059117 -0.000783703 -4.00673e-05
0.00602474 -0.000829548 -3.13493e-05
0.00601169 -0.000920494 0.000308616
0.00569175 -0.000888278 0.000145737
0.00594185 -0.000657741 -7.80765e-05
0.00584139 0.000388299 0.000200154
0.00597242 -0.000827996 0.000262484
0.00572086 -0.000132567 -8.1534e-05
0.00585854 0.000331654 -0.000260738
0.00598763 -0.0005648 -9.97374e-05
0.00571904 -7.80364e-05 0.000409139
0.00589104 -0.000843326 -6.66413e-05
0.00580137 -0.000949063 0.000292101
0.00605366 -0.000549151 -0.00010553
0.00555364 0.000242814 -0.000561454
0.00560116 0.000423877 -0.000341324
0.00559041 -7.74939e-05 0.000297368
0.00609487 -0.000571496 0.000340509
0.00567849 -0.00081389 0.000161109
0.00601892 -0.000540638 -0.000148223
0.0060051 -0.000535247 -0.000103961
0.00580476 -0.000146811 8.04984e-05
0.00560765 0.000396005 -0.000291838
0.00595062 -0.000598776 0.000908752
0.00545516 -0.000607157 0.000385897
0.00492344 -0.000849535 -0.000138992
0.00609211 0.000360606 -0.00028415
0.00607906 -0.000435222 -0.000138167
0.0060337 0.000307241 -0.00025195
0.00604848 -0.000298765 0.000639896
0.00563055 -5.57275e-05 0.000386411
0.00592393 -0.000858158 -0.00016625
0.00581368 -0.000442764 -0.000129347
0.00571389 0.000447785 -0.000297856
0.00596619 -0.000826445 -2.86948e-05
0.00617082 -0.000682745 0.000417408
0.00602972 -0.000694188 -7.44301e-05
0.00600368 -0.000847017 3.56518e-05
0.00592405 -0.000933359 0.000290852
0.00622166 0.000353907 -0.000248974
0.00594661 -0.000436875 0.000825573
0.00596355 -0.000566939 -8.90152e-05
0.00602271 -0.000320073 2.58861e-05
0.00623773 0.000335305 -0.000262309
0.00582907 -0.000969183 0.000299389
0.00579692 -0.000407096 0.000317273
0.00770808 -0.000895977 -0.000591165
0.00567947 -0.000141482 0.000367474
0.00582935 -0.000902845 0.000231787
0.0060341 -0.000687911 0.000489115
0.00549806 -0.0012399 -0.00876003
0.00561092 -0.000870381 0.000172932
0.0060303 0.000237923 -0.000217862
0.00589073 -0.000788407 0.000158875
0.00594346 -0.000512219 -0.000180177
0.00603382 -0.000320815 0.000679826
0.00560241 -0.000542168 0.000282952
0.00591794 8.72096e-05 0.000226815
0.00572981 -0.000781993 0.000140725
0.00619024 -0.000534682 0.000184215
0.00532768 -0.000540915 0.000259609
0.00566745 -0.000515944 0.000295217
0.00547152 -0.000577279 0.000267357
0.00556801 0.000395611 -0.000326707
0.00599055 -0.000596981 0.000392545
0.00542633 -0.000428756 0.000292401
0.00581458 -0.000672573 0.000390597
0.00565195 -0.000599573 0.000895939
0.00572418 -0.000151512 0.00048052
0.00594216 -0.000305204 0.000904715
0.00568074 -0.00090013 0.000118692
0.0053249 -0.000901056 0.000610806
0.0052785 -0.000452532 0.000629114
0.0055638 -0.000835988 0.000165893
0.00571513 -0.000612067 0.000411138
0.00585324 -5.43855e-05 0.000562062
0.00525024 -0.000679239 -2.07731e-05
0.0056399 -0.000363699 -0.000139463
0.00567758 -0.000336114 0.000327015
0.00479608 5.78157e-05 -0.000158519
0.00520819 -0.000543611 -5.64204e-05
0.00587071 -0.000808602 0.000454758
0.00577795 -0.000831196 0.0001468
0.00604944 -0.000347271 0.000672719
0.00565297 -0.000138339 0.000455171
0.00554217 -0.000930491 0.000201124
0.00597533 -0.00030736 0.00063748
0.00586156 -0.000622296 0.000921611
0.00543354 0.000299875 -8.02765e-06
0.00575302 -0.000291297 0.000342624
0.00530527 -0.000515434 0.000537593
0.00589239 -0.000337151 0.000347352
0.00540677 -2.04557e-05 0.000339025
0.00539856 -0.000963079 0.000232448
0.00580128 6.14775e-05 0.000621485
0.00574506 -0.00053923 0.000176608
0.00587811 -0.000726216 0.000473173
0.00583418 -0.000181369 -0.000203932
0.00599461 -0.000785629 0.000496183
0.00590176 -0.000601772 -1.36285e-05
0.00562805 -3.11861e-05 0.000366173
0.00597952 -0.000700147 -6.90828e-05
0.00580856 3.42959e-05 0.000629068
0.0053902 -0.000683635 0.000194596
0.00552676 -0.000585659 0.000284328
0.00573064 -0.000459101 0.000313049
0.00551766 -0.000983321 0.000352446
0.00583384 -0.000562685 -9.28635e-05
0.00567696 -0.000639043 0.000433764
0.00551908 -0.000929476 0.000176259
0.00617637 -0.000507439 0.000318847
0.00546874 -0.000480998 9.44419e-05
0.00589434 -0.000186425 0.000515632
0.0056114 -0.000548498 0.000368085
0.00554025 -0.00091542 0.000178067
0.00471838 -0.000334743 -8.26655e-05
0.00477813 -0.000471609 0.000320669
0.00591215 -0.000731653 -8.09717e-05
0.00591672 -0.000784899 0.00052833
0.00578586 -0.000254922 0.000333002
0.000320546 -0.000101056 0.000615348
0.00516353 -0.00392351 0.00169189
0.0056429 -0.000934964 8.37924e-05
0.00551978 -0.000880721 6.31844e-06
0.00574157 -0.00096674 7.95661e-05
0.00459027 -0.000470091 0.000417239
0.00515364 -0.000751629 4.42691e-05
0.00526001 -0.000129203 -0.000138588
0.00599966 -0.000603771 0.000386695
0.0054123 -0.000205792 -8.58245e-05
0.0046508 0.000820241 0.000492014
0.00554899 -0.000956932 0.000173205
0.00539663 -0.000564744 0.000859102
0.00540233 -0.000301188 0.000538068
0.00554006 -0.00105142 0.00018002
0.00581297 -0.000368517 -7.93026e-05
0.00517898 -0.000786874 -2.81967e-05
0.00549067 7.7034e-05 0.000247672
0.00542459 -0.000874024 0.000221733
0.00539048 -0.00051817 0.000275062
0.0052641 -0.000758492 -0.000273798
0.00499929 -0.000644187 -5.13864e-05
0.00550605 -0.00112205 0.0001957
0.00451818 8.18392e-05 -0.00015702
0.00546981 -0.000739151 -2.23511e-05
0.0048936 -0.00337201 -0.00101784
0.00575342 -0.000276483 0.0006008
0.00547551 -0.00111498 4.11179e-05
0.00566584 -2.12459e-05 0.000346586
0.00538311 -0.000909455 0.000123349
0.00551579 -0.000996261 0.000229503
0.00521739 -0.000768145 0.000518711
0.00606529 -0.000327877 0.000664507
0.00480598 -0.000364236 0.000310681
0.0056137 -0.000204765 0.000349844
0.00599618 -0.00035905 0.000229922
0.00564904 -2.82949e-05 0.000134374
0.00476935 -0.000295276 0.000200044
0.00569923 -0.000282813 0.000890335
0.00582521 -0.000289025 0.000899708
0.0057695 4.10791e-05 0.00063234
0.00516071 -0.00429548 -0.00136485
0.00504117 -0.000751062 -7.57614e-05
0.00559895 -0.000798707 0.000159075
0.00448931 -0.000244464 -9.47466e-05
0.0056514 -0.000839432 0.000154495
0.00576193 -4.22402e-05 0.000352527
0.00586928 -0.000779852 0.000538211
0.00511748 -0.0039017 0.00169101
0.00572429 -0.000705446 0.000142398
0.00591543 -0.000529649 0.000326531
0.00552292 -0.00102622 0.000188954
0.00576944 -0.00081807 0.000153817
0.00579612 -0.000709796 0.000136564
0.00519655 -0.000467926 -7.42895e-05
0.00570717 -0.000476995 -0.000147155
0.00521783 -0.000541485 0.000829376
0.00489412 -0.00067809 -5.51385e-05
0.0058347 -0.000739153 0.000438527
0.00496153 -0.000651949 -3.95479e-05
0.00588482 -0.000432124 0.000309837
0.00546553 -0.000637717 0.000281025
0.0057038 -0.000785999 0.000149567
0.00534664 -0.00369951 0.00156669
0.00577758 -0.000192168 5.82839e-05
0.00511588 -0.00407549 0.00104737
0.00517212 -0.00120966 0.000231354
0.0057884 -0.000414523 0.000170219
0.0051832 -0.00103296 0.00020298
0.00598764 -0.00036051 0.000874896
0.00542057 -0.000489914 0.000338132
0.00563603 -0.000881221 0.000169258
0.00517966 -0.000907483 0.000118694
0.00513487 -0.00446004 -0.00144487
0.00413078 -0.00020377 0.000233378
0.00618882 -0.000113021 0.000497383
0.00477352 -0.000728495 -4.46672e-05
0.00426672 -3.70641e-05 8.25353e-05
0.00484825 -0.00453695 -0.000780605
0.00498486 -0.00387489 0.00168486
0.00499938 -0.00440929 -0.00143245
0.00451588 -0.00432642 -0.000741743
0.00492252 -0.00431598 -0.000764375
0.00501141 -0.00450591 -0.000142784
0.00479762 -0.0044571 -0.000751085
0.00502001 -0.00431586 -0.00140271
0.00478997 -0.00415318 -0.000723558
0.00528511 0.000392052 -7.40869e-05
0.00430652 -0.000762349 0.000688326
0.00503511 -0.0038859 0.00169125
0.00429126 -0.00025463 0.000285737
0.00531685 0.000640727 -0.00048164
0.00282434 -0.00112001 0.000433869
0.00441856 -0.00457337 -0.000757401
1.21117e-15 1.9736e-14 -5.50033e-14
0.00528039 -0.00321826 -0.000919142
0.00448832 -0.000297101 -9.25335e-05
0.00433328 1.3359e-05 -6.44175e-05
0.00509935 -0.00444345 -0.000773196
0.00596738 -0.000322781 0.000659277
0.00404353 0.00027009 0.000195163
0.00514384 -0.000642262 -8.4334e-05
0.00545506 -0.00381459 -0.00125585
0.00498712 -0.000530303 -4.03493e-05
0.00513993 -0.000954651 0.00064625
0.00567407 -0.000230387 -0.000588103
0.00539607 -0.00031444 0.000591928
0.00581975 -0.00295272 -0.000499931
0.00583929 -0.000384203 -2.01882e-05
0.00500242 -0.000298136 0.000419184
0.0055593 -0.000800102 -0.000132802
0.00493264 -0.00424707 0.000856899
0.00547418 -0.000369875 -0.000477913
0.00528506 -0.000733659 -2.85246e-05
0.00516706 -0.00393641 -0.000737187
0.00384672 0.000270684 0.000175681
0.00612584 -0.000264964 0.000186373
0.00521377 -0.00436138 -0.00103444
0.00473476 -0.00431594 -0.000761951
0.00483605 -0.000275656 0.000398082
0.00497195 -0.00436536 -0.000761973
0.00502799 -0.00444713 -0.00144082
0.00480806 -0.000496222 -5.19453e-05
0.00631772 -0.00127406 0.000435222
0.00518339 -0.000791768 6.07611e-06
0.00476439 -0.000316349 0.000430464
0.00571746 -0.000313568 -0.000367517
0.00536676 -0.00352565 0.000756772
0.00619882 -0.000536818 0.000203163
0.00476827 -0.000175645 -0.000113467
0.00507062 -0.000320135 0.000557578
0.00545671 0.000857403 -0.000628446
0.004959 -8.4606e-05 9.06256e-05
0.00540559 -0.000331416 0.000604327
0.00502319 0.00026411 0.000216699
0.00564782 -0.000710956 0.000474985
0.0050613 -0.00428351 -0.000971615
0.00408762 0.000431451 0.000245164
0.00609553 -9.94023e-05 0.000483626
0.00518975 -0.000759646 -1.68932e-05
0.00500557 -0.00435191 -0.00143095
0.00538252 -0.0037277 -0.000763057
0.00633199 -8.55629e-05 0.000544943
0.00560313 -0.000447389 0.000227194
0.00478172 -0.000343016 0.00046999
0.00329355 0.00107168 -0.000302962
0.00453737 -0.00438417 -0.00074276
0.00452304 -0.00471425 -0.000785959

VECTORS force float
1.75331e-09 5.76272e-09 -6.19398e-09
-1.29818e-10 2.13963e-09 -2.39225e-09
-1.5472e-08 -2.27773e-08 -5.62433e-09
-1.00947e-09 -1.58883e-09 1.25797e-09
2.04195e-09 3.68396e-10 -3.71961e-10
-3.39037e-09 -2.24357e-09 -7.29725e-10
-1.33739e-08 8.82001e-09 4.46606e-11
-6.11872e-09 8.71121e-09 -1.26138e-08
-9.72475e-10 -1.58856e-09 -1.09089e-09
-7.27725e-09 -6.10049e-09 -2.01182e-10
2.72786e-09 -4.94094e-09 -4.83842e-09
-3.6189e-09 6.96263e-10 -3.7763e-09
-6.42295e-09 -1.86878e-10 -1.55855e-09
-1.75625e-09 4.9145e-09 2.71983e-09
2.51727e-09 2.03422e-09 6.5493e-10
5.80341e-09 -3.14481e-10 -4.22561e-10
-3.74083e-09 -4.4616e-09 1.52015e-09
3.71619e-09 -2.71172e-09 7.78791e-10
-5.84517e-09 2.26355e-09 -1.30879e-08
-4.91036e-09 1.2641e-09 1.59741e-09
-3.30918e-09 3.05228e-09 -1.27508e-08
3.97005e-09 -6.44405e-09 -1.26802e-09
-3.20831e-09 2.22422e-09 1.98947e-09
-5.46238e-10 2.65155e-09 -1.71692e-09
-2.52072e-09 -9.07695e-09 -4.74585e-09
2.19965e-09 4.45743e-09 -3.05774e-09
1.15505e-09 -2.6406e-10 3.44794e-10
-2.52703e-09 2.10427e-09 -2.65375e-10
3.06602e-10 1.23438e-09 -7.16672e-10
-1.97754e-09 1.863e-09 -2.4009e-09
5.38133e-09 2.03594e-09 -1.87975e-10
-5.98833e-09 4.0343e-09 -2.48987e-10
-1.52683e-08 -2.74079e-09 -9.82037e-11
3.18404e-09 -2.15528e-09 7.5014e-10
-4.59976e-10 -2.75027e-09 -5.61876e-10
-8.66406e-09 -1.46571e-09 7.72688e-10
-4.88816e-09 8.88186e-09 7.22595e-10
-1.53349e-09 2.17781e-09 -1.70761e-10
-4.31243e-09 -3.8907e-10 1.98657e-10
1.83928e-09 1.84818e-09 -1.63059e-09
-2.04334e-09 -2.07911e-09 -1.04503e-08
-1.19401e-09 -2.23872e-09 4.64418e-10
4.31535e-09 -2.07464e-09 -1.4389e-10
1.67161e-09 3.10629e-10 4.92786e-09
7.20168e-10 -2.03815e-09 2.74293e-10
5.79058e-10 2.78747e-09 -5.15256e-09
3.15548e-09 -4.44355e-10 7.07123e-10
-7.94308e-09 -5.79135e-09 2.22502e-09
-3.43512e-09 3.48487e-11 -8.87265e-10
2.46717e-09 -1.97081e-09 6.04621e-10
-1.34466e-08 7.5111e-09 -1.0273e-08
-5.44153e-10 1.57449e-09 3.87211e-10
4.61992e-09 -2.74769e-09 1.25202e-09
-2.14294e-09 1.12721e-09 2.90025e-10
1.7779e-08 2.76925e-09 -6.84371e-09
1.21512e-09 2.97856e-09 -2.93271e-10
-1.53001e-09 5.02646e-09 -2.20112e-09
-1.69537e-09 -4.09358e-09 2.56972e-09
5.0647e-09 2.24904e-09 1.46212e-10
1.19977e-09 2.26483e-09 -1.74631e-09
-4.85241e-10 -3.66012e-10 -7.09156e-09
-1.54457e-10 1.74521e-09 -1.06756e-09
5.75437e-10 7.29551e-10 4.09652e-10
3.29464e-09 -7.65096e-10 -4.88171e-09
1.68029e-08 -1.24938e-08 1.03434e-08
5.0828e-09 -1.01733e-09 1.85852e-09
-3.34354e-10 -2.56542e-09 -1.99112e-09
-1.11128e-08 1.50706e-09 -1.7753e-10
1.20417e-09 -6.43117e-10 -4.30559e-10
5.93547e-09 -2.13021e-09 2.65487e-10
2.0218e-10 2.1723e-09 5.64611e-10
-1.47441e-08 7.41479e-09 1.05014e-09
-9.0712e-10 4.58768e-10 -2.40886e-09
1.7763e-10 -2.98142e-09 3.01609e-10
-1.75595e-09 -8.1822e-10 3.68836e-10
-2.17087e-10 -3.32189e-09 -6.70433e-10
-3.0191e-09 -1.9434e-09 -1.00363e-09
-6.45604e-10 8.41467e-09 1.36449e-08
2.69889e-09 -2.62547e-09 9.07526e-11
-8.95906e-09 8.83744e-09 -3.22727e-08
9.57088e-09 -1.48245e-08 -3.79634e-09
2.5763e-09 1.78552e-10 -1.76875e-10
6.24606e-09 -1.38619e-08 -1.09437e-09
-6.71805e-09 5.24109e-10 -1.68188e-09
2.33695e-09 1.71962e-09 6.03672e-10
-1.91284e-09 -3.95953e-09 -6.18383e-10
6.28968e-10 -7.26991e-10 1.31425e-11
-2.46906e-09 4.86079e-09 1.42633e-09
-1.09051e-09 -5.11255e-09 -1.10241e-08
-7.47561e-10 -1.54278e-09 1.60027e-10
-5.48907e-10 -1.4068e-09 -7.40237e-10
-6.22436e-10 -3.80995e-10 -7.4076e-10
5.51131e-09 -1.37384e-09 1.05454e-09
7.32773e-09 2.29038e-09 2.77634e-10
-1.01593e-10 -3.36999e-10 -4.69166e-10
9.45414e-09 -2.59027e-09 1.0425e-08
-1.76317e-09 1.69761e-09 -3.93046e-10
-3.83959e-09 1.31855e-09 -1.41465e-09
-2.56226e-09 -3.48608e-09 4.25517e-09
-1.09801e-08 2.77229e-09 -3.84809e-09
1.54896e-08 9.37786e-10 3.1502e-09
-3.25225e-09 1.25968e-08 5.86528e-09
-1.4927e-08 -1.09191e-08 3.32506e-09
-2.64331e-09 -3.76661e-09 9.28324e-10
2.74935e-09 -2.90709e-09 -3.09662e-09
3.6794e-08 -4.11437e-09 5.02082e-10
-1.53472e-09 1.1587e-09 2.59924e-10
-7.74424e-10 -1.57642e-09 -5.0015e-10
1.45714e-09 -1.26764e-09 -2.65455e-10
2.80749e-08 -5.5249e-09 -6.2809e-10
-4.40826e-09 -3.87983e-09 1.23043e-08
-2.77911e-09 6.07084e-09 -3.41536e-09
2.50974e-09 3.58002e-10 4.30647e-10
6.19533e-10 1.35515e-09 -1.43504e-09
-6.3775e-09 8.13025e-10 7.45014e-09
1.94944e-09 1.77065e-09 -2.28663e-09
-6.96596e-11 -1.5044e-09 8.62263e-10
-4.35343e-10 3.45477e-09 -3.85591e-09
-3.41032e-09 -1.14571e-09 -4.98584e-10
-1.60486e-09 1.43367e-08 8.73135e-09
-1.45612e-09 -2.89091e-10 -3.82706e-10
-4.96294e-09 9.13081e-09 -1.05997e-08
-2.10302e-09 -5.94701e-09 4.65689e-08
2.90802e-09 1.38076e-09 -1.62738e-09
-6.94059e-10 1.83933e-09 -1.69558e-09
1.76903e-08 -2.17995e-09 4.90308e-09
-1.61762e-09 3.57899e-09 -1.26937e-09
6.57315e-09 -4.69856e-09 7.41385e-09
1.09127e-09 2.20993e-09 -6.05447e-10
-2.00722e-10 3.13056e-09 -4.41655e-09
-1.32688e-09 2.02107e-11 -1.06858e-09
1.75448e-09 7.71866e-10 -1.2364e-09
-5.16721e-09 -7.07063e-09 -1.25013e-08
2.04492e-10 -7.80964e-10 -9.53658e-10
-4.36458e-10 -9.47691e-10 -5.78369e-10
2.44098e-08 -1.99988e-09 1.71604e-08
2.10834e-09 7.18741e-10 -1.71338e-09
2.08816e-09 -2.28587e-09 1.37736e-10
1.7884e-08 -1.09965e-08 -3.93408e-09
2.08543e-08 -1.97244e-08 1.04984e-08
-2.00881e-08 7.87053e-09 2.63524e-10
1.92421e-10 -1.7759e-09 -2.01235e-09
-3.73639e-09 -1.99267e-09 -3.08737e-10
-2.8183e-09 -4.66576e-09 5.83799e-10
-1.20982e-08 4.43856e-09 5.13689e-10
6.56961e-09 3.84021e-09 1.33962e-08
8.22004e-10 3.65676e-09 -3.10399e-09
9.88619e-09 -4.88975e-09 6.66249e-09
1.29312e-09 7.08852e-10 -2.45003e-09
-1.56287e-07 1.2866e-07 4.22181e-07
-1.92482e-09 -1.78632e-09 3.71721e-09
1.7516e-08 -1.05561e-08 1.65465e-09
3.34009e-09 1.98557e-09 -3.74894e-09
1.26393e-08 6.95902e-09 -6.18721e-09
1.34982e-08 3.16597e-09 -1.67949e-08
1.28791e-08 3.37576e-09 4.69314e-09
1.58449e-08 2.63156e-09 -5.05885e-10
1.15621e-08 -8.29937e-10 -1.95855e-09
-5.23765e-09 -2.21669e-09 -1.52501e-08
4.02094e-10 2.97432e-10 -5.61386e-11
2.30483e-09 6.03802e-09 -5.95909e-10
-1.17858e-09 2.14717e-09 -1.74839e-09
-5.82967e-09 8.62668e-09 -1.08319e-08
4.07085e-09 1.37766e-08 -2.29211e-09
-5.12047e-09 9.92243e-09 6.44908e-09
-1.71721e-09 1.4256e-09 -4.50174e-10
-1.82148e-09 -2.46063e-09 -2.92756e-09
-5.41887e-09 -1.38689e-08 1.7616e-08
-5.51295e-09 1.3264e-08 -5.32724e-10
-2.68976e-09 -1.46199e-09 1.47909e-08
-5.29297e-09 -4.30813e-09 -2.69022e-10
5.86369e-09 9.58179e-09 -3.72365e-09
2.48945e-09 -1.33256e-08 -3.45976e-09
2.28805e-08 2.08179e-09 -2.99962e-10
5.26861e-09 -2.59657e-09 -2.05509e-09
-3.51508e-09 8.77503e-10 -5.90543e-10
3.82141e-09 8.75361e-10 1.73874e-10
8.58912e-10 1.15333e-09 -1.45522e-09
-1.57406e-08 -7.50209e-10 6.40957e-09
1.81592e-08 -1.13772e-08 3.30321e-08
-9.90416e-09 4.35149e-09 -2.63526e-09
1.63678e-09 1.73973e-10 -3.00378e-10
-1.28343e-10 1.15683e-08 -4.01818e-10
-1.57183e-09 -3.06012e-10 -5.09143e-11
-6.26792e-10 -9.54164e-09 8.37693e-09
1.17509e-08 -3.56811e-09 -2.98039e-10
-1.74862e-09 4.61388e-09 -8.55816e-09
-4.67456e-09 -3.28175e-09 1.10918e-08
-1.79722e-10 -2.83753e-09 7.87376e-09
4.79363e-10 5.12439e-10 -1.05539e-09
1.22923e-08 1.44065e-08 4.62615e-09
1.88618e-08 -4.00502e-09 4.13745e-09
-9.50646e-09 -9.19556e-09 2.08034e-09
1.74649e-08 -5.25253e-09 1.07193e-10
-1.30929e-08 -7.94643e-10 -9.81455e-11
2.36891e-10 -1.0248e-09 -1.7914e-09
1.91893e-08 1.96441e-08 -2.19533e-08
-2.95279e-09 -2.98562e-09 7.88866e-10
-9.13346e-09 -6.35819e-10 -4.35069e-10
1.27255e-08 -2.54946e-09 6.80247e-09
-4.35351e-09 -5.7608e-09 8.42468e-09
-3.22387e-09 -4.4764e-09 -3.20328e-09
1.56363e-09 -1.64146e-09 -4.78235e-09
2.37289e-08 -1.15598e-08 1.15622e-09
-2.78942e-09 1.08593e-09 -3.30126e-09
3.36973e-09 2.06589e-09 -1.64308e-09
1.71943e-08 1.36349e-08 -3.37375e-09
-1.6192e-09 -6.80441e-09 -7.64036e-10
7.502e-09 1.21258e-08 7.0218e-10
6.16112e-09 -5.26288e-10 -3.73416e-09
-5.46289e-10 -1.47167e-09 -9.71123e-10
-3.05874e-08 -8.78097e-09 2.65873e-09
-2.90875e-10 -4.64698e-09 1.33982e-09
1.11652e-08 -3.53505e-09 1.76132e-09
9.16348e-10 -1.05558e-11 8.64078e-09
-1.78816e-08 2.0764e-08 -3.11657e-09
1.64589e-09 6.33547e-09 -9.15851e-11
-1.60206e-08 -9.80202e-09 6.61151e-09
1.32627e-09 -4.3159e-09 7.8858e-10
-1.50169e-09 1.47227e-09 1.85596e-09
-1.25852e-08 6.14042e-09 -1.1184e-09
7.7904e-09 -3.26648e-08 8.93311e-09
1.82812e-09 1.08404e-09 -1.32468e-09
9.09505e-09 1.08411e-08 -4.02506e-09
2.72999e-10 1.43167e-09 -1.87221e-09
-5.30949e-09 1.14196e-08 -7.51367e-09
1.12374e-10 -2.23076e-09 -6.73384e-10
-5.47935e-09 4.72094e-09 1.74565e-09
-3.45546e-11 -9.17826e-10 1.01843e-09
-2.28746e-11 3.04672e-09 8.07004e-10
7.4278e-11 5.27841e-09 3.01359e-09
2.11786e-09 7.71618e-09 1.45454e-09
5.06231e-10 -1.67095e-09 7.41393e-09
9.09175e-10 2.03538e-10 2.6535e-09
2.91655e-09 3.07299e-09 5.86072e-10
-2.6067e-09 1.62691e-09 -8.52203e-09
-1.28344e-10 7.45412e-10 -4.28326e-09
-6.18111e-09 1.28334e-08 -1.56052e-08
-2.07598e-09 -2.47875e-09 9.92773e-10
3.53116e-08 8.2492e-09 -4.15783e-09
-9.28512e-09 9.66385e-09 -6.02283e-09
1.8954e-05 4.8386e-07 -5.81402e-06
-8.33161e-09 6.93442e-09 5.88572e-10
2.63653e-21 -5.98879e-22 -1.52201e-22
6.33861e-09 2.47901e-10 6.31612e-10
-7.7329e-09 6.26334e-09 2.70796e-09
1.25384e-08 -8.42103e-09 -7.50458e-09
5.0174e-09 5.48189e-09 3.38985e-09
2.67025e-09 2.68428e-09 -2.27903e-09
4.49108e-09 -2.041e-09 -2.92806e-09
8.28035e-10 4.13332e-09 -1.48382e-08
-6.90084e-10 -1.16145e-09 3.54278e-10
-2.51752e-09 9.30642e-09 -1.25006e-09
-1.19739e-08 1.36423e-08 -3.38116e-09
4.38999e-09 4.20188e-09 -4.67735e-09
-4.44994e-10 -2.49991e-09 -2.05847e-09
-9.90506e-09 4.04129e-09 -1.12452e-08
1.44677e-09 4.26246e-10 -5.31472e-09
-6.52488e-09 -9.23821e-09 1.49253e-08
-1.2832e-08 -1.43048e-09 2.01689e-09
-3.0625e-09 -2.418e-09 2.89942e-09
-2.33321e-09 -7.08249e-09 -5.62713e-09
3.15664e-08 1.19672e-10 -1.3033e-09
-1.2677e-08 -4.19511e-10 2.91981e-09
-5.02714e-09 -7.71671e-09 -2.11584e-09
-7.65678e-09 6.63367e-09 -8.39383e-10
6.18189e-10 -2.90189e-09 -2.42618e-09
7.82823e-09 6.03658e-09 -6.31317e-10
8.51899e-09 -8.05866e-09 1.80963e-08
-9.8852e-09 -6.52928e-09 2.76594e-09
-2.37989e-09 -1.81957e-09 -1.44631e-09
1.4437e-08 7.4309e-09 -3.3327e-09
-4.80538e-09 4.19353e-09 9.55204e-10
4.53069e-09 9.56762e-10 -2.70977e-09
1.92523e-08 6.14519e-09 -3.34906e-09
4.4223e-09 -1.19566e-08 2.58599e-09
-4.45172e-09 3.81178e-09 -2.6977e-09
-4.77361e-09 -3.86565e-09 1.54683e-08
4.80602e-09 5.49368e-09 -9.74979e-10
-4.40053e-09 -4.87453e-09 2.37668e-09
1.68026e-08 -3.06166e-09 -2.18028e-09
-5.8445e-09 1.83263e-08 1.4054e-09
-7.14321e-09 8.90767e-10 -1.63155e-12
-5.59136e-09 -5.25022e-10 -3.34006e-10
2.01774e-08 -6.28848e-08 4.47181e-08
-1.01273e-09 1.11502e-08 -9.3264e-09
7.2732e-09 -7.86417e-09 -6.02573e-09
6.71739e-10 1.74237e-09 -1.21838e-09
5.18885e-10 1.85897e-09 -1.09683e-08
-4.8058e-09 4.57297e-09 1.80667e-09
-1.38251e-08 3.84467e-09 2.2497e-10
7.36887e-10 -1.28602e-09 -2.34214e-09
-1.61909e-08 -4.49317e-09 -4.83794e-09
1.62135e-09 -5.35389e-09 6.56207e-09
-1.64293e-08 1.12066e-09 -2.46485e-10
1.38868e-10 3.37077e-09 1.59188e-09
-7.82886e-09 2.39273e-09 1.56335e-09
