# vtk DataFile Version 3.0
LIGGGHTS particles timestep 5800000
ASCII
DATASET POLYDATA
POINTS 297 float
0.0455926 0.0146983 0.0123296
0.0467418 0.0161922 0.00842236
0.0409326 0.0174928 0.00734751
0.0478141 0.0194082 0.00700034
0.0457167 0.0147243 0.0117563
0.0525337 0.0159693 0.00829248
0.0411986 0.0163843 0.00791419
0.047176 0.0165638 0.00814179
0.0531641 0.0185667 0.0070456
0.0478318 0.0170841 0.0075279
0.0479232 0.0182421 0.00722492
0.0401772 0.0149935 0.00968435
0.0458476 0.0148967 0.0111945
0.0404045 0.0149308 0.00988486
0.0474943 0.0164214 0.00796623
0.0399859 0.0147926 0.010529
0.0465115 0.0158841 0.00840749
0.0531488 0.017276 0.00747674
0.0462454 0.0149004 0.0110065
0.0481491 0.0180067 0.00725509
0.045782 0.0148091 0.0114758
0.0472775 0.0162651 0.0081024
0.0465677 0.0160926 0.00819928
0.052788 0.0169192 0.00764602
0.0477309 0.0165627 0.00784767
0.052853 0.0171879 0.00752957
0.0474177 0.0183601 0.00725162
0.0529829 0.0177254 0.00729668
0.0532188 0.0175503 0.00735766
0.0468515 0.0165751 0.00814422
0.0473705 0.017268 0.007533
0.047658 0.0173206 0.00746567
0.041027 0.0172907 0.00768337
0.0475699 0.0178739 0.0073475
0.053225 0.0188601 0.00705967
0.0470116 0.0163457 0.00798921
0.048921 0.0179536 0.00720283
0.0530158 0.0167353 0.00771115
0.0479846 0.0196549 0.00700654
0.0489076 0.0172478 0.00734918
0.0468912 0.0173843 0.00753278
0.0469255 0.0161402 0.0081909
0.0482003 0.0194494 0.00697078
0.0525925 0.0161418 0.00805419
0.0526577 0.0163962 0.0079093
0.0478632 0.0161791 0.00832166
0.0479384 0.0174141 0.00741422
0.041101 0.0170395 0.00751613
0.0473931 0.0196723 0.00697378
0.0479875 0.0185398 0.00714941
0.0411331 0.0162032 0.00816006
0.0529499 0.0164668 0.00782756
0.0479895 0.0168377 0.00759406
0.040595 0.0154198 0.00916064
0.0419263 0.0184558 0.00705808
0.052918 0.0174567 0.00741313
0.0473346 0.019383 0.00702762
0.0530814 0.0170046 0.00759444
0.0481093 0.0171695 0.00745239
0.0462782 0.0147912 0.0112842
0.0470883 0.0171602 0.00756342
0.048066 0.0191864 0.00702357
0.0527229 0.0166549 0.007772
0.0471701 0.0168302 0.00791445
0.0410724 0.0160294 0.00839689
0.0474985 0.0175889 0.00742083
0.0473476 0.0167278 0.00769531
0.0472284 0.0165021 0.00785293
0.0531074 0.0182776 0.00710216
0.0399287 0.014786 0.0108234
0.0480437 0.0188346 0.00708695
0.0477895 0.0176708 0.0073709
0.0530475 0.0179942 0.00718022
0.0466246 0.0164233 0.00826878
0.0475344 0.0189309 0.00710885
0.0468156 0.0170442 0.00761927
0.0471672 0.0185247 0.00724039
0.0406176 0.0162784 0.00807409
0.0476465 0.0167584 0.00763659
0.0409064 0.0163319 0.00801152
0.0410361 0.0167644 0.00761671
0.0533868 0.0171034 0.00753656
0.0408685 0.0172138 0.00744059
0.0475851 0.0192185 0.00703996
0.04821 0.0183398 0.00717179
0.0473504 0.0180769 0.0073241
0.0474576 0.0169873 0.00759269
0.0411643 0.0173157 0.00741783
0.0478569 0.017954 0.0072984
0.0467525 0.0167599 0.00769154
0.0477629 0.0187374 0.0071278
0.0466868 0.0164867 0.00780719
0.0528811 0.0162202 0.00800446
0.0410118 0.0158512 0.00863048
0.0470366 0.0168426 0.00764217
0.0408446 0.0161512 0.00824286
0.0480204 0.0166315 0.00780977
0.0454662 0.0149037 0.01288
0.0397958 0.0148077 0.011408
0.0407406 0.0166577 0.00762611
0.041482 0.0164395 0.00782477
0.0400483 0.0148173 0.0102367
0.0420408 0.0176129 0.00735202
0.0403742 0.0155414 0.00899812
0.0453187 0.0151416 0.013506
0.0424221 0.018172 0.00717593
0.0469512 0.0166162 0.0078643
0.0474807 0.0186444 0.00717965
0.0427328 0.0193356 0.00697746
0.0427502 0.0183033 0.00714439
0.0405565 0.0160946 0.00830453
0.0412282 0.0175937 0.00732511
0.0480834 0.0177143 0.00732952
0.045531 0.0147891 0.0126104
0.0413876 0.0171292 0.00749102
0.0483671 0.0170163 0.00746022
0.0487832 0.0175164 0.0073005
0.0464133 0.0151145 0.0103657
0.0472279 0.0188096 0.00716822
0.040119 0.014865 0.00994907
0.0472832 0.0190956 0.0070964
0.0486726 0.0177918 0.0072488
0.0416228 0.0169563 0.00756006
0.0452684 0.0155176 0.0135695
0.0477065 0.018448 0.00720056
0.0404348 0.0157283 0.00876381
0.0476382 0.018158 0.00727471
0.0407845 0.0159687 0.00847319
0.0472828 0.0177969 0.0074078
0.0484355 0.0180818 0.00720723
0.047212 0.0175206 0.00750078
0.0455499 0.015069 0.0125043
0.040241 0.0151764 0.00945531
0.0469544 0.0176689 0.00746043
0.0478149 0.0190271 0.00706333
0.0415564 0.0166747 0.00765395
0.0483121 0.0190159 0.0070425
0.0406617 0.0156023 0.0089321
0.0413222 0.0168488 0.00758454
0.0414297 0.0162631 0.00806209
0.0419173 0.017056 0.00753801
0.0454505 0.0152025 0.0129014
0.0403068 0.015359 0.00922653
0.0423127 0.0174969 0.00740303
0.0430002 0.0185607 0.00707961
0.0408886 0.015485 0.00908949
0.0467206 0.0162809 0.00802282
0.0404957 0.0159114 0.00853417
0.0478892 0.0166761 0.00807586
0.0421864 0.0169345 0.00759079
0.0344435 0.0156663 0.00857583
0.0409689 0.01655 0.0078153
0.0418827 0.018104 0.007177
0.0406786 0.0164612 0.00784413
0.0412499 0.0157362 0.00877213
0.04129 0.0178721 0.00723209
0.0429417 0.0190153 0.00693322
0.0407234 0.0157854 0.00870262
0.047636 0.0171842 0.00773196
0.0470292 0.0179557 0.00738631
0.0423702 0.017802 0.00730071
0.0486464 0.0171125 0.00740824
0.0404634 0.0150546 0.00961804
0.0426478 0.0179881 0.00724832
0.0465482 0.0157318 0.00866336
0.0413513 0.0181554 0.00715476
0.0480462 0.0170996 0.00773722
0.0416868 0.0172345 0.00746726
0.0413105 0.0159113 0.00853616
0.0410576 0.0180494 0.00716165
0.043048 0.018279 0.00717111
0.042947 0.0180088 0.00725358
0.0424379 0.0193887 0.00699171
0.0421373 0.0182569 0.00713502
0.0355962 0.0180331 0.00703276
0.0490437 0.0176563 0.0072499
0.0431485 0.0188122 0.00701083
0.0483767 0.0177611 0.00728746
0.0419791 0.0173344 0.00744502
0.0412529 0.0165665 0.00767854
0.0483525 0.0172871 0.00758844
0.0482323 0.0174576 0.00737283
0.0405282 0.0152374 0.00938914
0.0470995 0.018241 0.00731302
0.0417877 0.0165514 0.00781617
0.0475384 0.0168103 0.00791157
0.0416565 0.0161342 0.0082209
0.0396739 0.0148227 0.0119953
0.0397346 0.0148161 0.0117016
0.0453401 0.0153731 0.0133165
0.0352388 0.0176559 0.00723097
0.0415755 0.0179645 0.00721219
0.0417492 0.0175135 0.00737407
0.0423491 0.0191049 0.00694353
0.0415136 0.0176861 0.00730517
0.0456515 0.0146482 0.0120392
0.0421226 0.0166565 0.00768355
0.0343852 0.0154874 0.00880951
0.0414515 0.0174073 0.00739826
0.0413711 0.0160863 0.00830022
0.0425889 0.0176108 0.00737537
0.0408045 0.0169358 0.00753334
0.0477728 0.0163581 0.00806301
0.0427794 0.0187497 0.00700544
0.0411143 0.0183288 0.00706814
0.0487191 0.0181736 0.00717312
0.0422159 0.0185329 0.00704357
0.0418534 0.0167779 0.00763076
0.0416435 0.018272 0.00710947
0.0461707 0.0150126 0.0107382
0.0468918 0.0169393 0.0078898
0.0418131 0.0177945 0.0072803
0.0347967 0.015914 0.00827221
0.0456912 0.0149756 0.0119184
0.0345072 0.0158593 0.00835517
0.0422485 0.0172134 0.00749767
0.047302 0.0158161 0.00867989
0.0425328 0.017307 0.00747727
0.0398608 0.0147945 0.0111155
0.0409502 0.0156683 0.00886014
0.0420916 0.0179031 0.00725454
0.0409966 0.0177708 0.00725473
0.0355341 0.0177553 0.00717544
0.0415962 0.0159597 0.0084573
0.0459341 0.0149813 0.0109199
0.0421882 0.0188151 0.00694561
0.0418452 0.0193054 0.00697703
0.0351122 0.0171303 0.00750187
0.0342657 0.01513 0.00927636
0.0350706 0.0181126 0.00704511
0.0347608 0.0167913 0.00768088
0.0348908 0.0173143 0.00741739
0.0345691 0.0160505 0.00813249
0.0346311 0.0162597 0.00792667
0.0352973 0.0179311 0.00712036
0.0349298 0.0163533 0.00788988
0.0468658 0.0156221 0.00882391
0.0419287 0.0160514 0.008316
0.0343249 0.0153088 0.00904284
0.0415352 0.0157841 0.00869279
0.0424083 0.0167465 0.00766444
0.0288125 0.0169194 0.0074488
0.0349932 0.0166209 0.00776432
0.0415057 0.0189779 0.00713234
0.035366 0.01822 0.00707827
0.0420504 0.0190812 0.00695868
0.0421387 0.0193665 0.00698753
0.0351771 0.0173918 0.00736708
0.0485221 0.0173811 0.00735956
0.0413487 0.0194547 0.00700046
0.0414228 0.0187746 0.00692787
0.0357809 0.0176019 0.00725001
0.0417579 0.0190167 0.00697427
0.0419887 0.0162266 0.00807997
0.0412005 0.01813 0.00741283
0.0403379 0.0147817 0.0101365
0.0358308 0.017865 0.00711465
0.0415535 0.019236 0.0069871
0.0411266 0.0153764 0.00923624
0.0413973 0.0184307 0.00704486
0.0348595 0.0161103 0.00805112
0.0414603 0.0186723 0.00721115
0.0425058 0.0184646 0.00707899
0.0356984 0.0173098 0.00740076
0.0412299 0.018853 0.00714615
0.0428595 0.0177363 0.00734347
0.0354681 0.0174823 0.00731613
0.0348259 0.017054 0.00755165
0.0411883 0.0155595 0.00900674
0.0353992 0.0172109 0.0074561
0.0351277 0.0183971 0.00712107
0.0424804 0.0187582 0.00698254
0.0351929 0.01868 0.00719672
0.0418954 0.0187508 0.00695558
0.0414736 0.0156092 0.00892859
0.0411725 0.0186154 0.00697217
0.0352918 0.0166446 0.00774747
0.041168 0.0169843 0.00780329
0.0426442 0.0190532 0.00692864
0.0407549 0.0151199 0.00954664
0.0424713 0.0170264 0.00757101
0.0416408 0.0195222 0.00701202
0.04069 0.0149371 0.00977561
0.0412907 0.0191035 0.00729968
0.042059 0.0164434 0.00788493
0.0349546 0.0175723 0.00727826
0.0412678 0.019088 0.00696362
0.0460739 0.0147423 0.0114994
0.0416566 0.0185762 0.00700563
0.0350138 0.0178393 0.00715507
0.0360413 0.0174677 0.00731454
0.0456216 0.0149994 0.0122095
0.0417161 0.01632 0.00799303
0.0408218 0.0153024 0.00931811
0.041933 0.0195891 0.00702348
0.0346991 0.0165275 0.00780985
0.0351177 0.0168632 0.0076384

VERTICES 297 594
1 0
1 1
1 2
1 3
1 4
1 5
1 6
1 7
1 8
1 9
1 10
1 11
1 12
1 13
1 14
1 15
1 16
1 17
1 18
1 19
1 20
1 21
1 22
1 23
1 24
1 25
1 26
1 27
1 28
1 29
1 30
1 31
1 32
1 33
1 34
1 35
1 36
1 37
1 38
1 39
1 40
1 41
1 42
1 43
1 44
1 45
1 46
1 47
1 48
1 49
1 50
1 51
1 52
1 53
1 54
1 55
1 56
1 57
1 58
1 59
1 60
1 61
1 62
1 63
1 64
1 65
1 66
1 67
1 68
1 69
1 70
1 71
1 72
1 73
1 74
1 75
1 76
1 77
1 78
1 79
1 80
1 81
1 82
1 83
1 84
1 85
1 86
1 87
1 88
1 89
1 90
1 91
1 92
1 93
1 94
1 95
1 96
1 97
1 98
1 99
1 100
1 101
1 102
1 103
1 104
1 105
1 106
1 107
1 108
1 109
1 110
1 111
1 112
1 113
1 114
1 115
1 116
1 117
1 118
1 119
1 120
1 121
1 122
1 123
1 124
1 125
1 126
1 127
1 128
1 129
1 130
1 131
1 132
1 133
1 134
1 135
1 136
1 137
1 138
1 139
1 140
1 141
1 142
1 143
1 144
1 145
1 146
1 147
1 148
1 149
1 150
1 151
1 152
1 153
1 154
1 155
1 156
1 157
1 158
1 159
1 160
1 161
1 162
1 163
1 164
1 165
1 166
1 167
1 168
1 169
1 170
1 171
1 172
1 173
1 174
1 175
1 176
1 177
1 178
1 179
1 180
1 181
1 182
1 183
1 184
1 185
1 186
1 187
1 188
1 189
1 190
1 191
1 192
1 193
1 194
1 195
1 196
1 197
1 198
1 199
1 200
1 201
1 202
1 203
1 204
1 205
1 206
1 207
1 208
1 209
1 210
1 211
1 212
1 213
1 214
1 215
1 216
1 217
1 218
1 219
1 220
1 221
1 222
1 223
1 224
1 225
1 226
1 227
1 228
1 229
1 230
1 231
1 232
1 233
1 234
1 235
1 236
1 237
1 238
1 239
1 240
1 241
1 242
1 243
1 244
1 245
1 246
1 247
1 248
1 249
1 250
1 251
1 252
1 253
1 254
1 255
1 256
1 257
1 258
1 259
1 260
1 261
1 262
1 263
1 264
1 265
1 266
1 267
1 268
1 269
1 270
1 271
1 272
1 273
1 274
1 275
1 276
1 277
1 278
1 279
1 280
1 281
1 282
1 283
1 284
1 285
1 286
1 287
1 288
1 289
1 290
1 291
1 292
1 293
1 294
1 295
1 296

POINT_DATA 297
SCALARS id int 1
LOOKUP_TABLE default
1
2
3
4
5
6
7
8
9
10
11
12
13
14
15
16
17
18
19
20
21
22
23
24
25
26
27
28
29
30
31
32
33
34
35
36
37
38
39
40
41
42
43
44
45
46
47
48
49
50
51
52
53
54
55
56
57
58
59
60
61
62
63
64
65
66
67
68
69
70
71
72
73
74
75
76
77
78
80
81
82
83
84
85
86
87
88
89
90
91
92
93
94
95
96
97
98
99
100
101
102
103
104
105
106
107
108
109
110
111
112
113
114
115
116
117
118
119
120
121
122
123
124
125
126
127
128
129
130
131
132
133
134
135
136
137
138
139
140
141
142
143
144
145
146
147
148
149
150
151
152
153
154
155
156
157
158
159
160
161
162
163
164
165
167
168
169
170
171
172
173
174
175
176
177
178
179
180
181
182
183
185
186
187
188
189
190
191
192
193
194
195
196
197
198
199
200
201
202
203
204
205
206
207
208
209
210
211
212
213
214
215
216
217
218
219
220
221
222
223
224
225
226
227
228
229
230
231
232
233
234
235
236
237
238
239
240
241
242
243
244
245
246
247
248
249
250
251
252
253
254
255
256
257
258
259
260
261
262
263
264
265
266
267
268
269
270
271
272
273
274
275
276
277
278
279
280
281
282
283
284
285
286
287
288
289
290
291
292
293
294
295
296
297
298
299
300

SCALARS type int 1
LOOKUP_TABLE default
1
1
1
1
1
1
1
1
1
1
1
1
1
1
1
1
1
1
1
1
1
1
1
1
1
1
1
1
1
1
1
1
1
1
1
1
1
1
1
1
1
1
1
1
1
1
1
1
1
1
1
1
1
1
1
1
1
1
1
1
1
1
1
1
1
1
1
1
1
1
1
1
1
1
1
1
1
1
1
1
1
1
1
1
1
1
1
1
1
1
1
1
1
1
1
1
1
1
1
1
1
1
1
1
1
1
1
1
1
1
1
1
1
1
1
1
1
1
1
1
1
1
1
1
1
1
1
1
1
1
1
1
1
1
1
1
1
1
1
1
1
1
1
1
1
1
1
1
1
1
1
1
1
1
1
1
1
1
1
1
1
1
1
1
1
1
1
1
1
1
1
1
1
1
1
1
1
1
1
1
1
1
1
1
1
1
1
1
1
1
1
1
1
1
1
1
1
1
1
1
1
1
1
1
1
1
1
1
1
1
1
1
1
1
1
1
1
1
1
1
1
1
1
1
1
1
1
1
1
1
1
1
1
1
1
1
1
1
1
1
1
1
1
1
1
1
1
1
1
1
1
1
1
1
1
1
1
1
1
1
1
1
1
1
1
1
1
1
1
1
1
1
1
1
1
1
1
1
1
1
1
1
1
1
1
1
1
1
1
1
1
1
1
1
1
1
1

SCALARS radius float 1
LOOKUP_TABLE default
0.00015
0.00015
0.00015
0.00015
0.00015
0.00015
0.00015
0.00015
0.00015
0.00015
0.00015
0.00015
0.00015
0.00015
0.00015
0.00015
0.00015
0.00015
0.00015
0.00015
0.00015
0.00015
0.00015
0.00015
0.00015
0.00015
0.00015
0.00015
0.00015
0.00015
0.00015
0.00015
0.00015
0.00015
0.00015
0.00015
0.00015
0.00015
0.00015
0.00015
0.00015
0.00015
0.00015
0.00015
0.00015
0.00015
0.00015
0.00015
0.00015
0.00015
0.00015
0.00015
0.00015
0.00015
0.00015
0.00015
0.00015
0.00015
0.00015
0.00015
0.00015
0.00015
0.00015
0.00015
0.00015
0.00015
0.00015
0.00015
0.00015
0.00015
0.00015
0.00015
0.00015
0.00015
0.00015
0.00015
0.00015
0.00015
0.00015
0.00015
0.00015
0.00015
0.00015
0.00015
0.00015
0.00015
0.00015
0.00015
0.00015
0.00015
0.00015
0.00015
0.00015
0.00015
0.00015
0.00015
0.00015
0.00015
0.00015
0.00015
0.00015
0.00015
0.00015
0.00015
0.00015
0.00015
0.00015
0.00015
0.00015
0.00015
0.00015
0.00015
0.00015
0.00015
0.00015
0.00015
0.00015
0.00015
0.00015
0.00015
0.00015
0.00015
0.00015
0.00015
0.00015
0.00015
0.00015
0.00015
0.00015
0.00015
0.00015
0.00015
0.00015
0.00015
0.00015
0.00015
0.00015
0.00015
0.00015
0.00015
0.00015
0.00015
0.00015
0.00015
0.00015
0.00015
0.00015
0.00015
0.00015
0.00015
0.00015
0.00015
0.00015
0.00015
0.00015
0.00015
0.00015
0.00015
0.00015
0.00015
0.00015
0.00015
0.00015
0.00015
0.00015
0.00015
0.00015
0.00015
0.00015
0.00015
0.00015
0.00015
0.00015
0.00015
0.00015
0.00015
0.00015
0.00015
0.00015
0.00015
0.00015
0.00015
0.00015
0.00015
0.00015
0.00015
0.00015
0.00015
0.00015
0.00015
0.00015
0.00015
0.00015
0.00015
0.00015
0.00015
0.00015
0.00015
0.00015
0.00015
0.00015
0.00015
0.00015
0.00015
0.00015
0.00015
0.00015
0.00015
0.00015
0.00015
0.00015
0.00015
0.00015
0.00015
0.00015
0.00015
0.00015
0.00015
0.00015
0.00015
0.00015
0.00015
0.00015
0.00015
0.00015
0.00015
0.00015
0.00015
0.00015
0.00015
0.00015
0.00015
0.00015
0.00015
0.00015
0.00015
0.00015
0.00015
0.00015
0.00015
0.00015
0.00015
0.00015
0.00015
0.00015
0.00015
0.00015
0.00015
0.00015
0.00015
0.00015
0.00015
0.00015
0.00015
0.00015
0.00015
0.00015
0.00015
0.00015
0.00015
0.00015
0.00015
0.00015
0.00015
0.00015
0.00015
0.00015
0.00015
0.00015
0.00015
0.00015
0.00015
0.00015
0.00015
0.00015
0.00015
0.00015
0.00015
0.00015
0.00015
0.00015
0.00015
0.00015
0.00015
0.00015
0.00015
0.00015
0.00015
0.00015
0.00015
0.00015
0.00015
0.00015
0.00015
0.00015
0.00015
0.00015

SCALARS mass float 1
LOOKUP_TABLE default
3.95841e-09
3.95841e-09
3.95841e-09
3.95841e-09
3.95841e-09
3.95841e-09
3.95841e-09
3.95841e-09
3.95841e-09
3.95841e-09
3.95841e-09
3.95841e-09
3.95841e-09
3.95841e-09
3.95841e-09
3.95841e-09
3.95841e-09
3.95841e-09
3.95841e-09
3.95841e-09
3.95841e-09
3.95841e-09
3.95841e-09
3.95841e-09
3.95841e-09
3.95841e-09
3.95841e-09
3.95841e-09
3.95841e-09
3.95841e-09
3.95841e-09
3.95841e-09
3.95841e-09
3.95841e-09
3.95841e-09
3.95841e-09
3.95841e-09
3.95841e-09
3.95841e-09
3.95841e-09
3.95841e-09
3.95841e-09
3.95841e-09
3.95841e-09
3.95841e-09
3.95841e-09
3.95841e-09
3.95841e-09
3.95841e-09
3.95841e-09
3.95841e-09
3.95841e-09
3.95841e-09
3.95841e-09
3.95841e-09
3.95841e-09
3.95841e-09
3.95841e-09
3.95841e-09
3.95841e-09
3.95841e-09
3.95841e-09
3.95841e-09
3.95841e-09
3.95841e-09
3.95841e-09
3.95841e-09
3.95841e-09
3.95841e-09
3.95841e-09
3.95841e-09
3.95841e-09
3.95841e-09
3.95841e-09
3.95841e-09
3.95841e-09
3.95841e-09
3.95841e-09
3.95841e-09
3.95841e-09
3.95841e-09
3.95841e-09
3.95841e-09
3.95841e-09
3.95841e-09
3.95841e-09
3.95841e-09
3.95841e-09
3.95841e-09
3.95841e-09
3.95841e-09
3.95841e-09
3.95841e-09
3.95841e-09
3.95841e-09
3.95841e-09
3.95841e-09
3.95841e-09
3.95841e-09
3.95841e-09
3.95841e-09
3.95841e-09
3.95841e-09
3.95841e-09
3.95841e-09
3.95841e-09
3.95841e-09
3.95841e-09
3.95841e-09
3.95841e-09
3.95841e-09
3.95841e-09
3.95841e-09
3.95841e-09
3.95841e-09
3.95841e-09
3.95841e-09
3.95841e-09
3.95841e-09
3.95841e-09
3.95841e-09
3.95841e-09
3.95841e-09
3.95841e-09
3.95841e-09
3.95841e-09
3.95841e-09
3.95841e-09
3.95841e-09
3.95841e-09
3.95841e-09
3.95841e-09
3.95841e-09
3.95841e-09
3.95841e-09
3.95841e-09
3.95841e-09
3.95841e-09
3.95841e-09
3.95841e-09
3.95841e-09
3.95841e-09
3.95841e-09
3.95841e-09
3.95841e-09
3.95841e-09
3.95841e-09
3.95841e-09
3.95841e-09
3.95841e-09
3.95841e-09
3.95841e-09
3.95841e-09
3.95841e-09
3.95841e-09
3.95841e-09
3.95841e-09
3.95841e-09
3.95841e-09
3.95841e-09
3.95841e-09
3.95841e-09
3.95841e-09
3.95841e-09
3.95841e-09
3.95841e-09
3.95841e-09
3.95841e-09
3.95841e-09
3.95841e-09
3.95841e-09
3.95841e-09
3.95841e-09
3.95841e-09
3.95841e-09
3.95841e-09
3.95841e-09
3.95841e-09
3.95841e-09
3.95841e-09
3.95841e-09
3.95841e-09
3.95841e-09
3.95841e-09
3.95841e-09
3.95841e-09
3.95841e-09
3.95841e-09
3.95841e-09
3.95841e-09
3.95841e-09
3.95841e-09
3.95841e-09
3.95841e-09
3.95841e-09
3.95841e-09
3.95841e-09
3.95841e-09
3.95841e-09
3.95841e-09
3.95841e-09
3.95841e-09
3.95841e-09
3.95841e-09
3.95841e-09
3.95841e-09
3.95841e-09
3.95841e-09
3.95841e-09
3.95841e-09
3.95841e-09
3.95841e-09
3.95841e-09
3.95841e-09
3.95841e-09
3.95841e-09
3.95841e-09
3.95841e-09
3.95841e-09
3.95841e-09
3.95841e-09
3.95841e-09
3.95841e-09
3.95841e-09
3.95841e-09
3.95841e-09
3.95841e-09
3.95841e-09
3.95841e-09
3.95841e-09
3.95841e-09
3.95841e-09
3.95841e-09
3.95841e-09
3.95841e-09
3.95841e-09
3.95841e-09
3.95841e-09
3.95841e-09
3.95841e-09
3.95841e-09
3.95841e-09
3.95841e-09
3.95841e-09
3.95841e-09
3.95841e-09
3.95841e-09
3.95841e-09
3.95841e-09
3.95841e-09
3.95841e-09
3.95841e-09
3.95841e-09
3.95841e-09
3.95841e-09
3.95841e-09
3.95841e-09
3.95841e-09
3.95841e-09
3.95841e-09
3.95841e-09
3.95841e-09
3.95841e-09
3.95841e-09
3.95841e-09
3.95841e-09
3.95841e-09
3.95841e-09
3.95841e-09
3.95841e-09
3.95841e-09
3.95841e-09
3.95841e-09
3.95841e-09
3.95841e-09
3.95841e-09
3.95841e-09
3.95841e-09
3.95841e-09
3.95841e-09
3.95841e-09
3.95841e-09
3.95841e-09
3.95841e-09
3.95841e-09
3.95841e-09
3.95841e-09
3.95841e-09
3.95841e-09
3.95841e-09
3.95841e-09
3.95841e-09
3.95841e-09
3.95841e-09
3.95841e-09
3.95841e-09
3.95841e-09

VECTORS velocity float
0.00887782 0.00170313 -0.0176458
0.00559382 4.91141e-05 0.000620459
0.00596029 0.000202275 0.000176381
0.00485686 0.000205408 0.000126284
0.00948312 -0.000565792 -0.0186237
0.00588594 0.000248262 8.25181e-05
0.00602235 -0.000115909 -0.000201825
0.00573751 -8.07811e-05 0.000870823
0.00555635 0.000540493 0.000525998
0.00524651 0.00148352 -0.000923559
0.00493093 -0.00115671 -0.000250695
0.00603553 0.000403158 -0.00026104
0.00971148 -0.000205549 -0.0195097
0.00608126 0.000132028 -6.67909e-05
0.00601498 -0.000263635 0.000940112
0.00627366 -0.000522081 -0.000309937
0.00504906 -0.000169203 0.000789935
0.00602905 0.000238347 -0.000423035
0.0031831 0.00674468 -0.0193126
0.0050268 0.00016018 -0.000574
0.00983763 0.0025952 -0.0177992
0.00595836 -0.000257757 0.000946775
0.0057266 -0.000254906 0.000852289
0.00606264 0.000183743 -0.000409435
0.0060337 -0.000251991 0.000958636
0.00602747 0.000198279 -0.000405324
0.00547765 -0.000627678 -0.000427194
0.0059765 0.000235025 -0.000418418
0.00598852 0.000264808 -0.000431688
0.00555538 0.000375594 0.000721308
0.00578979 -0.000402654 0.000175321
0.00525491 0.00157379 -0.000884014
0.00602127 0.000240761 0.000169661
0.00602903 -0.000643588 -0.000489624
0.00582721 0.000478608 0.000552939
0.00588862 -0.000276517 0.000951928
0.00484287 0.00350224 -0.000837414
0.00610196 0.00021491 -0.00042258
0.00279767 0.00157467 0.000711284
0.00232369 0.000444167 -0.00035056
0.00571389 -0.000743439 -0.000437928
0.005949 -0.000186777 0.000878177
0.00288057 0.00185924 -0.000463398
0.00609764 0.000659518 0.00040605
0.00609382 0.000520978 0.000178739
0.0240316 0.0825137 -0.119173
0.00622316 -0.000660165 -0.000523447
0.0061306 0.00018418 4.81616e-05
0.00603857 -0.000717086 0.000174481
0.0052334 -0.000851792 -0.000347755
0.00608591 6.0841e-06 -0.000389818
0.00608278 0.000218937 -0.000416888
0.00528445 0.00146445 -0.000885014
0.00610884 0.00019847 -1.66175e-05
0.00570746 0.000537491 5.52302e-05
0.00600243 0.000215351 -0.000411309
0.00573917 -0.000787869 -0.000230289
0.00604685 0.000234957 -0.000423088
0.00511187 0.00167202 -0.000922859
0.00571868 0.00642741 -0.0195172
0.00570623 -0.000748906 -0.00043594
0.00424223 0.00117854 -0.0004021
0.00608282 0.000283918 -0.000225487
0.00568872 -0.000303258 0.000374805
0.0060306 0.000175982 -0.000260955
0.00595134 -0.0007129 -0.000431383
0.00606823 -0.000365005 0.000666703
0.00588681 -0.000189652 0.000898279
0.00558616 0.000445975 3.14545e-05
0.0058946 -0.000185316 -0.000322605
0.00541292 -0.00088047 -9.11546e-05
0.00606772 -0.000596435 -0.000520091
0.00588176 0.000263289 -0.000417287
0.00556387 0.000278195 0.000396344
0.00547714 -0.000636205 -0.000186206
0.00571937 -0.00138553 -0.0002719
0.00508049 -0.000732325 -0.000371272
0.00593228 0.000106414 9.56016e-05
0.00601842 -0.000220539 0.000942815
0.00597846 -4.74534e-05 -0.000308637
0.00620205 8.26819e-05 -0.000153749
0.00604945 0.000256594 -0.000431187
0.00603186 0.000152754 0.00019729
0.00566867 -0.000732679 -0.000126796
0.00507999 -0.00104142 -0.00030627
0.00596762 -0.000750784 -0.000452496
0.00593223 -0.000281814 0.000665834
0.00599679 0.000263748 0.000155004
0.00525003 -0.000723536 -0.000393606
0.00580502 -0.00142882 -0.000296875
0.00527631 -0.000703758 -0.000383578
0.00588815 -0.00031328 0.000965458
0.00602952 0.000586531 0.000460522
0.00594734 0.000312605 -0.00016319
0.00574251 -0.00135512 -0.000299205
0.00586807 -7.69668e-06 -0.000293976
0.00523346 0.001418 -0.000863189
0.00940921 -0.00393193 -0.0161815
0.00570714 0.000595841 -0.000274595
0.00618604 0.000129634 0.000208896
0.0063228 -5.5513e-05 -0.000274083
0.00606633 -0.000337769 -0.000387223
0.00584891 0.000494552 7.1612e-05
0.00639265 0.00040189 -0.000269581
0.00331191 0.00462222 0.011124
0.00568941 0.000573057 3.89569e-05
0.00586267 -0.00016435 0.000740323
0.00534862 -0.000620958 -0.000318716
0.00598803 0.00077659 1.22144e-05
0.00588183 0.000655145 3.70281e-05
0.00584124 0.000300253 -0.000148328
0.00590453 0.000281982 0.000145437
0.005996 -0.000355087 -0.000547423
0.00945057 -0.00722831 -0.0147689
0.00605311 0.000346072 0.000130445
0.00384898 -0.000340882 -0.000318562
0.00559291 0.00189105 -0.00122923
0.000166667 -0.000237623 0.000224688
0.00395468 -0.000453911 -0.000377004
0.00599425 0.000157396 -0.000365105
0.00473069 -0.000629026 -0.000316794
0.00572089 0.00201959 -0.00103649
0.00609804 0.000422239 0.000107003
0.00312899 0.00605036 0.0102382
0.00517312 -0.000862778 -0.000376012
0.00556069 0.000341794 -0.000214898
0.0054235 -0.000629122 -0.000432289
0.00577353 0.00016934 -0.000152343
0.00605174 -0.000681986 -0.000389656
0.00456578 0.00172047 -0.000878969
0.00566446 -0.000477989 -0.000224773
0.00837677 -0.00503096 -0.00916391
0.00617101 0.000396458 -0.000272034
0.00567955 -0.000421 -0.000508179
0.00556205 -0.00080267 -9.34753e-05
0.00622358 0.000295065 0.00015664
0.0038077 0.000561468 -0.000274334
0.00603789 0.000203367 -3.06932e-05
0.00619432 0.000278454 0.000165612
0.00613235 -3.60684e-05 -0.000325647
0.00606369 0.000498185 8.03185e-05
0.00907925 -0.0041958 -0.0127569
0.00634436 0.000391383 -0.000266712
0.00585168 0.000573179 4.47542e-05
0.0059363 0.000902142 0.000120843
0.00616791 0.000279248 -0.000121426
0.00582629 -0.000293607 0.00090979
0.00572532 0.000315615 -0.00017921
0.00631017 0.00229016 -0.000490809
0.00609361 0.000566312 5.67698e-05
0.0057242 -1.86379e-05 0.000231385
0.00615176 1.33479e-06 -0.000233531
0.00573058 0.000429259 9.00747e-05
0.00609922 9.67523e-05 0.00014842
0.00593916 3.02661e-05 -0.000372309
0.00581168 0.000292171 0.00013663
0.00568204 0.000866026 0.000104468
0.00584383 0.000231797 -6.58799e-05
0.00534008 0.00139825 -0.00086906
0.00609564 -0.000658534 -0.000473636
0.00585092 0.000557493 5.05128e-05
0.00357845 -0.0011544 -0.000117699
0.00615111 0.00020419 -1.65991e-05
0.00578674 0.000716953 -7.78208e-06
0.0137032 -0.00228487 -0.00169355
0.00572684 0.000311433 0.000125522
0.00501856 0.00152761 -0.000944976
0.00601975 0.00043792 9.86319e-05
0.00601399 1.9929e-05 -0.000358533
0.00554094 0.00033312 0.000116265
0.0058963 0.000868751 0.000125188
0.00576153 0.000859454 -5.07727e-05
0.00595496 0.000601491 0.000113433
0.00568022 0.000497255 6.49888e-05
0.00549012 -0.000235167 2.7365e-05
0.00483323 0.0034985 -0.000847788
0.00572563 0.000896835 0.00010633
0.00587157 0.000525291 -0.000747359
0.00595723 0.000496707 7.5254e-05
0.00603372 1.76468e-05 0.000241822
0.00665276 -5.54735e-05 -0.000782873
0.00630342 -9.41889e-05 -0.000625102
0.00615845 0.000202893 -1.50959e-05
0.00588154 -0.000986524 -0.000392873
0.00614834 0.000371705 -5.15403e-05
0.00562622 4.20718e-05 0.000763713
0.00610207 5.83233e-05 -0.000405783
0.00528054 0.00143286 -0.00029336
0.00558297 0.000982909 -0.000257134
0.00332587 0.00462661 0.0111148
0.00556076 -0.000137431 -1.70685e-05
0.00578784 0.000375226 0.000107745
0.00590733 0.000423834 9.75921e-05
0.00565827 0.000639107 6.44125e-06
0.0058689 0.000359711 0.000118111
0.00944869 -5.21425e-07 -0.0181813
0.00615866 0.000556943 5.52153e-05
0.00553086 6.54233e-06 0.000181379
0.00596239 0.000356555 0.000123139
0.00608769 3.68722e-06 -0.000345527
0.0059065 0.000606028 3.51331e-05
0.00611394 0.00014726 0.000204808
0.00534093 -0.000385086 0.000994751
0.00580246 0.000741151 0.000161839
0.00552841 0.000346112 0.000110749
0.00410981 0.00314122 -0.000750948
0.00576579 0.000401342 0.00010456
0.00614025 0.000486464 8.351e-05
0.00568434 0.000353792 0.000115385
0.00387659 0.00674772 -0.0196081
0.00530917 -0.00132029 -7.47331e-05
0.00583534 0.000445694 8.84487e-05
0.00589459 -0.000379593 0.000115166
0.00966062 -0.00231687 -0.0154674
0.00581534 -0.000119999 0.000148132
0.00600047 0.000591603 4.46528e-05
0.0165659 0.0945415 -0.0665404
0.00589055 0.000641808 2.28402e-05
0.00566646 0.000282819 -0.000330317
0.00594384 0.000330906 -0.000137059
0.00581826 0.000505357 6.67927e-05
0.005891 0.000259192 0.00015328
0.00548754 -0.000225595 2.94914e-05
0.0060647 5.92453e-05 -0.000417527
0.00428836 0.0065153 -0.019156
0.00579435 0.000396079 0.000114697
0.00596334 5.17057e-05 2.59657e-05
0.00592202 -0.000293926 5.66226e-05
0.00551321 6.02669e-05 0.000118129
0.00543927 -0.000194373 3.80668e-05
0.00596675 -0.000311861 6.16071e-05
0.00590783 -0.000307611 5.2428e-05
0.00598523 -0.000304012 1.67213e-05
0.00605406 -0.000385406 -6.04464e-05
0.00548685 -0.000222676 2.84287e-05
0.00602446 -0.000158504 0.000343023
0.0490957 0.0065372 -0.0378047
0.00618289 0.000101935 -0.000471203
0.00533748 4.50862e-05 0.000129293
0.00599275 7.21686e-05 -0.000424656
0.00613893 0.000613294 4.32843e-05
0.00565112 -0.000391238 0.000162551
0.00598032 -0.000306292 5.99981e-05
0.00584516 0.000100859 0.000172748
0.00549827 -0.000224408 3.04516e-05
0.00570048 0.000341819 3.53999e-05
0.00594665 0.00025935 5.34303e-05
0.00574099 -0.000117592 -3.08398e-05
0.00646048 0.000244942 -0.000751051
0.00601647 -3.17651e-05 6.09112e-06
0.0056966 0.000203601 0.00016516
0.00548893 -0.000225369 2.82727e-05
0.00583427 -2.65565e-05 0.000148221
0.00603521 0.000119258 -0.000490502
0.00565044 0.000295872 7.40371e-05
0.00597579 -0.00018972 -0.000312222
0.00549574 -0.000226742 2.74217e-05
0.00595097 -1.81291e-05 7.83949e-05
0.00618928 0.000285907 -0.000113381
0.00567471 0.000338169 0.000123478
0.00602444 -0.000336962 6.92884e-05
0.00562694 0.000351357 0.000139496
0.00576465 0.000494196 6.9973e-05
0.00581185 0.00012701 -0.00015723
0.00568778 0.000432808 2.33985e-05
0.00577731 0.000839158 -4.8836e-05
0.00567418 -1.93534e-05 -8.01441e-05
0.00596371 -0.000314454 6.11547e-05
0.00595169 0.000313671 -0.000185781
0.00588243 1.70707e-05 -0.000102251
0.00550493 -0.000210306 3.53025e-05
0.00580551 0.000564551 0.000204005
0.00550014 -0.000207794 3.55007e-05
0.00588989 7.75407e-05 0.000194403
0.00595701 0.0001029 -0.000397311
0.0056251 0.000318609 0.000131457
0.00597871 -0.000276639 4.6622e-05
0.00595657 0.000124756 8.11388e-05
0.00569501 0.000877152 5.83389e-05
0.0062582 0.000290226 -0.000121109
0.00606415 0.000657263 2.48588e-05
0.00597835 9.03477e-05 2.37838e-05
0.00650623 0.000448994 -0.000312027
0.00562 0.000612105 -0.000527046
0.00617951 0.000325638 -0.000203155
0.00561054 -0.000243382 3.4803e-05
0.00601299 0.000227081 -0.000240144
0.00908081 0.00433849 -0.0152448
0.00564034 0.000444961 8.88661e-05
0.00548359 -0.000211627 2.70706e-05
0.00549284 -0.000218542 2.45378e-05
0.00952747 -0.000706081 -0.015043
0.00612597 0.000180994 -0.000305825
0.00633081 0.000352478 -0.000202629
0.00594074 0.000224204 4.90835e-05
0.006 -0.000346757 1.34199e-06
0.00593535 -0.000298767 5.74388e-05

VECTORS force float
6.63732e-09 3.06756e-10 -3.36756e-08
-1.96557e-09 9.24487e-09 -1.88482e-09
-7.35201e-10 -9.8043e-10 3.30906e-10
6.18042e-09 2.32416e-11 7.37739e-10
8.49742e-09 -3.71762e-10 -3.20383e-08
-2.59082e-09 -3.7911e-09 -9.063e-09
1.47512e-09 1.80301e-09 -2.46529e-10
4.21854e-09 -6.68103e-09 -1.63095e-10
7.80229e-11 2.09632e-10 2.54763e-10
5.45571e-09 1.5833e-08 -7.04028e-09
-9.24489e-09 5.57935e-09 -1.53871e-10
2.39164e-09 7.79044e-09 -6.0459e-09
6.5405e-09 -4.05993e-10 -3.19837e-08
1.91815e-09 -1.10783e-09 -4.49177e-10
4.45412e-09 -1.67674e-08 1.57493e-08
3.46602e-09 -7.10174e-09 3.70003e-10
1.014e-08 -9.19704e-09 1.18975e-09
6.2654e-10 1.07975e-09 -4.55733e-10
9.07437e-10 1.03092e-08 -2.78466e-08
-3.0675e-09 -4.35096e-09 1.4758e-09
0.0 0.0 -3.8832e-08
-1.28016e-08 -5.81321e-09 3.90865e-09
-6.16846e-09 -7.44412e-09 -5.65092e-10
9.70849e-10 -5.35225e-11 -3.75637e-10
-2.4423e-09 -3.50368e-09 8.25938e-09
5.53526e-10 -1.32292e-09 5.17876e-11
7.23813e-09 7.6046e-11 -8.7861e-10
-1.72138e-10 -7.96826e-10 4.56361e-10
1.52415e-10 -5.9442e-11 -1.10177e-12
2.49539e-09 -4.96497e-09 1.41609e-11
-9.19899e-09 8.13472e-09 -1.3415e-08
1.55295e-09 9.01506e-09 -1.07986e-09
-1.64403e-09 -2.49708e-09 7.84943e-11
-7.12985e-09 -1.15887e-08 2.57733e-09
-1.25029e-11 1.67255e-10 2.18456e-11
-2.17738e-09 7.9313e-09 -9.26081e-09
9.50638e-09 4.68993e-09 5.95855e-09
1.7212e-09 -1.69615e-09 5.38796e-10
1.50839e-09 6.87701e-10 1.29739e-09
3.38085e-08 -4.68099e-10 -3.30033e-09
-4.28368e-11 -3.28705e-10 7.03932e-11
-1.57764e-08 5.22999e-09 -1.19886e-08
-9.75226e-10 2.14205e-10 5.31077e-10
-2.05836e-09 -5.61308e-10 -5.39818e-09
2.31221e-10 -1.87902e-09 -5.54218e-09
0.0 0.0 -3.8832e-08
2.46097e-09 4.20206e-09 -6.74777e-09
-1.87981e-09 -1.22686e-09 -1.42774e-09
-9.01082e-09 -9.13298e-09 -4.51771e-09
-1.60519e-08 1.15645e-08 3.40714e-09
2.18967e-09 1.34366e-09 9.35255e-10
2.77028e-09 -8.95687e-10 6.77898e-10
-3.65362e-09 3.4036e-09 -4.00201e-09
-6.34748e-09 3.41711e-09 -5.06673e-09
-1.66043e-09 5.63611e-09 -2.42731e-09
-4.66679e-10 -9.92818e-10 6.24796e-10
4.91649e-09 -6.39662e-09 -1.27947e-08
2.21655e-09 -1.88372e-09 6.59887e-10
-1.25587e-08 -2.05051e-10 -1.18282e-09
1.34286e-10 1.04514e-08 -2.79909e-08
5.12436e-10 8.69226e-11 -7.28829e-11
3.30475e-09 -9.85142e-10 1.83498e-10
1.39728e-09 1.72185e-09 1.26144e-09
7.16342e-09 7.8313e-10 -2.53908e-09
1.22416e-09 1.41653e-09 1.34088e-09
1.14411e-08 -8.06339e-09 -6.98213e-09
1.09038e-08 -2.42881e-09 -6.65212e-09
2.22142e-08 1.80377e-09 2.12387e-09
-4.38027e-10 3.65284e-11 3.57601e-10
4.76994e-09 -2.7267e-09 4.30189e-09
4.81197e-09 -6.28964e-09 1.93834e-09
4.723e-09 8.53698e-09 -2.66976e-09
2.28599e-10 -5.13597e-10 3.09196e-10
8.72433e-09 -4.00425e-09 1.50681e-08
-3.4126e-09 6.80858e-09 -1.19679e-08
4.56224e-09 -5.39884e-09 4.10512e-10
-1.81779e-09 8.49564e-10 1.69223e-10
-3.90728e-10 -3.38457e-10 5.82131e-11
-9.54638e-09 -1.67424e-09 1.14567e-08
1.13427e-09 1.0982e-09 7.09665e-10
-1.67732e-09 -3.98762e-10 -5.49911e-10
-4.85145e-10 3.29903e-10 -1.67394e-10
-3.11992e-10 -1.05513e-09 2.45336e-10
5.18093e-09 1.85982e-09 -9.80263e-09
-1.24109e-08 1.01258e-08 -7.68654e-10
1.97698e-09 -8.06659e-09 -2.1966e-09
-1.06039e-08 5.30105e-09 -3.50492e-10
-1.72806e-09 -1.2658e-09 -6.50362e-11
5.63479e-09 -3.78167e-09 4.85446e-10
1.74819e-09 -6.27926e-09 1.83934e-09
-1.54896e-08 6.08006e-09 4.39747e-08
3.83345e-09 -1.46657e-09 2.92546e-09
-1.03305e-10 1.5349e-10 6.01448e-10
-3.80494e-09 3.36826e-10 2.19058e-11
1.28483e-08 -3.50475e-09 8.83514e-10
2.56311e-10 8.69405e-10 -1.13869e-09
-3.83216e-09 4.97367e-09 -3.03945e-09
6.41816e-09 -6.56812e-09 -2.97919e-08
6.75887e-10 -3.53981e-09 6.22186e-09
-1.29179e-10 4.62098e-10 -3.16442e-10
-3.97085e-10 1.45972e-09 -7.41688e-10
1.51488e-09 -2.45779e-09 -3.1711e-09
2.26685e-09 1.95338e-09 -5.52895e-10
-3.04363e-11 3.35049e-09 -5.01517e-09
1.52624e-09 -2.09165e-09 -3.61389e-09
-4.7183e-09 -2.80544e-09 6.37881e-10
1.29156e-08 5.82985e-10 3.79935e-09
7.8216e-09 5.08191e-09 -1.68694e-08
-3.86482e-09 5.25076e-09 2.95376e-09
2.78669e-09 -2.60849e-09 -2.9039e-09
-4.09313e-10 -2.99551e-10 1.08225e-09
-2.58508e-10 -1.13599e-09 5.63247e-10
4.98492e-09 3.32117e-09 -1.37259e-09
6.584e-09 -1.03387e-08 -2.78795e-08
-2.96843e-09 -1.53782e-09 3.63309e-10
-1.22266e-07 1.62867e-08 -6.97274e-10
7.40762e-10 -6.40627e-09 -1.89503e-08
2.28383e-08 -4.16257e-09 8.19508e-09
-1.21114e-08 -1.15951e-08 -1.99565e-09
1.32162e-09 6.54785e-09 -3.54047e-09
2.17564e-08 -2.98031e-08 -4.09306e-08
3.92815e-09 -4.152e-09 -6.35129e-09
-2.52428e-09 7.67794e-10 -4.07529e-10
1.82609e-09 3.04604e-09 -7.02223e-10
-1.83937e-09 1.04301e-08 -8.61942e-09
-5.34006e-09 -4.19024e-09 4.72124e-09
1.32087e-08 3.84278e-10 -8.14873e-10
6.76762e-09 1.12975e-09 -1.35355e-09
6.44453e-09 7.09715e-09 -8.30861e-09
-9.47615e-09 -1.55191e-10 1.6277e-10
6.99803e-09 1.31228e-08 -1.38628e-08
4.84407e-09 -7.51703e-09 -1.91551e-08
-5.36972e-10 7.15837e-09 -9.50782e-09
-4.23941e-09 -3.77205e-09 -3.58526e-09
4.47004e-09 -6.0632e-09 -1.04012e-09
-3.37425e-10 1.45363e-09 -7.99593e-10
2.74048e-09 5.76388e-10 -1.12484e-10
-1.07082e-08 4.13193e-09 -6.1583e-09
-2.11229e-09 -8.40035e-10 -1.92989e-10
4.26235e-10 -6.68965e-10 1.90791e-10
-1.18182e-09 1.90028e-09 -7.44436e-10
4.58199e-09 -7.64656e-09 -1.78577e-08
1.24467e-09 6.89407e-09 -7.27226e-09
1.79506e-09 1.24571e-09 -3.52831e-10
7.22045e-09 -1.19996e-08 4.20413e-09
-1.47334e-08 1.96273e-09 -3.37825e-09
-3.50997e-09 1.21412e-09 -1.00051e-10
9.82342e-10 -2.18817e-09 2.88198e-09
3.46517e-09 3.78238e-09 8.75832e-09
-3.1288e-09 2.17687e-09 -1.02643e-09
4.56708e-09 -5.08282e-10 2.0436e-09
8.91565e-10 1.30632e-09 1.20846e-09
-1.20238e-09 -2.57062e-09 8.29177e-10
-4.4114e-10 2.19547e-09 1.41299e-09
-5.8365e-09 3.9853e-10 -9.02908e-11
2.73553e-10 -5.06449e-10 4.5296e-10
1.53481e-09 -3.79486e-09 2.01875e-09
3.12386e-09 2.28206e-09 -3.17852e-09
-3.86151e-09 6.71985e-09 -2.20238e-09
4.41132e-09 3.16015e-09 1.89192e-09
-8.7914e-10 -2.39693e-09 8.38941e-10
9.61732e-08 -3.21128e-08 -5.74103e-09
-3.98988e-09 1.04623e-09 -1.14331e-09
3.70189e-10 -2.38711e-09 1.35749e-09
-2.41042e-09 -1.33297e-08 -8.25064e-09
1.82404e-09 1.17883e-09 1.01682e-09
-2.82978e-09 1.62453e-09 1.56809e-09
8.34195e-10 1.98295e-09 -8.0745e-10
1.30455e-10 7.06867e-10 -1.16329e-10
7.91623e-11 -1.15274e-09 6.46396e-10
-1.58478e-09 6.61138e-10 -3.89278e-10
4.50581e-09 1.95074e-09 -1.20694e-09
-2.24861e-09 -2.3978e-09 -7.62707e-10
-4.39009e-09 2.69362e-09 -1.18098e-09
-3.08393e-10 2.60734e-10 6.76493e-11
-1.39886e-11 1.32866e-09 -3.01323e-09
8.45892e-09 5.65036e-10 8.96044e-11
6.06882e-09 -9.23305e-09 3.31776e-09
-6.87204e-10 1.436e-09 -4.11813e-10
-2.67964e-09 -7.62916e-10 1.38534e-10
-6.83417e-09 4.59061e-09 -7.82867e-09
1.8205e-08 1.49867e-08 -5.43055e-09
-8.94702e-11 1.14037e-09 -2.04365e-09
-3.0997e-10 -7.41712e-09 -5.79432e-10
-8.90156e-10 2.06028e-09 -3.64812e-09
5.74973e-09 3.81219e-09 1.93039e-08
-6.22705e-10 3.25886e-09 -4.96875e-09
-1.4837e-09 -9.18884e-11 1.05372e-08
1.68037e-10 -2.3603e-09 8.76052e-09
-1.31538e-09 -4.02097e-10 8.80376e-10
-8.18907e-10 -1.40971e-09 6.28144e-10
3.79544e-10 -5.16689e-10 -5.38617e-10
-1.75137e-09 -1.73247e-09 6.78637e-10
1.37528e-09 2.63332e-09 5.86538e-09
-9.30367e-10 -2.34531e-09 7.67682e-10
7.0032e-09 -2.05406e-10 -3.32427e-08
-4.64047e-09 1.7391e-10 5.01831e-12
5.3724e-09 -2.17336e-09 4.45079e-09
3.17765e-10 -8.41661e-11 -2.17791e-10
3.43049e-09 1.5953e-09 -1.74599e-09
-1.93221e-09 -1.66871e-09 4.67928e-10
-3.60365e-10 3.1508e-10 -6.3283e-10
1.1443e-08 -2.76798e-09 6.42621e-09
7.01271e-09 -7.0587e-09 2.90453e-09
4.55245e-10 2.36266e-10 1.90695e-10
-6.00821e-09 -2.08051e-09 1.65915e-09
4.47646e-09 -9.18118e-09 2.92333e-09
-2.7287e-09 2.05187e-09 -1.55629e-09
-1.78906e-10 -9.81707e-10 3.60244e-10
7.0271e-10 1.02917e-08 -2.79298e-08
1.02704e-09 -8.13473e-10 9.38971e-09
2.16405e-09 1.22212e-09 -6.3429e-10
8.75833e-10 -5.65451e-11 -4.03594e-10
7.85279e-09 6.05177e-10 -3.22822e-08
-9.01159e-10 -1.49944e-09 1.01714e-09
-4.01455e-09 2.26658e-09 -9.52543e-10
0.0 0.0 -3.8832e-08
1.11567e-09 -3.87645e-10 1.35176e-10
4.47298e-09 -1.04542e-09 6.09985e-09
-1.84533e-09 -1.61021e-09 -1.74099e-09
2.04128e-09 5.04489e-10 -1.37707e-10
-6.62581e-10 -1.94747e-09 8.24434e-10
-3.80075e-10 2.19611e-10 -1.41126e-10
-5.52434e-09 5.16286e-09 -4.84955e-09
1.29044e-09 1.04351e-08 -2.85909e-08
2.40089e-09 -2.98917e-09 2.30516e-09
3.76502e-09 -2.55327e-09 7.97376e-10
-2.28033e-10 -7.94771e-11 4.12155e-12
-6.9208e-11 3.45299e-10 -1.77203e-10
-1.09381e-10 -2.19543e-10 6.27317e-11
1.68555e-10 1.23598e-09 -8.16912e-10
-3.11717e-10 -4.6053e-11 2.37051e-10
-2.85568e-09 -7.70444e-10 2.04476e-10
-4.45549e-11 2.16005e-10 -3.58657e-10
-3.14686e-10 3.5336e-10 -5.58823e-11
-2.94553e-10 1.45049e-09 2.50106e-10
-3.3706e-09 1.1791e-08 -3.00546e-08
-1.88675e-09 9.49865e-10 -1.58283e-09
5.11981e-09 -2.50987e-09 3.25795e-09
-8.7545e-10 2.50811e-09 -4.46006e-09
-4.82262e-09 4.22676e-09 -1.72074e-09
-1.3363e-09 2.12033e-10 -8.90141e-11
-6.87801e-11 1.11581e-09 -7.3149e-10
-3.80986e-09 -2.5293e-09 -3.39928e-09
-1.36847e-10 2.73581e-10 1.65978e-10
-1.15312e-09 -5.15414e-09 1.15136e-08
2.55915e-09 7.77968e-10 3.16812e-09
6.79838e-10 3.4225e-10 -1.49708e-10
2.59351e-08 -3.18598e-08 3.45474e-09
4.34316e-09 2.77879e-09 -3.37372e-10
-3.65998e-09 -8.95704e-10 -1.04536e-10
-8.74295e-11 1.66305e-10 7.51637e-11
2.79443e-09 -7.49974e-09 2.49412e-09
5.01042e-09 -2.2867e-09 1.47917e-09
1.39435e-10 -5.88561e-10 8.44309e-10
-1.7688e-09 -3.27785e-09 -3.37163e-09
-1.06415e-09 -3.30704e-10 5.2475e-11
-6.72179e-11 -9.50238e-09 -3.28481e-09
-1.71819e-08 -2.34217e-12 -1.01267e-09
-1.69707e-10 2.84795e-09 -1.04085e-09
-8.26211e-11 4.43573e-10 -6.81461e-10
-3.2897e-09 6.37073e-09 -2.49896e-09
4.06145e-09 -1.0528e-08 4.29955e-09
-5.17073e-10 -2.0548e-09 1.06231e-09
-5.55931e-09 1.53193e-09 -4.04565e-09
-4.55924e-09 4.54944e-09 -1.3446e-09
-9.39284e-10 -2.04232e-09 1.02723e-09
1.23657e-10 5.69561e-10 -3.20366e-10
-1.42385e-09 -7.37956e-10 -1.78185e-09
6.52886e-10 1.3429e-10 -7.98413e-11
1.12778e-10 1.44498e-10 -2.91087e-11
3.14242e-09 -1.11812e-09 -1.74609e-09
-7.59793e-11 -4.5422e-10 -1.19771e-10
-1.45975e-09 -8.44255e-09 4.73219e-09
5.54413e-09 2.00574e-09 1.30091e-10
-1.37386e-09 -5.14443e-10 -1.17281e-09
5.00329e-10 6.18911e-10 -5.40635e-10
6.52083e-10 -1.12613e-09 -1.56253e-09
7.15711e-10 -3.02006e-09 1.91315e-09
2.27176e-09 9.04439e-10 -9.73913e-10
-3.06263e-09 1.54227e-09 -5.58297e-10
4.61276e-09 -8.32518e-10 -1.86564e-10
-3.71052e-09 1.49206e-09 -2.21212e-09
-1.96037e-09 -2.47886e-10 -1.01839e-08
-1.52163e-09 1.22544e-09 3.55091e-09
-1.73535e-10 -7.39552e-10 1.38095e-10
-1.70061e-09 2.61404e-09 5.26653e-11
-1.11723e-09 8.65765e-09 -3.06428e-08
-1.59174e-09 4.5748e-09 -2.73509e-09
-3.61275e-10 -6.85912e-10 -8.0458e-11
8.34482e-10 9.43999e-10 -5.27466e-10
7.72173e-09 6.20363e-10 -3.23948e-08
1.12999e-10 2.52725e-09 -5.47643e-09
-2.34175e-09 7.44218e-09 -1.09552e-08
-3.05988e-09 4.5449e-09 6.31063e-10
-2.50866e-11 1.50804e-09 -3.34403e-10
-7.07004e-10 7.53536e-11 2.62515e-10
