solid feed
  facet normal 0 0 1
    outer loop
      vertex 1.9051000000e-02 1.9051005000e-02 1.8431920000e-02
      vertex 1.9051000000e-02 1.3944375000e-02 1.8431920000e-02
      vertex 1.9551540000e-02 1.3968965000e-02 1.8431920000e-02
    endloop
  endfacet
  facet normal 0 0 1
    outer loop
      vertex 1.9051000000e-02 1.9051005000e-02 1.8431920000e-02
      vertex 1.9551540000e-02 1.3968965000e-02 1.8431920000e-02
      vertex 2.0047250000e-02 1.4042495000e-02 1.8431920000e-02
    endloop
  endfacet
  facet normal 0 0 1
    outer loop
      vertex 1.9051000000e-02 1.9051005000e-02 1.8431920000e-02
      vertex 2.0047250000e-02 1.4042495000e-02 1.8431920000e-02
      vertex 2.0533370000e-02 1.4164265000e-02 1.8431920000e-02
    endloop
  endfacet
  facet normal 0 0 1
    outer loop
      vertex 1.9051000000e-02 1.9051005000e-02 1.8431920000e-02
      vertex 2.0533370000e-02 1.4164265000e-02 1.8431920000e-02
      vertex 2.1005220000e-02 1.4333095000e-02 1.8431920000e-02
    endloop
  endfacet
  facet normal 0 0 1
    outer loop
      vertex 1.9051000000e-02 1.9051005000e-02 1.8431920000e-02
      vertex 2.1005220000e-02 1.4333095000e-02 1.8431920000e-02
      vertex 2.1458250000e-02 1.4547355000e-02 1.8431920000e-02
    endloop
  endfacet
  facet normal 0 0 1
    outer loop
      vertex 1.9051000000e-02 1.9051005000e-02 1.8431920000e-02
      vertex 2.1458250000e-02 1.4547355000e-02 1.8431920000e-02
      vertex 2.1888090000e-02 1.4804995000e-02 1.8431920000e-02
    endloop
  endfacet
  facet normal 0 0 1
    outer loop
      vertex 1.9051000000e-02 1.9051005000e-02 1.8431920000e-02
      vertex 2.1888090000e-02 1.4804995000e-02 1.8431920000e-02
      vertex 2.2290610000e-02 1.5103525000e-02 1.8431920000e-02
    endloop
  endfacet
  facet normal 0 0 1
    outer loop
      vertex 1.9051000000e-02 1.9051005000e-02 1.8431920000e-02
      vertex 2.2290610000e-02 1.5103525000e-02 1.8431920000e-02
      vertex 2.2661930000e-02 1.5440075000e-02 1.8431920000e-02
    endloop
  endfacet
  facet normal 0 0 1
    outer loop
      vertex 1.9051000000e-02 1.9051005000e-02 1.8431920000e-02
      vertex 2.2661930000e-02 1.5440075000e-02 1.8431920000e-02
      vertex 2.2998470000e-02 1.5811395000e-02 1.8431920000e-02
    endloop
  endfacet
  facet normal 0 0 1
    outer loop
      vertex 1.9051000000e-02 1.9051005000e-02 1.8431920000e-02
      vertex 2.2998470000e-02 1.5811395000e-02 1.8431920000e-02
      vertex 2.3297000000e-02 1.6213915000e-02 1.8431920000e-02
    endloop
  endfacet
  facet normal 0 0 1
    outer loop
      vertex 1.9051000000e-02 1.9051005000e-02 1.8431920000e-02
      vertex 2.3297000000e-02 1.6213915000e-02 1.8431920000e-02
      vertex 2.3554640000e-02 1.6643755000e-02 1.8431920000e-02
    endloop
  endfacet
  facet normal 0 0 1
    outer loop
      vertex 1.9051000000e-02 1.9051005000e-02 1.8431920000e-02
      vertex 2.3554640000e-02 1.6643755000e-02 1.8431920000e-02
      vertex 2.3768910000e-02 1.7096775000e-02 1.8431920000e-02
    endloop
  endfacet
  facet normal 0 0 1
    outer loop
      vertex 1.9051000000e-02 1.9051005000e-02 1.8431920000e-02
      vertex 2.3768910000e-02 1.7096775000e-02 1.8431920000e-02
      vertex 2.3937740000e-02 1.7568625000e-02 1.8431920000e-02
    endloop
  endfacet
  facet normal 0 0 1
    outer loop
      vertex 1.9051000000e-02 1.9051005000e-02 1.8431920000e-02
      vertex 2.3937740000e-02 1.7568625000e-02 1.8431920000e-02
      vertex 2.4059500000e-02 1.8054745000e-02 1.8431920000e-02
    endloop
  endfacet
  facet normal 0 0 1
    outer loop
      vertex 1.9051000000e-02 1.9051005000e-02 1.8431920000e-02
      vertex 2.4059500000e-02 1.8054745000e-02 1.8431920000e-02
      vertex 2.4133040000e-02 1.8550465000e-02 1.8431920000e-02
    endloop
  endfacet
  facet normal 0 0 1
    outer loop
      vertex 1.9051000000e-02 1.9051005000e-02 1.8431920000e-02
      vertex 2.4133040000e-02 1.8550465000e-02 1.8431920000e-02
      vertex 2.4157630000e-02 1.9051005000e-02 1.8431920000e-02
    endloop
  endfacet
  facet normal 0 0 1
    outer loop
      vertex 1.9051000000e-02 1.9051005000e-02 1.8431920000e-02
      vertex 2.4157630000e-02 1.9051005000e-02 1.8431920000e-02
      vertex 2.4133040000e-02 1.9551535000e-02 1.8431920000e-02
    endloop
  endfacet
  facet normal 0 0 1
    outer loop
      vertex 1.9051000000e-02 1.9051005000e-02 1.8431920000e-02
      vertex 2.4133040000e-02 1.9551535000e-02 1.8431920000e-02
      vertex 2.4059500000e-02 2.0047255000e-02 1.8431920000e-02
    endloop
  endfacet
  facet normal 0 0 1
    outer loop
      vertex 1.9051000000e-02 1.9051005000e-02 1.8431920000e-02
      vertex 2.4059500000e-02 2.0047255000e-02 1.8431920000e-02
      vertex 2.3937740000e-02 2.0533375000e-02 1.8431920000e-02
    endloop
  endfacet
  facet normal 0 0 1
    outer loop
      vertex 1.9051000000e-02 1.9051005000e-02 1.8431920000e-02
      vertex 2.3937740000e-02 2.0533375000e-02 1.8431920000e-02
      vertex 2.3768910000e-02 2.1005225000e-02 1.8431920000e-02
    endloop
  endfacet
  facet normal 0 0 1
    outer loop
      vertex 1.9051000000e-02 1.9051005000e-02 1.8431920000e-02
      vertex 2.3768910000e-02 2.1005225000e-02 1.8431920000e-02
      vertex 2.3554640000e-02 2.1458245000e-02 1.8431920000e-02
    endloop
  endfacet
  facet normal 0 0 1
    outer loop
      vertex 1.9051000000e-02 1.9051005000e-02 1.8431920000e-02
      vertex 2.3554640000e-02 2.1458245000e-02 1.8431920000e-02
      vertex 2.3297000000e-02 2.1888095000e-02 1.8431920000e-02
    endloop
  endfacet
  facet normal 0 0 1
    outer loop
      vertex 1.9051000000e-02 1.9051005000e-02 1.8431920000e-02
      vertex 2.3297000000e-02 2.1888095000e-02 1.8431920000e-02
      vertex 2.2998470000e-02 2.2290615000e-02 1.8431920000e-02
    endloop
  endfacet
  facet normal 0 0 1
    outer loop
      vertex 1.9051000000e-02 1.9051005000e-02 1.8431920000e-02
      vertex 2.2998470000e-02 2.2290615000e-02 1.8431920000e-02
      vertex 2.2661930000e-02 2.2661935000e-02 1.8431920000e-02
    endloop
  endfacet
  facet normal 0 0 1
    outer loop
      vertex 1.9051000000e-02 1.9051005000e-02 1.8431920000e-02
      vertex 2.2661930000e-02 2.2661935000e-02 1.8431920000e-02
      vertex 2.2290610000e-02 2.2998475000e-02 1.8431920000e-02
    endloop
  endfacet
  facet normal 0 0 1
    outer loop
      vertex 1.9051000000e-02 1.9051005000e-02 1.8431920000e-02
      vertex 2.2290610000e-02 2.2998475000e-02 1.8431920000e-02
      vertex 2.1888090000e-02 2.3297005000e-02 1.8431920000e-02
    endloop
  endfacet
  facet normal 0 0 1
    outer loop
      vertex 1.9051000000e-02 1.9051005000e-02 1.8431920000e-02
      vertex 2.1888090000e-02 2.3297005000e-02 1.8431920000e-02
      vertex 2.1458250000e-02 2.3554645000e-02 1.8431920000e-02
    endloop
  endfacet
  facet normal 0 0 1
    outer loop
      vertex 1.9051000000e-02 1.9051005000e-02 1.8431920000e-02
      vertex 2.1458250000e-02 2.3554645000e-02 1.8431920000e-02
      vertex 2.1005220000e-02 2.3768905000e-02 1.8431920000e-02
    endloop
  endfacet
  facet normal 0 0 1
    outer loop
      vertex 1.9051000000e-02 1.9051005000e-02 1.8431920000e-02
      vertex 2.1005220000e-02 2.3768905000e-02 1.8431920000e-02
      vertex 2.0533370000e-02 2.3937735000e-02 1.8431920000e-02
    endloop
  endfacet
  facet normal 0 0 1
    outer loop
      vertex 1.9051000000e-02 1.9051005000e-02 1.8431920000e-02
      vertex 2.0533370000e-02 2.3937735000e-02 1.8431920000e-02
      vertex 2.0047250000e-02 2.4059505000e-02 1.8431920000e-02
    endloop
  endfacet
  facet normal 0 0 1
    outer loop
      vertex 1.9051000000e-02 1.9051005000e-02 1.8431920000e-02
      vertex 2.0047250000e-02 2.4059505000e-02 1.8431920000e-02
      vertex 1.9551540000e-02 2.4133035000e-02 1.8431920000e-02
    endloop
  endfacet
  facet normal 0 0 1
    outer loop
      vertex 1.9051000000e-02 1.9051005000e-02 1.8431920000e-02
      vertex 1.9551540000e-02 2.4133035000e-02 1.8431920000e-02
      vertex 1.9051000000e-02 2.4157625000e-02 1.8431920000e-02
    endloop
  endfacet
  facet normal 0 0 1
    outer loop
      vertex 1.9051000000e-02 1.9051005000e-02 1.8431920000e-02
      vertex 1.9051000000e-02 2.4157625000e-02 1.8431920000e-02
      vertex 1.8550460000e-02 2.4133035000e-02 1.8431920000e-02
    endloop
  endfacet
  facet normal 0 0 1
    outer loop
      vertex 1.9051000000e-02 1.9051005000e-02 1.8431920000e-02
      vertex 1.8550460000e-02 2.4133035000e-02 1.8431920000e-02
      vertex 1.8054740000e-02 2.4059505000e-02 1.8431920000e-02
    endloop
  endfacet
  facet normal 0 0 1
    outer loop
      vertex 1.9051000000e-02 1.9051005000e-02 1.8431920000e-02
      vertex 1.8054740000e-02 2.4059505000e-02 1.8431920000e-02
      vertex 1.7568620000e-02 2.3937735000e-02 1.8431920000e-02
    endloop
  endfacet
  facet normal 0 0 1
    outer loop
      vertex 1.9051000000e-02 1.9051005000e-02 1.8431920000e-02
      vertex 1.7568620000e-02 2.3937735000e-02 1.8431920000e-02
      vertex 1.7096780000e-02 2.3768905000e-02 1.8431920000e-02
    endloop
  endfacet
  facet normal 0 0 1
    outer loop
      vertex 1.9051000000e-02 1.9051005000e-02 1.8431920000e-02
      vertex 1.7096780000e-02 2.3768905000e-02 1.8431920000e-02
      vertex 1.6643750000e-02 2.3554645000e-02 1.8431920000e-02
    endloop
  endfacet
  facet normal 0 0 1
    outer loop
      vertex 1.9051000000e-02 1.9051005000e-02 1.8431920000e-02
      vertex 1.6643750000e-02 2.3554645000e-02 1.8431920000e-02
      vertex 1.6213910000e-02 2.3297005000e-02 1.8431920000e-02
    endloop
  endfacet
  facet normal 0 0 1
    outer loop
      vertex 1.9051000000e-02 1.9051005000e-02 1.8431920000e-02
      vertex 1.6213910000e-02 2.3297005000e-02 1.8431920000e-02
      vertex 1.5811390000e-02 2.2998475000e-02 1.8431920000e-02
    endloop
  endfacet
  facet normal 0 0 1
    outer loop
      vertex 1.9051000000e-02 1.9051005000e-02 1.8431920000e-02
      vertex 1.5811390000e-02 2.2998475000e-02 1.8431920000e-02
      vertex 1.5440070000e-02 2.2661935000e-02 1.8431920000e-02
    endloop
  endfacet
  facet normal 0 0 1
    outer loop
      vertex 1.9051000000e-02 1.9051005000e-02 1.8431920000e-02
      vertex 1.5440070000e-02 2.2661935000e-02 1.8431920000e-02
      vertex 1.5103520000e-02 2.2290615000e-02 1.8431920000e-02
    endloop
  endfacet
  facet normal 0 0 1
    outer loop
      vertex 1.9051000000e-02 1.9051005000e-02 1.8431920000e-02
      vertex 1.5103520000e-02 2.2290615000e-02 1.8431920000e-02
      vertex 1.4804990000e-02 2.1888095000e-02 1.8431920000e-02
    endloop
  endfacet
  facet normal 0 0 1
    outer loop
      vertex 1.9051000000e-02 1.9051005000e-02 1.8431920000e-02
      vertex 1.4804990000e-02 2.1888095000e-02 1.8431920000e-02
      vertex 1.4547360000e-02 2.1458245000e-02 1.8431920000e-02
    endloop
  endfacet
  facet normal 0 0 1
    outer loop
      vertex 1.9051000000e-02 1.9051005000e-02 1.8431920000e-02
      vertex 1.4547360000e-02 2.1458245000e-02 1.8431920000e-02
      vertex 1.4333090000e-02 2.1005225000e-02 1.8431920000e-02
    endloop
  endfacet
  facet normal 0 0 1
    outer loop
      vertex 1.9051000000e-02 1.9051005000e-02 1.8431920000e-02
      vertex 1.4333090000e-02 2.1005225000e-02 1.8431920000e-02
      vertex 1.4164260000e-02 2.0533375000e-02 1.8431920000e-02
    endloop
  endfacet
  facet normal 0 0 1
    outer loop
      vertex 1.9051000000e-02 1.9051005000e-02 1.8431920000e-02
      vertex 1.4164260000e-02 2.0533375000e-02 1.8431920000e-02
      vertex 1.4042490000e-02 2.0047255000e-02 1.8431920000e-02
    endloop
  endfacet
  facet normal 0 0 1
    outer loop
      vertex 1.9051000000e-02 1.9051005000e-02 1.8431920000e-02
      vertex 1.4042490000e-02 2.0047255000e-02 1.8431920000e-02
      vertex 1.3968960000e-02 1.9551535000e-02 1.8431920000e-02
    endloop
  endfacet
  facet normal 0 0 1
    outer loop
      vertex 1.9051000000e-02 1.9051005000e-02 1.8431920000e-02
      vertex 1.3968960000e-02 1.9551535000e-02 1.8431920000e-02
      vertex 1.3944370000e-02 1.9051005000e-02 1.8431920000e-02
    endloop
  endfacet
  facet normal 0 0 1
    outer loop
      vertex 1.9051000000e-02 1.9051005000e-02 1.8431920000e-02
      vertex 1.3944370000e-02 1.9051005000e-02 1.8431920000e-02
      vertex 1.3968960000e-02 1.8550465000e-02 1.8431920000e-02
    endloop
  endfacet
  facet normal 0 0 1
    outer loop
      vertex 1.9051000000e-02 1.9051005000e-02 1.8431920000e-02
      vertex 1.3968960000e-02 1.8550465000e-02 1.8431920000e-02
      vertex 1.4042490000e-02 1.8054745000e-02 1.8431920000e-02
    endloop
  endfacet
  facet normal 0 0 1
    outer loop
      vertex 1.9051000000e-02 1.9051005000e-02 1.8431920000e-02
      vertex 1.4042490000e-02 1.8054745000e-02 1.8431920000e-02
      vertex 1.4164260000e-02 1.7568625000e-02 1.8431920000e-02
    endloop
  endfacet
  facet normal 0 0 1
    outer loop
      vertex 1.9051000000e-02 1.9051005000e-02 1.8431920000e-02
      vertex 1.4164260000e-02 1.7568625000e-02 1.8431920000e-02
      vertex 1.4333090000e-02 1.7096775000e-02 1.8431920000e-02
    endloop
  endfacet
  facet normal 0 0 1
    outer loop
      vertex 1.9051000000e-02 1.9051005000e-02 1.8431920000e-02
      vertex 1.4333090000e-02 1.7096775000e-02 1.8431920000e-02
      vertex 1.4547360000e-02 1.6643755000e-02 1.8431920000e-02
    endloop
  endfacet
  facet normal 0 0 1
    outer loop
      vertex 1.9051000000e-02 1.9051005000e-02 1.8431920000e-02
      vertex 1.4547360000e-02 1.6643755000e-02 1.8431920000e-02
      vertex 1.4804990000e-02 1.6213915000e-02 1.8431920000e-02
    endloop
  endfacet
  facet normal 0 0 1
    outer loop
      vertex 1.9051000000e-02 1.9051005000e-02 1.8431920000e-02
      vertex 1.4804990000e-02 1.6213915000e-02 1.8431920000e-02
      vertex 1.5103520000e-02 1.5811395000e-02 1.8431920000e-02
    endloop
  endfacet
  facet normal 0 0 1
    outer loop
      vertex 1.9051000000e-02 1.9051005000e-02 1.8431920000e-02
      vertex 1.5103520000e-02 1.5811395000e-02 1.8431920000e-02
      vertex 1.5440070000e-02 1.5440075000e-02 1.8431920000e-02
    endloop
  endfacet
  facet normal 0 0 1
    outer loop
      vertex 1.9051000000e-02 1.9051005000e-02 1.8431920000e-02
      vertex 1.5440070000e-02 1.5440075000e-02 1.8431920000e-02
      vertex 1.5811390000e-02 1.5103525000e-02 1.8431920000e-02
    endloop
  endfacet
  facet normal 0 0 1
    outer loop
      vertex 1.9051000000e-02 1.9051005000e-02 1.8431920000e-02
      vertex 1.5811390000e-02 1.5103525000e-02 1.8431920000e-02
      vertex 1.6213910000e-02 1.4804995000e-02 1.8431920000e-02
    endloop
  endfacet
  facet normal 0 0 1
    outer loop
      vertex 1.9051000000e-02 1.9051005000e-02 1.8431920000e-02
      vertex 1.6213910000e-02 1.4804995000e-02 1.8431920000e-02
      vertex 1.6643750000e-02 1.4547355000e-02 1.8431920000e-02
    endloop
  endfacet
  facet normal 0 0 1
    outer loop
      vertex 1.9051000000e-02 1.9051005000e-02 1.8431920000e-02
      vertex 1.6643750000e-02 1.4547355000e-02 1.8431920000e-02
      vertex 1.7096780000e-02 1.4333095000e-02 1.8431920000e-02
    endloop
  endfacet
  facet normal 0 0 1
    outer loop
      vertex 1.9051000000e-02 1.9051005000e-02 1.8431920000e-02
      vertex 1.7096780000e-02 1.4333095000e-02 1.8431920000e-02
      vertex 1.7568620000e-02 1.4164265000e-02 1.8431920000e-02
    endloop
  endfacet
  facet normal 0 0 1
    outer loop
      vertex 1.9051000000e-02 1.9051005000e-02 1.8431920000e-02
      vertex 1.7568620000e-02 1.4164265000e-02 1.8431920000e-02
      vertex 1.8054740000e-02 1.4042495000e-02 1.8431920000e-02
    endloop
  endfacet
  facet normal 0 0 1
    outer loop
      vertex 1.9051000000e-02 1.9051005000e-02 1.8431920000e-02
      vertex 1.8054740000e-02 1.4042495000e-02 1.8431920000e-02
      vertex 1.8550460000e-02 1.3968965000e-02 1.8431920000e-02
    endloop
  endfacet
  facet normal 0 0 1
    outer loop
      vertex 1.9051000000e-02 1.9051005000e-02 1.8431920000e-02
      vertex 1.8550460000e-02 1.3968965000e-02 1.8431920000e-02
      vertex 1.9051000000e-02 1.3944375000e-02 1.8431920000e-02
    endloop
  endfacet
endsolid feed
