# vtk DataFile Version 3.0
LIGGGHTS particles timestep 19800000
ASCII
DATASET POLYDATA
POINTS 289 float
0.103863 0.0168054 0.00759651
0.10421 0.0178387 0.0070089
0.104021 0.0176478 0.00714072
0.104116 0.0178085 0.00701822
0.103458 0.0162495 0.00799218
0.109537 0.0165534 0.00774469
0.103598 0.0168026 0.00758607
0.103438 0.0161704 0.00805022
0.109856 0.0178909 0.00716039
0.10379 0.0174748 0.00720972
0.10385 0.0170939 0.00738065
0.109813 0.0177081 0.00722881
0.103742 0.0173659 0.00728009
0.0973538 0.0158392 0.00830274
0.103755 0.0170667 0.00739644
0.0973337 0.0157632 0.00836453
0.103737 0.0172832 0.00733696
0.109748 0.0174337 0.00733145
0.103639 0.016985 0.00756716
0.10401 0.0173578 0.00719134
0.103477 0.0163286 0.00793408
0.103734 0.0169878 0.00745435
0.10977 0.0175252 0.00729724
0.103714 0.0169089 0.00751226
0.10964 0.0169766 0.00750252
0.0976481 0.0169613 0.00735189
0.103679 0.0171351 0.00745296
0.109517 0.0164706 0.00779717
0.103897 0.017416 0.00725697
0.10368 0.0171182 0.00735441
0.109556 0.0166362 0.0076922
0.103935 0.0175869 0.00716124
0.103788 0.0168571 0.00755441
0.1099 0.0180738 0.00709196
0.103578 0.0167237 0.00764398
0.103693 0.01683 0.00757017
0.109683 0.0171594 0.00743409
0.103619 0.0168815 0.00752815
0.103727 0.0166204 0.00772815
0.103639 0.0169604 0.00747023
0.103891 0.0172517 0.00726484
0.104156 0.0179997 0.00697477
0.109577 0.016719 0.00763983
0.109662 0.017068 0.0074683
0.103517 0.0164869 0.00781779
0.103986 0.0172794 0.00724869
0.10962 0.0168848 0.00753674
0.10386 0.0174687 0.00711995
0.0979579 0.0171247 0.0072557
0.109705 0.0172509 0.00739988
0.103904 0.0169635 0.00748053
0.0973734 0.0159153 0.0082409
0.103947 0.0177144 0.00712822
0.109597 0.0168016 0.00758754
0.0976636 0.0166874 0.00758533
0.109792 0.0176166 0.00726303
0.103966 0.0172005 0.00730662
0.103497 0.0164077 0.00787593
0.10387 0.0171728 0.00732274
0.104095 0.0177126 0.00704003
0.109727 0.0173423 0.00736567
0.103418 0.0160914 0.00810827
0.0977987 0.0168603 0.00743851
0.10403 0.0174368 0.00713331
0.0977587 0.0167111 0.0075655
0.10366 0.0170393 0.00741232
0.109921 0.0181652 0.00705775
0.0973929 0.0159906 0.00817801
0.109835 0.0177995 0.0071946
0.103537 0.0165659 0.00775981
0.104291 0.0182238 0.00694402
0.103557 0.0166448 0.0077019
0.10987 0.017557 0.00727849
0.103948 0.0182894 0.00691642
0.0974319 0.01614 0.00805087
0.0975297 0.0165134 0.00773309
0.104041 0.017874 0.0070058
0.0979391 0.0176804 0.0072062
0.0976692 0.0170358 0.00728858
0.0974514 0.0162147 0.00798732
0.109848 0.0174646 0.00731311
0.0975072 0.0160899 0.00809379
0.103869 0.0177754 0.00711593
0.109878 0.0179824 0.00712618
0.103925 0.0177485 0.00703679
0.104 0.017683 0.00704921
0.103978 0.0175878 0.00707089
0.103796 0.0172245 0.00728061
0.104081 0.0180651 0.00696274
0.104027 0.0182266 0.00693149
0.103904 0.0176533 0.00705846
0.103928 0.0181938 0.00693813
0.103966 0.0179394 0.0069934
0.103968 0.0181064 0.00703982
0.0977028 0.0168367 0.00745824
0.104176 0.0180953 0.00695307
0.0978535 0.0167354 0.00754512
0.103721 0.0172761 0.00723858
0.103829 0.0170149 0.00743858
0.097841 0.0170094 0.00731218
0.0974124 0.0160653 0.00811443
0.103762 0.0174339 0.00712276
0.0974681 0.0159405 0.00822092
0.103917 0.0174984 0.00720374
0.103911 0.0173306 0.00720691
0.103805 0.0176214 0.00706897
0.103909 0.0180982 0.00695984
0.0975884 0.0167374 0.00754242
0.103827 0.0177164 0.00704666
0.0977328 0.0173174 0.00720848
0.104082 0.0179335 0.00707515
0.104147 0.0175504 0.00707448
0.103399 0.0160123 0.00816639
0.097808 0.0172534 0.00722417
0.109497 0.0163878 0.00784965
0.103809 0.016936 0.0074965
0.103379 0.0159332 0.00822446
0.104216 0.0182904 0.00693745
0.0975853 0.0163887 0.00783956
0.104121 0.0182589 0.00693672
0.103632 0.0165932 0.0077439
0.103775 0.0171456 0.00733852
0.0974906 0.016364 0.0078602
0.103882 0.0175584 0.00708159
0.0977446 0.0169859 0.00733126
0.1037 0.0171971 0.0072965
0.0978197 0.0169347 0.00737515
0.104231 0.0179344 0.00698715
0.103673 0.0167511 0.00762808
0.103935 0.017409 0.00714956
0.103883 0.0168843 0.00753861
0.0974486 0.0158656 0.00828427
0.104102 0.0181611 0.00694333
0.104021 0.0177784 0.00702752
0.103957 0.0174932 0.00709506
0.103949 0.0180107 0.00706132
0.0975266 0.0161646 0.00803023
0.103816 0.0173034 0.00722271
0.103837 0.0173824 0.0071647
0.103784 0.0175268 0.00709282
0.104107 0.0186181 0.00692908
0.0974876 0.0160152 0.00815736
0.103742 0.0173549 0.00718069
0.103946 0.0178439 0.0070151
0.103359 0.0158543 0.00828245
0.0978514 0.0174429 0.00717732
0.103339 0.0157753 0.00834043
0.0977111 0.0172226 0.00723191
0.0975492 0.0165881 0.00766953
0.0977783 0.0167857 0.00750195
0.103998 0.0182904 0.00700297
0.0977233 0.0169113 0.0073948
0.103592 0.0164353 0.00785986
0.0979699 0.0175681 0.00714622
0.104087 0.01852 0.0069266
0.0979796 0.0172195 0.00723227
0.103969 0.0183879 0.00691488
0.097883 0.0171891 0.00723994
0.103747 0.0166993 0.00767024
0.0977197 0.0165617 0.00769264
0.103869 0.017907 0.00700326
0.0982046 0.0178189 0.00708396
0.0978297 0.0173481 0.00720074
0.104196 0.0181925 0.00693502
0.0981297 0.0178832 0.00706819
0.104236 0.0183883 0.00693987
0.0979263 0.0173786 0.00719307
0.098339 0.0180406 0.00702901
0.0976276 0.0168868 0.00741532
0.0980012 0.0173142 0.00720884
0.0978613 0.0170943 0.00726335
0.0977545 0.0174122 0.00718505
0.103849 0.0178116 0.00702495
0.0976244 0.016538 0.00771244
0.103652 0.0166721 0.007686
0.0980664 0.0175986 0.00713856
0.10419 0.0177428 0.0070307
0.0978731 0.0175377 0.00715389
0.0979642 0.0177974 0.00717699
0.109943 0.0182567 0.00702354
0.104031 0.0186819 0.00692227
0.103945 0.0171216 0.00736453
0.0977762 0.0175069 0.00716162
0.104141 0.0183567 0.00693083
0.0978448 0.0177133 0.00721007
0.103986 0.0180349 0.0069717
0.103552 0.0162773 0.00797592
0.0982244 0.0179142 0.00706039
0.0977 0.016487 0.00775618
0.103533 0.0161983 0.00803396
0.097644 0.0166127 0.00764889
0.0981621 0.0176281 0.00713113
0.0975101 0.0164389 0.00779692
0.0979994 0.018107 0.00701314
0.0980269 0.0175769 0.00722786
0.103768 0.0167782 0.00761232
0.0980314 0.0177239 0.00719169
0.0976894 0.0171279 0.00725532
0.0979047 0.0172838 0.0072165
0.0978738 0.01681 0.00748166
0.098088 0.0176933 0.00711513
0.097608 0.0168121 0.00747887
0.104169 0.0176464 0.00705261
0.104046 0.0183243 0.00692169
0.109916 0.0177424 0.00720901
0.103889 0.0180026 0.00698155
0.0977642 0.0170634 0.00727113
0.0977863 0.0171586 0.00724759
0.104182 0.0185524 0.00693573
0.103989 0.0184858 0.00691734
0.104006 0.0181305 0.00695063
0.103612 0.0165143 0.00780185
0.0976049 0.0164633 0.007776
0.103572 0.0163563 0.00791788
0.0975688 0.0166628 0.00760597
0.097471 0.0162893 0.00792376
0.109893 0.0176499 0.00724368
0.0980131 0.0177577 0.00709937
0.0973137 0.0156872 0.00842632
0.0978948 0.0176324 0.00713046
0.0976831 0.0167621 0.00752178
0.098264 0.0181049 0.00701326
0.0978196 0.0176965 0.00711477
0.0977391 0.0166364 0.00762907
0.104066 0.0184221 0.00692416
0.104061 0.0179695 0.0069841
0.0979637 0.0183614 0.0069504
0.0979046 0.0180759 0.00702097
0.0981139 0.0182333 0.00698181
0.0979165 0.0177272 0.00710704
0.0916883 0.0171489 0.00735368
0.0978847 0.0179808 0.00704449
0.0979382 0.017822 0.00708361
0.0916671 0.0170654 0.00740447
0.0917095 0.0172324 0.00730291
0.0979599 0.0179167 0.00706018
0.0917519 0.0173995 0.00720138
0.103493 0.0160402 0.00815006
0.104162 0.0184546 0.00693327
0.0978413 0.0177912 0.00709135
0.103513 0.0161192 0.00809201
0.103925 0.0170426 0.00742244
0.0917307 0.017316 0.00725214
0.0980448 0.0175038 0.00716199
0.0979914 0.0176629 0.00712279
0.0978946 0.0168845 0.00741827
0.097863 0.017886 0.00706792
0.0982742 0.0182198 0.00698487
0.0980942 0.0181381 0.00700534
0.0981839 0.017723 0.00710767
0.104136 0.0179042 0.00699648
0.097944 0.0182663 0.00697392
0.098189 0.0181691 0.00699753
0.0918138 0.0176446 0.00704017
0.0980191 0.0182022 0.00698962
0.0977979 0.0176017 0.0071382
0.10401 0.0185841 0.00691981
0.0979359 0.0170338 0.00729115
0.0981097 0.0177881 0.0070917
0.0980548 0.0179476 0.00705242
0.0980745 0.0180429 0.00702886
0.0980495 0.0184128 0.00693758
0.0981244 0.0183485 0.00695334
0.0980348 0.0178525 0.00707593
0.0981693 0.0180739 0.00702106
0.0982443 0.0180096 0.00703681
0.0979824 0.0184428 0.00700539
0.104015 0.0183906 0.00700378
0.091773 0.017483 0.00715061
0.0918325 0.0177354 0.00700276
0.0980231 0.017409 0.00718542
0.0918524 0.0178312 0.0069822
0.0917941 0.0175651 0.00709764
0.0979798 0.0180118 0.00703667
0.0979243 0.0181711 0.00699745
0.0981495 0.0179786 0.00704461
0.103839 0.0175529 0.00717179
0.0980389 0.0182975 0.00696606
0.0975462 0.0162393 0.00796667
0.0981992 0.0182841 0.00696912
0.0981401 0.017533 0.00715463
0.104074 0.0176168 0.0070618
0.0979905 0.0184913 0.0069183
0.0975658 0.016314 0.00790312
0.104176 0.0179638 0.00706582
0.104125 0.0174623 0.00711883
0.0979482 0.0174733 0.00716965
0.0979159 0.0169589 0.00735495
0.104052 0.0175224 0.00708667

VERTICES 289 578
1 0
1 1
1 2
1 3
1 4
1 5
1 6
1 7
1 8
1 9
1 10
1 11
1 12
1 13
1 14
1 15
1 16
1 17
1 18
1 19
1 20
1 21
1 22
1 23
1 24
1 25
1 26
1 27
1 28
1 29
1 30
1 31
1 32
1 33
1 34
1 35
1 36
1 37
1 38
1 39
1 40
1 41
1 42
1 43
1 44
1 45
1 46
1 47
1 48
1 49
1 50
1 51
1 52
1 53
1 54
1 55
1 56
1 57
1 58
1 59
1 60
1 61
1 62
1 63
1 64
1 65
1 66
1 67
1 68
1 69
1 70
1 71
1 72
1 73
1 74
1 75
1 76
1 77
1 78
1 79
1 80
1 81
1 82
1 83
1 84
1 85
1 86
1 87
1 88
1 89
1 90
1 91
1 92
1 93
1 94
1 95
1 96
1 97
1 98
1 99
1 100
1 101
1 102
1 103
1 104
1 105
1 106
1 107
1 108
1 109
1 110
1 111
1 112
1 113
1 114
1 115
1 116
1 117
1 118
1 119
1 120
1 121
1 122
1 123
1 124
1 125
1 126
1 127
1 128
1 129
1 130
1 131
1 132
1 133
1 134
1 135
1 136
1 137
1 138
1 139
1 140
1 141
1 142
1 143
1 144
1 145
1 146
1 147
1 148
1 149
1 150
1 151
1 152
1 153
1 154
1 155
1 156
1 157
1 158
1 159
1 160
1 161
1 162
1 163
1 164
1 165
1 166
1 167
1 168
1 169
1 170
1 171
1 172
1 173
1 174
1 175
1 176
1 177
1 178
1 179
1 180
1 181
1 182
1 183
1 184
1 185
1 186
1 187
1 188
1 189
1 190
1 191
1 192
1 193
1 194
1 195
1 196
1 197
1 198
1 199
1 200
1 201
1 202
1 203
1 204
1 205
1 206
1 207
1 208
1 209
1 210
1 211
1 212
1 213
1 214
1 215
1 216
1 217
1 218
1 219
1 220
1 221
1 222
1 223
1 224
1 225
1 226
1 227
1 228
1 229
1 230
1 231
1 232
1 233
1 234
1 235
1 236
1 237
1 238
1 239
1 240
1 241
1 242
1 243
1 244
1 245
1 246
1 247
1 248
1 249
1 250
1 251
1 252
1 253
1 254
1 255
1 256
1 257
1 258
1 259
1 260
1 261
1 262
1 263
1 264
1 265
1 266
1 267
1 268
1 269
1 270
1 271
1 272
1 273
1 274
1 275
1 276
1 277
1 278
1 279
1 280
1 281
1 282
1 283
1 284
1 285
1 286
1 287
1 288

POINT_DATA 289
SCALARS id int 1
LOOKUP_TABLE default
1
2
3
4
5
6
7
8
9
10
11
12
13
14
15
16
17
18
19
20
21
22
24
25
26
27
29
30
31
32
33
34
35
36
37
38
39
40
41
42
43
44
45
46
47
48
49
50
52
53
54
55
56
57
58
59
60
61
62
63
64
65
66
67
68
69
70
71
72
73
74
75
76
77
78
79
80
81
82
83
84
85
86
87
88
89
90
91
92
93
94
95
96
98
99
100
101
102
103
104
105
106
107
108
109
110
111
112
113
114
115
116
117
118
119
120
121
122
123
124
125
126
127
128
129
130
131
132
133
134
135
136
137
138
139
140
141
142
144
145
146
147
148
149
150
152
153
154
155
156
157
158
159
160
161
162
164
165
166
167
168
169
170
171
172
173
174
175
176
177
178
179
180
181
182
183
184
185
186
187
188
189
190
191
192
193
194
195
196
197
198
199
200
201
202
203
204
205
206
207
208
209
210
211
213
214
215
216
217
218
219
220
221
222
223
224
225
226
227
228
229
230
231
232
233
234
235
236
237
238
239
241
242
243
244
245
246
247
248
249
250
251
252
253
254
255
256
257
258
259
260
261
262
263
264
265
267
268
269
270
271
272
273
274
275
276
277
278
279
280
281
282
283
284
285
286
287
288
289
290
292
293
294
295
296
297
298
299
300

SCALARS type int 1
LOOKUP_TABLE default
1
1
1
1
1
1
1
1
1
1
1
1
1
1
1
1
1
1
1
1
1
1
1
1
1
1
1
1
1
1
1
1
1
1
1
1
1
1
1
1
1
1
1
1
1
1
1
1
1
1
1
1
1
1
1
1
1
1
1
1
1
1
1
1
1
1
1
1
1
1
1
1
1
1
1
1
1
1
1
1
1
1
1
1
1
1
1
1
1
1
1
1
1
1
1
1
1
1
1
1
1
1
1
1
1
1
1
1
1
1
1
1
1
1
1
1
1
1
1
1
1
1
1
1
1
1
1
1
1
1
1
1
1
1
1
1
1
1
1
1
1
1
1
1
1
1
1
1
1
1
1
1
1
1
1
1
1
1
1
1
1
1
1
1
1
1
1
1
1
1
1
1
1
1
1
1
1
1
1
1
1
1
1
1
1
1
1
1
1
1
1
1
1
1
1
1
1
1
1
1
1
1
1
1
1
1
1
1
1
1
1
1
1
1
1
1
1
1
1
1
1
1
1
1
1
1
1
1
1
1
1
1
1
1
1
1
1
1
1
1
1
1
1
1
1
1
1
1
1
1
1
1
1
1
1
1
1
1
1
1
1
1
1
1
1
1
1
1
1
1
1
1
1
1
1
1
1
1
1
1
1
1
1
1
1
1
1
1
1

SCALARS radius float 1
LOOKUP_TABLE default
5e-05
5e-05
5e-05
5e-05
5e-05
5e-05
5e-05
5e-05
5e-05
5e-05
5e-05
5e-05
5e-05
5e-05
5e-05
5e-05
5e-05
5e-05
5e-05
5e-05
5e-05
5e-05
5e-05
5e-05
5e-05
5e-05
5e-05
5e-05
5e-05
5e-05
5e-05
5e-05
5e-05
5e-05
5e-05
5e-05
5e-05
5e-05
5e-05
5e-05
5e-05
5e-05
5e-05
5e-05
5e-05
5e-05
5e-05
5e-05
5e-05
5e-05
5e-05
5e-05
5e-05
5e-05
5e-05
5e-05
5e-05
5e-05
5e-05
5e-05
5e-05
5e-05
5e-05
5e-05
5e-05
5e-05
5e-05
5e-05
5e-05
5e-05
5e-05
5e-05
5e-05
5e-05
5e-05
5e-05
5e-05
5e-05
5e-05
5e-05
5e-05
5e-05
5e-05
5e-05
5e-05
5e-05
5e-05
5e-05
5e-05
5e-05
5e-05
5e-05
5e-05
5e-05
5e-05
5e-05
5e-05
5e-05
5e-05
5e-05
5e-05
5e-05
5e-05
5e-05
5e-05
5e-05
5e-05
5e-05
5e-05
5e-05
5e-05
5e-05
5e-05
5e-05
5e-05
5e-05
5e-05
5e-05
5e-05
5e-05
5e-05
5e-05
5e-05
5e-05
5e-05
5e-05
5e-05
5e-05
5e-05
5e-05
5e-05
5e-05
5e-05
5e-05
5e-05
5e-05
5e-05
5e-05
5e-05
5e-05
5e-05
5e-05
5e-05
5e-05
5e-05
5e-05
5e-05
5e-05
5e-05
5e-05
5e-05
5e-05
5e-05
5e-05
5e-05
5e-05
5e-05
5e-05
5e-05
5e-05
5e-05
5e-05
5e-05
5e-05
5e-05
5e-05
5e-05
5e-05
5e-05
5e-05
5e-05
5e-05
5e-05
5e-05
5e-05
5e-05
5e-05
5e-05
5e-05
5e-05
5e-05
5e-05
5e-05
5e-05
5e-05
5e-05
5e-05
5e-05
5e-05
5e-05
5e-05
5e-05
5e-05
5e-05
5e-05
5e-05
5e-05
5e-05
5e-05
5e-05
5e-05
5e-05
5e-05
5e-05
5e-05
5e-05
5e-05
5e-05
5e-05
5e-05
5e-05
5e-05
5e-05
5e-05
5e-05
5e-05
5e-05
5e-05
5e-05
5e-05
5e-05
5e-05
5e-05
5e-05
5e-05
5e-05
5e-05
5e-05
5e-05
5e-05
5e-05
5e-05
5e-05
5e-05
5e-05
5e-05
5e-05
5e-05
5e-05
5e-05
5e-05
5e-05
5e-05
5e-05
5e-05
5e-05
5e-05
5e-05
5e-05
5e-05
5e-05
5e-05
5e-05
5e-05
5e-05
5e-05
5e-05
5e-05
5e-05
5e-05
5e-05
5e-05
5e-05
5e-05
5e-05
5e-05
5e-05
5e-05
5e-05
5e-05
5e-05
5e-05
5e-05
5e-05
5e-05
5e-05
5e-05
5e-05
5e-05
5e-05
5e-05
5e-05
5e-05
5e-05
5e-05
5e-05
5e-05
5e-05
5e-05

SCALARS mass float 1
LOOKUP_TABLE default
1.46608e-10
1.46608e-10
1.46608e-10
1.46608e-10
1.46608e-10
1.46608e-10
1.46608e-10
1.46608e-10
1.46608e-10
1.46608e-10
1.46608e-10
1.46608e-10
1.46608e-10
1.46608e-10
1.46608e-10
1.46608e-10
1.46608e-10
1.46608e-10
1.46608e-10
1.46608e-10
1.46608e-10
1.46608e-10
1.46608e-10
1.46608e-10
1.46608e-10
1.46608e-10
1.46608e-10
1.46608e-10
1.46608e-10
1.46608e-10
1.46608e-10
1.46608e-10
1.46608e-10
1.46608e-10
1.46608e-10
1.46608e-10
1.46608e-10
1.46608e-10
1.46608e-10
1.46608e-10
1.46608e-10
1.46608e-10
1.46608e-10
1.46608e-10
1.46608e-10
1.46608e-10
1.46608e-10
1.46608e-10
1.46608e-10
1.46608e-10
1.46608e-10
1.46608e-10
1.46608e-10
1.46608e-10
1.46608e-10
1.46608e-10
1.46608e-10
1.46608e-10
1.46608e-10
1.46608e-10
1.46608e-10
1.46608e-10
1.46608e-10
1.46608e-10
1.46608e-10
1.46608e-10
1.46608e-10
1.46608e-10
1.46608e-10
1.46608e-10
1.46608e-10
1.46608e-10
1.46608e-10
1.46608e-10
1.46608e-10
1.46608e-10
1.46608e-10
1.46608e-10
1.46608e-10
1.46608e-10
1.46608e-10
1.46608e-10
1.46608e-10
1.46608e-10
1.46608e-10
1.46608e-10
1.46608e-10
1.46608e-10
1.46608e-10
1.46608e-10
1.46608e-10
1.46608e-10
1.46608e-10
1.46608e-10
1.46608e-10
1.46608e-10
1.46608e-10
1.46608e-10
1.46608e-10
1.46608e-10
1.46608e-10
1.46608e-10
1.46608e-10
1.46608e-10
1.46608e-10
1.46608e-10
1.46608e-10
1.46608e-10
1.46608e-10
1.46608e-10
1.46608e-10
1.46608e-10
1.46608e-10
1.46608e-10
1.46608e-10
1.46608e-10
1.46608e-10
1.46608e-10
1.46608e-10
1.46608e-10
1.46608e-10
1.46608e-10
1.46608e-10
1.46608e-10
1.46608e-10
1.46608e-10
1.46608e-10
1.46608e-10
1.46608e-10
1.46608e-10
1.46608e-10
1.46608e-10
1.46608e-10
1.46608e-10
1.46608e-10
1.46608e-10
1.46608e-10
1.46608e-10
1.46608e-10
1.46608e-10
1.46608e-10
1.46608e-10
1.46608e-10
1.46608e-10
1.46608e-10
1.46608e-10
1.46608e-10
1.46608e-10
1.46608e-10
1.46608e-10
1.46608e-10
1.46608e-10
1.46608e-10
1.46608e-10
1.46608e-10
1.46608e-10
1.46608e-10
1.46608e-10
1.46608e-10
1.46608e-10
1.46608e-10
1.46608e-10
1.46608e-10
1.46608e-10
1.46608e-10
1.46608e-10
1.46608e-10
1.46608e-10
1.46608e-10
1.46608e-10
1.46608e-10
1.46608e-10
1.46608e-10
1.46608e-10
1.46608e-10
1.46608e-10
1.46608e-10
1.46608e-10
1.46608e-10
1.46608e-10
1.46608e-10
1.46608e-10
1.46608e-10
1.46608e-10
1.46608e-10
1.46608e-10
1.46608e-10
1.46608e-10
1.46608e-10
1.46608e-10
1.46608e-10
1.46608e-10
1.46608e-10
1.46608e-10
1.46608e-10
1.46608e-10
1.46608e-10
1.46608e-10
1.46608e-10
1.46608e-10
1.46608e-10
1.46608e-10
1.46608e-10
1.46608e-10
1.46608e-10
1.46608e-10
1.46608e-10
1.46608e-10
1.46608e-10
1.46608e-10
1.46608e-10
1.46608e-10
1.46608e-10
1.46608e-10
1.46608e-10
1.46608e-10
1.46608e-10
1.46608e-10
1.46608e-10
1.46608e-10
1.46608e-10
1.46608e-10
1.46608e-10
1.46608e-10
1.46608e-10
1.46608e-10
1.46608e-10
1.46608e-10
1.46608e-10
1.46608e-10
1.46608e-10
1.46608e-10
1.46608e-10
1.46608e-10
1.46608e-10
1.46608e-10
1.46608e-10
1.46608e-10
1.46608e-10
1.46608e-10
1.46608e-10
1.46608e-10
1.46608e-10
1.46608e-10
1.46608e-10
1.46608e-10
1.46608e-10
1.46608e-10
1.46608e-10
1.46608e-10
1.46608e-10
1.46608e-10
1.46608e-10
1.46608e-10
1.46608e-10
1.46608e-10
1.46608e-10
1.46608e-10
1.46608e-10
1.46608e-10
1.46608e-10
1.46608e-10
1.46608e-10
1.46608e-10
1.46608e-10
1.46608e-10
1.46608e-10
1.46608e-10
1.46608e-10
1.46608e-10
1.46608e-10
1.46608e-10
1.46608e-10
1.46608e-10
1.46608e-10
1.46608e-10
1.46608e-10
1.46608e-10
1.46608e-10
1.46608e-10
1.46608e-10
1.46608e-10
1.46608e-10
1.46608e-10
1.46608e-10
1.46608e-10
1.46608e-10
1.46608e-10
1.46608e-10

VECTORS velocity float
0.0047025 -0.00011467 0.000308888
0.00441547 -0.000222232 -7.27518e-05
0.00462887 -0.000337577 -3.29322e-05
0.00437728 -0.00023394 -7.33688e-05
0.00428106 2.2466e-05 0.000186577
0.00445964 0.0006658 -9.37772e-05
0.00467024 -4.25706e-05 0.00025605
0.00427868 2.09476e-05 0.000187477
0.00489513 0.000326381 -0.000477047
0.00495368 1.92312e-05 0.00019834
0.00485065 -0.000126455 0.000324834
0.00487752 0.000330308 -0.000476961
0.00481074 -0.000121922 0.000325416
0.00440959 0.000145559 3.08323e-05
0.00478725 -0.000112283 0.000310801
0.00440506 0.000141533 3.32414e-05
0.00488056 -0.000142385 0.000314419
0.00485442 0.000335233 -0.000478774
0.00472137 -2.96348e-05 0.000248893
0.00490308 -0.000165352 0.00036413
0.00428659 3.37873e-06 0.000201202
0.00474822 -9.87405e-05 0.000297782
0.00485864 0.000332 -0.000476638
0.0047263 -8.86516e-05 0.000289932
0.00480933 0.000348058 -0.000479003
0.00493804 7.43074e-05 -3.66074e-05
0.00478214 -0.000130205 0.000301246
0.0044598 0.000666877 -9.42806e-05
0.0048377 -0.000123484 0.000309274
0.00478376 -0.000107866 0.000302301
0.00446109 0.000666378 -9.36653e-05
0.00487308 -0.000230578 7.71052e-05
0.00471632 -9.89974e-05 0.000297718
0.004913 0.000321939 -0.000476846
0.00463144 -4.25812e-05 0.00025385
0.0047065 -7.8437e-05 0.000282277
0.0048191 0.000339178 -0.000474375
0.00469972 -4.72931e-05 0.000260709
0.00461427 -8.84486e-05 0.000285307
0.00473387 -6.171e-05 0.000268076
0.00479462 -0.000164001 0.000348388
0.00431615 -0.000348013 -3.87686e-05
0.0047724 0.000622379 -4.24427e-05
0.00482203 0.000340898 -0.000477345
0.00424723 -3.44457e-05 0.000228611
0.00486927 -0.000151578 0.000351914
0.00480384 0.000349131 -0.000478566
0.0048856 -0.000165925 0.00029817
0.00494279 2.23499e-05 -1.21449e-05
0.0048238 0.000345217 -0.000477209
0.00479322 -0.000103213 0.000304406
0.00429116 0.000162086 1.05735e-05
0.00470135 -0.000291598 -3.50807e-05
0.00479724 0.000618035 -3.70378e-05
0.00444263 6.59191e-05 -4.1478e-05
0.0048691 0.000331294 -0.000476815
0.00483377 -0.000132017 0.000327836
0.00431323 0.000112179 0.00012109
0.00484188 -0.000135315 0.00033027
0.00459568 0.000131839 -0.000156626
0.00484585 0.00034466 -0.000480904
0.00425713 4.77399e-05 0.000166459
0.00437879 0.000115092 -8.16564e-05
0.00461353 6.13661e-05 0.000116358
0.00441738 0.000126937 -9.22378e-05
0.00474908 -9.35257e-05 0.000291141
0.00492166 0.000319315 -0.00047652
0.00430296 9.37791e-05 -6.29536e-05
0.00488619 0.000328261 -0.000477121
0.00453826 -6.43882e-05 0.000262355
0.00439452 -0.000315732 0.000407241
0.00459123 -4.56986e-05 0.000254665
0.00486823 0.000334335 -0.000477741
0.00455889 0.000123288 -0.000153692
0.00433907 8.71597e-05 -5.90782e-05
0.00437357 0.000132622 -9.85786e-05
0.00435361 -0.000267267 -6.80189e-05
0.00491404 4.78299e-05 -1.84029e-05
0.00496212 7.05502e-05 -1.353e-05
0.00435374 9.18813e-05 -6.27229e-05
0.0048616 0.00033811 -0.000478739
0.00433123 6.14801e-05 -3.67339e-05
0.00478966 -0.000205314 -7.79793e-05
0.00490411 0.000324247 -0.000477011
0.00482845 -0.000306251 -7.36199e-05
0.00477259 -0.000341628 -2.96591e-05
0.00470866 -0.000379896 -5.15164e-05
0.00483713 -0.000139783 0.000335497
0.00436392 -0.000291888 -4.18827e-06
0.00438119 -0.000235185 0.000219584
0.00485722 -0.000275331 -6.6109e-05
0.00454925 3.52478e-05 -0.000137623
0.00423059 -0.000272186 -6.39153e-05
0.00433715 -0.000395167 5.17393e-05
0.00470187 0.000165267 -0.000124522
0.00433591 -0.000353802 -4.2345e-05
0.00443555 9.05609e-05 -6.11056e-05
0.00486168 -0.000115925 0.000316835
0.00477181 -0.000119594 0.000315391
0.00484212 3.159e-05 -1.35075e-05
0.00433529 8.57661e-05 -5.83621e-05
0.00490713 -0.000155696 0.000332733
0.0043184 5.03768e-05 -2.60807e-05
0.00481163 -0.000176222 0.000211845
0.00485341 -0.000168747 0.000366464
0.00491793 -0.00026624 -1.56919e-05
0.00452626 -4.78033e-05 -0.000119602
0.00453165 0.000146029 -0.000107478
0.00489332 -0.000276978 -0.000126507
0.00494474 5.74992e-05 -2.13303e-05
0.00442551 -0.000338613 -7.21255e-05
0.00466282 -0.000220033 -7.29133e-05
0.00425583 5.74778e-05 0.000159259
0.00496328 4.2716e-05 -1.8968e-05
0.00446096 0.000667601 -9.47402e-05
0.00474852 -0.000108258 0.000306227
0.00425506 6.2809e-05 0.000155114
0.00438488 -0.000307002 0.000408602
0.00431444 0.00010092 -6.996e-05
0.00441598 -0.000232652 -5.14518e-05
0.00459976 -5.06493e-05 0.000257441
0.00482258 -0.000128104 0.000323817
0.00436935 0.000112988 -8.22392e-05
0.00483662 -0.000226574 7.23201e-05
0.0050561 6.16831e-05 -5.9328e-05
0.00482901 -0.000108057 0.000310863
0.00459053 7.06421e-05 -4.38935e-05
0.0043205 -0.000360508 -3.84488e-05
0.00467073 -6.48814e-05 0.000270529
0.00487139 -0.000178213 0.000351799
0.00472784 -0.000122976 0.000316329
0.00429126 0.000170014 7.69811e-06
0.00437021 -0.000269653 0.000153933
0.00434687 -0.00023101 -6.59651e-05
0.00488521 -0.000188476 -0.000465127
0.00430577 -0.000393023 2.53635e-05
0.00434056 7.15627e-05 -4.54355e-05
0.00485406 -0.00014068 0.00034187
0.00488788 -0.000151008 0.000351591
0.00490008 -0.000201067 0.000250415
0.00451378 -0.00023742 0.000420194
0.00432085 5.50199e-05 -3.05765e-05
0.00488175 -0.000136867 0.000324194
0.00436662 -0.000248511 -7.08386e-05
0.00437484 4.75958e-05 0.000172491
0.0049331 5.83102e-05 -2.21211e-05
0.00437237 4.86696e-05 0.000171226
0.00495447 6.17529e-05 -2.48963e-05
0.00440021 0.000136536 -0.000100769
0.0043462 0.000128737 -9.44739e-05
0.00407628 -0.000268568 0.000132704
0.00496865 0.000117294 -8.57008e-05
0.00436114 -9.5539e-06 0.000213967
0.00491832 5.72452e-05 -2.18015e-05
0.00453138 -0.000211463 0.000422146
0.00493788 3.22895e-05 -1.54071e-05
0.00454244 -0.00020747 0.000431061
0.0049399 2.65705e-05 -1.67246e-05
0.00466382 -9.29858e-05 0.0002909
0.00420452 0.000171779 -0.000131162
0.00445713 -0.000100101 -0.000105843
0.00480373 0.00044668 -0.000117656
0.0049527 5.18115e-05 -2.04754e-05
0.00438515 -0.000289557 0.000405053
0.00464692 0.000143021 -4.2413e-05
0.00444149 -0.00032011 0.000413841
0.00493548 5.00155e-05 -2.03662e-05
0.00451902 8.06433e-05 -2.68814e-05
0.00486714 9.12035e-05 -6.27308e-05
0.00494065 5.58399e-05 -2.12694e-05
0.00495774 2.30435e-05 -9.44052e-06
0.00493425 5.91629e-05 -2.06752e-05
0.0049193 -0.000237215 -9.90898e-05
0.00431834 0.000109527 -7.79504e-05
0.00464113 -5.81933e-05 0.000264272
0.00491796 5.24171e-05 -2.10169e-05
0.00452668 0.00039372 -0.000212562
0.00491893 6.44619e-05 -2.35822e-05
0.00491668 5.53919e-05 -2.34426e-05
0.0049302 0.000316476 -0.000476121
0.00453673 -0.000213172 0.000422766
0.00493386 -4.15479e-05 0.000264948
0.00492844 6.01535e-05 -2.31618e-05
0.00453836 -0.00021803 0.000427762
0.00490939 3.50095e-05 -1.08533e-05
0.00409895 -0.000265891 -5.80788e-05
0.0042893 5.35499e-06 0.00019973
0.00452184 0.000181002 -5.16355e-05
0.00422018 0.00017201 -0.00013157
0.00426708 1.76511e-05 0.000189386
0.00437048 9.38175e-05 -6.21904e-05
0.00493338 6.36761e-05 -2.33205e-05
0.00437408 0.000115887 -9.07854e-05
0.0045104 0.000136507 -4.05704e-05
0.00491801 4.12082e-05 -2.34384e-05
0.00469825 -9.49159e-05 0.000293723
0.00490445 3.35115e-05 -2.61541e-05
0.00495961 7.51308e-05 -2.46519e-05
0.00493606 3.64573e-05 -1.69786e-05
0.00453174 7.42124e-05 -4.69376e-05
0.00491917 5.74639e-05 -2.24318e-05
0.0047196 0.000120578 -8.58452e-05
0.00463839 2.18122e-05 -0.000133454
0.00456907 -0.000220468 0.000441391
0.00488573 0.000327767 -0.000476914
0.00448257 -9.0002e-05 -0.000111095
0.00497418 0.000119828 -4.99259e-05
0.00494803 3.56443e-05 -1.76729e-05
0.00449454 -0.000258178 0.000418811
0.00452966 -0.000218992 0.000422568
0.00427134 -0.000293433 1.78418e-05
0.00450573 -3.19709e-05 0.000238343
0.00426246 0.000114502 -8.17413e-05
0.00430193 -2.40392e-06 0.000206233
0.00441401 0.000149376 -0.000111434
0.00435991 0.000101525 -7.09729e-05
0.00487574 0.000329508 -0.000476747
0.00491827 5.88432e-05 -2.25239e-05
0.00439901 0.000139794 3.47453e-05
0.00491332 6.48515e-05 -2.4179e-05
0.00460665 2.84209e-05 -8.78436e-06
0.0045222 8.64035e-05 -2.82588e-05
0.00492 7.02628e-05 -2.28819e-05
0.00436037 0.000143109 -0.000106194
0.00454338 -0.000211208 0.000424176
0.00436924 -0.000293931 -6.43822e-05
0.00456371 0.000123041 -3.86112e-05
0.00448058 0.000123948 -3.7367e-05
0.00454418 0.000112924 -3.51719e-05
0.00491667 6.37593e-05 -2.33654e-05
0.00496687 0.00054762 -0.000146566
0.00489298 5.017e-05 -1.99092e-05
0.00490311 6.0925e-05 -2.24602e-05
0.00506695 0.00103501 -0.000443752
0.00499273 0.000556332 -0.000150954
0.00486909 4.89669e-05 -1.94477e-05
0.00501749 0.00043548 -7.39097e-05
0.00425399 3.68586e-05 0.000174476
0.00449635 -0.000253149 0.000417609
0.00491583 7.5556e-05 -2.55844e-05
0.00426195 2.75251e-05 0.000181993
0.00493792 -5.59458e-05 0.000276091
0.00497616 0.000388874 -4.66043e-05
0.00491228 5.24131e-05 -2.08727e-05
0.00491607 5.9213e-05 -2.18521e-05
0.00462572 6.14678e-05 -3.59976e-05
0.00490379 5.93401e-05 -2.19689e-05
0.00453363 8.23341e-05 -2.71858e-05
0.00452526 0.000112503 -3.46943e-05
0.00492324 6.46491e-05 -2.3543e-05
0.00434662 -0.00030754 -5.59867e-05
0.0045403 0.000131177 -3.94945e-05
0.00453157 9.83751e-05 -3.12466e-05
0.004635 0.000247642 -0.000386047
0.004533 0.00012258 -3.73243e-05
0.00492133 6.58423e-05 -2.3628e-05
0.00453484 -0.000208692 0.000422292
0.00494428 1.92557e-05 -8.41614e-07
0.00490329 7.70809e-05 -2.65104e-05
0.00449644 0.000128261 -3.8645e-05
0.00448954 0.000118834 -3.62516e-05
0.00460145 0.000115643 -3.51316e-05
0.00457314 9.90356e-05 -3.1094e-05
0.00479307 5.71113e-05 -2.15656e-05
0.00451939 0.000104722 -3.27779e-05
0.00451301 9.67097e-05 -3.08595e-05
0.00459937 0.000102917 -2.99827e-05
0.0045529 -0.000225014 0.000431491
0.0050001 0.000409056 -8.58132e-05
0.00458942 0.000455074 4.12915e-05
0.00493417 5.56363e-05 -2.10674e-05
0.00460372 0.000458007 2.71245e-05
0.00503054 0.000209128 -0.000324779
0.00448377 0.000139082 -4.12469e-05
0.00451176 0.000137544 -4.07732e-05
0.0044936 0.000153742 -4.48922e-05
0.0049781 2.822e-05 0.000139354
0.00455401 0.000120025 -3.72183e-05
0.00433763 8.0763e-05 -5.29817e-05
0.00453939 7.71198e-05 -2.61413e-05
0.00491382 4.19802e-05 -1.83591e-05
0.00464161 -0.000325576 -5.54882e-05
0.00460057 0.000104755 -3.23591e-05
0.00432903 9.01728e-05 -6.114e-05
0.00433462 -0.000315145 -3.6008e-05
0.00465721 5.72471e-05 0.000189163
0.00492963 5.3592e-05 -2.17377e-05
0.00483895 2.2392e-05 -2.70241e-07
0.00462693 -0.000437463 -0.000668901

VECTORS force float
-2.16196e-10 -5.62861e-11 2.99693e-11
-4.21101e-10 3.39454e-10 -4.67741e-11
7.33548e-11 -1.72401e-10 6.24878e-11
2.20073e-11 -3.69058e-10 4.6394e-11
-9.54316e-12 -2.69472e-11 1.90889e-11
1.7226e-11 8.41828e-12 1.2532e-12
-5.58025e-11 -1.30994e-10 8.40232e-11
-1.11e-11 -2.57489e-11 1.76681e-11
-1.02966e-12 -9.78307e-12 3.16146e-12
7.83421e-11 5.20511e-12 -5.86385e-10
-1.87444e-10 -2.57483e-10 1.87124e-10
6.23661e-12 -1.15991e-11 4.76089e-12
-2.46484e-10 5.29591e-11 -5.37832e-11
-1.04501e-10 -6.51757e-11 6.78954e-11
-3.14151e-10 -1.01352e-10 5.61632e-11
4.81769e-11 1.42395e-11 3.47875e-12
1.22452e-10 1.16297e-10 6.60755e-12
2.75737e-11 1.28644e-10 -4.65301e-11
1.36641e-10 -1.45664e-10 1.08371e-10
8.0593e-10 -4.05411e-10 2.51401e-10
4.73873e-12 -6.5004e-11 4.69492e-11
1.62321e-11 -3.77221e-11 5.8249e-11
5.6478e-12 4.98048e-11 -2.59749e-11
-7.14886e-12 -8.96136e-11 7.2474e-11
-6.84755e-11 5.40703e-11 -8.67386e-12
1.17803e-10 1.39361e-10 2.46933e-10
8.91494e-11 1.88255e-10 1.96286e-10
-7.05316e-12 -2.12223e-11 1.26671e-11
4.14679e-10 -2.37947e-10 -5.44557e-10
1.10537e-10 5.03098e-11 6.48304e-11
-1.74664e-11 -2.40549e-12 -2.8706e-12
-5.35027e-10 3.70049e-10 -5.62027e-10
-9.30413e-11 -7.93893e-11 5.30677e-11
-3.3363e-12 -6.82506e-12 3.27568e-12
-2.55498e-12 -1.01465e-11 5.61987e-11
-5.48954e-11 -6.97152e-11 4.54191e-11
1.81882e-10 -9.15692e-11 2.81861e-13
4.31529e-11 2.37035e-10 -1.89498e-10
-2.47488e-11 -7.53517e-11 5.76431e-11
-3.25059e-11 -1.21779e-10 7.84155e-11
6.34443e-10 1.39798e-10 1.65003e-12
4.13377e-10 6.77264e-11 2.07086e-11
4.93577e-11 2.57292e-13 1.26184e-11
9.7345e-11 4.5055e-11 -5.58815e-11
-3.96128e-10 1.94472e-10 -2.16504e-10
1.68941e-10 -3.64226e-10 2.3698e-10
-5.51933e-12 -1.01517e-11 -4.56062e-11
7.73368e-10 -2.66063e-10 -2.19771e-10
8.12423e-11 -1.59666e-11 -2.50481e-11
-7.9594e-11 -8.65943e-11 5.98166e-11
-1.82113e-10 9.6409e-11 -8.29587e-11
-5.36935e-11 -1.35409e-10 6.30149e-11
2.04149e-10 1.15956e-10 2.75951e-10
-1.19889e-11 -2.01869e-11 4.10939e-11
1.47543e-10 -1.11224e-10 5.88841e-11
-3.36326e-12 -7.50946e-12 -3.89437e-12
-4.31943e-11 -3.71625e-10 2.43406e-10
-6.89286e-12 -2.9846e-11 3.07002e-11
1.81855e-10 -4.16758e-10 3.41208e-10
-6.58582e-10 2.81677e-10 -5.39303e-11
-1.65321e-10 9.84296e-11 1.02862e-11
-4.2202e-11 -1.21995e-10 8.91023e-11
7.38808e-10 -4.64764e-11 3.1094e-11
4.72714e-10 -3.76746e-10 -1.25587e-11
-2.50204e-10 3.44005e-13 1.18666e-11
-1.53521e-10 -1.15318e-10 1.24944e-10
-7.28903e-13 -1.49768e-12 1.36042e-12
-2.85188e-11 -7.87312e-11 8.08705e-11
3.04598e-13 -7.40065e-12 5.26133e-12
-2.24861e-10 -5.08185e-11 -1.02914e-10
1.79283e-10 2.3413e-10 2.90794e-11
-1.06785e-10 -4.42835e-11 -2.88234e-11
-1.34759e-12 -2.25432e-11 8.06018e-12
2.48791e-10 -8.91462e-11 8.50649e-12
-5.20995e-12 5.69069e-11 -4.1188e-11
-3.95742e-10 -7.45674e-11 3.07109e-11
2.66613e-12 1.64782e-10 -1.01139e-10
4.05624e-11 1.25995e-10 -8.15375e-12
-6.09445e-10 2.2029e-10 4.49186e-10
-4.48894e-11 9.21592e-11 -8.35554e-11
-1.28653e-11 -5.9844e-11 1.38845e-11
-2.33233e-10 4.02405e-11 -2.75466e-11
-1.17468e-10 1.28228e-10 1.24431e-10
-3.62351e-12 -9.36854e-12 2.47886e-12
6.52818e-10 9.24764e-11 7.00691e-11
1.08377e-09 1.43841e-10 1.75769e-10
1.19195e-10 -1.45586e-10 -3.8524e-10
2.81866e-10 -2.02609e-10 1.60657e-10
1.96463e-10 1.46666e-10 1.53183e-10
-5.13899e-11 -1.74116e-10 -1.18993e-10
4.73728e-10 -4.08623e-10 -3.58549e-10
4.49718e-10 1.11924e-09 -3.59746e-10
1.62098e-10 4.82485e-11 2.25673e-10
-1.40532e-10 3.63013e-10 9.54286e-11
-4.68504e-10 5.26615e-10 -4.5778e-10
-1.01555e-11 1.67555e-10 3.23227e-11
-3.52242e-10 3.56922e-11 -3.69642e-11
2.01189e-10 8.06033e-11 4.70619e-11
-2.94961e-10 -1.86314e-11 1.35894e-11
-3.04161e-10 -2.63667e-11 -2.39454e-11
7.36466e-11 -2.43391e-11 2.98957e-11
8.49702e-11 -2.61817e-10 9.87926e-11
-7.9063e-11 -1.00298e-10 8.87949e-11
-4.22814e-11 1.49415e-10 -3.69965e-10
5.52892e-10 -1.69402e-11 -4.2604e-11
-5.11023e-10 -1.29974e-10 3.65741e-10
-5.15414e-10 5.61667e-10 7.29529e-11
3.40593e-10 -1.502e-10 1.39282e-10
2.26742e-10 -3.97716e-10 -2.56494e-10
5.75747e-11 -6.60722e-11 -5.03042e-11
8.64944e-12 5.53019e-10 8.79489e-11
-5.92482e-10 3.60014e-10 -8.89385e-11
3.01662e-11 1.07641e-10 -7.78738e-11
-8.49874e-11 -1.57207e-10 1.86845e-11
-1.94467e-12 -8.93615e-12 5.72085e-12
-1.9369e-10 -6.52534e-11 3.75742e-11
3.99714e-12 1.49741e-10 -1.09041e-10
5.48511e-11 -4.90008e-11 9.61205e-12
-6.63525e-11 1.34627e-10 -1.28201e-10
-2.42424e-10 -2.02249e-12 -2.70932e-10
-3.66282e-11 8.71958e-12 -8.74639e-12
-2.05162e-10 -1.22363e-10 8.11088e-11
4.155e-11 -1.20111e-10 9.32005e-11
7.28589e-10 -3.27442e-10 -6.52826e-10
-1.85755e-10 -1.40311e-10 -9.4784e-11
-6.2128e-12 1.02199e-10 -7.63532e-12
-1.71769e-10 4.26515e-11 -3.81693e-11
7.4737e-10 3.60153e-10 -8.04973e-12
-2.85956e-11 -4.83021e-11 3.90836e-11
6.39422e-10 -2.69767e-10 -1.89023e-10
-2.07814e-10 -3.59192e-11 1.30545e-11
-7.96774e-11 -1.40398e-10 8.4954e-11
2.51979e-11 1.30958e-10 5.19781e-10
4.18247e-10 6.35644e-11 7.97188e-11
-1.31538e-10 2.4379e-10 8.91957e-10
-3.88403e-10 1.76145e-10 4.4877e-10
7.26173e-11 5.61695e-11 -4.52328e-11
5.84732e-10 -4.48589e-11 1.37378e-10
2.10562e-10 -1.52834e-10 1.37967e-10
-3.27892e-10 -1.30664e-10 9.24065e-10
1.33765e-11 -2.59444e-10 -4.67028e-12
-3.2149e-10 -1.0483e-11 1.07726e-11
3.35366e-10 -2.64095e-10 6.26704e-11
2.53006e-10 -1.11843e-11 9.7894e-11
6.17196e-11 1.74501e-10 -1.30177e-10
1.40651e-11 -4.16226e-11 1.22961e-11
2.2974e-11 1.55828e-10 -1.15416e-10
9.48599e-11 4.26969e-11 -4.05582e-11
-8.87023e-11 -6.68614e-11 4.45263e-11
2.29961e-11 8.16379e-11 -6.44029e-11
-2.14477e-10 6.60739e-11 -1.03089e-10
-4.26711e-10 4.57582e-10 -2.62964e-10
-2.40799e-11 5.2376e-11 -4.40711e-11
6.08065e-12 4.31757e-11 -2.5043e-11
-2.05206e-12 -2.91014e-11 -1.43559e-11
6.6318e-11 -9.43674e-11 1.84426e-11
8.53429e-11 -1.30836e-10 -1.29607e-10
9.44081e-11 9.79318e-12 4.9872e-11
8.11209e-11 -1.27721e-12 2.35716e-12
-1.20996e-10 -2.95125e-10 2.49041e-10
-8.92833e-10 -7.49465e-10 1.82121e-10
5.33553e-10 3.22786e-11 -8.66664e-12
-8.73681e-11 -5.76209e-11 1.69462e-11
-1.05558e-12 1.70365e-10 8.14833e-11
1.62276e-09 2.24479e-10 -6.00342e-11
-1.31295e-10 -1.03656e-10 -3.23614e-11
3.20021e-11 -4.1997e-11 1.28197e-11
-6.99776e-12 -9.319e-11 2.31844e-11
-1.1022e-10 -4.47724e-11 1.93563e-10
5.59272e-11 -1.48115e-10 3.82023e-11
1.89364e-10 -3.65012e-11 1.30337e-12
-8.00566e-11 -1.24752e-10 3.85606e-11
-8.43237e-10 -1.35786e-10 -1.54149e-10
-1.52472e-10 -3.41329e-11 6.8338e-11
5.05103e-11 -6.56898e-12 1.00069e-11
4.08799e-11 5.47886e-11 -1.13615e-11
-6.61374e-10 2.4325e-10 -3.34544e-11
3.70122e-11 -1.45819e-11 1.52158e-11
4.09376e-12 8.92903e-11 -1.84934e-11
2.845e-12 4.45141e-12 -2.56607e-12
-3.84377e-11 -2.11559e-10 8.71404e-13
4.51605e-10 -6.02016e-10 4.69266e-10
-1.46517e-11 -9.99236e-11 3.83834e-11
2.43214e-10 -4.26656e-11 5.70988e-11
9.06442e-11 2.78812e-10 -8.36594e-11
-3.54728e-10 -8.36183e-11 9.44791e-11
3.10604e-11 2.95039e-11 -1.59561e-11
1.0085e-09 7.23178e-10 -1.79594e-10
1.7596e-10 -2.65345e-10 2.34998e-10
3.10255e-11 -1.90421e-11 1.29858e-11
-1.28573e-10 -1.07393e-10 8.07164e-11
-1.58887e-11 1.78318e-11 -5.8493e-12
-6.68721e-11 -1.51995e-10 1.33862e-10
-1.40321e-10 3.00846e-11 -7.78273e-12
3.29507e-11 -1.70741e-11 -2.16959e-11
-4.51207e-11 -4.45981e-11 3.07054e-11
-1.74694e-12 3.13857e-11 -2.17901e-11
-1.68874e-10 8.17626e-11 1.58309e-10
8.51113e-11 -4.0099e-11 -6.22191e-12
2.33658e-10 -6.56939e-12 2.98503e-13
6.17605e-11 1.088e-10 -2.72668e-11
4.05608e-10 -1.82524e-10 1.93185e-10
-6.64043e-10 2.9969e-10 -4.6733e-11
1.94747e-10 -1.44203e-10 7.58296e-11
1.7835e-12 1.10082e-12 -4.65595e-15
-8.68906e-10 -6.54256e-10 4.17622e-10
2.45461e-10 8.72645e-11 3.00083e-10
1.18568e-11 -1.64477e-10 6.23641e-11
3.57645e-10 2.08903e-11 1.82149e-11
7.62551e-11 4.79102e-11 -8.06737e-13
1.19879e-10 -2.34888e-10 -1.28144e-11
4.27274e-11 5.16895e-12 -1.46889e-12
-1.74194e-10 -9.8958e-12 -3.63903e-11
-4.24331e-11 7.188e-11 -5.81359e-11
1.12546e-10 -1.55096e-10 6.80958e-11
1.41567e-10 7.13811e-12 -2.44352e-12
-1.36486e-12 -2.11338e-12 2.39068e-12
-1.97467e-11 1.21129e-10 -3.40888e-11
8.6391e-12 2.39908e-11 -2.38329e-11
4.73984e-11 -2.03869e-11 2.72569e-11
9.90794e-10 7.58848e-12 4.83387e-11
5.41552e-11 -6.71779e-11 1.65057e-11
6.17522e-11 -2.20233e-11 1.04102e-11
-1.17302e-10 -1.73531e-10 1.53134e-10
1.58883e-10 -6.94654e-11 -2.70822e-11
7.9863e-11 1.82276e-10 -1.85326e-10
-4.52323e-11 -1.21304e-10 1.35221e-11
2.10139e-11 5.6771e-11 -1.46518e-11
1.06073e-10 -2.45829e-11 6.30742e-12
1.33275e-11 -4.17964e-11 3.84523e-13
2.1307e-11 8.25654e-11 -5.02043e-11
-8.21973e-11 2.2056e-10 -5.41362e-11
-4.81973e-10 -2.27423e-11 7.21905e-12
1.09317e-11 4.18612e-11 -2.53783e-11
2.02222e-11 7.92758e-11 -4.81114e-11
-7.79881e-10 -6.21004e-11 2.13795e-11
-1.367e-10 -7.99126e-10 4.04617e-10
7.23e-11 -5.21296e-11 4.08234e-11
-1.78816e-11 -3.45925e-12 7.46922e-12
-4.38962e-11 -6.40731e-11 1.36627e-11
3.84611e-11 -9.75482e-11 7.54541e-11
2.6324e-11 6.19913e-11 -4.64665e-11
-7.83645e-11 -4.36906e-10 2.68942e-10
-5.0335e-11 8.89743e-11 -2.17108e-11
3.29437e-11 4.83096e-11 -5.61237e-12
-6.07401e-11 1.45131e-10 -1.11534e-10
-1.46022e-10 -1.08923e-11 7.8372e-12
4.31178e-11 -5.41763e-11 1.20042e-11
5.54604e-11 -4.47937e-11 1.06075e-11
1.74708e-11 1.68524e-10 -4.15729e-11
-6.64704e-12 2.26835e-10 -1.95893e-10
-4.10567e-12 -1.01612e-11 1.30004e-11
1.07112e-10 -6.23629e-11 1.14226e-11
5.49947e-10 2.06472e-11 -3.13546e-10
-1.5936e-11 -8.42023e-11 2.012e-11
-1.67807e-11 -6.23046e-11 -3.4906e-12
-3.59423e-11 -1.07775e-10 -1.01556e-11
1.97891e-10 5.2351e-11 -1.34869e-11
-5.36129e-10 3.04986e-10 -7.66922e-11
1.55717e-10 -3.49421e-10 8.46338e-11
8.62663e-11 -7.30868e-11 1.83044e-11
2.28664e-11 -1.1541e-10 2.06738e-11
9.24059e-11 -9.05215e-11 2.36072e-11
-1.09488e-09 -4.97892e-10 1.24004e-10
1.19899e-10 -3.70141e-11 9.10797e-12
3.58868e-11 -1.92794e-10 4.81257e-11
2.63581e-11 -1.8706e-10 3.20886e-11
2.53844e-10 -3.85139e-11 -9.39822e-11
-2.76214e-10 -5.89196e-11 2.5858e-10
-8.87006e-11 5.91285e-11 -1.30394e-10
-1.66652e-11 -4.94061e-11 1.74565e-11
8.22911e-11 5.88392e-11 2.11088e-11
4.55365e-10 4.08564e-10 -2.16761e-10
8.14698e-11 -7.42741e-11 1.81546e-11
5.58079e-12 1.12264e-10 -3.27921e-11
2.54886e-11 -4.27516e-11 1.09807e-11
-1.64316e-10 -2.68911e-10 2.61153e-10
-9.98764e-12 -1.28474e-10 2.91053e-11
-3.60421e-12 7.89351e-11 -7.42352e-11
1.56255e-10 -2.71592e-12 1.14953e-12
-3.32658e-11 -4.32427e-11 4.93077e-12
3.23868e-10 -1.4031e-10 4.78682e-11
2.70234e-11 -5.29637e-11 3.91186e-11
9.77778e-11 1.03603e-10 -8.34253e-11
5.11874e-10 -3.58289e-10 -2.20262e-10
-5.11972e-10 4.65547e-10 -2.80434e-10
3.16543e-12 -8.99345e-12 -1.043e-11
1.50341e-10 3.13154e-10 -2.06153e-10
-5.54674e-10 -4.19935e-11 -6.55971e-10
