# vtk DataFile Version 3.0
LIGGGHTS particles timestep 82000000
ASCII
DATASET POLYDATA
POINTS 277 float
0.38442 0.0183773 5.23213e-05
0.384381 0.0188993 5.22701e-05
0.383599 0.0188314 5.12449e-05
0.384228 0.0167486 5.20692e-05
0.383867 0.0180183 0.000128089
0.384573 0.0181859 5.25217e-05
0.3846 0.0179824 5.25568e-05
0.383819 0.0190669 5.15329e-05
0.383714 0.0189816 5.13963e-05
0.383802 0.0177649 5.15107e-05
0.383709 0.0184068 5.13901e-05
0.383696 0.0202532 5.13727e-05
0.383132 0.0182272 0.00697102
0.384398 0.0191806 5.22924e-05
0.382886 0.0172619 0.00734355
0.383676 0.0192858 5.13461e-05
0.383994 0.0194051 5.17629e-05
0.383892 0.0179571 5.16289e-05
0.383957 0.0182341 0.000122396
0.383591 0.0184051 5.12355e-05
0.383721 0.0193773 5.14058e-05
0.383918 0.0180571 5.16631e-05
0.384088 0.0170273 5.18855e-05
0.382948 0.0170202 0.00737667
0.385072 0.0179786 5.31752e-05
0.384727 0.0168558 5.27234e-05
0.384152 0.0186709 5.19691e-05
0.384063 0.0188287 5.18533e-05
0.384114 0.0183149 5.19195e-05
0.384077 0.0181134 5.18716e-05
0.38374 0.0188639 5.14297e-05
0.383909 0.0181537 7.61022e-05
0.385021 0.0177239 5.31085e-05
0.385025 0.016349 5.3113e-05
0.384087 0.0189303 5.18852e-05
0.383624 0.0190748 5.12784e-05
0.384516 0.0169607 5.24468e-05
0.384264 0.0166547 5.21159e-05
0.384503 0.017148 5.24299e-05
0.383724 0.01972 5.14094e-05
0.384418 0.0181784 5.23186e-05
0.384932 0.0173676 5.29915e-05
0.384055 0.0173816 5.18428e-05
0.3847 0.0190509 5.26869e-05
0.382933 0.0177298 0.00703341
0.382987 0.0175076 0.00710302
0.383685 0.0186195 5.13574e-05
0.384844 0.0175897 5.28757e-05
0.382766 0.0166674 0.00759788
0.383841 0.0184432 5.15619e-05
0.385615 0.0214721 5.38857e-05
0.385289 0.0155954 5.34584e-05
0.384402 0.0169701 5.2297e-05
0.383764 0.0178739 0.00531638
0.384297 0.0165604 5.21597e-05
0.384647 0.0163809 5.26185e-05
0.383102 0.0185512 0.00683854
0.383749 0.0200023 5.14425e-05
0.38297 0.0171041 0.00732677
0.384272 0.0185574 5.21264e-05
0.383851 0.0193552 5.15754e-05
0.382883 0.0167684 0.00752636
0.384398 0.0176349 5.22922e-05
0.384919 0.0182935 5.29745e-05
0.384125 0.0177296 5.19341e-05
0.384725 0.0182317 5.27196e-05
0.383745 0.0178538 5.14371e-05
0.384105 0.0198839 5.19086e-05
0.382468 0.0158267 0.00815487
0.392848 0.0240513 6.33589e-05
0.383774 0.0185238 5.14742e-05
0.38305 0.0182931 0.00686474
0.383236 0.0178327 0.0069889
0.382488 0.015901 0.00809092
0.383854 0.0202485 5.15791e-05
0.382744 0.0165837 0.00764828
0.384362 0.0187379 5.22441e-05
0.384034 0.0172328 5.18148e-05
0.384487 0.0177009 5.24085e-05
0.384682 0.0162685 5.26642e-05
0.384467 0.0170537 5.2382e-05
0.384365 0.0177625 5.22483e-05
0.383532 0.0173655 0.00546753
0.383781 0.0183271 5.14833e-05
0.384289 0.0175848 5.21495e-05
0.384137 0.0201312 5.19506e-05
0.383982 0.0172751 0.000125793
0.384748 0.0186155 5.27506e-05
0.383405 0.0180148 0.00692389
0.384357 0.0172387 5.22383e-05
0.38317 0.0179951 0.006939
0.383897 0.0200451 5.16352e-05
0.384891 0.0187149 5.29376e-05
0.383013 0.017272 0.00722698
0.38301 0.0176685 0.00705026
0.383804 0.0180051 5.15132e-05
0.382429 0.015678 0.00828276
0.38387 0.0197106 5.16005e-05
0.384453 0.0187998 5.23633e-05
0.383668 0.0180584 5.13357e-05
0.383962 0.0178841 5.17208e-05
0.384426 0.0196364 5.2329e-05
0.382787 0.0167513 0.00754798
0.384776 0.0185173 5.27871e-05
0.384322 0.0184608 5.21918e-05
0.38421 0.0171368 5.20452e-05
0.383141 0.0187469 0.00681868
0.384514 0.0167364 5.24432e-05
0.383817 0.0181826 5.15306e-05
0.383954 0.0176309 5.17104e-05
0.384955 0.0179577 5.30214e-05
0.382973 0.0179159 0.00697192
0.383994 0.0201661 5.17622e-05
0.383767 0.0196125 5.14654e-05
0.384499 0.0180504 5.24241e-05
0.382507 0.0159793 0.0080319
0.384605 0.0176876 5.25635e-05
0.382566 0.0162295 0.00787704
0.384131 0.0178416 5.19425e-05
0.383256 0.0184237 0.00685203
0.383919 0.0191902 5.16646e-05
0.384517 0.0183207 5.24475e-05
0.384457 0.0172371 5.23694e-05
0.383849 0.0185665 0.000102271
0.383167 0.0181404 0.00689227
0.383827 0.0186498 5.15432e-05
0.383915 0.0177859 5.16589e-05
0.384387 0.0173497 5.2278e-05
0.384096 0.0182156 5.18966e-05
0.383104 0.0180672 0.00691823
0.384038 0.0178003 5.18207e-05
0.384311 0.0188256 5.21781e-05
0.383963 0.0173395 5.17214e-05
0.384659 0.0178917 5.26335e-05
0.382449 0.0157523 0.00821881
0.383699 0.0179613 5.13766e-05
0.384003 0.0181802 5.17737e-05
0.383905 0.0177009 0.000103228
0.382895 0.0171709 0.00729849
0.383922 0.0185205 5.16677e-05
0.382822 0.0170089 0.00749342
0.382723 0.0165006 0.00769978
0.383082 0.0184537 0.00684844
0.3843 0.0170946 5.2164e-05
0.38335 0.0189096 0.00680217
0.384071 0.0214752 5.18636e-05
0.383129 0.0177139 0.00703118
0.383852 0.017864 5.15772e-05
0.383255 0.0188773 0.00680544
0.384889 0.0181534 5.29355e-05
0.382893 0.0175413 0.00709569
0.384404 0.0171317 5.23e-05
0.383311 0.0187142 0.00682199
0.384085 0.0185371 5.1882e-05
0.383197 0.0185844 0.00683517
0.383355 0.0184067 0.00685321
0.384753 0.0188319 5.27569e-05
0.383074 0.0179702 0.0069843
0.383999 0.0174763 5.17697e-05
0.383106 0.017624 0.00706866
0.382779 0.0170659 0.00737209
0.382865 0.0171773 0.00739352
0.383179 0.0189425 0.00679882
0.383059 0.0174395 0.00712803
0.382809 0.0168352 0.00749808
0.383985 0.0184051 5.17513e-05
0.383075 0.0181451 0.00697395
0.384085 0.0184157 5.18819e-05
0.38303 0.0181969 0.00688404
0.384437 0.0185897 5.23423e-05
0.382649 0.0165625 0.00767176
0.382874 0.017087 0.00734839
0.383649 0.0200403 5.13104e-05
0.383899 0.0175239 5.16381e-05
0.384614 0.0171883 5.25753e-05
0.384015 0.0182828 5.17899e-05
0.383327 0.0182382 0.00687031
0.38363 0.0194195 5.12855e-05
0.384354 0.0182598 5.22346e-05
0.382988 0.0178036 0.00709455
0.383283 0.0183278 0.00686122
0.38421 0.0182143 5.20452e-05
0.382913 0.0176367 0.00706415
0.383224 0.0182471 0.00686941
0.382527 0.0160627 0.00798013
0.383306 0.0180003 0.00693225
0.383217 0.018682 0.00682527
0.384181 0.0187724 5.20072e-05
0.382987 0.0176054 0.0071241
0.382606 0.0163961 0.00777398
0.382917 0.0172549 0.00724859
0.382991 0.017188 0.00727688
0.383236 0.0187796 0.00681536
0.383915 0.0182911 5.16591e-05
0.384984 0.018485 5.30595e-05
0.383604 0.0187018 5.12523e-05
0.384204 0.017659 5.20373e-05
0.382585 0.016313 0.00782554
0.384016 0.0180342 5.17916e-05
0.384068 0.0171253 5.18595e-05
0.383765 0.0180972 5.14626e-05
0.382843 0.0170929 0.00744348
0.384125 0.0190701 5.19339e-05
0.382905 0.0168523 0.00747646
0.382546 0.0161461 0.00792858
0.383709 0.0187623 5.13891e-05
0.382757 0.016982 0.00742199
0.383146 0.017903 0.00696959
0.38283 0.0169191 0.00744819
0.3828 0.0171498 0.0073222
0.38327 0.0181572 0.00688548
0.382628 0.016479 0.00772251
0.383375 0.0185225 0.00684145
0.384516 0.0187186 5.24463e-05
0.384053 0.0192969 5.18394e-05
0.383199 0.0190401 0.00678892
0.382671 0.0166463 0.00762167
0.383126 0.0182291 0.00687123
0.382852 0.0170031 0.00739828
0.376717 0.016796 0.00745612
0.382963 0.0174229 0.00715052
0.382714 0.0168141 0.00752178
0.376696 0.0167055 0.00749284
0.376739 0.0168864 0.00741942
0.383275 0.0185214 0.00684157
0.376783 0.0170673 0.00734601
0.383628 0.0181506 5.12838e-05
0.383835 0.0176511 5.15543e-05
0.38333 0.0188119 0.00681208
0.384229 0.0184177 5.20712e-05
0.215741 0.019982 0.00563384
0.376761 0.0169769 0.00738271
0.383218 0.0191382 0.00679086
0.38314 0.01781 0.00700583
0.382927 0.0169363 0.00742657
0.383233 0.0180683 0.0069131
0.383242 0.0179276 0.00695806
0.382938 0.0173388 0.00719868
0.382865 0.0174124 0.00716648
0.383592 0.0185801 5.12362e-05
0.383141 0.0183333 0.00686066
0.383341 0.018089 0.00690233
0.376826 0.0172482 0.00727259
0.383089 0.017806 0.0070919
0.3828 0.0169248 0.00754334
0.384305 0.0169947 5.21701e-05
0.383121 0.0186493 0.00682859
0.383119 0.0180532 0.00701607
0.383069 0.0183785 0.00691297
0.383038 0.0177599 0.00701981
0.38316 0.0188445 0.00680877
0.382989 0.0179004 0.00706936
0.382822 0.0172338 0.0072723
0.383011 0.0181024 0.00691039
0.383274 0.0189749 0.00679554
0.382907 0.0173504 0.0072928
0.384824 0.0182404 5.28501e-05
0.404182 0.0211142 0.0056569
0.376868 0.017435 0.00721544
0.382953 0.0178228 0.00700266
0.376848 0.0173408 0.00724154
0.376804 0.0171578 0.0073093
0.383084 0.0175296 0.00709231
0.382692 0.0167302 0.00757169
0.382843 0.0173177 0.00722241
0.384631 0.0182767 5.25971e-05
0.38324 0.0180258 0.00700332
0.38305 0.0178542 0.00698894
0.382926 0.0175092 0.0071845
0.383177 0.0184854 0.00684522
0.384492 0.0178134 5.24148e-05
0.382736 0.0168981 0.00747189
0.383035 0.0173558 0.0071773
0.3842 0.0178242 0.00533209
0.384472 0.0179378 5.23882e-05
0.382992 0.0180091 0.00694116
0.383615 0.0178698 0.00531587

VERTICES 277 554
1 0
1 1
1 2
1 3
1 4
1 5
1 6
1 7
1 8
1 9
1 10
1 11
1 12
1 13
1 14
1 15
1 16
1 17
1 18
1 19
1 20
1 21
1 22
1 23
1 24
1 25
1 26
1 27
1 28
1 29
1 30
1 31
1 32
1 33
1 34
1 35
1 36
1 37
1 38
1 39
1 40
1 41
1 42
1 43
1 44
1 45
1 46
1 47
1 48
1 49
1 50
1 51
1 52
1 53
1 54
1 55
1 56
1 57
1 58
1 59
1 60
1 61
1 62
1 63
1 64
1 65
1 66
1 67
1 68
1 69
1 70
1 71
1 72
1 73
1 74
1 75
1 76
1 77
1 78
1 79
1 80
1 81
1 82
1 83
1 84
1 85
1 86
1 87
1 88
1 89
1 90
1 91
1 92
1 93
1 94
1 95
1 96
1 97
1 98
1 99
1 100
1 101
1 102
1 103
1 104
1 105
1 106
1 107
1 108
1 109
1 110
1 111
1 112
1 113
1 114
1 115
1 116
1 117
1 118
1 119
1 120
1 121
1 122
1 123
1 124
1 125
1 126
1 127
1 128
1 129
1 130
1 131
1 132
1 133
1 134
1 135
1 136
1 137
1 138
1 139
1 140
1 141
1 142
1 143
1 144
1 145
1 146
1 147
1 148
1 149
1 150
1 151
1 152
1 153
1 154
1 155
1 156
1 157
1 158
1 159
1 160
1 161
1 162
1 163
1 164
1 165
1 166
1 167
1 168
1 169
1 170
1 171
1 172
1 173
1 174
1 175
1 176
1 177
1 178
1 179
1 180
1 181
1 182
1 183
1 184
1 185
1 186
1 187
1 188
1 189
1 190
1 191
1 192
1 193
1 194
1 195
1 196
1 197
1 198
1 199
1 200
1 201
1 202
1 203
1 204
1 205
1 206
1 207
1 208
1 209
1 210
1 211
1 212
1 213
1 214
1 215
1 216
1 217
1 218
1 219
1 220
1 221
1 222
1 223
1 224
1 225
1 226
1 227
1 228
1 229
1 230
1 231
1 232
1 233
1 234
1 235
1 236
1 237
1 238
1 239
1 240
1 241
1 242
1 243
1 244
1 245
1 246
1 247
1 248
1 249
1 250
1 251
1 252
1 253
1 254
1 255
1 256
1 257
1 258
1 259
1 260
1 261
1 262
1 263
1 264
1 265
1 266
1 267
1 268
1 269
1 270
1 271
1 272
1 273
1 274
1 275
1 276

POINT_DATA 277
SCALARS id int 1
LOOKUP_TABLE default
1
2
3
4
5
6
8
9
10
11
12
13
14
15
16
18
19
20
21
22
24
25
26
27
29
30
31
32
33
34
35
36
38
40
41
42
43
44
45
46
47
48
49
50
52
55
56
57
58
59
60
61
62
63
64
65
66
67
68
69
70
71
72
73
74
75
76
77
78
79
80
81
82
83
84
85
86
87
88
89
90
91
92
93
94
95
96
98
99
100
101
102
103
104
105
106
107
108
109
110
111
113
114
115
116
117
118
119
120
121
122
123
124
125
126
127
128
129
130
131
132
133
134
135
136
137
138
139
140
141
142
144
145
146
147
148
149
150
152
153
154
155
156
157
158
159
160
161
162
164
165
166
167
168
169
170
171
172
173
174
175
176
177
178
179
180
181
182
183
184
185
186
187
188
189
191
192
193
194
195
196
197
198
199
200
201
202
203
204
205
206
207
208
210
211
213
214
215
217
218
220
221
222
223
224
225
226
227
228
229
230
231
232
233
234
235
236
237
238
239
241
242
243
244
245
246
247
248
249
250
251
252
253
254
255
256
257
258
259
260
261
262
263
264
265
267
268
269
270
271
272
273
274
275
276
277
278
279
280
281
282
283
284
285
286
287
288
289
290
292
293
294
295
296
297
298
300

SCALARS type int 1
LOOKUP_TABLE default
1
1
1
1
1
1
1
1
1
1
1
1
1
1
1
1
1
1
1
1
1
1
1
1
1
1
1
1
1
1
1
1
1
1
1
1
1
1
1
1
1
1
1
1
1
1
1
1
1
1
1
1
1
1
1
1
1
1
1
1
1
1
1
1
1
1
1
1
1
1
1
1
1
1
1
1
1
1
1
1
1
1
1
1
1
1
1
1
1
1
1
1
1
1
1
1
1
1
1
1
1
1
1
1
1
1
1
1
1
1
1
1
1
1
1
1
1
1
1
1
1
1
1
1
1
1
1
1
1
1
1
1
1
1
1
1
1
1
1
1
1
1
1
1
1
1
1
1
1
1
1
1
1
1
1
1
1
1
1
1
1
1
1
1
1
1
1
1
1
1
1
1
1
1
1
1
1
1
1
1
1
1
1
1
1
1
1
1
1
1
1
1
1
1
1
1
1
1
1
1
1
1
1
1
1
1
1
1
1
1
1
1
1
1
1
1
1
1
1
1
1
1
1
1
1
1
1
1
1
1
1
1
1
1
1
1
1
1
1
1
1
1
1
1
1
1
1
1
1
1
1
1
1
1
1
1
1
1
1
1
1
1
1
1
1
1
1
1
1
1
1
1
1
1
1
1
1

SCALARS radius float 1
LOOKUP_TABLE default
5e-05
5e-05
5e-05
5e-05
5e-05
5e-05
5e-05
5e-05
5e-05
5e-05
5e-05
5e-05
5e-05
5e-05
5e-05
5e-05
5e-05
5e-05
5e-05
5e-05
5e-05
5e-05
5e-05
5e-05
5e-05
5e-05
5e-05
5e-05
5e-05
5e-05
5e-05
5e-05
5e-05
5e-05
5e-05
5e-05
5e-05
5e-05
5e-05
5e-05
5e-05
5e-05
5e-05
5e-05
5e-05
5e-05
5e-05
5e-05
5e-05
5e-05
5e-05
5e-05
5e-05
5e-05
5e-05
5e-05
5e-05
5e-05
5e-05
5e-05
5e-05
5e-05
5e-05
5e-05
5e-05
5e-05
5e-05
5e-05
5e-05
5e-05
5e-05
5e-05
5e-05
5e-05
5e-05
5e-05
5e-05
5e-05
5e-05
5e-05
5e-05
5e-05
5e-05
5e-05
5e-05
5e-05
5e-05
5e-05
5e-05
5e-05
5e-05
5e-05
5e-05
5e-05
5e-05
5e-05
5e-05
5e-05
5e-05
5e-05
5e-05
5e-05
5e-05
5e-05
5e-05
5e-05
5e-05
5e-05
5e-05
5e-05
5e-05
5e-05
5e-05
5e-05
5e-05
5e-05
5e-05
5e-05
5e-05
5e-05
5e-05
5e-05
5e-05
5e-05
5e-05
5e-05
5e-05
5e-05
5e-05
5e-05
5e-05
5e-05
5e-05
5e-05
5e-05
5e-05
5e-05
5e-05
5e-05
5e-05
5e-05
5e-05
5e-05
5e-05
5e-05
5e-05
5e-05
5e-05
5e-05
5e-05
5e-05
5e-05
5e-05
5e-05
5e-05
5e-05
5e-05
5e-05
5e-05
5e-05
5e-05
5e-05
5e-05
5e-05
5e-05
5e-05
5e-05
5e-05
5e-05
5e-05
5e-05
5e-05
5e-05
5e-05
5e-05
5e-05
5e-05
5e-05
5e-05
5e-05
5e-05
5e-05
5e-05
5e-05
5e-05
5e-05
5e-05
5e-05
5e-05
5e-05
5e-05
5e-05
5e-05
5e-05
5e-05
5e-05
5e-05
5e-05
5e-05
5e-05
5e-05
5e-05
5e-05
5e-05
5e-05
5e-05
5e-05
5e-05
5e-05
5e-05
5e-05
5e-05
5e-05
5e-05
5e-05
5e-05
5e-05
5e-05
5e-05
5e-05
5e-05
5e-05
5e-05
5e-05
5e-05
5e-05
5e-05
5e-05
5e-05
5e-05
5e-05
5e-05
5e-05
5e-05
5e-05
5e-05
5e-05
5e-05
5e-05
5e-05
5e-05
5e-05
5e-05
5e-05
5e-05
5e-05
5e-05
5e-05
5e-05
5e-05
5e-05
5e-05
5e-05
5e-05
5e-05
5e-05
5e-05
5e-05
5e-05
5e-05
5e-05
5e-05
5e-05
5e-05
5e-05
5e-05
5e-05
5e-05
5e-05
5e-05
5e-05
5e-05
5e-05
5e-05
5e-05
5e-05
5e-05

SCALARS mass float 1
LOOKUP_TABLE default
1.46608e-10
1.46608e-10
1.46608e-10
1.46608e-10
1.46608e-10
1.46608e-10
1.46608e-10
1.46608e-10
1.46608e-10
1.46608e-10
1.46608e-10
1.46608e-10
1.46608e-10
1.46608e-10
1.46608e-10
1.46608e-10
1.46608e-10
1.46608e-10
1.46608e-10
1.46608e-10
1.46608e-10
1.46608e-10
1.46608e-10
1.46608e-10
1.46608e-10
1.46608e-10
1.46608e-10
1.46608e-10
1.46608e-10
1.46608e-10
1.46608e-10
1.46608e-10
1.46608e-10
1.46608e-10
1.46608e-10
1.46608e-10
1.46608e-10
1.46608e-10
1.46608e-10
1.46608e-10
1.46608e-10
1.46608e-10
1.46608e-10
1.46608e-10
1.46608e-10
1.46608e-10
1.46608e-10
1.46608e-10
1.46608e-10
1.46608e-10
1.46608e-10
1.46608e-10
1.46608e-10
1.46608e-10
1.46608e-10
1.46608e-10
1.46608e-10
1.46608e-10
1.46608e-10
1.46608e-10
1.46608e-10
1.46608e-10
1.46608e-10
1.46608e-10
1.46608e-10
1.46608e-10
1.46608e-10
1.46608e-10
1.46608e-10
1.46608e-10
1.46608e-10
1.46608e-10
1.46608e-10
1.46608e-10
1.46608e-10
1.46608e-10
1.46608e-10
1.46608e-10
1.46608e-10
1.46608e-10
1.46608e-10
1.46608e-10
1.46608e-10
1.46608e-10
1.46608e-10
1.46608e-10
1.46608e-10
1.46608e-10
1.46608e-10
1.46608e-10
1.46608e-10
1.46608e-10
1.46608e-10
1.46608e-10
1.46608e-10
1.46608e-10
1.46608e-10
1.46608e-10
1.46608e-10
1.46608e-10
1.46608e-10
1.46608e-10
1.46608e-10
1.46608e-10
1.46608e-10
1.46608e-10
1.46608e-10
1.46608e-10
1.46608e-10
1.46608e-10
1.46608e-10
1.46608e-10
1.46608e-10
1.46608e-10
1.46608e-10
1.46608e-10
1.46608e-10
1.46608e-10
1.46608e-10
1.46608e-10
1.46608e-10
1.46608e-10
1.46608e-10
1.46608e-10
1.46608e-10
1.46608e-10
1.46608e-10
1.46608e-10
1.46608e-10
1.46608e-10
1.46608e-10
1.46608e-10
1.46608e-10
1.46608e-10
1.46608e-10
1.46608e-10
1.46608e-10
1.46608e-10
1.46608e-10
1.46608e-10
1.46608e-10
1.46608e-10
1.46608e-10
1.46608e-10
1.46608e-10
1.46608e-10
1.46608e-10
1.46608e-10
1.46608e-10
1.46608e-10
1.46608e-10
1.46608e-10
1.46608e-10
1.46608e-10
1.46608e-10
1.46608e-10
1.46608e-10
1.46608e-10
1.46608e-10
1.46608e-10
1.46608e-10
1.46608e-10
1.46608e-10
1.46608e-10
1.46608e-10
1.46608e-10
1.46608e-10
1.46608e-10
1.46608e-10
1.46608e-10
1.46608e-10
1.46608e-10
1.46608e-10
1.46608e-10
1.46608e-10
1.46608e-10
1.46608e-10
1.46608e-10
1.46608e-10
1.46608e-10
1.46608e-10
1.46608e-10
1.46608e-10
1.46608e-10
1.46608e-10
1.46608e-10
1.46608e-10
1.46608e-10
1.46608e-10
1.46608e-10
1.46608e-10
1.46608e-10
1.46608e-10
1.46608e-10
1.46608e-10
1.46608e-10
1.46608e-10
1.46608e-10
1.46608e-10
1.46608e-10
1.46608e-10
1.46608e-10
1.46608e-10
1.46608e-10
1.46608e-10
1.46608e-10
1.46608e-10
1.46608e-10
1.46608e-10
1.46608e-10
1.46608e-10
1.46608e-10
1.46608e-10
1.46608e-10
1.46608e-10
1.46608e-10
1.46608e-10
1.46608e-10
1.46608e-10
1.46608e-10
1.46608e-10
1.46608e-10
1.46608e-10
1.46608e-10
1.46608e-10
1.46608e-10
1.46608e-10
1.46608e-10
1.46608e-10
1.46608e-10
1.46608e-10
1.46608e-10
1.46608e-10
1.46608e-10
1.46608e-10
1.46608e-10
1.46608e-10
1.46608e-10
1.46608e-10
1.46608e-10
1.46608e-10
1.46608e-10
1.46608e-10
1.46608e-10
1.46608e-10
1.46608e-10
1.46608e-10
1.46608e-10
1.46608e-10
1.46608e-10
1.46608e-10
1.46608e-10
1.46608e-10
1.46608e-10
1.46608e-10
1.46608e-10
1.46608e-10
1.46608e-10
1.46608e-10
1.46608e-10
1.46608e-10
1.46608e-10
1.46608e-10
1.46608e-10
1.46608e-10
1.46608e-10
1.46608e-10
1.46608e-10
1.46608e-10
1.46608e-10
1.46608e-10
1.46608e-10
1.46608e-10
1.46608e-10
1.46608e-10
1.46608e-10
1.46608e-10

VECTORS velocity float
1.79762e-18 5.21742e-22 -1.37251e-15
2.81054e-18 5.55983e-21 -2.14593e-15
2.81057e-18 1.36252e-21 -2.14593e-15
2.24033e-18 -2.62332e-22 -1.71051e-15
4.02133e-18 2.8396e-18 -1.58613e-16
1.79763e-18 -3.22313e-20 -1.37251e-15
1.79764e-18 2.13336e-21 -1.37251e-15
2.8106e-18 -2.67115e-21 -2.14593e-15
-3.50201e-19 -5.53707e-20 2.67382e-16
2.24036e-18 1.83921e-21 -1.71052e-15
2.81054e-18 9.67496e-21 -2.14593e-15
2.81059e-18 2.08914e-22 -2.14593e-15
0.00448222 -0.000222742 1.40019e-05
-3.50214e-19 -1.93921e-20 2.6738e-16
0.00484602 -0.000481131 -0.000324283
-3.50174e-19 -6.00453e-21 2.67381e-16
2.81057e-18 -3.58876e-21 -2.14593e-15
2.24036e-18 8.81747e-23 -1.71052e-15
2.21678e-16 -2.60389e-16 -4.93769e-16
2.81057e-18 -1.46364e-20 -2.14593e-15
2.81058e-18 4.11973e-21 -2.14593e-15
2.10153e-19 1.83533e-20 -1.53218e-16
2.24032e-18 1.32792e-23 -1.71052e-15
0.00478008 -0.000373049 -0.000386926
1.79762e-18 -5.41022e-22 -1.37251e-15
2.24035e-18 -1.15713e-21 -1.71052e-15
-3.50189e-19 -1.1043e-20 2.67381e-16
-3.50207e-19 6.27499e-21 2.67382e-16
1.7976e-18 8.86141e-22 -1.37251e-15
2.16584e-19 -5.06487e-21 -1.53277e-16
-3.50223e-19 -9.63571e-21 2.67381e-16
2.15047e-19 -1.91801e-20 -1.53247e-16
1.79759e-18 1.21308e-20 -1.37251e-15
2.24033e-18 9.22768e-21 -1.71052e-15
-3.50212e-19 -1.46336e-21 2.6738e-16
-3.50198e-19 -9.9992e-21 2.67382e-16
-9.20537e-19 6.58557e-22 7.02843e-16
-9.20547e-19 -2.2663e-23 7.02843e-16
2.24035e-18 9.59547e-22 -1.71052e-15
2.81059e-18 -6.05182e-22 -2.14593e-15
1.79762e-18 1.91409e-22 -1.37251e-15
2.24036e-18 -2.2291e-22 -1.71051e-15
-9.20556e-19 9.25996e-22 7.02843e-16
-3.50187e-19 4.68805e-22 2.67381e-16
0.00453438 -0.000247113 -9.00597e-05
0.0045434 -0.000245966 -9.25119e-05
-3.50224e-19 1.68752e-20 2.67382e-16
1.79759e-18 -2.54273e-20 -1.37251e-15
0.00475038 -0.000478902 -0.000324573
1.79759e-18 -1.79134e-21 -1.37249e-15
2.92963e-18 6.48061e-21 -2.23681e-15
1.45287e-18 -3.49787e-21 -1.10924e-15
2.24031e-18 6.14894e-23 -1.71052e-15
7.03218e-16 -1.69533e-14 -7.30358e-14
2.24036e-18 1.3011e-22 -1.71051e-15
2.24034e-18 1.62706e-21 -1.71052e-15
0.00451051 -0.000210451 2.13694e-05
2.81054e-18 1.67358e-21 -2.14593e-15
0.00478347 -0.000381612 -0.000382101
1.79755e-18 2.1011e-20 -1.37249e-15
2.81058e-18 -7.55183e-23 -2.14593e-15
0.00474112 -0.000340201 -0.000400474
-9.20521e-19 1.26569e-23 7.02844e-16
1.79764e-18 4.92203e-21 -1.37251e-15
2.24036e-18 -1.82387e-22 -1.71052e-15
1.79762e-18 3.87551e-21 -1.37251e-15
2.24036e-18 -2.0801e-23 -1.71052e-15
2.81057e-18 2.79363e-20 -2.14593e-15
0.00443316 -0.000133858 7.74716e-06
1.64369e-18 5.35849e-20 -1.25496e-15
4.59178e-19 -1.56683e-23 -3.51692e-16
0.00446104 -0.000213148 2.46385e-05
0.00447348 -0.000146898 -0.000119908
0.00444906 -0.000126862 8.96783e-07
-3.50218e-19 2.07054e-20 2.6738e-16
0.0047707 -0.00041839 -0.00024572
1.79764e-18 4.74084e-23 -1.37251e-15
-4.29433e-21 6.4522e-21 7.29274e-21
2.24034e-18 -1.11385e-20 -1.71051e-15
2.24035e-18 1.2911e-21 -1.71052e-15
2.24036e-18 3.49522e-23 -1.71052e-15
2.24037e-18 -1.41517e-21 -1.71052e-15
4.40506e-18 -1.80377e-14 -5.94669e-14
1.79763e-18 -1.9163e-21 -1.37251e-15
2.24035e-18 1.03736e-20 -1.71051e-15
8.71386e-19 -4.53492e-21 -6.65298e-16
-3.27769e-21 -2.31562e-21 -1.20526e-21
1.79764e-18 2.98287e-21 -1.37251e-15
0.00442194 -0.000148276 -0.000118128
2.24036e-18 -1.21645e-22 -1.71052e-15
0.00443876 -0.000186388 -0.00010498
2.8106e-18 -6.67039e-21 -2.14593e-15
1.79764e-18 -1.64332e-21 -1.37251e-15
0.0048262 -0.000399608 -0.000376847
0.00453998 -0.000258313 -8.36649e-05
1.93652e-19 -6.53557e-21 -1.64061e-16
0.00441561 -0.000145566 1.81487e-05
2.81059e-18 -2.22952e-21 -2.14593e-15
1.7976e-18 1.47498e-21 -1.37249e-15
-9.20557e-19 2.40077e-22 7.02843e-16
2.24035e-18 -1.00813e-20 -1.71051e-15
-3.50188e-19 1.7721e-20 2.6738e-16
0.00478025 -0.000482222 -0.000325758
1.7976e-18 -1.50228e-21 -1.37251e-15
1.79759e-18 -2.92767e-21 -1.37251e-15
2.24035e-18 -5.19214e-21 -1.71051e-15
0.00441584 -0.00017247 1.76268e-05
2.24036e-18 2.523e-20 -1.71052e-15
1.95979e-19 -7.50055e-21 -1.53249e-16
3.30367e-19 6.02376e-21 -2.55345e-16
1.79755e-18 1.11686e-21 -1.37249e-15
0.00457801 -0.000272811 -8.22277e-05
2.81056e-18 7.33013e-21 -2.14593e-15
2.81054e-18 -8.69862e-22 -2.14593e-15
1.79759e-18 6.58794e-21 -1.37249e-15
0.00444421 -0.000331457 -0.000275839
1.7976e-18 -3.95179e-21 -1.37249e-15
0.00449301 -0.000335239 -0.000267735
2.24031e-18 5.48244e-21 -1.71052e-15
0.00441977 -0.000184988 1.36969e-05
2.8106e-18 7.01794e-21 -2.14593e-15
1.7976e-18 -4.175e-21 -1.37251e-15
-9.20559e-19 1.74189e-23 7.02844e-16
4.58535e-19 -3.54225e-21 -3.51694e-16
0.00442798 -0.00021572 -9.04235e-05
4.61252e-19 6.05334e-21 -3.51693e-16
3.33999e-19 -9.36137e-21 -2.55365e-16
2.24035e-18 1.50102e-21 -1.71052e-15
2.02125e-19 -1.20404e-22 -1.53248e-16
0.00442301 -0.000207354 -9.90838e-05
2.24035e-18 -1.9555e-20 -1.71052e-15
2.81056e-18 9.18203e-22 -2.14593e-15
1.36974e-21 -5.74669e-21 1.22281e-20
1.79759e-18 2.12457e-21 -1.37251e-15
0.00440677 -0.000140412 1.31429e-05
2.24035e-18 1.89903e-22 -1.71052e-15
2.0612e-19 -2.03243e-20 -1.53238e-16
3.21871e-19 3.10804e-21 -2.55365e-16
0.00483363 -0.000499827 -0.000320903
4.63564e-19 1.24016e-22 -3.51689e-16
0.00481553 -0.000482603 -0.000330938
0.00474935 -0.000415764 -0.000248514
0.00449223 -0.000209098 1.98748e-05
2.24031e-18 -9.99792e-23 -1.71052e-15
0.00444658 -0.000161052 1.63844e-05
2.00506e-18 -7.07186e-21 -1.5309e-15
0.00448598 -0.000178686 -0.000112243
3.38811e-19 -3.25413e-21 -2.55366e-16
0.00443529 -0.000175208 1.76831e-05
1.79763e-18 -9.11784e-21 -1.37251e-15
0.00443098 -0.00045825 -1.79794e-05
2.24035e-18 7.48109e-23 -1.71052e-15
0.00442372 -0.000192471 1.95266e-05
1.79757e-18 1.22996e-20 -1.37249e-15
0.00439545 -0.000178704 1.80717e-05
0.00442805 -0.000171065 1.73696e-05
1.79761e-18 -4.55964e-21 -1.37249e-15
0.00444048 -0.000180584 -0.000119602
2.24032e-18 -1.56986e-20 -1.71052e-15
0.00449368 -0.000175232 -0.000112232
0.0048234 -0.000485525 -0.000332197
0.00483285 -0.000521809 -0.000317682
0.00443895 -0.000166337 1.63953e-05
0.00478038 -0.000267822 -0.000172854
0.00479326 -0.000483791 -0.000326879
1.79764e-18 -4.55069e-22 -1.37251e-15
0.00442614 -0.000189799 -0.000124042
1.7976e-18 -1.03305e-21 -1.37251e-15
0.00442878 -0.000218952 -2.9314e-05
1.7976e-18 -1.25314e-20 -1.37249e-15
0.0047577 -0.000425877 -0.000293769
0.00482736 -0.000494591 -0.000322093
2.81058e-18 3.96422e-21 -2.14593e-15
2.24033e-18 -3.08735e-23 -1.71052e-15
2.24031e-18 5.05619e-21 -1.71051e-15
1.7976e-18 8.78527e-23 -1.37249e-15
0.00442179 -0.000173805 1.38767e-05
-3.50172e-19 -1.35899e-21 2.67382e-16
1.79761e-18 -5.6794e-22 -1.37251e-15
0.00454942 -0.000265633 -8.09732e-05
0.00443684 -0.000174801 1.82834e-05
1.79762e-18 -1.80691e-21 -1.37251e-15
0.00449701 -0.000276605 -7.80967e-05
0.00440585 -7.57498e-05 5.50437e-06
0.00442642 -0.000326142 -0.000272973
0.00442161 -0.000137803 -0.000121054
0.0044161 -0.000179233 1.82081e-05
-3.50169e-19 1.4119e-21 2.67382e-16
0.00451439 -0.000248657 -8.0072e-05
0.00472862 -0.000393066 -0.000256449
0.00485154 -0.000505629 -0.000320294
0.00479876 -0.000390687 -0.000379081
0.00442784 -0.000179163 1.82461e-05
1.09092e-18 3.14084e-20 -8.35e-16
1.79763e-18 2.77873e-21 -1.37251e-15
-3.50199e-19 2.06278e-20 2.67381e-16
2.24031e-18 4.92538e-21 -1.71052e-15
0.00465211 -0.000373646 -0.000265118
1.79762e-18 1.83282e-22 -1.37251e-15
2.24037e-18 1.14566e-21 -1.71052e-15
2.01607e-19 4.20708e-21 -1.53247e-16
0.00480397 -0.000485924 -0.000325176
-3.50195e-19 3.17086e-21 2.67382e-16
0.00477174 -0.000353813 -0.000397035
0.00441426 -0.000315569 -0.000265123
-3.50211e-19 -3.23031e-22 2.67381e-16
0.00481368 -0.000478206 -0.000333351
0.00445621 -0.00018291 -0.000108974
0.00481302 -0.00048511 -0.00032807
0.00483698 -0.000492226 -0.000328305
0.0044099 -0.000163017 -4.09405e-05
0.00474291 -0.000399205 -0.000258032
0.00438715 -0.000122756 1.22972e-05
1.79762e-18 -2.84956e-21 -1.37251e-15
-3.50198e-19 7.53228e-21 2.67381e-16
0.00445937 -0.0001595 1.85241e-05
0.00476761 -0.000456989 -0.000336064
0.00444375 -0.000198654 1.75349e-05
0.00482371 -0.000492959 -0.000325776
0.00485286 -0.000140671 0.000559209
0.00477788 -0.000432825 -0.000311633
0.00478849 -0.000469122 -0.000333814
0.00466554 -0.000270169 0.000534674
0.00484805 -0.000137424 0.000558013
0.0043937 -0.000181698 1.75926e-05
0.00483733 -0.000130209 0.000552373
-9.20567e-19 -2.63025e-21 7.02844e-16
3.34236e-19 -3.2681e-21 -2.55359e-16
0.00443091 -0.000164922 1.66967e-05
1.79755e-18 -1.89894e-22 -1.37249e-15
6.80438e-15 2.29885e-14 -7.03249e-14
0.00484234 -0.00013579 0.000555361
0.00446229 -0.000151349 -6.41593e-05
0.00447831 -0.000182269 -0.000110588
0.00478103 -0.000364122 -0.000392342
0.00441919 -0.000174604 -9.57588e-05
0.0044303 -0.0001427 -0.000119557
0.00484504 -0.000468074 -0.000340992
0.00458384 0.000525145 -0.000867473
-3.50193e-19 1.22253e-21 2.67381e-16
0.00446542 -0.000232478 2.13517e-05
0.0044328 -0.000144778 -0.000117457
0.00482529 -0.000104534 0.000541705
0.00449306 -0.000203672 -9.97511e-05
0.00480046 -0.000466127 -0.000335864
-9.20522e-19 -6.91729e-23 7.02842e-16
0.00439864 -0.000174379 1.76985e-05
0.00444564 -0.000204258 -0.000103773
0.00447529 -0.000209017 1.85974e-05
0.00452866 -0.000258929 -8.90847e-05
0.00442605 -0.000183499 1.86028e-05
0.00461451 -0.000273465 -8.54707e-05
0.00484925 -0.000494882 -0.000325827
0.00441363 -0.000234998 -8.71551e-05
0.00445903 -0.000151822 1.55667e-05
0.00486802 -0.000506652 -0.000331353
1.79762e-18 -4.98489e-21 -1.37251e-15
-1.28876e-14 6.08968e-14 -1.90218e-13
0.00439443 -0.000178235 2.59749e-05
0.00455398 -0.000253505 -8.78741e-05
0.00483299 -0.000291256 4.5689e-05
0.00483013 -0.000131275 0.000553024
0.00465392 -0.000207834 -0.000104736
0.00477527 -0.00046556 -0.000339776
0.00485561 -0.000497076 -0.000326796
1.79758e-18 -6.23584e-22 -1.37249e-15
0.00442814 -0.000178578 -0.000100613
0.00459487 -0.000266061 -8.74656e-05
0.00494286 -0.0004094 -0.000189638
0.00449818 -0.0002339 2.34733e-05
1.79759e-18 -1.06149e-21 -1.37251e-15
0.00480174 -0.000473788 -0.000333263
0.00483281 -0.000372543 -0.000326325
-2.09276e-15 5.04125e-14 2.1718e-13
1.79759e-18 -7.54418e-21 -1.37251e-15
0.00437976 -0.000238038 -8.74208e-05
-2.09326e-15 5.04125e-14 2.1718e-13

VECTORS force float
-4.03897e-28 3.21039e-26 0.0
0.0 5.09287e-27 0.0
0.0 5.92333e-26 0.0
0.0 -2.17242e-27 0.0
-5.16988e-26 0.0 0.0
0.0 3.66324e-25 0.0
0.0 -1.13574e-26 0.0
0.0 1.09746e-26 0.0
0.0 4.42439e-25 0.0
0.0 -4.29739e-26 0.0
0.0 -5.137e-26 0.0
0.0 1.55617e-25 0.0
5.23638e-11 -1.27628e-11 -6.86445e-11
-4.03897e-28 -3.10277e-25 0.0
-2.23436e-10 -3.94461e-11 3.12392e-11
0.0 -7.82148e-27 0.0
-4.03897e-28 2.86615e-26 0.0
0.0 6.14318e-26 0.0
5.16988e-26 0.0 0.0
0.0 3.565e-26 0.0
0.0 4.19075e-26 0.0
0.0 0.0 0.0
0.0 -2.59165e-27 0.0
1.48362e-10 -1.08047e-10 3.91553e-11
0.0 1.79976e-25 0.0
0.0 -2.2947e-26 0.0
0.0 -2.41205e-25 0.0
0.0 -9.16936e-26 0.0
0.0 1.64508e-26 0.0
5.16988e-26 0.0 0.0
0.0 -2.2956e-26 0.0
1.03398e-25 2.58494e-26 2.06795e-25
0.0 2.5502e-25 0.0
0.0 -7.56103e-26 0.0
0.0 -1.24786e-25 0.0
0.0 6.4078e-26 0.0
-4.03897e-28 -2.71492e-27 0.0
0.0 2.6926e-29 0.0
0.0 -1.44399e-26 0.0
0.0 2.777e-27 0.0
4.03897e-28 4.1029e-26 0.0
0.0 -5.4966e-27 0.0
0.0 1.71519e-26 0.0
0.0 9.95963e-28 0.0
1.13711e-12 2.3454e-11 1.55271e-11
-1.65458e-10 -1.41104e-11 -2.54444e-11
0.0 2.51202e-25 0.0
0.0 7.13815e-25 0.0
-1.40068e-10 1.17877e-11 -1.05587e-12
0.0 -9.28124e-27 0.0
0.0 -1.4144e-25 0.0
0.0 -2.25163e-25 0.0
0.0 3.13874e-28 0.0
-2.8192e-24 -2.06795e-25 0.0
0.0 9.85583e-28 0.0
0.0 7.10455e-26 0.0
4.66467e-14 1.30299e-10 -1.29282e-11
0.0 -2.10083e-26 0.0
1.8023e-10 -9.85105e-11 3.04505e-11
0.0 -1.38683e-26 0.0
0.0 4.7751e-26 0.0
-6.93451e-11 1.3838e-11 7.39992e-12
0.0 3.47031e-28 0.0
0.0 2.40235e-28 0.0
0.0 -5.22654e-26 0.0
0.0 9.59294e-26 0.0
0.0 -1.05258e-26 0.0
0.0 1.2835e-25 0.0
-1.10821e-10 1.04937e-10 -6.13938e-11
0.0 -2.57965e-25 0.0
0.0 -2.58494e-26 0.0
-7.16249e-11 -6.57586e-11 -1.18805e-11
-4.40512e-11 1.65399e-12 -2.23537e-11
-5.15981e-11 1.94562e-12 -6.18065e-11
-4.03897e-28 -2.10642e-25 0.0
-1.9201e-11 3.40918e-11 -9.21156e-11
0.0 -2.58193e-28 0.0
0.0 0.0 0.0
0.0 2.25676e-25 0.0
0.0 -1.27407e-25 0.0
0.0 2.83102e-28 0.0
0.0 2.08505e-25 0.0
-1.76213e-25 0.0 0.0
0.0 3.33802e-26 0.0
0.0 -6.64578e-26 0.0
0.0 -1.88312e-25 0.0
0.0 0.0 0.0
0.0 -3.94503e-26 0.0
3.41116e-11 -1.91157e-11 9.86989e-13
0.0 7.20764e-27 0.0
2.69813e-11 3.57449e-11 1.27714e-11
0.0 2.72407e-26 0.0
0.0 1.72733e-26 0.0
-1.92298e-12 1.16639e-11 -3.45156e-11
3.47912e-12 2.04213e-11 -1.67609e-11
2.58494e-26 -1.61559e-26 0.0
3.21175e-11 2.43138e-11 -2.52658e-11
0.0 -3.84828e-25 0.0
-4.03897e-28 7.58754e-26 0.0
0.0 6.86339e-27 0.0
0.0 -3.45516e-26 0.0
0.0 -1.9293e-25 0.0
-7.91041e-11 3.65383e-11 -5.49353e-12
0.0 1.62655e-26 0.0
0.0 -3.37746e-26 0.0
0.0 1.37e-25 0.0
-2.563e-11 -8.73896e-11 8.7261e-12
4.03897e-28 3.70698e-25 0.0
-1.03398e-25 5.16988e-26 -4.1359e-25
0.0 0.0 0.0
0.0 8.4548e-27 0.0
-4.31867e-11 6.34533e-11 -4.00557e-11
0.0 -9.50733e-27 0.0
0.0 6.60347e-27 0.0
0.0 1.01109e-26 0.0
-8.23472e-11 -3.8399e-10 -5.04657e-10
0.0 -1.98621e-26 0.0
-7.16189e-12 -7.96285e-12 7.01897e-11
0.0 -1.11464e-25 0.0
-1.59808e-11 -1.60222e-11 1.14687e-11
0.0 2.36631e-26 0.0
0.0 4.50475e-27 0.0
0.0 4.76143e-27 0.0
0.0 0.0 0.0
-9.78792e-11 1.20264e-10 -3.25782e-11
-1.29247e-26 0.0 0.0
0.0 0.0 0.0
0.0 1.12339e-27 0.0
0.0 1.29247e-26 0.0
-2.86971e-12 1.27405e-11 1.80668e-13
0.0 -1.93708e-25 0.0
0.0 -2.77508e-26 0.0
0.0 0.0 0.0
-4.03897e-28 2.25276e-26 0.0
-2.60258e-11 7.26061e-11 -5.24547e-11
4.03897e-28 -1.90204e-27 0.0
-1.03398e-25 7.75482e-26 0.0
0.0 0.0 0.0
5.26006e-12 -2.16158e-11 1.53949e-11
0.0 -2.58494e-26 0.0
1.3772e-10 -6.44629e-11 -7.79339e-12
1.46103e-11 8.54331e-11 -4.43376e-11
-1.03486e-11 1.49981e-11 2.20265e-12
4.03897e-28 -1.34416e-27 0.0
1.47129e-10 -1.98617e-11 2.40681e-12
0.0 -1.26954e-25 0.0
-1.1537e-11 9.6877e-11 -3.11351e-11
0.0 0.0 0.0
6.07796e-11 -2.33348e-11 2.38495e-12
0.0 -1.0117e-25 0.0
-1.19514e-11 -2.04711e-11 1.92684e-12
0.0 -9.65288e-28 0.0
-1.71786e-11 1.23777e-11 -1.49236e-12
0.0 5.24167e-26 0.0
2.51335e-11 -2.69009e-11 1.32655e-12
3.26739e-11 -9.43959e-11 1.18349e-11
0.0 -9.65953e-26 0.0
1.7612e-11 6.21915e-11 -2.70633e-11
4.03897e-28 -9.51688e-26 0.0
3.18e-11 9.60337e-11 -5.71198e-11
-2.14093e-11 7.8046e-11 -2.13441e-11
-6.83624e-11 -1.8688e-11 -2.74392e-12
1.73544e-12 -9.87179e-11 1.06625e-11
3.12665e-12 8.96619e-11 2.2219e-12
-1.29254e-10 6.19701e-11 -4.63155e-12
0.0 3.63819e-27 0.0
1.12962e-11 4.2556e-11 -5.06535e-11
0.0 -1.36678e-26 0.0
-1.20014e-11 -3.2011e-11 1.74366e-11
0.0 1.31988e-25 0.0
3.00365e-12 -3.0427e-11 -1.22161e-10
2.69052e-11 -4.57417e-11 1.08398e-11
0.0 -3.22903e-26 0.0
0.0 1.89665e-26 0.0
0.0 -4.98053e-26 0.0
0.0 -6.6597e-28 0.0
7.23624e-11 6.64629e-11 -9.13342e-12
0.0 -2.57238e-26 0.0
0.0 3.96127e-28 0.0
1.10607e-11 1.45647e-10 4.43392e-11
-1.41624e-11 1.38935e-11 1.58696e-11
0.0 3.08037e-25 0.0
2.77343e-13 -8.26581e-12 -1.65564e-11
-1.54702e-10 1.02251e-10 -1.34055e-11
7.90041e-11 -1.19363e-10 -6.6241e-11
4.60208e-11 -9.70717e-12 4.54622e-12
-8.03358e-12 2.12316e-11 -3.53383e-12
0.0 -1.83087e-27 0.0
-5.95878e-11 -2.51406e-11 -2.97852e-11
1.10859e-10 3.33163e-11 -6.43654e-11
-3.27947e-11 2.05369e-11 2.62487e-11
4.65416e-12 -2.08259e-11 7.71886e-12
5.39121e-12 6.21091e-11 -5.93719e-12
0.0 0.0 0.0
0.0 -7.11248e-26 0.0
0.0 -1.19024e-25 0.0
0.0 1.7879e-25 0.0
2.93827e-10 -5.84331e-11 9.62259e-13
0.0 -5.2508e-27 0.0
0.0 -1.28587e-26 0.0
6.46235e-27 0.0 0.0
1.93467e-11 5.50865e-11 -1.94e-11
0.0 2.13662e-26 0.0
-9.20013e-11 1.99767e-12 1.3165e-11
2.56374e-11 -5.2211e-11 3.53796e-11
0.0 -1.38339e-26 0.0
-2.17054e-11 4.7962e-11 5.04354e-12
-4.68672e-11 3.44435e-11 -9.10748e-12
-1.16437e-10 -1.08031e-11 6.54108e-12
-6.54854e-11 1.01968e-10 -5.93106e-11
8.01229e-11 7.18264e-11 5.50086e-11
-1.86684e-11 5.5581e-11 -6.21727e-11
-3.56377e-11 -9.48115e-11 7.57381e-12
0.0 -7.95755e-26 0.0
0.0 -1.13281e-25 0.0
-1.48186e-11 -1.36068e-10 2.614e-11
-4.48905e-12 -6.62393e-11 -1.15911e-10
-5.6072e-11 1.19803e-10 -1.07064e-11
-7.99041e-11 5.93965e-12 -1.30078e-11
-2.95368e-11 -6.46426e-12 2.40843e-12
-6.09832e-11 -7.80693e-11 -1.63189e-10
-5.67016e-11 1.66467e-12 8.56752e-12
-1.18317e-10 8.44732e-11 -1.26718e-09
4.84539e-12 -4.01534e-11 9.69071e-12
1.42712e-11 -4.80487e-11 5.74118e-12
-3.06496e-11 -6.04244e-11 1.45708e-11
-4.03897e-28 1.92787e-26 0.0
0.0 0.0 0.0
1.02041e-10 -2.82093e-11 2.26944e-12
0.0 4.47828e-27 0.0
-1.96197e-23 -3.41212e-24 -2.89513e-24
-1.31408e-11 -2.11144e-11 1.20925e-11
-6.67733e-11 -1.25483e-10 -3.59105e-11
-4.35016e-11 7.73759e-11 2.19178e-12
-1.39905e-10 -2.68899e-11 3.58786e-11
4.83533e-11 6.43537e-11 5.45533e-11
4.80409e-11 -1.97944e-11 -2.54758e-11
-5.37801e-11 -3.61256e-12 1.42703e-12
1.27961e-11 1.61623e-10 -9.64306e-11
0.0 -1.78739e-25 0.0
-1.98724e-10 -3.09888e-11 3.77838e-11
1.51449e-11 -4.76026e-12 -1.09252e-11
2.67852e-10 -2.54306e-10 1.59562e-10
-3.31604e-11 -8.69369e-11 -3.07647e-11
-8.0432e-11 -2.11943e-10 4.06741e-11
0.0 -4.53712e-28 0.0
2.24399e-13 -6.21416e-11 8.7108e-12
-5.78989e-11 3.05062e-11 4.63389e-11
-1.57032e-10 1.12255e-11 3.29896e-12
-5.62499e-11 6.06172e-11 4.06713e-13
7.2084e-11 2.56141e-10 -2.30619e-11
2.95976e-11 6.73141e-11 -7.22583e-11
-6.69793e-11 7.21732e-11 -3.94167e-11
-1.50968e-12 -4.43836e-12 1.05462e-11
3.25128e-11 -1.24143e-10 2.06113e-11
-4.18925e-12 5.31525e-11 -3.82318e-11
0.0 8.00792e-26 0.0
-1.1333e-21 -1.4548e-22 2.66766e-23
1.0093e-10 -1.9568e-10 4.82052e-11
5.83583e-11 6.91586e-11 -1.05943e-12
-4.06942e-10 2.02853e-10 1.34231e-12
-2.23168e-11 1.12751e-11 2.74325e-11
4.66802e-11 1.03939e-10 -1.98311e-11
-4.08989e-11 -5.06415e-11 -4.09729e-11
-4.33848e-11 1.26228e-11 2.63905e-12
0.0 4.33617e-26 0.0
1.2018e-10 3.95397e-11 2.81896e-11
-1.41562e-10 6.87133e-11 -7.38876e-12
1.31537e-10 -5.84287e-11 -8.50858e-11
-2.98622e-11 5.62793e-11 -7.36416e-12
0.0 2.48358e-26 0.0
-3.87772e-11 3.90977e-11 4.42433e-12
1.54787e-11 4.16554e-11 -4.9747e-11
-1.35031e-23 -5.68687e-25 0.0
0.0 -5.82692e-26 0.0
-1.2927e-12 -1.00858e-11 -1.89423e-11
2.43517e-23 8.27181e-25 0.0
