# vtk DataFile Version 3.0
LIGGGHTS particles timestep 10400000
ASCII
DATASET POLYDATA
POINTS 289 float
0.0607469 0.0166168 0.00780662
0.0610509 0.0175026 0.00717218
0.0608976 0.0173143 0.00729383
0.0609764 0.0175688 0.00718021
0.0603758 0.016336 0.00810743
0.0664866 0.0166619 0.00770578
0.0605242 0.0168316 0.00763604
0.0603541 0.0162653 0.00817474
0.066772 0.0179343 0.00706495
0.0606368 0.0173134 0.00731099
0.0607568 0.0170207 0.00743561
0.0667346 0.0177379 0.0070661
0.0606187 0.017244 0.00738067
0.0542558 0.0159589 0.00849353
0.0606746 0.0170678 0.00740205
0.0542341 0.0159005 0.00857177
0.0605918 0.0171367 0.00747667
0.0666778 0.0174626 0.00713849
0.0605574 0.0169931 0.00761152
0.0608742 0.0171182 0.00733512
0.0603975 0.0164068 0.00804027
0.0606562 0.0169961 0.00746991
0.0666959 0.0175428 0.00708166
0.0606385 0.0169245 0.00753758
0.0665825 0.0170622 0.00742211
0.0545764 0.0170364 0.00741496
0.0605743 0.017065 0.00754415
0.0664662 0.0165817 0.00776195
0.0606724 0.0171694 0.0074273
0.060596 0.0171185 0.00736676
0.0665068 0.0167418 0.00764914
0.0607504 0.017301 0.0072945
0.0607024 0.0168063 0.00763832
0.0667937 0.018032 0.0070645
0.0605049 0.0167605 0.00770365
0.0606201 0.016853 0.00760522
0.0666231 0.017222 0.00730885
0.0605419 0.0169038 0.00756915
0.0606442 0.0165927 0.00784076
0.0605603 0.0169755 0.00750188
0.0607927 0.0171681 0.00730541
0.0610933 0.0176979 0.00718071
0.0665258 0.0168219 0.00759239
0.0666028 0.0171422 0.00736553
0.0604408 0.0165481 0.00790552
0.0608584 0.0170452 0.00740166
0.0665646 0.016982 0.00747895
0.0607696 0.017478 0.00717612
0.0548453 0.0170215 0.0073844
0.0666392 0.0173026 0.00725185
0.0607843 0.0167595 0.00767156
0.0542775 0.0160173 0.0084153
0.0608183 0.0173658 0.00726001
0.0665448 0.016902 0.00753564
0.0545927 0.0166946 0.00753533
0.0667152 0.0176398 0.00706665
0.0608404 0.0169735 0.00746897
0.0604191 0.0164774 0.00797283
0.0607766 0.0170933 0.00736986
0.0609548 0.0174732 0.00720045
0.0666583 0.0173848 0.00719824
0.060333 0.0161944 0.00824209
0.0547236 0.0169044 0.00744012
0.0608824 0.0172157 0.00730234
0.0546885 0.0167298 0.00753054
0.0605779 0.0170472 0.00743441
0.0668155 0.0181296 0.00706405
0.0542991 0.0160757 0.00833705
0.066753 0.0178362 0.00706551
0.0604625 0.016619 0.00783844
0.0611076 0.0173309 0.00716747
0.0604841 0.0166897 0.00777116
0.0667535 0.0174077 0.00717482
0.0608785 0.0184157 0.00717797
0.0543425 0.0161926 0.00818045
0.0544497 0.0165281 0.00783024
0.0609266 0.0178033 0.0071809
0.0545606 0.0165899 0.0077141
0.0545955 0.0171163 0.00735791
0.0543642 0.016251 0.00810215
0.0667338 0.0173277 0.00723151
0.0544156 0.0161608 0.00824113
0.0607065 0.0176343 0.00717264
0.0668475 0.0178688 0.00706878
0.0608296 0.0177719 0.00717719
0.0608842 0.0176079 0.00717958
0.0608643 0.0175099 0.00717898
0.060711 0.0172127 0.00726906
0.0610401 0.0178618 0.0071852
0.0609382 0.0182601 0.00718056
0.0608088 0.0176741 0.00717654
0.0608568 0.0183181 0.0071773
0.0609482 0.017901 0.00718159
0.0608947 0.0180647 0.00717921
0.0546314 0.0168807 0.00747094
0.0611357 0.0178912 0.00718886
0.0547469 0.0166241 0.00765442
0.0606318 0.0172579 0.00722794
0.0607381 0.0169493 0.00750315
0.0547667 0.0170832 0.00736264
0.0543208 0.0161342 0.00825871
0.0606696 0.0174378 0.00717154
0.0543722 0.0160441 0.00839757
0.0607376 0.0172284 0.00736415
0.0608111 0.0172374 0.0072357
0.0607266 0.0177323 0.00717325
0.0608351 0.0182205 0.00717662
0.0545175 0.0167574 0.00751527
0.0607483 0.0178299 0.00717393
0.0546544 0.0173863 0.00724124
0.0609089 0.017408 0.00726083
0.0609871 0.0172299 0.00723902
0.0603108 0.0161238 0.00830935
0.0547301 0.0173247 0.00726308
0.0664458 0.0165014 0.00781806
0.0607206 0.0168777 0.00757075
0.0602891 0.0160531 0.00837665
0.0610834 0.0180571 0.00718655
0.0544904 0.0163943 0.00792575
0.061013 0.0181939 0.00718358
0.060561 0.0166382 0.00780893
0.0606942 0.017139 0.00733458
0.0544073 0.0164053 0.00798187
0.060789 0.0175761 0.00717663
0.0546712 0.0170546 0.00737977
0.0606144 0.0171884 0.00729766
0.0547511 0.0169925 0.00740162
0.0610719 0.0176003 0.00717641
0.0606025 0.0167815 0.00767282
0.0608227 0.017314 0.00717256
0.0607664 0.016688 0.00773914
0.0543505 0.0159857 0.00847581
0.0609914 0.0180962 0.00718291
0.060905 0.0177057 0.00718022
0.0608443 0.0174116 0.00717502
0.060873 0.0179671 0.00717853
0.0544373 0.0162192 0.0081629
0.0607298 0.0172833 0.00719826
0.0607499 0.0173808 0.00718854
0.060688 0.017536 0.00717337
0.0611787 0.0180872 0.0071902
0.0543939 0.0161024 0.00831934
0.060651 0.0173396 0.00717342
0.0608517 0.0178694 0.00717787
0.0602674 0.0159824 0.00844396
0.0547694 0.0175047 0.00718529
0.0602458 0.0159117 0.00851127
0.0546348 0.0172963 0.00728013
0.054479 0.0165994 0.00763238
0.0547059 0.0168147 0.0074806
0.0608919 0.0182186 0.00725887
0.0546462 0.0169648 0.00741888
0.0605177 0.0164967 0.00794354
0.0548843 0.0176233 0.00712929
0.0610033 0.018553 0.00718259
0.0548638 0.0171117 0.00734548
0.0609219 0.0186109 0.00717932
0.054806 0.0172633 0.00728485
0.060665 0.0166636 0.00777338
0.0546521 0.0165959 0.00767424
0.0607917 0.0180252 0.00717527
0.0550747 0.0176805 0.00709633
0.0547498 0.0174147 0.00722418
0.0610616 0.0179595 0.00718587
0.0550211 0.0178468 0.00709615
0.061105 0.0181547 0.00718722
0.0548452 0.0174433 0.00720707
0.0549255 0.0169651 0.00740381
0.0545564 0.0169457 0.00745869
0.0548826 0.0172019 0.00730657
0.0547863 0.0171733 0.00732374
0.0546741 0.0174763 0.00720235
0.06077 0.0179275 0.0071746
0.0545334 0.0165111 0.00776931
0.0605819 0.0167091 0.00774146
0.0549603 0.0175621 0.00715099
0.0610388 0.0174034 0.00716831
0.0547892 0.0175948 0.00714636
0.0544669 0.0165828 0.00774833
0.0668372 0.0182272 0.0070636
0.0611307 0.0183211 0.00718793
0.06082 0.0169025 0.00753638
0.0546937 0.0175663 0.00716347
0.0610353 0.0182913 0.00718428
0.0547134 0.0176564 0.0071248
0.0609697 0.0179986 0.00718223
0.0604743 0.0163553 0.00807815
0.0550966 0.017779 0.00710119
0.0546359 0.0165374 0.00775374
0.0604527 0.0162846 0.00814546
0.0545732 0.0166269 0.00761341
0.0550296 0.0174278 0.00720372
0.0544287 0.0164714 0.00790997
0.0549153 0.0181714 0.0070957
0.0549016 0.017292 0.00726766
0.0606845 0.0167348 0.0077059
0.0549212 0.017382 0.00722877
0.0546151 0.0172063 0.00731902
0.0548256 0.0173533 0.00724596
0.0547644 0.0166826 0.0075752
0.0549805 0.0176536 0.00711623
0.0545372 0.0168474 0.00747404
0.0610112 0.0173083 0.00718169
0.0609599 0.0183578 0.00718124
0.0667904 0.017574 0.00707047
0.0608134 0.0181228 0.00717595
0.0546909 0.0171447 0.00734085
0.0547105 0.0172347 0.00730197
0.061157 0.0179895 0.00718952
0.0609436 0.0187086 0.00718
0.0609164 0.0181624 0.00717988
0.0605394 0.0165674 0.00787623
0.054515 0.0164526 0.00784832
0.060496 0.016426 0.00801085
0.0544995 0.0166883 0.00758524
0.0543852 0.0163329 0.00804864
0.0667734 0.0174881 0.00711872
0.0549256 0.0178137 0.00709295
0.0542125 0.0158421 0.00865
0.0548087 0.0176852 0.00710818
0.0546119 0.0167847 0.00749643
0.0551413 0.0179736 0.00711091
0.0547539 0.0178481 0.00708943
0.0546705 0.0166661 0.00760542
0.0609816 0.0184554 0.00718191
0.0610186 0.0177642 0.00718453
0.0549052 0.01853 0.00710507
0.0548404 0.0182374 0.00709067
0.0550331 0.0183001 0.00711029
0.0548266 0.0177803 0.00707626
0.0485337 0.0168454 0.00750399
0.0548188 0.0181399 0.00708587
0.0548495 0.0178775 0.00708117
0.0485156 0.0167759 0.00757351
0.048552 0.016915 0.00743449
0.0548721 0.0179763 0.0070861
0.0485895 0.017072 0.00732048
0.0604099 0.016143 0.00828013
0.0610564 0.0183891 0.00718493
0.0547758 0.0179448 0.00707629
0.060431 0.0162139 0.00821277
0.0608025 0.016831 0.00760399
0.04857 0.0169845 0.00736494
0.0549409 0.017472 0.00718989
0.0549025 0.0177165 0.00708915
0.0547818 0.0167527 0.00750078
0.0547972 0.0180424 0.00708107
0.0551622 0.0180714 0.00711565
0.0550115 0.0182025 0.00710549
0.0550523 0.0175244 0.0071619
0.060997 0.0176665 0.00718332
0.0548836 0.0184325 0.00710027
0.0550881 0.0181384 0.00711073
0.0486478 0.0173573 0.00724846
0.0549369 0.0182689 0.0071005
0.0547337 0.0177506 0.00709821
0.061025 0.0186506 0.00718326
0.0548275 0.0169311 0.00742335
0.0550016 0.0177487 0.00709369
0.0549656 0.0180088 0.00711549
0.0549897 0.0181047 0.00710066
0.0549806 0.0184645 0.00711017
0.0550547 0.0183976 0.00711509
0.0549454 0.0179113 0.00710612
0.0550671 0.0180407 0.00711052
0.0551159 0.017877 0.00710579
0.0549267 0.0186275 0.00710987
0.0609002 0.0185133 0.00717865
0.0486089 0.0171671 0.00729647
0.0487132 0.0172093 0.0072756
0.0549655 0.0171489 0.00732442
0.0486673 0.0174524 0.00722446
0.0486284 0.0172622 0.00727247
0.0548937 0.0180739 0.0070909
0.054862 0.0183349 0.00709547
0.0550409 0.0179447 0.00710079
0.0606777 0.0173873 0.00725746
0.054959 0.018367 0.00710537
0.0544624 0.0162775 0.0080856
0.0551097 0.018236 0.00711553
0.0549445 0.0170558 0.00736467
0.0609389 0.0173794 0.00716982
0.0550022 0.0185621 0.00711497
0.0544753 0.0163359 0.00800547
0.0609137 0.0175504 0.00725592
0.0609595 0.0171523 0.00729571
0.054865 0.0175333 0.00716818
0.0548 0.016843 0.00746185
0.0609151 0.0172868 0.00719929

VERTICES 289 578
1 0
1 1
1 2
1 3
1 4
1 5
1 6
1 7
1 8
1 9
1 10
1 11
1 12
1 13
1 14
1 15
1 16
1 17
1 18
1 19
1 20
1 21
1 22
1 23
1 24
1 25
1 26
1 27
1 28
1 29
1 30
1 31
1 32
1 33
1 34
1 35
1 36
1 37
1 38
1 39
1 40
1 41
1 42
1 43
1 44
1 45
1 46
1 47
1 48
1 49
1 50
1 51
1 52
1 53
1 54
1 55
1 56
1 57
1 58
1 59
1 60
1 61
1 62
1 63
1 64
1 65
1 66
1 67
1 68
1 69
1 70
1 71
1 72
1 73
1 74
1 75
1 76
1 77
1 78
1 79
1 80
1 81
1 82
1 83
1 84
1 85
1 86
1 87
1 88
1 89
1 90
1 91
1 92
1 93
1 94
1 95
1 96
1 97
1 98
1 99
1 100
1 101
1 102
1 103
1 104
1 105
1 106
1 107
1 108
1 109
1 110
1 111
1 112
1 113
1 114
1 115
1 116
1 117
1 118
1 119
1 120
1 121
1 122
1 123
1 124
1 125
1 126
1 127
1 128
1 129
1 130
1 131
1 132
1 133
1 134
1 135
1 136
1 137
1 138
1 139
1 140
1 141
1 142
1 143
1 144
1 145
1 146
1 147
1 148
1 149
1 150
1 151
1 152
1 153
1 154
1 155
1 156
1 157
1 158
1 159
1 160
1 161
1 162
1 163
1 164
1 165
1 166
1 167
1 168
1 169
1 170
1 171
1 172
1 173
1 174
1 175
1 176
1 177
1 178
1 179
1 180
1 181
1 182
1 183
1 184
1 185
1 186
1 187
1 188
1 189
1 190
1 191
1 192
1 193
1 194
1 195
1 196
1 197
1 198
1 199
1 200
1 201
1 202
1 203
1 204
1 205
1 206
1 207
1 208
1 209
1 210
1 211
1 212
1 213
1 214
1 215
1 216
1 217
1 218
1 219
1 220
1 221
1 222
1 223
1 224
1 225
1 226
1 227
1 228
1 229
1 230
1 231
1 232
1 233
1 234
1 235
1 236
1 237
1 238
1 239
1 240
1 241
1 242
1 243
1 244
1 245
1 246
1 247
1 248
1 249
1 250
1 251
1 252
1 253
1 254
1 255
1 256
1 257
1 258
1 259
1 260
1 261
1 262
1 263
1 264
1 265
1 266
1 267
1 268
1 269
1 270
1 271
1 272
1 273
1 274
1 275
1 276
1 277
1 278
1 279
1 280
1 281
1 282
1 283
1 284
1 285
1 286
1 287
1 288

POINT_DATA 289
SCALARS id int 1
LOOKUP_TABLE default
1
2
3
4
5
6
7
8
9
10
11
12
13
14
15
16
17
18
19
20
21
22
24
25
26
27
29
30
31
32
33
34
35
36
37
38
39
40
41
42
43
44
45
46
47
48
49
50
52
53
54
55
56
57
58
59
60
61
62
63
64
65
66
67
68
69
70
71
72
73
74
75
76
77
78
79
80
81
82
83
84
85
86
87
88
89
90
91
92
93
94
95
96
98
99
100
101
102
103
104
105
106
107
108
109
110
111
112
113
114
115
116
117
118
119
120
121
122
123
124
125
126
127
128
129
130
131
132
133
134
135
136
137
138
139
140
141
142
144
145
146
147
148
149
150
152
153
154
155
156
157
158
159
160
161
162
164
165
166
167
168
169
170
171
172
173
174
175
176
177
178
179
180
181
182
183
184
185
186
187
188
189
190
191
192
193
194
195
196
197
198
199
200
201
202
203
204
205
206
207
208
209
210
211
213
214
215
216
217
218
219
220
221
222
223
224
225
226
227
228
229
230
231
232
233
234
235
236
237
238
239
241
242
243
244
245
246
247
248
249
250
251
252
253
254
255
256
257
258
259
260
261
262
263
264
265
267
268
269
270
271
272
273
274
275
276
277
278
279
280
281
282
283
284
285
286
287
288
289
290
292
293
294
295
296
297
298
299
300

SCALARS type int 1
LOOKUP_TABLE default
1
1
1
1
1
1
1
1
1
1
1
1
1
1
1
1
1
1
1
1
1
1
1
1
1
1
1
1
1
1
1
1
1
1
1
1
1
1
1
1
1
1
1
1
1
1
1
1
1
1
1
1
1
1
1
1
1
1
1
1
1
1
1
1
1
1
1
1
1
1
1
1
1
1
1
1
1
1
1
1
1
1
1
1
1
1
1
1
1
1
1
1
1
1
1
1
1
1
1
1
1
1
1
1
1
1
1
1
1
1
1
1
1
1
1
1
1
1
1
1
1
1
1
1
1
1
1
1
1
1
1
1
1
1
1
1
1
1
1
1
1
1
1
1
1
1
1
1
1
1
1
1
1
1
1
1
1
1
1
1
1
1
1
1
1
1
1
1
1
1
1
1
1
1
1
1
1
1
1
1
1
1
1
1
1
1
1
1
1
1
1
1
1
1
1
1
1
1
1
1
1
1
1
1
1
1
1
1
1
1
1
1
1
1
1
1
1
1
1
1
1
1
1
1
1
1
1
1
1
1
1
1
1
1
1
1
1
1
1
1
1
1
1
1
1
1
1
1
1
1
1
1
1
1
1
1
1
1
1
1
1
1
1
1
1
1
1
1
1
1
1
1
1
1
1
1
1
1
1
1
1
1
1
1
1
1
1
1
1

SCALARS radius float 1
LOOKUP_TABLE default
5e-05
5e-05
5e-05
5e-05
5e-05
5e-05
5e-05
5e-05
5e-05
5e-05
5e-05
5e-05
5e-05
5e-05
5e-05
5e-05
5e-05
5e-05
5e-05
5e-05
5e-05
5e-05
5e-05
5e-05
5e-05
5e-05
5e-05
5e-05
5e-05
5e-05
5e-05
5e-05
5e-05
5e-05
5e-05
5e-05
5e-05
5e-05
5e-05
5e-05
5e-05
5e-05
5e-05
5e-05
5e-05
5e-05
5e-05
5e-05
5e-05
5e-05
5e-05
5e-05
5e-05
5e-05
5e-05
5e-05
5e-05
5e-05
5e-05
5e-05
5e-05
5e-05
5e-05
5e-05
5e-05
5e-05
5e-05
5e-05
5e-05
5e-05
5e-05
5e-05
5e-05
5e-05
5e-05
5e-05
5e-05
5e-05
5e-05
5e-05
5e-05
5e-05
5e-05
5e-05
5e-05
5e-05
5e-05
5e-05
5e-05
5e-05
5e-05
5e-05
5e-05
5e-05
5e-05
5e-05
5e-05
5e-05
5e-05
5e-05
5e-05
5e-05
5e-05
5e-05
5e-05
5e-05
5e-05
5e-05
5e-05
5e-05
5e-05
5e-05
5e-05
5e-05
5e-05
5e-05
5e-05
5e-05
5e-05
5e-05
5e-05
5e-05
5e-05
5e-05
5e-05
5e-05
5e-05
5e-05
5e-05
5e-05
5e-05
5e-05
5e-05
5e-05
5e-05
5e-05
5e-05
5e-05
5e-05
5e-05
5e-05
5e-05
5e-05
5e-05
5e-05
5e-05
5e-05
5e-05
5e-05
5e-05
5e-05
5e-05
5e-05
5e-05
5e-05
5e-05
5e-05
5e-05
5e-05
5e-05
5e-05
5e-05
5e-05
5e-05
5e-05
5e-05
5e-05
5e-05
5e-05
5e-05
5e-05
5e-05
5e-05
5e-05
5e-05
5e-05
5e-05
5e-05
5e-05
5e-05
5e-05
5e-05
5e-05
5e-05
5e-05
5e-05
5e-05
5e-05
5e-05
5e-05
5e-05
5e-05
5e-05
5e-05
5e-05
5e-05
5e-05
5e-05
5e-05
5e-05
5e-05
5e-05
5e-05
5e-05
5e-05
5e-05
5e-05
5e-05
5e-05
5e-05
5e-05
5e-05
5e-05
5e-05
5e-05
5e-05
5e-05
5e-05
5e-05
5e-05
5e-05
5e-05
5e-05
5e-05
5e-05
5e-05
5e-05
5e-05
5e-05
5e-05
5e-05
5e-05
5e-05
5e-05
5e-05
5e-05
5e-05
5e-05
5e-05
5e-05
5e-05
5e-05
5e-05
5e-05
5e-05
5e-05
5e-05
5e-05
5e-05
5e-05
5e-05
5e-05
5e-05
5e-05
5e-05
5e-05
5e-05
5e-05
5e-05
5e-05
5e-05
5e-05
5e-05
5e-05
5e-05
5e-05
5e-05
5e-05
5e-05
5e-05
5e-05
5e-05
5e-05
5e-05
5e-05
5e-05
5e-05
5e-05
5e-05
5e-05
5e-05
5e-05
5e-05
5e-05
5e-05
5e-05
5e-05
5e-05
5e-05

SCALARS mass float 1
LOOKUP_TABLE default
1.46608e-10
1.46608e-10
1.46608e-10
1.46608e-10
1.46608e-10
1.46608e-10
1.46608e-10
1.46608e-10
1.46608e-10
1.46608e-10
1.46608e-10
1.46608e-10
1.46608e-10
1.46608e-10
1.46608e-10
1.46608e-10
1.46608e-10
1.46608e-10
1.46608e-10
1.46608e-10
1.46608e-10
1.46608e-10
1.46608e-10
1.46608e-10
1.46608e-10
1.46608e-10
1.46608e-10
1.46608e-10
1.46608e-10
1.46608e-10
1.46608e-10
1.46608e-10
1.46608e-10
1.46608e-10
1.46608e-10
1.46608e-10
1.46608e-10
1.46608e-10
1.46608e-10
1.46608e-10
1.46608e-10
1.46608e-10
1.46608e-10
1.46608e-10
1.46608e-10
1.46608e-10
1.46608e-10
1.46608e-10
1.46608e-10
1.46608e-10
1.46608e-10
1.46608e-10
1.46608e-10
1.46608e-10
1.46608e-10
1.46608e-10
1.46608e-10
1.46608e-10
1.46608e-10
1.46608e-10
1.46608e-10
1.46608e-10
1.46608e-10
1.46608e-10
1.46608e-10
1.46608e-10
1.46608e-10
1.46608e-10
1.46608e-10
1.46608e-10
1.46608e-10
1.46608e-10
1.46608e-10
1.46608e-10
1.46608e-10
1.46608e-10
1.46608e-10
1.46608e-10
1.46608e-10
1.46608e-10
1.46608e-10
1.46608e-10
1.46608e-10
1.46608e-10
1.46608e-10
1.46608e-10
1.46608e-10
1.46608e-10
1.46608e-10
1.46608e-10
1.46608e-10
1.46608e-10
1.46608e-10
1.46608e-10
1.46608e-10
1.46608e-10
1.46608e-10
1.46608e-10
1.46608e-10
1.46608e-10
1.46608e-10
1.46608e-10
1.46608e-10
1.46608e-10
1.46608e-10
1.46608e-10
1.46608e-10
1.46608e-10
1.46608e-10
1.46608e-10
1.46608e-10
1.46608e-10
1.46608e-10
1.46608e-10
1.46608e-10
1.46608e-10
1.46608e-10
1.46608e-10
1.46608e-10
1.46608e-10
1.46608e-10
1.46608e-10
1.46608e-10
1.46608e-10
1.46608e-10
1.46608e-10
1.46608e-10
1.46608e-10
1.46608e-10
1.46608e-10
1.46608e-10
1.46608e-10
1.46608e-10
1.46608e-10
1.46608e-10
1.46608e-10
1.46608e-10
1.46608e-10
1.46608e-10
1.46608e-10
1.46608e-10
1.46608e-10
1.46608e-10
1.46608e-10
1.46608e-10
1.46608e-10
1.46608e-10
1.46608e-10
1.46608e-10
1.46608e-10
1.46608e-10
1.46608e-10
1.46608e-10
1.46608e-10
1.46608e-10
1.46608e-10
1.46608e-10
1.46608e-10
1.46608e-10
1.46608e-10
1.46608e-10
1.46608e-10
1.46608e-10
1.46608e-10
1.46608e-10
1.46608e-10
1.46608e-10
1.46608e-10
1.46608e-10
1.46608e-10
1.46608e-10
1.46608e-10
1.46608e-10
1.46608e-10
1.46608e-10
1.46608e-10
1.46608e-10
1.46608e-10
1.46608e-10
1.46608e-10
1.46608e-10
1.46608e-10
1.46608e-10
1.46608e-10
1.46608e-10
1.46608e-10
1.46608e-10
1.46608e-10
1.46608e-10
1.46608e-10
1.46608e-10
1.46608e-10
1.46608e-10
1.46608e-10
1.46608e-10
1.46608e-10
1.46608e-10
1.46608e-10
1.46608e-10
1.46608e-10
1.46608e-10
1.46608e-10
1.46608e-10
1.46608e-10
1.46608e-10
1.46608e-10
1.46608e-10
1.46608e-10
1.46608e-10
1.46608e-10
1.46608e-10
1.46608e-10
1.46608e-10
1.46608e-10
1.46608e-10
1.46608e-10
1.46608e-10
1.46608e-10
1.46608e-10
1.46608e-10
1.46608e-10
1.46608e-10
1.46608e-10
1.46608e-10
1.46608e-10
1.46608e-10
1.46608e-10
1.46608e-10
1.46608e-10
1.46608e-10
1.46608e-10
1.46608e-10
1.46608e-10
1.46608e-10
1.46608e-10
1.46608e-10
1.46608e-10
1.46608e-10
1.46608e-10
1.46608e-10
1.46608e-10
1.46608e-10
1.46608e-10
1.46608e-10
1.46608e-10
1.46608e-10
1.46608e-10
1.46608e-10
1.46608e-10
1.46608e-10
1.46608e-10
1.46608e-10
1.46608e-10
1.46608e-10
1.46608e-10
1.46608e-10
1.46608e-10
1.46608e-10
1.46608e-10
1.46608e-10
1.46608e-10
1.46608e-10
1.46608e-10
1.46608e-10
1.46608e-10
1.46608e-10
1.46608e-10
1.46608e-10
1.46608e-10
1.46608e-10
1.46608e-10
1.46608e-10
1.46608e-10
1.46608e-10
1.46608e-10
1.46608e-10
1.46608e-10
1.46608e-10
1.46608e-10
1.46608e-10
1.46608e-10
1.46608e-10
1.46608e-10
1.46608e-10
1.46608e-10
1.46608e-10
1.46608e-10
1.46608e-10
1.46608e-10

VECTORS velocity float
0.0044343 -0.000225884 -0.000314054
0.00455376 6.58614e-05 -0.000110511
0.00441016 0.00031836 -1.59216e-05
0.00456715 8.83937e-05 -0.00026058
0.00459345 -0.000255569 -0.000305477
0.00440478 -0.000416394 0.000167087
0.00430625 -0.000191918 -0.000326118
0.00460322 -0.00025234 -0.000309484
0.00466968 -0.000459682 0.000189163
0.00443124 2.81751e-05 7.6228e-05
0.00433533 -0.000208371 -0.000327104
0.00444059 -0.000418709 0.000179552
0.00437937 2.39521e-05 4.75616e-05
0.00450734 0.000167628 0.000723978
0.00433655 -0.000197427 -0.000323567
0.00449796 0.000166743 0.000723423
0.00429877 4.23971e-05 -0.000433272
0.00438294 -0.000410674 0.0001642
0.00425049 -6.69791e-05 -0.000579949
0.00443005 -0.000120743 -0.000178211
0.00458173 -0.00025727 -0.000302249
0.00431307 -0.000203616 -0.000336958
0.00439965 -0.000414188 0.000164661
0.00454552 7.77107e-05 -0.000607015
0.00422626 -0.000384986 0.000150663
0.0042506 -0.0005395 -4.71426e-06
0.00423954 -4.94875e-05 -0.000555415
0.00439344 -0.000398671 0.000186329
0.0043738 -7.3754e-05 -0.000379628
0.00438013 2.91803e-05 -6.17747e-05
0.0043445 -0.000405831 0.000161969
0.0045118 0.000116355 -0.000447442
0.0042519 -0.000201167 -0.00031534
0.0046675 -0.000458613 0.000189091
0.0044578 -0.000231314 -0.000314257
0.00425124 -0.000104279 -0.000405709
0.00429675 -0.000396822 0.000156857
0.00419462 -0.000174364 -0.000344463
0.00452718 -0.000270985 -0.000283608
0.00424076 -0.000163496 -0.000310842
0.00443201 -0.000122949 -0.000194418
0.0046571 4.21533e-05 -0.000172955
0.00427409 -0.000394214 0.00015575
0.00426428 -0.000391276 0.000154005
0.00458247 -0.000263732 -0.000297775
0.00435221 -0.000228806 -0.000318625
0.0041939 -0.000380828 0.000148442
0.00447529 7.27794e-05 0.000140485
0.00426424 -0.000528527 -6.18352e-06
0.00432432 -0.000400738 0.000158756
0.00423205 -0.000185805 -0.000326458
0.004513 0.000168541 0.000723519
0.00475353 -8.71936e-05 -0.000216049
0.00421319 -0.000384536 0.000150515
0.00425256 -0.000543234 2.79544e-06
0.00438276 -0.000408086 0.000177418
0.00433608 -0.000214322 -0.000315268
0.00457693 -0.000259105 -0.000299831
0.00435964 -0.000225864 -0.000337282
0.00458837 7.08828e-05 -0.00030691
0.00434802 -0.000404377 0.00016053
0.00461446 -0.000250308 -0.00031277
0.00424783 -0.000521369 -7.3194e-06
0.00446967 9.20546e-05 -1.74429e-05
0.00427596 -0.000393518 0.000214791
0.00433666 -8.24628e-05 -0.000196315
0.0046637 -0.000457955 0.000188932
0.00451605 0.000160819 0.000734773
0.00455705 -0.000439142 0.000184514
0.00457304 -0.000263386 -0.00029837
0.00445261 4.26568e-05 8.39009e-05
0.00454927 -0.00025766 -0.000302056
0.00433365 -0.000410896 0.000164876
0.00465141 4.70729e-05 0.000180508
0.00453197 0.000165501 0.000732055
0.00441876 0.000158991 0.000741085
0.00468227 4.29e-05 0.000182884
0.00428826 0.000167798 0.000681372
0.00428694 -0.000544282 -1.4955e-06
0.00454457 0.000172368 0.000724528
0.00432893 -0.000409909 0.000165188
0.00452328 0.000161972 0.000734544
0.00437575 0.000100326 0.000172917
0.00459497 -0.000546534 0.000187435
0.0047018 4.39908e-05 0.000183386
0.00446671 6.92243e-05 0.000175042
0.00447206 6.44487e-05 0.000181704
0.00444531 -1.30718e-05 -8.22583e-05
0.00467823 5.36552e-05 0.000181744
0.00465973 5.0565e-05 0.00018058
0.00469123 4.04894e-05 0.000174112
0.00465686 4.54473e-05 0.000181006
0.00467401 4.77422e-05 0.000180428
0.00466887 4.94842e-05 0.000181268
0.00424016 -0.000530703 -6.86034e-06
0.00467642 6.57682e-05 0.000181868
0.00430984 0.000164757 0.000689206
0.00446099 6.96123e-05 1.11633e-05
0.0043038 -0.000201208 -0.000324366
0.00426423 -0.000530151 -5.45952e-06
0.00452442 0.000162107 0.000735078
0.00444766 8.63284e-05 0.000167904
0.00451452 0.000163254 0.00073181
0.00448409 -0.000311265 -5.75172e-05
0.00446148 1.49278e-05 -4.03299e-05
0.00469654 4.45257e-05 0.0001834
0.00466291 4.41023e-05 0.000181088
0.0042478 -0.000542106 6.50276e-06
0.00468603 3.42649e-05 0.000170755
0.00429562 -0.000542303 -2.07348e-06
0.00462888 0.000173587 -0.00014468
0.00445429 9.5271e-05 4.40133e-05
0.00462106 -0.000246762 -0.000316746
0.00430699 -0.0005302 -7.6568e-06
0.00437818 -0.00039625 0.000184823
0.0042766 -0.000201777 -0.000321201
0.00462855 -0.000244498 -0.000319656
0.00467137 5.96704e-05 0.000181656
0.0045085 0.00016014 0.000734085
0.00466392 5.58795e-05 0.000183803
0.00455896 -0.000240798 -0.00031529
0.00444038 -0.000215823 -0.000315312
0.0045225 0.000146615 0.000759462
0.0045727 5.81103e-05 0.000148344
0.0043011 -0.000531512 -7.78918e-06
0.00442062 7.76864e-05 2.0168e-06
0.00425881 -0.000524462 -7.37269e-06
0.00459642 5.69849e-05 -0.000166691
0.004388 -0.000122478 -0.000402806
0.00444121 8.64746e-05 4.6451e-05
0.00431428 -0.000200725 -0.000322649
0.00450987 0.000163065 0.000730652
0.00466867 5.47386e-05 0.000178063
0.00447978 7.5322e-05 0.00017279
0.00447905 8.49896e-05 -0.000167048
0.00467256 4.73186e-05 0.000182398
0.00453012 0.000162367 0.000735884
0.00461743 -9.29528e-05 -0.000469529
0.00444967 7.62858e-05 0.000117164
0.00438949 9.26519e-05 0.00010882
0.00467049 6.19841e-05 0.000181211
0.0045179 0.000161984 0.000733503
0.00449308 7.84963e-05 6.11633e-05
0.0046758 4.50203e-05 0.000183378
0.00463704 -0.000243328 -0.000321681
0.00432768 -0.000535565 -6.31904e-06
0.00464525 -0.000243209 -0.000322808
0.00429152 -0.00054138 -1.83186e-06
0.00441197 0.000192706 0.000667657
0.00424295 -0.000520719 -5.35761e-06
0.00466267 4.71898e-05 0.00018103
0.00424799 -0.000538211 -1.81676e-07
0.00457656 -0.00026794 -0.000292349
0.00449673 -0.000577686 -5.4509e-06
0.0046457 5.74389e-05 0.00018034
0.0042224 -0.000517848 -7.80021e-06
0.0046406 5.00718e-05 0.000180169
0.00432727 -0.000507862 -1.78247e-05
0.00442823 -0.000244325 -0.00029546
0.00430079 0.000147754 0.000708412
0.00467427 4.73749e-05 0.000181483
0.00469323 -0.000494986 0.000413107
0.00430911 -0.000541074 -2.69768e-06
0.00467337 5.70735e-05 0.000181251
0.00466676 -0.000536192 0.000417812
0.00466837 6.15361e-05 0.000181234
0.00435011 -0.000529373 -9.64937e-06
0.00424769 -0.000549696 4.18684e-06
0.00423393 -0.00053512 -1.64328e-05
0.00412619 -0.00049958 -1.05961e-05
0.00429519 -0.000539673 -2.69305e-06
0.00430192 -0.000544819 -9.74363e-07
0.00468033 4.34316e-05 0.000180224
0.00432633 0.000164675 0.000688688
0.00446746 -0.000217644 -0.000325999
0.0044908 -0.000583438 -1.0404e-05
0.00449117 7.67853e-05 5.62393e-06
0.00431321 -0.000584976 1.16767e-05
0.00429879 0.000139694 0.000704539
0.00466054 -0.000458147 0.000188823
0.00464675 7.09097e-05 0.0001786
0.00430486 -0.000204821 -0.000318105
0.00429631 -0.000548111 2.93773e-06
0.00465461 5.78366e-05 0.000181625
0.0043473 -0.000543144 4.51887e-05
0.00467058 5.15673e-05 0.00018156
0.00458747 -0.000251741 -0.000308096
0.00466922 -0.000526907 0.000424946
0.00426053 0.000146551 0.000700976
0.00460408 -0.00025241 -0.000309533
0.00445373 0.000123772 0.000775623
0.00424934 -0.000666488 5.22864e-05
0.00449616 0.000156443 0.000757557
0.00463108 -0.000533194 0.00041344
0.00406644 -0.000487883 -1.21474e-05
0.00429052 -0.000213199 -0.000309322
0.00415591 -0.000506183 -8.97532e-06
0.00428938 -0.000543972 -3.83777e-07
0.00433251 -0.000518288 -1.4021e-05
0.00432967 0.000159222 0.000693838
0.00464618 -0.00058685 5.03981e-05
0.00424831 -0.000551236 1.93124e-06
0.00443825 9.82856e-05 3.87168e-05
0.00465477 5.28562e-05 0.000180764
0.00437853 -0.000413161 0.000177304
0.00466925 4.92096e-05 0.000181162
0.00427049 -0.000530137 -5.34304e-06
0.00428924 -0.000538758 -3.24143e-06
0.00467297 6.27292e-05 0.000181755
0.00463619 5.46586e-05 0.00017993
0.00466615 4.94548e-05 0.00018095
0.00459274 -0.00024615 -0.000313646
0.00443972 0.000163854 0.000712734
0.0045727 -0.00026305 -0.000295999
0.00438373 -8.65085e-05 0.000494041
0.00451911 0.000159206 0.000693163
0.00434964 -0.000412179 0.000168407
0.00471493 -0.000520682 0.000315251
0.0044871 0.000165711 0.000722791
0.00443587 -0.000639181 8.62318e-05
0.00424593 -0.000534377 1.41228e-07
0.00463424 -0.000530651 0.000414385
0.00465766 -0.000564144 0.000326308
0.004299 -2.25049e-05 0.000535474
0.00464886 5.50969e-05 0.000181198
0.00468418 5.00557e-05 0.000184634
0.00459649 -0.000530464 0.00040973
0.0046277 -0.000542743 0.000412486
0.00461506 -0.000525192 0.000411361
0.00458591 -0.000529301 0.000418743
0.00461287 0.00121978 -0.000730994
0.00463826 -0.000545728 0.000414017
0.00469412 -0.000530713 0.000410552
0.00457838 0.00122187 -0.000737138
0.0046469 0.00121776 -0.000724996
0.00467092 -0.000531105 0.000425185
0.00468623 0.00118688 -0.000773553
0.00462264 -0.000244628 -0.000318833
0.00464864 5.67387e-05 0.000180788
0.00466648 -0.000553621 0.00041766
0.00461319 -0.000243481 -0.000318845
0.00427579 -0.000196285 -0.000322471
0.00468139 0.00121566 -0.000718872
0.00433317 -0.000543323 -2.93078e-06
0.0046629 -0.000556683 -2.13102e-05
0.00423976 -0.000528999 -2.92892e-06
0.00465304 -0.000549597 0.000416687
0.00464209 -0.000502477 0.000414869
0.00462535 -0.000527548 0.000412784
0.00455743 -0.000454705 -5.58797e-05
0.00463128 6.22499e-05 4.06781e-05
0.00460681 -0.000534677 0.00041051
0.00463108 -0.000520081 0.000413569
0.00467942 0.00118866 -0.000773151
0.00462394 -0.000530823 0.000412284
0.00451785 -0.000550074 0.000151824
0.00463995 5.94778e-05 0.000180117
0.00425493 -0.000523983 -7.90782e-06
0.00469394 -0.000536812 0.000272364
0.00464138 -0.000536269 0.000417357
0.004627 -0.000533927 0.000411955
0.00460263 -0.000526168 0.000410395
0.00460631 -0.000524133 0.000410858
0.00467236 -0.000531096 0.000427977
0.00464118 -0.000524955 0.000414826
0.0046425 -0.000526052 0.000412695
0.0045858 -0.000526964 0.00040887
0.00464595 4.92258e-05 0.000180061
0.00468856 0.00118654 -0.000773719
0.0046915 0.00118586 -0.000773803
0.00418435 -0.000428745 -4.37168e-05
0.00466692 0.00119151 -0.000772517
0.00469183 0.00118584 -0.00077383
0.00464538 -0.000532826 0.000415968
0.00461763 -0.000538666 0.000411619
0.0046502 -0.000530656 0.000416493
0.00446798 3.75031e-05 0.000131796
0.00460982 -0.000530242 0.000411012
0.0045495 0.00016106 0.000741817
0.00462002 -0.000517952 0.000412249
0.00428399 -0.000434659 -4.64321e-05
0.00446763 4.57981e-05 -0.000156382
0.00459094 -0.000523361 0.000409547
0.00454343 0.000160389 0.000740971
0.00484819 -2.03932e-06 -2.63989e-05
0.00446712 9.02754e-05 5.40788e-05
0.00435309 -0.000537901 -8.2975e-06
0.00424423 -0.000520741 -7.52155e-06
0.00445018 0.000115558 5.33762e-05

VECTORS force float
1.59238e-10 -1.51193e-10 1.21545e-10
-1.76363e-10 8.29152e-11 2.60562e-10
-1.51028e-10 -5.02069e-11 9.63845e-11
-7.4654e-11 4.11397e-11 1.71284e-10
-1.73158e-11 -3.40247e-11 2.644e-11
-1.64161e-11 -1.90064e-11 1.33478e-11
5.97872e-11 -1.87932e-11 -1.69329e-11
-1.17558e-11 -4.34835e-11 4.29689e-11
-9.98759e-12 -1.48028e-11 4.46692e-13
-3.87559e-10 4.70927e-10 1.75274e-10
2.20998e-10 -1.53114e-10 -5.56678e-11
9.2604e-12 -5.65064e-14 5.01691e-13
2.09127e-10 2.94552e-10 2.57966e-10
2.0913e-11 -1.36028e-11 3.33666e-11
-1.18277e-10 8.38688e-11 1.04314e-10
1.65335e-11 -8.83963e-12 3.52234e-11
-1.26279e-11 -4.46726e-11 -1.6654e-10
3.11634e-11 -1.01257e-11 1.54506e-11
-1.48413e-11 1.31046e-10 -4.25657e-10
-1.22957e-10 -8.29929e-11 -1.93568e-10
-2.42407e-11 -2.55369e-11 3.53293e-11
-6.08111e-11 -7.43839e-12 2.4112e-10
3.69783e-12 5.17432e-12 2.442e-11
-5.82242e-11 1.69583e-10 -2.67223e-10
1.14478e-11 1.60876e-11 -8.35792e-12
-8.51475e-11 9.36032e-11 1.06659e-10
6.05914e-11 1.89313e-10 -1.60178e-10
1.42819e-11 -6.05932e-12 5.90509e-12
-1.08508e-10 -1.28702e-10 -1.20489e-10
6.45886e-11 -1.30861e-10 -1.77217e-10
3.56985e-11 -1.67742e-11 8.82667e-12
3.61248e-10 -1.12668e-10 -4.57247e-10
3.89916e-10 -1.19357e-10 7.39996e-11
9.39342e-12 -9.32535e-12 1.14536e-12
-7.20167e-11 1.3249e-10 -2.78382e-11
1.29906e-10 -1.59182e-10 1.25451e-10
1.85954e-11 -1.39855e-12 1.0503e-12
8.02352e-11 -1.45773e-10 -2.18179e-11
6.06173e-11 -3.85657e-11 2.55629e-11
-1.72934e-10 9.21938e-11 1.30439e-10
4.96563e-11 1.3768e-11 -1.18563e-10
3.57688e-11 1.04072e-10 7.43347e-12
2.32802e-11 8.41894e-12 -1.47184e-12
-1.04115e-11 1.1587e-11 -9.00751e-12
-2.75022e-11 4.97735e-12 5.42478e-12
7.66241e-11 4.08973e-11 5.77318e-11
3.10165e-11 7.01992e-12 -7.40033e-12
2.45813e-11 2.86076e-11 -2.56227e-10
1.8661e-11 -4.88938e-11 5.76317e-12
-1.89264e-12 -7.21063e-12 3.75209e-12
1.52964e-11 5.07992e-11 -5.21627e-11
-1.1382e-11 -1.27462e-11 1.12551e-11
2.48217e-10 -8.93141e-11 -1.38243e-11
3.96003e-11 4.57657e-12 -2.36096e-12
4.26739e-11 4.80813e-11 -3.27087e-11
1.20082e-11 3.9893e-12 4.75842e-12
7.96905e-11 -2.83169e-11 2.48069e-11
1.61219e-11 -2.2992e-11 1.06031e-11
2.32609e-10 -1.56347e-10 -1.41188e-10
1.18231e-10 -1.1589e-10 -5.93525e-11
-1.93207e-12 -1.05857e-11 3.60007e-12
-3.25899e-11 -5.74349e-11 5.76308e-11
-1.83839e-11 -4.28683e-11 1.2293e-12
-3.67726e-11 7.41356e-11 -4.89734e-11
-4.17461e-11 9.27068e-11 1.20877e-10
-7.56521e-11 -4.34252e-11 1.6973e-11
3.10466e-12 6.25059e-12 3.88301e-13
8.03291e-12 -8.00732e-12 1.84027e-11
-3.18258e-11 -3.89921e-13 -1.51335e-12
-7.28689e-11 5.0777e-11 -3.73701e-12
-3.1885e-10 -1.88161e-10 1.04892e-10
1.85595e-10 4.90182e-11 -5.787e-11
-2.36475e-11 2.5842e-12 -3.7458e-13
-7.49074e-12 -3.69632e-11 2.71816e-12
-3.07619e-11 -3.00272e-11 2.46978e-11
1.84704e-12 3.56457e-12 5.42444e-12
5.84195e-11 -6.37099e-11 1.75398e-12
3.59333e-11 -2.63224e-11 -2.90837e-12
2.56625e-13 1.70299e-11 -9.70166e-12
1.16196e-12 5.81112e-11 -9.96353e-11
-4.579e-11 1.50579e-11 -1.33549e-11
-4.85943e-11 3.19261e-12 -1.12169e-11
-1.02925e-10 -1.13464e-10 -2.32737e-11
-1.91722e-11 8.86833e-12 -7.09565e-13
2.32086e-10 -6.16497e-11 -2.93116e-11
-1.64316e-10 -2.21747e-11 8.03569e-11
-5.2132e-11 4.0282e-11 -4.17924e-11
2.9534e-11 6.64214e-11 4.57726e-11
-3.00714e-11 -3.36179e-11 7.66517e-12
-8.0056e-13 -8.98146e-12 6.35422e-12
1.35898e-10 -7.7545e-11 -3.30971e-11
-1.22422e-11 -2.09321e-11 6.42445e-13
-3.45306e-11 -4.56848e-11 5.02102e-11
-9.71867e-13 -2.30476e-12 2.82702e-12
-1.59514e-11 -6.23134e-12 -5.86212e-12
-6.84628e-11 -2.28954e-11 -1.84093e-11
2.95344e-11 4.50668e-12 -1.28594e-11
9.4018e-11 8.365e-11 2.22371e-10
2.0897e-11 1.81063e-12 7.00583e-11
1.89922e-11 -9.27438e-11 3.98855e-11
-1.04903e-11 -2.35019e-11 3.62441e-11
6.42223e-11 1.40534e-10 -9.52713e-11
1.18455e-12 -1.27468e-11 9.5283e-12
1.51464e-10 -4.13651e-11 8.21666e-11
2.25769e-11 9.04849e-11 -1.14238e-10
1.00078e-10 -4.81281e-11 -1.87893e-12
-1.02594e-12 -2.33362e-12 -3.68257e-12
-7.87728e-12 -3.52278e-11 -4.62558e-11
2.5144e-11 -1.59275e-10 3.17049e-11
-6.64618e-12 -3.16244e-11 1.67884e-11
1.18389e-10 -1.51744e-10 -2.44025e-11
-1.82464e-10 -6.68059e-12 5.02925e-12
-2.81682e-11 -7.41823e-11 7.09052e-11
1.11976e-11 -1.5119e-12 5.28318e-13
4.27884e-12 1.04034e-12 -1.60976e-12
2.29278e-10 -7.57226e-11 6.11613e-11
-2.39404e-11 -8.20052e-11 7.85463e-11
2.90822e-11 2.26589e-11 -5.1172e-11
-7.86104e-13 -3.16207e-12 -1.46726e-11
4.33792e-11 9.25645e-12 1.06321e-10
1.71172e-11 -5.43847e-11 6.94426e-11
1.71966e-11 2.01186e-12 -9.70798e-11
6.55805e-12 2.86427e-11 7.44504e-12
-1.52471e-10 -2.29668e-11 -1.23634e-10
2.02607e-11 1.43697e-11 -3.40011e-12
1.05845e-10 3.40113e-11 1.44327e-11
-1.77765e-11 -5.31037e-11 1.927e-11
3.31815e-11 1.04511e-10 2.78901e-11
-2.54324e-10 -1.53254e-10 2.01498e-10
5.15921e-12 6.50591e-11 -7.76882e-11
6.63383e-11 1.34191e-11 -1.52774e-11
-1.95827e-11 -4.14443e-12 -1.68896e-12
-4.68113e-12 -5.01341e-12 -3.50473e-12
-1.8408e-10 -5.0861e-11 2.29909e-11
-1.46114e-10 1.30398e-10 -1.50499e-10
2.49776e-11 -4.26985e-12 1.14911e-11
-4.59051e-11 3.81607e-12 -1.79907e-11
3.82078e-10 -1.74966e-10 -5.07172e-10
8.38376e-11 8.91625e-11 -1.48416e-10
-1.33444e-11 -7.24112e-11 -1.81982e-10
6.18522e-11 1.19842e-11 1.04817e-11
3.51751e-11 -7.80484e-12 2.02671e-11
-4.37522e-11 1.96527e-10 8.46635e-10
7.89439e-11 -2.93501e-11 -2.57537e-12
-2.68155e-11 -8.93671e-11 8.45604e-11
-2.48368e-10 -1.74282e-10 7.48496e-11
-2.98255e-11 -9.55613e-11 9.1227e-11
1.41251e-11 7.32048e-13 5.25627e-12
-1.50446e-12 -1.43598e-11 2.21343e-11
-2.41577e-11 1.49126e-11 5.26934e-11
9.58615e-12 -5.07303e-12 -4.065e-13
1.58259e-12 5.68999e-11 1.81453e-11
-1.03797e-12 2.16902e-11 -2.14261e-11
-1.94264e-10 -1.52985e-10 -8.17918e-11
4.46894e-11 -7.50755e-11 1.26336e-11
7.20843e-11 -2.23138e-11 1.4805e-11
-1.98425e-11 -6.71807e-11 -6.72223e-13
4.46673e-11 7.64241e-12 -8.79831e-12
1.99613e-10 -5.22345e-12 -1.9213e-11
3.75086e-11 1.66533e-11 -4.48618e-12
-2.849e-12 -3.42384e-11 -2.94338e-12
1.12691e-10 -2.09947e-10 1.01128e-10
1.36237e-11 1.56355e-11 -6.79537e-12
-1.58311e-11 -2.08615e-11 -1.86114e-11
1.00854e-10 2.27068e-11 -1.1449e-10
4.81921e-11 4.14448e-11 5.4949e-14
3.12802e-11 1.27586e-10 -4.27013e-11
-8.38866e-11 -9.17253e-11 4.36282e-11
-6.93454e-12 -6.04751e-11 -5.17253e-11
-1.60457e-11 3.34899e-12 6.85527e-12
-4.91336e-11 1.24263e-11 -5.17175e-12
-5.56877e-11 -6.03953e-11 2.17525e-11
-2.49198e-11 -8.73153e-11 2.13137e-12
3.36201e-11 -2.33546e-11 8.67869e-12
2.34374e-10 1.14663e-10 -1.52021e-10
-1.01795e-10 -1.45019e-10 -1.59877e-11
-5.71272e-11 7.03254e-11 3.24922e-10
3.26091e-10 5.16532e-11 -7.5994e-11
3.33135e-11 -1.17079e-12 2.23435e-11
4.58199e-12 1.68741e-11 -9.95984e-15
-7.54435e-11 -3.3503e-11 1.15404e-10
-1.12756e-10 -7.08661e-12 1.23035e-11
-3.74771e-11 -8.38511e-11 2.10196e-11
-1.16706e-11 9.55627e-12 -1.70057e-10
1.49651e-10 -1.00944e-10 1.11817e-11
2.67958e-12 -1.96411e-11 1.22716e-11
-5.5849e-11 -5.25574e-11 5.59588e-11
2.70226e-10 -8.8403e-11 2.70715e-10
4.18942e-14 1.0196e-11 -1.18111e-11
7.30184e-12 -4.07027e-11 3.68526e-11
7.15906e-12 -1.83976e-11 4.35212e-11
1.91465e-10 -1.90103e-10 4.60185e-11
1.5802e-11 4.56538e-11 7.19307e-12
3.7086e-11 -2.70516e-11 1.35298e-11
-8.7764e-11 8.78338e-12 -6.7065e-12
1.29551e-10 -8.87147e-11 7.48022e-11
7.33212e-12 -3.58837e-11 1.79745e-11
1.65074e-11 4.33462e-11 -2.67458e-11
1.69946e-11 2.45224e-11 -1.0198e-11
-5.75064e-11 -1.18798e-11 -2.62999e-11
-8.29057e-11 2.02725e-12 8.90838e-11
-1.0579e-11 -7.54089e-11 2.60366e-12
-4.04904e-11 -6.58035e-11 2.02773e-10
-1.45584e-11 -2.82249e-11 -1.48511e-12
-3.89437e-12 -2.03117e-11 -4.16853e-12
-6.76015e-12 2.21292e-11 -2.89146e-13
4.84394e-11 -8.62444e-11 3.69906e-11
-8.22074e-11 -5.81757e-11 2.77844e-11
1.72916e-11 1.40418e-11 5.27735e-12
-1.77084e-11 -1.39017e-10 -2.06034e-12
2.62104e-12 -6.73991e-12 4.78883e-12
-8.05045e-12 -2.06364e-11 3.10632e-11
3.34692e-11 -2.44152e-11 -6.92701e-12
7.67056e-11 6.08149e-11 -6.53072e-11
8.13911e-12 -1.12239e-11 -7.41442e-12
2.39604e-11 3.46386e-11 -1.20407e-10
-2.86426e-12 -1.62148e-11 -3.53669e-12
-2.10104e-10 -6.57177e-11 -2.94814e-10
-6.97558e-11 -5.58847e-11 6.04825e-11
1.16916e-10 1.74235e-11 -2.27051e-10
-2.12088e-12 2.5408e-11 -2.14035e-13
9.74691e-11 -4.8657e-11 -3.94661e-11
6.44154e-11 3.03734e-11 -1.78856e-10
3.80404e-13 7.98516e-11 7.68272e-11
-1.11959e-11 -4.24606e-11 -1.9776e-11
-8.32122e-12 -5.15588e-12 -8.37891e-12
-1.36335e-11 5.99768e-11 5.07134e-12
9.0016e-12 -2.99644e-11 4.28896e-12
-1.67781e-11 7.38027e-11 7.86799e-14
1.44e-10 2.1829e-10 7.34347e-11
5.19166e-13 -2.09393e-13 2.17964e-13
5.83694e-11 -2.96352e-11 -1.92066e-12
-2.9343e-10 4.47218e-11 -1.81008e-10
-1.11336e-12 -1.46093e-12 1.0106e-12
3.34544e-12 4.93867e-13 3.79239e-13
-6.18628e-11 -1.38073e-10 -1.47465e-10
-2.21067e-13 -2.31677e-12 4.16032e-12
-2.86175e-11 -5.26817e-11 5.11666e-11
-1.66944e-11 -1.36017e-12 -6.64451e-12
-2.48814e-11 9.82587e-11 1.54873e-11
-1.39633e-11 -5.28208e-11 5.0297e-11
1.69485e-11 1.56773e-11 -3.29588e-11
-8.81095e-13 -3.37624e-12 -5.21329e-13
1.45635e-10 -1.41372e-10 7.85343e-11
-1.46175e-10 2.65358e-10 -1.81684e-10
-8.79441e-11 2.67784e-12 -1.0427e-11
3.56514e-11 2.28707e-11 3.39715e-11
4.3891e-11 1.08171e-10 9.35663e-12
2.76304e-11 4.02465e-11 3.68118e-12
1.30915e-11 3.10948e-11 2.42538e-11
-1.27906e-11 1.55073e-11 7.11655e-11
-6.06725e-12 8.86502e-12 -3.87949e-12
6.10964e-11 5.88466e-11 1.73063e-11
-6.32095e-13 5.5489e-12 -1.65238e-12
-1.3357e-11 -5.14394e-12 1.33606e-13
6.23702e-11 -6.82086e-11 -2.55364e-10
3.03876e-11 -9.65797e-11 4.19125e-13
3.55668e-11 -4.15101e-11 1.97177e-11
3.38785e-11 -4.08607e-11 -1.81927e-13
8.85593e-11 -7.78721e-11 -7.74968e-12
4.47642e-12 -2.91229e-11 1.25549e-12
-5.00174e-11 7.6398e-11 -7.13881e-13
-5.23927e-11 8.71955e-11 -7.93427e-12
1.65656e-11 -7.46995e-11 -9.69437e-11
9.81889e-11 1.0614e-11 3.00197e-11
1.04481e-10 -6.72727e-11 2.42511e-11
2.89409e-11 1.20773e-10 4.50067e-12
-1.67328e-11 -4.84647e-11 -7.60165e-13
1.24839e-12 -1.44698e-12 3.0084e-13
-5.92136e-12 -4.90275e-12 1.42605e-12
8.84517e-11 4.69205e-11 -2.44179e-11
3.26646e-12 9.43044e-12 -2.22991e-12
-9.74946e-14 2.86981e-12 -1.98164e-12
6.96041e-11 -8.05567e-11 -6.62616e-12
-1.28267e-11 -1.58715e-11 1.58139e-12
1.31637e-10 1.27068e-11 2.74124e-11
1.12704e-10 3.26453e-10 1.35333e-10
-4.74219e-12 4.32615e-11 7.29991e-12
7.76919e-11 3.83741e-12 -1.7728e-12
3.1727e-12 1.24206e-10 9.8607e-12
4.32037e-11 -1.03306e-10 4.03743e-11
5.20686e-11 -1.83666e-10 -1.8028e-11
-1.93469e-11 8.11735e-11 -2.11341e-12
2.48026e-11 5.0564e-12 -3.03787e-11
-3.39464e-12 -8.50646e-11 -1.93447e-11
-2.00258e-10 2.57302e-11 -8.80832e-11
3.30681e-10 -7.31551e-11 -1.64242e-11
3.01324e-11 -3.51491e-11 3.31373e-11
-1.25454e-10 -1.60185e-11 7.55469e-11
