# vtk DataFile Version 3.0
LIGGGHTS particles timestep 46800000
ASCII
DATASET POLYDATA
POINTS 283 float
0.227333 0.016694 0.00774567
0.227598 0.0178199 0.00726334
0.227729 0.018453 0.00688067
0.22771 0.0183646 0.00692334
0.226949 0.0153135 0.00879999
0.233363 0.0167583 0.00757115
0.2271 0.0158053 0.00833275
0.226929 0.0152788 0.00889177
0.233607 0.0178882 0.00715092
0.228024 0.018509 0.00687064
0.227513 0.0170722 0.00755804
0.233567 0.0177036 0.00721953
0.228021 0.018154 0.00702102
0.220833 0.0152332 0.00947241
0.228118 0.0181782 0.00701514
0.221198 0.0162343 0.00815226
0.233729 0.0184589 0.00693873
0.227651 0.0180888 0.00702903
0.227769 0.0176438 0.0072982
0.226969 0.0153612 0.00871443
0.227772 0.0186497 0.0068777
0.233527 0.0175155 0.00728945
0.227888 0.0179288 0.00713089
0.233467 0.0172327 0.00739454
0.221114 0.0159975 0.0084635
0.227612 0.0179143 0.00711881
0.233342 0.0166636 0.0076063
0.227848 0.0185845 0.00687538
0.227984 0.0179592 0.00712162
0.233384 0.0168537 0.0075356
0.227631 0.0179958 0.00717375
0.22811 0.0182661 0.00696802
0.233665 0.018164 0.00704841
0.227078 0.0157312 0.00839622
0.227932 0.0181001 0.00704321
0.227121 0.0158794 0.00826926
0.227669 0.0177714 0.0071986
0.227818 0.0175572 0.0073229
0.227826 0.0184869 0.00687688
0.227707 0.0179459 0.00710883
0.233406 0.0169489 0.00750012
0.233487 0.0173271 0.00735946
0.227012 0.0155088 0.00858671
0.227719 0.0175588 0.00731486
0.233447 0.0171383 0.00742965
0.227826 0.0180596 0.00705709
0.221778 0.0186671 0.00702556
0.221764 0.0177703 0.00710467
0.228002 0.0184131 0.0068886
0.233426 0.0170438 0.0074648
0.2214 0.0165723 0.00776342
0.233547 0.0176096 0.00725449
0.227763 0.018046 0.0071561
0.226991 0.0154347 0.00865021
0.227602 0.0170355 0.00758394
0.227753 0.0182451 0.00701589
0.233507 0.0174214 0.00732443
0.227389 0.0165499 0.00782604
0.221942 0.018187 0.00703781
0.228144 0.0183645 0.00691827
0.221452 0.0164449 0.00786887
0.22768 0.0173843 0.00740463
0.233777 0.0182942 0.00699376
0.221438 0.0167182 0.00763217
0.233587 0.0177963 0.0071851
0.227034 0.0155829 0.00852321
0.227459 0.0172161 0.00747792
0.227056 0.015657 0.00845975
0.233709 0.0183646 0.00697381
0.227815 0.0188449 0.00687473
0.220897 0.0154102 0.00923889
0.221005 0.0157061 0.00885046
0.227688 0.0178586 0.00715371
0.221984 0.0183808 0.00700826
0.221516 0.0166694 0.00768034
0.220919 0.0154693 0.00916116
0.233646 0.0180721 0.00708258
0.221378 0.0164935 0.00782112
0.227806 0.0183894 0.00688683
0.233626 0.0179802 0.00711675
0.227622 0.0171225 0.00753926
0.227804 0.0179729 0.00710144
0.227533 0.0171593 0.00751335
0.227408 0.0166372 0.00778112
0.22778 0.0173826 0.00741267
0.227765 0.0177984 0.00719117
0.227592 0.0174222 0.00737818
0.227922 0.0182926 0.00694042
0.227867 0.0176355 0.00728488
0.227649 0.017684 0.00724353
0.221574 0.0168946 0.00749077
0.227735 0.0178965 0.00723308
0.22184 0.0177044 0.00711127
0.227848 0.0181526 0.00702737
0.227919 0.017767 0.00721887
0.221496 0.0165944 0.00774336
0.221784 0.0178672 0.00708995
0.22745 0.0168112 0.00769189
0.220855 0.0152922 0.00939457
0.227933 0.0181938 0.00699365
0.227689 0.0182607 0.00694064
0.227794 0.0187473 0.00687621
0.227229 0.0162648 0.00797134
0.221071 0.0158815 0.00861649
0.227947 0.0185729 0.00687182
0.22142 0.0166463 0.00769929
0.227632 0.0180015 0.00707392
0.227627 0.0179056 0.00721741
0.227492 0.0169852 0.00760266
0.221963 0.0182836 0.00702307
0.233321 0.0165712 0.00763845
0.227834 0.0177179 0.00723884
0.227742 0.0172081 0.00750246
0.227497 0.0173907 0.00738811
0.221823 0.0185851 0.00706371
0.227891 0.018243 0.00706976
0.228049 0.0183342 0.00692753
0.227379 0.0164617 0.00787207
0.220962 0.0155872 0.00900549
0.228045 0.0186065 0.00686797
0.221091 0.0159542 0.00855063
0.227209 0.0161815 0.00802285
0.221856 0.0186252 0.00697801
0.227555 0.0176525 0.00725346
0.227699 0.0174716 0.00735974
0.227784 0.0178858 0.00714622
0.227553 0.0172476 0.00746797
0.221736 0.0184784 0.00700379
0.227396 0.016955 0.00761182
0.227611 0.0175094 0.0073333
0.227642 0.0172097 0.00749441
0.227969 0.0186705 0.00687033
0.221859 0.0178013 0.00709655
0.227143 0.0159536 0.00820574
0.227869 0.0178417 0.00717567
0.227737 0.01773 0.0072585
0.227438 0.017129 0.00752259
0.220876 0.0153512 0.00931673
0.227653 0.0180838 0.00712889
0.227761 0.0172954 0.00745755
0.227429 0.0167242 0.0077365
0.22163 0.0171199 0.00730095
0.228097 0.018441 0.00687438
0.221154 0.016116 0.00830748
0.221027 0.0157638 0.00877198
0.221724 0.0183413 0.0071094
0.227786 0.0183 0.00692679
0.221879 0.0178982 0.00708183
0.227799 0.0174699 0.00736779
0.221706 0.0174794 0.00714883
0.227572 0.0173349 0.00742307
0.22192 0.0180903 0.00705257
0.227535 0.0175652 0.00729834
0.221757 0.0185764 0.00698882
0.227661 0.017297 0.00744951
0.221357 0.0164255 0.00789125
0.227909 0.0180222 0.00710143
0.221674 0.0180479 0.00714973
0.221343 0.0166917 0.0076475
0.227736 0.0181411 0.00711642
0.221693 0.0182846 0.00703336
0.227746 0.0181204 0.0070191
0.221686 0.0173821 0.00716364
0.221571 0.0177036 0.00712177
0.221176 0.016175 0.00822964
0.221835 0.0185135 0.0069949
0.221639 0.0171957 0.00723627
0.221536 0.0167443 0.00761734
0.227891 0.0187797 0.00687241
0.22191 0.0184474 0.00700153
0.227787 0.0183815 0.00698464
0.221868 0.018254 0.00703102
0.227846 0.0182408 0.00698046
0.221459 0.0167932 0.00756912
0.221532 0.0170935 0.00731594
0.233685 0.0182559 0.00701425
0.227354 0.016781 0.00770105
0.227312 0.016607 0.00779028
0.22124 0.0163514 0.00799676
0.227574 0.0177397 0.00720858
0.221592 0.0173542 0.00718326
0.227843 0.0181312 0.00712492
0.227189 0.0161012 0.008079
0.22165 0.0180912 0.00706287
0.221594 0.0169695 0.00742767
0.227471 0.0168982 0.00764727
0.221794 0.0187436 0.00696331
0.221695 0.0181449 0.00713515
0.220983 0.0156461 0.00892752
0.221574 0.0172719 0.00723714
0.221749 0.0178363 0.00717825
0.228021 0.0180629 0.00706934
0.221629 0.0179945 0.0070776
0.221325 0.0166235 0.0077183
0.221656 0.0172774 0.00717989
0.221474 0.0165197 0.00780611
0.222 0.0184882 0.00699215
0.221134 0.0160568 0.00838544
0.227682 0.0182378 0.00708662
0.227375 0.016868 0.00765644
0.233771 0.018649 0.00686798
0.227478 0.0173034 0.00743301
0.221337 0.0163631 0.00796699
0.227417 0.017042 0.00756721
0.227283 0.016439 0.00789275
0.22725 0.0163494 0.0079224
0.228119 0.0185389 0.00686574
0.221227 0.016293 0.00807693
0.228011 0.0182516 0.0069686
0.221048 0.015824 0.00869476
0.220941 0.015528 0.00908328
0.23375 0.0185539 0.00690338
0.221631 0.0175457 0.00714219
0.221745 0.0176734 0.00711939
0.221478 0.0168682 0.00750601
0.221689 0.0178366 0.00709802
0.221672 0.0179029 0.00717081
0.221283 0.0164756 0.00784623
0.221612 0.0170447 0.00736437
0.22763 0.0175967 0.00728842
0.227726 0.0180332 0.00706394
0.221455 0.0171433 0.00726697
0.2214 0.0169156 0.00745895
0.221532 0.0175096 0.00715121
0.221498 0.0169432 0.00744287
0.215496 0.0173778 0.00732212
0.221383 0.0168504 0.00753288
0.221517 0.017022 0.00738422
0.215478 0.017302 0.00738473
0.215514 0.0174537 0.0072595
0.221364 0.0167737 0.00759399
0.215552 0.0176062 0.00713568
0.227963 0.0178722 0.0071663
0.227593 0.017827 0.0071637
0.221305 0.016549 0.00778185
0.227164 0.0160277 0.00814224
0.215741 0.019982 0.00563384
0.215532 0.0175295 0.00719691
0.221814 0.0184167 0.00700963
0.221726 0.0175764 0.00713411
0.221322 0.0163029 0.0080453
0.22173 0.0180303 0.00706857
0.221551 0.0176066 0.00713649
0.22167 0.0177397 0.00711286
0.221793 0.0183202 0.00702437
0.227905 0.0183793 0.00689329
0.221437 0.0170659 0.00733227
0.22161 0.0178975 0.00709233
0.215589 0.0177709 0.00703265
0.221612 0.0174488 0.00715773
0.221262 0.0164105 0.00791907
0.227294 0.0165283 0.00784906
0.221889 0.0183507 0.00701627
0.221714 0.0183818 0.00701853
0.222058 0.0183138 0.00701506
0.221804 0.0179641 0.00707522
0.221513 0.0174126 0.00716597
0.221671 0.0181881 0.00704809
0.221709 0.0179335 0.0070833
0.221769 0.0179332 0.00716355
0.221772 0.0182235 0.0070391
0.221493 0.0173147 0.00718079
0.227586 0.0177306 0.00730741
0.404182 0.0211142 0.0056569
0.215626 0.0179614 0.00702057
0.221926 0.0185543 0.00698552
0.215608 0.0178645 0.00700304
0.215569 0.0176811 0.00707168
0.221546 0.0171838 0.00727564
0.221419 0.0169906 0.00739576
0.22175 0.018127 0.00705384
0.227925 0.0184753 0.00687332
0.22165 0.0176428 0.00712747
0.221825 0.0180608 0.00706049
0.22159 0.0178005 0.00710705
0.22171 0.018243 0.00712272
0.227869 0.0186821 0.00687389
0.221474 0.0172192 0.007203
0.221554 0.0168196 0.00755385
0.227516 0.0174779 0.00734323
0.227671 0.0181845 0.00700285
0.221846 0.0181574 0.00704575
0.22775 0.0185522 0.0068825

VERTICES 283 566
1 0
1 1
1 2
1 3
1 4
1 5
1 6
1 7
1 8
1 9
1 10
1 11
1 12
1 13
1 14
1 15
1 16
1 17
1 18
1 19
1 20
1 21
1 22
1 23
1 24
1 25
1 26
1 27
1 28
1 29
1 30
1 31
1 32
1 33
1 34
1 35
1 36
1 37
1 38
1 39
1 40
1 41
1 42
1 43
1 44
1 45
1 46
1 47
1 48
1 49
1 50
1 51
1 52
1 53
1 54
1 55
1 56
1 57
1 58
1 59
1 60
1 61
1 62
1 63
1 64
1 65
1 66
1 67
1 68
1 69
1 70
1 71
1 72
1 73
1 74
1 75
1 76
1 77
1 78
1 79
1 80
1 81
1 82
1 83
1 84
1 85
1 86
1 87
1 88
1 89
1 90
1 91
1 92
1 93
1 94
1 95
1 96
1 97
1 98
1 99
1 100
1 101
1 102
1 103
1 104
1 105
1 106
1 107
1 108
1 109
1 110
1 111
1 112
1 113
1 114
1 115
1 116
1 117
1 118
1 119
1 120
1 121
1 122
1 123
1 124
1 125
1 126
1 127
1 128
1 129
1 130
1 131
1 132
1 133
1 134
1 135
1 136
1 137
1 138
1 139
1 140
1 141
1 142
1 143
1 144
1 145
1 146
1 147
1 148
1 149
1 150
1 151
1 152
1 153
1 154
1 155
1 156
1 157
1 158
1 159
1 160
1 161
1 162
1 163
1 164
1 165
1 166
1 167
1 168
1 169
1 170
1 171
1 172
1 173
1 174
1 175
1 176
1 177
1 178
1 179
1 180
1 181
1 182
1 183
1 184
1 185
1 186
1 187
1 188
1 189
1 190
1 191
1 192
1 193
1 194
1 195
1 196
1 197
1 198
1 199
1 200
1 201
1 202
1 203
1 204
1 205
1 206
1 207
1 208
1 209
1 210
1 211
1 212
1 213
1 214
1 215
1 216
1 217
1 218
1 219
1 220
1 221
1 222
1 223
1 224
1 225
1 226
1 227
1 228
1 229
1 230
1 231
1 232
1 233
1 234
1 235
1 236
1 237
1 238
1 239
1 240
1 241
1 242
1 243
1 244
1 245
1 246
1 247
1 248
1 249
1 250
1 251
1 252
1 253
1 254
1 255
1 256
1 257
1 258
1 259
1 260
1 261
1 262
1 263
1 264
1 265
1 266
1 267
1 268
1 269
1 270
1 271
1 272
1 273
1 274
1 275
1 276
1 277
1 278
1 279
1 280
1 281
1 282

POINT_DATA 283
SCALARS id int 1
LOOKUP_TABLE default
1
2
3
4
5
6
7
8
9
10
11
12
13
14
15
16
18
19
20
21
22
24
25
26
27
29
30
31
32
33
34
35
36
37
38
40
41
42
43
44
45
46
47
48
49
50
52
55
56
57
58
59
60
61
62
63
64
65
66
67
68
69
70
71
72
73
74
75
76
77
78
79
80
81
82
83
84
85
86
87
88
89
90
91
92
93
94
95
96
98
99
100
101
102
103
104
105
106
107
108
109
110
111
112
113
114
115
116
117
118
119
120
121
122
123
124
125
126
127
128
129
130
131
132
133
134
135
136
137
138
139
140
141
142
144
145
146
147
148
149
150
152
153
154
155
156
157
158
159
160
161
162
164
165
166
167
168
169
170
171
172
173
174
175
176
177
178
179
180
181
182
183
184
185
186
187
188
189
190
191
192
193
194
195
196
197
198
199
200
201
202
203
204
205
206
207
208
209
210
211
213
214
215
217
218
219
220
221
222
223
224
225
226
227
228
229
230
231
232
233
234
235
236
237
238
239
241
242
243
244
245
246
247
248
249
250
251
252
253
254
255
256
257
258
259
260
261
262
263
264
265
267
268
269
270
271
272
273
274
275
276
277
278
279
280
281
282
283
284
285
286
287
288
289
290
292
293
294
295
296
297
298
300

SCALARS type int 1
LOOKUP_TABLE default
1
1
1
1
1
1
1
1
1
1
1
1
1
1
1
1
1
1
1
1
1
1
1
1
1
1
1
1
1
1
1
1
1
1
1
1
1
1
1
1
1
1
1
1
1
1
1
1
1
1
1
1
1
1
1
1
1
1
1
1
1
1
1
1
1
1
1
1
1
1
1
1
1
1
1
1
1
1
1
1
1
1
1
1
1
1
1
1
1
1
1
1
1
1
1
1
1
1
1
1
1
1
1
1
1
1
1
1
1
1
1
1
1
1
1
1
1
1
1
1
1
1
1
1
1
1
1
1
1
1
1
1
1
1
1
1
1
1
1
1
1
1
1
1
1
1
1
1
1
1
1
1
1
1
1
1
1
1
1
1
1
1
1
1
1
1
1
1
1
1
1
1
1
1
1
1
1
1
1
1
1
1
1
1
1
1
1
1
1
1
1
1
1
1
1
1
1
1
1
1
1
1
1
1
1
1
1
1
1
1
1
1
1
1
1
1
1
1
1
1
1
1
1
1
1
1
1
1
1
1
1
1
1
1
1
1
1
1
1
1
1
1
1
1
1
1
1
1
1
1
1
1
1
1
1
1
1
1
1
1
1
1
1
1
1
1
1
1
1
1
1
1
1
1
1
1
1
1
1
1
1
1
1

SCALARS radius float 1
LOOKUP_TABLE default
5e-05
5e-05
5e-05
5e-05
5e-05
5e-05
5e-05
5e-05
5e-05
5e-05
5e-05
5e-05
5e-05
5e-05
5e-05
5e-05
5e-05
5e-05
5e-05
5e-05
5e-05
5e-05
5e-05
5e-05
5e-05
5e-05
5e-05
5e-05
5e-05
5e-05
5e-05
5e-05
5e-05
5e-05
5e-05
5e-05
5e-05
5e-05
5e-05
5e-05
5e-05
5e-05
5e-05
5e-05
5e-05
5e-05
5e-05
5e-05
5e-05
5e-05
5e-05
5e-05
5e-05
5e-05
5e-05
5e-05
5e-05
5e-05
5e-05
5e-05
5e-05
5e-05
5e-05
5e-05
5e-05
5e-05
5e-05
5e-05
5e-05
5e-05
5e-05
5e-05
5e-05
5e-05
5e-05
5e-05
5e-05
5e-05
5e-05
5e-05
5e-05
5e-05
5e-05
5e-05
5e-05
5e-05
5e-05
5e-05
5e-05
5e-05
5e-05
5e-05
5e-05
5e-05
5e-05
5e-05
5e-05
5e-05
5e-05
5e-05
5e-05
5e-05
5e-05
5e-05
5e-05
5e-05
5e-05
5e-05
5e-05
5e-05
5e-05
5e-05
5e-05
5e-05
5e-05
5e-05
5e-05
5e-05
5e-05
5e-05
5e-05
5e-05
5e-05
5e-05
5e-05
5e-05
5e-05
5e-05
5e-05
5e-05
5e-05
5e-05
5e-05
5e-05
5e-05
5e-05
5e-05
5e-05
5e-05
5e-05
5e-05
5e-05
5e-05
5e-05
5e-05
5e-05
5e-05
5e-05
5e-05
5e-05
5e-05
5e-05
5e-05
5e-05
5e-05
5e-05
5e-05
5e-05
5e-05
5e-05
5e-05
5e-05
5e-05
5e-05
5e-05
5e-05
5e-05
5e-05
5e-05
5e-05
5e-05
5e-05
5e-05
5e-05
5e-05
5e-05
5e-05
5e-05
5e-05
5e-05
5e-05
5e-05
5e-05
5e-05
5e-05
5e-05
5e-05
5e-05
5e-05
5e-05
5e-05
5e-05
5e-05
5e-05
5e-05
5e-05
5e-05
5e-05
5e-05
5e-05
5e-05
5e-05
5e-05
5e-05
5e-05
5e-05
5e-05
5e-05
5e-05
5e-05
5e-05
5e-05
5e-05
5e-05
5e-05
5e-05
5e-05
5e-05
5e-05
5e-05
5e-05
5e-05
5e-05
5e-05
5e-05
5e-05
5e-05
5e-05
5e-05
5e-05
5e-05
5e-05
5e-05
5e-05
5e-05
5e-05
5e-05
5e-05
5e-05
5e-05
5e-05
5e-05
5e-05
5e-05
5e-05
5e-05
5e-05
5e-05
5e-05
5e-05
5e-05
5e-05
5e-05
5e-05
5e-05
5e-05
5e-05
5e-05
5e-05
5e-05
5e-05
5e-05
5e-05
5e-05
5e-05
5e-05
5e-05
5e-05
5e-05
5e-05
5e-05
5e-05
5e-05
5e-05
5e-05
5e-05
5e-05
5e-05
5e-05
5e-05
5e-05
5e-05
5e-05

SCALARS mass float 1
LOOKUP_TABLE default
1.46608e-10
1.46608e-10
1.46608e-10
1.46608e-10
1.46608e-10
1.46608e-10
1.46608e-10
1.46608e-10
1.46608e-10
1.46608e-10
1.46608e-10
1.46608e-10
1.46608e-10
1.46608e-10
1.46608e-10
1.46608e-10
1.46608e-10
1.46608e-10
1.46608e-10
1.46608e-10
1.46608e-10
1.46608e-10
1.46608e-10
1.46608e-10
1.46608e-10
1.46608e-10
1.46608e-10
1.46608e-10
1.46608e-10
1.46608e-10
1.46608e-10
1.46608e-10
1.46608e-10
1.46608e-10
1.46608e-10
1.46608e-10
1.46608e-10
1.46608e-10
1.46608e-10
1.46608e-10
1.46608e-10
1.46608e-10
1.46608e-10
1.46608e-10
1.46608e-10
1.46608e-10
1.46608e-10
1.46608e-10
1.46608e-10
1.46608e-10
1.46608e-10
1.46608e-10
1.46608e-10
1.46608e-10
1.46608e-10
1.46608e-10
1.46608e-10
1.46608e-10
1.46608e-10
1.46608e-10
1.46608e-10
1.46608e-10
1.46608e-10
1.46608e-10
1.46608e-10
1.46608e-10
1.46608e-10
1.46608e-10
1.46608e-10
1.46608e-10
1.46608e-10
1.46608e-10
1.46608e-10
1.46608e-10
1.46608e-10
1.46608e-10
1.46608e-10
1.46608e-10
1.46608e-10
1.46608e-10
1.46608e-10
1.46608e-10
1.46608e-10
1.46608e-10
1.46608e-10
1.46608e-10
1.46608e-10
1.46608e-10
1.46608e-10
1.46608e-10
1.46608e-10
1.46608e-10
1.46608e-10
1.46608e-10
1.46608e-10
1.46608e-10
1.46608e-10
1.46608e-10
1.46608e-10
1.46608e-10
1.46608e-10
1.46608e-10
1.46608e-10
1.46608e-10
1.46608e-10
1.46608e-10
1.46608e-10
1.46608e-10
1.46608e-10
1.46608e-10
1.46608e-10
1.46608e-10
1.46608e-10
1.46608e-10
1.46608e-10
1.46608e-10
1.46608e-10
1.46608e-10
1.46608e-10
1.46608e-10
1.46608e-10
1.46608e-10
1.46608e-10
1.46608e-10
1.46608e-10
1.46608e-10
1.46608e-10
1.46608e-10
1.46608e-10
1.46608e-10
1.46608e-10
1.46608e-10
1.46608e-10
1.46608e-10
1.46608e-10
1.46608e-10
1.46608e-10
1.46608e-10
1.46608e-10
1.46608e-10
1.46608e-10
1.46608e-10
1.46608e-10
1.46608e-10
1.46608e-10
1.46608e-10
1.46608e-10
1.46608e-10
1.46608e-10
1.46608e-10
1.46608e-10
1.46608e-10
1.46608e-10
1.46608e-10
1.46608e-10
1.46608e-10
1.46608e-10
1.46608e-10
1.46608e-10
1.46608e-10
1.46608e-10
1.46608e-10
1.46608e-10
1.46608e-10
1.46608e-10
1.46608e-10
1.46608e-10
1.46608e-10
1.46608e-10
1.46608e-10
1.46608e-10
1.46608e-10
1.46608e-10
1.46608e-10
1.46608e-10
1.46608e-10
1.46608e-10
1.46608e-10
1.46608e-10
1.46608e-10
1.46608e-10
1.46608e-10
1.46608e-10
1.46608e-10
1.46608e-10
1.46608e-10
1.46608e-10
1.46608e-10
1.46608e-10
1.46608e-10
1.46608e-10
1.46608e-10
1.46608e-10
1.46608e-10
1.46608e-10
1.46608e-10
1.46608e-10
1.46608e-10
1.46608e-10
1.46608e-10
1.46608e-10
1.46608e-10
1.46608e-10
1.46608e-10
1.46608e-10
1.46608e-10
1.46608e-10
1.46608e-10
1.46608e-10
1.46608e-10
1.46608e-10
1.46608e-10
1.46608e-10
1.46608e-10
1.46608e-10
1.46608e-10
1.46608e-10
1.46608e-10
1.46608e-10
1.46608e-10
1.46608e-10
1.46608e-10
1.46608e-10
1.46608e-10
1.46608e-10
1.46608e-10
1.46608e-10
1.46608e-10
1.46608e-10
1.46608e-10
1.46608e-10
1.46608e-10
1.46608e-10
1.46608e-10
1.46608e-10
1.46608e-10
1.46608e-10
1.46608e-10
1.46608e-10
1.46608e-10
1.46608e-10
1.46608e-10
1.46608e-10
1.46608e-10
1.46608e-10
1.46608e-10
1.46608e-10
1.46608e-10
1.46608e-10
1.46608e-10
1.46608e-10
1.46608e-10
1.46608e-10
1.46608e-10
1.46608e-10
1.46608e-10
1.46608e-10
1.46608e-10
1.46608e-10
1.46608e-10
1.46608e-10
1.46608e-10
1.46608e-10
1.46608e-10
1.46608e-10
1.46608e-10
1.46608e-10
1.46608e-10
1.46608e-10
1.46608e-10
1.46608e-10
1.46608e-10
1.46608e-10
1.46608e-10
1.46608e-10
1.46608e-10
1.46608e-10
1.46608e-10
1.46608e-10
1.46608e-10
1.46608e-10
1.46608e-10
1.46608e-10

VECTORS velocity float
0.00467715 0.000312201 0.000170391
0.00442557 0.000396597 0.00011013
0.0044731 0.000141464 -0.000160017
0.00448028 0.000353696 0.000194009
0.00450123 0.000438335 -0.000290682
0.00462866 0.000324921 -0.00046
0.00487096 -0.000160506 -0.000399331
0.00449678 0.000456976 -0.00030571
0.00436196 8.59581e-05 -0.00035512
0.00531215 0.000322211 -1.63519e-05
0.00457588 0.000374697 0.00012938
0.00435182 0.000137671 -0.000372768
0.00447646 0.000456688 7.46252e-05
0.00453861 0.000146392 -0.000891907
0.00439197 0.000600972 -5.34855e-06
0.00475642 2.60311e-05 -0.000735261
0.0047945 -0.000115464 -0.000315625
0.00447289 0.000327393 0.000154865
0.00444437 0.000347018 0.000108822
0.00491007 -8.2281e-05 -0.000459186
0.00493486 -0.000126346 -0.000183242
0.00433707 0.00016957 -0.000383022
0.00441923 0.000392903 0.000107488
0.00430424 0.000265499 -0.000414721
0.00471544 4.12221e-05 -0.000780766
0.00442094 0.000386338 0.000108921
0.00448407 -0.000226518 6.25232e-05
0.00512943 3.74569e-05 -0.000190649
0.00443198 0.000398882 0.000106995
0.00462401 0.000309916 -0.000454314
0.00444693 0.00039784 0.00014685
0.00444343 0.000126528 0.000254799
0.0043896 6.68145e-05 -0.000350358
0.00487534 -0.000152731 -0.0004031
0.00445289 0.0003598 0.000136564
0.00486523 -0.000164398 -0.000396508
0.00442665 0.000380887 0.00011318
0.00437876 0.000402651 0.000100606
0.00502749 2.67653e-05 -0.000186593
0.0044546 0.000317824 0.000154663
0.00461699 0.000284333 -0.000444687
0.00430328 0.000217476 -0.000397556
0.00489707 -0.000119275 -0.000434251
0.00436852 0.000374878 0.000117584
0.00441501 0.000231472 -0.00041085
0.00444089 0.000336251 0.000135179
0.00493584 0.000571179 -0.000267046
0.00467861 0.000544974 -0.000257999
0.00507142 0.000370895 -5.38221e-06
0.0044165 0.000282006 -0.000428942
0.00473444 0.000357765 -0.000437461
0.00434433 0.000153077 -0.000377693
0.00450428 0.000385906 0.000163575
0.00490558 -0.000107313 -0.000451847
0.00458827 0.000365039 0.000135933
0.00447929 0.000150656 0.000205943
0.00432973 0.000185734 -0.000388229
0.00470487 0.000323181 0.000168705
0.00482051 0.00051226 -0.000259893
0.0048189 -3.31826e-05 0.00035469
0.004895 0.000591176 -0.000122883
0.00428938 0.000375902 0.000108059
0.00475348 -0.00011064 -0.000314281
0.00464487 0.000633321 -0.000170263
0.00435037 8.09681e-05 -0.000352483
0.00489028 -0.000134396 -0.000423396
0.00430303 0.000402635 9.51816e-05
0.00488388 -0.000146025 -0.000413359
0.00475199 -0.000111749 -0.000313779
0.00489914 -9.97387e-05 -0.00017916
0.00458693 0.000125175 -0.000873239
0.00466558 9.28181e-05 -0.000842467
0.00441806 0.000372623 0.000121415
0.00489585 0.000493729 -0.000260096
0.00467523 0.000645266 -0.000190005
0.00460343 0.000123081 -0.00087346
0.00437914 6.74785e-05 -0.000349818
0.00487655 0.000588407 -0.000124269
0.00478111 8.61785e-05 -6.54243e-05
0.00437298 8.83133e-05 -0.000356779
0.00437183 0.000386239 0.000108896
0.00443936 0.000350119 0.000132868
0.00441191 0.000585864 6.26813e-06
0.00468215 0.000327024 0.000162826
0.00428518 0.000382112 0.000105075
0.00444313 0.000371218 0.000119981
0.00430144 0.000386256 0.000103355
0.00445462 0.00034928 0.00013139
0.00445213 0.000382811 0.000117349
0.00437155 0.000386156 0.000108934
0.00455083 0.000677925 -0.000228273
0.00443048 0.00035577 0.000127241
0.00466086 0.000525001 -0.000255543
0.00445602 0.000335928 0.000164187
0.00447297 0.000421527 9.74097e-05
0.00472152 0.000631997 -0.000175972
0.0046967 0.000545359 -0.000259256
0.00464426 0.000349267 0.00014794
0.00455923 0.000137491 -0.000883099
0.00442457 0.000344045 0.000125862
0.00443447 0.000141546 0.000182032
0.00485856 -9.13583e-05 -0.000174271
0.0047875 0.000213026 0.000115828
0.00468638 6.50748e-05 -0.000810457
0.00519193 0.000258088 -0.000202233
0.00469927 0.000556389 -0.000226667
0.00445356 0.000363895 0.000135825
0.00434955 0.000336856 0.000104632
0.00458427 0.000370792 0.000132508
0.004846 0.000506179 -0.000259978
0.00447746 -0.000230253 0.00016058
0.00447501 0.00039562 0.000108705
0.00423418 0.000374388 0.000105315
0.00429458 0.000398739 9.57124e-05
0.00492988 0.000556252 -0.000273816
0.00449716 0.000402789 0.000118702
0.00471282 0.00025289 0.000188507
0.00474102 0.000323769 0.00017528
0.00462772 0.000113593 -0.00086408
0.00515036 0.000439397 -0.000212751
0.00469466 5.85675e-05 -0.000795037
0.00480719 6.8535e-05 -0.000100012
0.00492398 0.000567723 -0.00027214
0.00436304 0.000391012 0.000107322
0.00431559 0.000372791 0.000112535
0.00442762 0.000361716 0.00012708
0.00429138 0.000408041 9.15243e-05
0.00490788 0.000568053 -0.000271235
0.00460518 0.00035109 0.000144366
0.00432487 0.000387064 0.000104332
0.00427635 0.000397849 9.61461e-05
0.0049984 0.00033212 -0.000189034
0.0047021 0.000529888 -0.000257771
0.00486555 -0.000170621 -0.000397382
0.00443872 0.000392288 0.000109285
0.00445582 0.000368152 0.000108227
0.00453717 0.000355823 0.000136207
0.00457758 0.00012956 -0.000876735
0.00445383 0.000383884 0.000157974
0.0042643 0.000372373 0.000108859
0.0046655 0.000335552 0.000156743
0.00450441 0.000688545 -0.000239264
0.00515078 0.000149 0.000237695
0.00474518 1.47982e-05 -0.000759241
0.00467544 8.20793e-05 -0.000831922
0.00489849 0.000564403 -0.000272757
0.0043981 0.000265289 0.000177612
0.00476393 0.000534939 -0.000260384
0.00431076 0.000394705 9.97622e-05
0.00457775 0.00056044 -0.000257582
0.00429658 0.000403322 9.40679e-05
0.00484391 0.000487283 -0.000257126
0.00434151 0.000388696 0.000104646
0.00492694 0.00057045 -0.000271519
0.00427202 0.0003856 0.00010212
0.0048671 0.000156525 -0.000588493
0.00444434 0.000382415 0.000118657
0.00475633 0.000592117 -0.000290343
0.00464662 0.000615622 -0.000154901
0.00435392 0.000312375 0.000176298
0.00487526 0.000610188 -0.000280688
0.00448612 0.000237153 0.000196479
0.00452846 0.000649665 -0.000267662
0.00454261 0.000647933 -0.00026716
0.00476044 1.04847e-05 -0.000749127
0.00492215 0.000565508 -0.000271405
0.00449751 0.000685751 -0.000237129
0.00461904 0.000660314 -0.000205727
0.00490597 -8.49553e-05 -0.000179334
0.0049149 0.000549208 -0.000268829
0.00468051 0.000489389 -6.35285e-05
0.00483271 0.000493514 -0.000257643
0.00444284 0.000317878 0.000165508
0.00458362 0.000640239 -0.000189171
0.00448912 0.000672539 -0.000221201
0.0047244 -7.61657e-06 -0.000348791
0.00465411 0.000324717 0.00016203
0.0047011 0.000297551 0.000173898
0.00479061 -1.48006e-06 -0.000745468
0.00438603 0.000397523 0.000106218
0.00452929 0.000665621 -0.000264126
0.00439945 0.000300402 0.000149491
0.00482308 -7.99381e-05 -0.00030109
0.0048587 0.000654222 -0.000284434
0.0045523 0.000682271 -0.000230074
0.0046132 0.00036476 0.000137846
0.00495928 0.000565726 -0.000271605
0.00486823 0.000627883 -0.000271682
0.00464523 0.000104478 -0.000854425
0.00450235 0.000681416 -0.000246553
0.00465844 0.000562385 -0.000272356
0.00444482 0.000350401 0.000135622
0.00467365 0.000677971 -0.00028076
0.00463365 0.000415295 -0.000325171
0.00450026 0.000654834 -0.000265807
0.00478663 0.000613972 -0.000152786
0.00490807 0.000566375 -0.000271078
0.00472298 2.38408e-05 -0.000773617
0.00457746 -0.000350451 0.000249229
0.00463071 0.000338474 0.000152844
0.00487951 -0.000127279 -0.000317744
0.00429106 0.000407594 9.16342e-05
0.00483261 2.94537e-05 -0.000694901
0.00458472 0.000357451 0.00013921
0.00475129 0.000280889 0.000180189
0.00477875 0.000271926 0.000202606
0.00532778 0.000227179 -0.000192759
0.00475792 2.40555e-05 -0.000734391
0.00444273 0.000323864 0.000142125
0.00468054 7.2829e-05 -0.000821211
0.00462323 0.000118174 -0.000869175
0.00483698 -0.000121333 -0.000316694
0.00455686 0.000669127 -0.000272297
0.00464881 0.000547326 -0.000257785
0.00452828 0.000649225 -0.000207095
0.00464668 0.000655478 -0.000272056
0.00465628 0.00067802 -0.000291563
0.0048326 -9.48409e-05 -0.000812977
0.0045297 0.000687138 -0.000234841
0.00437365 0.000386402 0.000108103
0.00447526 0.000265971 0.000172759
0.00451667 0.000635525 -0.000200073
0.00455184 0.000663803 -0.000213717
0.00455161 0.000655952 -0.00027047
0.00447812 0.000661025 -0.000218625
0.00425134 -0.000320295 2.315e-05
0.00458016 0.000629624 -0.00023441
0.00443296 0.000680444 -0.000217207
0.0042141 -0.000311657 1.77662e-05
0.00428708 -0.000328685 2.71927e-05
0.0046644 0.000526603 -0.000330035
0.00438896 -0.00034907 2.97047e-05
0.00442893 0.000411589 9.89775e-05
0.00441112 0.000391901 0.000109776
0.00476615 6.47829e-05 -0.000666621
0.00485894 -0.00016263 -0.000385897
6.81016e-15 2.29885e-14 -7.03244e-14
0.00431245 -0.000376148 -2.22119e-05
0.00490674 0.000569011 -0.000271183
0.00460379 0.000551894 -0.00025679
0.00475837 -5.2952e-06 -0.000733052
0.00479706 0.000616559 -0.000272969
0.00455853 0.000647809 -0.000269505
0.00458316 0.000666813 -0.000272629
0.0049038 0.000576735 -0.000272244
0.00477037 0.000377956 0.000140279
0.00449089 0.000666628 -0.000221807
0.00456599 0.000685244 -0.000278768
0.00440835 -0.000230885 0.000220271
0.00454407 0.000665128 -0.000276804
0.00484948 -5.44305e-05 -0.000769004
0.00471578 0.000284057 0.000166301
0.00488414 0.000545265 -0.000267086
0.00489447 0.000576676 -0.000270351
0.00486579 0.000467127 -0.0002551
0.00474433 0.000537809 -0.000259526
0.00454669 0.000664451 -0.000269614
0.00487059 0.000624848 -0.000277559
0.00472257 0.00063912 -0.000273211
0.0047402 0.0005532 -0.000251587
0.00489287 0.000585621 -0.000273106
0.00455582 0.000624591 -0.000276557
0.00438382 0.000416846 9.49324e-05
-1.28029e-14 6.09105e-14 -1.9022e-13
0.00437882 -0.000211675 0.000295162
0.00491814 0.000568891 -0.000272219
0.00440926 -0.000211727 0.00029399
0.00439706 -0.000277209 0.0001108
0.0044981 0.000674457 -0.000230758
0.00451094 0.000666734 -0.000219832
0.00485867 0.000600143 -0.000274412
0.00509408 0.000352169 -0.000208805
0.00456441 0.00066827 -0.000272675
0.00481223 0.00053031 -0.000261673
0.0045232 0.000663233 -0.000269621
0.00488446 0.00062226 -0.000283828
0.00495542 5.82531e-05 -0.000185115
0.00454781 0.000620269 -0.000161926
0.00456508 0.000673466 -0.000219887
0.00431729 0.000393345 0.000100669
0.00445881 0.000202273 0.000162903
0.00483097 0.000524026 -0.000262079
0.00485684 -0.000180445 -0.000198701

VECTORS force float
-6.50903e-11 6.04865e-11 -3.57696e-11
1.39151e-10 5.43875e-10 -1.62589e-10
8.88554e-11 -5.38252e-10 -3.76987e-11
-1.20878e-10 7.10848e-12 3.17253e-10
6.16675e-11 -1.69104e-10 1.80865e-10
9.17152e-13 1.56715e-12 -6.69437e-13
-3.74765e-12 1.02361e-10 -3.98573e-11
-8.24955e-11 8.91705e-12 1.76665e-10
8.92777e-13 3.15201e-12 -1.20186e-12
6.73762e-10 -1.07381e-09 1.28824e-09
8.45075e-12 2.55255e-10 -1.48545e-10
2.98686e-13 2.55912e-13 -1.09697e-13
-1.1662e-10 -2.75177e-10 3.61085e-11
1.91118e-11 1.32457e-10 -1.66545e-10
3.00222e-10 -3.37484e-09 1.84314e-09
5.61357e-12 -1.02028e-10 9.70356e-11
8.93223e-13 5.25541e-13 -2.75441e-13
-1.38565e-10 4.69304e-11 1.02951e-10
7.16762e-11 -2.48446e-12 -1.45188e-10
-1.63797e-10 -4.95129e-10 1.24642e-10
-5.04596e-10 -5.49401e-10 6.5917e-11
4.76223e-13 1.02634e-13 -6.72106e-14
1.02738e-10 -1.73358e-10 1.34408e-10
-2.88781e-13 -2.67993e-12 8.84498e-13
-3.24197e-11 5.98967e-11 1.28608e-10
1.26644e-10 -5.21916e-11 3.27439e-11
2.66663e-11 -2.48965e-12 -8.20774e-11
1.5795e-10 2.76452e-10 -1.80334e-10
3.15189e-10 -1.49429e-10 1.21874e-10
5.73986e-13 3.60781e-13 -1.66468e-13
1.68105e-13 -1.76694e-10 -5.68721e-11
1.36529e-09 2.07719e-09 -7.95397e-10
9.89603e-13 -1.82334e-12 4.7035e-13
1.27703e-11 -3.05277e-11 2.53318e-11
2.56534e-10 -2.12802e-10 1.14352e-10
4.7753e-11 1.51752e-10 -1.63305e-10
-1.58733e-10 -1.40989e-10 9.94809e-11
-2.11843e-10 2.09151e-10 -1.14673e-10
1.36646e-09 -3.73903e-10 2.71279e-10
-9.17155e-10 -7.15227e-10 7.04197e-11
5.54014e-13 1.46969e-13 -7.52427e-14
5.0767e-13 1.32841e-13 -9.95892e-14
-1.32159e-10 -3.56761e-10 2.80403e-10
-2.50729e-10 1.69422e-10 -9.14429e-11
6.40305e-13 -3.983e-15 -4.85103e-14
1.0848e-10 -2.03991e-10 7.47293e-11
-2.39208e-11 5.92711e-11 -3.51468e-11
5.71153e-12 -1.09319e-10 2.8642e-11
2.29986e-09 -5.4888e-10 1.0501e-10
5.66924e-14 -3.46857e-12 1.24773e-12
-3.15725e-11 1.7928e-11 -1.28463e-10
4.11396e-13 3.34928e-14 -4.35551e-14
3.67265e-10 -5.05338e-10 5.16588e-10
-1.24442e-10 -4.40353e-10 2.76139e-10
-5.72357e-11 -7.28646e-11 3.58702e-11
-5.66444e-10 5.7337e-10 -7.04103e-10
5.2917e-13 4.23339e-13 -1.91806e-13
4.08138e-11 1.00437e-11 6.10201e-11
7.88936e-11 -1.91465e-11 -6.85756e-13
2.49153e-09 -2.80505e-10 1.47139e-11
9.54693e-12 2.59652e-11 -4.40297e-11
-2.9691e-11 2.63107e-10 -1.54828e-10
3.07752e-12 1.64453e-12 -3.58979e-13
2.53816e-11 2.86489e-11 -1.24191e-11
1.41148e-12 5.39589e-12 -2.037e-12
-8.62604e-11 -2.19924e-10 2.63864e-10
-3.18746e-10 -1.56976e-10 5.61807e-11
-7.2546e-11 -1.63883e-10 9.91994e-11
8.92553e-13 -3.06148e-13 -3.7604e-13
-2.32713e-11 -3.84869e-10 2.69505e-12
-1.2603e-11 1.31036e-10 -2.09157e-10
4.75865e-11 -1.83835e-11 1.7695e-12
3.17047e-11 -2.88105e-10 1.71868e-10
1.47571e-11 5.56928e-12 -2.5005e-12
2.37614e-10 -5.25642e-11 7.08977e-11
1.58215e-11 7.62133e-11 -1.39494e-10
2.62515e-12 1.31451e-12 -4.73219e-13
-5.8928e-11 -9.61153e-11 8.71712e-11
6.5519e-10 2.89974e-10 1.76584e-10
3.80299e-13 1.42505e-12 -5.35336e-13
2.33019e-10 -2.1637e-10 1.28699e-10
2.24519e-10 -2.08674e-10 -5.50747e-12
-6.05395e-10 2.6574e-10 -1.97654e-10
-3.4926e-11 3.16763e-11 -1.18447e-11
-4.71003e-11 1.09949e-10 -6.65744e-11
-8.28366e-11 -2.27617e-10 1.34154e-10
1.81843e-11 1.34078e-10 -5.78858e-11
-2.90203e-10 -1.13161e-10 8.85249e-11
-1.1977e-10 1.73879e-10 -1.0021e-10
-3.05101e-11 -4.81323e-11 7.67537e-11
2.41658e-11 -5.13902e-11 6.92965e-11
5.35903e-11 -7.6141e-11 1.11711e-10
2.68402e-11 -1.39425e-11 1.10106e-12
1.18009e-10 -1.72719e-10 2.88023e-11
1.87405e-11 -3.5885e-10 1.8122e-10
-4.28394e-12 -1.42448e-11 3.48524e-12
-1.28572e-10 -7.15379e-11 2.82352e-11
-9.5179e-11 1.87401e-10 -1.09171e-10
-2.64864e-11 1.91873e-10 -2.54848e-10
-1.02463e-10 -3.80601e-10 4.1709e-10
-1.4332e-09 -6.30309e-10 8.07031e-10
1.75626e-10 -3.73577e-10 -3.4135e-11
9.97945e-11 1.59112e-10 -2.07785e-10
1.79533e-11 -2.18635e-11 2.95449e-11
1.49463e-10 -5.75626e-10 -6.75766e-11
5.46573e-11 1.14433e-10 6.22573e-12
2.79266e-11 6.39103e-11 -9.66618e-12
2.41087e-10 1.97334e-10 7.43819e-11
5.71658e-11 1.17307e-10 -6.12955e-11
-6.65642e-11 -1.08279e-11 4.27277e-12
1.10705e-12 1.80846e-12 -4.87775e-13
-2.42515e-10 1.39567e-10 -8.18496e-11
7.44738e-11 -7.57777e-11 4.41703e-11
1.2558e-10 1.45895e-11 9.19692e-12
5.55226e-12 -7.917e-11 -1.80409e-11
-9.70404e-11 -2.60519e-10 3.29446e-10
1.60668e-09 -1.13917e-09 1.85607e-10
3.84041e-11 3.36064e-11 8.06825e-11
-1.60541e-10 7.26336e-11 -6.82532e-11
-6.03648e-10 -2.54532e-10 4.47486e-11
-5.93564e-11 2.51349e-11 7.52504e-11
1.0673e-10 1.19024e-10 -3.68885e-10
1.43909e-11 -2.91505e-11 2.35455e-11
3.60865e-11 -2.86773e-11 7.25019e-11
1.36078e-11 1.91608e-10 -1.0751e-10
2.67711e-10 -3.05153e-10 2.08291e-10
1.32331e-10 -2.02536e-10 1.15939e-10
-1.23726e-11 -4.912e-11 5.50504e-12
-5.54183e-11 -8.30367e-11 3.80351e-11
1.17097e-11 -2.13688e-11 1.83444e-11
-6.18645e-11 1.28076e-10 -7.24599e-11
-1.71317e-10 -4.29017e-10 -3.88044e-11
-1.59282e-10 -7.2989e-12 1.17096e-11
9.07689e-11 2.50677e-10 -1.9406e-10
3.36886e-10 -1.79071e-10 1.27911e-10
-2.48036e-10 -9.48529e-11 7.63235e-11
-1.97503e-10 -3.55155e-10 1.67677e-10
1.68572e-10 1.81741e-10 -2.85707e-10
3.19471e-11 -1.74337e-10 3.25225e-10
-1.62031e-11 -2.28569e-11 1.3109e-11
-4.12212e-11 1.02326e-10 -5.58872e-11
-2.21545e-10 -7.50356e-11 6.00669e-11
3.88721e-11 -4.41604e-10 3.71842e-10
6.1711e-11 -1.0222e-10 1.06204e-10
-2.02517e-11 -6.42044e-12 1.55853e-11
4.99013e-11 8.62116e-11 -8.55538e-11
2.88139e-10 3.42195e-10 -1.73484e-10
-7.44136e-11 -8.00294e-11 1.47121e-11
-1.08652e-10 1.66324e-10 -9.07171e-11
-4.98841e-11 -2.87808e-10 1.13915e-11
3.75835e-11 5.284e-11 -2.39834e-11
-9.09468e-11 7.54863e-11 -7.65787e-12
9.68739e-11 6.97768e-11 -2.19499e-12
-1.13616e-11 4.60039e-11 -4.58859e-12
1.83909e-10 3.11204e-10 -1.52282e-10
2.36759e-11 -1.02443e-10 -8.71993e-11
2.44662e-10 -2.14707e-10 1.43915e-10
-5.62082e-11 2.95754e-10 -1.76527e-10
-9.38573e-12 -8.10478e-11 -2.96075e-11
1.96549e-10 1.10261e-10 -1.30482e-11
1.83541e-12 4.37644e-11 1.36104e-11
-1.39569e-10 3.14333e-10 -7.73136e-11
4.92296e-11 4.01936e-10 -9.83473e-12
1.02153e-10 5.06113e-11 -6.12868e-12
-2.04393e-11 -9.3251e-11 1.18952e-10
1.81261e-12 8.19292e-11 -9.62567e-12
-1.07199e-10 -9.40345e-11 5.77032e-11
1.93523e-10 -4.61058e-11 6.81811e-11
-3.24607e-11 -5.82137e-10 6.05808e-12
-2.48407e-11 -5.18149e-12 2.34978e-12
-3.23817e-10 -3.40535e-12 -2.65104e-10
-2.96744e-11 -5.958e-11 1.05404e-11
1.25292e-10 5.55591e-11 -3.44426e-10
3.17701e-11 -1.95328e-11 -4.4479e-11
1.0118e-10 -3.62252e-11 5.97133e-11
-5.39172e-12 -3.95922e-12 9.19894e-13
-3.79847e-11 5.80974e-11 -3.14213e-11
-2.90899e-11 4.45583e-11 -3.27766e-11
1.49757e-10 -6.34038e-11 8.39566e-11
-9.21545e-11 1.49125e-11 4.61674e-11
-3.18359e-11 -3.0435e-11 8.0375e-11
2.07244e-10 -5.19674e-10 8.74084e-11
2.93478e-11 1.91033e-10 -3.54561e-10
-1.99331e-11 3.43726e-10 -1.25878e-10
7.31148e-11 -9.8849e-11 7.46625e-11
-1.29402e-10 1.75139e-10 -1.03876e-10
2.70587e-11 9.13065e-11 -1.19099e-12
8.89107e-11 9.65954e-11 3.90813e-11
-5.70166e-11 2.36804e-11 -4.7277e-12
1.43296e-11 2.21902e-11 2.05323e-10
1.14024e-11 -2.0285e-10 1.43768e-10
2.87559e-10 3.05317e-11 4.08786e-12
-5.7478e-11 4.91922e-10 -8.7125e-11
-1.00645e-11 -2.02853e-10 -1.86113e-10
-1.12067e-10 9.89982e-11 4.38094e-11
-1.13631e-10 3.88283e-11 -5.14694e-11
5.41111e-11 -9.93469e-11 1.38968e-11
7.19531e-11 -4.31283e-11 1.25473e-10
-4.91739e-10 7.21699e-10 4.16691e-10
-4.0368e-11 1.9831e-11 -8.51649e-12
6.42642e-13 2.27924e-13 -6.8207e-14
4.66011e-10 -1.1119e-10 8.38356e-11
1.82611e-10 -1.12004e-10 5.68381e-12
-1.16917e-10 -2.46838e-10 1.12896e-10
-5.34411e-11 1.29705e-10 -4.1535e-11
1.51912e-11 1.74233e-10 -7.53424e-11
2.57932e-09 7.99341e-10 -1.01655e-09
1.67359e-10 -1.04929e-10 8.63596e-11
6.57885e-10 -9.80843e-10 5.39732e-10
-3.24928e-11 -1.96416e-11 3.23681e-11
3.36326e-11 5.43669e-11 -9.47319e-11
7.6551e-13 3.32073e-13 -1.26942e-13
-1.46928e-10 -5.37543e-11 3.4241e-11
2.57362e-11 -1.4563e-10 3.05262e-11
4.25217e-11 1.19321e-11 -2.87621e-11
1.79269e-10 -7.84003e-11 -9.53634e-12
1.50841e-10 5.1157e-11 -1.23433e-10
4.66637e-12 -4.01021e-11 1.03603e-12
-1.20077e-10 -8.77554e-11 5.73997e-11
-1.51749e-10 -1.4741e-11 -3.03222e-11
2.84819e-11 -1.15446e-10 6.20142e-11
-3.21733e-11 -1.7599e-10 2.91666e-10
-5.31887e-11 -1.03375e-10 6.35367e-11
-5.06588e-11 -1.67669e-10 -2.79651e-12
7.55228e-12 1.40363e-11 -2.52741e-11
-6.80124e-11 -1.41306e-12 8.32906e-12
-3.1531e-10 -1.08726e-10 -6.44652e-11
1.06137e-10 -2.62692e-11 2.38166e-13
-5.01643e-11 7.74959e-12 -6.52754e-12
9.5663e-11 -1.02376e-12 -1.13517e-11
-8.05787e-11 -5.84895e-10 -6.67257e-10
-5.60959e-11 2.15591e-11 8.62594e-11
2.82471e-10 -1.12403e-10 6.46416e-11
6.02284e-11 5.6958e-11 -2.55023e-11
-1.10468e-11 -5.19312e-11 -5.14298e-11
7.89586e-11 2.80953e-10 -2.3979e-10
-1.98006e-23 3.46382e-24 2.06795e-25
6.98583e-11 -2.02019e-10 -1.43686e-10
7.26729e-11 7.91129e-11 -1.70139e-11
-1.66342e-10 -1.50406e-10 2.01927e-11
2.40421e-10 -1.02051e-10 7.40628e-11
2.22531e-10 -4.54405e-11 2.8927e-11
-4.0254e-11 -1.09673e-10 5.86211e-12
8.55754e-11 -8.5849e-11 1.59867e-12
5.71991e-11 6.81745e-11 -1.46684e-11
3.89847e-10 -4.12811e-11 3.78181e-10
4.97526e-11 -1.01186e-10 1.23133e-10
-8.53585e-12 3.15806e-10 -7.26198e-11
-1.11216e-11 -6.8911e-11 -7.90369e-11
-1.70293e-10 -2.30218e-11 4.09699e-11
7.98222e-11 -2.11056e-11 6.28065e-11
-2.76291e-11 8.45386e-11 -1.06352e-11
7.53444e-12 6.63631e-11 -8.16197e-12
3.85028e-11 1.04987e-10 -3.39234e-11
-3.71139e-11 -4.07333e-12 2.23806e-12
2.03835e-11 -7.67531e-11 1.04413e-11
-6.14584e-11 -1.61907e-10 6.05257e-11
-2.66742e-11 2.4536e-12 1.66453e-11
2.84109e-10 -8.20889e-11 -2.89409e-11
-2.76284e-11 -8.7436e-11 4.94026e-11
-8.88602e-11 1.0487e-10 -2.16165e-11
-2.94008e-11 -1.09879e-10 -3.93243e-11
4.73016e-11 1.42158e-10 9.9257e-12
3.8438e-23 1.58198e-23 6.20385e-25
1.38741e-10 6.02164e-11 -1.40445e-10
8.56363e-11 -6.00123e-11 5.99287e-12
2.50457e-11 -1.14571e-10 -2.07756e-11
5.36089e-11 -9.15105e-12 -1.92948e-12
-3.63325e-12 -1.11245e-11 2.12109e-10
2.81585e-11 -1.40191e-10 1.068e-10
6.86866e-11 1.54812e-10 2.4291e-12
9.57836e-10 -7.48832e-10 -1.23967e-09
-1.37867e-11 -8.817e-11 1.92317e-11
-1.39305e-10 -7.82352e-11 2.35955e-11
4.98048e-11 2.59832e-10 -6.46153e-11
4.25552e-11 1.03385e-10 2.98564e-11
2.03298e-10 -6.52771e-10 -8.91542e-11
5.15677e-10 -1.65595e-10 5.89991e-10
1.76742e-11 -2.85872e-11 3.75777e-11
-1.13914e-10 2.00954e-11 -1.16335e-11
1.37078e-09 9.96351e-11 -1.31775e-09
1.59272e-10 2.77627e-10 -4.78986e-11
1.36111e-09 7.76892e-10 1.83145e-11
