# vtk DataFile Version 3.0
LIGGGHTS particles timestep 78600000
ASCII
DATASET POLYDATA
POINTS 277 float
0.373371 0.0173001 0.00730918
0.373532 0.0180193 0.00707499
0.373284 0.0174412 0.00713873
0.373264 0.0173509 0.00717719
0.37279 0.0155204 0.00847641
0.379013 0.0163656 0.00787726
0.37277 0.0154723 0.00856188
0.379268 0.017452 0.00743584
0.373602 0.0185449 0.00687514
0.373161 0.0165652 0.0077093
0.379226 0.0172709 0.00750941
0.373523 0.0186059 0.00686575
0.367428 0.0179907 0.00704756
0.373582 0.0184495 0.00689819
0.367239 0.0172009 0.0075206
0.379395 0.0179952 0.00721502
0.373382 0.0177196 0.007162
0.373417 0.0172385 0.00724541
0.372809 0.0155791 0.00839783
0.373324 0.0176317 0.00709273
0.379183 0.0170899 0.00758298
0.373589 0.0175683 0.00711725
0.37912 0.0168183 0.00769334
0.367307 0.0168468 0.00766384
0.37349 0.0177595 0.00715729
0.378992 0.0162751 0.00791405
0.373457 0.0178521 0.00713942
0.373734 0.0183237 0.00693442
0.379035 0.0164562 0.00784048
0.373361 0.0178162 0.00714608
0.373561 0.0183525 0.00692157
0.379335 0.0177231 0.007326
0.373613 0.0178538 0.00704713
0.373237 0.0165097 0.00774296
0.373609 0.0176636 0.00709421
0.3738 0.0180564 0.00700296
0.373439 0.0177614 0.00706435
0.373323 0.017213 0.00726699
0.379056 0.0165467 0.00780369
0.379141 0.0169088 0.00765655
0.372956 0.0161389 0.00800513
0.373398 0.0171569 0.00730108
0.379098 0.0167278 0.00773012
0.373475 0.0175064 0.00712886
0.367334 0.0176859 0.00708824
0.367375 0.0174719 0.00724068
0.373616 0.0181324 0.00697806
0.379077 0.0166372 0.00776691
0.367168 0.0166583 0.00778737
0.379204 0.0171804 0.0075462
0.373639 0.0182919 0.00693919
0.372829 0.0156552 0.00833601
0.373281 0.0166708 0.00763277
0.373381 0.0174789 0.00714472
0.379162 0.0169993 0.00761977
0.373 0.0163011 0.0078966
0.367467 0.0183372 0.00695092
0.373484 0.018413 0.00690399
0.367329 0.016928 0.00760943
0.373359 0.0169948 0.00741167
0.37945 0.018268 0.00710332
0.367242 0.0166034 0.00782684
0.379247 0.0173615 0.00747263
0.373117 0.0164034 0.00781999
0.373087 0.0166223 0.00767458
0.373571 0.0178489 0.00713773
0.379376 0.0179042 0.00725228
0.373363 0.0178237 0.00704637
0.366877 0.015902 0.00829112
0.392848 0.0240513 6.33589e-05
0.373681 0.0179258 0.00703149
0.367428 0.0181412 0.00695789
0.367565 0.0175246 0.0072002
0.366899 0.0159831 0.00823681
0.379311 0.017633 0.00736227
0.367146 0.0165771 0.00784169
0.373421 0.0176659 0.00708746
0.379289 0.0175425 0.00739906
0.373301 0.0167518 0.00757751
0.373453 0.0174104 0.00715195
0.373183 0.0166458 0.00765421
0.372978 0.0162194 0.00795004
0.373529 0.0172921 0.00721058
0.373303 0.0171319 0.00732229
0.373245 0.0168889 0.00748813
0.373463 0.0178621 0.00704012
0.373706 0.0178138 0.00706011
0.373516 0.0176981 0.00708257
0.367633 0.0177616 0.00703053
0.373444 0.018222 0.00695014
0.367538 0.0177345 0.0070511
0.373496 0.017602 0.0071058
0.373777 0.0179617 0.00702576
0.367372 0.017092 0.00749964
0.367393 0.0175516 0.00718313
0.373442 0.0174765 0.00722625
0.366834 0.0157397 0.00839975
0.373695 0.0180219 0.00700811
0.373303 0.0175419 0.00721559
0.373343 0.0177271 0.00706971
0.372937 0.0160601 0.00806381
0.373473 0.0179606 0.007016
0.36719 0.0167394 0.00773306
0.373208 0.0171075 0.00734323
0.373246 0.0172697 0.00723258
0.373139 0.0164847 0.0077644
0.367486 0.0184353 0.0069491
0.378971 0.0161846 0.00795083
0.373547 0.0173782 0.00716305
0.373492 0.0171268 0.00731677
0.37313 0.0167834 0.00756439
0.367369 0.0178464 0.00697427
0.373406 0.0180312 0.00699622
0.373685 0.018206 0.00696204
0.373259 0.0165903 0.00768786
0.366921 0.0160642 0.00818249
0.373503 0.0185102 0.00689037
0.366986 0.0163075 0.00801955
0.372892 0.0158973 0.00817035
0.367543 0.0180518 0.00704772
0.373296 0.0174442 0.0072379
0.373379 0.0170758 0.00735638
0.373435 0.0173197 0.00719004
0.373205 0.0167264 0.00759911
0.367501 0.0178552 0.00707694
0.373273 0.0172736 0.00732894
0.37315 0.0168643 0.00750914
0.37332 0.0168328 0.00752223
0.373521 0.0181597 0.00696812
0.367464 0.0178795 0.00697266
0.372913 0.0159779 0.00811519
0.373635 0.0179975 0.00708445
0.373284 0.0170509 0.00737758
0.373065 0.0165417 0.00772968
0.366855 0.0158209 0.00834543
0.373515 0.0179252 0.00710448
0.373511 0.017208 0.00726142
0.373095 0.0163228 0.0078751
0.367298 0.0171458 0.00746084
0.373412 0.0179925 0.00708818
0.367177 0.0169593 0.00768348
0.367125 0.016496 0.007896
0.367447 0.0182391 0.00695332
0.373401 0.0175706 0.00711046
0.367617 0.0182054 0.00695065
0.373542 0.0182571 0.00694464
0.36747 0.0174979 0.00722129
0.373225 0.0168079 0.00754345
0.367581 0.0184674 0.0069452
0.37317 0.0169454 0.00745385
0.367298 0.0175258 0.00720268
0.37334 0.0169138 0.00746694
0.367751 0.0179223 0.00697185
0.373624 0.0177621 0.00708684
0.367583 0.0181672 0.0070363
0.367617 0.0179007 0.00705183
0.373501 0.0180644 0.00699115
0.367347 0.0177621 0.00715317
0.373359 0.0173864 0.00717588
0.367451 0.0174178 0.00727812
0.367203 0.0171186 0.00747643
0.367218 0.0171192 0.00757521
0.367525 0.0186314 0.00694608
0.367413 0.0172562 0.00738952
0.367211 0.0168205 0.00767875
0.373379 0.0179146 0.00714121
0.367383 0.0179009 0.00705696
0.373603 0.0182236 0.00701662
0.367408 0.0180432 0.0069643
0.373534 0.017794 0.00705936
0.367072 0.0166319 0.0078023
0.367277 0.0170639 0.00751576
0.379358 0.0178133 0.00728949
0.373263 0.0173585 0.0072769
0.373209 0.0171338 0.0074397
0.373465 0.0176648 0.00717723
0.367651 0.0178441 0.00697663
0.373464 0.0183173 0.00692711
0.37287 0.0158168 0.00822538
0.367344 0.0175946 0.00725941
0.367578 0.0180097 0.00696428
0.373434 0.0175738 0.00720482
0.367316 0.0176058 0.00714548
0.367521 0.0179508 0.00705484
0.366942 0.0161453 0.00812818
0.367615 0.0176816 0.00708777
0.367542 0.0182713 0.00694933
0.373659 0.0183872 0.00691618
0.367323 0.0175141 0.00731516
0.367029 0.0164697 0.00791093
0.367318 0.0172278 0.00740589
0.36735 0.0170091 0.00755511
0.367561 0.0183693 0.00694671
0.373442 0.0180935 0.00706606
0.373022 0.0163805 0.00783987
0.379431 0.0181771 0.00714049
0.373109 0.0167028 0.00761949
0.367007 0.0163886 0.00796524
0.373043 0.0164611 0.00778477
0.373791 0.0178656 0.00705006
0.373425 0.0181266 0.00697318
0.367179 0.0170441 0.0076305
0.373721 0.0181159 0.00698561
0.367263 0.0166845 0.00777252
0.366964 0.0162264 0.00807387
0.379413 0.0180862 0.00717775
0.367181 0.0170375 0.00753074
0.367506 0.0176576 0.00710658
0.367233 0.0169016 0.00762442
0.367223 0.0171999 0.00742192
0.367559 0.0179118 0.00697109
0.367051 0.0165508 0.00785661
0.367654 0.0179441 0.00696954
0.373264 0.01697 0.00743284
0.373341 0.0172956 0.00721375
0.3676 0.0185655 0.00694369
0.367094 0.016713 0.00774799
0.367484 0.0179775 0.00696584
0.367255 0.0169828 0.00757008
0.361292 0.017496 0.00721083
0.367356 0.017391 0.00729644
0.367138 0.0168752 0.00763936
0.361273 0.0174124 0.00726239
0.36131 0.0175796 0.00715924
0.367598 0.0181076 0.00695746
0.361346 0.017747 0.00705602
0.373569 0.0174731 0.00714022
0.373189 0.0170264 0.00739852
0.367673 0.0180419 0.00696272
0.372849 0.015736 0.00828056
0.215741 0.019982 0.00563384
0.361328 0.0176633 0.00710764
0.367656 0.0184015 0.00694281
0.367488 0.0175779 0.00716415
0.367285 0.0167656 0.0077182
0.367557 0.0178146 0.00699422
0.367583 0.0176046 0.00714303
0.367337 0.0173095 0.00735111
0.36728 0.0174445 0.00725788
0.373572 0.0179428 0.00702365
0.367503 0.0180753 0.00695902
0.367587 0.0178111 0.00710393
0.361383 0.0179144 0.0069528
0.367389 0.0173562 0.00742312
0.367155 0.0168781 0.00773781
0.373216 0.0164291 0.00779806
0.367506 0.0182319 0.00703391
0.367411 0.0178132 0.00709612
0.367422 0.0180971 0.00704745
0.367411 0.0176317 0.00712591
0.367506 0.0185333 0.00694759
0.367333 0.0176807 0.00720965
0.367243 0.0172813 0.00736731
0.367389 0.0179451 0.00696741
0.367637 0.0183034 0.00694432
0.36724 0.0172874 0.0074671
0.373352 0.017628 0.00718878
0.404182 0.0211142 0.0056569
0.361421 0.0181105 0.0069607
0.367352 0.017766 0.00703099
0.361402 0.0180124 0.00695667
0.361365 0.0178307 0.00700443
0.367432 0.0173377 0.00733486
0.367116 0.0167941 0.00769367
0.367262 0.0173629 0.00731264
0.373597 0.018037 0.00700109
0.367488 0.0177594 0.00713387
0.367429 0.0177117 0.00706869
0.367304 0.017433 0.00737029
0.367522 0.0181732 0.00695221
0.373383 0.0179191 0.00702332
0.367159 0.0169564 0.00758505
0.367393 0.0171747 0.00744418
0.373413 0.0173872 0.00726028
0.373228 0.0171885 0.00728795
0.367462 0.0177884 0.00701372
0.373304 0.0175364 0.00711574

VERTICES 277 554
1 0
1 1
1 2
1 3
1 4
1 5
1 6
1 7
1 8
1 9
1 10
1 11
1 12
1 13
1 14
1 15
1 16
1 17
1 18
1 19
1 20
1 21
1 22
1 23
1 24
1 25
1 26
1 27
1 28
1 29
1 30
1 31
1 32
1 33
1 34
1 35
1 36
1 37
1 38
1 39
1 40
1 41
1 42
1 43
1 44
1 45
1 46
1 47
1 48
1 49
1 50
1 51
1 52
1 53
1 54
1 55
1 56
1 57
1 58
1 59
1 60
1 61
1 62
1 63
1 64
1 65
1 66
1 67
1 68
1 69
1 70
1 71
1 72
1 73
1 74
1 75
1 76
1 77
1 78
1 79
1 80
1 81
1 82
1 83
1 84
1 85
1 86
1 87
1 88
1 89
1 90
1 91
1 92
1 93
1 94
1 95
1 96
1 97
1 98
1 99
1 100
1 101
1 102
1 103
1 104
1 105
1 106
1 107
1 108
1 109
1 110
1 111
1 112
1 113
1 114
1 115
1 116
1 117
1 118
1 119
1 120
1 121
1 122
1 123
1 124
1 125
1 126
1 127
1 128
1 129
1 130
1 131
1 132
1 133
1 134
1 135
1 136
1 137
1 138
1 139
1 140
1 141
1 142
1 143
1 144
1 145
1 146
1 147
1 148
1 149
1 150
1 151
1 152
1 153
1 154
1 155
1 156
1 157
1 158
1 159
1 160
1 161
1 162
1 163
1 164
1 165
1 166
1 167
1 168
1 169
1 170
1 171
1 172
1 173
1 174
1 175
1 176
1 177
1 178
1 179
1 180
1 181
1 182
1 183
1 184
1 185
1 186
1 187
1 188
1 189
1 190
1 191
1 192
1 193
1 194
1 195
1 196
1 197
1 198
1 199
1 200
1 201
1 202
1 203
1 204
1 205
1 206
1 207
1 208
1 209
1 210
1 211
1 212
1 213
1 214
1 215
1 216
1 217
1 218
1 219
1 220
1 221
1 222
1 223
1 224
1 225
1 226
1 227
1 228
1 229
1 230
1 231
1 232
1 233
1 234
1 235
1 236
1 237
1 238
1 239
1 240
1 241
1 242
1 243
1 244
1 245
1 246
1 247
1 248
1 249
1 250
1 251
1 252
1 253
1 254
1 255
1 256
1 257
1 258
1 259
1 260
1 261
1 262
1 263
1 264
1 265
1 266
1 267
1 268
1 269
1 270
1 271
1 272
1 273
1 274
1 275
1 276

POINT_DATA 277
SCALARS id int 1
LOOKUP_TABLE default
1
2
3
4
5
6
8
9
10
11
12
13
14
15
16
18
19
20
21
22
24
25
26
27
29
30
31
32
33
34
35
36
38
40
41
42
43
44
45
46
47
48
49
50
52
55
56
57
58
59
60
61
62
63
64
65
66
67
68
69
70
71
72
73
74
75
76
77
78
79
80
81
82
83
84
85
86
87
88
89
90
91
92
93
94
95
96
98
99
100
101
102
103
104
105
106
107
108
109
110
111
113
114
115
116
117
118
119
120
121
122
123
124
125
126
127
128
129
130
131
132
133
134
135
136
137
138
139
140
141
142
144
145
146
147
148
149
150
152
153
154
155
156
157
158
159
160
161
162
164
165
166
167
168
169
170
171
172
173
174
175
176
177
178
179
180
181
182
183
184
185
186
187
188
189
191
192
193
194
195
196
197
198
199
200
201
202
203
204
205
206
207
208
210
211
213
214
215
217
218
220
221
222
223
224
225
226
227
228
229
230
231
232
233
234
235
236
237
238
239
241
242
243
244
245
246
247
248
249
250
251
252
253
254
255
256
257
258
259
260
261
262
263
264
265
267
268
269
270
271
272
273
274
275
276
277
278
279
280
281
282
283
284
285
286
287
288
289
290
292
293
294
295
296
297
298
300

SCALARS type int 1
LOOKUP_TABLE default
1
1
1
1
1
1
1
1
1
1
1
1
1
1
1
1
1
1
1
1
1
1
1
1
1
1
1
1
1
1
1
1
1
1
1
1
1
1
1
1
1
1
1
1
1
1
1
1
1
1
1
1
1
1
1
1
1
1
1
1
1
1
1
1
1
1
1
1
1
1
1
1
1
1
1
1
1
1
1
1
1
1
1
1
1
1
1
1
1
1
1
1
1
1
1
1
1
1
1
1
1
1
1
1
1
1
1
1
1
1
1
1
1
1
1
1
1
1
1
1
1
1
1
1
1
1
1
1
1
1
1
1
1
1
1
1
1
1
1
1
1
1
1
1
1
1
1
1
1
1
1
1
1
1
1
1
1
1
1
1
1
1
1
1
1
1
1
1
1
1
1
1
1
1
1
1
1
1
1
1
1
1
1
1
1
1
1
1
1
1
1
1
1
1
1
1
1
1
1
1
1
1
1
1
1
1
1
1
1
1
1
1
1
1
1
1
1
1
1
1
1
1
1
1
1
1
1
1
1
1
1
1
1
1
1
1
1
1
1
1
1
1
1
1
1
1
1
1
1
1
1
1
1
1
1
1
1
1
1
1
1
1
1
1
1
1
1
1
1
1
1
1
1
1
1
1
1

SCALARS radius float 1
LOOKUP_TABLE default
5e-05
5e-05
5e-05
5e-05
5e-05
5e-05
5e-05
5e-05
5e-05
5e-05
5e-05
5e-05
5e-05
5e-05
5e-05
5e-05
5e-05
5e-05
5e-05
5e-05
5e-05
5e-05
5e-05
5e-05
5e-05
5e-05
5e-05
5e-05
5e-05
5e-05
5e-05
5e-05
5e-05
5e-05
5e-05
5e-05
5e-05
5e-05
5e-05
5e-05
5e-05
5e-05
5e-05
5e-05
5e-05
5e-05
5e-05
5e-05
5e-05
5e-05
5e-05
5e-05
5e-05
5e-05
5e-05
5e-05
5e-05
5e-05
5e-05
5e-05
5e-05
5e-05
5e-05
5e-05
5e-05
5e-05
5e-05
5e-05
5e-05
5e-05
5e-05
5e-05
5e-05
5e-05
5e-05
5e-05
5e-05
5e-05
5e-05
5e-05
5e-05
5e-05
5e-05
5e-05
5e-05
5e-05
5e-05
5e-05
5e-05
5e-05
5e-05
5e-05
5e-05
5e-05
5e-05
5e-05
5e-05
5e-05
5e-05
5e-05
5e-05
5e-05
5e-05
5e-05
5e-05
5e-05
5e-05
5e-05
5e-05
5e-05
5e-05
5e-05
5e-05
5e-05
5e-05
5e-05
5e-05
5e-05
5e-05
5e-05
5e-05
5e-05
5e-05
5e-05
5e-05
5e-05
5e-05
5e-05
5e-05
5e-05
5e-05
5e-05
5e-05
5e-05
5e-05
5e-05
5e-05
5e-05
5e-05
5e-05
5e-05
5e-05
5e-05
5e-05
5e-05
5e-05
5e-05
5e-05
5e-05
5e-05
5e-05
5e-05
5e-05
5e-05
5e-05
5e-05
5e-05
5e-05
5e-05
5e-05
5e-05
5e-05
5e-05
5e-05
5e-05
5e-05
5e-05
5e-05
5e-05
5e-05
5e-05
5e-05
5e-05
5e-05
5e-05
5e-05
5e-05
5e-05
5e-05
5e-05
5e-05
5e-05
5e-05
5e-05
5e-05
5e-05
5e-05
5e-05
5e-05
5e-05
5e-05
5e-05
5e-05
5e-05
5e-05
5e-05
5e-05
5e-05
5e-05
5e-05
5e-05
5e-05
5e-05
5e-05
5e-05
5e-05
5e-05
5e-05
5e-05
5e-05
5e-05
5e-05
5e-05
5e-05
5e-05
5e-05
5e-05
5e-05
5e-05
5e-05
5e-05
5e-05
5e-05
5e-05
5e-05
5e-05
5e-05
5e-05
5e-05
5e-05
5e-05
5e-05
5e-05
5e-05
5e-05
5e-05
5e-05
5e-05
5e-05
5e-05
5e-05
5e-05
5e-05
5e-05
5e-05
5e-05
5e-05
5e-05
5e-05
5e-05
5e-05
5e-05
5e-05
5e-05
5e-05
5e-05
5e-05
5e-05
5e-05
5e-05
5e-05
5e-05
5e-05
5e-05
5e-05
5e-05
5e-05
5e-05
5e-05
5e-05
5e-05
5e-05
5e-05
5e-05
5e-05
5e-05
5e-05

SCALARS mass float 1
LOOKUP_TABLE default
1.46608e-10
1.46608e-10
1.46608e-10
1.46608e-10
1.46608e-10
1.46608e-10
1.46608e-10
1.46608e-10
1.46608e-10
1.46608e-10
1.46608e-10
1.46608e-10
1.46608e-10
1.46608e-10
1.46608e-10
1.46608e-10
1.46608e-10
1.46608e-10
1.46608e-10
1.46608e-10
1.46608e-10
1.46608e-10
1.46608e-10
1.46608e-10
1.46608e-10
1.46608e-10
1.46608e-10
1.46608e-10
1.46608e-10
1.46608e-10
1.46608e-10
1.46608e-10
1.46608e-10
1.46608e-10
1.46608e-10
1.46608e-10
1.46608e-10
1.46608e-10
1.46608e-10
1.46608e-10
1.46608e-10
1.46608e-10
1.46608e-10
1.46608e-10
1.46608e-10
1.46608e-10
1.46608e-10
1.46608e-10
1.46608e-10
1.46608e-10
1.46608e-10
1.46608e-10
1.46608e-10
1.46608e-10
1.46608e-10
1.46608e-10
1.46608e-10
1.46608e-10
1.46608e-10
1.46608e-10
1.46608e-10
1.46608e-10
1.46608e-10
1.46608e-10
1.46608e-10
1.46608e-10
1.46608e-10
1.46608e-10
1.46608e-10
1.46608e-10
1.46608e-10
1.46608e-10
1.46608e-10
1.46608e-10
1.46608e-10
1.46608e-10
1.46608e-10
1.46608e-10
1.46608e-10
1.46608e-10
1.46608e-10
1.46608e-10
1.46608e-10
1.46608e-10
1.46608e-10
1.46608e-10
1.46608e-10
1.46608e-10
1.46608e-10
1.46608e-10
1.46608e-10
1.46608e-10
1.46608e-10
1.46608e-10
1.46608e-10
1.46608e-10
1.46608e-10
1.46608e-10
1.46608e-10
1.46608e-10
1.46608e-10
1.46608e-10
1.46608e-10
1.46608e-10
1.46608e-10
1.46608e-10
1.46608e-10
1.46608e-10
1.46608e-10
1.46608e-10
1.46608e-10
1.46608e-10
1.46608e-10
1.46608e-10
1.46608e-10
1.46608e-10
1.46608e-10
1.46608e-10
1.46608e-10
1.46608e-10
1.46608e-10
1.46608e-10
1.46608e-10
1.46608e-10
1.46608e-10
1.46608e-10
1.46608e-10
1.46608e-10
1.46608e-10
1.46608e-10
1.46608e-10
1.46608e-10
1.46608e-10
1.46608e-10
1.46608e-10
1.46608e-10
1.46608e-10
1.46608e-10
1.46608e-10
1.46608e-10
1.46608e-10
1.46608e-10
1.46608e-10
1.46608e-10
1.46608e-10
1.46608e-10
1.46608e-10
1.46608e-10
1.46608e-10
1.46608e-10
1.46608e-10
1.46608e-10
1.46608e-10
1.46608e-10
1.46608e-10
1.46608e-10
1.46608e-10
1.46608e-10
1.46608e-10
1.46608e-10
1.46608e-10
1.46608e-10
1.46608e-10
1.46608e-10
1.46608e-10
1.46608e-10
1.46608e-10
1.46608e-10
1.46608e-10
1.46608e-10
1.46608e-10
1.46608e-10
1.46608e-10
1.46608e-10
1.46608e-10
1.46608e-10
1.46608e-10
1.46608e-10
1.46608e-10
1.46608e-10
1.46608e-10
1.46608e-10
1.46608e-10
1.46608e-10
1.46608e-10
1.46608e-10
1.46608e-10
1.46608e-10
1.46608e-10
1.46608e-10
1.46608e-10
1.46608e-10
1.46608e-10
1.46608e-10
1.46608e-10
1.46608e-10
1.46608e-10
1.46608e-10
1.46608e-10
1.46608e-10
1.46608e-10
1.46608e-10
1.46608e-10
1.46608e-10
1.46608e-10
1.46608e-10
1.46608e-10
1.46608e-10
1.46608e-10
1.46608e-10
1.46608e-10
1.46608e-10
1.46608e-10
1.46608e-10
1.46608e-10
1.46608e-10
1.46608e-10
1.46608e-10
1.46608e-10
1.46608e-10
1.46608e-10
1.46608e-10
1.46608e-10
1.46608e-10
1.46608e-10
1.46608e-10
1.46608e-10
1.46608e-10
1.46608e-10
1.46608e-10
1.46608e-10
1.46608e-10
1.46608e-10
1.46608e-10
1.46608e-10
1.46608e-10
1.46608e-10
1.46608e-10
1.46608e-10
1.46608e-10
1.46608e-10
1.46608e-10
1.46608e-10
1.46608e-10
1.46608e-10
1.46608e-10
1.46608e-10
1.46608e-10
1.46608e-10
1.46608e-10
1.46608e-10
1.46608e-10
1.46608e-10
1.46608e-10
1.46608e-10
1.46608e-10
1.46608e-10
1.46608e-10
1.46608e-10
1.46608e-10
1.46608e-10
1.46608e-10
1.46608e-10
1.46608e-10
1.46608e-10
1.46608e-10
1.46608e-10
1.46608e-10
1.46608e-10
1.46608e-10
1.46608e-10
1.46608e-10
1.46608e-10
1.46608e-10
1.46608e-10
1.46608e-10
1.46608e-10

VECTORS velocity float
0.00441213 -0.000168309 -6.09133e-05
0.0043946 -1.58974e-05 0.000144478
0.00446599 -1.3984e-05 0.000146792
0.00443065 -0.000115802 -0.000121819
0.00444218 4.09116e-05 0.000166808
0.00466511 -0.000369372 0.000638365
0.00442302 -0.000137306 5.67815e-05
0.00441308 -0.000314585 0.000588952
0.00444517 -5.43987e-05 0.000158359
0.00483766 -0.000229126 -7.63769e-05
0.0044539 -0.000321361 0.000595973
0.00445752 -8.77749e-05 -0.000118067
0.00441834 -9.13484e-05 5.75382e-05
0.00444113 -4.89373e-05 0.000157653
0.00445432 -1.28443e-05 0.000171756
0.00424384 -0.000328253 0.000578456
0.00442133 -5.8885e-05 0.000167071
0.00439941 -0.000120031 -0.000130286
0.00443968 0.000193605 0.000289467
0.00447038 -6.89614e-05 0.000164907
0.00449487 -0.000337362 0.000607102
0.00445743 -2.93112e-05 0.000154499
0.00455741 -0.000355422 0.00062128
0.00469806 -3.90935e-05 0.000170138
0.00442666 -2.02053e-05 0.000156535
0.00468736 -0.000370736 0.000641181
0.00439179 -3.25917e-05 0.000155392
0.00442367 -5.33156e-05 0.000159179
0.00464297 -0.000369017 0.000635961
0.00437728 -6.7972e-05 0.000164242
0.00444115 -3.11816e-05 0.000154145
0.00498102 -0.00043399 0.000699356
0.00438113 -9.42473e-06 0.000146726
0.00484434 -0.000229342 -7.6421e-05
0.00441919 -2.45611e-05 0.000150792
0.00442473 -2.92229e-05 0.000150533
0.00439935 -4.10272e-05 0.000155951
0.00441488 -0.000149943 -0.000118235
0.00462106 -0.000368198 0.00063333
0.00453667 -0.000349499 0.000616625
0.00481376 -0.000230126 -7.57742e-05
0.00441739 -0.000145181 -0.000115422
0.00457826 -0.000361188 0.000625935
0.00448257 -4.56719e-05 0.000154526
0.00434314 -0.000116643 2.92516e-05
0.00430066 -5.91049e-05 9.56147e-05
0.00445132 7.47313e-06 0.000146986
0.00459955 -0.000365494 0.00062996
0.00468343 -3.00326e-05 0.000163358
0.00447512 -0.000329456 0.000601672
0.0044341 -3.40468e-05 0.000154188
0.00446076 -0.000244976 -0.000234562
0.00481898 -0.000224444 -7.85406e-05
0.00448495 -5.66151e-05 0.000142501
0.00451588 -0.000343612 0.000611934
0.0048192 -0.000223459 -7.95821e-05
0.00440307 -0.000136634 -0.000101767
0.00444856 -2.99458e-05 0.000153834
0.0046978 -5.15583e-05 0.000178269
0.00444439 -0.000150946 -0.000109804
0.00420589 -0.000331405 0.000574063
0.00468725 -2.53512e-05 0.000160328
0.00443386 -0.00031543 0.000591375
0.00480521 -0.000216427 -8.31508e-05
0.00482403 -0.000228955 -7.57115e-05
0.00438807 -1.7341e-05 0.000149596
0.00418551 -0.000322508 0.000566215
0.00435961 -7.90672e-05 0.000163469
0.00472481 -4.12206e-05 0.000172219
1.64364e-18 5.25099e-20 -1.25496e-15
0.00436903 1.0019e-06 0.000143411
0.00442282 -0.000126864 5.89407e-05
0.00418114 -9.54708e-05 1.27162e-05
0.0047202 -4.07227e-05 0.000171739
0.00437362 -0.000314618 0.000585565
0.00469092 -2.7e-05 0.000161545
0.00444074 -4.7741e-05 0.000160336
0.00438673 -0.000318189 0.000587934
0.00444222 -0.000150898 -0.000109953
0.00449269 -4.28579e-05 0.000157867
0.00483028 -0.000228363 -7.64438e-05
0.00482161 -0.000226981 -7.67324e-05
0.00446156 -9.20834e-05 2.02268e-05
0.00443359 -0.000145969 -0.000111234
0.00443749 -0.000145926 -0.000113136
0.0043808 -3.81845e-05 0.000154377
0.00440183 -2.29097e-05 0.000150414
0.00442805 -7.8648e-06 0.000148462
0.00436644 -0.000118662 3.02371e-05
0.00443758 -1.59877e-05 0.000150235
0.00429046 -9.64921e-05 1.21531e-05
0.00446052 -2.62991e-05 0.000153947
0.00441165 -2.31294e-05 0.000155411
0.00471102 0.000142436 4.95752e-05
0.00429254 -9.27324e-05 3.74086e-05
0.0045246 -3.16414e-05 0.000164412
0.00473421 -4.16051e-05 0.000172767
0.00435572 1.29375e-06 0.000143066
0.00447834 -3.61885e-05 0.000157898
0.00435689 -4.51341e-05 0.000155001
0.00481023 -0.00023387 -7.36354e-05
0.00438588 -3.44789e-05 0.000153048
0.00467674 -4.19249e-05 0.00017127
0.00453439 -0.000130759 -0.000128521
0.00440933 -0.000113397 -0.000132016
0.00481894 -0.000216695 -8.36538e-05
0.00439301 -0.000139555 -0.000169274
0.00470851 -0.000373301 0.000644554
0.00449934 -2.97818e-05 0.000154973
0.00441096 -0.000151555 -0.000109518
0.00480208 -0.000226017 -7.67188e-05
0.00443058 -0.000108413 4.07389e-05
0.00438325 -3.40624e-05 0.000152223
0.00443435 -2.71122e-05 0.00015287
0.00484232 -0.000227047 -7.78583e-05
0.00471569 -3.98131e-05 0.000170986
0.00444343 -6.99688e-05 4.89264e-05
0.00470265 -3.53075e-05 0.000167532
0.0048237 -0.000234957 -6.67007e-05
0.00441611 -0.000126456 4.69336e-05
0.00452395 -5.5768e-05 0.000134084
0.00443109 -0.000147699 -0.000112052
0.00441469 -0.000135665 -0.00011389
0.00480619 -0.000230004 -7.42052e-05
0.00438318 -0.000129199 4.95808e-05
0.00440912 -0.000128897 -0.000131614
0.00443508 -0.000153773 -0.000107407
0.00441687 -0.000146273 -0.000111842
0.00444572 -1.32425e-05 0.000149742
0.00441 -9.9909e-05 4.33732e-05
0.00481879 -0.000234895 -6.8164e-05
0.00436199 -6.38757e-06 0.000144119
0.00444069 -0.000145574 -0.000112866
0.0048119 -0.000220228 -8.11057e-05
0.0047295 -4.14284e-05 0.000172503
0.00438304 -2.10874e-05 0.000146574
0.00442881 -0.000156795 -0.000105378
0.00481512 -0.000212069 -8.66782e-05
0.0046318 0.000114781 7.41338e-05
0.00436749 -5.8997e-05 0.000142618
0.00466611 -6.0492e-05 0.00019715
0.0046946 -2.64842e-05 0.000161313
0.00441374 -0.000130805 1.2945e-05
0.00447503 -5.45895e-05 0.000161686
0.00441126 -0.000120949 4.36978e-05
0.00444929 1.61577e-05 0.000141763
0.00422756 -0.00014855 -9.33418e-05
0.00443542 -0.000156926 -0.000105548
0.00439057 -0.000146142 -0.000168503
0.0044571 -0.000185158 -8.77374e-05
0.00439907 -0.000152843 4.92948e-05
0.00442898 -0.000149588 -0.000110345
0.00440387 -0.000115642 4.24775e-05
0.00440027 -2.13159e-05 0.000150329
0.00441096 -0.000130499 4.29982e-05
0.00440005 -0.000134256 4.31971e-05
0.00438885 -1.67337e-05 0.000148363
0.00429393 -8.59057e-05 -3.05948e-05
0.00446483 -7.30282e-05 5.80411e-05
0.00431874 -8.02486e-05 3.48678e-05
0.00465515 -7.55299e-05 0.000196709
0.00465607 -5.83792e-05 0.000200883
0.00436729 -0.000146353 -0.000167602
0.00436299 -1.89535e-05 0.000147203
0.00466874 -4.55095e-05 0.000173871
0.00430107 -5.14214e-05 0.00011863
0.00440261 -0.000103233 3.50371e-05
0.00444469 1.60823e-05 0.000143499
0.00441028 -9.65932e-05 7.73e-06
0.00439501 -2.84869e-05 0.000152161
0.00468361 -3.53147e-05 0.000166919
0.00465931 -7.46938e-05 0.000194017
0.00484248 -0.000415695 0.000675767
0.0044287 -0.000120577 -0.000111957
0.0045326 -0.000150875 -0.000123359
0.00445057 -2.46859e-05 0.000159757
0.00437325 -0.000121994 3.85362e-05
0.00444833 1.11228e-05 0.000143469
0.00481433 -0.000234226 -7.27205e-05
0.00438806 -6.39319e-05 8.21684e-06
0.00441938 -0.000119279 4.39611e-05
0.00448893 -3.30362e-05 0.000152418
0.00430029 -0.000109541 3.49702e-05
0.00439654 -0.000129119 5.05648e-05
0.0047113 -3.84947e-05 0.000169957
0.00427175 -0.000106325 2.10428e-05
0.00440173 -0.0001385 -0.000130254
0.00443645 -4.26563e-05 0.000157147
0.00431141 -5.86383e-06 6.61516e-05
0.00469377 -3.31434e-05 0.000165788
0.00436125 -3.17264e-05 0.000152063
0.00467911 -5.35042e-05 0.000178971
0.00439892 -0.000144849 -0.000169432
0.00440035 -2.5972e-05 0.000157332
0.00481007 -0.00021904 -8.20271e-05
0.00435363 -0.00035117 0.000598556
0.0048161 -0.000230316 -7.44519e-05
0.00469824 -3.39674e-05 0.000166489
0.00480752 -0.000218353 -8.21807e-05
0.00440225 -2.49898e-05 0.000148672
0.0043837 -4.28817e-05 0.000155152
0.00464799 -6.8271e-05 0.000193164
0.00443494 -2.15272e-05 0.000152049
0.00468547 -2.80494e-05 0.000162085
0.00470699 -3.69038e-05 0.000168746
0.00429982 -0.000336322 0.000588802
0.00465802 -7.23871e-05 0.000193475
0.00424754 -0.000110945 -3.48173e-05
0.00467296 -5.86079e-05 0.000183006
0.00442457 -6.50076e-05 0.000177614
0.00440611 -0.000112972 4.27757e-05
0.00468897 -3.31696e-05 0.000165666
0.00440415 -0.00012532 4.44552e-05
0.00443844 -0.000143942 -0.000114229
0.00442849 -0.000120176 -6.73187e-05
0.00437246 -0.000147732 -0.000167314
0.00467692 -4.00041e-05 0.000169906
0.00441092 -0.000107849 4.54744e-05
0.00466712 -7.20354e-05 0.000193079
0.00446709 0.000208426 -6.82759e-05
0.00432307 -3.86157e-05 0.00015523
0.00466257 -5.66678e-05 0.000181096
0.00443426 0.000214219 -7.22114e-05
0.00437591 0.00022212 -7.7904e-05
0.00442224 -0.000121406 4.37353e-05
0.00444059 0.000211586 -7.05705e-05
0.00448538 -3.04053e-05 0.000157371
0.004512 -0.000116136 -0.000137416
0.00441465 -0.000130627 4.37413e-05
0.00467532 -0.000215719 -0.000105352
6.8038e-15 2.29888e-14 -7.03249e-14
0.00440863 0.000216668 -7.41054e-05
0.0044014 -0.000144829 -0.000167735
0.00420695 -0.00015261 -0.000108913
0.00467752 -3.57497e-05 0.00016719
0.00437332 -0.000107778 3.64353e-05
0.00423592 -9.72955e-05 1.40399e-05
0.00436368 -4.38699e-05 0.000160064
0.00434153 -7.08739e-05 0.000184186
0.00438518 -5.19504e-05 0.000155517
0.00442737 -0.000117651 4.61547e-05
0.00438318 -0.000128995 4.13173e-05
0.00450624 0.000201939 -6.35677e-05
0.00430696 6.84328e-06 0.000132463
0.00467073 -4.51977e-05 0.000178366
0.0048154 -0.000224523 -7.83406e-05
0.00454113 -0.000140789 -8.41214e-05
0.00436151 -0.000101035 3.4403e-05
0.00443801 -0.000154862 4.91892e-05
0.00429895 -0.00010687 2.06932e-05
0.00438068 -0.000143736 -0.000168105
0.00436145 -7.87869e-05 -3.35967e-06
0.00434045 -5.3543e-05 0.000169435
0.00442251 -9.26411e-05 4.40068e-05
0.00439872 -0.000160646 -0.000168534
0.00432735 -3.39121e-05 0.000157918
0.00448264 -7.62594e-05 0.000161187
-1.28981e-14 6.08918e-14 -1.90219e-13
0.00449704 0.000204756 -6.2095e-05
0.00438914 -0.000116921 2.81472e-05
0.00449949 0.000203914 -6.23067e-05
0.00447336 0.000206677 -6.69958e-05
0.00434557 -1.60057e-05 0.00014344
0.00467081 -4.80967e-05 0.000175484
0.0043016 -1.69017e-05 0.00015542
0.00438767 1.04817e-05 0.000141827
0.00430973 -6.11947e-05 5.04229e-06
0.00432962 -0.000105297 2.21043e-05
0.00424869 7.76568e-05 3.65397e-05
0.00441999 -0.000122993 4.32199e-05
0.00437444 -4.1838e-05 0.000154788
0.00465976 -6.56549e-05 0.000189122
0.00431439 -1.88428e-05 0.000144172
0.00459935 -0.00015005 -4.26882e-05
0.00456639 -0.000139084 -0.000122078
0.00437813 -0.000107719 3.86474e-05
0.00447423 -2.01648e-05 0.00015441

VECTORS force float
9.99344e-11 -1.3634e-10 4.91919e-11
1.98902e-10 -1.67078e-10 6.79558e-11
-4.51293e-11 2.61736e-11 -1.60718e-11
8.46418e-11 2.12943e-12 7.24343e-12
4.30719e-11 -4.37398e-11 -4.05978e-10
-1.01046e-11 -3.53732e-11 1.41365e-11
9.2348e-11 1.88695e-10 -3.62218e-10
-2.62042e-11 -6.11812e-11 2.59271e-11
-2.84578e-11 5.5543e-12 -8.75972e-12
-4.55791e-12 4.61895e-11 -3.11032e-11
1.24386e-12 3.78354e-11 -1.65463e-11
-8.23447e-12 -6.22347e-12 1.25803e-11
-1.51346e-10 9.14687e-11 -1.25576e-10
1.5949e-11 1.06434e-11 -8.64121e-12
-6.59405e-11 -1.28691e-10 1.67381e-10
5.67636e-11 -1.49843e-11 -8.01494e-12
3.87785e-11 -4.60539e-11 4.8365e-11
-1.37443e-10 -9.99209e-11 -1.05533e-11
6.19478e-11 8.64257e-11 -2.19136e-10
-8.90545e-12 -8.04483e-11 3.63766e-11
1.10784e-11 3.83103e-11 -1.55098e-11
5.49692e-12 -3.5645e-11 3.87335e-11
-4.59541e-13 1.93519e-11 -8.4889e-12
1.40321e-10 -3.51892e-11 2.73157e-11
7.10167e-11 -1.01747e-10 2.93444e-11
-4.19873e-12 -1.67869e-11 6.40257e-12
1.23349e-10 -3.48159e-11 3.44724e-11
-1.07817e-10 -5.01822e-11 8.64931e-12
-1.1073e-11 -4.51649e-11 1.8375e-11
5.11187e-11 -1.05503e-12 9.01737e-11
3.10376e-12 1.21897e-11 -5.76404e-13
-2.83566e-11 3.41002e-11 -3.56419e-11
1.20103e-10 4.02143e-11 -1.11387e-11
-2.75879e-11 8.40997e-12 -6.48112e-12
1.91305e-11 -8.55736e-12 1.02435e-11
-1.39777e-10 1.2069e-10 3.36688e-11
5.23472e-11 9.67827e-11 -2.21168e-11
1.26373e-11 -3.95214e-12 2.1149e-11
-3.44018e-12 -3.22109e-11 1.38357e-11
9.25273e-12 2.05162e-11 -7.95457e-12
-5.25776e-11 -2.20776e-11 -3.15512e-12
1.20597e-11 -3.10846e-11 5.48251e-11
8.04855e-12 1.31921e-11 -4.54247e-12
-3.54319e-11 -1.12884e-10 4.06031e-11
-4.66306e-11 -5.33826e-11 3.17066e-11
-7.5872e-11 -2.55397e-10 1.34453e-11
2.86989e-10 3.80292e-11 -6.23618e-12
-8.1576e-12 -1.04591e-11 3.20351e-12
3.63246e-11 -1.46389e-11 1.10218e-11
1.37182e-11 5.49317e-11 -2.21775e-11
3.10282e-11 9.91787e-11 -2.44745e-11
-8.50476e-11 -5.90742e-11 -2.36649e-10
7.45303e-11 7.26788e-12 -7.71058e-12
-2.24076e-11 -2.85171e-11 -8.45253e-11
2.76757e-13 2.18052e-11 -9.15911e-12
-1.85199e-11 6.88105e-11 -3.46827e-11
-2.11322e-11 -1.09676e-11 3.32881e-11
-4.55931e-11 -1.16068e-10 2.36693e-11
1.12837e-10 -7.78623e-11 6.07731e-11
-1.29372e-10 -1.39158e-11 4.35272e-12
1.69509e-11 -3.27742e-11 1.60431e-11
9.55927e-11 1.96506e-11 -1.06542e-11
1.02189e-11 -3.8476e-12 2.87911e-12
-5.4046e-11 6.34685e-11 -4.05465e-11
5.45124e-11 9.21132e-11 -6.0651e-11
1.20219e-10 -1.3102e-10 -1.56408e-11
-5.2529e-11 -3.58941e-11 2.15338e-11
-4.94633e-11 -9.52192e-11 1.36385e-11
1.12201e-11 3.99463e-11 -2.6739e-11
-4.03897e-28 2.22838e-25 0.0
1.89469e-10 1.02393e-11 -8.40712e-12
1.36584e-13 -3.00782e-11 -4.23579e-11
-8.41402e-11 -3.80872e-11 -8.75195e-13
1.30858e-11 4.79435e-11 -3.2084e-11
-7.07578e-11 1.39636e-11 -3.18523e-11
3.42424e-11 3.51664e-11 -2.28657e-11
8.41778e-11 6.82428e-12 1.41564e-11
2.03736e-11 -2.39067e-11 1.28772e-11
-8.3309e-11 -1.41343e-11 1.3714e-11
-3.17328e-11 -8.55299e-11 2.26737e-11
6.55064e-11 1.85742e-11 -1.52364e-11
3.91818e-11 1.2893e-11 -1.73782e-11
-5.37087e-11 -4.08214e-11 2.2531e-11
-9.05451e-11 -3.1444e-11 1.37729e-11
6.13064e-11 -5.52218e-11 3.05571e-11
9.21246e-11 9.74627e-11 -9.96174e-12
1.24599e-10 9.84636e-12 3.05194e-12
1.01879e-10 -1.47471e-10 5.04691e-11
2.83892e-11 4.14437e-11 2.73239e-11
-3.6209e-11 -3.37162e-10 8.90156e-11
3.79255e-12 2.8985e-11 5.37776e-11
2.56985e-11 -7.82688e-11 3.542e-11
-3.16062e-12 6.79632e-11 -6.13289e-11
7.41039e-11 4.43129e-10 -2.31632e-10
5.8467e-11 -2.10776e-10 4.93496e-11
1.25591e-13 -1.38098e-10 1.57382e-11
7.10046e-12 2.45554e-11 -1.64254e-11
2.99755e-10 -2.70276e-13 3.33399e-12
5.56275e-12 3.67584e-11 -4.01927e-11
-2.51411e-11 -8.39409e-11 1.88869e-11
-2.03708e-11 -8.92353e-12 1.94512e-11
-1.14148e-10 4.50639e-11 -1.76457e-12
1.26368e-11 -5.97318e-11 3.93726e-11
-5.32494e-11 3.09823e-11 -5.58961e-12
1.15281e-10 2.53367e-11 -2.22015e-11
-4.29554e-11 9.76181e-11 -5.98143e-11
-3.69224e-11 5.3419e-11 2.2668e-11
-1.817e-12 -1.17145e-11 5.09868e-12
-1.04502e-11 -8.26979e-11 8.48017e-12
8.06612e-13 -4.65967e-11 1.92244e-11
3.87098e-11 9.0888e-11 -6.18414e-11
-2.08638e-10 -1.67832e-10 -6.99658e-11
-7.22454e-11 -7.92336e-11 2.07177e-11
1.49259e-12 1.15479e-10 -3.23995e-11
2.32194e-11 -9.42128e-12 4.18367e-12
1.48715e-11 5.41373e-11 -3.62408e-11
-2.63465e-11 -8.68124e-11 -1.5234e-11
1.44489e-11 5.40255e-11 -3.61589e-11
-6.77099e-11 -1.03809e-10 5.01348e-12
-4.5194e-11 3.59116e-11 3.52186e-12
-1.9014e-10 -1.60743e-10 -6.35383e-11
-1.21078e-10 -2.49955e-11 2.14219e-11
3.61181e-11 -1.28172e-10 9.72003e-11
9.92918e-11 7.7881e-11 -5.76529e-11
4.2279e-13 8.03713e-11 5.54544e-11
4.59859e-11 -1.04663e-10 6.2148e-11
5.56851e-11 5.25012e-11 -3.2583e-11
-2.62125e-10 2.31396e-11 -4.79304e-12
9.29752e-11 -2.72827e-10 8.28307e-11
3.97279e-11 3.75363e-11 1.64681e-11
5.32332e-11 -2.96129e-11 2.43367e-11
2.51681e-10 2.82262e-11 1.43677e-12
-1.88532e-10 -2.39054e-11 4.0681e-11
3.01773e-12 9.18498e-11 -6.11969e-11
8.9372e-12 3.14169e-11 -2.10191e-11
1.60696e-10 -1.51945e-10 5.86478e-11
-7.57936e-11 -2.13515e-11 1.75424e-11
-4.40404e-11 9.35247e-11 -6.46249e-11
1.96852e-10 4.50388e-10 -4.85313e-10
6.17546e-11 4.53693e-11 6.63203e-11
-6.45564e-11 -1.9813e-10 -3.45663e-11
2.71508e-11 4.42127e-11 -2.90685e-11
-2.00617e-11 -6.71961e-13 7.02759e-11
2.86391e-11 -4.71598e-11 -4.47054e-12
-5.59306e-11 1.38717e-10 -4.73154e-11
-2.47814e-11 -1.59691e-10 5.81711e-11
-1.1644e-10 -1.6813e-10 -4.77445e-11
-8.00818e-11 -7.1936e-11 5.3129e-11
-1.19669e-10 6.14266e-11 -1.5404e-11
2.70583e-12 2.27822e-10 -1.58274e-10
1.27089e-10 -1.82319e-10 1.41444e-10
-8.35881e-11 -2.89883e-12 8.75383e-12
-1.64495e-10 6.01084e-12 8.14373e-12
1.31952e-10 2.82265e-12 3.57925e-12
9.98066e-11 1.33523e-10 1.6282e-11
-6.7899e-11 1.13627e-10 1.90503e-11
7.77132e-11 -1.86673e-10 3.43077e-11
1.92975e-10 1.78002e-10 -6.79995e-11
-5.77796e-11 8.71789e-11 5.0136e-11
-9.78152e-11 -2.39038e-10 7.68454e-12
4.25149e-12 -1.7266e-11 3.97071e-11
-4.71881e-11 -1.31779e-10 5.12121e-12
2.29128e-11 1.61432e-10 1.24941e-11
5.34257e-10 -2.21198e-10 2.04618e-10
-1.52849e-11 -6.54163e-11 4.07818e-11
3.0838e-11 2.88355e-11 -1.42067e-11
-1.77257e-10 2.05782e-11 -1.3707e-10
6.54629e-11 -2.93042e-11 6.07138e-11
2.13567e-12 2.79271e-11 -1.52128e-10
1.07177e-10 4.74891e-13 -2.46898e-12
-1.22697e-12 -6.50717e-12 4.57036e-12
1.48205e-10 -6.08303e-11 6.25037e-11
6.55223e-11 1.38507e-11 3.28775e-11
1.12761e-10 -9.8756e-11 8.16029e-11
1.36749e-10 1.53423e-10 -5.14291e-11
2.61755e-11 -1.49707e-10 -2.97579e-11
-1.74241e-10 1.41383e-10 3.79691e-11
-6.71042e-11 -2.29587e-10 4.28857e-11
-1.27609e-10 -6.69656e-11 1.33023e-10
-2.77125e-10 6.98485e-12 1.57679e-10
-3.24394e-11 1.18786e-10 1.40981e-12
-3.72443e-11 -5.44422e-11 2.04867e-10
-1.16464e-10 -1.68325e-10 1.12059e-10
-1.74784e-11 8.27968e-11 3.7368e-11
1.56652e-11 5.7475e-11 -3.84987e-11
-7.82864e-11 -2.83596e-11 3.81588e-11
-6.22295e-11 2.87278e-12 -1.6506e-10
3.03203e-11 8.02367e-11 -2.06256e-11
-7.19969e-11 -3.26181e-10 -3.87066e-12
1.44207e-11 3.68112e-11 -2.43501e-11
4.97401e-10 5.56646e-11 2.38328e-11
2.51717e-10 -1.15036e-10 8.97002e-11
-1.16177e-10 -1.10786e-11 -2.87758e-11
-3.36048e-11 -2.88827e-10 1.7813e-12
-1.03896e-11 7.85029e-11 -4.58835e-11
-8.07942e-12 6.03499e-11 -7.55207e-11
1.31024e-10 8.22763e-11 -6.32064e-11
1.31263e-11 4.76259e-11 -3.20063e-11
3.30629e-12 7.93882e-11 -5.68127e-11
8.52386e-11 9.54999e-11 4.30785e-11
2.36186e-11 -1.2322e-10 3.17087e-11
-9.73018e-13 -1.1765e-10 6.2163e-11
-1.3384e-10 9.011e-11 -3.96733e-11
5.46445e-11 -4.24812e-12 4.3979e-12
1.53498e-11 5.74299e-11 -3.84601e-11
-1.61517e-11 2.48397e-11 2.27227e-11
1.56666e-10 3.02406e-11 -2.51333e-11
-1.43781e-10 9.22605e-11 2.2675e-10
2.80127e-11 -1.00379e-10 5.8547e-11
2.70569e-10 9.64048e-11 -3.23512e-11
-1.36345e-11 8.68428e-11 5.09467e-12
8.74231e-12 2.17915e-11 -1.47119e-11
-2.82611e-11 1.05427e-10 -4.28712e-12
-5.06086e-11 -3.71557e-11 3.64362e-11
-1.14512e-11 1.11258e-10 1.19939e-10
-2.5363e-12 1.53443e-10 1.32306e-12
-1.07516e-11 -4.38271e-11 2.98156e-11
4.38676e-11 7.90691e-11 -2.01662e-11
1.79888e-10 1.11672e-11 7.35781e-12
1.34143e-12 -3.66442e-12 2.55952e-12
-3.19322e-10 3.2302e-10 1.36382e-10
-1.36634e-11 -4.08691e-11 2.5567e-11
-1.89879e-12 -6.35336e-12 3.79589e-12
-2.03288e-12 -1.24621e-12 1.52265e-13
-3.39925e-12 1.11381e-10 1.75303e-12
3.1735e-12 4.52114e-12 -2.79892e-12
8.60095e-12 -1.08028e-10 -9.76891e-12
-1.0772e-11 -8.59627e-12 7.91614e-13
-8.58599e-12 1.34558e-10 -2.03576e-11
-2.43752e-10 1.07312e-10 1.64675e-10
2.6082e-23 2.68834e-24 4.54949e-24
-1.48512e-12 3.41753e-12 -2.07353e-12
-9.97437e-11 -5.53744e-11 -1.60042e-11
-1.93128e-10 2.9657e-11 2.08687e-10
9.75718e-11 -4.13871e-12 4.51659e-12
4.89597e-11 4.93008e-11 3.41538e-12
-6.68356e-11 -9.01683e-12 -2.7068e-12
-3.6821e-10 3.49019e-10 -4.32113e-11
-1.94897e-10 2.79499e-10 -2.7482e-10
-1.93812e-10 1.46971e-10 -3.81414e-11
-5.15142e-12 4.7562e-11 9.30291e-12
2.71867e-11 1.24881e-10 3.99182e-11
1.1455e-11 5.83792e-12 -4.4486e-12
3.81763e-10 -3.28065e-11 1.60353e-10
-8.67346e-12 -9.28837e-11 5.17013e-11
-1.14701e-10 5.59955e-11 -3.15279e-11
-5.26388e-11 -4.03787e-11 -1.43235e-10
1.53095e-10 8.28372e-11 1.18835e-11
2.13571e-11 -1.03257e-10 -9.70467e-11
9.16574e-12 -1.14452e-10 1.01038e-10
5.36004e-12 1.38483e-10 -1.85012e-11
1.72723e-10 2.04395e-10 1.51796e-12
-6.55025e-10 1.03929e-10 7.57529e-11
-5.15207e-11 -5.12888e-11 -1.20709e-10
-1.04995e-10 2.33763e-11 -4.84652e-11
-2.60975e-11 -1.2092e-10 1.32328e-10
-5.26951e-11 -2.24951e-11 6.56903e-11
-1.1861e-21 -2.74469e-22 -5.58347e-24
-5.68034e-13 -2.42041e-12 3.08625e-12
3.11841e-11 1.00533e-10 -1.10252e-12
-3.77397e-11 1.07868e-11 3.48904e-12
-3.09368e-12 6.13841e-12 -2.735e-12
1.63474e-10 -1.81771e-10 2.35891e-11
-2.0727e-11 -6.45137e-11 4.03197e-11
-3.98682e-10 -2.85349e-10 -1.72322e-10
1.09129e-10 5.59418e-11 -5.03423e-13
-7.02887e-12 -1.37091e-10 1.30923e-10
-6.07719e-11 -3.77467e-11 4.6131e-11
-2.18705e-10 -7.84749e-11 1.00948e-10
-2.53816e-11 5.90909e-11 -3.44526e-11
8.86037e-11 2.63451e-10 -5.06653e-11
5.72865e-11 7.59831e-12 -1.56652e-11
4.56065e-10 -2.56864e-10 1.90445e-10
-5.44906e-11 -5.09285e-11 3.84366e-11
1.63169e-11 5.26859e-11 -4.39561e-11
9.7778e-11 5.7773e-12 3.89221e-11
3.65956e-11 1.39948e-10 -4.76437e-11
