# vtk DataFile Version 3.0
LIGGGHTS particles timestep 51200000
ASCII
DATASET POLYDATA
POINTS 283 float
0.247423 0.0164394 0.00798051
0.247721 0.0174442 0.00727782
0.247821 0.0180714 0.00702778
0.247802 0.0179733 0.00702653
0.247067 0.0151503 0.00901988
0.253517 0.0167293 0.00763893
0.247206 0.0156846 0.00858985
0.247047 0.0150834 0.00909166
0.253761 0.0177707 0.007097
0.248113 0.018178 0.0070163
0.247606 0.0167637 0.00771078
0.253723 0.0175941 0.00718293
0.248107 0.0177176 0.00702532
0.24105 0.0152238 0.00917685
0.248128 0.0178146 0.00700759
0.241321 0.0161532 0.00835731
0.253874 0.0183171 0.00689965
0.247744 0.017679 0.00702412
0.247824 0.0172443 0.00731584
0.247086 0.0152268 0.00895837
0.24786 0.0182675 0.00703025
0.253684 0.0174178 0.00726879
0.247973 0.0175089 0.00712163
0.253624 0.0171536 0.00739754
0.241284 0.0158603 0.00861402
0.247709 0.0175122 0.00712858
0.253496 0.0166458 0.0076895
0.247943 0.0182115 0.00702509
0.248069 0.0175397 0.00711166
0.253539 0.0168127 0.00758836
0.247745 0.0176124 0.00717438
0.248149 0.0179151 0.00700878
0.253818 0.0180359 0.00696884
0.247186 0.0156084 0.00865117
0.248013 0.017685 0.00703625
0.247229 0.0157603 0.00852859
0.247766 0.0173763 0.00721945
0.247901 0.0171905 0.00735126
0.247923 0.0181135 0.00702386
0.247802 0.0175326 0.00710026
0.253561 0.0168962 0.00753779
0.253644 0.0172415 0.00735465
0.247124 0.0153798 0.00883537
0.247806 0.0171676 0.00737743
0.253603 0.0170655 0.00744044
0.247917 0.0176537 0.00704643
0.241926 0.0184424 0.00713084
0.241911 0.0176019 0.00708061
0.248093 0.0180798 0.00701505
0.253582 0.0169797 0.00748722
0.241527 0.0165446 0.00801423
0.253704 0.0175059 0.00722587
0.247909 0.0177183 0.00712281
0.247105 0.0153033 0.00889687
0.247682 0.0167089 0.00774706
0.247865 0.0178192 0.00702697
0.253664 0.0173297 0.0073117
0.247475 0.0163079 0.00807878
0.242076 0.0180117 0.00703464
0.248168 0.018014 0.00701004
0.241586 0.0164228 0.00811363
0.247768 0.0170146 0.00750043
0.253947 0.0181824 0.00689976
0.24157 0.0166886 0.00788218
0.253743 0.0176823 0.00713999
0.247143 0.0154562 0.00877388
0.247552 0.0168956 0.00761292
0.247164 0.0155325 0.00871247
0.253854 0.018219 0.00689755
0.247899 0.0184637 0.00703271
0.241112 0.0154439 0.00898281
0.241354 0.0159563 0.00852803
0.247784 0.017454 0.00715938
0.242115 0.0182078 0.00704105
0.241651 0.0166427 0.00791965
0.241134 0.0155172 0.0089182
0.253798 0.0179474 0.00701105
0.241505 0.0164689 0.00807593
0.247904 0.0180153 0.00702261
0.25378 0.017859 0.00705403
0.247703 0.0167864 0.00768456
0.247896 0.0175658 0.00708899
0.247627 0.0168404 0.00764905
0.247497 0.0163838 0.00801751
0.247865 0.0170371 0.00747438
0.24786 0.0173998 0.00719534
0.247692 0.0170689 0.00746521
0.247979 0.0179495 0.00701759
0.247919 0.0172672 0.00728968
0.247748 0.0172988 0.00728021
0.241716 0.0168624 0.0077259
0.247855 0.0176381 0.00714872
0.241992 0.0175567 0.00711756
0.24794 0.0177533 0.00703444
0.248031 0.0173659 0.00720271
0.241629 0.0165695 0.00798424
0.241922 0.0176835 0.00702376
0.24754 0.0165362 0.00789458
0.24107 0.0152973 0.00911206
0.248033 0.017783 0.00701139
0.247783 0.0178752 0.00702595
0.24788 0.0183656 0.00703148
0.247337 0.0161353 0.00822586
0.241377 0.0160293 0.00846362
0.248037 0.0182438 0.00702131
0.241548 0.0166152 0.00794685
0.247728 0.0175957 0.0070772
0.247747 0.0175236 0.00722041
0.247585 0.0166878 0.00777209
0.242096 0.0181098 0.00703785
0.253474 0.0165623 0.00774007
0.247937 0.0173439 0.0072281
0.247823 0.0168847 0.00759716
0.247595 0.0170473 0.00749001
0.242003 0.0183786 0.00712873
0.248021 0.0179912 0.00709827
0.248074 0.0179817 0.00701381
0.24766 0.0166329 0.00780845
0.241177 0.0156636 0.00878909
0.248132 0.0182761 0.00701753
0.241273 0.0157856 0.00867957
0.247336 0.0160566 0.00828756
0.241984 0.0184372 0.00704908
0.247654 0.0172765 0.00730564
0.247788 0.0170909 0.00743899
0.247879 0.0174837 0.00714356
0.247649 0.0169163 0.00758776
0.241866 0.0183028 0.00704459
0.247488 0.0166673 0.00779661
0.247712 0.0171453 0.00740316
0.247725 0.0168624 0.00762321
0.248057 0.0183419 0.00702255
0.242003 0.0176335 0.00705433
0.247263 0.0158335 0.00846954
0.247954 0.0174216 0.00716659
0.247842 0.0173212 0.00725446
0.247532 0.0168193 0.0076743
0.24109 0.0153707 0.00904736
0.247769 0.0177231 0.00711021
0.247845 0.0169608 0.00753582
0.247518 0.0164602 0.00795589
0.241781 0.0170827 0.00753155
0.248188 0.0181122 0.00701128
0.241278 0.0160068 0.0084864
0.241397 0.0161027 0.00839888
0.241895 0.0182548 0.00712754
0.247885 0.0179172 0.00702243
0.242026 0.0177264 0.00702534
0.247883 0.0171138 0.00741283
0.241857 0.0173773 0.00727204
0.24767 0.016993 0.00752722
0.242057 0.0179136 0.00703144
0.247636 0.0171998 0.00736731
0.241885 0.0184012 0.0070481
0.247747 0.0169385 0.00756185
0.241484 0.0163957 0.00814051
0.247993 0.0175983 0.00708173
0.24181 0.0178524 0.00711011
0.241473 0.0166658 0.00790527
0.247925 0.0178205 0.00710693
0.241827 0.0181067 0.0070376
0.247845 0.017723 0.0070455
0.24184 0.0173035 0.00733707
0.241714 0.017548 0.00712907
0.241301 0.0160801 0.00842236
0.241964 0.0183393 0.0070456
0.241802 0.0171561 0.00746687
0.241672 0.0167159 0.00785507
0.247982 0.0184077 0.00702756
0.242039 0.0182737 0.00704303
0.247848 0.0180141 0.00710535
0.242001 0.0180775 0.00703662
0.24796 0.017851 0.00701809
0.241592 0.0167637 0.00781982
0.241679 0.0170557 0.00756048
0.253838 0.018126 0.00693033
0.247443 0.0165156 0.00791914
0.2474 0.0163636 0.00804179
0.241365 0.0162997 0.00822813
0.247672 0.0173533 0.00724406
0.241741 0.0172753 0.00736479
0.248011 0.0177572 0.00710539
0.247294 0.0159869 0.00834584
0.241789 0.0179105 0.00703099
0.241738 0.0169363 0.00766072
0.247562 0.016612 0.00783334
0.241907 0.0185002 0.00705163
0.241806 0.0179554 0.00711875
0.241199 0.0157369 0.00872449
0.241721 0.0172014 0.0074299
0.241889 0.0177114 0.00711419
0.248089 0.0176279 0.00706891
0.24177 0.0178124 0.00702763
0.241451 0.0165925 0.00796981
0.241822 0.0172297 0.00740204
0.241607 0.016496 0.00804903
0.242135 0.0183058 0.00704424
0.241258 0.0159349 0.00855287
0.247805 0.01782 0.00710642
0.247465 0.0165915 0.00785784
0.253912 0.0185132 0.00690386
0.247574 0.0169715 0.00755152
0.241463 0.0163223 0.00820518
0.24751 0.0167431 0.00773535
0.247453 0.016232 0.00814006
0.247357 0.0162116 0.00816443
0.248207 0.0182103 0.00701252
0.241343 0.0162264 0.00829267
0.248054 0.0178829 0.00701256
0.241419 0.016176 0.00833429
0.241155 0.0155904 0.00885361
0.253893 0.0184152 0.00690175
0.241777 0.0174251 0.00723738
0.241891 0.0175271 0.0071437
0.241613 0.016835 0.0077531
0.241831 0.0176551 0.0070545
0.241784 0.0177556 0.0071089
0.241408 0.0164461 0.00809894
0.24176 0.0170095 0.00759615
0.24773 0.0172219 0.00734162
0.247822 0.0176252 0.0070553
0.241603 0.017105 0.00751776
0.241538 0.0168854 0.00771149
0.241683 0.017399 0.00725869
0.241635 0.0169094 0.00768985
0.235682 0.0173995 0.00717044
0.241516 0.0168121 0.00777606
0.241657 0.0169815 0.00762383
0.235662 0.0173076 0.0072046
0.235702 0.0174913 0.00713627
0.241494 0.016739 0.00784066
0.235741 0.0176752 0.00706793
0.248048 0.0174516 0.00715434
0.247689 0.0174312 0.00718395
0.24143 0.0165193 0.00803436
0.247271 0.0159111 0.00840699
0.215741 0.019982 0.00563384
0.235721 0.0175832 0.0071021
0.241945 0.0182412 0.0070421
0.241875 0.0174517 0.00720752
0.24144 0.0162492 0.00826967
0.241868 0.017849 0.007029
0.2417 0.017473 0.00719371
0.241809 0.017572 0.00710565
0.241925 0.0181431 0.00704114
0.247999 0.0180476 0.00701883
0.241581 0.0170318 0.00758231
0.24175 0.0177144 0.00702442
0.235779 0.0178632 0.0070134
0.241759 0.0173491 0.00729981
0.241387 0.0163728 0.00816374
0.247378 0.0162877 0.00810306
0.24202 0.0181756 0.00703983
0.241847 0.0182047 0.0070411
0.24219 0.0181419 0.00703907
0.241943 0.0177827 0.007027
0.241664 0.0173252 0.00732366
0.241808 0.0180086 0.00703411
0.241848 0.017751 0.00703203
0.241924 0.0178351 0.00711031
0.241906 0.018045 0.00703902
0.241645 0.0172516 0.00738849
0.247703 0.0173666 0.0073381
0.404182 0.0211142 0.0056569
0.235818 0.0180558 0.00697619
0.24206 0.0183717 0.00704651
0.235799 0.0179595 0.0069948
0.23576 0.0177672 0.00703377
0.2417 0.0171279 0.00749468
0.241559 0.0169586 0.00764696
0.241887 0.0179469 0.00703587
0.248018 0.0181457 0.00702008
0.241794 0.0174968 0.00716979
0.241963 0.0178813 0.00703022
0.241733 0.0176294 0.00707432
0.24185 0.0180569 0.00712114
0.247962 0.0183096 0.00702633
0.241624 0.0171782 0.00745317
0.241694 0.0167891 0.00779049
0.247616 0.0171234 0.00742867
0.247763 0.017777 0.00702615
0.241982 0.0179794 0.00703342
0.247841 0.0181695 0.00702901

VERTICES 283 566
1 0
1 1
1 2
1 3
1 4
1 5
1 6
1 7
1 8
1 9
1 10
1 11
1 12
1 13
1 14
1 15
1 16
1 17
1 18
1 19
1 20
1 21
1 22
1 23
1 24
1 25
1 26
1 27
1 28
1 29
1 30
1 31
1 32
1 33
1 34
1 35
1 36
1 37
1 38
1 39
1 40
1 41
1 42
1 43
1 44
1 45
1 46
1 47
1 48
1 49
1 50
1 51
1 52
1 53
1 54
1 55
1 56
1 57
1 58
1 59
1 60
1 61
1 62
1 63
1 64
1 65
1 66
1 67
1 68
1 69
1 70
1 71
1 72
1 73
1 74
1 75
1 76
1 77
1 78
1 79
1 80
1 81
1 82
1 83
1 84
1 85
1 86
1 87
1 88
1 89
1 90
1 91
1 92
1 93
1 94
1 95
1 96
1 97
1 98
1 99
1 100
1 101
1 102
1 103
1 104
1 105
1 106
1 107
1 108
1 109
1 110
1 111
1 112
1 113
1 114
1 115
1 116
1 117
1 118
1 119
1 120
1 121
1 122
1 123
1 124
1 125
1 126
1 127
1 128
1 129
1 130
1 131
1 132
1 133
1 134
1 135
1 136
1 137
1 138
1 139
1 140
1 141
1 142
1 143
1 144
1 145
1 146
1 147
1 148
1 149
1 150
1 151
1 152
1 153
1 154
1 155
1 156
1 157
1 158
1 159
1 160
1 161
1 162
1 163
1 164
1 165
1 166
1 167
1 168
1 169
1 170
1 171
1 172
1 173
1 174
1 175
1 176
1 177
1 178
1 179
1 180
1 181
1 182
1 183
1 184
1 185
1 186
1 187
1 188
1 189
1 190
1 191
1 192
1 193
1 194
1 195
1 196
1 197
1 198
1 199
1 200
1 201
1 202
1 203
1 204
1 205
1 206
1 207
1 208
1 209
1 210
1 211
1 212
1 213
1 214
1 215
1 216
1 217
1 218
1 219
1 220
1 221
1 222
1 223
1 224
1 225
1 226
1 227
1 228
1 229
1 230
1 231
1 232
1 233
1 234
1 235
1 236
1 237
1 238
1 239
1 240
1 241
1 242
1 243
1 244
1 245
1 246
1 247
1 248
1 249
1 250
1 251
1 252
1 253
1 254
1 255
1 256
1 257
1 258
1 259
1 260
1 261
1 262
1 263
1 264
1 265
1 266
1 267
1 268
1 269
1 270
1 271
1 272
1 273
1 274
1 275
1 276
1 277
1 278
1 279
1 280
1 281
1 282

POINT_DATA 283
SCALARS id int 1
LOOKUP_TABLE default
1
2
3
4
5
6
7
8
9
10
11
12
13
14
15
16
18
19
20
21
22
24
25
26
27
29
30
31
32
33
34
35
36
37
38
40
41
42
43
44
45
46
47
48
49
50
52
55
56
57
58
59
60
61
62
63
64
65
66
67
68
69
70
71
72
73
74
75
76
77
78
79
80
81
82
83
84
85
86
87
88
89
90
91
92
93
94
95
96
98
99
100
101
102
103
104
105
106
107
108
109
110
111
112
113
114
115
116
117
118
119
120
121
122
123
124
125
126
127
128
129
130
131
132
133
134
135
136
137
138
139
140
141
142
144
145
146
147
148
149
150
152
153
154
155
156
157
158
159
160
161
162
164
165
166
167
168
169
170
171
172
173
174
175
176
177
178
179
180
181
182
183
184
185
186
187
188
189
190
191
192
193
194
195
196
197
198
199
200
201
202
203
204
205
206
207
208
209
210
211
213
214
215
217
218
219
220
221
222
223
224
225
226
227
228
229
230
231
232
233
234
235
236
237
238
239
241
242
243
244
245
246
247
248
249
250
251
252
253
254
255
256
257
258
259
260
261
262
263
264
265
267
268
269
270
271
272
273
274
275
276
277
278
279
280
281
282
283
284
285
286
287
288
289
290
292
293
294
295
296
297
298
300

SCALARS type int 1
LOOKUP_TABLE default
1
1
1
1
1
1
1
1
1
1
1
1
1
1
1
1
1
1
1
1
1
1
1
1
1
1
1
1
1
1
1
1
1
1
1
1
1
1
1
1
1
1
1
1
1
1
1
1
1
1
1
1
1
1
1
1
1
1
1
1
1
1
1
1
1
1
1
1
1
1
1
1
1
1
1
1
1
1
1
1
1
1
1
1
1
1
1
1
1
1
1
1
1
1
1
1
1
1
1
1
1
1
1
1
1
1
1
1
1
1
1
1
1
1
1
1
1
1
1
1
1
1
1
1
1
1
1
1
1
1
1
1
1
1
1
1
1
1
1
1
1
1
1
1
1
1
1
1
1
1
1
1
1
1
1
1
1
1
1
1
1
1
1
1
1
1
1
1
1
1
1
1
1
1
1
1
1
1
1
1
1
1
1
1
1
1
1
1
1
1
1
1
1
1
1
1
1
1
1
1
1
1
1
1
1
1
1
1
1
1
1
1
1
1
1
1
1
1
1
1
1
1
1
1
1
1
1
1
1
1
1
1
1
1
1
1
1
1
1
1
1
1
1
1
1
1
1
1
1
1
1
1
1
1
1
1
1
1
1
1
1
1
1
1
1
1
1
1
1
1
1
1
1
1
1
1
1
1
1
1
1
1
1

SCALARS radius float 1
LOOKUP_TABLE default
5e-05
5e-05
5e-05
5e-05
5e-05
5e-05
5e-05
5e-05
5e-05
5e-05
5e-05
5e-05
5e-05
5e-05
5e-05
5e-05
5e-05
5e-05
5e-05
5e-05
5e-05
5e-05
5e-05
5e-05
5e-05
5e-05
5e-05
5e-05
5e-05
5e-05
5e-05
5e-05
5e-05
5e-05
5e-05
5e-05
5e-05
5e-05
5e-05
5e-05
5e-05
5e-05
5e-05
5e-05
5e-05
5e-05
5e-05
5e-05
5e-05
5e-05
5e-05
5e-05
5e-05
5e-05
5e-05
5e-05
5e-05
5e-05
5e-05
5e-05
5e-05
5e-05
5e-05
5e-05
5e-05
5e-05
5e-05
5e-05
5e-05
5e-05
5e-05
5e-05
5e-05
5e-05
5e-05
5e-05
5e-05
5e-05
5e-05
5e-05
5e-05
5e-05
5e-05
5e-05
5e-05
5e-05
5e-05
5e-05
5e-05
5e-05
5e-05
5e-05
5e-05
5e-05
5e-05
5e-05
5e-05
5e-05
5e-05
5e-05
5e-05
5e-05
5e-05
5e-05
5e-05
5e-05
5e-05
5e-05
5e-05
5e-05
5e-05
5e-05
5e-05
5e-05
5e-05
5e-05
5e-05
5e-05
5e-05
5e-05
5e-05
5e-05
5e-05
5e-05
5e-05
5e-05
5e-05
5e-05
5e-05
5e-05
5e-05
5e-05
5e-05
5e-05
5e-05
5e-05
5e-05
5e-05
5e-05
5e-05
5e-05
5e-05
5e-05
5e-05
5e-05
5e-05
5e-05
5e-05
5e-05
5e-05
5e-05
5e-05
5e-05
5e-05
5e-05
5e-05
5e-05
5e-05
5e-05
5e-05
5e-05
5e-05
5e-05
5e-05
5e-05
5e-05
5e-05
5e-05
5e-05
5e-05
5e-05
5e-05
5e-05
5e-05
5e-05
5e-05
5e-05
5e-05
5e-05
5e-05
5e-05
5e-05
5e-05
5e-05
5e-05
5e-05
5e-05
5e-05
5e-05
5e-05
5e-05
5e-05
5e-05
5e-05
5e-05
5e-05
5e-05
5e-05
5e-05
5e-05
5e-05
5e-05
5e-05
5e-05
5e-05
5e-05
5e-05
5e-05
5e-05
5e-05
5e-05
5e-05
5e-05
5e-05
5e-05
5e-05
5e-05
5e-05
5e-05
5e-05
5e-05
5e-05
5e-05
5e-05
5e-05
5e-05
5e-05
5e-05
5e-05
5e-05
5e-05
5e-05
5e-05
5e-05
5e-05
5e-05
5e-05
5e-05
5e-05
5e-05
5e-05
5e-05
5e-05
5e-05
5e-05
5e-05
5e-05
5e-05
5e-05
5e-05
5e-05
5e-05
5e-05
5e-05
5e-05
5e-05
5e-05
5e-05
5e-05
5e-05
5e-05
5e-05
5e-05
5e-05
5e-05
5e-05
5e-05
5e-05
5e-05
5e-05
5e-05
5e-05
5e-05
5e-05
5e-05
5e-05
5e-05
5e-05
5e-05
5e-05
5e-05
5e-05
5e-05

SCALARS mass float 1
LOOKUP_TABLE default
1.46608e-10
1.46608e-10
1.46608e-10
1.46608e-10
1.46608e-10
1.46608e-10
1.46608e-10
1.46608e-10
1.46608e-10
1.46608e-10
1.46608e-10
1.46608e-10
1.46608e-10
1.46608e-10
1.46608e-10
1.46608e-10
1.46608e-10
1.46608e-10
1.46608e-10
1.46608e-10
1.46608e-10
1.46608e-10
1.46608e-10
1.46608e-10
1.46608e-10
1.46608e-10
1.46608e-10
1.46608e-10
1.46608e-10
1.46608e-10
1.46608e-10
1.46608e-10
1.46608e-10
1.46608e-10
1.46608e-10
1.46608e-10
1.46608e-10
1.46608e-10
1.46608e-10
1.46608e-10
1.46608e-10
1.46608e-10
1.46608e-10
1.46608e-10
1.46608e-10
1.46608e-10
1.46608e-10
1.46608e-10
1.46608e-10
1.46608e-10
1.46608e-10
1.46608e-10
1.46608e-10
1.46608e-10
1.46608e-10
1.46608e-10
1.46608e-10
1.46608e-10
1.46608e-10
1.46608e-10
1.46608e-10
1.46608e-10
1.46608e-10
1.46608e-10
1.46608e-10
1.46608e-10
1.46608e-10
1.46608e-10
1.46608e-10
1.46608e-10
1.46608e-10
1.46608e-10
1.46608e-10
1.46608e-10
1.46608e-10
1.46608e-10
1.46608e-10
1.46608e-10
1.46608e-10
1.46608e-10
1.46608e-10
1.46608e-10
1.46608e-10
1.46608e-10
1.46608e-10
1.46608e-10
1.46608e-10
1.46608e-10
1.46608e-10
1.46608e-10
1.46608e-10
1.46608e-10
1.46608e-10
1.46608e-10
1.46608e-10
1.46608e-10
1.46608e-10
1.46608e-10
1.46608e-10
1.46608e-10
1.46608e-10
1.46608e-10
1.46608e-10
1.46608e-10
1.46608e-10
1.46608e-10
1.46608e-10
1.46608e-10
1.46608e-10
1.46608e-10
1.46608e-10
1.46608e-10
1.46608e-10
1.46608e-10
1.46608e-10
1.46608e-10
1.46608e-10
1.46608e-10
1.46608e-10
1.46608e-10
1.46608e-10
1.46608e-10
1.46608e-10
1.46608e-10
1.46608e-10
1.46608e-10
1.46608e-10
1.46608e-10
1.46608e-10
1.46608e-10
1.46608e-10
1.46608e-10
1.46608e-10
1.46608e-10
1.46608e-10
1.46608e-10
1.46608e-10
1.46608e-10
1.46608e-10
1.46608e-10
1.46608e-10
1.46608e-10
1.46608e-10
1.46608e-10
1.46608e-10
1.46608e-10
1.46608e-10
1.46608e-10
1.46608e-10
1.46608e-10
1.46608e-10
1.46608e-10
1.46608e-10
1.46608e-10
1.46608e-10
1.46608e-10
1.46608e-10
1.46608e-10
1.46608e-10
1.46608e-10
1.46608e-10
1.46608e-10
1.46608e-10
1.46608e-10
1.46608e-10
1.46608e-10
1.46608e-10
1.46608e-10
1.46608e-10
1.46608e-10
1.46608e-10
1.46608e-10
1.46608e-10
1.46608e-10
1.46608e-10
1.46608e-10
1.46608e-10
1.46608e-10
1.46608e-10
1.46608e-10
1.46608e-10
1.46608e-10
1.46608e-10
1.46608e-10
1.46608e-10
1.46608e-10
1.46608e-10
1.46608e-10
1.46608e-10
1.46608e-10
1.46608e-10
1.46608e-10
1.46608e-10
1.46608e-10
1.46608e-10
1.46608e-10
1.46608e-10
1.46608e-10
1.46608e-10
1.46608e-10
1.46608e-10
1.46608e-10
1.46608e-10
1.46608e-10
1.46608e-10
1.46608e-10
1.46608e-10
1.46608e-10
1.46608e-10
1.46608e-10
1.46608e-10
1.46608e-10
1.46608e-10
1.46608e-10
1.46608e-10
1.46608e-10
1.46608e-10
1.46608e-10
1.46608e-10
1.46608e-10
1.46608e-10
1.46608e-10
1.46608e-10
1.46608e-10
1.46608e-10
1.46608e-10
1.46608e-10
1.46608e-10
1.46608e-10
1.46608e-10
1.46608e-10
1.46608e-10
1.46608e-10
1.46608e-10
1.46608e-10
1.46608e-10
1.46608e-10
1.46608e-10
1.46608e-10
1.46608e-10
1.46608e-10
1.46608e-10
1.46608e-10
1.46608e-10
1.46608e-10
1.46608e-10
1.46608e-10
1.46608e-10
1.46608e-10
1.46608e-10
1.46608e-10
1.46608e-10
1.46608e-10
1.46608e-10
1.46608e-10
1.46608e-10
1.46608e-10
1.46608e-10
1.46608e-10
1.46608e-10
1.46608e-10
1.46608e-10
1.46608e-10
1.46608e-10
1.46608e-10
1.46608e-10
1.46608e-10
1.46608e-10
1.46608e-10
1.46608e-10
1.46608e-10
1.46608e-10
1.46608e-10
1.46608e-10
1.46608e-10
1.46608e-10
1.46608e-10
1.46608e-10
1.46608e-10
1.46608e-10
1.46608e-10
1.46608e-10
1.46608e-10

VECTORS velocity float
0.00483556 0.000302264 -0.00066214
0.00418894 0.000486002 -0.00052094
0.00452316 0.000768261 -0.000198
0.0045236 0.000769465 -0.000193082
0.00456698 0.000442825 -0.000730113
0.00469576 -0.000367613 0.000347785
0.00474861 0.000325344 -0.0006654
0.00456312 0.000535792 -0.000647305
0.00434619 -0.000488722 3.83184e-06
0.00449155 0.000810785 -0.000195357
0.00478618 0.000348602 -0.000692396
0.0042523 -0.000470255 -1.07975e-07
0.00456651 0.000816284 -0.000143587
0.00428724 -7.47809e-05 -7.06996e-05
0.00461233 0.000785359 -0.000202317
0.00451424 -0.000111091 -4.60749e-05
0.00437169 -0.000420498 0.000123576
0.00469962 0.00073563 -0.000105192
0.00453602 0.000286722 -0.000631583
0.00455119 0.000426016 -0.000730161
0.0045168 0.000765284 -0.00019809
0.0043525 -0.000486115 2.17069e-06
0.00451812 0.000811861 -0.00015198
0.0043515 -0.000477388 -1.87222e-06
0.00446633 -0.000107779 -4.69753e-05
0.0046008 0.00060864 -0.000361503
0.00469989 -0.00036936 0.000348954
0.00451895 0.000784052 -0.000196526
0.00444106 0.000803443 -0.000150533
0.00469231 -0.000365943 0.000346648
0.00467285 0.000748106 -0.000184165
0.00455863 0.000852031 -0.000197105
0.00426012 -0.000447801 3.0551e-05
0.00469325 0.000340848 -0.000677252
0.00455187 0.000820521 -0.000157425
0.00475387 0.000314361 -0.000660669
0.00451612 0.000535671 -0.000299803
0.00458803 0.000327252 -0.000658581
0.00454132 0.000779787 -0.000199249
0.0045748 0.000679385 -9.54302e-05
0.00468924 -0.000365343 0.000346169
0.0043894 -0.000488017 1.07672e-06
0.00452527 0.000408258 -0.000713071
0.00456818 0.000283947 -0.000629939
0.00434524 -0.000473894 -2.81387e-06
0.00470858 0.000791471 -0.000132436
0.00457372 -0.000147887 1.02822e-05
0.0044187 -1.95332e-05 5.39987e-06
0.00447648 0.000817226 -0.000194609
0.00468243 -0.000365636 0.000346125
0.00455675 -0.000132902 -2.8197e-05
0.00425805 -0.000468676 -1.04189e-06
0.00449278 0.000865041 -0.000177739
0.00453857 0.000414842 -0.000718189
0.00477462 0.00034798 -0.00069143
0.00454878 0.000784834 -0.000174249
0.00440538 -0.000494155 3.0954e-06
0.00480662 0.000289732 -0.000648731
0.00439116 -9.59177e-05 4.44887e-06
0.0044774 0.000834227 -0.000194695
0.00455454 -0.000131561 -2.92028e-05
0.00464087 0.000276343 -0.000620798
0.00436987 -0.000424556 0.000123878
0.00458243 -0.000133474 -2.88269e-05
0.00431734 -0.000484122 3.07086e-06
0.00451168 0.000399377 -0.000706362
0.00485635 0.000335905 -0.000689205
0.00457166 0.000375539 -0.00069486
0.00436923 -0.000422948 0.000124539
0.0044904 0.000779798 -0.000195446
0.00441777 -9.81612e-05 -5.40765e-05
0.00446943 -0.000118734 -3.76138e-05
0.00452987 0.000635569 -0.000173451
0.00440218 -9.17931e-05 6.40458e-06
0.00458088 -0.000126908 -3.48708e-05
0.0044291 -9.88817e-05 -5.40591e-05
0.00428237 -0.000473134 -1.32516e-06
0.00455703 -0.000130672 -2.99603e-05
0.00447422 0.000796323 -0.000196522
0.00432677 -0.000483514 2.47505e-06
0.00486794 0.000367487 -0.000714342
0.00452361 0.000812588 -0.000148963
0.00485795 0.000350908 -0.000699926
0.00482595 0.000289168 -0.000646435
0.00455502 0.000324701 -0.000652672
0.00451735 0.000410578 -0.000497088
0.00484744 0.000314304 -0.00102299
0.00449218 0.000817703 -0.000188282
0.00457549 0.000326877 -0.000658454
0.00451558 0.000413596 -0.000442217
0.0046083 -0.000138991 -2.38707e-05
0.00473439 0.000748582 -6.29637e-05
0.00443109 -5.21242e-06 -6.45443e-06
0.00455861 0.000813756 -0.000183454
0.00451076 0.000458101 -0.000750588
0.00458163 -0.000125521 -3.53606e-05
0.00441393 -1.45453e-05 1.00385e-05
0.00487934 0.00035018 -0.000701922
0.00434324 -8.51523e-05 -6.31324e-05
0.00457497 0.000838162 -0.000215119
0.00453774 0.000767617 -0.00016398
0.0045019 0.000772257 -0.000196703
0.00479865 0.000294026 -0.000652651
0.00448593 -0.000119013 -3.7887e-05
0.00450021 0.000815366 -0.000195662
0.0045674 -0.000137284 -2.48686e-05
0.00464176 0.000722959 -0.000149349
0.00449629 0.000711661 -0.000280627
0.00478972 0.000359239 -0.000701606
0.00432193 -7.90896e-05 6.05959e-06
0.0047037 -0.000371178 0.000350166
0.00455822 0.000359831 -0.000683855
0.0047825 0.000274056 -0.000633676
0.00487783 0.000322175 -0.000681566
0.00451491 -0.000224472 -3.07173e-05
0.004478 0.000831025 -0.000192577
0.00447969 0.000838154 -0.000193489
0.00480269 0.000383561 -0.000721042
0.00443815 -9.77305e-05 -5.50986e-05
0.00450582 0.000807004 -0.000196093
0.00446611 -0.000106204 -4.84608e-05
0.00478283 0.00029619 -0.000650054
0.00456889 -0.000127298 -1.31841e-05
0.00446341 0.000420483 -0.000712475
0.00455812 0.000299608 -0.000631593
0.00451455 0.000696441 -0.000236515
0.00485571 0.000352577 -0.000701541
0.00434488 -2.30444e-05 -1.93968e-05
0.00480534 0.000336746 -0.000686959
0.00433828 0.000302148 -0.000620426
0.004865 0.000391664 -0.000732919
0.00450775 0.000809659 -0.000195961
0.00441886 -1.11614e-05 -3.15667e-06
0.00475715 0.000314525 -0.000649982
0.00444961 0.000567559 -0.000565938
0.00454217 0.000299269 -0.000630028
0.00481602 0.000350213 -0.000695228
0.00440359 -9.60807e-05 -5.52371e-05
0.00462845 0.000830148 -0.000174272
0.00454531 0.000329434 -0.000656065
0.00482341 0.000288402 -0.000648296
0.00467154 -0.000124 -4.00072e-05
0.00448235 0.000805582 -0.000195097
0.00448611 -0.00011127 -4.44861e-05
0.00450187 -0.000120956 -3.68299e-05
0.00432395 -3.76171e-05 -2.64678e-05
0.00450865 0.000790486 -0.000184422
0.00440422 -2.58278e-06 8.47648e-06
0.00455129 0.000333963 -0.000660073
0.00445699 -8.94798e-05 -6.15741e-05
0.00488297 0.000340798 -0.000695036
0.00441346 -0.00010392 3.493e-06
0.00448693 0.000405438 -0.000711649
0.00431853 -8.76466e-05 -1.85095e-05
0.00484813 0.000322944 -0.000678088
0.00455957 -0.000127389 -3.29953e-05
0.00452193 0.000818141 -0.000166401
0.00438296 -4.41159e-05 1.24603e-05
0.00457835 -0.000134661 -3.00667e-05
0.00460184 0.000837081 -0.000186388
0.00436491 -5.13904e-05 -1.64123e-05
0.00466077 0.000753183 -0.000149918
0.00446227 -9.0809e-05 -6.2489e-05
0.00445004 -9.90174e-05 -4.38244e-05
0.00449336 -0.000110233 -4.61941e-05
0.00436596 -5.24526e-05 -1.57981e-05
0.00463364 -0.000115603 -4.56155e-05
0.00459187 -0.000125218 -3.73391e-05
0.0045011 0.000799016 -0.000195945
0.00438282 -3.9204e-05 4.16809e-06
0.00447245 0.000808766 -0.000194135
0.00436478 -6.80619e-06 1.05284e-05
0.00454783 0.000830876 -0.000218318
0.0045928 -0.000172424 -8.33032e-05
0.00466173 -0.000283558 -0.000200531
0.00435587 -0.000430892 0.000107757
0.00484472 0.000307838 -0.000668931
0.0048182 0.000300857 -0.000658713
0.00454443 -0.000112857 -4.51756e-05
0.00448596 0.000410174 -0.000724202
0.00452517 -0.000107734 -5.00936e-05
0.00457557 0.000872632 -0.000206725
0.00477159 0.000303791 -0.000651887
0.00436227 -4.91973e-05 -5.06034e-05
0.00467621 -0.000118009 -4.47098e-05
0.00482357 0.000360019 -0.000703969
0.0045622 -0.000140148 -1.23406e-05
0.00434339 -8.69008e-05 -3.67848e-05
0.00445904 -9.97888e-05 -5.47832e-05
0.00462722 -0.000118578 -4.16136e-05
0.00439129 -4.03958e-05 1.33351e-05
0.00451169 0.000788111 -0.00014111
0.00438868 -4.7356e-05 6.93392e-06
0.00457166 -0.000132536 -3.08773e-05
0.00453099 -0.000100147 -5.58524e-05
0.00455071 -0.000132667 -2.80168e-05
0.00457487 -0.000127147 3.58269e-06
0.00447825 -0.000107052 -4.6117e-05
0.00457994 0.000889073 -0.000141843
0.00483852 0.000322384 -0.000674429
0.00436302 -0.00041574 0.000123465
0.0048664 0.000332483 -0.000686792
0.00455515 -0.000126414 -3.38367e-05
0.00478911 0.000351381 -0.000692408
0.00479059 0.000291283 -0.000647797
0.00480038 0.00029771 -0.000652963
0.00449699 0.000802615 -0.000195709
0.00452848 -0.000111645 -4.59348e-05
0.00455612 0.000861366 -0.000187306
0.00452453 -0.000122551 -3.60986e-05
0.0044341 -9.91801e-05 -5.32823e-05
0.00437495 -0.000419251 0.000123806
0.00445324 -9.88768e-05 -6.36935e-05
0.00442796 -1.64356e-05 1.53424e-05
0.00459924 -0.000147513 -5.56146e-05
0.00441454 -3.108e-05 -2.5447e-06
0.00440969 -5.79693e-05 1.64857e-05
0.00455941 -0.00012306 -3.63242e-05
0.00468016 -0.000123365 -4.12335e-05
0.00455433 0.00028234 -0.000585886
0.00472872 0.000732219 -8.99499e-05
0.0046567 -0.000141396 -2.4866e-05
0.00461204 -0.000134137 -3.08634e-05
0.00445627 -0.000114536 -5.7088e-05
0.00461172 -0.000135259 -2.78827e-05
0.00436033 -0.000542089 -0.000131445
0.00459644 -0.000132811 -3.04669e-05
0.00465235 -0.000135829 -2.77821e-05
0.004342 -0.000538161 -0.000131501
0.00437643 -0.000546575 -0.000130825
0.00458965 -0.000136459 -2.91031e-05
0.00420134 -0.000507066 -0.000132351
0.0044166 0.000809937 -0.000158935
0.00455914 0.000443 -0.000637659
0.00456499 -0.000127993 -3.31462e-05
0.00476276 0.000305279 -0.000657756
6.80066e-15 2.29915e-14 -7.03243e-14
0.0042775 -0.000521891 -0.000132578
0.00436721 -2.56926e-05 -1.38194e-05
0.00444632 -6.19409e-05 -3.25923e-05
0.00453634 -0.000125453 -3.38532e-05
0.00438936 -1.81031e-05 1.00973e-05
0.00444555 -0.000113548 -6.0482e-05
0.00441468 -5.79692e-05 -3.94253e-05
0.00436048 -1.48166e-05 -9.60942e-06
0.00447214 0.000818918 -0.000194178
0.00464416 -0.000137424 -2.61004e-05
0.00440627 -5.19996e-05 9.37938e-06
0.00431271 -0.000481078 0.000100086
0.00446715 -9.74392e-05 -5.49392e-05
0.00455975 -0.000119598 -3.94724e-05
0.00480139 0.000299902 -0.000657621
0.00437708 -2.31522e-05 1.00614e-05
0.00435983 -1.37206e-05 -1.44844e-05
0.00434663 -0.00015436 2.88825e-06
0.00439927 -7.14884e-06 9.36094e-06
0.00451128 -0.000117899 -4.32113e-05
0.00435028 -5.23633e-05 -1.67489e-05
0.00440411 -2.39556e-05 1.18048e-05
0.00439882 -3.69628e-05 4.69933e-06
0.00436306 -6.37327e-06 -4.14668e-06
0.0046095 -0.000133714 -3.04917e-05
0.00426757 0.00039203 -0.000616293
-1.29192e-14 6.08909e-14 -1.90218e-13
0.00431497 -0.000483291 0.000101073
0.0045924 -0.000108272 4.476e-06
0.00431654 -0.000482118 0.000100832
0.00430921 -0.000528376 -0.000132258
0.00466292 -0.000135025 -2.96068e-05
0.00462403 -0.000131005 -2.86137e-05
0.00437317 -9.10963e-06 3.75399e-06
0.00447873 0.000818218 -0.000195094
0.00443594 -8.88395e-05 -6.39337e-05
0.00440004 -5.61776e-05 4.12777e-06
0.00446492 -7.84995e-05 -1.08942e-05
0.00435446 -3.01544e-05 -1.64983e-06
0.00450585 0.000788671 -0.000196108
0.00465751 -0.000141865 -2.38317e-05
0.00459102 -0.000127404 -4.05022e-05
0.00469964 0.000352122 -0.000694234
0.00463326 0.00075204 -0.000113736
0.00436666 1.00484e-05 9.95084e-06
0.00452736 0.000764169 -0.000198733

VECTORS force float
4.77112e-11 1.2656e-10 5.70986e-11
-7.26647e-11 -2.8465e-11 4.24588e-10
-1.13342e-11 1.28663e-11 9.38075e-12
-2.25428e-11 -6.39763e-11 -2.82958e-11
-1.36878e-12 -2.32338e-10 1.02114e-10
4.03109e-12 1.49652e-11 -9.33808e-12
1.02251e-10 8.1375e-11 -1.91636e-10
-4.7843e-11 -4.91033e-11 4.30191e-10
1.01033e-11 -4.41228e-12 3.38099e-12
4.78396e-11 3.25458e-11 -2.20125e-12
1.29974e-10 -9.96021e-11 7.52627e-11
1.35779e-10 -2.00805e-11 3.24849e-12
1.48452e-10 1.70228e-10 -1.84054e-10
2.05565e-11 2.89226e-11 -2.9426e-11
1.3458e-10 -1.35648e-10 1.92559e-12
-7.52306e-11 1.1852e-11 -5.50914e-12
5.59464e-12 -4.20819e-12 -2.08865e-13
9.73377e-11 2.69334e-10 -9.17181e-11
-2.25735e-10 -5.5285e-11 1.38608e-10
6.3791e-11 -1.9023e-10 1.64206e-10
-4.0184e-12 7.01714e-11 2.37843e-12
-4.04768e-11 1.01217e-12 1.56731e-12
-1.15153e-10 1.47321e-10 -7.8313e-11
1.76423e-11 -3.38678e-11 1.6342e-11
2.00807e-11 -1.95455e-11 1.65709e-11
-1.11186e-10 1.97436e-10 -2.30555e-10
2.94579e-12 2.17016e-11 -1.30991e-11
1.05563e-10 -1.00422e-10 -1.38185e-11
4.47094e-10 -1.55246e-10 1.0838e-10
6.06103e-12 5.28759e-12 -3.53921e-12
-2.53845e-10 5.9242e-11 -1.32043e-11
-9.473e-11 -9.46073e-11 5.8518e-11
-3.94906e-11 -2.42534e-12 1.11753e-11
2.56807e-10 -2.35726e-11 -5.80005e-11
2.52862e-10 -1.34447e-10 4.7932e-11
1.38498e-10 1.47748e-10 -1.24826e-10
-5.09975e-11 7.69209e-11 -2.63104e-11
8.71456e-11 -8.93052e-11 6.56481e-11
2.63536e-10 1.02333e-11 -8.03588e-11
-2.02811e-10 1.10718e-10 -8.53174e-11
-9.79374e-14 -1.22948e-11 9.13929e-12
-5.78179e-11 -1.64703e-11 1.27255e-11
-9.00548e-13 -2.18952e-10 1.47265e-10
-1.53087e-10 -1.10948e-10 -1.12349e-10
-5.68029e-12 -3.30455e-11 1.20354e-11
2.0578e-10 -9.54619e-11 -1.99531e-10
-7.47002e-12 -4.7712e-11 -4.57629e-11
2.10364e-11 4.772e-12 4.85619e-12
1.40491e-10 -1.74168e-11 1.53543e-11
-2.08868e-13 -2.29355e-11 1.80883e-11
2.38206e-10 -9.11616e-11 6.8576e-11
2.2057e-11 4.79088e-12 -2.48488e-12
4.53745e-10 -1.17047e-11 1.00463e-10
3.36669e-11 -1.88995e-10 1.93589e-10
4.67096e-11 -1.88014e-10 1.44784e-10
8.03528e-11 -2.29844e-10 -6.46259e-11
-2.08177e-11 -2.33114e-11 1.20797e-11
9.27811e-11 4.3489e-11 -6.03801e-11
2.56104e-11 8.68315e-11 -4.0928e-12
-7.50187e-11 1.46577e-10 6.39499e-12
2.66737e-10 -7.38435e-11 5.5936e-11
1.61021e-10 -2.37618e-10 2.31831e-10
6.3926e-12 3.74228e-11 -9.42723e-13
1.11534e-10 -8.31411e-11 9.33865e-11
1.00385e-10 -1.90151e-11 3.96792e-12
1.22433e-10 -1.71215e-10 1.58778e-10
-3.56819e-11 -2.10754e-10 1.64609e-10
4.23879e-10 -1.22436e-10 1.13096e-10
-4.92167e-12 -9.38502e-12 4.37937e-13
-5.76591e-12 3.04143e-12 1.24507e-11
1.46804e-11 -9.85915e-12 -2.12219e-13
-8.31027e-11 4.42258e-11 -3.56834e-11
-2.57412e-11 9.985e-11 3.5152e-11
1.52699e-10 -1.01804e-10 1.56703e-13
2.06693e-10 -8.20132e-11 8.09216e-11
5.48634e-11 -7.8734e-12 -2.08889e-11
-1.23775e-11 -1.22432e-11 7.59953e-12
1.57459e-10 -5.31789e-11 3.69066e-11
-8.64006e-11 -1.07199e-11 2.448e-11
-3.23033e-12 -1.09653e-11 5.05183e-12
7.29977e-11 -9.42205e-11 6.99459e-11
-2.01501e-10 7.97189e-12 -3.92666e-11
2.00398e-11 -1.54563e-10 1.11323e-10
1.06977e-10 -1.03514e-11 -1.53689e-10
1.37175e-10 -1.83023e-10 1.35717e-10
2.50953e-11 -5.99296e-11 7.60092e-11
-1.23287e-10 -6.45365e-11 4.04573e-10
2.39026e-11 -2.85916e-11 3.30063e-11
-6.65904e-13 3.81867e-12 3.45895e-11
-1.58061e-10 -3.79997e-11 -1.4839e-10
-2.47353e-11 2.7809e-11 4.62961e-12
7.81872e-11 -1.30321e-10 -5.1432e-10
-3.2798e-11 3.98512e-12 -2.34101e-11
1.52924e-10 -2.71718e-10 -1.11666e-10
2.89494e-11 -2.11584e-10 4.0507e-11
1.12934e-10 -4.51397e-11 3.51387e-11
4.00176e-11 -9.90857e-13 8.1323e-12
-1.37728e-10 -6.80506e-11 6.3401e-11
-1.04653e-11 6.02305e-12 -4.9382e-12
4.4891e-11 -7.11763e-11 1.67434e-11
1.14703e-10 -4.28076e-11 -9.71301e-11
-4.35666e-12 -3.00515e-11 -7.91333e-12
1.03849e-10 1.18254e-10 -1.03964e-10
-1.42747e-10 4.1488e-11 -3.19526e-11
-3.76425e-11 -2.4977e-11 1.25329e-12
1.3811e-10 -4.68665e-11 4.75836e-11
-1.34766e-10 1.64497e-10 -2.17193e-10
-9.76531e-11 1.61311e-11 1.70737e-10
1.44985e-10 -1.1047e-10 6.49959e-11
-1.41251e-10 9.50343e-11 2.31596e-11
9.08445e-12 3.01418e-11 -1.82112e-11
-2.48993e-11 -2.21051e-10 9.94991e-11
3.98858e-10 -8.6604e-11 3.39471e-11
-1.45502e-11 -2.41284e-10 2.24944e-10
-2.92224e-11 -2.09315e-10 7.34216e-11
-8.05802e-11 -1.22251e-10 5.55901e-11
-8.35864e-12 6.5101e-11 3.17089e-11
1.64934e-10 -9.99342e-11 6.34413e-11
-1.44435e-10 2.79972e-11 -1.26693e-11
-4.86888e-11 3.11011e-11 2.86855e-12
-1.04461e-11 -3.48559e-12 3.07549e-12
1.35821e-10 1.14603e-10 -1.1913e-10
-1.83975e-10 -1.95829e-10 -8.08987e-12
2.64105e-10 -1.66628e-10 -2.62059e-12
2.14461e-10 -1.48758e-10 6.8693e-11
-6.78198e-11 3.8231e-10 2.37178e-11
1.62314e-10 -1.96211e-10 1.63828e-10
2.37929e-11 1.24104e-10 -3.86871e-11
1.08598e-10 -5.8063e-11 1.17995e-11
2.20256e-10 -2.4493e-10 1.93218e-10
2.13739e-10 -1.62803e-10 1.04143e-10
-5.10717e-11 -2.4181e-12 3.14387e-12
3.17572e-11 -1.06509e-11 5.53412e-12
2.13837e-11 1.81737e-10 -1.14541e-10
1.92752e-10 1.31574e-10 7.61807e-10
-1.75782e-10 -1.87862e-10 -5.65871e-11
6.27461e-11 -1.46125e-10 1.44532e-10
-5.68014e-12 -8.17465e-12 1.00624e-11
4.98522e-10 5.46717e-11 3.75929e-10
-3.04466e-10 -1.20698e-11 3.80117e-11
2.85098e-11 7.10331e-11 -6.25087e-11
1.28114e-10 -2.69429e-11 1.2436e-11
1.62905e-10 1.20327e-10 -7.1049e-12
-2.53692e-11 -9.11678e-12 9.15781e-12
-8.89333e-11 6.24742e-11 -4.94989e-11
1.41467e-10 2.19909e-10 -7.61294e-11
8.09217e-11 -2.08751e-10 1.15451e-11
6.26666e-11 7.57943e-12 1.98634e-11
3.12371e-10 -1.83559e-10 1.16758e-10
-7.36084e-11 -3.12234e-11 3.53848e-11
7.93486e-11 -2.85064e-10 2.09501e-10
1.02205e-10 8.12274e-11 7.39421e-12
3.96587e-11 -6.37351e-11 9.10374e-11
2.41404e-10 4.28146e-10 -1.54741e-11
3.8945e-10 -6.20528e-11 2.27782e-11
2.11371e-11 2.2379e-12 -3.70182e-12
1.39502e-10 -5.18467e-11 3.38442e-11
-2.92923e-11 1.14027e-10 -2.47571e-11
7.33443e-11 -2.27101e-11 7.11426e-11
-4.79755e-11 -3.70426e-10 -3.30462e-11
-5.99805e-11 -5.43533e-11 2.53855e-11
2.22823e-10 -2.16779e-10 -1.54855e-10
-7.60925e-11 -3.70327e-11 3.20484e-11
4.86993e-11 9.12589e-11 3.55439e-11
-2.3496e-11 4.40459e-12 6.33275e-13
1.61651e-10 -1.06911e-10 9.81437e-12
1.64988e-10 -2.24459e-11 1.15879e-11
6.8943e-11 -8.37412e-11 6.35087e-11
5.90661e-12 5.2268e-11 -3.89263e-13
8.40715e-11 -1.01062e-10 -4.54482e-11
5.08771e-11 1.08318e-10 -1.51201e-10
6.78252e-11 -2.42642e-10 -3.60067e-11
1.47243e-11 -1.32614e-10 -1.14568e-10
2.295e-11 -1.99743e-11 1.8413e-10
1.60533e-11 2.5671e-11 1.83595e-10
-1.48247e-11 -6.8484e-12 9.11695e-12
-4.11813e-11 1.86999e-11 -6.30122e-11
5.90345e-11 1.29519e-10 -5.95138e-12
-4.38956e-11 4.23599e-11 -3.44254e-11
-7.76808e-11 7.0918e-11 1.19205e-10
7.24554e-11 1.86639e-11 -5.73985e-12
2.15034e-10 8.99191e-11 -2.16751e-10
2.84128e-11 1.45946e-10 -1.38942e-10
1.60374e-11 -2.25049e-11 -3.25108e-12
-8.1108e-12 2.55127e-11 -1.9951e-11
5.51298e-11 -9.03966e-11 7.80785e-11
3.52748e-11 1.1971e-10 1.15289e-11
3.96181e-11 -1.06137e-10 -7.80359e-11
-4.0757e-11 1.66937e-11 -2.95522e-12
1.39452e-10 -8.67962e-11 6.98827e-11
-4.98861e-12 -1.32109e-10 9.08144e-11
3.88144e-10 -1.13232e-10 3.41883e-11
2.07612e-11 4.57935e-11 -5.68482e-12
5.73461e-11 2.03528e-11 1.19821e-11
2.90098e-12 -2.24212e-11 2.66945e-11
2.8951e-10 -8.69095e-11 6.57881e-11
3.16896e-10 -1.95603e-10 -1.49945e-11
5.87746e-11 -2.62389e-11 2.19851e-11
3.10888e-10 -2.28993e-11 -2.75593e-11
7.17452e-13 1.64335e-11 -2.01004e-11
8.26774e-13 -8.04807e-12 7.4785e-13
-7.71628e-12 -2.39466e-10 2.28193e-10
-5.23847e-11 2.64021e-11 -2.05481e-11
1.56743e-10 -1.38199e-10 4.91893e-11
5.87084e-11 6.18327e-11 -4.50785e-11
1.37836e-10 1.13346e-10 -7.68018e-11
5.41747e-11 1.51056e-10 -1.86504e-12
-1.59471e-10 5.08794e-11 -3.77335e-11
-4.38198e-12 7.32804e-11 -4.71212e-11
-1.22278e-10 7.16458e-11 -5.87299e-11
2.61744e-11 -4.43307e-12 -2.30857e-12
8.01182e-12 5.17433e-13 3.72475e-13
-6.60406e-11 7.01476e-11 5.96938e-11
-5.25945e-11 -2.81236e-13 2.03343e-11
2.81528e-11 -5.60924e-11 2.16744e-10
3.56589e-11 3.17537e-11 4.49386e-11
4.34589e-11 1.73555e-11 6.61241e-11
4.48328e-11 4.48441e-11 -4.10573e-11
5.51989e-11 -1.95217e-11 5.73241e-12
-1.0652e-10 -1.44209e-11 4.12118e-11
-5.97908e-11 1.1511e-10 -2.16932e-10
2.09866e-11 -3.83897e-11 4.6415e-11
-2.82553e-11 -7.55211e-11 2.55152e-11
-8.07425e-11 4.00686e-11 3.75251e-11
-1.83065e-10 -6.60198e-11 1.47277e-10
4.83669e-11 -9.3395e-12 -2.67957e-12
5.17558e-11 -2.92747e-11 8.25629e-11
-8.69945e-11 -4.73756e-11 4.25599e-11
1.53892e-11 3.5606e-11 -8.22646e-12
3.61232e-11 -5.42556e-11 1.18064e-11
2.57006e-11 5.72356e-12 9.51787e-11
-4.81895e-11 5.50068e-12 5.24023e-13
1.90972e-10 -1.58332e-10 8.91027e-11
7.26405e-11 4.16842e-10 2.60828e-10
4.33203e-11 2.97999e-11 -2.55743e-11
-4.3425e-11 1.49751e-10 -9.97933e-11
-8.50704e-23 -1.15805e-23 -1.07533e-23
-1.23716e-11 1.46034e-11 -1.0423e-11
1.14497e-10 1.68545e-11 -5.3577e-12
-9.6126e-11 -2.22229e-11 3.64219e-11
-8.97883e-11 3.77219e-11 -3.04901e-11
4.52044e-11 -7.26781e-11 -5.85302e-12
-4.54073e-11 5.99726e-11 1.37124e-11
8.88586e-12 1.33375e-10 1.48206e-10
-2.66398e-11 -5.71803e-11 -4.82398e-11
1.26814e-11 -1.98268e-11 3.1136e-11
-6.11612e-11 -3.699e-11 4.14909e-11
9.3999e-11 7.33672e-11 5.90605e-12
4.45921e-12 -2.57445e-11 2.43229e-12
7.61582e-11 7.10738e-11 9.69591e-12
1.86522e-11 5.94975e-11 -4.18708e-11
3.02311e-11 5.86945e-11 -1.10901e-10
1.04348e-10 -1.41017e-10 -7.16945e-11
-1.96075e-11 3.81e-11 -5.24073e-11
8.3144e-11 -1.83301e-10 -1.19117e-11
8.67784e-11 8.59104e-12 3.47524e-11
4.83686e-11 -2.4857e-11 3.50751e-11
5.98764e-11 -1.58856e-11 -1.55015e-11
3.73911e-11 -8.88684e-12 4.57344e-11
-1.51491e-10 -3.01519e-11 6.55519e-11
-5.21337e-11 -1.38408e-10 -3.5695e-11
1.24037e-10 -4.2039e-11 5.56197e-11
-3.20376e-10 -2.11766e-10 1.2781e-10
5.75239e-22 8.87151e-23 -5.58347e-24
2.81666e-11 -1.0298e-11 5.56953e-12
5.23935e-11 -2.73247e-10 7.07337e-11
-1.7161e-11 2.46971e-11 -1.28769e-11
-1.18767e-11 -1.76113e-11 1.09699e-11
1.02589e-10 -8.53589e-13 2.20826e-11
-1.67229e-10 -8.00223e-11 1.97936e-11
-6.26068e-11 -1.21777e-10 -4.43035e-11
7.63206e-11 -3.15481e-11 -1.27054e-12
1.34043e-11 9.47321e-11 9.68788e-11
-2.7035e-12 1.31574e-10 4.07477e-11
1.08805e-10 8.91801e-11 6.25873e-11
4.48098e-11 -3.18392e-11 -4.35426e-11
-5.85909e-11 -9.70469e-11 -6.43549e-13
3.31659e-11 -7.55758e-12 5.45278e-11
4.51086e-11 -1.57421e-10 5.01695e-11
-3.85235e-10 -1.41523e-10 2.02563e-10
2.28905e-10 6.22031e-11 -6.66739e-11
-1.1636e-10 -2.83166e-10 2.08884e-11
7.47007e-11 2.53749e-11 -5.41088e-11
