# vtk DataFile Version 3.0
LIGGGHTS particles timestep 82600000
ASCII
DATASET POLYDATA
POINTS 277 float
0.384463 0.0184929 5.23774e-05
0.384301 0.0189805 5.21642e-05
0.383622 0.0186622 9.87566e-05
0.384742 0.0166067 5.27426e-05
0.384769 0.0176546 5.27772e-05
0.384573 0.0181859 5.25217e-05
0.384641 0.0180115 5.26103e-05
0.383873 0.0192623 5.16043e-05
0.383644 0.0189308 5.1305e-05
0.383782 0.0177604 5.14854e-05
0.383658 0.0184147 5.13222e-05
0.383701 0.020264 5.13788e-05
0.384778 0.0202682 5.27896e-05
0.384389 0.0191923 5.22806e-05
0.384954 0.016092 5.30206e-05
0.383742 0.0192534 5.14322e-05
0.383996 0.0194081 5.17653e-05
0.383904 0.0179315 5.1645e-05
0.384143 0.0182979 0.000126284
0.383572 0.0183629 5.12101e-05
0.383958 0.0193152 5.17158e-05
0.384267 0.0180652 5.21202e-05
0.384093 0.0170102 5.18925e-05
0.384991 0.0181295 5.3068e-05
0.385072 0.0179786 5.31752e-05
0.384727 0.0168558 5.27234e-05
0.384072 0.0187342 5.18653e-05
0.383963 0.0186848 5.17224e-05
0.384201 0.0183491 5.20343e-05
0.384121 0.0180923 5.19296e-05
0.38389 0.0188816 5.16272e-05
0.383958 0.0182074 5.17151e-05
0.385095 0.017688 5.32053e-05
0.384958 0.0164394 5.30259e-05
0.384077 0.0189265 5.18717e-05
0.383688 0.0195993 5.13614e-05
0.384518 0.0169572 5.24494e-05
0.38426 0.0166344 5.21107e-05
0.384483 0.0171734 5.24027e-05
0.383724 0.0197361 5.14088e-05
0.384421 0.0181849 5.23226e-05
0.384993 0.0174167 5.30712e-05
0.384181 0.0171229 8.10837e-05
0.3847 0.0190509 5.26869e-05
0.383648 0.018453 0.00523041
0.384632 0.0170971 5.25984e-05
0.383708 0.0186156 5.13885e-05
0.384844 0.0175889 5.2876e-05
0.384145 0.0181726 0.00010648
0.38384 0.0184779 5.15616e-05
0.385615 0.0214721 5.38857e-05
0.385289 0.0155954 5.34584e-05
0.384417 0.0169583 5.23164e-05
0.383816 0.0181228 5.15286e-05
0.384303 0.0165428 5.21668e-05
0.384647 0.0163809 5.26185e-05
0.384202 0.0189952 5.20347e-05
0.38375 0.0200023 5.14426e-05
0.384262 0.0171738 5.21134e-05
0.384345 0.0186277 5.22225e-05
0.38385 0.0193719 5.15744e-05
0.384561 0.0173995 5.25059e-05
0.384445 0.017606 5.23539e-05
0.384911 0.0183156 5.29632e-05
0.384282 0.0173947 0.000119737
0.38475 0.0181974 5.27526e-05
0.383805 0.0179406 5.15146e-05
0.384105 0.0198839 5.19086e-05
0.384328 0.0179847 5.21996e-05
0.392848 0.0240513 6.33589e-05
0.3838 0.0185693 5.15086e-05
0.383701 0.0185084 5.13791e-05
0.383877 0.0209516 5.16096e-05
0.385016 0.0183256 5.31008e-05
0.383854 0.0202485 5.15791e-05
0.384048 0.0212951 5.18336e-05
0.384361 0.0187376 5.2244e-05
0.384195 0.017249 5.20259e-05
0.3845 0.017693 5.24253e-05
0.384682 0.0162685 5.26642e-05
0.384471 0.017049 5.23872e-05
0.384549 0.0176049 5.24901e-05
0.383494 0.0173478 0.0054729
0.38372 0.0181232 8.2146e-05
0.384345 0.0175634 5.22228e-05
0.384137 0.0201312 5.19506e-05
0.383992 0.0173185 5.17602e-05
0.384759 0.0186301 5.27642e-05
0.38404 0.0181503 5.18226e-05
0.384399 0.0172326 5.22932e-05
0.383915 0.0181167 5.16597e-05
0.383897 0.0200451 5.16352e-05
0.384891 0.0187149 5.29376e-05
0.383741 0.0204178 5.1432e-05
0.383629 0.0183138 0.00011713
0.383865 0.0180247 5.15942e-05
0.384155 0.0174135 5.1974e-05
0.38387 0.0197106 5.16005e-05
0.38444 0.0187992 5.23473e-05
0.383665 0.0180435 5.1332e-05
0.383999 0.0178974 5.17691e-05
0.384426 0.0196364 5.2329e-05
0.38423 0.0173427 5.20721e-05
0.384794 0.0185252 5.28101e-05
0.3846 0.018439 5.2556e-05
0.384191 0.0170278 5.20213e-05
0.38369 0.018817 5.13651e-05
0.384511 0.0167344 5.24399e-05
0.383574 0.0182623 5.12127e-05
0.383891 0.0177176 5.16273e-05
0.384958 0.0179526 5.30248e-05
0.384179 0.0184217 0.000117075
0.384054 0.020493 5.18408e-05
0.383776 0.0196495 5.14778e-05
0.384547 0.0180536 5.24868e-05
0.384093 0.0176028 5.18929e-05
0.384611 0.0176888 5.25713e-05
0.383942 0.0184888 0.000110211
0.384117 0.0178301 5.19242e-05
0.383744 0.0178549 5.1436e-05
0.383765 0.0191557 5.14624e-05
0.384541 0.0182923 5.24789e-05
0.384512 0.017269 5.24412e-05
0.383903 0.0185601 5.16433e-05
0.383769 0.0182229 5.1468e-05
0.383952 0.0187915 5.17083e-05
0.383939 0.0178143 5.16906e-05
0.3847 0.0174694 5.26876e-05
0.38419 0.0182498 5.20192e-05
0.384796 0.0179297 5.28125e-05
0.384031 0.0177664 5.18108e-05
0.384313 0.0188394 5.218e-05
0.384025 0.0172242 5.18033e-05
0.384664 0.0178542 5.26398e-05
0.383994 0.0176255 5.17625e-05
0.383705 0.0179475 5.1384e-05
0.384091 0.0182363 5.18893e-05
0.384116 0.0171992 8.63391e-05
0.383852 0.017905 0.000132304
0.384021 0.0185047 5.17983e-05
0.385429 0.0169726 5.36428e-05
0.384584 0.0165966 5.25358e-05
0.383691 0.0187163 5.13662e-05
0.384309 0.0170744 5.21755e-05
0.384701 0.0184572 5.26889e-05
0.384071 0.0214752 5.18636e-05
0.385633 0.0216555 5.39092e-05
0.383844 0.0178464 5.15662e-05
0.38363 0.0196815 5.1286e-05
0.384864 0.0181359 5.29025e-05
0.383638 0.0174895 0.00542994
0.384392 0.0171313 5.22839e-05
0.384534 0.0190665 5.24695e-05
0.384096 0.0185712 5.18962e-05
0.383762 0.0184057 5.14588e-05
0.384964 0.0177796 5.30337e-05
0.384772 0.0188263 5.2782e-05
0.383866 0.0182481 5.15953e-05
0.383855 0.0177776 0.00012329
0.386214 0.0156681 5.46708e-05
0.384385 0.0178441 5.22744e-05
0.385196 0.0174648 5.33366e-05
0.383958 0.0207152 5.17153e-05
0.385161 0.0175671 5.32906e-05
0.38393 0.0174051 5.16781e-05
0.384016 0.0184047 5.17913e-05
0.383992 0.0180808 0.000105294
0.384107 0.0184459 5.19107e-05
0.384015 0.0182639 0.000110922
0.384441 0.0185911 5.23488e-05
0.384091 0.0175001 5.18897e-05
0.384299 0.0167264 5.21625e-05
0.383658 0.0201562 5.13223e-05
0.383922 0.0175558 5.16677e-05
0.384614 0.0171968 5.25748e-05
0.384089 0.0183363 5.18866e-05
0.384612 0.0186756 5.25728e-05
0.383704 0.0194134 5.13829e-05
0.384328 0.0181504 5.21997e-05
0.384598 0.0189856 5.25545e-05
0.385564 0.0162643 5.38193e-05
0.38429 0.0182436 5.21501e-05
0.385034 0.0182199 5.31244e-05
0.383704 0.0183239 5.13824e-05
0.38403 0.0175545 0.000112202
0.384094 0.0179297 5.18933e-05
0.384617 0.0199188 5.25784e-05
0.384187 0.018771 5.20153e-05
0.383605 0.0182017 0.0001246
0.384467 0.0173601 5.23823e-05
0.383843 0.0176186 5.15653e-05
0.384614 0.0167309 5.25742e-05
0.383867 0.0190284 5.15963e-05
0.383959 0.0183217 5.17165e-05
0.384976 0.0184455 5.30495e-05
0.383589 0.0187437 5.1232e-05
0.384666 0.0185892 5.26424e-05
0.383833 0.0181885 0.000124817
0.384051 0.0180208 5.18373e-05
0.384086 0.01711 5.1883e-05
0.383668 0.0182279 5.13362e-05
0.385095 0.0173862 5.32046e-05
0.384177 0.0195914 5.20021e-05
0.384866 0.0177464 5.29047e-05
0.384392 0.0190207 5.22844e-05
0.383873 0.0187304 5.16045e-05
0.384048 0.0174014 5.18334e-05
0.384015 0.0197954 5.17901e-05
0.384355 0.0174059 5.22358e-05
0.384824 0.0158043 5.28494e-05
0.384355 0.017667 5.22354e-05
0.383898 0.017479 0.000110952
0.383765 0.018036 5.14632e-05
0.384511 0.0186633 5.24396e-05
0.384061 0.019295 5.18505e-05
0.384442 0.0191075 5.23499e-05
0.384903 0.0180439 5.29539e-05
0.384303 0.0172666 5.21676e-05
0.384431 0.017975 5.23354e-05
0.379403 0.0166202 0.00780767
0.38427 0.0174674 5.21245e-05
0.383992 0.0174844 5.17601e-05
0.379382 0.0165296 0.00784459
0.379424 0.0167108 0.00777089
0.384064 0.0190614 5.18538e-05
0.379466 0.0168918 0.00769731
0.383626 0.0181371 5.12808e-05
0.383811 0.0176885 0.000115063
0.384164 0.0180013 5.19849e-05
0.384254 0.0184342 5.21032e-05
0.215741 0.019982 0.00563384
0.379445 0.0168013 0.0077341
0.384966 0.0186001 5.30361e-05
0.383654 0.0193029 5.13174e-05
0.384531 0.0164116 5.24654e-05
0.383577 0.0184743 5.12167e-05
0.383793 0.0186692 5.14997e-05
0.383842 0.018345 5.1563e-05
0.38687 0.0152658 5.55298e-05
0.383591 0.0185797 5.12345e-05
0.383876 0.0186432 0.000100436
0.383916 0.018412 5.16601e-05
0.379509 0.0170729 0.00762374
0.384105 0.0188286 5.19083e-05
0.384469 0.0174786 5.23843e-05
0.384329 0.0168914 5.22018e-05
0.383594 0.0188436 5.12384e-05
0.384527 0.0168455 5.24611e-05
0.38372 0.0185681 0.00522243
0.383593 0.0185793 0.000151222
0.383778 0.0187681 5.14794e-05
0.384762 0.0224884 5.27689e-05
0.384714 0.0183476 5.27052e-05
0.383897 0.0191595 5.16359e-05
0.383754 0.0195242 5.14479e-05
0.384186 0.0185079 5.20145e-05
0.384836 0.0182485 5.28661e-05
0.404182 0.0211142 0.0056569
0.379551 0.017254 0.00755016
0.384586 0.0177863 5.25383e-05
0.37953 0.0171634 0.00758695
0.379488 0.0169824 0.00766052
0.383603 0.0173942 0.00545883
0.384005 0.0178296 0.000124992
0.38483 0.0183764 5.28582e-05
0.38464 0.018274 5.26082e-05
0.384228 0.0181572 5.20689e-05
0.383974 0.0179823 0.000102358
0.384702 0.01794 8.68423e-05
0.384403 0.0180741 5.22989e-05
0.384487 0.017802 5.24082e-05
0.384111 0.0173196 5.19163e-05
0.385008 0.017637 5.30902e-05
0.3842 0.0178242 0.00533209
0.384583 0.017927 5.25348e-05
0.384008 0.0191966 5.17809e-05
0.383616 0.0193868 9.00478e-05

VERTICES 277 554
1 0
1 1
1 2
1 3
1 4
1 5
1 6
1 7
1 8
1 9
1 10
1 11
1 12
1 13
1 14
1 15
1 16
1 17
1 18
1 19
1 20
1 21
1 22
1 23
1 24
1 25
1 26
1 27
1 28
1 29
1 30
1 31
1 32
1 33
1 34
1 35
1 36
1 37
1 38
1 39
1 40
1 41
1 42
1 43
1 44
1 45
1 46
1 47
1 48
1 49
1 50
1 51
1 52
1 53
1 54
1 55
1 56
1 57
1 58
1 59
1 60
1 61
1 62
1 63
1 64
1 65
1 66
1 67
1 68
1 69
1 70
1 71
1 72
1 73
1 74
1 75
1 76
1 77
1 78
1 79
1 80
1 81
1 82
1 83
1 84
1 85
1 86
1 87
1 88
1 89
1 90
1 91
1 92
1 93
1 94
1 95
1 96
1 97
1 98
1 99
1 100
1 101
1 102
1 103
1 104
1 105
1 106
1 107
1 108
1 109
1 110
1 111
1 112
1 113
1 114
1 115
1 116
1 117
1 118
1 119
1 120
1 121
1 122
1 123
1 124
1 125
1 126
1 127
1 128
1 129
1 130
1 131
1 132
1 133
1 134
1 135
1 136
1 137
1 138
1 139
1 140
1 141
1 142
1 143
1 144
1 145
1 146
1 147
1 148
1 149
1 150
1 151
1 152
1 153
1 154
1 155
1 156
1 157
1 158
1 159
1 160
1 161
1 162
1 163
1 164
1 165
1 166
1 167
1 168
1 169
1 170
1 171
1 172
1 173
1 174
1 175
1 176
1 177
1 178
1 179
1 180
1 181
1 182
1 183
1 184
1 185
1 186
1 187
1 188
1 189
1 190
1 191
1 192
1 193
1 194
1 195
1 196
1 197
1 198
1 199
1 200
1 201
1 202
1 203
1 204
1 205
1 206
1 207
1 208
1 209
1 210
1 211
1 212
1 213
1 214
1 215
1 216
1 217
1 218
1 219
1 220
1 221
1 222
1 223
1 224
1 225
1 226
1 227
1 228
1 229
1 230
1 231
1 232
1 233
1 234
1 235
1 236
1 237
1 238
1 239
1 240
1 241
1 242
1 243
1 244
1 245
1 246
1 247
1 248
1 249
1 250
1 251
1 252
1 253
1 254
1 255
1 256
1 257
1 258
1 259
1 260
1 261
1 262
1 263
1 264
1 265
1 266
1 267
1 268
1 269
1 270
1 271
1 272
1 273
1 274
1 275
1 276

POINT_DATA 277
SCALARS id int 1
LOOKUP_TABLE default
1
2
3
4
5
6
8
9
10
11
12
13
14
15
16
18
19
20
21
22
24
25
26
27
29
30
31
32
33
34
35
36
38
40
41
42
43
44
45
46
47
48
49
50
52
55
56
57
58
59
60
61
62
63
64
65
66
67
68
69
70
71
72
73
74
75
76
77
78
79
80
81
82
83
84
85
86
87
88
89
90
91
92
93
94
95
96
98
99
100
101
102
103
104
105
106
107
108
109
110
111
113
114
115
116
117
118
119
120
121
122
123
124
125
126
127
128
129
130
131
132
133
134
135
136
137
138
139
140
141
142
144
145
146
147
148
149
150
152
153
154
155
156
157
158
159
160
161
162
164
165
166
167
168
169
170
171
172
173
174
175
176
177
178
179
180
181
182
183
184
185
186
187
188
189
191
192
193
194
195
196
197
198
199
200
201
202
203
204
205
206
207
208
210
211
213
214
215
217
218
220
221
222
223
224
225
226
227
228
229
230
231
232
233
234
235
236
237
238
239
241
242
243
244
245
246
247
248
249
250
251
252
253
254
255
256
257
258
259
260
261
262
263
264
265
267
268
269
270
271
272
273
274
275
276
277
278
279
280
281
282
283
284
285
286
287
288
289
290
292
293
294
295
296
297
298
300

SCALARS type int 1
LOOKUP_TABLE default
1
1
1
1
1
1
1
1
1
1
1
1
1
1
1
1
1
1
1
1
1
1
1
1
1
1
1
1
1
1
1
1
1
1
1
1
1
1
1
1
1
1
1
1
1
1
1
1
1
1
1
1
1
1
1
1
1
1
1
1
1
1
1
1
1
1
1
1
1
1
1
1
1
1
1
1
1
1
1
1
1
1
1
1
1
1
1
1
1
1
1
1
1
1
1
1
1
1
1
1
1
1
1
1
1
1
1
1
1
1
1
1
1
1
1
1
1
1
1
1
1
1
1
1
1
1
1
1
1
1
1
1
1
1
1
1
1
1
1
1
1
1
1
1
1
1
1
1
1
1
1
1
1
1
1
1
1
1
1
1
1
1
1
1
1
1
1
1
1
1
1
1
1
1
1
1
1
1
1
1
1
1
1
1
1
1
1
1
1
1
1
1
1
1
1
1
1
1
1
1
1
1
1
1
1
1
1
1
1
1
1
1
1
1
1
1
1
1
1
1
1
1
1
1
1
1
1
1
1
1
1
1
1
1
1
1
1
1
1
1
1
1
1
1
1
1
1
1
1
1
1
1
1
1
1
1
1
1
1
1
1
1
1
1
1
1
1
1
1
1
1
1
1
1
1
1
1

SCALARS radius float 1
LOOKUP_TABLE default
5e-05
5e-05
5e-05
5e-05
5e-05
5e-05
5e-05
5e-05
5e-05
5e-05
5e-05
5e-05
5e-05
5e-05
5e-05
5e-05
5e-05
5e-05
5e-05
5e-05
5e-05
5e-05
5e-05
5e-05
5e-05
5e-05
5e-05
5e-05
5e-05
5e-05
5e-05
5e-05
5e-05
5e-05
5e-05
5e-05
5e-05
5e-05
5e-05
5e-05
5e-05
5e-05
5e-05
5e-05
5e-05
5e-05
5e-05
5e-05
5e-05
5e-05
5e-05
5e-05
5e-05
5e-05
5e-05
5e-05
5e-05
5e-05
5e-05
5e-05
5e-05
5e-05
5e-05
5e-05
5e-05
5e-05
5e-05
5e-05
5e-05
5e-05
5e-05
5e-05
5e-05
5e-05
5e-05
5e-05
5e-05
5e-05
5e-05
5e-05
5e-05
5e-05
5e-05
5e-05
5e-05
5e-05
5e-05
5e-05
5e-05
5e-05
5e-05
5e-05
5e-05
5e-05
5e-05
5e-05
5e-05
5e-05
5e-05
5e-05
5e-05
5e-05
5e-05
5e-05
5e-05
5e-05
5e-05
5e-05
5e-05
5e-05
5e-05
5e-05
5e-05
5e-05
5e-05
5e-05
5e-05
5e-05
5e-05
5e-05
5e-05
5e-05
5e-05
5e-05
5e-05
5e-05
5e-05
5e-05
5e-05
5e-05
5e-05
5e-05
5e-05
5e-05
5e-05
5e-05
5e-05
5e-05
5e-05
5e-05
5e-05
5e-05
5e-05
5e-05
5e-05
5e-05
5e-05
5e-05
5e-05
5e-05
5e-05
5e-05
5e-05
5e-05
5e-05
5e-05
5e-05
5e-05
5e-05
5e-05
5e-05
5e-05
5e-05
5e-05
5e-05
5e-05
5e-05
5e-05
5e-05
5e-05
5e-05
5e-05
5e-05
5e-05
5e-05
5e-05
5e-05
5e-05
5e-05
5e-05
5e-05
5e-05
5e-05
5e-05
5e-05
5e-05
5e-05
5e-05
5e-05
5e-05
5e-05
5e-05
5e-05
5e-05
5e-05
5e-05
5e-05
5e-05
5e-05
5e-05
5e-05
5e-05
5e-05
5e-05
5e-05
5e-05
5e-05
5e-05
5e-05
5e-05
5e-05
5e-05
5e-05
5e-05
5e-05
5e-05
5e-05
5e-05
5e-05
5e-05
5e-05
5e-05
5e-05
5e-05
5e-05
5e-05
5e-05
5e-05
5e-05
5e-05
5e-05
5e-05
5e-05
5e-05
5e-05
5e-05
5e-05
5e-05
5e-05
5e-05
5e-05
5e-05
5e-05
5e-05
5e-05
5e-05
5e-05
5e-05
5e-05
5e-05
5e-05
5e-05
5e-05
5e-05
5e-05
5e-05
5e-05
5e-05
5e-05
5e-05
5e-05
5e-05
5e-05
5e-05
5e-05
5e-05
5e-05
5e-05
5e-05
5e-05
5e-05
5e-05
5e-05
5e-05
5e-05
5e-05
5e-05

SCALARS mass float 1
LOOKUP_TABLE default
1.46608e-10
1.46608e-10
1.46608e-10
1.46608e-10
1.46608e-10
1.46608e-10
1.46608e-10
1.46608e-10
1.46608e-10
1.46608e-10
1.46608e-10
1.46608e-10
1.46608e-10
1.46608e-10
1.46608e-10
1.46608e-10
1.46608e-10
1.46608e-10
1.46608e-10
1.46608e-10
1.46608e-10
1.46608e-10
1.46608e-10
1.46608e-10
1.46608e-10
1.46608e-10
1.46608e-10
1.46608e-10
1.46608e-10
1.46608e-10
1.46608e-10
1.46608e-10
1.46608e-10
1.46608e-10
1.46608e-10
1.46608e-10
1.46608e-10
1.46608e-10
1.46608e-10
1.46608e-10
1.46608e-10
1.46608e-10
1.46608e-10
1.46608e-10
1.46608e-10
1.46608e-10
1.46608e-10
1.46608e-10
1.46608e-10
1.46608e-10
1.46608e-10
1.46608e-10
1.46608e-10
1.46608e-10
1.46608e-10
1.46608e-10
1.46608e-10
1.46608e-10
1.46608e-10
1.46608e-10
1.46608e-10
1.46608e-10
1.46608e-10
1.46608e-10
1.46608e-10
1.46608e-10
1.46608e-10
1.46608e-10
1.46608e-10
1.46608e-10
1.46608e-10
1.46608e-10
1.46608e-10
1.46608e-10
1.46608e-10
1.46608e-10
1.46608e-10
1.46608e-10
1.46608e-10
1.46608e-10
1.46608e-10
1.46608e-10
1.46608e-10
1.46608e-10
1.46608e-10
1.46608e-10
1.46608e-10
1.46608e-10
1.46608e-10
1.46608e-10
1.46608e-10
1.46608e-10
1.46608e-10
1.46608e-10
1.46608e-10
1.46608e-10
1.46608e-10
1.46608e-10
1.46608e-10
1.46608e-10
1.46608e-10
1.46608e-10
1.46608e-10
1.46608e-10
1.46608e-10
1.46608e-10
1.46608e-10
1.46608e-10
1.46608e-10
1.46608e-10
1.46608e-10
1.46608e-10
1.46608e-10
1.46608e-10
1.46608e-10
1.46608e-10
1.46608e-10
1.46608e-10
1.46608e-10
1.46608e-10
1.46608e-10
1.46608e-10
1.46608e-10
1.46608e-10
1.46608e-10
1.46608e-10
1.46608e-10
1.46608e-10
1.46608e-10
1.46608e-10
1.46608e-10
1.46608e-10
1.46608e-10
1.46608e-10
1.46608e-10
1.46608e-10
1.46608e-10
1.46608e-10
1.46608e-10
1.46608e-10
1.46608e-10
1.46608e-10
1.46608e-10
1.46608e-10
1.46608e-10
1.46608e-10
1.46608e-10
1.46608e-10
1.46608e-10
1.46608e-10
1.46608e-10
1.46608e-10
1.46608e-10
1.46608e-10
1.46608e-10
1.46608e-10
1.46608e-10
1.46608e-10
1.46608e-10
1.46608e-10
1.46608e-10
1.46608e-10
1.46608e-10
1.46608e-10
1.46608e-10
1.46608e-10
1.46608e-10
1.46608e-10
1.46608e-10
1.46608e-10
1.46608e-10
1.46608e-10
1.46608e-10
1.46608e-10
1.46608e-10
1.46608e-10
1.46608e-10
1.46608e-10
1.46608e-10
1.46608e-10
1.46608e-10
1.46608e-10
1.46608e-10
1.46608e-10
1.46608e-10
1.46608e-10
1.46608e-10
1.46608e-10
1.46608e-10
1.46608e-10
1.46608e-10
1.46608e-10
1.46608e-10
1.46608e-10
1.46608e-10
1.46608e-10
1.46608e-10
1.46608e-10
1.46608e-10
1.46608e-10
1.46608e-10
1.46608e-10
1.46608e-10
1.46608e-10
1.46608e-10
1.46608e-10
1.46608e-10
1.46608e-10
1.46608e-10
1.46608e-10
1.46608e-10
1.46608e-10
1.46608e-10
1.46608e-10
1.46608e-10
1.46608e-10
1.46608e-10
1.46608e-10
1.46608e-10
1.46608e-10
1.46608e-10
1.46608e-10
1.46608e-10
1.46608e-10
1.46608e-10
1.46608e-10
1.46608e-10
1.46608e-10
1.46608e-10
1.46608e-10
1.46608e-10
1.46608e-10
1.46608e-10
1.46608e-10
1.46608e-10
1.46608e-10
1.46608e-10
1.46608e-10
1.46608e-10
1.46608e-10
1.46608e-10
1.46608e-10
1.46608e-10
1.46608e-10
1.46608e-10
1.46608e-10
1.46608e-10
1.46608e-10
1.46608e-10
1.46608e-10
1.46608e-10
1.46608e-10
1.46608e-10
1.46608e-10
1.46608e-10
1.46608e-10
1.46608e-10
1.46608e-10
1.46608e-10
1.46608e-10
1.46608e-10
1.46608e-10
1.46608e-10
1.46608e-10
1.46608e-10
1.46608e-10
1.46608e-10
1.46608e-10
1.46608e-10
1.46608e-10
1.46608e-10
1.46608e-10
1.46608e-10
1.46608e-10
1.46608e-10
1.46608e-10
1.46608e-10

VECTORS velocity float
1.7976e-18 -8.74315e-23 -1.37251e-15
7.34973e-14 4.95122e-13 1.37401e-15
-9.68273e-19 9.39589e-19 -4.11346e-16
2.24033e-18 1.29506e-22 -1.71052e-15
1.79763e-18 -1.4075e-20 -1.37251e-15
1.79763e-18 -2.28989e-20 -1.37251e-15
-6.27437e-19 1.08135e-21 4.80091e-16
-3.50212e-19 -4.67611e-21 2.67381e-16
-3.50221e-19 -4.36642e-23 2.6738e-16
3.41252e-16 -1.31265e-15 2.823e-15
2.81055e-18 -2.90599e-22 -2.14593e-15
-3.50188e-19 1.22119e-21 2.67381e-16
8.71375e-19 2.7834e-22 -6.65298e-16
3.53834e-19 7.77545e-22 -2.6883e-16
-9.2056e-19 -1.40898e-20 7.02843e-16
-3.5017e-19 1.3733e-21 2.67381e-16
2.81057e-18 -5.0599e-22 -2.14593e-15
5.01451e-14 1.19362e-13 4.49141e-15
-5.70911e-19 5.39228e-19 -7.62222e-17
3.89191e-13 -6.03336e-14 1.14672e-13
-3.50222e-19 4.48167e-22 2.67381e-16
1.79761e-18 -6.02616e-23 -1.37251e-15
-9.20546e-19 -1.05392e-23 7.02844e-16
1.79761e-18 -2.0589e-21 -1.37249e-15
1.79763e-18 8.443e-21 -1.37251e-15
2.24037e-18 -1.70668e-21 -1.71052e-15
-3.50214e-19 9.45875e-21 2.67381e-16
2.81054e-18 -2.86179e-22 -2.14593e-15
-3.52231e-19 3.17015e-21 2.68569e-16
-5.74448e-16 4.96871e-15 3.29687e-15
-3.50186e-19 -2.65655e-20 2.67382e-16
-8.94349e-14 -1.76018e-14 -5.90809e-14
1.79763e-18 -6.6249e-21 -1.37251e-15
-9.2057e-19 1.23176e-23 7.02842e-16
2.81054e-18 -9.03087e-24 -2.14593e-15
1.18051e-18 -4.37763e-20 -9.39254e-16
2.24036e-18 1.73216e-21 -1.71052e-15
2.24031e-18 -1.86062e-22 -1.71052e-15
2.24031e-18 -1.28273e-21 -1.71052e-15
-3.5022e-19 -5.02452e-22 2.67381e-16
5.13736e-14 -1.39736e-13 1.85669e-15
2.24031e-18 -8.75166e-21 -1.71051e-15
-4.52484e-19 1.6984e-22 3.48022e-16
-3.50197e-19 6.43058e-22 2.67381e-16
-2.82533e-15 1.87927e-14 2.4561e-13
2.24034e-18 -2.10506e-22 -1.71052e-15
2.81056e-18 -6.19436e-22 -2.14593e-15
1.79759e-18 1.14604e-20 -1.37249e-15
2.9266e-13 1.83987e-13 -7.54127e-15
-1.14943e-12 -5.09167e-13 -2.16164e-15
2.92965e-18 7.90337e-21 -2.23681e-15
1.45286e-18 -6.78637e-21 -1.10924e-15
2.24035e-18 -4.27989e-22 -1.71052e-15
1.42742e-12 7.47354e-14 1.08677e-12
2.24034e-18 7.22205e-22 -1.71052e-15
2.24033e-18 -3.09132e-22 -1.71052e-15
-7.87467e-14 -5.30453e-13 1.17456e-15
2.81055e-18 1.86078e-21 -2.14593e-15
-4.56128e-19 -6.10782e-21 3.48024e-16
1.7976e-18 1.09731e-21 -1.37251e-15
-3.50172e-19 4.25455e-22 2.67381e-16
2.24036e-18 1.48362e-21 -1.71052e-15
2.24031e-18 -1.03906e-20 -1.71052e-15
1.79756e-18 -1.45994e-21 -1.37249e-15
1.14978e-18 -1.59901e-20 -8.85531e-16
1.79763e-18 -1.37509e-21 -1.37251e-15
2.82476e-14 7.20307e-14 7.27009e-15
2.81057e-18 -1.52492e-21 -2.14593e-15
1.79764e-18 8.93819e-23 -1.37251e-15
1.64369e-18 2.86175e-20 -1.25496e-15
1.22338e-12 5.41922e-13 9.47396e-16
2.81054e-18 -1.49488e-20 -2.14593e-15
2.00506e-18 -3.17309e-20 -1.5309e-15
1.79756e-18 -1.95184e-22 -1.37249e-15
-3.5017e-19 1.40296e-20 2.6738e-16
2.00505e-18 1.09815e-21 -1.5309e-15
1.79763e-18 -1.33596e-21 -1.37251e-15
-4.59239e-19 -4.16579e-21 3.48009e-16
2.24035e-18 -8.06476e-22 -1.71051e-15
2.24031e-18 4.97493e-21 -1.71052e-15
2.24036e-18 7.1117e-22 -1.71051e-15
2.24032e-18 2.72565e-21 -1.71052e-15
6.44214e-18 -1.80377e-14 -5.94669e-14
2.61199e-11 7.46413e-12 3.95292e-12
2.24035e-18 1.41528e-20 -1.71052e-15
8.71372e-19 1.0413e-20 -6.65298e-16
-4.59625e-19 2.1798e-21 3.48026e-16
1.79762e-18 2.3029e-23 -1.37251e-15
1.80469e-13 -4.00267e-13 -9.74279e-14
2.24032e-18 5.29262e-21 -1.71052e-15
1.03772e-13 -4.75898e-13 -2.92902e-13
2.81056e-18 1.973e-21 -2.14593e-15
1.79763e-18 1.89412e-23 -1.37251e-15
-3.50195e-19 -2.80272e-21 2.67382e-16
2.44114e-12 -1.6199e-12 -7.90049e-14
2.24034e-18 4.53411e-22 -1.71052e-15
-9.20517e-19 1.22521e-21 7.02843e-16
2.81056e-18 -5.11657e-21 -2.14593e-15
1.79761e-18 2.60693e-22 -1.37249e-15
2.24034e-18 -2.46046e-23 -1.71051e-15
7.74526e-16 -2.04602e-15 -3.00322e-15
-3.50212e-19 1.7129e-20 2.6738e-16
1.1565e-18 -1.76675e-21 -8.8553e-16
1.79764e-18 -4.97294e-22 -1.37251e-15
1.7976e-18 -2.23933e-23 -1.37249e-15
-4.57137e-19 5.19975e-21 3.48025e-16
2.81059e-18 -3.19908e-22 -2.14593e-15
2.24034e-18 -2.73958e-20 -1.71051e-15
1.20997e-13 2.19233e-13 -4.60781e-13
-2.66288e-15 3.47434e-15 -1.34429e-14
1.79761e-18 -1.54667e-21 -1.37251e-15
-3.50668e-19 1.45903e-20 2.68566e-16
8.71345e-19 1.50563e-20 -6.65297e-16
2.81056e-18 5.52398e-22 -2.14593e-15
1.79763e-18 -8.45651e-22 -1.37251e-15
2.04802e-19 -9.06289e-22 -1.54936e-16
1.79759e-18 -2.16342e-22 -1.37251e-15
2.92231e-14 6.40141e-14 -9.17123e-15
-9.20569e-19 6.11951e-22 7.02844e-16
-9.2053e-19 -8.00741e-24 7.02844e-16
-3.50188e-19 7.68227e-22 2.67382e-16
1.79763e-18 -6.54213e-22 -1.37251e-15
2.24036e-18 -4.04065e-22 -1.71051e-15
-3.31528e-14 -7.39964e-15 1.86928e-14
1.79759e-18 -8.07273e-22 -1.37249e-15
-1.2408e-15 -3.09701e-15 3.42292e-15
2.42812e-16 5.03819e-15 -4.18251e-15
2.24033e-18 -3.27227e-22 -1.71052e-15
9.55683e-20 -5.86799e-21 -7.72016e-17
-6.25566e-19 -9.17218e-22 4.80093e-16
-2.2535e-15 -1.41265e-15 4.85458e-16
-3.50182e-19 -5.11534e-22 2.67382e-16
-4.59146e-19 -3.76657e-21 3.4802e-16
-6.31267e-19 4.00175e-21 4.80092e-16
2.04433e-19 2.75677e-21 -1.54936e-16
1.48988e-16 -1.17015e-14 3.10808e-15
-2.45838e-14 -5.45923e-14 2.09862e-14
-4.50583e-19 -6.81956e-21 3.48012e-16
8.58264e-14 3.58437e-13 2.21427e-14
4.53483e-14 7.5184e-14 -2.2582e-14
1.45285e-18 1.02439e-20 -1.10923e-15
2.24033e-18 2.21353e-21 -1.71052e-15
5.8695e-19 1.7837e-20 -4.11067e-16
2.24034e-18 -2.89885e-21 -1.71052e-15
1.79759e-18 -4.7617e-22 -1.37249e-15
2.00508e-18 9.87151e-21 -1.5309e-15
-2.312e-19 1.21134e-21 1.76521e-16
2.97408e-14 4.10767e-14 -1.21771e-14
-1.45248e-22 4.51554e-24 -1.18916e-23
1.79756e-18 -3.92641e-23 -1.37249e-15
4.3971e-18 -1.80377e-14 -5.94669e-14
2.24036e-18 -7.11667e-22 -1.71051e-15
3.48593e-19 1.13669e-21 -2.68831e-16
1.79759e-18 -1.75688e-22 -1.37251e-15
1.79763e-18 -6.47685e-24 -1.37251e-15
1.79763e-18 2.95044e-20 -1.37251e-15
1.79759e-18 1.28613e-21 -1.37249e-15
7.57361e-13 -1.67924e-13 -2.6025e-14
6.26455e-14 1.27559e-13 -2.07137e-14
1.45283e-18 -1.30897e-20 -1.10923e-15
1.79759e-18 -2.53026e-21 -1.37251e-15
1.79763e-18 -3.03063e-21 -1.37251e-15
2.00508e-18 -2.20962e-21 -1.5309e-15
1.79764e-18 -3.47171e-21 -1.37251e-15
6.18552e-22 3.54743e-21 7.18022e-21
7.86388e-20 -1.87364e-20 -7.52585e-17
2.45953e-12 -1.58907e-12 -2.32204e-13
-3.5065e-19 2.01114e-21 2.6857e-16
4.58884e-13 -6.90873e-13 -2.47268e-15
1.79764e-18 -7.09224e-23 -1.37251e-15
2.24035e-18 4.37378e-23 -1.71052e-15
-9.20531e-19 -2.46256e-21 7.02844e-16
-3.50202e-19 -8.83154e-22 2.67382e-16
1.7111e-22 1.95073e-21 -9.2024e-21
2.24036e-18 -4.12881e-21 -1.71052e-15
1.02937e-19 2.55966e-21 -7.52584e-17
1.79761e-18 1.29217e-21 -1.37251e-15
5.601e-22 4.93446e-21 7.72249e-21
-5.11242e-14 1.39044e-13 1.72184e-15
2.8106e-18 1.39628e-20 -2.14593e-15
1.45282e-18 3.99672e-23 -1.10923e-15
1.05218e-19 4.64596e-21 -7.72106e-17
1.79759e-18 2.98526e-22 -1.37251e-15
1.32009e-13 -3.50706e-14 1.08156e-13
2.05128e-19 4.067e-21 -1.54933e-16
2.24033e-18 1.11403e-22 -1.71052e-15
8.71354e-19 -2.05577e-20 -6.65298e-16
-3.5022e-19 2.18125e-22 2.67381e-16
-2.67066e-12 1.54526e-12 -9.34162e-13
2.24032e-18 5.56422e-22 -1.71051e-15
6.00329e-16 -1.8283e-15 3.24343e-15
2.24033e-18 -1.87571e-21 -1.71052e-15
-3.50217e-19 5.00645e-21 2.6738e-16
-3.01478e-15 -1.25508e-14 -1.91439e-14
1.79764e-18 -1.1343e-21 -1.37251e-15
3.30394e-19 -7.69511e-20 -4.11536e-16
1.79755e-18 -2.35918e-25 -1.37249e-15
6.95282e-12 1.70502e-12 -3.42684e-13
3.51647e-13 -5.82024e-14 9.71448e-14
-4.5676e-19 3.20044e-21 3.48024e-16
1.79758e-18 1.12073e-21 -1.37249e-15
1.7976e-18 -2.18428e-21 -1.37249e-15
-3.50203e-19 -1.30054e-21 2.67381e-16
1.79759e-18 3.40385e-22 -1.37251e-15
2.81057e-18 -1.29387e-22 -2.14593e-15
-1.21879e-15 -1.04933e-14 6.13094e-15
2.02959e-19 3.11093e-23 -1.54943e-16
2.81056e-18 3.74741e-21 -2.14593e-15
1.15692e-18 -5.44348e-22 -8.85538e-16
2.24035e-18 -1.08448e-21 -1.71052e-15
2.24036e-18 -9.47942e-23 -1.71052e-15
2.54506e-21 1.07389e-21 3.61516e-22
2.24034e-18 -6.23971e-23 -1.71052e-15
1.79756e-18 2.1797e-22 -1.37249e-15
-3.50224e-19 -6.06728e-23 2.67382e-16
3.53022e-19 2.18109e-21 -2.68828e-16
1.79763e-18 -1.16919e-22 -1.37251e-15
-9.2053e-19 4.4332e-22 7.02843e-16
1.79757e-18 -1.66532e-21 -1.37249e-15
0.00422673 -0.000318641 0.000571483
1.15928e-18 -5.09448e-21 -8.85528e-16
2.01446e-19 -1.2027e-21 -1.54943e-16
0.00412762 -0.000303149 0.00055463
0.00424858 -0.000322226 0.000575271
-3.50213e-19 4.40932e-21 2.67381e-16
0.00429229 -0.000329399 0.000582851
-2.12706e-13 1.06474e-12 -3.82269e-13
-2.11978e-16 -3.73696e-15 2.94987e-15
1.79758e-18 6.48764e-22 -1.37249e-15
-3.45642e-19 -8.78608e-22 2.6856e-16
6.80366e-15 2.299e-14 -7.03245e-14
0.00427044 -0.000325812 0.000579061
1.79759e-18 9.22038e-23 -1.37249e-15
-1.88819e-22 2.43013e-21 -1.68321e-21
2.24036e-18 2.06803e-20 -1.71051e-15
-3.50198e-19 1.30871e-22 2.67382e-16
1.38419e-14 -1.32572e-14 1.21054e-14
-1.25498e-13 -1.93008e-14 4.08516e-14
1.45281e-18 7.34367e-22 -1.10923e-15
4.60465e-19 2.58253e-20 -4.11461e-16
-1.39884e-14 -1.31066e-14 2.15811e-14
-3.10678e-14 6.53361e-14 2.58064e-15
0.004336 -0.000336571 0.00059043
-3.50181e-19 3.30371e-23 2.67381e-16
2.24032e-18 -6.02301e-21 -1.71052e-15
2.24036e-18 1.07799e-20 -1.71051e-15
6.18345e-19 -5.21155e-20 -4.11441e-16
2.24036e-18 -4.57045e-21 -1.71052e-15
6.88207e-16 -4.5769e-15 -5.98175e-14
-2.61621e-17 8.27083e-18 -2.30398e-15
-3.5018e-19 4.91495e-23 2.6738e-16
2.00509e-18 -1.17273e-20 -1.5309e-15
1.79762e-18 2.77092e-21 -1.37251e-15
2.81059e-18 1.47883e-22 -2.14593e-15
1.27982e-18 4.38635e-20 -9.39254e-16
1.7976e-18 4.50443e-23 -1.37249e-15
1.79758e-18 -3.15651e-21 -1.37249e-15
-1.2847e-14 6.09061e-14 -1.90218e-13
0.00437971 -0.000343742 0.000598008
1.79764e-18 -1.90175e-22 -1.37251e-15
0.00435786 -0.000340157 0.000594218
0.00431415 -0.000332984 0.00058664
4.30237e-18 -1.80377e-14 -5.94669e-14
2.3176e-14 -2.56117e-14 -4.34455e-15
1.79759e-18 2.69739e-21 -1.37251e-15
1.79757e-18 3.91206e-22 -1.37249e-15
8.50397e-15 1.07796e-14 -4.69417e-15
1.17367e-12 7.6854e-13 1.86379e-13
-6.29894e-19 5.35227e-21 4.80092e-16
1.79762e-18 6.03154e-22 -1.37251e-15
1.79762e-18 9.23458e-22 -1.37251e-15
2.24035e-18 -5.65184e-22 -1.71051e-15
1.79761e-18 -7.15775e-21 -1.37251e-15
-2.08807e-15 5.04127e-14 2.1718e-13
1.79758e-18 -8.84054e-21 -1.37249e-15
2.81059e-18 1.32467e-20 -2.14593e-15
6.8458e-21 9.36543e-22 -2.32077e-21

VECTORS force float
0.0 -5.74895e-27 0.0
-1.12616e-18 -7.58631e-18 -1.47941e-21
-5.68687e-25 5.16988e-25 2.06795e-25
0.0 -4.90818e-27 0.0
0.0 -5.05021e-26 0.0
0.0 -7.95296e-26 0.0
0.0 0.0 0.0
0.0 -8.29056e-26 0.0
0.0 2.24489e-27 0.0
-4.08485e-21 -8.37416e-20 -4.42616e-20
0.0 -8.3901e-27 0.0
0.0 1.12017e-26 0.0
-4.03897e-28 7.16041e-26 0.0
0.0 0.0 0.0
-4.03897e-28 8.91397e-26 0.0
0.0 -1.3159e-26 0.0
0.0 -3.71546e-27 0.0
-1.36182e-19 -2.21363e-19 2.39736e-19
0.0 -5.16988e-26 0.0
-1.05061e-18 3.42199e-18 -3.75615e-18
0.0 1.60848e-26 0.0
0.0 6.50891e-28 0.0
0.0 2.23531e-29 0.0
0.0 1.07069e-25 0.0
0.0 -4.79632e-26 0.0
0.0 -5.63793e-27 0.0
0.0 -2.28291e-25 0.0
0.0 -5.07787e-27 0.0
0.0 0.0 0.0
1.5425e-20 -8.66526e-20 -2.49333e-20
0.0 -3.82371e-26 0.0
-8.61423e-19 -1.66929e-18 2.25953e-19
0.0 2.26141e-26 0.0
0.0 -1.85481e-26 0.0
0.0 6.58379e-29 0.0
-1.29247e-26 -4.84676e-27 2.06795e-25
-4.03897e-28 -4.11381e-26 0.0
0.0 -1.33802e-26 0.0
0.0 -3.89374e-27 0.0
0.0 2.11644e-26 0.0
6.79676e-19 -1.84864e-18 8.93562e-22
0.0 -1.35398e-26 0.0
0.0 -5.16988e-26 0.0
-4.03897e-28 4.41799e-27 0.0
-7.47694e-24 -1.9387e-25 0.0
0.0 1.76073e-26 0.0
0.0 -1.60326e-26 0.0
0.0 -4.06519e-27 0.0
5.37732e-19 3.00653e-19 1.39905e-19
-2.34806e-18 -1.04013e-18 -3.07277e-21
0.0 -9.97672e-26 0.0
-4.03897e-28 2.93435e-25 0.0
0.0 -1.71787e-26 0.0
-6.30068e-18 -1.04243e-17 -1.4525e-18
0.0 1.61832e-26 0.0
0.0 -9.56539e-26 0.0
1.14895e-18 7.73971e-18 1.50919e-21
0.0 2.66108e-26 0.0
0.0 0.0 0.0
0.0 2.00536e-25 0.0
0.0 2.38356e-27 0.0
0.0 -5.31896e-27 0.0
0.0 3.20146e-26 0.0
-4.03897e-28 1.21205e-26 0.0
-5.16988e-26 1.29247e-26 2.06795e-25
0.0 7.1192e-27 0.0
4.43554e-19 -2.38279e-19 7.60162e-20
0.0 4.07711e-25 0.0
0.0 -1.40619e-26 0.0
0.0 -1.21529e-24 0.0
2.89198e-18 1.28107e-18 3.78518e-21
0.0 -2.92186e-25 0.0
0.0 -4.88347e-25 0.0
0.0 -6.479e-26 0.0
0.0 -5.36025e-26 0.0
0.0 -1.2286e-26 0.0
0.0 -7.78154e-27 0.0
0.0 -5.16988e-26 4.1359e-25
0.0 1.35378e-26 0.0
0.0 4.63208e-26 0.0
0.0 -6.58659e-26 0.0
0.0 -9.87149e-27 0.0
-1.15828e-23 0.0 0.0
9.84359e-19 -1.42857e-16 -3.95495e-17
0.0 1.97644e-25 0.0
0.0 -2.41704e-25 0.0
0.0 0.0 0.0
0.0 -3.08184e-26 0.0
7.54488e-20 -2.35454e-18 1.13917e-19
0.0 3.47495e-26 0.0
3.16552e-18 7.32546e-18 2.61925e-18
0.0 5.68476e-26 0.0
0.0 -1.77075e-26 0.0
0.0 6.84627e-26 0.0
-7.07354e-18 2.15508e-18 -3.70539e-18
4.03897e-28 2.48074e-27 0.0
0.0 4.49984e-28 0.0
0.0 4.90796e-26 0.0
0.0 -5.64424e-26 0.0
0.0 -3.20179e-27 0.0
1.52187e-20 2.56386e-20 -1.60916e-20
0.0 1.62696e-25 0.0
0.0 -5.16988e-26 0.0
0.0 6.91247e-29 0.0
0.0 -8.32814e-28 0.0
0.0 5.16988e-26 0.0
0.0 3.60145e-27 0.0
0.0 7.94267e-25 0.0
5.8488e-18 -2.7134e-18 2.1302e-18
6.87255e-20 1.10808e-19 -1.83725e-20
0.0 8.2822e-27 0.0
0.0 -1.29247e-26 0.0
0.0 -1.96998e-25 0.0
0.0 -4.8888e-26 0.0
0.0 4.86272e-25 0.0
0.0 0.0 0.0
0.0 1.01547e-27 0.0
-1.48852e-19 3.18104e-19 7.23266e-21
0.0 -1.57491e-26 0.0
0.0 6.50194e-29 0.0
0.0 3.12975e-27 0.0
0.0 -9.18983e-27 0.0
-4.03897e-28 -1.36895e-26 0.0
3.43882e-19 8.02192e-19 2.92594e-20
0.0 9.20262e-28 0.0
2.68685e-20 -2.81603e-22 6.45095e-20
2.71999e-20 -1.56092e-19 -4.25659e-20
-4.03897e-28 2.12839e-26 0.0
-3.87741e-26 2.58494e-26 0.0
0.0 -1.29247e-26 0.0
-2.88338e-20 1.99901e-20 1.11107e-20
0.0 -2.22481e-26 0.0
5.16988e-26 0.0 0.0
2.58494e-26 0.0 0.0
0.0 2.58494e-26 0.0
1.28616e-19 -8.94905e-20 1.12686e-19
1.60899e-19 3.32073e-19 2.50654e-19
0.0 0.0 -2.06795e-25
7.18623e-19 -2.25638e-18 1.2851e-19
-4.03054e-19 -1.05088e-18 -3.55684e-19
0.0 -1.16473e-25 0.0
0.0 7.46943e-26 0.0
1.03398e-24 -1.55096e-25 1.24077e-24
4.03897e-28 -8.41797e-27 0.0
0.0 -2.06892e-26 0.0
0.0 5.34931e-25 0.0
0.0 1.01953e-26 0.0
2.49547e-19 7.09593e-20 1.43327e-19
0.0 0.0 0.0
-4.03897e-28 3.94492e-29 0.0
-8.1803e-25 -5.16988e-26 0.0
4.03897e-28 1.09703e-26 0.0
0.0 0.0 0.0
0.0 1.47603e-27 0.0
0.0 2.33731e-30 0.0
0.0 5.62851e-26 0.0
0.0 -5.33426e-27 0.0
-8.39622e-18 -4.34383e-18 -1.70125e-18
-1.68715e-19 -1.76924e-19 1.33705e-19
0.0 -2.50822e-25 0.0
0.0 -3.29613e-26 0.0
0.0 -1.23482e-25 0.0
0.0 1.94324e-25 0.0
0.0 4.91602e-26 0.0
0.0 0.0 0.0
0.0 5.16988e-26 0.0
-1.28476e-17 1.89241e-18 -2.84306e-18
0.0 2.58494e-26 0.0
-2.97301e-18 8.38805e-19 7.68025e-19
0.0 -4.67968e-27 0.0
0.0 1.70776e-29 0.0
0.0 -5.42977e-27 0.0
0.0 -1.32991e-26 0.0
0.0 5.16988e-26 0.0
0.0 1.38514e-26 0.0
0.0 0.0 0.0
0.0 2.75421e-26 0.0
0.0 -2.58494e-26 0.0
-6.73938e-19 1.833e-18 -8.8591e-22
0.0 3.58993e-25 0.0
0.0 3.59817e-27 0.0
-5.16988e-26 2.58494e-26 0.0
0.0 -3.10563e-27 0.0
8.44685e-19 -5.59867e-18 -1.93577e-18
0.0 -5.16988e-26 0.0
0.0 -6.56295e-28 0.0
0.0 -2.54981e-25 0.0
0.0 -1.34492e-27 0.0
5.84018e-17 -5.22223e-18 -8.29139e-18
0.0 -7.29615e-27 0.0
3.03557e-21 -4.40462e-20 3.4907e-22
0.0 -2.69681e-26 0.0
-4.03897e-28 1.43e-26 0.0
-1.04399e-18 -6.63072e-19 1.80731e-20
0.0 3.00753e-25 0.0
1.03398e-25 -5.55762e-25 -1.03398e-24
0.0 -6.89175e-29 0.0
-4.81523e-17 4.59878e-18 1.12307e-17
-2.03742e-18 -2.80331e-18 -4.46722e-19
0.0 5.16988e-26 0.0
4.03897e-28 -8.87569e-27 0.0
0.0 2.49028e-26 0.0
0.0 8.31931e-26 0.0
0.0 -3.88602e-26 0.0
0.0 5.59514e-28 0.0
1.15756e-19 -1.14352e-20 3.76789e-20
4.03897e-28 -8.07794e-28 0.0
0.0 -1.07808e-27 0.0
5.16988e-26 3.23117e-27 -4.1359e-25
0.0 1.17657e-26 0.0
0.0 -1.28486e-28 0.0
0.0 -5.16988e-26 4.84676e-27
0.0 1.02179e-26 0.0
0.0 6.73797e-27 0.0
0.0 -5.81074e-28 0.0
0.0 0.0 0.0
4.03897e-28 9.28807e-28 0.0
0.0 -1.20474e-27 0.0
0.0 -2.40737e-26 0.0
1.19671e-12 -1.12806e-14 9.0274e-14
0.0 0.0 0.0
0.0 5.16988e-26 0.0
3.22852e-13 1.58009e-13 -1.27818e-14
1.09535e-12 2.03604e-14 1.35975e-13
0.0 1.94716e-25 0.0
9.86914e-13 3.34463e-15 3.258e-14
2.39209e-17 -2.30595e-18 -3.25482e-18
-1.42974e-19 -6.90924e-20 -7.03919e-20
0.0 1.41626e-27 0.0
0.0 -1.29247e-26 0.0
-3.74816e-23 -6.87594e-24 -5.99706e-24
1.0366e-12 3.05725e-14 1.15601e-13
0.0 3.28122e-27 0.0
0.0 0.0 0.0
0.0 -1.60368e-25 0.0
0.0 2.41561e-27 0.0
-6.63203e-20 2.48122e-19 9.41119e-20
-1.65631e-18 9.47468e-19 -5.61705e-19
0.0 -3.6306e-26 0.0
-1.18907e-24 4.1359e-25 0.0
-1.95283e-20 2.46662e-20 -1.70462e-19
2.0012e-19 1.32852e-19 2.32817e-19
8.45569e-13 3.59403e-14 3.38752e-14
0.0 -3.63519e-28 0.0
0.0 9.32164e-26 0.0
0.0 1.34656e-25 0.0
-9.69352e-27 -5.68687e-25 2.06795e-25
0.0 -1.19854e-25 0.0
1.19553e-24 2.32645e-25 0.0
3.81279e-25 -8.603e-25 0.0
0.0 -2.47631e-27 0.0
0.0 -3.83646e-26 0.0
0.0 8.62673e-26 0.0
0.0 3.28726e-27 0.0
1.13091e-26 4.84676e-27 -2.06795e-25
4.03897e-28 -1.62255e-27 0.0
0.0 1.44604e-26 0.0
-1.13745e-21 -2.53479e-22 -6.82424e-24
6.92745e-13 7.07394e-14 3.60867e-14
0.0 7.77718e-27 0.0
7.51802e-13 6.94202e-14 5.93901e-14
8.79711e-13 6.65504e-14 1.25373e-13
4.44584e-24 -5.16988e-26 0.0
1.684e-20 9.16305e-20 -4.87395e-21
0.0 5.13956e-26 0.0
-4.03897e-28 -4.2015e-26 0.0
-5.64869e-20 2.55559e-20 7.3612e-20
-4.69321e-18 3.82377e-18 -1.48141e-18
-5.16988e-26 -5.16988e-26 0.0
0.0 4.83854e-27 0.0
0.0 4.45521e-26 0.0
0.0 7.95039e-27 0.0
4.03897e-28 5.86221e-26 0.0
-1.72965e-23 -1.13737e-24 0.0
0.0 -4.21422e-26 0.0
0.0 1.5332e-25 0.0
0.0 0.0 1.55096e-25
