# vtk DataFile Version 3.0
LIGGGHTS particles timestep 27800000
ASCII
DATASET POLYDATA
POINTS 287 float
0.140512 0.0165611 0.00771891
0.140769 0.0177482 0.00722922
0.140777 0.0178459 0.00720927
0.140708 0.017535 0.0072705
0.140067 0.0161236 0.00833069
0.146428 0.0175042 0.00741922
0.14021 0.0165375 0.00778704
0.140042 0.0160425 0.00838354
0.146668 0.0185412 0.00689961
0.140429 0.0175029 0.0073521
0.140448 0.0167835 0.00747519
0.146625 0.0183564 0.00696351
0.140407 0.0174072 0.00737125
0.133979 0.0157405 0.00850671
0.140353 0.0167416 0.00752285
0.133959 0.0157106 0.00859991
0.140359 0.0171878 0.00745592
0.146885 0.0187084 0.00684509
0.140582 0.017269 0.00740225
0.14058 0.0171092 0.00735253
0.140087 0.0161715 0.00824526
0.140342 0.016678 0.00759924
0.146584 0.0181719 0.00702818
0.140324 0.0166155 0.00767518
0.146524 0.0178961 0.00712635
0.13425 0.016729 0.00770922
0.140603 0.0173648 0.00738272
0.14641 0.0174279 0.00748127
0.140503 0.0174356 0.00736862
0.140281 0.0168126 0.00752287
0.146449 0.0175796 0.00735709
0.140677 0.0176511 0.00732277
0.140417 0.016587 0.00769869
0.146708 0.0187262 0.0068356
0.140191 0.0164722 0.00786037
0.140306 0.0165529 0.00775112
0.140229 0.016608 0.00771867
0.140363 0.0163994 0.00792643
0.140244 0.0166582 0.00763347
0.140493 0.0169428 0.00738258
0.140686 0.017803 0.00721337
0.146468 0.0176556 0.00729501
0.146554 0.0179852 0.00709215
0.140128 0.016286 0.00808708
0.140564 0.0170124 0.00737185
0.146501 0.0178115 0.00717405
0.140428 0.0172314 0.00739842
0.134558 0.0169037 0.00762456
0.140541 0.0166873 0.00756659
0.134552 0.0174183 0.00753598
0.140697 0.0177525 0.00729902
0.146482 0.017733 0.00723317
0.134266 0.0163875 0.00782112
0.146604 0.018264 0.00699546
0.140589 0.0169181 0.00739292
0.140106 0.0162239 0.0081621
0.140468 0.0168475 0.00740115
0.140688 0.0174391 0.00728943
0.146562 0.0180793 0.00705935
0.14002 0.0159807 0.00845905
0.1344 0.0165998 0.00773905
0.140555 0.0172037 0.00733145
0.134361 0.0164149 0.00780396
0.140262 0.0167209 0.00755766
0.146792 0.0186745 0.00685523
0.134439 0.0174383 0.00753114
0.146647 0.0184488 0.00693156
0.140149 0.0163478 0.00801129
0.140644 0.0184478 0.00707643
0.140171 0.0164094 0.00793556
0.146866 0.0186122 0.00687844
0.140602 0.0178197 0.00731045
0.134038 0.0158367 0.00823064
0.134131 0.0161744 0.00790457
0.14063 0.0175952 0.00725373
0.134625 0.0174983 0.00750595
0.13427 0.016821 0.00767529
0.134052 0.0158744 0.00813918
0.14677 0.0185797 0.00688802
0.134114 0.0157981 0.00828619
0.140571 0.0176241 0.00732876
0.146689 0.0186336 0.00686766
0.140512 0.0174671 0.00727411
0.140586 0.0174024 0.00729163
0.140564 0.0173057 0.00731065
0.140385 0.0169014 0.00741355
0.140582 0.0177612 0.00721648
0.140604 0.0178578 0.00719751
0.140491 0.0173711 0.00729302
0.140497 0.0177869 0.00729471
0.140555 0.0176591 0.00723636
0.140674 0.017885 0.00728724
0.134306 0.0165725 0.0077562
0.140796 0.0180396 0.00716984
0.134455 0.016442 0.00778687
0.140326 0.0169794 0.00743739
0.140446 0.0167143 0.00754734
0.134441 0.0167846 0.00767413
0.134458 0.0175304 0.00749743
0.140358 0.0171572 0.00736075
0.133999 0.0157707 0.00841359
0.140547 0.017526 0.0073473
0.140475 0.0170583 0.00735753
0.140396 0.0173395 0.00729452
0.14048 0.0177231 0.00721896
0.134191 0.0164514 0.00780628
0.140416 0.0174356 0.00727555
0.134333 0.0170957 0.00757288
0.140798 0.0179417 0.00719039
0.140762 0.017374 0.00730698
0.139999 0.0159196 0.00853517
0.134409 0.0170343 0.00759324
0.146392 0.0173516 0.00754332
0.140436 0.0166509 0.00762399
0.139977 0.015857 0.00861007
0.140666 0.0185436 0.00705759
0.134187 0.0160262 0.00796964
0.140702 0.0180052 0.00717195
0.14025 0.0163657 0.00797861
0.140355 0.016816 0.00745602
0.134091 0.015998 0.00798822
0.140473 0.0173335 0.00738404
0.134346 0.0167579 0.00769112
0.140301 0.0169087 0.0075033
0.13442 0.0166923 0.0077066
0.140846 0.0181614 0.00714711
0.140288 0.0164903 0.00782706
0.140454 0.0171582 0.00733552
0.14053 0.0166236 0.00764299
0.134093 0.0157681 0.00837924
0.140698 0.0179061 0.00719246
0.140608 0.0174983 0.00727275
0.140475 0.017261 0.00731516
0.140526 0.0177497 0.00738271
0.134132 0.0158411 0.00819762
0.140405 0.0169884 0.00736833
0.140419 0.0171082 0.00742296
0.140377 0.0172433 0.00731359
0.1406 0.0182539 0.00711456
0.134021 0.0158159 0.00832701
0.140338 0.0170614 0.00738127
0.140534 0.0175633 0.0072552
0.139955 0.0157951 0.00868558
0.134451 0.0172174 0.00752496
0.139934 0.0157265 0.008755
0.134312 0.0170041 0.00760702
0.134151 0.0162665 0.0078712
0.134381 0.0165073 0.00777151
0.140733 0.0179706 0.00726049
0.134325 0.0166653 0.00772366
0.140207 0.0162419 0.00812975
0.134568 0.0173371 0.00747784
0.140577 0.0181492 0.00713515
0.134579 0.0169959 0.0075921
0.140531 0.0178798 0.00727475
0.134483 0.016969 0.00760917
0.140381 0.0164619 0.00785054
0.134321 0.01623 0.00786887
0.140459 0.0176273 0.0072378
0.134801 0.0175805 0.00737866
0.13443 0.0171258 0.0075591
0.140752 0.0181272 0.00714919
0.134727 0.0176449 0.00736067
0.140726 0.0183929 0.0070923
0.134526 0.0171538 0.00754554
0.134941 0.0177971 0.00729473
0.13423 0.0166365 0.00774172
0.1346 0.0170881 0.00755963
0.134462 0.0168768 0.00764166
0.134354 0.0171873 0.00753875
0.140437 0.0175315 0.00725666
0.134226 0.0162026 0.00788604
0.14027 0.0164297 0.00790449
0.134664 0.0173646 0.00746222
0.140862 0.0177147 0.00724125
0.134473 0.0173091 0.00749081
0.134559 0.0176911 0.00737668
0.146729 0.0188232 0.00684863
0.140555 0.0180533 0.00715402
0.140568 0.0168408 0.0074527
0.134375 0.0172789 0.00750461
0.140674 0.0181891 0.00713208
0.134552 0.0175679 0.00748564
0.140587 0.017721 0.00730839
0.140164 0.0161181 0.0082808
0.134826 0.0176718 0.00734619
0.134301 0.0161375 0.00790133
0.140138 0.0160572 0.00835566
0.134246 0.016295 0.00785358
0.134759 0.0173917 0.00744506
0.134111 0.0160825 0.00793877
0.134603 0.0178623 0.00728456
0.134647 0.0175933 0.0074673
0.140399 0.0165244 0.0077746
0.134733 0.0176469 0.00746045
0.134291 0.0169125 0.00764115
0.134505 0.0170617 0.00757828
0.134475 0.0165345 0.00775441
0.134685 0.0174568 0.00742977
0.13421 0.0165439 0.00777394
0.140783 0.0174706 0.00728797
0.140614 0.0179577 0.00717714
0.146749 0.0189151 0.00688245
0.140491 0.0176869 0.00731157
0.134367 0.0168501 0.00765867
0.134388 0.0169424 0.00762663
0.140622 0.018352 0.00709527
0.140524 0.0179147 0.00718128
0.140502 0.0178189 0.00720012
0.140228 0.0163039 0.00805413
0.134206 0.0161101 0.0079186
0.140185 0.0161802 0.00820516
0.134171 0.0163589 0.00783874
0.134071 0.015928 0.00805677
0.146808 0.0187678 0.00682289
0.13461 0.0175203 0.00740956
0.133938 0.0156802 0.00869294
0.134494 0.0174007 0.00745666
0.134286 0.0164799 0.00778867
0.134867 0.0178617 0.00727735
0.134417 0.017462 0.00743634
0.134341 0.0163224 0.00783642
0.140657 0.0180925 0.00715135
0.140651 0.0176912 0.00723481
0.134565 0.0181031 0.0071974
0.134502 0.0178284 0.0072998
0.134717 0.0179877 0.0072354
0.134515 0.0174924 0.00742247
0.128294 0.0168606 0.00745121
0.134481 0.0177368 0.00733394
0.134537 0.0175844 0.00738818
0.128275 0.0167874 0.00751664
0.128313 0.0169339 0.00738579
0.13446 0.0176452 0.00736807
0.128352 0.0170935 0.00727223
0.140095 0.0159335 0.00850671
0.140705 0.0182971 0.00711114
0.134439 0.0175536 0.00740221
0.140116 0.0159954 0.0084312
0.140542 0.0167518 0.00749019
0.128332 0.0170103 0.00732415
0.134642 0.0172724 0.00749469
0.134589 0.0174287 0.0074437
0.134495 0.016627 0.00772196
0.134465 0.0176261 0.0074661
0.134702 0.0182645 0.00713448
0.134699 0.0178916 0.0072711
0.134778 0.017489 0.00741114
0.140743 0.0176534 0.00724764
0.134544 0.0180115 0.00723153
0.134793 0.017926 0.00725585
0.12841 0.0173677 0.00717542
0.134624 0.017954 0.00725036
0.134396 0.0173705 0.00747048
0.140543 0.0179966 0.00723546
0.134536 0.0168116 0.00765703
0.134703 0.0175538 0.00739467
0.134657 0.017716 0.00735519
0.134678 0.0178 0.00730523
0.134657 0.0181447 0.00717959
0.13473 0.0180806 0.00720099
0.134629 0.0176198 0.0073726
0.134773 0.0178281 0.00729226
0.134848 0.0177644 0.00731351
0.134613 0.0183081 0.00712099
0.14077 0.0182238 0.00712998
0.128371 0.0171767 0.00722033
0.128427 0.0174654 0.00718814
0.134621 0.0171803 0.00752716
0.128446 0.0175626 0.00720131
0.12839 0.017272 0.007197
0.134581 0.0177698 0.00731903
0.134523 0.01792 0.00726567
0.134752 0.0177365 0.00732639
0.140472 0.0175904 0.00732972
0.134642 0.0180535 0.00723862
0.13415 0.0158955 0.00811581
0.134749 0.0181811 0.00716369
0.134737 0.0172989 0.00747781
0.140666 0.0173432 0.00730831
0.134592 0.0182165 0.00715513
0.134167 0.0159563 0.00803805
0.140801 0.0183293 0.00710964
0.14074 0.0172781 0.00732587
0.134547 0.0172455 0.00751192
0.134515 0.0167194 0.0076895
0.140645 0.0172473 0.00732719

VERTICES 287 574
1 0
1 1
1 2
1 3
1 4
1 5
1 6
1 7
1 8
1 9
1 10
1 11
1 12
1 13
1 14
1 15
1 16
1 17
1 18
1 19
1 20
1 21
1 22
1 23
1 24
1 25
1 26
1 27
1 28
1 29
1 30
1 31
1 32
1 33
1 34
1 35
1 36
1 37
1 38
1 39
1 40
1 41
1 42
1 43
1 44
1 45
1 46
1 47
1 48
1 49
1 50
1 51
1 52
1 53
1 54
1 55
1 56
1 57
1 58
1 59
1 60
1 61
1 62
1 63
1 64
1 65
1 66
1 67
1 68
1 69
1 70
1 71
1 72
1 73
1 74
1 75
1 76
1 77
1 78
1 79
1 80
1 81
1 82
1 83
1 84
1 85
1 86
1 87
1 88
1 89
1 90
1 91
1 92
1 93
1 94
1 95
1 96
1 97
1 98
1 99
1 100
1 101
1 102
1 103
1 104
1 105
1 106
1 107
1 108
1 109
1 110
1 111
1 112
1 113
1 114
1 115
1 116
1 117
1 118
1 119
1 120
1 121
1 122
1 123
1 124
1 125
1 126
1 127
1 128
1 129
1 130
1 131
1 132
1 133
1 134
1 135
1 136
1 137
1 138
1 139
1 140
1 141
1 142
1 143
1 144
1 145
1 146
1 147
1 148
1 149
1 150
1 151
1 152
1 153
1 154
1 155
1 156
1 157
1 158
1 159
1 160
1 161
1 162
1 163
1 164
1 165
1 166
1 167
1 168
1 169
1 170
1 171
1 172
1 173
1 174
1 175
1 176
1 177
1 178
1 179
1 180
1 181
1 182
1 183
1 184
1 185
1 186
1 187
1 188
1 189
1 190
1 191
1 192
1 193
1 194
1 195
1 196
1 197
1 198
1 199
1 200
1 201
1 202
1 203
1 204
1 205
1 206
1 207
1 208
1 209
1 210
1 211
1 212
1 213
1 214
1 215
1 216
1 217
1 218
1 219
1 220
1 221
1 222
1 223
1 224
1 225
1 226
1 227
1 228
1 229
1 230
1 231
1 232
1 233
1 234
1 235
1 236
1 237
1 238
1 239
1 240
1 241
1 242
1 243
1 244
1 245
1 246
1 247
1 248
1 249
1 250
1 251
1 252
1 253
1 254
1 255
1 256
1 257
1 258
1 259
1 260
1 261
1 262
1 263
1 264
1 265
1 266
1 267
1 268
1 269
1 270
1 271
1 272
1 273
1 274
1 275
1 276
1 277
1 278
1 279
1 280
1 281
1 282
1 283
1 284
1 285
1 286

POINT_DATA 287
SCALARS id int 1
LOOKUP_TABLE default
1
2
3
4
5
6
7
8
9
10
11
12
13
14
15
16
17
18
19
20
21
22
24
25
26
27
29
30
31
32
33
34
35
36
37
38
40
41
42
43
44
45
46
47
48
49
50
52
54
55
56
57
58
59
60
61
62
63
64
65
66
67
68
69
70
71
72
73
74
75
76
77
78
79
80
81
82
83
84
85
86
87
88
89
90
91
92
93
94
95
96
98
99
100
101
102
103
104
105
106
107
108
109
110
111
112
113
114
115
116
117
118
119
120
121
122
123
124
125
126
127
128
129
130
131
132
133
134
135
136
137
138
139
140
141
142
144
145
146
147
148
149
150
152
153
154
155
156
157
158
159
160
161
162
164
165
166
167
168
169
170
171
172
173
174
175
176
177
178
179
180
181
182
183
184
185
186
187
188
189
190
191
192
193
194
195
196
197
198
199
200
201
202
203
204
205
206
207
208
209
210
211
213
214
215
216
217
218
219
220
221
222
223
224
225
226
227
228
229
230
231
232
233
234
235
236
237
238
239
241
242
243
244
245
246
247
248
249
250
251
252
253
254
255
256
257
258
259
260
261
262
263
264
265
267
268
269
270
271
272
273
274
275
276
277
278
279
280
281
282
283
284
285
286
287
288
289
290
292
293
294
295
296
297
298
299
300

SCALARS type int 1
LOOKUP_TABLE default
1
1
1
1
1
1
1
1
1
1
1
1
1
1
1
1
1
1
1
1
1
1
1
1
1
1
1
1
1
1
1
1
1
1
1
1
1
1
1
1
1
1
1
1
1
1
1
1
1
1
1
1
1
1
1
1
1
1
1
1
1
1
1
1
1
1
1
1
1
1
1
1
1
1
1
1
1
1
1
1
1
1
1
1
1
1
1
1
1
1
1
1
1
1
1
1
1
1
1
1
1
1
1
1
1
1
1
1
1
1
1
1
1
1
1
1
1
1
1
1
1
1
1
1
1
1
1
1
1
1
1
1
1
1
1
1
1
1
1
1
1
1
1
1
1
1
1
1
1
1
1
1
1
1
1
1
1
1
1
1
1
1
1
1
1
1
1
1
1
1
1
1
1
1
1
1
1
1
1
1
1
1
1
1
1
1
1
1
1
1
1
1
1
1
1
1
1
1
1
1
1
1
1
1
1
1
1
1
1
1
1
1
1
1
1
1
1
1
1
1
1
1
1
1
1
1
1
1
1
1
1
1
1
1
1
1
1
1
1
1
1
1
1
1
1
1
1
1
1
1
1
1
1
1
1
1
1
1
1
1
1
1
1
1
1
1
1
1
1
1
1
1
1
1
1
1
1
1
1
1
1
1
1
1
1
1
1

SCALARS radius float 1
LOOKUP_TABLE default
5e-05
5e-05
5e-05
5e-05
5e-05
5e-05
5e-05
5e-05
5e-05
5e-05
5e-05
5e-05
5e-05
5e-05
5e-05
5e-05
5e-05
5e-05
5e-05
5e-05
5e-05
5e-05
5e-05
5e-05
5e-05
5e-05
5e-05
5e-05
5e-05
5e-05
5e-05
5e-05
5e-05
5e-05
5e-05
5e-05
5e-05
5e-05
5e-05
5e-05
5e-05
5e-05
5e-05
5e-05
5e-05
5e-05
5e-05
5e-05
5e-05
5e-05
5e-05
5e-05
5e-05
5e-05
5e-05
5e-05
5e-05
5e-05
5e-05
5e-05
5e-05
5e-05
5e-05
5e-05
5e-05
5e-05
5e-05
5e-05
5e-05
5e-05
5e-05
5e-05
5e-05
5e-05
5e-05
5e-05
5e-05
5e-05
5e-05
5e-05
5e-05
5e-05
5e-05
5e-05
5e-05
5e-05
5e-05
5e-05
5e-05
5e-05
5e-05
5e-05
5e-05
5e-05
5e-05
5e-05
5e-05
5e-05
5e-05
5e-05
5e-05
5e-05
5e-05
5e-05
5e-05
5e-05
5e-05
5e-05
5e-05
5e-05
5e-05
5e-05
5e-05
5e-05
5e-05
5e-05
5e-05
5e-05
5e-05
5e-05
5e-05
5e-05
5e-05
5e-05
5e-05
5e-05
5e-05
5e-05
5e-05
5e-05
5e-05
5e-05
5e-05
5e-05
5e-05
5e-05
5e-05
5e-05
5e-05
5e-05
5e-05
5e-05
5e-05
5e-05
5e-05
5e-05
5e-05
5e-05
5e-05
5e-05
5e-05
5e-05
5e-05
5e-05
5e-05
5e-05
5e-05
5e-05
5e-05
5e-05
5e-05
5e-05
5e-05
5e-05
5e-05
5e-05
5e-05
5e-05
5e-05
5e-05
5e-05
5e-05
5e-05
5e-05
5e-05
5e-05
5e-05
5e-05
5e-05
5e-05
5e-05
5e-05
5e-05
5e-05
5e-05
5e-05
5e-05
5e-05
5e-05
5e-05
5e-05
5e-05
5e-05
5e-05
5e-05
5e-05
5e-05
5e-05
5e-05
5e-05
5e-05
5e-05
5e-05
5e-05
5e-05
5e-05
5e-05
5e-05
5e-05
5e-05
5e-05
5e-05
5e-05
5e-05
5e-05
5e-05
5e-05
5e-05
5e-05
5e-05
5e-05
5e-05
5e-05
5e-05
5e-05
5e-05
5e-05
5e-05
5e-05
5e-05
5e-05
5e-05
5e-05
5e-05
5e-05
5e-05
5e-05
5e-05
5e-05
5e-05
5e-05
5e-05
5e-05
5e-05
5e-05
5e-05
5e-05
5e-05
5e-05
5e-05
5e-05
5e-05
5e-05
5e-05
5e-05
5e-05
5e-05
5e-05
5e-05
5e-05
5e-05
5e-05
5e-05
5e-05
5e-05
5e-05
5e-05
5e-05
5e-05
5e-05
5e-05
5e-05
5e-05
5e-05
5e-05
5e-05
5e-05
5e-05
5e-05
5e-05
5e-05
5e-05
5e-05
5e-05
5e-05
5e-05
5e-05

SCALARS mass float 1
LOOKUP_TABLE default
1.46608e-10
1.46608e-10
1.46608e-10
1.46608e-10
1.46608e-10
1.46608e-10
1.46608e-10
1.46608e-10
1.46608e-10
1.46608e-10
1.46608e-10
1.46608e-10
1.46608e-10
1.46608e-10
1.46608e-10
1.46608e-10
1.46608e-10
1.46608e-10
1.46608e-10
1.46608e-10
1.46608e-10
1.46608e-10
1.46608e-10
1.46608e-10
1.46608e-10
1.46608e-10
1.46608e-10
1.46608e-10
1.46608e-10
1.46608e-10
1.46608e-10
1.46608e-10
1.46608e-10
1.46608e-10
1.46608e-10
1.46608e-10
1.46608e-10
1.46608e-10
1.46608e-10
1.46608e-10
1.46608e-10
1.46608e-10
1.46608e-10
1.46608e-10
1.46608e-10
1.46608e-10
1.46608e-10
1.46608e-10
1.46608e-10
1.46608e-10
1.46608e-10
1.46608e-10
1.46608e-10
1.46608e-10
1.46608e-10
1.46608e-10
1.46608e-10
1.46608e-10
1.46608e-10
1.46608e-10
1.46608e-10
1.46608e-10
1.46608e-10
1.46608e-10
1.46608e-10
1.46608e-10
1.46608e-10
1.46608e-10
1.46608e-10
1.46608e-10
1.46608e-10
1.46608e-10
1.46608e-10
1.46608e-10
1.46608e-10
1.46608e-10
1.46608e-10
1.46608e-10
1.46608e-10
1.46608e-10
1.46608e-10
1.46608e-10
1.46608e-10
1.46608e-10
1.46608e-10
1.46608e-10
1.46608e-10
1.46608e-10
1.46608e-10
1.46608e-10
1.46608e-10
1.46608e-10
1.46608e-10
1.46608e-10
1.46608e-10
1.46608e-10
1.46608e-10
1.46608e-10
1.46608e-10
1.46608e-10
1.46608e-10
1.46608e-10
1.46608e-10
1.46608e-10
1.46608e-10
1.46608e-10
1.46608e-10
1.46608e-10
1.46608e-10
1.46608e-10
1.46608e-10
1.46608e-10
1.46608e-10
1.46608e-10
1.46608e-10
1.46608e-10
1.46608e-10
1.46608e-10
1.46608e-10
1.46608e-10
1.46608e-10
1.46608e-10
1.46608e-10
1.46608e-10
1.46608e-10
1.46608e-10
1.46608e-10
1.46608e-10
1.46608e-10
1.46608e-10
1.46608e-10
1.46608e-10
1.46608e-10
1.46608e-10
1.46608e-10
1.46608e-10
1.46608e-10
1.46608e-10
1.46608e-10
1.46608e-10
1.46608e-10
1.46608e-10
1.46608e-10
1.46608e-10
1.46608e-10
1.46608e-10
1.46608e-10
1.46608e-10
1.46608e-10
1.46608e-10
1.46608e-10
1.46608e-10
1.46608e-10
1.46608e-10
1.46608e-10
1.46608e-10
1.46608e-10
1.46608e-10
1.46608e-10
1.46608e-10
1.46608e-10
1.46608e-10
1.46608e-10
1.46608e-10
1.46608e-10
1.46608e-10
1.46608e-10
1.46608e-10
1.46608e-10
1.46608e-10
1.46608e-10
1.46608e-10
1.46608e-10
1.46608e-10
1.46608e-10
1.46608e-10
1.46608e-10
1.46608e-10
1.46608e-10
1.46608e-10
1.46608e-10
1.46608e-10
1.46608e-10
1.46608e-10
1.46608e-10
1.46608e-10
1.46608e-10
1.46608e-10
1.46608e-10
1.46608e-10
1.46608e-10
1.46608e-10
1.46608e-10
1.46608e-10
1.46608e-10
1.46608e-10
1.46608e-10
1.46608e-10
1.46608e-10
1.46608e-10
1.46608e-10
1.46608e-10
1.46608e-10
1.46608e-10
1.46608e-10
1.46608e-10
1.46608e-10
1.46608e-10
1.46608e-10
1.46608e-10
1.46608e-10
1.46608e-10
1.46608e-10
1.46608e-10
1.46608e-10
1.46608e-10
1.46608e-10
1.46608e-10
1.46608e-10
1.46608e-10
1.46608e-10
1.46608e-10
1.46608e-10
1.46608e-10
1.46608e-10
1.46608e-10
1.46608e-10
1.46608e-10
1.46608e-10
1.46608e-10
1.46608e-10
1.46608e-10
1.46608e-10
1.46608e-10
1.46608e-10
1.46608e-10
1.46608e-10
1.46608e-10
1.46608e-10
1.46608e-10
1.46608e-10
1.46608e-10
1.46608e-10
1.46608e-10
1.46608e-10
1.46608e-10
1.46608e-10
1.46608e-10
1.46608e-10
1.46608e-10
1.46608e-10
1.46608e-10
1.46608e-10
1.46608e-10
1.46608e-10
1.46608e-10
1.46608e-10
1.46608e-10
1.46608e-10
1.46608e-10
1.46608e-10
1.46608e-10
1.46608e-10
1.46608e-10
1.46608e-10
1.46608e-10
1.46608e-10
1.46608e-10
1.46608e-10
1.46608e-10
1.46608e-10
1.46608e-10
1.46608e-10
1.46608e-10
1.46608e-10
1.46608e-10
1.46608e-10
1.46608e-10
1.46608e-10
1.46608e-10
1.46608e-10
1.46608e-10
1.46608e-10
1.46608e-10
1.46608e-10
1.46608e-10
1.46608e-10

VECTORS velocity float
0.00413561 -0.000502039 0.000139753
0.00457244 -0.000504917 0.000351833
0.00459471 -0.000499924 0.000351936
0.00449956 -0.000506239 0.000347834
0.00449122 -0.000552297 0.000164864
0.00445304 -0.000218507 -0.000889493
0.00428365 -0.000508471 0.000135708
0.00449216 -0.000551855 0.000161619
0.00497334 0.000118482 5.0393e-05
0.00445557 -0.000504179 0.000305132
0.0042493 -0.000465146 0.000280556
0.00492593 0.000137101 4.53092e-05
0.00445265 -0.000439174 0.000345821
0.00487679 -0.000528034 -0.000619794
0.00420831 -0.000481148 0.000114985
0.00477547 -0.000457388 -0.000575059
0.00424762 -0.000378559 0.000300696
0.00447331 0.000163016 2.55041e-05
0.00428838 -0.000459444 0.000333578
0.0042526 -0.000415372 0.00031412
0.0044887 -0.000554203 0.00016589
0.00420424 -0.000484831 0.00011375
0.00488004 0.000138637 3.93222e-05
0.00419552 -0.000485949 0.000115886
0.0048358 -3.76923e-05 -0.000421494
0.00439915 0.000625489 -0.000502915
0.00436995 -0.000478313 0.000356252
0.00435384 -0.000202587 -0.000878913
0.00446638 -0.000480804 0.000355302
0.00423325 -0.00046698 0.000189239
0.00453727 -0.000239814 -0.000893082
0.00454676 -0.000509242 0.00034248
0.004122 -0.000534555 0.00018897
0.00447922 0.000202897 1.17948e-05
0.00436411 -0.000522861 0.00014556
0.00420765 -0.000490879 0.000119316
0.00422628 -0.000498356 0.000127724
0.00434723 -0.000584627 0.000217028
0.00420785 -0.000495473 0.000123756
0.00428049 -0.000423884 0.000321104
0.00459478 -0.000469279 0.000345629
0.00454768 -0.0002433 -0.000893039
0.00478793 0.000152066 2.97208e-05
0.00448538 -0.000552668 0.000164968
0.00425938 -0.000409736 0.000314365
0.00467769 -0.000229102 -0.00083529
0.00427608 -0.00037551 0.000309389
0.00460289 0.000506075 -0.000561151
0.0042299 -0.00050713 0.000134564
0.00461132 0.000606919 -0.00032775
0.00457643 -0.000502498 0.000356006
0.00460822 -0.000258282 -0.000893549
0.00445924 0.000502623 -0.000541491
0.00488302 0.000138925 4.08302e-05
0.00425952 -0.00040779 0.00031204
0.00448478 -0.000554845 0.000165739
0.00428349 -0.000423666 0.000319853
0.00442912 -0.000488908 0.000340472
0.00485322 0.000152013 3.81894e-05
0.00450432 -0.000555706 0.000163825
0.00422663 0.000560708 -0.000547104
0.00426327 -0.000423872 0.000316177
0.00447863 0.000535169 -0.000558019
0.00422438 -0.000486879 0.000135846
0.0044671 0.00019092 1.58259e-05
0.00461514 0.000556903 -0.000342014
0.00496166 0.000125777 4.86683e-05
0.00448927 -0.000551146 0.000161414
0.0046503 -0.000479915 0.000350419
0.00445495 -0.000542818 0.00015646
0.00443838 0.000161439 2.5377e-05
0.00457724 -0.000461498 0.000339795
0.00473169 -0.000214616 -0.000448963
0.00455546 0.000710481 -0.000313737
0.00453154 -0.000477141 0.000343455
0.00462375 0.000578681 -0.00033442
0.00446553 0.000619008 -0.000368363
0.00462687 0.000400908 -0.000235049
0.00499472 0.000114949 5.21042e-05
0.00469668 -0.000492698 -0.000678166
0.00453063 -0.000467332 0.000339366
0.00498947 0.000111607 5.31216e-05
0.0044277 -0.000510418 0.000344281
0.0044241 -0.000492515 0.00034106
0.00432822 -0.000485468 0.000333246
0.00427647 -0.000406868 0.000256467
0.00457874 -0.000464341 0.00034418
0.0046099 -0.000442085 0.000340675
0.00433212 -0.000488034 0.000335005
0.0045829 -0.000442047 0.000341986
0.00455933 -0.000455844 0.000340021
0.00460273 -0.000486394 0.000344492
0.00421998 0.000483247 -0.000516056
0.00462971 -0.000492684 0.000352211
0.00450092 0.000442422 -0.000529625
0.00424428 -0.00042046 0.000262018
0.00419222 -0.000516403 0.000225708
0.00449018 0.000509914 -0.000557323
0.00464688 0.000561289 -0.000329051
0.00429232 -0.000379995 0.000301645
0.00488821 -0.00054342 -0.000619899
0.0045393 -0.000476431 0.000341824
0.00430386 -0.000358992 0.000308536
0.00429407 -0.00038031 0.000309364
0.00458104 -0.000444782 0.000338653
0.00454852 0.000652532 -0.00061285
0.00437305 -0.000398356 0.000318198
0.00454796 0.000590071 -0.000345918
0.00461248 -0.000497429 0.000353568
0.00437556 -0.00054238 0.000348897
0.00450459 -0.000556532 0.000164159
0.00453339 0.000586069 -0.000342178
0.00434777 -0.000196948 -0.000881534
0.00413699 -0.000523839 0.000209737
0.00449182 -0.000553686 0.000163542
0.00466672 -0.000470284 0.000349767
0.00455349 0.000692834 -0.000198857
0.00462091 -0.000474589 0.000346399
0.00446694 -0.000537838 0.000146963
0.00421772 -0.000431482 0.000168222
0.00457936 0.000682055 -0.000216555
0.00442964 -0.00044251 0.000337303
0.0044332 0.000552383 -0.000558126
0.00421921 -0.000448958 0.000230905
0.00420584 0.000577496 -0.000550102
0.00464125 -0.000474044 0.000348567
0.00427479 -0.000502352 0.000124881
0.00430059 -0.000352584 0.000303806
0.00416956 -0.000503965 0.00013765
0.0049248 -0.000556215 -0.000629343
0.00460078 -0.000479271 0.00034651
0.00453123 -0.000511822 0.000349917
0.00429072 -0.000403418 0.000311373
0.00457076 -0.000456341 0.000342359
0.00461217 -6.51148e-05 -0.000532466
0.00431403 -0.000379106 0.000315159
0.00429521 -0.000369639 0.000308593
0.00428947 -0.000378782 0.000303211
0.00463419 -0.000471247 0.000348037
0.00487762 -0.000549641 -0.000563947
0.00430407 -0.000377637 0.000324129
0.00455944 -0.000472344 0.000342637
0.00448933 -0.000555636 0.000165037
0.00461775 0.000570852 -0.000328309
0.00448779 -0.000236546 0.000484852
0.00451181 0.000591152 -0.000349497
0.004559 0.0006945 -0.000452609
0.00442492 0.000565901 -0.000562696
0.0046069 -0.000480291 0.000346317
0.00428469 0.000498015 -0.000531044
0.00449904 -0.000546098 0.000153564
0.00461691 0.000547074 -0.000330443
0.00463022 -0.000448615 0.000343164
0.00467884 0.000494166 -0.000565474
0.00459135 -0.000447101 0.000336304
0.00448706 0.000528405 -0.000548891
0.00422529 -0.000557896 0.000200104
0.00468668 0.000451214 -0.000551707
0.00457327 -0.000445543 0.000338349
0.0046507 0.000465652 -0.000550751
0.00459695 0.000593832 -0.000312037
0.00463866 -0.000487847 0.000351423
0.00467931 0.000558615 -0.000335727
0.00465055 -0.000484604 0.000351448
0.00463176 0.000536557 -0.000398048
0.00475179 0.000440184 -0.000551745
0.00435911 0.000596553 -0.000699556
0.00466279 0.000491956 -0.000562194
0.00451127 0.000522874 -0.000562697
0.00457225 0.000572939 -0.000349822
0.00450525 -0.000427847 0.000331323
0.00445574 0.000559604 -0.000551932
0.00437936 -0.000519637 0.000134924
0.00462305 0.000476634 -0.000524149
0.00455382 -0.000555919 0.000360773
0.00461303 0.00055345 -0.000339478
0.00472453 0.000583306 -0.000350338
0.00449396 0.00020101 2.90886e-06
0.00461918 -0.000438184 0.000339528
0.00430254 -0.000467411 0.000237613
0.0045899 0.00057244 -0.000347285
0.00463462 -0.000472507 0.000347808
0.00464642 0.000625666 -0.000329164
0.004566 -0.000461237 0.000341009
0.00449414 -0.000550302 0.000159386
0.00469483 0.000455173 -0.000550502
0.00455384 0.000458743 -0.000547447
0.00449362 -0.000550279 0.000158516
0.00445233 0.000480377 -0.000540054
0.004573 0.000433658 -0.000524264
0.00454717 0.000699585 -0.000250586
0.00478082 0.000599868 -0.000354134
0.00466056 0.000549225 -0.000335892
0.00416353 -0.000544266 0.000189093
0.00465272 0.000590896 -0.000336825
0.00449025 0.000595859 -0.000352819
0.00464033 0.000489331 -0.000519647
0.00453135 0.000426414 -0.000528194
0.00462202 0.000505349 -0.000430832
0.00441896 0.000623679 -0.000693215
0.00445794 -0.000547545 0.000354195
0.00461513 -0.000454109 0.000343185
0.00449169 0.000240279 -8.53875e-05
0.00458347 -0.000448199 0.000335185
0.00448615 0.00046262 -0.000709358
0.00450138 0.000543722 -0.000467999
0.00464075 -0.000482517 0.000350556
0.00460729 -0.000438454 0.000339802
0.00459498 -0.000442058 0.000340187
0.00449585 -0.00054631 0.000153954
0.00453001 0.000666241 -0.000321994
0.00449631 -0.000547954 0.000156486
0.00459426 0.000661036 -0.000582994
0.00477453 0.000657419 -0.000127357
0.00448632 0.000178148 2.21134e-05
0.00464775 0.000555774 -0.000337364
0.00472727 -0.000503677 -0.000574501
0.00463095 0.000557326 -0.000334322
0.00438483 0.000545266 -0.000552992
0.00478322 0.000538253 -0.000331298
0.0046489 0.000570551 -0.000339754
0.00458007 0.000498248 -0.000553117
0.00462715 -0.000465712 0.000346061
0.00455984 -0.000483356 0.000347082
0.00482112 0.000587332 -0.000350556
0.00473762 0.000579137 -0.000346195
0.00478997 0.000545392 -0.000334892
0.00465189 0.000562617 -0.000337441
0.00419344 -0.000683837 0.00103162
0.00471774 0.000573654 -0.000344289
0.0046781 0.000576339 -0.000340698
0.00415148 -0.000682338 0.00102573
0.0042361 -0.000683843 0.00103758
0.00468929 0.000570177 -0.000341053
0.00424734 -0.00103563 0.000594417
0.00452291 -0.000547567 0.000152643
0.00463958 -0.000485818 0.000351151
0.00465644 0.000562925 -0.000335818
0.00450183 -0.000547848 0.000154949
0.00427758 -0.000498153 0.000127704
0.00423674 -0.00103669 0.000595336
0.00460601 0.000457612 -0.000548181
0.0046308 0.000548066 -0.000330681
0.00455618 0.000446538 -0.000535635
0.00469648 0.0006286 -0.000328914
0.00486461 0.000535533 -0.000333157
0.00479353 0.000584922 -0.000348689
0.00460218 0.000477807 -0.000553748
0.00454969 -0.00050351 0.000348986
0.00479869 0.000590732 -0.00035089
0.00477809 0.000532995 -0.000330045
0.00421174 -0.00100593 0.000666818
0.00480248 0.000595706 -0.000353227
0.0046295 0.000585305 -0.000348691
0.00462964 -0.000437551 0.0003449
0.00452463 0.000510259 -0.000561848
0.00464828 0.000556164 -0.000333562
0.00472071 0.000591385 -0.00035017
0.00476195 0.000586579 -0.00034933
0.00484532 0.000543743 -0.000335523
0.00483721 0.000536349 -0.000332875
0.00469758 0.000563283 -0.000338964
0.00477106 0.000558632 -0.000339404
0.0047429 0.000521987 -0.000373735
0.00486282 0.000534109 -0.000332641
0.00463629 -0.000486863 0.000351116
0.00425341 -0.00103463 0.000591316
0.00422801 -0.00100966 0.000670622
0.00462516 0.00049689 -0.000565257
0.00450173 -0.00107291 0.000713035
0.00423593 -0.00101984 0.000626784
0.00473345 0.000592811 -0.000350948
0.00477338 0.000587989 -0.00035024
0.00473038 0.000561557 -0.000337689
0.00456696 -0.000445502 0.000337432
0.00482735 0.000591357 -0.000353033
0.00475054 0.000461782 -0.000206176
0.00485265 0.000529872 -0.000330731
0.00460956 0.000460349 -0.000542433
0.00435112 -0.00047269 0.000333624
0.00484216 0.000542545 -0.000334949
0.00459833 0.000640166 -0.00016202
0.00464728 -0.000492497 0.000352927
0.00430149 -0.000524963 0.000341451
0.00462532 0.000528332 -0.000406935
0.0045465 0.000478283 -0.000546484
0.00428115 -0.000460543 0.000327535

VECTORS force float
-7.46621e-11 4.4457e-11 -3.83226e-11
-6.98105e-11 -4.56227e-11 1.05138e-11
-5.93935e-11 1.67909e-11 -1.40031e-11
-7.7061e-12 -1.79959e-12 4.21233e-13
-6.67134e-12 2.87704e-11 5.10249e-11
-2.88385e-10 -2.10731e-11 5.72426e-11
-1.05837e-11 -2.61234e-11 1.20716e-11
-1.04044e-11 1.53162e-12 2.01376e-11
9.3436e-12 6.68558e-11 -2.08481e-11
4.42678e-11 2.11413e-10 3.02048e-11
6.68514e-11 9.63119e-11 -1.86653e-11
-1.75165e-10 1.42841e-11 -4.85928e-11
-1.37803e-10 -1.20343e-10 -3.57003e-11
-6.20599e-10 -4.96589e-11 1.86873e-09
3.36155e-11 -1.27614e-10 8.12353e-11
-6.26613e-10 -6.69717e-10 2.61296e-09
-5.69554e-11 9.62727e-12 1.30691e-11
5.36129e-11 1.08972e-11 1.52844e-12
-1.75384e-10 5.30187e-11 -5.80503e-11
-2.04989e-10 9.92189e-12 -1.62129e-11
-3.33247e-12 2.84478e-11 3.80237e-11
-1.31907e-10 -8.25473e-11 1.15126e-10
1.51428e-10 1.36619e-10 5.7658e-12
-2.69679e-10 -8.92833e-11 1.19138e-10
1.61445e-10 -2.61991e-11 1.5809e-10
2.40311e-10 4.82533e-10 -2.15766e-10
-3.86598e-11 8.76799e-12 2.12551e-11
-8.01321e-11 -1.47754e-10 1.31948e-10
-1.52729e-10 -3.28107e-11 -6.91191e-11
5.9016e-12 9.99118e-11 -4.94279e-11
1.87228e-10 3.25863e-11 -4.6402e-11
-1.03385e-10 -8.0383e-12 -4.0022e-12
1.18985e-10 1.90835e-10 -1.72013e-10
3.10017e-11 5.95381e-11 -5.90927e-12
4.46611e-11 -2.73233e-11 1.23495e-11
-1.08699e-10 -6.09907e-11 8.88041e-11
3.1845e-11 -2.2744e-11 -1.47708e-11
9.95779e-11 1.32118e-10 -1.55013e-10
1.45943e-10 6.367e-11 -8.33477e-11
-6.2464e-11 -3.83957e-12 3.9145e-11
-8.64379e-11 -9.6483e-11 9.23393e-12
-9.18669e-12 6.37526e-11 -7.86524e-11
-1.98127e-10 1.60841e-10 -3.2103e-12
-3.30511e-11 2.14301e-11 -3.87531e-11
-3.48419e-10 7.776e-11 -1.3557e-11
3.49369e-12 -6.14264e-11 1.39058e-10
3.99914e-11 -1.63785e-11 -2.37147e-11
-1.3669e-10 1.54473e-10 -8.46855e-11
-2.58319e-10 3.03647e-10 -2.73024e-10
1.74206e-10 -2.59896e-10 3.45575e-11
-1.23753e-10 -1.41593e-11 -1.55691e-11
-1.9133e-10 -4.15643e-11 3.94957e-11
-5.13047e-10 5.61271e-10 -8.72805e-11
-4.38468e-10 1.74024e-10 -6.93185e-11
5.31181e-11 2.66672e-10 6.25678e-11
-3.67335e-11 1.68402e-11 2.48196e-12
1.49556e-10 -3.60237e-11 -2.71444e-11
-9.98409e-11 3.44972e-11 -1.5407e-11
-1.35302e-10 1.25481e-10 -6.72359e-11
-4.64649e-11 1.30687e-11 -1.30091e-11
4.54444e-11 7.95578e-10 -1.0264e-10
-6.19313e-11 1.53162e-11 -2.90921e-11
-7.37081e-10 3.71576e-10 -3.54969e-11
2.97532e-13 2.21816e-10 9.43776e-11
1.72675e-11 4.25348e-11 -7.80758e-12
7.1089e-11 -2.01999e-10 1.23884e-10
2.15105e-10 1.23231e-11 -5.54027e-12
4.63272e-11 3.34279e-11 -3.51439e-11
-3.18404e-11 -8.17292e-11 1.56042e-11
-1.4965e-12 2.27199e-11 1.39246e-12
-8.65484e-11 -1.47281e-11 3.72468e-12
5.03155e-11 4.8582e-12 9.88864e-12
5.90382e-10 9.46092e-10 3.83321e-11
-1.21397e-10 1.09038e-10 -3.26451e-10
1.99713e-11 1.20859e-11 3.41423e-12
3.05038e-11 -1.69949e-10 2.20028e-10
3.35692e-11 5.34044e-10 1.08095e-10
3.20426e-10 3.13294e-10 1.52001e-10
4.62044e-11 5.19212e-11 -1.748e-11
1.99271e-09 -4.93419e-10 4.70579e-10
5.46109e-11 1.46089e-11 1.36464e-11
-1.52989e-11 3.91451e-11 -2.30763e-11
-2.97258e-12 2.52112e-11 -5.61464e-12
-4.76294e-11 -1.66212e-11 1.82465e-11
-2.95881e-12 2.10467e-12 3.1647e-12
6.30021e-11 -2.14705e-10 -1.62733e-10
-7.70396e-11 -2.98451e-11 3.7338e-12
-4.22527e-11 -3.7076e-11 6.07029e-12
3.09513e-11 1.79962e-11 2.14728e-12
-9.06694e-11 1.16108e-10 -1.725e-11
1.83615e-11 1.94914e-12 6.83584e-12
-5.81576e-11 3.30762e-11 -1.53959e-11
2.71741e-10 1.92429e-10 1.40586e-11
-2.87326e-12 2.6474e-11 4.44037e-12
-6.4047e-10 -2.01419e-11 7.25786e-11
-1.19005e-10 9.06917e-11 3.28044e-11
-8.67536e-11 -9.446e-11 -2.34366e-10
-3.21432e-10 7.63687e-11 -3.06995e-10
-1.38246e-10 -2.27959e-10 4.85159e-11
-3.25786e-11 2.23515e-11 -8.97125e-12
-7.57113e-11 -7.75282e-10 -1.84305e-10
5.76966e-11 7.76236e-11 8.90999e-11
-9.96895e-11 8.85669e-11 1.09792e-12
-4.10064e-11 1.03221e-10 -1.30687e-11
-7.87485e-12 -8.30571e-12 -3.62858e-12
-1.22767e-10 5.90646e-10 -3.22761e-10
-2.4146e-11 7.65583e-11 -2.15015e-11
-4.56586e-11 -2.4046e-11 -9.57962e-13
-2.97231e-11 3.1381e-11 -1.16512e-11
-1.577e-10 2.12337e-11 -1.62903e-11
-3.73884e-11 4.3922e-11 -4.31679e-11
3.65888e-11 -1.41223e-10 1.50186e-11
-9.05293e-11 -4.99179e-11 6.49133e-11
-9.59528e-11 -1.16188e-11 -2.72092e-10
1.36836e-11 5.22966e-11 -7.08681e-11
-2.80669e-11 -1.07684e-10 2.19432e-11
1.11927e-11 1.70478e-10 -2.38851e-10
-6.84141e-11 9.09684e-11 -3.93038e-11
1.27517e-10 6.25932e-12 1.65348e-12
5.21213e-11 -1.77152e-10 -2.80143e-11
2.96426e-10 4.20393e-10 -2.77909e-10
-2.68442e-10 5.53014e-11 -1.60262e-10
1.38217e-10 -1.30556e-11 -5.53203e-11
-1.21964e-10 3.21215e-11 -1.26898e-10
-5.77243e-10 3.41319e-10 -8.36002e-12
1.04095e-10 1.478e-11 2.85556e-12
-2.03491e-11 -5.58569e-11 6.62435e-11
-2.01043e-10 4.01904e-12 -2.59767e-11
-1.35817e-10 2.16606e-10 -2.05371e-10
8.04819e-10 -3.90042e-10 1.41662e-10
-1.37093e-10 -1.26174e-11 -2.56091e-11
-2.4767e-11 -3.23918e-11 1.6425e-11
-2.65616e-11 6.34141e-12 -3.74934e-12
-1.09678e-10 1.61026e-10 -4.5099e-11
3.07232e-10 -3.22141e-10 1.76567e-10
8.04324e-11 -8.6901e-11 -1.47975e-11
-1.05787e-10 1.17073e-10 -3.83697e-11
-4.35117e-11 7.51246e-11 2.66817e-11
4.04043e-11 2.08421e-10 -4.25232e-11
1.91361e-10 2.058e-10 -8.1788e-10
2.43781e-11 -7.92603e-12 -3.92945e-11
-2.62905e-11 -4.89718e-11 6.05937e-12
3.02316e-11 3.65462e-11 -1.04086e-10
1.74839e-10 3.11338e-10 -2.58799e-10
3.63124e-11 7.07778e-11 -4.44742e-11
7.31093e-11 -5.24034e-11 -5.65757e-11
1.26642e-10 4.19023e-10 2.65562e-10
-5.70398e-10 3.04534e-10 -1.11118e-10
-7.15718e-11 -2.71238e-11 -4.66982e-11
4.17864e-10 -9.13335e-11 5.37443e-11
-7.10735e-11 6.78174e-11 -6.19264e-11
1.86544e-10 8.91404e-11 3.47974e-11
-2.87187e-11 7.92066e-11 -2.63113e-11
-2.99515e-10 2.33072e-10 2.01895e-10
1.3097e-11 -4.32801e-11 -1.89373e-11
1.56531e-10 -8.29198e-11 1.14719e-10
-9.16871e-11 2.10613e-10 -2.52534e-10
1.72203e-10 -2.94698e-10 -1.03683e-10
-9.00616e-12 -1.04835e-11 8.26699e-12
1.25961e-10 -1.57114e-10 -5.72937e-11
3.88493e-10 -1.03393e-10 1.66589e-10
1.04717e-10 8.36909e-11 -5.12214e-12
9.29664e-11 -2.27463e-10 5.86677e-11
-3.00204e-12 -2.22868e-11 4.8899e-12
2.3061e-11 -3.29582e-11 -6.26606e-10
6.83765e-11 5.6476e-11 -4.61146e-11
2.89831e-10 4.14911e-10 -1.79987e-10
-1.96362e-10 2.25682e-10 5.93131e-11
-5.78652e-11 -3.70997e-10 -6.96026e-12
3.7075e-10 4.46693e-12 7.34356e-11
-1.23986e-11 3.59276e-13 -6.89351e-12
-4.86215e-10 3.00159e-10 -2.48876e-10
-3.17482e-13 3.41178e-12 1.98736e-11
1.58087e-10 -1.96124e-10 2.07971e-10
-1.33257e-10 -2.11859e-10 3.88997e-11
2.24367e-11 4.03636e-11 2.17515e-10
9.72468e-11 -1.97216e-10 7.23502e-11
7.32675e-12 3.03981e-12 7.73238e-12
-3.98026e-11 2.61749e-11 -2.36952e-11
3.49837e-10 1.02232e-10 -7.33921e-11
-1.15486e-10 -3.95201e-10 1.25908e-10
-2.05842e-11 1.45292e-10 -3.87062e-11
1.66772e-10 -6.46493e-11 9.03468e-11
-2.04973e-11 4.37608e-11 2.11824e-11
1.1691e-11 1.86858e-11 -2.14314e-11
6.59425e-11 -1.4489e-10 8.23455e-11
-1.34574e-10 -1.53085e-11 4.08362e-10
-2.8281e-11 -3.54917e-12 1.34441e-11
-5.63613e-10 3.5692e-10 -6.64698e-11
4.15021e-10 -2.91027e-10 2.60312e-10
-9.23071e-11 4.13843e-11 -6.83819e-10
3.67685e-11 -1.56718e-10 5.37194e-11
5.77189e-11 -1.35417e-10 6.33785e-11
-1.02586e-11 2.13229e-10 -2.49042e-10
2.49827e-10 -2.72092e-10 7.04764e-11
1.84278e-10 2.19158e-10 -1.11366e-10
-1.42181e-10 -1.74732e-10 -7.94489e-10
-1.71195e-10 -8.80524e-11 8.2885e-11
2.71802e-10 -9.72478e-11 3.06377e-10
-1.50568e-10 7.24521e-10 -2.77087e-10
-3.52108e-11 -4.88607e-11 8.1416e-12
-4.7712e-11 6.11277e-11 -2.75892e-11
-2.46639e-11 3.82142e-11 -3.15681e-11
-7.3723e-11 3.43608e-11 -2.23125e-12
-4.61946e-10 -4.54505e-10 -9.02861e-10
-1.87958e-10 -2.54786e-10 -2.80079e-11
2.869e-11 -1.05354e-11 8.51537e-12
-1.62688e-11 6.70045e-12 -2.20824e-12
-2.10941e-11 -4.71637e-12 -1.30842e-11
7.50345e-11 8.85908e-12 -1.82869e-11
-2.51229e-10 1.90299e-10 -5.2662e-10
8.93882e-12 7.12573e-11 -7.53131e-11
1.04876e-10 5.79371e-10 9.58854e-11
-1.48561e-10 6.17177e-10 4.22743e-11
3.86639e-11 -1.86133e-11 1.77613e-11
2.45598e-10 -1.40299e-10 8.15751e-11
-6.54541e-11 -1.04393e-09 2.56274e-09
8.37188e-11 -1.422e-10 3.685e-11
-5.13257e-10 2.96283e-10 -1.55699e-10
8.53996e-11 6.79493e-11 -1.58712e-11
2.92588e-10 5.63266e-11 -4.25793e-11
-3.98704e-10 1.13787e-10 -4.54206e-13
-6.01649e-11 1.30818e-10 -7.62332e-12
-8.29859e-11 -3.32332e-11 -5.23511e-12
1.43638e-12 -6.65164e-11 3.23751e-11
7.37664e-11 -9.12986e-11 4.22163e-11
8.40228e-11 6.75103e-11 -3.09197e-11
-2.72409e-11 -1.7572e-10 6.22206e-11
-1.04546e-11 -2.02997e-11 1.47979e-11
-9.77006e-12 -1.30952e-10 5.40685e-11
3.71412e-11 -3.5132e-10 9.77327e-11
-2.04659e-11 -4.71551e-11 4.04577e-11
1.75382e-11 1.08099e-11 2.82404e-12
3.33784e-13 -1.9051e-10 5.25166e-11
-4.41515e-11 1.31376e-11 -1.91297e-11
-1.41996e-10 -4.97303e-11 7.15237e-11
3.12915e-11 -3.15842e-11 6.23444e-12
3.00944e-12 -5.06217e-11 4.25155e-11
-2.77049e-11 -3.70314e-11 4.86141e-11
3.4712e-11 1.47875e-10 -2.77681e-10
1.41336e-12 -1.17847e-10 -1.82247e-10
8.57769e-11 -9.40986e-11 -7.63352e-11
1.7782e-10 -4.1191e-11 3.75448e-11
2.70401e-10 -2.49993e-10 4.63153e-11
-9.82543e-11 -3.70776e-10 8.01021e-11
2.54312e-11 1.88381e-11 -7.26793e-12
3.02212e-11 -9.48504e-11 4.15327e-11
-1.15506e-11 -4.2215e-11 -2.12416e-11
-9.6765e-11 -8.06794e-11 1.29252e-11
-1.63562e-11 -1.10365e-10 3.74786e-11
6.3938e-11 3.74654e-11 -1.62963e-11
-4.3104e-12 1.91422e-12 3.86384e-11
1.70925e-11 -1.04078e-10 3.60233e-11
-4.00165e-10 -1.77573e-10 -2.72798e-11
-1.85732e-12 6.7006e-11 -3.06901e-11
2.03233e-10 -7.2032e-11 -1.41563e-10
1.74758e-10 -2.38797e-10 1.02722e-10
1.41883e-10 -1.43568e-10 -1.71637e-11
1.84061e-10 -8.78618e-11 -3.55579e-12
7.24445e-11 3.35e-11 -1.24354e-11
1.06304e-10 7.58847e-11 -3.09036e-11
8.79586e-11 -1.76354e-10 5.32358e-11
1.00564e-10 -1.77222e-11 -1.23569e-11
1.0359e-10 2.03888e-11 -5.32348e-11
3.34732e-12 -1.92555e-11 7.57199e-12
9.7669e-11 4.77674e-11 -2.4252e-12
-8.20575e-12 9.3886e-12 -2.36584e-11
-1.5898e-11 3.83063e-11 -1.20249e-11
6.16036e-10 5.05472e-10 -2.04257e-10
1.02693e-11 4.14363e-11 9.42731e-12
-1.94951e-11 1.02889e-11 2.73124e-11
-6.50602e-12 -1.94043e-10 5.22243e-11
-4.29858e-11 -1.16828e-10 4.43791e-11
2.11828e-10 -6.07186e-11 2.86025e-11
-2.5632e-11 2.99876e-11 4.50233e-11
6.93609e-11 5.68094e-11 -2.05058e-11
-1.08008e-09 8.76499e-12 9.02114e-11
3.37576e-12 7.93858e-12 -3.24818e-12
2.52566e-10 -2.09746e-10 9.46124e-11
-1.32867e-10 4.66134e-11 -2.67416e-11
-2.27126e-11 -4.53742e-11 1.61104e-11
-2.0425e-10 1.24554e-11 -5.3417e-11
2.35487e-11 3.02564e-12 8.93213e-13
-9.20822e-11 1.59666e-10 -4.23985e-11
3.15266e-10 2.69826e-10 1.02876e-10
1.71993e-10 -1.49867e-10 2.45824e-11
-1.18765e-10 1.0214e-10 -3.56276e-11
