# vtk DataFile Version 3.0
LIGGGHTS particles timestep 36400000
ASCII
DATASET POLYDATA
POINTS 283 float
0.179615 0.0165027 0.00776374
0.17998 0.0176075 0.00714586
0.180087 0.0185435 0.00699903
0.180067 0.0184465 0.00701398
0.179252 0.0151848 0.00893143
0.185631 0.0165565 0.00769352
0.179392 0.0156829 0.00846223
0.179237 0.0151681 0.00902877
0.185889 0.0175797 0.00712183
0.18031 0.0183582 0.00703566
0.179794 0.0168182 0.00748335
0.185848 0.0174087 0.00721729
0.18034 0.0176359 0.00715245
0.173225 0.0151077 0.00904199
0.180319 0.0175391 0.00716734
0.173579 0.016444 0.00805533
0.186002 0.018129 0.0069354
0.180008 0.0181559 0.00705874
0.180014 0.0173486 0.00718843
0.179272 0.0152475 0.00885615
0.180125 0.0187375 0.00696911
0.185804 0.0172383 0.00731253
0.18017 0.0176701 0.00714172
0.18574 0.0169826 0.0074554
0.17349 0.0161279 0.00828338
0.179967 0.0179625 0.00708851
0.18561 0.0164713 0.00774114
0.180181 0.018576 0.00699675
0.180265 0.0177014 0.00713964
0.185653 0.0166417 0.00764589
0.179946 0.0178657 0.00710339
0.18036 0.0177326 0.00713757
0.185944 0.0178418 0.00698772
0.179371 0.0156084 0.00852588
0.180306 0.0178948 0.00710988
0.17941 0.0157577 0.00839857
0.180055 0.0175421 0.00715867
0.180068 0.0171885 0.00722644
0.180162 0.0184788 0.00701174
0.180116 0.0178323 0.00711402
0.185675 0.0167269 0.00759827
0.185761 0.0170678 0.00740778
0.179312 0.0153848 0.00871686
0.179993 0.017253 0.00720958
0.185718 0.0168974 0.00750303
0.180211 0.0178636 0.00711195
0.174294 0.0191622 0.00684397
0.174187 0.0181049 0.0070515
0.180292 0.018252 0.00705216
0.185696 0.0168122 0.00755065
0.173782 0.0168611 0.00773768
0.185827 0.0173234 0.00726498
0.179926 0.0177689 0.00711828
0.179293 0.0153115 0.00878207
0.179875 0.016777 0.00752368
0.180103 0.018188 0.00705655
0.185783 0.017153 0.00736018
0.179668 0.0163765 0.00786947
0.174357 0.0186408 0.0068999
0.180381 0.0178293 0.00712269
0.173707 0.0165705 0.0080433
0.179988 0.017064 0.00726548
0.186054 0.0178936 0.00695852
0.173841 0.0170808 0.00757982
0.185868 0.0174942 0.00716958
0.179332 0.0154593 0.00865321
0.179739 0.0169384 0.00737091
0.179352 0.0155338 0.00858958
0.185982 0.0180314 0.00694423
0.180299 0.0186583 0.0069872
0.173285 0.0153324 0.00885345
0.173383 0.0157313 0.00856848
0.180075 0.0176388 0.00714379
0.17441 0.0188438 0.00684246
0.173843 0.0169204 0.00768603
0.173304 0.0154122 0.00879645
0.185923 0.0177519 0.00702642
0.173759 0.0167821 0.00779471
0.180142 0.0183818 0.00702669
0.185905 0.0176659 0.0070738
0.179896 0.0168496 0.00745804
0.180096 0.0177355 0.00712891
0.179814 0.0168916 0.00741856
0.179689 0.0164509 0.00780596
0.180069 0.017022 0.007307
0.180129 0.0174766 0.00717148
0.179879 0.0171308 0.00725247
0.180273 0.0181546 0.00706716
0.180089 0.0172831 0.00720125
0.179939 0.0174148 0.00717983
0.173979 0.0172281 0.00745448
0.179885 0.0175753 0.00714806
0.174242 0.0179469 0.00709635
0.180232 0.0179603 0.00709707
0.180126 0.0169628 0.0073634
0.173812 0.016707 0.00783431
0.174325 0.0182843 0.00700087
0.179731 0.0165998 0.00767909
0.173245 0.0151775 0.0089733
0.180252 0.0180573 0.00708214
0.180048 0.0183496 0.00702891
0.180144 0.0188345 0.00695414
0.179511 0.0161299 0.00808033
0.173448 0.015969 0.00839741
0.180344 0.0184812 0.007017
0.173766 0.0169804 0.00766143
0.179987 0.0180592 0.00707363
0.179905 0.0176721 0.00713317
0.179774 0.0167452 0.0075489
0.174392 0.0187493 0.00686922
0.185588 0.016386 0.00778876
0.180109 0.0173798 0.00718638
0.18 0.0168835 0.00743101
0.179782 0.0170986 0.0072576
0.174201 0.0191253 0.00684419
0.180042 0.0178978 0.00710121
0.180414 0.0175704 0.00716527
0.179647 0.0163022 0.00793299
0.173344 0.0155718 0.00868247
0.180401 0.0183999 0.00703179
0.173468 0.0160486 0.00834041
0.179491 0.0160556 0.00814414
0.174277 0.0190691 0.00681159
0.179843 0.0173813 0.0071779
0.179973 0.0171587 0.00723675
0.18015 0.0175733 0.0071566
0.179834 0.0169632 0.0073518
0.174163 0.0189369 0.00681654
0.179679 0.016723 0.00757083
0.179899 0.0172232 0.00721996
0.179916 0.0169222 0.0073924
0.180279 0.0185557 0.00700304
0.174382 0.0181271 0.00704549
0.17943 0.0158321 0.00833474
0.180224 0.0175078 0.00716941
0.180034 0.0174453 0.00717355
0.179719 0.0168657 0.00743654
0.173265 0.0152527 0.00891045
0.179944 0.0171291 0.00732778
0.180022 0.0169559 0.00736568
0.17971 0.0165252 0.00774243
0.174044 0.0174658 0.0072834
0.180367 0.0181869 0.00706492
0.173533 0.0162864 0.0081694
0.173404 0.0158107 0.00851147
0.174126 0.0187477 0.00686927
0.180198 0.0182197 0.0070544
0.174306 0.0181898 0.00702761
0.180102 0.0170979 0.00725121
0.174127 0.0178224 0.00713146
0.179857 0.0170445 0.00729802
0.174452 0.0186112 0.00690845
0.179823 0.0172868 0.00720354
0.174182 0.0190336 0.00679956
0.17994 0.0169963 0.00732557
0.173758 0.0166423 0.00788804
0.180191 0.0177668 0.00712683
0.17407 0.0184641 0.00694954
0.173747 0.017064 0.00761003
0.180062 0.0179945 0.00708633
0.174202 0.0186849 0.00688717
0.180157 0.0180258 0.00708426
0.174107 0.0177281 0.00715813
0.173993 0.0180864 0.00705645
0.173555 0.0163655 0.00811236
0.174258 0.0189711 0.00681847
0.174068 0.0175464 0.00722947
0.173869 0.0169985 0.00762901
0.180372 0.0185913 0.00700021
0.174335 0.0189069 0.00682447
0.180123 0.0182849 0.00704163
0.174297 0.0187177 0.00687802
0.180178 0.0181228 0.00706933
0.173859 0.0171608 0.00752285
0.173945 0.0174793 0.00729387
0.185962 0.0179338 0.00695305
0.179635 0.0165757 0.00769862
0.179594 0.016429 0.00782799
0.173618 0.0166035 0.00794137
0.17996 0.0175108 0.00716074
0.174008 0.0177398 0.00715466
0.180021 0.017801 0.00711609
0.179469 0.0159812 0.0082074
0.174164 0.0184958 0.0069407
0.174001 0.0173074 0.00739745
0.179754 0.0166726 0.00761452
0.174372 0.0190982 0.00682139
0.174088 0.0185586 0.00692279
0.173363 0.0156516 0.00862548
0.173986 0.0176453 0.00718365
0.174032 0.0182752 0.00700325
0.180286 0.0177981 0.00712476
0.174145 0.0184011 0.0069675
0.173705 0.0169203 0.0077134
0.174085 0.0176343 0.00718468
0.173812 0.0165676 0.00792719
0.174428 0.0189419 0.00681469
0.173514 0.0162064 0.00822635
0.180083 0.0180912 0.00707145
0.179656 0.0166482 0.00763305
0.186042 0.0183242 0.00691774
0.179761 0.0170126 0.0073038
0.173713 0.0165722 0.00794353
0.179698 0.0167932 0.00750207
0.179552 0.01628 0.00795479
0.179531 0.016205 0.0080174
0.180384 0.0182923 0.00704853
0.1736 0.0165233 0.00799831
0.180327 0.0179918 0.00709495
0.173426 0.0158898 0.00845444
0.173324 0.0154919 0.00873946
0.186022 0.0182266 0.00692657
0.174048 0.0179284 0.0071013
0.174167 0.0180124 0.00708419
0.173881 0.0172404 0.00746571
0.174206 0.0181993 0.00702478
0.174012 0.0181808 0.00702973
0.173666 0.0167607 0.00782731
0.174023 0.0173865 0.00734043
0.179919 0.0173186 0.00719776
0.180137 0.017929 0.00709914
0.173872 0.0175433 0.00727183
0.173807 0.0173027 0.00743869
0.173953 0.0178981 0.00710998
0.173902 0.0173197 0.00740869
0.167588 0.0163464 0.00773351
0.173786 0.0172233 0.0074957
0.173924 0.0173993 0.00735138
0.167572 0.0162963 0.00781861
0.167609 0.0164413 0.00771
0.173764 0.0171441 0.00755272
0.167652 0.016631 0.00766298
0.180245 0.0176046 0.00715452
0.180001 0.0177043 0.00713098
0.173683 0.0168413 0.00777043
0.179449 0.0159067 0.00827114
0.215741 0.019982 0.00563384
0.16763 0.0165361 0.00768649
0.174239 0.0188741 0.00683361
0.174147 0.0179167 0.00710477
0.173539 0.0163093 0.00826656
0.174259 0.0184652 0.0069495
0.173973 0.0179932 0.0070868
0.174088 0.0181174 0.00704781
0.17422 0.0187794 0.00686042
0.180218 0.0183174 0.00703936
0.17385 0.0174612 0.00732466
0.174126 0.0183066 0.00699423
0.167694 0.0168207 0.00761597
0.174028 0.0178341 0.00712798
0.173642 0.0166823 0.00788434
0.179573 0.0163545 0.00789139
0.174316 0.0188123 0.00685126
0.174145 0.0188422 0.00684252
0.174486 0.0187812 0.00686031
0.174283 0.0183717 0.00697604
0.173933 0.0178038 0.00713643
0.174183 0.0185904 0.00691393
0.174225 0.0182956 0.00700584
0.174051 0.0183696 0.00697627
0.174272 0.0186553 0.00695192
0.173914 0.0177145 0.00717735
0.179864 0.0174783 0.00716298
0.404182 0.0211142 0.0056569
0.167736 0.0170104 0.00756895
0.174351 0.0190032 0.00679722
0.167715 0.0169155 0.00759246
0.167673 0.0167258 0.00763948
0.173967 0.0175615 0.00723489
0.173829 0.0173819 0.00738167
0.174278 0.0185598 0.00692273
0.180253 0.0184395 0.00702088
0.174068 0.0180226 0.00707462
0.174358 0.018452 0.00695339
0.174107 0.0182118 0.00702107
0.174107 0.0186531 0.00689603
0.1802 0.0186731 0.00698177
0.173893 0.0176285 0.0072241
0.174007 0.0171456 0.00750393
0.179803 0.0171927 0.00723057
0.180028 0.0182527 0.00704384
0.174377 0.0185465 0.00692664
0.180106 0.0186405 0.00698407

VERTICES 283 566
1 0
1 1
1 2
1 3
1 4
1 5
1 6
1 7
1 8
1 9
1 10
1 11
1 12
1 13
1 14
1 15
1 16
1 17
1 18
1 19
1 20
1 21
1 22
1 23
1 24
1 25
1 26
1 27
1 28
1 29
1 30
1 31
1 32
1 33
1 34
1 35
1 36
1 37
1 38
1 39
1 40
1 41
1 42
1 43
1 44
1 45
1 46
1 47
1 48
1 49
1 50
1 51
1 52
1 53
1 54
1 55
1 56
1 57
1 58
1 59
1 60
1 61
1 62
1 63
1 64
1 65
1 66
1 67
1 68
1 69
1 70
1 71
1 72
1 73
1 74
1 75
1 76
1 77
1 78
1 79
1 80
1 81
1 82
1 83
1 84
1 85
1 86
1 87
1 88
1 89
1 90
1 91
1 92
1 93
1 94
1 95
1 96
1 97
1 98
1 99
1 100
1 101
1 102
1 103
1 104
1 105
1 106
1 107
1 108
1 109
1 110
1 111
1 112
1 113
1 114
1 115
1 116
1 117
1 118
1 119
1 120
1 121
1 122
1 123
1 124
1 125
1 126
1 127
1 128
1 129
1 130
1 131
1 132
1 133
1 134
1 135
1 136
1 137
1 138
1 139
1 140
1 141
1 142
1 143
1 144
1 145
1 146
1 147
1 148
1 149
1 150
1 151
1 152
1 153
1 154
1 155
1 156
1 157
1 158
1 159
1 160
1 161
1 162
1 163
1 164
1 165
1 166
1 167
1 168
1 169
1 170
1 171
1 172
1 173
1 174
1 175
1 176
1 177
1 178
1 179
1 180
1 181
1 182
1 183
1 184
1 185
1 186
1 187
1 188
1 189
1 190
1 191
1 192
1 193
1 194
1 195
1 196
1 197
1 198
1 199
1 200
1 201
1 202
1 203
1 204
1 205
1 206
1 207
1 208
1 209
1 210
1 211
1 212
1 213
1 214
1 215
1 216
1 217
1 218
1 219
1 220
1 221
1 222
1 223
1 224
1 225
1 226
1 227
1 228
1 229
1 230
1 231
1 232
1 233
1 234
1 235
1 236
1 237
1 238
1 239
1 240
1 241
1 242
1 243
1 244
1 245
1 246
1 247
1 248
1 249
1 250
1 251
1 252
1 253
1 254
1 255
1 256
1 257
1 258
1 259
1 260
1 261
1 262
1 263
1 264
1 265
1 266
1 267
1 268
1 269
1 270
1 271
1 272
1 273
1 274
1 275
1 276
1 277
1 278
1 279
1 280
1 281
1 282

POINT_DATA 283
SCALARS id int 1
LOOKUP_TABLE default
1
2
3
4
5
6
7
8
9
10
11
12
13
14
15
16
18
19
20
21
22
24
25
26
27
29
30
31
32
33
34
35
36
37
38
40
41
42
43
44
45
46
47
48
49
50
52
55
56
57
58
59
60
61
62
63
64
65
66
67
68
69
70
71
72
73
74
75
76
77
78
79
80
81
82
83
84
85
86
87
88
89
90
91
92
93
94
95
96
98
99
100
101
102
103
104
105
106
107
108
109
110
111
112
113
114
115
116
117
118
119
120
121
122
123
124
125
126
127
128
129
130
131
132
133
134
135
136
137
138
139
140
141
142
144
145
146
147
148
149
150
152
153
154
155
156
157
158
159
160
161
162
164
165
166
167
168
169
170
171
172
173
174
175
176
177
178
179
180
181
182
183
184
185
186
187
188
189
190
191
192
193
194
195
196
197
198
199
200
201
202
203
204
205
206
207
208
209
210
211
213
214
215
217
218
219
220
221
222
223
224
225
226
227
228
229
230
231
232
233
234
235
236
237
238
239
241
242
243
244
245
246
247
248
249
250
251
252
253
254
255
256
257
258
259
260
261
262
263
264
265
267
268
269
270
271
272
273
274
275
276
277
278
279
280
281
282
283
284
285
286
287
288
289
290
292
293
294
295
296
297
298
300

SCALARS type int 1
LOOKUP_TABLE default
1
1
1
1
1
1
1
1
1
1
1
1
1
1
1
1
1
1
1
1
1
1
1
1
1
1
1
1
1
1
1
1
1
1
1
1
1
1
1
1
1
1
1
1
1
1
1
1
1
1
1
1
1
1
1
1
1
1
1
1
1
1
1
1
1
1
1
1
1
1
1
1
1
1
1
1
1
1
1
1
1
1
1
1
1
1
1
1
1
1
1
1
1
1
1
1
1
1
1
1
1
1
1
1
1
1
1
1
1
1
1
1
1
1
1
1
1
1
1
1
1
1
1
1
1
1
1
1
1
1
1
1
1
1
1
1
1
1
1
1
1
1
1
1
1
1
1
1
1
1
1
1
1
1
1
1
1
1
1
1
1
1
1
1
1
1
1
1
1
1
1
1
1
1
1
1
1
1
1
1
1
1
1
1
1
1
1
1
1
1
1
1
1
1
1
1
1
1
1
1
1
1
1
1
1
1
1
1
1
1
1
1
1
1
1
1
1
1
1
1
1
1
1
1
1
1
1
1
1
1
1
1
1
1
1
1
1
1
1
1
1
1
1
1
1
1
1
1
1
1
1
1
1
1
1
1
1
1
1
1
1
1
1
1
1
1
1
1
1
1
1
1
1
1
1
1
1
1
1
1
1
1
1

SCALARS radius float 1
LOOKUP_TABLE default
5e-05
5e-05
5e-05
5e-05
5e-05
5e-05
5e-05
5e-05
5e-05
5e-05
5e-05
5e-05
5e-05
5e-05
5e-05
5e-05
5e-05
5e-05
5e-05
5e-05
5e-05
5e-05
5e-05
5e-05
5e-05
5e-05
5e-05
5e-05
5e-05
5e-05
5e-05
5e-05
5e-05
5e-05
5e-05
5e-05
5e-05
5e-05
5e-05
5e-05
5e-05
5e-05
5e-05
5e-05
5e-05
5e-05
5e-05
5e-05
5e-05
5e-05
5e-05
5e-05
5e-05
5e-05
5e-05
5e-05
5e-05
5e-05
5e-05
5e-05
5e-05
5e-05
5e-05
5e-05
5e-05
5e-05
5e-05
5e-05
5e-05
5e-05
5e-05
5e-05
5e-05
5e-05
5e-05
5e-05
5e-05
5e-05
5e-05
5e-05
5e-05
5e-05
5e-05
5e-05
5e-05
5e-05
5e-05
5e-05
5e-05
5e-05
5e-05
5e-05
5e-05
5e-05
5e-05
5e-05
5e-05
5e-05
5e-05
5e-05
5e-05
5e-05
5e-05
5e-05
5e-05
5e-05
5e-05
5e-05
5e-05
5e-05
5e-05
5e-05
5e-05
5e-05
5e-05
5e-05
5e-05
5e-05
5e-05
5e-05
5e-05
5e-05
5e-05
5e-05
5e-05
5e-05
5e-05
5e-05
5e-05
5e-05
5e-05
5e-05
5e-05
5e-05
5e-05
5e-05
5e-05
5e-05
5e-05
5e-05
5e-05
5e-05
5e-05
5e-05
5e-05
5e-05
5e-05
5e-05
5e-05
5e-05
5e-05
5e-05
5e-05
5e-05
5e-05
5e-05
5e-05
5e-05
5e-05
5e-05
5e-05
5e-05
5e-05
5e-05
5e-05
5e-05
5e-05
5e-05
5e-05
5e-05
5e-05
5e-05
5e-05
5e-05
5e-05
5e-05
5e-05
5e-05
5e-05
5e-05
5e-05
5e-05
5e-05
5e-05
5e-05
5e-05
5e-05
5e-05
5e-05
5e-05
5e-05
5e-05
5e-05
5e-05
5e-05
5e-05
5e-05
5e-05
5e-05
5e-05
5e-05
5e-05
5e-05
5e-05
5e-05
5e-05
5e-05
5e-05
5e-05
5e-05
5e-05
5e-05
5e-05
5e-05
5e-05
5e-05
5e-05
5e-05
5e-05
5e-05
5e-05
5e-05
5e-05
5e-05
5e-05
5e-05
5e-05
5e-05
5e-05
5e-05
5e-05
5e-05
5e-05
5e-05
5e-05
5e-05
5e-05
5e-05
5e-05
5e-05
5e-05
5e-05
5e-05
5e-05
5e-05
5e-05
5e-05
5e-05
5e-05
5e-05
5e-05
5e-05
5e-05
5e-05
5e-05
5e-05
5e-05
5e-05
5e-05
5e-05
5e-05
5e-05
5e-05
5e-05
5e-05
5e-05
5e-05
5e-05
5e-05
5e-05
5e-05
5e-05
5e-05
5e-05
5e-05
5e-05
5e-05
5e-05
5e-05
5e-05
5e-05
5e-05
5e-05

SCALARS mass float 1
LOOKUP_TABLE default
1.46608e-10
1.46608e-10
1.46608e-10
1.46608e-10
1.46608e-10
1.46608e-10
1.46608e-10
1.46608e-10
1.46608e-10
1.46608e-10
1.46608e-10
1.46608e-10
1.46608e-10
1.46608e-10
1.46608e-10
1.46608e-10
1.46608e-10
1.46608e-10
1.46608e-10
1.46608e-10
1.46608e-10
1.46608e-10
1.46608e-10
1.46608e-10
1.46608e-10
1.46608e-10
1.46608e-10
1.46608e-10
1.46608e-10
1.46608e-10
1.46608e-10
1.46608e-10
1.46608e-10
1.46608e-10
1.46608e-10
1.46608e-10
1.46608e-10
1.46608e-10
1.46608e-10
1.46608e-10
1.46608e-10
1.46608e-10
1.46608e-10
1.46608e-10
1.46608e-10
1.46608e-10
1.46608e-10
1.46608e-10
1.46608e-10
1.46608e-10
1.46608e-10
1.46608e-10
1.46608e-10
1.46608e-10
1.46608e-10
1.46608e-10
1.46608e-10
1.46608e-10
1.46608e-10
1.46608e-10
1.46608e-10
1.46608e-10
1.46608e-10
1.46608e-10
1.46608e-10
1.46608e-10
1.46608e-10
1.46608e-10
1.46608e-10
1.46608e-10
1.46608e-10
1.46608e-10
1.46608e-10
1.46608e-10
1.46608e-10
1.46608e-10
1.46608e-10
1.46608e-10
1.46608e-10
1.46608e-10
1.46608e-10
1.46608e-10
1.46608e-10
1.46608e-10
1.46608e-10
1.46608e-10
1.46608e-10
1.46608e-10
1.46608e-10
1.46608e-10
1.46608e-10
1.46608e-10
1.46608e-10
1.46608e-10
1.46608e-10
1.46608e-10
1.46608e-10
1.46608e-10
1.46608e-10
1.46608e-10
1.46608e-10
1.46608e-10
1.46608e-10
1.46608e-10
1.46608e-10
1.46608e-10
1.46608e-10
1.46608e-10
1.46608e-10
1.46608e-10
1.46608e-10
1.46608e-10
1.46608e-10
1.46608e-10
1.46608e-10
1.46608e-10
1.46608e-10
1.46608e-10
1.46608e-10
1.46608e-10
1.46608e-10
1.46608e-10
1.46608e-10
1.46608e-10
1.46608e-10
1.46608e-10
1.46608e-10
1.46608e-10
1.46608e-10
1.46608e-10
1.46608e-10
1.46608e-10
1.46608e-10
1.46608e-10
1.46608e-10
1.46608e-10
1.46608e-10
1.46608e-10
1.46608e-10
1.46608e-10
1.46608e-10
1.46608e-10
1.46608e-10
1.46608e-10
1.46608e-10
1.46608e-10
1.46608e-10
1.46608e-10
1.46608e-10
1.46608e-10
1.46608e-10
1.46608e-10
1.46608e-10
1.46608e-10
1.46608e-10
1.46608e-10
1.46608e-10
1.46608e-10
1.46608e-10
1.46608e-10
1.46608e-10
1.46608e-10
1.46608e-10
1.46608e-10
1.46608e-10
1.46608e-10
1.46608e-10
1.46608e-10
1.46608e-10
1.46608e-10
1.46608e-10
1.46608e-10
1.46608e-10
1.46608e-10
1.46608e-10
1.46608e-10
1.46608e-10
1.46608e-10
1.46608e-10
1.46608e-10
1.46608e-10
1.46608e-10
1.46608e-10
1.46608e-10
1.46608e-10
1.46608e-10
1.46608e-10
1.46608e-10
1.46608e-10
1.46608e-10
1.46608e-10
1.46608e-10
1.46608e-10
1.46608e-10
1.46608e-10
1.46608e-10
1.46608e-10
1.46608e-10
1.46608e-10
1.46608e-10
1.46608e-10
1.46608e-10
1.46608e-10
1.46608e-10
1.46608e-10
1.46608e-10
1.46608e-10
1.46608e-10
1.46608e-10
1.46608e-10
1.46608e-10
1.46608e-10
1.46608e-10
1.46608e-10
1.46608e-10
1.46608e-10
1.46608e-10
1.46608e-10
1.46608e-10
1.46608e-10
1.46608e-10
1.46608e-10
1.46608e-10
1.46608e-10
1.46608e-10
1.46608e-10
1.46608e-10
1.46608e-10
1.46608e-10
1.46608e-10
1.46608e-10
1.46608e-10
1.46608e-10
1.46608e-10
1.46608e-10
1.46608e-10
1.46608e-10
1.46608e-10
1.46608e-10
1.46608e-10
1.46608e-10
1.46608e-10
1.46608e-10
1.46608e-10
1.46608e-10
1.46608e-10
1.46608e-10
1.46608e-10
1.46608e-10
1.46608e-10
1.46608e-10
1.46608e-10
1.46608e-10
1.46608e-10
1.46608e-10
1.46608e-10
1.46608e-10
1.46608e-10
1.46608e-10
1.46608e-10
1.46608e-10
1.46608e-10
1.46608e-10
1.46608e-10
1.46608e-10
1.46608e-10
1.46608e-10
1.46608e-10
1.46608e-10
1.46608e-10
1.46608e-10
1.46608e-10
1.46608e-10
1.46608e-10
1.46608e-10
1.46608e-10
1.46608e-10
1.46608e-10
1.46608e-10
1.46608e-10
1.46608e-10
1.46608e-10
1.46608e-10

VECTORS velocity float
0.00465422 -0.00024161 0.000332908
0.00443558 -0.000293246 0.000183785
0.00427472 -0.000253678 0.000172826
0.00427992 -0.000256466 0.00017017
0.004367 -6.55382e-05 0.00039788
0.00476017 -0.000177914 -1.39644e-05
0.00424607 -0.000317656 0.000261422
0.00436629 -6.03744e-05 0.000385563
0.00452415 -0.00015535 -9.83228e-06
0.00428481 -0.000222378 0.000168265
0.00486272 -0.000280702 0.000465642
0.0048479 -0.000223104 9.27477e-06
0.00443472 -0.000321938 0.00018962
0.00447141 0.000104414 -0.000181449
0.00442298 -0.000317217 0.000187835
0.00453849 -0.00027061 -0.000713375
0.00440718 -0.000106932 9.05335e-05
0.00446993 -0.000296721 0.000186345
0.00446014 -0.000263793 0.000187406
0.00438819 -0.000244926 0.000275514
0.00425559 -0.000270832 0.00017511
0.00483233 -0.000214644 4.86033e-06
0.00444184 -0.000308935 0.000187344
0.00481282 -0.000186572 -1.05276e-05
0.00445496 -0.000243246 -0.000714423
0.00444807 -0.00033301 0.000191219
0.0047508 -0.000176804 -1.43756e-05
0.00424494 -0.000272311 0.000174907
0.00445281 -0.000327919 0.000190302
0.00476976 -0.000176929 -1.47204e-05
0.00445883 -0.000267282 0.000181089
0.00446104 -0.000336138 0.000191794
0.00448355 -0.000139801 1.00755e-05
0.00422502 -0.000316462 0.000260146
0.0044762 -0.000331419 0.00019173
0.00426271 -0.000313188 0.000259363
0.00442513 -0.000282237 0.000181593
0.00436165 -0.000293679 9.71529e-05
0.00429555 -0.000215243 0.000167262
0.00446105 -0.000306945 0.000186813
0.00478335 -0.00017584 -1.56445e-05
0.00481294 -0.000196003 -5.37671e-06
0.0043755 -0.000328037 0.000249042
0.00440255 -0.000302825 -9.71568e-06
0.00479491 -0.000178925 -1.41886e-05
0.00446374 -0.000320566 0.000189707
0.00451368 0.000154408 3.63764e-05
0.00455072 0.000117044 -2.63985e-05
0.00420422 -0.000137225 0.00015263
0.00478933 -0.00017641 -1.55232e-05
0.00462794 -0.000301661 -0.000710121
0.00484487 -0.000222633 8.79276e-06
0.00445093 -0.000240674 0.000176137
0.00444461 -0.000373695 0.000198989
0.00496636 -0.000171627 0.000357165
0.0042129 -0.00024367 0.00016913
0.00481322 -0.000204716 -4.75327e-07
0.00460819 -0.00028738 0.000247486
0.00438224 0.000117132 -2.70487e-05
0.00447954 -0.000344372 0.000194359
0.00462636 -0.000255726 -0.000695411
0.00396935 -0.000226972 0.000361685
0.00438545 -8.32434e-05 9.07821e-05
0.00468706 -0.000320037 -0.000702319
0.00463425 -0.000182482 -8.25504e-06
0.00430696 -0.000317747 0.000262435
0.00487035 -0.000257076 0.000427469
0.00423232 -0.000312947 0.000260421
0.00438188 -9.66759e-05 8.94948e-05
0.0042475 -0.000273278 0.000175298
0.00447999 -0.000281547 -0.000692633
0.00437718 -0.000229622 -0.000710224
0.00443501 -0.000289947 0.000183938
0.00446297 0.00011261 -2.56196e-05
0.00465786 -0.000316272 -0.000705572
0.00446131 -0.000269575 -0.000700496
0.00453946 -0.000190016 -7.44871e-05
0.00461556 -0.00030173 -0.000708137
0.00418858 -0.000198284 0.000160361
0.00447926 -0.0001523 -2.42801e-05
0.00492666 -0.000158197 0.000309066
0.00444897 -0.000299829 0.000186437
0.00482668 -0.000317051 0.000328086
0.00461398 -0.00033865 0.000280442
0.0043128 -0.000127022 0.000284978
0.00441767 -0.000295618 0.000181914
0.00433064 -0.000271461 -2.56995e-06
0.00425331 -9.47223e-05 0.000147025
0.00439471 -0.000283875 0.000174648
0.00443657 -0.000274398 0.000127891
0.00472636 -0.000309223 -0.000724716
0.00443276 -0.000268588 0.00017867
0.00458909 0.000124796 -2.87293e-05
0.00446774 -0.000321023 0.000190015
0.00439958 -8.60445e-05 0.000244446
0.00459644 -0.000313042 -0.000696938
0.00449468 0.000170107 -4.11008e-05
0.00471777 -0.000324184 0.0003197
0.00447814 0.00011298 -0.000185177
0.0043658 -7.92944e-05 0.000148157
0.00424446 -0.000240823 0.000168888
0.00426931 -0.000279222 0.000176383
0.00451011 -0.000307079 0.000248756
0.00444465 -0.000239692 -0.000714735
0.00428299 -0.000252546 0.000173371
0.00464352 -0.000311752 -0.000706924
0.00444563 -0.000347879 0.00019313
0.00441687 -0.000339652 0.000191996
0.0043046 -0.000260174 0.000406476
0.00441765 0.000121373 -2.78173e-05
0.00474358 -0.000174361 -1.56419e-05
0.00441367 -0.000291078 0.000179802
0.00483108 -0.000259277 0.00041048
0.00492827 -0.000430557 -3.53164e-05
0.00451008 0.000166204 4.52858e-05
0.00446057 -0.000310814 0.000188198
0.00442827 -0.000309847 0.000186966
0.0046198 -0.000299198 0.000243099
0.00438344 -0.000239933 -0.000703486
0.00429522 -0.000246485 0.000172614
0.00444823 -0.000240987 -0.000711911
0.00446809 -0.000307782 0.000255699
0.0044998 0.000154475 3.70439e-05
0.00446345 -0.000148052 0.000164723
0.00434726 -0.000278825 5.13683e-05
0.0044266 -0.000302528 0.000185143
0.00487107 -0.000219631 0.000405303
0.00448444 0.000114625 -4.53956e-05
0.00479488 -0.000216981 0.000431207
0.00438418 -0.000276176 -1.17754e-05
0.00492415 -0.00015663 0.000338818
0.0042503 -0.00027378 0.000175707
0.00453683 0.000172106 -4.18379e-05
0.00427807 -0.000307442 0.000259953
0.00441893 -0.0003087 0.00018537
0.00442069 -0.000268706 0.000172406
0.0048474 -0.000265189 0.000430516
0.00447913 -0.000294236 -0.000689675
0.00416876 0.000117603 0.000158219
0.00450642 -0.000180237 0.000377922
0.00465757 -0.000339759 0.000287675
0.00483438 -0.00033853 -0.000726981
0.00428022 -0.000120547 0.000151799
0.00450365 -0.000256294 -0.000715025
0.00439945 -0.000232961 -0.000715113
0.00443824 0.000120658 -2.74001e-05
0.00420192 -0.000157047 0.000155559
0.00453596 0.000165409 -3.9731e-05
0.00432426 -0.000334178 6.00846e-06
0.00462161 0.000111083 -2.43739e-05
0.00456099 -0.000235734 0.000215251
0.00437741 0.00011305 -2.58661e-05
0.00441475 -0.00021597 -1.58239e-05
0.00450807 0.000122497 2.64984e-05
0.00463174 -8.03205e-05 0.000249427
0.00458326 -0.000307258 -0.000698892
0.00445752 -0.000313301 0.000188392
0.00442248 0.000113069 -2.51726e-05
0.00467012 -0.000311203 -0.00071611
0.00445616 -0.000313216 0.000188582
0.00441122 0.000109155 -2.65594e-05
0.0044575 -0.00031489 0.000188922
0.00463627 0.000108717 -2.35911e-05
0.00453055 9.69374e-05 -2.02957e-05
0.00452422 -0.000264972 -0.000715116
0.00448047 0.000150313 9.99892e-06
0.0045707 -0.000125118 -0.00051686
0.00468513 -0.000327554 -0.000712158
0.00424574 -0.000271503 0.000175216
0.00447244 0.000131158 -4.09771e-05
0.00417255 -0.000216715 0.000164079
0.00441668 0.000134605 -2.84341e-05
0.00436277 -5.06358e-05 0.000143351
0.00468776 -0.000326647 -0.000711155
0.00483019 -0.000360516 -0.000710959
0.00438185 -9.41388e-05 8.96105e-05
0.00470665 -0.000223561 0.000379957
0.00460553 -0.000272169 0.000274245
0.00457672 -0.000281233 -0.000713731
0.00444152 -0.000274017 0.000186388
0.00459678 8.88196e-05 -1.83987e-05
0.00445597 -0.000291949 0.000185511
0.00443149 -0.000319551 0.000253267
0.00442317 0.000122642 -2.80919e-05
0.00474492 -0.000313705 -0.000725584
0.00477511 -0.000255809 0.000418412
0.00450876 0.00013228 2.9223e-05
0.00440476 0.000115567 -2.54313e-05
0.00435451 -0.000227834 -0.000706075
0.00465188 5.47687e-05 -0.000313043
0.00451341 9.50422e-05 -1.95778e-05
0.00446635 -0.00032826 0.000191234
0.00445124 0.000143545 -3.38267e-05
0.0046271 -0.000298552 -0.000711866
0.00465565 0.000105236 -2.36793e-05
0.00457377 -0.000314417 -0.000692434
0.00446755 0.000146106 -3.70582e-05
0.00447332 -0.000248371 -0.00071448
0.00446213 -0.000306365 0.000187353
0.00474145 -0.000212141 0.000410266
0.00443546 -0.000115413 9.20184e-05
0.00494456 -0.000256845 0.000479083
0.00457462 -0.000297728 -0.000700381
0.00482995 -0.000238976 0.000432115
0.00460349 -0.000314091 0.000232749
0.00456747 -0.000311715 0.000241843
0.0042719 -0.000238966 0.000170784
0.00456214 -0.000278055 -0.000713213
0.00440258 -1.28437e-05 0.000138237
0.00442561 -0.000236025 -0.000715867
0.00443549 -0.000258098 -0.000702326
0.00442435 -0.000110102 9.24753e-05
0.00459142 9.25462e-05 -1.91819e-05
0.00457991 0.000115276 -2.47994e-05
0.00472409 -0.000327296 -0.000712534
0.00452652 0.000121875 -2.71069e-05
0.00453256 9.32707e-05 -1.91619e-05
0.00461127 -0.000292848 -0.000712656
0.00481317 -0.000332668 -0.000726822
0.00444079 -0.000281561 3.54581e-05
0.00446351 -0.000310107 0.00018802
0.00483271 -0.000341982 -0.000690822
0.00471962 -0.000324573 -0.000713641
0.00455916 8.34018e-05 -1.11569e-05
0.00472773 -0.000334138 -0.000708334
0.00455038 -0.00122042 0.000974682
0.00470334 -0.000317894 -0.000713298
0.00474386 -0.000371631 -0.000687517
0.00455259 -0.00122009 0.000973603
0.0045296 -0.00121572 0.000969756
0.00468751 -0.000313517 -0.00071393
0.00448572 -0.00120822 0.000961599
0.00443062 -0.000324262 0.000189246
0.00443089 -0.00028153 0.000181997
0.00462211 -0.000296171 -0.000712194
0.00433649 -0.000313806 0.000252948
6.80318e-15 2.29892e-14 -7.03248e-14
0.00450767 -0.00121217 0.000965657
0.0044794 0.00013684 -3.3655e-05
0.00460022 0.000114307 -2.50009e-05
0.00447236 -0.000214231 -0.000721978
0.00442896 0.000135047 -3.20408e-05
0.00456331 8.5789e-05 -1.59131e-05
0.00453971 0.000102625 -2.18065e-05
0.00443101 0.000105281 -2.61053e-05
0.00420734 -0.000129756 0.000151207
0.0047831 -0.000338781 -0.000709613
0.00449663 0.000138263 -3.22974e-05
0.00444199 -0.0012004 0.000953274
0.00460837 8.69295e-05 -1.72898e-05
0.00459435 -0.000286947 -0.000713106
0.00460109 -0.00030265 0.000238045
0.00446124 0.000128265 -2.88028e-05
0.00445276 0.000119917 -2.92236e-05
0.00443213 7.74304e-05 -1.47856e-05
0.0044576 0.000146354 -3.38274e-05
0.00454055 8.36003e-05 -1.40501e-05
0.00440581 0.000105552 -2.66593e-05
0.00449744 0.000127195 -1.26413e-05
0.0044604 0.000106717 -2.26708e-05
0.00440521 0.000129397 -2.79141e-05
0.00458431 -3.90511e-06 -0.000179606
0.00442669 -0.000262298 0.000181949
-1.29328e-14 6.08898e-14 -1.90217e-13
0.00439821 -0.00119262 0.000945016
0.00446958 0.000139799 -3.08411e-05
0.00442007 -0.00119649 0.000949156
0.00446384 -0.00120428 0.000957399
0.00478907 -0.000258078 -0.000769981
0.00474113 -0.00032945 -0.000714885
0.00441697 0.000134193 -3.25624e-05
0.00431042 -0.000201814 0.000165882
0.00455175 0.000106873 -2.27271e-05
0.00442033 0.000117636 -2.61365e-05
0.00456243 0.000138436 -3.23219e-05
0.00441375 0.00012072 -2.62455e-05
0.00424945 -0.000276549 0.000176191
0.00477741 -0.000231953 -0.000517063
0.00475935 -0.000302155 -0.000735975
0.00454528 -0.000274519 -5.9764e-07
0.00420915 -0.000239218 0.000169163
0.00438981 0.000120256 -2.73789e-05
0.00425039 -0.000257794 0.000173478

VECTORS force float
-2.01009e-10 1.66137e-10 1.68158e-10
4.15433e-11 6.87808e-12 7.64481e-11
-1.47817e-10 -1.61013e-11 3.24965e-12
-3.31799e-10 -4.01697e-10 4.17329e-12
7.47787e-11 2.47145e-11 -2.05055e-10
-3.13785e-11 -1.85438e-10 1.02096e-10
-2.99322e-10 9.81226e-11 -5.32025e-11
2.74636e-12 -1.29438e-11 -1.99883e-10
4.93661e-11 8.81828e-11 -1.60587e-11
-4.44745e-11 -5.76012e-11 7.06355e-12
1.88334e-11 -9.92875e-11 2.16648e-10
-5.61658e-11 1.78887e-10 -8.70492e-11
-2.22031e-10 -6.51398e-12 5.94917e-12
-5.75664e-12 3.43245e-11 -3.76152e-11
-8.08123e-11 -1.06742e-11 2.37245e-11
-2.54795e-10 1.23875e-10 -3.00237e-11
5.97018e-12 2.08024e-11 -6.66413e-13
3.10368e-12 2.7112e-11 -4.66039e-12
3.2506e-11 1.5232e-10 -6.21569e-11
2.14877e-12 -1.93236e-11 -1.50328e-10
-2.39426e-11 4.51496e-11 -2.69726e-11
-4.55754e-11 7.93347e-11 -4.01083e-11
3.39937e-13 3.45482e-11 -1.52845e-11
4.04545e-11 -5.41421e-12 1.45446e-12
1.09284e-10 -8.94276e-11 3.88851e-11
8.51505e-11 1.02761e-10 -1.9999e-11
-5.88898e-11 -2.25614e-10 1.2707e-10
-1.81513e-12 -1.27717e-11 2.90471e-12
6.53444e-12 6.76032e-12 4.43639e-12
-4.458e-11 -1.00489e-10 5.6723e-11
5.96701e-11 1.85719e-10 -3.53786e-11
-6.94863e-11 -5.74415e-11 6.18039e-12
-5.26337e-12 5.38014e-11 2.7699e-11
-5.46957e-10 8.03792e-11 -2.65497e-11
4.87379e-11 4.04039e-11 5.82285e-12
1.60657e-11 9.64394e-11 -9.67699e-11
5.79961e-11 -2.38678e-11 8.85928e-12
9.90644e-11 -1.32375e-11 -5.9286e-11
-3.56713e-10 -1.20413e-10 6.23049e-12
9.56357e-11 4.16515e-11 2.27461e-12
-6.26505e-14 4.98856e-12 -3.84993e-12
5.07409e-11 9.60604e-12 -5.55886e-12
-8.21716e-11 -5.52948e-12 -1.55156e-11
-3.7273e-10 3.32831e-10 -6.64439e-11
1.97317e-11 -2.8874e-12 3.93845e-13
1.21635e-10 8.76482e-11 -3.00574e-12
-2.00531e-11 5.23946e-11 6.14961e-11
-1.65263e-10 1.86317e-11 -3.43577e-12
2.59755e-10 -4.33948e-10 7.7922e-11
9.24946e-11 2.91083e-11 -1.90641e-11
5.64587e-11 5.33246e-11 -2.89726e-11
9.93171e-11 1.37225e-10 -8.051e-11
-1.68569e-10 -3.57348e-10 5.89881e-11
-4.34724e-11 4.27725e-11 -4.96019e-11
2.9552e-10 8.64468e-11 2.56298e-10
8.96247e-11 1.83616e-10 -1.92111e-11
-1.09396e-10 3.82024e-11 -2.00126e-11
4.75925e-11 -5.64949e-11 -1.40163e-10
-1.19346e-10 4.64672e-11 -3.08915e-12
8.26684e-11 -3.05919e-11 3.4752e-12
8.47176e-11 -3.90113e-10 4.79376e-11
-1.57166e-10 1.86809e-10 -2.64981e-10
-1.07463e-10 9.69637e-11 -5.53476e-12
-3.21671e-11 1.42773e-10 1.25415e-11
2.81227e-10 1.04339e-10 -5.0482e-11
3.04121e-10 -1.30139e-10 8.68983e-12
1.88925e-10 -4.98926e-11 -9.34987e-12
1.09494e-10 -7.52172e-11 4.51464e-11
-8.06101e-12 4.34046e-11 6.74824e-12
-5.34825e-11 -6.87036e-11 7.0679e-12
-4.89196e-11 -8.06473e-12 -3.67825e-11
9.87132e-11 1.75933e-12 -4.24624e-12
8.11945e-11 -1.75898e-11 -9.79664e-12
-1.16452e-10 1.96954e-11 -1.04704e-11
-8.22532e-11 1.60446e-10 -9.37758e-11
-2.05363e-11 2.00831e-11 1.81441e-11
-2.06958e-11 -2.60878e-11 -4.84762e-11
1.39465e-10 -6.9148e-12 -2.52712e-11
3.96572e-10 1.90339e-10 -3.87155e-11
-3.4851e-10 1.06842e-10 8.91204e-11
-9.3141e-11 -3.17463e-11 -2.31491e-10
3.65794e-11 1.31147e-11 -3.54489e-12
-1.46435e-11 -1.49353e-10 -1.75552e-10
-1.52253e-10 5.06692e-12 -1.69483e-11
3.15977e-11 -9.88454e-11 6.61024e-11
2.14762e-11 3.15784e-11 -3.55896e-12
-8.20151e-11 -9.80857e-11 -4.10799e-10
4.61893e-10 -5.46663e-10 1.02652e-10
4.4528e-11 8.10921e-11 -1.98163e-11
-1.55792e-10 -6.41051e-11 -3.74078e-12
-1.8769e-10 1.15971e-10 -4.58702e-11
5.023e-11 3.69611e-10 -2.83761e-11
-8.87852e-11 -1.43645e-11 6.27685e-12
-1.21924e-10 -6.93974e-11 5.32871e-12
-8.72268e-11 -1.33236e-10 2.13707e-10
1.02635e-10 -7.41277e-11 2.94973e-11
3.7841e-12 -3.46753e-12 4.22022e-12
-4.0994e-11 1.23746e-10 -1.08513e-10
6.40523e-12 3.51445e-11 -5.77972e-11
-5.78384e-11 -3.25468e-11 7.12521e-12
-1.21327e-10 -1.73031e-10 2.03704e-12
5.32448e-11 5.38824e-11 -4.56583e-12
-2.75421e-10 4.12544e-11 -4.95455e-11
-9.66387e-11 -2.62649e-11 6.0905e-11
-2.97547e-11 -6.66962e-12 2.25868e-12
3.86262e-10 -1.46938e-10 2.34999e-11
2.64637e-11 5.17249e-11 -3.56597e-14
3.86685e-13 -1.49378e-11 -1.80327e-11
-1.68299e-10 -1.10264e-10 -1.70189e-11
-7.66502e-11 3.42267e-11 -6.43526e-12
-5.10623e-11 -2.13592e-10 1.19182e-10
-7.85667e-12 8.83935e-11 -6.66739e-11
4.49222e-10 1.34939e-10 -4.34748e-11
-1.0653e-10 -5.78607e-10 -9.11635e-10
-1.54265e-11 7.48607e-12 5.92631e-11
9.86849e-11 1.88084e-11 9.52427e-12
-1.63772e-10 2.54256e-10 -7.2568e-11
2.26134e-11 -4.92599e-11 5.3055e-11
-1.08621e-10 7.17593e-11 -2.96575e-11
-5.30067e-11 -3.77615e-11 3.17828e-12
6.07949e-11 -5.91094e-11 6.2691e-11
-2.83975e-10 1.76085e-10 -3.21519e-11
-3.52382e-11 5.43744e-11 2.15038e-11
-2.21823e-10 -5.35111e-11 -3.29145e-10
7.80785e-11 3.65141e-11 -7.7809e-11
-1.22825e-11 3.68296e-11 -5.89514e-12
4.93163e-10 -6.00819e-11 9.65268e-11
4.47005e-11 2.28756e-11 9.96173e-11
-3.10437e-11 5.84481e-11 9.44817e-12
-2.81296e-11 1.63511e-11 7.06777e-12
4.95672e-10 -9.87959e-11 1.70016e-10
-7.73635e-13 3.01592e-11 -9.88986e-12
-4.61086e-11 7.86707e-11 -2.26831e-11
-1.1409e-10 1.40604e-10 -1.81025e-10
-2.87447e-11 -2.32409e-11 -2.18882e-11
-1.06515e-10 -9.1612e-11 6.05386e-11
4.50044e-11 -1.15739e-11 1.06305e-10
2.65496e-12 -1.91103e-10 -3.07057e-10
-2.22405e-10 1.69137e-10 -3.71279e-10
1.12274e-10 -1.94276e-11 1.54354e-12
2.14676e-11 8.42287e-11 -5.90709e-11
1.15548e-10 -4.37733e-11 2.02827e-11
5.36296e-10 -1.26184e-09 2.23437e-10
-4.37052e-11 1.46152e-11 8.77155e-12
-2.37617e-12 -4.16767e-12 2.5097e-11
5.3525e-11 6.88457e-11 -1.34474e-11
1.05929e-10 2.02932e-11 -5.95074e-12
-6.54682e-11 -5.05557e-12 -1.30481e-12
-7.53096e-11 -6.85006e-11 9.40208e-11
-4.72406e-11 -9.53262e-11 2.45538e-11
2.36608e-11 -1.73659e-10 -2.33068e-10
-1.64195e-10 1.04667e-10 -2.26003e-11
-2.73014e-10 -2.967e-10 -4.09529e-10
-1.87251e-11 -5.88631e-11 -2.15896e-11
6.61345e-11 4.78448e-11 -4.20459e-11
-1.51616e-11 -2.06214e-12 1.02202e-11
8.07915e-11 3.57623e-11 6.75196e-12
6.59941e-11 4.13806e-11 -1.16086e-11
3.02634e-10 -1.44107e-10 7.80999e-12
6.99076e-11 3.1086e-12 -3.53583e-12
6.74706e-11 4.14832e-11 1.92183e-11
-9.20503e-11 -7.26289e-11 5.83409e-12
-3.14128e-11 -1.2258e-10 3.51098e-11
-2.32074e-10 8.59445e-11 -4.24209e-11
-2.00028e-10 8.70362e-11 -2.89219e-11
-1.17678e-11 3.9448e-11 -1.4058e-11
1.33686e-10 -1.05144e-10 -1.84901e-12
-1.49872e-10 1.45598e-10 -8.28403e-11
-9.45592e-11 -8.60041e-11 1.03521e-11
-1.04873e-10 3.3212e-11 3.59585e-12
3.70309e-10 3.76862e-10 -4.8152e-11
-5.15598e-11 -3.52198e-12 2.88156e-11
8.81477e-11 1.97323e-11 -1.36527e-12
-1.08089e-10 1.63181e-12 -3.86307e-11
4.82132e-11 -1.1885e-11 4.18015e-11
-2.4359e-12 5.00914e-11 3.23625e-11
6.39048e-11 8.78844e-11 -9.0089e-12
-4.7944e-11 2.18774e-10 3.52508e-10
3.31571e-11 3.4331e-11 -3.32366e-11
-9.96817e-11 6.41555e-11 1.33401e-10
2.91993e-11 -5.56612e-11 -5.39406e-12
5.55389e-12 1.90426e-11 1.61654e-12
3.30854e-10 1.31557e-11 -1.51285e-10
3.59427e-11 1.00655e-10 -2.17327e-11
-1.39206e-10 9.49132e-11 -3.16939e-11
-3.48372e-11 9.29272e-11 -1.46446e-10
-3.47739e-11 8.66169e-11 2.39388e-11
4.64338e-11 7.70994e-11 -1.23595e-11
1.54655e-11 3.85767e-11 -3.09299e-11
-8.40693e-11 -7.34389e-11 -6.5032e-12
-1.58079e-10 1.15659e-10 -2.87138e-11
4.66056e-11 3.10173e-11 -2.52232e-11
5.24905e-11 -1.08859e-10 3.07996e-11
1.52814e-10 1.99373e-11 -4.49799e-11
-8.16932e-11 -1.11387e-10 1.39675e-11
-4.40548e-11 -3.90334e-12 1.63626e-11
-1.30581e-10 -2.21199e-11 1.6109e-11
2.78619e-11 -3.19974e-11 2.72779e-11
1.71648e-11 1.68142e-11 -3.53218e-12
9.50353e-11 4.76536e-11 -4.05286e-11
3.71523e-11 7.98753e-12 -1.83891e-12
7.17963e-10 -1.03565e-10 -7.14586e-10
4.59535e-12 -9.28323e-12 6.65959e-12
1.71639e-11 5.18329e-11 8.673e-11
-9.61254e-11 -2.22028e-10 -1.79423e-10
-6.01539e-13 -1.97363e-10 -1.70051e-10
1.04058e-10 4.18553e-11 -7.56208e-12
-1.16738e-10 7.67648e-11 -3.41122e-11
1.3149e-10 9.61199e-11 -1.15983e-11
-1.52611e-10 -1.40487e-12 3.58165e-11
-1.18657e-10 6.35043e-11 -4.04652e-12
-7.76995e-11 2.21963e-11 -1.03167e-11
-1.2708e-11 5.94306e-11 -1.36513e-11
-8.61051e-11 -2.59082e-11 4.01765e-12
-1.20795e-10 -4.11356e-11 5.24028e-11
-8.43017e-11 4.08134e-11 -1.75055e-11
-2.51003e-10 1.2358e-10 -3.98207e-11
2.31287e-11 2.51337e-11 -2.71598e-11
5.65496e-12 2.82733e-11 -1.96513e-11
-3.9858e-11 -1.00184e-10 -6.16499e-11
1.44479e-10 7.86183e-11 -1.43357e-11
1.23831e-11 1.01056e-11 5.58996e-11
-7.37509e-12 -3.58057e-11 4.33036e-11
6.08981e-11 5.49878e-11 -2.88569e-11
-6.53425e-11 -1.00018e-10 6.75549e-11
7.94332e-11 -4.36697e-11 1.08752e-13
3.59548e-11 -2.17807e-11 2.04846e-11
3.77181e-11 -7.36263e-11 3.57323e-11
-1.29302e-11 -9.8991e-13 5.40897e-12
-2.59552e-12 -1.49117e-12 2.51002e-12
4.37212e-11 -2.78201e-11 2.03322e-11
2.66747e-13 -1.15156e-12 4.39578e-13
-5.27971e-11 1.09907e-11 -6.80144e-12
-3.56272e-11 -3.23794e-11 -8.74463e-12
5.63475e-11 3.92064e-11 -3.97498e-11
1.39463e-10 9.81753e-12 -2.79989e-10
-2.77881e-23 1.87667e-23 4.3427e-24
3.69165e-13 2.47015e-12 -2.49963e-12
-2.17695e-12 1.89603e-11 2.54382e-11
-2.60275e-11 -5.02841e-11 1.34447e-11
-1.09664e-11 -1.16903e-11 -2.5858e-12
1.45121e-10 3.59693e-11 -4.43553e-11
-1.94481e-10 9.97379e-11 -5.09985e-11
-1.96423e-10 5.67684e-11 -2.22557e-11
1.00276e-10 9.77168e-11 3.51581e-13
6.76289e-10 -2.54272e-10 5.69882e-11
4.18357e-11 -2.45119e-11 2.90255e-11
-1.14255e-10 -1.07595e-10 3.10711e-11
1.266e-13 -4.1697e-13 -5.34996e-13
4.06585e-11 -2.82051e-12 2.18224e-12
1.87181e-11 2.84855e-11 -2.03995e-11
-1.17474e-11 3.72777e-11 1.66533e-10
-9.691e-11 1.13158e-12 2.42958e-11
-1.38753e-10 -4.90168e-11 2.22379e-11
3.01393e-12 8.49215e-11 -2.87259e-11
1.13642e-10 2.86973e-11 -1.1419e-11
1.64131e-10 3.19893e-12 -6.14362e-11
4.9942e-11 7.25068e-11 -1.37396e-11
-2.60348e-11 4.85632e-11 -1.17846e-10
1.8014e-11 7.08257e-11 -2.18676e-11
3.13019e-11 1.73726e-11 7.76578e-11
-1.22733e-11 -5.80567e-12 -1.3407e-10
-9.811e-11 -1.33488e-10 1.3487e-11
-8.09228e-22 -2.79639e-22 -3.4328e-23
-1.35943e-13 -3.77114e-13 5.36863e-14
-6.30337e-11 6.23299e-11 -3.20863e-11
-2.12467e-13 -4.3305e-13 4.99652e-13
-1.52069e-13 -4.67459e-13 6.25218e-13
1.45528e-11 -8.50165e-11 2.29679e-11
3.67043e-11 -5.36068e-11 3.43771e-11
9.13087e-12 5.16002e-11 1.46652e-11
-1.14429e-10 -5.08815e-11 5.45292e-12
-1.31316e-10 1.62777e-10 -5.11904e-11
1.74554e-10 1.06168e-10 -3.83192e-11
-1.17471e-10 1.06672e-10 -2.88455e-11
1.51025e-11 7.7096e-11 -1.42103e-11
1.41419e-11 1.41386e-10 -1.88883e-11
3.15227e-11 1.25303e-11 -3.22698e-11
-7.65937e-11 2.01929e-10 -1.17135e-10
-9.93013e-10 -1.5603e-10 3.17653e-10
-7.96189e-12 -7.59815e-11 1.49639e-11
-4.22344e-12 1.04755e-10 -3.71671e-11
9.53214e-11 7.38115e-11 7.31444e-12
