# vtk DataFile Version 3.0
LIGGGHTS particles timestep 39000000
ASCII
DATASET POLYDATA
POINTS 283 float
0.191527 0.0164655 0.00773986
0.191893 0.0175868 0.00711911
0.191996 0.0184952 0.0068597
0.191976 0.0183963 0.00686264
0.191177 0.0152637 0.00897865
0.197552 0.0165705 0.00767114
0.191316 0.0156267 0.00841765
0.191157 0.0152305 0.00907085
0.197807 0.017594 0.00709882
0.192222 0.0183008 0.00688776
0.191701 0.0168024 0.00748249
0.197762 0.0174238 0.00719403
0.192253 0.0176098 0.00710438
0.185121 0.015192 0.0092379
0.192232 0.0175145 0.00713476
0.185454 0.0161545 0.00792029
0.197925 0.0181481 0.00692504
0.191918 0.0181158 0.00695195
0.191924 0.0173325 0.00718378
0.191196 0.0152971 0.00888627
0.192036 0.0186916 0.00685685
0.19772 0.0172533 0.00728939
0.192085 0.0176444 0.00709683
0.197656 0.0169974 0.00743246
0.185377 0.0158322 0.00813729
0.191879 0.0179288 0.00701149
0.197533 0.0164848 0.00771897
0.192092 0.0185281 0.00686032
0.192179 0.0176744 0.00708555
0.197572 0.0166561 0.00762331
0.19186 0.0178354 0.00704126
0.192274 0.0177049 0.00707407
0.197864 0.0178576 0.0069695
0.191291 0.0155529 0.00848035
0.19222 0.0178636 0.00702527
0.191331 0.0157022 0.00835389
0.191968 0.0175222 0.00713727
0.191977 0.0171725 0.00722495
0.192072 0.0184301 0.00686174
0.192031 0.0178027 0.00704814
0.197592 0.0167415 0.00757555
0.197677 0.0170827 0.00738477
0.191232 0.0153646 0.00870151
0.191902 0.0172371 0.00720716
0.197635 0.0169121 0.00748015
0.192125 0.0178332 0.00703667
0.186077 0.0188975 0.00686439
0.186039 0.0178333 0.00698851
0.192203 0.0182073 0.00691754
0.197613 0.0168269 0.00752784
0.185649 0.0166083 0.00766448
0.197741 0.0173386 0.00724171
0.191839 0.0177422 0.00707097
0.191214 0.0153305 0.00879387
0.191776 0.0167471 0.00751958
0.192013 0.0181467 0.00694035
0.197698 0.017168 0.00733708
0.191583 0.016332 0.00783553
0.186219 0.0183355 0.00691993
0.192294 0.0177996 0.00704391
0.185703 0.016463 0.00774353
0.191859 0.01706 0.0072846
0.197969 0.0179024 0.00696389
0.185691 0.0167789 0.00756915
0.197784 0.0175091 0.00714633
0.191251 0.0154109 0.00861503
0.191647 0.0169357 0.00738711
0.191271 0.0154781 0.00854363
0.197905 0.0180513 0.00693986
0.192131 0.0187243 0.00685747
0.185186 0.0153393 0.00898479
0.185285 0.015587 0.00856239
0.191989 0.0176158 0.00710874
0.186271 0.0185433 0.00690132
0.185765 0.0167193 0.00760038
0.185207 0.0153881 0.00890014
0.197846 0.0177655 0.0070038
0.185628 0.0165229 0.00771219
0.192052 0.018335 0.00688576
0.197826 0.0176796 0.00705097
0.191796 0.0168254 0.00746078
0.19201 0.0177087 0.00707809
0.191722 0.0168807 0.00742371
0.191602 0.0164106 0.00777663
0.191933 0.0170046 0.00732167
0.192041 0.017457 0.00715517
0.191784 0.0171162 0.00724724
0.192183 0.0181139 0.00694731
0.191998 0.0172674 0.00720167
0.19185 0.0173972 0.00716597
0.185829 0.0169751 0.00745745
0.191796 0.0175548 0.00712537
0.186095 0.0176856 0.00705842
0.192145 0.0179269 0.00700685
0.192115 0.0173918 0.00717309
0.185744 0.0166339 0.00764807
0.186151 0.0179566 0.00695437
0.191641 0.0165674 0.00765893
0.185142 0.0152422 0.00915414
0.192164 0.0180204 0.00697708
0.191957 0.0183028 0.00689241
0.192056 0.0187896 0.00685543
0.19143 0.0160753 0.00803651
0.185344 0.0157305 0.00830564
0.192167 0.0184622 0.00686236
0.185669 0.0166936 0.0076168
0.191899 0.0180223 0.00698172
0.191818 0.0176495 0.00710157
0.191681 0.0167241 0.00754129
0.186252 0.0184456 0.00691016
0.197513 0.0163992 0.0077668
0.19202 0.0173622 0.00717842
0.191892 0.0168481 0.00743923
0.191688 0.0170932 0.00727107
0.186065 0.0188234 0.00693029
0.191955 0.0178662 0.00702966
0.192369 0.0177352 0.00706266
0.191563 0.0162535 0.00789442
0.185247 0.0154868 0.00873079
0.192242 0.0183961 0.00686441
0.185358 0.0157758 0.00821763
0.191409 0.0160021 0.00810143
0.186137 0.0187805 0.00687651
0.191752 0.0173652 0.00717186
0.19188 0.0171416 0.00723058
0.192063 0.0175508 0.00712669
0.191742 0.0169589 0.00736497
0.186026 0.0186422 0.0068875
0.191586 0.0167007 0.00756333
0.191807 0.0172078 0.00721339
0.191817 0.0169036 0.00740203
0.192187 0.0185602 0.00686094
0.186114 0.0177718 0.00701029
0.191352 0.0157765 0.00829037
0.192137 0.0174856 0.00714574
0.191946 0.0174274 0.00716052
0.191626 0.0168573 0.00744574
0.185164 0.01529 0.00906904
0.191859 0.0177175 0.00716591
0.191912 0.0169264 0.00738041
0.191621 0.016489 0.00771778
0.185893 0.0172309 0.00731452
0.192278 0.018144 0.00693594
0.185417 0.0159791 0.00800888
0.185307 0.0156357 0.00847764
0.185987 0.0184469 0.00690518
0.192108 0.018177 0.00692895
0.186132 0.0178589 0.00696322
0.191954 0.0170828 0.00726288
0.185978 0.0175724 0.00712373
0.191763 0.0170372 0.00730634
0.186314 0.0183676 0.00691864
0.191731 0.0172704 0.00719512
0.186046 0.0187399 0.00687866
0.191838 0.0169818 0.00734328
0.185608 0.0164373 0.00775994
0.192105 0.0177387 0.00706678
0.185926 0.0181544 0.00693161
0.185595 0.0167528 0.00758585
0.191975 0.0179601 0.00700097
0.186062 0.0183814 0.00691273
0.192069 0.01799 0.00698849
0.185957 0.0174869 0.00717153
0.185848 0.0177767 0.00701388
0.185436 0.0160673 0.00796591
0.186121 0.0186745 0.0068862
0.185915 0.0173162 0.00726685
0.185786 0.0168046 0.00755274
0.192206 0.0186582 0.00685952
0.186196 0.0186088 0.00689376
0.192033 0.0182402 0.00691064
0.186157 0.0184135 0.00691145
0.192089 0.0180835 0.00695872
0.185712 0.0168642 0.0075215
0.185798 0.0172053 0.00733093
0.197884 0.0179545 0.00695468
0.191546 0.0165439 0.00768101
0.191507 0.0163871 0.00779871
0.185493 0.0163282 0.0078292
0.191872 0.017492 0.00714272
0.185862 0.0174611 0.007188
0.191936 0.017773 0.0070602
0.191393 0.0159255 0.0081638
0.186022 0.0181862 0.00693039
0.18585 0.0170604 0.00740981
0.191661 0.0166458 0.0076001
0.186146 0.0189698 0.00685885
0.185946 0.0182519 0.0069228
0.185271 0.0155351 0.00864659
0.185841 0.0173759 0.00723564
0.185885 0.0179594 0.00694922
0.1922 0.0177693 0.00705531
0.186002 0.0180887 0.00693918
0.185573 0.0166675 0.0076335
0.185936 0.0174015 0.00721921
0.185723 0.0165484 0.0076958
0.186287 0.0186495 0.00689161
0.185396 0.0158995 0.0080658
0.191994 0.0180532 0.00697012
0.191566 0.0166223 0.00762216
0.197965 0.0183418 0.00689541
0.191667 0.0170142 0.00732875
0.185588 0.0163517 0.00780776
0.191606 0.0167791 0.00750452
0.191469 0.0162344 0.00792201
0.191448 0.0161539 0.00797747
0.192297 0.0182376 0.00690614
0.185475 0.0162415 0.00787534
0.192239 0.0179572 0.00699544
0.185325 0.0156826 0.00839131
0.185227 0.0154372 0.00881539
0.197945 0.018245 0.00691022
0.185904 0.0176319 0.0070926
0.18602 0.0177449 0.00703132
0.185734 0.0169495 0.00747386
0.186056 0.017926 0.0069555
0.185865 0.0178629 0.00696592
0.185533 0.0164966 0.00772895
0.185872 0.0171457 0.00736216
0.191829 0.0173026 0.00719031
0.19205 0.0178965 0.00701826
0.185723 0.0172644 0.0073
0.185659 0.0170086 0.00744292
0.185809 0.0176055 0.00710943
0.185755 0.0170348 0.00742621
0.179665 0.0169908 0.0073201
0.185638 0.0169234 0.00749057
0.185776 0.01712 0.00737857
0.179645 0.0169182 0.00738578
0.179688 0.0170724 0.00726695
0.185616 0.0168381 0.00753821
0.17973 0.0172604 0.00721293
0.192158 0.0175796 0.00711573
0.191915 0.0176806 0.0070921
0.185553 0.0165821 0.00768122
0.19137 0.0158529 0.00822854
0.215741 0.019982 0.00563384
0.179708 0.0171666 0.00723991
0.186101 0.0185767 0.00689505
0.185999 0.0176578 0.00707603
0.185569 0.0162659 0.0078556
0.186098 0.0181208 0.00693793
0.185829 0.017691 0.00706172
0.185943 0.0178038 0.00699672
0.186082 0.018479 0.00690389
0.192127 0.0182705 0.00689916
0.185702 0.0171792 0.00734764
0.185981 0.0179914 0.00694801
0.179773 0.0174495 0.00716478
0.185883 0.0175464 0.00714035
0.185513 0.016411 0.00777672
0.191487 0.0163088 0.00785779
0.186176 0.0185112 0.0069026
0.186007 0.0185445 0.00689634
0.186346 0.0184777 0.00690887
0.186172 0.018054 0.00694559
0.185787 0.0175202 0.00715707
0.186042 0.0182839 0.00692154
0.186077 0.0180234 0.00694673
0.185905 0.0180569 0.00694042
0.186128 0.0183207 0.00695781
0.185766 0.017435 0.00720471
0.191774 0.01746 0.00714862
0.404182 0.0211142 0.0056569
0.179816 0.0176427 0.00713513
0.186212 0.0187151 0.00688405
0.179795 0.0175461 0.00714996
0.179752 0.0173542 0.00718594
0.185819 0.0172906 0.00728328
0.18568 0.0170939 0.00739528
0.186117 0.0182185 0.00692908
0.192147 0.0183641 0.00686937
0.185924 0.0177179 0.00704459
0.186228 0.0181371 0.00693877
0.185961 0.0178937 0.00695681
0.185967 0.0183493 0.00691399
0.192111 0.0186261 0.0068589
0.185745 0.0173497 0.00725236
0.185807 0.0168898 0.00750509
0.191709 0.0171756 0.00721836
0.191937 0.0182093 0.00692218
0.186216 0.018236 0.00692925
0.192016 0.0185935 0.00685828

VERTICES 283 566
1 0
1 1
1 2
1 3
1 4
1 5
1 6
1 7
1 8
1 9
1 10
1 11
1 12
1 13
1 14
1 15
1 16
1 17
1 18
1 19
1 20
1 21
1 22
1 23
1 24
1 25
1 26
1 27
1 28
1 29
1 30
1 31
1 32
1 33
1 34
1 35
1 36
1 37
1 38
1 39
1 40
1 41
1 42
1 43
1 44
1 45
1 46
1 47
1 48
1 49
1 50
1 51
1 52
1 53
1 54
1 55
1 56
1 57
1 58
1 59
1 60
1 61
1 62
1 63
1 64
1 65
1 66
1 67
1 68
1 69
1 70
1 71
1 72
1 73
1 74
1 75
1 76
1 77
1 78
1 79
1 80
1 81
1 82
1 83
1 84
1 85
1 86
1 87
1 88
1 89
1 90
1 91
1 92
1 93
1 94
1 95
1 96
1 97
1 98
1 99
1 100
1 101
1 102
1 103
1 104
1 105
1 106
1 107
1 108
1 109
1 110
1 111
1 112
1 113
1 114
1 115
1 116
1 117
1 118
1 119
1 120
1 121
1 122
1 123
1 124
1 125
1 126
1 127
1 128
1 129
1 130
1 131
1 132
1 133
1 134
1 135
1 136
1 137
1 138
1 139
1 140
1 141
1 142
1 143
1 144
1 145
1 146
1 147
1 148
1 149
1 150
1 151
1 152
1 153
1 154
1 155
1 156
1 157
1 158
1 159
1 160
1 161
1 162
1 163
1 164
1 165
1 166
1 167
1 168
1 169
1 170
1 171
1 172
1 173
1 174
1 175
1 176
1 177
1 178
1 179
1 180
1 181
1 182
1 183
1 184
1 185
1 186
1 187
1 188
1 189
1 190
1 191
1 192
1 193
1 194
1 195
1 196
1 197
1 198
1 199
1 200
1 201
1 202
1 203
1 204
1 205
1 206
1 207
1 208
1 209
1 210
1 211
1 212
1 213
1 214
1 215
1 216
1 217
1 218
1 219
1 220
1 221
1 222
1 223
1 224
1 225
1 226
1 227
1 228
1 229
1 230
1 231
1 232
1 233
1 234
1 235
1 236
1 237
1 238
1 239
1 240
1 241
1 242
1 243
1 244
1 245
1 246
1 247
1 248
1 249
1 250
1 251
1 252
1 253
1 254
1 255
1 256
1 257
1 258
1 259
1 260
1 261
1 262
1 263
1 264
1 265
1 266
1 267
1 268
1 269
1 270
1 271
1 272
1 273
1 274
1 275
1 276
1 277
1 278
1 279
1 280
1 281
1 282

POINT_DATA 283
SCALARS id int 1
LOOKUP_TABLE default
1
2
3
4
5
6
7
8
9
10
11
12
13
14
15
16
18
19
20
21
22
24
25
26
27
29
30
31
32
33
34
35
36
37
38
40
41
42
43
44
45
46
47
48
49
50
52
55
56
57
58
59
60
61
62
63
64
65
66
67
68
69
70
71
72
73
74
75
76
77
78
79
80
81
82
83
84
85
86
87
88
89
90
91
92
93
94
95
96
98
99
100
101
102
103
104
105
106
107
108
109
110
111
112
113
114
115
116
117
118
119
120
121
122
123
124
125
126
127
128
129
130
131
132
133
134
135
136
137
138
139
140
141
142
144
145
146
147
148
149
150
152
153
154
155
156
157
158
159
160
161
162
164
165
166
167
168
169
170
171
172
173
174
175
176
177
178
179
180
181
182
183
184
185
186
187
188
189
190
191
192
193
194
195
196
197
198
199
200
201
202
203
204
205
206
207
208
209
210
211
213
214
215
217
218
219
220
221
222
223
224
225
226
227
228
229
230
231
232
233
234
235
236
237
238
239
241
242
243
244
245
246
247
248
249
250
251
252
253
254
255
256
257
258
259
260
261
262
263
264
265
267
268
269
270
271
272
273
274
275
276
277
278
279
280
281
282
283
284
285
286
287
288
289
290
292
293
294
295
296
297
298
300

SCALARS type int 1
LOOKUP_TABLE default
1
1
1
1
1
1
1
1
1
1
1
1
1
1
1
1
1
1
1
1
1
1
1
1
1
1
1
1
1
1
1
1
1
1
1
1
1
1
1
1
1
1
1
1
1
1
1
1
1
1
1
1
1
1
1
1
1
1
1
1
1
1
1
1
1
1
1
1
1
1
1
1
1
1
1
1
1
1
1
1
1
1
1
1
1
1
1
1
1
1
1
1
1
1
1
1
1
1
1
1
1
1
1
1
1
1
1
1
1
1
1
1
1
1
1
1
1
1
1
1
1
1
1
1
1
1
1
1
1
1
1
1
1
1
1
1
1
1
1
1
1
1
1
1
1
1
1
1
1
1
1
1
1
1
1
1
1
1
1
1
1
1
1
1
1
1
1
1
1
1
1
1
1
1
1
1
1
1
1
1
1
1
1
1
1
1
1
1
1
1
1
1
1
1
1
1
1
1
1
1
1
1
1
1
1
1
1
1
1
1
1
1
1
1
1
1
1
1
1
1
1
1
1
1
1
1
1
1
1
1
1
1
1
1
1
1
1
1
1
1
1
1
1
1
1
1
1
1
1
1
1
1
1
1
1
1
1
1
1
1
1
1
1
1
1
1
1
1
1
1
1
1
1
1
1
1
1
1
1
1
1
1
1

SCALARS radius float 1
LOOKUP_TABLE default
5e-05
5e-05
5e-05
5e-05
5e-05
5e-05
5e-05
5e-05
5e-05
5e-05
5e-05
5e-05
5e-05
5e-05
5e-05
5e-05
5e-05
5e-05
5e-05
5e-05
5e-05
5e-05
5e-05
5e-05
5e-05
5e-05
5e-05
5e-05
5e-05
5e-05
5e-05
5e-05
5e-05
5e-05
5e-05
5e-05
5e-05
5e-05
5e-05
5e-05
5e-05
5e-05
5e-05
5e-05
5e-05
5e-05
5e-05
5e-05
5e-05
5e-05
5e-05
5e-05
5e-05
5e-05
5e-05
5e-05
5e-05
5e-05
5e-05
5e-05
5e-05
5e-05
5e-05
5e-05
5e-05
5e-05
5e-05
5e-05
5e-05
5e-05
5e-05
5e-05
5e-05
5e-05
5e-05
5e-05
5e-05
5e-05
5e-05
5e-05
5e-05
5e-05
5e-05
5e-05
5e-05
5e-05
5e-05
5e-05
5e-05
5e-05
5e-05
5e-05
5e-05
5e-05
5e-05
5e-05
5e-05
5e-05
5e-05
5e-05
5e-05
5e-05
5e-05
5e-05
5e-05
5e-05
5e-05
5e-05
5e-05
5e-05
5e-05
5e-05
5e-05
5e-05
5e-05
5e-05
5e-05
5e-05
5e-05
5e-05
5e-05
5e-05
5e-05
5e-05
5e-05
5e-05
5e-05
5e-05
5e-05
5e-05
5e-05
5e-05
5e-05
5e-05
5e-05
5e-05
5e-05
5e-05
5e-05
5e-05
5e-05
5e-05
5e-05
5e-05
5e-05
5e-05
5e-05
5e-05
5e-05
5e-05
5e-05
5e-05
5e-05
5e-05
5e-05
5e-05
5e-05
5e-05
5e-05
5e-05
5e-05
5e-05
5e-05
5e-05
5e-05
5e-05
5e-05
5e-05
5e-05
5e-05
5e-05
5e-05
5e-05
5e-05
5e-05
5e-05
5e-05
5e-05
5e-05
5e-05
5e-05
5e-05
5e-05
5e-05
5e-05
5e-05
5e-05
5e-05
5e-05
5e-05
5e-05
5e-05
5e-05
5e-05
5e-05
5e-05
5e-05
5e-05
5e-05
5e-05
5e-05
5e-05
5e-05
5e-05
5e-05
5e-05
5e-05
5e-05
5e-05
5e-05
5e-05
5e-05
5e-05
5e-05
5e-05
5e-05
5e-05
5e-05
5e-05
5e-05
5e-05
5e-05
5e-05
5e-05
5e-05
5e-05
5e-05
5e-05
5e-05
5e-05
5e-05
5e-05
5e-05
5e-05
5e-05
5e-05
5e-05
5e-05
5e-05
5e-05
5e-05
5e-05
5e-05
5e-05
5e-05
5e-05
5e-05
5e-05
5e-05
5e-05
5e-05
5e-05
5e-05
5e-05
5e-05
5e-05
5e-05
5e-05
5e-05
5e-05
5e-05
5e-05
5e-05
5e-05
5e-05
5e-05
5e-05
5e-05
5e-05
5e-05
5e-05
5e-05
5e-05
5e-05
5e-05
5e-05
5e-05
5e-05
5e-05
5e-05
5e-05
5e-05
5e-05

SCALARS mass float 1
LOOKUP_TABLE default
1.46608e-10
1.46608e-10
1.46608e-10
1.46608e-10
1.46608e-10
1.46608e-10
1.46608e-10
1.46608e-10
1.46608e-10
1.46608e-10
1.46608e-10
1.46608e-10
1.46608e-10
1.46608e-10
1.46608e-10
1.46608e-10
1.46608e-10
1.46608e-10
1.46608e-10
1.46608e-10
1.46608e-10
1.46608e-10
1.46608e-10
1.46608e-10
1.46608e-10
1.46608e-10
1.46608e-10
1.46608e-10
1.46608e-10
1.46608e-10
1.46608e-10
1.46608e-10
1.46608e-10
1.46608e-10
1.46608e-10
1.46608e-10
1.46608e-10
1.46608e-10
1.46608e-10
1.46608e-10
1.46608e-10
1.46608e-10
1.46608e-10
1.46608e-10
1.46608e-10
1.46608e-10
1.46608e-10
1.46608e-10
1.46608e-10
1.46608e-10
1.46608e-10
1.46608e-10
1.46608e-10
1.46608e-10
1.46608e-10
1.46608e-10
1.46608e-10
1.46608e-10
1.46608e-10
1.46608e-10
1.46608e-10
1.46608e-10
1.46608e-10
1.46608e-10
1.46608e-10
1.46608e-10
1.46608e-10
1.46608e-10
1.46608e-10
1.46608e-10
1.46608e-10
1.46608e-10
1.46608e-10
1.46608e-10
1.46608e-10
1.46608e-10
1.46608e-10
1.46608e-10
1.46608e-10
1.46608e-10
1.46608e-10
1.46608e-10
1.46608e-10
1.46608e-10
1.46608e-10
1.46608e-10
1.46608e-10
1.46608e-10
1.46608e-10
1.46608e-10
1.46608e-10
1.46608e-10
1.46608e-10
1.46608e-10
1.46608e-10
1.46608e-10
1.46608e-10
1.46608e-10
1.46608e-10
1.46608e-10
1.46608e-10
1.46608e-10
1.46608e-10
1.46608e-10
1.46608e-10
1.46608e-10
1.46608e-10
1.46608e-10
1.46608e-10
1.46608e-10
1.46608e-10
1.46608e-10
1.46608e-10
1.46608e-10
1.46608e-10
1.46608e-10
1.46608e-10
1.46608e-10
1.46608e-10
1.46608e-10
1.46608e-10
1.46608e-10
1.46608e-10
1.46608e-10
1.46608e-10
1.46608e-10
1.46608e-10
1.46608e-10
1.46608e-10
1.46608e-10
1.46608e-10
1.46608e-10
1.46608e-10
1.46608e-10
1.46608e-10
1.46608e-10
1.46608e-10
1.46608e-10
1.46608e-10
1.46608e-10
1.46608e-10
1.46608e-10
1.46608e-10
1.46608e-10
1.46608e-10
1.46608e-10
1.46608e-10
1.46608e-10
1.46608e-10
1.46608e-10
1.46608e-10
1.46608e-10
1.46608e-10
1.46608e-10
1.46608e-10
1.46608e-10
1.46608e-10
1.46608e-10
1.46608e-10
1.46608e-10
1.46608e-10
1.46608e-10
1.46608e-10
1.46608e-10
1.46608e-10
1.46608e-10
1.46608e-10
1.46608e-10
1.46608e-10
1.46608e-10
1.46608e-10
1.46608e-10
1.46608e-10
1.46608e-10
1.46608e-10
1.46608e-10
1.46608e-10
1.46608e-10
1.46608e-10
1.46608e-10
1.46608e-10
1.46608e-10
1.46608e-10
1.46608e-10
1.46608e-10
1.46608e-10
1.46608e-10
1.46608e-10
1.46608e-10
1.46608e-10
1.46608e-10
1.46608e-10
1.46608e-10
1.46608e-10
1.46608e-10
1.46608e-10
1.46608e-10
1.46608e-10
1.46608e-10
1.46608e-10
1.46608e-10
1.46608e-10
1.46608e-10
1.46608e-10
1.46608e-10
1.46608e-10
1.46608e-10
1.46608e-10
1.46608e-10
1.46608e-10
1.46608e-10
1.46608e-10
1.46608e-10
1.46608e-10
1.46608e-10
1.46608e-10
1.46608e-10
1.46608e-10
1.46608e-10
1.46608e-10
1.46608e-10
1.46608e-10
1.46608e-10
1.46608e-10
1.46608e-10
1.46608e-10
1.46608e-10
1.46608e-10
1.46608e-10
1.46608e-10
1.46608e-10
1.46608e-10
1.46608e-10
1.46608e-10
1.46608e-10
1.46608e-10
1.46608e-10
1.46608e-10
1.46608e-10
1.46608e-10
1.46608e-10
1.46608e-10
1.46608e-10
1.46608e-10
1.46608e-10
1.46608e-10
1.46608e-10
1.46608e-10
1.46608e-10
1.46608e-10
1.46608e-10
1.46608e-10
1.46608e-10
1.46608e-10
1.46608e-10
1.46608e-10
1.46608e-10
1.46608e-10
1.46608e-10
1.46608e-10
1.46608e-10
1.46608e-10
1.46608e-10
1.46608e-10
1.46608e-10
1.46608e-10
1.46608e-10
1.46608e-10
1.46608e-10
1.46608e-10
1.46608e-10
1.46608e-10
1.46608e-10
1.46608e-10
1.46608e-10
1.46608e-10
1.46608e-10
1.46608e-10
1.46608e-10
1.46608e-10
1.46608e-10
1.46608e-10
1.46608e-10

VECTORS velocity float
0.00434817 -0.000274409 -1.68684e-05
0.00486797 -0.000185863 7.27812e-05
0.00439487 -0.00013766 5.70296e-05
0.00460711 -0.000184714 -3.34742e-05
0.00444162 -0.000192084 0.000149708
0.00440328 2.08518e-05 -0.000117261
0.00440781 -8.31058e-06 0.000122401
0.00474272 -0.00022741 0.000223787
0.00494972 -8.47695e-05 -7.24903e-05
0.00436517 -0.00019313 1.43686e-05
0.00472821 -0.000310143 -1.08834e-05
0.00488085 -7.17574e-05 -7.68938e-05
0.00418973 -0.000254078 -3.1892e-06
0.00472818 -2.22419e-05 0.000190101
0.00467753 0.000296642 -0.000181717
0.00442059 1.60689e-06 6.70227e-05
0.00455415 5.09317e-05 5.14326e-05
0.00451266 -0.000165069 -3.79412e-05
0.00485677 -0.000183417 0.000151265
0.00448922 -0.000189582 0.000134797
0.00442095 -0.000173601 5.72782e-05
0.00486575 -7.90082e-05 -7.25329e-05
0.00432824 -0.000180051 -2.10071e-05
0.00478814 -5.5086e-05 -8.44572e-05
0.00438677 6.55971e-05 0.000216318
0.00445698 -8.85005e-05 -5.87957e-05
0.00440896 1.55059e-05 -0.000114315
0.0044034 -0.000157515 5.66207e-05
0.00430938 -0.000156913 -3.48059e-05
0.00439269 2.66677e-05 -0.00012011
0.00441177 -9.06764e-05 -6.25759e-05
0.00438948 -0.000173725 -3.18645e-05
0.00450323 6.40466e-05 4.81459e-05
0.00441305 -5.89608e-06 0.000131695
0.00441078 -0.000230907 -1.65344e-05
0.00441126 -1.58055e-05 0.000119214
0.00485484 -0.000184229 0.000153407
0.00486468 -0.00024516 0.000166885
0.00438122 -0.000149313 5.5816e-05
0.0043787 -0.000144311 -3.6373e-05
0.00456512 -5.21009e-06 -0.000106756
0.00481506 -6.36937e-05 -7.99821e-05
0.00456737 -0.000136541 0.000119688
0.00491128 -0.00018935 0.000154519
0.00476139 -5.0383e-05 -8.69581e-05
0.00439078 -0.000187749 -2.95272e-05
0.00444487 -0.000264417 0.000106404
0.00461771 -0.000218578 7.36456e-05
0.00437381 -0.000188135 -2.75275e-05
0.00475201 -4.41873e-05 -8.99324e-05
0.00459724 -0.000154309 -2.37519e-05
0.00487804 -7.31798e-05 -7.54194e-05
0.0048875 -0.000197014 -3.33842e-05
0.00456477 -0.000181346 0.000127245
0.00465284 -0.00038993 5.28012e-05
0.00452454 -0.000190466 -3.05012e-05
0.00483675 -7.42722e-05 -7.46854e-05
0.00431933 -0.000294225 -8.4448e-07
0.00445711 -0.000166061 9.43985e-05
0.0043969 -0.000247323 -8.77802e-06
0.00441553 -0.000157549 -1.55399e-05
0.00486545 -0.000333863 -2.22288e-05
0.00450993 4.16008e-05 5.19146e-05
0.00471098 -0.00018392 -9.46491e-06
0.00490603 -7.8095e-05 -7.51339e-05
0.00452716 -6.9577e-05 0.000130346
0.00482075 -0.0002891 3.25609e-05
0.00446128 -2.34117e-05 0.000139373
0.00453282 4.98511e-05 5.04514e-05
0.00442111 -0.000198659 5.78327e-05
0.00468917 -0.000143965 0.000135582
0.00435994 -5.0989e-05 0.00014923
0.00483583 -0.000229338 -9.52926e-05
0.00436445 -0.000304123 0.000108701
0.00466772 -0.000204788 3.06001e-06
0.00441984 -9.10023e-05 0.000116721
0.00461091 1.18037e-05 -3.7817e-05
0.00449428 -0.00013035 -3.5087e-05
0.00436738 -0.000151778 4.06392e-05
0.00495804 -8.62204e-05 -7.12752e-05
0.00476282 -0.000371223 3.7819e-05
0.0043435 -0.000170272 -2.87777e-05
0.0048042 -0.000333573 5.71509e-06
0.0043492 -0.000296103 4.017e-07
0.00483911 -0.000357562 2.08895e-05
0.00482063 -0.000220005 0.000157259
0.00492028 -0.000176668 0.000175928
0.004525 -0.000228371 -1.81668e-05
0.0047963 -0.000237733 0.000163178
0.00487855 -0.000176847 0.000147277
0.00477673 -0.000232163 1.55575e-05
0.0048908 -0.00014918 0.000145595
0.00477496 -0.000240352 2.02394e-05
0.00444461 -0.000201682 -2.64569e-05
0.00478634 -0.000247907 0.000165659
0.00457462 -0.000186727 -4.95701e-06
0.00457309 -0.00019098 0.000102269
0.00441671 -0.000292894 -6.35807e-06
0.00472446 -0.000110547 0.000109713
0.00451474 -0.000215747 -2.12977e-05
0.00456501 -0.000193992 -3.09104e-05
0.0044315 -0.000184088 5.76068e-05
0.00430086 -8.12767e-05 0.000175516
0.00427366 0.000172075 0.000285023
0.00438228 -0.000183268 5.74864e-05
0.00466075 -0.000169925 -1.6419e-05
0.00448934 -8.81664e-05 -6.02129e-05
0.00488871 -0.000167374 6.53411e-05
0.00457308 -0.000291265 -1.46214e-05
0.00435525 -0.000256537 0.000103024
0.00441805 1.25308e-05 -0.000112949
0.00477995 -0.000243084 0.000165201
0.00493046 -0.000291515 -3.12859e-05
0.00490534 -0.00018154 0.000145615
0.00439296 -0.000271103 0.000104389
0.00441456 -0.000138046 -4.3711e-05
0.00440592 -0.000235455 -1.24856e-05
0.00430847 -0.000288007 -3.43255e-06
0.00405412 1.84346e-05 0.000120723
0.00438047 -0.000188132 5.52e-05
0.0043357 0.000117689 0.000266906
0.00426406 -4.98927e-05 0.000160165
0.00439989 -0.000278276 0.000107128
0.0049212 -0.000159191 0.000144766
0.00492788 -0.000215977 0.000163659
0.00481561 -0.000212085 -3.86552e-05
0.00484626 -0.000315055 5.04249e-05
0.0043659 -0.000286034 0.000107345
0.00449409 -0.000289098 -1.18756e-05
0.00492589 -0.000206782 0.000153687
0.00487369 -0.000330273 -1.66481e-06
0.00437205 -0.000190844 5.66253e-05
0.00465291 -0.000160375 -2.51168e-05
0.00437035 -1.37421e-05 0.000123907
0.00480298 -0.000231927 -2.43264e-05
0.00483791 -0.000187631 0.000154113
0.00469687 -0.00031462 -5.90816e-06
0.00468032 -3.95796e-05 0.000183739
0.00487021 -0.000188718 -2.46703e-05
0.00480394 -0.000355658 2.29597e-05
0.00440787 -0.000301727 1.00794e-06
0.00483467 -0.000257415 2.81458e-05
0.00447892 -8.23353e-05 -5.98919e-05
0.00442389 3.28195e-05 0.000153048
0.00449758 -9.64413e-05 0.000176365
0.00436289 -0.00027672 0.000103562
0.00453148 -0.000225667 -1.79207e-05
0.00466113 -0.000234633 0.000111812
0.00490536 -0.000327899 -4.9517e-06
0.00488069 -0.00027127 3.46577e-05
0.00488932 -0.000262909 3.49271e-05
0.00447194 -0.000184119 0.000102892
0.00494224 -0.000166165 0.000147853
0.00439832 -0.000288151 0.000107892
0.00486634 -0.000319534 -7.31763e-06
0.00439312 -0.000105312 -4.6081e-05
0.00435669 -0.000138878 -4.21652e-05
0.00454695 -0.000142346 9.81723e-05
0.00473129 -0.000156664 -2.55275e-05
0.00446821 -0.000160355 -3.77312e-05
0.00443327 -0.000270907 0.000119805
0.0044725 -0.000179719 -3.23878e-05
0.00490352 -0.000247489 2.13552e-05
0.00464491 -0.000240065 3.63856e-05
0.00444776 2.24202e-05 0.000120173
0.00439372 -0.000294938 0.000108783
0.00481703 -0.000286486 4.46362e-05
0.00470917 -0.000214346 7.53594e-06
0.00441599 -0.000204858 5.78916e-05
0.00438142 -0.000295814 0.000108748
0.00454709 -0.000206306 -2.389e-05
0.00445012 -0.000220704 9.86913e-05
0.00451226 -0.000197268 -2.82635e-05
0.00473176 -0.000195163 -3.63058e-06
0.0048239 -0.000245751 2.22388e-05
0.00452641 5.98762e-05 4.93034e-05
0.00436068 -0.000270702 -1.96529e-05
0.00433642 -0.000275534 -1.44296e-05
0.00438793 -9.62887e-05 -9.80881e-05
0.00486165 -0.000168423 0.000147454
0.00487785 -0.000267433 3.22333e-05
0.00438052 -0.000122088 -4.51577e-05
0.00427614 -3.26065e-05 0.000140389
0.00453988 -0.000284331 0.000110427
0.00480837 -0.00024109 1.99862e-05
0.00445567 -0.000284707 -1.39763e-05
0.00239977 0.00168487 -0.00011452
0.004566 -0.00014149 9.68231e-05
0.00417812 -7.88091e-06 0.00014642
0.00485413 -0.000259882 2.88249e-05
0.0045239 -0.000160512 0.000101069
0.00437021 -0.00019924 -2.77642e-05
0.00451283 -0.000271124 0.000110224
0.00470737 -0.000139861 -3.38366e-05
0.00485282 -0.000300943 5.22152e-05
0.0044765 -0.000168803 -1.20313e-05
0.00437328 -0.000316221 0.000110022
0.00440885 2.88722e-05 0.00016754
0.00450816 -0.000176114 -3.31759e-05
0.00442101 -0.000279709 -1.55455e-05
0.00460137 4.01021e-05 5.24131e-05
0.00487143 -0.000226929 0.000103898
0.00437815 -0.000102645 -5.92002e-05
0.00456176 -0.000295702 -1.00345e-05
0.00432592 -0.000212947 5.90401e-05
0.00432912 -0.000140735 0.000141364
0.00432108 -0.000245658 -3.18963e-06
0.00439684 -6.16959e-05 -4.05666e-05
0.00454074 -0.000209659 -2.37977e-05
0.00440689 1.14675e-05 0.000224304
0.00408469 5.83552e-06 0.000109
0.00459015 4.71115e-05 5.255e-05
0.00476179 -0.000244366 2.31348e-05
0.00474366 -0.000253445 4.36484e-05
0.00475752 -0.000207733 2.52715e-06
0.0045016 -0.000223738 9.89709e-05
0.00453886 -0.000181447 7.57811e-05
0.00447376 -9.07277e-05 -5.29483e-05
0.00482759 -0.000251174 2.4803e-05
0.00489945 -0.000192414 0.000146166
0.00442296 -0.000169061 -3.48934e-05
0.00482663 -0.000227718 1.21076e-05
0.00476579 -0.000193037 -5.70114e-06
0.00487022 -0.000278226 3.80982e-05
0.00477848 -0.000220591 9.0658e-06
0.00484972 -0.000295783 0.000456067
0.00474508 -0.00018472 -1.00117e-05
0.00480183 -0.000238556 1.86359e-05
0.00481159 -0.000290766 0.000449877
0.00484262 -0.000554023 5.66761e-05
0.00473334 -0.000173268 -1.61826e-05
0.00483599 -0.000552482 5.64706e-05
0.00464895 0.000235071 -0.000168435
0.00485986 -0.00021269 -2.4765e-05
0.00462932 -0.000121221 -4.21347e-05
0.00430981 -1.82046e-05 0.000128316
6.80699e-15 2.2989e-14 -7.03246e-14
0.00484349 -0.000554308 5.71268e-05
0.00435991 -0.00026425 0.000104084
0.00483701 -0.000270581 3.14926e-05
0.00439087 -8.87085e-05 -5.08295e-05
0.00452596 -0.000283107 0.000107999
0.00474162 -0.000261864 3.61302e-05
0.00458322 -0.0006797 -0.000905297
0.00438206 -0.000266165 0.000108124
0.00436356 -0.0001721 8.17275e-06
0.00480289 -0.00021273 4.68621e-06
0.0044698 -0.000250789 9.82178e-05
0.00481203 -0.000508337 0.000230583
0.00488054 -0.000269205 3.34247e-05
0.00438143 -7.8718e-05 -6.52359e-05
0.00433084 -0.000268869 -1.23613e-06
0.00435807 -0.000251315 0.000102794
0.00434076 -0.000321228 0.000109711
0.00435512 -0.000311816 0.00010966
0.00445463 -0.000213799 0.000101978
0.00487907 -0.000266169 3.1097e-05
0.00453939 -0.000297961 0.000114479
0.00448517 -0.000256795 0.00010558
0.00454197 -0.000150261 9.57969e-05
0.00447976 -0.000223213 0.000188519
0.00486007 -0.000250471 2.48436e-05
0.0049018 -0.000152878 0.000143254
-1.28885e-14 6.08993e-14 -1.90217e-13
0.0047735 -0.000500167 0.00022813
0.00439159 -0.000294973 0.000109894
0.00479263 -0.000504227 0.000229458
0.00482947 -0.000550916 5.62168e-05
0.00483508 -0.000250317 2.44678e-05
0.0047835 -0.000202879 -3.49955e-07
0.0045273 -0.000290787 0.000109049
0.00436407 -0.000176939 -3.11025e-05
0.00474465 -0.000266609 3.61173e-05
0.00438288 -0.000169017 9.70922e-05
0.00428632 -0.000199187 8.79715e-05
0.00454354 -0.000301471 0.000112743
0.00442129 -0.000166854 5.75804e-05
0.0048366 -0.000237073 1.79887e-05
0.00474676 -0.000223511 1.14854e-05
0.00493007 -0.000166972 0.000152955
0.00453823 -0.000179652 -3.27483e-05
0.00441076 -0.000165703 9.6812e-05
0.00441511 -0.000132672 5.66269e-05

VECTORS force float
1.67746e-11 3.93558e-11 -2.943e-11
-2.30256e-10 9.64702e-11 -1.66681e-10
-7.24697e-11 -9.10759e-11 -5.58946e-12
-9.92544e-11 -7.21249e-12 2.45769e-14
1.83545e-10 -2.26672e-10 6.74455e-10
1.55142e-11 6.12232e-11 -3.42969e-11
-1.21334e-10 5.87491e-11 -9.47505e-11
-1.12758e-10 -3.41543e-10 8.9686e-10
-5.36151e-11 -1.04161e-10 4.63195e-11
1.63052e-10 -2.35299e-12 -1.28241e-12
-2.96475e-10 2.15883e-10 -1.59576e-10
1.32181e-10 -3.44888e-11 1.37363e-11
-2.4939e-11 7.50343e-11 6.35468e-11
1.92818e-10 3.48951e-10 -7.61557e-10
-1.49476e-10 3.11527e-10 3.40015e-11
-6.68389e-11 2.07824e-10 -3.51374e-11
-2.23681e-10 -2.07868e-11 -2.59352e-11
-2.88421e-11 -5.59176e-11 1.77706e-11
-6.93925e-11 4.42007e-11 -2.54715e-11
2.67022e-10 -1.2029e-10 3.91528e-10
7.16937e-11 1.22843e-10 5.57164e-12
-4.87995e-12 4.67108e-11 -1.68475e-11
-7.88749e-11 1.03427e-10 2.23369e-11
-1.91809e-10 -6.49535e-11 4.41879e-11
-6.73279e-10 1.68447e-10 3.54409e-10
7.85052e-11 1.78009e-10 -9.8513e-11
-5.97827e-12 1.60198e-12 4.33882e-13
-5.86772e-11 -5.17255e-12 4.83488e-12
-2.3819e-10 -1.11678e-10 2.55042e-11
-4.52914e-11 5.37577e-11 -2.59829e-11
-1.19382e-10 7.03315e-11 -1.27137e-10
-1.74239e-10 -1.00522e-10 -3.29046e-11
1.49767e-11 4.47511e-11 -1.03624e-11
-1.85839e-12 5.08674e-11 -7.46624e-11
-2.92122e-10 -5.4796e-11 -6.58665e-12
-1.37167e-10 8.38941e-11 -6.40463e-11
-1.85727e-10 2.8949e-10 -6.16218e-11
-4.03263e-12 1.06845e-10 -2.11684e-11
-9.50386e-11 -6.03289e-11 2.93376e-11
-6.69718e-11 1.02225e-10 5.24706e-11
-2.77837e-11 3.19808e-11 -1.13392e-11
3.56834e-11 -1.00094e-11 1.71913e-11
5.21814e-11 2.24699e-11 -1.50655e-11
-4.03349e-11 5.63083e-11 -4.65141e-11
7.38902e-11 -1.11426e-10 6.40592e-11
-2.44745e-10 5.5919e-11 1.14423e-10
1.06799e-11 -2.69243e-10 6.98124e-11
-2.53607e-10 -2.62973e-10 1.79554e-10
2.23479e-11 -2.29191e-10 3.79074e-11
1.12894e-10 -3.64933e-12 5.217e-12
1.40913e-10 -1.73311e-10 9.45481e-11
-1.83577e-13 6.69549e-12 -6.32651e-12
-1.32825e-10 3.85328e-11 -8.75643e-11
1.6592e-10 -2.37573e-11 1.54105e-10
-2.79741e-10 2.27706e-10 -1.46482e-10
1.28722e-10 -4.94944e-11 2.87339e-13
1.84386e-10 6.18448e-11 -1.43148e-11
-2.99561e-11 5.98314e-11 -3.8519e-11
7.59835e-10 -1.44913e-10 -1.59704e-10
-2.44567e-10 1.07182e-10 -9.1796e-11
-9.65031e-11 -1.55904e-11 -1.43885e-12
-5.98512e-11 1.08775e-10 -2.51788e-10
8.29263e-12 -5.21965e-11 1.30406e-11
2.80406e-10 -2.45889e-10 1.23291e-10
-6.60994e-11 -7.08861e-11 2.66491e-11
-1.11617e-10 9.87186e-11 -7.04759e-11
-5.94028e-11 1.02528e-10 1.17868e-10
-1.32137e-10 1.26989e-10 -6.48647e-11
1.35912e-10 8.06968e-11 -4.61145e-12
-2.51283e-10 1.1241e-10 -7.77809e-12
-2.91025e-10 -2.76597e-10 -6.75829e-11
-2.04037e-10 9.33396e-12 -3.58615e-10
-3.65666e-10 2.59221e-10 5.17576e-10
2.1025e-10 3.04587e-10 -4.38224e-11
1.6135e-10 -1.64656e-10 7.45642e-11
-7.63572e-10 -5.55078e-11 -2.61717e-10
2.34798e-11 -5.54796e-11 2.3174e-11
1.76388e-10 -1.33421e-10 8.23791e-11
8.99208e-11 -1.38712e-10 1.77901e-12
1.59699e-11 -8.85121e-11 7.14398e-11
-9.85063e-11 1.76735e-11 -4.58805e-11
-2.26606e-10 -1.20419e-10 -1.73752e-10
3.13523e-11 2.04183e-10 -1.1182e-10
4.89979e-11 6.24679e-11 -3.91625e-11
-9.89105e-11 1.85952e-10 -1.31308e-10
-3.58612e-10 1.31519e-10 -1.60113e-11
8.56333e-11 1.68985e-10 4.7072e-11
8.43022e-11 -1.64342e-10 3.92852e-11
-2.29094e-10 4.9648e-11 -1.85764e-11
2.92464e-11 8.26256e-11 6.48471e-12
-3.74777e-11 -6.48205e-11 3.2127e-11
-5.80287e-11 -3.53434e-11 -1.64681e-12
2.47111e-10 1.14836e-11 -3.06325e-11
-1.83526e-10 -5.92362e-11 -4.18962e-11
-2.78108e-10 -4.27992e-11 1.61662e-11
2.03573e-10 -1.35e-10 7.07332e-11
3.66767e-11 -4.70001e-10 1.56154e-11
6.00398e-11 1.49295e-10 -1.09735e-10
6.12546e-11 -4.34462e-11 -7.09243e-10
5.8084e-11 -6.58736e-11 1.97951e-11
6.26993e-11 2.2956e-10 -3.0625e-11
-5.31391e-11 1.17912e-10 -8.81325e-12
-5.34214e-11 4.06838e-11 -3.956e-11
6.00463e-10 -3.32946e-10 3.31335e-12
-6.09288e-11 5.69541e-11 -1.09096e-11
2.10749e-10 -2.06467e-10 1.13479e-10
-4.49892e-11 1.17412e-10 -7.60729e-12
-1.60588e-10 1.67067e-11 -5.35788e-11
-2.84601e-10 2.67912e-10 -1.83689e-10
6.11315e-10 4.29277e-10 -1.23397e-10
-9.18505e-12 -5.2264e-11 2.87717e-11
-1.15661e-10 -5.88058e-11 1.6686e-11
-9.18067e-11 6.34776e-11 -3.62999e-11
-1.53668e-10 1.51998e-10 2.03681e-10
-1.71046e-10 -2.93741e-10 5.22357e-11
-7.95369e-11 -4.22567e-11 3.27692e-11
-2.42823e-10 2.22245e-10 -3.94176e-11
7.58419e-11 5.33256e-11 -3.83538e-11
-4.20878e-12 1.0922e-10 -1.43714e-10
4.90005e-11 7.28268e-11 2.38597e-12
1.55882e-11 -1.54451e-10 2.06624e-10
-4.1753e-11 8.70195e-11 -2.24798e-11
-1.82674e-10 -2.70398e-10 5.72457e-12
-1.30227e-10 7.93209e-11 -1.30435e-11
6.96025e-11 1.69607e-10 -3.94877e-11
-3.96441e-10 1.25858e-10 6.71251e-11
-1.60318e-12 1.57293e-10 -1.35013e-10
6.52899e-11 2.26932e-11 -3.95384e-11
-2.50111e-10 8.7155e-11 -4.46483e-11
-2.56886e-11 5.7258e-11 -5.4362e-11
1.95725e-11 1.89795e-10 -1.65076e-10
2.56367e-10 2.5798e-11 -1.14385e-12
1.88535e-10 1.18172e-10 -4.79669e-11
-9.07637e-11 1.04122e-10 -3.13444e-11
-3.76349e-10 1.78076e-10 -5.52601e-11
1.65297e-10 2.21235e-10 -1.16242e-10
-3.20944e-10 1.26871e-10 -2.51703e-11
8.40579e-10 -2.66816e-10 2.77419e-11
-1.07299e-10 1.59452e-10 -1.70543e-10
-2.21676e-10 2.32258e-10 -1.49665e-10
1.04554e-10 9.99356e-11 -6.94287e-11
-1.18474e-10 -1.79797e-10 1.01507e-10
1.8457e-10 -1.4262e-10 5.76722e-11
-6.33609e-11 -8.98152e-11 1.263e-11
-5.47801e-11 2.08211e-10 -2.01297e-10
1.53106e-10 2.22191e-10 -3.23874e-12
1.5183e-10 -6.86983e-11 1.14087e-11
-1.99688e-10 -4.88548e-10 8.32347e-11
9.13958e-11 1.3777e-10 -4.52811e-12
3.77461e-10 -2.45909e-10 9.30389e-11
-2.28328e-10 3.05551e-11 1.79023e-11
7.95675e-10 5.27383e-10 -5.93609e-12
-1.05291e-10 6.66013e-11 -2.26239e-11
-1.07487e-10 -1.07964e-10 2.8825e-12
-1.57423e-10 1.60118e-10 -2.46096e-10
-4.94679e-11 -3.38611e-11 -3.00876e-11
-2.92276e-11 2.21898e-10 3.45908e-12
-1.98622e-11 -2.7166e-11 -1.99658e-11
2.95512e-11 -1.63587e-10 9.74657e-11
-5.18745e-11 3.67864e-11 -2.38909e-12
-1.13679e-10 -4.03452e-10 1.01958e-10
-1.62424e-10 -1.04053e-10 5.46414e-11
-5.36764e-11 -1.20783e-10 7.01958e-11
3.60004e-10 -1.17208e-10 -9.60991e-11
-1.76741e-10 2.30487e-10 1.5203e-10
-6.27259e-11 1.91344e-11 -8.05903e-12
9.08955e-11 -2.43452e-10 1.33925e-10
1.9056e-12 -1.17922e-10 6.70455e-11
-3.22065e-10 1.40865e-10 -6.022e-12
1.87626e-10 4.18549e-10 -2.85335e-11
6.39577e-11 -2.2953e-11 1.08949e-12
-9.61388e-10 -2.50946e-09 2.55406e-10
2.17987e-11 -1.50485e-10 4.75204e-11
4.49096e-11 -1.92228e-10 1.07293e-10
-2.20346e-10 -2.36199e-11 1.78756e-11
7.66602e-12 1.18558e-10 -1.65991e-11
7.01159e-11 2.93147e-11 -3.61272e-11
8.39157e-11 1.22221e-12 3.65411e-12
2.36444e-11 1.08489e-10 9.27913e-12
3.37588e-11 1.58193e-10 -6.25025e-11
1.99834e-10 -1.14543e-10 3.66408e-11
-9.77365e-11 -9.70086e-11 -1.92362e-11
-4.69429e-11 7.20992e-11 -5.83764e-11
3.22003e-10 -4.81767e-11 1.68559e-11
-1.86526e-10 -3.1955e-11 2.42427e-11
-1.34063e-10 2.35644e-10 -1.65231e-10
-2.17457e-10 -1.80744e-10 1.06919e-11
-6.88925e-12 -3.61768e-11 2.5767e-11
-9.88259e-10 2.46592e-10 -4.12507e-10
1.8472e-10 -1.22808e-11 6.95593e-13
7.06459e-11 1.1396e-10 4.32532e-11
-1.42816e-10 1.23465e-10 4.93007e-11
2.01249e-10 -2.95035e-11 -2.97342e-11
-2.37159e-10 -1.60316e-10 1.04881e-10
3.69681e-10 -1.19605e-10 5.98153e-11
-2.5065e-11 -3.64171e-11 3.12734e-11
-7.18418e-11 -1.00378e-10 2.08116e-11
-1.23913e-10 -1.76744e-10 1.64461e-10
2.05204e-10 4.50686e-12 -3.60328e-12
1.07276e-11 4.38048e-11 -3.19274e-11
-1.83968e-11 -1.01174e-10 2.74184e-11
-9.09157e-11 1.8721e-10 2.5045e-10
-1.45899e-10 9.50975e-11 -1.14524e-10
-4.42898e-10 1.11433e-10 -7.26441e-11
1.79601e-10 9.52846e-11 2.08724e-10
2.54374e-11 7.57722e-11 7.67301e-11
3.60047e-11 -1.32816e-10 7.09224e-11
-6.47804e-11 1.82686e-10 -1.26442e-10
1.01193e-10 -1.5885e-11 2.46646e-12
-1.00241e-11 1.77775e-10 -6.15282e-11
1.11159e-10 1.19547e-11 -1.03845e-10
1.05755e-10 7.65664e-11 -1.87339e-12
3.1037e-10 1.31998e-10 -7.52104e-11
3.13632e-11 -2.39058e-10 2.94044e-10
-1.64492e-10 -1.83118e-10 1.0676e-10
-2.93937e-10 -2.73014e-10 3.3384e-11
2.67489e-10 5.1275e-11 3.0326e-11
8.55502e-11 -4.83963e-11 2.9809e-11
-2.63621e-10 -4.26787e-11 2.97339e-11
-6.82767e-11 9.0989e-11 3.456e-11
-1.74643e-10 -2.78715e-11 7.63527e-11
5.58836e-11 6.19767e-11 -3.83436e-11
-1.07137e-10 -2.08112e-10 1.15945e-10
1.08847e-10 1.54045e-11 2.58917e-11
-9.83402e-11 -7.26817e-11 4.40984e-11
6.23971e-12 -3.05872e-12 1.35935e-14
3.73544e-12 -2.58875e-10 1.42121e-10
-2.47299e-10 -4.11731e-12 5.49962e-12
4.95942e-14 6.48981e-13 -6.01589e-13
-1.14718e-11 -4.26687e-12 2.34433e-12
1.51079e-10 -1.83896e-10 9.62427e-11
-4.0086e-12 -3.43821e-12 2.99819e-12
-4.36629e-10 2.41636e-10 -1.92822e-10
-3.70694e-10 -3.19585e-11 -2.31691e-10
-2.59286e-10 -4.82695e-11 2.96892e-11
4.22866e-12 5.31421e-11 -6.12313e-11
1.89993e-23 -8.06501e-24 -4.1359e-25
2.05754e-11 2.5051e-12 -8.0293e-12
2.60218e-10 9.50712e-11 2.65794e-12
3.05822e-10 -3.15512e-10 1.43536e-10
-2.66175e-11 2.03467e-10 -9.21698e-11
3.01407e-10 -1.45192e-10 1.53088e-11
1.85032e-10 -9.22409e-11 -5.16144e-11
3.21253e-10 1.49286e-10 -1.22164e-10
1.02565e-09 -1.89636e-10 7.21248e-11
1.40203e-10 -7.3557e-11 5.82818e-11
-3.74428e-11 1.71864e-11 -7.96209e-12
-7.8193e-11 4.46026e-11 3.21181e-11
6.91516e-13 1.65971e-12 -4.04436e-12
2.6421e-10 -9.5221e-11 6.15391e-11
-1.01967e-11 3.02656e-12 -4.19309e-11
1.40374e-10 6.19668e-11 9.9465e-11
8.47253e-10 5.38612e-10 -1.59923e-11
1.07712e-10 9.17688e-11 -4.55975e-11
3.1841e-10 1.20399e-10 6.22508e-12
1.34501e-11 -7.60305e-10 6.64439e-11
1.38613e-10 1.01823e-11 6.39156e-12
2.6167e-10 1.82343e-10 7.32955e-11
8.39677e-12 -2.39402e-10 3.45399e-11
-3.13024e-11 6.58202e-11 -4.74337e-11
5.75804e-10 2.97934e-10 -3.00054e-10
1.12383e-10 -3.45465e-11 1.16617e-11
-2.80728e-11 2.16231e-11 2.13502e-11
-1.30626e-21 -2.34712e-22 1.63368e-23
-5.27539e-13 2.32436e-13 -5.76609e-13
-2.04868e-11 -8.37328e-11 1.01361e-11
-6.40973e-13 -2.6348e-13 2.54408e-12
-5.7545e-13 1.86113e-14 1.8854e-12
3.66068e-11 -2.01729e-11 1.87854e-11
-8.47093e-11 -9.73865e-11 5.02708e-11
3.33214e-10 -1.13378e-11 1.27847e-11
-7.1352e-12 -3.45282e-11 5.38834e-11
1.16372e-10 -3.07385e-10 1.85436e-10
3.15507e-10 -7.20077e-10 8.55611e-11
2.88136e-10 5.21351e-11 -8.20586e-11
1.65737e-10 8.30278e-10 -3.96476e-11
6.22602e-11 7.46503e-11 -1.5222e-11
1.06489e-10 6.32377e-11 -4.35759e-11
-3.30364e-11 -5.6633e-11 3.3678e-11
-4.3411e-12 3.44815e-11 2.82535e-11
2.24462e-10 9.19268e-11 -3.9473e-11
6.90935e-10 -4.16058e-10 9.91455e-11
-8.1276e-11 -1.37705e-10 -2.85186e-12
