# vtk DataFile Version 3.0
LIGGGHTS particles timestep 41600000
ASCII
DATASET POLYDATA
POINTS 283 float
0.203463 0.0165608 0.0077673
0.203824 0.0176885 0.00711208
0.203937 0.0185978 0.00691869
0.203917 0.0185 0.00692537
0.203106 0.0153505 0.0089501
0.209453 0.0164626 0.00770897
0.203249 0.0156739 0.00837521
0.203085 0.0153263 0.0090449
0.209688 0.0174944 0.00718818
0.204163 0.0184016 0.00694409
0.203638 0.0169255 0.00755191
0.209646 0.0173065 0.00724232
0.204232 0.0178839 0.00698735
0.19703 0.015305 0.00932935
0.204213 0.017795 0.007029
0.197371 0.0161176 0.00791558
0.209818 0.0180573 0.00702613
0.203855 0.0182072 0.00694529
0.203857 0.0174588 0.00723918
0.203126 0.0153747 0.00885524
0.203978 0.0187933 0.00690533
0.209607 0.0171181 0.00729667
0.204014 0.0177372 0.00707334
0.20955 0.0168487 0.00740683
0.197293 0.0158242 0.00816817
0.203812 0.0180127 0.00696223
0.209433 0.0163867 0.00777115
0.204033 0.01863 0.00692048
0.204109 0.0177613 0.00705414
0.209472 0.0165385 0.00764679
0.20379 0.0179179 0.00698515
0.204255 0.017981 0.00698086
0.209753 0.0177759 0.00710716
0.203223 0.0155953 0.00843132
0.204151 0.017942 0.0069792
0.203265 0.0157477 0.00830974
0.203898 0.0176284 0.00714144
0.203911 0.0173135 0.00731766
0.204012 0.0185322 0.00692716
0.203961 0.0178852 0.00699998
0.209491 0.0166145 0.0075846
0.209568 0.0169295 0.00735109
0.203167 0.0154318 0.00866804
0.203836 0.0173741 0.00728804
0.209529 0.0167683 0.00746281
0.204056 0.0179172 0.00699911
0.197977 0.0188025 0.00682382
0.197945 0.0178 0.00698152
0.204143 0.0183039 0.00695077
0.20951 0.0166903 0.00752243
0.197563 0.0165768 0.00766738
0.209626 0.0172124 0.00726946
0.20377 0.0178331 0.00703402
0.203148 0.0154012 0.00876123
0.203713 0.0168653 0.0075813
0.203952 0.0182391 0.00694716
0.209588 0.0170238 0.0073239
0.20352 0.0164159 0.0078454
0.198144 0.0183172 0.00690154
0.204292 0.0181713 0.00696776
0.197619 0.0164326 0.00774582
0.203795 0.0172045 0.00738578
0.209849 0.0178067 0.00710101
0.197603 0.016748 0.00757174
0.209668 0.0174004 0.00721527
0.203184 0.0154723 0.00857826
0.203584 0.0170701 0.00747388
0.203203 0.0155178 0.0084911
0.209796 0.0179635 0.00705314
0.204073 0.0188262 0.00690709
0.197094 0.0154236 0.00906146
0.197203 0.0156231 0.00861609
0.203919 0.0177131 0.00709265
0.198183 0.0185111 0.00687185
0.197678 0.0166894 0.00760235
0.197116 0.0154632 0.00897217
0.209731 0.017682 0.00713416
0.197544 0.0164912 0.00771521
0.203992 0.0184345 0.00693384
0.20971 0.0175882 0.00716117
0.203733 0.0169502 0.0075324
0.203939 0.0177989 0.00704561
0.203659 0.0170103 0.00750303
0.203539 0.016501 0.00779644
0.203869 0.0171439 0.0074154
0.203972 0.0175678 0.00717104
0.203721 0.0172646 0.00735643
0.204124 0.0182061 0.00695746
0.203931 0.0173982 0.00726879
0.203782 0.0175189 0.00720982
0.197737 0.016946 0.00745894
0.203728 0.0176636 0.00713176
0.197998 0.0176541 0.00706096
0.20408 0.0180126 0.00698127
0.204047 0.0175071 0.00720072
0.197658 0.0166038 0.00765017
0.198062 0.0179264 0.00696135
0.203578 0.0166709 0.0076986
0.197051 0.0153445 0.00924005
0.204102 0.0181086 0.00696407
0.203897 0.0184023 0.00693205
0.203998 0.018891 0.00689865
0.203366 0.0161362 0.00801207
0.197261 0.0157403 0.00834669
0.204108 0.0185645 0.00692894
0.197583 0.0166624 0.00761956
0.203834 0.0181098 0.00695187
0.203749 0.0177483 0.00708289
0.203618 0.0168407 0.0076008
0.198163 0.0184142 0.00688669
0.209414 0.0163107 0.00783334
0.203952 0.017483 0.00721993
0.203828 0.0169743 0.00751315
0.203625 0.0172397 0.00737613
0.197995 0.018761 0.00691307
0.203885 0.0179444 0.00696702
0.204198 0.0181393 0.00696598
0.2035 0.0163308 0.00789434
0.197159 0.0155431 0.00879394
0.204183 0.0184995 0.00693739
0.197276 0.0157788 0.00825559
0.203346 0.0160553 0.00806731
0.198052 0.018738 0.00683484
0.203687 0.017494 0.0072295
0.203816 0.0172893 0.00733691
0.203993 0.0176526 0.00712217
0.203679 0.0170951 0.00745416
0.197937 0.0186087 0.00685349
0.203522 0.0168157 0.00762051
0.203741 0.0173494 0.00730756
0.203754 0.017035 0.00748352
0.204128 0.0186623 0.00692226
0.19802 0.0177393 0.00701332
0.203285 0.0158258 0.00825039
0.204068 0.0175919 0.00715184
0.203877 0.0175436 0.00719031
0.203563 0.0169853 0.00752275
0.197073 0.0153845 0.00915095
0.20382 0.0179182 0.00708052
0.203849 0.0170591 0.00746427
0.203558 0.016586 0.00774751
0.197799 0.0172023 0.00731567
0.204218 0.0182381 0.00695925
0.197333 0.0159538 0.00802159
0.197223 0.015661 0.00852571
0.197898 0.0184143 0.00688324
0.204047 0.0182712 0.00694898
0.198041 0.0178298 0.00697611
0.20389 0.0172287 0.00736653
0.197882 0.0175438 0.00712477
0.2037 0.0171799 0.0074053
0.198239 0.0183492 0.00689778
0.203667 0.0174092 0.00727837
0.197957 0.0187056 0.00683865
0.203774 0.0171197 0.00743466
0.197524 0.0164056 0.00776304
0.204036 0.0178237 0.00702802
0.197839 0.0181236 0.00692776
0.197508 0.016721 0.00758895
0.203908 0.0180437 0.00696036
0.197974 0.0183502 0.00689421
0.204004 0.0180751 0.00696225
0.197861 0.0174585 0.00717249
0.197753 0.0177478 0.00701815
0.197357 0.0160296 0.00796096
0.198033 0.018641 0.00684968
0.19782 0.0172877 0.00726795
0.197697 0.016775 0.00755453
0.204148 0.01876 0.00691558
0.198108 0.0185761 0.00686077
0.203972 0.0183367 0.00694052
0.198069 0.0183822 0.00689045
0.204027 0.0181736 0.00695563
0.197622 0.0168338 0.00752444
0.197703 0.0171755 0.0073328
0.209775 0.0178697 0.00708015
0.203483 0.0166459 0.00771834
0.203444 0.0164758 0.00781623
0.19741 0.0162948 0.00783143
0.203803 0.0176037 0.00716095
0.197765 0.0174317 0.00718962
0.203865 0.0178583 0.00701417
0.203325 0.0159784 0.0081277
0.197935 0.0181563 0.00692391
0.197757 0.0170315 0.00741116
0.203598 0.0167558 0.0076497
0.197996 0.0188995 0.00680896
0.197858 0.0182205 0.00691292
0.197181 0.0155818 0.00870457
0.197744 0.0173463 0.00723735
0.197796 0.0179305 0.00695726
0.204131 0.0178504 0.00701395
0.197915 0.0180595 0.00693871
0.197488 0.0166353 0.00763679
0.19784 0.0173731 0.00722022
0.197638 0.0165182 0.00769799
0.198203 0.018608 0.00685702
0.197312 0.0158852 0.00809114
0.20393 0.0181413 0.00695377
0.203503 0.0167308 0.00766942
0.209861 0.018245 0.00697212
0.203605 0.0171549 0.00742501
0.197505 0.0163199 0.00781091
0.203543 0.0169006 0.00757162
0.203406 0.0163089 0.00791946
0.203385 0.0162212 0.00796282
0.204238 0.0183358 0.00695256
0.197391 0.0162067 0.00787455
0.204176 0.0180413 0.00697261
0.197247 0.0157049 0.00843909
0.197139 0.0155028 0.00888324
0.20984 0.0181512 0.00699913
0.197807 0.0176028 0.007095
0.197925 0.0177143 0.00702941
0.197642 0.0169191 0.00747613
0.197967 0.0178965 0.00696477
0.197774 0.017834 0.006972
0.197449 0.0164643 0.00773264
0.197778 0.017117 0.0073634
0.203762 0.0174342 0.00725869
0.203983 0.0179777 0.00696884
0.197628 0.0172343 0.00730209
0.197567 0.0169779 0.00744538
0.197711 0.0175758 0.00711118
0.197662 0.0170046 0.00742834
0.191602 0.0170865 0.00727789
0.197547 0.0168923 0.0074932
0.197682 0.0170901 0.00738056
0.191582 0.017008 0.00733675
0.191621 0.017165 0.00721911
0.197528 0.0168066 0.00754111
0.191661 0.0173553 0.00717237
0.204088 0.0176766 0.00710297
0.203844 0.0177733 0.00706321
0.197469 0.0165497 0.00768461
0.203305 0.0159016 0.00818844
0.215741 0.019982 0.00563384
0.19164 0.0172603 0.00719566
0.198013 0.0185441 0.00686452
0.197903 0.0176292 0.00707705
0.197485 0.0162343 0.00785873
0.19801 0.0180905 0.00693512
0.197732 0.0176615 0.00706398
0.19785 0.0177741 0.00700106
0.197993 0.0184472 0.00687936
0.204068 0.018369 0.0069423
0.197607 0.0171489 0.00734982
0.197893 0.017964 0.0069595
0.191705 0.0175449 0.00712588
0.197786 0.017517 0.00714189
0.197429 0.0163797 0.00778226
0.203424 0.0163909 0.00786515
0.198088 0.0184791 0.00687561
0.197918 0.0185114 0.00686837
0.198258 0.0184461 0.00688295
0.198084 0.0180241 0.00694642
0.19769 0.0174904 0.0071589
0.197954 0.0182533 0.00690906
0.197989 0.0179931 0.00695002
0.197817 0.018027 0.00694251
0.198049 0.0182852 0.0069053
0.19767 0.017405 0.00720663
0.203708 0.0175788 0.00718063
0.404182 0.0211142 0.0056569
0.191748 0.0177335 0.0070755
0.198128 0.018673 0.00684593
0.191727 0.0176397 0.00710263
0.191683 0.0174501 0.00714912
0.197724 0.0172609 0.00728507
0.197587 0.0170635 0.00739756
0.19803 0.0181883 0.00692015
0.204088 0.0184667 0.00693562
0.197828 0.0176877 0.00704646
0.198104 0.0181226 0.00693133
0.197872 0.0178673 0.00697215
0.197878 0.0183174 0.00689808
0.204053 0.018728 0.00691379
0.197649 0.0173197 0.00725436
0.197717 0.0168605 0.00750673
0.203646 0.0173244 0.00732726
0.203877 0.0183047 0.0069387
0.198124 0.0182203 0.00691639
0.203957 0.0186955 0.00691201

VERTICES 283 566
1 0
1 1
1 2
1 3
1 4
1 5
1 6
1 7
1 8
1 9
1 10
1 11
1 12
1 13
1 14
1 15
1 16
1 17
1 18
1 19
1 20
1 21
1 22
1 23
1 24
1 25
1 26
1 27
1 28
1 29
1 30
1 31
1 32
1 33
1 34
1 35
1 36
1 37
1 38
1 39
1 40
1 41
1 42
1 43
1 44
1 45
1 46
1 47
1 48
1 49
1 50
1 51
1 52
1 53
1 54
1 55
1 56
1 57
1 58
1 59
1 60
1 61
1 62
1 63
1 64
1 65
1 66
1 67
1 68
1 69
1 70
1 71
1 72
1 73
1 74
1 75
1 76
1 77
1 78
1 79
1 80
1 81
1 82
1 83
1 84
1 85
1 86
1 87
1 88
1 89
1 90
1 91
1 92
1 93
1 94
1 95
1 96
1 97
1 98
1 99
1 100
1 101
1 102
1 103
1 104
1 105
1 106
1 107
1 108
1 109
1 110
1 111
1 112
1 113
1 114
1 115
1 116
1 117
1 118
1 119
1 120
1 121
1 122
1 123
1 124
1 125
1 126
1 127
1 128
1 129
1 130
1 131
1 132
1 133
1 134
1 135
1 136
1 137
1 138
1 139
1 140
1 141
1 142
1 143
1 144
1 145
1 146
1 147
1 148
1 149
1 150
1 151
1 152
1 153
1 154
1 155
1 156
1 157
1 158
1 159
1 160
1 161
1 162
1 163
1 164
1 165
1 166
1 167
1 168
1 169
1 170
1 171
1 172
1 173
1 174
1 175
1 176
1 177
1 178
1 179
1 180
1 181
1 182
1 183
1 184
1 185
1 186
1 187
1 188
1 189
1 190
1 191
1 192
1 193
1 194
1 195
1 196
1 197
1 198
1 199
1 200
1 201
1 202
1 203
1 204
1 205
1 206
1 207
1 208
1 209
1 210
1 211
1 212
1 213
1 214
1 215
1 216
1 217
1 218
1 219
1 220
1 221
1 222
1 223
1 224
1 225
1 226
1 227
1 228
1 229
1 230
1 231
1 232
1 233
1 234
1 235
1 236
1 237
1 238
1 239
1 240
1 241
1 242
1 243
1 244
1 245
1 246
1 247
1 248
1 249
1 250
1 251
1 252
1 253
1 254
1 255
1 256
1 257
1 258
1 259
1 260
1 261
1 262
1 263
1 264
1 265
1 266
1 267
1 268
1 269
1 270
1 271
1 272
1 273
1 274
1 275
1 276
1 277
1 278
1 279
1 280
1 281
1 282

POINT_DATA 283
SCALARS id int 1
LOOKUP_TABLE default
1
2
3
4
5
6
7
8
9
10
11
12
13
14
15
16
18
19
20
21
22
24
25
26
27
29
30
31
32
33
34
35
36
37
38
40
41
42
43
44
45
46
47
48
49
50
52
55
56
57
58
59
60
61
62
63
64
65
66
67
68
69
70
71
72
73
74
75
76
77
78
79
80
81
82
83
84
85
86
87
88
89
90
91
92
93
94
95
96
98
99
100
101
102
103
104
105
106
107
108
109
110
111
112
113
114
115
116
117
118
119
120
121
122
123
124
125
126
127
128
129
130
131
132
133
134
135
136
137
138
139
140
141
142
144
145
146
147
148
149
150
152
153
154
155
156
157
158
159
160
161
162
164
165
166
167
168
169
170
171
172
173
174
175
176
177
178
179
180
181
182
183
184
185
186
187
188
189
190
191
192
193
194
195
196
197
198
199
200
201
202
203
204
205
206
207
208
209
210
211
213
214
215
217
218
219
220
221
222
223
224
225
226
227
228
229
230
231
232
233
234
235
236
237
238
239
241
242
243
244
245
246
247
248
249
250
251
252
253
254
255
256
257
258
259
260
261
262
263
264
265
267
268
269
270
271
272
273
274
275
276
277
278
279
280
281
282
283
284
285
286
287
288
289
290
292
293
294
295
296
297
298
300

SCALARS type int 1
LOOKUP_TABLE default
1
1
1
1
1
1
1
1
1
1
1
1
1
1
1
1
1
1
1
1
1
1
1
1
1
1
1
1
1
1
1
1
1
1
1
1
1
1
1
1
1
1
1
1
1
1
1
1
1
1
1
1
1
1
1
1
1
1
1
1
1
1
1
1
1
1
1
1
1
1
1
1
1
1
1
1
1
1
1
1
1
1
1
1
1
1
1
1
1
1
1
1
1
1
1
1
1
1
1
1
1
1
1
1
1
1
1
1
1
1
1
1
1
1
1
1
1
1
1
1
1
1
1
1
1
1
1
1
1
1
1
1
1
1
1
1
1
1
1
1
1
1
1
1
1
1
1
1
1
1
1
1
1
1
1
1
1
1
1
1
1
1
1
1
1
1
1
1
1
1
1
1
1
1
1
1
1
1
1
1
1
1
1
1
1
1
1
1
1
1
1
1
1
1
1
1
1
1
1
1
1
1
1
1
1
1
1
1
1
1
1
1
1
1
1
1
1
1
1
1
1
1
1
1
1
1
1
1
1
1
1
1
1
1
1
1
1
1
1
1
1
1
1
1
1
1
1
1
1
1
1
1
1
1
1
1
1
1
1
1
1
1
1
1
1
1
1
1
1
1
1
1
1
1
1
1
1
1
1
1
1
1
1

SCALARS radius float 1
LOOKUP_TABLE default
5e-05
5e-05
5e-05
5e-05
5e-05
5e-05
5e-05
5e-05
5e-05
5e-05
5e-05
5e-05
5e-05
5e-05
5e-05
5e-05
5e-05
5e-05
5e-05
5e-05
5e-05
5e-05
5e-05
5e-05
5e-05
5e-05
5e-05
5e-05
5e-05
5e-05
5e-05
5e-05
5e-05
5e-05
5e-05
5e-05
5e-05
5e-05
5e-05
5e-05
5e-05
5e-05
5e-05
5e-05
5e-05
5e-05
5e-05
5e-05
5e-05
5e-05
5e-05
5e-05
5e-05
5e-05
5e-05
5e-05
5e-05
5e-05
5e-05
5e-05
5e-05
5e-05
5e-05
5e-05
5e-05
5e-05
5e-05
5e-05
5e-05
5e-05
5e-05
5e-05
5e-05
5e-05
5e-05
5e-05
5e-05
5e-05
5e-05
5e-05
5e-05
5e-05
5e-05
5e-05
5e-05
5e-05
5e-05
5e-05
5e-05
5e-05
5e-05
5e-05
5e-05
5e-05
5e-05
5e-05
5e-05
5e-05
5e-05
5e-05
5e-05
5e-05
5e-05
5e-05
5e-05
5e-05
5e-05
5e-05
5e-05
5e-05
5e-05
5e-05
5e-05
5e-05
5e-05
5e-05
5e-05
5e-05
5e-05
5e-05
5e-05
5e-05
5e-05
5e-05
5e-05
5e-05
5e-05
5e-05
5e-05
5e-05
5e-05
5e-05
5e-05
5e-05
5e-05
5e-05
5e-05
5e-05
5e-05
5e-05
5e-05
5e-05
5e-05
5e-05
5e-05
5e-05
5e-05
5e-05
5e-05
5e-05
5e-05
5e-05
5e-05
5e-05
5e-05
5e-05
5e-05
5e-05
5e-05
5e-05
5e-05
5e-05
5e-05
5e-05
5e-05
5e-05
5e-05
5e-05
5e-05
5e-05
5e-05
5e-05
5e-05
5e-05
5e-05
5e-05
5e-05
5e-05
5e-05
5e-05
5e-05
5e-05
5e-05
5e-05
5e-05
5e-05
5e-05
5e-05
5e-05
5e-05
5e-05
5e-05
5e-05
5e-05
5e-05
5e-05
5e-05
5e-05
5e-05
5e-05
5e-05
5e-05
5e-05
5e-05
5e-05
5e-05
5e-05
5e-05
5e-05
5e-05
5e-05
5e-05
5e-05
5e-05
5e-05
5e-05
5e-05
5e-05
5e-05
5e-05
5e-05
5e-05
5e-05
5e-05
5e-05
5e-05
5e-05
5e-05
5e-05
5e-05
5e-05
5e-05
5e-05
5e-05
5e-05
5e-05
5e-05
5e-05
5e-05
5e-05
5e-05
5e-05
5e-05
5e-05
5e-05
5e-05
5e-05
5e-05
5e-05
5e-05
5e-05
5e-05
5e-05
5e-05
5e-05
5e-05
5e-05
5e-05
5e-05
5e-05
5e-05
5e-05
5e-05
5e-05
5e-05
5e-05
5e-05
5e-05
5e-05
5e-05
5e-05
5e-05
5e-05
5e-05
5e-05
5e-05
5e-05
5e-05
5e-05
5e-05
5e-05
5e-05
5e-05

SCALARS mass float 1
LOOKUP_TABLE default
1.46608e-10
1.46608e-10
1.46608e-10
1.46608e-10
1.46608e-10
1.46608e-10
1.46608e-10
1.46608e-10
1.46608e-10
1.46608e-10
1.46608e-10
1.46608e-10
1.46608e-10
1.46608e-10
1.46608e-10
1.46608e-10
1.46608e-10
1.46608e-10
1.46608e-10
1.46608e-10
1.46608e-10
1.46608e-10
1.46608e-10
1.46608e-10
1.46608e-10
1.46608e-10
1.46608e-10
1.46608e-10
1.46608e-10
1.46608e-10
1.46608e-10
1.46608e-10
1.46608e-10
1.46608e-10
1.46608e-10
1.46608e-10
1.46608e-10
1.46608e-10
1.46608e-10
1.46608e-10
1.46608e-10
1.46608e-10
1.46608e-10
1.46608e-10
1.46608e-10
1.46608e-10
1.46608e-10
1.46608e-10
1.46608e-10
1.46608e-10
1.46608e-10
1.46608e-10
1.46608e-10
1.46608e-10
1.46608e-10
1.46608e-10
1.46608e-10
1.46608e-10
1.46608e-10
1.46608e-10
1.46608e-10
1.46608e-10
1.46608e-10
1.46608e-10
1.46608e-10
1.46608e-10
1.46608e-10
1.46608e-10
1.46608e-10
1.46608e-10
1.46608e-10
1.46608e-10
1.46608e-10
1.46608e-10
1.46608e-10
1.46608e-10
1.46608e-10
1.46608e-10
1.46608e-10
1.46608e-10
1.46608e-10
1.46608e-10
1.46608e-10
1.46608e-10
1.46608e-10
1.46608e-10
1.46608e-10
1.46608e-10
1.46608e-10
1.46608e-10
1.46608e-10
1.46608e-10
1.46608e-10
1.46608e-10
1.46608e-10
1.46608e-10
1.46608e-10
1.46608e-10
1.46608e-10
1.46608e-10
1.46608e-10
1.46608e-10
1.46608e-10
1.46608e-10
1.46608e-10
1.46608e-10
1.46608e-10
1.46608e-10
1.46608e-10
1.46608e-10
1.46608e-10
1.46608e-10
1.46608e-10
1.46608e-10
1.46608e-10
1.46608e-10
1.46608e-10
1.46608e-10
1.46608e-10
1.46608e-10
1.46608e-10
1.46608e-10
1.46608e-10
1.46608e-10
1.46608e-10
1.46608e-10
1.46608e-10
1.46608e-10
1.46608e-10
1.46608e-10
1.46608e-10
1.46608e-10
1.46608e-10
1.46608e-10
1.46608e-10
1.46608e-10
1.46608e-10
1.46608e-10
1.46608e-10
1.46608e-10
1.46608e-10
1.46608e-10
1.46608e-10
1.46608e-10
1.46608e-10
1.46608e-10
1.46608e-10
1.46608e-10
1.46608e-10
1.46608e-10
1.46608e-10
1.46608e-10
1.46608e-10
1.46608e-10
1.46608e-10
1.46608e-10
1.46608e-10
1.46608e-10
1.46608e-10
1.46608e-10
1.46608e-10
1.46608e-10
1.46608e-10
1.46608e-10
1.46608e-10
1.46608e-10
1.46608e-10
1.46608e-10
1.46608e-10
1.46608e-10
1.46608e-10
1.46608e-10
1.46608e-10
1.46608e-10
1.46608e-10
1.46608e-10
1.46608e-10
1.46608e-10
1.46608e-10
1.46608e-10
1.46608e-10
1.46608e-10
1.46608e-10
1.46608e-10
1.46608e-10
1.46608e-10
1.46608e-10
1.46608e-10
1.46608e-10
1.46608e-10
1.46608e-10
1.46608e-10
1.46608e-10
1.46608e-10
1.46608e-10
1.46608e-10
1.46608e-10
1.46608e-10
1.46608e-10
1.46608e-10
1.46608e-10
1.46608e-10
1.46608e-10
1.46608e-10
1.46608e-10
1.46608e-10
1.46608e-10
1.46608e-10
1.46608e-10
1.46608e-10
1.46608e-10
1.46608e-10
1.46608e-10
1.46608e-10
1.46608e-10
1.46608e-10
1.46608e-10
1.46608e-10
1.46608e-10
1.46608e-10
1.46608e-10
1.46608e-10
1.46608e-10
1.46608e-10
1.46608e-10
1.46608e-10
1.46608e-10
1.46608e-10
1.46608e-10
1.46608e-10
1.46608e-10
1.46608e-10
1.46608e-10
1.46608e-10
1.46608e-10
1.46608e-10
1.46608e-10
1.46608e-10
1.46608e-10
1.46608e-10
1.46608e-10
1.46608e-10
1.46608e-10
1.46608e-10
1.46608e-10
1.46608e-10
1.46608e-10
1.46608e-10
1.46608e-10
1.46608e-10
1.46608e-10
1.46608e-10
1.46608e-10
1.46608e-10
1.46608e-10
1.46608e-10
1.46608e-10
1.46608e-10
1.46608e-10
1.46608e-10
1.46608e-10
1.46608e-10
1.46608e-10
1.46608e-10
1.46608e-10
1.46608e-10
1.46608e-10
1.46608e-10
1.46608e-10
1.46608e-10
1.46608e-10
1.46608e-10
1.46608e-10
1.46608e-10
1.46608e-10
1.46608e-10
1.46608e-10
1.46608e-10
1.46608e-10
1.46608e-10
1.46608e-10
1.46608e-10
1.46608e-10

VECTORS velocity float
0.00423841 -0.00033051 -6.55396e-05
0.00480292 -0.000446169 -3.61547e-05
0.00442206 -0.00030925 0.000223053
0.0043773 -0.000297365 0.000220145
0.00471845 -0.000298328 0.000266656
0.00432987 -0.000189216 -7.53805e-05
0.00453633 -0.00015974 0.000258215
0.0046801 -0.000295139 0.000261457
0.00479689 -0.000130534 0.000184873
0.00447707 -0.000327194 0.000227052
0.00448905 -0.000404041 -4.04531e-05
0.00448393 -7.22132e-05 0.000158394
0.0048607 -0.000429166 0.000248021
0.00463109 0.000531493 0.000279744
0.00477883 -0.000516984 9.65792e-06
0.00453335 0.000239002 9.55415e-05
0.00485084 -0.00014644 0.000191066
0.00484607 -0.000399464 0.000250769
0.00472704 -0.000468198 -1.85812e-05
0.00474935 -0.000301034 0.000269663
0.00447407 -0.000318 0.000226405
0.0044172 -6.01284e-05 0.00015168
0.00476812 -0.000467238 -1.91336e-05
0.00444697 -0.000100405 0.00010144
0.00449314 0.000300892 -0.000162977
0.00488664 -0.000424316 0.000112046
0.00430909 -0.000189558 -7.36329e-05
0.00444758 -0.000317196 0.000224883
0.00478844 -0.000488024 -1.03459e-05
0.00434721 -0.0001957 -7.30355e-05
0.0048654 -0.000459788 -3.2171e-05
0.00481261 -0.000405054 0.000248281
0.00482801 -0.00013816 0.00018796
0.00449802 -0.000141116 0.000269211
0.00487482 -0.000412165 0.000249883
0.00454225 -0.000143067 0.000274064
0.00479297 -0.0004721 -2.16873e-05
0.00458896 -0.000433113 -3.00233e-05
0.00440164 -0.000324176 0.000223394
0.00487712 -0.000401656 0.000165794
0.00435742 -0.000203934 -6.60068e-05
0.00445813 -6.06557e-05 0.000155419
0.00427411 -0.000261356 0.000175135
0.0046663 -0.00046033 -1.92951e-05
0.00443272 -0.000172061 -3.97596e-06
0.00485599 -0.000435615 0.000150534
0.00463251 1.15018e-05 5.88376e-05
0.0048751 0.000133966 -0.000207879
0.00456245 -0.000350142 0.000232723
0.00439765 -0.000206524 -5.74869e-05
0.00442058 4.10196e-05 -0.000129268
0.00440156 -5.65665e-05 0.000151056
0.00478711 -0.000443067 -3.59523e-05
0.00472495 -0.000241794 0.000278595
0.00441803 -0.000402631 -3.70077e-05
0.00481247 -0.000407132 0.000248354
0.004438 -6.12099e-05 0.00015259
0.00428798 -0.000365306 -5.05897e-05
0.00426912 -2.90672e-05 5.962e-05
0.00470651 -0.000179883 0.000225911
0.00436476 5.89452e-06 -0.00011514
0.00455194 -0.000436511 -2.60504e-05
0.00482765 -0.000140819 0.00018875
0.00444883 4.83459e-05 -0.000135166
0.00468562 -0.000111279 0.000175859
0.00449056 -0.00018919 0.000246735
0.00454877 -0.000403847 -4.40664e-05
0.00449071 -0.000138261 0.000270494
0.00483957 -0.000143707 0.000189893
0.0044915 -0.000327342 0.000227756
0.0046785 0.000560138 0.000223949
0.00462903 0.000640667 3.52571e-05
0.00480186 -0.000491111 -4.48401e-05
0.00462521 -8.54629e-05 7.3027e-05
0.00449797 1.7212e-07 -0.000108468
0.00470846 0.000563525 0.000196863
0.00480709 -0.000137508 0.000186856
0.00439829 4.19371e-05 -0.000123436
0.00434957 -0.000316199 0.000220484
0.0047972 -0.000135661 0.00018596
0.00449644 -0.000419518 -3.22098e-05
0.00478139 -0.000452201 2.13314e-05
0.00453909 -0.000417857 -3.5633e-05
0.00424969 -0.000355331 -5.38121e-05
0.00453364 -0.000430575 -2.82166e-05
0.004785 -0.000465734 -2.33156e-05
0.00460238 -0.000415904 -4.06152e-05
0.00466428 -0.000374671 0.000239377
0.00467892 -0.000446808 -2.7834e-05
0.00474928 -0.000427936 -4.22757e-05
0.00445947 1.93246e-05 -0.000117809
0.00478855 -0.00041928 -4.78721e-05
0.00488381 0.000329033 -0.00030454
0.00486399 -0.000424206 0.000236931
0.00478339 -0.000491308 -9.56169e-06
0.00445944 -2.20446e-06 -0.000106223
0.00469637 0.00048919 -1.4031e-05
0.00429942 -0.000363131 -5.20665e-05
0.00464361 0.000541993 0.000269075
0.00479562 -0.000407587 0.000246857
0.00433354 -0.000291233 0.000217807
0.00449226 -0.000324943 0.000227662
0.00436846 -0.0002944 -9.20626e-06
0.00464717 0.000760985 6.79093e-05
0.0044447 -0.000322956 0.000225276
0.00444573 3.70411e-05 -0.000129553
0.00486155 -0.000399062 0.000252914
0.00480073 -0.000437891 -3.96995e-05
0.00441074 -0.000386128 -4.5904e-05
0.00459302 -5.26976e-05 6.75523e-05
0.00429511 -0.000192396 -7.11096e-05
0.0047605 -0.000459483 -2.53575e-05
0.00450277 -0.000433206 -2.48803e-05
0.00462635 -0.000363081 -7.13964e-05
0.00459685 -4.62215e-05 4.63172e-05
0.00490006 -0.000401873 0.000251206
0.00475676 -0.000313378 0.000238845
0.00430202 -0.000370657 -4.75571e-05
0.00477773 0.000607105 0.000132446
0.00444788 -0.00031945 0.000225191
0.0044861 0.000629672 -6.65743e-06
0.00428321 -0.000190772 0.000111335
0.00462546 -1.44948e-05 6.08314e-05
0.00469893 -0.00042172 -4.36216e-05
0.00459609 -0.000447149 -2.26943e-05
0.00477764 -0.000466192 -2.24535e-05
0.00454781 -0.000425392 -3.21017e-05
0.00460431 9.16147e-05 4.71472e-05
0.00432706 -0.000331581 -7.22612e-05
0.0046539 -0.000419766 -4.15022e-05
0.00453645 -0.000428244 -2.96105e-05
0.00446583 -0.000328797 0.000226697
0.00480454 0.000350148 -0.000302365
0.00455189 -0.00012967 0.000288804
0.00480663 -0.000492444 -9.86218e-06
0.00477214 -0.000470721 -1.93239e-05
0.00452153 -0.000389551 -5.04243e-05
0.00467868 0.000541639 0.000247741
0.00485549 -0.000474202 -3.04357e-05
0.00453749 -0.00043696 -2.48806e-05
0.00424653 -0.000351876 -5.51355e-05
0.00482082 1.17403e-05 -0.00012087
0.00462769 -0.000279016 0.000230159
0.00457997 4.21566e-05 -0.000288516
0.00460804 0.000690297 2.93443e-05
0.00455908 0.00021515 2.624e-05
0.00429624 -0.000322002 0.000218564
0.00485142 0.000456685 -1.25271e-05
0.00453759 -0.000427396 -3.01265e-05
0.00491571 0.00011822 -0.000179174
0.00455086 -0.000419745 -3.53707e-05
0.00428601 -6.20676e-05 6.49456e-05
0.00467596 -0.000415061 -4.54041e-05
0.00463043 6.35314e-05 5.05499e-05
0.00454076 -0.000431937 -2.78404e-05
0.00437642 5.33584e-05 -0.000125123
0.00479552 -0.000456543 3.00848e-05
0.00440255 0.000347042 6.68518e-06
0.00439791 2.53126e-05 -0.000119654
0.00486917 -0.000382766 0.000250884
0.00449454 0.000125892 3.71839e-05
0.00486044 -0.000375165 0.000248617
0.00493936 0.000106518 -0.000174484
0.00497618 0.000171376 -4.04788e-06
0.00469986 0.000174635 -2.84844e-05
0.00463767 2.05151e-05 5.72545e-05
0.00489569 4.01174e-05 -0.00013972
0.00444602 1.36457e-05 -0.000114342
0.0044858 -0.000334115 0.000228027
0.00465098 -1.17061e-05 6.18146e-05
0.00431766 -0.000310141 0.000218596
0.00453972 -1.35967e-06 5.86969e-05
0.00478652 -0.000425756 0.000248662
0.00440606 8.08013e-05 -0.000154652
0.00480077 4.92026e-05 -0.000144635
0.0048324 -0.000139399 0.000188407
0.00425581 -0.000299789 -8.52678e-05
0.00421713 -0.000317172 -7.23256e-05
0.0043827 0.000181646 2.42787e-05
0.0047857 -0.000440375 -3.74741e-05
0.00491547 5.81124e-05 -0.000150461
0.00488964 -0.000438424 -4.38689e-05
0.00441634 -0.000118596 0.000250081
0.00427427 0.000168224 3.84895e-05
0.00461059 1.10743e-06 -0.000111081
0.00434904 -0.00037324 -4.94452e-05
0.00443652 3.56831e-05 5.3088e-05
0.00454368 0.000406034 -8.87638e-06
0.00473265 0.000627462 8.8457e-05
0.00489827 6.06123e-05 -0.00015142
0.00501598 0.000109187 3.36855e-05
0.00478492 -0.000554814 -0.000177388
0.00429268 0.00017243 2.7778e-05
0.00441881 6.43446e-05 -0.000144637
0.00495511 7.52476e-05 -0.000162791
0.0044094 1.59343e-06 -0.000106323
0.00461695 -4.87321e-05 6.70761e-05
0.00450753 6.84037e-05 -0.00032127
0.00485253 -0.000387624 0.000249075
0.00425323 -0.000302298 -8.38803e-05
0.00487016 -0.000152201 0.000193265
0.00455192 -0.00045073 -1.87346e-05
0.00440436 6.62295e-05 -0.000138855
0.00448337 -0.000371848 -5.78492e-05
0.00427782 -0.000315788 -7.61738e-05
0.00434477 -0.000328455 -7.57511e-05
0.00452708 -0.000262994 0.000224295
0.00444481 0.000228966 0.000105683
0.00484485 -0.000359859 0.000246791
0.00459934 0.000828876 8.67334e-05
0.00473213 0.000596212 0.00016852
0.00486102 -0.000148851 0.000192386
0.00489825 9.80479e-05 -0.000126394
0.00492076 3.24632e-05 -0.000128244
0.00440534 0.000108282 -0.000167195
0.00473004 0.000331717 1.98892e-05
0.00506542 0.00017419 4.57454e-05
0.00439771 7.57571e-05 -0.000111242
0.00474654 -5.64202e-06 -0.00011132
0.00470121 -0.000423769 -4.21034e-05
0.00487124 -0.000373749 0.000248711
0.00481478 5.05014e-05 -0.000148084
0.00440334 -4.84455e-05 -7.92702e-05
0.00492541 3.56782e-05 -0.000112
0.00451376 0.000103874 -0.000166252
0.00435426 -0.000505265 0.00015398
0.00443024 0.000174216 -0.00020277
0.00468978 7.76602e-05 -0.000155448
0.00434432 -0.000503319 0.000152994
0.00436578 -0.000466003 0.000211326
0.00438781 1.7813e-05 -0.00011431
0.00477928 -0.000551723 0.000241933
0.00480459 -0.00049291 -1.03068e-05
0.0047989 -0.000437606 -4.1212e-05
0.00440752 6.23687e-05 -0.000137418
0.00451125 -0.000109424 0.000296087
6.79969e-15 2.29894e-14 -7.03251e-14
0.00433993 -0.000461243 0.000209807
0.0046123 6.2284e-05 5.06523e-05
0.00492623 0.000108812 -0.000180892
0.00443374 8.33178e-05 -0.000151578
0.00414084 0.000423683 -1.22616e-05
0.00492862 7.88544e-05 -0.000108315
0.0049257 -6.46742e-05 -0.000397892
0.00458876 7.41316e-05 4.72108e-05
0.00433176 -0.000331268 0.000220861
0.00475161 5.52326e-06 -0.000120952
0.00446256 8.14383e-05 -0.000178471
0.00478171 -0.000553191 0.000242382
0.00490917 7.62593e-05 -0.000144955
0.00437725 0.000120356 -5.5426e-05
0.00422042 -0.000311996 -7.59583e-05
0.00461748 3.47273e-06 5.92947e-05
0.00457593 9.88202e-05 4.45082e-05
0.00460033 -0.000137405 8.08575e-05
0.00448142 0.00066273 -4.50914e-05
0.00489916 4.42329e-05 -0.000145441
0.00432056 0.000164468 3.08859e-05
0.00452768 0.000385424 -3.19364e-06
0.005091 0.000100168 5.5282e-05
0.00445394 4.66826e-07 5.72089e-05
0.00488785 7.14131e-05 -0.00015747
0.0047434 -0.000419856 -4.63427e-05
-1.28688e-14 6.08915e-14 -1.90221e-13
0.0048059 -0.000514539 6.65376e-05
0.00463686 -1.22094e-05 6.1962e-05
0.00478275 -0.00055383 0.000242596
0.00478042 -0.000552571 0.000242263
0.00485289 5.63075e-05 -0.000147635
0.00453532 -2.53776e-05 -9.68477e-05
0.0042922 3.79158e-05 5.09735e-05
0.00437662 -0.000341015 0.000223582
0.00490765 6.73767e-05 -0.000167808
0.00435522 9.11098e-05 4.15736e-05
0.00481941 -5.16087e-05 -0.000464047
0.00455887 0.000424921 -8.35932e-06
0.00447464 -0.000319127 0.00022649
0.00486434 8.05615e-05 -0.00015578
0.00439342 2.31109e-05 -0.000118564
0.00464203 -0.000385105 -6.10104e-05
0.0048315 -0.000398465 0.000248762
0.00434245 -7.00417e-05 6.66593e-05
0.00444731 -0.000315875 0.000224894

VECTORS force float
1.37061e-10 -2.18455e-10 1.18723e-10
4.27954e-12 1.80193e-10 -7.6217e-11
-6.40233e-11 -2.59862e-11 -4.549e-12
-8.25636e-11 1.3053e-11 -5.87255e-12
-7.56108e-11 -3.89048e-11 7.39814e-11
-9.8694e-11 2.31451e-11 -4.09749e-11
-2.91536e-11 7.05177e-11 -9.6089e-11
-2.78535e-11 -2.52248e-11 8.06029e-11
-2.58558e-11 6.67592e-11 -1.54783e-11
3.38689e-11 9.94483e-11 -5.76794e-12
7.04099e-11 -2.01558e-10 1.08737e-10
1.43591e-11 -4.86228e-12 1.93273e-12
-2.32372e-10 -6.05326e-11 -1.21546e-11
1.44291e-10 1.87591e-10 -4.59659e-10
-1.9124e-10 -1.42271e-10 1.17444e-10
-2.19534e-10 -3.4483e-10 1.39359e-10
-1.88491e-11 3.38787e-12 -4.4717e-12
-1.60555e-12 -1.4845e-11 1.85436e-11
-1.13573e-10 9.65935e-11 -5.3361e-11
-6.12825e-11 -5.81643e-12 9.85341e-11
-1.2417e-11 -6.14104e-11 4.47108e-12
2.37194e-13 -2.92769e-12 -2.08118e-11
1.59319e-10 -8.63216e-11 9.07827e-11
4.77698e-12 5.663e-11 -8.78359e-11
-5.8907e-13 -6.21364e-10 1.47775e-10
-3.28387e-11 4.41815e-11 -5.69817e-11
-7.83551e-11 2.10629e-11 -2.06359e-11
-1.35409e-11 2.8567e-12 4.69648e-13
5.51378e-11 1.43514e-10 -1.13525e-10
1.43718e-10 -4.26135e-11 2.60773e-11
-1.35042e-12 9.11923e-11 -5.04386e-11
4.94811e-11 1.84118e-10 -1.29855e-11
-3.06923e-11 -6.57058e-11 2.16683e-11
-2.2032e-11 2.93814e-11 -5.90462e-11
-2.07017e-10 1.51454e-11 1.4989e-12
4.55274e-11 1.14705e-10 -8.45942e-11
5.86603e-11 8.73415e-11 -2.47054e-11
-8.33568e-11 1.04867e-11 -4.60792e-12
-4.41848e-11 -3.27778e-11 3.47584e-13
5.95102e-11 -8.73353e-11 -8.60793e-11
1.60604e-10 -6.50196e-11 1.16506e-10
-1.1296e-10 5.08691e-11 -6.66981e-11
-1.25863e-10 3.62133e-11 4.17085e-11
-4.76226e-11 9.02373e-11 -4.70296e-11
7.77455e-11 -1.52937e-11 -5.7505e-11
-1.76423e-10 2.64841e-11 5.48723e-11
1.69528e-11 1.58591e-10 -2.23681e-11
-3.77955e-10 1.33418e-10 -4.15001e-10
5.5398e-11 7.20087e-11 -3.80303e-12
-1.00508e-10 -9.06062e-11 4.60465e-11
8.6533e-11 -2.22165e-11 1.35351e-11
4.68425e-12 -2.31054e-11 -1.02271e-11
4.36922e-12 1.55779e-10 -1.01134e-10
-1.68815e-10 5.01924e-11 6.46713e-11
-1.42476e-10 -1.21132e-11 1.50743e-11
-1.72172e-11 -2.61778e-11 6.99037e-12
3.63982e-12 5.6364e-11 -1.8644e-11
-6.28539e-11 3.65791e-11 -7.53484e-12
-7.75359e-10 1.98178e-10 -4.47921e-11
-5.61072e-11 -2.58223e-10 2.12372e-11
6.79032e-11 -5.27612e-10 2.33293e-10
-3.97346e-11 2.99864e-11 -1.54383e-11
-4.08772e-11 -5.21665e-11 1.44667e-11
1.59165e-10 3.30134e-10 -2.02755e-10
-3.41367e-11 5.33558e-11 -1.40117e-11
-2.93319e-11 1.80008e-11 2.69065e-11
1.32358e-10 -1.25218e-10 6.73092e-11
-3.79993e-12 4.28621e-12 -3.06863e-12
-2.47958e-13 2.44505e-11 -9.60911e-12
2.35947e-11 -6.58894e-11 4.54261e-12
-5.23693e-11 1.51286e-10 -3.6401e-10
-3.08955e-10 -2.87682e-10 -1.52465e-10
1.4682e-10 1.1373e-10 1.44577e-10
-1.14578e-10 1.81581e-10 -2.85175e-11
-1.49956e-10 -4.40456e-10 2.4559e-10
2.46977e-10 4.99955e-11 -2.85241e-10
2.57931e-11 -1.07939e-10 2.86095e-11
9.40432e-11 -1.75862e-10 6.81346e-11
-7.97931e-11 -3.81687e-11 1.51834e-13
1.39709e-10 -2.73354e-11 1.73776e-11
7.80258e-11 -4.47069e-11 1.99905e-11
2.34137e-10 1.36253e-11 9.65527e-11
1.41546e-10 -2.29487e-10 1.19194e-10
-6.82033e-11 -7.65882e-12 9.58998e-12
3.09952e-10 -5.88377e-11 1.59686e-11
-1.03866e-11 -1.2591e-11 1.12622e-11
-1.76827e-11 1.76165e-11 -9.2268e-12
1.52752e-10 8.46065e-11 1.21358e-12
1.34305e-10 -3.39123e-11 1.26676e-11
-2.56992e-11 1.81478e-10 -1.02367e-10
1.48333e-10 9.15428e-11 -5.16141e-11
-1.98618e-11 1.2703e-10 -6.6975e-11
-4.698e-10 5.08551e-10 -2.71789e-10
-1.92007e-10 3.27451e-11 6.32783e-11
8.71129e-11 1.18848e-10 -7.67347e-11
1.55057e-10 -3.27222e-10 1.67164e-10
-7.22499e-10 1.44933e-10 -3.65566e-11
1.16981e-11 -1.23814e-10 6.96721e-11
-5.44252e-11 2.24932e-10 -4.25899e-10
2.72496e-12 1.82842e-11 1.67347e-11
-1.52709e-10 8.68127e-14 -7.15889e-12
-2.73152e-11 -1.13387e-10 5.27224e-12
-3.3909e-11 8.30414e-11 3.42375e-12
2.73162e-10 1.29829e-10 4.7028e-10
3.38759e-11 2.35562e-11 -2.21556e-12
1.19744e-10 1.50274e-10 -1.17075e-10
-4.2766e-11 -1.02379e-11 -2.36449e-11
3.04904e-11 1.80758e-10 -1.0591e-10
1.07669e-11 -1.82995e-10 1.02101e-10
-6.01643e-10 1.47063e-10 -3.01131e-11
9.38786e-11 -5.3383e-11 4.18978e-11
6.65895e-11 -1.20336e-11 5.54093e-12
1.67936e-11 2.8867e-11 -1.67832e-11
-1.47743e-10 -3.93746e-10 2.37314e-10
-2.9956e-10 -1.75719e-10 -9.18987e-11
1.29288e-11 1.01956e-10 8.26209e-12
-4.57336e-11 -1.72872e-10 1.40211e-11
5.98705e-11 5.94001e-11 -2.2006e-11
7.22086e-11 1.60451e-10 -1.634e-10
1.0392e-10 7.7384e-11 -1.06862e-12
9.51104e-11 -3.7502e-11 3.67761e-10
6.26815e-11 8.18235e-11 -1.34397e-11
-8.55943e-11 3.81589e-11 -9.07529e-12
8.81107e-11 1.12678e-10 -5.86983e-11
-1.05572e-10 5.37353e-11 -2.22162e-11
6.81078e-11 -8.23157e-11 1.72316e-11
1.1314e-10 -1.68993e-10 8.75954e-11
-1.01897e-10 -9.21953e-11 3.38949e-12
2.45523e-10 -3.51234e-11 8.70321e-13
5.98355e-11 3.72012e-11 -2.66468e-11
2.21483e-10 -9.60474e-11 4.33819e-11
8.05707e-11 -3.6386e-12 2.06608e-12
-6.65651e-10 4.78004e-10 -7.76301e-11
1.29256e-10 1.14518e-10 -6.89472e-11
-7.20541e-11 1.71669e-10 -9.19743e-11
-1.67022e-11 1.1314e-10 -6.40898e-11
-3.37105e-12 -2.03666e-11 1.67842e-11
1.75328e-10 4.12351e-11 -4.68183e-10
-3.3821e-12 4.79527e-11 -2.11957e-11
1.75584e-10 -3.19686e-11 6.58217e-12
-1.45762e-12 -8.73699e-11 5.01549e-11
3.3645e-10 2.85213e-10 -1.68014e-10
2.38634e-10 5.78364e-11 9.39368e-12
-3.1118e-10 -2.31685e-10 4.27484e-10
-2.71217e-10 -2.59169e-10 1.16171e-11
-1.43663e-10 -5.53024e-10 8.25016e-11
-4.05761e-11 -2.34347e-11 2.77123e-13
-7.57382e-10 2.79837e-10 -9.1954e-11
3.49893e-11 -8.04025e-13 5.83009e-13
-1.11198e-10 -9.64314e-11 7.6713e-11
-2.59725e-11 -1.06853e-10 6.29629e-11
-4.28514e-10 1.52179e-10 -2.60433e-11
1.5419e-11 1.00036e-10 -5.5655e-11
-6.46756e-11 5.93833e-11 -2.94792e-11
1.83397e-10 -5.02911e-11 1.5362e-11
7.38548e-12 -3.6322e-10 9.57343e-11
-7.06407e-11 2.84771e-12 1.23421e-10
-2.36947e-09 4.54963e-10 -1.54355e-10
-2.35564e-10 3.58927e-10 -1.78261e-10
-1.63814e-10 -8.16994e-11 -4.4948e-11
-2.54799e-11 5.80088e-12 -2.87807e-12
-8.09443e-11 -7.44451e-11 3.31722e-12
1.65743e-10 -4.88625e-11 2.26368e-11
-5.46748e-10 -4.97208e-11 -7.30104e-11
-3.98001e-10 -2.11197e-10 2.82924e-10
-8.87087e-11 2.18504e-10 -4.26277e-11
-1.45514e-10 2.41329e-10 -1.64173e-10
3.80997e-11 -5.05349e-10 2.91207e-10
6.81281e-11 -1.21568e-11 5.71817e-12
-6.0958e-11 1.88267e-10 -2.58593e-11
-1.5877e-10 -1.12242e-11 -6.11899e-12
-3.97648e-10 -2.3091e-11 -1.39183e-11
-3.67224e-12 5.98364e-12 3.44543e-12
1.08102e-10 5.19968e-10 -2.59881e-10
-1.16512e-10 3.05442e-10 -1.62212e-10
4.99491e-11 1.52843e-11 1.176e-13
3.61322e-11 3.32581e-11 -2.76267e-11
2.16034e-10 -1.69612e-10 8.6428e-11
-1.58263e-10 -3.28794e-10 1.98906e-10
1.18742e-10 1.59159e-10 -9.38605e-11
-2.92003e-10 2.42935e-10 -7.3333e-11
-8.73741e-11 2.0298e-12 -1.08369e-11
4.61179e-11 5.96909e-11 -8.66823e-11
6.09327e-10 -9.03006e-11 -1.73395e-10
4.43274e-10 3.8224e-10 -2.27103e-10
8.48914e-11 -1.8173e-10 9.99295e-11
5.74307e-11 1.54055e-10 -1.65104e-11
4.36806e-10 -2.50527e-10 1.33621e-10
1.57045e-10 4.75812e-11 -4.73846e-11
9.53121e-11 2.23755e-10 -1.56016e-10
-8.72629e-10 -5.87996e-10 -1.3085e-10
-1.33661e-10 -1.2956e-10 -2.0207e-10
-2.97465e-10 1.93031e-10 -5.85554e-11
2.35956e-11 1.21528e-11 -2.07242e-12
-4.15025e-10 2.39634e-10 -1.06923e-10
1.09963e-10 -3.32824e-10 1.72114e-10
-5.68922e-11 -1.32993e-10 1.99796e-11
-1.42177e-10 -4.65652e-10 3.9175e-10
3.56462e-11 3.4326e-11 5.32955e-12
-1.54248e-10 4.82488e-11 3.07703e-12
9.72172e-12 2.79467e-11 -3.50736e-12
1.76184e-13 -4.06071e-12 1.789e-11
2.83062e-10 -5.05649e-10 2.05812e-10
-4.3179e-11 -6.23648e-12 2.62616e-12
8.18174e-11 2.14122e-12 -1.21444e-11
-2.11784e-11 3.50817e-11 -1.17065e-11
1.66691e-10 2.04441e-10 -8.67329e-12
2.53857e-11 -3.67818e-10 1.83276e-10
-1.26557e-10 -1.13976e-10 4.01682e-12
-8.71914e-11 1.68496e-10 3.8589e-10
1.647e-11 6.81254e-11 -2.54129e-10
1.17714e-11 1.37576e-11 -7.79391e-12
-5.64589e-11 -6.18967e-11 -2.34657e-10
-4.92208e-10 4.90885e-10 -4.3964e-10
4.13422e-10 3.3939e-10 -1.8845e-10
-5.86215e-10 2.276e-10 -1.00525e-10
1.81642e-10 -4.98136e-10 -4.21574e-10
-5.92389e-12 1.11603e-11 1.29061e-10
4.74938e-10 4.55133e-10 -2.55404e-10
-2.30422e-10 9.05494e-11 -3.6457e-11
-1.83527e-10 -5.78577e-11 -4.22384e-11
8.23636e-10 1.50546e-09 -7.17636e-10
2.31406e-10 2.30577e-09 -1.29333e-09
7.54029e-10 8.21729e-11 2.14285e-10
1.6111e-10 9.45003e-11 -6.25708e-11
-1.92444e-11 -2.55479e-11 2.35928e-11
-2.70177e-10 -1.94354e-09 1.08235e-09
-6.45077e-11 -4.38659e-11 1.30967e-11
-8.42021e-12 -2.57539e-11 2.14719e-11
7.36076e-12 -3.91315e-11 5.60834e-12
-3.64644e-11 2.20987e-10 -1.20909e-10
-1.11688e-11 -3.28739e-11 7.85883e-12
-1.19134e-10 1.99454e-10 -1.14378e-10
-5.04767e-11 1.9714e-10 -9.96677e-11
7.64758e-11 2.27393e-11 -6.49399e-12
2.74384e-11 7.47869e-11 -1.18535e-10
-6.26331e-23 -1.72674e-23 -1.17873e-23
-9.31672e-12 -3.53838e-11 7.32047e-12
-6.13267e-11 -1.44131e-11 4.56114e-12
-2.71111e-10 -7.97426e-11 2.55093e-10
1.29545e-10 -5.42407e-10 2.94904e-10
-7.29448e-10 1.47679e-10 -2.35676e-11
-1.65334e-10 -1.2345e-10 1.48202e-12
-7.91301e-10 3.06846e-10 5.56595e-11
-2.47345e-12 5.06345e-11 -2.05913e-11
-5.36151e-11 -5.77784e-11 1.4119e-12
9.77336e-10 1.00415e-10 -2.76383e-11
-3.91549e-10 4.64986e-10 6.10388e-10
-8.70701e-12 -2.89247e-11 6.89538e-12
-6.2502e-11 1.06782e-10 -1.84976e-11
-1.53708e-10 -1.3736e-10 2.49497e-10
2.56985e-11 -2.84059e-11 1.01633e-11
-9.68242e-11 6.30759e-11 -8.11909e-12
1.92519e-10 3.3514e-10 -2.40982e-11
-2.93272e-10 1.45153e-11 -9.06115e-12
-7.2928e-10 1.15486e-10 -1.06283e-11
1.7038e-10 2.80914e-10 8.14022e-11
-8.45451e-11 1.58091e-10 1.36997e-11
-7.09995e-10 1.55459e-10 -6.53263e-11
2.87668e-09 5.95447e-10 -4.12182e-10
2.44237e-10 5.9924e-11 1.02759e-11
-5.13668e-11 6.92531e-10 -5.17039e-10
-1.40455e-10 -2.16422e-11 -3.72111e-12
-1.39385e-21 -2.36212e-22 1.90252e-23
-5.59295e-12 -2.49922e-11 7.9539e-12
-1.68555e-10 -6.0987e-11 1.09368e-11
-3.48994e-12 -3.17525e-11 7.89358e-12
-3.08309e-12 -3.24156e-11 7.65285e-12
2.57054e-10 4.04943e-10 -2.27618e-10
-1.78123e-10 -3.27718e-10 2.2233e-10
3.95225e-10 1.04265e-10 1.769e-11
-5.58747e-11 -8.54773e-11 4.21771e-12
-3.94606e-10 6.64897e-11 8.22427e-11
-2.77691e-10 -5.20845e-10 8.71291e-11
-1.31893e-10 4.33188e-10 2.17583e-10
1.37568e-10 -5.78066e-11 -3.53927e-11
2.6166e-11 -4.6916e-11 6.60144e-12
1.53857e-10 1.00543e-09 -5.91741e-10
4.18293e-10 -3.70739e-10 1.98092e-10
7.75061e-11 1.28094e-10 -7.25946e-11
-6.50049e-12 -4.51278e-11 1.40595e-11
-1.80172e-10 8.52171e-11 -9.49814e-12
1.03133e-11 -1.24672e-11 4.30297e-12
