# vtk DataFile Version 3.0
LIGGGHTS particles timestep 4400000
ASCII
DATASET POLYDATA
POINTS 289 float
0.0330388 0.0161661 0.00793394
0.0334407 0.0169757 0.00743837
0.0333698 0.0170979 0.00738129
0.0334349 0.0173669 0.00726563
0.0328255 0.0160604 0.0080623
0.038964 0.0165593 0.0075856
0.0330059 0.0167397 0.00752267
0.0328065 0.0159952 0.00813566
0.0392806 0.0179121 0.00702957
0.0329453 0.0164806 0.00765762
0.0332101 0.0169849 0.00742384
0.0392415 0.0177261 0.00709178
0.0329836 0.0166502 0.00756134
0.0266787 0.0154899 0.00852392
0.0331834 0.017109 0.00736789
0.0266592 0.015437 0.0086065
0.0329229 0.0163957 0.00770544
0.0391786 0.0174479 0.00718465
0.032924 0.0160825 0.00803272
0.0333479 0.0169167 0.00746016
0.0328451 0.0161256 0.00798899
0.0331105 0.0169911 0.00741659
0.0392003 0.0175405 0.00715377
0.0331042 0.0167725 0.00751268
0.0390701 0.016995 0.00736456
0.027099 0.0170913 0.00728503
0.0329433 0.0161477 0.00795938
0.0389447 0.0164717 0.00762995
0.0329623 0.0165604 0.00759974
0.0331095 0.0171694 0.00733792
0.0389838 0.0166467 0.00754129
0.0330597 0.0165921 0.00759018
0.0331583 0.016624 0.00758061
0.0393002 0.0180051 0.00699846
0.0330385 0.0165023 0.0076288
0.0330826 0.0166823 0.00755143
0.0391138 0.0171721 0.0072829
0.0330269 0.0168336 0.00749548
0.0329631 0.0162128 0.0078861
0.0330486 0.0169208 0.00745161
0.0332891 0.0171505 0.0073544
0.0334871 0.0172168 0.0073342
0.0390052 0.0167338 0.00749709
0.0390917 0.0170821 0.00732038
0.0328842 0.0162558 0.00784238
0.0332491 0.0169013 0.00746246
0.0390485 0.0169079 0.00740874
0.0332926 0.0175582 0.00717484
0.0273642 0.0170221 0.00730404
0.0391351 0.0172627 0.00724641
0.0330779 0.0162994 0.00779008
0.0266974 0.0155452 0.00844273
0.033188 0.0168237 0.00749392
0.0390268 0.0168209 0.00745291
0.0271152 0.0167964 0.00746792
0.0392218 0.0176332 0.00712287
0.0332782 0.0167436 0.00753333
0.0328644 0.0161907 0.00791566
0.0332673 0.0170608 0.00739295
0.0334133 0.0172772 0.00730419
0.0391568 0.0173553 0.00721553
0.0327868 0.0159301 0.00820896
0.0272662 0.0169852 0.00731138
0.033348 0.0170082 0.00741982
0.0272075 0.0167655 0.00749077
0.0330877 0.0170797 0.00737645
0.0393198 0.0180981 0.00696736
0.0267549 0.0157768 0.00826899
0.039261 0.0178191 0.00706067
0.0329032 0.0163211 0.00776902
0.0334174 0.0168521 0.00749179
0.0330176 0.0164123 0.00766752
0.0392318 0.0172937 0.00723977
0.0334139 0.0185491 0.00703244
0.0268129 0.0160093 0.00809453
0.0269536 0.0165468 0.00767874
0.0334367 0.0177827 0.00708235
0.0270725 0.0166454 0.00759336
0.0271204 0.0171871 0.00726603
0.0268706 0.0162402 0.00792161
0.03921 0.017201 0.00727066
0.0268553 0.016082 0.00804052
0.0332386 0.0177077 0.00710658
0.0393389 0.017761 0.00708385
0.033352 0.0178298 0.00705778
0.033399 0.0176019 0.00716038
0.0333761 0.0175093 0.00720017
0.0332274 0.0172891 0.00729052
0.0334935 0.0176332 0.00715087
0.0334491 0.0182953 0.00696334
0.0333337 0.0177395 0.00709674
0.0333943 0.0184551 0.00700458
0.0334564 0.0178706 0.00703712
0.0334009 0.0181067 0.00691721
0.0271562 0.0169464 0.00734339
0.0335098 0.0169107 0.00747015
0.0272569 0.0166344 0.00759729
0.0331529 0.0173488 0.00726081
0.0331488 0.0169072 0.00745531
0.0273085 0.0171792 0.0072669
0.0267932 0.0159309 0.00815337
0.0331963 0.0175281 0.00718372
0.0267354 0.0156983 0.00832785
0.0329827 0.0162784 0.00781226
0.0333109 0.0172402 0.00731585
0.0332577 0.0177987 0.0070698
0.0333748 0.0183601 0.00698027
0.0270361 0.0168449 0.00743067
0.0332754 0.0178881 0.0070286
0.0271846 0.0174719 0.00719742
0.0333915 0.0171876 0.00734274
0.033311 0.0168305 0.00749648
0.0327673 0.0158649 0.00828226
0.0272593 0.0174074 0.00721333
0.0389251 0.0163912 0.00768588
0.0331822 0.0167166 0.00754086
0.0327479 0.0157998 0.00835559
0.0335334 0.0178134 0.00706516
0.0270083 0.0164199 0.00778068
0.0335026 0.0181414 0.00692365
0.0330017 0.0163439 0.00773863
0.0332057 0.0171994 0.00732907
0.0269118 0.0163962 0.00780337
0.0333145 0.0176494 0.00713562
0.027212 0.0171478 0.00727311
0.0331311 0.0172591 0.00729936
0.0272846 0.0170809 0.00728939
0.0334652 0.0171269 0.00737281
0.0331361 0.0165344 0.00761909
0.0333326 0.0173299 0.00727731
0.033058 0.0162313 0.00786059
0.0267228 0.0156333 0.00840274
0.033479 0.018047 0.00694652
0.0334182 0.0176922 0.00712147
0.0333542 0.0174206 0.00724116
0.0333903 0.0180065 0.00696865
0.026851 0.0161616 0.00798026
0.0332491 0.0173787 0.00725197
0.0332708 0.0174684 0.00721342
0.033218 0.0176178 0.00714516
0.033584 0.0172476 0.00732502
0.0267925 0.0158511 0.00821362
0.0331746 0.0174384 0.00722227
0.0333712 0.0179179 0.00701454
0.0327285 0.0157346 0.00842892
0.0273015 0.017598 0.00716963
0.0327092 0.0156694 0.00850225
0.0271635 0.0173766 0.00721926
0.026997 0.0167036 0.00756317
0.0272465 0.0169083 0.00737226
0.0333543 0.0182622 0.00697945
0.0271798 0.0170341 0.00729893
0.0329045 0.0160173 0.00810603
0.0274167 0.0177244 0.00714177
0.0335293 0.0186724 0.00706407
0.0273856 0.0171173 0.00728222
0.0334533 0.0187394 0.00707985
0.0273949 0.0173485 0.00722869
0.033097 0.0163732 0.00772535
0.0271624 0.0166104 0.00761965
0.0333137 0.0180685 0.00695159
0.0275659 0.0175951 0.00717364
0.0272808 0.0175027 0.0071915
0.0335125 0.0177242 0.00711111
0.0275521 0.0179461 0.00709202
0.0335539 0.0179033 0.00701882
0.027376 0.0175332 0.00718561
0.0274267 0.0168891 0.00738292
0.0270776 0.016996 0.00730649
0.0274688 0.0172832 0.00724479
0.0273736 0.0172533 0.00725052
0.027206 0.0175671 0.0071756
0.0332952 0.0179769 0.00698712
0.0270509 0.0165702 0.00765582
0.0331149 0.0164446 0.00765771
0.0274913 0.0176598 0.0071577
0.0333808 0.0167662 0.00752801
0.0273218 0.0176934 0.00714775
0.026975 0.0166216 0.00761587
0.0393395 0.0181911 0.00693626
0.033632 0.0178473 0.00704624
0.0332538 0.016654 0.00757172
0.0272267 0.0176625 0.00715373
0.0335667 0.0184136 0.00699645
0.027247 0.0177579 0.00713185
0.0334746 0.0179581 0.00699207
0.0328658 0.015887 0.0082527
0.0275863 0.0176906 0.00715173
0.0271409 0.0165353 0.00768205
0.0328462 0.0158218 0.00832599
0.0270912 0.0167217 0.00753006
0.0275849 0.0174098 0.00721688
0.0269325 0.0164731 0.00774294
0.027443 0.0182664 0.00701633
0.02749 0.0173787 0.0072229
0.0332102 0.0164743 0.00764895
0.0274504 0.017468 0.00720167
0.0271418 0.0172815 0.00724106
0.0273553 0.0174379 0.00720747
0.0272787 0.0167094 0.00753492
0.0275116 0.0177553 0.0071358
0.0270593 0.0169203 0.00736927
0.0334796 0.0167816 0.00752573
0.0334698 0.01839 0.00698866
0.0392753 0.017479 0.00717798
0.0333341 0.0181658 0.00696255
0.0272339 0.0172438 0.00725096
0.0272989 0.017318 0.00723456
0.0335104 0.0173083 0.00729492
0.0334743 0.0188346 0.00710195
0.0334242 0.0182017 0.00693827
0.0330189 0.0161011 0.00800719
0.0270296 0.0164951 0.00771825
0.0328854 0.0159521 0.0081794
0.0270168 0.0167848 0.00750826
0.0268914 0.0163183 0.00786274
0.0392536 0.0173864 0.00720886
0.0274572 0.0179153 0.00709799
0.0266399 0.0153841 0.00868913
0.027342 0.0177889 0.00712585
0.0271932 0.0168437 0.00742685
0.0276471 0.017977 0.00708606
0.0272875 0.0179488 0.00708806
0.0271826 0.0166893 0.00755421
0.0334893 0.0184849 0.00701397
0.0334569 0.0174568 0.00722698
0.027426 0.0186188 0.00694019
0.027368 0.0183307 0.00700048
0.0275572 0.0183942 0.00698813
0.0273622 0.0178844 0.00710396
0.0211096 0.0171327 0.00727499
0.0273482 0.0182354 0.00702349
0.0273825 0.0179798 0.00708207
0.0210879 0.0170448 0.00731736
0.0211313 0.0172207 0.00723261
0.0274027 0.0180753 0.00706018
0.0211721 0.0174055 0.0071745
0.0328075 0.0156915 0.00847265
0.0336103 0.017756 0.0070933
0.0273077 0.0180443 0.00706617
0.0328268 0.0157567 0.00839932
0.0332328 0.0165642 0.00761035
0.0211516 0.0173089 0.00719014
0.027471 0.0175641 0.00717964
0.0274369 0.0178198 0.00711988
0.0273043 0.0167837 0.00747307
0.027328 0.0181397 0.00704428
0.0276402 0.0175301 0.00718967
0.0275376 0.0182983 0.00701013
0.0275453 0.0174991 0.00719565
0.0335606 0.017156 0.00736432
0.0274066 0.0185225 0.00695906
0.0276124 0.0182339 0.00702602
0.0212335 0.0176956 0.00712919
0.0274626 0.0183625 0.0069943
0.0272672 0.0178534 0.00710995
0.0335489 0.0187671 0.00708937
0.0273447 0.0169344 0.00734795
0.0275319 0.0178507 0.00711391
0.0274977 0.0181061 0.00705421
0.0275178 0.018202 0.00703223
0.0275013 0.0185537 0.00695041
0.0275766 0.0184898 0.00696619
0.0274774 0.0180107 0.0070761
0.0275925 0.0181374 0.00704815
0.0276066 0.0177861 0.00712983
0.027445 0.0187152 0.00692166
0.0334337 0.0186443 0.00705572
0.0211926 0.0175022 0.0071594
0.0212684 0.0174384 0.00717248
0.027466 0.0170597 0.00729661
0.021254 0.0177923 0.00711408
0.021213 0.0175989 0.00714429
0.027423 0.0181707 0.00703829
0.0273872 0.0184263 0.00697853
0.0275724 0.0180416 0.00707013
0.0331098 0.0168688 0.00753898
0.027482 0.0184581 0.00697235
0.0269666 0.0162664 0.00790342
0.0276323 0.01833 0.00700397
0.0274446 0.0169649 0.00732011
0.0335626 0.0168339 0.00750642
0.0275205 0.0186503 0.0069314
0.0269877 0.0163446 0.00784321
0.0333887 0.0173608 0.0073541
0.0333505 0.0166785 0.0075653
0.0273964 0.0176288 0.00716368
0.0273247 0.016859 0.00741054
0.0332821 0.0169907 0.00749298

VERTICES 289 578
1 0
1 1
1 2
1 3
1 4
1 5
1 6
1 7
1 8
1 9
1 10
1 11
1 12
1 13
1 14
1 15
1 16
1 17
1 18
1 19
1 20
1 21
1 22
1 23
1 24
1 25
1 26
1 27
1 28
1 29
1 30
1 31
1 32
1 33
1 34
1 35
1 36
1 37
1 38
1 39
1 40
1 41
1 42
1 43
1 44
1 45
1 46
1 47
1 48
1 49
1 50
1 51
1 52
1 53
1 54
1 55
1 56
1 57
1 58
1 59
1 60
1 61
1 62
1 63
1 64
1 65
1 66
1 67
1 68
1 69
1 70
1 71
1 72
1 73
1 74
1 75
1 76
1 77
1 78
1 79
1 80
1 81
1 82
1 83
1 84
1 85
1 86
1 87
1 88
1 89
1 90
1 91
1 92
1 93
1 94
1 95
1 96
1 97
1 98
1 99
1 100
1 101
1 102
1 103
1 104
1 105
1 106
1 107
1 108
1 109
1 110
1 111
1 112
1 113
1 114
1 115
1 116
1 117
1 118
1 119
1 120
1 121
1 122
1 123
1 124
1 125
1 126
1 127
1 128
1 129
1 130
1 131
1 132
1 133
1 134
1 135
1 136
1 137
1 138
1 139
1 140
1 141
1 142
1 143
1 144
1 145
1 146
1 147
1 148
1 149
1 150
1 151
1 152
1 153
1 154
1 155
1 156
1 157
1 158
1 159
1 160
1 161
1 162
1 163
1 164
1 165
1 166
1 167
1 168
1 169
1 170
1 171
1 172
1 173
1 174
1 175
1 176
1 177
1 178
1 179
1 180
1 181
1 182
1 183
1 184
1 185
1 186
1 187
1 188
1 189
1 190
1 191
1 192
1 193
1 194
1 195
1 196
1 197
1 198
1 199
1 200
1 201
1 202
1 203
1 204
1 205
1 206
1 207
1 208
1 209
1 210
1 211
1 212
1 213
1 214
1 215
1 216
1 217
1 218
1 219
1 220
1 221
1 222
1 223
1 224
1 225
1 226
1 227
1 228
1 229
1 230
1 231
1 232
1 233
1 234
1 235
1 236
1 237
1 238
1 239
1 240
1 241
1 242
1 243
1 244
1 245
1 246
1 247
1 248
1 249
1 250
1 251
1 252
1 253
1 254
1 255
1 256
1 257
1 258
1 259
1 260
1 261
1 262
1 263
1 264
1 265
1 266
1 267
1 268
1 269
1 270
1 271
1 272
1 273
1 274
1 275
1 276
1 277
1 278
1 279
1 280
1 281
1 282
1 283
1 284
1 285
1 286
1 287
1 288

POINT_DATA 289
SCALARS id int 1
LOOKUP_TABLE default
1
2
3
4
5
6
7
8
9
10
11
12
13
14
15
16
17
18
19
20
21
22
24
25
26
27
29
30
31
32
33
34
35
36
37
38
39
40
41
42
43
44
45
46
47
48
49
50
52
53
54
55
56
57
58
59
60
61
62
63
64
65
66
67
68
69
70
71
72
73
74
75
76
77
78
79
80
81
82
83
84
85
86
87
88
89
90
91
92
93
94
95
96
98
99
100
101
102
103
104
105
106
107
108
109
110
111
112
113
114
115
116
117
118
119
120
121
122
123
124
125
126
127
128
129
130
131
132
133
134
135
136
137
138
139
140
141
142
144
145
146
147
148
149
150
152
153
154
155
156
157
158
159
160
161
162
164
165
166
167
168
169
170
171
172
173
174
175
176
177
178
179
180
181
182
183
184
185
186
187
188
189
190
191
192
193
194
195
196
197
198
199
200
201
202
203
204
205
206
207
208
209
210
211
213
214
215
216
217
218
219
220
221
222
223
224
225
226
227
228
229
230
231
232
233
234
235
236
237
238
239
241
242
243
244
245
246
247
248
249
250
251
252
253
254
255
256
257
258
259
260
261
262
263
264
265
267
268
269
270
271
272
273
274
275
276
277
278
279
280
281
282
283
284
285
286
287
288
289
290
292
293
294
295
296
297
298
299
300

SCALARS type int 1
LOOKUP_TABLE default
1
1
1
1
1
1
1
1
1
1
1
1
1
1
1
1
1
1
1
1
1
1
1
1
1
1
1
1
1
1
1
1
1
1
1
1
1
1
1
1
1
1
1
1
1
1
1
1
1
1
1
1
1
1
1
1
1
1
1
1
1
1
1
1
1
1
1
1
1
1
1
1
1
1
1
1
1
1
1
1
1
1
1
1
1
1
1
1
1
1
1
1
1
1
1
1
1
1
1
1
1
1
1
1
1
1
1
1
1
1
1
1
1
1
1
1
1
1
1
1
1
1
1
1
1
1
1
1
1
1
1
1
1
1
1
1
1
1
1
1
1
1
1
1
1
1
1
1
1
1
1
1
1
1
1
1
1
1
1
1
1
1
1
1
1
1
1
1
1
1
1
1
1
1
1
1
1
1
1
1
1
1
1
1
1
1
1
1
1
1
1
1
1
1
1
1
1
1
1
1
1
1
1
1
1
1
1
1
1
1
1
1
1
1
1
1
1
1
1
1
1
1
1
1
1
1
1
1
1
1
1
1
1
1
1
1
1
1
1
1
1
1
1
1
1
1
1
1
1
1
1
1
1
1
1
1
1
1
1
1
1
1
1
1
1
1
1
1
1
1
1
1
1
1
1
1
1
1
1
1
1
1
1
1
1
1
1
1
1

SCALARS radius float 1
LOOKUP_TABLE default
5e-05
5e-05
5e-05
5e-05
5e-05
5e-05
5e-05
5e-05
5e-05
5e-05
5e-05
5e-05
5e-05
5e-05
5e-05
5e-05
5e-05
5e-05
5e-05
5e-05
5e-05
5e-05
5e-05
5e-05
5e-05
5e-05
5e-05
5e-05
5e-05
5e-05
5e-05
5e-05
5e-05
5e-05
5e-05
5e-05
5e-05
5e-05
5e-05
5e-05
5e-05
5e-05
5e-05
5e-05
5e-05
5e-05
5e-05
5e-05
5e-05
5e-05
5e-05
5e-05
5e-05
5e-05
5e-05
5e-05
5e-05
5e-05
5e-05
5e-05
5e-05
5e-05
5e-05
5e-05
5e-05
5e-05
5e-05
5e-05
5e-05
5e-05
5e-05
5e-05
5e-05
5e-05
5e-05
5e-05
5e-05
5e-05
5e-05
5e-05
5e-05
5e-05
5e-05
5e-05
5e-05
5e-05
5e-05
5e-05
5e-05
5e-05
5e-05
5e-05
5e-05
5e-05
5e-05
5e-05
5e-05
5e-05
5e-05
5e-05
5e-05
5e-05
5e-05
5e-05
5e-05
5e-05
5e-05
5e-05
5e-05
5e-05
5e-05
5e-05
5e-05
5e-05
5e-05
5e-05
5e-05
5e-05
5e-05
5e-05
5e-05
5e-05
5e-05
5e-05
5e-05
5e-05
5e-05
5e-05
5e-05
5e-05
5e-05
5e-05
5e-05
5e-05
5e-05
5e-05
5e-05
5e-05
5e-05
5e-05
5e-05
5e-05
5e-05
5e-05
5e-05
5e-05
5e-05
5e-05
5e-05
5e-05
5e-05
5e-05
5e-05
5e-05
5e-05
5e-05
5e-05
5e-05
5e-05
5e-05
5e-05
5e-05
5e-05
5e-05
5e-05
5e-05
5e-05
5e-05
5e-05
5e-05
5e-05
5e-05
5e-05
5e-05
5e-05
5e-05
5e-05
5e-05
5e-05
5e-05
5e-05
5e-05
5e-05
5e-05
5e-05
5e-05
5e-05
5e-05
5e-05
5e-05
5e-05
5e-05
5e-05
5e-05
5e-05
5e-05
5e-05
5e-05
5e-05
5e-05
5e-05
5e-05
5e-05
5e-05
5e-05
5e-05
5e-05
5e-05
5e-05
5e-05
5e-05
5e-05
5e-05
5e-05
5e-05
5e-05
5e-05
5e-05
5e-05
5e-05
5e-05
5e-05
5e-05
5e-05
5e-05
5e-05
5e-05
5e-05
5e-05
5e-05
5e-05
5e-05
5e-05
5e-05
5e-05
5e-05
5e-05
5e-05
5e-05
5e-05
5e-05
5e-05
5e-05
5e-05
5e-05
5e-05
5e-05
5e-05
5e-05
5e-05
5e-05
5e-05
5e-05
5e-05
5e-05
5e-05
5e-05
5e-05
5e-05
5e-05
5e-05
5e-05
5e-05
5e-05
5e-05
5e-05
5e-05
5e-05
5e-05
5e-05
5e-05
5e-05
5e-05
5e-05
5e-05
5e-05
5e-05
5e-05
5e-05
5e-05
5e-05
5e-05
5e-05
5e-05
5e-05
5e-05
5e-05
5e-05
5e-05

SCALARS mass float 1
LOOKUP_TABLE default
1.46608e-10
1.46608e-10
1.46608e-10
1.46608e-10
1.46608e-10
1.46608e-10
1.46608e-10
1.46608e-10
1.46608e-10
1.46608e-10
1.46608e-10
1.46608e-10
1.46608e-10
1.46608e-10
1.46608e-10
1.46608e-10
1.46608e-10
1.46608e-10
1.46608e-10
1.46608e-10
1.46608e-10
1.46608e-10
1.46608e-10
1.46608e-10
1.46608e-10
1.46608e-10
1.46608e-10
1.46608e-10
1.46608e-10
1.46608e-10
1.46608e-10
1.46608e-10
1.46608e-10
1.46608e-10
1.46608e-10
1.46608e-10
1.46608e-10
1.46608e-10
1.46608e-10
1.46608e-10
1.46608e-10
1.46608e-10
1.46608e-10
1.46608e-10
1.46608e-10
1.46608e-10
1.46608e-10
1.46608e-10
1.46608e-10
1.46608e-10
1.46608e-10
1.46608e-10
1.46608e-10
1.46608e-10
1.46608e-10
1.46608e-10
1.46608e-10
1.46608e-10
1.46608e-10
1.46608e-10
1.46608e-10
1.46608e-10
1.46608e-10
1.46608e-10
1.46608e-10
1.46608e-10
1.46608e-10
1.46608e-10
1.46608e-10
1.46608e-10
1.46608e-10
1.46608e-10
1.46608e-10
1.46608e-10
1.46608e-10
1.46608e-10
1.46608e-10
1.46608e-10
1.46608e-10
1.46608e-10
1.46608e-10
1.46608e-10
1.46608e-10
1.46608e-10
1.46608e-10
1.46608e-10
1.46608e-10
1.46608e-10
1.46608e-10
1.46608e-10
1.46608e-10
1.46608e-10
1.46608e-10
1.46608e-10
1.46608e-10
1.46608e-10
1.46608e-10
1.46608e-10
1.46608e-10
1.46608e-10
1.46608e-10
1.46608e-10
1.46608e-10
1.46608e-10
1.46608e-10
1.46608e-10
1.46608e-10
1.46608e-10
1.46608e-10
1.46608e-10
1.46608e-10
1.46608e-10
1.46608e-10
1.46608e-10
1.46608e-10
1.46608e-10
1.46608e-10
1.46608e-10
1.46608e-10
1.46608e-10
1.46608e-10
1.46608e-10
1.46608e-10
1.46608e-10
1.46608e-10
1.46608e-10
1.46608e-10
1.46608e-10
1.46608e-10
1.46608e-10
1.46608e-10
1.46608e-10
1.46608e-10
1.46608e-10
1.46608e-10
1.46608e-10
1.46608e-10
1.46608e-10
1.46608e-10
1.46608e-10
1.46608e-10
1.46608e-10
1.46608e-10
1.46608e-10
1.46608e-10
1.46608e-10
1.46608e-10
1.46608e-10
1.46608e-10
1.46608e-10
1.46608e-10
1.46608e-10
1.46608e-10
1.46608e-10
1.46608e-10
1.46608e-10
1.46608e-10
1.46608e-10
1.46608e-10
1.46608e-10
1.46608e-10
1.46608e-10
1.46608e-10
1.46608e-10
1.46608e-10
1.46608e-10
1.46608e-10
1.46608e-10
1.46608e-10
1.46608e-10
1.46608e-10
1.46608e-10
1.46608e-10
1.46608e-10
1.46608e-10
1.46608e-10
1.46608e-10
1.46608e-10
1.46608e-10
1.46608e-10
1.46608e-10
1.46608e-10
1.46608e-10
1.46608e-10
1.46608e-10
1.46608e-10
1.46608e-10
1.46608e-10
1.46608e-10
1.46608e-10
1.46608e-10
1.46608e-10
1.46608e-10
1.46608e-10
1.46608e-10
1.46608e-10
1.46608e-10
1.46608e-10
1.46608e-10
1.46608e-10
1.46608e-10
1.46608e-10
1.46608e-10
1.46608e-10
1.46608e-10
1.46608e-10
1.46608e-10
1.46608e-10
1.46608e-10
1.46608e-10
1.46608e-10
1.46608e-10
1.46608e-10
1.46608e-10
1.46608e-10
1.46608e-10
1.46608e-10
1.46608e-10
1.46608e-10
1.46608e-10
1.46608e-10
1.46608e-10
1.46608e-10
1.46608e-10
1.46608e-10
1.46608e-10
1.46608e-10
1.46608e-10
1.46608e-10
1.46608e-10
1.46608e-10
1.46608e-10
1.46608e-10
1.46608e-10
1.46608e-10
1.46608e-10
1.46608e-10
1.46608e-10
1.46608e-10
1.46608e-10
1.46608e-10
1.46608e-10
1.46608e-10
1.46608e-10
1.46608e-10
1.46608e-10
1.46608e-10
1.46608e-10
1.46608e-10
1.46608e-10
1.46608e-10
1.46608e-10
1.46608e-10
1.46608e-10
1.46608e-10
1.46608e-10
1.46608e-10
1.46608e-10
1.46608e-10
1.46608e-10
1.46608e-10
1.46608e-10
1.46608e-10
1.46608e-10
1.46608e-10
1.46608e-10
1.46608e-10
1.46608e-10
1.46608e-10
1.46608e-10
1.46608e-10
1.46608e-10
1.46608e-10
1.46608e-10
1.46608e-10
1.46608e-10
1.46608e-10
1.46608e-10
1.46608e-10
1.46608e-10
1.46608e-10
1.46608e-10
1.46608e-10
1.46608e-10
1.46608e-10
1.46608e-10
1.46608e-10
1.46608e-10
1.46608e-10

VECTORS velocity float
0.00433741 -0.000245679 4.85038e-05
0.00478486 -9.93204e-05 0.000259559
0.00479785 -0.000114627 0.000267757
0.00482377 -9.4226e-05 0.000261881
0.00433696 -0.000213321 1.12297e-05
0.00444592 -9.7288e-05 -6.75301e-05
0.00480304 -0.000129281 0.000267879
0.00432861 -0.000209644 8.18104e-06
0.00451408 -2.62673e-05 0.00019554
0.00449342 -0.000132105 0.000195864
0.00479211 -0.000116745 0.000269565
0.00442022 -1.09014e-05 0.000186252
0.00480673 -0.000135527 0.000272416
0.00438955 -0.000181473 0.000222982
0.00481179 -0.000107614 0.000265024
0.00442351 -0.000177748 0.000236497
0.00442349 -0.00017563 9.11754e-05
0.00487645 -9.97118e-05 0.000235608
0.00432489 -0.000226478 2.78551e-05
0.00477975 -0.000109119 0.000268066
0.00435006 -0.000217195 1.32814e-05
0.00480049 -0.000115567 0.00026803
0.00487249 -9.86911e-05 0.000235099
0.00479675 -0.000116457 0.000267623
0.00486745 -0.000196182 -3.6294e-05
0.00488496 -0.000341918 0.000132579
0.00432579 -0.000213961 1.29529e-05
0.00448573 -6.47305e-05 4.12675e-06
0.00467119 -0.000115811 0.000261019
0.00482406 -0.000105272 0.000266174
0.00458783 -0.000149011 -4.57854e-05
0.00481432 -0.000126465 0.000276024
0.00479465 -0.000118416 0.000270064
0.00454384 -3.01987e-05 0.000198042
0.00460078 -7.98194e-05 0.000244203
0.00479275 -0.000127222 0.000274248
0.00487411 -0.000154405 9.14383e-05
0.00480123 -0.000124448 0.00026673
0.00438797 -0.000213918 1.41632e-05
0.00479562 -0.000123072 0.000256848
0.00481112 -0.000107421 0.000266312
0.0048225 -9.89972e-05 0.000263004
0.00483428 -0.000205992 -3.0206e-05
0.0048772 -0.000202835 -3.22439e-05
0.00436507 -0.000226649 3.04617e-05
0.00478614 -0.000112536 0.0002672
0.00485823 -0.000193977 -3.40642e-05
0.00486476 3.68547e-05 0.000204648
0.00491861 -0.000313665 0.000138248
0.00488689 -0.00010164 0.000235654
0.0044131 -0.000198581 0.000100977
0.00434649 -0.000170865 0.000216626
0.00479846 -0.000118061 0.000270307
0.0048464 -0.000201792 -3.2738e-05
0.00481527 -0.000355564 0.00015737
0.00442575 -1.13479e-05 0.000186719
0.00478103 -0.000100508 0.000261757
0.00435488 -0.000227946 1.6035e-05
0.00479798 -0.000112916 0.000269902
0.00481727 -0.000110499 0.000267926
0.00488162 -0.000100812 0.000236619
0.00432539 -0.000207885 6.6603e-06
0.00491785 -0.000307676 0.000136128
0.00478668 -0.000112184 0.000268204
0.00483901 -0.000327091 0.000132725
0.00482008 -0.000111651 0.000268171
0.0045733 -3.47517e-05 0.000200846
0.00433811 -0.000160348 0.000207173
0.00448338 -2.24049e-05 0.000192806
0.00439197 -0.00021152 5.34178e-05
0.00478179 -0.000100455 0.000261968
0.00444468 -0.000188916 0.00028842
0.00488585 -9.69784e-05 0.000235166
0.00428001 -0.000119475 9.40567e-05
0.00434011 -0.000151316 0.000200475
0.00467964 -0.000316978 9.69868e-05
0.0045657 5.38318e-05 4.49837e-05
0.00479588 -0.000323835 0.000137012
0.00486717 -0.000346535 0.000130064
0.00432578 -0.000116567 0.000229286
0.00488747 -0.000102071 0.000236635
0.00433352 -0.000145504 0.000197452
0.00457944 -5.66619e-05 0.00025034
0.00448135 -2.48151e-05 0.00019362
0.00449521 -1.56194e-05 0.000202869
0.00466787 5.47983e-05 0.000187308
0.0049553 0.000159378 0.000156169
0.00482895 -0.00010426 0.000265064
0.00464552 0.00012584 0.000155477
0.00452162 -0.00010013 4.63329e-05
0.00454688 -1.5515e-05 0.000220827
0.00437192 -0.00013315 4.52723e-05
0.00458694 -5.56566e-05 -3.85162e-05
0.00459225 -0.000170751 1.39674e-05
0.00485737 -0.000378609 0.000174975
0.00478841 -8.62703e-05 0.000256278
0.00481439 -0.000319561 0.000128388
0.00483268 -0.00010553 0.000266231
0.0047956 -0.000118462 0.00026971
0.00487769 -0.000335359 0.000139236
0.00434581 -0.00015497 0.000203254
0.00483518 -0.00010999 0.000268249
0.00433398 -0.000163121 0.000209237
0.00439923 -0.000218983 2.49395e-05
0.00482109 -0.000107291 0.000266668
0.00452237 -4.05046e-05 0.000239082
0.00447664 -0.000155766 2.88268e-05
0.00484905 -0.000331697 0.000120571
0.00452697 -4.20068e-05 0.000227584
0.00480856 -0.000347522 0.000140853
0.00480882 -0.000114409 0.000269235
0.00478747 -0.000105771 0.000264936
0.00430846 -0.000204466 3.99046e-06
0.00484129 -0.000330562 0.000137416
0.00442362 1.82287e-05 0.000244087
0.00478798 -0.000114786 0.000268311
0.00428582 -0.000202054 2.43633e-06
0.00467215 3.80879e-05 -9.66997e-05
0.00465956 -0.000325315 0.000136358
0.00458434 -9.51987e-05 5.34975e-05
0.00434149 -0.000300987 0.000157342
0.00482248 -0.000102822 0.000264645
0.00457768 -0.000255029 0.000140585
0.00462752 -5.72248e-06 0.000214268
0.00489009 -0.000317113 0.000133446
0.00483059 -0.000104647 0.000265928
0.00491584 -0.000303967 0.000134679
0.00478556 -0.000132753 0.000276131
0.00482244 -0.000128974 0.000276764
0.00482395 -0.000106987 0.000266067
0.00436491 -0.000239664 5.62661e-05
0.00432102 -0.000161936 0.000212437
0.00455906 -0.000114139 -1.73844e-05
0.00458337 5.20392e-05 0.000183582
0.00482645 -0.00010163 0.000260669
0.00456379 -0.000135836 -9.91664e-06
0.00433235 -0.000144496 0.000195862
0.00482963 -0.000106577 0.00026624
0.00482778 -0.000109512 0.000267176
0.00473834 -9.03275e-05 0.000260281
0.00484166 -6.25468e-05 0.00024811
0.00434366 -0.000158133 0.000205759
0.00483333 -0.000107257 0.000266633
0.00454195 -0.000106588 5.201e-05
0.00425564 -0.000196103 -2.75556e-06
0.00440092 -0.000265023 0.000117234
0.00424066 -0.000194666 -3.48208e-06
0.00483416 -0.000344094 0.000140828
0.00477534 -0.000318947 0.000123244
0.00492174 -0.000315309 0.00013955
0.00453818 -0.000170394 3.14987e-06
0.0049031 -0.000322161 0.000135625
0.00431243 -0.000217823 1.80618e-05
0.00436913 -0.000226718 0.000107811
0.00431438 -0.00013715 3.52714e-05
0.00491516 -0.000310978 0.000134302
0.0041743 -0.000139765 0.000344735
0.00485998 -0.000323673 0.000136537
0.00448827 -0.000133246 0.000193164
0.00481584 -0.000314411 0.000124825
0.00456927 -0.000164145 -4.01931e-05
0.00441006 -0.000152946 9.11955e-05
0.00481151 -0.00034078 0.000139084
0.00471562 0.000172152 -0.000164047
0.00444866 -0.000290008 0.000123809
0.00453897 -0.00012204 -8.90449e-06
0.00444471 -0.000237033 0.000110881
0.00492147 -0.000306025 0.00011328
0.00489667 -0.000339792 0.000138967
0.00487775 -0.000315342 0.000134689
0.00486517 -0.000321659 0.000135997
0.00478892 -0.000352372 0.000141309
0.00454209 -9.65618e-05 0.000111446
0.00469329 -0.000330464 0.000140663
0.00456722 -9.54176e-05 0.000251429
0.00434399 -0.000242676 0.00011094
0.00478701 -0.000104485 0.000262016
0.00437514 -0.000260643 0.000115726
0.0047245 -0.000313047 0.000112794
0.00460244 -3.99261e-05 0.000203811
0.00457036 -7.59311e-05 -3.39228e-05
0.004784 -0.000115862 0.000268809
0.00438236 -0.000272086 0.000118199
0.00441955 -1.91371e-05 6.72404e-05
0.00437358 -0.00026873 0.000116874
0.00455104 -0.000123023 -8.58144e-06
0.00428846 -0.00020922 1.02462e-05
0.0043628 -0.000303053 0.000125387
0.00470888 -0.000295529 0.000110981
0.00429968 -0.000211776 1.2373e-05
0.00480369 -0.00032606 0.000135234
0.00471799 5.99881e-05 4.55842e-05
0.00468893 -0.000317654 0.000103964
0.00448354 -0.000204398 0.000103534
0.00481318 -0.000213833 0.000110277
0.00479547 -0.000152283 0.000284092
0.00480476 -0.000206347 0.000108504
0.00484884 -0.000341846 0.000137599
0.00484228 -0.000326948 0.000136701
0.00483665 -0.000330903 0.000136474
0.00438844 -0.0002786 0.000119791
0.0048842 -0.000341021 0.000125227
0.00478796 -9.23637e-05 0.000258836
0.00443919 -6.79904e-05 5.31228e-05
0.00487213 -0.000100424 0.000235708
0.00455734 -0.000160431 -5.27276e-05
0.00486024 -0.000344311 0.00014054
0.00487159 -0.000326117 0.000137098
0.00482299 -8.72185e-05 0.000258327
0.00423518 -0.000143244 0.000345157
0.00457008 -0.000119439 4.44868e-05
0.00431468 -0.000241919 4.23299e-05
0.00468263 -0.000328754 0.000138885
0.00428922 -0.000209871 1.07064e-05
0.00480416 -0.000319549 0.000117347
0.00439582 -0.000154152 0.000204158
0.00488047 -9.61646e-05 0.000234563
0.00443485 -0.000273533 0.000119456
0.00439325 -0.000177319 0.00023459
0.00443024 -0.000271522 0.000118716
0.00461256 -0.000168709 9.57474e-06
0.00445318 -0.000311494 0.000128006
0.00443397 -0.000267695 0.000118283
0.00482133 -0.000316077 0.000125925
0.00435323 -7.80825e-05 5.31952e-05
0.00501402 0.000226025 0.000128037
0.00438852 -0.00025833 -7.61746e-05
0.00432907 -0.000276344 0.000118365
0.00416086 -0.000270507 0.000114581
0.00442566 -0.000264362 0.000116953
0.00472417 -0.000992962 0.000324918
0.00448534 -0.000283771 0.000120152
0.00444262 -0.000269263 0.000118499
0.00472104 -0.000992296 0.000324719
0.0047273 -0.000993627 0.000325156
0.00445998 -0.000274672 0.000119599
0.00425974 -0.000900547 0.000295569
0.00423058 -0.000203074 6.35901e-06
0.00478673 0.000160877 -0.000159302
0.00445176 -0.00026871 0.000117691
0.00428944 -0.000211216 1.22602e-05
0.00477761 -0.00011995 0.000270867
0.0042505 -0.000898739 0.000294904
0.00441246 -0.000158855 9.23827e-05
0.0044112 -0.000256438 0.000115119
0.00487678 -0.000342115 0.000145035
0.00446645 -0.000275664 0.000119548
0.0046619 0.000131996 2.80989e-05
0.0044592 -8.26799e-05 7.58746e-05
0.00470629 4.21981e-05 4.95451e-05
0.00483796 -7.95858e-05 0.000254915
0.00433564 -0.000267891 8.08465e-05
0.00443379 -0.000105437 8.01107e-05
0.00428726 -0.000906015 0.00029747
0.00431417 -0.000263797 0.00011711
0.00441986 -0.000274304 0.000119652
0.00425824 -0.000286517 -7.20478e-06
0.00491261 -0.000318838 0.000140694
0.00442366 -0.000286715 0.000122088
0.00447216 -0.000282521 0.000121212
0.00450993 -0.000184539 9.9684e-05
0.00431682 -0.000298644 0.00014453
0.00430626 -0.000260961 0.000109658
0.00445755 -0.000278408 0.00012094
0.00446519 -0.000228989 0.000108818
0.00439846 -0.0003152 0.000128633
0.00429015 -0.000309868 -7.69336e-05
0.00430041 -0.000114017 9.88877e-05
0.00426911 -0.000902401 0.000296246
0.00426904 -0.000902516 0.000296246
0.00494621 -0.000292636 0.000130557
0.00429637 -0.000907831 0.000298073
0.00427819 -0.000904207 0.000296817
0.0044754 -0.000282406 0.00012153
0.00430633 -0.000290395 0.000125089
0.00446271 -0.000290268 0.000124241
0.00480007 -0.000123529 0.000269447
0.00428317 -0.000254874 0.000112888
0.00432568 -0.000216353 0.00024947
0.004452 -4.95929e-06 5.69488e-05
0.0049404 -0.000298153 0.000102533
0.00476861 -9.08917e-05 0.000257067
0.00439963 -0.000213165 -0.00011296
0.00455597 -0.000297966 0.000120482
0.00481343 -8.07056e-05 0.000261058
0.00478271 -0.000106181 0.000264611
0.00436998 -0.000219737 0.000106033
0.00491166 -0.000336619 0.000143938
0.00479084 -9.71604e-05 0.000271734

VECTORS force float
-2.15458e-10 -2.04067e-11 3.47361e-11
-1.28332e-11 3.60026e-11 -2.30621e-11
1.34105e-11 2.75307e-11 -1.07187e-12
1.60082e-10 1.0869e-10 -5.59759e-11
5.65367e-11 -4.1951e-11 6.05815e-11
-2.36497e-10 6.49852e-10 -3.32472e-10
2.28379e-11 -1.12477e-10 -3.54712e-11
9.15948e-11 -1.17502e-11 1.08931e-11
-5.88768e-12 -2.01667e-11 1.89911e-12
1.55767e-10 -5.50979e-11 -5.14152e-11
-1.92562e-11 1.0732e-10 -9.33957e-11
-1.47654e-11 -1.22432e-11 2.82629e-12
-3.10047e-11 -1.56784e-10 1.71614e-11
4.16131e-12 -2.18527e-11 -7.85887e-11
-1.72346e-11 6.87558e-11 -1.40622e-11
1.21366e-11 1.69543e-11 -5.26317e-11
2.39926e-10 -7.75424e-11 -2.05497e-10
-2.67906e-12 -9.43892e-12 8.64329e-12
-3.64879e-11 -5.85077e-11 6.22367e-11
6.66907e-11 8.87007e-12 -9.07148e-11
-7.18898e-11 -1.61791e-10 1.5419e-10
-1.68251e-11 9.09025e-11 -2.29968e-11
-9.4652e-12 -7.19549e-12 3.55133e-13
2.82204e-12 4.02439e-11 -4.72762e-11
4.67776e-11 8.01997e-12 1.99082e-11
3.49927e-11 4.52188e-11 -5.23796e-11
6.85066e-11 2.02238e-10 -2.21988e-10
1.54013e-10 -6.10506e-10 -3.8237e-10
1.34638e-10 -8.46619e-11 7.86034e-11
-2.20412e-11 2.7428e-11 -1.72369e-11
1.34904e-10 2.81976e-10 -1.93159e-10
-1.4071e-10 -2.54743e-10 1.86125e-10
-1.49243e-10 -3.14672e-10 1.12611e-10
-4.81716e-12 -5.53717e-12 5.14407e-12
1.96296e-10 -3.97179e-10 4.31982e-11
5.09135e-11 -7.9014e-11 4.56397e-11
-4.736e-12 3.32715e-11 -7.80818e-12
2.94454e-12 -2.03459e-11 -5.17974e-11
-1.96731e-10 2.27543e-10 -2.17449e-10
-2.98726e-11 7.23196e-11 -1.14648e-11
5.96044e-11 5.21937e-11 -3.018e-11
4.35045e-11 -6.09768e-11 2.76316e-11
-9.89973e-11 2.76671e-11 7.72797e-11
-1.26893e-11 2.82848e-11 1.19536e-12
-2.39969e-10 -2.90828e-11 8.48921e-11
1.57016e-11 1.31603e-10 -1.0501e-11
-1.10253e-10 -4.81553e-11 1.38708e-11
-1.2236e-10 1.32432e-10 -6.35269e-11
-1.1786e-10 -1.81012e-10 5.14831e-11
7.44066e-12 3.7712e-12 -2.59019e-11
1.37381e-10 -2.86659e-10 -2.0148e-11
8.10068e-12 3.88022e-11 -3.46012e-11
-2.57319e-11 1.81915e-10 -8.07488e-11
-3.33769e-11 -1.44128e-10 4.525e-11
1.34493e-10 4.52847e-11 -5.06649e-12
-9.42342e-12 -5.9206e-12 2.18385e-12
5.20193e-11 -4.37742e-12 -6.72766e-12
-1.3283e-10 -1.25759e-10 1.45522e-10
-1.17426e-11 6.38625e-11 -7.70524e-11
9.29333e-11 4.13963e-11 9.09132e-13
2.90433e-12 -9.79933e-12 5.16715e-12
1.23882e-10 -2.48355e-12 4.89977e-12
-1.945e-11 -8.05685e-11 2.94978e-12
-3.02655e-11 5.25161e-11 9.22682e-11
1.38877e-10 1.04465e-10 -6.74756e-11
-8.32204e-12 5.40704e-11 -2.17672e-11
4.52383e-12 1.17056e-11 -4.83011e-12
3.28443e-12 6.46986e-11 -4.35286e-11
-5.45145e-12 -1.93086e-11 7.35775e-12
1.23635e-10 -3.19414e-10 -3.14909e-10
-3.71556e-11 4.60745e-11 3.03884e-12
4.03579e-10 3.10749e-10 3.92977e-11
-8.55484e-13 -1.0418e-11 5.2051e-12
8.09759e-11 1.06556e-10 1.69582e-11
3.15197e-12 -2.23259e-11 2.14263e-11
1.40482e-10 -6.77141e-11 3.45515e-11
3.59043e-11 2.20068e-11 -7.78633e-11
1.00585e-10 7.88285e-12 -1.50285e-11
1.43873e-10 8.64492e-11 -5.69548e-11
-3.13634e-11 -5.85124e-11 2.26398e-11
3.80085e-11 -2.32783e-11 -3.09852e-12
-5.56347e-12 -3.25295e-11 4.17544e-11
-3.37007e-10 -1.26521e-10 -6.40933e-11
1.58718e-12 -1.22607e-11 4.03237e-12
-2.23771e-10 -1.60912e-10 2.59167e-11
-1.25114e-10 1.00336e-10 -3.07308e-11
-1.82298e-10 4.44834e-11 -2.99042e-11
5.47096e-12 -2.73693e-11 2.98123e-12
-5.47766e-11 2.08922e-10 -1.36994e-10
1.80818e-11 -5.93268e-11 -8.67319e-12
-1.76392e-10 -2.64225e-10 1.54997e-10
1.02013e-10 3.60997e-11 6.63875e-11
4.95158e-11 -1.60593e-10 1.2855e-10
1.19736e-11 -7.70036e-11 5.83615e-11
-4.56409e-11 1.41738e-10 -1.31106e-10
2.54059e-11 -3.87027e-11 -3.98464e-12
-2.40835e-12 -1.43879e-10 1.16546e-10
-1.86315e-11 -4.24028e-11 1.57274e-11
-9.3208e-11 1.1676e-10 -4.73537e-11
-1.5063e-10 -1.47349e-10 2.63358e-11
-4.99877e-12 6.67395e-12 -2.71033e-13
-4.54483e-11 -1.14486e-10 5.17141e-11
6.06931e-13 7.14396e-11 -3.44656e-11
6.1855e-11 -1.04515e-10 2.9161e-11
3.97551e-11 1.89554e-11 -1.89787e-12
-1.21298e-10 -1.59834e-10 -7.8684e-11
7.56498e-11 6.67003e-12 -9.09754e-11
2.52891e-10 1.40526e-10 5.2318e-11
1.64611e-11 -5.47043e-12 4.94666e-11
5.82315e-11 1.65601e-10 -2.61201e-11
7.0426e-11 3.538e-11 -1.89388e-11
-1.38435e-11 3.45205e-11 -1.66127e-11
-5.05195e-11 1.66003e-11 -1.08127e-11
2.65062e-11 2.38801e-11 1.02322e-12
8.78331e-10 2.70129e-11 1.68596e-09
1.30822e-11 4.529e-11 -1.02234e-11
-1.79799e-10 3.23038e-11 -2.80273e-11
1.09889e-10 -1.47512e-10 1.24686e-10
-3.77286e-11 -9.30422e-11 9.18638e-11
2.01443e-10 7.09878e-11 7.49415e-11
8.64912e-10 7.21482e-11 -2.5944e-10
3.67609e-11 1.49856e-11 1.43955e-11
-2.77879e-11 5.44258e-11 1.34667e-10
-1.57461e-10 1.80857e-11 -7.20732e-11
2.1315e-10 9.31757e-11 -4.70043e-11
2.2915e-12 -4.81803e-12 -8.60447e-13
2.51306e-11 -7.10359e-11 2.2549e-11
1.99714e-10 1.40056e-10 -5.46126e-11
3.92721e-11 -2.85061e-10 2.13672e-10
6.32445e-11 6.3879e-11 -2.45817e-11
-6.83352e-11 -1.30786e-10 3.41551e-11
1.38312e-11 5.64888e-11 -2.5358e-11
-4.13154e-11 2.14917e-11 -7.74448e-11
-1.77554e-10 -6.13094e-11 1.0123e-10
2.08398e-10 1.51334e-10 -8.26019e-11
-2.17259e-11 -5.76305e-11 9.91624e-12
-4.90074e-11 -8.39528e-11 -1.46539e-11
-3.43241e-11 -4.76902e-11 1.84441e-11
2.81419e-11 -8.21502e-11 3.64119e-11
-2.88727e-10 -7.25472e-11 2.39152e-11
3.6882e-12 -2.64494e-11 7.53063e-12
1.91377e-11 3.26868e-11 -2.87862e-11
-4.204e-11 -7.4254e-11 3.7493e-11
9.30713e-11 -2.02927e-10 -1.15434e-10
-3.19232e-11 -1.27216e-11 1.53087e-11
1.05768e-10 2.72358e-11 -6.44629e-13
2.9443e-11 -1.0857e-10 1.16713e-10
1.37074e-10 1.71885e-10 -4.71207e-11
5.46653e-12 -3.24316e-11 -6.46774e-12
5.37093e-11 -7.88618e-11 1.52926e-11
4.10344e-11 7.81155e-12 6.37507e-11
-9.6648e-11 -1.3198e-10 3.71836e-11
1.64119e-10 -3.54312e-11 3.47823e-11
1.54928e-10 5.9884e-11 -7.25634e-12
2.68382e-10 4.53973e-11 -1.93821e-10
-2.42523e-10 -1.65509e-10 4.61631e-11
-2.25675e-11 8.21909e-11 -8.18156e-12
2.49261e-10 -8.63033e-11 2.4062e-11
7.8432e-11 -4.09355e-10 2.35582e-11
-1.98181e-11 -2.03607e-10 1.84004e-10
5.18211e-11 -7.6324e-12 2.48641e-11
3.79554e-10 3.66696e-10 -7.95199e-11
1.52996e-10 1.16035e-10 -1.51128e-11
1.1531e-10 -1.2801e-11 4.58599e-11
2.97088e-11 3.93076e-11 -1.50853e-11
8.04139e-11 1.20186e-11 1.54667e-12
2.88599e-10 1.4353e-10 -2.81069e-11
2.39008e-10 -1.32286e-10 2.9733e-11
-5.91805e-11 5.51195e-11 -2.25453e-11
5.56684e-10 -1.46411e-10 4.18279e-11
3.8214e-10 -1.20304e-10 2.88213e-11
6.84503e-11 1.56533e-10 -2.18681e-11
5.65863e-11 -3.72043e-11 2.453e-11
2.48016e-10 -1.45999e-10 1.45171e-10
7.48595e-11 -3.08917e-10 1.06875e-10
1.31346e-10 -6.67788e-11 1.22675e-11
-6.51301e-11 -5.08551e-11 9.10435e-12
2.60119e-10 6.4902e-12 -1.21481e-11
2.39053e-10 -9.9668e-11 4.76133e-11
1.28884e-11 2.89052e-11 -8.80822e-12
3.85425e-11 -6.23073e-11 2.87252e-11
2.19904e-11 1.01423e-11 -1.02218e-11
1.09779e-10 1.26879e-10 -1.8975e-11
1.29501e-10 8.14612e-11 2.51116e-11
-7.61778e-11 -4.37447e-11 2.3031e-11
-2.9138e-11 -4.18833e-11 9.62119e-12
9.7623e-11 6.65818e-11 -7.59275e-11
2.10534e-11 1.0415e-10 -2.42007e-11
2.80724e-10 -2.73813e-10 2.23343e-10
-1.15232e-10 7.0352e-11 -7.24968e-11
-1.09238e-10 -2.09341e-10 1.92366e-10
2.11544e-10 -1.99662e-10 4.88764e-11
1.62122e-12 3.46999e-11 1.19066e-10
-7.5284e-11 -1.00259e-10 2.03565e-11
1.69341e-10 -2.95e-10 7.12249e-11
4.01216e-10 -1.1312e-10 5.7587e-11
2.64869e-10 -3.76069e-11 1.20904e-11
3.72535e-11 1.28809e-10 -4.34583e-11
1.87656e-10 -3.01331e-11 4.09199e-12
-5.14722e-11 -1.29963e-10 1.11008e-10
3.05772e-11 5.19792e-11 -1.3274e-11
2.00075e-11 1.57628e-10 6.64256e-11
-8.17652e-11 6.46669e-11 -1.87108e-11
1.13659e-10 9.88966e-15 -1.65705e-11
-6.30812e-12 1.33065e-11 -5.0918e-12
3.92911e-11 -3.52379e-11 1.36462e-10
-1.60044e-10 -8.96713e-11 8.87009e-12
-1.97381e-11 -2.0069e-10 4.62847e-11
8.57609e-12 -3.07525e-11 2.47375e-12
1.71727e-11 1.11755e-10 -1.20855e-11
4.84245e-11 -1.16154e-10 -2.82269e-11
-2.51088e-10 1.17986e-11 2.78062e-12
7.98029e-11 -1.43257e-10 1.32744e-10
3.89116e-10 -3.73974e-12 -2.26043e-11
4.59092e-11 -1.75109e-11 -2.74259e-11
-3.61597e-11 -2.74508e-11 4.21191e-11
6.94031e-12 1.26223e-11 -4.25928e-12
4.05289e-12 -1.14879e-10 3.18083e-11
-1.77188e-11 1.1935e-11 -1.49699e-11
1.79379e-10 4.05037e-11 -6.99659e-12
1.01055e-11 9.82214e-11 -6.36939e-11
1.82832e-10 -2.76944e-11 2.21275e-12
-8.47023e-11 -2.11922e-10 5.37997e-11
-7.13549e-11 -1.52902e-10 1.36583e-10
1.656e-10 -2.10011e-11 5.3995e-12
-1.22132e-10 1.88765e-10 -8.56036e-11
-3.39958e-11 -2.91725e-10 -2.30233e-10
-2.57793e-11 1.7059e-10 -5.59629e-11
4.70404e-10 -5.92146e-10 1.09294e-10
4.39184e-11 -7.10855e-11 1.34626e-11
2.55908e-13 1.21136e-12 -6.53096e-13
-1.18977e-11 -2.42095e-10 8.11493e-11
-1.58106e-11 -2.18022e-10 4.53478e-11
5.09397e-13 9.73621e-13 -9.18385e-13
-2.66842e-13 1.01781e-12 -1.64274e-14
-1.45556e-10 -2.28648e-10 4.45715e-11
-2.31298e-13 9.92605e-13 -5.54215e-13
-2.12149e-10 -2.69421e-11 3.96078e-11
2.44358e-10 -1.27344e-10 3.03837e-11
-5.72743e-11 -3.19432e-10 7.29528e-11
-1.57376e-10 3.56583e-11 -2.74148e-11
3.74871e-11 1.5684e-11 -2.12709e-12
3.64673e-12 7.7585e-13 7.14624e-14
2.01864e-10 -7.29453e-10 1.70371e-10
-6.34366e-11 -2.59778e-11 6.9648e-12
2.63908e-10 -8.89827e-11 8.89626e-11
-1.47621e-10 -4.17701e-10 9.71518e-11
2.96643e-10 3.17583e-10 -6.97506e-11
-1.52323e-10 3.47038e-10 -8.1324e-11
3.97278e-10 -1.22696e-10 3.4581e-11
3.25543e-11 -9.96361e-11 4.63713e-11
-9.2658e-11 -3.16815e-11 1.67824e-10
3.66491e-11 9.12457e-11 -1.80726e-11
4.81229e-13 3.83972e-13 1.00632e-12
-1.42409e-10 2.17877e-10 -1.06047e-10
9.66257e-11 -1.51249e-10 2.72061e-11
-6.24221e-11 3.42328e-12 3.44106e-11
3.92189e-11 -1.78319e-10 1.18268e-10
7.99229e-12 -2.33178e-11 1.37413e-11
1.5664e-10 -7.59318e-11 2.45285e-11
1.72001e-11 7.74928e-11 -2.00217e-11
1.08569e-10 2.07418e-10 7.16717e-11
-3.87319e-10 -1.49719e-10 2.10691e-10
-7.93989e-11 -8.03116e-11 -4.92523e-13
3.65774e-11 1.04818e-10 -2.36356e-11
4.07206e-11 -3.52393e-11 5.32791e-12
-1.24291e-10 1.59629e-11 -5.77665e-11
5.77384e-11 1.81292e-10 -1.70823e-10
-7.25618e-13 2.60858e-14 5.82203e-13
2.96783e-12 2.66219e-12 -3.32859e-13
-1.06104e-10 2.6049e-11 -2.3938e-11
1.02198e-12 -2.26464e-13 -1.06378e-12
5.5474e-13 9.82498e-13 -4.71431e-13
1.76306e-10 -1.44866e-10 2.86002e-11
-1.51214e-11 -5.37152e-10 6.04272e-10
1.39799e-10 -8.51927e-11 4.21152e-11
1.58577e-12 2.54264e-11 -6.00353e-11
-2.17372e-10 2.80943e-10 1.40345e-10
-3.70944e-11 -2.3971e-11 2.70072e-11
-2.98663e-10 5.65316e-10 -1.26086e-10
2.87185e-11 2.46701e-11 -5.63363e-12
1.69574e-11 -8.76932e-11 5.30803e-11
-3.20195e-10 2.78484e-10 -1.93267e-10
8.91706e-12 5.23404e-12 1.05613e-11
1.31488e-10 1.42397e-10 -9.41949e-11
-6.31052e-11 -3.79563e-11 3.05444e-11
1.96277e-10 -3.76335e-10 9.65495e-11
2.22576e-10 -1.35452e-10 1.0909e-10
-9.36835e-11 4.15795e-11 -6.1154e-12
