# vtk DataFile Version 3.0
LIGGGHTS particles timestep 22400000
ASCII
DATASET POLYDATA
POINTS 289 float
0.115714 0.0165499 0.00789584
0.116056 0.0175643 0.00711
0.115925 0.0175179 0.00719934
0.115942 0.017445 0.00713296
0.115295 0.0160255 0.00834715
0.121433 0.016393 0.00773399
0.115445 0.0165329 0.00788931
0.115273 0.0159529 0.00841262
0.121729 0.017707 0.00715459
0.115693 0.017324 0.00732362
0.115692 0.0168082 0.00765462
0.121685 0.017517 0.00719944
0.115674 0.0172432 0.00737956
0.109305 0.0159099 0.00814648
0.115596 0.0167793 0.00767347
0.109285 0.0158272 0.00819885
0.115612 0.0171339 0.007469
0.121625 0.017231 0.00726675
0.115549 0.0169257 0.00765633
0.115848 0.0170617 0.0074377
0.115316 0.016098 0.00828167
0.115577 0.0167065 0.00773933
0.121645 0.0173264 0.00724431
0.115557 0.0166384 0.00780964
0.12153 0.0167721 0.00743041
0.109602 0.0171724 0.00743547
0.11559 0.0170571 0.00752917
0.121415 0.0163288 0.00780843
0.115772 0.0172676 0.00735493
0.11552 0.0168279 0.00763032
0.121452 0.0164572 0.00765956
0.115812 0.01743 0.00724547
0.115633 0.0165899 0.00785208
0.121772 0.017897 0.00710974
0.115427 0.01646 0.00795533
0.115539 0.0165612 0.00787084
0.121567 0.0169453 0.00733778
0.115463 0.0166057 0.00782326
0.115579 0.0163713 0.00805021
0.115481 0.0166786 0.00775727
0.115731 0.0169557 0.00752108
0.115985 0.017634 0.00711188
0.12147 0.0165247 0.00758805
0.121547 0.0168571 0.00738061
0.115359 0.0162429 0.00815092
0.11583 0.0169867 0.0075012
0.121508 0.0166879 0.00747959
0.115691 0.0171491 0.00735009
0.109911 0.0173451 0.00735108
0.121587 0.0170398 0.00731163
0.115753 0.0166953 0.00776432
0.109324 0.0160232 0.00815568
0.115826 0.0175237 0.00718715
0.121489 0.0166031 0.00752916
0.109613 0.0168368 0.00756581
0.121665 0.0174217 0.00722188
0.115811 0.0169136 0.00756675
0.115337 0.0161725 0.0082186
0.115711 0.016883 0.0075869
0.115925 0.0173611 0.00718481
0.121606 0.0171354 0.00728919
0.115252 0.0158804 0.00847809
0.109751 0.0170438 0.00747045
0.115867 0.0171319 0.00736912
0.109709 0.0168671 0.00755334
0.115501 0.0167563 0.00769739
0.121794 0.0179921 0.00708732
0.109348 0.0161289 0.00811257
0.121707 0.017612 0.00717702
0.115381 0.0163153 0.00808564
0.116122 0.0178557 0.00715844
0.115404 0.0163889 0.00802191
0.121782 0.0175466 0.00718859
0.115778 0.0179244 0.00712882
0.109383 0.0162412 0.00796326
0.10948 0.0166415 0.00768294
0.115863 0.0175024 0.0070971
0.109893 0.0179076 0.00723882
0.109623 0.0172639 0.00740125
0.109402 0.0163099 0.00789311
0.12176 0.0174515 0.00721105
0.109451 0.016172 0.00798676
0.115725 0.017508 0.00720456
0.12175 0.017802 0.00713217
0.115751 0.0173896 0.00717682
0.11583 0.0173354 0.00720719
0.115811 0.0172535 0.00726134
0.115633 0.0169253 0.00754116
0.115908 0.0176983 0.00711286
0.115859 0.0178654 0.0071278
0.115731 0.0173064 0.00723194
0.115757 0.0178274 0.00711606
0.115787 0.0175663 0.00709205
0.115806 0.017826 0.00720319
0.109655 0.0170167 0.00748708
0.116007 0.0177306 0.00712491
0.109804 0.0168961 0.00754168
0.115557 0.0169694 0.00749392
0.115673 0.0167354 0.0077205
0.109794 0.0172268 0.00740192
0.109368 0.0162094 0.00805687
0.115595 0.0171223 0.00737099
0.10937 0.0160377 0.00806815
0.115793 0.017348 0.00729942
0.11575 0.0170285 0.0074553
0.115634 0.0172806 0.00725504
0.115736 0.0177303 0.00710436
0.109539 0.0168988 0.00754118
0.115654 0.017362 0.00720057
0.109687 0.0175384 0.0072986
0.115925 0.0176174 0.00719013
0.116002 0.0173041 0.00722174
0.115231 0.0158097 0.00854561
0.109762 0.0174742 0.00731601
0.121396 0.0162647 0.00788284
0.115653 0.0166625 0.00778643
0.11521 0.0157354 0.00860899
0.116048 0.0179234 0.00715952
0.109535 0.0165058 0.0077756
0.115953 0.0178944 0.00714323
0.115479 0.0163417 0.00806929
0.115615 0.016852 0.00760759
0.109441 0.0164757 0.00778806
0.11571 0.0172252 0.00728803
0.109698 0.0171997 0.00741865
0.115539 0.0168974 0.00756095
0.109772 0.0171353 0.00743615
0.11608 0.0176618 0.00712355
0.115521 0.0164884 0.00793688
0.11577 0.0171012 0.0073895
0.115734 0.0166226 0.00783018
0.109391 0.0159564 0.00812268
0.115933 0.0177974 0.0071258
0.115848 0.0174175 0.00715299
0.115789 0.0171743 0.00732334
0.115761 0.0177192 0.00720075
0.109477 0.0162573 0.00793313
0.115652 0.0169981 0.00747534
0.115672 0.0170708 0.00740956
0.115615 0.0172005 0.00731171
0.115941 0.0182509 0.00719622
0.109356 0.0161202 0.00801333
0.115576 0.0170447 0.0074309
0.11577 0.0174718 0.00712253
0.115189 0.0156628 0.00867446
0.109805 0.0176572 0.00724758
0.115167 0.0155903 0.00873994
0.109666 0.0174469 0.00733282
0.1095 0.0167293 0.00763931
0.10973 0.016953 0.00750647
0.115812 0.0179547 0.00721785
0.109676 0.0171082 0.00745286
0.115433 0.0161969 0.00819978
0.109922 0.0177759 0.00719655
0.11592 0.0181545 0.00717891
0.109932 0.0174366 0.00731686
0.115799 0.0180211 0.00714321
0.109837 0.0174098 0.00733348
0.115597 0.0164441 0.00798419
0.10967 0.0167015 0.00765833
0.115694 0.0175365 0.00711403
0.110156 0.0180122 0.00709508
0.109784 0.0175657 0.00728179
0.116027 0.017827 0.00714219
0.110083 0.0180778 0.00707706
0.116068 0.0180197 0.00717683
0.109879 0.0175928 0.00726504
0.110293 0.0182251 0.007009
0.10958 0.0170809 0.00746968
0.109954 0.0175281 0.00728265
0.109815 0.0173183 0.0073677
0.109709 0.0176299 0.00726438
0.115673 0.0174444 0.00714723
0.109575 0.0166714 0.00767068
0.115502 0.0164146 0.00800361
0.110018 0.0178026 0.00718
0.116037 0.0174662 0.00711007
0.109826 0.0177487 0.00721336
0.109916 0.0180002 0.0072045
0.121815 0.0180871 0.00706489
0.11586 0.0183101 0.00719517
0.115791 0.0168409 0.00763249
0.10973 0.0177214 0.00723017
0.115974 0.0179908 0.00716054
0.109814 0.0179727 0.00722282
0.115813 0.0176711 0.00713026
0.11539 0.0160519 0.00833059
0.110178 0.0181047 0.00706044
0.10965 0.0166187 0.0077108
0.115369 0.0159793 0.00839607
0.109594 0.0167576 0.0076238
0.110113 0.017829 0.00716357
0.109461 0.0165587 0.00773543
0.109959 0.0183018 0.00700631
0.109968 0.017843 0.00725639
0.115615 0.016517 0.00791817
0.110011 0.0180271 0.00718779
0.109645 0.0173554 0.00736704
0.109858 0.0175013 0.00729926
0.109825 0.0169791 0.00748919
0.110039 0.0178941 0.00714578
0.109559 0.0169894 0.00750393
0.116022 0.0173837 0.00716441
0.115879 0.0179619 0.00714427
0.121833 0.017747 0.00714105
0.115718 0.0176333 0.00712013
0.109719 0.0172912 0.00738443
0.109741 0.0173827 0.00735022
0.116015 0.0181834 0.00719518
0.115819 0.0181174 0.00716058
0.115837 0.0177679 0.00712458
0.115455 0.0162693 0.00813451
0.109555 0.0165886 0.00772313
0.115412 0.0161243 0.00826521
0.109519 0.0168063 0.0075785
0.109421 0.0163928 0.00784058
0.121803 0.0176416 0.00716616
0.109966 0.0179594 0.00712793
0.109265 0.0157445 0.00825118
0.109848 0.0178403 0.0071791
0.109634 0.0169252 0.0075213
0.110223 0.0182935 0.00698981
0.109773 0.0179044 0.00716174
0.109689 0.0167843 0.00760581
0.1159 0.0180582 0.00716159
0.11588 0.0176028 0.00710182
0.109921 0.0185453 0.00692223
0.109859 0.0182703 0.00702488
0.110079 0.0184275 0.00695257
0.109869 0.017932 0.0071448
0.103599 0.0171328 0.00733965
0.109837 0.0181788 0.0070591
0.109891 0.0180236 0.00711053
0.103579 0.0170538 0.00739771
0.103618 0.0172119 0.00728158
0.109914 0.0181164 0.00707615
0.103657 0.01737 0.00716545
0.115326 0.0158342 0.00852704
0.115994 0.0180871 0.00717786
0.109795 0.0179959 0.00712752
0.115347 0.0159067 0.00846157
0.115772 0.0167681 0.00769844
0.103638 0.0172909 0.00722354
0.109996 0.0177111 0.00721422
0.109944 0.0178679 0.00716215
0.109846 0.0170705 0.00745378
0.109816 0.0180874 0.00709331
0.110242 0.0183934 0.00695272
0.110056 0.0183309 0.00698873
0.110134 0.0179205 0.00712935
0.115957 0.0175385 0.00710082
0.109902 0.0184533 0.00695645
0.11015 0.0183597 0.00697152
0.10372 0.0176409 0.0070663
0.109983 0.0183963 0.00697081
0.109752 0.0178129 0.00719595
0.11584 0.0182138 0.00717785
0.109889 0.0172536 0.0073853
0.110061 0.0179859 0.00711145
0.110009 0.018143 0.00705922
0.110031 0.0182352 0.00702471
0.11003 0.0185964 0.006896
0.110105 0.0185329 0.00691309
0.109987 0.0180509 0.00709371
0.110127 0.0182627 0.00700788
0.110199 0.0181963 0.00702622
0.109957 0.0187298 0.00685378
0.115832 0.0180513 0.00723453
0.103678 0.0174503 0.00710966
0.103742 0.0177361 0.00704463
0.109975 0.0176196 0.00724843
0.103764 0.0178312 0.00702296
0.103699 0.0175457 0.00708797
0.109935 0.0182077 0.0070416
0.10988 0.0183618 0.00699067
0.110104 0.0181695 0.00704276
0.115714 0.0174046 0.00726838
0.110004 0.0184911 0.00693544
0.109496 0.0163402 0.00788062
0.110172 0.0184613 0.00693373
0.110092 0.0177374 0.00719784
0.115907 0.017282 0.00724313
0.109939 0.0186375 0.006888
0.109516 0.016423 0.00782811
0.116017 0.0176663 0.00720091
0.115983 0.0172309 0.00728701
0.109901 0.0176843 0.00723083
0.109868 0.0171621 0.00741952
0.115887 0.0172054 0.00730434

VERTICES 289 578
1 0
1 1
1 2
1 3
1 4
1 5
1 6
1 7
1 8
1 9
1 10
1 11
1 12
1 13
1 14
1 15
1 16
1 17
1 18
1 19
1 20
1 21
1 22
1 23
1 24
1 25
1 26
1 27
1 28
1 29
1 30
1 31
1 32
1 33
1 34
1 35
1 36
1 37
1 38
1 39
1 40
1 41
1 42
1 43
1 44
1 45
1 46
1 47
1 48
1 49
1 50
1 51
1 52
1 53
1 54
1 55
1 56
1 57
1 58
1 59
1 60
1 61
1 62
1 63
1 64
1 65
1 66
1 67
1 68
1 69
1 70
1 71
1 72
1 73
1 74
1 75
1 76
1 77
1 78
1 79
1 80
1 81
1 82
1 83
1 84
1 85
1 86
1 87
1 88
1 89
1 90
1 91
1 92
1 93
1 94
1 95
1 96
1 97
1 98
1 99
1 100
1 101
1 102
1 103
1 104
1 105
1 106
1 107
1 108
1 109
1 110
1 111
1 112
1 113
1 114
1 115
1 116
1 117
1 118
1 119
1 120
1 121
1 122
1 123
1 124
1 125
1 126
1 127
1 128
1 129
1 130
1 131
1 132
1 133
1 134
1 135
1 136
1 137
1 138
1 139
1 140
1 141
1 142
1 143
1 144
1 145
1 146
1 147
1 148
1 149
1 150
1 151
1 152
1 153
1 154
1 155
1 156
1 157
1 158
1 159
1 160
1 161
1 162
1 163
1 164
1 165
1 166
1 167
1 168
1 169
1 170
1 171
1 172
1 173
1 174
1 175
1 176
1 177
1 178
1 179
1 180
1 181
1 182
1 183
1 184
1 185
1 186
1 187
1 188
1 189
1 190
1 191
1 192
1 193
1 194
1 195
1 196
1 197
1 198
1 199
1 200
1 201
1 202
1 203
1 204
1 205
1 206
1 207
1 208
1 209
1 210
1 211
1 212
1 213
1 214
1 215
1 216
1 217
1 218
1 219
1 220
1 221
1 222
1 223
1 224
1 225
1 226
1 227
1 228
1 229
1 230
1 231
1 232
1 233
1 234
1 235
1 236
1 237
1 238
1 239
1 240
1 241
1 242
1 243
1 244
1 245
1 246
1 247
1 248
1 249
1 250
1 251
1 252
1 253
1 254
1 255
1 256
1 257
1 258
1 259
1 260
1 261
1 262
1 263
1 264
1 265
1 266
1 267
1 268
1 269
1 270
1 271
1 272
1 273
1 274
1 275
1 276
1 277
1 278
1 279
1 280
1 281
1 282
1 283
1 284
1 285
1 286
1 287
1 288

POINT_DATA 289
SCALARS id int 1
LOOKUP_TABLE default
1
2
3
4
5
6
7
8
9
10
11
12
13
14
15
16
17
18
19
20
21
22
24
25
26
27
29
30
31
32
33
34
35
36
37
38
39
40
41
42
43
44
45
46
47
48
49
50
52
53
54
55
56
57
58
59
60
61
62
63
64
65
66
67
68
69
70
71
72
73
74
75
76
77
78
79
80
81
82
83
84
85
86
87
88
89
90
91
92
93
94
95
96
98
99
100
101
102
103
104
105
106
107
108
109
110
111
112
113
114
115
116
117
118
119
120
121
122
123
124
125
126
127
128
129
130
131
132
133
134
135
136
137
138
139
140
141
142
144
145
146
147
148
149
150
152
153
154
155
156
157
158
159
160
161
162
164
165
166
167
168
169
170
171
172
173
174
175
176
177
178
179
180
181
182
183
184
185
186
187
188
189
190
191
192
193
194
195
196
197
198
199
200
201
202
203
204
205
206
207
208
209
210
211
213
214
215
216
217
218
219
220
221
222
223
224
225
226
227
228
229
230
231
232
233
234
235
236
237
238
239
241
242
243
244
245
246
247
248
249
250
251
252
253
254
255
256
257
258
259
260
261
262
263
264
265
267
268
269
270
271
272
273
274
275
276
277
278
279
280
281
282
283
284
285
286
287
288
289
290
292
293
294
295
296
297
298
299
300

SCALARS type int 1
LOOKUP_TABLE default
1
1
1
1
1
1
1
1
1
1
1
1
1
1
1
1
1
1
1
1
1
1
1
1
1
1
1
1
1
1
1
1
1
1
1
1
1
1
1
1
1
1
1
1
1
1
1
1
1
1
1
1
1
1
1
1
1
1
1
1
1
1
1
1
1
1
1
1
1
1
1
1
1
1
1
1
1
1
1
1
1
1
1
1
1
1
1
1
1
1
1
1
1
1
1
1
1
1
1
1
1
1
1
1
1
1
1
1
1
1
1
1
1
1
1
1
1
1
1
1
1
1
1
1
1
1
1
1
1
1
1
1
1
1
1
1
1
1
1
1
1
1
1
1
1
1
1
1
1
1
1
1
1
1
1
1
1
1
1
1
1
1
1
1
1
1
1
1
1
1
1
1
1
1
1
1
1
1
1
1
1
1
1
1
1
1
1
1
1
1
1
1
1
1
1
1
1
1
1
1
1
1
1
1
1
1
1
1
1
1
1
1
1
1
1
1
1
1
1
1
1
1
1
1
1
1
1
1
1
1
1
1
1
1
1
1
1
1
1
1
1
1
1
1
1
1
1
1
1
1
1
1
1
1
1
1
1
1
1
1
1
1
1
1
1
1
1
1
1
1
1
1
1
1
1
1
1
1
1
1
1
1
1
1
1
1
1
1
1

SCALARS radius float 1
LOOKUP_TABLE default
5e-05
5e-05
5e-05
5e-05
5e-05
5e-05
5e-05
5e-05
5e-05
5e-05
5e-05
5e-05
5e-05
5e-05
5e-05
5e-05
5e-05
5e-05
5e-05
5e-05
5e-05
5e-05
5e-05
5e-05
5e-05
5e-05
5e-05
5e-05
5e-05
5e-05
5e-05
5e-05
5e-05
5e-05
5e-05
5e-05
5e-05
5e-05
5e-05
5e-05
5e-05
5e-05
5e-05
5e-05
5e-05
5e-05
5e-05
5e-05
5e-05
5e-05
5e-05
5e-05
5e-05
5e-05
5e-05
5e-05
5e-05
5e-05
5e-05
5e-05
5e-05
5e-05
5e-05
5e-05
5e-05
5e-05
5e-05
5e-05
5e-05
5e-05
5e-05
5e-05
5e-05
5e-05
5e-05
5e-05
5e-05
5e-05
5e-05
5e-05
5e-05
5e-05
5e-05
5e-05
5e-05
5e-05
5e-05
5e-05
5e-05
5e-05
5e-05
5e-05
5e-05
5e-05
5e-05
5e-05
5e-05
5e-05
5e-05
5e-05
5e-05
5e-05
5e-05
5e-05
5e-05
5e-05
5e-05
5e-05
5e-05
5e-05
5e-05
5e-05
5e-05
5e-05
5e-05
5e-05
5e-05
5e-05
5e-05
5e-05
5e-05
5e-05
5e-05
5e-05
5e-05
5e-05
5e-05
5e-05
5e-05
5e-05
5e-05
5e-05
5e-05
5e-05
5e-05
5e-05
5e-05
5e-05
5e-05
5e-05
5e-05
5e-05
5e-05
5e-05
5e-05
5e-05
5e-05
5e-05
5e-05
5e-05
5e-05
5e-05
5e-05
5e-05
5e-05
5e-05
5e-05
5e-05
5e-05
5e-05
5e-05
5e-05
5e-05
5e-05
5e-05
5e-05
5e-05
5e-05
5e-05
5e-05
5e-05
5e-05
5e-05
5e-05
5e-05
5e-05
5e-05
5e-05
5e-05
5e-05
5e-05
5e-05
5e-05
5e-05
5e-05
5e-05
5e-05
5e-05
5e-05
5e-05
5e-05
5e-05
5e-05
5e-05
5e-05
5e-05
5e-05
5e-05
5e-05
5e-05
5e-05
5e-05
5e-05
5e-05
5e-05
5e-05
5e-05
5e-05
5e-05
5e-05
5e-05
5e-05
5e-05
5e-05
5e-05
5e-05
5e-05
5e-05
5e-05
5e-05
5e-05
5e-05
5e-05
5e-05
5e-05
5e-05
5e-05
5e-05
5e-05
5e-05
5e-05
5e-05
5e-05
5e-05
5e-05
5e-05
5e-05
5e-05
5e-05
5e-05
5e-05
5e-05
5e-05
5e-05
5e-05
5e-05
5e-05
5e-05
5e-05
5e-05
5e-05
5e-05
5e-05
5e-05
5e-05
5e-05
5e-05
5e-05
5e-05
5e-05
5e-05
5e-05
5e-05
5e-05
5e-05
5e-05
5e-05
5e-05
5e-05
5e-05
5e-05
5e-05
5e-05
5e-05
5e-05
5e-05
5e-05
5e-05
5e-05
5e-05
5e-05
5e-05
5e-05
5e-05
5e-05
5e-05
5e-05
5e-05
5e-05

SCALARS mass float 1
LOOKUP_TABLE default
1.46608e-10
1.46608e-10
1.46608e-10
1.46608e-10
1.46608e-10
1.46608e-10
1.46608e-10
1.46608e-10
1.46608e-10
1.46608e-10
1.46608e-10
1.46608e-10
1.46608e-10
1.46608e-10
1.46608e-10
1.46608e-10
1.46608e-10
1.46608e-10
1.46608e-10
1.46608e-10
1.46608e-10
1.46608e-10
1.46608e-10
1.46608e-10
1.46608e-10
1.46608e-10
1.46608e-10
1.46608e-10
1.46608e-10
1.46608e-10
1.46608e-10
1.46608e-10
1.46608e-10
1.46608e-10
1.46608e-10
1.46608e-10
1.46608e-10
1.46608e-10
1.46608e-10
1.46608e-10
1.46608e-10
1.46608e-10
1.46608e-10
1.46608e-10
1.46608e-10
1.46608e-10
1.46608e-10
1.46608e-10
1.46608e-10
1.46608e-10
1.46608e-10
1.46608e-10
1.46608e-10
1.46608e-10
1.46608e-10
1.46608e-10
1.46608e-10
1.46608e-10
1.46608e-10
1.46608e-10
1.46608e-10
1.46608e-10
1.46608e-10
1.46608e-10
1.46608e-10
1.46608e-10
1.46608e-10
1.46608e-10
1.46608e-10
1.46608e-10
1.46608e-10
1.46608e-10
1.46608e-10
1.46608e-10
1.46608e-10
1.46608e-10
1.46608e-10
1.46608e-10
1.46608e-10
1.46608e-10
1.46608e-10
1.46608e-10
1.46608e-10
1.46608e-10
1.46608e-10
1.46608e-10
1.46608e-10
1.46608e-10
1.46608e-10
1.46608e-10
1.46608e-10
1.46608e-10
1.46608e-10
1.46608e-10
1.46608e-10
1.46608e-10
1.46608e-10
1.46608e-10
1.46608e-10
1.46608e-10
1.46608e-10
1.46608e-10
1.46608e-10
1.46608e-10
1.46608e-10
1.46608e-10
1.46608e-10
1.46608e-10
1.46608e-10
1.46608e-10
1.46608e-10
1.46608e-10
1.46608e-10
1.46608e-10
1.46608e-10
1.46608e-10
1.46608e-10
1.46608e-10
1.46608e-10
1.46608e-10
1.46608e-10
1.46608e-10
1.46608e-10
1.46608e-10
1.46608e-10
1.46608e-10
1.46608e-10
1.46608e-10
1.46608e-10
1.46608e-10
1.46608e-10
1.46608e-10
1.46608e-10
1.46608e-10
1.46608e-10
1.46608e-10
1.46608e-10
1.46608e-10
1.46608e-10
1.46608e-10
1.46608e-10
1.46608e-10
1.46608e-10
1.46608e-10
1.46608e-10
1.46608e-10
1.46608e-10
1.46608e-10
1.46608e-10
1.46608e-10
1.46608e-10
1.46608e-10
1.46608e-10
1.46608e-10
1.46608e-10
1.46608e-10
1.46608e-10
1.46608e-10
1.46608e-10
1.46608e-10
1.46608e-10
1.46608e-10
1.46608e-10
1.46608e-10
1.46608e-10
1.46608e-10
1.46608e-10
1.46608e-10
1.46608e-10
1.46608e-10
1.46608e-10
1.46608e-10
1.46608e-10
1.46608e-10
1.46608e-10
1.46608e-10
1.46608e-10
1.46608e-10
1.46608e-10
1.46608e-10
1.46608e-10
1.46608e-10
1.46608e-10
1.46608e-10
1.46608e-10
1.46608e-10
1.46608e-10
1.46608e-10
1.46608e-10
1.46608e-10
1.46608e-10
1.46608e-10
1.46608e-10
1.46608e-10
1.46608e-10
1.46608e-10
1.46608e-10
1.46608e-10
1.46608e-10
1.46608e-10
1.46608e-10
1.46608e-10
1.46608e-10
1.46608e-10
1.46608e-10
1.46608e-10
1.46608e-10
1.46608e-10
1.46608e-10
1.46608e-10
1.46608e-10
1.46608e-10
1.46608e-10
1.46608e-10
1.46608e-10
1.46608e-10
1.46608e-10
1.46608e-10
1.46608e-10
1.46608e-10
1.46608e-10
1.46608e-10
1.46608e-10
1.46608e-10
1.46608e-10
1.46608e-10
1.46608e-10
1.46608e-10
1.46608e-10
1.46608e-10
1.46608e-10
1.46608e-10
1.46608e-10
1.46608e-10
1.46608e-10
1.46608e-10
1.46608e-10
1.46608e-10
1.46608e-10
1.46608e-10
1.46608e-10
1.46608e-10
1.46608e-10
1.46608e-10
1.46608e-10
1.46608e-10
1.46608e-10
1.46608e-10
1.46608e-10
1.46608e-10
1.46608e-10
1.46608e-10
1.46608e-10
1.46608e-10
1.46608e-10
1.46608e-10
1.46608e-10
1.46608e-10
1.46608e-10
1.46608e-10
1.46608e-10
1.46608e-10
1.46608e-10
1.46608e-10
1.46608e-10
1.46608e-10
1.46608e-10
1.46608e-10
1.46608e-10
1.46608e-10
1.46608e-10
1.46608e-10
1.46608e-10
1.46608e-10
1.46608e-10
1.46608e-10
1.46608e-10
1.46608e-10
1.46608e-10
1.46608e-10
1.46608e-10
1.46608e-10
1.46608e-10
1.46608e-10
1.46608e-10
1.46608e-10
1.46608e-10
1.46608e-10
1.46608e-10

VECTORS velocity float
0.00393275 -0.000211052 0.000521955
0.00436465 -0.000541947 0.000241244
0.00418915 -0.00054988 0.000182812
0.0043776 -0.000541893 0.000195607
0.00447048 -8.53555e-05 0.000449861
0.00438793 6.43233e-06 -0.000301735
0.00418866 -4.57255e-05 0.000387955
0.00451898 -7.69536e-05 0.000446178
0.00481903 4.1465e-05 -0.000217036
0.00424844 -0.000172556 -0.00014347
0.0042635 -4.608e-05 0.000391367
0.00480229 4.47718e-05 -0.000216909
0.00414832 -7.01365e-05 5.20473e-06
0.00453027 0.000787476 -0.000167357
0.0042045 -2.65067e-05 0.000375548
0.00474002 0.000750142 -0.000127339
0.00401187 0.000141436 0.000150012
0.00445812 0.000131019 -0.000222111
0.00429437 1.30534e-05 0.000349118
0.00409917 -0.000195085 0.000553661
0.00444309 -8.98618e-05 0.000454065
0.00415424 -2.23413e-05 0.000365645
0.00453238 0.000110898 -0.0002206
0.00414355 -1.62254e-05 0.000355082
0.00449034 0.000212229 -1.37335e-07
0.00475319 0.000391667 -0.000484923
0.00430376 8.12936e-05 0.000235558
0.00447069 9.75481e-06 -0.000304285
0.00427782 -8.42085e-05 0.00024464
0.00423215 -5.82959e-06 0.000353024
0.00440149 -1.3417e-05 -0.000299588
0.00426496 -0.000240476 -2.58182e-05
0.00410851 -3.67774e-05 0.000378397
0.00483719 4.39599e-05 -0.000218272
0.00469391 -0.00010833 0.000485277
0.00415488 -1.12232e-05 0.000348767
0.00452767 0.000131319 -0.000168149
0.00415486 -2.13326e-05 0.000360638
0.00474541 -7.19956e-05 0.000462457
0.0043085 -3.93221e-05 0.000385551
0.00424977 -6.29028e-05 0.000411847
0.00439704 -0.000543546 0.000247773
0.00445488 5.85743e-05 -0.000216022
0.00449188 0.000215337 7.35388e-07
0.00466928 -0.00011107 0.000491029
0.00411732 -0.000212373 0.000559765
0.00447893 0.000214357 4.95606e-07
0.004346 -8.12941e-05 0.000152028
0.00476818 0.000342758 -0.000473884
0.00452928 0.000121941 -0.000214433
0.0040098 -0.000225734 0.000542664
0.00462547 0.000630656 -2.93905e-05
0.00421376 3.24322e-05 -0.000207198
0.00444315 0.000218257 -5.47452e-06
0.00445998 0.000628102 -7.19257e-05
0.00470619 6.91382e-05 -0.000218548
0.00420752 -0.000235033 0.000575525
0.00446701 -8.90399e-05 0.000461119
0.00425996 -7.3731e-05 0.000422956
0.00418337 -0.00054652 0.00010493
0.00449022 0.000128136 -0.000221017
0.00453865 -8.36757e-05 0.000456432
0.0048062 0.000403722 -0.000404829
0.00415491 -0.000197342 0.000541639
0.00460383 0.000625698 -5.45074e-05
0.00437289 -5.83595e-05 0.000382731
0.00484606 4.75423e-05 -0.000219579
0.00451144 0.000563903 -7.08736e-05
0.00481154 4.18147e-05 -0.000216698
0.00491446 -0.000130896 0.000534769
0.00435496 -0.000588331 0.000458691
0.00502547 -0.00013955 0.000555601
0.0048166 4.16592e-05 -0.000216937
0.00465446 -0.00055463 0.0004556
0.0044859 0.000586931 -3.84209e-05
0.00445231 0.000663662 -9.42877e-05
0.00451525 -0.000499765 5.18737e-05
0.00492876 0.000335022 -0.000478569
0.00476031 0.000379734 -0.00048262
0.00438554 0.00059805 -5.44218e-05
0.00480676 4.59503e-05 -0.000217343
0.00456435 0.00065295 -7.75578e-05
0.00428144 -0.000426213 -3.24522e-05
0.00482498 3.9859e-05 -0.000216764
0.00439794 -0.00022604 -0.000124424
0.00432846 -0.000283883 -7.12096e-05
0.00458596 -5.9965e-05 -0.000235896
0.00431151 -6.6653e-06 0.000364866
0.00452384 -0.000518626 0.000262798
0.00459984 -0.000548442 0.000481013
0.00445676 -0.000197836 -0.000152669
0.00469082 -0.000539815 0.000450209
0.00452773 -0.000470025 0.000218075
0.00459582 -0.000528778 0.000551614
0.00478354 0.000400779 -0.000417811
0.00428694 -0.000515851 0.000468737
0.00467577 0.000396319 0.000119616
0.0043163 2.60249e-05 0.000339894
0.00420847 -4.94044e-05 0.000395726
0.00476354 0.000386496 -0.000489623
0.00459309 0.000587717 -1.58475e-05
0.00439855 -9.46899e-05 9.76302e-05
0.00453678 0.000637666 -7.19674e-05
0.00426072 -0.00017714 8.69715e-05
0.00431695 -6.12941e-05 0.000413296
0.00439027 -0.000265127 -0.000186267
0.00473607 -0.000495385 0.000327737
0.00447187 0.000588146 -0.000225727
0.00439939 -0.000257196 -0.000127825
0.00481186 0.000396939 -0.000497045
0.00453031 -0.000522433 0.000345911
0.00419945 -0.000516463 3.66178e-05
0.00455276 -9.21955e-05 0.000466409
0.00480051 0.000383889 -0.000490279
0.00443647 1.4682e-05 -0.000309929
0.00415024 -3.58881e-05 0.000377031
0.00457677 -9.94684e-05 0.000474444
0.00461078 -0.000477598 0.000506069
0.00439696 0.000635953 -7.93499e-05
0.0045498 -0.000481676 0.000490016
0.00503873 -0.000123689 0.000535043
0.00426158 -2.5742e-05 0.00037023
0.00440193 0.000618595 -6.74553e-05
0.00437614 -0.000106341 0.000107992
0.00476441 0.000374498 -0.000482448
0.00427819 5.34063e-06 0.00034926
0.0047466 0.00035913 -0.000476361
0.00434656 -0.000600003 0.0004278
0.00460193 0.000487137 -6.69192e-05
0.00426049 -4.1535e-05 0.000395215
0.0039898 -0.000222485 0.000538682
0.0046338 0.000660114 -7.68933e-05
0.00450758 -0.000315413 0.000512059
0.00434094 -0.000412866 7.40129e-06
0.00424566 -9.71148e-05 0.000419298
0.00478342 -0.00040752 0.000397556
0.00445631 0.000666102 -9.43717e-05
0.00430902 2.78883e-06 0.000360639
0.00436515 9.45727e-06 0.000353689
0.00437951 -0.000213951 -0.000113948
0.00462601 -0.000534282 0.000496882
0.00450351 0.000628464 -6.9992e-05
0.0043551 2.58472e-06 0.000255866
0.00435865 -0.000398457 -1.28628e-05
0.00460024 -9.83223e-05 0.000473741
0.00483452 0.000376973 -0.000490984
0.00462435 -9.27565e-05 0.00047036
0.00478721 0.000373246 -0.000485264
0.00446196 0.000647911 -9.18177e-05
0.00484761 0.000469096 -0.000251699
0.00457493 -0.000530568 0.000424207
0.00476699 0.00036985 -0.000483749
0.00472487 -0.000145735 0.000527415
0.00486985 0.000326264 -0.000475074
0.00465975 -0.000529884 0.000489062
0.00477947 0.000366613 -0.000483076
0.00466965 -0.000552787 0.000507141
0.00479452 0.000373912 -0.000486177
0.00423634 -3.84256e-05 0.000388117
0.0043896 0.000568592 -3.65045e-05
0.00444596 -0.00034055 -4.86269e-05
0.00492235 0.000297208 -0.000469293
0.00481397 0.000382111 -0.00049032
0.00440867 -0.000548876 0.000466373
0.004926 0.000315909 -0.000475674
0.00471707 -0.000467975 0.000522073
0.00482627 0.000366525 -0.000486815
0.0047721 0.000716365 -0.000607116
0.00473231 0.000395026 -0.000486684
0.00481291 0.000349631 -0.000478976
0.00477951 0.000380682 -0.000488092
0.00482822 0.000393856 -0.000495879
0.00437684 -0.000311851 -0.000158783
0.00446666 0.000627375 -7.15378e-05
0.00489478 7.69473e-05 0.000339781
0.00490984 0.000299371 -0.000469562
0.00435605 -0.000539191 8.27331e-05
0.00485266 0.00036789 -0.000488283
0.00493463 0.000340419 -0.000483957
0.00485771 5.16907e-05 -0.00022078
0.00455095 -0.000549178 0.000479944
0.00421919 -0.000245447 0.000579095
0.004847 0.000385894 -0.000495345
0.00473051 -0.000501673 0.000518893
0.00486076 0.00032897 -0.000491008
0.00469613 -0.000511949 0.000281676
0.00435993 -0.000104638 0.000459382
0.00492239 0.000306096 -0.000471804
0.00448249 0.000633304 -7.14248e-05
0.00444508 -0.000102961 0.000465028
0.00446751 0.000627052 -7.5414e-05
0.00490768 0.000270759 -0.000458239
0.00443541 0.000611386 -6.05437e-05
0.00496432 0.00035746 -0.00049325
0.00490684 0.00030268 -0.000477837
0.00411748 -3.26601e-05 0.000372557
0.00493772 0.00031112 -0.000474856
0.0047689 0.000373555 -0.000485555
0.00479537 0.000374855 -0.000486752
0.00468137 0.000392832 0.000106081
0.00492319 0.000301253 -0.000470293
0.00469662 0.000421151 -0.00047132
0.00421717 -0.000512094 7.14044e-05
0.00469985 -0.000591046 0.000505693
0.00482818 4.19358e-05 -0.000217436
0.00461124 -0.000443922 0.000198056
0.00477038 0.000379073 -0.00048547
0.00478387 0.000380122 -0.000488582
0.00467897 -0.000430173 0.000523871
0.00463473 -0.000531706 0.000451261
0.00463068 -0.000521683 0.000381415
0.00488497 -0.000158606 0.000553475
0.0044418 0.000630963 -7.21828e-05
0.00448113 -0.000123407 0.000486589
0.00445683 0.000618805 -7.11377e-05
0.00439834 0.000622044 -6.9634e-05
0.0048208 4.4076e-05 -0.000217633
0.00492692 0.000326071 -0.000480617
0.00473837 0.000739904 -0.000120629
0.00487019 0.000344347 -0.000481847
0.00467581 0.000408058 -0.000481346
0.00481567 0.000754291 -0.00062389
0.00487698 0.000372621 -0.000492771
0.00448543 0.000607449 -5.37653e-05
0.00468787 -0.000551206 0.000489539
0.0046722 -0.000485139 0.000259419
0.00452045 0.00043097 -0.000488233
0.00495138 0.000360035 -0.000493246
0.00472557 0.000682565 -0.000591597
0.00490791 0.000338329 -0.000481219
0.00448827 0.000463009 -0.000132335
0.00494097 0.00036548 -0.000493373
0.00492672 0.000345728 -0.000485789
0.00447653 0.00046461 -0.000134089
0.00450019 0.000461522 -0.000130656
0.00494577 0.000349027 -0.000489539
0.00452351 0.000458014 -0.000127258
0.00453429 -9.46686e-05 0.000465638
0.0046941 -0.000467951 0.0005157
0.00490656 0.000373406 -0.000493499
0.00451631 -6.91383e-05 0.000439546
0.00411066 -0.000240005 0.000562175
0.00451191 0.000459976 -0.000129082
0.00487042 0.000316037 -0.000471494
0.00491492 0.000321911 -0.000476805
0.00469683 0.000309289 -0.00045647
0.00493303 0.000372339 -0.000493831
0.00485771 0.000726061 -0.000616945
0.00497132 0.000328887 -0.000483527
0.00490571 0.000268441 -0.000457268
0.00455399 -0.000584016 0.000243819
0.0049842 0.000351341 -0.000492495
0.00481525 0.00075637 -0.000624608
0.00501022 0.000286298 -0.000202533
0.00498584 0.000348945 -0.000491789
0.00486107 0.000376378 -0.00049202
0.00458218 -0.000549087 0.000469614
0.00475083 0.000357231 -0.000477384
0.00492522 0.00029934 -0.000471404
0.00493623 0.000336626 -0.000483745
0.00495535 0.000343602 -0.000487552
0.00464802 0.000549783 -0.000538212
0.00469249 0.00058804 -0.000555454
0.0049381 0.000322619 -0.000478393
0.00496076 0.000313824 -0.000477464
0.00495733 0.000309707 -0.00047567
0.00462489 0.000427652 -0.000494529
0.00451419 -0.000572665 0.000449622
0.00477864 0.000335979 -0.000206606
0.00501286 0.000286623 -0.000202643
0.00482979 0.000333877 -0.000475206
0.00501523 0.000286261 -0.0002026
0.00500906 0.000287102 -0.000202619
0.00494561 0.000350046 -0.000489195
0.00496268 0.000354813 -0.000492554
0.00494215 0.00032311 -0.000479431
0.00430287 -0.000197088 -0.000178973
0.00460565 0.000558301 -0.000538693
0.00438419 0.00061969 -6.9503e-05
0.0047601 0.00063775 -0.000578141
0.00488978 0.000275114 -0.000458434
0.00422402 -0.000489117 0.000190038
0.00458375 0.000434367 -0.000491273
0.0044068 0.000627545 -7.24324e-05
0.00428395 -0.000607191 0.000344682
0.00423619 -0.000123905 0.000490278
0.00484753 0.000360009 -0.000485746
0.00472384 0.000359259 -0.00047561
0.00425167 -0.000317138 0.000420831

VECTORS force float
4.51084e-10 2.17726e-10 -1.64493e-10
1.54318e-10 1.44073e-12 2.77897e-10
-3.3387e-11 -1.6987e-10 7.39017e-11
-7.3671e-12 -1.76185e-10 2.34465e-10
-4.49366e-10 -3.73493e-10 3.11482e-10
2.90063e-10 3.48815e-11 3.59322e-11
-3.52841e-10 2.63722e-10 -3.51303e-10
-2.2938e-11 -2.36082e-11 2.54227e-11
4.02713e-11 4.63483e-12 -3.03737e-12
-1.77853e-10 5.1833e-12 -6.3463e-10
-2.43091e-10 -3.3251e-10 2.81861e-10
3.36328e-11 6.04343e-11 -1.94098e-11
-6.04665e-10 3.93623e-10 -5.1304e-10
1.11788e-11 5.51651e-11 -2.93572e-11
-4.67249e-10 -5.54107e-13 7.08092e-11
-1.10931e-11 2.77714e-11 -1.15181e-11
1.69387e-10 3.32562e-10 -5.80066e-10
-4.38288e-12 2.99034e-11 4.11633e-12
5.0033e-11 5.14903e-11 -1.71075e-10
-4.80904e-10 1.01864e-10 -1.55003e-10
-1.47738e-10 -2.75597e-10 2.52707e-10
9.37622e-12 9.83762e-11 -5.58462e-11
-1.27599e-11 5.42117e-11 -5.5911e-12
5.57786e-11 1.41615e-10 -7.4567e-11
7.00308e-11 1.36751e-11 -4.42369e-11
-2.35648e-11 1.91843e-10 -1.68094e-10
-2.67682e-11 6.19504e-10 -2.16413e-10
-2.71553e-10 -3.83774e-11 -1.46517e-11
-2.53212e-10 1.59397e-10 7.63358e-10
-2.43164e-10 1.71471e-10 -1.93314e-10
-1.23219e-10 5.53031e-11 1.16053e-10
3.38879e-10 1.86621e-10 -1.09901e-10
2.15215e-10 1.59549e-10 -7.4867e-11
4.64418e-12 -5.50235e-11 1.29234e-11
-4.08774e-10 -2.36621e-10 -4.05506e-12
8.75944e-12 3.656e-11 -4.72588e-11
5.21623e-11 -1.09268e-10 -3.59134e-10
1.04022e-10 8.63041e-11 -1.27384e-10
-2.39161e-10 -4.0467e-10 3.99257e-10
-3.93908e-10 -1.98482e-10 -1.41391e-10
-2.24195e-11 2.41178e-10 -2.2212e-10
3.27145e-10 -4.73654e-10 -2.89731e-10
4.16058e-11 -2.03421e-11 5.47058e-11
4.47071e-11 6.35216e-11 -3.35595e-11
-1.60395e-10 3.19994e-10 -2.98138e-10
-1.3423e-10 -1.42098e-11 -9.6601e-11
-1.88359e-11 -1.89089e-12 6.24166e-12
-1.20681e-10 1.43728e-10 -2.77317e-10
1.05442e-10 -1.47297e-10 4.98155e-11
-4.89684e-11 -2.85011e-11 -1.10089e-10
4.65303e-10 6.04186e-11 -1.89354e-11
-2.41221e-11 -7.23979e-11 1.32487e-10
5.87632e-11 -1.69717e-10 -2.48029e-10
5.30866e-11 -3.50848e-11 2.13024e-11
-2.33101e-11 -3.01099e-10 -8.40263e-11
2.16675e-11 5.97384e-11 -1.65733e-11
4.9237e-10 -8.42535e-11 4.84527e-11
6.96099e-11 5.79143e-11 -1.02973e-10
5.56816e-10 2.76191e-10 -2.03683e-10
-1.6784e-10 -1.97603e-10 3.11928e-10
-2.72629e-11 1.43347e-11 4.7567e-11
8.71321e-11 2.41921e-10 -2.42512e-10
-3.12325e-11 1.559e-10 -6.36036e-10
-3.72002e-10 5.15901e-11 -1.85695e-10
-2.08725e-10 9.11723e-11 2.28458e-10
3.10468e-10 -2.63844e-10 3.34028e-11
3.03528e-11 -2.56222e-11 2.32339e-12
-3.19478e-11 -1.88626e-11 5.0824e-11
-1.70627e-11 9.53178e-12 1.3977e-12
3.74727e-10 2.15566e-10 -8.18794e-11
1.99303e-09 1.30888e-10 2.85803e-10
2.49973e-10 1.06367e-10 -3.14092e-11
-4.02683e-12 -1.68975e-11 4.55737e-12
9.60653e-11 2.53642e-10 -7.48821e-11
2.47243e-11 4.4628e-11 -3.33662e-11
-8.99503e-13 3.31042e-10 -2.99142e-10
9.90045e-11 -2.41707e-10 -1.11067e-10
-3.55331e-11 1.04616e-10 -4.91008e-11
8.619e-11 -1.12765e-12 1.79455e-12
6.75978e-11 1.20831e-10 -3.88947e-11
-3.39035e-11 2.60107e-11 -3.70043e-12
-2.72682e-11 -8.24107e-11 8.91974e-11
3.52384e-10 -7.83334e-10 1.00719e-09
-3.16223e-11 -2.45159e-11 6.46138e-12
-1.78733e-10 -2.39192e-10 1.59273e-10
-4.7657e-10 3.19539e-11 3.35476e-10
-2.79394e-10 3.16256e-10 -1.96302e-10
3.172e-10 1.68142e-10 -1.09402e-10
7.31243e-10 -5.20779e-10 1.39039e-10
-1.01472e-10 -2.511e-11 4.9619e-10
-3.22537e-10 2.53925e-11 5.54759e-11
6.37037e-11 3.41022e-10 4.3778e-10
-9.1602e-10 -9.17451e-10 -2.835e-10
1.14056e-09 3.31041e-10 1.57028e-09
2.39024e-10 2.45303e-10 -3.4336e-10
6.73543e-10 -3.09398e-10 3.22976e-10
-3.59401e-11 2.72231e-10 -2.21994e-10
2.03509e-10 2.99108e-10 -1.28531e-10
-8.15625e-10 -2.44146e-10 1.33252e-10
-4.28727e-11 -2.05852e-10 8.50961e-11
2.0863e-11 -4.03248e-12 2.6177e-12
3.84294e-11 -1.80208e-10 -5.50216e-10
-3.13628e-11 -1.51474e-11 5.31342e-11
-2.82191e-10 -5.11485e-11 -1.22017e-10
-2.1174e-10 2.33222e-10 -2.1597e-10
-1.93874e-10 -3.47831e-12 2.56789e-10
2.47924e-11 5.31973e-11 -1.37357e-10
-7.61755e-11 -4.03261e-10 -2.25771e-10
-5.10772e-10 -2.42995e-10 2.88986e-10
6.55305e-11 1.3865e-10 -6.26293e-11
7.36489e-10 2.27407e-10 2.37612e-10
-5.78843e-11 -1.19521e-10 -1.47472e-10
3.32619e-11 2.74637e-10 -3.42061e-10
5.50835e-11 -4.98432e-11 -1.13995e-11
-1.12557e-10 6.24254e-11 -1.20989e-10
-5.95143e-11 9.72651e-11 -7.95599e-11
6.05443e-11 2.28205e-10 -2.37014e-10
5.82196e-10 -8.53793e-10 -1.70594e-10
8.91862e-11 -5.5204e-11 4.30827e-11
2.57643e-10 -7.5353e-10 2.45583e-10
-6.33314e-11 1.01833e-10 3.51595e-11
-2.18415e-10 -3.48321e-11 2.37039e-10
3.66102e-11 2.22593e-11 -5.91854e-13
-1.86782e-10 4.74218e-10 1.27432e-10
-2.74703e-11 -7.39037e-11 -4.55242e-11
1.53196e-10 1.55324e-10 -1.29888e-10
-6.49189e-11 -1.70971e-10 8.25147e-11
-2.32455e-10 6.43626e-11 4.49351e-11
-4.05668e-10 2.57861e-10 -3.55792e-10
-1.46721e-10 2.61982e-10 -2.14308e-10
9.7396e-11 2.16919e-10 -1.84314e-10
-2.43642e-11 4.82213e-11 -5.59245e-11
2.78343e-10 -6.6346e-10 -1.75216e-10
5.47789e-10 6.45023e-11 -3.65888e-10
-1.99583e-10 3.80237e-10 -4.62279e-10
1.58509e-10 -4.05587e-10 -4.27906e-10
-1.58445e-10 -8.02195e-11 2.86785e-11
-5.73233e-11 1.74772e-10 -3.42352e-10
1.05307e-10 3.22757e-10 -3.79907e-10
-1.46323e-10 -9.20796e-11 -3.40513e-11
-7.02822e-10 3.79984e-10 -1.55496e-10
-5.78186e-11 -7.1996e-11 5.32396e-11
1.0567e-10 2.03565e-10 -2.06756e-10
-7.2086e-11 -7.97238e-10 5.84354e-10
3.79445e-11 1.11801e-10 -9.75685e-11
-3.19638e-11 -7.77324e-12 3.3496e-11
8.77336e-13 2.96967e-11 -2.74779e-11
-4.81407e-11 -1.97943e-10 4.94316e-11
6.03569e-12 5.79782e-10 -8.96589e-11
2.08846e-10 4.60014e-11 -6.6238e-10
1.1742e-09 -1.27026e-09 1.17251e-09
-2.55161e-10 2.39667e-11 -4.09913e-10
4.94007e-11 -1.43702e-10 1.23677e-10
1.44508e-11 2.0714e-10 -7.56339e-11
-3.01622e-10 -1.2774e-10 -3.19435e-11
-1.22142e-10 3.60727e-11 -1.3947e-11
4.80505e-10 5.90361e-10 -6.28164e-11
2.00063e-10 -2.02972e-11 -3.90042e-12
8.98679e-11 -3.51539e-10 3.39384e-10
2.45046e-10 9.39714e-11 -6.84198e-11
3.42149e-11 -6.92627e-10 8.64047e-10
-6.79615e-12 1.23223e-10 -4.62755e-11
2.3631e-11 4.9914e-12 -3.23115e-11
1.49457e-09 -1.90375e-10 -1.83461e-11
-6.67003e-11 6.28915e-11 -1.96519e-11
6.58395e-10 -4.70119e-10 5.83179e-11
2.72227e-11 5.73403e-11 -3.30069e-11
-2.23764e-10 5.37171e-11 -2.84373e-12
-6.00639e-11 1.3428e-10 -1.37823e-11
-2.48362e-10 -1.09459e-10 6.2785e-11
1.22471e-10 -1.92442e-10 4.65529e-11
-1.67322e-11 1.96611e-11 1.10967e-11
-1.00017e-12 -1.02009e-10 8.03164e-10
-1.02715e-10 1.47635e-10 -6.57331e-11
-3.10888e-10 -2.72178e-12 -1.13851e-10
-4.10175e-11 2.17336e-11 9.68223e-12
-2.08017e-10 1.903e-10 1.88604e-10
-7.51221e-11 4.94911e-11 -1.02872e-11
-5.50942e-11 -2.28964e-11 4.39679e-12
-1.23651e-11 -3.43345e-11 8.33783e-12
-3.31411e-10 6.52514e-10 4.27121e-11
-8.69772e-11 4.26905e-11 -3.27615e-11
4.61685e-13 4.01873e-11 -2.94321e-11
2.68446e-10 -6.69454e-10 -1.90684e-10
-1.14925e-10 -7.76575e-11 -1.22652e-10
-2.30624e-10 -9.5436e-10 -3.29746e-10
-3.64614e-10 1.39289e-10 -1.57379e-10
1.99281e-11 9.78461e-11 -3.68173e-11
-6.92191e-11 -3.47263e-10 2.28667e-10
-1.36284e-10 3.67235e-10 -3.65419e-10
-8.74489e-11 2.58161e-10 5.5524e-11
7.83228e-12 5.0274e-11 -2.12205e-11
-8.71594e-11 -3.65834e-10 2.52263e-10
-4.73654e-11 1.64388e-11 -3.42343e-12
-4.39313e-11 1.03745e-10 3.32993e-12
2.42107e-10 -1.0227e-10 8.85316e-11
-6.28723e-11 -1.3258e-11 5.85149e-13
-7.47773e-12 -9.81755e-11 8.83433e-11
5.47754e-12 1.17904e-10 -8.11946e-12
8.86288e-12 1.37387e-10 6.29131e-11
1.35262e-11 4.08743e-11 -8.58302e-12
2.77923e-10 -4.67675e-11 8.86315e-11
1.70778e-10 4.21674e-12 6.86547e-11
4.52476e-11 -3.00406e-11 -1.72552e-10
2.19937e-11 2.12972e-11 -5.24733e-12
-3.00145e-10 -3.53123e-10 1.36997e-10
7.32182e-12 -1.66247e-10 6.19616e-11
3.07443e-11 -1.58754e-10 7.18946e-11
-5.59608e-10 -3.91713e-10 -8.83468e-11
5.75051e-11 -1.0653e-10 6.82841e-10
8.42102e-11 -6.38489e-11 7.47184e-10
1.04891e-10 -1.71191e-10 2.48372e-10
5.17219e-11 -4.97024e-11 3.47329e-11
-2.11951e-10 6.43753e-12 -8.75758e-12
-2.77313e-11 8.20706e-11 -1.87025e-10
1.15859e-12 2.60483e-11 -1.4975e-11
-1.19467e-12 -1.55527e-11 2.77964e-12
5.05426e-12 2.38547e-11 -5.74098e-12
1.95629e-11 -9.05048e-12 3.96723e-12
3.30838e-11 2.41119e-10 -9.19488e-11
-1.04808e-10 -7.12195e-11 5.47207e-11
4.12465e-11 2.34142e-10 -8.63146e-11
-8.07734e-11 2.73867e-12 7.50338e-12
-9.53533e-12 -2.52792e-10 2.61079e-12
-1.17143e-11 -5.39664e-10 2.32703e-11
4.24665e-10 -4.70268e-10 -1.94e-10
9.16195e-12 -1.15249e-10 4.12879e-11
-9.60342e-11 -3.44854e-11 1.11041e-11
-1.16888e-12 3.79278e-11 -1.38497e-11
-6.96616e-11 9.32482e-11 -3.5572e-11
-2.40184e-12 1.87659e-12 -1.69598e-12
1.0796e-10 7.39319e-11 -2.22417e-11
5.78802e-12 -1.57898e-11 7.93172e-12
-3.49446e-13 7.55958e-14 1.46372e-13
4.27234e-12 3.26769e-12 -2.06338e-12
-7.96781e-13 7.27402e-11 -1.34683e-11
-4.23134e-12 -1.4923e-12 1.04091e-11
-1.49236e-10 2.3872e-10 -2.4051e-10
-1.14037e-10 -3.40873e-10 -1.82795e-10
-1.39236e-10 6.33663e-11 -3.36698e-11
-1.16376e-10 1.75902e-10 -1.76161e-10
3.87437e-10 4.45755e-11 -2.87439e-11
-9.62902e-12 -3.5062e-12 2.36569e-14
-1.27669e-10 6.46988e-11 -7.75482e-12
-1.13129e-13 1.10609e-10 -4.48133e-11
1.14989e-10 -1.01913e-11 -3.40901e-11
1.22094e-10 1.85569e-10 -7.0304e-11
-8.48653e-11 -7.45067e-11 3.40175e-11
-1.32772e-10 5.46083e-11 -9.9638e-12
8.80857e-13 4.86896e-11 -1.60679e-11
5.38207e-10 -2.92827e-10 -4.4487e-11
-1.3532e-10 -1.31529e-10 4.27646e-11
-1.05601e-10 6.61688e-11 -1.50082e-11
4.8997e-12 3.78018e-12 -1.70622e-12
-2.55544e-11 1.34942e-10 -4.91817e-11
6.79514e-11 3.28797e-11 -2.27906e-11
-5.31313e-11 5.04965e-11 3.5003e-10
1.90765e-10 -1.33064e-10 3.25258e-11
-1.44627e-11 6.6219e-11 -2.16211e-11
-7.4954e-11 8.21003e-12 1.25451e-12
-1.19753e-10 -9.40426e-12 9.88891e-12
-4.15925e-11 1.87715e-11 -8.38875e-12
-8.43879e-11 -4.68052e-11 2.32929e-11
-8.96468e-11 5.35613e-12 -4.12803e-12
-1.22389e-10 6.37302e-11 -1.42165e-11
-4.72154e-11 3.45859e-11 -8.48621e-12
9.48994e-11 4.763e-11 -1.76416e-11
5.79447e-10 -5.76887e-10 -5.7291e-10
4.16974e-12 -3.64168e-12 -9.62506e-12
-6.58093e-12 -1.35265e-11 3.8264e-12
-2.52301e-10 5.35875e-11 -1.10869e-11
9.16569e-12 -2.79003e-12 -1.96681e-13
1.19822e-11 1.4182e-11 -3.14515e-12
-3.88813e-11 2.38068e-11 -6.97524e-12
4.98137e-11 -2.56898e-11 5.74953e-12
-9.91429e-11 3.49771e-11 -3.17135e-12
-8.79755e-11 1.29864e-10 3.85167e-11
1.7065e-10 1.29268e-10 -6.01666e-11
7.28479e-11 8.3778e-11 -4.37302e-11
-2.92166e-11 -2.2092e-11 8.65147e-12
-7.06962e-11 -5.01856e-11 2.1898e-11
-2.73504e-10 -5.48122e-11 1.30381e-10
-7.82014e-11 -1.00791e-10 2.57084e-11
-6.99442e-11 3.5875e-11 -4.53191e-11
-5.05784e-10 5.64022e-11 2.20422e-11
-5.84493e-11 2.14801e-10 -4.19363e-10
-1.95788e-10 8.97073e-11 -2.10994e-11
1.34185e-10 -2.16293e-11 -3.37755e-13
-5.28152e-11 -1.90478e-10 -1.02903e-10
