# vtk DataFile Version 3.0
LIGGGHTS particles timestep 34800000
ASCII
DATASET POLYDATA
POINTS 283 float
0.172324 0.0166506 0.00827263
0.172716 0.0179867 0.007198
0.172809 0.0188537 0.00683723
0.172789 0.0187593 0.00686394
0.171905 0.015179 0.00897109
0.178345 0.0166725 0.0075607
0.172042 0.0157376 0.00860625
0.171886 0.0151352 0.00905889
0.17858 0.0177327 0.00710304
0.173038 0.0186076 0.00690731
0.172185 0.0162774 0.00845265
0.178541 0.0175443 0.00715715
0.173087 0.0179662 0.00713868
0.165945 0.0155302 0.00905364
0.172536 0.0167803 0.00803681
0.166335 0.0166268 0.00755228
0.178697 0.0183102 0.00699339
0.172731 0.0184762 0.00694407
0.172762 0.0177653 0.00733647
0.171925 0.0152228 0.0088833
0.172848 0.0190461 0.00680897
0.178501 0.0173558 0.00721128
0.172922 0.0179941 0.00715271
0.178441 0.0170735 0.00729241
0.166216 0.0162803 0.00802729
0.172693 0.0182955 0.00701782
0.178324 0.0165998 0.00762638
0.172904 0.0188847 0.00682859
0.173026 0.0180386 0.00710246
0.178363 0.0167454 0.00749478
0.172674 0.0182073 0.00706109
0.173118 0.0180613 0.00706934
0.178638 0.0180194 0.00703821
0.172021 0.0156491 0.00864755
0.173033 0.0182246 0.00701583
0.172061 0.0158326 0.00863103
0.172793 0.0179268 0.00722276
0.172077 0.0159305 0.00861797
0.172884 0.0187903 0.0068553
0.172844 0.0181692 0.00705341
0.178383 0.016818 0.00742909
0.178461 0.0171676 0.00726536
0.171962 0.0153836 0.00877235
0.172643 0.0172409 0.00770909
0.17842 0.0169805 0.00732284
0.172938 0.0181923 0.00702481
0.166973 0.0179738 0.00719394
0.166727 0.0176202 0.00725824
0.173017 0.0185133 0.00693398
0.1784 0.0168911 0.00736284
0.166449 0.0167329 0.0074761
0.178521 0.0174501 0.00718421
0.172656 0.0181263 0.00711688
0.171942 0.0153093 0.00883642
0.172163 0.016189 0.00849402
0.172826 0.0185072 0.00693544
0.178481 0.0172617 0.00723833
0.172135 0.015851 0.00856573
0.166914 0.0176885 0.00726534
0.173102 0.0181541 0.00703589
0.166389 0.0166963 0.00760267
0.172473 0.0163374 0.00834403
0.178733 0.0180516 0.00703598
0.166511 0.0170159 0.00739767
0.178561 0.0176383 0.00713014
0.17198 0.0154724 0.00873041
0.172485 0.0174072 0.0076295
0.171999 0.0155647 0.00869655
0.178678 0.0182133 0.00700833
0.17308 0.0187956 0.0068541
0.166008 0.0157033 0.00881677
0.166113 0.0159917 0.00842223
0.17281 0.0180074 0.00716587
0.166837 0.0180726 0.00723563
0.166504 0.0165973 0.00756348
0.16603 0.0157608 0.00873813
0.178619 0.0179226 0.00705372
0.166423 0.016641 0.00750643
0.172865 0.0186959 0.00688201
0.1786 0.017827 0.00707598
0.172277 0.0163256 0.00834949
0.172827 0.0180878 0.00710909
0.172501 0.0173236 0.00768197
0.172186 0.0159646 0.00851726
0.172338 0.0166299 0.00817587
0.172469 0.0169819 0.00791577
0.17257 0.0171514 0.00778301
0.172998 0.0184189 0.0069607
0.172782 0.0176819 0.00738809
0.172686 0.017825 0.00731176
0.166544 0.0167638 0.00747173
0.172623 0.0179652 0.00723067
0.16632 0.016569 0.00763245
0.172957 0.0182867 0.0069981
0.172255 0.0162371 0.0083908
0.166413 0.0165923 0.00760428
0.166702 0.0178452 0.00727918
0.172139 0.0161014 0.00853565
0.165966 0.0155879 0.00897467
0.173044 0.0183338 0.0069849
0.17277 0.0186649 0.00689065
0.173159 0.0187361 0.00687106
0.172173 0.0162796 0.00835342
0.166174 0.0161649 0.0081851
0.17306 0.0187013 0.00688078
0.166482 0.0170906 0.00745762
0.172711 0.0183818 0.00697078
0.172639 0.0180459 0.0071738
0.172231 0.0161444 0.00843365
0.166934 0.0177836 0.00724152
0.178303 0.0165274 0.00769183
0.172377 0.0163653 0.00834435
0.172306 0.0160927 0.00847439
0.172528 0.0175657 0.00751546
0.167067 0.018008 0.00719748
0.172766 0.0182283 0.00702728
0.172353 0.0162752 0.00838978
0.172139 0.0157624 0.00861191
0.16607 0.0158764 0.0085799
0.173116 0.0185479 0.00692435
0.166196 0.0162225 0.00810636
0.172151 0.0161911 0.00839472
0.16692 0.0185775 0.00701811
0.172591 0.0178038 0.0073444
0.172579 0.0169943 0.00788576
0.172621 0.0170703 0.00782699
0.172227 0.0164548 0.00837013
0.166958 0.018324 0.00709405
0.172368 0.0169995 0.00792394
0.172647 0.0176652 0.00742571
0.172206 0.016366 0.00841138
0.172988 0.0188338 0.00684312
0.166481 0.0167173 0.00757218
0.172087 0.0159255 0.00851863
0.17242 0.0165755 0.00819606
0.172778 0.017846 0.0072796
0.172456 0.0172537 0.0077374
0.165989 0.0156454 0.00889614
0.172101 0.0160185 0.00857692
0.172298 0.0164145 0.00830808
0.172253 0.0159049 0.00856061
0.166606 0.0170487 0.00740084
0.173131 0.0183814 0.00697154
0.166258 0.0163958 0.00786949
0.166133 0.0160497 0.00834329
0.166905 0.0184798 0.00704317
0.172921 0.0185389 0.00692658
0.166801 0.017559 0.00728565
0.172327 0.0161817 0.00843278
0.166687 0.0174293 0.00730598
0.172426 0.0169918 0.00800529
0.16686 0.0178446 0.00721415
0.172571 0.0177244 0.00740141
0.16684 0.0186318 0.00699185
0.172468 0.01717 0.00779077
0.166368 0.0167942 0.00756988
0.172926 0.0180768 0.00709676
0.166737 0.0185109 0.00706529
0.166491 0.0169207 0.00742056
0.172787 0.0183184 0.00698886
0.166899 0.0180349 0.00716656
0.172882 0.01835 0.00698004
0.166667 0.017334 0.00732979
0.166675 0.0182202 0.00709386
0.166377 0.0164785 0.00776471
0.167014 0.018164 0.00714651
0.166626 0.0171436 0.00737722
0.166463 0.0168111 0.00754282
0.173138 0.0186416 0.00689781
0.167048 0.0179128 0.00722132
0.172845 0.0186015 0.00690873
0.166825 0.0180958 0.0071392
0.172901 0.0184446 0.00695329
0.166532 0.0171107 0.00737325
0.166613 0.0174905 0.00727858
0.178658 0.0181164 0.00702326
0.172284 0.0167098 0.0082012
0.172329 0.0165156 0.00825427
0.166375 0.0167979 0.00745753
0.172701 0.017906 0.00725486
0.166602 0.0178092 0.00727559
0.172751 0.0181475 0.00708413
0.17213 0.0161025 0.00843602
0.16677 0.0182518 0.00708803
0.166565 0.0168587 0.00744813
0.172209 0.0160558 0.00847498
0.167008 0.0177226 0.0072689
0.166865 0.018286 0.00709177
0.166091 0.0159343 0.00850114
0.166652 0.0176812 0.00723082
0.166716 0.0184133 0.00706824
0.173003 0.0181217 0.00705171
0.166712 0.0182825 0.00716394
0.16647 0.0168257 0.00744421
0.166647 0.0172389 0.00735349
0.166299 0.0165111 0.00771133
0.166919 0.0181301 0.00714273
0.166237 0.016338 0.00794819
0.172806 0.0184128 0.00696215
0.172292 0.0167453 0.00810806
0.178736 0.018504 0.00696353
0.172506 0.0174865 0.00757248
0.166398 0.0165362 0.00768565
0.172402 0.0171141 0.00784098
0.172215 0.0164566 0.00827081
0.172194 0.0163681 0.00831212
0.173173 0.0184688 0.00694683
0.166356 0.016715 0.00750997
0.173122 0.0182701 0.00700306
0.166154 0.0161072 0.00826405
0.166051 0.0158185 0.00865927
0.178717 0.0184071 0.00697846
0.166746 0.0177153 0.00723442
0.166781 0.017463 0.00730967
0.166552 0.0172066 0.0073537
0.166821 0.0176543 0.0072618
0.166695 0.0183156 0.00707126
0.166416 0.0169819 0.00739309
0.166585 0.0169537 0.00742448
0.172668 0.0177446 0.00736869
0.172862 0.0182557 0.00700675
0.166557 0.0176492 0.00723619
0.166498 0.017362 0.00729927
0.166635 0.0180277 0.00713355
0.166573 0.0173004 0.00732605
0.160432 0.0170488 0.00736025
0.166478 0.0172669 0.00732225
0.166593 0.0173954 0.00730235
0.160411 0.0169607 0.00740311
0.160451 0.0171373 0.007318
0.166457 0.0171719 0.00734582
0.160491 0.0173264 0.00726677
0.172986 0.0179249 0.00718612
0.172733 0.0180672 0.00714109
0.166437 0.0170769 0.00736946
0.172109 0.016014 0.00847733
0.215741 0.019982 0.00563384
0.160471 0.0172319 0.00729239
0.16694 0.0182253 0.00711911
0.166707 0.0175244 0.00728225
0.166279 0.0164533 0.00779041
0.16674 0.0180338 0.00723121
0.166655 0.0181255 0.00711932
0.166711 0.0179666 0.00715938
0.166807 0.0184443 0.00703958
0.172942 0.0186347 0.00689947
0.166538 0.0175543 0.00726085
0.16675 0.018158 0.00711641
0.160531 0.0175156 0.00721552
0.166671 0.0177771 0.00721023
0.166396 0.0168869 0.00741673
0.172237 0.0165452 0.0082295
0.166954 0.0178787 0.00721774
0.166883 0.018385 0.00706668
0.166879 0.0179397 0.00719034
0.166785 0.0179056 0.00718679
0.166616 0.0179345 0.00716416
0.166844 0.0181911 0.00711535
0.166766 0.0178105 0.0072106
0.166791 0.018347 0.00706441
0.166755 0.0183764 0.00715284
0.166596 0.0178368 0.00717965
0.172609 0.0178842 0.00728747
0.404182 0.0211142 0.0056569
0.16057 0.0177049 0.00716416
0.166993 0.0180691 0.00717009
0.16055 0.0176103 0.00718984
0.160511 0.017421 0.00724116
0.166633 0.0175863 0.00725755
0.166518 0.0174592 0.00728469
0.166805 0.0180007 0.00716298
0.172967 0.0187366 0.00687064
0.166691 0.0178714 0.00718324
0.166895 0.0175931 0.0072892
0.16673 0.0180617 0.00713561
0.166752 0.018586 0.00700086
0.172923 0.0189801 0.00680157
0.166577 0.0177417 0.00720346
0.166523 0.0166683 0.00749543
0.172549 0.017645 0.00745843
0.17275 0.0185706 0.00691736
0.16684 0.0177495 0.00723796
0.172828 0.018948 0.00681052

VERTICES 283 566
1 0
1 1
1 2
1 3
1 4
1 5
1 6
1 7
1 8
1 9
1 10
1 11
1 12
1 13
1 14
1 15
1 16
1 17
1 18
1 19
1 20
1 21
1 22
1 23
1 24
1 25
1 26
1 27
1 28
1 29
1 30
1 31
1 32
1 33
1 34
1 35
1 36
1 37
1 38
1 39
1 40
1 41
1 42
1 43
1 44
1 45
1 46
1 47
1 48
1 49
1 50
1 51
1 52
1 53
1 54
1 55
1 56
1 57
1 58
1 59
1 60
1 61
1 62
1 63
1 64
1 65
1 66
1 67
1 68
1 69
1 70
1 71
1 72
1 73
1 74
1 75
1 76
1 77
1 78
1 79
1 80
1 81
1 82
1 83
1 84
1 85
1 86
1 87
1 88
1 89
1 90
1 91
1 92
1 93
1 94
1 95
1 96
1 97
1 98
1 99
1 100
1 101
1 102
1 103
1 104
1 105
1 106
1 107
1 108
1 109
1 110
1 111
1 112
1 113
1 114
1 115
1 116
1 117
1 118
1 119
1 120
1 121
1 122
1 123
1 124
1 125
1 126
1 127
1 128
1 129
1 130
1 131
1 132
1 133
1 134
1 135
1 136
1 137
1 138
1 139
1 140
1 141
1 142
1 143
1 144
1 145
1 146
1 147
1 148
1 149
1 150
1 151
1 152
1 153
1 154
1 155
1 156
1 157
1 158
1 159
1 160
1 161
1 162
1 163
1 164
1 165
1 166
1 167
1 168
1 169
1 170
1 171
1 172
1 173
1 174
1 175
1 176
1 177
1 178
1 179
1 180
1 181
1 182
1 183
1 184
1 185
1 186
1 187
1 188
1 189
1 190
1 191
1 192
1 193
1 194
1 195
1 196
1 197
1 198
1 199
1 200
1 201
1 202
1 203
1 204
1 205
1 206
1 207
1 208
1 209
1 210
1 211
1 212
1 213
1 214
1 215
1 216
1 217
1 218
1 219
1 220
1 221
1 222
1 223
1 224
1 225
1 226
1 227
1 228
1 229
1 230
1 231
1 232
1 233
1 234
1 235
1 236
1 237
1 238
1 239
1 240
1 241
1 242
1 243
1 244
1 245
1 246
1 247
1 248
1 249
1 250
1 251
1 252
1 253
1 254
1 255
1 256
1 257
1 258
1 259
1 260
1 261
1 262
1 263
1 264
1 265
1 266
1 267
1 268
1 269
1 270
1 271
1 272
1 273
1 274
1 275
1 276
1 277
1 278
1 279
1 280
1 281
1 282

POINT_DATA 283
SCALARS id int 1
LOOKUP_TABLE default
1
2
3
4
5
6
7
8
9
10
11
12
13
14
15
16
18
19
20
21
22
24
25
26
27
29
30
31
32
33
34
35
36
37
38
40
41
42
43
44
45
46
47
48
49
50
52
55
56
57
58
59
60
61
62
63
64
65
66
67
68
69
70
71
72
73
74
75
76
77
78
79
80
81
82
83
84
85
86
87
88
89
90
91
92
93
94
95
96
98
99
100
101
102
103
104
105
106
107
108
109
110
111
112
113
114
115
116
117
118
119
120
121
122
123
124
125
126
127
128
129
130
131
132
133
134
135
136
137
138
139
140
141
142
144
145
146
147
148
149
150
152
153
154
155
156
157
158
159
160
161
162
164
165
166
167
168
169
170
171
172
173
174
175
176
177
178
179
180
181
182
183
184
185
186
187
188
189
190
191
192
193
194
195
196
197
198
199
200
201
202
203
204
205
206
207
208
209
210
211
213
214
215
217
218
219
220
221
222
223
224
225
226
227
228
229
230
231
232
233
234
235
236
237
238
239
241
242
243
244
245
246
247
248
249
250
251
252
253
254
255
256
257
258
259
260
261
262
263
264
265
267
268
269
270
271
272
273
274
275
276
277
278
279
280
281
282
283
284
285
286
287
288
289
290
292
293
294
295
296
297
298
300

SCALARS type int 1
LOOKUP_TABLE default
1
1
1
1
1
1
1
1
1
1
1
1
1
1
1
1
1
1
1
1
1
1
1
1
1
1
1
1
1
1
1
1
1
1
1
1
1
1
1
1
1
1
1
1
1
1
1
1
1
1
1
1
1
1
1
1
1
1
1
1
1
1
1
1
1
1
1
1
1
1
1
1
1
1
1
1
1
1
1
1
1
1
1
1
1
1
1
1
1
1
1
1
1
1
1
1
1
1
1
1
1
1
1
1
1
1
1
1
1
1
1
1
1
1
1
1
1
1
1
1
1
1
1
1
1
1
1
1
1
1
1
1
1
1
1
1
1
1
1
1
1
1
1
1
1
1
1
1
1
1
1
1
1
1
1
1
1
1
1
1
1
1
1
1
1
1
1
1
1
1
1
1
1
1
1
1
1
1
1
1
1
1
1
1
1
1
1
1
1
1
1
1
1
1
1
1
1
1
1
1
1
1
1
1
1
1
1
1
1
1
1
1
1
1
1
1
1
1
1
1
1
1
1
1
1
1
1
1
1
1
1
1
1
1
1
1
1
1
1
1
1
1
1
1
1
1
1
1
1
1
1
1
1
1
1
1
1
1
1
1
1
1
1
1
1
1
1
1
1
1
1
1
1
1
1
1
1
1
1
1
1
1
1

SCALARS radius float 1
LOOKUP_TABLE default
5e-05
5e-05
5e-05
5e-05
5e-05
5e-05
5e-05
5e-05
5e-05
5e-05
5e-05
5e-05
5e-05
5e-05
5e-05
5e-05
5e-05
5e-05
5e-05
5e-05
5e-05
5e-05
5e-05
5e-05
5e-05
5e-05
5e-05
5e-05
5e-05
5e-05
5e-05
5e-05
5e-05
5e-05
5e-05
5e-05
5e-05
5e-05
5e-05
5e-05
5e-05
5e-05
5e-05
5e-05
5e-05
5e-05
5e-05
5e-05
5e-05
5e-05
5e-05
5e-05
5e-05
5e-05
5e-05
5e-05
5e-05
5e-05
5e-05
5e-05
5e-05
5e-05
5e-05
5e-05
5e-05
5e-05
5e-05
5e-05
5e-05
5e-05
5e-05
5e-05
5e-05
5e-05
5e-05
5e-05
5e-05
5e-05
5e-05
5e-05
5e-05
5e-05
5e-05
5e-05
5e-05
5e-05
5e-05
5e-05
5e-05
5e-05
5e-05
5e-05
5e-05
5e-05
5e-05
5e-05
5e-05
5e-05
5e-05
5e-05
5e-05
5e-05
5e-05
5e-05
5e-05
5e-05
5e-05
5e-05
5e-05
5e-05
5e-05
5e-05
5e-05
5e-05
5e-05
5e-05
5e-05
5e-05
5e-05
5e-05
5e-05
5e-05
5e-05
5e-05
5e-05
5e-05
5e-05
5e-05
5e-05
5e-05
5e-05
5e-05
5e-05
5e-05
5e-05
5e-05
5e-05
5e-05
5e-05
5e-05
5e-05
5e-05
5e-05
5e-05
5e-05
5e-05
5e-05
5e-05
5e-05
5e-05
5e-05
5e-05
5e-05
5e-05
5e-05
5e-05
5e-05
5e-05
5e-05
5e-05
5e-05
5e-05
5e-05
5e-05
5e-05
5e-05
5e-05
5e-05
5e-05
5e-05
5e-05
5e-05
5e-05
5e-05
5e-05
5e-05
5e-05
5e-05
5e-05
5e-05
5e-05
5e-05
5e-05
5e-05
5e-05
5e-05
5e-05
5e-05
5e-05
5e-05
5e-05
5e-05
5e-05
5e-05
5e-05
5e-05
5e-05
5e-05
5e-05
5e-05
5e-05
5e-05
5e-05
5e-05
5e-05
5e-05
5e-05
5e-05
5e-05
5e-05
5e-05
5e-05
5e-05
5e-05
5e-05
5e-05
5e-05
5e-05
5e-05
5e-05
5e-05
5e-05
5e-05
5e-05
5e-05
5e-05
5e-05
5e-05
5e-05
5e-05
5e-05
5e-05
5e-05
5e-05
5e-05
5e-05
5e-05
5e-05
5e-05
5e-05
5e-05
5e-05
5e-05
5e-05
5e-05
5e-05
5e-05
5e-05
5e-05
5e-05
5e-05
5e-05
5e-05
5e-05
5e-05
5e-05
5e-05
5e-05
5e-05
5e-05
5e-05
5e-05
5e-05
5e-05
5e-05
5e-05
5e-05
5e-05
5e-05
5e-05
5e-05
5e-05
5e-05
5e-05
5e-05
5e-05
5e-05
5e-05
5e-05
5e-05
5e-05
5e-05
5e-05

SCALARS mass float 1
LOOKUP_TABLE default
1.46608e-10
1.46608e-10
1.46608e-10
1.46608e-10
1.46608e-10
1.46608e-10
1.46608e-10
1.46608e-10
1.46608e-10
1.46608e-10
1.46608e-10
1.46608e-10
1.46608e-10
1.46608e-10
1.46608e-10
1.46608e-10
1.46608e-10
1.46608e-10
1.46608e-10
1.46608e-10
1.46608e-10
1.46608e-10
1.46608e-10
1.46608e-10
1.46608e-10
1.46608e-10
1.46608e-10
1.46608e-10
1.46608e-10
1.46608e-10
1.46608e-10
1.46608e-10
1.46608e-10
1.46608e-10
1.46608e-10
1.46608e-10
1.46608e-10
1.46608e-10
1.46608e-10
1.46608e-10
1.46608e-10
1.46608e-10
1.46608e-10
1.46608e-10
1.46608e-10
1.46608e-10
1.46608e-10
1.46608e-10
1.46608e-10
1.46608e-10
1.46608e-10
1.46608e-10
1.46608e-10
1.46608e-10
1.46608e-10
1.46608e-10
1.46608e-10
1.46608e-10
1.46608e-10
1.46608e-10
1.46608e-10
1.46608e-10
1.46608e-10
1.46608e-10
1.46608e-10
1.46608e-10
1.46608e-10
1.46608e-10
1.46608e-10
1.46608e-10
1.46608e-10
1.46608e-10
1.46608e-10
1.46608e-10
1.46608e-10
1.46608e-10
1.46608e-10
1.46608e-10
1.46608e-10
1.46608e-10
1.46608e-10
1.46608e-10
1.46608e-10
1.46608e-10
1.46608e-10
1.46608e-10
1.46608e-10
1.46608e-10
1.46608e-10
1.46608e-10
1.46608e-10
1.46608e-10
1.46608e-10
1.46608e-10
1.46608e-10
1.46608e-10
1.46608e-10
1.46608e-10
1.46608e-10
1.46608e-10
1.46608e-10
1.46608e-10
1.46608e-10
1.46608e-10
1.46608e-10
1.46608e-10
1.46608e-10
1.46608e-10
1.46608e-10
1.46608e-10
1.46608e-10
1.46608e-10
1.46608e-10
1.46608e-10
1.46608e-10
1.46608e-10
1.46608e-10
1.46608e-10
1.46608e-10
1.46608e-10
1.46608e-10
1.46608e-10
1.46608e-10
1.46608e-10
1.46608e-10
1.46608e-10
1.46608e-10
1.46608e-10
1.46608e-10
1.46608e-10
1.46608e-10
1.46608e-10
1.46608e-10
1.46608e-10
1.46608e-10
1.46608e-10
1.46608e-10
1.46608e-10
1.46608e-10
1.46608e-10
1.46608e-10
1.46608e-10
1.46608e-10
1.46608e-10
1.46608e-10
1.46608e-10
1.46608e-10
1.46608e-10
1.46608e-10
1.46608e-10
1.46608e-10
1.46608e-10
1.46608e-10
1.46608e-10
1.46608e-10
1.46608e-10
1.46608e-10
1.46608e-10
1.46608e-10
1.46608e-10
1.46608e-10
1.46608e-10
1.46608e-10
1.46608e-10
1.46608e-10
1.46608e-10
1.46608e-10
1.46608e-10
1.46608e-10
1.46608e-10
1.46608e-10
1.46608e-10
1.46608e-10
1.46608e-10
1.46608e-10
1.46608e-10
1.46608e-10
1.46608e-10
1.46608e-10
1.46608e-10
1.46608e-10
1.46608e-10
1.46608e-10
1.46608e-10
1.46608e-10
1.46608e-10
1.46608e-10
1.46608e-10
1.46608e-10
1.46608e-10
1.46608e-10
1.46608e-10
1.46608e-10
1.46608e-10
1.46608e-10
1.46608e-10
1.46608e-10
1.46608e-10
1.46608e-10
1.46608e-10
1.46608e-10
1.46608e-10
1.46608e-10
1.46608e-10
1.46608e-10
1.46608e-10
1.46608e-10
1.46608e-10
1.46608e-10
1.46608e-10
1.46608e-10
1.46608e-10
1.46608e-10
1.46608e-10
1.46608e-10
1.46608e-10
1.46608e-10
1.46608e-10
1.46608e-10
1.46608e-10
1.46608e-10
1.46608e-10
1.46608e-10
1.46608e-10
1.46608e-10
1.46608e-10
1.46608e-10
1.46608e-10
1.46608e-10
1.46608e-10
1.46608e-10
1.46608e-10
1.46608e-10
1.46608e-10
1.46608e-10
1.46608e-10
1.46608e-10
1.46608e-10
1.46608e-10
1.46608e-10
1.46608e-10
1.46608e-10
1.46608e-10
1.46608e-10
1.46608e-10
1.46608e-10
1.46608e-10
1.46608e-10
1.46608e-10
1.46608e-10
1.46608e-10
1.46608e-10
1.46608e-10
1.46608e-10
1.46608e-10
1.46608e-10
1.46608e-10
1.46608e-10
1.46608e-10
1.46608e-10
1.46608e-10
1.46608e-10
1.46608e-10
1.46608e-10
1.46608e-10
1.46608e-10
1.46608e-10
1.46608e-10
1.46608e-10
1.46608e-10
1.46608e-10
1.46608e-10
1.46608e-10
1.46608e-10
1.46608e-10
1.46608e-10
1.46608e-10
1.46608e-10
1.46608e-10
1.46608e-10
1.46608e-10
1.46608e-10
1.46608e-10

VECTORS velocity float
0.00659815 0.00940327 -0.00760434
0.00432487 -3.9844e-05 -0.000824884
0.00453103 0.000313116 -8.0256e-05
0.00452473 0.000329624 -8.78967e-05
0.00453081 2.17442e-05 -0.000693216
0.00438253 -0.000206619 0.000355366
0.00465501 0.000785635 0.000479937
0.00450866 3.12753e-05 -0.000700624
0.00428265 -0.000218496 -2.66068e-05
0.00455734 0.000314949 -8.2808e-05
0.00455144 0.000823539 0.000443297
0.00438188 -0.000223407 -2.71123e-05
0.0150308 0.00733443 -0.00784348
0.00404571 -0.000666961 0.00133364
0.00998358 0.0319039 -0.023209
0.0043295 -0.000467887 0.00103093
0.00433432 -0.000255364 0.000175595
0.00443046 0.000369895 -0.000103243
0.0041844 -3.26947e-05 -0.000801913
0.00456619 1.84753e-05 -0.00067919
0.00451367 0.000277364 7.40311e-05
0.00447985 -0.00023829 -2.33329e-05
0.00393921 0.00504806 -0.00413746
0.00456823 -0.000261126 6.05488e-05
0.00451052 -0.000436302 0.00104371
0.00445522 0.000261201 -0.000277821
0.00479165 -0.000264083 0.000425612
0.00453621 0.000285725 -5.94783e-05
0.00681466 0.00146582 -0.00234086
0.00427261 -0.000183005 0.000330218
0.00438007 8.00173e-05 -0.000642875
0.00711219 0.000931644 -0.00203118
0.0043146 -0.000230718 0.000162144
0.00467697 0.000779022 0.000487969
0.00450181 0.000648938 -0.000182199
0.00462746 0.000804041 0.000461994
0.00428991 -5.20008e-05 -0.000810562
0.00462387 0.000810211 0.00045792
0.00454008 0.000329056 -8.65806e-05
0.00436259 0.000403588 -0.000328752
0.00444629 -0.000194555 0.000347705
0.00455943 -0.000267422 -1.74162e-05
0.00442385 0.000803346 0.000426655
0.013809 0.0251501 -0.0194654
0.00455166 -0.000217228 0.000240934
0.00448303 0.000732265 -8.24393e-05
0.00430719 -0.000507921 0.000740861
0.00417434 -0.000530681 0.000722994
0.00450323 0.000342559 -9.0156e-05
0.00453513 -0.000183827 0.000355191
0.00435369 -0.00047181 0.000959556
0.00442124 -0.000226705 -2.64097e-05
0.00431058 -3.4756e-05 -0.000822007
0.00448125 0.000353243 -8.25309e-05
0.00456388 0.000827596 0.000448629
0.00444915 0.000358724 -9.23933e-05
0.00453077 -0.000254941 -2.64206e-05
0.00462273 0.000815008 0.000458468
0.00418809 -0.000519452 0.000727864
0.00522109 0.00122222 -0.000328933
0.00448211 -0.000628509 0.000934259
0.00820761 0.00783059 -0.00685241
0.00431279 -0.000255424 0.000173903
0.0042896 -0.000500378 0.000731936
0.00433527 -0.000216707 -2.72477e-05
0.00454792 0.000788505 0.000456001
0.00482584 -0.000106335 -0.000880024
0.00468311 0.00077139 0.000484739
0.00433074 -0.000251263 0.000174252
0.00452659 0.00031598 -8.36576e-05
0.0041628 -0.00058167 0.00122543
0.00433874 -0.000408874 0.00100417
0.00429679 -4.96804e-05 -0.000816151
0.00428702 -0.000487132 0.00073769
0.00452958 -0.00121652 7.80005e-05
0.00423365 -0.000541751 0.001176
0.00423473 -0.000231006 1.75646e-06
0.00416679 -0.000752282 0.000208735
0.00453461 0.000327407 -8.66272e-05
0.00423693 -0.000222485 -2.28745e-05
0.00454477 0.000796153 0.000453727
0.00429802 8.75718e-05 -0.000691874
0.0032343 -0.000195628 -0.000506424
0.00459847 0.000822816 0.000449116
0.00732465 0.00905973 -0.00745974
0.0142414 0.0242612 -0.0189575
0.0136033 0.0265248 -0.0203402
0.00447633 0.000322038 -8.44146e-05
0.00400366 -3.76457e-05 -0.000763575
0.00424777 -1.42031e-05 -0.000826575
0.00422015 -0.000598975 0.00074062
0.00427924 -2.4989e-05 -0.000826647
0.00449629 -0.000461419 0.00100606
0.0043642 0.00091484 -0.000278075
0.00456118 0.00082127 0.000443209
0.00451599 -0.000816168 5.02965e-05
0.00409537 -0.000620613 0.000717178
0.00459554 0.000824075 0.000450062
0.0040862 -0.000647432 0.00131169
0.0044431 0.000348529 -9.92913e-05
0.00451174 0.000342879 -9.05038e-05
0.00452298 0.000333517 -8.67666e-05
0.00454592 0.000805307 0.000447996
0.00448274 -0.000418475 0.000991799
0.00454922 0.000317537 -8.36947e-05
0.00446177 -0.000562748 0.000868178
0.0044049 0.00038086 -0.00011043
0.00429129 -2.92367e-05 -0.000824649
0.00457362 0.000831726 0.000440906
0.00418838 -0.00049969 0.000722036
0.00476975 -0.000267347 0.000426027
0.00658065 0.00192789 -0.00254933
0.00457825 0.000839039 0.000437626
0.00495347 -0.000141644 -0.000881215
0.00440995 -0.000734082 0.000818842
0.00433361 4.71048e-05 -0.000886718
0.00457105 0.00081425 0.000448809
0.00464551 0.000818998 0.000460207
0.00430689 -0.000463317 0.00107232
0.0045652 0.000303814 -7.85418e-05
0.00449362 -0.000424936 0.00101778
0.00456508 0.000815441 0.000447972
0.0022465 0.000791123 9.18354e-05
0.00490305 -0.000168456 -0.00085425
0.0150744 0.033271 -0.0251218
0.0183247 0.0260514 -0.0209547
0.00451397 0.000810695 0.000462612
0.00448249 -0.000636621 0.000801388
0.00937193 0.0145727 -0.0115487
0.00489884 -0.000163219 -0.00085572
0.00453421 0.000817519 0.0004566
0.00452675 0.000296232 -7.90781e-05
0.00440736 -0.00051324 0.000760689
0.00462474 0.000813231 0.000458713
0.0105449 0.0125955 -0.0104636
0.0042648 -4.49099e-05 -0.000809255
0.000500083 0.0012061 -0.000901579
0.00410344 -0.000616443 0.00126819
0.00462428 0.000814369 0.000456248
0.00454809 0.000826826 0.000435256
0.00457618 0.000809938 0.000451892
0.00395879 -0.00049355 0.000688223
0.00443735 0.000294152 -7.55611e-05
0.00463248 -0.00042943 0.00109348
0.00438406 -0.000405301 0.000989563
-4.96889e-06 0.000217241 -6.08706e-05
0.00450184 0.000321681 -8.36305e-05
0.00416912 -0.000536218 0.000730828
0.00457874 0.000835228 0.000439358
0.00419586 -0.000566213 0.000742709
0.0170953 0.0202025 -0.0171279
0.00414819 -0.000507452 0.000721494
0.00491696 -0.000167475 -0.000856607
0.00291672 0.00168987 -6.64723e-05
0.00130802 0.00118718 -0.00104759
0.00433574 -0.000387651 0.000569453
0.00430815 0.00468127 -0.00395487
0.00448833 -0.000643919 0.000802567
0.00432805 -0.000480509 0.000740098
0.00421367 0.000439784 -9.77061e-05
0.0042954 -0.000501309 0.00073568
0.00433533 0.000741205 -0.000215004
0.00411084 -0.000654018 0.000753121
0.00415781 -0.000885077 -0.000174787
0.00490222 -0.000248173 0.000799227
0.0043912 -0.000714762 0.00081086
0.00407507 -0.000547706 0.000727701
0.00440655 -0.00050699 0.000724556
0.00455776 0.000318755 -8.27868e-05
0.00421678 -0.000606436 0.000756789
0.00450853 0.000333138 -8.94156e-05
0.00423688 -0.000539425 0.00074212
0.00443845 0.000307388 -8.17612e-05
0.0042282 -0.000513 0.000737739
0.00419529 -0.000545283 0.000738426
0.00432815 -0.000245828 0.000174776
0.00733672 0.00918804 -0.00795109
0.00641713 0.00455965 -0.00226882
0.00439389 -0.000553082 0.000846321
0.00428658 -4.16606e-05 -0.000816814
0.00422876 -0.00105608 0.000653663
0.00445544 4.4563e-05 -0.000911355
0.00458597 0.000818254 0.000450346
0.00445024 -0.000629373 0.000789318
0.0042202 -0.00040636 0.000698808
0.00458017 0.000810258 0.000452644
0.00416527 -0.000547105 0.000732433
0.00446239 -0.000640137 0.000798254
0.00434469 -0.000434804 0.00103449
0.00409881 -0.000508247 0.000711392
0.00447238 -0.000634852 0.000786203
0.00677358 0.00175325 -0.00225802
0.00447939 -0.000612445 0.000788204
0.00439676 -0.000483874 0.000765185
0.00390432 -0.000634129 0.000719904
0.00464758 -0.000473449 0.00104202
0.00446803 -0.000645052 0.000799558
0.00458254 -0.00042794 0.00107889
0.00433675 0.000447422 -0.000120349
0.00766574 0.00935977 -0.00774181
0.00433268 -0.000278526 0.000178912
0.00489417 -0.000114498 -0.0008878
0.0046876 -0.000174337 0.000714968
0.00471833 -0.00173941 0.000231093
0.00451145 0.000791197 0.00045319
0.00452885 0.00079177 0.000452765
0.00452931 0.000262575 -6.80044e-05
0.00438374 -0.000516409 0.000984213
0.00331754 0.00287262 -0.000810172
0.00443759 -0.000403555 0.000990605
0.00426475 -0.000499987 0.00111955
0.00433408 -0.000267565 0.00017725
0.00408819 -0.000515384 0.000705084
0.00416962 -0.000577311 0.000743243
0.00413846 -0.00050794 0.00074236
0.00417826 -0.000532981 0.000733789
0.00445071 -0.000634699 0.000781985
0.00440769 -0.00050732 0.000762249
0.00398684 -0.000471282 0.000684777
0.00490608 -0.000174055 -0.000850156
0.00427111 0.000646771 -5.94387e-05
0.00410641 -0.000568204 0.000671015
0.00643878 0.00051579 0.00209502
0.0041401 -0.000795004 0.000139295
0.00414617 -0.000522676 0.000731226
0.00439067 -0.000908873 0.000217453
0.00511492 0.00016307 0.000135289
0.00418463 -0.000547042 0.000741647
0.00437638 -0.000905954 0.000216862
0.0042238 -0.000746966 0.000479658
0.00401355 0.000195757 0.000562116
0.00423701 -0.00074908 0.000481034
0.00935318 0.00852185 -0.0075161
0.00432561 -2.99923e-05 -0.000831876
0.00437124 -0.000818675 0.000863435
0.00460343 0.000819653 0.000452959
6.80285e-15 2.29886e-14 -7.03251e-14
0.00423038 -0.00074804 0.000480189
0.00441871 -0.000687266 0.000807147
0.00417895 -0.000558279 0.00074115
0.00466388 -0.000442987 0.0010769
0.00422081 -0.000492534 0.000730807
0.0042117 -0.000442535 0.000701656
0.00411641 -0.000486639 0.000707176
0.00451038 -0.000614962 0.000798856
0.00454353 0.000318303 -8.28048e-05
0.00420464 -0.000570596 0.000723498
0.00419225 -0.000674941 0.000438372
0.00413277 -0.000730155 0.000469057
0.00410484 -0.000525303 0.000672892
0.0043961 -0.000510969 0.000756777
0.00456967 0.000926392 0.000366263
0.00423469 -0.000500534 0.000728447
0.00452325 -0.000595214 0.000795455
0.00430011 -0.000508947 0.000745446
0.00416914 -0.000527336 0.000731593
0.00414977 -0.00056805 0.000731331
0.00448769 -0.000600301 0.000788396
0.00407593 -0.000519875 0.000704086
0.00447226 -0.000629275 0.000793312
0.0044701 -0.000625999 0.000786226
0.00412585 -0.000685435 0.000765383
0.00426552 -1.46771e-05 -0.000830132
-1.27944e-14 6.09134e-14 -1.90219e-13
0.00414581 -0.000732173 0.000470452
0.00440321 -0.000734893 0.000819283
0.00413948 -0.000731228 0.000469596
0.00424374 -0.000750151 0.000481647
0.00419294 -0.00055647 0.000708972
0.00421069 -0.000532264 0.000800865
0.00423546 -0.000534009 0.00074264
0.00454958 0.000334363 -9.09309e-05
0.00415035 -0.000546345 0.000727317
0.00417524 -0.00054279 0.000732257
0.00422732 -0.000487275 0.000727727
0.00442935 -0.00115444 0.000219798
0.00454943 0.000316181 -8.13402e-05
0.00409295 -0.000677255 0.000757555
0.00430529 -0.000534924 0.000779119
0.00496626 -0.000167411 -0.00086729
0.00449745 0.000357679 -9.43639e-05
0.00409201 -0.000507547 0.000714402
0.00453664 0.00030482 5.09451e-06

VECTORS force float
5.22881e-11 1.96512e-10 2.82325e-10
2.79327e-10 -2.2086e-12 -4.24669e-11
-1.27543e-11 -1.17369e-10 1.51645e-10
1.12303e-11 -1.45424e-10 5.62469e-11
-1.41259e-11 -6.00789e-11 2.18535e-11
8.31084e-11 2.9312e-11 5.679e-12
2.2009e-11 4.34269e-11 -1.82937e-11
-4.51303e-11 -7.27925e-11 1.68978e-10
-9.06886e-11 -1.42781e-11 -1.30166e-11
2.21525e-10 -9.01211e-11 1.67079e-11
3.05963e-11 -1.49424e-10 5.28986e-11
-4.76777e-11 3.20206e-11 2.21188e-11
-2.89529e-10 4.11585e-10 -2.17037e-10
-4.19381e-10 -1.05664e-09 1.43279e-09
4.61779e-11 1.83057e-10 -1.30981e-10
9.20698e-10 -8.73888e-11 -1.86629e-10
-4.83189e-11 -9.24544e-11 1.88743e-11
-9.96439e-10 3.93168e-10 -2.60438e-10
-1.17506e-10 -1.41163e-10 1.17628e-10
2.14292e-11 2.00382e-11 -1.07601e-10
2.05348e-11 -4.0923e-11 3.86082e-10
1.0093e-10 8.84001e-11 -6.58192e-11
-1.29114e-09 -3.78513e-09 2.75616e-09
-3.96792e-11 -2.17183e-10 -5.59795e-10
-7.74898e-10 5.46152e-11 2.39746e-11
-2.60554e-10 3.51593e-10 -7.17071e-11
-5.58425e-12 3.12063e-11 -2.26753e-11
2.38365e-10 -1.58492e-10 8.29614e-11
-2.79853e-09 -2.74021e-09 3.66095e-09
-1.8913e-11 -4.62437e-12 1.15056e-11
2.86465e-11 5.0677e-11 -1.4848e-10
3.15892e-10 5.13733e-10 -6.1407e-10
-2.83009e-12 1.0859e-10 -1.10489e-10
3.09036e-11 5.68256e-11 -2.27022e-11
-7.45001e-10 3.53475e-10 -1.16198e-10
-3.7945e-11 1.1695e-11 -2.05472e-11
2.43607e-10 1.5791e-10 -9.79119e-11
-1.93713e-11 -1.56418e-12 1.46719e-13
7.18432e-11 -1.48773e-10 7.6389e-11
1.97968e-10 1.33878e-09 -1.45642e-09
1.00453e-10 -3.163e-13 2.54858e-11
-8.41821e-11 -8.10223e-11 -9.90177e-11
4.15082e-11 1.2798e-10 -7.39486e-11
-4.4216e-11 2.17673e-10 -1.36229e-10
-1.98611e-11 -1.48034e-10 -4.21485e-10
1.03611e-09 -2.72786e-09 3.10192e-09
2.72001e-11 3.80708e-11 5.01028e-11
4.94299e-11 1.18452e-10 -1.54223e-10
-8.48893e-11 -4.27055e-11 2.51728e-11
4.02528e-11 2.81213e-11 -3.38736e-11
1.18066e-09 -1.67999e-10 3.54842e-10
-2.32644e-11 1.008e-10 -2.75722e-11
-4.92262e-12 -4.19443e-11 -1.96588e-11
5.25528e-11 7.23521e-11 -1.09831e-10
-6.5948e-11 -9.85478e-11 7.92293e-11
-7.90121e-10 5.54503e-10 -1.24654e-10
-1.81153e-10 6.95006e-11 -8.24532e-11
2.21723e-11 2.21559e-11 5.0501e-12
4.77899e-10 3.19493e-10 -1.43517e-12
-8.01055e-10 1.06338e-09 -5.81461e-11
1.01077e-09 6.7308e-10 1.30775e-09
5.90325e-10 -3.35031e-10 -2.59153e-10
-7.37948e-12 -5.68858e-11 2.67491e-11
2.55055e-12 5.43531e-10 1.34635e-11
2.11933e-11 -1.80309e-12 -3.64354e-12
6.1396e-11 1.13003e-10 -5.12473e-11
-6.87326e-11 -2.21834e-10 1.58845e-10
-3.72553e-12 8.19508e-11 -3.9056e-11
-2.5912e-11 -1.05692e-10 -1.51679e-11
1.14219e-10 -4.52605e-11 -7.23241e-11
4.78408e-11 2.29084e-10 -3.88731e-10
-2.9163e-10 2.43909e-10 -4.10499e-10
-3.2559e-11 4.86841e-10 -5.596e-10
-6.58957e-11 -3.13521e-10 1.31509e-10
-6.14195e-10 -3.03607e-10 8.61115e-10
8.31725e-11 4.61322e-10 -6.83981e-10
2.69853e-10 7.38992e-11 2.23486e-10
-1.59041e-10 8.57071e-10 -6.68351e-10
7.39104e-11 -1.0412e-10 -1.63819e-11
3.15163e-10 -2.41662e-11 1.76284e-11
3.82884e-11 -5.33156e-11 3.59538e-11
-9.2118e-10 1.28588e-09 -1.37409e-09
2.67923e-10 -1.89238e-10 7.39605e-11
2.9145e-12 1.14761e-11 5.78289e-13
-3.11999e-10 -7.71557e-12 1.54173e-10
1.97658e-10 1.61339e-10 6.96623e-10
-3.1583e-11 2.11973e-10 -1.34922e-10
8.14965e-10 1.45154e-09 -4.60358e-10
7.63091e-11 -2.26733e-10 1.38275e-10
2.62302e-11 5.42377e-11 -4.22074e-11
-8.77736e-10 4.73797e-10 -2.1081e-10
-3.93781e-11 7.8063e-11 -2.90856e-11
-2.54536e-10 -4.82558e-10 -2.00728e-10
2.63921e-09 -1.18744e-09 2.23917e-09
2.6237e-11 -1.23302e-10 8.01766e-11
-7.08472e-10 -4.788e-10 -5.58401e-10
-4.21157e-10 1.70361e-10 -2.66841e-10
1.00364e-11 -7.91412e-11 4.88751e-11
-3.47411e-10 -5.55457e-10 7.30308e-10
5.80523e-10 2.40008e-09 -1.14935e-09
1.76696e-11 7.56349e-11 -1.36824e-11
8.83505e-11 -1.10644e-10 4.34998e-11
3.38088e-12 -1.08453e-10 6.38069e-11
-1.18201e-10 5.48133e-12 8.22168e-11
2.30729e-10 -1.30675e-10 -1.47232e-12
4.88267e-10 1.0664e-10 -3.10554e-11
-1.37672e-09 2.60986e-10 -1.83611e-10
1.03247e-10 -6.40809e-11 3.59589e-11
1.10002e-12 -1.48596e-10 8.03445e-11
2.0866e-10 4.12875e-10 -4.60746e-11
1.89107e-11 1.65525e-11 -1.11574e-11
-3.80513e-11 3.61789e-10 2.53915e-10
1.08676e-10 -2.54042e-11 3.37341e-11
-1.29471e-12 -2.56934e-10 1.65708e-10
3.15193e-10 -5.78671e-10 2.01768e-10
1.88172e-10 1.36582e-10 -6.62156e-11
1.017e-10 -4.09141e-12 2.39103e-11
4.70047e-11 3.45849e-11 -5.83252e-12
1.58139e-10 5.20829e-10 -6.97679e-10
1.77807e-10 -1.93547e-10 5.05249e-11
-2.5415e-10 5.11326e-11 2.88246e-10
1.74939e-12 -1.1071e-10 5.23986e-11
-2.03258e-10 7.02776e-11 -4.83452e-11
1.64782e-10 3.7749e-11 -4.74902e-11
-9.82843e-12 2.02839e-10 -1.33124e-10
-9.29133e-11 2.42561e-10 -1.43211e-10
-1.01022e-10 1.7018e-11 -1.06742e-11
1.90579e-10 -3.94197e-10 1.42778e-10
4.68298e-11 1.3192e-10 -9.70814e-11
-2.03904e-10 1.91271e-10 -9.07904e-11
-7.48009e-11 -2.72133e-11 5.14476e-11
9.39071e-11 -1.79265e-10 2.40634e-10
1.04016e-09 9.88727e-12 4.84075e-10
2.53159e-11 4.05472e-11 -2.21224e-11
-1.29291e-10 2.658e-10 -1.41079e-10
3.407e-10 -1.27233e-10 1.55501e-11
3.7579e-11 -1.27852e-10 7.63727e-11
5.01504e-11 -5.8368e-11 1.00081e-10
-9.98982e-12 -3.83488e-11 -6.08024e-12
5.94787e-11 5.05754e-11 1.12532e-11
4.06733e-13 -1.17962e-11 2.99073e-12
-3.46151e-12 -5.53835e-10 2.58143e-10
3.57673e-10 -1.4818e-10 9.16244e-11
6.49282e-10 2.97465e-10 -4.63974e-10
3.46857e-11 1.26722e-10 -1.75833e-10
-1.22698e-10 -2.44254e-10 4.69187e-11
9.23525e-11 -1.13878e-10 4.08626e-12
-2.9169e-10 -9.41902e-11 -1.48471e-11
1.57992e-10 -4.99888e-11 4.89072e-11
-2.91881e-10 2.70338e-10 -1.00492e-10
-3.97437e-10 6.26112e-10 1.00653e-09
-6.7303e-11 7.51776e-11 -5.65483e-11
5.39523e-11 -2.50553e-11 -1.29593e-12
-2.59777e-10 -4.092e-11 -2.92575e-11
1.2994e-10 -1.10285e-10 5.83281e-11
-5.41206e-10 -1.19497e-09 7.79057e-10
-8.23819e-10 -5.8396e-09 4.28434e-09
-6.77202e-11 -1.87677e-10 4.21756e-11
-1.13559e-09 4.45913e-10 -3.61482e-10
-1.01095e-09 1.23072e-09 -3.15317e-10
3.01645e-10 3.01258e-10 3.69249e-11
-2.71861e-09 1.2046e-10 -1.29841e-10
-5.21004e-10 3.01528e-10 -1.26832e-10
1.41569e-10 4.77662e-10 -3.70519e-10
4.27592e-10 4.25015e-11 1.93276e-10
2.59569e-10 -1.50653e-10 8.77121e-11
2.32942e-10 -7.53432e-12 2.30541e-10
6.87665e-10 -1.09449e-09 1.74692e-09
3.44522e-10 -2.11216e-10 5.8081e-11
3.85199e-10 -6.59422e-11 8.81171e-11
7.16573e-11 -4.52709e-11 1.36223e-11
-1.84944e-10 -1.55275e-10 8.06968e-11
-3.09128e-10 -2.4541e-10 7.74602e-11
6.84499e-10 5.00668e-10 -5.1255e-11
7.59523e-11 2.04994e-10 -3.41894e-11
9.73914e-11 1.70291e-11 8.68315e-12
-1.0185e-10 5.79133e-10 -9.45765e-10
0.0 0.0 -1.43822e-09
3.85574e-10 -2.33902e-10 5.10322e-10
1.32836e-10 -1.0723e-10 3.53225e-11
-5.73793e-11 4.11794e-11 1.36446e-10
-1.21977e-10 2.23205e-10 -1.17068e-10
-2.30269e-11 -9.22986e-11 5.82737e-11
-2.40681e-10 -6.23071e-11 5.54396e-11
-1.72183e-09 -8.81766e-10 1.53757e-10
1.12019e-10 5.31179e-11 -7.4501e-12
-2.64247e-10 -1.62889e-10 1.02544e-11
5.14303e-12 -2.06821e-10 3.04555e-11
3.35057e-11 4.47255e-10 -5.0642e-10
4.04047e-10 1.06743e-10 -3.25108e-10
2.65033e-11 -5.64057e-11 2.7795e-10
7.50697e-09 -4.26306e-10 -5.52274e-10
-3.16468e-10 -2.20801e-10 8.65282e-11
2.53739e-10 -2.41402e-10 -9.13633e-11
-8.26121e-10 4.05057e-10 -2.19651e-10
-7.55186e-11 4.06005e-10 -2.49181e-10
5.45173e-11 -9.91781e-12 -3.3745e-11
2.01618e-10 6.04815e-11 -2.9784e-10
-1.52288e-09 2.26151e-09 -6.61481e-10
4.37746e-11 1.20521e-10 -8.27661e-11
-1.60179e-11 -7.71769e-11 1.20713e-11
-2.09646e-11 -1.88598e-10 1.32548e-10
1.45567e-09 -1.11883e-09 9.59569e-10
9.47835e-11 1.33891e-11 1.09214e-12
6.99969e-11 1.48265e-10 -7.71387e-11
6.02144e-11 2.57985e-11 5.19204e-13
1.83626e-10 -2.1107e-10 6.40412e-11
-6.81712e-10 6.4109e-10 9.74338e-10
-5.18866e-10 -6.83779e-11 2.51872e-11
-9.70236e-11 8.73284e-11 -9.1851e-11
1.22237e-10 5.47514e-10 -7.86467e-10
2.13437e-11 -6.5126e-11 1.51172e-11
-1.63744e-11 -2.34952e-11 -6.18414e-11
-3.066e-10 3.50767e-10 -1.15357e-10
3.29684e-10 -3.81526e-11 -6.90034e-11
3.88121e-10 3.54854e-11 4.04405e-11
-7.67313e-11 1.16473e-11 9.47173e-11
-4.14867e-10 -2.14906e-09 1.00145e-09
-3.90841e-10 -3.61917e-10 -3.81595e-11
5.48085e-10 -8.55731e-11 -4.51613e-11
2.14252e-09 -3.82205e-11 5.61425e-10
3.58264e-10 3.81354e-10 9.50996e-11
0.0 0.0 -1.43822e-09
-3.75451e-11 -2.62208e-11 1.04952e-11
2.29472e-10 2.56106e-11 1.13173e-10
-1.1263e-12 -1.60531e-12 7.58458e-13
0.0 0.0 -1.43822e-09
-6.22993e-11 2.28288e-10 -6.01893e-11
1.05598e-14 -3.70658e-13 1.09112e-12
2.92075e-12 -1.86217e-12 -1.8307e-12
0.0 0.0 -1.43822e-09
1.12716e-12 -2.17945e-12 -4.52703e-13
-1.84256e-10 3.04001e-10 -1.66592e-10
9.27659e-11 1.58472e-10 -1.61042e-10
5.86474e-10 9.78163e-10 -7.09179e-10
-4.45376e-11 -4.54227e-11 1.47637e-11
-5.08975e-23 6.20385e-25 -3.30872e-24
-1.00602e-12 -1.48831e-12 3.45298e-12
1.79782e-10 -1.97663e-10 6.41505e-11
-2.73208e-10 2.96312e-10 -2.42284e-10
3.89955e-10 6.82226e-10 -3.84932e-10
-1.61764e-10 1.64194e-10 -2.08352e-10
1.24582e-10 3.7524e-10 -2.81822e-10
-1.80215e-10 1.34495e-10 -8.82427e-11
-3.29419e-11 -2.26408e-10 6.4496e-11
9.80796e-11 -9.98241e-11 4.33774e-11
1.42509e-11 4.10463e-10 1.78161e-11
-1.12509e-10 4.44629e-11 7.23048e-11
-4.05192e-13 -1.9861e-12 3.8258e-12
5.82434e-10 2.85753e-10 2.09071e-10
3.60497e-10 -4.374e-10 1.7443e-10
-1.74591e-09 9.32713e-10 7.93101e-10
-3.39424e-10 2.22206e-10 -1.68935e-10
1.21968e-10 -2.29421e-10 1.03734e-10
-1.27552e-10 1.09999e-10 -7.49882e-11
-3.05843e-10 -3.23609e-10 -4.40388e-11
-1.30593e-10 2.34389e-10 -6.68641e-11
-1.51821e-10 -6.84457e-11 5.20315e-11
-1.07435e-11 -2.82579e-10 9.73457e-12
-2.02152e-10 -3.78755e-10 1.18716e-10
4.93038e-11 -2.30301e-10 1.61036e-10
-8.26374e-11 -2.38471e-10 5.61507e-11
1.07239e-10 8.96732e-11 -8.37257e-11
-5.89961e-22 -5.69204e-23 2.10931e-23
-3.86959e-13 -2.58942e-12 2.79378e-12
3.72706e-10 -1.15124e-10 7.58078e-11
-2.91182e-13 -2.65485e-12 -3.73986e-12
-5.56214e-14 -2.47577e-12 -1.17963e-12
-5.74107e-11 2.93048e-10 1.01437e-11
9.11353e-11 4.44473e-10 -1.87084e-10
-2.53721e-10 -1.66212e-10 3.62694e-11
1.70658e-10 -9.55365e-11 4.72195e-11
-2.16179e-10 4.01299e-10 -1.26264e-10
-8.62617e-11 -5.33329e-10 1.50588e-10
-2.54828e-11 1.8377e-10 -9.34447e-11
-8.81462e-11 -2.63805e-10 5.79899e-11
4.12195e-12 -3.03923e-10 7.01714e-13
-7.70329e-11 -2.11053e-10 5.34402e-11
1.62057e-09 -4.05453e-10 7.43876e-10
-4.5576e-10 -1.76452e-10 1.97492e-10
4.28161e-11 4.40053e-10 -1.39084e-10
-3.23232e-11 2.87382e-11 -3.51641e-11
-4.7568e-11 8.0838e-11 5.49064e-10
