# vtk DataFile Version 3.0
LIGGGHTS particles timestep 62800000
ASCII
DATASET POLYDATA
POINTS 283 float
0.300605 0.0164102 0.00775383
0.300958 0.0177429 0.00711652
0.301017 0.0181522 0.0069438
0.300996 0.0180544 0.00694722
0.30041 0.0157408 0.00847073
0.306622 0.0164695 0.00769684
0.300604 0.0160958 0.00808523
0.300391 0.0156729 0.00854156
0.306874 0.0174747 0.00710753
0.301301 0.0182473 0.00694806
0.30078 0.0167191 0.00746465
0.306832 0.0172876 0.00716324
0.301296 0.0177947 0.00699926
0.294267 0.0153735 0.00905395
0.301315 0.0178876 0.00696802
0.294505 0.0161761 0.00834087
0.306994 0.0180457 0.00696787
0.300936 0.0177708 0.00702173
0.301007 0.0172819 0.00721146
0.300429 0.0158077 0.00839897
0.301057 0.018348 0.00693691
0.306789 0.01712 0.00726217
0.301161 0.0175805 0.00707791
0.306726 0.0168761 0.00742512
0.294542 0.0159793 0.00851369
0.300897 0.0175851 0.00708468
0.306602 0.016388 0.00775135
0.301132 0.0182819 0.00694177
0.301256 0.0176101 0.00706635
0.306641 0.016551 0.00764233
0.300998 0.0179304 0.00706004
0.301336 0.0179851 0.00695982
0.306934 0.0177602 0.0070377
0.300623 0.0161628 0.00801342
0.301201 0.0177657 0.00701365
0.300816 0.016517 0.00762885
0.300952 0.0174309 0.00714196
0.301081 0.0172217 0.00724066
0.301111 0.0181835 0.00694523
0.300991 0.0176142 0.00707079
0.306662 0.0166324 0.00758791
0.306746 0.0169574 0.00737075
0.300564 0.0159621 0.00822867
0.300985 0.017193 0.00725177
0.306704 0.0167949 0.00747933
0.301106 0.0177364 0.00702609
0.295054 0.0183302 0.00701036
0.295082 0.0176185 0.00705696
0.301281 0.0181494 0.00695151
0.306683 0.0167137 0.00753362
0.294725 0.0166381 0.00792867
0.30681 0.0171999 0.00720587
0.301093 0.0179588 0.00704499
0.300449 0.0158745 0.00832721
0.300854 0.0166592 0.00749369
0.30105 0.0178932 0.00697753
0.306767 0.0170387 0.00731646
0.300662 0.0162965 0.00786995
0.295254 0.0180323 0.00696403
0.301356 0.0180832 0.00695637
0.294786 0.0165203 0.00803133
0.300941 0.0170152 0.00733236
0.307049 0.0178857 0.00700513
0.294649 0.016688 0.00788622
0.306853 0.0173798 0.00713077
0.300796 0.0164502 0.00770051
0.300727 0.0168681 0.00739535
0.300922 0.0175607 0.00718181
0.306974 0.0179506 0.00699115
0.301097 0.0185438 0.00693001
0.294328 0.0155931 0.0088589
0.294562 0.0160527 0.00844852
0.300972 0.0175219 0.00710439
0.295296 0.0182274 0.00697398
0.294847 0.0167398 0.00783642
0.294351 0.0156657 0.00879434
0.306914 0.017665 0.00706098
0.294704 0.0165649 0.00799365
0.301091 0.0180856 0.00694867
0.306894 0.0175699 0.00708425
0.300876 0.0167484 0.00745328
0.301086 0.0176435 0.00705734
0.300802 0.0168082 0.00742423
0.300681 0.0163634 0.00779818
0.301037 0.0170439 0.00732127
0.301047 0.0174609 0.00713028
0.300867 0.017075 0.00730331
0.301166 0.0180196 0.00695353
0.301102 0.0173112 0.00720008
0.300932 0.0173418 0.00718241
0.294889 0.0168861 0.00770648
0.301073 0.0178647 0.00707215
0.295177 0.0176496 0.00705223
0.301125 0.0178294 0.00699484
0.301217 0.0174316 0.00714735
0.294828 0.0166663 0.00790159
0.295102 0.0177138 0.00703391
0.30072 0.0164972 0.00765466
0.294287 0.0154468 0.00898886
0.30122 0.0178588 0.00698278
0.300975 0.0179569 0.00695918
0.301077 0.0184459 0.00693346
0.300527 0.016142 0.00804027
0.294581 0.0161261 0.00838339
0.301227 0.0183137 0.00694319
0.294747 0.016711 0.00786391
0.300916 0.0176779 0.00705298
0.300978 0.0178365 0.00708759
0.300757 0.0166324 0.00750968
0.295275 0.0181299 0.006969
0.306582 0.0163065 0.00780587
0.301122 0.0174013 0.00715923
0.300995 0.0168659 0.00740198
0.300771 0.0170456 0.00731472
0.295094 0.0185258 0.00702065
0.301257 0.0182165 0.00703256
0.301261 0.0180514 0.00695496
0.300835 0.0165884 0.00756165
0.294399 0.015811 0.00866521
0.301321 0.0183456 0.0069446
0.29452 0.0159064 0.00857847
0.300507 0.0160752 0.00811196
0.295128 0.0182639 0.00699659
0.300835 0.0173125 0.00719373
0.300963 0.0171041 0.00729206
0.301067 0.0175508 0.00708973
0.300824 0.016897 0.00738402
0.294992 0.0180368 0.00700591
0.300664 0.0166181 0.00754664
0.300889 0.0171639 0.00726301
0.300899 0.0168372 0.00741307
0.301246 0.0184117 0.00693973
0.295198 0.0177446 0.00702913
0.300584 0.016029 0.00815692
0.301142 0.0174912 0.00711843
0.301027 0.0173712 0.00717097
0.300705 0.0167791 0.00743551
0.294306 0.0155201 0.00892376
0.301019 0.0180262 0.00704024
0.301016 0.016955 0.00736158
0.300701 0.0164302 0.00772649
0.29495 0.0171056 0.00751153
0.301376 0.0181812 0.00695292
0.294467 0.0160293 0.00847115
0.294603 0.0161991 0.00831855
0.295196 0.0182492 0.00706779
0.30107 0.0179878 0.00695209
0.295215 0.0178403 0.00700577
0.301059 0.0171328 0.00728096
0.295031 0.0173877 0.00724001
0.300846 0.0169859 0.00734373
0.295235 0.0179358 0.00698254
0.300814 0.0172236 0.00723403
0.295013 0.0181346 0.00700248
0.300921 0.0169261 0.00737276
0.294687 0.0164913 0.008059
0.301181 0.0176728 0.00704497
0.294973 0.0178371 0.00712143
0.294874 0.017373 0.00738849
0.30114 0.0180935 0.0070354
0.294951 0.0178419 0.00702392
0.301031 0.0178001 0.00700831
0.295011 0.0173175 0.00730826
0.294835 0.0173456 0.00730055
0.294486 0.0161028 0.00840596
0.295107 0.0181656 0.00699176
0.294971 0.0171779 0.00744588
0.294766 0.0167844 0.00779874
0.301172 0.0184778 0.00693487
0.295226 0.0183013 0.00698788
0.301085 0.0182602 0.00702746
0.29518 0.018099 0.00697775
0.301145 0.0179223 0.00696359
0.294671 0.0167611 0.00782131
0.294829 0.0170038 0.00760391
0.306954 0.0178554 0.00701442
0.300625 0.0164763 0.00768155
0.300585 0.0163429 0.00782526
0.294547 0.0163223 0.00821099
0.300857 0.0174028 0.00715651
0.29489 0.0172232 0.00740849
0.301192 0.0179757 0.00704269
0.300488 0.0160083 0.00818371
0.29491 0.0176499 0.0070678
0.29491 0.0169591 0.00764164
0.30074 0.016564 0.00758296
0.295033 0.0182324 0.00700527
0.29502 0.017931 0.00710176
0.294422 0.0158837 0.0086006
0.294869 0.0171503 0.00747385
0.295068 0.0178065 0.00710172
0.301276 0.0177017 0.00703053
0.294892 0.0175552 0.0070941
0.294629 0.0166149 0.0079512
0.294993 0.0172473 0.00737719
0.294806 0.0165935 0.00796635
0.295148 0.018362 0.00700173
0.294445 0.0159564 0.00853594
0.301045 0.0181228 0.00703519
0.300644 0.0165433 0.00760978
0.307034 0.0182361 0.00692132
0.300749 0.0169568 0.00735509
0.294668 0.0164178 0.00812419
0.300685 0.0167 0.00749326
0.300642 0.0162297 0.00794167
0.300546 0.0162089 0.00796847
0.301396 0.0182792 0.00694947
0.294527 0.0162496 0.00827651
0.301241 0.0179536 0.00695839
0.294623 0.0162723 0.00825355
0.294375 0.0157383 0.00872982
0.307014 0.0181409 0.0069446
0.294814 0.0172733 0.00736648
0.29507 0.0175348 0.00711027
0.294788 0.0168573 0.00773398
0.29497 0.017507 0.00713248
0.294948 0.017723 0.00713979
0.294591 0.0164681 0.00808144
0.29493 0.0170324 0.00757654
0.30091 0.0172528 0.00722271
0.301011 0.0177072 0.00703953
0.295027 0.0176166 0.00714897
0.294691 0.0168344 0.00775626
0.29505 0.0177101 0.0071214
0.294807 0.0169307 0.0076688
0.28884 0.0173422 0.00724045
0.294875 0.0175227 0.00725955
0.294732 0.0169828 0.00762879
0.288818 0.0172559 0.00728621
0.288862 0.0174284 0.00719469
0.294889 0.0174441 0.00731984
0.2889 0.0176018 0.00710261
0.301236 0.0175209 0.00710684
0.300878 0.0174937 0.00712037
0.29461 0.0165447 0.00801987
0.300469 0.0159414 0.00825549
0.215741 0.019982 0.00563384
0.288881 0.0175151 0.00714868
0.295085 0.0180677 0.00698651
0.29505 0.0174594 0.00717298
0.294643 0.0163456 0.00818845
0.295002 0.0176767 0.00703987
0.29491 0.0172933 0.00734022
0.294951 0.0174343 0.00720308
0.295065 0.0179693 0.00699518
0.301186 0.0181175 0.0069501
0.294983 0.0175575 0.00721793
0.294875 0.0174876 0.0071659
0.288937 0.0177753 0.00701047
0.294793 0.0172001 0.00743147
0.294567 0.0163956 0.00814593
0.300566 0.0162758 0.00789672
0.295202 0.0181968 0.00698276
0.294971 0.0179394 0.00701487
0.29537 0.0181589 0.00696005
0.295118 0.0178096 0.00701036
0.294928 0.0176195 0.00716134
0.294931 0.0177461 0.0070441
0.294983 0.0175814 0.00706307
0.295111 0.0178944 0.00708249
0.295041 0.0178713 0.00699245
0.294773 0.017127 0.00749644
0.300923 0.0176557 0.00715054
0.404182 0.0211142 0.0056569
0.288976 0.0179599 0.00696847
0.295074 0.0184279 0.00701548
0.288956 0.0178621 0.00696439
0.288918 0.0176886 0.00705654
0.294848 0.0170771 0.00753883
0.294713 0.0169073 0.00769149
0.295023 0.0177729 0.00701645
0.301206 0.0182155 0.00694664
0.29493 0.0173635 0.00727194
0.29514 0.0179043 0.00698738
0.294855 0.0174143 0.00723071
0.295063 0.0180284 0.0070758
0.301152 0.0183799 0.00693832
0.294752 0.0170538 0.00756141
0.29487 0.0168126 0.00777166
0.300792 0.0171347 0.00727432
0.300956 0.0178638 0.00699047
0.295159 0.0180015 0.00697278
0.301037 0.01825 0.00694036

VERTICES 283 566
1 0
1 1
1 2
1 3
1 4
1 5
1 6
1 7
1 8
1 9
1 10
1 11
1 12
1 13
1 14
1 15
1 16
1 17
1 18
1 19
1 20
1 21
1 22
1 23
1 24
1 25
1 26
1 27
1 28
1 29
1 30
1 31
1 32
1 33
1 34
1 35
1 36
1 37
1 38
1 39
1 40
1 41
1 42
1 43
1 44
1 45
1 46
1 47
1 48
1 49
1 50
1 51
1 52
1 53
1 54
1 55
1 56
1 57
1 58
1 59
1 60
1 61
1 62
1 63
1 64
1 65
1 66
1 67
1 68
1 69
1 70
1 71
1 72
1 73
1 74
1 75
1 76
1 77
1 78
1 79
1 80
1 81
1 82
1 83
1 84
1 85
1 86
1 87
1 88
1 89
1 90
1 91
1 92
1 93
1 94
1 95
1 96
1 97
1 98
1 99
1 100
1 101
1 102
1 103
1 104
1 105
1 106
1 107
1 108
1 109
1 110
1 111
1 112
1 113
1 114
1 115
1 116
1 117
1 118
1 119
1 120
1 121
1 122
1 123
1 124
1 125
1 126
1 127
1 128
1 129
1 130
1 131
1 132
1 133
1 134
1 135
1 136
1 137
1 138
1 139
1 140
1 141
1 142
1 143
1 144
1 145
1 146
1 147
1 148
1 149
1 150
1 151
1 152
1 153
1 154
1 155
1 156
1 157
1 158
1 159
1 160
1 161
1 162
1 163
1 164
1 165
1 166
1 167
1 168
1 169
1 170
1 171
1 172
1 173
1 174
1 175
1 176
1 177
1 178
1 179
1 180
1 181
1 182
1 183
1 184
1 185
1 186
1 187
1 188
1 189
1 190
1 191
1 192
1 193
1 194
1 195
1 196
1 197
1 198
1 199
1 200
1 201
1 202
1 203
1 204
1 205
1 206
1 207
1 208
1 209
1 210
1 211
1 212
1 213
1 214
1 215
1 216
1 217
1 218
1 219
1 220
1 221
1 222
1 223
1 224
1 225
1 226
1 227
1 228
1 229
1 230
1 231
1 232
1 233
1 234
1 235
1 236
1 237
1 238
1 239
1 240
1 241
1 242
1 243
1 244
1 245
1 246
1 247
1 248
1 249
1 250
1 251
1 252
1 253
1 254
1 255
1 256
1 257
1 258
1 259
1 260
1 261
1 262
1 263
1 264
1 265
1 266
1 267
1 268
1 269
1 270
1 271
1 272
1 273
1 274
1 275
1 276
1 277
1 278
1 279
1 280
1 281
1 282

POINT_DATA 283
SCALARS id int 1
LOOKUP_TABLE default
1
2
3
4
5
6
7
8
9
10
11
12
13
14
15
16
18
19
20
21
22
24
25
26
27
29
30
31
32
33
34
35
36
37
38
40
41
42
43
44
45
46
47
48
49
50
52
55
56
57
58
59
60
61
62
63
64
65
66
67
68
69
70
71
72
73
74
75
76
77
78
79
80
81
82
83
84
85
86
87
88
89
90
91
92
93
94
95
96
98
99
100
101
102
103
104
105
106
107
108
109
110
111
112
113
114
115
116
117
118
119
120
121
122
123
124
125
126
127
128
129
130
131
132
133
134
135
136
137
138
139
140
141
142
144
145
146
147
148
149
150
152
153
154
155
156
157
158
159
160
161
162
164
165
166
167
168
169
170
171
172
173
174
175
176
177
178
179
180
181
182
183
184
185
186
187
188
189
190
191
192
193
194
195
196
197
198
199
200
201
202
203
204
205
206
207
208
209
210
211
213
214
215
217
218
219
220
221
222
223
224
225
226
227
228
229
230
231
232
233
234
235
236
237
238
239
241
242
243
244
245
246
247
248
249
250
251
252
253
254
255
256
257
258
259
260
261
262
263
264
265
267
268
269
270
271
272
273
274
275
276
277
278
279
280
281
282
283
284
285
286
287
288
289
290
292
293
294
295
296
297
298
300

SCALARS type int 1
LOOKUP_TABLE default
1
1
1
1
1
1
1
1
1
1
1
1
1
1
1
1
1
1
1
1
1
1
1
1
1
1
1
1
1
1
1
1
1
1
1
1
1
1
1
1
1
1
1
1
1
1
1
1
1
1
1
1
1
1
1
1
1
1
1
1
1
1
1
1
1
1
1
1
1
1
1
1
1
1
1
1
1
1
1
1
1
1
1
1
1
1
1
1
1
1
1
1
1
1
1
1
1
1
1
1
1
1
1
1
1
1
1
1
1
1
1
1
1
1
1
1
1
1
1
1
1
1
1
1
1
1
1
1
1
1
1
1
1
1
1
1
1
1
1
1
1
1
1
1
1
1
1
1
1
1
1
1
1
1
1
1
1
1
1
1
1
1
1
1
1
1
1
1
1
1
1
1
1
1
1
1
1
1
1
1
1
1
1
1
1
1
1
1
1
1
1
1
1
1
1
1
1
1
1
1
1
1
1
1
1
1
1
1
1
1
1
1
1
1
1
1
1
1
1
1
1
1
1
1
1
1
1
1
1
1
1
1
1
1
1
1
1
1
1
1
1
1
1
1
1
1
1
1
1
1
1
1
1
1
1
1
1
1
1
1
1
1
1
1
1
1
1
1
1
1
1
1
1
1
1
1
1
1
1
1
1
1
1

SCALARS radius float 1
LOOKUP_TABLE default
5e-05
5e-05
5e-05
5e-05
5e-05
5e-05
5e-05
5e-05
5e-05
5e-05
5e-05
5e-05
5e-05
5e-05
5e-05
5e-05
5e-05
5e-05
5e-05
5e-05
5e-05
5e-05
5e-05
5e-05
5e-05
5e-05
5e-05
5e-05
5e-05
5e-05
5e-05
5e-05
5e-05
5e-05
5e-05
5e-05
5e-05
5e-05
5e-05
5e-05
5e-05
5e-05
5e-05
5e-05
5e-05
5e-05
5e-05
5e-05
5e-05
5e-05
5e-05
5e-05
5e-05
5e-05
5e-05
5e-05
5e-05
5e-05
5e-05
5e-05
5e-05
5e-05
5e-05
5e-05
5e-05
5e-05
5e-05
5e-05
5e-05
5e-05
5e-05
5e-05
5e-05
5e-05
5e-05
5e-05
5e-05
5e-05
5e-05
5e-05
5e-05
5e-05
5e-05
5e-05
5e-05
5e-05
5e-05
5e-05
5e-05
5e-05
5e-05
5e-05
5e-05
5e-05
5e-05
5e-05
5e-05
5e-05
5e-05
5e-05
5e-05
5e-05
5e-05
5e-05
5e-05
5e-05
5e-05
5e-05
5e-05
5e-05
5e-05
5e-05
5e-05
5e-05
5e-05
5e-05
5e-05
5e-05
5e-05
5e-05
5e-05
5e-05
5e-05
5e-05
5e-05
5e-05
5e-05
5e-05
5e-05
5e-05
5e-05
5e-05
5e-05
5e-05
5e-05
5e-05
5e-05
5e-05
5e-05
5e-05
5e-05
5e-05
5e-05
5e-05
5e-05
5e-05
5e-05
5e-05
5e-05
5e-05
5e-05
5e-05
5e-05
5e-05
5e-05
5e-05
5e-05
5e-05
5e-05
5e-05
5e-05
5e-05
5e-05
5e-05
5e-05
5e-05
5e-05
5e-05
5e-05
5e-05
5e-05
5e-05
5e-05
5e-05
5e-05
5e-05
5e-05
5e-05
5e-05
5e-05
5e-05
5e-05
5e-05
5e-05
5e-05
5e-05
5e-05
5e-05
5e-05
5e-05
5e-05
5e-05
5e-05
5e-05
5e-05
5e-05
5e-05
5e-05
5e-05
5e-05
5e-05
5e-05
5e-05
5e-05
5e-05
5e-05
5e-05
5e-05
5e-05
5e-05
5e-05
5e-05
5e-05
5e-05
5e-05
5e-05
5e-05
5e-05
5e-05
5e-05
5e-05
5e-05
5e-05
5e-05
5e-05
5e-05
5e-05
5e-05
5e-05
5e-05
5e-05
5e-05
5e-05
5e-05
5e-05
5e-05
5e-05
5e-05
5e-05
5e-05
5e-05
5e-05
5e-05
5e-05
5e-05
5e-05
5e-05
5e-05
5e-05
5e-05
5e-05
5e-05
5e-05
5e-05
5e-05
5e-05
5e-05
5e-05
5e-05
5e-05
5e-05
5e-05
5e-05
5e-05
5e-05
5e-05
5e-05
5e-05
5e-05
5e-05
5e-05
5e-05
5e-05
5e-05
5e-05
5e-05
5e-05
5e-05
5e-05
5e-05
5e-05
5e-05
5e-05

SCALARS mass float 1
LOOKUP_TABLE default
1.46608e-10
1.46608e-10
1.46608e-10
1.46608e-10
1.46608e-10
1.46608e-10
1.46608e-10
1.46608e-10
1.46608e-10
1.46608e-10
1.46608e-10
1.46608e-10
1.46608e-10
1.46608e-10
1.46608e-10
1.46608e-10
1.46608e-10
1.46608e-10
1.46608e-10
1.46608e-10
1.46608e-10
1.46608e-10
1.46608e-10
1.46608e-10
1.46608e-10
1.46608e-10
1.46608e-10
1.46608e-10
1.46608e-10
1.46608e-10
1.46608e-10
1.46608e-10
1.46608e-10
1.46608e-10
1.46608e-10
1.46608e-10
1.46608e-10
1.46608e-10
1.46608e-10
1.46608e-10
1.46608e-10
1.46608e-10
1.46608e-10
1.46608e-10
1.46608e-10
1.46608e-10
1.46608e-10
1.46608e-10
1.46608e-10
1.46608e-10
1.46608e-10
1.46608e-10
1.46608e-10
1.46608e-10
1.46608e-10
1.46608e-10
1.46608e-10
1.46608e-10
1.46608e-10
1.46608e-10
1.46608e-10
1.46608e-10
1.46608e-10
1.46608e-10
1.46608e-10
1.46608e-10
1.46608e-10
1.46608e-10
1.46608e-10
1.46608e-10
1.46608e-10
1.46608e-10
1.46608e-10
1.46608e-10
1.46608e-10
1.46608e-10
1.46608e-10
1.46608e-10
1.46608e-10
1.46608e-10
1.46608e-10
1.46608e-10
1.46608e-10
1.46608e-10
1.46608e-10
1.46608e-10
1.46608e-10
1.46608e-10
1.46608e-10
1.46608e-10
1.46608e-10
1.46608e-10
1.46608e-10
1.46608e-10
1.46608e-10
1.46608e-10
1.46608e-10
1.46608e-10
1.46608e-10
1.46608e-10
1.46608e-10
1.46608e-10
1.46608e-10
1.46608e-10
1.46608e-10
1.46608e-10
1.46608e-10
1.46608e-10
1.46608e-10
1.46608e-10
1.46608e-10
1.46608e-10
1.46608e-10
1.46608e-10
1.46608e-10
1.46608e-10
1.46608e-10
1.46608e-10
1.46608e-10
1.46608e-10
1.46608e-10
1.46608e-10
1.46608e-10
1.46608e-10
1.46608e-10
1.46608e-10
1.46608e-10
1.46608e-10
1.46608e-10
1.46608e-10
1.46608e-10
1.46608e-10
1.46608e-10
1.46608e-10
1.46608e-10
1.46608e-10
1.46608e-10
1.46608e-10
1.46608e-10
1.46608e-10
1.46608e-10
1.46608e-10
1.46608e-10
1.46608e-10
1.46608e-10
1.46608e-10
1.46608e-10
1.46608e-10
1.46608e-10
1.46608e-10
1.46608e-10
1.46608e-10
1.46608e-10
1.46608e-10
1.46608e-10
1.46608e-10
1.46608e-10
1.46608e-10
1.46608e-10
1.46608e-10
1.46608e-10
1.46608e-10
1.46608e-10
1.46608e-10
1.46608e-10
1.46608e-10
1.46608e-10
1.46608e-10
1.46608e-10
1.46608e-10
1.46608e-10
1.46608e-10
1.46608e-10
1.46608e-10
1.46608e-10
1.46608e-10
1.46608e-10
1.46608e-10
1.46608e-10
1.46608e-10
1.46608e-10
1.46608e-10
1.46608e-10
1.46608e-10
1.46608e-10
1.46608e-10
1.46608e-10
1.46608e-10
1.46608e-10
1.46608e-10
1.46608e-10
1.46608e-10
1.46608e-10
1.46608e-10
1.46608e-10
1.46608e-10
1.46608e-10
1.46608e-10
1.46608e-10
1.46608e-10
1.46608e-10
1.46608e-10
1.46608e-10
1.46608e-10
1.46608e-10
1.46608e-10
1.46608e-10
1.46608e-10
1.46608e-10
1.46608e-10
1.46608e-10
1.46608e-10
1.46608e-10
1.46608e-10
1.46608e-10
1.46608e-10
1.46608e-10
1.46608e-10
1.46608e-10
1.46608e-10
1.46608e-10
1.46608e-10
1.46608e-10
1.46608e-10
1.46608e-10
1.46608e-10
1.46608e-10
1.46608e-10
1.46608e-10
1.46608e-10
1.46608e-10
1.46608e-10
1.46608e-10
1.46608e-10
1.46608e-10
1.46608e-10
1.46608e-10
1.46608e-10
1.46608e-10
1.46608e-10
1.46608e-10
1.46608e-10
1.46608e-10
1.46608e-10
1.46608e-10
1.46608e-10
1.46608e-10
1.46608e-10
1.46608e-10
1.46608e-10
1.46608e-10
1.46608e-10
1.46608e-10
1.46608e-10
1.46608e-10
1.46608e-10
1.46608e-10
1.46608e-10
1.46608e-10
1.46608e-10
1.46608e-10
1.46608e-10
1.46608e-10
1.46608e-10
1.46608e-10
1.46608e-10
1.46608e-10
1.46608e-10
1.46608e-10
1.46608e-10
1.46608e-10
1.46608e-10
1.46608e-10
1.46608e-10
1.46608e-10
1.46608e-10
1.46608e-10
1.46608e-10
1.46608e-10
1.46608e-10
1.46608e-10
1.46608e-10
1.46608e-10

VECTORS velocity float
0.00432462 -0.000331835 0.000124317
0.00443707 -0.000382744 -3.48716e-05
0.00452363 -0.000425553 0.000139602
0.00451305 -0.000405955 0.000143184
0.00418988 -0.000286873 0.00010064
0.00448874 0.000419049 -0.000131528
0.0042828 -0.000320477 0.000121747
0.00417553 -0.000227377 0.000144836
0.00481686 0.000130766 -0.000134228
0.00430089 -0.000271825 0.000135563
0.0048435 -0.000338107 0.000260409
0.00512161 5.60624e-05 -0.000158139
0.00444114 -0.000256737 -9.6123e-05
0.00459555 -0.000173273 5.76198e-05
0.00424093 -0.000219254 -0.000101728
0.00444808 0.000752185 -0.0007739
0.00459187 8.61145e-05 -0.000117824
0.00444109 -0.000446687 -3.42466e-05
0.00485916 -0.000343309 0.000262547
0.00421701 -0.000302421 0.000105056
0.00433618 -0.000336267 0.00013877
0.00499666 0.000203107 3.67799e-05
0.00443878 -0.000246563 0.000206816
0.00493525 0.000184769 3.93189e-05
0.00386254 0.000623425 -0.000631373
0.00440851 -0.000360653 -0.00011871
0.00449705 0.000360042 -9.06878e-05
0.00434707 -0.000320075 0.000138168
0.00443804 -0.000238286 0.00020239
0.00449263 0.000458145 -0.000162097
0.00456327 -0.000391136 5.46389e-05
0.00444042 -0.000242244 0.00013795
0.00453425 0.000139039 -0.000128002
0.00429317 -0.00031274 0.000113059
0.00449829 -0.000277225 0.000186364
0.00451129 -0.000352339 0.000142145
0.00443172 -0.000251208 0.000212608
0.00486442 -0.00034479 0.000262583
0.00454297 -0.00042725 0.000146274
0.00441352 -0.00037559 -5.48444e-05
0.00482426 0.000377803 -0.000105806
0.00496131 0.000197778 4.07718e-05
0.0042298 -0.000321236 0.000125224
0.00483347 -0.000367513 0.000272766
0.00489731 0.00018277 4.18271e-05
0.00445123 -0.000410863 -4.46222e-05
0.00472642 0.000827144 -0.000490328
0.00476679 0.000858873 -6.69401e-05
0.00430876 -0.000274256 0.00013774
0.00490243 0.000201559 2.57718e-05
0.00466294 0.000550146 -0.000583969
0.00506459 2.6705e-05 -0.000214019
0.00450192 -0.000409288 0.000133587
0.00423075 -0.000307835 0.000110361
0.00484111 -0.000335186 0.000258641
0.00447304 -0.000367765 9.51969e-05
0.00496021 0.000195808 2.56446e-05
0.00426663 -0.000319947 0.000121759
0.00470397 0.000778118 -0.000494309
0.0043794 -0.000183884 0.000134916
0.00462268 0.000525468 -0.000561912
0.00482087 -0.000365952 0.000271731
0.00457001 9.12927e-05 -0.000118971
0.00469362 0.00056495 -0.000598737
0.00502023 9.47437e-05 -0.000128392
0.00434415 -0.000325385 0.000120856
0.00483651 -0.000359248 0.000268888
0.00433756 -0.000366615 -8.47387e-05
0.00456525 0.000110587 -0.000123837
0.00436742 -0.000310856 0.000138183
0.00476886 0.000228247 -0.000299266
0.0040058 0.000608321 -0.000626338
0.00442863 -0.0003332 -3.80078e-05
0.00471312 0.000745056 -0.000496913
0.00462425 0.000529904 -0.000565381
0.00512674 0.000236031 -0.000309931
0.00443439 0.000173046 -0.000139001
0.00467176 0.000564982 -0.000597497
0.00449183 -0.000405205 0.000146796
0.00449863 0.000177781 -0.000139762
0.00481191 -0.000386461 0.000281185
0.0044218 -0.000409805 -4.30261e-05
0.00483246 -0.000366771 0.000272415
0.00430235 -0.000313616 0.000113689
0.00480421 -0.000384638 0.000280185
0.00437194 -0.000282978 0.000222406
0.00483855 -0.000355224 0.000267099
0.00451418 -0.000344564 0.000145916
0.00471384 4.76801e-05 7.97683e-05
0.00487548 -0.000326014 0.000251401
0.00468185 0.000507679 -0.000547781
0.00456131 -0.000394158 1.19495e-05
0.00478456 0.000839695 -5.8633e-05
0.00446297 -0.000414436 -4.52532e-05
0.0044415 -0.000245816 0.000209511
0.00461808 0.000532054 -0.000567163
0.00477377 0.000858654 -5.20394e-05
0.00421466 -0.000333324 0.000139075
0.00456819 -2.96595e-05 -6.97334e-05
0.00459935 -0.000314257 0.000152163
0.00451005 -0.000412172 -4.88189e-05
0.00434773 -0.000318684 0.000137613
0.00428821 -0.000314984 0.000115638
0.00470317 0.000566856 -0.000606802
0.0043225 -0.000243122 0.000134035
0.00464215 0.000537025 -0.000572782
0.0044308 -0.000353179 -6.80662e-05
0.00452645 -0.000393428 -6.44451e-06
0.00466549 -0.000432534 0.000217623
0.00471901 0.000775383 -0.000491711
0.00447832 0.000319607 -6.48235e-05
0.00434638 -0.000303717 0.000233044
0.00484357 -0.00036002 0.000269746
0.00485022 -0.000353602 0.00026652
0.00451824 0.000876846 -0.000462565
0.00432597 -0.000326227 0.000133634
0.00440464 -0.000282544 0.000141649
0.0047331 -0.000349476 0.000212434
0.00518049 0.000457447 -0.000513628
0.00432909 -0.00038287 0.000139825
0.00507098 0.000304215 -0.000375999
0.00427383 -0.000311254 0.000112608
0.00472808 0.000826567 -0.000492415
0.00486644 -0.000338112 0.00025693
0.00482396 -0.000365528 0.000271703
0.00444224 -0.000288602 0.000109654
0.00484651 -0.000364317 0.000271744
0.00474029 0.000828135 -0.000196892
0.00454866 -0.000353725 0.000189243
0.00483702 -0.000351407 0.000264652
0.00482947 -0.000387652 0.00028209
0.00433837 -0.000362153 0.000139303
0.00479307 0.000839125 -5.52252e-05
0.00425853 -0.000321442 0.000123947
0.00444205 -0.000249626 0.000204856
0.00450861 -0.000170018 0.000174909
0.00483063 -0.000359067 0.000270772
0.00460405 0.000116283 -0.000204788
0.00457248 -0.000397525 0.000115037
0.00481193 -0.000376121 0.000276464
0.00433215 -0.000318292 0.000115317
0.00498733 0.00046209 -0.000513909
0.00430288 -0.0002696 0.000135051
0.00360706 0.000991494 -0.000952516
0.00432675 0.000619825 -0.000637318
0.00470971 0.000759847 -0.000491238
0.00450856 -0.000377416 0.00014335
0.00475911 0.000844562 -5.58354e-05
0.00480902 -0.000388986 0.000281924
0.0050483 0.000231342 -0.00072557
0.00484511 -0.000357516 0.00026834
0.00475443 0.00085338 -6.1389e-05
0.00485146 -0.000341334 0.000261249
0.00473271 0.000814799 -0.000404915
0.00484905 -0.000354082 0.000266762
0.00468788 0.000564666 -0.000596765
0.00444063 -0.000248618 0.000209813
0.00473582 0.000777462 -2.45495e-05
0.00535972 0.00051749 -0.000819292
0.00438723 -0.000371049 0.000194672
0.00473224 0.000826248 -3.33454e-05
0.00445539 -0.000383109 3.68264e-06
0.00507596 0.000240281 -0.000694234
0.00500921 0.000409613 -0.000576014
0.00348081 0.000939375 -0.000909249
0.0047214 0.000794123 -0.000476402
0.00498198 0.000406501 -0.000566947
0.00463152 0.000532165 -0.000567392
0.00435809 -0.000329012 0.00013857
0.00467388 0.000780026 -0.000487958
0.00436971 -0.000305571 0.000145933
0.00471204 0.000785387 -0.0004894
0.00444114 -0.00036514 -6.22947e-05
0.00472949 0.000547507 -0.000585318
0.00481062 0.000504166 -0.000545003
0.00453512 0.00012116 -0.00012606
0.00433169 -0.00033235 0.00012896
0.00429547 -0.000320927 0.000117707
0.0039518 0.000739691 -0.000788685
0.00487499 -0.000361402 0.000173417
0.00492607 0.000223396 -0.000659894
0.00446971 -0.000233496 8.07068e-05
0.00425119 -0.000310014 0.000112093
0.00469461 0.000801548 -0.000366296
0.00479097 0.000492463 -0.000533359
0.00453878 -0.000385035 0.000178171
0.00472882 0.000821997 -0.000497372
0.00475576 0.000945995 -7.92099e-05
0.00515021 0.000580587 -0.000625419
0.00493226 0.000456982 -0.0005173
0.0047444 0.000873853 -5.07095e-05
0.00444546 -0.000421773 -4.21224e-05
0.00475423 0.000741908 -0.000463934
0.00466023 0.000582935 -0.000611646
0.00503882 0.000267485 -0.000681346
0.00462938 0.000529801 -0.000565444
0.00471917 0.00084389 -0.000488191
0.00513017 0.000666475 -0.000704858
0.00438585 -0.000345552 0.000179532
0.00436037 -0.000334818 0.000144205
0.00462914 5.47398e-05 -0.000111544
0.00484793 -0.000357451 0.00026809
0.00464227 0.000569631 -0.000601209
0.00473894 -0.000359279 0.000248295
0.0042972 -0.000306817 0.000106241
0.00429175 -0.000316955 0.00011738
0.00433199 -0.00038692 0.000139992
0.00295169 0.000684981 -0.00132987
0.00453545 -0.00030797 0.000141601
0.00449937 0.00059636 -0.000622588
0.00526578 0.000347971 -0.000415079
0.00460431 6.06447e-05 -0.000112401
0.00496954 0.000481595 -0.000520237
0.00474333 0.000753451 -0.000234576
0.00467081 0.00052442 -0.000562041
0.00502853 0.000710674 -0.00121723
0.00472045 0.000801979 -4.74368e-05
0.00448452 0.000628889 -0.000642112
0.00494847 0.000470153 -0.00051435
0.00485085 -0.000353784 0.000265226
0.00444006 -0.000384951 -5.16068e-05
0.00466373 0.000805514 -0.000497708
0.00474435 0.000532036 -0.000571144
0.00478359 0.000875921 -8.0346e-05
0.00472711 0.000513047 -0.000552471
0.00494346 0.000192809 -4.71683e-05
0.00505884 0.000582866 -0.000652754
0.00477218 0.000520812 -0.000556772
0.00493542 0.000194356 -4.80529e-05
0.0049515 0.000191301 -4.62202e-05
0.00545024 0.00048987 -0.00085018
0.00455579 0.000258502 -8.65384e-05
0.00444505 -0.000234507 0.00020472
0.00442064 -0.000367004 -0.000113629
0.0045121 0.000617801 -0.000633219
0.00423151 -0.000308044 0.000110961
6.80169e-15 2.29892e-14 -7.0325e-14
0.00451504 0.000265128 -9.05593e-05
0.00469664 0.000782975 -0.000489072
0.00469684 0.000483109 -0.000565386
0.00457151 0.000583623 -0.000612171
0.00478551 0.000867211 -6.12601e-05
0.00500908 0.000230498 -0.000658056
0.0051299 0.000341366 -0.000789621
0.00475053 0.000832207 -9.81124e-05
0.00432652 -0.000350667 0.000141644
0.00624928 0.000835745 -0.00163186
0.00508495 0.00043512 -0.000617815
0.00463732 0.000245232 -7.85208e-05
0.00492768 0.000483175 -0.000530329
0.00458362 0.000629326 -0.000646031
0.00428436 -0.000316457 0.000117129
0.00471255 0.000772257 -0.000496863
0.00472547 0.000835721 -7.45079e-05
0.00473243 0.000730536 -0.000498915
0.00477639 0.000854638 -4.26252e-05
0.00471189 0.000727807 -0.000383988
0.00470849 0.000814566 -4.32692e-05
0.00489608 0.000849035 -4.05716e-05
0.00474755 0.000877517 -3.42876e-05
0.00473598 0.000844333 -5.32291e-05
0.00489187 0.00047175 -0.000555537
0.00435386 -0.00036971 -7.70693e-05
-1.29326e-14 6.08826e-14 -1.9022e-13
0.00466957 0.000240364 -7.44019e-05
0.00464147 0.000849787 -0.000478675
0.00467807 0.000238594 -7.45707e-05
0.00459657 0.000251845 -8.25695e-05
0.00489523 0.00047912 -0.000531257
0.00474188 0.000525706 -0.000564985
0.00471544 0.000814145 -4.95778e-05
0.00432234 -0.000345614 0.000137585
0.00504982 0.00025335 -0.000650712
0.00476225 0.000844301 -5.56817e-05
0.00506547 0.000337221 -0.000653968
0.00486093 0.00111312 -0.000289902
0.00434317 -0.00032003 0.00013697
0.0048459 0.000493623 -0.000548346
0.00464163 0.000520665 -0.000556822
0.00485095 -0.000348834 0.000264776
0.00448372 -0.000394352 -5.35851e-05
0.00469782 0.000785718 -0.000490922
0.00440112 -0.00038192 0.000140294

VECTORS force float
1.04518e-11 -7.40869e-13 -8.07317e-11
-1.10818e-10 -6.95335e-11 1.35959e-11
3.95768e-10 7.14786e-12 -1.17318e-10
-7.50738e-11 -4.5537e-10 -5.24707e-11
8.17016e-11 -1.57436e-10 1.86031e-10
-2.70362e-10 7.39041e-10 -5.1815e-10
-4.32243e-11 2.36175e-11 -2.40027e-11
-8.47971e-11 -2.09816e-10 2.58525e-10
-4.13383e-10 3.41428e-10 5.95626e-11
1.13598e-10 -1.09258e-10 6.88843e-12
-1.85469e-11 6.4358e-11 -2.9336e-11
-9.72098e-12 1.17544e-10 -6.41607e-11
6.96822e-12 1.77216e-10 -6.27694e-11
1.4801e-10 4.1698e-10 -2.70449e-10
-3.09273e-10 1.8676e-10 -3.76181e-11
-4.473e-11 -9.10579e-10 1.12189e-09
6.3711e-11 1.85756e-10 -3.59505e-11
5.6205e-11 -3.13222e-11 7.3704e-12
-7.73087e-12 2.51626e-10 -1.10212e-10
1.23937e-10 -1.22218e-10 1.49186e-10
-1.03819e-10 -3.62826e-10 7.87839e-12
-3.03099e-10 -3.2576e-11 3.80613e-10
-1.22859e-10 5.11742e-11 -8.63079e-12
1.50779e-10 2.13263e-10 -3.43768e-11
-5.03963e-10 6.23042e-10 -5.51568e-10
-9.77991e-12 -5.51458e-11 -2.33336e-10
2.51012e-10 9.63892e-10 -6.68537e-10
1.78111e-10 -1.14449e-10 -3.10659e-12
-5.84945e-11 -2.29094e-10 5.6261e-11
-5.71146e-10 4.8424e-10 -3.12281e-10
8.46332e-11 -6.9638e-11 2.6952e-10
1.76533e-10 -1.20049e-11 3.81078e-12
6.09121e-10 9.31865e-11 -5.68909e-11
-7.58271e-11 3.47951e-11 -3.17382e-11
1.06878e-10 -4.96123e-11 -3.17749e-11
8.30818e-12 -3.47147e-11 1.7939e-11
-2.25511e-10 1.38583e-10 -6.95757e-11
-1.69636e-10 3.42767e-11 -1.20469e-11
1.93243e-09 1.0575e-09 1.70868e-11
1.57355e-12 -4.95643e-11 -3.95642e-11
-2.10783e-09 -1.11565e-09 9.30297e-10
6.17353e-11 1.80137e-10 -1.62456e-10
1.12869e-10 6.0947e-12 -1.36747e-11
-5.20881e-11 6.20677e-11 -2.80289e-11
-2.34108e-10 4.61038e-11 -3.92402e-11
3.13276e-11 -8.88005e-11 2.02167e-11
5.92109e-11 -3.43061e-11 -5.24416e-11
-4.05592e-11 -4.2148e-11 -3.52359e-11
1.02203e-10 -1.84826e-11 -2.88702e-11
9.11352e-10 9.82347e-10 -5.63952e-10
-9.86153e-11 -2.60141e-10 2.45306e-10
-8.73677e-11 -1.54449e-10 -3.17618e-10
1.03794e-10 1.40425e-11 1.57235e-10
6.71341e-11 -6.52455e-11 6.42858e-11
-8.35339e-11 2.81637e-11 -3.25734e-11
2.74638e-10 -2.00085e-10 1.54994e-10
-2.24672e-10 -1.62578e-10 5.45356e-11
3.51577e-10 4.66582e-11 -6.81619e-11
3.54745e-11 8.9718e-11 1.32264e-11
1.50551e-10 -3.70819e-11 1.82184e-11
2.29308e-11 -2.39077e-10 1.96001e-10
-5.76836e-11 1.08562e-10 -4.96779e-11
-2.53954e-10 -3.94942e-11 8.29007e-12
-3.13496e-11 -4.21292e-10 4.21919e-10
-3.91642e-10 1.81342e-10 1.35024e-10
-2.35405e-10 -2.87301e-11 7.04228e-11
4.25277e-11 1.21768e-10 -7.87998e-11
-1.28388e-10 -6.59198e-11 -2.39447e-10
-2.79155e-10 -6.2009e-11 -9.22371e-13
3.44246e-12 -5.99813e-12 1.77383e-12
-5.25247e-10 6.94512e-10 -5.88336e-10
-5.02639e-10 6.24204e-10 -5.60069e-10
-1.89831e-10 1.07571e-10 -2.29625e-10
-1.99534e-11 -7.01113e-11 7.86034e-12
8.41914e-11 -2.89652e-10 2.65731e-10
7.50379e-10 -7.67124e-11 7.40052e-11
-3.3397e-11 -3.34421e-11 -3.86894e-11
-4.13362e-10 -6.14256e-10 5.99681e-10
3.35383e-10 -9.42945e-10 2.40004e-11
6.35232e-11 1.12842e-10 4.2529e-11
-1.03016e-10 -5.18324e-11 2.06762e-11
6.79962e-11 -4.51292e-11 3.04573e-11
2.42179e-11 7.44126e-11 -4.46197e-11
-1.94605e-10 1.30283e-10 -1.2111e-10
-8.8163e-11 6.9556e-11 -3.46585e-11
-2.92111e-10 1.7944e-10 -1.21041e-10
1.89188e-11 1.46501e-10 -7.0211e-11
3.26017e-10 -4.20231e-10 9.57206e-11
-1.1624e-10 2.68768e-10 -1.48479e-10
-1.11093e-10 6.74208e-11 -5.71273e-11
-5.17118e-10 -2.52491e-10 2.09072e-10
9.68564e-11 -1.96654e-11 -1.1308e-11
-1.65185e-10 -1.88671e-10 -6.20823e-11
1.36852e-10 -1.41617e-10 2.09875e-11
3.21232e-11 7.95357e-11 -4.60353e-11
-1.42394e-10 -2.4483e-10 2.07526e-10
1.42492e-10 -1.12475e-10 -2.48619e-11
-2.83184e-10 -1.54072e-10 1.86494e-10
-5.2203e-10 7.17524e-10 -6.21903e-10
1.38308e-10 -9.47735e-11 8.7711e-12
7.25299e-13 -1.56051e-13 2.2346e-14
-1.15141e-11 -1.52761e-10 1.87024e-12
-6.49068e-11 -6.83808e-12 1.43378e-11
-5.02058e-10 6.34017e-10 -5.81852e-10
1.62976e-10 3.30888e-11 2.41254e-12
-5.644e-10 2.30817e-10 -1.80663e-10
-2.55497e-11 -7.38833e-11 -1.60692e-11
-1.39257e-11 -2.38046e-11 1.56291e-10
1.23545e-10 1.98558e-11 -6.4222e-11
1.14894e-10 2.35493e-11 -4.85868e-11
-1.55004e-10 -8.113e-10 5.61119e-10
-3.18534e-10 2.30849e-10 -1.11021e-10
-1.82291e-11 -2.38186e-11 1.19911e-11
7.04381e-12 9.12682e-11 -4.12614e-11
-9.36039e-12 -1.63889e-10 -8.2715e-12
1.97265e-10 -2.52359e-10 -2.21066e-11
1.50242e-10 -8.6886e-11 -1.27133e-11
-3.75607e-11 4.37855e-11 1.41609e-11
-5.10998e-10 6.58314e-10 -5.88032e-10
-6.88266e-11 -2.61486e-11 -1.76995e-12
-5.18501e-10 6.78976e-10 -5.90947e-10
-2.24562e-11 -9.2649e-12 1.2056e-11
5.17623e-11 5.34968e-11 -1.35239e-11
-2.52163e-11 1.62579e-10 -1.20592e-11
-2.48873e-11 9.41842e-11 -6.59334e-11
-1.96416e-10 1.57291e-10 -2.16095e-10
4.44825e-12 8.23948e-11 -4.14403e-11
4.37561e-11 1.1266e-11 1.56674e-10
7.84922e-11 6.28155e-11 -6.50627e-11
-2.9452e-11 8.1141e-11 -2.35608e-11
-5.04442e-11 -6.2848e-11 3.10827e-11
-4.12148e-12 4.08886e-11 -8.13208e-13
-1.76496e-10 -1.05367e-10 5.50256e-12
-6.74401e-11 7.25432e-12 -5.64662e-12
-2.75133e-10 -1.88052e-11 -4.47994e-11
-2.42575e-10 1.46314e-10 -5.15731e-11
1.0877e-10 1.74874e-10 -8.1077e-11
-5.2614e-10 7.06376e-10 -5.99029e-10
1.39433e-10 -3.28111e-10 1.98215e-11
-1.89616e-10 -8.82313e-12 -2.24338e-12
-2.52235e-10 1.22683e-10 -1.34138e-10
7.85311e-10 -1.53385e-10 5.60671e-11
2.25155e-10 -6.65058e-11 1.65256e-11
-2.37834e-09 -8.46075e-10 8.58906e-10
-5.69025e-10 2.61948e-10 -1.73742e-10
-2.21668e-11 -1.51983e-11 6.44541e-11
9.25648e-11 -2.76681e-10 5.39775e-11
1.60486e-10 -9.63255e-11 7.06471e-11
-1.75411e-10 -1.52365e-11 4.36184e-13
5.58697e-11 4.9267e-11 -5.20197e-11
-5.67695e-12 7.48539e-11 -3.54623e-11
6.52634e-11 1.15132e-10 -4.30004e-11
3.4754e-11 1.02988e-10 -3.23303e-11
2.03287e-11 2.75499e-11 -7.20388e-11
-3.9104e-11 1.4146e-11 -1.21226e-11
-2.55127e-10 -5.89347e-10 5.71108e-10
6.4936e-11 -1.46366e-11 8.63081e-12
5.32983e-11 -2.24288e-10 4.43264e-11
6.14701e-11 -5.95419e-10 -7.90583e-10
1.18529e-10 -1.34656e-10 2.1085e-11
1.23454e-10 1.02198e-12 -4.35405e-11
7.18849e-11 -1.39761e-10 8.50925e-11
4.32109e-10 -1.19885e-10 -7.00006e-11
3.87924e-10 1.16327e-10 -4.14375e-10
1.31492e-09 2.10327e-09 -1.68542e-09
-1.21794e-12 5.16273e-11 1.13746e-10
6.46597e-11 -3.93193e-11 -7.32128e-11
-1.96285e-10 -7.04852e-11 5.44989e-11
-1.09541e-11 3.20459e-11 -9.36723e-13
-7.4319e-11 -2.69201e-11 2.74242e-11
1.95662e-10 -5.22738e-11 3.19825e-11
1.65476e-11 9.45477e-11 -4.95937e-11
2.74757e-10 -3.10568e-10 3.66276e-11
-8.93531e-12 -5.02467e-10 4.36332e-10
-4.55598e-10 -4.32935e-10 3.60525e-10
3.44332e-10 -6.00653e-11 2.79286e-11
-1.04952e-10 7.68718e-11 -3.09481e-11
-4.15479e-11 -1.60279e-11 -5.49416e-11
7.16024e-12 -4.44408e-10 -5.16652e-10
3.49699e-11 2.58324e-10 8.80406e-11
6.21726e-10 -4.46123e-10 -2.1039e-10
-5.08358e-12 -6.99624e-11 -1.75741e-10
-7.39132e-11 -5.54437e-11 5.78133e-11
-2.69543e-10 1.78555e-10 -3.53026e-10
3.70169e-10 -2.61171e-10 2.14047e-10
-4.25262e-11 -1.16392e-10 1.32452e-10
-1.32397e-11 1.3741e-11 -6.61785e-11
9.96201e-11 -1.38539e-10 -4.34544e-11
-5.3195e-10 6.74816e-10 -5.36259e-10
9.06176e-11 -2.37932e-10 5.64714e-10
9.03081e-11 1.42553e-10 -1.00486e-10
5.65177e-11 -7.17454e-11 -4.45546e-13
-5.17523e-10 3.602e-10 -2.84865e-10
-6.4976e-11 -5.40134e-10 4.85049e-10
4.9497e-11 -3.74239e-11 -5.58383e-11
5.65866e-10 -1.01867e-10 7.63007e-11
6.35727e-12 -1.61938e-11 -5.06859e-12
-1.05794e-10 4.02991e-10 -3.09499e-10
2.79605e-10 -4.06994e-10 -2.31561e-10
-2.45453e-10 1.74012e-10 1.87122e-11
-5.01306e-11 -1.49341e-10 3.72615e-11
-3.08571e-11 1.03446e-10 -6.69354e-11
8.59473e-10 -5.96145e-10 4.98023e-10
2.39887e-10 8.97748e-11 -1.10587e-10
-6.94389e-11 3.52225e-11 -3.25984e-11
-4.05385e-11 1.03755e-12 -7.43959e-12
3.63277e-11 9.77026e-11 -3.01528e-12
6.68491e-10 4.03475e-10 -2.21114e-10
1.59887e-10 -1.28944e-10 -2.26552e-14
-4.59764e-10 1.77967e-10 -5.99168e-11
-5.29364e-10 6.91628e-10 -5.71123e-10
-9.28895e-12 -3.5839e-12 -1.64504e-12
2.56285e-10 1.57924e-10 2.62433e-11
1.20882e-11 -1.05252e-10 -2.04511e-10
-3.59465e-10 -2.47832e-10 2.16993e-10
-7.45146e-10 2.58602e-10 -1.12383e-09
1.06492e-10 1.36848e-11 -2.55668e-10
-3.91735e-10 -6.76352e-10 6.02689e-10
1.35569e-09 -3.0004e-10 2.13006e-10
1.61601e-11 1.20843e-10 -7.60843e-11
-2.64437e-11 -8.13828e-11 -7.17614e-13
9.297e-11 -3.39851e-10 -3.34907e-10
-2.31044e-10 -5.69582e-10 4.06163e-10
1.90191e-11 1.6225e-10 -2.41144e-10
-2.32118e-10 -3.05003e-10 3.39217e-10
-2.95982e-13 7.9854e-13 4.69244e-14
3.87137e-12 1.60663e-10 -4.00514e-10
-4.12173e-10 -3.54841e-10 2.58694e-10
1.2131e-13 6.97602e-13 -1.40597e-13
3.2803e-13 3.88192e-13 -7.03205e-13
-1.16474e-10 -1.03367e-10 -2.59115e-10
8.37349e-13 4.548e-13 6.70376e-13
-2.2454e-10 -1.47367e-10 5.9051e-11
-1.78201e-10 6.6393e-11 -3.25915e-10
-4.55924e-10 -7.84904e-10 7.35471e-10
2.36587e-11 -5.76705e-11 6.6002e-11
4.58568e-23 1.15288e-23 8.89219e-24
1.04428e-12 -4.7673e-14 -5.62926e-13
-9.91128e-11 5.00372e-12 -7.48524e-11
-1.17491e-10 1.46553e-11 -1.53454e-10
1.93977e-10 -2.03808e-10 2.50618e-10
2.45504e-12 -1.8179e-10 -9.16021e-11
4.50561e-10 -3.59414e-10 8.6183e-11
1.25584e-10 -9.36764e-11 -3.39529e-10
6.55678e-11 -9.7854e-11 9.71132e-11
5.48538e-11 -1.69037e-10 1.06512e-11
3.3984e-10 9.50225e-10 9.05325e-10
5.48854e-11 1.02453e-10 -3.10849e-10
1.15639e-12 -5.73586e-14 -6.30013e-13
4.21417e-11 2.10335e-10 5.20567e-10
1.77132e-10 5.47214e-11 1.55811e-12
-2.25688e-11 3.33763e-11 -4.02562e-11
-3.651e-11 3.7049e-11 7.4984e-11
2.3594e-11 3.78666e-11 1.67431e-11
2.01106e-10 -1.36701e-10 -3.19656e-11
1.79269e-10 -4.05097e-11 1.53773e-10
2.92255e-10 9.3323e-10 -6.03579e-10
2.25128e-11 -1.97523e-10 -1.27844e-10
-6.8441e-10 7.58976e-11 -1.17784e-10
-1.67164e-12 5.39549e-11 -4.79348e-11
1.81964e-10 1.97917e-10 -4.3049e-11
-1.21731e-11 1.21078e-12 3.55162e-10
-5.00221e-11 -1.37643e-10 -1.09002e-10
7.23654e-22 1.87873e-22 1.28213e-23
1.18479e-12 2.85868e-16 -9.67502e-14
-5.28865e-12 -1.08391e-10 -2.90202e-12
2.12001e-14 4.93321e-13 4.94319e-13
7.70964e-13 9.87131e-15 -4.55004e-13
-2.29436e-10 -4.49548e-10 3.31579e-10
-3.93855e-10 -5.13967e-10 3.42458e-10
5.55927e-11 1.15399e-10 -6.216e-11
1.50056e-10 -1.47266e-10 1.1366e-11
4.83427e-10 1.48347e-10 -1.91536e-10
2.02063e-10 -3.37893e-11 3.30161e-11
1.86497e-12 1.74653e-10 -1.83475e-10
2.96471e-10 3.181e-12 -3.8413e-11
8.5685e-11 3.93861e-12 2.05261e-12
-1.60214e-10 -3.03103e-10 1.30852e-10
-3.93862e-10 -2.62758e-10 2.43144e-10
1.99027e-11 1.05971e-10 -2.23596e-11
7.02588e-13 -4.00764e-13 1.55218e-13
8.47833e-11 8.65084e-11 7.5063e-11
-1.24093e-10 -1.15092e-10 -5.18504e-11
