# vtk DataFile Version 3.0
LIGGGHTS particles timestep 73800000
ASCII
DATASET POLYDATA
POINTS 283 float
0.351228 0.0171646 0.00746153
0.351588 0.0181815 0.00706758
0.351338 0.0176871 0.00715473
0.351317 0.0175946 0.00718642
0.350846 0.0157798 0.00837164
0.357049 0.0166662 0.00807743
0.351056 0.0161578 0.0078823
0.350827 0.0157244 0.00845271
0.357289 0.0174803 0.00722926
0.351644 0.0186926 0.00685495
0.351181 0.0166816 0.00761779
0.357249 0.0173446 0.00737062
0.351663 0.0187861 0.00688501
0.345452 0.0182379 0.00713919
0.351719 0.0186287 0.00683696
0.345163 0.0170668 0.00781982
0.357401 0.0179874 0.00703452
0.351356 0.0177362 0.00724924
0.351454 0.0173675 0.00727921
0.350866 0.0158351 0.00829057
0.351374 0.0178586 0.0070963
0.357209 0.017209 0.00751198
0.351626 0.017675 0.00715407
0.357149 0.0170054 0.00772403
0.345252 0.0166916 0.0078924
0.351345 0.0174613 0.00732257
0.357028 0.0165984 0.00814812
0.351506 0.0180648 0.00702459
0.351843 0.0183698 0.00691616
0.357069 0.0167341 0.00800675
0.351425 0.0178667 0.0071815
0.351746 0.0185358 0.0068618
0.357344 0.0177091 0.00704535
0.351077 0.0162451 0.0078382
0.351673 0.0179588 0.00705757
0.351234 0.0165374 0.00769681
0.351674 0.017758 0.00712528
0.3518 0.0181868 0.00697859
0.351493 0.0179529 0.00706253
0.351356 0.0173795 0.00726595
0.357089 0.0168019 0.0079362
0.357169 0.0170733 0.00765344
0.351021 0.0160177 0.0080137
0.351432 0.0172803 0.00732316
0.357129 0.0169376 0.00779471
0.35153 0.0176348 0.00716939
0.345365 0.0178886 0.00731358
0.345393 0.0176297 0.00743343
0.351634 0.018293 0.00694549
0.357109 0.0168698 0.00786539
0.345153 0.016665 0.007915
0.357229 0.0172768 0.00744131
0.351677 0.0184677 0.00688589
0.350886 0.0158903 0.00820964
0.351277 0.0167122 0.00760867
0.351431 0.0176527 0.00716479
0.357189 0.0171411 0.00758266
0.35102 0.0163903 0.00775839
0.345524 0.0185905 0.00696473
0.351544 0.018692 0.00685185
0.345273 0.0167789 0.00784879
0.351388 0.0171061 0.00741094
0.357463 0.0182794 0.00706422
0.345054 0.0166376 0.00793809
0.357269 0.0174125 0.00729999
0.351138 0.0165073 0.00770569
0.351107 0.016739 0.0075826
0.351452 0.0175391 0.00728477
0.357381 0.0178912 0.00701586
0.351415 0.0180489 0.00706412
0.344839 0.0157475 0.00838175
0.34492 0.0160982 0.00820732
0.351692 0.0180519 0.00702589
0.34549 0.018414 0.00705195
0.345335 0.0170463 0.00771588
0.344858 0.0158354 0.00833814
0.357328 0.017628 0.00710147
0.345132 0.0165776 0.00795865
0.351474 0.0178601 0.00709414
0.357308 0.0175482 0.00715838
0.351299 0.0167994 0.00756472
0.351508 0.0175427 0.00720212
0.351203 0.0167688 0.00757385
0.351097 0.0163325 0.00779399
0.351555 0.0174069 0.00726587
0.351334 0.0172921 0.00731
0.351268 0.0170302 0.00744202
0.351587 0.0180083 0.00704232
0.35175 0.0178978 0.00707689
0.351567 0.0178206 0.00710595
0.345528 0.0174254 0.00751648
0.351506 0.0184996 0.00687792
0.345513 0.0177645 0.00735736
0.351543 0.0177285 0.00713737
0.351777 0.0180026 0.00704109
0.345318 0.0169554 0.00776056
0.345415 0.0177171 0.00738983
0.351134 0.0165014 0.00780543
0.344802 0.0155714 0.00846899
0.351711 0.0181448 0.00699424
0.351308 0.0175349 0.00726609
0.351393 0.0179514 0.00706469
0.350962 0.0161386 0.00790919
0.344942 0.0161856 0.00816372
0.351545 0.0182516 0.00696094
0.345175 0.0167523 0.0078714
0.351237 0.0172619 0.00731891
0.351281 0.0174416 0.00724256
0.351159 0.0165944 0.00766175
0.345542 0.0186789 0.00692112
0.357011 0.0165306 0.0082195
0.351591 0.0174908 0.00722459
0.351514 0.0172322 0.00735411
0.35115 0.0169133 0.0074947
0.345409 0.0180632 0.00722638
0.351469 0.0183136 0.00694127
0.351743 0.0183654 0.0069193
0.351256 0.016625 0.00765262
0.344898 0.0160109 0.00825092
0.351563 0.0187855 0.00688191
0.345055 0.0162326 0.00812998
0.350942 0.0160628 0.00797136
0.345473 0.0182392 0.00723694
0.351295 0.0173597 0.00737389
0.35141 0.0171932 0.00736705
0.351473 0.017455 0.0072349
0.351224 0.0168559 0.0075299
0.345398 0.0179708 0.00736925
0.351061 0.0165715 0.00777021
0.351172 0.0170004 0.00745075
0.351321 0.0168865 0.00752076
0.351582 0.0184381 0.00689744
0.345571 0.017952 0.00726262
0.351034 0.0160738 0.00793208
0.351587 0.0179886 0.00714036
0.351312 0.017205 0.0073539
0.351085 0.0166518 0.00762655
0.344821 0.0156595 0.00842537
0.3515 0.0180346 0.00711975
0.351536 0.0173193 0.00731018
0.351117 0.01642 0.00774978
0.345304 0.0172277 0.00763301
0.35145 0.0182207 0.00697293
0.345104 0.0168033 0.00795028
0.345049 0.016323 0.00808767
0.345507 0.0185022 0.00700834
0.351445 0.0177469 0.00713281
0.345644 0.0182934 0.00709344
0.351604 0.0185327 0.00686517
0.345447 0.0174804 0.0074987
0.351246 0.0169441 0.00748803
0.345618 0.0186179 0.00694222
0.351194 0.0170876 0.00740681
0.345316 0.0176901 0.00741264
0.351366 0.017019 0.00745488
0.34511 0.0164901 0.00800232
0.351662 0.0178522 0.00709372
0.345598 0.0182929 0.0071827
0.345458 0.0176811 0.00748908
0.351558 0.0183558 0.00695912
0.345378 0.0177775 0.00746058
0.35141 0.0175597 0.0071965
0.345421 0.0173873 0.00754545
0.345206 0.0172489 0.0076329
0.345157 0.0169755 0.0078618
0.345642 0.0187253 0.00688992
0.345383 0.0172439 0.00769165
0.345198 0.0168408 0.00782717
0.351431 0.0181277 0.0070046
0.345431 0.0181506 0.00718278
0.351652 0.0183913 0.00695183
0.345549 0.0182141 0.00714061
0.351585 0.0179135 0.00707429
0.345076 0.0167249 0.00789449
0.345273 0.0171243 0.00770503
0.357361 0.0177951 0.00699719
0.351086 0.0166632 0.00772589
0.351036 0.0164769 0.00781423
0.344964 0.0162729 0.00812012
0.351394 0.0173657 0.00735914
0.345576 0.0176088 0.00742477
0.351526 0.0185937 0.00685065
0.350923 0.0160095 0.00805386
0.345326 0.017593 0.00755061
0.345602 0.0178015 0.00733077
0.351178 0.0165917 0.00775992
0.345338 0.0177775 0.00736904
0.34545 0.0181474 0.00728086
0.345011 0.0160579 0.00821718
0.345451 0.0174681 0.00759786
0.345583 0.018441 0.00702962
0.351788 0.0184496 0.00689016
0.345258 0.0174331 0.00764494
0.345033 0.0165502 0.00798168
0.345326 0.017315 0.00758941
0.345297 0.0168681 0.00780416
0.345601 0.0185295 0.00698588
0.345033 0.0161452 0.00817358
0.351507 0.0182387 0.00705282
0.351042 0.0164775 0.00771444
0.357442 0.0181817 0.00705719
0.351129 0.0168261 0.00753865
0.344995 0.0164012 0.00805606
0.351064 0.0165646 0.00767049
0.351001 0.0163028 0.00780265
0.350981 0.0162153 0.007847
0.351487 0.0184067 0.00690959
0.345118 0.0168924 0.00790703
0.351721 0.0182454 0.00696012
0.345207 0.0165157 0.00798026
0.344877 0.0159234 0.00829452
0.357422 0.0180841 0.00705016
0.345185 0.0171616 0.0076765
0.345505 0.0176748 0.00740071
0.34522 0.0169289 0.00778311
0.345228 0.0173362 0.00758931
0.345548 0.017886 0.00733432
0.345095 0.0164013 0.00804589
0.345596 0.0177116 0.007374
0.35129 0.0171174 0.00739807
0.351375 0.0174715 0.00722764
0.345708 0.0186548 0.00691562
0.345098 0.0168122 0.00785089
0.345589 0.0180401 0.007219
0.345242 0.0170163 0.00773947
0.339252 0.0173221 0.00730645
0.345371 0.0175423 0.00747704
0.345141 0.0169869 0.0077637
0.339231 0.017234 0.00734841
0.339274 0.0174102 0.00726448
0.345672 0.0179868 0.00723581
0.339316 0.0175868 0.0071805
0.351613 0.0175812 0.00718594
0.351216 0.0171747 0.00736287
0.34503 0.0164948 0.00806486
0.350904 0.0159458 0.00812844
0.215741 0.019982 0.00563384
0.339295 0.0174985 0.0072225
0.345699 0.0185624 0.00696025
0.345481 0.0175838 0.00744627
0.345229 0.0166032 0.00793658
0.345495 0.0178479 0.00740961
0.345349 0.0173416 0.00768297
0.345352 0.0174546 0.00752065
0.345294 0.0176024 0.00745642
0.351606 0.0181012 0.00701066
0.345618 0.0181459 0.00716591
0.345444 0.0175721 0.00753865
0.339355 0.0177751 0.00714129
0.34522 0.0172387 0.00773137
0.344983 0.0163666 0.00814908
0.351212 0.0164502 0.00774075
0.345507 0.0183337 0.00718854
0.345373 0.0178637 0.00741009
0.345471 0.0183259 0.00709557
0.345429 0.0178164 0.00734134
0.345562 0.0187832 0.00687153
0.345332 0.0176847 0.00751125
0.34525 0.0174236 0.00754571
0.34552 0.0181081 0.00719376
0.345685 0.0182098 0.00712879
0.345188 0.0171537 0.00777614
0.35138 0.0176391 0.00724973
0.404182 0.0211142 0.0056569
0.339396 0.0179709 0.00714012
0.345387 0.0179759 0.00726998
0.339375 0.017873 0.0071407
0.339334 0.0176772 0.00714188
0.345415 0.0172716 0.00760091
0.345119 0.0168996 0.00780729
0.345272 0.0175116 0.00750177
0.351628 0.0181985 0.00697748
0.345349 0.0174101 0.00761019
0.345462 0.0179135 0.00729195
0.345237 0.0173281 0.00768858
0.345565 0.0183524 0.00707342
0.351526 0.0181586 0.00699261
0.345163 0.0170742 0.0077201
0.34536 0.0171508 0.00766377
0.351251 0.017253 0.00741753
0.351259 0.0173519 0.00728101
0.345487 0.0180038 0.00724662
0.351357 0.0177849 0.00716196

VERTICES 283 566
1 0
1 1
1 2
1 3
1 4
1 5
1 6
1 7
1 8
1 9
1 10
1 11
1 12
1 13
1 14
1 15
1 16
1 17
1 18
1 19
1 20
1 21
1 22
1 23
1 24
1 25
1 26
1 27
1 28
1 29
1 30
1 31
1 32
1 33
1 34
1 35
1 36
1 37
1 38
1 39
1 40
1 41
1 42
1 43
1 44
1 45
1 46
1 47
1 48
1 49
1 50
1 51
1 52
1 53
1 54
1 55
1 56
1 57
1 58
1 59
1 60
1 61
1 62
1 63
1 64
1 65
1 66
1 67
1 68
1 69
1 70
1 71
1 72
1 73
1 74
1 75
1 76
1 77
1 78
1 79
1 80
1 81
1 82
1 83
1 84
1 85
1 86
1 87
1 88
1 89
1 90
1 91
1 92
1 93
1 94
1 95
1 96
1 97
1 98
1 99
1 100
1 101
1 102
1 103
1 104
1 105
1 106
1 107
1 108
1 109
1 110
1 111
1 112
1 113
1 114
1 115
1 116
1 117
1 118
1 119
1 120
1 121
1 122
1 123
1 124
1 125
1 126
1 127
1 128
1 129
1 130
1 131
1 132
1 133
1 134
1 135
1 136
1 137
1 138
1 139
1 140
1 141
1 142
1 143
1 144
1 145
1 146
1 147
1 148
1 149
1 150
1 151
1 152
1 153
1 154
1 155
1 156
1 157
1 158
1 159
1 160
1 161
1 162
1 163
1 164
1 165
1 166
1 167
1 168
1 169
1 170
1 171
1 172
1 173
1 174
1 175
1 176
1 177
1 178
1 179
1 180
1 181
1 182
1 183
1 184
1 185
1 186
1 187
1 188
1 189
1 190
1 191
1 192
1 193
1 194
1 195
1 196
1 197
1 198
1 199
1 200
1 201
1 202
1 203
1 204
1 205
1 206
1 207
1 208
1 209
1 210
1 211
1 212
1 213
1 214
1 215
1 216
1 217
1 218
1 219
1 220
1 221
1 222
1 223
1 224
1 225
1 226
1 227
1 228
1 229
1 230
1 231
1 232
1 233
1 234
1 235
1 236
1 237
1 238
1 239
1 240
1 241
1 242
1 243
1 244
1 245
1 246
1 247
1 248
1 249
1 250
1 251
1 252
1 253
1 254
1 255
1 256
1 257
1 258
1 259
1 260
1 261
1 262
1 263
1 264
1 265
1 266
1 267
1 268
1 269
1 270
1 271
1 272
1 273
1 274
1 275
1 276
1 277
1 278
1 279
1 280
1 281
1 282

POINT_DATA 283
SCALARS id int 1
LOOKUP_TABLE default
1
2
3
4
5
6
7
8
9
10
11
12
13
14
15
16
18
19
20
21
22
24
25
26
27
29
30
31
32
33
34
35
36
37
38
40
41
42
43
44
45
46
47
48
49
50
52
55
56
57
58
59
60
61
62
63
64
65
66
67
68
69
70
71
72
73
74
75
76
77
78
79
80
81
82
83
84
85
86
87
88
89
90
91
92
93
94
95
96
98
99
100
101
102
103
104
105
106
107
108
109
110
111
112
113
114
115
116
117
118
119
120
121
122
123
124
125
126
127
128
129
130
131
132
133
134
135
136
137
138
139
140
141
142
144
145
146
147
148
149
150
152
153
154
155
156
157
158
159
160
161
162
164
165
166
167
168
169
170
171
172
173
174
175
176
177
178
179
180
181
182
183
184
185
186
187
188
189
190
191
192
193
194
195
196
197
198
199
200
201
202
203
204
205
206
207
208
209
210
211
213
214
215
217
218
219
220
221
222
223
224
225
226
227
228
229
230
231
232
233
234
235
236
237
238
239
241
242
243
244
245
246
247
248
249
250
251
252
253
254
255
256
257
258
259
260
261
262
263
264
265
267
268
269
270
271
272
273
274
275
276
277
278
279
280
281
282
283
284
285
286
287
288
289
290
292
293
294
295
296
297
298
300

SCALARS type int 1
LOOKUP_TABLE default
1
1
1
1
1
1
1
1
1
1
1
1
1
1
1
1
1
1
1
1
1
1
1
1
1
1
1
1
1
1
1
1
1
1
1
1
1
1
1
1
1
1
1
1
1
1
1
1
1
1
1
1
1
1
1
1
1
1
1
1
1
1
1
1
1
1
1
1
1
1
1
1
1
1
1
1
1
1
1
1
1
1
1
1
1
1
1
1
1
1
1
1
1
1
1
1
1
1
1
1
1
1
1
1
1
1
1
1
1
1
1
1
1
1
1
1
1
1
1
1
1
1
1
1
1
1
1
1
1
1
1
1
1
1
1
1
1
1
1
1
1
1
1
1
1
1
1
1
1
1
1
1
1
1
1
1
1
1
1
1
1
1
1
1
1
1
1
1
1
1
1
1
1
1
1
1
1
1
1
1
1
1
1
1
1
1
1
1
1
1
1
1
1
1
1
1
1
1
1
1
1
1
1
1
1
1
1
1
1
1
1
1
1
1
1
1
1
1
1
1
1
1
1
1
1
1
1
1
1
1
1
1
1
1
1
1
1
1
1
1
1
1
1
1
1
1
1
1
1
1
1
1
1
1
1
1
1
1
1
1
1
1
1
1
1
1
1
1
1
1
1
1
1
1
1
1
1
1
1
1
1
1
1

SCALARS radius float 1
LOOKUP_TABLE default
5e-05
5e-05
5e-05
5e-05
5e-05
5e-05
5e-05
5e-05
5e-05
5e-05
5e-05
5e-05
5e-05
5e-05
5e-05
5e-05
5e-05
5e-05
5e-05
5e-05
5e-05
5e-05
5e-05
5e-05
5e-05
5e-05
5e-05
5e-05
5e-05
5e-05
5e-05
5e-05
5e-05
5e-05
5e-05
5e-05
5e-05
5e-05
5e-05
5e-05
5e-05
5e-05
5e-05
5e-05
5e-05
5e-05
5e-05
5e-05
5e-05
5e-05
5e-05
5e-05
5e-05
5e-05
5e-05
5e-05
5e-05
5e-05
5e-05
5e-05
5e-05
5e-05
5e-05
5e-05
5e-05
5e-05
5e-05
5e-05
5e-05
5e-05
5e-05
5e-05
5e-05
5e-05
5e-05
5e-05
5e-05
5e-05
5e-05
5e-05
5e-05
5e-05
5e-05
5e-05
5e-05
5e-05
5e-05
5e-05
5e-05
5e-05
5e-05
5e-05
5e-05
5e-05
5e-05
5e-05
5e-05
5e-05
5e-05
5e-05
5e-05
5e-05
5e-05
5e-05
5e-05
5e-05
5e-05
5e-05
5e-05
5e-05
5e-05
5e-05
5e-05
5e-05
5e-05
5e-05
5e-05
5e-05
5e-05
5e-05
5e-05
5e-05
5e-05
5e-05
5e-05
5e-05
5e-05
5e-05
5e-05
5e-05
5e-05
5e-05
5e-05
5e-05
5e-05
5e-05
5e-05
5e-05
5e-05
5e-05
5e-05
5e-05
5e-05
5e-05
5e-05
5e-05
5e-05
5e-05
5e-05
5e-05
5e-05
5e-05
5e-05
5e-05
5e-05
5e-05
5e-05
5e-05
5e-05
5e-05
5e-05
5e-05
5e-05
5e-05
5e-05
5e-05
5e-05
5e-05
5e-05
5e-05
5e-05
5e-05
5e-05
5e-05
5e-05
5e-05
5e-05
5e-05
5e-05
5e-05
5e-05
5e-05
5e-05
5e-05
5e-05
5e-05
5e-05
5e-05
5e-05
5e-05
5e-05
5e-05
5e-05
5e-05
5e-05
5e-05
5e-05
5e-05
5e-05
5e-05
5e-05
5e-05
5e-05
5e-05
5e-05
5e-05
5e-05
5e-05
5e-05
5e-05
5e-05
5e-05
5e-05
5e-05
5e-05
5e-05
5e-05
5e-05
5e-05
5e-05
5e-05
5e-05
5e-05
5e-05
5e-05
5e-05
5e-05
5e-05
5e-05
5e-05
5e-05
5e-05
5e-05
5e-05
5e-05
5e-05
5e-05
5e-05
5e-05
5e-05
5e-05
5e-05
5e-05
5e-05
5e-05
5e-05
5e-05
5e-05
5e-05
5e-05
5e-05
5e-05
5e-05
5e-05
5e-05
5e-05
5e-05
5e-05
5e-05
5e-05
5e-05
5e-05
5e-05
5e-05
5e-05
5e-05
5e-05
5e-05
5e-05
5e-05
5e-05
5e-05
5e-05
5e-05
5e-05
5e-05
5e-05
5e-05
5e-05
5e-05
5e-05
5e-05
5e-05

SCALARS mass float 1
LOOKUP_TABLE default
1.46608e-10
1.46608e-10
1.46608e-10
1.46608e-10
1.46608e-10
1.46608e-10
1.46608e-10
1.46608e-10
1.46608e-10
1.46608e-10
1.46608e-10
1.46608e-10
1.46608e-10
1.46608e-10
1.46608e-10
1.46608e-10
1.46608e-10
1.46608e-10
1.46608e-10
1.46608e-10
1.46608e-10
1.46608e-10
1.46608e-10
1.46608e-10
1.46608e-10
1.46608e-10
1.46608e-10
1.46608e-10
1.46608e-10
1.46608e-10
1.46608e-10
1.46608e-10
1.46608e-10
1.46608e-10
1.46608e-10
1.46608e-10
1.46608e-10
1.46608e-10
1.46608e-10
1.46608e-10
1.46608e-10
1.46608e-10
1.46608e-10
1.46608e-10
1.46608e-10
1.46608e-10
1.46608e-10
1.46608e-10
1.46608e-10
1.46608e-10
1.46608e-10
1.46608e-10
1.46608e-10
1.46608e-10
1.46608e-10
1.46608e-10
1.46608e-10
1.46608e-10
1.46608e-10
1.46608e-10
1.46608e-10
1.46608e-10
1.46608e-10
1.46608e-10
1.46608e-10
1.46608e-10
1.46608e-10
1.46608e-10
1.46608e-10
1.46608e-10
1.46608e-10
1.46608e-10
1.46608e-10
1.46608e-10
1.46608e-10
1.46608e-10
1.46608e-10
1.46608e-10
1.46608e-10
1.46608e-10
1.46608e-10
1.46608e-10
1.46608e-10
1.46608e-10
1.46608e-10
1.46608e-10
1.46608e-10
1.46608e-10
1.46608e-10
1.46608e-10
1.46608e-10
1.46608e-10
1.46608e-10
1.46608e-10
1.46608e-10
1.46608e-10
1.46608e-10
1.46608e-10
1.46608e-10
1.46608e-10
1.46608e-10
1.46608e-10
1.46608e-10
1.46608e-10
1.46608e-10
1.46608e-10
1.46608e-10
1.46608e-10
1.46608e-10
1.46608e-10
1.46608e-10
1.46608e-10
1.46608e-10
1.46608e-10
1.46608e-10
1.46608e-10
1.46608e-10
1.46608e-10
1.46608e-10
1.46608e-10
1.46608e-10
1.46608e-10
1.46608e-10
1.46608e-10
1.46608e-10
1.46608e-10
1.46608e-10
1.46608e-10
1.46608e-10
1.46608e-10
1.46608e-10
1.46608e-10
1.46608e-10
1.46608e-10
1.46608e-10
1.46608e-10
1.46608e-10
1.46608e-10
1.46608e-10
1.46608e-10
1.46608e-10
1.46608e-10
1.46608e-10
1.46608e-10
1.46608e-10
1.46608e-10
1.46608e-10
1.46608e-10
1.46608e-10
1.46608e-10
1.46608e-10
1.46608e-10
1.46608e-10
1.46608e-10
1.46608e-10
1.46608e-10
1.46608e-10
1.46608e-10
1.46608e-10
1.46608e-10
1.46608e-10
1.46608e-10
1.46608e-10
1.46608e-10
1.46608e-10
1.46608e-10
1.46608e-10
1.46608e-10
1.46608e-10
1.46608e-10
1.46608e-10
1.46608e-10
1.46608e-10
1.46608e-10
1.46608e-10
1.46608e-10
1.46608e-10
1.46608e-10
1.46608e-10
1.46608e-10
1.46608e-10
1.46608e-10
1.46608e-10
1.46608e-10
1.46608e-10
1.46608e-10
1.46608e-10
1.46608e-10
1.46608e-10
1.46608e-10
1.46608e-10
1.46608e-10
1.46608e-10
1.46608e-10
1.46608e-10
1.46608e-10
1.46608e-10
1.46608e-10
1.46608e-10
1.46608e-10
1.46608e-10
1.46608e-10
1.46608e-10
1.46608e-10
1.46608e-10
1.46608e-10
1.46608e-10
1.46608e-10
1.46608e-10
1.46608e-10
1.46608e-10
1.46608e-10
1.46608e-10
1.46608e-10
1.46608e-10
1.46608e-10
1.46608e-10
1.46608e-10
1.46608e-10
1.46608e-10
1.46608e-10
1.46608e-10
1.46608e-10
1.46608e-10
1.46608e-10
1.46608e-10
1.46608e-10
1.46608e-10
1.46608e-10
1.46608e-10
1.46608e-10
1.46608e-10
1.46608e-10
1.46608e-10
1.46608e-10
1.46608e-10
1.46608e-10
1.46608e-10
1.46608e-10
1.46608e-10
1.46608e-10
1.46608e-10
1.46608e-10
1.46608e-10
1.46608e-10
1.46608e-10
1.46608e-10
1.46608e-10
1.46608e-10
1.46608e-10
1.46608e-10
1.46608e-10
1.46608e-10
1.46608e-10
1.46608e-10
1.46608e-10
1.46608e-10
1.46608e-10
1.46608e-10
1.46608e-10
1.46608e-10
1.46608e-10
1.46608e-10
1.46608e-10
1.46608e-10
1.46608e-10
1.46608e-10
1.46608e-10
1.46608e-10
1.46608e-10
1.46608e-10
1.46608e-10
1.46608e-10
1.46608e-10
1.46608e-10
1.46608e-10
1.46608e-10
1.46608e-10
1.46608e-10
1.46608e-10
1.46608e-10
1.46608e-10
1.46608e-10

VECTORS velocity float
0.00477143 -0.000102257 0.0004073
0.00450854 -0.000167068 8.16914e-08
0.00448587 -0.000218426 -8.08146e-07
0.00477656 -0.000300344 -1.59526e-05
0.0042848 -0.000314799 8.0756e-06
0.00431477 0.000165058 0.000938201
0.00441651 -5.18558e-05 0.000343097
0.00427019 -0.000313298 6.26472e-06
0.00479494 0.000159257 0.00107459
0.00437841 -0.000175305 7.12508e-05
0.00475543 -0.000109743 0.00039503
0.00471711 0.000158584 0.00105235
0.00435078 -0.000169926 7.28722e-05
0.00490514 0.00171313 -0.00131
0.00438915 -0.000173656 7.6927e-05
0.00501283 0.0016889 -0.0013112
0.00447815 -0.0003137 0.000277565
0.00444082 -0.000208022 -1.48572e-05
0.00478139 -3.56718e-05 0.000359429
0.00431335 -0.000315069 8.10456e-06
0.00446632 -0.000190133 -1.04278e-05
0.00462947 0.000159376 0.00102696
0.00440184 -0.00022648 4.82433e-06
0.00450845 0.000148849 0.000994311
0.00499525 0.0016794 -0.00130426
0.00479897 -4.04449e-05 0.000243949
0.00428146 0.000182463 0.000912033
0.00456239 -0.000185289 -1.11366e-05
0.00449308 -0.000168145 -1.6811e-05
0.00435159 0.000155192 0.00095106
0.00448218 -0.000206846 -1.43728e-05
0.00446002 -0.000195813 -5.65693e-05
0.00450021 -0.000233129 0.000426779
0.00452183 -7.06757e-05 0.000359183
0.00455535 -0.000197715 -8.69687e-06
0.0047532 -9.76046e-05 0.000388559
0.00441587 -0.000230624 5.07079e-06
0.00451434 -0.000158026 -2.10999e-05
0.00449842 -0.000178935 -1.66553e-05
0.00470827 -0.000159529 0.000408788
0.00441165 0.000164389 0.000960682
0.00458473 0.000156624 0.0010156
0.00443201 -0.000281435 -5.42162e-05
0.0048094 -7.07878e-05 0.000378924
0.0044685 0.000152209 0.000977883
0.00463466 -0.000148746 -2.8891e-05
0.00503292 0.00166363 -0.00129991
0.00503465 0.00169599 -0.00131679
0.00448225 -0.000201671 -5.5241e-06
0.00444443 0.0001746 0.000967339
0.00499858 0.00168849 -0.00130889
0.00464478 0.000160262 0.00103389
0.00446558 -0.000188158 -1.20068e-05
0.00434701 -0.000320108 1.07211e-05
0.00476902 -0.000104943 0.000393673
0.00456827 -4.21423e-05 -5.29329e-05
0.00461018 0.000164589 0.00101983
0.0047466 -0.00010496 0.000392289
0.00465072 0.00175721 -0.00130576
0.0043766 -0.000201248 6.22142e-05
0.00499493 0.00167434 -0.00130183
0.00484893 -5.60416e-05 0.000374019
0.00446344 -0.000187525 -0.000353288
0.0049984 0.00169249 -0.00131082
0.00478108 0.000153588 0.00106789
0.00475752 -0.000107633 0.000395078
0.00476455 -0.000108651 0.00039512
0.0048241 0.000135249 7.39519e-05
0.0044919 -0.000323778 0.000272831
0.00459217 -0.000224126 -1.49775e-06
0.00478954 0.00173748 -0.00131074
0.00497761 0.00169311 -0.00130899
0.0045327 -0.000198595 -7.59091e-06
0.00469485 0.00175941 -0.00131166
0.00501697 0.00169055 -0.00131178
0.00476498 0.00174302 -0.00131095
0.00437807 -3.1167e-05 0.000676319
0.00500706 0.00170217 -0.00131626
0.00447224 -0.000173851 -1.67029e-05
0.00447632 0.00016422 0.0009842
0.0047803 -0.000104542 0.000394344
0.00476926 -0.000153763 3.18674e-05
0.00476502 -0.000111654 0.000396865
0.00462159 -8.74169e-05 0.000374516
0.00477957 -3.37035e-05 0.000357338
0.00480685 -9.5625e-05 0.000393884
0.00479039 -0.000115093 0.000400546
0.00458022 -0.000156503 -2.27936e-05
0.00458933 -0.000152556 -2.41043e-05
0.00441812 -0.000125536 -3.07418e-05
0.00502638 0.0016894 -0.00131207
0.00446229 -0.000219871 2.51286e-06
0.00502399 0.00169327 -0.00131324
0.00446492 -0.000131367 -3.28034e-05
0.00455061 -0.000170357 -1.75831e-05
0.00502721 0.00169832 -0.0013164
0.00504147 0.00169479 -0.00131666
0.00476364 -9.1336e-05 0.000397804
0.00481077 0.00173217 -0.00131052
0.00451797 -0.000198768 -7.50313e-06
0.0047816 -0.000156945 9.53119e-05
0.0044951 -0.000195362 -5.8807e-06
0.00439673 -5.45628e-05 0.000280238
0.00498079 0.00169306 -0.00130918
0.00447876 -0.000206996 -3.65789e-06
0.00500094 0.00168554 -0.00130769
0.00480087 -0.000112784 0.000398053
0.00478408 -0.000191064 0.000224432
0.00474884 -0.000107004 0.000393412
0.00469772 0.0017617 -0.00131228
0.0036393 0.000176075 0.000740636
0.00480007 2.94142e-05 0.000325725
0.00482772 -4.01518e-05 0.000363622
0.00477751 -0.000109287 0.000396602
0.00504663 0.00166201 -0.00130022
0.00445858 -0.000217579 6.96061e-07
0.00449009 -0.000202403 -5.29684e-06
0.00475617 -0.000104327 0.000392412
0.00497449 0.00169328 -0.00130878
0.00434943 -0.000198762 6.59157e-05
0.00498395 0.00169233 -0.00130925
0.0044001 -0.000229616 7.09846e-05
0.00496436 0.00176187 -0.00132424
0.00474587 5.75587e-05 0.000319169
0.00483691 -6.35162e-05 0.000377442
0.00478703 -4.08816e-05 0.000359002
0.00477396 -0.000112398 0.000397911
0.00505383 0.0017036 -0.0012928
0.00476455 -0.000100764 0.000397637
0.00478335 -0.000109501 0.000397086
0.00479255 -0.000102649 0.000394201
0.00447386 -0.000210565 2.64521e-06
0.00506387 0.00169028 -0.00131655
0.00431259 -0.000265741 -6.51543e-05
0.00462267 -0.000148479 -2.42033e-05
0.00483002 -9.37042e-05 0.000390492
0.0047608 -0.000109993 0.000396295
0.00478423 0.00173816 -0.00131055
0.0046217 -0.000200062 -6.97867e-06
0.00477825 -3.18905e-05 0.00035604
0.00471682 -0.000102053 0.000389137
0.00501847 0.00168747 -0.00131072
0.00448455 -0.000216257 -2.45064e-07
0.00500445 0.00169008 -0.00130888
0.00498846 0.001693 -0.00130992
0.00462022 0.00177191 -0.00130845
0.00449351 -0.000204028 -7.32688e-06
0.00490584 0.00195949 -0.00142717
0.0044518 -0.000207038 -4.00094e-06
0.00502949 0.00169052 -0.00131237
0.00478219 -0.000112988 0.000398802
0.00469819 0.00175138 -0.00130851
0.00479399 -0.000109074 0.000397472
0.00503818 0.00169519 -0.00131669
0.00481026 -4.30207e-05 0.000364219
0.00499816 0.00169551 -0.00131224
0.00448244 -0.000220261 -7.0918e-07
0.00497461 0.001891 -0.00139196
0.00504402 0.00167964 -0.00131217
0.00446533 -0.000209595 -1.34692e-06
0.0050302 0.00167433 -0.00130793
0.00476969 -0.000262434 1.24927e-05
0.00502517 0.00168595 -0.00131038
0.00501981 0.00168786 -0.00131071
0.00500873 0.00168992 -0.00130898
0.00443476 -2.31632e-05 -5.44076e-05
0.00502155 0.0016888 -0.00131228
0.00500269 0.00168271 -0.00130649
0.004532 -0.000219433 3.45444e-07
0.00504728 0.00166897 -0.00130508
0.00448565 -0.000205009 -1.02067e-06
0.00494403 0.00181343 -0.00136162
0.00453675 -0.000152931 -2.2513e-05
0.00500074 0.00169074 -0.00131013
0.00501764 0.00168902 -0.00131182
0.00451481 -0.000327603 0.000275172
0.0047601 -8.95728e-05 0.000395064
0.00473561 -8.82785e-05 0.000394342
0.00498447 0.00169315 -0.00130972
0.0047564 4.63896e-06 0.000344299
0.00503091 0.00168804 -0.00131225
0.00443444 -0.000211504 2.73043e-05
0.00436573 -0.000330527 1.30267e-06
0.00502668 0.00168545 -0.00131038
0.0050134 0.00169043 -0.00131005
0.00475663 -9.96841e-05 0.000391435
0.0050408 0.00169471 -0.00131417
0.00506283 0.00171201 -0.0013058
0.00497742 0.00169304 -0.00130889
0.00503597 0.00168546 -0.00131306
0.00461191 0.00175182 -0.00129927
0.00446074 -0.000186088 -1.24539e-05
0.00502651 0.00169304 -0.00130874
0.00499506 0.00169312 -0.00131085
0.00502442 0.00168765 -0.00131061
0.00500347 0.00167895 -0.00130488
0.00465889 0.00175865 -0.00130757
0.00498024 0.00169275 -0.00130904
0.00448335 -0.000197478 1.89254e-06
0.00475043 -0.000107759 0.00039466
0.00447535 -0.000194412 -0.000351301
0.00477067 -0.000108722 0.000395767
0.00498929 0.0016941 -0.00131067
0.00475421 -0.000111304 0.000396773
0.00436651 -4.52669e-05 0.000333872
0.00438734 -4.7143e-05 0.000336484
0.00444586 -0.000213919 1.30251e-06
0.00500774 0.00169183 -0.00130817
0.00449533 -0.000181784 -1.21832e-05
0.0050256 0.00172133 -0.00132722
0.0047389 0.00174838 -0.00131057
0.00448185 -0.000205977 -0.000333671
0.00501675 0.00168804 -0.00131102
0.00503994 0.00169438 -0.0013158
0.00500735 0.00168413 -0.00130768
0.00502325 0.00168633 -0.00131014
0.00504621 0.00170196 -0.00131698
0.00498133 0.00169786 -0.00131164
0.00500666 0.00168956 -0.00131067
0.00483057 -0.000101423 0.000398796
0.00478049 -0.000201782 0.000192799
0.0047317 8.49949e-05 -0.000521863
0.00500367 0.0016889 -0.00130936
0.00506257 0.00171354 -0.00132732
0.00501853 0.00168945 -0.00131169
0.00444582 -0.00171461 0.000480151
0.00502844 0.00168632 -0.00131059
0.00500893 0.00168706 -0.00130919
0.00444652 -0.00171523 0.000480544
0.00444642 -0.00171539 0.000480598
0.00505061 0.0017067 -0.00132282
0.00406244 -0.0016281 0.000468412
0.00454872 -0.00024627 8.90252e-06
0.00480442 -0.000112084 0.000400253
0.00499735 0.00169144 -0.0013117
0.00435648 -0.000319914 1.18746e-05
6.8054e-15 2.29888e-14 -7.03247e-14
0.00405011 -0.00162596 0.0004669
0.00472437 0.00177368 -0.00132128
0.00502581 0.00168712 -0.00131185
0.00499384 0.00168379 -0.0013062
0.00503589 0.00171334 -0.00132432
0.00501973 0.00169183 -0.00130912
0.00502789 0.00168718 -0.00131127
0.00502873 0.00168078 -0.00130866
0.00452499 -0.00014823 -2.45949e-05
0.0050565 0.0018916 -0.00141125
0.00502166 0.00169303 -0.00131313
0.00414393 -0.00162224 0.000519906
0.00502205 0.00168951 -0.00131076
0.00498721 0.00169365 -0.0013114
0.004765 -9.76552e-05 0.000390083
0.00491066 0.00174726 -0.00132305
0.00504973 0.00167402 -0.00129705
0.00487514 0.00173193 -0.00131445
0.00503441 0.00168222 -0.00130617
0.00438837 -8.05674e-05 -3.44015e-05
0.00503718 0.00168652 -0.00131457
0.00502411 0.00168103 -0.00130787
0.00505116 0.00169429 -0.00131708
0.00496738 0.00197716 -0.00144251
0.00501798 0.00169009 -0.00131113
0.00467372 -0.000153546 2.95424e-06
-1.28192e-14 6.09062e-14 -1.9022e-13
0.00412826 -0.00161886 0.00051808
0.00503696 0.00166211 -0.00129883
0.00413617 -0.00162053 0.000519019
0.00415185 -0.00162399 0.000520983
0.00502562 0.00168929 -0.00131166
0.00500627 0.00168747 -0.00130895
0.00502947 0.00168807 -0.00131186
0.00450982 -0.000206183 -5.09148e-06
0.00502472 0.00168885 -0.00131143
0.00504863 0.00168582 -0.00131072
0.00502343 0.00168879 -0.00130966
0.00479129 0.00184747 -0.00136319
0.0044832 -0.000208175 -3.49185e-06
0.0050144 0.00168798 -0.00131014
0.00501849 0.00168819 -0.00131121
0.00479645 -0.000103363 0.000402932
0.00479465 -0.00014445 0.00032364
0.00505638 0.00167246 -0.0013083
0.00448159 -0.000204819 -1.10322e-05

VECTORS force float
-2.23117e-11 1.77335e-11 -3.82036e-11
-6.11394e-11 -4.79329e-11 9.962e-12
-1.39275e-10 -8.53909e-11 9.49428e-11
-5.31056e-11 -6.77952e-11 -9.33413e-12
9.42613e-11 -9.59516e-12 1.93402e-11
2.37262e-10 1.53601e-11 1.06042e-10
-7.29383e-11 2.40191e-11 -4.79594e-11
5.66524e-11 -8.79622e-13 1.1059e-11
1.58065e-11 6.9185e-11 -1.09374e-10
-2.79473e-11 -4.17532e-12 -1.4925e-11
-1.09854e-12 -4.81878e-11 2.64775e-11
-2.22793e-10 4.70525e-11 -2.66414e-10
1.41438e-10 -4.91261e-11 -1.12921e-11
-4.04485e-11 4.79525e-11 -7.66798e-11
4.92911e-13 5.93187e-13 -1.19807e-11
3.14513e-12 -1.11308e-11 8.62562e-12
-6.19394e-12 -1.00378e-10 -3.86564e-11
6.07398e-11 -7.47833e-11 8.34323e-11
1.43837e-10 -1.64439e-10 1.26101e-10
-3.79233e-11 -2.11539e-11 2.20228e-11
-4.70661e-11 -1.53101e-10 4.44716e-11
2.15281e-10 8.21824e-11 -1.30052e-11
-8.73352e-11 4.1137e-11 4.17473e-12
2.02274e-10 -1.04289e-11 1.99759e-10
-1.0439e-11 -2.46613e-12 2.22017e-12
-3.82828e-10 5.38978e-10 2.69945e-10
-2.70282e-10 -1.14298e-10 4.27986e-12
-2.33122e-11 -4.96199e-11 2.71715e-11
-3.18248e-11 -5.76781e-11 3.77721e-12
2.54078e-10 2.38107e-10 2.44003e-10
2.86869e-11 6.77884e-11 -1.34391e-11
1.02742e-10 -1.85412e-11 -2.71652e-10
-2.10214e-10 1.66926e-10 1.50732e-10
-4.32489e-11 3.04918e-11 -2.19551e-11
-2.66546e-11 -2.08017e-12 -6.54597e-12
-1.01045e-11 -7.48292e-11 3.71921e-11
-1.33529e-10 6.91719e-11 1.21375e-12
4.51942e-11 -1.66898e-10 6.08888e-11
-9.09515e-11 8.12055e-11 -2.21399e-11
-3.24693e-10 8.34202e-11 4.43868e-10
-2.98396e-10 -1.50499e-10 -4.93334e-11
-7.64845e-10 -1.07656e-10 -4.64633e-11
1.07548e-11 -3.16195e-11 -4.08153e-11
1.38844e-10 -1.68892e-11 5.16322e-11
6.56279e-10 1.56962e-10 2.63919e-10
-5.96922e-11 1.35803e-10 2.99064e-10
2.83493e-11 6.9288e-12 4.12958e-11
1.01182e-11 3.91849e-11 -2.16249e-11
3.40155e-11 -6.0612e-11 8.71576e-12
-1.98479e-10 -1.35467e-10 1.2569e-10
-5.61576e-12 6.02871e-13 2.93847e-13
-2.20585e-10 1.20437e-10 -2.64636e-10
3.56077e-11 9.29808e-11 -6.57251e-11
3.08354e-11 -4.2834e-11 -2.70157e-12
4.87938e-11 1.18848e-11 -2.34394e-12
-1.04514e-10 4.79529e-11 -4.98532e-11
-1.75587e-11 -8.28966e-11 5.15049e-11
-1.10317e-12 -1.66114e-11 1.14748e-11
1.09788e-11 1.08582e-10 -4.84136e-11
-7.32776e-11 5.99243e-11 2.46993e-11
-2.03345e-12 7.19805e-12 -3.18871e-12
3.03927e-11 -4.16514e-11 2.73822e-11
5.32836e-11 2.95661e-11 2.66271e-11
4.0299e-12 7.99079e-12 -3.88042e-12
3.33557e-10 7.63095e-11 -1.02557e-10
3.93046e-11 -2.60176e-11 1.76714e-11
-6.31253e-12 -5.66823e-11 2.55308e-11
8.0724e-11 -1.38318e-10 2.04378e-10
9.12451e-11 -6.96991e-11 -3.31809e-11
1.25988e-10 -4.91639e-11 2.87075e-11
-3.55319e-12 -8.47555e-13 2.65379e-12
2.97408e-12 -1.23859e-12 -1.61418e-12
-3.48135e-11 3.10502e-11 -7.37916e-12
-6.51651e-11 -1.77468e-10 9.27928e-11
9.73045e-12 1.07192e-12 2.3334e-11
-8.77198e-12 -4.28448e-13 4.06288e-12
8.41796e-11 -4.95905e-11 -1.15411e-10
-2.61153e-13 6.23934e-12 -2.81699e-12
3.02374e-11 -2.07282e-11 7.31478e-12
-1.76914e-10 -5.48217e-11 -1.99907e-10
5.33526e-11 2.0137e-11 -6.10194e-12
-2.01025e-11 -3.63831e-11 6.21514e-11
3.91609e-14 -3.92937e-11 1.94976e-11
-1.88091e-11 9.42025e-12 -8.86388e-12
5.28643e-11 -9.04424e-11 7.48061e-11
1.31714e-10 1.08469e-10 -2.9907e-12
-2.73723e-11 -3.81449e-11 1.92988e-11
4.67491e-11 2.25041e-11 1.75206e-11
-4.004e-11 1.20585e-10 -4.02627e-11
-4.13267e-12 8.5687e-11 -5.96452e-13
-5.57847e-11 -1.32064e-13 5.31524e-12
-2.99409e-11 -1.30128e-11 -3.54318e-11
1.50136e-10 -3.98027e-11 2.46766e-11
-1.73755e-11 8.78598e-11 3.59361e-11
-1.38422e-11 8.13733e-11 -2.83175e-11
1.68713e-11 -1.95286e-11 4.54971e-12
2.34249e-11 -6.67833e-12 -9.27039e-12
-1.9728e-11 3.72742e-11 2.27277e-11
8.62272e-13 4.5325e-12 -2.23384e-12
-1.40244e-10 1.60768e-11 7.53569e-13
-2.86051e-11 4.48435e-10 2.28061e-10
5.59011e-11 -1.06882e-10 3.0925e-11
-3.45493e-11 -2.47732e-11 -1.77979e-11
2.70698e-12 3.31823e-12 -3.00158e-12
-3.95589e-11 1.42399e-10 -4.63121e-11
-1.7321e-12 3.94747e-12 -1.89152e-12
-1.46142e-11 3.50957e-11 -7.48815e-11
-9.70676e-11 3.01462e-10 7.01281e-10
2.25222e-11 -3.63012e-11 2.19462e-11
-5.39146e-13 6.63381e-12 3.06018e-12
2.8508e-11 7.07834e-11 -5.47865e-11
-1.01601e-10 2.30363e-11 -5.71121e-11
1.59763e-10 -1.27105e-11 1.17587e-11
-3.8549e-12 -2.28522e-11 1.46703e-11
3.1453e-11 4.97961e-11 -3.82717e-11
-4.68177e-11 4.51921e-11 -1.0596e-11
3.0701e-12 -1.03388e-11 1.72855e-11
2.304e-11 -3.48582e-11 2.01828e-11
-3.98263e-12 -1.88719e-12 2.97235e-12
1.1255e-10 1.30028e-10 1.53551e-11
4.71244e-12 -3.60155e-12 1.37406e-12
3.27789e-12 -4.21116e-11 -2.00852e-11
5.74069e-11 -2.54447e-11 -6.68057e-11
-9.28827e-11 8.18821e-11 6.99471e-11
-7.34439e-11 -2.01389e-12 -1.43544e-11
7.67248e-11 -1.04864e-10 8.16956e-11
-1.34764e-11 -4.70589e-11 2.31078e-11
-4.15609e-11 -1.76247e-11 4.67144e-12
5.73365e-12 4.70605e-11 2.28439e-11
1.38505e-11 -2.09768e-11 7.65026e-12
2.58275e-11 8.42913e-12 -3.84699e-12
3.40513e-11 1.19822e-11 -5.40814e-11
-2.69335e-12 -1.06061e-10 6.6341e-11
-8.65516e-11 5.59788e-11 3.3335e-11
1.43054e-10 -1.1241e-10 5.95818e-11
-5.55594e-11 7.58708e-11 -2.21405e-11
-1.73783e-11 -5.36739e-11 2.81412e-11
2.78856e-12 2.28788e-12 -1.19618e-12
1.02625e-11 -1.37672e-11 3.21909e-11
-8.15615e-11 -3.72891e-11 5.61508e-12
1.28055e-11 -4.68768e-12 1.52413e-11
3.87337e-12 -1.41493e-12 -6.88589e-12
4.17478e-11 3.18292e-11 -8.45714e-12
5.8961e-12 -8.22286e-12 -3.2252e-12
7.95611e-12 -7.15292e-12 2.0255e-12
1.2525e-10 9.20664e-11 -4.37727e-11
-3.43824e-11 9.36943e-11 -7.00817e-11
-1.43403e-12 2.49861e-11 -3.9646e-11
-2.25986e-10 1.43798e-10 -1.83408e-11
-5.40788e-12 3.57781e-11 -1.50842e-11
-1.75732e-11 -2.17599e-11 6.78358e-12
-2.82264e-11 -9.37504e-12 1.62724e-13
-1.14291e-11 1.54048e-11 -1.57223e-12
3.88277e-11 5.16299e-11 -3.61799e-11
-5.6388e-11 -9.87129e-11 4.79174e-11
-6.26705e-13 1.07522e-11 -5.01925e-12
2.78791e-12 7.76758e-11 -4.62781e-11
-1.82073e-11 -2.67666e-11 -6.62257e-11
7.54316e-11 6.33631e-11 -5.16756e-11
-4.55837e-11 -1.39558e-10 2.20921e-11
-1.70528e-10 -1.57485e-10 6.49957e-12
-7.65177e-11 -1.75572e-10 9.48004e-11
2.54075e-11 -3.32903e-11 1.38232e-11
-4.66532e-12 -1.59539e-11 -2.1993e-12
-1.77283e-12 -1.52308e-11 9.93568e-12
-1.61024e-11 -1.37213e-11 4.53015e-12
-1.19478e-12 9.27377e-12 -3.40028e-11
4.14049e-12 9.79652e-12 -4.48793e-12
1.7299e-11 3.44221e-12 -1.4779e-13
1.2065e-10 7.92796e-11 -3.51508e-11
5.96431e-12 -2.69653e-11 -8.36656e-12
-5.0289e-11 -7.67578e-11 4.57243e-11
-7.00473e-12 5.53427e-11 -1.13453e-11
4.98482e-12 9.40729e-12 -5.42041e-12
1.32283e-11 1.455e-11 -1.39e-11
-5.07977e-11 2.09409e-11 4.87194e-11
1.8336e-11 3.81858e-11 2.04806e-11
-3.18131e-11 3.16989e-11 3.21497e-11
4.23128e-12 5.50401e-12 -3.02362e-12
-9.99692e-11 7.71311e-11 -5.28206e-11
5.23874e-11 9.35679e-12 -1.18683e-11
-1.31223e-10 6.88384e-11 -8.53422e-11
9.58915e-12 4.42737e-11 2.51798e-11
5.22377e-11 5.80515e-11 -2.19409e-11
1.94014e-10 -1.01247e-10 2.41533e-11
2.39455e-11 -5.68605e-11 2.60812e-11
1.11527e-12 4.17657e-12 -9.40047e-13
-2.84203e-11 -2.90851e-11 -1.28764e-11
9.84553e-12 4.47879e-12 -3.29151e-12
-1.29204e-11 8.14307e-13 -2.243e-11
1.22362e-10 -1.12805e-10 4.28546e-11
1.39151e-11 5.75742e-12 -3.76358e-11
2.085e-11 -1.19296e-11 2.14979e-11
-3.79191e-12 2.82842e-12 -5.06794e-13
9.30448e-12 -6.44723e-12 -4.02832e-12
1.1702e-11 2.95592e-11 -1.5121e-11
-2.61435e-11 5.54511e-11 -2.53998e-11
1.29528e-12 2.2077e-12 -8.69481e-13
6.95739e-11 1.3044e-10 -4.11876e-11
-2.28353e-11 -3.79053e-11 2.28818e-11
2.59322e-11 -3.37253e-11 3.00288e-11
-2.77301e-11 -5.30196e-11 2.7527e-11
2.34877e-12 -6.90006e-12 1.89436e-12
5.40763e-12 -3.87279e-11 2.26682e-11
1.06406e-11 3.70089e-12 -1.02134e-12
4.8401e-12 1.2477e-11 -6.85679e-12
2.05934e-11 -6.69774e-12 7.19118e-12
-7.81225e-13 -1.15262e-11 5.74448e-12
2.38034e-11 -1.72794e-10 5.87071e-11
-1.85372e-11 -1.03492e-11 6.74966e-12
1.89345e-11 -5.12732e-12 -6.62719e-13
3.73301e-12 -6.47186e-11 -2.65896e-10
-4.2212e-12 -8.90877e-12 7.75485e-12
5.06602e-11 5.27366e-11 -4.05777e-11
1.26102e-11 2.17733e-11 -1.05405e-11
5.56791e-12 -4.46543e-12 -1.80454e-12
1.41847e-10 -1.48212e-10 7.14936e-11
-5.33474e-11 2.11302e-11 -5.28956e-12
1.6607e-10 -9.55321e-11 2.91465e-11
3.41638e-11 1.28117e-10 -5.34466e-11
2.53816e-11 1.39151e-10 6.89581e-10
-4.8515e-11 -3.69019e-11 2.25499e-11
3.22605e-12 6.40861e-12 -3.10294e-12
1.41528e-10 -2.44645e-10 9.60069e-11
-1.76609e-12 -2.45607e-11 -1.39687e-11
-3.71618e-11 9.92911e-12 4.01622e-13
-9.72667e-12 -8.96339e-12 -8.17843e-13
2.49803e-12 -1.91241e-13 4.07239e-12
1.71485e-11 1.07644e-12 -3.76812e-12
3.14573e-11 2.90196e-12 -3.99457e-12
2.80172e-10 -1.64727e-10 5.01623e-11
-2.01948e-11 1.02296e-11 6.04985e-13
4.4207e-11 2.4105e-11 1.94951e-11
-1.37218e-11 7.04537e-11 -3.57283e-11
-1.05126e-11 3.57499e-13 2.29853e-12
4.19767e-11 4.22919e-11 2.35081e-11
-1.11411e-23 -5.89366e-24 -3.72231e-24
-4.98733e-11 9.57066e-12 -2.93711e-12
-5.20404e-11 -2.49956e-11 1.99059e-11
-3.94183e-11 2.79177e-11 -2.27291e-11
-2.77149e-11 -2.01881e-11 1.23249e-11
1.97964e-10 -1.40652e-10 1.2407e-10
-7.2706e-13 -4.68071e-11 -5.58865e-12
1.17028e-11 -2.18292e-11 7.80526e-12
-3.74776e-12 -1.40417e-11 6.43673e-12
-3.91123e-11 -5.94018e-11 2.3425e-11
8.70856e-11 -2.86659e-11 5.05414e-12
-8.1875e-11 7.34954e-11 -5.30566e-11
6.74157e-13 5.70096e-12 1.30586e-12
4.4555e-13 2.89248e-12 -8.37744e-12
4.05005e-12 -2.10154e-11 3.66615e-13
6.21823e-11 -7.57842e-12 9.25527e-12
6.36568e-12 -9.73804e-11 -9.05982e-11
-4.93999e-11 -7.58599e-11 6.91367e-11
2.08821e-11 1.61706e-10 -3.66181e-11
8.13625e-13 -9.00598e-11 1.00325e-10
2.05148e-12 8.74681e-12 -2.82502e-12
2.17484e-11 5.09864e-11 -2.91886e-11
7.76814e-12 -3.80105e-12 7.16068e-12
1.70682e-10 -9.30483e-11 3.463e-11
3.99568e-11 7.91809e-11 -4.94374e-11
2.4696e-12 -7.92544e-12 -1.06962e-11
-1.04895e-10 -7.9233e-11 5.42562e-11
-4.58788e-22 -2.12896e-22 -3.51552e-23
1.99498e-12 6.2493e-12 -1.22159e-14
2.46307e-11 4.48589e-12 6.23654e-12
1.56765e-12 6.31492e-12 -3.56179e-13
5.13847e-12 5.85762e-12 -3.71975e-12
2.66471e-11 1.44972e-11 -1.3195e-11
1.02115e-12 1.85781e-12 3.45714e-13
-6.18957e-12 -3.35005e-11 1.43615e-11
-1.03833e-10 -1.28278e-11 1.88734e-11
1.73295e-11 -1.67785e-11 5.93976e-12
1.02503e-10 -7.47624e-11 5.5517e-11
8.23903e-13 7.17647e-12 -7.43509e-12
-1.15867e-10 -1.43561e-10 7.2274e-11
1.70794e-10 1.48731e-10 -4.2102e-11
5.71904e-12 -3.93994e-12 5.6029e-12
9.46775e-12 1.03552e-12 -1.48919e-11
-6.9575e-11 5.52375e-12 -8.42578e-11
-3.44619e-11 1.42561e-10 1.84548e-10
4.03771e-11 -1.17821e-11 -9.79521e-12
4.28402e-11 -7.35817e-11 8.37329e-11
