# vtk DataFile Version 3.0
LIGGGHTS particles timestep 80400000
ASCII
DATASET POLYDATA
POINTS 277 float
0.381709 0.017582 0.00730968
0.381846 0.0183082 0.00688766
0.38155 0.0175301 0.00726438
0.381531 0.0174456 0.0073143
0.381042 0.0155157 0.0084656
0.384475 0.0181511 5.23933e-05
0.381024 0.015486 0.00855932
0.383863 0.0194589 5.15912e-05
0.381825 0.0188564 0.00680756
0.381433 0.0167111 0.00773965
0.383688 0.0179876 5.13622e-05
0.381806 0.0187589 0.00681746
0.375655 0.0179094 0.00717573
0.3819 0.0187907 0.00681423
0.375457 0.0169901 0.00741963
0.383665 0.0192295 5.13314e-05
0.38166 0.0178682 0.00711829
0.381719 0.0174931 0.00726406
0.381061 0.0155981 0.0084121
0.381587 0.0176994 0.00716455
0.383698 0.0193876 5.13745e-05
0.382019 0.0179872 0.00698463
0.384086 0.0170583 5.18834e-05
0.375529 0.0166296 0.00755357
0.381773 0.0180019 0.0070818
0.384727 0.0168558 5.27234e-05
0.381876 0.0181895 0.00700746
0.381865 0.0190521 0.00679619
0.384123 0.0182489 5.19315e-05
0.381709 0.0180714 0.00704761
0.381881 0.0186932 0.00682413
0.383825 0.0179556 5.15414e-05
0.381889 0.0182219 0.00691384
0.381528 0.0167323 0.00771585
0.381937 0.0180425 0.00696989
0.381955 0.0190953 0.00679968
0.381731 0.0179493 0.00700764
0.381606 0.0173844 0.00733932
0.384273 0.0173755 5.21276e-05
0.383711 0.0197285 5.13925e-05
0.381207 0.0161866 0.00806274
0.381701 0.0174085 0.00731398
0.383864 0.0175678 5.15927e-05
0.381825 0.0177216 0.00712226
0.375558 0.0175615 0.00718385
0.375593 0.0173076 0.00724807
0.381957 0.0186224 0.00683131
0.384694 0.0174241 5.26798e-05
0.375393 0.0164647 0.00771094
0.383705 0.0178593 0.00531919
0.381944 0.0189913 0.00679388
0.381079 0.0156827 0.00836214
0.381571 0.0169002 0.00761603
0.381662 0.0176386 0.00718934
0.384287 0.0165871 5.2146e-05
0.381251 0.0163544 0.00796295
0.375694 0.018224 0.00700407
0.381766 0.0185638 0.00683726
0.37555 0.0167111 0.00749791
0.381661 0.0172392 0.00741408
0.383741 0.0189021 5.1431e-05
0.375467 0.0164244 0.00776415
0.383839 0.0177605 5.15594e-05
0.381389 0.0165433 0.00783947
0.381338 0.01669 0.00776337
0.382033 0.0185558 0.00683808
0.383768 0.017831 5.14665e-05
0.381639 0.0179215 0.00703634
0.375105 0.0158394 0.00837144
0.392848 0.0240513 6.33589e-05
0.382052 0.0186533 0.00682818
0.375655 0.018035 0.00705641
0.375783 0.0173706 0.00723867
0.375127 0.015906 0.00829998
0.383768 0.0202023 5.14667e-05
0.375371 0.0163981 0.00778233
0.381737 0.0178616 0.0070552
0.384029 0.0172432 5.18084e-05
0.381593 0.0169841 0.00756613
0.381756 0.0176626 0.00716409
0.381454 0.016795 0.00768975
0.381229 0.0162705 0.00801285
0.381832 0.0176016 0.007189
0.381585 0.0172998 0.00738947
0.381519 0.0170467 0.00754005
0.381768 0.0180764 0.00696527
0.381917 0.0184274 0.00685111
0.38191 0.0179511 0.00700034
0.375842 0.0176549 0.00716023
0.381727 0.0183717 0.0068768
0.375748 0.017624 0.00716926
0.381896 0.0178589 0.00703634
0.38209 0.0188573 0.00680747
0.37559 0.0168743 0.00738646
0.375613 0.0174028 0.00722507
0.381775 0.0177529 0.00720268
0.375063 0.0157061 0.00851435
0.382073 0.0187507 0.0068183
0.38165 0.0177298 0.00723606
0.381606 0.0177842 0.00711506
0.381186 0.0161027 0.00811264
0.381788 0.0181701 0.00693435
0.375414 0.0165352 0.00764304
0.381468 0.0171934 0.00746401
0.381511 0.0173613 0.00736421
0.381411 0.0166272 0.00778957
0.375714 0.0183186 0.0069779
0.384248 0.0170186 5.20952e-05
0.381911 0.0176724 0.00713931
0.381795 0.0174323 0.00728884
0.381381 0.0168578 0.00766358
0.375597 0.0177513 0.00713496
0.381672 0.0181029 0.00696035
0.382009 0.018916 0.00680151
0.381549 0.0168162 0.00766595
0.375148 0.0159727 0.00822853
0.381786 0.0186613 0.00682738
0.375212 0.0161733 0.008015
0.381142 0.0159349 0.00821243
0.375788 0.0179826 0.00715468
0.381634 0.0176427 0.00728503
0.381681 0.0173236 0.0073641
0.381738 0.017578 0.00721401
0.381476 0.0168789 0.00763985
0.375749 0.0177932 0.00720729
0.381596 0.0174733 0.00738487
0.381403 0.0169417 0.00761369
0.381615 0.0170681 0.00751611
0.381821 0.0184011 0.00686012
0.375692 0.0177823 0.00712589
0.381164 0.0160188 0.00816253
0.381977 0.01872 0.00682141
0.381563 0.0172147 0.00744014
0.381316 0.0166061 0.00781327
0.375084 0.0157728 0.0084429
0.381953 0.018148 0.00693526
0.381813 0.017517 0.00723892
0.381354 0.0163836 0.00793372
0.375514 0.0169333 0.00735917
0.381815 0.0182596 0.00696942
0.375404 0.0167478 0.00758002
0.37535 0.0163315 0.00785366
0.375675 0.0181295 0.00703024
0.381681 0.0177232 0.00713941
0.375845 0.0180975 0.00703817
0.381841 0.018498 0.00684395
0.375688 0.0173392 0.00724333
0.381498 0.0169628 0.00758995
0.375809 0.0183499 0.00696876
0.381424 0.0170256 0.00756379
0.375518 0.0173707 0.0072299
0.381637 0.0171524 0.00746596
0.375956 0.0177806 0.00712496
0.381863 0.0181074 0.00695172
0.375807 0.0180774 0.00712855
0.375844 0.0178242 0.00719815
0.381744 0.0182763 0.00690178
0.375578 0.0176634 0.00726063
0.381644 0.0175538 0.00723937
0.375668 0.017244 0.00726634
0.375417 0.0169072 0.00737434
0.375439 0.0169053 0.00747183
0.375753 0.0185076 0.00692556
0.375628 0.0170535 0.00731229
0.375434 0.0166082 0.00757774
0.381734 0.018164 0.00701864
0.375627 0.0178172 0.00720395
0.381861 0.0185956 0.00683404
0.375636 0.0179404 0.00708259
0.381819 0.0179937 0.00699005
0.375297 0.0164391 0.00772836
0.375494 0.0168494 0.00741001
0.383657 0.020044 5.13217e-05
0.381615 0.0175581 0.00733501
0.381577 0.0173886 0.00743489
0.381856 0.017946 0.00708378
0.375862 0.0177496 0.007134
0.381747 0.0184676 0.00685657
0.381121 0.0158508 0.00826233
0.375559 0.0174709 0.00730457
0.375806 0.017908 0.00709064
0.38182 0.017813 0.00708196
0.375538 0.017466 0.00720691
0.375768 0.0178878 0.00718108
0.375169 0.0160393 0.00815713
0.375823 0.0175602 0.00718645
0.37577 0.0181608 0.00702111
0.381845 0.018954 0.00679788
0.375564 0.017372 0.00731865
0.375254 0.0163069 0.00787231
0.375532 0.017022 0.00731697
0.375571 0.0167932 0.0074418
0.375789 0.0182553 0.00699494
0.381795 0.0183669 0.0069503
0.381273 0.0164383 0.00791306
0.383648 0.0188198 5.13098e-05
0.381359 0.0167739 0.00771348
0.375233 0.0162392 0.00794271
0.381294 0.0165222 0.00786316
0.382164 0.0187909 0.00681422
0.381691 0.0181976 0.0069347
0.375394 0.0168326 0.00752809
0.381999 0.0188171 0.00681155
0.375489 0.016491 0.00769267
0.37519 0.0161059 0.00808561
0.383653 0.018609 5.13166e-05
0.375397 0.0168254 0.00742842
0.375728 0.0175294 0.00719545
0.375454 0.0166865 0.00751892
0.375436 0.01699 0.00732176
0.375786 0.0178133 0.00711684
0.375276 0.0163724 0.00779982
0.375881 0.0178445 0.00710775
0.381541 0.0171307 0.00749012
0.381625 0.0174691 0.00728929
0.375828 0.0184445 0.00694257
0.375319 0.0165157 0.00766793
0.375711 0.0178769 0.00709971
0.375475 0.0167675 0.0074638
0.369517 0.0173771 0.00728058
0.375573 0.0172123 0.00727108
0.375358 0.0166634 0.007539
0.369498 0.0172972 0.0073377
0.369535 0.0174571 0.00722338
0.375826 0.0180029 0.00706435
0.369571 0.0176171 0.00710897
0.381911 0.0177719 0.00708329
0.381446 0.0171095 0.0075139
0.375901 0.017939 0.00708157
0.381099 0.015767 0.00831222
0.215741 0.019982 0.00563384
0.369553 0.0175371 0.00716618
0.375884 0.0182865 0.00698583
0.375708 0.0174345 0.00722035
0.375509 0.0165577 0.00762103
0.375767 0.0177186 0.00714307
0.375803 0.0174655 0.00721268
0.375553 0.0171172 0.00729412
0.375498 0.0172755 0.00725289
0.381942 0.0183337 0.00687583
0.375731 0.0179715 0.00707352
0.375824 0.0177295 0.00722446
0.369606 0.0177785 0.00699654
0.375655 0.0174463 0.00730455
0.375382 0.016669 0.00763716
0.381506 0.0166484 0.00776574
0.375732 0.0181407 0.00711148
0.375654 0.0177283 0.00724152
0.375674 0.018004 0.00714955
0.375633 0.0174981 0.00720208
0.375733 0.0184131 0.00695173
0.375556 0.0175686 0.00728358
0.375457 0.0170851 0.00729881
0.375617 0.0178459 0.00710876
0.375865 0.018192 0.007012
0.375454 0.0170878 0.00739872
0.381692 0.0178084 0.00719138
0.404182 0.0211142 0.0056569
0.369645 0.0179743 0.00698291
0.375578 0.0176567 0.00716085
0.369626 0.0178764 0.00698972
0.369591 0.0176967 0.00705204
0.375648 0.0171487 0.00728935
0.375339 0.0165863 0.00760017
0.375477 0.0171803 0.00727587
0.381938 0.0185248 0.00684122
0.375698 0.0176398 0.00725484
0.375653 0.0175933 0.00717889
0.375544 0.0172767 0.00734156
0.37575 0.0180662 0.0070473
0.381653 0.0180099 0.00699173
0.375378 0.0167444 0.00748371
0.375608 0.0169584 0.00733526
0.381727 0.01767 0.0072592
0.381489 0.0172773 0.00741411
0.375672 0.0176877 0.0071521
0.381568 0.0176147 0.00721447

VERTICES 277 554
1 0
1 1
1 2
1 3
1 4
1 5
1 6
1 7
1 8
1 9
1 10
1 11
1 12
1 13
1 14
1 15
1 16
1 17
1 18
1 19
1 20
1 21
1 22
1 23
1 24
1 25
1 26
1 27
1 28
1 29
1 30
1 31
1 32
1 33
1 34
1 35
1 36
1 37
1 38
1 39
1 40
1 41
1 42
1 43
1 44
1 45
1 46
1 47
1 48
1 49
1 50
1 51
1 52
1 53
1 54
1 55
1 56
1 57
1 58
1 59
1 60
1 61
1 62
1 63
1 64
1 65
1 66
1 67
1 68
1 69
1 70
1 71
1 72
1 73
1 74
1 75
1 76
1 77
1 78
1 79
1 80
1 81
1 82
1 83
1 84
1 85
1 86
1 87
1 88
1 89
1 90
1 91
1 92
1 93
1 94
1 95
1 96
1 97
1 98
1 99
1 100
1 101
1 102
1 103
1 104
1 105
1 106
1 107
1 108
1 109
1 110
1 111
1 112
1 113
1 114
1 115
1 116
1 117
1 118
1 119
1 120
1 121
1 122
1 123
1 124
1 125
1 126
1 127
1 128
1 129
1 130
1 131
1 132
1 133
1 134
1 135
1 136
1 137
1 138
1 139
1 140
1 141
1 142
1 143
1 144
1 145
1 146
1 147
1 148
1 149
1 150
1 151
1 152
1 153
1 154
1 155
1 156
1 157
1 158
1 159
1 160
1 161
1 162
1 163
1 164
1 165
1 166
1 167
1 168
1 169
1 170
1 171
1 172
1 173
1 174
1 175
1 176
1 177
1 178
1 179
1 180
1 181
1 182
1 183
1 184
1 185
1 186
1 187
1 188
1 189
1 190
1 191
1 192
1 193
1 194
1 195
1 196
1 197
1 198
1 199
1 200
1 201
1 202
1 203
1 204
1 205
1 206
1 207
1 208
1 209
1 210
1 211
1 212
1 213
1 214
1 215
1 216
1 217
1 218
1 219
1 220
1 221
1 222
1 223
1 224
1 225
1 226
1 227
1 228
1 229
1 230
1 231
1 232
1 233
1 234
1 235
1 236
1 237
1 238
1 239
1 240
1 241
1 242
1 243
1 244
1 245
1 246
1 247
1 248
1 249
1 250
1 251
1 252
1 253
1 254
1 255
1 256
1 257
1 258
1 259
1 260
1 261
1 262
1 263
1 264
1 265
1 266
1 267
1 268
1 269
1 270
1 271
1 272
1 273
1 274
1 275
1 276

POINT_DATA 277
SCALARS id int 1
LOOKUP_TABLE default
1
2
3
4
5
6
8
9
10
11
12
13
14
15
16
18
19
20
21
22
24
25
26
27
29
30
31
32
33
34
35
36
38
40
41
42
43
44
45
46
47
48
49
50
52
55
56
57
58
59
60
61
62
63
64
65
66
67
68
69
70
71
72
73
74
75
76
77
78
79
80
81
82
83
84
85
86
87
88
89
90
91
92
93
94
95
96
98
99
100
101
102
103
104
105
106
107
108
109
110
111
113
114
115
116
117
118
119
120
121
122
123
124
125
126
127
128
129
130
131
132
133
134
135
136
137
138
139
140
141
142
144
145
146
147
148
149
150
152
153
154
155
156
157
158
159
160
161
162
164
165
166
167
168
169
170
171
172
173
174
175
176
177
178
179
180
181
182
183
184
185
186
187
188
189
191
192
193
194
195
196
197
198
199
200
201
202
203
204
205
206
207
208
210
211
213
214
215
217
218
220
221
222
223
224
225
226
227
228
229
230
231
232
233
234
235
236
237
238
239
241
242
243
244
245
246
247
248
249
250
251
252
253
254
255
256
257
258
259
260
261
262
263
264
265
267
268
269
270
271
272
273
274
275
276
277
278
279
280
281
282
283
284
285
286
287
288
289
290
292
293
294
295
296
297
298
300

SCALARS type int 1
LOOKUP_TABLE default
1
1
1
1
1
1
1
1
1
1
1
1
1
1
1
1
1
1
1
1
1
1
1
1
1
1
1
1
1
1
1
1
1
1
1
1
1
1
1
1
1
1
1
1
1
1
1
1
1
1
1
1
1
1
1
1
1
1
1
1
1
1
1
1
1
1
1
1
1
1
1
1
1
1
1
1
1
1
1
1
1
1
1
1
1
1
1
1
1
1
1
1
1
1
1
1
1
1
1
1
1
1
1
1
1
1
1
1
1
1
1
1
1
1
1
1
1
1
1
1
1
1
1
1
1
1
1
1
1
1
1
1
1
1
1
1
1
1
1
1
1
1
1
1
1
1
1
1
1
1
1
1
1
1
1
1
1
1
1
1
1
1
1
1
1
1
1
1
1
1
1
1
1
1
1
1
1
1
1
1
1
1
1
1
1
1
1
1
1
1
1
1
1
1
1
1
1
1
1
1
1
1
1
1
1
1
1
1
1
1
1
1
1
1
1
1
1
1
1
1
1
1
1
1
1
1
1
1
1
1
1
1
1
1
1
1
1
1
1
1
1
1
1
1
1
1
1
1
1
1
1
1
1
1
1
1
1
1
1
1
1
1
1
1
1
1
1
1
1
1
1
1
1
1
1
1
1

SCALARS radius float 1
LOOKUP_TABLE default
5e-05
5e-05
5e-05
5e-05
5e-05
5e-05
5e-05
5e-05
5e-05
5e-05
5e-05
5e-05
5e-05
5e-05
5e-05
5e-05
5e-05
5e-05
5e-05
5e-05
5e-05
5e-05
5e-05
5e-05
5e-05
5e-05
5e-05
5e-05
5e-05
5e-05
5e-05
5e-05
5e-05
5e-05
5e-05
5e-05
5e-05
5e-05
5e-05
5e-05
5e-05
5e-05
5e-05
5e-05
5e-05
5e-05
5e-05
5e-05
5e-05
5e-05
5e-05
5e-05
5e-05
5e-05
5e-05
5e-05
5e-05
5e-05
5e-05
5e-05
5e-05
5e-05
5e-05
5e-05
5e-05
5e-05
5e-05
5e-05
5e-05
5e-05
5e-05
5e-05
5e-05
5e-05
5e-05
5e-05
5e-05
5e-05
5e-05
5e-05
5e-05
5e-05
5e-05
5e-05
5e-05
5e-05
5e-05
5e-05
5e-05
5e-05
5e-05
5e-05
5e-05
5e-05
5e-05
5e-05
5e-05
5e-05
5e-05
5e-05
5e-05
5e-05
5e-05
5e-05
5e-05
5e-05
5e-05
5e-05
5e-05
5e-05
5e-05
5e-05
5e-05
5e-05
5e-05
5e-05
5e-05
5e-05
5e-05
5e-05
5e-05
5e-05
5e-05
5e-05
5e-05
5e-05
5e-05
5e-05
5e-05
5e-05
5e-05
5e-05
5e-05
5e-05
5e-05
5e-05
5e-05
5e-05
5e-05
5e-05
5e-05
5e-05
5e-05
5e-05
5e-05
5e-05
5e-05
5e-05
5e-05
5e-05
5e-05
5e-05
5e-05
5e-05
5e-05
5e-05
5e-05
5e-05
5e-05
5e-05
5e-05
5e-05
5e-05
5e-05
5e-05
5e-05
5e-05
5e-05
5e-05
5e-05
5e-05
5e-05
5e-05
5e-05
5e-05
5e-05
5e-05
5e-05
5e-05
5e-05
5e-05
5e-05
5e-05
5e-05
5e-05
5e-05
5e-05
5e-05
5e-05
5e-05
5e-05
5e-05
5e-05
5e-05
5e-05
5e-05
5e-05
5e-05
5e-05
5e-05
5e-05
5e-05
5e-05
5e-05
5e-05
5e-05
5e-05
5e-05
5e-05
5e-05
5e-05
5e-05
5e-05
5e-05
5e-05
5e-05
5e-05
5e-05
5e-05
5e-05
5e-05
5e-05
5e-05
5e-05
5e-05
5e-05
5e-05
5e-05
5e-05
5e-05
5e-05
5e-05
5e-05
5e-05
5e-05
5e-05
5e-05
5e-05
5e-05
5e-05
5e-05
5e-05
5e-05
5e-05
5e-05
5e-05
5e-05
5e-05
5e-05
5e-05
5e-05
5e-05
5e-05
5e-05
5e-05
5e-05
5e-05
5e-05
5e-05
5e-05
5e-05
5e-05
5e-05
5e-05
5e-05
5e-05
5e-05
5e-05
5e-05
5e-05
5e-05
5e-05
5e-05
5e-05
5e-05
5e-05
5e-05

SCALARS mass float 1
LOOKUP_TABLE default
1.46608e-10
1.46608e-10
1.46608e-10
1.46608e-10
1.46608e-10
1.46608e-10
1.46608e-10
1.46608e-10
1.46608e-10
1.46608e-10
1.46608e-10
1.46608e-10
1.46608e-10
1.46608e-10
1.46608e-10
1.46608e-10
1.46608e-10
1.46608e-10
1.46608e-10
1.46608e-10
1.46608e-10
1.46608e-10
1.46608e-10
1.46608e-10
1.46608e-10
1.46608e-10
1.46608e-10
1.46608e-10
1.46608e-10
1.46608e-10
1.46608e-10
1.46608e-10
1.46608e-10
1.46608e-10
1.46608e-10
1.46608e-10
1.46608e-10
1.46608e-10
1.46608e-10
1.46608e-10
1.46608e-10
1.46608e-10
1.46608e-10
1.46608e-10
1.46608e-10
1.46608e-10
1.46608e-10
1.46608e-10
1.46608e-10
1.46608e-10
1.46608e-10
1.46608e-10
1.46608e-10
1.46608e-10
1.46608e-10
1.46608e-10
1.46608e-10
1.46608e-10
1.46608e-10
1.46608e-10
1.46608e-10
1.46608e-10
1.46608e-10
1.46608e-10
1.46608e-10
1.46608e-10
1.46608e-10
1.46608e-10
1.46608e-10
1.46608e-10
1.46608e-10
1.46608e-10
1.46608e-10
1.46608e-10
1.46608e-10
1.46608e-10
1.46608e-10
1.46608e-10
1.46608e-10
1.46608e-10
1.46608e-10
1.46608e-10
1.46608e-10
1.46608e-10
1.46608e-10
1.46608e-10
1.46608e-10
1.46608e-10
1.46608e-10
1.46608e-10
1.46608e-10
1.46608e-10
1.46608e-10
1.46608e-10
1.46608e-10
1.46608e-10
1.46608e-10
1.46608e-10
1.46608e-10
1.46608e-10
1.46608e-10
1.46608e-10
1.46608e-10
1.46608e-10
1.46608e-10
1.46608e-10
1.46608e-10
1.46608e-10
1.46608e-10
1.46608e-10
1.46608e-10
1.46608e-10
1.46608e-10
1.46608e-10
1.46608e-10
1.46608e-10
1.46608e-10
1.46608e-10
1.46608e-10
1.46608e-10
1.46608e-10
1.46608e-10
1.46608e-10
1.46608e-10
1.46608e-10
1.46608e-10
1.46608e-10
1.46608e-10
1.46608e-10
1.46608e-10
1.46608e-10
1.46608e-10
1.46608e-10
1.46608e-10
1.46608e-10
1.46608e-10
1.46608e-10
1.46608e-10
1.46608e-10
1.46608e-10
1.46608e-10
1.46608e-10
1.46608e-10
1.46608e-10
1.46608e-10
1.46608e-10
1.46608e-10
1.46608e-10
1.46608e-10
1.46608e-10
1.46608e-10
1.46608e-10
1.46608e-10
1.46608e-10
1.46608e-10
1.46608e-10
1.46608e-10
1.46608e-10
1.46608e-10
1.46608e-10
1.46608e-10
1.46608e-10
1.46608e-10
1.46608e-10
1.46608e-10
1.46608e-10
1.46608e-10
1.46608e-10
1.46608e-10
1.46608e-10
1.46608e-10
1.46608e-10
1.46608e-10
1.46608e-10
1.46608e-10
1.46608e-10
1.46608e-10
1.46608e-10
1.46608e-10
1.46608e-10
1.46608e-10
1.46608e-10
1.46608e-10
1.46608e-10
1.46608e-10
1.46608e-10
1.46608e-10
1.46608e-10
1.46608e-10
1.46608e-10
1.46608e-10
1.46608e-10
1.46608e-10
1.46608e-10
1.46608e-10
1.46608e-10
1.46608e-10
1.46608e-10
1.46608e-10
1.46608e-10
1.46608e-10
1.46608e-10
1.46608e-10
1.46608e-10
1.46608e-10
1.46608e-10
1.46608e-10
1.46608e-10
1.46608e-10
1.46608e-10
1.46608e-10
1.46608e-10
1.46608e-10
1.46608e-10
1.46608e-10
1.46608e-10
1.46608e-10
1.46608e-10
1.46608e-10
1.46608e-10
1.46608e-10
1.46608e-10
1.46608e-10
1.46608e-10
1.46608e-10
1.46608e-10
1.46608e-10
1.46608e-10
1.46608e-10
1.46608e-10
1.46608e-10
1.46608e-10
1.46608e-10
1.46608e-10
1.46608e-10
1.46608e-10
1.46608e-10
1.46608e-10
1.46608e-10
1.46608e-10
1.46608e-10
1.46608e-10
1.46608e-10
1.46608e-10
1.46608e-10
1.46608e-10
1.46608e-10
1.46608e-10
1.46608e-10
1.46608e-10
1.46608e-10
1.46608e-10
1.46608e-10
1.46608e-10
1.46608e-10
1.46608e-10
1.46608e-10
1.46608e-10
1.46608e-10
1.46608e-10
1.46608e-10
1.46608e-10
1.46608e-10
1.46608e-10
1.46608e-10
1.46608e-10
1.46608e-10
1.46608e-10
1.46608e-10
1.46608e-10
1.46608e-10
1.46608e-10
1.46608e-10
1.46608e-10
1.46608e-10
1.46608e-10
1.46608e-10

VECTORS velocity float
0.00442723 0.000219101 -0.000698536
0.00453823 0.000395446 -0.000293212
0.00445744 0.000274161 -0.000711454
0.00453829 0.000255288 -0.000709223
0.004569 0.000542875 -0.000153079
1.7976e-18 7.01207e-20 -1.37249e-15
0.00457711 0.00054294 -0.000150946
-3.50212e-19 -1.05689e-19 2.67382e-16
0.00459728 0.000468989 -4.79096e-05
0.00483501 0.000182274 -0.000705918
-8.52191e-23 -5.32327e-23 -4.13534e-22
0.00459875 0.000466647 -4.74459e-05
0.00429252 -0.000209131 1.80471e-05
0.00459646 0.000466643 -4.74988e-05
0.00458144 -0.000105265 0.000188206
2.81056e-18 -6.43859e-23 -2.14593e-15
0.00448006 0.000312513 -0.000411144
0.00447118 0.000278346 -0.000713608
0.00457354 0.000245686 -0.00061055
0.0044732 0.000287046 -0.00071447
-3.50171e-19 2.49231e-22 2.67382e-16
0.00448003 0.000395795 -0.000295518
2.24036e-18 2.18499e-20 -1.71051e-15
0.00435007 -0.000231302 -5.55712e-05
0.00449698 0.000434245 -0.000296247
2.24033e-18 5.85316e-22 -1.71052e-15
0.0044922 0.000388705 -0.000294026
0.00458715 0.000480765 2.06417e-06
1.79761e-18 8.69236e-23 -1.37249e-15
0.00448136 0.000417812 -0.000302778
0.00459548 0.000465142 -4.68511e-05
2.24036e-18 -8.66278e-21 -1.71051e-15
0.00451229 0.00038321 -0.000293272
0.00483099 0.000190268 -0.000709916
0.00448141 0.000394434 -0.000295688
0.00458344 0.000492219 2.40788e-06
0.0044902 0.000435877 -0.000305344
0.00464895 0.000358983 -0.000780436
2.24035e-18 4.68816e-21 -1.71051e-15
-3.50214e-19 -1.10999e-20 2.67381e-16
0.00487011 0.000149285 -0.000691781
0.00447094 0.000281429 -0.000715401
-9.20533e-19 -1.0062e-21 7.02843e-16
0.00445919 0.00021472 -0.0006616
0.00437978 -0.000107299 0.000171179
0.00436252 -0.000108876 0.000173988
0.00459977 0.000462435 -4.69102e-05
2.24037e-18 -7.68009e-22 -1.71052e-15
0.00486375 0.000137266 0.000382433
-2.09107e-15 5.04126e-14 2.1718e-13
0.00457692 0.000479613 -4.98843e-05
0.00461107 0.000195356 -0.00068452
0.00482417 0.00019591 -0.000712251
0.00446287 0.000264069 -0.00070537
2.24034e-18 1.84648e-21 -1.71052e-15
0.0048596 0.000158423 -0.000695514
0.00435765 -0.000178653 2.72334e-05
0.00460385 0.000468446 -4.84133e-05
0.00441359 -0.000226957 -5.2558e-05
0.005011 0.000515612 -0.000915324
-3.5017e-19 2.10594e-22 2.67382e-16
0.00490216 0.000190775 0.000350957
2.24035e-18 -1.63743e-21 -1.71052e-15
0.00483771 0.000164542 -0.000696303
0.00483796 0.000173133 -0.000701164
0.00462213 0.000459531 -4.67018e-05
2.24031e-18 -3.98819e-21 -1.71051e-15
0.0044365 0.000398623 -0.000351426
0.00466545 0.00010744 0.000412393
1.64364e-18 -3.89446e-21 -1.25496e-15
0.00458902 0.000474085 -4.80374e-05
0.00430862 -0.000170502 2.69377e-05
0.00440686 -7.77896e-05 0.000165011
0.00470766 0.000121133 0.000406746
-3.50183e-19 -3.43762e-20 2.67382e-16
0.0048281 0.000179013 0.000360353
0.00449197 0.00037254 -0.000409734
-9.20539e-19 -1.23033e-23 7.02844e-16
0.00482425 0.000203222 -0.000716373
0.00442703 0.000235375 -0.000683859
0.00482724 0.000184853 -0.000706378
0.00486508 0.000153945 -0.000693709
0.00443323 0.000235094 -0.000685989
0.00485088 0.000354029 -0.000803873
0.00481302 0.000192767 -0.000709071
0.00450989 0.000423345 -0.000303977
0.00458532 0.000448542 -4.43706e-05
0.00448187 0.000400792 -0.000295094
0.00430943 -9.33143e-05 3.85374e-06
0.00456728 0.000441726 -0.000236215
0.00433781 -0.000115443 8.03993e-06
0.00447221 0.000314713 -0.000519991
0.00455869 0.000472704 -4.81979e-05
0.00447651 -0.000245452 -4.39032e-05
0.00436269 -0.000108166 0.000180063
0.00446675 0.000205429 -0.000639319
0.00463169 9.9246e-05 0.000419654
0.00456271 0.000477633 -4.88362e-05
0.00444066 0.000170457 -0.0006262
0.00446608 0.000320784 -0.000678806
0.00487493 0.000144663 -0.000689744
0.00450781 0.000409281 -0.000300923
0.00435629 -0.000462959 -0.000321805
0.00479916 0.000190707 -0.000706038
0.0047106 0.000215417 -0.000709131
0.00483528 0.000170687 -0.000699458
0.00437235 -0.000177992 2.62072e-05
2.24035e-18 1.67771e-21 -1.71051e-15
0.00445274 0.000187693 -0.00065838
0.00441021 0.000225503 -0.000677052
0.00482549 0.000180052 -0.000703347
0.00427883 -0.000159665 2.22396e-05
0.0045032 0.000427791 -0.000304734
0.00456781 0.000477723 -4.83167e-05
0.00482074 0.000185751 -0.000706092
0.00472165 0.00012763 0.000400455
0.00460048 0.000466075 -4.70235e-05
0.00481735 0.000137634 0.000404505
0.00488736 0.000134784 -0.000685873
0.00435926 -0.000178512 1.09562e-05
0.00445745 0.000255865 -0.000701509
0.00476304 0.000467528 -0.000857615
0.00443259 0.000230339 -0.000685665
0.00482231 0.000185804 -0.000706275
0.00434075 -0.000200871 7.44547e-06
0.00450051 0.000323415 -0.000697225
0.00482046 0.000182633 -0.000704271
0.00486889 0.000253854 -0.00075051
0.00457125 0.000422478 -0.000233687
0.00429813 -0.000159796 2.25083e-05
0.00488187 0.000139468 -0.000687606
0.0045854 0.000472556 -4.78107e-05
0.00486106 0.000248822 -0.000746619
0.00484293 0.000169641 -0.000699783
0.00465273 0.000101045 0.000417677
0.00449246 0.000368992 -0.000287779
0.00443781 0.00022736 -0.000682673
0.00485321 0.00016197 -0.000696782
0.00450539 -0.000149418 0.000123947
0.00452137 0.000401657 -0.000297492
0.00437018 -0.000249834 -2.95756e-05
0.00477968 0.000193325 0.000326529
0.00435504 -0.000178551 2.88419e-05
0.00444478 0.000273848 -0.00071042
0.00438214 -0.000177274 2.5887e-05
0.00460938 0.000461117 -4.70263e-05
0.00440038 -0.000101346 0.000170387
0.00481945 0.000190147 -0.000708403
0.00439051 -0.000184449 2.76745e-05
0.00481501 0.00018499 -0.000704865
0.00436129 -0.000117531 0.000173189
0.0049854 0.000362937 -0.000826304
0.00434295 -0.00026663 5.17638e-05
0.00448651 0.000394068 -0.000296092
0.00440529 -0.000198469 2.99515e-05
0.00436383 -0.000211703 2.18054e-05
0.00453501 0.000419939 -0.000307522
0.00443321 -0.000173112 0.00018435
0.00446806 0.000276432 -0.000711304
0.00441264 -0.000105406 0.000171866
0.00452888 -0.0002089 7.46088e-05
0.00443173 -0.000336367 0.000102591
0.00439028 -0.000191567 2.96033e-05
0.0045673 -0.000129687 0.000182946
0.004372 -0.000230952 -5.69458e-05
0.0045079 0.000441221 -0.000301235
0.00431276 -0.000166941 2.24306e-05
0.00460233 0.000463365 -4.70063e-05
0.00430034 -0.000165192 2.33511e-05
0.00450563 0.000416448 -0.000302688
0.00476456 7.60302e-05 0.000436765
0.00445526 -0.000202735 1.58084e-05
-3.5017e-19 -3.60804e-21 2.67382e-16
0.00445348 0.000252315 -0.00070819
0.00470506 0.000340624 -0.000759526
0.00449271 0.000433475 -0.000285914
0.0043136 -0.00019506 2.92246e-05
0.00459315 0.000458954 -0.000115892
0.00483245 0.000145149 -0.000684734
0.00437329 -0.00012095 0.000180857
0.00433136 -0.000178208 2.37015e-05
0.00448144 0.000276817 -0.000540839
0.00437038 -0.0001283 0.000177491
0.00433956 -0.000176951 2.68295e-05
0.00470767 0.00013735 0.000385413
0.00438057 -7.59576e-05 -1.31495e-06
0.00435872 -0.000190695 2.96466e-05
0.00459877 0.000474245 -3.58334e-05
0.00436754 -0.000121279 0.000187308
0.00482968 0.000101922 0.00044163
0.00454275 -0.000134351 0.000182669
0.00441418 -0.000287333 -1.76403e-05
0.00437617 -0.000182427 2.7313e-05
0.00457763 0.000384541 -0.000238439
0.00485411 0.000162503 -0.000697113
2.81055e-18 -6.31202e-23 -2.14593e-15
0.0048317 0.000176816 -0.000702357
0.00482047 0.000125566 0.000412249
0.0048486 0.000166288 -0.000698592
0.00455576 0.000471376 -4.77104e-05
0.00451797 0.000430918 -0.000308373
0.00445815 -0.000279278 -3.11884e-05
0.00456263 0.000476412 -4.82452e-05
0.00426264 0.000136395 0.000325277
0.00476533 0.000139361 0.000389051
-3.50215e-19 7.05058e-23 2.67382e-16
0.00448233 -0.000276317 -3.10557e-05
0.00439105 -0.000159948 -0.000145452
0.00437755 -0.000226286 -5.44254e-05
0.00457024 -0.000131715 0.000189397
0.00433424 -0.000169848 2.09209e-05
0.00479828 8.92937e-05 0.000465368
0.0043881 -0.000203222 2.98338e-05
0.00482294 0.000211936 -0.000721123
0.00446269 0.000275813 -0.000710542
0.0044219 -0.000160708 2.08911e-05
0.00484109 -6.48913e-05 0.00026761
0.004321 -0.000165711 2.33132e-05
0.00440576 -0.000225105 -3.98827e-05
0.00433379 -0.000117143 2.58246e-05
0.00441413 -0.000113354 0.000174828
0.00442009 -0.000258219 -3.86841e-05
0.00448269 -0.000133963 3.69566e-05
0.00435402 -0.000123887 2.92017e-05
0.00441208 -0.000189617 2.83248e-05
0.00442369 -0.000137446 4.30914e-05
0.00445528 0.000225013 -0.000677833
0.00480744 0.000187352 -0.000705336
0.00443021 -0.000196684 3.19839e-05
0.00471169 0.000173277 -0.00068512
6.80449e-15 2.29872e-14 -7.03253e-14
0.00441701 -0.000126893 3.53747e-05
0.00440942 -0.000172434 2.43266e-05
0.00439012 -0.000101683 0.000170543
0.00437699 0.000132449 0.000350668
0.0042836 -0.00012265 9.63201e-06
0.00432919 -0.000166291 1.77623e-05
0.00455615 -0.000138174 0.000184368
0.0043567 -0.000109215 0.000169734
0.00455108 0.00037311 -0.000290068
0.00431891 -0.000180405 2.68256e-05
0.00428501 -0.000162237 2.30181e-05
0.00440884 -0.000140885 4.44505e-05
0.00438376 -0.000117 0.000173086
0.00428855 -0.000316672 -0.000152898
0.00483867 0.000187593 -0.000709374
0.00436279 -0.000193943 2.98016e-05
0.00434006 -0.000167216 1.04556e-05
0.004306 -0.000204232 2.50698e-05
0.00438912 -0.000113436 0.000171865
0.00438264 -0.000183385 2.77214e-05
0.0044655 -0.000114064 0.000173342
0.0045594 -0.000131997 0.000182598
0.00428967 -0.000161017 2.13668e-05
0.00439034 -0.000174044 2.38282e-05
0.00457156 -0.000124689 0.000181596
0.00448118 0.000232497 -0.000484837
-1.27985e-14 6.09168e-14 -1.90218e-13
0.00438964 -0.000139642 4.42453e-05
0.00438084 -0.00013675 0.000179881
0.0044025 -0.000140398 4.44703e-05
0.00440577 -0.00014111 4.37553e-05
0.00442768 -9.21185e-05 0.000168701
0.0043701 -0.00034403 -0.000169302
0.00455735 -0.000139147 0.000184749
0.00462183 0.000445988 -4.52494e-05
0.00447273 -0.000109132 8.67504e-05
0.00438698 -0.000126983 0.000127079
0.00435369 -0.00012692 0.000164017
0.00437952 -0.000195951 3.25197e-05
0.0044827 0.000417738 -0.000319443
0.00443554 -0.000268396 -3.5057e-05
0.00449734 -0.000115869 0.000172818
0.00445984 0.000180258 -0.000667869
0.00479859 0.000192482 -0.00070716
0.00429857 -0.000154301 1.9092e-05
0.00446433 0.000277771 -0.000712113

VECTORS force float
1.01647e-10 -7.95481e-11 2.4791e-11
-3.32525e-13 7.07003e-11 -6.09353e-11
3.09748e-11 1.64735e-11 3.42208e-12
1.48272e-11 -8.61368e-11 1.0766e-11
-2.49564e-11 -3.2977e-11 1.03134e-10
0.0 -1.83059e-26 0.0
-4.14199e-11 -3.27293e-11 8.82166e-11
0.0 6.703e-25 0.0
-7.46933e-12 -3.16762e-11 1.72246e-11
3.56707e-11 -3.7861e-11 1.64502e-11
0.0 0.0 2.01948e-28
1.16528e-12 1.48501e-11 -5.08338e-12
5.68917e-11 2.32505e-10 -5.92042e-12
4.71729e-12 1.69452e-11 -1.63931e-12
2.39881e-11 1.32383e-10 9.64467e-11
4.03897e-28 -3.55202e-27 0.0
-2.31201e-10 2.25829e-11 -8.76007e-11
-7.4911e-11 -2.08624e-11 8.74192e-12
-4.38087e-11 -3.21978e-11 9.32245e-11
6.37389e-11 1.17296e-10 -1.13537e-10
0.0 -6.58737e-28 0.0
-5.93933e-11 1.74884e-11 -6.16213e-12
0.0 -1.32169e-25 0.0
1.0579e-10 -6.22714e-11 4.24349e-11
3.65853e-11 4.77058e-11 -2.53469e-11
0.0 -9.53934e-27 0.0
-2.01819e-11 6.80033e-11 -3.18797e-11
-4.77622e-11 -1.05815e-10 -5.35526e-12
0.0 1.05153e-26 0.0
1.65879e-10 7.79715e-11 -7.65386e-11
9.63688e-12 3.24595e-11 -2.92132e-12
4.03897e-28 2.69736e-26 0.0
-1.79828e-11 7.11429e-11 -7.26292e-12
1.79114e-11 -2.12381e-11 9.82529e-12
-5.72491e-13 5.23797e-11 -1.19691e-11
-2.01488e-10 1.24522e-10 1.26206e-11
3.09669e-11 -7.89991e-12 3.86074e-12
1.7755e-10 -1.42149e-12 -3.86312e-11
0.0 -4.43609e-27 0.0
-4.03897e-28 -8.39108e-26 0.0
-1.87338e-12 -1.10782e-11 6.57161e-12
-1.14957e-11 -3.42685e-11 2.25196e-11
0.0 2.69368e-26 0.0
-5.98632e-11 -2.40626e-10 -6.66584e-11
-5.51025e-11 4.52263e-11 -9.34863e-12
1.49136e-11 -2.12847e-11 -7.58301e-12
-1.59628e-11 6.79614e-11 -9.08991e-12
0.0 5.77813e-27 0.0
-3.90257e-10 -1.40608e-10 -6.93773e-11
1.3684e-24 5.16988e-26 0.0
-5.55216e-11 -3.68736e-11 1.59889e-11
-7.93758e-11 -7.00642e-11 -1.97428e-11
1.16669e-10 -4.07439e-11 8.28406e-12
-2.46851e-11 -2.83928e-11 3.03554e-11
0.0 1.76589e-26 0.0
1.69748e-12 -2.03825e-13 -6.58074e-13
-3.9572e-11 1.09504e-11 1.04695e-11
1.80522e-11 4.38881e-11 -2.89253e-11
-7.16418e-12 1.52398e-10 -1.76225e-10
1.14063e-10 -1.08671e-10 5.24172e-11
0.0 -2.66486e-26 0.0
-9.30167e-11 2.91415e-10 -2.46215e-10
0.0 -7.96152e-26 0.0
7.17821e-11 6.34307e-11 -4.44974e-11
-2.41375e-12 -1.07452e-11 5.61429e-12
-4.68414e-11 7.4357e-11 -7.17174e-12
0.0 4.31047e-26 0.0
-1.04152e-10 -8.379e-11 -9.09465e-11
3.99061e-11 -9.71368e-11 7.85026e-11
4.03897e-28 -5.78806e-25 0.0
-1.45237e-11 9.60604e-11 -9.2348e-12
5.14395e-13 1.69008e-10 -2.32729e-11
-9.08532e-12 -3.69592e-10 6.69436e-11
-2.57922e-10 1.21626e-10 -1.22734e-10
0.0 -3.89205e-26 0.0
-2.06e-10 1.40708e-10 -1.89339e-10
4.66063e-12 5.81019e-11 1.20494e-10
0.0 9.01027e-30 0.0
1.07591e-10 4.94499e-12 -1.60917e-11
-6.95348e-11 -3.99992e-11 -4.01792e-11
-8.80325e-12 -5.15394e-11 2.99533e-11
-3.75728e-12 -4.83768e-12 3.05545e-12
-2.14128e-11 -3.80155e-12 -3.73141e-12
2.32197e-11 -1.81877e-10 1.07276e-10
2.10724e-11 -5.03681e-11 2.5297e-11
-4.77389e-11 -7.52118e-11 -3.9429e-12
1.69275e-11 2.44681e-11 -2.74028e-11
-7.47941e-12 1.90098e-11 -2.71502e-12
-7.72609e-11 -1.58218e-10 5.50313e-11
2.12144e-10 1.8131e-11 -4.36854e-12
-2.43719e-11 -8.81535e-11 -3.28039e-11
-1.83759e-11 -1.44925e-11 2.50343e-11
-8.84623e-11 8.04242e-11 -1.88934e-11
7.73766e-11 6.50287e-12 -1.45133e-11
1.2513e-10 -3.59093e-11 9.57456e-11
1.08917e-10 4.05551e-11 4.62512e-11
-1.02586e-10 -1.01001e-10 1.39795e-10
-5.0877e-11 1.0613e-10 -2.13641e-11
4.44353e-11 -7.13778e-13 2.00923e-11
1.49424e-10 -1.41108e-10 -4.87445e-10
-2.95667e-11 -8.10213e-12 1.22664e-11
-3.36607e-11 2.70937e-11 -2.37414e-11
1.66313e-10 -2.34016e-11 4.07622e-11
-4.17009e-11 -8.26215e-11 4.15123e-11
3.93514e-11 -1.18091e-10 2.48466e-11
6.49533e-11 5.28864e-11 -3.80464e-11
2.68314e-11 4.97096e-11 -9.88743e-12
-4.03897e-28 -3.19744e-26 0.0
8.60275e-11 -6.83884e-11 5.96585e-11
-1.89352e-11 7.87299e-11 -4.25527e-11
-1.02386e-11 -4.59812e-11 2.53393e-11
6.86762e-11 9.05302e-11 4.52729e-11
-4.32675e-11 -5.99749e-11 3.21431e-11
-7.73906e-11 2.23153e-11 1.16244e-11
6.28241e-11 1.00241e-11 -1.32699e-11
4.95974e-11 2.8618e-10 -1.78042e-10
-1.30098e-13 5.42787e-11 2.77948e-12
3.37163e-11 4.68476e-11 5.35834e-11
1.82496e-11 -2.21288e-11 1.12287e-11
6.40669e-11 -1.10393e-11 -3.01475e-11
1.02022e-10 1.9635e-11 5.65952e-11
1.40098e-10 -1.72247e-12 -2.02859e-11
-1.89649e-11 -4.24298e-11 2.11142e-11
-9.34531e-12 -5.52913e-11 3.15521e-11
1.7359e-10 -1.47038e-11 -5.97031e-11
-1.24193e-10 -1.6692e-10 4.70699e-11
-7.67355e-12 -5.95003e-11 3.39003e-11
6.02463e-11 -6.15994e-11 2.97565e-11
8.81772e-11 -1.22234e-10 -3.82088e-10
-5.84514e-11 3.211e-11 6.21436e-11
-8.55906e-12 -1.66593e-11 1.22866e-11
-9.7705e-12 5.68783e-11 2.24514e-12
2.04632e-11 -8.66011e-11 4.50075e-11
5.19885e-12 -3.86011e-13 -1.10229e-12
1.17659e-10 -1.40563e-10 1.24738e-10
1.76508e-11 3.2243e-11 -1.43868e-11
9.2132e-11 1.9339e-11 -2.05895e-11
-1.21696e-11 -7.30578e-12 5.68186e-12
3.82026e-11 5.36232e-12 1.21416e-10
-1.93203e-11 3.46892e-11 -2.34406e-11
5.47179e-11 -7.54412e-11 2.38936e-10
-5.12604e-12 1.73e-10 -1.70976e-10
1.13308e-11 9.64017e-11 -1.93993e-11
1.808e-10 7.01659e-11 -2.66442e-10
-1.41454e-10 8.17198e-11 -1.76404e-11
-3.02432e-11 2.59496e-11 -7.39951e-12
-5.75014e-12 -1.82142e-10 5.38342e-11
6.83278e-11 -6.12516e-11 2.54289e-11
-5.53281e-11 -1.00634e-10 2.70054e-11
-1.36106e-12 -7.40755e-11 4.06606e-11
-6.26711e-11 4.73498e-11 -3.56173e-12
6.4209e-11 -5.40097e-11 2.27821e-11
1.06246e-10 1.55494e-10 -5.75039e-11
-1.65628e-11 5.4438e-11 -2.2156e-11
2.91057e-11 -9.36308e-11 2.93397e-11
1.33255e-11 -2.28359e-10 -1.14352e-10
1.09171e-10 -1.87546e-11 -1.8805e-11
1.21517e-10 -7.00936e-11 2.47192e-11
3.80908e-11 4.40622e-11 -3.28532e-11
-4.83484e-11 -1.18841e-10 2.08805e-11
-8.34195e-11 -7.69535e-11 -7.08689e-11
2.87563e-10 2.44862e-10 -1.56101e-10
1.74588e-12 2.74551e-12 2.6018e-13
-1.0271e-10 1.13155e-10 -3.88669e-11
7.85383e-12 -7.05368e-11 9.63734e-12
-3.33937e-11 1.4746e-10 -3.52788e-11
-1.7956e-10 9.48295e-11 2.18662e-12
-9.18669e-12 8.57866e-11 -8.19801e-12
1.91717e-11 1.38006e-10 -3.07378e-11
-2.50409e-11 -5.50277e-11 -7.49135e-13
5.80901e-10 -1.22766e-10 2.91793e-10
-6.09522e-11 -7.26801e-11 8.06817e-11
0.0 -4.36335e-26 0.0
-6.79699e-12 -9.30669e-11 -6.46144e-11
1.62324e-11 -2.60846e-10 -9.87449e-11
2.5682e-11 1.31209e-10 4.32432e-11
2.28589e-12 5.54603e-11 -5.74465e-11
1.61388e-10 1.12331e-11 -1.23228e-11
6.45632e-13 -3.39768e-11 1.8609e-11
3.74356e-11 1.05884e-10 -1.34233e-11
-1.88761e-10 1.69285e-10 -1.20157e-10
4.81685e-12 -3.87297e-11 1.10108e-10
3.00249e-11 1.25389e-10 -3.81432e-11
6.68946e-11 -1.0679e-10 -3.12035e-11
-1.58054e-10 1.44547e-10 -1.7183e-10
-7.32271e-11 -2.31577e-10 5.11735e-11
-1.15961e-10 -1.3871e-11 1.42142e-12
-4.72153e-11 -8.63554e-11 -2.65521e-11
-4.46268e-12 3.39892e-11 -3.69484e-11
-1.53359e-10 -2.55678e-11 -1.83904e-11
8.01871e-12 5.65912e-12 4.65061e-11
9.36395e-11 -1.89618e-11 1.46613e-11
-8.19333e-11 -4.79991e-11 1.63897e-11
3.75249e-11 -2.40053e-11 1.18422e-10
-4.06933e-13 3.00727e-12 -1.2679e-12
0.0 -6.19703e-29 0.0
-3.54185e-13 -3.04693e-11 1.7044e-11
1.40047e-11 -2.72115e-11 -1.01458e-10
6.00574e-12 2.50238e-12 -1.48247e-12
-4.0832e-11 1.80082e-10 -1.58874e-11
-2.27803e-11 -1.77712e-12 -4.79128e-11
-8.40483e-11 -2.37328e-11 2.24697e-11
-7.09498e-11 5.20442e-11 -5.08218e-14
-9.44096e-11 -1.89909e-10 2.60866e-10
-4.02455e-10 -5.36627e-11 -5.42154e-11
0.0 -6.04451e-28 0.0
-1.42809e-11 -2.85162e-11 -1.8773e-11
-5.9112e-11 -3.27245e-11 -2.11773e-10
-5.06217e-11 -1.64372e-11 -4.34491e-11
2.50142e-11 4.9745e-11 5.69255e-11
-9.68174e-11 -7.55087e-11 -5.3654e-11
6.02994e-10 -1.85301e-10 1.45309e-10
1.20478e-11 7.98693e-11 -2.25095e-11
5.83213e-12 -6.8706e-11 4.44168e-11
-4.24131e-12 -8.87207e-11 6.16675e-11
-1.13462e-11 -4.37772e-11 1.22618e-11
7.57923e-12 9.71092e-10 1.05691e-09
-6.27562e-11 4.75937e-11 -1.04866e-11
-1.0253e-10 -5.94809e-11 -5.87114e-11
2.15775e-10 1.97301e-11 3.0666e-11
-1.68993e-12 -3.98385e-11 -6.10255e-12
2.04829e-11 3.23275e-12 -2.97206e-11
-7.17896e-11 -7.70591e-11 1.41577e-11
-6.26689e-11 -1.36417e-10 7.84797e-11
2.5801e-13 7.6176e-11 -3.48406e-11
2.39934e-10 7.79573e-11 -7.33294e-11
1.27835e-10 2.89589e-11 6.10089e-12
-3.56222e-11 -8.05194e-11 4.58442e-11
-5.14491e-11 8.57648e-11 -3.39229e-11
-3.36943e-11 -4.54766e-11 1.60208e-11
-4.0842e-24 -1.29247e-24 -1.44757e-24
-2.20122e-10 -3.72863e-11 1.13664e-11
3.45563e-11 -3.83831e-11 1.02768e-11
1.31505e-10 -1.62888e-10 5.57607e-11
-6.56149e-11 -2.02832e-10 2.24976e-10
1.47726e-11 6.56126e-11 -3.50288e-12
-2.17345e-10 -1.9406e-11 -1.4006e-11
-1.00988e-10 7.626e-12 9.16397e-12
-1.58308e-11 9.20818e-13 -6.19124e-12
-1.23065e-12 1.38909e-11 -7.76024e-12
-3.31887e-11 2.57326e-10 -5.11442e-11
8.63681e-11 6.29236e-11 1.24185e-11
-1.09321e-10 7.96269e-11 -5.3907e-11
3.51335e-11 -8.22768e-11 2.5592e-12
4.3436e-11 -2.64294e-10 -2.58907e-12
9.16364e-11 -2.15987e-11 6.58196e-13
5.54087e-11 -2.7708e-10 7.2246e-11
-2.31912e-10 -4.1773e-11 -1.78088e-10
9.55527e-12 1.90213e-10 -6.20622e-12
1.4664e-10 -5.33338e-11 -1.9486e-11
2.33269e-11 3.55887e-11 -9.98056e-12
7.49604e-11 1.51617e-10 -3.42731e-11
-1.87633e-11 -3.69571e-11 2.15399e-13
2.98298e-11 1.42217e-10 -1.11603e-11
-3.3564e-11 2.65329e-11 -2.82861e-12
-6.45242e-12 4.74548e-11 -1.81204e-11
9.04635e-11 9.94613e-11 -6.54074e-11
9.90032e-23 -1.20975e-23 -1.0133e-23
6.72775e-12 4.42407e-12 1.21534e-12
4.12051e-11 9.27243e-11 -3.85398e-11
-5.47854e-12 6.00083e-11 1.08722e-12
4.52923e-11 1.54015e-10 -8.2245e-11
2.81466e-11 4.71764e-11 -2.10351e-11
4.04447e-11 -1.64661e-10 5.08554e-11
-4.25005e-11 -3.02994e-11 -2.21982e-12
-3.74098e-11 4.81741e-11 -1.45712e-11
-4.23481e-12 9.80106e-12 -1.8014e-10
3.03525e-11 -2.39576e-11 -2.07018e-10
-1.20365e-13 -4.15819e-11 -2.69444e-11
1.85518e-11 7.85968e-11 -1.89492e-11
1.07858e-11 -6.37821e-11 1.80627e-11
-1.85853e-10 -9.62514e-11 1.3939e-10
-1.45225e-11 9.82766e-11 1.40347e-11
5.01584e-11 -1.2839e-10 -1.22818e-11
-3.9272e-12 -8.33555e-11 4.80562e-11
-4.60843e-11 -2.93646e-11 -4.88294e-11
2.33789e-11 7.40965e-11 -1.97491e-11
