# vtk DataFile Version 3.0
LIGGGHTS particles timestep 66400000
ASCII
DATASET POLYDATA
POINTS 283 float
0.317066 0.0163135 0.00806862
0.317472 0.0175853 0.00730353
0.317465 0.017899 0.00708268
0.317444 0.0177982 0.00707697
0.316861 0.0158346 0.00892163
0.323136 0.0165671 0.00774601
0.317091 0.0160901 0.00842439
0.316839 0.0157874 0.009007
0.32339 0.0175653 0.00713023
0.317749 0.0179992 0.00704764
0.317237 0.016535 0.00765633
0.323348 0.0173989 0.00723289
0.317746 0.017566 0.00719511
0.310831 0.0154845 0.00877611
0.317769 0.0176551 0.0071559
0.311047 0.0161968 0.00796686
0.32351 0.0181149 0.00698593
0.31738 0.0175468 0.00727757
0.317455 0.0171117 0.00743173
0.316883 0.0158818 0.00883627
0.317505 0.0180949 0.00709377
0.323305 0.0172325 0.00733549
0.317582 0.0174041 0.00732603
0.323242 0.016983 0.00748943
0.311084 0.0160297 0.00816881
0.317333 0.0173366 0.00726612
0.323115 0.0164839 0.00779734
0.317581 0.0180322 0.00707633
0.317697 0.0173888 0.00727292
0.323157 0.0166503 0.0076947
0.317443 0.0177604 0.00718363
0.317785 0.0177458 0.00711533
0.323449 0.0178214 0.00698599
0.317108 0.0161394 0.00833905
0.317638 0.0175324 0.00720151
0.317299 0.0163992 0.00784494
0.317381 0.0172558 0.007411
0.317622 0.0171492 0.00737736
0.317561 0.0179341 0.00707078
0.317434 0.0174032 0.00729635
0.323178 0.0167334 0.00764338
0.323263 0.0170661 0.00743817
0.317044 0.0159966 0.00859471
0.317403 0.0170274 0.00741509
0.323221 0.0168997 0.00754081
0.317544 0.0175002 0.0072084
0.311598 0.0185452 0.00687666
0.311632 0.0178585 0.00709692
0.31773 0.0179008 0.00705221
0.323199 0.0168166 0.00759206
0.311258 0.0166384 0.00753222
0.323326 0.0173157 0.00728417
0.317573 0.0177582 0.00719571
0.316905 0.015929 0.00875091
0.31733 0.016504 0.00767744
0.317497 0.017665 0.0071696
0.323284 0.0171494 0.0073868
0.317145 0.0162348 0.00816715
0.311806 0.0182652 0.00697122
0.317803 0.0178369 0.00707474
0.311314 0.0165115 0.00763298
0.31741 0.0168525 0.00750601
0.323585 0.0180482 0.00698293
0.311184 0.0166813 0.00747073
0.323369 0.0174821 0.00718155
0.317284 0.0163503 0.0079309
0.317166 0.0166432 0.00758099
0.317327 0.0173268 0.00736546
0.32349 0.0180171 0.00698595
0.317545 0.0182905 0.00710484
0.310893 0.0156787 0.00855585
0.311103 0.0160945 0.00809505
0.317434 0.0173389 0.00737298
0.311844 0.0184561 0.00691118
0.311373 0.0167389 0.0074483
0.310912 0.0157435 0.00848224
0.323431 0.0177332 0.0070299
0.311238 0.0165601 0.00759097
0.317543 0.0178364 0.00708242
0.323411 0.0176484 0.00707891
0.317352 0.0165808 0.00761727
0.317521 0.0174112 0.00724757
0.317259 0.0166111 0.00759533
0.317163 0.0162829 0.00808141
0.317499 0.0170039 0.00743409
0.317407 0.0172746 0.00730114
0.317315 0.0168873 0.00749835
0.317617 0.0177742 0.00710731
0.317522 0.0171496 0.0073687
0.317367 0.0171625 0.00744411
0.311417 0.0169252 0.00738985
0.317602 0.0176608 0.00722791
0.311727 0.0178898 0.00708924
0.317563 0.0175902 0.00716843
0.317591 0.0172346 0.00733527
0.31135 0.0166501 0.00748949
0.311652 0.0179524 0.00706741
0.317192 0.0163817 0.00790998
0.310852 0.0155492 0.0087027
0.317668 0.0176201 0.0071635
0.317422 0.0177043 0.00710367
0.317525 0.0181927 0.00709931
0.316995 0.0161172 0.00840976
0.311122 0.0161593 0.00802135
0.317675 0.0180646 0.00706455
0.31128 0.0167206 0.00747955
0.317355 0.0174259 0.00722666
0.317402 0.0176331 0.00717103
0.317221 0.0164814 0.00773918
0.311825 0.0183601 0.00694138
0.323095 0.0164004 0.00784884
0.317492 0.0172417 0.00734442
0.317505 0.016823 0.00751825
0.317207 0.0168187 0.00749496
0.311635 0.0187355 0.00682984
0.31772 0.0179576 0.00713399
0.31771 0.0178027 0.00708259
0.317314 0.0164496 0.0077598
0.310951 0.0158731 0.00833488
0.317769 0.018097 0.00705274
0.311065 0.0159648 0.00824255
0.316972 0.0160704 0.00849493
0.311674 0.0184839 0.0068981
0.317269 0.0170979 0.00745299
0.317391 0.016937 0.00745587
0.317494 0.0173229 0.00728609
0.317282 0.0167005 0.00755665
0.311541 0.0182642 0.00696507
0.317111 0.0164569 0.00780904
0.317231 0.0169174 0.00745133
0.317378 0.0166691 0.00757867
0.317695 0.0181624 0.00707007
0.311747 0.0179836 0.00705975
0.317067 0.0160434 0.00850952
0.31755 0.0173195 0.00736856
0.317385 0.0171848 0.0073407
0.317146 0.0165762 0.0076527
0.310872 0.015614 0.00862929
0.31749 0.0178475 0.00716783
0.317486 0.0169134 0.00747486
0.317176 0.0163323 0.00799546
0.311482 0.0172051 0.007302
0.317822 0.0179332 0.00703183
0.311008 0.0160672 0.00811421
0.311141 0.0162241 0.00794771
0.311734 0.0185032 0.00697599
0.31752 0.0177437 0.00711222
0.311767 0.0180772 0.00703033
0.317569 0.0170708 0.0074091
0.31157 0.017578 0.00718499
0.317301 0.01679 0.00751617
0.311786 0.0181708 0.0070009
0.317253 0.0170067 0.00741187
0.311561 0.0183577 0.00693566
0.317393 0.0167593 0.00753821
0.311218 0.0164887 0.00765808
0.317619 0.0174428 0.00724131
0.311538 0.0181435 0.00708928
0.311437 0.0176764 0.00723605
0.317602 0.0178587 0.00715962
0.311502 0.0180771 0.00702388
0.317472 0.0175702 0.00720469
0.311548 0.0174848 0.00721424
0.311377 0.0175173 0.00719967
0.311028 0.016132 0.00804054
0.311655 0.0183896 0.00692779
0.311505 0.0172986 0.00727269
0.3113 0.0168027 0.00742608
0.317621 0.0182277 0.0070874
0.311775 0.0185246 0.00688759
0.317543 0.0180397 0.00716831
0.31173 0.0183274 0.00694949
0.317594 0.0176792 0.0071299
0.311203 0.0167721 0.00743341
0.311365 0.0170821 0.00733841
0.323469 0.0179192 0.00698596
0.317079 0.0163595 0.00798076
0.317048 0.0162633 0.00815326
0.311086 0.0163264 0.00781971
0.317292 0.0171822 0.00737909
0.31143 0.0173615 0.00725075
0.317701 0.0177907 0.00718151
0.316949 0.0160263 0.00858181
0.311463 0.01789 0.0070827
0.311439 0.0170185 0.00736056
0.317206 0.0164298 0.00782356
0.311579 0.0184514 0.00690617
0.311558 0.018237 0.00705987
0.31097 0.0159429 0.00826601
0.311408 0.0172684 0.00727996
0.311651 0.0181228 0.00709865
0.317716 0.0174784 0.00723312
0.311442 0.0177967 0.007112
0.311165 0.016603 0.00753033
0.311526 0.0173917 0.00724346
0.311332 0.0165764 0.00755894
0.311696 0.0185827 0.0068671
0.310989 0.0160024 0.00818789
0.317523 0.0179418 0.00716313
0.317094 0.0164084 0.00789483
0.323551 0.0183107 0.00698589
0.317186 0.0167294 0.00753441
0.311199 0.0164185 0.0077267
0.317127 0.0165138 0.0077284
0.317128 0.0161862 0.008253
0.317013 0.0161667 0.00832468
0.317842 0.0180314 0.00703539
0.311066 0.0162616 0.00789323
0.317691 0.0177091 0.00712429
0.311163 0.0162893 0.007875
0.310932 0.0158089 0.00840922
0.323531 0.0182128 0.00698591
0.311355 0.0174241 0.0072289
0.311612 0.0177645 0.00712646
0.311321 0.0168959 0.00739692
0.311517 0.0177341 0.00713383
0.311537 0.0179984 0.00713576
0.311124 0.0164565 0.0076716
0.311461 0.0171118 0.00733129
0.317337 0.0170926 0.00737929
0.317445 0.0174677 0.00721501
0.311612 0.0179357 0.00715754
0.311225 0.0168653 0.00740425
0.311632 0.0180293 0.00712809
0.311343 0.016989 0.00736765
0.305277 0.0170681 0.00729137
0.311442 0.0177881 0.00721162
0.311268 0.0170516 0.0073458
0.305256 0.0169816 0.00733655
0.305299 0.0171547 0.00724618
0.311551 0.0177274 0.00722771
0.305342 0.0173278 0.00715582
0.317629 0.0173199 0.00729901
0.317311 0.0172473 0.00730557
0.311144 0.0165246 0.00759426
0.316928 0.0159783 0.00866682
0.215741 0.019982 0.00563384
0.30532 0.0172413 0.007201
0.311636 0.0182956 0.00695736
0.311591 0.0176712 0.00715576
0.311182 0.0163538 0.00780118
0.311558 0.017921 0.00707509
0.311452 0.0174546 0.00722152
0.311495 0.0176409 0.00716306
0.311616 0.0182019 0.0069868
0.317636 0.0178685 0.00706605
0.311592 0.017842 0.00718701
0.31142 0.0177035 0.00714122
0.305383 0.0175117 0.00709371
0.311333 0.017331 0.00725812
0.311105 0.0163912 0.00774585
0.317032 0.0162134 0.00823833
0.311749 0.0184221 0.0069197
0.311522 0.0181706 0.00699447
0.311919 0.0183933 0.00693306
0.311672 0.018046 0.00703797
0.311517 0.0179048 0.0071652
0.311482 0.0179835 0.00705329
0.311538 0.0178274 0.00710453
0.311671 0.0182165 0.00706917
0.311597 0.0181084 0.00701621
0.311312 0.0172379 0.00728735
0.317355 0.0174601 0.00732064
0.404182 0.0211142 0.0056569
0.305423 0.0177039 0.00705587
0.311616 0.018639 0.00684715
0.305403 0.0176078 0.00707479
0.305363 0.0174156 0.00711263
0.311387 0.0171753 0.00730918
0.311247 0.0169585 0.00737502
0.311577 0.0180147 0.00704564
0.317655 0.0179665 0.00705899
0.311474 0.0175478 0.0071923
0.311691 0.0181396 0.00700855
0.311399 0.0176104 0.00717045
0.311672 0.0183625 0.00702258
0.317601 0.0181299 0.00708186
0.31129 0.0171447 0.00731657
0.311395 0.016832 0.00741907
0.317223 0.016901 0.0075496
0.317381 0.0175356 0.0071782
0.311711 0.0182333 0.0069791
0.317485 0.0179967 0.00708848

VERTICES 283 566
1 0
1 1
1 2
1 3
1 4
1 5
1 6
1 7
1 8
1 9
1 10
1 11
1 12
1 13
1 14
1 15
1 16
1 17
1 18
1 19
1 20
1 21
1 22
1 23
1 24
1 25
1 26
1 27
1 28
1 29
1 30
1 31
1 32
1 33
1 34
1 35
1 36
1 37
1 38
1 39
1 40
1 41
1 42
1 43
1 44
1 45
1 46
1 47
1 48
1 49
1 50
1 51
1 52
1 53
1 54
1 55
1 56
1 57
1 58
1 59
1 60
1 61
1 62
1 63
1 64
1 65
1 66
1 67
1 68
1 69
1 70
1 71
1 72
1 73
1 74
1 75
1 76
1 77
1 78
1 79
1 80
1 81
1 82
1 83
1 84
1 85
1 86
1 87
1 88
1 89
1 90
1 91
1 92
1 93
1 94
1 95
1 96
1 97
1 98
1 99
1 100
1 101
1 102
1 103
1 104
1 105
1 106
1 107
1 108
1 109
1 110
1 111
1 112
1 113
1 114
1 115
1 116
1 117
1 118
1 119
1 120
1 121
1 122
1 123
1 124
1 125
1 126
1 127
1 128
1 129
1 130
1 131
1 132
1 133
1 134
1 135
1 136
1 137
1 138
1 139
1 140
1 141
1 142
1 143
1 144
1 145
1 146
1 147
1 148
1 149
1 150
1 151
1 152
1 153
1 154
1 155
1 156
1 157
1 158
1 159
1 160
1 161
1 162
1 163
1 164
1 165
1 166
1 167
1 168
1 169
1 170
1 171
1 172
1 173
1 174
1 175
1 176
1 177
1 178
1 179
1 180
1 181
1 182
1 183
1 184
1 185
1 186
1 187
1 188
1 189
1 190
1 191
1 192
1 193
1 194
1 195
1 196
1 197
1 198
1 199
1 200
1 201
1 202
1 203
1 204
1 205
1 206
1 207
1 208
1 209
1 210
1 211
1 212
1 213
1 214
1 215
1 216
1 217
1 218
1 219
1 220
1 221
1 222
1 223
1 224
1 225
1 226
1 227
1 228
1 229
1 230
1 231
1 232
1 233
1 234
1 235
1 236
1 237
1 238
1 239
1 240
1 241
1 242
1 243
1 244
1 245
1 246
1 247
1 248
1 249
1 250
1 251
1 252
1 253
1 254
1 255
1 256
1 257
1 258
1 259
1 260
1 261
1 262
1 263
1 264
1 265
1 266
1 267
1 268
1 269
1 270
1 271
1 272
1 273
1 274
1 275
1 276
1 277
1 278
1 279
1 280
1 281
1 282

POINT_DATA 283
SCALARS id int 1
LOOKUP_TABLE default
1
2
3
4
5
6
7
8
9
10
11
12
13
14
15
16
18
19
20
21
22
24
25
26
27
29
30
31
32
33
34
35
36
37
38
40
41
42
43
44
45
46
47
48
49
50
52
55
56
57
58
59
60
61
62
63
64
65
66
67
68
69
70
71
72
73
74
75
76
77
78
79
80
81
82
83
84
85
86
87
88
89
90
91
92
93
94
95
96
98
99
100
101
102
103
104
105
106
107
108
109
110
111
112
113
114
115
116
117
118
119
120
121
122
123
124
125
126
127
128
129
130
131
132
133
134
135
136
137
138
139
140
141
142
144
145
146
147
148
149
150
152
153
154
155
156
157
158
159
160
161
162
164
165
166
167
168
169
170
171
172
173
174
175
176
177
178
179
180
181
182
183
184
185
186
187
188
189
190
191
192
193
194
195
196
197
198
199
200
201
202
203
204
205
206
207
208
209
210
211
213
214
215
217
218
219
220
221
222
223
224
225
226
227
228
229
230
231
232
233
234
235
236
237
238
239
241
242
243
244
245
246
247
248
249
250
251
252
253
254
255
256
257
258
259
260
261
262
263
264
265
267
268
269
270
271
272
273
274
275
276
277
278
279
280
281
282
283
284
285
286
287
288
289
290
292
293
294
295
296
297
298
300

SCALARS type int 1
LOOKUP_TABLE default
1
1
1
1
1
1
1
1
1
1
1
1
1
1
1
1
1
1
1
1
1
1
1
1
1
1
1
1
1
1
1
1
1
1
1
1
1
1
1
1
1
1
1
1
1
1
1
1
1
1
1
1
1
1
1
1
1
1
1
1
1
1
1
1
1
1
1
1
1
1
1
1
1
1
1
1
1
1
1
1
1
1
1
1
1
1
1
1
1
1
1
1
1
1
1
1
1
1
1
1
1
1
1
1
1
1
1
1
1
1
1
1
1
1
1
1
1
1
1
1
1
1
1
1
1
1
1
1
1
1
1
1
1
1
1
1
1
1
1
1
1
1
1
1
1
1
1
1
1
1
1
1
1
1
1
1
1
1
1
1
1
1
1
1
1
1
1
1
1
1
1
1
1
1
1
1
1
1
1
1
1
1
1
1
1
1
1
1
1
1
1
1
1
1
1
1
1
1
1
1
1
1
1
1
1
1
1
1
1
1
1
1
1
1
1
1
1
1
1
1
1
1
1
1
1
1
1
1
1
1
1
1
1
1
1
1
1
1
1
1
1
1
1
1
1
1
1
1
1
1
1
1
1
1
1
1
1
1
1
1
1
1
1
1
1
1
1
1
1
1
1
1
1
1
1
1
1
1
1
1
1
1
1

SCALARS radius float 1
LOOKUP_TABLE default
5e-05
5e-05
5e-05
5e-05
5e-05
5e-05
5e-05
5e-05
5e-05
5e-05
5e-05
5e-05
5e-05
5e-05
5e-05
5e-05
5e-05
5e-05
5e-05
5e-05
5e-05
5e-05
5e-05
5e-05
5e-05
5e-05
5e-05
5e-05
5e-05
5e-05
5e-05
5e-05
5e-05
5e-05
5e-05
5e-05
5e-05
5e-05
5e-05
5e-05
5e-05
5e-05
5e-05
5e-05
5e-05
5e-05
5e-05
5e-05
5e-05
5e-05
5e-05
5e-05
5e-05
5e-05
5e-05
5e-05
5e-05
5e-05
5e-05
5e-05
5e-05
5e-05
5e-05
5e-05
5e-05
5e-05
5e-05
5e-05
5e-05
5e-05
5e-05
5e-05
5e-05
5e-05
5e-05
5e-05
5e-05
5e-05
5e-05
5e-05
5e-05
5e-05
5e-05
5e-05
5e-05
5e-05
5e-05
5e-05
5e-05
5e-05
5e-05
5e-05
5e-05
5e-05
5e-05
5e-05
5e-05
5e-05
5e-05
5e-05
5e-05
5e-05
5e-05
5e-05
5e-05
5e-05
5e-05
5e-05
5e-05
5e-05
5e-05
5e-05
5e-05
5e-05
5e-05
5e-05
5e-05
5e-05
5e-05
5e-05
5e-05
5e-05
5e-05
5e-05
5e-05
5e-05
5e-05
5e-05
5e-05
5e-05
5e-05
5e-05
5e-05
5e-05
5e-05
5e-05
5e-05
5e-05
5e-05
5e-05
5e-05
5e-05
5e-05
5e-05
5e-05
5e-05
5e-05
5e-05
5e-05
5e-05
5e-05
5e-05
5e-05
5e-05
5e-05
5e-05
5e-05
5e-05
5e-05
5e-05
5e-05
5e-05
5e-05
5e-05
5e-05
5e-05
5e-05
5e-05
5e-05
5e-05
5e-05
5e-05
5e-05
5e-05
5e-05
5e-05
5e-05
5e-05
5e-05
5e-05
5e-05
5e-05
5e-05
5e-05
5e-05
5e-05
5e-05
5e-05
5e-05
5e-05
5e-05
5e-05
5e-05
5e-05
5e-05
5e-05
5e-05
5e-05
5e-05
5e-05
5e-05
5e-05
5e-05
5e-05
5e-05
5e-05
5e-05
5e-05
5e-05
5e-05
5e-05
5e-05
5e-05
5e-05
5e-05
5e-05
5e-05
5e-05
5e-05
5e-05
5e-05
5e-05
5e-05
5e-05
5e-05
5e-05
5e-05
5e-05
5e-05
5e-05
5e-05
5e-05
5e-05
5e-05
5e-05
5e-05
5e-05
5e-05
5e-05
5e-05
5e-05
5e-05
5e-05
5e-05
5e-05
5e-05
5e-05
5e-05
5e-05
5e-05
5e-05
5e-05
5e-05
5e-05
5e-05
5e-05
5e-05
5e-05
5e-05
5e-05
5e-05
5e-05
5e-05
5e-05
5e-05
5e-05
5e-05
5e-05
5e-05
5e-05
5e-05
5e-05
5e-05
5e-05
5e-05
5e-05
5e-05
5e-05
5e-05
5e-05
5e-05
5e-05
5e-05

SCALARS mass float 1
LOOKUP_TABLE default
1.46608e-10
1.46608e-10
1.46608e-10
1.46608e-10
1.46608e-10
1.46608e-10
1.46608e-10
1.46608e-10
1.46608e-10
1.46608e-10
1.46608e-10
1.46608e-10
1.46608e-10
1.46608e-10
1.46608e-10
1.46608e-10
1.46608e-10
1.46608e-10
1.46608e-10
1.46608e-10
1.46608e-10
1.46608e-10
1.46608e-10
1.46608e-10
1.46608e-10
1.46608e-10
1.46608e-10
1.46608e-10
1.46608e-10
1.46608e-10
1.46608e-10
1.46608e-10
1.46608e-10
1.46608e-10
1.46608e-10
1.46608e-10
1.46608e-10
1.46608e-10
1.46608e-10
1.46608e-10
1.46608e-10
1.46608e-10
1.46608e-10
1.46608e-10
1.46608e-10
1.46608e-10
1.46608e-10
1.46608e-10
1.46608e-10
1.46608e-10
1.46608e-10
1.46608e-10
1.46608e-10
1.46608e-10
1.46608e-10
1.46608e-10
1.46608e-10
1.46608e-10
1.46608e-10
1.46608e-10
1.46608e-10
1.46608e-10
1.46608e-10
1.46608e-10
1.46608e-10
1.46608e-10
1.46608e-10
1.46608e-10
1.46608e-10
1.46608e-10
1.46608e-10
1.46608e-10
1.46608e-10
1.46608e-10
1.46608e-10
1.46608e-10
1.46608e-10
1.46608e-10
1.46608e-10
1.46608e-10
1.46608e-10
1.46608e-10
1.46608e-10
1.46608e-10
1.46608e-10
1.46608e-10
1.46608e-10
1.46608e-10
1.46608e-10
1.46608e-10
1.46608e-10
1.46608e-10
1.46608e-10
1.46608e-10
1.46608e-10
1.46608e-10
1.46608e-10
1.46608e-10
1.46608e-10
1.46608e-10
1.46608e-10
1.46608e-10
1.46608e-10
1.46608e-10
1.46608e-10
1.46608e-10
1.46608e-10
1.46608e-10
1.46608e-10
1.46608e-10
1.46608e-10
1.46608e-10
1.46608e-10
1.46608e-10
1.46608e-10
1.46608e-10
1.46608e-10
1.46608e-10
1.46608e-10
1.46608e-10
1.46608e-10
1.46608e-10
1.46608e-10
1.46608e-10
1.46608e-10
1.46608e-10
1.46608e-10
1.46608e-10
1.46608e-10
1.46608e-10
1.46608e-10
1.46608e-10
1.46608e-10
1.46608e-10
1.46608e-10
1.46608e-10
1.46608e-10
1.46608e-10
1.46608e-10
1.46608e-10
1.46608e-10
1.46608e-10
1.46608e-10
1.46608e-10
1.46608e-10
1.46608e-10
1.46608e-10
1.46608e-10
1.46608e-10
1.46608e-10
1.46608e-10
1.46608e-10
1.46608e-10
1.46608e-10
1.46608e-10
1.46608e-10
1.46608e-10
1.46608e-10
1.46608e-10
1.46608e-10
1.46608e-10
1.46608e-10
1.46608e-10
1.46608e-10
1.46608e-10
1.46608e-10
1.46608e-10
1.46608e-10
1.46608e-10
1.46608e-10
1.46608e-10
1.46608e-10
1.46608e-10
1.46608e-10
1.46608e-10
1.46608e-10
1.46608e-10
1.46608e-10
1.46608e-10
1.46608e-10
1.46608e-10
1.46608e-10
1.46608e-10
1.46608e-10
1.46608e-10
1.46608e-10
1.46608e-10
1.46608e-10
1.46608e-10
1.46608e-10
1.46608e-10
1.46608e-10
1.46608e-10
1.46608e-10
1.46608e-10
1.46608e-10
1.46608e-10
1.46608e-10
1.46608e-10
1.46608e-10
1.46608e-10
1.46608e-10
1.46608e-10
1.46608e-10
1.46608e-10
1.46608e-10
1.46608e-10
1.46608e-10
1.46608e-10
1.46608e-10
1.46608e-10
1.46608e-10
1.46608e-10
1.46608e-10
1.46608e-10
1.46608e-10
1.46608e-10
1.46608e-10
1.46608e-10
1.46608e-10
1.46608e-10
1.46608e-10
1.46608e-10
1.46608e-10
1.46608e-10
1.46608e-10
1.46608e-10
1.46608e-10
1.46608e-10
1.46608e-10
1.46608e-10
1.46608e-10
1.46608e-10
1.46608e-10
1.46608e-10
1.46608e-10
1.46608e-10
1.46608e-10
1.46608e-10
1.46608e-10
1.46608e-10
1.46608e-10
1.46608e-10
1.46608e-10
1.46608e-10
1.46608e-10
1.46608e-10
1.46608e-10
1.46608e-10
1.46608e-10
1.46608e-10
1.46608e-10
1.46608e-10
1.46608e-10
1.46608e-10
1.46608e-10
1.46608e-10
1.46608e-10
1.46608e-10
1.46608e-10
1.46608e-10
1.46608e-10
1.46608e-10
1.46608e-10
1.46608e-10
1.46608e-10
1.46608e-10
1.46608e-10
1.46608e-10
1.46608e-10
1.46608e-10
1.46608e-10
1.46608e-10
1.46608e-10
1.46608e-10
1.46608e-10
1.46608e-10
1.46608e-10
1.46608e-10
1.46608e-10
1.46608e-10
1.46608e-10
1.46608e-10

VECTORS velocity float
0.00393952 -0.000240245 -0.000719143
0.00495969 0.000436554 0.000183103
0.00491121 -1.83397e-05 -0.000756317
0.00497792 9.02765e-05 -0.000778258
0.00475646 -0.000466937 -0.000733077
0.00460006 -8.65786e-05 0.000133951
0.00452851 -0.000459917 -0.000675745
0.00471683 -0.000452922 -0.000743943
0.0048812 -0.000150488 0.000181481
0.00493366 0.00049205 -0.000639572
0.00454414 0.000272445 -4.15591e-05
0.00482182 -0.00013906 0.000169383
0.00477365 0.000503145 0.000172334
0.00450505 0.000356224 0.00019993
0.00488377 0.000475292 0.000195913
0.00439748 0.000342126 0.000201296
0.00444915 -0.000261116 -0.000153134
0.00490278 0.000425075 0.000224907
0.00488497 0.000448201 0.000202184
0.00483698 -0.000492986 -0.000714643
0.0049142 0.0004139 -0.000724906
0.00477404 -0.000134443 0.000165635
0.00494061 0.000459379 0.000205437
0.00471492 -0.000124667 0.000158459
0.00434167 0.000329762 0.000209209
0.00494775 0.00039849 0.000240387
0.00431048 -3.74047e-05 9.79118e-05
0.00491133 0.000424684 -0.000728613
0.0049375 0.000437498 0.000218038
0.00464159 -9.47491e-05 0.000139446
0.00511079 0.000507359 0.000144426
0.00494948 0.0005739 0.000149348
0.00443689 -0.00026354 -0.000157367
0.0044173 -0.000441165 -0.000670698
0.00490013 0.000536054 0.00016693
0.0042601 -0.000472246 -0.000566201
0.00490824 0.000394715 0.000251389
0.00490047 0.00047404 0.000196851
0.00485151 2.89348e-05 -0.000758517
0.00474554 0.000439716 -0.00016093
0.00463862 -0.000103008 0.000142548
0.00475182 -0.000132838 0.000164831
0.00462964 -0.000475665 -0.000677702
0.00491955 0.000414742 0.000226598
0.00471408 -0.000115048 0.000153744
0.00495987 0.000451861 0.000194233
0.00447879 0.000220631 3.90924e-05
0.00446578 0.000197479 4.45104e-05
0.00485624 0.000325341 -0.000734587
0.00466994 -0.000103236 0.000145367
0.00473821 0.000162765 0.000126299
0.00481203 -0.00013954 0.000169005
0.00445649 0.00059412 -0.000448192
0.00483584 -0.000501334 -0.00070326
0.00453472 0.000193601 -8.30179e-05
0.00487826 0.000461478 -8.71267e-05
0.00476429 -0.000134754 0.000165741
0.00417723 -0.000393268 -0.000672086
0.00447287 0.000109 7.38237e-05
0.0048974 0.000689423 9.84578e-05
0.00447343 0.000206763 0.000370915
0.00492737 0.000385178 0.000232021
0.00444694 -0.000264072 -0.000152951
0.00449833 7.73718e-05 -0.000187738
0.00484291 -0.000141198 0.000173808
0.00413858 -0.000448801 -0.000564778
0.00460615 0.000358785 -3.40039e-05
0.00491815 0.000406772 0.000252874
0.00444689 -0.000262036 -0.000153033
0.00484701 0.000438487 -0.00071727
0.00446159 0.000353291 0.000197356
0.00434923 0.000328582 0.000210665
0.00500527 0.000648621 2.22436e-05
0.00460255 0.000233602 3.88184e-05
0.00492664 8.89248e-05 9.34826e-05
0.00437045 0.000356594 0.000182788
0.00466107 -0.000272724 -9.98379e-05
0.00460282 0.000218641 0.000149839
0.00492213 3.93555e-05 -0.000722936
0.00489882 -0.000162139 0.000182028
0.00457254 0.000411531 0.000201805
0.00496012 0.000466819 0.000206012
0.00459557 0.000441763 0.000191337
0.00411969 -0.000387401 -0.000656744
0.00493002 0.000446762 0.000212984
0.00494172 0.00044915 0.000218147
0.00492727 0.000399914 0.000220234
0.00493031 0.00030433 -0.000268306
0.00489077 0.00045303 0.00019853
0.00490438 0.000384666 0.000235178
0.00492208 0.0001014 8.81459e-05
0.00491044 0.000508926 0.000183922
0.00448969 0.000128225 6.9096e-05
0.00492461 0.000495854 0.000190075
0.00489663 0.000460256 0.00020576
0.00467534 -9.47471e-05 -6.42837e-05
0.00449097 0.0001281 6.8414e-05
0.00416474 -0.000446194 -0.000615049
0.00450918 0.000353846 0.000202679
0.00482886 0.000533947 0.000164734
0.00497565 0.000389808 0.000243845
0.0048862 0.000426908 -0.000723761
0.00444444 -0.000410993 -0.000722226
0.00437921 0.000327981 0.000214348
0.00489666 0.00046325 -0.000750536
0.00486367 0.000116678 0.000108099
0.00494469 0.000394167 0.000243313
0.00491816 0.000384553 0.000227267
0.00437698 -0.000195873 -0.000384381
0.00457289 0.000293424 1.84232e-05
0.00431913 -3.85695e-05 9.88288e-05
0.00489164 0.000455886 0.000173747
0.00493249 0.000398185 0.000235305
0.00489343 0.000415176 0.000222559
0.00456032 0.000206741 -0.000128884
0.00487054 0.000363949 -0.000727689
0.00495715 0.000545792 0.000151621
0.0044347 -0.000302395 -0.000431168
0.00429255 0.000353047 0.000176696
0.00488029 0.000513387 -0.00071831
0.00435077 0.000331787 0.000209048
0.00449366 -0.000425742 -0.000716856
0.00448677 0.000218374 4.20703e-05
0.00481274 0.000266656 0.000134949
0.004945 0.000402617 0.000235456
0.00492255 0.000477332 0.000196
0.00474689 0.000430442 0.000238198
0.00459799 0.000157788 6.14236e-05
0.00425234 -0.000407658 -0.0007785
0.00489078 0.000370679 0.000245594
0.00473196 0.000383785 0.00022498
0.00486894 0.000466246 -0.000725675
0.0044982 9.56096e-05 7.98491e-05
0.00455113 -0.000457373 -0.000683017
0.00511434 0.000310788 5.44472e-05
0.00489244 0.000412531 0.000230298
0.00445086 8.57042e-05 -0.000341614
0.00451753 0.000353282 0.000205316
0.0051256 0.00043983 -0.000257127
0.00497189 0.000442572 0.00021511
0.00411579 -0.000416539 -0.000640962
0.00490605 0.000104663 8.68738e-05
0.00506777 0.000437448 0.000236497
0.00435228 0.000336963 0.000199961
0.0044143 0.000331221 0.000217376
0.00453976 0.000280864 2.25487e-05
0.00470505 0.000175072 -0.000524973
0.0045229 9.05252e-05 8.2287e-05
0.00491613 0.000464223 0.000203681
0.00490027 0.000112355 8.43091e-05
0.00489977 0.000397663 0.000229357
0.00455038 0.000100606 8.05578e-05
0.00490279 0.000388502 0.000237252
0.00462021 0.000151475 6.31238e-05
0.00489818 0.000377938 0.000238186
0.00450501 0.000292125 0.000190448
0.00496053 0.000459718 0.000209351
0.00454905 0.00016951 6.33501e-05
0.00488921 0.000102133 8.75462e-05
0.00509065 0.000189164 -0.000822802
0.00453261 0.000174272 5.58976e-05
0.0049426 0.0004112 0.000199215
0.00489217 9.6784e-05 8.90042e-05
0.00488917 9.62466e-05 8.92009e-05
0.00437221 0.000337596 0.000202205
0.00458229 0.000215353 4.27293e-05
0.00488604 9.61981e-05 8.91073e-05
0.00492516 9.16009e-05 9.28873e-05
0.00485458 0.000447717 -0.000718141
0.00457875 0.000235185 3.42604e-05
0.0049818 0.00048979 -0.000697341
0.0045668 0.000198319 5.2762e-05
0.00476504 0.000454075 0.000190439
0.00446129 0.000184141 5.53157e-05
0.00491005 9.34324e-05 9.06833e-05
0.00444406 -0.000265073 -0.000153801
0.004032 -0.000315106 -0.000754863
0.0041432 -0.000336647 -0.00072832
0.0044467 0.000344711 0.000205496
0.00488653 0.000413491 0.000230476
0.0048909 9.84911e-05 8.84191e-05
0.00498449 0.000529631 0.000159671
0.00462786 -0.000460716 -0.00070742
0.00447687 0.000183744 5.1553e-05
0.00491494 9.85445e-05 8.91915e-05
0.00424924 -0.000452692 -0.000577603
0.00445312 0.000203312 4.32135e-05
0.00457827 0.000161852 6.11081e-05
0.00433741 0.000345716 0.000194236
0.00489827 9.65748e-05 8.92223e-05
0.00453485 0.000121169 7.47955e-05
0.00487783 0.00052479 0.000170654
0.00487893 0.000103027 8.71142e-05
0.0046119 0.000523994 -0.000527619
0.00488919 9.6297e-05 8.93192e-05
0.00466497 0.00019765 0.000408106
0.00456312 0.000235535 3.46023e-05
0.00434594 0.00034136 0.000197637
0.00502374 0.000468365 -0.000679281
0.00412106 -0.000339422 -0.000761839
0.00445978 -0.000262857 -0.0001538
0.0048699 0.000411203 0.000211177
0.00445258 0.000335249 0.000214334
0.00439057 -0.000267871 -0.000647078
0.0042746 -0.000409766 -0.000677456
0.00442528 -0.000403153 -0.000724724
0.00494758 0.000433533 -0.000733749
0.00443007 0.000344667 0.000203257
0.00491725 0.000485558 0.000180824
0.00445178 0.000336271 0.000220292
0.00429132 0.000362655 0.000174617
0.00445311 -0.000261152 -0.000153292
0.00489327 9.39718e-05 8.99943e-05
0.00448774 0.000193842 4.81154e-05
0.00492109 9.09624e-05 9.19395e-05
0.00488315 0.000106699 8.56242e-05
0.00449417 0.000141832 5.36933e-05
0.00447902 0.000373918 0.000176745
0.00492325 0.000111166 8.52544e-05
0.00491095 0.000409481 0.000208177
0.00497242 0.000397439 0.000239599
0.0044736 0.000129519 5.94388e-05
0.00492013 8.91668e-05 9.22449e-05
0.00450582 0.000114495 7.03722e-05
0.0049147 9.24219e-05 9.14167e-05
0.00485114 -0.000446534 0.000128337
0.00486988 7.23786e-05 8.46017e-05
0.00491031 9.0159e-05 9.15758e-05
0.00484009 -0.00044263 0.000126587
0.00486272 -0.000449393 0.000129701
0.00488725 0.000108814 8.48537e-05
0.00487832 -0.000460643 0.000134806
0.00491169 0.000448545 0.000211291
0.00494113 0.000412667 0.000230732
0.00451662 0.000422009 0.000129452
0.00475333 -0.000490211 -0.000702276
6.8056e-15 2.29895e-14 -7.03245e-14
0.00487315 -0.000453678 0.000131373
0.00459832 0.000139262 6.77895e-05
0.00489025 0.000114426 8.3149e-05
0.00445641 0.000338544 0.000218043
0.0044702 0.000198996 4.63677e-05
0.0048916 9.92828e-05 8.82787e-05
0.00488995 0.000103962 8.64819e-05
0.00456785 0.000129881 6.87875e-05
0.00487622 0.000121656 -0.000895268
0.00448203 0.000195244 4.79024e-05
0.00488273 0.000100266 8.71531e-05
0.00437715 -0.000351548 0.00013617
0.00489639 9.21545e-05 9.07036e-05
0.00445136 0.000343463 0.000206818
0.00433977 -0.000388539 -0.000724686
0.00455436 0.000274801 2.98341e-05
0.00456547 0.000165258 5.93181e-05
0.00461801 0.000237637 3.77725e-05
0.00451849 0.000116116 7.45694e-05
0.00448319 0.000188741 4.88998e-05
0.00449242 0.000182236 5.15517e-05
0.00448101 0.000187828 5.00537e-05
0.0045629 0.000115501 7.0597e-05
0.00454114 0.000139962 6.76032e-05
0.00490105 9.09975e-05 9.11797e-05
0.00486208 0.000452738 0.000229092
-1.28256e-14 6.09075e-14 -1.90219e-13
0.00441185 -0.00036215 0.000138939
0.0045456 0.000230501 4.02026e-05
0.00439593 -0.000356032 0.000137382
0.00436435 -0.000347365 0.000133865
0.0049062 9.47268e-05 9.00668e-05
0.00491461 8.9876e-05 9.17336e-05
0.00451129 0.000150972 6.2337e-05
0.00479367 0.000260778 -0.000715561
0.00489329 0.000100593 8.79287e-05
0.00454411 0.000108655 7.62714e-05
0.00488614 9.84785e-05 8.83781e-05
0.00456406 0.000233804 4.34343e-05
0.00488511 0.000436869 -0.000724439
0.00490623 9.04691e-05 9.14576e-05
0.00492443 9.3301e-05 9.10162e-05
0.00490157 0.000389543 0.000250982
0.00494653 0.000375219 0.000243274
0.00457434 0.000122388 7.39964e-05
0.00484781 -5.56586e-05 -0.000546814

VECTORS force float
2.1191e-10 -5.56705e-11 -7.25515e-11
-3.03314e-10 2.84501e-10 1.81297e-10
3.61297e-11 4.5832e-10 -2.68461e-10
-2.35772e-10 -1.54603e-10 1.1944e-10
3.9333e-11 -1.10316e-10 1.52362e-10
-1.55126e-10 1.0625e-12 -1.00621e-11
1.52035e-10 -2.64029e-10 3.92204e-10
-5.92532e-11 1.39212e-11 -6.132e-13
6.17768e-11 6.8447e-11 -4.55441e-11
-4.77688e-10 1.00713e-10 -2.54162e-10
1.22809e-10 1.7175e-10 2.85858e-11
7.12493e-12 2.08757e-11 1.75701e-11
1.73092e-10 -1.62739e-10 8.2804e-11
3.41655e-11 3.11786e-11 -3.82857e-11
-7.52681e-11 -1.67223e-10 7.7857e-11
1.98313e-11 -3.53775e-11 4.66077e-11
-6.35927e-12 -5.98014e-11 4.19201e-12
2.40002e-11 -1.24488e-11 9.62592e-11
1.58307e-11 9.10137e-11 -2.55013e-11
-4.64593e-11 -1.87587e-10 3.54302e-10
-3.25043e-11 -7.99739e-11 -9.23786e-11
-2.43678e-10 -6.08112e-11 3.25693e-11
-6.0761e-12 8.20256e-11 -1.42281e-10
1.02184e-10 6.0155e-12 -1.24793e-11
1.10847e-10 3.37859e-11 -1.70386e-11
1.54508e-10 1.59436e-10 -9.86142e-11
1.08928e-11 2.56469e-11 -1.22205e-11
8.48182e-12 -4.83385e-11 1.03471e-11
-1.02231e-10 1.50544e-10 -7.32421e-11
1.81458e-10 5.43381e-11 -1.74621e-11
-5.10791e-11 5.00962e-12 -7.1536e-11
1.85422e-10 -7.61164e-12 1.25852e-10
2.3987e-12 -8.31946e-12 -2.14813e-11
-4.17648e-10 -1.44551e-10 3.97487e-10
-1.63887e-10 -1.03938e-10 1.83942e-11
-2.36479e-10 -6.19883e-11 -9.96911e-11
7.31445e-11 -9.98191e-11 -1.6459e-11
-2.03297e-10 3.95956e-11 -6.42307e-11
-2.31979e-10 7.61126e-12 4.16066e-10
3.0401e-11 7.45621e-11 4.01381e-10
9.96124e-11 -8.68455e-11 6.01501e-11
3.26356e-10 -9.24017e-11 7.21315e-11
1.82354e-11 -1.02598e-10 1.57331e-10
6.06364e-11 6.34167e-11 -3.73177e-11
2.14112e-10 -2.35393e-11 2.24233e-12
-2.79732e-10 9.03987e-12 1.74993e-11
-3.33947e-10 4.50299e-11 -6.20247e-11
-3.51958e-11 5.22e-11 -2.35585e-11
-4.86155e-10 3.65156e-11 -5.02809e-10
-1.93643e-10 -1.17215e-10 1.55079e-11
-1.05008e-11 7.196e-12 -4.63425e-11
-5.80759e-11 -6.87472e-11 4.48808e-11
2.90017e-10 6.86963e-11 7.9577e-12
2.8559e-11 -2.58648e-10 3.64075e-10
1.23744e-11 1.33116e-10 8.80324e-11
-1.30154e-10 -1.41644e-10 4.80948e-11
8.07887e-11 -6.2469e-11 5.65413e-11
1.38858e-10 -2.52203e-10 3.70446e-10
2.10795e-10 8.5433e-12 1.71805e-11
-3.22009e-10 2.59347e-10 -1.54179e-10
-4.80741e-11 -1.05089e-12 -2.02401e-11
2.27214e-10 9.51303e-11 1.27084e-10
3.65804e-11 4.13883e-11 8.33179e-13
-7.31753e-12 -2.95662e-11 2.02884e-11
8.39974e-11 8.34988e-11 -9.1995e-12
-3.57866e-10 1.76344e-10 -1.83098e-10
1.97938e-10 3.97875e-10 2.87583e-10
-2.53001e-11 1.24383e-10 -2.25192e-11
-1.85269e-11 -6.76642e-11 -1.10249e-11
6.07572e-12 1.50112e-11 -2.6713e-11
-1.36563e-11 3.13754e-11 -1.24801e-11
-8.82253e-11 5.8275e-12 -1.74152e-11
-3.31865e-11 -1.04371e-10 2.13891e-10
-4.43658e-10 2.49448e-11 -8.62553e-11
2.14877e-11 3.18507e-11 -5.73576e-12
-1.1251e-10 -6.56087e-11 2.61764e-11
1.15325e-11 6.49799e-11 1.75516e-11
1.26909e-13 3.14514e-11 5.18282e-12
-9.10269e-11 3.16427e-10 8.25391e-10
-9.07557e-11 2.44237e-11 -2.64045e-11
1.96491e-10 4.87257e-11 2.54353e-11
-1.82223e-10 2.09869e-11 -4.0304e-11
1.1308e-10 -5.84338e-12 1.80591e-11
4.13368e-10 -1.76427e-10 2.38089e-10
9.01014e-11 8.93864e-11 -3.23392e-11
-4.41843e-11 2.16541e-10 -1.78224e-11
1.03e-10 4.65497e-11 -1.68669e-11
8.19047e-11 -4.68357e-11 4.34757e-10
-1.42448e-10 1.48731e-10 -1.10002e-10
3.89926e-12 -8.97584e-11 2.85203e-11
-8.04024e-12 -2.14428e-11 4.51329e-12
-3.4494e-10 2.90411e-12 1.83632e-10
-4.16858e-11 7.68341e-11 -9.04121e-12
-1.34822e-10 -5.06969e-11 1.726e-11
-1.77466e-10 1.47506e-10 -1.12939e-10
-1.9183e-11 3.30197e-11 -4.46932e-11
-8.8285e-11 5.80667e-11 -2.35795e-11
-5.52306e-11 2.65503e-10 -2.20849e-11
5.17919e-11 3.4868e-11 -3.19029e-11
3.1145e-10 -1.25017e-10 9.69328e-11
-5.55912e-11 -1.10063e-10 2.62772e-11
3.36224e-11 -4.95994e-12 6.51783e-11
2.19812e-11 6.60561e-11 -8.54802e-11
-5.3518e-11 -5.93486e-11 4.66127e-11
-5.29136e-11 1.19638e-10 2.19044e-10
1.26372e-11 1.74223e-11 -3.29362e-11
5.81458e-11 1.74725e-10 -3.03108e-11
-1.09378e-10 -1.17272e-10 -4.48137e-11
-1.38858e-11 3.12338e-10 -8.7045e-11
-2.12379e-10 1.27572e-10 -1.77816e-11
1.05211e-12 3.18508e-12 -1.75041e-12
-2.58272e-10 1.01331e-10 -1.85013e-10
1.58519e-10 -1.53063e-10 3.91162e-12
6.48124e-12 2.74776e-10 -1.40002e-10
2.95359e-11 1.12392e-10 -5.68871e-12
-1.31354e-10 3.24611e-11 -3.49606e-10
8.32344e-11 -5.84201e-10 -4.31331e-11
-3.1059e-10 2.06653e-11 -7.39778e-11
-1.35025e-11 -3.57081e-11 2.79736e-11
-6.44961e-11 9.44789e-11 -1.50295e-11
2.64898e-10 4.29412e-12 4.22149e-12
-1.76766e-10 8.99009e-11 -6.10056e-11
-2.27277e-10 1.01768e-10 -5.04907e-11
5.26085e-11 7.60876e-11 -9.07713e-11
1.28337e-10 8.10834e-11 5.62349e-11
-2.54401e-12 8.87486e-11 -9.17817e-11
1.03278e-10 4.93904e-11 1.23801e-10
-8.44675e-12 -1.70023e-11 3.53008e-11
2.8072e-11 7.77108e-11 3.38588e-10
-6.06451e-12 -3.97033e-11 1.8932e-11
4.71436e-12 3.7692e-11 2.11843e-12
-8.01186e-11 6.38561e-12 5.4781e-11
-6.53127e-11 4.64301e-11 -8.95193e-12
-1.90771e-10 -1.03511e-10 2.15519e-10
2.91301e-10 9.78409e-11 -2.2432e-10
-6.56805e-12 -1.68657e-10 9.97013e-11
-3.83538e-11 -3.39604e-11 6.48109e-11
-1.02369e-10 4.29177e-11 -6.32074e-11
-1.73481e-10 1.21211e-10 -3.48819e-11
1.21371e-10 1.05858e-10 1.81745e-11
-2.29336e-10 1.14611e-10 7.09464e-11
7.38279e-11 5.06476e-11 -1.45993e-11
-4.71246e-10 -9.66059e-11 1.30798e-11
1.47168e-10 -2.57865e-11 7.48378e-11
4.43849e-11 -5.26491e-11 9.16057e-11
2.7862e-11 2.57221e-10 -8.30228e-11
-1.40572e-10 -1.19394e-10 -1.12429e-10
-3.22311e-11 -4.13776e-11 2.73037e-11
-3.11852e-12 1.49785e-10 -1.22518e-10
-2.1644e-11 -1.35463e-11 3.58933e-12
6.48831e-11 9.27065e-11 -2.27812e-11
-7.42956e-11 -1.20797e-11 1.80604e-11
-1.36213e-11 -5.71831e-11 2.5223e-11
2.86725e-11 5.24641e-11 -2.30352e-11
7.43968e-11 2.60629e-11 3.127e-11
-4.67673e-12 6.14945e-11 5.8443e-11
-4.7261e-11 1.7914e-10 -9.77986e-11
3.88439e-11 -2.08209e-11 6.64611e-11
3.18413e-12 3.93088e-12 -8.57373e-12
-2.46581e-10 -3.17738e-10 9.53661e-10
-2.07237e-11 -7.74548e-11 1.80797e-11
-9.95991e-11 7.76642e-11 2.40045e-11
5.29323e-11 6.82992e-12 -7.94233e-12
-4.84657e-13 3.89827e-13 -5.27931e-14
4.41054e-11 -4.52032e-11 6.96438e-11
1.33273e-10 -2.15835e-10 1.12585e-10
6.07451e-11 -1.4338e-11 6.12335e-12
2.69987e-11 2.0848e-11 -1.23062e-11
-1.43055e-11 -1.35875e-12 -3.55085e-11
-2.74004e-10 2.21709e-10 -6.68899e-11
-6.04517e-11 -3.20707e-11 -4.65613e-11
2.08176e-10 -1.6391e-11 -2.35484e-11
-2.01076e-10 -1.30888e-10 8.67278e-11
-8.31795e-12 -2.30831e-11 9.98397e-12
-7.53613e-13 -3.62507e-12 -6.59721e-13
-5.5103e-11 -5.77582e-11 -3.98849e-11
-1.89997e-10 -2.56884e-11 1.30828e-11
-1.78552e-10 1.60666e-10 -1.20984e-10
1.1458e-11 -3.94344e-11 5.59045e-11
-3.53841e-11 3.79091e-11 -5.31726e-11
3.2906e-11 -1.16403e-11 3.22972e-12
-1.34707e-10 2.91827e-10 1.26649e-10
-5.56345e-11 -2.68428e-11 6.83404e-11
1.03296e-12 -1.48292e-11 -7.78206e-13
1.38804e-12 9.36183e-12 -4.00906e-12
1.95627e-10 1.91632e-10 -1.75065e-10
-4.64092e-10 8.88304e-11 -4.43515e-11
-8.17822e-12 -7.51695e-11 5.85e-11
8.7494e-11 5.8782e-11 5.29084e-11
2.64205e-11 -1.08064e-11 9.86742e-12
-6.57603e-11 9.73201e-11 -2.52639e-11
3.35522e-12 1.65697e-10 -5.47652e-11
-2.69276e-12 9.75866e-12 -2.30436e-12
-5.24485e-12 -1.82562e-11 1.31074e-11
6.25686e-11 -4.37852e-12 6.01866e-12
-1.22489e-11 3.3535e-12 6.44054e-12
1.07637e-11 4.01617e-10 -1.20556e-10
9.93301e-11 8.23924e-11 2.88719e-11
1.87502e-13 2.52996e-11 -1.26646e-10
-3.25652e-10 7.89781e-12 1.33777e-10
1.7927e-11 8.35935e-11 -5.37531e-12
1.49789e-10 3.20586e-10 3.61587e-12
1.54248e-11 5.07944e-13 5.89595e-11
-8.66567e-11 -1.91291e-10 1.58238e-10
-3.40219e-10 -2.58164e-10 4.04407e-10
-7.18848e-11 9.45043e-11 -1.13808e-10
-1.65542e-10 5.24862e-12 -2.3331e-11
5.50108e-11 -5.8455e-11 6.78176e-11
5.3239e-11 -2.34116e-10 -2.71156e-11
-3.72333e-11 -1.037e-11 1.16437e-10
-9.76071e-11 -7.61201e-11 9.17518e-12
-2.65565e-11 -9.85966e-12 8.71903e-12
-3.09351e-12 -4.65136e-12 2.23971e-12
-4.64414e-11 -2.38701e-11 8.03928e-12
1.92813e-11 8.21848e-12 -1.62674e-11
1.51995e-13 -1.02452e-12 3.7422e-13
-6.99024e-11 4.11128e-11 -1.07406e-11
2.37325e-11 1.10351e-10 -1.54037e-10
-2.48092e-11 -1.7757e-11 5.72104e-12
1.31345e-11 4.46249e-11 -1.23525e-10
1.73621e-10 -1.5742e-10 8.71214e-11
-3.99941e-11 -3.04623e-11 2.12287e-11
1.79321e-12 -1.15287e-11 2.78941e-12
-8.00853e-11 2.8858e-11 -2.74787e-11
1.55431e-11 -3.90553e-12 -1.77218e-11
7.78163e-12 2.32676e-11 -1.22994e-11
-6.09604e-11 6.63818e-11 -6.11744e-12
-3.91562e-12 -1.89702e-11 5.14385e-12
1.37932e-12 -9.52755e-13 1.96928e-12
-1.22125e-11 4.44819e-11 -2.09374e-11
6.23116e-12 -7.08606e-12 1.79019e-12
-4.75537e-11 -8.2237e-11 3.80664e-11
7.80856e-11 1.66782e-10 -1.59359e-10
5.17592e-11 1.16179e-10 -3.27305e-11
1.30023e-12 1.12872e-11 -8.9633e-12
2.07136e-10 -2.76579e-10 2.50642e-10
2.3859e-23 -5.68687e-24 1.86116e-24
7.09696e-11 -2.81257e-11 9.16467e-12
1.11821e-10 -1.43532e-11 7.1938e-12
-8.43783e-12 -2.06205e-11 5.08876e-12
-3.72256e-11 -2.22492e-11 8.32238e-11
-3.19922e-11 -1.46016e-12 -1.15069e-11
5.62717e-11 -1.39864e-11 -1.80176e-13
-7.06491e-13 2.01594e-12 -9.14004e-12
6.50006e-12 -4.74358e-11 2.09421e-11
5.01985e-10 -5.31408e-10 1.27635e-09
-3.18295e-12 6.1578e-11 -2.25129e-11
8.65744e-13 1.00025e-11 -2.74036e-12
-9.9896e-12 -4.22851e-11 6.12894e-13
1.30969e-12 -1.20257e-11 3.16973e-12
9.49416e-12 -2.43821e-11 4.1802e-11
-1.36908e-10 1.50364e-10 -1.42653e-10
-1.28166e-10 2.75882e-11 6.93447e-12
-8.21202e-11 -1.17074e-10 2.73324e-11
-3.21454e-10 1.73977e-10 -2.69134e-11
-1.64188e-11 7.50976e-11 -2.48357e-11
4.29493e-11 -1.27458e-10 -1.08204e-11
6.74599e-12 -5.11476e-11 5.01344e-12
-1.85918e-11 -1.93898e-12 -5.68874e-12
5.03923e-11 2.29458e-10 -9.74158e-12
-6.75233e-11 -3.53951e-11 -3.13026e-12
-9.13467e-13 -1.73202e-11 6.51705e-12
-2.39026e-10 2.57699e-11 1.21903e-10
5.78264e-22 1.71898e-22 1.5096e-23
9.93945e-12 4.48246e-13 -7.22848e-12
-2.8912e-11 9.98322e-11 3.68323e-11
-2.33307e-11 -2.28519e-11 1.13326e-11
2.88487e-10 -5.19941e-11 2.09973e-11
-7.90857e-12 -6.19115e-12 -2.12172e-14
-9.04197e-12 -1.53018e-11 7.05532e-12
-7.11338e-11 -4.01753e-13 -1.34128e-11
-2.19952e-10 -1.38271e-10 -2.27733e-10
3.13392e-11 1.90216e-12 1.57841e-11
4.39785e-11 4.89686e-11 -1.55148e-11
2.34356e-12 6.03724e-12 -3.46529e-12
1.48941e-10 -2.12915e-10 2.72447e-11
-1.14747e-10 -6.60245e-11 2.80219e-12
-6.71677e-12 -1.82737e-11 4.98218e-12
8.75685e-12 -3.21757e-12 7.73609e-12
-2.00886e-11 -6.09219e-11 1.84946e-11
5.22304e-11 -1.38637e-10 9.76646e-11
9.56732e-11 7.82438e-11 -2.73466e-11
-7.47307e-11 1.51765e-10 1.40402e-09
