# vtk DataFile Version 3.0
LIGGGHTS particles timestep 7000000
ASCII
DATASET POLYDATA
POINTS 289 float
0.0449337 0.0160495 0.00798729
0.0453971 0.0173216 0.00752504
0.0452801 0.0171976 0.00755598
0.0453453 0.0174783 0.00747245
0.0447255 0.0159607 0.00812406
0.0508806 0.016569 0.00764157
0.0448964 0.0166885 0.00768952
0.0447075 0.0159083 0.00820728
0.051195 0.0179194 0.00708922
0.044838 0.0164069 0.00777541
0.0451159 0.0169602 0.0076195
0.0511518 0.0177367 0.0071582
0.0448759 0.0165946 0.00771756
0.0386035 0.0156307 0.00865082
0.0450676 0.0170427 0.00759014
0.0385821 0.0155704 0.00872761
0.044819 0.0163138 0.00780655
0.051087 0.0174627 0.00726167
0.0448198 0.0159754 0.00809351
0.0452134 0.016942 0.00763156
0.0447439 0.0160168 0.00804337
0.0450208 0.0169293 0.00762251
0.0511086 0.017554 0.00722718
0.0449935 0.0167209 0.00768595
0.050979 0.017006 0.00743412
0.039007 0.0170996 0.00732368
0.0448383 0.0160333 0.00801397
0.0508612 0.0164986 0.00770982
0.044857 0.0165005 0.00774575
0.0449931 0.0171047 0.00756566
0.0508997 0.0166394 0.00757314
0.044952 0.0165334 0.00774188
0.0450487 0.0165654 0.00773844
0.0512166 0.0180108 0.00705472
0.0449324 0.0164394 0.00776999
0.0449717 0.0166273 0.00771379
0.0510222 0.0171887 0.00736514
0.0449179 0.0167861 0.0076799
0.0448572 0.0160919 0.00793512
0.0449392 0.0168728 0.00763469
0.0451845 0.0171668 0.00755917
0.0454406 0.0175088 0.00746935
0.050919 0.0167312 0.00753831
0.0510006 0.0170973 0.00739963
0.0447813 0.0161358 0.0078871
0.0451416 0.0168684 0.00764976
0.0509578 0.0169146 0.00746868
0.0451761 0.0175105 0.00745091
0.0392756 0.0170803 0.00732872
0.0510438 0.01728 0.00733065
0.0449697 0.016191 0.00785493
0.0386249 0.0156911 0.00857401
0.0450905 0.0167528 0.00768252
0.0509383 0.0168229 0.00750348
0.0390208 0.0167741 0.00747648
0.0511302 0.0176454 0.00719269
0.0451654 0.01669 0.00770726
0.0447623 0.0160747 0.0079639
0.0451628 0.0170732 0.00758704
0.0453235 0.0173847 0.00750029
0.0510654 0.0173714 0.00729616
0.04469 0.0158655 0.00829596
0.0391564 0.0169759 0.00737173
0.0452584 0.0171041 0.00758382
0.0391159 0.0168012 0.00746033
0.0449713 0.0170112 0.0075935
0.0512382 0.0181021 0.00702023
0.0386829 0.0158661 0.00835127
0.0511734 0.0178281 0.00712371
0.0448001 0.0162207 0.00783772
0.0452577 0.0168573 0.00766109
0.0449134 0.0163458 0.00779948
0.0511401 0.0173119 0.00732585
0.0452973 0.0184147 0.0071758
0.0387376 0.0160403 0.00812898
0.0388668 0.016486 0.0076289
0.0453369 0.017822 0.00736419
0.0389811 0.0165993 0.00756509
0.0390288 0.0171889 0.00728421
0.0387915 0.0162149 0.0079096
0.0511185 0.0172206 0.00736036
0.0387937 0.0160924 0.00806469
0.0451235 0.0176663 0.00739854
0.0512485 0.0177691 0.00715325
0.0452413 0.0177912 0.00736739
0.0452932 0.0176347 0.00741993
0.0452715 0.0175411 0.00744777
0.0451109 0.0172298 0.00753444
0.0454104 0.017759 0.00738893
0.0453502 0.0182593 0.00722809
0.0452195 0.0176976 0.00739523
0.0452755 0.0183212 0.00720364
0.0453586 0.0179156 0.00733634
0.0453065 0.0180719 0.00728383
0.0390613 0.0169488 0.00738792
0.0454839 0.0176958 0.00741368
0.0391671 0.0166405 0.00753935
0.0450365 0.017292 0.00750993
0.0450463 0.0168375 0.00765299
0.0392046 0.0171578 0.00728528
0.0387187 0.0159823 0.00820815
0.04508 0.0174791 0.00745423
0.0386628 0.0158055 0.00842826
0.0448752 0.0161592 0.00786191
0.0452063 0.0172605 0.0075313
0.0451452 0.0177598 0.0073707
0.0452538 0.0182276 0.00723148
0.0389452 0.0168342 0.00744846
0.0451669 0.0178534 0.00734286
0.0390933 0.0174604 0.00717686
0.0453018 0.0172912 0.00752814
0.045186 0.0167838 0.00767927
0.0446748 0.0158369 0.00839058
0.0391673 0.0173978 0.00720139
0.0508423 0.0164327 0.00778265
0.0450695 0.0166591 0.00771046
0.0446548 0.0158029 0.00848245
0.0454569 0.0179495 0.00733239
0.0389233 0.0163571 0.00772979
0.0454239 0.0181964 0.00725278
0.0448946 0.0162532 0.00783315
0.0450893 0.0171363 0.00756229
0.0388283 0.0163439 0.00776193
0.0451978 0.0176041 0.00742307
0.0391064 0.0171273 0.00729735
0.0450148 0.0171983 0.00753782
0.039177 0.0170632 0.00732747
0.0454188 0.0174152 0.00749719
0.0450281 0.0164716 0.0077664
0.0452281 0.017354 0.00750346
0.0449522 0.0161085 0.00790874
0.0386757 0.0157451 0.00850692
0.0454021 0.0181027 0.00728065
0.0453151 0.0177284 0.00739205
0.0452498 0.0174476 0.00747561
0.0452847 0.0179783 0.0073117
0.0387863 0.0161646 0.00799584
0.0451327 0.0173234 0.0075066
0.0451544 0.0174169 0.00747875
0.0451017 0.0175727 0.00742639
0.0455273 0.0178832 0.00735792
0.0387345 0.0159198 0.00828456
0.0450583 0.0173856 0.00748208
0.045263 0.0178847 0.00733954
0.044633 0.0157563 0.00856819
0.0392115 0.0175838 0.00713939
0.0446113 0.0157068 0.0086523
0.0390716 0.0173691 0.00721147
0.0389059 0.0166593 0.00753711
0.039136 0.0168885 0.00741604
0.0452577 0.018202 0.00732807
0.0390817 0.0170361 0.00734365
0.0448014 0.0159188 0.00817392
0.0393295 0.017707 0.00710199
0.0454164 0.0185411 0.00714427
0.0393071 0.0171654 0.00728689
0.0453407 0.0186019 0.00712012
0.0392791 0.0173367 0.00722962
0.0449892 0.0162842 0.00782457
0.0390811 0.0165959 0.00756402
0.0452104 0.0180405 0.00728717
0.0394986 0.0176737 0.0071204
0.0391898 0.0174912 0.00717027
0.0454322 0.0178525 0.00736108
0.0394659 0.0179246 0.00703294
0.0454973 0.0181332 0.00727757
0.039286 0.0175218 0.00716375
0.039333 0.0169309 0.00738943
0.0389854 0.017009 0.00735989
0.0393502 0.0172702 0.00725272
0.039253 0.0172443 0.0072576
0.039115 0.017553 0.00714598
0.0451886 0.0179469 0.00731502
0.0389617 0.016511 0.00760982
0.0450083 0.016378 0.00779547
0.0394032 0.0176441 0.00712661
0.0452603 0.0167215 0.00770381
0.0392332 0.0176764 0.00710851
0.0388864 0.0165718 0.00758144
0.0512594 0.0181935 0.00698568
0.0455194 0.0182272 0.00724961
0.0451449 0.0165962 0.00773525
0.0391367 0.0176456 0.0071151
0.0454462 0.0182905 0.00722479
0.0391584 0.0177382 0.00708422
0.0453803 0.0180092 0.00730849
0.04477 0.0158459 0.00835746
0.0395203 0.0177684 0.00708878
0.0390617 0.0165084 0.00760836
0.0447514 0.0158091 0.00844855
0.0390009 0.0166867 0.00752078
0.039455 0.0174883 0.00718221
0.0388479 0.0164064 0.00768642
0.0393547 0.018234 0.00692219
0.0393745 0.0173654 0.00722106
0.0451033 0.0164088 0.00779118
0.0393597 0.0174587 0.00718842
0.0390499 0.0172753 0.00723856
0.0392643 0.0174292 0.00719463
0.039195 0.0167261 0.00749576
0.0394252 0.0177369 0.00709567
0.0389651 0.0169216 0.00740416
0.0453291 0.016792 0.00768639
0.0453723 0.0183532 0.00720015
0.0511833 0.0174947 0.00725686
0.0452321 0.0181341 0.00725932
0.0391296 0.0172193 0.00726106
0.0391761 0.0173037 0.00723405
0.0455056 0.0177894 0.00738583
0.0453624 0.0186954 0.00709228
0.0453283 0.0181656 0.00725597
0.0449147 0.0159909 0.00806611
0.0389409 0.0164238 0.00765406
0.0447846 0.0158822 0.00826545
0.0389254 0.0167468 0.00749278
0.038809 0.0162741 0.00783091
0.0511617 0.0174033 0.00729136
0.0393714 0.0178927 0.00703998
0.0385606 0.01551 0.00880441
0.0392549 0.017769 0.00707764
0.039041 0.0168615 0.00743219
0.0395605 0.0179564 0.00702595
0.0392018 0.0179233 0.00702246
0.0390958 0.0167138 0.00750462
0.0453946 0.0184475 0.00717214
0.0453887 0.0176654 0.00741677
0.0393406 0.0185914 0.00690151
0.0392794 0.0182991 0.00691223
0.0394685 0.0183604 0.00688351
0.0392766 0.0178616 0.00704675
0.0329211 0.016741 0.00751824
0.0392595 0.0182025 0.00692904
0.0392965 0.0179548 0.0070156
0.0329018 0.0166508 0.0075571
0.0329407 0.016831 0.00747942
0.0393161 0.0180479 0.00698445
0.0329839 0.0170104 0.00740229
0.0447092 0.0157349 0.00862941
0.0455925 0.0181636 0.00727448
0.0392215 0.0180163 0.00699136
0.0447311 0.0157721 0.0085392
0.045124 0.0165025 0.00776321
0.0329623 0.0169207 0.00744086
0.0393814 0.0175513 0.00715754
0.0393512 0.0177996 0.00707111
0.0392147 0.0168135 0.00745144
0.0392405 0.0181094 0.0069602
0.0396351 0.0178944 0.00705029
0.0394486 0.0182674 0.00691459
0.0394767 0.0175809 0.00715133
0.045367 0.0175719 0.00744461
0.03932 0.0184937 0.00689628
0.0395239 0.0182061 0.00693875
0.0330487 0.0172795 0.0072866
0.0393727 0.018328 0.00689066
0.0391801 0.0178308 0.00705334
0.0454382 0.0186348 0.0071164
0.0392555 0.0169897 0.00736601
0.039446 0.0178307 0.00706434
0.0394107 0.0180797 0.00697745
0.0394299 0.0181727 0.00694631
0.0394148 0.0185251 0.00689191
0.0394891 0.0184585 0.00688227
0.0393911 0.0179864 0.00700866
0.0395052 0.0181115 0.00697043
0.0395406 0.0178627 0.00705728
0.0393611 0.0186889 0.00690987
0.045319 0.0185083 0.00714796
0.0330055 0.0171001 0.00736373
0.0330807 0.0170411 0.00739316
0.0394037 0.017191 0.00728211
0.0330703 0.0173692 0.00724803
0.0330271 0.0171898 0.00732516
0.0393354 0.0181409 0.00695332
0.0392995 0.0183958 0.00689662
0.0394857 0.0180181 0.00700166
0.0449983 0.0168076 0.00773548
0.0393943 0.0184272 0.00688894
0.038886 0.0162359 0.00788436
0.0395437 0.018299 0.00690767
0.0393557 0.0170221 0.00734314
0.0453753 0.0172281 0.00755289
0.0394355 0.0186228 0.00690027
0.0389066 0.0162963 0.00780741
0.0452871 0.0175175 0.00754369
0.0452397 0.0166277 0.0077318
0.0393078 0.0176144 0.00713287
0.0392348 0.016901 0.0074073
0.0452557 0.0170304 0.0076514

VERTICES 289 578
1 0
1 1
1 2
1 3
1 4
1 5
1 6
1 7
1 8
1 9
1 10
1 11
1 12
1 13
1 14
1 15
1 16
1 17
1 18
1 19
1 20
1 21
1 22
1 23
1 24
1 25
1 26
1 27
1 28
1 29
1 30
1 31
1 32
1 33
1 34
1 35
1 36
1 37
1 38
1 39
1 40
1 41
1 42
1 43
1 44
1 45
1 46
1 47
1 48
1 49
1 50
1 51
1 52
1 53
1 54
1 55
1 56
1 57
1 58
1 59
1 60
1 61
1 62
1 63
1 64
1 65
1 66
1 67
1 68
1 69
1 70
1 71
1 72
1 73
1 74
1 75
1 76
1 77
1 78
1 79
1 80
1 81
1 82
1 83
1 84
1 85
1 86
1 87
1 88
1 89
1 90
1 91
1 92
1 93
1 94
1 95
1 96
1 97
1 98
1 99
1 100
1 101
1 102
1 103
1 104
1 105
1 106
1 107
1 108
1 109
1 110
1 111
1 112
1 113
1 114
1 115
1 116
1 117
1 118
1 119
1 120
1 121
1 122
1 123
1 124
1 125
1 126
1 127
1 128
1 129
1 130
1 131
1 132
1 133
1 134
1 135
1 136
1 137
1 138
1 139
1 140
1 141
1 142
1 143
1 144
1 145
1 146
1 147
1 148
1 149
1 150
1 151
1 152
1 153
1 154
1 155
1 156
1 157
1 158
1 159
1 160
1 161
1 162
1 163
1 164
1 165
1 166
1 167
1 168
1 169
1 170
1 171
1 172
1 173
1 174
1 175
1 176
1 177
1 178
1 179
1 180
1 181
1 182
1 183
1 184
1 185
1 186
1 187
1 188
1 189
1 190
1 191
1 192
1 193
1 194
1 195
1 196
1 197
1 198
1 199
1 200
1 201
1 202
1 203
1 204
1 205
1 206
1 207
1 208
1 209
1 210
1 211
1 212
1 213
1 214
1 215
1 216
1 217
1 218
1 219
1 220
1 221
1 222
1 223
1 224
1 225
1 226
1 227
1 228
1 229
1 230
1 231
1 232
1 233
1 234
1 235
1 236
1 237
1 238
1 239
1 240
1 241
1 242
1 243
1 244
1 245
1 246
1 247
1 248
1 249
1 250
1 251
1 252
1 253
1 254
1 255
1 256
1 257
1 258
1 259
1 260
1 261
1 262
1 263
1 264
1 265
1 266
1 267
1 268
1 269
1 270
1 271
1 272
1 273
1 274
1 275
1 276
1 277
1 278
1 279
1 280
1 281
1 282
1 283
1 284
1 285
1 286
1 287
1 288

POINT_DATA 289
SCALARS id int 1
LOOKUP_TABLE default
1
2
3
4
5
6
7
8
9
10
11
12
13
14
15
16
17
18
19
20
21
22
24
25
26
27
29
30
31
32
33
34
35
36
37
38
39
40
41
42
43
44
45
46
47
48
49
50
52
53
54
55
56
57
58
59
60
61
62
63
64
65
66
67
68
69
70
71
72
73
74
75
76
77
78
79
80
81
82
83
84
85
86
87
88
89
90
91
92
93
94
95
96
98
99
100
101
102
103
104
105
106
107
108
109
110
111
112
113
114
115
116
117
118
119
120
121
122
123
124
125
126
127
128
129
130
131
132
133
134
135
136
137
138
139
140
141
142
144
145
146
147
148
149
150
152
153
154
155
156
157
158
159
160
161
162
164
165
166
167
168
169
170
171
172
173
174
175
176
177
178
179
180
181
182
183
184
185
186
187
188
189
190
191
192
193
194
195
196
197
198
199
200
201
202
203
204
205
206
207
208
209
210
211
213
214
215
216
217
218
219
220
221
222
223
224
225
226
227
228
229
230
231
232
233
234
235
236
237
238
239
241
242
243
244
245
246
247
248
249
250
251
252
253
254
255
256
257
258
259
260
261
262
263
264
265
267
268
269
270
271
272
273
274
275
276
277
278
279
280
281
282
283
284
285
286
287
288
289
290
292
293
294
295
296
297
298
299
300

SCALARS type int 1
LOOKUP_TABLE default
1
1
1
1
1
1
1
1
1
1
1
1
1
1
1
1
1
1
1
1
1
1
1
1
1
1
1
1
1
1
1
1
1
1
1
1
1
1
1
1
1
1
1
1
1
1
1
1
1
1
1
1
1
1
1
1
1
1
1
1
1
1
1
1
1
1
1
1
1
1
1
1
1
1
1
1
1
1
1
1
1
1
1
1
1
1
1
1
1
1
1
1
1
1
1
1
1
1
1
1
1
1
1
1
1
1
1
1
1
1
1
1
1
1
1
1
1
1
1
1
1
1
1
1
1
1
1
1
1
1
1
1
1
1
1
1
1
1
1
1
1
1
1
1
1
1
1
1
1
1
1
1
1
1
1
1
1
1
1
1
1
1
1
1
1
1
1
1
1
1
1
1
1
1
1
1
1
1
1
1
1
1
1
1
1
1
1
1
1
1
1
1
1
1
1
1
1
1
1
1
1
1
1
1
1
1
1
1
1
1
1
1
1
1
1
1
1
1
1
1
1
1
1
1
1
1
1
1
1
1
1
1
1
1
1
1
1
1
1
1
1
1
1
1
1
1
1
1
1
1
1
1
1
1
1
1
1
1
1
1
1
1
1
1
1
1
1
1
1
1
1
1
1
1
1
1
1
1
1
1
1
1
1
1
1
1
1
1
1

SCALARS radius float 1
LOOKUP_TABLE default
5e-05
5e-05
5e-05
5e-05
5e-05
5e-05
5e-05
5e-05
5e-05
5e-05
5e-05
5e-05
5e-05
5e-05
5e-05
5e-05
5e-05
5e-05
5e-05
5e-05
5e-05
5e-05
5e-05
5e-05
5e-05
5e-05
5e-05
5e-05
5e-05
5e-05
5e-05
5e-05
5e-05
5e-05
5e-05
5e-05
5e-05
5e-05
5e-05
5e-05
5e-05
5e-05
5e-05
5e-05
5e-05
5e-05
5e-05
5e-05
5e-05
5e-05
5e-05
5e-05
5e-05
5e-05
5e-05
5e-05
5e-05
5e-05
5e-05
5e-05
5e-05
5e-05
5e-05
5e-05
5e-05
5e-05
5e-05
5e-05
5e-05
5e-05
5e-05
5e-05
5e-05
5e-05
5e-05
5e-05
5e-05
5e-05
5e-05
5e-05
5e-05
5e-05
5e-05
5e-05
5e-05
5e-05
5e-05
5e-05
5e-05
5e-05
5e-05
5e-05
5e-05
5e-05
5e-05
5e-05
5e-05
5e-05
5e-05
5e-05
5e-05
5e-05
5e-05
5e-05
5e-05
5e-05
5e-05
5e-05
5e-05
5e-05
5e-05
5e-05
5e-05
5e-05
5e-05
5e-05
5e-05
5e-05
5e-05
5e-05
5e-05
5e-05
5e-05
5e-05
5e-05
5e-05
5e-05
5e-05
5e-05
5e-05
5e-05
5e-05
5e-05
5e-05
5e-05
5e-05
5e-05
5e-05
5e-05
5e-05
5e-05
5e-05
5e-05
5e-05
5e-05
5e-05
5e-05
5e-05
5e-05
5e-05
5e-05
5e-05
5e-05
5e-05
5e-05
5e-05
5e-05
5e-05
5e-05
5e-05
5e-05
5e-05
5e-05
5e-05
5e-05
5e-05
5e-05
5e-05
5e-05
5e-05
5e-05
5e-05
5e-05
5e-05
5e-05
5e-05
5e-05
5e-05
5e-05
5e-05
5e-05
5e-05
5e-05
5e-05
5e-05
5e-05
5e-05
5e-05
5e-05
5e-05
5e-05
5e-05
5e-05
5e-05
5e-05
5e-05
5e-05
5e-05
5e-05
5e-05
5e-05
5e-05
5e-05
5e-05
5e-05
5e-05
5e-05
5e-05
5e-05
5e-05
5e-05
5e-05
5e-05
5e-05
5e-05
5e-05
5e-05
5e-05
5e-05
5e-05
5e-05
5e-05
5e-05
5e-05
5e-05
5e-05
5e-05
5e-05
5e-05
5e-05
5e-05
5e-05
5e-05
5e-05
5e-05
5e-05
5e-05
5e-05
5e-05
5e-05
5e-05
5e-05
5e-05
5e-05
5e-05
5e-05
5e-05
5e-05
5e-05
5e-05
5e-05
5e-05
5e-05
5e-05
5e-05
5e-05
5e-05
5e-05
5e-05
5e-05
5e-05
5e-05
5e-05
5e-05
5e-05
5e-05
5e-05
5e-05
5e-05
5e-05
5e-05
5e-05
5e-05
5e-05
5e-05
5e-05
5e-05
5e-05
5e-05
5e-05
5e-05
5e-05
5e-05
5e-05
5e-05
5e-05
5e-05
5e-05
5e-05

SCALARS mass float 1
LOOKUP_TABLE default
1.46608e-10
1.46608e-10
1.46608e-10
1.46608e-10
1.46608e-10
1.46608e-10
1.46608e-10
1.46608e-10
1.46608e-10
1.46608e-10
1.46608e-10
1.46608e-10
1.46608e-10
1.46608e-10
1.46608e-10
1.46608e-10
1.46608e-10
1.46608e-10
1.46608e-10
1.46608e-10
1.46608e-10
1.46608e-10
1.46608e-10
1.46608e-10
1.46608e-10
1.46608e-10
1.46608e-10
1.46608e-10
1.46608e-10
1.46608e-10
1.46608e-10
1.46608e-10
1.46608e-10
1.46608e-10
1.46608e-10
1.46608e-10
1.46608e-10
1.46608e-10
1.46608e-10
1.46608e-10
1.46608e-10
1.46608e-10
1.46608e-10
1.46608e-10
1.46608e-10
1.46608e-10
1.46608e-10
1.46608e-10
1.46608e-10
1.46608e-10
1.46608e-10
1.46608e-10
1.46608e-10
1.46608e-10
1.46608e-10
1.46608e-10
1.46608e-10
1.46608e-10
1.46608e-10
1.46608e-10
1.46608e-10
1.46608e-10
1.46608e-10
1.46608e-10
1.46608e-10
1.46608e-10
1.46608e-10
1.46608e-10
1.46608e-10
1.46608e-10
1.46608e-10
1.46608e-10
1.46608e-10
1.46608e-10
1.46608e-10
1.46608e-10
1.46608e-10
1.46608e-10
1.46608e-10
1.46608e-10
1.46608e-10
1.46608e-10
1.46608e-10
1.46608e-10
1.46608e-10
1.46608e-10
1.46608e-10
1.46608e-10
1.46608e-10
1.46608e-10
1.46608e-10
1.46608e-10
1.46608e-10
1.46608e-10
1.46608e-10
1.46608e-10
1.46608e-10
1.46608e-10
1.46608e-10
1.46608e-10
1.46608e-10
1.46608e-10
1.46608e-10
1.46608e-10
1.46608e-10
1.46608e-10
1.46608e-10
1.46608e-10
1.46608e-10
1.46608e-10
1.46608e-10
1.46608e-10
1.46608e-10
1.46608e-10
1.46608e-10
1.46608e-10
1.46608e-10
1.46608e-10
1.46608e-10
1.46608e-10
1.46608e-10
1.46608e-10
1.46608e-10
1.46608e-10
1.46608e-10
1.46608e-10
1.46608e-10
1.46608e-10
1.46608e-10
1.46608e-10
1.46608e-10
1.46608e-10
1.46608e-10
1.46608e-10
1.46608e-10
1.46608e-10
1.46608e-10
1.46608e-10
1.46608e-10
1.46608e-10
1.46608e-10
1.46608e-10
1.46608e-10
1.46608e-10
1.46608e-10
1.46608e-10
1.46608e-10
1.46608e-10
1.46608e-10
1.46608e-10
1.46608e-10
1.46608e-10
1.46608e-10
1.46608e-10
1.46608e-10
1.46608e-10
1.46608e-10
1.46608e-10
1.46608e-10
1.46608e-10
1.46608e-10
1.46608e-10
1.46608e-10
1.46608e-10
1.46608e-10
1.46608e-10
1.46608e-10
1.46608e-10
1.46608e-10
1.46608e-10
1.46608e-10
1.46608e-10
1.46608e-10
1.46608e-10
1.46608e-10
1.46608e-10
1.46608e-10
1.46608e-10
1.46608e-10
1.46608e-10
1.46608e-10
1.46608e-10
1.46608e-10
1.46608e-10
1.46608e-10
1.46608e-10
1.46608e-10
1.46608e-10
1.46608e-10
1.46608e-10
1.46608e-10
1.46608e-10
1.46608e-10
1.46608e-10
1.46608e-10
1.46608e-10
1.46608e-10
1.46608e-10
1.46608e-10
1.46608e-10
1.46608e-10
1.46608e-10
1.46608e-10
1.46608e-10
1.46608e-10
1.46608e-10
1.46608e-10
1.46608e-10
1.46608e-10
1.46608e-10
1.46608e-10
1.46608e-10
1.46608e-10
1.46608e-10
1.46608e-10
1.46608e-10
1.46608e-10
1.46608e-10
1.46608e-10
1.46608e-10
1.46608e-10
1.46608e-10
1.46608e-10
1.46608e-10
1.46608e-10
1.46608e-10
1.46608e-10
1.46608e-10
1.46608e-10
1.46608e-10
1.46608e-10
1.46608e-10
1.46608e-10
1.46608e-10
1.46608e-10
1.46608e-10
1.46608e-10
1.46608e-10
1.46608e-10
1.46608e-10
1.46608e-10
1.46608e-10
1.46608e-10
1.46608e-10
1.46608e-10
1.46608e-10
1.46608e-10
1.46608e-10
1.46608e-10
1.46608e-10
1.46608e-10
1.46608e-10
1.46608e-10
1.46608e-10
1.46608e-10
1.46608e-10
1.46608e-10
1.46608e-10
1.46608e-10
1.46608e-10
1.46608e-10
1.46608e-10
1.46608e-10
1.46608e-10
1.46608e-10
1.46608e-10
1.46608e-10
1.46608e-10
1.46608e-10
1.46608e-10
1.46608e-10
1.46608e-10
1.46608e-10
1.46608e-10
1.46608e-10
1.46608e-10
1.46608e-10
1.46608e-10
1.46608e-10
1.46608e-10
1.46608e-10
1.46608e-10
1.46608e-10
1.46608e-10
1.46608e-10
1.46608e-10
1.46608e-10
1.46608e-10
1.46608e-10

VECTORS velocity float
0.00427305 -0.00037444 0.00025767
0.00450785 -0.000401228 0.00043077
0.004518 -0.000390358 0.000427674
0.0045211 -0.000403768 0.00043176
0.00431362 0.000482806 0.000873523
0.00431108 -0.000471252 0.000247274
0.00448716 -0.000397168 0.000427289
0.00434644 0.000627156 0.000977102
0.00475974 -0.00034281 0.00052483
0.00429168 -0.000394812 0.000293839
0.00449158 -0.000383487 0.000424687
0.00473987 -0.000335004 0.000520262
0.00424426 -0.000306589 0.000382853
0.00469626 0.000218275 -2.96345e-05
0.00448838 -0.000384495 0.000424173
0.00471366 0.000216411 -2.84847e-05
0.00427417 -0.00039117 0.000320718
0.00470325 -0.000332694 0.000516262
0.00430059 0.0001862 0.000691435
0.00449247 -0.000377927 0.000423847
0.00431337 0.000146239 0.000644686
0.0044896 -0.000383693 0.000425634
0.00471562 -0.000333105 0.000517419
0.00446746 -0.000388802 0.000424606
0.0046509 -0.000319446 0.000507465
0.00487819 2.28052e-05 -8.35395e-05
0.00421007 -0.000422827 0.00033497
0.00427484 -0.00067416 2.73196e-05
0.00426659 -0.000315661 0.000386596
0.00449368 -0.000377521 0.000422379
0.00433538 -0.000271755 0.000461399
0.00441342 -0.000376465 0.000416532
0.00436209 -0.000346998 0.000407916
0.00477105 -0.000345565 0.000526772
0.00428106 -0.000348148 0.000396145
0.0045073 -0.000394291 0.000429579
0.00466981 -0.000328044 0.000511042
0.00446821 -0.00038349 0.000418805
0.00429298 -0.000426603 0.000336054
0.00448522 -0.000386676 0.000424764
0.00451332 -0.000386691 0.000426465
0.00452934 -0.00040979 0.000434957
0.00431988 -0.000269058 0.00045937
0.00466681 -0.000323402 0.000509754
0.00433518 -0.00041588 0.000249065
0.00449429 -0.000386822 0.000424205
0.00446255 -0.000289349 0.000479613
0.00451053 -0.000391377 0.000428109
0.00483833 6.6208e-05 5.47517e-05
0.00468167 -0.000329032 0.000512894
0.00431987 -0.000354819 0.000301801
0.00466432 0.000219792 -3.44007e-05
0.004473 -0.000381153 0.000421352
0.00430067 -0.000266177 0.000457029
0.00461182 4.64089e-05 -0.000149484
0.00472915 -0.000333057 0.000518596
0.00442487 -0.000399805 0.000417578
0.00430403 -0.000238603 0.000369997
0.00449115 -0.000391362 0.000426593
0.00450974 -0.00039876 0.000430178
0.00469343 -0.000329092 0.000513968
0.00437279 0.000592324 0.000975788
0.00483788 -4.70938e-05 -0.000108869
0.00451715 -0.000386823 0.000428113
0.00466654 -4.55412e-05 -0.000104952
0.00449117 -0.000380834 0.000423053
0.00478271 -0.000347305 0.000528646
0.00444188 0.000228622 -5.72032e-05
0.0047495 -0.00033894 0.000522397
0.0043154 -0.000382167 0.000299642
0.00446621 -0.000388096 0.000424741
0.0042313 -0.000358185 0.000299441
0.00469249 -0.000331344 0.000514861
0.00452755 -0.0003608 0.000418636
0.00427871 0.000230183 -6.86607e-05
0.00449558 7.74191e-05 -0.000133285
0.00449909 -0.000397765 0.000429118
0.00449509 7.08388e-05 -0.000158318
0.0049013 8.64226e-05 7.00451e-05
0.00444263 0.000199227 -2.64611e-05
0.00468102 -0.000332549 0.000514307
0.0043334 0.000203149 -3.26798e-05
0.00450867 -0.000394996 0.000429157
0.0047451 -0.000343667 0.000523967
0.00451108 -0.000404187 0.000432031
0.00452223 -0.0004002 0.000431666
0.00452023 -0.000399277 0.00043145
0.00450471 -0.000388913 0.000427109
0.00449882 -0.000390004 0.000426671
0.0045238 -0.000350098 0.000415638
0.00451386 -0.000400978 0.000431207
0.00452727 -0.000358768 0.00041815
0.00448871 -0.000384855 0.000424318
0.00450774 -0.000367932 0.000420413
0.00481462 2.56888e-06 -0.000134076
0.00451506 -0.000366498 0.000420397
0.00449822 3.31167e-05 -0.000136774
0.00450039 -0.000384399 0.00042501
0.00448845 -0.000380851 0.000423894
0.00486125 9.09983e-05 0.00016951
0.00429219 0.000233672 -7.15337e-05
0.00450092 -0.000395358 0.000428533
0.00452503 0.000223453 -4.69123e-05
0.00433868 -0.00035407 0.000301385
0.00451053 -0.000394099 0.000428702
0.00450919 -0.00039776 0.000430029
0.00452346 -0.00036274 0.00041906
0.00454696 6.07221e-05 -0.000154438
0.00450987 -0.000401541 0.000431214
0.00492311 0.000149258 0.000151826
0.00451023 -0.00039248 0.000428096
0.00446912 -0.000402247 0.000432703
0.00439787 0.000556574 0.000982283
0.00490254 0.000127403 0.000158737
0.00423851 -0.000673304 2.71338e-05
0.00442382 -0.000364388 0.000415519
0.00446488 0.00052744 0.000998279
0.00447827 -0.000373787 0.000420222
0.00449003 0.000182626 6.30463e-06
0.00450626 -0.000359143 0.000417615
0.00431116 -0.000356434 0.000332008
0.00449658 -0.000384749 0.00042461
0.00446559 0.000167224 -4.5803e-05
0.00451496 -0.00039613 0.00043021
0.00483559 -5.96662e-05 -0.000117229
0.0044985 -0.000376912 0.000422607
0.00486068 -4.74977e-05 -9.36465e-05
0.0045205 -0.000409923 0.000434168
0.00432308 -0.000336437 0.000399899
0.00450686 -0.000394748 0.000428895
0.00430819 -0.000370218 0.000270094
0.00460844 0.000235483 -5.79836e-05
0.00449216 -0.000369848 0.000419973
0.00451256 -0.000405436 0.000432467
0.00451078 -0.000396527 0.000429565
0.00449982 -0.000390725 0.00042678
0.00440666 0.000203554 -3.14008e-05
0.00450463 -0.000392667 0.000428068
0.00450457 -0.000393319 0.000427879
0.0045111 -0.000374337 0.000422851
0.00447639 -0.000367588 0.000418214
0.00437331 0.000247374 -8.61563e-05
0.00450007 -0.000392627 0.000427646
0.00450084 -0.000403754 0.000431079
0.0044874 0.000530709 0.000997513
0.00493176 0.0001501 0.000151996
0.00447713 0.000545774 0.000987302
0.00491506 0.000146224 0.000154852
0.00447414 7.09243e-05 -0.000157697
0.0047506 -5.5641e-05 -9.98371e-05
0.0045161 -0.000353252 0.000420297
0.0048692 -8.27658e-06 -0.000133215
0.0043261 0.00054191 0.000945583
0.0049501 0.000149422 0.000152905
0.00450902 -0.000401958 0.000431024
0.00486896 0.000110153 0.000153035
0.00453195 -0.000376268 0.000424477
0.00489356 0.000117488 0.000159246
0.00430794 -0.000335452 0.000366112
0.00449606 4.14531e-05 -0.000144652
0.00451357 -0.00037921 0.000423829
0.00484642 0.000146441 0.000150048
0.00492237 0.000145319 0.000154177
0.00448336 -0.000378848 0.000422131
0.00498469 0.000349424 8.59443e-05
0.0044857 -0.000376189 0.000421512
0.00490096 0.000133651 0.000156481
0.00476057 -4.13385e-05 -0.000112853
0.00486506 5.8531e-06 -0.000139931
0.00487879 0.000102003 0.000167434
0.00487672 0.000118859 0.000160892
0.00493356 0.00015162 0.00015257
0.00449524 -0.000439956 0.00044143
0.00450173 4.69734e-05 -0.000146756
0.00430945 -0.000330584 0.000399583
0.00493656 0.000128734 0.000159664
0.00443701 -0.000438562 0.000437311
0.00493609 0.000155438 0.000150303
0.00448834 6.96971e-05 -0.000159815
0.00438454 -0.000276413 0.000467957
0.00447146 -0.000377856 0.000420966
0.00439609 -0.00039392 0.000420782
0.00493644 0.000152095 0.000151353
0.00448962 -0.000368275 0.00041934
0.00494256 0.000157696 0.000149573
0.0044912 -0.000372929 0.000420839
0.00435711 0.000539654 0.000941648
0.00466282 0.000748123 -6.41014e-05
0.00449902 4.03232e-05 -0.000146091
0.00441598 0.000550296 0.000935838
0.00452598 7.00558e-05 -0.000159224
0.00489663 0.00011951 0.000161146
0.00449128 0.000112991 -8.15652e-05
0.00457547 0.000151551 0.000131445
0.00489796 0.000113933 0.000163823
0.00432027 -0.000372316 0.000411436
0.00489846 0.000122371 0.000160785
0.00491489 0.000137706 0.000157904
0.00490753 0.000125101 0.000158066
0.00455635 1.37006e-05 -0.000132162
0.00479605 8.43134e-05 0.000169085
0.00475145 2.57648e-05 -0.000144045
0.00442438 -0.000425827 0.00043224
0.00451381 -0.000357103 0.000417169
0.00471317 -0.000335451 0.000518137
0.00451959 -0.000368995 0.00042135
0.00489615 0.000124587 0.00016059
0.00488566 0.000125249 0.000159095
0.0044899 -0.000365383 0.000418396
0.00453645 -0.000379404 0.000426248
0.0045099 -0.00036376 0.00041893
0.00426592 -0.000371362 0.00025969
0.00448047 4.95979e-05 -0.000150756
0.00433797 0.000537044 0.000948597
0.00446076 7.27523e-05 -0.000158729
0.00445333 0.000198387 -2.24425e-05
0.00470381 -0.000333732 0.000516683
0.00466117 0.000691151 -4.45014e-05
0.00472945 0.000215826 -2.54243e-05
0.00494925 0.000157809 0.000150518
0.00473051 1.85428e-05 -0.00013888
0.00494195 0.000506638 3.0212e-05
0.00495165 0.000185019 0.000140087
0.00457895 -3.94359e-05 -0.000105639
0.00450695 -0.000390975 0.000427423
0.00452106 -0.000396912 0.000430545
0.00462989 0.000186025 -0.000188162
0.0045824 0.00015183 8.56869e-05
0.00461933 0.000145662 0.000140327
0.00489397 0.000169301 0.000144106
0.00441234 0.000101808 0.000155749
0.00460573 0.00033627 7.28831e-05
0.00493295 0.000264948 0.000112396
0.00444206 0.00015391 0.000134124
0.00479623 3.94102e-05 0.00020082
0.00460733 6.39239e-05 0.000167072
0.00481886 3.7796e-05 0.000202347
0.00453169 0.000568653 0.000962886
0.00447674 -0.000369505 0.000418779
0.00451059 0.000285472 8.71013e-05
0.00447799 0.000552837 0.000960657
0.00437113 -0.000386216 0.000416929
0.00480755 3.91206e-05 0.000201316
0.00488583 0.000113729 0.000162702
0.00482782 0.000105739 0.000163051
0.00465659 -4.21729e-06 -0.000125011
0.0045572 0.000322172 7.89685e-05
0.00500937 0.000579133 8.2978e-06
0.00459032 0.000129356 0.000143823
0.00490537 8.82656e-05 0.00017231
0.00452897 -0.000402628 0.000432583
0.00462104 0.000171249 -0.000143044
0.0045942 0.000194519 0.000123237
0.00484781 2.32843e-05 0.000210144
0.00460557 0.000136408 0.000144821
0.0049466 0.00016789 0.000146893
0.00451383 -0.000407359 0.000433183
0.00479235 8.82438e-06 -8.25783e-05
0.00457733 0.000715968 -5.67403e-05
0.00472066 0.000226334 0.00011772
0.00459165 0.000200872 0.000121272
0.00462119 0.000134514 -0.000190726
0.00464144 0.000163917 -0.000193048
0.00491648 0.000335718 8.82819e-05
0.00466935 0.00029739 9.09276e-05
0.00514274 0.000464767 5.30227e-05
0.00463515 0.00019841 -0.000187943
0.00452953 -0.000369236 0.000421709
0.00482851 3.43325e-05 0.000204635
0.00482739 3.33054e-05 0.000204812
0.00486802 9.66767e-05 0.000169161
0.00485889 2.05379e-05 0.000211885
0.0048387 2.96205e-05 0.000206766
0.00463294 0.000110449 0.000153984
0.00460424 0.000150599 -4.82186e-05
0.00488128 0.000429743 5.40878e-05
0.00446373 -0.000376024 0.000416361
0.00463413 0.000165366 -7.9746e-07
0.00445184 0.000183932 8.42104e-07
0.00461345 0.00017676 0.000130328
0.0049503 0.000162238 -0.000220102
0.00451928 -0.000379425 0.000424879
0.00464327 0.000155558 -0.000190348
0.00446974 0.000181914 4.72673e-06
0.00452523 -0.000407896 0.000432368
0.00439895 -0.000425744 0.000436706
0.00491914 0.000142188 0.000154714
0.00474063 -1.56959e-05 -0.000127604
0.00448791 -0.000378686 0.000433137

VECTORS force float
1.19644e-10 -9.50799e-11 1.09423e-10
4.67779e-11 3.09725e-11 -5.80154e-12
-1.07948e-10 -7.77838e-11 2.83933e-11
-3.00919e-12 1.69749e-12 5.34743e-12
-1.47887e-10 -2.439e-10 -9.67181e-11
3.22525e-11 4.19075e-11 2.34986e-11
-1.21495e-11 8.81482e-11 -3.20022e-11
-2.76737e-10 -1.04792e-10 1.29623e-12
7.26314e-12 1.80669e-11 -4.54248e-12
-8.2072e-11 -2.82551e-10 3.88711e-11
-1.67713e-11 -5.44361e-12 -2.76142e-11
1.14916e-11 1.47176e-11 -3.45423e-12
-2.11316e-11 -3.51588e-11 9.77452e-12
2.894e-11 5.13855e-11 -1.84075e-11
-3.68122e-11 2.83186e-11 1.11488e-11
4.89947e-12 2.77416e-11 -5.16099e-11
3.99457e-10 -1.61869e-10 -3.1733e-11
6.14263e-14 -6.46225e-12 2.0775e-12
-6.00314e-11 9.12413e-11 -3.54356e-11
1.53463e-11 -7.55198e-11 3.15372e-11
-4.86931e-11 -1.7584e-10 -1.52326e-10
-1.5454e-12 6.41522e-11 -1.31611e-11
-1.44749e-11 -2.09267e-11 6.831e-12
3.37976e-11 -9.81352e-11 -4.39648e-11
-1.10089e-10 1.25967e-11 -2.37528e-11
2.2729e-11 3.54015e-11 -6.68771e-11
3.40592e-10 3.62886e-11 -7.46738e-11
-6.05586e-11 -1.3834e-11 1.37779e-11
-3.93597e-11 -6.66956e-12 -5.72618e-12
-1.34268e-11 3.70354e-12 -8.39872e-12
1.15579e-11 1.91303e-11 3.8718e-13
5.45622e-11 -4.09481e-11 1.15503e-11
2.32055e-10 9.93659e-11 -5.23762e-11
-3.03925e-12 3.83647e-12 1.30517e-12
-9.93916e-11 -2.67776e-11 1.22813e-11
-2.31028e-11 2.73865e-11 -1.87467e-11
7.03745e-11 1.26812e-11 1.31952e-11
-1.39561e-11 -1.53273e-10 -9.51937e-11
2.84355e-10 5.89723e-11 -3.91857e-11
1.31748e-11 -2.51141e-11 1.08509e-11
-7.9897e-11 -3.90137e-11 5.26926e-12
6.03887e-11 2.10626e-11 -3.05467e-12
-1.19459e-11 -1.65062e-12 -1.31438e-12
5.65433e-11 7.55492e-11 -1.01073e-11
8.14167e-11 2.35298e-10 3.56677e-10
-1.08848e-10 -1.47373e-11 3.20971e-11
-1.31932e-10 3.13863e-11 -2.69719e-11
1.41207e-11 1.48457e-11 -1.00892e-11
-1.37359e-10 2.03465e-11 6.4358e-11
2.61915e-12 -7.93076e-11 2.88924e-11
2.10743e-10 -4.96907e-11 3.84467e-11
-1.34009e-11 -2.66854e-11 -2.08694e-11
-1.37867e-10 1.13244e-10 -5.06591e-11
1.35292e-12 6.53283e-12 -4.05252e-12
9.46421e-11 1.64117e-10 -9.06913e-11
-5.45766e-12 -4.44305e-12 2.1032e-12
3.86634e-12 -1.30338e-11 -1.14873e-10
6.11572e-11 6.73936e-11 1.20022e-10
-6.1377e-11 4.25827e-11 -1.85319e-11
-7.37076e-12 -3.2714e-11 1.16469e-11
2.13607e-11 -9.9124e-12 2.64036e-13
-2.3035e-10 8.68645e-11 2.79493e-10
-1.24842e-10 2.37522e-11 9.32748e-11
-1.08939e-10 -7.61537e-11 1.70157e-11
-1.16528e-10 8.18241e-11 -4.13703e-11
-4.71281e-12 4.85536e-11 -3.92378e-12
2.94165e-12 -5.24576e-12 1.26974e-12
-3.57486e-11 -5.80869e-11 6.84124e-11
8.34143e-12 2.47907e-11 -1.06862e-11
3.5726e-11 -1.35071e-11 5.0313e-11
1.45702e-10 -5.50867e-11 -2.28421e-11
2.38473e-10 6.31166e-11 7.15686e-11
4.82682e-12 2.14116e-11 -8.84036e-12
-7.23973e-12 -8.16551e-11 2.3885e-11
-1.6271e-10 -7.69272e-11 9.37108e-11
-1.47274e-11 -5.54035e-11 -7.09415e-11
1.30889e-10 -3.91731e-11 2.16787e-11
-8.94101e-11 1.42339e-10 -6.66856e-11
2.44625e-11 -8.17782e-11 -1.23163e-10
8.78829e-11 3.29411e-11 9.39183e-11
-3.62194e-12 8.19673e-12 -1.01657e-11
-6.73559e-11 -9.57454e-11 1.01306e-10
2.542e-11 9.88247e-11 -2.88722e-11
-2.23364e-11 -5.56271e-13 -1.51227e-12
7.41212e-11 3.28875e-11 -6.56831e-12
2.75701e-11 3.3198e-11 -1.04716e-11
1.33212e-11 2.52538e-11 -5.7789e-12
-5.43405e-12 3.5239e-11 -1.81336e-11
1.35139e-10 -3.24163e-11 1.90999e-11
1.24235e-11 -8.62547e-11 2.69555e-11
2.83363e-11 6.3778e-11 -1.70512e-11
-2.91138e-11 -1.20178e-10 3.8414e-11
6.82221e-11 -1.04313e-10 3.87916e-11
2.04144e-11 -1.34282e-10 4.49811e-11
-4.32004e-11 9.02776e-11 -7.15572e-11
1.14196e-10 -4.15006e-11 2.08583e-11
1.27151e-10 -1.42083e-10 7.73271e-11
1.41769e-11 7.951e-11 -2.46033e-11
-2.03014e-11 9.67218e-11 -2.05524e-11
-6.91259e-11 2.57816e-11 1.20121e-11
-7.99704e-11 -1.19836e-10 1.28373e-10
7.05656e-12 5.28115e-12 -2.32691e-12
-1.14247e-11 -4.37796e-11 5.66862e-11
-3.14436e-11 -5.90509e-12 5.08995e-11
-4.95548e-11 -2.22583e-11 -1.42568e-12
3.87775e-11 1.24424e-10 -3.55848e-11
-3.2086e-11 -1.4831e-10 4.20012e-11
1.73952e-11 1.12719e-10 -7.37678e-11
7.98451e-11 1.7311e-10 -4.33222e-11
5.78283e-11 3.80668e-11 -3.67856e-11
-3.29204e-11 -7.68147e-11 1.89657e-11
-1.46959e-11 2.05488e-11 1.27896e-11
-9.06015e-11 9.53961e-11 4.29124e-10
-4.43674e-11 1.17071e-10 -3.56793e-11
5.96922e-12 -5.06399e-11 6.19692e-11
5.67609e-11 1.19945e-10 -4.77123e-11
3.07334e-10 1.7344e-10 3.73479e-10
9.43037e-11 -8.73643e-11 3.53325e-11
-1.11257e-10 -1.4399e-11 3.40953e-12
5.20616e-11 -6.95007e-11 2.37672e-11
9.12064e-11 -1.76811e-10 -2.22635e-10
-3.17495e-11 2.41139e-11 -1.09848e-11
-3.94551e-11 -6.32907e-11 -4.25802e-11
1.81498e-11 5.45532e-11 -1.46436e-11
-3.80172e-11 -2.98959e-11 -2.41436e-10
-1.69564e-11 -2.4905e-11 5.87107e-12
-1.77953e-10 1.06535e-10 -1.72305e-10
-1.1483e-12 6.0239e-12 -2.48908e-12
2.40744e-11 1.33245e-10 -2.30038e-11
2.49622e-13 -2.25165e-11 4.55333e-12
2.02932e-10 -9.84901e-11 1.11109e-10
-8.8182e-12 -1.49775e-11 4.63528e-11
-4.26518e-12 -9.7758e-11 3.11723e-11
9.12842e-11 1.21158e-11 2.0396e-12
1.02348e-11 -5.97249e-13 6.91184e-12
2.96643e-11 -9.22142e-11 3.08216e-11
5.49028e-11 7.78298e-12 1.23848e-10
4.61991e-12 3.0755e-11 1.69862e-12
1.57891e-11 8.68626e-12 6.59633e-13
-2.73055e-12 -1.34997e-11 4.4294e-12
4.55205e-11 -1.40763e-10 4.65287e-11
2.47989e-11 -7.518e-11 1.18085e-10
1.82339e-11 6.3081e-11 -1.85668e-11
8.88547e-11 -5.26999e-11 2.46823e-11
-1.64712e-10 -2.13671e-11 5.56e-10
2.62662e-11 1.55885e-11 8.34899e-12
-1.39633e-10 -1.87457e-10 4.90389e-10
1.41518e-11 -1.89856e-11 4.1007e-11
-4.15873e-11 7.63952e-11 -2.25393e-11
-2.95399e-12 6.97194e-11 -3.2491e-13
1.33368e-11 -1.7283e-10 4.76843e-11
-1.29884e-10 -2.89411e-11 2.74613e-11
-9.42107e-11 1.15174e-11 -2.07047e-10
-2.81152e-11 1.00864e-10 -3.49937e-11
1.20274e-10 1.02399e-10 -2.27569e-11
-3.32423e-10 2.09077e-10 -1.45384e-10
-1.28701e-11 -3.4255e-11 1.03714e-11
-9.20315e-11 1.98648e-10 -7.15686e-11
7.5665e-11 3.00477e-12 -2.60222e-11
-1.15916e-10 4.85108e-11 -2.41048e-11
-2.77274e-11 -1.59433e-10 4.72851e-11
-5.58239e-10 1.87531e-10 -8.53045e-11
-1.36688e-11 5.90502e-11 -2.51917e-11
7.73495e-11 -1.07895e-10 3.73395e-11
8.16209e-11 -3.23916e-10 1.19195e-10
9.07968e-11 -5.49005e-11 2.41405e-11
3.84005e-11 1.34771e-10 -5.55908e-11
1.40341e-11 3.9572e-11 -3.15376e-11
-1.30156e-10 5.53126e-11 -2.56368e-11
-1.53206e-10 2.17644e-10 -7.2363e-11
-1.03498e-10 2.51842e-10 -1.30262e-10
4.621e-11 7.41564e-11 -2.81813e-11
3.9024e-11 -9.01442e-13 6.07359e-12
-9.35551e-11 -1.05966e-10 -1.14537e-10
-2.47581e-11 9.96192e-11 2.05238e-11
3.03849e-11 1.61744e-10 -5.99557e-11
3.86485e-12 4.36405e-11 3.95826e-11
-1.01221e-11 6.36313e-12 -1.3103e-11
-5.28753e-11 1.37699e-11 -4.47024e-11
-7.90573e-12 -2.97871e-13 -4.96577e-12
4.31244e-11 1.56128e-11 -1.98578e-12
2.43823e-11 6.98932e-11 6.212e-11
1.86214e-11 2.27351e-11 9.48296e-12
2.41104e-11 -1.65789e-11 7.2601e-12
-5.52765e-11 4.84544e-12 -1.69597e-12
9.79186e-11 -9.94679e-11 3.33869e-11
3.84921e-10 1.64663e-10 -3.58468e-10
-7.24143e-10 3.33422e-10 -1.44276e-10
-1.17453e-10 -6.76972e-11 -3.50457e-12
6.84126e-10 1.89619e-10 -5.05756e-11
6.00413e-11 1.50368e-10 -6.51581e-11
-1.01004e-10 2.70199e-10 -8.95858e-11
-8.38252e-11 -1.31794e-11 -3.003e-11
5.15656e-11 -2.47326e-10 2.70965e-11
-1.11965e-11 1.96091e-10 -6.16762e-11
-4.39047e-11 1.40962e-10 3.91879e-11
-5.71635e-11 2.05835e-10 -9.23598e-11
-5.66461e-11 -7.15434e-11 -2.06397e-11
-2.30639e-11 1.2167e-10 -5.91972e-11
1.96332e-10 -1.3319e-10 4.56846e-13
-4.97922e-10 1.88577e-10 -9.27438e-11
2.07028e-11 1.01181e-10 -6.23574e-11
1.20204e-10 -4.84635e-11 3.67238e-11
-4.11152e-13 -5.62961e-11 1.66203e-11
-5.10967e-12 -2.28463e-11 7.40631e-12
-3.36731e-11 -1.68838e-10 4.14732e-11
-1.68555e-11 7.39699e-11 -3.83427e-11
-1.31387e-10 1.54644e-10 -4.20898e-11
1.16712e-10 -7.64779e-11 3.24615e-11
9.98817e-12 -8.79126e-12 6.18224e-12
-1.11272e-11 -1.27232e-10 3.53395e-11
-3.94382e-11 -2.94873e-11 7.50454e-11
-4.31777e-11 -7.17621e-11 5.27847e-11
5.42538e-11 1.29383e-10 -2.53108e-10
-1.13626e-10 9.35002e-11 -2.78337e-11
1.07266e-11 -1.46896e-11 1.78945e-11
6.98847e-12 9.50617e-12 -2.16241e-12
-2.2984e-10 1.35273e-10 -5.39199e-11
1.49192e-11 3.98802e-11 -4.77862e-11
-1.06561e-10 3.49235e-11 -1.05669e-11
2.9933e-11 1.8273e-10 -8.94245e-11
-4.8853e-11 2.89456e-10 -1.06328e-10
-6.14746e-11 8.26149e-11 -4.70851e-11
6.58533e-11 6.4428e-11 -4.59264e-11
1.52524e-10 1.25975e-10 -2.84738e-11
9.41074e-11 -3.83582e-12 8.6099e-12
5.48557e-11 1.91267e-10 -4.37845e-10
1.34067e-11 -2.7644e-10 -6.88739e-11
-1.68262e-10 9.21762e-11 -8.82728e-11
-1.02304e-10 5.32565e-10 -1.98867e-10
-1.67568e-12 -5.66311e-12 2.15382e-12
-5.99059e-12 -1.10257e-10 3.28958e-11
7.03575e-11 1.01242e-10 -4.49675e-11
6.51469e-12 3.14908e-11 -1.35661e-11
2.62794e-12 -2.93404e-12 -9.50099e-13
-4.97666e-10 -2.33622e-10 5.30439e-11
-6.07547e-14 -4.64786e-12 -1.68392e-12
-2.25629e-11 -1.26765e-10 3.99762e-10
1.06276e-10 1.04364e-10 -2.58988e-11
-8.26549e-10 1.83708e-10 -5.43485e-11
1.12648e-10 -1.06616e-10 4.56553e-10
-2.59087e-11 7.35783e-11 -8.66672e-11
-3.32101e-13 2.33177e-12 4.47906e-12
-7.61023e-11 1.18842e-10 -3.9342e-11
-2.31938e-10 4.11561e-10 -1.4123e-10
-2.25237e-11 4.16639e-11 5.53566e-11
-6.23973e-10 1.51077e-10 -8.33036e-11
-4.52212e-10 2.33951e-10 -9.93438e-11
-1.22028e-10 3.25912e-11 1.02827e-11
1.7219e-11 2.83984e-10 -9.64823e-11
3.44924e-11 7.64798e-12 -3.86142e-12
-5.37416e-11 4.09734e-11 -3.15302e-10
-3.20081e-11 1.71671e-10 -6.18222e-11
-2.80175e-12 8.23093e-12 -3.45204e-12
-4.60042e-12 -5.05879e-11 -9.95346e-13
-8.74786e-11 6.21974e-11 -3.9358e-11
8.89027e-11 3.31956e-11 -3.25957e-12
8.90486e-11 1.52373e-10 -1.64332e-11
1.73714e-10 2.17085e-10 -6.73078e-11
-5.33365e-11 -5.36025e-10 1.75721e-10
2.15271e-10 8.26436e-11 -2.47868e-11
6.82546e-11 1.88732e-10 1.5643e-10
-1.77155e-10 7.18206e-11 -2.58718e-12
1.16594e-10 1.88202e-10 -7.13803e-11
2.32686e-11 2.83627e-11 -5.30709e-12
2.56759e-10 -1.72153e-10 7.26496e-11
-4.51077e-12 1.85509e-10 -6.5097e-11
-3.41398e-13 -4.83444e-11 1.32513e-11
-5.17976e-12 -1.33007e-11 4.93458e-12
-1.9349e-12 -9.53476e-12 4.86445e-12
-2.51898e-10 1.6339e-10 -1.20977e-10
-2.99045e-12 -1.58005e-11 7.01422e-12
1.34875e-11 9.79228e-12 -3.30047e-12
-1.32277e-11 -2.71181e-10 7.83794e-11
-4.33197e-11 -1.6162e-10 -8.90294e-11
3.51765e-10 -4.41156e-11 3.09313e-11
-1.71527e-12 -1.55448e-10 -5.94808e-11
-1.63079e-10 5.31148e-11 -3.56103e-11
1.25512e-10 -2.91339e-11 4.52806e-11
-2.88793e-10 9.80162e-11 -4.14316e-11
1.24727e-10 -1.58417e-10 -1.74201e-11
-6.37697e-11 -1.45293e-10 3.94421e-11
8.92767e-11 1.79099e-10 -1.73566e-10
3.49996e-13 -2.80911e-11 2.3433e-11
6.96529e-11 1.21061e-10 3.25367e-12
1.11336e-10 3.62508e-11 -2.3451e-12
5.50034e-11 1.10882e-10 -3.1764e-11
-2.87512e-11 1.23577e-10 -1.93424e-11
-1.60376e-12 -1.05668e-10 -1.03944e-11
