# vtk DataFile Version 3.0
LIGGGHTS particles timestep 60400000
ASCII
DATASET POLYDATA
POINTS 283 float
0.289622 0.0164469 0.00777814
0.289944 0.0177155 0.00714885
0.290013 0.0181854 0.00695983
0.289994 0.0180873 0.00695573
0.289349 0.0156877 0.00879547
0.295671 0.0167418 0.00779379
0.289613 0.0160672 0.00803452
0.289331 0.0156592 0.00888963
0.295905 0.0176494 0.00709371
0.290304 0.0182915 0.00695938
0.289799 0.0168116 0.00756503
0.295865 0.0174564 0.00712257
0.290302 0.017841 0.00699081
0.283304 0.0154742 0.00885032
0.290319 0.0179284 0.00694441
0.283541 0.0162508 0.00811505
0.29602 0.0182155 0.00693775
0.289938 0.0178043 0.0070063
0.290017 0.0173472 0.00725101
0.289369 0.0157158 0.00870159
0.290051 0.0183815 0.00696813
0.29583 0.0173063 0.00725006
0.290169 0.0176366 0.00709842
0.295778 0.0170916 0.00745295
0.283552 0.0159934 0.0083632
0.289899 0.0176309 0.00709834
0.295649 0.0166718 0.00786193
0.290131 0.018321 0.0069639
0.290263 0.0176671 0.00708318
0.295693 0.0168117 0.00772564
0.289973 0.0179064 0.00705744
0.290341 0.0180297 0.00694669
0.295966 0.0179289 0.00700769
0.289631 0.0161502 0.00798162
0.290206 0.0178105 0.00700604
0.289461 0.0158453 0.00835169
0.28996 0.0174909 0.00717373
0.290092 0.0172959 0.00729302
0.290112 0.018223 0.00695975
0.289997 0.0176644 0.00708159
0.295714 0.0168816 0.0076575
0.295796 0.0171621 0.00738454
0.289407 0.0157722 0.00851397
0.289998 0.0172611 0.00729826
0.295757 0.0170215 0.00752121
0.290111 0.0177816 0.00702035
0.284075 0.0185014 0.00697898
0.284113 0.0177406 0.00703434
0.290285 0.0181935 0.00695523
0.295736 0.0169516 0.00758936
0.283762 0.0166559 0.00775709
0.295848 0.0173808 0.00718587
0.290097 0.0179756 0.00703472
0.289385 0.01575 0.00860911
0.289874 0.0167627 0.00761272
0.290053 0.0179278 0.00694728
0.295812 0.0172332 0.00731603
0.289674 0.0163156 0.00787752
0.284285 0.0181559 0.00697355
0.29036 0.0181278 0.00695084
0.283819 0.0165454 0.00787082
0.289956 0.0170959 0.00740228
0.296076 0.0180568 0.00697921
0.283693 0.0167587 0.00766224
0.295884 0.0175517 0.0070994
0.289465 0.0157892 0.00843438
0.289745 0.0169436 0.00746472
0.289905 0.0175403 0.00724125
0.296001 0.0181202 0.00696095
0.290091 0.0185773 0.00697638
0.283386 0.0156751 0.00864533
0.283574 0.0160656 0.00829702
0.289979 0.0175776 0.00712768
0.284326 0.0183515 0.00698378
0.283916 0.0167685 0.00767032
0.28339 0.0157527 0.00858243
0.295942 0.0178346 0.00703051
0.283734 0.0165772 0.00782872
0.290093 0.0181249 0.00695561
0.295923 0.0177392 0.00705372
0.289894 0.0168455 0.00756054
0.290093 0.0176937 0.00706707
0.289819 0.0168977 0.00751818
0.289695 0.0163983 0.00782556
0.290053 0.0171302 0.00739808
0.290055 0.0175204 0.00715942
0.289879 0.0171453 0.00735718
0.290171 0.0180631 0.00695134
0.290111 0.0173787 0.00724046
0.289941 0.0174073 0.0072253
0.283926 0.0169128 0.00753354
0.290079 0.0178827 0.00706711
0.284209 0.0177693 0.00702145
0.29013 0.0178689 0.00697402
0.290225 0.0174961 0.00718291
0.283869 0.0166966 0.00773272
0.284134 0.0178344 0.00700685
0.289738 0.0165636 0.00772165
0.283325 0.0155372 0.00877568
0.290225 0.0178972 0.00696
0.289975 0.0179892 0.00695497
0.290071 0.0184795 0.00697228
0.289535 0.0161172 0.00798541
0.283598 0.016139 0.00822992
0.290229 0.0183572 0.00696377
0.283783 0.0167279 0.0076911
0.289918 0.0177177 0.00705228
0.289962 0.0178025 0.00710319
0.289778 0.0167324 0.00762243
0.284305 0.0182537 0.00697866
0.295628 0.0166019 0.00793008
0.290131 0.0174637 0.00719146
0.290011 0.0169633 0.00750321
0.289786 0.0171217 0.00738488
0.284275 0.0185146 0.00698852
0.290264 0.0182538 0.00704303
0.290266 0.0180954 0.00695108
0.289853 0.01668 0.00766498
0.283433 0.0158913 0.00844507
0.290324 0.0183897 0.00696375
0.28353 0.0159211 0.00842941
0.289518 0.0160358 0.00804107
0.284153 0.018439 0.0069798
0.289843 0.0173708 0.00723649
0.289978 0.0171811 0.00735512
0.290074 0.017607 0.00711313
0.289841 0.01698 0.00746587
0.284017 0.0182076 0.00696372
0.289686 0.016695 0.00762202
0.289903 0.0172311 0.00731168
0.289915 0.0169282 0.00750843
0.290248 0.0184552 0.00696794
0.284229 0.0178631 0.00698606
0.289454 0.015852 0.00825214
0.29015 0.01755 0.00714464
0.290035 0.0174369 0.00721086
0.289725 0.0168608 0.00751712
0.283347 0.0156059 0.00870631
0.290002 0.018004 0.00704994
0.290029 0.0170477 0.00744948
0.289717 0.0164809 0.00777359
0.283978 0.0171295 0.00733295
0.29038 0.0182259 0.006955
0.283498 0.0161069 0.00824696
0.283619 0.016211 0.00816383
0.284188 0.0183757 0.00704919
0.290073 0.0180268 0.00695168
0.284247 0.0179598 0.0069634
0.290073 0.017213 0.00734557
0.284064 0.0174638 0.00713855
0.289862 0.0170656 0.00741842
0.284266 0.0180579 0.00696846
0.289823 0.0172841 0.0072825
0.284036 0.0183056 0.00696879
0.289937 0.0170112 0.00745619
0.283712 0.0165053 0.00789454
0.290187 0.0177238 0.00705208
0.284017 0.0179505 0.00705525
0.283706 0.0168441 0.00771271
0.290145 0.0181043 0.0070385
0.283979 0.0180124 0.00697333
0.290035 0.0178379 0.00698946
0.284036 0.0173749 0.00717437
0.283862 0.0174532 0.00714718
0.28352 0.0161802 0.00818258
0.28413 0.0183379 0.00697442
0.284 0.0172048 0.00727086
0.283828 0.0167955 0.00763233
0.290176 0.0185245 0.00697241
0.284251 0.0184177 0.00698327
0.290064 0.0182367 0.00704651
0.28421 0.0182218 0.006973
0.290152 0.0179649 0.00695186
0.283737 0.0168198 0.0075967
0.283863 0.0170633 0.00738055
0.295981 0.018025 0.00698415
0.289643 0.0165296 0.00772618
0.2896 0.0163642 0.00783009
0.283585 0.0163947 0.00798319
0.289862 0.0174574 0.00719048
0.283918 0.0172991 0.00720327
0.29021 0.0179632 0.00703352
0.289492 0.0159585 0.00809874
0.283939 0.0178204 0.00700863
0.283943 0.0169854 0.0074669
0.289759 0.0166463 0.00766947
0.284055 0.0184036 0.00697386
0.284029 0.0180498 0.00705162
0.283455 0.015963 0.00837891
0.283896 0.0172094 0.00724522
0.284105 0.0179056 0.00707096
0.290283 0.0177543 0.00703687
0.28392 0.0177286 0.00704327
0.283672 0.0166951 0.00773658
0.284019 0.0172843 0.00721317
0.283841 0.0166174 0.00780481
0.284179 0.0185415 0.00698535
0.283476 0.016035 0.00831292
0.290045 0.0180939 0.00704131
0.289665 0.0166126 0.00767477
0.29606 0.0184075 0.00689824
0.289766 0.0170295 0.00741767
0.28369 0.0164334 0.00796053
0.289705 0.0167778 0.0075696
0.289652 0.0162329 0.00792953
0.289557 0.0162049 0.00794248
0.290399 0.0183238 0.00696167
0.283563 0.0163228 0.00804908
0.290246 0.0179974 0.00694705
0.283647 0.0162895 0.00809245
0.283411 0.0158191 0.00851083
0.29604 0.0183108 0.00691456
0.283843 0.0173626 0.00718469
0.284094 0.0176488 0.00706897
0.283831 0.0168852 0.00754685
0.283996 0.0176666 0.00706462
0.283999 0.0178392 0.00708689
0.283628 0.0165386 0.00785118
0.283963 0.0170585 0.00740154
0.289922 0.0173178 0.00726564
0.290017 0.0177517 0.00703694
0.283868 0.0172243 0.00735806
0.283733 0.016903 0.00754141
0.283853 0.0173915 0.00727988
0.283848 0.0169586 0.00747882
0.277683 0.0166404 0.00749117
0.283766 0.0170565 0.00749312
0.283768 0.017034 0.00739571
0.277663 0.0165625 0.00755074
0.277704 0.0167303 0.0074525
0.283722 0.0169112 0.00764051
0.277743 0.0169103 0.00737503
0.290245 0.0175797 0.00712998
0.289881 0.0175442 0.00714441
0.283651 0.0166105 0.00778537
0.28947 0.0158808 0.00815776
0.215741 0.019982 0.00563384
0.277724 0.0168203 0.00741377
0.284111 0.0182399 0.00696935
0.284081 0.0175571 0.00710652
0.283669 0.0163614 0.00802656
0.284035 0.0178518 0.00699473
0.283937 0.017391 0.00716856
0.283977 0.0175747 0.00709926
0.284092 0.0181418 0.00696427
0.29019 0.0181611 0.00695548
0.283795 0.0171727 0.00740299
0.283901 0.0176367 0.00707791
0.277783 0.0170904 0.00729755
0.283824 0.0172766 0.00723217
0.283607 0.0164667 0.00791717
0.289578 0.0162816 0.00788205
0.28423 0.0183196 0.00697811
0.283998 0.0181095 0.00695864
0.2844 0.0182847 0.00698425
0.284155 0.0179304 0.00698771
0.283893 0.0173019 0.00730003
0.283959 0.017915 0.00698259
0.284015 0.0177587 0.00702987
0.28412 0.0180088 0.00704689
0.284073 0.0180438 0.00695919
0.283805 0.0171948 0.00728642
0.289925 0.0176286 0.00719491
0.404182 0.0211142 0.0056569
0.277822 0.0172705 0.00722007
0.284097 0.0185989 0.00698415
0.277803 0.0171805 0.00725881
0.277763 0.0170004 0.00733629
0.28388 0.0171356 0.00731375
0.283749 0.0169618 0.00746221
0.284053 0.0179458 0.00695932
0.290209 0.0182592 0.00695963
0.283957 0.017483 0.00713388
0.284171 0.0180258 0.00696283
0.283881 0.017545 0.00711253
0.284032 0.0181495 0.0070437
0.29015 0.0184191 0.00696805
0.283785 0.0171063 0.00732881
0.283911 0.0168403 0.00760088
0.289806 0.0172138 0.00735156
0.289955 0.0178912 0.00696014
0.284191 0.0181238 0.00696792
0.290032 0.0182834 0.00696398

VERTICES 283 566
1 0
1 1
1 2
1 3
1 4
1 5
1 6
1 7
1 8
1 9
1 10
1 11
1 12
1 13
1 14
1 15
1 16
1 17
1 18
1 19
1 20
1 21
1 22
1 23
1 24
1 25
1 26
1 27
1 28
1 29
1 30
1 31
1 32
1 33
1 34
1 35
1 36
1 37
1 38
1 39
1 40
1 41
1 42
1 43
1 44
1 45
1 46
1 47
1 48
1 49
1 50
1 51
1 52
1 53
1 54
1 55
1 56
1 57
1 58
1 59
1 60
1 61
1 62
1 63
1 64
1 65
1 66
1 67
1 68
1 69
1 70
1 71
1 72
1 73
1 74
1 75
1 76
1 77
1 78
1 79
1 80
1 81
1 82
1 83
1 84
1 85
1 86
1 87
1 88
1 89
1 90
1 91
1 92
1 93
1 94
1 95
1 96
1 97
1 98
1 99
1 100
1 101
1 102
1 103
1 104
1 105
1 106
1 107
1 108
1 109
1 110
1 111
1 112
1 113
1 114
1 115
1 116
1 117
1 118
1 119
1 120
1 121
1 122
1 123
1 124
1 125
1 126
1 127
1 128
1 129
1 130
1 131
1 132
1 133
1 134
1 135
1 136
1 137
1 138
1 139
1 140
1 141
1 142
1 143
1 144
1 145
1 146
1 147
1 148
1 149
1 150
1 151
1 152
1 153
1 154
1 155
1 156
1 157
1 158
1 159
1 160
1 161
1 162
1 163
1 164
1 165
1 166
1 167
1 168
1 169
1 170
1 171
1 172
1 173
1 174
1 175
1 176
1 177
1 178
1 179
1 180
1 181
1 182
1 183
1 184
1 185
1 186
1 187
1 188
1 189
1 190
1 191
1 192
1 193
1 194
1 195
1 196
1 197
1 198
1 199
1 200
1 201
1 202
1 203
1 204
1 205
1 206
1 207
1 208
1 209
1 210
1 211
1 212
1 213
1 214
1 215
1 216
1 217
1 218
1 219
1 220
1 221
1 222
1 223
1 224
1 225
1 226
1 227
1 228
1 229
1 230
1 231
1 232
1 233
1 234
1 235
1 236
1 237
1 238
1 239
1 240
1 241
1 242
1 243
1 244
1 245
1 246
1 247
1 248
1 249
1 250
1 251
1 252
1 253
1 254
1 255
1 256
1 257
1 258
1 259
1 260
1 261
1 262
1 263
1 264
1 265
1 266
1 267
1 268
1 269
1 270
1 271
1 272
1 273
1 274
1 275
1 276
1 277
1 278
1 279
1 280
1 281
1 282

POINT_DATA 283
SCALARS id int 1
LOOKUP_TABLE default
1
2
3
4
5
6
7
8
9
10
11
12
13
14
15
16
18
19
20
21
22
24
25
26
27
29
30
31
32
33
34
35
36
37
38
40
41
42
43
44
45
46
47
48
49
50
52
55
56
57
58
59
60
61
62
63
64
65
66
67
68
69
70
71
72
73
74
75
76
77
78
79
80
81
82
83
84
85
86
87
88
89
90
91
92
93
94
95
96
98
99
100
101
102
103
104
105
106
107
108
109
110
111
112
113
114
115
116
117
118
119
120
121
122
123
124
125
126
127
128
129
130
131
132
133
134
135
136
137
138
139
140
141
142
144
145
146
147
148
149
150
152
153
154
155
156
157
158
159
160
161
162
164
165
166
167
168
169
170
171
172
173
174
175
176
177
178
179
180
181
182
183
184
185
186
187
188
189
190
191
192
193
194
195
196
197
198
199
200
201
202
203
204
205
206
207
208
209
210
211
213
214
215
217
218
219
220
221
222
223
224
225
226
227
228
229
230
231
232
233
234
235
236
237
238
239
241
242
243
244
245
246
247
248
249
250
251
252
253
254
255
256
257
258
259
260
261
262
263
264
265
267
268
269
270
271
272
273
274
275
276
277
278
279
280
281
282
283
284
285
286
287
288
289
290
292
293
294
295
296
297
298
300

SCALARS type int 1
LOOKUP_TABLE default
1
1
1
1
1
1
1
1
1
1
1
1
1
1
1
1
1
1
1
1
1
1
1
1
1
1
1
1
1
1
1
1
1
1
1
1
1
1
1
1
1
1
1
1
1
1
1
1
1
1
1
1
1
1
1
1
1
1
1
1
1
1
1
1
1
1
1
1
1
1
1
1
1
1
1
1
1
1
1
1
1
1
1
1
1
1
1
1
1
1
1
1
1
1
1
1
1
1
1
1
1
1
1
1
1
1
1
1
1
1
1
1
1
1
1
1
1
1
1
1
1
1
1
1
1
1
1
1
1
1
1
1
1
1
1
1
1
1
1
1
1
1
1
1
1
1
1
1
1
1
1
1
1
1
1
1
1
1
1
1
1
1
1
1
1
1
1
1
1
1
1
1
1
1
1
1
1
1
1
1
1
1
1
1
1
1
1
1
1
1
1
1
1
1
1
1
1
1
1
1
1
1
1
1
1
1
1
1
1
1
1
1
1
1
1
1
1
1
1
1
1
1
1
1
1
1
1
1
1
1
1
1
1
1
1
1
1
1
1
1
1
1
1
1
1
1
1
1
1
1
1
1
1
1
1
1
1
1
1
1
1
1
1
1
1
1
1
1
1
1
1
1
1
1
1
1
1
1
1
1
1
1
1

SCALARS radius float 1
LOOKUP_TABLE default
5e-05
5e-05
5e-05
5e-05
5e-05
5e-05
5e-05
5e-05
5e-05
5e-05
5e-05
5e-05
5e-05
5e-05
5e-05
5e-05
5e-05
5e-05
5e-05
5e-05
5e-05
5e-05
5e-05
5e-05
5e-05
5e-05
5e-05
5e-05
5e-05
5e-05
5e-05
5e-05
5e-05
5e-05
5e-05
5e-05
5e-05
5e-05
5e-05
5e-05
5e-05
5e-05
5e-05
5e-05
5e-05
5e-05
5e-05
5e-05
5e-05
5e-05
5e-05
5e-05
5e-05
5e-05
5e-05
5e-05
5e-05
5e-05
5e-05
5e-05
5e-05
5e-05
5e-05
5e-05
5e-05
5e-05
5e-05
5e-05
5e-05
5e-05
5e-05
5e-05
5e-05
5e-05
5e-05
5e-05
5e-05
5e-05
5e-05
5e-05
5e-05
5e-05
5e-05
5e-05
5e-05
5e-05
5e-05
5e-05
5e-05
5e-05
5e-05
5e-05
5e-05
5e-05
5e-05
5e-05
5e-05
5e-05
5e-05
5e-05
5e-05
5e-05
5e-05
5e-05
5e-05
5e-05
5e-05
5e-05
5e-05
5e-05
5e-05
5e-05
5e-05
5e-05
5e-05
5e-05
5e-05
5e-05
5e-05
5e-05
5e-05
5e-05
5e-05
5e-05
5e-05
5e-05
5e-05
5e-05
5e-05
5e-05
5e-05
5e-05
5e-05
5e-05
5e-05
5e-05
5e-05
5e-05
5e-05
5e-05
5e-05
5e-05
5e-05
5e-05
5e-05
5e-05
5e-05
5e-05
5e-05
5e-05
5e-05
5e-05
5e-05
5e-05
5e-05
5e-05
5e-05
5e-05
5e-05
5e-05
5e-05
5e-05
5e-05
5e-05
5e-05
5e-05
5e-05
5e-05
5e-05
5e-05
5e-05
5e-05
5e-05
5e-05
5e-05
5e-05
5e-05
5e-05
5e-05
5e-05
5e-05
5e-05
5e-05
5e-05
5e-05
5e-05
5e-05
5e-05
5e-05
5e-05
5e-05
5e-05
5e-05
5e-05
5e-05
5e-05
5e-05
5e-05
5e-05
5e-05
5e-05
5e-05
5e-05
5e-05
5e-05
5e-05
5e-05
5e-05
5e-05
5e-05
5e-05
5e-05
5e-05
5e-05
5e-05
5e-05
5e-05
5e-05
5e-05
5e-05
5e-05
5e-05
5e-05
5e-05
5e-05
5e-05
5e-05
5e-05
5e-05
5e-05
5e-05
5e-05
5e-05
5e-05
5e-05
5e-05
5e-05
5e-05
5e-05
5e-05
5e-05
5e-05
5e-05
5e-05
5e-05
5e-05
5e-05
5e-05
5e-05
5e-05
5e-05
5e-05
5e-05
5e-05
5e-05
5e-05
5e-05
5e-05
5e-05
5e-05
5e-05
5e-05
5e-05
5e-05
5e-05
5e-05
5e-05
5e-05
5e-05
5e-05
5e-05
5e-05
5e-05
5e-05
5e-05
5e-05
5e-05
5e-05
5e-05
5e-05
5e-05
5e-05
5e-05

SCALARS mass float 1
LOOKUP_TABLE default
1.46608e-10
1.46608e-10
1.46608e-10
1.46608e-10
1.46608e-10
1.46608e-10
1.46608e-10
1.46608e-10
1.46608e-10
1.46608e-10
1.46608e-10
1.46608e-10
1.46608e-10
1.46608e-10
1.46608e-10
1.46608e-10
1.46608e-10
1.46608e-10
1.46608e-10
1.46608e-10
1.46608e-10
1.46608e-10
1.46608e-10
1.46608e-10
1.46608e-10
1.46608e-10
1.46608e-10
1.46608e-10
1.46608e-10
1.46608e-10
1.46608e-10
1.46608e-10
1.46608e-10
1.46608e-10
1.46608e-10
1.46608e-10
1.46608e-10
1.46608e-10
1.46608e-10
1.46608e-10
1.46608e-10
1.46608e-10
1.46608e-10
1.46608e-10
1.46608e-10
1.46608e-10
1.46608e-10
1.46608e-10
1.46608e-10
1.46608e-10
1.46608e-10
1.46608e-10
1.46608e-10
1.46608e-10
1.46608e-10
1.46608e-10
1.46608e-10
1.46608e-10
1.46608e-10
1.46608e-10
1.46608e-10
1.46608e-10
1.46608e-10
1.46608e-10
1.46608e-10
1.46608e-10
1.46608e-10
1.46608e-10
1.46608e-10
1.46608e-10
1.46608e-10
1.46608e-10
1.46608e-10
1.46608e-10
1.46608e-10
1.46608e-10
1.46608e-10
1.46608e-10
1.46608e-10
1.46608e-10
1.46608e-10
1.46608e-10
1.46608e-10
1.46608e-10
1.46608e-10
1.46608e-10
1.46608e-10
1.46608e-10
1.46608e-10
1.46608e-10
1.46608e-10
1.46608e-10
1.46608e-10
1.46608e-10
1.46608e-10
1.46608e-10
1.46608e-10
1.46608e-10
1.46608e-10
1.46608e-10
1.46608e-10
1.46608e-10
1.46608e-10
1.46608e-10
1.46608e-10
1.46608e-10
1.46608e-10
1.46608e-10
1.46608e-10
1.46608e-10
1.46608e-10
1.46608e-10
1.46608e-10
1.46608e-10
1.46608e-10
1.46608e-10
1.46608e-10
1.46608e-10
1.46608e-10
1.46608e-10
1.46608e-10
1.46608e-10
1.46608e-10
1.46608e-10
1.46608e-10
1.46608e-10
1.46608e-10
1.46608e-10
1.46608e-10
1.46608e-10
1.46608e-10
1.46608e-10
1.46608e-10
1.46608e-10
1.46608e-10
1.46608e-10
1.46608e-10
1.46608e-10
1.46608e-10
1.46608e-10
1.46608e-10
1.46608e-10
1.46608e-10
1.46608e-10
1.46608e-10
1.46608e-10
1.46608e-10
1.46608e-10
1.46608e-10
1.46608e-10
1.46608e-10
1.46608e-10
1.46608e-10
1.46608e-10
1.46608e-10
1.46608e-10
1.46608e-10
1.46608e-10
1.46608e-10
1.46608e-10
1.46608e-10
1.46608e-10
1.46608e-10
1.46608e-10
1.46608e-10
1.46608e-10
1.46608e-10
1.46608e-10
1.46608e-10
1.46608e-10
1.46608e-10
1.46608e-10
1.46608e-10
1.46608e-10
1.46608e-10
1.46608e-10
1.46608e-10
1.46608e-10
1.46608e-10
1.46608e-10
1.46608e-10
1.46608e-10
1.46608e-10
1.46608e-10
1.46608e-10
1.46608e-10
1.46608e-10
1.46608e-10
1.46608e-10
1.46608e-10
1.46608e-10
1.46608e-10
1.46608e-10
1.46608e-10
1.46608e-10
1.46608e-10
1.46608e-10
1.46608e-10
1.46608e-10
1.46608e-10
1.46608e-10
1.46608e-10
1.46608e-10
1.46608e-10
1.46608e-10
1.46608e-10
1.46608e-10
1.46608e-10
1.46608e-10
1.46608e-10
1.46608e-10
1.46608e-10
1.46608e-10
1.46608e-10
1.46608e-10
1.46608e-10
1.46608e-10
1.46608e-10
1.46608e-10
1.46608e-10
1.46608e-10
1.46608e-10
1.46608e-10
1.46608e-10
1.46608e-10
1.46608e-10
1.46608e-10
1.46608e-10
1.46608e-10
1.46608e-10
1.46608e-10
1.46608e-10
1.46608e-10
1.46608e-10
1.46608e-10
1.46608e-10
1.46608e-10
1.46608e-10
1.46608e-10
1.46608e-10
1.46608e-10
1.46608e-10
1.46608e-10
1.46608e-10
1.46608e-10
1.46608e-10
1.46608e-10
1.46608e-10
1.46608e-10
1.46608e-10
1.46608e-10
1.46608e-10
1.46608e-10
1.46608e-10
1.46608e-10
1.46608e-10
1.46608e-10
1.46608e-10
1.46608e-10
1.46608e-10
1.46608e-10
1.46608e-10
1.46608e-10
1.46608e-10
1.46608e-10
1.46608e-10
1.46608e-10
1.46608e-10
1.46608e-10
1.46608e-10
1.46608e-10
1.46608e-10
1.46608e-10
1.46608e-10
1.46608e-10
1.46608e-10
1.46608e-10
1.46608e-10
1.46608e-10
1.46608e-10
1.46608e-10
1.46608e-10
1.46608e-10

VECTORS velocity float
0.00487911 0.000598083 0.000545505
0.00438717 9.03698e-05 -2.28404e-05
0.00449874 0.000132998 -7.82469e-05
0.0044993 0.000131483 -7.40493e-05
0.00457419 -0.000419272 -0.00101166
0.00467655 -8.66736e-05 -0.000338918
0.00487094 0.000490145 0.000631187
0.00451956 -0.000391844 -0.00106436
0.00443619 0.000314334 6.65082e-05
0.00452729 4.46294e-05 -8.90875e-05
0.00449691 0.000592975 0.000469429
0.00456791 0.000289493 7.37146e-05
0.00448434 3.21626e-05 3.51187e-05
0.00455479 -0.000140065 0.000261706
0.00445612 7.9908e-05 1.9524e-06
0.00464222 0.000128151 0.000513209
0.00451189 0.0002914 7.02296e-05
0.00441745 0.000103879 -1.41e-05
0.00440239 4.14624e-05 3.91808e-05
0.00460093 -0.000453499 -0.000929579
0.00443468 0.000126649 -7.39704e-05
0.0044021 6.63436e-05 -0.000235383
0.00442554 8.12861e-05 0.000198249
0.00463733 -8.32657e-05 -0.000339734
0.00461451 0.00011246 0.000524318
0.00439234 0.00011298 -1.73032e-05
0.00465539 -8.80508e-05 -0.000336491
0.00444786 0.000111743 -7.40153e-05
0.00446497 3.27465e-05 3.11536e-05
0.00468902 -8.90142e-05 -0.000337185
0.00450079 0.000113238 -2.65545e-05
0.00444731 9.7734e-05 -7.45599e-05
0.00447156 0.000302636 6.77765e-05
0.00484009 0.000484349 0.000620114
0.00446191 3.6043e-05 3.38806e-05
0.00499955 -0.000564788 -0.000590931
0.00437819 0.000149316 -1.1536e-05
0.00426059 0.000525993 0.000473954
0.00445074 0.000105559 -7.65617e-05
0.0044184 0.000101565 -1.49663e-05
0.00469708 -9.51964e-05 -0.000332818
0.00447357 -5.28616e-05 -0.000354018
0.00475563 -0.000542989 -0.00075637
0.00475054 0.000328802 0.00036689
0.00472451 -0.000101844 -0.000329703
0.00444597 5.52187e-05 1.75572e-05
0.00470477 -0.0001874 0.000202296
0.00440783 -0.000171532 -4.15879e-05
0.00449808 4.88111e-05 -8.02008e-05
0.00472115 -0.000102476 -0.000329095
0.00466415 0.000126377 0.000517371
0.0045183 0.000217803 -2.57451e-05
0.00449089 0.000121422 -4.8158e-05
0.00463826 -0.000489532 -0.00084629
0.00465137 0.000807132 0.000348762
0.00427582 7.48134e-05 -1.00062e-05
0.00437366 -2.69458e-05 -0.000348567
0.00494076 0.000500975 0.000626749
0.00450433 -0.000128823 0.000196848
0.00449681 -0.000136728 -9.10528e-05
0.00467552 0.00014066 0.000505604
0.00441196 0.000825905 0.00031862
0.00450313 0.000289952 7.16355e-05
0.00467151 0.000117927 0.000524402
0.00452254 0.000298542 7.03457e-05
0.00487524 -0.000595907 -0.000624967
0.00456947 0.000405614 0.000625793
0.0043635 0.000128821 -6.56685e-06
0.00450914 0.000298234 6.89771e-05
0.00475821 8.18847e-05 -7.77723e-05
0.00459034 0.000122153 0.000513436
0.00462628 0.000120363 0.0005185
0.00437661 0.000114384 6.36582e-06
0.00470489 -0.000176253 0.000204041
0.00466196 0.000148274 0.000496318
0.00459829 0.000120665 0.000514238
0.00446164 0.000303205 6.69141e-05
0.00466659 0.00013247 0.000512088
0.00444353 9.64329e-05 -8.25317e-05
0.00445158 0.000306997 6.56126e-05
0.00475805 0.000781831 0.000408901
0.00446256 6.6994e-05 2.49661e-05
0.00451673 0.000542602 0.00041255
0.0048509 0.000527567 0.000590818
0.00359582 0.000570647 0.000319594
0.00429679 0.000160159 7.98293e-05
0.0044355 0.000211929 -6.29154e-05
0.0044698 6.16623e-05 -0.000109408
0.00444271 0.000549982 0.000522451
0.00428804 0.000249165 6.82288e-05
0.00461493 0.00015422 0.00049845
0.00454444 0.00010365 -7.5347e-05
0.00440605 -0.000208533 -2.26473e-05
0.00438212 0.000211222 -6.30026e-05
0.00412766 0.000140248 0.000743397
0.00522275 0.000821248 -7.13901e-05
0.00443046 -0.000162786 9.65053e-06
0.0048902 0.000563527 0.000562829
0.00457188 -1.11157e-05 0.000388823
0.00448136 4.27403e-05 3.7848e-05
0.00445875 0.000125603 -3.42913e-05
0.00440003 0.000124678 -7.33131e-05
0.004897 0.000513144 0.000616661
0.00462874 0.00012221 0.00051699
0.00459039 9.4165e-05 -7.7785e-05
0.0046748 0.000124191 0.000520284
0.00440046 8.85203e-05 -9.64394e-06
0.004437 0.000116616 -3.21789e-05
0.00450518 0.000606275 0.000490852
0.00461889 -0.000155447 0.000200874
0.00465196 -8.56169e-05 -0.000338299
0.00422275 -0.000879843 -0.00165999
0.00449727 0.000698686 0.000407154
0.00453627 0.000122502 2.94201e-05
0.00471746 -0.000150436 0.00020624
0.00446836 2.43296e-07 -0.000112332
0.00446271 4.7761e-05 -8.25688e-05
0.00472001 0.000817957 0.000376427
0.00460639 0.000116723 0.000519384
0.00466749 -0.000104485 0.000165263
0.00461567 0.00012117 0.000515883
0.0049116 0.000265211 0.000323764
0.00472156 -0.000167838 0.000204859
0.00441347 0.000105971 -8.77245e-06
0.0035643 0.000734682 -0.00031777
0.00439357 7.19803e-05 -1.10049e-05
0.00454906 0.000433384 0.000257765
0.00439787 -0.000140339 0.000188114
0.00448919 0.000648179 0.00041767
0.00433486 0.000190289 -7.35726e-05
0.00465837 0.000753735 0.000404773
0.00477888 6.02286e-05 9.7725e-06
0.00443834 -0.000143709 -4.95304e-05
0.00493712 -0.000538543 -0.000596172
0.00435509 -6.66422e-05 -0.000105282
0.00428515 0.000305112 0.000279791
0.00449818 0.000282477 0.000679768
0.00457949 0.000121097 0.000518616
0.00450562 0.000167367 -5.20557e-05
0.00435875 0.000497787 0.00050935
0.00481963 0.000550117 0.000567898
0.00443261 0.000149512 0.000457333
0.00458816 -0.000166735 -6.67097e-05
0.00462808 0.000122763 0.00051639
0.00463592 0.000121225 0.000518862
0.00472257 -0.000129344 0.000238898
0.00448401 8.82328e-05 -6.68906e-05
0.00446395 -0.000119619 0.000197277
0.00373495 0.000544661 0.00036193
0.00441596 -0.000167527 -3.77255e-05
0.00453187 0.000349313 0.000221409
0.00445374 -0.000117291 0.000195112
0.00429608 0.000167026 -6.61369e-07
0.00437892 -0.000129974 0.00019059
0.00440784 0.000466255 0.000498492
0.00467424 0.000133477 0.000512256
0.00448181 4.64088e-05 4.52775e-05
0.00441567 -0.000132664 -6.77257e-05
0.00467738 0.000112566 0.000527722
0.00450159 8.9588e-05 -0.000116621
0.00441607 -0.000160747 6.81838e-05
0.00447174 8.93538e-05 -2.30151e-06
0.00438426 -0.00015551 -3.48765e-05
0.00436051 -0.000142219 -8.24799e-05
0.00463364 0.000125955 0.000514061
0.00437864 -0.000117903 0.000190939
0.0044111 5.78858e-05 0.000337306
0.00465522 0.000133265 0.000509539
0.00479135 0.000105604 -8.85001e-05
0.00472381 -0.000150051 0.000206176
0.0044705 0.000101376 -7.683e-05
0.00449604 -0.000126625 0.000196142
0.00446599 4.49967e-05 -5.18883e-05
0.00464991 0.000120739 0.000520743
0.0044477 0.000151348 0.000482199
0.00449122 0.000302532 6.82792e-05
0.00486604 0.000612449 0.000537763
0.00487643 0.000585964 0.000562908
0.0046525 0.000131603 0.00051119
0.0042982 0.000163188 -6.77021e-05
0.00451789 -7.89484e-05 -6.42128e-05
0.00448588 0.000130732 -3.97645e-05
0.00490385 -0.000279944 -0.000338865
0.00441038 -0.000155776 -4.36786e-05
0.00454368 0.00016834 0.000497695
0.00478857 0.000586294 0.000535188
0.00437047 -0.00012188 0.000191012
0.00439411 -0.000130295 6.46668e-05
0.00461292 0.000117741 0.000518943
0.00443289 -1.85784e-05 0.000644211
0.00434271 -0.000238413 4.47669e-05
0.00448571 5.56559e-05 1.82218e-05
0.00438664 -0.000145717 -4.68987e-05
0.00466513 0.000122456 0.000519856
0.00432808 -9.38732e-05 9.55369e-05
0.00467321 0.000138974 0.000506925
0.00471431 -0.000156887 0.000202805
0.00462053 0.000119422 0.000518332
0.00450626 0.000101345 -7.21127e-05
0.00489879 0.000587662 0.000456151
0.00453229 0.000197665 -0.000526895
0.00450474 5.25252e-05 9.10999e-06
0.00466024 0.000135533 0.000508445
0.00453731 0.000611014 0.000474628
0.00493899 0.000482534 0.000633099
0.00490288 0.00053763 0.000590119
0.00461738 -0.000183683 0.000149685
0.00465038 0.000130638 0.000511998
0.00445951 7.02975e-05 -6.49805e-05
0.00465952 0.0001375 0.000506487
0.00459987 0.000117538 0.000517928
0.00451938 0.0002868 8.19406e-05
0.00446886 -0.000128692 6.15418e-06
0.00441126 -0.000170186 -3.85531e-05
0.00459904 0.000190462 0.000448948
0.00435676 -0.000176914 -3.51673e-05
0.00441081 -0.00015914 -4.14972e-05
0.00466553 0.000127817 0.000516256
0.00446331 0.000176955 0.000489582
0.00447479 0.000131302 2.72295e-06
0.00446461 8.21416e-05 -1.01607e-05
0.00470572 0.00034257 0.000134291
0.00458263 0.000111939 0.000519757
0.00455346 0.000246036 -0.000123924
0.00453152 0.000207997 0.00042154
0.00475475 0.000580905 -0.000237705
0.00449718 0.000134335 0.000502843
0.00446402 0.000119889 0.000497881
0.00470459 0.000385226 -0.000510036
0.00476098 0.000579715 -0.000237154
0.00462325 0.000116869 0.00052345
0.00456181 0.000616744 -0.000253678
0.00430161 0.000178286 0.000735721
0.00435703 0.000160639 -3.15053e-05
0.00466392 0.000126317 0.000517489
0.00490153 -0.000569949 -0.000648467
6.7995e-15 2.29879e-14 -7.03256e-14
0.00454571 0.000619717 -0.00025497
0.00438617 -0.000119081 0.000190255
0.00441795 -0.000169639 -3.83321e-05
0.00465344 0.000136953 0.000506156
0.00440269 -0.000161137 -4.29815e-05
0.0043967 -9.9088e-05 -6.23654e-05
0.00430843 -0.000164257 -3.54239e-05
0.00441348 -0.000140391 0.000191547
0.00444039 8.10802e-05 -8.1872e-05
0.00459231 0.000421807 0.00019815
0.004335 -0.0001313 -5.09472e-05
0.00459399 0.000610832 -0.000251029
0.00449756 5.64924e-07 0.00026244
0.00465863 0.000130529 0.00051286
0.00489008 0.000566701 0.000577208
0.00462883 -0.000151058 0.00020101
0.00442094 -0.00014802 0.000188279
0.0046515 -0.000238142 0.000198694
0.00444792 -0.000139392 0.000132454
0.00476581 0.000119941 -8.76054e-07
0.00440954 -0.000164135 -4.36549e-05
0.00440625 -0.000161711 -4.09634e-05
0.00439763 -0.00013207 0.000168462
0.00443265 -0.000139814 0.000191935
0.00444275 0.00012842 0.000447832
0.00434839 0.000152264 -2.38628e-05
-1.29308e-14 6.08852e-14 -1.90219e-13
0.00462615 0.000604924 -0.000248393
0.00470423 -0.000188828 0.000204261
0.00461008 0.00060787 -0.00024974
0.00457789 0.000613823 -0.000252249
0.00443641 0.000141505 0.000471524
0.00451674 0.000112119 0.000510485
0.00440342 -0.000155482 -4.27868e-05
0.004443 9.68244e-05 -7.17517e-05
0.00426058 -0.000151642 -3.99372e-05
0.00443981 -0.000120581 0.000194131
0.00429522 -0.000119844 -5.43957e-05
0.00440588 -0.000126561 0.000185607
0.00437075 0.000119203 -7.35933e-05
0.00442973 0.000135718 0.000486631
0.00464844 0.000145417 0.000497109
0.00433086 0.000131579 -1.96804e-05
0.00446981 0.000105345 -7.14179e-06
0.00442415 -0.000115206 0.000193843
0.00446321 0.000133666 -7.28258e-05

VECTORS force float
1.83691e-11 3.9508e-10 -4.13338e-10
1.11162e-11 2.39299e-10 4.98876e-10
-1.67038e-10 2.08093e-10 -2.97872e-12
-1.19462e-10 6.1039e-11 -1.18001e-10
-2.17311e-10 -3.95553e-10 1.44038e-09
-2.11244e-10 4.46044e-11 -3.20023e-11
1.46881e-10 7.65425e-10 -7.64495e-10
-4.51511e-10 -3.2931e-10 1.23226e-09
-6.01071e-11 -1.14648e-11 1.13615e-11
2.40227e-10 -2.26432e-10 -9.75176e-11
4.73773e-11 -1.64612e-10 3.14812e-10
1.42071e-11 -1.57684e-12 4.05998e-14
-1.22939e-10 2.2691e-11 -1.73535e-11
-1.19616e-10 1.70311e-11 -1.23506e-10
-4.32208e-10 -2.2164e-10 1.36104e-10
6.88534e-12 3.59375e-11 -3.11718e-11
-4.17481e-11 -1.72577e-10 8.78121e-11
-9.05806e-11 -3.52665e-10 9.22985e-11
-7.29159e-10 6.69995e-10 -1.83073e-10
-5.18398e-10 -3.95746e-10 1.61608e-09
-1.50198e-11 1.87292e-10 1.30552e-11
-1.4279e-11 2.40147e-11 6.31319e-12
-8.15398e-11 -5.73226e-11 -2.3312e-10
4.80555e-11 -5.0154e-11 3.55821e-11
-3.76696e-11 -8.26826e-12 -2.41857e-12
-1.0387e-10 1.38999e-10 1.49988e-10
8.43607e-11 -3.62011e-11 2.68225e-11
4.74223e-11 7.92393e-11 6.25627e-11
3.86204e-10 -2.73679e-11 3.05332e-10
-2.9982e-12 5.46361e-11 -5.29843e-11
-1.39606e-10 -1.17206e-10 1.18615e-10
-2.24538e-10 2.53432e-10 1.75101e-11
9.86748e-13 3.33696e-11 -6.06644e-12
-6.02517e-11 8.76802e-10 -5.81644e-10
1.83614e-10 1.43944e-10 8.1712e-11
7.59536e-10 2.05384e-10 -1.56379e-10
-4.04348e-10 8.24266e-10 -8.4969e-10
-3.57836e-10 -1.00345e-10 3.5246e-10
2.11995e-11 5.62381e-11 -5.59339e-12
1.0999e-10 -2.69124e-10 3.89957e-10
6.61883e-11 1.65317e-12 -6.27719e-12
-4.25194e-11 -1.62144e-11 1.49758e-11
3.75906e-10 -3.21556e-10 1.06861e-09
2.71156e-09 -3.11771e-09 -4.58233e-11
1.04647e-10 -1.57546e-11 3.35681e-11
-7.87366e-11 5.13573e-10 -1.48181e-10
-3.9406e-11 -5.10081e-11 2.03268e-12
4.59598e-12 3.94907e-11 -3.67262e-11
1.02694e-11 -1.75523e-10 -6.12783e-11
-1.15075e-10 3.71775e-12 2.52582e-11
7.27722e-11 -3.92935e-11 6.01011e-11
2.79623e-11 4.13832e-12 6.90173e-12
-9.22316e-11 -1.01514e-10 -1.9549e-10
-5.02379e-11 -3.06792e-10 1.50712e-09
3.46168e-10 -4.83443e-10 3.47374e-10
-1.04516e-09 -2.91215e-12 3.32116e-09
7.95408e-11 8.77797e-12 6.40358e-12
-4.61698e-10 4.48197e-10 -4.46019e-10
-4.92099e-11 -4.62538e-11 -9.9048e-13
-3.22985e-10 1.9183e-10 1.39146e-10
6.22424e-11 -1.90006e-11 2.8807e-11
-1.34318e-10 3.85979e-10 1.5857e-10
-4.1482e-12 5.83975e-11 -2.41631e-11
-2.1482e-11 -5.04143e-11 7.11278e-11
-3.37223e-11 -6.48455e-12 5.52873e-12
3.69597e-10 6.30629e-12 3.55098e-10
-1.37807e-10 1.3782e-10 -5.06719e-10
1.62767e-10 2.05416e-10 -1.9708e-10
1.34288e-11 -5.59631e-11 1.49223e-11
8.89829e-11 1.84571e-11 1.61789e-10
-1.53914e-10 -5.33461e-11 9.95761e-11
-4.48289e-11 -2.0912e-11 1.39389e-11
1.52176e-10 4.42939e-10 -2.69743e-10
-1.21357e-10 -6.7899e-11 2.87977e-12
-1.22482e-11 6.32042e-12 -1.70521e-11
6.58713e-11 -3.30549e-11 2.36647e-11
4.17646e-11 2.02276e-11 -5.12272e-12
4.43784e-11 -1.6395e-11 2.55974e-11
1.19002e-10 1.94602e-10 1.75496e-11
-1.50216e-12 -1.35476e-11 4.50174e-12
4.78372e-10 -1.7884e-10 4.71966e-10
1.13531e-11 1.27627e-11 -5.36412e-10
-4.96406e-10 3.06871e-10 4.56788e-10
-4.92154e-10 2.54251e-10 -2.7392e-10
-1.03578e-10 -9.20448e-11 7.41132e-11
3.48445e-10 -5.5035e-11 1.92539e-10
2.36961e-10 5.58913e-10 -1.39527e-10
-1.85318e-10 -2.43501e-11 7.11106e-11
-4.87198e-10 -2.27538e-10 -1.31479e-10
9.93844e-10 -9.54082e-10 1.75929e-10
2.49817e-11 3.93592e-11 7.08905e-11
1.21258e-10 1.35595e-10 1.38515e-10
-9.6222e-11 4.48807e-13 -2.21785e-12
-5.41047e-10 2.67569e-10 -1.6701e-10
-2.30893e-10 6.94117e-11 -2.44244e-10
-1.17028e-11 1.44365e-11 -2.19965e-11
-1.0641e-11 4.58696e-11 -6.71289e-11
-3.79006e-10 -9.56069e-11 -8.26644e-11
4.2601e-10 -4.55808e-11 5.78144e-11
-1.93372e-10 3.81917e-11 -1.00715e-10
-1.14429e-09 2.8519e-11 5.05535e-10
2.21198e-10 -4.23548e-11 -3.75191e-11
4.58045e-11 5.62505e-10 -3.1393e-10
4.98226e-12 -4.67753e-12 4.41915e-12
1.10804e-10 -1.31096e-10 -3.48701e-10
-1.89924e-11 -2.56484e-11 2.77449e-11
9.19943e-11 -1.68446e-10 2.77716e-10
-1.83075e-10 1.39864e-10 -2.97569e-10
-8.66167e-10 -4.19192e-10 4.09024e-11
-1.10228e-10 -6.94273e-11 -1.30808e-11
6.76971e-11 -3.55021e-11 2.97925e-11
-4.43816e-11 -2.40654e-10 -9.98374e-10
-7.58313e-10 5.58253e-10 -5.40994e-10
3.7815e-10 7.28808e-10 1.50666e-10
5.12538e-11 2.73914e-11 -7.33323e-11
5.35938e-10 2.51302e-10 2.84446e-11
4.23783e-11 -1.7207e-10 5.90496e-11
-6.86921e-10 -1.36608e-10 -6.42393e-11
-3.91006e-11 -1.9674e-11 2.25148e-11
2.25078e-10 -3.3613e-10 1.19859e-11
-1.50808e-11 5.07192e-14 -6.44269e-12
3.59552e-11 1.03247e-09 6.27985e-12
1.90515e-11 9.90079e-11 -1.28357e-11
1.50122e-09 -2.81168e-10 2.316e-09
-4.48643e-10 -7.14954e-11 -5.55961e-10
6.19702e-10 -2.18005e-10 -3.24587e-10
-7.89265e-11 -9.40079e-11 1.8648e-10
7.59691e-12 2.85009e-11 2.39675e-11
-9.15572e-10 -6.44728e-10 2.97356e-10
3.15326e-10 -3.11695e-10 -7.05507e-10
1.65167e-10 -7.22105e-10 -5.04854e-10
5.39699e-10 3.19422e-12 -2.65364e-10
3.02904e-12 1.49792e-11 -3.85671e-12
9.64034e-10 3.32833e-10 -5.6587e-10
2.90313e-10 -1.12071e-10 -4.82868e-10
-4.36132e-10 1.71311e-11 -3.85523e-11
8.67468e-11 2.11115e-11 7.06002e-11
3.79494e-11 -1.37983e-10 1.26798e-10
1.19578e-10 -1.83368e-10 -5.42924e-11
-2.23969e-11 1.45546e-10 -1.63093e-10
-2.05086e-10 3.29779e-11 -1.21547e-10
4.17173e-11 4.46856e-11 4.46764e-11
-3.92895e-11 -2.19671e-10 -4.76575e-10
-8.31046e-12 -2.59705e-12 -5.85333e-13
-5.3008e-12 4.42021e-12 -2.73528e-12
-1.07458e-10 9.51704e-12 -3.15895e-11
-1.62038e-12 1.61431e-10 -9.56671e-11
-1.31959e-11 4.75674e-11 -2.34048e-11
-3.8381e-10 -1.20966e-10 1.1617e-10
5.22373e-11 3.43425e-11 -5.3405e-12
1.58008e-10 -3.77462e-10 -3.27319e-10
-6.05171e-11 9.36245e-12 -4.25869e-12
-6.74961e-10 4.00983e-10 1.09122e-09
-6.35568e-11 2.62283e-11 2.55804e-11
6.01617e-10 -4.04586e-10 1.10212e-10
8.61968e-12 -2.88044e-12 3.49183e-12
2.64839e-10 -5.42722e-11 -5.8557e-11
4.56669e-11 -4.02392e-11 7.10652e-11
-1.12515e-10 -1.09996e-10 1.19901e-10
-7.93692e-11 4.7411e-11 2.42295e-11
-4.58315e-11 1.11912e-11 8.31288e-11
2.60088e-11 5.05016e-10 -1.67317e-10
-1.5296e-11 -2.23488e-11 -9.57285e-11
-5.23868e-13 1.81919e-11 1.97628e-11
2.93478e-11 2.82867e-11 -1.80019e-11
-1.56233e-10 1.51805e-10 2.75732e-12
3.67484e-12 1.63751e-10 1.68335e-10
-1.00182e-11 -3.43251e-12 -2.59456e-13
2.58109e-10 1.21359e-10 -4.11322e-10
-1.16511e-11 -2.62154e-12 7.61825e-12
2.15723e-10 9.1598e-11 -1.55829e-11
-5.62855e-11 7.69164e-11 -1.07711e-11
-1.39801e-10 -1.04658e-11 -1.21262e-10
1.80408e-11 -9.74198e-11 7.28758e-11
-1.87912e-11 1.28451e-10 -3.37115e-11
7.29211e-11 -1.15605e-11 -8.95207e-13
9.27449e-11 3.53638e-10 -2.25843e-10
1.71944e-10 5.74249e-10 -3.49843e-10
4.38948e-11 1.6618e-11 -9.08891e-12
-8.29087e-10 -5.07341e-10 9.14802e-10
1.73673e-10 7.72582e-12 -1.60636e-11
-3.1211e-10 -3.58929e-10 1.34723e-10
1.88401e-10 1.00481e-09 -1.39384e-10
1.00737e-11 2.92399e-11 2.54501e-12
-9.26521e-11 2.73653e-11 3.85067e-11
-1.21976e-10 -6.39611e-10 3.9877e-10
-2.43966e-10 2.79081e-11 -4.13614e-12
3.41964e-11 -7.07805e-11 3.37623e-11
1.49745e-11 -2.15893e-11 2.64442e-11
-3.36726e-11 2.4341e-10 7.18369e-11
1.09646e-10 6.83656e-11 1.09899e-11
-6.25806e-11 1.68278e-10 -6.90254e-12
-9.32246e-11 6.88351e-11 -4.7233e-11
4.14222e-11 -3.74376e-11 6.8047e-11
-1.58073e-11 4.13615e-11 2.89411e-12
1.28418e-10 -2.94955e-11 3.56151e-11
3.04538e-11 3.9865e-11 1.3554e-10
-1.16619e-11 -1.30414e-11 8.73674e-12
-2.19773e-10 1.20989e-10 -2.14918e-10
7.72306e-12 6.25147e-10 -2.05088e-10
-1.03553e-10 1.51138e-11 -1.59917e-10
2.35924e-10 -9.33758e-11 -5.08734e-10
4.73784e-11 2.77413e-17 4.61502e-12
-1.28894e-10 -8.56614e-10 3.8831e-10
1.51512e-10 5.72474e-10 -3.21181e-10
-6.5107e-11 4.57534e-10 -6.95329e-10
-3.34935e-11 -4.46896e-10 -1.47829e-10
3.84068e-12 3.29431e-11 -2.9649e-11
-1.0849e-10 1.09759e-10 1.82571e-10
-8.81662e-11 -5.2358e-12 -8.32602e-12
1.1054e-11 -2.18408e-11 5.09102e-12
2.60993e-10 2.06281e-11 1.20265e-10
-3.0969e-11 -5.76558e-11 -1.55939e-10
1.44724e-11 5.56568e-11 -9.26955e-12
6.20634e-11 4.37066e-11 -1.55503e-11
-9.21137e-11 1.41199e-11 2.74832e-11
-1.10216e-11 -2.02211e-11 5.35541e-11
1.26918e-11 3.48133e-12 2.58048e-14
-1.04972e-10 -3.51946e-11 -3.60734e-11
3.06824e-09 -2.18754e-09 -7.29948e-10
1.40743e-10 2.29607e-10 -6.1038e-10
3.18756e-10 2.9424e-10 -1.73545e-10
9.63289e-11 -6.59485e-11 7.48857e-11
1.49027e-11 -1.00271e-10 -5.2598e-10
-1.09625e-11 -2.4199e-11 3.24301e-11
8.08847e-13 2.8118e-13 -1.0688e-12
4.56978e-11 8.97076e-11 -7.51307e-12
-6.31116e-11 1.08016e-10 -3.88424e-11
1.21472e-12 3.05756e-13 -5.74744e-13
5.31576e-13 1.11206e-12 7.73839e-13
-4.24273e-11 -1.03031e-10 1.26004e-10
5.31285e-13 7.21151e-13 4.05985e-13
-1.18581e-10 -1.47709e-10 1.62593e-10
-6.77535e-12 3.1884e-10 -9.0043e-11
3.89673e-11 -1.67383e-11 2.78034e-11
4.22154e-10 4.34179e-10 -8.66994e-10
-1.92836e-23 -1.60266e-24 2.06795e-25
9.58361e-13 4.98725e-13 -2.35661e-13
4.40505e-11 4.14144e-11 1.18699e-11
6.28008e-11 4.93313e-11 -6.56642e-12
4.38566e-11 -4.69769e-12 9.53938e-12
2.23244e-11 -5.88257e-11 4.69743e-11
-1.01903e-10 -8.4431e-11 -1.26992e-10
-1.28308e-10 6.51359e-11 -9.39852e-12
-4.12192e-11 1.79991e-11 6.27687e-12
-1.50589e-10 -2.62693e-11 -1.41404e-10
8.83442e-11 2.62053e-10 -2.33059e-10
-1.20246e-10 1.04487e-10 -1.97928e-11
6.49922e-13 4.91598e-13 -2.38812e-14
-3.22141e-10 -6.94249e-11 -3.19389e-10
3.54047e-11 7.52256e-12 -3.50106e-12
9.50504e-11 3.11923e-10 -7.91696e-10
-6.47346e-11 1.66446e-11 1.37465e-11
-8.04001e-12 1.01677e-11 1.51559e-11
-1.11703e-10 -6.45183e-12 -7.81305e-12
3.18776e-11 5.89959e-11 -3.43772e-12
-1.24311e-10 -2.74494e-10 -8.40338e-11
1.42975e-11 1.06169e-11 1.00454e-10
1.13293e-11 -2.92209e-11 1.30637e-11
-5.661e-13 -1.71075e-11 -1.04604e-10
6.14369e-12 1.17573e-11 6.5425e-12
-3.33189e-11 -1.46157e-11 -5.5864e-11
2.52079e-10 2.99096e-10 1.32776e-10
9.99312e-22 1.22423e-22 -2.83309e-23
2.21708e-13 7.72743e-13 6.4888e-13
-4.1148e-11 -6.57178e-11 -4.16881e-11
3.25991e-13 5.64827e-13 -4.53448e-13
2.169e-12 -2.82604e-13 -1.67945e-12
4.35404e-11 1.08082e-10 -4.86393e-11
2.01428e-11 2.02837e-11 1.61783e-11
-8.82839e-11 -4.83745e-11 2.99292e-11
-2.0081e-10 -2.86976e-11 8.41418e-12
-2.18008e-10 7.21711e-11 -3.56626e-11
3.81621e-11 8.11137e-11 2.63901e-12
-1.08092e-10 1.04646e-10 5.04945e-11
2.32001e-11 -2.59986e-11 2.91331e-11
-8.40722e-11 -3.18883e-10 -9.62974e-12
-4.05417e-11 4.50635e-11 -5.70148e-11
1.32653e-11 2.03016e-11 3.08108e-11
6.41568e-11 5.76266e-10 8.16936e-10
-5.30094e-10 -2.48365e-10 2.11008e-10
6.33881e-11 8.05649e-11 4.75124e-12
1.49943e-10 2.78296e-10 4.04761e-12
