# vtk DataFile Version 3.0
LIGGGHTS particles timestep 49400000
ASCII
DATASET POLYDATA
POINTS 283 float
0.239223 0.016506 0.00768094
0.239501 0.0175881 0.00714465
0.239615 0.0182868 0.0069173
0.239596 0.0181904 0.0069355
0.238849 0.0152892 0.00891185
0.24521 0.0165958 0.00789986
0.238989 0.0157088 0.00837059
0.23883 0.0152294 0.00898952
0.24546 0.0175016 0.00715398
0.239901 0.0183852 0.00693806
0.239399 0.0168677 0.0074611
0.245419 0.0173504 0.00727821
0.239897 0.0179312 0.00698218
0.232937 0.0156834 0.00873385
0.239917 0.0180276 0.00696396
0.233202 0.0163999 0.00770391
0.245565 0.018047 0.00704246
0.239537 0.0179013 0.00699013
0.239635 0.0174089 0.00715747
0.238869 0.0153491 0.00883418
0.239654 0.0184827 0.00692429
0.245383 0.0171985 0.00740329
0.239764 0.0177069 0.00702514
0.245318 0.0169725 0.00758953
0.233123 0.0161384 0.00798781
0.239498 0.0177076 0.00702672
0.245188 0.0165204 0.00796194
0.23973 0.0184177 0.0069253
0.239858 0.0177384 0.0070186
0.245232 0.0166711 0.00783779
0.239544 0.0177784 0.00710153
0.239936 0.018124 0.00694588
0.245508 0.0177527 0.00703285
0.23897 0.0156473 0.00844714
0.239802 0.0178997 0.00698871
0.239021 0.015772 0.00830025
0.239553 0.0175493 0.00706891
0.239694 0.0173367 0.00719339
0.23971 0.018319 0.00691435
0.239593 0.0177394 0.00702041
0.245253 0.0167464 0.00777572
0.245342 0.0170474 0.00752778
0.238908 0.0154688 0.00867886
0.239594 0.0173235 0.00719988
0.245297 0.0168971 0.0076516
0.239708 0.0178681 0.00699524
0.233794 0.0190151 0.00689276
0.233772 0.0182026 0.00702677
0.239881 0.0182872 0.00693366
0.245277 0.0168214 0.00771393
0.2334 0.0168881 0.00752222
0.245403 0.0172742 0.00734094
0.23966 0.0179041 0.00707541
0.23889 0.0154088 0.00875666
0.239474 0.0168109 0.0074948
0.239652 0.0180293 0.00696538
0.245362 0.0171231 0.00746541
0.239274 0.016378 0.00778583
0.233943 0.018599 0.00687295
0.239956 0.0182204 0.00692788
0.233454 0.0167318 0.0075738
0.239555 0.0171522 0.00729845
0.245621 0.0178834 0.00703729
0.233441 0.0170716 0.00745386
0.245438 0.0174261 0.00721585
0.238928 0.0155286 0.00860124
0.239344 0.0170094 0.00737855
0.238958 0.0155904 0.00852848
0.245546 0.017949 0.00703926
0.239692 0.0186778 0.0069458
0.232998 0.0158385 0.00848437
0.233243 0.0162102 0.00786144
0.239573 0.0176427 0.00703842
0.233982 0.0187909 0.00683071
0.233515 0.017007 0.00747131
0.233019 0.01589 0.00840132
0.245488 0.0176548 0.00702965
0.233379 0.0167964 0.00755636
0.239691 0.0182224 0.0069312
0.245482 0.0175766 0.00709182
0.239494 0.0168958 0.00744593
0.239688 0.0177717 0.00701347
0.239419 0.0169527 0.00741223
0.239296 0.0164521 0.00772172
0.239654 0.017167 0.007291
0.239649 0.0175828 0.00706522
0.239479 0.017208 0.0072653
0.239766 0.0181573 0.00694063
0.23973 0.0174342 0.00713743
0.239535 0.0174637 0.00711828
0.233577 0.0172822 0.0073688
0.239639 0.0178067 0.00709342
0.233847 0.0181388 0.00704387
0.239727 0.0179645 0.00697704
0.239819 0.0175501 0.00707146
0.233495 0.0169153 0.00750547
0.233791 0.0182946 0.00699261
0.23934 0.0166127 0.0076078
0.232957 0.0157351 0.00865069
0.239822 0.017996 0.0069705
0.239576 0.0180941 0.00695371
0.239673 0.0185802 0.00693505
0.239118 0.0161388 0.00797774
0.233287 0.0162537 0.00778291
0.239826 0.0184511 0.00693721
0.23342 0.0169799 0.00748802
0.239518 0.0178041 0.00700849
0.239525 0.0176822 0.0071209
0.23938 0.0167827 0.00751
0.233963 0.0186942 0.0068494
0.245167 0.0164451 0.00802401
0.239724 0.0175206 0.00708742
0.239612 0.0169974 0.00738859
0.239384 0.0171793 0.0072808
0.233887 0.0189699 0.00688954
0.239801 0.0182159 0.00701361
0.239861 0.0181894 0.0069378
0.239277 0.0163048 0.00785393
0.233059 0.0159935 0.00823495
0.23992 0.0184827 0.00694881
0.233129 0.0160893 0.00807474
0.239104 0.0160643 0.0080431
0.233851 0.0190209 0.00681117
0.23944 0.0174347 0.00713386
0.239575 0.0172377 0.00724921
0.239669 0.0176759 0.00703457
0.239439 0.0170376 0.00736336
0.233738 0.0188889 0.00681132
0.239285 0.0167545 0.00752521
0.239498 0.0172931 0.00721636
0.239514 0.0169808 0.00739706
0.239845 0.0185486 0.00694796
0.233866 0.0182308 0.00700971
0.239051 0.0158457 0.00823948
0.239743 0.0176097 0.0070435
0.239629 0.0174923 0.0071027
0.239324 0.0169245 0.00742742
0.232977 0.0157868 0.00856754
0.239565 0.0178744 0.00708248
0.239633 0.0170822 0.00733979
0.239319 0.0165274 0.00765685
0.233637 0.0175587 0.00726594
0.239976 0.018319 0.00693886
0.233159 0.0162591 0.00783838
0.233275 0.0163372 0.00772912
0.233764 0.0188608 0.00690347
0.239671 0.0181256 0.00694717
0.233886 0.0183241 0.00697498
0.239675 0.0172517 0.00724229
0.233714 0.0179267 0.00712927
0.239459 0.0171228 0.00731433
0.233924 0.0185068 0.0069072
0.239422 0.0173494 0.00718295
0.233757 0.0189867 0.00680409
0.239534 0.0170664 0.00734782
0.233359 0.0167047 0.00759076
0.239783 0.0178033 0.00700692
0.233682 0.0184914 0.00701922
0.233345 0.017044 0.00747196
0.239679 0.0180005 0.00705708
0.233698 0.018698 0.00685615
0.239632 0.0179328 0.0069836
0.233694 0.0178347 0.00716344
0.233583 0.0181461 0.00706093
0.233181 0.0163239 0.00776545
0.233832 0.0189207 0.00680534
0.233656 0.0176507 0.00723177
0.233536 0.0170987 0.00743715
0.239769 0.0186136 0.00694695
0.233907 0.0188559 0.006818
0.239644 0.0182157 0.00701938
0.233868 0.0186628 0.00685593
0.239747 0.0180609 0.00695883
0.233461 0.0171633 0.00741969
0.233542 0.0175305 0.00728302
0.245527 0.0178509 0.00703606
0.239244 0.0165863 0.00762545
0.239201 0.0164274 0.0077388
0.233243 0.0165837 0.00763772
0.239459 0.0175198 0.00708486
0.2336 0.0178064 0.00718051
0.239755 0.0179356 0.00706877
0.239075 0.0159939 0.00810766
0.23366 0.018514 0.00692427
0.233597 0.0173742 0.00733454
0.23936 0.0166977 0.0075589
0.233778 0.0190875 0.00682558
0.233678 0.0185885 0.00698855
0.233088 0.0160458 0.00815476
0.233581 0.0177144 0.00721468
0.233741 0.0183348 0.00706938
0.239878 0.0178348 0.00700039
0.233641 0.018422 0.00695843
0.233325 0.0169518 0.0075047
0.233675 0.0177427 0.00719761
0.233474 0.0168235 0.00753964
0.234001 0.0188908 0.00681142
0.233137 0.0161829 0.0078993
0.239575 0.0180667 0.00704987
0.239265 0.0166696 0.00757425
0.245604 0.0182431 0.00704886
0.239364 0.0170944 0.00732969
0.233339 0.0166127 0.00762418
0.239304 0.0168395 0.00747632
0.239181 0.0163004 0.00788346
0.239144 0.0162138 0.00791725
0.239995 0.0184166 0.00694964
0.233223 0.0164896 0.00766538
0.239841 0.0180924 0.00695229
0.233297 0.0164264 0.00768893
0.233038 0.0159421 0.00831821
0.245584 0.0181451 0.00704566
0.233639 0.0179904 0.00711218
0.233752 0.0181106 0.00706094
0.233482 0.017255 0.00738552
0.233696 0.0182663 0.00700968
0.233665 0.0183977 0.00705226
0.233284 0.0167669 0.00756903
0.233617 0.0174665 0.0073002
0.239517 0.0173784 0.00716726
0.239612 0.0178363 0.00700183
0.233467 0.0175942 0.00726593
0.233407 0.0173189 0.0073688
0.233544 0.0179621 0.00712926
0.233503 0.0173467 0.00735135
0.227451 0.017527 0.00731252
0.233386 0.0172274 0.0074035
0.233523 0.0174385 0.00731718
0.227432 0.0174398 0.00735737
0.22747 0.0176144 0.00726756
0.233366 0.0171358 0.00743815
0.227507 0.017789 0.00717766
0.239839 0.0176418 0.00703686
0.239479 0.0176113 0.00704501
0.233304 0.0168594 0.00753691
0.23906 0.0159174 0.0081704
0.215741 0.019982 0.00563384
0.227489 0.0177017 0.00722261
0.233813 0.0188242 0.00682397
0.233733 0.0180186 0.00709511
0.233318 0.0165203 0.00765629
0.233735 0.0184503 0.00694135
0.233563 0.0180541 0.0070951
0.233677 0.0181744 0.00704385
0.233793 0.0187276 0.00684264
0.239785 0.0182537 0.0069224
0.233448 0.0175023 0.0073001
0.233621 0.01833 0.0069926
0.227545 0.0179637 0.00708777
0.233619 0.0178984 0.00714635
0.233263 0.0166744 0.00760113
0.239179 0.0163479 0.00779546
0.233888 0.0187592 0.00683668
0.233718 0.0187931 0.00683206
0.234057 0.0187259 0.00684343
0.23381 0.0183866 0.00695844
0.233525 0.0178702 0.00716343
0.233679 0.018606 0.0068901
0.233716 0.0183583 0.00697552
0.233798 0.0184673 0.00701856
0.233774 0.0186343 0.006873
0.233506 0.0177782 0.00719768
0.239482 0.017503 0.00719372
0.404182 0.0211142 0.0056569
0.227583 0.0181383 0.00699788
0.233926 0.0189557 0.00679871
0.227564 0.018051 0.00704283
0.227526 0.0178764 0.00713272
0.233562 0.0176225 0.00724885
0.233427 0.0174105 0.00733431
0.233754 0.0185423 0.00690718
0.239805 0.0183517 0.00692613
0.233658 0.0180824 0.00707802
0.233829 0.0184785 0.00692427
0.233602 0.0182381 0.00702677
0.233725 0.0186752 0.00694993
0.23975 0.0185159 0.00693617
0.233486 0.0176862 0.00723176
0.233556 0.0171904 0.00740298
0.239403 0.0172643 0.00723189
0.239557 0.0179977 0.00697192
0.233849 0.0185706 0.00689009
0.239635 0.0183851 0.00691358

VERTICES 283 566
1 0
1 1
1 2
1 3
1 4
1 5
1 6
1 7
1 8
1 9
1 10
1 11
1 12
1 13
1 14
1 15
1 16
1 17
1 18
1 19
1 20
1 21
1 22
1 23
1 24
1 25
1 26
1 27
1 28
1 29
1 30
1 31
1 32
1 33
1 34
1 35
1 36
1 37
1 38
1 39
1 40
1 41
1 42
1 43
1 44
1 45
1 46
1 47
1 48
1 49
1 50
1 51
1 52
1 53
1 54
1 55
1 56
1 57
1 58
1 59
1 60
1 61
1 62
1 63
1 64
1 65
1 66
1 67
1 68
1 69
1 70
1 71
1 72
1 73
1 74
1 75
1 76
1 77
1 78
1 79
1 80
1 81
1 82
1 83
1 84
1 85
1 86
1 87
1 88
1 89
1 90
1 91
1 92
1 93
1 94
1 95
1 96
1 97
1 98
1 99
1 100
1 101
1 102
1 103
1 104
1 105
1 106
1 107
1 108
1 109
1 110
1 111
1 112
1 113
1 114
1 115
1 116
1 117
1 118
1 119
1 120
1 121
1 122
1 123
1 124
1 125
1 126
1 127
1 128
1 129
1 130
1 131
1 132
1 133
1 134
1 135
1 136
1 137
1 138
1 139
1 140
1 141
1 142
1 143
1 144
1 145
1 146
1 147
1 148
1 149
1 150
1 151
1 152
1 153
1 154
1 155
1 156
1 157
1 158
1 159
1 160
1 161
1 162
1 163
1 164
1 165
1 166
1 167
1 168
1 169
1 170
1 171
1 172
1 173
1 174
1 175
1 176
1 177
1 178
1 179
1 180
1 181
1 182
1 183
1 184
1 185
1 186
1 187
1 188
1 189
1 190
1 191
1 192
1 193
1 194
1 195
1 196
1 197
1 198
1 199
1 200
1 201
1 202
1 203
1 204
1 205
1 206
1 207
1 208
1 209
1 210
1 211
1 212
1 213
1 214
1 215
1 216
1 217
1 218
1 219
1 220
1 221
1 222
1 223
1 224
1 225
1 226
1 227
1 228
1 229
1 230
1 231
1 232
1 233
1 234
1 235
1 236
1 237
1 238
1 239
1 240
1 241
1 242
1 243
1 244
1 245
1 246
1 247
1 248
1 249
1 250
1 251
1 252
1 253
1 254
1 255
1 256
1 257
1 258
1 259
1 260
1 261
1 262
1 263
1 264
1 265
1 266
1 267
1 268
1 269
1 270
1 271
1 272
1 273
1 274
1 275
1 276
1 277
1 278
1 279
1 280
1 281
1 282

POINT_DATA 283
SCALARS id int 1
LOOKUP_TABLE default
1
2
3
4
5
6
7
8
9
10
11
12
13
14
15
16
18
19
20
21
22
24
25
26
27
29
30
31
32
33
34
35
36
37
38
40
41
42
43
44
45
46
47
48
49
50
52
55
56
57
58
59
60
61
62
63
64
65
66
67
68
69
70
71
72
73
74
75
76
77
78
79
80
81
82
83
84
85
86
87
88
89
90
91
92
93
94
95
96
98
99
100
101
102
103
104
105
106
107
108
109
110
111
112
113
114
115
116
117
118
119
120
121
122
123
124
125
126
127
128
129
130
131
132
133
134
135
136
137
138
139
140
141
142
144
145
146
147
148
149
150
152
153
154
155
156
157
158
159
160
161
162
164
165
166
167
168
169
170
171
172
173
174
175
176
177
178
179
180
181
182
183
184
185
186
187
188
189
190
191
192
193
194
195
196
197
198
199
200
201
202
203
204
205
206
207
208
209
210
211
213
214
215
217
218
219
220
221
222
223
224
225
226
227
228
229
230
231
232
233
234
235
236
237
238
239
241
242
243
244
245
246
247
248
249
250
251
252
253
254
255
256
257
258
259
260
261
262
263
264
265
267
268
269
270
271
272
273
274
275
276
277
278
279
280
281
282
283
284
285
286
287
288
289
290
292
293
294
295
296
297
298
300

SCALARS type int 1
LOOKUP_TABLE default
1
1
1
1
1
1
1
1
1
1
1
1
1
1
1
1
1
1
1
1
1
1
1
1
1
1
1
1
1
1
1
1
1
1
1
1
1
1
1
1
1
1
1
1
1
1
1
1
1
1
1
1
1
1
1
1
1
1
1
1
1
1
1
1
1
1
1
1
1
1
1
1
1
1
1
1
1
1
1
1
1
1
1
1
1
1
1
1
1
1
1
1
1
1
1
1
1
1
1
1
1
1
1
1
1
1
1
1
1
1
1
1
1
1
1
1
1
1
1
1
1
1
1
1
1
1
1
1
1
1
1
1
1
1
1
1
1
1
1
1
1
1
1
1
1
1
1
1
1
1
1
1
1
1
1
1
1
1
1
1
1
1
1
1
1
1
1
1
1
1
1
1
1
1
1
1
1
1
1
1
1
1
1
1
1
1
1
1
1
1
1
1
1
1
1
1
1
1
1
1
1
1
1
1
1
1
1
1
1
1
1
1
1
1
1
1
1
1
1
1
1
1
1
1
1
1
1
1
1
1
1
1
1
1
1
1
1
1
1
1
1
1
1
1
1
1
1
1
1
1
1
1
1
1
1
1
1
1
1
1
1
1
1
1
1
1
1
1
1
1
1
1
1
1
1
1
1
1
1
1
1
1
1

SCALARS radius float 1
LOOKUP_TABLE default
5e-05
5e-05
5e-05
5e-05
5e-05
5e-05
5e-05
5e-05
5e-05
5e-05
5e-05
5e-05
5e-05
5e-05
5e-05
5e-05
5e-05
5e-05
5e-05
5e-05
5e-05
5e-05
5e-05
5e-05
5e-05
5e-05
5e-05
5e-05
5e-05
5e-05
5e-05
5e-05
5e-05
5e-05
5e-05
5e-05
5e-05
5e-05
5e-05
5e-05
5e-05
5e-05
5e-05
5e-05
5e-05
5e-05
5e-05
5e-05
5e-05
5e-05
5e-05
5e-05
5e-05
5e-05
5e-05
5e-05
5e-05
5e-05
5e-05
5e-05
5e-05
5e-05
5e-05
5e-05
5e-05
5e-05
5e-05
5e-05
5e-05
5e-05
5e-05
5e-05
5e-05
5e-05
5e-05
5e-05
5e-05
5e-05
5e-05
5e-05
5e-05
5e-05
5e-05
5e-05
5e-05
5e-05
5e-05
5e-05
5e-05
5e-05
5e-05
5e-05
5e-05
5e-05
5e-05
5e-05
5e-05
5e-05
5e-05
5e-05
5e-05
5e-05
5e-05
5e-05
5e-05
5e-05
5e-05
5e-05
5e-05
5e-05
5e-05
5e-05
5e-05
5e-05
5e-05
5e-05
5e-05
5e-05
5e-05
5e-05
5e-05
5e-05
5e-05
5e-05
5e-05
5e-05
5e-05
5e-05
5e-05
5e-05
5e-05
5e-05
5e-05
5e-05
5e-05
5e-05
5e-05
5e-05
5e-05
5e-05
5e-05
5e-05
5e-05
5e-05
5e-05
5e-05
5e-05
5e-05
5e-05
5e-05
5e-05
5e-05
5e-05
5e-05
5e-05
5e-05
5e-05
5e-05
5e-05
5e-05
5e-05
5e-05
5e-05
5e-05
5e-05
5e-05
5e-05
5e-05
5e-05
5e-05
5e-05
5e-05
5e-05
5e-05
5e-05
5e-05
5e-05
5e-05
5e-05
5e-05
5e-05
5e-05
5e-05
5e-05
5e-05
5e-05
5e-05
5e-05
5e-05
5e-05
5e-05
5e-05
5e-05
5e-05
5e-05
5e-05
5e-05
5e-05
5e-05
5e-05
5e-05
5e-05
5e-05
5e-05
5e-05
5e-05
5e-05
5e-05
5e-05
5e-05
5e-05
5e-05
5e-05
5e-05
5e-05
5e-05
5e-05
5e-05
5e-05
5e-05
5e-05
5e-05
5e-05
5e-05
5e-05
5e-05
5e-05
5e-05
5e-05
5e-05
5e-05
5e-05
5e-05
5e-05
5e-05
5e-05
5e-05
5e-05
5e-05
5e-05
5e-05
5e-05
5e-05
5e-05
5e-05
5e-05
5e-05
5e-05
5e-05
5e-05
5e-05
5e-05
5e-05
5e-05
5e-05
5e-05
5e-05
5e-05
5e-05
5e-05
5e-05
5e-05
5e-05
5e-05
5e-05
5e-05
5e-05
5e-05
5e-05
5e-05
5e-05
5e-05
5e-05
5e-05
5e-05
5e-05
5e-05
5e-05
5e-05
5e-05
5e-05
5e-05
5e-05

SCALARS mass float 1
LOOKUP_TABLE default
1.46608e-10
1.46608e-10
1.46608e-10
1.46608e-10
1.46608e-10
1.46608e-10
1.46608e-10
1.46608e-10
1.46608e-10
1.46608e-10
1.46608e-10
1.46608e-10
1.46608e-10
1.46608e-10
1.46608e-10
1.46608e-10
1.46608e-10
1.46608e-10
1.46608e-10
1.46608e-10
1.46608e-10
1.46608e-10
1.46608e-10
1.46608e-10
1.46608e-10
1.46608e-10
1.46608e-10
1.46608e-10
1.46608e-10
1.46608e-10
1.46608e-10
1.46608e-10
1.46608e-10
1.46608e-10
1.46608e-10
1.46608e-10
1.46608e-10
1.46608e-10
1.46608e-10
1.46608e-10
1.46608e-10
1.46608e-10
1.46608e-10
1.46608e-10
1.46608e-10
1.46608e-10
1.46608e-10
1.46608e-10
1.46608e-10
1.46608e-10
1.46608e-10
1.46608e-10
1.46608e-10
1.46608e-10
1.46608e-10
1.46608e-10
1.46608e-10
1.46608e-10
1.46608e-10
1.46608e-10
1.46608e-10
1.46608e-10
1.46608e-10
1.46608e-10
1.46608e-10
1.46608e-10
1.46608e-10
1.46608e-10
1.46608e-10
1.46608e-10
1.46608e-10
1.46608e-10
1.46608e-10
1.46608e-10
1.46608e-10
1.46608e-10
1.46608e-10
1.46608e-10
1.46608e-10
1.46608e-10
1.46608e-10
1.46608e-10
1.46608e-10
1.46608e-10
1.46608e-10
1.46608e-10
1.46608e-10
1.46608e-10
1.46608e-10
1.46608e-10
1.46608e-10
1.46608e-10
1.46608e-10
1.46608e-10
1.46608e-10
1.46608e-10
1.46608e-10
1.46608e-10
1.46608e-10
1.46608e-10
1.46608e-10
1.46608e-10
1.46608e-10
1.46608e-10
1.46608e-10
1.46608e-10
1.46608e-10
1.46608e-10
1.46608e-10
1.46608e-10
1.46608e-10
1.46608e-10
1.46608e-10
1.46608e-10
1.46608e-10
1.46608e-10
1.46608e-10
1.46608e-10
1.46608e-10
1.46608e-10
1.46608e-10
1.46608e-10
1.46608e-10
1.46608e-10
1.46608e-10
1.46608e-10
1.46608e-10
1.46608e-10
1.46608e-10
1.46608e-10
1.46608e-10
1.46608e-10
1.46608e-10
1.46608e-10
1.46608e-10
1.46608e-10
1.46608e-10
1.46608e-10
1.46608e-10
1.46608e-10
1.46608e-10
1.46608e-10
1.46608e-10
1.46608e-10
1.46608e-10
1.46608e-10
1.46608e-10
1.46608e-10
1.46608e-10
1.46608e-10
1.46608e-10
1.46608e-10
1.46608e-10
1.46608e-10
1.46608e-10
1.46608e-10
1.46608e-10
1.46608e-10
1.46608e-10
1.46608e-10
1.46608e-10
1.46608e-10
1.46608e-10
1.46608e-10
1.46608e-10
1.46608e-10
1.46608e-10
1.46608e-10
1.46608e-10
1.46608e-10
1.46608e-10
1.46608e-10
1.46608e-10
1.46608e-10
1.46608e-10
1.46608e-10
1.46608e-10
1.46608e-10
1.46608e-10
1.46608e-10
1.46608e-10
1.46608e-10
1.46608e-10
1.46608e-10
1.46608e-10
1.46608e-10
1.46608e-10
1.46608e-10
1.46608e-10
1.46608e-10
1.46608e-10
1.46608e-10
1.46608e-10
1.46608e-10
1.46608e-10
1.46608e-10
1.46608e-10
1.46608e-10
1.46608e-10
1.46608e-10
1.46608e-10
1.46608e-10
1.46608e-10
1.46608e-10
1.46608e-10
1.46608e-10
1.46608e-10
1.46608e-10
1.46608e-10
1.46608e-10
1.46608e-10
1.46608e-10
1.46608e-10
1.46608e-10
1.46608e-10
1.46608e-10
1.46608e-10
1.46608e-10
1.46608e-10
1.46608e-10
1.46608e-10
1.46608e-10
1.46608e-10
1.46608e-10
1.46608e-10
1.46608e-10
1.46608e-10
1.46608e-10
1.46608e-10
1.46608e-10
1.46608e-10
1.46608e-10
1.46608e-10
1.46608e-10
1.46608e-10
1.46608e-10
1.46608e-10
1.46608e-10
1.46608e-10
1.46608e-10
1.46608e-10
1.46608e-10
1.46608e-10
1.46608e-10
1.46608e-10
1.46608e-10
1.46608e-10
1.46608e-10
1.46608e-10
1.46608e-10
1.46608e-10
1.46608e-10
1.46608e-10
1.46608e-10
1.46608e-10
1.46608e-10
1.46608e-10
1.46608e-10
1.46608e-10
1.46608e-10
1.46608e-10
1.46608e-10
1.46608e-10
1.46608e-10
1.46608e-10
1.46608e-10
1.46608e-10
1.46608e-10
1.46608e-10
1.46608e-10
1.46608e-10
1.46608e-10
1.46608e-10
1.46608e-10
1.46608e-10
1.46608e-10
1.46608e-10
1.46608e-10
1.46608e-10
1.46608e-10
1.46608e-10
1.46608e-10
1.46608e-10

VECTORS velocity float
0.00481302 -0.000332197 0.000551773
0.00443909 -0.000409672 0.000288162
0.00435337 -0.000528945 7.05227e-05
0.00433553 -0.000508259 6.54626e-05
0.00428064 -0.00031759 0.000432403
0.00463943 -3.19414e-05 1.38121e-05
0.00466052 -0.000432439 0.000460361
0.0042806 -0.000321888 0.000437926
0.00450818 -3.10608e-05 1.76774e-06
0.00431865 -0.000512802 0.000348071
0.00446263 -0.000408349 0.000287641
0.00454263 -3.34974e-05 1.80294e-05
0.00429121 -0.00051778 6.95293e-05
0.00450041 -0.000309159 -0.000362639
0.00428622 -0.000554799 7.53877e-05
0.00478462 0.000191677 -7.00761e-05
0.00436095 1.81079e-05 1.08559e-05
0.00433263 -0.000498223 6.98415e-05
0.00442473 -0.000440719 0.000317772
0.00428133 -0.000312714 0.000426097
0.00433161 -0.000482286 0.000353206
0.00467428 -5.53765e-05 3.3315e-05
0.004332 -0.000535451 7.28647e-05
0.00468927 -5.39175e-05 3.22188e-05
0.00499434 0.000317431 0.000123134
0.00432538 -0.000459596 5.75503e-05
0.00463653 -3.04639e-05 1.22905e-05
0.00434038 -0.000489977 0.00035349
0.00432523 -0.000519755 6.97654e-05
0.00465625 -3.49336e-05 1.748e-05
0.00436827 -0.000436167 0.000168236
0.00432358 -0.000527496 0.000274732
0.00445805 -5.84889e-06 1.0094e-05
0.00457009 -0.000358895 0.000488312
0.00429496 -0.000529326 7.06357e-05
0.00477212 -0.000322762 0.000618435
0.00444633 -0.00041414 0.000290198
0.00445189 -0.000417708 0.000294689
0.00434836 -0.00048828 0.000353817
0.00432478 -0.000549118 0.000102304
0.00466571 -4.19695e-05 2.35035e-05
0.00468946 -5.47699e-05 3.31797e-05
0.00427407 -0.000307295 0.000423841
0.00427616 -0.00049745 0.000336143
0.00467242 -5.15083e-05 2.96896e-05
0.00428854 -0.000534179 7.05243e-05
0.00483803 -0.000287213 9.5701e-06
0.00439574 0.000128256 -0.000372475
0.00434034 -0.000519527 0.000355649
0.00465834 -4.74001e-05 2.68465e-05
0.00448671 0.000121257 -0.000474809
0.00461493 -4.53255e-05 2.59204e-05
0.00435152 -0.00046277 7.8295e-05
0.00428287 -0.000310045 0.000422508
0.00454682 -0.000369455 0.000264975
0.00431797 -0.000532421 6.99383e-05
0.0046963 -5.77939e-05 3.55616e-05
0.00474933 -3.79219e-05 0.000947945
0.00448188 8.52027e-05 -0.000363296
0.00434753 -0.000518338 0.000353843
0.0044871 0.00012622 -0.000377901
0.00416637 -0.000349168 0.000249298
0.00437152 2.38825e-05 1.30108e-05
0.00449707 0.000139158 -0.000379421
0.00450712 -2.72902e-05 1.03351e-05
0.00430362 -0.000297512 0.000443217
0.00446626 -0.000410666 0.000289062
0.00441861 -0.000301727 0.000495822
0.00436486 1.66418e-05 5.62558e-06
0.00428438 -0.000475494 0.00035054
0.00460771 -0.000348965 -0.000322642
0.00521795 0.000513779 -0.000264537
0.00440881 -0.000368718 4.04043e-05
0.00452909 0.00018982 -2.88267e-05
0.00451918 0.000129591 -0.000384089
0.00468647 -0.000368634 -0.000310321
0.00453729 -2.43789e-05 9.81642e-06
0.0045616 0.000203128 -0.000415385
0.00432337 -0.000506584 0.000209623
0.00452658 -2.72909e-05 9.28321e-06
0.00450199 -0.000355677 0.000257242
0.00431991 -0.000540692 7.29858e-05
0.00446968 -0.000411722 0.000289799
0.00481266 -4.0395e-05 0.000961282
0.00453674 -0.000433407 0.000302406
0.00437655 -0.000483082 0.000263352
0.00412897 -0.000416754 0.000288446
0.00430004 -0.000529733 0.000110632
0.00442481 -0.000441861 0.000305001
0.00439438 -0.000451452 0.000312929
0.00451401 0.000127989 -0.000381705
0.00434686 -0.000527024 7.25184e-05
0.00437791 0.000109791 -0.000364805
0.00427328 -0.000529461 6.95528e-05
0.00439087 -0.000419077 0.00028982
0.00449745 0.000126904 -0.000386484
0.00441822 0.000122733 -0.000371918
0.00472869 -0.000378475 0.0002715
0.00455071 -0.000316037 -0.000360018
0.00428229 -0.000530816 7.12219e-05
0.00432822 -0.000507864 6.77057e-05
0.0043105 -0.000478022 0.000352548
0.00473709 -4.48267e-05 0.000930771
0.00500227 0.000601988 -0.000419449
0.00429956 -0.000523806 0.000346847
0.00449025 0.000145544 -0.000386025
0.00430693 -0.00056882 7.80574e-05
0.00439256 -0.000420425 0.000231304
0.00453311 -0.000344024 0.000251234
0.00451771 0.000179449 -2.52158e-05
0.00463327 -2.66773e-05 9.56365e-06
0.00440107 -0.000444464 0.000306059
0.00453675 -0.000453271 0.000314093
0.00430789 -0.000395536 0.000277689
0.00473274 -0.000374254 4.29813e-05
0.00429411 -0.000507064 9.91451e-05
0.00431877 -0.000529286 0.000135469
0.00478146 -3.84312e-05 0.000950599
0.00466117 -0.000356073 -0.000321849
0.00428408 -0.000502872 0.000349004
0.00483481 -0.000395831 -0.000268203
0.00473114 -3.59022e-05 0.000939479
0.00488578 -0.00041311 -6.39926e-06
0.0043843 -0.00039099 0.00027588
0.00420862 -0.000450984 0.000308438
0.004342 -0.000522256 0.000144746
0.00448725 -0.000379374 0.000270438
0.00452056 0.000200378 -3.69546e-05
0.00454961 -0.000423013 0.000295953
0.00422906 -0.00043892 0.000302031
0.00450302 -0.0003509 0.00025406
0.00427179 -0.000508979 0.000347609
0.00440122 0.000104632 -0.000364986
0.00469455 -5.717e-05 0.000907505
0.00432133 -0.000554843 7.51881e-05
0.00440183 -0.000456049 0.000316145
0.00444588 -0.000408909 0.000286789
0.0045832 -0.000329892 -0.000337033
0.00434862 -0.000453618 8.83617e-05
0.00453307 -0.000441341 0.000306767
0.00490227 -0.000339374 0.000253776
0.00425626 0.000179955 -0.000380629
0.00433711 -0.000513863 0.000358722
0.00495444 0.000260819 4.79755e-05
0.00518326 0.000432809 -0.000747733
0.00449993 0.000190774 -3.35659e-05
0.00432199 -0.000531697 7.95336e-05
0.00440376 8.70739e-05 -0.0003588
0.00450798 -0.000425478 0.000297127
0.00435164 0.000140264 -0.000373692
0.00442753 -0.000290656 0.00021854
0.0044541 8.85331e-05 -0.000363194
0.00428893 -0.000380385 0.000268952
0.00450814 0.000191862 1.00174e-05
0.00452947 -0.000194241 0.000164034
0.00451122 0.000219023 -0.000100121
0.0043119 -0.00053047 7.01566e-05
0.00446717 0.000143456 -0.000389926
0.00451943 0.000236015 -0.000136505
0.00435037 -0.000462537 8.59334e-05
0.00449966 0.000128885 -0.000420722
0.00433799 -0.000498938 6.52131e-05
0.00432021 0.000146677 -0.000373745
0.00439345 0.000160749 -0.000384124
0.00502049 0.000168502 -2.03311e-05
0.00452582 0.000204864 -3.4592e-05
0.00425888 0.000169127 -0.000376715
0.00453471 0.000134499 -0.00038526
0.00427874 -0.000491708 0.000349226
0.00453387 0.000208206 -3.24961e-05
0.00426322 -0.000717853 0.000170636
0.00450817 0.000128682 -0.000323347
0.00428561 -0.000530765 7.43809e-05
0.00453908 0.000141644 -0.000386993
0.00427129 0.000173961 -0.000379491
0.00437347 1.33441e-05 5.76477e-06
0.00476196 -0.000446579 0.000350681
0.0047711 -0.000139929 0.000805619
0.00449019 0.00027867 6.53461e-06
0.00443728 -0.000393749 0.000278161
0.00431081 0.000158297 -0.000377085
0.00434742 -0.000455859 6.68807e-05
0.00472341 -3.06151e-05 0.000940074
0.00446829 0.000148384 -0.000386227
0.00444883 0.000365397 -0.000461575
0.00465104 -0.000369317 0.000267017
0.00486375 -0.000389585 -0.000112604
0.00451445 0.000126076 -0.000383434
0.00468498 -0.00039007 -0.000340038
0.00427922 0.000164926 -0.00037698
0.00443192 0.000146878 -0.00037778
0.004306 -0.000516163 6.87649e-05
0.00444449 0.000147498 -0.000384263
0.00451733 0.000276964 -2.227e-05
0.00427937 0.00015866 -0.000374808
0.00447581 0.000130231 -0.000381306
0.00484494 -0.000525706 0.000110749
0.00495006 0.0003073 0.000109067
0.0043202 -0.000510057 6.99643e-05
0.00466691 -0.000450661 0.000293925
0.00434744 2.15101e-05 9.12769e-06
0.00445894 -0.000420334 0.00029237
0.00455153 0.00024391 -3.11474e-06
0.00446316 -0.000411539 0.000289011
0.00478467 -3.58291e-05 0.000964352
0.00472877 -2.75835e-05 0.000942365
0.00431619 -0.000493311 0.000351419
0.00456794 0.000257988 -1.4606e-05
0.00428756 -0.00053741 6.76708e-05
0.00471588 0.000408299 -6.25859e-05
0.00470133 -0.000369809 -0.000317857
0.00436106 1.85222e-05 8.23854e-06
0.00435828 0.000151655 -0.000378183
0.0043745 0.000133419 -0.000373148
0.00452969 0.000125876 -0.000380792
0.00441482 0.000143586 -0.000379744
0.00443208 0.000144462 -0.000383353
0.00450607 0.000261994 -3.27964e-05
0.00428242 0.000173036 -0.000380161
0.00432159 -0.000445207 0.000308102
0.00432355 -0.000525592 7.30106e-05
0.00426587 0.000169285 -0.000377656
0.00453568 0.000127281 -0.000373363
0.00435905 0.000167169 -0.000383863
0.00453127 0.000134027 -0.000384404
0.00427562 0.000409454 8.98427e-05
0.00453332 0.000137024 -0.000376381
0.0042688 0.0001791 -0.000380549
0.00453789 0.000372633 0.000127887
0.00430127 0.000406903 9.32248e-05
0.00452146 0.000169068 -0.000313543
0.00437805 0.000395433 0.000104627
0.00436997 -0.000500696 6.69904e-05
0.00444622 -0.000460891 0.000172544
0.00451539 0.000272616 -2.33429e-05
0.00472127 -3.4093e-05 0.000936337
6.80561e-15 2.29894e-14 -7.03246e-14
0.00435069 0.000399067 0.000100465
0.00452304 0.000196191 -2.91908e-05
0.00436324 0.000138063 -0.000373718
0.00457008 0.000243618 -2.93507e-06
0.00445367 0.000133137 -0.00037985
0.0043749 0.000165564 -0.000384457
0.00439463 0.000147108 -0.000378992
0.00453191 0.000215801 -3.27016e-05
0.0043414 -0.000538454 7.27653e-05
0.00425791 0.000173816 -0.000377426
0.0044318 0.000154109 -0.000385032
0.00443154 0.000384676 0.000114067
0.00433657 0.000155469 -0.000378034
0.00449623 0.000268351 -1.55909e-05
0.00477066 -3.65849e-05 0.000956443
0.00451974 0.000188739 -2.76491e-05
0.00451593 0.000160112 -0.000258608
0.00451986 0.00017709 -2.65908e-05
0.00443588 0.000116545 -0.000370924
0.00433881 0.000170773 -0.000383648
0.0044926 0.000142278 -0.000386152
0.00443478 0.000139439 -0.000379912
0.00443833 0.000137643 -0.000372089
0.00448616 0.000132643 -0.000388962
0.00428473 0.000177232 -0.000382371
0.00439477 -0.000398843 0.000285679
-1.29407e-14 6.08871e-14 -1.90218e-13
0.00448788 0.000386813 0.000116997
0.00488966 -0.000450734 9.47953e-05
0.00445971 0.000385774 0.000115515
0.00440493 0.000391068 0.000108753
0.00426216 0.000168664 -0.000377708
0.00453418 0.000113462 -0.000383805
0.00447798 0.000128942 -0.000380344
0.00434645 -0.000500992 0.000355623
0.00437655 0.000150122 -0.000379036
0.00445784 0.000109017 -0.0003705
0.00441064 0.000159218 -0.000384831
0.00449198 0.000183018 -0.000412697
0.00430529 -0.000502845 0.000351558
0.00425846 0.000176054 -0.000379761
0.00453377 0.0001344 -0.000383834
0.00421577 -0.000374428 0.000264416
0.00432853 -0.000502263 6.49963e-05
0.00446296 0.000108438 -0.000370808
0.00435125 -0.000483168 0.000366681

VECTORS force float
-1.32804e-11 1.42134e-10 -2.0974e-11
-1.83646e-11 -1.06005e-11 2.68517e-11
-1.53471e-11 5.53259e-11 -2.26913e-11
-7.433e-11 -2.14245e-11 1.12614e-11
-5.61381e-12 -2.34138e-11 3.2992e-11
-9.5463e-11 -3.70349e-11 1.79027e-11
6.44511e-11 4.79633e-11 -1.19084e-11
-7.22646e-12 -2.3058e-11 2.98532e-11
3.20783e-11 -4.17038e-12 4.643e-12
-9.17864e-11 2.26077e-11 -1.9542e-13
8.08219e-11 -2.31711e-10 1.26719e-10
-5.56665e-11 -1.47212e-11 5.12204e-12
1.49799e-10 -7.01552e-11 -2.16488e-12
-1.11013e-11 4.47194e-11 -8.52198e-11
1.75919e-10 1.31002e-10 -3.26755e-11
-2.4967e-10 4.32449e-10 2.34336e-10
1.78772e-11 1.40133e-11 -3.66043e-11
-2.65495e-13 9.9477e-11 -1.1137e-11
-1.36203e-10 5.46439e-11 -7.47641e-12
-5.40786e-12 -3.06272e-11 3.74475e-11
3.51466e-11 6.82337e-11 5.15844e-11
8.68208e-11 1.48803e-11 -2.02812e-11
2.44918e-12 1.27653e-11 2.72268e-11
2.17668e-11 -2.78609e-11 1.64398e-11
1.71788e-11 -1.11286e-10 2.13374e-10
1.44653e-11 5.37046e-11 -1.28075e-11
7.66192e-11 -2.58252e-11 2.17514e-11
-5.40804e-12 1.55168e-11 9.34152e-12
-1.24969e-11 -4.48323e-11 8.65449e-12
-1.41087e-10 4.82523e-11 -4.88566e-11
-1.88896e-11 8.65269e-11 4.36831e-12
1.90086e-10 1.95447e-10 1.04898e-10
3.42727e-11 -1.25731e-11 -6.9635e-11
4.89197e-11 4.94989e-12 -4.9245e-12
1.43815e-10 3.03228e-11 3.73036e-12
3.32475e-10 -9.30262e-11 2.90405e-11
-8.77932e-11 4.35984e-11 -4.42366e-11
1.82909e-10 6.09289e-11 -7.64325e-12
-2.41583e-11 -8.97959e-13 -2.77288e-11
7.97005e-11 8.20581e-11 -1.55267e-11
2.4364e-11 9.9454e-11 -6.79139e-11
5.58702e-12 1.97871e-11 -2.58154e-11
-5.17556e-11 -4.28267e-11 3.89808e-11
3.47074e-11 -2.07231e-11 2.89044e-11
-7.13391e-11 -5.84757e-11 4.16623e-11
-5.05783e-11 -2.55009e-11 -1.09514e-11
2.97418e-10 -3.21752e-10 -2.35926e-10
3.9474e-11 -4.0403e-12 3.9257e-12
6.73348e-11 4.2839e-11 -1.34219e-10
-1.50251e-11 1.11471e-11 -1.72788e-12
-9.27561e-11 -1.05897e-10 -1.67086e-10
8.69576e-11 7.03456e-12 1.14163e-11
-4.41291e-11 9.91715e-11 1.63838e-11
-3.5087e-11 -3.30219e-11 4.23986e-11
-1.35369e-10 1.52102e-10 -8.67766e-11
-4.13361e-11 -9.02059e-12 3.70516e-11
-5.34701e-11 1.90754e-11 -3.52925e-11
4.92872e-11 -3.50246e-11 4.3338e-11
1.5589e-11 9.05258e-11 -6.13652e-11
1.10021e-10 1.63447e-10 1.75872e-11
-2.42439e-10 1.81809e-10 -1.02176e-10
1.81611e-11 -1.15571e-10 6.32913e-11
3.91879e-11 -5.59921e-13 7.42932e-12
3.42626e-11 -1.63206e-10 1.91353e-10
-5.81084e-11 -4.7238e-13 -6.71084e-12
3.91613e-11 -7.02044e-11 -2.38118e-14
5.28776e-11 -2.62324e-11 1.17362e-11
2.45965e-10 -6.77275e-11 3.1085e-11
-2.92444e-11 -2.57312e-12 -8.68767e-12
-8.0961e-12 7.56603e-11 1.72189e-11
2.72572e-10 -1.3498e-10 3.314e-11
1.23892e-11 2.55328e-10 -5.96641e-10
1.27579e-11 5.40038e-11 -1.33172e-11
4.97551e-11 2.50983e-10 -4.9786e-11
-7.8289e-14 -3.42194e-11 6.99985e-12
-2.90581e-10 1.29418e-11 7.98537e-11
1.39729e-11 6.02762e-12 1.3763e-11
7.7812e-12 -9.69263e-11 -4.3936e-11
-1.03245e-10 -2.23967e-11 -6.43874e-11
1.97694e-11 -1.07061e-11 7.13061e-12
4.65491e-10 -4.42325e-11 2.3245e-11
4.09305e-11 5.41531e-11 4.11299e-11
2.33258e-10 -1.83128e-10 1.00761e-10
-1.06506e-11 6.35338e-11 -1.31992e-10
8.39737e-11 -2.83165e-10 1.62537e-10
6.54003e-11 3.99311e-11 -2.7823e-10
1.77544e-10 2.29133e-11 8.23437e-12
-2.68046e-11 -1.62822e-11 1.01236e-10
-1.01664e-10 3.83236e-11 -2.832e-11
-5.37656e-11 4.37538e-11 -5.70798e-12
2.29957e-10 -1.74812e-10 5.48528e-11
9.12219e-11 -6.2754e-11 1.09412e-11
6.54628e-11 2.98496e-11 -1.61711e-11
-5.74407e-11 -8.54187e-11 2.96903e-11
9.64104e-11 -1.90904e-11 4.36396e-11
-1.50146e-10 3.89936e-11 -4.30656e-12
1.6402e-11 -8.34472e-12 7.10499e-12
-1.9404e-10 -8.62253e-11 9.86649e-12
-4.6346e-10 8.48967e-11 -6.57628e-11
1.5497e-10 2.65714e-11 1.74857e-11
-2.67122e-11 9.98966e-12 -1.76074e-11
-3.39753e-11 4.93867e-11 -4.24238e-11
8.28175e-11 -2.83474e-11 6.98269e-11
-2.90946e-10 5.77449e-11 -7.19835e-11
-2.06205e-10 -8.57514e-11 -4.609e-11
1.93951e-10 -3.51076e-11 -2.73355e-11
-2.09471e-12 1.3529e-12 -4.21099e-11
1.39326e-11 4.10054e-11 6.60987e-11
3.9794e-11 -1.17384e-10 7.62917e-11
-9.18621e-11 1.34329e-10 -1.82623e-11
3.68778e-12 1.59719e-11 -1.09684e-11
2.14811e-11 7.65092e-11 1.51634e-11
-1.24514e-10 -3.26715e-10 1.88612e-10
-4.2026e-10 -1.19026e-10 5.04882e-11
4.29091e-11 -2.01623e-10 6.4734e-11
1.25864e-10 -2.42941e-10 1.41253e-10
1.75609e-10 -2.7818e-11 1.29173e-10
-4.37887e-11 -3.48108e-11 4.17479e-11
1.18839e-10 -1.23787e-10 1.35179e-10
-1.72168e-10 -9.25428e-13 -1.08795e-11
1.95126e-11 -1.52633e-10 2.78294e-10
1.57828e-10 -6.21106e-11 1.03803e-10
2.18091e-10 1.12535e-10 -3.36062e-10
-2.322e-11 -6.73402e-11 3.11059e-11
5.29325e-12 -2.49673e-10 1.48076e-10
1.08324e-10 8.44558e-11 -7.37325e-11
-2.30148e-10 -1.76191e-10 8.9845e-11
5.19265e-12 -5.75997e-13 -9.11104e-12
1.72051e-11 8.4058e-11 -4.54352e-11
1.08954e-10 -1.06327e-11 1.49939e-11
-6.10203e-11 -4.17338e-11 2.74325e-11
-8.78038e-11 2.79138e-11 1.42545e-11
-3.79843e-12 1.84932e-11 -1.0677e-12
8.88271e-11 -8.93142e-11 -2.5092e-11
5.68261e-11 -5.29722e-12 -2.35094e-11
-1.00326e-10 9.883e-11 -1.22243e-10
-4.65589e-13 1.74274e-11 -1.85798e-11
1.44063e-10 7.24837e-11 -8.51862e-11
-6.04275e-11 1.27542e-10 -2.07443e-12
-3.0222e-10 -3.05726e-10 1.7404e-10
-1.67436e-10 1.9244e-10 -1.19055e-10
2.807e-10 1.37586e-10 -7.47308e-11
1.52609e-10 1.41072e-10 1.01137e-11
-5.73474e-11 1.94824e-10 2.97243e-10
-1.86974e-10 2.02056e-10 2.25179e-11
2.14728e-10 -7.52756e-11 1.46621e-11
-9.58019e-11 -1.93498e-11 -2.00223e-11
1.64628e-10 8.32992e-13 -1.24286e-11
4.5082e-10 -1.80601e-10 1.11382e-10
-4.18549e-11 -3.08004e-11 1.0779e-11
-1.08713e-10 -9.7534e-11 6.21816e-11
8.46596e-11 9.01472e-11 -2.51412e-11
3.73666e-11 -8.32639e-11 7.04872e-11
-7.6527e-12 -3.11153e-11 2.10832e-11
4.10706e-10 -1.95689e-11 1.14335e-11
-2.30733e-10 2.69816e-10 -1.40035e-10
5.36031e-11 5.60399e-11 -1.79736e-11
8.15615e-12 5.43903e-11 1.30339e-12
-5.03678e-11 -2.83763e-10 -1.61606e-10
1.391e-10 1.11237e-10 8.63613e-11
6.87652e-13 7.11674e-11 1.67443e-10
-5.55291e-11 2.0298e-11 3.9416e-12
-2.07364e-10 7.89802e-11 -1.30341e-11
3.73797e-11 -6.58487e-11 2.20031e-11
-2.46323e-10 1.50818e-10 -1.12185e-10
1.64792e-11 -1.06781e-11 -7.23626e-11
1.78517e-11 1.61839e-10 -6.39127e-11
1.77854e-10 -6.3341e-11 -1.04394e-11
-1.01806e-11 1.12921e-10 1.1172e-11
-7.73314e-11 2.37201e-10 -7.43702e-11
-1.66105e-13 5.49433e-12 -1.92514e-10
-7.29362e-11 -2.93057e-11 -5.74949e-11
-2.70466e-11 -7.59174e-11 1.83167e-11
8.09635e-11 -1.63943e-10 -7.64479e-12
1.95285e-10 -5.82172e-11 1.54437e-11
-4.16558e-11 -1.01157e-11 2.53117e-11
-8.81592e-11 1.71093e-10 -7.35518e-11
1.17102e-10 -2.39322e-11 -1.29009e-10
-6.6275e-11 2.05986e-10 -2.95821e-10
-4.31323e-11 -6.49992e-11 2.60848e-11
-7.96264e-11 6.73768e-11 -1.57846e-11
6.09397e-11 -1.55438e-10 6.34368e-11
-1.00564e-11 -3.79469e-11 7.74879e-11
-6.38449e-11 -7.45832e-11 1.34459e-11
2.72053e-10 8.62603e-12 -2.07229e-11
-2.57311e-12 -6.55637e-11 3.74288e-11
-4.09173e-11 -7.90529e-11 -5.27597e-11
-4.11213e-11 -4.98412e-11 -1.36135e-11
-1.19987e-10 -5.27381e-11 2.11388e-10
5.83053e-11 2.18771e-11 -1.52719e-11
5.9253e-13 1.08624e-10 1.75888e-11
8.28156e-11 2.88298e-12 -1.29132e-12
3.45798e-11 -1.11776e-10 1.93066e-11
-1.10805e-10 -1.99721e-10 1.42486e-12
-1.63433e-10 1.32656e-10 -2.98695e-11
-5.01977e-11 9.81226e-11 4.77302e-12
1.27595e-10 -4.43796e-10 4.30826e-11
3.08591e-11 5.99323e-11 1.74564e-10
-7.42718e-11 -1.65385e-10 -1.01604e-10
7.24414e-11 6.44071e-11 -1.06488e-10
8.5336e-13 1.13264e-11 -5.40997e-12
-7.22827e-11 -8.85212e-11 4.85702e-11
-1.1901e-10 2.71482e-10 -1.14331e-10
-6.5925e-11 4.36008e-11 -2.05059e-11
-1.27027e-10 -1.81061e-11 -7.8835e-11
-1.57272e-10 -1.77376e-11 -4.36155e-11
-1.36584e-10 9.60618e-12 -2.0851e-11
4.69237e-13 3.27474e-10 -1.22467e-10
3.35104e-11 -6.21601e-12 6.56202e-11
-2.6911e-10 6.6361e-11 -1.55483e-11
1.99742e-10 1.79287e-11 9.29545e-11
-4.70405e-12 4.41285e-12 2.49974e-11
3.98608e-11 -9.71674e-12 -1.28199e-12
7.72642e-11 -3.07375e-11 8.65122e-12
1.15126e-10 -2.57647e-11 1.57601e-11
4.82652e-12 -7.92809e-11 2.01072e-11
-8.01281e-11 -9.52074e-11 -2.70269e-11
-2.4902e-10 9.63428e-11 -1.0364e-10
2.21884e-10 -2.72449e-10 7.16873e-11
5.57024e-12 -6.37186e-11 4.0879e-11
5.56281e-12 6.24359e-11 1.33378e-11
1.08064e-10 -1.45732e-11 3.61737e-13
2.60268e-11 -1.12641e-10 1.06676e-11
1.87743e-12 -1.2759e-10 4.20068e-11
2.41433e-10 -1.04656e-10 -5.18869e-11
4.14889e-12 -1.47573e-12 -3.83578e-12
8.52237e-12 -1.80055e-10 3.26401e-11
2.89901e-10 -1.97671e-10 4.15887e-11
-1.517e-12 -4.58564e-12 8.03332e-13
-2.13112e-12 -1.05158e-12 3.72805e-12
-1.9217e-11 -2.81077e-10 -1.34711e-10
2.65841e-12 7.74467e-12 -3.05003e-12
2.01899e-11 2.38607e-11 -1.8346e-11
-1.20821e-11 5.17336e-11 -7.77248e-11
-1.31797e-10 -1.3327e-10 -5.23633e-11
-8.16732e-11 -4.78177e-11 3.18726e-11
5.16988e-25 -1.03398e-24 1.86116e-24
3.20151e-12 9.50331e-12 -3.11826e-12
4.69408e-11 3.72446e-11 -1.07864e-11
1.30717e-10 -3.4647e-11 4.96687e-12
1.54133e-10 1.45094e-10 -5.05756e-11
-6.38016e-12 -2.1193e-11 -4.87178e-12
-1.71825e-11 -7.40894e-11 2.4447e-11
3.98767e-11 -2.05333e-11 7.44243e-12
-3.17434e-11 -1.45159e-11 -2.0298e-11
1.57225e-10 -9.75199e-11 2.64723e-11
1.32527e-10 -1.4802e-10 8.08006e-12
5.70885e-11 -4.43915e-11 4.37289e-12
-6.24672e-13 -3.10309e-12 1.6223e-12
-8.17232e-11 4.38372e-11 -6.58753e-12
-1.25083e-10 1.98315e-10 -1.4626e-10
-1.22266e-11 8.08687e-12 -8.6053e-11
3.3838e-11 1.82858e-10 -5.07091e-11
5.38191e-11 1.05542e-10 2.79664e-10
-1.01995e-10 1.11413e-11 2.28037e-12
8.89577e-11 -1.46688e-11 3.6114e-12
-5.66615e-11 -1.15741e-10 5.09081e-11
4.94246e-11 -4.29056e-12 -8.30113e-12
1.87048e-11 -2.3488e-11 1.04315e-11
-2.51823e-11 1.01123e-10 -7.03153e-11
-2.99263e-11 4.78413e-12 1.42144e-10
-5.37066e-11 -1.38181e-10 5.05879e-11
-1.41863e-10 4.91114e-11 -2.09143e-11
-7.62493e-22 -1.18494e-22 1.46825e-23
-1.28122e-12 -6.48544e-12 3.39433e-12
2.70176e-11 -2.32605e-10 2.13351e-11
-1.16795e-12 -4.79214e-12 2.31945e-12
1.05025e-13 1.40386e-12 5.99312e-13
1.81125e-10 -1.86618e-11 -1.26028e-11
6.78659e-11 -9.0648e-11 -1.1818e-11
5.09089e-11 4.05419e-12 -7.0193e-12
-2.83184e-11 -3.37972e-11 -9.96362e-11
3.54807e-11 -4.11377e-11 1.13432e-11
6.52937e-11 -2.63639e-11 -8.91802e-12
-5.55682e-11 -1.0404e-10 3.94509e-11
-4.67294e-12 2.38727e-10 1.37429e-10
-1.52324e-10 -6.67867e-11 -4.44708e-11
1.93605e-11 -1.16092e-10 4.27274e-11
1.90449e-10 1.04737e-11 -3.4172e-11
-2.35149e-10 -8.22088e-11 1.99727e-11
8.37567e-12 8.4227e-11 -2.77929e-11
-5.67814e-11 -7.91849e-11 5.77156e-11
1.44438e-12 1.25969e-10 7.76658e-12
