# vtk DataFile Version 3.0
LIGGGHTS particles timestep 10000000
ASCII
DATASET POLYDATA
POINTS 289 float
0.058906 0.0165926 0.00787004
0.0592111 0.0174424 0.00718704
0.059054 0.0172695 0.00732872
0.0591427 0.0175153 0.00718635
0.0585307 0.0163108 0.00814774
0.0646634 0.0167431 0.00768701
0.0586766 0.0167945 0.00766304
0.0585099 0.0162417 0.00821697
0.0649665 0.0180037 0.00705258
0.0588118 0.0172613 0.007332
0.0589195 0.0169875 0.00747261
0.0649264 0.017808 0.00704385
0.0587852 0.0171939 0.00740085
0.0524442 0.0158967 0.00821249
0.0588353 0.0170248 0.00743365
0.0524249 0.0158432 0.00829476
0.0587517 0.0170756 0.0075216
0.0648703 0.0175386 0.00711992
0.0587102 0.0169374 0.00766008
0.0590353 0.0170781 0.00738322
0.0585517 0.0163799 0.00807853
0.058814 0.0169557 0.00750294
0.0648858 0.0176136 0.00705563
0.0587931 0.0168866 0.00757221
0.064771 0.0171402 0.00740292
0.0527847 0.0172193 0.00744765
0.058731 0.0170064 0.00759085
0.0646419 0.0166631 0.007743
0.0588168 0.0171196 0.00745979
0.0587602 0.0170708 0.00738618
0.064685 0.0168231 0.00763103
0.0589178 0.0172578 0.00731608
0.0588566 0.0167802 0.00768029
0.0649865 0.0181016 0.00705695
0.0586557 0.0167254 0.00773227
0.0587723 0.0168175 0.00764144
0.0648148 0.0172976 0.00728759
0.0586974 0.0168636 0.00759381
0.0588103 0.0165714 0.0078899
0.0587183 0.0169326 0.00752458
0.0589563 0.0171265 0.00733326
0.0592583 0.0176442 0.00718254
0.0647065 0.0169035 0.00757556
0.0647924 0.017219 0.00734519
0.0585932 0.0165182 0.00793997
0.059017 0.0170094 0.00745358
0.0647501 0.0170614 0.00746072
0.0589367 0.0174292 0.00719151
0.0530528 0.0171953 0.00740717
0.0648321 0.017377 0.0072293
0.0589348 0.0167323 0.00772986
0.0524636 0.0159515 0.00813117
0.0589852 0.0173209 0.00727751
0.064728 0.0169827 0.00751837
0.0527929 0.0168716 0.00755718
0.0649065 0.0177101 0.00703952
0.0589962 0.0169396 0.00752206
0.0585724 0.016449 0.00800927
0.0589397 0.0170567 0.00740329
0.0591215 0.0174273 0.00722872
0.0648523 0.0174636 0.00718353
0.0584891 0.0161727 0.0082862
0.0529259 0.0170806 0.0074622
0.0590431 0.0171748 0.00735889
0.0528886 0.0168979 0.00754099
0.0587391 0.0170017 0.00745535
0.0650066 0.0181995 0.00706132
0.0524831 0.0160082 0.00805107
0.0649481 0.0179056 0.00704814
0.0586141 0.0165872 0.00787074
0.0592419 0.0171941 0.00726972
0.0586349 0.0166563 0.0078015
0.0649459 0.0174827 0.00715402
0.0590432 0.0183684 0.00717061
0.0525239 0.0161279 0.00788433
0.0526317 0.0165758 0.00769012
0.0590937 0.0177547 0.00718217
0.0527497 0.0166924 0.00763481
0.0528043 0.0172906 0.0073804
0.0525452 0.0162175 0.00784539
0.064927 0.0174036 0.00721211
0.0525965 0.0160966 0.00795481
0.0588765 0.0175861 0.00718787
0.0650429 0.0179375 0.00704628
0.0589981 0.0177228 0.00718384
0.0590528 0.0175589 0.00718647
0.0590322 0.0174609 0.00718863
0.0588743 0.0171661 0.00729204
0.0592042 0.0178089 0.00717989
0.0591019 0.0182117 0.00717306
0.0589776 0.0176249 0.007186
0.0590212 0.0182709 0.00717278
0.0591142 0.0178525 0.00718001
0.0590596 0.0180163 0.00717738
0.0528369 0.0170571 0.00750123
0.0592993 0.0178398 0.00717823
0.0529415 0.0167455 0.00760224
0.0587964 0.0172096 0.00724692
0.0588983 0.0169185 0.00754179
0.0529776 0.0172574 0.00738511
0.0525028 0.0160649 0.00796924
0.0588355 0.0173905 0.00719385
0.0525583 0.0159754 0.00810906
0.0588959 0.0171904 0.00738659
0.0589764 0.0171956 0.00726391
0.0588969 0.017684 0.00718572
0.0589985 0.0181734 0.00717495
0.0527182 0.0169342 0.00753486
0.0589174 0.0177819 0.00718356
0.0528683 0.0175596 0.00726392
0.0590792 0.017355 0.00728339
0.0591428 0.0171833 0.007279
0.0584684 0.0161036 0.00835546
0.0529429 0.0174968 0.00728631
0.0646203 0.0165831 0.00779898
0.0588774 0.0168493 0.00761106
0.0584474 0.0160345 0.00842467
0.0592455 0.0180045 0.00717557
0.052685 0.0164238 0.00775162
0.0591773 0.018146 0.00717353
0.0587096 0.01661 0.00784931
0.0588575 0.0170961 0.00736225
0.0525884 0.0163967 0.00776775
0.0589572 0.017527 0.00718815
0.0528774 0.0172265 0.00740346
0.05878 0.01714 0.00731678
0.052957 0.0171676 0.00742396
0.0592378 0.0175463 0.0071847
0.0587515 0.0167484 0.00771067
0.0589893 0.0172656 0.00719365
0.0589219 0.0166623 0.00780012
0.052539 0.0159173 0.00818816
0.0591554 0.0180482 0.0071757
0.0590732 0.0176568 0.00718432
0.0590117 0.017363 0.00719079
0.0590391 0.0179185 0.00717953
0.0526252 0.0161667 0.00788952
0.0588932 0.0172363 0.00722157
0.0589161 0.0173325 0.00720616
0.058856 0.0174883 0.00719002
0.0593415 0.0180353 0.00717392
0.0525775 0.0160334 0.00802989
0.0588151 0.0172926 0.00719433
0.0590185 0.0178206 0.00718169
0.0584266 0.0159654 0.0084939
0.0529832 0.0176771 0.00720835
0.0584057 0.0158963 0.00856314
0.0528475 0.0174698 0.00730277
0.0526749 0.016755 0.00761249
0.0529096 0.0169877 0.00750214
0.0590594 0.0181717 0.00725427
0.0528426 0.0171379 0.00744257
0.0586675 0.0164719 0.00798847
0.0530991 0.0177966 0.00715192
0.0591644 0.0185051 0.00716659
0.0530744 0.0172849 0.00736835
0.0590837 0.0185642 0.0071663
0.0530205 0.0174366 0.00730746
0.0588182 0.0166417 0.00781923
0.0528454 0.0167187 0.00761863
0.0589583 0.0179776 0.00717925
0.0532865 0.0177844 0.00714705
0.0529632 0.0175872 0.00724724
0.0592247 0.0179067 0.00717773
0.0532383 0.0180144 0.00705292
0.0592671 0.0181021 0.00717341
0.0530602 0.0176165 0.0072297
0.0531283 0.0171335 0.00742914
0.052759 0.0171219 0.00749516
0.0530961 0.0173749 0.00732937
0.0529992 0.017347 0.00734629
0.0528883 0.0176495 0.00722504
0.0589379 0.0178797 0.0071814
0.0527281 0.016603 0.0076741
0.0587304 0.0166791 0.00778008
0.0531806 0.0177418 0.00717062
0.0592058 0.0173425 0.00718907
0.0530031 0.0177671 0.00716945
0.0526533 0.0166654 0.00765131
0.0650266 0.0182974 0.00706568
0.0592947 0.0182734 0.00716973
0.0589729 0.0168709 0.00759088
0.0529082 0.0177395 0.00718616
0.0591993 0.0182436 0.00717136
0.0529281 0.0178294 0.00714727
0.0591347 0.0179503 0.00717786
0.0586261 0.0163334 0.0081266
0.0533152 0.0178943 0.00709929
0.0528235 0.0166289 0.00765757
0.0586051 0.0162643 0.0081958
0.0527713 0.016782 0.007596
0.0532408 0.0175943 0.0072294
0.0526101 0.0164863 0.00772894
0.0531165 0.0183103 0.00693504
0.0531181 0.0174665 0.00728969
0.0588393 0.0167107 0.00775004
0.0531384 0.0175577 0.00725026
0.0528259 0.0173802 0.00734159
0.0530409 0.0175265 0.0072686
0.0529635 0.0168354 0.00756326
0.0532007 0.0178333 0.00713107
0.0527398 0.0170238 0.00749604
0.05918 0.017249 0.00721345
0.0591239 0.0183092 0.00717089
0.0649812 0.0176438 0.00703581
0.0589788 0.0180754 0.0071771
0.0529004 0.0173174 0.007364
0.0529221 0.017407 0.00732518
0.0593202 0.0179376 0.00717608
0.0591044 0.018662 0.00716415
0.0590802 0.0181141 0.00717522
0.0587385 0.0165217 0.00793872
0.0527064 0.0165132 0.00771244
0.0586468 0.0164025 0.00805735
0.0526966 0.0168446 0.00757367
0.0525668 0.0163071 0.00780657
0.0649637 0.0175643 0.00709418
0.053137 0.0179769 0.0070741
0.0524055 0.0157898 0.00837703
0.0530227 0.0178574 0.00713046
0.0528145 0.0169611 0.00751836
0.0533513 0.0181347 0.00699631
0.0529663 0.0180097 0.00706946
0.052867 0.0168083 0.00757981
0.0591437 0.0184072 0.00716874
0.0591838 0.017711 0.00718204
0.0530997 0.0186707 0.00694217
0.053041 0.0183754 0.00692825
0.0532314 0.0184468 0.00694792
0.0530419 0.017948 0.00709134
0.0465908 0.0163929 0.00774882
0.0530219 0.0182804 0.00695271
0.0530607 0.0180382 0.00705242
0.0465697 0.0163236 0.00781776
0.0466118 0.0164623 0.00767987
0.0530795 0.0181287 0.00701338
0.0466541 0.0166495 0.00762432
0.0585634 0.0161261 0.00833428
0.0592191 0.0183416 0.00716921
0.052985 0.0180998 0.00703054
0.0585842 0.0161952 0.00826503
0.0589522 0.0168018 0.00766012
0.0466332 0.0165547 0.00764841
0.0531595 0.0176493 0.00721062
0.0531182 0.0178867 0.00711301
0.0529852 0.016926 0.00752401
0.0530036 0.0181901 0.00699162
0.0533714 0.0182318 0.00695467
0.0532122 0.0183503 0.00696542
0.0532649 0.0176906 0.00718761
0.0591632 0.0176131 0.00718419
0.05308 0.0185723 0.00693752
0.0532907 0.0182907 0.00694891
0.046717 0.0169338 0.00755206
0.0531356 0.0184084 0.00693795
0.0529475 0.0179195 0.00710838
0.0591851 0.0186029 0.00716443
0.0530324 0.0171055 0.00744603
0.0532201 0.0179241 0.00709185
0.0531738 0.0181575 0.00699646
0.053192 0.0182525 0.00697119
0.0531784 0.0186093 0.00694769
0.053254 0.0185441 0.00695281
0.0531553 0.0180672 0.00703517
0.0532748 0.0181972 0.00698066
0.0533335 0.0179846 0.00706035
0.0531195 0.0187697 0.00694685
0.0590631 0.0184664 0.00716846
0.0466751 0.0167443 0.00760023
0.0467794 0.0167841 0.00757993
0.0531736 0.0173153 0.00735028
0.0467379 0.0170286 0.00752798
0.046696 0.016839 0.00757615
0.0530978 0.018219 0.00697441
0.0530606 0.0184743 0.00693291
0.0532568 0.0181047 0.00701407
0.0588469 0.017338 0.00727818
0.0531569 0.0185124 0.00695986
0.0526416 0.0162445 0.00782887
0.0533122 0.0183882 0.0069537
0.0531503 0.0172235 0.00739011
0.0591059 0.0173296 0.00719042
0.0531975 0.0187074 0.00695227
0.0526633 0.0163351 0.00779235
0.0590816 0.0175098 0.00726865
0.0591219 0.0171142 0.00734824
0.0530799 0.0177065 0.00719082
0.0530033 0.0170179 0.00748443
0.059081 0.0172383 0.00722268

VERTICES 289 578
1 0
1 1
1 2
1 3
1 4
1 5
1 6
1 7
1 8
1 9
1 10
1 11
1 12
1 13
1 14
1 15
1 16
1 17
1 18
1 19
1 20
1 21
1 22
1 23
1 24
1 25
1 26
1 27
1 28
1 29
1 30
1 31
1 32
1 33
1 34
1 35
1 36
1 37
1 38
1 39
1 40
1 41
1 42
1 43
1 44
1 45
1 46
1 47
1 48
1 49
1 50
1 51
1 52
1 53
1 54
1 55
1 56
1 57
1 58
1 59
1 60
1 61
1 62
1 63
1 64
1 65
1 66
1 67
1 68
1 69
1 70
1 71
1 72
1 73
1 74
1 75
1 76
1 77
1 78
1 79
1 80
1 81
1 82
1 83
1 84
1 85
1 86
1 87
1 88
1 89
1 90
1 91
1 92
1 93
1 94
1 95
1 96
1 97
1 98
1 99
1 100
1 101
1 102
1 103
1 104
1 105
1 106
1 107
1 108
1 109
1 110
1 111
1 112
1 113
1 114
1 115
1 116
1 117
1 118
1 119
1 120
1 121
1 122
1 123
1 124
1 125
1 126
1 127
1 128
1 129
1 130
1 131
1 132
1 133
1 134
1 135
1 136
1 137
1 138
1 139
1 140
1 141
1 142
1 143
1 144
1 145
1 146
1 147
1 148
1 149
1 150
1 151
1 152
1 153
1 154
1 155
1 156
1 157
1 158
1 159
1 160
1 161
1 162
1 163
1 164
1 165
1 166
1 167
1 168
1 169
1 170
1 171
1 172
1 173
1 174
1 175
1 176
1 177
1 178
1 179
1 180
1 181
1 182
1 183
1 184
1 185
1 186
1 187
1 188
1 189
1 190
1 191
1 192
1 193
1 194
1 195
1 196
1 197
1 198
1 199
1 200
1 201
1 202
1 203
1 204
1 205
1 206
1 207
1 208
1 209
1 210
1 211
1 212
1 213
1 214
1 215
1 216
1 217
1 218
1 219
1 220
1 221
1 222
1 223
1 224
1 225
1 226
1 227
1 228
1 229
1 230
1 231
1 232
1 233
1 234
1 235
1 236
1 237
1 238
1 239
1 240
1 241
1 242
1 243
1 244
1 245
1 246
1 247
1 248
1 249
1 250
1 251
1 252
1 253
1 254
1 255
1 256
1 257
1 258
1 259
1 260
1 261
1 262
1 263
1 264
1 265
1 266
1 267
1 268
1 269
1 270
1 271
1 272
1 273
1 274
1 275
1 276
1 277
1 278
1 279
1 280
1 281
1 282
1 283
1 284
1 285
1 286
1 287
1 288

POINT_DATA 289
SCALARS id int 1
LOOKUP_TABLE default
1
2
3
4
5
6
7
8
9
10
11
12
13
14
15
16
17
18
19
20
21
22
24
25
26
27
29
30
31
32
33
34
35
36
37
38
39
40
41
42
43
44
45
46
47
48
49
50
52
53
54
55
56
57
58
59
60
61
62
63
64
65
66
67
68
69
70
71
72
73
74
75
76
77
78
79
80
81
82
83
84
85
86
87
88
89
90
91
92
93
94
95
96
98
99
100
101
102
103
104
105
106
107
108
109
110
111
112
113
114
115
116
117
118
119
120
121
122
123
124
125
126
127
128
129
130
131
132
133
134
135
136
137
138
139
140
141
142
144
145
146
147
148
149
150
152
153
154
155
156
157
158
159
160
161
162
164
165
166
167
168
169
170
171
172
173
174
175
176
177
178
179
180
181
182
183
184
185
186
187
188
189
190
191
192
193
194
195
196
197
198
199
200
201
202
203
204
205
206
207
208
209
210
211
213
214
215
216
217
218
219
220
221
222
223
224
225
226
227
228
229
230
231
232
233
234
235
236
237
238
239
241
242
243
244
245
246
247
248
249
250
251
252
253
254
255
256
257
258
259
260
261
262
263
264
265
267
268
269
270
271
272
273
274
275
276
277
278
279
280
281
282
283
284
285
286
287
288
289
290
292
293
294
295
296
297
298
299
300

SCALARS type int 1
LOOKUP_TABLE default
1
1
1
1
1
1
1
1
1
1
1
1
1
1
1
1
1
1
1
1
1
1
1
1
1
1
1
1
1
1
1
1
1
1
1
1
1
1
1
1
1
1
1
1
1
1
1
1
1
1
1
1
1
1
1
1
1
1
1
1
1
1
1
1
1
1
1
1
1
1
1
1
1
1
1
1
1
1
1
1
1
1
1
1
1
1
1
1
1
1
1
1
1
1
1
1
1
1
1
1
1
1
1
1
1
1
1
1
1
1
1
1
1
1
1
1
1
1
1
1
1
1
1
1
1
1
1
1
1
1
1
1
1
1
1
1
1
1
1
1
1
1
1
1
1
1
1
1
1
1
1
1
1
1
1
1
1
1
1
1
1
1
1
1
1
1
1
1
1
1
1
1
1
1
1
1
1
1
1
1
1
1
1
1
1
1
1
1
1
1
1
1
1
1
1
1
1
1
1
1
1
1
1
1
1
1
1
1
1
1
1
1
1
1
1
1
1
1
1
1
1
1
1
1
1
1
1
1
1
1
1
1
1
1
1
1
1
1
1
1
1
1
1
1
1
1
1
1
1
1
1
1
1
1
1
1
1
1
1
1
1
1
1
1
1
1
1
1
1
1
1
1
1
1
1
1
1
1
1
1
1
1
1
1
1
1
1
1
1

SCALARS radius float 1
LOOKUP_TABLE default
5e-05
5e-05
5e-05
5e-05
5e-05
5e-05
5e-05
5e-05
5e-05
5e-05
5e-05
5e-05
5e-05
5e-05
5e-05
5e-05
5e-05
5e-05
5e-05
5e-05
5e-05
5e-05
5e-05
5e-05
5e-05
5e-05
5e-05
5e-05
5e-05
5e-05
5e-05
5e-05
5e-05
5e-05
5e-05
5e-05
5e-05
5e-05
5e-05
5e-05
5e-05
5e-05
5e-05
5e-05
5e-05
5e-05
5e-05
5e-05
5e-05
5e-05
5e-05
5e-05
5e-05
5e-05
5e-05
5e-05
5e-05
5e-05
5e-05
5e-05
5e-05
5e-05
5e-05
5e-05
5e-05
5e-05
5e-05
5e-05
5e-05
5e-05
5e-05
5e-05
5e-05
5e-05
5e-05
5e-05
5e-05
5e-05
5e-05
5e-05
5e-05
5e-05
5e-05
5e-05
5e-05
5e-05
5e-05
5e-05
5e-05
5e-05
5e-05
5e-05
5e-05
5e-05
5e-05
5e-05
5e-05
5e-05
5e-05
5e-05
5e-05
5e-05
5e-05
5e-05
5e-05
5e-05
5e-05
5e-05
5e-05
5e-05
5e-05
5e-05
5e-05
5e-05
5e-05
5e-05
5e-05
5e-05
5e-05
5e-05
5e-05
5e-05
5e-05
5e-05
5e-05
5e-05
5e-05
5e-05
5e-05
5e-05
5e-05
5e-05
5e-05
5e-05
5e-05
5e-05
5e-05
5e-05
5e-05
5e-05
5e-05
5e-05
5e-05
5e-05
5e-05
5e-05
5e-05
5e-05
5e-05
5e-05
5e-05
5e-05
5e-05
5e-05
5e-05
5e-05
5e-05
5e-05
5e-05
5e-05
5e-05
5e-05
5e-05
5e-05
5e-05
5e-05
5e-05
5e-05
5e-05
5e-05
5e-05
5e-05
5e-05
5e-05
5e-05
5e-05
5e-05
5e-05
5e-05
5e-05
5e-05
5e-05
5e-05
5e-05
5e-05
5e-05
5e-05
5e-05
5e-05
5e-05
5e-05
5e-05
5e-05
5e-05
5e-05
5e-05
5e-05
5e-05
5e-05
5e-05
5e-05
5e-05
5e-05
5e-05
5e-05
5e-05
5e-05
5e-05
5e-05
5e-05
5e-05
5e-05
5e-05
5e-05
5e-05
5e-05
5e-05
5e-05
5e-05
5e-05
5e-05
5e-05
5e-05
5e-05
5e-05
5e-05
5e-05
5e-05
5e-05
5e-05
5e-05
5e-05
5e-05
5e-05
5e-05
5e-05
5e-05
5e-05
5e-05
5e-05
5e-05
5e-05
5e-05
5e-05
5e-05
5e-05
5e-05
5e-05
5e-05
5e-05
5e-05
5e-05
5e-05
5e-05
5e-05
5e-05
5e-05
5e-05
5e-05
5e-05
5e-05
5e-05
5e-05
5e-05
5e-05
5e-05
5e-05
5e-05
5e-05
5e-05
5e-05
5e-05
5e-05
5e-05
5e-05
5e-05
5e-05
5e-05
5e-05
5e-05
5e-05
5e-05
5e-05
5e-05
5e-05
5e-05
5e-05
5e-05
5e-05

SCALARS mass float 1
LOOKUP_TABLE default
1.46608e-10
1.46608e-10
1.46608e-10
1.46608e-10
1.46608e-10
1.46608e-10
1.46608e-10
1.46608e-10
1.46608e-10
1.46608e-10
1.46608e-10
1.46608e-10
1.46608e-10
1.46608e-10
1.46608e-10
1.46608e-10
1.46608e-10
1.46608e-10
1.46608e-10
1.46608e-10
1.46608e-10
1.46608e-10
1.46608e-10
1.46608e-10
1.46608e-10
1.46608e-10
1.46608e-10
1.46608e-10
1.46608e-10
1.46608e-10
1.46608e-10
1.46608e-10
1.46608e-10
1.46608e-10
1.46608e-10
1.46608e-10
1.46608e-10
1.46608e-10
1.46608e-10
1.46608e-10
1.46608e-10
1.46608e-10
1.46608e-10
1.46608e-10
1.46608e-10
1.46608e-10
1.46608e-10
1.46608e-10
1.46608e-10
1.46608e-10
1.46608e-10
1.46608e-10
1.46608e-10
1.46608e-10
1.46608e-10
1.46608e-10
1.46608e-10
1.46608e-10
1.46608e-10
1.46608e-10
1.46608e-10
1.46608e-10
1.46608e-10
1.46608e-10
1.46608e-10
1.46608e-10
1.46608e-10
1.46608e-10
1.46608e-10
1.46608e-10
1.46608e-10
1.46608e-10
1.46608e-10
1.46608e-10
1.46608e-10
1.46608e-10
1.46608e-10
1.46608e-10
1.46608e-10
1.46608e-10
1.46608e-10
1.46608e-10
1.46608e-10
1.46608e-10
1.46608e-10
1.46608e-10
1.46608e-10
1.46608e-10
1.46608e-10
1.46608e-10
1.46608e-10
1.46608e-10
1.46608e-10
1.46608e-10
1.46608e-10
1.46608e-10
1.46608e-10
1.46608e-10
1.46608e-10
1.46608e-10
1.46608e-10
1.46608e-10
1.46608e-10
1.46608e-10
1.46608e-10
1.46608e-10
1.46608e-10
1.46608e-10
1.46608e-10
1.46608e-10
1.46608e-10
1.46608e-10
1.46608e-10
1.46608e-10
1.46608e-10
1.46608e-10
1.46608e-10
1.46608e-10
1.46608e-10
1.46608e-10
1.46608e-10
1.46608e-10
1.46608e-10
1.46608e-10
1.46608e-10
1.46608e-10
1.46608e-10
1.46608e-10
1.46608e-10
1.46608e-10
1.46608e-10
1.46608e-10
1.46608e-10
1.46608e-10
1.46608e-10
1.46608e-10
1.46608e-10
1.46608e-10
1.46608e-10
1.46608e-10
1.46608e-10
1.46608e-10
1.46608e-10
1.46608e-10
1.46608e-10
1.46608e-10
1.46608e-10
1.46608e-10
1.46608e-10
1.46608e-10
1.46608e-10
1.46608e-10
1.46608e-10
1.46608e-10
1.46608e-10
1.46608e-10
1.46608e-10
1.46608e-10
1.46608e-10
1.46608e-10
1.46608e-10
1.46608e-10
1.46608e-10
1.46608e-10
1.46608e-10
1.46608e-10
1.46608e-10
1.46608e-10
1.46608e-10
1.46608e-10
1.46608e-10
1.46608e-10
1.46608e-10
1.46608e-10
1.46608e-10
1.46608e-10
1.46608e-10
1.46608e-10
1.46608e-10
1.46608e-10
1.46608e-10
1.46608e-10
1.46608e-10
1.46608e-10
1.46608e-10
1.46608e-10
1.46608e-10
1.46608e-10
1.46608e-10
1.46608e-10
1.46608e-10
1.46608e-10
1.46608e-10
1.46608e-10
1.46608e-10
1.46608e-10
1.46608e-10
1.46608e-10
1.46608e-10
1.46608e-10
1.46608e-10
1.46608e-10
1.46608e-10
1.46608e-10
1.46608e-10
1.46608e-10
1.46608e-10
1.46608e-10
1.46608e-10
1.46608e-10
1.46608e-10
1.46608e-10
1.46608e-10
1.46608e-10
1.46608e-10
1.46608e-10
1.46608e-10
1.46608e-10
1.46608e-10
1.46608e-10
1.46608e-10
1.46608e-10
1.46608e-10
1.46608e-10
1.46608e-10
1.46608e-10
1.46608e-10
1.46608e-10
1.46608e-10
1.46608e-10
1.46608e-10
1.46608e-10
1.46608e-10
1.46608e-10
1.46608e-10
1.46608e-10
1.46608e-10
1.46608e-10
1.46608e-10
1.46608e-10
1.46608e-10
1.46608e-10
1.46608e-10
1.46608e-10
1.46608e-10
1.46608e-10
1.46608e-10
1.46608e-10
1.46608e-10
1.46608e-10
1.46608e-10
1.46608e-10
1.46608e-10
1.46608e-10
1.46608e-10
1.46608e-10
1.46608e-10
1.46608e-10
1.46608e-10
1.46608e-10
1.46608e-10
1.46608e-10
1.46608e-10
1.46608e-10
1.46608e-10
1.46608e-10
1.46608e-10
1.46608e-10
1.46608e-10
1.46608e-10
1.46608e-10
1.46608e-10
1.46608e-10
1.46608e-10
1.46608e-10
1.46608e-10
1.46608e-10
1.46608e-10
1.46608e-10
1.46608e-10
1.46608e-10
1.46608e-10
1.46608e-10
1.46608e-10
1.46608e-10
1.46608e-10
1.46608e-10
1.46608e-10
1.46608e-10

VECTORS velocity float
0.00473507 7.15025e-05 4.11144e-06
0.00458601 0.00019528 -5.52207e-05
0.00459182 0.000159319 -6.87677e-05
0.00458094 0.00017646 -5.42303e-05
0.00456866 0.000117053 -4.22106e-05
0.00482325 0.000245028 -0.000269368
0.00477779 0.000110122 -3.0736e-05
0.00452536 0.000117353 -4.6645e-05
0.00441768 0.000414716 -0.000142707
0.00452209 0.000146371 -2.17864e-05
0.00469994 0.000119951 -4.65887e-05
0.00447251 0.000404039 -0.000145587
0.00462055 0.000108147 -2.76781e-05
0.00437711 0.000151427 0.000133743
0.00471003 0.000127112 -5.06985e-05
0.00436504 0.000152245 0.000133901
0.00476429 0.000126478 -3.47879e-05
0.00468151 0.000358118 -0.000140392
0.00481787 0.000108394 -5.35806e-05
0.00459334 0.000149565 -7.94775e-05
0.0046057 0.000108877 -3.42534e-05
0.0048697 9.47259e-05 -1.70806e-05
0.00469832 0.000354633 -0.000140774
0.0048052 7.22999e-05 3.05908e-06
0.00491004 0.000325825 -0.000114685
0.00475476 -0.000254374 -0.000133635
0.00479733 0.000121926 -4.27324e-05
0.00481171 0.000247948 -0.000271381
0.00471291 0.000133309 -5.93421e-05
0.00468651 0.000105525 -3.24345e-05
0.00483894 0.000243502 -0.000267305
0.004559 0.000131456 -3.97202e-05
0.00478176 7.22212e-05 5.39528e-06
0.00445355 0.000405477 -0.000144223
0.00473892 0.000114925 -3.91765e-05
0.00477454 7.41367e-05 -4.26182e-07
0.00473278 0.000356664 -0.000142249
0.00479786 9.53534e-05 -2.24996e-05
0.00473426 4.96739e-05 2.71164e-05
0.00482883 8.86305e-05 -1.34993e-05
0.00458613 0.000115503 -4.01492e-05
0.00454955 0.00020086 -5.40557e-05
0.00485517 0.000288238 -0.00019373
0.00491393 0.000323161 -0.000113371
0.00465728 0.000128977 -5.39469e-05
0.0046269 0.000134992 -7.66356e-05
0.00488705 0.000330705 -0.000119143
0.00454056 0.000136839 -4.51316e-05
0.00477699 -0.000243194 -0.000153183
0.00456109 0.000380706 -0.000163021
0.0047654 8.42443e-05 -7.86857e-06
0.00440197 0.000228628 0.000186839
0.00456231 0.000137479 -5.06088e-05
0.00486972 0.000334141 -0.000122615
0.00477327 -0.000244396 -0.000152332
0.00460144 0.000376538 -0.000145276
0.00470194 0.000126307 -4.75078e-05
0.00462317 0.000106892 -3.28229e-05
0.00460204 0.00012445 -8.1336e-05
0.00459269 0.000167726 -5.96352e-05
0.00462507 0.000367529 -0.000149972
0.00450273 0.000121224 -5.12325e-05
0.00477825 -0.000273003 -0.00014217
0.00459413 0.000154939 -7.44613e-05
0.00478099 -0.000215524 -0.000165107
0.0048564 8.49895e-05 -5.40652e-06
0.00445107 0.000406702 -0.000144376
0.00441838 0.000393575 0.00029977
0.00440784 0.000418969 -0.000142433
0.00469878 0.000128007 -5.06984e-05
0.00458522 0.000217463 -0.00014739
0.00471869 0.000118012 -4.45104e-05
0.00465185 0.000324184 -0.000120114
0.00428381 0.000313664 -5.22834e-05
0.00407616 0.000261589 0.000488434
0.00482209 -0.00020569 -0.000173323
0.00450369 0.00013593 -5.18201e-05
0.00480266 -0.000236038 -0.000157843
0.00472791 -0.000256426 -0.000145193
0.00484834 -0.000162125 -4.75358e-05
0.00458108 0.000333478 -0.000128876
0.00447022 0.000229559 0.000174058
0.00454147 0.000143958 -5.47807e-05
0.00440121 0.000456656 -0.000139827
0.004527 0.000137055 -5.27668e-05
0.00456131 0.000144988 -5.02388e-05
0.00453251 0.000135442 -5.26847e-05
0.00457934 0.000119355 -4.3204e-05
0.00453137 0.000191728 -5.31845e-05
0.004933 9.51209e-05 -5.023e-05
0.00453369 0.000135267 -5.1889e-05
0.00499756 0.000140622 -5.25741e-05
0.00449228 0.000133148 -5.33463e-05
0.00455626 0.000152763 -5.14299e-05
0.00476004 -0.00024325 -0.000151454
0.00453649 0.000150745 -5.27588e-05
0.00480218 -0.000212371 -0.000167558
0.00456978 0.000120018 -4.85783e-05
0.00486582 9.10693e-05 -1.28011e-05
0.0047549 -0.000258114 -0.000145973
0.00443154 0.000438793 0.00032208
0.00455544 0.000125326 -4.39825e-05
0.00440312 0.00032644 0.000273346
0.00452709 0.000140382 -3.34118e-05
0.00459323 0.000120058 -4.48915e-05
0.00453191 0.000150498 -5.58509e-05
0.00453643 0.000104844 -4.44454e-05
0.00476577 -0.000254516 -0.00014773
0.00452946 0.000162781 -5.46977e-05
0.00442426 -0.000171945 -0.000164124
0.00458626 0.000166521 -6.3957e-05
0.00457086 0.00014685 -7.32669e-05
0.00439374 0.000144066 -7.49805e-05
0.0044591 -0.000153408 -0.000173935
0.00479868 0.000250666 -0.000272809
0.00480487 7.01529e-05 6.6017e-06
0.00445337 0.000128321 -5.76011e-05
0.00456673 0.000156846 -5.28095e-05
0.00484357 -0.000202107 -0.000178625
0.00485649 9.57964e-05 -5.75136e-05
0.00470313 0.00011082 -3.58641e-05
0.00463117 0.000156454 -8.19754e-05
0.00484602 -0.000193887 -0.000174087
0.00453828 0.000136907 -5.16896e-05
0.00474338 -0.000246373 -0.000150329
0.00459826 0.000120242 -4.42055e-05
0.00476813 -0.000264217 -0.000143991
0.0045664 0.000199526 -5.44021e-05
0.00474704 8.20598e-05 -5.69488e-06
0.00456866 0.000130518 -5.40982e-05
0.00471459 8.02372e-05 -4.63202e-06
0.00438224 0.00014634 0.000143084
0.0046096 9.88976e-05 -5.28456e-05
0.00453442 0.000143135 -5.26122e-05
0.00453384 0.000143038 -5.13908e-05
0.00449953 0.000152178 -5.17358e-05
0.00457458 -0.000150719 -0.000191907
0.00457019 0.000120263 -4.40234e-05
0.00455714 0.000127802 -4.41465e-05
0.00454269 0.0001354 -4.78526e-05
0.00470252 0.000123348 -5.38659e-05
0.00442733 0.000424812 0.000342747
0.0045687 0.000122394 -4.97761e-05
0.00451501 0.00015102 -5.23065e-05
0.00441191 0.00012437 -5.4202e-05
0.00446095 -0.000171419 -0.000166525
0.00438372 0.000119199 -4.97978e-05
0.00470627 -0.00025604 -0.000144433
0.00479315 -0.000239166 -0.000157264
0.00475261 -0.000242133 -0.000152306
0.00481939 0.000219104 -4.65098e-05
0.00475322 -0.000253183 -0.000149475
0.00463415 0.000100187 -2.56117e-05
0.00438841 -0.000125951 -0.000182626
0.00432599 0.00031498 -5.32284e-05
0.00475083 -0.000227891 -0.000158285
0.00431687 0.000309797 -5.27544e-05
0.00465069 -0.000220489 -0.000155977
0.00476778 5.60334e-05 2.01831e-05
0.00480459 -0.000231018 -0.000159972
0.0044828 0.000180298 -4.9241e-05
0.00448716 -8.38601e-05 -0.000205098
0.00441461 -0.000192959 -0.000155024
0.00451743 0.000180471 -5.26221e-05
0.00430503 -0.000293756 -0.000104296
0.00479178 7.51048e-05 -5.43392e-05
0.00441275 -0.000147604 -0.000173503
0.00479908 -0.000220767 -0.000163761
0.00470838 -0.000250508 -0.000223454
0.0047655 -0.000111004 -0.000208242
0.00472858 -0.000246995 -0.000148981
0.00443583 -0.000174217 -0.000164185
0.00451795 0.000172593 -5.46435e-05
0.00481273 -0.000223501 -0.000161819
0.00472317 0.000101906 -2.60864e-05
0.00437972 -0.000129561 -0.000179747
0.00452203 0.000212781 -5.71641e-05
0.0044777 -0.000170735 -0.000167744
0.00480858 -0.000220868 -0.000162548
0.00444577 0.000408318 -0.000144093
0.00416651 0.000342833 -5.23704e-05
0.00479745 9.91338e-05 -2.4092e-05
0.00446848 -0.000169953 -0.000167606
0.00421924 0.000211773 -5.10312e-05
0.00449621 -0.000166606 -0.000170445
0.00452781 0.000131751 -5.07388e-05
0.00456501 9.78357e-05 -2.47378e-05
0.00448463 4.02824e-05 -0.000257991
0.00481631 -0.000225975 -0.000162104
0.00454157 9.43328e-05 -2.09909e-05
0.00478931 -0.000242423 -0.000153638
0.00437891 -0.000161228 -0.000166339
0.00483055 -0.000194536 -0.000176783
0.00448245 2.70325e-05 -0.000251924
0.00460232 -6.8189e-05 -0.00021742
0.00476456 6.65842e-05 1.08637e-05
0.00440472 -0.000161653 -0.000167688
0.00471717 -0.000254939 -0.000145258
0.00450449 -0.000177703 -0.000166463
0.00481564 -0.000172502 -0.000185265
0.00444199 -0.000141568 -0.000179059
0.00475671 -0.000254106 -0.000146549
0.0045617 0.000194221 -0.000117228
0.00426249 0.000269653 -5.11654e-05
0.00472024 0.000519328 -0.00026275
0.00436695 9.57864e-05 -3.43734e-05
0.00471348 -0.000265251 -0.000140581
0.00471028 -0.000258706 -0.000143103
0.00459317 0.000142189 -5.32083e-05
0.00437539 0.000322518 -5.46829e-05
0.00467744 0.000152867 -5.14484e-05
0.00467911 7.73597e-05 -1.5681e-06
0.00482552 -0.000209573 -0.00017291
0.00459096 9.98643e-05 -2.64509e-05
0.00477895 -0.000249732 -0.000150309
0.00484799 -0.000196214 -0.00017154
0.00469489 0.00035253 -0.000139514
0.00445527 -0.000140802 -0.000183731
0.00434474 0.000153578 0.000131195
0.00436812 -0.000123651 -0.000181428
0.00476102 -0.000244379 -0.000152091
0.00438981 -0.000255914 -0.000124562
0.00435069 -0.000176318 -0.000158984
0.00478577 -0.000230237 -0.000159353
0.00431519 0.000292796 -5.38043e-05
0.00452935 0.000190458 -5.34428e-05
0.00436919 -0.000112354 0.000399349
0.00437551 -2.52577e-05 0.000402216
0.00445469 -9.39534e-05 0.00041491
0.00434746 -0.000185858 -0.000154309
0.00511953 0.000959111 -0.000408183
0.00433313 -0.000159147 -0.000171134
0.00438208 -0.000194542 -0.000152241
0.00509426 0.000966072 -0.000415468
0.00513927 0.000955431 -0.000396471
0.00436217 -0.000148564 -0.00017054
0.0051209 0.000849994 -0.000742303
0.00443248 9.09435e-05 -2.01112e-05
0.00424236 0.000188174 -4.99354e-05
0.00439446 -0.000177257 -0.000160597
0.00449174 9.22862e-05 -2.00943e-05
0.00481005 8.71036e-05 -1.25065e-05
0.00514555 0.000843149 -0.000742928
0.00439973 -0.000130288 -0.000180705
0.00443405 -0.00013629 -0.000181259
0.00474344 -0.000248152 -0.000149436
0.00431761 -0.000153225 -0.000166892
0.00389118 -0.0007797 0.000340767
0.00439511 -6.77035e-05 0.000396086
0.00437823 -0.000123305 -0.000182234
0.00455308 0.000180242 -5.32328e-05
0.00434382 -8.288e-05 0.000399206
0.00441222 -8.07603e-05 0.000413093
0.00503032 0.000869033 -0.000736289
0.00439049 -5.07019e-05 0.0003985
0.00434404 -0.000127913 -0.000177123
0.0043526 0.000311796 -5.39389e-05
0.0047742 -0.000249324 -0.000150534
0.00435012 -0.000311537 -0.000101349
0.00440334 -0.000117367 -0.000125941
0.00441713 -8.29383e-05 5.39468e-05
0.00437246 -0.000133703 0.000399506
0.00440342 -9.80322e-05 0.000400495
0.004419 -0.000131294 -0.000176996
0.00436132 -0.000140645 0.000281247
0.00442625 7.07335e-05 -0.000262962
0.00433829 -0.000153828 0.000396664
0.00434186 0.000308574 -5.35458e-05
0.00508576 0.000852296 -0.000739254
0.00507461 0.000885337 -0.00074549
0.00487958 7.98135e-06 -0.000264314
0.00500503 0.000875321 -0.000735659
0.00505858 0.000860965 -0.000738221
0.00435508 -0.000127794 -0.000181918
0.00436049 -7.5756e-05 0.000402891
0.00432181 -0.000238695 2.00014e-05
0.0045522 0.000120204 -4.00957e-05
0.00438978 -0.000155072 0.000350799
0.00482931 -0.000192777 -0.00017048
0.00447163 -8.36556e-05 0.000416036
0.00478826 -0.000191316 -0.000175645
0.00453383 0.000178798 -5.06646e-05
0.00433668 -0.000131901 0.000397112
0.00484683 -0.000192274 -0.000169924
0.00463669 0.000176895 -5.25676e-05
0.004584 0.000149265 -7.70353e-05
0.00439278 -0.000133808 -0.000178218
0.00475104 -0.000245996 -0.000150713
0.00457641 0.000152184 -7.8736e-05

VECTORS force float
2.92958e-11 7.57246e-11 -7.80212e-11
1.36741e-10 -1.35343e-10 -4.56975e-12
1.0093e-10 -7.6715e-11 1.36841e-10
1.72292e-10 -3.18198e-11 -6.92371e-12
-7.7131e-11 -2.94209e-12 -8.49269e-12
2.48513e-11 -1.5528e-11 1.7008e-11
-1.07606e-10 3.7256e-11 3.92272e-12
-6.69791e-11 -1.14053e-10 8.02092e-11
-2.19078e-11 -1.28705e-11 1.84543e-12
-1.10557e-10 6.31203e-11 -6.36857e-11
-7.59819e-11 1.15141e-10 -8.44513e-11
-5.72228e-12 -3.57374e-12 -3.73075e-13
8.68986e-11 -2.41855e-11 -4.78495e-11
9.0646e-12 7.53446e-13 3.09344e-11
-4.63555e-11 3.84212e-11 -6.74865e-11
6.54367e-11 -4.3474e-11 7.05123e-11
-1.21539e-10 -1.26987e-11 -6.59466e-11
1.451e-11 9.79089e-12 -1.95189e-13
-7.03381e-11 -1.13299e-11 3.12282e-11
-1.58755e-10 -5.12174e-11 -8.68704e-11
6.25709e-11 -9.08724e-12 5.35088e-12
7.41442e-11 8.36622e-11 -1.04757e-10
-1.17903e-11 -1.90411e-11 2.24265e-12
-2.14718e-11 5.24422e-12 -3.7876e-11
-5.38527e-11 9.32034e-12 -1.90764e-11
-4.63658e-12 4.21083e-12 -1.31534e-11
-1.72498e-10 -8.52016e-11 -1.223e-10
-1.14076e-11 1.16791e-11 -2.74593e-12
2.38135e-12 -1.37983e-11 5.02094e-11
-3.43079e-11 7.16925e-11 -3.8047e-11
-1.64641e-11 -2.19703e-11 -9.55681e-13
1.82087e-10 -8.73988e-11 3.37863e-11
6.31102e-11 5.91029e-11 -6.51099e-11
-4.43599e-11 -5.94382e-11 5.02466e-12
-1.55055e-10 -1.51325e-10 7.6708e-11
1.72831e-10 3.73015e-11 -2.30792e-11
6.47548e-11 1.01944e-11 -9.98696e-12
1.36885e-10 4.6856e-11 -1.7709e-11
3.43326e-11 2.8043e-11 3.98004e-12
-4.80776e-12 -3.9887e-12 -6.55413e-11
1.78147e-10 -1.27334e-10 1.21894e-10
2.94352e-10 -2.90222e-10 -3.73093e-12
1.96699e-11 -3.63303e-12 8.81513e-12
4.18465e-11 9.44184e-12 1.41896e-12
-1.11821e-10 -9.10216e-11 6.8266e-11
-3.34368e-10 3.95013e-11 -1.26203e-10
-9.17803e-11 2.5863e-11 -2.92771e-11
1.00469e-10 4.60767e-11 3.10658e-11
-4.33983e-11 1.60585e-11 -1.07443e-11
-2.54771e-11 3.18387e-11 -3.95456e-11
4.94665e-11 3.64603e-11 -1.50795e-11
-9.44348e-12 2.28958e-11 -1.31086e-11
1.27718e-10 -5.76322e-11 2.71003e-11
-2.94905e-11 1.30281e-11 7.60133e-12
2.21374e-11 -2.68628e-11 2.49847e-11
1.86527e-11 -2.17317e-11 3.96822e-12
-1.88502e-10 1.10363e-10 -8.26154e-11
-2.70306e-11 2.47422e-11 -2.43014e-11
-7.26562e-11 1.83435e-10 -1.18854e-10
6.74649e-11 -8.93825e-11 -1.08815e-10
-4.13857e-11 3.53076e-11 -8.94664e-12
1.79302e-10 -1.39436e-11 2.95259e-11
2.44795e-11 -1.17559e-10 5.21657e-11
-2.34707e-11 -6.54828e-11 6.81454e-11
-2.58544e-12 -1.47257e-10 6.05099e-11
-4.06326e-11 2.94067e-11 -6.67523e-11
-2.21189e-11 -8.14069e-11 -4.51658e-13
5.0359e-11 4.26911e-11 -4.76169e-11
7.98082e-12 1.3619e-11 -1.94765e-12
-7.90669e-11 8.78318e-11 -2.98769e-11
2.11117e-10 1.50538e-10 -8.62604e-11
3.0661e-10 7.86264e-11 -4.07381e-11
6.00299e-11 3.7153e-11 -1.41194e-11
-5.60848e-10 1.76204e-10 -1.67425e-11
-1.62992e-09 2.62872e-10 5.47733e-10
4.0415e-11 1.22151e-10 -1.43553e-10
-2.98734e-10 8.90869e-11 5.65209e-12
4.25592e-11 1.46227e-10 -7.7181e-11
2.21432e-11 2.60498e-11 -1.34948e-11
-3.02042e-11 -2.71519e-11 1.36654e-10
4.54366e-11 5.28559e-12 -5.64793e-12
-2.54613e-10 1.58397e-10 -3.96255e-11
-4.84345e-12 2.62059e-11 1.63937e-11
2.08651e-11 1.50226e-10 1.06006e-11
7.73188e-11 -1.53849e-10 -4.91035e-12
2.15322e-10 2.23205e-11 6.28038e-12
1.10941e-10 9.65759e-11 1.68032e-11
1.41277e-11 -4.22615e-11 4.70848e-11
7.05813e-11 -2.31858e-10 -1.87915e-11
-8.86464e-11 -1.32465e-10 5.47792e-11
2.94686e-11 -6.27225e-11 2.06132e-11
8.9213e-11 3.04177e-10 2.45205e-11
-2.01739e-10 6.37345e-11 6.39194e-12
1.21569e-10 -1.74233e-10 -6.15122e-11
-3.2003e-11 -4.64908e-11 2.66322e-11
1.16713e-10 1.67114e-10 2.19207e-12
5.15789e-11 -2.75831e-11 6.8749e-12
-2.33793e-11 1.38126e-10 -9.92406e-12
1.22985e-10 9.02931e-11 -9.38987e-11
-9.40386e-11 2.71232e-11 -8.53501e-12
-4.47906e-11 -1.80313e-11 -6.34641e-12
5.26065e-11 1.3992e-10 -4.33352e-11
4.24713e-11 2.06234e-11 -9.52537e-11
2.50414e-10 -1.12952e-10 9.3722e-12
2.54503e-10 -7.52643e-11 7.97112e-11
2.09336e-11 -3.89128e-11 1.31274e-11
5.18421e-11 -6.19281e-10 -1.54442e-11
2.0606e-11 1.66578e-11 8.79063e-13
-2.54352e-11 8.04606e-11 -5.66432e-12
4.08694e-11 1.78052e-11 -1.0901e-11
2.21984e-10 -1.78901e-10 -1.74582e-12
5.59401e-11 1.76896e-11 -5.11069e-12
-1.83674e-10 1.75391e-11 -1.48039e-11
-2.04614e-10 -8.52855e-11 4.69603e-11
1.45075e-11 2.85974e-11 -2.26403e-11
1.90468e-11 6.05216e-11 -7.84613e-11
1.01436e-10 6.77967e-11 -5.83036e-11
7.57354e-10 -5.2905e-10 -1.64003e-11
1.34234e-11 2.37571e-10 1.86155e-11
1.08124e-10 -1.08278e-10 9.23054e-11
2.19364e-10 2.18172e-11 -1.68625e-11
-5.1668e-11 3.65866e-11 -9.38161e-11
-1.13159e-10 -1.04956e-10 2.40429e-11
5.58675e-11 7.60008e-12 4.2844e-12
4.93819e-12 7.03957e-12 -7.28777e-12
4.42919e-11 1.07573e-10 -4.95344e-11
-1.16054e-10 -2.50666e-11 1.5283e-11
1.92744e-10 -3.56601e-10 1.19094e-12
-2.04124e-10 -1.23758e-10 1.32611e-10
5.9417e-12 -1.0316e-11 -9.96244e-12
-2.36181e-10 5.87075e-11 -7.49298e-11
7.10461e-12 5.76577e-11 -6.69468e-11
-3.20025e-10 2.96403e-10 -3.77959e-11
2.16813e-10 -1.02214e-11 6.44593e-12
1.42712e-10 1.03843e-10 3.32776e-11
4.87629e-11 -1.71831e-10 3.09961e-11
-1.41944e-11 -4.40253e-12 5.08322e-11
9.11921e-11 7.56179e-11 -2.45123e-11
5.59441e-11 4.44053e-11 -1.96531e-11
7.98411e-11 9.23939e-11 1.57541e-11
-6.33472e-10 4.48427e-10 -2.46567e-12
4.17113e-11 5.84649e-11 -7.33215e-11
5.18422e-11 1.38394e-10 -2.35853e-11
-2.73539e-10 -4.73126e-11 5.11873e-12
8.76322e-11 9.63933e-11 -9.46772e-11
9.76843e-11 3.60042e-11 -1.98647e-11
1.33967e-10 1.42932e-10 -1.24792e-10
1.09291e-11 8.65215e-12 -3.18093e-12
5.14561e-11 2.13024e-10 -7.03873e-11
1.61953e-11 -1.22962e-10 4.33136e-11
-2.01874e-10 -4.03412e-10 2.21066e-11
-7.30576e-11 -5.26569e-11 3.98338e-11
2.50468e-11 1.29565e-11 -1.69791e-11
-7.36883e-11 2.60098e-11 -9.65733e-12
2.705e-10 7.78391e-11 -7.01797e-12
-1.69145e-11 -4.9421e-12 5.09617e-12
2.78921e-11 -1.6821e-10 1.95313e-12
4.86072e-11 9.63498e-11 -3.92411e-11
4.47688e-13 4.00873e-11 -6.33547e-11
2.61489e-11 5.70961e-13 2.21354e-12
-1.35677e-10 -4.70028e-10 1.71621e-10
-1.09126e-10 8.673e-11 -3.63363e-11
9.81108e-11 -1.11329e-10 4.21074e-11
-6.76429e-10 -4.35271e-10 2.66623e-11
-3.55635e-10 2.45026e-11 -2.82142e-11
3.03623e-10 -2.02757e-10 -4.2031e-11
-5.01391e-11 1.05968e-10 -3.80487e-11
2.5671e-11 7.37297e-11 -3.09617e-11
-4.42848e-11 -8.96571e-11 1.00919e-10
5.8473e-11 1.33616e-10 -6.0481e-11
6.29684e-11 5.38776e-11 -2.49757e-11
-2.86361e-11 -8.09322e-11 3.41889e-11
-1.08197e-10 8.69439e-12 1.47893e-11
8.29702e-11 2.36645e-10 -9.06763e-11
-1.34121e-11 4.12986e-11 -3.16978e-11
3.86314e-11 4.86017e-11 -3.12425e-11
4.56874e-10 -1.36952e-10 -1.41154e-11
6.69454e-11 9.79702e-11 -4.47179e-11
8.97986e-11 2.71671e-10 -1.25412e-10
-1.68641e-11 -8.88897e-11 -3.98948e-12
1.26998e-10 1.09729e-10 -1.72431e-11
1.34354e-11 7.23794e-11 -8.6339e-11
-4.94935e-11 -2.16613e-11 8.81572e-12
-7.76531e-11 2.36974e-10 1.071e-11
9.08784e-11 1.01141e-10 -3.95293e-11
-3.60952e-11 3.39043e-10 2.87857e-12
-3.31051e-11 -5.03724e-11 5.43908e-11
-4.6504e-10 3.4621e-10 -9.03687e-11
1.03829e-10 1.13923e-10 -4.66641e-11
-9.30295e-11 -5.37999e-11 5.38869e-11
4.15277e-11 5.19233e-11 -3.4094e-11
3.33422e-11 1.41459e-10 -6.93313e-11
-1.93556e-13 -4.01945e-11 1.5774e-10
-1.02603e-13 -9.58732e-12 2.42908e-11
-6.21439e-11 2.66634e-11 -8.74599e-12
-1.00562e-10 1.00121e-10 -9.501e-11
4.42881e-11 3.1518e-10 -1.31995e-10
-1.53117e-11 2.28013e-11 -1.33469e-11
-9.40342e-12 1.01618e-10 -4.45621e-11
4.02048e-11 -1.00771e-10 4.25963e-11
-1.10129e-10 1.81094e-10 -6.75791e-11
1.45274e-11 -3.31171e-11 6.48319e-12
5.19642e-12 2.14857e-11 1.06198e-10
-4.72487e-10 -1.09285e-10 3.19042e-11
4.70259e-11 -1.26513e-11 1.88221e-11
3.54821e-09 -2.42095e-09 3.17963e-10
1.97346e-11 7.89634e-11 -3.27295e-11
8.44395e-11 8.58225e-11 -4.17406e-11
-4.41646e-10 2.88612e-10 -8.43912e-13
-3.54158e-11 -1.01948e-10 -3.6411e-13
-3.12204e-10 -5.76782e-11 1.91562e-12
-2.69994e-11 4.38703e-11 -3.77934e-11
8.6275e-11 2.43707e-10 -1.38336e-10
-4.82723e-11 -1.39678e-11 1.33779e-11
3.79864e-11 8.89129e-11 -6.72928e-11
-1.77028e-10 -2.30714e-10 -8.54047e-11
2.38988e-12 1.29361e-11 -4.57921e-12
-3.89302e-10 4.50498e-11 2.99095e-11
-3.72283e-11 -5.46365e-11 7.69742e-11
-5.58507e-11 9.6738e-12 -4.05547e-12
2.77695e-11 -7.06122e-11 2.94862e-11
-6.57115e-11 -1.16553e-10 6.0976e-11
1.88312e-11 2.74344e-10 -1.22597e-10
-1.49551e-11 -8.21471e-11 3.69417e-11
-1.89086e-10 1.0588e-10 -6.19524e-12
2.35777e-10 -1.84993e-10 1.31879e-11
-4.80774e-11 -6.34905e-11 2.69866e-11
-1.26149e-11 -2.6685e-11 8.50744e-12
2.83624e-10 1.79255e-10 8.86009e-13
-3.22326e-11 6.08712e-11 -2.22779e-11
1.34286e-12 -5.16353e-11 8.78101e-11
9.1436e-12 2.10123e-11 1.33425e-10
-1.61475e-11 8.08114e-11 -3.9951e-11
3.28143e-11 2.38342e-11 -3.10427e-11
1.08307e-10 -2.5969e-11 1.72873e-10
-1.18623e-10 2.99459e-11 2.24201e-12
-8.93468e-12 7.6579e-11 -6.80967e-11
-2.27857e-10 -5.32073e-11 4.0969e-11
-9.57416e-11 -1.62833e-10 -3.8467e-12
-3.34184e-11 5.40319e-11 -2.62017e-11
-5.79186e-11 -4.54464e-11 2.61015e-11
1.68886e-10 1.1096e-11 -3.54167e-11
1.33589e-11 -7.22236e-11 -2.07142e-10
-1.05617e-10 4.32446e-12 -4.58119e-12
-2.6456e-10 2.01418e-11 9.71453e-12
1.5535e-10 -2.88555e-11 6.39945e-12
-3.72874e-11 -2.17683e-11 4.42335e-11
-1.7218e-11 -1.5571e-10 -1.49686e-11
3.04416e-10 2.09986e-10 -4.12891e-10
-8.34654e-12 -2.57002e-11 1.06835e-11
2.56241e-10 -1.0783e-10 1.75998e-11
-1.87575e-11 1.75601e-10 4.67737e-11
-9.09496e-12 -1.63573e-10 -7.67622e-11
5.04885e-12 -3.62451e-11 9.89029e-12
-1.80174e-11 1.18307e-10 -9.59178e-11
1.13496e-10 1.09617e-10 -3.99193e-11
1.37437e-10 1.99287e-10 6.09376e-12
-9.71031e-11 2.36004e-11 -2.68882e-12
-3.90557e-10 1.10437e-10 -1.30402e-11
-2.61229e-10 1.32521e-10 3.57933e-11
-4.81818e-11 2.49616e-10 3.17039e-10
8.59535e-11 1.17137e-10 -6.76571e-11
1.34633e-10 1.94869e-10 6.58024e-11
-2.98172e-10 3.05133e-11 -2.7464e-12
-2.37304e-10 -2.0503e-10 -8.68094e-11
-2.84474e-10 1.15102e-10 -4.90793e-11
-3.43525e-11 7.4502e-11 2.29853e-11
3.20111e-11 -5.31885e-11 -3.71328e-12
1.36152e-11 6.58099e-11 -1.81632e-11
3.16972e-12 -1.68469e-11 3.65237e-12
-1.44733e-10 -7.12568e-11 3.77158e-11
1.43683e-11 1.41596e-11 -1.05114e-11
-2.07698e-11 -1.66137e-11 8.11767e-12
-9.47121e-11 -8.81143e-11 6.45647e-11
4.03918e-11 1.6107e-10 4.21264e-11
-3.71081e-10 -1.10787e-10 -1.08909e-10
-5.73795e-11 4.75532e-11 -8.24447e-11
2.93689e-11 -1.32276e-10 -2.13282e-10
1.71447e-10 -7.52588e-11 -7.74125e-11
2.58311e-10 5.14742e-11 -2.07264e-11
-2.70532e-11 -1.13875e-11 6.14508e-12
1.24255e-10 8.02714e-11 9.80928e-11
2.08929e-11 1.77765e-10 -2.80285e-11
-2.15989e-11 4.99561e-12 3.73296e-11
2.08885e-10 -6.96643e-11 -3.4355e-12
9.07398e-11 8.35921e-11 -2.31855e-11
-1.05311e-10 5.905e-11 -1.80465e-12
-8.09591e-11 1.6865e-11 4.2049e-12
-1.4648e-11 -1.80987e-11 -2.30733e-11
