# vtk DataFile Version 3.0
LIGGGHTS particles timestep 61800000
ASCII
DATASET POLYDATA
POINTS 283 float
0.296033 0.0165439 0.00794855
0.296376 0.017754 0.00715189
0.296438 0.018172 0.00698115
0.296417 0.0180741 0.00698584
0.295818 0.0158323 0.0086164
0.302048 0.0164696 0.0076313
0.296034 0.016212 0.00826255
0.295795 0.0157594 0.00868116
0.302295 0.0175235 0.00711907
0.296723 0.018264 0.00694814
0.296207 0.0168456 0.00764719
0.302252 0.0173493 0.00720742
0.296717 0.0178183 0.0070594
0.289735 0.0155901 0.00889576
0.296737 0.0179135 0.00703623
0.28995 0.0161616 0.00803617
0.302417 0.0180766 0.00693597
0.296356 0.0177901 0.00706071
0.296417 0.017291 0.00720669
0.295843 0.0159046 0.00855208
0.296476 0.0183568 0.00691701
0.302209 0.0171714 0.00728806
0.296578 0.0175995 0.00712196
0.302145 0.0169044 0.00740912
0.29 0.0159478 0.00819132
0.296313 0.0175992 0.00710124
0.302028 0.0163956 0.00769571
0.296553 0.0182956 0.0069348
0.296673 0.0176289 0.00710534
0.302067 0.0165471 0.00757128
0.296414 0.0179446 0.00710268
0.296757 0.0180088 0.00701307
0.302358 0.0177881 0.0069928
0.296055 0.0162822 0.00819429
0.296622 0.0177863 0.00706435
0.296245 0.0166555 0.00782372
0.296361 0.017441 0.00714233
0.296495 0.0172419 0.00724741
0.296533 0.018201 0.00696069
0.296409 0.0176297 0.00709671
0.302087 0.0166364 0.00753074
0.302166 0.0169936 0.0073687
0.29599 0.0160725 0.00839865
0.296402 0.017219 0.00727619
0.302126 0.0168151 0.00744966
0.296525 0.0177614 0.00708719
0.290508 0.0185061 0.00697881
0.290535 0.017804 0.00703431
0.296703 0.0181678 0.00697154
0.302106 0.0167258 0.0074902
0.290167 0.0166931 0.0077174
0.30223 0.0172604 0.00724775
0.296512 0.0179825 0.00709828
0.295866 0.0159772 0.00848755
0.296284 0.0167962 0.00768702
0.296473 0.0179146 0.00702749
0.302187 0.0170825 0.00732839
0.296091 0.0164233 0.00805738
0.290712 0.0182095 0.00696462
0.296777 0.018104 0.00698989
0.290219 0.0165613 0.00781713
0.296362 0.0170776 0.00741359
0.302473 0.017916 0.00696895
0.290093 0.0167414 0.00767016
0.302273 0.0174369 0.0071642
0.296226 0.0165851 0.00789209
0.29615 0.0169664 0.00753906
0.296365 0.0175741 0.007209
0.302397 0.0179804 0.00695491
0.296515 0.0185474 0.00687062
0.289799 0.0156734 0.00861476
0.290005 0.0160309 0.00813585
0.296387 0.0175348 0.00711973
0.290753 0.0184047 0.00698025
0.290282 0.0168095 0.00766082
0.28982 0.0157035 0.00852167
0.302337 0.0176983 0.00703182
0.290146 0.0166104 0.0077695
0.296512 0.0181053 0.00698109
0.302316 0.0176101 0.00707379
0.296304 0.0168665 0.00761869
0.296503 0.0176663 0.007111
0.296227 0.0169159 0.00757886
0.29611 0.0164939 0.00798893
0.296461 0.0170997 0.00738379
0.296462 0.0174723 0.00714183
0.296285 0.0171273 0.00737352
0.296588 0.0180413 0.00699951
0.29651 0.0173133 0.00717907
0.296335 0.017347 0.00716503
0.290325 0.0169749 0.00755663
0.296516 0.0178888 0.00713295
0.290628 0.0178407 0.0070275
0.296547 0.0178503 0.00704596
0.296632 0.0174375 0.00715189
0.290261 0.0167268 0.00771293
0.290552 0.017887 0.00698117
0.296149 0.0166345 0.00785226
0.289757 0.0156178 0.00880211
0.296642 0.017882 0.00704109
0.296397 0.0179788 0.00700903
0.296495 0.0184521 0.00689382
0.295958 0.016262 0.00822216
0.290025 0.0161137 0.00808348
0.296648 0.0183275 0.00692986
0.290188 0.0167758 0.00766532
0.296335 0.0176941 0.00707822
0.296432 0.0178369 0.00714702
0.296187 0.0167753 0.00771552
0.290732 0.0183071 0.00697243
0.302009 0.0163287 0.0077675
0.296536 0.0174071 0.00715646
0.296421 0.0169591 0.00752045
0.296189 0.0171066 0.00740178
0.290614 0.018654 0.00699339
0.296703 0.0182381 0.00704266
0.296682 0.0180726 0.0069947
0.296265 0.0167259 0.00775536
0.289856 0.0158167 0.00836199
0.296742 0.0183596 0.00692486
0.289967 0.0158669 0.00823981
0.295936 0.0161934 0.00829156
0.290583 0.0184401 0.00697671
0.296248 0.0173288 0.00721056
0.296382 0.0171482 0.00734494
0.296483 0.0175694 0.00712596
0.296246 0.0169865 0.00751035
0.290446 0.0182118 0.00695521
0.296091 0.0167559 0.00774463
0.296305 0.0171977 0.00730509
0.296323 0.0169369 0.00755031
0.296667 0.0184228 0.00690665
0.290648 0.017916 0.00696468
0.296012 0.0161422 0.00833065
0.296557 0.0175025 0.00713326
0.296436 0.0173777 0.00716059
0.29613 0.0168957 0.00760697
0.289778 0.0156457 0.00870849
0.296432 0.0180404 0.00708008
0.296441 0.0170295 0.00745209
0.296129 0.0165642 0.00792058
0.290389 0.017223 0.00740067
0.296797 0.0181999 0.00696656
0.28991 0.0160054 0.00815517
0.290043 0.0161966 0.00803062
0.290637 0.0184229 0.00705916
0.296492 0.01801 0.00700427
0.290669 0.0180124 0.00694857
0.29648 0.0171702 0.00731553
0.290475 0.0175541 0.00719235
0.296265 0.0170568 0.00744198
0.290691 0.0181117 0.00695678
0.296228 0.0172481 0.00726608
0.290466 0.0183101 0.0069631
0.296342 0.0170073 0.00748195
0.290125 0.0165277 0.00782158
0.296597 0.0176916 0.00708724
0.290421 0.0179703 0.00703527
0.290132 0.0169105 0.00766584
0.296575 0.0181131 0.007068
0.290403 0.0180085 0.00694459
0.296452 0.0178194 0.00705065
0.290452 0.0174712 0.00724434
0.290284 0.0174858 0.00720139
0.28993 0.0160787 0.00808864
0.290562 0.0183418 0.00696884
0.29041 0.0173058 0.00734849
0.290209 0.0168585 0.00761322
0.296592 0.0184861 0.00688841
0.290678 0.0184716 0.00698244
0.296492 0.0182556 0.00703351
0.290637 0.0182761 0.00696678
0.296568 0.0179461 0.00702267
0.290115 0.0168241 0.00761807
0.290273 0.0171067 0.00745695
0.302378 0.0178843 0.00697386
0.296052 0.0166142 0.0078802
0.296015 0.0164733 0.00801699
0.289989 0.0163278 0.00793091
0.29627 0.0174213 0.00717939
0.290336 0.0173548 0.00730068
0.296608 0.0180136 0.00709345
0.295913 0.0161225 0.00835826
0.290364 0.017822 0.00700165
0.290346 0.0170576 0.00750454
0.296168 0.0167049 0.00778388
0.290487 0.0184078 0.00697093
0.29045 0.0180676 0.00703459
0.289873 0.0158566 0.00827195
0.290316 0.0172719 0.00735311
0.290502 0.0179192 0.00706171
0.296697 0.0177231 0.00708258
0.290347 0.0177398 0.00705595
0.290072 0.0166587 0.00772225
0.290431 0.0173885 0.00729634
0.29024 0.0166441 0.00776501
0.290603 0.0185376 0.00698454
0.289891 0.0159146 0.00819264
0.296469 0.0181322 0.00706729
0.296072 0.0166848 0.00781223
0.302458 0.0182718 0.0069209
0.296169 0.0170363 0.00747013
0.290104 0.016445 0.00787371
0.296111 0.0168252 0.00767516
0.296074 0.0163526 0.00812591
0.295978 0.0163321 0.00815389
0.296817 0.0182959 0.0069432
0.289969 0.0162449 0.00798339
0.296662 0.0179775 0.00701786
0.290063 0.0162794 0.00797824
0.289836 0.0157521 0.00843575
0.302438 0.0181741 0.00692715
0.290262 0.0174031 0.00725341
0.290517 0.0177208 0.00708718
0.29023 0.0169412 0.00756113
0.290422 0.0176854 0.00709287
0.290405 0.0178791 0.00707303
0.29003 0.0164933 0.00782643
0.290367 0.0171404 0.00745241
0.296324 0.0172707 0.00723958
0.296431 0.0177245 0.00707368
0.290461 0.0177388 0.00716825
0.290136 0.0169068 0.00756597
0.290483 0.0178307 0.00711539
0.290252 0.0170239 0.00750904
0.284209 0.0171712 0.00732468
0.290286 0.0175054 0.00729942
0.290178 0.0170723 0.00746178
0.284189 0.0170991 0.00739102
0.284229 0.0172433 0.00725833
0.290254 0.0173359 0.00740348
0.284271 0.0174059 0.00715537
0.296652 0.0175326 0.00712879
0.296293 0.0175139 0.00714934
0.290051 0.016576 0.00777434
0.295891 0.0160497 0.00842305
0.215741 0.019982 0.00563384
0.284249 0.0173154 0.00719198
0.290541 0.0182436 0.00696095
0.290496 0.017637 0.00714018
0.290083 0.0163622 0.00792594
0.290458 0.0178551 0.0069918
0.290357 0.0174374 0.00724866
0.290401 0.0176027 0.00714498
0.290521 0.0181459 0.00695321
0.296608 0.0181364 0.00697635
0.290329 0.0175931 0.007243
0.290326 0.0176569 0.0071078
0.284314 0.0175885 0.00708637
0.290241 0.0173204 0.0073055
0.290009 0.0164106 0.00787852
0.295997 0.0164033 0.00808631
0.290657 0.0183738 0.00697459
0.290425 0.0181123 0.00694896
0.290827 0.0183382 0.0069781
0.290574 0.0179836 0.00696801
0.29039 0.017796 0.00712666
0.290382 0.0179089 0.00695549
0.290441 0.0177711 0.00704444
0.290548 0.0180481 0.00703991
0.290499 0.0180459 0.00694572
0.29022 0.0172377 0.00735759
0.296338 0.0176636 0.00717339
0.404182 0.0211142 0.0056569
0.284353 0.017772 0.00701713
0.290528 0.0186037 0.00698664
0.284334 0.0176802 0.00705177
0.284293 0.0174972 0.00712087
0.290294 0.0171894 0.00740485
0.290157 0.0169896 0.00751388
0.290476 0.0179402 0.00694013
0.296628 0.0182321 0.00695309
0.290379 0.0175201 0.00719681
0.290596 0.0180807 0.00695856
0.290304 0.0175685 0.00714923
0.290475 0.0181667 0.00703954
0.296572 0.0183912 0.00691325
0.290199 0.017155 0.00740968
0.290303 0.0168922 0.00760872
0.296208 0.0171771 0.0073336
0.296378 0.0178836 0.00703222
0.290617 0.0181785 0.00695896
0.296456 0.0182614 0.00694024

VERTICES 283 566
1 0
1 1
1 2
1 3
1 4
1 5
1 6
1 7
1 8
1 9
1 10
1 11
1 12
1 13
1 14
1 15
1 16
1 17
1 18
1 19
1 20
1 21
1 22
1 23
1 24
1 25
1 26
1 27
1 28
1 29
1 30
1 31
1 32
1 33
1 34
1 35
1 36
1 37
1 38
1 39
1 40
1 41
1 42
1 43
1 44
1 45
1 46
1 47
1 48
1 49
1 50
1 51
1 52
1 53
1 54
1 55
1 56
1 57
1 58
1 59
1 60
1 61
1 62
1 63
1 64
1 65
1 66
1 67
1 68
1 69
1 70
1 71
1 72
1 73
1 74
1 75
1 76
1 77
1 78
1 79
1 80
1 81
1 82
1 83
1 84
1 85
1 86
1 87
1 88
1 89
1 90
1 91
1 92
1 93
1 94
1 95
1 96
1 97
1 98
1 99
1 100
1 101
1 102
1 103
1 104
1 105
1 106
1 107
1 108
1 109
1 110
1 111
1 112
1 113
1 114
1 115
1 116
1 117
1 118
1 119
1 120
1 121
1 122
1 123
1 124
1 125
1 126
1 127
1 128
1 129
1 130
1 131
1 132
1 133
1 134
1 135
1 136
1 137
1 138
1 139
1 140
1 141
1 142
1 143
1 144
1 145
1 146
1 147
1 148
1 149
1 150
1 151
1 152
1 153
1 154
1 155
1 156
1 157
1 158
1 159
1 160
1 161
1 162
1 163
1 164
1 165
1 166
1 167
1 168
1 169
1 170
1 171
1 172
1 173
1 174
1 175
1 176
1 177
1 178
1 179
1 180
1 181
1 182
1 183
1 184
1 185
1 186
1 187
1 188
1 189
1 190
1 191
1 192
1 193
1 194
1 195
1 196
1 197
1 198
1 199
1 200
1 201
1 202
1 203
1 204
1 205
1 206
1 207
1 208
1 209
1 210
1 211
1 212
1 213
1 214
1 215
1 216
1 217
1 218
1 219
1 220
1 221
1 222
1 223
1 224
1 225
1 226
1 227
1 228
1 229
1 230
1 231
1 232
1 233
1 234
1 235
1 236
1 237
1 238
1 239
1 240
1 241
1 242
1 243
1 244
1 245
1 246
1 247
1 248
1 249
1 250
1 251
1 252
1 253
1 254
1 255
1 256
1 257
1 258
1 259
1 260
1 261
1 262
1 263
1 264
1 265
1 266
1 267
1 268
1 269
1 270
1 271
1 272
1 273
1 274
1 275
1 276
1 277
1 278
1 279
1 280
1 281
1 282

POINT_DATA 283
SCALARS id int 1
LOOKUP_TABLE default
1
2
3
4
5
6
7
8
9
10
11
12
13
14
15
16
18
19
20
21
22
24
25
26
27
29
30
31
32
33
34
35
36
37
38
40
41
42
43
44
45
46
47
48
49
50
52
55
56
57
58
59
60
61
62
63
64
65
66
67
68
69
70
71
72
73
74
75
76
77
78
79
80
81
82
83
84
85
86
87
88
89
90
91
92
93
94
95
96
98
99
100
101
102
103
104
105
106
107
108
109
110
111
112
113
114
115
116
117
118
119
120
121
122
123
124
125
126
127
128
129
130
131
132
133
134
135
136
137
138
139
140
141
142
144
145
146
147
148
149
150
152
153
154
155
156
157
158
159
160
161
162
164
165
166
167
168
169
170
171
172
173
174
175
176
177
178
179
180
181
182
183
184
185
186
187
188
189
190
191
192
193
194
195
196
197
198
199
200
201
202
203
204
205
206
207
208
209
210
211
213
214
215
217
218
219
220
221
222
223
224
225
226
227
228
229
230
231
232
233
234
235
236
237
238
239
241
242
243
244
245
246
247
248
249
250
251
252
253
254
255
256
257
258
259
260
261
262
263
264
265
267
268
269
270
271
272
273
274
275
276
277
278
279
280
281
282
283
284
285
286
287
288
289
290
292
293
294
295
296
297
298
300

SCALARS type int 1
LOOKUP_TABLE default
1
1
1
1
1
1
1
1
1
1
1
1
1
1
1
1
1
1
1
1
1
1
1
1
1
1
1
1
1
1
1
1
1
1
1
1
1
1
1
1
1
1
1
1
1
1
1
1
1
1
1
1
1
1
1
1
1
1
1
1
1
1
1
1
1
1
1
1
1
1
1
1
1
1
1
1
1
1
1
1
1
1
1
1
1
1
1
1
1
1
1
1
1
1
1
1
1
1
1
1
1
1
1
1
1
1
1
1
1
1
1
1
1
1
1
1
1
1
1
1
1
1
1
1
1
1
1
1
1
1
1
1
1
1
1
1
1
1
1
1
1
1
1
1
1
1
1
1
1
1
1
1
1
1
1
1
1
1
1
1
1
1
1
1
1
1
1
1
1
1
1
1
1
1
1
1
1
1
1
1
1
1
1
1
1
1
1
1
1
1
1
1
1
1
1
1
1
1
1
1
1
1
1
1
1
1
1
1
1
1
1
1
1
1
1
1
1
1
1
1
1
1
1
1
1
1
1
1
1
1
1
1
1
1
1
1
1
1
1
1
1
1
1
1
1
1
1
1
1
1
1
1
1
1
1
1
1
1
1
1
1
1
1
1
1
1
1
1
1
1
1
1
1
1
1
1
1
1
1
1
1
1
1

SCALARS radius float 1
LOOKUP_TABLE default
5e-05
5e-05
5e-05
5e-05
5e-05
5e-05
5e-05
5e-05
5e-05
5e-05
5e-05
5e-05
5e-05
5e-05
5e-05
5e-05
5e-05
5e-05
5e-05
5e-05
5e-05
5e-05
5e-05
5e-05
5e-05
5e-05
5e-05
5e-05
5e-05
5e-05
5e-05
5e-05
5e-05
5e-05
5e-05
5e-05
5e-05
5e-05
5e-05
5e-05
5e-05
5e-05
5e-05
5e-05
5e-05
5e-05
5e-05
5e-05
5e-05
5e-05
5e-05
5e-05
5e-05
5e-05
5e-05
5e-05
5e-05
5e-05
5e-05
5e-05
5e-05
5e-05
5e-05
5e-05
5e-05
5e-05
5e-05
5e-05
5e-05
5e-05
5e-05
5e-05
5e-05
5e-05
5e-05
5e-05
5e-05
5e-05
5e-05
5e-05
5e-05
5e-05
5e-05
5e-05
5e-05
5e-05
5e-05
5e-05
5e-05
5e-05
5e-05
5e-05
5e-05
5e-05
5e-05
5e-05
5e-05
5e-05
5e-05
5e-05
5e-05
5e-05
5e-05
5e-05
5e-05
5e-05
5e-05
5e-05
5e-05
5e-05
5e-05
5e-05
5e-05
5e-05
5e-05
5e-05
5e-05
5e-05
5e-05
5e-05
5e-05
5e-05
5e-05
5e-05
5e-05
5e-05
5e-05
5e-05
5e-05
5e-05
5e-05
5e-05
5e-05
5e-05
5e-05
5e-05
5e-05
5e-05
5e-05
5e-05
5e-05
5e-05
5e-05
5e-05
5e-05
5e-05
5e-05
5e-05
5e-05
5e-05
5e-05
5e-05
5e-05
5e-05
5e-05
5e-05
5e-05
5e-05
5e-05
5e-05
5e-05
5e-05
5e-05
5e-05
5e-05
5e-05
5e-05
5e-05
5e-05
5e-05
5e-05
5e-05
5e-05
5e-05
5e-05
5e-05
5e-05
5e-05
5e-05
5e-05
5e-05
5e-05
5e-05
5e-05
5e-05
5e-05
5e-05
5e-05
5e-05
5e-05
5e-05
5e-05
5e-05
5e-05
5e-05
5e-05
5e-05
5e-05
5e-05
5e-05
5e-05
5e-05
5e-05
5e-05
5e-05
5e-05
5e-05
5e-05
5e-05
5e-05
5e-05
5e-05
5e-05
5e-05
5e-05
5e-05
5e-05
5e-05
5e-05
5e-05
5e-05
5e-05
5e-05
5e-05
5e-05
5e-05
5e-05
5e-05
5e-05
5e-05
5e-05
5e-05
5e-05
5e-05
5e-05
5e-05
5e-05
5e-05
5e-05
5e-05
5e-05
5e-05
5e-05
5e-05
5e-05
5e-05
5e-05
5e-05
5e-05
5e-05
5e-05
5e-05
5e-05
5e-05
5e-05
5e-05
5e-05
5e-05
5e-05
5e-05
5e-05
5e-05
5e-05
5e-05
5e-05
5e-05
5e-05
5e-05
5e-05
5e-05
5e-05
5e-05
5e-05
5e-05
5e-05
5e-05
5e-05
5e-05
5e-05
5e-05
5e-05
5e-05
5e-05

SCALARS mass float 1
LOOKUP_TABLE default
1.46608e-10
1.46608e-10
1.46608e-10
1.46608e-10
1.46608e-10
1.46608e-10
1.46608e-10
1.46608e-10
1.46608e-10
1.46608e-10
1.46608e-10
1.46608e-10
1.46608e-10
1.46608e-10
1.46608e-10
1.46608e-10
1.46608e-10
1.46608e-10
1.46608e-10
1.46608e-10
1.46608e-10
1.46608e-10
1.46608e-10
1.46608e-10
1.46608e-10
1.46608e-10
1.46608e-10
1.46608e-10
1.46608e-10
1.46608e-10
1.46608e-10
1.46608e-10
1.46608e-10
1.46608e-10
1.46608e-10
1.46608e-10
1.46608e-10
1.46608e-10
1.46608e-10
1.46608e-10
1.46608e-10
1.46608e-10
1.46608e-10
1.46608e-10
1.46608e-10
1.46608e-10
1.46608e-10
1.46608e-10
1.46608e-10
1.46608e-10
1.46608e-10
1.46608e-10
1.46608e-10
1.46608e-10
1.46608e-10
1.46608e-10
1.46608e-10
1.46608e-10
1.46608e-10
1.46608e-10
1.46608e-10
1.46608e-10
1.46608e-10
1.46608e-10
1.46608e-10
1.46608e-10
1.46608e-10
1.46608e-10
1.46608e-10
1.46608e-10
1.46608e-10
1.46608e-10
1.46608e-10
1.46608e-10
1.46608e-10
1.46608e-10
1.46608e-10
1.46608e-10
1.46608e-10
1.46608e-10
1.46608e-10
1.46608e-10
1.46608e-10
1.46608e-10
1.46608e-10
1.46608e-10
1.46608e-10
1.46608e-10
1.46608e-10
1.46608e-10
1.46608e-10
1.46608e-10
1.46608e-10
1.46608e-10
1.46608e-10
1.46608e-10
1.46608e-10
1.46608e-10
1.46608e-10
1.46608e-10
1.46608e-10
1.46608e-10
1.46608e-10
1.46608e-10
1.46608e-10
1.46608e-10
1.46608e-10
1.46608e-10
1.46608e-10
1.46608e-10
1.46608e-10
1.46608e-10
1.46608e-10
1.46608e-10
1.46608e-10
1.46608e-10
1.46608e-10
1.46608e-10
1.46608e-10
1.46608e-10
1.46608e-10
1.46608e-10
1.46608e-10
1.46608e-10
1.46608e-10
1.46608e-10
1.46608e-10
1.46608e-10
1.46608e-10
1.46608e-10
1.46608e-10
1.46608e-10
1.46608e-10
1.46608e-10
1.46608e-10
1.46608e-10
1.46608e-10
1.46608e-10
1.46608e-10
1.46608e-10
1.46608e-10
1.46608e-10
1.46608e-10
1.46608e-10
1.46608e-10
1.46608e-10
1.46608e-10
1.46608e-10
1.46608e-10
1.46608e-10
1.46608e-10
1.46608e-10
1.46608e-10
1.46608e-10
1.46608e-10
1.46608e-10
1.46608e-10
1.46608e-10
1.46608e-10
1.46608e-10
1.46608e-10
1.46608e-10
1.46608e-10
1.46608e-10
1.46608e-10
1.46608e-10
1.46608e-10
1.46608e-10
1.46608e-10
1.46608e-10
1.46608e-10
1.46608e-10
1.46608e-10
1.46608e-10
1.46608e-10
1.46608e-10
1.46608e-10
1.46608e-10
1.46608e-10
1.46608e-10
1.46608e-10
1.46608e-10
1.46608e-10
1.46608e-10
1.46608e-10
1.46608e-10
1.46608e-10
1.46608e-10
1.46608e-10
1.46608e-10
1.46608e-10
1.46608e-10
1.46608e-10
1.46608e-10
1.46608e-10
1.46608e-10
1.46608e-10
1.46608e-10
1.46608e-10
1.46608e-10
1.46608e-10
1.46608e-10
1.46608e-10
1.46608e-10
1.46608e-10
1.46608e-10
1.46608e-10
1.46608e-10
1.46608e-10
1.46608e-10
1.46608e-10
1.46608e-10
1.46608e-10
1.46608e-10
1.46608e-10
1.46608e-10
1.46608e-10
1.46608e-10
1.46608e-10
1.46608e-10
1.46608e-10
1.46608e-10
1.46608e-10
1.46608e-10
1.46608e-10
1.46608e-10
1.46608e-10
1.46608e-10
1.46608e-10
1.46608e-10
1.46608e-10
1.46608e-10
1.46608e-10
1.46608e-10
1.46608e-10
1.46608e-10
1.46608e-10
1.46608e-10
1.46608e-10
1.46608e-10
1.46608e-10
1.46608e-10
1.46608e-10
1.46608e-10
1.46608e-10
1.46608e-10
1.46608e-10
1.46608e-10
1.46608e-10
1.46608e-10
1.46608e-10
1.46608e-10
1.46608e-10
1.46608e-10
1.46608e-10
1.46608e-10
1.46608e-10
1.46608e-10
1.46608e-10
1.46608e-10
1.46608e-10
1.46608e-10
1.46608e-10
1.46608e-10
1.46608e-10
1.46608e-10
1.46608e-10
1.46608e-10
1.46608e-10
1.46608e-10
1.46608e-10
1.46608e-10
1.46608e-10
1.46608e-10
1.46608e-10
1.46608e-10
1.46608e-10
1.46608e-10
1.46608e-10
1.46608e-10
1.46608e-10
1.46608e-10
1.46608e-10

VECTORS velocity float
0.00442393 -6.89622e-05 -0.000333426
0.0047815 -2.72571e-05 0.000225562
0.00453732 0.000152501 0.000100977
0.00449567 3.37436e-05 0.000135904
0.00478701 -6.34453e-05 -4.67445e-05
0.00442772 -0.00016072 5.97288e-05
0.00429479 -8.55028e-05 -0.000305863
0.00454386 -1.84689e-05 -8.29838e-05
0.00490528 -0.000246882 1.94441e-05
0.00459045 8.76099e-05 0.000125226
0.0046258 -9.86054e-05 -0.000322367
0.00486089 -0.00015972 0.000181031
0.00460609 0.000161793 0.000106911
0.00436724 -0.000886628 0.000489498
0.0045302 0.000175761 0.000102617
0.00417621 -0.000250294 0.000988578
0.00448501 -0.00015492 9.95072e-05
0.00495546 3.20752e-05 0.000177621
0.00491206 -0.000334615 -0.000591165
0.0049803 -9.30409e-05 -2.43789e-05
0.004615 0.000162334 0.000108343
0.00483192 -0.000156571 0.000175075
0.00472791 -2.10441e-05 9.17862e-05
0.00461401 -0.000121091 0.000154823
0.00416692 -0.000189648 0.000945243
0.00492642 2.62733e-05 0.000154408
0.00442635 -0.000209514 6.45477e-07
0.00460399 0.000142509 0.000112522
0.00469217 0.000138175 0.000130401
0.00445231 -9.53588e-05 0.000146916
0.00443731 0.000144075 9.29233e-05
0.00451233 8.22053e-05 0.000123815
0.00440987 -0.000127803 9.1178e-05
0.0042309 -7.48229e-05 -0.000310256
0.00446918 0.000165047 0.000100749
0.00453975 -9.10944e-05 -0.000321691
0.00498964 8.51944e-05 0.000137551
0.00489047 -1.28167e-06 -8.64629e-05
0.004573 0.000146234 0.000109494
0.00492612 6.21147e-05 0.000143778
0.00442372 -9.29842e-05 0.000134596
0.00481352 -0.000153741 0.000174859
0.00479743 -0.000203623 -0.00022874
0.00478534 0.000118794 -0.000622123
0.0044232 -8.75914e-05 0.000135771
0.00456344 4.76852e-05 4.36847e-05
0.00446985 -0.000308798 0.000138052
0.00461719 -4.85341e-05 0.00093113
0.0045614 9.13147e-05 0.000123178
0.00441519 -8.81961e-05 0.000136057
0.00455281 -0.00019153 0.00102101
0.00484799 -0.000157291 0.000176961
0.00447931 0.000145204 0.000121003
0.00501533 -7.69152e-05 -5.12437e-05
0.00465807 -6.96286e-05 -0.00035423
0.004461 0.000113981 0.000115281
0.00482947 -0.000158059 0.000176612
0.00437309 -9.38278e-05 -0.000305292
0.00452899 -0.000267685 0.000142726
0.00453362 5.82438e-05 0.000131261
0.00449369 -0.000207546 0.0010196
0.00477933 -0.000147199 -0.000296837
0.00443974 -0.000167771 0.000100414
0.00456151 -0.000163168 0.00100677
0.00488518 -0.000237722 2.54938e-05
0.00449763 -8.20663e-05 -0.000327283
0.00467054 -0.000115101 -0.000326543
0.00506951 1.62142e-05 0.00015114
0.00445555 -0.000150034 9.69196e-05
0.00444529 0.000178758 9.8403e-05
0.00423548 -0.000866021 0.000509613
0.00414368 -0.000187303 0.00093575
0.00496124 5.96419e-05 0.000134352
0.00451683 -0.000272485 0.000142903
0.00460124 -0.000198429 0.00103398
0.00400374 -0.000827589 0.000474438
0.00491997 -0.000304337 -6.33191e-05
0.00450597 -0.00019396 0.00101139
0.00455594 0.000155392 0.000110514
0.00490855 -0.000252748 2.33724e-05
0.00466594 -0.000133849 -0.000291007
0.00480986 -0.00023275 0.000185327
0.00467484 -0.000113434 -0.000316042
0.00440107 -9.32287e-05 -0.00030821
0.00466934 -0.00011072 -0.000320039
0.00500279 8.13939e-05 0.000131044
0.00478676 -0.000158975 -0.000300921
0.00448097 0.000134281 0.00011163
0.00500419 0.000153983 0.000124912
0.00497075 0.000140528 0.000156022
0.00461354 -0.000189385 0.00103043
0.00445473 0.000132367 9.99268e-05
0.00447416 0.000224807 0.000729902
0.00448196 0.000174012 9.95586e-05
0.00501614 0.000167826 0.000116971
0.00456924 -0.000219125 0.00104196
0.0041648 -4.98325e-05 0.000822596
0.00448087 -9.69847e-05 -0.000311059
0.00439114 -0.000887112 0.000507907
0.00445555 0.000154768 0.000103394
0.00447713 0.000112093 0.000105122
0.00463279 0.00014771 0.000111508
0.00436311 -5.56946e-05 -0.000342005
0.0041529 -0.00018585 0.000937535
0.00460966 0.000112994 0.00011949
0.00459204 -0.000193469 0.00102936
0.00492192 3.4072e-05 0.000173779
0.00445648 0.000122923 0.000105144
0.0045995 -0.00010504 -0.000314824
0.00452299 -0.00027321 0.000142061
0.00441005 -0.000200944 -9.50543e-06
0.00505327 0.000132528 0.00013509
0.00476711 -0.000124449 -0.000302113
0.00478037 -0.000139739 -0.000295247
0.00418478 0.000172772 0.000162942
0.00456532 9.39477e-05 0.000121377
0.00451891 0.000101217 0.000119419
0.00459874 -8.75267e-05 -0.000331435
0.00404379 -0.000499678 0.00072971
0.00443304 0.0001388 0.000107274
0.00418172 -0.000194841 0.000950099
0.00492912 -0.000214494 -0.000318997
0.00449331 -0.000286543 0.000140488
0.00493994 0.00014753 0.000141821
0.00513787 -3.57293e-05 -0.000425943
0.00477937 -0.000214687 -1.89628e-05
0.00471291 -0.000142787 -0.000280565
0.00443184 -0.000539346 0.000121161
0.00456104 -9.05613e-05 -0.0003225
0.00498352 -0.000130529 -0.000328201
0.00474011 -0.000155398 -0.000278556
0.00443589 0.000149363 0.000104827
0.00437962 -0.000288684 7.62978e-05
0.0049047 -0.00020721 -0.000228866
0.00500737 8.40979e-05 0.000117063
0.00500145 0.000108082 0.000142323
0.00463774 -0.000110159 -0.000332148
0.00439378 -0.000885949 0.000526329
0.00448791 0.00013732 5.83665e-05
0.00479879 -0.000133475 -0.000302298
0.00443085 -9.21825e-05 -0.000310923
0.00470107 -0.000151635 0.00102167
0.00457228 6.32842e-05 0.000130817
0.00414986 -0.000189904 0.000939958
0.00415314 -0.000183262 0.000936638
0.00450409 -0.000288099 0.000138189
0.00447266 0.000162162 0.000108243
0.00458688 -0.000330094 9.97287e-05
0.00481335 -0.000237867 -0.000371915
0.00476415 -0.000175306 0.00105527
0.00472828 -0.000166506 -0.000261175
0.00460871 -0.0002383 0.000154
0.00486492 -5.23969e-05 -0.000179524
0.00445001 -0.000403683 0.000130968
0.00473193 -0.0001634 -0.000276355
0.00444961 -0.000192965 0.000998541
0.00476522 6.69229e-05 0.000147515
0.00418787 -0.00046987 9.0205e-05
0.00459177 -0.000268302 0.00103623
0.00451049 0.000154071 0.000104531
0.00439454 -0.000787857 -0.000105631
0.00449962 0.000107705 0.000120847
0.00464665 -0.000192637 0.00104028
0.00478642 -0.000190511 0.00106414
0.00417242 -0.000259867 0.000992351
0.00448529 -0.000288887 0.000139918
0.00466934 -0.000185901 0.00103861
0.00460467 -0.000195369 0.0010318
0.00444467 0.000167302 0.000101157
0.00451224 -0.000271398 0.000142635
0.00456663 0.000146394 0.00011274
0.00449988 -0.0002807 0.00014157
0.00445116 0.000143741 0.000107063
0.00456382 -0.000190548 0.00102128
0.00461692 -0.000189255 0.00103093
0.00442756 -0.000138342 9.42142e-05
0.00444913 -7.40315e-05 -0.000329606
0.00439846 -6.37e-05 -0.000335387
0.0041727 -0.000180752 0.00093882
0.00494408 0.00013706 7.67633e-05
0.0047246 -0.000198382 0.00105976
0.00446326 0.000106851 0.000115457
0.00489825 -8.85181e-05 -0.000189508
0.00447001 -0.000542481 0.000277908
0.00460009 -0.000191492 0.00102908
0.00452921 -0.000106802 -0.000307543
0.0044791 -0.000287641 0.000139707
0.00442004 -0.000358599 -0.00010162
0.00415261 -0.000286148 0.000849115
0.00467225 -0.000190547 0.00104318
0.00453371 0.000437076 0.000845761
0.00465168 0.000146808 0.000110658
0.00478357 -0.000347113 0.000866077
0.00452007 -0.000166013 0.000996051
0.00465162 -0.000186342 0.00103532
0.00452892 -0.000220752 0.00103535
0.00449733 -0.00028358 0.000141087
0.00417382 -0.000187646 0.000938401
0.00452691 0.000140261 0.000109407
0.00449656 -8.19862e-05 -0.000324761
0.00450543 -0.000178627 -0.000150344
0.00472531 -0.000121141 -0.000307608
0.00432228 -0.000185177 0.000970398
0.00460552 -9.9352e-05 -0.000323296
0.00428042 -8.3904e-05 -0.000306106
0.00421555 -2.46382e-05 -0.000356154
0.00453492 0.000239454 8.55531e-05
0.00417526 -0.00017927 0.000938146
0.00448267 0.000120235 0.000114276
0.00416754 -0.000182656 0.000937165
0.00418028 -0.000707782 0.000578557
0.00449378 -0.000176614 -0.000151301
0.00475444 -0.000182037 0.00105315
0.00471917 -0.00015037 0.00105322
0.00461218 -0.00019413 0.00103327
0.00476112 -0.000192385 0.00104419
0.00450547 -0.000406936 0.000397758
0.00446018 -0.000183024 0.000991659
0.00463385 -0.000198621 0.00104037
0.00504531 -0.000248466 -0.00110744
0.00487894 -0.00011232 0.000191887
0.00462694 -8.26271e-05 0.0010096
0.00459509 -0.000196826 0.00103182
0.004578 -3.43591e-05 0.000897455
0.00461003 -0.000191445 0.00103122
0.00517618 0.00127842 -0.000515797
0.00482132 -0.000136632 0.00105309
0.00464117 -0.000192738 0.00103678
0.00513557 0.00128166 -0.000524549
0.0052167 0.0012751 -0.000507215
0.0047155 -0.000118662 0.00103883
0.00526037 0.00123749 -0.000581819
0.00488636 0.000201077 0.000107677
0.00489597 -3.55317e-06 7.25144e-05
0.00448553 -0.000175563 0.000992446
0.0048893 -1.87062e-05 -7.81799e-05
6.8027e-15 2.29895e-14 -7.03248e-14
0.00525772 0.00127198 -0.000498519
0.0044517 -0.000390022 0.000130895
0.00479276 -0.000143626 0.00103589
0.0042112 -0.000180769 0.000945923
0.00433616 -0.000601468 0.000321325
0.00478456 -0.000199185 0.00107064
0.00475825 -0.000192821 0.00104846
0.00455067 -0.000395888 9.54573e-05
0.00455156 0.000125698 0.0001145
0.00476533 -0.000112303 0.00100906
0.00478648 -0.000243813 0.000978223
0.00526774 0.00123609 -0.0005815
0.00471841 -0.00017982 0.00104537
0.0044469 -0.000188496 0.000999086
0.00431264 -4.40832e-05 -0.000346336
0.00449462 -0.000285345 0.000139448
0.00445491 -0.000357633 -9.2956e-05
0.00451923 -0.000276203 0.000141893
0.00446052 -0.000206669 0.00038085
0.00464017 -0.000184442 0.000822507
0.00439627 -0.000495168 0.000296573
0.00471816 -0.000254754 0.000901642
0.00446851 2.90984e-05 0.000167817
0.00468237 -7.96499e-05 4.41401e-05
0.00468763 -0.000177583 0.00103565
0.00496345 5.73689e-06 0.000182529
-1.28953e-14 6.08984e-14 -1.90217e-13
0.00476245 0.00133618 -0.000607276
0.00446745 -0.000308061 0.000137934
0.00472642 0.0013431 -0.000608801
0.00526463 0.00123687 -0.000581774
0.00465164 -0.000193109 0.00103986
0.00461452 -0.000197977 0.00103661
0.00442632 -0.000690181 -0.000106795
0.00458862 0.000120716 0.0001181
0.00468944 -0.000165694 0.00103
0.00461789 -0.000287617 0.000136485
0.00478249 -0.000199525 0.00105884
0.00451674 -0.000529729 0.000102017
0.00462827 0.000137106 0.000114132
0.00467015 -0.000174898 0.00102999
0.00461197 -0.000195072 0.00103399
0.00480748 -0.000175462 -0.000314944
0.00446684 0.000110368 0.000122533
0.00454659 -0.00028646 0.000139121
0.00457879 0.000154773 0.000108431

VECTORS force float
-1.31355e-11 -2.07884e-11 2.65273e-11
-2.46413e-10 -1.50448e-10 -3.20902e-10
8.93435e-11 -6.57243e-11 -1.01841e-10
-4.16674e-11 -2.27803e-10 5.648e-11
5.28524e-10 -2.71157e-10 2.12761e-10
-5.51207e-11 1.06326e-10 -1.20775e-10
-3.84235e-10 2.14632e-10 -1.73485e-10
-1.3499e-10 -4.49292e-10 3.53103e-10
1.57935e-10 -1.88575e-11 -2.85875e-11
-1.00816e-10 -2.1759e-11 8.28518e-12
1.23903e-10 4.23276e-12 -6.05414e-11
1.31831e-10 -1.33131e-10 8.29693e-11
-1.4863e-10 -8.33542e-11 -2.96165e-12
3.32821e-11 -1.83835e-12 2.08248e-11
2.08168e-10 -5.62619e-11 1.45946e-11
-8.51149e-11 1.44121e-10 -1.27694e-10
5.76407e-12 -6.58638e-11 3.15852e-11
-1.80408e-10 3.04964e-10 4.10062e-10
-5.33458e-10 2.82457e-12 -8.65069e-10
4.21761e-10 9.46538e-11 -1.00596e-10
6.38127e-11 1.23085e-10 -1.20989e-11
-7.07343e-11 -1.18784e-10 6.2352e-11
-2.45497e-10 -1.14803e-09 6.1389e-10
-7.68616e-11 7.76686e-11 -3.79617e-11
1.08322e-11 -6.5546e-12 -2.97455e-11
4.86575e-10 3.29399e-10 1.55081e-10
1.15114e-10 1.68434e-10 -1.10188e-10
-5.45599e-11 -3.95835e-11 1.64613e-11
-3.35479e-10 1.89763e-10 9.42758e-11
8.38773e-11 8.68159e-11 -4.60225e-11
4.57264e-11 -6.64117e-11 2.43924e-10
-1.66738e-11 -1.32338e-10 4.0967e-11
8.81559e-11 2.23714e-11 -1.7871e-11
-2.71746e-10 7.78993e-11 -4.99365e-11
-4.21227e-11 1.05216e-11 -8.16713e-12
1.19039e-10 2.04183e-11 -3.72361e-11
6.95455e-11 -9.37862e-11 -3.53306e-10
2.89756e-10 -4.51927e-11 -4.20343e-11
5.24488e-11 -8.65187e-11 4.69568e-12
6.39327e-11 -2.68127e-10 5.21112e-10
-5.1877e-11 -1.12857e-10 8.91994e-11
-3.13304e-11 1.55025e-10 -7.04892e-11
-1.89605e-11 3.8117e-10 -2.04875e-10
2.25436e-09 -1.4834e-09 -7.91843e-10
4.13041e-11 -1.15653e-10 5.61016e-11
3.09231e-10 -3.91853e-10 -7.79113e-10
-4.00125e-11 -5.78969e-11 2.76668e-12
-6.5112e-11 2.21227e-10 -3.90731e-11
6.87158e-11 -1.06883e-10 1.7791e-11
1.46136e-11 -1.9741e-10 7.09268e-11
1.8233e-11 1.79752e-10 -1.1235e-10
1.0028e-10 -1.82019e-10 9.75359e-11
-2.47576e-11 -5.09591e-11 1.6437e-11
-7.5117e-11 3.47585e-10 -2.90706e-10
1.43088e-10 -8.25066e-11 9.37718e-11
3.56997e-11 6.03555e-11 9.16945e-11
1.46615e-10 1.37336e-11 -1.50305e-11
3.09554e-11 6.41267e-12 -1.42429e-11
1.10039e-11 -2.93889e-11 1.77946e-11
1.28985e-10 -8.8866e-11 2.99377e-11
-1.83626e-10 5.24135e-12 -5.46468e-11
2.02796e-12 -2.33588e-10 2.69948e-10
-2.90117e-12 4.03801e-11 -7.81217e-12
5.1829e-11 1.89438e-10 -8.08739e-11
1.24786e-10 -1.65922e-10 -9.23647e-11
-5.94462e-11 1.18956e-10 -9.29717e-11
5.82967e-11 3.13722e-11 -7.91844e-12
-2.14244e-10 -1.02706e-10 -1.8458e-11
2.80208e-11 -2.58039e-11 7.86047e-12
-2.40651e-12 -2.51764e-11 -5.95724e-12
4.74627e-11 -2.68387e-11 1.19578e-10
8.71613e-11 -7.47507e-11 1.09728e-10
-5.98408e-10 -3.94345e-10 -1.19574e-10
-5.387e-11 -7.19784e-11 -2.40484e-11
7.89567e-11 1.46166e-10 -8.46484e-11
1.43865e-10 8.07622e-11 1.17921e-10
-4.22496e-11 1.30928e-10 8.62529e-11
2.7096e-11 1.50132e-10 -1.01536e-10
1.52281e-10 3.24753e-11 -9.28604e-11
-4.72876e-11 7.0763e-11 -2.24065e-11
-5.59423e-11 -8.2862e-11 2.63045e-11
1.09901e-09 1.17106e-09 8.21941e-10
-1.54484e-10 3.27305e-11 -6.33217e-11
1.68347e-10 1.77794e-11 -4.68132e-11
3.59908e-09 -3.4763e-10 -2.44225e-10
-5.69626e-10 -2.87353e-10 -2.55107e-10
2.48361e-11 1.38556e-11 4.11827e-10
-3.22075e-11 -1.08724e-10 3.52856e-11
-9.02961e-12 -3.82216e-10 -4.07039e-11
-2.96818e-10 -2.75692e-11 -4.52868e-11
-6.46559e-12 6.44082e-11 -4.61427e-11
1.11279e-10 -1.05611e-10 -4.07446e-13
-5.00103e-10 3.13319e-10 1.69252e-11
4.84863e-12 -7.01704e-11 2.87028e-12
-3.12891e-10 1.55635e-10 3.01251e-11
-2.9751e-11 1.6562e-10 -1.1521e-10
8.92745e-10 1.22525e-10 -4.47279e-11
6.48983e-11 -1.52846e-11 -5.13667e-12
1.15737e-10 -1.04268e-10 1.43531e-10
2.58909e-11 3.7288e-11 -1.69785e-11
-2.03411e-10 4.99429e-10 -2.68807e-10
-4.66082e-11 -6.04122e-11 -9.98677e-12
-3.36888e-10 2.89459e-10 -2.44057e-10
2.37285e-10 -1.34762e-10 1.44729e-10
-8.37471e-11 2.21923e-11 -7.38317e-12
3.07859e-11 1.52174e-10 -8.56309e-11
-1.27779e-10 -7.262e-11 6.71124e-11
-1.48886e-11 -1.84472e-11 3.56419e-12
1.77072e-10 6.64707e-11 -5.79382e-11
-6.65877e-11 -4.83023e-11 -1.18942e-11
2.6247e-12 1.34483e-10 -1.38074e-10
-6.6188e-11 -8.88282e-11 -5.43599e-11
4.11503e-10 2.23666e-10 -3.88187e-10
1.71746e-10 1.0739e-11 2.20045e-10
-4.66653e-11 -5.3955e-11 -7.42651e-12
-4.1834e-11 -1.10876e-10 1.76656e-11
3.32692e-11 -1.53935e-10 2.34334e-11
3.66437e-10 -4.28733e-11 -1.10288e-12
-2.58221e-10 -5.02028e-11 -2.19788e-10
-1.04044e-10 -5.60516e-11 1.15521e-11
-9.3646e-11 -3.72395e-11 -6.20914e-11
-1.00219e-11 1.10225e-10 -4.14841e-10
-6.16947e-11 3.3798e-12 5.1353e-12
2.38895e-11 2.99882e-10 6.10681e-10
-4.31972e-09 8.45411e-10 -4.40435e-10
-8.34974e-10 -7.97235e-10 1.65731e-09
2.40827e-10 -2.88141e-10 4.36006e-10
-6.17182e-11 -1.87389e-10 -1.96669e-11
-4.74634e-11 1.02952e-11 4.83428e-11
-7.45236e-10 8.06672e-10 -5.3321e-10
-1.17321e-11 -1.23735e-10 1.08907e-10
-1.71875e-11 -2.89132e-12 2.02005e-12
-2.66756e-10 1.13462e-10 -2.19215e-10
-1.72304e-10 3.02482e-10 -3.03983e-10
-5.72443e-10 -1.3686e-09 8.17738e-10
3.53508e-10 -2.73378e-10 -3.70581e-11
-1.90558e-10 1.37194e-10 5.48389e-11
-3.25294e-11 -2.10929e-10 9.34091e-11
-6.48371e-11 -1.71453e-10 7.07694e-11
7.40649e-11 9.28952e-11 -1.29232e-10
8.3704e-11 2.66611e-11 -1.41874e-12
5.34353e-11 1.62676e-10 -9.74381e-11
-2.19043e-11 2.14867e-11 -6.09496e-12
-8.67898e-11 3.32235e-12 4.61261e-11
6.00543e-11 -1.69949e-10 1.04289e-10
-3.62044e-11 -4.21716e-11 -1.03558e-11
9.67253e-11 1.54482e-10 -6.43719e-11
-2.8515e-10 2.26878e-10 7.81149e-11
-7.03773e-10 3.39182e-10 -1.14282e-11
5.65926e-10 -2.67911e-10 1.37501e-10
4.33758e-10 8.54932e-11 -4.57654e-11
1.60764e-11 9.96086e-11 -4.5056e-11
-3.3791e-10 1.82567e-10 4.97598e-10
-6.85546e-11 -1.56358e-10 -9.23464e-14
9.53105e-11 -1.19325e-10 6.20489e-12
1.6269e-10 9.35108e-11 -4.36547e-11
2.1814e-09 -1.81978e-10 -3.26004e-10
-6.64499e-10 -8.37215e-12 3.05485e-10
4.37819e-11 -1.29314e-10 -8.50876e-11
8.60256e-11 -1.16053e-10 3.20958e-11
2.20612e-10 6.08273e-10 1.5688e-10
5.92274e-11 2.42967e-11 1.6632e-10
1.95867e-11 -3.38034e-10 2.622e-10
-1.81354e-10 -1.80485e-10 5.68648e-11
5.15782e-11 1.24348e-10 -6.04456e-11
-1.77136e-10 -3.73105e-11 -1.9822e-12
1.06661e-11 -4.00711e-10 2.73196e-10
1.24007e-11 1.11996e-10 -7.5865e-11
7.68639e-12 -1.07842e-11 5.33438e-12
-1.43639e-11 -6.12703e-11 3.03023e-12
-1.35065e-10 -2.29896e-10 1.70403e-11
-9.47831e-11 1.93404e-11 5.28156e-12
4.57559e-11 -1.06383e-10 6.22335e-11
1.06639e-10 3.63876e-10 -2.18484e-10
-2.16891e-11 -5.85533e-11 3.48672e-11
7.12725e-11 -3.29629e-11 4.22423e-12
1.11946e-10 -5.67672e-11 4.10042e-11
-1.97706e-11 5.31971e-11 -5.13038e-11
-1.19521e-10 -2.97599e-12 -3.51362e-11
4.55057e-10 7.57418e-10 1.7997e-10
-1.5019e-10 -2.68163e-10 1.14316e-10
5.9887e-11 -1.52272e-10 6.15334e-11
4.57859e-11 1.48166e-10 -6.96168e-10
-1.45978e-09 -4.66204e-10 -6.67461e-10
5.44731e-11 -5.62222e-11 4.56088e-11
7.14362e-11 -3.31195e-11 1.30149e-13
7.9663e-12 1.38373e-10 4.51823e-12
-1.81894e-10 1.57649e-10 4.55898e-10
-9.22009e-11 -1.76265e-10 -2.36898e-10
-1.49045e-11 -1.48845e-10 1.00289e-10
-2.25346e-10 7.41474e-11 1.21065e-10
-1.65101e-10 -7.56741e-11 7.06567e-11
5.53897e-11 -1.17264e-10 8.537e-10
-9.23353e-11 -5.90616e-12 -6.93656e-11
1.35082e-10 -4.08594e-10 3.18941e-10
-5.67633e-11 1.81734e-10 -1.42754e-10
-1.52407e-11 -6.26262e-11 -2.66439e-11
-2.11124e-11 -4.05966e-11 -3.19561e-11
-6.55564e-11 -1.88414e-10 -1.1586e-10
1.20415e-10 -4.12372e-11 5.10653e-11
-2.33299e-11 -8.84775e-11 4.41199e-13
5.32062e-10 -2.39118e-10 -3.62994e-12
3.48343e-11 6.56166e-11 -4.99805e-11
6.09106e-11 2.96972e-11 -9.42742e-12
-7.10513e-11 2.53276e-12 -2.16504e-12
-7.2291e-11 1.9616e-10 -1.88975e-10
-6.00002e-11 8.67195e-11 -2.24551e-11
2.16453e-11 -3.25867e-10 2.757e-10
5.70847e-12 -1.67178e-10 3.24063e-11
1.13738e-10 -1.41535e-10 1.40684e-10
-6.82922e-11 7.95889e-11 8.83936e-12
2.04078e-11 -7.97012e-11 -1.94799e-11
1.98681e-11 -9.4922e-11 6.05881e-11
4.91132e-10 -1.10862e-10 6.50679e-11
1.14324e-11 6.41892e-11 -4.70434e-11
1.22211e-10 -2.99682e-10 5.41338e-11
5.40348e-11 -2.95074e-10 -3.59637e-10
7.63642e-11 -2.77951e-11 3.73044e-11
3.03756e-10 2.02954e-11 4.42586e-11
-3.03457e-09 2.7048e-09 -6.76027e-10
6.5165e-10 2.28057e-10 1.81785e-10
2.80449e-10 1.57566e-11 -9.68872e-11
4.38418e-11 1.76428e-10 -1.13323e-10
4.8463e-10 1.07033e-10 2.50161e-10
-5.57807e-11 2.71034e-12 -8.62892e-12
6.26221e-14 -1.87195e-13 -5.44039e-13
1.07552e-10 1.05922e-10 1.57579e-11
1.06104e-11 1.22992e-10 -8.66528e-11
-1.89403e-13 -1.04948e-13 1.61308e-13
-2.59357e-12 5.50757e-13 -2.40164e-12
2.84185e-11 2.86388e-10 4.26237e-11
-8.73712e-12 3.26818e-12 9.40084e-13
-5.26091e-10 -2.65203e-10 1.02284e-10
1.34382e-10 2.0243e-10 4.92679e-10
-3.93248e-11 -6.82222e-11 2.3976e-11
-8.20539e-11 4.57177e-10 -4.3924e-10
1.40879e-23 9.09899e-24 4.75629e-24
6.71675e-13 2.79459e-12 -3.6001e-12
6.28529e-11 8.47178e-11 2.22374e-11
-2.47296e-10 7.4475e-12 1.62866e-11
6.97787e-12 -3.92602e-11 1.56389e-11
1.43088e-09 5.08482e-10 -1.82064e-10
-2.08155e-10 -2.09771e-10 7.64087e-11
1.77297e-10 -2.44862e-10 9.19495e-11
-4.905e-11 9.35523e-11 -1.34134e-10
7.16886e-11 -9.93183e-11 2.36555e-11
8.41188e-11 6.95492e-11 -5.52823e-11
6.16561e-11 4.94417e-11 8.52143e-10
7.68834e-12 3.23725e-13 -1.05542e-12
6.69839e-11 -8.01202e-12 6.07174e-11
6.19391e-11 1.01271e-10 -2.20114e-11
-6.3736e-11 1.49727e-10 -1.09573e-10
-1.6804e-10 -7.79077e-12 -9.29952e-12
2.81798e-11 6.79254e-11 1.15165e-10
-7.77062e-11 -6.4122e-11 1.13692e-11
5.98048e-11 2.73778e-10 1.23812e-10
1.46954e-10 3.13517e-10 5.44322e-10
-3.73961e-10 -8.94888e-10 1.72511e-10
1.93007e-10 -3.95218e-10 5.46586e-10
-1.91518e-10 3.81723e-10 2.28397e-10
-7.23828e-11 6.84578e-12 9.09255e-11
-1.10027e-11 -5.00706e-11 5.21421e-11
-1.77504e-10 -1.12021e-10 1.15827e-11
-1.16869e-21 -2.39779e-22 -2.06795e-24
-1.6972e-12 -8.395e-13 -8.09758e-14
-4.99291e-12 -9.12992e-11 -5.89955e-12
4.71648e-12 1.27968e-12 4.28973e-14
-1.59111e-11 5.86563e-13 1.67444e-12
3.21879e-11 -9.68501e-11 7.90612e-11
2.13435e-11 1.16014e-10 -7.22892e-11
-7.46418e-10 -1.67829e-10 1.56994e-10
1.2073e-10 1.36346e-10 -2.83762e-11
1.09495e-10 -1.76962e-10 1.16642e-10
-2.13472e-10 1.49993e-10 -7.43116e-11
2.95195e-11 -5.31889e-11 1.79061e-10
6.83968e-11 -3.42494e-10 -5.99829e-11
-8.88151e-11 -3.0341e-11 -3.38013e-12
1.71607e-11 1.11614e-10 -7.55655e-11
8.77395e-11 1.05347e-10 -5.6392e-11
-1.54231e-10 -1.16483e-11 5.50232e-10
4.46852e-10 1.33625e-10 1.2286e-10
-6.42362e-11 5.71509e-11 -2.63767e-11
-3.2677e-11 -1.02459e-10 1.08218e-11
