# vtk DataFile Version 3.0
LIGGGHTS particles timestep 5000000
ASCII
DATASET POLYDATA
POINTS 289 float
0.0357797 0.0160661 0.00793749
0.0362074 0.0170334 0.00742172
0.0361151 0.0170682 0.00740538
0.0361733 0.0173299 0.00727061
0.0355686 0.0159608 0.00806307
0.041693 0.0164328 0.00766185
0.0357456 0.0166995 0.00760598
0.0355495 0.015901 0.00814086
0.0419947 0.017816 0.00717462
0.0356882 0.0164421 0.00774714
0.0359414 0.0169392 0.00747412
0.0419522 0.0176306 0.00723649
0.035726 0.01661 0.00764598
0.0294111 0.015451 0.00863823
0.0359148 0.0170576 0.00741401
0.0293891 0.0153724 0.0086959
0.0356668 0.0163501 0.00777985
0.0418886 0.0173525 0.00732928
0.0356649 0.0159828 0.00803948
0.0360797 0.0168885 0.0074979
0.0355879 0.016021 0.00798554
0.0358414 0.0169426 0.00747403
0.0419098 0.0174452 0.00729835
0.0358421 0.0167287 0.00758337
0.0417904 0.0168876 0.00748475
0.0298216 0.0170005 0.00734069
0.0356824 0.0160433 0.0079618
0.0416748 0.0163712 0.00773856
0.0357064 0.0165228 0.00769093
0.0358397 0.0171168 0.00738489
0.0417125 0.0165155 0.00760921
0.0358043 0.0165541 0.00767333
0.0358993 0.0165826 0.00765724
0.0420159 0.0179087 0.00714369
0.0357847 0.0164669 0.00771823
0.0358237 0.0166413 0.00762841
0.0418295 0.0170736 0.00742255
0.035765 0.0167912 0.00757115
0.0357039 0.0161227 0.00790503
0.0357842 0.016871 0.00751406
0.0360205 0.0170979 0.00739261
0.0362555 0.0172786 0.00729552
0.0417321 0.0166085 0.0075781
0.0418099 0.0169806 0.00745365
0.0356269 0.0161757 0.00786924
0.0359855 0.0168591 0.00751442
0.0417709 0.0167946 0.00751587
0.0360132 0.0174934 0.00718951
0.0300926 0.0169418 0.00735707
0.0418491 0.0171666 0.00739144
0.0358194 0.0162331 0.00783503
0.0294317 0.0155119 0.00856158
0.0359237 0.0167797 0.00755599
0.0417515 0.0167015 0.00754698
0.0298458 0.0166814 0.00748621
0.041931 0.0175379 0.00726742
0.0360019 0.016718 0.00758633
0.0356071 0.016088 0.00791351
0.036001 0.0170103 0.00743682
0.0361535 0.0172427 0.00731551
0.0418687 0.0172596 0.00736034
0.0355302 0.0158413 0.00821878
0.02999 0.0168968 0.00736622
0.0360957 0.016981 0.00745029
0.0299434 0.016663 0.00749856
0.0358201 0.0170297 0.00742979
0.0420371 0.0180014 0.00711276
0.0294929 0.0157218 0.00836359
0.0419735 0.0177233 0.00720555
0.0356468 0.0162636 0.00782581
0.0361481 0.0168231 0.00753025
0.0357647 0.0163798 0.00776309
0.041944 0.0171984 0.00738446
0.0361407 0.0184597 0.00705194
0.029552 0.0159278 0.00816067
0.0296876 0.0164271 0.00770008
0.0361603 0.0177071 0.00707782
0.0298064 0.0165276 0.00761379
0.0298409 0.0170966 0.00732129
0.0296105 0.0161345 0.00796143
0.0419243 0.0171052 0.0074156
0.0295974 0.0159927 0.00809962
0.0359578 0.0176403 0.00711522
0.0420514 0.0176651 0.00722875
0.0360732 0.0177547 0.0070549
0.0361179 0.0175334 0.00716736
0.0360986 0.0174462 0.00721229
0.0359541 0.0172319 0.0073242
0.036219 0.0175676 0.00714827
0.0361798 0.0182119 0.00698618
0.0360529 0.0176676 0.00709974
0.0361205 0.0183654 0.00702552
0.036183 0.0177937 0.00703318
0.036136 0.0180215 0.0069351
0.0298816 0.0168454 0.00737677
0.0362776 0.0169695 0.0074533
0.0299921 0.0165302 0.00760651
0.0358789 0.0172912 0.00729509
0.0358837 0.0168616 0.00751475
0.0300273 0.0170896 0.00732195
0.0295318 0.0158581 0.00822943
0.0359182 0.0174656 0.0072052
0.0294722 0.0156492 0.00842923
0.0357239 0.0162073 0.00785564
0.0360394 0.0171854 0.00734805
0.0359782 0.0177273 0.00707038
0.0361002 0.0182708 0.00700039
0.0297655 0.0167341 0.00745869
0.0359987 0.0178145 0.00702548
0.0298986 0.0173828 0.00725231
0.036134 0.0171555 0.00736042
0.0360539 0.0167937 0.00754678
0.035511 0.0157817 0.00829671
0.029974 0.0173186 0.00726816
0.0416572 0.0163125 0.00781756
0.0359181 0.0166701 0.00761218
0.0354918 0.015722 0.00837464
0.0362781 0.017822 0.00701722
0.0297453 0.0163027 0.00780422
0.0362389 0.018067 0.00694877
0.035744 0.0162925 0.00780732
0.0359344 0.0171447 0.00736911
0.0296491 0.0162781 0.00782783
0.0360327 0.0175806 0.0071446
0.0299326 0.0170575 0.00732822
0.0358593 0.017204 0.00733999
0.0300083 0.016994 0.00734391
0.0362315 0.0171865 0.00734304
0.03588 0.0164953 0.00770208
0.0360589 0.017272 0.00730205
0.035799 0.0161457 0.00787934
0.0294725 0.0155825 0.00850368
0.036221 0.0179687 0.00694413
0.0361381 0.0176205 0.0071225
0.0360786 0.0173591 0.00725716
0.0361174 0.0179282 0.00696596
0.0295914 0.0160655 0.00803127
0.0359737 0.0173191 0.00727929
0.0359933 0.0174063 0.00723439
0.0359379 0.0175529 0.00716024
0.0363528 0.0177624 0.0070465
0.0295337 0.015786 0.00829867
0.0358986 0.0173794 0.007252
0.0360947 0.0178415 0.00701016
0.0354705 0.0156626 0.00845221
0.030016 0.0175069 0.00721551
0.0354488 0.0156033 0.00852969
0.0298793 0.0172872 0.00727426
0.0297294 0.0165841 0.00758404
0.0299702 0.0168005 0.00738831
0.0360787 0.0181732 0.0069979
0.0299016 0.0169422 0.00735458
0.0356441 0.0159222 0.00811627
0.0301337 0.0176295 0.00717557
0.0362575 0.0185798 0.00708427
0.0301116 0.0170375 0.00733512
0.0361813 0.0186492 0.00710133
0.0301102 0.0172597 0.00728169
0.0358403 0.0163204 0.00779071
0.0299006 0.0165003 0.00763361
0.0360394 0.0179885 0.00693581
0.0302821 0.0174991 0.00720626
0.0299953 0.017413 0.00724317
0.0362562 0.0177326 0.00706326
0.0302725 0.0178456 0.0071082
0.0362987 0.0179117 0.00697096
0.0300906 0.0174421 0.0072307
0.0301562 0.0167891 0.0073933
0.0298024 0.0169047 0.00736203
0.0301867 0.0171946 0.00729691
0.0300918 0.0171643 0.00730544
0.0299195 0.0174776 0.00722818
0.036019 0.0179015 0.00698064
0.0297835 0.016452 0.00767669
0.0358603 0.0164079 0.0077464
0.0302081 0.0175645 0.00719086
0.0361302 0.0167355 0.007575
0.0300375 0.0176006 0.00718795
0.0297067 0.0165025 0.00763725
0.0420583 0.0180941 0.00708183
0.0363143 0.018003 0.00693314
0.0359937 0.0166113 0.00764088
0.029941 0.0175712 0.00720046
0.0363005 0.0183166 0.00701559
0.0299624 0.0176649 0.0071729
0.0362026 0.0178809 0.00698829
0.0356057 0.0158029 0.00827215
0.0303037 0.0175929 0.00717867
0.029878 0.0164254 0.00769588
0.0355868 0.0157432 0.00835013
0.0298228 0.0166061 0.00754874
0.0303011 0.0173169 0.0072572
0.0296686 0.016353 0.00776444
0.0301664 0.0181627 0.00702263
0.0302059 0.0172887 0.00726931
0.0359557 0.0164361 0.00772963
0.030165 0.017377 0.007246
0.0298601 0.0171915 0.00729621
0.03007 0.0173482 0.00725827
0.030017 0.0166046 0.00754456
0.0302295 0.0176582 0.00716331
0.0297901 0.01682 0.00741378
0.0362251 0.0167654 0.00755744
0.0362011 0.0183063 0.00701124
0.0419851 0.017384 0.00732246
0.0360604 0.0180851 0.00695088
0.029952 0.0171535 0.00730619
0.0300146 0.0172296 0.00728931
0.0362968 0.0175113 0.00717586
0.0362016 0.0187438 0.00712661
0.0361541 0.0181184 0.00696169
0.035759 0.0160057 0.00801442
0.0297643 0.0163764 0.00773937
0.0356249 0.0158626 0.0081942
0.0297452 0.0166662 0.00752926
0.0296295 0.0162051 0.00789326
0.0419639 0.0172913 0.00735339
0.0301766 0.0178169 0.00712046
0.0293675 0.0153227 0.00877997
0.030059 0.0176943 0.0071604
0.0298679 0.0167577 0.00742276
0.0303677 0.0178735 0.00709614
0.0300054 0.0178523 0.00711778
0.02992 0.016587 0.00756174
0.0362202 0.0184011 0.00703656
0.0361988 0.0174805 0.00719313
0.0301558 0.0185082 0.0069249
0.0300914 0.0182271 0.00700756
0.0302841 0.0182855 0.00698267
0.0300804 0.017788 0.00713284
0.0237994 0.0169094 0.00740124
0.0300699 0.0181334 0.00703512
0.0301019 0.0178816 0.00710529
0.02378 0.0168293 0.00745794
0.0238189 0.0169894 0.00734454
0.0301234 0.0179753 0.00707774
0.0238578 0.0171604 0.00725108
0.0355459 0.0156242 0.00850555
0.0363725 0.0178512 0.00700076
0.0300269 0.017946 0.00709023
0.0355671 0.0156836 0.00842798
0.0359751 0.0165237 0.00768527
0.0238382 0.0170695 0.00728783
0.0301865 0.0174707 0.00721843
0.0301551 0.0177232 0.00714802
0.0300407 0.0166797 0.0074829
0.0300484 0.0180397 0.00706267
0.0303559 0.0174333 0.00722176
0.0302626 0.0181918 0.00701023
0.0302606 0.0174053 0.00723382
0.036237 0.017398 0.00723473
0.0301343 0.0184145 0.00695245
0.0303371 0.0181268 0.00702548
0.023915 0.0174514 0.00720611
0.0301879 0.0182565 0.00699506
0.0299839 0.0177586 0.00714535
0.0362766 0.0186782 0.00711054
0.0300751 0.0168458 0.00737912
0.030251 0.0177519 0.00713575
0.0302196 0.0180044 0.00706535
0.0302411 0.0180981 0.00703779
0.0302311 0.0184442 0.00693985
0.030306 0.0183796 0.00695498
0.0301981 0.0179107 0.0070929
0.0303156 0.0180331 0.00705303
0.0303252 0.0176866 0.00715111
0.0301773 0.0186019 0.00689735
0.0361611 0.0185546 0.00707606
0.0238766 0.0172574 0.00723608
0.0239523 0.0171929 0.0072465
0.0301945 0.0169832 0.00734876
0.0239367 0.0175479 0.00719122
0.0238955 0.0173545 0.00722109
0.0301449 0.018069 0.00705018
0.0301128 0.0183208 0.00698001
0.0302941 0.0179394 0.00708059
0.0358514 0.0168296 0.00760378
0.0302095 0.0183503 0.00696745
0.0297061 0.0161614 0.00794046
0.0303586 0.0182205 0.00699793
0.0301737 0.0168851 0.00737125
0.0361736 0.0169248 0.00747782
0.0302527 0.0185379 0.00691228
0.0297258 0.016232 0.00787241
0.036113 0.017342 0.00734948
0.0360776 0.0166591 0.00761468
0.0301122 0.0175358 0.00720313
0.030057 0.0167574 0.00742208
0.036024 0.0169673 0.00752411

VERTICES 289 578
1 0
1 1
1 2
1 3
1 4
1 5
1 6
1 7
1 8
1 9
1 10
1 11
1 12
1 13
1 14
1 15
1 16
1 17
1 18
1 19
1 20
1 21
1 22
1 23
1 24
1 25
1 26
1 27
1 28
1 29
1 30
1 31
1 32
1 33
1 34
1 35
1 36
1 37
1 38
1 39
1 40
1 41
1 42
1 43
1 44
1 45
1 46
1 47
1 48
1 49
1 50
1 51
1 52
1 53
1 54
1 55
1 56
1 57
1 58
1 59
1 60
1 61
1 62
1 63
1 64
1 65
1 66
1 67
1 68
1 69
1 70
1 71
1 72
1 73
1 74
1 75
1 76
1 77
1 78
1 79
1 80
1 81
1 82
1 83
1 84
1 85
1 86
1 87
1 88
1 89
1 90
1 91
1 92
1 93
1 94
1 95
1 96
1 97
1 98
1 99
1 100
1 101
1 102
1 103
1 104
1 105
1 106
1 107
1 108
1 109
1 110
1 111
1 112
1 113
1 114
1 115
1 116
1 117
1 118
1 119
1 120
1 121
1 122
1 123
1 124
1 125
1 126
1 127
1 128
1 129
1 130
1 131
1 132
1 133
1 134
1 135
1 136
1 137
1 138
1 139
1 140
1 141
1 142
1 143
1 144
1 145
1 146
1 147
1 148
1 149
1 150
1 151
1 152
1 153
1 154
1 155
1 156
1 157
1 158
1 159
1 160
1 161
1 162
1 163
1 164
1 165
1 166
1 167
1 168
1 169
1 170
1 171
1 172
1 173
1 174
1 175
1 176
1 177
1 178
1 179
1 180
1 181
1 182
1 183
1 184
1 185
1 186
1 187
1 188
1 189
1 190
1 191
1 192
1 193
1 194
1 195
1 196
1 197
1 198
1 199
1 200
1 201
1 202
1 203
1 204
1 205
1 206
1 207
1 208
1 209
1 210
1 211
1 212
1 213
1 214
1 215
1 216
1 217
1 218
1 219
1 220
1 221
1 222
1 223
1 224
1 225
1 226
1 227
1 228
1 229
1 230
1 231
1 232
1 233
1 234
1 235
1 236
1 237
1 238
1 239
1 240
1 241
1 242
1 243
1 244
1 245
1 246
1 247
1 248
1 249
1 250
1 251
1 252
1 253
1 254
1 255
1 256
1 257
1 258
1 259
1 260
1 261
1 262
1 263
1 264
1 265
1 266
1 267
1 268
1 269
1 270
1 271
1 272
1 273
1 274
1 275
1 276
1 277
1 278
1 279
1 280
1 281
1 282
1 283
1 284
1 285
1 286
1 287
1 288

POINT_DATA 289
SCALARS id int 1
LOOKUP_TABLE default
1
2
3
4
5
6
7
8
9
10
11
12
13
14
15
16
17
18
19
20
21
22
24
25
26
27
29
30
31
32
33
34
35
36
37
38
39
40
41
42
43
44
45
46
47
48
49
50
52
53
54
55
56
57
58
59
60
61
62
63
64
65
66
67
68
69
70
71
72
73
74
75
76
77
78
79
80
81
82
83
84
85
86
87
88
89
90
91
92
93
94
95
96
98
99
100
101
102
103
104
105
106
107
108
109
110
111
112
113
114
115
116
117
118
119
120
121
122
123
124
125
126
127
128
129
130
131
132
133
134
135
136
137
138
139
140
141
142
144
145
146
147
148
149
150
152
153
154
155
156
157
158
159
160
161
162
164
165
166
167
168
169
170
171
172
173
174
175
176
177
178
179
180
181
182
183
184
185
186
187
188
189
190
191
192
193
194
195
196
197
198
199
200
201
202
203
204
205
206
207
208
209
210
211
213
214
215
216
217
218
219
220
221
222
223
224
225
226
227
228
229
230
231
232
233
234
235
236
237
238
239
241
242
243
244
245
246
247
248
249
250
251
252
253
254
255
256
257
258
259
260
261
262
263
264
265
267
268
269
270
271
272
273
274
275
276
277
278
279
280
281
282
283
284
285
286
287
288
289
290
292
293
294
295
296
297
298
299
300

SCALARS type int 1
LOOKUP_TABLE default
1
1
1
1
1
1
1
1
1
1
1
1
1
1
1
1
1
1
1
1
1
1
1
1
1
1
1
1
1
1
1
1
1
1
1
1
1
1
1
1
1
1
1
1
1
1
1
1
1
1
1
1
1
1
1
1
1
1
1
1
1
1
1
1
1
1
1
1
1
1
1
1
1
1
1
1
1
1
1
1
1
1
1
1
1
1
1
1
1
1
1
1
1
1
1
1
1
1
1
1
1
1
1
1
1
1
1
1
1
1
1
1
1
1
1
1
1
1
1
1
1
1
1
1
1
1
1
1
1
1
1
1
1
1
1
1
1
1
1
1
1
1
1
1
1
1
1
1
1
1
1
1
1
1
1
1
1
1
1
1
1
1
1
1
1
1
1
1
1
1
1
1
1
1
1
1
1
1
1
1
1
1
1
1
1
1
1
1
1
1
1
1
1
1
1
1
1
1
1
1
1
1
1
1
1
1
1
1
1
1
1
1
1
1
1
1
1
1
1
1
1
1
1
1
1
1
1
1
1
1
1
1
1
1
1
1
1
1
1
1
1
1
1
1
1
1
1
1
1
1
1
1
1
1
1
1
1
1
1
1
1
1
1
1
1
1
1
1
1
1
1
1
1
1
1
1
1
1
1
1
1
1
1
1
1
1
1
1
1

SCALARS radius float 1
LOOKUP_TABLE default
5e-05
5e-05
5e-05
5e-05
5e-05
5e-05
5e-05
5e-05
5e-05
5e-05
5e-05
5e-05
5e-05
5e-05
5e-05
5e-05
5e-05
5e-05
5e-05
5e-05
5e-05
5e-05
5e-05
5e-05
5e-05
5e-05
5e-05
5e-05
5e-05
5e-05
5e-05
5e-05
5e-05
5e-05
5e-05
5e-05
5e-05
5e-05
5e-05
5e-05
5e-05
5e-05
5e-05
5e-05
5e-05
5e-05
5e-05
5e-05
5e-05
5e-05
5e-05
5e-05
5e-05
5e-05
5e-05
5e-05
5e-05
5e-05
5e-05
5e-05
5e-05
5e-05
5e-05
5e-05
5e-05
5e-05
5e-05
5e-05
5e-05
5e-05
5e-05
5e-05
5e-05
5e-05
5e-05
5e-05
5e-05
5e-05
5e-05
5e-05
5e-05
5e-05
5e-05
5e-05
5e-05
5e-05
5e-05
5e-05
5e-05
5e-05
5e-05
5e-05
5e-05
5e-05
5e-05
5e-05
5e-05
5e-05
5e-05
5e-05
5e-05
5e-05
5e-05
5e-05
5e-05
5e-05
5e-05
5e-05
5e-05
5e-05
5e-05
5e-05
5e-05
5e-05
5e-05
5e-05
5e-05
5e-05
5e-05
5e-05
5e-05
5e-05
5e-05
5e-05
5e-05
5e-05
5e-05
5e-05
5e-05
5e-05
5e-05
5e-05
5e-05
5e-05
5e-05
5e-05
5e-05
5e-05
5e-05
5e-05
5e-05
5e-05
5e-05
5e-05
5e-05
5e-05
5e-05
5e-05
5e-05
5e-05
5e-05
5e-05
5e-05
5e-05
5e-05
5e-05
5e-05
5e-05
5e-05
5e-05
5e-05
5e-05
5e-05
5e-05
5e-05
5e-05
5e-05
5e-05
5e-05
5e-05
5e-05
5e-05
5e-05
5e-05
5e-05
5e-05
5e-05
5e-05
5e-05
5e-05
5e-05
5e-05
5e-05
5e-05
5e-05
5e-05
5e-05
5e-05
5e-05
5e-05
5e-05
5e-05
5e-05
5e-05
5e-05
5e-05
5e-05
5e-05
5e-05
5e-05
5e-05
5e-05
5e-05
5e-05
5e-05
5e-05
5e-05
5e-05
5e-05
5e-05
5e-05
5e-05
5e-05
5e-05
5e-05
5e-05
5e-05
5e-05
5e-05
5e-05
5e-05
5e-05
5e-05
5e-05
5e-05
5e-05
5e-05
5e-05
5e-05
5e-05
5e-05
5e-05
5e-05
5e-05
5e-05
5e-05
5e-05
5e-05
5e-05
5e-05
5e-05
5e-05
5e-05
5e-05
5e-05
5e-05
5e-05
5e-05
5e-05
5e-05
5e-05
5e-05
5e-05
5e-05
5e-05
5e-05
5e-05
5e-05
5e-05
5e-05
5e-05
5e-05
5e-05
5e-05
5e-05
5e-05
5e-05
5e-05
5e-05
5e-05
5e-05
5e-05
5e-05
5e-05
5e-05
5e-05
5e-05
5e-05
5e-05
5e-05
5e-05
5e-05
5e-05
5e-05
5e-05
5e-05
5e-05
5e-05
5e-05

SCALARS mass float 1
LOOKUP_TABLE default
1.46608e-10
1.46608e-10
1.46608e-10
1.46608e-10
1.46608e-10
1.46608e-10
1.46608e-10
1.46608e-10
1.46608e-10
1.46608e-10
1.46608e-10
1.46608e-10
1.46608e-10
1.46608e-10
1.46608e-10
1.46608e-10
1.46608e-10
1.46608e-10
1.46608e-10
1.46608e-10
1.46608e-10
1.46608e-10
1.46608e-10
1.46608e-10
1.46608e-10
1.46608e-10
1.46608e-10
1.46608e-10
1.46608e-10
1.46608e-10
1.46608e-10
1.46608e-10
1.46608e-10
1.46608e-10
1.46608e-10
1.46608e-10
1.46608e-10
1.46608e-10
1.46608e-10
1.46608e-10
1.46608e-10
1.46608e-10
1.46608e-10
1.46608e-10
1.46608e-10
1.46608e-10
1.46608e-10
1.46608e-10
1.46608e-10
1.46608e-10
1.46608e-10
1.46608e-10
1.46608e-10
1.46608e-10
1.46608e-10
1.46608e-10
1.46608e-10
1.46608e-10
1.46608e-10
1.46608e-10
1.46608e-10
1.46608e-10
1.46608e-10
1.46608e-10
1.46608e-10
1.46608e-10
1.46608e-10
1.46608e-10
1.46608e-10
1.46608e-10
1.46608e-10
1.46608e-10
1.46608e-10
1.46608e-10
1.46608e-10
1.46608e-10
1.46608e-10
1.46608e-10
1.46608e-10
1.46608e-10
1.46608e-10
1.46608e-10
1.46608e-10
1.46608e-10
1.46608e-10
1.46608e-10
1.46608e-10
1.46608e-10
1.46608e-10
1.46608e-10
1.46608e-10
1.46608e-10
1.46608e-10
1.46608e-10
1.46608e-10
1.46608e-10
1.46608e-10
1.46608e-10
1.46608e-10
1.46608e-10
1.46608e-10
1.46608e-10
1.46608e-10
1.46608e-10
1.46608e-10
1.46608e-10
1.46608e-10
1.46608e-10
1.46608e-10
1.46608e-10
1.46608e-10
1.46608e-10
1.46608e-10
1.46608e-10
1.46608e-10
1.46608e-10
1.46608e-10
1.46608e-10
1.46608e-10
1.46608e-10
1.46608e-10
1.46608e-10
1.46608e-10
1.46608e-10
1.46608e-10
1.46608e-10
1.46608e-10
1.46608e-10
1.46608e-10
1.46608e-10
1.46608e-10
1.46608e-10
1.46608e-10
1.46608e-10
1.46608e-10
1.46608e-10
1.46608e-10
1.46608e-10
1.46608e-10
1.46608e-10
1.46608e-10
1.46608e-10
1.46608e-10
1.46608e-10
1.46608e-10
1.46608e-10
1.46608e-10
1.46608e-10
1.46608e-10
1.46608e-10
1.46608e-10
1.46608e-10
1.46608e-10
1.46608e-10
1.46608e-10
1.46608e-10
1.46608e-10
1.46608e-10
1.46608e-10
1.46608e-10
1.46608e-10
1.46608e-10
1.46608e-10
1.46608e-10
1.46608e-10
1.46608e-10
1.46608e-10
1.46608e-10
1.46608e-10
1.46608e-10
1.46608e-10
1.46608e-10
1.46608e-10
1.46608e-10
1.46608e-10
1.46608e-10
1.46608e-10
1.46608e-10
1.46608e-10
1.46608e-10
1.46608e-10
1.46608e-10
1.46608e-10
1.46608e-10
1.46608e-10
1.46608e-10
1.46608e-10
1.46608e-10
1.46608e-10
1.46608e-10
1.46608e-10
1.46608e-10
1.46608e-10
1.46608e-10
1.46608e-10
1.46608e-10
1.46608e-10
1.46608e-10
1.46608e-10
1.46608e-10
1.46608e-10
1.46608e-10
1.46608e-10
1.46608e-10
1.46608e-10
1.46608e-10
1.46608e-10
1.46608e-10
1.46608e-10
1.46608e-10
1.46608e-10
1.46608e-10
1.46608e-10
1.46608e-10
1.46608e-10
1.46608e-10
1.46608e-10
1.46608e-10
1.46608e-10
1.46608e-10
1.46608e-10
1.46608e-10
1.46608e-10
1.46608e-10
1.46608e-10
1.46608e-10
1.46608e-10
1.46608e-10
1.46608e-10
1.46608e-10
1.46608e-10
1.46608e-10
1.46608e-10
1.46608e-10
1.46608e-10
1.46608e-10
1.46608e-10
1.46608e-10
1.46608e-10
1.46608e-10
1.46608e-10
1.46608e-10
1.46608e-10
1.46608e-10
1.46608e-10
1.46608e-10
1.46608e-10
1.46608e-10
1.46608e-10
1.46608e-10
1.46608e-10
1.46608e-10
1.46608e-10
1.46608e-10
1.46608e-10
1.46608e-10
1.46608e-10
1.46608e-10
1.46608e-10
1.46608e-10
1.46608e-10
1.46608e-10
1.46608e-10
1.46608e-10
1.46608e-10
1.46608e-10
1.46608e-10
1.46608e-10
1.46608e-10
1.46608e-10
1.46608e-10
1.46608e-10
1.46608e-10
1.46608e-10
1.46608e-10
1.46608e-10
1.46608e-10
1.46608e-10
1.46608e-10
1.46608e-10
1.46608e-10
1.46608e-10
1.46608e-10
1.46608e-10
1.46608e-10
1.46608e-10
1.46608e-10
1.46608e-10
1.46608e-10

VECTORS velocity float
0.0047701 0.000142953 7.98534e-05
0.0044651 8.81797e-05 -0.000115696
0.00436347 -0.000137759 7.31879e-07
0.00446847 -0.000175685 1.75687e-05
0.00466443 0.000155638 -2.68532e-05
0.00439758 -0.000355999 0.000259504
0.00403074 -2.14372e-05 -2.87499e-05
0.0046059 0.000159119 -3.00539e-05
0.00464685 -0.000353772 0.000313308
0.00434161 -0.000160058 1.40938e-05
0.00434584 -6.9276e-05 -4.04457e-05
0.00459602 -0.000351201 0.000310823
0.00417733 -8.0677e-05 -2.82998e-05
0.00496647 0.000237198 4.41036e-05
0.00434223 -1.56607e-05 -5.98673e-05
0.00497901 0.000251534 4.36283e-05
0.00436299 -0.000192641 1.90923e-05
0.00452553 -0.000349573 0.000306446
0.00460999 0.000189417 -2.43972e-05
0.00438301 -9.24148e-05 -2.776e-05
0.00464481 0.00018794 -5.90722e-06
0.00435343 -5.29264e-05 -8.1656e-05
0.00454872 -0.00035176 0.000308065
0.00400186 -0.000235953 4.6551e-05
0.00428363 -0.000285263 0.000274178
0.00448701 0.000218518 8.92869e-06
0.00464595 0.000182127 -2.83807e-06
0.00435192 -0.000372367 0.000251616
0.00430549 -0.000120748 -1.82642e-05
0.00437291 -1.16133e-05 -6.25601e-05
0.00442444 -0.000319104 0.000303843
0.00421952 2.2642e-05 -7.8133e-05
0.00421504 0.00015535 -0.000145643
0.00466367 -0.000360777 0.00031637
0.0043871 -6.34894e-06 -8.60264e-05
0.00410926 4.57796e-05 -8.84517e-05
0.00427875 -0.000294256 0.000277145
0.00417914 -4.74223e-05 -8.40687e-05
0.00472824 0.000103917 -3.7657e-05
0.00436356 -8.65436e-05 -0.000119507
0.00438019 -0.000114486 -4.86757e-06
0.00444015 -0.000202768 3.29813e-05
0.00432103 -0.000294348 0.000278051
0.0042867 -0.000288207 0.000275911
0.00511314 -0.000326939 0.000134089
0.00438351 -6.14739e-05 -4.27537e-05
0.0042733 -0.000282802 0.000273425
0.00458801 -0.00012326 -1.33619e-05
0.00440777 0.000186478 1.33294e-05
0.00426677 -0.000298844 0.000278678
0.00462945 3.70139e-05 -0.000156183
0.00493196 0.000240377 4.61951e-05
0.0041916 -0.000174723 1.66121e-05
0.00428149 -0.000284187 0.00027551
0.00444836 6.61264e-05 -0.000178792
0.00457948 -0.000348023 0.000309267
0.00410137 0.000196008 -0.000164825
0.00364574 -0.000671966 0.000323109
0.00436416 -0.000100723 -1.88202e-05
0.00440175 -0.00014499 3.30836e-06
0.00422216 -0.000296789 0.000276139
0.00456515 0.000152472 -3.23695e-05
0.00446579 0.000199729 9.37635e-06
0.00433544 -0.000130483 -3.4591e-06
0.00446583 8.49625e-05 -0.000189495
0.00437145 -1.55221e-05 -6.4142e-05
0.00468094 -0.000375209 0.000321516
0.004415 0.000267223 -1.15713e-05
0.00461326 -0.000355899 0.000311435
0.00443282 -0.000258308 -8.79033e-05
0.00447258 -2.09579e-05 -6.12577e-05
0.00451085 -1.02768e-05 -0.000127529
0.00421596 -0.000295885 0.000275391
0.00471716 -0.000343264 -7.41924e-06
0.00456623 0.000226553 3.76178e-05
0.00438869 9.83846e-05 -0.000158946
0.00489095 -0.000191185 2.03774e-05
0.00438991 7.33913e-05 -0.000182606
0.00445465 0.000223457 5.63529e-06
0.00446428 0.00022431 3.46316e-05
0.00427607 -0.000291112 0.000276292
0.0045596 0.000224814 3.97556e-05
0.00480559 -6.08561e-05 -4.35701e-05
0.00461173 -0.000354611 0.000311716
0.00485858 -0.000185497 1.39713e-05
0.00474139 -0.000176935 1.3582e-05
0.00465959 -0.000168409 8.76041e-06
0.00436826 -3.16868e-05 -5.37975e-05
0.00475954 -0.000250469 5.30842e-05
0.00486657 -0.000191621 -7.91833e-06
0.00480727 -0.000182096 1.3457e-05
0.00479394 -0.000323979 -9.95159e-06
0.00491159 -0.000199948 1.99117e-05
0.00489393 -0.000195873 2.49228e-05
0.00446397 0.000191408 1.65865e-05
0.0048872 0.000458299 -0.000312012
0.00437733 0.000127991 -0.000226836
0.00437628 -5.07231e-05 -4.31544e-05
0.00424739 -0.000110789 -4.31767e-06
0.00435085 0.000141364 2.24052e-05
0.00454542 0.000237423 2.9455e-05
0.00455642 0.000685217 -0.000421874
0.00449438 0.000264307 -5.25244e-06
0.00464165 2.55251e-05 -0.000139432
0.00436169 -0.000123957 -2.01244e-06
0.00485957 -2.82981e-05 -5.96173e-05
0.00480132 -0.00030594 -3.44303e-05
0.0044626 0.000102375 -0.000193408
0.00486995 -0.000170246 8.53586e-06
0.00456009 0.00021638 7.86077e-06
0.00437525 -0.000134966 -1.13086e-06
0.0044678 -2.62185e-06 -6.55708e-05
0.00459043 0.000128187 3.66771e-06
0.00451756 0.000169183 1.47956e-05
0.00432044 -0.000362876 0.000254118
0.0040986 0.000158625 -0.000147668
0.00448309 0.000108507 1.897e-05
0.00489537 -0.000204281 2.50024e-05
0.0044763 0.000282852 -2.45668e-05
0.00491877 -0.000193859 3.51387e-05
0.00456914 -2.41467e-05 -0.00017672
0.00434085 -1.48884e-05 -6.10226e-05
0.00444551 0.000209248 9.82351e-06
0.00473964 -0.000157661 6.92999e-06
0.00442865 0.00019749 1.11819e-05
0.00435908 -3.00365e-05 -5.41554e-05
0.0043632 0.000131784 2.44225e-05
0.00437183 -0.000192913 2.88034e-05
0.00430964 0.000128748 -0.000176055
0.00437972 -0.000129206 -1.13384e-06
0.00461166 4.31438e-05 -0.000141449
0.00479962 0.000214166 -6.50773e-05
0.0049071 -0.000186722 2.58281e-05
0.00481345 -0.000177956 1.42651e-05
0.00449989 -0.000142223 2.38165e-06
0.00489883 -0.000197473 5.54804e-06
0.00451136 0.000222028 4.46659e-05
0.00438966 -8.55904e-05 -2.86004e-05
0.00444827 -9.33651e-05 -2.67695e-05
0.00447933 0.000336521 -0.000243219
0.00486557 -0.000224427 4.0477e-05
0.00449014 0.000240968 2.24893e-05
0.00435536 -0.00132038 -0.00236709
0.00489359 -0.000197212 -3.56736e-06
0.00478222 2.77081e-05 0.000125817
0.00477978 5.58766e-05 -0.000220929
0.00475802 4.73134e-05 0.000105767
0.00449291 0.000226317 1.66592e-05
0.00440717 8.56998e-05 -0.000195107
0.00444258 0.000157465 2.23975e-05
0.00479472 -0.000304663 -0.000130334
0.00448638 0.000231409 2.43937e-06
0.00462335 0.000141645 -1.91411e-05
0.00475409 2.0868e-05 -0.000210664
0.00466239 -0.000332342 -7.50995e-06
0.00436501 0.000181635 1.41324e-05
0.00463628 -0.000359491 -2.00284e-05
0.00457496 -1.66635e-05 -0.000187354
0.00457726 6.55748e-05 -0.000159011
0.00439882 9.89602e-05 -0.000203467
0.00492071 -0.000196335 1.17844e-05
0.00464959 -9.15809e-05 -0.000174116
0.00471302 6.82895e-05 -0.000207549
0.00495862 -0.000168047 5.61451e-06
0.00480348 -5.16382e-05 -0.000192347
0.00489332 -0.000196141 2.27881e-05
0.00472544 -1.34321e-05 -0.000199352
0.0044483 0.000160391 1.92484e-05
0.00449168 0.000223537 8.0955e-06
0.00441732 -7.13782e-05 -0.000167819
0.00440725 7.80447e-05 3.01235e-05
0.00477248 0.000132458 -0.000178484
0.0048842 -0.00018749 1.66327e-05
0.00438333 7.85477e-05 -0.000185772
0.00453374 0.000111731 -0.000192852
0.00470165 -3.59848e-05 -0.000192747
0.00449103 -4.32436e-05 -0.000106806
0.00477379 5.80998e-05 -0.000220895
0.00438809 8.54014e-05 -0.000188816
0.00470139 -0.000388388 0.000327098
0.00491163 -0.000207864 2.32038e-05
0.00419363 0.000224905 -0.00022649
0.00480695 0.00012172 -0.00023487
0.00476009 -0.000140692 3.92897e-05
0.00482267 0.000116033 -0.000239861
0.00490723 -0.000196113 1.31385e-05
0.00445888 0.000100146 2.61402e-05
0.0046997 -7.84651e-05 -0.000180261
0.00439106 9.71398e-05 -0.000202858
0.00443496 8.52193e-05 5.00353e-05
0.00441769 8.91723e-05 -0.000206048
0.00456359 -0.000118228 -0.000163446
0.00441889 0.000152355 -7.57027e-05
0.00487926 6.95746e-06 -0.000212238
0.00456774 -0.000108086 -0.000166397
0.00439917 0.000241963 -0.000244977
0.00466346 -7.65756e-05 -0.000178562
0.00445604 0.000226362 5.05387e-06
0.00468224 2.18527e-05 -0.000201652
0.00440776 0.000105991 -0.000218696
0.00473381 -4.01385e-05 -0.00019232
0.00448149 0.000182498 -5.01706e-05
0.00455542 4.64558e-05 -0.000147076
0.00477203 -0.000172406 3.30079e-05
0.00454294 -0.000363845 0.000312281
0.00490733 -0.000174651 3.32744e-05
0.00442282 0.000188846 1.27582e-05
0.00447378 0.00015078 2.37714e-05
0.00470112 -0.000316918 8.73983e-05
0.00459399 -0.000360613 -1.82924e-05
0.0049248 -0.000196174 8.03509e-06
0.00466813 0.000149543 5.67303e-05
0.00439089 7.25523e-05 -0.00018655
0.00458469 0.000107713 1.36929e-05
0.00442658 6.39787e-05 -0.000232265
0.00445008 0.000229214 3.34379e-05
0.00451929 -0.000354269 0.000307931
0.00478417 -2.43852e-05 -0.000199315
0.00494847 -0.000179702 -0.000215243
0.00478083 5.15143e-05 -0.000219822
0.00438167 8.07463e-05 -0.000194776
0.00479885 -4.47618e-05 -0.000194092
0.00481954 4.97514e-05 -0.000221889
0.004416 0.000113961 -0.000215931
0.00479428 -0.000185325 3.29116e-05
0.00472017 -0.000226399 4.24996e-05
0.00493044 1.19461e-05 -0.00021567
0.00488517 1.40664e-05 -0.000214314
0.00490745 1.05285e-05 -0.000214495
0.00480688 4.3661e-05 -0.000219784
0.00441784 -0.00012149 5.97973e-05
0.00486304 1.29841e-05 -0.00021331
0.00483751 3.14257e-05 -0.000217324
0.00440447 -0.000116903 5.66469e-05
0.00443267 -0.000127265 6.39172e-05
0.00486083 2.18536e-05 -0.000215614
0.00443799 -0.000145204 4.6637e-05
0.00465966 1.47057e-05 0.000147621
0.00488217 -0.000203566 2.64985e-05
0.00484532 4.95257e-05 -0.0002229
0.00451187 4.86976e-05 9.75652e-05
0.00429896 0.000235766 -0.000237582
0.00444488 -0.000133846 6.60773e-05
0.00470717 -1.84082e-06 -0.000202141
0.00477878 1.08389e-05 -0.000209128
0.00447425 6.81341e-05 -0.000217065
0.00484936 1.3256e-05 -0.000212742
0.00463138 -0.000112386 -0.000167663
0.00489547 -3.50997e-06 -0.000209991
0.00462922 -8.6016e-05 -0.000174999
0.00460197 -0.000276539 6.88373e-05
0.00491614 1.60032e-05 -0.000216172
0.00486647 -3.57367e-05 -0.000199573
0.00473537 -0.000218376 5.79051e-05
0.00490629 1.31309e-05 -0.000215091
0.00482214 0.000103313 -0.000237158
0.00459316 -0.000249272 9.59706e-06
0.00445822 0.000189181 9.72097e-06
0.00473605 -7.34635e-05 -0.000183183
0.00484458 -1.82098e-06 -0.000208288
0.00486959 -6.02785e-06 -0.000208089
0.00493002 5.64675e-06 -0.000214106
0.0049383 1.11464e-05 -0.000215982
0.00485641 8.57342e-06 -0.000211663
0.00485135 -2.69287e-05 -0.000201423
0.00470995 -9.92616e-05 -0.000174776
0.00494563 9.75243e-06 -0.000215809
0.0046591 -0.000360746 -1.53538e-05
0.00441136 -0.000144018 4.43039e-05
0.00442824 -0.000124069 4.1777e-05
0.00438359 0.00021471 4.87906e-06
0.0047368 -0.000221054 5.80103e-05
0.00435182 -0.000137845 4.33315e-05
0.0048607 1.2537e-05 -0.000213128
0.00489874 1.37618e-05 -0.000214963
0.004826 -1.82923e-05 -0.000202748
0.00424062 -0.000131638 1.98026e-05
0.00491545 1.70233e-05 -0.000216699
0.00445181 0.000226186 3.20075e-05
0.00485915 -3.94814e-05 -0.000198145
0.00442302 0.000207896 7.8742e-06
0.00441103 -3.15203e-05 -5.38995e-05
0.00497011 3.38116e-05 -0.000223776
0.00445248 0.000228155 3.21606e-05
0.00444027 -0.000174726 2.08356e-05
0.0041516 0.000230118 -0.00022893
0.00476376 5.55941e-05 -0.000219905
0.00450368 0.000136561 -0.000104856
0.00431688 -0.00013704 -2.24333e-05

VECTORS force float
-3.13441e-10 1.65267e-10 -3.00035e-10
-7.33268e-11 -2.48651e-10 1.2348e-10
1.22149e-10 1.22229e-10 -1.07935e-10
3.04997e-10 -8.62399e-11 -2.14701e-13
1.82727e-10 -5.78354e-10 5.09987e-10
-1.94205e-10 6.52305e-11 -1.22958e-10
-1.5417e-10 -1.44174e-10 3.72179e-11
2.53552e-10 -4.20934e-11 2.86609e-10
2.10812e-11 -5.07308e-11 1.83135e-11
3.03839e-10 2.98033e-10 4.33761e-11
-4.12775e-12 2.95108e-10 9.9823e-12
5.85189e-11 1.46433e-11 1.0941e-11
-1.39682e-10 1.97425e-10 -9.99692e-11
7.03978e-11 -2.45474e-11 -7.8916e-11
1.07987e-10 9.17418e-11 -3.9329e-11
-1.74572e-11 8.80737e-11 -9.44777e-11
3.03387e-10 1.29942e-10 1.603e-10
6.21426e-11 2.92242e-11 -9.06517e-12
-3.11428e-10 5.14828e-11 -4.10833e-10
-2.44301e-11 1.62593e-10 -9.56487e-11
-1.0349e-10 -6.98726e-10 4.34091e-10
-1.98128e-10 8.48736e-11 7.15846e-11
-5.8454e-11 -1.63771e-12 -3.09716e-13
-1.74406e-10 8.25665e-11 1.49477e-10
-1.14799e-11 1.91688e-11 -2.11416e-11
-8.36753e-12 -2.3418e-10 1.05183e-10
-2.56052e-10 1.50831e-10 1.56786e-10
1.3094e-11 4.76016e-11 -1.96537e-10
-8.13963e-11 2.49215e-10 -3.25827e-11
-1.64985e-10 -2.53131e-10 6.03865e-11
8.62717e-11 -1.46893e-11 -1.97703e-11
2.23116e-10 -1.91868e-10 -5.32751e-11
-1.20007e-10 -4.05801e-10 1.36796e-10
5.12749e-11 2.63009e-11 -1.14265e-11
2.2133e-10 3.44056e-11 7.92819e-12
-1.63302e-13 -1.574e-10 2.04047e-11
1.93946e-11 9.77242e-11 -2.89741e-11
-1.17254e-10 -2.55489e-10 8.27275e-11
-4.13162e-10 2.48864e-10 -2.41013e-10
-7.45085e-12 -2.61844e-10 3.6324e-11
1.03365e-10 -3.28416e-11 -1.11385e-11
6.24441e-11 -1.54028e-10 6.5204e-11
-4.10413e-10 -2.77066e-11 -6.10645e-11
1.223e-11 8.79716e-11 -3.34178e-11
-2.38912e-10 -5.45497e-10 -1.214e-09
-1.43463e-11 3.69502e-10 -1.1733e-10
4.74506e-11 -5.76377e-11 4.62215e-11
-7.62048e-10 4.38819e-10 -9.79157e-11
-8.62299e-11 -7.79554e-11 1.87777e-11
1.26808e-13 2.02524e-11 -1.0664e-11
7.02359e-11 8.88598e-11 -1.22289e-10
-1.00728e-10 -9.12302e-11 3.23561e-11
3.50311e-10 3.69807e-10 -3.88535e-10
-1.54749e-11 -9.71003e-11 2.59837e-11
-6.78398e-11 -1.07081e-10 2.3153e-10
-1.54472e-11 2.01699e-11 3.92132e-13
-1.14874e-10 -2.48202e-10 2.08127e-10
0.0 0.0 -1.43822e-09
1.02023e-10 1.02235e-10 -4.04096e-11
1.37015e-10 1.02911e-10 -2.43893e-11
1.05447e-10 -1.25829e-10 5.82071e-11
2.91992e-11 -1.53663e-11 -2.79107e-10
-2.08376e-10 1.65339e-11 -1.64913e-11
7.33058e-11 -2.41692e-11 2.50548e-11
-1.20571e-10 -1.9314e-11 7.68194e-11
-1.09694e-10 -1.18772e-10 1.32305e-10
1.11269e-11 4.29684e-11 -8.81865e-12
-2.36526e-11 -7.29659e-11 -3.41407e-11
-5.04103e-11 -3.43662e-11 6.25159e-12
-1.78101e-10 -4.20224e-10 -5.53952e-10
-1.51229e-10 -3.48399e-11 -9.79839e-12
1.09705e-10 -6.42171e-12 1.69748e-11
-5.91191e-11 5.91095e-11 -2.38777e-11
7.95167e-10 2.90378e-10 -4.40237e-11
1.27873e-11 1.1314e-10 -6.33297e-11
2.60086e-11 1.28048e-10 -3.14608e-11
-1.59692e-10 1.12083e-10 -9.68313e-11
1.12785e-10 1.13479e-10 -1.66248e-10
-1.8708e-11 -2.20184e-10 1.05655e-10
-1.00583e-10 1.14195e-11 -1.80909e-11
-1.71981e-11 -1.42774e-11 3.1186e-12
1.10818e-10 3.23314e-11 -3.05872e-11
-3.75213e-10 2.89279e-10 -1.7628e-10
-2.85408e-11 -1.72613e-12 -3.86598e-12
1.92788e-10 -5.1774e-11 2.74854e-12
-9.15254e-12 2.81987e-10 -1.77896e-10
-8.52713e-11 1.09204e-10 -4.96784e-11
3.97422e-10 -1.32986e-10 6.2567e-11
-2.1173e-10 6.63214e-11 -1.51792e-11
2.85531e-10 -2.72363e-11 9.99324e-11
3.56823e-10 2.45027e-10 -8.11654e-11
-2.19346e-10 6.3277e-10 1.41665e-10
-7.48748e-11 5.53484e-11 -2.82337e-11
-1.79295e-10 9.49543e-11 2.06192e-10
8.35784e-11 -1.46362e-11 -2.34099e-11
9.12213e-11 -2.16264e-11 1.04472e-11
1.77037e-10 1.71715e-11 -4.93812e-11
1.37303e-10 1.39333e-10 -4.82026e-11
-1.70683e-10 2.6658e-10 -2.52511e-10
-1.88838e-10 1.8079e-11 -5.17976e-11
-4.62536e-11 8.31783e-11 -6.38019e-11
3.67167e-11 2.00312e-11 -3.56213e-11
-2.44585e-11 -6.72665e-11 1.14579e-10
2.01156e-10 1.41505e-10 -4.34433e-10
-2.74001e-10 7.64496e-11 1.94211e-11
-5.7297e-10 -9.70885e-10 4.36814e-10
-2.77227e-10 6.4863e-11 4.18113e-10
-8.95148e-11 -2.40153e-10 -2.6544e-11
2.00957e-10 2.50817e-10 -7.09206e-11
-1.24851e-10 2.52752e-11 7.70691e-11
-1.34558e-10 2.93961e-10 -1.38641e-10
-1.43765e-10 1.15888e-10 -4.95329e-11
-1.03133e-09 2.13569e-10 -4.33997e-10
-2.71812e-11 2.10663e-10 -7.13569e-11
-2.12628e-11 1.97421e-10 -1.7654e-10
-6.72152e-12 -3.81232e-10 1.46859e-10
-8.41906e-10 2.42328e-10 -3.10074e-10
2.23586e-10 1.81874e-11 -1.63514e-10
1.75465e-11 3.45904e-11 -4.12092e-11
3.0522e-10 -2.95308e-10 -1.02783e-10
2.06035e-10 3.24701e-11 8.41645e-11
-9.15497e-11 1.02874e-10 -6.2503e-11
1.71124e-11 -2.58316e-11 -8.37811e-11
-5.96896e-10 1.18202e-10 -2.81746e-11
3.35847e-10 3.14714e-10 -6.70488e-11
-2.97308e-10 -9.69193e-11 8.99353e-11
-1.76175e-11 -8.34638e-11 3.24998e-11
-8.61925e-11 -2.12641e-10 8.86376e-11
1.71708e-10 -2.79473e-10 1.53871e-10
2.15727e-10 7.45044e-11 -1.34094e-11
4.09932e-10 1.4176e-10 -2.07543e-10
-9.7593e-11 -6.69413e-11 1.52845e-10
2.61403e-10 -2.60248e-10 -3.06395e-10
-1.42164e-10 -5.94928e-11 1.8964e-11
4.02735e-10 7.69013e-11 1.04264e-11
1.64831e-10 -1.22763e-10 -7.56746e-11
4.19464e-11 2.82401e-13 -9.51402e-12
1.30596e-10 1.65947e-10 -8.18972e-11
-3.62194e-10 2.76109e-10 -4.96639e-11
1.6726e-11 7.54076e-11 -3.8835e-11
1.81279e-10 -3.00162e-11 -7.48719e-12
-3.22335e-12 4.79795e-11 -6.43437e-11
0.0 0.0 -1.43822e-09
4.94766e-10 -1.41537e-10 4.14933e-11
3.4893e-10 7.02689e-11 -6.36255e-11
-3.08503e-10 1.33677e-10 -1.39978e-10
1.53736e-10 -5.55378e-10 6.37387e-10
7.50178e-11 -7.98218e-11 7.00971e-11
6.55449e-11 -8.2418e-11 -1.52233e-10
-8.2453e-11 8.02824e-11 4.78748e-12
2.30365e-10 -2.79449e-10 2.57463e-10
-6.29284e-11 -4.55325e-11 4.54419e-11
-3.64554e-11 2.23951e-10 -3.1947e-10
-1.46815e-10 1.53705e-10 -2.44814e-11
-1.32055e-10 -3.98995e-10 -5.31453e-11
-1.08769e-10 2.00911e-12 -1.5277e-11
-4.41312e-11 -1.43393e-10 -8.93346e-11
-1.73923e-10 4.18259e-10 2.94261e-13
1.68359e-10 -1.14593e-10 9.10923e-11
1.12217e-10 1.89571e-10 -1.94108e-10
4.21236e-10 -2.98832e-10 2.77593e-11
-3.25047e-10 -3.47598e-12 1.03606e-11
-8.91401e-11 2.13832e-10 -2.54233e-10
1.17875e-10 7.83637e-11 -6.679e-11
3.75666e-11 -2.08631e-11 4.50508e-12
7.16451e-11 -2.44035e-10 9.05451e-11
-2.11466e-11 2.27547e-10 -8.57848e-11
-2.08416e-10 1.84812e-10 -4.91568e-11
3.01011e-11 -2.2857e-10 5.43431e-11
-9.89481e-11 1.06073e-10 4.70569e-12
-1.40991e-10 1.39652e-10 -2.91401e-11
1.30365e-11 -5.64539e-11 -3.60667e-10
1.21407e-10 1.53333e-10 1.98897e-10
-1.40712e-11 1.30031e-10 -1.11132e-10
3.3849e-10 -2.60839e-10 1.28143e-10
-1.79169e-10 1.57997e-10 -3.75176e-11
-2.94722e-10 -1.12106e-10 2.34457e-11
-1.91929e-10 -2.03436e-11 -1.95706e-11
5.56873e-11 7.72729e-11 -8.06551e-11
-1.62662e-11 -1.74011e-11 2.47097e-12
2.29437e-10 1.42856e-10 1.19954e-10
3.15518e-10 -2.79599e-10 1.75193e-10
-2.29562e-10 1.45741e-10 -1.27092e-10
-1.53253e-10 -1.30015e-10 -3.28609e-11
1.06923e-10 3.21732e-10 -1.24838e-10
1.27999e-10 -1.09024e-10 -1.99064e-10
-5.95207e-11 2.34806e-10 -3.02821e-10
-1.02568e-10 1.07779e-10 -2.34554e-11
1.93466e-11 2.84495e-10 -2.21654e-10
4.01507e-10 1.83862e-10 -2.5027e-10
9.93777e-11 1.36505e-10 -1.9744e-10
-3.85973e-10 2.41508e-11 4.72043e-12
6.36563e-11 6.44012e-11 -4.96474e-11
-5.936e-11 -6.55605e-11 2.0447e-11
-3.14568e-10 3.36496e-13 3.99555e-12
3.12803e-10 -1.92197e-10 9.7138e-11
-1.14705e-10 2.32514e-11 -8.98804e-12
-5.43495e-11 -1.92804e-10 3.35595e-11
-8.12387e-11 4.95076e-10 -1.83948e-10
-2.48446e-11 8.169e-11 -9.03615e-12
-4.99258e-11 1.99477e-10 -5.9075e-11
-2.74749e-11 -3.0397e-10 -7.33497e-12
-2.04508e-11 1.33825e-10 -8.03855e-11
5.19767e-11 -2.80696e-10 1.09985e-10
-5.20273e-11 -1.18009e-11 -4.22942e-12
-1.96818e-10 -1.84972e-10 1.09351e-10
-8.36516e-11 5.25193e-11 -1.72329e-11
-1.03179e-10 1.47618e-10 -9.97897e-11
-2.13145e-11 5.41208e-11 -3.14151e-11
-1.52563e-12 -7.69269e-11 -2.41404e-11
1.07825e-10 -1.35114e-10 -1.15338e-10
-3.17946e-10 3.60774e-10 -4.16136e-10
8.83265e-11 1.42806e-10 -1.60465e-10
-1.79136e-11 2.26856e-10 -2.7554e-10
-3.65579e-11 -1.66679e-10 -9.43164e-11
-5.62914e-11 -1.49414e-11 -2.90176e-11
-1.62488e-11 9.533e-12 -2.88091e-12
2.76231e-11 1.45749e-10 -4.36855e-11
-2.07776e-10 -1.4375e-10 -1.51681e-10
-2.70654e-10 -8.05525e-12 2.22935e-11
-4.97165e-11 5.29637e-11 -7.33262e-11
7.46724e-11 -1.83357e-10 4.8874e-11
-8.30798e-11 6.78884e-11 -1.47686e-11
4.89733e-11 1.2572e-10 -1.43207e-10
-1.91034e-11 -6.32552e-10 -2.44896e-10
9.82848e-11 6.27262e-11 -6.40399e-11
-2.65289e-11 -1.17827e-10 3.66055e-11
6.51838e-11 8.40747e-11 -2.27497e-11
1.01448e-10 -5.93585e-11 1.09703e-11
-2.30083e-10 3.32619e-11 6.63704e-12
-1.1412e-11 -2.98109e-11 2.48367e-11
-1.27843e-11 5.57029e-11 -1.44621e-11
3.71916e-11 7.13406e-11 -2.68976e-11
-4.38288e-12 -3.57737e-11 2.44567e-11
-3.08365e-12 -2.16481e-11 1.16028e-11
1.04031e-10 7.30415e-11 -2.44593e-11
-9.72497e-12 -1.28335e-11 7.10302e-12
1.99288e-09 -2.52626e-10 3.56716e-10
1.95686e-11 -1.70492e-10 6.65434e-11
5.21129e-11 1.06539e-10 -3.26011e-11
3.07215e-11 2.0327e-10 -2.99527e-10
3.1123e-10 -2.11225e-10 1.2921e-10
-4.09544e-12 -1.79907e-11 4.62936e-12
-1.56566e-10 2.22024e-10 -4.82441e-11
-2.25829e-10 3.77073e-11 7.93541e-13
-2.9508e-10 6.99418e-11 4.4865e-11
4.00662e-11 5.91975e-11 -1.92025e-11
-1.94188e-10 8.80086e-11 -1.34495e-11
6.1438e-11 -7.93799e-11 2.10776e-11
-2.03133e-10 2.00269e-10 -5.17262e-11
1.08082e-10 -2.36924e-10 1.39338e-10
-2.94827e-11 -6.86947e-11 2.19635e-11
1.9436e-10 1.61265e-12 -9.53481e-12
3.55611e-11 1.72657e-11 -3.45379e-12
-1.12437e-11 -5.66105e-11 1.61881e-11
1.35197e-10 3.5451e-10 -9.75388e-11
1.40832e-10 -2.18258e-10 -6.49753e-11
-3.15878e-10 -6.2031e-13 -7.92277e-11
-2.7124e-11 8.85856e-11 -2.28303e-11
1.00201e-10 4.91431e-11 -1.90192e-11
-2.78189e-11 -3.78436e-11 1.25024e-11
9.11531e-12 -1.28493e-10 3.71898e-11
1.15984e-10 -3.44653e-11 4.47053e-12
-2.26165e-11 -6.68795e-11 1.95119e-11
4.84924e-11 2.98471e-11 -1.0362e-11
-1.13139e-10 -2.31882e-11 1.02095e-11
-4.56768e-11 -1.44409e-10 4.10947e-11
-1.72623e-11 -2.13546e-10 7.72291e-11
-5.89801e-12 -1.64323e-11 -5.02049e-12
5.37475e-13 -2.91293e-11 8.99272e-12
-5.0426e-11 5.41365e-11 -3.30561e-13
-7.82569e-12 4.38924e-11 -5.7937e-12
2.96822e-10 -6.55858e-11 1.09715e-11
3.13068e-11 5.50377e-11 -1.58101e-11
3.61949e-11 4.90984e-11 -1.51708e-11
1.1409e-10 -3.59419e-11 5.42893e-12
1.46896e-11 2.54041e-10 -3.3202e-10
-2.55525e-11 -1.43593e-10 4.24754e-11
-2.74758e-10 -1.18816e-10 9.38289e-11
1.38066e-10 -7.03196e-11 1.44744e-11
2.74905e-11 -1.44108e-11 1.64672e-11
4.69887e-11 -2.66304e-10 1.17971e-10
7.2575e-11 -4.98265e-13 -2.67147e-12
-1.89798e-11 -8.34007e-13 1.09041e-10
1.96661e-10 8.80055e-12 9.75338e-11
2.71274e-10 -2.30044e-11 -1.37984e-11
-2.19801e-10 2.75774e-11 -6.97201e-12
-2.3492e-10 -7.69272e-11 -1.15603e-10
8.13214e-11 2.14145e-10 -9.69779e-12
