# vtk DataFile Version 3.0
LIGGGHTS particles timestep 23600000
ASCII
DATASET POLYDATA
POINTS 289 float
0.12122 0.0164897 0.0076379
0.121611 0.0176818 0.00716535
0.121464 0.0176423 0.00726123
0.121474 0.0175618 0.00719839
0.120815 0.0160503 0.00816577
0.126926 0.0164039 0.00773881
0.120953 0.0164983 0.00764576
0.120796 0.0159863 0.00824008
0.12724 0.0176953 0.00708398
0.121243 0.0174649 0.00731578
0.121207 0.0167726 0.00742109
0.1272 0.0175045 0.00712817
0.121223 0.0173696 0.00733816
0.114739 0.0158233 0.00848836
0.121111 0.0167435 0.00743561
0.114718 0.0157507 0.00855392
0.121167 0.0172873 0.0073744
0.127138 0.017222 0.007207
0.121187 0.0170851 0.00740724
0.12137 0.0170767 0.0073126
0.120835 0.0161144 0.00809142
0.121089 0.0166609 0.00748763
0.127161 0.0173141 0.00717503
0.121068 0.0165861 0.00755032
0.127031 0.0168078 0.00746551
0.11503 0.0168435 0.00757553
0.121204 0.0171821 0.00738448
0.126906 0.0163308 0.00780409
0.121325 0.0174048 0.00732384
0.121037 0.0168006 0.00739979
0.126945 0.0164771 0.00767354
0.121371 0.0175972 0.00727791
0.121143 0.0165365 0.00759355
0.127281 0.0178874 0.00704672
0.120933 0.0164343 0.00772004
0.121048 0.0165166 0.00761935
0.127074 0.0169735 0.0073621
0.120973 0.0165625 0.00757115
0.121084 0.0163426 0.00781463
0.120993 0.016632 0.00749826
0.121248 0.0169534 0.00734575
0.121536 0.017746 0.00715409
0.126967 0.0165592 0.00762063
0.127053 0.0168905 0.0074139
0.120874 0.0162424 0.00794284
0.121343 0.0169832 0.00733494
0.12701 0.0167249 0.00751722
0.121221 0.0172077 0.00728941
0.115344 0.0169986 0.00745441
0.127097 0.0170559 0.00731062
0.121262 0.0166321 0.00750568
0.114758 0.0159177 0.00852037
0.121379 0.0176999 0.00725374
0.126988 0.0166421 0.00756892
0.115042 0.0165758 0.00781605
0.12718 0.0174091 0.00715028
0.121322 0.0168874 0.00735749
0.120854 0.0161784 0.00801714
0.121228 0.016862 0.007381
0.121457 0.017458 0.00722262
0.127117 0.0171391 0.00725875
0.120776 0.0159222 0.0083145
0.115182 0.016749 0.00766708
0.121393 0.0171715 0.00729018
0.115138 0.016604 0.00779786
0.121015 0.0167163 0.00744902
0.127302 0.0179846 0.0070347
0.114841 0.0159887 0.0084342
0.127221 0.0175998 0.0071061
0.120894 0.0163082 0.00787021
0.121669 0.01797 0.00709767
0.120914 0.0163703 0.00779432
0.127295 0.0175353 0.00712194
0.121301 0.0179884 0.00710933
0.114801 0.0160411 0.00829168
0.114905 0.0164061 0.00796626
0.121399 0.0176271 0.00718686
0.115319 0.0175129 0.00722224
0.115052 0.0169243 0.00752072
0.114822 0.0161137 0.00822611
0.127275 0.01744 0.00714402
0.114876 0.015995 0.00834051
0.121287 0.0176553 0.00727293
0.127261 0.0177907 0.00706204
0.121286 0.0174937 0.00722191
0.121361 0.0174281 0.00723353
0.121339 0.0173325 0.0072561
0.121153 0.0169229 0.00735719
0.121458 0.0178089 0.00714322
0.121398 0.0179669 0.00712483
0.121264 0.017398 0.0072445
0.121281 0.0178931 0.00713177
0.121317 0.0176936 0.00717535
0.121331 0.0179509 0.00719719
0.115084 0.0167208 0.00768511
0.121553 0.0178418 0.00713165
0.115236 0.0166321 0.00777998
0.121079 0.0169905 0.00735648
0.121185 0.0166863 0.00747149
0.115224 0.0168947 0.00753562
0.11505 0.0169578 0.00761492
0.121122 0.0171837 0.00732663
0.11476 0.0158959 0.00842279
0.121346 0.0175005 0.00730123
0.121267 0.0170493 0.00732325
0.121165 0.0173638 0.00725649
0.121261 0.0177978 0.0071542
0.114968 0.0166217 0.00776726
0.121186 0.0174591 0.00723406
0.115116 0.0171683 0.00735839
0.121495 0.01779 0.00723417
0.12153 0.0173911 0.00723461
0.120757 0.0158582 0.00838886
0.115191 0.0171103 0.00739143
0.126886 0.0162576 0.00786937
0.121163 0.016602 0.0075207
0.120737 0.0157942 0.00846313
0.121594 0.0180352 0.00708614
0.114959 0.0162854 0.00807824
0.121501 0.0180019 0.0070977
0.120989 0.0163243 0.00784187
0.121132 0.016828 0.00738625
0.114864 0.0162588 0.00809499
0.121243 0.0173025 0.00726699
0.115127 0.0168704 0.00755958
0.121058 0.0168938 0.00737076
0.115204 0.0168221 0.00760118
0.12163 0.0177781 0.00714278
0.121028 0.0164522 0.0076933
0.121296 0.0171424 0.00730095
0.121239 0.0165537 0.00756362
0.114842 0.0158576 0.00846508
0.121476 0.0179046 0.00712078
0.121382 0.0175239 0.00721093
0.121318 0.0172372 0.00727853
0.121313 0.0178548 0.00721844
0.114896 0.0160676 0.00827493
0.121173 0.0170182 0.00733435
0.121192 0.0171144 0.00731175
0.121143 0.017269 0.00727909
0.121476 0.0183451 0.00702115
0.114781 0.0159685 0.00835723
0.1211 0.0170869 0.00734035
0.121308 0.0175894 0.00720065
0.120718 0.0157297 0.00853708
0.115234 0.0172734 0.00728328
0.120698 0.0156643 0.00861017
0.115095 0.0170869 0.00741236
0.114926 0.0164765 0.00789838
0.11516 0.0166765 0.00773244
0.121366 0.0180481 0.00717332
0.115105 0.0167967 0.00762369
0.120949 0.0161963 0.00799041
0.115351 0.0173817 0.0072061
0.121459 0.0182484 0.00704374
0.115366 0.0170805 0.00740015
0.121322 0.0180847 0.00709126
0.115267 0.0170544 0.00742296
0.121103 0.0164066 0.00774035
0.115097 0.0164586 0.00792921
0.121228 0.0176492 0.00718921
0.115574 0.0176057 0.00708152
0.115212 0.0171917 0.00733745
0.121575 0.0179367 0.00710923
0.115501 0.0176727 0.00709636
0.121617 0.0181299 0.00706373
0.115311 0.017218 0.00731445
0.115714 0.0178332 0.00711269
0.115009 0.0167669 0.00763614
0.115388 0.0171619 0.00734616
0.115246 0.016976 0.00748134
0.115138 0.0172497 0.00730443
0.121207 0.0175542 0.00721163
0.115001 0.0164306 0.00794718
0.121008 0.0163884 0.00776766
0.115447 0.017409 0.00718264
0.121592 0.0175836 0.00718842
0.115255 0.0173553 0.00722904
0.115335 0.0176076 0.00719413
0.127322 0.0180816 0.00704794
0.121381 0.0183671 0.00704538
0.121304 0.0168013 0.00740684
0.115159 0.0173311 0.00725044
0.12152 0.0181014 0.00707437
0.115241 0.0175718 0.00719233
0.121366 0.0177805 0.00717779
0.12091 0.0160683 0.00813899
0.115597 0.0177025 0.00709231
0.115076 0.016386 0.00799482
0.12089 0.0160043 0.0082133
0.115021 0.0165033 0.00788178
0.115544 0.0174273 0.00716496
0.114885 0.0163314 0.00802943
0.115377 0.017907 0.00709709
0.115412 0.0175428 0.00719735
0.121123 0.0164711 0.00766657
0.115437 0.017635 0.00716749
0.115073 0.0170056 0.00746645
0.115289 0.017136 0.00736883
0.115258 0.0167052 0.00771404
0.115464 0.0174943 0.00712644
0.114988 0.0166943 0.00770171
0.121549 0.0174959 0.0072101
0.121418 0.0180579 0.0070886
0.12734 0.0177311 0.00707662
0.121246 0.0177375 0.00723265
0.115148 0.0169483 0.0075005
0.115169 0.0170291 0.00744574
0.121569 0.0183077 0.0070256
0.121342 0.0181825 0.00708939
0.121379 0.0178691 0.007133
0.120969 0.0162603 0.00791614
0.11498 0.016358 0.00801276
0.12093 0.0161323 0.00806472
0.114947 0.0165491 0.00783284
0.114843 0.0161862 0.00816055
0.127316 0.0176318 0.00709961
0.115385 0.0175489 0.00709672
0.114698 0.015678 0.00861956
0.115274 0.0174375 0.00717466
0.115062 0.0166514 0.00775381
0.115641 0.0179016 0.00711434
0.115198 0.0174956 0.00714377
0.115118 0.0165314 0.0078635
0.121435 0.0181538 0.00706615
0.121443 0.0177167 0.00717929
0.115337 0.0181614 0.00711877
0.115276 0.0178693 0.00708672
0.115492 0.0180351 0.00711709
0.115293 0.0175212 0.00712331
0.109067 0.0170028 0.0075354
0.115256 0.0177719 0.00707618
0.115311 0.0176161 0.00709738
0.109045 0.0169113 0.00756961
0.109088 0.0170942 0.00750118
0.115334 0.0177133 0.00710056
0.109132 0.0172771 0.00743276
0.120851 0.0158763 0.00836191
0.121545 0.0181975 0.00705157
0.115217 0.0175812 0.0070957
0.120871 0.0159403 0.0082876
0.121283 0.0167168 0.00745616
0.10911 0.0171856 0.00746697
0.115427 0.0173254 0.00723796
0.11537 0.0174645 0.00715135
0.11528 0.0167778 0.00764857
0.115236 0.0176746 0.00706536
0.115661 0.017999 0.00712502
0.115472 0.0179375 0.00710638
0.115561 0.0175126 0.00711571
0.121517 0.0176496 0.00717668
0.115317 0.0180641 0.00710809
0.115566 0.0179683 0.0071157
0.109197 0.0175514 0.00733012
0.115397 0.0180043 0.00710778
0.11518 0.0174127 0.0071964
0.121361 0.0182692 0.00704325
0.115323 0.0169228 0.00751768
0.115478 0.0175785 0.00707242
0.11543 0.0177418 0.00708485
0.115451 0.0178401 0.00709571
0.115438 0.0181991 0.00712913
0.115512 0.0181325 0.00712777
0.115403 0.017646 0.00707389
0.115546 0.0178708 0.00710502
0.115619 0.0178024 0.00710337
0.115377 0.0183565 0.00714151
0.121401 0.0181407 0.00715905
0.109153 0.0173685 0.00739855
0.109218 0.0176428 0.00729591
0.115408 0.0172435 0.00729211
0.10924 0.0177343 0.00726169
0.109175 0.01746 0.00736433
0.115357 0.0178097 0.00708641
0.115297 0.0179667 0.00709741
0.115524 0.0177707 0.00710174
0.121264 0.01756 0.00729348
0.115417 0.0181017 0.00711845
0.114917 0.0161402 0.00820937
0.115587 0.0180659 0.00712641
0.115523 0.0173458 0.00721895
0.121435 0.0173623 0.00724521
0.115358 0.0182591 0.00712953
0.114938 0.0162128 0.00814381
0.121593 0.0178266 0.0072222
0.121508 0.0172956 0.00725714
0.115332 0.0172997 0.00726038
0.115301 0.0168504 0.007583
0.121413 0.0172668 0.00726774

VERTICES 289 578
1 0
1 1
1 2
1 3
1 4
1 5
1 6
1 7
1 8
1 9
1 10
1 11
1 12
1 13
1 14
1 15
1 16
1 17
1 18
1 19
1 20
1 21
1 22
1 23
1 24
1 25
1 26
1 27
1 28
1 29
1 30
1 31
1 32
1 33
1 34
1 35
1 36
1 37
1 38
1 39
1 40
1 41
1 42
1 43
1 44
1 45
1 46
1 47
1 48
1 49
1 50
1 51
1 52
1 53
1 54
1 55
1 56
1 57
1 58
1 59
1 60
1 61
1 62
1 63
1 64
1 65
1 66
1 67
1 68
1 69
1 70
1 71
1 72
1 73
1 74
1 75
1 76
1 77
1 78
1 79
1 80
1 81
1 82
1 83
1 84
1 85
1 86
1 87
1 88
1 89
1 90
1 91
1 92
1 93
1 94
1 95
1 96
1 97
1 98
1 99
1 100
1 101
1 102
1 103
1 104
1 105
1 106
1 107
1 108
1 109
1 110
1 111
1 112
1 113
1 114
1 115
1 116
1 117
1 118
1 119
1 120
1 121
1 122
1 123
1 124
1 125
1 126
1 127
1 128
1 129
1 130
1 131
1 132
1 133
1 134
1 135
1 136
1 137
1 138
1 139
1 140
1 141
1 142
1 143
1 144
1 145
1 146
1 147
1 148
1 149
1 150
1 151
1 152
1 153
1 154
1 155
1 156
1 157
1 158
1 159
1 160
1 161
1 162
1 163
1 164
1 165
1 166
1 167
1 168
1 169
1 170
1 171
1 172
1 173
1 174
1 175
1 176
1 177
1 178
1 179
1 180
1 181
1 182
1 183
1 184
1 185
1 186
1 187
1 188
1 189
1 190
1 191
1 192
1 193
1 194
1 195
1 196
1 197
1 198
1 199
1 200
1 201
1 202
1 203
1 204
1 205
1 206
1 207
1 208
1 209
1 210
1 211
1 212
1 213
1 214
1 215
1 216
1 217
1 218
1 219
1 220
1 221
1 222
1 223
1 224
1 225
1 226
1 227
1 228
1 229
1 230
1 231
1 232
1 233
1 234
1 235
1 236
1 237
1 238
1 239
1 240
1 241
1 242
1 243
1 244
1 245
1 246
1 247
1 248
1 249
1 250
1 251
1 252
1 253
1 254
1 255
1 256
1 257
1 258
1 259
1 260
1 261
1 262
1 263
1 264
1 265
1 266
1 267
1 268
1 269
1 270
1 271
1 272
1 273
1 274
1 275
1 276
1 277
1 278
1 279
1 280
1 281
1 282
1 283
1 284
1 285
1 286
1 287
1 288

POINT_DATA 289
SCALARS id int 1
LOOKUP_TABLE default
1
2
3
4
5
6
7
8
9
10
11
12
13
14
15
16
17
18
19
20
21
22
24
25
26
27
29
30
31
32
33
34
35
36
37
38
39
40
41
42
43
44
45
46
47
48
49
50
52
53
54
55
56
57
58
59
60
61
62
63
64
65
66
67
68
69
70
71
72
73
74
75
76
77
78
79
80
81
82
83
84
85
86
87
88
89
90
91
92
93
94
95
96
98
99
100
101
102
103
104
105
106
107
108
109
110
111
112
113
114
115
116
117
118
119
120
121
122
123
124
125
126
127
128
129
130
131
132
133
134
135
136
137
138
139
140
141
142
144
145
146
147
148
149
150
152
153
154
155
156
157
158
159
160
161
162
164
165
166
167
168
169
170
171
172
173
174
175
176
177
178
179
180
181
182
183
184
185
186
187
188
189
190
191
192
193
194
195
196
197
198
199
200
201
202
203
204
205
206
207
208
209
210
211
213
214
215
216
217
218
219
220
221
222
223
224
225
226
227
228
229
230
231
232
233
234
235
236
237
238
239
241
242
243
244
245
246
247
248
249
250
251
252
253
254
255
256
257
258
259
260
261
262
263
264
265
267
268
269
270
271
272
273
274
275
276
277
278
279
280
281
282
283
284
285
286
287
288
289
290
292
293
294
295
296
297
298
299
300

SCALARS type int 1
LOOKUP_TABLE default
1
1
1
1
1
1
1
1
1
1
1
1
1
1
1
1
1
1
1
1
1
1
1
1
1
1
1
1
1
1
1
1
1
1
1
1
1
1
1
1
1
1
1
1
1
1
1
1
1
1
1
1
1
1
1
1
1
1
1
1
1
1
1
1
1
1
1
1
1
1
1
1
1
1
1
1
1
1
1
1
1
1
1
1
1
1
1
1
1
1
1
1
1
1
1
1
1
1
1
1
1
1
1
1
1
1
1
1
1
1
1
1
1
1
1
1
1
1
1
1
1
1
1
1
1
1
1
1
1
1
1
1
1
1
1
1
1
1
1
1
1
1
1
1
1
1
1
1
1
1
1
1
1
1
1
1
1
1
1
1
1
1
1
1
1
1
1
1
1
1
1
1
1
1
1
1
1
1
1
1
1
1
1
1
1
1
1
1
1
1
1
1
1
1
1
1
1
1
1
1
1
1
1
1
1
1
1
1
1
1
1
1
1
1
1
1
1
1
1
1
1
1
1
1
1
1
1
1
1
1
1
1
1
1
1
1
1
1
1
1
1
1
1
1
1
1
1
1
1
1
1
1
1
1
1
1
1
1
1
1
1
1
1
1
1
1
1
1
1
1
1
1
1
1
1
1
1
1
1
1
1
1
1
1
1
1
1
1
1

SCALARS radius float 1
LOOKUP_TABLE default
5e-05
5e-05
5e-05
5e-05
5e-05
5e-05
5e-05
5e-05
5e-05
5e-05
5e-05
5e-05
5e-05
5e-05
5e-05
5e-05
5e-05
5e-05
5e-05
5e-05
5e-05
5e-05
5e-05
5e-05
5e-05
5e-05
5e-05
5e-05
5e-05
5e-05
5e-05
5e-05
5e-05
5e-05
5e-05
5e-05
5e-05
5e-05
5e-05
5e-05
5e-05
5e-05
5e-05
5e-05
5e-05
5e-05
5e-05
5e-05
5e-05
5e-05
5e-05
5e-05
5e-05
5e-05
5e-05
5e-05
5e-05
5e-05
5e-05
5e-05
5e-05
5e-05
5e-05
5e-05
5e-05
5e-05
5e-05
5e-05
5e-05
5e-05
5e-05
5e-05
5e-05
5e-05
5e-05
5e-05
5e-05
5e-05
5e-05
5e-05
5e-05
5e-05
5e-05
5e-05
5e-05
5e-05
5e-05
5e-05
5e-05
5e-05
5e-05
5e-05
5e-05
5e-05
5e-05
5e-05
5e-05
5e-05
5e-05
5e-05
5e-05
5e-05
5e-05
5e-05
5e-05
5e-05
5e-05
5e-05
5e-05
5e-05
5e-05
5e-05
5e-05
5e-05
5e-05
5e-05
5e-05
5e-05
5e-05
5e-05
5e-05
5e-05
5e-05
5e-05
5e-05
5e-05
5e-05
5e-05
5e-05
5e-05
5e-05
5e-05
5e-05
5e-05
5e-05
5e-05
5e-05
5e-05
5e-05
5e-05
5e-05
5e-05
5e-05
5e-05
5e-05
5e-05
5e-05
5e-05
5e-05
5e-05
5e-05
5e-05
5e-05
5e-05
5e-05
5e-05
5e-05
5e-05
5e-05
5e-05
5e-05
5e-05
5e-05
5e-05
5e-05
5e-05
5e-05
5e-05
5e-05
5e-05
5e-05
5e-05
5e-05
5e-05
5e-05
5e-05
5e-05
5e-05
5e-05
5e-05
5e-05
5e-05
5e-05
5e-05
5e-05
5e-05
5e-05
5e-05
5e-05
5e-05
5e-05
5e-05
5e-05
5e-05
5e-05
5e-05
5e-05
5e-05
5e-05
5e-05
5e-05
5e-05
5e-05
5e-05
5e-05
5e-05
5e-05
5e-05
5e-05
5e-05
5e-05
5e-05
5e-05
5e-05
5e-05
5e-05
5e-05
5e-05
5e-05
5e-05
5e-05
5e-05
5e-05
5e-05
5e-05
5e-05
5e-05
5e-05
5e-05
5e-05
5e-05
5e-05
5e-05
5e-05
5e-05
5e-05
5e-05
5e-05
5e-05
5e-05
5e-05
5e-05
5e-05
5e-05
5e-05
5e-05
5e-05
5e-05
5e-05
5e-05
5e-05
5e-05
5e-05
5e-05
5e-05
5e-05
5e-05
5e-05
5e-05
5e-05
5e-05
5e-05
5e-05
5e-05
5e-05
5e-05
5e-05
5e-05
5e-05
5e-05
5e-05
5e-05
5e-05
5e-05
5e-05
5e-05
5e-05
5e-05
5e-05
5e-05
5e-05
5e-05
5e-05
5e-05
5e-05
5e-05
5e-05
5e-05
5e-05

SCALARS mass float 1
LOOKUP_TABLE default
1.46608e-10
1.46608e-10
1.46608e-10
1.46608e-10
1.46608e-10
1.46608e-10
1.46608e-10
1.46608e-10
1.46608e-10
1.46608e-10
1.46608e-10
1.46608e-10
1.46608e-10
1.46608e-10
1.46608e-10
1.46608e-10
1.46608e-10
1.46608e-10
1.46608e-10
1.46608e-10
1.46608e-10
1.46608e-10
1.46608e-10
1.46608e-10
1.46608e-10
1.46608e-10
1.46608e-10
1.46608e-10
1.46608e-10
1.46608e-10
1.46608e-10
1.46608e-10
1.46608e-10
1.46608e-10
1.46608e-10
1.46608e-10
1.46608e-10
1.46608e-10
1.46608e-10
1.46608e-10
1.46608e-10
1.46608e-10
1.46608e-10
1.46608e-10
1.46608e-10
1.46608e-10
1.46608e-10
1.46608e-10
1.46608e-10
1.46608e-10
1.46608e-10
1.46608e-10
1.46608e-10
1.46608e-10
1.46608e-10
1.46608e-10
1.46608e-10
1.46608e-10
1.46608e-10
1.46608e-10
1.46608e-10
1.46608e-10
1.46608e-10
1.46608e-10
1.46608e-10
1.46608e-10
1.46608e-10
1.46608e-10
1.46608e-10
1.46608e-10
1.46608e-10
1.46608e-10
1.46608e-10
1.46608e-10
1.46608e-10
1.46608e-10
1.46608e-10
1.46608e-10
1.46608e-10
1.46608e-10
1.46608e-10
1.46608e-10
1.46608e-10
1.46608e-10
1.46608e-10
1.46608e-10
1.46608e-10
1.46608e-10
1.46608e-10
1.46608e-10
1.46608e-10
1.46608e-10
1.46608e-10
1.46608e-10
1.46608e-10
1.46608e-10
1.46608e-10
1.46608e-10
1.46608e-10
1.46608e-10
1.46608e-10
1.46608e-10
1.46608e-10
1.46608e-10
1.46608e-10
1.46608e-10
1.46608e-10
1.46608e-10
1.46608e-10
1.46608e-10
1.46608e-10
1.46608e-10
1.46608e-10
1.46608e-10
1.46608e-10
1.46608e-10
1.46608e-10
1.46608e-10
1.46608e-10
1.46608e-10
1.46608e-10
1.46608e-10
1.46608e-10
1.46608e-10
1.46608e-10
1.46608e-10
1.46608e-10
1.46608e-10
1.46608e-10
1.46608e-10
1.46608e-10
1.46608e-10
1.46608e-10
1.46608e-10
1.46608e-10
1.46608e-10
1.46608e-10
1.46608e-10
1.46608e-10
1.46608e-10
1.46608e-10
1.46608e-10
1.46608e-10
1.46608e-10
1.46608e-10
1.46608e-10
1.46608e-10
1.46608e-10
1.46608e-10
1.46608e-10
1.46608e-10
1.46608e-10
1.46608e-10
1.46608e-10
1.46608e-10
1.46608e-10
1.46608e-10
1.46608e-10
1.46608e-10
1.46608e-10
1.46608e-10
1.46608e-10
1.46608e-10
1.46608e-10
1.46608e-10
1.46608e-10
1.46608e-10
1.46608e-10
1.46608e-10
1.46608e-10
1.46608e-10
1.46608e-10
1.46608e-10
1.46608e-10
1.46608e-10
1.46608e-10
1.46608e-10
1.46608e-10
1.46608e-10
1.46608e-10
1.46608e-10
1.46608e-10
1.46608e-10
1.46608e-10
1.46608e-10
1.46608e-10
1.46608e-10
1.46608e-10
1.46608e-10
1.46608e-10
1.46608e-10
1.46608e-10
1.46608e-10
1.46608e-10
1.46608e-10
1.46608e-10
1.46608e-10
1.46608e-10
1.46608e-10
1.46608e-10
1.46608e-10
1.46608e-10
1.46608e-10
1.46608e-10
1.46608e-10
1.46608e-10
1.46608e-10
1.46608e-10
1.46608e-10
1.46608e-10
1.46608e-10
1.46608e-10
1.46608e-10
1.46608e-10
1.46608e-10
1.46608e-10
1.46608e-10
1.46608e-10
1.46608e-10
1.46608e-10
1.46608e-10
1.46608e-10
1.46608e-10
1.46608e-10
1.46608e-10
1.46608e-10
1.46608e-10
1.46608e-10
1.46608e-10
1.46608e-10
1.46608e-10
1.46608e-10
1.46608e-10
1.46608e-10
1.46608e-10
1.46608e-10
1.46608e-10
1.46608e-10
1.46608e-10
1.46608e-10
1.46608e-10
1.46608e-10
1.46608e-10
1.46608e-10
1.46608e-10
1.46608e-10
1.46608e-10
1.46608e-10
1.46608e-10
1.46608e-10
1.46608e-10
1.46608e-10
1.46608e-10
1.46608e-10
1.46608e-10
1.46608e-10
1.46608e-10
1.46608e-10
1.46608e-10
1.46608e-10
1.46608e-10
1.46608e-10
1.46608e-10
1.46608e-10
1.46608e-10
1.46608e-10
1.46608e-10
1.46608e-10
1.46608e-10
1.46608e-10
1.46608e-10
1.46608e-10
1.46608e-10
1.46608e-10
1.46608e-10
1.46608e-10
1.46608e-10
1.46608e-10
1.46608e-10
1.46608e-10
1.46608e-10
1.46608e-10
1.46608e-10
1.46608e-10
1.46608e-10
1.46608e-10
1.46608e-10
1.46608e-10
1.46608e-10

VECTORS velocity float
0.00497781 6.19732e-06 -0.000335535
0.0048387 0.000512789 -0.000324353
0.0048763 0.000390042 -0.000300782
0.00487897 0.000340328 -0.000288115
0.00443502 0.000237678 -0.000563886
0.00451129 -0.000145057 0.000575866
0.0049051 3.29165e-05 -0.000362538
0.00439264 0.000180542 -0.00049714
0.0044347 -0.000357776 0.000131152
0.00509768 0.000408832 -0.000396362
0.00503455 0.000265986 -9.16911e-06
0.00438558 -0.00036572 0.000130593
0.0051028 0.0004013 -0.000394852
0.00422813 -0.000326139 0.000652217
0.00500313 0.000253351 -1.35639e-05
0.00420539 -0.000323022 0.000647769
0.00496415 0.000185398 -0.000254737
0.0048682 -0.000460547 0.000226671
0.00497897 0.000189216 -0.000256501
0.00498034 0.00021791 -0.000263602
0.00462509 6.2779e-05 -0.00038029
0.00497323 0.000219285 -8.93974e-05
0.00470457 -0.000428427 0.000178846
0.00493383 0.000144752 -0.000201238
0.00481699 -0.000428158 0.000215065
0.00462872 -0.000416538 0.000634418
0.00496766 0.000203537 -0.000254612
0.0042985 -0.000156108 0.00055819
0.0049201 0.000227452 -0.000257798
0.00502424 0.000224056 5.01123e-06
0.00476398 -0.000153506 0.000585142
0.00491463 0.00025118 -0.00029517
0.00492841 0.000173661 -8.3973e-05
0.00442938 -0.000298416 0.000454642
0.00486156 3.7111e-05 -0.000366805
0.00490677 6.44106e-05 -0.000295729
0.00481784 -0.000453765 0.000221923
0.00493879 5.70418e-06 -0.000332985
0.00481043 -2.64899e-05 -0.000289622
0.0049966 0.000223229 7.36339e-06
0.00497951 0.000215828 -0.000263466
0.00477566 0.000440308 -0.000305979
0.00473355 -0.000455241 0.000169941
0.00480182 -0.000438802 0.000214957
0.00471585 3.65656e-05 -0.000370048
0.0049786 0.00021951 -0.000263942
0.0047808 -0.000431859 0.000212177
0.00496109 0.000199619 -0.000257924
0.0050512 -0.000401254 -4.44792e-05
0.00482971 -0.000461247 0.000229122
0.0049938 0.000247131 -6.14307e-06
0.00425593 -0.000321789 0.000657584
0.0048523 0.000294905 -0.00027858
0.00470812 -0.000444593 0.000186609
0.00461791 -0.000372491 0.000729155
0.00447945 -0.000389728 0.00013897
0.00499811 0.000238866 -0.000268915
0.00466908 5.85874e-05 -0.000381117
0.00500373 0.000217308 -0.000246401
0.00491689 0.00022035 -0.000261123
0.00486073 -0.000465421 0.000229894
0.0043525 0.00011647 -0.000421163
0.00455122 -0.000371431 0.000725186
0.00496374 0.000222268 -0.00026406
0.00456627 -0.000375137 0.00072863
0.00500668 0.000223477 8.76885e-06
0.00447698 -0.000268508 0.000785669
0.00429076 -0.000336714 0.000674152
0.00441324 -0.000366632 0.000130861
0.00476182 1.50468e-05 -0.000382433
0.00459554 0.000377185 -0.00028283
0.00480019 3.27031e-05 -0.000366078
0.00447107 -0.000319697 0.000120863
0.00453043 0.000252046 -0.000256814
0.00433272 -0.000328567 0.000664625
0.00449084 -0.000312031 0.000667125
0.00486579 0.000333746 -0.000285721
0.00439293 -0.000696308 0.000190322
0.00464262 -0.000544634 0.000448281
0.00436055 -0.000324987 0.000665158
0.00444622 -0.00031375 0.000119814
0.00431752 -0.00034942 0.000681536
0.00489497 0.000379278 -0.000431063
0.00444755 -0.000353623 0.000136676
0.00490983 0.000212538 -0.000259679
0.00492116 0.000220258 -0.000260934
0.00493659 0.000218943 -0.000261716
0.00498359 0.000215758 -0.000200856
0.00468313 0.000388188 -0.00028929
0.00458494 0.000363077 -0.000253928
0.00492729 0.00021042 -0.000259675
0.00452262 0.000265017 -0.000258191
0.00485591 0.000273196 -0.000273109
0.00455089 0.000208517 -0.000295687
0.00455383 -0.00035905 0.00071271
0.00466353 0.000448317 -0.000303142
0.00458019 -0.000364487 0.000717418
0.00498705 0.000215515 -0.00010728
0.00498555 0.000239962 -6.80281e-06
0.00469888 -0.000363319 0.000732102
0.00458172 -0.00024146 0.000342532
0.00497138 0.00019719 -0.000237387
0.00426992 -0.000321212 0.000654051
0.0049028 0.000218734 -0.000258587
0.004963 0.000210247 -0.000261583
0.00493543 0.000194253 -0.000257003
0.00451215 0.000278654 -0.000257876
0.00458417 -0.000340008 0.000696758
0.00491807 0.000199694 -0.000257483
0.00470272 -0.000743499 0.000193721
0.00473848 0.000405534 -0.000307439
0.00493035 0.000236293 -0.00026574
0.00434598 0.000100444 -0.000433421
0.00468684 -0.000752783 0.000194431
0.00430222 -0.000165414 0.000564777
0.00496213 0.000245757 -9.27186e-06
0.00434021 8.36595e-05 -0.000448479
0.00459404 0.000372304 -0.000282272
0.00441645 -0.000349229 0.000691403
0.00459436 0.000416245 -0.000291566
0.0048397 2.32356e-05 -0.000346576
0.00502566 0.000249077 -1.65642e-06
0.00441363 -0.000320453 0.000663532
0.00494511 0.000204231 -0.000258626
0.00460912 -0.000443198 0.000630944
0.00501019 0.000228796 4.95781e-06
0.00459756 -0.000360811 0.00070884
0.00474012 0.000532877 -0.000326647
0.00487774 1.82687e-05 -0.000340408
0.00497134 0.000208242 -0.000260978
0.00498786 7.75759e-06 -0.00033128
0.00427832 -0.000310974 0.000643804
0.00461345 0.000399313 -0.000289676
0.00490828 0.000215527 -0.000260376
0.00495378 0.00021258 -0.000261094
0.00459223 0.000201853 -0.000314038
0.00434396 -0.000339861 0.000676078
0.00496722 0.000200079 -0.000259444
0.00496141 0.000195593 -0.000257676
0.00495299 0.000190839 -0.000253019
0.00443176 0.000432253 -0.000287057
0.00430076 -0.000326005 0.000659343
0.00497274 0.000203229 -0.000198179
0.00490711 0.000222296 -0.000273978
0.00432981 0.000273889 -0.000303723
0.00468855 -0.000776273 0.000219669
0.0043238 0.00029031 -0.000314482
0.00468367 -0.000750984 0.000163151
0.00452276 -0.000316357 0.000670666
0.00456714 -0.00037605 0.000728312
0.0045646 0.00033524 -0.000231526
0.0045615 -0.000393316 0.000675232
0.0046663 5.41539e-05 -0.000371336
0.00443239 -0.000671917 0.00016785
0.00457786 0.000304195 -0.000266712
0.00473531 -0.000719184 0.000179755
0.00455583 0.000276863 -0.000260438
0.0048066 -0.000636319 0.000124183
0.00482424 -2.63659e-05 -0.000288326
0.0045821 -0.000408017 0.000756635
0.00488603 0.000212581 -0.000265246
0.00439653 -0.00064036 0.000229094
0.00470151 -0.000754317 0.000202658
0.00460042 0.000437176 -0.000297168
0.00439418 -0.000653061 0.000232205
0.0045676 0.00034298 -0.000274115
0.00469608 -0.000761343 0.000209915
0.0043926 -0.000617274 0.000236514
0.00462775 -0.000354531 0.000713973
0.00471213 -0.000741616 0.000195695
0.00472232 -0.000496935 0.000452261
0.00470945 -0.000749339 0.000202405
0.00490442 0.000205273 -0.000261645
0.00452842 -0.000365637 0.000716216
0.00485807 1.90791e-05 -0.000344158
0.00441627 -0.000670459 0.000165887
0.00480725 0.000365793 -0.000290512
0.00443289 -0.000667437 0.000163027
0.00444203 -0.000701823 0.000200995
0.00446582 -0.000266013 0.000786852
0.00439826 0.000296984 -0.000247524
0.00501143 0.000311136 -4.32695e-05
0.00471505 -0.000758651 0.000206536
0.00457683 0.000349853 -0.000276154
0.00438975 -0.000699084 0.000210696
0.00478206 0.000323258 -0.00027923
0.00453267 7.92663e-05 -0.000389505
0.00439743 -0.000644869 0.000233955
0.00452249 -0.000371559 0.000720711
0.00443548 0.000104228 -0.00041097
0.00460888 -0.000373946 0.000730099
0.00441032 -0.000646479 0.00015101
0.00445077 -0.000317304 0.000665771
0.0043698 -0.000671323 0.000229838
0.0044039 -0.000674523 0.000177206
0.00487471 3.79961e-05 -0.000220463
0.00440901 -0.000664212 0.0002211
0.00466509 -0.000687691 0.000245514
0.00470584 -0.000748507 0.000198989
0.00462678 -0.000305067 0.000667257
0.00440339 -0.000676296 0.000173963
0.00461259 -0.00035165 0.000708477
0.00487076 0.000324468 -0.000282939
0.0045716 0.000363732 -0.00027703
0.00445283 -0.000350309 0.000125724
0.00450567 0.00028291 -0.000259364
0.00467275 -0.000521008 0.00052812
0.00467599 -0.000672377 0.000305041
0.00449566 0.000564595 -0.000320815
0.00454941 0.000273406 -0.000253288
0.0046604 0.000348686 -0.000272018
0.00476146 3.89099e-05 -0.000357725
0.00445839 -0.000356462 0.000701738
0.00460064 6.70662e-05 -0.000381273
0.00455708 -0.000328543 0.000683618
0.00439029 -0.000323841 0.000665419
0.00441918 -0.000369195 0.000132051
0.00439963 -0.000660918 0.000216729
0.00409895 -0.000309641 0.000628053
0.00440797 -0.000687508 0.000176905
0.00459849 -0.000362607 0.000723411
0.00437685 -0.000638208 0.000233433
0.00439951 -0.000689913 0.000191479
0.00461545 -0.000384897 0.000741692
0.00455623 0.000311583 -0.000264721
0.00481562 0.000362016 -0.000288315
0.00432636 -0.000670298 0.000226948
0.0043794 -0.000674429 0.000231042
0.00435493 -0.000664783 0.000228918
0.00439927 -0.000676264 0.000195217
0.00483592 0.000162592 -0.000414294
0.00439626 -0.000677894 0.000232757
0.0043935 -0.000672158 0.000216329
0.0048447 0.000160544 -0.000414211
0.00482714 0.00016464 -0.000414378
0.00438527 -0.000671426 0.000229197
0.00480957 0.000168735 -0.000414545
0.00433859 0.000143373 -0.000451829
0.00458554 0.000345021 -0.000275687
0.004399 -0.000680444 0.000211646
0.00434684 0.000130496 -0.000436429
0.00506214 0.000301349 -3.59805e-05
0.00481835 0.000166687 -0.000414461
0.00444442 -0.000669186 0.000164526
0.00440624 -0.000677144 0.000181411
0.00469301 -0.000265914 0.000636941
0.00441125 -0.000679903 0.000231982
0.00436186 -0.000644991 0.000231768
0.00436955 -0.000666842 0.000229873
0.00439925 -0.000658606 0.000145582
0.00486359 0.000423132 -0.000307023
0.00434454 -0.000675193 0.000227199
0.00436647 -0.000657852 0.000231101
0.00478323 0.000174878 -0.000414795
0.00436009 -0.000671341 0.000229926
0.0044092 -0.000697248 0.000182259
0.00458106 0.000255734 -0.000257265
0.00482351 -0.000232696 0.000614264
0.00440132 -0.00065536 0.000233045
0.00438816 -0.000663237 0.000231383
0.00438227 -0.000668715 0.000230875
0.00432503 -0.000661953 0.000224023
0.00433448 -0.000660461 0.000227493
0.00439166 -0.000664295 0.000230113
0.00438102 -0.000658067 0.000231611
0.00439419 -0.000642329 0.000233551
0.00435919 -0.000706623 0.000440348
0.00457291 0.000318641 -0.000251078
0.00480079 0.000170783 -0.000414628
0.00477445 0.000176926 -0.000414879
0.00440038 -0.000668892 0.00016756
0.00476567 0.000178973 -0.000414962
0.00479201 0.00017283 -0.000414712
0.00438124 -0.000671834 0.000230684
0.00436129 -0.000680151 0.000228856
0.00439139 -0.00065422 0.000229598
0.00507726 0.000417862 -0.000396815
0.00434525 -0.000668966 0.000228534
0.00436327 -0.000342227 0.00067941
0.00434835 -0.000655814 0.00022993
0.00444199 -0.000648119 0.000153166
0.00493113 0.00022534 -0.00026293
0.00430966 -0.000673797 0.000211212
0.00438029 -0.000345841 0.000684586
0.0047038 0.000475808 -0.000312797
0.0049408 0.000231431 -0.000265168
0.00444486 -0.00064399 0.000148114
0.00481928 -0.000258175 0.000640183
0.0049483 0.000220312 -0.000262934

VECTORS force float
3.51129e-11 -2.92835e-11 6.96152e-11
-1.54753e-11 -1.91211e-10 4.71238e-11
-1.2179e-10 1.30687e-10 1.19651e-11
-1.80393e-10 7.48021e-11 -1.7309e-11
6.78978e-11 1.58698e-10 -1.82995e-10
6.33693e-11 3.69425e-10 -5.96479e-10
-3.91597e-11 1.61782e-10 -1.94005e-10
7.1779e-11 -3.65181e-10 4.44522e-10
1.69938e-11 -4.91908e-11 4.27691e-12
1.99174e-11 9.14137e-11 -9.1801e-11
9.48539e-13 -1.06515e-10 5.32692e-11
-1.131e-11 -1.29613e-10 5.01764e-11
-6.92258e-11 1.55623e-10 -4.07562e-11
8.30827e-11 -1.80032e-11 2.51776e-11
-7.29245e-12 1.92224e-11 -1.9967e-11
4.76245e-11 -4.8742e-11 3.18747e-11
-3.7497e-11 2.12559e-11 -6.34283e-11
-1.10208e-10 -9.27659e-11 4.15144e-11
-1.80012e-11 2.98523e-11 -2.3131e-11
-2.63795e-11 4.99044e-12 2.22393e-12
1.9356e-10 1.4267e-11 -2.75029e-11
-3.75969e-11 7.67625e-12 -4.96572e-11
-3.48786e-10 -1.47297e-10 8.90653e-12
5.62309e-11 7.75901e-11 3.1614e-11
1.63661e-10 -8.88506e-11 3.18976e-11
3.89875e-12 8.57775e-11 9.03487e-11
-9.83993e-11 3.47181e-11 -5.28494e-12
1.2487e-10 -1.34594e-10 3.7101e-10
5.17986e-12 -1.53165e-11 -8.62024e-12
-3.73777e-11 6.81277e-12 -1.84906e-12
-8.20291e-10 -2.27138e-10 -8.28456e-10
7.04661e-12 1.37602e-11 -3.25254e-11
4.71096e-11 9.77829e-12 -2.12304e-11
-3.02827e-11 -1.67858e-11 -6.6997e-11
-2.07049e-10 -8.67517e-11 -4.65396e-11
-1.89963e-12 8.49443e-11 4.91829e-11
-1.10115e-10 3.89132e-10 -2.81039e-10
3.76519e-11 1.00284e-11 -7.20194e-12
-1.32572e-10 1.79132e-11 8.40016e-12
-2.17363e-11 -2.38648e-11 2.91161e-11
3.02619e-12 3.07444e-11 -4.05557e-12
2.25536e-11 -1.17641e-10 4.26513e-11
5.64378e-10 2.10179e-10 -1.61059e-10
1.34542e-10 2.70255e-10 -4.89425e-11
-1.31244e-10 7.86979e-11 -1.59772e-10
1.59125e-11 7.56048e-13 -1.07484e-11
-7.99485e-10 -3.78641e-10 -2.35679e-11
-2.10376e-11 1.94135e-11 -1.54162e-11
4.11645e-11 3.45477e-11 -2.49837e-11
1.28314e-10 3.10991e-10 -2.20524e-10
-2.71989e-11 -8.74564e-12 -4.43154e-12
-1.31404e-11 -4.60544e-11 -3.74422e-11
-4.91056e-11 1.68771e-10 5.11688e-11
-3.93476e-10 -2.8236e-10 -3.14958e-10
-5.64324e-12 -5.6459e-11 -4.71619e-11
-1.07369e-10 -1.44275e-10 1.12671e-12
-6.46787e-11 -1.70327e-12 -3.09787e-11
-1.28955e-10 -9.11372e-11 4.40316e-11
-5.34684e-11 1.04627e-10 1.11956e-10
-1.43616e-10 -8.57157e-11 2.97028e-11
-3.932e-11 1.2336e-10 -9.30334e-11
8.25197e-11 1.32487e-10 -1.55585e-10
-8.46401e-11 5.09893e-11 -3.36126e-11
-3.97701e-11 -2.01928e-11 1.02566e-11
1.07797e-10 -2.32682e-13 1.17269e-10
1.04396e-11 -2.24235e-11 -1.83847e-11
1.28337e-11 5.70674e-11 2.79327e-11
-4.91752e-11 -2.92435e-12 1.4247e-13
-1.75005e-10 -5.07278e-11 2.16282e-11
-9.58758e-11 5.08754e-11 -2.52642e-10
1.094e-11 1.47729e-10 -3.00971e-11
7.28083e-11 1.0796e-10 -7.46758e-11
3.57529e-11 1.4852e-10 -2.9047e-11
-2.46473e-11 -5.89008e-11 -1.3688e-11
1.1312e-11 5.91625e-11 -5.1422e-11
-8.24064e-11 2.94896e-11 -1.19312e-11
-7.15755e-11 9.75073e-11 -1.38215e-11
-5.66848e-11 3.15786e-11 -6.20741e-11
-2.91624e-11 3.07504e-11 -2.45691e-11
-3.4595e-11 5.64638e-11 -4.5345e-11
-2.70652e-11 9.03194e-11 -2.02803e-11
-1.21357e-11 9.38941e-12 -1.7233e-11
-1.64754e-11 1.26606e-10 3.5618e-11
-2.75741e-11 -6.38272e-11 -9.50072e-11
-3.10009e-11 8.38706e-12 -1.50429e-12
-2.75022e-11 -3.80046e-12 1.22596e-12
-5.67015e-11 -1.98998e-11 4.83559e-12
-7.79401e-11 8.20341e-11 7.92928e-11
-6.06397e-11 1.34266e-12 -4.58263e-12
8.26211e-11 -2.91843e-11 3.12771e-11
-2.3012e-11 3.13116e-11 -1.29441e-11
2.65365e-11 1.56452e-11 2.33168e-11
1.74116e-11 4.05195e-11 -1.55477e-11
2.74874e-11 -3.31784e-11 -3.91192e-12
-1.01581e-10 6.88165e-11 -5.35423e-11
-7.2435e-11 -1.64543e-10 3.63571e-11
-3.15169e-11 2.37364e-11 -2.82652e-11
1.79602e-11 2.06229e-11 1.33779e-10
-5.27256e-11 1.10432e-11 -2.95717e-11
5.40654e-11 1.69532e-11 -2.44587e-11
4.19669e-11 3.89508e-11 -4.02829e-11
-2.20689e-12 -1.18062e-11 -5.784e-11
-3.03964e-11 1.04397e-10 -7.06792e-11
-5.38114e-11 8.16796e-11 1.4643e-11
-1.11224e-11 1.91608e-11 -2.3669e-11
-1.37373e-11 4.50248e-11 -1.59535e-11
-2.14958e-11 6.2926e-11 -1.75866e-11
5.93728e-11 -3.2149e-11 4.71701e-11
3.09773e-12 5.20586e-11 -2.70998e-11
-3.88449e-11 -6.23736e-11 7.52335e-11
2.14767e-11 -2.20408e-11 -3.28711e-11
-4.22287e-11 -5.10242e-11 2.0789e-11
6.99558e-11 -1.49881e-10 1.12873e-10
2.06611e-11 -2.28204e-11 8.26896e-11
5.83859e-11 3.6416e-10 -3.14767e-10
4.08378e-11 4.09872e-11 -1.56035e-11
3.14945e-11 7.44391e-11 1.80731e-10
7.92693e-11 5.51082e-11 -2.776e-11
-7.49252e-11 5.31804e-11 -6.6876e-11
1.57863e-10 -1.09471e-10 1.99922e-11
1.6563e-10 -7.20344e-11 4.81521e-11
4.62081e-11 1.08086e-11 1.39446e-12
-6.5978e-11 1.20852e-10 -1.15417e-10
-2.9922e-11 3.13891e-11 1.14102e-11
-1.28702e-11 1.90028e-10 9.29567e-11
-1.72051e-11 -6.74582e-12 2.77442e-11
-7.62699e-11 3.69105e-11 -2.37272e-11
-4.30029e-11 -9.01052e-11 2.66043e-11
-1.24966e-10 4.16395e-11 -2.63255e-11
-3.52758e-11 1.12079e-11 -5.50507e-12
1.43513e-11 -3.12015e-11 3.58386e-11
6.97511e-12 -6.25403e-11 1.7841e-11
8.66469e-11 -7.25554e-11 9.18744e-11
-4.35604e-11 7.8518e-11 -2.42233e-11
-3.58588e-11 5.50647e-12 5.39717e-12
2.33021e-12 4.34686e-11 1.02661e-10
1.12178e-12 1.00416e-10 -9.1731e-11
2.06655e-11 3.29254e-11 1.62507e-11
1.70241e-12 -2.01922e-11 -4.26424e-11
-3.34856e-13 8.36264e-12 -4.67262e-11
3.44248e-11 -3.44502e-11 -1.68974e-11
9.54105e-11 1.24089e-10 -1.01025e-10
2.27554e-11 -4.01643e-13 8.26806e-11
-3.08643e-11 1.03967e-10 -1.93914e-11
-1.43328e-11 -4.82862e-11 -8.67661e-11
2.02641e-10 -4.86893e-11 5.86586e-12
5.36554e-11 1.32709e-11 -2.25843e-11
3.31958e-12 -1.82415e-11 9.47602e-11
-5.06592e-11 -2.01462e-11 -4.07996e-12
-1.54496e-11 2.92439e-11 8.76331e-13
2.75312e-11 -1.82085e-11 1.45266e-10
-3.7447e-11 4.05319e-11 -1.05579e-10
-2.70727e-11 -7.52165e-11 7.31894e-11
1.56495e-10 -5.79037e-11 4.46298e-11
2.02374e-11 -2.1125e-10 3.49006e-11
8.86632e-11 9.09305e-11 -6.75655e-11
4.14059e-11 -1.12138e-10 -6.73488e-11
7.70183e-11 3.97089e-11 -5.47202e-12
-3.1024e-12 -3.76145e-12 -2.16477e-11
4.0104e-11 -5.19834e-13 -2.42847e-11
-1.38367e-11 5.54971e-11 3.84918e-11
-1.97825e-10 6.59026e-11 -5.73818e-11
-7.189e-11 -7.0698e-11 5.94779e-11
1.25221e-10 -2.4153e-10 3.85549e-11
-8.84154e-11 5.51266e-11 -4.13206e-12
4.56344e-10 5.13952e-10 -1.37449e-10
2.02492e-10 -1.33748e-10 7.83801e-11
-4.89544e-12 -1.88634e-10 -1.77719e-11
4.66736e-11 3.76138e-11 4.24549e-11
1.7884e-10 -1.74693e-10 1.04122e-10
5.24903e-11 9.8205e-12 1.06858e-10
-3.38468e-11 -8.63528e-11 4.31624e-11
-4.18975e-12 5.033e-11 -8.75486e-12
3.24476e-11 -1.62154e-11 8.71238e-12
-1.64725e-10 1.11565e-11 -6.0481e-11
1.29109e-10 -6.81115e-12 1.75063e-11
1.53311e-11 -1.35823e-10 3.45786e-11
9.60966e-11 1.26509e-10 -8.90023e-11
-8.80964e-11 9.04139e-12 -1.33995e-10
2.75938e-11 1.47661e-10 1.26135e-11
-7.52857e-12 -5.94576e-11 -8.0147e-11
-2.78717e-11 5.3406e-11 3.53776e-12
2.20543e-11 -7.78956e-11 3.00819e-11
-9.92691e-11 -6.36153e-11 1.89707e-11
1.59989e-10 -7.89949e-11 7.96917e-11
-4.65658e-11 7.29631e-11 -5.90551e-11
-5.63962e-11 -2.60355e-11 6.9208e-11
-3.65851e-11 5.07445e-12 4.51996e-13
-3.77674e-11 -1.11066e-10 8.80411e-11
2.58208e-11 -1.41008e-10 1.33142e-10
5.73049e-11 -3.72084e-11 -2.12003e-11
7.96454e-11 4.01271e-11 -6.53351e-11
-5.09243e-11 4.88015e-11 -5.92391e-11
5.38902e-12 -5.36894e-13 1.58403e-11
1.2701e-11 -1.59396e-11 9.99338e-11
-1.02716e-11 -1.96623e-11 -6.92237e-11
3.7151e-11 -3.64468e-11 6.47014e-11
6.03893e-12 -3.30029e-11 -2.45243e-11
-7.84416e-11 -5.34479e-11 4.16891e-11
-7.38732e-11 6.9872e-11 -7.86763e-11
-1.70535e-11 1.21311e-10 -4.53449e-11
1.09646e-10 -3.79174e-13 5.04191e-11
-2.34322e-10 7.59376e-11 -7.74282e-12
4.90588e-11 -1.27272e-10 2.23596e-11
9.12661e-12 6.05082e-11 -1.47891e-11
1.03119e-11 8.70304e-11 -1.23858e-11
1.85905e-11 -6.9002e-11 -6.40884e-11
3.68689e-11 -7.78303e-11 -1.78049e-11
1.21175e-10 1.14695e-11 -1.47765e-11
-1.2585e-11 -6.45756e-11 1.22562e-10
9.04651e-11 5.07429e-11 -3.83137e-12
4.16407e-10 -1.14489e-10 1.17183e-10
-1.02422e-10 -4.54435e-12 -7.67275e-12
1.59088e-10 -8.81076e-11 9.23365e-11
1.89368e-11 -4.77149e-11 1.10893e-11
1.10077e-11 1.26104e-10 -8.89331e-11
7.79139e-11 -1.03995e-10 2.54331e-11
-6.28122e-11 5.06504e-11 -3.96797e-11
-1.66841e-11 -4.83403e-11 5.00572e-11
5.59279e-11 -7.10378e-11 7.34212e-11
1.0139e-10 -4.1888e-11 3.71972e-12
2.56036e-11 -1.2088e-10 -1.26944e-11
4.42985e-11 -6.91571e-11 6.03773e-11
6.03469e-11 8.0123e-11 -4.69177e-11
1.58667e-11 7.81291e-11 2.16507e-11
-1.17087e-11 2.81523e-11 2.18326e-11
-1.19443e-11 2.19314e-11 4.9637e-12
-1.53055e-11 -6.20907e-11 -2.1734e-12
3.73607e-11 2.69819e-11 1.06356e-11
4.67459e-11 -7.09409e-11 6.74401e-11
2.66202e-13 2.79701e-13 -1.19551e-13
1.97291e-11 -6.73636e-11 -2.637e-11
2.54583e-11 -6.15539e-11 -7.69409e-11
3.35829e-13 2.63715e-13 -1.18492e-13
1.95871e-13 2.9604e-13 -1.197e-13
-7.45752e-12 -4.24832e-11 -1.16252e-10
5.57196e-14 3.28392e-13 -1.21515e-13
-1.33291e-10 -3.93392e-11 -6.25686e-11
8.44905e-11 -8.98106e-11 1.58594e-11
4.70551e-11 -5.95726e-11 7.34652e-11
2.52044e-10 -2.31418e-10 1.41778e-10
4.65696e-11 -5.6933e-11 8.25277e-11
1.26336e-13 3.12007e-13 -1.21063e-13
1.20941e-10 -8.44996e-11 6.65752e-11
7.15594e-11 -4.58595e-11 2.85886e-11
-7.51724e-11 2.5386e-11 -3.04681e-11
-2.21785e-11 -6.79123e-11 -5.49504e-12
2.96803e-11 -2.12047e-10 -1.5342e-11
1.59047e-11 -1.79008e-11 5.88037e-12
-6.75356e-11 1.75328e-10 1.02396e-10
-2.70488e-11 -8.90064e-11 5.14049e-11
1.44093e-11 4.10333e-11 1.60659e-11
3.78374e-11 -6.22761e-11 -7.03257e-12
-1.54528e-13 3.77144e-13 -1.23607e-13
3.48092e-11 1.9638e-11 -5.79821e-12
1.16267e-11 -5.51381e-11 4.95722e-11
6.577e-12 -1.00242e-10 4.11575e-11
2.80675e-11 -6.27721e-11 5.55112e-11
-1.62001e-10 1.10904e-10 -5.10967e-11
-1.42189e-11 -2.52146e-12 -1.31624e-11
-1.98124e-11 -3.52926e-12 -2.59983e-13
2.66057e-12 1.14549e-11 -2.53787e-11
4.90249e-11 1.51643e-11 6.97141e-12
7.08445e-11 -3.73261e-11 2.01892e-11
-1.00659e-12 -4.46874e-11 -2.32822e-12
-3.86926e-11 -8.96051e-11 -2.62213e-11
2.95092e-11 -4.32322e-12 6.15894e-12
2.88151e-11 -5.55502e-11 8.99214e-11
-1.37426e-14 3.44523e-13 -1.21674e-13
-2.24006e-13 3.93044e-13 -1.24192e-13
-2.63476e-10 -7.70668e-11 5.95789e-11
-2.94468e-13 4.0962e-13 -1.23702e-13
-8.43677e-14 3.60913e-13 -1.22362e-13
-1.24654e-11 -8.08178e-12 -1.56728e-11
1.28449e-11 4.49157e-11 1.90273e-11
-1.04877e-11 -4.67143e-12 -1.78424e-11
1.04862e-11 8.40336e-11 -4.63911e-11
3.8807e-11 1.51247e-11 1.12992e-11
8.98569e-11 1.22317e-10 -9.42685e-11
7.76252e-11 -5.17694e-11 -5.14966e-12
2.16382e-10 -2.6695e-11 3.37264e-11
-2.51569e-11 -2.54401e-12 -6.37416e-13
-1.93829e-11 -8.74554e-12 -2.83732e-10
3.33617e-11 8.39553e-11 -7.19881e-11
-1.02348e-10 -5.45929e-11 3.82685e-12
4.39544e-12 2.57952e-11 -5.53739e-12
1.05585e-11 1.40876e-10 -1.03457e-10
4.58188e-11 2.05517e-11 -1.90284e-11
-6.87194e-12 -1.05558e-11 3.54518e-12
