# vtk DataFile Version 3.0
LIGGGHTS particles timestep 66000000
ASCII
DATASET POLYDATA
POINTS 283 float
0.315194 0.016261 0.00824264
0.315556 0.0173848 0.00736468
0.315585 0.0177668 0.00730266
0.315563 0.0176692 0.00730646
0.31498 0.0156642 0.00901582
0.321345 0.0166705 0.00765673
0.315181 0.0159882 0.00861004
0.314957 0.0156048 0.00909298
0.321581 0.0177285 0.00714226
0.315886 0.0178761 0.00732749
0.315376 0.0165239 0.00791293
0.321542 0.0175521 0.00722802
0.31587 0.0174183 0.00728923
0.308991 0.0154844 0.00875388
0.315893 0.017517 0.00729439
0.309216 0.016131 0.00794224
0.321697 0.0182677 0.00691672
0.315505 0.0173792 0.00727846
0.315582 0.0169115 0.00742431
0.315 0.0157238 0.00893811
0.315628 0.0179608 0.00732476
0.321503 0.0173756 0.00731379
0.315735 0.0171956 0.00731147
0.321446 0.0171108 0.00744244
0.309251 0.0159209 0.0080996
0.315468 0.0171711 0.00723778
0.321324 0.0165846 0.00770375
0.315709 0.0179029 0.00733555
0.315826 0.017223 0.00727882
0.321365 0.0167585 0.00761388
0.315573 0.017596 0.00737379
0.315914 0.0176146 0.00729975
0.32164 0.0179931 0.00701364
0.315203 0.0160477 0.0085326
0.315778 0.0173884 0.00731264
0.315406 0.0163714 0.00812738
0.315523 0.0170306 0.00731785
0.315675 0.0168825 0.00750198
0.315687 0.0178049 0.00732431
0.315564 0.0172172 0.00725885
0.321386 0.0168465 0.00757104
0.321465 0.0171991 0.00739955
0.315138 0.0158692 0.00876492
0.315566 0.0168503 0.00750171
0.321426 0.0170226 0.00748531
0.315678 0.0173547 0.00730506
0.309749 0.0185036 0.00684639
0.309778 0.0178179 0.00706441
0.315863 0.0177788 0.00732236
0.321406 0.0169345 0.00752818
0.309431 0.0166228 0.00756531
0.321523 0.0174638 0.00727091
0.315682 0.0176088 0.00739306
0.315021 0.0157832 0.00886067
0.31545 0.0164917 0.00797108
0.315619 0.0175105 0.00729041
0.321484 0.0172873 0.00735667
0.315246 0.0161667 0.00837772
0.309953 0.0182228 0.00693933
0.315936 0.0177121 0.007305
0.309487 0.0164921 0.00766219
0.315532 0.0167311 0.00765855
0.321772 0.0182017 0.00691956
0.309355 0.016677 0.0075267
0.321562 0.0176403 0.00718514
0.315384 0.016312 0.00820473
0.315323 0.0166311 0.00779011
0.315463 0.0171552 0.00733636
0.321678 0.0181705 0.00692952
0.315671 0.0181548 0.00734685
0.309049 0.0155674 0.0084718
0.309271 0.0159991 0.00804008
0.315544 0.0171233 0.00728695
0.309996 0.0184092 0.00688084
0.309546 0.0167276 0.00748305
0.309069 0.0156114 0.0083844
0.321619 0.017905 0.0070565
0.309411 0.0165448 0.00762468
0.315664 0.0177063 0.00731293
0.321601 0.0178166 0.0070994
0.315473 0.0165512 0.00789386
0.315656 0.0172494 0.00727838
0.315398 0.0165833 0.00783571
0.315268 0.0162261 0.0083004
0.315629 0.0167537 0.00764664
0.31561 0.0170506 0.007268
0.315456 0.0167645 0.00760343
0.315743 0.0176462 0.00732327
0.315687 0.0169351 0.00741782
0.315505 0.016948 0.00737123
0.309583 0.0168843 0.00736384
0.315661 0.0175093 0.00738104
0.309873 0.017849 0.00705679
0.3157 0.0174522 0.00730117
0.315774 0.0170247 0.00729005
0.309527 0.0166487 0.00754309
0.309798 0.0179115 0.00703499
0.31531 0.0163452 0.00814545
0.30901 0.0155077 0.00865845
0.3158 0.0174859 0.00731111
0.315543 0.0175747 0.00728094
0.31565 0.0180578 0.0073358
0.315108 0.0160212 0.00855091
0.309291 0.016077 0.00798074
0.315809 0.0179379 0.00734534
0.30945 0.016701 0.00750588
0.315487 0.0172818 0.00726439
0.315554 0.0174945 0.00736441
0.315354 0.0164641 0.00799062
0.309975 0.018316 0.00691009
0.321304 0.0165013 0.00775516
0.315693 0.0170046 0.00734618
0.315591 0.0166342 0.00780231
0.315361 0.0167369 0.00762573
0.309792 0.0186971 0.00689359
0.315859 0.0178266 0.00741009
0.315842 0.0176813 0.00731703
0.315429 0.0164322 0.00804849
0.309113 0.0157434 0.00824062
0.315907 0.0179736 0.00733276
0.30923 0.015843 0.0081589
0.315086 0.0159617 0.00862835
0.309824 0.0184413 0.00686635
0.315411 0.0169234 0.00739611
0.315549 0.016793 0.00758183
0.315638 0.017151 0.00726784
0.315419 0.0166435 0.00775843
0.309687 0.0182227 0.00693281
0.315258 0.0164383 0.00800946
0.315473 0.016825 0.00752564
0.315494 0.016611 0.00781603
0.315831 0.0180355 0.00735023
0.309893 0.0179426 0.00702739
0.31516 0.0159287 0.00868748
0.315712 0.0170985 0.00731749
0.315599 0.0169724 0.00734664
0.315301 0.0165589 0.00785585
0.30903 0.0155415 0.00856646
0.315608 0.0176892 0.0073938
0.31561 0.0166938 0.00772437
0.315289 0.0162857 0.00822284
0.309641 0.0171628 0.00726935
0.315958 0.0178095 0.00731023
0.309176 0.015975 0.00806092
0.309311 0.016155 0.00792139
0.309881 0.0184576 0.00694694
0.315642 0.0176073 0.00730162
0.309913 0.018036 0.00699801
0.315646 0.016813 0.00756789
0.30972 0.0175372 0.00715238
0.315438 0.0167026 0.0076799
0.309933 0.0181295 0.00696864
0.315395 0.016861 0.00747258
0.309707 0.0183162 0.00690346
0.315514 0.016671 0.00773736
0.309391 0.0164668 0.00768404
0.315755 0.0172923 0.00729594
0.309684 0.0181022 0.00705701
0.309585 0.0176342 0.00720385
0.315705 0.0177062 0.00740521
0.309647 0.0180356 0.00699162
0.315601 0.0174128 0.00727989
0.3097 0.0174437 0.0071816
0.309529 0.0174742 0.00716755
0.309196 0.016053 0.00800158
0.309803 0.0183475 0.00689581
0.309661 0.0172565 0.00724008
0.309468 0.0167801 0.00744765
0.315752 0.0180969 0.00735765
0.309924 0.0184745 0.00685819
0.315635 0.0178988 0.0074029
0.309878 0.0182853 0.00691754
0.315722 0.017549 0.00731233
0.309374 0.0167551 0.00746726
0.309526 0.0170376 0.0073062
0.321659 0.0180814 0.00697075
0.315215 0.0163186 0.00816376
0.315172 0.0161997 0.0083186
0.309256 0.0162869 0.00782358
0.31543 0.0169914 0.00731271
0.309585 0.0173185 0.00721846
0.315807 0.0176365 0.00739947
0.315064 0.0159022 0.00870579
0.309608 0.0178485 0.00705044
0.309602 0.0169756 0.00732784
0.315332 0.0164046 0.00806808
0.309728 0.0184095 0.00687415
0.309703 0.0181957 0.0070276
0.309135 0.0158215 0.00818213
0.309566 0.0172248 0.00724772
0.309791 0.018076 0.0070708
0.315851 0.0173204 0.00728356
0.309588 0.017755 0.00707984
0.309336 0.0165988 0.00758614
0.30968 0.0173501 0.00721084
0.309507 0.0165705 0.00760258
0.309848 0.0185391 0.00686406
0.309156 0.0158972 0.00812021
0.315616 0.0177921 0.00739416
0.315237 0.0163788 0.00808685
0.321738 0.0184635 0.00692013
0.315343 0.0166766 0.00770332
0.309371 0.0163889 0.00774339
0.31528 0.0164983 0.00793245
0.315224 0.0161072 0.00845516
0.315129 0.0160807 0.00847347
0.31598 0.017907 0.00731549
0.309236 0.0162089 0.00788289
0.315821 0.0175835 0.00731573
0.309331 0.0162329 0.00786208
0.309091 0.0156761 0.00831126
0.321716 0.0183659 0.00691837
0.30951 0.0173806 0.00719679
0.309759 0.0177244 0.00709381
0.309487 0.0168631 0.00739502
0.309664 0.0176928 0.0071015
0.309674 0.0179489 0.00710922
0.309296 0.0164428 0.00770491
0.309623 0.0170691 0.00729866
0.315489 0.0168861 0.00744803
0.315582 0.0173152 0.00726929
0.309752 0.0178889 0.00712959
0.309393 0.0168333 0.00740783
0.309771 0.0179825 0.00710017
0.309508 0.016948 0.0073466
0.303457 0.0171397 0.00729277
0.309589 0.0177469 0.00717951
0.309432 0.0170061 0.0073138
0.303438 0.0170527 0.00733813
0.303477 0.0172267 0.00724741
0.309696 0.0176838 0.0071958
0.303515 0.0174007 0.00715668
0.315798 0.017127 0.00727463
0.315449 0.0170766 0.0072639
0.309316 0.0165207 0.00764557
0.315043 0.0158427 0.00878325
0.215741 0.019982 0.00563384
0.303496 0.0173137 0.00720205
0.309782 0.0182542 0.00692512
0.309739 0.0176308 0.00712315
0.309352 0.0163108 0.00780276
0.309703 0.0178799 0.00704274
0.309605 0.0174121 0.00718922
0.309644 0.0175992 0.00713074
0.309762 0.0181607 0.00695447
0.315765 0.0177432 0.00733372
0.309723 0.0177862 0.0071639
0.309569 0.0176614 0.00710907
0.303554 0.0175747 0.00706597
0.30949 0.0172869 0.00722605
0.309277 0.0163648 0.00776427
0.315151 0.0161402 0.00839603
0.309899 0.0183786 0.00688823
0.309667 0.0181292 0.00696222
0.310071 0.0183461 0.00690283
0.309818 0.018005 0.00700559
0.309649 0.0178502 0.00714138
0.309628 0.0179421 0.00702104
0.309683 0.0177864 0.00707215
0.309811 0.0181695 0.00704138
0.309742 0.0180672 0.00698388
0.309471 0.0171933 0.0072553
0.315543 0.017263 0.00734536
0.404182 0.0211142 0.0056569
0.303593 0.017764 0.00701625
0.309771 0.018602 0.00687096
0.303574 0.0176678 0.00703521
0.303535 0.0174877 0.00711133
0.309547 0.0171311 0.00727702
0.309412 0.0169137 0.00734664
0.309722 0.0179735 0.00701333
0.315787 0.0178404 0.00734193
0.309624 0.0175056 0.00715998
0.309837 0.0180985 0.00697619
0.309549 0.0175678 0.00713831
0.309803 0.0182674 0.00702207
0.315731 0.0179999 0.0073466
0.309451 0.0170997 0.00728455
0.309564 0.0168059 0.00742349
0.315379 0.0167987 0.00754912
0.315524 0.017477 0.00727042
0.309858 0.0181919 0.00694685
0.315607 0.0178638 0.00731371

VERTICES 283 566
1 0
1 1
1 2
1 3
1 4
1 5
1 6
1 7
1 8
1 9
1 10
1 11
1 12
1 13
1 14
1 15
1 16
1 17
1 18
1 19
1 20
1 21
1 22
1 23
1 24
1 25
1 26
1 27
1 28
1 29
1 30
1 31
1 32
1 33
1 34
1 35
1 36
1 37
1 38
1 39
1 40
1 41
1 42
1 43
1 44
1 45
1 46
1 47
1 48
1 49
1 50
1 51
1 52
1 53
1 54
1 55
1 56
1 57
1 58
1 59
1 60
1 61
1 62
1 63
1 64
1 65
1 66
1 67
1 68
1 69
1 70
1 71
1 72
1 73
1 74
1 75
1 76
1 77
1 78
1 79
1 80
1 81
1 82
1 83
1 84
1 85
1 86
1 87
1 88
1 89
1 90
1 91
1 92
1 93
1 94
1 95
1 96
1 97
1 98
1 99
1 100
1 101
1 102
1 103
1 104
1 105
1 106
1 107
1 108
1 109
1 110
1 111
1 112
1 113
1 114
1 115
1 116
1 117
1 118
1 119
1 120
1 121
1 122
1 123
1 124
1 125
1 126
1 127
1 128
1 129
1 130
1 131
1 132
1 133
1 134
1 135
1 136
1 137
1 138
1 139
1 140
1 141
1 142
1 143
1 144
1 145
1 146
1 147
1 148
1 149
1 150
1 151
1 152
1 153
1 154
1 155
1 156
1 157
1 158
1 159
1 160
1 161
1 162
1 163
1 164
1 165
1 166
1 167
1 168
1 169
1 170
1 171
1 172
1 173
1 174
1 175
1 176
1 177
1 178
1 179
1 180
1 181
1 182
1 183
1 184
1 185
1 186
1 187
1 188
1 189
1 190
1 191
1 192
1 193
1 194
1 195
1 196
1 197
1 198
1 199
1 200
1 201
1 202
1 203
1 204
1 205
1 206
1 207
1 208
1 209
1 210
1 211
1 212
1 213
1 214
1 215
1 216
1 217
1 218
1 219
1 220
1 221
1 222
1 223
1 224
1 225
1 226
1 227
1 228
1 229
1 230
1 231
1 232
1 233
1 234
1 235
1 236
1 237
1 238
1 239
1 240
1 241
1 242
1 243
1 244
1 245
1 246
1 247
1 248
1 249
1 250
1 251
1 252
1 253
1 254
1 255
1 256
1 257
1 258
1 259
1 260
1 261
1 262
1 263
1 264
1 265
1 266
1 267
1 268
1 269
1 270
1 271
1 272
1 273
1 274
1 275
1 276
1 277
1 278
1 279
1 280
1 281
1 282

POINT_DATA 283
SCALARS id int 1
LOOKUP_TABLE default
1
2
3
4
5
6
7
8
9
10
11
12
13
14
15
16
18
19
20
21
22
24
25
26
27
29
30
31
32
33
34
35
36
37
38
40
41
42
43
44
45
46
47
48
49
50
52
55
56
57
58
59
60
61
62
63
64
65
66
67
68
69
70
71
72
73
74
75
76
77
78
79
80
81
82
83
84
85
86
87
88
89
90
91
92
93
94
95
96
98
99
100
101
102
103
104
105
106
107
108
109
110
111
112
113
114
115
116
117
118
119
120
121
122
123
124
125
126
127
128
129
130
131
132
133
134
135
136
137
138
139
140
141
142
144
145
146
147
148
149
150
152
153
154
155
156
157
158
159
160
161
162
164
165
166
167
168
169
170
171
172
173
174
175
176
177
178
179
180
181
182
183
184
185
186
187
188
189
190
191
192
193
194
195
196
197
198
199
200
201
202
203
204
205
206
207
208
209
210
211
213
214
215
217
218
219
220
221
222
223
224
225
226
227
228
229
230
231
232
233
234
235
236
237
238
239
241
242
243
244
245
246
247
248
249
250
251
252
253
254
255
256
257
258
259
260
261
262
263
264
265
267
268
269
270
271
272
273
274
275
276
277
278
279
280
281
282
283
284
285
286
287
288
289
290
292
293
294
295
296
297
298
300

SCALARS type int 1
LOOKUP_TABLE default
1
1
1
1
1
1
1
1
1
1
1
1
1
1
1
1
1
1
1
1
1
1
1
1
1
1
1
1
1
1
1
1
1
1
1
1
1
1
1
1
1
1
1
1
1
1
1
1
1
1
1
1
1
1
1
1
1
1
1
1
1
1
1
1
1
1
1
1
1
1
1
1
1
1
1
1
1
1
1
1
1
1
1
1
1
1
1
1
1
1
1
1
1
1
1
1
1
1
1
1
1
1
1
1
1
1
1
1
1
1
1
1
1
1
1
1
1
1
1
1
1
1
1
1
1
1
1
1
1
1
1
1
1
1
1
1
1
1
1
1
1
1
1
1
1
1
1
1
1
1
1
1
1
1
1
1
1
1
1
1
1
1
1
1
1
1
1
1
1
1
1
1
1
1
1
1
1
1
1
1
1
1
1
1
1
1
1
1
1
1
1
1
1
1
1
1
1
1
1
1
1
1
1
1
1
1
1
1
1
1
1
1
1
1
1
1
1
1
1
1
1
1
1
1
1
1
1
1
1
1
1
1
1
1
1
1
1
1
1
1
1
1
1
1
1
1
1
1
1
1
1
1
1
1
1
1
1
1
1
1
1
1
1
1
1
1
1
1
1
1
1
1
1
1
1
1
1
1
1
1
1
1
1

SCALARS radius float 1
LOOKUP_TABLE default
5e-05
5e-05
5e-05
5e-05
5e-05
5e-05
5e-05
5e-05
5e-05
5e-05
5e-05
5e-05
5e-05
5e-05
5e-05
5e-05
5e-05
5e-05
5e-05
5e-05
5e-05
5e-05
5e-05
5e-05
5e-05
5e-05
5e-05
5e-05
5e-05
5e-05
5e-05
5e-05
5e-05
5e-05
5e-05
5e-05
5e-05
5e-05
5e-05
5e-05
5e-05
5e-05
5e-05
5e-05
5e-05
5e-05
5e-05
5e-05
5e-05
5e-05
5e-05
5e-05
5e-05
5e-05
5e-05
5e-05
5e-05
5e-05
5e-05
5e-05
5e-05
5e-05
5e-05
5e-05
5e-05
5e-05
5e-05
5e-05
5e-05
5e-05
5e-05
5e-05
5e-05
5e-05
5e-05
5e-05
5e-05
5e-05
5e-05
5e-05
5e-05
5e-05
5e-05
5e-05
5e-05
5e-05
5e-05
5e-05
5e-05
5e-05
5e-05
5e-05
5e-05
5e-05
5e-05
5e-05
5e-05
5e-05
5e-05
5e-05
5e-05
5e-05
5e-05
5e-05
5e-05
5e-05
5e-05
5e-05
5e-05
5e-05
5e-05
5e-05
5e-05
5e-05
5e-05
5e-05
5e-05
5e-05
5e-05
5e-05
5e-05
5e-05
5e-05
5e-05
5e-05
5e-05
5e-05
5e-05
5e-05
5e-05
5e-05
5e-05
5e-05
5e-05
5e-05
5e-05
5e-05
5e-05
5e-05
5e-05
5e-05
5e-05
5e-05
5e-05
5e-05
5e-05
5e-05
5e-05
5e-05
5e-05
5e-05
5e-05
5e-05
5e-05
5e-05
5e-05
5e-05
5e-05
5e-05
5e-05
5e-05
5e-05
5e-05
5e-05
5e-05
5e-05
5e-05
5e-05
5e-05
5e-05
5e-05
5e-05
5e-05
5e-05
5e-05
5e-05
5e-05
5e-05
5e-05
5e-05
5e-05
5e-05
5e-05
5e-05
5e-05
5e-05
5e-05
5e-05
5e-05
5e-05
5e-05
5e-05
5e-05
5e-05
5e-05
5e-05
5e-05
5e-05
5e-05
5e-05
5e-05
5e-05
5e-05
5e-05
5e-05
5e-05
5e-05
5e-05
5e-05
5e-05
5e-05
5e-05
5e-05
5e-05
5e-05
5e-05
5e-05
5e-05
5e-05
5e-05
5e-05
5e-05
5e-05
5e-05
5e-05
5e-05
5e-05
5e-05
5e-05
5e-05
5e-05
5e-05
5e-05
5e-05
5e-05
5e-05
5e-05
5e-05
5e-05
5e-05
5e-05
5e-05
5e-05
5e-05
5e-05
5e-05
5e-05
5e-05
5e-05
5e-05
5e-05
5e-05
5e-05
5e-05
5e-05
5e-05
5e-05
5e-05
5e-05
5e-05
5e-05
5e-05
5e-05
5e-05
5e-05
5e-05
5e-05
5e-05
5e-05
5e-05
5e-05
5e-05
5e-05
5e-05
5e-05
5e-05
5e-05
5e-05
5e-05
5e-05
5e-05
5e-05
5e-05

SCALARS mass float 1
LOOKUP_TABLE default
1.46608e-10
1.46608e-10
1.46608e-10
1.46608e-10
1.46608e-10
1.46608e-10
1.46608e-10
1.46608e-10
1.46608e-10
1.46608e-10
1.46608e-10
1.46608e-10
1.46608e-10
1.46608e-10
1.46608e-10
1.46608e-10
1.46608e-10
1.46608e-10
1.46608e-10
1.46608e-10
1.46608e-10
1.46608e-10
1.46608e-10
1.46608e-10
1.46608e-10
1.46608e-10
1.46608e-10
1.46608e-10
1.46608e-10
1.46608e-10
1.46608e-10
1.46608e-10
1.46608e-10
1.46608e-10
1.46608e-10
1.46608e-10
1.46608e-10
1.46608e-10
1.46608e-10
1.46608e-10
1.46608e-10
1.46608e-10
1.46608e-10
1.46608e-10
1.46608e-10
1.46608e-10
1.46608e-10
1.46608e-10
1.46608e-10
1.46608e-10
1.46608e-10
1.46608e-10
1.46608e-10
1.46608e-10
1.46608e-10
1.46608e-10
1.46608e-10
1.46608e-10
1.46608e-10
1.46608e-10
1.46608e-10
1.46608e-10
1.46608e-10
1.46608e-10
1.46608e-10
1.46608e-10
1.46608e-10
1.46608e-10
1.46608e-10
1.46608e-10
1.46608e-10
1.46608e-10
1.46608e-10
1.46608e-10
1.46608e-10
1.46608e-10
1.46608e-10
1.46608e-10
1.46608e-10
1.46608e-10
1.46608e-10
1.46608e-10
1.46608e-10
1.46608e-10
1.46608e-10
1.46608e-10
1.46608e-10
1.46608e-10
1.46608e-10
1.46608e-10
1.46608e-10
1.46608e-10
1.46608e-10
1.46608e-10
1.46608e-10
1.46608e-10
1.46608e-10
1.46608e-10
1.46608e-10
1.46608e-10
1.46608e-10
1.46608e-10
1.46608e-10
1.46608e-10
1.46608e-10
1.46608e-10
1.46608e-10
1.46608e-10
1.46608e-10
1.46608e-10
1.46608e-10
1.46608e-10
1.46608e-10
1.46608e-10
1.46608e-10
1.46608e-10
1.46608e-10
1.46608e-10
1.46608e-10
1.46608e-10
1.46608e-10
1.46608e-10
1.46608e-10
1.46608e-10
1.46608e-10
1.46608e-10
1.46608e-10
1.46608e-10
1.46608e-10
1.46608e-10
1.46608e-10
1.46608e-10
1.46608e-10
1.46608e-10
1.46608e-10
1.46608e-10
1.46608e-10
1.46608e-10
1.46608e-10
1.46608e-10
1.46608e-10
1.46608e-10
1.46608e-10
1.46608e-10
1.46608e-10
1.46608e-10
1.46608e-10
1.46608e-10
1.46608e-10
1.46608e-10
1.46608e-10
1.46608e-10
1.46608e-10
1.46608e-10
1.46608e-10
1.46608e-10
1.46608e-10
1.46608e-10
1.46608e-10
1.46608e-10
1.46608e-10
1.46608e-10
1.46608e-10
1.46608e-10
1.46608e-10
1.46608e-10
1.46608e-10
1.46608e-10
1.46608e-10
1.46608e-10
1.46608e-10
1.46608e-10
1.46608e-10
1.46608e-10
1.46608e-10
1.46608e-10
1.46608e-10
1.46608e-10
1.46608e-10
1.46608e-10
1.46608e-10
1.46608e-10
1.46608e-10
1.46608e-10
1.46608e-10
1.46608e-10
1.46608e-10
1.46608e-10
1.46608e-10
1.46608e-10
1.46608e-10
1.46608e-10
1.46608e-10
1.46608e-10
1.46608e-10
1.46608e-10
1.46608e-10
1.46608e-10
1.46608e-10
1.46608e-10
1.46608e-10
1.46608e-10
1.46608e-10
1.46608e-10
1.46608e-10
1.46608e-10
1.46608e-10
1.46608e-10
1.46608e-10
1.46608e-10
1.46608e-10
1.46608e-10
1.46608e-10
1.46608e-10
1.46608e-10
1.46608e-10
1.46608e-10
1.46608e-10
1.46608e-10
1.46608e-10
1.46608e-10
1.46608e-10
1.46608e-10
1.46608e-10
1.46608e-10
1.46608e-10
1.46608e-10
1.46608e-10
1.46608e-10
1.46608e-10
1.46608e-10
1.46608e-10
1.46608e-10
1.46608e-10
1.46608e-10
1.46608e-10
1.46608e-10
1.46608e-10
1.46608e-10
1.46608e-10
1.46608e-10
1.46608e-10
1.46608e-10
1.46608e-10
1.46608e-10
1.46608e-10
1.46608e-10
1.46608e-10
1.46608e-10
1.46608e-10
1.46608e-10
1.46608e-10
1.46608e-10
1.46608e-10
1.46608e-10
1.46608e-10
1.46608e-10
1.46608e-10
1.46608e-10
1.46608e-10
1.46608e-10
1.46608e-10
1.46608e-10
1.46608e-10
1.46608e-10
1.46608e-10
1.46608e-10
1.46608e-10
1.46608e-10
1.46608e-10
1.46608e-10
1.46608e-10
1.46608e-10
1.46608e-10
1.46608e-10
1.46608e-10
1.46608e-10
1.46608e-10
1.46608e-10
1.46608e-10
1.46608e-10
1.46608e-10
1.46608e-10

VECTORS velocity float
0.00439843 -0.000101656 0.000990738
0.00430136 -0.000491017 0.000713229
0.00437466 -0.000409634 0.000780182
0.00436651 -0.000398116 0.000778156
0.00429017 -2.39696e-05 0.00084235
0.00446133 -0.000173142 -0.000219919
0.00436287 -8.35716e-05 0.000937379
0.00427722 -1.95249e-05 0.000832814
0.0043418 -0.000251872 -0.000184154
0.00429657 -0.000313164 -0.000679864
0.00445855 -0.000178926 0.00107836
0.004314 -0.000239905 -0.000187517
0.00434096 -0.000367482 -0.000721004
0.00467879 -0.000639627 -4.03297e-05
0.00437599 -0.000347766 -0.000723011
0.00454022 0.000163814 -0.000252891
0.00441718 -0.000114445 0.000203526
0.00422527 -0.000356827 0.000748574
0.00423626 -0.000263617 0.000897426
0.0043067 -2.92205e-05 0.000853503
0.00434499 -0.000457036 0.000778798
0.00425853 -0.00023286 -0.000187007
0.00439029 -0.000377061 -0.00071675
0.0042177 -0.000194356 -0.000201647
0.00446768 0.000304315 -0.00035992
0.00413029 -0.00128192 0.000670332
0.00447695 -2.04655e-05 9.40053e-05
0.00436909 -0.000469936 0.000779462
0.00434826 -0.000379717 -0.000711355
0.00449094 -0.000171478 -0.000225318
0.00433771 -0.000389543 0.000767518
0.00433678 -0.000324521 -0.000712074
0.00433358 -0.00022673 -0.00018856
0.00437845 -8.55699e-05 0.000942275
0.004398 -0.00036471 -0.000594841
0.00444602 -0.000153119 0.00105213
0.0042886 -0.000394696 0.000812071
0.00414181 0.000243487 -0.000346713
0.00437866 -0.000449449 0.000779304
0.00427354 -0.000367259 0.000773276
0.00449776 -0.000170529 -0.000233273
0.00417301 -0.000192332 -0.00019971
0.0043392 -5.02594e-05 0.000888283
0.0042071 -0.000145274 0.00100289
0.00406744 -0.000161776 -0.000208568
0.0043234 -0.000459482 0.000195649
0.00499858 0.000103065 -0.000178118
0.00449241 0.000296279 1.53069e-05
0.00438678 -0.00030467 -0.000712664
0.00439674 -0.000270504 -0.000194324
0.00433225 0.00018842 -0.000266697
0.00429304 -0.000236476 -0.000187744
0.00435954 -0.000349603 0.000798667
0.00431672 -3.77856e-05 0.000866048
0.00454586 -0.000131605 0.00103842
0.00424741 -0.000380986 0.000756131
0.00419208 -0.000207015 -0.000194654
0.00439014 -0.00010945 0.000979372
0.00505546 0.000182922 6.58088e-05
0.00432371 -0.000307789 -0.000704026
0.00445668 0.000223245 -0.000296871
0.00425915 -0.000162994 0.00102274
0.00443693 -0.000102112 0.000202025
0.00439191 0.000121241 -0.000217632
0.00432141 -0.000246125 -0.00018566
0.00447524 -0.000146553 0.00104909
0.00444732 -0.000306698 0.000971498
0.00392111 -0.00113401 0.000672524
0.00442698 -0.000162453 -5.13547e-05
0.00430023 -0.000536195 0.000755651
0.00490427 0.000162918 0.000175763
0.00431496 0.000161414 -0.000246174
0.0042884 -0.000376558 0.000803218
0.0050141 0.000169463 6.82215e-05
0.00441327 5.93683e-05 -0.00017129
0.0049628 0.00035615 0.000267439
0.00437303 -0.00024481 -0.000189876
0.00441752 0.00018512 -0.00026644
0.0043855 -0.000401624 0.000776806
0.00436048 -0.000250748 -0.000185332
0.00453903 -0.000135756 0.0010414
0.00427553 -0.000348777 0.000774994
0.00450503 -0.000156896 0.0010822
0.00439605 -0.000114843 0.000983267
0.00402871 0.000583953 -2.88775e-05
0.00391299 -0.00052346 6.7658e-05
0.00424424 -0.000170343 0.00105181
0.00437827 -0.000410404 0.000779886
0.00408907 -0.000158945 -0.000613649
0.0043269 -0.000430103 0.000812229
0.00447247 0.000172634 -0.000259031
0.00430732 -0.000401661 0.000730655
0.00451536 0.000274852 2.7751e-05
0.00429241 -0.000405931 0.000785307
0.00430674 -0.000407159 -0.00069141
0.00426642 7.1754e-05 -0.000176854
0.00443297 0.000298238 9.22983e-06
0.00443061 -0.000169244 0.00105334
0.00473014 -0.000583297 -4.01844e-05
0.00439307 -0.000345154 -0.000644802
0.00427788 -0.000361938 0.000769443
0.00432009 -0.000483398 0.000784459
0.00437744 -7.28869e-05 0.000925733
0.00452352 0.000141312 -0.000236647
0.00433517 -0.000382392 -0.000458462
0.00436964 0.000170867 -0.000254436
0.00425272 -0.000371153 0.000766031
0.00422377 -0.000285203 0.000735332
0.00445853 -0.000164203 0.00105899
0.0050251 0.000177449 6.64677e-05
0.0044642 -3.47516e-05 9.83652e-05
0.00422072 -0.000341927 -0.000780065
0.00429805 0.000559609 4.3724e-05
0.00432337 -0.000352099 0.00093032
0.00496308 0.00015928 -0.00015739
0.00462968 -0.000435986 -0.000634193
0.00447924 -0.000324236 -0.000740639
0.00448906 -0.000133517 0.00103691
0.00487794 0.000303149 0.0001433
0.004184 -0.000297216 -0.000673804
0.00467817 0.000339014 -0.000399499
0.00435425 -5.94036e-05 0.000904681
0.00502338 0.000195967 6.18382e-05
0.00433288 -0.000456603 0.000840631
0.00423268 -0.000153742 0.00101409
0.00428073 -0.000336151 0.000770466
0.00435354 -0.000260425 0.00103604
0.00448092 0.00033312 3.44048e-07
0.00445091 -0.000188866 0.000994744
0.0042329 -0.000232759 0.00098091
0.00455204 -3.76783e-05 0.000910964
0.0040613 -0.000187323 -0.0015966
0.0045916 0.000266885 2.59067e-05
0.0043324 -8.06871e-05 0.000927912
0.00432931 -0.000364913 -0.000760915
0.00426718 -0.000419466 0.000770201
0.0044767 -0.000271614 0.000998853
0.0048235 -0.000290215 5.65366e-05
0.00434336 -0.000347128 0.000760094
0.00409335 0.000564336 -1.48761e-05
0.00439676 -0.000148529 0.00103343
0.00440083 0.000303078 1.62271e-05
0.00428631 -0.000288148 -0.000695754
0.00434913 0.000192119 -0.000280533
0.00456951 0.000162594 -0.000253991
0.00502488 0.000186778 6.09295e-05
0.00436955 -0.000402037 0.000786856
0.00472233 0.00024896 3.56544e-05
0.00392363 0.00059227 -5.95993e-05
0.00442179 0.000300759 1.67156e-05
0.00430011 -0.000189022 0.00107246
0.0049569 0.000206208 5.61047e-05
0.00429112 -0.000429552 0.00086301
0.00494749 0.000176912 6.46478e-05
0.00438294 -0.00013546 0.00100916
0.00454401 0.000171995 -0.000260253
0.00431477 -0.000346889 -0.000667467
0.00445706 0.000343572 -2.2232e-07
0.00445643 0.000279048 2.03852e-05
0.0045546 -0.000653212 -0.000159626
0.00448287 0.000322816 6.56733e-06
0.00422549 -0.000357444 0.000759459
0.00438934 0.000304528 1.64483e-05
0.00447965 0.00027723 2.62903e-05
0.00446394 0.000184994 -0.000268839
0.00498566 0.000136333 7.94608e-05
0.00437535 0.000306194 1.45205e-05
0.00449119 0.000141899 -0.00023721
0.00427647 -0.00051863 0.000740718
0.00503485 0.000188342 6.19998e-05
0.00440526 -0.000464315 0.000786094
0.00502139 0.000157286 7.35492e-05
0.00437242 -0.00040553 0.000762976
0.0045168 9.95201e-05 -0.000209024
0.00445058 0.000274986 2.78752e-05
0.00434933 -0.000198269 -0.000140478
0.00441995 -0.000117872 0.00100005
0.00439397 -9.62639e-05 0.000974871
0.00458802 0.000135282 -0.00023465
0.00418377 -0.000809044 0.0012662
0.00444913 0.000273595 2.71701e-05
0.00575516 -0.000868951 -0.000404333
0.00433807 -5.09554e-05 0.000888953
0.00449311 0.000305777 1.27824e-05
0.0044819 0.000285762 2.30272e-05
0.00444383 -0.000162749 0.00105845
0.00497937 0.000153982 7.46355e-05
0.00445281 0.000318152 -7.66578e-06
0.00478975 0.00017433 -9.12795e-05
0.00441654 0.000276383 2.4402e-05
0.00446058 0.000341912 -1.33759e-05
0.00425117 -0.000367216 -0.000714357
0.00448293 0.00028983 2.13403e-05
0.00436219 0.000129763 -0.000222307
0.00437362 0.000306188 1.50814e-05
0.00437344 0.000237747 -0.00030534
0.00500756 0.000164058 -3.49343e-05
0.00448249 0.000163578 -0.000238316
0.00441149 -0.000459975 0.000796348
0.00443004 -0.000141736 0.00100042
0.00482625 -0.00019836 0.000215645
0.0043934 -0.000331231 0.000957203
0.00464473 0.000147047 -0.000244634
0.00447177 -0.000236455 0.000995888
0.00437222 -0.000107145 0.000972232
0.00437798 -8.34496e-05 0.00094041
0.00426586 -0.000278917 -0.000690174
0.00455094 0.000142809 -0.000238098
0.00446853 -0.000336117 -0.000754707
0.00458285 0.000132095 -0.000231629
0.00498311 0.000375143 0.000264972
0.00452448 -0.000131112 0.000201752
0.00445329 0.000282738 2.4006e-05
0.00451577 0.000293854 2.4603e-05
0.0045256 0.000171079 -0.000164789
0.00448021 0.000284813 2.36278e-05
0.00457817 0.000385808 -4.95159e-05
0.00461693 0.000111197 -0.000216308
0.00443661 0.000295739 1.91406e-05
0.00429256 -0.000360079 0.000877156
0.00424512 -0.000353624 0.000765236
0.0044849 0.000352704 -2.89277e-05
0.00453942 0.000105481 -0.000199477
0.00452269 0.000349366 -3.18337e-05
0.00448389 0.000247885 -3.5405e-05
0.00445345 0.000248899 -0.000222607
0.00447807 0.000252698 1.53466e-05
0.00445585 0.000266367 2.85128e-05
0.00444061 0.000250755 -0.000223267
0.00446639 0.000247133 -0.000221933
0.00447262 0.000290505 2.52448e-05
0.00452276 0.000237114 -0.00021796
0.00436319 -0.000375298 -0.00071472
0.00414872 -0.00140666 0.000222708
0.00444647 0.000125507 -0.000221674
0.00432526 -4.49661e-05 0.000877113
6.80554e-15 2.29888e-14 -7.03247e-14
0.00447954 0.000245159 -0.000221197
0.00494859 0.000196397 5.59783e-05
0.00447865 0.000295051 2.25752e-05
0.00462763 0.000121239 -0.00022474
0.00447649 0.00029606 8.98117e-06
0.00447195 0.000271337 2.78023e-05
0.00446979 0.000278868 2.55801e-05
0.00447296 0.000337657 -1.42771e-06
0.00453792 -0.000394996 -3.78062e-05
0.00451604 0.000308256 1.08818e-05
0.00447663 0.000281575 2.28763e-05
0.00455143 0.000231348 -0.000215602
0.00445086 0.000276184 2.59913e-05
0.00463377 0.000122308 -0.000225645
0.00438326 -9.09409e-05 0.000955847
0.00500822 0.00016935 6.8231e-05
0.00448244 0.000330848 2.27741e-06
0.00500099 0.000150901 7.43653e-05
0.00443525 0.000296861 1.46844e-05
0.00448729 0.00028349 1.89032e-05
0.00446429 0.000251691 2.64659e-05
0.00450586 0.000296341 1.21522e-05
0.00454932 0.000316322 3.80978e-06
0.00446006 0.000324564 4.55872e-06
0.00445634 0.000267466 2.90223e-05
0.00425843 -0.000355656 0.000771133
-1.29286e-14 6.08892e-14 -1.90218e-13
0.00453926 0.00030656 7.11132e-06
0.00497599 0.000134886 -9.92868e-05
0.00455064 0.000304892 7.54657e-06
0.00453447 0.000234699 -0.000216937
0.00441384 0.000276228 2.50663e-05
0.00457973 0.000149262 -0.000243812
0.00446664 0.000308454 6.58579e-06
0.00451069 -0.000413859 0.000102389
0.00447872 0.000274242 2.72524e-05
0.00452808 0.000285792 2.02952e-05
0.00447754 0.000270419 2.87249e-05
0.00510353 0.000347021 -6.66998e-06
0.0042979 -0.000480223 0.000730465
0.00444623 0.000259399 3.1029e-05
0.00457127 0.000174579 -0.000255922
0.00426729 -0.000388857 0.000892757
0.00421663 -0.000352218 0.000752539
0.00494892 0.000204323 5.25499e-05
0.00436922 -0.000425574 0.000777436

VECTORS force float
-4.70146e-11 7.19967e-12 9.42477e-12
5.88307e-10 4.26906e-10 -7.8429e-11
-7.86091e-11 -6.94118e-11 -1.0639e-10
-4.34801e-11 -1.0219e-10 -1.04824e-10
3.04074e-11 1.29059e-10 -1.54355e-10
1.39738e-10 9.40389e-11 6.74395e-11
3.09794e-11 -3.28979e-11 8.39256e-11
6.89291e-11 1.3348e-10 -1.77857e-10
9.93132e-11 -7.04101e-11 2.79907e-11
4.26444e-10 2.28875e-10 1.45146e-10
1.69799e-10 5.71473e-11 -1.17189e-10
6.35582e-11 -1.12343e-10 5.2211e-11
-3.77199e-10 -9.66555e-11 -8.42404e-11
1.97748e-10 -1.26162e-10 5.96433e-12
-2.05761e-10 -2.78196e-10 2.53777e-11
-8.88223e-12 -2.97297e-10 1.92281e-10
2.98457e-13 1.12827e-10 5.25772e-11
3.35476e-11 -1.69404e-10 1.83528e-10
3.48547e-11 -2.11133e-10 -1.39367e-11
1.24621e-11 1.39749e-10 -1.35675e-10
-1.19662e-10 1.6745e-10 -9.01068e-11
9.57513e-11 -2.36571e-10 1.12419e-10
-4.35034e-11 -8.67942e-11 -5.61691e-11
1.60541e-10 -5.8006e-10 2.51143e-10
-2.88071e-10 -2.98501e-11 -7.10532e-11
2.0284e-11 -1.38038e-10 -4.18956e-11
4.60238e-11 1.91741e-10 -1.28677e-10
2.48128e-10 3.04776e-10 7.53267e-10
1.30771e-10 -6.70767e-11 1.44741e-10
2.13215e-10 2.31672e-11 -4.23928e-11
6.48462e-12 4.88972e-10 -6.00628e-11
-3.77054e-10 -2.59228e-10 4.35712e-11
-4.15307e-11 7.76258e-11 -2.0514e-11
2.72255e-11 -3.24684e-11 4.32576e-11
4.17762e-10 -9.15524e-11 7.33943e-10
-1.15604e-10 -6.31105e-11 1.20716e-10
2.10071e-10 -1.531e-10 1.23914e-10
2.36563e-10 -4.26643e-10 1.63469e-10
-1.62415e-10 1.52623e-10 -7.53528e-12
-3.11799e-11 -2.26485e-10 -1.34569e-10
2.58222e-11 -1.93922e-10 8.56249e-11
2.7342e-10 -5.41923e-10 2.39544e-10
6.93876e-11 4.73682e-11 -3.72965e-11
1.46645e-10 -1.33856e-10 3.22798e-11
-2.9452e-10 -6.62591e-10 3.05854e-10
1.31548e-10 -7.0702e-11 -7.82256e-10
-5.53269e-11 -2.54209e-10 -5.73218e-11
-8.61419e-11 1.31788e-10 -7.10925e-11
1.65217e-10 -1.88466e-10 1.0781e-10
-5.81142e-10 9.562e-10 -3.61681e-10
8.09041e-11 1.89771e-10 -1.35881e-10
-2.57696e-10 -9.43089e-11 5.01285e-11
1.58552e-12 -1.8979e-10 -9.96065e-11
1.01225e-10 1.25166e-10 -9.73115e-11
1.04483e-10 -1.3513e-10 1.51944e-10
-3.96682e-10 -1.19186e-11 -1.44095e-10
5.39044e-10 -4.72909e-10 1.84343e-10
-7.04904e-12 -1.26321e-11 9.21898e-12
5.3513e-11 -1.08409e-11 1.51258e-11
1.43239e-10 -3.99689e-11 -7.65793e-11
5.76632e-11 5.52609e-11 -4.13363e-11
-1.76108e-10 -7.4802e-11 2.7417e-10
-2.62973e-11 1.59049e-10 -7.74732e-11
-1.43737e-10 4.45249e-11 -4.30941e-11
-9.44293e-11 -1.23873e-10 6.93933e-11
-2.01801e-10 -1.10775e-11 1.94727e-11
2.95405e-11 -8.42733e-11 4.49301e-12
4.50343e-10 -3.93933e-10 8.24253e-11
8.35013e-11 -1.98524e-11 -2.81448e-10
2.28297e-10 3.94907e-10 1.6131e-10
3.08956e-10 3.46591e-10 2.79453e-10
-5.71105e-11 -2.51204e-10 1.94998e-10
1.74937e-10 -2.51602e-10 -3.70385e-12
4.57173e-12 -6.89548e-11 1.8877e-11
1.72137e-12 1.30473e-11 -2.54769e-11
-1.71271e-10 -1.78476e-10 4.58727e-12
-1.35961e-10 1.68701e-11 -4.28343e-11
2.15191e-10 1.8822e-10 -1.40405e-10
-1.43361e-10 -3.9425e-10 -9.47044e-11
-6.41813e-13 7.29137e-13 1.55707e-11
-4.07377e-13 -1.33611e-10 1.59884e-10
-1.00963e-11 -1.77649e-10 -2.83695e-11
2.4109e-10 8.43294e-11 3.69395e-11
-1.72098e-10 -4.32618e-13 4.60467e-13
-2.47233e-11 -2.12459e-10 2.03212e-10
4.48169e-10 -2.80249e-10 6.25078e-11
1.63377e-10 8.05171e-11 4.58143e-11
-5.06179e-11 -3.97265e-10 -1.34867e-10
2.3369e-10 -3.60857e-10 1.35296e-10
1.75262e-10 -7.66552e-11 -6.45676e-12
-3.17963e-11 -1.18037e-11 -9.61729e-12
3.45121e-10 4.0304e-10 -9.38428e-15
-5.56966e-11 1.78802e-10 1.34526e-11
-1.44815e-10 -7.5305e-11 -2.40928e-11
-2.62564e-11 -5.82312e-11 1.70181e-10
-1.32882e-10 -6.24241e-11 3.34624e-11
-9.12028e-11 1.64127e-10 -5.38533e-11
-4.96103e-11 -3.04244e-11 5.68397e-12
-3.75852e-10 -4.44784e-10 -7.59096e-11
2.71809e-10 -2.09342e-10 4.27272e-10
-6.75411e-11 -5.01939e-11 2.3036e-11
-4.40337e-10 1.1107e-10 2.21567e-10
9.77708e-11 6.9835e-12 5.99065e-13
2.28524e-10 -4.43192e-10 3.48126e-10
8.88833e-10 8.11042e-11 3.1768e-09
3.52806e-11 1.01155e-10 -1.18475e-10
-5.76648e-11 -2.32305e-10 4.24132e-11
1.89992e-10 -2.07337e-10 1.67295e-10
5.68947e-11 -1.71942e-10 7.7031e-11
1.96283e-10 -8.68148e-11 3.12491e-11
2.21016e-11 2.07805e-10 -1.39863e-10
1.44764e-11 -1.30461e-10 2.96386e-10
-8.88661e-11 -9.08743e-11 -2.62113e-10
1.78446e-10 1.43338e-10 6.75683e-11
-6.80444e-11 1.49916e-10 -1.02616e-10
5.72231e-11 -1.00707e-10 -2.05271e-10
6.00084e-10 -2.29563e-10 -3.63222e-10
2.91583e-10 -1.20784e-10 1.6642e-10
4.13294e-10 -6.78462e-10 -3.17419e-10
1.03738e-10 5.28197e-10 -9.59378e-11
1.07671e-10 4.55744e-11 -4.04685e-11
1.52027e-11 2.3401e-11 -4.31217e-11
-5.84127e-11 -1.88839e-10 5.99941e-11
6.27723e-11 1.30122e-10 -2.21779e-10
6.91223e-11 -2.92195e-11 1.5383e-10
2.13599e-10 -2.64902e-10 1.57686e-10
2.86639e-10 -1.26631e-10 -5.69314e-11
-6.29109e-11 -2.20599e-10 8.81804e-11
3.40048e-10 -7.7998e-11 2.11104e-10
3.86602e-10 -2.01816e-10 -1.1366e-10
2.17195e-10 -1.93163e-10 1.68963e-10
5.00909e-10 -4.58748e-10 -5.44601e-10
-1.62731e-10 1.70477e-10 -3.89742e-11
-1.37059e-10 -6.41033e-11 8.13129e-11
1.25689e-10 6.63605e-12 2.8579e-10
3.62934e-11 -1.63516e-10 4.80879e-11
-9.0983e-11 -3.60135e-11 8.34475e-11
-5.24118e-11 2.80186e-10 1.87829e-10
-2.09978e-10 -1.54938e-10 -2.31164e-10
1.79545e-10 -3.56966e-10 -1.37e-10
-1.2424e-10 4.22325e-12 -1.27112e-10
-5.02981e-11 2.06996e-11 -4.96203e-12
7.79962e-10 1.72514e-10 1.62005e-12
-1.32198e-10 1.79388e-10 -1.42702e-10
6.177e-10 -3.51216e-10 2.56882e-10
3.0051e-11 -1.42134e-10 3.6771e-11
-7.48675e-11 -1.80245e-10 -1.64375e-10
-1.52876e-10 1.35344e-10 -6.6979e-11
6.21888e-11 -1.78068e-10 3.52808e-10
-1.2407e-10 8.47307e-11 -3.90937e-11
1.80623e-10 -2.41812e-11 -8.18101e-11
7.36343e-11 4.95007e-11 -2.14326e-11
1.49223e-10 -6.69725e-11 -3.27015e-10
-1.44881e-11 1.19609e-10 -5.56372e-11
1.0848e-10 -1.31076e-10 -6.00807e-11
8.22277e-11 1.77303e-10 -1.31542e-10
3.62847e-10 -2.86333e-11 2.6722e-10
1.96047e-10 1.74376e-10 1.09293e-10
-8.76546e-11 1.1983e-10 -2.8436e-11
-1.57988e-10 -1.78778e-10 -3.14487e-10
-8.22368e-11 -1.23638e-10 2.19387e-11
-2.3786e-10 -1.70024e-10 -4.73392e-11
-8.3887e-11 4.05311e-11 -3.1549e-11
9.63965e-12 7.79902e-11 -2.00252e-11
5.81467e-11 -6.63566e-11 -2.31026e-11
-9.40036e-12 -3.04317e-11 1.43718e-11
1.91557e-11 2.58494e-12 1.33001e-11
8.90921e-11 1.89253e-11 -6.0068e-11
-3.69533e-10 6.1667e-10 -6.87166e-10
-1.22123e-10 -1.61154e-10 4.50461e-11
7.26414e-11 2.06509e-10 -1.35301e-10
3.5591e-11 -4.80084e-11 1.33696e-11
-1.85902e-10 -2.63432e-10 -1.52578e-10
-1.66281e-10 -3.42653e-11 1.29664e-11
1.74608e-10 -3.51167e-11 9.05214e-11
-1.9658e-10 9.62245e-11 -7.32398e-11
-2.31786e-10 -6.33604e-11 2.88895e-11
-2.16485e-11 2.41575e-11 -1.56651e-11
-2.31192e-10 3.17348e-11 -1.27634e-11
-1.89048e-10 6.61441e-11 -3.42896e-10
-3.17843e-11 3.95089e-11 -1.53111e-11
3.14907e-10 -1.69391e-10 -4.46807e-10
-7.85923e-11 -5.00547e-12 -2.96942e-11
4.7568e-12 3.37234e-11 -3.00483e-11
-6.03484e-11 5.11428e-11 -4.41611e-11
3.98778e-11 -8.17831e-11 8.29195e-11
2.09634e-11 6.88319e-11 -1.76394e-11
2.20609e-10 9.27187e-11 1.69834e-10
2.08198e-10 -3.64507e-10 -7.30786e-11
-1.05956e-10 5.21533e-12 -1.59162e-11
-3.13016e-10 -8.23169e-11 3.65296e-11
1.98189e-10 1.74959e-10 -1.59788e-10
-1.61632e-11 -1.03097e-11 -5.92557e-12
-1.34019e-11 1.28243e-10 -1.02479e-10
2.71655e-11 2.55753e-12 -2.13859e-12
-3.68761e-11 1.59598e-10 -1.15513e-10
-6.68081e-11 -6.07153e-11 5.6843e-11
-1.19456e-10 1.03019e-10 -2.2798e-11
-1.64313e-10 -7.61378e-11 -1.90797e-10
-7.69821e-11 -9.36705e-11 8.2093e-11
8.50034e-11 3.32814e-10 -1.44272e-11
7.01339e-11 3.44813e-11 4.92401e-11
1.27507e-10 1.64799e-10 -1.24113e-10
7.576e-11 5.77404e-11 2.26702e-10
-1.02725e-10 -2.81158e-12 -7.54288e-12
3.14668e-11 -2.21409e-12 2.11197e-11
4.40742e-10 4.11243e-10 -3.2338e-11
1.74953e-10 -2.12193e-10 1.80365e-10
6.8803e-10 -1.33064e-10 -2.96059e-11
-2.21303e-10 4.29106e-10 -3.19483e-10
5.19447e-11 3.5169e-11 6.35941e-11
-2.40048e-11 2.78417e-10 1.73006e-11
-1.24168e-11 5.38344e-11 -2.08914e-11
1.25212e-11 7.51715e-11 -1.49475e-10
4.60978e-12 -3.38149e-12 1.04545e-10
-4.38512e-11 -2.61625e-11 7.46831e-12
1.25479e-10 -1.26625e-10 2.6416e-11
8.4048e-11 2.51476e-10 -1.87414e-10
-5.66333e-11 3.70013e-11 -1.9788e-11
3.72512e-10 -3.48397e-10 -2.48279e-10
-4.49629e-11 -3.20886e-10 7.68337e-12
9.0001e-11 1.59813e-11 1.34056e-10
-2.19627e-11 -8.45405e-11 5.44231e-11
-1.80532e-10 4.35676e-11 -1.23167e-10
8.03289e-11 -4.75866e-12 2.02214e-10
-4.45534e-13 1.79617e-13 -1.44148e-12
1.47013e-11 -4.59725e-11 -1.75228e-11
1.2474e-12 -6.95527e-11 5.66567e-12
4.46854e-12 7.7847e-12 -3.70548e-12
-1.33313e-12 -3.33678e-12 2.85167e-12
-1.31385e-12 4.48627e-11 9.24896e-12
-2.76588e-12 -5.13646e-12 2.2366e-12
-1.40825e-11 7.62039e-11 7.61085e-11
1.07832e-10 -4.58191e-11 -3.9383e-10
1.83659e-10 2.17697e-10 -1.67354e-10
-4.48073e-11 3.79365e-11 -6.2847e-11
-3.6215e-23 3.72231e-24 -8.27181e-25
-1.61451e-12 -5.18754e-12 2.51385e-12
-2.1102e-10 4.65327e-11 -5.24251e-12
-1.26187e-10 1.1011e-10 -7.93216e-11
-1.57395e-10 5.8711e-11 -3.93518e-11
-9.21315e-12 2.85086e-11 3.00652e-11
-5.12129e-11 2.49961e-11 -4.14109e-12
-5.57449e-11 2.32873e-12 8.34126e-12
-9.17587e-11 -1.32887e-10 7.11212e-11
-3.85842e-10 -1.77313e-10 -7.55774e-10
2.04817e-11 -1.52426e-10 -8.92319e-11
-2.68571e-11 -3.29833e-12 -5.52997e-12
2.08154e-12 2.08747e-12 -2.5303e-12
-3.83352e-11 -2.21918e-11 7.6668e-12
-1.18237e-10 1.5484e-10 -1.15618e-10
-3.46627e-11 -1.10566e-11 8.98567e-12
-4.4522e-11 -1.0145e-10 1.75367e-11
-4.54329e-11 -1.42078e-10 5.80597e-11
1.0583e-10 6.74987e-11 -2.25483e-11
3.38312e-11 1.20025e-10 -9.03046e-11
-5.79456e-12 -1.29881e-11 -3.76425e-11
-5.77445e-11 -1.78752e-10 7.61899e-11
1.09795e-10 1.15607e-10 -1.30373e-10
3.44549e-10 2.04527e-11 -2.05088e-10
-3.8599e-11 -8.84914e-11 -1.7954e-11
1.99773e-11 -4.13549e-11 4.20065e-12
-9.53691e-11 -6.20928e-10 -1.27842e-10
6.09787e-22 1.41448e-22 4.96308e-24
5.50993e-12 7.19879e-13 2.48673e-13
1.67916e-11 8.76112e-11 -6.28147e-11
-2.97189e-12 1.36368e-12 -8.72919e-13
8.0533e-12 -1.4189e-12 1.7214e-12
-3.41054e-11 -2.2417e-11 2.12003e-11
-1.33314e-11 -4.28788e-11 3.79288e-11
-1.41078e-10 2.36402e-11 -1.36048e-11
2.85306e-11 -2.85273e-10 2.59589e-10
-1.13865e-11 4.36943e-12 -1.46819e-12
1.58643e-10 1.01522e-10 -1.34837e-10
-1.32348e-11 -3.14116e-11 6.63523e-12
-7.77731e-11 7.42893e-12 -2.16993e-11
1.76814e-10 3.59163e-10 4.58534e-10
6.70379e-11 -3.70822e-11 -1.00627e-11
1.22196e-10 -9.84099e-11 6.74212e-11
3.09716e-10 9.01973e-12 -1.24927e-10
-9.57914e-11 -2.47222e-10 8.69248e-11
-1.02793e-10 1.69959e-10 2.81644e-12
-1.50689e-10 1.43531e-10 -6.92451e-11
