# vtk DataFile Version 3.0
LIGGGHTS particles timestep 1400000
ASCII
DATASET POLYDATA
POINTS 221 float
0.0196241 0.0175877 0.00710511
0.0200766 0.0186449 0.00693364
0.0199876 0.0188089 0.00690372
0.020044 0.01906 0.00686443
0.0194539 0.0176142 0.007104
0.0252817 0.0168369 0.00744369
0.019649 0.018477 0.00694621
0.0194326 0.0175239 0.00714131
0.0256224 0.0183749 0.00704126
0.0195838 0.0181877 0.00699127
0.0198577 0.0187034 0.00691646
0.0255472 0.0180431 0.00710533
0.0196273 0.0183806 0.00696123
0.0140105 0.0201985 0.00720454
0.0198265 0.0188835 0.0068859
0.0139644 0.0199735 0.00716525
0.0195621 0.0180913 0.00700628
0.0254821 0.0177556 0.00716084
0.0195317 0.0175545 0.00712372
0.0199794 0.0186187 0.00693454
0.0194752 0.0177066 0.0070723
0.0197532 0.0187475 0.00690561
0.0255038 0.0178514 0.00714234
0.0197564 0.0185231 0.00694242
0.0253919 0.0172716 0.00724146
0.0163476 0.0202948 0.00715575
0.0195718 0.0177369 0.00706459
0.0252624 0.0167569 0.0075004
0.0196055 0.0182841 0.00697625
0.019744 0.0189388 0.00687399
0.025301 0.016917 0.00738698
0.0197021 0.0183156 0.00697447
0.0197963 0.018349 0.00697227
0.0256727 0.0185969 0.0069984
0.0196803 0.0182191 0.00698949
0.0197343 0.0184261 0.00695751
0.025418 0.0174669 0.00721122
0.0196707 0.0185735 0.00693119
0.0195934 0.0178333 0.00704956
0.0196904 0.0186703 0.00691604
0.0199279 0.0188877 0.00688875
0.020113 0.0188274 0.00690506
0.0253204 0.016997 0.00733028
0.0253969 0.0173703 0.00722614
0.0195186 0.0178984 0.00703632
0.0198793 0.0186072 0.00693295
0.0253598 0.017178 0.00725585
0.0200814 0.019247 0.00683349
0.0166324 0.0199893 0.00710577
0.0254387 0.0175636 0.00719629
0.0196527 0.0176793 0.00707682
0.0140712 0.0204944 0.00725619
0.0198555 0.0185112 0.00694782
0.0253401 0.0170851 0.00728715
0.0162384 0.0201373 0.00714718
0.0255255 0.0179472 0.00712383
0.0199712 0.0184257 0.00696583
0.019497 0.0178019 0.00705135
0.0198846 0.0187986 0.00690182
0.0201191 0.0189534 0.00688467
0.0254604 0.0176597 0.00717935
0.0194123 0.0174356 0.00718378
0.0164493 0.0200571 0.00712562
0.019957 0.0187148 0.00691805
0.0162847 0.0200277 0.00713363
0.0197246 0.0188419 0.00688917
0.0257083 0.0187543 0.00696802
0.014237 0.0206898 0.00728326
0.0255689 0.0181389 0.00708682
0.0195405 0.0179948 0.00702131
0.0200512 0.0185493 0.0069484
0.0196586 0.0181227 0.0070045
0.0254209 0.0170295 0.00730672
0.0214169 0.0192587 0.00686821
0.0146271 0.0204855 0.00722342
0.0155066 0.0204396 0.00718672
0.0203024 0.0191793 0.00685114
0.0160925 0.0199326 0.00712272
0.0163151 0.020466 0.00717446
0.0151054 0.0203184 0.00717335
0.025514 0.0174987 0.00720676
0.0147045 0.0205667 0.00723421
0.0200952 0.0193601 0.00682602
0.0256441 0.0180737 0.00709665
0.020383 0.019238 0.00684333
0.0201793 0.0191953 0.00684502
0.0200917 0.0191474 0.0068508
0.0198586 0.0190729 0.00686931
0.020155 0.0190456 0.00686995
0.0214913 0.0191889 0.00688219
0.0202707 0.0192727 0.00683432
0.0213337 0.019313 0.00685665
0.0204441 0.019139 0.00686193
0.0207647 0.0193206 0.00683972
0.0163586 0.0200995 0.00713631
0.0201476 0.0185759 0.0069474
0.0171863 0.0142437 0.0118457
0.0197827 0.0191327 0.00684362
0.019784 0.0186363 0.00692487
0.01679 0.0200945 0.00710428
0.0144926 0.0205809 0.0072487
0.0198192 0.0193255 0.00681903
0.0141464 0.0205602 0.00726423
0.0196153 0.0179298 0.00703455
0.0199847 0.018976 0.00687629
0.0202379 0.0193667 0.0068252
0.0212448 0.0193638 0.00684552
0.016149 0.0201848 0.00715331
0.0203377 0.0193618 0.00682093
0.017921 0.023449 0.0106893
0.0200393 0.0188936 0.00689166
0.0199548 0.0185229 0.00694935
0.0193922 0.0173474 0.00722626
0.0184367 0.0238464 0.0115524
0.0252431 0.0166778 0.00755853
0.0198719 0.0184139 0.0069643
0.0193725 0.017259 0.00726876
0.0203543 0.0190953 0.00686692
0.014913 0.0204517 0.00720115
0.0207508 0.0192219 0.00685619
0.0196369 0.0180262 0.00701952
0.0198847 0.0189765 0.00687273
0.0153048 0.0204009 0.00718272
0.0201698 0.0192935 0.00682878
0.0164768 0.0203512 0.00715167
0.0197633 0.0190357 0.00685881
0.0166507 0.0201166 0.00711657
0.020061 0.0187423 0.00691717
0.0198189 0.018253 0.00698877
0.0199534 0.0191012 0.00685471
0.0196108 0.0174983 0.00714791
0.0141989 0.0204771 0.00724584
0.0213758 0.0191509 0.0068855
0.0202303 0.0191108 0.00686087
0.0200009 0.0191882 0.00684133
0.0205696 0.0193095 0.00683625
0.0147533 0.0206628 0.00724935
0.0198792 0.0191669 0.00684139
0.0199267 0.0192543 0.006828
0.0200071 0.0193132 0.00682014
0.0201609 0.0187411 0.00692085
0.014621 0.0203566 0.00719978
0.0198024 0.0192308 0.00684633
0.0204755 0.0192758 0.00683941
0.0193529 0.0171707 0.00731127
0.0202019 0.020177 0.018442
0.01617 0.0189135 0.0195722
0.0193332 0.0170823 0.00735378
0.0171589 0.0215777 0.00774639
0.0161178 0.0220821 0.00878917
0.0166355 0.0198869 0.00709577
0.0216121 0.0231976 0.0140423
0.0165229 0.0201418 0.00712833
0.0195106 0.0174664 0.00716614
0.0184226 0.0209162 0.0214502
0.0229558 0.0197357 0.0154339
0.0167304 0.01997 0.00709675
0.0201879 0.0238818 0.0116159
0.0237346 0.0201875 0.0154775
0.0192592 0.0227398 0.014777
0.0215956 0.0158621 0.0214328
0.0156831 0.0164901 0.0209161
0.0206622 0.0193472 0.00683235
0.01991 0.0238744 0.0116021
0.0187101 0.0213851 0.0147446
0.0203513 0.0187534 0.00692527
0.0201021 0.0223033 0.0150517
0.0206088 0.0191301 0.00686798
0.0183074 0.0205554 0.0179235
0.0176061 0.0170396 0.0214249
0.0163299 0.0201949 0.00714751
0.0207312 0.0238805 0.0116136
0.0205331 0.0238809 0.0116143
0.0171845 0.0234184 0.0189928
0.0204632 0.0193736 0.00682257
0.0158134 0.0219752 0.00858709
0.0197661 0.018169 0.00700068
0.0196685 0.0209239 0.0159169
0.0218925 0.0163523 0.015571
0.0189254 0.0238936 0.0117707
0.0156558 0.0203897 0.00718009
0.0257297 0.0188519 0.00694919
0.0208653 0.0191148 0.00687765
0.020906 0.0146753 0.0135268
0.0155605 0.0207909 0.0159983
0.0225619 0.0194265 0.00689648
0.0167572 0.0207041 0.00717087
0.0205313 0.0191919 0.00685528
0.0179506 0.0155736 0.0201168
0.0212376 0.0226413 0.0147318
0.015201 0.014703 0.0135424
0.018635 0.0173842 0.0171303
0.0161798 0.0200044 0.00713116
0.0195568 0.0238575 0.0115716
0.0158843 0.0198928 0.0071186
0.0231437 0.0176511 0.0211134
0.0193858 0.0238565 0.0115699
0.019886 0.0165115 0.0209262
0.0187432 0.0238531 0.0115642
0.0150273 0.0233128 0.0137787
0.0188428 0.0223694 0.0183063
0.0174611 0.0142236 0.0117271
0.01952 0.023861 0.0117966
0.0165893 0.0210581 0.0149565
0.0201446 0.0163755 0.00798606
0.0209343 0.0191941 0.00686599
0.0208805 0.0222565 0.0194894
0.0255782 0.0177853 0.00715234
0.0208177 0.0194217 0.00683298
0.0166744 0.0233041 0.0136739
0.0195972 0.0204017 0.019531
0.0202538 0.0187858 0.00691677
0.0238348 0.0203469 0.0198133
0.0211049 0.0194074 0.00683424
0.0185504 0.0238489 0.0115566
0.0158351 0.0215478 0.00795562
0.0194903 0.0173781 0.00720865
0.0160342 0.0202063 0.00715634
0.015809 0.0195903 0.00708194
0.0234485 0.0170682 0.0194068
0.0198378 0.0226428 0.0187003

VERTICES 221 442
1 0
1 1
1 2
1 3
1 4
1 5
1 6
1 7
1 8
1 9
1 10
1 11
1 12
1 13
1 14
1 15
1 16
1 17
1 18
1 19
1 20
1 21
1 22
1 23
1 24
1 25
1 26
1 27
1 28
1 29
1 30
1 31
1 32
1 33
1 34
1 35
1 36
1 37
1 38
1 39
1 40
1 41
1 42
1 43
1 44
1 45
1 46
1 47
1 48
1 49
1 50
1 51
1 52
1 53
1 54
1 55
1 56
1 57
1 58
1 59
1 60
1 61
1 62
1 63
1 64
1 65
1 66
1 67
1 68
1 69
1 70
1 71
1 72
1 73
1 74
1 75
1 76
1 77
1 78
1 79
1 80
1 81
1 82
1 83
1 84
1 85
1 86
1 87
1 88
1 89
1 90
1 91
1 92
1 93
1 94
1 95
1 96
1 97
1 98
1 99
1 100
1 101
1 102
1 103
1 104
1 105
1 106
1 107
1 108
1 109
1 110
1 111
1 112
1 113
1 114
1 115
1 116
1 117
1 118
1 119
1 120
1 121
1 122
1 123
1 124
1 125
1 126
1 127
1 128
1 129
1 130
1 131
1 132
1 133
1 134
1 135
1 136
1 137
1 138
1 139
1 140
1 141
1 142
1 143
1 144
1 145
1 146
1 147
1 148
1 149
1 150
1 151
1 152
1 153
1 154
1 155
1 156
1 157
1 158
1 159
1 160
1 161
1 162
1 163
1 164
1 165
1 166
1 167
1 168
1 169
1 170
1 171
1 172
1 173
1 174
1 175
1 176
1 177
1 178
1 179
1 180
1 181
1 182
1 183
1 184
1 185
1 186
1 187
1 188
1 189
1 190
1 191
1 192
1 193
1 194
1 195
1 196
1 197
1 198
1 199
1 200
1 201
1 202
1 203
1 204
1 205
1 206
1 207
1 208
1 209
1 210
1 211
1 212
1 213
1 214
1 215
1 216
1 217
1 218
1 219
1 220

POINT_DATA 221
SCALARS id int 1
LOOKUP_TABLE default
1
2
3
4
5
6
7
8
9
10
11
12
13
14
15
16
17
18
19
20
21
22
24
25
26
27
29
30
31
32
33
34
35
36
37
38
39
40
41
42
43
44
45
46
47
48
49
50
52
53
54
55
56
57
58
59
60
61
62
63
64
65
66
67
68
69
70
71
72
73
74
75
76
77
78
79
80
81
82
83
84
85
86
87
88
89
90
91
92
93
94
95
96
98
99
100
101
102
103
104
105
106
107
108
109
110
111
112
113
114
115
116
117
118
119
120
121
122
123
124
125
126
127
128
129
130
131
132
133
134
135
136
137
138
139
140
141
142
144
145
146
147
148
149
150
151
152
153
154
155
156
157
158
159
160
161
162
163
164
165
166
167
168
169
170
171
172
173
174
175
176
177
178
179
180
181
182
183
184
185
186
187
188
189
190
191
192
193
194
195
196
197
198
199
200
201
202
203
204
205
206
207
208
209
210
211
212
213
214
215
216
217
218
219
220
221
222
223
224
225
226

SCALARS type int 1
LOOKUP_TABLE default
1
1
1
1
1
1
1
1
1
1
1
1
1
1
1
1
1
1
1
1
1
1
1
1
1
1
1
1
1
1
1
1
1
1
1
1
1
1
1
1
1
1
1
1
1
1
1
1
1
1
1
1
1
1
1
1
1
1
1
1
1
1
1
1
1
1
1
1
1
1
1
1
1
1
1
1
1
1
1
1
1
1
1
1
1
1
1
1
1
1
1
1
1
1
1
1
1
1
1
1
1
1
1
1
1
1
1
1
1
1
1
1
1
1
1
1
1
1
1
1
1
1
1
1
1
1
1
1
1
1
1
1
1
1
1
1
1
1
1
1
1
1
1
1
1
1
1
1
1
1
1
1
1
1
1
1
1
1
1
1
1
1
1
1
1
1
1
1
1
1
1
1
1
1
1
1
1
1
1
1
1
1
1
1
1
1
1
1
1
1
1
1
1
1
1
1
1
1
1
1
1
1
1
1
1
1
1
1
1
1
1
1
1
1
1
1
1
1
1
1
1

SCALARS radius float 1
LOOKUP_TABLE default
5e-05
5e-05
5e-05
5e-05
5e-05
5e-05
5e-05
5e-05
5e-05
5e-05
5e-05
5e-05
5e-05
5e-05
5e-05
5e-05
5e-05
5e-05
5e-05
5e-05
5e-05
5e-05
5e-05
5e-05
5e-05
5e-05
5e-05
5e-05
5e-05
5e-05
5e-05
5e-05
5e-05
5e-05
5e-05
5e-05
5e-05
5e-05
5e-05
5e-05
5e-05
5e-05
5e-05
5e-05
5e-05
5e-05
5e-05
5e-05
5e-05
5e-05
5e-05
5e-05
5e-05
5e-05
5e-05
5e-05
5e-05
5e-05
5e-05
5e-05
5e-05
5e-05
5e-05
5e-05
5e-05
5e-05
5e-05
5e-05
5e-05
5e-05
5e-05
5e-05
5e-05
5e-05
5e-05
5e-05
5e-05
5e-05
5e-05
5e-05
5e-05
5e-05
5e-05
5e-05
5e-05
5e-05
5e-05
5e-05
5e-05
5e-05
5e-05
5e-05
5e-05
5e-05
5e-05
5e-05
5e-05
5e-05
5e-05
5e-05
5e-05
5e-05
5e-05
5e-05
5e-05
5e-05
5e-05
5e-05
5e-05
5e-05
5e-05
5e-05
5e-05
5e-05
5e-05
5e-05
5e-05
5e-05
5e-05
5e-05
5e-05
5e-05
5e-05
5e-05
5e-05
5e-05
5e-05
5e-05
5e-05
5e-05
5e-05
5e-05
5e-05
5e-05
5e-05
5e-05
5e-05
5e-05
5e-05
5e-05
5e-05
5e-05
5e-05
5e-05
5e-05
5e-05
5e-05
5e-05
5e-05
5e-05
5e-05
5e-05
5e-05
5e-05
5e-05
5e-05
5e-05
5e-05
5e-05
5e-05
5e-05
5e-05
5e-05
5e-05
5e-05
5e-05
5e-05
5e-05
5e-05
5e-05
5e-05
5e-05
5e-05
5e-05
5e-05
5e-05
5e-05
5e-05
5e-05
5e-05
5e-05
5e-05
5e-05
5e-05
5e-05
5e-05
5e-05
5e-05
5e-05
5e-05
5e-05
5e-05
5e-05
5e-05
5e-05
5e-05
5e-05
5e-05
5e-05
5e-05
5e-05
5e-05
5e-05
5e-05
5e-05
5e-05
5e-05
5e-05
5e-05
5e-05
5e-05
5e-05
5e-05
5e-05
5e-05
5e-05
5e-05
5e-05
5e-05
5e-05
5e-05

SCALARS mass float 1
LOOKUP_TABLE default
1.46608e-10
1.46608e-10
1.46608e-10
1.46608e-10
1.46608e-10
1.46608e-10
1.46608e-10
1.46608e-10
1.46608e-10
1.46608e-10
1.46608e-10
1.46608e-10
1.46608e-10
1.46608e-10
1.46608e-10
1.46608e-10
1.46608e-10
1.46608e-10
1.46608e-10
1.46608e-10
1.46608e-10
1.46608e-10
1.46608e-10
1.46608e-10
1.46608e-10
1.46608e-10
1.46608e-10
1.46608e-10
1.46608e-10
1.46608e-10
1.46608e-10
1.46608e-10
1.46608e-10
1.46608e-10
1.46608e-10
1.46608e-10
1.46608e-10
1.46608e-10
1.46608e-10
1.46608e-10
1.46608e-10
1.46608e-10
1.46608e-10
1.46608e-10
1.46608e-10
1.46608e-10
1.46608e-10
1.46608e-10
1.46608e-10
1.46608e-10
1.46608e-10
1.46608e-10
1.46608e-10
1.46608e-10
1.46608e-10
1.46608e-10
1.46608e-10
1.46608e-10
1.46608e-10
1.46608e-10
1.46608e-10
1.46608e-10
1.46608e-10
1.46608e-10
1.46608e-10
1.46608e-10
1.46608e-10
1.46608e-10
1.46608e-10
1.46608e-10
1.46608e-10
1.46608e-10
1.46608e-10
1.46608e-10
1.46608e-10
1.46608e-10
1.46608e-10
1.46608e-10
1.46608e-10
1.46608e-10
1.46608e-10
1.46608e-10
1.46608e-10
1.46608e-10
1.46608e-10
1.46608e-10
1.46608e-10
1.46608e-10
1.46608e-10
1.46608e-10
1.46608e-10
1.46608e-10
1.46608e-10
1.46608e-10
1.46608e-10
1.46608e-10
1.46608e-10
1.46608e-10
1.46608e-10
1.46608e-10
1.46608e-10
1.46608e-10
1.46608e-10
1.46608e-10
1.46608e-10
1.46608e-10
1.46608e-10
1.46608e-10
1.46608e-10
1.46608e-10
1.46608e-10
1.46608e-10
1.46608e-10
1.46608e-10
1.46608e-10
1.46608e-10
1.46608e-10
1.46608e-10
1.46608e-10
1.46608e-10
1.46608e-10
1.46608e-10
1.46608e-10
1.46608e-10
1.46608e-10
1.46608e-10
1.46608e-10
1.46608e-10
1.46608e-10
1.46608e-10
1.46608e-10
1.46608e-10
1.46608e-10
1.46608e-10
1.46608e-10
1.46608e-10
1.46608e-10
1.46608e-10
1.46608e-10
1.46608e-10
1.46608e-10
1.46608e-10
1.46608e-10
1.46608e-10
1.46608e-10
1.46608e-10
1.46608e-10
1.46608e-10
1.46608e-10
1.46608e-10
1.46608e-10
1.46608e-10
1.46608e-10
1.46608e-10
1.46608e-10
1.46608e-10
1.46608e-10
1.46608e-10
1.46608e-10
1.46608e-10
1.46608e-10
1.46608e-10
1.46608e-10
1.46608e-10
1.46608e-10
1.46608e-10
1.46608e-10
1.46608e-10
1.46608e-10
1.46608e-10
1.46608e-10
1.46608e-10
1.46608e-10
1.46608e-10
1.46608e-10
1.46608e-10
1.46608e-10
1.46608e-10
1.46608e-10
1.46608e-10
1.46608e-10
1.46608e-10
1.46608e-10
1.46608e-10
1.46608e-10
1.46608e-10
1.46608e-10
1.46608e-10
1.46608e-10
1.46608e-10
1.46608e-10
1.46608e-10
1.46608e-10
1.46608e-10
1.46608e-10
1.46608e-10
1.46608e-10
1.46608e-10
1.46608e-10
1.46608e-10
1.46608e-10
1.46608e-10
1.46608e-10
1.46608e-10
1.46608e-10
1.46608e-10
1.46608e-10
1.46608e-10
1.46608e-10
1.46608e-10
1.46608e-10
1.46608e-10
1.46608e-10
1.46608e-10
1.46608e-10
1.46608e-10
1.46608e-10
1.46608e-10
1.46608e-10
1.46608e-10
1.46608e-10

VECTORS velocity float
0.0042615 -0.00200095 0.000816516
0.00417414 -0.00227149 0.000517024
0.00368472 -0.00253196 0.000542898
0.00450451 -0.00146978 0.000368267
0.00432911 -0.00237416 0.000846634
0.00432077 -0.000399803 0.000258405
0.00431787 -0.00241103 0.000543148
0.0043298 -0.00230851 0.000956325
0.00445442 -0.00161738 0.000163374
0.00438366 -0.00232138 0.00053186
0.00386874 -0.00221605 0.000499176
0.00468625 -0.000520381 -4.72523e-05
0.0043406 -0.00238858 0.000540031
0.00356511 -0.00424239 -0.000988702
0.00408687 -0.00230081 0.000518215
0.0034783 -0.00416497 -0.000969442
0.00437548 -0.00233827 0.000534919
0.00466054 -0.000522235 -4.71328e-05
0.00439324 -0.00227063 0.000939473
0.00368664 -0.00243324 0.000525836
0.00431296 -0.00246325 0.00062003
0.00410537 -0.00230764 0.000526909
0.00467443 -0.000517488 -4.95387e-05
0.0042806 -0.00242148 0.000545082
0.00423736 -0.000445333 9.40424e-05
-1.91999e-15 2.50477e-15 -2.62516e-14
0.00423948 -0.00248406 0.000548679
0.00429859 -0.000391791 0.00025556
0.00436972 -0.0023406 0.000535739
0.0040996 -0.00228426 0.000515248
0.00435709 -0.000407927 0.000262885
0.00429086 -0.00239457 0.000540307
0.0042697 -0.00240241 0.000541097
0.00446246 -0.0016335 0.000166124
0.00431392 -0.00238738 0.000540003
0.00432744 -0.00236492 0.000537135
0.00450003 -0.000482516 9.72909e-05
0.0043399 -0.00239769 0.000544279
0.00431092 -0.0024769 0.000554408
0.00396948 -0.00231566 0.000510457
0.00385521 -0.00236769 0.000523133
0.00373835 -0.00237982 0.000519328
0.00437064 -0.000414383 0.000264606
0.00431337 -0.00044785 9.30398e-05
0.0043501 -0.00242219 0.000551887
0.00352051 -0.00225698 0.00049168
0.00427786 -0.0004587 0.000102878
1.83834e-05 1.12865e-07 2.59824e-08
-1.92009e-15 2.50468e-15 -2.62516e-14
0.00466193 -0.000509082 0.000104709
0.00446501 -0.00215993 0.000511583
0.00364686 -0.00450212 -0.00104159
0.00422151 -0.00232949 0.000527771
0.00436978 -0.000450243 0.000196828
-7.58074e-16 2.58188e-14 -2.11472e-13
0.00468099 -0.000520243 -4.79852e-05
0.004245 -0.00232929 0.000529244
0.00430065 -0.00245152 0.000531919
0.00367785 -0.00222812 0.000492146
0.00231837 -0.000814179 0.000213438
0.00465005 -0.000526361 -5.09668e-05
0.00430012 -0.00230706 0.000971921
-1.92003e-15 2.50476e-15 -2.62516e-14
0.00372203 -0.00251696 0.000541621
-7.5816e-16 2.58188e-14 -2.11472e-13
0.0041066 -0.00226517 0.000516925
0.00446901 -0.00164117 0.000167348
3.60542e-15 -1.19881e-14 6.44398e-14
0.00469036 -0.000521976 -4.79418e-05
0.00436125 -0.00237774 0.00054099
0.00417904 -0.00229081 0.000519894
0.00436119 -0.0023751 0.000540506
0.00437723 -0.000417494 0.000269514
5.15457e-15 -3.20384e-14 -1.87495e-13
3.60523e-15 -1.19882e-14 6.44398e-14
3.31483e-16 -1.12794e-14 9.2385e-14
-4.92286e-06 -1.15875e-05 2.93541e-06
-7.57985e-16 2.58188e-14 -2.11472e-13
-1.92194e-15 2.50318e-15 -2.62517e-14
3.31926e-16 -1.12794e-14 9.2385e-14
0.00466608 -0.000504998 0.000101665
3.60517e-15 -1.19882e-14 6.44398e-14
-7.41281e-08 1.69504e-07 -2.30715e-07
0.00471291 -0.000500957 -5.24731e-05
-3.98971e-06 -4.94655e-06 2.94518e-06
1.39839e-05 8.97993e-06 -5.33069e-06
1.47951e-05 2.96779e-06 2.2753e-06
0.0041926 -0.00216445 0.000495527
9.48575e-05 -7.79603e-05 1.48734e-05
4.24157e-15 -2.63637e-14 -1.54285e-13
-3.07166e-06 -3.56602e-06 5.1524e-07
5.15436e-15 -3.20384e-14 -1.87495e-13
-3.15453e-06 -4.18544e-07 4.67725e-07
4.24183e-15 -2.63636e-14 -1.54285e-13
-1.92009e-15 2.50474e-15 -2.62516e-14
0.00422942 -0.00221747 0.000509438
5.56726e-05 3.24187e-05 -0.000123632
0.0042259 -0.00208113 0.000491022
0.00397985 -0.00229095 0.00051327
2.07601e-14 -2.71732e-14 2.77589e-13
-1.29112e-14 4.29331e-14 -2.30778e-13
0.00384128 -0.00281586 -0.00119821
-4.48618e-12 -2.21297e-12 -4.03929e-13
0.00432942 -0.0024385 0.000550065
0.00400735 -0.00230413 0.000516519
1.63428e-05 1.90049e-05 1.40796e-05
4.24222e-15 -2.63636e-14 -1.54285e-13
3.30386e-16 -1.12794e-14 9.2385e-14
1.34845e-05 7.68728e-07 -5.69959e-07
-0.0135678 -0.0472624 -0.0781612
0.00365797 -0.00247881 0.000533399
0.00419188 -0.00233272 0.000527591
0.00412472 -0.00229645 0.000958311
-1.92535e-06 -0.000318998 -0.00157226
0.00428599 -0.000326895 0.000327743
0.00422985 -0.00235069 0.00053226
0.00393764 -0.00231512 0.000973456
1.72842e-06 -4.79146e-06 2.76394e-07
3.60518e-15 -1.19882e-14 6.44398e-14
4.2416e-15 -2.63636e-14 -1.54285e-13
0.00434103 -0.00238439 0.00054177
0.00407324 -0.00221466 0.000501139
-7.58339e-16 2.58188e-14 -2.11472e-13
1.8153e-05 1.58095e-05 3.32754e-06
2.03085e-14 -2.64946e-14 2.77687e-13
0.00412125 -0.00235708 0.000529022
-1.92026e-15 2.50498e-15 -2.62516e-14
0.00395693 -0.00229613 0.00051508
0.00408842 -0.00242009 0.000538171
0.00418314 -0.00215593 0.00049476
0.00455532 -0.00206757 0.0008445
2.23022e-12 1.00162e-12 3.68824e-13
-3.97534e-15 2.47093e-14 1.44604e-13
-2.73569e-05 1.1676e-05 -4.51758e-06
3.23968e-05 -3.84344e-06 7.2971e-06
-4.2246e-07 -6.35452e-07 7.13079e-07
3.60401e-15 -1.19885e-14 6.44398e-14
0.00403363 -0.00234939 0.000514054
1.91354e-06 -2.78269e-06 6.06109e-07
2.19885e-07 -5.2217e-07 6.65872e-07
0.00399906 -0.00225208 0.000507638
-1.29117e-14 4.2933e-14 -2.30778e-13
0.00390164 -0.00250483 -7.88222e-05
-2.9471e-06 -1.77142e-06 8.42021e-07
0.00387656 -0.00235239 0.000998004
0.0 -0.0 -0.03
0.0 -0.0 -0.03
0.00390183 -0.00236139 0.000998916
-0.0285831 -0.0834414 -0.131778
-0.0116943 -0.0678419 -0.102911
-1.91994e-15 2.50482e-15 -2.62516e-14
-0.0024392 0.0737644 -0.145621
-1.92052e-15 2.50431e-15 -2.62516e-14
0.00433968 -0.00228318 0.000948708
0.0 -0.0 -0.03
4.68181e-11 0.0186603 -0.00324861
2.03104e-14 -2.64942e-14 2.77687e-13
-5.8452e-05 -0.00165912 -0.00395526
4.96774e-05 0.0323902 0.00913735
-0.000770211 0.0931571 -0.0784653
0.0 -0.0 -0.03
0.0 -0.0 -0.03
5.70194e-07 -1.90081e-07 1.08557e-07
-0.000203688 0.0100659 0.0335528
2.1962e-05 0.0275639 -0.0188757
0.0140966 0.042245 -0.00683112
-0.00273922 0.067007 -0.0676349
1.22979e-13 1.19858e-13 -1.67785e-13
0.0 0.0 -0.104286
0.0 -0.0 -0.03
-1.92008e-15 2.50467e-15 -2.62516e-14
1.13598e-05 -0.00194029 -0.00349771
1.69355e-05 -0.00193753 -0.00349273
0.0 -0.0 -0.03
2.2852e-06 -3.46185e-07 8.76027e-07
-0.0100668 -0.0857327 -0.136396
0.00424272 -0.00248628 0.000554453
-1.25473e-09 0.0209916 -0.00890355
-0.00156198 -0.0406546 0.0167168
0.00135124 0.014421 0.0671755
-7.57954e-16 2.58188e-14 -2.11472e-13
0.00415069 -0.0014395 0.000139657
-3.97517e-15 2.47093e-14 1.44604e-13
-0.00330841 -0.0713172 -0.153157
-1.87616e-09 0.0213814 -0.00826749
-0.0119165 -0.0468113 0.00361373
-0.00185654 -0.0108781 -0.00449107
-1.14656e-13 -1.69517e-13 -1.24872e-13
0.0 -0.0 -0.03
-0.000451268 0.0622653 -0.0759874
0.00746254 -0.00265497 -0.00513619
0.0 0.0 -0.162597
3.31337e-16 -1.12794e-14 9.2385e-14
-0.0415315 0.0321302 0.0892739
3.2807e-16 -1.12795e-14 9.2385e-14
0.0 -0.0 -0.03
0.00205998 0.00438044 0.0116109
0.0 -0.0 -0.03
-9.93659e-06 -0.000166832 -0.000300756
0.00637925 0.00296882 -0.003588
0.0 0.0 -0.0580125
-8.5056e-05 -0.000473432 0.000786062
-1.69941e-06 0.0157307 -0.0216387
2.16686e-05 0.0283994 -0.0171894
0.00416839 0.10385 -0.14269
4.24152e-15 -2.63637e-14 -1.54285e-13
0.0 -0.0 -0.03
0.0046862 -0.000512933 -4.99172e-05
-5.32484e-16 8.79375e-15 -2.25102e-14
0.000105912 0.0811453 -0.156751
0.0 -0.0 -0.03
-0.000517687 0.0186881 -0.00307472
0.0 -0.0 -0.03
5.15774e-15 -3.20379e-14 -1.87495e-13
-1.20026e-05 -0.000201341 -0.000362964
-0.0106206 -0.0909405 -0.134424
0.00431813 -0.00235409 0.000981225
3.33097e-16 -1.12793e-14 9.2385e-14
3.31178e-16 -1.12794e-14 9.2385e-14
0.0 -0.0 -0.03
0.0 -0.0 -0.03

VECTORS force float
-3.40418e-10 5.55136e-10 -2.59131e-10
-8.12115e-10 -1.05625e-10 -8.0489e-12
-1.01765e-09 5.58508e-10 -1.74945e-10
-4.39614e-10 3.19235e-10 -9.11938e-11
6.22407e-10 6.47484e-10 5.85746e-11
3.72263e-11 6.55426e-11 -4.50221e-11
4.58232e-10 -6.93991e-10 1.43839e-10
2.65884e-10 1.90189e-10 -3.98898e-10
5.62893e-14 6.17469e-14 -1.81007e-14
-1.86602e-10 1.0042e-10 -1.28814e-11
6.64096e-10 3.90099e-10 -2.3514e-11
-2.07523e-11 -4.76335e-11 1.90312e-11
-3.61261e-11 -8.40456e-10 1.2597e-10
4.25759e-13 -1.0152e-12 -2.09249e-13
2.45926e-12 1.53144e-10 -3.05143e-11
5.52351e-13 -1.1435e-12 -2.40354e-13
-7.5024e-11 4.82559e-10 -1.09764e-10
-5.79138e-11 -4.38392e-11 1.05192e-10
2.90229e-11 2.43558e-10 -4.04811e-10
-1.53103e-10 -1.43948e-09 2.35354e-10
2.75075e-10 7.25245e-10 4.30068e-10
-3.69273e-10 -3.72132e-10 4.04711e-11
-1.07619e-10 -5.0269e-11 4.88483e-11
2.60352e-10 9.01279e-11 1.42057e-11
1.97951e-10 -1.29017e-11 -9.65287e-11
3.87741e-25 -2.58494e-26 0.0
1.63635e-10 8.31213e-10 -2.90781e-10
3.05127e-11 5.62895e-11 -6.85879e-11
-7.12452e-11 -2.98919e-10 7.22577e-11
2.1336e-10 2.29193e-10 -2.90737e-12
-1.02673e-11 3.27809e-11 -3.97697e-11
9.24914e-10 -8.81805e-10 1.90369e-10
3.88777e-11 5.53994e-10 -8.90802e-11
-8.31742e-14 1.5133e-13 -2.76308e-14
1.40331e-10 -4.78639e-10 8.38805e-11
6.4923e-10 -2.89054e-10 7.80952e-11
-2.1806e-10 6.11948e-11 -8.70271e-12
-7.70216e-10 -1.00678e-09 8.72275e-11
2.6448e-11 4.15089e-10 -6.6977e-11
-1.39806e-10 -1.43559e-09 1.2548e-10
-6.67388e-10 1.26781e-09 -2.7081e-10
-4.51809e-10 5.76146e-10 -1.17622e-10
9.05156e-12 4.81953e-11 2.34601e-11
3.24061e-11 1.53228e-11 -3.95134e-12
1.94407e-10 5.45602e-10 -1.10493e-10
2.50224e-12 -1.05819e-11 1.33782e-11
-1.59207e-10 1.21967e-10 -4.82739e-11
2.63078e-10 -2.27012e-10 -5.71655e-11
-9.04729e-26 -2.58494e-26 0.0
4.75241e-11 2.18458e-11 3.01132e-13
-5.1082e-10 4.2058e-10 -8.32042e-11
3.95003e-12 1.7672e-11 3.0661e-12
1.52508e-11 2.86988e-10 -6.93664e-11
-2.28087e-11 1.17615e-10 1.10905e-10
3.30388e-25 -2.58494e-26 -2.06795e-25
3.77378e-11 8.23107e-12 -4.09288e-11
-5.14278e-10 5.96087e-10 -1.11595e-10
-3.94988e-10 5.29847e-10 -8.49951e-11
9.31059e-11 6.25917e-10 -1.03888e-10
2.12289e-09 7.77189e-10 -4.08375e-11
-1.56963e-10 5.66299e-11 1.91472e-10
4.07664e-10 -4.80598e-10 2.43521e-10
2.93391e-24 3.61892e-24 0.0
-1.92288e-09 -9.08156e-10 8.5481e-11
-9.09576e-25 -5.16988e-26 -2.06795e-25
1.38855e-10 2.2321e-10 7.53002e-11
-1.95614e-13 1.89182e-13 -3.18197e-14
1.48634e-24 4.65289e-25 0.0
-2.61785e-11 -1.11608e-10 2.64418e-11
1.53931e-10 6.80451e-10 -7.273e-11
1.74486e-11 1.68548e-10 -2.59232e-11
-1.68337e-10 2.11246e-10 -2.78924e-11
-2.09672e-11 6.06893e-11 -2.66089e-11
9.43503e-25 -1.55096e-25 0.0
1.55096e-25 -2.58494e-25 0.0
-3.17463e-25 7.75482e-26 0.0
7.03307e-11 4.77163e-11 -3.61696e-11
-1.68102e-24 -1.80946e-25 0.0
-3.85802e-23 -3.08383e-23 0.0
5.93405e-24 1.03398e-25 0.0
1.62007e-11 -6.20618e-11 1.24268e-11
1.21492e-24 -2.06795e-25 0.0
2.57369e-11 -3.98733e-11 -8.17457e-12
4.64747e-11 -4.13985e-11 5.45227e-12
1.5284e-11 -4.25848e-11 2.63376e-11
1.45465e-10 3.94656e-10 -1.39604e-10
1.9169e-10 5.36948e-11 -4.22293e-11
-4.63284e-10 1.22823e-10 -6.84455e-11
1.28339e-09 6.61453e-10 -3.04912e-12
-3.16655e-25 -1.55096e-25 0.0
9.51009e-11 -7.98894e-11 3.59404e-11
-7.55449e-24 -1.29247e-24 0.0
-1.00357e-11 2.39821e-11 -3.4562e-12
-8.27181e-25 -4.65289e-25 2.06795e-25
1.30539e-24 6.20385e-25 0.0
-1.65957e-11 -2.3612e-10 3.9334e-11
-2.0236e-11 -1.23385e-11 4.65436e-11
-1.17999e-10 -4.19208e-11 6.29969e-12
-1.26878e-11 3.71148e-10 -1.25084e-10
-3.13542e-21 5.86624e-21 7.88924e-22
3.81279e-24 1.65436e-24 2.06795e-25
1.07489e-10 1.69479e-11 -1.28124e-11
-4.82977e-18 3.68397e-18 -6.62091e-18
-4.01951e-10 5.3399e-10 -1.20549e-10
-6.89032e-10 2.50234e-10 -1.10817e-10
3.16026e-11 1.04422e-10 7.27789e-14
-9.53843e-24 -6.72084e-25 0.0
2.91452e-24 -5.16988e-26 0.0
-2.64484e-11 -5.15653e-11 -1.96789e-11
-2.88145e-10 1.02827e-10 -1.23919e-09
-6.867e-11 1.12581e-10 -2.41541e-11
-4.38791e-11 8.85498e-10 -1.34694e-10
4.16868e-11 -1.05705e-09 6.59832e-10
-1.11721e-09 4.88556e-08 -2.45735e-08
-2.61008e-11 3.10138e-11 -2.66639e-12
-1.15968e-10 6.85061e-10 -1.2753e-10
-7.83193e-11 -6.66681e-10 1.93772e-10
-1.45961e-11 2.97432e-12 -2.6833e-12
-8.23303e-24 -2.22305e-24 0.0
-1.43723e-23 -2.06795e-24 0.0
-2.32596e-10 5.03055e-10 -9.99837e-11
-9.03408e-10 5.69024e-10 -1.82439e-10
6.02129e-24 -2.58494e-26 -2.06795e-25
4.57738e-11 2.7411e-10 2.62319e-10
1.31573e-23 2.58494e-24 -6.20385e-25
1.18853e-11 5.5836e-11 -8.60857e-12
1.40621e-23 1.57164e-23 4.1359e-25
-8.56726e-10 3.81464e-10 -6.08445e-11
-4.86335e-10 6.66501e-10 -1.26571e-10
-3.13002e-10 2.52682e-10 -7.63523e-11
-2.59315e-10 4.12747e-10 -1.25875e-10
3.29393e-17 2.10431e-17 1.09657e-18
-2.81758e-24 1.55096e-25 -2.06795e-25
-2.99364e-10 8.828e-10 -1.07479e-10
2.07756e-10 -9.41305e-11 1.47313e-10
-3.62674e-11 -7.38056e-12 -6.2504e-12
1.22785e-24 1.55096e-25 0.0
-1.80442e-10 1.84729e-10 9.51297e-12
-2.78033e-11 2.16274e-11 -6.1897e-12
2.09528e-11 -3.71202e-11 6.03927e-12
-6.92513e-10 5.79056e-10 -1.18141e-10
-4.00666e-25 -5.16988e-26 0.0
-1.58699e-10 9.44432e-11 1.54613e-10
-2.38526e-11 -9.74428e-12 8.61424e-12
-2.15965e-10 -3.86196e-10 2.03405e-10
0.0 0.0 0.0
0.0 0.0 0.0
-1.48073e-10 -5.16618e-10 2.53429e-10
-1.143e-10 -3.23495e-10 -5.09843e-10
0.0 0.0 -1.43822e-09
-8.01331e-25 -1.31832e-24 0.0
0.0 0.0 -1.43822e-09
6.19093e-24 5.86781e-24 2.06795e-25
1.62732e-10 2.05235e-10 -9.19383e-11
0.0 0.0 0.0
8.30162e-21 -2.25924e-12 -1.29648e-11
-6.46235e-26 -7.75482e-26 0.0
2.36102e-10 -8.65315e-09 1.11852e-08
0.0 0.0 -1.43822e-09
0.0 0.0 -1.43822e-09
0.0 0.0 0.0
0.0 0.0 0.0
-1.26487e-11 1.88483e-11 5.7932e-12
1.1346e-08 -3.04625e-06 5.61644e-06
2.52795e-13 1.39441e-10 -1.29124e-10
-2.60136e-10 -4.25845e-10 6.58941e-11
0.0 0.0 -1.43822e-09
9.32146e-19 1.13511e-18 -1.68334e-19
0.0 0.0 -1.43822e-09
0.0 0.0 0.0
1.29247e-26 4.3944e-25 2.06795e-25
-5.97863e-14 9.59138e-12 1.72901e-11
-1.51e-12 9.53954e-12 1.69239e-11
0.0 0.0 0.0
-5.67797e-11 -2.22017e-11 -1.18199e-11
0.0 0.0 -1.43822e-09
1.59127e-10 3.28753e-10 -5.0716e-11
2.449e-19 -6.2048e-12 -1.46146e-11
0.0 0.0 -1.43822e-09
0.0 0.0 -1.43822e-09
-2.28282e-24 -2.58494e-26 0.0
4.26276e-13 -1.33409e-12 1.96433e-13
1.69314e-24 3.10193e-25 0.0
0.0 0.0 -1.43822e-09
-5.4776e-19 -5.75878e-12 -1.48883e-11
0.0 0.0 -1.43822e-09
2.02207e-11 1.12996e-10 4.67143e-11
-9.28658e-19 -1.13085e-18 1.67703e-19
0.0 0.0 0.0
0.0 0.0 -1.43822e-09
1.91713e-12 -1.53749e-11 2.40625e-11
0.0 0.0 -1.43822e-09
3.63507e-25 7.75482e-26 0.0
3.53775e-06 -1.57952e-06 -2.99373e-06
-5.09879e-24 -3.61892e-25 0.0
0.0 0.0 0.0
5.96489e-07 3.84303e-06 4.60101e-06
0.0 0.0 0.0
4.77522e-13 1.52554e-11 2.75076e-11
-7.48013e-12 2.79918e-12 1.68343e-11
0.0 0.0 -1.43822e-09
-2.32119e-12 -1.36078e-11 2.25923e-11
0.0 0.0 -1.43822e-09
2.51424e-13 1.39476e-10 -1.28794e-10
0.0 0.0 -1.43822e-09
-9.04729e-26 -1.03398e-25 0.0
0.0 0.0 0.0
-8.40771e-11 -2.03917e-11 -1.09153e-11
-2.15196e-24 -1.13737e-24 -4.1359e-25
0.0 0.0 -1.43822e-09
0.0 0.0 0.0
-2.91792e-11 -4.70745e-10 7.5981e-11
0.0 0.0 0.0
5.54211e-23 8.84049e-24 2.06795e-25
2.55056e-13 1.51475e-11 2.73176e-11
-5.05278e-11 -4.38369e-10 -6.47863e-10
2.07535e-10 -1.07561e-10 1.32033e-10
2.14833e-23 4.3944e-25 0.0
0.0 -2.58494e-26 0.0
0.0 0.0 0.0
0.0 0.0 0.0
