# vtk DataFile Version 3.0
LIGGGHTS particles timestep 57000000
ASCII
DATASET POLYDATA
POINTS 283 float
0.273996 0.0163422 0.00798381
0.274312 0.0174615 0.00731523
0.274388 0.01801 0.00712822
0.274367 0.0179136 0.00714586
0.273694 0.0154747 0.00902594
0.280055 0.0164781 0.00761848
0.273993 0.0160311 0.00831042
0.273672 0.015416 0.00910386
0.280289 0.0175399 0.00713578
0.274684 0.018114 0.00712101
0.274172 0.0166333 0.0076661
0.280249 0.0173561 0.00720405
0.274673 0.0176646 0.00720712
0.267762 0.0155915 0.00872936
0.274694 0.0177607 0.00718954
0.267977 0.0161929 0.0079065
0.280409 0.0180909 0.00693129
0.274302 0.0176255 0.00719855
0.274375 0.0171172 0.00729968
0.273717 0.0155331 0.00894817
0.274432 0.018204 0.00709275
0.28021 0.0171723 0.00727229
0.274534 0.0174412 0.00724414
0.280151 0.0169007 0.00738552
0.26799 0.0158826 0.00808962
0.274261 0.0174329 0.00723392
0.280037 0.0164142 0.00769327
0.274513 0.0181469 0.00710725
0.27463 0.0174725 0.00724225
0.280073 0.016542 0.00754369
0.274353 0.0176544 0.00727934
0.274716 0.0178568 0.00717195
0.280348 0.0178157 0.00703339
0.274011 0.0160984 0.00823858
0.274577 0.0176334 0.00720896
0.273802 0.0157647 0.00864146
0.274324 0.0172812 0.00726585
0.274464 0.0170543 0.00731567
0.274492 0.0180508 0.00712486
0.274364 0.017474 0.00723043
0.280093 0.0166306 0.00750175
0.280171 0.0169908 0.00734679
0.273759 0.0156511 0.0087922
0.274348 0.0170225 0.00731674
0.280135 0.01681 0.00742454
0.27448 0.017602 0.00721084
0.26858 0.0188651 0.00686851
0.268551 0.0178676 0.00698875
0.274663 0.0180179 0.0071386
0.280112 0.0167207 0.007463
0.268171 0.0166437 0.00764255
0.28023 0.0172642 0.00723816
0.274481 0.0177675 0.00726199
0.273737 0.0155923 0.00887011
0.274252 0.0165895 0.00770653
0.274427 0.0177626 0.00717759
0.28019 0.017081 0.0073083
0.274056 0.0162313 0.00809601
0.268731 0.0182863 0.00693743
0.274737 0.0179529 0.00715434
0.268227 0.0164987 0.007725
0.274323 0.0168585 0.00741929
0.280463 0.0179382 0.00699071
0.26821 0.0168128 0.00754316
0.280269 0.017448 0.00716991
0.273805 0.0157017 0.00871908
0.274109 0.0167447 0.00755358
0.274234 0.0172046 0.0073622
0.280388 0.0179992 0.00696529
0.274476 0.0183971 0.00705743
0.267824 0.0156958 0.00845535
0.268011 0.0159671 0.00804026
0.274343 0.0173776 0.00724813
0.268773 0.0184815 0.00691454
0.268286 0.0167523 0.00757587
0.267842 0.0157098 0.00835792
0.280328 0.0177238 0.00706752
0.268151 0.016559 0.00769231
0.274471 0.0179547 0.00714244
0.280308 0.0176318 0.00710165
0.274269 0.0166568 0.00763466
0.274459 0.0175058 0.00722842
0.274189 0.0167007 0.00759423
0.274076 0.0162982 0.00802445
0.274416 0.0168869 0.00739564
0.274419 0.0173131 0.00726381
0.274243 0.0169031 0.00737953
0.274545 0.0178903 0.0071581
0.274473 0.0171522 0.00729719
0.274304 0.017187 0.00729288
0.268344 0.0170059 0.00742672
0.274459 0.0176714 0.00727956
0.268646 0.0178985 0.00698612
0.274502 0.017698 0.00719327
0.274588 0.0172801 0.00727753
0.268266 0.0166678 0.00762562
0.268571 0.0179646 0.00697482
0.274117 0.0164318 0.00788138
0.267783 0.0156237 0.00863699
0.274598 0.0177294 0.00719139
0.274345 0.0178176 0.00716343
0.274454 0.0183007 0.00707507
0.27391 0.0160769 0.0082704
0.268031 0.0160516 0.00799079
0.274609 0.0181786 0.00710532
0.26819 0.0167282 0.00759283
0.274281 0.0175292 0.00721623
0.274332 0.0175583 0.00729735
0.274153 0.0165661 0.00773786
0.268753 0.0183839 0.00692599
0.280019 0.0163503 0.00776806
0.274493 0.0172485 0.0072795
0.274385 0.0167456 0.00753341
0.274147 0.0168859 0.00741744
0.268692 0.0186264 0.0069677
0.274603 0.0180442 0.00721412
0.274641 0.0179216 0.00715622
0.274234 0.0165223 0.00777829
0.267878 0.015791 0.00817873
0.274705 0.01821 0.00710343
0.267969 0.0157981 0.00813897
0.273902 0.0160105 0.0083447
0.268641 0.0187082 0.00688727
0.274203 0.0171435 0.00728749
0.274334 0.0169278 0.00734583
0.274438 0.0174095 0.00724609
0.274207 0.0167679 0.00752245
0.268518 0.0185697 0.00690316
0.274056 0.0165428 0.00776911
0.274259 0.0170032 0.00735834
0.274289 0.0167238 0.00756299
0.274631 0.0182747 0.00708773
0.268667 0.0179954 0.00697228
0.273823 0.0158236 0.0085635
0.274513 0.0173449 0.0072618
0.274399 0.0172168 0.00728151
0.274092 0.0166774 0.00762545
0.267808 0.0156569 0.00854596
0.274374 0.017752 0.00726159
0.274403 0.0168129 0.00746156
0.274097 0.0163648 0.00795301
0.268403 0.0172596 0.00727758
0.274758 0.018049 0.00713675
0.267936 0.0160239 0.00800523
0.268052 0.0161362 0.00794105
0.26865 0.0185319 0.00699291
0.274449 0.0178586 0.00716002
0.268688 0.0180924 0.00696017
0.274427 0.016963 0.00733162
0.268465 0.0176 0.00707933
0.274227 0.0168349 0.00745089
0.26871 0.0181893 0.00694881
0.274184 0.017047 0.00730492
0.268541 0.0186703 0.00689136
0.274307 0.016791 0.00749124
0.268132 0.0164744 0.00774227
0.274555 0.0175373 0.00722654
0.268473 0.0182313 0.00702416
0.268115 0.0167855 0.00756025
0.274502 0.0178636 0.0072444
0.268475 0.0183745 0.00692605
0.274406 0.0176666 0.00719515
0.268462 0.0175131 0.00712867
0.268344 0.0177881 0.00699626
0.267957 0.0161084 0.00795587
0.268621 0.0186109 0.00689869
0.268423 0.017344 0.00722797
0.268305 0.0168369 0.00752615
0.274556 0.0183391 0.00707208
0.268698 0.0185471 0.00690651
0.274428 0.0180669 0.00720045
0.268657 0.0183527 0.00692931
0.274524 0.0177941 0.0071757
0.268229 0.0168973 0.00749339
0.268307 0.0172355 0.00729452
0.280368 0.0179075 0.00699934
0.274017 0.0164089 0.00791234
0.273976 0.0162754 0.00805534
0.268017 0.0163622 0.00780761
0.274222 0.01724 0.00726939
0.268364 0.0174917 0.0071439
0.274577 0.0177989 0.00726014
0.273866 0.0159455 0.00841201
0.268431 0.0181789 0.00694897
0.268364 0.0170905 0.00737701
0.274136 0.0164987 0.00780977
0.268561 0.0187676 0.00687995
0.268495 0.0183288 0.00701272
0.267895 0.015855 0.0081039
0.268348 0.0174061 0.00719414
0.268532 0.0180741 0.00704257
0.274651 0.0175686 0.00722468
0.268409 0.0180798 0.0069606
0.268096 0.0167008 0.00760975
0.268445 0.0174281 0.00717839
0.268247 0.0165832 0.00767531
0.268788 0.0185902 0.00690176
0.267916 0.015941 0.00805725
0.274396 0.0178483 0.00724399
0.274037 0.016476 0.00784083
0.280452 0.0182802 0.00690064
0.274127 0.0168133 0.00748312
0.268112 0.0163899 0.00779182
0.274073 0.0166103 0.00769727
0.274033 0.0161649 0.00816727
0.273931 0.0161425 0.00819787
0.27478 0.0181451 0.00711917
0.267997 0.0162775 0.00785707
0.27462 0.0178255 0.00717381
0.268072 0.0162208 0.00789126
0.267858 0.0157498 0.00826778
0.28043 0.0181826 0.00689729
0.268364 0.0176655 0.0070451
0.26853 0.0177714 0.00700615
0.268249 0.0169819 0.00744367
0.26847 0.0179255 0.00697911
0.268452 0.0181334 0.00703552
0.268057 0.0165314 0.00770873
0.268383 0.017175 0.00732729
0.274281 0.0170963 0.00732831
0.274384 0.0175705 0.00721273
0.268232 0.0172934 0.00726325
0.268173 0.0170395 0.00741181
0.26831 0.0176539 0.00712878
0.268268 0.0170664 0.00739396
0.262168 0.0170189 0.00742196
0.268154 0.0169548 0.00746128
0.268288 0.017151 0.00734424
0.26215 0.0169496 0.00749169
0.262187 0.0170881 0.00735223
0.268134 0.0168701 0.00751077
0.262224 0.0172266 0.00721278
0.274609 0.0173764 0.00725987
0.274242 0.0173365 0.00725164
0.268076 0.0166161 0.00765925
0.273852 0.0158803 0.0084865
0.215741 0.019982 0.00563384
0.262205 0.0171574 0.00728249
0.268598 0.0185092 0.00691061
0.268506 0.0176777 0.00703146
0.268092 0.0163054 0.00784151
0.268511 0.0181199 0.00695625
0.268332 0.0177495 0.0070894
0.268448 0.0178288 0.00699131
0.268576 0.0184109 0.00692213
0.274567 0.0179864 0.00714051
0.268212 0.0172088 0.00731284
0.268387 0.0179821 0.00697205
0.262262 0.0174087 0.00715379
0.268367 0.0175781 0.00709363
0.268037 0.0164468 0.00775817
0.273953 0.0162105 0.00812807
0.268678 0.0184498 0.00691792
0.268496 0.0184714 0.00691468
0.268847 0.0184155 0.00692262
0.268592 0.0180617 0.00696343
0.268291 0.0175598 0.00715665
0.268453 0.0182768 0.0069375
0.26849 0.0180227 0.00696764
0.268554 0.0181712 0.00703124
0.268554 0.0183139 0.0069335
0.268271 0.0174621 0.00716402
0.274297 0.017352 0.00733312
0.404182 0.0211142 0.0056569
0.2623 0.0176042 0.00713656
0.268735 0.0186746 0.0068916
0.26228 0.0175066 0.00714518
0.262243 0.0173108 0.00716241
0.268327 0.0173201 0.00724478
0.268193 0.0171242 0.00736234
0.268533 0.0182169 0.00694487
0.274588 0.0180825 0.00712291
0.268427 0.017732 0.00700477
0.268614 0.0181588 0.00695206
0.268365 0.0178851 0.00698342
0.268517 0.0184265 0.00700162
0.274534 0.018243 0.00708966
0.268252 0.017381 0.00721933
0.268325 0.0169214 0.00747645
0.274167 0.0169641 0.00735819
0.274323 0.0177216 0.00718099
0.268635 0.0182557 0.00694069
0.27441 0.0181067 0.00711054

VERTICES 283 566
1 0
1 1
1 2
1 3
1 4
1 5
1 6
1 7
1 8
1 9
1 10
1 11
1 12
1 13
1 14
1 15
1 16
1 17
1 18
1 19
1 20
1 21
1 22
1 23
1 24
1 25
1 26
1 27
1 28
1 29
1 30
1 31
1 32
1 33
1 34
1 35
1 36
1 37
1 38
1 39
1 40
1 41
1 42
1 43
1 44
1 45
1 46
1 47
1 48
1 49
1 50
1 51
1 52
1 53
1 54
1 55
1 56
1 57
1 58
1 59
1 60
1 61
1 62
1 63
1 64
1 65
1 66
1 67
1 68
1 69
1 70
1 71
1 72
1 73
1 74
1 75
1 76
1 77
1 78
1 79
1 80
1 81
1 82
1 83
1 84
1 85
1 86
1 87
1 88
1 89
1 90
1 91
1 92
1 93
1 94
1 95
1 96
1 97
1 98
1 99
1 100
1 101
1 102
1 103
1 104
1 105
1 106
1 107
1 108
1 109
1 110
1 111
1 112
1 113
1 114
1 115
1 116
1 117
1 118
1 119
1 120
1 121
1 122
1 123
1 124
1 125
1 126
1 127
1 128
1 129
1 130
1 131
1 132
1 133
1 134
1 135
1 136
1 137
1 138
1 139
1 140
1 141
1 142
1 143
1 144
1 145
1 146
1 147
1 148
1 149
1 150
1 151
1 152
1 153
1 154
1 155
1 156
1 157
1 158
1 159
1 160
1 161
1 162
1 163
1 164
1 165
1 166
1 167
1 168
1 169
1 170
1 171
1 172
1 173
1 174
1 175
1 176
1 177
1 178
1 179
1 180
1 181
1 182
1 183
1 184
1 185
1 186
1 187
1 188
1 189
1 190
1 191
1 192
1 193
1 194
1 195
1 196
1 197
1 198
1 199
1 200
1 201
1 202
1 203
1 204
1 205
1 206
1 207
1 208
1 209
1 210
1 211
1 212
1 213
1 214
1 215
1 216
1 217
1 218
1 219
1 220
1 221
1 222
1 223
1 224
1 225
1 226
1 227
1 228
1 229
1 230
1 231
1 232
1 233
1 234
1 235
1 236
1 237
1 238
1 239
1 240
1 241
1 242
1 243
1 244
1 245
1 246
1 247
1 248
1 249
1 250
1 251
1 252
1 253
1 254
1 255
1 256
1 257
1 258
1 259
1 260
1 261
1 262
1 263
1 264
1 265
1 266
1 267
1 268
1 269
1 270
1 271
1 272
1 273
1 274
1 275
1 276
1 277
1 278
1 279
1 280
1 281
1 282

POINT_DATA 283
SCALARS id int 1
LOOKUP_TABLE default
1
2
3
4
5
6
7
8
9
10
11
12
13
14
15
16
18
19
20
21
22
24
25
26
27
29
30
31
32
33
34
35
36
37
38
40
41
42
43
44
45
46
47
48
49
50
52
55
56
57
58
59
60
61
62
63
64
65
66
67
68
69
70
71
72
73
74
75
76
77
78
79
80
81
82
83
84
85
86
87
88
89
90
91
92
93
94
95
96
98
99
100
101
102
103
104
105
106
107
108
109
110
111
112
113
114
115
116
117
118
119
120
121
122
123
124
125
126
127
128
129
130
131
132
133
134
135
136
137
138
139
140
141
142
144
145
146
147
148
149
150
152
153
154
155
156
157
158
159
160
161
162
164
165
166
167
168
169
170
171
172
173
174
175
176
177
178
179
180
181
182
183
184
185
186
187
188
189
190
191
192
193
194
195
196
197
198
199
200
201
202
203
204
205
206
207
208
209
210
211
213
214
215
217
218
219
220
221
222
223
224
225
226
227
228
229
230
231
232
233
234
235
236
237
238
239
241
242
243
244
245
246
247
248
249
250
251
252
253
254
255
256
257
258
259
260
261
262
263
264
265
267
268
269
270
271
272
273
274
275
276
277
278
279
280
281
282
283
284
285
286
287
288
289
290
292
293
294
295
296
297
298
300

SCALARS type int 1
LOOKUP_TABLE default
1
1
1
1
1
1
1
1
1
1
1
1
1
1
1
1
1
1
1
1
1
1
1
1
1
1
1
1
1
1
1
1
1
1
1
1
1
1
1
1
1
1
1
1
1
1
1
1
1
1
1
1
1
1
1
1
1
1
1
1
1
1
1
1
1
1
1
1
1
1
1
1
1
1
1
1
1
1
1
1
1
1
1
1
1
1
1
1
1
1
1
1
1
1
1
1
1
1
1
1
1
1
1
1
1
1
1
1
1
1
1
1
1
1
1
1
1
1
1
1
1
1
1
1
1
1
1
1
1
1
1
1
1
1
1
1
1
1
1
1
1
1
1
1
1
1
1
1
1
1
1
1
1
1
1
1
1
1
1
1
1
1
1
1
1
1
1
1
1
1
1
1
1
1
1
1
1
1
1
1
1
1
1
1
1
1
1
1
1
1
1
1
1
1
1
1
1
1
1
1
1
1
1
1
1
1
1
1
1
1
1
1
1
1
1
1
1
1
1
1
1
1
1
1
1
1
1
1
1
1
1
1
1
1
1
1
1
1
1
1
1
1
1
1
1
1
1
1
1
1
1
1
1
1
1
1
1
1
1
1
1
1
1
1
1
1
1
1
1
1
1
1
1
1
1
1
1
1
1
1
1
1
1

SCALARS radius float 1
LOOKUP_TABLE default
5e-05
5e-05
5e-05
5e-05
5e-05
5e-05
5e-05
5e-05
5e-05
5e-05
5e-05
5e-05
5e-05
5e-05
5e-05
5e-05
5e-05
5e-05
5e-05
5e-05
5e-05
5e-05
5e-05
5e-05
5e-05
5e-05
5e-05
5e-05
5e-05
5e-05
5e-05
5e-05
5e-05
5e-05
5e-05
5e-05
5e-05
5e-05
5e-05
5e-05
5e-05
5e-05
5e-05
5e-05
5e-05
5e-05
5e-05
5e-05
5e-05
5e-05
5e-05
5e-05
5e-05
5e-05
5e-05
5e-05
5e-05
5e-05
5e-05
5e-05
5e-05
5e-05
5e-05
5e-05
5e-05
5e-05
5e-05
5e-05
5e-05
5e-05
5e-05
5e-05
5e-05
5e-05
5e-05
5e-05
5e-05
5e-05
5e-05
5e-05
5e-05
5e-05
5e-05
5e-05
5e-05
5e-05
5e-05
5e-05
5e-05
5e-05
5e-05
5e-05
5e-05
5e-05
5e-05
5e-05
5e-05
5e-05
5e-05
5e-05
5e-05
5e-05
5e-05
5e-05
5e-05
5e-05
5e-05
5e-05
5e-05
5e-05
5e-05
5e-05
5e-05
5e-05
5e-05
5e-05
5e-05
5e-05
5e-05
5e-05
5e-05
5e-05
5e-05
5e-05
5e-05
5e-05
5e-05
5e-05
5e-05
5e-05
5e-05
5e-05
5e-05
5e-05
5e-05
5e-05
5e-05
5e-05
5e-05
5e-05
5e-05
5e-05
5e-05
5e-05
5e-05
5e-05
5e-05
5e-05
5e-05
5e-05
5e-05
5e-05
5e-05
5e-05
5e-05
5e-05
5e-05
5e-05
5e-05
5e-05
5e-05
5e-05
5e-05
5e-05
5e-05
5e-05
5e-05
5e-05
5e-05
5e-05
5e-05
5e-05
5e-05
5e-05
5e-05
5e-05
5e-05
5e-05
5e-05
5e-05
5e-05
5e-05
5e-05
5e-05
5e-05
5e-05
5e-05
5e-05
5e-05
5e-05
5e-05
5e-05
5e-05
5e-05
5e-05
5e-05
5e-05
5e-05
5e-05
5e-05
5e-05
5e-05
5e-05
5e-05
5e-05
5e-05
5e-05
5e-05
5e-05
5e-05
5e-05
5e-05
5e-05
5e-05
5e-05
5e-05
5e-05
5e-05
5e-05
5e-05
5e-05
5e-05
5e-05
5e-05
5e-05
5e-05
5e-05
5e-05
5e-05
5e-05
5e-05
5e-05
5e-05
5e-05
5e-05
5e-05
5e-05
5e-05
5e-05
5e-05
5e-05
5e-05
5e-05
5e-05
5e-05
5e-05
5e-05
5e-05
5e-05
5e-05
5e-05
5e-05
5e-05
5e-05
5e-05
5e-05
5e-05
5e-05
5e-05
5e-05
5e-05
5e-05
5e-05
5e-05
5e-05
5e-05
5e-05
5e-05
5e-05
5e-05
5e-05
5e-05
5e-05
5e-05
5e-05
5e-05
5e-05
5e-05
5e-05
5e-05
5e-05
5e-05
5e-05

SCALARS mass float 1
LOOKUP_TABLE default
1.46608e-10
1.46608e-10
1.46608e-10
1.46608e-10
1.46608e-10
1.46608e-10
1.46608e-10
1.46608e-10
1.46608e-10
1.46608e-10
1.46608e-10
1.46608e-10
1.46608e-10
1.46608e-10
1.46608e-10
1.46608e-10
1.46608e-10
1.46608e-10
1.46608e-10
1.46608e-10
1.46608e-10
1.46608e-10
1.46608e-10
1.46608e-10
1.46608e-10
1.46608e-10
1.46608e-10
1.46608e-10
1.46608e-10
1.46608e-10
1.46608e-10
1.46608e-10
1.46608e-10
1.46608e-10
1.46608e-10
1.46608e-10
1.46608e-10
1.46608e-10
1.46608e-10
1.46608e-10
1.46608e-10
1.46608e-10
1.46608e-10
1.46608e-10
1.46608e-10
1.46608e-10
1.46608e-10
1.46608e-10
1.46608e-10
1.46608e-10
1.46608e-10
1.46608e-10
1.46608e-10
1.46608e-10
1.46608e-10
1.46608e-10
1.46608e-10
1.46608e-10
1.46608e-10
1.46608e-10
1.46608e-10
1.46608e-10
1.46608e-10
1.46608e-10
1.46608e-10
1.46608e-10
1.46608e-10
1.46608e-10
1.46608e-10
1.46608e-10
1.46608e-10
1.46608e-10
1.46608e-10
1.46608e-10
1.46608e-10
1.46608e-10
1.46608e-10
1.46608e-10
1.46608e-10
1.46608e-10
1.46608e-10
1.46608e-10
1.46608e-10
1.46608e-10
1.46608e-10
1.46608e-10
1.46608e-10
1.46608e-10
1.46608e-10
1.46608e-10
1.46608e-10
1.46608e-10
1.46608e-10
1.46608e-10
1.46608e-10
1.46608e-10
1.46608e-10
1.46608e-10
1.46608e-10
1.46608e-10
1.46608e-10
1.46608e-10
1.46608e-10
1.46608e-10
1.46608e-10
1.46608e-10
1.46608e-10
1.46608e-10
1.46608e-10
1.46608e-10
1.46608e-10
1.46608e-10
1.46608e-10
1.46608e-10
1.46608e-10
1.46608e-10
1.46608e-10
1.46608e-10
1.46608e-10
1.46608e-10
1.46608e-10
1.46608e-10
1.46608e-10
1.46608e-10
1.46608e-10
1.46608e-10
1.46608e-10
1.46608e-10
1.46608e-10
1.46608e-10
1.46608e-10
1.46608e-10
1.46608e-10
1.46608e-10
1.46608e-10
1.46608e-10
1.46608e-10
1.46608e-10
1.46608e-10
1.46608e-10
1.46608e-10
1.46608e-10
1.46608e-10
1.46608e-10
1.46608e-10
1.46608e-10
1.46608e-10
1.46608e-10
1.46608e-10
1.46608e-10
1.46608e-10
1.46608e-10
1.46608e-10
1.46608e-10
1.46608e-10
1.46608e-10
1.46608e-10
1.46608e-10
1.46608e-10
1.46608e-10
1.46608e-10
1.46608e-10
1.46608e-10
1.46608e-10
1.46608e-10
1.46608e-10
1.46608e-10
1.46608e-10
1.46608e-10
1.46608e-10
1.46608e-10
1.46608e-10
1.46608e-10
1.46608e-10
1.46608e-10
1.46608e-10
1.46608e-10
1.46608e-10
1.46608e-10
1.46608e-10
1.46608e-10
1.46608e-10
1.46608e-10
1.46608e-10
1.46608e-10
1.46608e-10
1.46608e-10
1.46608e-10
1.46608e-10
1.46608e-10
1.46608e-10
1.46608e-10
1.46608e-10
1.46608e-10
1.46608e-10
1.46608e-10
1.46608e-10
1.46608e-10
1.46608e-10
1.46608e-10
1.46608e-10
1.46608e-10
1.46608e-10
1.46608e-10
1.46608e-10
1.46608e-10
1.46608e-10
1.46608e-10
1.46608e-10
1.46608e-10
1.46608e-10
1.46608e-10
1.46608e-10
1.46608e-10
1.46608e-10
1.46608e-10
1.46608e-10
1.46608e-10
1.46608e-10
1.46608e-10
1.46608e-10
1.46608e-10
1.46608e-10
1.46608e-10
1.46608e-10
1.46608e-10
1.46608e-10
1.46608e-10
1.46608e-10
1.46608e-10
1.46608e-10
1.46608e-10
1.46608e-10
1.46608e-10
1.46608e-10
1.46608e-10
1.46608e-10
1.46608e-10
1.46608e-10
1.46608e-10
1.46608e-10
1.46608e-10
1.46608e-10
1.46608e-10
1.46608e-10
1.46608e-10
1.46608e-10
1.46608e-10
1.46608e-10
1.46608e-10
1.46608e-10
1.46608e-10
1.46608e-10
1.46608e-10
1.46608e-10
1.46608e-10
1.46608e-10
1.46608e-10
1.46608e-10
1.46608e-10
1.46608e-10
1.46608e-10
1.46608e-10
1.46608e-10
1.46608e-10
1.46608e-10
1.46608e-10
1.46608e-10
1.46608e-10
1.46608e-10
1.46608e-10
1.46608e-10
1.46608e-10
1.46608e-10
1.46608e-10
1.46608e-10
1.46608e-10
1.46608e-10
1.46608e-10
1.46608e-10
1.46608e-10
1.46608e-10
1.46608e-10

VECTORS velocity float
0.00453933 -0.000458138 0.000165763
0.00446729 -0.000320671 0.000250562
0.00467791 -0.000353332 0.000271141
0.00466094 -0.000391975 0.000279042
0.00454467 -0.000729298 -0.000100514
0.00454393 0.000137064 -0.000217975
0.00457028 -0.000429623 0.00013796
0.00453401 -0.000735363 -8.91758e-05
0.00448333 0.000270156 3.7382e-05
0.00463424 -0.000400379 0.000278232
0.00432024 -0.000344719 6.16153e-05
0.00448533 0.000262718 4.0164e-05
0.00466527 -0.000454303 0.000290193
0.00458923 -0.000603701 0.00034357
0.00465618 -0.00044167 0.000285094
0.00447241 -0.000266751 0.000252039
0.00498166 0.000180699 7.67152e-05
0.00462359 -0.00037265 0.00027504
0.00434385 -0.000324592 0.00024834
0.00455241 -0.000720516 -0.000111597
0.00463974 -0.000504777 0.000297097
0.00449209 0.000264128 4.11707e-05
0.00442922 -0.000409132 0.000270897
0.00446207 0.000219971 -8.30889e-05
0.00455098 -0.00025345 0.000245699
0.00445041 -0.000310031 0.000252692
0.0044955 0.000142438 -0.000223804
0.00465918 -0.000417986 0.00028137
0.00462807 -0.000454645 0.000287818
0.00457388 0.000129643 -0.00021275
0.00463825 -0.000443234 0.000289381
0.00461849 -0.000452753 0.00028701
0.00447534 0.00026026 4.07725e-05
0.00457005 -0.000426139 0.000129674
0.00465272 -0.000442438 0.000288918
0.00458944 -0.000719519 -0.000122079
0.00436571 -0.000346128 0.00025426
0.00436952 -0.000352996 0.000259906
0.00468581 -0.000406106 0.00027805
0.00446582 -0.000363121 0.000262648
0.00445927 0.000220302 -8.28725e-05
0.00446129 0.000219387 -8.38031e-05
0.0045757 -0.000713296 -0.000127407
0.00437398 -0.000343511 0.0002603
0.00446006 0.000220206 -8.30088e-05
0.00464352 -0.000446512 0.000292559
0.00431734 -0.00084033 0.00011566
0.0047501 -0.000345562 4.72417e-05
0.00461137 -0.000404306 0.000278126
0.00446442 0.000219829 -8.25188e-05
0.0041177 -0.000363817 8.4572e-05
0.00448947 0.00026274 4.06348e-05
0.00467157 -0.000485216 0.000276624
0.00455712 -0.000712673 -0.000120486
0.00428124 -0.000353756 7.35747e-05
0.00464801 -0.000421978 0.000283438
0.00447453 0.000243235 -2.16339e-05
0.00461349 -0.000423299 0.000123766
0.0048716 -0.000438386 6.88741e-05
0.00455941 -0.000435183 0.000279993
0.00425649 -0.000206259 -4.23212e-07
0.00435737 -0.000398201 0.000120939
0.00496499 0.000188099 8.29612e-05
0.00422679 -0.000391625 0.000151714
0.00448404 0.000265453 3.90496e-05
0.00459486 -0.000716651 -0.000122415
0.00426685 -0.000418136 0.000141502
0.00432673 -0.000321623 0.000238116
0.00495871 0.000186458 8.04203e-05
0.00468659 -0.000410297 0.000281847
0.00476441 0.000417088 0.000748261
0.00451866 -0.000271427 0.000254778
0.0044296 -0.000352312 0.000258845
0.00505226 -0.000489594 7.65691e-05
0.00416226 -0.000209432 -7.68992e-06
0.00443676 0.000475986 0.000679759
0.00447484 0.000264722 3.90503e-05
0.0041839 -0.000246536 1.23443e-05
0.00467295 -0.000401115 0.000279409
0.00448035 0.000270783 3.68778e-05
0.00431265 -0.00036237 8.05306e-05
0.00466962 -0.000398738 0.000281506
0.00433461 -0.000347793 6.20998e-05
0.00460588 -0.000418944 0.000119499
0.00435901 -0.000367327 0.000224723
0.00438574 -0.000367786 0.000260469
0.00435608 -0.00039582 0.000151576
0.00467081 -0.000418126 0.000284906
0.00436427 -0.000357654 0.000257709
0.0043364 -0.00032556 0.000242734
0.00422883 -0.000228503 8.03314e-06
0.00464438 -0.000432233 0.00029384
0.0047717 -0.000393352 0.000185521
0.00464673 -0.000439735 0.000287977
0.00447121 -0.000440026 0.000278407
0.00418146 -0.00021072 -9.46249e-06
0.00485404 -0.000356733 6.02998e-05
0.00443781 -0.000380061 9.0227e-05
0.00470612 -0.000539044 0.000378847
0.00466708 -0.000441674 0.000285269
0.00465571 -0.00038979 0.000278992
0.00469723 -0.000335971 0.000267876
0.00455022 -0.000454687 0.00016515
0.00467347 -0.000219665 -1.56101e-05
0.0046518 -0.000388578 0.000276465
0.00415903 -0.000379937 0.000107666
0.00451294 -0.000329149 0.000259058
0.00451576 -0.000367211 0.000255112
0.00428859 -0.000341636 6.02604e-05
0.00495363 -0.000488538 7.6279e-05
0.0044488 0.000143304 -0.00022607
0.00440975 -0.000349623 0.000258147
0.00422994 -0.000423359 0.000154848
0.00431347 -0.000377722 0.000172964
0.0049594 -0.000278143 4.08759e-05
0.0046319 -0.000378991 0.0002783
0.00465858 -0.000421856 0.000283106
0.00427445 -0.000350882 7.06694e-05
0.00450037 -0.000272032 0.000317323
0.00465323 -0.000395629 0.00027832
0.004536 -0.000250056 0.000249163
0.00456517 -0.000569309 5.5016e-05
0.0045501 -0.00048143 7.38296e-05
0.00435318 -0.000313519 0.00024837
0.00434797 -0.00040209 0.000109721
0.00442512 -0.000384443 0.000264577
0.00434173 -0.000355893 5.54703e-05
0.00477057 -0.000734546 0.00010466
0.0042538 -0.000419436 0.000146681
0.00437276 -0.000349213 0.000263489
0.00431636 -0.000370875 8.9085e-05
0.00468581 -0.000372544 0.000274344
0.00476428 -0.000390345 0.000184164
0.00457822 -0.000719595 -0.000118514
0.00438932 -0.000395063 0.000267047
0.00437087 -0.000361529 0.000260128
0.00424999 -0.000418532 0.000143281
0.00484091 -0.000181009 0.000527409
0.00465217 -0.00041565 0.000287728
0.00425291 -0.000432931 0.000142033
0.0045303 -0.000402448 0.000107018
0.00429347 -0.000245085 7.62884e-06
0.0046033 -0.000432423 0.000282765
0.00451186 -0.000283734 0.000259978
0.00450591 -0.000327713 5.11166e-05
0.0050184 -0.000401036 1.54523e-05
0.00466227 -0.000414301 0.00028264
0.00477072 -0.000408325 6.7533e-05
0.00438711 -0.000347081 0.000258819
0.00432954 -0.000218837 7.74728e-05
0.00435129 -0.000355064 7.65348e-05
0.00480259 -0.000419919 6.75444e-05
0.00436449 -0.000314509 0.000255202
0.00472477 -0.000922405 0.000126815
0.00431689 -0.000384508 9.55945e-05
0.00428538 -0.000260852 5.18112e-05
0.00463055 -0.000454367 0.000291487
0.00484086 -0.000267129 5.8847e-05
0.00412593 -0.000239792 0.000225688
0.00466473 -0.000458777 0.000279292
0.00487564 -0.000281876 4.88485e-05
0.00464803 -0.000436664 0.000288673
0.00429553 -0.000245119 1.42452e-05
0.004391 -0.000487706 -0.000644589
0.00450942 -0.000277495 0.000258877
0.00498615 -0.000567515 8.47771e-05
0.00434255 -0.000251534 9.92588e-06
0.00417525 -0.000214915 -5.36418e-06
0.00468985 -0.000383012 0.000276959
0.00511658 -0.000411376 6.71892e-05
0.00469191 -0.000449231 0.000273174
0.00493187 -0.000369355 6.23704e-05
0.00466254 -0.000435833 0.000284615
0.00426078 -0.000401587 0.000107234
0.00433439 -0.000374694 8.95272e-05
0.00471594 0.00022246 6.44644e-05
0.00446742 -0.000450867 0.000161615
0.00456307 -0.000463986 0.000169824
0.00440408 -0.000257493 0.000244973
0.00434749 -0.000310682 0.000244206
0.0043197 -0.000301761 3.34742e-05
0.0046895 -0.000484127 0.000273394
0.00459333 -0.000731432 -9.74936e-05
0.00485327 -0.000344123 5.97874e-05
0.00424509 -0.000230576 1.69511e-05
0.00432853 -0.000353516 7.01629e-05
0.00428612 -0.000833226 0.000114762
0.00486074 -0.000288043 4.23407e-05
0.00451438 -0.000293408 0.000275773
0.00428619 -0.000419656 0.000101644
0.00485191 -0.000323322 6.63593e-05
0.00463765 -0.000453153 0.00028935
0.00485995 -0.00033528 6.07701e-05
0.0040312 -0.000217973 0.000213028
0.00434875 -0.000249876 1.49515e-05
0.00418861 -0.000206846 -9.06684e-06
0.00489983 4.68416e-05 1.29533e-05
0.00451505 -0.000287935 0.000265921
0.00466011 -0.000423186 0.000285242
0.00437361 -0.000439253 0.000155871
0.00503719 0.000190394 -0.000224954
0.00428129 -0.000408931 0.000147514
0.00439047 -0.000294446 3.82071e-05
0.00420906 -0.000415807 0.000139888
0.0045745 -0.000421751 0.000124796
0.00454078 -0.000459392 0.00016633
0.00460922 -0.00043505 0.000283541
0.00443505 -0.000259911 0.000246542
0.00466503 -0.000430413 0.000283351
0.00447749 -0.000320237 4.71458e-05
0.00446164 -9.2753e-06 0.000449741
0.00495137 0.000154774 9.4358e-05
0.00440661 -0.000244655 0.000204017
0.00452622 -0.000312911 2.77404e-05
0.00428152 -0.000394876 9.73435e-05
0.0047398 -0.000335256 7.38129e-05
0.0048636 -0.000329267 6.45982e-05
0.00423055 -0.000237012 0.000230572
0.00428352 -0.000243597 1.1788e-05
0.00434923 -0.000339641 0.000252072
0.00462754 -0.000419188 0.000290444
0.0043505 -0.000281931 0.00021353
0.00430292 -0.0002638 0.000281934
0.00470434 -0.000384194 0.000376376
0.00428742 -0.000391143 9.3646e-05
0.00445546 0.000339633 -0.000152314
0.00429855 -0.000273908 0.000257024
0.00434725 -0.000356958 8.39476e-05
0.00442826 0.000345812 -0.000156002
0.00447426 0.000344148 -0.000154938
0.00426201 -0.000266575 0.000243023
0.00454619 0.000338499 -0.00014539
0.00458213 -0.000450333 0.000285187
0.00439342 -0.00030294 0.000251812
0.00410368 -0.00022201 0.000219243
0.00458417 -0.000727499 -0.000108329
6.80523e-15 2.29882e-14 -7.0325e-14
0.0045246 0.000346165 -0.00015296
0.00497182 -0.000476869 7.35641e-05
0.00441579 -0.000290058 4.35467e-05
0.00444635 -0.000328689 5.24907e-05
0.00485633 -0.000330478 5.99006e-05
0.00477924 -0.000244125 0.000501826
0.00452476 -0.000290963 0.000119831
0.00488507 -0.000309501 5.19803e-05
0.00468311 -0.000404478 0.000279615
0.00433437 -0.000264168 0.000263449
0.00482832 -0.000476751 7.35821e-05
0.00452764 0.000339339 -0.000138071
0.0043434 -0.000307959 5.83131e-05
0.00433791 -0.000251175 0.000239239
0.00453711 -0.000458926 0.000165671
0.00503766 -0.00039495 6.50097e-05
0.00487038 -0.00032461 6.15688e-05
0.00497998 -0.000584404 8.7918e-05
0.00483674 -0.000346871 6.31317e-05
0.00472371 -0.000427806 0.000246168
0.00485685 -0.000307497 5.12664e-05
0.00485822 -0.000347895 6.31812e-05
0.00483509 -0.000309156 6.3881e-05
0.00487547 -0.000304733 5.37064e-05
0.00435927 -0.000360507 8.01093e-05
0.0044385 -0.000358149 0.00025132
-1.29495e-14 6.08801e-14 -1.90219e-13
0.00487871 0.000267527 -0.000139984
0.00470301 -6.18712e-05 2.5874e-05
0.00450219 0.000347139 -0.000137449
0.00455101 0.000329306 -0.00013885
0.00433086 -0.000380132 7.96519e-05
0.00430271 -0.000256759 0.000282737
0.00484947 -0.000313894 5.78159e-05
0.00464879 -0.000389831 0.000276416
0.00440521 -0.000269248 0.000153142
0.00483319 -0.000340408 6.24868e-05
0.00483447 -0.000475488 7.85476e-05
0.00491448 -0.00033408 6.41996e-05
0.00466852 -0.000377073 0.000275073
0.00434979 -0.000345849 9.01981e-05
0.00422451 -0.000227214 1.83014e-06
0.00435775 -0.000338935 0.000231734
0.00464784 -0.00039127 0.00027942
0.00486071 -0.000350093 6.06047e-05
0.00468107 -0.000390183 0.000281828

VECTORS force float
4.51922e-11 7.99756e-11 -8.20499e-11
5.60699e-11 9.16973e-12 7.48822e-11
-8.37358e-11 -1.31603e-10 2.60451e-11
4.89308e-11 1.0025e-10 -2.79295e-11
-4.07336e-11 1.19093e-11 -1.75315e-11
1.43703e-10 -1.12909e-11 -4.66925e-11
1.55173e-11 -2.19135e-11 2.00235e-11
-1.10272e-11 1.7699e-11 1.36384e-12
1.63109e-11 2.35232e-11 -9.08007e-12
-1.70345e-10 -7.75687e-11 -2.03898e-12
-8.60138e-12 7.02863e-12 1.9796e-11
-1.98773e-13 4.24839e-12 4.32632e-12
-1.80795e-10 3.16952e-11 -1.36197e-11
5.76965e-11 9.24924e-11 -2.63397e-10
1.79589e-10 -4.24377e-11 2.43689e-11
-2.49749e-11 -1.42262e-10 9.59096e-11
1.85841e-10 -5.46595e-10 3.57592e-10
1.01511e-10 5.87254e-11 -1.29254e-11
2.10147e-10 1.4838e-10 1.5756e-11
6.31669e-11 -2.89698e-11 2.30483e-11
-2.22661e-12 -1.87397e-10 2.44099e-11
1.65456e-12 -9.84363e-12 -7.85904e-12
7.74385e-10 -4.00323e-10 1.21907e-10
-2.68887e-11 2.36794e-11 -1.53402e-11
-5.38385e-11 -5.41208e-11 9.49587e-11
-7.40581e-11 -9.47707e-11 4.58885e-11
-1.1046e-10 -1.78531e-12 -6.99745e-11
4.07613e-12 -2.59505e-10 7.67994e-11
-3.55034e-10 5.66532e-11 -5.69788e-12
-1.70009e-11 -3.6611e-11 -2.62249e-11
-1.47719e-10 2.55049e-10 -8.43066e-11
3.90081e-10 -8.96406e-11 3.29532e-11
2.59741e-11 1.7843e-11 3.14894e-12
1.41096e-11 -2.44215e-11 4.5093e-11
-5.24831e-11 2.04967e-10 -6.0271e-11
7.32628e-11 -1.18506e-10 8.23925e-11
-1.85011e-10 -1.57223e-10 3.85909e-11
1.6649e-10 2.44701e-10 -2.03691e-11
-7.89134e-11 3.40265e-11 4.92093e-11
4.87794e-11 -1.54149e-10 1.52978e-10
-3.30093e-11 -3.51158e-11 1.23025e-12
-8.41935e-12 2.29108e-11 -1.55663e-11
1.44086e-11 -7.39473e-11 7.22407e-11
3.57405e-10 1.57666e-10 8.04558e-12
-3.28247e-11 3.73697e-11 -1.31929e-11
-7.98753e-11 2.92196e-10 -1.57993e-10
-4.49591e-11 3.42913e-11 -1.38413e-11
-3.81688e-11 4.50331e-11 2.65005e-10
-3.56489e-11 -2.17136e-10 5.97315e-11
-1.3161e-11 9.69103e-12 -4.78436e-12
-1.76972e-10 -1.53831e-10 1.04098e-10
8.55449e-12 -1.46349e-11 1.04694e-11
9.6445e-11 2.19876e-10 -7.85282e-11
-6.23565e-12 -4.02565e-11 7.02716e-11
9.36642e-11 -9.29136e-11 7.91555e-11
1.50072e-10 1.78513e-10 -3.52109e-11
2.86582e-11 -4.10313e-13 -1.63778e-11
5.68745e-12 4.63568e-12 -4.81509e-14
-4.54938e-11 1.2681e-10 -2.44558e-11
-1.495e-10 -1.24613e-10 1.72439e-11
4.79625e-10 -4.595e-10 1.27411e-10
1.50791e-10 1.24394e-10 -1.04704e-10
1.48387e-11 1.54744e-10 -6.6372e-11
7.83851e-11 -3.58706e-10 -1.17775e-10
8.71236e-12 3.60068e-11 -1.42985e-11
2.37326e-10 -1.38675e-10 1.21484e-10
1.35187e-10 9.39828e-11 1.49534e-11
5.75766e-11 1.02511e-10 3.23239e-10
1.2952e-10 4.87849e-11 -1.14927e-11
1.10659e-10 2.38358e-10 -5.51952e-11
4.18147e-11 1.39245e-10 -1.91297e-10
7.46597e-11 -9.45085e-11 2.89365e-11
9.025e-12 -2.23953e-10 8.74928e-11
-2.73174e-11 1.07392e-10 -8.45377e-12
-4.605e-10 -2.79387e-11 5.82183e-11
-1.45004e-11 -3.12985e-12 -1.69431e-10
2.93947e-11 -1.09735e-10 4.53697e-11
3.77634e-10 -2.07154e-10 8.77011e-11
-3.8479e-11 5.02009e-11 -1.46597e-11
-3.72639e-11 -6.18716e-11 2.17648e-11
-6.34895e-11 -4.36347e-11 8.1655e-11
-2.94538e-10 2.34783e-11 4.15833e-12
-1.73017e-11 -1.5627e-10 1.56817e-10
8.23235e-11 2.35795e-11 -3.66562e-11
4.44672e-10 7.44494e-12 -4.49402e-11
-2.3114e-10 -1.92007e-10 7.2147e-12
2.81961e-10 1.25663e-10 -2.85799e-10
5.41617e-11 -4.89455e-11 3.96068e-11
-4.74214e-11 2.12094e-10 7.87056e-13
-8.57941e-11 -1.46098e-10 1.19818e-10
4.4095e-10 -7.29893e-11 -8.88205e-11
-2.08916e-10 3.01388e-10 -1.96947e-10
2.37516e-10 -1.14516e-10 -3.90311e-11
2.00726e-10 3.04297e-10 -4.75781e-11
-5.81167e-10 1.40892e-10 -4.01776e-11
1.09926e-10 -2.23915e-10 1.02702e-10
1.35321e-10 -3.95108e-11 -4.23498e-12
1.13927e-10 7.26887e-11 -7.93322e-11
-1.0871e-10 -7.90215e-12 -3.4927e-10
-5.33211e-11 1.01367e-10 2.77646e-12
5.28355e-11 1.82845e-10 -5.29388e-11
-2.59843e-10 -8.62958e-10 1.55724e-10
-7.01665e-11 -6.98707e-12 5.31872e-11
7.97306e-11 -1.38862e-10 5.57996e-11
-5.98928e-11 -1.58155e-10 3.0079e-11
-9.1503e-14 -2.7955e-10 1.11913e-10
-2.09538e-10 -9.78677e-11 2.71296e-11
5.98157e-10 2.45797e-10 -1.07599e-10
-6.51577e-11 8.87997e-11 -8.37141e-11
-9.2469e-12 1.05069e-11 5.86395e-12
4.0783e-11 -8.89387e-12 -2.07108e-11
-5.78726e-10 2.50427e-10 -1.10992e-10
-1.02812e-10 3.50383e-10 -5.51788e-10
9.4277e-11 1.35259e-10 -3.74805e-10
-5.69715e-11 1.21903e-12 8.08555e-12
1.42984e-10 -1.06567e-11 1.09026e-10
6.23823e-11 -1.90276e-10 3.49524e-11
-2.09636e-10 -3.65426e-11 4.97779e-11
2.88447e-11 -2.64451e-10 -2.64207e-10
2.81361e-10 -1.31513e-10 3.92057e-11
1.01661e-10 -1.26648e-10 8.52162e-11
-2.52976e-11 -1.84547e-11 8.39215e-11
-1.16833e-11 -8.114e-11 1.35426e-11
1.20327e-10 5.79398e-11 9.02074e-11
2.83511e-10 2.2122e-10 -2.68385e-10
2.27985e-10 -2.21138e-10 3.75975e-11
5.46708e-11 -3.71532e-10 3.86135e-10
-3.31446e-11 -7.99706e-11 9.6652e-12
1.98339e-11 1.00805e-11 -1.49903e-11
2.23832e-10 1.76998e-10 -6.55074e-11
-4.86239e-10 5.48187e-12 -9.83304e-12
2.97506e-11 -1.92692e-10 2.76263e-11
4.2938e-11 4.89726e-11 -1.60893e-12
2.65905e-11 -7.39861e-11 4.77688e-11
2.35371e-10 -4.54476e-10 1.03079e-10
-2.99232e-10 -2.03309e-10 2.95736e-11
-1.64272e-10 -7.77293e-12 5.12418e-12
1.70652e-11 -3.14636e-11 -3.10016e-10
-1.63443e-11 2.67907e-10 -1.03533e-10
3.23987e-11 4.19449e-10 -9.6603e-11
8.9668e-11 5.77389e-11 -7.31775e-11
-1.74232e-10 1.49999e-10 -7.75566e-11
-2.05437e-10 -1.82634e-11 3.92411e-13
-4.02033e-11 -1.31425e-10 5.91818e-11
2.08338e-10 1.04933e-10 -5.99737e-11
5.19393e-11 5.60037e-11 4.28213e-11
7.70138e-11 2.01111e-10 -4.78324e-11
-1.09908e-11 1.36554e-10 7.10817e-12
2.73673e-10 1.15654e-11 -1.1108e-10
1.76915e-10 -1.20687e-10 1.34285e-10
-7.48078e-10 -2.97987e-10 5.44491e-10
2.04757e-11 1.27379e-10 3.01365e-12
4.33048e-11 1.68203e-10 -6.08314e-11
-1.7476e-11 -1.13177e-11 -6.84253e-13
-4.18194e-10 5.86062e-11 -1.97968e-11
2.36387e-10 8.32692e-11 2.57611e-10
-1.10213e-10 2.65767e-11 3.22906e-11
2.1976e-10 -1.48092e-10 1.90926e-10
1.4194e-11 2.4123e-11 -2.96728e-12
-1.78099e-10 4.86206e-11 2.16042e-11
1.545e-12 2.1128e-10 -5.9839e-11
-4.29775e-11 3.54027e-10 -1.44309e-10
-2.55892e-11 -1.25051e-10 1.59058e-11
-1.06524e-10 6.74387e-11 1.00602e-09
-3.64959e-11 -1.75643e-10 7.97364e-11
4.18152e-12 -2.16141e-11 4.0702e-13
-4.17714e-11 9.22264e-11 -2.93579e-12
5.19551e-11 -5.07116e-11 5.23043e-11
1.16766e-11 -6.47981e-11 3.21388e-11
5.74925e-11 3.4091e-11 3.6876e-12
-6.44668e-10 2.97544e-10 -2.21418e-10
-1.19522e-10 9.51738e-11 -2.64831e-12
7.95399e-11 2.02711e-10 -4.25721e-11
1.89799e-10 -4.4743e-11 -7.9129e-11
-2.69844e-10 1.70348e-10 -4.59968e-10
2.51797e-11 1.79016e-10 -5.97784e-11
1.02893e-10 5.78255e-11 -6.73797e-11
3.34697e-11 6.28819e-11 -6.88592e-11
-2.63931e-11 -9.04466e-11 5.13817e-11
-3.02285e-11 -5.43342e-11 1.00929e-10
-4.78737e-10 3.24481e-11 3.4151e-11
1.4881e-11 -1.82123e-10 2.20199e-11
1.55757e-11 -2.00367e-12 1.2483e-10
3.48913e-12 -4.67774e-11 1.6819e-12
2.514e-10 -7.9242e-12 -1.63169e-10
4.68356e-11 8.17476e-11 -8.31135e-11
1.14401e-10 1.05769e-10 2.7945e-12
-2.94787e-10 3.47592e-10 -3.69408e-11
7.43986e-11 -3.63651e-11 -9.64047e-11
-4.21564e-10 4.70316e-10 -3.94036e-10
1.42484e-12 -2.52992e-11 -2.4406e-11
-2.85044e-10 4.55025e-11 -5.81272e-12
-9.48462e-12 -6.20484e-11 -1.31457e-10
-2.92675e-10 -2.10191e-11 1.78058e-11
2.7705e-10 -9.9547e-11 -2.47828e-12
6.08003e-10 -3.35759e-10 1.98174e-10
8.19908e-11 5.82256e-11 -7.0854e-12
2.2905e-11 -7.55724e-11 6.46929e-12
1.39671e-10 1.71802e-10 -4.01704e-11
1.81567e-11 5.67367e-11 -4.06914e-11
4.61878e-11 5.67947e-10 -8.31071e-10
1.66329e-10 1.94363e-10 -1.40436e-10
3.46591e-11 -1.9396e-11 3.87423e-11
-1.54411e-10 -6.30895e-12 1.06919e-11
-4.89484e-11 -3.46162e-11 3.78151e-11
4.86781e-12 -1.72893e-11 9.22961e-12
2.24335e-10 -3.39274e-10 7.61079e-11
-5.23537e-11 -9.82408e-11 5.85149e-11
6.68143e-11 -1.63686e-10 5.74721e-11
3.20784e-11 -2.13092e-11 1.11662e-11
-3.98479e-11 -3.09652e-10 -2.74721e-10
2.08303e-10 -5.07691e-10 1.20313e-09
6.31258e-11 -1.27733e-10 -3.93906e-11
-3.26688e-10 2.27652e-11 1.44792e-10
-1.66733e-10 -1.62241e-11 4.28441e-11
3.86823e-11 -1.48729e-10 -9.28983e-11
-4.75945e-12 1.32614e-11 -2.79976e-12
8.86876e-11 -1.07549e-10 4.88667e-11
-1.30707e-10 1.37051e-10 -1.13698e-10
1.01305e-10 -2.34335e-10 -1.30694e-10
2.08586e-11 2.34709e-10 -1.10917e-10
-1.4678e-10 9.7031e-11 -1.86068e-10
1.18074e-10 9.96663e-11 -2.83909e-10
1.08939e-10 2.05034e-12 -1.58468e-10
4.61488e-11 -7.31628e-11 4.8238e-11
1.37498e-10 5.51322e-11 -4.96866e-12
1.12099e-10 1.58584e-10 -8.73258e-11
-3.12259e-10 9.87001e-11 -3.40737e-10
2.76311e-12 -8.57391e-12 8.39437e-11
-2.50192e-10 -2.34094e-11 -8.23117e-11
6.20418e-11 7.65754e-11 5.29952e-12
3.44e-10 -1.96742e-11 -5.93397e-11
-2.77843e-10 9.50414e-11 -3.87208e-11
-1.48409e-10 -9.3568e-11 2.0804e-13
-6.9947e-11 -1.57685e-10 7.44431e-11
1.0766e-10 -5.42718e-11 9.48482e-11
2.14808e-23 4.96308e-24 4.3427e-24
-1.55502e-10 -1.14883e-11 -1.06192e-10
8.99877e-11 1.1528e-10 -4.51244e-12
-8.78358e-12 -7.1852e-11 2.29782e-11
-2.54812e-11 -1.96657e-11 1.83395e-11
3.63849e-11 -9.15497e-11 3.0809e-11
1.31584e-10 3.92164e-11 -4.63042e-11
-8.78158e-11 -1.25625e-10 -1.58862e-10
-3.81498e-11 6.26728e-11 -1.37425e-11
-4.1075e-11 -7.08472e-11 3.62612e-11
-1.20806e-10 9.27619e-11 -8.13304e-11
-5.089e-11 -1.45533e-10 4.63283e-11
-1.1682e-10 -8.00629e-11 7.78628e-12
1.471e-11 -4.2386e-11 -2.5331e-12
-2.93542e-11 -9.7283e-11 6.58335e-11
7.13421e-11 1.69761e-11 -4.21277e-11
1.83658e-11 5.11223e-11 -4.00069e-12
8.48219e-11 2.88912e-10 -3.19702e-11
-1.59353e-11 1.471e-10 -2.58736e-11
-3.74945e-11 -2.91669e-11 -3.10191e-11
2.54546e-10 8.24029e-11 -1.70333e-11
-7.40761e-11 -3.89983e-10 6.35377e-11
-1.27664e-11 -1.04142e-10 3.45677e-11
-1.16598e-11 2.564e-11 5.77301e-11
-2.00683e-10 -1.85087e-11 1.39822e-11
-1.81517e-10 2.37965e-10 1.60372e-10
-1.13229e-10 -4.14126e-10 -8.76708e-11
1.82884e-22 3.63959e-23 -1.44757e-24
-3.57238e-12 1.65673e-11 5.08737e-12
1.67776e-11 -1.31675e-12 7.67164e-12
1.26762e-10 -9.76378e-12 -1.95731e-11
5.4152e-11 -2.43194e-11 -2.0135e-11
-2.46314e-10 2.80367e-10 -2.08676e-10
5.7302e-11 9.67459e-11 -1.01886e-10
-3.215e-11 -9.90238e-11 2.58509e-11
2.37493e-11 -2.1131e-10 6.63161e-11
-2.17185e-11 -1.09738e-10 1.31839e-10
-2.17893e-11 2.05784e-12 2.28987e-11
-5.45836e-11 -9.61631e-11 -5.79798e-11
-4.31656e-11 2.02145e-10 -1.6066e-11
-7.84203e-11 -3.01111e-10 4.80485e-11
-1.82631e-10 3.22467e-10 2.58878e-10
2.54173e-10 -5.33985e-11 -1.7099e-11
8.58277e-11 1.4469e-10 -2.38982e-10
-1.06609e-10 1.44771e-10 -6.17698e-11
-1.42946e-10 9.212e-11 3.87881e-12
1.0415e-10 5.08434e-10 -1.21616e-10
