# vtk DataFile Version 3.0
LIGGGHTS particles timestep 79600000
ASCII
DATASET POLYDATA
POINTS 277 float
0.377949 0.0172487 0.00747699
0.378101 0.0179652 0.00718526
0.377844 0.0173742 0.00732303
0.377825 0.0172834 0.00736008
0.377345 0.0156015 0.00876125
0.383826 0.0171896 0.00680714
0.377323 0.0155405 0.00883759
0.383863 0.0194589 5.15912e-05
0.378176 0.0184933 0.00691668
0.377716 0.0164139 0.00773476
0.383643 0.0180053 0.00143822
0.378077 0.0184778 0.00692147
0.372011 0.0179768 0.00706175
0.378157 0.018395 0.0069439
0.371819 0.017148 0.00748124
0.383668 0.019222 5.26192e-05
0.377939 0.0176533 0.00731058
0.377975 0.0171668 0.00742568
0.377366 0.0156625 0.00868492
0.377883 0.0175558 0.00724879
0.383658 0.0192445 0.000205379
0.378145 0.0175002 0.00729968
0.384077 0.0171621 0.00027501
0.371887 0.0167914 0.00761881
0.378069 0.0177033 0.00729887
0.383798 0.017105 0.00716035
0.378022 0.0177863 0.00726859
0.378331 0.018341 0.00695785
0.383854 0.017274 0.00615862
0.37793 0.0177498 0.00728567
0.378137 0.0183005 0.00697006
0.383825 0.0179556 5.15414e-05
0.378158 0.0177926 0.00717516
0.377794 0.0163714 0.00778851
0.378166 0.0175926 0.00726206
0.378342 0.0180729 0.00707338
0.377998 0.0176798 0.00720722
0.37788 0.0171345 0.00742979
0.383869 0.0173626 0.00513519
0.383832 0.0180164 0.000744774
0.377517 0.016089 0.00815078
0.377954 0.0170762 0.00746258
0.383948 0.0174659 0.0021857
0.378034 0.0174415 0.00731351
0.371907 0.0176358 0.00705063
0.371946 0.0174147 0.0071971
0.378178 0.0180872 0.00705041
0.383923 0.0174122 0.00381578
0.37175 0.0166055 0.0077512
0.383705 0.0178593 0.00531919
0.378237 0.0183092 0.00696713
0.377388 0.0157232 0.00860874
0.377836 0.0165357 0.00769392
0.377939 0.0174074 0.00731842
0.384252 0.0166614 0.000235712
0.377558 0.0162113 0.00799796
0.372044 0.0183123 0.00693942
0.378038 0.0182888 0.00697388
0.371907 0.0168722 0.00756334
0.377913 0.0168946 0.00753647
0.383741 0.0189021 5.1431e-05
0.371825 0.0165492 0.00778522
0.383818 0.017681 5.1532e-05
0.377679 0.0162895 0.00788975
0.377641 0.0164776 0.00771446
0.378139 0.0177803 0.00727244
0.383784 0.0177884 5.14876e-05
0.377922 0.0177416 0.00718634
0.371459 0.0158579 0.00826993
0.392848 0.0240513 6.33589e-05
0.378231 0.0179109 0.00713167
0.372005 0.0181173 0.00696092
0.372135 0.017466 0.00715367
0.371481 0.0159383 0.00821462
0.383768 0.0202023 5.14667e-05
0.371728 0.0165244 0.00780702
0.377977 0.017589 0.00724419
0.384023 0.0173996 5.18011e-05
0.377851 0.0166228 0.00764719
0.378014 0.0173502 0.00735077
0.377735 0.0165001 0.00768804
0.377536 0.0161503 0.00807428
0.378086 0.0172225 0.00741313
0.37786 0.0170437 0.00746682
0.377798 0.0167719 0.00757749
0.378017 0.0177714 0.00716981
0.378254 0.0177699 0.00719471
0.378073 0.017623 0.00723944
0.372193 0.0177302 0.00703098
0.377999 0.0181022 0.00703405
0.372098 0.0176982 0.0070358
0.378053 0.0175324 0.00727639
0.378328 0.0179712 0.00711571
0.371947 0.0170342 0.00745237
0.371964 0.0174961 0.00714193
0.377992 0.0174322 0.00740379
0.371416 0.015697 0.00838056
0.378252 0.0180286 0.00708326
0.377865 0.0174882 0.00738547
0.377902 0.0176467 0.00721165
0.377494 0.016029 0.00822744
0.378037 0.0178622 0.0071327
0.371772 0.016686 0.00769586
0.377764 0.0170113 0.00747098
0.377805 0.0171926 0.00739712
0.377699 0.0163506 0.00781334
0.372063 0.0184097 0.00692867
0.383776 0.0170178 0.0072832
0.378106 0.0173184 0.00737391
0.378045 0.0170413 0.00748689
0.377682 0.0166549 0.00763141
0.371946 0.0178274 0.00700933
0.37796 0.0179179 0.00710086
0.378275 0.0182233 0.00700174
0.37781 0.0164428 0.00772044
0.371503 0.0160188 0.0081593
0.378058 0.0183833 0.00694763
0.371567 0.0162602 0.00799335
0.377452 0.0159063 0.00837983
0.372135 0.0180456 0.00704883
0.377898 0.0173971 0.00741053
0.377934 0.0169853 0.00749959
0.377995 0.0172574 0.00738881
0.377756 0.0165906 0.00765125
0.372082 0.017854 0.00708516
0.377853 0.0172159 0.00748161
0.377702 0.0167393 0.00758173
0.377872 0.0167134 0.00761028
0.378084 0.0180533 0.00705527
0.372041 0.0178575 0.00699435
0.377473 0.0159673 0.00830329
0.378217 0.0180011 0.00717252
0.377839 0.0169532 0.00750367
0.377622 0.0163988 0.00777278
0.371438 0.0157775 0.00832525
0.378085 0.0178455 0.00721854
0.378065 0.0171319 0.00744999
0.377657 0.0162285 0.00796608
0.371871 0.0170901 0.00741855
0.377984 0.017917 0.00719787
0.371759 0.0169043 0.00764812
0.371706 0.0164439 0.00786234
0.372024 0.0182148 0.00695017
0.377958 0.0174982 0.0072813
0.372194 0.0181807 0.0069488
0.378104 0.0181453 0.00701777
0.372041 0.0174405 0.00717529
0.377777 0.0166812 0.00761441
0.372158 0.0184415 0.0069226
0.377723 0.01683 0.00754482
0.37187 0.0174717 0.00716248
0.377895 0.0168036 0.00757389
0.372305 0.0178577 0.00700301
0.378186 0.0176856 0.00722406
0.372158 0.0181461 0.00703557
0.372195 0.0178979 0.00707536
0.378064 0.0179625 0.00709238
0.371927 0.0177348 0.00712219
0.377919 0.0173161 0.0073557
0.372023 0.0173592 0.0072307
0.371777 0.0170661 0.00743964
0.371799 0.0170664 0.00753705
0.372104 0.0186043 0.00690715
0.371986 0.0171967 0.00734145
0.371792 0.0167668 0.00764038
0.377941 0.0178413 0.00724683
0.371976 0.0178858 0.00708458
0.378175 0.0182118 0.00699647
0.371985 0.0180199 0.00697206
0.378092 0.0177139 0.00720228
0.371654 0.016582 0.00777209
0.371852 0.0170093 0.00747398
0.383657 0.020044 5.13217e-05
0.377874 0.0173066 0.00744517
0.377765 0.017025 0.00757003
0.378029 0.0176142 0.0073286
0.37221 0.0178258 0.00700781
0.378018 0.0181952 0.00700311
0.37743 0.0158454 0.00845592
0.371913 0.0175556 0.00720367
0.372155 0.0179858 0.00697121
0.378011 0.0175232 0.00736678
0.371888 0.0175533 0.00710685
0.372108 0.0179504 0.00706397
0.371524 0.0160993 0.00810399
0.372173 0.0176347 0.00705404
0.372119 0.0182465 0.0069441
0.378256 0.0184053 0.00694053
0.371893 0.017472 0.00725962
0.371611 0.0164211 0.00788273
0.371891 0.0171712 0.00736318
0.371927 0.016953 0.00750789
0.372138 0.018344 0.00693335
0.378013 0.0180075 0.00716548
0.377579 0.0162722 0.00792161
0.383648 0.0188198 5.13098e-05
0.377662 0.0165667 0.00767398
0.371589 0.0163406 0.00793804
0.3776 0.0163344 0.0078463
0.378323 0.0178792 0.00715477
0.37798 0.0180114 0.00707121
0.371755 0.0169923 0.00759485
0.378268 0.0181314 0.00704056
0.371847 0.0166297 0.00772986
0.371546 0.0161797 0.00804867
0.383653 0.018609 5.13166e-05
0.371757 0.0169853 0.00749511
0.372078 0.0176043 0.00706361
0.371812 0.0168477 0.00758488
0.371796 0.0171471 0.00738411
0.372135 0.0178894 0.00698956
0.371632 0.0165015 0.00782741
0.37223 0.0179212 0.00698478
0.377818 0.0168625 0.00754057
0.377899 0.0172253 0.00739274
0.372179 0.0185386 0.00691183
0.371675 0.0166625 0.00771678
0.37206 0.0179539 0.00697638
0.371832 0.0169285 0.00752942
0.365865 0.0174667 0.0072316
0.371928 0.0173334 0.00725252
0.371717 0.0168237 0.00760602
0.365846 0.0173842 0.00728507
0.365883 0.0175491 0.00717813
0.372174 0.0180832 0.00695955
0.36592 0.017714 0.00707118
0.378126 0.0174093 0.0073368
0.377744 0.0169206 0.0075079
0.37225 0.0180174 0.00696424
0.377409 0.0157844 0.00853226
0.215741 0.019982 0.00563384
0.365902 0.0176315 0.00712465
0.372233 0.0183756 0.00692729
0.372059 0.0175218 0.00712009
0.371867 0.0167106 0.00767432
0.372116 0.0177939 0.00701263
0.372153 0.0175473 0.00709829
0.37191 0.0172522 0.00730785
0.371852 0.0173904 0.00721787
0.378134 0.017887 0.00713198
0.37208 0.0180515 0.00696561
0.37217 0.0178025 0.00709623
0.365958 0.0178788 0.00696425
0.371996 0.0175061 0.00723626
0.371739 0.0168235 0.00770373
0.377775 0.0163048 0.00786058
0.372083 0.0182119 0.00703087
0.372007 0.0177936 0.00711127
0.372028 0.0180744 0.00704813
0.371983 0.0175809 0.00709245
0.372083 0.0185072 0.00691791
0.371905 0.0176415 0.00715082
0.371814 0.0172281 0.00732858
0.371965 0.017923 0.00698766
0.372213 0.0182782 0.00693804
0.371812 0.0172356 0.00742825
0.377921 0.0175625 0.00734858
0.404182 0.0211142 0.0056569
0.365995 0.0180751 0.00697117
0.371926 0.0177297 0.00702232
0.365976 0.0179769 0.00696771
0.36594 0.0177963 0.00701777
0.372005 0.0172779 0.00728609
0.371697 0.0167429 0.00766146
0.371833 0.0173092 0.00727323
0.37816 0.0179915 0.00708973
0.372059 0.0177099 0.00712727
0.372004 0.0176697 0.00705122
0.371875 0.0173902 0.0073151
0.372099 0.018149 0.00695485
0.377941 0.0178271 0.00713796
0.371737 0.0169045 0.00755057
0.371967 0.0171157 0.00739676
0.377974 0.0173392 0.00744204
0.377785 0.0171042 0.00743938
0.372021 0.0177622 0.00701738
0.377864 0.017465 0.00728591

VERTICES 277 554
1 0
1 1
1 2
1 3
1 4
1 5
1 6
1 7
1 8
1 9
1 10
1 11
1 12
1 13
1 14
1 15
1 16
1 17
1 18
1 19
1 20
1 21
1 22
1 23
1 24
1 25
1 26
1 27
1 28
1 29
1 30
1 31
1 32
1 33
1 34
1 35
1 36
1 37
1 38
1 39
1 40
1 41
1 42
1 43
1 44
1 45
1 46
1 47
1 48
1 49
1 50
1 51
1 52
1 53
1 54
1 55
1 56
1 57
1 58
1 59
1 60
1 61
1 62
1 63
1 64
1 65
1 66
1 67
1 68
1 69
1 70
1 71
1 72
1 73
1 74
1 75
1 76
1 77
1 78
1 79
1 80
1 81
1 82
1 83
1 84
1 85
1 86
1 87
1 88
1 89
1 90
1 91
1 92
1 93
1 94
1 95
1 96
1 97
1 98
1 99
1 100
1 101
1 102
1 103
1 104
1 105
1 106
1 107
1 108
1 109
1 110
1 111
1 112
1 113
1 114
1 115
1 116
1 117
1 118
1 119
1 120
1 121
1 122
1 123
1 124
1 125
1 126
1 127
1 128
1 129
1 130
1 131
1 132
1 133
1 134
1 135
1 136
1 137
1 138
1 139
1 140
1 141
1 142
1 143
1 144
1 145
1 146
1 147
1 148
1 149
1 150
1 151
1 152
1 153
1 154
1 155
1 156
1 157
1 158
1 159
1 160
1 161
1 162
1 163
1 164
1 165
1 166
1 167
1 168
1 169
1 170
1 171
1 172
1 173
1 174
1 175
1 176
1 177
1 178
1 179
1 180
1 181
1 182
1 183
1 184
1 185
1 186
1 187
1 188
1 189
1 190
1 191
1 192
1 193
1 194
1 195
1 196
1 197
1 198
1 199
1 200
1 201
1 202
1 203
1 204
1 205
1 206
1 207
1 208
1 209
1 210
1 211
1 212
1 213
1 214
1 215
1 216
1 217
1 218
1 219
1 220
1 221
1 222
1 223
1 224
1 225
1 226
1 227
1 228
1 229
1 230
1 231
1 232
1 233
1 234
1 235
1 236
1 237
1 238
1 239
1 240
1 241
1 242
1 243
1 244
1 245
1 246
1 247
1 248
1 249
1 250
1 251
1 252
1 253
1 254
1 255
1 256
1 257
1 258
1 259
1 260
1 261
1 262
1 263
1 264
1 265
1 266
1 267
1 268
1 269
1 270
1 271
1 272
1 273
1 274
1 275
1 276

POINT_DATA 277
SCALARS id int 1
LOOKUP_TABLE default
1
2
3
4
5
6
8
9
10
11
12
13
14
15
16
18
19
20
21
22
24
25
26
27
29
30
31
32
33
34
35
36
38
40
41
42
43
44
45
46
47
48
49
50
52
55
56
57
58
59
60
61
62
63
64
65
66
67
68
69
70
71
72
73
74
75
76
77
78
79
80
81
82
83
84
85
86
87
88
89
90
91
92
93
94
95
96
98
99
100
101
102
103
104
105
106
107
108
109
110
111
113
114
115
116
117
118
119
120
121
122
123
124
125
126
127
128
129
130
131
132
133
134
135
136
137
138
139
140
141
142
144
145
146
147
148
149
150
152
153
154
155
156
157
158
159
160
161
162
164
165
166
167
168
169
170
171
172
173
174
175
176
177
178
179
180
181
182
183
184
185
186
187
188
189
191
192
193
194
195
196
197
198
199
200
201
202
203
204
205
206
207
208
210
211
213
214
215
217
218
220
221
222
223
224
225
226
227
228
229
230
231
232
233
234
235
236
237
238
239
241
242
243
244
245
246
247
248
249
250
251
252
253
254
255
256
257
258
259
260
261
262
263
264
265
267
268
269
270
271
272
273
274
275
276
277
278
279
280
281
282
283
284
285
286
287
288
289
290
292
293
294
295
296
297
298
300

SCALARS type int 1
LOOKUP_TABLE default
1
1
1
1
1
1
1
1
1
1
1
1
1
1
1
1
1
1
1
1
1
1
1
1
1
1
1
1
1
1
1
1
1
1
1
1
1
1
1
1
1
1
1
1
1
1
1
1
1
1
1
1
1
1
1
1
1
1
1
1
1
1
1
1
1
1
1
1
1
1
1
1
1
1
1
1
1
1
1
1
1
1
1
1
1
1
1
1
1
1
1
1
1
1
1
1
1
1
1
1
1
1
1
1
1
1
1
1
1
1
1
1
1
1
1
1
1
1
1
1
1
1
1
1
1
1
1
1
1
1
1
1
1
1
1
1
1
1
1
1
1
1
1
1
1
1
1
1
1
1
1
1
1
1
1
1
1
1
1
1
1
1
1
1
1
1
1
1
1
1
1
1
1
1
1
1
1
1
1
1
1
1
1
1
1
1
1
1
1
1
1
1
1
1
1
1
1
1
1
1
1
1
1
1
1
1
1
1
1
1
1
1
1
1
1
1
1
1
1
1
1
1
1
1
1
1
1
1
1
1
1
1
1
1
1
1
1
1
1
1
1
1
1
1
1
1
1
1
1
1
1
1
1
1
1
1
1
1
1
1
1
1
1
1
1
1
1
1
1
1
1
1
1
1
1
1
1

SCALARS radius float 1
LOOKUP_TABLE default
5e-05
5e-05
5e-05
5e-05
5e-05
5e-05
5e-05
5e-05
5e-05
5e-05
5e-05
5e-05
5e-05
5e-05
5e-05
5e-05
5e-05
5e-05
5e-05
5e-05
5e-05
5e-05
5e-05
5e-05
5e-05
5e-05
5e-05
5e-05
5e-05
5e-05
5e-05
5e-05
5e-05
5e-05
5e-05
5e-05
5e-05
5e-05
5e-05
5e-05
5e-05
5e-05
5e-05
5e-05
5e-05
5e-05
5e-05
5e-05
5e-05
5e-05
5e-05
5e-05
5e-05
5e-05
5e-05
5e-05
5e-05
5e-05
5e-05
5e-05
5e-05
5e-05
5e-05
5e-05
5e-05
5e-05
5e-05
5e-05
5e-05
5e-05
5e-05
5e-05
5e-05
5e-05
5e-05
5e-05
5e-05
5e-05
5e-05
5e-05
5e-05
5e-05
5e-05
5e-05
5e-05
5e-05
5e-05
5e-05
5e-05
5e-05
5e-05
5e-05
5e-05
5e-05
5e-05
5e-05
5e-05
5e-05
5e-05
5e-05
5e-05
5e-05
5e-05
5e-05
5e-05
5e-05
5e-05
5e-05
5e-05
5e-05
5e-05
5e-05
5e-05
5e-05
5e-05
5e-05
5e-05
5e-05
5e-05
5e-05
5e-05
5e-05
5e-05
5e-05
5e-05
5e-05
5e-05
5e-05
5e-05
5e-05
5e-05
5e-05
5e-05
5e-05
5e-05
5e-05
5e-05
5e-05
5e-05
5e-05
5e-05
5e-05
5e-05
5e-05
5e-05
5e-05
5e-05
5e-05
5e-05
5e-05
5e-05
5e-05
5e-05
5e-05
5e-05
5e-05
5e-05
5e-05
5e-05
5e-05
5e-05
5e-05
5e-05
5e-05
5e-05
5e-05
5e-05
5e-05
5e-05
5e-05
5e-05
5e-05
5e-05
5e-05
5e-05
5e-05
5e-05
5e-05
5e-05
5e-05
5e-05
5e-05
5e-05
5e-05
5e-05
5e-05
5e-05
5e-05
5e-05
5e-05
5e-05
5e-05
5e-05
5e-05
5e-05
5e-05
5e-05
5e-05
5e-05
5e-05
5e-05
5e-05
5e-05
5e-05
5e-05
5e-05
5e-05
5e-05
5e-05
5e-05
5e-05
5e-05
5e-05
5e-05
5e-05
5e-05
5e-05
5e-05
5e-05
5e-05
5e-05
5e-05
5e-05
5e-05
5e-05
5e-05
5e-05
5e-05
5e-05
5e-05
5e-05
5e-05
5e-05
5e-05
5e-05
5e-05
5e-05
5e-05
5e-05
5e-05
5e-05
5e-05
5e-05
5e-05
5e-05
5e-05
5e-05
5e-05
5e-05
5e-05
5e-05
5e-05
5e-05
5e-05
5e-05
5e-05
5e-05
5e-05
5e-05
5e-05
5e-05
5e-05
5e-05
5e-05
5e-05
5e-05
5e-05
5e-05
5e-05
5e-05
5e-05
5e-05
5e-05
5e-05
5e-05
5e-05
5e-05

SCALARS mass float 1
LOOKUP_TABLE default
1.46608e-10
1.46608e-10
1.46608e-10
1.46608e-10
1.46608e-10
1.46608e-10
1.46608e-10
1.46608e-10
1.46608e-10
1.46608e-10
1.46608e-10
1.46608e-10
1.46608e-10
1.46608e-10
1.46608e-10
1.46608e-10
1.46608e-10
1.46608e-10
1.46608e-10
1.46608e-10
1.46608e-10
1.46608e-10
1.46608e-10
1.46608e-10
1.46608e-10
1.46608e-10
1.46608e-10
1.46608e-10
1.46608e-10
1.46608e-10
1.46608e-10
1.46608e-10
1.46608e-10
1.46608e-10
1.46608e-10
1.46608e-10
1.46608e-10
1.46608e-10
1.46608e-10
1.46608e-10
1.46608e-10
1.46608e-10
1.46608e-10
1.46608e-10
1.46608e-10
1.46608e-10
1.46608e-10
1.46608e-10
1.46608e-10
1.46608e-10
1.46608e-10
1.46608e-10
1.46608e-10
1.46608e-10
1.46608e-10
1.46608e-10
1.46608e-10
1.46608e-10
1.46608e-10
1.46608e-10
1.46608e-10
1.46608e-10
1.46608e-10
1.46608e-10
1.46608e-10
1.46608e-10
1.46608e-10
1.46608e-10
1.46608e-10
1.46608e-10
1.46608e-10
1.46608e-10
1.46608e-10
1.46608e-10
1.46608e-10
1.46608e-10
1.46608e-10
1.46608e-10
1.46608e-10
1.46608e-10
1.46608e-10
1.46608e-10
1.46608e-10
1.46608e-10
1.46608e-10
1.46608e-10
1.46608e-10
1.46608e-10
1.46608e-10
1.46608e-10
1.46608e-10
1.46608e-10
1.46608e-10
1.46608e-10
1.46608e-10
1.46608e-10
1.46608e-10
1.46608e-10
1.46608e-10
1.46608e-10
1.46608e-10
1.46608e-10
1.46608e-10
1.46608e-10
1.46608e-10
1.46608e-10
1.46608e-10
1.46608e-10
1.46608e-10
1.46608e-10
1.46608e-10
1.46608e-10
1.46608e-10
1.46608e-10
1.46608e-10
1.46608e-10
1.46608e-10
1.46608e-10
1.46608e-10
1.46608e-10
1.46608e-10
1.46608e-10
1.46608e-10
1.46608e-10
1.46608e-10
1.46608e-10
1.46608e-10
1.46608e-10
1.46608e-10
1.46608e-10
1.46608e-10
1.46608e-10
1.46608e-10
1.46608e-10
1.46608e-10
1.46608e-10
1.46608e-10
1.46608e-10
1.46608e-10
1.46608e-10
1.46608e-10
1.46608e-10
1.46608e-10
1.46608e-10
1.46608e-10
1.46608e-10
1.46608e-10
1.46608e-10
1.46608e-10
1.46608e-10
1.46608e-10
1.46608e-10
1.46608e-10
1.46608e-10
1.46608e-10
1.46608e-10
1.46608e-10
1.46608e-10
1.46608e-10
1.46608e-10
1.46608e-10
1.46608e-10
1.46608e-10
1.46608e-10
1.46608e-10
1.46608e-10
1.46608e-10
1.46608e-10
1.46608e-10
1.46608e-10
1.46608e-10
1.46608e-10
1.46608e-10
1.46608e-10
1.46608e-10
1.46608e-10
1.46608e-10
1.46608e-10
1.46608e-10
1.46608e-10
1.46608e-10
1.46608e-10
1.46608e-10
1.46608e-10
1.46608e-10
1.46608e-10
1.46608e-10
1.46608e-10
1.46608e-10
1.46608e-10
1.46608e-10
1.46608e-10
1.46608e-10
1.46608e-10
1.46608e-10
1.46608e-10
1.46608e-10
1.46608e-10
1.46608e-10
1.46608e-10
1.46608e-10
1.46608e-10
1.46608e-10
1.46608e-10
1.46608e-10
1.46608e-10
1.46608e-10
1.46608e-10
1.46608e-10
1.46608e-10
1.46608e-10
1.46608e-10
1.46608e-10
1.46608e-10
1.46608e-10
1.46608e-10
1.46608e-10
1.46608e-10
1.46608e-10
1.46608e-10
1.46608e-10
1.46608e-10
1.46608e-10
1.46608e-10
1.46608e-10
1.46608e-10
1.46608e-10
1.46608e-10
1.46608e-10
1.46608e-10
1.46608e-10
1.46608e-10
1.46608e-10
1.46608e-10
1.46608e-10
1.46608e-10
1.46608e-10
1.46608e-10
1.46608e-10
1.46608e-10
1.46608e-10
1.46608e-10
1.46608e-10
1.46608e-10
1.46608e-10
1.46608e-10
1.46608e-10
1.46608e-10
1.46608e-10
1.46608e-10
1.46608e-10
1.46608e-10
1.46608e-10
1.46608e-10
1.46608e-10
1.46608e-10
1.46608e-10
1.46608e-10
1.46608e-10
1.46608e-10
1.46608e-10
1.46608e-10
1.46608e-10
1.46608e-10
1.46608e-10
1.46608e-10
1.46608e-10
1.46608e-10
1.46608e-10
1.46608e-10
1.46608e-10
1.46608e-10
1.46608e-10
1.46608e-10
1.46608e-10
1.46608e-10
1.46608e-10

VECTORS velocity float
0.00415722 1.5648e-05 0.000324298
0.00442166 -3.62791e-05 0.000487196
0.00421445 -2.65738e-05 0.000443772
0.00431811 -4.7213e-05 0.000463698
0.00453978 -0.000436876 3.13485e-05
0.00864864 0.00979184 -0.0911458
0.00450346 -0.000430542 2.78024e-05
-3.50176e-19 5.63916e-21 2.67382e-16
0.00414176 0.00143317 -0.000421697
0.00437332 -0.000290487 -0.000133609
0.00120558 -0.00223691 0.000451811
0.00439374 -0.000155319 2.78927e-05
0.00457885 0.000356154 -9.87593e-05
0.00422125 0.000758025 -0.00023778
0.00440089 0.000152504 -0.000333356
0.000233954 0.000299186 0.00146904
0.00430739 4.9563e-06 0.000458533
0.00444772 6.19905e-05 0.000424426
0.004551 -0.000439294 3.47312e-05
0.0042498 -1.92941e-05 0.000447708
0.00844562 0.0110068 -0.0256281
0.00425716 -0.000134766 0.000496303
0.0377859 -0.121768 -0.221464
0.00465513 0.00017129 -0.000358995
0.0042594 -5.27138e-05 0.000469057
0.00852575 0.0107055 -0.0428043
0.00430053 -2.9042e-05 0.000456967
0.00430645 0.00168457 -0.000487984
0.00831744 0.00914856 -0.143432
0.00432764 1.84012e-05 0.000447953
0.00408944 0.000878372 -0.000263775
2.24031e-18 -3.20625e-21 -1.71051e-15
0.00449639 0.000275865 0.000343191
0.00439374 -9.96945e-05 0.00028588
0.00428395 -5.12163e-05 0.000464077
0.00360828 0.00212739 -0.000544856
0.00428213 -4.99612e-05 0.000460242
0.00445697 2.39708e-05 0.0004464
0.00728365 0.00881859 -0.200517
-0.03393 0.124303 -0.0542621
0.00469686 -0.000436122 1.40913e-05
0.00453651 4.73912e-05 0.000445439
0.00798706 0.00522012 -0.311551
0.00425734 -6.91701e-05 0.000455964
0.00450307 0.000204548 -0.000350906
0.00440297 0.000166019 -0.00032286
0.00437895 -3.3405e-05 0.000468516
0.00831051 0.00674644 -0.255927
0.00499296 0.000290406 -0.000457227
-2.09122e-15 5.04126e-14 2.1718e-13
0.00411261 0.00193796 -0.000549644
0.0045593 -0.00043667 2.94079e-05
0.00439119 3.11335e-05 0.000440084
0.00423994 -8.78333e-06 0.000440633
0.0158781 -0.0325425 -0.0557592
0.00485395 -0.00047089 3.58742e-05
0.00449528 0.000283009 -0.000160254
0.00438775 -0.000234355 -0.000185179
0.00458731 0.000152651 -0.000343088
0.00455329 -5.59528e-06 0.000469947
-3.50217e-19 -2.98451e-21 2.67382e-16
0.00537074 0.000637262 -0.000710801
2.24033e-18 6.59707e-22 -1.71052e-15
0.00453271 -0.000426136 2.63841e-05
0.00441962 -6.00242e-05 0.000364594
0.00477848 0.000230301 0.000394881
2.24033e-18 2.46083e-21 -1.71052e-15
0.00430134 -2.35593e-05 0.000443649
0.00489191 5.56519e-05 -0.000294009
1.64366e-18 -1.8297e-20 -1.25496e-15
0.00430468 4.43342e-05 0.000416501
0.00453058 0.000314849 -0.000155086
0.00445594 0.000142716 -0.000304135
0.00488061 6.29e-05 -0.000298295
-3.50178e-19 5.8878e-22 2.67382e-16
0.00479235 9.10723e-05 -0.000312738
0.00428633 -7.61087e-05 0.000473118
2.99479e-11 5.57514e-11 4.1573e-14
0.00442599 1.70894e-05 0.000448323
0.00424501 2.16566e-06 0.00043459
0.00441324 2.12891e-05 0.000443439
0.00476638 -0.000450835 2.2958e-05
0.00437861 0.000190037 0.000365711
0.00454809 3.7836e-06 0.00046604
0.00447111 1.77902e-05 0.000453036
0.0042939 -4.08953e-05 0.000460311
0.00467077 0.000804888 0.000134807
0.00428458 -5.56988e-05 0.000467459
0.00444129 0.000363552 5.70968e-05
0.00437985 -2.6538e-05 0.000445516
0.00445087 0.000366836 5.60773e-05
0.00428853 -6.54302e-05 0.000468824
0.00442065 4.90035e-05 0.000430797
0.00445901 0.000218774 -0.00036051
0.00443211 0.00016359 -0.000317567
0.00426467 -2.89692e-05 0.0004594
0.00491178 4.37551e-05 -0.000287045
0.00441628 2.93399e-05 0.000433838
0.00423149 1.03139e-05 0.000411445
0.00428012 -8.02556e-05 0.00047475
0.00467689 -0.000433982 1.24929e-05
0.00433216 -3.37457e-05 0.000456966
0.00494728 0.000377041 -0.00051319
0.00448272 2.68763e-05 0.000445969
0.0043911 -5.23122e-05 0.000473139
0.00437815 -0.000421476 7.38921e-06
0.00447701 0.000268002 -0.000157757
0.0069103 0.0106613 -0.00717582
0.00423901 2.01112e-06 0.000434955
0.004568 8.74929e-05 0.000431828
0.00444404 1.53877e-05 0.000441347
0.00449715 0.000333203 4.95812e-05
0.0043425 -1.64757e-05 0.000450929
0.00368377 0.00182591 -0.000415726
0.00440521 3.4448e-05 0.000436335
0.00487283 6.84978e-05 -0.000301691
0.00435779 -0.000179663 3.3502e-05
0.00484234 8.27411e-05 -0.000309661
0.00465882 -0.000438786 1.93615e-05
0.00457867 0.000425647 -0.00019212
0.00424121 1.75954e-05 0.000422502
0.00457153 1.2611e-05 0.000464704
0.00432893 8.88829e-05 0.000417593
0.00442799 1.82923e-05 0.00044507
0.00449887 0.00035634 8.92634e-05
0.00439779 -5.51595e-06 0.000460163
0.00446357 -2.00914e-05 0.000467311
0.00446633 9.55195e-06 0.00045748
0.00437833 -7.03111e-05 0.000499292
0.00452632 0.000331425 7.07064e-05
0.00468051 -0.000438416 1.75721e-05
0.00421757 7.38275e-05 0.000369331
0.00454902 1.26112e-06 0.000468063
0.00441369 -0.000268388 8.51503e-05
0.00490193 4.93071e-05 -0.000290296
0.00431243 -7.8655e-05 0.000472964
0.00449025 0.000168653 0.000386851
0.00473097 -0.000456976 3.8544e-05
0.00440007 0.000145692 -0.000325355
0.00439375 1.08275e-05 0.000446109
0.00457323 9.4888e-05 -0.000338147
0.00479383 8.02861e-05 -0.000305469
0.0045085 0.000299271 -0.000163206
0.00422974 -4.07782e-05 0.00045976
0.0045266 0.000357575 -0.000168492
0.00441023 -3.62804e-06 0.000473959
0.00442541 0.000161688 -0.000320498
0.0044458 2.20786e-05 0.000445632
0.00449794 0.00024521 -0.000155899
0.00447288 -7.24625e-07 0.000459928
0.00442924 0.000161342 -0.000318617
0.00449368 5.81578e-08 0.000462313
0.00450689 0.000311507 7.17344e-05
0.00429444 4.1104e-05 0.000425511
0.00454694 0.000353399 -0.000169226
0.00447342 0.000354711 5.16236e-05
0.00433578 -6.71135e-05 0.000491558
0.00450439 0.000343806 6.97631e-05
0.00427679 3.49991e-05 0.000421853
0.00439185 0.00015917 -0.00031684
0.00439966 0.000168171 -0.000344628
0.00437262 0.0001677 -0.000337029
0.00488799 0.000146978 -0.000157225
0.00430789 0.000179853 -0.000324289
0.00470312 0.000317155 -0.000462315
0.00440947 1.3412e-05 0.000454735
0.00454649 0.000381435 -7.53087e-06
0.00355959 0.000743076 4.10575e-05
0.00453658 0.000336048 -6.84603e-05
0.00426363 -6.38996e-05 0.000466816
0.00480548 0.000102655 -0.000321285
0.00447075 0.000118439 -0.000313678
-3.50195e-19 -5.61975e-21 2.67382e-16
0.00425239 1.158e-05 0.000402844
0.00448329 -1.00447e-05 0.000446048
0.00429956 -4.56073e-05 0.000471928
0.0044673 0.000348784 6.21686e-05
0.00439538 1.01434e-05 0.00054069
0.00461986 -0.000432439 1.9831e-05
0.00446184 0.000155401 -0.000310126
0.00455011 0.000325967 -0.000125509
0.00422163 -9.46449e-05 0.000431594
0.00445989 0.000157283 -0.000312455
0.00436638 0.000491969 -0.00012265
0.00486399 7.39599e-05 -0.000304874
0.00445969 0.000384896 5.08988e-05
0.00450969 0.000313143 -0.000162933
0.00409475 0.00246674 -0.000701898
0.00442646 0.000186547 -0.000318348
0.00481739 9.23368e-05 -0.000314846
0.00431499 0.000168166 -0.000326918
0.00454638 0.000181481 -0.000359428
0.00450479 0.000308277 -0.000163139
0.0044567 -2.75647e-05 0.000427446
0.00476098 -0.000449687 2.83912e-05
2.81057e-18 3.58567e-24 -2.14593e-15
0.00441755 1.83876e-05 0.000469655
0.00483155 8.68521e-05 -0.000311878
0.00455043 -0.000409327 2.38826e-06
0.00429784 4.81611e-05 0.000419678
0.00436019 -2.8877e-05 0.000428251
0.00454031 0.000177309 -0.000343533
0.00337401 0.00180884 -0.000432252
0.00533136 0.000728864 -0.000770233
0.00485277 7.86871e-05 -0.000307493
-3.5019e-19 4.36862e-24 2.67382e-16
0.00456395 0.000146696 -0.000338372
0.00448341 0.000254533 -0.000385239
0.00457741 8.8227e-05 -0.000303744
0.00442261 0.000159473 -0.00033967
0.00453338 0.000326634 7.0002e-05
0.00481025 9.6541e-05 -0.000317276
0.00453516 0.000340162 6.83455e-05
0.00450462 1.10338e-05 0.000459211
0.00434433 3.57468e-05 0.000424792
0.00491221 0.000164197 -0.00016
0.00479018 0.000110171 -0.000324316
0.00449505 0.000292076 -0.000161291
0.00452158 0.000102107 -0.000305473
0.00430894 -7.9426e-05 1.68321e-05
0.00436244 0.000170204 -0.000321948
0.00454166 0.000161811 -0.000348475
0.00428201 -7.34106e-05 1.29055e-05
0.00433554 -8.53586e-05 2.0236e-05
0.00455282 0.000351795 -0.000166703
0.00442328 -0.000100229 2.90674e-05
0.00423257 -0.000159786 0.00051013
0.00444658 -0.000137998 0.000516278
0.00454416 0.000329015 -0.000168423
0.00459439 -0.000434524 2.37189e-05
6.80508e-15 2.29895e-14 -7.03246e-14
0.00437569 -9.2498e-05 2.4374e-05
0.00455131 0.000325124 -0.000165902
0.00446267 0.000175446 -0.000288891
0.00496114 0.00056384 -0.000639669
0.00445837 0.000363214 5.58494e-05
0.00444623 0.000191989 -0.000342491
0.00429845 0.000178648 -0.000323428
0.00443015 0.000162512 -0.00031996
0.00433301 -3.1379e-05 0.000458848
0.00454996 0.000326274 -0.000173961
0.00443674 0.000368193 5.81173e-05
0.0044828 -0.000110454 3.48141e-05
0.00442234 0.000164486 -0.000323145
0.00460901 0.000195643 -0.000363639
0.00438156 -0.000390491 6.88063e-06
0.00450454 0.000300947 -0.000163574
0.0044484 0.000404802 3.10003e-05
0.00461773 0.000353186 -0.000150818
0.00445814 0.000219739 -0.000210052
0.00448438 0.000247132 -0.000159075
0.00445961 0.000209157 -0.000405357
0.00445727 0.000162157 -0.000321096
0.00454039 0.000356163 5.30448e-05
0.00450137 0.000375998 -0.000169715
0.00446767 0.000179986 -0.000323974
0.00425275 7.98853e-06 0.000442361
-1.28008e-14 6.09086e-14 -1.9022e-13
0.00443186 -9.75004e-05 3.45546e-05
0.00451091 0.000329475 6.85613e-05
0.00445515 -0.00010394 3.46805e-05
0.00445422 -0.00010597 3.25401e-05
0.00436834 0.000168455 -0.000319025
0.00467906 0.000138862 -0.000338371
0.00444394 0.000161876 -0.000319501
0.00410784 0.000708112 0.000116682
0.00444737 0.000405623 6.05865e-05
0.00446565 0.000304684 -2.26104e-05
0.0044295 0.00023988 -0.000321932
0.00453307 0.000321232 -0.00016716
0.00432561 -1.48696e-05 0.000453185
0.00452663 0.000157892 -0.000341275
0.00432486 0.000178691 -0.000321834
0.00422123 1.82278e-05 0.00048152
0.00448229 -5.01625e-05 0.000484767
0.00448048 0.000334056 6.41832e-05
0.00423427 -2.17421e-05 0.000444178

VECTORS force float
2.75837e-11 2.44698e-10 -1.80931e-10
-8.36803e-11 -1.52352e-10 -4.66303e-10
8.19518e-12 1.7469e-10 -6.90641e-11
3.82938e-11 1.17897e-10 -5.71808e-12
-1.35389e-10 -3.16565e-10 3.76852e-10
0.0 0.0 -1.43822e-09
-3.37858e-10 -4.38562e-10 5.84931e-10
0.0 -7.37267e-26 0.0
-7.04829e-10 1.24627e-10 5.45369e-11
-1.95215e-10 -5.92281e-11 5.41397e-11
0.0 0.0 -1.43822e-09
-1.91948e-10 3.51528e-11 -2.6947e-11
1.28984e-10 1.35452e-10 -8.83178e-11
-6.55881e-10 2.39149e-10 -1.01487e-10
3.00638e-11 -8.02367e-11 -7.60778e-11
0.0 0.0 -1.43822e-09
-2.91498e-10 -4.43327e-12 -2.68594e-10
-1.03809e-11 9.83752e-11 -3.60535e-11
9.98539e-11 -2.12308e-10 2.2961e-10
9.5013e-12 -7.37724e-12 -1.90364e-11
0.0 0.0 -1.43822e-09
4.28364e-13 2.57049e-10 -1.04e-10
0.0 0.0 -1.43822e-09
-9.47688e-11 4.60579e-11 -1.0862e-11
-2.75749e-10 2.60864e-10 -1.87282e-10
0.0 0.0 -1.43822e-09
-2.73773e-10 2.02078e-10 -1.37795e-10
-6.54925e-10 1.21614e-10 1.464e-11
0.0 0.0 -1.43822e-09
-2.11523e-10 -8.97854e-11 5.37006e-11
-6.92194e-10 2.31845e-10 -1.16876e-11
0.0 6.05493e-27 0.0
-1.05259e-10 6.7056e-11 -3.18209e-11
-2.43776e-10 3.68132e-11 3.64355e-10
-1.11359e-10 6.53644e-11 -5.32902e-11
-4.80576e-10 1.64057e-10 -1.20003e-10
-3.11145e-10 -1.68206e-11 -1.10552e-10
1.41014e-12 1.33367e-10 -4.2482e-11
0.0 0.0 -1.43822e-09
0.0 0.0 -1.43822e-09
8.71793e-11 6.94899e-11 -1.21356e-10
-2.73823e-11 -6.63107e-12 -2.37985e-11
0.0 0.0 -1.43822e-09
-2.07555e-10 3.09458e-10 -1.47581e-10
-1.66148e-11 -5.32218e-11 1.99377e-11
-5.97203e-11 -8.16242e-11 5.15979e-11
2.6523e-10 -7.71938e-11 7.65349e-12
0.0 0.0 -1.43822e-09
-1.00672e-10 1.01132e-10 -6.09339e-11
2.20528e-24 0.0 0.0
-6.09458e-10 5.66303e-10 -1.57514e-10
-1.71185e-10 -1.12389e-10 1.5333e-10
1.12034e-10 -7.90805e-11 4.42963e-11
-1.91003e-10 6.76997e-11 -3.45448e-11
0.0 0.0 -1.43822e-09
-9.22517e-11 7.67059e-11 -5.43262e-11
1.15289e-10 1.5527e-10 -3.98693e-11
4.82325e-13 2.79096e-11 -9.99478e-10
-1.88442e-10 4.53534e-11 -6.90153e-12
2.2437e-11 7.01749e-11 -1.02126e-11
0.0 8.80829e-26 0.0
-1.14611e-10 1.57708e-10 -9.88117e-11
0.0 -5.84854e-28 0.0
-3.2619e-11 -4.48236e-10 1.7212e-10
2.47598e-11 -1.18487e-10 9.94879e-11
-9.00928e-11 -9.23836e-11 -5.83032e-11
0.0 6.19261e-26 0.0
-6.20729e-11 7.57985e-11 -3.66647e-12
1.31281e-11 4.28137e-11 -2.95873e-11
-4.03897e-28 8.06854e-25 0.0
6.31151e-11 -2.47865e-11 4.50805e-11
-5.23956e-11 -3.68681e-11 1.97019e-11
5.71556e-12 9.21436e-11 -4.82859e-11
7.36783e-12 2.23159e-11 -1.58069e-11
0.0 -2.06795e-25 0.0
1.93426e-11 1.25156e-10 -8.52177e-11
-6.99988e-11 -5.44839e-11 1.86091e-11
-5.05561e-15 2.78231e-14 -6.93512e-18
-7.32424e-11 -9.5163e-11 -5.75886e-11
-2.11132e-10 9.62274e-11 -8.60422e-11
9.48381e-11 1.573e-11 2.88267e-11
1.55577e-10 -6.39309e-12 -1.00355e-10
8.33738e-11 3.94035e-11 -3.50246e-11
-6.80711e-11 3.28108e-11 -2.14962e-11
5.75597e-11 -8.83056e-11 1.01312e-11
-8.50715e-11 2.68741e-10 -1.22871e-10
-1.27805e-10 1.39569e-10 -8.81528e-11
-1.36229e-10 2.22884e-10 -1.71307e-10
1.16885e-10 2.44694e-11 -2.8532e-11
-6.63325e-11 3.16892e-10 -2.07742e-11
8.05106e-11 -7.06933e-11 7.41649e-13
-7.18475e-11 2.33479e-10 -1.01395e-10
9.88165e-10 2.19335e-10 -1.4293e-11
-6.84383e-11 -3.54005e-10 2.65461e-10
-2.60087e-12 -5.38689e-11 1.40705e-12
2.32028e-10 2.2228e-10 1.40132e-11
2.70116e-11 9.81537e-11 -6.75473e-11
9.53722e-11 -6.05782e-10 2.50718e-10
6.67949e-11 1.45551e-10 -1.60386e-11
-3.76733e-12 -9.51353e-12 -1.03488e-12
-5.23814e-11 1.5451e-10 -1.42579e-10
-4.07146e-11 1.90768e-10 -1.57246e-10
-8.02505e-11 1.23228e-10 -8.7186e-11
1.84728e-11 -1.30571e-10 3.94227e-11
7.70011e-11 1.31594e-10 3.76012e-12
-4.12963e-10 -4.30053e-10 -1.89891e-10
2.13363e-10 2.09819e-10 -2.38713e-11
5.93749e-12 4.25914e-11 -3.10719e-10
-1.91357e-10 1.4875e-10 -7.32999e-11
-9.79264e-11 -1.99222e-11 3.73349e-12
-1.86028e-10 -4.44064e-10 -2.87755e-10
1.88122e-11 1.13671e-10 -5.09575e-11
1.52414e-11 1.14835e-10 -1.17536e-10
-7.43819e-10 -2.31457e-10 -3.88663e-11
-2.67192e-10 -1.3183e-10 -8.95644e-12
8.3321e-12 1.53861e-11 -1.10582e-11
4.6883e-10 -1.27606e-10 -3.21124e-10
2.12141e-11 6.25531e-11 -4.38924e-11
1.6674e-10 1.17615e-10 -1.82535e-10
-1.68428e-10 8.78839e-11 1.3297e-10
2.09499e-10 1.2829e-10 -3.45822e-12
-2.28871e-11 1.72627e-10 -7.68508e-11
1.61851e-10 1.60654e-10 -3.35504e-11
-3.81938e-11 -6.9943e-11 -6.35615e-11
-8.26839e-11 -6.13348e-12 -1.58523e-10
2.99231e-10 1.00246e-10 -1.19675e-11
-5.5521e-12 -2.70667e-11 1.11555e-11
6.18419e-11 -8.11688e-11 7.03168e-12
-7.60925e-11 3.83396e-10 -3.29745e-10
1.12709e-11 7.35167e-11 -7.49685e-11
4.8082e-11 1.77678e-10 -1.95445e-10
-1.36756e-11 7.746e-11 -1.42299e-10
-3.68722e-11 4.44032e-12 -8.31309e-12
-1.47138e-10 -1.70571e-10 1.33048e-11
1.89805e-11 7.16055e-11 -4.91204e-11
-2.29098e-10 1.03294e-10 -4.16477e-10
1.34519e-11 5.69546e-11 -3.49252e-11
-2.19951e-10 -8.83133e-11 2.13062e-10
1.05115e-10 -1.44886e-10 1.02603e-10
5.07079e-11 -3.65306e-10 1.59473e-10
-1.90355e-10 -1.17723e-10 8.47178e-11
-5.79127e-11 8.5439e-11 -5.4746e-11
4.88694e-11 -3.39716e-11 8.45697e-12
1.10263e-11 6.736e-11 1.28725e-11
-1.02283e-10 -1.36744e-10 4.77153e-11
5.02353e-10 5.35357e-10 -1.94932e-10
4.15879e-11 2.45742e-11 -1.6122e-11
-2.31965e-10 -1.5631e-10 -1.41102e-10
8.3989e-10 2.96838e-10 -8.42067e-11
-7.13578e-12 -3.3199e-11 1.3602e-11
1.26999e-11 1.45124e-10 -7.48175e-11
-3.72243e-11 4.37987e-12 2.00064e-11
-6.51141e-11 -2.61526e-10 8.42924e-11
-1.69552e-10 1.39148e-10 -8.10932e-11
-3.04267e-10 -1.58317e-10 6.37676e-11
7.42148e-11 -1.75358e-11 -4.91298e-12
-1.76058e-10 2.5375e-10 -4.6249e-10
-1.96967e-12 -3.99856e-11 -3.71559e-11
1.75807e-10 -9.78634e-11 5.50956e-11
-8.60298e-11 -2.32237e-11 5.0028e-12
3.51738e-11 2.74903e-11 -2.17054e-11
3.48941e-11 -2.00577e-10 1.46303e-11
-7.42179e-11 -2.72782e-10 3.52893e-11
1.28355e-11 5.4282e-12 -1.14697e-11
-4.40662e-11 6.01461e-12 -1.04565e-11
-1.8197e-10 -2.97992e-10 3.10584e-10
1.67828e-10 1.37945e-10 -1.44035e-10
5.84442e-10 6.68106e-10 -2.49043e-10
-3.74041e-11 -3.98608e-11 -4.50834e-10
-2.13217e-10 1.95439e-10 -1.24055e-10
2.11371e-11 1.0309e-10 -6.51533e-11
-1.4308e-10 -1.09301e-10 6.18385e-11
0.0 -2.69481e-27 0.0
3.82384e-10 8.39115e-11 -2.16044e-12
2.64707e-11 -7.14137e-12 -3.24143e-11
-9.21491e-11 2.43858e-10 -2.22369e-10
-3.82639e-11 6.70696e-11 -1.96178e-11
2.65145e-10 4.05389e-10 -1.39974e-09
8.63876e-11 5.3067e-11 -8.48942e-11
6.18859e-11 -7.16532e-11 3.03635e-11
6.77865e-11 7.83904e-11 4.58287e-11
-1.02411e-10 3.62136e-11 -1.32582e-10
5.4524e-11 -3.33448e-11 -9.87556e-12
-1.48319e-11 1.24024e-10 -1.34525e-10
1.02056e-11 1.83954e-11 -1.32291e-11
9.99513e-11 -6.81281e-11 -2.01324e-11
1.72755e-10 1.15978e-11 -7.75013e-12
-5.62025e-10 1.3762e-11 -4.5722e-11
-1.31573e-10 -8.71575e-11 -1.08661e-11
-2.84516e-12 1.23044e-10 -8.32831e-11
1.28666e-10 -7.27692e-11 1.51775e-10
6.59596e-11 -6.911e-12 7.77524e-12
4.1883e-10 1.02433e-10 -2.53511e-11
-2.07904e-10 -1.23413e-10 -5.68752e-10
1.28284e-10 3.90621e-11 -1.01208e-11
0.0 -6.3288e-29 0.0
-1.53381e-10 -2.15542e-10 5.27828e-11
1.25628e-11 9.43668e-11 -6.1986e-11
1.32368e-10 -1.94977e-10 -3.23171e-11
-1.86261e-10 -1.29131e-10 3.78136e-11
-6.19236e-11 1.33671e-10 -1.96169e-10
-2.21541e-10 4.89446e-11 2.78205e-11
-6.21393e-10 2.12551e-10 -1.54249e-10
-1.35977e-10 1.53983e-10 -9.60552e-11
1.18657e-11 3.56364e-11 -2.35787e-11
0.0 1.55425e-28 0.0
-6.27432e-11 2.89472e-11 1.32351e-11
5.88293e-11 1.51734e-10 -1.18394e-10
-1.34798e-10 -3.0085e-11 5.38449e-12
9.11623e-12 4.7922e-11 -5.44135e-11
8.83799e-11 4.78276e-12 5.50337e-12
1.85035e-11 1.2079e-10 -8.23316e-11
1.89399e-10 5.30338e-11 3.60348e-11
2.12617e-10 -5.69397e-11 3.31078e-11
2.4357e-10 1.44175e-11 4.15263e-11
-9.15166e-11 -4.36775e-10 4.60261e-11
-4.25935e-12 7.85535e-11 -5.83807e-11
4.04118e-11 2.3202e-10 -1.34914e-10
-1.55612e-10 -3.14533e-11 3.93039e-11
-1.06472e-11 -4.70825e-12 5.57598e-12
-1.29594e-10 -1.2445e-10 1.67602e-11
-4.05851e-11 3.33446e-11 -1.07131e-11
1.52821e-12 -1.37026e-11 4.14091e-12
1.01621e-12 5.38393e-12 3.41888e-12
-9.16523e-11 4.48565e-11 -3.36549e-11
2.17243e-11 -8.43942e-12 1.023e-11
-2.4078e-10 3.23356e-10 -1.50551e-10
-3.46126e-12 -1.98514e-11 8.34098e-12
-5.51192e-11 7.37768e-11 -5.79598e-11
-1.17392e-10 -2.81544e-11 7.01951e-11
2.57201e-23 -4.1359e-25 2.48154e-24
6.98705e-11 -1.151e-11 7.29036e-12
8.01936e-10 -9.67672e-10 8.3624e-11
-2.20931e-11 -2.48932e-11 -1.11621e-10
-3.21381e-11 -9.03743e-12 -3.77333e-12
3.90522e-11 -7.17587e-11 2.10583e-11
-9.03596e-13 4.41309e-11 7.73111e-12
-1.39595e-10 -8.31434e-11 4.17829e-11
-1.54828e-11 1.4106e-10 -6.75084e-11
2.3789e-10 1.15965e-10 -1.3475e-10
-2.80772e-11 -8.87803e-12 1.70376e-10
3.02337e-11 -1.48485e-10 2.27441e-11
1.29016e-11 1.29619e-11 -2.43166e-12
1.52341e-11 -1.15784e-10 8.07047e-11
-6.3348e-11 -2.95254e-12 6.02149e-11
-2.96397e-10 4.51812e-11 1.58353e-11
5.81112e-11 2.66701e-11 -1.09604e-12
7.75064e-11 -4.32898e-11 5.21599e-11
-3.99411e-11 1.67453e-10 9.81227e-11
1.14504e-12 3.87775e-11 6.68531e-11
-5.11641e-10 5.79343e-11 -1.00429e-10
2.5307e-11 -1.43047e-12 -1.16235e-10
6.13869e-11 9.3412e-11 -4.94533e-11
2.20372e-11 1.52456e-11 -3.79215e-10
6.3595e-10 -9.97172e-10 7.82435e-11
1.7128e-10 -1.84055e-10 -2.98417e-11
-5.88364e-11 1.81192e-10 -9.56816e-11
-1.78361e-23 4.4461e-23 1.59232e-23
1.80771e-12 4.48279e-12 -1.61921e-12
2.28059e-11 3.51188e-11 -9.56917e-13
-1.85961e-11 -1.14092e-11 6.09098e-12
-5.49243e-11 -1.16542e-11 7.06428e-12
4.78979e-12 -2.21602e-12 -1.80545e-12
-5.91454e-11 5.74522e-11 -4.61076e-11
5.12233e-11 1.01189e-10 -6.24521e-11
-7.70515e-10 4.05804e-10 -2.55506e-10
4.54499e-11 -9.47983e-11 -2.48384e-11
1.88467e-11 9.08197e-11 8.22624e-11
-8.54439e-14 3.28658e-11 -7.59207e-11
-1.49911e-10 -8.58197e-11 -2.68188e-11
1.73491e-11 2.00915e-10 -9.7104e-11
-1.22917e-10 6.28525e-11 1.25499e-11
1.86845e-10 -3.04225e-11 -8.03202e-12
3.64076e-10 2.95381e-10 -6.25798e-11
1.3973e-11 1.33398e-10 -2.60396e-11
-2.31302e-11 9.56746e-11 -1.61591e-11
-1.80186e-11 1.6016e-10 -9.35937e-11
