# vtk DataFile Version 3.0
LIGGGHTS particles timestep 83200000
ASCII
DATASET POLYDATA
POINTS 277 float
0.384463 0.0184929 5.23774e-05
0.384301 0.0189805 5.21642e-05
0.383622 0.0186622 9.87566e-05
0.384742 0.0166067 5.27426e-05
0.384769 0.0176546 5.27772e-05
0.384573 0.0181859 5.25217e-05
0.384641 0.0180115 5.26103e-05
0.383873 0.0192623 5.16043e-05
0.383644 0.0189308 5.1305e-05
0.383782 0.0177604 5.14854e-05
0.383658 0.0184147 5.13222e-05
0.383701 0.020264 5.13788e-05
0.384778 0.0202682 5.27896e-05
0.384389 0.0191923 5.22806e-05
0.384954 0.016092 5.30206e-05
0.383742 0.0192534 5.14322e-05
0.383996 0.0194081 5.17653e-05
0.383904 0.0179315 5.1645e-05
0.384143 0.0182979 0.000126284
0.383572 0.0183629 5.12101e-05
0.383958 0.0193152 5.17158e-05
0.384267 0.0180652 5.21202e-05
0.384093 0.0170102 5.18925e-05
0.384991 0.0181295 5.3068e-05
0.385072 0.0179786 5.31752e-05
0.384727 0.0168558 5.27234e-05
0.384072 0.0187342 5.18653e-05
0.383963 0.0186848 5.17224e-05
0.384201 0.0183491 5.20343e-05
0.384121 0.0180923 5.19296e-05
0.38389 0.0188816 5.16272e-05
0.383958 0.0182074 5.17151e-05
0.385095 0.017688 5.32053e-05
0.384958 0.0164394 5.30259e-05
0.384077 0.0189265 5.18717e-05
0.383688 0.0195993 5.13614e-05
0.384518 0.0169572 5.24494e-05
0.38426 0.0166344 5.21107e-05
0.384483 0.0171734 5.24027e-05
0.383724 0.0197361 5.14088e-05
0.384421 0.0181849 5.23226e-05
0.384993 0.0174167 5.30712e-05
0.384181 0.0171229 8.10837e-05
0.3847 0.0190509 5.26869e-05
0.383648 0.018453 0.00523041
0.384632 0.0170971 5.25984e-05
0.383708 0.0186156 5.13885e-05
0.384844 0.0175889 5.2876e-05
0.384145 0.0181726 0.00010648
0.38384 0.0184779 5.15616e-05
0.385615 0.0214721 5.38857e-05
0.385289 0.0155954 5.34584e-05
0.384417 0.0169583 5.23164e-05
0.383816 0.0181228 5.15286e-05
0.384303 0.0165428 5.21668e-05
0.384647 0.0163809 5.26185e-05
0.384202 0.0189952 5.20347e-05
0.38375 0.0200023 5.14426e-05
0.384262 0.0171738 5.21134e-05
0.384345 0.0186277 5.22225e-05
0.38385 0.0193719 5.15744e-05
0.384561 0.0173995 5.25059e-05
0.384445 0.017606 5.23539e-05
0.384911 0.0183156 5.29632e-05
0.384282 0.0173947 0.000119737
0.38475 0.0181974 5.27526e-05
0.383805 0.0179406 5.15146e-05
0.384105 0.0198839 5.19086e-05
0.384328 0.0179847 5.21996e-05
0.392848 0.0240513 6.33589e-05
0.3838 0.0185693 5.15086e-05
0.383701 0.0185084 5.13791e-05
0.383877 0.0209516 5.16096e-05
0.385016 0.0183256 5.31008e-05
0.383854 0.0202485 5.15791e-05
0.384048 0.0212951 5.18336e-05
0.384361 0.0187376 5.2244e-05
0.384195 0.017249 5.20259e-05
0.3845 0.017693 5.24253e-05
0.384682 0.0162685 5.26642e-05
0.384471 0.017049 5.23872e-05
0.384549 0.0176049 5.24901e-05
0.383494 0.0173478 0.0054729
0.38372 0.0181232 8.2146e-05
0.384345 0.0175634 5.22228e-05
0.384137 0.0201312 5.19506e-05
0.383992 0.0173185 5.17602e-05
0.384759 0.0186301 5.27642e-05
0.38404 0.0181503 5.18226e-05
0.384399 0.0172326 5.22932e-05
0.383915 0.0181167 5.16597e-05
0.383897 0.0200451 5.16352e-05
0.384891 0.0187149 5.29376e-05
0.383741 0.0204178 5.1432e-05
0.383629 0.0183138 0.00011713
0.383865 0.0180247 5.15942e-05
0.384155 0.0174135 5.1974e-05
0.38387 0.0197106 5.16005e-05
0.38444 0.0187992 5.23473e-05
0.383665 0.0180435 5.1332e-05
0.383999 0.0178974 5.17691e-05
0.384426 0.0196364 5.2329e-05
0.38423 0.0173427 5.20721e-05
0.384794 0.0185252 5.28101e-05
0.3846 0.018439 5.2556e-05
0.384191 0.0170278 5.20213e-05
0.38369 0.018817 5.13651e-05
0.384511 0.0167344 5.24399e-05
0.383574 0.0182623 5.12127e-05
0.383891 0.0177176 5.16273e-05
0.384958 0.0179526 5.30248e-05
0.384179 0.0184217 0.000117075
0.384054 0.020493 5.18408e-05
0.383776 0.0196495 5.14778e-05
0.384547 0.0180536 5.24868e-05
0.384093 0.0176028 5.18929e-05
0.384611 0.0176888 5.25713e-05
0.383942 0.0184888 0.000110211
0.384117 0.0178301 5.19242e-05
0.383744 0.0178549 5.1436e-05
0.383765 0.0191557 5.14624e-05
0.384541 0.0182923 5.24789e-05
0.384512 0.017269 5.24412e-05
0.383903 0.0185601 5.16433e-05
0.383769 0.0182229 5.1468e-05
0.383952 0.0187915 5.17083e-05
0.383939 0.0178143 5.16906e-05
0.3847 0.0174694 5.26876e-05
0.38419 0.0182498 5.20192e-05
0.384796 0.0179297 5.28125e-05
0.384031 0.0177664 5.18108e-05
0.384313 0.0188394 5.218e-05
0.384025 0.0172242 5.18033e-05
0.384664 0.0178542 5.26398e-05
0.383994 0.0176255 5.17625e-05
0.383705 0.0179475 5.1384e-05
0.384091 0.0182363 5.18893e-05
0.384116 0.0171992 8.63391e-05
0.383852 0.017905 0.000132304
0.384021 0.0185047 5.17983e-05
0.385429 0.0169726 5.36428e-05
0.384584 0.0165966 5.25358e-05
0.383691 0.0187163 5.13662e-05
0.384309 0.0170744 5.21755e-05
0.384701 0.0184572 5.26889e-05
0.384071 0.0214752 5.18636e-05
0.385633 0.0216555 5.39092e-05
0.383844 0.0178464 5.15662e-05
0.38363 0.0196815 5.1286e-05
0.384864 0.0181359 5.29025e-05
0.383638 0.0174895 0.00542994
0.384392 0.0171313 5.22839e-05
0.384534 0.0190665 5.24695e-05
0.384096 0.0185712 5.18962e-05
0.383762 0.0184057 5.14588e-05
0.384964 0.0177796 5.30337e-05
0.384772 0.0188263 5.2782e-05
0.383866 0.0182481 5.15953e-05
0.383855 0.0177776 0.00012329
0.386214 0.0156681 5.46708e-05
0.384385 0.0178441 5.22744e-05
0.385196 0.0174648 5.33366e-05
0.383958 0.0207152 5.17153e-05
0.385161 0.0175671 5.32906e-05
0.38393 0.0174051 5.16781e-05
0.384016 0.0184047 5.17913e-05
0.383992 0.0180808 0.000105294
0.384107 0.0184459 5.19107e-05
0.384015 0.0182639 0.000110922
0.384441 0.0185911 5.23488e-05
0.384091 0.0175001 5.18897e-05
0.384299 0.0167264 5.21625e-05
0.383658 0.0201562 5.13223e-05
0.383922 0.0175558 5.16677e-05
0.384614 0.0171968 5.25748e-05
0.384089 0.0183363 5.18866e-05
0.384612 0.0186756 5.25728e-05
0.383704 0.0194134 5.13829e-05
0.384328 0.0181504 5.21997e-05
0.384598 0.0189856 5.25545e-05
0.385564 0.0162643 5.38193e-05
0.38429 0.0182436 5.21501e-05
0.385034 0.0182199 5.31244e-05
0.383704 0.0183239 5.13824e-05
0.38403 0.0175545 0.000112202
0.384094 0.0179297 5.18933e-05
0.384617 0.0199188 5.25784e-05
0.384187 0.018771 5.20153e-05
0.383605 0.0182017 0.0001246
0.384467 0.0173601 5.23823e-05
0.383843 0.0176186 5.15653e-05
0.384614 0.0167309 5.25742e-05
0.383867 0.0190284 5.15963e-05
0.383959 0.0183217 5.17165e-05
0.384976 0.0184455 5.30495e-05
0.383589 0.0187437 5.1232e-05
0.384666 0.0185892 5.26424e-05
0.383833 0.0181885 0.000124817
0.384051 0.0180208 5.18373e-05
0.384086 0.01711 5.1883e-05
0.383668 0.0182279 5.13362e-05
0.385095 0.0173862 5.32046e-05
0.384177 0.0195914 5.20021e-05
0.384866 0.0177464 5.29047e-05
0.384392 0.0190207 5.22844e-05
0.383873 0.0187304 5.16045e-05
0.384048 0.0174014 5.18334e-05
0.384015 0.0197954 5.17901e-05
0.384355 0.0174059 5.22358e-05
0.384824 0.0158043 5.28494e-05
0.384355 0.017667 5.22354e-05
0.383898 0.017479 0.000110952
0.383765 0.018036 5.14632e-05
0.384511 0.0186633 5.24396e-05
0.384061 0.019295 5.18505e-05
0.384442 0.0191075 5.23499e-05
0.384903 0.0180439 5.29539e-05
0.384303 0.0172666 5.21676e-05
0.384431 0.017975 5.23354e-05
0.382429 0.0177398 0.00704905
0.38427 0.0174674 5.21245e-05
0.383992 0.0174844 5.17601e-05
0.38241 0.0176503 0.00708941
0.382448 0.017833 0.00701829
0.384064 0.0190614 5.18538e-05
0.382487 0.0180193 0.00695679
0.383626 0.0181371 5.12808e-05
0.383811 0.0176885 0.000115063
0.384164 0.0180013 5.19849e-05
0.384254 0.0184342 5.21032e-05
0.215741 0.019982 0.00563384
0.382468 0.0179261 0.00698754
0.384966 0.0186001 5.30361e-05
0.383654 0.0193029 5.13174e-05
0.384531 0.0164116 5.24654e-05
0.383577 0.0184743 5.12167e-05
0.383793 0.0186692 5.14997e-05
0.383842 0.018345 5.1563e-05
0.38687 0.0152658 5.55298e-05
0.383591 0.0185797 5.12345e-05
0.383876 0.0186432 0.000100436
0.383916 0.018412 5.16601e-05
0.382526 0.0182055 0.00689528
0.384105 0.0188286 5.19083e-05
0.384469 0.0174786 5.23843e-05
0.384329 0.0168914 5.22018e-05
0.383594 0.0188436 5.12384e-05
0.384527 0.0168455 5.24611e-05
0.38372 0.0185681 0.00522243
0.383593 0.0185793 0.000151222
0.383778 0.0187681 5.14794e-05
0.384762 0.0224884 5.27689e-05
0.384714 0.0183476 5.27052e-05
0.383897 0.0191595 5.16359e-05
0.383754 0.0195242 5.14479e-05
0.384186 0.0185079 5.20145e-05
0.384836 0.0182485 5.28661e-05
0.404182 0.0211142 0.0056569
0.382565 0.0183962 0.00685428
0.384586 0.0177863 5.25383e-05
0.382546 0.0182986 0.00686453
0.382507 0.0181124 0.00692604
0.383603 0.0173942 0.00545883
0.384005 0.0178296 0.000124992
0.38483 0.0183764 5.28582e-05
0.38464 0.018274 5.26082e-05
0.384228 0.0181572 5.20689e-05
0.383974 0.0179823 0.000102358
0.384702 0.01794 8.68423e-05
0.384403 0.0180741 5.22989e-05
0.384487 0.017802 5.24082e-05
0.384111 0.0173196 5.19163e-05
0.385008 0.017637 5.30902e-05
0.3842 0.0178242 0.00533209
0.384583 0.017927 5.25348e-05
0.384008 0.0191966 5.17809e-05
0.383616 0.0193868 9.00478e-05

VERTICES 277 554
1 0
1 1
1 2
1 3
1 4
1 5
1 6
1 7
1 8
1 9
1 10
1 11
1 12
1 13
1 14
1 15
1 16
1 17
1 18
1 19
1 20
1 21
1 22
1 23
1 24
1 25
1 26
1 27
1 28
1 29
1 30
1 31
1 32
1 33
1 34
1 35
1 36
1 37
1 38
1 39
1 40
1 41
1 42
1 43
1 44
1 45
1 46
1 47
1 48
1 49
1 50
1 51
1 52
1 53
1 54
1 55
1 56
1 57
1 58
1 59
1 60
1 61
1 62
1 63
1 64
1 65
1 66
1 67
1 68
1 69
1 70
1 71
1 72
1 73
1 74
1 75
1 76
1 77
1 78
1 79
1 80
1 81
1 82
1 83
1 84
1 85
1 86
1 87
1 88
1 89
1 90
1 91
1 92
1 93
1 94
1 95
1 96
1 97
1 98
1 99
1 100
1 101
1 102
1 103
1 104
1 105
1 106
1 107
1 108
1 109
1 110
1 111
1 112
1 113
1 114
1 115
1 116
1 117
1 118
1 119
1 120
1 121
1 122
1 123
1 124
1 125
1 126
1 127
1 128
1 129
1 130
1 131
1 132
1 133
1 134
1 135
1 136
1 137
1 138
1 139
1 140
1 141
1 142
1 143
1 144
1 145
1 146
1 147
1 148
1 149
1 150
1 151
1 152
1 153
1 154
1 155
1 156
1 157
1 158
1 159
1 160
1 161
1 162
1 163
1 164
1 165
1 166
1 167
1 168
1 169
1 170
1 171
1 172
1 173
1 174
1 175
1 176
1 177
1 178
1 179
1 180
1 181
1 182
1 183
1 184
1 185
1 186
1 187
1 188
1 189
1 190
1 191
1 192
1 193
1 194
1 195
1 196
1 197
1 198
1 199
1 200
1 201
1 202
1 203
1 204
1 205
1 206
1 207
1 208
1 209
1 210
1 211
1 212
1 213
1 214
1 215
1 216
1 217
1 218
1 219
1 220
1 221
1 222
1 223
1 224
1 225
1 226
1 227
1 228
1 229
1 230
1 231
1 232
1 233
1 234
1 235
1 236
1 237
1 238
1 239
1 240
1 241
1 242
1 243
1 244
1 245
1 246
1 247
1 248
1 249
1 250
1 251
1 252
1 253
1 254
1 255
1 256
1 257
1 258
1 259
1 260
1 261
1 262
1 263
1 264
1 265
1 266
1 267
1 268
1 269
1 270
1 271
1 272
1 273
1 274
1 275
1 276

POINT_DATA 277
SCALARS id int 1
LOOKUP_TABLE default
1
2
3
4
5
6
8
9
10
11
12
13
14
15
16
18
19
20
21
22
24
25
26
27
29
30
31
32
33
34
35
36
38
40
41
42
43
44
45
46
47
48
49
50
52
55
56
57
58
59
60
61
62
63
64
65
66
67
68
69
70
71
72
73
74
75
76
77
78
79
80
81
82
83
84
85
86
87
88
89
90
91
92
93
94
95
96
98
99
100
101
102
103
104
105
106
107
108
109
110
111
113
114
115
116
117
118
119
120
121
122
123
124
125
126
127
128
129
130
131
132
133
134
135
136
137
138
139
140
141
142
144
145
146
147
148
149
150
152
153
154
155
156
157
158
159
160
161
162
164
165
166
167
168
169
170
171
172
173
174
175
176
177
178
179
180
181
182
183
184
185
186
187
188
189
191
192
193
194
195
196
197
198
199
200
201
202
203
204
205
206
207
208
210
211
213
214
215
217
218
220
221
222
223
224
225
226
227
228
229
230
231
232
233
234
235
236
237
238
239
241
242
243
244
245
246
247
248
249
250
251
252
253
254
255
256
257
258
259
260
261
262
263
264
265
267
268
269
270
271
272
273
274
275
276
277
278
279
280
281
282
283
284
285
286
287
288
289
290
292
293
294
295
296
297
298
300

SCALARS type int 1
LOOKUP_TABLE default
1
1
1
1
1
1
1
1
1
1
1
1
1
1
1
1
1
1
1
1
1
1
1
1
1
1
1
1
1
1
1
1
1
1
1
1
1
1
1
1
1
1
1
1
1
1
1
1
1
1
1
1
1
1
1
1
1
1
1
1
1
1
1
1
1
1
1
1
1
1
1
1
1
1
1
1
1
1
1
1
1
1
1
1
1
1
1
1
1
1
1
1
1
1
1
1
1
1
1
1
1
1
1
1
1
1
1
1
1
1
1
1
1
1
1
1
1
1
1
1
1
1
1
1
1
1
1
1
1
1
1
1
1
1
1
1
1
1
1
1
1
1
1
1
1
1
1
1
1
1
1
1
1
1
1
1
1
1
1
1
1
1
1
1
1
1
1
1
1
1
1
1
1
1
1
1
1
1
1
1
1
1
1
1
1
1
1
1
1
1
1
1
1
1
1
1
1
1
1
1
1
1
1
1
1
1
1
1
1
1
1
1
1
1
1
1
1
1
1
1
1
1
1
1
1
1
1
1
1
1
1
1
1
1
1
1
1
1
1
1
1
1
1
1
1
1
1
1
1
1
1
1
1
1
1
1
1
1
1
1
1
1
1
1
1
1
1
1
1
1
1
1
1
1
1
1
1

SCALARS radius float 1
LOOKUP_TABLE default
5e-05
5e-05
5e-05
5e-05
5e-05
5e-05
5e-05
5e-05
5e-05
5e-05
5e-05
5e-05
5e-05
5e-05
5e-05
5e-05
5e-05
5e-05
5e-05
5e-05
5e-05
5e-05
5e-05
5e-05
5e-05
5e-05
5e-05
5e-05
5e-05
5e-05
5e-05
5e-05
5e-05
5e-05
5e-05
5e-05
5e-05
5e-05
5e-05
5e-05
5e-05
5e-05
5e-05
5e-05
5e-05
5e-05
5e-05
5e-05
5e-05
5e-05
5e-05
5e-05
5e-05
5e-05
5e-05
5e-05
5e-05
5e-05
5e-05
5e-05
5e-05
5e-05
5e-05
5e-05
5e-05
5e-05
5e-05
5e-05
5e-05
5e-05
5e-05
5e-05
5e-05
5e-05
5e-05
5e-05
5e-05
5e-05
5e-05
5e-05
5e-05
5e-05
5e-05
5e-05
5e-05
5e-05
5e-05
5e-05
5e-05
5e-05
5e-05
5e-05
5e-05
5e-05
5e-05
5e-05
5e-05
5e-05
5e-05
5e-05
5e-05
5e-05
5e-05
5e-05
5e-05
5e-05
5e-05
5e-05
5e-05
5e-05
5e-05
5e-05
5e-05
5e-05
5e-05
5e-05
5e-05
5e-05
5e-05
5e-05
5e-05
5e-05
5e-05
5e-05
5e-05
5e-05
5e-05
5e-05
5e-05
5e-05
5e-05
5e-05
5e-05
5e-05
5e-05
5e-05
5e-05
5e-05
5e-05
5e-05
5e-05
5e-05
5e-05
5e-05
5e-05
5e-05
5e-05
5e-05
5e-05
5e-05
5e-05
5e-05
5e-05
5e-05
5e-05
5e-05
5e-05
5e-05
5e-05
5e-05
5e-05
5e-05
5e-05
5e-05
5e-05
5e-05
5e-05
5e-05
5e-05
5e-05
5e-05
5e-05
5e-05
5e-05
5e-05
5e-05
5e-05
5e-05
5e-05
5e-05
5e-05
5e-05
5e-05
5e-05
5e-05
5e-05
5e-05
5e-05
5e-05
5e-05
5e-05
5e-05
5e-05
5e-05
5e-05
5e-05
5e-05
5e-05
5e-05
5e-05
5e-05
5e-05
5e-05
5e-05
5e-05
5e-05
5e-05
5e-05
5e-05
5e-05
5e-05
5e-05
5e-05
5e-05
5e-05
5e-05
5e-05
5e-05
5e-05
5e-05
5e-05
5e-05
5e-05
5e-05
5e-05
5e-05
5e-05
5e-05
5e-05
5e-05
5e-05
5e-05
5e-05
5e-05
5e-05
5e-05
5e-05
5e-05
5e-05
5e-05
5e-05
5e-05
5e-05
5e-05
5e-05
5e-05
5e-05
5e-05
5e-05
5e-05
5e-05
5e-05
5e-05
5e-05
5e-05
5e-05
5e-05
5e-05
5e-05
5e-05
5e-05
5e-05
5e-05
5e-05
5e-05
5e-05
5e-05
5e-05
5e-05
5e-05
5e-05
5e-05
5e-05
5e-05
5e-05
5e-05
5e-05

SCALARS mass float 1
LOOKUP_TABLE default
1.46608e-10
1.46608e-10
1.46608e-10
1.46608e-10
1.46608e-10
1.46608e-10
1.46608e-10
1.46608e-10
1.46608e-10
1.46608e-10
1.46608e-10
1.46608e-10
1.46608e-10
1.46608e-10
1.46608e-10
1.46608e-10
1.46608e-10
1.46608e-10
1.46608e-10
1.46608e-10
1.46608e-10
1.46608e-10
1.46608e-10
1.46608e-10
1.46608e-10
1.46608e-10
1.46608e-10
1.46608e-10
1.46608e-10
1.46608e-10
1.46608e-10
1.46608e-10
1.46608e-10
1.46608e-10
1.46608e-10
1.46608e-10
1.46608e-10
1.46608e-10
1.46608e-10
1.46608e-10
1.46608e-10
1.46608e-10
1.46608e-10
1.46608e-10
1.46608e-10
1.46608e-10
1.46608e-10
1.46608e-10
1.46608e-10
1.46608e-10
1.46608e-10
1.46608e-10
1.46608e-10
1.46608e-10
1.46608e-10
1.46608e-10
1.46608e-10
1.46608e-10
1.46608e-10
1.46608e-10
1.46608e-10
1.46608e-10
1.46608e-10
1.46608e-10
1.46608e-10
1.46608e-10
1.46608e-10
1.46608e-10
1.46608e-10
1.46608e-10
1.46608e-10
1.46608e-10
1.46608e-10
1.46608e-10
1.46608e-10
1.46608e-10
1.46608e-10
1.46608e-10
1.46608e-10
1.46608e-10
1.46608e-10
1.46608e-10
1.46608e-10
1.46608e-10
1.46608e-10
1.46608e-10
1.46608e-10
1.46608e-10
1.46608e-10
1.46608e-10
1.46608e-10
1.46608e-10
1.46608e-10
1.46608e-10
1.46608e-10
1.46608e-10
1.46608e-10
1.46608e-10
1.46608e-10
1.46608e-10
1.46608e-10
1.46608e-10
1.46608e-10
1.46608e-10
1.46608e-10
1.46608e-10
1.46608e-10
1.46608e-10
1.46608e-10
1.46608e-10
1.46608e-10
1.46608e-10
1.46608e-10
1.46608e-10
1.46608e-10
1.46608e-10
1.46608e-10
1.46608e-10
1.46608e-10
1.46608e-10
1.46608e-10
1.46608e-10
1.46608e-10
1.46608e-10
1.46608e-10
1.46608e-10
1.46608e-10
1.46608e-10
1.46608e-10
1.46608e-10
1.46608e-10
1.46608e-10
1.46608e-10
1.46608e-10
1.46608e-10
1.46608e-10
1.46608e-10
1.46608e-10
1.46608e-10
1.46608e-10
1.46608e-10
1.46608e-10
1.46608e-10
1.46608e-10
1.46608e-10
1.46608e-10
1.46608e-10
1.46608e-10
1.46608e-10
1.46608e-10
1.46608e-10
1.46608e-10
1.46608e-10
1.46608e-10
1.46608e-10
1.46608e-10
1.46608e-10
1.46608e-10
1.46608e-10
1.46608e-10
1.46608e-10
1.46608e-10
1.46608e-10
1.46608e-10
1.46608e-10
1.46608e-10
1.46608e-10
1.46608e-10
1.46608e-10
1.46608e-10
1.46608e-10
1.46608e-10
1.46608e-10
1.46608e-10
1.46608e-10
1.46608e-10
1.46608e-10
1.46608e-10
1.46608e-10
1.46608e-10
1.46608e-10
1.46608e-10
1.46608e-10
1.46608e-10
1.46608e-10
1.46608e-10
1.46608e-10
1.46608e-10
1.46608e-10
1.46608e-10
1.46608e-10
1.46608e-10
1.46608e-10
1.46608e-10
1.46608e-10
1.46608e-10
1.46608e-10
1.46608e-10
1.46608e-10
1.46608e-10
1.46608e-10
1.46608e-10
1.46608e-10
1.46608e-10
1.46608e-10
1.46608e-10
1.46608e-10
1.46608e-10
1.46608e-10
1.46608e-10
1.46608e-10
1.46608e-10
1.46608e-10
1.46608e-10
1.46608e-10
1.46608e-10
1.46608e-10
1.46608e-10
1.46608e-10
1.46608e-10
1.46608e-10
1.46608e-10
1.46608e-10
1.46608e-10
1.46608e-10
1.46608e-10
1.46608e-10
1.46608e-10
1.46608e-10
1.46608e-10
1.46608e-10
1.46608e-10
1.46608e-10
1.46608e-10
1.46608e-10
1.46608e-10
1.46608e-10
1.46608e-10
1.46608e-10
1.46608e-10
1.46608e-10
1.46608e-10
1.46608e-10
1.46608e-10
1.46608e-10
1.46608e-10
1.46608e-10
1.46608e-10
1.46608e-10
1.46608e-10
1.46608e-10
1.46608e-10
1.46608e-10
1.46608e-10
1.46608e-10
1.46608e-10
1.46608e-10
1.46608e-10
1.46608e-10
1.46608e-10
1.46608e-10
1.46608e-10
1.46608e-10
1.46608e-10
1.46608e-10
1.46608e-10
1.46608e-10
1.46608e-10
1.46608e-10
1.46608e-10
1.46608e-10
1.46608e-10
1.46608e-10
1.46608e-10
1.46608e-10
1.46608e-10
1.46608e-10

VECTORS velocity float
1.7976e-18 -1.11126e-22 -1.37251e-15
-6.30123e-14 -4.24467e-13 1.19483e-15
-4.93804e-19 7.91042e-19 -4.11327e-16
2.24036e-18 5.67061e-22 -1.71052e-15
1.79759e-18 -2.99732e-21 -1.37251e-15
1.79763e-18 1.20655e-20 -1.37251e-15
-6.28495e-19 6.72349e-21 4.80091e-16
-3.50182e-19 -5.0814e-21 2.67381e-16
-3.50194e-19 -2.61389e-22 2.6738e-16
-5.10346e-16 -2.25289e-15 -3.52576e-15
2.81056e-18 8.98567e-22 -2.14593e-15
-3.5017e-19 -9.36663e-22 2.67381e-16
8.71379e-19 -8.22029e-21 -6.65298e-16
3.53834e-19 7.77545e-22 -2.6883e-16
-9.20538e-19 -1.31746e-21 7.02843e-16
-3.50211e-19 4.92114e-21 2.67381e-16
2.81056e-18 1.03436e-21 -2.14593e-15
-2.9362e-14 -9.6578e-14 5.9754e-15
-7.93401e-20 1.31936e-19 -7.62448e-17
-3.15842e-13 -3.42506e-13 6.03244e-15
-3.50169e-19 -1.25895e-21 2.67381e-16
1.79761e-18 -1.20784e-22 -1.37251e-15
-9.20519e-19 1.46117e-23 7.02844e-16
1.79758e-18 -1.3276e-20 -1.37249e-15
1.79761e-18 2.46376e-21 -1.37251e-15
2.24032e-18 -7.51066e-22 -1.71052e-15
-3.50211e-19 2.11224e-21 2.67381e-16
2.81056e-18 7.8434e-22 -2.14593e-15
-3.49851e-19 2.46489e-21 2.68569e-16
-3.16735e-15 -7.81228e-15 -1.31804e-15
-3.50222e-19 -9.25688e-21 2.67382e-16
8.59798e-15 -5.70045e-13 5.78677e-14
1.79763e-18 -9.25274e-21 -1.37251e-15
-9.20517e-19 -9.88452e-22 7.02842e-16
2.81058e-18 -6.17667e-23 -2.14593e-15
1.18289e-18 -4.13023e-20 -9.39254e-16
2.24034e-18 -2.10601e-21 -1.71052e-15
2.24035e-18 -2.62285e-22 -1.71052e-15
2.24036e-18 1.95285e-21 -1.71052e-15
-3.50205e-19 -1.43756e-21 2.67381e-16
-3.86473e-15 1.05045e-14 1.78398e-15
2.24036e-18 -1.32482e-21 -1.71051e-15
-4.50016e-19 -2.82755e-21 3.48021e-16
-3.50168e-19 2.0543e-22 2.67381e-16
-2.82535e-15 1.87927e-14 2.4561e-13
2.24036e-18 2.22754e-22 -1.71052e-15
2.81055e-18 1.75985e-21 -2.14593e-15
1.79759e-18 -9.57284e-23 -1.37249e-15
-1.61374e-13 -1.01905e-13 2.45706e-14
5.12678e-13 2.27103e-13 1.58663e-17
2.92962e-18 -8.41093e-21 -2.23681e-15
1.45285e-18 1.54631e-20 -1.10924e-15
2.24036e-18 7.79774e-22 -1.71052e-15
-2.30846e-12 -2.05963e-12 -3.43237e-13
2.24035e-18 5.23813e-22 -1.71052e-15
2.24034e-18 1.24664e-21 -1.71052e-15
6.29333e-14 4.23952e-13 1.3605e-15
2.81059e-18 -3.20709e-21 -2.14593e-15
-4.54718e-19 -5.40255e-21 3.48024e-16
1.79764e-18 8.26554e-21 -1.37251e-15
-3.50219e-19 -4.10677e-22 2.67381e-16
2.24033e-18 2.53056e-21 -1.71052e-15
2.24031e-18 1.78373e-21 -1.71052e-15
1.79757e-18 -1.57369e-21 -1.37249e-15
1.15543e-18 -1.707e-20 -8.8553e-16
1.79762e-18 -2.72503e-22 -1.37251e-15
1.89464e-14 -6.37696e-14 -1.9855e-14
2.81059e-18 -2.89122e-20 -2.14593e-15
1.7976e-18 -9.37069e-22 -1.37251e-15
1.64367e-18 1.10437e-20 -1.25496e-15
-5.79003e-13 -2.56483e-13 -1.41384e-15
2.81057e-18 -1.54927e-20 -2.14593e-15
2.00505e-18 -2.88314e-20 -1.5309e-15
1.7976e-18 1.79052e-21 -1.37249e-15
-3.50219e-19 -1.26671e-20 2.6738e-16
2.00507e-18 3.02415e-22 -1.5309e-15
1.7976e-18 2.79973e-22 -1.37251e-15
-4.59239e-19 -2.57894e-21 3.48022e-16
2.24032e-18 1.19546e-21 -1.71051e-15
2.24033e-18 1.84172e-21 -1.71052e-15
2.24031e-18 -4.24134e-21 -1.71051e-15
2.24033e-18 -2.99191e-21 -1.71052e-15
4.52868e-18 -1.80377e-14 -5.94669e-14
-2.78181e-11 -2.81792e-11 -6.09174e-12
2.24034e-18 -1.87303e-20 -1.71052e-15
8.71339e-19 -1.08184e-20 -6.65298e-16
-4.60154e-19 1.47454e-21 3.48025e-16
1.79759e-18 -3.89024e-23 -1.37251e-15
-6.36779e-13 4.33921e-14 8.37637e-14
2.24036e-18 -4.5906e-21 -1.71052e-15
2.36907e-13 1.28786e-12 1.93311e-13
2.81057e-18 3.79301e-21 -2.14593e-15
1.79761e-18 1.41363e-21 -1.37251e-15
-3.50192e-19 -9.06918e-21 2.67382e-16
-3.3794e-12 3.03566e-14 -2.474e-13
2.24035e-18 -1.29757e-21 -1.71052e-15
-9.20528e-19 -5.05088e-22 7.02843e-16
2.81059e-18 -3.58417e-20 -2.14593e-15
1.79758e-18 -7.04008e-21 -1.37249e-15
2.24036e-18 9.0086e-23 -1.71051e-15
-1.5464e-16 4.6695e-15 2.51547e-15
-3.5021e-19 -9.59557e-22 2.6738e-16
1.1602e-18 -1.06148e-21 -8.8553e-16
1.79764e-18 -1.54034e-21 -1.37251e-15
1.7976e-18 1.81452e-22 -1.37249e-15
-4.5414e-19 -2.66072e-22 3.48025e-16
2.81057e-18 3.27944e-22 -2.14593e-15
2.24035e-18 -6.29258e-20 -1.71051e-15
2.36684e-13 -7.93827e-13 -2.7189e-14
1.10673e-14 -1.96107e-14 9.52496e-16
1.79762e-18 -1.84382e-21 -1.37251e-15
-3.4961e-19 5.46595e-21 2.68566e-16
8.71358e-19 3.68083e-20 -6.65297e-16
2.81055e-18 9.08414e-23 -2.14593e-15
1.79762e-18 -3.17065e-20 -1.37251e-15
2.04802e-19 -9.06289e-22 -1.54936e-16
1.7976e-18 4.69976e-22 -1.37251e-15
-5.83782e-14 -5.58012e-14 -1.69592e-15
-9.2055e-19 -2.18071e-21 7.02844e-16
-9.20558e-19 -1.91639e-23 7.02844e-16
-3.50185e-19 -6.25025e-22 2.67382e-16
1.79761e-18 8.29791e-23 -1.37251e-15
2.24032e-18 -1.87276e-21 -1.71051e-15
-3.99268e-14 -1.72206e-14 1.17647e-14
1.79755e-18 5.79487e-21 -1.37249e-15
-3.23065e-15 2.42125e-15 -2.68868e-16
-4.24363e-15 -1.24655e-14 -3.22765e-15
2.24033e-18 -1.64924e-21 -1.71052e-15
9.84775e-20 3.91257e-22 -7.64879e-17
-6.28387e-19 4.49237e-22 4.80093e-16
-1.94484e-15 3.26311e-15 7.22965e-16
-3.50195e-19 3.06618e-21 2.67382e-16
-4.54033e-19 4.34401e-21 3.48023e-16
-6.30473e-19 8.93862e-21 4.80092e-16
2.04433e-19 2.75677e-21 -1.54936e-16
7.11127e-15 7.18686e-15 -3.08782e-15
-5.7442e-14 3.94427e-14 2.31225e-15
-4.5552e-19 1.08121e-20 3.48022e-16
1.57101e-13 -5.34491e-13 -2.17257e-14
2.91604e-14 8.65713e-14 -1.50634e-14
1.45286e-18 1.0925e-20 -1.10923e-15
2.24033e-18 -3.59238e-21 -1.71052e-15
4.90858e-19 5.57942e-22 -4.11004e-16
2.24035e-18 3.15443e-21 -1.71052e-15
1.79758e-18 1.14507e-21 -1.37249e-15
2.00504e-18 8.63864e-22 -1.5309e-15
-2.31222e-19 6.2593e-22 1.76521e-16
1.4985e-14 -4.80248e-14 6.41607e-15
-1.45248e-22 4.51554e-24 -1.18916e-23
1.79759e-18 -6.3827e-23 -1.37249e-15
4.50232e-18 -1.80377e-14 -5.94669e-14
2.24035e-18 1.29997e-21 -1.71051e-15
3.48593e-19 1.13669e-21 -2.68831e-16
1.79764e-18 4.60261e-22 -1.37251e-15
1.79764e-18 -5.11108e-24 -1.37251e-15
1.79762e-18 -5.40744e-21 -1.37251e-15
1.79758e-18 -1.35786e-21 -1.37249e-15
-1.99251e-12 -9.70086e-13 -1.03288e-13
-6.74333e-14 -1.15293e-13 -1.12731e-14
1.45284e-18 1.17615e-20 -1.10923e-15
1.79764e-18 5.53332e-22 -1.37251e-15
1.79763e-18 8.95584e-22 -1.37251e-15
2.00505e-18 3.30259e-20 -1.5309e-15
1.79764e-18 2.86138e-21 -1.37251e-15
6.18552e-22 3.54743e-21 7.18022e-21
9.0452e-20 -2.26153e-20 -7.60032e-17
-2.85947e-12 1.31366e-12 -1.46424e-14
-3.49592e-19 -5.4545e-22 2.6857e-16
-8.05463e-13 7.32599e-13 9.89437e-14
1.79764e-18 5.1007e-23 -1.37251e-15
2.24034e-18 4.56366e-23 -1.71052e-15
-9.20572e-19 -6.88752e-21 7.02844e-16
-3.50207e-19 3.4297e-21 2.67382e-16
1.05269e-21 1.77442e-21 -9.2024e-21
2.24036e-18 -7.22758e-21 -1.71052e-15
9.75155e-20 7.08334e-22 -7.60032e-17
1.79762e-18 -1.0114e-21 -1.37251e-15
5.601e-22 5.02262e-21 7.72249e-21
3.97246e-15 -1.08116e-14 1.79435e-15
2.81059e-18 3.10835e-20 -2.14593e-15
1.45285e-18 4.38492e-23 -1.10923e-15
1.09273e-19 1.73673e-21 -7.64912e-17
1.79763e-18 5.78381e-22 -1.37251e-15
-3.24588e-13 -3.92224e-13 -9.34045e-14
2.05128e-19 4.067e-21 -1.54933e-16
2.24034e-18 -2.42811e-23 -1.71052e-15
8.71387e-19 1.38576e-20 -6.65298e-16
-3.50198e-19 2.01285e-22 2.67381e-16
1.00208e-11 -1.6587e-12 -4.62973e-13
2.24032e-18 2.70602e-22 -1.71051e-15
-9.94976e-16 -3.47527e-15 -2.53243e-15
2.24034e-18 4.22542e-22 -1.71052e-15
-3.50222e-19 -5.56757e-21 2.6738e-16
-1.06873e-13 4.54361e-14 1.53964e-14
1.79761e-18 2.35283e-21 -1.37251e-15
4.58841e-19 1.70699e-20 -4.11494e-16
1.79755e-18 -2.43066e-23 -1.37249e-15
-1.3103e-11 -3.11112e-12 -7.12903e-13
-2.46023e-13 -3.13109e-14 -4.11252e-14
-4.63461e-19 5.8452e-21 3.48024e-16
1.7976e-18 -1.92063e-21 -1.37249e-15
1.79759e-18 -1.71866e-21 -1.37249e-15
-3.50181e-19 -3.22072e-21 2.67381e-16
1.7976e-18 -6.04431e-22 -1.37251e-15
2.81056e-18 -7.52372e-23 -2.14593e-15
3.59967e-15 -4.08046e-15 4.1477e-15
2.0294e-19 3.11093e-23 -1.54943e-16
2.81056e-18 -7.81045e-22 -2.14593e-15
1.1645e-18 3.97012e-23 -8.85537e-16
2.24033e-18 2.6029e-22 -1.71052e-15
2.24036e-18 7.14543e-24 -1.71052e-15
1.48716e-21 -6.89281e-22 9.7587e-22
2.24034e-18 2.61937e-22 -1.71052e-15
1.79756e-18 -4.97605e-22 -1.37249e-15
-3.50191e-19 -4.39675e-23 2.67382e-16
3.53022e-19 2.18109e-21 -2.68828e-16
1.79763e-18 6.10733e-23 -1.37251e-15
-9.20568e-19 -1.01703e-21 7.02843e-16
1.79756e-18 -1.36951e-21 -1.37249e-15
0.00432905 -0.000454505 -1.55416e-05
1.1625e-18 -5.09448e-21 -8.85528e-16
2.01446e-19 -1.2027e-21 -1.54943e-16
0.00430139 -0.000545413 -0.000230068
0.00433825 -0.000456344 -1.52911e-05
-3.50218e-19 -2.06446e-20 2.67381e-16
0.00438761 -0.00046624 -1.39628e-05
3.13955e-12 -1.11706e-12 1.35521e-13
-1.53058e-14 -9.31585e-15 -6.84489e-15
1.79757e-18 9.62864e-22 -1.37249e-15
-3.43879e-19 1.0168e-21 2.68561e-16
6.80271e-15 2.29888e-14 -7.03249e-14
0.00434745 -0.000458195 -1.50717e-05
1.79757e-18 6.62102e-22 -1.37249e-15
-1.95199e-21 2.43013e-21 -1.68321e-21
2.24031e-18 -1.72786e-20 -1.71051e-15
-3.50221e-19 -1.12459e-22 2.67382e-16
1.81157e-14 -6.40499e-15 6.7145e-15
-1.26575e-13 1.81411e-13 -1.24555e-14
1.45283e-18 1.75205e-21 -1.10923e-15
6.08571e-19 -6.62121e-20 -4.11463e-16
2.53606e-14 -4.55413e-15 1.61259e-14
3.06796e-14 -8.90464e-15 -1.36847e-14
0.00440896 -0.000470525 -1.33819e-05
-3.50222e-19 -6.38646e-24 2.67381e-16
2.24032e-18 -2.76257e-21 -1.71052e-15
2.24033e-18 -7.08625e-21 -1.71051e-15
5.64679e-19 -1.57943e-20 -4.1151e-16
2.24032e-18 1.38081e-20 -1.71052e-15
6.88126e-16 -4.5769e-15 -5.98175e-14
-2.61733e-17 8.24389e-18 -2.30395e-15
-3.50199e-19 -3.17271e-22 2.6738e-16
2.00504e-18 1.24152e-22 -1.5309e-15
1.79763e-18 -3.69315e-21 -1.37251e-15
2.81057e-18 -5.45053e-22 -2.14593e-15
1.27727e-18 4.17256e-20 -9.39254e-16
1.79755e-18 4.32239e-22 -1.37249e-15
1.7976e-18 3.3598e-22 -1.37249e-15
-1.28206e-14 6.09116e-14 -1.90218e-13
0.00440981 -0.000464348 4.71318e-05
1.79762e-18 -4.33576e-23 -1.37251e-15
0.00441967 -0.000472676 -1.30709e-05
0.00439829 -0.000468381 -1.36662e-05
5.05528e-18 -1.80378e-14 -5.94669e-14
-1.04955e-14 3.35953e-14 3.57029e-15
1.79763e-18 -4.41103e-22 -1.37251e-15
1.79761e-18 -5.81269e-22 -1.37249e-15
-1.94034e-14 6.79722e-15 1.01653e-14
-1.10441e-12 5.44188e-13 -2.11223e-13
-6.34302e-19 9.44351e-22 4.80092e-16
1.79764e-18 9.27217e-23 -1.37251e-15
1.79763e-18 -1.91345e-21 -1.37251e-15
2.24036e-18 -5.76841e-22 -1.71051e-15
1.7976e-18 4.12838e-21 -1.37251e-15
-2.09032e-15 5.04126e-14 2.1718e-13
1.79758e-18 -7.54519e-21 -1.37249e-15
2.81054e-18 5.45145e-21 -2.14593e-15
6.8458e-21 1.0247e-21 -4.78921e-21

VECTORS force float
0.0 -2.38561e-27 0.0
-1.21079e-18 -8.15641e-18 -1.58777e-21
5.16988e-25 -3.36042e-25 -2.06795e-25
0.0 -5.29689e-27 0.0
0.0 -1.26046e-25 0.0
0.0 -5.25974e-25 0.0
0.0 0.0 0.0
0.0 7.64557e-26 0.0
0.0 4.55806e-27 0.0
-4.02279e-21 -2.5198e-21 -1.76442e-20
0.0 -1.91731e-26 0.0
4.03897e-28 1.7329e-27 0.0
0.0 1.98879e-26 0.0
0.0 0.0 0.0
4.03897e-28 1.42297e-25 0.0
0.0 8.90634e-27 0.0
-4.03897e-28 -9.4688e-27 0.0
9.09591e-20 -3.12041e-19 2.48278e-19
0.0 -5.16988e-26 0.0
-5.63615e-21 4.16212e-18 5.03445e-19
0.0 -4.63349e-27 0.0
0.0 1.32829e-27 0.0
0.0 -4.77846e-28 0.0
0.0 -4.50315e-26 0.0
0.0 -1.32087e-25 0.0
0.0 -1.79757e-26 0.0
0.0 1.36023e-25 0.0
0.0 5.30581e-27 0.0
0.0 0.0 0.0
8.71244e-20 -7.93254e-20 -2.33286e-20
0.0 6.14839e-27 0.0
-9.92056e-19 1.62586e-18 -1.96567e-19
0.0 2.29009e-25 0.0
0.0 2.44867e-27 0.0
0.0 3.26471e-27 0.0
1.06629e-25 9.69352e-26 -2.06795e-25
0.0 -1.25204e-26 0.0
4.03897e-28 -1.99527e-26 0.0
0.0 -3.26194e-27 0.0
4.03897e-28 -8.97118e-27 0.0
-8.71653e-19 2.37079e-18 -1.14627e-21
0.0 -1.65637e-25 0.0
1.03398e-25 0.0 0.0
0.0 -3.19063e-27 0.0
2.2489e-24 4.78214e-25 0.0
0.0 -2.1112e-26 0.0
4.03897e-28 1.13372e-26 0.0
0.0 4.58315e-25 0.0
-9.08654e-19 -5.43682e-19 -6.08735e-20
-1.18955e-17 -5.26942e-18 -1.55876e-20
0.0 -5.95409e-26 0.0
0.0 -2.55942e-25 0.0
0.0 -3.53618e-27 0.0
-6.59282e-17 6.03398e-18 3.09599e-17
0.0 -1.22734e-26 0.0
4.03897e-28 2.94951e-26 0.0
1.27651e-18 8.59905e-18 1.6738e-21
0.0 2.19646e-26 0.0
0.0 0.0 0.0
-4.03897e-28 1.6708e-26 0.0
0.0 -8.57513e-27 0.0
0.0 3.55227e-26 0.0
0.0 1.38225e-25 0.0
0.0 1.35116e-27 0.0
-5.16988e-26 -1.9387e-26 0.0
0.0 1.42255e-26 0.0
2.05005e-19 1.96667e-19 1.81702e-19
0.0 -2.54053e-25 0.0
0.0 1.24327e-26 0.0
0.0 -4.7181e-25 0.0
1.25537e-17 5.56097e-18 1.64499e-20
0.0 -4.89197e-25 0.0
0.0 9.24077e-26 0.0
4.03897e-28 2.65561e-27 0.0
0.0 1.41823e-25 0.0
0.0 5.03371e-26 0.0
0.0 -2.03685e-26 0.0
0.0 0.0 0.0
0.0 -2.84628e-26 0.0
4.03897e-28 -1.52338e-25 0.0
0.0 6.31426e-26 0.0
0.0 2.91341e-26 0.0
-3.44588e-23 -5.16988e-26 0.0
7.83005e-17 1.28953e-16 1.29715e-17
0.0 -5.74281e-27 0.0
0.0 -7.6733e-26 0.0
0.0 0.0 0.0
0.0 -3.54929e-27 0.0
6.07229e-19 -4.26247e-18 -1.14561e-18
0.0 -8.00249e-27 0.0
-2.39608e-18 -3.4808e-18 -9.77461e-19
0.0 -5.13958e-26 0.0
0.0 2.26427e-26 0.0
0.0 4.53066e-26 0.0
4.11349e-18 -8.43966e-19 1.40658e-18
0.0 3.95015e-27 0.0
0.0 2.7258e-27 0.0
0.0 -5.49911e-25 0.0
-4.03897e-28 3.79539e-26 0.0
0.0 3.3075e-27 0.0
4.76249e-21 -5.1278e-21 2.50822e-20
0.0 4.31309e-26 0.0
5.16988e-26 5.16988e-26 0.0
0.0 -2.8486e-26 0.0
0.0 -5.84666e-29 0.0
0.0 0.0 0.0
4.03897e-28 1.64052e-27 0.0
-4.03897e-28 4.91146e-25 0.0
-1.54659e-18 3.9701e-18 4.5893e-18
-6.92213e-21 1.20786e-19 4.37459e-20
0.0 -1.05192e-26 0.0
0.0 0.0 0.0
0.0 4.90416e-26 0.0
0.0 2.45763e-26 0.0
0.0 -3.72469e-25 0.0
0.0 0.0 0.0
0.0 -1.12572e-27 0.0
1.93433e-19 1.84514e-19 -9.26781e-20
0.0 -3.81723e-26 0.0
0.0 -1.53698e-28 0.0
0.0 6.21712e-27 0.0
0.0 -6.56852e-27 0.0
0.0 -1.00788e-26 0.0
1.55401e-19 4.80749e-19 3.51184e-20
0.0 -5.29869e-26 0.0
-2.0911e-20 1.67581e-20 4.04134e-20
1.19295e-23 1.00199e-20 2.34961e-20
0.0 -1.81233e-26 0.0
-1.29247e-26 5.16988e-26 0.0
0.0 0.0 0.0
-9.62944e-21 -1.64402e-21 -1.12724e-20
0.0 3.89263e-27 0.0
0.0 0.0 0.0
0.0 0.0 0.0
0.0 2.58494e-26 0.0
9.8944e-20 -7.77757e-20 3.1887e-20
8.16712e-20 -1.75713e-19 8.81158e-20
0.0 0.0 0.0
-5.72257e-19 1.08905e-18 4.68236e-19
-3.11938e-19 -6.59196e-19 -2.69242e-19
0.0 -1.17085e-25 0.0
0.0 -8.56587e-26 0.0
-2.58494e-25 5.16988e-26 0.0
0.0 -5.0014e-26 0.0
0.0 9.64509e-27 0.0
0.0 2.15449e-26 0.0
0.0 -2.10144e-26 0.0
-2.11767e-20 1.5471e-19 1.99804e-19
0.0 0.0 0.0
-4.03897e-28 1.89028e-28 0.0
-1.72215e-24 -5.16988e-26 0.0
0.0 -2.32642e-27 0.0
0.0 0.0 0.0
0.0 -3.85486e-27 0.0
0.0 4.90473e-29 0.0
0.0 -3.09676e-26 0.0
0.0 2.98686e-26 0.0
5.29516e-18 2.34854e-18 2.33741e-18
7.27213e-20 1.48127e-21 7.45426e-20
0.0 -2.23132e-26 0.0
0.0 7.01283e-26 0.0
0.0 6.02154e-26 0.0
4.03897e-28 2.17017e-26 0.0
0.0 -1.23281e-25 0.0
0.0 0.0 0.0
-5.16988e-26 5.16988e-26 0.0
3.16342e-18 -2.48054e-18 4.41819e-18
0.0 0.0 0.0
4.35744e-19 1.09002e-18 -1.18537e-19
0.0 3.51504e-27 0.0
-4.03897e-28 -1.8341e-29 0.0
0.0 -1.07311e-25 0.0
0.0 2.7189e-26 0.0
0.0 0.0 0.0
0.0 -1.14593e-26 0.0
9.04729e-26 -2.58494e-26 0.0
0.0 1.23771e-26 0.0
0.0 0.0 0.0
8.65423e-19 -2.35382e-18 1.1382e-21
0.0 4.61168e-25 0.0
4.03897e-28 -3.06689e-27 0.0
0.0 0.0 0.0
0.0 2.68284e-27 0.0
2.45795e-18 1.42504e-18 -1.2964e-19
0.0 -5.16988e-26 0.0
0.0 7.46774e-28 0.0
0.0 1.4028e-25 0.0
0.0 -7.59063e-28 0.0
-2.50823e-17 1.03664e-17 6.38954e-18
4.03897e-28 -3.17393e-29 0.0
1.93091e-20 -3.46783e-20 -6.16539e-21
0.0 -2.46828e-26 0.0
0.0 -1.06081e-26 0.0
1.43345e-20 -3.25394e-19 -1.67045e-19
0.0 -3.10884e-26 0.0
-2.58494e-26 1.03398e-25 0.0
0.0 -2.97505e-28 0.0
3.46882e-17 1.40663e-17 3.41657e-18
1.07327e-18 -5.33277e-18 2.1362e-18
-1.03398e-25 0.0 0.0
0.0 -3.23342e-26 0.0
0.0 3.30268e-26 0.0
0.0 -8.5841e-26 0.0
0.0 -3.94134e-27 0.0
0.0 3.41927e-27 0.0
9.0593e-20 -1.75014e-20 1.52751e-20
4.03897e-28 -8.07794e-28 0.0
0.0 -6.6971e-26 0.0
0.0 1.29247e-26 0.0
0.0 -2.27071e-26 0.0
0.0 6.20625e-27 0.0
0.0 0.0 -2.42338e-27
0.0 3.69735e-27 0.0
0.0 5.18044e-27 0.0
0.0 -7.43281e-28 0.0
0.0 0.0 0.0
-4.03897e-28 8.37206e-28 0.0
-4.03897e-28 -5.19549e-27 0.0
-4.03897e-28 5.73739e-27 0.0
-2.37711e-13 -3.49707e-15 3.22449e-13
-1.29247e-26 0.0 0.0
0.0 5.16988e-26 0.0
9.69426e-13 2.52265e-13 -4.32698e-13
1.35773e-13 3.87589e-13 5.89554e-13
0.0 -1.46361e-26 0.0
1.01603e-13 2.77368e-13 -1.46612e-14
-4.63139e-17 1.51895e-17 -4.29372e-17
9.38126e-20 8.81204e-20 3.03772e-21
0.0 6.88709e-27 0.0
0.0 0.0 4.1359e-25
-2.49964e-23 1.8715e-23 3.30872e-24
1.88703e-14 2.19446e-13 -5.68005e-13
0.0 -8.89527e-27 0.0
0.0 0.0 0.0
0.0 -5.67741e-26 0.0
4.03897e-28 -1.39607e-27 0.0
5.37078e-20 2.38324e-19 1.28895e-19
-5.75404e-19 -1.88167e-19 -5.19665e-19
0.0 5.17359e-26 0.0
2.06795e-25 -4.1359e-25 0.0
7.54914e-20 2.72364e-20 -6.82108e-20
3.21999e-19 -3.50896e-19 -1.83168e-19
-2.24611e-13 5.21811e-13 1.38421e-12
0.0 -2.31294e-28 0.0
0.0 -2.69195e-25 0.0
0.0 2.20893e-25 0.0
-2.26182e-26 -5.16988e-26 2.06795e-25
4.03897e-28 9.20788e-26 0.0
1.06306e-24 1.80946e-25 0.0
-6.46235e-26 7.52864e-25 0.0
0.0 4.55206e-27 0.0
0.0 7.34902e-26 0.0
0.0 1.32035e-25 0.0
0.0 -5.72558e-27 0.0
-1.0986e-25 -9.53196e-26 2.06795e-25
0.0 -1.419e-27 0.0
0.0 1.76852e-26 0.0
-4.92534e-22 -6.2297e-23 1.28213e-23
-5.06132e-13 3.56144e-13 1.39669e-13
0.0 -1.63563e-27 0.0
4.63395e-13 1.07491e-13 -8.60963e-13
3.43998e-13 -1.5375e-13 -9.85247e-13
1.02853e-23 0.0 0.0
-7.80808e-20 -3.14456e-20 4.31561e-21
0.0 -6.18518e-26 0.0
0.0 -1.75061e-26 0.0
-1.04225e-21 -5.35278e-20 1.10511e-21
3.70776e-18 -6.10779e-18 7.83844e-19
0.0 0.0 0.0
0.0 -1.40303e-26 0.0
0.0 4.11828e-27 0.0
0.0 4.81952e-26 0.0
0.0 3.58865e-26 0.0
1.30701e-24 8.78879e-25 -2.06795e-25
0.0 -7.08606e-26 0.0
0.0 -2.83372e-25 0.0
0.0 -2.58494e-26 -5.16988e-26
