# vtk DataFile Version 3.0
LIGGGHTS particles timestep 55000000
ASCII
DATASET POLYDATA
POINTS 283 float
0.264869 0.0164984 0.00786555
0.265197 0.0175921 0.00714895
0.265256 0.0181727 0.00697917
0.265236 0.0180757 0.00699389
0.264504 0.0153598 0.00905235
0.270895 0.0165739 0.00777299
0.264654 0.0158281 0.00856425
0.264482 0.0152922 0.00912279
0.271121 0.0175081 0.00711263
0.265542 0.0182676 0.00696094
0.265045 0.0167871 0.00755318
0.271095 0.0173189 0.00716493
0.265538 0.0178147 0.00702845
0.258444 0.0152306 0.00930915
0.265557 0.0179117 0.00701373
0.25868 0.0159247 0.00849502
0.271238 0.0180906 0.00702933
0.265178 0.0177841 0.00703816
0.265252 0.0172947 0.00719958
0.264525 0.0154274 0.00898191
0.265295 0.0183667 0.00694972
0.271046 0.0171502 0.00725904
0.265404 0.0175892 0.00706395
0.270987 0.0168966 0.00740814
0.258689 0.0157 0.00877673
0.265139 0.0175901 0.00706761
0.270873 0.0165138 0.00784997
0.265371 0.0183016 0.00695834
0.265499 0.0176208 0.00705789
0.270916 0.0166341 0.00769588
0.265236 0.017786 0.00711954
0.265577 0.0180087 0.00699901
0.27118 0.0177994 0.00707097
0.264632 0.0157605 0.00863469
0.265443 0.0177831 0.00703451
0.264682 0.0158963 0.00849688
0.265195 0.0174358 0.00711523
0.265328 0.0172391 0.00723395
0.265351 0.0182046 0.00697306
0.265234 0.0176227 0.00706139
0.270934 0.0166943 0.00761828
0.271006 0.0169813 0.0073584
0.264569 0.0155625 0.00884103
0.265233 0.01721 0.00724912
0.270968 0.0168147 0.00746208
0.265348 0.0177515 0.00704058
0.259285 0.0183092 0.00714255
0.259253 0.0173108 0.00722303
0.265521 0.0181709 0.00697564
0.27095 0.0167544 0.00753999
0.258883 0.0162694 0.00810874
0.271064 0.017235 0.00720921
0.26535 0.0179146 0.00709877
0.264548 0.0154947 0.00891156
0.265121 0.0167365 0.00759296
0.265292 0.0179137 0.00701723
0.271025 0.0170658 0.00730867
0.264923 0.0163795 0.00797672
0.25943 0.0177323 0.00719095
0.265597 0.0181056 0.0069843
0.258939 0.0161762 0.00823656
0.265195 0.0170406 0.00734812
0.271294 0.0179286 0.00705494
0.258926 0.0163971 0.00796084
0.271102 0.017411 0.00712652
0.26459 0.0156301 0.00877059
0.264987 0.0169097 0.00744501
0.264637 0.0156895 0.0087049
0.271219 0.0179936 0.00704321
0.265338 0.0185599 0.00692034
0.258509 0.0154207 0.00908625
0.25871 0.0157633 0.00870229
0.265215 0.0175257 0.00707613
0.259472 0.0179271 0.00717361
0.259005 0.0163662 0.00801397
0.258535 0.0154955 0.00902518
0.27116 0.0177023 0.00708485
0.25886 0.0162145 0.00818905
0.265331 0.0181076 0.00698779
0.271141 0.0176052 0.00709874
0.265139 0.0168048 0.00752225
0.265329 0.0176545 0.0070553
0.265063 0.0168554 0.00748247
0.264945 0.0164472 0.00790606
0.26529 0.0170696 0.00733305
0.26529 0.0174643 0.00710043
0.26512 0.0170992 0.00731747
0.265407 0.0180424 0.00699642
0.265347 0.0173239 0.00718441
0.265176 0.017351 0.00716481
0.259067 0.0165563 0.00779045
0.265331 0.0178176 0.00711351
0.259349 0.017341 0.00722575
0.265368 0.0178485 0.00702586
0.26546 0.0174376 0.00711981
0.258983 0.0163029 0.00808826
0.259273 0.0174089 0.0072218
0.264988 0.0165825 0.00776516
0.258465 0.015294 0.00923485
0.265462 0.0178801 0.00701979
0.265217 0.0179787 0.00700862
0.265316 0.0184634 0.00693502
0.264784 0.0162394 0.00815724
0.258732 0.0158267 0.00862798
0.265467 0.0183331 0.00695227
0.258905 0.0163328 0.00803435
0.265158 0.0176871 0.00705289
0.265216 0.0176891 0.00713424
0.265027 0.0167187 0.0076239
0.259451 0.0178297 0.00718228
0.270852 0.0164536 0.00792695
0.265366 0.0174086 0.00713484
0.265251 0.0168991 0.00743267
0.265025 0.0170732 0.00733662
0.259379 0.0180814 0.00724324
0.265466 0.0181942 0.0070555
0.265501 0.018074 0.00699035
0.265103 0.0166681 0.00766368
0.258573 0.015616 0.00887283
0.265564 0.0183646 0.00694619
0.258668 0.0156366 0.00885121
0.264785 0.0161587 0.00821621
0.259347 0.0181574 0.00715503
0.265081 0.0173222 0.00717975
0.265214 0.0171252 0.00729868
0.26531 0.0175575 0.00707016
0.26508 0.0169271 0.00741252
0.259221 0.0180205 0.00716827
0.264932 0.0167016 0.00765408
0.265138 0.0171815 0.00726387
0.265156 0.0168747 0.00745272
0.265488 0.0184297 0.00693757
0.259368 0.0174387 0.00721707
0.264698 0.0159627 0.00842379
0.265385 0.0174934 0.00708529
0.265271 0.0173795 0.00715005
0.264969 0.0168383 0.0075127
0.258487 0.0153573 0.00916065
0.265255 0.0178832 0.00710492
0.265271 0.0169848 0.00738257
0.264966 0.0165149 0.0078356
0.259123 0.016747 0.00756579
0.265617 0.0182023 0.0069696
0.258637 0.015798 0.00864363
0.258754 0.01589 0.00855368
0.259351 0.0179864 0.00725611
0.265312 0.0180106 0.00700251
0.25939 0.0175372 0.0072083
0.265309 0.0171543 0.0072835
0.259201 0.0170309 0.00729764
0.2651 0.0170123 0.00736278
0.25941 0.0176348 0.00719962
0.265063 0.0172374 0.00722931
0.259242 0.0181177 0.0071775
0.265177 0.0169591 0.00740325
0.258841 0.0161433 0.00825683
0.265424 0.0176861 0.00704923
0.259193 0.0176479 0.00728682
0.258831 0.0163672 0.00797594
0.26537 0.0180116 0.00708405
0.259179 0.0178258 0.00718561
0.265273 0.0178167 0.00703195
0.259182 0.0169507 0.00735441
0.259063 0.0172384 0.00720907
0.258659 0.0158614 0.00856932
0.259322 0.0180591 0.00716381
0.259141 0.01681 0.00749022
0.259027 0.0164295 0.00793967
0.265413 0.0184949 0.00692895
0.259398 0.0179942 0.0071686
0.265295 0.0182277 0.00705297
0.259355 0.0177987 0.00718602
0.265387 0.0179455 0.00701114
0.258948 0.0164596 0.00788561
0.259026 0.0167157 0.00758336
0.271199 0.0178965 0.00705709
0.264891 0.0165661 0.0077951
0.264847 0.0164309 0.00793599
0.258724 0.0160594 0.00835433
0.2651 0.017407 0.00713019
0.259084 0.0169224 0.00737419
0.265445 0.0179463 0.00709273
0.264742 0.0160982 0.00828344
0.259139 0.0176307 0.00720383
0.259085 0.0166197 0.00771528
0.265008 0.0166504 0.00769457
0.259263 0.0182119 0.00715122
0.259217 0.0177445 0.00727799
0.258594 0.0156713 0.00879223
0.259064 0.0168499 0.00744023
0.259276 0.0175069 0.00731135
0.265518 0.0177178 0.00704317
0.259119 0.0175329 0.00721163
0.25881 0.0163039 0.00805024
0.259162 0.0168835 0.00742546
0.258962 0.0162395 0.00816256
0.259494 0.0180244 0.00716494
0.258616 0.0157347 0.00871793
0.265275 0.0179804 0.00709025
0.264912 0.0166337 0.00772474
0.271277 0.0182848 0.00700157
0.265006 0.0169895 0.00738777
0.258821 0.0160799 0.00833139
0.264951 0.0167699 0.0075834
0.264903 0.0163114 0.00804732
0.26481 0.0162987 0.00808111
0.265639 0.0182989 0.00695491
0.258702 0.0159881 0.00842072
0.265482 0.0179771 0.00700507
0.258775 0.0159534 0.00847937
0.258551 0.0155453 0.00894006
0.271258 0.0181877 0.00701545
0.259125 0.0170885 0.00726509
0.259235 0.0172125 0.00722143
0.258969 0.016523 0.00781123
0.259179 0.0173769 0.00723622
0.259173 0.0175502 0.00729443
0.258766 0.0161772 0.00819884
0.259105 0.0166831 0.00764054
0.265157 0.0172662 0.00721435
0.265254 0.0177197 0.00704667
0.258949 0.0167474 0.00752761
0.258896 0.0165573 0.00775298
0.259027 0.0170629 0.00729789
0.258991 0.0165887 0.00773407
0.253149 0.0176772 0.00717364
0.258874 0.0164939 0.00782734
0.259009 0.0166522 0.00765887
0.253129 0.017589 0.00721658
0.253168 0.0177654 0.0071307
0.258853 0.0164306 0.00790166
0.253207 0.0179418 0.00704481
0.265479 0.0175237 0.00707263
0.265119 0.0174928 0.00708238
0.258788 0.0162406 0.00812454
0.264719 0.0160305 0.00835328
0.215741 0.019982 0.00563384
0.253187 0.0178536 0.00708775
0.259302 0.0179617 0.00717248
0.259219 0.0171225 0.00726168
0.258799 0.0160166 0.00840575
0.259219 0.0175712 0.00720722
0.259047 0.0171503 0.00725346
0.25916 0.0172771 0.00723158
0.25928 0.0178643 0.00718116
0.265426 0.0181394 0.0069817
0.258932 0.016688 0.00760617
0.259101 0.0174347 0.0072137
0.253246 0.0181182 0.00695892
0.259105 0.0170041 0.00732041
0.258746 0.0161233 0.00828057
0.264826 0.0163633 0.00800641
0.259377 0.0178961 0.00717734
0.259199 0.0179232 0.00717694
0.259546 0.0178603 0.00717858
0.259295 0.0175061 0.0072131
0.259006 0.0169771 0.00734449
0.259158 0.0177287 0.00719841
0.259199 0.017476 0.0072304
0.259283 0.0176059 0.00729822
0.259259 0.0177665 0.00718987
0.258986 0.0168949 0.00739788
0.265147 0.0175102 0.00717695
0.404182 0.0211142 0.0056569
0.253284 0.0182984 0.00688182
0.259429 0.0181007 0.00715903
0.253265 0.0182064 0.00691597
0.253226 0.01803 0.00700186
0.259046 0.0167792 0.00750858
0.258915 0.0166209 0.00767826
0.259239 0.0176689 0.00719854
0.265446 0.0182363 0.00696698
0.259139 0.0171734 0.00721436
0.259314 0.0176037 0.00720336
0.259082 0.0173366 0.00721129
0.259232 0.0178488 0.0072673
0.265392 0.0183982 0.00694364
0.258969 0.016818 0.0074594
0.259048 0.0164929 0.00786529
0.265044 0.0171527 0.00727886
0.265197 0.0178814 0.00702339
0.259335 0.0177012 0.00719469
0.265276 0.0182697 0.00696444

VERTICES 283 566
1 0
1 1
1 2
1 3
1 4
1 5
1 6
1 7
1 8
1 9
1 10
1 11
1 12
1 13
1 14
1 15
1 16
1 17
1 18
1 19
1 20
1 21
1 22
1 23
1 24
1 25
1 26
1 27
1 28
1 29
1 30
1 31
1 32
1 33
1 34
1 35
1 36
1 37
1 38
1 39
1 40
1 41
1 42
1 43
1 44
1 45
1 46
1 47
1 48
1 49
1 50
1 51
1 52
1 53
1 54
1 55
1 56
1 57
1 58
1 59
1 60
1 61
1 62
1 63
1 64
1 65
1 66
1 67
1 68
1 69
1 70
1 71
1 72
1 73
1 74
1 75
1 76
1 77
1 78
1 79
1 80
1 81
1 82
1 83
1 84
1 85
1 86
1 87
1 88
1 89
1 90
1 91
1 92
1 93
1 94
1 95
1 96
1 97
1 98
1 99
1 100
1 101
1 102
1 103
1 104
1 105
1 106
1 107
1 108
1 109
1 110
1 111
1 112
1 113
1 114
1 115
1 116
1 117
1 118
1 119
1 120
1 121
1 122
1 123
1 124
1 125
1 126
1 127
1 128
1 129
1 130
1 131
1 132
1 133
1 134
1 135
1 136
1 137
1 138
1 139
1 140
1 141
1 142
1 143
1 144
1 145
1 146
1 147
1 148
1 149
1 150
1 151
1 152
1 153
1 154
1 155
1 156
1 157
1 158
1 159
1 160
1 161
1 162
1 163
1 164
1 165
1 166
1 167
1 168
1 169
1 170
1 171
1 172
1 173
1 174
1 175
1 176
1 177
1 178
1 179
1 180
1 181
1 182
1 183
1 184
1 185
1 186
1 187
1 188
1 189
1 190
1 191
1 192
1 193
1 194
1 195
1 196
1 197
1 198
1 199
1 200
1 201
1 202
1 203
1 204
1 205
1 206
1 207
1 208
1 209
1 210
1 211
1 212
1 213
1 214
1 215
1 216
1 217
1 218
1 219
1 220
1 221
1 222
1 223
1 224
1 225
1 226
1 227
1 228
1 229
1 230
1 231
1 232
1 233
1 234
1 235
1 236
1 237
1 238
1 239
1 240
1 241
1 242
1 243
1 244
1 245
1 246
1 247
1 248
1 249
1 250
1 251
1 252
1 253
1 254
1 255
1 256
1 257
1 258
1 259
1 260
1 261
1 262
1 263
1 264
1 265
1 266
1 267
1 268
1 269
1 270
1 271
1 272
1 273
1 274
1 275
1 276
1 277
1 278
1 279
1 280
1 281
1 282

POINT_DATA 283
SCALARS id int 1
LOOKUP_TABLE default
1
2
3
4
5
6
7
8
9
10
11
12
13
14
15
16
18
19
20
21
22
24
25
26
27
29
30
31
32
33
34
35
36
37
38
40
41
42
43
44
45
46
47
48
49
50
52
55
56
57
58
59
60
61
62
63
64
65
66
67
68
69
70
71
72
73
74
75
76
77
78
79
80
81
82
83
84
85
86
87
88
89
90
91
92
93
94
95
96
98
99
100
101
102
103
104
105
106
107
108
109
110
111
112
113
114
115
116
117
118
119
120
121
122
123
124
125
126
127
128
129
130
131
132
133
134
135
136
137
138
139
140
141
142
144
145
146
147
148
149
150
152
153
154
155
156
157
158
159
160
161
162
164
165
166
167
168
169
170
171
172
173
174
175
176
177
178
179
180
181
182
183
184
185
186
187
188
189
190
191
192
193
194
195
196
197
198
199
200
201
202
203
204
205
206
207
208
209
210
211
213
214
215
217
218
219
220
221
222
223
224
225
226
227
228
229
230
231
232
233
234
235
236
237
238
239
241
242
243
244
245
246
247
248
249
250
251
252
253
254
255
256
257
258
259
260
261
262
263
264
265
267
268
269
270
271
272
273
274
275
276
277
278
279
280
281
282
283
284
285
286
287
288
289
290
292
293
294
295
296
297
298
300

SCALARS type int 1
LOOKUP_TABLE default
1
1
1
1
1
1
1
1
1
1
1
1
1
1
1
1
1
1
1
1
1
1
1
1
1
1
1
1
1
1
1
1
1
1
1
1
1
1
1
1
1
1
1
1
1
1
1
1
1
1
1
1
1
1
1
1
1
1
1
1
1
1
1
1
1
1
1
1
1
1
1
1
1
1
1
1
1
1
1
1
1
1
1
1
1
1
1
1
1
1
1
1
1
1
1
1
1
1
1
1
1
1
1
1
1
1
1
1
1
1
1
1
1
1
1
1
1
1
1
1
1
1
1
1
1
1
1
1
1
1
1
1
1
1
1
1
1
1
1
1
1
1
1
1
1
1
1
1
1
1
1
1
1
1
1
1
1
1
1
1
1
1
1
1
1
1
1
1
1
1
1
1
1
1
1
1
1
1
1
1
1
1
1
1
1
1
1
1
1
1
1
1
1
1
1
1
1
1
1
1
1
1
1
1
1
1
1
1
1
1
1
1
1
1
1
1
1
1
1
1
1
1
1
1
1
1
1
1
1
1
1
1
1
1
1
1
1
1
1
1
1
1
1
1
1
1
1
1
1
1
1
1
1
1
1
1
1
1
1
1
1
1
1
1
1
1
1
1
1
1
1
1
1
1
1
1
1
1
1
1
1
1
1

SCALARS radius float 1
LOOKUP_TABLE default
5e-05
5e-05
5e-05
5e-05
5e-05
5e-05
5e-05
5e-05
5e-05
5e-05
5e-05
5e-05
5e-05
5e-05
5e-05
5e-05
5e-05
5e-05
5e-05
5e-05
5e-05
5e-05
5e-05
5e-05
5e-05
5e-05
5e-05
5e-05
5e-05
5e-05
5e-05
5e-05
5e-05
5e-05
5e-05
5e-05
5e-05
5e-05
5e-05
5e-05
5e-05
5e-05
5e-05
5e-05
5e-05
5e-05
5e-05
5e-05
5e-05
5e-05
5e-05
5e-05
5e-05
5e-05
5e-05
5e-05
5e-05
5e-05
5e-05
5e-05
5e-05
5e-05
5e-05
5e-05
5e-05
5e-05
5e-05
5e-05
5e-05
5e-05
5e-05
5e-05
5e-05
5e-05
5e-05
5e-05
5e-05
5e-05
5e-05
5e-05
5e-05
5e-05
5e-05
5e-05
5e-05
5e-05
5e-05
5e-05
5e-05
5e-05
5e-05
5e-05
5e-05
5e-05
5e-05
5e-05
5e-05
5e-05
5e-05
5e-05
5e-05
5e-05
5e-05
5e-05
5e-05
5e-05
5e-05
5e-05
5e-05
5e-05
5e-05
5e-05
5e-05
5e-05
5e-05
5e-05
5e-05
5e-05
5e-05
5e-05
5e-05
5e-05
5e-05
5e-05
5e-05
5e-05
5e-05
5e-05
5e-05
5e-05
5e-05
5e-05
5e-05
5e-05
5e-05
5e-05
5e-05
5e-05
5e-05
5e-05
5e-05
5e-05
5e-05
5e-05
5e-05
5e-05
5e-05
5e-05
5e-05
5e-05
5e-05
5e-05
5e-05
5e-05
5e-05
5e-05
5e-05
5e-05
5e-05
5e-05
5e-05
5e-05
5e-05
5e-05
5e-05
5e-05
5e-05
5e-05
5e-05
5e-05
5e-05
5e-05
5e-05
5e-05
5e-05
5e-05
5e-05
5e-05
5e-05
5e-05
5e-05
5e-05
5e-05
5e-05
5e-05
5e-05
5e-05
5e-05
5e-05
5e-05
5e-05
5e-05
5e-05
5e-05
5e-05
5e-05
5e-05
5e-05
5e-05
5e-05
5e-05
5e-05
5e-05
5e-05
5e-05
5e-05
5e-05
5e-05
5e-05
5e-05
5e-05
5e-05
5e-05
5e-05
5e-05
5e-05
5e-05
5e-05
5e-05
5e-05
5e-05
5e-05
5e-05
5e-05
5e-05
5e-05
5e-05
5e-05
5e-05
5e-05
5e-05
5e-05
5e-05
5e-05
5e-05
5e-05
5e-05
5e-05
5e-05
5e-05
5e-05
5e-05
5e-05
5e-05
5e-05
5e-05
5e-05
5e-05
5e-05
5e-05
5e-05
5e-05
5e-05
5e-05
5e-05
5e-05
5e-05
5e-05
5e-05
5e-05
5e-05
5e-05
5e-05
5e-05
5e-05
5e-05
5e-05
5e-05
5e-05
5e-05
5e-05
5e-05
5e-05
5e-05
5e-05
5e-05
5e-05
5e-05
5e-05
5e-05
5e-05
5e-05
5e-05

SCALARS mass float 1
LOOKUP_TABLE default
1.46608e-10
1.46608e-10
1.46608e-10
1.46608e-10
1.46608e-10
1.46608e-10
1.46608e-10
1.46608e-10
1.46608e-10
1.46608e-10
1.46608e-10
1.46608e-10
1.46608e-10
1.46608e-10
1.46608e-10
1.46608e-10
1.46608e-10
1.46608e-10
1.46608e-10
1.46608e-10
1.46608e-10
1.46608e-10
1.46608e-10
1.46608e-10
1.46608e-10
1.46608e-10
1.46608e-10
1.46608e-10
1.46608e-10
1.46608e-10
1.46608e-10
1.46608e-10
1.46608e-10
1.46608e-10
1.46608e-10
1.46608e-10
1.46608e-10
1.46608e-10
1.46608e-10
1.46608e-10
1.46608e-10
1.46608e-10
1.46608e-10
1.46608e-10
1.46608e-10
1.46608e-10
1.46608e-10
1.46608e-10
1.46608e-10
1.46608e-10
1.46608e-10
1.46608e-10
1.46608e-10
1.46608e-10
1.46608e-10
1.46608e-10
1.46608e-10
1.46608e-10
1.46608e-10
1.46608e-10
1.46608e-10
1.46608e-10
1.46608e-10
1.46608e-10
1.46608e-10
1.46608e-10
1.46608e-10
1.46608e-10
1.46608e-10
1.46608e-10
1.46608e-10
1.46608e-10
1.46608e-10
1.46608e-10
1.46608e-10
1.46608e-10
1.46608e-10
1.46608e-10
1.46608e-10
1.46608e-10
1.46608e-10
1.46608e-10
1.46608e-10
1.46608e-10
1.46608e-10
1.46608e-10
1.46608e-10
1.46608e-10
1.46608e-10
1.46608e-10
1.46608e-10
1.46608e-10
1.46608e-10
1.46608e-10
1.46608e-10
1.46608e-10
1.46608e-10
1.46608e-10
1.46608e-10
1.46608e-10
1.46608e-10
1.46608e-10
1.46608e-10
1.46608e-10
1.46608e-10
1.46608e-10
1.46608e-10
1.46608e-10
1.46608e-10
1.46608e-10
1.46608e-10
1.46608e-10
1.46608e-10
1.46608e-10
1.46608e-10
1.46608e-10
1.46608e-10
1.46608e-10
1.46608e-10
1.46608e-10
1.46608e-10
1.46608e-10
1.46608e-10
1.46608e-10
1.46608e-10
1.46608e-10
1.46608e-10
1.46608e-10
1.46608e-10
1.46608e-10
1.46608e-10
1.46608e-10
1.46608e-10
1.46608e-10
1.46608e-10
1.46608e-10
1.46608e-10
1.46608e-10
1.46608e-10
1.46608e-10
1.46608e-10
1.46608e-10
1.46608e-10
1.46608e-10
1.46608e-10
1.46608e-10
1.46608e-10
1.46608e-10
1.46608e-10
1.46608e-10
1.46608e-10
1.46608e-10
1.46608e-10
1.46608e-10
1.46608e-10
1.46608e-10
1.46608e-10
1.46608e-10
1.46608e-10
1.46608e-10
1.46608e-10
1.46608e-10
1.46608e-10
1.46608e-10
1.46608e-10
1.46608e-10
1.46608e-10
1.46608e-10
1.46608e-10
1.46608e-10
1.46608e-10
1.46608e-10
1.46608e-10
1.46608e-10
1.46608e-10
1.46608e-10
1.46608e-10
1.46608e-10
1.46608e-10
1.46608e-10
1.46608e-10
1.46608e-10
1.46608e-10
1.46608e-10
1.46608e-10
1.46608e-10
1.46608e-10
1.46608e-10
1.46608e-10
1.46608e-10
1.46608e-10
1.46608e-10
1.46608e-10
1.46608e-10
1.46608e-10
1.46608e-10
1.46608e-10
1.46608e-10
1.46608e-10
1.46608e-10
1.46608e-10
1.46608e-10
1.46608e-10
1.46608e-10
1.46608e-10
1.46608e-10
1.46608e-10
1.46608e-10
1.46608e-10
1.46608e-10
1.46608e-10
1.46608e-10
1.46608e-10
1.46608e-10
1.46608e-10
1.46608e-10
1.46608e-10
1.46608e-10
1.46608e-10
1.46608e-10
1.46608e-10
1.46608e-10
1.46608e-10
1.46608e-10
1.46608e-10
1.46608e-10
1.46608e-10
1.46608e-10
1.46608e-10
1.46608e-10
1.46608e-10
1.46608e-10
1.46608e-10
1.46608e-10
1.46608e-10
1.46608e-10
1.46608e-10
1.46608e-10
1.46608e-10
1.46608e-10
1.46608e-10
1.46608e-10
1.46608e-10
1.46608e-10
1.46608e-10
1.46608e-10
1.46608e-10
1.46608e-10
1.46608e-10
1.46608e-10
1.46608e-10
1.46608e-10
1.46608e-10
1.46608e-10
1.46608e-10
1.46608e-10
1.46608e-10
1.46608e-10
1.46608e-10
1.46608e-10
1.46608e-10
1.46608e-10
1.46608e-10
1.46608e-10
1.46608e-10
1.46608e-10
1.46608e-10
1.46608e-10
1.46608e-10
1.46608e-10
1.46608e-10
1.46608e-10
1.46608e-10
1.46608e-10
1.46608e-10
1.46608e-10
1.46608e-10
1.46608e-10
1.46608e-10
1.46608e-10
1.46608e-10
1.46608e-10
1.46608e-10

VECTORS velocity float
0.00481098 -1.77961e-05 -0.000652881
0.00453227 0.000407642 -0.000128545
0.00450109 0.000390536 -0.000122315
0.00450467 0.000382278 -0.000120839
0.0047002 5.14539e-05 -0.000709545
0.00472107 0.000398734 0.000603242
0.00472823 2.26112e-05 -0.000681037
0.00468457 5.74762e-05 -0.000711404
0.00439292 -0.000114396 0.000137839
0.00479823 0.000279131 -0.000110132
0.00462211 3.16194e-05 -0.000677166
0.00437558 -0.000159189 -2.60617e-06
0.00447149 0.000410101 -0.000124785
0.00446039 0.000314115 0.000551159
0.00446647 0.00039818 -0.000122998
0.00460604 0.000384899 0.000496035
0.00437215 -8.97895e-05 0.000134408
0.00453794 0.000399252 -0.000123481
0.00455511 0.000408856 -0.000143506
0.00470443 4.79116e-05 -0.000705007
0.00448564 0.000367298 -0.000119017
0.0044049 -0.00018704 -2.69563e-05
0.00451096 0.000423414 -0.000127624
0.00442892 -0.000196898 -2.12857e-05
0.00452799 0.000376184 0.00048786
0.00452851 0.000406926 -0.000126627
0.00469877 0.000395568 0.000601795
0.00448064 0.000373637 -0.000119443
0.00450061 0.000426625 -0.000127715
0.0047377 0.000414408 0.000590462
0.00452807 0.000406752 -0.000121464
0.0044814 0.000387238 -0.000121663
0.00439782 -0.000112211 0.000138055
0.0047276 2.84216e-05 -0.00068699
0.00450326 0.00041232 -0.000125049
0.00472869 1.96848e-05 -0.000674565
0.00441985 0.000429858 -0.000159189
0.00456133 0.000418459 -0.000150585
0.00447442 0.000393064 -0.000120691
0.00452517 0.000408446 -0.000127028
0.00468388 0.000432171 0.000556129
0.00441555 -0.000198027 -2.10156e-05
0.0047112 4.38646e-05 -0.000701749
0.00454422 0.000411077 -0.00014211
0.00444 -0.000176968 3.54878e-06
0.00451839 0.000399763 -0.000123043
0.00459985 -7.00734e-05 -4.47002e-05
0.00438632 -6.75244e-05 0.000316145
0.00450488 0.000363799 -0.000118501
0.00461142 0.000442647 0.000522799
0.00459024 0.000386237 0.000491172
0.0043956 -0.000179222 -2.98842e-05
0.00449472 0.000421605 -0.000111582
0.00470211 4.69501e-05 -0.000702287
0.00461792 7.99211e-06 -0.000652354
0.0045164 0.000388619 -0.000123071
0.00441817 -0.000203127 -2.38309e-05
0.00480632 -3.61495e-05 -0.000634283
0.00445523 -0.000118902 -3.82739e-05
0.00455854 0.000367936 -0.000119967
0.00458949 0.000400596 0.000479375
0.00458695 0.000398679 -0.000133384
0.00438081 -9.35304e-05 0.000135212
0.00464533 0.000379501 0.000537806
0.00439896 -0.000110664 0.000135976
0.00472198 4.0102e-05 -0.000700478
0.00425157 -0.00177504 -0.00298371
0.00472512 3.42387e-05 -0.000695087
0.00437824 -9.75738e-05 0.00013581
0.00492454 0.000260343 -0.000108342
0.00449548 0.000332201 0.000534308
0.00455102 0.000369373 0.00050203
0.00452649 0.000409389 -0.000137075
0.00446421 -0.000123932 -3.61879e-05
0.00464553 0.000378086 0.000520873
0.00450981 0.000345004 0.000519483
0.00438835 -0.00011726 0.00013871
0.00460202 0.00039901 0.000482957
0.00449621 0.000391623 -0.000121906
0.00439172 -0.000118274 0.000139416
0.00464725 1.31834e-05 -0.000652471
0.00451085 0.000408429 -0.000125618
0.00465462 3.4338e-05 -0.000667429
0.00479888 -2.42727e-05 -0.000645111
0.0045875 0.000418316 -0.00014859
0.00453422 0.000409413 -0.000144622
0.00412569 -0.00152541 -0.00329254
0.00447172 0.000395617 -0.000121527
0.00455484 0.000416639 -0.000149703
0.00424702 0.000460781 -0.000181888
0.00454424 0.000343552 0.000536363
0.00452533 0.00039665 -0.000117882
0.00438287 -6.28846e-05 -2.41498e-05
0.00450885 0.000400551 -0.000122767
0.00453311 0.000430084 -0.000162861
0.00462227 0.000383039 0.000502467
0.00433075 -6.5558e-05 0.000111781
0.00477475 -1.8343e-05 -0.000647171
0.00446362 0.000314008 0.000551614
0.0044732 0.000410019 -0.000123477
0.00450672 0.000354208 -0.000118747
0.00487237 0.000267008 -0.000109827
0.00481645 -1.82936e-05 -0.000637801
0.00456566 0.000366843 0.000508361
0.00483358 0.000286729 -0.000111753
0.00463589 0.000371177 0.000512055
0.00452261 0.000405366 -0.000125305
0.00452687 0.000406865 -0.0001283
0.00462596 2.33595e-05 -0.000670727
0.00448623 -0.00012406 -3.76307e-05
0.0046817 0.000401214 0.000591551
0.00454222 0.000416449 -0.000149083
0.00463321 0.000350559 -0.000109994
0.00448614 -1.09368e-05 -0.000347423
0.00453264 -5.73015e-05 -3.99238e-05
0.00448967 0.000378041 -0.000127532
0.00446511 0.000392183 -0.000121957
0.00461579 5.43808e-06 -0.000646491
0.00454572 0.000373063 0.000504319
0.00505213 0.000331199 -0.000121528
0.0045341 0.000379568 0.000483602
0.00480609 -2.2033e-05 -0.000647336
0.00457149 -7.47076e-05 -4.33705e-05
0.00446198 0.000265204 -6.2257e-05
0.0045459 0.000408533 -0.000140653
0.00452236 0.000410245 -0.000135136
0.0041497 -0.000115388 4.26839e-05
0.00456543 -3.77548e-05 -4.80438e-05
0.0046858 2.64452e-05 -0.000679191
0.00446727 0.000425177 -0.000159607
0.00467612 9.8607e-05 -0.000566561
0.00497865 0.000261582 -0.00011005
0.00431685 -5.98339e-05 -4.36374e-05
0.00473338 1.23685e-05 -0.000672098
0.00453139 0.000416008 -0.000147326
0.00454837 0.000408915 -0.000144246
0.00463001 4.41061e-05 -0.000698014
0.00447124 0.000322148 0.000542039
0.00452623 0.000379335 -0.00012225
0.00464353 0.000408899 -0.000143223
0.00480801 -2.73886e-05 -0.000643123
0.00424745 0.000328996 0.000485179
0.004735 0.000327188 -0.000116407
0.00458076 0.000377705 0.000496637
0.00458773 0.000368308 0.000510629
0.00450247 -4.36866e-05 -2.09807e-05
0.00449508 0.000388952 -0.000122893
0.00432235 -0.000101356 -3.96928e-05
0.00456312 0.000420491 -0.000151444
0.00440674 -0.000249904 -9.939e-05
0.00435892 6.04771e-05 4.52454e-05
0.00440195 -0.000110062 -3.88853e-05
0.00444867 0.000278112 -6.89445e-05
0.00455332 -4.68324e-05 -4.16075e-05
0.00464994 0.000290711 -0.000262364
0.00463147 0.000397557 0.000479529
0.00450099 0.000417286 -0.000126658
0.00436011 -3.35774e-05 -7.30309e-05
0.00466071 0.000360935 0.000527505
0.00447641 0.000392514 -0.000119597
0.00448057 -8.57436e-07 -5.34587e-05
0.00453122 0.000396443 -0.000123068
0.00438127 -0.000211869 -3.80823e-05
0.0043962 5.31396e-06 0.000310435
0.00459261 0.000379116 0.000497435
0.00453613 -5.4171e-05 -4.46485e-05
0.00427084 0.000317171 0.000485298
0.00464127 0.000366968 0.000530829
0.00494186 0.000244488 -0.00010683
0.00449328 -8.73331e-05 -3.84155e-05
0.00447378 0.000436664 -0.000124405
0.00450694 -7.83343e-05 -4.45083e-05
0.00448969 0.000399441 -0.000122379
0.00474228 0.000387182 0.000521794
0.00458992 0.00054376 0.000293803
0.00438011 -0.000104368 0.000136864
0.00481885 -1.33798e-05 -0.000658822
0.00480674 -2.24356e-05 -0.000647904
0.00466193 0.00039438 0.000505394
0.00448743 0.000256372 -5.77566e-05
0.00451306 -8.96202e-05 3.28813e-05
0.00447897 0.000412313 -0.000117732
0.0047843 -1.23748e-05 -0.000660366
0.0043546 1.64044e-05 -0.000118374
0.00441641 0.000334367 0.000515313
0.00468163 5.91161e-06 -0.000659591
0.00458924 -6.01792e-05 -4.48087e-05
0.0043281 -2.91765e-05 -9.45431e-05
0.00455819 0.00037382 0.000499965
0.00435782 1.2438e-05 0.000101627
0.00413537 -8.16099e-05 -9.42055e-05
0.00449282 0.000419793 -0.00012684
0.00436279 1.53493e-05 -6.20116e-05
0.00461536 0.000377386 0.000501294
0.00431385 0.00014316 0.000291505
0.00459503 0.000396196 0.000483993
0.00450023 -0.000132558 -3.60986e-05
0.00457181 0.000375715 0.000497951
0.00450356 0.000371999 -0.000122359
0.00479318 -2.35068e-06 -0.000666851
0.00435664 -7.75318e-05 0.000132248
0.00436173 -0.000589992 -0.00116107
0.00464872 0.000388887 0.000495807
0.00461804 4.39834e-05 -0.000688599
0.00478377 -3.43071e-05 -0.000633346
0.00478759 -1.90196e-05 -0.000645777
0.00499915 0.000267425 -0.000111159
0.00463226 0.000391303 0.000496313
0.00447193 0.000402092 -0.00012363
0.00465714 0.00040235 0.000485708
0.00453708 0.000362202 0.000510376
0.0043663 -8.31331e-05 0.00013311
0.00425707 -0.00028041 -6.74399e-05
0.00437569 -6.40335e-05 0.000310592
0.00462685 0.000362227 0.000531362
0.00431198 -9.45919e-05 1.5716e-05
0.00440171 -3.25128e-05 -8.75548e-05
0.00463965 0.000375023 0.000503508
0.00429098 0.000321679 0.000481714
0.00426672 0.000460484 -0.000180912
0.0045333 0.000402775 -0.000124454
0.00441859 0.000331257 0.000539942
0.00461414 0.000348213 0.000547654
0.00443959 -0.000289289 -0.000237216
0.004697 0.000468246 0.000413885
0.00434882 -0.000120363 -0.000171493
0.00468937 0.000344088 0.000558449
0.00480363 0.000605593 0.000252915
0.00433387 -0.000117797 -0.000171966
0.00436596 -0.000122916 -0.000171141
0.00467115 0.000358436 0.00054072
0.0043942 -0.000131269 -0.000168882
0.00451897 0.000447378 -0.000132151
0.00450258 0.000221302 -9.54653e-05
0.0045975 0.000378576 0.000490762
0.00475555 2.34402e-06 -0.000666239
6.80489e-15 2.29898e-14 -7.03244e-14
0.00438086 -0.000127684 -0.000169706
0.00455243 -5.63496e-05 -4.5107e-05
0.00434906 -0.000116833 0.00019121
0.00451852 0.000398566 0.000458045
0.00431821 -3.17282e-05 -4.00778e-05
0.00439638 -0.000108724 8.65677e-05
0.00437696 -2.76163e-05 0.000285781
0.0045338 -4.41256e-05 -4.67036e-05
0.00446 0.000389469 -0.000120962
0.0044993 0.000331802 0.000534941
0.00438624 1.86262e-05 2.05094e-05
0.0044269 -0.000135378 -0.000168465
0.00446108 -0.000188939 -0.000141933
0.00466255 0.000389975 0.000504956
0.0047882 -1.94707e-05 -0.000648283
0.00451911 -9.32371e-05 -4.07068e-05
0.00455269 -2.68012e-05 -4.7591e-05
0.00448217 -0.000123325 -3.80886e-05
0.00429848 -7.1314e-05 -7.54878e-05
0.00446694 -0.000474417 -0.000506017
0.00438181 1.29217e-05 -0.000114601
0.00431167 -6.45917e-05 -0.000128871
0.0043215 -8.45528e-05 -4.44096e-05
0.00442853 -5.95637e-05 -4.64996e-05
0.00440979 -0.000407692 -0.000363643
0.00453634 0.000278945 -0.000116507
-1.29106e-14 6.08898e-14 -1.90219e-13
0.00445361 -3.00765e-05 0.000132119
0.00454396 -0.000100525 -4.1888e-05
0.00444176 -0.000138934 -0.000167755
0.00441215 -0.000132484 -0.00016905
0.00434101 0.000191156 0.000625467
0.00455056 0.000356323 0.000550996
0.00435877 -2.70608e-05 -4.11711e-05
0.00449257 0.000384687 -0.000123172
0.00434736 -5.9372e-05 0.000313404
0.00432505 -6.49449e-05 -4.02537e-05
0.0043982 1.19245e-05 0.00020754
0.00450799 -4.92849e-05 -6.16079e-05
0.00485585 0.000281288 -0.000111618
0.00440912 4.93554e-05 0.000280227
0.00461792 0.000352582 0.000538417
0.00452718 0.000243432 -5.71013e-05
0.00452788 0.000385001 -0.000121251
0.00441405 -7.15178e-05 -4.24951e-05
0.00449302 0.000409552 -0.000128264

VECTORS force float
2.1474e-11 9.33176e-11 -9.15227e-11
-7.46252e-11 -2.58779e-11 -3.04596e-12
-4.39018e-11 -2.20003e-10 3.5212e-11
-2.1659e-11 -1.90792e-10 2.39482e-11
-7.24293e-11 -4.01252e-11 9.89651e-12
6.60682e-11 -9.52583e-12 8.78422e-11
-1.06616e-10 -6.69483e-11 1.05005e-10
-9.63049e-11 -7.85319e-11 1.11145e-10
1.09659e-10 3.03843e-10 -1.92676e-12
-1.69006e-10 -1.31253e-10 2.0044e-11
-6.30587e-11 5.14033e-11 -3.87346e-11
2.67066e-11 2.09176e-10 -7.12559e-11
1.45034e-10 -1.73985e-10 2.28417e-11
-1.92829e-10 -4.01773e-10 4.37714e-10
2.52498e-10 -1.12018e-10 2.37246e-11
-5.77115e-11 6.09333e-11 -4.77192e-11
-2.30262e-11 -1.62473e-10 2.45158e-11
1.00693e-12 -3.95194e-11 1.08116e-11
2.75943e-11 1.19796e-11 -1.53929e-11
2.17456e-11 -4.33454e-11 -4.00633e-11
-2.77589e-11 1.17248e-10 -7.83508e-12
-2.63274e-11 -2.6806e-11 -3.02135e-11
-6.38354e-11 -2.37709e-11 -8.61652e-12
-8.27017e-11 3.6936e-11 -1.86134e-10
1.1754e-10 3.4268e-10 -4.02268e-10
-6.89669e-11 -8.43764e-11 1.72953e-11
-5.04912e-11 -1.65654e-10 2.79082e-10
-2.86088e-11 -8.62985e-11 -3.71762e-12
-3.15634e-11 -1.15595e-10 2.16831e-11
-4.70383e-11 1.80505e-11 -1.14826e-10
4.21913e-11 -7.39928e-11 -6.90076e-12
1.52286e-10 -5.01533e-11 1.29058e-12
-7.32878e-11 1.0349e-10 -2.1516e-11
-7.28526e-11 -7.40809e-11 1.00335e-10
-2.14927e-11 -1.06923e-10 7.88107e-12
4.3163e-11 -8.99785e-11 7.26338e-11
-1.13622e-10 5.52964e-11 -4.1019e-11
3.7437e-11 6.33487e-11 -4.63885e-11
-3.04696e-11 -2.01512e-10 3.31434e-11
-1.43937e-10 -4.94873e-11 -2.84461e-12
-9.90571e-11 -7.39035e-12 -1.80285e-10
1.08452e-10 1.17867e-10 1.33942e-10
-1.2826e-10 -2.63625e-12 7.5207e-11
7.88615e-11 3.17436e-11 -3.14096e-11
1.69429e-10 -2.71302e-10 -4.4571e-10
-4.63918e-12 -8.62536e-11 4.80514e-12
-7.44396e-12 -1.69297e-11 5.08417e-12
-1.52902e-10 -8.68564e-11 4.36145e-11
9.52905e-10 -3.46002e-10 4.46534e-11
-2.32491e-10 -4.56624e-11 -1.54566e-10
1.88888e-10 -1.34526e-10 1.68931e-10
2.24996e-10 1.68357e-11 -1.11146e-10
1.47088e-10 -2.20993e-10 2.5981e-11
-6.14857e-11 -2.97829e-11 2.07347e-11
-1.48147e-10 2.44692e-11 2.84657e-11
1.13903e-10 -9.12756e-11 -2.88794e-12
-3.83741e-12 -2.4793e-11 1.07258e-10
6.60861e-12 3.53809e-11 -3.93253e-11
2.29261e-11 -7.38998e-11 3.9581e-12
3.1422e-10 1.91973e-11 -6.91155e-12
7.52117e-11 -3.80961e-10 4.94721e-10
6.28481e-11 8.74299e-11 -3.9158e-11
-5.79697e-11 -1.21821e-10 1.91249e-11
-1.85507e-11 -3.32875e-10 2.47744e-10
1.2204e-10 2.93613e-10 -8.80442e-12
-5.63417e-11 1.62556e-11 1.65731e-11
6.50485e-10 -1.64146e-09 8.69787e-10
6.5681e-11 -3.90258e-11 2.3466e-11
-2.83314e-11 -1.09733e-10 1.47117e-11
1.50734e-10 3.75863e-10 -4.92074e-11
-5.81674e-11 -1.41046e-10 1.06805e-10
1.57443e-10 2.93591e-10 -3.36805e-10
-1.14373e-10 -4.72834e-12 -1.48162e-11
6.1091e-11 -1.003e-10 -6.49489e-12
1.63826e-10 -2.09846e-10 3.36617e-10
-8.47933e-11 2.67483e-11 -1.21809e-10
3.44457e-11 2.06307e-10 -1.98263e-11
2.42725e-10 -3.34579e-10 2.92162e-10
-2.05003e-11 -1.80276e-10 2.31602e-11
1.60398e-11 2.84314e-10 -2.02035e-11
-1.40747e-11 4.84142e-11 -1.33606e-11
-7.19257e-11 -2.50036e-11 -5.58692e-13
-3.63195e-11 5.04928e-11 -8.99482e-11
-1.49421e-10 9.69924e-11 -7.95965e-11
-1.61204e-11 1.89389e-10 -1.07663e-10
-1.38274e-10 8.8675e-12 -1.38329e-11
-6.89995e-11 -3.23587e-10 -7.14469e-10
1.63113e-10 -1.7946e-10 3.27004e-11
1.09012e-11 7.00602e-11 -2.79975e-11
-2.02859e-10 1.0221e-10 -6.8043e-11
3.239e-10 3.69395e-11 5.81656e-11
9.51069e-11 -1.37146e-10 4.29106e-11
9.57989e-12 1.74225e-11 -7.39839e-11
1.16139e-10 -1.53793e-10 1.57624e-11
7.18926e-11 -2.7558e-11 4.37221e-11
3.05213e-10 -3.30046e-10 5.1993e-10
-1.01586e-10 -5.20703e-12 8.9971e-11
8.98736e-12 9.58007e-11 -1.02795e-10
-2.09994e-11 -3.18699e-10 4.29257e-10
9.93799e-11 -1.57944e-10 5.1307e-11
-1.76883e-11 -1.61959e-10 3.37113e-11
2.03744e-10 3.29799e-10 -4.99342e-11
-4.58162e-11 -3.50173e-11 -2.40899e-11
1.5637e-10 2.83896e-10 -3.04484e-10
1.38578e-10 2.01501e-10 -3.43562e-11
-4.36504e-10 -3.91815e-10 2.92055e-10
-1.84251e-11 -7.06041e-11 5.36961e-12
-9.24036e-12 -4.95551e-11 -3.76617e-11
-1.83111e-10 1.24305e-10 -8.93788e-11
4.78026e-11 3.28442e-11 1.56216e-12
-1.25765e-10 -3.25867e-10 4.10336e-10
1.3184e-11 5.83538e-11 -1.30429e-11
-6.23951e-12 1.38036e-10 -1.03189e-10
-3.57275e-10 -1.22503e-10 8.92734e-10
-8.55719e-11 2.47742e-10 -1.53764e-11
1.48698e-11 -1.15189e-10 4.10823e-11
1.65338e-10 -1.92299e-10 1.7934e-11
-3.99993e-10 2.52862e-11 -2.49428e-12
9.40785e-11 3.286e-10 -2.79359e-10
5.16348e-10 1.59542e-10 -3.0855e-11
8.22798e-11 3.54483e-10 -4.09779e-10
-3.16728e-11 -1.63518e-11 -9.91057e-12
7.18951e-11 -2.96256e-11 -3.92315e-12
1.62247e-11 -2.25365e-11 2.54818e-11
1.78222e-11 7.1823e-11 -4.4941e-11
-1.27506e-10 -1.13358e-11 -2.31596e-11
3.15952e-09 -1.92014e-09 4.17504e-10
-6.26499e-11 -9.43134e-11 1.23313e-11
-1.31615e-10 1.39782e-10 -1.14043e-10
-1.24254e-10 -5.28872e-11 -1.38824e-11
-6.97244e-11 1.3625e-11 -1.9756e-10
1.22602e-10 -1.38096e-10 1.98724e-11
-3.31191e-10 6.72059e-11 -9.23753e-12
-1.30194e-10 -3.03486e-11 4.1098e-11
-3.38388e-11 5.18832e-11 -3.35166e-11
-1.05761e-10 1.15265e-11 -1.0618e-11
7.0668e-12 5.81495e-11 -1.13881e-10
8.40511e-11 -2.43647e-10 3.39518e-10
2.15211e-11 -1.50737e-10 3.95537e-12
-9.19887e-11 2.27808e-10 -1.75954e-10
2.34061e-11 8.50141e-11 -8.54877e-11
-1.68397e-10 1.51393e-10 -1.92101e-10
5.0293e-10 4.77831e-11 -1.56135e-11
3.34628e-11 1.60325e-10 -2.13436e-10
-6.0509e-11 1.9737e-10 -2.72291e-10
6.56676e-11 2.93307e-10 -2.26375e-11
3.11778e-11 -1.56189e-10 3.22207e-11
-2.39426e-10 -1.36797e-10 -6.09373e-11
-3.28498e-11 1.32999e-10 -5.71939e-11
-8.45986e-11 8.06497e-11 -1.86872e-10
2.83416e-10 -2.25131e-10 -1.02423e-10
-2.46359e-12 -1.57591e-10 -1.78069e-11
-1.99896e-11 -5.8366e-11 3.95012e-11
9.04889e-11 -1.0936e-10 3.14319e-11
-1.12941e-11 1.11219e-10 -3.14505e-11
7.64211e-11 -1.22021e-10 1.6696e-10
-2.86683e-11 -6.38329e-11 2.12494e-11
-6.56136e-12 -5.37978e-11 1.66012e-10
-1.09646e-10 -2.07819e-10 2.37061e-10
8.96155e-11 -1.49973e-10 -2.16777e-11
4.37329e-11 -2.90602e-11 3.77116e-12
1.77324e-11 -9.72179e-11 5.52311e-12
9.27253e-11 2.24395e-10 -6.79143e-11
-1.98084e-11 1.58677e-11 -1.54755e-12
-1.00171e-11 6.81596e-11 -1.13332e-10
1.64735e-10 -3.32461e-11 -5.42195e-11
-2.3359e-10 3.36766e-10 -2.44883e-10
4.09375e-10 -1.03448e-10 1.93987e-10
4.31159e-11 -1.30938e-11 4.93374e-12
2.25521e-10 -1.27464e-10 -8.69256e-12
5.06504e-12 -5.11716e-11 1.09318e-11
3.57013e-11 2.62972e-12 -1.71068e-11
1.33891e-10 -1.43454e-10 3.59907e-11
-2.55753e-11 -8.61908e-11 1.13551e-10
-1.46465e-10 -6.72014e-11 -4.55441e-11
4.47445e-11 -7.18834e-11 1.16154e-11
3.52376e-11 9.89512e-11 -1.0489e-10
-5.86471e-11 4.26486e-11 -3.13624e-11
-8.42275e-11 -1.20489e-10 1.88287e-10
-6.30185e-11 -1.5925e-11 -7.48006e-11
-8.99978e-11 5.34832e-10 -1.69575e-10
1.80124e-10 -8.73752e-11 3.07146e-11
8.01417e-11 -5.32691e-11 3.89914e-11
-1.14848e-10 5.78765e-12 3.46299e-10
1.67531e-10 4.43788e-11 -6.72519e-11
-1.49195e-10 1.38589e-10 -1.00122e-10
2.35551e-11 -2.95219e-11 3.4853e-11
-1.96597e-11 -7.61428e-11 1.10588e-10
5.4485e-11 2.4832e-10 -3.07651e-10
2.78232e-10 3.27795e-10 -2.87143e-10
1.14866e-10 1.63711e-10 -1.29766e-10
-2.3373e-12 -1.48053e-10 1.08881e-11
-5.26138e-11 1.38638e-11 2.07362e-11
-1.30776e-10 -2.62674e-10 2.42915e-10
-3.2091e-11 4.34812e-10 3.59738e-11
1.41405e-11 -4.12289e-10 4.98863e-10
4.87394e-11 -1.60045e-10 5.11651e-12
2.86764e-11 2.10891e-10 -2.67066e-10
2.68367e-11 -2.55565e-10 -5.34189e-12
-9.64713e-12 1.07678e-10 -1.14128e-10
-5.85955e-11 -2.54213e-10 3.59666e-11
9.45955e-10 1.38795e-09 1.39133e-09
6.18659e-11 -1.21844e-11 7.31141e-11
-8.3684e-11 1.13516e-10 -1.06736e-10
-1.01998e-10 3.4027e-11 -2.03211e-11
8.23524e-11 -7.58807e-11 -7.79219e-12
6.02023e-10 1.11576e-10 -2.52574e-11
-3.22651e-11 -5.86244e-11 4.2231e-12
1.11923e-10 -1.78671e-10 2.10949e-11
2.36574e-10 1.45746e-10 -1.28761e-10
-2.19562e-11 1.92724e-10 -2.36135e-10
-3.30832e-11 -1.99466e-10 2.81327e-11
-4.29779e-10 3.92621e-10 -8.41657e-11
-6.38388e-10 2.76513e-11 -1.10841e-10
3.70078e-10 -1.34821e-11 2.59121e-11
-1.6514e-10 -5.93747e-11 -6.37491e-10
7.23705e-11 2.61755e-11 -2.05842e-10
1.94168e-11 -2.51651e-10 2.96948e-10
-1.46775e-10 2.04964e-10 -8.62753e-11
-2.33668e-10 9.82671e-11 -5.79924e-11
-7.76823e-11 -1.04798e-10 1.30819e-11
8.68813e-10 4.7158e-13 1.47835e-10
2.81768e-10 5.20801e-11 2.48552e-10
3.93318e-10 1.73825e-10 5.78045e-10
1.31999e-10 9.58178e-11 -5.00787e-11
-4.52921e-12 7.49264e-12 -4.13103e-12
-9.0545e-12 -1.68593e-10 9.39131e-11
2.79306e-10 -2.05804e-10 1.75218e-10
-4.47381e-12 4.78586e-12 -2.79649e-12
-6.22556e-11 1.24577e-11 -4.96306e-12
-1.64394e-10 -2.1474e-10 2.2757e-10
4.57296e-11 -2.39771e-11 9.77428e-12
-5.56935e-11 -4.52521e-11 -2.3317e-11
-2.39969e-12 1.09303e-11 2.13186e-11
8.19325e-11 -2.56933e-10 3.28661e-10
-9.12924e-11 -3.16224e-11 5.56356e-11
-1.4243e-23 2.66766e-23 7.65142e-24
4.59573e-11 6.20859e-12 -1.78779e-12
-5.11616e-11 -7.50418e-11 1.83959e-11
-2.83444e-10 4.69584e-11 -5.91325e-11
-2.1222e-10 4.4564e-11 -1.16464e-10
-7.82707e-11 8.12026e-11 5.9934e-11
-2.4213e-10 1.95506e-11 4.75385e-11
-3.57841e-10 8.77077e-11 3.92805e-11
1.45395e-10 8.42838e-11 1.50713e-11
1.52798e-10 -1.41933e-10 2.8941e-11
1.46498e-10 6.32464e-11 5.42708e-10
-1.77e-10 1.11639e-10 -3.04839e-10
1.77078e-11 2.55443e-12 -2.69744e-12
5.07318e-11 5.00074e-11 1.4447e-10
-8.71574e-11 -1.61696e-10 2.42695e-10
-1.99638e-11 -4.23635e-12 -2.9484e-12
-6.4452e-11 -4.49775e-11 2.12437e-11
1.77273e-11 -3.55051e-11 2.59988e-11
2.6462e-10 6.56709e-11 3.74037e-12
-1.54295e-10 3.85405e-11 -1.60862e-10
4.57658e-10 -3.76488e-10 -5.68094e-11
4.5329e-11 -2.39898e-11 -6.74553e-11
-1.48329e-10 -7.84431e-11 -4.40858e-10
2.90077e-11 -2.70425e-11 1.97279e-10
7.71682e-11 7.27731e-11 2.08529e-12
4.26516e-10 -2.69369e-10 -1.77944e-11
7.43894e-11 -9.59253e-11 1.29304e-11
1.01701e-21 1.83944e-22 -1.11669e-23
-3.49773e-12 3.00966e-12 -1.06866e-13
5.39654e-11 -6.4896e-11 1.79647e-11
-5.83858e-12 3.67349e-12 -4.86157e-12
-4.17301e-11 2.10073e-12 2.20754e-12
1.46594e-09 -1.7039e-10 1.18862e-10
1.72152e-10 -3.03861e-10 5.11166e-11
3.38606e-12 -2.73043e-12 4.61576e-11
-6.95957e-11 -1.67731e-10 4.36143e-11
-4.76036e-10 2.38133e-11 -1.65481e-10
-7.04241e-11 3.97336e-11 -9.97944e-12
-1.38006e-11 7.09397e-11 2.47736e-10
5.10486e-11 5.10077e-11 -2.81223e-11
1.36674e-10 2.17172e-10 -3.21497e-11
1.94463e-09 -6.67888e-10 2.73619e-10
3.66883e-10 1.09821e-11 9.90184e-11
-6.5121e-11 -4.49751e-10 4.04994e-10
2.1003e-11 -4.05151e-11 -3.03993e-12
-9.07203e-11 1.06763e-11 3.97609e-11
-1.03499e-11 -1.37854e-10 7.0181e-12
