# vtk DataFile Version 3.0
LIGGGHTS particles timestep 84400000
ASCII
DATASET POLYDATA
POINTS 277 float
0.384463 0.0184929 5.23774e-05
0.384301 0.0189805 5.21642e-05
0.383622 0.0186626 9.71225e-05
0.384742 0.0166067 5.27426e-05
0.384769 0.0176546 5.27772e-05
0.384573 0.0181859 5.25217e-05
0.38464 0.0180145 5.26082e-05
0.383873 0.0192621 5.16041e-05
0.383645 0.018931 5.13051e-05
0.383782 0.0177604 5.14855e-05
0.383663 0.0184198 5.13289e-05
0.383701 0.020264 5.13788e-05
0.384778 0.0202682 5.27896e-05
0.384389 0.0191923 5.22806e-05
0.384954 0.016092 5.30206e-05
0.383742 0.0192534 5.14322e-05
0.383998 0.0194111 5.17676e-05
0.383904 0.0179265 5.16441e-05
0.384146 0.0183002 0.000125508
0.383573 0.0183763 5.12109e-05
0.383953 0.0193215 5.17095e-05
0.384268 0.018066 5.21212e-05
0.384093 0.0170102 5.18925e-05
0.384991 0.0181295 5.3068e-05
0.385072 0.0179786 5.31752e-05
0.384751 0.0168131 5.27541e-05
0.384072 0.0187342 5.18653e-05
0.383963 0.0186848 5.17224e-05
0.384202 0.0183503 5.20347e-05
0.384161 0.0180942 5.19811e-05
0.38389 0.0188816 5.16272e-05
0.383968 0.018211 5.17281e-05
0.385095 0.017688 5.32053e-05
0.384958 0.0164394 5.30259e-05
0.384077 0.0189265 5.18717e-05
0.383687 0.0195992 5.13612e-05
0.384518 0.0169572 5.24494e-05
0.38426 0.0166344 5.21107e-05
0.384483 0.0171731 5.24028e-05
0.383717 0.0197417 5.13998e-05
0.384431 0.0181868 5.23355e-05
0.384993 0.0174167 5.30712e-05
0.384181 0.017123 8.10196e-05
0.3847 0.0190509 5.26869e-05
0.383648 0.018453 0.00523041
0.384631 0.0170996 5.25973e-05
0.383708 0.0186184 5.13877e-05
0.384844 0.0175889 5.2876e-05
0.384154 0.0181769 0.000107852
0.383841 0.018479 5.15623e-05
0.385615 0.0214721 5.38857e-05
0.385289 0.0155954 5.34584e-05
0.384417 0.0169583 5.23164e-05
0.383819 0.0181237 5.15331e-05
0.384303 0.0165428 5.21668e-05
0.384647 0.0163809 5.26185e-05
0.384202 0.0189952 5.20347e-05
0.38375 0.0200023 5.14426e-05
0.384262 0.0171738 5.21133e-05
0.384345 0.0186277 5.22225e-05
0.38385 0.0193719 5.15744e-05
0.384562 0.0173996 5.25066e-05
0.384445 0.017606 5.23539e-05
0.384911 0.0183156 5.29632e-05
0.384294 0.017392 0.0001105
0.38475 0.0181974 5.27526e-05
0.383805 0.0179416 5.15149e-05
0.384105 0.0198839 5.19086e-05
0.384332 0.0179591 5.22053e-05
0.392848 0.0240513 6.33589e-05
0.3838 0.0185705 5.15086e-05
0.383703 0.0185163 5.13812e-05
0.383877 0.0209516 5.16096e-05
0.385016 0.0183256 5.31008e-05
0.383854 0.0202485 5.15791e-05
0.384048 0.0212951 5.18336e-05
0.384361 0.0187376 5.2244e-05
0.384195 0.0172489 5.2026e-05
0.3845 0.017693 5.24253e-05
0.384682 0.0162685 5.26642e-05
0.384471 0.017049 5.23872e-05
0.384549 0.0176049 5.24901e-05
0.383494 0.0173478 0.0054729
0.383722 0.0181225 7.64618e-05
0.384345 0.0175634 5.22228e-05
0.384137 0.0201312 5.19506e-05
0.383992 0.0173185 5.17599e-05
0.384759 0.0186301 5.27642e-05
0.384046 0.0181486 5.183e-05
0.384399 0.0172326 5.22932e-05
0.383932 0.018105 5.16814e-05
0.383897 0.0200451 5.16352e-05
0.384891 0.0187149 5.29376e-05
0.383741 0.0204178 5.1432e-05
0.383777 0.0182286 5.14783e-05
0.383865 0.0180311 5.15932e-05
0.384155 0.0174093 5.19738e-05
0.383877 0.0197323 5.16099e-05
0.38444 0.0187992 5.23473e-05
0.383665 0.0180442 5.13316e-05
0.383999 0.017897 5.17698e-05
0.384426 0.0196364 5.2329e-05
0.38423 0.0173427 5.20716e-05
0.384794 0.0185252 5.28101e-05
0.3846 0.018439 5.2556e-05
0.384191 0.0170278 5.20213e-05
0.38369 0.018818 5.13649e-05
0.384511 0.0167344 5.24399e-05
0.383576 0.0182637 5.12155e-05
0.383891 0.0177175 5.16273e-05
0.384958 0.0179526 5.30248e-05
0.38418 0.0184234 0.00011667
0.384054 0.020493 5.18408e-05
0.383769 0.0196563 5.14687e-05
0.384547 0.0180536 5.24868e-05
0.384093 0.0176018 5.1893e-05
0.384611 0.0176888 5.25713e-05
0.383942 0.0184892 0.000110218
0.384125 0.0178011 5.19348e-05
0.383744 0.0178549 5.14357e-05
0.383765 0.0191557 5.14624e-05
0.384541 0.0182923 5.24789e-05
0.384513 0.0172684 5.24426e-05
0.383903 0.0185602 5.16434e-05
0.383575 0.0184906 0.000150265
0.383953 0.0187917 5.17087e-05
0.383939 0.0178143 5.16905e-05
0.3847 0.0174694 5.26876e-05
0.384192 0.0182508 5.20215e-05
0.384804 0.0179317 5.2824e-05
0.384031 0.0177664 5.18111e-05
0.384313 0.0188394 5.218e-05
0.384025 0.0172241 5.18032e-05
0.384664 0.017853 5.26406e-05
0.384114 0.0177009 5.19203e-05
0.383705 0.0179479 5.13839e-05
0.384093 0.0182374 5.18919e-05
0.384115 0.0171991 8.62927e-05
0.38385 0.0179044 0.000132794
0.384022 0.0185052 5.17991e-05
0.385429 0.0169726 5.36428e-05
0.384584 0.0165966 5.25358e-05
0.383692 0.018718 5.1366e-05
0.384309 0.0170744 5.21755e-05
0.384701 0.0184572 5.26889e-05
0.384071 0.0214752 5.18636e-05
0.385633 0.0216555 5.39092e-05
0.383844 0.0178463 5.15657e-05
0.38363 0.0196815 5.1286e-05
0.384864 0.0181359 5.29025e-05
0.383638 0.0174895 0.00542994
0.384392 0.0171313 5.22838e-05
0.384534 0.0190665 5.24695e-05
0.384096 0.0185717 5.1897e-05
0.383763 0.0184168 5.14598e-05
0.384966 0.0177818 5.30356e-05
0.384772 0.0188263 5.2782e-05
0.383875 0.0182489 5.16067e-05
0.383855 0.0177776 0.000123309
0.386214 0.0156681 5.46708e-05
0.384385 0.0178441 5.22744e-05
0.385196 0.0174598 5.33367e-05
0.383958 0.0207152 5.17153e-05
0.385141 0.0175441 5.32652e-05
0.38393 0.0174051 5.16781e-05
0.384016 0.0184054 5.17911e-05
0.384022 0.018058 8.6587e-05
0.384107 0.0184463 5.19105e-05
0.384022 0.018274 0.000111992
0.384441 0.0185911 5.23488e-05
0.384091 0.0175001 5.18897e-05
0.384299 0.0167264 5.21625e-05
0.383658 0.0201562 5.13223e-05
0.383922 0.0175558 5.16677e-05
0.384614 0.0171983 5.25742e-05
0.384089 0.0183374 5.1887e-05
0.384612 0.0186756 5.25728e-05
0.383704 0.0194134 5.13829e-05
0.384338 0.0181499 5.22135e-05
0.384598 0.0189856 5.25545e-05
0.385564 0.0162643 5.38193e-05
0.384292 0.0182451 5.21535e-05
0.385034 0.0182199 5.31244e-05
0.383723 0.0183186 5.1407e-05
0.384104 0.0173769 0.000131301
0.384117 0.017913 5.19238e-05
0.384617 0.0199188 5.25784e-05
0.384187 0.018771 5.20153e-05
0.383598 0.0182014 0.000126472
0.38447 0.0173588 5.23868e-05
0.383843 0.0176186 5.15653e-05
0.384614 0.0167309 5.25742e-05
0.383867 0.0190284 5.15963e-05
0.383958 0.018322 5.17153e-05
0.384976 0.0184455 5.30495e-05
0.383589 0.0187452 5.12322e-05
0.384666 0.0185892 5.26424e-05
0.383655 0.0180641 0.000148774
0.384104 0.0180122 5.19064e-05
0.384086 0.01711 5.18829e-05
0.383683 0.0182329 8.40252e-05
0.385098 0.017385 5.32088e-05
0.384177 0.0195914 5.20021e-05
0.384879 0.0177317 5.29219e-05
0.384392 0.0190207 5.22844e-05
0.383873 0.0187306 5.16047e-05
0.384048 0.0174014 5.18335e-05
0.384015 0.0197954 5.17901e-05
0.384376 0.0173908 5.22625e-05
0.384824 0.0158043 5.28494e-05
0.384355 0.017667 5.22354e-05
0.383898 0.017479 0.000110952
0.383765 0.0180332 5.14622e-05
0.384511 0.0186633 5.24396e-05
0.384061 0.019295 5.18505e-05
0.384442 0.0191075 5.23499e-05
0.384903 0.0180439 5.29539e-05
0.384303 0.0172666 5.21676e-05
0.384432 0.0179744 5.23367e-05
0.384659 0.0169997 5.2634e-05
0.38427 0.0174693 5.21235e-05
0.383992 0.0174844 5.17603e-05
0.384339 0.0180358 0.000116031
0.383397 0.017945 0.00531301
0.384064 0.0190614 5.18538e-05
0.383737 0.0186835 0.000133297
0.383626 0.0181369 5.1281e-05
0.383811 0.0176885 0.000115032
0.384201 0.0179911 5.20345e-05
0.384255 0.0184353 5.21045e-05
0.215741 0.019982 0.00563384
0.383898 0.0196146 5.16371e-05
0.384966 0.0186001 5.30361e-05
0.383654 0.0193029 5.13174e-05
0.384531 0.0164116 5.24654e-05
0.383577 0.0184769 5.12165e-05
0.383793 0.0186703 5.14996e-05
0.383822 0.0183365 5.15379e-05
0.38687 0.0152658 5.55298e-05
0.38359 0.0185797 5.12334e-05
0.383876 0.0186433 0.000100321
0.383916 0.0184126 5.166e-05
0.38476 0.0177647 5.27661e-05
0.384105 0.0188286 5.19083e-05
0.384469 0.0174786 5.23843e-05
0.384329 0.0168914 5.22018e-05
0.383593 0.0188451 5.12381e-05
0.384527 0.0168455 5.24611e-05
0.38372 0.0185681 0.00522243
0.383579 0.0185905 0.000151636
0.383778 0.0187693 5.14798e-05
0.384762 0.0224884 5.27689e-05
0.384714 0.0183476 5.27052e-05
0.383897 0.0191595 5.16359e-05
0.383754 0.0195242 5.14479e-05
0.384186 0.018508 5.20145e-05
0.384836 0.0182485 5.28661e-05
0.404182 0.0211142 0.0056569
0.384061 0.0181874 0.000142752
0.384586 0.0177863 5.25383e-05
0.385147 0.0172752 5.32731e-05
0.383884 0.0181694 0.000111598
0.383603 0.0173942 0.00545883
0.384005 0.0178293 0.000125077
0.38483 0.0183764 5.28582e-05
0.38464 0.018274 5.26082e-05
0.384238 0.0181613 5.20818e-05
0.383961 0.0179827 0.000111413
0.384706 0.0179421 6.99501e-05
0.384407 0.0180721 5.23029e-05
0.384487 0.017802 5.24082e-05
0.384112 0.0173167 5.19172e-05
0.385008 0.017637 5.30902e-05
0.3842 0.0178242 0.00533209
0.384583 0.017927 5.25348e-05
0.384014 0.0192035 5.17884e-05
0.383616 0.0193868 9.00478e-05

VERTICES 277 554
1 0
1 1
1 2
1 3
1 4
1 5
1 6
1 7
1 8
1 9
1 10
1 11
1 12
1 13
1 14
1 15
1 16
1 17
1 18
1 19
1 20
1 21
1 22
1 23
1 24
1 25
1 26
1 27
1 28
1 29
1 30
1 31
1 32
1 33
1 34
1 35
1 36
1 37
1 38
1 39
1 40
1 41
1 42
1 43
1 44
1 45
1 46
1 47
1 48
1 49
1 50
1 51
1 52
1 53
1 54
1 55
1 56
1 57
1 58
1 59
1 60
1 61
1 62
1 63
1 64
1 65
1 66
1 67
1 68
1 69
1 70
1 71
1 72
1 73
1 74
1 75
1 76
1 77
1 78
1 79
1 80
1 81
1 82
1 83
1 84
1 85
1 86
1 87
1 88
1 89
1 90
1 91
1 92
1 93
1 94
1 95
1 96
1 97
1 98
1 99
1 100
1 101
1 102
1 103
1 104
1 105
1 106
1 107
1 108
1 109
1 110
1 111
1 112
1 113
1 114
1 115
1 116
1 117
1 118
1 119
1 120
1 121
1 122
1 123
1 124
1 125
1 126
1 127
1 128
1 129
1 130
1 131
1 132
1 133
1 134
1 135
1 136
1 137
1 138
1 139
1 140
1 141
1 142
1 143
1 144
1 145
1 146
1 147
1 148
1 149
1 150
1 151
1 152
1 153
1 154
1 155
1 156
1 157
1 158
1 159
1 160
1 161
1 162
1 163
1 164
1 165
1 166
1 167
1 168
1 169
1 170
1 171
1 172
1 173
1 174
1 175
1 176
1 177
1 178
1 179
1 180
1 181
1 182
1 183
1 184
1 185
1 186
1 187
1 188
1 189
1 190
1 191
1 192
1 193
1 194
1 195
1 196
1 197
1 198
1 199
1 200
1 201
1 202
1 203
1 204
1 205
1 206
1 207
1 208
1 209
1 210
1 211
1 212
1 213
1 214
1 215
1 216
1 217
1 218
1 219
1 220
1 221
1 222
1 223
1 224
1 225
1 226
1 227
1 228
1 229
1 230
1 231
1 232
1 233
1 234
1 235
1 236
1 237
1 238
1 239
1 240
1 241
1 242
1 243
1 244
1 245
1 246
1 247
1 248
1 249
1 250
1 251
1 252
1 253
1 254
1 255
1 256
1 257
1 258
1 259
1 260
1 261
1 262
1 263
1 264
1 265
1 266
1 267
1 268
1 269
1 270
1 271
1 272
1 273
1 274
1 275
1 276

POINT_DATA 277
SCALARS id int 1
LOOKUP_TABLE default
1
2
3
4
5
6
8
9
10
11
12
13
14
15
16
18
19
20
21
22
24
25
26
27
29
30
31
32
33
34
35
36
38
40
41
42
43
44
45
46
47
48
49
50
52
55
56
57
58
59
60
61
62
63
64
65
66
67
68
69
70
71
72
73
74
75
76
77
78
79
80
81
82
83
84
85
86
87
88
89
90
91
92
93
94
95
96
98
99
100
101
102
103
104
105
106
107
108
109
110
111
113
114
115
116
117
118
119
120
121
122
123
124
125
126
127
128
129
130
131
132
133
134
135
136
137
138
139
140
141
142
144
145
146
147
148
149
150
152
153
154
155
156
157
158
159
160
161
162
164
165
166
167
168
169
170
171
172
173
174
175
176
177
178
179
180
181
182
183
184
185
186
187
188
189
191
192
193
194
195
196
197
198
199
200
201
202
203
204
205
206
207
208
210
211
213
214
215
217
218
220
221
222
223
224
225
226
227
228
229
230
231
232
233
234
235
236
237
238
239
241
242
243
244
245
246
247
248
249
250
251
252
253
254
255
256
257
258
259
260
261
262
263
264
265
267
268
269
270
271
272
273
274
275
276
277
278
279
280
281
282
283
284
285
286
287
288
289
290
292
293
294
295
296
297
298
300

SCALARS type int 1
LOOKUP_TABLE default
1
1
1
1
1
1
1
1
1
1
1
1
1
1
1
1
1
1
1
1
1
1
1
1
1
1
1
1
1
1
1
1
1
1
1
1
1
1
1
1
1
1
1
1
1
1
1
1
1
1
1
1
1
1
1
1
1
1
1
1
1
1
1
1
1
1
1
1
1
1
1
1
1
1
1
1
1
1
1
1
1
1
1
1
1
1
1
1
1
1
1
1
1
1
1
1
1
1
1
1
1
1
1
1
1
1
1
1
1
1
1
1
1
1
1
1
1
1
1
1
1
1
1
1
1
1
1
1
1
1
1
1
1
1
1
1
1
1
1
1
1
1
1
1
1
1
1
1
1
1
1
1
1
1
1
1
1
1
1
1
1
1
1
1
1
1
1
1
1
1
1
1
1
1
1
1
1
1
1
1
1
1
1
1
1
1
1
1
1
1
1
1
1
1
1
1
1
1
1
1
1
1
1
1
1
1
1
1
1
1
1
1
1
1
1
1
1
1
1
1
1
1
1
1
1
1
1
1
1
1
1
1
1
1
1
1
1
1
1
1
1
1
1
1
1
1
1
1
1
1
1
1
1
1
1
1
1
1
1
1
1
1
1
1
1
1
1
1
1
1
1
1
1
1
1
1
1

SCALARS radius float 1
LOOKUP_TABLE default
5e-05
5e-05
5e-05
5e-05
5e-05
5e-05
5e-05
5e-05
5e-05
5e-05
5e-05
5e-05
5e-05
5e-05
5e-05
5e-05
5e-05
5e-05
5e-05
5e-05
5e-05
5e-05
5e-05
5e-05
5e-05
5e-05
5e-05
5e-05
5e-05
5e-05
5e-05
5e-05
5e-05
5e-05
5e-05
5e-05
5e-05
5e-05
5e-05
5e-05
5e-05
5e-05
5e-05
5e-05
5e-05
5e-05
5e-05
5e-05
5e-05
5e-05
5e-05
5e-05
5e-05
5e-05
5e-05
5e-05
5e-05
5e-05
5e-05
5e-05
5e-05
5e-05
5e-05
5e-05
5e-05
5e-05
5e-05
5e-05
5e-05
5e-05
5e-05
5e-05
5e-05
5e-05
5e-05
5e-05
5e-05
5e-05
5e-05
5e-05
5e-05
5e-05
5e-05
5e-05
5e-05
5e-05
5e-05
5e-05
5e-05
5e-05
5e-05
5e-05
5e-05
5e-05
5e-05
5e-05
5e-05
5e-05
5e-05
5e-05
5e-05
5e-05
5e-05
5e-05
5e-05
5e-05
5e-05
5e-05
5e-05
5e-05
5e-05
5e-05
5e-05
5e-05
5e-05
5e-05
5e-05
5e-05
5e-05
5e-05
5e-05
5e-05
5e-05
5e-05
5e-05
5e-05
5e-05
5e-05
5e-05
5e-05
5e-05
5e-05
5e-05
5e-05
5e-05
5e-05
5e-05
5e-05
5e-05
5e-05
5e-05
5e-05
5e-05
5e-05
5e-05
5e-05
5e-05
5e-05
5e-05
5e-05
5e-05
5e-05
5e-05
5e-05
5e-05
5e-05
5e-05
5e-05
5e-05
5e-05
5e-05
5e-05
5e-05
5e-05
5e-05
5e-05
5e-05
5e-05
5e-05
5e-05
5e-05
5e-05
5e-05
5e-05
5e-05
5e-05
5e-05
5e-05
5e-05
5e-05
5e-05
5e-05
5e-05
5e-05
5e-05
5e-05
5e-05
5e-05
5e-05
5e-05
5e-05
5e-05
5e-05
5e-05
5e-05
5e-05
5e-05
5e-05
5e-05
5e-05
5e-05
5e-05
5e-05
5e-05
5e-05
5e-05
5e-05
5e-05
5e-05
5e-05
5e-05
5e-05
5e-05
5e-05
5e-05
5e-05
5e-05
5e-05
5e-05
5e-05
5e-05
5e-05
5e-05
5e-05
5e-05
5e-05
5e-05
5e-05
5e-05
5e-05
5e-05
5e-05
5e-05
5e-05
5e-05
5e-05
5e-05
5e-05
5e-05
5e-05
5e-05
5e-05
5e-05
5e-05
5e-05
5e-05
5e-05
5e-05
5e-05
5e-05
5e-05
5e-05
5e-05
5e-05
5e-05
5e-05
5e-05
5e-05
5e-05
5e-05
5e-05
5e-05
5e-05
5e-05
5e-05
5e-05
5e-05
5e-05
5e-05
5e-05
5e-05
5e-05
5e-05
5e-05
5e-05
5e-05
5e-05

SCALARS mass float 1
LOOKUP_TABLE default
1.46608e-10
1.46608e-10
1.46608e-10
1.46608e-10
1.46608e-10
1.46608e-10
1.46608e-10
1.46608e-10
1.46608e-10
1.46608e-10
1.46608e-10
1.46608e-10
1.46608e-10
1.46608e-10
1.46608e-10
1.46608e-10
1.46608e-10
1.46608e-10
1.46608e-10
1.46608e-10
1.46608e-10
1.46608e-10
1.46608e-10
1.46608e-10
1.46608e-10
1.46608e-10
1.46608e-10
1.46608e-10
1.46608e-10
1.46608e-10
1.46608e-10
1.46608e-10
1.46608e-10
1.46608e-10
1.46608e-10
1.46608e-10
1.46608e-10
1.46608e-10
1.46608e-10
1.46608e-10
1.46608e-10
1.46608e-10
1.46608e-10
1.46608e-10
1.46608e-10
1.46608e-10
1.46608e-10
1.46608e-10
1.46608e-10
1.46608e-10
1.46608e-10
1.46608e-10
1.46608e-10
1.46608e-10
1.46608e-10
1.46608e-10
1.46608e-10
1.46608e-10
1.46608e-10
1.46608e-10
1.46608e-10
1.46608e-10
1.46608e-10
1.46608e-10
1.46608e-10
1.46608e-10
1.46608e-10
1.46608e-10
1.46608e-10
1.46608e-10
1.46608e-10
1.46608e-10
1.46608e-10
1.46608e-10
1.46608e-10
1.46608e-10
1.46608e-10
1.46608e-10
1.46608e-10
1.46608e-10
1.46608e-10
1.46608e-10
1.46608e-10
1.46608e-10
1.46608e-10
1.46608e-10
1.46608e-10
1.46608e-10
1.46608e-10
1.46608e-10
1.46608e-10
1.46608e-10
1.46608e-10
1.46608e-10
1.46608e-10
1.46608e-10
1.46608e-10
1.46608e-10
1.46608e-10
1.46608e-10
1.46608e-10
1.46608e-10
1.46608e-10
1.46608e-10
1.46608e-10
1.46608e-10
1.46608e-10
1.46608e-10
1.46608e-10
1.46608e-10
1.46608e-10
1.46608e-10
1.46608e-10
1.46608e-10
1.46608e-10
1.46608e-10
1.46608e-10
1.46608e-10
1.46608e-10
1.46608e-10
1.46608e-10
1.46608e-10
1.46608e-10
1.46608e-10
1.46608e-10
1.46608e-10
1.46608e-10
1.46608e-10
1.46608e-10
1.46608e-10
1.46608e-10
1.46608e-10
1.46608e-10
1.46608e-10
1.46608e-10
1.46608e-10
1.46608e-10
1.46608e-10
1.46608e-10
1.46608e-10
1.46608e-10
1.46608e-10
1.46608e-10
1.46608e-10
1.46608e-10
1.46608e-10
1.46608e-10
1.46608e-10
1.46608e-10
1.46608e-10
1.46608e-10
1.46608e-10
1.46608e-10
1.46608e-10
1.46608e-10
1.46608e-10
1.46608e-10
1.46608e-10
1.46608e-10
1.46608e-10
1.46608e-10
1.46608e-10
1.46608e-10
1.46608e-10
1.46608e-10
1.46608e-10
1.46608e-10
1.46608e-10
1.46608e-10
1.46608e-10
1.46608e-10
1.46608e-10
1.46608e-10
1.46608e-10
1.46608e-10
1.46608e-10
1.46608e-10
1.46608e-10
1.46608e-10
1.46608e-10
1.46608e-10
1.46608e-10
1.46608e-10
1.46608e-10
1.46608e-10
1.46608e-10
1.46608e-10
1.46608e-10
1.46608e-10
1.46608e-10
1.46608e-10
1.46608e-10
1.46608e-10
1.46608e-10
1.46608e-10
1.46608e-10
1.46608e-10
1.46608e-10
1.46608e-10
1.46608e-10
1.46608e-10
1.46608e-10
1.46608e-10
1.46608e-10
1.46608e-10
1.46608e-10
1.46608e-10
1.46608e-10
1.46608e-10
1.46608e-10
1.46608e-10
1.46608e-10
1.46608e-10
1.46608e-10
1.46608e-10
1.46608e-10
1.46608e-10
1.46608e-10
1.46608e-10
1.46608e-10
1.46608e-10
1.46608e-10
1.46608e-10
1.46608e-10
1.46608e-10
1.46608e-10
1.46608e-10
1.46608e-10
1.46608e-10
1.46608e-10
1.46608e-10
1.46608e-10
1.46608e-10
1.46608e-10
1.46608e-10
1.46608e-10
1.46608e-10
1.46608e-10
1.46608e-10
1.46608e-10
1.46608e-10
1.46608e-10
1.46608e-10
1.46608e-10
1.46608e-10
1.46608e-10
1.46608e-10
1.46608e-10
1.46608e-10
1.46608e-10
1.46608e-10
1.46608e-10
1.46608e-10
1.46608e-10
1.46608e-10
1.46608e-10
1.46608e-10
1.46608e-10
1.46608e-10
1.46608e-10
1.46608e-10
1.46608e-10
1.46608e-10
1.46608e-10
1.46608e-10
1.46608e-10
1.46608e-10
1.46608e-10
1.46608e-10
1.46608e-10
1.46608e-10
1.46608e-10
1.46608e-10
1.46608e-10
1.46608e-10
1.46608e-10
1.46608e-10

VECTORS velocity float
1.7976e-18 -5.14666e-23 -1.37251e-15
-2.23511e-14 -1.50556e-13 1.24861e-15
4.95732e-19 -4.48176e-20 1.72753e-18
2.24031e-18 3.72352e-22 -1.71052e-15
1.79763e-18 -4.5194e-21 -1.37251e-15
1.7976e-18 -4.84014e-21 -1.37251e-15
-9.4517e-19 2.59914e-22 7.22168e-16
-1.92917e-18 -1.9293e-21 1.47405e-15
6.71863e-19 -7.33067e-22 -5.12668e-16
-1.22398e-21 -7.78609e-21 1.25004e-20
1.27019e-21 1.22711e-21 -3.48694e-21
-3.50215e-19 1.36536e-21 2.67381e-16
8.71337e-19 -1.07978e-21 -6.65298e-16
3.53834e-19 7.77545e-22 -2.6883e-16
-9.20561e-19 -1.27976e-20 7.02843e-16
-3.50175e-19 7.69224e-22 2.67381e-16
2.81054e-18 1.68634e-21 -2.14593e-15
1.11371e-20 -6.23803e-21 1.37491e-20
-4.22552e-20 5.66654e-20 3.06355e-18
4.46241e-22 1.43712e-21 -1.31564e-22
-1.93202e-18 1.92138e-21 1.47405e-15
-3.43321e-19 1.04473e-21 2.59935e-16
2.64175e-21 1.29163e-21 -1.66223e-21
1.79756e-18 -6.37151e-21 -1.37249e-15
1.79759e-18 1.06571e-20 -1.37251e-15
-9.20556e-19 -2.38126e-21 7.02842e-16
-3.50184e-19 3.63748e-21 2.67381e-16
2.81054e-18 -1.27522e-21 -2.14593e-15
-3.01638e-21 -1.03777e-20 3.01265e-18
-1.13863e-21 6.92958e-21 3.00855e-18
-3.502e-19 8.99102e-21 2.67382e-16
1.7976e-18 -6.74822e-24 -1.37251e-15
1.79763e-18 -8.16716e-22 -1.37251e-15
-9.20537e-19 4.99438e-22 7.02842e-16
2.81057e-18 1.14905e-22 -2.14593e-15
-3.5017e-19 -6.04008e-22 2.67381e-16
2.24034e-18 -1.72705e-21 -1.71052e-15
2.24034e-18 -1.86686e-21 -1.71052e-15
2.80848e-13 -6.09696e-13 -1.51076e-15
2.81055e-18 -4.9332e-22 -2.14593e-15
1.79761e-18 1.7331e-23 -1.37249e-15
2.24034e-18 -7.70283e-21 -1.71051e-15
4.58952e-21 -2.73245e-21 9.4902e-21
-3.50218e-19 -3.62843e-23 2.67381e-16
-2.82497e-15 1.87927e-14 2.4561e-13
-9.20532e-19 1.9557e-23 7.02844e-16
2.81057e-18 1.06887e-22 -2.14593e-15
1.79759e-18 -4.2683e-21 -1.37249e-15
-6.53722e-20 -3.63536e-20 2.96875e-18
2.81056e-18 4.81043e-23 -2.14593e-15
2.92965e-18 -2.70154e-21 -2.23681e-15
1.45281e-18 2.75896e-20 -1.10924e-15
2.24033e-18 1.54082e-22 -1.71052e-15
-1.31846e-21 1.44613e-20 -8.18805e-19
2.24036e-18 -3.83618e-22 -1.71052e-15
2.24033e-18 1.46075e-21 -1.71052e-15
2.61543e-14 1.76195e-13 1.31181e-15
2.8106e-18 1.96113e-21 -2.14593e-15
5.18532e-21 1.55462e-21 2.12816e-20
1.79761e-18 -6.49007e-21 -1.37251e-15
-3.50172e-19 4.72134e-22 2.67381e-16
2.24034e-18 4.25014e-22 -1.71052e-15
2.24031e-18 2.03986e-21 -1.71052e-15
1.79758e-18 -3.43941e-21 -1.37249e-15
1.88437e-21 -3.72549e-22 1.58625e-20
1.79761e-18 -6.14518e-22 -1.37251e-15
1.0695e-20 -6.42474e-20 2.30204e-19
2.81054e-18 3.7935e-20 -2.14593e-15
-3.39637e-19 1.93863e-21 2.59935e-16
1.64365e-18 -6.46953e-20 -1.25496e-15
2.81055e-18 1.61081e-22 -2.14593e-15
-3.50174e-19 -5.77671e-21 2.67382e-16
2.00504e-18 -1.46922e-21 -1.5309e-15
1.79758e-18 -1.63337e-21 -1.37249e-15
-3.50189e-19 1.24445e-20 2.6738e-16
2.00504e-18 1.41774e-21 -1.5309e-15
1.79759e-18 -1.58847e-22 -1.37251e-15
-2.38077e-21 -7.79495e-21 4.60889e-21
2.24036e-18 -4.056e-21 -1.71051e-15
2.24037e-18 -1.50235e-21 -1.71052e-15
2.24032e-18 1.01616e-21 -1.71051e-15
2.24037e-18 4.74625e-21 -1.71052e-15
2.83948e-18 -1.80377e-14 -5.94669e-14
-1.44199e-18 1.70062e-19 -3.88039e-19
2.24034e-18 1.69555e-20 -1.71052e-15
8.71334e-19 1.03671e-20 -6.65298e-16
-8.06566e-22 -3.84937e-21 1.23146e-20
1.79764e-18 2.86036e-21 -1.37251e-15
6.01281e-21 -1.29256e-20 3.03894e-18
2.24031e-18 9.1947e-22 -1.71052e-15
-5.48657e-22 -5.24362e-21 -8.36318e-19
2.81055e-18 1.62065e-21 -2.14593e-15
1.7976e-18 3.727e-22 -1.37251e-15
-3.5022e-19 -1.8038e-21 2.67382e-16
6.09476e-19 -5.47414e-21 -4.30067e-16
2.24033e-18 2.78963e-23 -1.71052e-15
-9.24998e-19 7.63298e-21 7.0413e-16
-3.50179e-19 -1.05937e-22 2.67381e-16
1.79759e-18 -4.33416e-21 -1.37249e-15
-8.16095e-19 -3.31421e-19 -1.88708e-19
-1.82744e-19 -7.47627e-21 1.41797e-16
-3.50182e-19 1.35646e-20 2.6738e-16
-6.52981e-23 -3.05666e-21 8.83338e-21
1.79761e-18 -1.97867e-22 -1.37251e-15
1.79759e-18 1.09048e-22 -1.37249e-15
-1.96706e-22 -6.73516e-21 2.338e-21
-1.68988e-20 -6.00658e-21 2.11868e-18
2.24034e-18 1.05255e-20 -1.71051e-15
1.79756e-18 2.52837e-22 -1.37249e-15
-4.34605e-21 -4.8598e-21 -7.89135e-21
1.79763e-18 -4.26679e-21 -1.37251e-15
-5.2742e-21 -8.57546e-21 3.03917e-18
8.71353e-19 -2.38034e-20 -6.65297e-16
2.81056e-18 -2.19167e-22 -2.14593e-15
1.79762e-18 -1.64409e-20 -1.37251e-15
2.24031e-18 4.28285e-21 -1.71052e-15
1.79761e-18 -1.91635e-22 -1.37251e-15
1.46547e-20 -7.40148e-21 2.96736e-18
2.24036e-18 -3.12581e-21 -1.71051e-15
1.62194e-20 7.60228e-22 8.43933e-21
-3.50221e-19 -7.9581e-22 2.67382e-16
1.79762e-18 2.36211e-22 -1.37251e-15
2.24036e-18 1.63709e-23 -1.71052e-15
1.097e-21 2.77698e-21 2.96188e-18
-5.81395e-18 -1.87134e-16 -5.6274e-18
2.81054e-18 -9.82975e-22 -2.14593e-15
-1.84607e-19 2.86316e-22 1.41777e-16
2.24031e-18 -1.65018e-21 -1.71052e-15
-2.61994e-20 -6.59947e-21 2.99228e-18
-9.38037e-19 -6.93431e-23 7.22168e-16
-1.83638e-19 3.49678e-21 1.41781e-16
-3.5018e-19 -1.01902e-21 2.67382e-16
-4.90896e-21 3.60286e-22 1.40103e-20
-9.38908e-19 4.02198e-21 7.22159e-16
-9.20518e-19 -5.58246e-22 7.02843e-16
2.24036e-18 1.17762e-21 -1.71052e-15
-3.75102e-21 1.11337e-21 2.55853e-18
9.04479e-21 -2.07613e-21 8.09865e-21
1.00665e-19 -1.03686e-19 3.93229e-20
5.36421e-22 1.4333e-22 2.97053e-18
1.45286e-18 -1.74211e-20 -1.10923e-15
2.24035e-18 -8.72736e-22 -1.71052e-15
1.95751e-20 -3.78822e-20 2.09415e-18
2.24033e-18 4.36308e-21 -1.71052e-15
1.79759e-18 9.76251e-22 -1.37249e-15
2.00508e-18 -2.92479e-21 -1.5309e-15
-2.31198e-19 4.84105e-21 1.76521e-16
1.02959e-20 -8.02319e-21 5.7231e-21
-1.45248e-22 4.51554e-24 -1.18916e-23
1.79757e-18 -2.01424e-23 -1.37249e-15
4.49527e-18 -1.80377e-14 -5.94669e-14
-2.7867e-13 6.04979e-13 -2.24277e-15
3.48593e-19 1.13669e-21 -2.68831e-16
1.79763e-18 1.76989e-24 -1.37251e-15
5.20346e-22 2.2555e-22 -9.08599e-21
1.79764e-18 -5.54346e-21 -1.37251e-15
1.7976e-18 1.5129e-21 -1.37249e-15
1.56777e-21 -2.28206e-21 -8.41934e-19
2.0617e-20 1.13909e-20 -8.6688e-21
1.45281e-18 -7.39457e-21 -1.10923e-15
1.79763e-18 -5.49467e-21 -1.37251e-15
1.79762e-18 -3.48451e-21 -1.37251e-15
2.00508e-18 2.28437e-20 -1.5309e-15
1.7976e-18 -3.51457e-22 -1.37251e-15
6.18552e-22 3.54743e-21 7.18022e-21
-3.78171e-21 -4.63234e-21 3.15091e-18
9.35082e-20 -1.57969e-19 3.10729e-18
6.09236e-21 2.20957e-21 3.07479e-18
-1.90829e-19 1.82538e-19 2.74969e-18
1.79759e-18 -3.464e-22 -1.37251e-15
2.24036e-18 5.36269e-23 -1.71052e-15
-9.20572e-19 -1.15663e-20 7.02844e-16
-3.5018e-19 4.45233e-21 2.67382e-16
1.7111e-22 1.77442e-21 -9.2024e-21
2.24031e-18 1.51213e-22 -1.71052e-15
-4.39337e-21 3.35564e-21 3.152e-18
1.79761e-18 1.16428e-21 -1.37251e-15
5.601e-22 5.02262e-21 7.72249e-21
1.7976e-18 1.72777e-21 -1.37249e-15
2.81054e-18 1.82056e-20 -2.14593e-15
1.45282e-18 2.98918e-24 -1.10923e-15
1.79762e-18 -1.18867e-23 -1.37251e-15
1.79761e-18 8.1527e-22 -1.37251e-15
5.72289e-19 2.33983e-20 -4.38745e-16
-9.029e-19 -3.99508e-21 7.04124e-16
-4.30345e-21 8.42061e-22 3.17569e-18
8.71332e-19 2.93608e-20 -6.65298e-16
-3.50215e-19 1.98037e-22 2.67381e-16
-7.94885e-16 -3.38529e-16 -2.57068e-17
6.14521e-21 -1.83603e-21 1.37425e-20
9.97187e-22 -1.53622e-20 -3.43351e-21
2.24031e-18 -3.64552e-21 -1.71052e-15
-3.50197e-19 4.77536e-22 2.6738e-16
-3.81648e-21 -2.15578e-21 2.96245e-18
1.79762e-18 -2.61244e-22 -1.37251e-15
6.71547e-19 -4.6574e-22 -5.12669e-16
1.79759e-18 1.38038e-23 -1.37249e-15
6.55448e-17 -1.36878e-16 -6.554e-16
-2.33034e-20 -6.79261e-21 3.17734e-18
1.12361e-21 1.20256e-21 2.83676e-21
1.2528e-17 -1.9283e-17 -4.34083e-16
1.79756e-18 1.53715e-20 -1.37249e-15
-3.50208e-19 8.01439e-21 2.67381e-16
1.79764e-18 5.15213e-21 -1.37251e-15
2.81054e-18 2.2923e-22 -2.14593e-15
-2.89108e-21 5.78587e-22 2.89328e-18
-9.188e-19 -6.31429e-21 7.04123e-16
2.81055e-18 -7.09703e-21 -2.14593e-15
7.83784e-22 -3.27099e-22 1.43197e-20
2.24032e-18 6.10871e-22 -1.71052e-15
2.24032e-18 -1.62491e-22 -1.71052e-15
2.19243e-21 4.24759e-21 1.54895e-22
-8.09248e-20 -8.98098e-20 3.76605e-19
1.79757e-18 4.59443e-22 -1.37249e-15
-3.50224e-19 -4.89083e-24 2.67382e-16
3.53022e-19 2.18109e-21 -2.68828e-16
1.79764e-18 -5.13255e-23 -1.37251e-15
-9.20561e-19 5.81808e-22 7.02843e-16
1.79759e-18 1.63091e-22 -1.37249e-15
2.24034e-18 -7.57239e-23 -1.71052e-15
-1.78082e-21 -2.96143e-22 1.15123e-20
-9.20521e-19 -2.14729e-23 7.02845e-16
-3.37817e-19 3.62163e-21 2.59945e-16
-1.46678e-15 -3.32049e-15 -2.09204e-14
-3.50198e-19 8.64975e-21 2.67381e-16
3.36457e-19 -1.43837e-19 2.46317e-18
3.46546e-21 -1.95635e-22 -6.39798e-22
-1.42829e-21 -3.25739e-21 2.97934e-22
-1.18464e-21 6.74395e-21 3.18437e-18
-9.66342e-21 -8.68442e-22 3.05367e-18
6.80453e-15 2.29897e-14 -7.03245e-14
-3.50169e-19 4.3113e-22 2.67381e-16
1.79757e-18 -2.99541e-23 -1.37249e-15
-3.65136e-22 2.43013e-21 -1.68321e-21
2.24031e-18 -1.58868e-20 -1.71051e-15
-1.75831e-18 5.11739e-20 1.33197e-15
-9.04386e-21 -1.24467e-20 2.93495e-18
1.79759e-18 5.92927e-23 -1.37249e-15
1.45284e-18 -1.65273e-21 -1.10923e-15
-8.7585e-21 -4.87518e-20 1.14021e-18
7.95101e-21 7.80163e-21 2.92644e-18
-3.67205e-21 -3.31438e-21 2.96421e-18
1.79761e-18 -1.573e-21 -1.37249e-15
-3.50183e-19 3.49723e-23 2.67381e-16
2.24035e-18 2.14327e-20 -1.71052e-15
2.24034e-18 -2.83876e-21 -1.71051e-15
6.71846e-19 7.14712e-22 -5.12668e-16
2.24032e-18 -4.88735e-21 -1.71052e-15
6.88074e-16 -4.5769e-15 -5.98175e-14
1.14036e-18 -3.77107e-20 -9.21803e-21
-3.50196e-19 5.73804e-22 2.67381e-16
2.00505e-18 7.34176e-21 -1.5309e-15
1.79761e-18 -3.43401e-21 -1.37251e-15
2.81059e-18 -6.86562e-22 -2.14593e-15
-3.50172e-19 6.84017e-23 2.67381e-16
1.7976e-18 2.35356e-22 -1.37251e-15
1.7976e-18 -1.78051e-22 -1.37249e-15
-1.28244e-14 6.09121e-14 -1.90218e-13
-8.10698e-20 -6.14434e-20 2.88624e-18
1.7976e-18 -4.37417e-22 -1.37251e-15
2.24031e-18 2.6245e-21 -1.71052e-15
2.90918e-20 -3.56151e-20 -8.37876e-19
3.73442e-18 -1.80377e-14 -5.94669e-14
-1.795e-19 -9.26026e-21 1.41779e-16
1.79761e-18 -2.57445e-21 -1.37251e-15
1.79755e-18 1.91193e-21 -1.37249e-15
-3.40391e-19 -2.76943e-21 2.59932e-16
2.17875e-18 2.27133e-18 2.315e-18
-9.48449e-19 3.30968e-21 7.22163e-16
-3.35205e-19 -4.29733e-21 2.59943e-16
1.79764e-18 -1.92439e-21 -1.37251e-15
-9.18283e-19 -8.78925e-22 7.04127e-16
1.79759e-18 3.92194e-21 -1.37251e-15
-2.09129e-15 5.04126e-14 2.1718e-13
1.79755e-18 9.35769e-21 -1.37249e-15
-3.50212e-19 3.6167e-20 2.6738e-16
6.8458e-21 5.83909e-22 -4.43657e-21

VECTORS force float
0.0 -9.89048e-27 0.0
1.39479e-18 9.39593e-18 1.83096e-21
0.0 -1.55096e-25 2.06795e-25
0.0 -1.4648e-27 0.0
0.0 -1.66227e-25 0.0
0.0 2.29179e-25 0.0
0.0 0.0 0.0
-6.05845e-28 3.02923e-28 0.0
0.0 0.0 0.0
-3.87741e-26 7.75482e-26 0.0
0.0 0.0 0.0
0.0 -3.19196e-27 0.0
0.0 -2.35036e-25 0.0
0.0 0.0 0.0
0.0 -5.33305e-25 0.0
0.0 2.73984e-26 0.0
0.0 8.04481e-27 0.0
0.0 1.55096e-25 4.1359e-25
0.0 -5.16988e-26 0.0
0.0 -2.58494e-26 0.0
4.03897e-28 -2.01948e-28 0.0
0.0 0.0 0.0
0.0 0.0 1.9387e-26
0.0 -1.9277e-25 0.0
0.0 6.35375e-26 0.0
0.0 2.73911e-26 0.0
0.0 3.6703e-25 0.0
0.0 -5.48612e-27 0.0
0.0 2.58494e-26 0.0
2.58494e-26 -1.03398e-25 0.0
0.0 1.43574e-25 0.0
0.0 -7.55003e-28 0.0
0.0 9.22483e-26 0.0
0.0 1.14465e-26 0.0
-4.03897e-28 2.14016e-27 0.0
0.0 2.73948e-27 0.0
0.0 -2.77078e-26 0.0
0.0 -2.44559e-27 0.0
7.90304e-19 -1.71569e-18 1.03398e-21
0.0 -2.49971e-27 0.0
0.0 -5.12626e-28 0.0
0.0 -2.31892e-26 0.0
0.0 0.0 0.0
0.0 -5.64955e-27 0.0
4.65612e-24 1.9387e-25 0.0
0.0 4.11342e-28 0.0
0.0 4.6763e-26 0.0
0.0 -4.46432e-25 0.0
0.0 3.23117e-26 2.06795e-25
0.0 8.54371e-28 0.0
0.0 -8.67927e-26 0.0
0.0 3.91067e-25 0.0
-4.03897e-28 7.86086e-27 0.0
0.0 0.0 0.0
0.0 9.24925e-27 0.0
0.0 2.25652e-26 0.0
-1.44295e-18 -9.72021e-18 -1.89404e-21
0.0 -7.75563e-27 0.0
0.0 0.0 0.0
0.0 5.15285e-26 0.0
0.0 -1.06392e-26 0.0
-4.03897e-28 2.64269e-27 0.0
0.0 -1.90852e-26 0.0
0.0 4.71327e-27 0.0
0.0 0.0 0.0
0.0 -2.29416e-27 0.0
-2.32645e-25 -9.69352e-27 8.27181e-25
0.0 -4.18041e-26 0.0
0.0 0.0 0.0
0.0 2.91256e-25 0.0
0.0 -2.88284e-27 0.0
0.0 -5.55057e-26 0.0
0.0 -5.38232e-25 0.0
0.0 1.20836e-26 0.0
0.0 -2.82467e-25 0.0
-4.03897e-28 1.49718e-26 0.0
0.0 4.1027e-27 0.0
-5.16988e-26 0.0 0.0
0.0 -3.36708e-26 0.0
0.0 -7.63394e-26 0.0
0.0 -6.74141e-26 0.0
0.0 1.5743e-26 0.0
-3.38119e-23 0.0 0.0
0.0 -1.9387e-26 0.0
0.0 1.83523e-25 0.0
0.0 1.30839e-25 0.0
-2.58494e-26 0.0 0.0
0.0 5.16483e-26 0.0
-2.58494e-26 1.03398e-25 -4.1359e-25
0.0 -1.09104e-25 0.0
-2.58494e-26 5.16988e-26 0.0
0.0 4.83442e-26 0.0
0.0 -3.95872e-26 0.0
0.0 -8.48902e-26 0.0
2.06795e-25 3.93799e-26 0.0
0.0 -1.97958e-27 0.0
0.0 0.0 0.0
0.0 -2.01488e-26 0.0
0.0 -5.18735e-27 0.0
2.06795e-25 -1.22785e-24 -1.24077e-24
0.0 0.0 0.0
0.0 -5.04343e-26 0.0
0.0 0.0 0.0
0.0 -1.70566e-26 0.0
0.0 -1.35054e-27 0.0
5.16988e-26 0.0 0.0
4.84676e-26 0.0 0.0
0.0 1.53821e-24 0.0
-4.03897e-28 -6.79526e-27 0.0
-7.75482e-26 0.0 0.0
0.0 -2.79699e-26 0.0
-5.16988e-26 -3.87741e-26 -2.06795e-25
0.0 3.42822e-25 0.0
0.0 -6.99865e-27 0.0
0.0 -3.6462e-25 0.0
0.0 -5.68473e-28 0.0
0.0 -2.01336e-27 0.0
0.0 -1.29247e-26 0.0
0.0 7.06781e-27 0.0
-5.16988e-26 -3.87741e-26 0.0
0.0 -1.09392e-27 0.0
0.0 -7.87851e-27 0.0
0.0 -6.24387e-27 0.0
0.0 5.16988e-26 0.0
3.23117e-26 5.16988e-26 0.0
0.0 -5.71692e-27 0.0
-1.29247e-26 -3.23117e-27 0.0
0.0 -4.79083e-26 0.0
0.0 0.0 0.0
0.0 0.0 0.0
2.58494e-26 -1.03398e-25 0.0
4.03897e-28 8.42075e-27 0.0
0.0 0.0 0.0
0.0 0.0 0.0
0.0 -3.62152e-27 0.0
0.0 -2.27318e-27 0.0
0.0 0.0 0.0
1.03398e-25 0.0 0.0
-3.61892e-25 3.87741e-25 6.20385e-25
0.0 1.29247e-26 0.0
0.0 -1.95314e-25 0.0
0.0 1.71165e-25 0.0
1.03398e-25 0.0 0.0
4.03897e-28 -5.3032e-26 0.0
4.03897e-28 -3.33838e-27 0.0
0.0 -1.85095e-25 0.0
0.0 -3.10367e-26 0.0
-7.10858e-26 -5.16988e-26 4.1359e-25
0.0 0.0 0.0
0.0 2.27088e-28 0.0
2.28736e-24 5.16988e-26 0.0
-7.78099e-19 1.68921e-18 -1.01805e-21
0.0 0.0 0.0
0.0 5.14412e-27 0.0
0.0 -1.61559e-27 0.0
-4.03897e-28 9.20562e-26 0.0
0.0 -7.25677e-26 0.0
6.46235e-27 0.0 0.0
0.0 -1.03398e-25 2.06795e-25
0.0 9.25113e-26 0.0
0.0 -3.67434e-26 0.0
-4.03897e-28 -5.07561e-26 0.0
0.0 2.67406e-25 0.0
0.0 -9.23353e-27 0.0
0.0 0.0 0.0
-5.16988e-26 5.16988e-26 0.0
0.0 -2.06795e-25 0.0
0.0 0.0 4.1359e-25
0.0 0.0 0.0
0.0 1.89594e-26 0.0
-4.03897e-28 8.93878e-29 0.0
0.0 3.78798e-26 0.0
0.0 3.30882e-26 0.0
0.0 0.0 0.0
0.0 7.77989e-28 0.0
7.75482e-26 0.0 0.0
0.0 -3.13822e-26 0.0
0.0 0.0 0.0
0.0 -3.29673e-27 0.0
0.0 5.06691e-25 0.0
0.0 -1.26068e-27 0.0
0.0 -2.39857e-26 0.0
0.0 -1.58495e-27 0.0
1.03398e-25 0.0 0.0
-5.16988e-26 0.0 -2.06795e-25
2.90806e-26 0.0 0.0
0.0 3.06894e-25 0.0
0.0 2.10147e-27 0.0
0.0 -2.06795e-25 0.0
0.0 1.29247e-26 0.0
0.0 1.03398e-25 0.0
0.0 -9.46966e-28 0.0
0.0 -6.21687e-26 0.0
2.58494e-26 0.0 0.0
0.0 3.58244e-26 0.0
-1.00974e-28 0.0 0.0
0.0 4.17732e-28 0.0
-3.85156e-24 -4.0842e-24 -8.27181e-25
1.03398e-25 1.29247e-26 0.0
0.0 5.16988e-26 0.0
-2.06795e-25 -1.03398e-25 0.0
0.0 -5.50246e-26 0.0
0.0 6.95422e-26 0.0
0.0 -5.8415e-26 0.0
0.0 -7.32421e-28 0.0
6.86625e-27 1.03398e-25 0.0
5.16988e-26 -2.58494e-26 4.1359e-25
0.0 -4.33181e-26 0.0
0.0 0.0 0.0
4.03897e-28 1.28197e-26 0.0
4.03897e-28 3.86025e-27 0.0
0.0 0.0 -2.42338e-27
9.69352e-26 6.20385e-25 2.06795e-25
0.0 -9.99388e-27 0.0
0.0 -1.55512e-27 0.0
0.0 0.0 0.0
0.0 -9.24063e-28 0.0
0.0 -6.25289e-27 0.0
0.0 -9.68784e-28 0.0
0.0 -1.15629e-27 0.0
-1.29247e-26 0.0 0.0
0.0 5.23237e-30 0.0
0.0 0.0 0.0
-2.58494e-26 2.86928e-24 -2.06795e-25
4.03897e-28 -1.04468e-25 0.0
0.0 1.55096e-25 0.0
0.0 1.29247e-26 6.46235e-27
5.16988e-26 -1.80946e-25 0.0
0.0 2.58494e-26 0.0
0.0 0.0 0.0
-2.27992e-23 -2.05244e-23 -1.03398e-23
0.0 -8.6875e-27 0.0
0.0 -8.22513e-27 0.0
0.0 0.0 0.0
4.03897e-28 -3.44641e-25 0.0
1.29247e-26 0.0 0.0
-5.16988e-26 2.58494e-26 0.0
0.0 1.74591e-28 0.0
0.0 -1.3014e-26 0.0
-1.55096e-25 0.0 0.0
0.0 0.0 2.06795e-25
0.0 -2.58494e-26 0.0
0.0 -5.31795e-26 0.0
0.0 -1.24471e-28 0.0
0.0 5.50871e-26 0.0
4.03897e-28 2.84867e-25 0.0
0.0 -1.29247e-26 0.0
0.0 1.89827e-25 0.0
-4.20699e-24 9.04729e-26 0.0
0.0 1.29247e-25 -1.55096e-25
-4.03897e-28 -9.74075e-27 0.0
0.0 -4.80539e-26 0.0
0.0 2.13995e-26 0.0
0.0 -3.01931e-27 0.0
0.0 -2.52547e-28 0.0
0.0 3.48525e-27 0.0
0.0 -7.8361e-27 0.0
4.14508e-22 5.15437e-23 -1.0133e-23
5.16988e-26 0.0 0.0
0.0 -1.46009e-27 0.0
0.0 -3.59125e-25 0.0
5.16988e-26 -1.03398e-25 0.0
5.19274e-24 0.0 0.0
-2.58494e-26 1.03398e-25 0.0
0.0 -2.60796e-26 0.0
0.0 -6.10052e-27 0.0
6.46235e-27 0.0 0.0
0.0 0.0 0.0
0.0 0.0 0.0
0.0 0.0 0.0
0.0 2.31769e-27 0.0
0.0 0.0 0.0
0.0 7.62173e-26 0.0
-2.4174e-23 -4.1359e-25 0.0
-4.03897e-28 -9.6703e-26 0.0
0.0 -3.49161e-25 0.0
0.0 0.0 -5.16988e-26
