# vtk DataFile Version 3.0
LIGGGHTS particles timestep 71400000
ASCII
DATASET POLYDATA
POINTS 283 float
0.340108 0.0167087 0.00762947
0.340463 0.0177425 0.00735453
0.340292 0.0175338 0.00725509
0.340273 0.0174356 0.00725586
0.339788 0.0157616 0.00874522
0.346095 0.0167511 0.00777834
0.340007 0.0161016 0.0082306
0.339767 0.0157093 0.0088279
0.346346 0.0178012 0.00725515
0.340663 0.0180223 0.00728281
0.340151 0.0164949 0.00767614
0.34631 0.0176248 0.00734237
0.340694 0.017761 0.00729416
0.334551 0.018755 0.00685585
0.340717 0.0178584 0.00729383
0.33405 0.0164854 0.00778848
0.34646 0.018336 0.00700969
0.340301 0.0174817 0.00733992
0.340385 0.017115 0.00732354
0.339809 0.0158138 0.00866254
0.34033 0.0177301 0.00726029
0.346271 0.0174493 0.0074296
0.340517 0.0173372 0.00728663
0.346201 0.0171884 0.00756032
0.334084 0.0162469 0.00789664
0.340252 0.0171563 0.00741145
0.346074 0.0166636 0.00782194
0.340448 0.0178601 0.00726321
0.340652 0.0175655 0.00729519
0.346117 0.0168385 0.00773473
0.34032 0.0175798 0.00733918
0.340641 0.0179241 0.00728323
0.346402 0.0180653 0.0071243
0.340031 0.0161539 0.00814879
0.340556 0.0175333 0.00728523
0.340209 0.0163895 0.00779987
0.340574 0.0171733 0.00729798
0.340632 0.0174676 0.0072958
0.340427 0.0177624 0.00726365
0.340309 0.0171774 0.00729996
0.346138 0.016926 0.00769113
0.346224 0.0172755 0.00751673
0.339967 0.015998 0.00839488
0.340365 0.0170263 0.00736548
0.34618 0.0171009 0.00760392
0.340442 0.0174026 0.00727611
0.334481 0.0184271 0.00699241
0.334498 0.0180383 0.00709731
0.340567 0.0179899 0.00727278
0.346159 0.0170134 0.00764752
0.334275 0.0170571 0.00753524
0.346292 0.0175368 0.00738599
0.340582 0.0178722 0.00736412
0.33983 0.0158661 0.00857985
0.340243 0.0164982 0.00762508
0.340367 0.0174683 0.00726558
0.346248 0.0173623 0.00747318
0.339976 0.0162312 0.00800227
0.334769 0.0186737 0.00683716
0.340738 0.0179563 0.00729324
0.334393 0.0171661 0.00748844
0.340326 0.016849 0.00744955
0.346519 0.0186144 0.00691499
0.334195 0.0171107 0.00750948
0.346328 0.0177131 0.00729876
0.340189 0.0163373 0.00788256
0.340073 0.0165317 0.00761876
0.340348 0.017178 0.00739193
0.346441 0.0182431 0.00704127
0.340373 0.0179251 0.00725271
0.33388 0.0158022 0.00816602
0.334104 0.0163363 0.00785675
0.340518 0.0175801 0.00736508
0.334595 0.0189483 0.00688282
0.334452 0.0174347 0.00736849
0.333902 0.0158853 0.00811477
0.346384 0.0179773 0.00716792
0.334254 0.0169677 0.00757512
0.340405 0.0176645 0.00726415
0.346365 0.0178892 0.00721153
0.340265 0.0165836 0.00757563
0.340422 0.0173041 0.00727681
0.34017 0.0165647 0.00760727
0.34005 0.0162061 0.00806571
0.34046 0.0170527 0.00734844
0.34029 0.0170886 0.00734201
0.340231 0.0168229 0.00746823
0.340502 0.0176968 0.00727412
0.340593 0.0172714 0.00729723
0.340414 0.0175371 0.00735598
0.3346 0.0177401 0.00723376
0.340482 0.0184135 0.00725047
0.33462 0.0181683 0.00704112
0.340461 0.0175007 0.00727537
0.340612 0.0173695 0.00729649
0.334433 0.0173451 0.0074085
0.334517 0.0181284 0.00705707
0.34009 0.0163104 0.00790038
0.33384 0.0157152 0.00834148
0.340576 0.0176313 0.00728458
0.340253 0.0173395 0.00727525
0.340352 0.0178275 0.00725316
0.339913 0.0160744 0.00825018
0.334126 0.016427 0.00781631
0.340492 0.0180555 0.00726232
0.334295 0.0171464 0.00749535
0.340194 0.0170604 0.0073616
0.340233 0.0172427 0.00729101
0.340133 0.0164349 0.00775418
0.334737 0.0187671 0.00685229
0.346053 0.0165761 0.00786554
0.34048 0.0171443 0.00731348
0.34042 0.0168749 0.0074311
0.340114 0.0167064 0.00752967
0.334509 0.0185596 0.00686254
0.340438 0.0182182 0.00725137
0.34062 0.0178265 0.00728369
0.340225 0.0164416 0.00771599
0.333944 0.0160519 0.00801272
0.340588 0.0180876 0.00727233
0.334062 0.0161585 0.00793814
0.339892 0.0160222 0.00833285
0.334568 0.0185877 0.00694089
0.340229 0.0170186 0.00747302
0.340345 0.0169377 0.00740746
0.340402 0.0172061 0.00728029
0.34019 0.0166471 0.00755429
0.334469 0.0183719 0.007075
0.340018 0.0163719 0.00786821
0.340134 0.0167948 0.00748767
0.340285 0.016672 0.00753361
0.340513 0.0181532 0.00726186
0.334638 0.018258 0.00700106
0.339999 0.01605 0.00831585
0.340439 0.0176413 0.00735537
0.340271 0.017 0.00738405
0.340052 0.0164443 0.0076627
0.33386 0.0157573 0.00825304
0.340383 0.0178013 0.00734453
0.34044 0.0169635 0.00738908
0.340077 0.0162584 0.0079847
0.334497 0.0176126 0.00728922
0.340417 0.0181205 0.00725181
0.334009 0.0163067 0.00786827
0.334151 0.0165167 0.00777636
0.334672 0.0188647 0.00686856
0.340386 0.0175665 0.00726482
0.334658 0.0184395 0.00691961
0.340535 0.0182508 0.00726141
0.334545 0.0178962 0.0071623
0.340211 0.0167348 0.00751093
0.334707 0.0185966 0.00684978
0.340154 0.0168833 0.00744568
0.334441 0.018244 0.00700348
0.340305 0.0167605 0.00749156
0.334234 0.0168782 0.00761503
0.340536 0.0174353 0.00728588
0.334603 0.0183651 0.00704675
0.334525 0.0179836 0.00720667
0.340479 0.017905 0.0073472
0.334468 0.0181785 0.00712852
0.340348 0.0173701 0.00726638
0.334522 0.0177964 0.00720684
0.334331 0.0177345 0.00723097
0.334029 0.0163961 0.00782834
0.334596 0.0184818 0.00698592
0.334393 0.0175943 0.0072954
0.334315 0.017236 0.00745537
0.340395 0.0180228 0.00725226
0.33453 0.0186574 0.00685893
0.340512 0.0180164 0.00735215
0.334607 0.0185944 0.00684879
0.34048 0.0175989 0.00727461
0.334215 0.0172001 0.00746959
0.334373 0.0175048 0.00733536
0.346421 0.0181534 0.00708094
0.340009 0.01637 0.00796775
0.339988 0.0163309 0.00805725
0.334091 0.0166639 0.00770881
0.340314 0.0170724 0.00743775
0.334555 0.0178767 0.0072599
0.340608 0.0180486 0.00736218
0.339873 0.015971 0.00841658
0.334391 0.0180102 0.00716643
0.334695 0.0181093 0.00706922
0.340113 0.0163861 0.00783916
0.33446 0.0183335 0.00696348
0.334502 0.0185263 0.0069842
0.333966 0.0161351 0.00796171
0.334479 0.0177992 0.00729708
0.334725 0.0185072 0.00689046
0.340673 0.0176633 0.00729463
0.334378 0.0179486 0.00724428
0.334174 0.0170219 0.00755062
0.334499 0.0177037 0.00724817
0.334413 0.0172555 0.0074485
0.334644 0.018771 0.00688931
0.333987 0.0162196 0.00791241
0.340411 0.0180037 0.00734911
0.339996 0.0162834 0.00791944
0.346499 0.0185216 0.00694655
0.340093 0.0166177 0.00757183
0.334212 0.0167878 0.00765536
0.340036 0.0163921 0.00774646
0.339954 0.0161789 0.00808484
0.339934 0.0161267 0.00816749
0.34046 0.0183159 0.00725092
0.334074 0.0165741 0.00774898
0.340598 0.0177288 0.00728416
0.33417 0.0166084 0.0077354
0.333923 0.0159686 0.00806375
0.34648 0.0184288 0.00697811
0.334313 0.0176536 0.00728704
0.3346 0.0180787 0.00708115
0.334335 0.0173256 0.00741536
0.33435 0.0178241 0.00719097
0.33457 0.0181764 0.00712741
0.334133 0.0168426 0.00762911
0.334674 0.0180175 0.00711019
0.340251 0.0169114 0.00742608
0.340326 0.0172716 0.00726683
0.334748 0.0184003 0.00693909
0.334235 0.0172896 0.00742963
0.334651 0.0183486 0.00696048
0.334354 0.0174152 0.00737536
0.328153 0.0168998 0.00751292
0.334463 0.0179472 0.0071377
0.334273 0.0174691 0.00735038
0.328133 0.0168192 0.00756867
0.328172 0.0169804 0.00745695
0.334714 0.018199 0.00702916
0.32821 0.0171418 0.007345
0.340498 0.0172391 0.00728732
0.340174 0.0169718 0.00740363
0.334153 0.016932 0.00758922
0.339851 0.0159278 0.00850419
0.215741 0.019982 0.00563384
0.328191 0.0170611 0.00740097
0.334675 0.0184282 0.00701753
0.334579 0.0179865 0.00712227
0.334192 0.0166981 0.0076954
0.334557 0.0180715 0.0071708
0.334406 0.0176929 0.00728466
0.334446 0.017855 0.00717892
0.334422 0.0181544 0.00704348
0.340523 0.0177945 0.00727367
0.33473 0.0182942 0.00698655
0.334457 0.0178934 0.00727053
0.328247 0.0173032 0.00723284
0.334333 0.0177378 0.00733736
0.334113 0.0167531 0.00766904
0.339963 0.0162675 0.00813051
0.3346 0.0186878 0.00692342
0.33449 0.0182745 0.00708522
0.334573 0.0188518 0.00686799
0.334537 0.0182189 0.00701668
0.334805 0.0185828 0.00685797
0.334412 0.0181085 0.00717285
0.33437 0.0179136 0.00715097
0.334588 0.0185047 0.00688888
0.334589 0.0182662 0.00708793
0.334309 0.0176246 0.00738266
0.340306 0.017363 0.00735686
0.404182 0.0211142 0.0056569
0.328285 0.0174911 0.00718032
0.33449 0.01847 0.00690254
0.328266 0.0173944 0.00719676
0.328228 0.0172225 0.00728892
0.334489 0.0177031 0.00734761
0.334254 0.0173792 0.00738962
0.334402 0.0180648 0.00708348
0.340545 0.0178923 0.00727324
0.334426 0.0177654 0.00721892
0.334557 0.0183122 0.00697502
0.334373 0.0178147 0.00728788
0.334655 0.0186817 0.00684009
0.34047 0.0179578 0.00726277
0.334293 0.0175583 0.00730963
0.334472 0.0175242 0.00732857
0.34021 0.0169281 0.00751575
0.340213 0.017149 0.00731957
0.334558 0.0184043 0.00693355
0.340311 0.017632 0.00725435

VERTICES 283 566
1 0
1 1
1 2
1 3
1 4
1 5
1 6
1 7
1 8
1 9
1 10
1 11
1 12
1 13
1 14
1 15
1 16
1 17
1 18
1 19
1 20
1 21
1 22
1 23
1 24
1 25
1 26
1 27
1 28
1 29
1 30
1 31
1 32
1 33
1 34
1 35
1 36
1 37
1 38
1 39
1 40
1 41
1 42
1 43
1 44
1 45
1 46
1 47
1 48
1 49
1 50
1 51
1 52
1 53
1 54
1 55
1 56
1 57
1 58
1 59
1 60
1 61
1 62
1 63
1 64
1 65
1 66
1 67
1 68
1 69
1 70
1 71
1 72
1 73
1 74
1 75
1 76
1 77
1 78
1 79
1 80
1 81
1 82
1 83
1 84
1 85
1 86
1 87
1 88
1 89
1 90
1 91
1 92
1 93
1 94
1 95
1 96
1 97
1 98
1 99
1 100
1 101
1 102
1 103
1 104
1 105
1 106
1 107
1 108
1 109
1 110
1 111
1 112
1 113
1 114
1 115
1 116
1 117
1 118
1 119
1 120
1 121
1 122
1 123
1 124
1 125
1 126
1 127
1 128
1 129
1 130
1 131
1 132
1 133
1 134
1 135
1 136
1 137
1 138
1 139
1 140
1 141
1 142
1 143
1 144
1 145
1 146
1 147
1 148
1 149
1 150
1 151
1 152
1 153
1 154
1 155
1 156
1 157
1 158
1 159
1 160
1 161
1 162
1 163
1 164
1 165
1 166
1 167
1 168
1 169
1 170
1 171
1 172
1 173
1 174
1 175
1 176
1 177
1 178
1 179
1 180
1 181
1 182
1 183
1 184
1 185
1 186
1 187
1 188
1 189
1 190
1 191
1 192
1 193
1 194
1 195
1 196
1 197
1 198
1 199
1 200
1 201
1 202
1 203
1 204
1 205
1 206
1 207
1 208
1 209
1 210
1 211
1 212
1 213
1 214
1 215
1 216
1 217
1 218
1 219
1 220
1 221
1 222
1 223
1 224
1 225
1 226
1 227
1 228
1 229
1 230
1 231
1 232
1 233
1 234
1 235
1 236
1 237
1 238
1 239
1 240
1 241
1 242
1 243
1 244
1 245
1 246
1 247
1 248
1 249
1 250
1 251
1 252
1 253
1 254
1 255
1 256
1 257
1 258
1 259
1 260
1 261
1 262
1 263
1 264
1 265
1 266
1 267
1 268
1 269
1 270
1 271
1 272
1 273
1 274
1 275
1 276
1 277
1 278
1 279
1 280
1 281
1 282

POINT_DATA 283
SCALARS id int 1
LOOKUP_TABLE default
1
2
3
4
5
6
7
8
9
10
11
12
13
14
15
16
18
19
20
21
22
24
25
26
27
29
30
31
32
33
34
35
36
37
38
40
41
42
43
44
45
46
47
48
49
50
52
55
56
57
58
59
60
61
62
63
64
65
66
67
68
69
70
71
72
73
74
75
76
77
78
79
80
81
82
83
84
85
86
87
88
89
90
91
92
93
94
95
96
98
99
100
101
102
103
104
105
106
107
108
109
110
111
112
113
114
115
116
117
118
119
120
121
122
123
124
125
126
127
128
129
130
131
132
133
134
135
136
137
138
139
140
141
142
144
145
146
147
148
149
150
152
153
154
155
156
157
158
159
160
161
162
164
165
166
167
168
169
170
171
172
173
174
175
176
177
178
179
180
181
182
183
184
185
186
187
188
189
190
191
192
193
194
195
196
197
198
199
200
201
202
203
204
205
206
207
208
209
210
211
213
214
215
217
218
219
220
221
222
223
224
225
226
227
228
229
230
231
232
233
234
235
236
237
238
239
241
242
243
244
245
246
247
248
249
250
251
252
253
254
255
256
257
258
259
260
261
262
263
264
265
267
268
269
270
271
272
273
274
275
276
277
278
279
280
281
282
283
284
285
286
287
288
289
290
292
293
294
295
296
297
298
300

SCALARS type int 1
LOOKUP_TABLE default
1
1
1
1
1
1
1
1
1
1
1
1
1
1
1
1
1
1
1
1
1
1
1
1
1
1
1
1
1
1
1
1
1
1
1
1
1
1
1
1
1
1
1
1
1
1
1
1
1
1
1
1
1
1
1
1
1
1
1
1
1
1
1
1
1
1
1
1
1
1
1
1
1
1
1
1
1
1
1
1
1
1
1
1
1
1
1
1
1
1
1
1
1
1
1
1
1
1
1
1
1
1
1
1
1
1
1
1
1
1
1
1
1
1
1
1
1
1
1
1
1
1
1
1
1
1
1
1
1
1
1
1
1
1
1
1
1
1
1
1
1
1
1
1
1
1
1
1
1
1
1
1
1
1
1
1
1
1
1
1
1
1
1
1
1
1
1
1
1
1
1
1
1
1
1
1
1
1
1
1
1
1
1
1
1
1
1
1
1
1
1
1
1
1
1
1
1
1
1
1
1
1
1
1
1
1
1
1
1
1
1
1
1
1
1
1
1
1
1
1
1
1
1
1
1
1
1
1
1
1
1
1
1
1
1
1
1
1
1
1
1
1
1
1
1
1
1
1
1
1
1
1
1
1
1
1
1
1
1
1
1
1
1
1
1
1
1
1
1
1
1
1
1
1
1
1
1
1
1
1
1
1
1

SCALARS radius float 1
LOOKUP_TABLE default
5e-05
5e-05
5e-05
5e-05
5e-05
5e-05
5e-05
5e-05
5e-05
5e-05
5e-05
5e-05
5e-05
5e-05
5e-05
5e-05
5e-05
5e-05
5e-05
5e-05
5e-05
5e-05
5e-05
5e-05
5e-05
5e-05
5e-05
5e-05
5e-05
5e-05
5e-05
5e-05
5e-05
5e-05
5e-05
5e-05
5e-05
5e-05
5e-05
5e-05
5e-05
5e-05
5e-05
5e-05
5e-05
5e-05
5e-05
5e-05
5e-05
5e-05
5e-05
5e-05
5e-05
5e-05
5e-05
5e-05
5e-05
5e-05
5e-05
5e-05
5e-05
5e-05
5e-05
5e-05
5e-05
5e-05
5e-05
5e-05
5e-05
5e-05
5e-05
5e-05
5e-05
5e-05
5e-05
5e-05
5e-05
5e-05
5e-05
5e-05
5e-05
5e-05
5e-05
5e-05
5e-05
5e-05
5e-05
5e-05
5e-05
5e-05
5e-05
5e-05
5e-05
5e-05
5e-05
5e-05
5e-05
5e-05
5e-05
5e-05
5e-05
5e-05
5e-05
5e-05
5e-05
5e-05
5e-05
5e-05
5e-05
5e-05
5e-05
5e-05
5e-05
5e-05
5e-05
5e-05
5e-05
5e-05
5e-05
5e-05
5e-05
5e-05
5e-05
5e-05
5e-05
5e-05
5e-05
5e-05
5e-05
5e-05
5e-05
5e-05
5e-05
5e-05
5e-05
5e-05
5e-05
5e-05
5e-05
5e-05
5e-05
5e-05
5e-05
5e-05
5e-05
5e-05
5e-05
5e-05
5e-05
5e-05
5e-05
5e-05
5e-05
5e-05
5e-05
5e-05
5e-05
5e-05
5e-05
5e-05
5e-05
5e-05
5e-05
5e-05
5e-05
5e-05
5e-05
5e-05
5e-05
5e-05
5e-05
5e-05
5e-05
5e-05
5e-05
5e-05
5e-05
5e-05
5e-05
5e-05
5e-05
5e-05
5e-05
5e-05
5e-05
5e-05
5e-05
5e-05
5e-05
5e-05
5e-05
5e-05
5e-05
5e-05
5e-05
5e-05
5e-05
5e-05
5e-05
5e-05
5e-05
5e-05
5e-05
5e-05
5e-05
5e-05
5e-05
5e-05
5e-05
5e-05
5e-05
5e-05
5e-05
5e-05
5e-05
5e-05
5e-05
5e-05
5e-05
5e-05
5e-05
5e-05
5e-05
5e-05
5e-05
5e-05
5e-05
5e-05
5e-05
5e-05
5e-05
5e-05
5e-05
5e-05
5e-05
5e-05
5e-05
5e-05
5e-05
5e-05
5e-05
5e-05
5e-05
5e-05
5e-05
5e-05
5e-05
5e-05
5e-05
5e-05
5e-05
5e-05
5e-05
5e-05
5e-05
5e-05
5e-05
5e-05
5e-05
5e-05
5e-05
5e-05
5e-05
5e-05
5e-05
5e-05
5e-05
5e-05
5e-05
5e-05
5e-05
5e-05
5e-05
5e-05
5e-05
5e-05
5e-05
5e-05
5e-05
5e-05
5e-05
5e-05
5e-05

SCALARS mass float 1
LOOKUP_TABLE default
1.46608e-10
1.46608e-10
1.46608e-10
1.46608e-10
1.46608e-10
1.46608e-10
1.46608e-10
1.46608e-10
1.46608e-10
1.46608e-10
1.46608e-10
1.46608e-10
1.46608e-10
1.46608e-10
1.46608e-10
1.46608e-10
1.46608e-10
1.46608e-10
1.46608e-10
1.46608e-10
1.46608e-10
1.46608e-10
1.46608e-10
1.46608e-10
1.46608e-10
1.46608e-10
1.46608e-10
1.46608e-10
1.46608e-10
1.46608e-10
1.46608e-10
1.46608e-10
1.46608e-10
1.46608e-10
1.46608e-10
1.46608e-10
1.46608e-10
1.46608e-10
1.46608e-10
1.46608e-10
1.46608e-10
1.46608e-10
1.46608e-10
1.46608e-10
1.46608e-10
1.46608e-10
1.46608e-10
1.46608e-10
1.46608e-10
1.46608e-10
1.46608e-10
1.46608e-10
1.46608e-10
1.46608e-10
1.46608e-10
1.46608e-10
1.46608e-10
1.46608e-10
1.46608e-10
1.46608e-10
1.46608e-10
1.46608e-10
1.46608e-10
1.46608e-10
1.46608e-10
1.46608e-10
1.46608e-10
1.46608e-10
1.46608e-10
1.46608e-10
1.46608e-10
1.46608e-10
1.46608e-10
1.46608e-10
1.46608e-10
1.46608e-10
1.46608e-10
1.46608e-10
1.46608e-10
1.46608e-10
1.46608e-10
1.46608e-10
1.46608e-10
1.46608e-10
1.46608e-10
1.46608e-10
1.46608e-10
1.46608e-10
1.46608e-10
1.46608e-10
1.46608e-10
1.46608e-10
1.46608e-10
1.46608e-10
1.46608e-10
1.46608e-10
1.46608e-10
1.46608e-10
1.46608e-10
1.46608e-10
1.46608e-10
1.46608e-10
1.46608e-10
1.46608e-10
1.46608e-10
1.46608e-10
1.46608e-10
1.46608e-10
1.46608e-10
1.46608e-10
1.46608e-10
1.46608e-10
1.46608e-10
1.46608e-10
1.46608e-10
1.46608e-10
1.46608e-10
1.46608e-10
1.46608e-10
1.46608e-10
1.46608e-10
1.46608e-10
1.46608e-10
1.46608e-10
1.46608e-10
1.46608e-10
1.46608e-10
1.46608e-10
1.46608e-10
1.46608e-10
1.46608e-10
1.46608e-10
1.46608e-10
1.46608e-10
1.46608e-10
1.46608e-10
1.46608e-10
1.46608e-10
1.46608e-10
1.46608e-10
1.46608e-10
1.46608e-10
1.46608e-10
1.46608e-10
1.46608e-10
1.46608e-10
1.46608e-10
1.46608e-10
1.46608e-10
1.46608e-10
1.46608e-10
1.46608e-10
1.46608e-10
1.46608e-10
1.46608e-10
1.46608e-10
1.46608e-10
1.46608e-10
1.46608e-10
1.46608e-10
1.46608e-10
1.46608e-10
1.46608e-10
1.46608e-10
1.46608e-10
1.46608e-10
1.46608e-10
1.46608e-10
1.46608e-10
1.46608e-10
1.46608e-10
1.46608e-10
1.46608e-10
1.46608e-10
1.46608e-10
1.46608e-10
1.46608e-10
1.46608e-10
1.46608e-10
1.46608e-10
1.46608e-10
1.46608e-10
1.46608e-10
1.46608e-10
1.46608e-10
1.46608e-10
1.46608e-10
1.46608e-10
1.46608e-10
1.46608e-10
1.46608e-10
1.46608e-10
1.46608e-10
1.46608e-10
1.46608e-10
1.46608e-10
1.46608e-10
1.46608e-10
1.46608e-10
1.46608e-10
1.46608e-10
1.46608e-10
1.46608e-10
1.46608e-10
1.46608e-10
1.46608e-10
1.46608e-10
1.46608e-10
1.46608e-10
1.46608e-10
1.46608e-10
1.46608e-10
1.46608e-10
1.46608e-10
1.46608e-10
1.46608e-10
1.46608e-10
1.46608e-10
1.46608e-10
1.46608e-10
1.46608e-10
1.46608e-10
1.46608e-10
1.46608e-10
1.46608e-10
1.46608e-10
1.46608e-10
1.46608e-10
1.46608e-10
1.46608e-10
1.46608e-10
1.46608e-10
1.46608e-10
1.46608e-10
1.46608e-10
1.46608e-10
1.46608e-10
1.46608e-10
1.46608e-10
1.46608e-10
1.46608e-10
1.46608e-10
1.46608e-10
1.46608e-10
1.46608e-10
1.46608e-10
1.46608e-10
1.46608e-10
1.46608e-10
1.46608e-10
1.46608e-10
1.46608e-10
1.46608e-10
1.46608e-10
1.46608e-10
1.46608e-10
1.46608e-10
1.46608e-10
1.46608e-10
1.46608e-10
1.46608e-10
1.46608e-10
1.46608e-10
1.46608e-10
1.46608e-10
1.46608e-10
1.46608e-10
1.46608e-10
1.46608e-10
1.46608e-10
1.46608e-10
1.46608e-10
1.46608e-10
1.46608e-10
1.46608e-10
1.46608e-10
1.46608e-10
1.46608e-10
1.46608e-10
1.46608e-10
1.46608e-10
1.46608e-10
1.46608e-10

VECTORS velocity float
0.00437099 -0.000983466 0.000135236
0.00432166 -0.000736517 0.000503157
0.00409523 -0.000836366 0.000491547
0.00411408 -0.000851076 0.000490431
0.00428023 -0.000163639 0.00148891
0.00487928 0.000751442 -0.000852791
0.00447609 -0.000125446 0.00147392
0.004241 -0.000179331 0.00150587
0.00455406 0.000813525 -0.000847608
0.00422344 -0.000728895 0.000505525
0.00433295 -0.000270975 0.00118153
0.00433265 0.000853278 -0.000845461
0.00425069 -0.000763245 0.000506228
0.0049368 -1.70471e-05 8.39405e-06
0.00419235 -0.000745267 0.00049923
0.00476082 -4.5351e-05 0.000117662
0.00458133 0.00098473 -0.000395821
0.00413256 -0.000836676 0.000480027
0.00420845 -0.000865986 0.000242353
0.00429206 -0.000148008 0.00146167
0.00423593 -0.000807137 0.000502557
0.00513911 0.000657958 -0.000834829
0.00423464 -0.000765734 0.000496321
0.00476191 0.000757325 -0.000843596
0.00486768 -1.05282e-05 0.000100205
0.00423316 -0.00100502 -5.01537e-05
0.00490216 0.000748413 -0.000853617
0.00426963 -0.000823366 0.000508232
0.00421292 -0.000767528 0.000502053
0.00485495 0.000752944 -0.000850924
0.00412319 -0.000830043 0.000481271
0.0043378 -0.000733491 0.000515905
0.0045495 0.000798739 -0.000840665
0.00450712 -0.000118011 0.00146803
0.00432298 -0.000757269 0.000509292
0.00470184 3.99997e-05 0.0012575
0.00418112 -0.000755745 0.000494637
0.00410718 -0.000748901 0.000489739
0.00426743 -0.000798671 0.000508702
0.00424064 -0.000902226 0.000161062
0.00483134 0.000753286 -0.000848682
0.00503023 0.000692779 -0.000840383
0.00441173 -0.000132213 0.00146994
0.0042 -0.000896401 0.000155945
0.00478291 0.000753695 -0.000843873
0.00410498 -0.000844745 0.000490607
0.00440854 0.000121344 1.96366e-05
0.00434515 4.47656e-05 6.7317e-05
0.0043031 -0.000773439 0.000513727
0.00480751 0.000753141 -0.000846249
0.00447529 2.14104e-05 7.92654e-05
0.00443722 0.000826038 -0.000842924
0.00433638 -0.000773041 0.000519957
0.00434347 -0.000127214 0.00145831
0.0043405 -0.00029696 0.00176317
0.00410423 -0.000812441 0.000492645
0.00529476 0.00062452 -0.000834978
0.00462882 -0.00010607 0.00149047
0.00487846 -1.95214e-05 -6.50209e-05
0.00419141 -0.000744446 0.000500016
0.00445528 7.45728e-05 5.41459e-05
0.00419463 -0.000868325 0.000111983
0.00501715 0.000892487 -0.0003713
0.00447542 2.94465e-05 7.47846e-05
0.00447267 0.000825076 -0.00084672
0.0046708 8.49337e-05 0.00118118
0.00431749 -0.000443416 0.00155702
0.00424331 -0.000810953 0.000187276
0.00456438 0.000989767 -0.000398907
0.00425222 -0.000830903 0.000509895
0.00495859 -0.000238686 -0.000215039
0.00480834 -8.30301e-06 9.80343e-05
0.00428027 -0.000779251 0.000506055
0.00489024 -4.88764e-05 -7.78685e-05
0.00420545 0.000102585 3.66606e-05
0.0049614 -0.000267475 -0.000325487
0.00464069 0.000777027 -0.000841455
0.00448543 1.75942e-05 8.09224e-05
0.00422835 -0.000825382 0.000505658
0.00459384 0.000794306 -0.000843703
0.00422156 -0.000788213 8.65423e-05
0.00407003 -0.000804987 0.000487541
0.00437135 -0.000408148 0.00108742
0.00452127 -0.000108963 0.00145803
0.00419495 -0.000880733 0.000202116
0.00420021 -0.00091505 0.000114255
0.00420949 -0.000855068 0.000167741
0.00430848 -0.00076618 0.000512633
0.00409988 -0.000746138 0.000488393
0.00414892 -0.00088757 0.000489264
0.00432274 8.21211e-05 4.86872e-05
0.00432335 -0.000709467 0.000513442
0.0043929 2.61074e-05 7.79301e-05
0.00416946 -0.000851544 0.000494982
0.00404608 -0.000737652 0.000482616
0.00423858 0.000102283 3.79966e-05
0.00437151 2.11011e-05 7.56655e-05
0.00459414 -8.18165e-05 0.00144581
0.00494007 0.000305948 0.000118077
0.00432669 -0.000748333 0.000514736
0.00410098 -0.000838175 0.000528126
0.00424427 -0.00081591 0.000508071
0.00447389 -0.000126392 0.00148045
0.00479449 -9.19173e-06 9.98311e-05
0.00427172 -0.000821123 0.000511482
0.00447258 1.98269e-05 8.00542e-05
0.00422655 -0.000913471 0.000119332
0.00423159 -0.000915793 0.000255913
0.0043936 -0.00023427 0.00122608
0.00498168 3.90606e-05 -7.38274e-05
0.00492469 0.000744174 -0.000853826
0.00419795 -0.000800546 0.00041499
0.00421431 -0.000928883 0.000138443
0.00437052 -0.00095888 0.00013655
0.00448529 7.24878e-05 5.16628e-05
0.00427667 -0.000761574 0.000508904
0.00435174 -0.000739977 0.000516645
0.00447419 5.24332e-06 0.00124245
0.00491904 -0.000261524 -0.000358609
0.00424029 -0.000740722 0.000503148
0.00489873 -0.000229473 -0.000366427
0.00444619 -0.000121221 0.00147184
0.00470667 0.000127145 4.17955e-05
0.00416709 -0.000910828 0.000120684
0.00419915 -0.000904238 0.000125301
0.00419669 -0.000843081 0.000116084
0.00425129 -0.000562813 0.000780321
0.0047306 0.000145783 6.15679e-05
0.00455733 -0.000159773 0.00139382
0.00438947 -0.000955404 0.000135654
0.00424086 -0.000884133 0.000103506
0.00425195 -0.000748406 0.000504489
0.00439889 3.72479e-05 7.96536e-05
0.00444696 -0.000131079 0.00147698
0.00423338 -0.000844015 0.000500922
0.0042056 -0.00090051 0.000126103
0.00431817 -0.000361796 0.00181866
0.00497896 0.000323553 0.000116417
0.00419329 -0.000880814 0.000510021
0.00422295 -0.000935646 0.000117252
0.00456114 -9.74099e-05 0.00145644
0.00424767 8.80314e-05 4.36341e-05
0.00426406 -0.000836204 0.000509915
0.00484814 -8.88324e-05 -1.02375e-05
0.00478365 8.20187e-06 9.02891e-05
0.0049289 5.78756e-05 -6.47407e-05
0.00416345 -0.000820568 0.000499145
0.00442648 6.3544e-05 5.90773e-05
0.00429342 -0.000745125 0.000510403
0.00432883 6.06178e-05 6.05192e-05
0.00424155 -0.00074602 0.000411493
0.00482826 5.56135e-05 6.71869e-05
0.00418049 -0.000900284 0.000155139
0.00438899 3.11362e-05 7.55392e-05
0.00418829 -0.000871267 0.00012586
0.00455858 4.82058e-05 6.82972e-05
0.00429652 -0.000765885 0.00049855
0.0044473 5.24451e-05 7.23879e-05
0.00433266 6.3067e-05 6.77211e-05
0.00426209 -0.000857018 0.000512398
0.00439076 0.0001036 3.1839e-05
0.00408979 -0.000804536 0.000512202
0.00433511 9.13217e-05 4.46498e-05
0.00430444 9.87482e-05 4.1135e-05
0.00479383 -3.65718e-05 0.000110053
0.00443215 8.80134e-07 4.8901e-05
0.0043828 3.9785e-05 6.56865e-05
0.00419817 6.36949e-05 5.57274e-05
0.00424506 -0.000877545 0.000509302
0.00489749 -2.85524e-05 0.000112482
0.00428966 -0.000804959 0.000515904
0.00488699 5.3911e-06 8.94566e-05
0.00421556 -0.000855431 0.000502702
0.00446832 2.84842e-05 7.60661e-05
0.00428635 5.61717e-05 5.81207e-05
0.00452929 0.000810953 -0.000825226
0.00458007 -0.000107403 0.00137145
0.00440369 -5.00913e-05 0.0013392
0.00470129 -4.85508e-05 0.000116107
0.00418618 -0.000874198 0.000133472
0.00443365 2.87626e-05 4.28789e-05
0.0041895 -0.000733519 0.000496129
0.00440217 -0.000105832 0.00146696
0.00435211 6.57652e-05 7.0085e-05
0.00439639 -1.31058e-07 8.64976e-05
0.00449289 -0.000123728 0.00131833
0.00441889 3.5512e-05 7.67003e-05
0.00477767 3.30108e-05 1.53635e-05
0.00489574 -0.000257762 -0.000351253
0.00433262 5.7449e-05 4.56456e-05
0.00435101 1.36556e-05 7.89105e-05
0.00430426 -0.000782626 0.000512998
0.0044621 3.0812e-05 4.97708e-05
0.00447561 3.39785e-05 7.32964e-05
0.0042991 8.31992e-05 4.62062e-05
0.00432313 9.32018e-05 4.37743e-05
0.0049768 3.29851e-05 -4.78125e-05
0.00487657 -0.000197806 -0.000237785
0.00423036 -0.000867381 0.000513575
0.00460132 -9.93355e-05 0.00146708
0.00497795 0.000901567 -0.000374376
0.00430663 -0.00114144 0.000195559
0.00461018 8.32594e-05 5.32143e-05
0.00427397 -0.000368951 0.00184117
0.00459616 -0.000117058 0.00149964
0.0045048 -0.000126882 0.00148518
0.00430919 -0.000715433 0.000511883
0.0047294 -4.90987e-05 0.000119649
0.00434197 -0.000740462 0.000517194
0.00476373 1.28021e-05 8.8825e-05
0.00495141 -0.000268074 -0.00035561
0.0045848 0.00097883 -0.000394651
0.00440587 5.03537e-05 4.42252e-05
0.0043612 2.35481e-05 7.78428e-05
0.00422992 5.84744e-05 5.65293e-05
0.00432141 9.21981e-05 3.87728e-05
0.00437682 2.71672e-05 7.28348e-05
0.00452451 6.62287e-07 8.46508e-05
0.00433143 -5.05988e-06 9.10029e-05
0.00419087 -0.000885371 0.000117237
0.00418093 -0.000662865 0.000480525
0.0044162 2.4876e-05 7.63665e-05
0.00421387 6.85097e-05 5.19668e-05
0.00442325 4.88455e-05 7.1831e-05
0.00423024 5.98115e-05 5.68745e-05
0.00451108 0.000857351 1.15679e-05
0.00434338 7.55463e-05 5.47003e-05
0.00424141 5.05011e-05 6.6973e-05
0.0046785 0.000836175 5.05469e-05
0.00453815 0.000851261 1.94241e-05
0.00434587 -3.32533e-05 0.000100545
0.00460366 0.000848418 3.17577e-05
0.00417323 -0.000762191 0.000504864
0.00418858 -0.000910633 0.00011606
0.00449957 1.46978e-05 8.13213e-05
0.00438501 -9.16745e-05 0.00147189
6.80557e-15 2.29892e-14 -7.03246e-14
0.00456981 0.000848687 2.56725e-05
0.00445117 4.5575e-05 5.65268e-05
0.00435864 6.94434e-05 5.57617e-05
0.00473588 9.90557e-05 4.82176e-05
0.00432212 6.49914e-05 6.72025e-05
0.00431344 6.03389e-05 3.09007e-05
0.00433369 8.86596e-05 4.58085e-05
0.00436703 2.53176e-05 7.32779e-05
0.00429617 -0.000778542 0.000508924
0.0044011 1.32506e-05 7.87784e-05
0.00444364 2.6835e-05 6.30485e-05
0.00453129 0.000852272 1.71286e-05
0.00439309 6.34083e-05 2.15365e-05
0.00462265 -2.87946e-05 0.000103552
0.00448721 -4.13138e-05 0.00136694
0.00499406 0.000105564 -3.48756e-05
0.00437292 3.01497e-05 0.000136805
0.00492717 -1.84104e-05 -7.12941e-05
0.00438416 4.20229e-05 8.24806e-05
0.00482714 -7.43713e-06 9.94762e-05
0.00455271 2.05574e-06 7.69251e-05
0.00433468 8.41335e-05 4.47527e-05
0.00438666 5.26584e-05 5.90851e-05
0.00439973 3.14082e-06 0.000110327
0.00443018 6.4906e-05 4.20141e-05
0.00404774 -0.000814626 0.000500206
-1.29233e-14 6.08914e-14 -1.90218e-13
0.00452516 0.000703319 -0.000361875
0.00440931 8.74596e-05 3.77367e-05
0.00453363 0.000701772 -0.00036219
0.0044516 0.000860908 1.96725e-07
0.00436977 7.98004e-05 5.2109e-05
0.00422553 5.5866e-05 5.69552e-05
0.00434764 3.68794e-05 6.98803e-05
0.00430818 -0.00078616 0.00051711
0.00431722 9.2284e-05 4.53184e-05
0.00444137 1.31335e-05 8.70022e-05
0.00433134 8.06275e-05 1.93455e-05
0.00488317 -4.10244e-05 -8.29651e-05
0.00426117 -0.000851825 0.000511698
0.00422924 5.99485e-05 6.64292e-05
0.00420243 0.00010131 3.84586e-05
0.00414803 -0.00082037 9.98214e-05
0.00418777 -0.000935743 6.92813e-05
0.0044294 0.000136496 2.62271e-05
0.00410096 -0.000816119 0.000491468

VECTORS force float
-3.85262e-11 -1.22017e-10 1.43199e-10
-1.67995e-10 5.14914e-10 -4.18764e-11
4.34089e-12 -4.28092e-10 1.84039e-11
-1.44669e-10 -1.92477e-10 3.59362e-11
-5.53819e-12 8.13032e-11 -5.39914e-11
-2.01594e-12 -6.98343e-12 3.75747e-12
-1.48329e-10 1.6342e-10 -2.20058e-10
-5.28439e-11 7.45096e-11 -1.254e-10
-1.30376e-10 1.38573e-10 -7.53963e-11
1.26733e-10 -3.56818e-10 5.80915e-11
9.94814e-11 -6.87623e-12 -1.33217e-10
-1.02593e-10 2.9358e-11 -1.77936e-11
-2.78489e-10 -3.55507e-10 -1.39813e-11
-6.60244e-11 -2.71703e-11 -1.17344e-10
3.77717e-10 -5.01424e-10 5.53564e-11
1.05925e-10 -1.90216e-10 7.67492e-11
7.08014e-11 4.91469e-11 -1.15589e-11
1.86894e-11 -1.90317e-10 -7.88697e-11
8.17815e-11 1.6424e-11 1.9464e-10
-1.19667e-10 -3.54751e-11 6.99877e-11
-1.32788e-11 4.77173e-11 1.0567e-10
9.42749e-11 3.30852e-11 -2.49516e-11
3.38229e-10 5.70348e-11 1.18398e-10
9.89515e-12 1.88178e-11 -9.79779e-12
4.73318e-11 -9.88082e-12 -3.63775e-11
1.9197e-11 -1.77407e-11 1.53949e-10
1.34014e-12 6.69091e-12 -3.9426e-12
1.18079e-10 3.36746e-10 2.05468e-11
9.5835e-11 -3.05555e-10 1.60607e-11
-1.06048e-11 -2.60808e-11 1.31249e-11
1.74488e-10 -6.74857e-11 -4.93772e-11
3.35737e-10 -3.59945e-11 2.00426e-11
1.67119e-11 -2.25003e-11 9.12268e-12
-5.43862e-10 1.99583e-11 -2.39771e-10
-7.22258e-11 5.46611e-11 -3.74168e-11
-3.62637e-10 -3.73153e-10 5.4337e-10
-2.5008e-10 4.64059e-11 -2.67597e-11
1.92468e-10 -2.53883e-10 3.55506e-11
5.88429e-11 1.77738e-10 -2.47e-11
6.95836e-10 -4.7653e-10 4.54746e-11
-5.23269e-12 -4.23242e-11 2.05476e-11
3.88075e-11 3.15065e-11 -2.09992e-11
1.90633e-10 7.73735e-11 -8.50985e-11
-1.2235e-11 -2.9039e-11 -1.5446e-10
8.37802e-13 -3.25387e-11 1.41776e-11
1.02708e-10 6.65506e-11 1.77738e-11
2.74494e-10 -1.99771e-10 6.49133e-11
5.00671e-11 -2.05621e-10 3.14105e-12
3.57353e-10 1.58768e-11 5.8185e-12
-1.86555e-11 -5.31254e-11 2.79381e-11
-5.33758e-11 -3.88508e-11 2.02367e-11
1.33465e-10 1.29415e-11 -1.88083e-11
5.25851e-10 1.53233e-10 3.99508e-11
-1.71389e-10 -2.14192e-10 1.88445e-10
9.34559e-10 2.65176e-10 1.90496e-10
3.5961e-10 1.20729e-11 7.39258e-11
-4.04132e-11 2.73338e-11 -6.77759e-12
1.11319e-10 -4.16777e-11 -1.10054e-10
1.74509e-10 -1.29232e-10 -2.28568e-11
1.58944e-10 -4.20945e-10 4.31276e-11
9.97331e-11 -1.49871e-10 7.80001e-11
-1.23241e-10 2.42748e-10 5.55079e-11
1.84952e-12 -3.00219e-11 5.3294e-12
4.00117e-11 4.90505e-12 9.67345e-13
-3.65008e-10 -1.3029e-11 3.53363e-12
-1.26874e-11 2.77507e-10 1.31336e-10
-2.71491e-10 3.71023e-10 -1.72819e-10
7.29514e-10 -5.79163e-10 3.27771e-10
-1.16846e-10 3.77768e-11 7.43161e-12
1.02706e-10 3.49581e-10 -8.94499e-12
8.05124e-11 -4.29369e-10 -8.48317e-11
8.71562e-11 -1.25875e-10 5.21255e-11
-1.97256e-11 3.3194e-10 -9.81977e-11
1.06075e-11 2.1545e-10 8.87251e-11
-8.74695e-11 8.28094e-11 -5.87522e-11
1.1969e-10 -7.78533e-11 1.06904e-11
-1.3637e-10 1.59301e-11 -1.32879e-11
-1.74166e-10 -1.43755e-10 6.48764e-11
-9.21031e-11 7.30418e-11 4.24601e-11
3.00195e-10 8.22148e-11 -8.00979e-11
4.12404e-11 -2.79978e-11 -1.23822e-10
3.72449e-10 2.1869e-10 1.82256e-10
2.46905e-10 -2.94273e-11 -1.42951e-10
-3.18966e-10 1.03931e-11 -1.13057e-10
-1.85344e-10 2.44099e-10 1.226e-11
-2.26017e-11 7.96761e-11 -2.30001e-10
1.55834e-10 -8.71574e-11 4.2544e-11
1.26717e-10 1.28243e-10 7.00174e-11
-4.22846e-11 -7.3572e-11 -1.08096e-11
1.28425e-10 -2.36793e-10 -1.63161e-11
-9.11938e-11 1.0353e-10 -5.14167e-11
1.30148e-11 -4.47551e-11 -1.47253e-12
-2.60189e-10 7.88049e-11 -4.42464e-11
-8.30027e-11 8.94172e-11 -1.02498e-10
1.02366e-10 -1.59276e-10 1.73805e-11
1.5127e-10 -2.6158e-11 3.37295e-11
4.06377e-11 7.67199e-12 2.71703e-11
1.85241e-10 1.46225e-11 -1.02206e-10
-3.38954e-11 -2.63675e-10 6.66339e-10
-9.50731e-11 -4.66889e-11 -4.12558e-11
-7.43566e-11 -4.86422e-11 -2.24517e-10
-2.93719e-11 5.38988e-11 -3.52859e-11
3.11926e-10 -7.34051e-12 1.19581e-10
4.35902e-10 -3.76361e-11 2.78446e-11
2.06513e-10 -1.7806e-10 4.21561e-11
-4.84319e-12 8.94894e-11 -3.86636e-11
-2.6805e-10 -5.81045e-11 -2.40698e-11
2.03559e-10 1.15975e-10 4.31097e-10
-1.07619e-10 4.28201e-10 1.28491e-10
-2.87214e-10 -7.73729e-11 7.05508e-11
2.11758e-12 7.75642e-12 -3.13172e-12
-1.54496e-10 1.15259e-10 -4.7738e-11
-2.42937e-10 3.42665e-10 -1.93636e-11
-1.52996e-11 -1.48512e-10 5.43024e-11
-1.43236e-11 -1.72754e-10 2.17209e-10
-1.44566e-10 -5.31869e-10 -2.26004e-12
2.0734e-10 -3.78436e-11 3.92385e-11
-6.36209e-10 -4.70908e-10 1.09428e-10
3.91376e-11 2.55677e-10 -1.64574e-10
2.42239e-10 -8.59691e-11 1.9188e-11
-1.97819e-11 5.48592e-11 -1.44834e-11
-1.99668e-10 -1.57129e-10 -1.21777e-10
-1.64967e-10 3.03596e-10 -2.35106e-10
2.99253e-10 -9.02247e-12 -1.35359e-10
1.38273e-10 1.97212e-11 -5.20898e-11
7.09149e-10 -1.19656e-10 1.27148e-10
-2.94646e-10 1.55783e-10 -1.09753e-10
-2.74695e-11 2.85001e-10 -2.5051e-11
-1.79834e-10 -1.46512e-10 4.4269e-10
-2.86385e-12 6.84379e-11 -2.67982e-11
-3.55858e-10 3.98056e-11 2.3662e-11
3.32313e-11 -2.70482e-10 -3.30446e-12
-1.46428e-10 6.90156e-11 5.43445e-11
7.28191e-11 1.29906e-10 -2.2654e-10
-8.74557e-11 1.25199e-10 6.40365e-11
6.51132e-11 -6.22615e-11 -7.65703e-11
5.1945e-11 2.94299e-10 -5.60133e-11
3.69338e-10 9.40404e-11 3.70497e-10
-1.26917e-10 3.32675e-10 -8.94683e-11
-2.18545e-10 2.98137e-10 -1.17717e-12
2.4147e-10 1.07135e-10 5.58152e-11
2.18871e-10 1.3745e-10 -7.04754e-11
-2.26829e-11 -3.38266e-10 1.86379e-11
-7.06284e-11 -7.06406e-11 2.77004e-11
3.9449e-10 -1.96312e-10 8.95826e-11
-5.17238e-11 -1.86386e-10 -4.75043e-12
1.62621e-11 6.57183e-11 4.21574e-11
-7.6863e-11 2.06284e-10 -1.39063e-10
8.99155e-13 -1.55048e-10 9.64466e-13
2.49893e-10 -4.15829e-11 -1.09887e-11
-2.576e-10 -4.91187e-11 -3.8687e-10
7.74089e-10 -2.56287e-10 9.66803e-11
3.23985e-11 -6.94398e-12 5.70911e-11
-1.26814e-11 3.97463e-10 -2.45686e-10
5.32604e-10 -5.03241e-11 -7.04017e-11
-1.099e-11 -3.05546e-11 2.06835e-11
1.91147e-10 3.99687e-11 1.55504e-10
1.92293e-10 -1.20947e-10 9.31399e-12
-1.48256e-11 -7.31459e-11 5.98744e-11
8.40338e-11 1.50134e-10 1.01615e-10
7.71149e-11 -1.64472e-11 4.90241e-11
2.92632e-10 7.71791e-12 -9.83019e-12
-1.16308e-10 8.10541e-11 -4.08285e-11
2.2494e-11 -1.57108e-10 4.91188e-13
-4.44594e-12 -1.61954e-10 5.17209e-11
3.19111e-10 1.28844e-10 -1.16201e-10
8.15037e-11 -2.84725e-11 6.01889e-11
4.48016e-10 -1.68427e-10 9.30302e-11
2.84142e-12 -1.41306e-10 -7.4061e-12
-1.8484e-10 -2.51847e-10 2.71255e-10
4.59616e-10 -2.96308e-10 4.61834e-11
2.93964e-10 1.99535e-10 -1.21937e-11
-2.43723e-10 5.97814e-11 -2.58205e-11
-4.43542e-11 -3.23715e-12 5.76985e-12
-2.5738e-11 -1.26371e-10 7.84144e-11
-1.23499e-11 7.6757e-11 2.03981e-10
-1.98727e-10 -2.40698e-10 4.31149e-10
5.98507e-12 2.59866e-10 6.85805e-10
9.25602e-11 -1.53518e-10 4.6693e-11
-5.59324e-11 -7.37642e-12 -6.01208e-11
-1.26768e-10 -4.48612e-11 5.4936e-11
1.8848e-10 1.28393e-10 4.93991e-11
1.31668e-10 1.72077e-10 1.13278e-10
-1.05812e-10 -2.03741e-10 9.01566e-11
-1.22504e-10 -6.91353e-11 4.84201e-11
-1.30268e-10 6.37472e-13 -7.89277e-11
1.44571e-10 6.45898e-10 -2.96604e-10
-3.24528e-11 -1.37848e-10 -2.91133e-10
8.62165e-11 2.50788e-10 -1.24307e-10
-9.60204e-11 6.88738e-11 -1.41508e-11
8.49374e-10 -1.82588e-09 8.25492e-10
-6.15669e-11 -3.04667e-10 1.73924e-11
-4.11389e-11 -2.70273e-11 -6.5992e-11
-3.97022e-13 2.72968e-11 -9.49638e-12
-1.77049e-10 1.28419e-10 -1.19784e-10
2.38684e-10 -1.24852e-10 4.57602e-11
-1.69475e-10 -8.27546e-11 2.59493e-10
5.11544e-12 1.3872e-10 2.29938e-11
3.63052e-11 -2.69068e-10 -4.72439e-11
1.52633e-10 1.46769e-10 7.48442e-11
1.16046e-11 -5.0433e-11 2.82366e-11
-4.30077e-11 -1.68843e-10 -2.78383e-10
5.29199e-11 5.18254e-11 -1.50156e-11
-5.08277e-11 -2.07727e-11 4.01791e-11
2.30618e-11 4.22993e-11 -1.68009e-10
2.17056e-11 1.39557e-10 -1.05397e-11
-5.79961e-11 -1.42899e-10 6.81567e-12
1.86408e-10 -2.38955e-10 9.33984e-11
6.73084e-11 -1.00796e-10 2.3796e-11
1.86272e-10 -2.91713e-10 1.40308e-10
1.58081e-10 1.73063e-10 -2.19833e-11
-5.50561e-11 -2.91066e-11 8.46356e-12
-9.7549e-11 -2.00837e-10 3.70383e-11
2.44433e-10 -8.06032e-11 4.17634e-11
2.86782e-10 -1.79531e-10 7.4015e-11
-6.3785e-11 -7.97876e-11 -5.15837e-12
-2.80485e-11 8.52199e-11 -8.75857e-12
5.2878e-11 1.03196e-11 -8.85569e-12
3.48165e-10 -3.42675e-10 2.21018e-10
1.56233e-10 -9.19482e-11 1.76876e-11
1.08164e-10 -8.28174e-10 -8.99998e-11
-2.69265e-10 2.73924e-10 -9.54568e-11
4.40229e-10 -1.26509e-10 5.03372e-11
-6.17732e-11 4.73517e-11 -5.38363e-11
1.04009e-10 -1.68916e-10 1.06612e-10
-2.31561e-11 3.0847e-11 -5.99677e-11
4.48525e-11 -7.47114e-11 1.66409e-11
3.40682e-10 5.50536e-11 2.58025e-11
3.25803e-11 4.90688e-11 -1.78308e-11
3.8064e-12 4.59103e-11 -1.8378e-11
-2.00151e-10 -4.01583e-11 2.15882e-11
-1.32881e-12 6.07866e-12 -8.76123e-12
2.50519e-11 1.46475e-10 5.21191e-13
-7.6902e-11 -2.94911e-11 -9.43136e-11
-8.05499e-11 3.48161e-11 -1.54824e-11
-8.85276e-11 -7.0911e-11 2.05546e-10
-3.91877e-23 7.54802e-24 -2.27475e-24
-2.36568e-11 1.07468e-11 -2.29505e-11
2.32098e-10 -1.27027e-10 -1.10868e-10
1.72509e-10 -1.76341e-10 1.02545e-10
2.81325e-10 -1.18844e-10 5.58063e-11
-3.67187e-11 -7.15007e-11 -7.03663e-12
-2.684e-11 -1.02895e-10 -4.89523e-10
-8.70855e-11 3.44063e-11 -5.10771e-11
3.00058e-11 1.52518e-10 -1.02572e-10
-2.77253e-10 4.61612e-11 -2.057e-11
-1.53156e-11 2.9901e-10 -1.72091e-11
-3.29636e-11 1.12624e-10 -9.38527e-11
1.61832e-12 -2.02445e-11 3.18715e-11
4.559e-12 3.77654e-11 7.06914e-11
1.40484e-10 -1.08805e-10 4.62849e-11
-3.42046e-10 -2.30647e-10 2.56566e-10
-1.26e-10 2.96466e-11 3.70194e-11
-6.23978e-10 1.60554e-10 -4.70559e-10
1.79949e-11 8.86286e-11 -1.43166e-11
-2.35462e-10 3.14868e-10 -2.46667e-10
7.73517e-10 2.26946e-10 5.84172e-11
3.71901e-11 -2.4607e-10 -6.58199e-11
-2.2616e-12 -1.09562e-10 3.37689e-11
-2.34401e-10 1.92592e-11 -1.42468e-10
-5.78262e-10 4.03648e-10 9.36784e-12
7.53486e-12 1.47617e-10 -1.04892e-10
-8.43987e-11 1.85144e-10 5.89581e-11
6.74281e-22 2.06433e-22 1.88184e-23
-2.20017e-12 1.46393e-11 -2.0141e-12
-1.35357e-11 -3.70461e-10 9.54409e-11
-2.47795e-12 -2.25674e-11 -2.56808e-12
-1.55559e-10 -8.86071e-12 -1.37281e-11
-1.86776e-10 9.8261e-11 -2.19538e-10
5.54877e-11 -8.75368e-12 3.60152e-11
-6.14975e-11 -1.60965e-10 7.37485e-11
3.69458e-10 1.69574e-10 8.16172e-11
-3.98742e-11 1.03013e-10 -4.23214e-11
8.92729e-11 -1.29848e-10 2.2996e-11
1.90489e-11 1.44487e-10 1.618e-11
-2.09313e-10 4.90095e-10 1.32386e-10
2.11789e-10 3.2193e-11 2.63206e-11
3.67813e-10 -3.3856e-10 1.8562e-10
1.72353e-12 1.64811e-10 -6.87055e-11
1.38665e-10 -1.16859e-10 -2.69609e-11
-5.47125e-10 6.40393e-10 1.99199e-09
-1.82805e-10 -9.96251e-11 -8.10863e-11
9.43972e-11 1.16091e-10 4.51179e-12
