# vtk DataFile Version 3.0
LIGGGHTS particles timestep 5200000
ASCII
DATASET POLYDATA
POINTS 289 float
0.0366881 0.0160775 0.00797132
0.0371436 0.0171109 0.00735928
0.0370359 0.01707 0.00738272
0.0371005 0.0173331 0.00724927
0.0364788 0.0159725 0.00809576
0.0425887 0.0163648 0.00769706
0.0366521 0.0166751 0.00759091
0.0364602 0.0159119 0.00817306
0.0429021 0.0177561 0.00723262
0.0365951 0.0164158 0.00773014
0.0368524 0.01692 0.00746285
0.0428586 0.0175709 0.00729437
0.0366324 0.0165877 0.00763523
0.0303386 0.0155126 0.00862324
0.0368257 0.0170316 0.00740769
0.030318 0.015437 0.00868543
0.0365739 0.0163257 0.00776799
0.0427935 0.0172931 0.00738701
0.0365738 0.0159949 0.00807226
0.036989 0.0168674 0.00748542
0.0364975 0.0160331 0.00801846
0.0367525 0.016918 0.00746657
0.0428152 0.0173857 0.00735613
0.0367497 0.0167076 0.007572
0.042685 0.0168301 0.0075414
0.0307466 0.0170455 0.00731771
0.0365921 0.0160554 0.00799479
0.0425707 0.0163061 0.00777599
0.0366128 0.0165002 0.00767955
0.0367517 0.0170926 0.00737929
0.0426077 0.0164579 0.00766591
0.0367118 0.0165324 0.00766073
0.036808 0.0165609 0.00764381
0.0429238 0.0178487 0.00720174
0.0366923 0.0164449 0.00770506
0.0367319 0.0166198 0.00761647
0.0427284 0.0170153 0.00747964
0.0366713 0.0167687 0.00756139
0.0366096 0.0161266 0.00792683
0.0366917 0.0168481 0.00750408
0.0369361 0.017077 0.00738193
0.0371959 0.0173003 0.00726303
0.0426268 0.016551 0.00763475
0.0427067 0.0169227 0.00751052
0.036535 0.0161546 0.0078636
0.0368945 0.0168384 0.00750253
0.0426651 0.0167371 0.00757247
0.036933 0.0174671 0.00718672
0.0310323 0.0170151 0.00731338
0.0427501 0.0171079 0.00744876
0.0367285 0.0162109 0.00782124
0.030359 0.0155775 0.00855001
0.0368345 0.016754 0.00754643
0.0426458 0.0166441 0.0076036
0.0307645 0.0167208 0.00745374
0.0428369 0.0174783 0.00732525
0.0369108 0.0166954 0.00757366
0.0365162 0.0160938 0.00794116
0.0369145 0.0169894 0.00742638
0.0370788 0.0172442 0.00729434
0.0427718 0.0172005 0.00741788
0.0364411 0.0158513 0.00825031
0.0309132 0.0169387 0.00733978
0.0370142 0.0169829 0.0074269
0.0308688 0.0167575 0.00741764
0.0367304 0.0170055 0.00742341
0.0429455 0.0179413 0.00717086
0.0304178 0.0157863 0.00835068
0.0428804 0.0176635 0.0072635
0.0365545 0.0162382 0.00781232
0.0370563 0.0168006 0.00751703
0.0366742 0.0163572 0.00774948
0.0428471 0.0171392 0.00744201
0.0370581 0.0184328 0.00705957
0.0304753 0.0159936 0.00814874
0.0306097 0.0164829 0.00767679
0.037086 0.0176871 0.00707248
0.0307278 0.0165787 0.00758955
0.0307685 0.0171395 0.00729184
0.030532 0.0162005 0.00794921
0.0428253 0.0170465 0.00747293
0.0305198 0.0160588 0.00808738
0.03688 0.017615 0.00711356
0.0429584 0.0176054 0.00728663
0.0369969 0.0177285 0.00705407
0.0370433 0.0175128 0.00716085
0.0370222 0.0174256 0.00720506
0.0368685 0.0172059 0.00731929
0.0371604 0.0176265 0.0071007
0.0371011 0.0181877 0.00699494
0.0369752 0.0176415 0.00709829
0.0370392 0.0183381 0.00703335
0.0371083 0.017774 0.00702833
0.0370574 0.0179995 0.00694436
0.0308033 0.0168899 0.00735728
0.037269 0.0172385 0.00729196
0.0309159 0.0166037 0.00755829
0.0367945 0.0172669 0.007291
0.0367939 0.0168362 0.00750641
0.030956 0.0171269 0.00728297
0.030456 0.0159233 0.00821712
0.0368375 0.0174412 0.00720287
0.0303981 0.0157148 0.00841773
0.0366332 0.016198 0.00786091
0.0369576 0.0171643 0.00733768
0.0369015 0.0177022 0.00706861
0.0370186 0.0182434 0.00700894
0.0306874 0.0167666 0.00740538
0.036923 0.0177895 0.00702357
0.0308335 0.0174192 0.00720518
0.0370573 0.0171571 0.00733853
0.036962 0.0167717 0.00753407
0.0364219 0.0157907 0.00832752
0.0309074 0.0173536 0.00722065
0.0425518 0.0162475 0.00785482
0.036826 0.016649 0.00759924
0.0364027 0.0157301 0.00840473
0.0372046 0.0178005 0.00701242
0.0306656 0.0163674 0.00779316
0.0371611 0.0180458 0.00695828
0.0366529 0.0162709 0.00779538
0.0368471 0.0171187 0.00736349
0.0305708 0.0163417 0.007813
0.0369542 0.0175543 0.00714251
0.0308589 0.0170969 0.00729571
0.0367731 0.0171797 0.00733502
0.0309336 0.0170322 0.00731086
0.0371731 0.0172135 0.00730712
0.0367879 0.0164736 0.0076881
0.0369791 0.0172515 0.00729344
0.0367062 0.0161382 0.00789392
0.0304012 0.0156435 0.00848779
0.0371437 0.0179494 0.0069383
0.0370643 0.0176 0.00711663
0.0370006 0.0173386 0.00724925
0.0370412 0.0179039 0.00696886
0.0305128 0.0161308 0.00801834
0.0368899 0.017293 0.00727509
0.0369115 0.0173801 0.00723091
0.036859 0.017528 0.00715829
0.0372797 0.0177407 0.0070403
0.0304585 0.0158517 0.00828692
0.0368159 0.0173541 0.00724717
0.0370192 0.0178157 0.00701047
0.0363831 0.0156696 0.00848187
0.0309514 0.0175415 0.00716536
0.0363629 0.0156091 0.00855889
0.0308118 0.0173256 0.00723273
0.0306486 0.0166243 0.00754039
0.0308909 0.0168471 0.00737915
0.0369981 0.0181455 0.00701031
0.0308247 0.016984 0.00732944
0.0365548 0.0159341 0.0081494
0.0310688 0.0176632 0.00712571
0.0371753 0.0185412 0.00707248
0.0310542 0.0171083 0.00728439
0.037096 0.0186239 0.00710458
0.0310421 0.0172931 0.00723204
0.03675 0.016298 0.00777704
0.0308276 0.0165753 0.00759562
0.036959 0.0179645 0.00693352
0.0312161 0.0175315 0.00715678
0.0309293 0.0174474 0.00719305
0.0371827 0.0177134 0.00705658
0.0312067 0.0178805 0.00705801
0.0372252 0.017889 0.00697078
0.0310253 0.0174759 0.00718081
0.031086 0.0168646 0.00738027
0.0307255 0.0169511 0.00734326
0.0311163 0.0172271 0.0072476
0.031021 0.0171993 0.0072596
0.0308553 0.0175129 0.00717763
0.0369413 0.017877 0.00697857
0.0307042 0.0165087 0.00765689
0.0367684 0.0163861 0.00773243
0.0311425 0.0175974 0.00714123
0.0370381 0.0167129 0.00756145
0.0309731 0.0176351 0.00713781
0.0306291 0.0165537 0.0076085
0.0429672 0.0180339 0.00713998
0.0372384 0.0179842 0.0069433
0.0369021 0.0165902 0.0076266
0.030877 0.0176065 0.00715009
0.0371967 0.0182161 0.00700213
0.0308987 0.0177001 0.00712254
0.0371302 0.0178608 0.00698383
0.0365165 0.015813 0.00830383
0.0312378 0.0176252 0.00712923
0.0308039 0.0165067 0.00766449
0.0364973 0.0157524 0.00838103
0.0307433 0.0166498 0.00752088
0.0312328 0.0173486 0.00720804
0.0305903 0.0164123 0.00774491
0.0310971 0.0181995 0.00697208
0.0311375 0.0173209 0.00722004
0.036864 0.0164147 0.0077155
0.0310989 0.01741 0.00719636
0.0307901 0.0172319 0.00726028
0.0310036 0.0173823 0.00720836
0.0309393 0.0166725 0.00748968
0.0311642 0.0176911 0.00711368
0.0307054 0.016865 0.00738998
0.0371329 0.0167423 0.00754412
0.0371212 0.0182824 0.00702
0.0428905 0.0173244 0.00738025
0.0369794 0.0180601 0.00695974
0.0308813 0.0171917 0.00726778
0.0309459 0.0172644 0.00724434
0.037256 0.0176518 0.00708546
0.0371157 0.0187207 0.00712009
0.0370746 0.0180943 0.00697131
0.0366684 0.016017 0.00804844
0.0306849 0.0164381 0.00772502
0.0365357 0.0158736 0.00822662
0.030668 0.0166943 0.00747165
0.0305514 0.0162711 0.0078811
0.0428688 0.0172318 0.00741113
0.0311119 0.0178507 0.00707057
0.0302974 0.0153666 0.00875333
0.0309949 0.0177288 0.00711026
0.0307811 0.0167999 0.00739494
0.0313013 0.0179105 0.00704541
0.0309422 0.0178874 0.00706744
0.0308416 0.0166565 0.00750348
0.03714 0.0183774 0.00704514
0.0371301 0.0174675 0.00718117
0.0310805 0.018548 0.00688321
0.0310218 0.0182635 0.00695712
0.0312113 0.0183236 0.00693188
0.0310166 0.0178224 0.00708271
0.0247028 0.0168683 0.00742492
0.0310025 0.0181694 0.00698471
0.031038 0.0179162 0.00705512
0.024682 0.0167885 0.00748146
0.0247237 0.0169481 0.00736838
0.0310581 0.0180109 0.00702736
0.0247665 0.0171124 0.00726308
0.0364584 0.0156313 0.00853537
0.0373016 0.0178294 0.00699529
0.0309635 0.0179811 0.00703988
0.036478 0.0156918 0.00845823
0.0368843 0.0165023 0.00767108
0.0247445 0.0170279 0.00731184
0.0311207 0.0175038 0.00716878
0.0310905 0.0177568 0.00709816
0.0309694 0.016745 0.00742771
0.0309831 0.0180752 0.0070123
0.0312895 0.0174655 0.00717238
0.0311918 0.0182295 0.00695948
0.0311942 0.0174378 0.00718437
0.0371781 0.0173885 0.00721936
0.0310607 0.0184518 0.00690194
0.0312669 0.0181652 0.00697451
0.0248301 0.0174022 0.00721835
0.0311166 0.0182936 0.00694448
0.0309204 0.0177938 0.00709499
0.0371917 0.01865 0.00709171
0.0310116 0.0169246 0.00735046
0.0311857 0.017785 0.00708606
0.0311527 0.0180408 0.00701476
0.0311723 0.0181353 0.00698708
0.0311557 0.0184824 0.00688915
0.0312307 0.018418 0.00690421
0.0311327 0.0179459 0.0070426
0.0312473 0.0180708 0.00700217
0.0312594 0.0177192 0.00710156
0.0311003 0.018646 0.00688334
0.0370768 0.0185279 0.00708399
0.0247872 0.0172091 0.00724815
0.0248616 0.0171431 0.00725879
0.0311376 0.017055 0.0072987
0.0248515 0.0174987 0.00720345
0.0248086 0.0173056 0.00723325
0.0310777 0.0181052 0.0069997
0.0310413 0.0183577 0.00692953
0.0312272 0.0179759 0.00703
0.0367598 0.0168044 0.00759489
0.0311362 0.0183879 0.00691684
0.0306267 0.0162262 0.00792935
0.0312864 0.0182594 0.0069469
0.0311067 0.0169545 0.0073416
0.0371136 0.0170129 0.00740917
0.031175 0.0185795 0.00687493
0.0306461 0.0162968 0.00786125
0.0370444 0.0173271 0.00733844
0.0369869 0.0166366 0.00760102
0.031047 0.0175695 0.00715326
0.030991 0.0168348 0.00738936
0.0369381 0.0169485 0.00751447

VERTICES 289 578
1 0
1 1
1 2
1 3
1 4
1 5
1 6
1 7
1 8
1 9
1 10
1 11
1 12
1 13
1 14
1 15
1 16
1 17
1 18
1 19
1 20
1 21
1 22
1 23
1 24
1 25
1 26
1 27
1 28
1 29
1 30
1 31
1 32
1 33
1 34
1 35
1 36
1 37
1 38
1 39
1 40
1 41
1 42
1 43
1 44
1 45
1 46
1 47
1 48
1 49
1 50
1 51
1 52
1 53
1 54
1 55
1 56
1 57
1 58
1 59
1 60
1 61
1 62
1 63
1 64
1 65
1 66
1 67
1 68
1 69
1 70
1 71
1 72
1 73
1 74
1 75
1 76
1 77
1 78
1 79
1 80
1 81
1 82
1 83
1 84
1 85
1 86
1 87
1 88
1 89
1 90
1 91
1 92
1 93
1 94
1 95
1 96
1 97
1 98
1 99
1 100
1 101
1 102
1 103
1 104
1 105
1 106
1 107
1 108
1 109
1 110
1 111
1 112
1 113
1 114
1 115
1 116
1 117
1 118
1 119
1 120
1 121
1 122
1 123
1 124
1 125
1 126
1 127
1 128
1 129
1 130
1 131
1 132
1 133
1 134
1 135
1 136
1 137
1 138
1 139
1 140
1 141
1 142
1 143
1 144
1 145
1 146
1 147
1 148
1 149
1 150
1 151
1 152
1 153
1 154
1 155
1 156
1 157
1 158
1 159
1 160
1 161
1 162
1 163
1 164
1 165
1 166
1 167
1 168
1 169
1 170
1 171
1 172
1 173
1 174
1 175
1 176
1 177
1 178
1 179
1 180
1 181
1 182
1 183
1 184
1 185
1 186
1 187
1 188
1 189
1 190
1 191
1 192
1 193
1 194
1 195
1 196
1 197
1 198
1 199
1 200
1 201
1 202
1 203
1 204
1 205
1 206
1 207
1 208
1 209
1 210
1 211
1 212
1 213
1 214
1 215
1 216
1 217
1 218
1 219
1 220
1 221
1 222
1 223
1 224
1 225
1 226
1 227
1 228
1 229
1 230
1 231
1 232
1 233
1 234
1 235
1 236
1 237
1 238
1 239
1 240
1 241
1 242
1 243
1 244
1 245
1 246
1 247
1 248
1 249
1 250
1 251
1 252
1 253
1 254
1 255
1 256
1 257
1 258
1 259
1 260
1 261
1 262
1 263
1 264
1 265
1 266
1 267
1 268
1 269
1 270
1 271
1 272
1 273
1 274
1 275
1 276
1 277
1 278
1 279
1 280
1 281
1 282
1 283
1 284
1 285
1 286
1 287
1 288

POINT_DATA 289
SCALARS id int 1
LOOKUP_TABLE default
1
2
3
4
5
6
7
8
9
10
11
12
13
14
15
16
17
18
19
20
21
22
24
25
26
27
29
30
31
32
33
34
35
36
37
38
39
40
41
42
43
44
45
46
47
48
49
50
52
53
54
55
56
57
58
59
60
61
62
63
64
65
66
67
68
69
70
71
72
73
74
75
76
77
78
79
80
81
82
83
84
85
86
87
88
89
90
91
92
93
94
95
96
98
99
100
101
102
103
104
105
106
107
108
109
110
111
112
113
114
115
116
117
118
119
120
121
122
123
124
125
126
127
128
129
130
131
132
133
134
135
136
137
138
139
140
141
142
144
145
146
147
148
149
150
152
153
154
155
156
157
158
159
160
161
162
164
165
166
167
168
169
170
171
172
173
174
175
176
177
178
179
180
181
182
183
184
185
186
187
188
189
190
191
192
193
194
195
196
197
198
199
200
201
202
203
204
205
206
207
208
209
210
211
213
214
215
216
217
218
219
220
221
222
223
224
225
226
227
228
229
230
231
232
233
234
235
236
237
238
239
241
242
243
244
245
246
247
248
249
250
251
252
253
254
255
256
257
258
259
260
261
262
263
264
265
267
268
269
270
271
272
273
274
275
276
277
278
279
280
281
282
283
284
285
286
287
288
289
290
292
293
294
295
296
297
298
299
300

SCALARS type int 1
LOOKUP_TABLE default
1
1
1
1
1
1
1
1
1
1
1
1
1
1
1
1
1
1
1
1
1
1
1
1
1
1
1
1
1
1
1
1
1
1
1
1
1
1
1
1
1
1
1
1
1
1
1
1
1
1
1
1
1
1
1
1
1
1
1
1
1
1
1
1
1
1
1
1
1
1
1
1
1
1
1
1
1
1
1
1
1
1
1
1
1
1
1
1
1
1
1
1
1
1
1
1
1
1
1
1
1
1
1
1
1
1
1
1
1
1
1
1
1
1
1
1
1
1
1
1
1
1
1
1
1
1
1
1
1
1
1
1
1
1
1
1
1
1
1
1
1
1
1
1
1
1
1
1
1
1
1
1
1
1
1
1
1
1
1
1
1
1
1
1
1
1
1
1
1
1
1
1
1
1
1
1
1
1
1
1
1
1
1
1
1
1
1
1
1
1
1
1
1
1
1
1
1
1
1
1
1
1
1
1
1
1
1
1
1
1
1
1
1
1
1
1
1
1
1
1
1
1
1
1
1
1
1
1
1
1
1
1
1
1
1
1
1
1
1
1
1
1
1
1
1
1
1
1
1
1
1
1
1
1
1
1
1
1
1
1
1
1
1
1
1
1
1
1
1
1
1
1
1
1
1
1
1
1
1
1
1
1
1
1
1
1
1
1
1

SCALARS radius float 1
LOOKUP_TABLE default
5e-05
5e-05
5e-05
5e-05
5e-05
5e-05
5e-05
5e-05
5e-05
5e-05
5e-05
5e-05
5e-05
5e-05
5e-05
5e-05
5e-05
5e-05
5e-05
5e-05
5e-05
5e-05
5e-05
5e-05
5e-05
5e-05
5e-05
5e-05
5e-05
5e-05
5e-05
5e-05
5e-05
5e-05
5e-05
5e-05
5e-05
5e-05
5e-05
5e-05
5e-05
5e-05
5e-05
5e-05
5e-05
5e-05
5e-05
5e-05
5e-05
5e-05
5e-05
5e-05
5e-05
5e-05
5e-05
5e-05
5e-05
5e-05
5e-05
5e-05
5e-05
5e-05
5e-05
5e-05
5e-05
5e-05
5e-05
5e-05
5e-05
5e-05
5e-05
5e-05
5e-05
5e-05
5e-05
5e-05
5e-05
5e-05
5e-05
5e-05
5e-05
5e-05
5e-05
5e-05
5e-05
5e-05
5e-05
5e-05
5e-05
5e-05
5e-05
5e-05
5e-05
5e-05
5e-05
5e-05
5e-05
5e-05
5e-05
5e-05
5e-05
5e-05
5e-05
5e-05
5e-05
5e-05
5e-05
5e-05
5e-05
5e-05
5e-05
5e-05
5e-05
5e-05
5e-05
5e-05
5e-05
5e-05
5e-05
5e-05
5e-05
5e-05
5e-05
5e-05
5e-05
5e-05
5e-05
5e-05
5e-05
5e-05
5e-05
5e-05
5e-05
5e-05
5e-05
5e-05
5e-05
5e-05
5e-05
5e-05
5e-05
5e-05
5e-05
5e-05
5e-05
5e-05
5e-05
5e-05
5e-05
5e-05
5e-05
5e-05
5e-05
5e-05
5e-05
5e-05
5e-05
5e-05
5e-05
5e-05
5e-05
5e-05
5e-05
5e-05
5e-05
5e-05
5e-05
5e-05
5e-05
5e-05
5e-05
5e-05
5e-05
5e-05
5e-05
5e-05
5e-05
5e-05
5e-05
5e-05
5e-05
5e-05
5e-05
5e-05
5e-05
5e-05
5e-05
5e-05
5e-05
5e-05
5e-05
5e-05
5e-05
5e-05
5e-05
5e-05
5e-05
5e-05
5e-05
5e-05
5e-05
5e-05
5e-05
5e-05
5e-05
5e-05
5e-05
5e-05
5e-05
5e-05
5e-05
5e-05
5e-05
5e-05
5e-05
5e-05
5e-05
5e-05
5e-05
5e-05
5e-05
5e-05
5e-05
5e-05
5e-05
5e-05
5e-05
5e-05
5e-05
5e-05
5e-05
5e-05
5e-05
5e-05
5e-05
5e-05
5e-05
5e-05
5e-05
5e-05
5e-05
5e-05
5e-05
5e-05
5e-05
5e-05
5e-05
5e-05
5e-05
5e-05
5e-05
5e-05
5e-05
5e-05
5e-05
5e-05
5e-05
5e-05
5e-05
5e-05
5e-05
5e-05
5e-05
5e-05
5e-05
5e-05
5e-05
5e-05
5e-05
5e-05
5e-05
5e-05
5e-05
5e-05
5e-05
5e-05
5e-05
5e-05
5e-05
5e-05
5e-05
5e-05
5e-05
5e-05
5e-05
5e-05
5e-05
5e-05
5e-05

SCALARS mass float 1
LOOKUP_TABLE default
1.46608e-10
1.46608e-10
1.46608e-10
1.46608e-10
1.46608e-10
1.46608e-10
1.46608e-10
1.46608e-10
1.46608e-10
1.46608e-10
1.46608e-10
1.46608e-10
1.46608e-10
1.46608e-10
1.46608e-10
1.46608e-10
1.46608e-10
1.46608e-10
1.46608e-10
1.46608e-10
1.46608e-10
1.46608e-10
1.46608e-10
1.46608e-10
1.46608e-10
1.46608e-10
1.46608e-10
1.46608e-10
1.46608e-10
1.46608e-10
1.46608e-10
1.46608e-10
1.46608e-10
1.46608e-10
1.46608e-10
1.46608e-10
1.46608e-10
1.46608e-10
1.46608e-10
1.46608e-10
1.46608e-10
1.46608e-10
1.46608e-10
1.46608e-10
1.46608e-10
1.46608e-10
1.46608e-10
1.46608e-10
1.46608e-10
1.46608e-10
1.46608e-10
1.46608e-10
1.46608e-10
1.46608e-10
1.46608e-10
1.46608e-10
1.46608e-10
1.46608e-10
1.46608e-10
1.46608e-10
1.46608e-10
1.46608e-10
1.46608e-10
1.46608e-10
1.46608e-10
1.46608e-10
1.46608e-10
1.46608e-10
1.46608e-10
1.46608e-10
1.46608e-10
1.46608e-10
1.46608e-10
1.46608e-10
1.46608e-10
1.46608e-10
1.46608e-10
1.46608e-10
1.46608e-10
1.46608e-10
1.46608e-10
1.46608e-10
1.46608e-10
1.46608e-10
1.46608e-10
1.46608e-10
1.46608e-10
1.46608e-10
1.46608e-10
1.46608e-10
1.46608e-10
1.46608e-10
1.46608e-10
1.46608e-10
1.46608e-10
1.46608e-10
1.46608e-10
1.46608e-10
1.46608e-10
1.46608e-10
1.46608e-10
1.46608e-10
1.46608e-10
1.46608e-10
1.46608e-10
1.46608e-10
1.46608e-10
1.46608e-10
1.46608e-10
1.46608e-10
1.46608e-10
1.46608e-10
1.46608e-10
1.46608e-10
1.46608e-10
1.46608e-10
1.46608e-10
1.46608e-10
1.46608e-10
1.46608e-10
1.46608e-10
1.46608e-10
1.46608e-10
1.46608e-10
1.46608e-10
1.46608e-10
1.46608e-10
1.46608e-10
1.46608e-10
1.46608e-10
1.46608e-10
1.46608e-10
1.46608e-10
1.46608e-10
1.46608e-10
1.46608e-10
1.46608e-10
1.46608e-10
1.46608e-10
1.46608e-10
1.46608e-10
1.46608e-10
1.46608e-10
1.46608e-10
1.46608e-10
1.46608e-10
1.46608e-10
1.46608e-10
1.46608e-10
1.46608e-10
1.46608e-10
1.46608e-10
1.46608e-10
1.46608e-10
1.46608e-10
1.46608e-10
1.46608e-10
1.46608e-10
1.46608e-10
1.46608e-10
1.46608e-10
1.46608e-10
1.46608e-10
1.46608e-10
1.46608e-10
1.46608e-10
1.46608e-10
1.46608e-10
1.46608e-10
1.46608e-10
1.46608e-10
1.46608e-10
1.46608e-10
1.46608e-10
1.46608e-10
1.46608e-10
1.46608e-10
1.46608e-10
1.46608e-10
1.46608e-10
1.46608e-10
1.46608e-10
1.46608e-10
1.46608e-10
1.46608e-10
1.46608e-10
1.46608e-10
1.46608e-10
1.46608e-10
1.46608e-10
1.46608e-10
1.46608e-10
1.46608e-10
1.46608e-10
1.46608e-10
1.46608e-10
1.46608e-10
1.46608e-10
1.46608e-10
1.46608e-10
1.46608e-10
1.46608e-10
1.46608e-10
1.46608e-10
1.46608e-10
1.46608e-10
1.46608e-10
1.46608e-10
1.46608e-10
1.46608e-10
1.46608e-10
1.46608e-10
1.46608e-10
1.46608e-10
1.46608e-10
1.46608e-10
1.46608e-10
1.46608e-10
1.46608e-10
1.46608e-10
1.46608e-10
1.46608e-10
1.46608e-10
1.46608e-10
1.46608e-10
1.46608e-10
1.46608e-10
1.46608e-10
1.46608e-10
1.46608e-10
1.46608e-10
1.46608e-10
1.46608e-10
1.46608e-10
1.46608e-10
1.46608e-10
1.46608e-10
1.46608e-10
1.46608e-10
1.46608e-10
1.46608e-10
1.46608e-10
1.46608e-10
1.46608e-10
1.46608e-10
1.46608e-10
1.46608e-10
1.46608e-10
1.46608e-10
1.46608e-10
1.46608e-10
1.46608e-10
1.46608e-10
1.46608e-10
1.46608e-10
1.46608e-10
1.46608e-10
1.46608e-10
1.46608e-10
1.46608e-10
1.46608e-10
1.46608e-10
1.46608e-10
1.46608e-10
1.46608e-10
1.46608e-10
1.46608e-10
1.46608e-10
1.46608e-10
1.46608e-10
1.46608e-10
1.46608e-10
1.46608e-10
1.46608e-10
1.46608e-10
1.46608e-10
1.46608e-10
1.46608e-10
1.46608e-10
1.46608e-10
1.46608e-10
1.46608e-10
1.46608e-10
1.46608e-10
1.46608e-10
1.46608e-10
1.46608e-10
1.46608e-10
1.46608e-10

VECTORS velocity float
0.00439555 0.000149844 4.00784e-05
0.00516734 0.000619754 -0.000448561
0.0048613 0.000291122 -0.000277876
0.00496318 0.000364815 -0.000318262
0.00435953 0.000163466 1.86774e-05
0.00433572 -0.000423762 0.000324412
0.00465124 -5.49072e-05 -9.97437e-05
0.00434404 0.000167666 1.35116e-05
0.00463707 -0.000479991 0.000355985
0.00445084 -4.76013e-05 -0.000211182
0.00475469 -9.59458e-06 -0.000124864
0.00462697 -0.000478071 0.00035491
0.00449291 -1.30125e-05 -0.000116066
0.00458372 0.000207554 8.76729e-05
0.00480164 -0.000130871 -6.89997e-05
0.00457394 0.000204945 6.97046e-05
0.00446344 -4.68545e-05 -0.000211225
0.00461174 -0.000474954 0.000353221
0.00435078 0.000166702 3.1168e-05
0.00473129 -9.74845e-05 -7.21832e-05
0.00440343 0.000159909 2.86659e-05
0.00475987 -0.000118525 -7.12502e-05
0.00461694 -0.000476042 0.000353794
0.0046646 -7.55661e-05 -9.09715e-05
0.00458754 -0.000468987 0.000350131
0.00490612 -1.49931e-05 -0.000199291
0.00437504 0.000163981 2.98807e-05
0.00431369 -0.000420607 0.000321936
0.00442681 3.4916e-06 -0.00012621
0.00479355 -0.000129111 -6.7129e-05
0.00434315 -0.000425236 0.000325144
0.00458314 -2.83418e-05 -0.000112971
0.00462543 -5.72317e-05 -9.74158e-05
0.00464213 -0.000480942 0.00035652
0.0045213 -8.55507e-06 -0.000120813
0.00463797 -5.23987e-05 -0.000106085
0.00459728 -0.000470625 0.000351143
0.00468649 -7.06824e-05 -9.30489e-05
0.00441783 0.000127329 -4.48083e-06
0.00473576 -9.65161e-05 -8.16258e-05
0.00485145 -2.87906e-05 -0.000118789
0.00466779 0.00038104 -0.000318628
0.00432035 -0.000421651 0.000322986
0.00459134 -0.000469997 0.000350663
0.00444309 0.000117346 0.000100503
0.00468356 -4.06417e-05 -0.000109721
0.00437887 -0.000431971 0.000328864
0.0048331 -0.000164196 -5.0464e-05
0.00485827 0.000107933 4.37514e-05
0.00460225 -0.000471974 0.000351797
0.00444888 -2.54045e-05 -0.000105541
0.00457717 0.000193974 8.11051e-05
0.00469344 -0.000110891 -7.46259e-05
0.00429754 -0.000417973 0.000320748
0.00450449 0.000278799 4.74621e-05
0.00462189 -0.000477104 0.000354374
0.00467258 -0.000110728 -7.25675e-05
0.00441809 0.000155887 3.36595e-05
0.00483755 -7.88646e-05 -9.84491e-05
0.00468557 0.00027712 -0.000268001
0.00460682 -0.000473536 0.000352526
0.00443024 0.000148358 4.23892e-05
0.00488396 5.62517e-05 0.000199215
0.0048848 0.000282139 -0.000278311
0.00450494 0.000324589 6.0344e-05
0.00477706 -0.000120406 -6.98425e-05
0.00464723 -0.000481799 0.000357015
0.00441358 0.000197172 6.00699e-05
0.00463209 -0.000478997 0.00035544
0.0044777 -1.98874e-05 -0.000120883
0.00465011 -0.00014944 -5.38058e-05
0.00448501 -1.0399e-06 -0.00012779
0.00460558 -0.000474994 0.000352968
0.00471546 -0.000137536 1.78568e-05
0.00433082 0.000210307 4.11242e-05
0.00445524 0.000221505 3.50102e-05
0.00487172 -0.000118217 -0.000143919
0.00445461 0.00024152 1.20566e-05
0.00492029 -3.64646e-05 -0.000192318
0.00440107 0.00021717 3.84684e-05
0.00460274 -0.000471254 0.000351567
0.00434361 0.000207873 4.42259e-05
0.00487935 -0.000152455 -9.38765e-06
0.00463226 -0.000478797 0.000355378
0.0048337 -0.000181091 -4.10188e-05
0.00483908 -7.97566e-05 -9.44463e-05
0.00485101 -9.98473e-05 -7.38192e-05
0.00481869 -0.000142393 -5.62117e-05
0.00488953 -4.48634e-05 -0.000121057
0.00435762 -3.58329e-05 4.57092e-05
0.00487046 -0.000175422 -3.13556e-05
0.00469989 -0.0001494 1.96222e-05
0.0047874 -6.60486e-05 -0.000102856
0.0044642 -7.85044e-05 5.55176e-05
0.00442672 -0.000203565 -0.000763976
0.00451713 0.00020803 -0.000227859
0.00445652 -3.04179e-05 -0.000200946
0.00483021 -0.000126597 -5.73523e-05
0.00473721 -0.000117324 -7.23655e-05
0.00486519 -6.25761e-06 -0.000185786
0.00434137 0.000200352 3.60115e-05
0.00490601 -0.000152015 -4.53171e-05
0.00447197 0.000186874 6.9412e-05
0.00444405 5.12274e-05 -8.71868e-05
0.00489542 -2.68566e-05 -0.000120649
0.00486724 -0.000244703 3.50148e-05
0.00445164 -0.000129044 3.5215e-05
0.00451682 0.000244387 0.000101587
0.00490754 -0.000260306 5.52938e-05
0.00490854 -1.45013e-05 -0.000205791
0.00493131 0.000276337 -0.000270109
0.00464827 -8.31053e-05 -8.54553e-05
0.00435087 0.00016102 2.23413e-05
0.00491002 1.68714e-06 -0.000210549
0.00427535 -0.000415219 0.000317169
0.00463118 -9.34997e-05 -8.12288e-05
0.00441394 0.000135108 4.42272e-05
0.00474 1.26462e-05 -0.000144535
0.00443025 0.00021985 3.61161e-05
0.00443723 2.68304e-05 8.81154e-05
0.00446851 -6.47198e-06 -0.000139298
0.00478206 -0.000151425 -5.65085e-05
0.00442841 0.000223517 3.37474e-05
0.00483325 -0.000156394 -4.37795e-05
0.0049226 -6.77925e-05 -0.000191918
0.00480747 -0.000129912 -6.40352e-05
0.0049227 -8.22314e-05 -0.000188547
0.00461324 0.000263201 -0.000254134
0.00458234 -4.22403e-05 -0.00010377
0.00490732 -0.000179172 -4.57739e-05
0.00444731 0.000142001 5.23922e-05
0.00454544 0.000193421 7.02542e-05
0.00452896 7.53029e-05 -0.000109575
0.00488289 -0.000101631 -9.22863e-05
0.00492885 -0.000144612 -5.78898e-05
0.00457066 -0.000104649 4.37218e-05
0.00437395 0.000211713 3.67964e-05
0.00492562 -0.000186683 -3.77032e-05
0.00489182 -0.000175998 -4.08943e-05
0.00488426 -0.000149367 -3.03902e-05
0.00479062 5.4191e-05 -0.00015623
0.00436853 0.000208584 4.36882e-05
0.00487452 -0.000131307 -5.24281e-05
0.00472374 -0.000152395 -2.34128e-06
0.00454634 0.000158569 3.41666e-05
0.00489661 6.71716e-06 -0.000213262
0.00454008 0.000169911 2.16487e-05
0.00490883 -2.80728e-05 -0.000200878
0.00446251 0.00019366 5.5663e-05
0.00447907 0.00034169 5.1346e-05
0.00440379 -0.000156561 0.000113649
0.00488627 -3.19792e-05 -0.000188509
0.00437055 0.000154695 2.79379e-05
0.00492032 1.49116e-05 -0.000216265
0.00463422 -0.000946971 -0.00104369
0.00485447 6.32774e-05 -6.89869e-05
0.00468252 3.5635e-06 -0.00076768
0.00486105 7.68554e-06 -0.000211166
0.00446717 -2.81086e-05 -0.000109206
0.00446164 0.000138454 -5.98251e-05
0.00447763 -0.000186106 2.4166e-05
0.00490845 2.09381e-05 -0.000217532
0.0049021 7.66239e-06 -0.000213816
0.00484099 -6.87454e-08 -0.000133908
0.0043621 0.000272119 -0.000265222
0.00467491 0.000101359 -1.82629e-06
0.00489846 1.86619e-05 -0.00021678
0.0048423 0.000149266 0.000153447
0.00457644 9.34781e-05 -0.000159999
0.00481419 4.03434e-05 -0.000214356
0.00483575 1.99451e-05 -0.000200837
0.00490264 -6.67977e-06 -0.000208884
0.00442771 -0.000177805 2.07e-05
0.00445125 0.000236726 2.31259e-05
0.00450852 -3.12248e-05 -0.000106964
0.00491122 1.29722e-05 -0.000215332
0.00461213 -0.00013908 -5.66457e-05
0.00490549 1.45447e-05 -0.000215304
0.00446772 0.000195599 6.32745e-05
0.00465234 -0.000482633 0.000357542
0.00453835 0.000170171 0.000135163
0.00458109 -0.000134664 -5.86738e-05
0.00490277 -2.74488e-07 -0.000211236
0.00442298 -8.63965e-06 -0.000818309
0.00490555 4.53293e-06 -0.000212435
0.00467072 1.15059e-05 -7.06679e-05
0.00438392 0.00015225 3.8955e-05
0.00491604 5.81847e-05 -0.000228354
0.00445121 0.000236518 2.92695e-05
0.00427787 0.000160634 2.10655e-05
0.00449045 0.000256313 2.30096e-05
0.00485061 5.4622e-06 -0.000210495
0.00444243 0.000222537 3.2985e-05
0.00450825 1.92834e-06 -0.000195634
0.00482516 2.65013e-05 -0.000214448
0.00456392 -5.88128e-05 -9.61363e-05
0.00488826 3.31668e-05 -0.000220119
0.00490425 -3.3631e-05 -0.000200486
0.00489221 1.22378e-05 -0.000214722
0.00450521 0.000149889 -1.44538e-06
0.00490517 9.96216e-06 -0.000214227
0.00447056 0.000250526 6.22983e-05
0.00459426 -0.000191456 -2.99413e-05
0.00420359 -9.67572e-06 6.50493e-05
0.00461734 -0.000475652 0.000353682
0.00445694 -0.000137991 0.000130764
0.00488189 -2.28639e-05 -0.000209295
0.00487035 -6.7521e-06 -0.000208695
0.00491534 8.77445e-05 -0.000176381
0.00464574 -2.43509e-06 -0.000871596
0.00441983 -6.17799e-05 6.61778e-05
0.00435053 0.000153642 2.8467e-05
0.00445089 0.000225175 3.16499e-05
0.00440908 0.000153833 3.53017e-05
0.00449233 0.000191674 4.83654e-05
0.00442169 0.000221571 3.63593e-05
0.00461059 -0.000476249 0.000353611
0.0045556 0.000224281 -0.000260085
0.00456913 0.000203695 5.99503e-05
0.00491809 1.21905e-05 -0.000215154
0.00449794 0.000298785 7.72977e-05
0.00452961 9.49601e-05 -0.000222184
0.00489297 -9.36774e-06 -0.000207884
0.00435709 0.00042653 -0.000697474
0.00473048 2.65927e-05 -0.000467206
0.00494103 8.17954e-05 -0.000176859
0.00458359 7.71567e-05 0.000113812
0.00450953 -2.73911e-05 -0.00019134
0.00459541 -2.79222e-05 -0.000189299
0.00493235 3.16866e-05 -0.000221752
0.00478881 -0.00029425 0.00018069
0.00447116 -1.13414e-05 -0.000189239
0.00449614 0.00016297 -0.000240138
0.00476929 -0.000278562 0.000169061
0.00482553 -0.00030774 0.000188615
0.00441142 0.000252135 -0.000261947
0.00483238 -0.000384192 8.75975e-05
0.00454806 0.00015694 4.14168e-05
0.00474066 9.60205e-05 -0.000182317
0.0044492 6.13115e-05 -0.000208566
0.00420319 0.000174336 -2.88628e-07
0.00459818 -9.0516e-05 -8.02904e-05
0.00484167 -0.000318899 0.00019175
0.00490545 1.54317e-05 -0.000215683
0.00493125 2.88414e-05 -0.000220785
0.00464314 0.000197465 0.000121986
0.00443789 2.12611e-05 -0.000197438
0.00490886 3.37627e-05 -0.000221265
0.00455741 -1.57599e-05 -0.000191862
0.00489808 1.95409e-05 -0.000216454
0.00510552 0.000167541 -0.000223383
0.00458896 1.29282e-05 -9.74246e-05
0.00456765 4.39678e-06 -0.000198193
0.00480867 -0.000382816 8.40757e-05
0.00452359 -5.8514e-05 -0.00018308
0.00490926 1.83066e-06 -0.000212292
0.00469491 -6.78478e-05 -0.00086975
0.00489969 0.000146282 0.000159905
0.00480716 0.000409048 -0.000323468
0.00448943 2.03704e-05 -0.000199213
0.00451316 4.70237e-05 -0.000207771
0.00442189 7.51108e-05 -0.000213013
0.00454893 0.000311864 -0.000309917
0.00442961 0.000320717 -0.000282091
0.00447183 4.11481e-05 -0.000204275
0.00490717 0.000522766 -0.000359992
0.00440761 2.18252e-05 0.000306001
0.00464515 -0.000137842 2.41885e-05
0.0048373 -0.000393419 8.58621e-05
0.00483429 -0.000387489 8.29182e-05
0.00483688 9.79276e-05 0.000179487
0.00479096 -0.000379139 8.28136e-05
0.00482233 -0.000389188 8.45004e-05
0.00446416 -1.87657e-05 -0.000187011
0.00455096 -2.74821e-05 -0.00019846
0.00451374 5.88031e-05 -0.000211359
0.00469818 -9.1374e-05 -8.53967e-05
0.00459768 -4.36172e-05 -0.000175206
0.00444672 0.000228132 3.01775e-05
0.00463446 4.42071e-05 -0.000213047
0.00483549 0.000148307 0.000156229
0.00503922 0.000508843 -0.000393239
0.00456524 0.000333998 0.000410852
0.00443057 0.000224893 3.2099e-05
0.00495893 0.00030569 1.78978e-05
0.00461934 -0.000145227 -5.37118e-05
0.00490309 1.64659e-05 -0.000215803
0.00484515 0.00016222 0.000158118
0.00485214 -2.52218e-05 -0.000101644

VECTORS force float
8.14474e-11 6.29171e-11 -1.11953e-10
9.52309e-10 -6.32183e-10 2.34107e-10
8.04078e-11 -2.88457e-10 1.39666e-10
6.5383e-10 -2.39532e-10 9.73476e-11
-6.22025e-11 -1.88283e-10 2.1356e-10
-7.54309e-12 4.39068e-12 -1.738e-12
-7.66411e-11 -4.75263e-10 2.87871e-10
1.20976e-10 -1.17094e-10 1.90897e-10
7.46125e-14 -7.60535e-14 1.85903e-14
-1.0956e-10 -2.62147e-10 2.45025e-11
-2.95713e-10 -3.60369e-10 2.34069e-10
-2.32665e-14 7.05385e-14 -3.08268e-13
1.50786e-10 -5.57656e-10 2.53593e-10
-6.42777e-11 5.61881e-11 -1.21088e-10
2.78204e-12 -7.88206e-11 6.51061e-11
6.75458e-11 4.78422e-12 -2.22508e-11
-4.44702e-12 -7.49822e-11 -1.08431e-10
8.71597e-13 2.09411e-12 -8.33515e-13
-2.87382e-10 1.03446e-10 -2.19427e-10
1.31344e-10 -3.05698e-10 2.16339e-10
-2.72158e-11 -8.87143e-11 1.40042e-10
-2.50268e-10 1.86895e-11 1.61575e-11
6.97268e-13 1.33083e-12 -3.56128e-13
-4.47931e-11 -3.60246e-10 2.14468e-10
9.67217e-12 2.83662e-12 -1.73348e-12
1.85944e-11 8.58232e-12 1.60077e-10
-5.66228e-11 7.12233e-11 -1.05517e-10
-2.0754e-11 1.09237e-11 -9.15559e-12
-3.15648e-11 -3.63785e-10 2.08589e-10
1.11556e-10 1.80251e-10 -6.99067e-11
1.64629e-12 6.51513e-12 -2.7158e-12
3.62865e-11 -2.00752e-10 8.65832e-11
9.54541e-11 -1.16449e-10 7.48319e-11
-1.31106e-13 -8.78853e-13 -3.14856e-14
7.73475e-11 -1.30897e-10 3.97073e-11
-2.20283e-11 -2.66625e-10 1.40536e-10
-2.10662e-11 5.39224e-13 -1.26677e-12
9.95727e-11 -3.57169e-10 2.16259e-10
1.6925e-10 1.25679e-10 8.53871e-11
-1.17158e-10 -2.7102e-10 1.57839e-10
-4.13273e-11 -2.1784e-10 7.90278e-11
4.95205e-10 -3.14646e-10 1.33186e-10
3.16979e-12 6.08886e-13 -2.20589e-13
3.34951e-13 -8.67569e-14 5.32582e-13
-2.14909e-11 2.20519e-11 -1.95713e-10
1.40368e-11 -3.89914e-11 3.44799e-12
3.61755e-12 2.65277e-12 -1.04574e-12
6.20168e-10 -5.42844e-10 2.25327e-10
1.26019e-10 -2.79899e-11 6.99309e-11
1.1915e-11 4.63437e-13 1.76302e-13
3.08888e-11 -5.10816e-11 -6.18394e-11
1.01275e-10 1.29864e-10 -1.06896e-10
-8.8423e-12 -3.41879e-10 1.60822e-10
3.90359e-12 -9.51349e-13 6.07802e-13
-7.43118e-11 6.82313e-11 6.8656e-11
-1.21058e-13 7.78667e-13 -6.0349e-14
2.92932e-10 -3.7577e-10 1.45904e-10
1.29547e-10 5.60569e-11 3.49864e-11
-7.96919e-11 -4.12281e-10 3.16395e-10
1.39004e-09 -1.24282e-09 5.93476e-10
-8.80945e-14 2.28866e-12 -5.101e-13
8.60482e-11 -1.0026e-10 1.78354e-10
3.01608e-11 1.91598e-10 -7.96119e-11
5.15943e-11 9.5026e-11 -5.37255e-11
-3.96756e-10 3.22063e-10 -9.69828e-11
2.8396e-11 2.24478e-10 -1.25981e-10
-8.23513e-13 -1.81386e-12 7.905e-13
-6.41321e-11 5.73492e-11 -6.363e-11
-8.96148e-13 -6.21728e-13 6.14141e-13
-1.31152e-10 1.342e-11 -4.79314e-11
1.93722e-10 -1.81187e-10 3.38603e-11
1.19702e-10 -3.52568e-11 2.53769e-11
-1.58085e-12 -1.73752e-12 6.93736e-13
-9.42481e-11 -8.03713e-11 -1.01399e-10
4.59952e-11 3.87861e-11 -3.49198e-11
8.58444e-11 5.44895e-11 3.57427e-12
7.15672e-11 2.66617e-10 6.90741e-10
-7.19745e-12 5.65214e-11 4.71928e-12
1.42681e-10 2.46004e-11 -9.51855e-12
2.93095e-11 5.86943e-11 -6.36112e-11
-8.04228e-13 2.66956e-12 -6.50381e-13
5.01235e-11 3.10937e-11 -3.13575e-11
6.81243e-11 2.99927e-10 -1.69988e-10
-1.07342e-12 -1.41079e-12 4.21893e-13
1.95125e-10 1.26325e-10 -1.14476e-10
7.09988e-10 -4.31889e-10 2.58743e-10
1.14899e-09 -6.13846e-10 5.51567e-10
1.54638e-10 4.0006e-10 -1.56473e-10
1.2814e-10 -1.19257e-10 4.42958e-11
-4.99286e-11 3.03474e-10 1.83842e-10
4.44609e-11 1.54348e-10 -4.43434e-11
-2.6204e-10 -2.18552e-10 -9.89641e-11
-5.7546e-11 -1.2207e-10 -2.38738e-10
1.47727e-10 2.25562e-10 -4.26211e-11
-7.2415e-11 -2.25123e-10 -8.06039e-11
-6.09695e-10 5.46006e-10 -2.571e-10
-9.5206e-11 6.78794e-11 -6.48258e-11
7.26501e-11 2.75528e-10 -1.31373e-10
-2.01047e-10 -1.66247e-10 1.38544e-10
2.70358e-10 -1.1963e-10 5.25668e-11
1.79703e-10 3.62419e-12 -3.09957e-11
4.43635e-10 -2.99099e-11 4.99355e-11
-5.55716e-12 6.40611e-11 -5.62185e-11
1.9322e-10 1.09603e-10 6.5197e-11
2.72702e-10 3.69386e-10 -2.29597e-10
1.36736e-10 2.03129e-10 -5.86249e-11
-1.94484e-10 -3.04297e-10 -3.07765e-10
-5.97508e-11 -5.53991e-11 -8.43259e-11
7.37921e-14 4.65913e-13 -2.29102e-13
-2.12815e-11 -2.75113e-10 7.41627e-11
1.33266e-09 -3.37624e-10 1.57926e-10
-1.5365e-10 1.25939e-10 -3.93405e-11
-1.17513e-10 -2.72228e-10 2.28585e-10
-8.80954e-11 -6.39352e-10 2.26772e-10
-1.53573e-12 7.14927e-12 -1.08467e-11
1.32129e-10 -2.36575e-10 1.19713e-10
1.63065e-09 1.76897e-10 2.38961e-10
-3.07964e-11 2.3628e-12 -6.36843e-14
9.78013e-11 2.00971e-11 -1.09682e-11
-1.29289e-10 2.86774e-11 -9.47429e-11
7.80002e-11 4.31822e-12 1.93779e-11
4.84642e-11 -6.22197e-11 5.72232e-11
9.74696e-11 1.47235e-11 -1.7734e-11
4.27626e-10 -2.17312e-11 1.98546e-11
3.03437e-10 3.11829e-11 -5.62991e-11
1.46477e-10 1.14314e-10 -5.29114e-11
2.12897e-10 -1.29119e-10 4.14485e-11
1.27815e-09 3.92959e-10 8.40491e-11
2.58482e-10 -9.09509e-11 7.39991e-11
-1.9123e-09 2.19561e-09 -1.08978e-09
1.63464e-10 3.2032e-11 -1.0553e-10
3.04938e-10 7.09194e-11 -3.97493e-11
-3.29425e-10 2.5778e-10 -8.59449e-11
7.42578e-11 -1.85283e-10 1.19636e-10
7.38594e-10 -7.59214e-10 3.46983e-10
6.16601e-11 2.2134e-10 8.28602e-12
1.03189e-10 5.19132e-11 -4.7583e-11
-7.03643e-10 -2.57176e-10 1.83129e-10
6.47153e-10 -5.40169e-10 1.79677e-10
4.7938e-10 2.98769e-12 -5.09914e-11
-5.70747e-12 1.86351e-10 -1.42317e-10
1.84798e-10 5.07359e-11 2.86444e-11
1.09283e-11 2.81542e-10 -3.56468e-11
-4.18643e-11 1.59997e-10 5.88152e-11
-4.23098e-10 -1.75987e-10 5.00586e-11
-5.77893e-11 -2.25348e-10 6.53338e-11
2.71633e-10 2.37259e-10 -2.54679e-10
5.15158e-12 -8.24486e-11 -6.64253e-11
-3.198e-11 2.27254e-10 1.75661e-10
-7.18132e-11 -1.42522e-11 -2.51596e-11
1.94724e-10 -1.65029e-10 6.93145e-11
6.01434e-13 8.26056e-11 6.10539e-11
-3.81276e-10 2.16534e-10 -1.79376e-10
3.13014e-10 -8.78153e-11 1.49186e-11
-1.79838e-10 -4.98474e-11 1.39355e-10
1.93766e-10 -2.13557e-10 -1.46375e-10
-4.44991e-11 2.04239e-11 4.51252e-10
1.60557e-10 -9.73601e-11 3.79404e-11
-4.90279e-11 -8.78401e-11 -4.22838e-11
-1.19147e-10 1.20175e-10 -3.89258e-10
9.42882e-13 3.78906e-14 3.03351e-13
8.92893e-11 -2.20623e-12 -1.60259e-12
-7.79095e-12 -6.85533e-11 3.67721e-11
6.17542e-11 -9.8892e-11 -1.84113e-10
8.49848e-10 8.86529e-11 -5.88188e-11
-4.02449e-10 -9.90865e-11 -1.56264e-10
7.30191e-11 -1.0589e-10 2.28256e-11
3.99436e-10 -1.55384e-10 1.00826e-10
2.2211e-11 7.14593e-12 4.41858e-10
4.47287e-10 -1.09221e-10 -4.99397e-11
3.32552e-10 -2.17127e-10 2.28221e-12
-6.56165e-11 -2.51153e-10 9.50376e-11
1.13986e-12 -2.14861e-13 -2.82195e-13
1.65643e-10 3.01162e-11 1.63182e-11
2.44097e-10 -7.37136e-11 3.852e-11
1.95466e-10 -2.52547e-12 -7.96603e-12
-3.80565e-10 3.07939e-11 -1.20689e-11
6.26048e-11 -2.81024e-10 7.25036e-11
2.29931e-10 2.15564e-10 -2.70829e-10
-8.34669e-13 -2.90177e-12 8.5358e-13
-4.5873e-10 -1.33271e-10 -4.08095e-11
2.65518e-10 -1.06355e-10 3.67848e-11
-1.03606e-10 -2.86223e-10 9.59851e-11
4.38234e-11 2.38246e-10 1.02436e-10
1.97708e-12 -3.26476e-10 8.30857e-11
-1.72575e-10 -1.2142e-10 7.6013e-13
2.80779e-10 1.65645e-10 -2.04918e-10
2.31208e-10 -2.69299e-12 -9.37751e-12
2.9742e-10 2.3522e-10 -2.55455e-10
-4.61196e-10 2.89994e-10 -3.90423e-10
-1.03e-10 5.66542e-11 4.64484e-11
4.07412e-11 -3.36895e-10 9.5206e-11
8.45235e-11 1.20675e-11 -2.84016e-12
-2.56443e-10 -3.64165e-10 1.12671e-10
-1.25914e-10 -9.13024e-11 2.80248e-11
1.57134e-10 -1.37613e-10 3.70598e-11
1.74421e-12 -8.25988e-11 1.73589e-11
7.38861e-11 4.27051e-11 -1.006e-10
-8.47449e-12 -9.6999e-11 3.38315e-11
1.2792e-10 -6.60759e-11 6.60271e-12
3.74471e-10 8.40738e-11 -3.96444e-11
9.13842e-12 -6.69031e-11 -1.43463e-10
2.31469e-10 -2.18004e-12 5.04619e-12
-1.65376e-10 3.32696e-10 -3.45717e-11
4.27996e-13 7.10102e-13 -2.73231e-13
-1.76055e-11 -3.72843e-11 -5.48845e-11
1.55781e-10 -8.97519e-11 -2.01241e-11
2.29665e-10 -6.75915e-10 1.75061e-10
6.12716e-11 -3.95494e-10 2.34869e-10
-1.15468e-10 9.96323e-11 -3.76636e-11
1.82869e-10 1.4177e-10 1.13364e-10
-8.00054e-11 8.33678e-11 -6.60622e-11
9.22363e-11 1.04699e-11 1.34116e-11
7.94972e-11 1.80376e-10 -1.88422e-10
-5.97433e-11 -1.23263e-10 -1.62127e-10
-1.17581e-11 4.12452e-11 -4.21258e-11
2.57252e-12 2.93462e-12 -8.97347e-13
-1.07725e-10 -9.97099e-11 3.21576e-11
1.67485e-12 -5.13831e-11 7.77973e-11
2.93292e-10 -2.30106e-10 4.96518e-11
-3.31814e-11 5.19872e-11 1.06561e-12
3.69654e-10 -4.91242e-10 1.22662e-10
-1.91749e-10 -6.97227e-10 2.19759e-10
5.32464e-11 -2.88799e-10 2.74589e-10
-1.01591e-09 -9.74187e-11 1.26574e-09
4.54511e-10 -1.06257e-09 5.24391e-10
1.26703e-09 -3.17397e-11 -1.22341e-09
3.3591e-11 -4.67931e-11 -7.81524e-11
-1.82776e-10 -6.50651e-10 2.51126e-10
-5.57991e-11 -3.683e-10 1.09009e-10
6.27467e-11 3.9499e-11 -1.45668e-11
-2.90298e-11 -3.82328e-10 1.13922e-10
1.55013e-10 -2.84536e-10 8.09054e-11
-1.70393e-11 5.05052e-11 -3.55251e-11
-3.52018e-11 -7.50208e-12 -2.82342e-11
-3.80055e-10 2.0876e-10 -4.45777e-11
5.04893e-12 -1.36776e-11 1.05258e-11
-2.6915e-10 3.43159e-10 -4.74432e-10
-2.58002e-10 3.62202e-11 -5.61318e-11
-9.45676e-11 -6.97636e-10 2.0768e-10
-2.36928e-10 3.28902e-10 -4.42146e-10
1.66768e-10 -9.20822e-11 3.68248e-11
-4.47707e-11 -3.32224e-11 3.7117e-11
1.81323e-10 -2.97894e-11 3.8861e-12
3.19773e-10 8.51796e-11 -4.17016e-11
1.49557e-10 -1.68034e-11 -2.65332e-12
9.35474e-11 -7.27325e-10 2.01469e-10
-4.27154e-11 8.04258e-11 -1.93755e-11
-3.11396e-10 -5.54259e-10 1.83088e-10
1.9417e-10 -7.69908e-11 1.42694e-11
-5.21766e-10 3.43377e-10 -1.52138e-10
3.93106e-10 6.32615e-10 4.15049e-10
3.08675e-10 -1.47861e-10 2.92755e-11
1.38842e-12 -3.18929e-11 -1.92629e-12
-1.76504e-10 -9.09149e-11 -1.05349e-11
-6.05488e-11 -5.0284e-10 1.33231e-10
2.87832e-11 2.43319e-11 1.22923e-10
2.31759e-11 7.59996e-11 -1.21804e-10
3.2208e-10 1.46339e-10 -5.46875e-11
-1.0912e-10 -5.75751e-10 1.61354e-10
-1.74523e-11 -3.06238e-10 8.61443e-11
-3.40553e-09 2.95108e-09 -5.01688e-10
1.79293e-09 -2.24221e-09 9.4426e-10
2.27355e-10 -1.43683e-10 2.57857e-11
3.24806e-10 -1.80715e-10 3.82189e-11
5.44014e-11 2.69241e-11 -1.09569e-11
1.43355e-09 1.36304e-09 8.12595e-11
-1.73341e-10 -5.57726e-11 2.32647e-11
1.43333e-11 -1.87269e-11 2.84296e-11
1.37341e-11 6.3059e-11 -9.24775e-12
2.26511e-10 -1.43306e-10 1.16737e-10
1.92931e-11 4.20697e-11 -2.96557e-12
-3.73059e-11 -6.66039e-11 3.28924e-12
-1.45766e-10 -5.47251e-10 1.66121e-10
3.25431e-11 3.12358e-10 2.57464e-10
2.75981e-10 -4.49097e-10 1.19739e-10
1.28751e-10 -3.99039e-10 2.38045e-10
1.90966e-10 4.25942e-10 -1.66084e-10
-6.33363e-11 -3.00749e-11 2.9053e-11
4.78066e-10 -3.50766e-10 6.37186e-11
7.76918e-11 -6.4787e-11 1.27389e-10
7.1649e-10 -3.65378e-10 1.80532e-10
1.16507e-09 -1.25908e-10 -7.26437e-11
7.7119e-11 -2.08573e-11 2.47907e-11
1.14562e-10 -8.73403e-10 1.24766e-09
5.66217e-10 -3.12132e-10 1.44597e-10
1.4311e-10 -1.37508e-10 3.08487e-11
2.05854e-10 3.61175e-11 -4.60295e-11
4.84653e-10 -2.03378e-10 4.58919e-10
