# vtk DataFile Version 3.0
LIGGGHTS particles timestep 77800000
ASCII
DATASET POLYDATA
POINTS 277 float
0.369699 0.0173392 0.00740876
0.369857 0.0180015 0.00705797
0.369615 0.0174626 0.00721844
0.369597 0.0173851 0.0072791
0.369112 0.0155545 0.00858342
0.375401 0.0165091 0.00766258
0.369091 0.0154751 0.00864023
0.375636 0.0175618 0.00718635
0.369931 0.0185443 0.00694456
0.369489 0.0166107 0.00782662
0.375597 0.0173711 0.00723241
0.369855 0.0186097 0.00693931
0.363771 0.0181051 0.0070407
0.369909 0.0184469 0.00695132
0.363591 0.0172649 0.00747459
0.375752 0.0181197 0.00703254
0.369693 0.0177045 0.00714814
0.369748 0.0172755 0.00734996
0.369134 0.0156339 0.00852661
0.369653 0.0176228 0.007105
0.375557 0.0171806 0.00727843
0.36992 0.0175664 0.00714067
0.375498 0.0169024 0.00737196
0.363675 0.0169008 0.00761537
0.369802 0.0177401 0.00712863
0.375382 0.0164422 0.00773469
0.369779 0.0178292 0.00708933
0.370102 0.018182 0.00697168
0.375419 0.0165786 0.00759317
0.369687 0.0177918 0.00709644
0.369888 0.0183492 0.00695811
0.375724 0.0178349 0.00711121
0.369936 0.0178261 0.00699572
0.369564 0.0165559 0.0078647
0.369939 0.0176461 0.00708362
0.370115 0.0180339 0.00698233
0.369766 0.0177313 0.00702521
0.369654 0.0172493 0.00736984
0.375439 0.0166594 0.00753779
0.375518 0.0169933 0.00733515
0.369285 0.0161895 0.00812909
0.36973 0.0171955 0.00740716
0.375479 0.0168214 0.00742727
0.369809 0.0175194 0.00717551
0.36368 0.0177647 0.00705644
0.363727 0.0175533 0.00719285
0.369941 0.0181136 0.00697529
0.375459 0.0167404 0.00748254
0.363534 0.0167278 0.00772312
0.375577 0.0172758 0.00725543
0.369963 0.0182839 0.00696335
0.369156 0.0157133 0.0084698
0.369607 0.0167148 0.00775101
0.369709 0.0174895 0.0071981
0.375537 0.0170854 0.0073014
0.369329 0.01635 0.00801799
0.363821 0.0184513 0.00696525
0.369812 0.0184146 0.00695286
0.363695 0.0169831 0.00756238
0.369692 0.0170357 0.00752144
0.375811 0.0184032 0.00695405
0.363612 0.0166523 0.00777134
0.375617 0.0174664 0.0072094
0.369446 0.0164516 0.00794046
0.369415 0.0166658 0.00778829
0.36991 0.0178307 0.00709218
0.375732 0.0180252 0.0070587
0.369688 0.0177871 0.00699656
0.363232 0.015935 0.00821045
0.392848 0.0240513 6.33589e-05
0.369998 0.0179048 0.0069906
0.363781 0.0182557 0.00695832
0.363924 0.0175793 0.00717445
0.363253 0.0160182 0.00815917
0.375675 0.017751 0.00713462
0.363513 0.0166446 0.00777442
0.369748 0.0176492 0.00708385
0.375656 0.0176565 0.00716079
0.369632 0.0167967 0.00769235
0.369785 0.0174364 0.00723491
0.369511 0.0166901 0.00776979
0.369307 0.0162689 0.0080723
0.369861 0.0173272 0.00731176
0.369635 0.0171691 0.00742718
0.369577 0.0169294 0.0075986
0.369801 0.0178503 0.00699295
0.370025 0.0177774 0.00699988
0.369844 0.0176797 0.00706094
0.363983 0.0178258 0.00701446
0.369773 0.0182189 0.00696649
0.363885 0.0178066 0.00702769
0.369828 0.0175993 0.00711835
0.370094 0.0179346 0.00698923
0.363735 0.0171474 0.00745531
0.363745 0.0176357 0.00713935
0.369735 0.0174992 0.00729432
0.363189 0.0157688 0.00831303
0.37002 0.0180019 0.00698386
0.369632 0.0175523 0.00726076
0.369672 0.0177043 0.00705034
0.369264 0.0161131 0.00819003
0.369803 0.01795 0.00698586
0.363556 0.0168109 0.00767184
0.369541 0.017143 0.00744696
0.369578 0.0173028 0.00733267
0.369468 0.0165313 0.00788343
0.363843 0.0185489 0.00696872
0.375363 0.0163754 0.0078065
0.369879 0.0174071 0.00725459
0.369824 0.0171673 0.00742607
0.369459 0.0168251 0.00767532
0.363717 0.0179296 0.00694951
0.369735 0.0180232 0.00698012
0.370003 0.0181922 0.00697018
0.369586 0.0166354 0.00780781
0.363274 0.0161013 0.00810788
0.369834 0.0185123 0.00694608
0.363339 0.0163507 0.00795403
0.369221 0.0159515 0.00829937
0.363858 0.0181559 0.0070554
0.369638 0.0174688 0.00731557
0.369711 0.0171156 0.00746432
0.369767 0.017356 0.00729241
0.369533 0.0167695 0.00771298
0.363814 0.0179368 0.00706311
0.369604 0.017251 0.0074751
0.36948 0.016904 0.00761787
0.369653 0.0168762 0.0076355
0.369849 0.0181533 0.00697175
0.363802 0.0179799 0.00696887
0.369242 0.0160309 0.00824256
0.369949 0.0179283 0.00707447
0.369616 0.0170891 0.00748436
0.369394 0.0165864 0.0078451
0.36321 0.0158519 0.00826174
0.369844 0.0179034 0.00707147
0.369842 0.0172472 0.00736894
0.369424 0.0163722 0.00799729
0.363652 0.0172236 0.0074067
0.369726 0.017958 0.00705543
0.363537 0.0170197 0.00763584
0.363491 0.0165615 0.00782571
0.3638 0.0183538 0.00696179
0.369729 0.0175691 0.00714111
0.363969 0.0182805 0.00696077
0.369868 0.0182514 0.00696492
0.363826 0.01756 0.0071883
0.369555 0.0168498 0.00765554
0.363943 0.0185477 0.00696953
0.369501 0.0169835 0.00756102
0.363643 0.0175996 0.00716354
0.369673 0.0169559 0.00757851
0.364096 0.0179758 0.00695161
0.369943 0.0177349 0.00703765
0.363953 0.018228 0.00704444
0.363911 0.0179588 0.00704668
0.369829 0.0180554 0.00697857
0.363686 0.017795 0.00715158
0.369691 0.0174094 0.00725531
0.363808 0.0174774 0.0072413
0.363549 0.0171846 0.00743277
0.363574 0.0171804 0.00752943
0.363965 0.0186453 0.006973
0.36377 0.0173127 0.00734841
0.363575 0.0168943 0.00762035
0.369704 0.0178868 0.00712222
0.363725 0.0179835 0.00703338
0.369922 0.0181959 0.00702878
0.363762 0.0181576 0.00695486
0.369856 0.0177666 0.00699991
0.363424 0.0166833 0.00774888
0.363635 0.017141 0.0074603
0.375712 0.0179307 0.00708487
0.369582 0.017336 0.0074269
0.369544 0.0171664 0.00754412
0.369776 0.0176582 0.00717994
0.364025 0.0179021 0.00696481
0.369793 0.0183168 0.00695968
0.369199 0.0158721 0.00835618
0.363687 0.0176258 0.00724921
0.363946 0.0180827 0.00695392
0.369756 0.0175783 0.00723693
0.363661 0.0176821 0.00711007
0.363839 0.0180319 0.00704569
0.363296 0.0161845 0.0080566
0.363962 0.0177439 0.00706766
0.3639 0.0183526 0.0069626
0.369985 0.0183813 0.00695658
0.363668 0.0175435 0.00730273
0.363381 0.016517 0.00785145
0.363671 0.0173061 0.00735323
0.363715 0.0170651 0.00750871
0.363921 0.0184502 0.00696607
0.369772 0.0180723 0.00705877
0.36935 0.0164276 0.00795871
0.375791 0.0183087 0.00698021
0.369437 0.0167452 0.00773148
0.36336 0.0164339 0.00790274
0.369372 0.016507 0.0079019
0.370106 0.0178356 0.00699637
0.369754 0.018121 0.00697331
0.363529 0.0171062 0.00758636
0.37004 0.0180997 0.00697705
0.363634 0.0167355 0.00772003
0.363317 0.0162676 0.00800531
0.375771 0.0182142 0.00700638
0.36353 0.0171018 0.00748646
0.363864 0.0177246 0.00708094
0.363596 0.0169765 0.00756717
0.363568 0.0172699 0.00737741
0.3639 0.0179824 0.00695015
0.363403 0.0166001 0.00780017
0.363999 0.0179976 0.00695151
0.369597 0.0170093 0.00754144
0.369673 0.0173292 0.0073127
0.364038 0.0185777 0.00697136
0.363446 0.0167687 0.00769621
0.363847 0.0180674 0.00695256
0.363616 0.0170586 0.00751372
0.357587 0.0173789 0.00742001
0.363708 0.0174709 0.00724629
0.363489 0.0169366 0.0075926
0.357573 0.0173111 0.00749219
0.357603 0.0174467 0.00734816
0.363966 0.0181806 0.00695738
0.357636 0.0175783 0.00720136
0.369901 0.0174865 0.0071978
0.369522 0.0170631 0.00750404
0.364041 0.0181143 0.00695579
0.369177 0.0157927 0.00841299
0.215741 0.019982 0.00563384
0.35762 0.0175142 0.00727631
0.364017 0.0184801 0.00696789
0.363845 0.0176422 0.00713438
0.363655 0.0168186 0.0076687
0.363914 0.0178869 0.00697597
0.363943 0.0176616 0.00712102
0.363689 0.0173885 0.00729977
0.363624 0.0175172 0.007217
0.369898 0.0179187 0.00698883
0.363861 0.0181664 0.00695601
0.363886 0.0178772 0.00709856
0.357669 0.0177061 0.00705118
0.363743 0.0174034 0.00738281
0.363512 0.0169293 0.00768961
0.369542 0.0164765 0.00792151
0.363849 0.0183368 0.00704722
0.363742 0.0178718 0.00708957
0.363771 0.018205 0.00704402
0.363764 0.0177182 0.00708596
0.363865 0.0186464 0.00697219
0.363666 0.0177129 0.00720509
0.363587 0.0173524 0.00732394
0.363742 0.0180595 0.00695645
0.363995 0.0183826 0.00696442
0.363586 0.0173573 0.00742381
0.369673 0.0176237 0.00720361
0.404182 0.0211142 0.0056569
0.357707 0.0178913 0.00701163
0.363699 0.0178471 0.00700298
0.357688 0.0177933 0.00700581
0.357652 0.0176414 0.00712545
0.36379 0.0173948 0.00729484
0.363468 0.0168518 0.00764492
0.363606 0.0174348 0.00727047
0.369921 0.0180158 0.0069821
0.363818 0.0178014 0.00712601
0.363783 0.0178005 0.00703248
0.363639 0.0174457 0.00736423
0.363875 0.0182595 0.00698967
0.369707 0.0178849 0.00698975
0.363509 0.0170197 0.00753978
0.363753 0.0172299 0.00740181
0.369717 0.0174192 0.00735151
0.36956 0.0172228 0.00738985
0.363811 0.017881 0.00698017
0.369633 0.0175426 0.00716124

VERTICES 277 554
1 0
1 1
1 2
1 3
1 4
1 5
1 6
1 7
1 8
1 9
1 10
1 11
1 12
1 13
1 14
1 15
1 16
1 17
1 18
1 19
1 20
1 21
1 22
1 23
1 24
1 25
1 26
1 27
1 28
1 29
1 30
1 31
1 32
1 33
1 34
1 35
1 36
1 37
1 38
1 39
1 40
1 41
1 42
1 43
1 44
1 45
1 46
1 47
1 48
1 49
1 50
1 51
1 52
1 53
1 54
1 55
1 56
1 57
1 58
1 59
1 60
1 61
1 62
1 63
1 64
1 65
1 66
1 67
1 68
1 69
1 70
1 71
1 72
1 73
1 74
1 75
1 76
1 77
1 78
1 79
1 80
1 81
1 82
1 83
1 84
1 85
1 86
1 87
1 88
1 89
1 90
1 91
1 92
1 93
1 94
1 95
1 96
1 97
1 98
1 99
1 100
1 101
1 102
1 103
1 104
1 105
1 106
1 107
1 108
1 109
1 110
1 111
1 112
1 113
1 114
1 115
1 116
1 117
1 118
1 119
1 120
1 121
1 122
1 123
1 124
1 125
1 126
1 127
1 128
1 129
1 130
1 131
1 132
1 133
1 134
1 135
1 136
1 137
1 138
1 139
1 140
1 141
1 142
1 143
1 144
1 145
1 146
1 147
1 148
1 149
1 150
1 151
1 152
1 153
1 154
1 155
1 156
1 157
1 158
1 159
1 160
1 161
1 162
1 163
1 164
1 165
1 166
1 167
1 168
1 169
1 170
1 171
1 172
1 173
1 174
1 175
1 176
1 177
1 178
1 179
1 180
1 181
1 182
1 183
1 184
1 185
1 186
1 187
1 188
1 189
1 190
1 191
1 192
1 193
1 194
1 195
1 196
1 197
1 198
1 199
1 200
1 201
1 202
1 203
1 204
1 205
1 206
1 207
1 208
1 209
1 210
1 211
1 212
1 213
1 214
1 215
1 216
1 217
1 218
1 219
1 220
1 221
1 222
1 223
1 224
1 225
1 226
1 227
1 228
1 229
1 230
1 231
1 232
1 233
1 234
1 235
1 236
1 237
1 238
1 239
1 240
1 241
1 242
1 243
1 244
1 245
1 246
1 247
1 248
1 249
1 250
1 251
1 252
1 253
1 254
1 255
1 256
1 257
1 258
1 259
1 260
1 261
1 262
1 263
1 264
1 265
1 266
1 267
1 268
1 269
1 270
1 271
1 272
1 273
1 274
1 275
1 276

POINT_DATA 277
SCALARS id int 1
LOOKUP_TABLE default
1
2
3
4
5
6
8
9
10
11
12
13
14
15
16
18
19
20
21
22
24
25
26
27
29
30
31
32
33
34
35
36
38
40
41
42
43
44
45
46
47
48
49
50
52
55
56
57
58
59
60
61
62
63
64
65
66
67
68
69
70
71
72
73
74
75
76
77
78
79
80
81
82
83
84
85
86
87
88
89
90
91
92
93
94
95
96
98
99
100
101
102
103
104
105
106
107
108
109
110
111
113
114
115
116
117
118
119
120
121
122
123
124
125
126
127
128
129
130
131
132
133
134
135
136
137
138
139
140
141
142
144
145
146
147
148
149
150
152
153
154
155
156
157
158
159
160
161
162
164
165
166
167
168
169
170
171
172
173
174
175
176
177
178
179
180
181
182
183
184
185
186
187
188
189
191
192
193
194
195
196
197
198
199
200
201
202
203
204
205
206
207
208
210
211
213
214
215
217
218
220
221
222
223
224
225
226
227
228
229
230
231
232
233
234
235
236
237
238
239
241
242
243
244
245
246
247
248
249
250
251
252
253
254
255
256
257
258
259
260
261
262
263
264
265
267
268
269
270
271
272
273
274
275
276
277
278
279
280
281
282
283
284
285
286
287
288
289
290
292
293
294
295
296
297
298
300

SCALARS type int 1
LOOKUP_TABLE default
1
1
1
1
1
1
1
1
1
1
1
1
1
1
1
1
1
1
1
1
1
1
1
1
1
1
1
1
1
1
1
1
1
1
1
1
1
1
1
1
1
1
1
1
1
1
1
1
1
1
1
1
1
1
1
1
1
1
1
1
1
1
1
1
1
1
1
1
1
1
1
1
1
1
1
1
1
1
1
1
1
1
1
1
1
1
1
1
1
1
1
1
1
1
1
1
1
1
1
1
1
1
1
1
1
1
1
1
1
1
1
1
1
1
1
1
1
1
1
1
1
1
1
1
1
1
1
1
1
1
1
1
1
1
1
1
1
1
1
1
1
1
1
1
1
1
1
1
1
1
1
1
1
1
1
1
1
1
1
1
1
1
1
1
1
1
1
1
1
1
1
1
1
1
1
1
1
1
1
1
1
1
1
1
1
1
1
1
1
1
1
1
1
1
1
1
1
1
1
1
1
1
1
1
1
1
1
1
1
1
1
1
1
1
1
1
1
1
1
1
1
1
1
1
1
1
1
1
1
1
1
1
1
1
1
1
1
1
1
1
1
1
1
1
1
1
1
1
1
1
1
1
1
1
1
1
1
1
1
1
1
1
1
1
1
1
1
1
1
1
1
1
1
1
1
1
1

SCALARS radius float 1
LOOKUP_TABLE default
5e-05
5e-05
5e-05
5e-05
5e-05
5e-05
5e-05
5e-05
5e-05
5e-05
5e-05
5e-05
5e-05
5e-05
5e-05
5e-05
5e-05
5e-05
5e-05
5e-05
5e-05
5e-05
5e-05
5e-05
5e-05
5e-05
5e-05
5e-05
5e-05
5e-05
5e-05
5e-05
5e-05
5e-05
5e-05
5e-05
5e-05
5e-05
5e-05
5e-05
5e-05
5e-05
5e-05
5e-05
5e-05
5e-05
5e-05
5e-05
5e-05
5e-05
5e-05
5e-05
5e-05
5e-05
5e-05
5e-05
5e-05
5e-05
5e-05
5e-05
5e-05
5e-05
5e-05
5e-05
5e-05
5e-05
5e-05
5e-05
5e-05
5e-05
5e-05
5e-05
5e-05
5e-05
5e-05
5e-05
5e-05
5e-05
5e-05
5e-05
5e-05
5e-05
5e-05
5e-05
5e-05
5e-05
5e-05
5e-05
5e-05
5e-05
5e-05
5e-05
5e-05
5e-05
5e-05
5e-05
5e-05
5e-05
5e-05
5e-05
5e-05
5e-05
5e-05
5e-05
5e-05
5e-05
5e-05
5e-05
5e-05
5e-05
5e-05
5e-05
5e-05
5e-05
5e-05
5e-05
5e-05
5e-05
5e-05
5e-05
5e-05
5e-05
5e-05
5e-05
5e-05
5e-05
5e-05
5e-05
5e-05
5e-05
5e-05
5e-05
5e-05
5e-05
5e-05
5e-05
5e-05
5e-05
5e-05
5e-05
5e-05
5e-05
5e-05
5e-05
5e-05
5e-05
5e-05
5e-05
5e-05
5e-05
5e-05
5e-05
5e-05
5e-05
5e-05
5e-05
5e-05
5e-05
5e-05
5e-05
5e-05
5e-05
5e-05
5e-05
5e-05
5e-05
5e-05
5e-05
5e-05
5e-05
5e-05
5e-05
5e-05
5e-05
5e-05
5e-05
5e-05
5e-05
5e-05
5e-05
5e-05
5e-05
5e-05
5e-05
5e-05
5e-05
5e-05
5e-05
5e-05
5e-05
5e-05
5e-05
5e-05
5e-05
5e-05
5e-05
5e-05
5e-05
5e-05
5e-05
5e-05
5e-05
5e-05
5e-05
5e-05
5e-05
5e-05
5e-05
5e-05
5e-05
5e-05
5e-05
5e-05
5e-05
5e-05
5e-05
5e-05
5e-05
5e-05
5e-05
5e-05
5e-05
5e-05
5e-05
5e-05
5e-05
5e-05
5e-05
5e-05
5e-05
5e-05
5e-05
5e-05
5e-05
5e-05
5e-05
5e-05
5e-05
5e-05
5e-05
5e-05
5e-05
5e-05
5e-05
5e-05
5e-05
5e-05
5e-05
5e-05
5e-05
5e-05
5e-05
5e-05
5e-05
5e-05
5e-05
5e-05
5e-05
5e-05
5e-05
5e-05
5e-05
5e-05
5e-05
5e-05
5e-05
5e-05
5e-05
5e-05
5e-05
5e-05
5e-05
5e-05
5e-05
5e-05
5e-05
5e-05

SCALARS mass float 1
LOOKUP_TABLE default
1.46608e-10
1.46608e-10
1.46608e-10
1.46608e-10
1.46608e-10
1.46608e-10
1.46608e-10
1.46608e-10
1.46608e-10
1.46608e-10
1.46608e-10
1.46608e-10
1.46608e-10
1.46608e-10
1.46608e-10
1.46608e-10
1.46608e-10
1.46608e-10
1.46608e-10
1.46608e-10
1.46608e-10
1.46608e-10
1.46608e-10
1.46608e-10
1.46608e-10
1.46608e-10
1.46608e-10
1.46608e-10
1.46608e-10
1.46608e-10
1.46608e-10
1.46608e-10
1.46608e-10
1.46608e-10
1.46608e-10
1.46608e-10
1.46608e-10
1.46608e-10
1.46608e-10
1.46608e-10
1.46608e-10
1.46608e-10
1.46608e-10
1.46608e-10
1.46608e-10
1.46608e-10
1.46608e-10
1.46608e-10
1.46608e-10
1.46608e-10
1.46608e-10
1.46608e-10
1.46608e-10
1.46608e-10
1.46608e-10
1.46608e-10
1.46608e-10
1.46608e-10
1.46608e-10
1.46608e-10
1.46608e-10
1.46608e-10
1.46608e-10
1.46608e-10
1.46608e-10
1.46608e-10
1.46608e-10
1.46608e-10
1.46608e-10
1.46608e-10
1.46608e-10
1.46608e-10
1.46608e-10
1.46608e-10
1.46608e-10
1.46608e-10
1.46608e-10
1.46608e-10
1.46608e-10
1.46608e-10
1.46608e-10
1.46608e-10
1.46608e-10
1.46608e-10
1.46608e-10
1.46608e-10
1.46608e-10
1.46608e-10
1.46608e-10
1.46608e-10
1.46608e-10
1.46608e-10
1.46608e-10
1.46608e-10
1.46608e-10
1.46608e-10
1.46608e-10
1.46608e-10
1.46608e-10
1.46608e-10
1.46608e-10
1.46608e-10
1.46608e-10
1.46608e-10
1.46608e-10
1.46608e-10
1.46608e-10
1.46608e-10
1.46608e-10
1.46608e-10
1.46608e-10
1.46608e-10
1.46608e-10
1.46608e-10
1.46608e-10
1.46608e-10
1.46608e-10
1.46608e-10
1.46608e-10
1.46608e-10
1.46608e-10
1.46608e-10
1.46608e-10
1.46608e-10
1.46608e-10
1.46608e-10
1.46608e-10
1.46608e-10
1.46608e-10
1.46608e-10
1.46608e-10
1.46608e-10
1.46608e-10
1.46608e-10
1.46608e-10
1.46608e-10
1.46608e-10
1.46608e-10
1.46608e-10
1.46608e-10
1.46608e-10
1.46608e-10
1.46608e-10
1.46608e-10
1.46608e-10
1.46608e-10
1.46608e-10
1.46608e-10
1.46608e-10
1.46608e-10
1.46608e-10
1.46608e-10
1.46608e-10
1.46608e-10
1.46608e-10
1.46608e-10
1.46608e-10
1.46608e-10
1.46608e-10
1.46608e-10
1.46608e-10
1.46608e-10
1.46608e-10
1.46608e-10
1.46608e-10
1.46608e-10
1.46608e-10
1.46608e-10
1.46608e-10
1.46608e-10
1.46608e-10
1.46608e-10
1.46608e-10
1.46608e-10
1.46608e-10
1.46608e-10
1.46608e-10
1.46608e-10
1.46608e-10
1.46608e-10
1.46608e-10
1.46608e-10
1.46608e-10
1.46608e-10
1.46608e-10
1.46608e-10
1.46608e-10
1.46608e-10
1.46608e-10
1.46608e-10
1.46608e-10
1.46608e-10
1.46608e-10
1.46608e-10
1.46608e-10
1.46608e-10
1.46608e-10
1.46608e-10
1.46608e-10
1.46608e-10
1.46608e-10
1.46608e-10
1.46608e-10
1.46608e-10
1.46608e-10
1.46608e-10
1.46608e-10
1.46608e-10
1.46608e-10
1.46608e-10
1.46608e-10
1.46608e-10
1.46608e-10
1.46608e-10
1.46608e-10
1.46608e-10
1.46608e-10
1.46608e-10
1.46608e-10
1.46608e-10
1.46608e-10
1.46608e-10
1.46608e-10
1.46608e-10
1.46608e-10
1.46608e-10
1.46608e-10
1.46608e-10
1.46608e-10
1.46608e-10
1.46608e-10
1.46608e-10
1.46608e-10
1.46608e-10
1.46608e-10
1.46608e-10
1.46608e-10
1.46608e-10
1.46608e-10
1.46608e-10
1.46608e-10
1.46608e-10
1.46608e-10
1.46608e-10
1.46608e-10
1.46608e-10
1.46608e-10
1.46608e-10
1.46608e-10
1.46608e-10
1.46608e-10
1.46608e-10
1.46608e-10
1.46608e-10
1.46608e-10
1.46608e-10
1.46608e-10
1.46608e-10
1.46608e-10
1.46608e-10
1.46608e-10
1.46608e-10
1.46608e-10
1.46608e-10
1.46608e-10
1.46608e-10
1.46608e-10
1.46608e-10
1.46608e-10
1.46608e-10
1.46608e-10
1.46608e-10
1.46608e-10
1.46608e-10
1.46608e-10
1.46608e-10
1.46608e-10

VECTORS velocity float
0.00425289 -0.000141387 2.97149e-05
0.00443298 -7.47343e-05 4.41112e-05
0.00429813 -0.00010132 1.76886e-05
0.0042669 -0.000104447 1.81318e-05
0.00475525 -0.000204973 8.5807e-05
0.00454297 0.000236595 0.000265446
0.00476433 -0.000207869 8.77757e-05
0.00432709 9.80872e-06 0.000140469
0.0047817 -0.000263984 5.59375e-05
0.00469718 -0.000102349 1.3487e-05
0.00431679 1.23387e-05 0.00013943
0.00476269 -0.000288144 5.78374e-05
0.00442607 -0.000114726 4.35725e-05
0.00475783 -0.000254448 5.53297e-05
0.00418127 4.21281e-06 -1.65908e-05
0.00438337 -3.26998e-05 -1.40617e-05
0.00439002 -0.000114246 4.10779e-05
0.00426908 -0.000111272 2.12306e-05
0.0047461 -0.000201622 8.35614e-05
0.00440203 -0.00011442 3.02216e-05
0.00444747 -9.21492e-06 0.000148778
0.00442169 -0.000116113 2.64739e-05
0.00414226 -5.10121e-05 -0.000158761
0.00441343 -0.000107587 -6.86818e-05
0.00438636 -0.000113301 4.73462e-05
0.00459335 0.000220022 0.000283027
0.00442597 -0.000101567 3.35026e-05
0.00469646 -0.000362732 6.32147e-05
0.00450272 -0.000102128 -9.95196e-05
0.00442694 -0.000113472 3.27328e-05
0.00476479 -0.000277694 5.67387e-05
0.00436725 -3.35246e-05 -1.38073e-05
0.004366 -0.00020118 4.52645e-05
0.00483969 2.86979e-05 -8.16322e-05
0.00437523 -0.000124874 3.42426e-05
0.00450499 -0.000316503 5.79126e-05
0.00439348 -0.000141525 5.56849e-05
0.00427107 -0.000123991 3.2389e-05
0.00455597 -0.000123232 -0.000124426
0.00431734 -3.16693e-05 -9.11053e-07
0.00468562 -0.000169524 6.13886e-05
0.00428995 -0.00012617 3.56123e-05
0.00443326 -0.000102835 -0.000144043
0.0043538 -0.00017318 6.74814e-05
0.00441558 -0.000135614 5.05933e-05
0.00435068 -7.68117e-05 1.51365e-05
0.0044151 -5.93615e-05 3.94416e-05
0.00457297 -0.000131814 -0.000131004
0.00436639 -7.06637e-05 0.000113165
0.00444893 -1.17968e-05 0.000149705
0.00479616 -0.000223369 5.34764e-05
0.00473713 -0.000197956 8.10659e-05
0.00490731 9.48532e-05 -0.000129546
0.00432393 -0.000124839 3.73622e-05
0.00445203 -7.25588e-06 0.000149595
0.00466969 -0.000164298 5.80155e-05
0.00477071 -0.000188712 3.32755e-05
0.00472066 -0.000337948 6.08317e-05
0.00443839 -9.47573e-05 -3.5549e-05
0.00427618 -0.000140764 4.60344e-05
0.00439308 -4.65148e-05 -1.06163e-05
0.00450367 -2.83584e-05 0.000102919
0.00431475 1.21639e-05 0.000139338
0.00465631 -0.000151486 4.9016e-05
0.00462319 -0.000172715 6.45436e-05
0.0044082 -0.000219583 6.00234e-05
0.00437466 -3.20967e-05 -1.4341e-05
0.00442336 -0.000128106 4.18992e-05
0.00482155 -1.93959e-05 9.44313e-05
1.64369e-18 5.93269e-20 -1.25496e-15
0.00438844 -0.000243869 5.06472e-05
0.00458179 -0.000146847 3.36969e-05
0.00432007 -8.8394e-05 2.24328e-05
0.00479603 -4.72421e-05 0.00011143
0.00436111 -3.44983e-05 -1.42107e-05
0.00452491 -0.000109668 0.000143865
0.00441524 -0.000124206 3.08597e-05
0.00435881 -3.72025e-05 -1.47365e-05
0.00454467 -0.000219482 9.88535e-05
0.00431736 -0.000128692 3.6755e-05
0.00471298 -7.94529e-05 -2.97548e-06
0.00467915 -0.00016647 5.94091e-05
0.00427414 -0.000100416 1.74793e-05
0.00427531 -0.000116364 2.77931e-05
0.00463251 -9.22736e-05 7.15913e-06
0.00446993 -0.000116312 4.30957e-05
0.00431085 -0.000157913 4.41896e-05
0.00439143 -0.000169234 7.80229e-05
0.00447103 -9.57774e-05 2.65294e-05
0.00440322 -0.000100693 4.15006e-05
0.00444653 -7.67283e-05 1.81685e-05
0.00440821 -0.000128694 3.45643e-05
0.00440169 -0.000304199 5.59908e-05
0.00436668 -6.17702e-05 4.79658e-06
0.00437892 -7.93858e-05 1.67164e-05
0.00430917 -0.000121094 6.60437e-05
0.00487287 3.97146e-05 5.88921e-05
0.00445281 -0.000266285 5.3689e-05
0.00437321 -0.000106447 2.33762e-05
0.00442157 -0.000120284 3.6808e-05
0.00469456 -0.000174497 6.4312e-05
0.00443306 -0.000120004 4.29996e-05
0.0043637 -5.79928e-05 9.78819e-05
0.00428762 -0.000125973 3.4377e-05
0.00425105 -0.000106276 2.09977e-05
0.00470797 -0.000102127 1.31958e-05
0.00477761 -0.000193187 3.34608e-05
0.00484622 0.000195315 0.00034002
0.00427843 -8.87563e-05 9.11833e-06
0.00430654 -0.000112903 2.5654e-05
0.00459873 -0.000177273 6.8049e-05
0.00448047 -0.000139949 5.46e-05
0.0044348 -0.000112754 4.19489e-05
0.00467415 -0.000256068 5.37569e-05
0.00490935 0.000102273 -0.000134901
0.00477494 -5.17581e-05 0.000113888
0.00475197 -0.00026654 5.58891e-05
0.00473849 1.25345e-05 7.30684e-05
0.00471088 -0.00018476 7.1962e-05
0.00440095 -9.75965e-05 3.40166e-05
0.00428072 -8.056e-05 1.57803e-05
0.00426743 -0.000129981 3.93746e-05
0.00426787 -0.000114967 3.07786e-05
0.00471058 -7.98798e-05 -2.70516e-06
0.00446641 -9.37943e-05 2.4138e-05
0.00430428 -0.000100851 1.64056e-05
0.00459498 -0.000178202 6.88278e-05
0.00450484 -0.000203249 8.77764e-05
0.00441198 -8.83294e-05 4.07781e-05
0.00446845 -9.79467e-05 3.07871e-05
0.00470208 -0.00017944 6.83349e-05
0.00442333 -0.000115488 2.99592e-05
0.00433137 -4.24475e-05 -2.52367e-05
0.00463435 -0.000169301 6.19678e-05
0.00486311 7.4447e-05 3.65394e-05
0.00441971 -7.92548e-05 4.64157e-05
0.00425416 -0.000101069 1.82147e-05
0.00466899 -0.000152554 4.96673e-05
0.0041738 -4.74526e-05 1.1814e-06
0.0044773 -0.000121982 3.85525e-05
0.00443607 -0.000114345 2.00367e-05
0.00450858 -0.000118402 0.000150333
0.00475878 -0.000183815 3.46544e-05
0.00438057 -0.000139014 4.55823e-05
0.00470448 -0.000129711 2.85706e-05
0.00439573 -7.7246e-05 4.10743e-05
0.00431984 -6.50988e-05 5.20171e-06
0.00458871 -0.000180182 7.01964e-05
0.00479819 -8.45574e-05 3.81567e-05
0.00454515 -0.000171215 6.45421e-05
0.00437016 -7.31076e-05 1.41851e-05
0.00436293 -0.000166667 6.33984e-05
0.00446307 -0.000136806 3.24405e-05
0.00433574 -0.000138773 4.5804e-05
0.00461046 -0.000111277 2.99137e-05
0.00448422 -8.26286e-05 2.91156e-05
0.00442841 -8.67121e-05 4.1217e-05
0.00442004 -8.74054e-05 3.95483e-05
0.00427607 -0.000114194 3.14386e-05
0.00427024 -5.58728e-05 1.85583e-06
0.00432218 -7.57344e-05 1.31379e-05
0.00428533 -2.92178e-05 3.50212e-05
0.0047489 -0.000111968 3.65343e-05
0.00425912 -5.07547e-05 1.78288e-06
0.00444767 -8.33907e-05 4.64589e-05
0.00445023 -0.000114311 3.0656e-05
0.00436116 0.000120073 -0.000104459
0.00438971 -7.00568e-05 4.64986e-05
0.00442572 -0.000111065 3.24123e-05
0.00436442 -0.000171545 3.69113e-05
0.00467725 0.000105166 1.43525e-05
0.00422271 -5.97692e-05 1.07792e-06
0.00437126 -3.26791e-05 -1.41207e-05
0.00423625 -0.000118143 2.03313e-05
0.00436993 -0.000102607 2.38914e-05
0.00440999 -9.45349e-05 6.28224e-06
0.00448693 -9.25452e-05 2.57288e-05
0.00438937 -9.0894e-05 4.0183e-05
0.00471943 -0.000189641 7.54138e-05
0.00437562 -8.75458e-05 2.26389e-05
0.00442307 -0.000115074 3.34413e-05
0.00436646 -0.000141729 5.43608e-05
0.00439322 -8.36204e-05 1.93769e-05
0.00445358 -8.98533e-05 3.13459e-05
0.00475937 -3.69649e-05 0.000104342
0.00441344 -9.1654e-05 2.32142e-05
0.00477595 -4.83939e-05 3.77178e-05
0.00477563 -0.000223445 5.29931e-05
0.00432344 -7.08759e-05 6.78095e-06
0.0047126 6.27323e-05 4.19403e-05
0.00421478 -5.41315e-05 1.70192e-06
0.00444009 -6.99112e-05 7.03556e-06
0.00479841 -6.18214e-05 3.90901e-05
0.00442494 -0.00010785 4.25423e-05
0.004657 -0.000164346 5.80769e-05
0.00439023 -4.28625e-05 -1.13448e-05
0.00461042 -0.000175856 6.69073e-05
0.00471515 3.58207e-05 5.84212e-05
0.00464552 -0.000165672 5.92107e-05
0.00438217 -0.000294229 5.50175e-05
0.0044167 -0.000108012 4.2386e-05
0.00446222 -0.000107826 2.99345e-05
0.00453366 -0.000288429 5.62127e-05
0.00438727 -6.39649e-06 8.45648e-05
0.00474951 -1.23186e-05 8.87122e-05
0.00438688 -3.81912e-05 -1.25947e-05
0.00445078 -0.000118736 3.54477e-05
0.00439599 -7.20494e-05 1.20147e-05
0.00446511 -9.80187e-05 2.51502e-05
0.00423266 -3.10918e-05 -1.64926e-05
0.00446971 -7.77422e-05 3.37739e-05
0.00471008 9.08565e-05 2.34008e-05
0.00447009 -9.19574e-05 3.39535e-05
0.00446556 -8.07998e-05 5.16637e-07
0.00426481 -0.000117681 2.86129e-05
0.00478546 -6.39928e-05 3.86928e-05
0.00462283 -7.2036e-05 0.000123489
0.00445144 -8.9217e-05 3.35898e-05
0.00445145 -0.000101623 2.46697e-05
0.00441062 0.00060766 0.000449868
0.00430259 -7.40249e-05 1.06883e-05
0.00444816 -1.76355e-05 9.1555e-05
0.0029587 0.00057648 0.000110394
0.00438246 0.000637773 0.000445098
0.00449219 -0.000130271 3.01185e-05
0.00432039 -0.000357805 -0.000433402
0.0043979 -0.000106427 2.00727e-05
0.00440624 -0.000146721 4.72472e-05
0.00444645 -0.000187112 3.08358e-05
0.00472826 -0.00019407 7.83892e-05
6.80517e-15 2.29906e-14 -7.03242e-14
0.00435866 0.000181197 1.8697e-05
0.00481572 -7.42783e-05 3.8644e-05
0.0043641 -7.20277e-05 9.4604e-06
0.00437777 -5.16896e-05 3.92083e-07
0.0044804 -7.8037e-05 2.92982e-05
0.00434933 -8.74301e-05 2.18577e-05
0.00425477 -6.22375e-05 4.54715e-06
0.00431492 -6.04203e-05 5.25555e-06
0.00440248 -6.85324e-05 3.81557e-05
0.00442269 -8.25827e-05 3.54106e-05
0.00447942 -8.00107e-05 2.89091e-05
0.00437386 -0.000504351 -0.000554469
0.00422832 -8.92805e-06 1.90258e-06
0.00453925 -3.7846e-05 9.01154e-05
0.00484584 2.52653e-05 -7.9261e-05
0.00479217 -0.000163742 1.91798e-05
0.00447254 -9.22654e-05 2.71425e-05
0.00441427 -0.000111984 4.20167e-05
0.00440192 -8.51954e-05 1.89262e-05
0.00475644 -0.00019892 3.46235e-05
0.00441033 -8.8928e-05 2.26434e-05
0.00423897 -4.9911e-05 -6.87841e-06
0.00444613 -0.000111865 3.11489e-05
0.00479652 -7.22238e-05 3.8253e-05
0.00423627 -4.38839e-05 -1.31079e-05
0.00435525 -0.000109119 4.2386e-05
-1.29282e-14 6.08828e-14 -1.9022e-13
0.00441296 -0.000233085 -0.000346602
0.00444406 -0.000136901 5.41825e-05
0.00444835 -0.000249624 -7.21049e-05
0.00430382 -0.000546881 -0.00059289
0.00423481 -4.85983e-05 9.42797e-07
0.00459718 -7.27862e-05 0.000117295
0.00428745 -5.29744e-05 -3.72087e-06
0.00442933 -7.14654e-05 3.90317e-05
0.00444799 -4.97499e-05 3.21161e-05
0.00445718 -9.57884e-05 2.56685e-05
0.00426159 -4.81412e-05 -6.81613e-06
0.00464179 -2.3656e-05 -0.000221437
0.00446009 -0.000123778 4.04203e-05
0.00444176 -0.000104478 2.86566e-05
0.00431105 -5.63228e-05 3.19851e-06
0.00427678 -0.000122842 5.67858e-05
0.00425829 -0.000116563 3.17278e-05
0.00448691 -9.92902e-05 2.97542e-05
0.00435212 -0.000104426 2.225e-05

VECTORS force float
1.36008e-10 1.50534e-10 -1.04392e-10
-1.08912e-10 9.64268e-11 -7.11732e-12
-1.08939e-10 -2.6039e-11 -2.13403e-12
-5.76842e-12 -4.99414e-11 -1.44809e-12
-1.176e-11 -4.6562e-11 3.32822e-11
-1.44168e-11 4.65857e-11 -1.26454e-10
-1.01505e-11 -3.83704e-11 2.76264e-11
-4.98358e-11 4.49076e-12 -2.06716e-11
-9.03732e-11 -1.00607e-10 3.17939e-12
-2.9376e-11 -2.53063e-11 1.86295e-11
9.11971e-11 6.52362e-12 4.74335e-12
-6.1365e-11 -1.15063e-10 9.46557e-12
-1.36339e-11 -7.38144e-12 -3.50725e-11
-6.25462e-11 -1.37443e-10 1.26643e-11
2.4355e-10 1.80506e-11 -9.44695e-13
-5.80952e-11 1.36945e-11 -5.14844e-12
4.50621e-11 -1.1341e-10 6.37032e-11
-1.77105e-11 8.16803e-11 -9.48268e-11
-1.51251e-11 -5.95977e-11 4.25281e-11
6.38573e-11 -7.78073e-11 -5.48369e-11
3.17689e-12 1.63039e-11 2.83219e-12
-7.3464e-12 -6.96822e-11 1.65121e-11
1.14109e-10 4.01098e-11 -2.33891e-11
1.3171e-10 -4.79748e-11 5.88647e-12
2.37797e-11 -2.87806e-10 1.95241e-10
-1.10214e-10 1.27212e-10 -1.73432e-10
7.42431e-11 -1.84493e-10 3.02876e-10
-4.20117e-10 -1.09092e-10 2.62635e-11
5.39282e-12 -4.46774e-10 -5.86801e-10
2.94845e-11 -1.41043e-10 2.98941e-11
2.9641e-10 3.58655e-10 -1.11131e-11
-1.59513e-11 -3.76587e-11 7.00166e-12
-7.72308e-11 1.03796e-10 -4.56206e-11
7.38387e-12 3.20444e-12 -2.57834e-12
-1.77164e-10 -5.03021e-12 5.33296e-11
2.79266e-10 -1.00815e-09 5.79626e-11
2.464e-11 -1.67211e-10 -1.30956e-10
1.01553e-11 7.42734e-12 -4.87438e-11
7.73176e-11 -1.15603e-10 4.62209e-11
6.94165e-11 6.42331e-11 -6.17614e-11
-1.36703e-11 -2.97403e-11 2.09618e-11
1.84331e-10 6.90588e-11 -3.11929e-11
2.81556e-11 -8.52765e-11 1.67035e-11
-9.5901e-12 -7.99845e-11 8.2427e-11
-2.87234e-11 -1.62357e-12 4.02883e-13
7.84883e-11 8.18573e-13 4.5393e-12
8.83182e-11 2.40458e-11 2.9088e-11
-7.36596e-12 -1.77e-10 1.07741e-10
-1.09516e-10 -6.85979e-11 -2.68941e-11
4.65837e-12 1.63346e-11 -8.8002e-12
1.18331e-10 2.18779e-10 -3.2786e-11
-1.98839e-11 -7.17622e-11 5.13997e-11
-4.80091e-11 4.8338e-11 -3.31283e-11
-3.43123e-11 -4.37235e-11 8.47345e-11
1.85245e-11 5.62297e-11 -1.8086e-11
-2.68311e-11 -9.43462e-12 6.62116e-12
-8.54848e-11 -1.43527e-10 7.06772e-12
7.85521e-11 1.51136e-10 -2.36969e-11
-6.72478e-11 7.22254e-11 1.18238e-10
8.97519e-11 4.27689e-11 -2.1838e-11
9.03918e-13 -2.54299e-11 7.37494e-12
-3.41244e-10 -1.43024e-11 1.45947e-10
-3.87919e-12 2.82788e-11 -5.09308e-12
-2.02716e-11 2.93134e-12 -1.29138e-12
1.61488e-11 1.68368e-11 -1.16266e-11
-1.96515e-10 -1.83348e-10 -1.45758e-10
-5.75129e-12 -3.41198e-11 8.80537e-12
6.11089e-11 -1.67239e-11 7.07385e-12
-1.28418e-10 -7.97133e-10 4.85223e-10
4.03897e-28 -1.01507e-26 0.0
4.72757e-11 1.65853e-10 1.74362e-11
6.42127e-11 -3.20741e-11 -3.79374e-11
1.62065e-10 5.10082e-11 -6.02258e-11
-1.2436e-10 -3.93358e-10 2.43429e-10
-7.99738e-12 -3.82331e-11 8.42032e-12
-5.62774e-10 1.91738e-10 -1.60251e-10
-5.27571e-11 -7.03786e-11 1.01965e-10
-6.57609e-13 -7.34279e-12 3.45028e-11
8.53142e-11 3.94192e-11 -3.05862e-11
-3.92822e-11 -1.36979e-10 1.16453e-10
7.968e-11 8.96115e-11 -6.49719e-11
-4.39371e-11 -1.38185e-11 1.03968e-11
2.44962e-10 1.70255e-10 -1.28708e-10
1.94277e-10 4.56747e-11 -5.37635e-11
6.58945e-11 -2.41738e-13 8.72002e-13
4.04136e-11 2.02639e-11 -2.21508e-11
-2.10267e-10 -2.04893e-10 6.15106e-11
2.67669e-11 -5.04167e-10 2.97483e-10
-4.7767e-12 1.56033e-11 -5.25137e-12
-2.39103e-11 -2.39176e-11 2.81134e-13
-3.47186e-11 1.82656e-11 -1.34749e-11
-7.6945e-11 -1.02678e-10 1.02268e-10
2.70769e-10 -1.58725e-10 1.75432e-11
-1.86722e-11 4.61564e-11 -5.86815e-11
1.02425e-10 -7.77047e-12 -1.01118e-11
3.81488e-11 1.85682e-10 4.68588e-11
6.75081e-11 2.1299e-10 -1.28062e-10
4.27286e-10 1.06546e-10 3.97259e-11
-7.55129e-11 7.81176e-11 5.47697e-11
7.84306e-11 -7.17683e-11 -2.4428e-11
-1.03852e-12 -4.33939e-11 2.69473e-11
5.60553e-11 1.85408e-11 -7.46172e-12
-1.44628e-10 -6.81036e-11 1.08428e-10
2.59428e-10 1.11599e-10 -4.0745e-11
2.51614e-11 -1.66567e-12 -2.62534e-11
-6.21084e-12 -2.70335e-11 1.93486e-11
4.85317e-11 -1.24069e-10 -1.33945e-11
-1.32723e-11 1.12051e-10 -1.73238e-10
-3.30558e-10 2.59982e-10 -1.82106e-10
2.29763e-10 6.49532e-11 -4.55705e-11
1.17589e-11 2.81909e-11 -2.08865e-11
-9.1974e-12 9.07724e-11 -7.93585e-11
1.91749e-11 -1.48446e-11 -3.09037e-11
-1.51568e-10 -9.43898e-11 8.75526e-12
-2.7233e-11 2.77621e-11 -1.93077e-11
2.19454e-11 7.70118e-11 -4.4077e-11
2.34926e-11 -4.87641e-11 2.83552e-12
6.19693e-11 4.53553e-10 -2.83981e-10
-1.8604e-11 -6.5678e-11 4.65616e-11
-1.66209e-10 1.43768e-10 -2.72491e-11
-5.85943e-11 -1.88002e-11 -4.8188e-12
3.11438e-10 4.03262e-12 1.43212e-11
1.22265e-10 5.81338e-11 -3.27065e-11
1.88576e-12 6.92987e-11 -5.07435e-11
6.83554e-11 -1.99861e-11 9.20362e-12
1.20679e-10 6.48933e-11 -5.7126e-11
4.50038e-11 1.75806e-11 -9.66014e-12
1.17965e-10 7.56604e-11 -5.40132e-11
-2.00406e-11 1.67603e-11 -5.69708e-12
-3.06711e-11 1.12028e-11 -4.02942e-11
-1.15206e-11 -5.30536e-11 3.69582e-11
-2.04397e-10 -1.04262e-11 8.55375e-11
-2.25839e-11 1.18907e-10 -7.75057e-11
1.0473e-12 3.62937e-12 -2.50821e-12
-1.31814e-10 -2.40673e-10 1.51385e-10
-1.67449e-10 9.1831e-11 2.3898e-10
3.88225e-10 9.83193e-11 -7.41519e-11
-1.60544e-11 3.81231e-12 -1.67421e-12
2.69397e-10 8.5778e-11 -7.01162e-11
1.29323e-10 -7.5892e-11 -1.14604e-10
1.45801e-10 -2.45366e-10 -2.84701e-11
-8.73426e-10 1.24313e-10 -9.14099e-11
-9.69879e-11 -5.94465e-11 -1.09378e-11
3.09286e-12 -5.33677e-11 5.86885e-11
-2.74062e-10 1.86605e-10 -4.41541e-11
-9.32013e-12 2.49709e-11 7.81108e-12
1.8627e-10 -4.58162e-11 -2.79769e-11
-5.99909e-12 -8.82213e-11 6.24271e-11
2.09353e-10 8.90608e-11 3.45484e-12
-1.85919e-11 -3.91663e-12 -2.29355e-12
-3.5426e-11 -4.5103e-11 2.581e-11
-1.43837e-10 1.17584e-10 -8.39197e-11
3.13434e-12 2.56782e-11 8.68043e-12
-2.0488e-10 2.27422e-12 4.03123e-11
-1.26821e-11 2.52331e-10 8.09385e-12
1.20935e-10 -7.95386e-11 -8.94763e-11
-3.99702e-12 7.45106e-11 -1.92065e-11
-2.12118e-11 6.57848e-11 3.47948e-11
-3.75714e-11 1.70097e-12 -1.57855e-11
-1.96677e-11 4.91265e-11 -5.06629e-11
-4.01761e-12 1.50231e-10 -1.25135e-10
3.27143e-10 -1.16275e-10 -1.43897e-10
4.22162e-10 9.99849e-11 5.07536e-12
4.91068e-12 1.09632e-10 -9.31881e-11
6.65189e-11 -1.74513e-10 3.12256e-11
1.37347e-10 -1.12209e-10 -1.30491e-10
9.27494e-12 8.63233e-11 -5.87643e-11
-2.69125e-11 8.01597e-11 4.5365e-11
4.9415e-11 5.27281e-12 -3.99734e-11
2.99087e-11 -4.97521e-11 4.27088e-11
-1.12642e-10 -3.47998e-11 3.78159e-11
1.93574e-10 5.56675e-11 -9.34682e-11
4.88019e-11 -1.94588e-11 4.45296e-12
4.60648e-11 1.78175e-11 -8.14537e-11
-3.47836e-11 -8.94768e-11 2.12571e-11
6.38411e-11 -6.81384e-11 1.61279e-10
1.32989e-10 4.53765e-11 -1.04093e-11
-2.10001e-11 -3.22077e-11 2.96097e-12
-2.02279e-11 -7.5415e-11 5.41226e-11
-4.37079e-11 -2.64121e-11 7.09719e-11
-7.96389e-11 1.27466e-10 4.70113e-12
2.04161e-10 5.3001e-11 -2.46864e-11
1.89535e-11 2.24539e-11 -2.588e-11
-3.70398e-11 -1.53055e-11 -5.72532e-11
8.66247e-11 3.14792e-10 -1.97871e-10
-1.50098e-10 4.52621e-11 -2.68115e-11
-2.77084e-10 2.88335e-11 -3.45209e-11
2.09218e-10 2.22924e-10 -3.53135e-12
-1.82298e-12 -5.79968e-11 3.39879e-11
2.33818e-10 4.29999e-10 -2.77018e-10
6.38841e-11 7.31341e-11 -4.47486e-11
-9.18789e-11 2.80824e-11 -1.02629e-11
-8.69528e-11 1.05974e-10 2.74478e-12
-6.11234e-11 -1.22701e-11 -2.59814e-11
-6.76024e-12 -1.0176e-11 7.28817e-12
-5.96412e-12 5.05307e-12 2.42897e-13
2.75006e-11 3.12151e-11 -2.46135e-11
9.53253e-11 4.29826e-10 -2.51902e-10
-7.89623e-12 -1.35252e-12 1.28195e-12
-3.57785e-10 -2.36221e-10 1.41459e-11
-1.81052e-11 3.36694e-11 -3.0099e-12
5.5427e-12 -1.49902e-10 8.94047e-11
4.6109e-10 -8.27794e-11 -8.18323e-13
-1.83892e-10 -4.06857e-11 -5.36e-11
1.26621e-10 4.29007e-10 -2.64232e-10
2.40236e-11 1.70214e-11 -2.72129e-12
8.68495e-12 -4.89736e-11 4.30855e-11
-4.52534e-11 3.87456e-12 -1.82476e-11
1.01483e-10 -1.94528e-10 -7.79176e-12
5.87618e-11 -2.24451e-11 1.69886e-11
-6.08259e-11 3.56821e-11 -1.89948e-11
-1.03133e-10 2.92558e-10 -2.06208e-10
-8.21325e-11 4.34124e-11 1.92255e-12
1.6953e-10 1.27451e-10 -9.84704e-11
1.07923e-10 3.27328e-11 -4.29119e-11
4.01192e-10 -2.55764e-10 -3.89208e-12
-2.28163e-11 -6.62272e-11 2.72695e-11
-5.71915e-11 -9.1981e-11 -1.41559e-11
1.87542e-11 -5.00956e-11 5.36416e-11
-1.7803e-10 2.092e-10 -1.88525e-11
-1.60509e-11 1.82517e-12 -2.55304e-11
-6.64544e-12 -3.95473e-11 -1.94148e-11
-4.0455e-10 -3.83862e-10 1.35102e-10
8.39879e-11 1.46532e-10 -6.0746e-10
-1.40886e-10 1.84733e-10 -6.18236e-12
-1.60717e-10 -4.55349e-11 -8.69467e-11
-1.1173e-11 8.91184e-11 -5.74697e-11
1.34079e-10 -8.86413e-12 8.0076e-13
-3.0286e-10 1.83374e-10 1.64297e-11
-1.99156e-11 -7.77638e-11 5.56105e-11
3.02696e-23 -2.20754e-23 -3.30872e-24
-1.89325e-10 6.14859e-11 -4.48543e-10
2.80934e-11 -2.77908e-10 -6.93653e-12
1.46346e-10 -6.3606e-11 -3.53008e-11
-1.48781e-10 -6.20633e-11 -1.33443e-10
5.19925e-11 5.22319e-11 -2.18783e-11
-4.28656e-11 5.42292e-11 -3.71285e-11
-1.79771e-10 9.39838e-11 -6.62051e-11
-3.09134e-11 -1.00453e-10 5.88701e-11
-7.62005e-11 1.20216e-11 7.88265e-11
9.45029e-11 -1.66546e-10 -4.89487e-11
3.02777e-11 -2.23129e-11 -3.67534e-11
3.15016e-11 -3.69572e-11 7.82513e-11
-2.93886e-10 -1.77596e-11 -1.19224e-10
1.73374e-10 5.91733e-11 -1.95744e-10
2.74064e-11 -9.54494e-12 6.36662e-12
6.85059e-11 -2.06379e-10 -1.41379e-10
1.00009e-11 1.02528e-10 1.71645e-11
-2.24912e-11 1.34447e-11 -7.09254e-12
7.2362e-11 -1.2339e-11 -3.37634e-11
2.0719e-10 -6.81975e-13 -9.61478e-12
4.79166e-11 -3.7906e-11 -1.01354e-10
-9.41912e-11 -1.78673e-10 1.2307e-10
-6.44157e-12 1.00477e-11 -7.82193e-11
-2.78057e-10 -1.49973e-10 -8.23035e-12
-1.48503e-11 -1.60379e-10 1.58362e-10
8.39988e-11 -1.40681e-10 2.30416e-11
9.45377e-22 1.35296e-22 -2.25407e-23
6.57245e-11 -1.31492e-10 2.67823e-10
-1.52067e-11 1.1398e-10 -3.22181e-11
1.06564e-11 4.51697e-11 3.26841e-11
1.56616e-10 -1.81208e-10 4.88722e-11
-1.14356e-10 1.19343e-10 -8.17205e-11
4.63916e-11 2.57769e-13 -1.0308e-12
-5.32882e-11 -1.77652e-10 1.0689e-10
-1.27463e-11 -5.31183e-11 2.55413e-11
-1.47405e-11 6.47341e-11 -5.60392e-11
-4.6145e-11 4.49131e-11 -3.4317e-11
-8.90361e-12 1.11208e-10 4.13359e-12
-7.85123e-11 -3.97384e-10 3.17693e-10
-1.17273e-11 3.56365e-11 -4.91819e-11
-1.80974e-11 -1.65807e-10 8.16444e-11
8.26418e-11 8.0565e-11 -6.65581e-11
4.13882e-11 1.12132e-10 -9.20907e-11
9.84713e-11 7.32399e-11 -4.81125e-11
-2.00163e-11 3.65564e-11 -2.94385e-11
-1.40708e-11 -2.89515e-11 6.80612e-12
