# vtk DataFile Version 3.0
LIGGGHTS particles timestep 4800000
ASCII
DATASET POLYDATA
POINTS 293 float
0.0407244 0.0162047 0.00809097
0.0351315 0.0163068 0.00786488
0.0413161 0.0179244 0.00716235
0.0407671 0.0163242 0.00793644
0.0467756 0.01634 0.00789634
0.0466449 0.0159245 0.00830903
0.0406391 0.0159609 0.00839641
0.0472345 0.0183509 0.0072217
0.0408863 0.0167439 0.00754965
0.0417409 0.017173 0.00743769
0.0412709 0.0168717 0.00752165
0.0408092 0.0164395 0.00777855
0.0343748 0.0150927 0.00924678
0.0410475 0.0174871 0.0073013
0.0346095 0.015256 0.00903997
0.0408452 0.01656 0.00761649
0.0409989 0.0164734 0.0077252
0.0416173 0.0176788 0.00725904
0.0409581 0.0163554 0.00788221
0.0414613 0.0169349 0.00750784
0.0353854 0.0165367 0.00774501
0.0468179 0.0164786 0.0077585
0.0411833 0.0165507 0.0077278
0.0468611 0.0166442 0.00765506
0.0410866 0.0176733 0.00723901
0.0469402 0.0170243 0.00755897
0.0472196 0.0174585 0.00742905
0.0409685 0.0171152 0.00742564
0.04116 0.0171797 0.00741142
0.0415739 0.0166287 0.00761753
0.0415335 0.0164795 0.0077444
0.0413109 0.0170576 0.00745954
0.0471936 0.0181611 0.00726982
0.04112 0.0169938 0.00747354
0.0410378 0.0166224 0.00759758
0.0467314 0.0162016 0.00803376
0.0414669 0.0178017 0.00721067
0.0411093 0.0162649 0.00799411
0.0413499 0.0172436 0.00739732
0.041232 0.0166883 0.00759107
0.0416528 0.0170006 0.00749319
0.0417676 0.0175561 0.00730734
0.0470246 0.0174032 0.00746261
0.0406818 0.0160829 0.00824376
0.0412381 0.0175519 0.00728694
0.0412045 0.0182323 0.00705206
0.041199 0.0173657 0.0073492
0.0415064 0.0179876 0.0071485
0.0344142 0.0152239 0.00910116
0.0470894 0.0168911 0.00757378
0.0408732 0.0161224 0.00819636
0.0344552 0.015331 0.00893727
0.0407445 0.0157585 0.0086568
0.0469006 0.0168343 0.00760702
0.0416566 0.0178648 0.00719685
0.0469797 0.0172144 0.00751093
0.0414214 0.0167491 0.00756995
0.0409159 0.0162389 0.00803924
0.0413889 0.0174296 0.0073351
0.041165 0.0180462 0.0071143
0.0470711 0.0175918 0.00741416
0.0410085 0.0173011 0.00736352
0.0347981 0.0164301 0.00785745
0.0417194 0.0173608 0.00737237
0.0410789 0.0168081 0.00753558
0.0343374 0.0149808 0.00940828
0.0471527 0.0179714 0.00731794
0.0342972 0.0149159 0.00959314
0.0415458 0.0181736 0.00708632
0.0415781 0.0174928 0.00732124
0.0471126 0.0177814 0.00736601
0.0409275 0.0169296 0.00748765
0.041696 0.0180507 0.00713468
0.041569 0.0190638 0.00689933
0.0345398 0.015569 0.00862721
0.0348236 0.0158514 0.00826559
0.0359793 0.0182447 0.00704309
0.0350721 0.0168088 0.00761079
0.034933 0.0162827 0.00786644
0.0346695 0.0159406 0.00817457
0.0471291 0.0170811 0.00752573
0.0411258 0.0178598 0.00717665
0.0416138 0.0168146 0.00755541
0.0413261 0.0187953 0.00688293
0.0418131 0.0168311 0.00755795
0.0356325 0.0169713 0.00751878
0.0419086 0.0174238 0.00735854
0.0415858 0.0183594 0.0070242
0.0416124 0.0192581 0.00691822
0.0414575 0.019383 0.00693831
0.0471732 0.0172701 0.00747745
0.0348404 0.0165795 0.00773139
0.0413705 0.0189939 0.00689984
0.0348968 0.0161208 0.00797808
0.0413026 0.0162994 0.00793766
0.0405538 0.0157171 0.00870181
0.0352304 0.0166503 0.00768936
0.036084 0.017109 0.00744117
0.0407872 0.0158804 0.00850409
0.0344971 0.015449 0.0087814
0.0351527 0.0171577 0.00743103
0.034583 0.0156887 0.00847295
0.0405111 0.0155952 0.00885452
0.0358314 0.0170316 0.0074848
0.0416301 0.0185444 0.00696255
0.041477 0.0186677 0.00691391
0.0347548 0.0162606 0.00795437
0.0353449 0.0172178 0.00739726
0.0353417 0.0163667 0.00784089
0.0355813 0.0174567 0.00727129
0.0419272 0.0182951 0.00706035
0.0405965 0.015839 0.0085491
0.0351914 0.0173329 0.00734083
0.0414896 0.0163369 0.00787758
0.0413789 0.0165593 0.0076333
0.04083 0.0160024 0.00835119
0.0412446 0.0184184 0.00698986
0.0350625 0.0159969 0.00809446
0.0412773 0.0177383 0.00722459
0.0413347 0.0164225 0.0077723
0.035788 0.016858 0.00757425
0.0408769 0.0167643 0.00774837
0.0414355 0.0184822 0.00697587
0.0347798 0.0157313 0.00841945
0.0415003 0.0171209 0.00744562
0.0346254 0.0158125 0.00832168
0.0412846 0.0186043 0.00692774
0.0411512 0.0163927 0.00784615
0.041736 0.0182366 0.00707256
0.0411136 0.016773 0.00772941
0.0346944 0.0154937 0.00872966
0.0415262 0.0188685 0.00690485
0.0416705 0.0187302 0.00690047
0.0345283 0.0150179 0.00935093
0.0413555 0.0181103 0.00710017
0.0347374 0.0156125 0.00857461
0.0349223 0.0169294 0.00755611
0.0414277 0.0176157 0.00727287
0.0351547 0.0179739 0.00701346
0.041846 0.0179276 0.00718311
0.0348647 0.0159815 0.00811901
0.0354261 0.0167108 0.00765533
0.0414141 0.019189 0.00691646
0.0352521 0.0160461 0.00805385
0.0413955 0.0182963 0.00703799
0.0347119 0.0160887 0.00804705
0.035094 0.0161275 0.00794517
0.029121 0.0178466 0.00718623
0.0351135 0.0169833 0.00752089
0.035444 0.0169129 0.00755167
0.029077 0.0167844 0.00748927
0.0359716 0.0175871 0.00719839
0.0286798 0.0159865 0.00815533
0.0359084 0.0171954 0.00739978
0.0417596 0.0191244 0.00689668
0.0362096 0.0169697 0.00751047
0.0416269 0.0172458 0.00758494
0.0354928 0.0179199 0.00703574
0.0411185 0.0176251 0.00743045
0.0346515 0.0153749 0.00888472
0.0357807 0.0182681 0.007046
0.0352715 0.0174835 0.0074452
0.0410662 0.0161486 0.00815101
0.0353068 0.0170433 0.00748715
0.041023 0.0160323 0.00830789
0.0360055 0.0169429 0.00752738
0.0350215 0.0158709 0.00824421
0.0355814 0.0165976 0.00771079
0.0350022 0.0172759 0.00737297
0.0356497 0.0178071 0.00709096
0.0349892 0.0164598 0.00779078
0.0358681 0.0178948 0.00704262
0.035542 0.0172845 0.00736503
0.0359218 0.0164084 0.00780038
0.0356953 0.0171672 0.00741756
0.0415308 0.0173234 0.00742762
0.0350313 0.0166348 0.00770048
0.0347832 0.0164359 0.0080568
0.0413204 0.0168449 0.00771356
0.0358157 0.0173537 0.00732024
0.0357828 0.0175296 0.00723082
0.0352712 0.0168244 0.00759968
0.041715 0.0189287 0.00687833
0.0355406 0.0164235 0.00780047
0.040985 0.0169176 0.00767882
0.0357059 0.0163221 0.00784948
0.0356264 0.0184883 0.00710155
0.0345678 0.015137 0.00919525
0.029464 0.0177821 0.00720551
0.034963 0.0171022 0.00746409
0.0350403 0.0174521 0.00728633
0.0357565 0.0166824 0.00766459
0.0418208 0.0186074 0.00694883
0.0411785 0.0169774 0.00766409
0.0351211 0.0176044 0.0073877
0.0410156 0.0172948 0.00756329
0.0353842 0.0173928 0.00730708
0.0354119 0.0159614 0.00813902
0.0356012 0.0167957 0.00760913
0.0290816 0.0176554 0.00723009
0.0413083 0.0176885 0.00741579
0.0358145 0.0177051 0.0071405
0.0356178 0.0176315 0.00718127
0.0412215 0.0171667 0.00760129
0.0358598 0.0180901 0.00700038
0.0286364 0.0158363 0.00828009
0.0355033 0.0171081 0.00745088
0.0407018 0.0156366 0.00880952
0.0360033 0.0177627 0.00710806
0.0356923 0.0179808 0.00700143
0.0351876 0.0164849 0.00779333
0.0289147 0.016181 0.00798873
0.0410298 0.017102 0.00761555
0.0352856 0.0161928 0.00792212
0.0348816 0.0167565 0.00764798
0.0466881 0.016063 0.00817139
0.0285929 0.01569 0.00840928
0.0342611 0.014888 0.00978786
0.0353841 0.018232 0.00703029
0.0342244 0.0148631 0.00998287
0.0353063 0.0178569 0.00707095
0.0290401 0.0166324 0.00761384
0.0349664 0.0169063 0.0077498
0.0352122 0.0159121 0.00819679
0.0414572 0.0162191 0.00803591
0.0356687 0.0186772 0.00715203
0.0355405 0.0181109 0.00700064
0.0292332 0.0175288 0.00726137
0.0287667 0.0162868 0.00790581
0.0288866 0.0167391 0.00753031
0.0291155 0.0169554 0.00739293
0.0293141 0.0179106 0.00717381
0.028957 0.0163314 0.0078638
0.0287232 0.0161366 0.00803057
0.0351168 0.0177994 0.00710336
0.0289992 0.0164817 0.00773889
0.0408265 0.0166154 0.00787205
0.029194 0.0173377 0.00730523
0.0349271 0.0167315 0.00784112
0.0293835 0.0174002 0.00729311
0.029163 0.0180379 0.00714237
0.0354225 0.0175679 0.00721692
0.0294237 0.0175912 0.00724931
0.0349777 0.0157522 0.0083991
0.0296544 0.0178415 0.00718801
0.035268 0.0176819 0.00716108
0.0354269 0.0184208 0.00708056
0.0292459 0.0184161 0.00704231
0.0418521 0.0170172 0.00749574
0.0352331 0.0183593 0.00706192
0.0354611 0.0177432 0.00712664
0.0292726 0.0177199 0.00721753
0.0355549 0.0189871 0.00723187
0.0292048 0.0182283 0.00709746
0.0357467 0.0164963 0.00775998
0.0354041 0.0191146 0.00726304
0.0354407 0.0160815 0.00798171
0.0355833 0.0182997 0.00705111
0.0352759 0.0185482 0.00711175
0.0295057 0.0179717 0.00715741
0.0293558 0.0181007 0.00712754
0.0351979 0.0179546 0.00720776
0.0293969 0.0182884 0.0070721
0.0355123 0.0187983 0.00718141
0.0229792 0.0171469 0.00729938
0.0354696 0.0186095 0.00713095
0.0359613 0.016768 0.00761757
0.0291551 0.0171465 0.0073491
0.0289236 0.0168909 0.00740548
0.0354966 0.0162501 0.00788994
0.0289637 0.0170819 0.00736168
0.0290423 0.0174642 0.00727395
0.0353408 0.018038 0.00697816
0.029547 0.0181597 0.00710221
0.0353613 0.0189257 0.00721253
0.0404685 0.0154734 0.00900724
0.0355069 0.0184606 0.00725949
0.029305 0.017018 0.00738079
0.0351708 0.0157931 0.00835214
0.0353186 0.018737 0.00716207
0.0349688 0.0165073 0.00798399
0.0417803 0.0184216 0.0070109
0.0358661 0.0186456 0.00714693
0.0356619 0.0161481 0.00793779
0.0351941 0.01817 0.00701055
0.0359262 0.0165871 0.00771067
0.0288083 0.0164373 0.00778083
0.0290032 0.017273 0.00731784
0.0404258 0.0153515 0.00915995
0.0358238 0.0184567 0.00709645
0.0350789 0.0176248 0.00719327
0.0352301 0.0175073 0.00725099
0.0288484 0.016588 0.00765567

VERTICES 293 586
1 0
1 1
1 2
1 3
1 4
1 5
1 6
1 7
1 8
1 9
1 10
1 11
1 12
1 13
1 14
1 15
1 16
1 17
1 18
1 19
1 20
1 21
1 22
1 23
1 24
1 25
1 26
1 27
1 28
1 29
1 30
1 31
1 32
1 33
1 34
1 35
1 36
1 37
1 38
1 39
1 40
1 41
1 42
1 43
1 44
1 45
1 46
1 47
1 48
1 49
1 50
1 51
1 52
1 53
1 54
1 55
1 56
1 57
1 58
1 59
1 60
1 61
1 62
1 63
1 64
1 65
1 66
1 67
1 68
1 69
1 70
1 71
1 72
1 73
1 74
1 75
1 76
1 77
1 78
1 79
1 80
1 81
1 82
1 83
1 84
1 85
1 86
1 87
1 88
1 89
1 90
1 91
1 92
1 93
1 94
1 95
1 96
1 97
1 98
1 99
1 100
1 101
1 102
1 103
1 104
1 105
1 106
1 107
1 108
1 109
1 110
1 111
1 112
1 113
1 114
1 115
1 116
1 117
1 118
1 119
1 120
1 121
1 122
1 123
1 124
1 125
1 126
1 127
1 128
1 129
1 130
1 131
1 132
1 133
1 134
1 135
1 136
1 137
1 138
1 139
1 140
1 141
1 142
1 143
1 144
1 145
1 146
1 147
1 148
1 149
1 150
1 151
1 152
1 153
1 154
1 155
1 156
1 157
1 158
1 159
1 160
1 161
1 162
1 163
1 164
1 165
1 166
1 167
1 168
1 169
1 170
1 171
1 172
1 173
1 174
1 175
1 176
1 177
1 178
1 179
1 180
1 181
1 182
1 183
1 184
1 185
1 186
1 187
1 188
1 189
1 190
1 191
1 192
1 193
1 194
1 195
1 196
1 197
1 198
1 199
1 200
1 201
1 202
1 203
1 204
1 205
1 206
1 207
1 208
1 209
1 210
1 211
1 212
1 213
1 214
1 215
1 216
1 217
1 218
1 219
1 220
1 221
1 222
1 223
1 224
1 225
1 226
1 227
1 228
1 229
1 230
1 231
1 232
1 233
1 234
1 235
1 236
1 237
1 238
1 239
1 240
1 241
1 242
1 243
1 244
1 245
1 246
1 247
1 248
1 249
1 250
1 251
1 252
1 253
1 254
1 255
1 256
1 257
1 258
1 259
1 260
1 261
1 262
1 263
1 264
1 265
1 266
1 267
1 268
1 269
1 270
1 271
1 272
1 273
1 274
1 275
1 276
1 277
1 278
1 279
1 280
1 281
1 282
1 283
1 284
1 285
1 286
1 287
1 288
1 289
1 290
1 291
1 292

POINT_DATA 293
SCALARS id int 1
LOOKUP_TABLE default
1
3
4
5
6
7
8
9
10
11
12
13
14
15
16
17
19
20
21
22
23
24
25
26
27
28
29
30
31
32
33
34
35
36
37
38
39
40
41
42
43
44
45
46
47
48
49
50
51
52
53
54
55
56
57
58
59
60
61
62
63
64
65
66
67
68
69
70
71
72
73
74
75
76
77
78
79
80
81
82
83
85
86
87
88
89
90
91
92
93
94
95
96
97
98
99
100
101
102
103
104
105
106
107
108
109
110
111
112
113
114
115
116
117
118
119
120
121
122
123
124
125
126
127
128
129
130
131
132
133
134
135
136
137
138
139
140
142
143
144
145
146
147
148
149
150
151
152
153
154
155
156
157
158
159
160
161
162
164
165
166
167
168
169
170
171
172
173
174
175
176
177
178
179
180
181
182
183
184
185
186
187
188
189
190
191
192
193
194
195
196
197
198
200
201
202
203
204
205
206
207
208
209
210
211
212
213
214
215
216
217
218
219
220
221
222
223
224
225
226
227
228
229
230
231
232
233
234
235
236
237
238
239
240
241
242
243
245
246
247
248
249
250
251
252
253
254
255
256
257
258
259
260
261
262
263
264
265
266
267
268
269
270
271
272
273
274
275
276
277
278
279
280
281
282
283
284
285
286
287
288
289
290
291
292
293
294
295
296
297
298
299
300

SCALARS type int 1
LOOKUP_TABLE default
1
1
1
1
1
1
1
1
1
1
1
1
1
1
1
1
1
1
1
1
1
1
1
1
1
1
1
1
1
1
1
1
1
1
1
1
1
1
1
1
1
1
1
1
1
1
1
1
1
1
1
1
1
1
1
1
1
1
1
1
1
1
1
1
1
1
1
1
1
1
1
1
1
1
1
1
1
1
1
1
1
1
1
1
1
1
1
1
1
1
1
1
1
1
1
1
1
1
1
1
1
1
1
1
1
1
1
1
1
1
1
1
1
1
1
1
1
1
1
1
1
1
1
1
1
1
1
1
1
1
1
1
1
1
1
1
1
1
1
1
1
1
1
1
1
1
1
1
1
1
1
1
1
1
1
1
1
1
1
1
1
1
1
1
1
1
1
1
1
1
1
1
1
1
1
1
1
1
1
1
1
1
1
1
1
1
1
1
1
1
1
1
1
1
1
1
1
1
1
1
1
1
1
1
1
1
1
1
1
1
1
1
1
1
1
1
1
1
1
1
1
1
1
1
1
1
1
1
1
1
1
1
1
1
1
1
1
1
1
1
1
1
1
1
1
1
1
1
1
1
1
1
1
1
1
1
1
1
1
1
1
1
1
1
1
1
1
1
1
1
1
1
1
1
1
1
1
1
1
1
1
1
1
1
1
1
1
1
1
1
1
1
1

SCALARS radius float 1
LOOKUP_TABLE default
0.0001
0.0001
0.0001
0.0001
0.0001
0.0001
0.0001
0.0001
0.0001
0.0001
0.0001
0.0001
0.0001
0.0001
0.0001
0.0001
0.0001
0.0001
0.0001
0.0001
0.0001
0.0001
0.0001
0.0001
0.0001
0.0001
0.0001
0.0001
0.0001
0.0001
0.0001
0.0001
0.0001
0.0001
0.0001
0.0001
0.0001
0.0001
0.0001
0.0001
0.0001
0.0001
0.0001
0.0001
0.0001
0.0001
0.0001
0.0001
0.0001
0.0001
0.0001
0.0001
0.0001
0.0001
0.0001
0.0001
0.0001
0.0001
0.0001
0.0001
0.0001
0.0001
0.0001
0.0001
0.0001
0.0001
0.0001
0.0001
0.0001
0.0001
0.0001
0.0001
0.0001
0.0001
0.0001
0.0001
0.0001
0.0001
0.0001
0.0001
0.0001
0.0001
0.0001
0.0001
0.0001
0.0001
0.0001
0.0001
0.0001
0.0001
0.0001
0.0001
0.0001
0.0001
0.0001
0.0001
0.0001
0.0001
0.0001
0.0001
0.0001
0.0001
0.0001
0.0001
0.0001
0.0001
0.0001
0.0001
0.0001
0.0001
0.0001
0.0001
0.0001
0.0001
0.0001
0.0001
0.0001
0.0001
0.0001
0.0001
0.0001
0.0001
0.0001
0.0001
0.0001
0.0001
0.0001
0.0001
0.0001
0.0001
0.0001
0.0001
0.0001
0.0001
0.0001
0.0001
0.0001
0.0001
0.0001
0.0001
0.0001
0.0001
0.0001
0.0001
0.0001
0.0001
0.0001
0.0001
0.0001
0.0001
0.0001
0.0001
0.0001
0.0001
0.0001
0.0001
0.0001
0.0001
0.0001
0.0001
0.0001
0.0001
0.0001
0.0001
0.0001
0.0001
0.0001
0.0001
0.0001
0.0001
0.0001
0.0001
0.0001
0.0001
0.0001
0.0001
0.0001
0.0001
0.0001
0.0001
0.0001
0.0001
0.0001
0.0001
0.0001
0.0001
0.0001
0.0001
0.0001
0.0001
0.0001
0.0001
0.0001
0.0001
0.0001
0.0001
0.0001
0.0001
0.0001
0.0001
0.0001
0.0001
0.0001
0.0001
0.0001
0.0001
0.0001
0.0001
0.0001
0.0001
0.0001
0.0001
0.0001
0.0001
0.0001
0.0001
0.0001
0.0001
0.0001
0.0001
0.0001
0.0001
0.0001
0.0001
0.0001
0.0001
0.0001
0.0001
0.0001
0.0001
0.0001
0.0001
0.0001
0.0001
0.0001
0.0001
0.0001
0.0001
0.0001
0.0001
0.0001
0.0001
0.0001
0.0001
0.0001
0.0001
0.0001
0.0001
0.0001
0.0001
0.0001
0.0001
0.0001
0.0001
0.0001
0.0001
0.0001
0.0001
0.0001
0.0001
0.0001
0.0001
0.0001
0.0001
0.0001
0.0001
0.0001
0.0001
0.0001
0.0001
0.0001
0.0001
0.0001
0.0001
0.0001
0.0001
0.0001
0.0001
0.0001
0.0001
0.0001
0.0001
0.0001
0.0001
0.0001
0.0001
0.0001
0.0001
0.0001
0.0001
0.0001
0.0001
0.0001

SCALARS mass float 1
LOOKUP_TABLE default
1.17286e-09
1.17286e-09
1.17286e-09
1.17286e-09
1.17286e-09
1.17286e-09
1.17286e-09
1.17286e-09
1.17286e-09
1.17286e-09
1.17286e-09
1.17286e-09
1.17286e-09
1.17286e-09
1.17286e-09
1.17286e-09
1.17286e-09
1.17286e-09
1.17286e-09
1.17286e-09
1.17286e-09
1.17286e-09
1.17286e-09
1.17286e-09
1.17286e-09
1.17286e-09
1.17286e-09
1.17286e-09
1.17286e-09
1.17286e-09
1.17286e-09
1.17286e-09
1.17286e-09
1.17286e-09
1.17286e-09
1.17286e-09
1.17286e-09
1.17286e-09
1.17286e-09
1.17286e-09
1.17286e-09
1.17286e-09
1.17286e-09
1.17286e-09
1.17286e-09
1.17286e-09
1.17286e-09
1.17286e-09
1.17286e-09
1.17286e-09
1.17286e-09
1.17286e-09
1.17286e-09
1.17286e-09
1.17286e-09
1.17286e-09
1.17286e-09
1.17286e-09
1.17286e-09
1.17286e-09
1.17286e-09
1.17286e-09
1.17286e-09
1.17286e-09
1.17286e-09
1.17286e-09
1.17286e-09
1.17286e-09
1.17286e-09
1.17286e-09
1.17286e-09
1.17286e-09
1.17286e-09
1.17286e-09
1.17286e-09
1.17286e-09
1.17286e-09
1.17286e-09
1.17286e-09
1.17286e-09
1.17286e-09
1.17286e-09
1.17286e-09
1.17286e-09
1.17286e-09
1.17286e-09
1.17286e-09
1.17286e-09
1.17286e-09
1.17286e-09
1.17286e-09
1.17286e-09
1.17286e-09
1.17286e-09
1.17286e-09
1.17286e-09
1.17286e-09
1.17286e-09
1.17286e-09
1.17286e-09
1.17286e-09
1.17286e-09
1.17286e-09
1.17286e-09
1.17286e-09
1.17286e-09
1.17286e-09
1.17286e-09
1.17286e-09
1.17286e-09
1.17286e-09
1.17286e-09
1.17286e-09
1.17286e-09
1.17286e-09
1.17286e-09
1.17286e-09
1.17286e-09
1.17286e-09
1.17286e-09
1.17286e-09
1.17286e-09
1.17286e-09
1.17286e-09
1.17286e-09
1.17286e-09
1.17286e-09
1.17286e-09
1.17286e-09
1.17286e-09
1.17286e-09
1.17286e-09
1.17286e-09
1.17286e-09
1.17286e-09
1.17286e-09
1.17286e-09
1.17286e-09
1.17286e-09
1.17286e-09
1.17286e-09
1.17286e-09
1.17286e-09
1.17286e-09
1.17286e-09
1.17286e-09
1.17286e-09
1.17286e-09
1.17286e-09
1.17286e-09
1.17286e-09
1.17286e-09
1.17286e-09
1.17286e-09
1.17286e-09
1.17286e-09
1.17286e-09
1.17286e-09
1.17286e-09
1.17286e-09
1.17286e-09
1.17286e-09
1.17286e-09
1.17286e-09
1.17286e-09
1.17286e-09
1.17286e-09
1.17286e-09
1.17286e-09
1.17286e-09
1.17286e-09
1.17286e-09
1.17286e-09
1.17286e-09
1.17286e-09
1.17286e-09
1.17286e-09
1.17286e-09
1.17286e-09
1.17286e-09
1.17286e-09
1.17286e-09
1.17286e-09
1.17286e-09
1.17286e-09
1.17286e-09
1.17286e-09
1.17286e-09
1.17286e-09
1.17286e-09
1.17286e-09
1.17286e-09
1.17286e-09
1.17286e-09
1.17286e-09
1.17286e-09
1.17286e-09
1.17286e-09
1.17286e-09
1.17286e-09
1.17286e-09
1.17286e-09
1.17286e-09
1.17286e-09
1.17286e-09
1.17286e-09
1.17286e-09
1.17286e-09
1.17286e-09
1.17286e-09
1.17286e-09
1.17286e-09
1.17286e-09
1.17286e-09
1.17286e-09
1.17286e-09
1.17286e-09
1.17286e-09
1.17286e-09
1.17286e-09
1.17286e-09
1.17286e-09
1.17286e-09
1.17286e-09
1.17286e-09
1.17286e-09
1.17286e-09
1.17286e-09
1.17286e-09
1.17286e-09
1.17286e-09
1.17286e-09
1.17286e-09
1.17286e-09
1.17286e-09
1.17286e-09
1.17286e-09
1.17286e-09
1.17286e-09
1.17286e-09
1.17286e-09
1.17286e-09
1.17286e-09
1.17286e-09
1.17286e-09
1.17286e-09
1.17286e-09
1.17286e-09
1.17286e-09
1.17286e-09
1.17286e-09
1.17286e-09
1.17286e-09
1.17286e-09
1.17286e-09
1.17286e-09
1.17286e-09
1.17286e-09
1.17286e-09
1.17286e-09
1.17286e-09
1.17286e-09
1.17286e-09
1.17286e-09
1.17286e-09
1.17286e-09
1.17286e-09
1.17286e-09
1.17286e-09
1.17286e-09
1.17286e-09
1.17286e-09
1.17286e-09
1.17286e-09
1.17286e-09
1.17286e-09
1.17286e-09
1.17286e-09
1.17286e-09
1.17286e-09
1.17286e-09
1.17286e-09
1.17286e-09
1.17286e-09
1.17286e-09
1.17286e-09
1.17286e-09
1.17286e-09
1.17286e-09
1.17286e-09
1.17286e-09
1.17286e-09
1.17286e-09

VECTORS velocity float
0.0059772 -6.85986e-05 0.000326814
0.00608713 0.000166999 0.000204351
0.00557098 8.03728e-05 0.000209149
0.00605268 -0.00015916 0.000262285
0.0062923 0.000834077 -0.000143
0.00621853 0.000865755 -0.000184794
0.00586969 -8.32155e-05 0.000341657
0.00576919 0.000475437 -0.000724654
0.00574093 -5.86322e-05 0.00025884
0.00547312 1.26911e-05 0.000215452
0.00563456 7.24453e-05 0.000215474
0.00609012 -0.000342456 0.000126755
0.00556415 6.08046e-05 0.000144515
0.00538569 -6.57578e-06 0.000224696
0.00592129 1.28864e-06 0.000212189
0.00573082 -0.000195647 -5.47301e-05
0.00610808 -0.0003699 0.00013034
0.0056905 -7.33331e-06 0.000236972
0.00611204 -0.000336534 0.00012097
0.00565327 0.000144988 0.000180911
0.00564079 0.000226312 -0.000182048
0.00627165 0.000793311 -0.000157141
0.00604071 -0.000199937 8.73707e-05
0.00609023 0.000453507 -0.000732142
0.0054726 0.000114881 0.00018765
0.00607207 0.000479239 -0.000767622
0.00639461 0.000354863 -0.00076212
0.00552243 2.87724e-05 0.000215251
0.00555401 3.98394e-05 0.000212532
0.00576149 0.000188833 0.000168826
0.00583455 8.61916e-05 4.96108e-05
0.00558313 7.82881e-05 0.000195281
0.00568181 0.000498721 -0.000720956
0.00558671 4.79101e-05 0.000208909
0.00575542 -6.13216e-05 0.000260749
0.00625737 0.000834866 -0.000143342
0.00561714 5.38471e-05 0.000214628
0.00595492 -0.00025112 9.85211e-06
0.00550485 9.09902e-05 0.000191086
0.00577843 1.58942e-05 0.000195047
0.00561973 0.000196422 0.000165141
0.0056472 -6.01407e-05 0.000253399
0.00657189 0.000348238 -0.000780569
0.0059205 -7.42835e-05 0.000326424
0.00548482 0.000108076 0.000189421
0.00593136 -9.79403e-06 0.000249388
0.00543417 3.58245e-05 0.000211756
0.00585036 2.58614e-05 0.000232353
0.0057318 8.63554e-05 0.000226586
0.00598872 0.000491602 -0.000759078
0.00602919 -0.000296902 0.000100541
0.00591425 5.87209e-05 0.000243507
0.00575869 -0.000109063 0.000359114
0.0060426 0.000444966 -0.000762352
0.00582365 -2.24782e-05 0.000248526
0.00604862 0.000496621 -0.000764067
0.00572191 0.000145353 0.000185129
0.00603222 -0.000333 0.000119246
0.00548383 8.97465e-05 0.000194083
0.0055256 0.000103668 0.000199476
0.00642299 0.000355843 -0.000765158
0.0055105 -3.62851e-05 0.000239442
0.00595055 -8.19875e-05 0.000279883
0.00553512 1.25278e-05 0.000216961
0.00574041 -5.9321e-05 0.000258221
0.00550458 -2.00172e-05 0.000107347
0.00558642 0.000526381 -0.000716866
0.00548447 -9.79253e-05 9.14663e-05
0.00598124 2.38854e-05 0.000238334
0.00553501 8.72583e-06 0.000223981
0.00549129 0.000566328 -0.000716223
0.00574847 -3.83645e-05 0.000250501
0.00593535 -4.37798e-05 0.000259413
0.00622725 2.1654e-05 -0.00018137
0.00600229 -3.04951e-05 0.00015882
0.00609678 -0.000330136 5.82196e-05
0.00596807 -0.000244919 3.43958e-05
0.00568097 -0.000144962 -8.7517e-06
0.00610291 5.53943e-05 0.000257341
0.0061489 -0.000270984 9.55645e-06
0.00588968 0.000502713 -0.000744751
0.00553842 0.000209288 0.000165028
0.0056876 0.000189375 0.000170683
0.00619855 -6.55464e-05 -0.000284337
0.00568717 8.25527e-05 0.000205326
0.00597587 0.000121671 -0.000157749
0.0055597 -0.000135035 0.00027434
0.00606726 1.72491e-05 0.00024445
0.00622223 1.46311e-05 1.67658e-05
0.00621768 1.12567e-05 1.52264e-05
0.00611322 0.000437436 -0.000753095
0.00579067 -6.15899e-05 0.000277155
0.00619623 -3.67998e-05 -0.000271217
0.00586741 -0.000719149 -0.000961691
0.00608904 -0.000282642 4.21987e-05
0.00575095 -0.00011066 0.000357833
0.0057511 8.18044e-05 -0.000120141
0.00541151 0.0002719 -0.000224989
0.00584375 -0.000108539 0.000370757
0.00596441 7.5026e-06 0.000198204
0.00554677 -0.000184588 4.99308e-06
0.00607981 -8.04668e-05 0.0001289
0.00574755 -9.09992e-05 0.000339052
0.00547434 0.000102204 -0.000140764
0.00612683 7.58758e-06 0.000250964
0.00621082 7.50353e-05 0.000231149
0.00607837 -0.000178205 0.000156575
0.00541106 -0.00030838 7.49122e-05
0.00614588 0.00010097 -0.000138033
0.00536864 -0.000297635 6.90988e-05
0.00599268 -0.000126375 0.000290736
0.0057832 -0.000103251 0.000356615
0.00536598 -0.00029803 7.65544e-05
0.00599692 -0.000138459 -0.000144601
0.00593377 0.000208869 0.000167623
0.00593926 -5.0461e-05 0.000285276
0.00608111 0.000205986 0.000181264
0.00625538 -0.000110746 2.86848e-05
0.00550454 0.00010229 0.000201166
0.00603891 -0.000140392 -0.000142656
0.00565405 0.000112389 -0.00014534
0.00575514 -5.66851e-05 0.000251228
0.00614599 0.000100085 0.000219642
0.00603611 -4.39565e-05 0.000279977
0.00556926 0.000152678 0.000176062
0.00611222 -0.000188518 5.33709e-05
0.00617805 0.000152017 0.000204354
0.00608055 -0.000292388 8.41712e-06
0.00602282 -4.22223e-05 0.000263153
0.00577454 -4.39228e-05 0.000260573
0.00601689 1.06039e-05 0.000208226
0.00620448 1.9328e-05 9.81311e-05
0.00618337 -3.11066e-06 0.000251074
0.00546095 2.2742e-05 0.000142546
0.00593203 -1.92295e-05 0.000252893
0.0060697 -5.71138e-06 0.000213373
0.00564312 -0.000212708 1.33794e-05
0.005506 7.58251e-05 0.000204759
0.00558298 -0.000240376 2.58893e-05
0.00580121 -0.000194259 0.00030586
0.00621986 -0.000290969 3.87229e-05
0.00565083 0.000225411 -0.000205164
0.00621994 3.56587e-05 -0.000287009
0.00626813 9.23859e-05 0.000130069
0.00603222 0.000125134 0.000208103
0.0061557 -0.000260263 3.24518e-05
0.00594067 -5.54152e-06 -0.000303125
0.00573505 -0.000101721 9.65007e-05
0.00573697 -0.000207207 3.00346e-05
0.00578973 -1.30611e-05 -8.73407e-05
0.00574428 -0.000180596 0.000105519
0.00594537 -0.000217743 1.86684e-05
0.00608843 -0.000324778 9.28661e-05
0.00534373 0.000114465 -0.00014278
0.0062209 3.84949e-05 1.73174e-05
0.00560843 0.000431345 -0.000310009
0.00544649 5.34226e-05 0.000161394
0.00552238 -0.000121405 -2.88325e-05
0.00547972 0.000126655 0.000190266
0.00593767 1.3196e-05 0.000204897
0.00593985 -0.00023311 3.62032e-05
0.00532046 -0.000198461 3.36673e-05
0.00598701 -0.000246995 1.06051e-05
0.00533605 -0.000341446 9.02043e-05
0.00590747 -0.000241053 1.66398e-06
0.00558676 0.000324538 -0.00025454
0.0060711 4.05209e-05 0.000147223
0.00564548 0.000249295 -0.000214627
0.00553388 -0.000215054 1.88064e-05
0.00582793 -0.000279051 5.25836e-05
0.00597998 3.08951e-05 0.000145023
0.00609272 -0.000280101 3.46203e-05
0.00526522 -0.000328365 8.35227e-05
0.00516068 0.000102059 -0.00018712
0.00543948 -0.00011111 -3.01011e-05
0.00550692 0.000106248 0.000167316
0.00575088 -0.000131473 -2.28515e-05
0.00583597 1.10553e-05 0.000259126
0.00563105 2.61665e-05 0.000224179
0.00544326 0.000111152 -0.000142713
0.0057844 0.000132769 -0.000159146
0.00563126 0.000161242 -0.000170279
0.0061586 -3.41548e-08 -0.000270932
0.00570254 0.00021122 -0.000186933
0.00575044 -7.22522e-05 0.00025135
0.00582857 0.000287306 -0.000319709
0.00585305 -0.00021389 3.49593e-05
0.00575555 2.36928e-05 0.000165439
0.00572285 -0.000263102 0.000131199
0.00567174 -0.00025664 -9.52385e-06
0.00541967 -0.00019528 2.24481e-05
0.00573329 0.000135987 -0.000162823
0.0061519 -5.45978e-05 0.000270627
0.00557405 3.52394e-05 0.000206779
0.00538295 -0.000203492 2.1298e-05
0.0055551 -6.40431e-05 0.000233419
0.00527809 -0.000318576 7.94595e-05
0.00639348 0.000151732 3.38048e-05
0.00569729 0.000140472 -0.000161912
0.00546309 -0.000119492 9.64751e-05
0.00553304 9.35885e-05 0.000223887
0.00611475 7.59555e-05 -0.000135413
0.00564384 -0.00029048 5.85076e-05
0.00557705 1.76833e-05 0.000203629
0.00595807 -0.000258345 4.13152e-05
0.00609785 -0.000325677 9.57806e-05
0.00529659 -0.000369258 0.000105877
0.00568146 -0.000108361 0.000352925
0.00616969 -0.000245324 2.88143e-05
0.00592906 -0.000269044 4.63795e-05
0.00604492 -9.99635e-06 -0.000285415
0.00609758 -0.000316734 9.01032e-05
0.00553424 3.5998e-06 0.000206501
0.00615351 0.000223126 0.000191434
0.00565776 -0.000140585 0.000133451
0.00623666 0.000847412 -0.000164915
0.00612062 -4.97072e-05 0.000398492
0.00549864 -0.000137084 9.62084e-05
0.0059003 -0.000240785 2.18928e-05
0.00565631 -0.000324855 0.000101413
0.00558524 -0.000280668 5.96186e-05
0.00584586 -0.000235655 6.56155e-05
0.00577687 -0.000180891 -1.06807e-06
0.00602781 7.75695e-05 8.55086e-05
0.006277 -0.000170336 -0.000114759
0.00581265 -0.000200247 4.14165e-05
0.00592207 -0.000233688 3.11016e-05
0.00546959 -0.000143661 0.000101994
0.00607664 -0.000324365 9.67728e-05
0.00576313 -0.000284787 7.4384e-05
0.00562762 -0.00015605 0.000108388
0.00576947 -0.000228884 0.000120139
0.00606384 -0.000289875 6.83643e-05
0.00608695 -0.000321587 9.39614e-05
0.00545821 -0.000213826 2.25343e-05
0.00596634 -0.00026877 6.20368e-05
0.00530076 -0.000156358 -6.93022e-05
0.0054443 -0.000124133 9.76036e-05
0.00603339 -8.25879e-05 4.641e-05
0.00546782 -0.000186239 0.000111583
0.00577958 -0.000235941 0.000127836
0.00541549 -0.0001534 -7.31035e-06
0.00559727 -0.000218639 0.000123479
0.00601933 3.57119e-05 0.000169984
0.00582558 -0.000505309 -0.000108597
0.00539801 -0.00024979 3.79085e-05
0.00585343 -0.000228559 -8.32431e-06
0.00591828 -0.000370789 -0.000150044
0.00562194 9.88892e-05 0.000195105
0.00589686 -0.000238534 1.17083e-05
0.00566369 -0.000233692 3.16366e-05
0.00565332 -0.000188742 0.000115814
0.00576826 -0.000210961 3.99156e-05
0.00587851 -0.000276045 -0.000165849
0.00568708 0.000319178 -0.000246655
0.00566229 -0.000354073 8.10488e-07
0.0062189 0.000170649 1.70171e-06
0.00590347 -0.000219291 2.7938e-05
0.00585799 -0.000201208 1.63326e-05
0.00589234 -0.000389179 -0.000141753
0.00589445 -0.000336229 -0.000145947
0.00549155 -0.000238516 4.66031e-06
0.00592595 -0.000376913 -0.000156327
0.00578141 -0.000216602 3.83727e-05
0.00551699 -0.000109775 4.48195e-05
0.00579334 -0.000219755 2.77632e-05
0.00573151 0.000254617 -0.000222216
0.00550495 -0.000136239 0.000100371
0.00560045 -0.000208968 0.000119477
0.00617863 0.000124782 -0.000113706
0.00558646 -0.000209315 0.000119475
0.00546242 -0.000100712 9.1969e-05
0.00559803 -0.00048152 -3.03427e-05
0.00600144 -0.000327286 -0.000169081
0.00577141 -0.0001714 4.4537e-05
0.00567092 -6.94703e-05 0.000310465
0.00582601 -0.000285637 4.53885e-06
0.00558993 -3.68608e-05 7.90883e-05
0.0061131 5.61846e-05 0.000138851
0.0057868 -0.000183277 3.82504e-05
0.00641983 0.000503686 6.8704e-05
0.00607529 -4.30653e-05 0.000264657
0.00583976 -0.000164926 5.04653e-05
0.00624084 0.000116746 -0.000234894
0.00575939 -0.000245847 2.79196e-05
0.0057468 0.00013791 -0.000166369
0.00571579 -0.000269549 6.16432e-05
0.00542413 -0.000173647 0.000108793
0.00559799 -6.4247e-05 0.000298647
0.00591565 -0.000201946 4.26527e-05
0.0053921 -0.000201419 1.93123e-05
0.00534407 -0.000255917 4.36238e-05
0.00574176 -0.000279144 6.94055e-05

VECTORS force float
-2.6259e-10 5.17597e-10 -9.14756e-10
1.21859e-09 9.51014e-10 5.08982e-10
-2.61834e-09 4.21049e-09 -1.04799e-09
9.91018e-11 6.5014e-10 -1.33094e-09
-8.4197e-11 -1.57977e-09 -1.75345e-10
5.00356e-10 -2.74716e-10 3.55966e-10
-1.99812e-09 -1.21338e-09 3.11557e-10
-7.09215e-12 -1.31801e-10 6.40651e-11
4.95833e-10 5.55933e-10 -1.49442e-10
-4.05651e-09 -2.57732e-09 7.58548e-10
-1.4209e-09 -2.40819e-10 5.98552e-11
4.91643e-11 4.99476e-10 -9.02386e-10
-6.91492e-10 -2.11783e-09 1.64641e-09
8.40314e-12 1.63608e-10 -4.03477e-12
1.02699e-09 5.41568e-11 2.25572e-10
6.16433e-11 -1.1498e-10 1.44492e-10
-3.89593e-10 -1.49645e-11 -1.69469e-09
2.17732e-09 1.27234e-10 6.87109e-11
-7.03879e-10 4.16518e-10 -8.96152e-12
5.66045e-10 -2.30168e-10 -1.46901e-10
1.12023e-09 3.73109e-11 -3.18532e-10
-3.44042e-09 -1.93782e-09 1.966e-09
-3.31657e-10 -1.18694e-09 3.19974e-11
-1.09815e-09 2.50996e-09 2.09292e-09
-8.3007e-11 -1.30609e-10 1.11629e-10
-3.01306e-09 1.74871e-09 6.16245e-10
3.58734e-10 -1.71849e-10 -9.13434e-11
-2.91601e-10 -1.35427e-10 4.70975e-11
3.67205e-10 -5.97629e-10 -9.50171e-12
8.73063e-10 -1.11891e-09 3.75095e-10
2.14311e-10 -1.92317e-09 -1.3569e-10
-1.01481e-09 -6.92468e-10 5.5708e-10
-3.83148e-10 -2.0563e-11 2.17037e-11
-1.32885e-09 -4.13589e-10 -5.15894e-11
6.78273e-10 1.70135e-10 6.02672e-11
8.91452e-10 1.46842e-10 6.07297e-10
5.06502e-10 -5.98337e-10 3.8987e-10
-1.54012e-09 1.39673e-10 -1.38806e-10
3.60534e-10 -3.61279e-10 1.42845e-10
6.40389e-10 -2.83067e-10 9.54363e-10
1.00415e-09 -5.16e-10 1.8414e-10
3.7353e-09 9.40353e-10 -1.96805e-10
-7.32473e-10 2.14923e-09 6.99397e-10
3.48429e-10 4.61215e-10 -6.2197e-10
3.00515e-10 1.4084e-10 5.71736e-11
1.26205e-10 7.38908e-10 -2.87598e-10
5.87318e-10 8.98026e-10 -4.42268e-10
-2.33025e-09 -3.83614e-10 1.1553e-12
-7.9281e-10 -1.36429e-09 5.3384e-10
-1.97892e-09 -3.74815e-10 1.6394e-10
-1.16929e-09 -4.9044e-10 -3.77546e-10
-1.71166e-09 -4.62799e-10 1.2474e-09
-9.14261e-10 -1.7703e-10 2.52632e-10
-4.15036e-10 2.24026e-09 2.97439e-10
2.70236e-10 1.17351e-09 -3.91413e-10
-7.73303e-10 3.11376e-09 -7.94473e-10
8.75651e-10 -3.63281e-10 3.11484e-10
-1.12419e-09 3.57705e-10 2.62809e-10
6.69479e-10 -7.5e-11 -2.96543e-10
-8.89977e-10 5.38489e-09 -3.46295e-09
3.01337e-10 -3.94023e-10 5.21309e-11
5.86405e-10 4.74319e-10 5.46365e-11
-4.91245e-10 -8.06592e-10 9.97928e-11
7.97205e-10 -3.0304e-09 1.31904e-09
8.28961e-10 3.78313e-10 -6.48657e-11
1.30517e-09 -4.19806e-10 2.42834e-09
6.45442e-10 3.40676e-10 -1.48269e-10
3.90464e-10 -4.04519e-11 1.7921e-09
-1.34797e-09 5.94212e-10 -1.93018e-10
3.0178e-09 -3.57827e-10 2.21649e-10
2.81368e-09 -6.88664e-10 -1.37982e-10
2.15935e-10 5.62297e-10 -1.84811e-11
-3.37901e-10 2.00443e-09 -6.04552e-10
2.4477e-10 -4.52221e-10 -2.42449e-09
9.1417e-10 1.26596e-09 5.4574e-10
6.5172e-10 4.45607e-10 -1.70823e-09
-1.58808e-09 -3.4989e-09 -9.48594e-10
-4.19992e-11 1.04906e-09 -3.61748e-10
2.33135e-09 3.67625e-10 -7.07137e-10
1.93262e-09 3.21862e-11 -1.2874e-10
8.18407e-10 -1.00352e-09 1.88304e-11
-1.92482e-09 1.46005e-09 -3.91774e-10
9.15068e-10 -8.10271e-10 4.67964e-10
2.87996e-10 1.341e-09 8.34642e-11
3.47344e-10 3.00503e-09 -1.04018e-09
-5.77527e-10 2.62577e-10 -9.85459e-11
8.55767e-10 -1.61958e-09 2.78918e-10
-1.29301e-09 8.98229e-10 -4.39331e-10
-4.1395e-10 -3.76009e-10 1.48948e-11
-2.49768e-10 -5.14818e-10 -1.65012e-10
1.79278e-09 -3.74152e-10 -7.67165e-11
-5.72483e-10 -2.69842e-10 -2.24307e-10
-1.41578e-10 -2.05684e-09 4.11879e-10
2.06492e-09 2.78338e-09 3.44209e-09
-1.2568e-09 1.67306e-10 -3.98259e-10
2.51861e-09 -9.84957e-11 9.47827e-10
1.75704e-09 4.7534e-10 6.08991e-10
-2.78493e-10 -5.58037e-09 2.87766e-09
-7.05392e-10 -2.6599e-10 -1.92817e-10
-6.90883e-11 -2.99703e-10 1.45925e-10
-2.59506e-09 -8.25332e-10 1.41438e-10
-4.88671e-10 -2.21543e-12 -9.34479e-10
3.96763e-10 1.2771e-10 5.05541e-10
-4.86934e-10 1.72923e-10 5.30739e-11
-7.79588e-12 8.11563e-10 -2.67093e-10
1.13843e-09 2.06212e-09 -6.57627e-10
3.98115e-10 -1.21589e-09 -2.68899e-09
7.23772e-10 -2.10479e-09 7.3773e-10
-9.92415e-11 -1.49061e-10 -1.01267e-09
-5.35707e-10 -2.84696e-10 1.66319e-10
-1.45411e-10 5.92674e-10 -2.432e-10
3.20618e-10 -1.33277e-09 1.49204e-09
3.25779e-10 -2.64287e-09 1.68614e-09
-1.12391e-09 -7.93019e-10 7.23471e-10
2.45978e-10 -3.97911e-10 -3.91488e-11
-9.01651e-10 2.21148e-09 -2.53853e-09
-2.70753e-10 6.21145e-10 -5.9196e-10
2.58601e-09 -6.34741e-10 -1.10564e-09
-3.84536e-09 1.58659e-09 -6.96098e-11
-1.58556e-09 -7.44611e-10 -8.60543e-11
-7.60111e-10 1.08099e-09 -4.69265e-10
-1.88321e-10 -1.01245e-09 -8.549e-11
-1.69507e-10 1.63468e-09 -5.46164e-10
2.43823e-10 5.48875e-10 -1.44189e-09
8.19882e-10 -2.00879e-10 -2.21375e-10
8.30563e-10 -1.466e-09 -2.63151e-09
3.15725e-10 1.91539e-09 -4.66277e-10
-1.80527e-09 5.72854e-11 -7.50902e-10
-2.18056e-09 1.95141e-09 -7.36798e-10
1.02616e-09 -2.10468e-10 -1.68236e-10
-2.16042e-10 -1.03252e-10 -4.12159e-10
1.06053e-09 -6.08628e-10 1.14192e-09
7.73131e-10 2.68732e-10 2.93319e-10
-5.19208e-10 -1.02776e-09 2.69224e-09
-1.60811e-09 9.95356e-10 -3.98742e-10
-9.40594e-10 -3.33375e-10 -6.01408e-10
-7.44974e-11 1.34782e-09 2.18327e-09
7.21312e-10 6.40206e-10 -3.55413e-10
1.01879e-09 6.47145e-11 1.79282e-11
-1.08113e-09 1.31555e-09 -5.38033e-10
1.91325e-09 -1.25098e-09 -8.1974e-10
7.19629e-10 7.04505e-10 2.2482e-10
2.35686e-11 -2.21531e-10 -1.22935e-09
1.55621e-09 8.98628e-10 -1.01692e-09
-9.52974e-10 8.83922e-10 -3.95653e-10
5.796e-10 -1.3926e-09 -1.76607e-09
2.8814e-09 7.42464e-12 5.20062e-10
2.61334e-10 2.1773e-09 -5.94318e-10
-1.30454e-11 6.01666e-10 -1.3752e-10
-3.73922e-10 6.30589e-10 -2.86895e-10
9.8886e-11 3.34471e-10 5.30219e-10
-1.59241e-09 -1.02067e-09 6.53459e-10
-3.09718e-10 -8.36324e-10 7.8412e-10
1.86755e-09 -1.04577e-09 5.22016e-10
-4.38164e-11 -7.70321e-10 -2.6757e-10
3.65103e-09 -2.86531e-09 1.38087e-09
-9.10115e-10 3.21831e-10 1.62515e-09
1.46126e-09 -2.05907e-09 1.24078e-09
-1.59364e-10 -1.83236e-09 -4.29046e-10
5.99696e-11 3.59097e-12 3.70149e-10
-1.25001e-09 5.29286e-10 -2.78679e-10
-2.00819e-10 -4.9859e-11 3.61663e-11
-5.05239e-10 2.27724e-10 -4.01695e-10
-2.28729e-09 -1.43245e-09 7.3266e-10
8.71284e-10 -6.99681e-10 4.23994e-12
-5.40867e-10 -4.16456e-10 1.86868e-10
-6.99115e-10 8.89608e-11 -1.04411e-09
-6.22624e-10 -1.08282e-09 9.65059e-10
-8.47202e-10 8.07656e-10 -6.23505e-10
-2.34801e-09 -2.08255e-09 1.19576e-09
-1.83852e-09 -1.41463e-09 -1.36222e-09
-3.50138e-09 -1.29873e-09 1.12143e-09
8.05411e-10 6.08706e-10 -1.53962e-10
-4.83277e-09 4.45758e-09 -2.22575e-09
-5.35027e-10 6.10956e-11 -6.73539e-11
6.12632e-10 -6.7451e-10 -2.35026e-10
7.71559e-10 -7.98976e-10 4.86822e-10
2.44996e-09 1.32731e-09 3.01669e-10
-3.32931e-12 -2.11163e-10 -7.15772e-10
2.79084e-10 -5.10633e-10 1.07341e-10
-2.8447e-09 6.21275e-10 -8.94811e-11
-3.79732e-10 1.22944e-09 -2.96659e-10
1.7033e-09 4.2241e-10 -7.32324e-10
4.79067e-10 1.16911e-09 -8.19786e-10
-1.69514e-10 -3.4142e-10 1.9017e-10
-2.3125e-10 3.6123e-09 -1.89791e-09
-1.78587e-09 1.97117e-09 4.73309e-10
-1.23814e-09 -1.35385e-09 1.48386e-09
5.56154e-10 -1.91232e-09 5.57025e-11
6.20286e-11 8.29348e-12 -9.55982e-10
1.65902e-09 1.03748e-09 2.77713e-10
-2.94114e-09 2.13115e-09 -1.15309e-09
1.441e-10 -3.8988e-10 1.00298e-10
9.21524e-10 1.61637e-09 -4.41063e-10
5.52268e-10 1.45695e-09 -1.14661e-10
2.34054e-10 -7.59499e-10 1.15639e-10
-1.33108e-09 -2.09897e-09 8.68695e-10
2.05475e-09 3.62736e-10 -1.223e-09
-2.17842e-09 2.53499e-09 -1.31531e-09
-3.8213e-11 5.04524e-10 -1.25827e-10
3.61099e-10 -3.27873e-09 5.87634e-11
1.21379e-09 1.02786e-09 -7.51565e-10
-1.72212e-09 -1.21713e-09 7.46796e-10
-8.42382e-10 4.26747e-10 2.50438e-10
-2.21741e-09 -1.46444e-09 3.51646e-10
-1.41064e-10 -4.96451e-11 1.50147e-09
2.8018e-09 1.10549e-09 -4.46226e-10
9.41319e-10 -4.48276e-10 4.32336e-10
-2.55294e-09 -7.76218e-10 -2.95699e-10
-1.23763e-09 -1.52967e-09 6.06397e-10
-2.40246e-10 -1.39201e-10 -3.73697e-09
2.86764e-10 1.66981e-10 -1.69868e-10
-2.77391e-10 -1.34186e-10 5.72783e-11
2.85756e-10 2.85207e-10 -5.07762e-10
2.00457e-10 1.74846e-09 4.23088e-09
-1.1487e-09 -1.18966e-09 8.03912e-10
-4.18257e-10 -4.11836e-10 -7.92826e-10
-2.0997e-09 -7.60748e-10 1.12373e-09
-2.38948e-10 3.73261e-10 4.70119e-10
-6.78433e-10 6.08076e-10 1.20214e-09
9.08143e-11 -1.36595e-09 4.12221e-10
2.14202e-10 7.32868e-11 7.00587e-11
1.14417e-09 6.24375e-10 1.64343e-09
-2.9932e-09 8.5992e-10 -1.80324e-09
-7.88413e-10 4.2024e-10 -8.84316e-10
-9.33353e-10 2.19924e-09 5.56263e-10
-6.21766e-10 -1.91346e-10 2.75881e-10
1.77455e-10 2.59089e-10 -6.7305e-11
7.7769e-11 1.82578e-10 -1.3807e-10
7.50241e-11 9.8519e-11 9.06885e-11
1.11281e-10 1.57438e-10 2.27671e-10
5.17607e-10 -7.04612e-10 -3.41075e-10
2.10497e-10 2.41053e-10 -1.54217e-10
-1.08865e-10 -3.50233e-10 2.10975e-10
-2.23484e-10 -2.00025e-10 6.45533e-11
7.34065e-10 1.63213e-12 -1.05525e-10
-1.98686e-10 -3.43497e-10 6.19059e-10
-9.40966e-10 2.65875e-10 -4.92049e-11
-9.10878e-10 -2.81378e-10 4.87333e-09
-1.54427e-10 -2.15847e-09 4.83901e-10
1.77817e-10 -8.79719e-10 3.79951e-11
1.37922e-09 -3.87417e-09 1.88362e-09
1.39397e-09 -2.0943e-09 5.21934e-10
-8.05551e-10 1.03185e-09 -1.29418e-09
1.82044e-09 -1.4122e-10 -3.9975e-10
9.39216e-10 -1.37393e-09 3.81348e-10
-9.867e-10 6.84708e-10 2.13994e-09
-4.87142e-10 -2.35089e-10 6.38717e-11
1.13085e-09 2.08179e-09 -7.1956e-10
-1.06385e-10 9.44583e-12 1.48141e-09
-9.47458e-10 -1.82917e-09 7.90257e-10
-2.23495e-09 2.17343e-10 1.15399e-10
-2.33768e-10 1.88551e-09 4.88937e-10
9.72838e-10 2.82735e-09 -6.89984e-10
2.0717e-09 -2.62595e-09 9.59756e-10
3.44932e-10 1.73263e-09 5.55495e-10
2.31133e-09 -1.23925e-10 -5.29458e-10
-1.20462e-09 1.07917e-09 3.6843e-10
-4.40683e-10 2.06453e-11 2.38242e-09
-5.45478e-11 -1.47676e-09 1.65184e-09
-5.45015e-11 2.24735e-10 7.40059e-10
1.93964e-09 4.72519e-10 3.64244e-10
-5.85679e-10 9.14449e-10 -3.3295e-10
-2.01237e-10 1.45393e-09 5.99879e-10
-1.03134e-11 -6.82964e-11 2.71029e-11
-2.52793e-10 1.04432e-09 9.10511e-10
-1.7607e-09 1.34766e-09 -6.8667e-10
-6.14187e-10 2.34255e-10 -8.68133e-11
1.90188e-12 7.51418e-11 2.1376e-11
-1.02204e-09 -2.16123e-11 -8.49482e-10
3.03451e-10 2.7648e-10 -5.77786e-11
-6.34717e-10 -6.23839e-10 1.79062e-10
-1.95486e-11 -4.00946e-10 2.56612e-10
-1.5686e-09 1.26522e-09 -1.83187e-10
5.55548e-10 2.68507e-09 4.82787e-10
-2.32827e-09 -6.37191e-10 7.77778e-10
9.03517e-12 1.68646e-09 1.98971e-09
-1.10482e-10 8.41174e-10 -1.57434e-10
5.71847e-10 -2.22792e-11 -7.58037e-10
6.9392e-10 1.19277e-09 1.07004e-09
-1.52559e-09 6.74045e-10 -2.83684e-09
-8.3943e-10 1.71721e-10 -1.38053e-10
-1.39989e-09 2.13671e-09 5.78827e-10
6.5826e-10 2.61821e-09 -6.72693e-10
1.33568e-09 2.49466e-10 4.10519e-10
-4.54943e-09 4.22426e-09 -1.86081e-09
1.58976e-09 -5.4136e-12 -1.5711e-11
-1.0479e-10 6.43561e-10 -1.18396e-10
-4.01797e-10 -7.20982e-10 8.21289e-10
-8.80296e-10 1.44845e-09 3.82504e-10
1.04209e-09 1.84763e-10 4.51278e-11
-5.5204e-10 -1.19276e-09 7.20185e-10
2.18609e-10 4.06992e-11 -2.6895e-11
