# vtk DataFile Version 3.0
LIGGGHTS particles timestep 4000000
ASCII
DATASET POLYDATA
POINTS 293 float
0.0359758 0.0158898 0.00825741
0.0305391 0.0165111 0.00771525
0.0365934 0.017572 0.00719647
0.0360167 0.0160109 0.00810363
0.0421483 0.0164634 0.00769795
0.042027 0.0161016 0.0081607
0.0358952 0.0156499 0.00856713
0.0426034 0.0185053 0.00701759
0.0361441 0.0164741 0.00776221
0.0370281 0.0168445 0.00755175
0.0365315 0.0165822 0.00769668
0.0360572 0.0161316 0.00794942
0.0297854 0.0152953 0.00897692
0.0363175 0.0171693 0.00740664
0.0300133 0.0154255 0.00874946
0.0361007 0.0163007 0.00785192
0.0362504 0.0161796 0.0079059
0.0368976 0.0173379 0.00730895
0.0362072 0.0160546 0.00805695
0.0367241 0.0166364 0.00766424
0.0307761 0.0166993 0.00753412
0.0421909 0.0166488 0.00763611
0.036442 0.0162689 0.00792185
0.0422335 0.0168341 0.00757427
0.036359 0.0173432 0.00731701
0.0423188 0.0172049 0.00745059
0.0425979 0.0176392 0.00731308
0.0362308 0.0168222 0.0075853
0.036424 0.0168764 0.00755335
0.0368346 0.0163455 0.00780689
0.0367904 0.0161857 0.00791881
0.0365743 0.0167576 0.00761063
0.0425655 0.0183187 0.00707861
0.0363812 0.0167021 0.0076415
0.0362939 0.0163537 0.00781757
0.0421102 0.0163377 0.0078488
0.0367454 0.0174551 0.00725363
0.0363598 0.0159712 0.00817279
0.036618 0.0169314 0.00752086
0.0364871 0.0164079 0.00778516
0.0369213 0.0166945 0.00762978
0.037047 0.0172172 0.00736467
0.042404 0.0175756 0.00732691
0.0359353 0.015769 0.00841159
0.0365089 0.0172244 0.00737539
0.0364733 0.0178617 0.00704997
0.0364674 0.0170504 0.00746474
0.0367844 0.0176295 0.00716381
0.0298251 0.0154028 0.00881302
0.0424688 0.0170818 0.00749901
0.0361257 0.0158127 0.00836497
0.0298635 0.0155157 0.00865248
0.0360062 0.0154533 0.00883025
0.0422761 0.0170195 0.00751243
0.0369367 0.0175126 0.00721982
0.0423614 0.0173902 0.00738875
0.0366813 0.0164621 0.00775271
0.036167 0.0159336 0.00821105
0.0366603 0.0171061 0.00743089
0.0364378 0.0176867 0.00714005
0.0424467 0.0177609 0.00726507
0.0362741 0.0169958 0.00749606
0.0301999 0.0166475 0.00757318
0.0369667 0.0170154 0.00746788
0.0363372 0.0165278 0.00772922
0.0297486 0.015212 0.00915496
0.0425278 0.0181324 0.00714095
0.029727 0.015142 0.00934103
0.0368206 0.0178053 0.00707329
0.0368518 0.017163 0.00739714
0.0424885 0.0179464 0.00720314
0.0361874 0.016648 0.00767348
0.0369728 0.017688 0.00713087
0.0368312 0.0186969 0.00717623
0.0299445 0.0157977 0.00838064
0.0302219 0.0161297 0.00807102
0.0313883 0.0185622 0.00693743
0.0304797 0.0170548 0.00737658
0.0303501 0.016552 0.00766428
0.0300721 0.0162215 0.00797562
0.042512 0.0172677 0.00743699
0.0363998 0.01753 0.00725844
0.0368772 0.0165197 0.00771848
0.0365901 0.0184429 0.00710533
0.037077 0.0165117 0.00771702
0.0310239 0.0171294 0.00733137
0.0371575 0.0170669 0.00743688
0.0368519 0.017994 0.00699125
0.036875 0.0188858 0.00722676
0.0367203 0.019009 0.00725672
0.0425548 0.0174534 0.00737506
0.0302408 0.016796 0.00744559
0.0366333 0.0186315 0.00715577
0.030307 0.0164112 0.00779991
0.0365514 0.0160173 0.0081235
0.0358165 0.0154115 0.00887854
0.0306238 0.0167937 0.00744521
0.0314415 0.0172774 0.0072713
0.0360456 0.0155726 0.00867463
0.029903 0.0156568 0.0085164
0.0305618 0.0174303 0.00726578
0.0299874 0.0159384 0.00824516
0.0357774 0.0152921 0.00903445
0.0312066 0.0172074 0.00730727
0.0368967 0.0181879 0.00704314
0.0367474 0.0183188 0.00707607
0.0301572 0.0165015 0.00770295
0.0307519 0.0174884 0.00724106
0.0307325 0.0165629 0.00767548
0.030982 0.017735 0.00716106
0.0372002 0.0179317 0.00700262
0.0358557 0.0155307 0.0087228
0.0306027 0.0176181 0.00721063
0.0367417 0.0160657 0.00807121
0.0366372 0.0162882 0.00784132
0.0360853 0.0156921 0.00851927
0.0365126 0.0180571 0.00706673
0.0304551 0.0162334 0.00798259
0.0365485 0.0173987 0.00728561
0.0365869 0.0161391 0.00796808
0.031187 0.0170191 0.00737147
0.0361312 0.0164706 0.00796176
0.0367062 0.01813 0.00702472
0.030179 0.0159921 0.00820969
0.0367713 0.0168144 0.00757388
0.0300294 0.0160792 0.00810951
0.0365516 0.0182529 0.00705597
0.0363984 0.0161075 0.00803161
0.0370094 0.0178633 0.00704182
0.0363774 0.0165031 0.00792357
0.0300963 0.0157073 0.00847796
0.036788 0.0185082 0.0071258
0.036938 0.018377 0.00709365
0.0300195 0.0152243 0.0090842
0.0366326 0.0177476 0.00710928
0.0301377 0.0158481 0.00834221
0.0303227 0.0171764 0.00735288
0.0367 0.0172811 0.00734254
0.0305658 0.0183228 0.00701194
0.0371303 0.0175762 0.00718266
0.0302643 0.0162705 0.00793545
0.0308224 0.0168646 0.00743147
0.0366769 0.0188204 0.00720628
0.0306529 0.0162594 0.00796845
0.0366701 0.0179349 0.00705011
0.0301145 0.0163607 0.00783843
0.0305294 0.0163681 0.00785479
0.0245104 0.0180655 0.00716421
0.0305212 0.0172424 0.00732093
0.0307955 0.0171253 0.00734237
0.0244601 0.0169899 0.00740163
0.0313716 0.0177194 0.00714872
0.0240548 0.0161427 0.00800291
0.0312954 0.0174104 0.00723982
0.0370226 0.0187547 0.00719455
0.031533 0.0169956 0.00739756
0.0368362 0.0167162 0.00780945
0.0308949 0.0182517 0.00701808
0.0364317 0.0172283 0.00755986
0.0300546 0.0155664 0.00861368
0.031196 0.0186172 0.00693529
0.0306744 0.017749 0.00734376
0.0363197 0.0158505 0.00832714
0.030711 0.0173006 0.00729621
0.036278 0.0157294 0.00848072
0.0313737 0.0171034 0.00734279
0.0304614 0.0160909 0.0081227
0.0309848 0.0167573 0.00747766
0.0304046 0.017551 0.00723954
0.0310943 0.0181188 0.00704716
0.0303932 0.0166952 0.00752698
0.0312661 0.0182291 0.00700841
0.0310221 0.0175461 0.00721304
0.0313093 0.0165841 0.00763433
0.0310931 0.0173658 0.00726252
0.0367451 0.0169972 0.00766055
0.0304389 0.0168698 0.00744085
0.0300055 0.0161049 0.00835447
0.0365736 0.0165586 0.00789079
0.0312166 0.017588 0.00719273
0.0311805 0.0177776 0.00714039
0.0306653 0.0169825 0.00739384
0.0369792 0.0185661 0.00714417
0.0309403 0.0166248 0.00762067
0.0362283 0.0166254 0.00786793
0.0311018 0.0165361 0.00769837
0.0310425 0.0188486 0.00697194
0.0299772 0.01534 0.00892662
0.0248525 0.0180006 0.007176
0.0303644 0.0173647 0.0073001
0.0304454 0.0177385 0.00718319
0.0311664 0.0168367 0.00745094
0.037087 0.0182467 0.00706175
0.0364225 0.0166776 0.00783566
0.0305125 0.0178703 0.00731785
0.0362749 0.0169841 0.00769571
0.0307924 0.0176763 0.00718591
0.0308487 0.0161675 0.00806965
0.0310042 0.0169417 0.0073975
0.0244713 0.0178716 0.00719416
0.0366214 0.0172926 0.00752609
0.0312313 0.0179771 0.00708151
0.0310419 0.0179178 0.00710652
0.0364638 0.0168528 0.00774791
0.0312445 0.0184241 0.00695392
0.0240114 0.0159859 0.0081192
0.0309106 0.0172891 0.00729087
0.0359668 0.0153341 0.00898595
0.0313972 0.0180824 0.00704443
0.0310843 0.018311 0.00699296
0.0305812 0.0166519 0.00757961
0.0242897 0.0163512 0.00785416
0.0362736 0.0167991 0.0077793
0.0307189 0.0164189 0.00781588
0.0302816 0.0169865 0.00740041
0.042067 0.0162184 0.00800334
0.023968 0.0158297 0.00823631
0.0296704 0.0150796 0.00952242
0.0308098 0.0185934 0.00692453
0.0296274 0.0150083 0.00970428
0.0307079 0.018186 0.00704469
0.0244187 0.0168298 0.00751507
0.0303164 0.0169602 0.00759559
0.0306592 0.0161168 0.00810857
0.0367067 0.0159442 0.0082262
0.0311008 0.0190565 0.00701861
0.0309602 0.0184635 0.00695627
0.0246236 0.0177436 0.00721482
0.0241416 0.0164613 0.00777718
0.0242701 0.0169395 0.00743838
0.0245024 0.0171646 0.00731405
0.0247025 0.0181312 0.00715495
0.0243332 0.0165105 0.00774129
0.0240982 0.016302 0.00789004
0.0305231 0.018115 0.00707284
0.0243767 0.0166699 0.00762836
0.0360801 0.0163006 0.00805388
0.0245834 0.01755 0.00724472
0.0303009 0.0167809 0.00768278
0.0247732 0.0176126 0.00723594
0.0245502 0.0182592 0.00713429
0.0308406 0.0178759 0.00712712
0.0248132 0.0178069 0.00720594
0.0303731 0.0159602 0.00824573
0.0250423 0.0180632 0.00716723
0.0306826 0.0179955 0.00709993
0.0308503 0.018789 0.00694633
0.0246315 0.0186467 0.00707218
0.0371218 0.0166855 0.00762878
0.0306427 0.0187029 0.00691419
0.030905 0.0180595 0.00707217
0.0246627 0.0179375 0.00718487
0.0309801 0.0193611 0.00707257
0.024591 0.0184535 0.00710428
0.031146 0.0166656 0.00755242
0.0308096 0.0194653 0.00708201
0.0308424 0.0163101 0.00792953
0.0310002 0.0186576 0.00692989
0.0306808 0.0188945 0.00695661
0.0248928 0.0181944 0.00714608
0.0247427 0.0183248 0.00712505
0.030579 0.0182582 0.00720075
0.0247832 0.0185178 0.00709148
0.0309368 0.0191704 0.00703049
0.0184774 0.0178913 0.00705191
0.0308926 0.01898 0.0069884
0.0313505 0.0169166 0.00742409
0.0245429 0.0173565 0.00727461
0.0243078 0.0170998 0.00732486
0.0308983 0.016487 0.00775932
0.024349 0.0172911 0.00728389
0.0244312 0.017678 0.00722406
0.0307708 0.0184038 0.0069802
0.0249333 0.0183871 0.00711116
0.0307664 0.0192716 0.00705729
0.0357381 0.0151729 0.00919016
0.0309177 0.0188389 0.00712793
0.0246503 0.01704 0.00736508
0.0305726 0.0159754 0.00824227
0.030723 0.0190855 0.00699818
0.0301277 0.016204 0.00823101
0.0370451 0.0180577 0.00701122
0.0312915 0.0189962 0.00701958
0.0310218 0.0163782 0.00787296
0.0306038 0.0185118 0.00695856
0.0313298 0.0167341 0.0075036
0.024185 0.0166206 0.00766432
0.0243901 0.0174846 0.00725394
0.035698 0.0150538 0.00934574
0.0312383 0.0188081 0.00697733
0.0304846 0.0179267 0.00712802
0.0306429 0.0178074 0.0071551
0.0242284 0.0167799 0.00755146

VERTICES 293 586
1 0
1 1
1 2
1 3
1 4
1 5
1 6
1 7
1 8
1 9
1 10
1 11
1 12
1 13
1 14
1 15
1 16
1 17
1 18
1 19
1 20
1 21
1 22
1 23
1 24
1 25
1 26
1 27
1 28
1 29
1 30
1 31
1 32
1 33
1 34
1 35
1 36
1 37
1 38
1 39
1 40
1 41
1 42
1 43
1 44
1 45
1 46
1 47
1 48
1 49
1 50
1 51
1 52
1 53
1 54
1 55
1 56
1 57
1 58
1 59
1 60
1 61
1 62
1 63
1 64
1 65
1 66
1 67
1 68
1 69
1 70
1 71
1 72
1 73
1 74
1 75
1 76
1 77
1 78
1 79
1 80
1 81
1 82
1 83
1 84
1 85
1 86
1 87
1 88
1 89
1 90
1 91
1 92
1 93
1 94
1 95
1 96
1 97
1 98
1 99
1 100
1 101
1 102
1 103
1 104
1 105
1 106
1 107
1 108
1 109
1 110
1 111
1 112
1 113
1 114
1 115
1 116
1 117
1 118
1 119
1 120
1 121
1 122
1 123
1 124
1 125
1 126
1 127
1 128
1 129
1 130
1 131
1 132
1 133
1 134
1 135
1 136
1 137
1 138
1 139
1 140
1 141
1 142
1 143
1 144
1 145
1 146
1 147
1 148
1 149
1 150
1 151
1 152
1 153
1 154
1 155
1 156
1 157
1 158
1 159
1 160
1 161
1 162
1 163
1 164
1 165
1 166
1 167
1 168
1 169
1 170
1 171
1 172
1 173
1 174
1 175
1 176
1 177
1 178
1 179
1 180
1 181
1 182
1 183
1 184
1 185
1 186
1 187
1 188
1 189
1 190
1 191
1 192
1 193
1 194
1 195
1 196
1 197
1 198
1 199
1 200
1 201
1 202
1 203
1 204
1 205
1 206
1 207
1 208
1 209
1 210
1 211
1 212
1 213
1 214
1 215
1 216
1 217
1 218
1 219
1 220
1 221
1 222
1 223
1 224
1 225
1 226
1 227
1 228
1 229
1 230
1 231
1 232
1 233
1 234
1 235
1 236
1 237
1 238
1 239
1 240
1 241
1 242
1 243
1 244
1 245
1 246
1 247
1 248
1 249
1 250
1 251
1 252
1 253
1 254
1 255
1 256
1 257
1 258
1 259
1 260
1 261
1 262
1 263
1 264
1 265
1 266
1 267
1 268
1 269
1 270
1 271
1 272
1 273
1 274
1 275
1 276
1 277
1 278
1 279
1 280
1 281
1 282
1 283
1 284
1 285
1 286
1 287
1 288
1 289
1 290
1 291
1 292

POINT_DATA 293
SCALARS id int 1
LOOKUP_TABLE default
1
3
4
5
6
7
8
9
10
11
12
13
14
15
16
17
19
20
21
22
23
24
25
26
27
28
29
30
31
32
33
34
35
36
37
38
39
40
41
42
43
44
45
46
47
48
49
50
51
52
53
54
55
56
57
58
59
60
61
62
63
64
65
66
67
68
69
70
71
72
73
74
75
76
77
78
79
80
81
82
83
85
86
87
88
89
90
91
92
93
94
95
96
97
98
99
100
101
102
103
104
105
106
107
108
109
110
111
112
113
114
115
116
117
118
119
120
121
122
123
124
125
126
127
128
129
130
131
132
133
134
135
136
137
138
139
140
142
143
144
145
146
147
148
149
150
151
152
153
154
155
156
157
158
159
160
161
162
164
165
166
167
168
169
170
171
172
173
174
175
176
177
178
179
180
181
182
183
184
185
186
187
188
189
190
191
192
193
194
195
196
197
198
200
201
202
203
204
205
206
207
208
209
210
211
212
213
214
215
216
217
218
219
220
221
222
223
224
225
226
227
228
229
230
231
232
233
234
235
236
237
238
239
240
241
242
243
245
246
247
248
249
250
251
252
253
254
255
256
257
258
259
260
261
262
263
264
265
266
267
268
269
270
271
272
273
274
275
276
277
278
279
280
281
282
283
284
285
286
287
288
289
290
291
292
293
294
295
296
297
298
299
300

SCALARS type int 1
LOOKUP_TABLE default
1
1
1
1
1
1
1
1
1
1
1
1
1
1
1
1
1
1
1
1
1
1
1
1
1
1
1
1
1
1
1
1
1
1
1
1
1
1
1
1
1
1
1
1
1
1
1
1
1
1
1
1
1
1
1
1
1
1
1
1
1
1
1
1
1
1
1
1
1
1
1
1
1
1
1
1
1
1
1
1
1
1
1
1
1
1
1
1
1
1
1
1
1
1
1
1
1
1
1
1
1
1
1
1
1
1
1
1
1
1
1
1
1
1
1
1
1
1
1
1
1
1
1
1
1
1
1
1
1
1
1
1
1
1
1
1
1
1
1
1
1
1
1
1
1
1
1
1
1
1
1
1
1
1
1
1
1
1
1
1
1
1
1
1
1
1
1
1
1
1
1
1
1
1
1
1
1
1
1
1
1
1
1
1
1
1
1
1
1
1
1
1
1
1
1
1
1
1
1
1
1
1
1
1
1
1
1
1
1
1
1
1
1
1
1
1
1
1
1
1
1
1
1
1
1
1
1
1
1
1
1
1
1
1
1
1
1
1
1
1
1
1
1
1
1
1
1
1
1
1
1
1
1
1
1
1
1
1
1
1
1
1
1
1
1
1
1
1
1
1
1
1
1
1
1
1
1
1
1
1
1
1
1
1
1
1
1
1
1
1
1
1
1

SCALARS radius float 1
LOOKUP_TABLE default
0.0001
0.0001
0.0001
0.0001
0.0001
0.0001
0.0001
0.0001
0.0001
0.0001
0.0001
0.0001
0.0001
0.0001
0.0001
0.0001
0.0001
0.0001
0.0001
0.0001
0.0001
0.0001
0.0001
0.0001
0.0001
0.0001
0.0001
0.0001
0.0001
0.0001
0.0001
0.0001
0.0001
0.0001
0.0001
0.0001
0.0001
0.0001
0.0001
0.0001
0.0001
0.0001
0.0001
0.0001
0.0001
0.0001
0.0001
0.0001
0.0001
0.0001
0.0001
0.0001
0.0001
0.0001
0.0001
0.0001
0.0001
0.0001
0.0001
0.0001
0.0001
0.0001
0.0001
0.0001
0.0001
0.0001
0.0001
0.0001
0.0001
0.0001
0.0001
0.0001
0.0001
0.0001
0.0001
0.0001
0.0001
0.0001
0.0001
0.0001
0.0001
0.0001
0.0001
0.0001
0.0001
0.0001
0.0001
0.0001
0.0001
0.0001
0.0001
0.0001
0.0001
0.0001
0.0001
0.0001
0.0001
0.0001
0.0001
0.0001
0.0001
0.0001
0.0001
0.0001
0.0001
0.0001
0.0001
0.0001
0.0001
0.0001
0.0001
0.0001
0.0001
0.0001
0.0001
0.0001
0.0001
0.0001
0.0001
0.0001
0.0001
0.0001
0.0001
0.0001
0.0001
0.0001
0.0001
0.0001
0.0001
0.0001
0.0001
0.0001
0.0001
0.0001
0.0001
0.0001
0.0001
0.0001
0.0001
0.0001
0.0001
0.0001
0.0001
0.0001
0.0001
0.0001
0.0001
0.0001
0.0001
0.0001
0.0001
0.0001
0.0001
0.0001
0.0001
0.0001
0.0001
0.0001
0.0001
0.0001
0.0001
0.0001
0.0001
0.0001
0.0001
0.0001
0.0001
0.0001
0.0001
0.0001
0.0001
0.0001
0.0001
0.0001
0.0001
0.0001
0.0001
0.0001
0.0001
0.0001
0.0001
0.0001
0.0001
0.0001
0.0001
0.0001
0.0001
0.0001
0.0001
0.0001
0.0001
0.0001
0.0001
0.0001
0.0001
0.0001
0.0001
0.0001
0.0001
0.0001
0.0001
0.0001
0.0001
0.0001
0.0001
0.0001
0.0001
0.0001
0.0001
0.0001
0.0001
0.0001
0.0001
0.0001
0.0001
0.0001
0.0001
0.0001
0.0001
0.0001
0.0001
0.0001
0.0001
0.0001
0.0001
0.0001
0.0001
0.0001
0.0001
0.0001
0.0001
0.0001
0.0001
0.0001
0.0001
0.0001
0.0001
0.0001
0.0001
0.0001
0.0001
0.0001
0.0001
0.0001
0.0001
0.0001
0.0001
0.0001
0.0001
0.0001
0.0001
0.0001
0.0001
0.0001
0.0001
0.0001
0.0001
0.0001
0.0001
0.0001
0.0001
0.0001
0.0001
0.0001
0.0001
0.0001
0.0001
0.0001
0.0001
0.0001
0.0001
0.0001
0.0001
0.0001
0.0001
0.0001
0.0001
0.0001
0.0001
0.0001
0.0001
0.0001
0.0001
0.0001
0.0001
0.0001
0.0001
0.0001
0.0001
0.0001
0.0001
0.0001
0.0001

SCALARS mass float 1
LOOKUP_TABLE default
1.17286e-09
1.17286e-09
1.17286e-09
1.17286e-09
1.17286e-09
1.17286e-09
1.17286e-09
1.17286e-09
1.17286e-09
1.17286e-09
1.17286e-09
1.17286e-09
1.17286e-09
1.17286e-09
1.17286e-09
1.17286e-09
1.17286e-09
1.17286e-09
1.17286e-09
1.17286e-09
1.17286e-09
1.17286e-09
1.17286e-09
1.17286e-09
1.17286e-09
1.17286e-09
1.17286e-09
1.17286e-09
1.17286e-09
1.17286e-09
1.17286e-09
1.17286e-09
1.17286e-09
1.17286e-09
1.17286e-09
1.17286e-09
1.17286e-09
1.17286e-09
1.17286e-09
1.17286e-09
1.17286e-09
1.17286e-09
1.17286e-09
1.17286e-09
1.17286e-09
1.17286e-09
1.17286e-09
1.17286e-09
1.17286e-09
1.17286e-09
1.17286e-09
1.17286e-09
1.17286e-09
1.17286e-09
1.17286e-09
1.17286e-09
1.17286e-09
1.17286e-09
1.17286e-09
1.17286e-09
1.17286e-09
1.17286e-09
1.17286e-09
1.17286e-09
1.17286e-09
1.17286e-09
1.17286e-09
1.17286e-09
1.17286e-09
1.17286e-09
1.17286e-09
1.17286e-09
1.17286e-09
1.17286e-09
1.17286e-09
1.17286e-09
1.17286e-09
1.17286e-09
1.17286e-09
1.17286e-09
1.17286e-09
1.17286e-09
1.17286e-09
1.17286e-09
1.17286e-09
1.17286e-09
1.17286e-09
1.17286e-09
1.17286e-09
1.17286e-09
1.17286e-09
1.17286e-09
1.17286e-09
1.17286e-09
1.17286e-09
1.17286e-09
1.17286e-09
1.17286e-09
1.17286e-09
1.17286e-09
1.17286e-09
1.17286e-09
1.17286e-09
1.17286e-09
1.17286e-09
1.17286e-09
1.17286e-09
1.17286e-09
1.17286e-09
1.17286e-09
1.17286e-09
1.17286e-09
1.17286e-09
1.17286e-09
1.17286e-09
1.17286e-09
1.17286e-09
1.17286e-09
1.17286e-09
1.17286e-09
1.17286e-09
1.17286e-09
1.17286e-09
1.17286e-09
1.17286e-09
1.17286e-09
1.17286e-09
1.17286e-09
1.17286e-09
1.17286e-09
1.17286e-09
1.17286e-09
1.17286e-09
1.17286e-09
1.17286e-09
1.17286e-09
1.17286e-09
1.17286e-09
1.17286e-09
1.17286e-09
1.17286e-09
1.17286e-09
1.17286e-09
1.17286e-09
1.17286e-09
1.17286e-09
1.17286e-09
1.17286e-09
1.17286e-09
1.17286e-09
1.17286e-09
1.17286e-09
1.17286e-09
1.17286e-09
1.17286e-09
1.17286e-09
1.17286e-09
1.17286e-09
1.17286e-09
1.17286e-09
1.17286e-09
1.17286e-09
1.17286e-09
1.17286e-09
1.17286e-09
1.17286e-09
1.17286e-09
1.17286e-09
1.17286e-09
1.17286e-09
1.17286e-09
1.17286e-09
1.17286e-09
1.17286e-09
1.17286e-09
1.17286e-09
1.17286e-09
1.17286e-09
1.17286e-09
1.17286e-09
1.17286e-09
1.17286e-09
1.17286e-09
1.17286e-09
1.17286e-09
1.17286e-09
1.17286e-09
1.17286e-09
1.17286e-09
1.17286e-09
1.17286e-09
1.17286e-09
1.17286e-09
1.17286e-09
1.17286e-09
1.17286e-09
1.17286e-09
1.17286e-09
1.17286e-09
1.17286e-09
1.17286e-09
1.17286e-09
1.17286e-09
1.17286e-09
1.17286e-09
1.17286e-09
1.17286e-09
1.17286e-09
1.17286e-09
1.17286e-09
1.17286e-09
1.17286e-09
1.17286e-09
1.17286e-09
1.17286e-09
1.17286e-09
1.17286e-09
1.17286e-09
1.17286e-09
1.17286e-09
1.17286e-09
1.17286e-09
1.17286e-09
1.17286e-09
1.17286e-09
1.17286e-09
1.17286e-09
1.17286e-09
1.17286e-09
1.17286e-09
1.17286e-09
1.17286e-09
1.17286e-09
1.17286e-09
1.17286e-09
1.17286e-09
1.17286e-09
1.17286e-09
1.17286e-09
1.17286e-09
1.17286e-09
1.17286e-09
1.17286e-09
1.17286e-09
1.17286e-09
1.17286e-09
1.17286e-09
1.17286e-09
1.17286e-09
1.17286e-09
1.17286e-09
1.17286e-09
1.17286e-09
1.17286e-09
1.17286e-09
1.17286e-09
1.17286e-09
1.17286e-09
1.17286e-09
1.17286e-09
1.17286e-09
1.17286e-09
1.17286e-09
1.17286e-09
1.17286e-09
1.17286e-09
1.17286e-09
1.17286e-09
1.17286e-09
1.17286e-09
1.17286e-09
1.17286e-09
1.17286e-09
1.17286e-09
1.17286e-09
1.17286e-09
1.17286e-09
1.17286e-09
1.17286e-09
1.17286e-09
1.17286e-09
1.17286e-09
1.17286e-09
1.17286e-09
1.17286e-09
1.17286e-09
1.17286e-09
1.17286e-09
1.17286e-09
1.17286e-09
1.17286e-09
1.17286e-09
1.17286e-09

VECTORS velocity float
0.00591972 -5.2993e-05 0.000359029
0.0060906 -0.000300284 0.000701527
0.00565234 -7.06508e-05 -3.28222e-05
0.00604885 -5.17183e-05 0.000384956
0.00608584 -0.000455314 0.000407628
0.00582215 -0.00045879 0.000295354
0.00554409 -6.87792e-05 0.000280572
0.00544595 -0.000284259 0.000459722
0.00610812 -0.000181999 4.63845e-05
0.00589993 -8.61312e-06 -0.000157154
0.00604823 -0.000147276 -9.21987e-05
0.00612629 -4.16295e-05 0.000388491
0.00541282 -0.000374152 0.000488372
0.00605194 -0.000146537 -2.16957e-05
0.00546573 -0.000249613 0.000550517
0.00611895 -9.10315e-05 0.000272418
0.00615882 -0.00018048 -7.36282e-05
0.00565827 -0.000118713 -0.000192944
0.00614082 -1.40469e-05 0.000356427
0.00607256 -0.000164345 -8.10786e-05
0.00613325 -0.000273956 -7.79264e-05
0.0060471 -0.000445856 0.000403063
0.00613181 4.70472e-05 9.40899e-05
0.00599817 -0.000433071 0.000396067
0.00566229 -7.68548e-05 -6.89747e-05
0.00589753 -0.000403861 0.000381967
0.00578073 -0.000347625 0.000357754
0.00606426 -0.000164795 -3.42028e-05
0.00603743 -0.000169299 -8.83594e-05
0.00619908 -0.000109397 -9.30852e-05
0.00616549 0.000106271 0.000180038
0.00604684 -0.000179625 -8.89924e-05
0.00537358 -0.000317807 0.000328595
0.00604693 -0.00016475 -8.267e-05
0.00609969 -0.000184965 -7.89279e-05
0.00599319 -0.000486295 0.000354687
0.0056678 -5.53328e-05 -6.04041e-05
0.00586052 0.000148983 0.000113702
0.00616545 8.13249e-06 -9.09211e-05
0.00613111 -0.000140214 -8.60875e-05
0.00614444 -2.4453e-05 -0.000156832
0.00569455 -4.45744e-05 -0.000145614
0.00579682 -0.00039156 0.000373417
0.00578503 -5.30872e-05 0.000308694
0.00568608 -8.06152e-05 -4.79602e-05
0.00562598 -8.09854e-05 -4.92573e-05
0.00605086 -0.000188435 -0.000138671
0.00560623 -5.25098e-05 -6.1913e-05
0.00544837 -0.000310444 0.000523556
0.00592475 -0.000370538 0.000371599
0.00599679 1.97098e-05 0.000297165
0.00544571 -0.000259296 0.000558347
0.00544744 2.60372e-05 0.000158501
0.00594872 -0.000416835 0.00038806
0.00562094 -0.000119572 -0.00022774
0.00584735 -0.000396197 0.000377249
0.00608523 -0.000109058 -9.64186e-05
0.00553195 5.00464e-05 0.00023017
0.00569933 -8.81911e-05 -0.000113458
0.00565594 -7.30816e-05 -5.06717e-05
0.00574359 -0.000386997 0.000369762
0.00604522 -0.00014445 -2.6089e-05
0.00609679 -0.000420208 0.000497579
0.00575975 -4.60622e-05 -0.000133937
0.00610663 -0.000178286 -8.09212e-05
0.00558717 -0.000476941 0.000534524
0.00527853 -0.000305212 0.000322747
0.00572246 -0.000543365 0.000591274
0.00553657 2.03278e-05 -9.90751e-05
0.00571211 -7.18171e-05 -0.000128131
0.00558459 -0.000359177 0.000353519
0.00609493 -0.000201605 -5.42328e-05
0.0056049 -2.82202e-05 -7.15926e-05
0.00559182 -5.19677e-05 8.05161e-05
0.0056607 -0.000278386 0.000598904
0.00593583 -0.000287281 0.000612453
0.00546041 -0.000561672 0.000264706
0.00570162 -0.000338127 9.69874e-05
0.0060543 -0.000384816 0.000699401
0.00595723 -0.0003012 0.000611908
0.00587746 -0.000361876 0.000366627
0.00568094 -8.54909e-05 -6.28378e-05
0.006136 -0.000107821 -0.000113968
0.00547727 -2.3891e-05 9.08266e-05
0.00615487 2.17362e-05 -0.00018446
0.00557375 -0.00059954 -8.87134e-05
0.00573925 -1.217e-05 -0.000149109
0.00549937 4.13767e-05 0.000102976
0.00555887 -9.16633e-05 6.60968e-05
0.00555215 -0.000105239 6.48111e-05
0.00582971 -0.000356446 0.000362801
0.00555653 -0.000417857 0.000200878
0.00556451 -3.28132e-05 8.46853e-05
0.00582893 -0.000293406 0.000590148
0.00610435 0.00013312 0.000168059
0.00541505 -6.97138e-05 0.000293078
0.00571968 -0.000282946 0.000428334
0.00542835 -0.000349593 -0.00012705
0.00558779 1.12028e-05 0.000191445
0.005482 -0.000259729 0.000573701
0.00558012 -0.000506751 -9.75747e-05
0.00589054 -0.000294313 0.00063106
0.00539943 3.5757e-05 0.000147266
0.00567054 -0.000516091 0.000282137
0.00542424 2.99905e-05 9.71941e-05
0.00546981 -1.76736e-05 9.3248e-05
0.00589325 -0.000261281 0.000618143
0.00550788 -0.000485396 -9.78879e-05
0.00631183 0.000249864 0.000120007
0.0055067 -0.000615986 -5.16411e-05
0.00555337 0.000188743 -0.000185172
0.00542143 -7.17541e-05 0.000289123
0.00541659 -0.000520424 -8.32297e-05
0.00618734 0.000117545 0.000184425
0.0061399 -6.36672e-05 1.77742e-05
0.00577073 7.31253e-06 0.00025109
0.00544742 -5.39782e-05 -3.93586e-05
0.00584927 -0.000352477 0.00068085
0.00566907 -7.9573e-05 -4.89393e-05
0.00619079 0.000118508 0.000193673
0.00573145 -0.000486592 0.000473658
0.00557417 0.00019512 2.98646e-05
0.00544752 -9.36518e-06 8.92675e-05
0.00595498 -0.000291824 0.000616976
0.00616317 -1.15563e-05 -0.000165615
0.00595476 -0.000282861 0.000615089
0.00543998 -3.38034e-05 0.000111876
0.00607599 6.94826e-05 0.000109919
0.00555534 5.50033e-05 5.4012e-05
0.00610316 -0.000166862 -8.37128e-05
0.00574036 -0.00026783 0.000589724
0.0055538 -3.70209e-05 8.15297e-05
0.00530241 4.76983e-05 9.98984e-05
0.0054177 -0.00046079 0.000426461
0.00557732 -3.35532e-05 1.65143e-05
0.0058843 -0.000282337 0.000609927
0.00562114 -0.000420679 -2.5743e-05
0.0057047 -7.44836e-05 -0.000112482
0.00549704 -0.000691227 -2.83831e-05
0.00561358 -5.57411e-05 -0.000129448
0.00588478 -0.000271361 0.000625395
0.00553148 -0.000396555 0.000277284
0.00555913 -0.000100436 6.49507e-05
0.0058241 -0.000157982 0.000481629
0.00550106 -9.55768e-06 6.04742e-05
0.00587396 -0.000292372 0.000611264
0.00542303 -0.000308493 0.000598803
0.0053928 -0.000242288 6.40829e-05
0.00558069 -0.000392409 -0.000138166
0.00567568 -0.000434044 -0.00012627
0.00568484 -0.000218312 0.000106843
0.00552218 -0.000436503 -0.000116714
0.00604636 -0.00034046 0.000204617
0.00534806 -0.000498326 -9.45977e-05
0.00561604 1.88778e-05 -9.93297e-05
0.00581209 -0.00034288 0.000419048
0.00609806 -4.1786e-05 -0.000174474
0.00551087 -0.000592531 -7.41106e-05
0.00592649 -0.000111499 5.31828e-05
0.00556422 -0.000252239 0.000559063
0.00543966 -0.000708618 0.000232494
0.00543838 -0.000577189 -7.66559e-05
0.0056729 0.000186379 8.45795e-05
0.00560908 -0.000501148 -9.0981e-05
0.00566196 0.00018576 7.56926e-05
0.00581574 -0.000287788 0.000333423
0.00588259 -0.00026526 0.000588673
0.0054728 -0.000388996 0.000427439
0.00562611 -0.000468019 -0.00013933
0.00559701 -0.000766705 2.56429e-06
0.00590519 -0.00148464 -0.00194578
0.00555927 -0.000743402 -2.68613e-05
0.00560286 -0.000577326 2.27565e-05
0.00545027 -0.000550074 0.000318996
0.00563482 -0.000558825 0.000120006
0.0223871 0.0119195 -0.0204738
0.00568707 -0.000384233 0.000191551
0.00570743 -7.56017e-05 0.000379136
0.00604428 -0.00013767 -9.27759e-05
0.00554622 -0.000471583 -0.000108193
0.00550887 -0.000492307 -9.73826e-05
0.00569627 -0.000345625 0.000107646
0.00525902 5.18141e-05 9.83241e-05
0.00564231 -0.000326528 0.000580269
0.00612401 -0.000162596 -6.40292e-05
0.00556712 -0.00081992 0.000594491
0.00574086 -0.000843878 0.000233722
0.00545658 -0.000338099 0.000508992
0.00554523 -0.0004533 9.76121e-05
0.00557544 -0.000451639 -0.00015987
0.00550425 -0.000409883 -0.000112853
0.00551143 -0.000504661 0.000451258
0.00539714 9.18074e-05 0.000111744
0.00603327 -0.00014213 -9.25894e-05
0.00548167 -0.000380949 -0.000127813
0.00612948 -0.000213061 -4.4297e-05
0.00537749 -0.000418283 -0.000111458
0.00587616 3.23924e-05 0.000303679
0.00599453 -0.00126457 -0.00188101
0.00540349 -0.000264157 6.68016e-05
0.00577075 -0.000136427 -7.64816e-05
0.00557269 -0.000779218 -1.35086e-05
0.00546578 -0.000576607 -7.22562e-05
0.00608623 -0.000157879 -0.000101273
0.00553484 -0.000748351 -0.000356174
0.00602972 -0.000254542 0.000310509
0.00561653 -0.000532418 -5.28436e-05
0.00540248 3.46878e-05 0.000147441
0.00549079 -0.000757247 -1.30613e-05
0.00556714 -0.000755439 -6.63451e-05
0.00583303 -0.000247869 0.000585849
0.00600146 -0.000384734 0.000236608
0.00608156 -0.000222888 -4.45121e-05
0.00526328 -0.000122431 0.000416643
0.0056321 -0.000373446 0.000144109
0.00590364 -0.000489271 0.000320642
0.00601758 -0.000252092 0.000310489
0.0056551 -0.000581445 0.000626306
0.00549261 -0.000648721 -5.23285e-05
0.00569464 -0.000583359 0.000701539
0.0055551 -0.000643073 -5.15829e-05
0.00577023 -0.000293587 0.000172703
0.00568968 -0.000159754 0.000125638
0.00593263 -0.000209109 0.000538439
0.00613204 0.000120223 0.000171137
0.00566979 -0.000903267 0.000209645
0.00548984 -0.000895127 -0.000238381
0.00538083 -0.000292806 7.35971e-05
0.00605971 -0.000351882 0.000213027
0.00573926 -0.000311652 0.000184461
0.00554666 -0.000230235 6.10525e-05
0.00553113 -0.000355338 8.21591e-05
0.00606603 -0.000391875 0.000241537
0.00605116 -0.000347389 0.000207936
0.00545217 -0.000426952 -0.000115974
0.00610034 -0.00034514 0.000207958
0.00608786 0.000101448 0.000172441
0.00565714 -0.00032021 7.92509e-05
0.00635587 -0.00022968 0.000118392
0.00562835 -0.000202423 5.81513e-05
0.00555827 -0.000227994 6.71989e-05
0.0053578 -0.000806333 1.89084e-06
0.00545518 -0.00049283 0.000102974
0.00596251 -0.000238412 0.000579636
0.00560314 -0.000401731 9.20139e-05
0.00545605 -0.000644053 -4.7987e-05
0.0054791 -0.000905453 0.000190514
0.00567735 -0.000387361 -0.000110324
0.00603652 5.46395e-05 -0.000193626
0.00546088 -0.000708627 0.000220802
0.00549401 -0.000573034 -7.02242e-05
0.0054555 -0.00030505 7.41921e-05
0.00576545 -0.000987304 0.000201188
0.00558441 -0.0003802 9.76319e-05
0.00547494 -0.000395163 0.000295006
0.00577976 -0.00095407 0.000209607
0.00591733 9.09704e-05 0.000223494
0.00544399 -0.000861424 0.000208681
0.00561599 -0.000799503 0.000235578
0.00556574 -0.000403987 9.12087e-05
0.0055953 -0.000372041 8.92814e-05
0.00557928 -0.000588976 -3.21852e-05
0.00566932 -0.00041289 -0.000107602
0.00566743 -0.000941234 0.000201646
0.0052996 -0.0011217 0.00036808
0.00570751 -0.000924883 0.000214682
0.00581663 -0.000403616 0.000439395
0.00554952 -0.000266101 6.02155e-05
0.00568508 -0.000316646 0.00018709
0.00545871 -0.000301932 0.000647634
0.00568776 -0.000346432 7.11024e-05
0.00566726 -0.000324545 8.08873e-05
0.00546043 -0.000689892 -0.000186348
0.00562482 -0.000474917 -8.67282e-05
0.00569029 -0.000925549 0.000187322
0.00553979 1.47596e-05 0.000180593
0.00569618 -0.000981401 0.000181672
0.0056543 -0.000104477 3.51645e-05
0.00579258 -0.000147355 0.000476098
0.00574702 -0.000905381 0.000222282
0.00594943 -0.000191332 0.000548634
0.00548669 8.54004e-05 0.00011592
0.00569047 -0.000777182 0.000237767
0.00586676 0.00018709 0.000156821
0.00545683 -0.000676712 0.000115727
0.00568398 -0.00046245 0.000466055
0.00608432 -0.00036127 0.000219624
0.00568145 -0.000337186 8.96093e-05
0.00551047 6.2664e-06 0.000190786
0.00571619 -0.000780568 0.00024114
0.00547474 -0.000412746 -0.000118291
0.00527192 -0.000623927 -6.2647e-05
0.00608509 -0.000361592 0.00021996

VECTORS force float
2.34446e-10 7.57246e-10 -3.64e-10
7.03306e-09 -1.59307e-09 -2.10051e-10
1.49881e-12 4.81232e-10 8.54977e-10
6.55418e-10 -5.83471e-10 -5.21228e-10
-7.50986e-10 -5.01067e-10 2.91237e-10
-1.42573e-09 2.2747e-10 -4.02641e-10
1.45608e-10 1.98034e-10 -2.01982e-10
9.00126e-11 1.95789e-11 4.88279e-11
-2.90729e-10 -1.07711e-09 -4.35131e-10
1.29464e-09 8.82527e-10 -6.64767e-10
1.05803e-09 1.0889e-09 -5.56523e-11
-3.02104e-10 -4.85282e-10 3.59993e-10
-4.82105e-11 -1.02271e-09 9.21541e-10
-3.9938e-10 -6.56098e-10 5.09848e-11
-4.10495e-11 -1.02468e-11 7.29909e-10
-1.01337e-10 -6.8901e-10 5.87584e-10
9.52976e-10 -7.00182e-10 2.27643e-10
-9.45498e-10 1.87513e-10 4.79862e-10
-6.01979e-10 -1.03025e-09 1.42726e-09
3.41922e-10 -6.07396e-11 9.75683e-11
-1.44499e-09 2.61544e-09 -5.74633e-09
2.65257e-10 -3.70416e-11 2.88317e-11
2.30616e-09 -2.90213e-10 -3.07075e-09
-1.08164e-10 -1.59531e-10 9.61954e-11
-1.78703e-10 -1.77114e-10 6.40308e-10
-3.38672e-11 9.67206e-11 -5.01878e-11
-1.44447e-10 4.53381e-11 -2.20169e-11
-1.27651e-09 -2.63703e-10 3.9324e-10
-6.27878e-10 1.48102e-10 -1.95686e-11
6.34874e-10 2.02284e-10 1.12675e-09
5.6388e-10 -1.81392e-11 8.43485e-10
2.81656e-10 1.4593e-10 -8.74409e-10
-1.12492e-10 -1.21566e-10 -4.65201e-11
-2.21651e-10 -4.01658e-11 9.07135e-11
-3.97356e-10 -4.60295e-10 3.32614e-10
9.53444e-10 1.03928e-10 1.06618e-10
1.70327e-10 2.6943e-10 -2.00935e-10
-3.73536e-09 5.79067e-10 -1.3462e-09
-6.06936e-10 5.10763e-10 -1.1921e-10
9.31737e-11 3.62511e-10 -1.20892e-10
-7.07544e-10 4.8049e-10 -1.21706e-10
-1.1847e-09 2.36137e-10 -2.43253e-10
1.59826e-11 2.54526e-10 -7.56098e-11
-2.56698e-09 1.78621e-09 5.17019e-10
-1.85146e-11 4.02604e-10 -4.90292e-10
-2.74677e-10 -4.68765e-10 -1.06795e-10
-2.75229e-10 2.75996e-10 1.75887e-10
2.95768e-11 -1.44217e-10 -2.60869e-11
-8.98069e-10 8.2779e-10 -9.01094e-11
-2.02445e-10 1.96009e-10 -7.64644e-11
-2.0797e-09 -6.64899e-10 8.03259e-10
1.34419e-09 1.41158e-09 -6.91287e-10
1.38923e-09 6.90129e-10 -9.84446e-10
-8.68411e-11 -2.09123e-10 7.094e-11
-3.69843e-10 -4.57148e-11 -6.09906e-10
-8.24213e-12 3.0152e-10 -9.99502e-11
1.84968e-09 1.6165e-09 -7.86438e-10
-1.00374e-09 -1.20961e-09 1.36735e-09
3.78566e-12 1.01618e-09 -6.47086e-10
1.01533e-11 4.93273e-10 5.61185e-10
-5.48542e-11 7.85786e-11 -4.31031e-11
-1.07233e-09 -2.27684e-10 3.26865e-10
1.84708e-09 1.4126e-09 6.09435e-09
-1.20139e-11 4.39869e-10 -1.4539e-10
-6.47718e-10 -3.3762e-10 5.85226e-11
-3.05876e-09 4.66881e-10 1.57626e-09
3.12478e-11 -1.35154e-10 6.69407e-11
-4.50044e-09 -4.72748e-10 1.62415e-09
-1.50141e-11 1.08227e-09 -7.56082e-11
-1.09097e-09 -3.21261e-10 2.12327e-10
-1.12079e-12 -4.82736e-11 3.62085e-11
-5.35402e-10 -8.97622e-10 -8.62558e-11
-3.75096e-10 3.59151e-10 -2.48098e-10
-3.52513e-10 3.43904e-11 -8.89821e-12
7.12868e-10 -3.67579e-10 9.06059e-10
1.31137e-09 -9.18638e-10 1.50732e-09
-9.83094e-12 -4.01625e-09 -1.13781e-09
2.35198e-09 1.37727e-09 -1.0301e-09
5.7785e-09 -1.03786e-09 4.67752e-09
-8.68429e-10 2.38569e-09 2.61029e-09
-2.7383e-10 2.35068e-10 -8.89279e-11
1.54401e-10 1.05903e-10 5.22835e-10
4.1502e-10 4.68254e-11 7.45543e-10
5.64386e-10 -9.53402e-10 1.57317e-10
-6.49087e-11 1.9204e-10 -3.78031e-11
-2.23057e-09 1.19829e-09 -1.14059e-09
-5.25815e-10 7.89132e-10 -5.39014e-10
-5.62026e-10 1.8577e-09 2.19398e-10
-2.60139e-10 -1.22119e-10 -1.37895e-10
-1.74668e-10 -1.14936e-10 -5.91614e-11
-2.08901e-10 1.53532e-10 -6.29783e-11
1.17648e-09 1.16511e-09 1.79563e-09
-2.69299e-10 -6.26006e-10 -3.07566e-10
-4.51353e-09 -1.80505e-09 -5.83685e-10
-2.67847e-09 1.58927e-09 -1.92569e-09
-8.85761e-10 7.54645e-11 -3.69297e-12
-5.10611e-09 -1.90494e-09 1.40778e-09
-2.85921e-09 -2.0319e-10 1.36812e-09
1.0763e-09 2.74234e-10 -4.84487e-10
1.3207e-09 4.40737e-11 1.07846e-10
-1.8768e-09 1.63308e-09 -2.04474e-09
-1.34219e-09 -7.10769e-10 -3.36586e-10
-4.33006e-10 5.74321e-10 -8.46235e-10
1.83974e-09 -1.92972e-09 2.51347e-10
-3.24452e-10 7.7933e-11 7.89699e-11
-3.43383e-10 -1.53112e-10 1.40426e-09
-7.76186e-10 3.04242e-09 6.15877e-09
-2.02427e-09 6.63744e-09 -1.27348e-09
6.36369e-10 1.92288e-09 -3.98888e-09
2.33894e-09 -4.81563e-09 6.30998e-10
1.08786e-10 4.66477e-10 -3.26209e-10
2.30685e-09 2.44586e-10 -4.12319e-10
3.95198e-09 1.45737e-09 -9.39544e-11
-1.3828e-10 -2.73762e-10 5.68703e-10
6.84871e-10 5.92544e-12 -1.39438e-09
3.21156e-11 1.37945e-10 5.30415e-11
7.87373e-11 4.10737e-10 -1.51659e-09
2.38553e-10 1.16437e-09 -2.17353e-10
-2.43769e-10 2.28579e-10 -1.7776e-10
1.14493e-09 -1.5527e-10 -1.30661e-09
2.53301e-09 -2.13783e-09 9.38671e-10
-6.13423e-11 1.91634e-09 -1.0203e-09
-1.45707e-10 4.37175e-10 7.90847e-11
-5.87897e-10 -9.90038e-10 -1.35104e-10
-1.32059e-09 -1.00578e-10 5.96567e-12
-2.68687e-11 6.9726e-10 1.05114e-09
-6.97141e-11 1.5757e-10 2.63375e-10
-2.04356e-09 -6.94967e-11 -2.93073e-09
-2.33077e-10 3.73101e-10 -3.32294e-10
-1.01822e-10 7.08529e-10 -3.22725e-10
3.08902e-09 -1.11364e-09 1.21792e-09
-5.9152e-10 -7.29114e-11 5.82043e-10
-5.8264e-10 -1.28721e-10 3.90538e-11
-1.16534e-09 7.70287e-10 -3.03484e-09
4.44374e-10 3.55509e-10 9.60164e-10
4.15542e-09 -1.47465e-09 1.27693e-09
1.49543e-09 1.84692e-09 -3.41406e-09
-6.48682e-10 -1.12758e-10 -2.49e-10
2.77912e-10 -2.05189e-09 1.12972e-09
-9.38879e-10 6.44923e-11 -6.78876e-11
4.78331e-10 -1.00506e-09 4.51012e-10
-8.49153e-10 -2.87797e-09 3.72878e-09
2.75601e-10 4.46346e-10 1.86244e-10
-2.20044e-09 -1.48312e-08 1.50395e-08
2.9483e-10 2.95658e-10 -7.13551e-11
-9.34662e-11 -1.176e-09 2.28295e-09
-6.11238e-09 -9.35508e-10 -9.46768e-10
-6.11055e-10 3.09967e-09 -6.64297e-10
1.5763e-09 8.1935e-10 7.63794e-11
-5.64889e-09 6.28843e-09 1.83819e-09
4.87786e-10 -6.93099e-10 9.85449e-10
-1.80364e-09 6.66442e-10 3.76817e-10
-3.93849e-10 -7.97963e-10 6.9069e-10
1.1029e-09 2.45932e-09 -4.61724e-10
-8.81882e-10 -6.25026e-10 -1.66166e-10
4.64143e-09 -1.78625e-09 -5.0419e-10
-1.90669e-10 6.27474e-10 2.80136e-10
-8.3621e-10 -1.02541e-09 1.70734e-09
-2.98984e-10 2.88474e-10 -2.64014e-10
2.79911e-09 -9.0974e-10 1.24232e-09
1.21436e-10 -1.1073e-09 -1.42907e-09
-1.28618e-10 3.90985e-09 7.41729e-10
4.51691e-12 -3.49243e-10 2.16681e-10
-1.52647e-09 5.90052e-09 -2.10462e-09
-1.62912e-10 -8.28061e-10 1.1182e-09
1.25076e-09 -2.09844e-09 -5.58413e-10
6.58191e-09 -2.18191e-09 3.12383e-09
1.20439e-09 -6.97639e-09 6.96244e-09
-1.36397e-09 -2.75579e-09 2.36065e-09
-2.91065e-09 -6.13957e-10 -4.3431e-11
5.23997e-09 -5.55872e-10 -5.44791e-09
-1.50475e-09 5.82601e-10 -1.83547e-09
1.67626e-09 -5.2544e-09 1.36368e-10
2.48122e-09 4.43278e-09 -5.0125e-09
-6.86879e-10 -5.23144e-09 9.18861e-10
9.07231e-10 -1.20886e-10 -8.4817e-09
-2.36662e-09 3.79298e-10 -3.66768e-09
-1.80822e-09 6.77065e-10 -3.28984e-09
1.52656e-09 -8.92179e-11 -5.98647e-11
-1.79855e-09 -4.77602e-11 2.70579e-09
-9.29883e-10 -2.02322e-09 6.93174e-10
-4.31513e-10 -2.12496e-09 1.56614e-09
-1.06986e-09 -3.30683e-10 -1.40454e-10
2.30261e-10 -4.70639e-09 -4.60952e-09
3.89512e-10 -4.46656e-10 1.84706e-10
5.5425e-09 -2.41159e-09 8.55835e-10
5.26975e-10 -5.94188e-10 -3.10047e-10
8.62757e-10 6.58625e-10 -1.33244e-09
-2.73721e-09 -2.06294e-10 -1.63661e-10
-9.97879e-10 -1.79381e-09 1.23761e-10
1.05303e-09 -2.18906e-09 1.54093e-09
-4.24309e-09 1.61541e-10 2.9598e-09
-6.2762e-10 -3.52613e-10 -1.0951e-10
-4.06929e-10 8.2023e-10 3.80835e-10
6.76051e-10 1.18422e-09 -7.94662e-10
-1.91774e-09 1.6691e-09 -2.42708e-10
3.45905e-10 5.71484e-09 -1.13834e-09
-3.65184e-09 5.06341e-09 -6.85109e-09
-5.97173e-10 -2.35043e-09 -8.43642e-09
4.4482e-10 1.71842e-09 -1.86141e-10
-1.44949e-09 5.31452e-10 -5.94715e-10
-1.52976e-09 5.68455e-11 4.29826e-10
-6.85524e-10 -2.94134e-09 8.01854e-10
-6.1579e-10 5.47555e-10 2.37991e-10
-8.59192e-10 -2.24476e-09 -4.04223e-09
-2.29515e-10 -1.02347e-09 6.83728e-10
-2.29695e-09 1.13959e-09 1.40256e-09
-4.52956e-10 8.72275e-10 -1.16394e-09
-1.27014e-09 8.50366e-10 -3.00346e-11
-3.14765e-09 -3.95706e-11 -2.14369e-09
5.71828e-11 -1.01322e-09 3.41846e-09
-1.4701e-09 -1.90323e-10 1.2055e-10
1.57846e-11 4.66591e-10 9.51889e-12
1.35616e-08 4.83753e-09 -3.15023e-09
-1.79468e-09 2.12395e-09 -1.35159e-09
1.30411e-09 2.3364e-10 -4.10162e-11
-1.22944e-10 -8.81349e-10 6.64424e-10
-1.9793e-10 -1.79102e-09 3.29702e-09
1.10274e-10 1.44231e-10 2.5143e-12
-1.86825e-09 -2.16895e-09 4.27836e-09
8.20608e-10 -2.34189e-09 -1.24248e-09
-1.16934e-10 1.4309e-09 -1.13032e-09
1.25709e-10 3.67376e-09 -2.89937e-09
7.49253e-09 -1.44593e-09 1.5738e-09
-4.12004e-09 -2.71971e-11 -3.24574e-10
7.85419e-10 8.17772e-10 8.71286e-11
8.30052e-10 1.12752e-09 -5.0034e-10
-3.03169e-09 8.82307e-10 1.4923e-11
-7.93816e-10 -3.63349e-10 2.27396e-10
-4.19824e-10 5.73323e-10 -3.60433e-10
2.77446e-09 -1.19061e-09 6.37856e-10
-8.88319e-10 1.23938e-09 6.97676e-11
-1.09056e-09 1.00729e-10 -1.41346e-12
1.73858e-11 -7.37984e-10 5.61114e-10
7.28925e-10 -5.01072e-10 -2.5217e-10
-6.62745e-10 5.18884e-11 -2.67486e-11
1.9114e-10 1.27133e-09 -3.28802e-09
-1.12337e-09 2.30469e-10 -8.67721e-11
1.77367e-09 5.3624e-09 2.37401e-09
-4.7175e-10 1.23795e-09 -8.1226e-11
-6.24931e-10 1.89697e-09 -2.62493e-10
1.14981e-10 9.45681e-10 -1.33857e-10
-3.40531e-09 -2.51706e-09 4.4047e-10
2.45959e-09 1.44197e-09 -1.43684e-09
-3.32198e-10 3.79996e-09 -5.69964e-10
4.17261e-10 -7.50006e-10 -4.43955e-10
3.19633e-09 -7.66696e-10 -2.11671e-10
-6.36859e-10 -6.65794e-10 7.08044e-11
9.11722e-10 5.82227e-10 -3.55714e-10
1.35028e-09 -3.78076e-11 7.57078e-10
-2.2768e-09 -2.29813e-09 9.89972e-10
-1.53595e-09 -2.06223e-09 2.30528e-10
-3.49933e-10 -2.40589e-09 -5.29368e-10
7.72734e-10 -1.07299e-09 2.98202e-10
1.27625e-08 -8.38293e-09 1.24733e-08
-1.85311e-10 -1.47732e-09 -3.31482e-10
-5.75016e-09 6.06592e-09 -5.51182e-09
3.89178e-09 6.05259e-10 3.78517e-10
1.34176e-09 -2.86337e-10 -6.26764e-10
1.75039e-09 1.13471e-09 -3.31124e-10
2.1764e-09 1.24923e-09 -2.19863e-10
5.7401e-10 -2.2684e-09 6.23844e-10
-1.38957e-09 8.4264e-10 -2.11706e-10
1.3624e-10 -4.30747e-10 1.35976e-10
2.94691e-12 -8.36062e-12 2.419e-12
1.87876e-10 -2.82107e-10 -5.62011e-10
4.91603e-09 -2.90484e-09 1.35405e-09
5.45025e-10 -3.24133e-10 -3.71716e-11
3.53276e-10 3.3871e-10 1.37042e-10
2.70899e-08 6.64207e-09 -7.63568e-09
2.38027e-10 8.43261e-10 2.98783e-10
8.13587e-10 2.15656e-09 4.2165e-11
4.3561e-12 -4.14157e-10 1.70046e-09
-2.34461e-09 1.48887e-09 -1.52004e-10
-5.62729e-11 -1.32568e-09 8.0303e-10
4.3741e-10 1.58636e-10 -6.39277e-11
-1.36182e-09 -7.75777e-10 -5.88665e-10
9.4248e-10 -2.95082e-09 1.11846e-09
-2.31575e-10 -6.15823e-10 6.13328e-10
5.52308e-10 -1.87156e-10 -5.83844e-10
8.70434e-11 1.24276e-10 6.33438e-10
-2.74252e-10 3.73713e-10 1.86101e-10
1.56246e-09 2.11997e-09 5.16967e-10
-3.90262e-09 -8.17623e-10 2.04014e-09
-2.61003e-10 -1.02474e-09 1.40975e-09
-5.0651e-09 3.87596e-09 -3.40712e-09
-8.62768e-10 1.2909e-10 -1.82121e-10
2.63983e-10 1.83346e-09 3.62305e-11
-5.089e-10 -2.62219e-10 2.37199e-10
1.73311e-09 2.49971e-10 5.67915e-10
1.01216e-09 -7.88322e-10 8.67171e-11
1.54723e-10 -2.19289e-10 5.89672e-10
-2.04636e-10 3.4985e-10 -1.4919e-10
