# vtk DataFile Version 3.0
LIGGGHTS particles timestep 4200000
ASCII
DATASET POLYDATA
POINTS 293 float
0.0371779 0.0159808 0.00820419
0.031677 0.01643 0.00780102
0.0377684 0.0176634 0.00712172
0.0372164 0.016102 0.00804963
0.0432914 0.0163711 0.00777678
0.043178 0.0159995 0.00823328
0.0370957 0.015739 0.00851203
0.0437543 0.0184195 0.00712239
0.0373322 0.0165598 0.00768595
0.0382026 0.0169339 0.00747484
0.0377112 0.0166703 0.00762026
0.037254 0.0162252 0.00789259
0.0309286 0.0152112 0.00906551
0.0374924 0.0172595 0.0073313
0.0311641 0.0153738 0.00886569
0.0372931 0.0163879 0.00778088
0.0374436 0.0162717 0.00784273
0.0380666 0.0174218 0.00723435
0.0374044 0.0161484 0.00799977
0.0379017 0.0167254 0.00758743
0.0319119 0.0166047 0.00758713
0.0433299 0.0165572 0.00771451
0.0376303 0.0163626 0.00785258
0.0433688 0.0167433 0.00765227
0.0375342 0.0174339 0.00724284
0.0434527 0.0171143 0.00752845
0.0437334 0.0175498 0.00739347
0.0374109 0.0169102 0.00750838
0.0376007 0.0169653 0.00747559
0.0380152 0.0164343 0.00773006
0.037975 0.0162848 0.00785666
0.0377515 0.0168458 0.00753329
0.0437112 0.0182323 0.00717811
0.037561 0.0167905 0.00756421
0.0374822 0.01644 0.00774183
0.0432552 0.0162387 0.00792223
0.0379178 0.0175432 0.00717867
0.0375568 0.0160687 0.00811091
0.0377923 0.0170196 0.00744319
0.0376715 0.0164954 0.00770887
0.0380961 0.0167837 0.00755294
0.038215 0.0173003 0.00729106
0.0435386 0.0174848 0.00740485
0.0371386 0.0158597 0.00835845
0.0376846 0.0173144 0.00729854
0.0376607 0.0179659 0.00699709
0.0376426 0.0171398 0.00738707
0.0379646 0.0177253 0.00711043
0.0309724 0.0153401 0.00891901
0.0436027 0.0169912 0.00757686
0.0373283 0.0159033 0.0083123
0.0310149 0.0154645 0.00876825
0.0372018 0.015541 0.00877352
0.0434102 0.0169289 0.00759031
0.0381124 0.0175954 0.00714614
0.0434957 0.0172995 0.00746665
0.0378617 0.0165507 0.00767603
0.0373676 0.0160244 0.00815805
0.0378341 0.017194 0.00735471
0.0376181 0.0177846 0.00706994
0.0435817 0.0176708 0.00734527
0.0374506 0.017085 0.00741977
0.0313386 0.016578 0.00766651
0.0381511 0.0171073 0.00738945
0.0375215 0.0166153 0.007653
0.0308854 0.0151185 0.00923736
0.043668 0.0180452 0.00723383
0.0308548 0.0150493 0.0094225
0.0380063 0.0179047 0.00703238
0.0380248 0.0172472 0.00732285
0.0436249 0.017858 0.00728955
0.0373716 0.0167353 0.00759703
0.0381548 0.01778 0.00708131
0.0380201 0.0188169 0.00703191
0.0310997 0.015746 0.00849711
0.0313739 0.0160791 0.0081862
0.0325352 0.0184301 0.00699045
0.031606 0.0169532 0.0074196
0.0314897 0.0164745 0.00774674
0.0312234 0.0161688 0.00808975
0.0436463 0.0171771 0.00751488
0.037576 0.0176083 0.00715444
0.0380552 0.0166091 0.00764147
0.0377873 0.0185515 0.00703601
0.038255 0.016603 0.00763905
0.0321257 0.0170928 0.00738166
0.0383414 0.0171603 0.00735767
0.0380432 0.0180965 0.00696809
0.0380606 0.019011 0.00705775
0.0379116 0.0191337 0.00711017
0.0436902 0.0173634 0.00745276
0.0313736 0.0167068 0.00751762
0.0378291 0.0187462 0.00705534
0.0314531 0.0163438 0.00789364
0.0377467 0.0161145 0.00806184
0.0370089 0.0154977 0.00881902
0.0317546 0.0167149 0.00753138
0.0325707 0.0171936 0.00735744
0.0372452 0.0156616 0.00861999
0.0310573 0.0156053 0.0086327
0.0316908 0.0173179 0.00727981
0.0311421 0.0158868 0.00836152
0.0369656 0.0153771 0.00897251
0.0323507 0.0171157 0.00738624
0.0380868 0.0182935 0.00697917
0.0379389 0.0184266 0.00699841
0.0313015 0.0164443 0.00781055
0.031882 0.0173715 0.00724769
0.0318719 0.0164717 0.00773108
0.0321201 0.0176054 0.00715541
0.0383836 0.018034 0.0070036
0.0370523 0.0156184 0.00866552
0.0317337 0.0174999 0.00720903
0.0379336 0.0161628 0.00800959
0.0378223 0.0163757 0.00776466
0.0372881 0.0157823 0.00846641
0.0377039 0.0181607 0.00698366
0.0316019 0.0161692 0.00809111
0.0377264 0.0174888 0.00721008
0.0377804 0.0162388 0.00790431
0.0323222 0.0169325 0.00746126
0.0373196 0.0165661 0.00788545
0.0378966 0.0182318 0.00698327
0.0313339 0.0159387 0.00832381
0.0379443 0.0169018 0.007498
0.031184 0.0160277 0.00822586
0.0377452 0.0183565 0.00702182
0.0375941 0.016203 0.0079675
0.0381935 0.0179732 0.00701662
0.0375628 0.0165906 0.00784712
0.0312498 0.015656 0.00859393
0.0379803 0.0186216 0.00701511
0.0381288 0.0184891 0.00699591
0.0311556 0.0151296 0.00917
0.0378116 0.0178438 0.00704525
0.0312922 0.0157968 0.00845834
0.0314519 0.017067 0.00736237
0.037876 0.0173684 0.00726626
0.0317111 0.0181921 0.00699973
0.038304 0.017656 0.00713
0.0314128 0.016215 0.00804466
0.0319514 0.0167847 0.00750955
0.0378704 0.0189401 0.007081
0.0317993 0.0161899 0.00804647
0.0378584 0.0180386 0.00701831
0.0312622 0.0163078 0.00795137
0.0316605 0.0162898 0.00794274
0.0256671 0.0180194 0.00715692
0.0316467 0.017133 0.00734212
0.0319308 0.0170305 0.00740023
0.0256033 0.0169533 0.00742092
0.0324993 0.0177287 0.00711827
0.0252178 0.0161155 0.00804534
0.0324228 0.0173141 0.00729757
0.0382096 0.0188807 0.00702955
0.0326779 0.0169093 0.00748767
0.0379836 0.0168787 0.00769327
0.0320461 0.0181183 0.00700627
0.0376062 0.0173246 0.00748228
0.0312073 0.0155152 0.00872951
0.0323402 0.0184746 0.00698595
0.0318286 0.0176278 0.00733
0.0375179 0.0159476 0.00826525
0.0318398 0.0171945 0.00733075
0.0374786 0.0158265 0.00841951
0.0325135 0.0170105 0.00743555
0.0316113 0.0160311 0.00823547
0.0321124 0.016679 0.00756346
0.0315354 0.0174323 0.00722373
0.0322054 0.0179892 0.0070361
0.0315252 0.0166054 0.00759959
0.0324142 0.0180925 0.00699776
0.0321532 0.0174295 0.00724476
0.032428 0.016475 0.0076975
0.0322313 0.0172586 0.00731334
0.0379696 0.0171071 0.00747337
0.0315663 0.0167774 0.00750633
0.0313171 0.0165698 0.00796549
0.0377562 0.0166497 0.00781406
0.0323449 0.0174814 0.0072203
0.032312 0.0176613 0.00713946
0.0317939 0.0168973 0.00745933
0.0381698 0.0186854 0.00701275
0.0320685 0.0165235 0.00768136
0.0374155 0.0167139 0.00779097
0.0322283 0.0164307 0.00775783
0.0321856 0.0187114 0.00702367
0.0311222 0.0152698 0.00903133
0.0260099 0.0179489 0.00715944
0.0314923 0.0172469 0.0072849
0.0315787 0.0176195 0.00716818
0.0322977 0.0167504 0.00754041
0.0382769 0.0183557 0.00697664
0.0376053 0.0167692 0.00775809
0.0316672 0.0177477 0.00729871
0.037453 0.0170713 0.00761928
0.0319256 0.0175519 0.00717243
0.0319882 0.0161055 0.0081303
0.0320985 0.016911 0.00746055
0.0256236 0.0178275 0.00719396
0.0377948 0.017389 0.00744783
0.0323553 0.0178576 0.00706703
0.0321681 0.0177924 0.00709363
0.0376437 0.0169447 0.00766984
0.0324008 0.0182871 0.00695179
0.025178 0.0159587 0.00816294
0.0320315 0.0172526 0.00730692
0.0371584 0.0154203 0.00892702
0.0325413 0.0179426 0.00703486
0.0322349 0.0181795 0.00698124
0.0317126 0.0165748 0.00766783
0.0254461 0.0163255 0.00789125
0.037454 0.0168892 0.00770255
0.0318432 0.0163395 0.00787833
0.0314127 0.0168869 0.00743999
0.043217 0.0161164 0.00807577
0.0251378 0.015802 0.0082805
0.0308007 0.0149839 0.00960356
0.0319559 0.0184609 0.00695631
0.0307582 0.0149152 0.00978655
0.0318568 0.0180588 0.00703134
0.0255632 0.0167962 0.00753811
0.0315119 0.0169637 0.00759575
0.0318056 0.0160559 0.00819482
0.0379014 0.0160411 0.00816502
0.0322256 0.0189029 0.00706566
0.032103 0.018326 0.0069448
0.0257755 0.0176987 0.00721427
0.0252957 0.0164293 0.00780986
0.0254128 0.0169021 0.00745951
0.0256469 0.0171232 0.00732495
0.0258619 0.0180819 0.00713926
0.025485 0.0164824 0.00777352
0.0252568 0.0162724 0.00792762
0.0316654 0.0179942 0.00705796
0.0255242 0.0166393 0.00765583
0.0372781 0.0163994 0.00798788
0.025732 0.0175071 0.00725193
0.0314569 0.0167904 0.00767907
0.0259227 0.0175647 0.00723363
0.0257106 0.0182112 0.00711988
0.0319768 0.01774 0.0071192
0.0259661 0.0177567 0.00719656
0.0315266 0.015905 0.00836555
0.0262006 0.0180068 0.00714278
0.0318274 0.0178691 0.00708719
0.0319963 0.0186522 0.00699831
0.0257975 0.0185947 0.00704583
0.0383002 0.0167767 0.00755084
0.0317967 0.0185812 0.00696985
0.0320167 0.0179282 0.00706156
0.0258186 0.0178902 0.00717627
0.0321162 0.0192265 0.00712431
0.025754 0.0184029 0.00708286
0.0322696 0.0165688 0.00761922
0.0319568 0.0193465 0.00713775
0.0319821 0.0162395 0.00798194
0.0321453 0.0185198 0.0069816
0.031837 0.0187722 0.00701355
0.0260534 0.0181406 0.00712242
0.0259053 0.0182736 0.00710225
0.0317301 0.0181306 0.00718909
0.0259487 0.0184653 0.00706524
0.0320759 0.0190351 0.00708229
0.0195904 0.0176559 0.00712918
0.0320362 0.0188436 0.00704031
0.0324829 0.0168264 0.00751534
0.0256884 0.0173151 0.00728677
0.0254521 0.0170615 0.00734518
0.032029 0.0163841 0.00781911
0.0254933 0.0172508 0.00729579
0.0255801 0.0176358 0.00723097
0.0319148 0.0182663 0.00697707
0.0260967 0.0183323 0.00708541
0.0319162 0.0191534 0.00710443
0.0369222 0.0152564 0.00912601
0.0320616 0.0187031 0.00718037
0.025794 0.0170027 0.00738678
0.0317285 0.0159182 0.00835167
0.0318771 0.0189639 0.00705384
0.0314305 0.0166569 0.00782564
0.0382349 0.0181605 0.00695994
0.0324203 0.0188574 0.00706994
0.0321893 0.0163 0.00790411
0.0317545 0.0183859 0.00697584
0.0324581 0.0166439 0.00759467
0.0253347 0.0165863 0.00769215
0.0255367 0.0174438 0.00726601
0.0368788 0.0151362 0.00927981
0.0323803 0.018666 0.00702795
0.0316221 0.0178068 0.00711307
0.031778 0.0176841 0.00714486
0.0253737 0.0167432 0.00757441

VERTICES 293 586
1 0
1 1
1 2
1 3
1 4
1 5
1 6
1 7
1 8
1 9
1 10
1 11
1 12
1 13
1 14
1 15
1 16
1 17
1 18
1 19
1 20
1 21
1 22
1 23
1 24
1 25
1 26
1 27
1 28
1 29
1 30
1 31
1 32
1 33
1 34
1 35
1 36
1 37
1 38
1 39
1 40
1 41
1 42
1 43
1 44
1 45
1 46
1 47
1 48
1 49
1 50
1 51
1 52
1 53
1 54
1 55
1 56
1 57
1 58
1 59
1 60
1 61
1 62
1 63
1 64
1 65
1 66
1 67
1 68
1 69
1 70
1 71
1 72
1 73
1 74
1 75
1 76
1 77
1 78
1 79
1 80
1 81
1 82
1 83
1 84
1 85
1 86
1 87
1 88
1 89
1 90
1 91
1 92
1 93
1 94
1 95
1 96
1 97
1 98
1 99
1 100
1 101
1 102
1 103
1 104
1 105
1 106
1 107
1 108
1 109
1 110
1 111
1 112
1 113
1 114
1 115
1 116
1 117
1 118
1 119
1 120
1 121
1 122
1 123
1 124
1 125
1 126
1 127
1 128
1 129
1 130
1 131
1 132
1 133
1 134
1 135
1 136
1 137
1 138
1 139
1 140
1 141
1 142
1 143
1 144
1 145
1 146
1 147
1 148
1 149
1 150
1 151
1 152
1 153
1 154
1 155
1 156
1 157
1 158
1 159
1 160
1 161
1 162
1 163
1 164
1 165
1 166
1 167
1 168
1 169
1 170
1 171
1 172
1 173
1 174
1 175
1 176
1 177
1 178
1 179
1 180
1 181
1 182
1 183
1 184
1 185
1 186
1 187
1 188
1 189
1 190
1 191
1 192
1 193
1 194
1 195
1 196
1 197
1 198
1 199
1 200
1 201
1 202
1 203
1 204
1 205
1 206
1 207
1 208
1 209
1 210
1 211
1 212
1 213
1 214
1 215
1 216
1 217
1 218
1 219
1 220
1 221
1 222
1 223
1 224
1 225
1 226
1 227
1 228
1 229
1 230
1 231
1 232
1 233
1 234
1 235
1 236
1 237
1 238
1 239
1 240
1 241
1 242
1 243
1 244
1 245
1 246
1 247
1 248
1 249
1 250
1 251
1 252
1 253
1 254
1 255
1 256
1 257
1 258
1 259
1 260
1 261
1 262
1 263
1 264
1 265
1 266
1 267
1 268
1 269
1 270
1 271
1 272
1 273
1 274
1 275
1 276
1 277
1 278
1 279
1 280
1 281
1 282
1 283
1 284
1 285
1 286
1 287
1 288
1 289
1 290
1 291
1 292

POINT_DATA 293
SCALARS id int 1
LOOKUP_TABLE default
1
3
4
5
6
7
8
9
10
11
12
13
14
15
16
17
19
20
21
22
23
24
25
26
27
28
29
30
31
32
33
34
35
36
37
38
39
40
41
42
43
44
45
46
47
48
49
50
51
52
53
54
55
56
57
58
59
60
61
62
63
64
65
66
67
68
69
70
71
72
73
74
75
76
77
78
79
80
81
82
83
85
86
87
88
89
90
91
92
93
94
95
96
97
98
99
100
101
102
103
104
105
106
107
108
109
110
111
112
113
114
115
116
117
118
119
120
121
122
123
124
125
126
127
128
129
130
131
132
133
134
135
136
137
138
139
140
142
143
144
145
146
147
148
149
150
151
152
153
154
155
156
157
158
159
160
161
162
164
165
166
167
168
169
170
171
172
173
174
175
176
177
178
179
180
181
182
183
184
185
186
187
188
189
190
191
192
193
194
195
196
197
198
200
201
202
203
204
205
206
207
208
209
210
211
212
213
214
215
216
217
218
219
220
221
222
223
224
225
226
227
228
229
230
231
232
233
234
235
236
237
238
239
240
241
242
243
245
246
247
248
249
250
251
252
253
254
255
256
257
258
259
260
261
262
263
264
265
266
267
268
269
270
271
272
273
274
275
276
277
278
279
280
281
282
283
284
285
286
287
288
289
290
291
292
293
294
295
296
297
298
299
300

SCALARS type int 1
LOOKUP_TABLE default
1
1
1
1
1
1
1
1
1
1
1
1
1
1
1
1
1
1
1
1
1
1
1
1
1
1
1
1
1
1
1
1
1
1
1
1
1
1
1
1
1
1
1
1
1
1
1
1
1
1
1
1
1
1
1
1
1
1
1
1
1
1
1
1
1
1
1
1
1
1
1
1
1
1
1
1
1
1
1
1
1
1
1
1
1
1
1
1
1
1
1
1
1
1
1
1
1
1
1
1
1
1
1
1
1
1
1
1
1
1
1
1
1
1
1
1
1
1
1
1
1
1
1
1
1
1
1
1
1
1
1
1
1
1
1
1
1
1
1
1
1
1
1
1
1
1
1
1
1
1
1
1
1
1
1
1
1
1
1
1
1
1
1
1
1
1
1
1
1
1
1
1
1
1
1
1
1
1
1
1
1
1
1
1
1
1
1
1
1
1
1
1
1
1
1
1
1
1
1
1
1
1
1
1
1
1
1
1
1
1
1
1
1
1
1
1
1
1
1
1
1
1
1
1
1
1
1
1
1
1
1
1
1
1
1
1
1
1
1
1
1
1
1
1
1
1
1
1
1
1
1
1
1
1
1
1
1
1
1
1
1
1
1
1
1
1
1
1
1
1
1
1
1
1
1
1
1
1
1
1
1
1
1
1
1
1
1
1
1
1
1
1
1

SCALARS radius float 1
LOOKUP_TABLE default
0.0001
0.0001
0.0001
0.0001
0.0001
0.0001
0.0001
0.0001
0.0001
0.0001
0.0001
0.0001
0.0001
0.0001
0.0001
0.0001
0.0001
0.0001
0.0001
0.0001
0.0001
0.0001
0.0001
0.0001
0.0001
0.0001
0.0001
0.0001
0.0001
0.0001
0.0001
0.0001
0.0001
0.0001
0.0001
0.0001
0.0001
0.0001
0.0001
0.0001
0.0001
0.0001
0.0001
0.0001
0.0001
0.0001
0.0001
0.0001
0.0001
0.0001
0.0001
0.0001
0.0001
0.0001
0.0001
0.0001
0.0001
0.0001
0.0001
0.0001
0.0001
0.0001
0.0001
0.0001
0.0001
0.0001
0.0001
0.0001
0.0001
0.0001
0.0001
0.0001
0.0001
0.0001
0.0001
0.0001
0.0001
0.0001
0.0001
0.0001
0.0001
0.0001
0.0001
0.0001
0.0001
0.0001
0.0001
0.0001
0.0001
0.0001
0.0001
0.0001
0.0001
0.0001
0.0001
0.0001
0.0001
0.0001
0.0001
0.0001
0.0001
0.0001
0.0001
0.0001
0.0001
0.0001
0.0001
0.0001
0.0001
0.0001
0.0001
0.0001
0.0001
0.0001
0.0001
0.0001
0.0001
0.0001
0.0001
0.0001
0.0001
0.0001
0.0001
0.0001
0.0001
0.0001
0.0001
0.0001
0.0001
0.0001
0.0001
0.0001
0.0001
0.0001
0.0001
0.0001
0.0001
0.0001
0.0001
0.0001
0.0001
0.0001
0.0001
0.0001
0.0001
0.0001
0.0001
0.0001
0.0001
0.0001
0.0001
0.0001
0.0001
0.0001
0.0001
0.0001
0.0001
0.0001
0.0001
0.0001
0.0001
0.0001
0.0001
0.0001
0.0001
0.0001
0.0001
0.0001
0.0001
0.0001
0.0001
0.0001
0.0001
0.0001
0.0001
0.0001
0.0001
0.0001
0.0001
0.0001
0.0001
0.0001
0.0001
0.0001
0.0001
0.0001
0.0001
0.0001
0.0001
0.0001
0.0001
0.0001
0.0001
0.0001
0.0001
0.0001
0.0001
0.0001
0.0001
0.0001
0.0001
0.0001
0.0001
0.0001
0.0001
0.0001
0.0001
0.0001
0.0001
0.0001
0.0001
0.0001
0.0001
0.0001
0.0001
0.0001
0.0001
0.0001
0.0001
0.0001
0.0001
0.0001
0.0001
0.0001
0.0001
0.0001
0.0001
0.0001
0.0001
0.0001
0.0001
0.0001
0.0001
0.0001
0.0001
0.0001
0.0001
0.0001
0.0001
0.0001
0.0001
0.0001
0.0001
0.0001
0.0001
0.0001
0.0001
0.0001
0.0001
0.0001
0.0001
0.0001
0.0001
0.0001
0.0001
0.0001
0.0001
0.0001
0.0001
0.0001
0.0001
0.0001
0.0001
0.0001
0.0001
0.0001
0.0001
0.0001
0.0001
0.0001
0.0001
0.0001
0.0001
0.0001
0.0001
0.0001
0.0001
0.0001
0.0001
0.0001
0.0001
0.0001
0.0001
0.0001
0.0001
0.0001
0.0001
0.0001
0.0001
0.0001
0.0001
0.0001
0.0001

SCALARS mass float 1
LOOKUP_TABLE default
1.17286e-09
1.17286e-09
1.17286e-09
1.17286e-09
1.17286e-09
1.17286e-09
1.17286e-09
1.17286e-09
1.17286e-09
1.17286e-09
1.17286e-09
1.17286e-09
1.17286e-09
1.17286e-09
1.17286e-09
1.17286e-09
1.17286e-09
1.17286e-09
1.17286e-09
1.17286e-09
1.17286e-09
1.17286e-09
1.17286e-09
1.17286e-09
1.17286e-09
1.17286e-09
1.17286e-09
1.17286e-09
1.17286e-09
1.17286e-09
1.17286e-09
1.17286e-09
1.17286e-09
1.17286e-09
1.17286e-09
1.17286e-09
1.17286e-09
1.17286e-09
1.17286e-09
1.17286e-09
1.17286e-09
1.17286e-09
1.17286e-09
1.17286e-09
1.17286e-09
1.17286e-09
1.17286e-09
1.17286e-09
1.17286e-09
1.17286e-09
1.17286e-09
1.17286e-09
1.17286e-09
1.17286e-09
1.17286e-09
1.17286e-09
1.17286e-09
1.17286e-09
1.17286e-09
1.17286e-09
1.17286e-09
1.17286e-09
1.17286e-09
1.17286e-09
1.17286e-09
1.17286e-09
1.17286e-09
1.17286e-09
1.17286e-09
1.17286e-09
1.17286e-09
1.17286e-09
1.17286e-09
1.17286e-09
1.17286e-09
1.17286e-09
1.17286e-09
1.17286e-09
1.17286e-09
1.17286e-09
1.17286e-09
1.17286e-09
1.17286e-09
1.17286e-09
1.17286e-09
1.17286e-09
1.17286e-09
1.17286e-09
1.17286e-09
1.17286e-09
1.17286e-09
1.17286e-09
1.17286e-09
1.17286e-09
1.17286e-09
1.17286e-09
1.17286e-09
1.17286e-09
1.17286e-09
1.17286e-09
1.17286e-09
1.17286e-09
1.17286e-09
1.17286e-09
1.17286e-09
1.17286e-09
1.17286e-09
1.17286e-09
1.17286e-09
1.17286e-09
1.17286e-09
1.17286e-09
1.17286e-09
1.17286e-09
1.17286e-09
1.17286e-09
1.17286e-09
1.17286e-09
1.17286e-09
1.17286e-09
1.17286e-09
1.17286e-09
1.17286e-09
1.17286e-09
1.17286e-09
1.17286e-09
1.17286e-09
1.17286e-09
1.17286e-09
1.17286e-09
1.17286e-09
1.17286e-09
1.17286e-09
1.17286e-09
1.17286e-09
1.17286e-09
1.17286e-09
1.17286e-09
1.17286e-09
1.17286e-09
1.17286e-09
1.17286e-09
1.17286e-09
1.17286e-09
1.17286e-09
1.17286e-09
1.17286e-09
1.17286e-09
1.17286e-09
1.17286e-09
1.17286e-09
1.17286e-09
1.17286e-09
1.17286e-09
1.17286e-09
1.17286e-09
1.17286e-09
1.17286e-09
1.17286e-09
1.17286e-09
1.17286e-09
1.17286e-09
1.17286e-09
1.17286e-09
1.17286e-09
1.17286e-09
1.17286e-09
1.17286e-09
1.17286e-09
1.17286e-09
1.17286e-09
1.17286e-09
1.17286e-09
1.17286e-09
1.17286e-09
1.17286e-09
1.17286e-09
1.17286e-09
1.17286e-09
1.17286e-09
1.17286e-09
1.17286e-09
1.17286e-09
1.17286e-09
1.17286e-09
1.17286e-09
1.17286e-09
1.17286e-09
1.17286e-09
1.17286e-09
1.17286e-09
1.17286e-09
1.17286e-09
1.17286e-09
1.17286e-09
1.17286e-09
1.17286e-09
1.17286e-09
1.17286e-09
1.17286e-09
1.17286e-09
1.17286e-09
1.17286e-09
1.17286e-09
1.17286e-09
1.17286e-09
1.17286e-09
1.17286e-09
1.17286e-09
1.17286e-09
1.17286e-09
1.17286e-09
1.17286e-09
1.17286e-09
1.17286e-09
1.17286e-09
1.17286e-09
1.17286e-09
1.17286e-09
1.17286e-09
1.17286e-09
1.17286e-09
1.17286e-09
1.17286e-09
1.17286e-09
1.17286e-09
1.17286e-09
1.17286e-09
1.17286e-09
1.17286e-09
1.17286e-09
1.17286e-09
1.17286e-09
1.17286e-09
1.17286e-09
1.17286e-09
1.17286e-09
1.17286e-09
1.17286e-09
1.17286e-09
1.17286e-09
1.17286e-09
1.17286e-09
1.17286e-09
1.17286e-09
1.17286e-09
1.17286e-09
1.17286e-09
1.17286e-09
1.17286e-09
1.17286e-09
1.17286e-09
1.17286e-09
1.17286e-09
1.17286e-09
1.17286e-09
1.17286e-09
1.17286e-09
1.17286e-09
1.17286e-09
1.17286e-09
1.17286e-09
1.17286e-09
1.17286e-09
1.17286e-09
1.17286e-09
1.17286e-09
1.17286e-09
1.17286e-09
1.17286e-09
1.17286e-09
1.17286e-09
1.17286e-09
1.17286e-09
1.17286e-09
1.17286e-09
1.17286e-09
1.17286e-09
1.17286e-09
1.17286e-09
1.17286e-09
1.17286e-09
1.17286e-09
1.17286e-09
1.17286e-09
1.17286e-09
1.17286e-09
1.17286e-09
1.17286e-09
1.17286e-09
1.17286e-09
1.17286e-09
1.17286e-09

VECTORS velocity float
0.00594592 0.000682725 -0.000548681
0.00541867 -0.000237878 0.000134483
0.00640125 0.00077493 -0.00034274
0.00580911 0.000933263 -0.000899941
0.00539614 -0.000488189 0.000393206
0.00555524 -0.000515309 0.000385307
0.00616644 0.000634372 -0.000492659
0.00586967 -0.000529003 0.000563157
0.00573865 0.000819015 -0.000567667
0.00616072 0.000382853 -0.000353345
0.00576707 0.000733265 -0.000551942
0.00578901 0.000640759 -0.00053638
0.00606059 -0.000419947 0.000303627
0.00616828 0.00072674 -0.0005289
0.00601995 -0.00016172 0.000498402
0.00569342 0.000677858 -0.00053313
0.00577303 0.000713361 -0.000607447
0.00639963 0.000654242 -0.000576727
0.0057545 0.000686471 -0.00057209
0.00597034 0.000621113 -0.000466553
0.00538649 -8.12546e-05 0.000268891
0.00535726 -0.000471609 0.000382198
0.00558243 0.00081123 -0.000584648
0.00536127 -0.00046294 0.000379898
0.00629238 0.000734548 -0.000546249
0.00562345 -0.000520537 0.000410212
0.00574934 -0.00050656 0.000547231
0.0057235 0.000810285 -0.000560706
0.00608944 0.00071101 -0.000518386
0.00589877 0.000572486 -0.000454777
0.00576274 0.000593491 -0.000485381
0.00597327 0.000679342 -0.000562096
0.00583832 -0.000524891 0.000559543
0.00564634 0.000785023 -0.000546721
0.00569115 0.000802555 -0.000533036
0.00549726 -0.000515179 0.000396677
0.00640873 0.00066769 -0.000502704
0.0058929 0.000744509 -0.00065369
0.00611711 0.000686771 -0.000527878
0.00566716 0.000782154 -0.000545575
0.00596405 0.000486838 -0.000394642
0.006325 0.00062582 -0.000497951
0.00570774 -0.000536154 0.000414042
0.00602498 0.000650039 -0.000515052
0.00629368 0.000742445 -0.000549141
0.0065168 0.00101314 -7.42254e-05
0.00616514 0.000741746 -0.000549596
0.00635372 0.000747904 -0.000227784
0.00603793 -0.00029612 0.000421924
0.00560801 -0.000559526 0.000423334
0.00603007 0.000671882 -0.000542155
0.00599041 -0.000185568 0.00051499
0.00621695 0.000665543 -0.000526424
0.00547089 -0.000484414 0.000392199
0.00632619 0.000647707 -0.000493064
0.00567953 -0.000521333 0.000412564
0.00593013 0.000598906 -0.000485365
0.00595123 0.000680147 -0.00055782
0.00623458 0.000682935 -0.000522732
0.00646388 0.000956933 -0.000184717
0.00574951 -0.000505022 0.000546326
0.00612042 0.000731101 -0.000541288
0.00550158 -8.44772e-05 0.000311023
0.00628648 0.000439918 -0.00039733
0.0057363 0.000809979 -0.000552017
0.00596823 -0.000427689 0.000245653
0.00580772 -0.00051933 0.000555698
0.00588302 -0.000408433 0.000204466
0.00631979 0.000828802 -2.37624e-05
0.00635139 0.000538454 -0.00045761
0.00577903 -0.000512196 0.000551922
0.00574418 0.000824857 -0.000569623
0.0063444 0.000821676 -2.44391e-05
0.00616972 0.000818479 -0.000188465
0.00586321 -0.000178804 0.000509763
0.00561794 3.22013e-05 0.000292901
0.00527556 0.000383683 0.000443656
0.00554644 -0.000248856 0.000315064
0.00540443 -0.000387029 6.68388e-05
0.00542114 -9.57308e-05 0.000425262
0.00564693 -0.000553447 0.000422607
0.00634213 0.000813138 -0.000437531
0.0060025 0.000574816 -0.000446147
0.0062654 0.000780327 -0.000349406
0.00606038 0.000340157 -0.000334531
0.00581683 -0.000191834 0.000362105
0.00622705 0.000568867 -0.000454635
0.00631247 0.000754371 -4.26321e-06
0.00613004 0.00093514 -0.000948947
0.00608367 0.000898579 -0.000929929
0.00570707 -0.000541606 0.000419672
0.00557963 -0.000144674 0.00030764
0.00618945 0.000783061 -0.000326259
0.00524588 -0.000332004 0.000106808
0.00565025 0.000761381 -0.000671574
0.0062286 0.000656203 -0.000515363
0.00544607 -7.33856e-05 0.000294465
0.00501463 0.00190258 -0.000611702
0.00619161 0.00065771 -0.000518535
0.00594992 -0.000178399 0.000512659
0.00573587 -0.000366217 0.000431038
0.00570561 -0.000158803 0.000480488
0.00623585 0.000657724 -0.000515543
0.00582388 9.54862e-05 0.000166218
0.00629958 0.00083523 -0.000221859
0.00629374 0.000785976 -0.000213132
0.00532896 -4.54709e-05 0.000331482
0.00563867 -0.000503031 0.000391361
0.00532793 -0.000132714 0.000206453
0.00565197 0.000401459 -4.12486e-05
0.00628603 0.000901934 -5.1777e-05
0.00620204 0.000648935 -0.000505262
0.00596391 -0.000875168 0.000251195
0.0057161 0.000623056 -0.000508055
0.00575266 0.000619187 -0.000439396
0.00609487 0.000666545 -0.000534391
0.00649071 0.00102994 -0.000185131
0.0054069 -0.000482362 -4.54611e-05
0.00633001 0.000759247 -0.000560669
0.00580673 0.000427952 -0.000560612
0.00541884 9.70501e-06 0.000241785
0.00576059 0.000745577 -0.000576248
0.00631486 0.00077499 -0.000171195
0.00554337 -8.08423e-05 0.000395826
0.00608955 0.000599846 -0.000610012
0.00549377 -0.000121686 0.000443299
0.00632563 0.000775302 -0.000230039
0.00568551 0.000791141 -0.000653325
0.00624365 0.000959222 -7.31688e-05
0.00578842 0.000883044 -0.000534721
0.00594883 -0.000136084 0.00047391
0.00622721 0.000801673 -0.00020466
0.00626439 0.00090539 -0.000199381
0.00606831 -0.000433179 0.000265058
0.00638625 0.000848062 -2.53981e-05
0.00574728 -0.000111275 0.000433129
0.00567885 -0.000273046 0.000400006
0.00638726 0.000640722 -0.00053757
0.00569348 -0.00172557 0.000256951
0.00626816 0.000718332 1.03034e-05
0.00544169 -0.000989649 -0.000737275
0.00543231 -6.06336e-05 0.000281656
0.00611173 0.000797052 -0.000324125
0.00545521 -0.000301546 2.4536e-05
0.00629532 0.000797768 -6.34853e-05
0.00531261 -6.1261e-05 0.000373745
0.00536264 -0.000327307 7.84512e-05
0.00600288 -0.00030879 -0.000127917
0.00574383 -0.000281083 0.000405027
0.00581897 -0.000416254 0.000425155
0.005561 -0.000174066 5.96008e-05
0.0043105 0.00406081 -0.00159562
0.00557757 2.61554e-06 0.00010905
0.00517995 0.00205802 -0.000663775
0.00621287 0.000843818 -0.000189838
0.00559802 -0.000351167 0.00041503
0.00452388 0.0075529 -0.00079145
0.00584115 -0.00111972 -1.54287e-05
0.00624214 0.000699827 -0.000579566
0.00597392 -0.000155057 0.000491683
0.00465816 -0.000449825 0.000232046
0.00592415 5.13123e-05 -0.000153841
0.00602479 0.000718024 -0.000611393
0.00581879 -0.00038803 0.000436364
0.00610132 0.000694351 -0.000567741
0.00552058 -0.000390579 0.000420763
0.00551153 -0.000252142 0.000148431
0.00541786 -9.09116e-05 0.000292484
0.00600912 -0.00102415 0.000348597
0.0052665 0.00158628 -0.000663028
0.00565924 -0.000251099 -1.34974e-05
0.00599826 -0.000497608 -0.000109216
0.00539069 0.000174569 -0.000201563
0.00525792 -0.000448949 0.00021969
0.00578397 0.000318336 0.000149608
0.00612886 0.000308161 -0.000759098
0.0054889 -0.00011253 0.000318558
0.00560376 0.000173521 0.000139385
0.00587864 0.000712406 -0.000612071
0.00500195 0.00256371 -0.000899876
0.0054064 0.00288933 -0.00105323
0.00541766 -0.000128754 0.000290843
0.00621654 0.000838376 -0.000196435
0.0053718 -0.000151869 0.000231811
0.00574551 0.000815042 -0.000561195
0.00535919 -0.000324207 0.000133472
0.00606324 -0.00154879 0.000109731
0.00602388 -0.000293763 0.00042247
0.00600676 -0.000297676 -0.0001301
0.00588181 -0.000618507 0.000564096
0.00601637 -0.00110246 1.31467e-05
0.00548686 -0.000139612 0.000318289
0.00631126 0.000844157 -0.000194307
0.00568236 0.000799511 -0.000561115
0.00534063 -0.000247999 0.000141399
0.00600334 0.000795261 -0.000546976
0.00549217 -0.000339632 -0.00015697
0.00554965 -0.000266189 9.61062e-06
0.00559891 -0.00023307 0.000361292
0.00602157 -0.000260234 -0.00013771
0.00633817 0.00071463 -0.000586088
0.00425653 0.00397656 -0.00131192
0.00475826 0.00251363 -0.000942346
0.00605481 0.000689108 -0.000513169
0.00574923 -0.000122595 0.000393557
0.00559554 -3.07088e-06 0.000113375
0.00570333 -0.000209771 0.000374385
0.00624165 0.000665811 -0.000527853
0.00578123 -0.000652905 -6.98565e-05
0.00592348 -0.000731247 8.79852e-05
0.00535624 -0.000105778 0.000220392
0.00548807 -6.94475e-05 0.000161641
0.005725 0.000820134 -0.000561342
0.00532963 -0.000241658 0.000104986
0.00553777 -0.000171728 0.000335206
0.00562149 -0.000530878 0.000401679
0.00578693 -3.44527e-05 0.000140965
0.00593346 -0.000482345 0.000158578
0.0059924 -0.00177935 1.28105e-05
0.00590653 -0.000386319 0.000157916
0.00581836 -0.00139647 0.000248225
0.00551983 -7.99308e-05 0.000169436
0.00560818 -0.000111725 0.00029379
0.00551896 -0.000304873 3.14053e-05
0.00541762 0.000660687 -0.000566318
0.00490268 -0.000911867 0.000171328
0.00588902 -0.00227026 0.000432097
0.00600942 -0.000314232 -0.000133706
0.00549082 -4.94235e-05 0.000146577
0.00557145 -0.000199662 -9.58554e-05
0.00584179 -0.000246971 5.92615e-05
0.00599902 -0.000305413 -0.000128369
0.00550473 -7.09813e-05 0.000162779
0.00544712 2.31205e-05 9.06652e-05
0.00607662 -0.000603158 -7.89067e-05
0.00551979 -7.65208e-05 0.000167377
0.00572977 0.000702687 -0.000643863
0.00603074 -0.000305848 -5.03651e-05
0.00579501 -0.000179035 0.000214383
0.00601933 -0.000301909 -0.000130516
0.00599616 -0.000307605 -0.000127949
0.00534515 -2.92867e-05 -0.000123754
0.00600657 -0.000305161 -0.000128482
0.00556158 -6.2464e-05 0.000382923
0.006004 -0.000286376 -0.000132136
0.00399321 -0.000915246 7.22234e-05
0.0060205 -0.00188219 4.03413e-05
0.0059831 -0.00029866 -0.000129216
0.00617543 0.00034329 -0.000343812
0.00564062 -0.00187076 -7.59621e-05
0.00501494 -0.000142524 -0.000178892
0.00600327 -0.000308692 -0.000128021
0.00562173 -0.00216574 -6.92659e-05
0.00598819 -0.000306967 -0.000127817
0.00534561 -0.000179132 0.000302585
0.00550344 -0.00161277 1.10377e-05
0.00541241 -0.000260266 9.44254e-06
0.00573192 -0.00146073 0.000123857
0.00577131 -0.00194334 0.000181801
0.00599744 -0.000294441 -0.000130438
0.00599119 -0.000302071 -0.000128829
0.00614312 -0.00113542 0.000414891
0.00598416 -0.000298062 -0.000129355
0.00530306 -0.00209215 -2.31518e-05
0.0059236 -0.00125295 0.000411169
0.00509497 -0.00155428 -9.75663e-06
0.00529708 -0.000279449 0.000364827
0.00598829 -0.000275865 7.34044e-05
0.00468927 3.93847e-05 -5.60684e-05
0.00532962 -0.000231803 0.000129029
0.00605327 -0.000227393 6.56349e-05
0.00602801 -0.000261653 -0.000136457
0.00576289 -0.00172656 -0.00190454
0.00598834 -0.000292783 -0.000130471
0.00574405 -0.00121438 -0.000998978
0.00625206 0.000659495 -0.000512319
0.00516426 -0.00150048 0.000200031
0.0056395 -0.000334637 0.000363319
0.00575575 -0.000206129 -9.1319e-05
0.00529691 -0.00170432 -0.000172339
0.00594309 -0.000326206 0.000122197
0.00635654 0.000919183 -0.000198347
0.00538042 -0.000434997 0.000275741
0.00531927 -0.000345842 0.000107004
0.0058369 -0.00176139 0.000157341
0.00543983 -0.000325737 0.000403174
0.00551521 -5.73819e-05 0.000152794
0.00603589 -0.000224343 6.47394e-05
0.00627939 0.000605163 -0.000557695
0.00636942 -0.000756482 0.000284993
0.00610836 -0.000594188 -0.000120512
0.00546437 -0.00109535 0.000176035
0.00555067 -3.05924e-05 0.00013314

VECTORS force float
2.41332e-10 5.82069e-10 -5.34642e-10
1.8145e-09 -2.82902e-09 -2.69786e-10
-9.4623e-10 -7.68668e-10 -4.1005e-10
1.24893e-09 2.58157e-09 -2.77727e-09
6.17006e-10 -3.54564e-10 2.53838e-10
-8.66427e-10 3.23851e-10 -5.18036e-10
3.66232e-10 -1.6126e-10 6.68321e-10
-8.77236e-11 -1.87822e-10 5.95676e-11
-3.5802e-10 -1.69602e-09 7.33798e-10
-2.63917e-09 2.73562e-09 -1.33085e-09
-9.86998e-10 1.18106e-09 1.48486e-09
1.25575e-09 4.665e-10 5.75705e-11
7.55595e-10 1.63184e-09 -2.4471e-09
-1.3881e-09 -1.81148e-09 1.05142e-09
-1.55339e-10 9.05872e-10 -8.22062e-10
-3.66455e-10 -6.45737e-10 -4.95948e-09
-8.57718e-10 4.80909e-09 -3.9531e-09
2.41151e-11 2.23915e-09 7.2685e-10
1.77079e-09 -3.13588e-09 3.34341e-09
-2.5534e-09 -5.97845e-10 3.22067e-10
1.70592e-09 -1.01818e-09 2.2363e-10
5.35122e-10 -4.19062e-10 -1.61669e-10
3.65369e-10 7.12078e-10 5.25794e-10
-1.41676e-10 -2.93789e-11 -1.3047e-10
2.17767e-09 -7.58591e-10 -5.71682e-10
-4.95727e-10 -8.80927e-11 3.52444e-11
3.00786e-11 -9.61333e-11 1.21878e-11
3.96175e-09 6.29479e-10 -5.81686e-10
8.82966e-10 -1.90589e-09 1.00619e-09
1.23986e-09 2.50088e-10 -1.62368e-09
-6.42596e-10 4.64758e-11 -1.18975e-09
-1.61591e-09 9.91845e-10 3.87524e-09
-1.24629e-11 -5.28773e-11 5.07915e-12
7.55964e-10 -3.02429e-09 8.14424e-10
1.29986e-09 7.68358e-10 -3.73722e-09
-1.07431e-10 -2.89568e-10 2.00808e-10
-4.93261e-10 1.20842e-09 9.14602e-10
1.61387e-09 2.98369e-10 -9.82437e-11
-2.35825e-10 -1.48902e-09 1.65393e-09
5.90238e-10 1.4271e-09 1.49546e-11
-2.22364e-09 -7.75787e-10 -3.64368e-11
-7.20918e-10 1.56021e-09 -1.62456e-09
3.05286e-10 2.72321e-10 1.4948e-10
-1.2807e-09 -6.8685e-13 -5.16427e-10
7.28626e-10 -6.66599e-10 1.76231e-10
2.42604e-09 1.2063e-09 1.00593e-09
1.44095e-09 2.71549e-10 7.96979e-10
9.55233e-10 1.82027e-09 1.59616e-09
8.14246e-10 1.43623e-09 -2.10523e-09
-5.11278e-10 2.94831e-10 -1.56695e-10
4.03088e-10 -8.82969e-11 2.19733e-11
5.09271e-10 1.39299e-09 -1.54279e-09
1.90315e-10 -1.2079e-09 1.2347e-09
1.36096e-10 -5.69656e-12 2.62965e-11
1.83126e-09 -3.57303e-10 2.12032e-10
-1.82316e-10 1.81873e-10 -9.35804e-11
-1.67848e-09 1.30841e-10 7.99592e-12
1.38328e-09 -9.30329e-12 -1.93117e-10
-1.93479e-09 -2.11022e-09 8.22445e-10
-1.07279e-09 -5.7475e-10 -5.17828e-10
3.71592e-12 1.86835e-10 -7.90537e-11
-4.40996e-10 -1.69107e-09 1.10254e-10
-1.82909e-10 -1.25337e-09 2.71791e-09
-1.10002e-09 4.47736e-09 -3.00861e-09
-1.04937e-09 1.63438e-09 -9.65338e-10
-1.38319e-09 1.17515e-09 -2.80737e-09
6.62892e-11 1.13727e-10 -1.74477e-13
-1.25131e-10 1.27819e-09 -2.2687e-09
-1.05372e-09 9.2101e-10 -1.4887e-09
-4.13015e-09 1.74689e-09 -1.0616e-09
9.90991e-11 1.65962e-10 -1.10289e-10
-2.51725e-09 -3.3547e-10 5.13553e-10
5.55371e-10 2.6872e-09 -5.77378e-10
1.73583e-09 -2.65153e-10 -4.01532e-10
-7.12656e-10 5.70359e-10 -3.0949e-10
-3.74263e-10 -1.63083e-09 1.63306e-09
-7.34205e-10 1.85688e-09 1.41227e-10
5.87392e-09 -9.21332e-09 3.95969e-09
4.19251e-10 -5.23101e-09 -3.00412e-09
8.55365e-10 2.47469e-10 -5.47512e-10
3.83333e-12 -4.09468e-10 1.03747e-10
-4.51323e-10 -6.06212e-10 -1.4099e-09
-1.0734e-09 6.26934e-10 -6.85947e-10
-4.86476e-10 -1.28134e-09 2.16524e-09
-3.21891e-09 1.02365e-09 -4.24803e-10
-1.45075e-09 3.16386e-09 -2.67542e-10
-2.69683e-09 5.72982e-10 -2.42161e-10
-1.93723e-09 -3.78948e-10 -2.54315e-10
5.46581e-10 3.17374e-10 -1.49157e-09
5.05873e-10 -6.71368e-10 5.56977e-10
-4.68029e-10 3.96765e-10 -5.02986e-11
-1.08534e-09 -4.03473e-09 2.37413e-09
-2.07121e-10 -1.07763e-09 1.70968e-09
2.6187e-10 -1.39571e-09 2.01389e-09
-1.49327e-09 -2.14664e-10 1.75119e-09
6.01576e-10 -5.40405e-10 1.01882e-09
1.86936e-09 -4.04154e-09 1.61822e-09
7.6297e-09 6.63742e-10 2.38263e-10
1.9335e-10 4.98543e-10 -7.11079e-10
5.46015e-10 8.54197e-10 -7.96047e-10
6.80752e-09 -2.13359e-08 -7.49837e-10
3.59106e-10 8.03773e-10 -8.38323e-10
2.62924e-10 -4.94353e-10 7.08637e-10
1.76239e-10 8.57655e-09 -4.0491e-09
-1.62715e-09 2.57028e-11 8.07207e-10
-5.30851e-10 -4.2324e-10 -1.72378e-11
1.60815e-09 -6.59463e-10 -2.72648e-10
2.10804e-08 -2.78562e-08 1.05038e-08
6.78851e-11 -1.59246e-10 1.0064e-09
2.88466e-09 -3.87408e-09 4.24244e-09
-1.89014e-09 -1.31236e-09 9.20596e-10
-4.65656e-10 -9.12188e-10 1.02442e-09
1.32479e-08 -3.34385e-08 1.18338e-08
-4.64672e-10 -6.91881e-10 2.57549e-10
-3.42507e-09 4.12493e-09 -5.42464e-10
1.30358e-09 3.92369e-10 -3.39703e-10
2.1107e-10 2.19731e-09 -1.30926e-10
-1.66196e-09 2.1478e-10 9.32015e-10
3.5926e-09 3.85889e-09 -2.59813e-09
-1.32528e-09 1.44941e-09 -3.80889e-09
-1.58985e-09 9.16423e-09 -4.37311e-09
9.33859e-10 -1.58694e-10 2.35089e-10
-9.90836e-10 -6.07063e-10 -6.89257e-12
7.95799e-10 1.20213e-09 -1.43817e-09
1.07318e-11 -1.43851e-09 -2.14781e-09
-4.6423e-10 1.18762e-09 -9.35344e-10
-8.29024e-10 -1.05383e-09 -1.41182e-09
7.92357e-10 6.35183e-10 6.13274e-10
-2.48729e-09 2.06719e-09 -4.20517e-10
-1.27248e-09 1.11174e-09 -1.81666e-09
6.8142e-10 1.13864e-09 -1.04903e-09
4.45427e-10 -1.73865e-10 9.44976e-12
-3.294e-10 -9.56079e-10 -1.5818e-10
-2.31346e-11 4.92356e-10 -1.24534e-09
4.99397e-10 1.05829e-09 -5.24302e-10
-1.34893e-09 8.13866e-10 -4.63931e-10
1.24654e-08 -1.74767e-08 9.78378e-09
-4.06555e-09 -1.0198e-10 -5.77703e-10
-1.40778e-09 -3.67449e-08 7.10366e-09
-1.39392e-09 2.00863e-09 -5.96906e-10
1.01237e-09 -2.20037e-09 -3.5914e-09
3.55304e-09 9.19099e-10 -3.33883e-10
6.62494e-10 -8.40734e-10 1.35666e-09
-1.90277e-09 1.19498e-09 -4.50052e-10
-1.71565e-09 -6.42765e-10 -6.68642e-10
2.40861e-09 -1.02764e-09 -1.92191e-09
-6.13842e-09 -1.63591e-09 -8.60051e-10
-1.77239e-11 5.14998e-11 -8.44985e-12
-1.25924e-08 2.58761e-09 2.81576e-09
3.11269e-09 -5.15006e-09 3.48742e-09
2.0095e-10 -3.19164e-11 6.18464e-11
-3.14527e-09 1.15287e-10 5.06478e-10
-9.92504e-11 5.15991e-11 -3.59822e-11
6.87097e-09 -2.21011e-09 1.11206e-09
1.21991e-09 2.76997e-10 -4.83025e-12
-4.62026e-09 3.3296e-09 -1.20813e-09
0.0 0.0 -1.15058e-08
-2.07561e-09 -1.23663e-08 4.98398e-09
4.77226e-10 4.84071e-10 -6.51893e-10
5.73531e-10 6.61673e-10 -6.0978e-10
-5.11182e-09 2.07964e-09 4.13049e-10
5.98929e-09 -1.36096e-08 1.17746e-08
3.00037e-09 6.45916e-10 -6.84138e-10
-2.36602e-09 -1.12589e-08 7.73612e-09
4.75029e-09 5.01042e-10 -3.65238e-10
-4.12601e-09 3.05379e-09 -3.2014e-09
1.34686e-10 -2.1222e-10 -8.62845e-10
3.48287e-09 1.82067e-09 -7.6691e-10
1.81249e-09 -9.64073e-09 -1.16882e-08
3.8619e-08 1.69664e-08 -5.07152e-09
-3.05806e-09 -3.05028e-09 5.62927e-09
-4.76953e-10 8.27509e-10 1.48196e-09
0.0 0.0 -1.15058e-08
1.92589e-09 1.86609e-09 -1.29901e-09
3.43646e-09 7.48136e-09 -4.66876e-09
1.09956e-09 4.88746e-10 4.63523e-10
1.43441e-09 -7.74066e-09 2.83849e-09
-2.27621e-09 -2.52903e-09 2.48789e-09
-1.31554e-09 1.01141e-09 1.13259e-09
-5.18044e-09 1.91565e-09 -8.01359e-10
-3.83777e-09 1.36871e-09 -3.46272e-09
-6.13085e-10 -4.43591e-09 -1.10514e-10
1.86447e-10 1.90561e-11 -1.08501e-10
3.43728e-09 1.64968e-09 9.03749e-11
-1.17974e-09 -5.53382e-10 -6.12027e-10
6.89625e-11 2.40258e-09 4.01404e-09
2.27574e-08 2.83864e-09 2.08244e-09
-9.12529e-10 4.74379e-10 -1.13833e-09
-6.52251e-11 -5.18329e-11 1.04603e-11
-9.49988e-09 -3.07269e-08 1.66145e-09
2.66362e-08 2.01519e-08 -1.22249e-09
3.74576e-09 5.47758e-09 -3.0452e-09
-1.78647e-09 9.73998e-10 2.38309e-10
-8.61209e-11 -1.2088e-09 1.3486e-09
0.0 0.0 -1.15058e-08
9.44334e-10 5.04667e-10 1.06484e-09
-1.53419e-10 -3.61084e-09 2.50209e-09
8.72095e-11 -1.14337e-09 8.34176e-10
-8.69331e-10 3.36625e-09 -3.64966e-10
-1.01526e-10 -1.90383e-10 5.56992e-11
1.59136e-09 1.58834e-09 -5.64414e-10
-4.76413e-09 4.39525e-11 -6.93469e-10
-4.55055e-09 4.6407e-10 1.30615e-09
-4.51902e-10 -7.84332e-10 1.73749e-09
-1.1678e-08 -1.80044e-09 2.00307e-09
6.4085e-10 -2.8973e-11 3.96573e-11
4.68522e-09 -1.17929e-08 2.55002e-09
-1.83487e-10 -1.28059e-09 1.59621e-09
-4.39864e-09 3.09177e-09 -1.56078e-09
-1.03127e-08 -9.57633e-09 -2.01212e-09
-1.11743e-10 5.35623e-11 2.29023e-09
-6.98202e-11 2.7929e-10 -2.23287e-10
3.63421e-10 -7.83021e-10 -9.19409e-10
-3.29471e-09 9.0438e-10 2.06006e-10
9.73129e-10 -7.59401e-09 3.24788e-09
4.28234e-10 4.63272e-10 -2.49481e-10
2.41174e-12 2.67877e-11 -2.23709e-11
4.63768e-10 1.63201e-09 -2.41014e-09
1.98281e-08 -1.37819e-08 3.9322e-09
1.82578e-09 8.50847e-10 -4.31474e-09
1.82988e-08 -1.33071e-08 2.22543e-09
6.74432e-11 5.06084e-11 -7.59316e-11
2.4201e-09 -4.04507e-09 1.75235e-09
3.92366e-10 -4.52425e-10 9.24691e-10
-4.0147e-09 1.10533e-10 -3.16491e-10
2.81999e-08 1.04087e-08 3.8393e-09
2.90513e-09 -2.17906e-08 -7.82873e-09
-1.72732e-10 1.56584e-11 -5.31196e-11
1.50286e-10 2.10669e-10 -1.263e-10
4.61314e-11 7.1182e-11 -3.22593e-11
-2.24719e-12 9.2024e-11 3.94184e-10
-2.05868e-11 -3.40814e-12 1.96834e-12
1.1269e-10 1.57525e-10 -1.43516e-10
3.66035e-11 9.24645e-11 -7.2569e-11
-5.38997e-10 -1.65575e-09 -1.19803e-09
-6.97721e-11 1.50991e-10 -1.57306e-10
1.3622e-09 3.66463e-11 1.03198e-09
-2.79993e-10 -4.73618e-11 -5.40899e-10
-8.29237e-10 -1.9543e-09 1.58861e-09
-1.59508e-10 7.49507e-11 -3.42423e-12
1.97015e-11 6.70456e-11 -1.34486e-11
-1.66809e-08 1.25523e-08 -9.43928e-09
-1.79337e-10 -1.82927e-11 4.7573e-12
1.2021e-09 -3.55513e-11 -1.1056e-09
-3.63227e-11 -1.30949e-10 2.60732e-11
6.45431e-08 1.98588e-08 -1.00013e-08
2.24236e-08 -1.73835e-09 6.75843e-10
-1.52984e-11 -3.88539e-11 7.86105e-12
-4.25163e-09 2.45053e-09 -7.18107e-10
3.24475e-08 3.9738e-09 1.11186e-08
7.82798e-08 -1.58937e-09 -2.67854e-09
-1.01458e-10 1.69506e-11 -1.49255e-12
-7.02243e-09 -2.70792e-10 1.38181e-09
-1.5718e-11 -7.53649e-11 1.4427e-11
2.7344e-09 2.61361e-09 2.85643e-11
-8.436e-09 -8.94e-10 3.48468e-09
-3.49099e-09 6.36497e-11 1.05998e-09
2.95525e-08 -6.12319e-09 5.25376e-10
-1.62903e-10 5.52079e-09 -4.92723e-09
1.73185e-11 -4.89225e-11 8.23148e-12
1.10342e-11 -4.23436e-11 7.03154e-12
-4.09089e-10 1.38417e-09 -9.49054e-09
-1.35649e-11 -3.58607e-11 7.06527e-12
-6.92148e-09 -2.35383e-10 1.22689e-09
2.82253e-12 -6.11001e-13 2.07266e-13
-1.1273e-08 6.1864e-10 -2.56224e-09
-5.72455e-09 4.79996e-09 -2.58076e-09
3.37871e-11 -2.868e-11 3.33261e-11
-1.5276e-09 2.94502e-10 -2.02692e-10
1.43219e-09 -2.19753e-10 2.69507e-09
-5.42197e-11 -5.41099e-11 7.43506e-12
8.44909e-11 -2.2895e-10 6.4752e-11
1.69759e-09 6.29184e-09 2.25944e-08
-1.96031e-13 -2.73069e-11 5.58424e-12
0.0 0.0 -1.15058e-08
7.06918e-11 -3.04253e-10 1.35145e-09
2.11185e-08 -1.3973e-09 7.53088e-09
-9.37207e-11 -1.6062e-10 1.93074e-10
2.95872e-10 1.07109e-09 -9.76954e-10
-2.01324e-08 -2.29447e-08 -7.95746e-09
-6.67572e-10 1.16742e-09 4.16095e-09
-1.70359e-09 -1.43552e-10 -1.66462e-09
3.10857e-08 -7.84051e-09 1.76844e-09
5.1667e-09 1.10648e-10 4.11331e-09
2.51674e-09 -1.16496e-08 5.46906e-09
3.30032e-09 2.39395e-09 -1.2385e-09
1.04367e-11 1.18696e-10 -8.65887e-11
-3.65237e-11 -1.68139e-10 -9.67821e-12
-1.77748e-10 -1.724e-09 1.11226e-09
1.54159e-08 -6.271e-09 7.18721e-10
-2.90807e-09 1.22766e-09 -3.99569e-09
-6.65583e-08 -1.27146e-08 1.89466e-08
-1.2062e-10 -3.66192e-11 -1.43653e-11
