# vtk DataFile Version 3.0
LIGGGHTS particles timestep 1000000
ASCII
DATASET POLYDATA
POINTS 147 float
0.0189567 0.0177386 0.00710954
0.0170577 0.0227575 0.0098609
0.0200187 0.0193445 0.00687541
0.0189991 0.0179289 0.00706514
0.024716 0.0167551 0.00756609
0.0323311 0.015748 0.03893
0.0188704 0.0173867 0.00727907
0.025188 0.0188287 0.00702112
0.0191204 0.0185093 0.00697322
0.0200131 0.0184025 0.00702177
0.01949 0.0186647 0.00696398
0.0190393 0.0181223 0.0070337
0.0140072 0.0204773 0.00730753
0.0192833 0.0193299 0.00689973
0.0137408 0.0206117 0.00734743
0.0190799 0.0183158 0.00700346
0.019252 0.0181832 0.00703115
0.0199523 0.0189432 0.00693122
0.0191912 0.0179948 0.00705984
0.0196848 0.0186204 0.0069747
0.0177839 0.0238814 0.011718
0.0247576 0.0169147 0.00745301
0.0194511 0.0182964 0.00701956
0.0247992 0.0170744 0.00733992
0.0193249 0.0195361 0.00693003
0.0248855 0.0174563 0.0072608
0.0251608 0.0179059 0.00719228
0.0192085 0.0189431 0.00694974
0.0194035 0.0190123 0.00690081
0.019978 0.0181302 0.00706508
0.0197233 0.0180876 0.0070632
0.0195299 0.0188601 0.00693011
0.025144 0.0186176 0.00706175
0.0193384 0.0187918 0.00693461
0.0192705 0.0183798 0.00699963
0.0246744 0.0165955 0.00767918
0.0199932 0.0191421 0.00689974
0.0193155 0.0176918 0.00712063
0.0196002 0.0190483 0.00690176
0.0195405 0.0184735 0.00699371
0.019835 0.018491 0.0070011
0.0200583 0.0185955 0.00699178
0.0249713 0.0178424 0.0072012
0.0189135 0.0175627 0.0071943
0.0194712 0.0194049 0.00689273
0.0202774 0.0201097 0.00716823
0.0194402 0.0192079 0.00687769
0.0201763 0.0192222 0.00689109
0.0139317 0.0206711 0.00734779
0.0249897 0.0171296 0.00731213
0.0191086 0.0176193 0.00716144
0.014189 0.0205703 0.00731464
0.0187535 0.0167211 0.0077158
0.0248426 0.0172633 0.00729068
0.0201409 0.0190098 0.00692641
0.0249284 0.0176494 0.007231
0.0198505 0.0182815 0.0070359
0.019151 0.0178013 0.0070901
0.019637 0.0192429 0.00687122
0.0196446 0.0197099 0.00702144
0.0250156 0.0180417 0.00717043
0.0192447 0.0191337 0.0069013
0.0147379 0.0231961 0.014113
0.0198744 0.0186943 0.00696922
0.0193112 0.0185736 0.00696934
0.0136039 0.0207535 0.00738147
0.0251018 0.0184257 0.00709877
0.0135561 0.0205351 0.00734351
0.0203893 0.019356 0.00687408
0.0197991 0.0190691 0.00690528
0.0250587 0.0182339 0.00713579
0.0191605 0.018705 0.00696255
0.0203471 0.0191204 0.00691318
0.0233987 0.0210221 0.0150296
0.01542 0.022995 0.0103598
0.0153881 0.022275 0.00902728
0.0206845 0.0179397 0.0182126
0.0165062 0.0232659 0.0118826
0.0179122 0.0216798 0.0149707
0.015994 0.0194946 0.0163986
0.0250854 0.0174539 0.00726218
0.015106 0.018287 0.016321
0.0194049 0.0199042 0.00708315
0.02062 0.0142084 0.0118543
0.0220639 0.0204455 0.0154297
0.019698 0.0166077 0.00787987
0.0137471 0.0204284 0.0161557
0.020168 0.0172108 0.00733709
0.0210763 0.0191638 0.00692582
0.0223623 0.0224296 0.00894791
0.0220092 0.0215426 0.00818659
0.0251214 0.017712 0.00722223
0.0174018 0.0210962 0.0169911
0.0210174 0.0194025 0.0068834
0.0154854 0.0208253 0.00728955
0.019187 0.015798 0.00854041
0.018784 0.0170349 0.0074486
0.0183239 0.0240657 0.0129112
0.0181511 0.0229725 0.0145808
0.0190222 0.0172674 0.00733097
0.0142129 0.0208316 0.00736193
0.0195512 0.0239213 0.011787
0.0150904 0.0212274 0.00747565
0.0187408 0.0168593 0.00753407
0.0197539 0.0239243 0.0117955
0.0208034 0.0190771 0.00693312
0.0207698 0.0193824 0.00688002
0.0163153 0.0227823 0.00992594
0.0203654 0.0221222 0.0152754
0.0179968 0.0238769 0.01171
0.0199926 0.0205891 0.0166865
0.0202129 0.0183964 0.00702973
0.0188272 0.0172108 0.00736383
0.016219 0.0230224 0.0105269
0.0195839 0.0179252 0.00708491
0.0196507 0.0182873 0.007028
0.0190654 0.0174433 0.0072462
0.0204543 0.0197035 0.00700535
0.0154934 0.0206274 0.00726006
0.0197228 0.0195373 0.00695747
0.0195253 0.0181135 0.00705205
0.0189936 0.0239041 0.011747
0.0188461 0.01735 0.0075062
0.0205835 0.01931 0.00688728
0.0152964 0.0205904 0.00725766
0.0197267 0.0188265 0.00694245
0.0158177 0.0226316 0.00961085
0.020518 0.0195005 0.00692455
0.0193891 0.0179683 0.00707106
0.0205468 0.0191121 0.00692008
0.0176811 0.0148024 0.0120838
0.0143687 0.0206582 0.00732095
0.022209 0.0205787 0.00735768
0.0212019 0.0193272 0.00690134
0.0136898 0.0178692 0.0173816
0.0202019 0.0194206 0.00690079
0.0151047 0.0206621 0.00738757
0.0188032 0.0216057 0.0156146
0.0198359 0.0192633 0.0068747
0.0131143 0.0175126 0.0178765
0.0200797 0.0187918 0.00696041
0.0155178 0.0225335 0.00943047
0.0187181 0.0230181 0.0172481
0.0214572 0.0195359 0.00691613
0.0170326 0.0142239 0.0121465
0.0203002 0.0195836 0.00696214
0.0159233 0.0227183 0.00976281

VERTICES 147 294
1 0
1 1
1 2
1 3
1 4
1 5
1 6
1 7
1 8
1 9
1 10
1 11
1 12
1 13
1 14
1 15
1 16
1 17
1 18
1 19
1 20
1 21
1 22
1 23
1 24
1 25
1 26
1 27
1 28
1 29
1 30
1 31
1 32
1 33
1 34
1 35
1 36
1 37
1 38
1 39
1 40
1 41
1 42
1 43
1 44
1 45
1 46
1 47
1 48
1 49
1 50
1 51
1 52
1 53
1 54
1 55
1 56
1 57
1 58
1 59
1 60
1 61
1 62
1 63
1 64
1 65
1 66
1 67
1 68
1 69
1 70
1 71
1 72
1 73
1 74
1 75
1 76
1 77
1 78
1 79
1 80
1 81
1 82
1 83
1 84
1 85
1 86
1 87
1 88
1 89
1 90
1 91
1 92
1 93
1 94
1 95
1 96
1 97
1 98
1 99
1 100
1 101
1 102
1 103
1 104
1 105
1 106
1 107
1 108
1 109
1 110
1 111
1 112
1 113
1 114
1 115
1 116
1 117
1 118
1 119
1 120
1 121
1 122
1 123
1 124
1 125
1 126
1 127
1 128
1 129
1 130
1 131
1 132
1 133
1 134
1 135
1 136
1 137
1 138
1 139
1 140
1 141
1 142
1 143
1 144
1 145
1 146

POINT_DATA 147
SCALARS id int 1
LOOKUP_TABLE default
1
3
4
5
6
7
8
9
10
11
12
13
14
15
16
17
19
20
21
22
23
24
25
26
27
28
29
30
31
32
33
34
35
36
37
38
39
40
41
42
43
44
45
46
47
48
49
50
51
52
53
54
55
56
57
58
59
60
61
62
63
64
65
66
67
68
69
70
71
72
73
74
75
76
77
78
79
80
81
82
83
84
85
86
87
88
89
90
91
92
93
94
95
96
97
98
99
100
101
102
103
104
105
106
107
108
109
110
111
112
113
114
115
116
117
118
119
120
121
122
123
124
125
126
127
128
129
130
131
132
133
134
135
136
137
138
139
140
142
143
144
145
146
147
148
149
150

SCALARS type int 1
LOOKUP_TABLE default
1
1
1
1
1
1
1
1
1
1
1
1
1
1
1
1
1
1
1
1
1
1
1
1
1
1
1
1
1
1
1
1
1
1
1
1
1
1
1
1
1
1
1
1
1
1
1
1
1
1
1
1
1
1
1
1
1
1
1
1
1
1
1
1
1
1
1
1
1
1
1
1
1
1
1
1
1
1
1
1
1
1
1
1
1
1
1
1
1
1
1
1
1
1
1
1
1
1
1
1
1
1
1
1
1
1
1
1
1
1
1
1
1
1
1
1
1
1
1
1
1
1
1
1
1
1
1
1
1
1
1
1
1
1
1
1
1
1
1
1
1
1
1
1
1
1
1

SCALARS radius float 1
LOOKUP_TABLE default
0.0001
0.0001
0.0001
0.0001
0.0001
0.0001
0.0001
0.0001
0.0001
0.0001
0.0001
0.0001
0.0001
0.0001
0.0001
0.0001
0.0001
0.0001
0.0001
0.0001
0.0001
0.0001
0.0001
0.0001
0.0001
0.0001
0.0001
0.0001
0.0001
0.0001
0.0001
0.0001
0.0001
0.0001
0.0001
0.0001
0.0001
0.0001
0.0001
0.0001
0.0001
0.0001
0.0001
0.0001
0.0001
0.0001
0.0001
0.0001
0.0001
0.0001
0.0001
0.0001
0.0001
0.0001
0.0001
0.0001
0.0001
0.0001
0.0001
0.0001
0.0001
0.0001
0.0001
0.0001
0.0001
0.0001
0.0001
0.0001
0.0001
0.0001
0.0001
0.0001
0.0001
0.0001
0.0001
0.0001
0.0001
0.0001
0.0001
0.0001
0.0001
0.0001
0.0001
0.0001
0.0001
0.0001
0.0001
0.0001
0.0001
0.0001
0.0001
0.0001
0.0001
0.0001
0.0001
0.0001
0.0001
0.0001
0.0001
0.0001
0.0001
0.0001
0.0001
0.0001
0.0001
0.0001
0.0001
0.0001
0.0001
0.0001
0.0001
0.0001
0.0001
0.0001
0.0001
0.0001
0.0001
0.0001
0.0001
0.0001
0.0001
0.0001
0.0001
0.0001
0.0001
0.0001
0.0001
0.0001
0.0001
0.0001
0.0001
0.0001
0.0001
0.0001
0.0001
0.0001
0.0001
0.0001
0.0001
0.0001
0.0001
0.0001
0.0001
0.0001
0.0001
0.0001
0.0001

SCALARS mass float 1
LOOKUP_TABLE default
1.17286e-09
1.17286e-09
1.17286e-09
1.17286e-09
1.17286e-09
1.17286e-09
1.17286e-09
1.17286e-09
1.17286e-09
1.17286e-09
1.17286e-09
1.17286e-09
1.17286e-09
1.17286e-09
1.17286e-09
1.17286e-09
1.17286e-09
1.17286e-09
1.17286e-09
1.17286e-09
1.17286e-09
1.17286e-09
1.17286e-09
1.17286e-09
1.17286e-09
1.17286e-09
1.17286e-09
1.17286e-09
1.17286e-09
1.17286e-09
1.17286e-09
1.17286e-09
1.17286e-09
1.17286e-09
1.17286e-09
1.17286e-09
1.17286e-09
1.17286e-09
1.17286e-09
1.17286e-09
1.17286e-09
1.17286e-09
1.17286e-09
1.17286e-09
1.17286e-09
1.17286e-09
1.17286e-09
1.17286e-09
1.17286e-09
1.17286e-09
1.17286e-09
1.17286e-09
1.17286e-09
1.17286e-09
1.17286e-09
1.17286e-09
1.17286e-09
1.17286e-09
1.17286e-09
1.17286e-09
1.17286e-09
1.17286e-09
1.17286e-09
1.17286e-09
1.17286e-09
1.17286e-09
1.17286e-09
1.17286e-09
1.17286e-09
1.17286e-09
1.17286e-09
1.17286e-09
1.17286e-09
1.17286e-09
1.17286e-09
1.17286e-09
1.17286e-09
1.17286e-09
1.17286e-09
1.17286e-09
1.17286e-09
1.17286e-09
1.17286e-09
1.17286e-09
1.17286e-09
1.17286e-09
1.17286e-09
1.17286e-09
1.17286e-09
1.17286e-09
1.17286e-09
1.17286e-09
1.17286e-09
1.17286e-09
1.17286e-09
1.17286e-09
1.17286e-09
1.17286e-09
1.17286e-09
1.17286e-09
1.17286e-09
1.17286e-09
1.17286e-09
1.17286e-09
1.17286e-09
1.17286e-09
1.17286e-09
1.17286e-09
1.17286e-09
1.17286e-09
1.17286e-09
1.17286e-09
1.17286e-09
1.17286e-09
1.17286e-09
1.17286e-09
1.17286e-09
1.17286e-09
1.17286e-09
1.17286e-09
1.17286e-09
1.17286e-09
1.17286e-09
1.17286e-09
1.17286e-09
1.17286e-09
1.17286e-09
1.17286e-09
1.17286e-09
1.17286e-09
1.17286e-09
1.17286e-09
1.17286e-09
1.17286e-09
1.17286e-09
1.17286e-09
1.17286e-09
1.17286e-09
1.17286e-09
1.17286e-09
1.17286e-09
1.17286e-09
1.17286e-09
1.17286e-09
1.17286e-09
1.17286e-09
1.17286e-09

VECTORS velocity float
0.00548399 -0.00308196 0.00128506
0.00200285 -0.00682072 -0.0120791
0.00259512 -0.000331973 0.000145452
0.00499574 -0.00321224 0.000375183
0.00579888 -0.000967997 0.000648955
-0.0167635 -0.0601753 -0.138919
0.00539807 -0.00316973 0.00134955
0.00533435 -0.00188701 0.000186367
0.00514443 -0.00305226 0.000677199
0.00543119 -0.00163555 0.000456354
0.00481615 -0.00326307 -0.000591482
0.00502711 -0.0031817 0.000675196
1.56247e-14 -5.19551e-14 2.79272e-13
0.00463732 -0.00388328 -0.00210432
0.00455322 -0.0069185 -0.00154154
0.00496131 -0.00309415 0.000692223
0.00482846 -0.003026 0.000666466
0.00442069 0.000238383 0.000115312
0.00500814 -0.00318206 0.000697544
0.00486324 -0.00250364 0.000569479
4.59079e-06 0.000137723 -0.000110255
0.00589205 -0.000960503 0.000644304
0.00500749 -0.00318345 0.000693952
0.0059534 -0.000962438 0.000642024
0.00442876 -0.00530642 -0.00153769
0.00590319 -0.00109022 0.000202179
0.00579711 -0.00110271 0.000200646
0.00465292 -0.00355915 0.000469572
0.00462666 -0.00341963 0.000614734
0.00326836 -0.000130799 0.000135179
0.0052068 -0.00130193 0.000395513
0.00481205 -0.00308938 0.000671934
0.00544043 -0.001071 3.12999e-05
0.0048774 -0.00333797 0.000695756
0.0050644 -0.00306615 0.000675582
0.00573737 -0.000961221 0.000649247
0.00357337 -4.97594e-05 0.000106388
0.0053018 -0.00257965 0.00108318
0.00436857 -0.00218059 0.000498878
0.00479475 -0.00307249 0.000678952
0.00517063 -0.00214181 0.000529618
4.67687e-05 -0.0003484 5.86951e-05
0.00581587 -0.00110798 0.000200321
0.00531401 -0.00308757 0.00128751
0.00528822 -0.00467189 -0.000714532
-0.00263362 -0.0481304 -0.0187402
0.00423757 -0.0042464 -0.00108965
0.00333114 0.000604181 -1.1711e-05
0.00286298 -0.00147844 -0.000435272
0.0058554 -0.00109686 0.000199011
0.00538892 -0.00317812 0.00133036
1.56252e-14 -5.19547e-14 2.79273e-13
0.0206808 0.0639684 -0.047222
0.00592246 -0.00108088 0.000194668
0.0033066 -0.000580338 0.00019009
0.00586268 -0.00108897 0.000195551
0.00517053 0.00138621 -4.6561e-05
0.00485677 -0.00321283 0.000644315
0.00358195 -0.00167951 0.000378311
-1.79016e-14 -1.06067e-13 2.64311e-13
0.00576738 -0.00112451 0.000203584
0.00466967 -0.00377892 -0.000255434
0.00789559 0.00247491 -0.00685668
0.00537737 -0.00205973 0.000524373
0.00461825 -0.00294893 0.000643502
0.00452176 -0.00693545 -0.00154255
0.00570575 -0.00113322 3.47007e-05
0.00446059 -0.00681824 -0.00151824
0.00285519 6.93324e-05 7.2578e-05
0.00412759 -0.000200552 0.000174436
0.00573508 -0.0011453 3.60514e-05
0.00462433 -0.0029867 -2.2616e-05
0.00365974 0.000792743 -3.47931e-05
7.98905e-06 0.0252349 -0.0141836
-0.00456572 -0.0365476 -0.0832026
0.000196927 -0.0145593 -0.0200702
0.0 0.0 -0.0721389
3.34243e-05 0.0678533 -0.212775
0.0 0.0 -0.262316
-0.000239936 0.0294667 0.00293623
0.0059059 -0.000163696 5.25858e-05
-6.81677e-07 0.028848 0.00457253
0.00298588 -0.0122607 -0.00471793
-0.00131375 -0.00162469 0.00309337
0.0 0.0 -0.24455
-0.00496144 0.106243 -0.16526
-6.74904e-11 0.0278712 -0.00820663
-0.000714545 0.11476 -0.0945838
3.98257e-15 -2.47541e-14 -1.44866e-13
0.00476463 -0.108863 -0.00350105
-0.0173511 -0.0641252 -0.0759705
0.00582686 -0.00111868 0.000202863
0.0 0.0 -0.170788
-7.02783e-15 -2.50601e-14 -3.2936e-14
3.04032e-06 6.58407e-06 1.05477e-06
-0.00803363 0.111944 -0.0861727
0.00531109 -0.00325757 0.00139151
0.0109378 -0.0888761 -0.048683
0.0 0.0 -0.276511
0.00533786 -0.00317315 0.00133975
1.56221e-14 -5.19554e-14 2.79273e-13
-0.00040583 -0.000550164 -4.4732e-06
-0.0126639 -0.099803 -0.140887
0.00524732 -0.00331173 0.00137626
-3.98579e-05 -0.000514336 3.12007e-05
3.98421e-15 -2.47541e-14 -1.44866e-13
0.00270788 0.00121991 -0.000133827
-0.000446415 -0.00309891 -0.00459473
-0.00163005 0.0451181 -0.0347567
3.87401e-06 0.000115422 -9.21823e-05
-8.74969e-06 0.0428915 -0.0308652
0.00546098 6.26908e-05 0.000180094
0.00534294 -0.00321658 0.0013569
-0.00445871 -0.0348063 -0.0695199
0.00462399 -0.00332253 0.000704705
0.00508211 -0.00171709 0.000457115
0.0052507 -0.00316994 0.00133349
0.00213801 8.3813e-05 -1.7781e-05
6.50703e-06 3.08765e-06 3.53648e-07
-4.0578e-15 -3.00846e-14 7.52705e-14
0.00493602 -0.00322148 0.000696492
-4.21481e-05 0.00084301 -0.000781197
0.0085164 0.00878606 -0.0107935
0.0029328 0.000530445 -1.0235e-05
0.00240521 -0.0151499 -0.0153483
0.00479671 -0.00244012 0.000566097
0.000453841 0.000728124 -0.000331796
0.00309922 -8.06083e-05 -0.000103467
0.00481688 -0.00321264 0.000691983
0.00376754 0.000660418 -9.25543e-06
0.0407648 -0.0735435 -0.196471
6.28094e-15 -2.08851e-14 1.12262e-13
-0.0231776 -0.0830347 -0.0744285
9.00547e-15 1.27778e-14 -3.89605e-14
-0.103414 -0.167627 -0.017269
0.00267091 -0.000258914 -0.000130723
-0.0266656 -0.0202673 -0.0190211
-0.000255777 0.0305456 -0.0188574
0.00305959 -0.000493469 0.000216621
0.0485393 0.0131174 -0.0527794
0.00320167 -0.000692324 0.000224631
-0.00724454 -0.0467453 -0.0601991
0.0 0.0 -0.155328
1.06037e-15 -1.74092e-14 4.45645e-14
0.00300994 0.00167495 -0.0064824
0.00248299 -0.000119574 -0.000113549
0.00597413 0.000649582 0.00386833

VECTORS force float
-1.96737e-09 1.36288e-09 -1.32306e-09
4.68744e-10 -3.52268e-09 -6.06804e-09
9.05171e-09 1.40199e-08 4.50697e-08
3.07539e-10 1.73487e-09 -6.97806e-10
1.56804e-09 -2.97404e-10 5.60574e-10
0.0 0.0 -1.15058e-08
4.14112e-09 4.55703e-09 -1.50232e-09
3.0312e-12 -1.02108e-12 -2.71908e-13
-1.23155e-09 2.6222e-10 4.70126e-10
-4.9704e-09 3.11823e-09 -7.50363e-10
3.25707e-09 -1.1462e-09 -7.59257e-10
4.8271e-09 3.21471e-09 5.95684e-10
4.1359e-25 -8.27181e-24 -3.30872e-24
-5.71875e-09 -1.03983e-08 1.19466e-09
1.16795e-09 -1.41772e-09 -2.98918e-10
-4.02225e-09 2.2397e-09 -9.13405e-10
8.31163e-10 -1.96222e-09 6.21459e-10
3.63326e-10 4.38832e-09 -8.09018e-10
1.67769e-09 -2.90341e-09 -2.28373e-11
-3.37509e-09 3.7967e-09 -1.65906e-09
3.5709e-12 9.71797e-11 -8.10845e-11
-1.24655e-09 8.14567e-12 -5.88811e-11
-2.9059e-09 4.27973e-09 -7.45021e-10
-3.74631e-10 -5.13124e-10 -3.83398e-10
6.10496e-09 -5.09451e-09 4.05247e-10
6.9658e-10 1.68328e-10 5.13719e-10
4.85204e-10 1.22642e-10 -6.7694e-11
-5.39144e-10 -8.85842e-09 1.0095e-08
3.01913e-09 1.54426e-09 -1.0697e-09
-3.36662e-09 1.24696e-09 -3.2279e-10
-4.93426e-09 3.0159e-09 -7.6715e-10
6.1848e-09 -5.68255e-09 1.07323e-09
-1.03258e-10 -3.90088e-10 7.44757e-11
-7.29371e-09 -3.65772e-09 -6.18318e-09
2.96647e-10 2.46881e-09 -4.03407e-11
2.4837e-10 -3.86346e-10 3.05223e-10
-5.97255e-09 2.00021e-09 -5.05688e-10
-3.87175e-09 5.79026e-09 -4.29522e-09
-1.06379e-09 -1.60755e-09 1.8283e-10
-4.34044e-09 3.40185e-09 -2.27356e-09
-4.9452e-09 3.58688e-09 -9.3469e-10
-1.10215e-09 3.32233e-09 -5.57872e-10
3.59498e-10 1.86404e-09 -3.46718e-10
-3.51199e-09 3.80402e-09 -2.29465e-09
1.79141e-09 -9.70365e-10 7.53936e-09
5.05447e-10 1.08801e-09 4.13073e-10
4.8303e-09 1.62432e-08 3.07355e-09
-5.88442e-09 9.28546e-10 -3.32232e-10
9.18217e-10 1.68386e-11 -4.2442e-11
-2.36935e-09 1.87046e-09 1.09895e-10
-1.79734e-09 5.65037e-09 -1.72696e-09
-6.07978e-23 -1.28213e-23 1.65436e-24
0.0 0.0 -1.15058e-08
-1.21181e-09 1.15754e-10 1.51512e-09
-5.88066e-09 2.88561e-09 -6.56727e-10
-6.94745e-10 1.20592e-09 2.18559e-11
-4.0351e-09 6.76527e-10 -3.41512e-10
-4.13463e-09 2.80223e-09 4.51893e-09
-5.48962e-09 -7.21857e-09 -4.39662e-09
-4.65289e-24 8.27181e-25 -1.65436e-24
7.24903e-11 -1.29089e-10 3.36023e-11
-3.98872e-09 -8.73976e-09 1.22629e-08
3.25151e-10 2.02657e-10 -4.46745e-11
-5.66556e-09 3.83101e-09 -8.38732e-10
-3.24099e-09 3.18566e-09 -6.23601e-10
2.07154e-10 -1.20958e-09 -1.83302e-10
-5.83202e-11 -4.13473e-10 9.26119e-11
-4.01017e-12 7.94779e-10 1.07521e-10
-6.22671e-09 -9.43453e-10 8.76594e-10
-6.45638e-11 2.62956e-09 -3.75866e-10
3.24845e-11 -2.65722e-10 6.50567e-11
-4.16369e-09 2.09593e-09 -6.65175e-09
-5.84333e-09 7.12437e-10 -2.91371e-10
1.46925e-12 7.19406e-10 -6.97128e-10
0.0 0.0 -1.15058e-08
-3.07223e-09 3.6303e-09 4.71732e-09
0.0 0.0 -1.15058e-08
0.0 0.0 -1.15058e-08
0.0 0.0 -1.15058e-08
0.0 0.0 -1.15058e-08
-1.36458e-09 4.69252e-10 3.47734e-10
-1.60724e-11 -7.18355e-11 -2.22811e-10
-9.05375e-11 -4.1058e-10 -1.70703e-10
-9.24236e-11 -1.3313e-10 2.60976e-10
0.0 0.0 -1.15058e-08
0.0 0.0 -1.15058e-08
2.46915e-18 -5.73108e-11 -1.95482e-10
0.0 0.0 -1.15058e-08
5.06648e-24 -8.27181e-25 0.0
0.0 0.0 -1.15058e-08
0.0 0.0 -1.15058e-08
-9.22682e-10 1.61432e-10 -1.29832e-10
0.0 0.0 -1.15058e-08
1.77174e-19 4.18131e-19 -6.65781e-20
4.59416e-10 6.25074e-12 -2.4541e-11
0.0 0.0 -1.15058e-08
-2.40244e-10 3.88824e-09 -8.10266e-10
0.0 0.0 -1.15058e-08
0.0 0.0 -1.15058e-08
3.93065e-10 2.05156e-09 -1.00204e-09
-1.50237e-22 1.86116e-23 9.92617e-24
1.55771e-07 2.36397e-09 8.00496e-09
-2.26773e-10 -3.49324e-09 -4.90496e-09
4.26628e-10 2.79471e-09 -2.31585e-09
-8.4661e-10 1.0396e-10 -8.38279e-11
2.00591e-23 7.44463e-24 0.0
-5.46416e-09 -4.13511e-10 -9.52311e-11
-3.55279e-10 -3.50908e-09 -5.18993e-09
-1.16278e-10 1.57691e-09 -1.88811e-09
4.08112e-13 9.73804e-11 -8.05879e-11
0.0 0.0 -1.15058e-08
-6.07055e-09 1.76742e-09 -4.80998e-10
6.2137e-10 3.92529e-09 -1.10417e-09
0.0 0.0 -1.15058e-08
-4.87885e-09 5.07117e-09 -9.83113e-10
-4.21133e-09 2.04448e-09 -4.72758e-10
-6.42026e-10 5.62251e-09 -2.84158e-09
-3.74784e-09 6.90816e-10 4.64055e-10
9.05984e-10 -5.76483e-10 -7.36311e-11
-9.92617e-24 1.65436e-24 0.0
-4.90323e-09 3.64347e-09 -8.36878e-10
-3.88532e-12 8.71728e-11 -9.28676e-11
-1.08116e-10 1.98561e-09 -7.67569e-10
-5.86482e-09 8.76779e-10 -3.43461e-10
0.0 0.0 -1.15058e-08
-5.39333e-09 4.38658e-09 -9.4596e-10
3.75482e-07 3.71736e-07 6.05878e-07
-4.57685e-09 -1.79986e-09 -6.13331e-10
1.35057e-09 4.02602e-09 -9.40609e-10
-5.89027e-09 9.24103e-10 -3.18315e-10
0.0 0.0 -1.15058e-08
-8.60268e-23 -3.59824e-23 -1.65436e-24
-6.30872e-10 -2.31072e-09 -2.06797e-09
-1.77198e-19 -4.18169e-19 6.65847e-20
0.0 0.0 -1.15058e-08
-8.2726e-09 -2.90348e-09 1.05523e-09
0.0 0.0 -1.15058e-08
-3.89924e-11 8.36515e-10 -8.57157e-10
-1.62384e-08 -3.64245e-08 5.53019e-08
0.0 0.0 -1.15058e-08
-4.27194e-09 3.24623e-09 -7.17894e-10
0.0 0.0 -1.15058e-08
0.0 0.0 -1.15058e-08
1.43826e-22 -8.27181e-24 -6.61744e-24
-2.66721e-10 -2.60943e-10 9.17008e-10
-6.47321e-09 -7.36058e-09 -3.17904e-09
-2.21394e-07 1.1716e-07 2.32731e-07
