# vtk DataFile Version 3.0
LIGGGHTS particles timestep 2000000
ASCII
DATASET POLYDATA
POINTS 294 float
0.0244656 0.0163976 0.00782216
0.0192658 0.0181387 0.00703891
0.0251066 0.0182342 0.00713695
0.0245046 0.0165568 0.00770754
0.0304867 0.0164679 0.00775452
0.0303673 0.0160447 0.00816266
0.0243857 0.0160818 0.00805422
0.0309334 0.018438 0.00696337
0.0246203 0.0170372 0.00736724
0.0255447 0.0174018 0.00727258
0.0249985 0.0171518 0.00730871
0.0245434 0.0167169 0.00759412
0.0185676 0.0165796 0.00768521
0.0247864 0.0178006 0.00720678
0.0187401 0.0168161 0.00755595
0.0245821 0.0168774 0.00748128
0.024733 0.0167694 0.00755596
0.0253702 0.0179404 0.00718078
0.0246944 0.0166093 0.00766932
0.0251963 0.0172192 0.00730682
0.019487 0.0185182 0.00698454
0.0305223 0.0166095 0.0076178
0.0249229 0.0168228 0.007517
0.0305622 0.0167627 0.00749563
0.0248298 0.0179935 0.007177
0.0306385 0.017125 0.00734923
0.0309129 0.0175608 0.00721356
0.0246995 0.0174147 0.00726634
0.0248928 0.0174769 0.00725764
0.0253264 0.016924 0.0074431
0.0252886 0.016764 0.007557
0.0250415 0.0173449 0.00727891
0.0308905 0.0182506 0.00701848
0.0248493 0.017284 0.00728742
0.0247712 0.0169297 0.00744238
0.0304471 0.0163268 0.00789061
0.0252562 0.0181026 0.00715411
0.024846 0.0165032 0.00774515
0.0250859 0.0175389 0.00724897
0.0249858 0.016985 0.0074183
0.0253875 0.0172796 0.00729118
0.0256239 0.0176927 0.00721904
0.0307188 0.017501 0.00723892
0.0244263 0.0162397 0.00793831
0.0249797 0.0178628 0.00719808
0.0249565 0.0185542 0.00707934
0.0249363 0.0176698 0.00722788
0.0252943 0.0183 0.00711624
0.0185492 0.0167577 0.00759615
0.030789 0.0168742 0.00741723
0.0246165 0.016292 0.00790007
0.018588 0.0169445 0.00753642
0.0244948 0.0158209 0.00825338
0.0305994 0.0169368 0.00740441
0.025445 0.0181699 0.00713576
0.0306782 0.0173131 0.00729407
0.0251742 0.0170304 0.0073688
0.0246555 0.0164494 0.00778306
0.0251294 0.0177318 0.00721919
0.0249134 0.0183626 0.00711703
0.0307618 0.0176884 0.00718381
0.0247429 0.0176076 0.00723656
0.0189536 0.0185209 0.00696552
0.0254601 0.0175808 0.00724433
0.0248088 0.0170913 0.00732791
0.0184769 0.0164228 0.00777001
0.0308476 0.0180632 0.00707359
0.0184356 0.0162764 0.00789992
0.0253075 0.0184961 0.00707931
0.0253294 0.0177302 0.00722044
0.0308047 0.0178758 0.0071287
0.0246597 0.0172219 0.00730159
0.0254737 0.0183859 0.00709469
0.0253742 0.0194154 0.00690621
0.0186683 0.0172796 0.00733633
0.0189661 0.0177156 0.00712013
0.0208296 0.0189155 0.00696146
0.0192246 0.0189793 0.00692843
0.0191009 0.0183883 0.00699234
0.0187934 0.0178118 0.00708977
0.0308281 0.0171842 0.00732424
0.024874 0.0181867 0.00720364
0.0253625 0.0170848 0.00732919
0.0250799 0.0191112 0.0069719
0.0255467 0.0170208 0.0073734
0.0197617 0.0188519 0.00693951
0.0257086 0.0175141 0.00724965
0.0254048 0.0186694 0.00704406
0.0255186 0.0196118 0.00693425
0.0253187 0.0196063 0.0069279
0.0308699 0.0173733 0.0072687
0.0189969 0.0187157 0.00695215
0.0251211 0.0193033 0.00693488
0.0190663 0.0181259 0.00703405
0.0250353 0.0165566 0.00770857
0.0243037 0.0157686 0.00828909
0.0193352 0.0186457 0.00695839
0.0202842 0.018728 0.00697796
0.0245357 0.0159777 0.00813584
0.0186271 0.0171032 0.00742106
0.0193052 0.0193677 0.00690135
0.0187098 0.0174575 0.00725494
0.0242634 0.0156274 0.00842491
0.0198073 0.0190496 0.00690877
0.0254153 0.0189043 0.00700003
0.0252648 0.0190354 0.0069803
0.0189102 0.0183282 0.00699695
0.0194943 0.0194328 0.0069001
0.0194007 0.0182851 0.00701966
0.0198839 0.0194505 0.00692001
0.025705 0.0178719 0.00718318
0.0243449 0.0159252 0.00817169
0.0193452 0.0195597 0.00694086
0.0252251 0.016611 0.00767127
0.0251364 0.0168701 0.00748235
0.0245772 0.0161351 0.00801775
0.0249997 0.0187494 0.00707416
0.019117 0.0178701 0.00707765
0.0250213 0.0180561 0.00716822
0.0250737 0.0167152 0.0075923
0.0199013 0.0186458 0.00697808
0.0245766 0.0169045 0.00767935
0.02525 0.0187947 0.00702553
0.0189101 0.0175201 0.00721461
0.0252384 0.0174112 0.00726959
0.0187515 0.0176319 0.00716647
0.025091 0.0189149 0.00700867
0.0248846 0.0166628 0.00763104
0.0255699 0.0185577 0.00705975
0.0248422 0.0168617 0.00769582
0.0188268 0.0171675 0.00738437
0.0253072 0.0192305 0.00694268
0.0254569 0.0190993 0.00696247
0.018476 0.0161149 0.00801067
0.0251124 0.0184307 0.00709986
0.0188682 0.0173439 0.00729946
0.0190754 0.0191077 0.00689332
0.0251709 0.0179251 0.00718933
0.0209622 0.0197456 0.00700978
0.0255613 0.0180094 0.00716205
0.0189346 0.017951 0.00706391
0.0195157 0.0187314 0.00695066
0.0251539 0.0194971 0.00689781
0.0192742 0.0177508 0.00711038
0.0251537 0.0186226 0.00706054
0.0188667 0.0181351 0.0070256
0.019303 0.017945 0.00707189
0.0176452 0.0238905 0.011733
0.0192649 0.0191711 0.00688552
0.019592 0.0189554 0.00691667
0.0152763 0.0206099 0.00726118
0.0201757 0.0189211 0.00694252
0.0138007 0.0206677 0.0073545
0.0200052 0.0190232 0.00691997
0.0256651 0.0194827 0.00689121
0.0204339 0.018598 0.00700444
0.0252486 0.0169544 0.00762482
0.0205019 0.0194946 0.00692259
0.0248409 0.0172659 0.00765256
0.0187853 0.0169908 0.00746949
0.0207324 0.0192715 0.00689795
0.0193846 0.0197408 0.00701623
0.0248071 0.0163463 0.00786288
0.0194558 0.0192373 0.00688278
0.0247681 0.0161894 0.00798059
0.0200843 0.0187262 0.00697131
0.0191349 0.0176168 0.00716179
0.019741 0.0184689 0.00700144
0.0191553 0.0194983 0.00692475
0.0203443 0.0193787 0.00688107
0.0191456 0.0185822 0.00696217
0.0206297 0.0189171 0.00695569
0.0196863 0.0194793 0.0069317
0.0198343 0.0180856 0.00706738
0.0197582 0.0193046 0.00686599
0.0251085 0.0171806 0.00748335
0.0191895 0.0187824 0.00693096
0.0197453 0.0168563 0.0164938
0.0250216 0.0169671 0.00761426
0.020013 0.019226 0.00688595
0.0202129 0.0192282 0.00689106
0.0194049 0.0188977 0.0069573
0.0258626 0.0194516 0.00688438
0.0195948 0.0183336 0.00701848
0.0246319 0.0170595 0.00756564
0.0196432 0.0181424 0.00705144
0.0210245 0.0192569 0.00690848
0.0186763 0.0164275 0.00775615
0.019099 0.0239536 0.0118563
0.0191162 0.0193028 0.00690896
0.0191954 0.0196859 0.00698143
0.0199401 0.0184524 0.00701106
0.0260535 0.0193922 0.00688955
0.0248588 0.0170811 0.00753934
0.0192347 0.019867 0.0070567
0.0246457 0.0172276 0.00767328
0.0195343 0.0196145 0.00697569
0.0193863 0.0175944 0.00716464
0.0197021 0.0186634 0.00697585
0.0174099 0.0238814 0.0117342
0.0250532 0.0178234 0.00737985
0.0203879 0.0191337 0.00691203
0.020115 0.0194029 0.00689594
0.0249242 0.0172573 0.00747094
0.0206123 0.0191134 0.00692167
0.0134131 0.0206677 0.00737619
0.0196349 0.0191485 0.00688659
0.0244527 0.0156636 0.00837136
0.0204411 0.018851 0.00696181
0.0205278 0.0192993 0.00688758
0.0192949 0.0184519 0.00698869
0.0146431 0.0203564 0.00724945
0.0247259 0.0172303 0.0074901
0.0194548 0.0180754 0.00705583
0.019037 0.0189113 0.0069422
0.0304077 0.0161857 0.00802672
0.0133512 0.0203664 0.0073236
0.0183627 0.0160011 0.00812989
0.0209895 0.0195601 0.00693666
0.0183227 0.0158679 0.00827361
0.020803 0.0196289 0.00696796
0.0155582 0.0217472 0.0145194
0.0189135 0.0178644 0.00724297
0.0192845 0.0174401 0.00724096
0.0251869 0.016454 0.0077891
0.0212239 0.019273 0.00691121
0.0206997 0.0194686 0.00690777
0.0181119 0.023899 0.0117443
0.0146025 0.0205573 0.0072891
0.0153094 0.02274 0.00972927
0.0155887 0.0206985 0.0072684
0.018347 0.0239795 0.0128526
0.0146876 0.0207214 0.00748367
0.0142627 0.0206273 0.00732113
0.0197321 0.0203043 0.00725715
0.0150507 0.0202885 0.00722027
0.024536 0.016738 0.00779286
0.0237649 0.0176459 0.0374252
0.017849 0.0239029 0.0117659
0.0201012 0.0153649 0.0177722
0.0207565 0.0198414 0.0163156
0.0141189 0.020878 0.0159957
0.0200173 0.0195903 0.00697145
0.0196981 0.0240249 0.0119845
0.019085 0.0174304 0.00725172
0.0195547 0.02081 0.0160593
0.0204358 0.0196699 0.00699264
0.0211608 0.019462 0.00689428
0.0162104 0.03349 0.0420014
0.0255731 0.0172061 0.00730314
0.0211586 0.0198134 0.00703161
0.0202728 0.0195521 0.00695051
0.0168916 0.0228011 0.00998422
0.0229261 0.0209146 0.0152246
0.0166401 0.0228235 0.0100408
0.0197895 0.0182777 0.0070344
0.0238246 0.0213334 0.0148411
0.0194602 0.0178239 0.00709716
0.020886 0.0193984 0.00688049
0.0220155 0.0208817 0.01512
0.0167239 0.0240206 0.0140571
0.0206035 0.0227397 0.0147039
0.0208343 0.0198897 0.00706909
0.0192801 0.0239135 0.0117762
0.0217534 0.0194193 0.00690076
0.0203959 0.018939 0.0164636
0.0214499 0.0193802 0.00689911
0.0201586 0.0141149 0.012283
0.015868 0.0226933 0.00971606
0.0151394 0.020967 0.00733529
0.0198968 0.0178985 0.00710016
0.0156901 0.023238 0.0107379
0.016276 0.0230415 0.0105809
0.0217671 0.0225241 0.00904949
0.0210138 0.0199551 0.0163039
0.0215851 0.0195273 0.00690975
0.0242233 0.0155218 0.00858992
0.0210169 0.0209009 0.00755989
0.0169828 0.0142234 0.0121803
0.0191963 0.017279 0.0073201
0.0213396 0.0195467 0.00692313
0.0181978 0.0155134 0.00873045
0.0256047 0.0189661 0.00698268
0.0217232 0.019189 0.00693929
0.0195714 0.0176606 0.00712775
0.021733 0.0205024 0.0152741
0.0204157 0.0142021 0.0118597
0.0158009 0.0228325 0.00991234
0.0161441 0.0227491 0.00984852
0.0241799 0.0154165 0.00875435
0.0209048 0.0190985 0.00693225
0.0192737 0.0200481 0.00713202
0.0197109 0.0196971 0.00702046
0.0148767 0.0206153 0.00728455

VERTICES 294 588
1 0
1 1
1 2
1 3
1 4
1 5
1 6
1 7
1 8
1 9
1 10
1 11
1 12
1 13
1 14
1 15
1 16
1 17
1 18
1 19
1 20
1 21
1 22
1 23
1 24
1 25
1 26
1 27
1 28
1 29
1 30
1 31
1 32
1 33
1 34
1 35
1 36
1 37
1 38
1 39
1 40
1 41
1 42
1 43
1 44
1 45
1 46
1 47
1 48
1 49
1 50
1 51
1 52
1 53
1 54
1 55
1 56
1 57
1 58
1 59
1 60
1 61
1 62
1 63
1 64
1 65
1 66
1 67
1 68
1 69
1 70
1 71
1 72
1 73
1 74
1 75
1 76
1 77
1 78
1 79
1 80
1 81
1 82
1 83
1 84
1 85
1 86
1 87
1 88
1 89
1 90
1 91
1 92
1 93
1 94
1 95
1 96
1 97
1 98
1 99
1 100
1 101
1 102
1 103
1 104
1 105
1 106
1 107
1 108
1 109
1 110
1 111
1 112
1 113
1 114
1 115
1 116
1 117
1 118
1 119
1 120
1 121
1 122
1 123
1 124
1 125
1 126
1 127
1 128
1 129
1 130
1 131
1 132
1 133
1 134
1 135
1 136
1 137
1 138
1 139
1 140
1 141
1 142
1 143
1 144
1 145
1 146
1 147
1 148
1 149
1 150
1 151
1 152
1 153
1 154
1 155
1 156
1 157
1 158
1 159
1 160
1 161
1 162
1 163
1 164
1 165
1 166
1 167
1 168
1 169
1 170
1 171
1 172
1 173
1 174
1 175
1 176
1 177
1 178
1 179
1 180
1 181
1 182
1 183
1 184
1 185
1 186
1 187
1 188
1 189
1 190
1 191
1 192
1 193
1 194
1 195
1 196
1 197
1 198
1 199
1 200
1 201
1 202
1 203
1 204
1 205
1 206
1 207
1 208
1 209
1 210
1 211
1 212
1 213
1 214
1 215
1 216
1 217
1 218
1 219
1 220
1 221
1 222
1 223
1 224
1 225
1 226
1 227
1 228
1 229
1 230
1 231
1 232
1 233
1 234
1 235
1 236
1 237
1 238
1 239
1 240
1 241
1 242
1 243
1 244
1 245
1 246
1 247
1 248
1 249
1 250
1 251
1 252
1 253
1 254
1 255
1 256
1 257
1 258
1 259
1 260
1 261
1 262
1 263
1 264
1 265
1 266
1 267
1 268
1 269
1 270
1 271
1 272
1 273
1 274
1 275
1 276
1 277
1 278
1 279
1 280
1 281
1 282
1 283
1 284
1 285
1 286
1 287
1 288
1 289
1 290
1 291
1 292
1 293

POINT_DATA 294
SCALARS id int 1
LOOKUP_TABLE default
1
3
4
5
6
7
8
9
10
11
12
13
14
15
16
17
19
20
21
22
23
24
25
26
27
28
29
30
31
32
33
34
35
36
37
38
39
40
41
42
43
44
45
46
47
48
49
50
51
52
53
54
55
56
57
58
59
60
61
62
63
64
65
66
67
68
69
70
71
72
73
74
75
76
77
78
79
80
81
82
83
85
86
87
88
89
90
91
92
93
94
95
96
97
98
99
100
101
102
103
104
105
106
107
108
109
110
111
112
113
114
115
116
117
118
119
120
121
122
123
124
125
126
127
128
129
130
131
132
133
134
135
136
137
138
139
140
142
143
144
145
146
147
148
149
150
151
152
153
154
155
156
157
158
159
160
161
162
164
165
166
167
168
169
170
171
172
173
174
175
176
177
178
179
180
181
182
183
184
185
186
187
188
189
190
191
192
193
194
195
196
197
198
200
201
202
203
204
205
206
207
208
209
210
211
212
213
214
215
216
217
218
219
220
221
222
223
224
225
226
227
228
229
230
231
232
233
234
235
236
237
238
239
240
241
242
243
244
245
246
247
248
249
250
251
252
253
254
255
256
257
258
259
260
261
262
263
264
265
266
267
268
269
270
271
272
273
274
275
276
277
278
279
280
281
282
283
284
285
286
287
288
289
290
291
292
293
294
295
296
297
298
299
300

SCALARS type int 1
LOOKUP_TABLE default
1
1
1
1
1
1
1
1
1
1
1
1
1
1
1
1
1
1
1
1
1
1
1
1
1
1
1
1
1
1
1
1
1
1
1
1
1
1
1
1
1
1
1
1
1
1
1
1
1
1
1
1
1
1
1
1
1
1
1
1
1
1
1
1
1
1
1
1
1
1
1
1
1
1
1
1
1
1
1
1
1
1
1
1
1
1
1
1
1
1
1
1
1
1
1
1
1
1
1
1
1
1
1
1
1
1
1
1
1
1
1
1
1
1
1
1
1
1
1
1
1
1
1
1
1
1
1
1
1
1
1
1
1
1
1
1
1
1
1
1
1
1
1
1
1
1
1
1
1
1
1
1
1
1
1
1
1
1
1
1
1
1
1
1
1
1
1
1
1
1
1
1
1
1
1
1
1
1
1
1
1
1
1
1
1
1
1
1
1
1
1
1
1
1
1
1
1
1
1
1
1
1
1
1
1
1
1
1
1
1
1
1
1
1
1
1
1
1
1
1
1
1
1
1
1
1
1
1
1
1
1
1
1
1
1
1
1
1
1
1
1
1
1
1
1
1
1
1
1
1
1
1
1
1
1
1
1
1
1
1
1
1
1
1
1
1
1
1
1
1
1
1
1
1
1
1
1
1
1
1
1
1
1
1
1
1
1
1
1
1
1
1
1
1

SCALARS radius float 1
LOOKUP_TABLE default
0.0001
0.0001
0.0001
0.0001
0.0001
0.0001
0.0001
0.0001
0.0001
0.0001
0.0001
0.0001
0.0001
0.0001
0.0001
0.0001
0.0001
0.0001
0.0001
0.0001
0.0001
0.0001
0.0001
0.0001
0.0001
0.0001
0.0001
0.0001
0.0001
0.0001
0.0001
0.0001
0.0001
0.0001
0.0001
0.0001
0.0001
0.0001
0.0001
0.0001
0.0001
0.0001
0.0001
0.0001
0.0001
0.0001
0.0001
0.0001
0.0001
0.0001
0.0001
0.0001
0.0001
0.0001
0.0001
0.0001
0.0001
0.0001
0.0001
0.0001
0.0001
0.0001
0.0001
0.0001
0.0001
0.0001
0.0001
0.0001
0.0001
0.0001
0.0001
0.0001
0.0001
0.0001
0.0001
0.0001
0.0001
0.0001
0.0001
0.0001
0.0001
0.0001
0.0001
0.0001
0.0001
0.0001
0.0001
0.0001
0.0001
0.0001
0.0001
0.0001
0.0001
0.0001
0.0001
0.0001
0.0001
0.0001
0.0001
0.0001
0.0001
0.0001
0.0001
0.0001
0.0001
0.0001
0.0001
0.0001
0.0001
0.0001
0.0001
0.0001
0.0001
0.0001
0.0001
0.0001
0.0001
0.0001
0.0001
0.0001
0.0001
0.0001
0.0001
0.0001
0.0001
0.0001
0.0001
0.0001
0.0001
0.0001
0.0001
0.0001
0.0001
0.0001
0.0001
0.0001
0.0001
0.0001
0.0001
0.0001
0.0001
0.0001
0.0001
0.0001
0.0001
0.0001
0.0001
0.0001
0.0001
0.0001
0.0001
0.0001
0.0001
0.0001
0.0001
0.0001
0.0001
0.0001
0.0001
0.0001
0.0001
0.0001
0.0001
0.0001
0.0001
0.0001
0.0001
0.0001
0.0001
0.0001
0.0001
0.0001
0.0001
0.0001
0.0001
0.0001
0.0001
0.0001
0.0001
0.0001
0.0001
0.0001
0.0001
0.0001
0.0001
0.0001
0.0001
0.0001
0.0001
0.0001
0.0001
0.0001
0.0001
0.0001
0.0001
0.0001
0.0001
0.0001
0.0001
0.0001
0.0001
0.0001
0.0001
0.0001
0.0001
0.0001
0.0001
0.0001
0.0001
0.0001
0.0001
0.0001
0.0001
0.0001
0.0001
0.0001
0.0001
0.0001
0.0001
0.0001
0.0001
0.0001
0.0001
0.0001
0.0001
0.0001
0.0001
0.0001
0.0001
0.0001
0.0001
0.0001
0.0001
0.0001
0.0001
0.0001
0.0001
0.0001
0.0001
0.0001
0.0001
0.0001
0.0001
0.0001
0.0001
0.0001
0.0001
0.0001
0.0001
0.0001
0.0001
0.0001
0.0001
0.0001
0.0001
0.0001
0.0001
0.0001
0.0001
0.0001
0.0001
0.0001
0.0001
0.0001
0.0001
0.0001
0.0001
0.0001
0.0001
0.0001
0.0001
0.0001
0.0001
0.0001
0.0001
0.0001
0.0001
0.0001
0.0001
0.0001
0.0001
0.0001
0.0001
0.0001
0.0001
0.0001
0.0001
0.0001
0.0001
0.0001
0.0001
0.0001
0.0001
0.0001

SCALARS mass float 1
LOOKUP_TABLE default
1.17286e-09
1.17286e-09
1.17286e-09
1.17286e-09
1.17286e-09
1.17286e-09
1.17286e-09
1.17286e-09
1.17286e-09
1.17286e-09
1.17286e-09
1.17286e-09
1.17286e-09
1.17286e-09
1.17286e-09
1.17286e-09
1.17286e-09
1.17286e-09
1.17286e-09
1.17286e-09
1.17286e-09
1.17286e-09
1.17286e-09
1.17286e-09
1.17286e-09
1.17286e-09
1.17286e-09
1.17286e-09
1.17286e-09
1.17286e-09
1.17286e-09
1.17286e-09
1.17286e-09
1.17286e-09
1.17286e-09
1.17286e-09
1.17286e-09
1.17286e-09
1.17286e-09
1.17286e-09
1.17286e-09
1.17286e-09
1.17286e-09
1.17286e-09
1.17286e-09
1.17286e-09
1.17286e-09
1.17286e-09
1.17286e-09
1.17286e-09
1.17286e-09
1.17286e-09
1.17286e-09
1.17286e-09
1.17286e-09
1.17286e-09
1.17286e-09
1.17286e-09
1.17286e-09
1.17286e-09
1.17286e-09
1.17286e-09
1.17286e-09
1.17286e-09
1.17286e-09
1.17286e-09
1.17286e-09
1.17286e-09
1.17286e-09
1.17286e-09
1.17286e-09
1.17286e-09
1.17286e-09
1.17286e-09
1.17286e-09
1.17286e-09
1.17286e-09
1.17286e-09
1.17286e-09
1.17286e-09
1.17286e-09
1.17286e-09
1.17286e-09
1.17286e-09
1.17286e-09
1.17286e-09
1.17286e-09
1.17286e-09
1.17286e-09
1.17286e-09
1.17286e-09
1.17286e-09
1.17286e-09
1.17286e-09
1.17286e-09
1.17286e-09
1.17286e-09
1.17286e-09
1.17286e-09
1.17286e-09
1.17286e-09
1.17286e-09
1.17286e-09
1.17286e-09
1.17286e-09
1.17286e-09
1.17286e-09
1.17286e-09
1.17286e-09
1.17286e-09
1.17286e-09
1.17286e-09
1.17286e-09
1.17286e-09
1.17286e-09
1.17286e-09
1.17286e-09
1.17286e-09
1.17286e-09
1.17286e-09
1.17286e-09
1.17286e-09
1.17286e-09
1.17286e-09
1.17286e-09
1.17286e-09
1.17286e-09
1.17286e-09
1.17286e-09
1.17286e-09
1.17286e-09
1.17286e-09
1.17286e-09
1.17286e-09
1.17286e-09
1.17286e-09
1.17286e-09
1.17286e-09
1.17286e-09
1.17286e-09
1.17286e-09
1.17286e-09
1.17286e-09
1.17286e-09
1.17286e-09
1.17286e-09
1.17286e-09
1.17286e-09
1.17286e-09
1.17286e-09
1.17286e-09
1.17286e-09
1.17286e-09
1.17286e-09
1.17286e-09
1.17286e-09
1.17286e-09
1.17286e-09
1.17286e-09
1.17286e-09
1.17286e-09
1.17286e-09
1.17286e-09
1.17286e-09
1.17286e-09
1.17286e-09
1.17286e-09
1.17286e-09
1.17286e-09
1.17286e-09
1.17286e-09
1.17286e-09
1.17286e-09
1.17286e-09
1.17286e-09
1.17286e-09
1.17286e-09
1.17286e-09
1.17286e-09
1.17286e-09
1.17286e-09
1.17286e-09
1.17286e-09
1.17286e-09
1.17286e-09
1.17286e-09
1.17286e-09
1.17286e-09
1.17286e-09
1.17286e-09
1.17286e-09
1.17286e-09
1.17286e-09
1.17286e-09
1.17286e-09
1.17286e-09
1.17286e-09
1.17286e-09
1.17286e-09
1.17286e-09
1.17286e-09
1.17286e-09
1.17286e-09
1.17286e-09
1.17286e-09
1.17286e-09
1.17286e-09
1.17286e-09
1.17286e-09
1.17286e-09
1.17286e-09
1.17286e-09
1.17286e-09
1.17286e-09
1.17286e-09
1.17286e-09
1.17286e-09
1.17286e-09
1.17286e-09
1.17286e-09
1.17286e-09
1.17286e-09
1.17286e-09
1.17286e-09
1.17286e-09
1.17286e-09
1.17286e-09
1.17286e-09
1.17286e-09
1.17286e-09
1.17286e-09
1.17286e-09
1.17286e-09
1.17286e-09
1.17286e-09
1.17286e-09
1.17286e-09
1.17286e-09
1.17286e-09
1.17286e-09
1.17286e-09
1.17286e-09
1.17286e-09
1.17286e-09
1.17286e-09
1.17286e-09
1.17286e-09
1.17286e-09
1.17286e-09
1.17286e-09
1.17286e-09
1.17286e-09
1.17286e-09
1.17286e-09
1.17286e-09
1.17286e-09
1.17286e-09
1.17286e-09
1.17286e-09
1.17286e-09
1.17286e-09
1.17286e-09
1.17286e-09
1.17286e-09
1.17286e-09
1.17286e-09
1.17286e-09
1.17286e-09
1.17286e-09
1.17286e-09
1.17286e-09
1.17286e-09
1.17286e-09
1.17286e-09
1.17286e-09
1.17286e-09
1.17286e-09
1.17286e-09
1.17286e-09
1.17286e-09
1.17286e-09
1.17286e-09
1.17286e-09
1.17286e-09
1.17286e-09
1.17286e-09
1.17286e-09
1.17286e-09
1.17286e-09
1.17286e-09
1.17286e-09
1.17286e-09
1.17286e-09
1.17286e-09

VECTORS velocity float
0.00551982 -0.000308586 7.30285e-05
0.00555603 -0.00265784 0.000619079
0.00593621 -0.000434747 -0.000139118
0.00544989 -0.000301001 7.33743e-05
0.00567828 0.000685965 -0.000349636
0.00582228 0.000658445 -0.000313431
0.00570014 -0.000210312 0.000263908
0.00632982 0.000467009 -0.000405768
0.0055694 -0.000271379 0.000172531
0.00590563 -0.000409506 9.11194e-05
0.00552314 -0.000407352 8.92629e-05
0.0054346 -0.000254969 0.000143979
0.00499278 -0.00261346 0.00103944
0.00592852 -0.000379033 8.92562e-05
0.00474172 -0.00284817 0.00117632
0.00549855 -0.000260033 0.000169629
0.00546669 -0.000291233 0.000196556
0.00591067 -0.000469289 -9.3759e-05
0.00542777 -0.000298066 0.00016904
0.00580743 -0.000389601 -7.26629e-05
0.00559231 -0.00249813 0.000603806
0.00568094 0.000690757 -0.000351368
0.00548143 -0.00034368 0.000220234
0.00577152 0.000601767 -0.000445672
0.00593047 -0.000380387 8.9666e-05
0.00571859 0.00063901 -0.000426681
0.00614964 0.000507266 -0.000409155
0.00592772 -0.000379303 8.80178e-05
0.00591427 -0.000366216 8.42154e-05
0.00539852 -0.000254005 0.000147784
0.00538479 -0.00021966 0.000261797
0.00579284 -0.000476187 9.9705e-05
0.00629733 0.000484837 -0.000409265
0.00593714 -0.000347319 7.96849e-05
0.00551353 -0.00032382 0.000193044
0.00569586 0.000682158 -0.000343575
0.0059331 -0.000447377 -0.000101337
0.00543001 -0.000236446 0.000287885
0.00592242 -0.000379217 9.01883e-05
0.00538973 -0.000374461 0.000108609
0.00589466 -0.000403038 8.74114e-05
0.00584666 -0.000374673 -0.000112005
0.00612259 0.000547329 -0.000418603
0.00561876 -0.000254219 0.000178179
0.00592795 -0.000385336 9.16928e-05
0.00595457 -0.000420576 -0.000106029
0.00592412 -0.000378331 8.97117e-05
0.00591416 -0.000371808 -0.000113751
0.00494957 -0.0026178 0.00107672
0.00580393 0.000760471 -7.01858e-05
0.00545336 -0.000216465 0.000255304
0.00494679 -0.00262319 0.00107737
0.00566653 -0.000210426 0.000272653
0.00578122 0.00061868 -0.00042545
0.0059 -0.000375299 -0.000113489
0.00588002 0.000608245 -0.000426657
0.00537388 -0.000257856 0.000144764
0.00543231 -0.000255696 0.00020983
0.00591893 -0.000391681 9.05851e-05
0.00596227 -0.000420048 -6.03835e-05
0.00617728 0.000547149 -0.000421657
0.00591971 -0.000374996 8.86046e-05
0.00553621 -0.00290074 0.000663225
0.00589706 -0.00040912 9.37606e-05
0.00568598 -0.000477219 0.000307532
0.00500538 -0.00263228 0.00096083
0.0062558 0.000506474 -0.000413492
0.00505858 -0.0020883 0.00154212
0.00593005 -0.000378172 -0.000113562
0.00591221 -0.000399143 9.15529e-05
0.00622575 0.000532905 -0.000419798
0.00577868 -0.00035103 0.000152473
0.00594054 -0.000364679 -0.000114835
0.00527745 -0.000104142 -0.000142568
0.00528029 -0.00266706 0.00111547
0.00562676 -0.00261564 0.00106545
0.00478162 0.000915594 -2.1848e-05
0.0051835 -0.00298065 -7.19269e-05
0.00559108 -0.00286613 0.000659828
0.00554173 -0.00278602 0.000968859
0.00555642 0.000288597 -0.000321598
0.00593191 -0.000372578 3.51764e-05
0.00541341 -0.000303299 0.000184444
0.00572328 -0.000365725 -0.000108706
0.0053653 -0.000355848 0.000219052
0.00530904 -0.00277758 0.00063538
0.00585325 -0.000368502 -0.000112381
0.00586933 -0.000324783 -0.000120864
0.00537001 -0.00020184 4.5151e-05
0.0053681 -0.000100379 8.12669e-05
0.00609104 0.000515116 -0.000408699
0.00544592 -0.00289769 0.000577095
0.00561371 -0.000339465 -0.000110125
0.00557608 -0.00279447 0.000620048
0.00543422 -0.00028591 0.00034404
0.00564859 -0.000199344 0.000264216
0.00547763 -0.00266091 0.000624752
0.00543169 -0.000927987 0.000339345
0.00568922 -0.000208861 0.000270345
0.00516409 -0.00266725 0.00110385
0.00516938 -0.00320912 -0.000698957
0.00539912 -0.00269275 0.00112762
0.00563577 -0.0002026 0.000256204
0.00604342 -0.00234484 0.000594747
0.00582649 -0.000253314 -0.000132913
0.00578458 -0.000220123 -0.00013773
0.00556825 -0.00289022 0.000634481
0.00518281 -0.00320744 -0.000742111
0.00563612 -0.0027031 0.000634908
0.00528552 -0.00255534 -0.0011218
0.00586672 -0.000385972 -0.000108812
0.00567694 -0.000197307 0.000267981
0.00515993 -0.00306982 -0.000858124
0.00546428 -0.000281596 0.00031979
0.00538747 -0.000315586 0.000194287
0.00560411 -0.000213139 0.000274791
0.00592093 -0.000407391 -0.000108337
0.00563558 -0.00281518 0.000632026
0.0059316 -0.000389482 8.9511e-05
0.00547963 -0.000298513 0.000280491
0.00561577 -0.00198209 0.000524325
0.00546517 -0.000303046 0.000190233
0.00587623 -0.000320831 -0.000122361
0.00554233 -0.00270401 0.00111046
0.00591156 -0.000381705 9.09385e-05
0.005532 -0.00271564 0.00111561
0.00584901 -0.00036482 -0.000114611
0.00545188 -0.000273966 0.000269198
0.00586629 -0.000324521 -0.000120731
0.00538659 -0.000112705 0.000141076
0.00532093 -0.00259725 0.00107607
0.00565734 -0.000253341 -0.000127663
0.00572089 -0.000187966 -0.000141776
0.00521353 -0.00166992 0.00204171
0.00595687 -0.000439184 -0.000182168
0.00548518 -0.00260733 0.00107382
0.00510904 -0.00319344 -0.00066418
0.00591859 -0.000402659 9.19098e-05
-6.02773e-15 9.94497e-14 -2.54569e-13
0.00588516 -0.000375391 -0.000111634
0.00556625 -0.002874 0.000689931
0.00544196 -0.00254099 0.000606952
0.00555604 -0.000328004 -0.000109814
0.00578844 -0.00261112 0.000837337
0.00593156 -0.000384985 -0.000111693
0.00557138 -0.00286885 0.000619839
0.00567378 -0.00265835 0.000663726
-1.77715e-05 0.000323483 -0.000270669
0.00499292 -0.00318398 -0.000660694
0.00530787 -0.00286685 0.000655962
-3.06332e-15 1.01851e-14 -5.47489e-14
0.00673623 -0.0010562 0.000366259
-3.05732e-15 1.01882e-14 -5.47486e-14
0.00623938 -0.00168649 0.000493068
0.00520158 -0.000373411 -2.04764e-05
0.00575576 -0.000591045 0.000295323
0.00542328 -0.00024417 0.000148803
3.57363e-12 -4.55523e-12 -2.00871e-12
0.00546509 -0.000262015 -3.97303e-05
0.0050349 -0.00286968 0.00120849
-3.24109e-06 -1.85405e-06 5.17361e-06
0.00512073 -0.00297687 -0.000834036
0.00542749 -0.000232436 0.000286578
0.00531777 -0.00329961 0.000245624
0.00541222 -0.00023252 0.000282124
0.00542478 -0.00153728 0.000438925
0.00574218 -0.00245466 0.000977084
0.00558295 -0.00237533 0.00058361
0.0050771 -0.00311568 -0.000676834
7.54169e-13 -9.45311e-13 -5.16296e-13
0.00551018 -0.00279251 0.000637562
0.00473256 0.000401611 6.37319e-05
0.0052009 -0.00296632 -0.000825155
0.00543463 -0.00242772 0.000587801
0.00487446 -0.00275957 -0.00102862
0.00596474 0.000145785 -2.7622e-05
0.00502805 -0.00299212 0.000663683
-0.0149671 -0.0350129 0.0793681
0.00541324 -0.000282363 0.000138632
-2.52138e-13 4.4138e-13 -1.28791e-13
4.88602e-13 1.2151e-12 -9.34098e-14
0.00523625 -0.00266545 0.000480571
0.00518223 -0.000497428 -6.5774e-05
0.00557541 -0.00236634 0.000581917
0.00554498 -0.000288233 0.000180704
0.00546583 -0.00242521 0.000587131
0.00247595 0.00233924 -0.000331642
0.00499907 -0.00261281 0.00103916
-0.00712533 -0.0179657 -0.000127813
0.00505084 -0.00311498 -0.000661462
0.00504745 -0.0030556 -0.000812854
0.00563704 -0.0020048 0.000524204
0.00517569 -0.00051756 -6.37097e-05
0.00543647 -9.40432e-05 -0.000101229
0.00488908 -0.00301694 -0.000888859
0.00547278 -4.37466e-05 0.000118643
0.00510504 -0.00295369 -0.000827295
0.00577087 -0.00255724 0.00103811
0.00555587 -0.00235381 0.000587203
-0.00052822 -0.00108379 -0.00240979
0.00591929 -0.000407928 9.45322e-05
-7.02509e-16 4.36463e-15 2.55428e-14
-2.48707e-15 4.10201e-14 -1.05002e-13
0.00582016 -0.000166821 0.000123503
3.38804e-05 -4.56032e-05 2.65386e-06
0.00470333 -0.00547197 -0.00128113
0.00558264 -0.00294203 0.000700667
0.00559548 -0.000223446 0.000277886
0.00493589 -0.000284801 0.000186053
-7.01719e-16 4.36466e-15 2.55428e-14
0.00555894 -0.00273383 0.000641913
6.27983e-15 -2.08848e-14 1.12262e-13
0.00573307 -0.000311207 0.000201646
0.00555394 -0.00254867 0.0006049
0.00514178 -0.00283691 0.000368161
0.00571814 0.000674788 -0.000335828
0.00454961 -0.00537186 -0.00125391
0.00523407 -0.00165279 0.00204008
1.37303e-05 -1.12054e-05 3.69665e-06
0.00517613 -0.00163908 0.00202129
7.33839e-06 2.46409e-07 1.11709e-06
-0.0567469 0.234458 -0.156661
0.00550395 -0.00250033 0.000848709
0.0055814 -0.00243007 0.000980421
0.00547674 -0.000272888 0.000312987
0.00259094 0.000859644 -7.53498e-05
-2.36842e-05 3.31311e-06 3.49416e-06
-4.27726e-06 0.000352668 -0.000306594
1.56261e-14 -5.1955e-14 2.79272e-13
-0.00815086 -0.0692113 -0.0744451
1.30198e-16 -4.44906e-15 3.64404e-14
0.0032394 -0.0571855 -0.0611494
0.00240222 -0.0468036 -0.0446291
-1.24077e-14 4.12555e-14 -2.21759e-13
4.53879e-15 -7.48653e-14 1.91638e-13
1.30545e-16 -4.44904e-15 3.64404e-14
0.0053632 -0.000214851 0.000146993
0.1335 0.125648 0.812009
0.00725144 -0.0192595 -0.0114881
0.0 0.0 -0.117657
-1.08897e-09 0.0288167 -0.00475324
-2.99766e-09 0.0268975 -0.0109441
0.00291427 -0.000556092 -0.00029072
0.0523029 -0.041537 -0.0612058
0.00557895 -0.00263069 0.00107556
0.000467079 0.0550567 0.0818995
-6.02793e-15 9.94497e-14 -2.54569e-13
-4.34386e-06 -1.25707e-06 -1.7734e-06
0.0306664 -0.0736331 0.123225
0.00590006 -0.000461356 9.77988e-05
-6.02771e-15 9.94314e-14 -2.54576e-13
-6.02793e-15 9.94497e-14 -2.54569e-13
0.000634973 -0.00093886 -0.00174967
9.98538e-05 0.0679259 0.0453021
-3.36149e-06 3.3311e-05 -7.64794e-05
0.0054414 -0.00242963 0.000586517
1.26989e-05 0.026782 -0.0178365
0.00569064 -0.0026634 0.000662195
-3.28906e-06 -3.01177e-06 -1.4152e-06
1.23041e-05 0.0282466 -0.0149324
0.049673 -0.0387903 -0.0629047
-0.00110707 0.0654146 -0.0739321
-2.48605e-15 4.10201e-14 -1.05002e-13
-0.000199718 -0.00227527 -0.00422265
1.43166e-10 -4.44145e-11 1.1595e-11
0.000917008 0.0296176 -0.0190572
-4.76984e-12 4.20966e-12 -8.1246e-13
-0.000744035 0.0401762 -0.0370687
-0.00376528 -0.00059851 0.000275123
-1.24058e-14 4.12559e-14 -2.2176e-13
0.00349139 -0.00307027 0.000623113
-0.00438545 -0.0366981 -0.0164594
-0.00360293 -0.0348274 -0.0644702
-0.0219486 -0.0974245 -0.0353135
1.13251e-09 0.0287612 -0.00536535
-4.56611e-11 7.53347e-10 2.95448e-10
0.00611183 -0.000258656 0.000346987
-0.019856 -0.123915 -0.151011
0.000504262 0.000296542 -0.00112892
0.00579628 -0.00248586 0.00100009
5.79776e-07 -8.04481e-06 -2.11166e-06
0.0309947 0.0941142 -0.0741693
0.00578128 -0.000127402 -0.000154854
2.01082e-12 1.86827e-11 -3.12112e-12
0.00574362 -0.00262178 0.000629482
9.45986e-05 0.0226941 -0.00871847
-0.000281414 -0.000633184 0.00105112
-0.0284518 -0.0417304 -0.0656651
-0.000303005 -0.00230177 -0.00341471
0.00609102 -0.00026101 0.000348617
0.00378362 0.00134688 -0.00012852
0.00485934 -0.00300914 -0.000874312
0.00506454 -0.00278907 -0.00116509
-3.06719e-15 1.01835e-14 -5.4749e-14

VECTORS force float
-8.33811e-10 2.1797e-10 9.80577e-10
-1.57518e-09 1.82373e-09 9.84048e-11
-2.21628e-10 -7.60022e-11 -1.05462e-09
6.95832e-11 -1.97763e-10 -3.06986e-10
-4.81269e-10 1.23644e-10 -1.42128e-10
6.6295e-11 7.86212e-10 -8.0268e-10
-8.44627e-10 -1.18979e-09 1.32359e-09
2.75864e-10 2.04683e-10 -7.13279e-11
5.16743e-10 5.17461e-10 -9.86899e-10
-1.18497e-09 1.46419e-10 4.78183e-11
4.05279e-10 5.10564e-10 5.68458e-11
9.82493e-11 -2.19058e-10 -7.1902e-10
-5.30452e-10 -2.04895e-10 -3.40184e-10
-4.92706e-10 5.38955e-10 2.63866e-11
-2.1009e-09 3.21848e-10 3.77474e-10
1.9099e-10 -1.25617e-10 -8.39391e-10
5.87146e-10 -3.58496e-10 -2.39996e-10
5.78056e-10 6.83354e-10 -5.47452e-11
6.52306e-10 -3.82687e-11 8.61701e-10
2.24174e-09 -6.49529e-10 -5.19675e-10
-9.28186e-10 7.10293e-10 -2.64741e-10
4.21547e-10 4.67745e-11 3.18814e-11
3.6599e-10 4.47465e-10 3.60352e-10
1.50485e-09 -1.22383e-09 -8.26712e-10
-5.37858e-11 2.99469e-10 -1.3182e-10
-6.94515e-10 -3.29862e-10 2.95846e-10
-2.98209e-10 -2.01132e-10 7.80106e-11
3.2802e-10 2.59882e-10 -7.33751e-10
1.01984e-09 9.20641e-10 -2.98501e-10
4.39048e-10 1.30386e-09 -7.00275e-10
8.09338e-10 -8.19558e-10 9.23402e-10
1.54484e-09 4.02857e-10 1.83429e-10
3.74811e-10 1.23929e-10 -5.93013e-11
-1.62721e-10 7.26378e-10 -2.84058e-10
-5.07483e-11 3.87394e-10 -4.64772e-10
-7.22502e-11 2.69178e-10 -2.38202e-10
-4.66329e-10 4.94645e-11 -1.1103e-10
4.25066e-11 -9.07586e-10 -1.5132e-10
-1.54901e-09 3.43282e-10 -1.17669e-10
-4.0379e-10 4.38242e-10 -1.24924e-10
-1.5394e-09 9.84756e-10 1.33937e-09
-4.89872e-10 -2.71386e-10 -2.86897e-11
5.10327e-10 -4.23764e-10 7.56977e-11
-1.54518e-09 1.93991e-10 1.4671e-09
-1.86018e-10 2.56008e-10 -2.83033e-11
-2.30509e-10 -3.63621e-10 -1.6877e-10
-6.03763e-10 7.08504e-10 -2.34411e-10
-1.74133e-11 -5.56191e-10 1.01588e-10
-2.63613e-10 -2.69657e-10 -4.49821e-10
1.08413e-10 2.61883e-10 -3.04598e-10
-2.42825e-09 -6.91542e-10 5.71598e-10
3.84083e-10 2.63304e-10 -4.48407e-11
-4.33183e-10 -1.83658e-10 2.60805e-10
9.28623e-11 -4.3491e-10 2.77462e-11
1.39579e-10 -2.9347e-10 -3.16832e-11
8.04543e-10 -5.3516e-10 1.65921e-10
-1.56626e-09 -6.7445e-10 6.90563e-11
-1.28009e-10 5.87586e-11 1.67205e-09
2.81887e-10 1.59498e-10 1.36597e-10
-3.73519e-10 -3.53923e-10 -3.78507e-10
-1.03441e-09 -7.39074e-10 3.0217e-10
1.26403e-11 1.73e-10 -1.44217e-10
-8.06496e-10 -4.47582e-10 -7.66994e-12
-5.91592e-10 4.15402e-11 7.64066e-11
2.74914e-09 -4.25184e-10 -2.42623e-10
-4.47709e-10 2.45451e-09 3.88114e-09
-9.20701e-11 4.89875e-10 -1.22004e-10
-5.17279e-11 1.97555e-09 2.99591e-09
-3.53303e-10 -3.98446e-10 -6.96231e-11
4.14603e-10 4.99229e-10 -2.89994e-11
2.52359e-11 4.8112e-10 -1.49144e-10
1.16573e-09 -3.73926e-10 -1.21303e-09
-2.0249e-10 -3.59007e-10 6.41943e-11
-1.19255e-10 -2.24859e-10 2.45184e-11
-4.63006e-10 5.35752e-11 2.91488e-10
2.53225e-10 -1.11901e-09 4.00551e-10
1.9633e-09 -9.29815e-10 2.48172e-10
1.8875e-09 2.55027e-11 -2.53904e-09
-8.49027e-10 8.68315e-10 1.45267e-10
-8.34609e-11 -1.77794e-09 1.89979e-10
-5.63686e-11 -1.52296e-10 3.33326e-11
-9.6454e-11 -1.06334e-10 -1.79347e-10
-4.00295e-10 7.8605e-13 9.89864e-10
1.88903e-10 -1.44467e-10 2.93903e-11
8.08634e-10 3.28438e-10 3.84937e-10
-2.81131e-09 1.39e-09 -9.74352e-11
-6.84214e-10 -3.5674e-10 -7.62347e-11
-6.77437e-12 3.2785e-10 -6.41923e-11
1.62956e-10 5.12358e-10 2.57367e-10
1.49283e-10 6.37105e-12 6.86478e-11
-1.49163e-10 5.79823e-10 -1.55935e-10
8.4357e-10 9.80971e-10 -7.49975e-10
7.78649e-11 -1.42927e-10 4.41405e-11
-1.5524e-09 -7.34369e-10 7.08916e-11
1.50021e-09 3.25747e-10 4.2757e-11
4.57809e-10 -4.27047e-10 3.60144e-10
-2.95867e-10 -2.6443e-09 1.45035e-10
3.01912e-09 1.21606e-09 -1.05702e-10
-3.65347e-10 -1.31562e-09 9.88229e-10
1.55607e-10 4.10113e-10 -2.61156e-10
-2.22987e-09 1.33603e-09 -8.21512e-09
-1.332e-09 -1.1471e-09 3.68345e-10
-1.75376e-09 8.79374e-11 -2.61572e-10
-2.88619e-09 9.6809e-10 5.70578e-10
-4.45729e-10 -2.19682e-10 4.50373e-11
5.10669e-10 7.5085e-10 -1.51101e-10
-5.11706e-10 -1.25056e-09 7.63249e-10
-7.29731e-10 2.22784e-09 -1.14743e-09
3.35226e-09 -2.53383e-09 1.52904e-10
-1.01547e-10 -3.03998e-09 -5.30947e-10
2.19702e-10 -4.2835e-10 2.31682e-11
-1.54218e-09 -9.31344e-10 8.92418e-10
-1.18397e-09 1.76317e-09 -3.04717e-09
9.0659e-10 -2.4898e-10 8.94365e-11
3.40425e-10 -1.92294e-10 2.30997e-10
-2.9149e-09 -1.1726e-09 4.74007e-10
-3.07959e-10 -3.8043e-10 1.00982e-10
5.26885e-10 6.48682e-10 -2.07975e-09
4.4395e-11 1.33011e-10 -3.24883e-10
5.816e-10 2.58701e-10 1.49869e-09
2.88747e-09 -2.01796e-09 8.01235e-10
6.57211e-10 -1.20074e-09 -9.23301e-10
-3.03099e-10 5.80285e-11 -2.37641e-11
-5.19172e-10 -5.8501e-10 1.73271e-10
-6.55286e-10 9.75908e-10 3.20966e-10
-2.82763e-09 -1.10928e-09 8.27695e-10
-2.17009e-10 -3.19158e-10 4.47341e-11
8.36484e-10 1.11284e-10 1.16769e-10
-2.56845e-10 -1.3241e-10 3.04021e-11
3.45565e-10 1.94105e-10 -5.58745e-10
-2.23656e-09 2.59708e-09 -9.15267e-10
1.17748e-10 -1.71038e-10 3.70163e-11
2.30976e-10 4.90612e-12 -1.46507e-11
-5.83551e-10 1.05008e-10 1.85662e-10
-1.06288e-10 -1.82863e-10 -1.10909e-09
-1.01139e-09 2.34993e-09 -8.08047e-10
-1.71322e-11 -7.55758e-10 -7.49244e-10
6.43032e-10 6.84234e-10 -1.77089e-10
-5.37667e-24 0.0 0.0
5.35422e-10 -7.61312e-11 1.53284e-10
1.33769e-10 -1.45666e-09 1.63723e-10
7.29529e-10 -6.74554e-10 -5.37938e-10
7.89471e-11 -4.57905e-11 1.03639e-11
9.63837e-10 -3.81394e-11 -2.23626e-09
-3.20579e-10 -3.04809e-10 9.54573e-11
-8.11941e-10 -1.9035e-09 -7.29261e-11
1.58177e-09 1.5648e-09 -2.14175e-10
-1.07453e-09 6.89208e-11 -1.47556e-10
-3.42923e-10 -1.61401e-09 -9.45336e-10
-8.41673e-10 3.51151e-09 -3.72604e-10
-8.77845e-23 -1.94387e-23 1.65436e-24
-1.20609e-10 -1.11452e-10 -8.22258e-10
1.31625e-22 9.1817e-23 8.27181e-24
-1.23751e-09 2.74051e-09 -2.00723e-10
6.2857e-11 2.07508e-10 1.46297e-10
1.17622e-09 -3.26537e-10 3.03301e-11
2.43501e-09 -4.87576e-10 -1.5108e-10
9.61809e-16 -1.02198e-15 -4.14094e-16
-7.35347e-10 -5.46824e-10 2.141e-09
-1.00537e-09 -2.9135e-10 3.07181e-10
4.09269e-10 -7.65036e-10 -2.59847e-10
2.92349e-09 -1.58355e-09 -2.45453e-09
2.62199e-10 -1.87903e-10 3.92284e-10
-3.37164e-09 3.43499e-09 -9.89309e-09
-1.86442e-09 2.55529e-10 1.17934e-10
3.14256e-09 3.74159e-10 2.35763e-10
-4.69816e-10 -1.24536e-09 4.05119e-10
8.30497e-12 1.40613e-09 -2.17417e-10
2.78572e-10 6.51777e-10 -1.13267e-09
2.51358e-16 -2.90934e-16 -4.818e-17
-9.81467e-10 -2.12795e-09 2.01755e-10
2.04255e-09 1.24326e-09 -5.1413e-10
-1.14494e-10 6.86357e-10 1.22579e-09
3.59776e-09 7.47394e-10 6.91984e-12
-3.77196e-09 -1.16934e-09 -1.87998e-09
-1.54576e-09 2.49701e-11 2.53088e-10
8.3057e-10 1.95573e-09 -3.56589e-11
0.0 0.0 -1.15058e-08
1.23336e-09 2.11626e-09 -8.03704e-10
-7.19249e-17 9.7977e-16 -2.03641e-16
-6.98057e-17 4.53574e-18 1.20849e-17
1.60654e-09 -1.3694e-09 -2.66797e-09
4.26356e-10 2.876e-10 -8.0815e-11
4.28457e-09 -1.31919e-09 2.96576e-10
1.23344e-09 -1.35959e-09 -8.41403e-10
-8.98257e-10 -2.42123e-09 7.27718e-11
1.51551e-09 -9.87514e-10 -6.32723e-11
-4.423e-10 3.41282e-10 4.14536e-10
0.0 0.0 -1.15058e-08
-8.71399e-10 9.03915e-10 -1.99351e-09
6.92666e-10 9.84997e-10 -1.91703e-09
-1.60975e-09 -3.65302e-10 4.9119e-11
6.26102e-10 -2.63573e-10 6.75575e-11
-4.1265e-10 -1.55042e-11 -8.7121e-10
2.03975e-09 1.60543e-10 -3.01787e-09
-6.47587e-10 5.09395e-11 -2.11729e-09
4.1004e-09 -2.99884e-10 2.54049e-10
6.28808e-12 6.39504e-10 5.98887e-10
2.02949e-09 3.96572e-10 -7.66602e-10
-3.54876e-10 -3.48597e-10 -7.33745e-10
-4.3106e-10 1.31365e-10 3.49454e-11
4.99927e-23 3.72231e-24 1.65436e-24
-3.96013e-23 0.0 0.0
-1.64485e-09 -3.90546e-10 -2.49501e-11
5.93787e-10 -4.10263e-10 -4.85151e-11
1.17241e-12 -9.29725e-12 -1.55381e-12
-3.67461e-09 4.21555e-09 -3.36118e-09
-9.535e-11 3.09996e-10 -3.92394e-10
2.91363e-09 3.97334e-10 1.93226e-10
2.06795e-23 3.30872e-24 0.0
3.33107e-10 -2.56285e-09 5.80011e-10
2.10931e-22 6.28657e-23 -1.65436e-24
5.04186e-10 -6.69752e-10 -1.32667e-09
-2.0811e-09 -8.52911e-10 9.43707e-11
1.26945e-10 2.61313e-09 -1.20207e-09
-1.54314e-09 6.9694e-10 -7.99914e-10
3.83191e-12 -1.13829e-11 -2.28981e-12
-6.88088e-10 -2.56566e-10 1.70042e-10
6.01992e-10 -5.30195e-10 1.70543e-10
3.63464e-10 -2.26515e-10 2.5991e-10
-1.09727e-10 -9.71083e-10 -8.83777e-11
0.0 0.0 -1.15058e-08
6.15965e-10 -1.98172e-09 6.76707e-10
3.08813e-09 -2.07679e-09 1.15354e-09
-6.91084e-11 3.54113e-10 3.66895e-10
2.39821e-09 1.90442e-09 -2.43226e-10
-3.09605e-10 -5.62124e-10 4.06833e-13
-2.847e-10 8.85357e-11 -9.41257e-11
9.00593e-23 5.62483e-23 4.96308e-24
0.0 0.0 -1.15058e-08
-8.65567e-23 -2.48154e-24 0.0
0.0 0.0 -1.15058e-08
0.0 0.0 -1.15058e-08
-3.30872e-23 -2.44018e-23 -3.30872e-24
-1.08826e-22 1.65436e-24 3.30872e-24
9.01691e-23 -4.1359e-25 0.0
1.58408e-09 -9.73848e-10 -9.85329e-10
0.0 0.0 -1.15058e-08
0.0 0.0 -1.15058e-08
0.0 0.0 -1.15058e-08
-3.80009e-18 -3.35187e-11 -2.02033e-10
-5.48704e-17 -7.68582e-11 -1.88532e-10
-8.85962e-10 -1.0071e-09 -8.25983e-11
0.0 0.0 -1.15058e-08
1.52789e-09 3.90641e-10 -1.59011e-10
0.0 0.0 -1.15058e-08
1.03398e-25 0.0 0.0
3.86113e-10 3.35603e-10 -1.94799e-10
0.0 0.0 -1.15058e-08
-1.56475e-09 1.15133e-09 1.54635e-10
-1.83014e-23 -1.59811e-21 -6.23694e-22
-3.10193e-25 0.0 0.0
-7.11397e-10 7.96722e-10 1.58244e-09
0.0 0.0 -1.15058e-08
1.28052e-10 6.59569e-11 -5.76795e-11
2.49222e-09 9.91575e-10 -2.08784e-11
1.78563e-12 9.17382e-10 -8.95106e-10
1.92895e-09 -8.35824e-10 2.33102e-10
1.29439e-09 -1.0398e-09 5.76937e-12
1.75869e-12 9.1776e-10 -8.90728e-10
0.0 0.0 -1.15058e-08
-2.23303e-10 2.66396e-09 -4.80035e-09
-2.55909e-23 0.0 0.0
6.569e-10 -2.01104e-08 1.78252e-08
-3.85918e-15 -1.66397e-15 1.82991e-16
0.0 0.0 -1.15058e-08
-3.90028e-16 2.40153e-16 -5.86391e-17
0.0 0.0 -1.15058e-08
-1.36373e-06 6.19904e-07 1.10667e-06
3.33974e-23 8.27181e-25 0.0
3.71152e-10 -2.13678e-10 1.19793e-10
0.0 0.0 -1.15058e-08
0.0 0.0 -1.15058e-08
0.0 0.0 -1.15058e-08
1.40026e-16 -3.8408e-11 -2.05741e-10
1.49589e-15 -2.46789e-14 -9.66448e-15
2.57838e-10 3.11228e-10 -5.46082e-10
0.0 0.0 -1.15058e-08
-2.31489e-10 -1.46629e-10 5.31093e-10
-2.14181e-09 -8.4831e-10 2.88651e-10
-1.20498e-10 -1.46312e-10 -1.85816e-10
2.53645e-07 -1.45874e-07 1.3179e-07
-4.69539e-10 -6.34501e-10 1.28258e-10
1.10747e-15 2.25331e-15 -3.54211e-16
-2.27247e-10 -1.81775e-09 1.34643e-09
-5.34366e-12 -4.23248e-11 -1.67268e-10
6.5972e-10 6.60841e-09 -1.09199e-08
4.96655e-10 -3.68643e-09 -5.29253e-09
-3.83665e-10 -3.56532e-09 -5.08352e-09
1.2238e-09 8.58436e-10 -1.34926e-09
-2.18896e-09 9.85607e-10 1.83865e-10
1.05466e-10 2.46779e-12 4.02755e-10
5.28188e-09 4.35159e-10 3.75485e-11
2.27681e-22 6.07978e-23 -1.65436e-24
