# vtk DataFile Version 3.0
LIGGGHTS particles timestep 3000000
ASCII
DATASET POLYDATA
POINTS 293 float
0.0302239 0.0161356 0.00806535
0.0247576 0.0167665 0.0075578
0.0308229 0.0178735 0.00712857
0.0302671 0.0162763 0.00792996
0.0362805 0.016297 0.00784781
0.0361518 0.0158928 0.00826295
0.0301355 0.0158545 0.00833584
0.0367134 0.0182508 0.0070567
0.0303842 0.0167023 0.0075241
0.0312775 0.0170987 0.00734046
0.0307649 0.0168082 0.00744523
0.0303077 0.0164173 0.00779407
0.0240466 0.0154608 0.00868818
0.0305427 0.0174399 0.00726893
0.0242728 0.0156133 0.00844689
0.0303464 0.0165584 0.00765781
0.030497 0.0164688 0.00775424
0.0311203 0.0176132 0.00718971
0.030458 0.0163273 0.0078907
0.030966 0.0168836 0.00742116
0.0249918 0.0169887 0.00739931
0.0363216 0.0164709 0.00775811
0.0306869 0.0165217 0.00771318
0.0363623 0.0166456 0.00766957
0.0305814 0.0176279 0.00721269
0.0364448 0.0169949 0.007493
0.0367151 0.0174046 0.00727993
0.0304637 0.017063 0.00737673
0.0306544 0.0171246 0.00735407
0.031081 0.0166326 0.00761917
0.0310389 0.0164926 0.00775564
0.0308047 0.0169969 0.00738767
0.0366763 0.0180609 0.00700602
0.0306137 0.0169337 0.00740468
0.0305353 0.0166105 0.00761758
0.0362373 0.0161342 0.0079557
0.0309748 0.0177468 0.00715803
0.0306103 0.0162392 0.00798577
0.0308438 0.0171825 0.00732404
0.0307248 0.016663 0.00757676
0.0311589 0.0169495 0.00740088
0.0312679 0.0174819 0.00722069
0.0365228 0.017344 0.00731402
0.0301789 0.0159952 0.00820045
0.0307325 0.0174995 0.00723875
0.030699 0.0181742 0.00704843
0.0306937 0.0173112 0.00729393
0.0310142 0.017935 0.00710325
0.024062 0.0155679 0.00851996
0.0365947 0.0168747 0.00754849
0.0303734 0.0160451 0.00816258
0.0241038 0.0156747 0.00835608
0.0302409 0.0156229 0.00856893
0.0364039 0.0168202 0.00758129
0.0311654 0.0178074 0.00713258
0.0364839 0.0171696 0.00740384
0.0309257 0.0167108 0.00751358
0.0304166 0.0161859 0.00802725
0.030883 0.0173707 0.00726887
0.030657 0.0179866 0.00710355
0.0365605 0.0175186 0.00722409
0.0305032 0.0172525 0.00732634
0.0244428 0.0169715 0.00741472
0.0311926 0.0172725 0.00728957
0.0305732 0.0167518 0.00748117
0.023978 0.0153589 0.00884596
0.0366504 0.0178677 0.00705093
0.0239688 0.0152475 0.00901184
0.0310522 0.0181233 0.00704768
0.0310735 0.017427 0.00724544
0.0366047 0.0176922 0.00713524
0.0304237 0.0168747 0.00743081
0.0312037 0.0179962 0.00707729
0.0310751 0.0190184 0.00700901
0.0241903 0.0159871 0.00812184
0.0245167 0.0163663 0.00784213
0.0256672 0.0187956 0.00701248
0.0247138 0.0174017 0.00726964
0.0245944 0.0168613 0.00749174
0.0243172 0.0164609 0.0077764
0.0366342 0.0170501 0.00745964
0.0306238 0.0178233 0.00721407
0.0311198 0.0167694 0.00747851
0.0308227 0.0187425 0.00696619
0.0313185 0.016753 0.00749474
0.025259 0.0174352 0.00726596
0.0313837 0.0173238 0.00726062
0.0311303 0.0182995 0.00699424
0.031118 0.0192092 0.00705107
0.0309513 0.0193191 0.00706194
0.0366732 0.017225 0.00737097
0.0244811 0.0171366 0.00730849
0.0308654 0.0189376 0.00697781
0.0245545 0.0167014 0.00760503
0.0308106 0.0163011 0.00793656
0.0300487 0.0155732 0.00860664
0.0248318 0.0170872 0.00733063
0.0256738 0.0176274 0.00722966
0.0302844 0.0157635 0.00843354
0.0241476 0.0158308 0.00823904
0.0247954 0.0177884 0.00720871
0.0242335 0.0161434 0.00800471
0.0300051 0.0154326 0.00874201
0.0253482 0.0176121 0.00723889
0.0311593 0.0185099 0.00694726
0.0309876 0.0186373 0.00692484
0.0244046 0.0168103 0.00752893
0.0249871 0.0178479 0.00720043
0.0249599 0.0168276 0.0075134
0.0253073 0.0181503 0.00714616
0.0314599 0.0175442 0.0071947
0.030092 0.0157139 0.00847123
0.0248396 0.0179813 0.00717959
0.031001 0.0163544 0.00789514
0.0308867 0.0165805 0.00766022
0.0303282 0.0159045 0.00829781
0.0307395 0.0183687 0.00702587
0.02469 0.0164816 0.00776255
0.0307697 0.0176886 0.00718339
0.0308486 0.0164424 0.0078002
0.0254176 0.017315 0.00728544
0.030335 0.0166187 0.00784816
0.0309785 0.0184266 0.0069658
0.0244459 0.0162163 0.00795385
0.0310047 0.0170665 0.00735006
0.0242766 0.0163021 0.00789096
0.0308156 0.0185427 0.0069631
0.030649 0.0163804 0.00784954
0.0312818 0.0181724 0.00702383
0.0306335 0.0167349 0.00773952
0.0243596 0.0159038 0.00818811
0.0310321 0.0188277 0.00696694
0.0311912 0.0187072 0.00695339
0.0242816 0.0154035 0.00877371
0.0308623 0.0180616 0.0070734
0.0244028 0.0160601 0.00807099
0.0245591 0.0175265 0.00724825
0.0309215 0.0175618 0.00721289
0.0248557 0.0188889 0.00702019
0.0313097 0.0176727 0.00716466
0.024499 0.0165319 0.00773129
0.0250258 0.017169 0.00731955
0.0309083 0.0191283 0.00701988
0.0248803 0.0164323 0.00779934
0.0309004 0.0182501 0.00701825
0.0243648 0.0166503 0.00764223
0.0248121 0.0166092 0.00766868
0.0189251 0.0191996 0.00692117
0.0247532 0.0175952 0.00723854
0.0250571 0.017428 0.00726607
0.0188591 0.018095 0.00703191
0.0256019 0.0179389 0.00717391
0.0184725 0.0171283 0.00741394
0.0255051 0.0177339 0.00721505
0.0312656 0.0190738 0.00703366
0.0256639 0.0173722 0.00727744
0.0310739 0.0169354 0.00758134
0.025148 0.0188143 0.00702874
0.0306178 0.0173204 0.00747873
0.0243169 0.0157475 0.00830532
0.0254567 0.0191064 0.00696116
0.0248813 0.0181711 0.00722674
0.0305666 0.0160957 0.008124
0.024944 0.0176549 0.00723022
0.0305221 0.0159539 0.00826042
0.0255169 0.0175061 0.00725622
0.0247198 0.0163221 0.00787943
0.0251852 0.0170528 0.00735286
0.0246402 0.0179136 0.00718847
0.0253741 0.0185333 0.00707034
0.0246324 0.017032 0.00739468
0.025506 0.0186803 0.00703892
0.0252179 0.0179747 0.00718038
0.0254439 0.0168111 0.00752456
0.0252406 0.0177786 0.00721246
0.0308531 0.0169443 0.00757467
0.0246755 0.0172112 0.00731714
0.0242172 0.0161927 0.00819783
0.0308476 0.0167777 0.00768516
0.0254052 0.0179047 0.00718634
0.0255033 0.0181105 0.00714503
0.0248933 0.0173157 0.00728953
0.0313844 0.0189147 0.00700936
0.0251544 0.0168915 0.00746706
0.0304266 0.0167477 0.00771419
0.0252575 0.0167516 0.00756609
0.025466 0.0193117 0.00692267
0.0242295 0.015508 0.00861134
0.0192589 0.0191217 0.00689978
0.0245982 0.0177204 0.00721831
0.0246829 0.0181067 0.00715866
0.0253684 0.0171234 0.00731498
0.031417 0.018721 0.00697196
0.0306665 0.0168787 0.00760446
0.0247257 0.0182966 0.00721981
0.0304785 0.0171887 0.00753573
0.0250451 0.0180742 0.00716552
0.0250528 0.0163528 0.00786284
0.0252097 0.0172436 0.00729549
0.0188818 0.0190047 0.00693342
0.0308533 0.0175217 0.00739658
0.0255086 0.0183871 0.00709339
0.0253132 0.0183463 0.00710701
0.0306996 0.0170704 0.0075412
0.0255087 0.0189162 0.00699494
0.0184335 0.0169537 0.00750334
0.025139 0.0176083 0.00723844
0.0301967 0.0154815 0.00870501
0.0256405 0.0185341 0.00706197
0.0253474 0.0188009 0.00702138
0.0247954 0.0169268 0.00744429
0.0187009 0.0173611 0.00729647
0.0305065 0.0169939 0.00757129
0.0249987 0.0166673 0.00762649
0.0245198 0.0173307 0.0072785
0.0361947 0.0160135 0.00810935
0.0183936 0.0167797 0.00759358
0.0238968 0.0151429 0.0091663
0.0250902 0.0191913 0.00696118
0.0238575 0.0150333 0.00932892
0.0250127 0.0187042 0.00712652
0.0188184 0.0179029 0.00706979
0.024351 0.0166469 0.00784172
0.0248976 0.0162507 0.00793686
0.0309631 0.0162131 0.0080315
0.0256537 0.0193831 0.00690831
0.0252812 0.0190133 0.0069839
0.019026 0.018868 0.00691127
0.0185504 0.0174818 0.00724386
0.0186671 0.0180303 0.00703579
0.018902 0.018288 0.00700182
0.0191149 0.0192604 0.006905
0.0187396 0.0175384 0.00721118
0.0185112 0.0173051 0.00732888
0.0248026 0.0186481 0.00706663
0.0187777 0.0177154 0.00712608
0.0303026 0.0164647 0.00798829
0.0189856 0.0186745 0.00694151
0.0243961 0.0164742 0.00795969
0.0195311 0.0188325 0.00693466
0.0189685 0.0193946 0.00692852
0.0251346 0.0184355 0.00709593
0.0193859 0.0189673 0.00690755
0.0246386 0.0161754 0.00798855
0.0194486 0.0191846 0.0068742
0.0249522 0.0185173 0.00708883
0.0251456 0.0193919 0.00691764
0.0193468 0.0195237 0.00692653
0.0313588 0.0169329 0.00741726
0.0249544 0.0193356 0.00693402
0.0251954 0.0186225 0.00705927
0.0190679 0.0190632 0.00688962
0.0258297 0.0194767 0.00689263
0.019009 0.0195899 0.00694419
0.0253415 0.0169507 0.0074244
0.0256955 0.0196257 0.0069431
0.0250538 0.0165134 0.00774161
0.0252863 0.0192264 0.00694408
0.0249936 0.0195281 0.00689698
0.0193051 0.0193219 0.00689745
0.0191587 0.0194561 0.00692048
0.024848 0.0187938 0.00719594
0.0200408 0.0191476 0.00690011
0.0255219 0.0195335 0.00690626
0.0134579 0.0207623 0.00739127
0.0253355 0.0194614 0.00689885
0.0255762 0.0171946 0.00730495
0.0189447 0.0184811 0.00697173
0.0187083 0.0182237 0.00700559
0.0252281 0.0165933 0.0076847
0.0187511 0.0184167 0.00697551
0.0188384 0.0188098 0.00694897
0.0250877 0.0190049 0.00703365
0.0196405 0.0191302 0.00688978
0.0253691 0.0196561 0.00694685
0.0299646 0.0153129 0.00889705
0.0252735 0.0193805 0.00707095
0.0190496 0.0181557 0.00702859
0.0248164 0.0161041 0.00804597
0.0251828 0.019589 0.00691873
0.0243303 0.016316 0.0080831
0.031357 0.0185349 0.00692966
0.0258198 0.0192723 0.00691907
0.0252264 0.0164337 0.0078052
0.0248981 0.0190808 0.00698317
0.0255248 0.0170154 0.00737732
0.0185887 0.0176587 0.00715878
0.0187939 0.0186098 0.00694542
0.0299224 0.015233 0.00907545
0.0256389 0.0191863 0.00694066
0.0247601 0.0184558 0.00710373
0.0249638 0.0183205 0.0071226
0.018628 0.0178377 0.0070727

VERTICES 293 586
1 0
1 1
1 2
1 3
1 4
1 5
1 6
1 7
1 8
1 9
1 10
1 11
1 12
1 13
1 14
1 15
1 16
1 17
1 18
1 19
1 20
1 21
1 22
1 23
1 24
1 25
1 26
1 27
1 28
1 29
1 30
1 31
1 32
1 33
1 34
1 35
1 36
1 37
1 38
1 39
1 40
1 41
1 42
1 43
1 44
1 45
1 46
1 47
1 48
1 49
1 50
1 51
1 52
1 53
1 54
1 55
1 56
1 57
1 58
1 59
1 60
1 61
1 62
1 63
1 64
1 65
1 66
1 67
1 68
1 69
1 70
1 71
1 72
1 73
1 74
1 75
1 76
1 77
1 78
1 79
1 80
1 81
1 82
1 83
1 84
1 85
1 86
1 87
1 88
1 89
1 90
1 91
1 92
1 93
1 94
1 95
1 96
1 97
1 98
1 99
1 100
1 101
1 102
1 103
1 104
1 105
1 106
1 107
1 108
1 109
1 110
1 111
1 112
1 113
1 114
1 115
1 116
1 117
1 118
1 119
1 120
1 121
1 122
1 123
1 124
1 125
1 126
1 127
1 128
1 129
1 130
1 131
1 132
1 133
1 134
1 135
1 136
1 137
1 138
1 139
1 140
1 141
1 142
1 143
1 144
1 145
1 146
1 147
1 148
1 149
1 150
1 151
1 152
1 153
1 154
1 155
1 156
1 157
1 158
1 159
1 160
1 161
1 162
1 163
1 164
1 165
1 166
1 167
1 168
1 169
1 170
1 171
1 172
1 173
1 174
1 175
1 176
1 177
1 178
1 179
1 180
1 181
1 182
1 183
1 184
1 185
1 186
1 187
1 188
1 189
1 190
1 191
1 192
1 193
1 194
1 195
1 196
1 197
1 198
1 199
1 200
1 201
1 202
1 203
1 204
1 205
1 206
1 207
1 208
1 209
1 210
1 211
1 212
1 213
1 214
1 215
1 216
1 217
1 218
1 219
1 220
1 221
1 222
1 223
1 224
1 225
1 226
1 227
1 228
1 229
1 230
1 231
1 232
1 233
1 234
1 235
1 236
1 237
1 238
1 239
1 240
1 241
1 242
1 243
1 244
1 245
1 246
1 247
1 248
1 249
1 250
1 251
1 252
1 253
1 254
1 255
1 256
1 257
1 258
1 259
1 260
1 261
1 262
1 263
1 264
1 265
1 266
1 267
1 268
1 269
1 270
1 271
1 272
1 273
1 274
1 275
1 276
1 277
1 278
1 279
1 280
1 281
1 282
1 283
1 284
1 285
1 286
1 287
1 288
1 289
1 290
1 291
1 292

POINT_DATA 293
SCALARS id int 1
LOOKUP_TABLE default
1
3
4
5
6
7
8
9
10
11
12
13
14
15
16
17
19
20
21
22
23
24
25
26
27
28
29
30
31
32
33
34
35
36
37
38
39
40
41
42
43
44
45
46
47
48
49
50
51
52
53
54
55
56
57
58
59
60
61
62
63
64
65
66
67
68
69
70
71
72
73
74
75
76
77
78
79
80
81
82
83
85
86
87
88
89
90
91
92
93
94
95
96
97
98
99
100
101
102
103
104
105
106
107
108
109
110
111
112
113
114
115
116
117
118
119
120
121
122
123
124
125
126
127
128
129
130
131
132
133
134
135
136
137
138
139
140
142
143
144
145
146
147
148
149
150
151
152
153
154
155
156
157
158
159
160
161
162
164
165
166
167
168
169
170
171
172
173
174
175
176
177
178
179
180
181
182
183
184
185
186
187
188
189
190
191
192
193
194
195
196
197
198
200
201
202
203
204
205
206
207
208
209
210
211
212
213
214
215
216
217
218
219
220
221
222
223
224
225
226
227
228
229
230
231
232
233
234
235
236
237
238
239
240
241
242
243
245
246
247
248
249
250
251
252
253
254
255
256
257
258
259
260
261
262
263
264
265
266
267
268
269
270
271
272
273
274
275
276
277
278
279
280
281
282
283
284
285
286
287
288
289
290
291
292
293
294
295
296
297
298
299
300

SCALARS type int 1
LOOKUP_TABLE default
1
1
1
1
1
1
1
1
1
1
1
1
1
1
1
1
1
1
1
1
1
1
1
1
1
1
1
1
1
1
1
1
1
1
1
1
1
1
1
1
1
1
1
1
1
1
1
1
1
1
1
1
1
1
1
1
1
1
1
1
1
1
1
1
1
1
1
1
1
1
1
1
1
1
1
1
1
1
1
1
1
1
1
1
1
1
1
1
1
1
1
1
1
1
1
1
1
1
1
1
1
1
1
1
1
1
1
1
1
1
1
1
1
1
1
1
1
1
1
1
1
1
1
1
1
1
1
1
1
1
1
1
1
1
1
1
1
1
1
1
1
1
1
1
1
1
1
1
1
1
1
1
1
1
1
1
1
1
1
1
1
1
1
1
1
1
1
1
1
1
1
1
1
1
1
1
1
1
1
1
1
1
1
1
1
1
1
1
1
1
1
1
1
1
1
1
1
1
1
1
1
1
1
1
1
1
1
1
1
1
1
1
1
1
1
1
1
1
1
1
1
1
1
1
1
1
1
1
1
1
1
1
1
1
1
1
1
1
1
1
1
1
1
1
1
1
1
1
1
1
1
1
1
1
1
1
1
1
1
1
1
1
1
1
1
1
1
1
1
1
1
1
1
1
1
1
1
1
1
1
1
1
1
1
1
1
1
1
1
1
1
1
1

SCALARS radius float 1
LOOKUP_TABLE default
0.0001
0.0001
0.0001
0.0001
0.0001
0.0001
0.0001
0.0001
0.0001
0.0001
0.0001
0.0001
0.0001
0.0001
0.0001
0.0001
0.0001
0.0001
0.0001
0.0001
0.0001
0.0001
0.0001
0.0001
0.0001
0.0001
0.0001
0.0001
0.0001
0.0001
0.0001
0.0001
0.0001
0.0001
0.0001
0.0001
0.0001
0.0001
0.0001
0.0001
0.0001
0.0001
0.0001
0.0001
0.0001
0.0001
0.0001
0.0001
0.0001
0.0001
0.0001
0.0001
0.0001
0.0001
0.0001
0.0001
0.0001
0.0001
0.0001
0.0001
0.0001
0.0001
0.0001
0.0001
0.0001
0.0001
0.0001
0.0001
0.0001
0.0001
0.0001
0.0001
0.0001
0.0001
0.0001
0.0001
0.0001
0.0001
0.0001
0.0001
0.0001
0.0001
0.0001
0.0001
0.0001
0.0001
0.0001
0.0001
0.0001
0.0001
0.0001
0.0001
0.0001
0.0001
0.0001
0.0001
0.0001
0.0001
0.0001
0.0001
0.0001
0.0001
0.0001
0.0001
0.0001
0.0001
0.0001
0.0001
0.0001
0.0001
0.0001
0.0001
0.0001
0.0001
0.0001
0.0001
0.0001
0.0001
0.0001
0.0001
0.0001
0.0001
0.0001
0.0001
0.0001
0.0001
0.0001
0.0001
0.0001
0.0001
0.0001
0.0001
0.0001
0.0001
0.0001
0.0001
0.0001
0.0001
0.0001
0.0001
0.0001
0.0001
0.0001
0.0001
0.0001
0.0001
0.0001
0.0001
0.0001
0.0001
0.0001
0.0001
0.0001
0.0001
0.0001
0.0001
0.0001
0.0001
0.0001
0.0001
0.0001
0.0001
0.0001
0.0001
0.0001
0.0001
0.0001
0.0001
0.0001
0.0001
0.0001
0.0001
0.0001
0.0001
0.0001
0.0001
0.0001
0.0001
0.0001
0.0001
0.0001
0.0001
0.0001
0.0001
0.0001
0.0001
0.0001
0.0001
0.0001
0.0001
0.0001
0.0001
0.0001
0.0001
0.0001
0.0001
0.0001
0.0001
0.0001
0.0001
0.0001
0.0001
0.0001
0.0001
0.0001
0.0001
0.0001
0.0001
0.0001
0.0001
0.0001
0.0001
0.0001
0.0001
0.0001
0.0001
0.0001
0.0001
0.0001
0.0001
0.0001
0.0001
0.0001
0.0001
0.0001
0.0001
0.0001
0.0001
0.0001
0.0001
0.0001
0.0001
0.0001
0.0001
0.0001
0.0001
0.0001
0.0001
0.0001
0.0001
0.0001
0.0001
0.0001
0.0001
0.0001
0.0001
0.0001
0.0001
0.0001
0.0001
0.0001
0.0001
0.0001
0.0001
0.0001
0.0001
0.0001
0.0001
0.0001
0.0001
0.0001
0.0001
0.0001
0.0001
0.0001
0.0001
0.0001
0.0001
0.0001
0.0001
0.0001
0.0001
0.0001
0.0001
0.0001
0.0001
0.0001
0.0001
0.0001
0.0001
0.0001
0.0001
0.0001
0.0001
0.0001
0.0001
0.0001
0.0001
0.0001
0.0001
0.0001
0.0001
0.0001

SCALARS mass float 1
LOOKUP_TABLE default
1.17286e-09
1.17286e-09
1.17286e-09
1.17286e-09
1.17286e-09
1.17286e-09
1.17286e-09
1.17286e-09
1.17286e-09
1.17286e-09
1.17286e-09
1.17286e-09
1.17286e-09
1.17286e-09
1.17286e-09
1.17286e-09
1.17286e-09
1.17286e-09
1.17286e-09
1.17286e-09
1.17286e-09
1.17286e-09
1.17286e-09
1.17286e-09
1.17286e-09
1.17286e-09
1.17286e-09
1.17286e-09
1.17286e-09
1.17286e-09
1.17286e-09
1.17286e-09
1.17286e-09
1.17286e-09
1.17286e-09
1.17286e-09
1.17286e-09
1.17286e-09
1.17286e-09
1.17286e-09
1.17286e-09
1.17286e-09
1.17286e-09
1.17286e-09
1.17286e-09
1.17286e-09
1.17286e-09
1.17286e-09
1.17286e-09
1.17286e-09
1.17286e-09
1.17286e-09
1.17286e-09
1.17286e-09
1.17286e-09
1.17286e-09
1.17286e-09
1.17286e-09
1.17286e-09
1.17286e-09
1.17286e-09
1.17286e-09
1.17286e-09
1.17286e-09
1.17286e-09
1.17286e-09
1.17286e-09
1.17286e-09
1.17286e-09
1.17286e-09
1.17286e-09
1.17286e-09
1.17286e-09
1.17286e-09
1.17286e-09
1.17286e-09
1.17286e-09
1.17286e-09
1.17286e-09
1.17286e-09
1.17286e-09
1.17286e-09
1.17286e-09
1.17286e-09
1.17286e-09
1.17286e-09
1.17286e-09
1.17286e-09
1.17286e-09
1.17286e-09
1.17286e-09
1.17286e-09
1.17286e-09
1.17286e-09
1.17286e-09
1.17286e-09
1.17286e-09
1.17286e-09
1.17286e-09
1.17286e-09
1.17286e-09
1.17286e-09
1.17286e-09
1.17286e-09
1.17286e-09
1.17286e-09
1.17286e-09
1.17286e-09
1.17286e-09
1.17286e-09
1.17286e-09
1.17286e-09
1.17286e-09
1.17286e-09
1.17286e-09
1.17286e-09
1.17286e-09
1.17286e-09
1.17286e-09
1.17286e-09
1.17286e-09
1.17286e-09
1.17286e-09
1.17286e-09
1.17286e-09
1.17286e-09
1.17286e-09
1.17286e-09
1.17286e-09
1.17286e-09
1.17286e-09
1.17286e-09
1.17286e-09
1.17286e-09
1.17286e-09
1.17286e-09
1.17286e-09
1.17286e-09
1.17286e-09
1.17286e-09
1.17286e-09
1.17286e-09
1.17286e-09
1.17286e-09
1.17286e-09
1.17286e-09
1.17286e-09
1.17286e-09
1.17286e-09
1.17286e-09
1.17286e-09
1.17286e-09
1.17286e-09
1.17286e-09
1.17286e-09
1.17286e-09
1.17286e-09
1.17286e-09
1.17286e-09
1.17286e-09
1.17286e-09
1.17286e-09
1.17286e-09
1.17286e-09
1.17286e-09
1.17286e-09
1.17286e-09
1.17286e-09
1.17286e-09
1.17286e-09
1.17286e-09
1.17286e-09
1.17286e-09
1.17286e-09
1.17286e-09
1.17286e-09
1.17286e-09
1.17286e-09
1.17286e-09
1.17286e-09
1.17286e-09
1.17286e-09
1.17286e-09
1.17286e-09
1.17286e-09
1.17286e-09
1.17286e-09
1.17286e-09
1.17286e-09
1.17286e-09
1.17286e-09
1.17286e-09
1.17286e-09
1.17286e-09
1.17286e-09
1.17286e-09
1.17286e-09
1.17286e-09
1.17286e-09
1.17286e-09
1.17286e-09
1.17286e-09
1.17286e-09
1.17286e-09
1.17286e-09
1.17286e-09
1.17286e-09
1.17286e-09
1.17286e-09
1.17286e-09
1.17286e-09
1.17286e-09
1.17286e-09
1.17286e-09
1.17286e-09
1.17286e-09
1.17286e-09
1.17286e-09
1.17286e-09
1.17286e-09
1.17286e-09
1.17286e-09
1.17286e-09
1.17286e-09
1.17286e-09
1.17286e-09
1.17286e-09
1.17286e-09
1.17286e-09
1.17286e-09
1.17286e-09
1.17286e-09
1.17286e-09
1.17286e-09
1.17286e-09
1.17286e-09
1.17286e-09
1.17286e-09
1.17286e-09
1.17286e-09
1.17286e-09
1.17286e-09
1.17286e-09
1.17286e-09
1.17286e-09
1.17286e-09
1.17286e-09
1.17286e-09
1.17286e-09
1.17286e-09
1.17286e-09
1.17286e-09
1.17286e-09
1.17286e-09
1.17286e-09
1.17286e-09
1.17286e-09
1.17286e-09
1.17286e-09
1.17286e-09
1.17286e-09
1.17286e-09
1.17286e-09
1.17286e-09
1.17286e-09
1.17286e-09
1.17286e-09
1.17286e-09
1.17286e-09
1.17286e-09
1.17286e-09
1.17286e-09
1.17286e-09
1.17286e-09
1.17286e-09
1.17286e-09
1.17286e-09
1.17286e-09
1.17286e-09
1.17286e-09
1.17286e-09
1.17286e-09
1.17286e-09
1.17286e-09
1.17286e-09
1.17286e-09
1.17286e-09
1.17286e-09
1.17286e-09
1.17286e-09
1.17286e-09
1.17286e-09
1.17286e-09

VECTORS velocity float
0.0059383 -3.16682e-05 0.000379095
0.00545295 -0.000358762 0.000226493
0.00576954 -0.000459212 -0.000117643
0.00575417 5.99715e-06 0.000352918
0.00580574 -0.000180129 -8.92917e-05
0.00609741 1.67321e-05 0.000306427
0.00602198 -6.47915e-05 0.000406523
0.00591512 -0.000135977 6.24986e-05
0.00577015 -0.000160099 0.000278793
0.00562806 -0.000296455 0.000391059
0.00539694 -2.55051e-05 0.000245636
0.00565379 2.4065e-05 0.000344094
0.00601454 -0.000227673 0.000337433
0.00542296 -0.000280827 -0.000301273
0.00600232 -0.000256287 0.000342762
0.00571863 -3.14507e-05 0.000351601
0.00565715 -8.13532e-05 0.000403138
0.00562985 -0.00056798 -8.30812e-05
0.00568512 4.80074e-05 0.000291096
0.0054581 -0.000149391 0.000318338
0.0056198 -0.000216159 0.000122606
0.00569567 -0.000155252 -8.13762e-05
0.00565083 -0.000152856 0.000478953
0.00565739 -0.000151496 -8.13344e-05
0.00547721 -0.000277936 -0.000261066
0.00556109 -0.000127508 -6.97277e-05
0.00550727 -7.23288e-05 -0.000121029
0.00548097 -0.000249588 -0.000141846
0.00543138 -0.000247707 -0.000131995
0.00540685 -0.000283755 0.000238627
0.00552194 -0.00035494 0.000196523
0.00545694 -0.00017634 0.000158092
0.00561282 -7.69872e-05 6.93501e-05
0.00551196 -0.000208246 -0.000189353
0.00571082 -9.9283e-05 0.000421053
0.0061853 1.89532e-06 0.000329485
0.00571118 -0.000522145 -9.82262e-05
0.00551221 -4.85895e-05 0.000362204
0.00539758 -0.000288537 -0.00014146
0.00576853 -0.000100069 0.000253509
0.00553398 -0.000230979 0.000362338
0.00560206 -0.000581018 -7.29053e-05
0.00548849 -9.56731e-05 -3.86745e-05
0.00603914 -5.69609e-05 0.000400981
0.00543615 -0.000282502 -0.000158186
0.00592792 -0.000394515 -8.22131e-05
0.00542625 -0.000263158 -0.000149751
0.00582808 -0.000552173 -9.35456e-05
0.00606254 -0.000242554 0.000349117
0.00559797 -9.4744e-05 -0.000104848
0.00607803 9.84214e-05 0.000254195
0.0061502 -0.000288901 0.000356757
0.00597862 -8.04989e-05 0.000419376
0.00561515 -0.000148974 -9.13783e-05
0.00577978 -0.000674049 -5.50144e-05
0.00551825 -0.000105119 -3.8957e-05
0.00533065 -0.000264825 -1.08809e-05
0.00591361 0.000112287 0.000221106
0.00547394 -0.000382026 -0.0001222
0.0057985 -0.000363055 -0.000149677
0.00547124 -9.11983e-05 -4.11289e-05
0.00542844 -0.000267348 -0.000259728
0.00548457 -0.000572642 0.0003708
0.00559197 -0.000374702 0.000254603
0.00572692 -1.43281e-05 0.00034933
0.00598078 -0.000154017 0.000341793
0.00560476 -7.96072e-05 5.58362e-05
0.00580207 -0.000130249 0.000327732
0.00591187 -0.000550599 -8.93689e-05
0.00554459 -0.000497556 3.79199e-05
0.00551275 -8.34598e-05 -3.58617e-06
0.00564448 -0.00024303 4.74827e-05
0.00587825 -0.000585847 -8.68587e-05
0.0060193 -0.000439097 0.000331074
0.00611668 -0.000295866 0.000347769
0.00595434 -0.00031937 0.000323947
0.00565514 -0.000280341 -0.000122491
0.00546979 -0.000351524 9.82308e-05
0.00543389 -0.000343105 0.000210577
0.00557852 -0.000406305 0.000252301
0.00552623 -0.000110846 -9.3343e-05
0.00554609 -0.000314483 -0.000190171
0.00541571 -0.000207856 0.000327714
0.00604575 -0.000355197 0.00029606
0.00540613 -0.000298931 0.000377132
0.00569591 -0.000433296 9.13934e-05
0.00561804 -0.00055158 -8.24384e-05
0.00595203 -0.000553193 -0.000101589
0.00589686 -0.000400202 0.000328971
0.00597637 -0.000295715 0.000352938
0.00550533 -0.00010621 -9.80318e-05
0.00537211 -0.00079398 0.000150579
0.00607315 -0.000343962 0.000364991
0.00564564 -0.000385553 0.000251034
0.00577354 6.48826e-06 0.000319223
0.00600262 -7.71983e-05 0.000416319
0.00551526 -0.000374963 0.000247751
0.00570312 -0.000536184 -6.95067e-05
0.00599492 -8.2723e-05 0.000422991
0.00616999 -0.000306909 0.000351586
0.00551673 -0.000397068 8.92366e-05
0.0060892 -0.000276907 0.00035528
0.00600076 -7.738e-05 0.000422262
0.00573903 -0.000459315 7.06527e-05
0.00601272 -0.000525035 0.00019321
0.0060114 -0.000410485 0.00032448
0.00545459 -0.000440192 0.000278333
0.00554503 -0.000503165 0.000107244
0.00574817 -0.000231516 0.000153668
0.00584957 -0.000520373 -8.91318e-05
0.00561252 -0.000956467 2.97392e-05
0.00600549 -7.49718e-05 0.000414187
0.00559565 -0.000424714 8.77201e-05
0.00565559 -0.000125145 0.000458877
0.00575636 -0.000212142 -2.39087e-05
0.00618484 6.74781e-05 0.000285969
0.00594707 -0.000391189 4.03168e-05
0.00576799 -0.000273169 0.000213173
0.00555618 -0.000421834 -0.000127654
0.00573238 -6.93695e-05 0.000378903
0.00568149 -0.000466354 0.000102716
0.0057017 8.55903e-05 0.000291334
0.00596876 -0.000479974 1.39374e-05
0.00607377 -0.000309006 0.000376329
0.00540201 -0.000279481 -0.000149846
0.00606534 -0.000265871 0.000361307
0.00599487 -0.000373759 0.000195115
0.00571278 -4.98505e-05 0.000376782
0.00584052 -0.000713868 -5.1464e-05
0.00602703 -0.000441648 0.000546117
0.00614768 -0.000307832 0.000346355
0.00603523 -0.000424362 0.00033629
0.0059854 -0.000502373 0.000322047
0.00603866 -0.000255602 0.000328612
0.0058923 -0.000473081 -0.000117548
0.00610275 -0.00030773 0.00035344
0.00544907 -0.000332506 8.84416e-05
0.00545186 -0.000544922 -7.22966e-05
0.00593461 -0.000645079 -5.97464e-05
0.00570843 -0.000808629 -1.6372e-05
0.0057556 -0.000390401 0.000266928
0.00557925 -0.00021937 9.93428e-05
0.00603802 -0.000309606 0.00035242
0.00575687 -0.000189306 0.000246815
0.00592278 -0.000472265 -3.98183e-05
0.00565252 -0.000490552 0.000329149
0.00575037 -0.000289087 0.000149688
0.00562577 -0.00222476 -0.00043892
0.0054656 -0.000374493 9.33228e-05
0.00544549 -0.000151961 5.66338e-05
0.00561551 -0.00211416 0.000541271
0.00577468 -0.00067997 -5.18067e-05
0.00503839 -0.00186907 0.000736706
0.00572147 -0.000492636 -8.17173e-05
0.006058 -0.000441827 0.000332564
0.00576627 -0.000511505 -8.76416e-05
0.0054484 -0.000267241 0.000350039
0.00593203 -0.000716023 -7.18292e-05
0.00543057 -0.000208737 -0.000109029
0.00617549 -0.000314431 0.000346658
0.00579783 -0.000251385 -0.00013319
0.00565378 -0.000434671 6.26697e-05
0.00604315 0.000219175 0.000132045
0.0054573 -0.000473809 0.000107974
0.0062409 0.000243184 0.000119424
0.00571817 -0.000507545 9.82701e-05
0.0058093 -0.000199865 0.000252586
0.00556177 -0.000227982 0.000127494
0.00571073 -0.000360053 8.66909e-05
0.00600517 -0.000533922 -8.73879e-05
0.00537633 -0.000365562 0.00011742
0.00598319 -0.00052547 -8.70025e-05
0.00571106 -0.000436587 1.74399e-05
0.00563454 -0.00011106 0.000192634
0.00575131 -0.000421593 0.000101652
0.00533883 5.65582e-05 0.000196187
0.00549303 -0.000391708 7.07468e-05
0.00610445 -0.000233886 0.000358034
0.00598924 -0.000172442 0.000178107
0.00573141 -0.000469291 -8.43516e-05
0.00584231 -0.000627521 -6.41648e-05
0.00552252 -0.000266616 9.098e-05
0.00599358 -0.000527794 0.000310622
0.00558421 -0.000241725 0.000131001
0.00590948 0.000220756 0.000174638
0.00564797 -0.000145749 0.000214501
0.00579619 -1.64034e-05 -0.000177096
0.0060302 -0.000262399 0.00034391
0.00552101 -0.00246565 -0.00117078
0.00553207 -0.000330337 7.76544e-05
0.00577977 -0.000395022 8.77312e-05
0.00565877 -0.00047234 0.000101564
0.00603015 -0.000538515 0.000307253
0.00552521 -0.000493283 0.000422594
0.00568549 -0.000380128 9.85498e-05
0.00622003 -0.000901042 0.000278304
0.00566078 -0.00046012 9.40455e-05
0.00579541 -0.000138099 0.000214834
0.00563785 -0.00040119 8.24457e-05
0.00570468 -0.0021805 0.000288268
0.00538629 -0.000456617 -6.86342e-05
0.00596737 -0.000559896 -8.36573e-05
0.00595154 -0.00051112 -9.01237e-05
0.00522701 -1.94611e-05 -4.9304e-05
0.00563807 -0.000291471 -0.000119994
0.00514386 -0.00192987 0.000685341
0.00530685 -0.000119197 4.4184e-05
0.00602611 -5.738e-05 0.000399857
0.0059994 -0.000517371 -8.95021e-05
0.00591895 -0.00063487 -6.57681e-05
0.00540966 -0.000365795 0.000225057
0.00505126 -0.00187296 0.000731601
0.00534492 -0.000929549 0.000296576
0.00578258 -0.000227585 0.000168268
0.00540436 -0.000354532 9.0513e-05
0.0061523 6.95999e-06 0.000319696
0.00532292 -0.00197988 0.000709889
0.00531546 -1.38056e-05 0.000141089
0.00607464 -0.000684567 -6.14564e-05
0.00555367 -2.10277e-05 0.000154838
0.0059071 -0.000662006 -7.7125e-05
0.00550445 -0.00207571 0.000675108
0.00574352 -0.000480409 0.00037919
0.00581965 -0.000136447 0.000209467
0.00560789 -0.000117531 0.000442429
0.00535335 5.87466e-05 -1.41816e-05
0.00596894 -0.000556909 -8.23654e-05
0.00578741 -0.00211257 0.000546205
0.00507998 -0.00185718 0.000725339
0.00504627 -0.00197176 0.000498639
0.00564099 -0.00210643 0.000543078
0.00561791 -0.00227712 -0.000580108
0.00507961 -0.00196649 0.00077342
0.0049895 -0.00185164 0.000721829
0.00585866 -0.000627238 -6.30828e-05
0.00521091 -0.00198595 0.000785585
0.00559994 1.03341e-05 0.000340476
0.00575307 -0.00210976 0.000538346
0.00599862 2.87316e-05 3.51381e-05
0.00445512 -0.00332979 0.000708102
0.00571394 -0.00225323 -0.000630049
0.0058247 -0.000726309 -4.68385e-05
0.00489581 -0.00286343 0.000628835
0.00608821 -0.000266626 0.000331744
0.00547934 -0.00203451 0.000518455
0.00585568 -0.000635287 -6.46305e-05
0.00599127 -0.000498086 -9.26889e-05
0.00544574 -0.001501 -0.000230564
0.00553977 -0.000325659 0.000394901
0.00605808 -0.000692563 -5.75713e-05
0.005902 -0.000737209 -4.79815e-05
0.00554539 -0.00230952 -0.000630832
0.00514295 0.00049977 0.000290276
0.00524263 -0.00215607 -0.000591329
0.00556828 -0.000200815 0.000145601
0.00492877 3.37481e-05 0.000119041
0.00573264 -0.00017598 0.000239487
0.00603035 -0.000481967 -9.46247e-05
0.00556151 -0.000585137 -6.43584e-05
0.00566138 -0.00176885 9.44665e-06
0.00557165 -0.00180303 -0.000554374
0.00593766 -0.000640099 -4.81767e-05
-6.99846e-16 4.3652e-15 2.55428e-14
0.00507613 -0.000206327 3.18762e-05
-3.05656e-15 1.01829e-14 -5.47497e-14
0.00521091 -0.000514783 -6.30365e-05
0.00569923 -0.000449972 9.61557e-05
0.00568861 -0.00210285 0.000546999
0.0056149 -0.00210416 0.000540576
0.00570597 -0.000140856 0.000225591
0.00565914 -0.0021203 0.00054495
0.00568538 -0.0021829 4.98186e-05
0.00597805 -0.000698331 -7.85761e-05
0.00549043 -0.00204221 0.000522022
0.00532282 7.57199e-05 0.000144161
0.00594438 -0.000225647 0.000300366
0.00576008 -0.000633026 8.07949e-05
0.00561832 -0.0021357 0.000545863
0.00612277 -0.000219444 0.000289795
0.00544865 -0.000258563 2.87366e-05
0.00619133 -5.22383e-05 0.000357551
0.00601888 -0.000547951 0.000301834
0.00555235 0.000331228 -0.000232927
0.00577468 -0.000130441 0.000221576
0.00598894 -0.000653234 -6.2025e-05
0.00566451 -0.000383591 0.000238586
0.00516961 -0.00187904 0.000729357
0.00570715 -0.00208723 0.000536594
0.0058241 -0.000393206 0.000202184
0.00567493 1.66177e-05 -0.000175611
0.00581988 -0.00051982 -8.46703e-05
0.00580459 -0.000621108 -6.29616e-05
0.00517895 -0.00193271 0.000747981

VECTORS force float
-5.24316e-10 -2.55441e-10 -4.10018e-10
1.52642e-09 4.55479e-09 -2.31411e-10
1.55427e-09 -4.79299e-10 -1.37613e-10
1.24e-10 -4.20742e-10 -1.50385e-10
-1.25595e-09 8.95492e-10 1.08205e-09
2.90166e-10 4.49968e-10 -5.86292e-10
6.07827e-11 -1.70614e-11 -1.98213e-11
2.56846e-10 5.27183e-10 8.28689e-11
1.5084e-09 -4.04837e-10 1.87968e-09
-3.6993e-10 -1.14175e-09 3.84453e-10
3.4402e-09 -2.54372e-09 5.24408e-10
-7.37826e-10 -3.19897e-10 1.35027e-09
3.16339e-10 2.85974e-09 1.02942e-09
6.93312e-10 -2.18373e-11 8.72968e-10
1.45529e-09 -5.33959e-10 9.62274e-10
-1.44963e-09 -1.11332e-09 1.17735e-09
-2.75885e-09 -1.13129e-09 1.26941e-09
1.93031e-09 -1.23133e-09 -6.3137e-11
-1.79138e-09 -7.97176e-10 6.82131e-10
7.42782e-10 8.53428e-10 -1.4058e-09
-7.82776e-10 1.85906e-10 4.09515e-11
-2.07572e-10 1.17191e-11 1.25105e-10
-1.56846e-09 5.04429e-10 -1.26631e-09
9.79934e-11 -2.74048e-10 8.84225e-11
-9.02427e-11 -4.11162e-10 -3.68875e-10
6.00494e-10 -8.08043e-10 2.68569e-10
3.13427e-11 -8.63555e-11 3.04333e-10
-2.52777e-09 -1.49775e-09 -1.06756e-09
-1.4868e-10 -1.83375e-09 3.48768e-10
-6.97608e-10 -1.77672e-09 -2.32183e-09
-4.43165e-09 4.07808e-09 2.44283e-09
1.25119e-09 2.40949e-11 -6.12097e-10
-2.70499e-10 5.0511e-10 1.36849e-10
1.1142e-09 -6.7824e-10 5.12327e-10
-9.80735e-11 4.44089e-11 1.19026e-09
-1.65766e-10 5.66996e-12 -7.713e-11
2.06714e-09 9.10332e-11 1.61274e-10
-7.23128e-10 2.11916e-09 -1.71165e-09
-4.53427e-10 -1.31061e-09 9.71381e-11
1.9491e-09 1.5058e-10 3.55322e-10
5.29457e-10 -1.06841e-09 3.62675e-10
1.36052e-09 -3.74553e-09 1.05767e-10
-2.90606e-10 -4.83004e-10 1.2051e-10
-3.04626e-10 -1.67422e-10 1.45435e-10
-1.51695e-09 -1.19164e-09 2.27153e-10
3.441e-10 5.65811e-10 7.59537e-10
5.06292e-10 -1.30428e-09 5.22749e-10
7.87935e-10 3.02227e-10 -1.1898e-09
1.75421e-09 -4.72135e-10 9.63102e-11
5.76128e-10 -1.38732e-09 6.7073e-10
-4.10501e-10 3.75744e-10 -7.32983e-10
9.41967e-10 -2.02074e-10 5.12175e-11
9.77318e-10 4.12228e-10 -4.2186e-10
2.26208e-10 -6.08756e-10 6.32353e-11
-6.63596e-10 4.05365e-10 2.54606e-10
4.94768e-11 -5.78274e-10 2.7405e-10
6.22201e-10 2.26148e-09 -1.51048e-09
-8.6692e-10 -5.47848e-10 -5.64696e-10
-1.95707e-10 -1.87797e-10 4.46638e-10
-6.2888e-10 1.92623e-10 9.4572e-10
-2.4069e-10 -3.21261e-10 1.72798e-10
-3.68444e-10 -7.2729e-10 8.99161e-11
-2.37748e-10 8.19314e-10 -3.82607e-10
9.27409e-10 -1.09616e-09 -6.54233e-10
2.22319e-09 -9.99059e-10 2.3638e-09
-1.20775e-09 1.53064e-09 4.40674e-10
-2.90972e-11 5.8589e-10 3.95395e-10
1.56594e-09 5.82461e-10 -1.15628e-09
9.16347e-10 8.82733e-10 -1.21093e-09
1.26101e-09 -1.49529e-09 9.26884e-10
1.65527e-11 2.48976e-10 3.55909e-10
-2.83507e-09 -8.55779e-10 1.14872e-09
2.04656e-09 5.04513e-10 -3.26096e-10
-2.50491e-10 2.38406e-10 2.3253e-10
2.44777e-10 -7.91039e-10 9.06473e-12
8.82009e-11 -1.5559e-09 1.36153e-09
1.87962e-09 -2.48596e-10 2.27873e-11
-1.76494e-09 -1.13766e-09 -2.58856e-09
2.04709e-10 1.40051e-09 -2.80965e-10
1.59467e-09 -1.14069e-09 1.91495e-09
5.72898e-10 -3.65749e-10 2.22305e-10
-1.44309e-09 -4.55312e-10 -8.3484e-11
-1.29809e-09 -1.72806e-09 -1.21199e-09
1.18714e-09 3.10734e-09 1.22701e-09
-1.30654e-09 -1.82775e-09 8.25625e-10
3.01121e-10 2.91314e-10 1.27414e-10
1.4819e-09 -3.61861e-09 1.31533e-09
8.62809e-10 1.56001e-09 6.88263e-12
-1.92348e-09 2.70465e-10 -1.00203e-10
2.73339e-11 2.21299e-09 -1.26476e-10
1.68293e-11 -3.41781e-10 2.16232e-10
-2.02489e-10 -1.26179e-09 2.37735e-10
6.68664e-10 3.0401e-09 2.65307e-10
1.80734e-09 1.51448e-09 -1.47538e-09
-7.75904e-10 1.1906e-11 -2.28015e-11
4.77703e-10 2.45435e-10 -1.1647e-10
-1.96611e-10 1.3923e-09 -3.38558e-09
-1.7447e-11 -1.20529e-09 -2.0973e-10
4.57677e-10 4.36675e-10 -3.43519e-10
8.38082e-10 -5.86494e-10 4.87354e-10
-1.4103e-11 -8.66893e-10 -3.71858e-10
-5.47851e-11 -6.85772e-12 -2.06182e-10
2.43783e-10 3.38121e-10 -1.68172e-10
-9.74647e-10 1.19321e-09 1.55447e-09
6.79673e-10 -6.37867e-10 -3.75189e-10
2.58245e-10 2.44824e-09 2.95194e-10
-2.88795e-10 1.09721e-09 -8.60113e-10
-7.66514e-10 1.61509e-09 -4.2175e-10
-2.46288e-09 1.05555e-10 -2.08675e-10
-9.83072e-10 2.50518e-10 1.17205e-09
-2.05426e-09 6.85513e-10 -1.38766e-10
4.21002e-10 1.74797e-10 -1.48247e-10
-8.30238e-10 -4.44756e-10 -1.51314e-09
-4.3133e-09 1.16617e-09 -9.21897e-10
3.84746e-09 9.86669e-10 1.10156e-09
-1.35938e-10 1.72238e-13 8.12432e-11
3.7893e-10 1.12204e-09 -1.33588e-09
-1.32153e-09 -9.32983e-11 3.86671e-09
1.47749e-09 -9.10607e-10 2.30084e-10
-5.41347e-09 9.70357e-10 -1.32339e-09
9.25204e-10 -4.54295e-11 -2.64551e-10
-1.16599e-10 -5.87177e-10 1.96955e-09
1.00165e-09 7.06014e-10 -7.64424e-10
2.03093e-09 -1.52874e-09 1.85167e-09
8.58141e-11 5.2347e-10 4.20351e-11
1.03013e-09 2.94228e-09 9.79088e-10
1.10113e-09 2.2526e-09 8.8603e-10
-5.06118e-10 2.03961e-09 -1.79478e-09
-9.0469e-10 1.57515e-09 3.31607e-10
1.54073e-10 -2.95701e-10 5.91197e-10
7.25315e-10 -3.08895e-10 1.23768e-10
5.29081e-10 1.8061e-09 1.79404e-10
-1.21609e-10 -8.07114e-10 -6.35602e-11
-3.28582e-10 1.42145e-10 -5.17808e-11
3.15899e-10 2.2308e-10 -6.51602e-10
-1.1819e-09 -4.72877e-12 1.47912e-10
-1.61339e-10 5.55256e-10 -2.10197e-10
-5.56943e-10 -3.79812e-09 1.2946e-09
-1.41836e-10 -2.98658e-10 -3.17516e-10
-8.0045e-10 1.43099e-09 -5.66735e-10
-1.63065e-09 -1.88889e-09 1.24212e-10
-6.71987e-10 1.42828e-10 -2.78247e-10
1.19055e-09 2.67184e-09 1.6949e-09
-1.17328e-09 -2.12145e-09 1.65755e-09
5.75192e-10 6.19673e-10 -1.86034e-09
1.19721e-09 1.73444e-09 -1.85571e-09
-2.31657e-09 1.74857e-09 1.82265e-09
1.38869e-09 -2.99932e-09 -5.44177e-10
-9.333e-10 -5.13426e-10 7.17319e-11
-9.73701e-10 -1.88272e-10 1.60967e-10
-4.90675e-10 3.83034e-10 -4.15314e-10
-1.5248e-09 5.38826e-10 1.27914e-10
2.87234e-10 1.31626e-09 -6.26113e-10
1.27847e-10 1.09586e-09 -1.03454e-10
-1.37554e-09 2.05067e-09 3.85167e-10
-2.30227e-09 -1.25255e-10 1.11204e-09
6.39543e-10 1.37583e-10 5.72912e-10
4.37114e-10 -6.70333e-10 -1.92995e-10
-2.62913e-10 1.48322e-09 -1.45005e-09
7.91712e-10 -8.11115e-10 6.42528e-10
9.05176e-10 -6.18849e-10 -4.53446e-11
-1.1669e-09 -7.54357e-10 -9.4641e-10
-9.20779e-10 2.44952e-10 -4.81003e-10
-9.47593e-10 2.07783e-09 -1.61126e-10
-5.29849e-10 1.18784e-09 -1.04636e-09
-2.28705e-09 7.53571e-11 9.70524e-10
4.184e-10 -1.71347e-09 3.21417e-09
7.92005e-11 9.23557e-10 -1.87968e-10
-2.03933e-09 6.53364e-10 -2.14533e-10
6.85476e-10 5.91164e-10 -8.79943e-11
2.2924e-10 1.4406e-10 -5.34914e-10
-1.60991e-09 -3.11042e-11 2.80799e-11
-1.49329e-09 5.11094e-10 1.77232e-09
-3.34604e-10 4.10134e-11 -5.47011e-10
-7.50135e-10 6.41571e-10 1.31126e-10
-1.61816e-09 4.13219e-09 -5.73615e-09
-6.00093e-10 -5.44205e-10 -3.8517e-09
3.30579e-10 -1.0596e-09 -4.18293e-10
-1.64561e-09 1.28389e-09 -7.23561e-10
-1.09767e-09 1.18944e-09 -2.16512e-10
-1.55176e-09 8.05559e-11 -4.04173e-11
-1.44959e-09 -6.49994e-10 -1.06763e-09
-2.18436e-09 9.88651e-10 -5.07259e-11
-7.7227e-10 3.41447e-10 -1.05684e-09
-2.662e-09 8.35354e-10 2.08821e-09
-5.90639e-10 6.27593e-10 -3.54612e-10
-8.95829e-10 -5.11187e-10 3.97168e-11
6.49186e-11 4.46146e-10 6.03327e-10
-3.94388e-09 4.22216e-09 -8.08656e-09
9.00913e-10 6.56887e-10 -8.56413e-10
1.96308e-09 3.44072e-09 -6.59119e-11
9.49961e-10 -6.21496e-10 -7.43158e-10
-5.7133e-10 7.9752e-10 1.1072e-10
-9.60786e-10 -3.3983e-09 -3.98399e-09
-7.31986e-10 -1.44339e-09 -1.45603e-09
-1.40305e-10 1.92803e-09 -5.02687e-09
-8.77339e-10 -2.09106e-10 2.96163e-10
-1.47239e-09 1.60378e-09 -1.79586e-09
-4.11209e-10 5.56764e-10 -2.28924e-10
3.71036e-10 -1.48695e-09 8.06763e-10
-1.41881e-09 -4.21608e-09 1.27159e-09
3.00824e-10 4.04403e-10 1.01877e-10
6.8014e-10 5.93071e-10 6.15648e-10
-9.17034e-10 -2.14213e-09 2.27772e-10
-9.41574e-11 -1.15452e-09 1.92212e-10
-2.60846e-10 1.09295e-09 -1.06494e-09
1.66671e-09 -1.40492e-09 3.34237e-11
1.24881e-10 -3.93701e-10 2.91239e-10
4.04339e-11 1.88481e-10 -6.93913e-11
-3.63801e-10 -6.99275e-10 1.13665e-11
-3.61867e-10 3.91179e-09 -2.5452e-09
-4.25342e-11 2.37478e-10 -8.2777e-11
5.00536e-09 3.19832e-09 -2.0342e-09
-2.02164e-09 -4.737e-10 -1.3691e-10
-1.00539e-09 -1.58805e-09 2.87546e-09
3.63443e-10 2.36176e-10 -2.05631e-10
7.82289e-10 5.11536e-10 -5.06218e-10
-2.6355e-09 2.11796e-09 -2.65071e-09
3.27608e-10 -6.36547e-11 1.22613e-10
3.85898e-11 2.66157e-09 -4.03495e-09
1.22555e-09 -6.08649e-10 3.81209e-10
-1.19953e-09 4.43422e-10 -4.23152e-10
4.34366e-10 3.32654e-10 -6.75755e-10
1.30819e-09 4.33023e-10 -1.25809e-10
-1.83535e-09 2.81543e-10 -1.53871e-10
4.02305e-11 5.83199e-10 5.67292e-10
3.94682e-10 -1.74861e-10 4.42249e-13
9.66562e-10 -1.05553e-09 4.95795e-10
-1.0036e-09 1.29926e-10 1.29342e-10
-3.00256e-09 1.76753e-09 -7.19924e-10
-1.07192e-10 2.95578e-10 -3.72798e-11
1.13907e-09 9.8552e-10 4.73044e-09
-2.65245e-10 -5.06182e-11 -7.31176e-11
-1.08462e-09 8.20087e-10 -3.71842e-10
5.10477e-10 3.50966e-10 -7.59374e-11
-7.78567e-10 3.40667e-10 -1.91335e-11
-1.03693e-09 7.31207e-10 1.16164e-09
4.06541e-10 -5.06023e-10 -3.00144e-10
-6.86811e-10 -4.42239e-10 3.74115e-09
-1.2534e-09 1.87931e-09 -2.28016e-09
3.18088e-11 -1.50281e-09 -2.00969e-09
-1.22261e-10 -1.02128e-09 3.1538e-10
-6.0195e-09 4.58166e-09 -1.08487e-09
1.7695e-09 -3.83695e-09 2.20788e-09
-1.87127e-09 8.21459e-10 -4.77062e-10
-9.36049e-11 -5.41707e-10 1.92395e-10
3.00769e-10 -2.02477e-09 3.54108e-10
-1.40733e-09 7.24327e-10 -6.55226e-10
-1.59506e-09 -1.79175e-09 4.61401e-10
-2.37364e-11 -3.11341e-10 1.9273e-10
-1.97781e-10 -9.9561e-10 1.87648e-10
-1.6132e-09 2.40717e-09 5.85368e-10
2.38014e-10 -1.91194e-10 -1.78107e-10
-8.3549e-10 -6.89654e-10 -5.94292e-10
1.82119e-10 1.48535e-09 1.30228e-09
2.39185e-10 4.65964e-10 7.48329e-11
-5.30642e-10 -5.9354e-10 1.15425e-09
1.33662e-11 -5.10636e-10 3.1364e-10
-1.04488e-10 -3.73368e-10 5.87297e-11
-8.03256e-10 -4.65723e-11 -4.46431e-10
3.31192e-10 -3.0087e-10 -3.58407e-10
6.75964e-10 -7.50909e-11 -4.07755e-10
9.01627e-23 -2.35746e-23 6.61744e-24
1.87286e-10 5.05416e-10 1.06533e-10
8.57476e-22 1.38139e-22 -2.48154e-23
3.24342e-10 3.0522e-10 -8.07454e-11
2.18251e-10 -1.07008e-09 7.99086e-10
2.63384e-10 4.28028e-11 -2.74354e-10
3.4555e-11 8.71386e-10 -1.23163e-10
-2.76519e-10 8.86165e-10 1.3703e-10
1.62769e-10 9.10324e-10 -2.07522e-10
1.70726e-10 -9.73432e-10 -1.02519e-09
5.44006e-10 -3.54113e-10 -2.69563e-11
-2.57092e-09 1.24074e-09 -3.62531e-10
-2.77144e-10 -2.94256e-10 -1.0262e-10
4.47926e-11 2.94192e-10 -6.78828e-11
6.4496e-10 -4.11764e-11 6.19799e-11
-3.51094e-10 -4.01748e-11 -1.07807e-10
4.23803e-09 2.72389e-10 -8.38831e-11
-1.91967e-10 -4.38204e-10 -2.02817e-10
-2.6811e-10 1.78208e-09 2.55204e-09
3.87417e-10 3.83406e-10 4.79143e-10
-3.44631e-10 -1.166e-10 5.07702e-11
-9.58327e-10 6.90604e-10 -3.88768e-10
5.95511e-11 -3.35652e-11 1.03548e-11
-6.79225e-11 -1.07053e-09 5.56362e-11
-2.54683e-10 -1.519e-10 -1.56646e-11
4.7405e-10 1.14498e-09 -1.87492e-10
1.94333e-10 1.32314e-10 -2.6257e-11
1.20325e-09 4.81377e-10 3.53475e-10
-4.67788e-11 1.29345e-10 6.56334e-11
-1.11097e-09 -3.9422e-10 3.16631e-10
4.99505e-10 9.17647e-10 -1.10403e-10
