# vtk DataFile Version 3.0
LIGGGHTS particles timestep 5600000
ASCII
DATASET POLYDATA
POINTS 293 float
0.0453586 0.0160895 0.008242
0.0398598 0.0165651 0.00761418
0.0459557 0.0178103 0.00746224
0.0453809 0.0160917 0.00804327
0.0515096 0.0166023 0.00769163
0.051392 0.0161584 0.00805798
0.0452715 0.0159423 0.00858962
0.051961 0.0186178 0.00692188
0.045503 0.016617 0.00780543
0.0463176 0.0170373 0.0076224
0.045894 0.0167368 0.00773908
0.0454213 0.0162418 0.00791742
0.0391036 0.0153659 0.00909041
0.045675 0.0173657 0.00758254
0.0393399 0.0155291 0.00889294
0.0454622 0.0164294 0.0078614
0.0456153 0.0163015 0.00787547
0.0462536 0.0175504 0.0075109
0.0455778 0.0161314 0.0079748
0.0460856 0.016792 0.00770369
0.0400886 0.0167979 0.0074982
0.0515495 0.0167856 0.00762215
0.0458045 0.0163558 0.00783431
0.0515889 0.0169689 0.0075526
0.045716 0.0175533 0.00752656
0.0516698 0.0173352 0.00741382
0.0519456 0.0177672 0.0072649
0.0455904 0.0169911 0.0076942
0.0457871 0.0170571 0.00767439
0.0461899 0.0164691 0.00776703
0.0461485 0.0163002 0.00786595
0.0459372 0.0169255 0.00768875
0.051919 0.0184331 0.00699842
0.0457453 0.0168704 0.00773255
0.0456561 0.016489 0.00781936
0.0514695 0.0164214 0.00776675
0.046106 0.0176853 0.0075043
0.0457279 0.0160521 0.0080806
0.0459798 0.0171159 0.00764486
0.0458494 0.0165474 0.00778542
0.0462755 0.0168478 0.00767059
0.0464012 0.0174164 0.00752606
0.0517529 0.0177012 0.00727535
0.0453085 0.015971 0.00839518
0.0458703 0.0174353 0.00757398
0.0458435 0.0181151 0.00735914
0.0458296 0.0172466 0.00762634
0.0461485 0.0178741 0.00745411
0.0391476 0.0154979 0.00894675
0.0518186 0.0172157 0.00747343
0.0455324 0.015983 0.00834231
0.0391909 0.0156093 0.00878638
0.0453763 0.0157786 0.00888041
0.0516288 0.0171522 0.00748313
0.0462965 0.0177398 0.00746265
0.0517113 0.0175182 0.00734459
0.0460412 0.0166021 0.00775221
0.0455453 0.0160674 0.00816144
0.0460208 0.0173052 0.00759502
0.045801 0.0179279 0.00741497
0.0517944 0.0178842 0.00720612
0.0456323 0.0171785 0.00763832
0.0395223 0.016649 0.00762284
0.0463596 0.0172268 0.00757422
0.0457001 0.0166801 0.00777443
0.0390602 0.0152441 0.00924298
0.0518775 0.0182501 0.00706765
0.0390167 0.0151223 0.00939554
0.0461909 0.0180617 0.00739919
0.046212 0.0173608 0.00755911
0.0518359 0.0180671 0.00713689
0.0455453 0.0168043 0.00774967
0.0463399 0.0179293 0.00741435
0.0462102 0.0189343 0.00712731
0.0392774 0.0158529 0.00848121
0.0395556 0.0161378 0.0081286
0.0406976 0.0186045 0.00690343
0.0397887 0.0170448 0.00740108
0.0396585 0.0165068 0.00765751
0.0394061 0.0162152 0.00802062
0.0518605 0.0173991 0.00740407
0.0457585 0.0177406 0.00747075
0.0462336 0.0166582 0.00771875
0.0459712 0.0186781 0.00719141
0.046423 0.0167135 0.00768581
0.0403617 0.0172324 0.0073604
0.0465489 0.0172823 0.00754123
0.0462331 0.0182491 0.00734354
0.0462527 0.0191216 0.00707151
0.0460986 0.01924 0.00702399
0.0519035 0.0175836 0.00733433
0.0395602 0.0168071 0.0075064
0.0460137 0.0188654 0.0071356
0.039631 0.0163825 0.00781661
0.045917 0.0161042 0.00804142
0.0451869 0.0157716 0.00894422
0.0399391 0.0169215 0.00744959
0.0406552 0.0176848 0.00721725
0.045423 0.0158405 0.00869604
0.0392338 0.0157317 0.00863412
0.0398681 0.0174166 0.00727678
0.0393207 0.0159738 0.00832786
0.0451455 0.0156974 0.00912553
0.040552 0.0172942 0.00734704
0.046275 0.0184365 0.00728767
0.0461252 0.0185597 0.00723893
0.039485 0.0165056 0.00775717
0.0400604 0.0174788 0.00726336
0.0400493 0.0166207 0.0075824
0.0402959 0.0177259 0.0071883
0.0465724 0.0181734 0.00733324
0.0452288 0.0158456 0.00875934
0.0399105 0.017602 0.00721491
0.0461141 0.016161 0.00800535
0.0459969 0.0164133 0.00780084
0.0455012 0.015915 0.00852775
0.045886 0.0183024 0.00730334
0.0397834 0.0163072 0.007922
0.045913 0.0176227 0.00751813
0.0459604 0.0162544 0.00791674
0.040511 0.0171085 0.00740906
0.0455147 0.016637 0.00800407
0.0460833 0.0183723 0.0072948
0.0395136 0.0160167 0.00828212
0.0461276 0.0169815 0.00765551
0.0393641 0.0160944 0.00817437
0.0459284 0.0184897 0.00724753
0.0457671 0.0161875 0.00793855
0.0463829 0.0181185 0.00736611
0.0457687 0.0166215 0.00795291
0.0394269 0.015773 0.00858732
0.0461677 0.018747 0.00718312
0.046318 0.0186244 0.00723171
0.0392519 0.0152856 0.00919786
0.0459982 0.0179976 0.00740643
0.0394702 0.0158949 0.00843471
0.0396386 0.0171678 0.00735266
0.0460637 0.0174946 0.00754746
0.0398874 0.0182813 0.00698086
0.0464863 0.0177938 0.00742995
0.0395956 0.016259 0.00797413
0.0401287 0.0169839 0.00743602
0.0460562 0.0190527 0.00707979
0.0399711 0.0163542 0.00787129
0.0460407 0.0181849 0.00735063
0.0394457 0.0163598 0.00788833
0.0398153 0.0164347 0.00775905
0.033782 0.0178116 0.00711831
0.0398284 0.0172307 0.00733893
0.0401693 0.0171696 0.00737396
0.0337288 0.0168021 0.0075827
0.0406965 0.0178713 0.00715496
0.0333437 0.0159803 0.00819911
0.0405921 0.0174809 0.0072846
0.0464032 0.0189992 0.00712004
0.0408852 0.017936 0.00714054
0.0462407 0.0171208 0.00778705
0.0402315 0.0182211 0.00701575
0.0457455 0.0174988 0.00771671
0.0393833 0.0156513 0.00873985
0.0405076 0.0185436 0.00691647
0.0399934 0.0177501 0.00734525
0.0457143 0.0159628 0.00825901
0.0400181 0.0172934 0.00732524
0.0456818 0.0158946 0.0084442
0.0407416 0.0173574 0.00733318
0.0397496 0.0161849 0.00807807
0.040279 0.0168612 0.00748432
0.0397181 0.0175396 0.00722836
0.0403806 0.018097 0.00706447
0.0397086 0.0166837 0.00755883
0.0405892 0.0181865 0.00704236
0.0402524 0.0175408 0.00725004
0.0406184 0.0167984 0.00751989
0.0404027 0.0174181 0.00729836
0.0461688 0.0171712 0.00760737
0.0397496 0.0168624 0.00747326
0.0395157 0.0166933 0.00781909
0.0460284 0.0167466 0.00788987
0.0404621 0.017623 0.00723049
0.0405068 0.0178096 0.00716831
0.0399783 0.0171075 0.00738738
0.0463605 0.0188117 0.0071759
0.0402387 0.0166824 0.00756432
0.0456347 0.0167903 0.00792802
0.0403882 0.0165634 0.00762337
0.0403582 0.0187943 0.00692584
0.0392961 0.0154073 0.00904543
0.0341224 0.0177489 0.00714499
0.0396778 0.0173538 0.00729046
0.0397604 0.017725 0.00716648
0.0404697 0.0169229 0.00747104
0.0464679 0.0184976 0.00726965
0.0458784 0.0168787 0.00788158
0.0398522 0.0178837 0.00729655
0.0456515 0.0171789 0.00783738
0.0401028 0.0176643 0.00720148
0.0401274 0.0162733 0.00798092
0.0403202 0.0170469 0.00742242
0.033741 0.0176376 0.00720796
0.0459471 0.0175647 0.00770648
0.0405484 0.0179964 0.00710591
0.0403396 0.0179111 0.00712657
0.0459149 0.0170678 0.00782784
0.0405972 0.0183757 0.00697779
0.0333008 0.0158507 0.00834521
0.0402109 0.0173552 0.00731201
0.0453355 0.0157156 0.0090658
0.0407371 0.0180612 0.00709148
0.0404203 0.0182855 0.00700143
0.039899 0.0167402 0.00752534
0.0335752 0.0161508 0.0079979
0.0456675 0.0169828 0.00787855
0.0400075 0.0164762 0.00771564
0.0395992 0.0169808 0.00741521
0.0514317 0.0162897 0.00791243
0.0332574 0.0157211 0.00849126
0.0389732 0.0150005 0.0095481
0.0401191 0.0185325 0.00691158
0.0389319 0.0148785 0.00970106
0.0400376 0.0181583 0.00702926
0.03369 0.016622 0.00766036
0.0397044 0.0171597 0.00754136
0.0399389 0.0162286 0.00803051
0.046069 0.0160227 0.00814259
0.0403999 0.0189891 0.00694252
0.0402694 0.0184125 0.00696851
0.0338908 0.0175193 0.00726761
0.0334223 0.0162439 0.00790871
0.0335395 0.0167402 0.00760139
0.0337683 0.0169822 0.00750511
0.0339718 0.017867 0.00708694
0.0336129 0.0162813 0.00785113
0.0333835 0.0161105 0.00805258
0.0398451 0.0180959 0.00704274
0.0336507 0.0164419 0.00773798
0.0454703 0.0164503 0.00806014
0.0338493 0.0173419 0.00735018
0.03966 0.0169773 0.00761032
0.0340395 0.0173987 0.00732541
0.0338219 0.0179858 0.00702853
0.0401451 0.0178497 0.0071396
0.0340818 0.017574 0.00723507
0.0397099 0.0160628 0.00823137
0.0343195 0.0178068 0.00711221
0.0399952 0.0179729 0.00709113
0.0401647 0.0187298 0.00692831
0.0339059 0.0183666 0.00704132
0.046465 0.016903 0.00763763
0.0399743 0.0186687 0.00693363
0.0401907 0.0180354 0.00707777
0.0339318 0.0176927 0.00717675
0.0402917 0.0193157 0.00697839
0.0338652 0.0181774 0.00699077
0.0404284 0.0167373 0.00753303
0.0401423 0.0194482 0.00699762
0.0401615 0.016396 0.00782677
0.0403155 0.0185993 0.00691369
0.0400172 0.0188635 0.00694758
0.0341682 0.0179242 0.00705455
0.0340176 0.0180523 0.00702482
0.0399512 0.018271 0.00717015
0.0340633 0.0182466 0.00701227
0.0402502 0.0191204 0.00696165
0.0276016 0.0169798 0.00736818
0.0402077 0.0189246 0.00694492
0.040701 0.01717 0.0073958
0.0338086 0.0171621 0.00742763
0.0335788 0.0169205 0.00752369
0.0401982 0.0165207 0.00767474
0.0336181 0.0171008 0.00744597
0.0336995 0.0174605 0.00729107
0.0400815 0.0183441 0.0069673
0.0342045 0.0181051 0.00697726
0.0401018 0.019253 0.00698087
0.0451118 0.0156242 0.00930855
0.0402559 0.0187852 0.00709746
0.033958 0.017043 0.0074869
0.0399 0.0161062 0.00818378
0.0400601 0.0190582 0.00696419
0.0396379 0.0168019 0.00770386
0.0464254 0.0183082 0.00731786
0.0405916 0.0189339 0.00692875
0.0403505 0.0164411 0.00777703
0.0399309 0.0184756 0.00696268
0.0406597 0.016984 0.00745791
0.0334617 0.0163916 0.00777983
0.0336579 0.0172808 0.00736842
0.0450672 0.0155425 0.00949057
0.0405499 0.018739 0.00691207
0.0398028 0.0179105 0.00710461
0.0399529 0.0177875 0.00715301
0.0335005 0.01656 0.00767906

VERTICES 293 586
1 0
1 1
1 2
1 3
1 4
1 5
1 6
1 7
1 8
1 9
1 10
1 11
1 12
1 13
1 14
1 15
1 16
1 17
1 18
1 19
1 20
1 21
1 22
1 23
1 24
1 25
1 26
1 27
1 28
1 29
1 30
1 31
1 32
1 33
1 34
1 35
1 36
1 37
1 38
1 39
1 40
1 41
1 42
1 43
1 44
1 45
1 46
1 47
1 48
1 49
1 50
1 51
1 52
1 53
1 54
1 55
1 56
1 57
1 58
1 59
1 60
1 61
1 62
1 63
1 64
1 65
1 66
1 67
1 68
1 69
1 70
1 71
1 72
1 73
1 74
1 75
1 76
1 77
1 78
1 79
1 80
1 81
1 82
1 83
1 84
1 85
1 86
1 87
1 88
1 89
1 90
1 91
1 92
1 93
1 94
1 95
1 96
1 97
1 98
1 99
1 100
1 101
1 102
1 103
1 104
1 105
1 106
1 107
1 108
1 109
1 110
1 111
1 112
1 113
1 114
1 115
1 116
1 117
1 118
1 119
1 120
1 121
1 122
1 123
1 124
1 125
1 126
1 127
1 128
1 129
1 130
1 131
1 132
1 133
1 134
1 135
1 136
1 137
1 138
1 139
1 140
1 141
1 142
1 143
1 144
1 145
1 146
1 147
1 148
1 149
1 150
1 151
1 152
1 153
1 154
1 155
1 156
1 157
1 158
1 159
1 160
1 161
1 162
1 163
1 164
1 165
1 166
1 167
1 168
1 169
1 170
1 171
1 172
1 173
1 174
1 175
1 176
1 177
1 178
1 179
1 180
1 181
1 182
1 183
1 184
1 185
1 186
1 187
1 188
1 189
1 190
1 191
1 192
1 193
1 194
1 195
1 196
1 197
1 198
1 199
1 200
1 201
1 202
1 203
1 204
1 205
1 206
1 207
1 208
1 209
1 210
1 211
1 212
1 213
1 214
1 215
1 216
1 217
1 218
1 219
1 220
1 221
1 222
1 223
1 224
1 225
1 226
1 227
1 228
1 229
1 230
1 231
1 232
1 233
1 234
1 235
1 236
1 237
1 238
1 239
1 240
1 241
1 242
1 243
1 244
1 245
1 246
1 247
1 248
1 249
1 250
1 251
1 252
1 253
1 254
1 255
1 256
1 257
1 258
1 259
1 260
1 261
1 262
1 263
1 264
1 265
1 266
1 267
1 268
1 269
1 270
1 271
1 272
1 273
1 274
1 275
1 276
1 277
1 278
1 279
1 280
1 281
1 282
1 283
1 284
1 285
1 286
1 287
1 288
1 289
1 290
1 291
1 292

POINT_DATA 293
SCALARS id int 1
LOOKUP_TABLE default
1
3
4
5
6
7
8
9
10
11
12
13
14
15
16
17
19
20
21
22
23
24
25
26
27
28
29
30
31
32
33
34
35
36
37
38
39
40
41
42
43
44
45
46
47
48
49
50
51
52
53
54
55
56
57
58
59
60
61
62
63
64
65
66
67
68
69
70
71
72
73
74
75
76
77
78
79
80
81
82
83
85
86
87
88
89
90
91
92
93
94
95
96
97
98
99
100
101
102
103
104
105
106
107
108
109
110
111
112
113
114
115
116
117
118
119
120
121
122
123
124
125
126
127
128
129
130
131
132
133
134
135
136
137
138
139
140
142
143
144
145
146
147
148
149
150
151
152
153
154
155
156
157
158
159
160
161
162
164
165
166
167
168
169
170
171
172
173
174
175
176
177
178
179
180
181
182
183
184
185
186
187
188
189
190
191
192
193
194
195
196
197
198
200
201
202
203
204
205
206
207
208
209
210
211
212
213
214
215
216
217
218
219
220
221
222
223
224
225
226
227
228
229
230
231
232
233
234
235
236
237
238
239
240
241
242
243
245
246
247
248
249
250
251
252
253
254
255
256
257
258
259
260
261
262
263
264
265
266
267
268
269
270
271
272
273
274
275
276
277
278
279
280
281
282
283
284
285
286
287
288
289
290
291
292
293
294
295
296
297
298
299
300

SCALARS type int 1
LOOKUP_TABLE default
1
1
1
1
1
1
1
1
1
1
1
1
1
1
1
1
1
1
1
1
1
1
1
1
1
1
1
1
1
1
1
1
1
1
1
1
1
1
1
1
1
1
1
1
1
1
1
1
1
1
1
1
1
1
1
1
1
1
1
1
1
1
1
1
1
1
1
1
1
1
1
1
1
1
1
1
1
1
1
1
1
1
1
1
1
1
1
1
1
1
1
1
1
1
1
1
1
1
1
1
1
1
1
1
1
1
1
1
1
1
1
1
1
1
1
1
1
1
1
1
1
1
1
1
1
1
1
1
1
1
1
1
1
1
1
1
1
1
1
1
1
1
1
1
1
1
1
1
1
1
1
1
1
1
1
1
1
1
1
1
1
1
1
1
1
1
1
1
1
1
1
1
1
1
1
1
1
1
1
1
1
1
1
1
1
1
1
1
1
1
1
1
1
1
1
1
1
1
1
1
1
1
1
1
1
1
1
1
1
1
1
1
1
1
1
1
1
1
1
1
1
1
1
1
1
1
1
1
1
1
1
1
1
1
1
1
1
1
1
1
1
1
1
1
1
1
1
1
1
1
1
1
1
1
1
1
1
1
1
1
1
1
1
1
1
1
1
1
1
1
1
1
1
1
1
1
1
1
1
1
1
1
1
1
1
1
1
1
1
1
1
1
1

SCALARS radius float 1
LOOKUP_TABLE default
0.0001
0.0001
0.0001
0.0001
0.0001
0.0001
0.0001
0.0001
0.0001
0.0001
0.0001
0.0001
0.0001
0.0001
0.0001
0.0001
0.0001
0.0001
0.0001
0.0001
0.0001
0.0001
0.0001
0.0001
0.0001
0.0001
0.0001
0.0001
0.0001
0.0001
0.0001
0.0001
0.0001
0.0001
0.0001
0.0001
0.0001
0.0001
0.0001
0.0001
0.0001
0.0001
0.0001
0.0001
0.0001
0.0001
0.0001
0.0001
0.0001
0.0001
0.0001
0.0001
0.0001
0.0001
0.0001
0.0001
0.0001
0.0001
0.0001
0.0001
0.0001
0.0001
0.0001
0.0001
0.0001
0.0001
0.0001
0.0001
0.0001
0.0001
0.0001
0.0001
0.0001
0.0001
0.0001
0.0001
0.0001
0.0001
0.0001
0.0001
0.0001
0.0001
0.0001
0.0001
0.0001
0.0001
0.0001
0.0001
0.0001
0.0001
0.0001
0.0001
0.0001
0.0001
0.0001
0.0001
0.0001
0.0001
0.0001
0.0001
0.0001
0.0001
0.0001
0.0001
0.0001
0.0001
0.0001
0.0001
0.0001
0.0001
0.0001
0.0001
0.0001
0.0001
0.0001
0.0001
0.0001
0.0001
0.0001
0.0001
0.0001
0.0001
0.0001
0.0001
0.0001
0.0001
0.0001
0.0001
0.0001
0.0001
0.0001
0.0001
0.0001
0.0001
0.0001
0.0001
0.0001
0.0001
0.0001
0.0001
0.0001
0.0001
0.0001
0.0001
0.0001
0.0001
0.0001
0.0001
0.0001
0.0001
0.0001
0.0001
0.0001
0.0001
0.0001
0.0001
0.0001
0.0001
0.0001
0.0001
0.0001
0.0001
0.0001
0.0001
0.0001
0.0001
0.0001
0.0001
0.0001
0.0001
0.0001
0.0001
0.0001
0.0001
0.0001
0.0001
0.0001
0.0001
0.0001
0.0001
0.0001
0.0001
0.0001
0.0001
0.0001
0.0001
0.0001
0.0001
0.0001
0.0001
0.0001
0.0001
0.0001
0.0001
0.0001
0.0001
0.0001
0.0001
0.0001
0.0001
0.0001
0.0001
0.0001
0.0001
0.0001
0.0001
0.0001
0.0001
0.0001
0.0001
0.0001
0.0001
0.0001
0.0001
0.0001
0.0001
0.0001
0.0001
0.0001
0.0001
0.0001
0.0001
0.0001
0.0001
0.0001
0.0001
0.0001
0.0001
0.0001
0.0001
0.0001
0.0001
0.0001
0.0001
0.0001
0.0001
0.0001
0.0001
0.0001
0.0001
0.0001
0.0001
0.0001
0.0001
0.0001
0.0001
0.0001
0.0001
0.0001
0.0001
0.0001
0.0001
0.0001
0.0001
0.0001
0.0001
0.0001
0.0001
0.0001
0.0001
0.0001
0.0001
0.0001
0.0001
0.0001
0.0001
0.0001
0.0001
0.0001
0.0001
0.0001
0.0001
0.0001
0.0001
0.0001
0.0001
0.0001
0.0001
0.0001
0.0001
0.0001
0.0001
0.0001
0.0001
0.0001
0.0001
0.0001
0.0001
0.0001
0.0001
0.0001
0.0001
0.0001

SCALARS mass float 1
LOOKUP_TABLE default
1.17286e-09
1.17286e-09
1.17286e-09
1.17286e-09
1.17286e-09
1.17286e-09
1.17286e-09
1.17286e-09
1.17286e-09
1.17286e-09
1.17286e-09
1.17286e-09
1.17286e-09
1.17286e-09
1.17286e-09
1.17286e-09
1.17286e-09
1.17286e-09
1.17286e-09
1.17286e-09
1.17286e-09
1.17286e-09
1.17286e-09
1.17286e-09
1.17286e-09
1.17286e-09
1.17286e-09
1.17286e-09
1.17286e-09
1.17286e-09
1.17286e-09
1.17286e-09
1.17286e-09
1.17286e-09
1.17286e-09
1.17286e-09
1.17286e-09
1.17286e-09
1.17286e-09
1.17286e-09
1.17286e-09
1.17286e-09
1.17286e-09
1.17286e-09
1.17286e-09
1.17286e-09
1.17286e-09
1.17286e-09
1.17286e-09
1.17286e-09
1.17286e-09
1.17286e-09
1.17286e-09
1.17286e-09
1.17286e-09
1.17286e-09
1.17286e-09
1.17286e-09
1.17286e-09
1.17286e-09
1.17286e-09
1.17286e-09
1.17286e-09
1.17286e-09
1.17286e-09
1.17286e-09
1.17286e-09
1.17286e-09
1.17286e-09
1.17286e-09
1.17286e-09
1.17286e-09
1.17286e-09
1.17286e-09
1.17286e-09
1.17286e-09
1.17286e-09
1.17286e-09
1.17286e-09
1.17286e-09
1.17286e-09
1.17286e-09
1.17286e-09
1.17286e-09
1.17286e-09
1.17286e-09
1.17286e-09
1.17286e-09
1.17286e-09
1.17286e-09
1.17286e-09
1.17286e-09
1.17286e-09
1.17286e-09
1.17286e-09
1.17286e-09
1.17286e-09
1.17286e-09
1.17286e-09
1.17286e-09
1.17286e-09
1.17286e-09
1.17286e-09
1.17286e-09
1.17286e-09
1.17286e-09
1.17286e-09
1.17286e-09
1.17286e-09
1.17286e-09
1.17286e-09
1.17286e-09
1.17286e-09
1.17286e-09
1.17286e-09
1.17286e-09
1.17286e-09
1.17286e-09
1.17286e-09
1.17286e-09
1.17286e-09
1.17286e-09
1.17286e-09
1.17286e-09
1.17286e-09
1.17286e-09
1.17286e-09
1.17286e-09
1.17286e-09
1.17286e-09
1.17286e-09
1.17286e-09
1.17286e-09
1.17286e-09
1.17286e-09
1.17286e-09
1.17286e-09
1.17286e-09
1.17286e-09
1.17286e-09
1.17286e-09
1.17286e-09
1.17286e-09
1.17286e-09
1.17286e-09
1.17286e-09
1.17286e-09
1.17286e-09
1.17286e-09
1.17286e-09
1.17286e-09
1.17286e-09
1.17286e-09
1.17286e-09
1.17286e-09
1.17286e-09
1.17286e-09
1.17286e-09
1.17286e-09
1.17286e-09
1.17286e-09
1.17286e-09
1.17286e-09
1.17286e-09
1.17286e-09
1.17286e-09
1.17286e-09
1.17286e-09
1.17286e-09
1.17286e-09
1.17286e-09
1.17286e-09
1.17286e-09
1.17286e-09
1.17286e-09
1.17286e-09
1.17286e-09
1.17286e-09
1.17286e-09
1.17286e-09
1.17286e-09
1.17286e-09
1.17286e-09
1.17286e-09
1.17286e-09
1.17286e-09
1.17286e-09
1.17286e-09
1.17286e-09
1.17286e-09
1.17286e-09
1.17286e-09
1.17286e-09
1.17286e-09
1.17286e-09
1.17286e-09
1.17286e-09
1.17286e-09
1.17286e-09
1.17286e-09
1.17286e-09
1.17286e-09
1.17286e-09
1.17286e-09
1.17286e-09
1.17286e-09
1.17286e-09
1.17286e-09
1.17286e-09
1.17286e-09
1.17286e-09
1.17286e-09
1.17286e-09
1.17286e-09
1.17286e-09
1.17286e-09
1.17286e-09
1.17286e-09
1.17286e-09
1.17286e-09
1.17286e-09
1.17286e-09
1.17286e-09
1.17286e-09
1.17286e-09
1.17286e-09
1.17286e-09
1.17286e-09
1.17286e-09
1.17286e-09
1.17286e-09
1.17286e-09
1.17286e-09
1.17286e-09
1.17286e-09
1.17286e-09
1.17286e-09
1.17286e-09
1.17286e-09
1.17286e-09
1.17286e-09
1.17286e-09
1.17286e-09
1.17286e-09
1.17286e-09
1.17286e-09
1.17286e-09
1.17286e-09
1.17286e-09
1.17286e-09
1.17286e-09
1.17286e-09
1.17286e-09
1.17286e-09
1.17286e-09
1.17286e-09
1.17286e-09
1.17286e-09
1.17286e-09
1.17286e-09
1.17286e-09
1.17286e-09
1.17286e-09
1.17286e-09
1.17286e-09
1.17286e-09
1.17286e-09
1.17286e-09
1.17286e-09
1.17286e-09
1.17286e-09
1.17286e-09
1.17286e-09
1.17286e-09
1.17286e-09
1.17286e-09
1.17286e-09
1.17286e-09
1.17286e-09
1.17286e-09
1.17286e-09
1.17286e-09
1.17286e-09
1.17286e-09
1.17286e-09
1.17286e-09
1.17286e-09
1.17286e-09
1.17286e-09
1.17286e-09
1.17286e-09
1.17286e-09
1.17286e-09

VECTORS velocity float
0.00599578 -0.000596305 -0.00103511
0.00559122 0.000285818 -0.000318915
0.00573026 0.000308394 0.000288435
0.005642 -0.000499772 -0.00104378
0.00550032 -7.08018e-05 0.000476583
0.00591395 -0.000527576 -0.000395156
0.00586606 -0.000196913 -0.000984735
0.00631306 0.000290396 -0.000459705
0.00616865 0.000561404 0.000336382
0.00532962 -6.22623e-05 -0.000550589
0.00520049 8.80645e-05 -0.000652142
0.00578618 0.000454421 0.000199434
0.00598747 0.0002544 -9.12146e-05
0.00520104 0.000573501 0.000186055
0.00593397 0.000239571 -7.82386e-05
0.00583734 0.000530316 0.000302268
0.00568146 0.000325238 0.000267212
0.00558327 -4.77316e-06 -0.000634437
0.00581883 0.00051707 0.000116062
0.00475716 0.000133969 -0.000561351
0.00561577 0.000262262 0.000145965
0.00534677 -4.67788e-05 0.000454996
0.0041133 -0.000990576 -0.000442225
0.00501222 5.95675e-06 0.000407277
0.00565336 0.00046381 0.000250873
0.0056443 -9.86887e-05 0.000500491
0.00588679 -0.000124786 0.000530485
0.00531169 0.000711586 9.88804e-05
0.00514265 0.00022866 -0.000583303
0.00462308 1.62531e-05 -0.000599139
0.00681209 0.0001835 0.000687927
0.00499787 0.000207359 -0.000561516
0.00611003 -0.000166959 0.000565718
0.00509166 9.21927e-05 -0.000645014
0.00535025 0.000327208 -0.000457869
0.00549477 -0.000438221 -0.000418473
0.00573898 0.000128314 -0.000122131
0.0058739 0.000324003 -0.000137562
0.00528287 0.00013004 -0.000815997
0.00657183 -0.000226321 -0.000555655
0.00497064 -0.000101086 -0.000498578
0.0054841 -0.000178982 -0.000592929
0.00579903 -0.000123217 0.000522345
0.00602854 -0.000560985 -0.00101735
0.00556617 0.000356992 0.000266893
0.00580025 0.000435452 0.000260396
0.0053339 0.000269833 -0.000673539
0.00583407 0.000169507 0.000113413
0.00595704 0.000235765 -0.000119957
0.00553461 -0.000218322 0.000538888
0.00547364 -0.000417299 -0.000292693
0.00596584 0.000241709 -0.000120085
0.00542189 -0.000735359 -0.000272313
0.00520845 -2.57568e-05 0.00043577
0.00567055 -6.73931e-05 -0.000583124
0.00572214 -0.000111607 0.000511786
0.00543778 0.000322777 -0.000668353
0.00608421 0.000399965 0.000107806
0.00547039 6.96173e-05 -0.000822236
0.00576137 0.000424224 0.000262053
0.00587781 -0.000133926 0.000533348
0.00495467 0.000714294 0.000105171
0.00556024 0.00021617 -0.000403647
0.00570477 -0.000113691 -0.000568791
0.00632267 -0.00019612 -0.000197606
0.00598062 0.000267208 -0.000104414
0.00603036 -0.000157598 0.00055487
0.00599898 0.000274341 -0.000114173
0.0058703 0.000225668 0.000277517
0.00563172 -2.79858e-05 -0.000588084
0.00595317 -0.00014644 0.000544179
0.00637878 0.000535387 0.000290488
0.00581444 -6.6729e-06 -0.000586312
0.00606111 0.000325059 0.000306188
0.00603261 0.000302333 -8.86484e-05
0.00584371 0.000360782 -0.000157667
0.00619245 0.00037534 0.000136425
0.00570128 0.000362295 8.74859e-05
0.0055771 0.000311651 -0.000109832
0.00582661 0.000339562 -0.000136008
0.00572948 -0.000102023 0.000508336
0.0057008 0.000427747 0.000255482
0.00474773 -2.45877e-05 -0.000514361
0.00596149 0.000368068 0.00028751
0.00496344 -0.000196845 -0.000486409
0.00600378 0.000432903 0.000107049
0.00562808 0.000190692 -0.000636246
0.00587398 0.000281811 0.00032664
0.00611733 0.000335969 0.000309465
0.00610946 0.000320041 0.000312082
0.00580328 -0.000118931 0.000521166
0.00560822 0.000279979 -0.000338733
0.00599848 0.000337532 0.00029918
0.00576739 0.000343245 -0.00013527
0.00591282 0.000439621 0.000235307
0.00568129 0.000918608 0.000713028
0.00567432 0.000302587 0.00012964
0.00617464 0.000166942 0.000197763
0.00542199 -0.000624387 -0.000293739
0.00600698 0.000274327 -9.71527e-05
0.00597088 0.000304345 0.000140872
0.00605321 0.000313772 -8.56903e-05
0.00570252 0.00110461 0.000226019
0.00615327 0.000346827 0.000136306
0.00594959 0.000281144 0.000316988
0.00597429 0.000344361 0.000297317
0.00557656 0.000207297 -0.000373438
0.00600398 0.000299556 0.000144214
0.00560864 0.00026002 -0.000307812
0.00610099 0.000153904 0.00019918
0.00573053 -0.000235167 -0.000559857
0.00588394 0.000337339 -0.000662353
0.00602438 0.00029043 0.000150614
0.00595904 0.000139803 0.000514001
0.00700233 5.48078e-05 -0.000409567
0.00555703 -0.000564004 -0.000275465
0.00581443 0.000431757 0.000253167
0.005734 0.000323393 -0.000116591
0.00569828 0.000354696 0.000285277
0.00641065 -0.000330698 -0.000901016
0.00598088 0.000370767 0.000117078
0.00688035 0.000138024 0.000424095
0.00590543 0.000377011 0.000283229
0.00605143 0.000299457 -0.000142885
0.00507252 3.03733e-05 -0.00056592
0.00604504 0.000310659 -0.000106143
0.00593345 0.000457613 0.000259274
0.00578436 0.000390449 0.000250698
0.00577141 3.89051e-06 -0.000599047
0.00672395 0.000277666 -0.000157226
0.00600093 0.000255664 -8.88408e-05
0.00599308 0.000333739 0.000299992
0.00596038 0.000298932 0.000310834
0.00597536 0.000247202 -8.14904e-05
0.00574072 0.000376768 0.000271005
0.00610704 0.000296432 -0.000137593
0.00562525 0.000322171 0.000119189
0.00565304 7.48885e-05 -0.000492571
0.00627853 0.00035613 0.000138379
0.00569858 -0.000147196 -0.000567806
0.00580548 0.00036602 -0.000187998
0.00568304 0.000288073 0.000134775
0.0060632 0.000331606 0.000307516
0.0057478 0.000288466 -6.5314e-05
0.0057468 0.000411183 0.000258136
0.00579543 0.000329598 -0.000137675
0.00572466 0.000388329 -0.00017747
0.00609677 -0.000270693 3.09253e-05
0.00581862 0.000341745 0.00012519
0.00567033 0.00024134 0.00015132
0.00540853 -2.71115e-05 0.000253412
0.00618895 0.000175859 0.000195697
0.00556569 7.11873e-05 -0.000261695
0.00630687 0.000298338 0.000158752
0.00606947 0.000292845 0.000318884
0.00611076 0.000388748 0.000118166
0.00540759 0.000170534 -0.000617775
0.00623302 0.000196457 0.000188533
0.00560628 0.000378487 0.000264544
0.00599073 0.000263737 -0.000101037
0.00620089 0.000374941 0.000124974
0.00601922 0.000242848 0.000140607
0.0055111 -0.000463456 -0.00054374
0.00593277 0.000266144 0.000156023
0.00500246 -0.00054685 -0.000657334
0.00622504 0.000174773 0.000197199
0.00578978 0.000385033 -0.000204879
0.00564977 0.000391302 0.000102657
0.00602679 0.000337911 0.000132768
0.00617351 0.000143468 0.000206086
0.00559648 0.000302202 -0.000329435
0.00609161 0.000365835 0.000125499
0.00595944 0.000166098 0.000190018
0.00578976 0.000272761 0.000146372
0.00624045 0.000435511 0.000111109
0.00537785 -1.17443e-05 -0.000594876
0.00564094 0.000313135 -0.000138758
0.00628702 6.86666e-05 -0.000259829
0.00502567 0.000108511 -0.000554271
0.00619189 0.000250189 0.000169964
0.00616884 0.000153534 0.000202493
0.00575127 0.000284708 0.000141751
0.00603642 0.000294142 0.000317235
0.00563753 0.000345021 1.64434e-05
0.00765583 0.000283453 -0.000358806
0.00563133 0.00025106 -3.43181e-05
0.00609611 0.000318137 -0.000252776
0.0059399 0.000242779 -7.59766e-05
0.0060825 -0.000314001 6.4761e-05
0.00564033 0.000297997 0.00013216
0.00607931 0.000337955 0.000134377
0.00584402 0.000368031 0.000116538
0.00593673 -1.78547e-05 -0.000629579
0.00518001 0.000234426 -0.000691388
0.00612041 0.000315451 0.000138982
0.00580393 0.000158667 3.67303e-05
0.00605648 0.000262433 0.000160118
0.00578231 0.000248051 -8.97501e-05
0.00572407 0.000432779 8.92704e-05
0.00603797 -0.000260932 5.39485e-05
0.00574656 0.000244458 0.00024905
0.00615608 0.000135083 0.000207815
0.00618206 0.000165555 0.000197193
0.00538922 0.000157512 -0.00077473
0.00615248 0.000359902 0.00013077
0.00609356 -0.000240264 -5.85286e-05
0.00579324 0.000203078 0.000168736
0.00579639 -0.000974315 -0.000236958
0.00607481 0.00034423 0.000134548
0.0061534 0.000470409 9.03148e-05
0.00558598 0.000151906 -0.000225243
0.00512417 -0.000195608 -2.09467e-05
0.00597637 0.000511925 -0.000206535
0.00551353 0.00036211 -0.000137178
0.00568029 0.000495951 7.34249e-05
0.00549753 -0.000437625 -0.0004231
0.00617153 0.000117655 -0.000445926
0.00601305 0.000280526 -0.000114046
0.00618318 0.000177722 -0.000267537
0.00560731 0.000316179 -0.000176304
0.00624551 0.000327647 0.000149782
0.00546219 5.21093e-05 0.000215766
0.0058311 0.00052077 2.72534e-05
0.00579096 0.000322603 -0.00013895
0.00560082 0.000162449 0.000477908
0.00567423 0.000402561 -0.000215129
0.00619861 0.00043295 -8.19927e-05
0.00600467 -0.000338694 -4.28316e-05
0.00548744 -0.000387212 -0.000536859
0.00544549 -1.07075e-05 0.00025236
0.00549417 -9.06036e-05 0.000294758
0.00610725 -0.000292021 5.28541e-05
0.00531581 -0.000259673 -0.000146671
0.00534916 -4.18403e-06 -0.000383076
0.00620662 0.000348377 0.000135031
0.00538056 9.78525e-05 0.000208588
0.00564795 0.000372616 0.000354364
0.00585961 -0.000146734 0.000341593
0.00538298 0.000440373 -0.000493003
0.0059336 -0.000356077 7.36302e-05
0.00613749 -0.000260975 3.76526e-05
0.00606833 0.000208864 0.000180924
0.00604719 -0.000315126 5.87503e-05
0.00589539 0.000375563 -0.000233475
0.00615368 -0.000243829 2.73843e-05
0.00617449 0.000324252 0.000146479
0.0062122 0.000374762 -0.000371181
0.00606698 -0.000236486 3.68684e-05
0.00522703 -0.000217884 -0.000511344
0.00630524 0.000313176 -0.00034877
0.00615909 0.000178771 0.000192206
0.0060671 -0.000297958 4.7301e-05
0.00576711 0.000597527 -0.00019982
0.00615995 -0.000258484 3.46646e-05
0.00572481 0.000361041 0.00014727
0.00579498 0.000547975 -0.000204917
0.00575201 0.000237994 -7.93246e-05
0.00620781 0.000346051 -0.00026692
0.00624271 0.000358616 -0.000367463
0.00615578 -0.00024763 3.12334e-05
0.00616015 -0.000249912 3.38564e-05
0.00622609 0.000340676 0.000147088
0.00607192 -0.000228269 3.92549e-05
0.00560584 0.000340259 -0.000216896
0.00556653 -0.000382241 0.000158843
0.00621517 0.000477191 -0.000236314
0.00604401 0.000223709 0.000171787
0.00571155 -0.000138221 0.000314116
0.00542391 -0.000105348 0.000292218
0.00562322 0.000269605 -6.71671e-05
0.00548415 2.23936e-05 0.000239723
0.00588478 -0.00011046 0.000323347
0.00627049 0.000291144 0.000158294
0.00615614 -0.000237898 3.84549e-05
0.00576714 0.000538218 -0.000207061
0.00552405 0.0010359 0.000240357
0.00606412 0.000232078 -0.000281847
0.00557365 -0.000272316 0.000371876
0.00572499 0.000310644 -0.000181557
0.00623585 0.000398075 -0.000243184
0.00572761 0.000445077 -0.000425448
0.00589733 -4.21926e-05 -0.000665439
0.00570277 0.000512843 -0.000203558
0.00556039 0.000205019 -4.96152e-05
0.00629248 0.00034877 4.15014e-05
0.00589015 0.000267379 0.000152534
0.00527364 -0.000232863 -0.000401722
0.00581964 -3.32055e-05 0.000278563
0.142166 -0.632725 0.624865
0.00615083 0.000393182 -0.00023543
0.00616703 0.000353089 0.000133716
0.00612082 0.000321325 0.000141183
0.00550648 0.000344436 0.000161502

VECTORS force float
-1.49195e-09 3.78283e-10 -1.20383e-09
-9.93898e-10 9.44842e-10 1.87683e-09
5.55215e-10 2.56333e-09 -2.561e-09
-9.55546e-10 2.77763e-09 2.60405e-10
7.20396e-11 -5.4297e-12 -1.24309e-11
-3.86905e-10 2.70883e-10 -1.93447e-10
1.70044e-10 -7.40818e-10 2.67376e-09
3.8217e-12 7.51656e-12 -2.43852e-12
-7.52765e-09 1.03711e-08 -6.69372e-09
-4.12611e-09 2.23082e-09 3.8421e-10
1.13615e-10 -2.31611e-09 -6.85251e-10
2.61389e-09 4.38293e-11 -1.87522e-09
-2.61087e-10 1.12987e-09 -1.48458e-09
7.9757e-10 2.35824e-09 -1.3741e-09
-3.99845e-11 1.94743e-09 -2.53744e-09
1.58529e-09 5.0522e-09 8.1055e-10
9.89496e-10 3.93678e-09 3.23975e-09
4.09046e-10 -1.79837e-09 3.02648e-09
7.99928e-09 4.24308e-10 1.45976e-09
2.92526e-10 3.01759e-09 -1.33702e-09
3.83453e-10 2.11803e-09 -3.7787e-10
-8.85124e-11 -1.31568e-11 1.77217e-11
3.6026e-08 -2.71748e-08 -1.07538e-08
-2.38145e-10 -2.1039e-11 -1.28683e-11
8.34134e-10 5.13413e-09 -1.41359e-09
-1.6745e-10 -1.44119e-10 6.29573e-12
-6.31488e-11 -1.36914e-10 4.26596e-11
5.25977e-09 5.27642e-11 3.35931e-09
-3.52986e-09 -1.07778e-09 1.43705e-09
-7.0497e-10 -4.80001e-09 -6.34673e-09
-4.49083e-09 5.60934e-09 -4.87545e-09
-3.18816e-09 -5.14681e-10 6.30232e-10
-4.25069e-11 -3.41333e-11 -3.014e-12
-3.07275e-09 -3.44754e-09 -7.14331e-09
-2.79021e-08 1.71648e-08 -6.86609e-09
1.14297e-10 6.48555e-11 -6.58979e-11
7.75357e-10 6.9192e-10 -1.32675e-09
1.09632e-08 -1.52184e-09 4.41067e-09
-5.83503e-10 -1.74106e-09 1.38347e-09
-7.48301e-09 -6.41e-09 -1.01426e-08
-1.44588e-09 1.85173e-09 1.28973e-10
5.94243e-09 2.67461e-09 -3.61774e-09
-3.06377e-11 -4.57703e-11 3.89679e-11
1.46419e-10 1.04759e-10 -1.42376e-10
5.84567e-11 -2.3579e-10 7.98432e-10
1.02366e-09 1.25562e-11 5.18202e-10
-3.9829e-10 -1.47591e-09 -2.58583e-09
3.19543e-09 7.55015e-10 7.66623e-10
-5.94796e-10 7.46714e-10 -1.62666e-09
3.57975e-11 -1.28976e-10 7.75731e-11
-1.97496e-09 -4.23893e-09 1.79417e-09
-5.46431e-10 9.41312e-10 -1.47128e-09
8.6628e-11 -9.58654e-10 -1.05779e-09
-1.76592e-10 -4.39399e-11 5.50003e-12
1.92611e-09 -1.42602e-09 9.04908e-11
1.37878e-10 1.07275e-11 6.35502e-11
-2.53064e-09 9.41796e-10 -8.43527e-10
5.60644e-10 -1.04725e-09 2.58339e-09
-1.96091e-09 -2.06065e-09 -4.63871e-09
1.96854e-11 1.36879e-09 -9.84168e-10
-1.46737e-11 -4.31883e-11 1.84622e-11
7.33682e-09 -2.33743e-10 -6.30873e-10
1.39871e-11 -5.62256e-10 -1.27875e-09
-4.49658e-09 2.56357e-09 5.0275e-10
-5.66075e-10 -2.00159e-09 -1.09159e-08
1.0063e-10 1.10112e-09 -1.45665e-09
4.7057e-11 1.50277e-11 4.38933e-12
1.10827e-09 1.04384e-09 -1.22585e-09
8.10328e-10 8.31304e-10 5.16656e-10
-1.02191e-08 -1.36518e-09 -1.13374e-09
5.60337e-11 5.76165e-12 1.52814e-11
-9.20351e-09 3.46809e-09 -1.4727e-09
-6.72336e-10 6.25353e-10 -4.48524e-09
-3.40332e-10 -8.49393e-10 1.70833e-10
-1.3909e-10 3.1242e-12 -6.7624e-10
-6.63782e-11 -7.18887e-10 1.21608e-09
-2.08243e-09 1.2282e-09 -7.1572e-10
-1.51516e-09 7.50586e-10 -8.57931e-10
-6.74687e-10 -3.64445e-10 9.11781e-10
-2.39964e-10 3.17279e-10 3.59334e-10
1.59893e-10 -2.76025e-12 1.40527e-11
1.86817e-09 3.50679e-09 -1.58311e-09
-4.11403e-09 2.711e-09 -5.21227e-09
4.06457e-10 2.13306e-10 1.03405e-11
-4.32734e-09 2.67874e-09 -3.25862e-10
-1.56828e-09 1.09488e-09 -1.54195e-09
-3.89458e-09 2.12826e-09 -4.8845e-10
6.94053e-10 4.74503e-10 1.8397e-10
-3.20346e-10 -9.87518e-10 2.78018e-10
-3.84281e-10 -1.02739e-09 2.43677e-10
1.55004e-11 -7.90133e-11 2.0271e-11
6.19578e-11 -1.7072e-09 -3.48501e-09
-2.1115e-11 -1.71156e-10 2.11264e-10
1.08894e-09 1.43092e-11 -4.97681e-10
7.98805e-10 1.04685e-09 -5.64982e-09
3.66661e-10 -1.47395e-09 1.60853e-09
-1.52594e-12 4.65698e-11 -2.95101e-10
-8.93591e-10 1.05591e-09 -3.85473e-10
2.94559e-09 -3.52652e-09 6.82288e-10
1.42205e-10 2.37941e-10 -1.14075e-09
-1.96336e-10 -9.98605e-10 8.29933e-11
-3.70762e-10 3.02993e-10 -9.39433e-11
-9.19238e-10 -9.0832e-10 -2.98087e-09
-1.93926e-09 3.11549e-09 -1.04712e-09
4.51002e-10 3.66673e-10 -7.32389e-10
7.14612e-10 4.02235e-10 4.44025e-10
-1.39344e-09 -1.38949e-09 -1.47564e-09
-1.80873e-10 2.9789e-11 1.91057e-11
-3.43996e-09 2.43672e-10 4.77312e-10
-1.78185e-09 1.17454e-09 -3.60644e-10
-8.09817e-10 1.56318e-10 -2.67201e-10
4.30225e-10 -1.25816e-09 5.68949e-09
7.10236e-10 6.67038e-10 -1.68005e-11
-5.58222e-09 6.6098e-09 -4.59272e-09
-4.82246e-09 1.43773e-09 -1.14176e-08
3.3367e-09 -2.23167e-09 3.34497e-09
-9.36039e-10 -2.22654e-09 3.21271e-10
3.00168e-09 9.81097e-11 6.39905e-10
-2.79675e-09 8.88201e-10 1.07047e-09
0.0 0.0 -1.15058e-08
-1.18197e-09 2.6541e-09 -9.30862e-10
2.83493e-09 4.04232e-09 -4.614e-09
1.3896e-10 -1.35605e-09 6.18666e-12
7.35353e-10 -3.95994e-10 7.18967e-10
-1.49132e-09 3.32422e-11 1.16438e-10
3.71892e-11 -1.43896e-10 -2.29499e-10
-2.06422e-09 -4.54972e-09 9.2645e-10
-4.3836e-09 -4.59003e-10 2.93787e-09
3.36481e-10 -4.98683e-10 -1.47482e-09
0.0 0.0 -1.15058e-08
6.064e-10 3.34566e-10 -1.95461e-10
5.63367e-10 3.46868e-10 -2.21861e-11
3.76738e-10 6.69487e-10 2.86733e-11
6.45119e-10 2.08368e-09 -2.55804e-09
1.15498e-09 1.44559e-10 1.87895e-10
1.29303e-10 -1.37508e-10 2.46377e-11
1.27472e-09 7.59646e-10 -1.17695e-09
-4.53149e-09 -6.7952e-10 -8.17845e-09
1.90396e-10 -1.46295e-09 3.88278e-10
2.79716e-11 -2.18686e-10 1.00243e-09
-1.08196e-09 -1.41731e-10 2.14153e-09
-2.57562e-09 2.70404e-09 -1.40303e-09
2.12986e-10 -3.7814e-10 1.6217e-10
3.31429e-09 6.59901e-10 -5.58725e-10
5.92459e-10 1.19214e-09 -3.87261e-10
9.10568e-10 1.99843e-09 1.69594e-09
-3.91254e-10 -6.56236e-10 -1.02776e-09
-7.20422e-10 -1.32019e-09 -1.17685e-09
-1.07083e-09 3.45459e-11 2.79442e-11
-3.37755e-09 2.72273e-09 -1.01753e-09
4.30405e-09 6.02409e-09 -2.79135e-09
-1.28127e-09 -9.31605e-10 2.57616e-10
-9.28456e-10 -3.1338e-09 2.96624e-09
9.89521e-12 2.60488e-09 -7.97831e-10
4.78836e-10 -4.79136e-10 2.04163e-10
-2.50238e-09 1.07458e-09 -4.69691e-10
-4.5846e-09 9.48625e-10 1.62348e-09
-5.17152e-10 5.98798e-10 -2.39434e-10
1.00671e-09 2.34556e-09 -3.15016e-10
5.44782e-10 1.73528e-10 -2.97274e-10
-7.11125e-10 7.00578e-10 3.64617e-10
-1.28352e-09 6.27534e-10 3.6835e-10
3.93154e-09 2.14946e-09 5.83523e-09
2.8275e-10 -2.03718e-09 9.33689e-10
-3.62153e-09 6.56723e-10 4.31299e-09
5.23642e-10 5.28878e-10 -1.5285e-10
-2.22381e-09 -7.29456e-10 3.24334e-10
-2.3069e-09 1.44023e-09 9.10646e-11
7.65257e-10 -1.51366e-10 1.83686e-10
-1.90181e-11 5.67704e-10 -5.5135e-10
-8.23359e-10 -1.15502e-09 8.91832e-10
-2.44028e-09 8.03835e-10 -7.01777e-10
-1.67991e-09 1.23052e-09 -3.91841e-10
-1.81672e-09 5.13556e-09 -2.08384e-09
-1.31837e-09 2.15533e-09 -8.44959e-10
1.124e-10 -8.77197e-10 -3.27277e-10
1.9709e-10 1.35008e-09 -2.88681e-10
-8.98884e-10 -3.98695e-09 1.82114e-09
3.8594e-10 8.42176e-10 -2.01505e-09
-1.20462e-09 3.58594e-09 -1.3185e-09
-1.32702e-09 -1.24806e-11 -1.46459e-10
-1.21734e-09 -6.07e-10 7.88299e-12
5.84803e-10 -4.88942e-11 1.17977e-11
-2.71272e-09 3.00539e-10 -1.21003e-09
-5.84162e-10 -5.33168e-10 -4.24804e-09
-2.76382e-09 1.50694e-09 -3.66083e-09
-2.67931e-09 4.67586e-10 7.77683e-10
4.15605e-10 2.28685e-09 -2.81107e-09
8.38733e-10 1.74026e-10 -1.22385e-10
-7.80072e-10 2.42297e-09 -1.50809e-09
-9.55541e-10 -8.85247e-10 1.87128e-10
-7.85266e-10 1.83234e-09 -7.22315e-10
-3.10948e-10 1.88667e-10 -7.81609e-11
-6.38716e-09 -3.00534e-09 -3.1112e-09
9.82952e-10 2.18138e-09 -1.29223e-10
1.13038e-09 6.8029e-10 -3.86536e-09
-5.18576e-10 6.25586e-11 1.45753e-10
-9.66775e-11 -1.59294e-09 1.51459e-09
-2.8769e-09 7.43762e-10 -5.72593e-10
6.63649e-10 -2.23887e-09 -2.65248e-09
-1.13414e-09 7.98328e-10 3.48554e-10
-8.35722e-10 -1.62759e-10 2.03825e-10
-4.21944e-10 5.47153e-10 -1.90026e-10
-1.93392e-09 -3.68623e-09 2.01918e-09
-5.44934e-11 -1.5635e-10 3.92912e-11
3.73764e-09 -1.6323e-09 3.97501e-09
-1.26165e-09 1.53429e-09 -5.69795e-10
-5.4577e-10 -6.10376e-10 -1.65146e-09
-1.99505e-09 1.32492e-09 -4.75857e-10
-1.52883e-09 5.72379e-10 -3.69906e-10
-8.46423e-10 1.71099e-10 -1.85264e-09
-3.33424e-09 5.4717e-09 -6.68591e-09
6.70271e-09 8.29141e-10 8.70527e-09
3.29707e-09 1.31248e-09 -2.57176e-09
-5.86928e-10 -2.74489e-10 -1.98659e-10
5.72218e-10 -1.01534e-11 -8.97503e-11
1.63608e-09 2.78347e-09 -3.0737e-09
1.79778e-09 7.57445e-11 -7.27204e-10
-1.9069e-10 7.73904e-10 -3.18627e-10
-9.15734e-10 -1.29519e-09 3.66324e-10
-2.21525e-10 5.71931e-10 -2.78793e-10
2.86503e-09 4.41052e-09 -1.07221e-09
-1.4916e-09 -1.39301e-09 7.15485e-10
-1.51522e-09 -1.06896e-09 7.25219e-10
2.64637e-09 3.97349e-09 -4.64625e-09
-1.60595e-09 -1.21741e-10 -9.27e-11
-1.16652e-09 4.40823e-10 -8.7242e-11
-4.12284e-10 -8.85414e-10 2.31079e-10
4.53965e-10 -8.44919e-10 5.08173e-09
8.62345e-11 3.07248e-10 -1.32657e-10
-1.48482e-09 4.61647e-09 -1.71971e-09
-7.10463e-11 -4.7375e-10 1.43843e-10
0.0 0.0 -1.15058e-08
-1.90082e-09 -5.79173e-09 -3.75361e-09
-1.0198e-09 -1.75833e-10 4.32143e-11
-8.97811e-09 4.93246e-09 7.53379e-09
1.38119e-09 7.70892e-09 6.83934e-09
-1.47824e-09 -3.43129e-10 8.38797e-10
-6.43819e-10 -1.73609e-09 1.16618e-09
-6.53226e-10 -1.68008e-10 5.37131e-12
-4.04513e-10 -7.03377e-10 5.34025e-13
-2.47997e-09 4.04129e-10 -1.74066e-10
-7.67032e-10 -5.47546e-10 -1.71451e-11
1.65404e-09 2.28699e-10 2.95753e-11
4.80907e-10 -6.92578e-10 3.85065e-10
5.7801e-10 6.59097e-10 -4.89933e-10
-7.26441e-09 -2.57899e-09 7.71784e-09
-9.43355e-11 -7.27138e-10 -1.76825e-10
-4.67624e-09 2.77699e-09 -9.09385e-11
4.521e-10 -4.75608e-10 -4.22253e-10
2.77682e-10 4.88175e-10 -8.7921e-11
-3.97882e-10 -4.20151e-10 4.54241e-10
-2.91563e-09 -2.39529e-10 6.25902e-11
-1.22785e-10 -6.07043e-10 -5.15717e-11
-2.71525e-09 2.55217e-09 -9.95552e-10
-3.6735e-10 -4.53867e-10 -6.71017e-11
2.38275e-09 -3.61242e-10 -2.66424e-10
-2.59717e-09 -4.66355e-12 1.40793e-09
-4.03934e-09 -1.29608e-09 9.45148e-09
5.82299e-10 -2.02214e-10 1.32513e-10
1.9718e-12 -5.44622e-10 -5.32383e-11
1.97499e-09 1.31562e-10 2.53372e-10
2.93435e-10 -7.91106e-10 -1.67701e-10
-2.22018e-09 3.97356e-10 1.5353e-10
2.4405e-12 2.96719e-12 -1.54056e-12
-1.45105e-09 1.10969e-09 2.23716e-09
-4.23136e-09 2.15177e-09 -8.84601e-10
-2.21069e-09 9.20676e-10 -1.04954e-09
-1.20027e-09 -4.54466e-10 -3.11133e-10
1.35799e-09 -3.83753e-10 -2.136e-09
-3.58575e-10 -1.73017e-10 6.59277e-11
-3.18839e-10 -4.85331e-10 7.28692e-12
-9.52646e-10 1.1991e-10 -4.03569e-10
-1.80374e-10 6.54492e-10 3.09987e-10
-2.76537e-09 2.69525e-10 2.12482e-10
-4.91118e-10 1.19156e-09 -5.56022e-09
-2.68463e-09 3.98276e-11 1.12363e-10
-2.04858e-09 -2.01434e-10 3.73668e-11
-4.68386e-09 1.62642e-10 3.23933e-10
3.3381e-10 -4.64693e-10 3.91489e-10
-5.3655e-10 -1.93148e-09 1.45852e-09
4.75013e-11 -1.61098e-10 -3.04215e-09
-2.62877e-10 1.09963e-09 6.16252e-11
-2.86751e-10 2.92518e-09 -2.43304e-09
-7.16601e-10 -2.74285e-10 -2.48349e-09
-1.17269e-09 5.97844e-09 -2.05797e-09
-8.9966e-09 7.13e-10 2.91985e-09
3.82791e-10 2.07749e-10 -4.71631e-11
-0.0004568 0.000711726 0.000357473
-2.79402e-09 6.96129e-10 7.21635e-10
1.17027e-10 8.57771e-10 -1.21043e-10
-1.50772e-09 -1.07129e-09 4.33609e-10
3.96902e-09 -2.56576e-09 -2.74151e-09
