# vtk DataFile Version 3.0
LIGGGHTS particles timestep 3400000
ASCII
DATASET POLYDATA
POINTS 293 float
0.0325125 0.0159999 0.00822041
0.0270809 0.0166895 0.0076216
0.0331101 0.0176801 0.00716751
0.0325558 0.0161295 0.00807437
0.0386582 0.0164716 0.00769378
0.0385386 0.0160884 0.00813796
0.0324257 0.0157442 0.00851544
0.039098 0.0184745 0.00695144
0.0326737 0.016539 0.00765075
0.0335454 0.0169493 0.00750948
0.0330543 0.0166631 0.00761334
0.0325964 0.0162595 0.00792794
0.0263375 0.0153958 0.00876628
0.0328319 0.0172668 0.00736153
0.0265744 0.0155386 0.00854157
0.0326349 0.0163912 0.00777983
0.0327874 0.0163 0.00788178
0.0334126 0.017446 0.00728445
0.032746 0.0161658 0.00802421
0.0332494 0.0167311 0.00759222
0.0273147 0.0168891 0.00745109
0.0386982 0.0166464 0.00760518
0.03298 0.0163438 0.00783026
0.038738 0.0168212 0.00751657
0.0328709 0.0174489 0.00728865
0.0388159 0.0171712 0.00733925
0.0390837 0.0175992 0.00718173
0.0327535 0.0168989 0.00749567
0.0329437 0.0169616 0.00747667
0.03336 0.0164325 0.00772887
0.0333216 0.0162913 0.00786512
0.0330938 0.0168433 0.00753568
0.0390545 0.0182793 0.00694714
0.0329045 0.0167816 0.00755428
0.032827 0.0164431 0.00774788
0.038619 0.0163303 0.0078298
0.0332617 0.0175634 0.00722581
0.0328993 0.016076 0.00811597
0.0331335 0.0170233 0.00745812
0.0330145 0.016483 0.0076909
0.0334388 0.0167927 0.00757368
0.0335591 0.017324 0.00734488
0.0388941 0.017536 0.00719558
0.032469 0.0158704 0.00836642
0.0330224 0.0173272 0.00733557
0.0329874 0.0179685 0.00703473
0.0329835 0.0171416 0.00739911
0.0332987 0.0177439 0.00714792
0.0263767 0.0155025 0.00860173
0.0389664 0.0170518 0.00739488
0.0326603 0.0159066 0.00831768
0.0264189 0.0156186 0.00844444
0.0325296 0.0155172 0.00875526
0.0387772 0.0169962 0.00742792
0.0334503 0.0176272 0.00720625
0.0388548 0.0173512 0.00726114
0.0332101 0.016551 0.00766983
0.0327036 0.0160355 0.008171
0.0331729 0.0172034 0.00738052
0.0329469 0.0177886 0.00711219
0.0389334 0.0177219 0.00713339
0.0327924 0.0170791 0.00741801
0.0267457 0.0168604 0.00749035
0.0334748 0.0171193 0.00743131
0.0328647 0.0166016 0.00763183
0.02629 0.0152912 0.00892994
0.0390131 0.0180937 0.00700911
0.0262765 0.0151834 0.00909787
0.0333422 0.0179223 0.00706867
0.0333616 0.0172682 0.00736052
0.038973 0.0179079 0.00707123
0.0327137 0.0167189 0.00757323
0.0334941 0.0178054 0.00712601
0.0333608 0.0188085 0.00713763
0.0265045 0.0159312 0.00821006
0.0268272 0.0162935 0.00794285
0.0280015 0.0186898 0.00697648
0.0270155 0.0172678 0.00729397
0.0268984 0.0167553 0.00757262
0.02663 0.0164006 0.00785812
0.0390051 0.0172271 0.00730614
0.0329112 0.0176385 0.00723945
0.0333994 0.0166126 0.00765128
0.0331137 0.0185433 0.00705932
0.0335992 0.0166109 0.00766112
0.0275783 0.0173316 0.00728628
0.0336672 0.0171719 0.00741686
0.0333794 0.0181024 0.00697593
0.0334029 0.018999 0.00718184
0.03324 0.0191147 0.00719195
0.0390444 0.0174132 0.00724393
0.0267828 0.0170121 0.00736454
0.0331558 0.0187338 0.00710353
0.0268594 0.0166045 0.00769812
0.033094 0.0161162 0.0080612
0.0323387 0.0154822 0.00880484
0.0271568 0.0170008 0.00736332
0.027994 0.0175359 0.00724411
0.0325731 0.0156468 0.00860918
0.0264618 0.0157749 0.00832726
0.027096 0.0176497 0.00720638
0.0265472 0.0160875 0.00809286
0.0322952 0.0153522 0.00895047
0.0276729 0.0175035 0.00724758
0.0334255 0.018297 0.00701512
0.0332767 0.018428 0.00704771
0.0267082 0.0167092 0.00761579
0.0272886 0.0177116 0.00719444
0.027269 0.0167392 0.00757543
0.0275365 0.0180515 0.00711871
0.0337539 0.0173943 0.00732274
0.0323821 0.0156113 0.00865841
0.0271387 0.0178401 0.00716273
0.0332861 0.0161555 0.00800764
0.0331691 0.0163798 0.00776479
0.0326166 0.0157763 0.00846316
0.0330289 0.0181626 0.00705934
0.0270078 0.0163993 0.00786376
0.0330582 0.0175025 0.00724342
0.0331331 0.0162465 0.00791459
0.0277424 0.0172206 0.00731408
0.0326597 0.0165582 0.00789405
0.0332349 0.018239 0.0069972
0.0267458 0.0161466 0.00805221
0.0332909 0.0169132 0.00751379
0.0265888 0.016244 0.00797552
0.0330715 0.0183529 0.0070151
0.0329405 0.016206 0.00796976
0.0335307 0.0179805 0.00703587
0.0329031 0.0165878 0.00786308
0.0266614 0.0158337 0.00828676
0.0333186 0.0186181 0.00709342
0.033467 0.0184866 0.0070658
0.0265718 0.0153271 0.00887118
0.0331466 0.0178606 0.00708955
0.0267041 0.0159901 0.00816956
0.0268608 0.0173909 0.00726346
0.0332107 0.0173856 0.00730187
0.0271398 0.0186554 0.00699308
0.0336014 0.0175101 0.00726477
0.0268197 0.0164535 0.00782303
0.0273475 0.0170605 0.00735347
0.0331979 0.0189242 0.00714774
0.0272029 0.0163623 0.00788746
0.0331903 0.0180474 0.00703337
0.0266697 0.0165574 0.00774049
0.0270977 0.0165354 0.00774795
0.0211139 0.0185376 0.00703384
0.0270556 0.0174588 0.00725017
0.0273243 0.0173421 0.00728062
0.0210517 0.0174433 0.00721535
0.027884 0.0179185 0.00715394
0.0206662 0.016518 0.007691
0.0278216 0.0176342 0.00721914
0.0335505 0.0188648 0.00716644
0.0280025 0.0172852 0.00730239
0.0333541 0.0167827 0.00775459
0.0274648 0.0185952 0.00700104
0.0328938 0.0172381 0.0075496
0.0266184 0.0156771 0.0084042
0.0277619 0.0189496 0.00691913
0.02719 0.0180003 0.00727101
0.0328575 0.0159461 0.00826223
0.0272459 0.0175211 0.0072381
0.0328141 0.0158165 0.00840828
0.0278452 0.017405 0.00727259
0.0270342 0.0162427 0.00798532
0.027512 0.0169543 0.00739394
0.0269419 0.0177733 0.00717575
0.0276859 0.0184458 0.00702911
0.0269355 0.0169086 0.00744967
0.0278452 0.0185678 0.00700282
0.0275303 0.0178568 0.00716392
0.0277858 0.016732 0.00756692
0.0275604 0.0176643 0.00720886
0.0331293 0.0168123 0.00773003
0.0269753 0.0170849 0.00736405
0.0265412 0.0161455 0.00828419
0.0330901 0.0166322 0.0078077
0.0277224 0.0178031 0.0071787
0.0277365 0.0180497 0.00712164
0.0271987 0.0171902 0.0073143
0.0335088 0.0186756 0.0071163
0.027481 0.016801 0.00751866
0.032746 0.0166873 0.00776805
0.0276009 0.0166758 0.00761837
0.027742 0.0191519 0.0068832
0.0265324 0.0154331 0.00870626
0.0214557 0.0184689 0.00705499
0.0268998 0.0175821 0.0072196
0.0269847 0.017964 0.00713206
0.0276928 0.0170318 0.00735727
0.0336164 0.0183575 0.00703418
0.0329354 0.016749 0.00774918
0.0270174 0.0181012 0.00727381
0.0327827 0.0170642 0.00761721
0.0273294 0.0179356 0.007143
0.0273811 0.0162897 0.00794216
0.0275281 0.0171429 0.00732941
0.0210705 0.0183443 0.00706569
0.0331426 0.0173711 0.00748934
0.0278187 0.0183005 0.00706449
0.0276257 0.018249 0.00707402
0.0329747 0.0169291 0.00767155
0.0278155 0.0187608 0.00695765
0.0206261 0.0163551 0.00779986
0.027445 0.0175029 0.00724483
0.0324861 0.0153876 0.00890129
0.0279764 0.018421 0.00703852
0.0276592 0.0186388 0.00698399
0.0271224 0.0168492 0.00748907
0.0208941 0.016737 0.00754984
0.0327853 0.0168676 0.00769062
0.0272858 0.0165851 0.00770177
0.0268218 0.0171997 0.00730732
0.0385819 0.0162091 0.00798443
0.0205851 0.0161923 0.0079086
0.0262057 0.0150921 0.0092611
0.0273926 0.0189705 0.00692812
0.0261648 0.0150095 0.0094386
0.0272638 0.0185005 0.00701808
0.0210108 0.0172567 0.00727459
0.0266642 0.0165864 0.00793829
0.0272247 0.0161956 0.00802394
0.033246 0.0160254 0.00815413
0.0279095 0.0192589 0.00686014
0.0275907 0.018839 0.00694501
0.0212211 0.0182153 0.00709187
0.0207436 0.0168513 0.00748427
0.0208606 0.0173778 0.00722179
0.0210923 0.0176367 0.00718461
0.0213076 0.0186006 0.0070284
0.0209326 0.0169032 0.00744465
0.0207048 0.0166811 0.00758194
0.0270854 0.0184128 0.00703991
0.0209719 0.0170799 0.00735963
0.0326164 0.0164257 0.00803744
0.021178 0.0180226 0.00712389
0.026708 0.0164206 0.00804117
0.0213692 0.0180835 0.00711846
0.0211574 0.0187324 0.00702076
0.0274286 0.0182161 0.00708333
0.0214121 0.0182763 0.0070867
0.0269372 0.0161022 0.00808949
0.0216469 0.018529 0.00704997
0.0272474 0.0182973 0.00705958
0.0274336 0.0191685 0.00688854
0.0212432 0.0191139 0.00693892
0.0336415 0.0167904 0.00758388
0.0272387 0.0190966 0.00690794
0.0274913 0.0184003 0.00703721
0.021264 0.018408 0.00706011
0.028058 0.0193838 0.00690818
0.0212 0.0189213 0.00697065
0.027676 0.0168626 0.00746256
0.0279095 0.0195124 0.006951
0.0273706 0.0164441 0.00781544
0.0275815 0.0190354 0.00690874
0.0272755 0.0192896 0.00687088
0.0214994 0.0186614 0.00702329
0.0213519 0.0187938 0.00699661
0.0271405 0.0185569 0.00716715
0.0213952 0.0189865 0.00696487
0.0277616 0.0193867 0.0069027
0.015162 0.0187508 0.00703213
0.0275941 0.0192849 0.00686258
0.0279066 0.0171099 0.00734184
0.0211348 0.0178298 0.0071545
0.0208992 0.0175713 0.00718859
0.0275336 0.0165313 0.00773915
0.0209405 0.0177646 0.0071584
0.0210272 0.0181514 0.00709746
0.0274074 0.0187867 0.00700551
0.0215443 0.0188558 0.0069913
0.027604 0.0195057 0.00694192
0.0322519 0.0152119 0.00908629
0.0275672 0.019189 0.00703599
0.0212415 0.0175062 0.00721115
0.0271277 0.0160555 0.00812858
0.0274363 0.0194044 0.00690192
0.0266411 0.0162731 0.00816637
0.0335753 0.0181684 0.00698365
0.0280943 0.0191827 0.0068655
0.0275524 0.0163772 0.00786535
0.0271828 0.0188472 0.00695607
0.0278563 0.0169268 0.00740465
0.0207825 0.0170243 0.00739186
0.020984 0.0179585 0.0071282
0.03221 0.0150711 0.00922197
0.0279251 0.0190622 0.00689313
0.027031 0.0181705 0.00708668
0.027219 0.018104 0.00710252
0.0208214 0.0172011 0.00730683

VERTICES 293 586
1 0
1 1
1 2
1 3
1 4
1 5
1 6
1 7
1 8
1 9
1 10
1 11
1 12
1 13
1 14
1 15
1 16
1 17
1 18
1 19
1 20
1 21
1 22
1 23
1 24
1 25
1 26
1 27
1 28
1 29
1 30
1 31
1 32
1 33
1 34
1 35
1 36
1 37
1 38
1 39
1 40
1 41
1 42
1 43
1 44
1 45
1 46
1 47
1 48
1 49
1 50
1 51
1 52
1 53
1 54
1 55
1 56
1 57
1 58
1 59
1 60
1 61
1 62
1 63
1 64
1 65
1 66
1 67
1 68
1 69
1 70
1 71
1 72
1 73
1 74
1 75
1 76
1 77
1 78
1 79
1 80
1 81
1 82
1 83
1 84
1 85
1 86
1 87
1 88
1 89
1 90
1 91
1 92
1 93
1 94
1 95
1 96
1 97
1 98
1 99
1 100
1 101
1 102
1 103
1 104
1 105
1 106
1 107
1 108
1 109
1 110
1 111
1 112
1 113
1 114
1 115
1 116
1 117
1 118
1 119
1 120
1 121
1 122
1 123
1 124
1 125
1 126
1 127
1 128
1 129
1 130
1 131
1 132
1 133
1 134
1 135
1 136
1 137
1 138
1 139
1 140
1 141
1 142
1 143
1 144
1 145
1 146
1 147
1 148
1 149
1 150
1 151
1 152
1 153
1 154
1 155
1 156
1 157
1 158
1 159
1 160
1 161
1 162
1 163
1 164
1 165
1 166
1 167
1 168
1 169
1 170
1 171
1 172
1 173
1 174
1 175
1 176
1 177
1 178
1 179
1 180
1 181
1 182
1 183
1 184
1 185
1 186
1 187
1 188
1 189
1 190
1 191
1 192
1 193
1 194
1 195
1 196
1 197
1 198
1 199
1 200
1 201
1 202
1 203
1 204
1 205
1 206
1 207
1 208
1 209
1 210
1 211
1 212
1 213
1 214
1 215
1 216
1 217
1 218
1 219
1 220
1 221
1 222
1 223
1 224
1 225
1 226
1 227
1 228
1 229
1 230
1 231
1 232
1 233
1 234
1 235
1 236
1 237
1 238
1 239
1 240
1 241
1 242
1 243
1 244
1 245
1 246
1 247
1 248
1 249
1 250
1 251
1 252
1 253
1 254
1 255
1 256
1 257
1 258
1 259
1 260
1 261
1 262
1 263
1 264
1 265
1 266
1 267
1 268
1 269
1 270
1 271
1 272
1 273
1 274
1 275
1 276
1 277
1 278
1 279
1 280
1 281
1 282
1 283
1 284
1 285
1 286
1 287
1 288
1 289
1 290
1 291
1 292

POINT_DATA 293
SCALARS id int 1
LOOKUP_TABLE default
1
3
4
5
6
7
8
9
10
11
12
13
14
15
16
17
19
20
21
22
23
24
25
26
27
28
29
30
31
32
33
34
35
36
37
38
39
40
41
42
43
44
45
46
47
48
49
50
51
52
53
54
55
56
57
58
59
60
61
62
63
64
65
66
67
68
69
70
71
72
73
74
75
76
77
78
79
80
81
82
83
85
86
87
88
89
90
91
92
93
94
95
96
97
98
99
100
101
102
103
104
105
106
107
108
109
110
111
112
113
114
115
116
117
118
119
120
121
122
123
124
125
126
127
128
129
130
131
132
133
134
135
136
137
138
139
140
142
143
144
145
146
147
148
149
150
151
152
153
154
155
156
157
158
159
160
161
162
164
165
166
167
168
169
170
171
172
173
174
175
176
177
178
179
180
181
182
183
184
185
186
187
188
189
190
191
192
193
194
195
196
197
198
200
201
202
203
204
205
206
207
208
209
210
211
212
213
214
215
216
217
218
219
220
221
222
223
224
225
226
227
228
229
230
231
232
233
234
235
236
237
238
239
240
241
242
243
245
246
247
248
249
250
251
252
253
254
255
256
257
258
259
260
261
262
263
264
265
266
267
268
269
270
271
272
273
274
275
276
277
278
279
280
281
282
283
284
285
286
287
288
289
290
291
292
293
294
295
296
297
298
299
300

SCALARS type int 1
LOOKUP_TABLE default
1
1
1
1
1
1
1
1
1
1
1
1
1
1
1
1
1
1
1
1
1
1
1
1
1
1
1
1
1
1
1
1
1
1
1
1
1
1
1
1
1
1
1
1
1
1
1
1
1
1
1
1
1
1
1
1
1
1
1
1
1
1
1
1
1
1
1
1
1
1
1
1
1
1
1
1
1
1
1
1
1
1
1
1
1
1
1
1
1
1
1
1
1
1
1
1
1
1
1
1
1
1
1
1
1
1
1
1
1
1
1
1
1
1
1
1
1
1
1
1
1
1
1
1
1
1
1
1
1
1
1
1
1
1
1
1
1
1
1
1
1
1
1
1
1
1
1
1
1
1
1
1
1
1
1
1
1
1
1
1
1
1
1
1
1
1
1
1
1
1
1
1
1
1
1
1
1
1
1
1
1
1
1
1
1
1
1
1
1
1
1
1
1
1
1
1
1
1
1
1
1
1
1
1
1
1
1
1
1
1
1
1
1
1
1
1
1
1
1
1
1
1
1
1
1
1
1
1
1
1
1
1
1
1
1
1
1
1
1
1
1
1
1
1
1
1
1
1
1
1
1
1
1
1
1
1
1
1
1
1
1
1
1
1
1
1
1
1
1
1
1
1
1
1
1
1
1
1
1
1
1
1
1
1
1
1
1
1
1
1
1
1
1

SCALARS radius float 1
LOOKUP_TABLE default
0.0001
0.0001
0.0001
0.0001
0.0001
0.0001
0.0001
0.0001
0.0001
0.0001
0.0001
0.0001
0.0001
0.0001
0.0001
0.0001
0.0001
0.0001
0.0001
0.0001
0.0001
0.0001
0.0001
0.0001
0.0001
0.0001
0.0001
0.0001
0.0001
0.0001
0.0001
0.0001
0.0001
0.0001
0.0001
0.0001
0.0001
0.0001
0.0001
0.0001
0.0001
0.0001
0.0001
0.0001
0.0001
0.0001
0.0001
0.0001
0.0001
0.0001
0.0001
0.0001
0.0001
0.0001
0.0001
0.0001
0.0001
0.0001
0.0001
0.0001
0.0001
0.0001
0.0001
0.0001
0.0001
0.0001
0.0001
0.0001
0.0001
0.0001
0.0001
0.0001
0.0001
0.0001
0.0001
0.0001
0.0001
0.0001
0.0001
0.0001
0.0001
0.0001
0.0001
0.0001
0.0001
0.0001
0.0001
0.0001
0.0001
0.0001
0.0001
0.0001
0.0001
0.0001
0.0001
0.0001
0.0001
0.0001
0.0001
0.0001
0.0001
0.0001
0.0001
0.0001
0.0001
0.0001
0.0001
0.0001
0.0001
0.0001
0.0001
0.0001
0.0001
0.0001
0.0001
0.0001
0.0001
0.0001
0.0001
0.0001
0.0001
0.0001
0.0001
0.0001
0.0001
0.0001
0.0001
0.0001
0.0001
0.0001
0.0001
0.0001
0.0001
0.0001
0.0001
0.0001
0.0001
0.0001
0.0001
0.0001
0.0001
0.0001
0.0001
0.0001
0.0001
0.0001
0.0001
0.0001
0.0001
0.0001
0.0001
0.0001
0.0001
0.0001
0.0001
0.0001
0.0001
0.0001
0.0001
0.0001
0.0001
0.0001
0.0001
0.0001
0.0001
0.0001
0.0001
0.0001
0.0001
0.0001
0.0001
0.0001
0.0001
0.0001
0.0001
0.0001
0.0001
0.0001
0.0001
0.0001
0.0001
0.0001
0.0001
0.0001
0.0001
0.0001
0.0001
0.0001
0.0001
0.0001
0.0001
0.0001
0.0001
0.0001
0.0001
0.0001
0.0001
0.0001
0.0001
0.0001
0.0001
0.0001
0.0001
0.0001
0.0001
0.0001
0.0001
0.0001
0.0001
0.0001
0.0001
0.0001
0.0001
0.0001
0.0001
0.0001
0.0001
0.0001
0.0001
0.0001
0.0001
0.0001
0.0001
0.0001
0.0001
0.0001
0.0001
0.0001
0.0001
0.0001
0.0001
0.0001
0.0001
0.0001
0.0001
0.0001
0.0001
0.0001
0.0001
0.0001
0.0001
0.0001
0.0001
0.0001
0.0001
0.0001
0.0001
0.0001
0.0001
0.0001
0.0001
0.0001
0.0001
0.0001
0.0001
0.0001
0.0001
0.0001
0.0001
0.0001
0.0001
0.0001
0.0001
0.0001
0.0001
0.0001
0.0001
0.0001
0.0001
0.0001
0.0001
0.0001
0.0001
0.0001
0.0001
0.0001
0.0001
0.0001
0.0001
0.0001
0.0001
0.0001
0.0001
0.0001
0.0001
0.0001
0.0001
0.0001
0.0001
0.0001
0.0001
0.0001
0.0001

SCALARS mass float 1
LOOKUP_TABLE default
1.17286e-09
1.17286e-09
1.17286e-09
1.17286e-09
1.17286e-09
1.17286e-09
1.17286e-09
1.17286e-09
1.17286e-09
1.17286e-09
1.17286e-09
1.17286e-09
1.17286e-09
1.17286e-09
1.17286e-09
1.17286e-09
1.17286e-09
1.17286e-09
1.17286e-09
1.17286e-09
1.17286e-09
1.17286e-09
1.17286e-09
1.17286e-09
1.17286e-09
1.17286e-09
1.17286e-09
1.17286e-09
1.17286e-09
1.17286e-09
1.17286e-09
1.17286e-09
1.17286e-09
1.17286e-09
1.17286e-09
1.17286e-09
1.17286e-09
1.17286e-09
1.17286e-09
1.17286e-09
1.17286e-09
1.17286e-09
1.17286e-09
1.17286e-09
1.17286e-09
1.17286e-09
1.17286e-09
1.17286e-09
1.17286e-09
1.17286e-09
1.17286e-09
1.17286e-09
1.17286e-09
1.17286e-09
1.17286e-09
1.17286e-09
1.17286e-09
1.17286e-09
1.17286e-09
1.17286e-09
1.17286e-09
1.17286e-09
1.17286e-09
1.17286e-09
1.17286e-09
1.17286e-09
1.17286e-09
1.17286e-09
1.17286e-09
1.17286e-09
1.17286e-09
1.17286e-09
1.17286e-09
1.17286e-09
1.17286e-09
1.17286e-09
1.17286e-09
1.17286e-09
1.17286e-09
1.17286e-09
1.17286e-09
1.17286e-09
1.17286e-09
1.17286e-09
1.17286e-09
1.17286e-09
1.17286e-09
1.17286e-09
1.17286e-09
1.17286e-09
1.17286e-09
1.17286e-09
1.17286e-09
1.17286e-09
1.17286e-09
1.17286e-09
1.17286e-09
1.17286e-09
1.17286e-09
1.17286e-09
1.17286e-09
1.17286e-09
1.17286e-09
1.17286e-09
1.17286e-09
1.17286e-09
1.17286e-09
1.17286e-09
1.17286e-09
1.17286e-09
1.17286e-09
1.17286e-09
1.17286e-09
1.17286e-09
1.17286e-09
1.17286e-09
1.17286e-09
1.17286e-09
1.17286e-09
1.17286e-09
1.17286e-09
1.17286e-09
1.17286e-09
1.17286e-09
1.17286e-09
1.17286e-09
1.17286e-09
1.17286e-09
1.17286e-09
1.17286e-09
1.17286e-09
1.17286e-09
1.17286e-09
1.17286e-09
1.17286e-09
1.17286e-09
1.17286e-09
1.17286e-09
1.17286e-09
1.17286e-09
1.17286e-09
1.17286e-09
1.17286e-09
1.17286e-09
1.17286e-09
1.17286e-09
1.17286e-09
1.17286e-09
1.17286e-09
1.17286e-09
1.17286e-09
1.17286e-09
1.17286e-09
1.17286e-09
1.17286e-09
1.17286e-09
1.17286e-09
1.17286e-09
1.17286e-09
1.17286e-09
1.17286e-09
1.17286e-09
1.17286e-09
1.17286e-09
1.17286e-09
1.17286e-09
1.17286e-09
1.17286e-09
1.17286e-09
1.17286e-09
1.17286e-09
1.17286e-09
1.17286e-09
1.17286e-09
1.17286e-09
1.17286e-09
1.17286e-09
1.17286e-09
1.17286e-09
1.17286e-09
1.17286e-09
1.17286e-09
1.17286e-09
1.17286e-09
1.17286e-09
1.17286e-09
1.17286e-09
1.17286e-09
1.17286e-09
1.17286e-09
1.17286e-09
1.17286e-09
1.17286e-09
1.17286e-09
1.17286e-09
1.17286e-09
1.17286e-09
1.17286e-09
1.17286e-09
1.17286e-09
1.17286e-09
1.17286e-09
1.17286e-09
1.17286e-09
1.17286e-09
1.17286e-09
1.17286e-09
1.17286e-09
1.17286e-09
1.17286e-09
1.17286e-09
1.17286e-09
1.17286e-09
1.17286e-09
1.17286e-09
1.17286e-09
1.17286e-09
1.17286e-09
1.17286e-09
1.17286e-09
1.17286e-09
1.17286e-09
1.17286e-09
1.17286e-09
1.17286e-09
1.17286e-09
1.17286e-09
1.17286e-09
1.17286e-09
1.17286e-09
1.17286e-09
1.17286e-09
1.17286e-09
1.17286e-09
1.17286e-09
1.17286e-09
1.17286e-09
1.17286e-09
1.17286e-09
1.17286e-09
1.17286e-09
1.17286e-09
1.17286e-09
1.17286e-09
1.17286e-09
1.17286e-09
1.17286e-09
1.17286e-09
1.17286e-09
1.17286e-09
1.17286e-09
1.17286e-09
1.17286e-09
1.17286e-09
1.17286e-09
1.17286e-09
1.17286e-09
1.17286e-09
1.17286e-09
1.17286e-09
1.17286e-09
1.17286e-09
1.17286e-09
1.17286e-09
1.17286e-09
1.17286e-09
1.17286e-09
1.17286e-09
1.17286e-09
1.17286e-09
1.17286e-09
1.17286e-09
1.17286e-09
1.17286e-09
1.17286e-09
1.17286e-09
1.17286e-09
1.17286e-09
1.17286e-09
1.17286e-09
1.17286e-09
1.17286e-09
1.17286e-09
1.17286e-09
1.17286e-09
1.17286e-09
1.17286e-09
1.17286e-09
1.17286e-09
1.17286e-09
1.17286e-09
1.17286e-09
1.17286e-09

VECTORS velocity float
0.00597261 -0.000500177 0.000246289
0.00553769 -0.000314331 0.000114572
0.00544898 -0.000194089 0.000345312
0.00595894 -0.000498632 0.000239809
0.00580579 0.000525911 -0.000401239
0.0061717 0.000455899 -0.000261073
0.00593299 -0.000504574 0.000251819
0.00629963 0.000599809 -0.000269895
0.00551063 -0.000296012 0.000385548
0.00543626 -8.34461e-05 0.000283195
0.00543643 -0.000148801 0.000317584
0.00558384 -0.000422836 0.00018332
0.00606546 -0.000286799 0.000389324
0.00536323 -0.000563137 -0.000363208
0.00613535 -0.000311069 0.000435244
0.00567463 -0.000477187 0.00023228
0.00557838 -0.000405955 0.000188821
0.00534255 -0.000136904 0.000302707
0.0059282 -0.000477421 0.000215805
0.00542653 -0.000155503 0.000326236
0.00549607 -0.000294857 8.19952e-05
0.00571042 0.000531167 -0.000422757
0.00555815 -0.000245974 0.000308081
0.0056481 0.000532576 -0.000421242
0.00540771 -0.000270735 0.000354007
0.00561707 0.000522664 -0.000463868
0.00569368 0.000699205 -5.58305e-06
0.00539248 -0.000302757 0.000381823
0.00536654 -0.000213204 0.000327252
0.00545932 -7.06546e-05 0.000290659
0.00552808 -0.000149207 0.00020615
0.00541451 -0.000192266 0.000329552
0.00637868 0.000556448 0.00011037
0.00540808 -0.000214436 0.000326499
0.00554177 -0.000344774 0.000236539
0.0058812 0.000528234 -0.000366138
0.0053476 -0.000204078 0.000330815
0.00593643 -0.000459604 0.00019221
0.00539935 -0.000201319 0.000331459
0.00554802 -0.000202046 0.000348147
0.00545764 -0.000105465 0.000291296
0.00537859 -7.73685e-05 0.000278153
0.00571097 0.00069965 1.74622e-06
0.00595073 -0.000501542 0.000248308
0.00540922 -0.000242833 0.000342562
0.00565334 -0.000183366 0.000347535
0.00539294 -0.000225847 0.000337297
0.00523611 -0.00015465 0.000315147
0.00610962 -0.000304754 0.000404012
0.00556936 0.00055592 -0.000432143
0.00595865 -0.000656568 6.34283e-05
0.00612905 -0.00033551 0.000399297
0.00592109 -0.00051068 0.000259714
0.00559685 0.000531139 -0.00041843
0.00530669 -0.000116549 0.000295445
0.00568369 0.000612592 -0.000223141
0.00542713 -0.000140756 0.000305404
0.0059791 -0.000478199 0.000222751
0.00541461 -0.000223752 0.00034084
0.00568115 -0.000211619 0.000364073
0.00570258 0.000693893 -8.30185e-06
0.00537095 -0.000332063 0.000378558
0.00546741 -0.00016813 -1.51707e-05
0.00542968 -9.33733e-05 0.000288726
0.00552213 -0.000245065 0.000361742
0.0060262 -0.000286299 0.00036016
0.00625388 0.000571924 7.4869e-05
0.00599999 -0.000314508 0.000326045
0.00591479 -0.000382452 0.000110839
0.00539435 -0.0001408 0.00030568
0.00592825 0.000643918 2.53389e-05
0.00550098 -0.000303654 0.000380613
0.00583247 -0.000413304 0.000113606
0.00584237 -0.000320605 0.000456247
0.00607357 -0.000328524 0.000370562
0.00557869 -0.000251853 0.000288105
0.00580927 0.000163399 2.81315e-05
0.00547212 -0.000300665 0.000133225
0.00552912 -0.000330322 0.000128654
0.00563934 -0.000267408 0.000309089
0.00545644 0.000464108 5.90981e-05
0.00579471 -0.000291633 0.000387743
0.00544838 -8.46344e-05 0.000291595
0.00603923 -0.000290366 0.00047082
0.00547387 -7.01409e-05 0.00028008
0.00582071 -0.000370366 0.000160722
0.00541795 -5.59239e-05 0.000271506
0.00596238 -0.000382116 0.000103011
0.00580983 -0.000284225 0.000456667
0.0058074 -0.000239412 0.000464236
0.00569304 0.000671084 1.47902e-06
0.00551559 -0.000270028 7.25361e-05
0.00595617 -0.00026009 0.000467231
0.00562896 -0.000298401 0.000218645
0.00566183 -0.000354028 0.000132681
0.00591708 -0.000505265 0.000260556
0.00544857 -0.000308863 9.50586e-05
0.00600381 -0.000522991 0.000197376
0.00592534 -0.000510584 0.000259817
0.00612718 -0.000341143 0.000383109
0.00575143 -0.000368392 0.000154573
0.00599028 -0.000316253 0.000357962
0.00591174 -0.000502327 0.000259172
0.00597526 -0.000429865 0.000173947
0.00603633 -0.000408671 -9.28893e-07
0.00604697 -0.000355817 0.000288998
0.00555129 -0.000150656 -2.734e-05
0.00592119 -0.000393468 0.000166766
0.00553515 -0.000300282 0.000103964
0.00597885 -0.00043267 0.000171698
0.00558731 0.00014478 0.000189595
0.00592636 -0.000507828 0.00025725
0.00588335 -0.000377255 0.000158589
0.00568028 -0.000306592 6.76897e-05
0.00558414 -0.000320607 6.15486e-05
0.00594052 -0.000510118 0.000258449
0.00595185 -0.000309181 0.00042214
0.0056327 -0.0002525 0.000272912
0.0053842 -0.000200221 0.000335043
0.00556945 -0.000259712 0.000230796
0.00573542 -0.000503933 0.000193444
0.0055099 -0.000448764 0.000195584
0.00600723 -0.000330823 0.000226786
0.00573585 -0.000242809 0.000298046
0.00543141 -0.000155263 0.000314247
0.00569742 -0.000273109 0.000317518
0.00604755 -0.000307736 0.000474293
0.00560319 -0.000377678 0.000179331
0.00591171 -0.000422858 0.000117296
0.00533346 -0.000197074 0.000192945
0.00610417 -0.000284891 0.000336835
0.00593215 -0.00035102 0.000470464
0.00601995 -0.000197888 4.25141e-05
0.00600268 -0.000329516 0.000456802
0.00558954 -0.000227144 0.000346188
0.00603252 -0.000276733 0.000328906
0.00549398 -0.000247636 0.000127113
0.00537279 -0.000195729 0.000330626
0.00601227 -0.000638208 -6.2488e-05
0.00540721 -3.26503e-05 0.000258037
0.00561276 -0.000269027 0.000286884
0.00543512 -0.000251975 0.000109728
0.0058567 -0.000246195 0.000464701
0.00566488 -0.000263414 0.000178631
0.00593855 -0.000323411 0.000196743
0.0056566 -0.000274835 0.000324829
0.00556538 -0.00031462 0.000153266
0.00579329 -0.00133839 0.000380052
0.00555457 -0.000325645 0.00014365
0.00554686 -0.000423304 0.000167464
0.00544873 -0.00127173 0.00039719
0.00598834 -0.000507785 0.000193657
0.00547134 -0.00101931 0.000851355
0.00602364 -0.000462184 0.000182851
0.00584521 -0.000327621 0.000457333
0.00561098 -0.000834636 0.000264758
0.00546409 -6.77168e-05 0.00029779
0.006085 -0.000393004 0.000153658
0.00502492 0.000271486 -0.000227104
0.00613782 -0.000343092 0.000377404
0.00563588 -0.000107487 -0.000123731
0.00579312 -0.000408369 0.00020017
0.00598932 -0.000459554 0.00020187
0.00561735 -0.000424923 0.000171162
0.00600058 -0.000463038 0.000204247
0.00584687 -0.000572892 0.000205706
0.00570613 -0.000253679 0.000318695
0.00537477 -0.000343504 0.000145372
0.0058362 -0.000351529 0.000153558
0.00583872 -0.000275109 0.000139888
0.00548191 -0.00031301 9.7521e-05
0.0060526 -0.000119484 0.000106798
0.00600587 -0.000429976 0.000175766
0.00573813 -0.000228842 3.03551e-05
0.00598528 -0.000424417 0.00017511
0.00536833 -0.000191343 0.000323269
0.00547295 -0.000303174 0.000123865
0.006031 -0.00030756 0.000355351
0.00536706 -0.000196984 0.00028115
0.0060132 -0.000455744 0.00018123
0.00603622 -0.000408844 0.000168813
0.00544447 -0.000326708 0.000129749
0.00595544 -0.000189821 2.62274e-05
0.00540105 -0.000399342 0.000174412
0.00548712 -0.000282435 0.000368448
0.00573027 -0.000258054 4.99421e-05
0.00539656 -0.000122974 3.56377e-06
0.00608135 -0.000318199 0.000436062
0.00576603 -0.00137507 0.000394264
0.00548754 -0.000224947 0.00012166
0.00591256 -0.000327308 0.000150463
0.00544104 -0.00049109 6.68805e-05
0.0057991 -0.000470429 -2.4931e-05
0.00540932 -0.000151516 0.000321714
0.00590012 -0.000198737 2.51179e-05
0.00534776 -0.00021497 0.000372264
0.00580834 -0.000428079 0.000187277
0.00568578 -0.000314517 0.000123586
0.00551721 -0.000325348 0.00015341
0.00574892 -0.00139748 0.000396257
0.00537285 -0.00019849 0.000333814
0.00587178 -0.000271248 0.000146818
0.00587018 -0.000384653 0.000175193
0.00537053 -0.000207263 0.000317864
0.00579951 7.90279e-05 3.29306e-05
0.00554374 -0.00103992 0.000869713
0.00562536 -0.000117016 9.73248e-05
0.00591577 -0.000508858 0.000256683
0.00603238 -0.00023761 0.000130961
0.00606339 -0.000196534 0.000128072
0.00548104 -0.000311423 9.40584e-05
0.00535204 -0.000876163 0.00075252
0.0054195 -0.00025865 0.00038512
0.00555312 -0.000298348 0.00010311
0.00551607 -0.000283265 0.000130922
0.00620799 0.00047892 -0.000284156
0.00550208 -0.00104547 0.00087115
0.00595952 9.76577e-05 0.000526067
0.00631255 -0.000365505 -8.80027e-05
0.00547401 0.000122795 0.000428047
0.00595633 -0.000686497 -5.28553e-05
0.0053565 -0.00124127 0.000420881
0.00564543 -0.000239573 0.00032296
0.0057011 -0.00033508 0.000229232
0.00570141 -0.00034373 3.46272e-05
0.00517062 0.00020556 0.000180031
0.00624473 -0.000385848 -0.000117208
0.00575699 -0.00135769 0.000389121
0.00526161 -0.00117263 0.000456339
0.00536952 -0.00120504 0.000404639
0.00554747 -0.00129725 0.000393228
0.00580772 -0.0013455 0.000395943
0.00527076 -0.0012261 0.000420219
0.00539681 -0.000994974 0.000837873
0.00590785 -0.000660194 -5.16472e-05
0.00530403 -0.00122995 0.00042
0.00545674 -0.000410587 0.000196441
0.00574709 -0.00135368 0.000404407
0.0056261 -0.000254882 0.00030208
0.00572465 -0.00137828 0.000392469
0.00581338 -0.00133192 0.000357828
0.00587587 -0.000509495 0.000191509
0.00575192 -0.00138056 0.00039403
0.0057117 -0.000271571 0.000319235
0.00578335 -0.00137774 0.000394801
0.00586555 -0.00058467 0.000100887
0.00547534 -0.000558746 -8.25463e-05
0.0058793 -0.00132388 0.000388251
0.00543679 -6.16232e-05 0.000275051
0.00602878 -0.000774612 -6.65299e-05
0.00590886 -0.000466045 0.000193786
0.00577977 -0.00135152 0.000391539
0.0048817 0.000518184 0.000304673
0.00585003 -0.00132239 0.000382995
0.00525457 -0.00043131 0.000213834
0.0045297 0.000449926 0.000254632
0.00567944 -0.000306017 0.000109112
0.00554916 -0.000393805 -0.000100384
0.0055184 -0.000712931 -5.56004e-05
0.00579626 -0.00137277 0.00039319
0.00582775 -0.00133889 0.000387729
0.00594176 -0.000671982 -5.77902e-05
0.00586677 -0.00134074 0.000390365
0.00485689 0.000121226 0.000152193
0.00483425 -0.00568494 -0.000711408
0.00522811 -0.000358574 -1.77679e-05
0.00558119 -0.000705353 0.000229106
0.00567029 -0.00132881 0.000413415
0.00530736 -0.00121112 0.00038328
0.00566573 -0.000280203 6.5423e-05
0.00570355 -0.00128298 0.000408274
0.00572485 -0.00139886 0.000396224
0.00627319 -0.000301111 5.26926e-05
0.00583351 -0.00137525 0.000395394
0.00511705 6.98249e-05 0.000137691
0.00528895 -0.000134194 0.00043125
0.0051968 -0.000492802 -6.36343e-05
0.00548326 -0.00136046 0.000415119
0.00569129 -0.000306046 0.000356006
0.00525024 -0.000277748 4.49468e-05
0.00573181 -0.00025682 0.000306873
0.00593967 -0.000487142 -2.51108e-05
0.00530163 0.000510237 -0.00027121
0.0056119 -0.000322168 9.94661e-05
0.00604789 -0.000626997 -6.87266e-05
0.00532292 -0.000590521 0.000351511
0.00529397 -0.00120176 0.000401516
0.00572151 -0.00128042 0.000408496
0.00549924 -0.000154746 0.000465427
0.00528234 0.00015476 -0.000198526
0.00588908 -0.000546472 -5.56472e-05
0.00582334 -0.000513589 0.000176761
0.00534348 -0.00120567 0.000407354

VECTORS force float
8.38257e-11 -9.21644e-11 5.09663e-12
9.04637e-10 -3.16905e-10 1.16436e-10
5.77067e-09 -1.02411e-10 1.44556e-10
-8.03012e-10 -5.90164e-10 2.80201e-10
1.29724e-09 -6.35181e-10 -1.64663e-09
3.57856e-10 5.86076e-10 -7.50642e-10
-1.33746e-10 4.28357e-10 -5.13389e-10
-3.6857e-09 -2.29927e-09 3.25789e-09
8.11191e-13 -1.03191e-09 5.79369e-10
1.20716e-09 -1.09554e-10 -5.11059e-11
4.90579e-10 1.32489e-09 -7.21456e-10
-3.07011e-10 -7.50756e-10 8.94062e-10
-1.36264e-10 -2.71611e-10 6.51907e-10
3.62205e-10 2.7538e-09 4.70107e-09
1.13696e-09 3.32908e-10 -1.73171e-10
-2.5438e-10 -9.35152e-10 7.82747e-10
-1.30959e-09 6.0095e-10 -3.18726e-10
2.27021e-09 -2.47754e-09 1.16618e-09
-1.76262e-09 4.35531e-10 1.74893e-10
6.30223e-10 -1.0072e-09 7.11115e-10
1.04651e-09 4.13209e-10 1.42808e-09
2.94895e-10 -9.05481e-10 -1.99465e-10
-1.3638e-09 -5.95134e-10 -3.84449e-10
9.86667e-12 -1.35154e-09 6.11783e-10
1.97616e-10 2.75088e-09 7.53296e-10
1.5142e-09 -3.78398e-10 1.39228e-09
-8.68125e-10 -2.70119e-10 -1.32315e-10
-8.46031e-10 -1.19516e-09 8.07926e-12
-2.81138e-10 -3.93563e-10 -1.12898e-10
4.80828e-09 -6.13481e-10 -9.63343e-10
1.24842e-09 -8.97385e-10 -1.27508e-10
6.8369e-10 -6.80508e-10 1.31909e-10
5.94486e-09 2.47738e-09 -3.08195e-09
2.47601e-10 6.31699e-11 -7.96653e-10
1.14961e-10 7.17092e-10 -1.61401e-09
-1.29873e-09 2.46448e-10 -1.67918e-09
5.17275e-09 -1.9479e-09 9.62864e-10
-2.99541e-09 -8.63912e-11 -6.31974e-10
-5.80543e-10 -3.73111e-10 2.27047e-10
1.22084e-09 1.02212e-10 1.88966e-10
2.20943e-10 1.00311e-09 -2.33498e-10
1.3012e-09 -4.76093e-10 2.81105e-10
4.44851e-10 -1.18303e-09 6.006e-10
1.52601e-10 3.78911e-10 -4.41861e-10
4.33344e-10 1.174e-09 1.18315e-09
-2.71547e-09 -2.6424e-10 -4.52892e-10
-1.10998e-09 -1.01842e-10 3.84212e-10
-5.30758e-09 -2.51542e-09 1.21702e-09
2.92975e-10 -2.51512e-10 7.19122e-10
1.68702e-09 7.36797e-10 -1.1013e-09
-1.16202e-09 -9.18844e-11 -7.66325e-10
1.83097e-10 -9.26687e-10 -7.79663e-11
1.53643e-10 1.53471e-10 -1.50085e-10
1.01145e-09 -9.72833e-10 -9.22048e-11
2.18551e-10 -7.59317e-10 1.19561e-09
1.02762e-09 -6.97647e-10 1.80462e-09
2.4979e-10 -5.94343e-10 -1.14003e-10
-5.30377e-10 2.62296e-10 -7.12146e-11
-3.49446e-10 -1.85657e-09 6.23345e-10
-6.50162e-09 3.59265e-09 -1.88881e-09
1.27084e-09 -1.63739e-09 1.16787e-09
-9.81019e-11 -1.32212e-10 1.331e-10
3.9143e-10 1.67511e-10 -5.09133e-10
1.21059e-09 -1.18148e-09 4.42277e-10
6.79488e-10 2.13347e-10 -4.00429e-10
6.62682e-11 -6.24423e-10 -5.30306e-11
-1.35198e-09 -1.45238e-10 8.99884e-10
8.87146e-10 -1.52871e-10 -3.95979e-10
-1.52145e-11 -3.09822e-09 5.38759e-10
5.18768e-10 -2.92874e-09 1.24959e-09
-5.41683e-10 -2.2197e-09 2.61748e-10
-3.44436e-10 -1.18369e-09 2.73029e-10
1.86974e-09 4.85049e-11 -5.34074e-10
-2.9256e-09 -5.06649e-10 -8.87658e-10
6.40629e-12 -4.22256e-10 2.50011e-10
2.48136e-10 -1.77358e-10 2.95604e-10
-4.87742e-09 2.2254e-09 -6.77651e-10
-2.54675e-09 1.75274e-09 -4.80962e-10
-1.81656e-10 -4.03214e-10 -5.45221e-10
-1.7819e-10 -1.24538e-09 5.44904e-10
2.26242e-09 -2.17946e-09 3.59279e-10
2.28363e-09 3.91207e-09 -2.73853e-09
1.20402e-09 1.44267e-09 6.57607e-11
-3.14508e-10 2.02719e-09 6.83881e-10
-3.89969e-10 6.47949e-10 -1.78423e-10
-7.25299e-10 1.20168e-09 -1.85013e-10
6.5589e-10 5.30924e-10 -1.90742e-10
-2.33866e-09 1.96212e-09 -1.83428e-09
-1.9412e-09 -8.12618e-10 -2.98259e-10
1.35492e-09 5.06711e-09 1.15869e-09
1.32367e-09 -1.8311e-09 3.24226e-10
3.23024e-10 2.85867e-11 2.94238e-10
3.39431e-10 2.67441e-09 9.52149e-10
-2.67483e-11 -2.0355e-10 1.22566e-09
7.84933e-10 3.44927e-10 1.93746e-10
5.83157e-10 2.40369e-10 -1.46825e-10
-1.12366e-11 3.83679e-10 -1.07276e-10
2.83564e-09 8.20443e-10 -1.16234e-10
-1.81039e-10 6.16591e-10 -6.73801e-10
1.43081e-10 -4.71855e-10 1.26965e-10
-9.12774e-11 1.21166e-09 -7.20456e-10
-2.4266e-10 -5.83464e-10 5.10444e-10
2.69815e-10 2.41151e-10 -1.70155e-10
-1.80926e-10 9.08537e-10 -3.64289e-10
-8.16267e-10 -9.91734e-10 -6.12859e-10
2.49237e-10 1.30996e-10 -2.88512e-09
-1.32977e-10 4.5752e-10 -2.93673e-10
-2.45982e-09 1.73855e-09 -3.71275e-10
1.8704e-09 -4.42365e-10 9.84994e-10
2.64067e-10 -3.68701e-09 1.4681e-09
1.61827e-09 -2.57563e-09 1.26318e-09
7.50472e-11 3.48306e-10 -3.15616e-10
-2.60331e-09 1.321e-10 1.64019e-10
-2.95269e-09 1.66825e-09 1.87082e-09
1.43598e-10 2.14775e-10 -6.1895e-10
-2.243e-10 5.95478e-10 -5.82687e-10
-7.57211e-10 -3.11061e-10 -1.65827e-09
2.04693e-09 -6.14116e-11 -1.23082e-09
2.07502e-09 -9.60431e-10 2.89711e-10
-8.48847e-10 6.53038e-10 -1.39649e-09
-2.66791e-09 5.96914e-10 -3.67559e-10
-4.25362e-10 -7.26983e-11 8.28686e-10
-3.0429e-10 8.25125e-12 8.21068e-10
-1.00927e-09 -4.81544e-10 1.98991e-10
5.58226e-11 4.75851e-10 -2.53674e-10
-5.49948e-10 -6.77413e-10 6.34828e-10
4.87748e-10 4.96248e-10 3.93476e-10
5.46093e-11 5.75559e-10 6.68614e-10
1.14323e-09 1.38932e-10 -1.20881e-10
-1.54126e-09 6.99848e-10 -1.01058e-09
-1.99723e-09 -9.56738e-10 7.83721e-10
-2.14436e-09 -3.96163e-10 -1.16132e-09
4.87618e-11 1.3567e-10 6.43478e-11
-7.46321e-10 -1.62235e-10 1.4237e-10
1.47405e-09 1.0452e-09 -1.36504e-09
1.18962e-10 -5.31953e-10 4.47038e-10
-4.49464e-10 -6.37471e-10 1.41086e-10
1.75046e-09 -2.36929e-09 1.39771e-09
8.41132e-10 2.51614e-10 -6.17581e-10
2.96021e-10 -2.25839e-09 9.15055e-10
3.16564e-10 1.70575e-10 2.52151e-09
2.14533e-09 1.991e-09 -3.45473e-11
1.12765e-09 3.67273e-09 8.89664e-10
2.10502e-09 3.90488e-10 -3.02875e-09
-5.48047e-10 1.14064e-09 1.28408e-09
-9.09128e-11 -1.12227e-09 4.83702e-10
5.97336e-10 -1.85002e-10 -1.92418e-09
-1.10657e-10 -2.92206e-10 -1.22441e-11
-7.88965e-10 2.20903e-09 -5.86929e-10
-4.3299e-09 1.37116e-09 -5.88431e-10
-2.46329e-10 -1.76761e-10 1.25409e-10
1.23067e-10 -3.90655e-10 6.65712e-11
-5.30369e-10 2.82588e-10 -2.0724e-10
1.85033e-09 -4.60921e-10 9.93384e-12
-3.31572e-09 -1.04714e-09 -5.02154e-10
-4.17927e-09 3.10035e-09 -8.7103e-10
1.45271e-10 1.40258e-09 -7.15088e-10
-4.3168e-09 -3.60462e-09 1.95094e-09
-2.22086e-09 1.35432e-09 -1.54789e-09
-2.93669e-10 4.28633e-10 -1.25776e-10
-8.93535e-10 -1.79288e-09 1.81054e-09
-2.49553e-10 -2.63133e-09 -6.97129e-10
-1.0681e-09 9.59553e-11 -1.1547e-11
-1.33239e-09 2.26165e-09 -6.20773e-10
-1.34021e-09 2.43912e-11 2.26991e-10
-2.9131e-09 1.0022e-09 -1.38009e-10
1.49679e-09 -1.28234e-09 2.60541e-10
-2.17992e-10 -3.1661e-09 3.24227e-09
-1.37866e-10 4.64017e-11 -3.42261e-11
-1.42266e-09 2.19651e-09 -2.9462e-10
1.48384e-10 -3.65986e-10 -6.56725e-10
-5.84699e-09 2.69961e-09 -4.83886e-10
2.02876e-09 -5.79589e-10 -2.22424e-10
3.03664e-09 2.47649e-09 -2.17225e-09
5.26177e-09 2.91897e-09 -7.53176e-10
7.47441e-11 3.35053e-10 -2.10745e-11
2.37951e-11 2.00379e-10 2.14915e-10
6.59506e-10 -5.48572e-10 1.01249e-10
2.02476e-11 1.05035e-09 8.90864e-10
2.05163e-09 2.25701e-09 -2.63252e-10
-1.28707e-10 -3.64244e-11 1.2473e-10
-2.66422e-09 1.25142e-09 -4.19791e-10
-3.95107e-09 -1.92734e-09 1.4021e-10
-3.05606e-09 -1.44465e-09 2.31473e-09
-7.17452e-12 -2.3203e-10 1.80705e-10
1.56223e-11 1.3604e-09 -1.0173e-09
4.98618e-09 -6.53567e-09 -1.51439e-09
2.04964e-10 -2.61175e-10 -1.27857e-10
-1.07713e-09 6.6539e-10 5.36578e-11
1.97088e-10 6.46952e-10 -1.77915e-10
-2.58643e-10 3.40066e-10 1.33135e-10
2.62078e-10 -2.65405e-10 -4.79705e-09
2.86867e-10 1.08256e-09 2.11746e-10
-6.38244e-10 -2.99357e-10 -6.41773e-10
9.15425e-10 5.27831e-10 1.13205e-09
-1.73672e-09 4.9598e-11 -7.34193e-10
1.65388e-09 -7.91385e-10 -9.39173e-11
6.61502e-10 7.31852e-10 -8.43699e-10
1.25056e-09 -7.65185e-10 4.34711e-10
1.35379e-10 4.75273e-10 -1.1781e-10
-2.94395e-10 -2.14165e-09 1.33536e-09
3.19408e-09 3.62719e-09 -8.40684e-10
8.84877e-09 -1.23513e-09 4.85794e-10
-5.26446e-10 -1.43189e-09 2.83148e-11
-3.13326e-09 -4.54534e-10 -4.30179e-10
1.80318e-10 1.17706e-10 -7.67122e-11
-2.31654e-09 1.31484e-09 -2.76301e-10
5.01776e-10 6.41958e-11 -1.26504e-10
-5.72317e-09 2.75711e-09 -7.35861e-10
-4.71401e-09 2.92085e-10 1.56097e-09
2.66191e-10 -2.54761e-11 -8.19209e-11
-2.26189e-10 9.14653e-10 -8.56925e-10
-6.11068e-10 -1.83592e-09 -1.24908e-09
1.15783e-09 -2.95882e-09 2.88542e-10
-1.89386e-10 -7.83642e-10 4.72603e-10
-4.01549e-10 2.06833e-10 -9.63206e-10
-1.27043e-10 -7.59362e-11 4.788e-11
-2.45538e-10 7.6119e-11 -1.3356e-09
6.10044e-10 -5.78631e-09 -8.38824e-10
-1.21546e-09 1.15052e-09 -1.43111e-09
1.13824e-09 -2.15715e-09 3.58746e-10
-1.70348e-10 -2.89875e-11 -7.54238e-11
-1.6953e-09 -7.78704e-10 7.45276e-10
-3.94482e-10 -1.28723e-09 -1.2174e-10
-1.1256e-09 3.44634e-10 1.88833e-09
1.49744e-09 7.56152e-11 -2.59556e-10
1.31738e-10 -1.57454e-09 -4.70268e-10
-2.16341e-10 -3.31636e-10 2.60922e-11
-8.12923e-11 2.38886e-10 -5.23286e-10
-1.13566e-09 6.49048e-10 -9.20855e-10
-4.32786e-10 -2.32185e-10 2.71355e-10
-3.62102e-10 -3.64136e-10 -1.00582e-09
-4.71023e-10 7.50528e-10 -3.33525e-10
-3.84687e-11 2.93718e-10 -1.11204e-10
8.19705e-10 -2.44612e-09 4.44012e-10
-5.95434e-10 3.07147e-10 -1.5777e-10
-8.10165e-10 -2.50572e-10 8.79337e-10
-3.37011e-10 -3.82896e-10 3.3813e-11
-7.10919e-10 -7.15859e-10 5.8112e-10
-2.06808e-10 3.13388e-11 4.39678e-11
4.92477e-10 1.00046e-10 -1.4903e-10
5.43523e-09 -3.35621e-09 2.9828e-09
-8.77526e-10 3.75563e-10 2.39927e-11
-1.7712e-09 -1.20382e-09 4.51851e-10
-1.22475e-09 9.46059e-10 -2.02022e-10
4.27984e-09 -1.75902e-09 1.79051e-09
3.03958e-09 -5.46376e-09 -4.08762e-10
5.04439e-10 1.33348e-09 -2.59124e-10
3.03084e-10 -2.07719e-10 3.24572e-11
-1.97951e-09 -8.04741e-09 5.56094e-10
3.98384e-10 -3.46156e-09 1.95748e-09
-5.10582e-10 -3.27403e-10 -1.38952e-10
2.15724e-09 1.78799e-09 1.49393e-10
-6.69364e-10 4.50101e-10 -3.25886e-10
4.31748e-09 1.44221e-09 -3.78647e-09
9.10906e-09 7.04484e-09 2.4602e-09
-8.58233e-10 2.19859e-09 -2.36832e-09
-5.00467e-10 -3.33277e-09 -5.20492e-10
-3.16793e-10 -1.05392e-08 2.67095e-09
-9.2227e-10 8.42575e-10 -2.07762e-10
-6.18569e-10 1.0134e-09 -2.77495e-10
-5.96285e-10 4.74736e-10 -7.07602e-10
-1.33066e-10 1.20564e-09 -2.35109e-10
6.02594e-09 5.82917e-09 4.02408e-09
3.36586e-12 -2.20606e-12 -5.42238e-13
3.63587e-09 1.59221e-09 1.93123e-09
-4.90362e-10 5.05205e-09 -2.06802e-09
-2.27089e-10 -4.14459e-10 9.7025e-11
3.30639e-10 -4.11318e-10 5.01941e-10
2.91186e-09 3.27883e-10 -2.14924e-10
1.03777e-10 -3.39941e-10 4.11365e-11
5.12964e-11 1.23444e-10 -3.44647e-11
2.07475e-09 -2.18986e-09 1.66494e-09
-9.66757e-10 2.62583e-10 -9.04419e-11
-5.15716e-09 -3.42923e-09 -2.31728e-09
-9.53987e-11 7.86724e-11 -1.32904e-10
-3.3744e-09 -6.2339e-10 -1.51043e-09
-3.40962e-10 -3.41541e-10 -5.61009e-11
-1.06648e-09 -1.88971e-09 5.08471e-09
-5.84051e-09 -3.60409e-09 -7.10786e-10
-1.54994e-10 -4.84074e-10 7.32815e-10
7.13914e-10 3.15731e-10 1.26202e-10
9.44879e-10 6.07028e-10 -1.07915e-09
8.8714e-10 1.51547e-10 -5.7661e-10
-5.64872e-10 8.608e-11 2.87492e-11
4.37153e-09 3.63995e-09 -2.89623e-09
-6.24997e-10 4.70163e-10 -1.93184e-10
-3.88275e-11 -2.99893e-10 4.4092e-11
1.35832e-10 1.48446e-10 -7.6374e-11
2.1685e-09 5.55511e-09 -1.50632e-09
1.17221e-09 -5.02263e-10 -2.25279e-10
2.6932e-09 -2.31868e-09 3.52149e-10
-4.27806e-11 1.67816e-10 -8.99351e-11
