# vtk DataFile Version 3.0
LIGGGHTS particles timestep 6800000
ASCII
DATASET POLYDATA
POINTS 293 float
0.052481 0.0166218 0.00794379
0.0468646 0.0166145 0.00772535
0.0529617 0.0178098 0.00720801
0.0523866 0.0161963 0.00803974
0.0584813 0.0166113 0.00791528
0.0583626 0.016196 0.00833159
0.0523088 0.0158982 0.00829176
0.0589281 0.0184976 0.00721933
0.0525098 0.0166812 0.00770667
0.0533313 0.0170851 0.00749292
0.052893 0.0167869 0.00764173
0.0524269 0.0163379 0.00789158
0.0461778 0.0156564 0.00887398
0.0526829 0.0173979 0.00739612
0.0481735 0.017428 0.00733433
0.0524665 0.016502 0.00778431
0.0526171 0.0163838 0.00784465
0.0532572 0.0175561 0.00729888
0.0525552 0.0161859 0.00791244
0.053084 0.0168393 0.00760995
0.0471098 0.0168438 0.00758251
0.0585198 0.0167499 0.00777634
0.0528065 0.0164286 0.007797
0.0585598 0.0168883 0.00763762
0.0527262 0.0175772 0.0073184
0.0586359 0.0171656 0.00735959
0.0589154 0.0175891 0.00723739
0.0525964 0.0170395 0.00755139
0.0527888 0.0170932 0.00751853
0.0531963 0.0165411 0.00772885
0.0531529 0.0163619 0.00780649
0.0529363 0.0169661 0.00756409
0.0588862 0.0183021 0.00722365
0.0527455 0.016914 0.00759616
0.052659 0.0165557 0.00775142
0.0584459 0.0164724 0.00805467
0.0531092 0.0176827 0.00725355
0.0527167 0.0161164 0.00802916
0.0529795 0.0171452 0.00748646
0.0528497 0.0166077 0.00771936
0.0532844 0.0169006 0.00757298
0.0534561 0.0175692 0.00728273
0.0587186 0.01752 0.00724091
0.0523473 0.0160345 0.00815064
0.0528752 0.0174515 0.00736327
0.052856 0.0181147 0.0070855
0.052832 0.0172724 0.0074409
0.0531526 0.017862 0.00717588
0.0487191 0.0179427 0.00716321
0.0587873 0.0170748 0.00745348
0.0524985 0.0159438 0.00824584
0.0478444 0.0175931 0.00733138
0.0523812 0.0156189 0.00873637
0.0585969 0.0170271 0.00749846
0.0533005 0.0177353 0.00722124
0.0586767 0.0173245 0.00724523
0.053041 0.0166599 0.00768718
0.0525382 0.0160902 0.00811551
0.0530227 0.0173244 0.00740882
0.0528128 0.0179355 0.00716313
0.0587604 0.0177156 0.00723763
0.0526396 0.0172187 0.00747376
0.0464598 0.0165031 0.00788312
0.053413 0.0173599 0.00737301
0.0527023 0.0167349 0.00767379
0.0461856 0.0155852 0.0090607
0.0588443 0.0181066 0.00722797
0.0479457 0.017879 0.00725465
0.0531958 0.0180434 0.00709775
0.0532138 0.0173766 0.00737665
0.0588024 0.0179111 0.00723228
0.0525531 0.0168604 0.00762902
0.0533445 0.0179173 0.00714235
0.0532156 0.0189445 0.007011
0.0462209 0.0157205 0.00868953
0.0465605 0.0161277 0.00816333
0.0474981 0.0193199 0.00697514
0.0467849 0.0170752 0.0075638
0.0465907 0.0165076 0.0077154
0.0463395 0.0160147 0.00818152
0.0588275 0.0172132 0.00731479
0.0527695 0.0177564 0.00724077
0.0532402 0.0167212 0.00765076
0.0529764 0.0186835 0.00698138
0.0534458 0.0167889 0.00761132
0.047383 0.0172857 0.00745147
0.0536292 0.017658 0.00723614
0.0532368 0.0182257 0.00701846
0.0532543 0.0191405 0.00702021
0.0530924 0.0192573 0.0070086
0.0588735 0.0173936 0.00724171
0.0465037 0.0166728 0.0077869
0.0530163 0.0188703 0.00704508
0.0465989 0.0163626 0.00785294
0.0529119 0.0161863 0.00801535
0.052231 0.0156839 0.00862143
0.0469538 0.0169682 0.00757045
0.0477002 0.0177306 0.00731505
0.0524216 0.0157257 0.00857218
0.0468269 0.0160438 0.00820697
0.0468717 0.0174537 0.00746727
0.0462644 0.0158116 0.00851685
0.0521878 0.0155774 0.00878506
0.0476061 0.0173412 0.00741489
0.0532783 0.0184219 0.00700176
0.0531289 0.0185545 0.00699176
0.0464249 0.0163761 0.00803361
0.0470558 0.0175406 0.0074276
0.0470697 0.0166702 0.0076737
0.0473415 0.0177854 0.00734067
0.053574 0.0181548 0.00703023
0.0522714 0.0157907 0.00845724
0.0468967 0.0176613 0.00741675
0.0531116 0.0162262 0.00795764
0.0529977 0.0164812 0.00776572
0.0524606 0.0158326 0.0084077
0.0528978 0.0182955 0.00701083
0.0467709 0.016302 0.00793492
0.0529186 0.017631 0.00728644
0.052956 0.0163148 0.00786854
0.0475352 0.0171566 0.00746501
0.0525613 0.0169084 0.00782299
0.0530884 0.0183592 0.00700546
0.0465163 0.0159582 0.00825982
0.0531279 0.0170182 0.00753193
0.0463044 0.0159235 0.00835601
0.0529353 0.018488 0.00697194
0.0527658 0.0162633 0.00790262
0.0533855 0.0180974 0.00706445
0.052863 0.016964 0.00775015
0.0470211 0.0161126 0.00815821
0.0531699 0.01875 0.00700118
0.05332 0.0186182 0.00701133
0.0459187 0.0152196 0.0101466
0.053005 0.017989 0.00713038
0.0464705 0.0158199 0.00839689
0.0465877 0.017013 0.00759919
0.053066 0.0175036 0.00733119
0.0468791 0.0182855 0.00727468
0.0535056 0.0178052 0.00718087
0.0465479 0.0162248 0.00798897
0.0471532 0.0170329 0.00753426
0.0530537 0.0190613 0.00699938
0.0469674 0.0163586 0.00789894
0.0530468 0.0181709 0.00705849
0.0463801 0.0161985 0.00811392
0.0467707 0.0164481 0.0077845
0.0408492 0.0180784 0.00709022
0.0468283 0.0172645 0.00751553
0.0471966 0.0172221 0.00748601
0.0407854 0.0170289 0.00744769
0.0477673 0.0179693 0.00725286
0.0403875 0.016221 0.00805717
0.0476549 0.0175383 0.00736422
0.0534044 0.0190086 0.00703029
0.0478123 0.0181624 0.00720353
0.0532204 0.017156 0.00764346
0.0472735 0.0182926 0.00723097
0.0528142 0.0177196 0.00743221
0.0481662 0.017731 0.00726525
0.04752 0.0187553 0.00709801
0.0470336 0.0177574 0.00754318
0.0527 0.016 0.00819089
0.0470405 0.0173466 0.00747396
0.0526594 0.0158831 0.00834802
0.0477953 0.017397 0.00738183
0.0469177 0.0162543 0.00806216
0.0473049 0.0169033 0.00754796
0.0466743 0.0173914 0.00750278
0.0474262 0.0181643 0.00724428
0.0466891 0.0166946 0.00767247
0.0476223 0.0182245 0.00720949
0.047299 0.0175961 0.00738887
0.0476409 0.0168217 0.00753096
0.0474513 0.0174672 0.00740235
0.0531705 0.0171975 0.00745428
0.0467387 0.0168827 0.00761311
0.0466516 0.0165556 0.00790393
0.0530543 0.017015 0.0077179
0.0474938 0.0176565 0.00735414
0.0475369 0.0178458 0.00730591
0.0469971 0.0171574 0.00752221
0.0533657 0.0188126 0.00702108
0.0472626 0.0167171 0.00760743
0.052714 0.017093 0.00770402
0.0474091 0.0166095 0.0076909
0.0473553 0.0188684 0.00708948
0.0478385 0.0184937 0.00712434
0.0411889 0.018018 0.00712496
0.046631 0.0172022 0.00755098
0.0467176 0.0175806 0.00745454
0.0474947 0.0169573 0.00751528
0.0534687 0.0184849 0.00702118
0.0529059 0.0171442 0.00767241
0.0467574 0.0177676 0.00751307
0.0527925 0.017477 0.00754354
0.0471389 0.0177157 0.00737836
0.0480125 0.0169496 0.00746182
0.0473484 0.0170927 0.00749965
0.0408058 0.0178922 0.00715231
0.0530359 0.0176836 0.00743962
0.0475786 0.0180354 0.00725775
0.0473846 0.0179747 0.00729244
0.052949 0.0173238 0.00759474
0.047501 0.0185548 0.00714625
0.0403502 0.0160986 0.00821083
0.0472241 0.0174173 0.00743809
0.0534011 0.0166089 0.00768939
0.0476536 0.0184262 0.00715962
0.0474705 0.018354 0.00719581
0.0469105 0.0167804 0.00762353
0.040614 0.0163871 0.0078556
0.0527568 0.0172737 0.00762621
0.047021 0.0164959 0.00776372
0.0465443 0.0168324 0.00767343
0.0584068 0.0163338 0.00819353
0.040313 0.0159761 0.0083645
0.0460195 0.0152796 0.00994461
0.0471516 0.0185935 0.00717461
0.0458464 0.0151591 0.0103379
0.0470662 0.0182148 0.00727103
0.0407442 0.016845 0.00751462
0.046761 0.0172291 0.00770051
0.0478316 0.0168728 0.00749884
0.053068 0.0161094 0.00811404
0.0473329 0.0192117 0.00701273
0.0473181 0.0184833 0.00719022
0.0409567 0.0177702 0.00720042
0.0404629 0.0164659 0.00774998
0.0405875 0.0169618 0.00746257
0.0408281 0.0172143 0.00738593
0.0410385 0.0181416 0.00707633
0.0406522 0.0165057 0.00769915
0.0404248 0.0163435 0.00790351
0.0468353 0.0180941 0.00732351
0.0406975 0.016664 0.00758557
0.0526308 0.0167246 0.00786032
0.0409137 0.0175849 0.00726221
0.046718 0.0170387 0.0077487
0.0411042 0.0176444 0.00724968
0.0408882 0.0182644 0.00702799
0.0471888 0.0179138 0.00732737
0.0411474 0.0178302 0.0071877
0.0467361 0.0161627 0.00807424
0.0413779 0.018082 0.0071108
0.0470231 0.0180256 0.00731926
0.0471771 0.0187889 0.00714062
0.0409638 0.018637 0.00690326
0.0534971 0.0169791 0.0075286
0.0469682 0.0186743 0.00717553
0.0472318 0.0181031 0.00727913
0.0409994 0.0179555 0.00713858
0.047173 0.0196819 0.00692591
0.0409271 0.0184504 0.00696576
0.0474512 0.0167675 0.00756368
0.0471365 0.0194907 0.00697193
0.0471706 0.0164123 0.00786678
0.047341 0.0186744 0.00713576
0.0470269 0.018918 0.0071131
0.0412281 0.0182054 0.00706229
0.041078 0.0183283 0.00701389
0.0470172 0.0183636 0.00739645
0.0411156 0.0185158 0.00695111
0.0473179 0.0194064 0.00696944
0.0345805 0.0169552 0.00754371
0.0472502 0.0190364 0.00706197
0.0477494 0.0172026 0.00743154
0.0408708 0.0173996 0.00732403
0.0406309 0.017147 0.00740081
0.0472193 0.0165502 0.00773037
0.0406747 0.0173335 0.0073386
0.0407622 0.0177063 0.00721429
0.0471078 0.0184044 0.00722287
0.0412666 0.0183939 0.00699919
0.0471 0.0192994 0.00701735
0.053596 0.0174349 0.00733173
0.0472381 0.0189502 0.00724203
0.0410187 0.0172742 0.00737316
0.0471167 0.0162747 0.00800228
0.0470637 0.0191086 0.00706521
0.0466948 0.016845 0.00780454
0.0534262 0.0182895 0.00702672
0.0473536 0.0197644 0.00694949
0.0479362 0.0171314 0.00742804
0.0469248 0.0184851 0.00722379
0.0476812 0.0170208 0.00748074
0.0405024 0.0165927 0.00759099
0.0407185 0.0175201 0.00727639
0.0521445 0.0154708 0.00894867
0.0474482 0.0190502 0.00703765
0.0467919 0.0179049 0.00737175
0.0469798 0.0178364 0.0073675
0.040544 0.0167766 0.00752432

VERTICES 293 586
1 0
1 1
1 2
1 3
1 4
1 5
1 6
1 7
1 8
1 9
1 10
1 11
1 12
1 13
1 14
1 15
1 16
1 17
1 18
1 19
1 20
1 21
1 22
1 23
1 24
1 25
1 26
1 27
1 28
1 29
1 30
1 31
1 32
1 33
1 34
1 35
1 36
1 37
1 38
1 39
1 40
1 41
1 42
1 43
1 44
1 45
1 46
1 47
1 48
1 49
1 50
1 51
1 52
1 53
1 54
1 55
1 56
1 57
1 58
1 59
1 60
1 61
1 62
1 63
1 64
1 65
1 66
1 67
1 68
1 69
1 70
1 71
1 72
1 73
1 74
1 75
1 76
1 77
1 78
1 79
1 80
1 81
1 82
1 83
1 84
1 85
1 86
1 87
1 88
1 89
1 90
1 91
1 92
1 93
1 94
1 95
1 96
1 97
1 98
1 99
1 100
1 101
1 102
1 103
1 104
1 105
1 106
1 107
1 108
1 109
1 110
1 111
1 112
1 113
1 114
1 115
1 116
1 117
1 118
1 119
1 120
1 121
1 122
1 123
1 124
1 125
1 126
1 127
1 128
1 129
1 130
1 131
1 132
1 133
1 134
1 135
1 136
1 137
1 138
1 139
1 140
1 141
1 142
1 143
1 144
1 145
1 146
1 147
1 148
1 149
1 150
1 151
1 152
1 153
1 154
1 155
1 156
1 157
1 158
1 159
1 160
1 161
1 162
1 163
1 164
1 165
1 166
1 167
1 168
1 169
1 170
1 171
1 172
1 173
1 174
1 175
1 176
1 177
1 178
1 179
1 180
1 181
1 182
1 183
1 184
1 185
1 186
1 187
1 188
1 189
1 190
1 191
1 192
1 193
1 194
1 195
1 196
1 197
1 198
1 199
1 200
1 201
1 202
1 203
1 204
1 205
1 206
1 207
1 208
1 209
1 210
1 211
1 212
1 213
1 214
1 215
1 216
1 217
1 218
1 219
1 220
1 221
1 222
1 223
1 224
1 225
1 226
1 227
1 228
1 229
1 230
1 231
1 232
1 233
1 234
1 235
1 236
1 237
1 238
1 239
1 240
1 241
1 242
1 243
1 244
1 245
1 246
1 247
1 248
1 249
1 250
1 251
1 252
1 253
1 254
1 255
1 256
1 257
1 258
1 259
1 260
1 261
1 262
1 263
1 264
1 265
1 266
1 267
1 268
1 269
1 270
1 271
1 272
1 273
1 274
1 275
1 276
1 277
1 278
1 279
1 280
1 281
1 282
1 283
1 284
1 285
1 286
1 287
1 288
1 289
1 290
1 291
1 292

POINT_DATA 293
SCALARS id int 1
LOOKUP_TABLE default
1
3
4
5
6
7
8
9
10
11
12
13
14
15
16
17
19
20
21
22
23
24
25
26
27
28
29
30
31
32
33
34
35
36
37
38
39
40
41
42
43
44
45
46
47
48
49
50
51
52
53
54
55
56
57
58
59
60
61
62
63
64
65
66
67
68
69
70
71
72
73
74
75
76
77
78
79
80
81
82
83
85
86
87
88
89
90
91
92
93
94
95
96
97
98
99
100
101
102
103
104
105
106
107
108
109
110
111
112
113
114
115
116
117
118
119
120
121
122
123
124
125
126
127
128
129
130
131
132
133
134
135
136
137
138
139
140
142
143
144
145
146
147
148
149
150
151
152
153
154
155
156
157
158
159
160
161
162
164
165
166
167
168
169
170
171
172
173
174
175
176
177
178
179
180
181
182
183
184
185
186
187
188
189
190
191
192
193
194
195
196
197
198
200
201
202
203
204
205
206
207
208
209
210
211
212
213
214
215
216
217
218
219
220
221
222
223
224
225
226
227
228
229
230
231
232
233
234
235
236
237
238
239
240
241
242
243
245
246
247
248
249
250
251
252
253
254
255
256
257
258
259
260
261
262
263
264
265
266
267
268
269
270
271
272
273
274
275
276
277
278
279
280
281
282
283
284
285
286
287
288
289
290
291
292
293
294
295
296
297
298
299
300

SCALARS type int 1
LOOKUP_TABLE default
1
1
1
1
1
1
1
1
1
1
1
1
1
1
1
1
1
1
1
1
1
1
1
1
1
1
1
1
1
1
1
1
1
1
1
1
1
1
1
1
1
1
1
1
1
1
1
1
1
1
1
1
1
1
1
1
1
1
1
1
1
1
1
1
1
1
1
1
1
1
1
1
1
1
1
1
1
1
1
1
1
1
1
1
1
1
1
1
1
1
1
1
1
1
1
1
1
1
1
1
1
1
1
1
1
1
1
1
1
1
1
1
1
1
1
1
1
1
1
1
1
1
1
1
1
1
1
1
1
1
1
1
1
1
1
1
1
1
1
1
1
1
1
1
1
1
1
1
1
1
1
1
1
1
1
1
1
1
1
1
1
1
1
1
1
1
1
1
1
1
1
1
1
1
1
1
1
1
1
1
1
1
1
1
1
1
1
1
1
1
1
1
1
1
1
1
1
1
1
1
1
1
1
1
1
1
1
1
1
1
1
1
1
1
1
1
1
1
1
1
1
1
1
1
1
1
1
1
1
1
1
1
1
1
1
1
1
1
1
1
1
1
1
1
1
1
1
1
1
1
1
1
1
1
1
1
1
1
1
1
1
1
1
1
1
1
1
1
1
1
1
1
1
1
1
1
1
1
1
1
1
1
1
1
1
1
1
1
1
1
1
1
1

SCALARS radius float 1
LOOKUP_TABLE default
0.0001
0.0001
0.0001
0.0001
0.0001
0.0001
0.0001
0.0001
0.0001
0.0001
0.0001
0.0001
0.0001
0.0001
0.0001
0.0001
0.0001
0.0001
0.0001
0.0001
0.0001
0.0001
0.0001
0.0001
0.0001
0.0001
0.0001
0.0001
0.0001
0.0001
0.0001
0.0001
0.0001
0.0001
0.0001
0.0001
0.0001
0.0001
0.0001
0.0001
0.0001
0.0001
0.0001
0.0001
0.0001
0.0001
0.0001
0.0001
0.0001
0.0001
0.0001
0.0001
0.0001
0.0001
0.0001
0.0001
0.0001
0.0001
0.0001
0.0001
0.0001
0.0001
0.0001
0.0001
0.0001
0.0001
0.0001
0.0001
0.0001
0.0001
0.0001
0.0001
0.0001
0.0001
0.0001
0.0001
0.0001
0.0001
0.0001
0.0001
0.0001
0.0001
0.0001
0.0001
0.0001
0.0001
0.0001
0.0001
0.0001
0.0001
0.0001
0.0001
0.0001
0.0001
0.0001
0.0001
0.0001
0.0001
0.0001
0.0001
0.0001
0.0001
0.0001
0.0001
0.0001
0.0001
0.0001
0.0001
0.0001
0.0001
0.0001
0.0001
0.0001
0.0001
0.0001
0.0001
0.0001
0.0001
0.0001
0.0001
0.0001
0.0001
0.0001
0.0001
0.0001
0.0001
0.0001
0.0001
0.0001
0.0001
0.0001
0.0001
0.0001
0.0001
0.0001
0.0001
0.0001
0.0001
0.0001
0.0001
0.0001
0.0001
0.0001
0.0001
0.0001
0.0001
0.0001
0.0001
0.0001
0.0001
0.0001
0.0001
0.0001
0.0001
0.0001
0.0001
0.0001
0.0001
0.0001
0.0001
0.0001
0.0001
0.0001
0.0001
0.0001
0.0001
0.0001
0.0001
0.0001
0.0001
0.0001
0.0001
0.0001
0.0001
0.0001
0.0001
0.0001
0.0001
0.0001
0.0001
0.0001
0.0001
0.0001
0.0001
0.0001
0.0001
0.0001
0.0001
0.0001
0.0001
0.0001
0.0001
0.0001
0.0001
0.0001
0.0001
0.0001
0.0001
0.0001
0.0001
0.0001
0.0001
0.0001
0.0001
0.0001
0.0001
0.0001
0.0001
0.0001
0.0001
0.0001
0.0001
0.0001
0.0001
0.0001
0.0001
0.0001
0.0001
0.0001
0.0001
0.0001
0.0001
0.0001
0.0001
0.0001
0.0001
0.0001
0.0001
0.0001
0.0001
0.0001
0.0001
0.0001
0.0001
0.0001
0.0001
0.0001
0.0001
0.0001
0.0001
0.0001
0.0001
0.0001
0.0001
0.0001
0.0001
0.0001
0.0001
0.0001
0.0001
0.0001
0.0001
0.0001
0.0001
0.0001
0.0001
0.0001
0.0001
0.0001
0.0001
0.0001
0.0001
0.0001
0.0001
0.0001
0.0001
0.0001
0.0001
0.0001
0.0001
0.0001
0.0001
0.0001
0.0001
0.0001
0.0001
0.0001
0.0001
0.0001
0.0001
0.0001
0.0001
0.0001
0.0001
0.0001
0.0001
0.0001
0.0001
0.0001
0.0001
0.0001
0.0001
0.0001

SCALARS mass float 1
LOOKUP_TABLE default
1.17286e-09
1.17286e-09
1.17286e-09
1.17286e-09
1.17286e-09
1.17286e-09
1.17286e-09
1.17286e-09
1.17286e-09
1.17286e-09
1.17286e-09
1.17286e-09
1.17286e-09
1.17286e-09
1.17286e-09
1.17286e-09
1.17286e-09
1.17286e-09
1.17286e-09
1.17286e-09
1.17286e-09
1.17286e-09
1.17286e-09
1.17286e-09
1.17286e-09
1.17286e-09
1.17286e-09
1.17286e-09
1.17286e-09
1.17286e-09
1.17286e-09
1.17286e-09
1.17286e-09
1.17286e-09
1.17286e-09
1.17286e-09
1.17286e-09
1.17286e-09
1.17286e-09
1.17286e-09
1.17286e-09
1.17286e-09
1.17286e-09
1.17286e-09
1.17286e-09
1.17286e-09
1.17286e-09
1.17286e-09
1.17286e-09
1.17286e-09
1.17286e-09
1.17286e-09
1.17286e-09
1.17286e-09
1.17286e-09
1.17286e-09
1.17286e-09
1.17286e-09
1.17286e-09
1.17286e-09
1.17286e-09
1.17286e-09
1.17286e-09
1.17286e-09
1.17286e-09
1.17286e-09
1.17286e-09
1.17286e-09
1.17286e-09
1.17286e-09
1.17286e-09
1.17286e-09
1.17286e-09
1.17286e-09
1.17286e-09
1.17286e-09
1.17286e-09
1.17286e-09
1.17286e-09
1.17286e-09
1.17286e-09
1.17286e-09
1.17286e-09
1.17286e-09
1.17286e-09
1.17286e-09
1.17286e-09
1.17286e-09
1.17286e-09
1.17286e-09
1.17286e-09
1.17286e-09
1.17286e-09
1.17286e-09
1.17286e-09
1.17286e-09
1.17286e-09
1.17286e-09
1.17286e-09
1.17286e-09
1.17286e-09
1.17286e-09
1.17286e-09
1.17286e-09
1.17286e-09
1.17286e-09
1.17286e-09
1.17286e-09
1.17286e-09
1.17286e-09
1.17286e-09
1.17286e-09
1.17286e-09
1.17286e-09
1.17286e-09
1.17286e-09
1.17286e-09
1.17286e-09
1.17286e-09
1.17286e-09
1.17286e-09
1.17286e-09
1.17286e-09
1.17286e-09
1.17286e-09
1.17286e-09
1.17286e-09
1.17286e-09
1.17286e-09
1.17286e-09
1.17286e-09
1.17286e-09
1.17286e-09
1.17286e-09
1.17286e-09
1.17286e-09
1.17286e-09
1.17286e-09
1.17286e-09
1.17286e-09
1.17286e-09
1.17286e-09
1.17286e-09
1.17286e-09
1.17286e-09
1.17286e-09
1.17286e-09
1.17286e-09
1.17286e-09
1.17286e-09
1.17286e-09
1.17286e-09
1.17286e-09
1.17286e-09
1.17286e-09
1.17286e-09
1.17286e-09
1.17286e-09
1.17286e-09
1.17286e-09
1.17286e-09
1.17286e-09
1.17286e-09
1.17286e-09
1.17286e-09
1.17286e-09
1.17286e-09
1.17286e-09
1.17286e-09
1.17286e-09
1.17286e-09
1.17286e-09
1.17286e-09
1.17286e-09
1.17286e-09
1.17286e-09
1.17286e-09
1.17286e-09
1.17286e-09
1.17286e-09
1.17286e-09
1.17286e-09
1.17286e-09
1.17286e-09
1.17286e-09
1.17286e-09
1.17286e-09
1.17286e-09
1.17286e-09
1.17286e-09
1.17286e-09
1.17286e-09
1.17286e-09
1.17286e-09
1.17286e-09
1.17286e-09
1.17286e-09
1.17286e-09
1.17286e-09
1.17286e-09
1.17286e-09
1.17286e-09
1.17286e-09
1.17286e-09
1.17286e-09
1.17286e-09
1.17286e-09
1.17286e-09
1.17286e-09
1.17286e-09
1.17286e-09
1.17286e-09
1.17286e-09
1.17286e-09
1.17286e-09
1.17286e-09
1.17286e-09
1.17286e-09
1.17286e-09
1.17286e-09
1.17286e-09
1.17286e-09
1.17286e-09
1.17286e-09
1.17286e-09
1.17286e-09
1.17286e-09
1.17286e-09
1.17286e-09
1.17286e-09
1.17286e-09
1.17286e-09
1.17286e-09
1.17286e-09
1.17286e-09
1.17286e-09
1.17286e-09
1.17286e-09
1.17286e-09
1.17286e-09
1.17286e-09
1.17286e-09
1.17286e-09
1.17286e-09
1.17286e-09
1.17286e-09
1.17286e-09
1.17286e-09
1.17286e-09
1.17286e-09
1.17286e-09
1.17286e-09
1.17286e-09
1.17286e-09
1.17286e-09
1.17286e-09
1.17286e-09
1.17286e-09
1.17286e-09
1.17286e-09
1.17286e-09
1.17286e-09
1.17286e-09
1.17286e-09
1.17286e-09
1.17286e-09
1.17286e-09
1.17286e-09
1.17286e-09
1.17286e-09
1.17286e-09
1.17286e-09
1.17286e-09
1.17286e-09
1.17286e-09
1.17286e-09
1.17286e-09
1.17286e-09
1.17286e-09
1.17286e-09
1.17286e-09
1.17286e-09
1.17286e-09
1.17286e-09
1.17286e-09
1.17286e-09
1.17286e-09
1.17286e-09
1.17286e-09
1.17286e-09
1.17286e-09
1.17286e-09
1.17286e-09

VECTORS velocity float
0.00561022 0.00013581 -0.000423754
0.00595652 0.000451542 -0.000237528
0.00603368 -0.000141316 -0.00026677
0.0055056 0.00027687 -3.50698e-05
0.00569977 0.000240693 -0.00012661
0.00618784 0.000178206 -8.63757e-05
0.00551673 0.000376744 -8.93173e-05
0.0058279 0.000206342 -6.78705e-05
0.00589 -8.44645e-05 -0.000278301
0.00592461 -8.12513e-05 -0.000282699
0.00593209 -0.000132874 -0.000259942
0.00552847 -0.00010379 -0.000351643
0.00585576 -0.000535523 -0.000967434
0.00597098 -0.000147778 -0.000258718
2.24618e-14 4.85568e-14 2.10588e-13
0.00586827 -0.000103327 -0.000262431
0.00552328 -1.19394e-05 -0.00030639
0.00594847 -0.00021059 -0.000228654
0.00523151 -0.000309441 -0.000150569
0.00596736 -7.46299e-05 -0.000287922
0.00594677 0.000200879 -0.000678494
0.00586837 0.00020953 -8.82458e-05
0.00578946 -0.000180972 -0.000231041
0.00594259 0.00015758 -6.16466e-05
0.00602604 -7.83885e-05 -0.000290876
0.00613204 0.000176206 -7.29894e-05
0.00610165 0.000184299 -6.92214e-05
0.0059327 -0.000121551 -0.000263686
0.00596721 -0.000113404 -0.000271518
0.00570804 -0.000198024 -0.000215068
0.00544802 -0.000200496 -0.00021053
0.0059722 -9.02777e-05 -0.000280614
0.00590521 0.000207986 -6.98164e-05
0.00595489 -0.000108286 -0.000270676
0.00586394 -9.20915e-05 -0.000267374
0.00525946 0.000300754 -0.000207882
0.00599528 -0.000169678 -0.000248309
0.00555971 0.000533767 0.000409878
0.00597982 -0.000101144 -0.000280171
0.00589279 -0.000119684 -0.000263912
0.00595141 -8.77914e-05 -0.000280449
0.00578206 0.00122622 -0.000824663
0.00623604 0.000203774 -7.11851e-05
0.005544 -5.20319e-05 -0.000480628
0.00594986 -0.000114338 -0.000269415
0.00606889 -0.000160158 -0.000249917
0.00596495 -0.000122942 -0.000269135
0.00608138 -0.000182584 -0.000250211
-5.07736e-15 -1.96054e-14 -1.10605e-13
0.00612679 0.000199212 -0.000103348
0.00543433 0.000471885 6.35203e-05
0.00583591 -0.000203122 -0.000575179
0.00607486 0.00032457 1.00757e-05
0.00601426 0.000153672 -6.10444e-05
0.00603998 -0.000234929 -0.000224641
0.00626236 0.000180257 -7.46313e-05
0.00584952 -3.78139e-05 -0.000283136
0.00548367 0.00049964 0.000192724
0.00594346 -0.000106374 -0.00027576
0.00606743 -0.000139939 -0.000269516
0.00613888 0.000225336 -6.96132e-05
0.00596304 -0.000122802 -0.000267104
0.00587189 0.000590275 -3.45429e-05
0.00609277 0.0024606 -0.00136072
0.00591925 -0.000104404 -0.000269429
0.00590812 -0.000549458 -0.000986316
0.00597335 0.000216747 -6.98872e-05
0.00618901 5.27541e-05 -0.000672804
0.00594546 3.83308e-05 -0.000317939
0.0059189 -9.48273e-05 -0.000278156
0.0060522 0.000229978 -7.17663e-05
0.00591424 -0.000113414 -0.000268622
0.00602357 0.000159325 -0.000388133
0.00551911 0.000248849 0.000517238
0.00587419 -0.000626543 -0.000985864
0.0054295 0.000568677 1.1718e-05
0.00560541 -4.31242e-05 -0.000238496
0.00596706 0.000154647 -0.000673628
0.00519887 -7.95703e-05 -0.000528408
0.00560137 0.00074848 -0.000134183
0.00627381 0.000171927 -5.126e-05
0.00604483 -0.000103439 -0.000280274
0.0059231 -0.000112163 -0.000269877
0.00578177 6.92436e-05 0.000535298
0.00590391 -0.00013964 -0.000257435
0.00586181 0.000123021 -0.000653267
0.00624837 0.000448551 -0.000523791
0.00584459 7.75807e-05 -0.000342421
0.00549939 0.000257812 0.000515321
0.0055027 0.000211511 0.000512912
0.00619712 0.000156746 -7.53936e-05
0.00593122 0.000306185 -0.000494674
0.00574497 0.000166641 0.000527959
0.005796 0.000539339 9.59608e-05
0.00560693 0.000363439 0.000154735
0.00587138 0.000204058 0.000183033
0.005963 0.000185918 -0.000675012
0.00590099 -5.52944e-05 -0.00061814
0.00587256 0.000305331 -8.60196e-06
0.00463228 0.000295539 0.000219579
0.00588227 9.27218e-05 -0.000653843
0.00585033 -0.000334866 -0.000823227
0.00596662 0.000198544 0.000196348
0.00593195 0.000117297 -0.000659028
0.00581516 0.000173573 0.000553412
0.00579928 0.000130611 0.000542132
0.00580232 0.000747671 6.19867e-05
0.00594462 6.53701e-05 -0.000649768
0.00593477 0.00026232 -0.000513561
0.00590901 7.32127e-05 -0.000645028
0.00598295 0.000312285 -0.000454877
0.00569257 0.00019867 0.000160191
0.00590565 3.9398e-05 -0.000638813
0.00565515 0.000640927 0.000302025
0.00565304 6.73387e-05 -0.000163029
0.00561624 0.000354376 4.0141e-06
0.00588904 -1.09968e-05 0.000116476
0.00578109 0.000571915 6.46991e-05
0.00598021 -0.00011721 -0.000271907
0.00556799 0.000170413 -2.93338e-05
0.00585119 0.000172146 -0.000663923
0.00589748 -0.000116285 -0.000264253
0.00581094 0.000103842 0.000249696
0.00523966 0.000606971 -2.97048e-05
0.0059717 -7.14576e-05 -0.000286668
0.00548195 0.000529476 -0.000293616
0.00578617 6.43518e-05 0.000522131
0.00557438 0.000290012 0.000165151
0.00593146 0.000143901 -0.000382828
0.00596402 -6.00663e-05 -0.000286617
0.00584 0.000656992 -9.51066e-06
0.005775 0.000175381 0.000537606
0.00584097 0.000235383 0.000545145
0.0267901 0.027313 -0.0839719
0.0060984 -0.000147098 -0.000260318
0.00541981 0.000589205 -2.35491e-06
0.00597408 0.000121035 -0.000669713
0.00593876 -0.000126051 -0.000262992
0.00583863 7.41125e-05 -0.000620909
0.00610507 0.00031377 -0.000459259
0.00557516 0.000590567 2.40938e-05
0.00592884 0.000178724 -0.000674915
0.00547017 0.000221543 0.000511902
0.00576669 0.000603928 3.58885e-05
0.00588293 -4.61101e-05 -0.000199515
0.00556873 0.000759063 -7.51523e-05
0.00524057 0.000849943 -0.000292085
0.00571426 -4.8571e-05 0.000256347
0.0059292 0.000120058 -0.000664002
0.00585667 0.000141642 -0.00065744
0.00610217 0.000281875 0.000153408
0.0060702 -6.66382e-07 -0.000648144
0.00589553 0.000615155 -0.000528253
0.0057793 -3.84952e-05 -0.000607748
0.00551529 0.000314013 0.000519193
0.00621026 5.83236e-05 -0.000677764
0.00593879 -1.79943e-05 -0.000290317
0.00585741 6.31598e-05 -0.000637209
0.00601272 -8.67567e-05 -0.000264194
-1.20792e-14 -2.6121e-14 -1.13278e-13
0.00612618 0.000808408 -0.000838752
0.00590095 -5.07219e-06 -0.000634996
0.00529777 0.000531649 0.000384492
0.00588734 0.000136638 -0.000660492
0.00524572 0.000524111 0.000377838
0.0057942 -5.43024e-05 -0.000605261
0.0057885 0.000619043 2.95088e-05
0.00592109 0.000203207 -0.000681775
0.00591967 8.29156e-05 -0.000657927
0.0059 7.08795e-05 -0.000640356
0.00603741 0.000253171 -0.000692081
0.00613916 -1.52551e-06 -0.000652219
0.0059316 6.44602e-05 -0.000647607
0.00590178 0.000271402 -0.000693481
0.00591288 8.74528e-05 -0.000651287
0.00594915 -7.7548e-05 -0.00028743
0.00594381 0.000119341 -0.000665333
0.00560708 0.00177674 -0.000795434
0.00597526 -8.38681e-05 -0.000284683
0.00588637 6.26731e-05 -0.000641991
0.00592064 5.33274e-05 -0.000640917
0.00593021 0.000158692 -0.000673494
0.00560242 0.000302151 0.0005271
0.00591884 0.000226752 -0.000619116
0.00596651 -0.000112812 -0.000280148
0.00581172 0.000615813 1.0587e-05
0.00548951 -6.30331e-05 -0.00057575
0.00515098 0.00195774 -0.000998559
0.00584874 0.000572431 4.54497e-05
0.00595248 0.000108662 -0.00065809
0.00589443 5.82342e-05 -0.000648837
0.00589608 0.000225548 -0.000680446
0.00584817 0.00023242 0.000548234
0.00598722 -7.49418e-05 -0.000284351
0.00588599 3.36886e-05 -0.000634556
0.00595568 -0.000143515 -0.000260062
0.00588834 9.07533e-06 -0.000634035
0.00590538 0.000302742 -0.0006994
0.00586703 0.00017746 -0.000666939
0.006126 0.000205513 0.000182811
0.00594464 -8.55156e-05 -0.000261602
0.00599435 3.72369e-05 -0.000646529
0.00589845 7.63951e-05 -0.000649824
0.00596218 -0.000117944 -0.000273201
0.0064654 -0.000310964 -0.000621829
0.00558448 0.000539172 -0.000469416
0.00591062 7.34356e-05 -0.000647534
0.00584291 -0.000202195 -0.000227675
0.00619102 -0.000647691 -0.000509998
0.00609337 -2.63853e-05 -0.000652595
0.00594936 0.000264862 -0.000503265
0.00546092 0.000323921 -9.83845e-05
0.00597303 -0.000128324 -0.000268586
0.00591236 0.000555172 8.30976e-05
0.00595221 0.000122688 -0.000715447
0.00448942 0.000417974 -0.000348067
0.0055291 0.000445097 -0.000347975
0.0367013 0.0263245 -0.0854465
0.00518219 0.000139182 -0.000593921
0.023402 0.0263811 -0.0800806
0.00583019 5.44309e-05 -0.000622425
0.00612819 0.000216829 4.47245e-05
0.00596006 0.000132345 -0.000663809
0.0058881 0.00031359 -0.000699749
0.00565119 0.000636931 0.000304203
0.0055621 -0.000143015 -0.000568136
0.00610605 -2.21301e-06 -0.000645303
0.00615623 0.00022484 0.00017739
0.00577954 0.00078526 -0.000780627
0.00615669 0.000214832 0.000181018
0.0061246 0.000298471 0.00015128
0.00566755 -0.000106287 0.000270672
0.00604141 -6.01184e-05 -0.000331259
0.0051591 0.00068322 -0.000675822
0.00584913 2.8861e-05 -0.000631618
0.00626856 2.95651e-05 -0.000235549
0.00586833 -0.000101347 -0.000277586
0.00617372 0.000249754 0.000168865
0.00598594 0.0001244 -0.000678756
0.00617481 0.000252349 0.000168047
0.00568881 -8.96715e-05 0.000261263
0.00589201 6.05155e-05 -0.000643315
0.00617064 0.00037033 0.000127769
0.00539429 0.000602724 -9.12229e-06
0.00603403 9.09731e-05 0.000217597
0.00587004 4.14255e-05 -0.000635747
0.00648382 -0.000185721 -0.000645762
0.00566956 0.000130161 0.000189727
0.00583896 -0.000184303 -0.000234111
0.00570098 -0.000298037 -0.000539371
0.00585777 7.62024e-05 -0.000643668
0.00597094 0.000225556 0.000169961
0.00561485 -8.75284e-05 -0.000265345
0.00579897 -0.000102181 0.000277211
0.00590729 0.00022983 -0.000674513
0.00551785 -0.000144341 -0.000587724
0.00585643 0.000515059 0.00013515
0.0065669 -0.000116342 -0.000668744
0.00643849 -0.00026192 -0.000622041
0.00599576 6.9188e-05 0.000224274
0.00591247 1.81204e-06 0.00024408
0.00589735 5.18833e-05 -0.000597389
0.00571041 0.000190111 0.000171376
0.00555275 -0.000140814 -0.000562864
0.00640899 0.001473 -0.000855207
0.00542282 -5.78695e-05 -0.000561083
0.0059445 0.000173451 -0.000674645
0.00614342 0.000282599 0.000156909
0.00614812 0.000274584 0.000161782
0.00584468 0.000483962 0.000163564
0.00614955 0.000314454 0.000147905
0.00613759 0.000217871 0.000179053
0.00578589 7.29893e-05 -0.00063457
0.0057821 0.000267877 0.000146954
0.00543993 -9.86535e-05 -0.000567362
0.006488 0.00188292 -0.00113859
0.00567402 -4.35565e-06 -0.000568003
0.00610281 0.000264024 0.000160386
0.00568945 0.000562905 6.44634e-05
0.00535128 -7.21067e-05 -0.0005702
0.00589804 0.000166317 -0.000671616
0.00586213 0.000193946 -0.000321153
0.00558667 -0.00014652 0.000322144
0.00590941 0.000252642 -0.000688606
0.00581777 0.000163564 -0.000653052
0.00588333 0.000242041 -0.000683122
0.00568288 0.000217583 -6.93247e-05
0.00615614 0.000309092 0.000147597
0.00590408 0.000208619 0.000181127
0.00545353 -0.00023396 -0.000527645
0.00587193 2.85868e-05 -0.000631601
0.00589668 3.42536e-05 -0.000634708
0.00616323 0.000175879 0.000209803

VECTORS force float
8.40773e-11 1.77239e-09 2.63772e-10
5.94776e-10 -3.44171e-10 3.21909e-09
-6.62995e-10 -6.42185e-10 2.14764e-10
5.54289e-10 1.45682e-09 5.8471e-09
-4.22377e-09 3.32629e-10 -1.59554e-09
2.25777e-10 -8.26085e-10 8.97435e-10
-1.71573e-09 -1.32479e-09 -2.51189e-09
-1.91546e-10 -5.30026e-10 3.18533e-11
1.24494e-10 2.55289e-10 3.12852e-11
1.88248e-09 -3.22969e-10 -4.52453e-11
-4.35726e-10 -4.41061e-11 2.14852e-10
-6.2145e-10 1.19944e-09 4.37481e-09
1.78585e-09 5.37749e-11 -3.07654e-09
4.82413e-10 9.83298e-10 -4.30454e-10
3.80503e-23 -1.48893e-23 -1.65436e-24
4.37057e-10 3.38753e-10 4.58539e-10
2.73332e-09 1.56851e-10 2.96899e-10
1.58241e-10 -1.38238e-09 5.23194e-10
-4.57856e-10 -9.8036e-10 7.43699e-10
4.58259e-11 1.72313e-10 9.88754e-11
1.33017e-10 1.35137e-09 7.75382e-11
2.21501e-09 3.18492e-09 -1.1695e-09
3.65666e-10 -1.39765e-10 2.61102e-10
3.86449e-09 6.39323e-10 3.51782e-10
-2.5756e-10 -9.28759e-10 3.8319e-10
-2.74323e-10 -2.0768e-10 6.31874e-10
-1.84338e-09 -3.55658e-10 7.66959e-11
2.62263e-10 1.03215e-10 -1.21289e-10
1.89128e-10 1.73968e-10 3.42328e-11
7.50501e-10 5.98226e-10 -2.21632e-10
8.03422e-10 -9.53267e-10 -7.39528e-10
6.2693e-10 2.39227e-10 6.29508e-11
-1.07893e-10 3.23037e-10 -3.6901e-11
1.98857e-10 9.17758e-11 -7.55103e-11
-4.30566e-10 2.07513e-11 1.55999e-10
-3.97044e-09 5.70694e-10 -1.53666e-09
3.5106e-10 -1.65623e-10 -6.62459e-11
1.73999e-10 7.7547e-10 -3.92875e-10
-4.19664e-10 -2.20241e-10 8.22993e-11
3.08216e-10 1.43984e-10 7.03223e-11
3.94358e-10 -6.70858e-10 2.89293e-10
5.39419e-10 8.74871e-11 -7.5905e-11
-6.84677e-10 -1.90917e-10 7.39395e-11
-3.56877e-10 -5.1994e-11 1.95355e-09
1.15226e-09 -3.47476e-10 9.99521e-11
-2.04526e-11 -2.26845e-10 1.79568e-09
4.11016e-10 3.03776e-10 -1.142e-11
-3.61315e-10 -1.84511e-09 1.26445e-09
6.72084e-24 -4.1359e-25 0.0
-6.94784e-10 1.60972e-09 -1.63903e-09
6.70994e-09 -3.3822e-09 2.44089e-09
6.11453e-09 2.6625e-09 -1.25113e-09
8.37874e-10 -4.62303e-10 6.29502e-10
-4.02129e-10 -1.20191e-09 5.44716e-10
1.6387e-09 -1.50407e-09 5.83806e-10
-1.73358e-09 -9.48236e-10 5.63835e-10
5.74923e-10 3.85284e-11 8.97544e-11
2.2769e-09 -8.33465e-11 4.39417e-09
1.34555e-09 -4.42078e-10 1.32511e-10
-1.32308e-10 -7.3876e-10 3.07924e-10
8.40277e-11 4.8969e-10 3.51283e-10
-5.01247e-11 -1.03292e-10 3.68106e-11
4.47224e-10 -3.39643e-10 1.25792e-10
1.81184e-09 -1.05903e-09 3.28432e-10
3.23329e-10 1.45358e-10 1.6002e-10
3.87024e-10 8.48506e-10 -2.46852e-09
2.52484e-10 8.33291e-10 4.82355e-11
5.85561e-11 5.9094e-10 -2.055e-10
-7.41134e-10 -2.66371e-10 1.68812e-09
1.55154e-09 -8.7818e-10 2.2852e-10
-2.8261e-10 9.67124e-10 5.64425e-11
1.0328e-10 1.42789e-10 -5.37835e-11
-6.99503e-10 -3.63194e-10 7.43601e-10
2.01576e-10 3.52033e-11 6.31071e-11
7.65076e-10 -1.03355e-09 -1.64152e-09
-1.07715e-09 2.57336e-11 2.97445e-10
9.8102e-10 -1.96233e-09 2.46293e-10
-1.522e-09 -1.10386e-09 3.7892e-10
6.09049e-10 3.09022e-12 -1.1493e-10
1.22497e-10 3.33861e-10 -1.01638e-09
-1.52449e-09 1.1614e-09 -2.44206e-09
-2.23416e-10 -1.38801e-10 5.9298e-10
-4.4261e-10 3.13683e-10 -3.10674e-11
8.34641e-11 -2.74382e-09 -1.65601e-10
8.17984e-10 3.60067e-10 -1.70057e-10
6.73468e-10 -1.67942e-09 2.92681e-10
5.09513e-11 1.19582e-10 -2.52422e-11
7.75497e-10 -2.03413e-09 7.64546e-10
6.77187e-10 -4.74853e-10 2.1884e-11
1.48656e-10 -6.31578e-10 5.71241e-11
-9.70133e-10 3.57681e-10 3.51447e-11
2.77774e-10 -3.25187e-10 1.11681e-09
-4.85616e-11 -1.75417e-09 -1.17502e-10
1.57285e-09 1.33354e-10 2.73917e-11
-5.18152e-10 8.17805e-11 -7.93057e-10
-5.85339e-10 -4.12999e-10 1.51174e-09
-1.68553e-09 -5.89178e-10 2.91609e-10
1.79083e-09 1.13948e-09 -2.40626e-10
-2.18651e-09 -2.62041e-09 1.85141e-09
1.27665e-09 -1.53378e-09 1.75827e-09
1.18756e-09 -1.62573e-11 -3.11759e-10
-5.03211e-10 3.19985e-10 -1.83574e-12
-2.339e-09 -1.09673e-09 8.07711e-10
9.58296e-10 -9.99315e-10 -1.53871e-10
2.99891e-09 -1.05842e-10 4.09702e-10
1.46834e-09 -1.93998e-09 -5.48035e-10
7.25585e-10 2.18782e-10 4.60475e-10
8.74492e-12 -9.0813e-10 2.04796e-10
-8.14916e-10 -5.84858e-10 1.61114e-09
-9.84314e-10 -6.43303e-10 1.47803e-10
-8.89181e-10 -7.17678e-10 8.38053e-11
1.03615e-09 -2.33932e-10 -2.33362e-10
4.63207e-10 -7.59151e-11 -1.71891e-10
2.91217e-10 -9.58733e-10 1.35037e-09
1.2545e-09 -7.3959e-11 2.95771e-10
2.95691e-09 -3.32389e-09 1.60032e-09
1.45682e-10 -1.02115e-09 2.54199e-09
9.68675e-10 -1.33902e-09 1.51022e-09
7.34657e-10 -6.82466e-10 1.29771e-10
1.39923e-09 -7.16689e-10 -4.89986e-10
-3.91061e-10 -2.39374e-09 6.11643e-10
5.14028e-10 1.38316e-09 -3.16238e-10
2.52434e-09 -1.46408e-09 -5.46261e-11
-3.77033e-10 -1.5111e-10 -1.89787e-10
1.17219e-09 -6.43015e-11 5.24561e-11
9.95923e-11 -2.30749e-10 -1.2245e-09
3.73231e-10 -2.08216e-09 -2.94521e-10
7.99048e-10 -6.40363e-10 -1.68886e-09
-1.62826e-09 -2.63376e-10 -1.44178e-10
4.0645e-11 7.33092e-10 -4.42492e-10
1.27703e-09 -5.37756e-10 6.7077e-10
4.66718e-10 -1.13141e-09 1.35406e-10
9.98403e-10 -1.95384e-10 1.38397e-10
-4.28819e-12 3.11179e-09 -8.29903e-09
1.65432e-10 -7.98194e-10 1.45071e-09
-4.88268e-10 -3.96416e-10 -7.40252e-10
-3.40786e-10 -5.84105e-10 3.62936e-10
1.23232e-09 -3.21537e-10 1.67766e-11
-9.17947e-10 4.19022e-10 -4.32546e-10
-1.72123e-09 -1.41566e-09 8.02537e-10
-2.94867e-11 -8.98333e-11 1.8193e-10
-2.23508e-09 6.89203e-11 1.61852e-10
-4.74994e-11 -1.48888e-09 -8.25868e-11
1.67867e-09 -6.3478e-10 1.03613e-09
1.0387e-09 1.72231e-10 2.90875e-09
5.84206e-11 5.92671e-10 1.35374e-10
6.13796e-10 -9.24556e-10 6.53636e-10
-6.81726e-10 2.39785e-10 -1.59613e-10
-5.57697e-10 -1.33942e-10 -1.29614e-11
1.31438e-09 3.3276e-10 -1.8484e-10
-1.58715e-09 -8.07441e-10 2.28052e-11
-1.15483e-09 -1.79966e-09 5.6165e-10
-2.49634e-09 3.22691e-09 -8.45648e-09
-5.29946e-09 -3.10258e-09 1.12043e-09
2.07057e-09 2.40206e-10 2.18772e-10
9.95829e-11 -1.88931e-09 6.80295e-10
2.08573e-09 1.13394e-10 -3.54452e-11
2.8172e-10 2.50135e-09 -3.94338e-10
2.26328e-09 -1.13824e-09 5.6445e-10
0.0 0.0 0.0
2.01425e-09 -1.15452e-09 4.6577e-10
-5.67271e-10 -1.16565e-09 -3.61898e-10
7.72763e-10 1.0135e-09 -1.0459e-09
9.10724e-10 -1.25932e-09 7.42676e-11
6.62492e-09 1.68587e-10 -1.36978e-11
-4.13403e-09 1.25693e-09 1.83397e-10
8.07798e-10 -9.22298e-10 1.34208e-09
-7.51871e-10 1.07731e-09 -4.78474e-10
-2.06042e-10 -7.50198e-10 1.05714e-10
-8.61559e-10 8.15719e-10 -2.19325e-10
5.18772e-10 1.09201e-10 3.96992e-09
9.10864e-10 -2.37329e-09 -3.74767e-11
-8.44471e-10 -7.72774e-10 3.14794e-10
1.86117e-11 -5.78114e-10 2.54421e-10
4.30178e-10 -9.07642e-10 2.48501e-10
1.77123e-09 -3.33237e-10 7.78534e-11
-3.18745e-10 -4.82204e-10 3.62125e-10
9.5777e-10 -1.39846e-09 9.22582e-10
7.91036e-10 -6.66514e-10 5.98202e-11
3.36286e-10 1.50382e-09 -2.29405e-10
-1.25374e-09 1.41881e-10 -1.19218e-10
-1.99409e-09 -6.44668e-10 3.25591e-10
5.1457e-10 2.38401e-10 4.13613e-11
5.43108e-10 2.35694e-09 2.92777e-09
-5.97548e-10 8.00538e-10 2.57087e-10
2.75035e-10 -4.08441e-10 3.75383e-10
-8.61703e-10 -2.76987e-09 4.88065e-10
-2.51743e-10 -1.41924e-10 4.11364e-10
4.75405e-10 2.4332e-09 -7.59965e-10
-4.60946e-10 -7.38796e-10 2.92453e-13
-3.01196e-11 -8.13635e-10 -7.85136e-11
-9.10184e-11 3.88609e-10 -2.16082e-10
1.02773e-09 -2.36926e-10 3.05515e-10
1.84789e-10 6.01146e-10 -3.26814e-10
1.26546e-10 -4.55474e-10 -3.10699e-10
9.1593e-10 8.82612e-10 -4.2352e-10
-5.40869e-11 -8.52348e-10 8.84292e-11
1.31479e-09 -4.21462e-09 8.49861e-10
-7.08783e-11 -4.62188e-10 1.33667e-10
4.3666e-10 1.47233e-09 -5.49599e-10
9.55928e-10 7.09261e-10 -3.69768e-10
-1.83884e-09 -1.33702e-10 6.31651e-10
-2.58278e-09 8.31138e-10 -3.49428e-10
4.74844e-10 1.1679e-10 2.50405e-11
-7.93677e-10 1.97676e-09 1.32633e-10
-3.50418e-09 4.96659e-09 -7.05556e-09
1.1721e-09 -8.90692e-10 1.02016e-10
-6.71678e-10 6.61215e-10 -2.35138e-10
-3.99397e-10 1.2092e-10 -5.7196e-10
1.39218e-09 -1.37386e-09 4.51549e-10
-5.06516e-10 -7.50106e-11 3.25999e-09
-5.75962e-09 -1.58132e-09 -3.53782e-10
2.73187e-11 5.34506e-10 1.68335e-11
1.07268e-09 -7.58555e-10 1.1972e-09
2.2267e-10 8.64423e-11 1.82913e-09
-2.612e-10 -1.56432e-12 -1.93545e-10
2.23546e-09 2.19676e-09 -2.60569e-09
-1.82955e-10 3.15899e-09 -8.35081e-09
2.18523e-08 3.09938e-09 -3.72046e-09
8.38059e-10 2.75982e-09 -7.70962e-09
-1.27574e-09 1.11688e-09 -6.6424e-11
1.51183e-09 -1.5222e-09 3.33621e-09
-9.006e-10 -8.19734e-10 -6.12989e-11
-6.57492e-10 -1.29254e-10 -8.81671e-11
-2.57156e-09 -6.36801e-10 8.31405e-10
9.4527e-10 -1.27634e-09 1.43475e-10
6.18779e-09 1.1056e-09 1.32668e-09
-3.85449e-10 1.5716e-09 -5.23191e-10
-1.01767e-09 3.42497e-09 -5.42915e-09
-3.01659e-11 -9.23722e-10 1.30385e-10
4.3869e-11 -6.53199e-10 -1.57805e-11
-1.11133e-10 -1.17101e-09 4.09101e-10
-2.95091e-09 -1.9587e-09 2.81805e-09
-5.4948e-09 7.65938e-10 -6.54738e-09
6.86944e-10 5.47094e-10 -1.81344e-10
5.35615e-10 -3.34478e-09 3.93215e-09
8.70507e-11 1.54692e-09 2.3114e-10
-2.73634e-10 1.2628e-09 -3.71803e-10
-2.05856e-10 -1.35839e-10 2.25542e-10
-6.92205e-10 2.5089e-09 -9.12578e-10
1.16409e-09 -3.02765e-10 1.79773e-10
2.80913e-10 -2.85349e-10 -2.71139e-10
-7.33801e-10 -8.25129e-10 2.94562e-10
1.00335e-09 -1.29966e-09 1.70356e-09
1.68741e-09 -3.93088e-09 1.44548e-09
3.01557e-10 -5.37703e-11 4.29098e-10
-5.02876e-09 7.57577e-09 -1.06064e-09
5.00821e-11 -1.26867e-10 1.29673e-10
1.55728e-09 -7.01136e-10 1.39236e-10
-1.40524e-10 -5.82189e-10 1.48935e-10
-3.60732e-09 1.29756e-09 7.70563e-10
1.1696e-09 1.77564e-09 -6.66017e-10
-2.77353e-10 1.22548e-09 -2.86544e-09
-1.05521e-10 -2.84323e-09 1.04416e-09
7.48084e-10 1.66574e-10 1.84203e-10
-3.74597e-10 4.76003e-10 -2.63117e-09
1.81514e-09 -8.98165e-10 1.23819e-09
-4.99741e-09 1.55116e-09 1.68726e-09
-2.07772e-09 7.07358e-09 -1.90434e-09
1.85582e-09 -3.13296e-09 1.13025e-09
2.63416e-09 -1.23279e-09 5.98013e-10
-3.90528e-09 -1.58713e-09 1.91915e-09
1.11998e-10 2.12851e-10 -6.72843e-11
8.71995e-10 -1.1086e-10 -2.13752e-09
7.87017e-12 6.25177e-12 -3.32768e-12
-1.48189e-09 8.42584e-10 1.49483e-09
3.81613e-09 -1.11582e-09 1.28009e-10
4.04016e-11 -1.26324e-10 1.52968e-10
-5.59377e-10 -1.00933e-09 4.1456e-10
-6.25546e-10 -5.79403e-10 4.29593e-10
-6.6223e-10 -2.3836e-09 8.99352e-10
9.484e-10 2.45251e-09 -7.17449e-10
2.04154e-09 4.82422e-09 -1.27786e-10
1.05154e-09 -7.91929e-10 3.40307e-10
1.83754e-09 -4.34489e-10 -2.96902e-09
7.86316e-11 -3.51075e-10 1.41532e-10
-1.27806e-09 -1.61099e-09 1.65063e-09
-6.93793e-11 9.7558e-10 -2.56217e-10
2.42614e-09 5.30233e-10 -3.24214e-10
-1.15756e-09 -8.89861e-10 -5.37666e-10
6.04467e-11 7.24441e-10 8.21958e-10
-3.29571e-10 -4.21378e-10 -4.22625e-10
1.25642e-09 1.94474e-11 7.68935e-10
5.01926e-09 -2.82096e-09 7.52333e-11
-1.13765e-09 -2.15551e-09 7.98575e-10
5.62585e-10 4.54054e-10 -1.82604e-10
-4.53746e-10 -2.1338e-09 2.95658e-09
2.02152e-10 -7.11691e-10 2.46307e-10
-1.44579e-09 -4.2322e-10 5.64637e-10
-1.90761e-09 -2.06233e-09 1.1663e-09
2.59255e-10 6.64474e-10 -3.22785e-10
6.00346e-10 -1.42563e-10 -4.6276e-10
2.22112e-09 -1.13898e-09 7.1138e-10
