# vtk DataFile Version 3.0
LIGGGHTS particles timestep 1200000
ASCII
DATASET POLYDATA
POINTS 223 float
0.0200007 0.0172238 0.00732144
0.0166675 0.0200541 0.00715973
0.020703 0.0191395 0.00691971
0.0200391 0.0174006 0.00723637
0.025875 0.0166771 0.00763424
0.0257511 0.0162075 0.00798644
0.0199223 0.0168703 0.00749149
0.0263186 0.0187023 0.00700972
0.0201569 0.0179711 0.00709734
0.0211318 0.0181421 0.00710192
0.0205407 0.0180961 0.00709026
0.0200784 0.0175868 0.00717405
0.0146749 0.0196772 0.00714698
0.0203282 0.0187434 0.00697698
0.0146493 0.0194189 0.00711553
0.0201177 0.0177773 0.00712766
0.0202683 0.0176474 0.00715578
0.0210578 0.0186443 0.00701408
0.020228 0.0174574 0.00720358
0.0207325 0.0181583 0.00708676
0.0172729 0.0202919 0.00713815
0.0259147 0.016834 0.00751662
0.0204726 0.0177286 0.007148
0.025952 0.0169911 0.00739868
0.020371 0.0189362 0.00694532
0.0260304 0.0173571 0.00726893
0.026305 0.0178108 0.00717603
0.0202426 0.0183574 0.00703714
0.0204349 0.0184202 0.00703356
0.0208626 0.0177936 0.00715094
0.0207739 0.0175623 0.0071857
0.0205836 0.0182892 0.00706017
0.0262762 0.0185104 0.00704674
0.0203921 0.0182272 0.00706364
0.0203087 0.0178407 0.0071243
0.0258357 0.0165203 0.00775192
0.0209156 0.0188704 0.00697153
0.0203879 0.0172515 0.00729632
0.0206265 0.0184822 0.00702991
0.0205708 0.0179011 0.0071232
0.0209321 0.0181507 0.00709495
0.02113 0.0183393 0.00706818
0.0261083 0.0177424 0.00719483
0.0199619 0.0170469 0.00740648
0.0205204 0.018806 0.0069717
0.0204932 0.0194953 0.0069231
0.0204777 0.0186132 0.00700346
0.0208994 0.0191033 0.00693128
0.0145754 0.0198494 0.00716836
0.0261768 0.017093 0.00732396
0.0201517 0.0171036 0.00737376
0.0146248 0.0200711 0.0071974
0.0200338 0.0165756 0.00763309
0.0259909 0.0171649 0.00730777
0.021112 0.0188342 0.0069831
0.0260689 0.0175498 0.00723188
0.0207612 0.0179631 0.00711968
0.0201901 0.0172805 0.0072887
0.0206704 0.0186763 0.00699795
0.0204524 0.0193033 0.00688481
0.026149 0.0179347 0.0071578
0.0202854 0.0185504 0.00700706
0.0168136 0.0206487 0.00741556
0.0209621 0.0184455 0.0070454
0.0203493 0.0180341 0.00709373
0.0145115 0.0195627 0.00713359
0.0262338 0.0183185 0.00708376
0.0144632 0.019346 0.00710731
0.0208495 0.0193195 0.00689297
0.02086 0.0186146 0.00701372
0.0261914 0.0181266 0.00712078
0.0201997 0.0181642 0.00706725
0.0210843 0.0190294 0.006949
0.0227079 0.0194719 0.00691802
0.0148693 0.020667 0.00729457
0.0153143 0.02067 0.00727024
0.0205545 0.0238948 0.0121917
0.0162032 0.0227538 0.00986537
0.0167373 0.0202413 0.00717249
0.0156045 0.0225559 0.00946757
0.0262217 0.0174222 0.0072509
0.0155748 0.0235074 0.0134847
0.0204145 0.0191291 0.00697539
0.0209742 0.017958 0.00712794
0.0216993 0.0196389 0.00695063
0.0208899 0.0174022 0.00721592
0.0150774 0.0233239 0.0138612
0.0212918 0.0180247 0.00712638
0.0214029 0.0191264 0.00694118
0.0219996 0.0195105 0.00689337
0.0218056 0.019462 0.0068949
0.0262611 0.0176148 0.00721386
0.0168669 0.0206187 0.00719959
0.0214065 0.0194601 0.0068877
0.0155334 0.0207781 0.00727832
0.0205866 0.0172293 0.00730072
0.0198417 0.0165192 0.00766541
0.0174528 0.0208097 0.00734258
0.0207733 0.0239131 0.0117885
0.0200734 0.0167501 0.00754382
0.0146761 0.0203083 0.00723866
0.0195121 0.023898 0.0117366
0.0151169 0.0206313 0.00727408
0.0198012 0.0163564 0.00777421
0.0179565 0.0198585 0.0166437
0.0214606 0.0188992 0.0069816
0.0212107 0.0194193 0.00688586
0.0159126 0.0226986 0.00973579
0.0189828 0.023858 0.0121521
0.0169844 0.0201398 0.00714474
0.0199274 0.0239082 0.011766
0.0213097 0.0182539 0.00708771
0.0198826 0.0166942 0.00757763
0.0164967 0.0228045 0.00998864
0.0206738 0.0173908 0.00722141
0.0206725 0.0177318 0.00715444
0.0201129 0.0169268 0.00745881
0.0205677 0.0197625 0.00702573
0.0155189 0.0205573 0.00725141
0.0205621 0.0189989 0.00693985
0.0205739 0.0175601 0.00718446
0.0189667 0.0238828 0.0117136
0.0199157 0.0168928 0.0076901
0.0210487 0.0193031 0.00690126
0.0153076 0.0204399 0.00723784
0.0207753 0.0183513 0.00705637
0.015025 0.0209676 0.0073418
0.0208905 0.0195133 0.00692072
0.0204258 0.0174285 0.00721121
0.0212758 0.0189736 0.00696379
0.0199611 0.0167113 0.00776079
0.0148106 0.020164 0.00720593
0.0221006 0.0193406 0.00692376
0.0215117 0.0192923 0.00691582
0.015198 0.0183344 0.00698116
0.02065 0.0193311 0.00689841
0.0149829 0.020481 0.00725362
0.0170963 0.0229206 0.0101293
0.0207157 0.0188735 0.00696551
0.0140205 0.0228652 0.014513
0.0212386 0.018561 0.00703327
0.0153627 0.0208817 0.00730691
0.018339 0.0231926 0.010265
0.021606 0.0194734 0.00688817
0.0172555 0.0142202 0.0120124
0.020691 0.0195244 0.00692976
0.015572 0.0210529 0.00732705
0.0163867 0.0158228 0.024492
0.0174724 0.0185867 0.0256222
0.0158035 0.0235918 0.0133116
0.0173861 0.0230372 0.0103022
0.0217048 0.0205476 0.0208326
0.0161578 0.0224653 0.0208853
0.0176255 0.0151962 0.0225327
0.0184226 0.0209162 0.020667
0.0230323 0.0206353 0.0152207
0.0175423 0.0233519 0.0275002
0.0203585 0.0175199 0.0196349
0.0237336 0.0193386 0.0211142
0.0355847 0.0192167 0.0601185
0.0215956 0.0158621 0.0229818
0.0156831 0.0164901 0.0229749
0.0202272 0.0221235 0.0274828
0.0187086 0.0189789 0.0269661
0.0203495 0.0170746 0.00738139
0.0201391 0.0204827 0.0192234
0.0211063 0.0161532 0.019982
0.0183074 0.0205554 0.0202508
0.0176061 0.0170396 0.0227287
0.0174439 0.0229988 0.0127272
0.0210262 0.0208862 0.0242547
0.0208525 0.0205134 0.0274749
0.0167992 0.020431 0.00718606
0.0204693 0.0195001 0.0195276
0.016032 0.0189085 0.0184166
0.0196833 0.0163685 0.0250428
0.0197262 0.0239084 0.0117618
0.0219911 0.0169287 0.0184016
0.0171166 0.0205154 0.00717344
0.0159667 0.0228051 0.0223687
0.0232432 0.0164169 0.0231278
0.0210587 0.0238945 0.0122927
0.02107 0.0170872 0.0184105
0.0164663 0.0236705 0.0131471
0.0236135 0.0218784 0.00857006
0.0187601 0.0212681 0.0221239
0.0202483 0.0153552 0.0200157
0.0179497 0.0155184 0.0149519
0.0213313 0.0181362 0.0211197
0.0148299 0.0163242 0.015497
0.018635 0.0173842 0.0261668
0.0168374 0.0196392 0.0188146
0.0195182 0.0184821 0.0204865
0.0175864 0.0211712 0.0240764
0.0246625 0.0186135 0.0155337
0.0198611 0.0244679 0.0129633
0.0199529 0.0168901 0.00803881
0.0183725 0.0211044 0.0271634
0.0146467 0.0231331 0.0141227
0.0188428 0.0223694 0.0269762
0.0174195 0.0142177 0.0123726
0.019531 0.0205273 0.015262
0.0162047 0.0182577 0.0243963
0.0200958 0.0154267 0.0211582
0.0227985 0.021626 0.0183694
0.0208805 0.0222565 0.0195305
0.022659 0.0158496 0.0217417
0.0219328 0.0238901 0.0131776
0.016672 0.0214482 0.0255394
0.0195972 0.0204017 0.0180125
0.0200064 0.0164111 0.00774343
0.0238348 0.0203469 0.0230542
0.022736 0.0222134 0.025581
0.0170385 0.0203318 0.0071591
0.0148808 0.0178579 0.0258633
0.0185297 0.0156953 0.0183161
0.0164664 0.0210217 0.0204975
0.0171213 0.0207008 0.00724832
0.0257944 0.0163637 0.00786931
0.0198378 0.0226428 0.0185421
0.0143156 0.0147151 0.0114552
0.0171554 0.0214294 0.0254568
0.0161789 0.0169139 0.0247503

VERTICES 223 446
1 0
1 1
1 2
1 3
1 4
1 5
1 6
1 7
1 8
1 9
1 10
1 11
1 12
1 13
1 14
1 15
1 16
1 17
1 18
1 19
1 20
1 21
1 22
1 23
1 24
1 25
1 26
1 27
1 28
1 29
1 30
1 31
1 32
1 33
1 34
1 35
1 36
1 37
1 38
1 39
1 40
1 41
1 42
1 43
1 44
1 45
1 46
1 47
1 48
1 49
1 50
1 51
1 52
1 53
1 54
1 55
1 56
1 57
1 58
1 59
1 60
1 61
1 62
1 63
1 64
1 65
1 66
1 67
1 68
1 69
1 70
1 71
1 72
1 73
1 74
1 75
1 76
1 77
1 78
1 79
1 80
1 81
1 82
1 83
1 84
1 85
1 86
1 87
1 88
1 89
1 90
1 91
1 92
1 93
1 94
1 95
1 96
1 97
1 98
1 99
1 100
1 101
1 102
1 103
1 104
1 105
1 106
1 107
1 108
1 109
1 110
1 111
1 112
1 113
1 114
1 115
1 116
1 117
1 118
1 119
1 120
1 121
1 122
1 123
1 124
1 125
1 126
1 127
1 128
1 129
1 130
1 131
1 132
1 133
1 134
1 135
1 136
1 137
1 138
1 139
1 140
1 141
1 142
1 143
1 144
1 145
1 146
1 147
1 148
1 149
1 150
1 151
1 152
1 153
1 154
1 155
1 156
1 157
1 158
1 159
1 160
1 161
1 162
1 163
1 164
1 165
1 166
1 167
1 168
1 169
1 170
1 171
1 172
1 173
1 174
1 175
1 176
1 177
1 178
1 179
1 180
1 181
1 182
1 183
1 184
1 185
1 186
1 187
1 188
1 189
1 190
1 191
1 192
1 193
1 194
1 195
1 196
1 197
1 198
1 199
1 200
1 201
1 202
1 203
1 204
1 205
1 206
1 207
1 208
1 209
1 210
1 211
1 212
1 213
1 214
1 215
1 216
1 217
1 218
1 219
1 220
1 221
1 222

POINT_DATA 223
SCALARS id int 1
LOOKUP_TABLE default
1
3
4
5
6
7
8
9
10
11
12
13
14
15
16
17
19
20
21
22
23
24
25
26
27
28
29
30
31
32
33
34
35
36
37
38
39
40
41
42
43
44
45
46
47
48
49
50
51
52
53
54
55
56
57
58
59
60
61
62
63
64
65
66
67
68
69
70
71
72
73
74
75
76
77
78
79
80
81
82
83
84
85
86
87
88
89
90
91
92
93
94
95
96
97
98
99
100
101
102
103
104
105
106
107
108
109
110
111
112
113
114
115
116
117
118
119
120
121
122
123
124
125
126
127
128
129
130
131
132
133
134
135
136
137
138
139
140
142
143
144
145
146
147
148
149
150
151
152
153
154
155
156
157
158
159
160
161
162
163
164
165
166
167
168
169
170
171
172
173
174
175
176
177
178
179
180
181
182
183
184
185
186
187
188
189
190
191
192
193
194
195
196
197
198
199
200
201
202
203
204
205
206
207
208
209
210
211
212
213
214
215
216
217
218
219
220
221
222
223
224
225
226

SCALARS type int 1
LOOKUP_TABLE default
1
1
1
1
1
1
1
1
1
1
1
1
1
1
1
1
1
1
1
1
1
1
1
1
1
1
1
1
1
1
1
1
1
1
1
1
1
1
1
1
1
1
1
1
1
1
1
1
1
1
1
1
1
1
1
1
1
1
1
1
1
1
1
1
1
1
1
1
1
1
1
1
1
1
1
1
1
1
1
1
1
1
1
1
1
1
1
1
1
1
1
1
1
1
1
1
1
1
1
1
1
1
1
1
1
1
1
1
1
1
1
1
1
1
1
1
1
1
1
1
1
1
1
1
1
1
1
1
1
1
1
1
1
1
1
1
1
1
1
1
1
1
1
1
1
1
1
1
1
1
1
1
1
1
1
1
1
1
1
1
1
1
1
1
1
1
1
1
1
1
1
1
1
1
1
1
1
1
1
1
1
1
1
1
1
1
1
1
1
1
1
1
1
1
1
1
1
1
1
1
1
1
1
1
1
1
1
1
1
1
1
1
1
1
1
1
1
1
1
1
1
1
1

SCALARS radius float 1
LOOKUP_TABLE default
0.0001
0.0001
0.0001
0.0001
0.0001
0.0001
0.0001
0.0001
0.0001
0.0001
0.0001
0.0001
0.0001
0.0001
0.0001
0.0001
0.0001
0.0001
0.0001
0.0001
0.0001
0.0001
0.0001
0.0001
0.0001
0.0001
0.0001
0.0001
0.0001
0.0001
0.0001
0.0001
0.0001
0.0001
0.0001
0.0001
0.0001
0.0001
0.0001
0.0001
0.0001
0.0001
0.0001
0.0001
0.0001
0.0001
0.0001
0.0001
0.0001
0.0001
0.0001
0.0001
0.0001
0.0001
0.0001
0.0001
0.0001
0.0001
0.0001
0.0001
0.0001
0.0001
0.0001
0.0001
0.0001
0.0001
0.0001
0.0001
0.0001
0.0001
0.0001
0.0001
0.0001
0.0001
0.0001
0.0001
0.0001
0.0001
0.0001
0.0001
0.0001
0.0001
0.0001
0.0001
0.0001
0.0001
0.0001
0.0001
0.0001
0.0001
0.0001
0.0001
0.0001
0.0001
0.0001
0.0001
0.0001
0.0001
0.0001
0.0001
0.0001
0.0001
0.0001
0.0001
0.0001
0.0001
0.0001
0.0001
0.0001
0.0001
0.0001
0.0001
0.0001
0.0001
0.0001
0.0001
0.0001
0.0001
0.0001
0.0001
0.0001
0.0001
0.0001
0.0001
0.0001
0.0001
0.0001
0.0001
0.0001
0.0001
0.0001
0.0001
0.0001
0.0001
0.0001
0.0001
0.0001
0.0001
0.0001
0.0001
0.0001
0.0001
0.0001
0.0001
0.0001
0.0001
0.0001
0.0001
0.0001
0.0001
0.0001
0.0001
0.0001
0.0001
0.0001
0.0001
0.0001
0.0001
0.0001
0.0001
0.0001
0.0001
0.0001
0.0001
0.0001
0.0001
0.0001
0.0001
0.0001
0.0001
0.0001
0.0001
0.0001
0.0001
0.0001
0.0001
0.0001
0.0001
0.0001
0.0001
0.0001
0.0001
0.0001
0.0001
0.0001
0.0001
0.0001
0.0001
0.0001
0.0001
0.0001
0.0001
0.0001
0.0001
0.0001
0.0001
0.0001
0.0001
0.0001
0.0001
0.0001
0.0001
0.0001
0.0001
0.0001
0.0001
0.0001
0.0001
0.0001
0.0001
0.0001
0.0001
0.0001
0.0001
0.0001
0.0001
0.0001
0.0001
0.0001
0.0001
0.0001
0.0001
0.0001

SCALARS mass float 1
LOOKUP_TABLE default
1.17286e-09
1.17286e-09
1.17286e-09
1.17286e-09
1.17286e-09
1.17286e-09
1.17286e-09
1.17286e-09
1.17286e-09
1.17286e-09
1.17286e-09
1.17286e-09
1.17286e-09
1.17286e-09
1.17286e-09
1.17286e-09
1.17286e-09
1.17286e-09
1.17286e-09
1.17286e-09
1.17286e-09
1.17286e-09
1.17286e-09
1.17286e-09
1.17286e-09
1.17286e-09
1.17286e-09
1.17286e-09
1.17286e-09
1.17286e-09
1.17286e-09
1.17286e-09
1.17286e-09
1.17286e-09
1.17286e-09
1.17286e-09
1.17286e-09
1.17286e-09
1.17286e-09
1.17286e-09
1.17286e-09
1.17286e-09
1.17286e-09
1.17286e-09
1.17286e-09
1.17286e-09
1.17286e-09
1.17286e-09
1.17286e-09
1.17286e-09
1.17286e-09
1.17286e-09
1.17286e-09
1.17286e-09
1.17286e-09
1.17286e-09
1.17286e-09
1.17286e-09
1.17286e-09
1.17286e-09
1.17286e-09
1.17286e-09
1.17286e-09
1.17286e-09
1.17286e-09
1.17286e-09
1.17286e-09
1.17286e-09
1.17286e-09
1.17286e-09
1.17286e-09
1.17286e-09
1.17286e-09
1.17286e-09
1.17286e-09
1.17286e-09
1.17286e-09
1.17286e-09
1.17286e-09
1.17286e-09
1.17286e-09
1.17286e-09
1.17286e-09
1.17286e-09
1.17286e-09
1.17286e-09
1.17286e-09
1.17286e-09
1.17286e-09
1.17286e-09
1.17286e-09
1.17286e-09
1.17286e-09
1.17286e-09
1.17286e-09
1.17286e-09
1.17286e-09
1.17286e-09
1.17286e-09
1.17286e-09
1.17286e-09
1.17286e-09
1.17286e-09
1.17286e-09
1.17286e-09
1.17286e-09
1.17286e-09
1.17286e-09
1.17286e-09
1.17286e-09
1.17286e-09
1.17286e-09
1.17286e-09
1.17286e-09
1.17286e-09
1.17286e-09
1.17286e-09
1.17286e-09
1.17286e-09
1.17286e-09
1.17286e-09
1.17286e-09
1.17286e-09
1.17286e-09
1.17286e-09
1.17286e-09
1.17286e-09
1.17286e-09
1.17286e-09
1.17286e-09
1.17286e-09
1.17286e-09
1.17286e-09
1.17286e-09
1.17286e-09
1.17286e-09
1.17286e-09
1.17286e-09
1.17286e-09
1.17286e-09
1.17286e-09
1.17286e-09
1.17286e-09
1.17286e-09
1.17286e-09
1.17286e-09
1.17286e-09
1.17286e-09
1.17286e-09
1.17286e-09
1.17286e-09
1.17286e-09
1.17286e-09
1.17286e-09
1.17286e-09
1.17286e-09
1.17286e-09
1.17286e-09
1.17286e-09
1.17286e-09
1.17286e-09
1.17286e-09
1.17286e-09
1.17286e-09
1.17286e-09
1.17286e-09
1.17286e-09
1.17286e-09
1.17286e-09
1.17286e-09
1.17286e-09
1.17286e-09
1.17286e-09
1.17286e-09
1.17286e-09
1.17286e-09
1.17286e-09
1.17286e-09
1.17286e-09
1.17286e-09
1.17286e-09
1.17286e-09
1.17286e-09
1.17286e-09
1.17286e-09
1.17286e-09
1.17286e-09
1.17286e-09
1.17286e-09
1.17286e-09
1.17286e-09
1.17286e-09
1.17286e-09
1.17286e-09
1.17286e-09
1.17286e-09
1.17286e-09
1.17286e-09
1.17286e-09
1.17286e-09
1.17286e-09
1.17286e-09
1.17286e-09
1.17286e-09
1.17286e-09
1.17286e-09
1.17286e-09
1.17286e-09
1.17286e-09
1.17286e-09
1.17286e-09
1.17286e-09
1.17286e-09
1.17286e-09
1.17286e-09
1.17286e-09
1.17286e-09
1.17286e-09
1.17286e-09
1.17286e-09
1.17286e-09
1.17286e-09
1.17286e-09

VECTORS velocity float
0.00505042 -0.00203303 0.000814956
-7.2213e-08 4.35584e-07 4.6841e-08
0.00572652 -0.00232778 0.000557078
0.00509142 -0.00202241 0.000799921
0.0056465 -0.000251226 0.000297123
0.00603535 -0.000269851 0.000323723
0.00513722 -0.00206714 0.000881947
0.0059737 -0.000470609 -9.68527e-05
0.00545263 -0.00225702 0.000559634
0.00559033 -0.00232004 0.000552706
0.00551906 -0.00241445 0.000581335
0.00514576 -0.0021064 0.000314761
0.00462456 -0.00542952 -0.000679473
0.00566381 -0.00225789 0.000576823
0.00470341 -0.00554016 -0.000693264
0.00511027 -0.00216383 0.000491871
0.00518588 -0.00210989 0.000715256
0.00578354 -0.0018071 0.000469795
0.00508794 -0.00203753 0.000790626
0.00559206 -0.0023462 0.000579845
-7.09764e-16 9.24524e-16 -9.69616e-15
0.00561731 -0.000241744 0.000292743
0.00532932 -0.00237027 0.000656418
0.0055773 -0.000233537 0.00028867
0.00570435 -0.00229086 0.000585089
0.00546508 -0.000379921 -9.06321e-05
0.00567747 -0.000536742 -7.55758e-05
0.00555744 -0.00227412 0.000565918
0.00557627 -0.00235108 0.000581642
0.0053529 -0.00237029 0.000571954
0.0053221 -0.00243123 0.000588945
0.00560196 -0.00233641 0.000578921
0.00591006 -0.000467971 -9.53423e-05
0.00556502 -0.00232206 0.00056577
0.00537908 -0.00221786 0.000592583
0.00564645 -0.000230398 0.000284865
0.00566994 -0.00181768 0.000467942
0.00503136 -0.00198934 0.000785313
0.00557571 -0.00243251 0.000580499
0.00543023 -0.00243836 0.000589605
0.00559354 -0.00234017 0.000578489
0.00596627 -0.00231682 0.000558904
0.00548227 -0.000395557 -9.57692e-05
0.00502695 -0.00207085 0.000808373
0.00572264 -0.00235177 0.000574557
0.00529299 -0.00201851 -0.000692143
0.00562677 -0.00234603 0.00058415
0.00577288 -0.00209982 0.000526102
0.00468993 -0.00539226 -0.000675158
0.00546066 -0.000331083 0.000146793
0.00501278 -0.00206512 0.000835613
0.00457993 -0.0057104 -0.00131858
0.00551523 -0.00205987 0.00155682
0.00545937 -0.00037208 -4.45521e-05
0.0057601 -0.00177713 0.000460987
0.00545181 -0.000380527 -9.86438e-05
0.00537929 -0.00236635 0.000573142
0.00504136 -0.00203358 0.000808979
0.00578071 -0.00235991 0.00056285
0.00570566 -0.00240219 0.000551963
0.00572627 -0.000455745 -9.20126e-05
0.00553222 -0.00246641 0.000596632
-0.0288022 -0.0154825 -0.00191803
0.00594303 -0.00229426 0.000557355
0.00549617 -0.00226574 0.000535803
0.0047033 -0.00554023 -0.000693272
0.00584675 -0.00047415 -9.27982e-05
0.0047258 -0.00559641 -0.00070021
0.00565869 -0.00232669 0.000529361
0.00584449 -0.00231373 0.000558534
0.00581003 -0.000462189 -9.3605e-05
0.00551673 -0.00220034 0.000555263
0.00593256 -0.00173678 0.000464714
-7.06452e-16 4.36385e-15 2.55428e-14
6.28015e-15 -2.08843e-14 1.12262e-13
6.27995e-15 -2.08853e-14 1.12262e-13
0.00148518 -0.087877 -0.00139218
-0.000403134 -0.0011991 -0.00190022
-2.13426e-06 1.92568e-06 6.72668e-07
-2.50175e-05 0.000211267 -0.00113402
0.00537259 -0.000469889 -7.8858e-05
0.00973047 0.00338481 -0.00777677
0.00575075 -0.00234828 0.000560343
0.00540949 -0.00238291 0.000581805
0.00459791 0.000543823 0.000105096
0.00520544 -0.00246891 0.000596739
0.00753347 0.00363514 -0.00394423
0.00559259 -0.00230005 0.00054602
0.00382417 0.000406031 3.57798e-05
0.00462481 0.000440577 6.45733e-05
0.00471023 0.000420902 6.1497e-05
0.00543771 -0.000473669 -8.02023e-05
-0.000276786 0.000318129 -0.00293516
0.00478189 0.000394037 2.60401e-05
-4.76091e-16 1.62077e-14 -1.32751e-13
0.00500422 -0.00228174 0.000925517
0.00534268 -0.00178541 0.0013531
-0.00961555 -0.0492303 -0.0155477
-0.00277609 -0.0012877 -0.00481102
0.00496381 -0.00232941 0.000630853
0.00458628 -0.00512054 -0.00120922
-0.0285858 0.11816 0.343321
6.28182e-15 -2.08846e-14 1.12262e-13
0.00531499 -0.001767 0.00135773
-0.0159106 0.102553 -0.455304
0.00615544 -0.0011364 0.000363188
0.00487086 -0.000211256 0.000171537
-0.000535057 -0.00316261 -0.00470282
0.002992 -0.0411079 -0.0701575
-2.51745e-06 3.05258e-06 8.03855e-07
0.000303341 -0.00130858 7.99285e-06
0.00594642 -0.00242232 0.000576874
0.00532779 -0.00179478 0.00130111
-3.87062e-06 7.30252e-05 -0.000177733
0.00524593 -0.00239143 0.000968298
0.0053669 -0.00245075 0.000589203
0.00494478 -0.00215306 0.000781915
4.53722e-15 -7.48653e-14 1.91638e-13
7.46775e-16 -2.54336e-14 2.08317e-13
0.00573618 -0.0023626 0.000558109
0.00531314 -0.0023708 0.000855239
2.10348e-05 0.000651436 -0.000593156
0.00451752 -0.00178108 0.000813977
0.00575979 -0.00142802 0.000434432
1.31146e-16 -4.44904e-15 3.64404e-14
0.00562564 -0.00239072 0.000562738
-3.05143e-15 1.01909e-14 -5.47485e-14
0.00521753 -0.0019064 -0.000890767
0.00506645 -0.00214168 0.000850386
0.00604545 -0.00139772 0.000403065
0.00486509 -0.00163018 0.00104446
0.00456022 -0.00526938 -0.000659673
0.00212166 -0.000983191 0.000230816
0.00432118 3.39248e-05 0.000106508
1.22177e-16 -3.98768e-15 3.64968e-14
0.00566493 -0.00236014 0.000497735
-3.06311e-15 1.01853e-14 -5.47489e-14
0.00448931 -0.0129336 -0.106322
0.00567499 -0.00243182 0.000573345
0.011923 0.00581855 -0.00480503
0.00615572 -0.00103892 0.000345948
6.28016e-15 -2.08847e-14 1.12262e-13
-0.0245838 -0.0521872 -0.114077
0.00475587 0.000435047 3.91102e-05
0.00061008 0.000227231 -0.00100937
0.00524095 -0.0019825 -0.000899836
6.27676e-15 -2.08861e-14 1.12262e-13
0.0 -0.0 -0.03
0.0 -0.0 -0.03
0.0090354 0.00245212 -0.00855824
0.00963313 -0.0428295 0.00895396
0.0 -0.0 -0.03
0.0 -0.0 -0.03
0.0 -0.0 -0.03
0.0 -0.0 -0.03
9.05051e-05 0.0223843 -0.00952885
0.0 -0.0 -0.03
0.0 -0.0 -0.03
0.0 -0.0 -0.03
0.249559 -0.0714643 0.401356
0.0 -0.0 -0.03
0.0 -0.0 -0.03
0.0 -0.0 -0.03
0.0 -0.0 -0.03
0.00505396 -0.0019895 0.000794468
0.0 -0.0 -0.03
0.0 -0.0 -0.03
0.0 -0.0 -0.03
0.0 -0.0 -0.03
1.31368e-05 0.074669 -0.167428
0.0 -0.0 -0.03
0.0 -0.0 -0.03
-2.52078e-06 3.07169e-06 4.02353e-07
0.0 -0.0 -0.03
0.0 0.0 -0.0346352
0.0 -0.0 -0.03
-0.00374379 -0.00086833 0.00158786
0.0 0.0 -0.0386671
1.26351e-05 -2.92141e-06 -2.01388e-06
0.0 -0.0 -0.03
0.0 -0.0 -0.03
-0.0110168 0.0272017 -0.0553991
0.0 0.0 -0.0363324
0.0751465 0.0327114 -0.100787
0.00253709 -0.0356027 -0.036507
0.0 -0.0 -0.03
0.0 -0.0 -0.03
-0.00164114 -0.0926871 0.0187924
0.0 -0.0 -0.03
-0.000886453 -0.0263858 -0.0168872
0.0 -0.0 -0.03
0.0 -0.0 -0.03
0.0 -0.0 -0.03
0.0 -0.0 -0.03
9.68155e-11 0.0240382 0.00265886
0.0837189 -0.323258 -0.461324
0.0308672 0.0293043 -0.0315765
0.0 -0.0 -0.03
0.00947687 0.00367842 -0.00680487
0.0 -0.0 -0.03
0.0122473 0.0357929 -0.0837311
7.94051e-11 0.0224245 -0.00878277
0.0 -0.0 -0.03
0.0 -0.0 -0.03
0.0 0.0 -0.0461227
0.0 -0.0 -0.03
0.0 -0.0 -0.03
-0.0271591 -0.0292399 -0.0135134
0.0 -0.0 -0.03
0.0 0.0 -0.0955455
0.00111428 -0.001719 0.0012373
0.0 -0.0 -0.03
0.0 -0.0 -0.03
1.23435e-05 -2.07767e-06 -8.80089e-07
0.0 -0.0 -0.03
0.0 0.0 -0.0563251
0.0 -0.0 -0.03
-9.25505e-06 0.000496565 -0.00124411
0.00600117 -0.000271586 0.000324465
0.0 -0.0 -0.03
0.00827704 0.0969165 -0.0734097
0.0 -0.0 -0.03
0.0 -0.0 -0.03

VECTORS force float
-9.82489e-10 -3.53729e-09 1.13725e-09
-6.58529e-12 5.29244e-12 9.86612e-13
-1.00595e-09 -1.33838e-09 -8.59006e-10
-1.41423e-09 -3.70148e-09 1.69487e-09
-8.47424e-12 -1.28538e-09 1.01683e-09
6.24758e-10 1.67166e-09 -1.24459e-09
8.80836e-09 3.06274e-10 1.40653e-09
5.31651e-10 5.83218e-10 -1.4491e-10
-1.88765e-10 1.31579e-09 -3.18629e-10
1.61731e-09 -1.16769e-09 2.34568e-10
-2.86779e-10 5.7129e-10 -4.13301e-11
-2.85334e-09 -7.17942e-09 7.39095e-09
-4.81105e-12 5.29212e-12 6.67568e-13
-3.44893e-11 -1.02475e-09 -7.9475e-10
-1.43827e-12 4.01093e-12 4.73196e-13
-1.99936e-10 4.9768e-09 -1.17567e-09
-7.80197e-10 6.2881e-10 3.27215e-09
-1.19429e-09 -1.71427e-09 3.41844e-10
-8.5823e-10 -2.75701e-09 1.32938e-09
1.05856e-09 -1.81182e-09 3.28617e-10
-1.86116e-24 1.8198e-23 1.65436e-24
2.48085e-09 -1.54239e-09 1.24684e-09
2.10393e-09 7.3578e-10 -3.18586e-09
1.14769e-09 -5.67369e-10 6.7008e-10
-5.24836e-10 -2.30311e-09 -4.41809e-09
2.57386e-10 8.45569e-11 1.60543e-10
2.09058e-10 6.83037e-10 -1.42046e-10
1.04084e-09 3.95541e-09 -6.58758e-10
9.15694e-10 3.58386e-10 -2.24444e-10
3.14635e-09 -2.1446e-09 -6.09902e-11
2.58647e-10 -2.68556e-09 -1.70484e-10
8.89653e-10 -3.25415e-10 8.41958e-11
-1.00202e-09 -2.13958e-10 3.53165e-11
1.46663e-10 1.5462e-09 -3.84795e-10
1.31332e-09 1.52385e-09 3.04155e-09
-2.07431e-09 -3.15332e-10 8.12643e-11
9.99419e-10 -5.80719e-10 1.31455e-10
-1.23934e-09 3.43653e-09 -1.35826e-09
5.81857e-10 -8.4375e-10 -3.3183e-10
2.90593e-09 -7.64453e-12 -6.27531e-10
1.43551e-09 -5.07733e-10 1.46924e-10
1.50694e-09 -1.52676e-09 4.57802e-10
2.11284e-11 1.14269e-10 -3.52656e-11
-1.45568e-09 -8.38728e-10 -9.52379e-10
2.29654e-10 -1.65505e-09 -1.75586e-09
-5.86351e-09 8.49542e-09 1.37937e-09
3.92339e-10 -6.17871e-10 -6.79143e-10
-8.03955e-10 -2.76818e-09 -1.08432e-10
-4.36041e-12 5.35343e-12 6.65909e-13
5.31605e-10 -1.10266e-10 1.53247e-10
-5.19915e-10 -1.52036e-09 3.53436e-10
-4.32917e-12 4.69903e-12 1.14345e-12
-3.22715e-09 1.28116e-09 -9.41784e-09
1.3657e-10 -3.23033e-10 3.0807e-10
1.51214e-09 -2.02399e-09 5.10268e-10
-2.44017e-10 4.07004e-10 -3.17483e-11
3.02498e-09 -2.63912e-09 6.74135e-10
-9.58151e-10 -2.23963e-09 1.64335e-09
9.55217e-11 -1.76113e-09 -3.07468e-10
7.02831e-10 -6.29335e-10 4.30901e-09
-8.02208e-10 -9.85289e-10 2.4692e-10
-9.23713e-10 -2.34915e-09 2.97557e-10
0.0 0.0 -1.15058e-08
1.42009e-09 -1.49886e-09 3.47457e-10
7.86878e-10 1.03382e-09 1.52181e-09
-2.4546e-12 -5.6416e-13 7.13809e-14
4.99414e-10 1.9954e-10 -5.77608e-11
-7.4055e-13 -1.61241e-12 -1.87313e-13
-1.84342e-09 7.60741e-10 -8.69659e-10
9.54282e-12 -2.74104e-09 1.01373e-10
5.59394e-10 2.34322e-10 -1.23385e-11
-7.13255e-10 -2.02286e-09 2.0292e-10
4.80959e-10 -1.13369e-09 6.21438e-10
2.49705e-23 2.89513e-24 0.0
-5.82128e-23 -2.68834e-23 -1.65436e-24
7.96161e-24 8.27181e-24 0.0
0.0 0.0 -1.15058e-08
-6.93392e-11 -4.42745e-09 -3.65841e-09
-1.50943e-10 6.08776e-11 1.35222e-11
5.25136e-12 4.89419e-11 -7.11605e-11
-3.72161e-10 -9.59819e-11 5.76271e-11
-1.29686e-10 4.45418e-12 2.02176e-10
-2.87246e-09 -3.53599e-09 -1.37087e-10
-4.17421e-10 -8.29232e-10 9.12278e-11
1.48712e-09 3.18159e-09 9.93723e-10
2.59495e-09 -2.99669e-09 2.31053e-10
7.09536e-10 -4.51997e-09 -8.70718e-09
1.81408e-09 -1.24133e-11 9.51748e-11
8.54246e-10 -4.30439e-10 6.86607e-11
4.929e-09 4.59609e-10 2.28203e-10
3.76801e-09 8.61678e-10 -8.93616e-10
-1.77524e-09 4.22774e-10 3.8115e-12
-1.09894e-10 7.80549e-10 -1.11711e-08
8.29903e-10 1.43811e-09 1.40782e-09
9.80338e-24 -2.06795e-25 0.0
-9.35107e-10 6.18658e-10 -3.93846e-10
-1.98585e-09 1.54852e-09 -2.34246e-09
0.0 0.0 -1.15058e-08
2.18107e-10 1.09845e-10 4.08275e-10
-1.02609e-10 -1.95386e-09 -8.6575e-09
2.98161e-11 4.42154e-11 8.93169e-12
-4.21982e-05 -0.000345286 0.000745805
1.73708e-23 -4.96308e-24 -1.65436e-24
6.21168e-10 4.83797e-10 -1.3459e-09
0.0 0.0 -1.15058e-08
1.4278e-09 -8.94155e-10 6.9339e-11
8.51693e-10 2.60506e-09 1.69557e-09
-3.11275e-10 -3.51943e-09 -5.18243e-09
0.0 0.0 -1.15058e-08
-1.03541e-09 -1.54709e-11 -1.21482e-11
-1.55832e-10 2.50097e-10 1.90445e-09
2.59708e-09 -6.43611e-10 7.06342e-11
-1.08205e-08 -4.98338e-09 -1.76685e-08
9.96909e-11 6.07273e-11 -6.74217e-11
-1.02174e-09 5.461e-10 -2.86656e-10
2.77019e-09 -8.8587e-10 -1.60402e-09
-2.17874e-09 -1.44232e-09 -6.83087e-10
2.32851e-22 1.40621e-23 0.0
3.85156e-24 0.0 0.0
-9.89587e-10 -1.66239e-09 -2.95323e-10
1.185e-09 5.93163e-10 -6.27319e-12
2.68332e-12 8.8881e-11 -9.1945e-11
2.02195e-09 -5.68251e-10 -3.18973e-09
-7.19973e-11 -1.56698e-09 -2.39125e-09
3.78952e-23 1.65436e-24 0.0
1.04965e-09 -9.606e-10 3.32502e-10
-4.53605e-22 -2.56426e-23 2.15067e-23
-3.11705e-09 -1.33218e-09 -4.32852e-09
-1.32745e-09 1.65074e-09 -2.84738e-10
9.24766e-10 1.08602e-09 3.68883e-11
9.78896e-09 -1.98125e-09 -5.0657e-09
-1.44378e-12 2.2741e-11 -3.39517e-12
9.16052e-10 -3.32887e-10 1.62312e-12
-5.35711e-10 -2.59939e-09 -1.47809e-10
-1.76422e-23 -4.63118e-21 -5.65792e-22
-1.56435e-09 -1.27622e-09 1.43911e-09
-1.92319e-23 -3.72231e-24 0.0
0.0 0.0 -1.15058e-08
1.17112e-09 4.8896e-10 -4.31083e-10
-1.45321e-09 -5.02448e-10 8.68871e-10
1.32339e-10 5.86826e-10 -4.85094e-11
-3.29838e-23 -2.35746e-23 -3.30872e-24
0.0 0.0 -1.15058e-08
1.8811e-09 -1.83432e-09 -5.30898e-10
-3.86865e-10 -1.59302e-10 6.69591e-10
1.24547e-08 1.92894e-09 -5.01446e-09
-7.41361e-23 -1.03398e-23 1.65436e-24
0.0 0.0 0.0
0.0 0.0 0.0
6.6142e-10 6.20066e-10 -7.38477e-10
0.0 0.0 -1.15058e-08
0.0 0.0 0.0
0.0 0.0 0.0
0.0 0.0 0.0
0.0 0.0 0.0
-8.13233e-13 -6.40152e-11 -1.59091e-10
0.0 0.0 0.0
0.0 0.0 0.0
0.0 0.0 0.0
0.0 0.0 -1.15058e-08
0.0 0.0 0.0
0.0 0.0 0.0
0.0 0.0 0.0
0.0 0.0 0.0
1.71799e-09 4.73648e-10 -3.56962e-10
0.0 0.0 0.0
0.0 0.0 0.0
0.0 0.0 0.0
0.0 0.0 0.0
0.0 0.0 -1.15058e-08
0.0 0.0 0.0
0.0 0.0 0.0
5.05111e-10 -1.72307e-10 -5.58654e-11
0.0 0.0 0.0
0.0 0.0 -1.15058e-08
0.0 0.0 0.0
-2.39509e-06 2.42952e-09 -1.8846e-08
0.0 0.0 -1.15058e-08
1.17019e-10 -8.121e-11 3.94239e-13
0.0 0.0 0.0
0.0 0.0 0.0
0.0 0.0 -1.15058e-08
0.0 0.0 -1.15058e-08
0.0 0.0 -1.15058e-08
0.0 0.0 -1.15058e-08
0.0 0.0 0.0
0.0 0.0 0.0
0.0 0.0 -1.15058e-08
0.0 0.0 0.0
-1.57971e-10 -1.36703e-09 -1.14932e-10
0.0 0.0 0.0
0.0 0.0 0.0
0.0 0.0 0.0
0.0 0.0 0.0
9.32607e-19 1.89525e-11 -1.67781e-10
0.0 0.0 -1.15058e-08
0.0 0.0 -1.15058e-08
0.0 0.0 0.0
-3.51312e-11 3.68373e-11 1.26298e-10
0.0 0.0 0.0
0.0 0.0 -1.15058e-08
2.61893e-19 -6.12378e-11 -1.56551e-10
0.0 0.0 0.0
0.0 0.0 0.0
0.0 0.0 -1.15058e-08
0.0 0.0 0.0
0.0 0.0 0.0
0.0 0.0 -1.15058e-08
0.0 0.0 0.0
0.0 0.0 -1.15058e-08
2.60527e-09 -9.15719e-10 -1.23803e-09
0.0 0.0 0.0
0.0 0.0 0.0
-2.07918e-10 -7.52042e-11 4.17041e-11
0.0 0.0 0.0
0.0 0.0 -1.15058e-08
0.0 0.0 0.0
1.3726e-10 2.86559e-09 -7.40912e-09
-3.00397e-10 7.32037e-10 -5.67097e-10
0.0 0.0 0.0
0.0 0.0 -1.15058e-08
0.0 0.0 0.0
0.0 0.0 0.0
