# vtk DataFile Version 3.0
LIGGGHTS particles timestep 1800000
ASCII
DATASET POLYDATA
POINTS 294 float
0.0233138 0.0164788 0.00776974
0.0182476 0.0188442 0.00692873
0.0239679 0.0183256 0.00712106
0.0233569 0.0166381 0.00765685
0.0293101 0.0164552 0.00775206
0.029183 0.0160079 0.00813119
0.0232275 0.0161601 0.00799553
0.0297652 0.0184405 0.00701299
0.0234851 0.0171163 0.00731801
0.0244057 0.0174886 0.00725338
0.0238686 0.0172415 0.00728912
0.0234001 0.0167974 0.00754395
0.0175669 0.0172694 0.00739758
0.0236499 0.017888 0.0071875
0.0177346 0.0173668 0.00733304
0.0234432 0.0169568 0.00743106
0.023593 0.0168482 0.00750693
0.0242321 0.0180322 0.00716799
0.0235498 0.0166888 0.00761986
0.0240592 0.017304 0.00728138
0.0184517 0.0191897 0.00694677
0.0293556 0.0166049 0.00762756
0.0237897 0.016904 0.00746634
0.0294009 0.0167551 0.00750355
0.0236911 0.0180814 0.00715763
0.0294807 0.0171151 0.00736048
0.0297583 0.01756 0.00726077
0.0235673 0.0175013 0.00724809
0.0237605 0.0175665 0.00723805
0.0242084 0.0169971 0.00739801
0.0241494 0.0168138 0.00752793
0.0239111 0.0174365 0.00725904
0.0297274 0.0182521 0.00706818
0.0237194 0.017373 0.00726792
0.0236349 0.0170101 0.0073971
0.0292684 0.0163047 0.00787703
0.0241191 0.0181963 0.00714191
0.0236987 0.0165793 0.00769638
0.0239525 0.0176299 0.00722916
0.0238767 0.0170669 0.00738639
0.0242494 0.0173652 0.00727179
0.024506 0.0177719 0.00720983
0.029565 0.0174962 0.00727311
0.0232706 0.0163194 0.00788263
0.0238432 0.0179533 0.00717867
0.0238056 0.0186456 0.00707048
0.023802 0.0177598 0.00720819
0.0241554 0.0183943 0.00711131
0.017553 0.0174452 0.00730338
0.0296248 0.0168541 0.00742285
0.0234635 0.0163701 0.00784566
0.0175943 0.0176325 0.00724665
0.0233406 0.0158909 0.00818515
0.0294385 0.0169246 0.00740415
0.0243067 0.0182651 0.00713216
0.0295229 0.0173057 0.00731679
0.024061 0.0171079 0.00732053
0.0235067 0.0165294 0.00773276
0.0239937 0.0178233 0.00719929
0.0237681 0.0184514 0.00710048
0.029607 0.0176869 0.00722942
0.0236084 0.0176946 0.00721736
0.0179348 0.0192765 0.00699285
0.024333 0.0176727 0.0072244
0.0236776 0.0171786 0.00729794
0.0174698 0.0171132 0.00747603
0.0296883 0.0180638 0.00712336
0.0174263 0.01694 0.00756608
0.0241578 0.0185919 0.0070806
0.0241935 0.0178141 0.00720171
0.0296477 0.0178759 0.00717851
0.0235263 0.017308 0.00727845
0.0243299 0.0184911 0.00709713
0.0243213 0.019424 0.00693712
0.0176676 0.0179656 0.0070417
0.017935 0.0184133 0.00694765
0.019871 0.0190212 0.00691562
0.0181966 0.0197599 0.00701982
0.0180913 0.0190672 0.00696144
0.0177846 0.018545 0.00694204
0.029674 0.0171785 0.00734821
0.0237327 0.0182748 0.00718724
0.0242511 0.0171676 0.00730253
0.0239191 0.0192069 0.00698377
0.0242742 0.0166859 0.00761765
0.0186975 0.0194786 0.00703298
0.0245787 0.0175879 0.00723881
0.0242556 0.0187741 0.00705276
0.024465 0.0196315 0.00691824
0.0242658 0.0196169 0.00690862
0.0297164 0.0173693 0.00730446
0.0179775 0.0194712 0.00700831
0.0239583 0.0194005 0.00695278
0.0180482 0.0188484 0.00694371
0.0238986 0.016575 0.00769822
0.0231459 0.0158405 0.00822189
0.0183139 0.0194039 0.00697728
0.0192814 0.0190554 0.00688951
0.0233781 0.0160512 0.00807159
0.0176308 0.0177885 0.00712691
0.0183346 0.0201865 0.00712394
0.0177071 0.0181573 0.00700077
0.0231068 0.0156859 0.00834253
0.018916 0.0195437 0.00694659
0.0242577 0.0190076 0.00701645
0.0241057 0.0191359 0.00699575
0.0178924 0.0190816 0.00697745
0.0187784 0.0198571 0.00702185
0.0183524 0.0190144 0.00693731
0.0193189 0.0196972 0.00699428
0.0245606 0.0179621 0.00718053
0.0231852 0.0160006 0.00810854
0.0188535 0.0200273 0.00709524
0.024064 0.0166664 0.00763265
0.0240214 0.0169397 0.00743974
0.0234203 0.0162107 0.00795858
0.0238472 0.0188411 0.0070762
0.0180854 0.0185951 0.00692315
0.0238816 0.0181472 0.00714836
0.023936 0.0167922 0.00754446
0.0189121 0.0191947 0.00691358
0.0234294 0.016976 0.00762964
0.0240953 0.0188921 0.00703361
0.0178902 0.0180769 0.0070012
0.0241013 0.0174978 0.00725043
0.0177459 0.0183499 0.00696341
0.0239349 0.0190099 0.00701448
0.0237429 0.0167397 0.00758277
0.024423 0.018666 0.0070704
0.0237103 0.016927 0.00764846
0.017815 0.017716 0.00715553
0.0241457 0.019331 0.00695986
0.0242976 0.0192023 0.00697912
0.0174495 0.0167622 0.00765474
0.0239629 0.0185231 0.00709032
0.0178518 0.0178932 0.00707036
0.0180751 0.0199162 0.00704804
0.0240327 0.0180178 0.00716924
0.0226551 0.0224653 0.0136971
0.0244194 0.0181019 0.00715809
0.0179144 0.0186971 0.00694228
0.0185134 0.0194011 0.00696242
0.0240744 0.0195601 0.00691992
0.0182014 0.018435 0.00695338
0.0240029 0.0187167 0.00706041
0.0178528 0.0188862 0.00696288
0.018279 0.0186453 0.00692169
0.0175258 0.0238953 0.0117357
0.0182441 0.0200231 0.00705228
0.0185607 0.0196142 0.0069793
0.0157344 0.0229524 0.0103119
0.0192279 0.0193142 0.00690188
0.0138007 0.0206677 0.0073545
0.0190986 0.0194649 0.00692582
0.0246482 0.0195527 0.00690308
0.0195833 0.0188813 0.00692849
0.0241408 0.0170056 0.00758604
0.0200989 0.0194928 0.00693145
0.0236725 0.0172428 0.00764259
0.0177722 0.0175412 0.0072427
0.0201529 0.0193058 0.00687616
0.0190419 0.0200843 0.00713084
0.0236556 0.01642 0.00780928
0.018584 0.0198169 0.00699693
0.0236122 0.0162604 0.00792231
0.0191073 0.0191529 0.00690245
0.0180621 0.0182617 0.00697688
0.0187336 0.0191046 0.00691806
0.0183915 0.0204193 0.00722125
0.0197068 0.0194552 0.00692343
0.0181251 0.0193384 0.00698484
0.0196795 0.0190765 0.00689991
0.018943 0.0197484 0.00698937
0.0197013 0.0142089 0.0118483
0.0191234 0.0196645 0.00696792
0.0240107 0.0171543 0.00750846
0.0181846 0.0195546 0.00700112
0.0181351 0.023912 0.0117578
0.0239128 0.0169853 0.00760131
0.019294 0.0195061 0.0069159
0.0194631 0.0194016 0.00689324
0.0183659 0.0196558 0.00699751
0.0248481 0.01955 0.00689741
0.0185531 0.0190188 0.00692382
0.0234742 0.0171351 0.00751682
0.0186173 0.0188305 0.00690316
0.0204082 0.0192453 0.00689351
0.0175443 0.016603 0.00773003
0.0186557 0.0239226 0.0118938
0.018159 0.0202788 0.00714911
0.0185338 0.02017 0.00713081
0.0188988 0.0189942 0.00689541
0.0250383 0.0194886 0.00690296
0.0237502 0.01709 0.00753961
0.0187322 0.0201853 0.00715039
0.0231244 0.0158439 0.00883732
0.0190939 0.0198665 0.00704696
0.0182642 0.018248 0.00698616
0.0187517 0.0193121 0.00693649
0.017278 0.023896 0.0117873
0.0239155 0.017912 0.00736053
0.0196203 0.0192802 0.00687065
0.0194886 0.0195955 0.00696494
0.0237887 0.0172883 0.0074664
0.0198122 0.0192248 0.00688027
0.0131231 0.0209945 0.0074532
0.018755 0.0196601 0.00696947
0.0233045 0.0157304 0.00829884
0.0194812 0.0190504 0.00689728
0.0199402 0.0193782 0.00689045
0.0182522 0.0191859 0.00696099
0.0146535 0.0204489 0.00726607
0.0235887 0.0172919 0.00746776
0.0184732 0.018693 0.00692065
0.0180201 0.019666 0.00702378
0.0292252 0.0161545 0.00800182
0.0128278 0.0209822 0.00746744
0.0173443 0.0166129 0.00773614
0.0195863 0.0241125 0.0121348
0.0173008 0.0164396 0.00782619
0.0208774 0.0219312 0.0143532
0.018887 0.0239259 0.0117985
0.0165621 0.0169232 0.0186882
0.0182615 0.0179648 0.00703238
0.0240787 0.0165035 0.00774773
0.0205944 0.019366 0.00687869
0.0213185 0.0224987 0.00921965
0.0180868 0.0219473 0.0209827
0.014683 0.0215147 0.00782863
0.0154314 0.0183071 0.0155058
0.0156819 0.0226136 0.0134737
0.0180539 0.0200314 0.0162368
0.0149642 0.0188901 0.0155404
0.0142627 0.0206273 0.00732113
0.0197321 0.0203043 0.00725715
0.015522 0.0227165 0.00973221
0.0230403 0.0155528 0.00870085
0.0204488 0.0161305 0.0207431
0.018515 0.0191524 0.0196848
0.0201012 0.0153649 0.0241638
0.0209715 0.0170787 0.0160558
0.0141494 0.0192542 0.0225243
0.0178795 0.0242427 0.0134479
0.0176659 0.0239935 0.0126826
0.0180621 0.0179773 0.00702396
0.0195545 0.0207922 0.0238441
0.0202571 0.0196146 0.00697528
0.0217244 0.0229706 0.00975714
0.0191095 0.0201641 0.0162261
0.0236851 0.0156994 0.00833007
0.0233969 0.0208794 0.0159964
0.0198218 0.019611 0.00698418
0.0176669 0.0206937 0.0209272
0.0229259 0.0208201 0.0237007
0.018072 0.0239599 0.0193067
0.0188594 0.0182641 0.00700686
0.0238255 0.0185748 0.0200876
0.0184021 0.0181059 0.0070142
0.0205917 0.0196351 0.00697537
0.0220125 0.0176956 0.0187005
0.0193779 0.014218 0.0118332
0.0206558 0.0194365 0.0215709
0.0227745 0.0235256 0.0133829
0.019344 0.0222999 0.0151489
0.022004 0.0203373 0.0203461
0.0204341 0.018096 0.023034
0.0233019 0.0203004 0.0189627
0.0203693 0.0147539 0.0225268
0.0169788 0.02107 0.0150005
0.0166482 0.0224205 0.014151
0.0181284 0.0154797 0.0195239
0.0174625 0.0211184 0.0185662
0.0162967 0.0186334 0.0187922
0.0224865 0.0223152 0.0220587
0.0210973 0.0176849 0.0212796
0.0218681 0.0231019 0.0218529
0.023068 0.0155744 0.00850396
0.0212466 0.0191129 0.0192347
0.0154542 0.0163496 0.0189447
0.0197633 0.0161608 0.0193115
0.0206325 0.0219985 0.0198301
0.017319 0.0170935 0.0211452
0.024893 0.018999 0.00699855
0.0238248 0.0199748 0.019696
0.0171633 0.015315 0.00954041
0.0212376 0.0175192 0.015949
0.0213649 0.0157703 0.0199042
0.0172001 0.0203088 0.0206467
0.0154267 0.0216624 0.0207135
0.0226889 0.0163526 0.0148086
0.0200048 0.0191727 0.00689483
0.0191582 0.0205151 0.0073116
0.0194568 0.0198284 0.00705628
0.0148644 0.0206189 0.0072859

VERTICES 294 588
1 0
1 1
1 2
1 3
1 4
1 5
1 6
1 7
1 8
1 9
1 10
1 11
1 12
1 13
1 14
1 15
1 16
1 17
1 18
1 19
1 20
1 21
1 22
1 23
1 24
1 25
1 26
1 27
1 28
1 29
1 30
1 31
1 32
1 33
1 34
1 35
1 36
1 37
1 38
1 39
1 40
1 41
1 42
1 43
1 44
1 45
1 46
1 47
1 48
1 49
1 50
1 51
1 52
1 53
1 54
1 55
1 56
1 57
1 58
1 59
1 60
1 61
1 62
1 63
1 64
1 65
1 66
1 67
1 68
1 69
1 70
1 71
1 72
1 73
1 74
1 75
1 76
1 77
1 78
1 79
1 80
1 81
1 82
1 83
1 84
1 85
1 86
1 87
1 88
1 89
1 90
1 91
1 92
1 93
1 94
1 95
1 96
1 97
1 98
1 99
1 100
1 101
1 102
1 103
1 104
1 105
1 106
1 107
1 108
1 109
1 110
1 111
1 112
1 113
1 114
1 115
1 116
1 117
1 118
1 119
1 120
1 121
1 122
1 123
1 124
1 125
1 126
1 127
1 128
1 129
1 130
1 131
1 132
1 133
1 134
1 135
1 136
1 137
1 138
1 139
1 140
1 141
1 142
1 143
1 144
1 145
1 146
1 147
1 148
1 149
1 150
1 151
1 152
1 153
1 154
1 155
1 156
1 157
1 158
1 159
1 160
1 161
1 162
1 163
1 164
1 165
1 166
1 167
1 168
1 169
1 170
1 171
1 172
1 173
1 174
1 175
1 176
1 177
1 178
1 179
1 180
1 181
1 182
1 183
1 184
1 185
1 186
1 187
1 188
1 189
1 190
1 191
1 192
1 193
1 194
1 195
1 196
1 197
1 198
1 199
1 200
1 201
1 202
1 203
1 204
1 205
1 206
1 207
1 208
1 209
1 210
1 211
1 212
1 213
1 214
1 215
1 216
1 217
1 218
1 219
1 220
1 221
1 222
1 223
1 224
1 225
1 226
1 227
1 228
1 229
1 230
1 231
1 232
1 233
1 234
1 235
1 236
1 237
1 238
1 239
1 240
1 241
1 242
1 243
1 244
1 245
1 246
1 247
1 248
1 249
1 250
1 251
1 252
1 253
1 254
1 255
1 256
1 257
1 258
1 259
1 260
1 261
1 262
1 263
1 264
1 265
1 266
1 267
1 268
1 269
1 270
1 271
1 272
1 273
1 274
1 275
1 276
1 277
1 278
1 279
1 280
1 281
1 282
1 283
1 284
1 285
1 286
1 287
1 288
1 289
1 290
1 291
1 292
1 293

POINT_DATA 294
SCALARS id int 1
LOOKUP_TABLE default
1
3
4
5
6
7
8
9
10
11
12
13
14
15
16
17
19
20
21
22
23
24
25
26
27
28
29
30
31
32
33
34
35
36
37
38
39
40
41
42
43
44
45
46
47
48
49
50
51
52
53
54
55
56
57
58
59
60
61
62
63
64
65
66
67
68
69
70
71
72
73
74
75
76
77
78
79
80
81
82
83
85
86
87
88
89
90
91
92
93
94
95
96
97
98
99
100
101
102
103
104
105
106
107
108
109
110
111
112
113
114
115
116
117
118
119
120
121
122
123
124
125
126
127
128
129
130
131
132
133
134
135
136
137
138
139
140
142
143
144
145
146
147
148
149
150
151
152
153
154
155
156
157
158
159
160
161
162
164
165
166
167
168
169
170
171
172
173
174
175
176
177
178
179
180
181
182
183
184
185
186
187
188
189
190
191
192
193
194
195
196
197
198
200
201
202
203
204
205
206
207
208
209
210
211
212
213
214
215
216
217
218
219
220
221
222
223
224
225
226
227
228
229
230
231
232
233
234
235
236
237
238
239
240
241
242
243
244
245
246
247
248
249
250
251
252
253
254
255
256
257
258
259
260
261
262
263
264
265
266
267
268
269
270
271
272
273
274
275
276
277
278
279
280
281
282
283
284
285
286
287
288
289
290
291
292
293
294
295
296
297
298
299
300

SCALARS type int 1
LOOKUP_TABLE default
1
1
1
1
1
1
1
1
1
1
1
1
1
1
1
1
1
1
1
1
1
1
1
1
1
1
1
1
1
1
1
1
1
1
1
1
1
1
1
1
1
1
1
1
1
1
1
1
1
1
1
1
1
1
1
1
1
1
1
1
1
1
1
1
1
1
1
1
1
1
1
1
1
1
1
1
1
1
1
1
1
1
1
1
1
1
1
1
1
1
1
1
1
1
1
1
1
1
1
1
1
1
1
1
1
1
1
1
1
1
1
1
1
1
1
1
1
1
1
1
1
1
1
1
1
1
1
1
1
1
1
1
1
1
1
1
1
1
1
1
1
1
1
1
1
1
1
1
1
1
1
1
1
1
1
1
1
1
1
1
1
1
1
1
1
1
1
1
1
1
1
1
1
1
1
1
1
1
1
1
1
1
1
1
1
1
1
1
1
1
1
1
1
1
1
1
1
1
1
1
1
1
1
1
1
1
1
1
1
1
1
1
1
1
1
1
1
1
1
1
1
1
1
1
1
1
1
1
1
1
1
1
1
1
1
1
1
1
1
1
1
1
1
1
1
1
1
1
1
1
1
1
1
1
1
1
1
1
1
1
1
1
1
1
1
1
1
1
1
1
1
1
1
1
1
1
1
1
1
1
1
1
1
1
1
1
1
1
1
1
1
1
1
1

SCALARS radius float 1
LOOKUP_TABLE default
0.0001
0.0001
0.0001
0.0001
0.0001
0.0001
0.0001
0.0001
0.0001
0.0001
0.0001
0.0001
0.0001
0.0001
0.0001
0.0001
0.0001
0.0001
0.0001
0.0001
0.0001
0.0001
0.0001
0.0001
0.0001
0.0001
0.0001
0.0001
0.0001
0.0001
0.0001
0.0001
0.0001
0.0001
0.0001
0.0001
0.0001
0.0001
0.0001
0.0001
0.0001
0.0001
0.0001
0.0001
0.0001
0.0001
0.0001
0.0001
0.0001
0.0001
0.0001
0.0001
0.0001
0.0001
0.0001
0.0001
0.0001
0.0001
0.0001
0.0001
0.0001
0.0001
0.0001
0.0001
0.0001
0.0001
0.0001
0.0001
0.0001
0.0001
0.0001
0.0001
0.0001
0.0001
0.0001
0.0001
0.0001
0.0001
0.0001
0.0001
0.0001
0.0001
0.0001
0.0001
0.0001
0.0001
0.0001
0.0001
0.0001
0.0001
0.0001
0.0001
0.0001
0.0001
0.0001
0.0001
0.0001
0.0001
0.0001
0.0001
0.0001
0.0001
0.0001
0.0001
0.0001
0.0001
0.0001
0.0001
0.0001
0.0001
0.0001
0.0001
0.0001
0.0001
0.0001
0.0001
0.0001
0.0001
0.0001
0.0001
0.0001
0.0001
0.0001
0.0001
0.0001
0.0001
0.0001
0.0001
0.0001
0.0001
0.0001
0.0001
0.0001
0.0001
0.0001
0.0001
0.0001
0.0001
0.0001
0.0001
0.0001
0.0001
0.0001
0.0001
0.0001
0.0001
0.0001
0.0001
0.0001
0.0001
0.0001
0.0001
0.0001
0.0001
0.0001
0.0001
0.0001
0.0001
0.0001
0.0001
0.0001
0.0001
0.0001
0.0001
0.0001
0.0001
0.0001
0.0001
0.0001
0.0001
0.0001
0.0001
0.0001
0.0001
0.0001
0.0001
0.0001
0.0001
0.0001
0.0001
0.0001
0.0001
0.0001
0.0001
0.0001
0.0001
0.0001
0.0001
0.0001
0.0001
0.0001
0.0001
0.0001
0.0001
0.0001
0.0001
0.0001
0.0001
0.0001
0.0001
0.0001
0.0001
0.0001
0.0001
0.0001
0.0001
0.0001
0.0001
0.0001
0.0001
0.0001
0.0001
0.0001
0.0001
0.0001
0.0001
0.0001
0.0001
0.0001
0.0001
0.0001
0.0001
0.0001
0.0001
0.0001
0.0001
0.0001
0.0001
0.0001
0.0001
0.0001
0.0001
0.0001
0.0001
0.0001
0.0001
0.0001
0.0001
0.0001
0.0001
0.0001
0.0001
0.0001
0.0001
0.0001
0.0001
0.0001
0.0001
0.0001
0.0001
0.0001
0.0001
0.0001
0.0001
0.0001
0.0001
0.0001
0.0001
0.0001
0.0001
0.0001
0.0001
0.0001
0.0001
0.0001
0.0001
0.0001
0.0001
0.0001
0.0001
0.0001
0.0001
0.0001
0.0001
0.0001
0.0001
0.0001
0.0001
0.0001
0.0001
0.0001
0.0001
0.0001
0.0001
0.0001
0.0001
0.0001
0.0001
0.0001
0.0001
0.0001
0.0001
0.0001
0.0001

SCALARS mass float 1
LOOKUP_TABLE default
1.17286e-09
1.17286e-09
1.17286e-09
1.17286e-09
1.17286e-09
1.17286e-09
1.17286e-09
1.17286e-09
1.17286e-09
1.17286e-09
1.17286e-09
1.17286e-09
1.17286e-09
1.17286e-09
1.17286e-09
1.17286e-09
1.17286e-09
1.17286e-09
1.17286e-09
1.17286e-09
1.17286e-09
1.17286e-09
1.17286e-09
1.17286e-09
1.17286e-09
1.17286e-09
1.17286e-09
1.17286e-09
1.17286e-09
1.17286e-09
1.17286e-09
1.17286e-09
1.17286e-09
1.17286e-09
1.17286e-09
1.17286e-09
1.17286e-09
1.17286e-09
1.17286e-09
1.17286e-09
1.17286e-09
1.17286e-09
1.17286e-09
1.17286e-09
1.17286e-09
1.17286e-09
1.17286e-09
1.17286e-09
1.17286e-09
1.17286e-09
1.17286e-09
1.17286e-09
1.17286e-09
1.17286e-09
1.17286e-09
1.17286e-09
1.17286e-09
1.17286e-09
1.17286e-09
1.17286e-09
1.17286e-09
1.17286e-09
1.17286e-09
1.17286e-09
1.17286e-09
1.17286e-09
1.17286e-09
1.17286e-09
1.17286e-09
1.17286e-09
1.17286e-09
1.17286e-09
1.17286e-09
1.17286e-09
1.17286e-09
1.17286e-09
1.17286e-09
1.17286e-09
1.17286e-09
1.17286e-09
1.17286e-09
1.17286e-09
1.17286e-09
1.17286e-09
1.17286e-09
1.17286e-09
1.17286e-09
1.17286e-09
1.17286e-09
1.17286e-09
1.17286e-09
1.17286e-09
1.17286e-09
1.17286e-09
1.17286e-09
1.17286e-09
1.17286e-09
1.17286e-09
1.17286e-09
1.17286e-09
1.17286e-09
1.17286e-09
1.17286e-09
1.17286e-09
1.17286e-09
1.17286e-09
1.17286e-09
1.17286e-09
1.17286e-09
1.17286e-09
1.17286e-09
1.17286e-09
1.17286e-09
1.17286e-09
1.17286e-09
1.17286e-09
1.17286e-09
1.17286e-09
1.17286e-09
1.17286e-09
1.17286e-09
1.17286e-09
1.17286e-09
1.17286e-09
1.17286e-09
1.17286e-09
1.17286e-09
1.17286e-09
1.17286e-09
1.17286e-09
1.17286e-09
1.17286e-09
1.17286e-09
1.17286e-09
1.17286e-09
1.17286e-09
1.17286e-09
1.17286e-09
1.17286e-09
1.17286e-09
1.17286e-09
1.17286e-09
1.17286e-09
1.17286e-09
1.17286e-09
1.17286e-09
1.17286e-09
1.17286e-09
1.17286e-09
1.17286e-09
1.17286e-09
1.17286e-09
1.17286e-09
1.17286e-09
1.17286e-09
1.17286e-09
1.17286e-09
1.17286e-09
1.17286e-09
1.17286e-09
1.17286e-09
1.17286e-09
1.17286e-09
1.17286e-09
1.17286e-09
1.17286e-09
1.17286e-09
1.17286e-09
1.17286e-09
1.17286e-09
1.17286e-09
1.17286e-09
1.17286e-09
1.17286e-09
1.17286e-09
1.17286e-09
1.17286e-09
1.17286e-09
1.17286e-09
1.17286e-09
1.17286e-09
1.17286e-09
1.17286e-09
1.17286e-09
1.17286e-09
1.17286e-09
1.17286e-09
1.17286e-09
1.17286e-09
1.17286e-09
1.17286e-09
1.17286e-09
1.17286e-09
1.17286e-09
1.17286e-09
1.17286e-09
1.17286e-09
1.17286e-09
1.17286e-09
1.17286e-09
1.17286e-09
1.17286e-09
1.17286e-09
1.17286e-09
1.17286e-09
1.17286e-09
1.17286e-09
1.17286e-09
1.17286e-09
1.17286e-09
1.17286e-09
1.17286e-09
1.17286e-09
1.17286e-09
1.17286e-09
1.17286e-09
1.17286e-09
1.17286e-09
1.17286e-09
1.17286e-09
1.17286e-09
1.17286e-09
1.17286e-09
1.17286e-09
1.17286e-09
1.17286e-09
1.17286e-09
1.17286e-09
1.17286e-09
1.17286e-09
1.17286e-09
1.17286e-09
1.17286e-09
1.17286e-09
1.17286e-09
1.17286e-09
1.17286e-09
1.17286e-09
1.17286e-09
1.17286e-09
1.17286e-09
1.17286e-09
1.17286e-09
1.17286e-09
1.17286e-09
1.17286e-09
1.17286e-09
1.17286e-09
1.17286e-09
1.17286e-09
1.17286e-09
1.17286e-09
1.17286e-09
1.17286e-09
1.17286e-09
1.17286e-09
1.17286e-09
1.17286e-09
1.17286e-09
1.17286e-09
1.17286e-09
1.17286e-09
1.17286e-09
1.17286e-09
1.17286e-09
1.17286e-09
1.17286e-09
1.17286e-09
1.17286e-09
1.17286e-09
1.17286e-09
1.17286e-09
1.17286e-09
1.17286e-09
1.17286e-09
1.17286e-09
1.17286e-09
1.17286e-09
1.17286e-09
1.17286e-09
1.17286e-09
1.17286e-09
1.17286e-09
1.17286e-09
1.17286e-09
1.17286e-09
1.17286e-09
1.17286e-09
1.17286e-09
1.17286e-09
1.17286e-09
1.17286e-09
1.17286e-09
1.17286e-09

VECTORS velocity float
0.00597701 -0.00057196 0.000369423
0.0047564 -0.0038843 -0.00071735
0.00534478 -0.000555267 0.000115289
0.00597543 -0.000605901 0.000392067
0.00605833 -0.000359022 0.000125993
0.0054986 -1.81165e-05 0.000331026
0.00588011 -0.000553126 0.000358192
0.00539794 -0.000277435 -0.000153771
0.00554025 -0.000602968 0.000393289
0.00526337 -0.000219538 5.86581e-05
0.00552543 -0.000611905 0.000110316
0.00599621 -0.000644599 0.000423115
0.00526086 -0.0032901 0.00121898
0.00516903 -0.000740903 0.00014906
0.00563922 -0.00288898 0.00115344
0.00601266 -0.000662741 0.000447089
0.00598443 -0.00062488 0.000406995
0.00583656 -0.000778009 0.000148035
0.00604636 -0.000579615 0.000373719
0.00546203 -0.000543902 0.000161134
0.00542728 -0.00398046 -0.000783129
0.0060966 -0.00036601 0.000130545
0.00550346 -0.000593612 0.000399252
0.00617994 -0.000371068 0.000153841
0.00509045 -0.000656258 0.000134255
0.00611762 -0.000351539 0.000158717
0.00566979 -0.000196882 0.000117154
0.00550132 -0.000763903 0.000181075
0.00545159 -0.000706785 0.00012497
0.00536693 -0.000491815 0.00031195
0.00544636 -0.000204471 0.000124709
0.00546864 -0.000602441 7.67995e-05
0.00548712 -0.000294979 -0.00015262
0.00551096 -0.000703776 0.000144555
0.00554 -0.000594682 0.000432572
0.00600373 -0.000349631 0.000119738
0.00531642 -0.0005683 0.000114185
0.00606978 -0.000583091 0.000375708
0.00531914 -0.000555128 0.000115515
0.00519571 -0.000550603 0.000181744
0.00546491 -0.000498166 0.000113157
0.00487571 -0.000168406 4.77891e-05
0.00599274 -0.000324079 0.000150751
0.00594263 -0.000561784 0.000362583
0.00510821 -0.000644877 0.000128979
0.00522049 -0.00070038 0.000137339
0.00522549 -0.000650627 0.000133445
0.00537624 -0.000530115 0.000111405
0.00526228 -0.00330516 0.00138165
0.00618098 -0.000366366 0.000162908
0.00602862 -0.000510769 0.000325743
0.00495768 -0.00320451 0.0014509
6.96923e-06 0.000482762 -0.000341401
0.00618143 -0.000365282 0.000162953
0.00547487 -0.000515038 0.00010673
0.00605581 -0.000337885 0.000154742
0.00532213 -0.000523681 0.000340714
0.00597715 -0.000556358 0.000355272
0.00512872 -0.000532953 0.000112663
0.00566833 -0.000806731 0.000153505
0.0056248 -0.000247909 0.000128391
0.00544095 -0.000814871 0.000166406
0.00501191 -0.00365685 -0.000720267
0.0050084 -0.000346341 7.86244e-05
0.00553075 -0.00078036 0.000167483
0.00526513 -0.00315563 0.00133136
0.00565998 -0.00033023 -0.000150074
0.00529885 -0.0031439 0.00129123
0.00524251 -0.000474656 0.000100772
0.00504751 -0.000383021 8.3056e-05
0.00561947 -0.000321849 -0.000150708
0.00554236 -0.000726938 0.000192251
0.00541087 -0.000535203 0.000111126
0.00430872 0.00206419 -0.000516747
0.00498597 -0.00316272 0.00137234
0.00484827 -0.00361511 0.000772866
0.00550377 -0.00133109 0.000407069
0.005303 -0.0038865 -0.000756253
0.00487645 -0.00344873 -0.000676209
0.00486775 -0.00349311 0.000656022
0.00609718 -0.000291275 0.000144454
0.00607833 -0.000841502 0.00025372
0.00543375 -0.000558573 0.000126766
0.00575174 -0.000892136 0.000175622
0.0054566 -0.000181153 8.45091e-05
0.00631494 -0.00230747 -0.000902533
0.00504143 0.000150516 1.57302e-06
0.00593627 -0.000812765 0.000151189
0.00493432 0.000269241 0.000186907
0.00491877 0.000201019 0.000192856
0.00603785 -0.000272985 0.000139455
0.00520775 -0.00373713 -0.000745085
0.00585753 -0.000924222 -8.72074e-05
0.00476786 -0.00359614 -0.000678301
0.00611627 -0.000492532 0.000311104
0.00553277 -0.000504184 0.000299521
0.00529365 -0.00389082 -0.000757082
0.00539899 -0.00209265 0.000553416
0.00302763 -0.000150914 8.89247e-05
0.00488424 -0.00316549 0.00142316
0.0053883 -0.00371294 -0.00112533
0.00502949 -0.00325249 0.00135672
0.00554615 -0.000601061 0.000193517
0.00598374 -0.00109858 -0.00042609
0.00581247 -0.000737572 0.000145163
0.00576882 -0.000802454 0.000157144
0.00486613 -0.00358692 -0.000628737
-1.01433e-14 8.92156e-14 -2.84238e-13
0.00516747 -0.00410521 -0.000766226
1.46682e-13 -8.24622e-13 1.33394e-13
0.00574252 -0.00045374 9.85324e-05
0.00573397 -0.000522937 0.000333661
1.19633e-14 7.08819e-14 -1.76633e-13
0.00591671 -0.000223214 0.000120712
0.00528886 -0.000353645 0.000218462
0.00587912 -0.000654154 0.000427814
0.00510412 -0.000687803 8.11579e-05
0.00489367 -0.00353669 0.000731954
0.0059521 -0.000860972 0.000182782
0.00560822 -0.000453624 0.000290566
0.00489944 -0.00298977 -0.000634201
0.00606792 -0.000705535 0.000492037
0.00589106 -0.000875243 0.000163415
0.00538909 -0.00265103 0.000832676
0.00542538 -0.000468387 0.000111259
0.00487822 -0.00335746 0.00106351
0.00584847 -0.000939689 0.000179775
0.00607038 -0.000483683 0.000309141
0.00593888 -0.000823201 0.000159662
0.00576763 -0.000563243 0.000509097
0.00516006 -0.0027032 0.00111304
0.0058908 -0.000813836 -4.0576e-05
0.0058625 -0.000864142 -2.55481e-05
0.00527452 -0.00312501 0.00128934
0.00525769 -0.000549864 0.000111334
0.00500446 -0.00263232 0.00110657
0.00534093 -0.00371005 -0.000877356
0.00584263 -0.000960565 0.00017001
-0.0274519 0.0562313 -0.0763469
0.00572123 -0.000440611 9.87076e-05
0.00487775 -0.00356567 0.000427895
0.00534021 -0.00299941 -0.000677151
0.00503149 -0.000292191 -4.2959e-05
0.00496388 -0.00347852 0.000731581
0.00515283 -0.000516187 9.46196e-05
0.00483152 -0.00356471 -0.000210709
0.00493991 -0.00371794 0.000767911
8.60324e-06 0.000676065 -0.000610649
0.00530146 -0.00366462 -0.0011157
0.00572387 -0.00280353 -0.000661694
-0.0203558 -0.0914488 -0.0659559
0.00411003 -0.00270561 -0.000559021
-3.0588e-15 1.01868e-14 -5.47488e-14
0.00604623 -0.00112229 -0.000114813
0.00482198 -9.17974e-05 -9.24528e-05
0.00464447 -0.002343 0.000548542
0.00530352 -0.000226219 0.000248197
0.00335884 0.00045493 0.000101447
0.00546726 -0.000383379 0.00035291
0.00523864 -0.00263315 0.00105814
0.0029632 0.00182642 -0.000229615
-8.00258e-15 -4.74151e-14 1.18155e-13
0.00595914 -0.000583485 0.000377418
3.27389e-13 -1.33999e-12 -1.67704e-13
0.00605912 -0.000412864 0.000255897
0.00514661 -0.00236428 0.000241695
0.00491425 -0.00361142 0.000764405
0.00528805 -0.00372798 -0.000526688
-7.99887e-15 -4.74159e-14 1.18155e-13
1.19626e-14 7.08819e-14 -1.76633e-13
0.00525312 -0.00387688 -0.000759523
0.00541037 -0.00166375 0.000467007
1.32337e-13 2.80683e-13 6.02133e-13
-0.000343911 -0.00248899 0.00413257
-1.27078e-12 4.19347e-13 1.65442e-13
0.0050257 -0.000247774 0.000177946
0.00531491 -0.00380127 -0.000750835
-5.52122e-05 0.000950713 -0.000891405
0.00543679 -0.000449186 0.00038311
0.00614002 -0.001421 -0.000157128
0.00595925 -0.00175473 -0.000270495
0.00549342 -0.00369943 -0.000752941
0.00488219 -0.00037532 -4.73243e-05
0.00551575 -0.00419287 0.000374569
0.00553044 -0.000646267 0.000460682
0.00536445 -0.00438942 0.000953757
-0.00286552 -0.000849626 6.66838e-05
0.00538724 -0.00306887 0.00125398
0.000290611 -0.0246517 -0.0185516
0.00522485 -0.00395955 -0.0012344
0.00537526 -0.00385734 -0.00118177
0.00568443 -0.00315843 -0.00070471
0.00485347 -0.000634749 -3.61223e-05
0.00548297 -0.000472221 0.000500806
0.00538862 -0.00399649 -0.00123878
0.020179 0.0477724 -0.0431289
2.06423e-15 1.22304e-14 -3.04775e-14
0.00506546 -0.00344169 0.000738811
0.00494389 -0.00291243 -0.00060584
4.92539e-05 0.000826291 -0.000784148
0.00508174 -0.000630391 0.000129717
0.00580104 -0.00211923 0.000334604
7.1006e-14 -7.59298e-13 -4.18495e-14
0.00537087 -0.000503891 -4.58541e-06
0.00583115 -0.00208103 0.000556165
-3.06268e-15 1.01853e-14 -5.47489e-14
0.00551016 -0.00169046 -0.000543451
-6.14437e-06 0.000470485 -0.000332472
0.00543182 -0.00191499 0.00050231
0.0044699 -0.000858625 -0.000598371
0.00534724 -0.0039607 -0.000763327
1.56248e-14 -5.19549e-14 2.79273e-13
0.00540929 -0.000613865 0.000263695
0.0050337 -0.00407599 0.000847254
0.00526461 -0.00374452 -0.000739919
0.00594903 -0.000339815 0.00011313
6.27837e-15 -2.08855e-14 1.12262e-13
0.00530851 -0.00312802 0.00129102
0.044989 -0.044989 -0.0811004
0.00534453 -0.00311581 0.00128042
6.30192e-06 0.0630499 -0.0586997
-1.45783e-05 -0.00249768 -0.00452362
0.0 -0.0 -0.03
0.00530741 -0.00283584 0.000657958
0.00638963 -0.000138871 6.15336e-05
0.0128823 -0.0119999 -0.00184986
-0.0382107 -0.0855885 -0.0435461
0.0 -0.0 -0.03
-0.0117916 -0.10528 -0.151785
-2.06557e-05 0.0194703 -0.0156972
2.18188e-05 0.0702738 -0.114407
2.01717e-09 0.0283372 -0.00590313
-6.97191e-11 0.0240795 0.000953139
-1.24072e-14 4.12553e-14 -2.2176e-13
4.53927e-15 -7.48653e-14 1.91638e-13
-0.00798534 -0.0665123 -0.074492
0.00519731 -0.000369443 0.000446459
0.0 -0.0 -0.03
0.0 -0.0 -0.03
0.0 -0.0 -0.03
-0.0039481 -0.00698983 0.0982895
0.0 -0.0 -0.03
0.00744812 -0.0666374 -0.0349758
-0.00302834 0.0555325 -0.0718279
0.0052931 -0.00263186 0.00105325
0.0 -0.0 -0.03
-3.07356e-08 5.07071e-07 1.9882e-07
-0.0352625 -0.0824899 -0.171646
9.72092e-05 0.0341119 0.0310644
0.0524911 0.0291045 -0.00268611
-0.000316676 0.031175 0.00397534
-2.4863e-15 4.10201e-14 -1.05002e-13
0.0 -0.0 -0.03
0.0 -0.0 -0.03
0.0 -0.0 -0.03
0.00164512 0.0829195 -0.0141129
0.0 -0.0 -0.03
0.00543397 -0.00304725 0.000683151
0.013286 -0.0176319 -0.00720267
0.0 -0.0 -0.03
-0.000301807 -0.00255353 0.00424059
0.0 -0.0 -0.03
-0.00799248 0.00115723 -0.00758126
8.79986e-05 0.0413856 -0.0332769
0.0 -0.0 -0.03
0.0 -0.0 -0.03
0.0 -0.0 -0.03
0.0 -0.0 -0.03
7.25379e-06 0.0246486 -0.0142192
-3.53194e-05 0.0570829 -0.171821
0.0 -0.0 -0.03
0.0 -0.0 -0.03
0.0 -0.0 -0.03
0.0 -0.0 -0.03
0.0 -0.0 -0.03
0.0 -0.0 -0.03
0.00552418 -0.000222493 0.0004763
0.0 -0.0 -0.03
0.0 -0.0 -0.03
0.0 -0.0 -0.03
0.0 -0.0 -0.03
0.0 -0.0 -0.03
-1.02107e-15 -6.12725e-15 -3.29319e-14
0.0 -0.0 -0.03
0.0494055 0.0158932 -0.17271
0.0 0.0 -0.222742
0.0 -0.0 -0.03
0.0 -0.0 -0.03
0.0 -0.0 -0.03
0.000143941 -0.0783863 0.0501699
0.00601867 -0.00151526 0.000424362
1.19423e-14 7.08827e-14 -1.76634e-13
1.19634e-14 7.08819e-14 -1.76633e-13
-1.33896e-14 4.44755e-14 -2.21105e-13

VECTORS force float
4.24236e-10 -1.22604e-09 7.97676e-10
-4.54779e-10 1.18318e-09 5.08129e-10
-1.58802e-09 3.46303e-10 -1.38478e-10
-5.44888e-10 -1.01077e-09 9.12995e-10
7.51695e-12 -1.06826e-12 1.56853e-12
3.71172e-12 1.6659e-11 -1.90902e-11
-1.10019e-09 -1.38607e-09 9.93358e-10
1.6607e-11 5.81031e-11 -1.67839e-11
1.45707e-10 2.39146e-10 -1.96927e-09
4.2636e-09 -4.56438e-10 2.4469e-10
-4.02385e-10 -1.39893e-09 7.60735e-10
6.80291e-10 -1.29286e-10 3.34216e-10
-2.11827e-09 -8.26822e-09 2.70639e-09
4.63366e-09 1.95472e-09 -8.56972e-10
-8.5183e-09 -4.46023e-09 4.03064e-09
-3.09266e-10 2.07394e-10 -5.32862e-10
3.01788e-10 -1.64774e-09 1.37971e-09
5.84306e-09 -4.87837e-09 7.08693e-10
-2.16476e-10 -9.31078e-10 7.98851e-10
7.8127e-09 -4.15192e-09 5.77981e-10
3.04861e-10 -2.31667e-10 -7.34354e-10
1.37158e-11 -4.91393e-12 3.72304e-12
1.69209e-09 -6.85043e-10 8.17722e-10
-5.30647e-13 -3.70029e-12 -1.29136e-12
-1.41447e-09 2.10375e-09 -2.48921e-10
2.58829e-12 -2.65954e-12 1.70297e-12
-3.40295e-10 -7.22187e-11 1.21997e-11
-2.02918e-11 -6.13646e-11 3.63261e-09
1.09694e-09 -4.57555e-09 1.54342e-09
3.35162e-09 -9.72831e-10 3.90631e-09
1.0543e-08 2.45977e-09 -4.62391e-10
6.79862e-09 -2.38513e-09 1.31866e-09
1.53068e-11 4.89071e-11 -1.54977e-11
-3.41317e-10 -2.86065e-09 1.14187e-09
9.77434e-10 8.30377e-10 3.87119e-10
1.25655e-11 2.00207e-12 -2.67179e-12
-1.679e-09 9.69442e-10 -3.68168e-10
7.19916e-10 -1.04479e-10 1.62551e-10
7.49167e-10 -3.11432e-09 -5.2904e-11
4.44111e-11 -1.88922e-09 -5.02702e-09
4.84785e-09 -1.50191e-09 2.43754e-10
-1.31369e-09 1.3282e-08 -1.99427e-09
1.72273e-13 -4.28232e-13 -1.57881e-12
-9.798e-10 -8.86174e-10 6.07902e-10
-9.50218e-10 -8.71834e-10 3.45094e-10
-2.97066e-09 -8.92367e-10 -4.45473e-11
-2.50601e-09 -4.33829e-09 1.07517e-09
-3.66229e-11 -2.20481e-09 3.79618e-10
-5.10267e-09 -7.07777e-09 2.95753e-09
2.24384e-12 6.67308e-12 -1.50363e-12
6.23235e-09 -1.92595e-09 1.39727e-09
3.61677e-09 -4.74141e-09 -1.00601e-09
-1.06981e-11 1.58962e-09 -1.11053e-09
-1.49706e-12 8.03263e-13 -9.809e-13
-1.13731e-10 -5.77666e-09 9.41421e-10
-1.15646e-11 -2.28813e-12 1.94073e-12
2.58568e-09 -2.55371e-09 1.83895e-09
-1.21787e-09 -8.00052e-10 6.47357e-10
1.64895e-10 -2.42904e-09 4.42549e-10
-1.27362e-09 2.48278e-09 -6.58481e-10
-2.20874e-10 5.4342e-11 -1.10519e-11
2.62337e-09 4.58001e-10 1.31566e-10
-1.93237e-09 2.99927e-09 6.59983e-10
4.92557e-09 -1.46597e-09 2.73333e-10
3.4693e-09 -1.42528e-09 -1.442e-09
4.81889e-09 -7.37867e-09 2.00905e-09
2.04786e-11 4.17661e-11 -1.07186e-11
-1.17305e-09 -2.77519e-09 9.63275e-10
1.32884e-09 -4.82941e-10 9.64323e-11
2.24933e-09 8.69461e-10 1.78713e-10
-6.77795e-13 2.26194e-11 -1.19075e-11
1.52756e-09 -6.29208e-10 5.59351e-09
3.63442e-09 -2.86077e-09 5.03813e-10
-2.32848e-09 -6.27144e-10 4.48879e-10
-8.53078e-09 4.0673e-09 9.50918e-10
2.25632e-11 -1.12884e-09 2.15384e-09
5.21594e-09 1.79347e-09 3.40236e-10
-2.25793e-09 1.61722e-09 -5.04342e-11
2.22901e-09 -2.33271e-09 -2.36044e-10
-2.08213e-09 7.1142e-10 2.25579e-09
2.07948e-11 3.70043e-11 -7.40264e-12
2.95765e-10 1.22054e-09 -5.84863e-10
6.66492e-09 -4.52227e-09 -1.4414e-09
-7.69785e-10 -5.41453e-09 1.05396e-09
3.70623e-09 -3.5192e-09 2.72844e-09
-3.27014e-09 8.44952e-10 5.63172e-09
1.64814e-08 -7.65156e-09 1.50761e-09
2.43968e-09 -2.559e-09 3.6132e-10
-7.67786e-10 1.1013e-09 7.35973e-10
-2.09436e-10 -2.70181e-09 -8.68236e-10
-1.01177e-10 -1.13394e-10 2.52802e-11
1.98207e-10 1.76036e-09 4.8898e-10
1.84525e-10 -3.95208e-09 2.47896e-09
4.22444e-10 -1.37565e-09 1.25997e-10
-2.75001e-09 1.1684e-09 -8.23966e-10
-2.09072e-09 8.11198e-10 -6.30454e-10
-4.81885e-10 -1.64298e-09 -3.49895e-11
9.61017e-10 3.03069e-09 -2.71623e-10
-2.96236e-09 1.91781e-09 -1.37047e-09
-1.22208e-09 4.46422e-09 -1.74797e-09
1.18688e-09 1.59254e-09 4.23176e-10
-1.28583e-08 3.46064e-09 3.92364e-09
-3.03228e-10 -1.56684e-09 -5.93968e-09
5.57627e-09 -4.13696e-09 7.18003e-10
-1.21628e-10 -7.75915e-10 1.9734e-10
-1.35973e-10 -2.34404e-09 4.38874e-10
-1.26739e-09 3.01912e-09 -1.4405e-09
-7.60971e-17 -7.72977e-17 -6.71763e-17
1.89844e-09 -2.29265e-09 -1.49289e-10
-9.03588e-18 1.35762e-17 1.73683e-17
6.53912e-09 4.22219e-10 5.74127e-11
5.9955e-11 -8.49038e-10 6.04513e-10
-1.03398e-25 0.0 0.0
-1.28205e-09 -4.63255e-09 2.69699e-09
2.55278e-09 7.84122e-10 -4.8969e-10
-1.2486e-09 9.61388e-10 -5.4372e-10
9.9946e-09 -1.88992e-08 -1.86479e-09
-1.42914e-09 -3.03735e-09 2.93603e-09
2.43833e-09 1.00648e-09 2.96363e-10
4.91977e-09 -9.76305e-10 7.11563e-10
5.54455e-09 -4.35326e-09 1.52367e-09
-1.27317e-09 -3.70109e-11 -6.85872e-10
3.255e-09 -3.57278e-09 9.87481e-10
-2.70833e-09 4.76473e-09 -1.44805e-09
3.32118e-10 -3.13472e-09 -2.71466e-10
-3.23706e-09 2.23336e-09 3.86184e-09
1.90369e-09 -7.08873e-09 1.42333e-09
3.45526e-09 -2.93728e-09 2.13953e-09
3.09308e-09 -4.03887e-10 -1.45763e-10
2.9304e-09 -1.78007e-09 -1.0199e-09
-4.4915e-09 1.28389e-08 -6.77696e-09
-5.77894e-10 -2.34322e-09 1.49666e-09
-6.00771e-10 8.31649e-10 3.52904e-10
-1.9766e-09 -1.56076e-09 6.25027e-10
-1.48726e-09 2.83816e-10 4.04214e-11
-2.84305e-09 1.45575e-09 5.72447e-09
1.81703e-10 3.62046e-09 -2.01514e-10
3.10276e-09 -9.42084e-12 6.32595e-11
0.0 0.0 -1.15058e-08
5.7419e-09 -1.84016e-09 2.63564e-10
-1.72604e-09 4.11384e-10 4.58086e-09
-2.63872e-10 -8.95871e-10 -1.65713e-11
-1.98461e-09 -8.53455e-10 1.72526e-10
-9.43511e-10 -4.60758e-10 1.18691e-10
2.21409e-10 -6.96428e-10 -6.67722e-10
2.19536e-10 2.23176e-09 2.67419e-09
-6.59807e-10 -1.9074e-09 2.94415e-10
1.05598e-12 8.92724e-11 -9.1841e-11
4.95793e-10 2.83303e-09 9.03829e-10
-6.63245e-10 5.71656e-09 1.74297e-09
0.0 0.0 -1.15058e-08
4.7045e-09 -1.50043e-09 -1.01722e-09
-5.67136e-22 -1.57164e-22 1.65436e-24
8.92508e-09 6.61616e-10 1.58289e-09
3.65699e-10 2.21154e-09 -1.33939e-09
2.70706e-09 -1.48896e-09 7.74132e-11
-2.98325e-09 -1.53356e-09 5.77243e-09
3.17663e-11 -9.0826e-10 1.41171e-09
4.36705e-09 -2.48601e-09 1.81952e-09
5.55377e-09 5.51122e-09 -2.09966e-09
2.18431e-09 9.47856e-11 -2.00154e-10
2.06795e-25 0.0 0.0
-1.80846e-09 -3.03484e-09 2.03447e-09
4.26616e-17 -1.6765e-17 -4.49639e-18
6.02624e-09 -6.25536e-09 4.35464e-09
1.04484e-09 -2.24419e-12 -5.80194e-09
1.23578e-09 -2.6159e-09 -9.50991e-10
2.72794e-09 -4.69624e-09 2.0091e-09
8.70608e-23 1.40621e-23 9.92617e-24
-8.99559e-24 -8.27181e-25 0.0
-1.29856e-10 -1.01707e-10 6.87472e-10
5.01931e-09 -3.0072e-10 -1.56375e-10
7.04819e-17 8.16464e-17 -1.36332e-17
-1.54857e-11 -1.2375e-10 2.05486e-10
-1.46692e-17 4.1137e-17 1.74964e-17
8.02826e-10 7.64998e-10 1.08382e-09
4.27785e-10 4.38227e-10 -2.16934e-10
-4.31139e-12 8.60936e-11 -9.28871e-11
1.01403e-09 -2.53887e-10 -7.66561e-10
9.85825e-09 -1.63186e-09 -3.01128e-10
7.48562e-09 -6.55746e-09 3.07812e-09
-9.99593e-11 7.73904e-09 1.35653e-11
2.11123e-09 -7.94133e-10 3.91664e-10
8.64123e-10 -2.41649e-09 -1.21934e-09
1.39125e-09 -1.35119e-09 -2.91684e-09
2.11328e-09 -3.41996e-09 -5.29104e-10
5.16331e-09 3.17394e-09 -5.06286e-10
5.53288e-10 5.6192e-10 -3.47472e-11
0.0 0.0 -1.15058e-08
2.01988e-10 -2.03573e-10 -1.08843e-10
1.30418e-09 1.91542e-09 7.26542e-10
2.97367e-09 -2.01739e-09 -3.60389e-10
1.44042e-09 -2.09631e-10 -6.13158e-10
7.1854e-09 8.42687e-10 -9.78737e-10
1.52537e-09 5.25466e-11 1.5059e-10
0.0 0.0 -1.15058e-08
0.0 0.0 0.0
1.80578e-10 1.54632e-09 -1.13196e-09
2.49387e-09 -8.2715e-09 6.3102e-12
5.14687e-12 8.91932e-11 -9.56511e-11
-2.27163e-09 -2.15054e-09 4.30488e-10
8.10051e-09 -4.35756e-09 3.30838e-09
-4.47351e-18 -2.77672e-17 1.44229e-17
-9.65707e-10 -5.82284e-10 4.43984e-10
6.88692e-09 -3.42525e-09 1.19565e-09
-2.92615e-23 -3.72231e-24 0.0
4.64246e-09 -3.39007e-09 2.04614e-10
1.03305e-10 1.5862e-09 -1.13142e-09
3.54186e-09 1.18892e-09 -8.70417e-10
1.48308e-09 -1.65071e-09 -3.11812e-09
-9.59018e-10 -1.55314e-09 -8.7299e-10
8.3752e-24 1.65436e-24 0.0
4.99005e-09 -1.64406e-09 2.68152e-09
1.1673e-09 -3.2613e-09 4.3262e-10
-6.06261e-10 1.74045e-10 -1.84068e-10
1.6063e-11 1.07989e-11 -6.04225e-12
1.28833e-22 1.8198e-23 -3.30872e-24
-1.22287e-09 -1.54534e-09 1.09783e-09
-1.21797e-09 -3.66269e-09 -6.60263e-09
-5.7935e-12 1.58987e-10 -6.05588e-11
0.0 0.0 -1.15058e-08
4.84303e-11 4.49356e-11 -3.14766e-10
0.0 0.0 0.0
-1.52922e-09 -4.81262e-10 2.07792e-09
-3.63296e-09 -1.34789e-09 9.24601e-10
0.0 0.0 -1.15058e-08
0.0 0.0 -1.15058e-08
0.0 0.0 0.0
0.0 0.0 -1.15058e-08
0.0 0.0 -1.15058e-08
0.0 0.0 -1.15058e-08
2.68116e-19 -4.16799e-11 -1.98609e-10
-1.37129e-19 6.61406e-12 -1.68081e-10
1.11669e-23 7.44463e-24 1.65436e-24
1.00864e-22 1.65436e-24 -1.65436e-24
0.0 0.0 -1.15058e-08
3.85544e-10 9.44676e-10 -6.62109e-09
0.0 0.0 0.0
0.0 0.0 0.0
0.0 0.0 0.0
0.0 0.0 -1.15058e-08
0.0 0.0 0.0
0.0 0.0 -1.15058e-08
0.0 0.0 -1.15058e-08
-2.43052e-09 1.26936e-09 -5.55987e-09
0.0 0.0 0.0
1.10186e-12 -1.81785e-11 -7.12774e-12
0.0 0.0 -1.15058e-08
0.0 0.0 -1.15058e-08
0.0 0.0 -1.15058e-08
0.0 0.0 -1.15058e-08
-2.27475e-24 0.0 0.0
0.0 0.0 0.0
0.0 0.0 0.0
0.0 0.0 0.0
0.0 0.0 -1.15058e-08
0.0 0.0 0.0
-2.74849e-09 1.31217e-09 6.52471e-10
-2.73781e-09 2.28271e-10 1.54005e-10
0.0 0.0 0.0
-9.42817e-11 -1.15486e-10 1.81996e-10
0.0 0.0 0.0
-5.28869e-10 2.181e-10 -2.10986e-10
6.85038e-12 1.47868e-09 -1.70977e-09
0.0 0.0 0.0
0.0 0.0 0.0
0.0 0.0 0.0
0.0 0.0 0.0
1.40931e-12 6.79206e-10 -6.6135e-10
0.0 0.0 -1.15058e-08
0.0 0.0 0.0
0.0 0.0 0.0
0.0 0.0 0.0
0.0 0.0 0.0
0.0 0.0 0.0
0.0 0.0 0.0
-2.22236e-10 2.64892e-09 -5.14633e-09
0.0 0.0 0.0
0.0 0.0 0.0
0.0 0.0 0.0
0.0 0.0 0.0
0.0 0.0 0.0
-2.55237e-22 2.5229e-23 1.65436e-24
0.0 0.0 0.0
0.0 0.0 -1.15058e-08
0.0 0.0 -1.15058e-08
0.0 0.0 0.0
0.0 0.0 0.0
0.0 0.0 0.0
0.0 0.0 -1.15058e-08
5.77652e-09 -4.27739e-09 2.37845e-09
1.38625e-21 -5.0458e-23 7.7755e-23
-9.09899e-24 2.48154e-24 1.65436e-24
-1.51762e-19 5.0099e-19 1.01692e-19
