solid feed
  facet normal 0.000000e+00 0.000000e+00 -1.000000e+00
    outer loop
      vertex 1.995021e-01 1.928339e-02 3.000000e-03
      vertex 1.995021e-01 2.898339e-02 3.000000e-03
      vertex 2.004528e-01 2.893668e-02 3.000000e-03
    endloop
  endfacet
  facet normal 0.000000e+00 0.000000e+00 -1.000000e+00
    outer loop
      vertex 1.995021e-01 1.928339e-02 3.000000e-03
      vertex 2.004528e-01 2.893668e-02 3.000000e-03
      vertex 2.013945e-01 2.879701e-02 3.000000e-03
    endloop
  endfacet
  facet normal 0.000000e+00 0.000000e+00 -1.000000e+00
    outer loop
      vertex 1.995021e-01 1.928339e-02 3.000000e-03
      vertex 2.013945e-01 2.879701e-02 3.000000e-03
      vertex 2.023178e-01 2.856571e-02 3.000000e-03
    endloop
  endfacet
  facet normal 0.000000e+00 0.000000e+00 -1.000000e+00
    outer loop
      vertex 1.995021e-01 1.928339e-02 3.000000e-03
      vertex 2.023178e-01 2.856571e-02 3.000000e-03
      vertex 2.032141e-01 2.824502e-02 3.000000e-03
    endloop
  endfacet
  facet normal 0.000000e+00 0.000000e+00 -1.000000e+00
    outer loop
      vertex 1.995021e-01 1.928339e-02 3.000000e-03
      vertex 2.032141e-01 2.824502e-02 3.000000e-03
      vertex 2.040746e-01 2.783803e-02 3.000000e-03
    endloop
  endfacet
  facet normal 0.000000e+00 0.000000e+00 -1.000000e+00
    outer loop
      vertex 1.995021e-01 1.928339e-02 3.000000e-03
      vertex 2.040746e-01 2.783803e-02 3.000000e-03
      vertex 2.048911e-01 2.734865e-02 3.000000e-03
    endloop
  endfacet
  facet normal 0.000000e+00 0.000000e+00 -1.000000e+00
    outer loop
      vertex 1.995021e-01 1.928339e-02 3.000000e-03
      vertex 2.048911e-01 2.734865e-02 3.000000e-03
      vertex 2.056557e-01 2.678159e-02 3.000000e-03
    endloop
  endfacet
  facet normal 0.000000e+00 0.000000e+00 -1.000000e+00
    outer loop
      vertex 1.995021e-01 1.928339e-02 3.000000e-03
      vertex 2.056557e-01 2.678159e-02 3.000000e-03
      vertex 2.063610e-01 2.614233e-02 3.000000e-03
    endloop
  endfacet
  facet normal 0.000000e+00 0.000000e+00 -1.000000e+00
    outer loop
      vertex 1.995021e-01 1.928339e-02 3.000000e-03
      vertex 2.063610e-01 2.614233e-02 3.000000e-03
      vertex 2.070003e-01 2.543700e-02 3.000000e-03
    endloop
  endfacet
  facet normal 0.000000e+00 0.000000e+00 -1.000000e+00
    outer loop
      vertex 1.995021e-01 1.928339e-02 3.000000e-03
      vertex 2.070003e-01 2.543700e-02 3.000000e-03
      vertex 2.075673e-01 2.467242e-02 3.000000e-03
    endloop
  endfacet
  facet normal 0.000000e+00 0.000000e+00 -1.000000e+00
    outer loop
      vertex 1.995021e-01 1.928339e-02 3.000000e-03
      vertex 2.075673e-01 2.467242e-02 3.000000e-03
      vertex 2.080567e-01 2.385594e-02 3.000000e-03
    endloop
  endfacet
  facet normal 0.000000e+00 0.000000e+00 -1.000000e+00
    outer loop
      vertex 1.995021e-01 1.928339e-02 3.000000e-03
      vertex 2.080567e-01 2.385594e-02 3.000000e-03
      vertex 2.084637e-01 2.299542e-02 3.000000e-03
    endloop
  endfacet
  facet normal 0.000000e+00 0.000000e+00 -1.000000e+00
    outer loop
      vertex 1.995021e-01 1.928339e-02 3.000000e-03
      vertex 2.084637e-01 2.299542e-02 3.000000e-03
      vertex 2.087844e-01 2.209915e-02 3.000000e-03
    endloop
  endfacet
  facet normal 0.000000e+00 0.000000e+00 -1.000000e+00
    outer loop
      vertex 1.995021e-01 1.928339e-02 3.000000e-03
      vertex 2.087844e-01 2.209915e-02 3.000000e-03
      vertex 2.090157e-01 2.117577e-02 3.000000e-03
    endloop
  endfacet
  facet normal 0.000000e+00 0.000000e+00 -1.000000e+00
    outer loop
      vertex 1.995021e-01 1.928339e-02 3.000000e-03
      vertex 2.090157e-01 2.117577e-02 3.000000e-03
      vertex 2.091554e-01 2.023416e-02 3.000000e-03
    endloop
  endfacet
  facet normal 0.000000e+00 0.000000e+00 -1.000000e+00
    outer loop
      vertex 1.995021e-01 1.928339e-02 3.000000e-03
      vertex 2.091554e-01 2.023416e-02 3.000000e-03
      vertex 2.092021e-01 1.928339e-02 3.000000e-03
    endloop
  endfacet
  facet normal 0.000000e+00 0.000000e+00 -1.000000e+00
    outer loop
      vertex 1.995021e-01 1.928339e-02 3.000000e-03
      vertex 2.092021e-01 1.928339e-02 3.000000e-03
      vertex 2.091554e-01 1.833262e-02 3.000000e-03
    endloop
  endfacet
  facet normal 0.000000e+00 0.000000e+00 -1.000000e+00
    outer loop
      vertex 1.995021e-01 1.928339e-02 3.000000e-03
      vertex 2.091554e-01 1.833262e-02 3.000000e-03
      vertex 2.090157e-01 1.739101e-02 3.000000e-03
    endloop
  endfacet
  facet normal 0.000000e+00 0.000000e+00 -1.000000e+00
    outer loop
      vertex 1.995021e-01 1.928339e-02 3.000000e-03
      vertex 2.090157e-01 1.739101e-02 3.000000e-03
      vertex 2.087844e-01 1.646763e-02 3.000000e-03
    endloop
  endfacet
  facet normal 0.000000e+00 0.000000e+00 -1.000000e+00
    outer loop
      vertex 1.995021e-01 1.928339e-02 3.000000e-03
      vertex 2.087844e-01 1.646763e-02 3.000000e-03
      vertex 2.084637e-01 1.557136e-02 3.000000e-03
    endloop
  endfacet
  facet normal 0.000000e+00 0.000000e+00 -1.000000e+00
    outer loop
      vertex 1.995021e-01 1.928339e-02 3.000000e-03
      vertex 2.084637e-01 1.557136e-02 3.000000e-03
      vertex 2.080567e-01 1.471084e-02 3.000000e-03
    endloop
  endfacet
  facet normal 0.000000e+00 0.000000e+00 -1.000000e+00
    outer loop
      vertex 1.995021e-01 1.928339e-02 3.000000e-03
      vertex 2.080567e-01 1.471084e-02 3.000000e-03
      vertex 2.075673e-01 1.389436e-02 3.000000e-03
    endloop
  endfacet
  facet normal 0.000000e+00 0.000000e+00 -1.000000e+00
    outer loop
      vertex 1.995021e-01 1.928339e-02 3.000000e-03
      vertex 2.075673e-01 1.389436e-02 3.000000e-03
      vertex 2.070003e-01 1.312978e-02 3.000000e-03
    endloop
  endfacet
  facet normal 0.000000e+00 0.000000e+00 -1.000000e+00
    outer loop
      vertex 1.995021e-01 1.928339e-02 3.000000e-03
      vertex 2.070003e-01 1.312978e-02 3.000000e-03
      vertex 2.063610e-01 1.242445e-02 3.000000e-03
    endloop
  endfacet
  facet normal 0.000000e+00 0.000000e+00 -1.000000e+00
    outer loop
      vertex 1.995021e-01 1.928339e-02 3.000000e-03
      vertex 2.063610e-01 1.242445e-02 3.000000e-03
      vertex 2.056557e-01 1.178519e-02 3.000000e-03
    endloop
  endfacet
  facet normal 0.000000e+00 0.000000e+00 -1.000000e+00
    outer loop
      vertex 1.995021e-01 1.928339e-02 3.000000e-03
      vertex 2.056557e-01 1.178519e-02 3.000000e-03
      vertex 2.048911e-01 1.121813e-02 3.000000e-03
    endloop
  endfacet
  facet normal 0.000000e+00 0.000000e+00 -1.000000e+00
    outer loop
      vertex 1.995021e-01 1.928339e-02 3.000000e-03
      vertex 2.048911e-01 1.121813e-02 3.000000e-03
      vertex 2.040746e-01 1.072875e-02 3.000000e-03
    endloop
  endfacet
  facet normal 0.000000e+00 0.000000e+00 -1.000000e+00
    outer loop
      vertex 1.995021e-01 1.928339e-02 3.000000e-03
      vertex 2.040746e-01 1.072875e-02 3.000000e-03
      vertex 2.032141e-01 1.032176e-02 3.000000e-03
    endloop
  endfacet
  facet normal 0.000000e+00 0.000000e+00 -1.000000e+00
    outer loop
      vertex 1.995021e-01 1.928339e-02 3.000000e-03
      vertex 2.032141e-01 1.032176e-02 3.000000e-03
      vertex 2.023178e-01 1.000107e-02 3.000000e-03
    endloop
  endfacet
  facet normal 0.000000e+00 0.000000e+00 -1.000000e+00
    outer loop
      vertex 1.995021e-01 1.928339e-02 3.000000e-03
      vertex 2.023178e-01 1.000107e-02 3.000000e-03
      vertex 2.013945e-01 9.769773e-03 3.000000e-03
    endloop
  endfacet
  facet normal 0.000000e+00 0.000000e+00 -1.000000e+00
    outer loop
      vertex 1.995021e-01 1.928339e-02 3.000000e-03
      vertex 2.013945e-01 9.769773e-03 3.000000e-03
      vertex 2.004528e-01 9.630103e-03 3.000000e-03
    endloop
  endfacet
  facet normal 0.000000e+00 0.000000e+00 -1.000000e+00
    outer loop
      vertex 1.995021e-01 1.928339e-02 3.000000e-03
      vertex 2.004528e-01 9.630103e-03 3.000000e-03
      vertex 1.995021e-01 9.583393e-03 3.000000e-03
    endloop
  endfacet
  facet normal 0.000000e+00 0.000000e+00 -1.000000e+00
    outer loop
      vertex 1.995021e-01 1.928339e-02 3.000000e-03
      vertex 1.995021e-01 9.583393e-03 3.000000e-03
      vertex 1.985513e-01 9.630103e-03 3.000000e-03
    endloop
  endfacet
  facet normal 0.000000e+00 0.000000e+00 -1.000000e+00
    outer loop
      vertex 1.995021e-01 1.928339e-02 3.000000e-03
      vertex 1.985513e-01 9.630103e-03 3.000000e-03
      vertex 1.976097e-01 9.769773e-03 3.000000e-03
    endloop
  endfacet
  facet normal 0.000000e+00 0.000000e+00 -1.000000e+00
    outer loop
      vertex 1.995021e-01 1.928339e-02 3.000000e-03
      vertex 1.976097e-01 9.769773e-03 3.000000e-03
      vertex 1.966863e-01 1.000107e-02 3.000000e-03
    endloop
  endfacet
  facet normal 0.000000e+00 0.000000e+00 -1.000000e+00
    outer loop
      vertex 1.995021e-01 1.928339e-02 3.000000e-03
      vertex 1.966863e-01 1.000107e-02 3.000000e-03
      vertex 1.957900e-01 1.032176e-02 3.000000e-03
    endloop
  endfacet
  facet normal 0.000000e+00 0.000000e+00 -1.000000e+00
    outer loop
      vertex 1.995021e-01 1.928339e-02 3.000000e-03
      vertex 1.957900e-01 1.032176e-02 3.000000e-03
      vertex 1.949295e-01 1.072875e-02 3.000000e-03
    endloop
  endfacet
  facet normal 0.000000e+00 0.000000e+00 -1.000000e+00
    outer loop
      vertex 1.995021e-01 1.928339e-02 3.000000e-03
      vertex 1.949295e-01 1.072875e-02 3.000000e-03
      vertex 1.941130e-01 1.121813e-02 3.000000e-03
    endloop
  endfacet
  facet normal 0.000000e+00 0.000000e+00 -1.000000e+00
    outer loop
      vertex 1.995021e-01 1.928339e-02 3.000000e-03
      vertex 1.941130e-01 1.121813e-02 3.000000e-03
      vertex 1.933485e-01 1.178519e-02 3.000000e-03
    endloop
  endfacet
  facet normal 0.000000e+00 0.000000e+00 -1.000000e+00
    outer loop
      vertex 1.995021e-01 1.928339e-02 3.000000e-03
      vertex 1.933485e-01 1.178519e-02 3.000000e-03
      vertex 1.926431e-01 1.242445e-02 3.000000e-03
    endloop
  endfacet
  facet normal 0.000000e+00 0.000000e+00 -1.000000e+00
    outer loop
      vertex 1.995021e-01 1.928339e-02 3.000000e-03
      vertex 1.926431e-01 1.242445e-02 3.000000e-03
      vertex 1.920039e-01 1.312978e-02 3.000000e-03
    endloop
  endfacet
  facet normal 0.000000e+00 0.000000e+00 -1.000000e+00
    outer loop
      vertex 1.995021e-01 1.928339e-02 3.000000e-03
      vertex 1.920039e-01 1.312978e-02 3.000000e-03
      vertex 1.914368e-01 1.389436e-02 3.000000e-03
    endloop
  endfacet
  facet normal 0.000000e+00 0.000000e+00 -1.000000e+00
    outer loop
      vertex 1.995021e-01 1.928339e-02 3.000000e-03
      vertex 1.914368e-01 1.389436e-02 3.000000e-03
      vertex 1.909474e-01 1.471084e-02 3.000000e-03
    endloop
  endfacet
  facet normal 0.000000e+00 0.000000e+00 -1.000000e+00
    outer loop
      vertex 1.995021e-01 1.928339e-02 3.000000e-03
      vertex 1.909474e-01 1.471084e-02 3.000000e-03
      vertex 1.905404e-01 1.557136e-02 3.000000e-03
    endloop
  endfacet
  facet normal 0.000000e+00 0.000000e+00 -1.000000e+00
    outer loop
      vertex 1.995021e-01 1.928339e-02 3.000000e-03
      vertex 1.905404e-01 1.557136e-02 3.000000e-03
      vertex 1.902198e-01 1.646763e-02 3.000000e-03
    endloop
  endfacet
  facet normal 0.000000e+00 0.000000e+00 -1.000000e+00
    outer loop
      vertex 1.995021e-01 1.928339e-02 3.000000e-03
      vertex 1.902198e-01 1.646763e-02 3.000000e-03
      vertex 1.899885e-01 1.739101e-02 3.000000e-03
    endloop
  endfacet
  facet normal 0.000000e+00 0.000000e+00 -1.000000e+00
    outer loop
      vertex 1.995021e-01 1.928339e-02 3.000000e-03
      vertex 1.899885e-01 1.739101e-02 3.000000e-03
      vertex 1.898488e-01 1.833262e-02 3.000000e-03
    endloop
  endfacet
  facet normal 0.000000e+00 0.000000e+00 -1.000000e+00
    outer loop
      vertex 1.995021e-01 1.928339e-02 3.000000e-03
      vertex 1.898488e-01 1.833262e-02 3.000000e-03
      vertex 1.898021e-01 1.928339e-02 3.000000e-03
    endloop
  endfacet
  facet normal 0.000000e+00 0.000000e+00 -1.000000e+00
    outer loop
      vertex 1.995021e-01 1.928339e-02 3.000000e-03
      vertex 1.898021e-01 1.928339e-02 3.000000e-03
      vertex 1.898488e-01 2.023416e-02 3.000000e-03
    endloop
  endfacet
  facet normal 0.000000e+00 0.000000e+00 -1.000000e+00
    outer loop
      vertex 1.995021e-01 1.928339e-02 3.000000e-03
      vertex 1.898488e-01 2.023416e-02 3.000000e-03
      vertex 1.899885e-01 2.117577e-02 3.000000e-03
    endloop
  endfacet
  facet normal 0.000000e+00 0.000000e+00 -1.000000e+00
    outer loop
      vertex 1.995021e-01 1.928339e-02 3.000000e-03
      vertex 1.899885e-01 2.117577e-02 3.000000e-03
      vertex 1.902198e-01 2.209915e-02 3.000000e-03
    endloop
  endfacet
  facet normal 0.000000e+00 0.000000e+00 -1.000000e+00
    outer loop
      vertex 1.995021e-01 1.928339e-02 3.000000e-03
      vertex 1.902198e-01 2.209915e-02 3.000000e-03
      vertex 1.905404e-01 2.299542e-02 3.000000e-03
    endloop
  endfacet
  facet normal 0.000000e+00 0.000000e+00 -1.000000e+00
    outer loop
      vertex 1.995021e-01 1.928339e-02 3.000000e-03
      vertex 1.905404e-01 2.299542e-02 3.000000e-03
      vertex 1.909474e-01 2.385594e-02 3.000000e-03
    endloop
  endfacet
  facet normal 0.000000e+00 0.000000e+00 -1.000000e+00
    outer loop
      vertex 1.995021e-01 1.928339e-02 3.000000e-03
      vertex 1.909474e-01 2.385594e-02 3.000000e-03
      vertex 1.914368e-01 2.467242e-02 3.000000e-03
    endloop
  endfacet
  facet normal 0.000000e+00 0.000000e+00 -1.000000e+00
    outer loop
      vertex 1.995021e-01 1.928339e-02 3.000000e-03
      vertex 1.914368e-01 2.467242e-02 3.000000e-03
      vertex 1.920039e-01 2.543700e-02 3.000000e-03
    endloop
  endfacet
  facet normal 0.000000e+00 0.000000e+00 -1.000000e+00
    outer loop
      vertex 1.995021e-01 1.928339e-02 3.000000e-03
      vertex 1.920039e-01 2.543700e-02 3.000000e-03
      vertex 1.926431e-01 2.614233e-02 3.000000e-03
    endloop
  endfacet
  facet normal 0.000000e+00 0.000000e+00 -1.000000e+00
    outer loop
      vertex 1.995021e-01 1.928339e-02 3.000000e-03
      vertex 1.926431e-01 2.614233e-02 3.000000e-03
      vertex 1.933485e-01 2.678159e-02 3.000000e-03
    endloop
  endfacet
  facet normal 0.000000e+00 0.000000e+00 -1.000000e+00
    outer loop
      vertex 1.995021e-01 1.928339e-02 3.000000e-03
      vertex 1.933485e-01 2.678159e-02 3.000000e-03
      vertex 1.941130e-01 2.734865e-02 3.000000e-03
    endloop
  endfacet
  facet normal 0.000000e+00 0.000000e+00 -1.000000e+00
    outer loop
      vertex 1.995021e-01 1.928339e-02 3.000000e-03
      vertex 1.941130e-01 2.734865e-02 3.000000e-03
      vertex 1.949295e-01 2.783803e-02 3.000000e-03
    endloop
  endfacet
  facet normal 0.000000e+00 0.000000e+00 -1.000000e+00
    outer loop
      vertex 1.995021e-01 1.928339e-02 3.000000e-03
      vertex 1.949295e-01 2.783803e-02 3.000000e-03
      vertex 1.957900e-01 2.824502e-02 3.000000e-03
    endloop
  endfacet
  facet normal 0.000000e+00 0.000000e+00 -1.000000e+00
    outer loop
      vertex 1.995021e-01 1.928339e-02 3.000000e-03
      vertex 1.957900e-01 2.824502e-02 3.000000e-03
      vertex 1.966863e-01 2.856571e-02 3.000000e-03
    endloop
  endfacet
  facet normal 0.000000e+00 0.000000e+00 -1.000000e+00
    outer loop
      vertex 1.995021e-01 1.928339e-02 3.000000e-03
      vertex 1.966863e-01 2.856571e-02 3.000000e-03
      vertex 1.976097e-01 2.879701e-02 3.000000e-03
    endloop
  endfacet
  facet normal 0.000000e+00 0.000000e+00 -1.000000e+00
    outer loop
      vertex 1.995021e-01 1.928339e-02 3.000000e-03
      vertex 1.976097e-01 2.879701e-02 3.000000e-03
      vertex 1.985513e-01 2.893668e-02 3.000000e-03
    endloop
  endfacet
  facet normal 0.000000e+00 0.000000e+00 -1.000000e+00
    outer loop
      vertex 1.995021e-01 1.928339e-02 3.000000e-03
      vertex 1.985513e-01 2.893668e-02 3.000000e-03
      vertex 1.995021e-01 2.898339e-02 3.000000e-03
    endloop
  endfacet
endsolid feed
