# vtk DataFile Version 3.0
LIGGGHTS particles timestep 26600000
ASCII
DATASET POLYDATA
POINTS 289 float
0.134951 0.016401 0.00775834
0.135254 0.0177517 0.00728316
0.135271 0.0178461 0.00725032
0.135211 0.01751 0.00736723
0.134539 0.0159065 0.00820834
0.140687 0.0164523 0.00782842
0.134687 0.0164133 0.00777928
0.134516 0.0158161 0.00825946
0.140986 0.0177163 0.00724757
0.13495 0.017492 0.00748559
0.134939 0.0167452 0.00764482
0.140946 0.017524 0.00728559
0.134915 0.0174023 0.00751981
0.128432 0.0156067 0.00861558
0.134845 0.0167171 0.00766221
0.12841 0.0155338 0.00868046
0.134854 0.0172242 0.007607
0.140885 0.017236 0.00734245
0.135079 0.0172485 0.00754365
0.135088 0.0170672 0.00752504
0.134561 0.0159732 0.00813657
0.134824 0.0166244 0.00769485
0.140905 0.017332 0.0073235
0.134803 0.0165318 0.00772744
0.140783 0.0167638 0.00744956
0.128735 0.0166279 0.00770731
0.135054 0.0173432 0.00756296
0.140665 0.0163904 0.007904
0.135015 0.0174215 0.00751393
0.13477 0.0167816 0.00764724
0.140707 0.0165144 0.0077528
0.135195 0.0176428 0.0073999
0.134877 0.0164665 0.00774286
0.141025 0.0179087 0.0072095
0.134666 0.0163254 0.00782205
0.134782 0.0164395 0.0077599
0.140827 0.0169556 0.00742422
0.134708 0.0165047 0.00774454
0.134809 0.0161931 0.00786484
0.134728 0.016597 0.00771206
0.134983 0.0169293 0.00757988
0.135178 0.0178149 0.00726863
0.140729 0.0165763 0.00767726
0.140804 0.0168584 0.00742457
0.134601 0.0160709 0.00796679
0.135069 0.0169745 0.00755748
0.140768 0.0167008 0.00752574
0.134941 0.0172152 0.0075571
0.129045 0.0167848 0.00758742
0.140844 0.0170439 0.00738034
0.134992 0.0165856 0.00769339
0.12899 0.0171695 0.00733202
0.135167 0.0177811 0.00736212
0.140749 0.0166384 0.00760157
0.128745 0.016364 0.0079505
0.140926 0.017428 0.00730455
0.135057 0.0168646 0.00759506
0.134583 0.0160238 0.00805315
0.134963 0.0168368 0.00761234
0.135186 0.0174159 0.00740067
0.140864 0.0171399 0.00736141
0.134495 0.0157392 0.00831996
0.128887 0.0165394 0.00780313
0.135073 0.0171614 0.00749496
0.128844 0.0163935 0.00793289
0.134749 0.0166893 0.0076796
0.141045 0.0180049 0.0071905
0.128889 0.0171955 0.00732719
0.140966 0.0176202 0.00726659
0.134622 0.0161557 0.00791832
0.135227 0.0184226 0.00706177
0.134644 0.0162415 0.00787183
0.141041 0.0175561 0.007284
0.135076 0.0178204 0.00737143
0.128497 0.0158256 0.00842095
0.128605 0.0161903 0.00809656
0.135138 0.0175761 0.00735149
0.129059 0.0172548 0.00731525
0.128757 0.0167009 0.00764243
0.128519 0.0158985 0.00835607
0.141021 0.0174596 0.00730306
0.128571 0.0157795 0.00847033
0.135101 0.0176271 0.00742915
0.141005 0.0178125 0.00722853
0.13501 0.0174488 0.00740633
0.13509 0.0173898 0.00741751
0.135069 0.0172978 0.00744999
0.134888 0.0169015 0.00759719
0.135096 0.0177607 0.00729368
0.135107 0.0178828 0.00725211
0.134989 0.0173563 0.00743733
0.134995 0.0177664 0.0073957
0.135057 0.0176343 0.00733932
0.13517 0.0178983 0.00732755
0.128789 0.0165099 0.00782074
0.13529 0.0180143 0.00719283
0.128941 0.0164224 0.00791578
0.134812 0.0169643 0.0075834
0.134919 0.0166517 0.00767766
0.128929 0.0166855 0.00767308
0.128932 0.0172857 0.00733107
0.134854 0.017153 0.0075368
0.128454 0.0156797 0.0085507
0.135089 0.0174809 0.0074803
0.134993 0.0170399 0.00754218
0.134894 0.0173297 0.00745425
0.134982 0.0176976 0.00732436
0.12867 0.0164091 0.00790193
0.134914 0.017422 0.00742178
0.128817 0.0169254 0.00745295
0.135325 0.0179247 0.00721961
0.135259 0.0173495 0.00741656
0.134475 0.0156973 0.00840849
0.128892 0.0168756 0.00749512
0.140644 0.0163284 0.0079796
0.134898 0.0165587 0.0077104
0.134457 0.0156661 0.00850177
0.135376 0.0182317 0.00711317
0.128657 0.0160713 0.00821081
0.135198 0.0180534 0.00718763
0.134713 0.0161698 0.00787856
0.134864 0.0168099 0.00762967
0.128562 0.0160444 0.00822632
0.134964 0.0173104 0.0075227
0.128832 0.0166559 0.00769096
0.134791 0.0168777 0.00762892
0.128909 0.0166124 0.00773825
0.135373 0.0180644 0.00716905
0.13476 0.0163462 0.00779286
0.134979 0.0171343 0.00751203
0.134972 0.0164933 0.00772586
0.128549 0.0157066 0.00853521
0.135199 0.0179155 0.00723336
0.135115 0.0174843 0.00738397
0.135001 0.0172288 0.00747869
0.135053 0.017727 0.00747851
0.128592 0.0158525 0.00840545
0.134909 0.016996 0.00757203
0.134921 0.0170947 0.00758325
0.134873 0.0172374 0.00748671
0.135127 0.0183957 0.00710413
0.128475 0.0157526 0.00848582
0.134832 0.0170564 0.00755042
0.135033 0.0175401 0.00737239
0.134439 0.0156353 0.0085952
0.128928 0.017021 0.00736083
0.134422 0.0156046 0.00868868
0.128796 0.0168472 0.0075119
0.128627 0.0162632 0.00803169
0.128865 0.0164665 0.00786801
0.135206 0.018006 0.00727532
0.12881 0.0165829 0.00775587
0.134678 0.0160295 0.00801645
0.129041 0.0171115 0.00725945
0.135087 0.0182056 0.00714519
0.129063 0.0168526 0.00751616
0.135027 0.0178845 0.00731245
0.128969 0.0168317 0.00754266
0.134831 0.0162781 0.00780945
0.128799 0.0162465 0.00806355
0.134959 0.0176058 0.00735684
0.129265 0.0173743 0.00719047
0.128911 0.0169497 0.00742877
0.135316 0.0181437 0.00714756
0.129188 0.0174377 0.00719839
0.13529 0.0182824 0.00710359
0.129005 0.0169717 0.0074018
0.129398 0.0176004 0.00717778
0.128714 0.016555 0.00777218
0.129081 0.016921 0.00744557
0.128948 0.0167587 0.00760773
0.128833 0.0169932 0.00738137
0.134935 0.0175143 0.00738931
0.128701 0.0162179 0.0080805
0.134738 0.0162592 0.00784156
0.12913 0.017155 0.00727765
0.135346 0.0177131 0.00728817
0.128945 0.0170904 0.0072909
0.129047 0.0174038 0.00732177
0.141065 0.0181009 0.00717154
0.135068 0.0181133 0.00717874
0.135038 0.0167721 0.00762752
0.128851 0.0170665 0.0073158
0.135179 0.0182394 0.0071273
0.12895 0.0173838 0.00733803
0.13509 0.0177224 0.00738589
0.134618 0.0158923 0.00814866
0.129285 0.0174723 0.00718816
0.128777 0.0161735 0.00812847
0.13461 0.0158317 0.00822776
0.128723 0.0162908 0.00801561
0.129224 0.0171767 0.0072509
0.128584 0.0161173 0.00816144
0.129059 0.0176611 0.00725289
0.129119 0.0173345 0.0073063
0.134856 0.0163738 0.00777547
0.129176 0.0174221 0.00729641
0.128777 0.016774 0.00757725
0.128987 0.0169022 0.00747249
0.128963 0.0164954 0.0078509
0.129154 0.0172493 0.00725426
0.128692 0.016482 0.00783706
0.135282 0.0174413 0.00738406
0.135126 0.0179817 0.00721757
0.14108 0.0177488 0.00724589
0.134987 0.0176716 0.00742661
0.128853 0.0167293 0.0076255
0.128872 0.0168025 0.00756015
0.135143 0.0184748 0.00704501
0.135033 0.0179491 0.00723631
0.135 0.0177904 0.00729192
0.1347 0.0160993 0.00794833
0.128679 0.0161443 0.00814586
0.134653 0.0159601 0.00808394
0.128649 0.0163362 0.00796681
0.12854 0.0159715 0.00829119
0.141061 0.0176524 0.00726496
0.129071 0.0173011 0.00720399
0.128388 0.0154609 0.00874534
0.128965 0.0171711 0.00723533
0.128767 0.016437 0.00788562
0.129326 0.0176677 0.00720088
0.128888 0.0172352 0.00723536
0.128822 0.0163206 0.00799777
0.135164 0.0181434 0.00716056
0.135146 0.0176754 0.00731778
0.129027 0.0179183 0.00729223
0.128965 0.017626 0.00726689
0.129176 0.0177929 0.00724656
0.128985 0.0172698 0.00724766
0.122781 0.0167622 0.00747119
0.128946 0.0175278 0.00726664
0.128999 0.0173668 0.0072267
0.122761 0.0166776 0.00752061
0.122801 0.0168467 0.00742176
0.129021 0.0174651 0.00724709
0.12284 0.0170161 0.00732275
0.134572 0.015696 0.00836719
0.135203 0.018331 0.00709482
0.128907 0.0173327 0.00724642
0.134589 0.0157527 0.0082865
0.135014 0.0166802 0.00766011
0.122821 0.0169313 0.0073723
0.129117 0.0170601 0.00730648
0.129059 0.017205 0.00722856
0.128985 0.0165683 0.00778602
0.128927 0.0174306 0.00725284
0.129347 0.017765 0.00720916
0.129155 0.0176956 0.00723832
0.129246 0.0172699 0.00722263
0.135246 0.0176574 0.00731524
0.129006 0.017821 0.00728398
0.129251 0.0177304 0.00722372
0.122898 0.0172808 0.00720062
0.12908 0.0177584 0.00726115
0.128868 0.0171381 0.00724806
0.135056 0.0180452 0.0072511
0.129024 0.0167146 0.00765549
0.129177 0.0173421 0.00722538
0.129114 0.0175005 0.00722122
0.129133 0.0175983 0.00723006
0.129126 0.0179559 0.00727754
0.129199 0.0178912 0.00725479
0.129099 0.0174029 0.00723625
0.129229 0.0176328 0.00721549
0.129304 0.0175704 0.00719271
0.129071 0.0181128 0.00730871
0.135263 0.0182227 0.00717914
0.122859 0.0171008 0.00727319
0.122918 0.0173762 0.00717819
0.129099 0.01699 0.00737554
0.122938 0.0174716 0.00715575
0.122878 0.0171856 0.00722364
0.12904 0.0175634 0.00724405
0.128984 0.0177237 0.00727573
0.129207 0.0175355 0.00720723
0.135031 0.0175655 0.0074691
0.129103 0.0178564 0.00726936
0.128614 0.0159254 0.00834057
0.129274 0.0178294 0.00723192
0.129211 0.017082 0.00728044
0.135164 0.017324 0.00743315
0.129049 0.0180155 0.00730047
0.128636 0.0159983 0.00827569
0.135421 0.0181461 0.00713776
0.135235 0.0172559 0.00744972
0.129022 0.0170412 0.00733103
0.129005 0.0166414 0.00772088
0.13514 0.01723 0.00746645

VERTICES 289 578
1 0
1 1
1 2
1 3
1 4
1 5
1 6
1 7
1 8
1 9
1 10
1 11
1 12
1 13
1 14
1 15
1 16
1 17
1 18
1 19
1 20
1 21
1 22
1 23
1 24
1 25
1 26
1 27
1 28
1 29
1 30
1 31
1 32
1 33
1 34
1 35
1 36
1 37
1 38
1 39
1 40
1 41
1 42
1 43
1 44
1 45
1 46
1 47
1 48
1 49
1 50
1 51
1 52
1 53
1 54
1 55
1 56
1 57
1 58
1 59
1 60
1 61
1 62
1 63
1 64
1 65
1 66
1 67
1 68
1 69
1 70
1 71
1 72
1 73
1 74
1 75
1 76
1 77
1 78
1 79
1 80
1 81
1 82
1 83
1 84
1 85
1 86
1 87
1 88
1 89
1 90
1 91
1 92
1 93
1 94
1 95
1 96
1 97
1 98
1 99
1 100
1 101
1 102
1 103
1 104
1 105
1 106
1 107
1 108
1 109
1 110
1 111
1 112
1 113
1 114
1 115
1 116
1 117
1 118
1 119
1 120
1 121
1 122
1 123
1 124
1 125
1 126
1 127
1 128
1 129
1 130
1 131
1 132
1 133
1 134
1 135
1 136
1 137
1 138
1 139
1 140
1 141
1 142
1 143
1 144
1 145
1 146
1 147
1 148
1 149
1 150
1 151
1 152
1 153
1 154
1 155
1 156
1 157
1 158
1 159
1 160
1 161
1 162
1 163
1 164
1 165
1 166
1 167
1 168
1 169
1 170
1 171
1 172
1 173
1 174
1 175
1 176
1 177
1 178
1 179
1 180
1 181
1 182
1 183
1 184
1 185
1 186
1 187
1 188
1 189
1 190
1 191
1 192
1 193
1 194
1 195
1 196
1 197
1 198
1 199
1 200
1 201
1 202
1 203
1 204
1 205
1 206
1 207
1 208
1 209
1 210
1 211
1 212
1 213
1 214
1 215
1 216
1 217
1 218
1 219
1 220
1 221
1 222
1 223
1 224
1 225
1 226
1 227
1 228
1 229
1 230
1 231
1 232
1 233
1 234
1 235
1 236
1 237
1 238
1 239
1 240
1 241
1 242
1 243
1 244
1 245
1 246
1 247
1 248
1 249
1 250
1 251
1 252
1 253
1 254
1 255
1 256
1 257
1 258
1 259
1 260
1 261
1 262
1 263
1 264
1 265
1 266
1 267
1 268
1 269
1 270
1 271
1 272
1 273
1 274
1 275
1 276
1 277
1 278
1 279
1 280
1 281
1 282
1 283
1 284
1 285
1 286
1 287
1 288

POINT_DATA 289
SCALARS id int 1
LOOKUP_TABLE default
1
2
3
4
5
6
7
8
9
10
11
12
13
14
15
16
17
18
19
20
21
22
24
25
26
27
29
30
31
32
33
34
35
36
37
38
39
40
41
42
43
44
45
46
47
48
49
50
52
53
54
55
56
57
58
59
60
61
62
63
64
65
66
67
68
69
70
71
72
73
74
75
76
77
78
79
80
81
82
83
84
85
86
87
88
89
90
91
92
93
94
95
96
98
99
100
101
102
103
104
105
106
107
108
109
110
111
112
113
114
115
116
117
118
119
120
121
122
123
124
125
126
127
128
129
130
131
132
133
134
135
136
137
138
139
140
141
142
144
145
146
147
148
149
150
152
153
154
155
156
157
158
159
160
161
162
164
165
166
167
168
169
170
171
172
173
174
175
176
177
178
179
180
181
182
183
184
185
186
187
188
189
190
191
192
193
194
195
196
197
198
199
200
201
202
203
204
205
206
207
208
209
210
211
213
214
215
216
217
218
219
220
221
222
223
224
225
226
227
228
229
230
231
232
233
234
235
236
237
238
239
241
242
243
244
245
246
247
248
249
250
251
252
253
254
255
256
257
258
259
260
261
262
263
264
265
267
268
269
270
271
272
273
274
275
276
277
278
279
280
281
282
283
284
285
286
287
288
289
290
292
293
294
295
296
297
298
299
300

SCALARS type int 1
LOOKUP_TABLE default
1
1
1
1
1
1
1
1
1
1
1
1
1
1
1
1
1
1
1
1
1
1
1
1
1
1
1
1
1
1
1
1
1
1
1
1
1
1
1
1
1
1
1
1
1
1
1
1
1
1
1
1
1
1
1
1
1
1
1
1
1
1
1
1
1
1
1
1
1
1
1
1
1
1
1
1
1
1
1
1
1
1
1
1
1
1
1
1
1
1
1
1
1
1
1
1
1
1
1
1
1
1
1
1
1
1
1
1
1
1
1
1
1
1
1
1
1
1
1
1
1
1
1
1
1
1
1
1
1
1
1
1
1
1
1
1
1
1
1
1
1
1
1
1
1
1
1
1
1
1
1
1
1
1
1
1
1
1
1
1
1
1
1
1
1
1
1
1
1
1
1
1
1
1
1
1
1
1
1
1
1
1
1
1
1
1
1
1
1
1
1
1
1
1
1
1
1
1
1
1
1
1
1
1
1
1
1
1
1
1
1
1
1
1
1
1
1
1
1
1
1
1
1
1
1
1
1
1
1
1
1
1
1
1
1
1
1
1
1
1
1
1
1
1
1
1
1
1
1
1
1
1
1
1
1
1
1
1
1
1
1
1
1
1
1
1
1
1
1
1
1
1
1
1
1
1
1
1
1
1
1
1
1
1
1
1
1
1
1

SCALARS radius float 1
LOOKUP_TABLE default
5e-05
5e-05
5e-05
5e-05
5e-05
5e-05
5e-05
5e-05
5e-05
5e-05
5e-05
5e-05
5e-05
5e-05
5e-05
5e-05
5e-05
5e-05
5e-05
5e-05
5e-05
5e-05
5e-05
5e-05
5e-05
5e-05
5e-05
5e-05
5e-05
5e-05
5e-05
5e-05
5e-05
5e-05
5e-05
5e-05
5e-05
5e-05
5e-05
5e-05
5e-05
5e-05
5e-05
5e-05
5e-05
5e-05
5e-05
5e-05
5e-05
5e-05
5e-05
5e-05
5e-05
5e-05
5e-05
5e-05
5e-05
5e-05
5e-05
5e-05
5e-05
5e-05
5e-05
5e-05
5e-05
5e-05
5e-05
5e-05
5e-05
5e-05
5e-05
5e-05
5e-05
5e-05
5e-05
5e-05
5e-05
5e-05
5e-05
5e-05
5e-05
5e-05
5e-05
5e-05
5e-05
5e-05
5e-05
5e-05
5e-05
5e-05
5e-05
5e-05
5e-05
5e-05
5e-05
5e-05
5e-05
5e-05
5e-05
5e-05
5e-05
5e-05
5e-05
5e-05
5e-05
5e-05
5e-05
5e-05
5e-05
5e-05
5e-05
5e-05
5e-05
5e-05
5e-05
5e-05
5e-05
5e-05
5e-05
5e-05
5e-05
5e-05
5e-05
5e-05
5e-05
5e-05
5e-05
5e-05
5e-05
5e-05
5e-05
5e-05
5e-05
5e-05
5e-05
5e-05
5e-05
5e-05
5e-05
5e-05
5e-05
5e-05
5e-05
5e-05
5e-05
5e-05
5e-05
5e-05
5e-05
5e-05
5e-05
5e-05
5e-05
5e-05
5e-05
5e-05
5e-05
5e-05
5e-05
5e-05
5e-05
5e-05
5e-05
5e-05
5e-05
5e-05
5e-05
5e-05
5e-05
5e-05
5e-05
5e-05
5e-05
5e-05
5e-05
5e-05
5e-05
5e-05
5e-05
5e-05
5e-05
5e-05
5e-05
5e-05
5e-05
5e-05
5e-05
5e-05
5e-05
5e-05
5e-05
5e-05
5e-05
5e-05
5e-05
5e-05
5e-05
5e-05
5e-05
5e-05
5e-05
5e-05
5e-05
5e-05
5e-05
5e-05
5e-05
5e-05
5e-05
5e-05
5e-05
5e-05
5e-05
5e-05
5e-05
5e-05
5e-05
5e-05
5e-05
5e-05
5e-05
5e-05
5e-05
5e-05
5e-05
5e-05
5e-05
5e-05
5e-05
5e-05
5e-05
5e-05
5e-05
5e-05
5e-05
5e-05
5e-05
5e-05
5e-05
5e-05
5e-05
5e-05
5e-05
5e-05
5e-05
5e-05
5e-05
5e-05
5e-05
5e-05
5e-05
5e-05
5e-05
5e-05
5e-05
5e-05
5e-05
5e-05
5e-05
5e-05
5e-05
5e-05
5e-05
5e-05
5e-05
5e-05
5e-05
5e-05
5e-05
5e-05
5e-05
5e-05
5e-05
5e-05
5e-05
5e-05
5e-05
5e-05
5e-05
5e-05
5e-05
5e-05
5e-05
5e-05
5e-05
5e-05
5e-05
5e-05
5e-05

SCALARS mass float 1
LOOKUP_TABLE default
1.46608e-10
1.46608e-10
1.46608e-10
1.46608e-10
1.46608e-10
1.46608e-10
1.46608e-10
1.46608e-10
1.46608e-10
1.46608e-10
1.46608e-10
1.46608e-10
1.46608e-10
1.46608e-10
1.46608e-10
1.46608e-10
1.46608e-10
1.46608e-10
1.46608e-10
1.46608e-10
1.46608e-10
1.46608e-10
1.46608e-10
1.46608e-10
1.46608e-10
1.46608e-10
1.46608e-10
1.46608e-10
1.46608e-10
1.46608e-10
1.46608e-10
1.46608e-10
1.46608e-10
1.46608e-10
1.46608e-10
1.46608e-10
1.46608e-10
1.46608e-10
1.46608e-10
1.46608e-10
1.46608e-10
1.46608e-10
1.46608e-10
1.46608e-10
1.46608e-10
1.46608e-10
1.46608e-10
1.46608e-10
1.46608e-10
1.46608e-10
1.46608e-10
1.46608e-10
1.46608e-10
1.46608e-10
1.46608e-10
1.46608e-10
1.46608e-10
1.46608e-10
1.46608e-10
1.46608e-10
1.46608e-10
1.46608e-10
1.46608e-10
1.46608e-10
1.46608e-10
1.46608e-10
1.46608e-10
1.46608e-10
1.46608e-10
1.46608e-10
1.46608e-10
1.46608e-10
1.46608e-10
1.46608e-10
1.46608e-10
1.46608e-10
1.46608e-10
1.46608e-10
1.46608e-10
1.46608e-10
1.46608e-10
1.46608e-10
1.46608e-10
1.46608e-10
1.46608e-10
1.46608e-10
1.46608e-10
1.46608e-10
1.46608e-10
1.46608e-10
1.46608e-10
1.46608e-10
1.46608e-10
1.46608e-10
1.46608e-10
1.46608e-10
1.46608e-10
1.46608e-10
1.46608e-10
1.46608e-10
1.46608e-10
1.46608e-10
1.46608e-10
1.46608e-10
1.46608e-10
1.46608e-10
1.46608e-10
1.46608e-10
1.46608e-10
1.46608e-10
1.46608e-10
1.46608e-10
1.46608e-10
1.46608e-10
1.46608e-10
1.46608e-10
1.46608e-10
1.46608e-10
1.46608e-10
1.46608e-10
1.46608e-10
1.46608e-10
1.46608e-10
1.46608e-10
1.46608e-10
1.46608e-10
1.46608e-10
1.46608e-10
1.46608e-10
1.46608e-10
1.46608e-10
1.46608e-10
1.46608e-10
1.46608e-10
1.46608e-10
1.46608e-10
1.46608e-10
1.46608e-10
1.46608e-10
1.46608e-10
1.46608e-10
1.46608e-10
1.46608e-10
1.46608e-10
1.46608e-10
1.46608e-10
1.46608e-10
1.46608e-10
1.46608e-10
1.46608e-10
1.46608e-10
1.46608e-10
1.46608e-10
1.46608e-10
1.46608e-10
1.46608e-10
1.46608e-10
1.46608e-10
1.46608e-10
1.46608e-10
1.46608e-10
1.46608e-10
1.46608e-10
1.46608e-10
1.46608e-10
1.46608e-10
1.46608e-10
1.46608e-10
1.46608e-10
1.46608e-10
1.46608e-10
1.46608e-10
1.46608e-10
1.46608e-10
1.46608e-10
1.46608e-10
1.46608e-10
1.46608e-10
1.46608e-10
1.46608e-10
1.46608e-10
1.46608e-10
1.46608e-10
1.46608e-10
1.46608e-10
1.46608e-10
1.46608e-10
1.46608e-10
1.46608e-10
1.46608e-10
1.46608e-10
1.46608e-10
1.46608e-10
1.46608e-10
1.46608e-10
1.46608e-10
1.46608e-10
1.46608e-10
1.46608e-10
1.46608e-10
1.46608e-10
1.46608e-10
1.46608e-10
1.46608e-10
1.46608e-10
1.46608e-10
1.46608e-10
1.46608e-10
1.46608e-10
1.46608e-10
1.46608e-10
1.46608e-10
1.46608e-10
1.46608e-10
1.46608e-10
1.46608e-10
1.46608e-10
1.46608e-10
1.46608e-10
1.46608e-10
1.46608e-10
1.46608e-10
1.46608e-10
1.46608e-10
1.46608e-10
1.46608e-10
1.46608e-10
1.46608e-10
1.46608e-10
1.46608e-10
1.46608e-10
1.46608e-10
1.46608e-10
1.46608e-10
1.46608e-10
1.46608e-10
1.46608e-10
1.46608e-10
1.46608e-10
1.46608e-10
1.46608e-10
1.46608e-10
1.46608e-10
1.46608e-10
1.46608e-10
1.46608e-10
1.46608e-10
1.46608e-10
1.46608e-10
1.46608e-10
1.46608e-10
1.46608e-10
1.46608e-10
1.46608e-10
1.46608e-10
1.46608e-10
1.46608e-10
1.46608e-10
1.46608e-10
1.46608e-10
1.46608e-10
1.46608e-10
1.46608e-10
1.46608e-10
1.46608e-10
1.46608e-10
1.46608e-10
1.46608e-10
1.46608e-10
1.46608e-10
1.46608e-10
1.46608e-10
1.46608e-10
1.46608e-10
1.46608e-10
1.46608e-10
1.46608e-10
1.46608e-10
1.46608e-10
1.46608e-10
1.46608e-10
1.46608e-10
1.46608e-10
1.46608e-10
1.46608e-10
1.46608e-10
1.46608e-10
1.46608e-10
1.46608e-10

VECTORS velocity float
0.00511546 0.000743353 -0.000682987
0.00435899 0.000698488 -0.000590179
0.0044541 0.000720889 -0.000611362
0.00359262 0.000704488 -0.000538119
0.00501222 0.000828501 -0.000321785
0.00485534 -7.44e-05 -0.000442636
0.00507622 0.000734089 -0.000547566
0.00503617 0.000857018 -0.000381869
0.00428588 0.000174339 0.000194703
0.00478626 0.000782746 -0.00062352
0.00499477 0.000761986 -0.000679072
0.00445385 0.000155773 0.000207288
0.00476697 0.000774924 -0.000673256
0.00480052 0.000574717 -6.7024e-05
0.00499195 0.000724679 -0.000668706
0.00478222 0.000562832 -5.56605e-05
0.00472572 0.000745827 -0.00071671
0.00454774 0.000136913 0.00021623
0.00483729 0.000799965 -0.000624896
0.00481644 0.000846376 -0.000690096
0.00504079 0.000863151 -0.0003058
0.00502058 0.000727827 -0.000670337
0.00454074 0.000139523 0.000215099
0.00505491 0.000718636 -0.000668591
0.00457347 -7.50504e-06 -0.000489086
0.00494267 0.000727658 -0.000192293
0.0050124 0.000875136 -0.000642138
0.0048224 -7.04007e-05 -0.000443736
0.0048545 0.000800473 -0.000672168
0.00497526 0.000721762 -0.000682602
0.00487194 -7.70803e-05 -0.000442017
0.00367302 0.00102677 -0.000680925
0.00508311 0.000714415 -0.000670154
0.0043087 0.000165284 0.000196058
0.00507989 0.000769773 -0.000461354
0.00508967 0.000706345 -0.000665651
0.00455366 5.06828e-05 5.47933e-05
0.00507095 0.000711371 -0.00062294
0.00509896 0.000854593 -0.000347463
0.00504116 0.0007105 -0.000662596
0.00494215 0.000787855 -0.00068201
0.00442489 0.000770123 -0.000609925
0.00479553 -5.88335e-05 -0.000455104
0.0045729 4.29422e-05 -0.000310157
0.00511447 0.000824457 -0.000307655
0.00490424 0.000841292 -0.00069767
0.00455533 -8.20179e-06 -0.00048799
0.00475807 0.000748104 -0.000660448
0.00451598 0.000184799 -0.000358766
0.00455441 0.00013279 0.000217591
0.00502268 0.000738024 -0.000672761
0.00474244 9.92767e-05 -0.000728255
0.00456139 0.000711751 -0.000560442
0.004626 -2.38795e-05 -0.000477788
0.00495139 0.000740893 -0.000203938
0.00453166 0.000141982 0.000214137
0.00493192 0.000776376 -0.000677637
0.00507517 0.000841229 -0.000310263
0.00497933 0.000773319 -0.000681307
0.00476155 0.000493102 -0.000571403
0.00455024 0.000135296 0.000216926
0.00492783 0.000574408 -0.000810854
0.00495925 0.000707323 -0.000173362
0.00477264 0.000811031 -0.000674685
0.00494986 0.000751404 -0.000213077
0.00500337 0.000720246 -0.00067217
0.00439648 0.00014527 0.000207304
0.00443409 0.000281886 -0.000687022
0.00435466 0.000170464 0.0001983
0.00510832 0.000840977 -0.000293755
0.00480521 0.000943146 -0.000482163
0.00509703 0.000826672 -0.000346323
0.00442188 0.000244086 0.000186987
0.00468602 0.0010859 -0.00066686
0.00484645 0.000687929 -0.000166228
0.00491156 0.000741433 -0.000206943
0.00388287 0.000894175 -0.000649047
0.00445293 0.000379981 0.000238188
0.00497545 0.000741008 -0.000200035
0.00486619 0.000712132 -0.000185308
0.0045126 0.000229193 0.000194938
0.00483759 0.000691319 -0.000169402
0.00362103 0.00096499 -0.000878576
0.00426846 0.000175869 0.000192957
0.00485554 0.000688016 -0.0006322
0.00483985 0.000689789 -0.000632633
0.00483936 0.000701336 -0.000641103
0.00495476 0.000745199 -0.000671316
0.0044405 0.000965871 -0.000683476
0.00446948 0.00081222 -0.000666499
0.00482294 0.000708508 -0.000644958
0.00504488 0.000559227 -0.000484575
0.003877 0.000786797 -0.000941755
0.00446045 0.000818009 -0.0006389
0.00492815 0.000731464 -0.000197001
0.0044786 0.000733616 -0.000625849
0.0048639 0.000665629 -0.000142655
0.00493146 0.000715544 -0.000665157
0.00500377 0.00072929 -0.000666976
0.00423067 0.000691001 -0.000219387
0.00396277 0.00042351 -0.000285608
0.00477794 0.000736652 -0.00068813
0.00480895 0.000603893 -9.21064e-05
0.00492126 0.000650511 -0.000607744
0.00486059 0.000792446 -0.000678035
0.00479132 0.000752231 -0.0006593
0.00396764 0.00092422 -0.000659242
0.00492203 0.000720479 -0.000185849
0.00475386 0.000765175 -0.000660715
0.00465178 0.000732205 -0.0002395
0.004439 0.000735909 -0.000621867
0.00478153 0.000533149 -0.000584051
0.00488611 -0.000337301 -0.00128768
0.00454208 0.000706147 -0.000145875
0.00478811 -7.08322e-05 -0.000440779
0.00503888 0.000731368 -0.000672121
0.00481946 -0.000638727 -0.00144471
0.00460475 0.000786464 -0.000657149
0.00488744 0.00071775 -0.000190278
0.00451188 0.000792742 -0.000644202
0.00510946 0.000828403 -0.000305652
0.00496829 0.000739283 -0.000673759
0.00488574 0.000739655 -0.00020734
0.00477295 0.000726147 -0.000652708
0.00493493 0.000693521 -0.000160299
0.00496082 0.000714416 -0.000677691
0.00488245 0.000631523 -0.000109356
0.00446424 0.000756143 -0.000632908
0.005066 0.00069909 -0.000665742
0.00477164 0.000753976 -0.000658469
0.00507667 0.000728144 -0.00067489
0.00478074 0.000669192 -0.000154963
0.00447614 0.000773057 -0.000639139
0.00495501 0.000584375 -0.000614358
0.0047669 0.000730372 -0.000650928
0.00436393 0.00141477 -0.000591981
0.00487272 0.000711928 -0.000184706
0.00490301 0.000751961 -0.000669443
0.00478472 0.000757695 -0.000659105
0.00474485 0.000759551 -0.000658335
0.00469886 0.000862967 -0.00063478
0.00482242 0.000653394 -0.000136089
0.00487436 0.000723781 -0.000659525
0.00504635 0.000633135 -0.0006335
0.00478854 -0.000293188 -0.0013819
0.00458365 0.000407784 -0.000579891
0.00477245 -0.00033037 -0.00143271
0.00448822 0.000779197 -0.000282388
0.00491911 0.000737348 -0.000203107
0.00490898 0.000716836 -0.000185977
0.00451545 0.000779779 -0.000650178
0.00496924 0.000735009 -0.000196095
0.00506147 0.000815102 -0.000302994
0.00432945 9.23863e-05 -0.000447345
0.0046511 0.000886394 -0.000446925
0.00449437 0.000108254 -0.00040705
0.00447162 0.000851489 -0.000696521
0.0044667 0.000594775 -0.000116608
0.00504391 0.000677868 -0.000658264
0.00602272 0.00175169 -0.00102848
0.00510326 0.000630449 -0.000627536
0.00449801 0.000456577 0.000214096
0.00465437 0.00073773 -0.00023638
0.00446409 0.000744629 -0.00063083
0.0040377 -5.64902e-05 -0.000818533
0.00463645 0.000814224 -0.000668093
0.00444559 0.000195192 -0.000594378
0.00441932 0.000285009 -0.000836218
0.00492805 0.000717738 -0.000185788
0.0045577 4.83038e-05 -0.000417569
0.00437151 0.000626488 -0.000171365
0.00470533 0.000686001 -0.000196636
0.00473622 0.000752051 -0.000642489
0.00527332 0.00104289 -0.00044878
0.00509492 0.000809555 -0.000391862
0.00467633 0.000276386 -6.30726e-05
0.00436727 0.000664938 -0.00059054
0.00446969 0.000212191 -0.000785529
0.00426864 0.000408854 -0.000558636
0.00442984 0.000133145 0.000210337
0.00458501 0.000809599 -0.000662022
0.00497582 0.000766358 -0.00067839
0.0045333 0.00066543 -0.000203283
0.00460912 0.000887434 -0.000686959
0.00430298 0.000377142 -0.00038139
0.00431585 0.00103938 -0.000599445
0.00500665 0.000821262 -0.000323912
0.00432485 0.000456337 -0.000649954
0.00599579 0.00169543 -0.000979987
0.00502449 0.000714862 -0.000416755
0.00529289 0.0010742 -0.000477043
0.00478258 0.00046169 0.000239844
0.00489797 0.000741145 -0.000209963
0.00429223 0.000191307 -0.000823543
0.00418476 0.000536162 -0.00014383
0.005088 0.00069271 -0.000664876
0.00440174 0.000249834 -0.000710748
0.00470789 0.00077138 -0.000248073
0.0044883 0.000204363 -0.000578577
0.00490005 0.000647229 -0.000124977
0.00444603 0.000149964 -0.000676184
0.00492483 0.000712048 -0.00018291
0.00355827 0.000577125 -0.000493805
0.00450897 0.000771903 -0.000636177
0.0042805 0.000188623 0.000190763
0.00512846 0.000531393 -0.000548297
0.00462595 0.000674239 -0.000171741
0.00442878 0.000707719 -0.000203995
0.00480733 0.000952005 -0.000485437
0.00448498 0.000835714 -0.000673717
0.00441166 0.000849049 -0.000664316
0.00508502 0.000818259 -0.000305432
0.00490388 0.000717612 -0.000185384
0.0050404 0.000816914 -0.000301094
0.00491692 0.000730558 -0.000196744
0.00487355 0.000727366 -0.000199518
0.00433785 0.000225639 0.000186284
0.00424191 7.58336e-05 -0.000836033
0.00476836 0.000539813 -3.64854e-05
0.00449316 0.000233288 -0.000672444
0.00495115 0.000736362 -0.000200596
0.00442012 0.000432893 -0.000816105
0.00450322 0.000229287 -0.000609732
0.00494656 0.000734518 -0.00019812
0.00459842 0.00080428 -0.000653995
0.00404184 0.000604488 -0.000541546
0.00431819 0.000226593 -0.000853325
0.00434013 0.000256372 -0.000793147
0.00403792 -9.69246e-05 -0.000813159
0.00442246 0.000241105 2.50815e-06
0.00471625 0.000607242 -0.000227746
0.00433316 0.000271413 -0.000654896
0.00437079 0.000276126 -0.000814799
0.0046928 0.000612413 -0.000231342
0.00472989 0.000598125 -0.000222258
0.00425652 0.000189988 -0.000773906
0.0045671 0.000638483 -0.000250462
0.00476234 -0.000305988 -0.0012393
0.00467475 0.000865301 -0.000679985
0.00446881 0.000223239 -0.00051271
0.00502398 0.000858435 -0.000362448
0.00501229 0.000772277 -0.000683791
0.0045394 0.000640632 -0.000249343
0.00469546 0.000260177 -0.000187407
0.0045235 0.000306306 0.000267925
0.00482203 0.000564648 -7.953e-05
0.00446031 0.000225767 -0.000532841
0.00451725 0.000423024 -0.000840672
0.00433448 0.0001354 -0.000842241
0.0046652 0.000487299 0.000221792
0.00392047 0.000759067 -0.000585004
0.00433131 0.000230092 -0.000873491
0.00404869 -5.02223e-05 -0.000808447
0.00463408 0.000607231 -0.00034245
0.00433948 0.000201482 -0.000853479
0.00450341 0.000232651 -0.000630619
0.00455499 0.000815278 -0.000660114
0.00435215 0.000477847 -0.000180712
0.00447319 0.000324796 1.3197e-06
0.00421396 0.000152027 -0.000817802
0.00428285 0.000155368 -0.000839347
0.00431111 0.000180878 -0.000828746
0.0043581 0.00023189 -0.000830293
0.00429093 0.000172447 -0.000540887
0.00425958 -1.46635e-05 -0.000837555
0.00435115 0.000457919 -0.000908065
0.00432322 0.000209587 -0.000822387
0.00458173 0.000833249 -0.00066989
0.00458904 0.000625189 -0.000246405
0.00463503 0.000615 -0.000338264
0.00456573 0.000101113 -0.0003525
0.00449338 0.000612923 -0.000328388
0.00460375 0.000617235 -0.000228711
0.00426473 0.000189916 -0.000813029
0.00438211 0.000233334 -0.000847022
0.00410508 -3.13547e-05 -0.000795741
0.00503073 0.00069363 -0.000652704
0.00416009 1.94332e-05 -0.000820961
0.00487543 0.000725056 -0.000196617
0.00449062 0.000395074 -0.000839097
0.00482282 0.000438745 0.000260265
0.00476069 0.000644931 -0.00061831
0.00432698 0.000215394 -0.000836995
0.00487904 0.000734334 -0.000204672
0.00448076 0.000740461 -0.00062764
0.0048207 0.000681851 -0.000636802
0.00456601 0.000409221 -0.000817304
0.00434968 0.000433777 -0.000307912
0.00483826 0.000713131 -0.000639209

VECTORS force float
-3.7742e-11 1.40068e-11 -1.73743e-12
6.71137e-11 -1.9203e-10 1.12504e-10
2.15103e-10 4.60085e-11 2.39988e-12
-5.2848e-10 2.87544e-10 -1.09764e-10
-2.16428e-11 1.55613e-11 3.5271e-10
1.72732e-10 4.83067e-11 -9.31589e-11
-2.57889e-11 -1.49659e-11 1.83837e-10
7.34348e-11 -2.24027e-10 -1.03468e-10
1.66503e-10 -6.52933e-11 3.854e-11
5.99714e-11 -1.36444e-10 2.56785e-10
-2.9683e-11 1.69699e-10 2.53322e-11
-8.19994e-11 -2.43329e-12 -6.38117e-12
-1.65595e-11 -5.91074e-11 -2.20346e-10
1.44862e-11 6.6916e-11 -2.66356e-11
9.6693e-12 8.94417e-11 -1.83724e-10
1.01649e-10 2.85134e-10 -2.49477e-10
-2.02635e-11 4.45373e-12 3.23406e-11
-4.5208e-12 -6.11825e-11 2.2061e-11
9.19597e-11 -2.10036e-10 -6.96755e-11
-4.63941e-11 -2.89929e-10 1.0367e-10
5.10974e-11 2.42444e-10 1.77594e-10
1.70305e-11 1.23975e-10 -5.84615e-11
-1.6959e-11 -4.15328e-11 7.08443e-12
-7.60766e-11 5.42154e-11 -1.53038e-12
-1.17143e-11 1.76792e-11 -3.41193e-11
-6.51205e-11 1.62078e-10 -1.50777e-10
2.41835e-10 -3.70332e-10 6.22198e-11
-1.00009e-10 6.97359e-11 -9.27976e-11
1.8492e-11 -3.11036e-10 2.70386e-10
-3.62005e-12 6.96914e-11 1.2608e-10
-1.01447e-11 5.65704e-11 -8.51438e-11
4.1917e-11 -2.17074e-10 -4.98882e-10
-3.93551e-11 7.607e-11 -6.51049e-12
3.4501e-10 -1.15765e-10 9.84357e-11
-1.10633e-10 -1.69827e-10 -1.08909e-10
-2.13335e-11 5.27913e-12 1.69451e-11
3.34536e-12 -5.48631e-11 3.63139e-11
-1.32619e-11 5.76437e-11 2.18228e-10
-1.03838e-10 1.62759e-10 -1.4677e-10
-4.49714e-11 2.15418e-11 -2.10313e-12
-1.71795e-11 2.98516e-11 -2.29338e-11
-1.53713e-11 1.4806e-10 -2.23726e-10
-1.71747e-10 8.89192e-11 -9.72905e-11
4.66573e-12 -1.19097e-11 1.87119e-11
9.73835e-11 2.75977e-11 3.18458e-11
1.94803e-11 -1.52302e-10 7.59421e-11
-1.23011e-10 5.98633e-11 -6.55463e-11
-1.59646e-10 1.14233e-10 -1.42388e-10
-5.26584e-10 4.47581e-10 5.17371e-10
-7.6869e-12 -8.33024e-11 2.06035e-11
1.08898e-10 1.7726e-10 -6.82836e-11
1.10658e-10 -1.25321e-10 8.05482e-10
1.78137e-10 7.94606e-12 -1.04773e-10
-1.57764e-10 8.31629e-11 -8.35066e-11
8.37307e-11 -1.28019e-11 2.57174e-11
7.79844e-12 -2.74875e-11 8.96133e-12
1.8784e-11 7.56523e-11 -2.40942e-11
5.80703e-11 1.26877e-10 1.29552e-10
-2.70193e-12 1.17909e-10 -5.87101e-11
5.31063e-10 -8.61644e-10 2.59268e-10
-4.78435e-12 -7.99896e-11 2.73317e-11
1.88427e-10 -5.4813e-11 5.87493e-11
-1.61341e-10 2.09855e-10 -2.43808e-10
7.62263e-11 -3.93359e-10 1.17559e-10
4.25828e-10 1.28099e-10 -7.399e-11
-5.08205e-11 2.1187e-11 7.09982e-12
5.31459e-11 -6.52863e-12 -7.51593e-12
3.9177e-11 -4.6196e-11 3.74441e-10
-1.8792e-12 -2.11777e-11 2.77083e-12
7.90793e-11 3.60709e-11 2.07672e-10
-1.571e-10 1.18928e-10 1.14058e-12
-5.09635e-11 -1.61125e-10 -1.02119e-11
-3.91465e-11 -1.39993e-12 -1.33498e-12
-6.0273e-10 -5.638e-10 -5.56775e-10
-1.67461e-10 -2.55398e-10 1.91995e-10
-4.89186e-11 1.98156e-10 -2.3812e-10
1.61131e-10 -4.323e-10 3.94708e-10
-9.06408e-11 5.90147e-11 1.01041e-10
1.32242e-10 3.28923e-10 -2.61869e-10
-5.43731e-11 5.22231e-12 2.40167e-12
-4.47871e-11 -1.18289e-10 2.22519e-11
-2.16933e-10 4.53953e-11 -7.65636e-11
3.44816e-10 -4.92794e-10 -5.58766e-10
7.12174e-11 -6.3983e-11 -1.3102e-11
-5.35181e-10 2.69644e-10 -4.14805e-10
3.71225e-10 3.07172e-10 -1.00596e-10
-1.56286e-10 -2.69156e-10 1.48092e-10
-1.28449e-10 5.90617e-11 -3.5093e-11
4.48136e-11 -3.92431e-10 -1.70015e-10
1.07668e-10 3.66089e-10 -2.27233e-10
2.12895e-10 -1.39286e-10 -6.79603e-11
-3.26563e-10 3.89684e-10 -1.21926e-10
-4.0606e-10 2.5299e-10 9.79198e-11
-1.51131e-10 -1.39396e-10 -4.14852e-10
3.42647e-11 2.83201e-11 -6.03075e-11
-1.38954e-10 3.26859e-10 -5.89345e-11
-2.31332e-11 -1.52284e-10 1.64328e-10
-8.68751e-11 1.89513e-10 1.46007e-10
1.7723e-10 2.34532e-10 -8.65988e-11
1.25427e-09 -6.16155e-10 4.05928e-10
3.76066e-10 -1.19976e-10 -1.35116e-09
8.90568e-11 -1.10774e-10 -6.67332e-11
-4.66948e-11 -2.45348e-10 1.97578e-10
-3.34645e-10 -6.62786e-11 -1.49128e-10
-7.35226e-11 -2.14277e-10 4.70366e-11
5.7547e-12 -8.36145e-11 -8.4904e-11
-6.52548e-10 9.46816e-11 -2.27724e-11
2.80046e-13 -2.5877e-11 7.29002e-11
-9.783e-11 -2.11896e-11 -1.83362e-11
-2.79786e-11 -1.23822e-10 2.69151e-10
2.17171e-11 3.28574e-10 -7.87163e-11
2.87867e-10 4.2515e-10 -1.35673e-10
-8.23282e-12 -1.9698e-10 -2.85902e-10
-3.50302e-11 -3.72251e-10 3.02035e-10
6.94872e-11 2.30753e-11 -4.37743e-11
-1.69149e-11 8.82303e-11 -2.71743e-11
3.37359e-11 -1.15158e-10 -3.53601e-10
-1.01577e-11 1.8146e-11 1.91316e-11
-4.25045e-10 4.81536e-10 -4.94736e-10
4.61433e-11 4.38314e-11 3.20423e-11
-1.01614e-10 -1.51598e-10 7.15663e-11
-8.98498e-12 7.00907e-12 3.43661e-11
-4.49041e-11 2.4714e-10 -2.2596e-10
3.67536e-11 -1.22075e-10 -1.25407e-10
-4.02388e-10 -8.33035e-11 -1.57178e-11
-2.91766e-11 1.43357e-10 1.67988e-10
-1.22831e-09 -6.58033e-10 5.47588e-10
-1.16764e-11 -3.06032e-11 4.12838e-12
2.79434e-11 1.03988e-12 -2.26279e-11
-3.98041e-11 -1.92221e-11 4.71943e-11
-1.55813e-10 1.75647e-10 -5.06975e-11
5.35292e-10 -1.84442e-10 2.33187e-10
8.31185e-11 1.8968e-10 -7.89487e-11
1.72965e-11 3.39152e-10 3.45785e-11
1.48285e-10 -1.83067e-10 7.10185e-12
-1.79693e-10 2.18798e-11 -1.34802e-10
-1.14738e-10 1.22288e-10 -1.25258e-10
-8.03035e-11 5.8772e-11 -1.85231e-11
9.29207e-11 -2.45909e-11 2.26133e-11
-5.88376e-11 2.35049e-12 5.80284e-11
1.86809e-11 -2.20033e-11 -3.67944e-11
-1.34493e-10 -3.41321e-10 3.25413e-10
-7.97392e-11 3.603e-11 -2.10774e-11
7.86368e-10 4.41707e-10 7.0684e-12
-5.90177e-11 4.0573e-11 -4.05492e-10
-1.19722e-10 9.44432e-11 6.33551e-10
-1.56228e-11 1.1829e-10 -6.95336e-10
7.2062e-12 -1.24249e-11 8.88744e-11
3.23314e-11 1.67477e-10 -1.11468e-10
2.72358e-10 2.27946e-10 -1.59698e-10
-1.96047e-10 -8.12752e-11 -4.67888e-12
-1.39459e-10 1.99119e-10 -1.87939e-10
1.05665e-10 -1.96307e-10 2.1114e-10
5.61161e-10 -3.67164e-10 1.62169e-10
3.94814e-11 -1.88194e-10 -4.15035e-11
-3.7423e-10 -2.24494e-10 1.29752e-10
2.11432e-10 4.95502e-10 1.59941e-10
-7.75122e-11 -4.40731e-10 4.63234e-10
3.35254e-11 1.26066e-10 -1.01776e-10
8.06595e-11 1.34119e-11 -6.14106e-12
5.97864e-11 1.35689e-11 -2.13394e-10
2.3762e-10 2.92159e-10 1.34634e-10
-4.16824e-11 -3.24866e-10 -1.63159e-10
1.42979e-10 1.502e-10 -3.64858e-11
2.79587e-10 -3.46158e-10 -6.31647e-11
9.32489e-12 5.73749e-11 9.54176e-11
4.07588e-11 -9.61568e-12 7.05838e-11
-9.24547e-11 8.54241e-11 1.36466e-10
8.69846e-12 8.34596e-11 -1.11134e-10
4.08821e-10 -8.88349e-11 3.50246e-10
-6.39322e-10 -6.0324e-10 -5.48439e-11
-9.43662e-11 -3.25509e-10 2.16193e-10
2.80947e-10 -1.282e-10 4.28622e-11
1.47155e-11 8.8521e-11 -4.49356e-11
-9.50938e-11 -9.1714e-11 -9.13319e-11
1.98801e-10 1.75557e-10 1.47515e-10
9.47488e-11 -2.7004e-10 1.27266e-10
8.23601e-11 8.13069e-11 9.39833e-10
-6.28629e-10 1.28665e-10 9.79037e-11
1.10949e-11 2.05701e-11 -2.48854e-11
-1.5336e-10 -1.32299e-10 -8.35131e-11
2.72397e-11 1.44696e-10 -5.35201e-11
-1.49961e-11 -2.88208e-10 2.68643e-10
8.90126e-12 1.38208e-11 -1.49465e-10
-7.05193e-10 -1.61031e-10 -6.95498e-11
-1.16658e-10 -1.21742e-10 -4.59826e-11
4.08087e-11 3.67615e-11 3.38917e-11
-6.98545e-11 2.38341e-10 -5.08385e-11
1.3999e-11 4.77579e-11 -5.24431e-11
-6.24242e-11 2.6113e-10 1.07887e-10
2.29601e-11 -2.53524e-11 2.4811e-11
2.19754e-11 3.94547e-11 -1.95519e-11
-1.28412e-10 3.43051e-10 -3.14458e-10
5.96037e-10 -3.75081e-11 -6.85561e-11
9.25959e-11 1.06907e-10 5.18298e-11
-2.39442e-11 2.87529e-11 3.33694e-12
1.64178e-10 1.54173e-10 -1.44781e-10
-3.84856e-10 1.64735e-10 -1.64876e-10
5.15392e-10 4.43336e-10 -3.40834e-11
4.89074e-10 1.21054e-11 -7.65303e-11
1.60752e-10 7.69751e-12 2.79344e-11
8.51115e-11 4.38779e-11 2.61686e-12
-5.62608e-10 3.24933e-10 -4.26728e-11
1.35691e-10 9.83532e-11 1.40686e-10
1.58708e-10 -7.15468e-11 2.28077e-11
8.37042e-11 1.11291e-09 -1.03563e-09
-8.99763e-10 -1.25191e-10 -4.22096e-11
-3.35843e-10 -3.36319e-10 1.39485e-11
-2.81367e-11 6.81786e-11 4.9256e-11
-1.57777e-10 -3.6793e-11 -8.90587e-11
1.08433e-10 2.17417e-10 4.48206e-11
-3.67462e-11 -1.90916e-10 1.88303e-10
-1.89803e-10 1.51383e-10 -1.86887e-10
1.21917e-10 -1.28304e-10 7.0698e-11
3.00945e-11 -2.37431e-13 -5.86472e-11
1.37344e-11 8.26458e-11 -1.0927e-10
6.74796e-11 -9.69255e-11 2.25828e-11
-3.0037e-10 9.71117e-11 -2.00403e-11
7.78708e-11 2.80787e-10 -2.61131e-10
4.3216e-10 -3.06838e-10 4.21021e-10
1.04899e-10 -1.09834e-10 9.63276e-11
-1.02445e-10 -6.34087e-11 -8.39274e-11
-1.19557e-11 -7.8504e-11 4.57469e-10
4.17752e-10 3.16574e-10 -2.57016e-10
5.43561e-11 -2.06603e-10 1.38048e-10
5.0856e-11 -2.91268e-10 2.63483e-10
-2.09786e-10 9.25901e-11 1.97431e-10
4.09174e-10 2.72815e-10 9.75677e-11
-1.30685e-10 -4.30218e-10 5.36424e-11
3.0981e-10 1.4187e-10 -1.07616e-09
-3.14281e-12 -5.15384e-11 3.29234e-11
3.4095e-11 2.35854e-10 4.19903e-10
-2.29435e-10 -2.58401e-10 4.71748e-10
2.27087e-11 -5.01895e-12 1.21037e-12
1.22757e-10 -5.12448e-11 4.35482e-11
-2.9174e-10 -3.24211e-11 -1.28964e-10
7.80681e-11 4.70043e-11 -3.72869e-11
-8.54062e-11 -8.23156e-11 3.85359e-10
1.52765e-11 5.05328e-11 -4.99346e-11
1.21746e-10 6.87871e-11 6.74744e-10
1.09397e-10 -1.9267e-10 1.96895e-10
-2.12028e-10 6.35072e-11 -1.84927e-13
-9.93612e-11 1.26401e-10 -8.41535e-11
-3.84429e-10 4.96268e-11 1.30435e-10
4.27884e-10 2.31924e-11 -1.39332e-11
-1.30352e-09 1.34926e-10 -4.17426e-11
2.11651e-11 8.33511e-12 5.77073e-11
-2.57443e-10 1.16351e-10 7.71716e-11
2.85805e-10 2.79374e-10 -3.5467e-10
3.25862e-11 8.86012e-11 -1.72555e-10
6.0238e-10 -8.1506e-10 6.36e-11
1.87109e-10 -8.97075e-12 5.80894e-10
-4.72207e-10 2.05039e-11 9.7427e-11
5.73556e-11 -9.6401e-12 -4.27155e-10
8.53647e-11 1.91412e-11 1.18013e-10
2.38341e-10 -1.44533e-10 4.67459e-10
-5.8877e-10 4.55281e-11 -2.06061e-10
1.66521e-10 -4.04816e-10 -4.82297e-10
8.19657e-12 -1.11812e-10 -8.56105e-11
3.01837e-10 -1.23199e-10 -2.6248e-10
6.48438e-10 -3.98044e-11 -4.75262e-11
-2.91708e-10 4.43261e-11 -2.83046e-11
-4.8951e-10 -8.71602e-12 8.63317e-11
-9.48602e-11 -2.48207e-12 1.15883e-10
3.17577e-11 -4.29024e-12 1.91375e-11
-1.19608e-10 7.19484e-11 7.45763e-11
2.23332e-10 6.52764e-10 1.36444e-10
-3.59567e-11 -2.88336e-11 1.52864e-10
4.01896e-11 -2.19369e-10 1.9553e-10
-2.28029e-10 2.46336e-10 -8.04215e-11
2.68223e-10 5.53013e-11 3.74021e-10
3.67979e-10 -2.90113e-10 1.96969e-11
1.80236e-10 -5.95682e-11 5.10062e-10
5.6762e-10 -6.37649e-11 7.45343e-11
1.07324e-10 1.29632e-10 2.72965e-10
-2.87219e-11 -2.49445e-10 -9.4734e-12
-1.96371e-10 1.40527e-10 -2.45828e-11
-5.04454e-10 6.95348e-11 2.06766e-11
-1.02013e-10 2.1467e-10 -2.25636e-10
-3.55576e-10 2.16967e-10 1.79263e-10
-2.39568e-10 -1.22499e-11 8.84916e-11
1.05442e-10 -1.97406e-11 4.15473e-11
-1.65674e-11 6.21182e-10 -5.19713e-11
-4.14348e-10 3.05593e-10 -3.15982e-10
-1.32396e-10 -1.33614e-10 3.90114e-11
8.86859e-11 1.1168e-10 -2.57044e-11
1.64897e-10 -3.37207e-10 1.88629e-10
1.05761e-09 9.44175e-10 1.28241e-09
1.33675e-10 -3.76908e-10 1.23286e-10
