# vtk DataFile Version 3.0
LIGGGHTS particles timestep 27600000
ASCII
DATASET POLYDATA
POINTS 287 float
0.139622 0.0166622 0.00769678
0.139868 0.0178287 0.00716397
0.139877 0.0179262 0.00714409
0.139811 0.0176091 0.00720674
0.139166 0.0161987 0.00828645
0.144937 0.015593 0.00915504
0.139315 0.016645 0.0077698
0.139144 0.0161115 0.00832998
0.14572 0.0184386 0.006918
0.139536 0.0175768 0.00728871
0.139553 0.0168752 0.00745268
0.145683 0.018269 0.00701698
0.139515 0.0174807 0.00730771
0.133031 0.0156413 0.00856823
0.139463 0.0168425 0.00750093
0.133011 0.0156042 0.00865877
0.139468 0.0172572 0.00739225
0.146034 0.0186764 0.00684058
0.139689 0.0173418 0.00733784
0.139689 0.0171791 0.00729
0.139187 0.0162579 0.0082087
0.139452 0.0167788 0.00757733
0.14565 0.0181156 0.00714093
0.139435 0.0167162 0.0076533
0.145082 0.0159886 0.00889134
0.133317 0.0166402 0.00775107
0.139712 0.0174428 0.00731995
0.144915 0.0155127 0.00921056
0.139611 0.0175097 0.00730508
0.139393 0.0169137 0.00749941
0.144962 0.0156732 0.00910062
0.139779 0.0177284 0.00725787
0.139526 0.0166844 0.00768105
0.145759 0.018624 0.00685384
0.139294 0.0165839 0.00784604
0.139414 0.0166542 0.00772891
0.139338 0.0167108 0.00769796
0.139463 0.0164984 0.00790787
0.139354 0.0167588 0.00761181
0.139601 0.0170145 0.0073196
0.139785 0.0178831 0.00714812
0.144987 0.0157533 0.00904647
0.145073 0.0160658 0.00882838
0.139229 0.0163866 0.00806234
0.139673 0.0170823 0.00730935
0.145033 0.0159139 0.0089364
0.139536 0.0173033 0.00733555
0.133624 0.0168267 0.00769135
0.13965 0.0167884 0.00754441
0.133626 0.017336 0.0075922
0.139796 0.0178322 0.00723342
0.145011 0.0158336 0.00899169
0.133334 0.0162992 0.00786233
0.145665 0.0181925 0.00707898
0.1397 0.0169882 0.00733043
0.139207 0.0163167 0.00813038
0.139582 0.0169355 0.00737793
0.139792 0.0175128 0.00722582
0.145634 0.0180387 0.00720288
0.139122 0.0160415 0.00839804
0.133469 0.0165202 0.00780187
0.139664 0.0172736 0.00726892
0.133429 0.0163319 0.00785937
0.139372 0.0168238 0.00753802
0.145853 0.0186561 0.00684433
0.133511 0.0173523 0.00758797
0.145701 0.0183522 0.00696456
0.139251 0.0164556 0.00799316
0.139742 0.0185419 0.00700823
0.139273 0.016521 0.00792103
0.145931 0.0185975 0.00686632
0.139699 0.0178973 0.00724515
0.133092 0.0157796 0.00831068
0.133197 0.0160868 0.00793963
0.139734 0.0176708 0.00718972
0.133694 0.0174182 0.00756242
0.133337 0.0167339 0.00772243
0.133112 0.0158189 0.00822098
0.145835 0.0185628 0.00687665
0.133165 0.0157366 0.00836431
0.139676 0.0177008 0.00726526
0.145739 0.0185313 0.00688592
0.139619 0.0175414 0.00721055
0.139694 0.0174777 0.00722791
0.139674 0.0173811 0.00724701
0.139494 0.0169806 0.00736338
0.139687 0.017842 0.00715144
0.139703 0.0179388 0.0071321
0.1396 0.0174452 0.00722959
0.139597 0.0178635 0.00723124
0.139658 0.0177338 0.00717248
0.139771 0.0179624 0.00722164
0.133374 0.0164876 0.00780483
0.139892 0.0181306 0.0071022
0.133523 0.0163644 0.00785644
0.139432 0.0170589 0.00738074
0.139554 0.0168105 0.00752886
0.133509 0.0167069 0.00774057
0.133524 0.0174471 0.00755601
0.139466 0.0172297 0.0072961
0.13305 0.0156782 0.00847718
0.139653 0.0176009 0.00728346
0.139585 0.0171276 0.00729515
0.139505 0.0174128 0.00723128
0.139583 0.0177976 0.00715513
0.133258 0.016359 0.00783703
0.139524 0.017509 0.00721223
0.133397 0.0170128 0.00762982
0.139901 0.0180217 0.00712542
0.139867 0.0174492 0.00724315
0.1391 0.0159715 0.0084661
0.133475 0.0169529 0.00764937
0.144894 0.0154324 0.00926608
0.139543 0.0167507 0.00760839
0.139078 0.0159015 0.00853416
0.139763 0.0186379 0.00698933
0.133252 0.0159588 0.00803937
0.139798 0.0180967 0.00710422
0.139351 0.0164684 0.00795555
0.139463 0.0169108 0.00742796
0.133154 0.0159392 0.00806742
0.13958 0.0174056 0.00731935
0.133415 0.0166757 0.00774738
0.139416 0.0170037 0.00746263
0.133489 0.0166142 0.00777297
0.139945 0.018255 0.00707907
0.139393 0.0165923 0.00780446
0.139564 0.0172308 0.00727244
0.139639 0.0167248 0.00762081
0.133145 0.0156996 0.008455
0.139797 0.0179841 0.00712771
0.139714 0.0175739 0.00720887
0.139584 0.0173313 0.00725257
0.139625 0.0178248 0.00731918
0.133184 0.0157735 0.0082733
0.139513 0.0170598 0.0073054
0.139527 0.0171798 0.00735775
0.139485 0.0173166 0.00725032
0.1397 0.0183493 0.00704618
0.133071 0.0157358 0.00839823
0.139446 0.0171339 0.00731618
0.139639 0.0176376 0.00719152
0.139057 0.0158315 0.00860222
0.133521 0.0171355 0.00758118
0.139035 0.0157616 0.00867028
0.133377 0.016921 0.00766395
0.133217 0.0161732 0.00789362
0.133449 0.0164258 0.00783068
0.139831 0.0180555 0.00718897
0.133395 0.0165818 0.00777607
0.139308 0.0163446 0.00810665
0.133642 0.0172546 0.00753415
0.139677 0.0182427 0.00706719
0.133646 0.0169183 0.00765723
0.139629 0.0179586 0.00720751
0.133549 0.0168898 0.00767036
0.139483 0.0165604 0.00783222
0.133388 0.0161429 0.00791705
0.139564 0.0177014 0.00717416
0.133872 0.0175014 0.00743729
0.133496 0.0170445 0.00761522
0.139851 0.0182194 0.00708144
0.133798 0.0175654 0.00741593
0.139823 0.0184856 0.00702435
0.133595 0.0170722 0.00760226
0.13401 0.017722 0.00735264
0.133298 0.0165464 0.00777971
0.13367 0.0170091 0.00762326
0.133529 0.016798 0.00770454
0.133418 0.0171044 0.00759549
0.139544 0.0176052 0.00719319
0.133292 0.0161119 0.00791937
0.139372 0.0165338 0.00788301
0.133738 0.017283 0.00752108
0.139962 0.0177961 0.00717582
0.133544 0.0172267 0.00754712
0.133624 0.0176048 0.0074376
0.145778 0.018722 0.00685162
0.139655 0.0181446 0.00708652
0.139683 0.0169202 0.00740176
0.133443 0.0171951 0.00756157
0.139772 0.0182825 0.00706403
0.133623 0.0174875 0.00754246
0.139685 0.0177982 0.00724413
0.139264 0.0162048 0.00824432
0.133896 0.0175925 0.00740327
0.133367 0.0160494 0.00794547
0.139247 0.0161342 0.00831318
0.133314 0.0162073 0.00789732
0.133833 0.0173123 0.00750763
0.133176 0.016011 0.00800135
0.13367 0.0177797 0.00734107
0.133719 0.0175134 0.00752234
0.139505 0.0166223 0.00775666
0.133804 0.0175674 0.00751575
0.133357 0.0168276 0.00769378
0.13357 0.0169814 0.00763621
0.133543 0.0164583 0.00782776
0.133758 0.0173752 0.00748671
0.133278 0.0164527 0.00780835
0.139886 0.0175457 0.00722403
0.139716 0.0180397 0.00711171
0.145866 0.0187691 0.006857
0.139592 0.0177623 0.00724832
0.133434 0.0167691 0.0077178
0.133454 0.0168611 0.00768355
0.139721 0.0184453 0.00702728
0.139624 0.0179976 0.00711556
0.139603 0.0178938 0.0071361
0.139329 0.0164066 0.00803106
0.133272 0.0160279 0.00796992
0.139286 0.0162755 0.00817557
0.133239 0.0162697 0.0078776
0.133133 0.0158743 0.00814038
0.145939 0.0187071 0.00682809
0.133684 0.0174395 0.00746526
0.132991 0.0155672 0.00874957
0.133567 0.0173179 0.00751308
0.133354 0.0163933 0.00783361
0.133934 0.017784 0.00733206
0.133489 0.0173773 0.00749353
0.133409 0.016238 0.00788804
0.139757 0.0181856 0.00708376
0.139752 0.0177684 0.00717031
0.13363 0.0180205 0.00725401
0.13357 0.0177445 0.00735679
0.133783 0.0179088 0.00729061
0.133589 0.0174096 0.00747891
0.127401 0.0169272 0.00738687
0.13355 0.0176527 0.00739098
0.133608 0.0175017 0.00744463
0.127381 0.016844 0.0074388
0.12742 0.0170105 0.00733495
0.13353 0.0175608 0.00742517
0.127459 0.017177 0.00723109
0.139196 0.0159956 0.0084476
0.139802 0.0183896 0.00704328
0.133511 0.0174689 0.00745939
0.139217 0.0160655 0.00837953
0.139649 0.0168554 0.00747021
0.127439 0.0170937 0.00728303
0.133716 0.0171913 0.00755522
0.133663 0.0173463 0.00749999
0.133564 0.0165513 0.00779391
0.133534 0.0175422 0.00752333
0.133764 0.0181882 0.00718881
0.133768 0.017812 0.00732649
0.13385 0.01741 0.00747138
0.139845 0.0177332 0.00718264
0.13361 0.0179287 0.0072882
0.13386 0.0178476 0.00731085
0.127516 0.0174559 0.00714278
0.13369 0.0178717 0.00730695
0.133466 0.0172861 0.00752756
0.139643 0.0180829 0.00716423
0.133604 0.0167349 0.00772553
0.133776 0.017474 0.00745003
0.133727 0.0176355 0.00741229
0.133747 0.017719 0.00736111
0.13372 0.0180697 0.00723346
0.133791 0.0180024 0.00725613
0.1337 0.01754 0.00742801
0.133842 0.0177484 0.00734769
0.133918 0.0176864 0.00736828
0.133676 0.0182343 0.00717442
0.139868 0.0183162 0.00706214
0.127477 0.0172648 0.00718706
0.127536 0.0175515 0.00712064
0.133693 0.0171002 0.00758926
0.127555 0.017647 0.00709851
0.127497 0.0173604 0.00716492
0.133649 0.017687 0.00737559
0.13359 0.0178366 0.00732249
0.133822 0.0176565 0.00738189
0.139578 0.0176647 0.0072661
0.133705 0.0179702 0.00729721
0.133206 0.01582 0.00818161
0.133812 0.0181056 0.00721772
0.133812 0.017219 0.00754241
0.139772 0.0174166 0.00724487
0.133656 0.0181425 0.00720861
0.133228 0.0158881 0.00811184
0.139898 0.0184221 0.00704167
0.139847 0.0173527 0.00726225
0.133619 0.0171635 0.00756819
0.133584 0.0166431 0.00775972
0.139753 0.0173204 0.0072639

VERTICES 287 574
1 0
1 1
1 2
1 3
1 4
1 5
1 6
1 7
1 8
1 9
1 10
1 11
1 12
1 13
1 14
1 15
1 16
1 17
1 18
1 19
1 20
1 21
1 22
1 23
1 24
1 25
1 26
1 27
1 28
1 29
1 30
1 31
1 32
1 33
1 34
1 35
1 36
1 37
1 38
1 39
1 40
1 41
1 42
1 43
1 44
1 45
1 46
1 47
1 48
1 49
1 50
1 51
1 52
1 53
1 54
1 55
1 56
1 57
1 58
1 59
1 60
1 61
1 62
1 63
1 64
1 65
1 66
1 67
1 68
1 69
1 70
1 71
1 72
1 73
1 74
1 75
1 76
1 77
1 78
1 79
1 80
1 81
1 82
1 83
1 84
1 85
1 86
1 87
1 88
1 89
1 90
1 91
1 92
1 93
1 94
1 95
1 96
1 97
1 98
1 99
1 100
1 101
1 102
1 103
1 104
1 105
1 106
1 107
1 108
1 109
1 110
1 111
1 112
1 113
1 114
1 115
1 116
1 117
1 118
1 119
1 120
1 121
1 122
1 123
1 124
1 125
1 126
1 127
1 128
1 129
1 130
1 131
1 132
1 133
1 134
1 135
1 136
1 137
1 138
1 139
1 140
1 141
1 142
1 143
1 144
1 145
1 146
1 147
1 148
1 149
1 150
1 151
1 152
1 153
1 154
1 155
1 156
1 157
1 158
1 159
1 160
1 161
1 162
1 163
1 164
1 165
1 166
1 167
1 168
1 169
1 170
1 171
1 172
1 173
1 174
1 175
1 176
1 177
1 178
1 179
1 180
1 181
1 182
1 183
1 184
1 185
1 186
1 187
1 188
1 189
1 190
1 191
1 192
1 193
1 194
1 195
1 196
1 197
1 198
1 199
1 200
1 201
1 202
1 203
1 204
1 205
1 206
1 207
1 208
1 209
1 210
1 211
1 212
1 213
1 214
1 215
1 216
1 217
1 218
1 219
1 220
1 221
1 222
1 223
1 224
1 225
1 226
1 227
1 228
1 229
1 230
1 231
1 232
1 233
1 234
1 235
1 236
1 237
1 238
1 239
1 240
1 241
1 242
1 243
1 244
1 245
1 246
1 247
1 248
1 249
1 250
1 251
1 252
1 253
1 254
1 255
1 256
1 257
1 258
1 259
1 260
1 261
1 262
1 263
1 264
1 265
1 266
1 267
1 268
1 269
1 270
1 271
1 272
1 273
1 274
1 275
1 276
1 277
1 278
1 279
1 280
1 281
1 282
1 283
1 284
1 285
1 286

POINT_DATA 287
SCALARS id int 1
LOOKUP_TABLE default
1
2
3
4
5
6
7
8
9
10
11
12
13
14
15
16
17
18
19
20
21
22
24
25
26
27
29
30
31
32
33
34
35
36
37
38
40
41
42
43
44
45
46
47
48
49
50
52
54
55
56
57
58
59
60
61
62
63
64
65
66
67
68
69
70
71
72
73
74
75
76
77
78
79
80
81
82
83
84
85
86
87
88
89
90
91
92
93
94
95
96
98
99
100
101
102
103
104
105
106
107
108
109
110
111
112
113
114
115
116
117
118
119
120
121
122
123
124
125
126
127
128
129
130
131
132
133
134
135
136
137
138
139
140
141
142
144
145
146
147
148
149
150
152
153
154
155
156
157
158
159
160
161
162
164
165
166
167
168
169
170
171
172
173
174
175
176
177
178
179
180
181
182
183
184
185
186
187
188
189
190
191
192
193
194
195
196
197
198
199
200
201
202
203
204
205
206
207
208
209
210
211
213
214
215
216
217
218
219
220
221
222
223
224
225
226
227
228
229
230
231
232
233
234
235
236
237
238
239
241
242
243
244
245
246
247
248
249
250
251
252
253
254
255
256
257
258
259
260
261
262
263
264
265
267
268
269
270
271
272
273
274
275
276
277
278
279
280
281
282
283
284
285
286
287
288
289
290
292
293
294
295
296
297
298
299
300

SCALARS type int 1
LOOKUP_TABLE default
1
1
1
1
1
1
1
1
1
1
1
1
1
1
1
1
1
1
1
1
1
1
1
1
1
1
1
1
1
1
1
1
1
1
1
1
1
1
1
1
1
1
1
1
1
1
1
1
1
1
1
1
1
1
1
1
1
1
1
1
1
1
1
1
1
1
1
1
1
1
1
1
1
1
1
1
1
1
1
1
1
1
1
1
1
1
1
1
1
1
1
1
1
1
1
1
1
1
1
1
1
1
1
1
1
1
1
1
1
1
1
1
1
1
1
1
1
1
1
1
1
1
1
1
1
1
1
1
1
1
1
1
1
1
1
1
1
1
1
1
1
1
1
1
1
1
1
1
1
1
1
1
1
1
1
1
1
1
1
1
1
1
1
1
1
1
1
1
1
1
1
1
1
1
1
1
1
1
1
1
1
1
1
1
1
1
1
1
1
1
1
1
1
1
1
1
1
1
1
1
1
1
1
1
1
1
1
1
1
1
1
1
1
1
1
1
1
1
1
1
1
1
1
1
1
1
1
1
1
1
1
1
1
1
1
1
1
1
1
1
1
1
1
1
1
1
1
1
1
1
1
1
1
1
1
1
1
1
1
1
1
1
1
1
1
1
1
1
1
1
1
1
1
1
1
1
1
1
1
1
1
1
1
1
1
1
1

SCALARS radius float 1
LOOKUP_TABLE default
5e-05
5e-05
5e-05
5e-05
5e-05
5e-05
5e-05
5e-05
5e-05
5e-05
5e-05
5e-05
5e-05
5e-05
5e-05
5e-05
5e-05
5e-05
5e-05
5e-05
5e-05
5e-05
5e-05
5e-05
5e-05
5e-05
5e-05
5e-05
5e-05
5e-05
5e-05
5e-05
5e-05
5e-05
5e-05
5e-05
5e-05
5e-05
5e-05
5e-05
5e-05
5e-05
5e-05
5e-05
5e-05
5e-05
5e-05
5e-05
5e-05
5e-05
5e-05
5e-05
5e-05
5e-05
5e-05
5e-05
5e-05
5e-05
5e-05
5e-05
5e-05
5e-05
5e-05
5e-05
5e-05
5e-05
5e-05
5e-05
5e-05
5e-05
5e-05
5e-05
5e-05
5e-05
5e-05
5e-05
5e-05
5e-05
5e-05
5e-05
5e-05
5e-05
5e-05
5e-05
5e-05
5e-05
5e-05
5e-05
5e-05
5e-05
5e-05
5e-05
5e-05
5e-05
5e-05
5e-05
5e-05
5e-05
5e-05
5e-05
5e-05
5e-05
5e-05
5e-05
5e-05
5e-05
5e-05
5e-05
5e-05
5e-05
5e-05
5e-05
5e-05
5e-05
5e-05
5e-05
5e-05
5e-05
5e-05
5e-05
5e-05
5e-05
5e-05
5e-05
5e-05
5e-05
5e-05
5e-05
5e-05
5e-05
5e-05
5e-05
5e-05
5e-05
5e-05
5e-05
5e-05
5e-05
5e-05
5e-05
5e-05
5e-05
5e-05
5e-05
5e-05
5e-05
5e-05
5e-05
5e-05
5e-05
5e-05
5e-05
5e-05
5e-05
5e-05
5e-05
5e-05
5e-05
5e-05
5e-05
5e-05
5e-05
5e-05
5e-05
5e-05
5e-05
5e-05
5e-05
5e-05
5e-05
5e-05
5e-05
5e-05
5e-05
5e-05
5e-05
5e-05
5e-05
5e-05
5e-05
5e-05
5e-05
5e-05
5e-05
5e-05
5e-05
5e-05
5e-05
5e-05
5e-05
5e-05
5e-05
5e-05
5e-05
5e-05
5e-05
5e-05
5e-05
5e-05
5e-05
5e-05
5e-05
5e-05
5e-05
5e-05
5e-05
5e-05
5e-05
5e-05
5e-05
5e-05
5e-05
5e-05
5e-05
5e-05
5e-05
5e-05
5e-05
5e-05
5e-05
5e-05
5e-05
5e-05
5e-05
5e-05
5e-05
5e-05
5e-05
5e-05
5e-05
5e-05
5e-05
5e-05
5e-05
5e-05
5e-05
5e-05
5e-05
5e-05
5e-05
5e-05
5e-05
5e-05
5e-05
5e-05
5e-05
5e-05
5e-05
5e-05
5e-05
5e-05
5e-05
5e-05
5e-05
5e-05
5e-05
5e-05
5e-05
5e-05
5e-05
5e-05
5e-05
5e-05
5e-05
5e-05
5e-05
5e-05
5e-05
5e-05
5e-05
5e-05
5e-05
5e-05
5e-05
5e-05
5e-05
5e-05
5e-05
5e-05
5e-05
5e-05
5e-05
5e-05
5e-05
5e-05
5e-05
5e-05

SCALARS mass float 1
LOOKUP_TABLE default
1.46608e-10
1.46608e-10
1.46608e-10
1.46608e-10
1.46608e-10
1.46608e-10
1.46608e-10
1.46608e-10
1.46608e-10
1.46608e-10
1.46608e-10
1.46608e-10
1.46608e-10
1.46608e-10
1.46608e-10
1.46608e-10
1.46608e-10
1.46608e-10
1.46608e-10
1.46608e-10
1.46608e-10
1.46608e-10
1.46608e-10
1.46608e-10
1.46608e-10
1.46608e-10
1.46608e-10
1.46608e-10
1.46608e-10
1.46608e-10
1.46608e-10
1.46608e-10
1.46608e-10
1.46608e-10
1.46608e-10
1.46608e-10
1.46608e-10
1.46608e-10
1.46608e-10
1.46608e-10
1.46608e-10
1.46608e-10
1.46608e-10
1.46608e-10
1.46608e-10
1.46608e-10
1.46608e-10
1.46608e-10
1.46608e-10
1.46608e-10
1.46608e-10
1.46608e-10
1.46608e-10
1.46608e-10
1.46608e-10
1.46608e-10
1.46608e-10
1.46608e-10
1.46608e-10
1.46608e-10
1.46608e-10
1.46608e-10
1.46608e-10
1.46608e-10
1.46608e-10
1.46608e-10
1.46608e-10
1.46608e-10
1.46608e-10
1.46608e-10
1.46608e-10
1.46608e-10
1.46608e-10
1.46608e-10
1.46608e-10
1.46608e-10
1.46608e-10
1.46608e-10
1.46608e-10
1.46608e-10
1.46608e-10
1.46608e-10
1.46608e-10
1.46608e-10
1.46608e-10
1.46608e-10
1.46608e-10
1.46608e-10
1.46608e-10
1.46608e-10
1.46608e-10
1.46608e-10
1.46608e-10
1.46608e-10
1.46608e-10
1.46608e-10
1.46608e-10
1.46608e-10
1.46608e-10
1.46608e-10
1.46608e-10
1.46608e-10
1.46608e-10
1.46608e-10
1.46608e-10
1.46608e-10
1.46608e-10
1.46608e-10
1.46608e-10
1.46608e-10
1.46608e-10
1.46608e-10
1.46608e-10
1.46608e-10
1.46608e-10
1.46608e-10
1.46608e-10
1.46608e-10
1.46608e-10
1.46608e-10
1.46608e-10
1.46608e-10
1.46608e-10
1.46608e-10
1.46608e-10
1.46608e-10
1.46608e-10
1.46608e-10
1.46608e-10
1.46608e-10
1.46608e-10
1.46608e-10
1.46608e-10
1.46608e-10
1.46608e-10
1.46608e-10
1.46608e-10
1.46608e-10
1.46608e-10
1.46608e-10
1.46608e-10
1.46608e-10
1.46608e-10
1.46608e-10
1.46608e-10
1.46608e-10
1.46608e-10
1.46608e-10
1.46608e-10
1.46608e-10
1.46608e-10
1.46608e-10
1.46608e-10
1.46608e-10
1.46608e-10
1.46608e-10
1.46608e-10
1.46608e-10
1.46608e-10
1.46608e-10
1.46608e-10
1.46608e-10
1.46608e-10
1.46608e-10
1.46608e-10
1.46608e-10
1.46608e-10
1.46608e-10
1.46608e-10
1.46608e-10
1.46608e-10
1.46608e-10
1.46608e-10
1.46608e-10
1.46608e-10
1.46608e-10
1.46608e-10
1.46608e-10
1.46608e-10
1.46608e-10
1.46608e-10
1.46608e-10
1.46608e-10
1.46608e-10
1.46608e-10
1.46608e-10
1.46608e-10
1.46608e-10
1.46608e-10
1.46608e-10
1.46608e-10
1.46608e-10
1.46608e-10
1.46608e-10
1.46608e-10
1.46608e-10
1.46608e-10
1.46608e-10
1.46608e-10
1.46608e-10
1.46608e-10
1.46608e-10
1.46608e-10
1.46608e-10
1.46608e-10
1.46608e-10
1.46608e-10
1.46608e-10
1.46608e-10
1.46608e-10
1.46608e-10
1.46608e-10
1.46608e-10
1.46608e-10
1.46608e-10
1.46608e-10
1.46608e-10
1.46608e-10
1.46608e-10
1.46608e-10
1.46608e-10
1.46608e-10
1.46608e-10
1.46608e-10
1.46608e-10
1.46608e-10
1.46608e-10
1.46608e-10
1.46608e-10
1.46608e-10
1.46608e-10
1.46608e-10
1.46608e-10
1.46608e-10
1.46608e-10
1.46608e-10
1.46608e-10
1.46608e-10
1.46608e-10
1.46608e-10
1.46608e-10
1.46608e-10
1.46608e-10
1.46608e-10
1.46608e-10
1.46608e-10
1.46608e-10
1.46608e-10
1.46608e-10
1.46608e-10
1.46608e-10
1.46608e-10
1.46608e-10
1.46608e-10
1.46608e-10
1.46608e-10
1.46608e-10
1.46608e-10
1.46608e-10
1.46608e-10
1.46608e-10
1.46608e-10
1.46608e-10
1.46608e-10
1.46608e-10
1.46608e-10
1.46608e-10
1.46608e-10
1.46608e-10
1.46608e-10
1.46608e-10
1.46608e-10
1.46608e-10
1.46608e-10
1.46608e-10
1.46608e-10
1.46608e-10
1.46608e-10
1.46608e-10
1.46608e-10
1.46608e-10
1.46608e-10
1.46608e-10
1.46608e-10
1.46608e-10
1.46608e-10
1.46608e-10

VECTORS velocity float
0.00448793 -0.000552978 0.00016347
0.00431763 -0.000582654 0.000353252
0.00437191 -0.000589333 0.000359085
0.00427417 -0.000414302 0.000315277
0.00452162 -0.000259607 0.000508326
0.00331976 -0.00288721 0.00338749
0.00455108 -0.000636454 0.000250036
0.00449917 -0.000250818 0.00049795
0.00437533 -0.000309427 0.000185539
0.00422216 -0.000448447 0.000316421
0.00438585 -0.000539 0.000179496
0.00444642 -0.000764757 -0.00049633
0.00420698 -0.000444309 0.00031821
0.00487838 0.000639042 6.64043e-05
0.00438277 -0.000579657 0.000190138
0.00480809 0.000621869 8.23232e-05
0.00432116 -0.000398613 0.000333962
0.00443258 0.000332878 -3.86367e-05
0.00427155 -0.00041294 0.000327581
0.00428817 -0.000384006 0.000311238
0.00449887 -0.000261585 0.000511868
0.00440308 -0.00057622 0.000201558
0.00432251 -0.000723247 -0.00047835
0.00446038 -0.00058985 0.000210764
0.00380822 -0.00359806 0.00256467
0.00471157 0.000434221 0.000272014
0.0042507 -0.000452752 0.000319656
0.00331869 -0.0028891 0.00338782
0.00425378 -0.000455968 0.00032334
0.00439207 -0.000632283 0.000225457
0.00216671 -0.00283036 0.0029501
0.00422871 -0.000437836 0.000351035
0.00448672 -0.000555131 0.000166095
0.00446474 -0.000305914 0.000198412
0.00454684 -0.000578821 0.000289498
0.00452968 -0.000604221 0.00021842
0.00450046 -0.000631134 0.000248819
0.00461409 -0.000592615 0.000196228
0.00441785 -0.000618102 0.000244722
0.00436171 -0.000421045 0.000317922
0.00424403 -0.00045529 0.000323046
0.00256612 -0.00285153 0.00310485
0.00355807 -0.00358941 0.00260277
0.00450315 -0.000277496 0.000527196
0.00433276 -0.000388997 0.00031355
0.00354147 -0.00288631 0.00346237
0.00425225 -0.000439395 0.000318291
0.00470225 0.000123184 -0.000178148
0.00441194 -0.000538791 0.000158381
0.00440818 0.000396631 0.000342568
0.00426228 -0.000446341 0.000322318
0.00313412 -0.00287097 0.00332004
0.00469249 0.00039505 0.000254
0.00441038 -0.000740512 -0.000459659
0.00436736 -0.000375852 0.000312043
0.00450459 -0.000272956 0.000520568
0.00437141 -0.000536971 0.000160664
0.00428565 -0.000416086 0.000317897
0.00429034 -0.000788029 -0.000425181
0.00449787 -0.000248833 0.000496077
0.0046101 0.000411435 0.00023489
0.00425789 -0.000393709 0.000311277
0.00470146 0.000359718 0.00026006
0.00440275 -0.000639646 0.000221244
0.00475071 -0.000391448 0.000231106
0.00501645 0.000123936 -0.000218067
0.00437711 -0.000456902 -5.53678e-05
0.00452242 -0.000333488 0.000486446
0.00461142 -0.000619652 0.000377351
0.00455368 -0.000456965 0.000388369
0.00463282 -0.000475836 0.000248067
0.00424963 -0.000449729 0.000301911
0.00497417 0.000636529 1.98054e-05
0.00474551 0.000253374 -0.000129372
0.00426216 -0.000427691 0.000318144
0.0045362 -0.000261454 -0.000379739
0.00467354 0.000407535 0.000275364
0.00500977 0.000436251 -3.59827e-05
0.00435345 -0.000422227 0.000230469
0.00497783 0.000631392 0.000110791
0.00425328 -0.000457247 0.000315918
0.00437548 -0.000302454 0.000185822
0.00423582 -0.000451655 0.000323039
0.00423853 -0.000450876 0.000322622
0.00424374 -0.000437577 0.000319413
0.00437012 -0.000495584 0.000271188
0.0042165 -0.000480056 0.000326878
0.00422638 -0.000483513 0.000326905
0.00423416 -0.000450361 0.000321985
0.00424003 -0.00044817 0.000319498
0.00425201 -0.000439549 0.000320726
0.00440734 -0.000600348 0.000374378
0.0047558 0.000436994 0.000239569
0.0044587 -0.000697151 0.000385737
0.0046892 0.000424296 0.000237935
0.00435205 -0.000517489 0.000328724
0.00439974 -0.000544906 0.000168091
0.00460414 0.000255279 -0.000116046
0.00471044 0.00061568 -0.000513422
0.00428964 -0.000454381 0.000354418
0.00493089 0.000671772 4.73859e-05
0.00423477 -0.000447009 0.000322062
0.00432258 -0.00040825 0.000319723
0.00423119 -0.000449003 0.000320953
0.00424443 -0.000442515 0.000320192
0.00473803 0.00044888 0.00025335
0.00422194 -0.000446234 0.000320322
0.00459201 0.000268346 -0.000126812
0.00437682 -0.000589272 0.00035744
0.00428506 -0.000417374 0.000317724
0.00449141 -0.000248634 0.000496329
0.00456867 0.00025416 -0.000192981
0.00333525 -0.00288788 0.00339212
0.00442218 -0.000542682 0.000167742
0.00448188 -0.000250705 0.000497618
0.0046463 -0.000615145 0.000380031
0.00495 -8.2752e-05 -0.000346769
0.00445461 -0.00067749 0.000386375
0.00453496 -0.00059757 0.000210359
0.00437269 -0.000560117 0.000204259
0.00500429 -2.0732e-05 -0.000401992
0.0042209 -0.000429381 0.000331184
0.00460445 0.000389812 0.000220737
0.00434713 -0.000594511 0.000281703
0.00467794 0.000296957 -0.000412873
0.00449476 -0.000725801 0.000393414
0.00457806 -0.000612181 0.000225826
0.0042773 -0.000425594 0.000316644
0.00445197 -0.000547071 0.000157905
0.00484424 0.00063057 7.38809e-05
0.00438318 -0.00059645 0.000361716
0.0042382 -0.000449737 0.000322324
0.004238 -0.000417142 0.00031469
0.00423526 -0.000459087 0.00032105
0.00504402 0.000639937 0.000131295
0.00435251 -0.000444995 0.000331
0.0043492 -0.000401326 0.000344403
0.00424154 -0.000454296 0.000322571
0.00454505 -0.000678116 0.000386509
0.00495557 0.00068246 4.44193e-05
0.00433649 -0.000464088 0.000378175
0.00423788 -0.000451199 0.00032197
0.00447492 -0.000253205 0.00049949
0.00514549 2.79227e-05 -0.000155984
0.00447248 -0.000253421 0.000499776
0.00460626 0.000230643 -0.000112916
0.00451378 0.000484721 0.000206613
0.0047346 0.000434833 0.000238033
0.00441128 -0.000648301 0.000417465
0.00470002 0.000464443 0.000235638
0.00452307 -0.000589417 0.000195975
0.00531997 0.000212771 -0.000239954
0.00451527 -0.000654049 0.000378561
0.00491426 6.79409e-05 -0.000163007
0.00423712 -0.00046121 0.00033216
0.00451976 0.000274969 -0.000232112
0.00460048 -0.000586679 0.000190899
0.00455495 0.000480578 0.000199568
0.0042428 -0.000446982 0.000321199
0.00379048 0.000299541 -0.000217448
0.00457915 0.000252452 -0.000209626
0.00449242 -0.00068198 0.000383735
0.00417157 7.68178e-05 -0.000146103
0.00459147 -0.000658671 0.000384404
0.00519696 -2.3779e-05 -0.000139832
0.00446274 7.00992e-05 -0.000151392
0.00477581 0.000437839 0.000247787
0.00527499 -2.41973e-05 -0.000140136
0.00444815 0.000360755 -0.000265133
0.00453614 0.000286634 -0.000218278
0.00422988 -0.000446071 0.00031992
0.00442182 0.000389055 0.000224593
0.00457406 -0.000606224 0.000224481
0.00258566 0.000774842 -0.000355925
0.00428145 -0.000666838 0.000369571
0.00510534 4.77317e-05 -0.000162991
0.0043836 0.000360614 -0.000249263
0.00481621 -0.000375838 0.000217339
0.00449829 -0.000644715 0.000379056
0.0043882 -0.000372197 0.000314777
0.00515618 0.00014586 -0.000201911
0.00452746 -0.00068684 0.000386172
0.00446599 -0.00099925 -0.00112333
0.00424829 -0.000444045 0.000323672
0.0044979 -0.000252889 0.000500313
0.00442432 0.000125438 -0.000169065
0.00468592 0.000475105 0.000216331
0.004501 -0.000248362 0.000496055
0.00458429 0.000380597 -9.91311e-05
0.00261457 0.000995627 -0.000438242
0.00499796 -2.87192e-05 -0.000394436
0.00441997 0.000134816 -0.000175161
0.00389915 -2.9402e-06 -0.000104929
0.00455145 -0.000572319 0.000178186
0.0041147 7.27363e-05 -0.000149086
0.00464922 0.000365759 0.000236156
0.00463533 0.000147649 -0.000184289
0.00470177 0.000520016 0.000210351
0.00263848 0.000849172 -0.000382597
0.00480466 0.000428956 0.000248995
0.00428489 -0.0004009 0.000314682
0.00438774 -0.00059372 0.00037827
0.00445777 0.000325158 -3.96226e-05
0.00425304 -0.000452237 0.000313557
0.00466322 0.000225104 -7.39491e-05
0.00465491 0.000281382 -0.000233556
0.00456573 -0.000685007 0.000387755
0.0042212 -0.000496817 0.000326792
0.00423829 -0.000442449 0.000320487
0.00451653 -0.00058659 0.000199832
0.00467418 0.000173033 -0.000167618
0.00450557 -0.000266451 0.000515842
0.00462381 0.000478931 0.000257426
0.00500724 0.000147247 -0.000249755
0.0044439 0.000325333 -3.5331e-05
0.0038784 8.44386e-05 -0.000175379
0.00476358 0.000616288 9.04847e-05
0.00521313 0.000223229 -0.000229603
0.0047641 0.000426456 0.000243301
0.00448084 9.50076e-05 -0.000161182
0.00503437 0.000161608 -0.00020447
0.0046465 0.000350568 0.000257486
0.00449231 -0.000668847 0.000380102
0.00425652 -0.000442618 0.000322076
0.0044906 0.000124977 -0.000171321
0.00439787 0.000320556 -0.000242333
0.00450647 0.000125223 -0.000172569
0.00271771 0.000661301 -0.000342277
0.0044358 -0.000118732 2.0467e-05
0.00438231 0.000311907 -0.000242057
0.00410672 0.000231935 -0.000184186
0.00441055 -0.000114448 1.79355e-05
0.00446163 -0.000123041 2.2679e-05
0.00425356 0.000252282 -0.00022982
0.00443283 -0.000118148 2.02938e-05
0.00450156 -0.000247299 0.000495252
0.00456194 -0.000666601 0.000384373
0.00272431 0.000585495 -0.000280045
0.0045007 -0.000247341 0.000494501
0.00439596 -0.000476525 0.000215711
0.00448615 -0.000127903 2.51336e-05
0.00527956 8.57891e-05 -0.000180936
0.00268309 0.000696933 -0.000329264
0.00464691 0.000363514 -0.000271251
0.00434004 0.000219804 -0.000445322
0.00458708 0.000136937 -0.000179435
0.00445562 0.000118546 -0.000169502
0.00280574 0.000514128 -0.000273274
0.00423753 -0.000563449 0.000348333
0.00446018 0.00013796 -0.00017528
0.00450259 0.000115979 -0.000169125
0.00439616 -8.76539e-05 6.57664e-05
0.0044535 0.000118088 -0.000170825
0.00513337 0.000155548 -0.000205939
0.00441483 -0.000597083 0.000414333
0.00460414 0.000149618 -0.000193119
0.00394181 0.000217952 -0.000195621
0.00438616 0.000271782 -0.000182087
0.00442456 0.000131407 -0.00019783
0.00454207 0.000142054 -0.000179917
0.00453008 0.000127025 -0.000174096
0.00414409 5.28097e-05 -0.000144169
0.00445735 0.00012221 -0.000171103
0.00447269 0.000107924 -0.000165436
0.00458887 0.00013822 -0.000180167
0.00453352 -0.000685675 0.000387227
0.00440576 -8.9429e-05 6.60581e-05
0.00439141 -8.66787e-05 6.54281e-05
0.00506723 8.16282e-05 -0.000169292
0.0044169 -9.15792e-05 6.68212e-05
0.00440104 -8.85337e-05 6.59268e-05
0.00438819 0.000290226 -0.000220465
0.00442467 0.000165789 -0.000184173
0.00447899 0.000151319 -0.00018761
0.00423816 -0.000447438 0.000321211
0.00450126 0.000127436 -0.000172265
0.00492387 3.69046e-05 -0.000465407
0.00456312 0.000125179 -0.000174331
0.00503113 0.000788752 -0.000424072
0.00428317 -0.000412619 0.000317761
0.00455618 0.000155356 -0.000184815
0.0049878 1.44549e-06 -0.000432147
0.00453946 -0.000719076 0.000394424
0.00427007 -0.000436479 0.000321407
0.0050853 -5.93059e-05 -0.000120469
0.00471621 0.000312637 -0.000245372
0.00425986 -0.000404809 0.000312817

VECTORS force float
2.26567e-10 -5.92635e-11 3.32665e-11
-8.35642e-11 1.78147e-11 -7.9166e-12
1.16039e-10 -1.19393e-10 3.04746e-11
-4.54135e-11 4.62138e-11 -2.01866e-11
-6.81454e-11 -6.67382e-11 6.33559e-11
3.91431e-11 1.23546e-10 -6.83465e-11
7.6475e-11 1.1261e-10 -1.92047e-11
-2.96051e-11 -3.10116e-11 4.0468e-11
-2.03264e-10 -3.02651e-10 -4.17212e-12
-7.12713e-11 7.94375e-12 2.27349e-11
5.23017e-11 -1.35015e-10 -3.1848e-11
-3.01464e-10 -5.45458e-10 -6.68073e-10
-2.29412e-11 -4.66233e-11 -1.38546e-11
-1.52365e-10 -1.21858e-12 -1.27193e-10
2.7458e-11 5.5535e-12 3.71803e-11
-3.57652e-11 1.62514e-10 -1.30185e-10
9.58273e-11 7.24999e-11 3.22019e-11
2.58527e-10 -1.9111e-10 7.13962e-11
-3.8716e-11 -3.40928e-11 8.09042e-12
5.33067e-11 -6.09125e-11 3.59984e-12
-1.18999e-10 -7.41755e-11 3.66441e-11
1.83156e-10 -5.19853e-11 1.36982e-11
-2.19853e-10 7.40819e-10 -3.62343e-10
2.71118e-10 -4.81392e-11 5.03435e-11
2.21669e-11 4.31312e-11 -1.41738e-10
-9.9429e-11 -6.02285e-10 3.69096e-10
-5.47847e-11 -9.26373e-11 -1.33069e-11
1.75281e-11 4.24311e-11 -2.72444e-11
-4.70739e-11 -9.89795e-12 -1.01195e-12
-6.53633e-11 -1.76244e-11 -1.05029e-10
1.82865e-10 1.19927e-10 -3.71259e-11
-2.83104e-11 -6.42412e-12 -4.34567e-11
2.19798e-10 -1.1461e-10 1.42077e-10
2.11287e-10 -3.74067e-10 1.12777e-10
-2.35686e-11 3.45135e-11 4.71604e-12
1.27743e-10 -7.04596e-11 7.19449e-11
1.83324e-10 1.13278e-10 -3.83627e-11
-1.46131e-10 -2.18778e-10 2.77846e-10
3.08713e-11 8.58261e-11 -9.93504e-11
2.63022e-11 -6.86554e-11 -5.28244e-12
7.30755e-11 -1.83843e-11 1.98889e-11
-1.62185e-10 1.29326e-10 -1.61423e-10
3.04958e-11 7.52086e-11 -1.10319e-10
-2.08019e-11 -6.69823e-11 4.72653e-11
-3.56982e-11 -6.01949e-11 8.82131e-12
1.38343e-11 8.99954e-11 -6.37366e-11
-1.30302e-11 -1.41459e-11 -3.88333e-12
-3.48861e-11 2.51219e-10 -1.26013e-10
1.51339e-10 -3.20131e-11 4.64706e-11
-1.02787e-09 5.35517e-11 -3.12264e-11
1.76761e-11 -7.00338e-11 2.64047e-11
-1.05808e-10 1.0379e-10 -1.30675e-10
-2.3043e-11 -7.77992e-11 -1.32037e-10
1.30762e-10 -6.69772e-11 -1.88409e-10
-1.42487e-11 -5.35916e-11 1.94378e-11
-2.87558e-11 -9.29959e-11 5.95944e-11
5.93077e-11 -2.88772e-11 7.84894e-11
2.60461e-11 7.36106e-11 -1.49911e-11
1.39526e-10 4.53482e-10 -3.20129e-10
4.62392e-11 4.79039e-13 -2.24843e-12
1.48387e-10 -2.96802e-10 1.08467e-10
4.77934e-11 -4.60073e-11 1.65271e-12
3.17733e-11 8.21443e-11 -5.61122e-11
-2.70132e-11 1.35377e-11 -1.50871e-10
6.79763e-10 -2.86274e-10 3.84113e-10
4.08276e-12 5.29078e-11 -9.22146e-10
-2.83549e-10 -2.78983e-10 -1.2639e-10
7.36996e-12 -3.26567e-11 1.17516e-10
-3.35607e-11 1.07237e-10 -1.45219e-11
6.32849e-11 -3.51707e-11 7.93528e-11
4.76613e-10 -4.14529e-10 1.7076e-10
-7.18718e-11 6.81688e-11 1.30559e-10
5.28898e-12 -4.98434e-10 8.63732e-11
2.86597e-11 4.60042e-10 2.89732e-10
-4.1728e-11 1.46395e-12 -2.47554e-11
-6.53593e-10 1.122e-10 1.00462e-10
-2.95984e-10 -6.26035e-10 7.04159e-10
-2.53268e-10 -5.11021e-10 -5.14232e-10
4.03796e-10 -4.1373e-10 1.8721e-10
-1.65988e-10 4.40309e-11 -1.45032e-10
4.90186e-12 6.85801e-11 1.59251e-12
3.39472e-11 -2.90357e-10 9.72875e-11
-3.10064e-12 3.94893e-12 3.88186e-12
-2.88597e-11 -1.51301e-11 -1.89276e-12
1.72899e-11 2.30205e-12 -1.57564e-12
1.54992e-11 -1.08361e-10 -5.29259e-11
1.55517e-11 -1.93606e-11 -1.19124e-11
1.1762e-11 -1.40196e-11 -5.37343e-12
-1.95233e-11 -5.65888e-12 -5.54566e-12
1.855e-11 4.1607e-11 -2.22108e-11
1.46132e-13 2.55842e-11 -1.36958e-11
-7.98899e-12 5.77624e-11 6.5179e-11
4.64097e-10 -1.47053e-10 4.18036e-11
1.5429e-10 1.21312e-10 -2.35907e-11
3.93913e-10 -1.57771e-10 9.14288e-11
-3.20556e-11 -6.24307e-11 -5.76691e-11
1.87776e-10 -8.79465e-11 2.16414e-11
8.71666e-11 -1.69802e-10 -6.80512e-12
-4.7484e-10 -2.24379e-10 -4.48389e-10
-1.8294e-11 -1.68504e-11 7.4009e-11
-6.55317e-11 3.706e-11 1.44729e-10
-1.70055e-11 -5.58226e-11 2.10874e-11
5.0766e-11 4.24529e-11 -3.63896e-11
-1.25809e-11 -3.27569e-11 -3.09611e-12
-3.73571e-11 -3.38414e-11 -1.59992e-11
-1.30762e-10 -1.54454e-10 -2.00383e-10
-1.9386e-12 -2.42897e-11 4.04462e-12
-2.82524e-10 1.47478e-10 9.10496e-11
4.02013e-11 -8.60643e-11 3.73151e-11
6.19097e-11 1.22014e-10 -2.00044e-11
3.42199e-11 4.32892e-11 -3.83754e-11
8.7141e-10 5.47587e-11 3.9185e-10
2.1317e-11 4.12572e-12 4.27608e-12
3.00159e-10 -9.06409e-11 6.27908e-11
-9.11877e-12 3.1816e-11 -3.26347e-11
8.36618e-11 1.92016e-10 -4.35646e-11
4.07383e-10 2.79771e-10 -2.30567e-10
1.72256e-10 -1.53513e-10 4.63199e-11
1.27169e-10 -6.20098e-11 3.6732e-11
1.13882e-11 -4.74553e-11 2.19674e-11
2.22673e-12 8.21137e-11 -1.67947e-10
1.52174e-12 -5.01676e-11 -4.414e-11
1.18879e-10 2.37865e-10 -1.67287e-10
-7.87732e-11 4.84597e-11 -6.27767e-12
-7.2254e-11 -1.54794e-10 -1.69784e-10
-1.20616e-10 -1.55717e-10 2.63197e-11
-7.15859e-12 -7.52401e-11 6.59377e-11
-6.6679e-11 -1.58339e-11 2.77656e-12
2.10312e-10 -5.68512e-11 3.88474e-11
-2.61223e-11 -2.13746e-11 1.07668e-10
1.7992e-10 -2.72779e-12 -2.13194e-11
9.70923e-12 -3.2895e-11 1.64022e-11
1.11666e-12 -2.78038e-11 6.95434e-12
1.22676e-10 2.57163e-10 -8.65638e-12
-3.79373e-10 -1.90282e-11 -2.30334e-10
4.33039e-11 -7.1862e-11 -3.16537e-12
1.44332e-10 -2.15968e-11 2.26033e-11
-3.70452e-12 -7.46858e-11 1.08181e-11
-1.23115e-11 -1.68884e-11 -3.23358e-12
7.6232e-11 -2.12777e-10 2.52255e-10
6.69581e-11 -2.3362e-11 2.98716e-11
1.26243e-11 -9.99053e-12 1.32716e-11
3.76171e-11 1.25374e-11 -1.03623e-11
-1.4258e-10 -3.2607e-10 2.1016e-10
1.05195e-11 2.54115e-11 -2.2012e-11
1.25391e-10 1.66956e-10 1.56096e-09
1.10966e-10 7.90114e-11 -1.97611e-10
4.49346e-10 1.40575e-10 -4.29311e-11
6.38437e-11 -8.11784e-11 5.93546e-11
3.91797e-10 -2.28092e-10 9.85188e-11
-1.83744e-10 -1.06319e-10 1.12813e-10
-1.09136e-09 2.86812e-12 -1.62166e-11
-3.57895e-11 -1.66813e-10 3.05655e-11
1.20085e-10 -4.82647e-11 1.40611e-11
-5.25186e-11 -6.00854e-12 -9.21313e-11
7.59204e-10 -7.23332e-10 3.21532e-10
-2.33818e-11 -1.6845e-10 2.26981e-10
-4.61094e-10 1.71205e-10 -1.26164e-10
9.60399e-12 -1.269e-11 1.02957e-11
5.29569e-10 -4.95706e-10 7.19378e-11
-3.20264e-10 4.85341e-10 -1.53264e-10
3.744e-11 5.89144e-11 -7.38558e-12
1.37299e-10 -1.18471e-10 8.47506e-11
-1.54959e-11 1.55581e-10 -3.46578e-11
5.11859e-10 -4.09338e-10 1.39976e-10
2.15258e-10 -1.62508e-10 5.12316e-11
3.61276e-11 -3.83208e-10 6.81166e-11
1.11857e-09 -2.9964e-10 8.39248e-11
1.14983e-10 -1.57207e-10 -2.64296e-10
-9.42865e-10 8.53869e-10 -2.27412e-10
-1.69791e-11 -2.53589e-11 9.09536e-12
5.6563e-10 2.14866e-11 4.69334e-11
-7.87523e-12 -7.36593e-11 4.61754e-11
-5.99791e-10 2.66376e-10 -9.07331e-11
-2.2322e-10 2.26017e-12 -1.1642e-12
8.52689e-10 1.24126e-10 -1.39131e-10
1.67083e-10 -7.98331e-11 4.6985e-11
1.88296e-10 -3.32917e-10 7.62004e-10
-1.62588e-11 -8.79705e-11 1.00764e-11
8.1399e-11 -4.97096e-11 4.22949e-11
-2.58565e-10 3.49199e-11 4.52413e-11
-5.25574e-11 -8.82039e-11 2.44823e-11
0.0 0.0 -1.43822e-09
-2.32792e-11 6.8741e-11 -6.52175e-11
-8.23173e-11 3.2321e-12 -3.35486e-11
-1.84757e-10 1.11545e-10 3.03517e-11
1.85937e-10 3.05904e-10 -3.71964e-11
1.5059e-11 3.41425e-11 -4.10581e-11
-1.16276e-10 9.68501e-11 -5.09617e-10
-5.86876e-10 2.26949e-10 -6.87422e-11
9.47365e-11 9.70713e-11 -1.62467e-10
4.5996e-11 6.94228e-11 -9.05662e-11
8.48388e-12 1.15379e-10 -4.94116e-11
7.92543e-11 -1.49842e-10 1.57352e-10
-2.8488e-10 1.29455e-10 7.63678e-11
5.20174e-11 -5.04543e-10 5.06603e-10
1.18503e-09 -1.38688e-09 6.00747e-10
3.44645e-10 4.6178e-10 -1.17119e-10
-4.18043e-10 2.16308e-10 -4.84953e-11
3.1305e-11 -2.23716e-10 -9.6989e-12
-2.90982e-12 6.95141e-11 -6.71506e-12
-2.2361e-12 -9.67552e-11 -2.84071e-11
1.55442e-10 2.78247e-10 2.5759e-11
3.92289e-11 1.01512e-10 7.47177e-11
7.67411e-10 -5.50913e-10 2.56789e-10
5.41551e-10 -5.38541e-10 5.06652e-10
2.32527e-12 1.01894e-11 5.00261e-12
-2.22857e-11 1.0986e-11 1.47467e-11
1.00882e-11 -8.32433e-11 7.53847e-12
1.25667e-10 -4.72412e-11 6.72185e-11
-1.06731e-10 -6.23355e-11 7.27855e-11
-6.98343e-11 -1.55711e-10 1.37443e-10
1.15904e-10 -2.45677e-10 -8.20768e-10
-2.0932e-10 -2.05608e-10 -7.24994e-10
3.57525e-10 5.93402e-11 5.56659e-11
1.88526e-09 -1.56393e-09 1.20083e-09
2.23483e-11 6.40798e-11 -1.10423e-10
-4.41665e-10 9.32582e-10 -2.32543e-10
1.52041e-10 -1.22774e-11 7.62049e-12
8.41914e-11 -1.81512e-10 6.84813e-11
-4.63405e-10 -3.14568e-10 -1.042e-10
7.49806e-13 -2.0053e-10 1.62766e-10
-2.05406e-11 -1.1591e-10 8.82229e-12
2.71604e-11 -1.20273e-11 -8.31837e-12
1.70446e-10 1.3563e-10 -5.64153e-11
6.70223e-12 2.45449e-10 -2.56371e-11
1.89e-11 -4.85932e-11 6.50124e-12
2.3806e-09 7.89399e-11 1.02902e-10
1.75733e-12 2.53972e-12 -1.59492e-12
5.78198e-10 -6.8279e-10 1.32043e-10
2.09024e-09 -4.09671e-10 -8.06022e-10
3.23173e-14 -8.74453e-15 6.25722e-13
-7.00403e-12 -5.31087e-13 -1.38349e-12
1.89513e-10 -2.19286e-09 1.44806e-10
-1.3634e-12 -2.88904e-12 1.48064e-12
1.18994e-10 5.88944e-11 -5.91839e-11
2.98165e-11 8.46557e-11 -1.88447e-11
-6.17908e-11 1.20882e-09 -2.60551e-10
2.7393e-11 5.14938e-11 -5.11912e-11
1.07192e-10 -3.28068e-11 4.22553e-11
1.46213e-11 -2.73564e-12 8.50465e-12
-1.1064e-10 9.72027e-11 -3.21235e-10
-1.65855e-10 -9.27275e-11 -1.30866e-10
-3.39981e-10 -1.14394e-11 -1.10686e-10
-3.63297e-10 2.98575e-10 -5.01317e-11
1.70313e-11 -9.40535e-12 4.89943e-12
2.25986e-11 1.6047e-10 -5.28798e-11
-2.09775e-10 -4.8762e-10 3.28644e-10
-2.81782e-11 6.97302e-11 -2.69767e-11
-1.81948e-10 -1.64799e-10 6.6081e-11
7.5899e-11 -9.36514e-11 4.3505e-11
1.95839e-12 -5.16577e-13 -4.80463e-14
-1.25052e-10 -8.57585e-11 4.4017e-11
1.20197e-09 -2.33479e-10 8.23667e-11
2.9846e-11 -1.35882e-11 5.66132e-11
-3.29985e-10 4.34804e-10 -3.14677e-10
-9.54834e-11 -2.98073e-11 3.63124e-11
-2.15961e-10 -6.6265e-10 7.33437e-10
1.49672e-10 7.10561e-10 -4.64317e-10
-6.97481e-11 -4.10271e-11 2.20776e-11
-2.79492e-11 -2.48253e-11 9.77465e-12
-1.87918e-10 1.12492e-11 3.35454e-11
-6.81538e-11 1.98478e-10 -1.22279e-10
-2.68741e-10 2.78487e-10 -1.02101e-10
-1.40063e-12 -2.09305e-11 7.715e-12
1.08636e-10 1.03504e-10 -1.74708e-11
-3.19453e-13 2.41733e-12 2.53984e-12
-6.14285e-13 8.05607e-14 7.0243e-13
-4.50009e-10 -3.78251e-11 3.27707e-11
-7.09319e-14 5.21389e-13 -3.83191e-13
-1.44449e-12 1.11086e-12 -2.26729e-12
2.68692e-10 5.35047e-10 9.58648e-11
8.4793e-12 -5.99849e-11 5.13337e-11
-1.77659e-10 2.37218e-10 -2.66257e-10
1.19603e-11 3.28141e-11 2.31984e-11
5.798e-11 4.8405e-11 -6.87967e-11
-1.34029e-11 -2.18972e-10 4.12506e-10
-1.21932e-11 -2.89383e-11 9.58674e-12
8.17233e-11 1.98474e-10 -1.55404e-11
2.82751e-11 8.43655e-11 -2.10588e-11
-2.81975e-11 -2.89428e-11 4.82588e-12
4.58787e-10 -8.77607e-11 1.8249e-11
-1.05504e-10 1.45034e-10 -3.70006e-11
-6.72732e-12 9.11128e-11 -2.21809e-11
-9.2561e-11 -6.45869e-11 3.42658e-11
-2.19096e-10 -8.02643e-11 -5.07376e-11
3.98212e-11 5.78761e-11 -1.47399e-11
