# vtk DataFile Version 3.0
LIGGGHTS particles timestep 34400000
ASCII
DATASET POLYDATA
POINTS 283 float
0.170493 0.0167796 0.00792823
0.170722 0.0173188 0.00754636
0.170904 0.0184463 0.00704749
0.170883 0.0183568 0.00708647
0.170139 0.0153964 0.00880019
0.176536 0.0167976 0.00740972
0.170272 0.0157791 0.0082497
0.170119 0.0153525 0.00888801
0.176789 0.0179247 0.00708568
0.170819 0.017538 0.00755038
0.170413 0.0164233 0.00804341
0.176746 0.0177371 0.00713964
0.170777 0.0164812 0.0079857
0.16411 0.0154728 0.00900199
0.170631 0.0162626 0.00807012
0.16449 0.0166056 0.00752518
0.176912 0.0184892 0.00692348
0.170818 0.0180882 0.00720342
0.170724 0.016747 0.00783951
0.170158 0.0154402 0.00871237
0.170941 0.0186266 0.00696925
0.176702 0.0175495 0.00719361
0.170719 0.0166334 0.00789681
0.176637 0.0172681 0.00727455
0.164378 0.0162471 0.0079929
0.170875 0.0179111 0.00727638
0.176516 0.0167109 0.00745559
0.17098 0.0183852 0.00707033
0.170798 0.0166925 0.00788153
0.176554 0.016892 0.00738263
0.170775 0.0179088 0.00728154
0.170793 0.0165805 0.00793796
0.176854 0.0182063 0.00700471
0.170252 0.0156904 0.00829139
0.170849 0.0168683 0.00780109
0.170288 0.0158775 0.00825761
0.170754 0.0168342 0.00780051
0.170306 0.0159737 0.00823726
0.170943 0.0182129 0.00714517
0.170787 0.0171926 0.00762316
0.176574 0.0169864 0.00735555
0.176659 0.0173619 0.00724757
0.170196 0.0155283 0.0085369
0.17063 0.0165886 0.00790284
0.176615 0.0171743 0.00730153
0.170844 0.0171243 0.00766892
0.165148 0.017951 0.00716872
0.164892 0.0176081 0.00725336
0.170841 0.0174464 0.00750339
0.176594 0.0170805 0.00732851
0.164603 0.0167237 0.00746791
0.176724 0.0176433 0.00716662
0.170753 0.0178177 0.00732121
0.170177 0.015484 0.00862459
0.170391 0.016336 0.00808711
0.171001 0.0178749 0.00731423
0.176681 0.0174557 0.00722059
0.17037 0.0159932 0.00816257
0.165082 0.0176661 0.00723685
0.170706 0.0169083 0.00775348
0.164517 0.0166658 0.00760044
0.170604 0.0161672 0.00811388
0.176949 0.0182377 0.00699386
0.164666 0.0170089 0.00739913
0.176768 0.0178309 0.00711266
0.170215 0.0155769 0.00845163
0.170582 0.0171095 0.00763858
0.170234 0.0156304 0.00836933
0.176892 0.0183949 0.00695056
0.170947 0.0174876 0.00750251
0.164175 0.0156511 0.00876958
0.164284 0.0159482 0.00838246
0.170751 0.0170856 0.0076713
0.165011 0.0180678 0.0072377
0.164662 0.0165882 0.00755186
0.164196 0.0157106 0.00869205
0.176833 0.0181123 0.00703172
0.164582 0.0166299 0.00749538
0.170919 0.0181214 0.00718542
0.176811 0.0180185 0.0070587
0.170511 0.0164648 0.00794383
0.170828 0.017035 0.00771167
0.170652 0.0168073 0.00779499
0.170435 0.016068 0.00813258
0.170556 0.0166422 0.00786144
0.170576 0.0167447 0.00781265
0.170574 0.0165924 0.00798547
0.170812 0.0173807 0.00757382
0.170645 0.016687 0.00785539
0.17068 0.0171418 0.00762903
0.164699 0.0167535 0.00745944
0.170709 0.0176365 0.00740008
0.164474 0.0165457 0.00760353
0.17092 0.0170745 0.00770902
0.170491 0.0163761 0.00798534
0.164568 0.0165669 0.00757768
0.164882 0.0178311 0.00728542
0.170369 0.0162501 0.00813275
0.164132 0.0155322 0.00892451
0.170885 0.0172092 0.00763325
0.170861 0.0182673 0.00712545
0.170979 0.0172428 0.00763389
0.170418 0.0164302 0.00794375
0.164344 0.0161271 0.0081493
0.170995 0.0173521 0.00758104
0.164631 0.0170632 0.00747559
0.170851 0.0180009 0.00723914
0.170731 0.0177281 0.00736019
0.17047 0.0162874 0.00802689
0.165104 0.0177611 0.00721395
0.176497 0.0166382 0.00752139
0.170585 0.0164117 0.00798504
0.170528 0.016105 0.00813124
0.170603 0.0172016 0.0076062
0.165243 0.01798 0.0071608
0.170868 0.017535 0.00746331
0.170565 0.0163231 0.00802651
0.170369 0.0159026 0.00820478
0.164239 0.0158295 0.00853708
0.170906 0.0172977 0.00759207
0.164361 0.016187 0.00807112
0.170396 0.0163399 0.00798588
0.165105 0.0184903 0.00704234
0.170668 0.0174671 0.00748054
0.170659 0.0163578 0.00802656
0.17068 0.0164463 0.00798534
0.170452 0.016599 0.00796957
0.165135 0.0183105 0.00708431
0.170538 0.0169282 0.00771159
0.170633 0.0169639 0.00771267
0.170455 0.0165091 0.00801326
0.170914 0.0177157 0.00737929
0.164614 0.0166959 0.00756335
0.170336 0.0160808 0.00812805
0.170607 0.0165002 0.00794382
0.170658 0.0167991 0.00789444
0.170561 0.0170186 0.00777016
0.164153 0.0155917 0.00884702
0.170346 0.0161652 0.0081807
0.170533 0.0165539 0.00790237
0.170468 0.0159866 0.0081805
0.164762 0.0170387 0.00739069
0.170897 0.0169773 0.00775439
0.164415 0.0163666 0.00783699
0.164304 0.0160079 0.00830473
0.165155 0.0184057 0.00706167
0.170815 0.0176782 0.00738247
0.164965 0.0175422 0.007268
0.170538 0.0162277 0.00807026
0.164848 0.0174183 0.00729914
0.17053 0.0169178 0.00781737
0.165031 0.0178271 0.00719929
0.170646 0.0173757 0.00751498
0.165028 0.0185517 0.00702879
0.170582 0.0167345 0.00791602
0.164512 0.0167611 0.00757032
0.170729 0.0169972 0.00771245
0.164914 0.0185037 0.00708647
0.164645 0.016914 0.00742202
0.170836 0.0177667 0.0073411
0.165074 0.018017 0.00715404
0.170767 0.017506 0.00747154
0.164827 0.0173234 0.00732203
0.164851 0.0182129 0.00711053
0.164531 0.0164473 0.00773361
0.16519 0.0181436 0.00712293
0.164783 0.0171336 0.0073678
0.1646 0.0167976 0.00753964
0.170908 0.0173868 0.00754673
0.165221 0.017885 0.0071834
0.170977 0.0180476 0.00722122
0.165 0.0180827 0.00713944
0.170794 0.017593 0.00743032
0.164687 0.0171039 0.00737622
0.164774 0.0174835 0.00728467
0.176873 0.0183006 0.00697764
0.170506 0.0168135 0.00783364
0.170499 0.01668 0.00793415
0.164528 0.0167883 0.00745358
0.1707 0.0172325 0.00759197
0.164785 0.0178011 0.00729389
0.17072 0.0174999 0.00755953
0.170375 0.0162512 0.00802748
0.164947 0.0182431 0.00710232
0.164719 0.0168487 0.0074365
0.170455 0.0161726 0.00808287
0.165178 0.017695 0.00722862
0.165042 0.0182747 0.00709379
0.164261 0.0158891 0.00845994
0.164817 0.0176733 0.00723889
0.164893 0.018406 0.00709096
0.170803 0.0169435 0.00775385
0.164892 0.0182723 0.00718057
0.164624 0.0168189 0.00744495
0.164805 0.0172284 0.00734493
0.164454 0.0164859 0.00768136
0.165096 0.018112 0.00713145
0.164396 0.0163068 0.00791488
0.170912 0.0178287 0.00732118
0.170566 0.0168449 0.0077595
0.176951 0.0186802 0.00687992
0.170635 0.0171389 0.00771804
0.16455 0.0165071 0.00765572
0.17056 0.017017 0.00767017
0.170461 0.0166085 0.00786063
0.170439 0.01652 0.0079019
0.170895 0.0167202 0.00788564
0.164509 0.0166979 0.00749172
0.170827 0.0167798 0.0078423
0.164324 0.0160674 0.0082271
0.164218 0.0157702 0.00861468
0.176931 0.0185836 0.00689641
0.164913 0.017703 0.00723046
0.164944 0.0174473 0.00729089
0.164709 0.0171988 0.00735333
0.164987 0.0176372 0.00724508
0.164873 0.0183082 0.00708937
0.164569 0.0169787 0.0074077
0.16474 0.0169437 0.0074136
0.170657 0.0170517 0.00767075
0.170808 0.0172811 0.00758184
0.164721 0.0176431 0.00724744
0.164656 0.0173584 0.00731612
0.164808 0.018023 0.00715588
0.164731 0.0172936 0.00733046
0.158563 0.0169716 0.00748833
0.164634 0.0172635 0.00733901
0.164752 0.0173886 0.00730756
0.158541 0.0168839 0.00753113
0.158584 0.0170594 0.00744553
0.164612 0.0171685 0.00736191
0.158627 0.017235 0.00735993
0.170703 0.0165351 0.00794419
0.170745 0.017408 0.00750493
0.164591 0.0170736 0.00738481
0.170355 0.016166 0.00807953
0.215741 0.019982 0.00563384
0.158606 0.0171472 0.00740273
0.165116 0.0182093 0.00710832
0.16487 0.0175132 0.00727625
0.164435 0.0164262 0.00775914
0.164923 0.0180181 0.00723934
0.164829 0.018118 0.0071332
0.164882 0.0179581 0.00717019
0.164982 0.0184365 0.00705642
0.170889 0.0176236 0.00742179
0.164699 0.0175482 0.00727034
0.164926 0.0181481 0.00712493
0.15867 0.0174105 0.00727433
0.164839 0.0177682 0.007216
0.164547 0.0168838 0.00743059
0.170483 0.0167045 0.00783391
0.165126 0.017856 0.00719131
0.16506 0.0183753 0.00706992
0.165052 0.017922 0.00717664
0.164957 0.0178928 0.00718468
0.164786 0.0179281 0.0071787
0.165022 0.0181777 0.00711684
0.164935 0.0177979 0.00720757
0.164967 0.0183395 0.00707942
0.164935 0.0183634 0.00717113
0.164764 0.0178332 0.00720159
0.170691 0.0175707 0.007473
0.404182 0.0211142 0.0056569
0.158713 0.0175861 0.00718872
0.165169 0.018046 0.00714612
0.158692 0.0174983 0.00723153
0.158649 0.0173227 0.00731713
0.164796 0.0175784 0.00726178
0.164677 0.0174533 0.00729323
0.164978 0.0179878 0.00716203
0.171004 0.0179641 0.00726912
0.164861 0.0178632 0.00719309
0.165061 0.0175712 0.00725974
0.164904 0.0180531 0.00714752
0.164932 0.0185793 0.0070234
0.171025 0.0174392 0.00754209
0.164742 0.017738 0.00722455
0.16468 0.0166581 0.00748259
0.170624 0.0172849 0.00755317
0.17084 0.0181777 0.00716443
0.165009 0.0177322 0.00722217
0.170923 0.0185365 0.00700837

VERTICES 283 566
1 0
1 1
1 2
1 3
1 4
1 5
1 6
1 7
1 8
1 9
1 10
1 11
1 12
1 13
1 14
1 15
1 16
1 17
1 18
1 19
1 20
1 21
1 22
1 23
1 24
1 25
1 26
1 27
1 28
1 29
1 30
1 31
1 32
1 33
1 34
1 35
1 36
1 37
1 38
1 39
1 40
1 41
1 42
1 43
1 44
1 45
1 46
1 47
1 48
1 49
1 50
1 51
1 52
1 53
1 54
1 55
1 56
1 57
1 58
1 59
1 60
1 61
1 62
1 63
1 64
1 65
1 66
1 67
1 68
1 69
1 70
1 71
1 72
1 73
1 74
1 75
1 76
1 77
1 78
1 79
1 80
1 81
1 82
1 83
1 84
1 85
1 86
1 87
1 88
1 89
1 90
1 91
1 92
1 93
1 94
1 95
1 96
1 97
1 98
1 99
1 100
1 101
1 102
1 103
1 104
1 105
1 106
1 107
1 108
1 109
1 110
1 111
1 112
1 113
1 114
1 115
1 116
1 117
1 118
1 119
1 120
1 121
1 122
1 123
1 124
1 125
1 126
1 127
1 128
1 129
1 130
1 131
1 132
1 133
1 134
1 135
1 136
1 137
1 138
1 139
1 140
1 141
1 142
1 143
1 144
1 145
1 146
1 147
1 148
1 149
1 150
1 151
1 152
1 153
1 154
1 155
1 156
1 157
1 158
1 159
1 160
1 161
1 162
1 163
1 164
1 165
1 166
1 167
1 168
1 169
1 170
1 171
1 172
1 173
1 174
1 175
1 176
1 177
1 178
1 179
1 180
1 181
1 182
1 183
1 184
1 185
1 186
1 187
1 188
1 189
1 190
1 191
1 192
1 193
1 194
1 195
1 196
1 197
1 198
1 199
1 200
1 201
1 202
1 203
1 204
1 205
1 206
1 207
1 208
1 209
1 210
1 211
1 212
1 213
1 214
1 215
1 216
1 217
1 218
1 219
1 220
1 221
1 222
1 223
1 224
1 225
1 226
1 227
1 228
1 229
1 230
1 231
1 232
1 233
1 234
1 235
1 236
1 237
1 238
1 239
1 240
1 241
1 242
1 243
1 244
1 245
1 246
1 247
1 248
1 249
1 250
1 251
1 252
1 253
1 254
1 255
1 256
1 257
1 258
1 259
1 260
1 261
1 262
1 263
1 264
1 265
1 266
1 267
1 268
1 269
1 270
1 271
1 272
1 273
1 274
1 275
1 276
1 277
1 278
1 279
1 280
1 281
1 282

POINT_DATA 283
SCALARS id int 1
LOOKUP_TABLE default
1
2
3
4
5
6
7
8
9
10
11
12
13
14
15
16
18
19
20
21
22
24
25
26
27
29
30
31
32
33
34
35
36
37
38
40
41
42
43
44
45
46
47
48
49
50
52
55
56
57
58
59
60
61
62
63
64
65
66
67
68
69
70
71
72
73
74
75
76
77
78
79
80
81
82
83
84
85
86
87
88
89
90
91
92
93
94
95
96
98
99
100
101
102
103
104
105
106
107
108
109
110
111
112
113
114
115
116
117
118
119
120
121
122
123
124
125
126
127
128
129
130
131
132
133
134
135
136
137
138
139
140
141
142
144
145
146
147
148
149
150
152
153
154
155
156
157
158
159
160
161
162
164
165
166
167
168
169
170
171
172
173
174
175
176
177
178
179
180
181
182
183
184
185
186
187
188
189
190
191
192
193
194
195
196
197
198
199
200
201
202
203
204
205
206
207
208
209
210
211
213
214
215
217
218
219
220
221
222
223
224
225
226
227
228
229
230
231
232
233
234
235
236
237
238
239
241
242
243
244
245
246
247
248
249
250
251
252
253
254
255
256
257
258
259
260
261
262
263
264
265
267
268
269
270
271
272
273
274
275
276
277
278
279
280
281
282
283
284
285
286
287
288
289
290
292
293
294
295
296
297
298
300

SCALARS type int 1
LOOKUP_TABLE default
1
1
1
1
1
1
1
1
1
1
1
1
1
1
1
1
1
1
1
1
1
1
1
1
1
1
1
1
1
1
1
1
1
1
1
1
1
1
1
1
1
1
1
1
1
1
1
1
1
1
1
1
1
1
1
1
1
1
1
1
1
1
1
1
1
1
1
1
1
1
1
1
1
1
1
1
1
1
1
1
1
1
1
1
1
1
1
1
1
1
1
1
1
1
1
1
1
1
1
1
1
1
1
1
1
1
1
1
1
1
1
1
1
1
1
1
1
1
1
1
1
1
1
1
1
1
1
1
1
1
1
1
1
1
1
1
1
1
1
1
1
1
1
1
1
1
1
1
1
1
1
1
1
1
1
1
1
1
1
1
1
1
1
1
1
1
1
1
1
1
1
1
1
1
1
1
1
1
1
1
1
1
1
1
1
1
1
1
1
1
1
1
1
1
1
1
1
1
1
1
1
1
1
1
1
1
1
1
1
1
1
1
1
1
1
1
1
1
1
1
1
1
1
1
1
1
1
1
1
1
1
1
1
1
1
1
1
1
1
1
1
1
1
1
1
1
1
1
1
1
1
1
1
1
1
1
1
1
1
1
1
1
1
1
1
1
1
1
1
1
1
1
1
1
1
1
1
1
1
1
1
1
1

SCALARS radius float 1
LOOKUP_TABLE default
5e-05
5e-05
5e-05
5e-05
5e-05
5e-05
5e-05
5e-05
5e-05
5e-05
5e-05
5e-05
5e-05
5e-05
5e-05
5e-05
5e-05
5e-05
5e-05
5e-05
5e-05
5e-05
5e-05
5e-05
5e-05
5e-05
5e-05
5e-05
5e-05
5e-05
5e-05
5e-05
5e-05
5e-05
5e-05
5e-05
5e-05
5e-05
5e-05
5e-05
5e-05
5e-05
5e-05
5e-05
5e-05
5e-05
5e-05
5e-05
5e-05
5e-05
5e-05
5e-05
5e-05
5e-05
5e-05
5e-05
5e-05
5e-05
5e-05
5e-05
5e-05
5e-05
5e-05
5e-05
5e-05
5e-05
5e-05
5e-05
5e-05
5e-05
5e-05
5e-05
5e-05
5e-05
5e-05
5e-05
5e-05
5e-05
5e-05
5e-05
5e-05
5e-05
5e-05
5e-05
5e-05
5e-05
5e-05
5e-05
5e-05
5e-05
5e-05
5e-05
5e-05
5e-05
5e-05
5e-05
5e-05
5e-05
5e-05
5e-05
5e-05
5e-05
5e-05
5e-05
5e-05
5e-05
5e-05
5e-05
5e-05
5e-05
5e-05
5e-05
5e-05
5e-05
5e-05
5e-05
5e-05
5e-05
5e-05
5e-05
5e-05
5e-05
5e-05
5e-05
5e-05
5e-05
5e-05
5e-05
5e-05
5e-05
5e-05
5e-05
5e-05
5e-05
5e-05
5e-05
5e-05
5e-05
5e-05
5e-05
5e-05
5e-05
5e-05
5e-05
5e-05
5e-05
5e-05
5e-05
5e-05
5e-05
5e-05
5e-05
5e-05
5e-05
5e-05
5e-05
5e-05
5e-05
5e-05
5e-05
5e-05
5e-05
5e-05
5e-05
5e-05
5e-05
5e-05
5e-05
5e-05
5e-05
5e-05
5e-05
5e-05
5e-05
5e-05
5e-05
5e-05
5e-05
5e-05
5e-05
5e-05
5e-05
5e-05
5e-05
5e-05
5e-05
5e-05
5e-05
5e-05
5e-05
5e-05
5e-05
5e-05
5e-05
5e-05
5e-05
5e-05
5e-05
5e-05
5e-05
5e-05
5e-05
5e-05
5e-05
5e-05
5e-05
5e-05
5e-05
5e-05
5e-05
5e-05
5e-05
5e-05
5e-05
5e-05
5e-05
5e-05
5e-05
5e-05
5e-05
5e-05
5e-05
5e-05
5e-05
5e-05
5e-05
5e-05
5e-05
5e-05
5e-05
5e-05
5e-05
5e-05
5e-05
5e-05
5e-05
5e-05
5e-05
5e-05
5e-05
5e-05
5e-05
5e-05
5e-05
5e-05
5e-05
5e-05
5e-05
5e-05
5e-05
5e-05
5e-05
5e-05
5e-05
5e-05
5e-05
5e-05
5e-05
5e-05
5e-05
5e-05
5e-05
5e-05
5e-05
5e-05
5e-05
5e-05
5e-05
5e-05
5e-05
5e-05
5e-05
5e-05
5e-05
5e-05
5e-05
5e-05
5e-05
5e-05
5e-05
5e-05
5e-05
5e-05

SCALARS mass float 1
LOOKUP_TABLE default
1.46608e-10
1.46608e-10
1.46608e-10
1.46608e-10
1.46608e-10
1.46608e-10
1.46608e-10
1.46608e-10
1.46608e-10
1.46608e-10
1.46608e-10
1.46608e-10
1.46608e-10
1.46608e-10
1.46608e-10
1.46608e-10
1.46608e-10
1.46608e-10
1.46608e-10
1.46608e-10
1.46608e-10
1.46608e-10
1.46608e-10
1.46608e-10
1.46608e-10
1.46608e-10
1.46608e-10
1.46608e-10
1.46608e-10
1.46608e-10
1.46608e-10
1.46608e-10
1.46608e-10
1.46608e-10
1.46608e-10
1.46608e-10
1.46608e-10
1.46608e-10
1.46608e-10
1.46608e-10
1.46608e-10
1.46608e-10
1.46608e-10
1.46608e-10
1.46608e-10
1.46608e-10
1.46608e-10
1.46608e-10
1.46608e-10
1.46608e-10
1.46608e-10
1.46608e-10
1.46608e-10
1.46608e-10
1.46608e-10
1.46608e-10
1.46608e-10
1.46608e-10
1.46608e-10
1.46608e-10
1.46608e-10
1.46608e-10
1.46608e-10
1.46608e-10
1.46608e-10
1.46608e-10
1.46608e-10
1.46608e-10
1.46608e-10
1.46608e-10
1.46608e-10
1.46608e-10
1.46608e-10
1.46608e-10
1.46608e-10
1.46608e-10
1.46608e-10
1.46608e-10
1.46608e-10
1.46608e-10
1.46608e-10
1.46608e-10
1.46608e-10
1.46608e-10
1.46608e-10
1.46608e-10
1.46608e-10
1.46608e-10
1.46608e-10
1.46608e-10
1.46608e-10
1.46608e-10
1.46608e-10
1.46608e-10
1.46608e-10
1.46608e-10
1.46608e-10
1.46608e-10
1.46608e-10
1.46608e-10
1.46608e-10
1.46608e-10
1.46608e-10
1.46608e-10
1.46608e-10
1.46608e-10
1.46608e-10
1.46608e-10
1.46608e-10
1.46608e-10
1.46608e-10
1.46608e-10
1.46608e-10
1.46608e-10
1.46608e-10
1.46608e-10
1.46608e-10
1.46608e-10
1.46608e-10
1.46608e-10
1.46608e-10
1.46608e-10
1.46608e-10
1.46608e-10
1.46608e-10
1.46608e-10
1.46608e-10
1.46608e-10
1.46608e-10
1.46608e-10
1.46608e-10
1.46608e-10
1.46608e-10
1.46608e-10
1.46608e-10
1.46608e-10
1.46608e-10
1.46608e-10
1.46608e-10
1.46608e-10
1.46608e-10
1.46608e-10
1.46608e-10
1.46608e-10
1.46608e-10
1.46608e-10
1.46608e-10
1.46608e-10
1.46608e-10
1.46608e-10
1.46608e-10
1.46608e-10
1.46608e-10
1.46608e-10
1.46608e-10
1.46608e-10
1.46608e-10
1.46608e-10
1.46608e-10
1.46608e-10
1.46608e-10
1.46608e-10
1.46608e-10
1.46608e-10
1.46608e-10
1.46608e-10
1.46608e-10
1.46608e-10
1.46608e-10
1.46608e-10
1.46608e-10
1.46608e-10
1.46608e-10
1.46608e-10
1.46608e-10
1.46608e-10
1.46608e-10
1.46608e-10
1.46608e-10
1.46608e-10
1.46608e-10
1.46608e-10
1.46608e-10
1.46608e-10
1.46608e-10
1.46608e-10
1.46608e-10
1.46608e-10
1.46608e-10
1.46608e-10
1.46608e-10
1.46608e-10
1.46608e-10
1.46608e-10
1.46608e-10
1.46608e-10
1.46608e-10
1.46608e-10
1.46608e-10
1.46608e-10
1.46608e-10
1.46608e-10
1.46608e-10
1.46608e-10
1.46608e-10
1.46608e-10
1.46608e-10
1.46608e-10
1.46608e-10
1.46608e-10
1.46608e-10
1.46608e-10
1.46608e-10
1.46608e-10
1.46608e-10
1.46608e-10
1.46608e-10
1.46608e-10
1.46608e-10
1.46608e-10
1.46608e-10
1.46608e-10
1.46608e-10
1.46608e-10
1.46608e-10
1.46608e-10
1.46608e-10
1.46608e-10
1.46608e-10
1.46608e-10
1.46608e-10
1.46608e-10
1.46608e-10
1.46608e-10
1.46608e-10
1.46608e-10
1.46608e-10
1.46608e-10
1.46608e-10
1.46608e-10
1.46608e-10
1.46608e-10
1.46608e-10
1.46608e-10
1.46608e-10
1.46608e-10
1.46608e-10
1.46608e-10
1.46608e-10
1.46608e-10
1.46608e-10
1.46608e-10
1.46608e-10
1.46608e-10
1.46608e-10
1.46608e-10
1.46608e-10
1.46608e-10
1.46608e-10
1.46608e-10
1.46608e-10
1.46608e-10
1.46608e-10
1.46608e-10
1.46608e-10
1.46608e-10
1.46608e-10
1.46608e-10
1.46608e-10
1.46608e-10
1.46608e-10
1.46608e-10
1.46608e-10
1.46608e-10
1.46608e-10
1.46608e-10
1.46608e-10
1.46608e-10
1.46608e-10
1.46608e-10
1.46608e-10
1.46608e-10
1.46608e-10

VECTORS velocity float
0.00433008 0.000110246 0.000483206
0.0044844 -0.000139354 0.000924024
0.00493718 0.000738353 -0.000520302
0.00492502 0.000736806 -0.000518795
0.00431397 -0.000545862 0.00044651
0.00437971 -0.000551201 6.58834e-05
0.00435094 -1.19335e-05 0.000834088
0.00453095 -0.000573547 0.000470236
0.00472704 -0.000624118 7.89801e-05
0.00442347 1.76479e-05 0.000804681
0.00439293 -0.000102303 0.000875563
0.00472244 -0.000623253 7.89408e-05
0.00448036 -0.000219808 0.000959433
0.0046622 0.000155686 -9.84683e-05
0.00431277 -6.85811e-05 0.000852342
0.00450819 0.000121257 -5.67843e-05
0.00442673 -0.000562619 6.80615e-05
0.00488403 0.00073378 -0.000515646
0.00427709 -3.63567e-05 0.000827303
0.00433577 -0.000550554 0.000451712
0.00468032 0.000788486 -0.000530924
0.00472153 -0.000622183 7.84704e-05
0.00443564 -0.000189215 0.000935
0.00471579 -0.000623702 7.91943e-05
0.00442624 0.000134461 -7.91389e-05
0.00435837 0.000549201 -0.000415622
0.00438022 -0.000334722 0.000473131
0.00494415 0.000748817 -0.000525051
0.00445481 -0.000176558 0.000935893
0.00435688 -0.0005474 6.47398e-05
0.00443298 -0.0010168 0.000247336
0.00444503 -0.000188875 0.000938656
0.00437169 -0.000548952 6.51766e-05
0.00437369 -4.57517e-06 0.000831079
0.00453495 -0.000134571 0.000925367
0.00429196 -1.21352e-05 0.000806424
0.00461007 -0.000103128 0.000919843
0.00414845 -3.29094e-05 0.000642979
0.00491365 0.00073761 -0.000518839
0.00402986 -7.42117e-05 0.000801204
0.00453164 -0.000582899 7.13072e-05
0.00471598 -0.000623101 7.90886e-05
0.00442849 -0.00059448 0.000449552
0.00440236 -0.000144706 0.000908584
0.00471485 -0.000622921 7.89265e-05
0.00433785 0.000129498 0.000756068
0.00477105 6.00136e-05 -6.91515e-05
0.00479828 5.99125e-05 -8.21722e-05
0.00445702 -0.000129253 0.00091497
0.00471312 -0.00062155 7.86225e-05
0.00445535 0.000124201 -8.36435e-05
0.00472255 -0.000623119 7.87917e-05
0.00455267 -0.000596842 8.58203e-05
0.00439514 -0.000562707 0.000459879
0.00422592 -4.24694e-05 0.000839865
0.00330218 0.000783961 0.00022352
0.00471905 -0.000622165 7.85859e-05
0.00424529 -6.81315e-06 0.000729697
0.00479001 6.93943e-05 -8.42205e-05
0.0045855 -9.13956e-05 0.000908924
0.00476349 4.07889e-05 -8.1598e-05
0.00429955 1.37906e-05 0.000807431
0.00436802 -0.000540143 6.27233e-05
0.00476663 5.68848e-05 -8.11719e-05
0.00472491 -0.000622978 7.87693e-05
0.00438907 -0.000463876 0.00051387
0.00444692 -0.000162304 0.000919492
0.00438852 -0.000157044 0.000713287
0.00439176 -0.000554656 6.6351e-05
0.00454575 -6.1325e-05 0.000892333
0.00461281 0.000163427 -0.00010977
0.00515518 7.07678e-05 2.82129e-05
0.00444134 -0.000113646 0.000898539
0.00473355 3.60464e-05 -6.73411e-05
0.00450098 9.2574e-05 -1.81972e-05
0.00459967 0.000162557 -0.000109808
0.00472874 -0.000626615 7.96444e-05
0.00450701 0.000121126 -5.92369e-05
0.00491127 0.000729194 -0.000512788
0.00472661 -0.000625022 7.92677e-05
0.00432483 -0.000133035 0.000880846
0.00446646 -5.07389e-05 0.00087262
0.004444 -0.000120478 0.000899905
0.00418622 6.18531e-05 0.000760357
0.00439643 -7.14939e-05 0.000868067
0.00437631 -0.000100652 0.000875163
0.00437636 -0.00015261 0.000897752
0.0044715 -0.000126891 0.000920402
0.00437651 -0.000109871 0.000885538
0.00442965 -0.000137824 0.000909319
0.00452017 7.04947e-05 -7.7196e-05
0.00448605 -0.000658556 9.40939e-05
0.00448344 0.000124528 -5.95559e-05
0.00451126 0.000313151 0.000694996
0.00434261 -9.78892e-05 0.000871146
0.00450551 8.26746e-05 -6.289e-06
0.00477792 4.68138e-05 -7.95676e-05
0.00418067 -3.56981e-05 0.000773677
0.00464333 0.000158312 -0.000101968
0.00402825 -0.00011818 0.000829271
0.00491009 0.000733345 -0.000516654
0.00399884 -0.00041 0.000967392
0.00432965 -0.000148393 0.000888434
0.00454945 0.000125297 -6.15545e-05
0.00444883 -0.000127402 0.00090881
0.00482988 7.99773e-05 -6.93278e-05
0.00420295 0.000519706 -0.000396505
0.00451039 -0.000631927 6.27396e-05
0.00432254 -1.949e-06 0.000818474
0.00478212 6.81589e-05 -8.29322e-05
0.00436694 -0.000331832 0.000470558
0.00429873 -0.000147097 0.000887951
0.00411462 0.000215953 0.000669117
0.00444272 -0.000152822 0.000922512
0.00476766 7.42276e-05 -7.24017e-05
0.00456557 -4.52011e-05 0.00088559
0.0042504 -0.000143587 0.000878659
0.00425528 2.54595e-05 0.000784651
0.00476869 0.000126491 -5.68653e-05
0.00425805 -0.000134106 0.000875718
0.00446181 0.000131217 -7.42422e-05
0.00434869 1.9423e-07 0.000822979
0.00454418 0.000259769 -0.000113423
0.0045075 -0.000122483 0.000901774
0.0042551 -0.000166112 0.00089098
0.00435592 -0.000184184 0.000919154
0.00426501 -0.000624565 -0.000779011
0.00474226 0.000137228 -8.68444e-05
0.00441651 -0.000172004 0.000926052
0.00449232 -0.000201637 0.000873137
0.00389691 -2.57906e-05 0.000459896
0.0044157 -0.000382417 0.0010643
0.00864978 -0.000993725 -0.000890012
0.0041791 -2.39094e-05 0.000728857
0.0043778 -0.000148329 0.000905349
0.0043872 -0.00013777 0.000887395
0.0045275 -0.000245218 0.00088174
0.00462824 0.000161006 -0.000106246
0.00420372 -4.00238e-05 0.000753582
0.00435559 -9.07684e-05 0.000870792
0.00426167 9.16226e-05 0.000763966
0.00482312 2.86486e-05 -7.49635e-05
0.00443182 -8.31519e-05 0.000881156
0.00436718 0.000142285 -8.19639e-05
0.00501798 7.92813e-05 1.08682e-05
0.00443811 0.000198606 -9.78547e-05
0.00454576 -0.00058679 0.000171393
0.00480395 6.55886e-05 -8.36433e-05
0.00430001 -2.61545e-06 0.000816053
0.00481185 5.93086e-05 -8.21525e-05
0.00516732 0.00284271 -0.00237339
0.00477795 6.11206e-05 -7.95337e-05
0.00449997 -0.000119664 0.000923806
0.00454991 0.000270004 -0.00011579
0.00430523 -1.63159e-05 0.000748786
0.00475035 7.50374e-05 1.03879e-05
0.00448586 -0.000131884 0.000916268
0.00470005 8.60275e-05 -7.83193e-05
0.00466288 7.82085e-05 -8.45237e-05
0.00460071 -0.000557089 0.000255972
0.00476816 5.89805e-05 -6.84654e-05
0.00450691 -0.000120805 0.000797629
0.00481284 5.75216e-05 -8.19173e-05
0.00476 5.68724e-05 -6.74598e-05
0.00438559 0.000101533 -3.32554e-05
0.00475481 0.000102202 -7.8807e-05
0.00483154 4.84499e-05 -7.97622e-05
0.00472945 0.000100516 -3.69209e-05
0.00446346 -0.000117703 0.000902413
0.00477115 5.7508e-05 -6.84086e-05
0.00477759 0.00104638 0.000373033
0.00476502 5.72791e-05 -6.7945e-05
0.00453576 -0.000239083 0.000589291
0.00483388 4.80277e-05 -7.98438e-05
0.00480969 5.74876e-05 -8.14454e-05
0.00436137 -0.000545392 6.45638e-05
0.00436172 -0.000105983 0.000857808
0.00402349 9.41981e-05 0.000499402
0.00447036 0.000107422 -8.90104e-05
0.00404023 -0.000135579 0.000709341
0.00478752 5.20241e-05 -7.76653e-05
0.0045033 0.000123457 0.000803559
0.00417936 -1.54259e-05 0.000799633
0.00475913 6.44468e-05 -7.05193e-05
0.00464333 5.28227e-05 -7.88265e-05
0.0041713 0.000155333 0.000711973
0.00478513 7.26071e-05 -8.49609e-05
0.00475526 0.000103958 -7.94288e-05
0.00503431 9.00821e-05 2.64661e-06
0.00479466 5.45552e-05 -8.04886e-05
0.00472192 6.75869e-05 -7.45975e-05
0.00455016 -9.50645e-05 0.000913623
0.004765 6.43021e-05 -6.93735e-05
0.00456691 9.85394e-05 -8.47776e-05
0.00482088 5.47481e-05 -8.11342e-05
0.00442457 0.000130004 -7.06463e-05
0.00476286 6.47477e-05 -7.01907e-05
0.00437491 0.000142716 -8.50035e-05
0.00315131 0.00109113 3.3002e-05
0.00443163 -0.000155849 0.000919938
0.00449493 -0.000547984 0.000227318
0.00441882 -0.000134338 0.000906024
0.00444939 9.85286e-05 -2.79481e-05
0.00442881 -0.000191135 0.000912947
0.00437756 -9.80583e-05 0.000882587
0.00434313 -0.000130609 0.000884467
0.00439752 -0.00021553 0.000945021
0.00448706 9.70127e-05 -0.000100668
0.00444859 -0.000151077 0.00091772
0.00476253 0.000104699 -2.86983e-05
0.00462189 0.000151003 -9.46934e-05
0.00446195 -0.000568835 6.86548e-05
0.00478858 5.84741e-05 -8.16767e-05
0.00481185 6.52229e-05 -8.33289e-05
0.00483672 5.33115e-05 -8.10936e-05
0.00478433 5.68357e-05 -8.11512e-05
0.00475465 5.89891e-05 -7.09699e-05
0.00484174 3.58791e-05 -7.68947e-05
0.0047575 3.76647e-05 -7.65584e-05
0.00447063 -0.000138178 0.000915158
0.00448748 -0.000128792 0.000924219
0.0047991 5.12697e-05 -7.99399e-05
0.00481893 5.20251e-05 -8.0489e-05
0.00477194 4.96721e-05 -7.35607e-05
0.00482319 5.75863e-05 -8.18691e-05
0.00502947 0.00102657 -0.000734241
0.00482591 4.78595e-05 -7.97964e-05
0.00481536 5.84109e-05 -8.18113e-05
0.00501572 0.00102957 -0.000734999
0.00504319 0.00102357 -0.000733481
0.00483758 6.25938e-05 -8.361e-05
0.00507068 0.00101757 -0.000731975
0.00441551 -0.000215615 0.000948629
0.00449347 -0.000117519 0.00090701
0.0048327 3.15298e-05 -7.57633e-05
0.00418611 -7.60606e-05 0.000665569
6.80741e-15 2.29891e-14 -7.03244e-14
0.00505693 0.00102057 -0.000732726
0.00475636 0.000102831 -7.89835e-05
0.00480697 5.95362e-05 -8.21188e-05
0.00438322 0.000135929 -7.87249e-05
0.00477135 6.03447e-05 -6.69851e-05
0.00476724 5.43607e-05 -6.69807e-05
0.00477459 5.26231e-05 -7.92063e-05
0.00471001 9.7557e-05 -7.78995e-05
0.00454806 -6.42637e-05 0.000894881
0.00480695 5.75309e-05 -8.15879e-05
0.0047631 5.75097e-05 -6.8372e-05
0.00509815 0.00101156 -0.000730465
0.00478599 5.34129e-05 -8.0061e-05
0.00484742 3.53585e-05 -7.66763e-05
0.00442296 1.87097e-06 0.000803622
0.00477225 6.23101e-05 -7.17346e-05
0.00472546 0.00011758 -8.23695e-05
0.00477058 6.0334e-05 -6.95622e-05
0.00477518 5.5405e-05 -8.04912e-05
0.00477729 4.58852e-05 -7.85441e-05
0.00476064 6.50166e-05 -7.03154e-05
0.00478089 5.5673e-05 -8.07024e-05
0.00474456 9.57626e-05 -7.77162e-05
0.00474627 8.70106e-05 -7.61145e-05
0.00478237 4.47428e-05 -7.79958e-05
0.00455241 -1.87184e-05 0.000460915
-1.29282e-14 6.08909e-14 -1.90217e-13
0.00512562 0.00100556 -0.000728949
0.00476412 6.85313e-05 -7.09561e-05
0.00511189 0.00100856 -0.000729711
0.00508441 0.00101456 -0.000731235
0.00480291 5.58925e-05 -8.1269e-05
0.00481305 5.52207e-05 -8.11315e-05
0.00476869 5.84288e-05 -6.88695e-05
0.0040837 0.000813821 0.00035759
0.00477723 4.87577e-05 -7.90233e-05
0.00480136 6.92158e-05 -8.4152e-05
0.00476771 5.59423e-05 -6.77743e-05
0.00450549 0.000129229 -8.18844e-05
0.00447678 -0.000132318 0.000916677
0.00479295 5.27538e-05 -8.03311e-05
0.00436986 9.8193e-05 -5.4158e-05
0.00453903 -0.000193778 -0.000107138
0.00489875 0.000729373 -0.000513827
0.00478483 6.20519e-05 -8.24862e-05
0.00463495 0.000796042 -0.000532449

VECTORS force float
-1.00383e-10 2.46547e-11 2.99099e-10
2.5927e-10 -1.78365e-11 2.3498e-11
8.46633e-13 5.69766e-12 2.50336e-12
-1.16182e-11 -2.87439e-13 -1.18795e-12
6.94226e-11 2.87001e-11 -9.59797e-11
3.36601e-12 7.53037e-12 -1.55268e-12
-1.32811e-11 -1.20809e-10 -4.48495e-11
-8.7477e-11 8.04387e-11 -1.53244e-10
1.29921e-11 -5.29336e-13 -3.17869e-13
-2.0738e-10 -9.15505e-11 -1.64908e-10
-1.59787e-10 -3.53345e-10 9.55536e-11
4.87327e-12 -4.10703e-11 1.1267e-11
-5.94125e-10 4.28915e-10 -3.18e-10
6.64048e-11 1.48664e-10 -1.95122e-10
4.35624e-11 -3.23666e-10 1.76043e-10
1.09106e-11 3.36909e-11 -3.64321e-11
-3.17009e-12 -8.8234e-12 1.07122e-14
-3.41212e-11 1.74656e-12 1.92223e-12
-4.76499e-10 4.2929e-10 -3.63034e-10
9.71601e-11 -6.6165e-12 -4.63074e-11
3.73195e-12 -7.32668e-11 4.01298e-11
-8.78193e-12 3.17406e-12 -1.05249e-13
2.4557e-10 6.88258e-11 2.23546e-11
2.90332e-11 2.22529e-12 -2.68325e-12
2.22473e-10 -3.44887e-11 -3.64708e-11
4.96683e-11 5.60379e-11 -2.47959e-11
2.37193e-12 5.60623e-12 -5.73239e-12
-3.19282e-11 -3.90224e-11 1.74657e-11
1.8552e-10 8.26847e-11 -1.45186e-11
-1.10466e-12 8.59021e-12 -2.34989e-12
2.50598e-11 -4.22863e-11 2.05391e-11
9.7932e-11 -1.98507e-10 9.18602e-11
6.48342e-11 7.12748e-12 -3.96785e-12
1.97707e-11 -2.22566e-11 -2.50441e-11
-1.57528e-10 1.24159e-10 3.17973e-12
-5.84699e-12 -1.08492e-10 -2.13657e-10
-9.26515e-10 6.50893e-10 -3.90386e-10
1.35098e-10 2.23943e-10 3.47044e-10
5.01244e-11 4.64858e-11 -1.79483e-11
-1.81963e-10 -1.73765e-10 2.94175e-11
-4.06797e-12 1.29662e-11 -2.83016e-12
-7.62258e-13 -9.44422e-12 4.27895e-12
3.58562e-11 5.80001e-11 -7.85264e-11
1.76604e-10 4.06538e-10 -1.95807e-10
-6.11594e-13 1.33186e-11 -3.56386e-12
8.46696e-11 -1.09497e-10 4.21012e-11
4.37256e-11 -2.01302e-11 4.26524e-12
-6.03064e-11 -1.89832e-11 1.66961e-11
-1.93658e-10 3.3124e-11 -3.9736e-11
5.16182e-12 1.20607e-11 -4.43125e-12
1.2906e-10 -4.36011e-12 -2.53885e-11
1.56105e-11 -1.15066e-11 6.45759e-13
-2.81284e-10 -2.74462e-10 -4.52058e-10
4.54095e-11 6.9388e-11 -2.09223e-11
3.79e-10 -4.47375e-10 2.92263e-10
-1.75377e-10 -5.57961e-11 1.92514e-11
-2.45685e-11 -2.3823e-13 2.9764e-12
-1.75358e-12 -1.05117e-10 1.15602e-10
2.57716e-11 3.95965e-11 -3.78901e-12
-7.89355e-10 5.9127e-10 -2.78817e-10
2.42925e-11 -2.12038e-11 -5.46169e-11
-1.08897e-10 1.83636e-11 -2.6056e-11
2.38302e-11 3.50176e-11 -8.29346e-12
-5.47192e-13 3.74129e-11 -1.21508e-11
-2.87571e-11 -2.24432e-11 7.79607e-12
5.79523e-12 -6.92712e-11 -1.90322e-10
8.36716e-11 6.21703e-11 -2.60336e-11
1.86156e-11 -7.96701e-11 -1.63685e-10
-2.07925e-12 1.98057e-11 -3.1821e-12
-2.9602e-10 -1.47414e-10 2.33518e-11
-1.33353e-10 3.70271e-11 -5.82131e-11
4.72453e-11 1.94736e-11 -1.16853e-11
-5.40457e-11 -1.07818e-10 -1.10465e-11
-8.35407e-12 -3.58777e-11 1.83046e-12
2.52045e-11 -8.88072e-12 -2.85402e-12
-8.85989e-11 -1.4691e-13 1.72334e-11
2.33307e-11 -4.0927e-12 1.18325e-12
5.17512e-11 -1.02519e-11 1.86387e-11
8.05869e-11 4.2071e-11 -1.30169e-11
-2.02153e-11 -2.22731e-11 6.69327e-12
4.34652e-10 -6.54905e-11 1.24301e-10
-5.6345e-10 6.01923e-12 -1.14675e-10
1.96731e-10 -1.26747e-10 9.79064e-11
-1.12714e-11 -5.65115e-11 4.02343e-11
3.11017e-11 5.72473e-10 -1.77779e-10
-2.28679e-10 -1.52167e-10 4.09073e-11
9.15186e-11 2.47839e-10 -3.68586e-10
4.40658e-12 2.38741e-10 -1.35806e-10
6.77599e-11 6.81774e-10 -2.55407e-10
-1.27269e-10 -1.79864e-10 7.06363e-12
1.12102e-10 -1.08509e-11 7.94555e-12
2.04267e-10 6.1455e-10 -3.23769e-10
-2.92566e-11 5.77727e-11 -7.85143e-11
4.78091e-10 -1.94828e-11 1.25582e-10
-6.0422e-10 -8.96664e-10 3.19291e-10
2.01495e-11 2.8686e-11 -7.63983e-11
5.87149e-11 -2.278e-11 2.30284e-11
4.0197e-10 -3.5954e-10 3.91357e-10
3.30165e-11 9.21359e-11 -1.20758e-10
9.24982e-11 1.4064e-10 -2.08554e-11
-1.08051e-11 -4.94474e-12 5.788e-12
-3.56069e-10 9.2383e-11 -1.16985e-10
1.05926e-10 1.31099e-11 3.61953e-11
-8.54993e-11 4.95418e-12 -2.26375e-11
5.14663e-11 -3.67281e-11 -4.34898e-11
2.15025e-11 5.74016e-11 -6.75967e-13
-1.0929e-10 -1.34908e-11 1.12164e-11
1.24752e-10 8.7717e-11 -1.03279e-10
3.23484e-11 4.31532e-11 -2.56333e-11
3.35779e-11 -2.01211e-11 9.85874e-12
-1.07567e-12 3.73773e-12 -3.35563e-12
5.83403e-10 -1.64382e-11 1.41649e-10
8.29281e-11 -2.14191e-10 1.29226e-10
-2.00132e-10 -4.83497e-10 1.05608e-10
3.05211e-11 -6.77501e-11 1.5921e-11
-3.17184e-10 -4.01243e-11 -3.14663e-11
2.71862e-10 3.63968e-11 2.35028e-11
7.04424e-11 -1.49461e-10 6.12101e-12
2.49985e-11 -1.66709e-11 1.33715e-11
-2.90221e-10 2.05867e-10 -1.43547e-10
5.75702e-11 -9.44045e-12 -3.90281e-11
-3.48482e-11 -8.94694e-11 5.03499e-11
-9.86716e-11 -5.93369e-11 1.50508e-11
-2.84259e-11 1.31786e-10 1.4893e-11
-2.37207e-10 -9.65958e-10 4.53053e-10
3.32345e-10 -6.81481e-10 3.88184e-10
2.13144e-10 3.3559e-10 1.02659e-09
-2.54803e-11 -1.14504e-11 1.36377e-12
8.22498e-11 5.47428e-11 1.61377e-11
-2.79923e-10 2.89136e-10 -1.29555e-09
5.51769e-10 -3.4677e-10 4.07035e-10
-1.18034e-10 1.39095e-10 1.90163e-10
1.75501e-10 -1.04157e-11 -1.02121e-10
-4.57519e-11 -1.22415e-10 1.794e-11
1.86482e-10 -1.11635e-10 1.35205e-10
-2.1439e-12 -1.61084e-10 8.05161e-11
-2.13673e-10 1.47057e-10 -9.58073e-10
-1.58677e-11 5.14259e-11 -6.38134e-11
1.06779e-10 -2.22055e-10 3.36984e-10
2.41374e-10 6.10268e-10 -2.18112e-10
5.53263e-11 -8.71549e-12 -2.50841e-11
8.45941e-11 -1.19922e-11 8.76421e-12
-4.78467e-10 4.79263e-10 -3.32372e-10
-1.75349e-11 2.53486e-11 -4.59011e-11
9.08907e-11 -1.34371e-11 2.46624e-11
8.38983e-11 -2.26223e-12 -3.39837e-13
1.05759e-10 7.86119e-11 6.98186e-11
-6.01202e-11 -6.25823e-12 -6.93498e-12
-1.45193e-11 4.02159e-11 -2.56354e-11
-7.28472e-11 1.09346e-11 -9.32699e-12
2.79168e-11 1.00217e-10 -4.77669e-10
3.80747e-11 1.00878e-12 7.64626e-12
1.97397e-11 -8.27565e-11 -7.69916e-11
2.1615e-11 1.11349e-10 -2.69279e-11
9.33213e-11 -4.73171e-11 4.37284e-10
2.3838e-11 -2.18004e-11 -8.34336e-11
4.45452e-11 5.46853e-12 1.02572e-10
-1.15932e-11 -1.93005e-11 2.29431e-11
-3.67818e-11 5.27281e-11 -1.49449e-11
3.4768e-11 -1.66443e-10 -9.86925e-10
7.14842e-12 -3.08078e-11 5.55642e-12
-3.06188e-10 -1.38102e-10 -1.37244e-10
-3.89042e-11 3.78776e-11 -3.76873e-12
-1.56439e-11 -2.89403e-11 9.95293e-12
5.92475e-11 9.5414e-11 -1.10757e-10
-3.89303e-11 -2.28767e-11 6.54381e-12
3.86222e-12 5.23341e-11 -1.13761e-11
4.34467e-11 -7.0266e-12 -5.06987e-11
-6.08543e-11 1.21103e-10 -5.99081e-11
4.51544e-11 -5.96358e-11 1.2214e-11
9.24448e-11 5.33944e-12 2.32289e-11
3.8917e-12 -2.53748e-11 3.02414e-12
9.1577e-12 8.19756e-11 -1.92348e-10
3.21324e-11 -2.73509e-13 -1.13549e-12
-7.87611e-11 9.02774e-13 4.78349e-12
-1.70295e-11 1.57227e-11 -6.78856e-12
8.27565e-11 2.49938e-10 8.75909e-11
-1.51349e-10 5.27541e-10 3.46368e-10
-1.81026e-11 6.53903e-12 -4.92725e-11
-2.00469e-10 -1.36555e-11 -9.99356e-12
-1.51163e-11 -3.3356e-11 1.57359e-11
-1.77303e-10 6.62031e-11 3.62346e-11
-9.02405e-12 5.49142e-11 -3.73333e-11
-2.10676e-12 -3.96474e-11 1.45319e-11
-1.3904e-10 3.36977e-11 -6.44114e-12
-1.23541e-11 1.92212e-10 -1.01471e-10
8.72405e-11 1.70464e-11 -5.01394e-12
-4.01735e-11 -6.05898e-11 1.28014e-11
1.17295e-11 7.47973e-12 -4.06198e-12
-3.76178e-11 -1.79777e-11 -6.08765e-12
-1.43112e-11 -2.32721e-12 3.66726e-11
1.8403e-11 -5.36446e-11 -8.30879e-11
-5.10432e-11 -1.85632e-11 2.67066e-11
3.17793e-11 3.78676e-11 -2.83925e-11
-7.57851e-11 5.00474e-11 -1.17878e-11
-1.33755e-10 3.41663e-11 -5.5458e-11
-9.51589e-12 -4.65599e-11 1.28815e-11
3.79755e-11 4.38954e-12 -4.86332e-11
1.73604e-11 -2.44117e-11 -4.61168e-11
1.63635e-10 -1.04034e-10 5.81275e-11
-4.56404e-12 -4.08116e-11 2.93649e-12
5.91009e-11 2.22853e-11 -1.70766e-11
-6.50094e-11 6.66799e-11 -1.04736e-10
-4.01506e-10 2.61974e-10 -2.29922e-10
-4.44598e-10 -4.37158e-10 -4.01839e-11
2.18282e-10 -1.37023e-10 1.4513e-10
-1.54035e-10 4.01284e-10 -2.51996e-10
2.97093e-11 -1.63264e-12 -1.54906e-10
-1.39604e-10 2.2279e-10 -1.74444e-10
6.50984e-11 -2.12206e-11 2.6156e-11
4.22834e-11 -7.48083e-12 4.02839e-11
-1.3106e-11 -2.64281e-11 1.44205e-11
-3.65273e-11 -4.5815e-11 4.20516e-12
-6.25597e-11 5.57671e-12 1.33095e-12
-1.53186e-11 1.80145e-11 -7.79904e-12
1.1675e-11 -2.57846e-12 -9.52024e-13
5.95161e-12 -1.8056e-11 1.18852e-11
-1.00647e-11 1.94867e-12 2.7718e-12
-7.97378e-11 1.93363e-12 3.00301e-13
7.32017e-11 -6.4689e-11 1.03167e-10
3.80625e-10 -4.3375e-11 2.12549e-10
-1.41762e-11 7.18017e-12 -1.29134e-12
1.85114e-11 4.1108e-11 -1.08008e-11
9.95426e-12 -9.33225e-12 -2.44705e-11
-5.44229e-11 2.38927e-11 -1.97069e-12
9.62795e-13 6.9512e-14 -8.19316e-13
4.85529e-13 3.18295e-11 -7.56185e-12
-6.15681e-11 1.18387e-11 -8.26354e-13
7.8372e-13 3.87499e-13 -5.18999e-14
6.97118e-13 3.82913e-13 6.39751e-14
-1.07151e-12 -5.55278e-11 1.42693e-11
6.13731e-13 2.71396e-13 -4.43974e-13
-4.94269e-10 2.55799e-10 -2.04765e-10
-9.18063e-11 1.54751e-10 -1.77346e-10
1.4395e-11 -1.54482e-11 2.35808e-12
-5.28534e-12 1.00492e-10 -4.61291e-12
-1.98265e-23 -2.68834e-24 -3.10193e-24
6.09291e-13 4.3271e-13 1.5531e-14
-1.43351e-11 -5.58748e-12 -2.25195e-13
-6.13988e-11 -1.01729e-11 2.14767e-12
-8.56027e-11 4.58224e-11 -4.43364e-11
1.56837e-11 -7.0231e-11 3.68218e-13
2.42113e-12 -1.24421e-11 -4.1346e-11
-8.9837e-12 -1.66826e-11 -1.08704e-11
-2.42074e-11 -1.76188e-11 8.66234e-12
3.28592e-10 -9.77232e-11 3.42276e-10
6.92593e-12 2.24927e-11 -5.60873e-12
-8.34689e-12 -1.62402e-11 3.98488e-12
4.34382e-13 3.49303e-13 -4.09488e-13
-5.88479e-12 -1.90529e-11 1.37326e-11
6.30159e-12 7.14103e-12 -1.74937e-11
2.64856e-11 6.11797e-10 -3.53561e-11
3.9678e-11 6.38385e-12 -7.29349e-12
-3.2116e-11 -2.53858e-11 3.24299e-12
4.39054e-11 -8.92832e-12 -2.94886e-12
4.68488e-12 -1.86258e-11 1.04479e-11
-9.15028e-12 -1.70995e-11 1.69077e-12
2.07578e-11 -1.99775e-11 1.18853e-11
1.71738e-13 -2.21854e-11 5.02787e-12
-1.08471e-11 -2.80298e-11 7.65062e-12
-9.2744e-12 -3.28605e-11 5.48889e-12
-3.77831e-12 -1.73893e-11 1.2806e-11
-6.80852e-11 -1.08908e-10 -5.68882e-10
2.90095e-22 -3.41729e-23 -2.81241e-23
2.42784e-13 4.92546e-13 1.5027e-15
1.41072e-11 -7.72833e-11 1.74838e-11
2.836e-13 4.6025e-13 -7.78166e-14
3.20649e-13 4.74856e-13 -1.14782e-13
-5.79521e-11 -1.00737e-11 7.16207e-12
6.02399e-12 3.39417e-11 -8.95059e-12
1.15728e-11 -3.43445e-11 -2.52121e-12
-7.62897e-11 -9.6907e-11 -1.29315e-11
-7.3819e-12 -2.10244e-11 1.3786e-11
-5.01182e-11 3.90577e-11 -8.38499e-12
1.81751e-11 -3.31727e-11 1.74861e-12
-1.23067e-11 -2.51306e-11 4.58418e-12
2.94111e-11 6.98999e-11 -2.8003e-11
-1.30344e-11 -2.55188e-12 2.18485e-12
1.03198e-10 -1.69156e-11 1.70804e-11
1.93064e-11 7.18655e-11 -3.25272e-11
3.56335e-11 3.11019e-11 -6.59606e-12
1.29255e-11 -9.99093e-12 1.40852e-12
-1.68435e-11 -2.47829e-11 1.09666e-12
