# vtk DataFile Version 3.0
LIGGGHTS particles timestep 55200000
ASCII
DATASET POLYDATA
POINTS 283 float
0.265794 0.0164846 0.00775037
0.266122 0.0176526 0.00712698
0.266192 0.0182302 0.00695724
0.26617 0.0181337 0.00697192
0.265441 0.0153439 0.0089375
0.27182 0.016669 0.00786828
0.265591 0.015812 0.00844963
0.265419 0.0152763 0.00900795
0.272035 0.017528 0.00713342
0.266483 0.0183245 0.00693905
0.265965 0.0168222 0.00749649
0.272005 0.0173328 0.00716314
0.26647 0.0178718 0.00700663
0.259372 0.0153592 0.00934523
0.266492 0.0179683 0.00699195
0.259611 0.0160502 0.00852854
0.272162 0.0181077 0.00704385
0.266105 0.0178442 0.00701596
0.266176 0.0173573 0.00718226
0.265463 0.0154115 0.00886705
0.266235 0.0184236 0.00692782
0.271958 0.0171644 0.00725805
0.266331 0.017649 0.0070431
0.271906 0.0169698 0.00747842
0.259621 0.0158239 0.00880454
0.266064 0.0176506 0.00704538
0.271798 0.0166089 0.00794529
0.266311 0.018359 0.00693635
0.266427 0.0176788 0.007036
0.27184 0.0167292 0.00779109
0.266164 0.0178466 0.00709686
0.266514 0.0180648 0.00697727
0.272096 0.0178183 0.00708854
0.265569 0.0157444 0.00852008
0.266375 0.0178419 0.00701246
0.26562 0.0158796 0.00838196
0.266121 0.0174982 0.00709803
0.266252 0.0173007 0.0072172
0.26629 0.0182624 0.00695105
0.266159 0.017683 0.0070392
0.271857 0.0167894 0.00771305
0.271923 0.0170299 0.00740043
0.265506 0.0155466 0.00872617
0.266157 0.0172726 0.00723174
0.271888 0.0169096 0.00755626
0.266278 0.0178111 0.00701842
0.260222 0.018386 0.00712168
0.26018 0.0173809 0.0072067
0.266461 0.018228 0.00695373
0.271871 0.0168494 0.00763425
0.25982 0.0163651 0.00811596
0.271979 0.0172438 0.00720088
0.266283 0.0179743 0.00707633
0.265485 0.0154789 0.00879667
0.26604 0.0167645 0.0075287
0.266224 0.0179729 0.00699509
0.27194 0.0170901 0.00732228
0.265854 0.0163648 0.00786161
0.26036 0.0178 0.00716722
0.266535 0.0181614 0.00696259
0.25988 0.0162689 0.00822964
0.266118 0.0171032 0.00733071
0.272214 0.0179449 0.0070704
0.259864 0.0164864 0.00796176
0.272016 0.017431 0.00714853
0.265528 0.0156142 0.00865572
0.265908 0.0169614 0.00740985
0.265575 0.0156733 0.00859021
0.27214 0.0180112 0.00705875
0.266279 0.0186169 0.00689842
0.259437 0.0155492 0.0091224
0.259643 0.0158842 0.00872781
0.26614 0.0175858 0.00705394
0.260403 0.0179955 0.00714987
0.259949 0.0164493 0.00799994
0.259466 0.0156218 0.00906008
0.272075 0.0177217 0.00710346
0.259797 0.0163161 0.00820012
0.266268 0.0181659 0.00696573
0.272055 0.0176249 0.00711842
0.266059 0.0168492 0.00747922
0.266257 0.0177145 0.00703311
0.265984 0.0169054 0.00744447
0.265871 0.0164332 0.00779087
0.266212 0.0171314 0.00731613
0.266215 0.0175266 0.00708332
0.266042 0.0171594 0.00729603
0.266343 0.0181006 0.00697438
0.266271 0.0173853 0.00716776
0.266101 0.0174134 0.00714759
0.260004 0.016632 0.0077686
0.266261 0.0178778 0.00709101
0.260276 0.0174105 0.00720175
0.2663 0.0179076 0.00700374
0.266386 0.0174982 0.00710368
0.259928 0.0163888 0.00807674
0.260201 0.0174784 0.00719791
0.265907 0.0165728 0.00765234
0.259393 0.0154225 0.00927095
0.266396 0.0179384 0.00699778
0.266148 0.0180372 0.0069866
0.266257 0.0185202 0.00691313
0.265717 0.016223 0.00804213
0.259664 0.0159446 0.00865107
0.266408 0.0183902 0.00693033
0.259842 0.0164254 0.00803919
0.266083 0.0177477 0.00703065
0.266142 0.0177497 0.0071117
0.265945 0.0167361 0.0075434
0.260382 0.0178975 0.00715857
0.271777 0.0165487 0.00802228
0.266291 0.01747 0.00711833
0.266173 0.016962 0.00741512
0.265948 0.0171308 0.00731089
0.260313 0.0181505 0.00722065
0.266406 0.0182513 0.00703353
0.26644 0.0181314 0.00696842
0.266021 0.0166797 0.00757827
0.259503 0.0157441 0.00890831
0.266505 0.018421 0.00692436
0.259599 0.0157635 0.00888125
0.265722 0.0161427 0.00810155
0.260281 0.0182292 0.00713333
0.266006 0.0173848 0.00716245
0.266137 0.0171879 0.00728122
0.266236 0.0176179 0.00704782
0.266003 0.0169901 0.00739499
0.260158 0.0180968 0.00714736
0.26585 0.0167112 0.00756458
0.266062 0.0172441 0.00724655
0.266079 0.0169339 0.0074297
0.26643 0.0184867 0.00691565
0.260296 0.017508 0.00719312
0.265634 0.0159467 0.0083092
0.266311 0.0175547 0.00706879
0.266196 0.017442 0.00713278
0.265889 0.0168768 0.00745934
0.259416 0.0154858 0.0091968
0.266185 0.0179432 0.00708219
0.266193 0.0170467 0.00736562
0.265889 0.0165017 0.00772012
0.260057 0.0168232 0.00754379
0.266557 0.0182579 0.0069479
0.259566 0.0159269 0.00867952
0.259687 0.0160047 0.0085745
0.260284 0.018056 0.00723464
0.266246 0.0180694 0.00698041
0.260316 0.0176056 0.00718449
0.266232 0.0172161 0.00726665
0.26011 0.017094 0.00725498
0.266023 0.0170747 0.00734551
0.260338 0.0177028 0.00717586
0.265987 0.0173001 0.00721193
0.260179 0.0181943 0.00715502
0.266098 0.0170186 0.00738027
0.259774 0.016246 0.00826764
0.266353 0.0177454 0.00702714
0.260125 0.0177244 0.0072648
0.259766 0.0164694 0.00799175
0.266304 0.0180708 0.00706165
0.260114 0.0179024 0.00716463
0.266203 0.0178764 0.00700977
0.260103 0.017024 0.00732603
0.259989 0.0173183 0.00721639
0.259588 0.0159895 0.00860463
0.260255 0.0181301 0.00714224
0.260075 0.0168886 0.00747017
0.259969 0.0165099 0.00792297
0.266354 0.0185521 0.00690699
0.26033 0.018063 0.00714602
0.266234 0.0182844 0.0070309
0.260286 0.0178677 0.00716336
0.266321 0.0180041 0.00698906
0.259885 0.0165484 0.00788299
0.259957 0.0167956 0.00757026
0.272119 0.0179147 0.00707366
0.265812 0.0165529 0.00767968
0.265775 0.0164164 0.00782106
0.259653 0.0161794 0.00838233
0.266026 0.0174695 0.00711297
0.260012 0.0169941 0.00735241
0.26638 0.0180051 0.00707043
0.26568 0.0160817 0.00816881
0.260071 0.0177081 0.00718189
0.260021 0.0166931 0.00769132
0.265926 0.0166524 0.00759487
0.260201 0.0182887 0.00713031
0.26015 0.0178209 0.00725764
0.259523 0.0158002 0.00882807
0.259994 0.0169264 0.00742377
0.260196 0.0175781 0.0072861
0.266449 0.0177753 0.00702132
0.26005 0.0176107 0.00719121
0.259744 0.0164092 0.00806836
0.260092 0.0169542 0.00739667
0.259905 0.0163286 0.00815337
0.260425 0.0180932 0.0071412
0.259544 0.0158635 0.0087538
0.266207 0.0180397 0.00706751
0.265832 0.0166274 0.00761597
0.272205 0.0183006 0.00701406
0.265928 0.0170461 0.00736037
0.259751 0.0161859 0.00834424
0.26587 0.0167951 0.00751375
0.265836 0.0162963 0.00793234
0.265743 0.016283 0.00796635
0.266579 0.0183544 0.00693322
0.259631 0.0161109 0.0084518
0.266418 0.0180349 0.0069831
0.259708 0.0160653 0.00849762
0.25948 0.0156741 0.00897595
0.272183 0.0182042 0.00702895
0.260022 0.0171501 0.00722962
0.260159 0.0172835 0.00721517
0.259904 0.0166096 0.00780549
0.260105 0.0174469 0.00720287
0.260104 0.0176262 0.007274
0.259697 0.0162892 0.00822127
0.260039 0.0167575 0.00761693
0.266081 0.0173288 0.00719707
0.266181 0.0177795 0.00702451
0.259875 0.0168349 0.00752905
0.259825 0.0166515 0.00776079
0.25995 0.0171405 0.00729856
0.259924 0.0166731 0.00772498
0.254049 0.0176025 0.00716178
0.259807 0.0165911 0.00783836
0.25994 0.0167345 0.00764751
0.254028 0.0175146 0.00720466
0.25407 0.0176904 0.0071189
0.259787 0.0165304 0.00791535
0.254111 0.0178662 0.00703314
0.266406 0.0175828 0.0070542
0.266045 0.0175541 0.00706349
0.259721 0.0163495 0.00814517
0.265656 0.0160144 0.00823873
0.215741 0.019982 0.00563384
0.254091 0.0177783 0.00707602
0.260234 0.0180325 0.00715087
0.260139 0.0171873 0.00723364
0.259729 0.0161258 0.00842079
0.260147 0.0176435 0.00718543
0.259973 0.0172308 0.00726193
0.260084 0.0173495 0.00721149
0.260213 0.0179353 0.00715951
0.266365 0.0181971 0.0069597
0.259858 0.016778 0.00760953
0.26003 0.0175134 0.00720305
0.254154 0.018042 0.00694741
0.260016 0.0170645 0.0072809
0.259676 0.0162386 0.00830492
0.265756 0.0163482 0.00789169
0.260308 0.017965 0.00715472
0.260136 0.0179996 0.00715599
0.260477 0.017928 0.00715372
0.260221 0.017576 0.00718928
0.25993 0.0170478 0.00733047
0.260093 0.0178055 0.00717691
0.260125 0.0175444 0.00719423
0.260212 0.0176763 0.0072756
0.260191 0.0178381 0.00716814
0.259912 0.0169633 0.00738041
0.266074 0.0175703 0.00715776
0.404182 0.0211142 0.0056569
0.254195 0.0182282 0.00690785
0.260363 0.0181714 0.00713618
0.254174 0.0181306 0.0069057
0.254132 0.0179542 0.00699026
0.259975 0.0168581 0.00749429
0.259842 0.0167126 0.00768353
0.260169 0.0177409 0.00717678
0.266386 0.0182936 0.00694502
0.260062 0.0172496 0.00722036
0.260243 0.0176732 0.00718064
0.260008 0.0174164 0.00721222
0.260166 0.0179235 0.0072474
0.266333 0.0184555 0.00692167
0.259893 0.0168959 0.00745188
0.259987 0.0165709 0.00784586
0.265967 0.0172155 0.00726141
0.266127 0.0179407 0.00700128
0.260265 0.0177704 0.00717201
0.266214 0.0183267 0.00694256

VERTICES 283 566
1 0
1 1
1 2
1 3
1 4
1 5
1 6
1 7
1 8
1 9
1 10
1 11
1 12
1 13
1 14
1 15
1 16
1 17
1 18
1 19
1 20
1 21
1 22
1 23
1 24
1 25
1 26
1 27
1 28
1 29
1 30
1 31
1 32
1 33
1 34
1 35
1 36
1 37
1 38
1 39
1 40
1 41
1 42
1 43
1 44
1 45
1 46
1 47
1 48
1 49
1 50
1 51
1 52
1 53
1 54
1 55
1 56
1 57
1 58
1 59
1 60
1 61
1 62
1 63
1 64
1 65
1 66
1 67
1 68
1 69
1 70
1 71
1 72
1 73
1 74
1 75
1 76
1 77
1 78
1 79
1 80
1 81
1 82
1 83
1 84
1 85
1 86
1 87
1 88
1 89
1 90
1 91
1 92
1 93
1 94
1 95
1 96
1 97
1 98
1 99
1 100
1 101
1 102
1 103
1 104
1 105
1 106
1 107
1 108
1 109
1 110
1 111
1 112
1 113
1 114
1 115
1 116
1 117
1 118
1 119
1 120
1 121
1 122
1 123
1 124
1 125
1 126
1 127
1 128
1 129
1 130
1 131
1 132
1 133
1 134
1 135
1 136
1 137
1 138
1 139
1 140
1 141
1 142
1 143
1 144
1 145
1 146
1 147
1 148
1 149
1 150
1 151
1 152
1 153
1 154
1 155
1 156
1 157
1 158
1 159
1 160
1 161
1 162
1 163
1 164
1 165
1 166
1 167
1 168
1 169
1 170
1 171
1 172
1 173
1 174
1 175
1 176
1 177
1 178
1 179
1 180
1 181
1 182
1 183
1 184
1 185
1 186
1 187
1 188
1 189
1 190
1 191
1 192
1 193
1 194
1 195
1 196
1 197
1 198
1 199
1 200
1 201
1 202
1 203
1 204
1 205
1 206
1 207
1 208
1 209
1 210
1 211
1 212
1 213
1 214
1 215
1 216
1 217
1 218
1 219
1 220
1 221
1 222
1 223
1 224
1 225
1 226
1 227
1 228
1 229
1 230
1 231
1 232
1 233
1 234
1 235
1 236
1 237
1 238
1 239
1 240
1 241
1 242
1 243
1 244
1 245
1 246
1 247
1 248
1 249
1 250
1 251
1 252
1 253
1 254
1 255
1 256
1 257
1 258
1 259
1 260
1 261
1 262
1 263
1 264
1 265
1 266
1 267
1 268
1 269
1 270
1 271
1 272
1 273
1 274
1 275
1 276
1 277
1 278
1 279
1 280
1 281
1 282

POINT_DATA 283
SCALARS id int 1
LOOKUP_TABLE default
1
2
3
4
5
6
7
8
9
10
11
12
13
14
15
16
18
19
20
21
22
24
25
26
27
29
30
31
32
33
34
35
36
37
38
40
41
42
43
44
45
46
47
48
49
50
52
55
56
57
58
59
60
61
62
63
64
65
66
67
68
69
70
71
72
73
74
75
76
77
78
79
80
81
82
83
84
85
86
87
88
89
90
91
92
93
94
95
96
98
99
100
101
102
103
104
105
106
107
108
109
110
111
112
113
114
115
116
117
118
119
120
121
122
123
124
125
126
127
128
129
130
131
132
133
134
135
136
137
138
139
140
141
142
144
145
146
147
148
149
150
152
153
154
155
156
157
158
159
160
161
162
164
165
166
167
168
169
170
171
172
173
174
175
176
177
178
179
180
181
182
183
184
185
186
187
188
189
190
191
192
193
194
195
196
197
198
199
200
201
202
203
204
205
206
207
208
209
210
211
213
214
215
217
218
219
220
221
222
223
224
225
226
227
228
229
230
231
232
233
234
235
236
237
238
239
241
242
243
244
245
246
247
248
249
250
251
252
253
254
255
256
257
258
259
260
261
262
263
264
265
267
268
269
270
271
272
273
274
275
276
277
278
279
280
281
282
283
284
285
286
287
288
289
290
292
293
294
295
296
297
298
300

SCALARS type int 1
LOOKUP_TABLE default
1
1
1
1
1
1
1
1
1
1
1
1
1
1
1
1
1
1
1
1
1
1
1
1
1
1
1
1
1
1
1
1
1
1
1
1
1
1
1
1
1
1
1
1
1
1
1
1
1
1
1
1
1
1
1
1
1
1
1
1
1
1
1
1
1
1
1
1
1
1
1
1
1
1
1
1
1
1
1
1
1
1
1
1
1
1
1
1
1
1
1
1
1
1
1
1
1
1
1
1
1
1
1
1
1
1
1
1
1
1
1
1
1
1
1
1
1
1
1
1
1
1
1
1
1
1
1
1
1
1
1
1
1
1
1
1
1
1
1
1
1
1
1
1
1
1
1
1
1
1
1
1
1
1
1
1
1
1
1
1
1
1
1
1
1
1
1
1
1
1
1
1
1
1
1
1
1
1
1
1
1
1
1
1
1
1
1
1
1
1
1
1
1
1
1
1
1
1
1
1
1
1
1
1
1
1
1
1
1
1
1
1
1
1
1
1
1
1
1
1
1
1
1
1
1
1
1
1
1
1
1
1
1
1
1
1
1
1
1
1
1
1
1
1
1
1
1
1
1
1
1
1
1
1
1
1
1
1
1
1
1
1
1
1
1
1
1
1
1
1
1
1
1
1
1
1
1
1
1
1
1
1
1

SCALARS radius float 1
LOOKUP_TABLE default
5e-05
5e-05
5e-05
5e-05
5e-05
5e-05
5e-05
5e-05
5e-05
5e-05
5e-05
5e-05
5e-05
5e-05
5e-05
5e-05
5e-05
5e-05
5e-05
5e-05
5e-05
5e-05
5e-05
5e-05
5e-05
5e-05
5e-05
5e-05
5e-05
5e-05
5e-05
5e-05
5e-05
5e-05
5e-05
5e-05
5e-05
5e-05
5e-05
5e-05
5e-05
5e-05
5e-05
5e-05
5e-05
5e-05
5e-05
5e-05
5e-05
5e-05
5e-05
5e-05
5e-05
5e-05
5e-05
5e-05
5e-05
5e-05
5e-05
5e-05
5e-05
5e-05
5e-05
5e-05
5e-05
5e-05
5e-05
5e-05
5e-05
5e-05
5e-05
5e-05
5e-05
5e-05
5e-05
5e-05
5e-05
5e-05
5e-05
5e-05
5e-05
5e-05
5e-05
5e-05
5e-05
5e-05
5e-05
5e-05
5e-05
5e-05
5e-05
5e-05
5e-05
5e-05
5e-05
5e-05
5e-05
5e-05
5e-05
5e-05
5e-05
5e-05
5e-05
5e-05
5e-05
5e-05
5e-05
5e-05
5e-05
5e-05
5e-05
5e-05
5e-05
5e-05
5e-05
5e-05
5e-05
5e-05
5e-05
5e-05
5e-05
5e-05
5e-05
5e-05
5e-05
5e-05
5e-05
5e-05
5e-05
5e-05
5e-05
5e-05
5e-05
5e-05
5e-05
5e-05
5e-05
5e-05
5e-05
5e-05
5e-05
5e-05
5e-05
5e-05
5e-05
5e-05
5e-05
5e-05
5e-05
5e-05
5e-05
5e-05
5e-05
5e-05
5e-05
5e-05
5e-05
5e-05
5e-05
5e-05
5e-05
5e-05
5e-05
5e-05
5e-05
5e-05
5e-05
5e-05
5e-05
5e-05
5e-05
5e-05
5e-05
5e-05
5e-05
5e-05
5e-05
5e-05
5e-05
5e-05
5e-05
5e-05
5e-05
5e-05
5e-05
5e-05
5e-05
5e-05
5e-05
5e-05
5e-05
5e-05
5e-05
5e-05
5e-05
5e-05
5e-05
5e-05
5e-05
5e-05
5e-05
5e-05
5e-05
5e-05
5e-05
5e-05
5e-05
5e-05
5e-05
5e-05
5e-05
5e-05
5e-05
5e-05
5e-05
5e-05
5e-05
5e-05
5e-05
5e-05
5e-05
5e-05
5e-05
5e-05
5e-05
5e-05
5e-05
5e-05
5e-05
5e-05
5e-05
5e-05
5e-05
5e-05
5e-05
5e-05
5e-05
5e-05
5e-05
5e-05
5e-05
5e-05
5e-05
5e-05
5e-05
5e-05
5e-05
5e-05
5e-05
5e-05
5e-05
5e-05
5e-05
5e-05
5e-05
5e-05
5e-05
5e-05
5e-05
5e-05
5e-05
5e-05
5e-05
5e-05
5e-05
5e-05
5e-05
5e-05
5e-05
5e-05
5e-05
5e-05
5e-05
5e-05
5e-05
5e-05
5e-05
5e-05
5e-05
5e-05
5e-05
5e-05
5e-05

SCALARS mass float 1
LOOKUP_TABLE default
1.46608e-10
1.46608e-10
1.46608e-10
1.46608e-10
1.46608e-10
1.46608e-10
1.46608e-10
1.46608e-10
1.46608e-10
1.46608e-10
1.46608e-10
1.46608e-10
1.46608e-10
1.46608e-10
1.46608e-10
1.46608e-10
1.46608e-10
1.46608e-10
1.46608e-10
1.46608e-10
1.46608e-10
1.46608e-10
1.46608e-10
1.46608e-10
1.46608e-10
1.46608e-10
1.46608e-10
1.46608e-10
1.46608e-10
1.46608e-10
1.46608e-10
1.46608e-10
1.46608e-10
1.46608e-10
1.46608e-10
1.46608e-10
1.46608e-10
1.46608e-10
1.46608e-10
1.46608e-10
1.46608e-10
1.46608e-10
1.46608e-10
1.46608e-10
1.46608e-10
1.46608e-10
1.46608e-10
1.46608e-10
1.46608e-10
1.46608e-10
1.46608e-10
1.46608e-10
1.46608e-10
1.46608e-10
1.46608e-10
1.46608e-10
1.46608e-10
1.46608e-10
1.46608e-10
1.46608e-10
1.46608e-10
1.46608e-10
1.46608e-10
1.46608e-10
1.46608e-10
1.46608e-10
1.46608e-10
1.46608e-10
1.46608e-10
1.46608e-10
1.46608e-10
1.46608e-10
1.46608e-10
1.46608e-10
1.46608e-10
1.46608e-10
1.46608e-10
1.46608e-10
1.46608e-10
1.46608e-10
1.46608e-10
1.46608e-10
1.46608e-10
1.46608e-10
1.46608e-10
1.46608e-10
1.46608e-10
1.46608e-10
1.46608e-10
1.46608e-10
1.46608e-10
1.46608e-10
1.46608e-10
1.46608e-10
1.46608e-10
1.46608e-10
1.46608e-10
1.46608e-10
1.46608e-10
1.46608e-10
1.46608e-10
1.46608e-10
1.46608e-10
1.46608e-10
1.46608e-10
1.46608e-10
1.46608e-10
1.46608e-10
1.46608e-10
1.46608e-10
1.46608e-10
1.46608e-10
1.46608e-10
1.46608e-10
1.46608e-10
1.46608e-10
1.46608e-10
1.46608e-10
1.46608e-10
1.46608e-10
1.46608e-10
1.46608e-10
1.46608e-10
1.46608e-10
1.46608e-10
1.46608e-10
1.46608e-10
1.46608e-10
1.46608e-10
1.46608e-10
1.46608e-10
1.46608e-10
1.46608e-10
1.46608e-10
1.46608e-10
1.46608e-10
1.46608e-10
1.46608e-10
1.46608e-10
1.46608e-10
1.46608e-10
1.46608e-10
1.46608e-10
1.46608e-10
1.46608e-10
1.46608e-10
1.46608e-10
1.46608e-10
1.46608e-10
1.46608e-10
1.46608e-10
1.46608e-10
1.46608e-10
1.46608e-10
1.46608e-10
1.46608e-10
1.46608e-10
1.46608e-10
1.46608e-10
1.46608e-10
1.46608e-10
1.46608e-10
1.46608e-10
1.46608e-10
1.46608e-10
1.46608e-10
1.46608e-10
1.46608e-10
1.46608e-10
1.46608e-10
1.46608e-10
1.46608e-10
1.46608e-10
1.46608e-10
1.46608e-10
1.46608e-10
1.46608e-10
1.46608e-10
1.46608e-10
1.46608e-10
1.46608e-10
1.46608e-10
1.46608e-10
1.46608e-10
1.46608e-10
1.46608e-10
1.46608e-10
1.46608e-10
1.46608e-10
1.46608e-10
1.46608e-10
1.46608e-10
1.46608e-10
1.46608e-10
1.46608e-10
1.46608e-10
1.46608e-10
1.46608e-10
1.46608e-10
1.46608e-10
1.46608e-10
1.46608e-10
1.46608e-10
1.46608e-10
1.46608e-10
1.46608e-10
1.46608e-10
1.46608e-10
1.46608e-10
1.46608e-10
1.46608e-10
1.46608e-10
1.46608e-10
1.46608e-10
1.46608e-10
1.46608e-10
1.46608e-10
1.46608e-10
1.46608e-10
1.46608e-10
1.46608e-10
1.46608e-10
1.46608e-10
1.46608e-10
1.46608e-10
1.46608e-10
1.46608e-10
1.46608e-10
1.46608e-10
1.46608e-10
1.46608e-10
1.46608e-10
1.46608e-10
1.46608e-10
1.46608e-10
1.46608e-10
1.46608e-10
1.46608e-10
1.46608e-10
1.46608e-10
1.46608e-10
1.46608e-10
1.46608e-10
1.46608e-10
1.46608e-10
1.46608e-10
1.46608e-10
1.46608e-10
1.46608e-10
1.46608e-10
1.46608e-10
1.46608e-10
1.46608e-10
1.46608e-10
1.46608e-10
1.46608e-10
1.46608e-10
1.46608e-10
1.46608e-10
1.46608e-10
1.46608e-10
1.46608e-10
1.46608e-10
1.46608e-10
1.46608e-10
1.46608e-10
1.46608e-10
1.46608e-10
1.46608e-10
1.46608e-10
1.46608e-10
1.46608e-10
1.46608e-10
1.46608e-10
1.46608e-10
1.46608e-10
1.46608e-10
1.46608e-10
1.46608e-10
1.46608e-10
1.46608e-10
1.46608e-10
1.46608e-10

VECTORS velocity float
0.00436583 -4.31577e-05 -0.000565221
0.00450129 0.000298867 -8.19791e-05
0.00496846 0.000217573 -0.000104217
0.00495949 0.000199696 -0.000100433
0.00487212 -0.00016468 -0.000515182
0.00500238 0.000469265 0.000574232
0.00480124 -0.000157982 -0.000513359
0.00488079 -0.000170152 -0.000510943
0.00434372 0.000243167 2.98789e-05
0.00492963 0.000137822 -9.11746e-05
0.00448359 0.000289728 -8.17839e-05
0.00446942 0.000211982 8.92206e-05
0.00479567 7.09505e-05 -8.02008e-05
0.00469051 0.000946524 -0.000188446
0.00480278 5.9736e-05 -8.18407e-05
0.0046385 0.000588186 -0.000846311
0.00486863 0.000159264 5.21182e-05
0.00495588 0.000230532 -0.000102115
0.00452034 0.00029861 -8.2555e-05
0.00486257 -0.000159752 -0.000518685
0.0049611 0.000156989 -9.43215e-05
0.00450089 0.000169101 5.14634e-05
0.00484532 0.000160779 -1.63954e-05
0.00423194 0.000493736 0.000368169
0.00488588 0.000429894 -0.000971507
0.00453474 0.000332906 -0.000124274
0.00507737 0.000490421 0.00057125
0.00496393 0.000174753 -9.74376e-05
0.00480765 9.43158e-05 -8.64263e-05
0.00502307 0.000448294 0.000599465
0.00493877 0.000187576 -9.47515e-05
0.00481199 5.33657e-05 -7.71934e-05
0.00484943 0.000143724 5.43071e-05
0.00481683 -0.000160869 -0.00051578
0.00492801 0.000179545 -9.72238e-05
0.00478481 -0.000151883 -0.000512129
0.00453171 0.000279334 -6.89981e-05
0.00449831 0.000222482 -2.52942e-05
0.00497333 0.000218997 -0.000108654
0.00450873 0.000209879 -0.000101113
0.0046324 0.000453052 0.000499845
0.00436479 0.000462633 0.000415245
0.00484222 -0.000156117 -0.000519026
0.00450663 0.000296576 -8.00183e-05
0.00438373 0.000528274 0.00038908
0.00491553 0.000186522 -9.53593e-05
0.00495265 0.00097808 -0.000204324
0.00465246 0.000798241 -0.000180569
0.00491019 0.000128604 -8.9532e-05
0.00441304 0.000492595 0.000423706
0.00593959 0.000169911 -0.000728619
0.00448552 0.000150744 -1.18136e-05
0.00490511 0.000205344 -8.78995e-05
0.00485094 -0.000156473 -0.000520248
0.00447303 0.000294066 -7.94853e-05
0.00493767 0.000191109 -9.96391e-05
0.00450686 0.000488722 0.000457257
0.0043844 -9.74778e-05 -0.000512827
0.00468754 0.000764669 -0.00017723
0.00484924 4.46486e-05 -7.57894e-05
0.0055663 8.10239e-05 -0.00060337
0.00445208 0.000259878 -5.90741e-05
0.00484367 0.000153245 5.26144e-05
0.00526697 0.000304892 -0.000873672
0.00449154 0.000212345 5.26512e-05
0.00483798 -0.000157496 -0.000517661
0.00447301 0.000306082 -8.71417e-05
0.00483488 -0.000159642 -0.000516877
0.00485768 0.000155822 5.26102e-05
0.00497029 0.000162374 -9.52162e-05
0.00468879 0.000994912 -0.000260261
0.0047711 0.000342788 -0.000879586
0.00448369 0.000290865 -0.000107582
0.00460886 0.00063366 -0.00016173
0.00505866 0.000183757 -0.000689182
0.00469313 0.00101009 -0.000284074
0.00467107 0.000179528 4.57607e-05
0.0055556 -9.73415e-06 -0.000796875
0.00496199 0.000211004 -0.000104196
0.00436076 0.000241408 3.14505e-05
0.00450138 0.000294035 -7.78314e-05
0.00488044 0.000196466 -9.80424e-05
0.00447912 0.000296741 -8.08452e-05
0.0043173 -7.21011e-05 -0.000524502
0.00444446 0.000210078 -3.06686e-05
0.00459473 0.000285865 -7.24185e-05
0.00449035 0.000294913 -7.92337e-05
0.00493282 0.000187523 -9.61656e-05
0.00457955 0.000221454 -7.75199e-06
0.00452884 0.000305129 -8.25385e-05
0.00439303 0.000323489 -0.000800632
0.00490666 0.000209405 -0.000102384
0.00468064 0.000699229 -0.000167133
0.00493233 0.00018912 -9.79304e-05
0.0047491 0.000116902 3.38515e-05
0.00551772 0.000100304 -0.000620402
0.00472334 0.000771322 -0.000180787
0.00436773 1.85624e-05 -0.000460244
0.00470376 0.000968103 -0.000209128
0.00489835 0.000168763 -9.41125e-05
0.00494991 0.000188131 -9.87049e-05
0.00496533 0.000163985 -9.53464e-05
0.00442363 -9.89559e-05 -0.000560408
0.00454104 0.000115557 -0.000557175
0.00494562 0.000156411 -9.38185e-05
0.00576138 0.00041023 -0.00104059
0.00451105 0.00034244 -0.000119197
0.00462403 0.000278503 -0.000150067
0.00443932 0.000293333 -7.61357e-05
0.00464741 0.000642057 -0.000168487
0.00501727 0.000483144 0.0005603
0.00469429 0.000203573 -3.40464e-06
0.00457642 0.000110219 3.19365e-05
0.00448834 0.000299671 -8.21477e-05
0.00460908 0.000631743 -0.000171944
0.00489412 0.000169879 -0.000104293
0.00487963 0.000128868 -8.9835e-05
0.0044214 0.000288633 -8.18083e-05
0.00468662 0.00101535 -0.000294069
0.00494599 0.000145046 -9.20952e-05
0.00485641 0.00044881 -0.00100182
0.00459399 -8.78137e-05 -0.000555524
0.00458347 0.000631147 -0.000163143
0.00452226 0.000303354 -8.3573e-05
0.00449891 0.00029563 -7.87943e-05
0.00476332 0.000232907 -9.16739e-05
0.00447319 0.00029899 -8.02283e-05
0.00492511 0.000768794 -0.000169322
0.00441471 0.000260774 -0.000174542
0.00450407 0.000297412 -8.0526e-05
0.0044509 0.000306308 -8.44952e-05
0.00496258 0.000159731 -9.47158e-05
0.00474939 0.000681568 -0.000170956
0.0047726 -0.000151656 -0.000514436
0.00477331 0.000181611 -8.73355e-06
0.00453157 0.000304861 -7.14216e-05
0.00443961 0.000317771 -9.14544e-05
0.00471993 0.000984448 -0.000229021
0.00492306 0.000169059 -9.63462e-05
0.0044251 0.000180318 -1.22712e-05
0.00425079 -6.29029e-05 -0.000554169
0.00440894 0.000580027 -0.000604604
0.00487391 7.74912e-05 -8.08222e-05
0.00462511 0.00102582 -0.000268213
0.00439603 0.000169416 -0.000614071
0.00467382 0.000633583 -0.000169395
0.00494895 0.00019785 -9.88854e-05
0.00480821 0.000712137 -0.000174569
0.00447407 0.000216283 -3.12858e-05
0.00479738 0.000678528 -0.000467054
0.00446785 0.000296316 -7.90486e-05
0.0048192 0.000728278 -0.000176061
0.00451171 0.000299963 -8.17054e-05
0.00486822 0.000872754 -0.000280871
0.00439367 0.000289486 -7.47984e-05
0.00618374 0.000104879 -0.000734384
0.00486633 0.000150464 -8.91907e-05
0.00485383 0.000694986 -0.000112568
0.00550239 0.000149397 -0.000757143
0.00494266 0.000178844 -8.53798e-05
0.00485461 0.000708017 -0.000164593
0.00493015 0.000190763 -9.97623e-05
0.00471246 0.000666623 -0.000475292
0.00461272 0.000856779 -0.000179365
0.00456967 0.000989976 -0.000435673
0.0047083 0.000671244 -0.00017641
0.00465192 0.000646089 -0.000503969
0.00472333 0.000248733 -0.00074182
0.00496467 0.000161695 -9.49847e-05
0.00474585 0.000618694 -0.000159341
0.00497049 0.000173137 -0.000117219
0.0046318 0.000700076 -0.000170907
0.00493426 0.000192025 -9.6625e-05
0.00521552 0.00074478 -0.00140569
0.00444332 0.000282472 -0.000727355
0.00484631 0.000151698 5.27214e-05
0.00435496 -3.62949e-05 -0.000575613
0.00437229 -5.05541e-05 -0.0005583
0.00532666 0.000175186 -0.000921012
0.00453528 0.000311984 -8.75379e-05
0.00468178 0.000666195 -0.000468441
0.00490434 0.000134048 -6.11816e-05
0.0047219 -0.000138338 -0.000520764
0.00492068 0.000777768 -0.000181567
0.00427371 0.00034035 -0.000826005
0.00440705 0.00021681 -0.000199644
0.00491286 0.00092744 -0.000202657
0.00480177 0.000721851 -8.75163e-05
0.00467741 0.00103829 -0.000277224
0.00464802 0.000400075 -0.000684457
0.00479167 0.000709586 -0.000185268
0.0046837 0.000107743 -8.37432e-05
0.00483905 0.000813078 -0.000245362
0.00580741 0.000136455 -0.000709653
0.00472458 0.000675854 -0.000475777
0.00586946 5.12036e-05 -0.000585251
0.00457313 0.00055418 -0.00015726
0.00468683 0.00104308 -0.00024618
0.00493501 0.000232271 -8.9515e-05
0.00438792 7.79012e-05 -0.000451026
0.00487777 0.000146723 5.42024e-05
0.00448156 0.000301643 -8.47396e-05
0.00555148 0.000193206 -0.000772214
0.00443021 0.000310428 -9.70381e-05
0.00439602 -0.00010896 -0.000508289
0.00437179 -6.30963e-05 -0.000553445
0.00481191 2.86936e-06 -6.90849e-05
0.00478069 0.000268305 -0.00108203
0.0048795 0.000134187 -8.23771e-05
0.00468111 0.000237412 -0.000708344
0.00468129 0.00101464 -0.000289334
0.00487363 0.000157103 5.2438e-05
0.00465909 0.000890615 -0.000184301
0.00464677 0.000799264 -0.000169836
0.00480202 0.00072653 -0.00133513
0.00452961 0.000681148 -0.000176221
0.00478392 0.000729452 -0.000196837
0.00592472 0.000100157 -0.000637606
0.00421545 0.000440737 -0.000764424
0.00451612 0.000301372 -8.2026e-05
0.0048823 0.000132502 -8.97247e-05
0.00447622 0.000271795 -0.000759408
0.00419108 0.000265406 -0.000704361
0.00463187 0.000797888 -0.000210182
0.0043492 0.000259302 -0.000715344
0.00463151 -0.000768177 0.000121375
0.00449379 0.000214106 -0.000735362
0.00437852 0.000262314 -0.000722055
0.00460764 -0.000763028 0.000120239
0.00467466 -0.000772572 0.000122695
0.00509459 0.000156272 -0.000763107
0.00472011 -0.00080112 0.000129655
0.00481755 0.000118411 3.72046e-05
0.00455421 0.00032131 -8.36793e-05
0.00603258 5.06506e-05 -0.000658992
0.0047749 -0.000152112 -0.000515769
6.80887e-15 2.2989e-14 -7.03243e-14
0.00471318 -0.000788486 0.00012778
0.0047787 0.000644942 -0.000176734
0.00466306 0.000745262 -0.00039727
0.00519011 0.000239062 -0.000762654
0.00485924 0.000798843 -0.000178327
0.00462234 0.000854984 -0.000122013
0.00462885 0.000809247 -0.000179106
0.00467401 0.000668818 -0.000162533
0.00493149 0.000186368 -9.66915e-05
0.00439848 0.000258582 -0.000718584
0.00469337 0.000852109 -0.000335973
0.00481498 -0.000800199 0.00012581
0.0046139 0.000701923 -0.000499645
0.00543258 0.000202167 -0.000739019
0.0043734 -5.7273e-05 -0.00055418
0.00460692 0.000669796 -0.00016886
0.00485494 0.00072213 -0.000178778
0.00452202 0.000626822 -0.000161696
0.00479326 0.000746117 -0.000178473
0.00463641 0.000689889 -0.00044612
0.00489719 0.000736214 -0.000164746
0.00472007 0.000659582 -0.000169617
0.00485873 0.000728309 -0.000147662
0.00467749 0.000680906 -0.000167174
0.00458164 0.00055828 -0.000601494
0.00454935 0.00028061 -7.33612e-05
-1.28248e-14 6.09117e-14 -1.90218e-13
0.00479089 -0.000804912 0.000130321
0.00459727 0.000647111 -0.000167904
0.00481463 -0.000806309 0.000128455
0.00474652 -0.000792492 0.000124963
0.00453416 0.000112157 -0.000920468
0.00433353 0.000239378 -0.000700316
0.0047384 0.00067068 -0.000173169
0.0049524 0.000180078 -9.91844e-05
0.00460054 0.000814208 -0.000184474
0.00483279 0.0007447 -0.000175812
0.00457919 0.000877501 -0.000300868
0.00476875 0.000687915 -7.33178e-05
0.0049606 0.000169647 -9.63348e-05
0.0045357 0.00037406 -0.000725816
0.00450277 0.000298152 -0.000779517
0.0045009 0.000299672 -8.06542e-05
0.00494212 0.000181146 -9.84231e-05
0.00470472 0.000772123 -0.000179878
0.00498459 0.000237848 -0.00010364

VECTORS force float
5.70421e-11 -1.65549e-11 -3.1277e-11
-4.25948e-12 1.01423e-10 1.59181e-12
6.67106e-12 -7.366e-12 7.59665e-12
-2.53108e-11 -5.44085e-11 1.52532e-11
3.44375e-11 1.10939e-10 -1.14851e-10
-2.48979e-11 -7.93968e-11 7.23153e-11
6.23917e-11 -1.03845e-10 8.0586e-11
5.08408e-11 1.538e-10 -1.6126e-10
-4.25902e-10 2.1395e-11 3.08068e-11
7.57927e-12 1.04222e-10 -2.45256e-12
2.65815e-10 -1.81007e-11 6.46438e-11
-4.01528e-10 5.97496e-12 4.17618e-11
2.49634e-10 2.13463e-10 -6.25662e-11
6.63974e-11 6.75715e-11 1.65268e-11
1.0405e-11 -4.78403e-11 7.37447e-11
-7.35762e-10 5.66462e-10 -1.57969e-09
-8.42454e-12 -2.53076e-10 3.55386e-11
-1.32566e-11 -1.25751e-10 7.29136e-11
-1.07601e-10 -3.34147e-12 2.02616e-11
1.23685e-11 4.61824e-11 -4.71083e-11
-1.54706e-11 -4.5685e-11 8.23958e-13
-1.45053e-10 -4.80537e-10 -4.16484e-10
1.86261e-11 -1.86407e-11 -1.99655e-10
1.15072e-09 4.07257e-10 -7.70297e-10
-4.04415e-10 -5.38876e-10 6.66781e-10
-4.41304e-11 1.51516e-10 1.46505e-11
-1.5319e-10 8.40202e-11 -2.29388e-10
-3.51944e-11 -4.63299e-11 1.74582e-11
-3.00975e-10 3.09098e-11 3.5444e-12
2.19045e-10 8.21034e-11 2.55278e-11
-2.09284e-10 1.36521e-10 1.30615e-10
-8.43099e-11 -1.52273e-10 2.74039e-11
4.7285e-11 -1.64658e-10 2.3884e-11
-2.57523e-11 -7.43974e-11 4.93356e-11
-1.12242e-10 -2.60042e-11 3.72253e-11
9.50109e-11 -1.32314e-10 1.1531e-10
8.54618e-11 8.88998e-11 -5.73892e-11
6.61713e-10 2.25548e-11 8.1565e-11
-9.62359e-11 2.15349e-10 8.83078e-12
4.86266e-11 -2.63907e-10 1.92341e-11
-2.26257e-10 3.81926e-10 -6.2226e-10
-2.19169e-10 4.68125e-10 -6.17166e-10
-9.48277e-12 -6.04906e-11 6.52249e-11
1.04138e-10 -2.77176e-11 2.17234e-11
-8.45407e-10 -5.68547e-10 -1.13378e-09
5.36237e-11 3.73881e-11 -4.01276e-13
-3.51481e-10 -4.28311e-10 -1.18169e-10
-2.05778e-10 -3.62485e-11 -2.13712e-11
1.66832e-10 7.08438e-11 6.23036e-12
1.97449e-10 5.53991e-10 -7.23887e-10
-1.47784e-09 -5.67187e-10 -6.51043e-10
-5.01634e-10 5.0451e-11 1.99364e-10
1.34778e-10 1.2179e-10 1.00162e-10
-2.63169e-11 -1.43454e-11 2.02607e-11
2.02633e-10 -1.31134e-10 5.79321e-11
-2.60898e-11 -2.41653e-11 2.96118e-11
7.71819e-11 1.35711e-11 -3.09041e-10
2.20169e-10 1.31914e-10 -1.20166e-10
-3.83279e-10 3.04996e-10 -1.19534e-11
3.25764e-10 2.18822e-10 -3.97197e-11
-3.62291e-10 -3.99217e-10 5.58737e-10
-3.32375e-10 3.5178e-11 1.80697e-11
-1.9151e-11 -1.40368e-10 2.1244e-11
-5.01602e-10 -3.27621e-10 6.33006e-10
-1.07771e-10 -7.54236e-11 1.90972e-11
-2.55219e-11 -7.99001e-11 8.35911e-11
-7.13202e-11 -2.17815e-11 2.12832e-11
-7.61334e-11 -5.97759e-11 6.06257e-11
-5.33573e-11 -2.30118e-10 3.72724e-11
-8.0443e-11 -2.08231e-10 2.90661e-11
8.02651e-11 1.46515e-10 1.44863e-10
-7.98144e-10 -3.17996e-09 2.95896e-09
-7.96675e-12 -8.92184e-13 -3.52786e-11
7.68256e-10 -1.09728e-11 4.64455e-11
6.42403e-10 -2.61356e-10 3.4773e-10
1.42422e-10 -1.41852e-10 4.09359e-10
-3.53267e-11 -1.28887e-10 2.01019e-11
0.0 0.0 -1.43822e-09
5.35779e-11 6.60614e-11 -8.26573e-12
-2.65511e-10 -3.88355e-11 -8.52956e-12
9.28e-11 -1.45913e-10 8.01729e-11
2.16955e-12 9.43324e-12 -2.61883e-11
2.49347e-10 1.03503e-10 1.01975e-10
1.23095e-10 9.32226e-11 -2.18423e-10
-1.02303e-10 -1.75129e-10 9.90524e-11
-1.98984e-10 2.87227e-11 4.64586e-11
7.10286e-12 5.44445e-11 -1.00305e-11
7.293e-11 -7.05962e-11 -1.38859e-11
1.25044e-10 1.77145e-10 1.04533e-10
-6.8028e-11 6.99708e-12 1.39216e-12
2.03436e-10 9.85889e-12 -2.61983e-11
5.80502e-11 1.56564e-10 4.8835e-11
-2.11766e-10 2.15944e-10 -4.47022e-11
3.97824e-11 -1.34313e-11 -2.3755e-11
-1.76124e-10 8.30201e-12 4.43409e-11
9.24935e-10 -3.00431e-10 2.02954e-10
-2.62585e-10 -7.98326e-11 -1.3463e-10
-1.17974e-10 8.57549e-12 -2.35307e-10
1.10419e-10 9.30767e-11 -2.3079e-10
9.95642e-11 1.14273e-10 7.24605e-12
-5.23708e-11 -9.65388e-11 3.93753e-11
-4.84294e-11 -2.92381e-10 4.46556e-11
-3.87234e-12 -1.87567e-11 1.30255e-10
-1.12551e-09 7.28292e-10 -1.41427e-09
1.76615e-10 1.31351e-10 -2.97235e-11
8.94851e-10 -3.52304e-10 3.65873e-11
-1.08793e-10 4.6731e-11 -1.09415e-10
-4.39551e-11 -3.30754e-10 -1.4675e-11
8.53035e-11 9.4166e-11 8.96067e-12
-1.55289e-11 4.66691e-10 -1.62917e-11
1.25307e-10 2.09523e-10 -3.48193e-10
-2.54491e-10 2.14896e-10 2.87697e-11
-5.52776e-10 -1.31707e-11 1.12104e-11
-9.04647e-12 6.68336e-11 -6.76326e-11
-2.41177e-10 3.12513e-10 -1.69209e-10
7.03106e-11 -2.27025e-10 1.51549e-11
8.18935e-11 2.7377e-11 1.53231e-11
-8.30918e-11 -7.19237e-11 6.07513e-11
-3.66791e-10 -6.06856e-10 5.70687e-10
-4.6746e-11 4.45443e-11 -9.86875e-12
-1.64825e-10 -5.55178e-10 6.33429e-10
6.82362e-11 -1.12037e-10 1.21223e-10
8.32855e-10 -7.26156e-11 2.46501e-11
5.45346e-11 4.75839e-11 -2.3806e-11
9.22278e-11 -1.33191e-10 7.12798e-11
-7.30116e-11 2.38021e-11 7.40722e-11
-1.09919e-11 1.06386e-10 -5.75074e-12
-5.40698e-10 -2.00469e-10 -4.56719e-10
1.19373e-12 1.6644e-10 -1.04999e-10
1.15316e-10 -2.26348e-11 -2.33562e-12
-3.63703e-10 -2.90335e-10 1.68207e-10
1.46302e-10 2.08341e-10 -2.70983e-11
-3.80843e-10 2.19513e-11 4.38524e-11
2.33866e-12 -1.34646e-10 1.28215e-10
-1.17923e-10 1.13667e-10 1.53934e-11
-1.53772e-10 -4.23385e-11 -5.70513e-11
1.08045e-11 2.28166e-11 -5.25317e-11
1.15208e-10 1.52583e-10 -1.82513e-10
-6.29949e-11 -4.19809e-10 7.35979e-12
-4.54763e-10 -7.61947e-11 1.58856e-11
3.42553e-12 -1.56637e-10 -4.59401e-10
3.86853e-11 3.02119e-10 -3.45106e-11
-2.47086e-10 -4.86461e-11 -5.49306e-12
-9.66755e-11 5.03616e-10 8.32704e-10
-4.10686e-10 1.12908e-09 -2.15536e-09
7.47001e-10 -8.29692e-12 -2.08542e-10
-1.84773e-11 -3.26473e-12 3.37089e-12
-3.90359e-10 4.21425e-10 2.35621e-11
4.90533e-10 -1.02988e-10 5.04236e-11
2.55899e-10 8.80009e-11 -1.33658e-10
-1.41935e-10 4.24229e-11 -4.42703e-11
-3.2407e-10 3.10608e-10 -1.19166e-11
9.79718e-11 9.77659e-11 -4.15505e-11
8.96609e-11 -6.85326e-10 -8.60034e-10
-4.45994e-10 -2.33612e-10 1.06434e-10
-2.39468e-10 4.25762e-10 -1.08533e-09
-2.74559e-10 -1.51572e-10 8.25627e-11
-2.1945e-10 2.67677e-10 -4.41481e-11
5.55997e-10 3.78231e-10 -4.24071e-10
-6.86199e-11 9.84117e-11 -2.49609e-12
-9.28766e-10 -7.3574e-10 8.46193e-12
1.35345e-10 -3.07645e-11 2.6676e-11
1.195e-10 3.01497e-10 -1.22011e-10
-1.27583e-11 3.3466e-10 -2.11265e-10
4.7078e-10 1.99086e-09 -8.2355e-10
-1.33585e-10 -1.2675e-10 -1.7959e-10
5.68612e-10 3.13953e-10 -2.88598e-11
2.20716e-10 -2.55284e-10 2.77767e-10
6.65804e-11 8.1947e-11 -1.19134e-11
8.61831e-10 -2.0835e-10 -4.16237e-11
-4.68175e-10 2.78932e-10 -9.25151e-11
3.52623e-10 9.72552e-11 2.39827e-10
7.19876e-12 -5.70565e-12 -1.90663e-11
4.6377e-11 5.44636e-11 -2.12981e-10
5.20779e-10 -9.67315e-11 1.16444e-10
-2.5597e-11 -2.04179e-10 3.3707e-11
-4.98837e-12 7.68539e-11 -2.34494e-11
9.5284e-11 -1.56015e-11 -5.36736e-12
4.0631e-10 -9.08349e-10 5.92235e-11
-1.32843e-11 7.67283e-11 -2.02432e-11
1.73261e-10 -6.58522e-11 -1.00197e-10
-1.08441e-10 -2.414e-11 1.57189e-11
-4.58614e-11 -1.17142e-10 1.19503e-10
-3.72818e-10 -7.61397e-10 3.70074e-10
-1.22592e-10 6.08171e-11 -2.26398e-10
-1.06657e-10 1.76189e-10 7.20659e-11
-7.97737e-10 -7.67193e-10 3.11102e-10
-1.0112e-10 4.19799e-10 1.92199e-10
9.34357e-11 -5.13204e-10 6.1895e-10
1.22505e-10 -1.35242e-10 -4.20741e-10
-1.89865e-10 4.85994e-10 2.06259e-10
6.79971e-10 1.27086e-11 -4.33123e-13
-8.20942e-10 -5.92204e-10 1.337e-10
-8.57252e-10 -1.23567e-09 2.59595e-10
8.05163e-10 2.58824e-10 -1.71591e-10
-7.91286e-11 -2.0099e-10 -7.09483e-12
-6.76062e-10 3.29575e-11 1.33001e-11
4.38776e-11 -6.06416e-10 4.17077e-10
-5.63049e-11 7.51965e-11 6.84603e-11
-4.2305e-11 1.00509e-10 -1.17102e-10
1.00613e-11 -9.16458e-11 1.54459e-11
-4.4591e-11 2.26824e-11 -1.36779e-11
-3.99421e-10 1.86791e-09 -3.15106e-09
6.39782e-11 -1.70437e-11 -3.24229e-10
-5.95719e-11 1.27836e-10 -9.40448e-11
-4.03643e-11 1.15852e-10 1.20599e-10
1.72515e-10 1.93808e-10 -2.87536e-11
5.22878e-10 1.17988e-10 2.24897e-10
9.95504e-11 -1.87774e-11 1.22796e-11
1.62514e-09 8.54622e-10 -1.17092e-09
-1.8043e-10 -6.02718e-10 5.02657e-10
-8.14221e-11 -1.85268e-10 3.03017e-11
2.09499e-10 4.71262e-10 8.28868e-12
-2.06829e-10 -2.81873e-11 -4.55542e-11
-2.06665e-10 3.21281e-10 -3.62621e-10
-3.62515e-10 -8.31367e-11 -1.04443e-11
2.18409e-12 1.29984e-11 -2.9769e-10
-4.60345e-10 -1.64097e-09 7.19552e-10
1.87375e-10 1.12534e-10 -1.35501e-10
6.62868e-11 -1.74658e-11 -9.48091e-12
2.30737e-10 -2.02087e-10 3.93508e-11
-7.36945e-11 -3.62361e-10 1.48524e-10
7.772e-10 6.33817e-10 -1.044e-09
3.13533e-10 1.82657e-10 -2.0892e-10
-3.19765e-10 -1.91025e-10 2.46018e-10
-3.23842e-11 -1.47014e-11 -4.76763e-12
4.68315e-10 9.68028e-10 -1.67697e-09
6.83791e-10 -1.09751e-10 1.54782e-10
1.09266e-11 3.76067e-12 -3.70371e-12
-2.21596e-10 6.28808e-11 -2.42679e-11
5.78932e-10 1.22674e-09 -1.38512e-09
2.45718e-10 -1.00829e-10 8.64738e-11
-4.66828e-11 -1.48974e-10 -8.62006e-11
1.06376e-10 1.69463e-10 -5.13532e-11
-1.30864e-09 -2.01176e-09 -2.41029e-10
-4.22923e-11 -1.247e-10 1.34086e-10
5.11301e-23 1.32866e-23 9.30578e-24
2.58594e-10 8.63519e-11 -5.48462e-12
7.99832e-10 -1.20905e-10 -1.04574e-10
-1.70252e-10 4.23589e-11 -2.63794e-10
7.20608e-10 1.27047e-09 -2.04029e-09
1.49147e-11 4.11285e-10 4.07106e-11
-4.63204e-11 4.14379e-10 -1.98491e-10
3.90253e-12 5.677e-10 1.07602e-11
7.7771e-10 -1.08469e-10 -3.42525e-11
8.12087e-11 -9.06859e-11 1.14714e-11
1.26293e-11 1.03491e-10 2.24253e-10
-3.76004e-11 -1.49688e-10 -4.64642e-11
1.61126e-10 -1.15072e-10 2.03918e-11
5.42052e-10 3.10417e-11 -3.97701e-10
-7.61427e-10 -1.93377e-09 3.51831e-10
2.05731e-11 1.72232e-11 9.29983e-12
7.51123e-10 2.41383e-10 -3.1322e-11
-3.4624e-10 -1.99671e-10 1.89525e-10
-6.74359e-10 2.15158e-11 1.38031e-11
-2.61138e-10 1.64942e-10 2.74417e-11
1.17621e-10 1.31394e-10 -2.68068e-10
-5.43221e-10 -9.39021e-10 3.58006e-10
-4.72971e-10 -8.31511e-12 -1.50302e-11
5.07667e-12 3.41353e-10 1.02358e-10
6.11617e-10 -7.95186e-12 -9.95608e-11
-3.75246e-10 2.45841e-11 -1.01043e-10
-5.53299e-11 1.89643e-10 2.71462e-11
-7.76723e-22 -1.45739e-22 4.1359e-25
-2.88233e-11 -8.92661e-11 1.44278e-11
-5.92153e-10 3.16006e-10 -1.22505e-10
1.40996e-10 9.22756e-11 2.20166e-11
-1.15854e-10 -2.68084e-10 1.09325e-10
2.22796e-10 -3.90818e-10 -5.81043e-10
-2.74931e-10 4.22732e-10 -2.97609e-10
-4.05264e-10 -4.38598e-11 -9.6846e-11
-8.8302e-11 -1.05092e-10 1.29083e-11
-1.18366e-10 2.5298e-10 3.41742e-11
-1.95482e-11 2.5831e-10 1.46175e-11
2.6235e-10 1.60625e-10 -6.78957e-12
-3.99316e-10 -2.06703e-10 -2.96258e-10
9.52315e-11 -7.65019e-11 1.39386e-11
3.69286e-11 -5.61543e-10 -1.7199e-10
2.76708e-10 -1.37377e-10 1.58373e-10
2.23431e-11 1.15811e-10 -5.81068e-11
-2.36206e-11 -2.1815e-10 3.83283e-11
2.33429e-10 9.40854e-11 -6.5818e-12
-1.20581e-10 3.69885e-11 -6.99766e-11
