# vtk DataFile Version 3.0
LIGGGHTS particles timestep 2400000
ASCII
DATASET POLYDATA
POINTS 289 float
0.0239673 0.0165449 0.00765788
0.0243564 0.0173427 0.00722523
0.0242852 0.0174928 0.00720153
0.0243459 0.0177923 0.00715527
0.0237579 0.0164127 0.00775258
0.0297854 0.0165 0.00763708
0.0239337 0.0171423 0.00726354
0.0237384 0.0163327 0.00780927
0.0300902 0.0178423 0.00711699
0.0238754 0.0168928 0.00741249
0.0241309 0.0173773 0.00721872
0.0300468 0.017655 0.00717209
0.0239142 0.0170513 0.00730021
0.0178875 0.0169823 0.00746301
0.0241122 0.0175403 0.00719328
0.0178663 0.0168956 0.00750807
0.0238558 0.0168128 0.00746917
0.0299818 0.017374 0.00725474
0.0238529 0.0164389 0.00773351
0.0242658 0.0173008 0.00723128
0.0237775 0.0164927 0.00769589
0.0240372 0.0174117 0.00721289
0.0300035 0.0174677 0.00722719
0.0240356 0.0171804 0.00724885
0.0298918 0.0168954 0.0073653
0.0183205 0.018907 0.00687916
0.0238724 0.0165189 0.00767683
0.029766 0.0164246 0.00769973
0.0238954 0.0169799 0.00736765
0.0240362 0.0176044 0.00718293
0.0298046 0.0165756 0.00757441
0.0239898 0.0170068 0.00734827
0.024083 0.0170256 0.00731742
0.0301119 0.0179359 0.00708944
0.0239704 0.016919 0.00739342
0.0240155 0.017086 0.00727508
0.0299192 0.0170882 0.00732092
0.0239541 0.0172381 0.0072437
0.023892 0.0165989 0.00762015
0.0239755 0.017334 0.00722506
0.0242109 0.0175589 0.00719088
0.0243908 0.0175373 0.00719514
0.0298243 0.016651 0.00751178
0.0299002 0.0169925 0.00734288
0.0238166 0.0166528 0.00758253
0.0241665 0.0172849 0.00723325
0.0298628 0.0168021 0.00738658
0.0242194 0.0180214 0.00711901
0.0185444 0.0188068 0.00686371
0.0299383 0.0171839 0.00729896
0.0240065 0.016705 0.00754449
0.0179086 0.017069 0.00741795
0.024135 0.0171911 0.00724768
0.0298442 0.0167264 0.00744919
0.0183412 0.0185553 0.00688788
0.0300252 0.0175613 0.00719964
0.0242322 0.0171079 0.00726112
0.023797 0.0165727 0.00763921
0.0241777 0.0174657 0.00720521
0.0243375 0.0176882 0.00717141
0.0299601 0.017279 0.00727716
0.0237189 0.0162526 0.00786597
0.0184528 0.0187603 0.00685824
0.024251 0.0173985 0.00721601
0.0184109 0.0184849 0.00690181
0.0240145 0.0175079 0.00719782
0.0301336 0.0180296 0.00706189
0.0179713 0.0173256 0.00728465
0.0300685 0.0177486 0.00714454
0.0238362 0.0167328 0.00752585
0.0243341 0.0172287 0.00724284
0.0239508 0.016839 0.00745011
0.0300356 0.0172154 0.00729289
0.0243534 0.0190524 0.00695439
0.0180345 0.0175855 0.00715527
0.0181801 0.0182253 0.00693624
0.0243588 0.0182449 0.00708495
0.0182952 0.018354 0.00691921
0.0183402 0.0190047 0.00688691
0.0180977 0.017846 0.00702977
0.0300138 0.0171202 0.00731469
0.0180579 0.0176797 0.00713135
0.0241662 0.0181833 0.00709357
0.0301437 0.0176844 0.00715954
0.0242844 0.0183108 0.00707433
0.0243155 0.0180519 0.00711474
0.0242938 0.0179555 0.00712963
0.0241544 0.0177319 0.00716369
0.0244109 0.0180817 0.00711059
0.0243892 0.0187942 0.00699969
0.0242627 0.0182143 0.00708922
0.0243339 0.0189561 0.00697292
0.0243805 0.0183414 0.00707006
0.0243493 0.0186003 0.00702965
0.0183783 0.0186933 0.00686659
0.024425 0.0172708 0.00723674
0.0184448 0.0182232 0.0069458
0.0240795 0.0177974 0.00715314
0.0240659 0.0172919 0.00723167
0.0185294 0.0190052 0.00687313
0.0180132 0.0174975 0.00719767
0.0241229 0.0179903 0.00712336
0.0179501 0.0172389 0.0073297
0.0239116 0.0166789 0.00756347
0.0242404 0.0176642 0.00717466
0.0241878 0.0182798 0.00707868
0.0243141 0.0188594 0.00698918
0.0182601 0.0186138 0.00688647
0.0242095 0.0183763 0.00706378
0.0183999 0.0192977 0.00691051
0.024306 0.0175896 0.00718658
0.0242355 0.0172066 0.00724578
0.0236994 0.0161726 0.00792266
0.0184752 0.019233 0.00689882
0.0297467 0.0163491 0.0077624
0.0241399 0.0171058 0.00729963
0.02368 0.0160926 0.00797936
0.0244542 0.0182747 0.0070808
0.0181945 0.0178748 0.00701314
0.0244442 0.0186316 0.00702525
0.0239312 0.016759 0.00750679
0.0241453 0.0176335 0.00717895
0.0181407 0.0180329 0.00697316
0.0242411 0.0181179 0.00710412
0.0184344 0.0189725 0.00687696
0.0240579 0.0177009 0.00716803
0.0184843 0.0188867 0.00686511
0.02437 0.0174406 0.00721007
0.024065 0.0169453 0.00737426
0.0242505 0.0177625 0.00715942
0.0239869 0.0166249 0.00760119
0.0179315 0.0171628 0.00739188
0.0244238 0.0185344 0.00704027
0.0243372 0.0181484 0.00709985
0.0242722 0.017859 0.00714453
0.0243277 0.0185038 0.00704454
0.0180813 0.0177571 0.00707245
0.0241761 0.0178284 0.0071488
0.0241977 0.0179249 0.0071339
0.0241445 0.0180868 0.00710846
0.0244692 0.017476 0.00720506
0.0180026 0.0174154 0.00725383
0.0241012 0.0178939 0.00713825
0.0243061 0.0184073 0.00705944
0.0236602 0.0160126 0.00803602
0.0185212 0.0194864 0.00691963
0.0236402 0.0159326 0.00809266
0.0183809 0.0191999 0.00690256
0.0182203 0.0184189 0.00690599
0.0184735 0.0186638 0.00687474
0.0242944 0.0187625 0.00700414
0.0183953 0.0188413 0.00686903
0.0238334 0.0163588 0.00779021
0.0187118 0.0195461 0.00691139
0.0244673 0.019119 0.00693849
0.0185789 0.0189191 0.00686129
0.0243902 0.0192455 0.00691734
0.0185991 0.019207 0.00688728
0.0240261 0.016785 0.00748781
0.0183734 0.0182929 0.00693192
0.0242528 0.0185692 0.007034
0.0188772 0.0192079 0.00686703
0.0184782 0.0193599 0.0069107
0.0244325 0.0181782 0.00709569
0.0189344 0.0194566 0.00688657
0.0244798 0.0183756 0.00706523
0.0185698 0.0193998 0.00690782
0.0185432 0.0182425 0.00694607
0.0183006 0.0188091 0.00687426
0.0192718 0.0189934 0.00684862
0.0191153 0.0189912 0.00684354
0.0184295 0.0194464 0.00692252
0.0242312 0.0184727 0.00704889
0.0182748 0.0182572 0.00693432
0.0240458 0.0168652 0.00743103
0.0188469 0.0194083 0.00688836
0.0243322 0.017106 0.00726191
0.018546 0.0195901 0.00692771
0.0181999 0.0183222 0.0069211
0.0301553 0.0181232 0.00703434
0.0245495 0.0183048 0.00707659
0.0241826 0.0170182 0.00732202
0.0184513 0.0195569 0.00693147
0.0245037 0.0189218 0.00697405
0.0184706 0.0196547 0.00693939
0.0244022 0.0184379 0.00705516
0.0237943 0.0161988 0.00790359
0.0193598 0.0190407 0.00684395
0.0183499 0.0181919 0.00694762
0.0237748 0.0161188 0.00796028
0.0183158 0.0184506 0.00690411
0.0187837 0.019242 0.00687712
0.0181602 0.0181285 0.00695139
0.0196077 0.0192295 0.0068217
0.0186853 0.0192577 0.00688581
0.0241454 0.0168579 0.00743557
0.0186576 0.0193531 0.00689694
0.0183601 0.0191024 0.00689478
0.0185537 0.0192953 0.00689903
0.0184776 0.0183166 0.00693167
0.0188014 0.0195029 0.00690071
0.0182804 0.0187112 0.00687619
0.0244115 0.0171662 0.00725294
0.024409 0.0188908 0.00698275
0.030079 0.0174039 0.00724206
0.0242744 0.0186657 0.0070191
0.0184543 0.0190702 0.00688482
0.0185209 0.0191448 0.00688707
0.0244197 0.017632 0.00718056
0.0244086 0.019342 0.00689881
0.0243693 0.0186971 0.00701469
0.0239477 0.0164649 0.00771457
0.018255 0.0181604 0.00694947
0.0238138 0.0162788 0.00784689
0.0182407 0.0185165 0.006899
0.0181194 0.0179402 0.00700409
0.0300573 0.0173102 0.00726961
0.0188915 0.0195462 0.00689826
0.0178457 0.0168087 0.00755316
0.0185654 0.0196879 0.00693563
0.018507 0.0185124 0.00690067
0.0194588 0.0190633 0.00684369
0.0185094 0.0198503 0.00695522
0.0184072 0.0183863 0.00691782
0.0244289 0.0189875 0.00696415
0.0245581 0.017431 0.00721251
0.0199829 0.0192065 0.00683772
0.0197244 0.0193003 0.00681418
0.0198971 0.0191509 0.00684463
0.0185888 0.0197902 0.00694368
0.0136923 0.0206521 0.00730673
0.0196368 0.0193484 0.00682487
0.0188788 0.0196554 0.00690961
0.0133079 0.0206979 0.00733676
0.0137924 0.0206813 0.00730655
0.0190938 0.0196217 0.00689473
0.0145125 0.020459 0.00722491
0.0237356 0.0159587 0.00807364
0.0245279 0.018208 0.00709154
0.0188418 0.0197472 0.00692805
0.0237554 0.0160387 0.00801697
0.0241662 0.0169377 0.00737903
0.0140592 0.0206776 0.00729094
0.0187478 0.0193963 0.00689446
0.0187917 0.0196062 0.00691128
0.0185034 0.0184138 0.00691668
0.0189696 0.0196086 0.0068985
0.0190169 0.0191241 0.00684881
0.019651 0.019097 0.00684488
0.0188862 0.0193171 0.00687678
0.0244494 0.0173792 0.00722002
0.0200991 0.019294 0.00682595
0.0194092 0.0191543 0.00682709
0.017625 0.0238491 0.0115569
0.0197012 0.0191946 0.00683066
0.01849 0.0197525 0.00694731
0.0244871 0.0192206 0.00691897
0.0185627 0.0187087 0.0068705
0.0190017 0.0193837 0.00687469
0.0194682 0.0192351 0.00682639
0.0196834 0.0142652 0.0116579
0.0200366 0.0191042 0.00685667
0.0202463 0.0191049 0.00686231
0.0192364 0.0193539 0.00685468
0.0195434 0.0191188 0.00683756
0.0192798 0.0191109 0.00682967
0.0200883 0.019189 0.00684361
0.0243719 0.0191489 0.00693587
0.0173152 0.0238549 0.0115675
0.0174236 0.0238528 0.0115638
0.0186423 0.0187863 0.00686057
0.0177253 0.0238472 0.0115535
0.0175247 0.0238511 0.0115607
0.0195136 0.0193262 0.00683176
0.019857 0.0193072 0.00681704
0.0190941 0.0193469 0.00686442
0.0239297 0.0169798 0.00746159
0.0198019 0.0192164 0.00683061
0.0181305 0.0176096 0.00714089
0.0200142 0.0142557 0.0116738
0.0186094 0.018522 0.00690266
0.0245021 0.017208 0.0072469
0.0203311 0.0191801 0.00685179
0.0181563 0.0176966 0.00709884
0.0243086 0.0177546 0.00724038
0.0242804 0.0170349 0.00730963
0.0186156 0.0195192 0.00691586
0.0185506 0.0186015 0.00688762
0.0241975 0.0173605 0.00729143

VERTICES 289 578
1 0
1 1
1 2
1 3
1 4
1 5
1 6
1 7
1 8
1 9
1 10
1 11
1 12
1 13
1 14
1 15
1 16
1 17
1 18
1 19
1 20
1 21
1 22
1 23
1 24
1 25
1 26
1 27
1 28
1 29
1 30
1 31
1 32
1 33
1 34
1 35
1 36
1 37
1 38
1 39
1 40
1 41
1 42
1 43
1 44
1 45
1 46
1 47
1 48
1 49
1 50
1 51
1 52
1 53
1 54
1 55
1 56
1 57
1 58
1 59
1 60
1 61
1 62
1 63
1 64
1 65
1 66
1 67
1 68
1 69
1 70
1 71
1 72
1 73
1 74
1 75
1 76
1 77
1 78
1 79
1 80
1 81
1 82
1 83
1 84
1 85
1 86
1 87
1 88
1 89
1 90
1 91
1 92
1 93
1 94
1 95
1 96
1 97
1 98
1 99
1 100
1 101
1 102
1 103
1 104
1 105
1 106
1 107
1 108
1 109
1 110
1 111
1 112
1 113
1 114
1 115
1 116
1 117
1 118
1 119
1 120
1 121
1 122
1 123
1 124
1 125
1 126
1 127
1 128
1 129
1 130
1 131
1 132
1 133
1 134
1 135
1 136
1 137
1 138
1 139
1 140
1 141
1 142
1 143
1 144
1 145
1 146
1 147
1 148
1 149
1 150
1 151
1 152
1 153
1 154
1 155
1 156
1 157
1 158
1 159
1 160
1 161
1 162
1 163
1 164
1 165
1 166
1 167
1 168
1 169
1 170
1 171
1 172
1 173
1 174
1 175
1 176
1 177
1 178
1 179
1 180
1 181
1 182
1 183
1 184
1 185
1 186
1 187
1 188
1 189
1 190
1 191
1 192
1 193
1 194
1 195
1 196
1 197
1 198
1 199
1 200
1 201
1 202
1 203
1 204
1 205
1 206
1 207
1 208
1 209
1 210
1 211
1 212
1 213
1 214
1 215
1 216
1 217
1 218
1 219
1 220
1 221
1 222
1 223
1 224
1 225
1 226
1 227
1 228
1 229
1 230
1 231
1 232
1 233
1 234
1 235
1 236
1 237
1 238
1 239
1 240
1 241
1 242
1 243
1 244
1 245
1 246
1 247
1 248
1 249
1 250
1 251
1 252
1 253
1 254
1 255
1 256
1 257
1 258
1 259
1 260
1 261
1 262
1 263
1 264
1 265
1 266
1 267
1 268
1 269
1 270
1 271
1 272
1 273
1 274
1 275
1 276
1 277
1 278
1 279
1 280
1 281
1 282
1 283
1 284
1 285
1 286
1 287
1 288

POINT_DATA 289
SCALARS id int 1
LOOKUP_TABLE default
1
2
3
4
5
6
7
8
9
10
11
12
13
14
15
16
17
18
19
20
21
22
24
25
26
27
29
30
31
32
33
34
35
36
37
38
39
40
41
42
43
44
45
46
47
48
49
50
52
53
54
55
56
57
58
59
60
61
62
63
64
65
66
67
68
69
70
71
72
73
74
75
76
77
78
79
80
81
82
83
84
85
86
87
88
89
90
91
92
93
94
95
96
98
99
100
101
102
103
104
105
106
107
108
109
110
111
112
113
114
115
116
117
118
119
120
121
122
123
124
125
126
127
128
129
130
131
132
133
134
135
136
137
138
139
140
141
142
144
145
146
147
148
149
150
152
153
154
155
156
157
158
159
160
161
162
164
165
166
167
168
169
170
171
172
173
174
175
176
177
178
179
180
181
182
183
184
185
186
187
188
189
190
191
192
193
194
195
196
197
198
199
200
201
202
203
204
205
206
207
208
209
210
211
213
214
215
216
217
218
219
220
221
222
223
224
225
226
227
228
229
230
231
232
233
234
235
236
237
238
239
241
242
243
244
245
246
247
248
249
250
251
252
253
254
255
256
257
258
259
260
261
262
263
264
265
267
268
269
270
271
272
273
274
275
276
277
278
279
280
281
282
283
284
285
286
287
288
289
290
292
293
294
295
296
297
298
299
300

SCALARS type int 1
LOOKUP_TABLE default
1
1
1
1
1
1
1
1
1
1
1
1
1
1
1
1
1
1
1
1
1
1
1
1
1
1
1
1
1
1
1
1
1
1
1
1
1
1
1
1
1
1
1
1
1
1
1
1
1
1
1
1
1
1
1
1
1
1
1
1
1
1
1
1
1
1
1
1
1
1
1
1
1
1
1
1
1
1
1
1
1
1
1
1
1
1
1
1
1
1
1
1
1
1
1
1
1
1
1
1
1
1
1
1
1
1
1
1
1
1
1
1
1
1
1
1
1
1
1
1
1
1
1
1
1
1
1
1
1
1
1
1
1
1
1
1
1
1
1
1
1
1
1
1
1
1
1
1
1
1
1
1
1
1
1
1
1
1
1
1
1
1
1
1
1
1
1
1
1
1
1
1
1
1
1
1
1
1
1
1
1
1
1
1
1
1
1
1
1
1
1
1
1
1
1
1
1
1
1
1
1
1
1
1
1
1
1
1
1
1
1
1
1
1
1
1
1
1
1
1
1
1
1
1
1
1
1
1
1
1
1
1
1
1
1
1
1
1
1
1
1
1
1
1
1
1
1
1
1
1
1
1
1
1
1
1
1
1
1
1
1
1
1
1
1
1
1
1
1
1
1
1
1
1
1
1
1
1
1
1
1
1
1
1
1
1
1
1
1

SCALARS radius float 1
LOOKUP_TABLE default
5e-05
5e-05
5e-05
5e-05
5e-05
5e-05
5e-05
5e-05
5e-05
5e-05
5e-05
5e-05
5e-05
5e-05
5e-05
5e-05
5e-05
5e-05
5e-05
5e-05
5e-05
5e-05
5e-05
5e-05
5e-05
5e-05
5e-05
5e-05
5e-05
5e-05
5e-05
5e-05
5e-05
5e-05
5e-05
5e-05
5e-05
5e-05
5e-05
5e-05
5e-05
5e-05
5e-05
5e-05
5e-05
5e-05
5e-05
5e-05
5e-05
5e-05
5e-05
5e-05
5e-05
5e-05
5e-05
5e-05
5e-05
5e-05
5e-05
5e-05
5e-05
5e-05
5e-05
5e-05
5e-05
5e-05
5e-05
5e-05
5e-05
5e-05
5e-05
5e-05
5e-05
5e-05
5e-05
5e-05
5e-05
5e-05
5e-05
5e-05
5e-05
5e-05
5e-05
5e-05
5e-05
5e-05
5e-05
5e-05
5e-05
5e-05
5e-05
5e-05
5e-05
5e-05
5e-05
5e-05
5e-05
5e-05
5e-05
5e-05
5e-05
5e-05
5e-05
5e-05
5e-05
5e-05
5e-05
5e-05
5e-05
5e-05
5e-05
5e-05
5e-05
5e-05
5e-05
5e-05
5e-05
5e-05
5e-05
5e-05
5e-05
5e-05
5e-05
5e-05
5e-05
5e-05
5e-05
5e-05
5e-05
5e-05
5e-05
5e-05
5e-05
5e-05
5e-05
5e-05
5e-05
5e-05
5e-05
5e-05
5e-05
5e-05
5e-05
5e-05
5e-05
5e-05
5e-05
5e-05
5e-05
5e-05
5e-05
5e-05
5e-05
5e-05
5e-05
5e-05
5e-05
5e-05
5e-05
5e-05
5e-05
5e-05
5e-05
5e-05
5e-05
5e-05
5e-05
5e-05
5e-05
5e-05
5e-05
5e-05
5e-05
5e-05
5e-05
5e-05
5e-05
5e-05
5e-05
5e-05
5e-05
5e-05
5e-05
5e-05
5e-05
5e-05
5e-05
5e-05
5e-05
5e-05
5e-05
5e-05
5e-05
5e-05
5e-05
5e-05
5e-05
5e-05
5e-05
5e-05
5e-05
5e-05
5e-05
5e-05
5e-05
5e-05
5e-05
5e-05
5e-05
5e-05
5e-05
5e-05
5e-05
5e-05
5e-05
5e-05
5e-05
5e-05
5e-05
5e-05
5e-05
5e-05
5e-05
5e-05
5e-05
5e-05
5e-05
5e-05
5e-05
5e-05
5e-05
5e-05
5e-05
5e-05
5e-05
5e-05
5e-05
5e-05
5e-05
5e-05
5e-05
5e-05
5e-05
5e-05
5e-05
5e-05
5e-05
5e-05
5e-05
5e-05
5e-05
5e-05
5e-05
5e-05
5e-05
5e-05
5e-05
5e-05
5e-05
5e-05
5e-05
5e-05
5e-05
5e-05
5e-05
5e-05
5e-05
5e-05
5e-05
5e-05
5e-05
5e-05
5e-05
5e-05
5e-05
5e-05
5e-05
5e-05
5e-05
5e-05
5e-05
5e-05
5e-05
5e-05
5e-05
5e-05
5e-05
5e-05
5e-05

SCALARS mass float 1
LOOKUP_TABLE default
1.46608e-10
1.46608e-10
1.46608e-10
1.46608e-10
1.46608e-10
1.46608e-10
1.46608e-10
1.46608e-10
1.46608e-10
1.46608e-10
1.46608e-10
1.46608e-10
1.46608e-10
1.46608e-10
1.46608e-10
1.46608e-10
1.46608e-10
1.46608e-10
1.46608e-10
1.46608e-10
1.46608e-10
1.46608e-10
1.46608e-10
1.46608e-10
1.46608e-10
1.46608e-10
1.46608e-10
1.46608e-10
1.46608e-10
1.46608e-10
1.46608e-10
1.46608e-10
1.46608e-10
1.46608e-10
1.46608e-10
1.46608e-10
1.46608e-10
1.46608e-10
1.46608e-10
1.46608e-10
1.46608e-10
1.46608e-10
1.46608e-10
1.46608e-10
1.46608e-10
1.46608e-10
1.46608e-10
1.46608e-10
1.46608e-10
1.46608e-10
1.46608e-10
1.46608e-10
1.46608e-10
1.46608e-10
1.46608e-10
1.46608e-10
1.46608e-10
1.46608e-10
1.46608e-10
1.46608e-10
1.46608e-10
1.46608e-10
1.46608e-10
1.46608e-10
1.46608e-10
1.46608e-10
1.46608e-10
1.46608e-10
1.46608e-10
1.46608e-10
1.46608e-10
1.46608e-10
1.46608e-10
1.46608e-10
1.46608e-10
1.46608e-10
1.46608e-10
1.46608e-10
1.46608e-10
1.46608e-10
1.46608e-10
1.46608e-10
1.46608e-10
1.46608e-10
1.46608e-10
1.46608e-10
1.46608e-10
1.46608e-10
1.46608e-10
1.46608e-10
1.46608e-10
1.46608e-10
1.46608e-10
1.46608e-10
1.46608e-10
1.46608e-10
1.46608e-10
1.46608e-10
1.46608e-10
1.46608e-10
1.46608e-10
1.46608e-10
1.46608e-10
1.46608e-10
1.46608e-10
1.46608e-10
1.46608e-10
1.46608e-10
1.46608e-10
1.46608e-10
1.46608e-10
1.46608e-10
1.46608e-10
1.46608e-10
1.46608e-10
1.46608e-10
1.46608e-10
1.46608e-10
1.46608e-10
1.46608e-10
1.46608e-10
1.46608e-10
1.46608e-10
1.46608e-10
1.46608e-10
1.46608e-10
1.46608e-10
1.46608e-10
1.46608e-10
1.46608e-10
1.46608e-10
1.46608e-10
1.46608e-10
1.46608e-10
1.46608e-10
1.46608e-10
1.46608e-10
1.46608e-10
1.46608e-10
1.46608e-10
1.46608e-10
1.46608e-10
1.46608e-10
1.46608e-10
1.46608e-10
1.46608e-10
1.46608e-10
1.46608e-10
1.46608e-10
1.46608e-10
1.46608e-10
1.46608e-10
1.46608e-10
1.46608e-10
1.46608e-10
1.46608e-10
1.46608e-10
1.46608e-10
1.46608e-10
1.46608e-10
1.46608e-10
1.46608e-10
1.46608e-10
1.46608e-10
1.46608e-10
1.46608e-10
1.46608e-10
1.46608e-10
1.46608e-10
1.46608e-10
1.46608e-10
1.46608e-10
1.46608e-10
1.46608e-10
1.46608e-10
1.46608e-10
1.46608e-10
1.46608e-10
1.46608e-10
1.46608e-10
1.46608e-10
1.46608e-10
1.46608e-10
1.46608e-10
1.46608e-10
1.46608e-10
1.46608e-10
1.46608e-10
1.46608e-10
1.46608e-10
1.46608e-10
1.46608e-10
1.46608e-10
1.46608e-10
1.46608e-10
1.46608e-10
1.46608e-10
1.46608e-10
1.46608e-10
1.46608e-10
1.46608e-10
1.46608e-10
1.46608e-10
1.46608e-10
1.46608e-10
1.46608e-10
1.46608e-10
1.46608e-10
1.46608e-10
1.46608e-10
1.46608e-10
1.46608e-10
1.46608e-10
1.46608e-10
1.46608e-10
1.46608e-10
1.46608e-10
1.46608e-10
1.46608e-10
1.46608e-10
1.46608e-10
1.46608e-10
1.46608e-10
1.46608e-10
1.46608e-10
1.46608e-10
1.46608e-10
1.46608e-10
1.46608e-10
1.46608e-10
1.46608e-10
1.46608e-10
1.46608e-10
1.46608e-10
1.46608e-10
1.46608e-10
1.46608e-10
1.46608e-10
1.46608e-10
1.46608e-10
1.46608e-10
1.46608e-10
1.46608e-10
1.46608e-10
1.46608e-10
1.46608e-10
1.46608e-10
1.46608e-10
1.46608e-10
1.46608e-10
1.46608e-10
1.46608e-10
1.46608e-10
1.46608e-10
1.46608e-10
1.46608e-10
1.46608e-10
1.46608e-10
1.46608e-10
1.46608e-10
1.46608e-10
1.46608e-10
1.46608e-10
1.46608e-10
1.46608e-10
1.46608e-10
1.46608e-10
1.46608e-10
1.46608e-10
1.46608e-10
1.46608e-10
1.46608e-10
1.46608e-10
1.46608e-10
1.46608e-10
1.46608e-10
1.46608e-10
1.46608e-10
1.46608e-10
1.46608e-10
1.46608e-10
1.46608e-10
1.46608e-10
1.46608e-10
1.46608e-10
1.46608e-10
1.46608e-10
1.46608e-10
1.46608e-10

VECTORS velocity float
0.00428617 -0.00051168 0.000336376
0.0044752 -0.000588742 0.000114293
0.00469074 -0.000628514 0.000122727
0.00468013 -0.000616479 0.000119392
0.00425256 -0.000499097 0.000327578
0.00437493 -0.00028384 0.000111188
0.00433389 -0.000518577 0.000281202
0.00424156 -0.000496746 0.000326156
0.00476285 -0.000414502 -8.74268e-05
0.00431629 -0.000504403 0.000330443
0.00472056 -0.000628893 0.000120883
0.00474939 -0.000412048 -8.75197e-05
0.00433694 -0.000500303 0.000329614
0.00419034 -0.00210306 0.00083189
0.00470396 -0.000640728 0.00012299
0.00419294 -0.00210681 0.000834058
0.00431072 -0.000504404 0.000330957
0.00472882 -0.000407033 -8.79463e-05
0.00427237 -0.000503408 0.000330665
0.00453918 -0.000708572 0.000133054
0.00427523 -0.0005019 0.000329671
0.00471872 -0.000638801 0.000123807
0.00473674 -0.00040832 -8.81008e-05
0.00451059 -0.000665579 0.000127971
0.0044176 -0.000289729 0.000122883
0.00392336 -0.00220986 -0.000479711
0.00428599 -0.000506059 0.000332285
0.00434041 -0.000277305 0.00010672
0.00431909 -0.000503027 0.000330667
0.00469714 -0.000645715 0.000123785
0.00439727 -0.000288414 0.000114599
0.00432345 -0.000520637 0.000341699
0.00432396 -0.000523642 0.00034298
0.00477023 -0.000414325 -8.78157e-05
0.00431935 -0.000508186 0.000332622
0.00429978 -0.000547382 0.0003604
0.0045579 -0.000318999 0.000131466
0.00456174 -0.000589425 0.000179876
0.00429118 -0.000507 0.000333044
0.00472219 -0.000637064 0.00012935
0.00469802 -0.000627033 0.000121481
0.00469744 -0.000622307 0.000120173
0.00440907 -0.000291575 0.000116541
0.00438997 -0.000287485 0.00012202
0.00429484 -0.000504273 0.000330958
0.00462706 -0.000662953 0.000125883
0.00444331 -0.000296766 0.000124579
0.00465924 -0.000626915 0.00012081
0.00396573 -0.00217806 -0.000503392
0.00472766 -0.000351692 0.000141299
0.00430784 -0.000511506 0.000336079
0.00423905 -0.00211555 0.000836009
0.00441476 -0.000594673 0.000111277
0.00443165 -0.00029875 0.000117227
0.00411036 -0.00226274 0.000514697
0.00474275 -0.000410311 -8.77859e-05
0.004297 -0.000657661 0.000130163
0.00428943 -0.00050351 0.000330605
0.00471578 -0.000634371 0.000121535
0.0046873 -0.000620466 0.000119963
0.0047282 -0.000352699 0.000141394
0.00423649 -0.000495299 0.000325101
0.00401891 -0.00226062 0.00050945
0.00467664 -0.00068361 0.000129765
0.0041331 -0.00224492 0.000511089
0.00470851 -0.000645042 0.000123765
0.00477816 -0.000413128 -8.84576e-05
0.004289 -0.00213977 0.000873885
0.00475675 -0.000413501 -8.7538e-05
0.00430112 -0.000503861 0.000330977
0.00447902 -0.000780312 0.000142164
0.00431394 -0.000508803 0.000333896
0.00472546 -0.000355383 0.000142059
0.00442519 -0.000600926 -2.47036e-05
0.00436715 -0.00216633 0.000891063
0.00398967 -0.00215843 0.000502863
0.00464233 -0.000613033 0.000118541
0.00406805 -0.00225814 0.000511089
0.00395099 -0.00221023 -0.000495926
0.00444526 -0.00218073 0.000897907
0.00473122 -0.000347884 0.000140349
0.00440162 -0.00217398 0.000895565
0.00464805 -0.000632025 0.000121597
0.00476134 -0.000409149 -8.8916e-05
0.00463747 -0.000620474 0.000119671
0.00465375 -0.000615488 0.000118965
0.0046601 -0.000622173 0.000120041
0.00468172 -0.00063688 0.000122335
0.00465023 -0.000609003 0.000117954
0.00435773 -0.000586279 0.000113507
0.00464427 -0.000621234 0.000119818
0.00440629 -0.000602471 -2.42573e-05
0.00463601 -0.000612041 0.000118341
0.00442889 -0.000584607 0.000113036
0.00407832 -0.00225121 0.000510125
0.00442447 -0.000631499 0.000120254
0.00387333 -0.002238 0.000501185
0.00467882 -0.000643411 0.000123504
0.00471969 -0.000642943 0.000124416
0.00394963 -0.00223249 -0.000501249
0.00434166 -0.00216271 0.000892511
0.00466352 -0.000638738 0.000122662
0.00428761 -0.00214023 0.000847552
0.00429679 -0.000508261 0.000334123
0.0046894 -0.000624812 0.000120592
0.00464058 -0.000629262 0.000121062
0.00437224 -0.000575063 0.000111817
0.00411711 -0.00225154 0.000519095
0.00463235 -0.00062838 0.000120881
0.00397665 -0.00226417 -0.000506382
0.0046968 -0.000618476 0.000119397
0.00441117 -0.000665641 0.000125921
0.00423272 -0.000492659 0.000323259
0.00398693 -0.00223786 -0.000505042
0.00432594 -0.000274923 0.000105178
0.00432112 -0.00054359 0.000205988
0.00422544 -0.00049235 0.000323093
0.00464052 -0.000607359 0.000117641
0.004589 -0.00203152 0.000801421
0.00440415 -0.000507887 0.000100991
0.00430638 -0.000509202 0.00033457
0.00469205 -0.000635715 0.000122691
0.00401578 -0.00216473 0.000592266
0.00465117 -0.000623406 0.000120225
0.00393833 -0.0022136 -0.000498482
0.00468661 -0.000644758 0.000123693
0.00391462 -0.00221668 -0.000501029
0.00469542 -0.000616233 0.000118841
0.00432783 -0.000520714 0.000342161
0.00468308 -0.000625485 0.000120849
0.00429282 -0.000510634 0.00033566
0.00428679 -0.00213116 0.00084229
0.00440486 -0.000613915 0.000117496
0.00464718 -0.000614089 0.000118709
0.00467331 -0.000624266 0.000120495
0.00461751 -0.000621851 0.000119774
0.00440259 -0.00217676 0.000896546
0.00467796 -0.000633297 0.000121887
0.0046682 -0.000630814 0.000121411
0.00465574 -0.00063548 0.000122117
0.00469008 -0.000637411 0.000122645
0.00430808 -0.00214625 0.000900876
0.00467201 -0.000641579 0.000123329
0.00462811 -0.000620823 0.000119694
0.00434076 -0.000511866 0.000336146
0.00401194 -0.00228755 -0.000509331
0.00433279 -0.000511894 0.000336325
0.00396322 -0.00223768 -0.000503214
0.00407588 -0.00221914 0.000496496
0.00408442 -0.00224307 0.000508951
0.00434872 -0.000570339 0.000110238
0.00395431 -0.00225343 7.27591e-05
0.00425198 -0.000499353 0.000327968
0.00388597 -0.00171352 -0.000447824
0.00426724 -0.00055187 -2.92126e-05
0.00391999 -0.00225548 -0.000502791
0.00431012 -0.000568587 -2.72451e-05
0.00403787 -0.00229754 -0.000514888
0.00431027 -0.000512898 0.000337021
0.0040592 -0.00223887 0.000506078
0.00461645 -0.000626885 0.000120554
0.00408555 -0.00220742 -0.000509436
0.00398982 -0.00228427 -0.000509764
0.0046447 -0.000608709 0.000117889
0.00343675 2.45068e-05 -0.000248882
0.00462983 -0.00060477 0.000117188
0.00400032 -0.00230106 -0.000514015
0.00397137 -0.00218435 0.000495499
0.00394027 -0.00223498 -0.000236562
-7.45711e-15 3.50334e-14 2.14188e-13
-7.45704e-15 3.50334e-14 2.14188e-13
0.00387691 -0.00231076 -0.000504077
0.00462339 -0.000628113 0.000120783
0.00406285 -0.00230798 0.00051439
0.00431728 -0.000511486 0.000335827
0.00346293 -1.42172e-05 -0.000254892
0.00428454 -0.000618889 0.00011479
0.00396532 -0.00234906 -0.000513224
0.00408908 -0.00217777 0.000498337
0.00478588 -0.000412415 -8.90569e-05
0.00463692 -0.000600165 0.000116507
0.00432473 -0.000506232 0.000330331
0.00391945 -0.00230704 -0.000506919
0.00441549 -0.000610053 -2.24639e-05
0.00380609 -0.00260137 -0.000528844
0.00462262 -0.000613883 0.00011857
0.00423868 -0.000496075 0.000325692
-7.45708e-15 3.50334e-14 2.14188e-13
0.00381581 -0.00212794 0.000481133
0.00422986 -0.000494865 0.000324846
0.0040789 -0.0022427 0.000506738
0.00405635 -0.00227422 -0.000513871
0.00385673 -0.00214727 0.000477281
2.96051e-15 -1.39092e-14 -8.50386e-14
0.00403925 -0.00229804 -0.000513995
0.00431851 -0.000503659 0.000330593
0.00400939 -0.00228817 -0.000512115
0.00396009 -0.00221769 -0.000501284
0.00401907 -0.0022964 -0.000513081
0.00390817 -0.00223132 0.000501227
0.00416654 -0.000888336 -0.000389745
0.00404693 -0.00225564 0.000255413
0.00445301 -0.000826545 0.000152266
0.00440051 -0.000616493 -2.24841e-05
0.00474266 -0.000402138 -9.0118e-05
0.00442587 -0.000585125 0.000113147
0.00396105 -0.00221555 -0.000500714
0.00399618 -0.00224154 -0.000506022
0.00468939 -0.000617613 0.00011944
0.00435208 -0.000567214 -2.84672e-05
0.00434897 -0.000569256 0.00011021
0.004286 -0.000505501 0.000332065
0.00388698 -0.00217904 0.000493685
0.00424148 -0.000497271 0.000326445
0.00408436 -0.0022347 0.000501279
0.00441464 -0.00219496 0.000833736
0.00472912 -0.000405731 -8.85303e-05
0.00355121 6.89631e-05 -0.00025327
0.00393104 -0.00204951 0.000818728
0.00386722 -0.00235027 -0.000506265
0.0041259 -0.00220916 0.000504981
-7.45705e-15 3.50334e-14 2.14188e-13
0.00457906 -0.00251022 -0.00057588
0.00389062 -0.00224319 0.000502256
0.00442389 -0.000601826 -2.48179e-05
0.00469871 -0.000624006 0.00012048
-3.9751e-15 2.47093e-14 1.44604e-13
-7.45686e-15 3.50333e-14 2.14188e-13
-7.45708e-15 3.50334e-14 2.14188e-13
0.00610846 -0.0036648 -0.00079584
-1.29118e-14 4.2933e-14 -2.30778e-13
2.03105e-14 -2.64941e-14 2.77686e-13
0.00241575 0.000739801 -0.000106071
-1.29117e-14 4.2933e-14 -2.30778e-13
3.60647e-15 -1.19879e-14 6.44398e-14
-9.19785e-15 -5.44995e-14 1.35808e-13
-1.29114e-14 4.29331e-14 -2.30778e-13
0.00434069 -0.000512817 0.000336883
0.00464272 -0.000606659 0.000117544
1.71205e-13 8.5109e-13 4.63849e-13
0.00421594 -0.000491824 0.000322794
0.00431635 -0.000503734 0.000330568
-1.29119e-14 4.29331e-14 -2.30778e-13
0.0036378 -0.00151854 -0.000410329
0.00312505 -0.000621906 -0.000287824
0.00388114 -0.00219848 0.000494805
0.00297809 0.000781647 -0.000143201
-1.92005e-15 2.50465e-15 -2.62516e-14
2.96047e-15 -1.39093e-14 -8.50386e-14
0.000997012 -0.00108442 -0.00017637
0.00447773 -0.0005997 0.000115611
4.242e-15 -2.63636e-14 -1.54285e-13
-7.45703e-15 3.50334e-14 2.14188e-13
0.000107778 -0.00184704 -0.00279291
2.96026e-15 -1.39093e-14 -8.50386e-14
0.00379346 -0.00268252 -0.000532841
0.00431162 -0.000562419 -2.85481e-05
0.00401346 -0.00209682 0.000481105
0.00222225 -0.00108929 -0.000266462
-1.92008e-15 2.50469e-15 -2.62516e-14
-0.000624277 0.00129705 -0.00215348
-3.97541e-15 2.47093e-14 1.44604e-13
4.23951e-15 -2.63641e-14 -1.54285e-13
-1.91954e-15 2.50499e-15 -2.62517e-14
-7.45737e-15 3.50332e-14 2.14188e-13
2.96006e-15 -1.39094e-14 -8.50386e-14
-3.9754e-15 2.47093e-14 1.44604e-13
0.00426545 -0.000567703 -2.67259e-05
0.000966359 -0.00186339 -0.00460837
0.000101237 -0.00200273 -0.00368606
0.00416326 -0.00138408 0.000372254
0.000105162 -0.00202037 -0.00364207
0.00010693 -0.00145656 -0.00437012
-1.91969e-15 2.50502e-15 -2.62516e-14
5.1541e-15 -3.20385e-14 -1.87495e-13
0.00191167 -0.00189436 -0.000320579
0.00432216 -0.00051504 0.000332249
-7.45739e-15 3.50333e-14 2.14188e-13
0.00437517 -0.00218304 0.000899327
-4.93641e-05 -0.000525216 0.000872041
0.00416643 -0.00216661 0.000499497
0.0043841 -0.000674882 0.000126824
5.15458e-15 -3.20384e-14 -1.87495e-13
0.00438644 -0.00218652 0.000899375
0.00467979 -0.000627901 0.000123446
0.00432803 -0.000507141 0.000334419
0.00403526 -0.00225922 -0.000511914
0.00411593 -0.00220005 0.000503428
0.00468298 -0.000664056 0.00014263

VECTORS force float
3.50703e-11 -2.6291e-11 1.58285e-11
-7.84298e-12 -1.97035e-12 -1.54897e-12
-5.30288e-11 -1.97349e-10 7.12694e-12
1.96048e-11 5.94064e-12 -2.5594e-13
6.74221e-11 -4.97814e-13 -1.31437e-12
3.04532e-11 -1.09017e-11 9.3355e-12
1.65375e-11 -3.6051e-11 1.1622e-11
2.7788e-11 2.23567e-11 -1.54376e-11
5.82906e-13 1.81261e-13 1.58876e-12
-4.61949e-11 1.36661e-12 8.61928e-12
3.42017e-11 -2.24197e-12 5.91185e-12
2.34673e-12 3.53159e-12 -5.03302e-14
-9.18573e-12 -2.50834e-11 -1.44823e-12
-1.02961e-11 4.4782e-12 -6.73416e-12
8.39403e-13 4.03393e-11 -2.19606e-11
-3.98875e-11 4.09821e-12 1.16976e-12
-4.33737e-12 -6.89841e-12 5.95309e-12
1.35057e-11 2.40899e-12 -4.65041e-12
5.77865e-11 -1.47795e-11 1.00848e-11
-2.19251e-11 4.38043e-11 -1.98487e-11
3.77138e-11 -8.68688e-12 4.7858e-12
5.92823e-11 6.83448e-11 -1.97506e-11
2.40656e-12 5.25216e-12 1.42757e-12
1.33449e-10 -7.93904e-12 -5.43209e-12
-2.17255e-12 1.40677e-11 -3.85432e-12
-2.36718e-11 -3.35742e-11 -3.24373e-11
3.46347e-11 -1.06203e-11 8.28083e-12
-2.38252e-12 -1.01742e-11 8.57121e-12
-5.87945e-11 -2.2856e-12 -3.22175e-12
2.43678e-11 7.65369e-11 -1.44001e-11
9.15094e-12 -7.39273e-12 4.79318e-12
-9.28338e-12 -8.50012e-11 5.25168e-11
4.11715e-11 -1.04478e-10 7.90109e-11
-2.39477e-12 -4.13593e-12 2.21606e-13
-3.10147e-11 2.33802e-11 -1.96614e-11
3.93657e-11 -4.84336e-11 6.53661e-11
1.77459e-11 2.98956e-12 4.95737e-15
1.57629e-11 -8.86896e-12 4.44615e-11
3.14586e-11 -1.28431e-11 2.96647e-12
6.03254e-11 4.62984e-11 1.25345e-11
6.74246e-12 -4.20801e-11 2.55019e-11
-1.64193e-12 9.47768e-11 -1.88779e-11
-1.432e-11 -1.29134e-11 3.29981e-12
-1.11463e-11 7.95904e-12 -5.49032e-13
1.68756e-11 -1.16585e-12 8.84289e-12
-1.37555e-11 -3.27468e-11 1.68034e-12
1.5481e-11 1.01476e-11 -1.39365e-12
-2.36576e-12 -4.88141e-11 7.06016e-12
-8.78627e-11 8.41246e-11 7.6733e-11
1.51691e-12 4.16149e-12 -2.23668e-12
1.25881e-11 2.30681e-11 -1.57576e-11
-1.41381e-10 -5.10591e-11 3.0559e-11
-1.52563e-11 -4.64857e-11 -1.03518e-11
-9.90592e-12 -5.66539e-12 5.98334e-13
-3.82531e-11 -1.26935e-10 7.49881e-12
-1.73629e-12 1.44316e-12 -1.09522e-12
-2.39609e-12 5.36843e-11 -9.05609e-12
1.54509e-11 -2.59864e-12 1.7407e-12
8.72587e-14 1.20918e-11 1.29337e-11
-9.91173e-12 6.81787e-11 -9.00711e-12
-1.94651e-12 4.14996e-12 9.59978e-13
-1.02738e-11 4.49891e-12 -2.79261e-12
5.36572e-12 1.56662e-11 -3.57319e-11
7.38996e-11 6.66218e-11 -1.71786e-11
2.94406e-11 -6.87337e-11 2.28916e-11
4.92358e-11 7.49494e-11 -1.90636e-12
-1.94365e-12 -5.92628e-13 3.33932e-12
-3.0956e-11 4.57422e-11 5.99029e-12
-9.62502e-13 2.65611e-12 -3.06474e-12
1.88181e-11 -1.0494e-11 3.63742e-12
-7.16969e-11 -1.00017e-10 3.62346e-11
-1.02559e-11 4.51197e-12 -1.90566e-11
6.92212e-12 1.72463e-11 -2.90276e-12
-2.60225e-12 -3.21451e-11 9.17685e-12
-7.1885e-12 -8.51002e-11 4.12278e-11
4.3191e-10 -4.05585e-11 8.7147e-11
-2.40228e-11 -1.49952e-12 -2.53386e-13
-1.34462e-10 1.11022e-10 -2.93934e-11
-2.02845e-11 -6.25208e-11 1.87448e-11
9.87161e-11 1.21769e-10 1.18047e-10
5.9078e-12 2.54125e-11 -5.2313e-12
-7.15075e-11 -1.69774e-10 1.08801e-10
-1.00223e-11 -5.54003e-11 8.52321e-12
8.9326e-12 1.13458e-11 -3.22209e-12
-4.26908e-11 -4.05627e-11 5.8083e-12
2.59097e-11 -2.01084e-11 3.06005e-12
4.68199e-11 -1.27505e-11 2.39341e-12
1.40436e-11 3.84527e-11 -1.70883e-12
1.50062e-11 2.28653e-11 -3.44602e-12
-2.64787e-11 -1.45686e-11 5.40773e-12
-1.85685e-11 -4.87709e-11 7.81386e-12
-6.84684e-11 -1.76107e-11 1.44044e-11
-5.92476e-11 -9.41882e-13 1.56044e-13
3.44785e-11 1.01156e-10 -1.58294e-11
-1.13364e-10 -1.7479e-10 5.78676e-11
-4.13322e-11 4.26574e-11 9.30863e-13
-5.73696e-10 -2.22005e-11 1.21625e-11
9.1479e-12 4.06574e-11 -9.75847e-12
6.97881e-11 5.25546e-12 -2.74543e-12
-4.78811e-11 -8.06137e-11 -4.1033e-12
7.67748e-11 -3.18313e-11 5.10339e-12
2.28585e-12 -4.3293e-12 2.86963e-12
-1.43761e-11 3.00761e-12 5.06549e-12
2.69632e-11 -5.39488e-13 -2.7425e-12
-9.85812e-12 2.08232e-11 -6.59345e-12
-2.60205e-11 -7.17958e-11 1.14942e-11
-5.22024e-12 -2.13049e-11 2.63548e-12
2.53442e-11 -1.17358e-10 -6.71984e-11
-2.49328e-11 -6.35251e-11 9.66989e-12
3.04535e-11 -2.85444e-10 -1.8173e-11
-6.50705e-12 3.9293e-11 2.02237e-12
-1.44721e-10 1.05623e-10 -9.7655e-12
1.58505e-12 9.51073e-12 -7.93255e-12
1.40849e-10 -2.25425e-10 -2.50017e-11
6.26081e-12 -9.35276e-12 8.17747e-12
-2.39952e-11 -3.68252e-11 1.94142e-11
1.1452e-11 -3.14301e-12 1.74214e-12
-3.4376e-11 5.0117e-11 -8.02043e-12
3.4753e-10 -4.36055e-10 5.10693e-10
1.05202e-10 7.64674e-12 -1.46876e-12
1.34633e-11 1.8331e-11 1.25915e-12
2.25214e-11 2.42187e-11 -1.56722e-11
-9.57782e-11 7.79176e-10 -1.03642e-10
5.31907e-13 -5.04552e-11 8.45737e-12
-4.22262e-11 6.31103e-11 7.13221e-12
1.82914e-11 6.43011e-11 -6.45076e-12
-1.53734e-11 5.51563e-11 4.11708e-11
4.39375e-11 -4.02732e-11 1.60533e-11
-3.1899e-11 -1.02108e-10 7.32494e-11
3.48048e-13 2.87438e-11 -2.53843e-12
-1.12328e-11 -3.84345e-11 2.78729e-11
-1.15463e-10 -2.25389e-11 -6.92526e-12
2.31064e-12 1.01454e-10 -1.60597e-11
9.46455e-13 -1.04343e-11 1.49529e-12
2.00706e-11 -5.63996e-12 1.00382e-12
2.4309e-11 1.45569e-11 -2.20566e-12
-9.97466e-11 -1.22777e-10 4.43286e-11
-4.0158e-12 1.67337e-11 -3.16004e-12
-1.59769e-12 -1.90236e-11 2.24095e-12
-7.89756e-13 -2.99154e-11 2.80269e-12
-1.03942e-10 -1.22087e-11 4.31845e-12
2.55429e-10 -3.4761e-11 3.50704e-11
3.22559e-12 2.26334e-11 -3.93327e-12
-2.77918e-11 -1.86772e-11 3.06557e-12
3.12589e-12 8.75113e-14 -2.16508e-13
4.81141e-10 7.68591e-11 2.63812e-11
-4.29233e-12 -4.05014e-12 2.98246e-12
-5.01489e-11 -4.15429e-10 -2.9224e-11
4.8036e-10 -9.32478e-11 2.09646e-11
3.15547e-11 2.4736e-11 -1.42494e-12
2.11316e-11 -4.54064e-11 8.09731e-12
-1.52504e-11 5.03177e-11 1.94312e-11
5.53906e-11 -1.93541e-11 1.52871e-11
7.53036e-10 5.6051e-10 -1.27391e-11
5.4444e-11 -1.98482e-11 4.05123e-12
1.35287e-11 1.33234e-11 3.46418e-12
-9.96589e-12 -5.72511e-11 1.32514e-11
1.43145e-10 -3.24542e-10 -4.04086e-11
3.72578e-13 2.24777e-11 -1.70738e-11
1.68208e-11 4.02252e-12 1.52739e-11
3.12604e-12 -1.00679e-12 1.88184e-13
4.05779e-10 -2.32819e-10 -5.6022e-11
5.70682e-11 1.99429e-10 1.16933e-11
-4.27457e-12 3.68809e-11 -5.57824e-12
-1.90311e-10 2.16381e-10 3.23649e-11
2.18504e-11 5.13258e-11 -7.88544e-12
-6.67035e-11 9.6975e-11 5.16539e-11
-1.24962e-10 -2.46516e-10 3.55034e-11
-7.00876e-12 -1.05687e-10 -1.0972e-10
1.10506e-24 2.58494e-26 0.0
1.60266e-24 2.58494e-25 0.0
-2.45461e-11 -1.38782e-10 -1.31128e-11
-1.1025e-11 -2.59591e-11 4.30119e-12
-3.2528e-12 1.95781e-11 9.83247e-11
-1.87515e-11 3.49432e-11 -3.09322e-11
8.74984e-11 -5.96985e-11 -8.94017e-12
7.28963e-11 -1.4237e-10 2.51495e-11
3.74073e-10 5.78201e-10 7.01932e-11
-8.15436e-11 -3.63139e-10 1.55614e-10
2.86219e-12 5.8404e-12 -4.22209e-12
-8.42239e-12 2.16417e-11 -3.42386e-12
6.65167e-11 3.60453e-12 -9.95955e-13
4.37791e-10 7.14425e-10 -2.53847e-11
1.11763e-11 -6.69591e-11 1.50629e-11
2.69167e-10 -4.53297e-10 -3.62614e-11
1.89569e-11 2.58222e-11 -4.04323e-12
-4.33927e-11 -1.36899e-12 6.71135e-13
-2.58494e-25 2.58494e-26 0.0
4.69458e-10 -3.01386e-10 -7.48505e-13
-6.02921e-12 -1.17852e-12 1.03136e-12
-2.19528e-10 -2.41875e-10 5.16454e-11
2.45701e-10 -1.26406e-10 -2.34917e-11
7.69359e-10 1.27679e-10 -2.49001e-10
3.03084e-24 -2.84343e-25 2.06795e-25
3.76625e-11 -1.298e-10 -6.8447e-12
1.11704e-11 -2.68923e-12 2.33976e-13
6.19052e-11 2.30079e-11 -5.4164e-11
-7.81812e-11 -2.28405e-10 -1.11861e-11
4.70686e-11 9.19181e-11 1.0735e-12
-2.04221e-10 -2.7074e-10 3.61867e-11
1.45879e-09 -5.22399e-11 -1.06955e-10
-1.64014e-10 -1.42755e-10 -3.42316e-11
1.69173e-11 -1.30656e-10 3.87897e-12
-9.87364e-11 -1.34858e-11 -7.06444e-12
-7.01061e-12 -2.65318e-12 -6.99633e-13
-6.03322e-11 -9.75179e-12 1.76878e-14
-2.93327e-11 -4.15945e-11 -1.76318e-11
2.01531e-10 -3.11651e-10 -3.29241e-11
-6.89909e-11 1.97641e-11 -3.76087e-12
-2.43434e-11 -7.34941e-11 1.23203e-11
1.91178e-10 1.30322e-10 -1.79166e-11
2.02142e-11 -4.15239e-11 3.00351e-11
1.35791e-09 -5.90328e-10 1.20789e-10
-1.11275e-11 -1.09253e-11 7.15925e-12
-2.42054e-11 5.87832e-11 -2.45478e-11
-3.10951e-10 5.07757e-10 6.23914e-10
6.61368e-12 -2.00584e-11 5.56587e-12
2.30225e-10 -8.99046e-10 -1.10395e-10
4.49366e-11 5.51937e-11 -3.86888e-11
-5.00928e-10 2.33248e-10 5.51084e-11
6.14864e-11 1.08216e-10 -2.355e-11
0.0 0.0 0.0
-5.23055e-10 2.06224e-10 6.8446e-11
4.30945e-11 -3.42779e-11 2.93948e-12
-2.91339e-12 -4.98275e-11 3.46638e-12
-1.07635e-10 9.09835e-11 -1.57327e-11
-8.75002e-24 -1.70606e-24 2.06795e-25
4.32977e-25 -5.16988e-25 2.06795e-25
2.10026e-24 6.72084e-25 0.0
-5.07615e-10 2.31101e-10 6.73715e-11
2.58494e-26 0.0 0.0
-9.95202e-25 4.91138e-25 0.0
4.00264e-11 6.49616e-11 9.31233e-12
-1.68021e-25 0.0 0.0
-1.12186e-23 9.82277e-25 6.20385e-25
2.83309e-23 8.6854e-24 5.58347e-24
2.13258e-23 5.99706e-24 0.0
2.17888e-11 1.42207e-11 -1.02262e-11
-8.11212e-12 8.56422e-11 -1.33411e-11
2.10528e-18 1.54624e-17 4.22759e-18
1.63818e-11 8.64959e-12 -6.52227e-12
1.25376e-10 -8.44175e-12 9.07049e-12
1.11152e-24 -1.55096e-25 -2.06795e-25
6.33434e-13 -1.13215e-10 -3.09288e-12
4.30265e-10 -1.00252e-10 -5.12231e-11
5.11714e-11 9.83423e-11 -1.51494e-11
-5.87466e-10 -3.1726e-10 1.60798e-11
6.46235e-26 1.60266e-24 2.06795e-25
2.90159e-24 2.97268e-24 -4.1359e-25
1.66809e-10 -4.53139e-11 -1.80141e-11
1.43678e-11 -8.79344e-11 1.22161e-11
8.27181e-25 5.16988e-26 -2.06795e-25
1.56389e-24 4.65289e-25 0.0
-6.94286e-12 -3.15465e-10 -9.11977e-10
-1.80946e-24 -4.91138e-25 2.06795e-25
-4.55733e-10 2.66706e-10 4.99446e-12
6.37644e-12 1.84945e-13 -2.95257e-13
9.09084e-11 1.12332e-10 -3.81281e-12
-4.41769e-10 1.54014e-10 4.80701e-11
7.75482e-26 -7.75482e-26 0.0
-6.39815e-11 1.19364e-10 -1.98026e-10
-3.23117e-26 0.0 0.0
-3.64476e-24 0.0 -2.06795e-25
5.05356e-24 1.55096e-25 -2.06795e-25
3.61892e-25 -1.03398e-25 2.06795e-25
2.57848e-24 6.72084e-25 -2.06795e-25
3.87741e-26 0.0 0.0
2.64058e-11 -3.70923e-11 4.92808e-12
-3.43802e-12 7.6065e-12 1.69559e-11
2.93533e-12 1.20299e-10 2.49879e-10
-7.77474e-11 5.82982e-11 -3.06202e-13
-1.40863e-12 9.45466e-12 1.70521e-11
0.0 0.0 -1.43822e-09
9.17653e-25 -4.65289e-25 -2.06795e-25
6.47527e-24 2.06795e-25 4.1359e-25
-3.99935e-10 3.63736e-10 6.40029e-11
-3.83825e-11 2.29574e-13 -8.83103e-12
-4.1876e-24 -6.46235e-25 -2.06795e-25
4.47294e-11 -7.3833e-11 1.76394e-11
-1.24172e-12 -1.36209e-11 2.26153e-11
-8.08422e-11 6.10975e-11 -8.87989e-12
-7.09671e-11 2.4236e-11 -8.47062e-12
-1.0986e-25 0.0 0.0
-8.93243e-11 -4.17183e-11 8.98843e-12
-2.75818e-11 5.1567e-11 3.98917e-12
3.42576e-11 -1.46034e-11 2.26891e-11
-2.92108e-10 -5.1088e-10 6.15383e-13
2.7695e-11 1.02691e-10 -2.22737e-11
4.96425e-11 1.16516e-10 -2.09043e-11
