# vtk DataFile Version 3.0
LIGGGHTS particles timestep 56000000
ASCII
DATASET POLYDATA
POINTS 283 float
0.269448 0.0164019 0.00774594
0.26977 0.0176097 0.00714695
0.26984 0.0181748 0.00697812
0.269818 0.0180778 0.00699193
0.269157 0.015526 0.00878164
0.275428 0.0163538 0.00787205
0.269458 0.0160931 0.00808014
0.269135 0.0154658 0.00885855
0.275657 0.0173341 0.00731347
0.27013 0.0182706 0.00697192
0.269623 0.0167652 0.00752683
0.275618 0.0171411 0.00734895
0.27012 0.0178186 0.0070388
0.26311 0.0154802 0.00903076
0.270141 0.0179154 0.00702499
0.263352 0.0162346 0.00827287
0.27578 0.0179116 0.00720752
0.26976 0.0177862 0.00703364
0.269833 0.0172996 0.00720992
0.269179 0.0155866 0.00870508
0.269883 0.0183684 0.00695055
0.27558 0.0169482 0.00738462
0.269986 0.0175925 0.00706868
0.275523 0.0166922 0.00751647
0.263365 0.0159908 0.00852178
0.269721 0.017591 0.00706155
0.275408 0.0162869 0.00794363
0.269959 0.0183038 0.00696224
0.270081 0.0176244 0.00706656
0.275447 0.0164209 0.00780034
0.269809 0.0178037 0.00711876
0.270162 0.0180121 0.00701121
0.275716 0.0176234 0.00726028
0.269466 0.0161529 0.00800032
0.270025 0.0177867 0.00704091
0.269265 0.0158247 0.00840017
0.269777 0.017443 0.00713091
0.269909 0.0172416 0.00724126
0.269937 0.0182071 0.00697601
0.269817 0.0176252 0.00705912
0.275468 0.0164877 0.0077288
0.275544 0.0167689 0.00745588
0.269222 0.0157064 0.00855093
0.269814 0.017215 0.00725964
0.275504 0.0166221 0.00758523
0.269931 0.0177546 0.00704306
0.263958 0.0187003 0.00696001
0.263916 0.0176956 0.00707789
0.270109 0.0181739 0.00698569
0.275486 0.016555 0.007657
0.263564 0.0166091 0.00790071
0.275599 0.0170446 0.00736673
0.269929 0.0179177 0.00710131
0.2692 0.0156463 0.00862784
0.269699 0.0167074 0.0075581
0.269875 0.0179165 0.00701744
0.27556 0.0168517 0.00740219
0.269504 0.0162732 0.0078452
0.264095 0.0181138 0.00702051
0.270184 0.0181088 0.00699744
0.263619 0.0165006 0.00801362
0.269776 0.0170458 0.00735913
0.275834 0.0177509 0.00724079
0.263604 0.0167473 0.00776169
0.275638 0.0172376 0.0073312
0.269249 0.0157787 0.00848752
0.269567 0.0169077 0.00744583
0.269447 0.01643 0.00784189
0.275759 0.0178156 0.00722511
0.269926 0.0185618 0.00692301
0.263175 0.0156867 0.00882321
0.263387 0.0160597 0.00845259
0.269797 0.0175321 0.00708979
0.264139 0.0183075 0.00699597
0.263684 0.0167071 0.00780616
0.263212 0.0157526 0.00875777
0.275696 0.017527 0.007278
0.263539 0.0165435 0.00797196
0.269916 0.0181104 0.00698978
0.275677 0.0174306 0.00729572
0.269718 0.0167919 0.00750837
0.269911 0.0176574 0.00705696
0.269643 0.0168498 0.0074771
0.269524 0.0163429 0.00777527
0.26987 0.0170724 0.00734074
0.269872 0.0174694 0.00711008
0.2697 0.0171036 0.00732788
0.269991 0.0180455 0.0070015
0.269928 0.0173262 0.00719153
0.269758 0.0173575 0.00717873
0.263744 0.0169144 0.00759761
0.26991 0.0178205 0.00711524
0.264011 0.017726 0.00706952
0.26995 0.0178517 0.00702917
0.270044 0.0174385 0.00712266
0.263663 0.0166382 0.00787543
0.263936 0.0177928 0.00706568
0.269564 0.0165117 0.00767594
0.263132 0.015549 0.00896158
0.270045 0.0178837 0.00702705
0.269799 0.0179805 0.00700584
0.269905 0.0184651 0.00693678
0.269372 0.0161238 0.00801713
0.26341 0.0161284 0.00838356
0.270055 0.0183357 0.00696018
0.263583 0.0166784 0.00783096
0.269741 0.0176891 0.00704758
0.26979 0.0177065 0.00713268
0.269604 0.0166807 0.00757654
0.264117 0.0182107 0.00700824
0.275387 0.0162203 0.008015
0.269947 0.0174113 0.00714276
0.269832 0.0169032 0.00744021
0.269606 0.0170769 0.00734635
0.264055 0.0184575 0.00706193
0.27005 0.0181969 0.00706321
0.270087 0.0180772 0.00699946
0.269679 0.0166228 0.00760785
0.26324 0.0158977 0.00862416
0.270152 0.0183675 0.00695813
0.263344 0.015922 0.00859099
0.269364 0.0160667 0.00809884
0.264013 0.0185395 0.0069757
0.269663 0.0173307 0.00719713
0.269795 0.0171304 0.00730939
0.269891 0.0175595 0.00707094
0.269662 0.0169344 0.00742736
0.263893 0.0184097 0.00699681
0.269509 0.0166541 0.00759497
0.269719 0.0171882 0.00727814
0.269737 0.0168765 0.00745863
0.270077 0.0184323 0.00694642
0.264031 0.0178232 0.0070573
0.269286 0.0158847 0.00832293
0.269967 0.0174995 0.0071002
0.269853 0.0173841 0.00716023
0.269548 0.0168231 0.00749556
0.263154 0.0156177 0.00889256
0.269829 0.0179008 0.00710488
0.269851 0.0169878 0.00739047
0.269544 0.0164273 0.00772561
0.263803 0.0171216 0.00738913
0.270205 0.0182055 0.00698367
0.263305 0.0160975 0.00841048
0.263435 0.0161968 0.00831498
0.264022 0.0183654 0.00708207
0.269894 0.0180136 0.00700356
0.264052 0.0179201 0.00704504
0.269889 0.017157 0.007291
0.263843 0.0174076 0.00711479
0.269681 0.017019 0.00737762
0.264074 0.018017 0.00703277
0.269644 0.0172461 0.00724687
0.263915 0.0185066 0.00698454
0.269756 0.0169612 0.00740887
0.263517 0.0164719 0.0080384
0.270006 0.0176896 0.0070548
0.26386 0.0180446 0.0071273
0.2635 0.0167159 0.00778908
0.269949 0.0180152 0.00708715
0.26385 0.018216 0.00702134
0.269855 0.0178194 0.00703134
0.263845 0.0173316 0.00717969
0.263727 0.0176334 0.00709559
0.263327 0.0161662 0.00834145
0.26399 0.0184405 0.00698831
0.263814 0.0171915 0.00731844
0.263705 0.0167761 0.00773686
0.270002 0.0184972 0.0069347
0.264064 0.0183742 0.00699211
0.269878 0.0182294 0.00705354
0.264021 0.0181805 0.00701664
0.26997 0.0179488 0.00701528
0.263625 0.0168164 0.00769225
0.263705 0.0170927 0.0074143
0.275737 0.0177195 0.00724269
0.269469 0.0164852 0.00769442
0.269428 0.0163208 0.00780069
0.263392 0.0163763 0.00813761
0.269682 0.0174153 0.00714739
0.263753 0.017302 0.00720325
0.270024 0.0179501 0.00709886
0.269329 0.0160048 0.00816944
0.263806 0.0180221 0.00704589
0.263761 0.0169837 0.00752777
0.269584 0.0165962 0.00762624
0.263936 0.0186034 0.00697227
0.263881 0.0181416 0.00711506
0.263261 0.0159598 0.00854887
0.263732 0.0172329 0.00727265
0.263925 0.0178929 0.00714818
0.270101 0.0177215 0.00705268
0.263785 0.0179252 0.00705815
0.263481 0.0166468 0.00785871
0.263835 0.0172604 0.00724915
0.263644 0.016569 0.00794506
0.264158 0.0184077 0.00698344
0.263283 0.0160286 0.00847966
0.269848 0.0179979 0.00709098
0.269489 0.0165695 0.00764467
0.275823 0.0181038 0.00717235
0.269586 0.0169923 0.00739609
0.263506 0.0164021 0.00810909
0.269528 0.0167386 0.00754527
0.269486 0.0162138 0.00792357
0.269391 0.0161841 0.0079399
0.270227 0.0183022 0.00696991
0.26337 0.016304 0.00820302
0.270066 0.0179805 0.00701324
0.263452 0.0162662 0.00824513
0.263218 0.0158226 0.00868665
0.275802 0.0180077 0.00718993
0.263767 0.0174726 0.0071112
0.263897 0.0175984 0.0070914
0.263645 0.0168856 0.00762267
0.263841 0.0177617 0.00707413
0.263839 0.0179462 0.00713976
0.263435 0.0165095 0.00799649
0.263785 0.0170523 0.00745896
0.269738 0.0172728 0.00722839
0.269836 0.0177223 0.00704523
0.263622 0.0171313 0.00737379
0.263562 0.016923 0.00758099
0.263688 0.0174528 0.00716838
0.263664 0.0169548 0.00755299
0.2576 0.0170629 0.00736949
0.263543 0.0168538 0.00765053
0.263681 0.0170241 0.00748316
0.257581 0.0169808 0.00742329
0.257619 0.017145 0.00731569
0.263522 0.0167849 0.00771981
0.257657 0.0173092 0.00720808
0.270061 0.0175274 0.00708043
0.269701 0.0174999 0.00709769
0.263456 0.0165784 0.0079273
0.269309 0.0159496 0.0082503
0.215741 0.019982 0.00563384
0.257638 0.0172271 0.00726187
0.263968 0.0183436 0.00700058
0.263876 0.0175013 0.00710444
0.263474 0.016335 0.00817603
0.263881 0.017956 0.00704967
0.263709 0.0175472 0.00714317
0.263821 0.0176644 0.00708634
0.263946 0.0182466 0.00701287
0.270012 0.0181422 0.00698773
0.263598 0.0170634 0.00744328
0.263765 0.017828 0.00707037
0.257696 0.0174791 0.00711098
0.263749 0.0173758 0.00712787
0.263424 0.0164437 0.00807097
0.269408 0.0162441 0.00786162
0.264043 0.0182774 0.00700438
0.263871 0.0183129 0.00700907
0.264212 0.01824 0.00699998
0.263956 0.0178899 0.00705343
0.26367 0.0173561 0.007187
0.263828 0.018119 0.00703362
0.263861 0.017859 0.00706191
0.263944 0.0179905 0.00713526
0.263924 0.0181497 0.00702514
0.263649 0.0172694 0.00723185
0.269745 0.0175206 0.00718521
0.404182 0.0211142 0.0056569
0.257733 0.0176757 0.00711423
0.264099 0.0184879 0.00697725
0.257714 0.0175774 0.0071126
0.25768 0.0173906 0.00715451
0.263722 0.0171621 0.00734433
0.263581 0.0169922 0.00751126
0.263903 0.0180529 0.0070374
0.270034 0.018239 0.00697395
0.2638 0.0175661 0.00709873
0.263978 0.0179868 0.00704117
0.263746 0.0177306 0.00708258
0.263902 0.0182407 0.00710263
0.26998 0.0184005 0.00694847
0.263639 0.0171995 0.00730266
0.263725 0.0168452 0.00766729
0.269625 0.0171615 0.00729661
0.269779 0.0178833 0.00701974
0.263999 0.0180837 0.00702891
0.269861 0.0182715 0.00696435

VERTICES 283 566
1 0
1 1
1 2
1 3
1 4
1 5
1 6
1 7
1 8
1 9
1 10
1 11
1 12
1 13
1 14
1 15
1 16
1 17
1 18
1 19
1 20
1 21
1 22
1 23
1 24
1 25
1 26
1 27
1 28
1 29
1 30
1 31
1 32
1 33
1 34
1 35
1 36
1 37
1 38
1 39
1 40
1 41
1 42
1 43
1 44
1 45
1 46
1 47
1 48
1 49
1 50
1 51
1 52
1 53
1 54
1 55
1 56
1 57
1 58
1 59
1 60
1 61
1 62
1 63
1 64
1 65
1 66
1 67
1 68
1 69
1 70
1 71
1 72
1 73
1 74
1 75
1 76
1 77
1 78
1 79
1 80
1 81
1 82
1 83
1 84
1 85
1 86
1 87
1 88
1 89
1 90
1 91
1 92
1 93
1 94
1 95
1 96
1 97
1 98
1 99
1 100
1 101
1 102
1 103
1 104
1 105
1 106
1 107
1 108
1 109
1 110
1 111
1 112
1 113
1 114
1 115
1 116
1 117
1 118
1 119
1 120
1 121
1 122
1 123
1 124
1 125
1 126
1 127
1 128
1 129
1 130
1 131
1 132
1 133
1 134
1 135
1 136
1 137
1 138
1 139
1 140
1 141
1 142
1 143
1 144
1 145
1 146
1 147
1 148
1 149
1 150
1 151
1 152
1 153
1 154
1 155
1 156
1 157
1 158
1 159
1 160
1 161
1 162
1 163
1 164
1 165
1 166
1 167
1 168
1 169
1 170
1 171
1 172
1 173
1 174
1 175
1 176
1 177
1 178
1 179
1 180
1 181
1 182
1 183
1 184
1 185
1 186
1 187
1 188
1 189
1 190
1 191
1 192
1 193
1 194
1 195
1 196
1 197
1 198
1 199
1 200
1 201
1 202
1 203
1 204
1 205
1 206
1 207
1 208
1 209
1 210
1 211
1 212
1 213
1 214
1 215
1 216
1 217
1 218
1 219
1 220
1 221
1 222
1 223
1 224
1 225
1 226
1 227
1 228
1 229
1 230
1 231
1 232
1 233
1 234
1 235
1 236
1 237
1 238
1 239
1 240
1 241
1 242
1 243
1 244
1 245
1 246
1 247
1 248
1 249
1 250
1 251
1 252
1 253
1 254
1 255
1 256
1 257
1 258
1 259
1 260
1 261
1 262
1 263
1 264
1 265
1 266
1 267
1 268
1 269
1 270
1 271
1 272
1 273
1 274
1 275
1 276
1 277
1 278
1 279
1 280
1 281
1 282

POINT_DATA 283
SCALARS id int 1
LOOKUP_TABLE default
1
2
3
4
5
6
7
8
9
10
11
12
13
14
15
16
18
19
20
21
22
24
25
26
27
29
30
31
32
33
34
35
36
37
38
40
41
42
43
44
45
46
47
48
49
50
52
55
56
57
58
59
60
61
62
63
64
65
66
67
68
69
70
71
72
73
74
75
76
77
78
79
80
81
82
83
84
85
86
87
88
89
90
91
92
93
94
95
96
98
99
100
101
102
103
104
105
106
107
108
109
110
111
112
113
114
115
116
117
118
119
120
121
122
123
124
125
126
127
128
129
130
131
132
133
134
135
136
137
138
139
140
141
142
144
145
146
147
148
149
150
152
153
154
155
156
157
158
159
160
161
162
164
165
166
167
168
169
170
171
172
173
174
175
176
177
178
179
180
181
182
183
184
185
186
187
188
189
190
191
192
193
194
195
196
197
198
199
200
201
202
203
204
205
206
207
208
209
210
211
213
214
215
217
218
219
220
221
222
223
224
225
226
227
228
229
230
231
232
233
234
235
236
237
238
239
241
242
243
244
245
246
247
248
249
250
251
252
253
254
255
256
257
258
259
260
261
262
263
264
265
267
268
269
270
271
272
273
274
275
276
277
278
279
280
281
282
283
284
285
286
287
288
289
290
292
293
294
295
296
297
298
300

SCALARS type int 1
LOOKUP_TABLE default
1
1
1
1
1
1
1
1
1
1
1
1
1
1
1
1
1
1
1
1
1
1
1
1
1
1
1
1
1
1
1
1
1
1
1
1
1
1
1
1
1
1
1
1
1
1
1
1
1
1
1
1
1
1
1
1
1
1
1
1
1
1
1
1
1
1
1
1
1
1
1
1
1
1
1
1
1
1
1
1
1
1
1
1
1
1
1
1
1
1
1
1
1
1
1
1
1
1
1
1
1
1
1
1
1
1
1
1
1
1
1
1
1
1
1
1
1
1
1
1
1
1
1
1
1
1
1
1
1
1
1
1
1
1
1
1
1
1
1
1
1
1
1
1
1
1
1
1
1
1
1
1
1
1
1
1
1
1
1
1
1
1
1
1
1
1
1
1
1
1
1
1
1
1
1
1
1
1
1
1
1
1
1
1
1
1
1
1
1
1
1
1
1
1
1
1
1
1
1
1
1
1
1
1
1
1
1
1
1
1
1
1
1
1
1
1
1
1
1
1
1
1
1
1
1
1
1
1
1
1
1
1
1
1
1
1
1
1
1
1
1
1
1
1
1
1
1
1
1
1
1
1
1
1
1
1
1
1
1
1
1
1
1
1
1
1
1
1
1
1
1
1
1
1
1
1
1
1
1
1
1
1
1

SCALARS radius float 1
LOOKUP_TABLE default
5e-05
5e-05
5e-05
5e-05
5e-05
5e-05
5e-05
5e-05
5e-05
5e-05
5e-05
5e-05
5e-05
5e-05
5e-05
5e-05
5e-05
5e-05
5e-05
5e-05
5e-05
5e-05
5e-05
5e-05
5e-05
5e-05
5e-05
5e-05
5e-05
5e-05
5e-05
5e-05
5e-05
5e-05
5e-05
5e-05
5e-05
5e-05
5e-05
5e-05
5e-05
5e-05
5e-05
5e-05
5e-05
5e-05
5e-05
5e-05
5e-05
5e-05
5e-05
5e-05
5e-05
5e-05
5e-05
5e-05
5e-05
5e-05
5e-05
5e-05
5e-05
5e-05
5e-05
5e-05
5e-05
5e-05
5e-05
5e-05
5e-05
5e-05
5e-05
5e-05
5e-05
5e-05
5e-05
5e-05
5e-05
5e-05
5e-05
5e-05
5e-05
5e-05
5e-05
5e-05
5e-05
5e-05
5e-05
5e-05
5e-05
5e-05
5e-05
5e-05
5e-05
5e-05
5e-05
5e-05
5e-05
5e-05
5e-05
5e-05
5e-05
5e-05
5e-05
5e-05
5e-05
5e-05
5e-05
5e-05
5e-05
5e-05
5e-05
5e-05
5e-05
5e-05
5e-05
5e-05
5e-05
5e-05
5e-05
5e-05
5e-05
5e-05
5e-05
5e-05
5e-05
5e-05
5e-05
5e-05
5e-05
5e-05
5e-05
5e-05
5e-05
5e-05
5e-05
5e-05
5e-05
5e-05
5e-05
5e-05
5e-05
5e-05
5e-05
5e-05
5e-05
5e-05
5e-05
5e-05
5e-05
5e-05
5e-05
5e-05
5e-05
5e-05
5e-05
5e-05
5e-05
5e-05
5e-05
5e-05
5e-05
5e-05
5e-05
5e-05
5e-05
5e-05
5e-05
5e-05
5e-05
5e-05
5e-05
5e-05
5e-05
5e-05
5e-05
5e-05
5e-05
5e-05
5e-05
5e-05
5e-05
5e-05
5e-05
5e-05
5e-05
5e-05
5e-05
5e-05
5e-05
5e-05
5e-05
5e-05
5e-05
5e-05
5e-05
5e-05
5e-05
5e-05
5e-05
5e-05
5e-05
5e-05
5e-05
5e-05
5e-05
5e-05
5e-05
5e-05
5e-05
5e-05
5e-05
5e-05
5e-05
5e-05
5e-05
5e-05
5e-05
5e-05
5e-05
5e-05
5e-05
5e-05
5e-05
5e-05
5e-05
5e-05
5e-05
5e-05
5e-05
5e-05
5e-05
5e-05
5e-05
5e-05
5e-05
5e-05
5e-05
5e-05
5e-05
5e-05
5e-05
5e-05
5e-05
5e-05
5e-05
5e-05
5e-05
5e-05
5e-05
5e-05
5e-05
5e-05
5e-05
5e-05
5e-05
5e-05
5e-05
5e-05
5e-05
5e-05
5e-05
5e-05
5e-05
5e-05
5e-05
5e-05
5e-05
5e-05
5e-05
5e-05
5e-05
5e-05
5e-05
5e-05
5e-05
5e-05
5e-05
5e-05
5e-05
5e-05
5e-05
5e-05
5e-05

SCALARS mass float 1
LOOKUP_TABLE default
1.46608e-10
1.46608e-10
1.46608e-10
1.46608e-10
1.46608e-10
1.46608e-10
1.46608e-10
1.46608e-10
1.46608e-10
1.46608e-10
1.46608e-10
1.46608e-10
1.46608e-10
1.46608e-10
1.46608e-10
1.46608e-10
1.46608e-10
1.46608e-10
1.46608e-10
1.46608e-10
1.46608e-10
1.46608e-10
1.46608e-10
1.46608e-10
1.46608e-10
1.46608e-10
1.46608e-10
1.46608e-10
1.46608e-10
1.46608e-10
1.46608e-10
1.46608e-10
1.46608e-10
1.46608e-10
1.46608e-10
1.46608e-10
1.46608e-10
1.46608e-10
1.46608e-10
1.46608e-10
1.46608e-10
1.46608e-10
1.46608e-10
1.46608e-10
1.46608e-10
1.46608e-10
1.46608e-10
1.46608e-10
1.46608e-10
1.46608e-10
1.46608e-10
1.46608e-10
1.46608e-10
1.46608e-10
1.46608e-10
1.46608e-10
1.46608e-10
1.46608e-10
1.46608e-10
1.46608e-10
1.46608e-10
1.46608e-10
1.46608e-10
1.46608e-10
1.46608e-10
1.46608e-10
1.46608e-10
1.46608e-10
1.46608e-10
1.46608e-10
1.46608e-10
1.46608e-10
1.46608e-10
1.46608e-10
1.46608e-10
1.46608e-10
1.46608e-10
1.46608e-10
1.46608e-10
1.46608e-10
1.46608e-10
1.46608e-10
1.46608e-10
1.46608e-10
1.46608e-10
1.46608e-10
1.46608e-10
1.46608e-10
1.46608e-10
1.46608e-10
1.46608e-10
1.46608e-10
1.46608e-10
1.46608e-10
1.46608e-10
1.46608e-10
1.46608e-10
1.46608e-10
1.46608e-10
1.46608e-10
1.46608e-10
1.46608e-10
1.46608e-10
1.46608e-10
1.46608e-10
1.46608e-10
1.46608e-10
1.46608e-10
1.46608e-10
1.46608e-10
1.46608e-10
1.46608e-10
1.46608e-10
1.46608e-10
1.46608e-10
1.46608e-10
1.46608e-10
1.46608e-10
1.46608e-10
1.46608e-10
1.46608e-10
1.46608e-10
1.46608e-10
1.46608e-10
1.46608e-10
1.46608e-10
1.46608e-10
1.46608e-10
1.46608e-10
1.46608e-10
1.46608e-10
1.46608e-10
1.46608e-10
1.46608e-10
1.46608e-10
1.46608e-10
1.46608e-10
1.46608e-10
1.46608e-10
1.46608e-10
1.46608e-10
1.46608e-10
1.46608e-10
1.46608e-10
1.46608e-10
1.46608e-10
1.46608e-10
1.46608e-10
1.46608e-10
1.46608e-10
1.46608e-10
1.46608e-10
1.46608e-10
1.46608e-10
1.46608e-10
1.46608e-10
1.46608e-10
1.46608e-10
1.46608e-10
1.46608e-10
1.46608e-10
1.46608e-10
1.46608e-10
1.46608e-10
1.46608e-10
1.46608e-10
1.46608e-10
1.46608e-10
1.46608e-10
1.46608e-10
1.46608e-10
1.46608e-10
1.46608e-10
1.46608e-10
1.46608e-10
1.46608e-10
1.46608e-10
1.46608e-10
1.46608e-10
1.46608e-10
1.46608e-10
1.46608e-10
1.46608e-10
1.46608e-10
1.46608e-10
1.46608e-10
1.46608e-10
1.46608e-10
1.46608e-10
1.46608e-10
1.46608e-10
1.46608e-10
1.46608e-10
1.46608e-10
1.46608e-10
1.46608e-10
1.46608e-10
1.46608e-10
1.46608e-10
1.46608e-10
1.46608e-10
1.46608e-10
1.46608e-10
1.46608e-10
1.46608e-10
1.46608e-10
1.46608e-10
1.46608e-10
1.46608e-10
1.46608e-10
1.46608e-10
1.46608e-10
1.46608e-10
1.46608e-10
1.46608e-10
1.46608e-10
1.46608e-10
1.46608e-10
1.46608e-10
1.46608e-10
1.46608e-10
1.46608e-10
1.46608e-10
1.46608e-10
1.46608e-10
1.46608e-10
1.46608e-10
1.46608e-10
1.46608e-10
1.46608e-10
1.46608e-10
1.46608e-10
1.46608e-10
1.46608e-10
1.46608e-10
1.46608e-10
1.46608e-10
1.46608e-10
1.46608e-10
1.46608e-10
1.46608e-10
1.46608e-10
1.46608e-10
1.46608e-10
1.46608e-10
1.46608e-10
1.46608e-10
1.46608e-10
1.46608e-10
1.46608e-10
1.46608e-10
1.46608e-10
1.46608e-10
1.46608e-10
1.46608e-10
1.46608e-10
1.46608e-10
1.46608e-10
1.46608e-10
1.46608e-10
1.46608e-10
1.46608e-10
1.46608e-10
1.46608e-10
1.46608e-10
1.46608e-10
1.46608e-10
1.46608e-10
1.46608e-10
1.46608e-10
1.46608e-10
1.46608e-10
1.46608e-10
1.46608e-10
1.46608e-10
1.46608e-10
1.46608e-10
1.46608e-10
1.46608e-10
1.46608e-10
1.46608e-10
1.46608e-10
1.46608e-10

VECTORS velocity float
0.00449732 -0.000227515 0.000253967
0.00443219 -0.000261409 0.000173887
0.00477747 -0.000324312 0.000180118
0.00476082 -0.000349422 0.000182144
0.00462598 0.000205818 0.000847339
0.00435936 -0.000498369 0.000219879
0.0046543 0.000257779 0.000783735
0.00461441 0.000210825 0.000836925
0.00422113 -0.000426848 0.00026534
0.00479938 -0.00037508 0.000188597
0.00425202 -0.000282675 3.25503e-05
0.00423757 -0.000428184 0.000266056
0.00450701 -0.000300515 0.000169411
0.00470942 0.000482137 -0.000284209
0.00468842 -0.000341371 0.000180463
0.00467941 0.000488918 -0.000292427
0.00448166 -0.000474254 0.000285633
0.00440237 -0.000255331 0.000162729
0.00436273 -0.000330803 5.62904e-05
0.00463639 0.000200423 0.00085787
0.00478172 -0.000392491 0.000190641
0.00434874 -0.000450182 0.000278046
0.00440171 -0.000277944 0.000164835
0.00445288 -0.000505008 0.000237539
0.0046624 0.00047243 -0.000276452
0.00442913 -0.000303875 0.000171383
0.00464144 -0.00055029 0.000254412
0.0047838 -0.000384097 0.000189213
0.00440325 -0.000285546 0.000163851
0.00438412 -0.000502613 0.000222566
0.00441621 -0.000256885 0.000163821
0.00476913 -0.000366485 0.000186342
0.00443501 -0.000465951 0.000282306
0.00461637 0.000254559 0.000778467
0.00443079 -0.000301505 0.000167413
0.00457633 0.000237703 0.000858795
0.00437581 -0.000302122 8.40221e-05
0.00437993 -0.000334785 5.84292e-05
0.00477832 -0.000379644 0.000188475
0.00441165 -0.000268644 0.000160281
0.00442964 -0.000511677 0.000228501
0.00441546 -0.000478161 0.000257275
0.0046518 0.000200554 0.000862127
0.00434089 -0.000326227 5.4662e-05
0.00445565 -0.000514802 0.000230321
0.00441806 -0.000283099 0.000160087
0.00494827 0.000393794 -0.000298964
0.00457807 0.000462867 -0.000287945
0.00478232 -0.000380808 0.000189301
0.00445497 -0.000516082 0.0002309
0.00463949 0.000499212 -0.000305084
0.00427709 -0.000436426 0.00026937
0.00446898 -0.00021718 0.000129161
0.00465433 0.000198438 0.000864302
0.00426629 -0.000282425 3.16358e-05
0.00436242 -0.000257467 0.000158754
0.00439575 -0.000460103 0.000279323
0.00450236 0.000231538 0.000754716
0.00490967 0.000390606 -0.000296694
0.00476929 -0.000370946 0.000187152
0.00460831 0.000487408 -0.00029397
0.00429209 -0.000294032 3.77476e-05
0.00445007 -0.000489652 0.000286883
0.00462913 0.000491398 -0.000297605
0.00422491 -0.000426058 0.000265267
0.00462005 0.000214243 0.000858756
0.00427511 -0.000278352 2.97381e-05
0.00509354 0.00011971 0.000152919
0.00445816 -0.000480431 0.000285591
0.00480529 -0.000397136 0.000191827
0.00469827 0.000478125 -0.00028066
0.00467317 0.000478193 -0.000281789
0.00439312 -0.000280672 0.000126929
0.00489036 0.000374134 -0.000294042
0.0046029 0.000476299 -0.000282677
0.00469451 0.000475681 -0.000278287
0.00432643 -0.000448112 0.000274205
0.00463196 0.000498159 -0.000303533
0.00478345 -0.000329073 0.000181916
0.00422776 -0.000429516 0.000266167
0.00425464 -0.000285019 3.26507e-05
0.00440637 -0.000274321 0.000165613
0.00427011 -0.000281021 3.04457e-05
0.00445986 -0.000360395 7.27039e-05
0.00432465 -0.000327911 5.60808e-05
0.0043803 -0.00031491 4.8984e-05
0.00430194 -0.000292043 3.66089e-05
0.00476705 -0.000353881 0.000181756
0.00438234 -0.000331236 5.78228e-05
0.00436915 -0.000312514 6.28979e-05
0.00444366 0.000482431 -0.00029587
0.00443109 -0.000264488 0.000144066
0.00459656 0.000429767 -0.000285706
0.00446923 -0.000287272 0.000168374
0.00436102 -0.000336102 6.02591e-05
0.00461481 0.000478716 -0.000285041
0.00465472 0.000446917 -0.000291193
0.00444614 -0.000296599 3.2834e-05
0.00470588 0.000481518 -0.000283708
0.00451444 -0.000320874 0.000171013
0.0043218 -0.000380358 0.000174892
0.00479646 -0.000392573 0.000191086
0.00458059 0.000202058 0.000819897
0.0046809 0.000483749 -0.000287061
0.00480441 -0.000380156 0.000189461
0.00462725 0.000491161 -0.00029717
0.00441502 -0.000263739 0.000155292
0.00439126 -0.000250209 0.000157397
0.00422711 -0.000274725 2.95286e-05
0.00491634 0.000392661 -0.000297307
0.00464363 -0.000548783 0.000252942
0.00437694 -0.000316341 7.93527e-05
0.00429167 -0.000319574 5.23911e-05
0.00431266 -0.000289885 3.44806e-05
0.00492317 0.000402063 -0.000296193
0.004772 -0.000392783 0.000183963
0.00477303 -0.000373066 0.000187589
0.00423652 -0.000259584 1.89729e-05
0.00466752 0.000476009 -0.000280038
0.00480555 -0.00038152 0.000189706
0.00464408 0.000469487 -0.000274407
0.00466521 0.000220183 0.000831702
0.00493306 0.000390289 -0.000297116
0.00436385 -0.00031488 4.73884e-05
0.00431042 -0.000318661 5.08584e-05
0.00440665 -0.000274785 0.000162287
0.00427825 -0.000281942 3.09508e-05
0.00492316 0.000408852 -0.00029973
0.00426806 -0.000294792 3.7642e-05
0.00433394 -0.000305081 4.23796e-05
0.00428128 -0.000293483 3.79139e-05
0.00480663 -0.000382756 0.000189958
0.00463847 0.000427917 -0.000286975
0.00466637 0.000207672 0.000855159
0.00438475 -0.000286078 0.000138394
0.00437476 -0.000322849 6.97598e-05
0.00426194 -0.000278533 2.99018e-05
0.0047037 0.000479837 -0.000282076
0.0043771 -0.000242063 0.000162612
0.00431273 -0.000325078 5.48586e-05
0.00457398 -0.000319033 3.74663e-05
0.0044745 0.000474495 -0.000285605
0.0047834 -0.000380224 0.000188924
0.00467668 0.000481103 -0.000284599
0.00468376 0.000492318 -0.000295599
0.00491925 0.000407926 -0.000297906
0.00479897 -0.000324885 0.000182792
0.00488169 0.000381977 -0.000293938
0.00435137 -0.000331959 5.75821e-05
0.00454476 0.000462059 -0.000287548
0.00428618 -0.00028557 3.22312e-05
0.0048961 0.000386369 -0.00029538
0.00434908 -0.000304775 4.26172e-05
0.00493113 0.000405734 -0.000299526
0.0042829 -0.000285792 3.29992e-05
0.00463155 0.000502062 -0.000309015
0.00440668 -0.000292619 0.000168698
0.00489202 0.000399241 -0.00029796
0.00463364 0.000491458 -0.000297545
0.00478909 -0.000299938 0.000198841
0.00490845 0.000413969 -0.000299488
0.00440276 -0.000255222 0.000161172
0.00453523 0.000452435 -0.000298819
0.00455893 0.000483298 -0.000286602
0.00468101 0.000485049 -0.00028837
0.0049263 0.000403306 -0.000298992
0.00448645 0.000468468 -0.000289894
0.00456239 0.000476723 -0.000285338
0.00480615 -0.000389635 0.000190889
0.00491636 0.000396595 -0.000298143
0.0047763 -0.000393336 0.000188333
0.00491212 0.000396461 -0.000297357
0.00461163 -0.000315842 0.000174734
0.00456825 0.000469581 -0.000278179
0.00446135 0.000484205 -0.000297004
0.00445119 -0.000475464 0.000284341
0.00451117 -0.000350175 6.21998e-05
0.00448862 5.64027e-05 0.000656892
0.00465504 0.000493523 -0.000301724
0.00440141 -0.000338505 5.75954e-05
0.0045265 0.000478666 -0.000293561
0.00460999 -0.000295763 0.000170455
0.00470618 0.000213832 0.000850526
0.00488604 0.000401066 -0.000296931
0.00444457 0.000479173 -0.000293105
0.00429491 -0.000276951 2.68263e-05
0.00493962 0.000398415 -0.000299792
0.00490156 0.000408365 -0.000301324
0.00465943 0.000478188 -0.000282293
0.00451603 0.000484779 -0.000295299
0.00477031 0.000467197 -0.000298275
0.00440678 -0.000281911 0.000164251
0.00469592 0.000442007 -0.000291614
0.00463562 0.000493727 -0.000299873
0.00451613 0.000449467 -0.000303753
0.00462344 0.00048185 -0.000287837
0.00492221 0.000380887 -0.000296356
0.00467314 0.000476944 -0.000280653
0.00451493 -0.000281569 1.83762e-05
0.00441233 -0.000323232 5.71966e-05
0.00451675 -0.000487184 0.000289645
0.00428488 -0.000281356 2.95623e-05
0.00464793 0.000507358 -0.000312396
0.00422271 -0.000278361 2.83532e-05
0.00455399 0.000255233 0.000770321
0.00450729 0.000234711 0.000838978
0.00479929 -0.000386625 0.000190279
0.00466988 0.000492053 -0.000296512
0.00468003 -0.000355782 0.000181911
0.0046789 0.000499037 -0.000302834
0.00468641 0.00047352 -0.000276527
0.00449892 -0.000482173 0.000288311
0.00456225 0.00048639 -0.000291471
0.00457941 0.000457348 -0.000307322
0.00454614 0.00047136 -0.000280503
0.00454592 0.00048421 -0.000288887
0.00472548 0.000488738 -0.000322758
0.0046374 0.000498147 -0.000304373
0.00445991 0.00047648 -0.000288132
0.0043606 -0.000313442 4.98809e-05
0.0044028 -0.000255779 0.000160525
0.00450203 0.000502958 -0.000316211
0.00456662 0.000499039 -0.00030667
0.00455484 0.000490708 -0.000297728
0.00449232 0.000478139 -0.000289873
0.00419119 -0.000809616 0.000277698
0.00460463 0.000491535 -0.000300439
0.00445725 0.000483323 -0.000296197
0.00417302 -0.000805908 0.000276638
0.00422397 -0.000814865 0.000280135
0.00463395 0.000486981 -0.000294802
0.00426155 -0.000823227 0.000282757
0.00438954 -0.000288647 0.000162193
0.00442235 -0.000359286 3.68139e-05
0.00464527 0.000493502 -0.000300539
0.00473638 0.000194121 0.000851593
6.80378e-15 2.29893e-14 -7.03247e-14
0.00425606 -0.000821845 0.0002809
0.00492087 0.000403906 -0.00029838
0.0045661 0.000459409 -0.000285559
0.00466598 0.000504829 -0.000309211
0.00479609 0.000431671 -0.000295683
0.00456354 0.000485082 -0.000286441
0.00456398 0.000479587 -0.000288887
0.00491152 0.00040865 -0.000298931
0.0047815 -0.000370373 0.000187062
0.00450585 0.000491434 -0.000330323
0.00451752 0.000480816 -0.000287399
0.0043092 -0.000815099 0.000307426
0.00455474 0.000486236 -0.00029495
0.00463894 0.00049757 -0.000305662
0.00450362 0.000205453 0.000829677
0.0049176 0.000396406 -0.000297418
0.00491473 0.000411388 -0.000299407
0.00491342 0.000404087 -0.000298418
0.00479805 0.000416309 -0.000293023
0.00454027 0.000493538 -0.000306842
0.00489663 0.000409776 -0.000298672
0.00461186 0.000471423 -0.000290861
0.00488084 0.000396832 -0.000297672
0.0049067 0.000407899 -0.000298383
0.0045233 0.000497035 -0.000309107
0.0043477 -0.000285565 5.61568e-05
-1.29325e-14 6.08886e-14 -1.90218e-13
0.00424084 -0.000805207 0.000303916
0.00492882 0.000386087 -0.000297182
0.00427382 -0.000812236 0.000306908
0.00426168 -0.000821776 0.000284664
0.004485 0.000484578 -0.00029583
0.00452697 0.000502516 -0.000314456
0.0048961 0.00040813 -0.000297912
0.00478705 -0.00037752 0.000188706
0.00456051 0.000486763 -0.000289143
0.00488771 0.000397489 -0.000295759
0.00454156 0.000480322 -0.000286077
0.00491235 0.000410217 -0.000299253
0.00480022 -0.000387307 0.000190423
0.00450443 0.000500572 -0.000311745
0.00448984 0.000480797 -0.000292386
0.00433544 -0.000298368 3.8909e-05
0.00438839 -0.000257117 0.00016078
0.0049032 0.000397061 -0.00029693
0.00477263 -0.000386595 0.000189853

VECTORS force float
8.32123e-11 3.47318e-11 -9.32344e-12
-1.24206e-11 1.11366e-11 -1.02251e-10
-3.80598e-11 8.15383e-11 -2.59023e-11
-6.87553e-11 -3.29353e-10 2.56288e-11
-7.02161e-12 -8.119e-11 1.14804e-10
-4.81731e-12 -1.22324e-11 1.20879e-11
6.29363e-11 6.10744e-11 4.59595e-11
-1.11505e-10 -1.45987e-10 1.58498e-10
-3.50952e-11 -4.3925e-11 1.84057e-12
6.51749e-11 8.87843e-12 1.85382e-13
-2.02569e-10 -1.17693e-10 6.91261e-11
-1.62096e-11 6.62694e-12 1.28919e-12
-5.17657e-11 -2.27505e-11 5.50922e-12
-3.99091e-11 -1.44149e-10 1.4481e-10
-5.3617e-11 -2.6857e-11 3.77459e-12
2.49326e-11 5.66445e-11 -5.85161e-11
-1.64119e-10 -8.38813e-11 6.55918e-13
-1.54851e-11 1.44983e-10 2.45645e-11
7.43771e-11 4.95416e-11 -1.96467e-11
7.43104e-11 -4.8776e-11 6.46138e-11
2.8308e-11 8.85835e-11 -1.05375e-11
-1.45614e-11 8.71796e-12 -6.1437e-12
6.29272e-12 -2.82339e-12 -4.44976e-12
1.00593e-11 -3.16833e-12 -4.62006e-12
1.13472e-10 1.16704e-10 -1.13095e-10
1.74715e-11 2.68914e-10 -4.41213e-11
8.56458e-11 -4.1295e-11 3.55005e-11
9.99095e-12 4.8254e-12 -7.54011e-13
2.79042e-12 -4.57759e-11 -1.01323e-11
-7.57672e-12 4.96689e-12 -2.90049e-12
1.28234e-10 -6.94737e-12 -6.32534e-11
4.5338e-12 -4.86368e-11 7.5338e-12
-9.59128e-11 6.83157e-11 -6.68545e-12
-1.86388e-11 5.33751e-11 -6.89614e-11
6.34223e-11 -7.04673e-11 1.78714e-11
3.02695e-10 -1.53337e-10 -6.00098e-11
5.44319e-11 5.0062e-11 4.29369e-11
-7.08931e-11 7.54765e-11 -4.39607e-11
3.35425e-11 -1.99148e-11 3.27219e-12
3.97949e-12 2.58977e-11 -6.05266e-11
5.04767e-12 -2.03734e-12 -1.11942e-12
2.64947e-11 -9.78374e-12 3.54339e-12
6.81531e-11 5.09625e-11 -1.77925e-11
5.88292e-11 2.2279e-11 6.30605e-12
1.02844e-11 -3.75369e-12 -5.89722e-13
-4.85498e-11 4.00353e-11 -3.82237e-11
3.55851e-11 6.92114e-11 -1.53146e-11
8.67679e-11 -3.0407e-11 7.12693e-12
6.72879e-11 1.53248e-11 -7.56121e-13
1.07932e-11 -6.88593e-12 -5.28503e-13
-2.73294e-11 -1.60848e-10 1.56812e-10
3.09375e-12 1.98314e-11 2.27683e-12
-1.57923e-10 1.39584e-10 -9.92901e-11
-1.33608e-10 -3.90048e-11 -2.98585e-11
-2.74346e-11 -2.54339e-12 -2.31277e-12
-3.70383e-10 -2.6416e-10 1.11139e-10
-1.71807e-11 -1.13178e-11 1.71582e-12
-5.60685e-11 1.5842e-11 -3.59152e-11
-9.69003e-11 -6.15707e-12 8.76721e-12
8.30987e-11 -3.3882e-11 6.19746e-12
1.73462e-10 -1.50038e-12 1.51648e-11
-1.4664e-11 -8.22011e-11 2.31707e-11
-4.69773e-11 6.05404e-11 -2.20193e-11
-8.35702e-11 -2.44611e-10 2.45495e-10
2.90662e-11 -2.57766e-11 2.55121e-12
2.76866e-10 1.23082e-12 -4.57848e-12
-4.29649e-11 -1.23554e-10 7.86807e-11
5.47126e-11 1.12359e-10 -6.52979e-11
3.22867e-11 -9.6618e-11 1.91554e-11
-2.51424e-11 -8.67334e-11 1.02703e-11
-6.94873e-12 2.91389e-12 -2.43295e-12
5.92953e-11 1.16527e-10 -1.15706e-10
3.48904e-12 2.06324e-12 -7.29525e-13
-1.16561e-10 2.53314e-11 2.25374e-12
1.30094e-10 -2.88382e-11 3.54641e-11
1.16004e-11 4.84849e-11 -4.883e-11
-6.69405e-11 5.04053e-11 -1.77654e-11
-2.2397e-11 -1.13738e-10 1.41432e-10
-1.10132e-10 9.60648e-11 3.36306e-11
3.89743e-11 -1.56667e-11 5.57938e-12
-1.41138e-11 -4.35825e-11 5.06945e-11
5.67773e-11 -1.48121e-12 -2.69319e-11
-8.44476e-11 -1.15755e-10 6.2031e-11
3.26152e-13 -2.80597e-11 5.34406e-11
1.57356e-10 7.10375e-11 -5.12858e-11
-3.16016e-11 -1.2565e-10 1.39858e-10
-2.99327e-11 -6.53035e-11 4.68311e-11
-9.99525e-11 1.28452e-10 -6.09524e-11
-2.41534e-11 6.29986e-12 -6.80406e-11
1.46778e-10 7.03221e-11 3.31406e-11
4.21344e-11 -2.65539e-11 2.15778e-11
3.86018e-11 -2.87527e-11 3.70093e-11
7.41287e-11 -7.66559e-11 1.27348e-12
4.77474e-11 3.59702e-11 1.84754e-11
3.39124e-11 -1.46233e-10 -5.17269e-11
2.25016e-10 -2.79719e-11 3.88776e-11
1.42583e-10 -5.91688e-11 2.92803e-11
2.74986e-10 -8.77656e-11 1.23342e-10
-4.02724e-11 -1.06913e-10 1.0751e-10
-7.24006e-11 -3.80903e-11 2.01895e-11
-8.86013e-11 5.64999e-10 -1.11119e-10
-5.01027e-12 -7.45071e-11 1.22866e-11
-1.10357e-10 -6.6531e-11 -3.04515e-11
7.3769e-12 1.04976e-10 -1.07727e-10
3.51916e-11 -2.2498e-11 3.83257e-12
-5.02059e-11 -2.26181e-10 2.28869e-10
-5.95324e-12 7.73048e-11 -2.32703e-11
8.55128e-11 -7.40636e-11 -1.69542e-10
-1.60631e-10 -2.28373e-11 4.50609e-11
-1.21031e-10 -5.40845e-12 6.25798e-12
-5.58352e-12 6.10828e-12 -9.23396e-12
4.35672e-11 -5.68055e-11 -1.19263e-10
-9.96301e-11 1.02744e-10 -6.76263e-11
-8.94604e-11 -7.77777e-11 5.90431e-11
-9.94967e-12 1.23281e-10 9.97389e-12
1.06696e-10 -1.69977e-12 3.00645e-11
1.22854e-10 -1.7257e-12 8.18143e-13
-1.1317e-10 8.05523e-11 -4.7605e-11
1.26873e-10 7.50179e-11 -6.75123e-11
6.97325e-11 3.68869e-12 1.10504e-12
1.87734e-10 1.08368e-10 -1.00725e-10
-5.31898e-11 1.13301e-10 6.95108e-11
2.00255e-11 6.57498e-11 -4.94146e-11
1.15793e-10 1.04287e-10 -6.38545e-11
-9.89486e-12 -3.36882e-11 3.55072e-11
-3.29141e-11 -1.135e-10 1.53721e-11
-1.07052e-11 -1.91332e-10 1.04807e-10
-2.95297e-12 2.51243e-11 3.51392e-12
1.89304e-10 3.41591e-11 2.6683e-11
2.98145e-12 -5.39732e-12 1.30937e-11
-1.12656e-10 3.9657e-12 4.70086e-12
3.21441e-11 -3.41296e-11 5.75163e-12
-3.76946e-11 -4.367e-11 1.0066e-12
2.03605e-11 -4.74814e-11 -2.30547e-11
-2.61926e-12 -5.11106e-11 -1.01757e-11
6.28275e-11 1.18014e-11 -1.00507e-10
-1.76155e-10 -8.01043e-11 -8.07736e-12
-6.38523e-11 -4.31853e-11 4.19117e-11
-1.24242e-10 -1.71834e-10 1.41695e-10
9.92298e-11 9.40472e-11 -4.85188e-11
3.91039e-10 -2.64998e-11 -4.69357e-11
1.41264e-11 1.61324e-11 -5.18527e-11
5.39357e-11 -2.67411e-12 4.93963e-12
2.65877e-11 8.59247e-11 -8.7833e-11
-1.34198e-11 7.22166e-11 -7.4608e-11
-8.9073e-11 1.30009e-10 -3.33318e-12
6.40106e-11 -2.25664e-10 9.44233e-11
-1.61603e-11 -3.84344e-11 6.63288e-12
7.97284e-12 8.76826e-11 -4.5916e-11
-5.51369e-11 2.44043e-11 5.43783e-11
-3.03174e-11 -1.58729e-10 5.02014e-11
-3.95039e-11 -1.24411e-11 4.42963e-12
1.04638e-11 3.66561e-11 -3.51904e-11
-1.57487e-11 4.06186e-11 -1.40751e-12
7.24532e-11 -9.51571e-11 7.05091e-11
-8.71462e-11 -1.06747e-10 1.27082e-10
1.3103e-10 -8.55606e-11 2.83511e-11
-7.71473e-12 4.35476e-12 -6.38479e-12
-6.73277e-11 -1.72615e-10 1.70802e-10
2.32097e-10 1.41014e-10 -9.29529e-11
-1.11918e-11 1.88572e-11 -1.56882e-12
1.63064e-10 -1.18458e-10 6.78405e-12
-3.56306e-11 6.6837e-11 7.10745e-11
3.31424e-11 9.12058e-11 5.50232e-11
-8.57001e-12 8.05905e-11 -8.08444e-11
-1.90968e-11 6.05814e-11 1.26419e-12
-2.16302e-11 4.52572e-11 -2.64317e-11
1.93774e-10 -5.05519e-11 4.99381e-11
-1.5911e-11 -6.03144e-11 7.79805e-12
-6.98394e-11 3.55554e-11 1.92865e-12
1.58034e-11 -3.6922e-11 -4.7462e-13
-1.11839e-10 -3.73087e-11 7.66953e-12
1.03439e-10 9.09342e-11 1.95207e-11
1.26969e-10 -9.36944e-11 1.02442e-10
4.22102e-11 -5.95184e-12 7.98396e-12
2.17657e-10 1.94468e-11 1.14746e-11
4.79227e-11 -1.30614e-10 -1.06096e-10
1.65178e-11 2.09731e-10 2.37683e-10
-5.99897e-11 -1.40929e-11 2.33949e-11
-8.51964e-11 2.27037e-10 -6.83383e-11
-3.93527e-11 3.92274e-11 -1.61945e-11
2.94837e-11 -3.94196e-11 4.2176e-11
-6.21227e-12 6.02882e-11 5.02248e-11
1.25e-11 6.53884e-11 -1.01504e-11
3.04642e-11 -3.81194e-12 2.8073e-12
3.098e-11 -7.01894e-11 5.96538e-11
1.70409e-11 7.44983e-11 1.22773e-11
-1.06418e-10 4.37546e-11 8.97853e-12
1.29377e-10 7.42758e-11 -6.85124e-11
2.15799e-11 5.5592e-11 -8.06686e-11
6.93e-11 -1.96406e-11 9.5039e-13
-4.04753e-11 -2.76807e-11 3.66542e-12
7.71956e-11 4.96181e-11 -3.04776e-11
-4.65906e-11 -1.64237e-10 1.64894e-10
4.34116e-12 4.42053e-11 3.0597e-12
1.87985e-10 -1.85905e-12 1.10348e-11
-6.64698e-11 -5.79052e-11 3.37614e-12
5.91934e-11 9.15378e-11 -8.91979e-11
-1.71908e-10 -2.36726e-10 5.22801e-11
3.48722e-10 2.55197e-11 9.97774e-11
-5.51276e-11 1.37528e-11 -7.79952e-12
-5.18951e-11 -1.18616e-10 1.19001e-10
-7.08596e-11 -6.30733e-11 5.26467e-11
-1.86634e-10 -2.5571e-12 5.13038e-13
5.1335e-11 3.23607e-11 -7.75509e-11
4.07458e-11 -5.05226e-11 5.38926e-11
9.80047e-11 1.25737e-11 -4.1985e-13
-5.33304e-12 1.61857e-11 -1.73096e-11
5.83329e-11 -4.74544e-11 2.0995e-11
1.31296e-11 4.16047e-11 -4.31764e-11
4.57172e-11 8.06325e-11 -7.92064e-11
1.39663e-10 5.67559e-11 7.92096e-12
1.27373e-11 3.52913e-11 -2.07822e-11
1.10449e-11 -1.8156e-11 2.49244e-11
-4.50767e-12 -5.65256e-11 5.49868e-11
3.98893e-11 3.74179e-11 -3.16992e-12
-7.3494e-11 5.68719e-11 5.85344e-11
-7.71941e-11 -9.96493e-11 1.06509e-10
9.66998e-11 1.58445e-11 2.45247e-12
8.11165e-11 3.11613e-11 -1.38766e-11
4.13757e-11 5.85137e-11 -6.37112e-12
-1.52402e-11 -5.13482e-11 4.26553e-11
-2.81526e-11 -9.92115e-11 1.08769e-10
3.7282e-11 5.78887e-11 6.5485e-12
-2.92651e-11 -2.99924e-11 1.68232e-11
2.74976e-12 8.5916e-12 7.90186e-12
4.25338e-11 -1.30605e-10 1.31713e-10
8.54485e-12 -9.15649e-12 1.13471e-11
2.74131e-12 -3.10913e-12 -2.46374e-12
1.06731e-11 -9.48277e-13 -1.31256e-11
-3.80791e-12 -1.36447e-10 1.52326e-10
-1.8132e-11 1.01069e-11 3.31386e-11
-3.94371e-11 -4.30276e-11 5.38077e-11
-3.67248e-11 2.46215e-10 -3.17744e-11
-5.70313e-11 -1.40405e-10 1.57074e-10
-1.65768e-10 4.75439e-11 3.37425e-12
-1.91803e-23 1.52511e-23 2.48154e-24
1.07849e-12 -2.90437e-11 1.04124e-12
-5.92943e-11 6.70335e-11 -4.59748e-12
-1.43802e-10 9.80961e-12 3.81971e-11
-6.46479e-12 -8.17098e-12 1.30277e-11
-1.28608e-10 4.4232e-11 7.93836e-12
8.53797e-11 5.8745e-11 5.24666e-11
8.04972e-11 3.44524e-11 7.39741e-12
-1.61231e-11 -5.54249e-13 1.10975e-11
9.20623e-11 -5.76204e-12 -2.12128e-11
-8.00169e-11 -8.1224e-11 3.07768e-11
3.18336e-11 8.14172e-11 9.66673e-12
-1.90624e-10 5.45705e-11 -3.00944e-11
1.25368e-13 -9.74745e-12 1.44421e-12
-7.17786e-11 -6.57751e-11 7.0556e-11
-4.45831e-12 1.63543e-11 1.04743e-10
-1.44945e-10 -2.49944e-11 1.44262e-11
4.63867e-11 3.57821e-11 -4.03555e-12
-1.29745e-10 5.58561e-11 8.56078e-13
1.16847e-10 -7.20298e-11 1.38658e-11
-6.23416e-11 2.92799e-11 -6.35553e-12
6.28611e-12 5.40068e-11 -1.62329e-11
-8.7639e-11 5.59652e-11 4.85785e-12
1.09215e-11 8.29027e-11 -3.99879e-12
-3.86055e-11 -5.26966e-12 4.55478e-12
-2.13491e-11 -1.48286e-11 1.57602e-11
1.28103e-10 1.61732e-10 -8.0162e-11
-4.73561e-23 -8.89736e-23 -2.31611e-23
-2.37838e-12 -1.0712e-11 9.25601e-13
-1.38578e-11 2.0117e-11 2.612e-11
3.08778e-11 1.90383e-11 8.39461e-12
4.29645e-11 3.9782e-11 -2.70461e-11
2.13832e-12 1.68748e-12 -3.23105e-12
-1.00677e-10 -7.72768e-11 7.03001e-11
-5.24346e-11 -5.90079e-12 -3.51015e-12
5.2781e-12 -2.94107e-11 1.01955e-11
2.21089e-11 6.77762e-11 -6.49679e-13
-1.71936e-11 -3.9652e-11 -3.38487e-13
4.2917e-12 9.88198e-11 6.88918e-11
-7.03923e-11 4.42195e-11 2.67831e-11
1.86062e-11 -4.71444e-11 7.41726e-12
-4.57144e-12 -3.37399e-11 2.72355e-11
1.52345e-10 -3.18284e-11 5.21546e-11
-1.63615e-10 8.52236e-12 5.14442e-12
-8.99537e-13 7.38939e-11 -1.38044e-11
-7.70596e-11 -3.68458e-11 9.73616e-12
-2.32445e-12 -4.04748e-11 2.87335e-12
