# vtk DataFile Version 3.0
LIGGGHTS particles timestep 13400000
ASCII
DATASET POLYDATA
POINTS 289 float
0.0744114 0.0163067 0.00790351
0.0747209 0.0171893 0.00722444
0.0745614 0.0170995 0.00740489
0.0746492 0.017259 0.00722618
0.0740434 0.0159197 0.00821345
0.0802078 0.0165468 0.0076783
0.0741806 0.0164699 0.00780323
0.0740233 0.0158414 0.00827239
0.0805221 0.0178649 0.00703755
0.0743167 0.0170235 0.00747228
0.0744127 0.0166767 0.00763835
0.0804792 0.0176862 0.00711632
0.0742968 0.016948 0.00753488
0.0679865 0.0156829 0.00835468
0.0743345 0.0167277 0.00760251
0.0679664 0.015606 0.00841548
0.074259 0.0168065 0.00765787
0.0804149 0.0174205 0.00723991
0.0742159 0.016641 0.00778472
0.0745512 0.0168548 0.00749118
0.0740631 0.015998 0.00815448
0.0743149 0.0166499 0.00766213
0.0804363 0.0175091 0.00719871
0.0742953 0.0165694 0.0077182
0.0803079 0.0169776 0.00744589
0.0682856 0.0168874 0.0075136
0.0742384 0.0167247 0.00772191
0.0801881 0.0164618 0.00772722
0.0744464 0.0169967 0.00749009
0.0742589 0.0167789 0.00756176
0.0802274 0.0166318 0.00762939
0.0744785 0.0171512 0.00736765
0.0743533 0.0164384 0.00781059
0.0805433 0.0179518 0.0069928
0.0741609 0.0163903 0.00786039
0.0742752 0.0164912 0.00777714
0.0803507 0.0171548 0.0073635
0.0742001 0.0165491 0.00774541
0.0742947 0.0162033 0.00798752
0.0742202 0.0166269 0.00768581
0.0744531 0.0168306 0.00751716
0.074765 0.0173881 0.00722848
0.080247 0.0167168 0.00758047
0.0803293 0.0170662 0.00740469
0.0741024 0.0161556 0.00803782
0.074531 0.0167763 0.00754983
0.0802865 0.0168891 0.00748708
0.0744331 0.017108 0.00728837
0.0685729 0.0169543 0.00744148
0.0803721 0.0172434 0.0073223
0.0744511 0.0164632 0.0077856
0.0680065 0.0157617 0.00829655
0.0744867 0.0172242 0.00729975
0.0802668 0.0168017 0.0075316
0.0682982 0.0165856 0.00770803
0.0804577 0.0175976 0.00715752
0.0745103 0.0166982 0.00760871
0.0740826 0.0160763 0.00809551
0.074433 0.0167537 0.00757792
0.0746267 0.0171628 0.00724485
0.0803935 0.0173319 0.00728111
0.0740033 0.0157631 0.00833132
0.0684344 0.0167684 0.0075759
0.0745704 0.0169356 0.00743555
0.0683939 0.0166092 0.00768873
0.0742394 0.0167033 0.00762424
0.0805618 0.0180408 0.00695119
0.0680266 0.0158408 0.00823875
0.0805006 0.0177748 0.00707513
0.0741219 0.0162332 0.00797781
0.0748162 0.0172194 0.00722542
0.0741412 0.0163114 0.00791859
0.0804896 0.0173626 0.00727257
0.0745502 0.0180445 0.00722805
0.0680658 0.0160006 0.00812507
0.0681639 0.0164007 0.00784154
0.0745955 0.0174238 0.00723049
0.0683676 0.0167385 0.00769906
0.0683051 0.0169586 0.00744609
0.0680854 0.0160807 0.00806835
0.0804682 0.017274 0.00731378
0.068141 0.0159456 0.00816156
0.0743833 0.0172668 0.00725716
0.0805958 0.0178042 0.00706713
0.0744989 0.0173908 0.00722944
0.0745533 0.0172279 0.00722517
0.0745243 0.0171395 0.00726204
0.0743746 0.0168792 0.00747828
0.0747113 0.0175525 0.00722873
0.0746041 0.0178808 0.00722814
0.0744763 0.0172917 0.00722674
0.0745291 0.0179468 0.00723134
0.0746162 0.0175216 0.00723315
0.0745618 0.0176854 0.00723394
0.0683388 0.0167512 0.00760416
0.0748064 0.0175829 0.00722275
0.068471 0.0165473 0.00773001
0.0742988 0.0169297 0.00743659
0.074393 0.0165974 0.007696
0.0684757 0.016928 0.00746272
0.0680463 0.0159206 0.00818179
0.0743387 0.0170805 0.00731141
0.0681015 0.015786 0.00827595
0.0744667 0.0170722 0.00742774
0.0744727 0.0169067 0.00745534
0.0744036 0.0173603 0.00722845
0.074508 0.0178492 0.00723532
0.0682231 0.0166408 0.00767138
0.0744246 0.0174581 0.0072311
0.0683671 0.017198 0.00727633
0.074572 0.0171809 0.00734771
0.0746644 0.0169582 0.00740685
0.0739833 0.0156849 0.00839027
0.0684426 0.0171432 0.00731259
0.0801685 0.0163768 0.00777613
0.0743734 0.0165167 0.00775166
0.0739633 0.0156066 0.00844921
0.0747535 0.0177479 0.00722258
0.0682193 0.0162656 0.00793477
0.0746792 0.0178148 0.00722533
0.0742165 0.016256 0.00795418
0.0743547 0.0168038 0.00754088
0.0681246 0.0162407 0.00795496
0.0744316 0.0171858 0.00722382
0.0683805 0.0169038 0.00748236
0.0742791 0.0168544 0.00749939
0.068455 0.0168482 0.0075193
0.0747445 0.0172891 0.00722716
0.0742557 0.0164127 0.00783624
0.0744927 0.0169822 0.00739265
0.0744308 0.016385 0.00784452
0.0680814 0.015709 0.00833684
0.074658 0.0177171 0.00722823
0.0745749 0.017326 0.00722784
0.0745095 0.0170583 0.0073295
0.074541 0.0175876 0.00723478
0.0681605 0.0160256 0.00810486
0.0743945 0.0169547 0.00741568
0.0744147 0.0170304 0.00735278
0.0743603 0.0171764 0.00729329
0.0748486 0.0177783 0.00721696
0.0681214 0.0158656 0.00821827
0.0743188 0.0170051 0.00737401
0.0745197 0.0174891 0.0072321
0.073943 0.0155284 0.00850813
0.0684844 0.0173036 0.00719891
0.0739227 0.0154658 0.00858342
0.0683464 0.0171182 0.0073329
0.0681835 0.0164808 0.0077848
0.0684226 0.0166872 0.00763316
0.0745703 0.01784 0.00731294
0.06836 0.016824 0.00753896
0.0741775 0.0160992 0.00807215
0.0686009 0.0174186 0.00714352
0.0746675 0.0181739 0.00721946
0.0685937 0.0170341 0.0073849
0.0745925 0.0182399 0.00722227
0.068517 0.0170876 0.00734953
0.0743143 0.0162817 0.00792855
0.068354 0.0164493 0.00780206
0.074466 0.0176537 0.00723641
0.0688055 0.0175011 0.00715045
0.0684637 0.0172237 0.00725555
0.0747323 0.0176502 0.00722548
0.0687522 0.0176658 0.00714616
0.0747747 0.0178456 0.00721968
0.0685661 0.0172458 0.00723767
0.0688281 0.0172494 0.00722719
0.0682642 0.0168005 0.00755817
0.0686148 0.0171139 0.00732833
0.0684962 0.0170078 0.00740611
0.0683876 0.0172778 0.00721972
0.0744453 0.0175559 0.00723376
0.0682586 0.0164256 0.00782138
0.0742361 0.0163343 0.00789521
0.0686894 0.0173721 0.00714761
0.0747034 0.0171116 0.00728487
0.0685024 0.0173855 0.00714091
0.0685407 0.0174307 0.00722245
0.0805824 0.0181382 0.00696093
0.0747958 0.0179433 0.00721679
0.0744897 0.01662 0.00766761
0.0684083 0.0173576 0.00716316
0.0747004 0.0179125 0.00722244
0.0684365 0.0174157 0.00723953
0.0746369 0.0176194 0.00723113
0.0741383 0.0159425 0.00819009
0.0688264 0.0175989 0.00714996
0.0683341 0.0163694 0.00785872
0.0741186 0.0158642 0.00824906
0.0682783 0.0165056 0.0077647
0.0687622 0.0173118 0.00718527
0.0681442 0.0163207 0.00789826
0.0686306 0.0179739 0.00713728
0.0685991 0.0172068 0.00736163
0.0743339 0.01636 0.00786958
0.0686197 0.0172898 0.00730972
0.0683257 0.0170384 0.0073895
0.0685381 0.0171673 0.00729298
0.0684916 0.0166271 0.00767342
0.0687105 0.0174703 0.00714713
0.0682435 0.0167207 0.00761476
0.0746801 0.0170368 0.00734698
0.0746253 0.0179785 0.00722525
0.0805326 0.0175398 0.00719012
0.0744869 0.0177515 0.00723795
0.0684011 0.0169836 0.00742576
0.0684218 0.0170635 0.00736917
0.0748274 0.0176806 0.00721986
0.0746136 0.0183376 0.00721937
0.0745829 0.0177831 0.00723111
0.0741972 0.0161776 0.00801318
0.0682389 0.0163456 0.00787807
0.0741578 0.0160209 0.00813111
0.0682032 0.0165609 0.00772805
0.0681049 0.0161607 0.00801165
0.0805111 0.0174512 0.00723136
0.0686427 0.0176142 0.00714256
0.0679464 0.0155292 0.00847628
0.0685261 0.0174849 0.00713971
0.0683184 0.0166654 0.0076514
0.0688682 0.0177945 0.00714899
0.0684512 0.017551 0.00713592
0.0683738 0.0165293 0.00774538
0.0746464 0.0180762 0.00722235
0.0746906 0.0174547 0.00723125
0.0685974 0.0182355 0.00713249
0.0685348 0.0179422 0.00713395
0.0687472 0.0181032 0.00714013
0.068547 0.0175827 0.00713922
0.0623366 0.0170836 0.00738205
0.0685139 0.0178444 0.00713444
0.0685679 0.0176805 0.00713874
0.062316 0.0170047 0.0074399
0.0623573 0.0171625 0.0073242
0.0685888 0.0177783 0.00713825
0.0623993 0.0173202 0.00720861
0.0740785 0.0157077 0.00836694
0.0747215 0.0180102 0.00721954
0.0684721 0.0176488 0.00713548
0.0740986 0.015786 0.008308
0.0744702 0.0165417 0.00772659
0.0623779 0.0172414 0.00726636
0.0686726 0.0173169 0.00722932
0.0686218 0.0175164 0.00714306
0.0685166 0.0167139 0.00761175
0.068493 0.0177466 0.00713495
0.0688891 0.0178923 0.00714851
0.0687263 0.0180054 0.00714061
0.0687844 0.017403 0.00715092
0.0746701 0.0173568 0.00722883
0.0685765 0.0181377 0.00713298
0.0688149 0.0179592 0.0071447
0.0624614 0.0175897 0.00712416
0.0686515 0.0180717 0.0071368
0.0684299 0.017454 0.00714738
0.0746886 0.0182716 0.00721656
0.0685525 0.0168745 0.00749809
0.0687313 0.017568 0.00714664
0.0686845 0.0178098 0.00714159
0.0687054 0.0179076 0.0071411
0.0686934 0.0182673 0.00713583
0.068768 0.018201 0.00713964
0.0686636 0.017712 0.00714207
0.068794 0.0178614 0.00714519
0.0688473 0.0176967 0.00714948
0.0686183 0.0183333 0.00713201
0.0745714 0.0181422 0.00722516
0.0624192 0.0173993 0.00715066
0.0625359 0.0175232 0.00711791
0.0686428 0.0171921 0.00727266
0.0624819 0.0176874 0.0071285
0.0624409 0.0174919 0.00711981
0.0686097 0.017876 0.00713777
0.0685557 0.0180399 0.00713347
0.0687731 0.0177636 0.00714567
0.0743807 0.0171366 0.00738271
0.0686725 0.0181695 0.00713632
0.0681801 0.0161056 0.00804816
0.0688358 0.018057 0.00714422
0.0687276 0.0172343 0.00724066
0.0746021 0.0170871 0.00730539
0.0686392 0.0184311 0.00713152
0.0681996 0.0161856 0.00799146
0.0745939 0.0172703 0.00730873
0.0746472 0.0168792 0.00746615
0.0685828 0.0173307 0.00718757
0.0685321 0.0167946 0.00755472
0.0745867 0.0170093 0.00736996

VERTICES 289 578
1 0
1 1
1 2
1 3
1 4
1 5
1 6
1 7
1 8
1 9
1 10
1 11
1 12
1 13
1 14
1 15
1 16
1 17
1 18
1 19
1 20
1 21
1 22
1 23
1 24
1 25
1 26
1 27
1 28
1 29
1 30
1 31
1 32
1 33
1 34
1 35
1 36
1 37
1 38
1 39
1 40
1 41
1 42
1 43
1 44
1 45
1 46
1 47
1 48
1 49
1 50
1 51
1 52
1 53
1 54
1 55
1 56
1 57
1 58
1 59
1 60
1 61
1 62
1 63
1 64
1 65
1 66
1 67
1 68
1 69
1 70
1 71
1 72
1 73
1 74
1 75
1 76
1 77
1 78
1 79
1 80
1 81
1 82
1 83
1 84
1 85
1 86
1 87
1 88
1 89
1 90
1 91
1 92
1 93
1 94
1 95
1 96
1 97
1 98
1 99
1 100
1 101
1 102
1 103
1 104
1 105
1 106
1 107
1 108
1 109
1 110
1 111
1 112
1 113
1 114
1 115
1 116
1 117
1 118
1 119
1 120
1 121
1 122
1 123
1 124
1 125
1 126
1 127
1 128
1 129
1 130
1 131
1 132
1 133
1 134
1 135
1 136
1 137
1 138
1 139
1 140
1 141
1 142
1 143
1 144
1 145
1 146
1 147
1 148
1 149
1 150
1 151
1 152
1 153
1 154
1 155
1 156
1 157
1 158
1 159
1 160
1 161
1 162
1 163
1 164
1 165
1 166
1 167
1 168
1 169
1 170
1 171
1 172
1 173
1 174
1 175
1 176
1 177
1 178
1 179
1 180
1 181
1 182
1 183
1 184
1 185
1 186
1 187
1 188
1 189
1 190
1 191
1 192
1 193
1 194
1 195
1 196
1 197
1 198
1 199
1 200
1 201
1 202
1 203
1 204
1 205
1 206
1 207
1 208
1 209
1 210
1 211
1 212
1 213
1 214
1 215
1 216
1 217
1 218
1 219
1 220
1 221
1 222
1 223
1 224
1 225
1 226
1 227
1 228
1 229
1 230
1 231
1 232
1 233
1 234
1 235
1 236
1 237
1 238
1 239
1 240
1 241
1 242
1 243
1 244
1 245
1 246
1 247
1 248
1 249
1 250
1 251
1 252
1 253
1 254
1 255
1 256
1 257
1 258
1 259
1 260
1 261
1 262
1 263
1 264
1 265
1 266
1 267
1 268
1 269
1 270
1 271
1 272
1 273
1 274
1 275
1 276
1 277
1 278
1 279
1 280
1 281
1 282
1 283
1 284
1 285
1 286
1 287
1 288

POINT_DATA 289
SCALARS id int 1
LOOKUP_TABLE default
1
2
3
4
5
6
7
8
9
10
11
12
13
14
15
16
17
18
19
20
21
22
24
25
26
27
29
30
31
32
33
34
35
36
37
38
39
40
41
42
43
44
45
46
47
48
49
50
52
53
54
55
56
57
58
59
60
61
62
63
64
65
66
67
68
69
70
71
72
73
74
75
76
77
78
79
80
81
82
83
84
85
86
87
88
89
90
91
92
93
94
95
96
98
99
100
101
102
103
104
105
106
107
108
109
110
111
112
113
114
115
116
117
118
119
120
121
122
123
124
125
126
127
128
129
130
131
132
133
134
135
136
137
138
139
140
141
142
144
145
146
147
148
149
150
152
153
154
155
156
157
158
159
160
161
162
164
165
166
167
168
169
170
171
172
173
174
175
176
177
178
179
180
181
182
183
184
185
186
187
188
189
190
191
192
193
194
195
196
197
198
199
200
201
202
203
204
205
206
207
208
209
210
211
213
214
215
216
217
218
219
220
221
222
223
224
225
226
227
228
229
230
231
232
233
234
235
236
237
238
239
241
242
243
244
245
246
247
248
249
250
251
252
253
254
255
256
257
258
259
260
261
262
263
264
265
267
268
269
270
271
272
273
274
275
276
277
278
279
280
281
282
283
284
285
286
287
288
289
290
292
293
294
295
296
297
298
299
300

SCALARS type int 1
LOOKUP_TABLE default
1
1
1
1
1
1
1
1
1
1
1
1
1
1
1
1
1
1
1
1
1
1
1
1
1
1
1
1
1
1
1
1
1
1
1
1
1
1
1
1
1
1
1
1
1
1
1
1
1
1
1
1
1
1
1
1
1
1
1
1
1
1
1
1
1
1
1
1
1
1
1
1
1
1
1
1
1
1
1
1
1
1
1
1
1
1
1
1
1
1
1
1
1
1
1
1
1
1
1
1
1
1
1
1
1
1
1
1
1
1
1
1
1
1
1
1
1
1
1
1
1
1
1
1
1
1
1
1
1
1
1
1
1
1
1
1
1
1
1
1
1
1
1
1
1
1
1
1
1
1
1
1
1
1
1
1
1
1
1
1
1
1
1
1
1
1
1
1
1
1
1
1
1
1
1
1
1
1
1
1
1
1
1
1
1
1
1
1
1
1
1
1
1
1
1
1
1
1
1
1
1
1
1
1
1
1
1
1
1
1
1
1
1
1
1
1
1
1
1
1
1
1
1
1
1
1
1
1
1
1
1
1
1
1
1
1
1
1
1
1
1
1
1
1
1
1
1
1
1
1
1
1
1
1
1
1
1
1
1
1
1
1
1
1
1
1
1
1
1
1
1
1
1
1
1
1
1
1
1
1
1
1
1
1
1
1
1
1
1

SCALARS radius float 1
LOOKUP_TABLE default
5e-05
5e-05
5e-05
5e-05
5e-05
5e-05
5e-05
5e-05
5e-05
5e-05
5e-05
5e-05
5e-05
5e-05
5e-05
5e-05
5e-05
5e-05
5e-05
5e-05
5e-05
5e-05
5e-05
5e-05
5e-05
5e-05
5e-05
5e-05
5e-05
5e-05
5e-05
5e-05
5e-05
5e-05
5e-05
5e-05
5e-05
5e-05
5e-05
5e-05
5e-05
5e-05
5e-05
5e-05
5e-05
5e-05
5e-05
5e-05
5e-05
5e-05
5e-05
5e-05
5e-05
5e-05
5e-05
5e-05
5e-05
5e-05
5e-05
5e-05
5e-05
5e-05
5e-05
5e-05
5e-05
5e-05
5e-05
5e-05
5e-05
5e-05
5e-05
5e-05
5e-05
5e-05
5e-05
5e-05
5e-05
5e-05
5e-05
5e-05
5e-05
5e-05
5e-05
5e-05
5e-05
5e-05
5e-05
5e-05
5e-05
5e-05
5e-05
5e-05
5e-05
5e-05
5e-05
5e-05
5e-05
5e-05
5e-05
5e-05
5e-05
5e-05
5e-05
5e-05
5e-05
5e-05
5e-05
5e-05
5e-05
5e-05
5e-05
5e-05
5e-05
5e-05
5e-05
5e-05
5e-05
5e-05
5e-05
5e-05
5e-05
5e-05
5e-05
5e-05
5e-05
5e-05
5e-05
5e-05
5e-05
5e-05
5e-05
5e-05
5e-05
5e-05
5e-05
5e-05
5e-05
5e-05
5e-05
5e-05
5e-05
5e-05
5e-05
5e-05
5e-05
5e-05
5e-05
5e-05
5e-05
5e-05
5e-05
5e-05
5e-05
5e-05
5e-05
5e-05
5e-05
5e-05
5e-05
5e-05
5e-05
5e-05
5e-05
5e-05
5e-05
5e-05
5e-05
5e-05
5e-05
5e-05
5e-05
5e-05
5e-05
5e-05
5e-05
5e-05
5e-05
5e-05
5e-05
5e-05
5e-05
5e-05
5e-05
5e-05
5e-05
5e-05
5e-05
5e-05
5e-05
5e-05
5e-05
5e-05
5e-05
5e-05
5e-05
5e-05
5e-05
5e-05
5e-05
5e-05
5e-05
5e-05
5e-05
5e-05
5e-05
5e-05
5e-05
5e-05
5e-05
5e-05
5e-05
5e-05
5e-05
5e-05
5e-05
5e-05
5e-05
5e-05
5e-05
5e-05
5e-05
5e-05
5e-05
5e-05
5e-05
5e-05
5e-05
5e-05
5e-05
5e-05
5e-05
5e-05
5e-05
5e-05
5e-05
5e-05
5e-05
5e-05
5e-05
5e-05
5e-05
5e-05
5e-05
5e-05
5e-05
5e-05
5e-05
5e-05
5e-05
5e-05
5e-05
5e-05
5e-05
5e-05
5e-05
5e-05
5e-05
5e-05
5e-05
5e-05
5e-05
5e-05
5e-05
5e-05
5e-05
5e-05
5e-05
5e-05
5e-05
5e-05
5e-05
5e-05
5e-05
5e-05
5e-05
5e-05
5e-05
5e-05
5e-05
5e-05
5e-05
5e-05
5e-05
5e-05
5e-05
5e-05
5e-05
5e-05
5e-05

SCALARS mass float 1
LOOKUP_TABLE default
1.46608e-10
1.46608e-10
1.46608e-10
1.46608e-10
1.46608e-10
1.46608e-10
1.46608e-10
1.46608e-10
1.46608e-10
1.46608e-10
1.46608e-10
1.46608e-10
1.46608e-10
1.46608e-10
1.46608e-10
1.46608e-10
1.46608e-10
1.46608e-10
1.46608e-10
1.46608e-10
1.46608e-10
1.46608e-10
1.46608e-10
1.46608e-10
1.46608e-10
1.46608e-10
1.46608e-10
1.46608e-10
1.46608e-10
1.46608e-10
1.46608e-10
1.46608e-10
1.46608e-10
1.46608e-10
1.46608e-10
1.46608e-10
1.46608e-10
1.46608e-10
1.46608e-10
1.46608e-10
1.46608e-10
1.46608e-10
1.46608e-10
1.46608e-10
1.46608e-10
1.46608e-10
1.46608e-10
1.46608e-10
1.46608e-10
1.46608e-10
1.46608e-10
1.46608e-10
1.46608e-10
1.46608e-10
1.46608e-10
1.46608e-10
1.46608e-10
1.46608e-10
1.46608e-10
1.46608e-10
1.46608e-10
1.46608e-10
1.46608e-10
1.46608e-10
1.46608e-10
1.46608e-10
1.46608e-10
1.46608e-10
1.46608e-10
1.46608e-10
1.46608e-10
1.46608e-10
1.46608e-10
1.46608e-10
1.46608e-10
1.46608e-10
1.46608e-10
1.46608e-10
1.46608e-10
1.46608e-10
1.46608e-10
1.46608e-10
1.46608e-10
1.46608e-10
1.46608e-10
1.46608e-10
1.46608e-10
1.46608e-10
1.46608e-10
1.46608e-10
1.46608e-10
1.46608e-10
1.46608e-10
1.46608e-10
1.46608e-10
1.46608e-10
1.46608e-10
1.46608e-10
1.46608e-10
1.46608e-10
1.46608e-10
1.46608e-10
1.46608e-10
1.46608e-10
1.46608e-10
1.46608e-10
1.46608e-10
1.46608e-10
1.46608e-10
1.46608e-10
1.46608e-10
1.46608e-10
1.46608e-10
1.46608e-10
1.46608e-10
1.46608e-10
1.46608e-10
1.46608e-10
1.46608e-10
1.46608e-10
1.46608e-10
1.46608e-10
1.46608e-10
1.46608e-10
1.46608e-10
1.46608e-10
1.46608e-10
1.46608e-10
1.46608e-10
1.46608e-10
1.46608e-10
1.46608e-10
1.46608e-10
1.46608e-10
1.46608e-10
1.46608e-10
1.46608e-10
1.46608e-10
1.46608e-10
1.46608e-10
1.46608e-10
1.46608e-10
1.46608e-10
1.46608e-10
1.46608e-10
1.46608e-10
1.46608e-10
1.46608e-10
1.46608e-10
1.46608e-10
1.46608e-10
1.46608e-10
1.46608e-10
1.46608e-10
1.46608e-10
1.46608e-10
1.46608e-10
1.46608e-10
1.46608e-10
1.46608e-10
1.46608e-10
1.46608e-10
1.46608e-10
1.46608e-10
1.46608e-10
1.46608e-10
1.46608e-10
1.46608e-10
1.46608e-10
1.46608e-10
1.46608e-10
1.46608e-10
1.46608e-10
1.46608e-10
1.46608e-10
1.46608e-10
1.46608e-10
1.46608e-10
1.46608e-10
1.46608e-10
1.46608e-10
1.46608e-10
1.46608e-10
1.46608e-10
1.46608e-10
1.46608e-10
1.46608e-10
1.46608e-10
1.46608e-10
1.46608e-10
1.46608e-10
1.46608e-10
1.46608e-10
1.46608e-10
1.46608e-10
1.46608e-10
1.46608e-10
1.46608e-10
1.46608e-10
1.46608e-10
1.46608e-10
1.46608e-10
1.46608e-10
1.46608e-10
1.46608e-10
1.46608e-10
1.46608e-10
1.46608e-10
1.46608e-10
1.46608e-10
1.46608e-10
1.46608e-10
1.46608e-10
1.46608e-10
1.46608e-10
1.46608e-10
1.46608e-10
1.46608e-10
1.46608e-10
1.46608e-10
1.46608e-10
1.46608e-10
1.46608e-10
1.46608e-10
1.46608e-10
1.46608e-10
1.46608e-10
1.46608e-10
1.46608e-10
1.46608e-10
1.46608e-10
1.46608e-10
1.46608e-10
1.46608e-10
1.46608e-10
1.46608e-10
1.46608e-10
1.46608e-10
1.46608e-10
1.46608e-10
1.46608e-10
1.46608e-10
1.46608e-10
1.46608e-10
1.46608e-10
1.46608e-10
1.46608e-10
1.46608e-10
1.46608e-10
1.46608e-10
1.46608e-10
1.46608e-10
1.46608e-10
1.46608e-10
1.46608e-10
1.46608e-10
1.46608e-10
1.46608e-10
1.46608e-10
1.46608e-10
1.46608e-10
1.46608e-10
1.46608e-10
1.46608e-10
1.46608e-10
1.46608e-10
1.46608e-10
1.46608e-10
1.46608e-10
1.46608e-10
1.46608e-10
1.46608e-10
1.46608e-10
1.46608e-10
1.46608e-10
1.46608e-10
1.46608e-10
1.46608e-10
1.46608e-10
1.46608e-10
1.46608e-10
1.46608e-10
1.46608e-10
1.46608e-10
1.46608e-10
1.46608e-10
1.46608e-10
1.46608e-10
1.46608e-10

VECTORS velocity float
0.00429426 -7.25216e-05 -0.000241432
0.00481884 -4.26946e-05 7.22373e-06
0.00483039 -1.31249e-05 2.67076e-05
0.00483454 -2.07572e-05 9.26962e-06
0.00440206 -0.000131575 -0.000204452
0.00441726 0.000109299 -4.98623e-05
0.0043223 -0.000102544 -0.0003387
0.0043902 -0.000134661 -0.000204508
0.00494121 0.000138496 0.000264539
0.00487185 2.89858e-05 -1.21376e-05
0.00462643 -0.000221248 -0.000389343
0.00492386 0.000152061 0.000240867
0.00472815 4.69285e-05 -4.32597e-05
0.00434941 -0.000240692 0.000329081
0.00468127 -1.76585e-05 -0.000194822
0.00434499 -0.000239698 0.000331978
0.00474516 9.11967e-05 -5.25957e-05
0.00486419 0.000159155 0.000237157
0.00449318 -0.00013608 -0.000199213
0.00444484 -8.86884e-05 -0.00016367
0.00437029 -0.000118506 -0.000211717
0.00459711 -0.000208546 -0.000488206
0.00488094 0.000152584 0.000240304
0.00445291 -0.000120375 -0.00021836
0.00478856 0.000178576 0.000222554
0.0046624 -0.000360362 0.000121222
0.00462823 -4.88607e-05 -8.43248e-05
0.00442025 0.000107454 -4.9046e-05
0.00486381 2.95704e-05 -2.97882e-05
0.0047138 5.18493e-05 -5.42051e-05
0.00441263 0.000110842 -5.1437e-05
0.00487936 2.37111e-05 -4.13464e-05
0.00425453 -6.12733e-05 -0.000244818
0.00498042 0.000162983 0.000257494
0.00435507 -6.92069e-05 -0.000288192
0.00430601 -0.000132333 -0.000202775
0.00479994 0.000174717 0.000223847
0.00438405 -9.03273e-05 -0.000304067
0.00434791 -9.81476e-05 -0.000227316
0.00451072 -3.94178e-05 -0.000211167
0.00482953 7.25503e-07 -8.87262e-05
0.00483175 7.5648e-05 -0.000257953
0.0044119 0.000112109 -5.38888e-05
0.00478897 0.000170883 0.00022493
0.00432275 -8.655e-05 -0.00023521
0.00441311 -0.000109712 -0.000221704
0.00475875 0.000184233 0.000219356
0.00485922 1.35926e-05 -3.55371e-05
0.00468224 -0.000425788 0.000165698
0.00484458 0.000177088 0.000229035
0.00430164 -5.68566e-05 -0.000253649
0.00435314 -0.000254271 0.000294791
0.00491365 4.5114e-05 -1.53687e-05
0.00457968 0.000150253 7.56838e-05
0.00447205 -0.000355794 0.000123459
0.00489687 0.000151474 0.000242971
0.00466402 -0.000148456 -0.000211186
0.00433106 -0.000101608 -0.000223059
0.00471814 -0.000120316 -0.000252017
0.00482493 -3.67063e-05 -1.4552e-05
0.00485344 0.000167917 0.000233136
0.00438976 -0.000136131 -0.000199511
0.00464634 -0.000396592 0.000145084
0.00462169 -5.45424e-05 -3.87397e-05
0.00453687 -0.000368023 0.000130608
0.00462357 1.86771e-05 -0.000119643
0.00445224 0.000217238 0.000149119
0.004366 -0.000282933 0.000238639
0.00492168 0.000139564 0.000244923
0.00433485 -7.39138e-05 -0.000246151
0.00481662 -0.000124237 5.22937e-06
0.00435172 -5.98986e-05 -0.000255337
0.00486446 0.000159909 0.000236641
0.00469609 -4.51016e-06 -0.000251991
0.00424827 -0.00035003 0.000122973
0.00432286 -0.000136361 -2.6926e-05
0.0047267 -7.24113e-06 8.85335e-06
0.00459456 -0.000362213 0.000130884
0.00470406 -0.000371952 0.000127879
0.00425369 -0.000306068 9.42632e-05
0.0048622 0.000175636 0.000228749
0.00426867 -0.000342187 0.000113354
0.00489612 2.00345e-05 -1.63357e-05
0.0049351 0.000132448 0.000260013
0.00487577 2.89397e-05 8.6532e-06
0.0048518 9.17232e-06 1.28296e-06
0.00484164 4.31082e-05 -5.02201e-05
0.00475717 0.000120801 -0.000127415
0.0047131 -6.85141e-05 -0.000263336
0.00472389 -1.66061e-06 -0.000248375
0.00488606 5.11996e-05 5.1427e-06
0.00472548 -4.4543e-07 -0.000248783
0.00473628 -2.32058e-05 5.29787e-06
0.00472658 -2.33495e-06 -0.000249269
0.00462334 -0.000377674 0.000128265
0.0046995 -6.15613e-05 -0.000251316
0.00446821 -0.000422184 0.000169447
0.00479304 -6.68939e-06 -3.03391e-05
0.00450355 -0.000184079 -0.000340348
0.00468011 -0.000404928 0.000151818
0.00425828 -0.00031827 0.000125756
0.00485947 -1.11251e-05 -8.87633e-06
0.00436962 -0.000227057 0.000330339
0.00485856 3.00814e-05 -3.03194e-05
0.00488687 4.18679e-05 -4.12286e-05
0.00488114 3.13664e-05 6.79707e-06
0.00474589 3.98853e-06 -0.000219719
0.00440571 -0.000294105 8.15648e-05
0.00486127 3.63589e-05 1.1195e-05
0.00476568 -0.000395377 0.000143391
0.00486682 -1.25973e-05 2.19614e-05
0.00476449 -0.00018142 -0.000197515
0.00438877 -0.000145419 -0.000200016
0.00473979 -0.000411363 0.000155026
0.00442388 0.000106089 -4.82978e-05
0.00433073 -7.80659e-05 -0.000249345
0.0044123 -0.000155176 -0.000210606
0.00467897 -6.65431e-05 -0.000247553
0.00425771 -0.000334655 0.000114303
0.00469371 -4.31166e-05 -0.00024768
0.00435254 -7.96444e-05 -0.000239818
0.00465674 0.000124871 -0.000102835
0.00426197 -0.000351986 0.000125759
0.00491185 1.75006e-05 -8.44187e-06
0.00468602 -0.000389758 0.000140364
0.00475492 2.28776e-05 -3.59296e-05
0.00467071 -0.000401253 0.000149475
0.0048613 -7.08613e-05 7.07322e-06
0.00430676 -6.27609e-05 -0.000254765
0.0049857 3.52901e-05 -3.91095e-05
0.00423765 -5.22542e-05 -0.000250543
0.00436499 -0.00021786 0.000317798
0.00471722 -4.53404e-05 -0.000250506
0.00484747 -3.43408e-06 1.08757e-05
0.00482413 1.36576e-05 -1.89345e-05
0.00475898 -6.36812e-06 9.00024e-06
0.00426783 -0.000344055 0.000118593
0.00492987 9.82719e-05 -0.000100033
0.00490513 -7.47545e-06 -2.56415e-06
0.00487846 1.35089e-05 -3.57201e-05
0.00467164 -4.09836e-05 -0.000248585
0.00428989 -0.000337854 9.80524e-05
0.00483154 -4.38288e-06 -1.04504e-05
0.00485146 5.09718e-05 8.78605e-06
0.00454821 -0.000190703 -0.000238335
0.00487496 -0.000408958 0.000149509
0.00456091 0.000156793 -2.42611e-05
0.00474568 -0.000389066 0.000138554
0.00431139 -0.000177908 2.8739e-06
0.00460415 -0.000387159 0.000143179
0.00475241 5.17857e-06 -0.000227806
0.00466304 -0.000383547 0.000135081
0.00432539 -9.23368e-05 -0.000227897
0.00476486 -0.000433077 0.000191812
0.00464371 -1.02165e-05 -0.000247363
0.00470214 -0.000434362 0.000172002
0.00464397 -1.21491e-05 -0.000246685
0.00471772 -0.000423897 0.000163722
0.00435358 -8.83814e-05 -0.000233978
0.00432368 -0.000333177 0.000111577
0.00479126 2.84698e-05 7.55199e-06
0.00469036 -0.000377174 0.000188448
0.00480446 -0.000437125 0.000171157
0.00469459 -6.95943e-05 -0.000251863
0.00475912 -0.000435106 0.000192721
0.00465649 -5.68623e-05 -0.000246917
0.00469908 -0.000428874 0.000168886
0.00474243 -0.000395799 0.000142901
0.00463949 -0.000351699 0.000115185
0.00469798 -0.000403713 0.000149864
0.00469835 -0.000414131 0.000157964
0.00482192 -0.0004108 0.000151198
0.00483232 3.44849e-05 1.47279e-05
0.0043007 -0.000332805 0.000111467
0.00437211 -5.44418e-05 -0.000263488
0.00473843 -0.000457579 0.000188734
0.00479572 -3.31939e-05 1.64601e-05
0.00488049 -0.000381086 0.000130908
0.00477745 -0.000417631 0.000193372
0.00453728 0.000249558 -0.000328121
0.00462629 -4.90415e-05 -0.000245928
0.00465091 -0.000124073 -0.000218852
0.00486046 -0.000416247 0.000152204
0.00467178 -3.92116e-05 -0.000247977
0.00488399 -0.000449456 0.000169441
0.00469322 -3.16587e-05 -0.000247395
0.00438113 -0.000115063 -0.000217596
0.00474435 -0.000404812 0.000191261
0.00427243 -0.000330372 0.000110618
0.00441187 -0.000124079 -0.000211463
0.00437637 -0.000341501 0.000116152
0.00471867 -0.000417205 0.000162594
0.00426887 -0.000350893 0.000125581
0.00470337 -0.000355032 0.000189046
0.00467285 -0.000418339 0.000165857
0.0042863 -7.3087e-05 -0.000242165
0.00469745 -0.000426791 0.000169994
0.0047316 -0.000382229 0.000133805
0.00468162 -0.00042126 0.000162189
0.00455154 -0.000430769 0.000175491
0.0047178 -0.000434417 0.00019
0.00460828 -0.000338676 0.000106981
0.00472147 -1.91147e-05 5.9132e-06
0.00470017 -3.40211e-06 -0.000251381
0.00490798 0.000159791 0.000239659
0.0047615 1.89739e-05 -9.6171e-05
0.0047017 -0.000396795 0.000144975
0.00471581 -0.000403364 0.000149577
0.00468961 -6.14269e-05 -0.000249931
0.00462308 -7.25805e-06 -0.00024711
0.00474477 -8.00055e-06 -0.000235644
0.00433942 -8.48552e-05 -0.000235507
0.00426427 -0.000329863 0.000110431
0.00434551 -0.000103026 -0.000222655
0.00429012 -0.000262456 6.26517e-05
0.00426222 -0.000357053 0.000129868
0.00490424 0.000174405 0.000232497
0.00474519 -0.000421979 0.000191424
0.00434118 -0.000236513 0.000331112
0.00480722 -0.000399209 0.000198512
0.00456626 -0.000370975 0.000130392
0.00472053 -0.000394699 0.000190375
0.00482859 -0.000386083 0.000224521
0.00443302 -0.000348054 0.000118865
0.00466635 -7.74311e-06 -0.000248857
0.00470862 -4.55744e-05 -0.00024924
0.00462726 -0.000334062 0.00018646
0.00473126 -0.000343512 0.000187116
0.00455194 -0.000396453 0.000183644
0.00478095 -0.000386069 0.000193101
0.00483198 3.6296e-05 9.72503e-05
0.00475948 -0.000352702 0.000186209
0.0047706 -0.00038212 0.000189887
0.00478555 3.04391e-05 0.000100408
0.00485987 3.42679e-05 9.89102e-05
0.00475522 -0.000383575 0.000190169
0.00491009 -1.14633e-07 0.000127258
0.00438179 -0.000133407 -0.000202792
0.00463902 -3.58499e-05 -0.000246515
0.00480246 -0.000371213 0.000212544
0.00439032 -0.000124257 -0.000209429
0.00450769 -8.56944e-05 -0.000242671
0.00489103 2.0936e-05 0.000109331
0.00472367 -0.000452795 0.000181188
0.0047329 -0.000426344 0.00018913
0.00460369 -0.000385934 0.000141643
0.00478041 -0.000361523 0.00018475
0.0046628 -0.000396674 0.000188038
0.00462603 -0.000417853 0.00018711
0.00471908 -0.000420815 0.000186551
0.00487014 -4.57178e-05 4.81692e-06
0.00466719 -0.000335746 0.000187338
0.00461668 -0.000453557 0.000186893
0.00492266 -8.93525e-05 -0.000180223
0.00466205 -0.000360276 0.000187924
0.00484754 -0.000407295 0.00017776
0.00461753 -2.26134e-05 -0.000245853
0.0046579 -0.000413402 0.000158069
0.00474275 -0.000445858 0.000192329
0.00470076 -0.000428635 0.00018976
0.00466295 -0.000425728 0.000188605
0.00458101 -0.000353222 0.000184298
0.00454102 -0.000393129 0.000183243
0.00474417 -0.000428208 0.000191919
0.00466793 -0.000442868 0.000189121
0.00476196 -0.000426641 0.000192247
0.00460453 -0.000332547 0.000184988
0.0046681 -8.52124e-06 -0.000249222
0.00494677 -1.11004e-05 0.000145777
0.00495627 -6.05927e-05 -0.000181739
0.0046922 -0.000441694 0.000175448
0.00488019 -8.95243e-05 -0.000186251
0.00495261 -0.000100864 -0.000147261
0.00472613 -0.000376661 0.000189916
0.00469925 -0.000337822 0.000186766
0.00471848 -0.000430479 0.000190771
0.00488457 -8.45206e-05 -0.000120047
0.00459712 -0.000355914 0.000184807
0.00426922 -0.000339323 0.000118134
0.00451578 -0.000456247 0.000183154
0.00471003 -0.000462295 0.000193602
0.00483157 -1.79918e-05 1.33836e-07
0.00457732 -0.00033654 0.000184113
0.0042612 -0.000339077 0.00011773
0.00484987 -2.84984e-06 1.67157e-05
0.00461892 -0.000156046 -0.000200716
0.00472846 -0.000429605 0.000180546
0.00460603 -0.000393221 0.00014563
0.00474517 -3.5491e-05 1.91475e-05

VECTORS force float
-2.15131e-10 3.82635e-10 -2.66699e-10
-9.24961e-11 7.79896e-11 5.99011e-11
-1.12347e-10 2.42199e-10 -9.51424e-11
-2.67562e-10 1.67826e-10 1.44079e-11
1.08411e-10 -4.53502e-12 -5.13065e-11
5.22296e-12 -6.87439e-12 1.10979e-12
-1.97199e-10 4.87088e-11 -1.97482e-10
-3.14786e-11 -7.82113e-11 6.17027e-11
2.13727e-10 2.03364e-10 7.18269e-11
8.96605e-11 -1.99606e-10 2.42566e-11
-1.11421e-10 3.04037e-11 -1.64693e-10
-6.33171e-11 -1.67692e-10 7.10926e-11
1.76261e-11 -8.87973e-11 1.83603e-10
4.92465e-11 6.31485e-11 1.03141e-10
1.2926e-10 -6.83383e-11 -2.05721e-10
-7.04026e-11 -9.6919e-11 4.69885e-11
-2.71704e-10 -5.12718e-11 -5.97543e-11
5.80874e-11 1.17863e-10 -4.13303e-11
8.68886e-11 1.5571e-10 -3.19237e-10
-4.11176e-11 3.83024e-10 2.46723e-11
4.237e-12 1.25993e-10 -4.84439e-11
-2.13055e-10 -3.52221e-10 -6.66883e-12
-5.95149e-12 4.09346e-11 2.10866e-12
1.28857e-11 -1.06008e-11 -3.26533e-11
-3.70021e-11 1.27083e-10 -1.23392e-11
-2.41633e-10 -5.74416e-11 2.07428e-11
2.49576e-11 7.89248e-11 -3.05771e-10
-3.39616e-12 -5.37053e-12 7.19403e-12
-5.77462e-10 1.02333e-10 -3.30583e-10
-3.37408e-10 -1.12397e-10 -1.77798e-10
-3.38003e-12 -1.88411e-11 -9.7937e-13
-2.63562e-10 4.10719e-10 -1.99672e-12
-5.07809e-10 1.86984e-10 -1.10166e-10
-4.90989e-11 2.93292e-10 3.81124e-11
-1.40171e-10 -9.63432e-12 -1.3929e-10
1.67311e-10 9.05923e-11 -1.10265e-11
-8.94235e-11 -1.88855e-10 3.73202e-11
-6.7094e-11 5.70358e-13 -1.30968e-10
1.23442e-10 3.43043e-10 -2.50496e-10
-5.38008e-11 1.66306e-12 -1.99169e-10
-6.78314e-10 2.36225e-10 -2.63065e-10
-1.7118e-10 2.52712e-11 1.50505e-11
2.53445e-12 2.83081e-11 7.12345e-12
2.69941e-10 -3.62243e-11 3.76575e-11
-6.26064e-11 2.74301e-10 -2.28936e-10
6.10967e-10 2.16774e-10 -9.65336e-11
-4.8257e-11 3.86105e-12 6.9938e-12
-4.22551e-11 -8.94885e-11 -4.64279e-10
-7.0605e-11 -2.27605e-11 1.25303e-11
-1.13006e-10 8.67825e-11 -6.62886e-11
-6.03493e-10 -1.30818e-10 1.22814e-10
1.57058e-11 1.94529e-10 2.57538e-10
9.57029e-11 1.5947e-10 -9.13118e-11
-6.33293e-11 5.80215e-11 1.56204e-11
-1.41851e-10 3.17057e-11 -2.09918e-11
6.62587e-11 -1.39771e-11 -1.02529e-11
-1.21584e-10 3.90466e-10 -2.50276e-10
7.43678e-12 2.0126e-10 -1.53833e-10
-7.35902e-10 1.27635e-10 -2.60144e-10
-1.51011e-10 5.37871e-10 9.0783e-11
1.65137e-10 1.05306e-10 -1.8899e-11
-1.40362e-10 -1.19984e-10 1.32278e-10
-1.23862e-10 7.20488e-11 -8.23991e-11
-7.09111e-11 3.16908e-10 9.1202e-11
-9.81782e-11 1.15141e-10 -5.75413e-11
-9.68231e-11 -1.1894e-10 -2.33348e-10
-1.38136e-09 2.3755e-10 4.50866e-10
1.156e-10 1.59274e-11 -1.15556e-10
-6.66135e-11 -1.68511e-10 3.25302e-10
9.2344e-11 2.37099e-10 -1.44887e-10
-3.93214e-10 -2.46544e-11 1.48916e-11
-5.04415e-12 1.01645e-10 -1.01237e-10
-2.59097e-11 -5.00193e-11 2.38499e-11
-2.84724e-11 -5.78584e-11 3.75577e-11
4.6837e-11 1.7551e-10 -1.41212e-10
2.80029e-11 3.17637e-10 -2.19655e-10
2.47632e-10 1.26917e-10 2.95381e-13
-6.74435e-11 7.58532e-11 2.27655e-11
-4.02322e-11 -3.26762e-11 2.18521e-11
5.68811e-11 2.3058e-11 -3.07074e-11
-2.21166e-11 1.68362e-11 7.63052e-12
-1.27171e-10 1.34608e-11 9.12948e-11
-3.86867e-10 -1.25362e-10 2.98845e-10
4.06695e-11 -2.30812e-11 1.27448e-11
-3.31355e-10 2.31189e-10 7.3887e-11
-4.32213e-10 2.28197e-10 1.2065e-10
3.22889e-10 1.30296e-10 1.22988e-11
-1.70809e-10 1.79274e-10 -8.86095e-11
-1.24669e-12 5.86974e-11 8.2747e-11
2.48303e-11 2.7833e-11 1.67919e-11
3.05983e-11 3.13163e-10 1.13953e-10
1.40933e-11 6.16141e-12 6.40139e-11
-7.41503e-11 2.12793e-10 8.19179e-12
-5.73539e-11 3.64037e-12 1.90496e-11
-1.47228e-10 -2.75086e-12 -2.72246e-11
-3.56479e-11 -9.4529e-11 -1.48375e-12
-1.31061e-10 3.07891e-11 -7.29867e-12
2.26728e-10 2.61027e-10 -3.93689e-11
1.9229e-10 -2.41442e-10 -4.55748e-10
-6.20232e-11 1.36092e-11 -1.03803e-11
-1.63182e-10 -1.7062e-10 -2.6625e-10
2.58761e-10 -8.73015e-11 -1.37345e-10
-7.36582e-11 -8.33879e-11 3.16891e-11
-1.66023e-10 4.18926e-10 6.60656e-11
-8.56133e-11 1.48572e-10 -1.09317e-10
-1.5589e-10 -1.71734e-10 1.8829e-10
2.4924e-11 7.68878e-11 2.02422e-10
6.327e-11 1.1838e-11 -4.90205e-12
-1.45649e-10 -2.70481e-11 4.57075e-11
-6.05131e-11 9.4188e-11 -6.81127e-11
-1.33435e-10 2.49301e-10 -2.13811e-13
-6.76245e-10 -8.05188e-11 1.65467e-10
-4.571e-10 4.47599e-11 -1.47673e-10
-4.01951e-11 6.71256e-11 -4.35878e-11
-1.27127e-13 -5.38781e-12 2.03902e-12
1.14268e-11 3.4305e-11 -2.59079e-10
-2.29043e-10 4.25572e-10 2.17427e-10
-1.51465e-10 -1.10089e-10 8.40595e-12
1.26485e-10 -5.64006e-11 3.67653e-11
-4.19407e-11 -5.38894e-11 7.14248e-12
3.15383e-11 2.15539e-10 -1.86287e-10
-4.21055e-10 5.74959e-10 2.81274e-11
-3.23877e-11 7.24377e-11 -4.85201e-11
-6.77998e-10 8.04885e-11 -7.91876e-11
-6.25929e-11 -3.27474e-12 1.33136e-11
-4.75383e-10 2.7932e-10 -1.20181e-10
-1.16781e-10 7.14417e-12 -9.13145e-12
-3.70835e-10 1.77245e-11 -1.13815e-11
-1.70395e-10 3.32168e-10 -1.88445e-10
3.98212e-10 9.97834e-11 -5.31487e-11
2.00325e-10 2.52902e-10 -2.46262e-10
-5.95934e-11 -1.27099e-10 5.52687e-11
-7.42931e-11 2.36098e-11 1.20788e-11
-4.46188e-10 1.16015e-10 7.08498e-12
-2.62914e-10 6.16633e-11 -1.90191e-10
-1.618e-10 2.04115e-11 -1.14405e-11
1.39698e-10 -5.26487e-11 -1.19318e-11
-2.99241e-10 -2.17069e-10 1.86938e-10
2.93616e-10 8.18666e-11 -2.13437e-10
-2.66644e-10 -3.86038e-10 -7.60357e-11
-2.5564e-10 -5.9108e-11 1.47957e-11
-2.46684e-10 -1.57216e-11 1.58232e-11
5.59098e-10 1.29477e-10 -8.59653e-11
-9.93055e-11 4.10516e-11 -3.66376e-11
-4.91793e-10 1.48238e-09 1.7254e-09
-7.97838e-11 -1.5603e-11 2.71337e-11
-6.34588e-10 5.63882e-11 1.04429e-10
-1.45382e-10 5.16366e-11 -2.87724e-11
-1.6151e-11 3.72869e-12 -4.02414e-12
-2.02232e-11 9.58351e-11 -6.75629e-11
1.57323e-10 2.04029e-10 1.64528e-10
-1.25067e-10 2.36748e-11 -1.38513e-11
-9.05278e-11 2.01794e-10 -1.21277e-10
-2.52866e-11 7.3196e-11 1.25132e-11
-3.44129e-12 -5.66982e-11 3.88969e-12
-3.90888e-12 -2.59872e-11 1.29728e-11
5.04447e-11 -3.52813e-11 -3.97442e-12
-4.56124e-11 1.01654e-11 -3.60465e-12
-9.92879e-11 3.76002e-10 -2.52228e-10
-6.99928e-11 1.01295e-10 -7.15558e-11
5.5929e-12 1.19011e-10 -4.59841e-11
8.70719e-11 8.66885e-11 7.27709e-12
-1.35395e-10 -3.76078e-12 8.80143e-12
-9.86534e-11 -5.52499e-11 -1.70453e-11
-6.51011e-12 1.85682e-10 3.7537e-12
-2.57276e-10 -1.39374e-10 2.16135e-11
-2.87349e-11 -5.61361e-11 6.25032e-12
2.45436e-10 -2.04748e-10 1.29013e-10
-8.18945e-12 -4.90874e-11 2.43102e-11
1.80378e-10 -2.79321e-11 1.75549e-12
-2.07457e-11 2.78636e-11 -1.09146e-11
6.27349e-12 1.20486e-10 -8.33541e-11
-4.87456e-11 6.85614e-11 4.62468e-11
-7.1587e-11 3.85529e-12 4.13994e-12
-1.42747e-10 2.26429e-10 -1.96604e-10
-7.85975e-11 3.73502e-11 -1.5724e-11
-2.65374e-10 -3.32179e-11 4.66864e-11
-6.46303e-11 -3.28257e-11 4.42244e-11
-1.15663e-10 1.70639e-10 1.01776e-11
3.20808e-10 6.73386e-10 -6.40084e-10
-2.21532e-10 -1.3075e-10 2.2456e-11
-1.88634e-10 3.35803e-10 -2.33427e-10
6.19699e-11 1.90607e-10 -8.52975e-11
-7.36807e-11 -7.11821e-12 -1.80869e-11
-8.60678e-12 2.25813e-10 4.20524e-11
-2.99918e-11 1.60408e-10 -1.97569e-11
3.72618e-11 3.0686e-11 -2.64457e-11
4.40129e-11 -4.45535e-10 7.11123e-12
5.19976e-11 8.19711e-11 -6.47757e-11
8.8851e-11 -5.33217e-11 2.85369e-11
-1.96295e-10 6.12555e-11 -3.27125e-11
5.17091e-11 -2.77489e-10 1.78987e-10
3.78783e-11 8.93249e-11 -6.68118e-11
3.26847e-12 7.13658e-12 -1.36271e-11
6.41135e-11 -2.54844e-11 -2.14318e-11
-4.69245e-10 2.00471e-10 -1.24864e-10
-8.26356e-11 -4.68393e-12 -3.46037e-11
-3.36328e-11 -2.37285e-11 1.3766e-11
1.50851e-10 -9.66869e-11 2.56462e-11
8.37171e-12 4.24528e-11 -1.32685e-11
2.82229e-11 4.05229e-11 9.43241e-12
-7.81806e-13 4.31897e-11 -2.30062e-11
-2.69993e-10 -1.77627e-10 8.68829e-11
-4.11114e-12 2.64924e-11 1.0685e-12
-2.88971e-11 -4.38978e-12 -3.19605e-12
4.8774e-11 9.06606e-11 1.28756e-10
-6.46815e-11 4.26577e-11 -2.97982e-11
-3.53603e-11 6.24101e-11 -5.02954e-11
-1.09713e-10 -1.03472e-10 7.65392e-12
-7.68675e-12 -4.30678e-11 -1.03368e-11
-2.25473e-11 7.8024e-11 1.64361e-10
1.42929e-11 2.09827e-10 -1.66304e-10
1.10203e-10 -4.83044e-11 4.03389e-11
-9.64489e-11 1.16601e-10 -8.91617e-11
-4.79308e-11 -1.99759e-11 1.52462e-11
-9.08362e-12 7.8096e-11 -5.19298e-11
-3.39629e-11 -6.3085e-11 1.7601e-11
-3.35531e-11 9.50429e-11 -1.76099e-11
-4.49778e-11 -1.67334e-10 1.35418e-10
3.07692e-11 1.0389e-10 1.65092e-11
-5.20084e-11 -1.13443e-11 -9.01252e-12
-2.99531e-11 1.28635e-10 3.7292e-12
1.34206e-10 1.88062e-10 1.41987e-10
-1.80746e-10 1.11446e-10 -7.38805e-11
-2.8512e-12 -4.8148e-12 -1.6794e-11
1.00784e-10 2.44188e-10 1.10026e-11
-6.62161e-11 -1.44242e-10 1.63179e-11
2.02781e-11 1.0602e-10 3.80227e-11
-9.98415e-11 -1.09086e-10 -5.25325e-12
-3.47394e-12 9.41244e-11 -1.95124e-11
3.52718e-11 6.08844e-11 -3.01202e-11
1.10592e-10 8.16954e-11 7.48501e-12
-1.06939e-10 5.64176e-11 -8.53409e-12
8.6677e-11 1.25639e-10 -9.22475e-11
-6.4034e-11 -1.83383e-10 7.46736e-11
1.01111e-10 -3.75017e-11 7.36903e-12
3.12076e-10 -1.68113e-10 1.56644e-10
3.37575e-10 -1.65821e-10 8.56806e-11
-9.94703e-11 -6.00875e-11 3.54771e-12
-1.30508e-10 1.20632e-10 1.10822e-11
-7.33153e-11 -9.10445e-11 7.52385e-11
-7.80491e-10 1.75725e-10 -5.98254e-11
-1.76232e-10 -2.32745e-10 1.18405e-10
-7.20632e-11 1.12061e-11 -4.37932e-11
4.34127e-11 1.05952e-10 1.07509e-11
1.04128e-11 -4.20167e-11 2.50074e-11
1.95802e-11 4.69705e-11 9.92618e-12
-5.34921e-11 4.24483e-10 -9.50184e-12
-1.26824e-10 -2.10431e-10 4.27661e-12
-2.31376e-11 -1.93197e-10 2.3188e-11
-3.44166e-10 1.83203e-10 2.42277e-11
1.92967e-11 3.94484e-11 -1.45655e-11
2.05215e-11 1.87178e-10 -4.06088e-13
-3.06562e-11 -4.14964e-11 1.18136e-10
9.94489e-11 1.07667e-11 1.12344e-12
7.57931e-11 1.74693e-10 -9.15352e-13
1.78948e-10 1.91955e-11 -9.54571e-12
-4.21927e-11 -8.54453e-12 1.98185e-11
-2.17878e-11 4.21703e-11 -5.53221e-12
-2.62348e-11 1.42429e-10 7.25814e-12
-9.85746e-11 -6.24675e-11 -1.64749e-11
1.68382e-11 -2.82106e-10 1.93733e-12
2.74167e-10 -6.60798e-11 1.11116e-11
4.1621e-11 2.70391e-11 -5.24869e-12
-1.15634e-10 3.34316e-10 -8.08031e-12
-7.67835e-11 -4.00449e-11 -7.70608e-12
2.36061e-11 -1.01528e-10 4.14969e-13
-6.10963e-11 -1.00453e-10 -7.56163e-12
1.54288e-10 -6.13871e-12 -1.6121e-11
3.1616e-10 -1.95768e-11 -1.13222e-10
-3.42218e-11 -1.34642e-10 7.61593e-11
2.44125e-11 7.50989e-11 2.29567e-11
2.14312e-10 -6.54183e-11 -3.42441e-10
-1.39717e-10 -3.97542e-11 1.11755e-11
5.51498e-11 9.21848e-11 -2.04353e-11
1.38759e-11 -6.60734e-11 9.36173e-13
-1.07431e-10 -1.95577e-10 -3.64723e-10
-1.14822e-10 -4.89988e-11 3.64347e-12
7.30345e-11 -4.35316e-11 1.37759e-11
-2.96737e-11 -2.3671e-10 2.35275e-12
-6.72171e-11 4.37003e-11 -3.01811e-11
-3.00528e-10 2.83091e-10 -2.13544e-10
1.91162e-11 -1.80828e-10 -3.27732e-12
-9.29982e-11 5.89996e-12 2.81941e-11
-3.91551e-10 2.96068e-10 6.08333e-11
-4.71124e-11 3.82891e-12 2.21785e-12
-5.00138e-11 1.72647e-11 -2.75323e-12
1.01212e-10 -5.37097e-11 3.77037e-11
-1.30152e-10 2.77537e-10 -1.06415e-10
