# vtk DataFile Version 3.0
LIGGGHTS particles timestep 77200000
ASCII
DATASET POLYDATA
POINTS 277 float
0.366932 0.0173601 0.00740516
0.367121 0.01803 0.00704221
0.366866 0.0174925 0.00721268
0.366846 0.0174149 0.00727271
0.366381 0.015541 0.00852066
0.372668 0.0166569 0.00767122
0.36636 0.0154597 0.00857513
0.372907 0.0176606 0.00707184
0.367202 0.0185801 0.00695897
0.366739 0.0166255 0.00779648
0.372867 0.0174782 0.00713919
0.367127 0.0186467 0.00696133
0.361026 0.0181187 0.00705386
0.367181 0.018482 0.00696051
0.360838 0.0172503 0.00744678
0.373035 0.0182196 0.00693725
0.366939 0.0177381 0.00714986
0.366996 0.0173037 0.00734461
0.366401 0.0156223 0.00846618
0.366906 0.0176552 0.00710362
0.372824 0.017305 0.00722897
0.367176 0.017609 0.00714322
0.372766 0.0170619 0.00739483
0.360917 0.0168756 0.00759017
0.367049 0.0177717 0.00712906
0.372648 0.0165759 0.0077265
0.367028 0.0178607 0.0070596
0.367365 0.0182081 0.00695555
0.372688 0.0167379 0.00761594
0.366944 0.0178237 0.00709834
0.36716 0.0183842 0.00696207
0.373003 0.0179334 0.00700725
0.367194 0.0178511 0.00697258
0.366814 0.0165716 0.00783532
0.367203 0.0176893 0.00708966
0.367377 0.0180614 0.00695903
0.367022 0.0177645 0.0070331
0.366901 0.0172763 0.00736028
0.372707 0.016819 0.00756065
0.372786 0.0171428 0.00733958
0.366546 0.0161909 0.00808517
0.366976 0.0172224 0.00739911
0.372746 0.016981 0.00745009
0.36706 0.0175514 0.00717868
0.360933 0.0177598 0.00704244
0.360984 0.0175609 0.00716643
0.367204 0.0181386 0.00696229
0.372728 0.0168998 0.00750544
0.360779 0.0167281 0.00767971
0.372844 0.0173893 0.00717906
0.367234 0.0183168 0.00695975
0.366422 0.0157036 0.0084117
0.366854 0.0167343 0.00772625
0.366961 0.0175204 0.00719667
0.372805 0.017224 0.00728425
0.366585 0.0163563 0.0079797
0.361089 0.0184658 0.00698168
0.367086 0.0184509 0.00696443
0.360938 0.0169589 0.00753881
0.366935 0.0170597 0.00750814
0.373096 0.0185088 0.0068883
0.360856 0.0166257 0.00774422
0.372886 0.0175657 0.00709469
0.366699 0.0164628 0.00790556
0.366664 0.0166792 0.00775777
0.367168 0.017857 0.0070688
0.373014 0.0181247 0.0069601
0.366947 0.0178191 0.00699634
0.360489 0.0159526 0.0082098
0.392848 0.0240513 6.33589e-05
0.367257 0.0179335 0.0069672
0.361047 0.0182704 0.0069737
0.361182 0.0175463 0.00717816
0.360509 0.0160176 0.00813648
0.372951 0.0178504 0.00702614
0.360759 0.0166447 0.0077311
0.367002 0.0176831 0.00708763
0.372929 0.0177555 0.007049
0.366874 0.0168156 0.00767172
0.367036 0.0174667 0.00723539
0.366759 0.0167069 0.00774195
0.366565 0.0162724 0.00803051
0.367113 0.0173654 0.00730637
0.36688 0.017195 0.00741476
0.36682 0.0169509 0.00757835
0.367064 0.0178857 0.00696964
0.367284 0.0178153 0.00699677
0.367107 0.0177226 0.00706406
0.361249 0.0177951 0.00702487
0.367043 0.0182556 0.00696759
0.361149 0.0177909 0.00702609
0.367081 0.0176341 0.00712328
0.367353 0.0179613 0.00696597
0.360979 0.0171255 0.00743615
0.361005 0.0176442 0.00711509
0.366982 0.0175267 0.00729428
0.360449 0.0158284 0.00836135
0.367282 0.018031 0.00696046
0.366884 0.0175807 0.00725789
0.366926 0.0177375 0.0070506
0.366525 0.0161136 0.00814498
0.367067 0.0179857 0.00697073
0.360799 0.0168113 0.00762839
0.366785 0.0171674 0.00743057
0.366826 0.0173301 0.0073215
0.366719 0.0165441 0.00785101
0.36111 0.0185635 0.00698568
0.372629 0.0164949 0.00778179
0.367133 0.0174468 0.00725181
0.367072 0.0172027 0.00741541
0.366705 0.016842 0.0076487
0.360975 0.0179357 0.00696004
0.367 0.0180603 0.00697107
0.367266 0.0182219 0.00695926
0.366834 0.0166529 0.00778079
0.360529 0.0160923 0.00807304
0.367107 0.0185487 0.00696287
0.360587 0.0163416 0.0079166
0.366484 0.0159475 0.00824827
0.361117 0.0181597 0.00706325
0.366887 0.0174971 0.0073126
0.366955 0.0171411 0.00745363
0.367016 0.0173851 0.00729003
0.36678 0.0167882 0.00768742
0.361042 0.0179225 0.00705248
0.366839 0.0172685 0.00746827
0.366725 0.0169233 0.00759417
0.366895 0.016897 0.00761719
0.367118 0.0181888 0.00696523
0.36106 0.0179915 0.00696409
0.366505 0.0160285 0.00819398
0.367212 0.0179459 0.00705535
0.36686 0.0171137 0.00746929
0.366644 0.0165979 0.0078123
0.360469 0.0158905 0.00828558
0.367099 0.0179329 0.00705079
0.367093 0.017284 0.0073609
0.366679 0.0163813 0.00796016
0.360902 0.0172286 0.00737287
0.366988 0.0179872 0.00703821
0.36078 0.0170072 0.00759993
0.360739 0.0165612 0.00778256
0.361068 0.0183681 0.00697769
0.366981 0.0176017 0.00714216
0.361232 0.0182712 0.00697081
0.367139 0.0182865 0.00696365
0.361082 0.0175421 0.0071794
0.3668 0.0168696 0.00763289
0.361207 0.0185413 0.00698315
0.366745 0.0170047 0.00753964
0.360892 0.0175931 0.00714521
0.366915 0.0169784 0.00756266
0.361353 0.0179426 0.00695435
0.367201 0.0177699 0.0070305
0.361219 0.0182115 0.00705007
0.361146 0.0179396 0.00705339
0.367096 0.0180906 0.00696684
0.360936 0.0177777 0.00714078
0.366941 0.017439 0.00725124
0.361061 0.0174588 0.00723073
0.360789 0.0171751 0.00740284
0.360819 0.0171663 0.00749765
0.361228 0.0186391 0.00698715
0.36102 0.0172922 0.00733341
0.36082 0.0168946 0.00757706
0.366966 0.0179206 0.00710941
0.360986 0.0180035 0.00703366
0.36719 0.0182252 0.00702418
0.361026 0.0181727 0.00696973
0.36711 0.0178046 0.00700657
0.360666 0.0166754 0.00771078
0.360882 0.0171445 0.00742303
0.372992 0.0180298 0.00698295
0.366828 0.0173546 0.00741843
0.366787 0.017188 0.00752842
0.367025 0.0176903 0.00718448
0.361282 0.0178753 0.00697561
0.367064 0.0183533 0.00696601
0.366463 0.0158662 0.00830275
0.36093 0.0176067 0.00723662
0.361227 0.0180656 0.00696179
0.367005 0.0176087 0.00723921
0.360912 0.0176765 0.00709378
0.361088 0.0180344 0.00704993
0.360548 0.0161746 0.00801954
0.361222 0.017713 0.00707541
0.361166 0.0183459 0.00697516
0.367255 0.0184145 0.00695816
0.360909 0.0175227 0.00728854
0.360626 0.0165085 0.00781369
0.360923 0.0173112 0.00732031
0.360958 0.0170423 0.00748745
0.361187 0.0184435 0.00697915
0.367043 0.0181032 0.00705081
0.366604 0.0164351 0.00792139
0.373076 0.0184114 0.00689905
0.366684 0.0167606 0.00770323
0.360607 0.0164251 0.00786518
0.366624 0.0165165 0.00786683
0.367369 0.0178628 0.00697311
0.367022 0.0181579 0.00696983
0.360766 0.0170949 0.00755411
0.367303 0.0181291 0.00695852
0.360876 0.016709 0.00769283
0.360568 0.0162581 0.00796808
0.373057 0.0183145 0.00691439
0.360768 0.0170917 0.00745419
0.361122 0.0177088 0.00707665
0.360841 0.0169779 0.0075257
0.360809 0.0172584 0.0073515
0.361157 0.0179698 0.00695874
0.360646 0.016592 0.00776224
0.361257 0.0179703 0.0069571
0.36684 0.0170323 0.00752382
0.366921 0.0173576 0.00730578
0.361303 0.018572 0.006983
0.360686 0.0167588 0.00765939
0.361127 0.0180653 0.00696336
0.360861 0.0170613 0.00747433
0.354896 0.0176274 0.00722159
0.360964 0.0174776 0.00721776
0.360727 0.0169283 0.00756184
0.354875 0.017541 0.00726736
0.354917 0.0177138 0.00717583
0.361245 0.018164 0.00696586
0.354959 0.0178866 0.00708431
0.367155 0.0175279 0.0071977
0.366765 0.017086 0.0074851
0.361323 0.0180964 0.00696164
0.366442 0.0157849 0.00835722
0.215741 0.019982 0.00563384
0.354938 0.0178002 0.00713007
0.361282 0.0184742 0.006979
0.361102 0.0176254 0.00712806
0.360897 0.0167923 0.0076415
0.361176 0.0178729 0.00697564
0.361202 0.0176296 0.00712682
0.360945 0.0173966 0.00727345
0.360871 0.0175083 0.00719746
0.367158 0.0179442 0.00697107
0.361145 0.0181636 0.00696743
0.361106 0.0178553 0.00708963
0.355002 0.0180593 0.00699278
0.360988 0.0173932 0.00736394
0.36076 0.0169125 0.00765497
0.366794 0.0164902 0.00788986
0.361112 0.0183346 0.00706133
0.360988 0.017845 0.00708499
0.361036 0.0182183 0.00705825
0.361025 0.0177276 0.00706369
0.36113 0.0186613 0.00698968
0.360914 0.0176948 0.00719209
0.36083 0.0173417 0.00730015
0.361005 0.0180751 0.00696634
0.361261 0.0183765 0.00697501
0.360827 0.0173439 0.0074001
0.366923 0.017655 0.00720329
0.404182 0.0211142 0.0056569
0.355039 0.0182348 0.00690443
0.360953 0.0178431 0.00699109
0.355022 0.0181461 0.0069475
0.35498 0.0179729 0.00703855
0.361042 0.0173752 0.0072823
0.360706 0.0168421 0.00760806
0.36085 0.017425 0.00724881
0.367182 0.018041 0.00696399
0.361075 0.0177729 0.00713724
0.361048 0.0178105 0.0070126
0.360881 0.0174266 0.00734396
0.36114 0.018255 0.00700787
0.366968 0.0179139 0.00697312
0.360747 0.0170084 0.00750553
0.360999 0.0172089 0.00738476
0.366963 0.0174445 0.00735059
0.366805 0.0172488 0.00737603
0.361074 0.0178926 0.00696209
0.366886 0.0175738 0.00715815

VERTICES 277 554
1 0
1 1
1 2
1 3
1 4
1 5
1 6
1 7
1 8
1 9
1 10
1 11
1 12
1 13
1 14
1 15
1 16
1 17
1 18
1 19
1 20
1 21
1 22
1 23
1 24
1 25
1 26
1 27
1 28
1 29
1 30
1 31
1 32
1 33
1 34
1 35
1 36
1 37
1 38
1 39
1 40
1 41
1 42
1 43
1 44
1 45
1 46
1 47
1 48
1 49
1 50
1 51
1 52
1 53
1 54
1 55
1 56
1 57
1 58
1 59
1 60
1 61
1 62
1 63
1 64
1 65
1 66
1 67
1 68
1 69
1 70
1 71
1 72
1 73
1 74
1 75
1 76
1 77
1 78
1 79
1 80
1 81
1 82
1 83
1 84
1 85
1 86
1 87
1 88
1 89
1 90
1 91
1 92
1 93
1 94
1 95
1 96
1 97
1 98
1 99
1 100
1 101
1 102
1 103
1 104
1 105
1 106
1 107
1 108
1 109
1 110
1 111
1 112
1 113
1 114
1 115
1 116
1 117
1 118
1 119
1 120
1 121
1 122
1 123
1 124
1 125
1 126
1 127
1 128
1 129
1 130
1 131
1 132
1 133
1 134
1 135
1 136
1 137
1 138
1 139
1 140
1 141
1 142
1 143
1 144
1 145
1 146
1 147
1 148
1 149
1 150
1 151
1 152
1 153
1 154
1 155
1 156
1 157
1 158
1 159
1 160
1 161
1 162
1 163
1 164
1 165
1 166
1 167
1 168
1 169
1 170
1 171
1 172
1 173
1 174
1 175
1 176
1 177
1 178
1 179
1 180
1 181
1 182
1 183
1 184
1 185
1 186
1 187
1 188
1 189
1 190
1 191
1 192
1 193
1 194
1 195
1 196
1 197
1 198
1 199
1 200
1 201
1 202
1 203
1 204
1 205
1 206
1 207
1 208
1 209
1 210
1 211
1 212
1 213
1 214
1 215
1 216
1 217
1 218
1 219
1 220
1 221
1 222
1 223
1 224
1 225
1 226
1 227
1 228
1 229
1 230
1 231
1 232
1 233
1 234
1 235
1 236
1 237
1 238
1 239
1 240
1 241
1 242
1 243
1 244
1 245
1 246
1 247
1 248
1 249
1 250
1 251
1 252
1 253
1 254
1 255
1 256
1 257
1 258
1 259
1 260
1 261
1 262
1 263
1 264
1 265
1 266
1 267
1 268
1 269
1 270
1 271
1 272
1 273
1 274
1 275
1 276

POINT_DATA 277
SCALARS id int 1
LOOKUP_TABLE default
1
2
3
4
5
6
8
9
10
11
12
13
14
15
16
18
19
20
21
22
24
25
26
27
29
30
31
32
33
34
35
36
38
40
41
42
43
44
45
46
47
48
49
50
52
55
56
57
58
59
60
61
62
63
64
65
66
67
68
69
70
71
72
73
74
75
76
77
78
79
80
81
82
83
84
85
86
87
88
89
90
91
92
93
94
95
96
98
99
100
101
102
103
104
105
106
107
108
109
110
111
113
114
115
116
117
118
119
120
121
122
123
124
125
126
127
128
129
130
131
132
133
134
135
136
137
138
139
140
141
142
144
145
146
147
148
149
150
152
153
154
155
156
157
158
159
160
161
162
164
165
166
167
168
169
170
171
172
173
174
175
176
177
178
179
180
181
182
183
184
185
186
187
188
189
191
192
193
194
195
196
197
198
199
200
201
202
203
204
205
206
207
208
210
211
213
214
215
217
218
220
221
222
223
224
225
226
227
228
229
230
231
232
233
234
235
236
237
238
239
241
242
243
244
245
246
247
248
249
250
251
252
253
254
255
256
257
258
259
260
261
262
263
264
265
267
268
269
270
271
272
273
274
275
276
277
278
279
280
281
282
283
284
285
286
287
288
289
290
292
293
294
295
296
297
298
300

SCALARS type int 1
LOOKUP_TABLE default
1
1
1
1
1
1
1
1
1
1
1
1
1
1
1
1
1
1
1
1
1
1
1
1
1
1
1
1
1
1
1
1
1
1
1
1
1
1
1
1
1
1
1
1
1
1
1
1
1
1
1
1
1
1
1
1
1
1
1
1
1
1
1
1
1
1
1
1
1
1
1
1
1
1
1
1
1
1
1
1
1
1
1
1
1
1
1
1
1
1
1
1
1
1
1
1
1
1
1
1
1
1
1
1
1
1
1
1
1
1
1
1
1
1
1
1
1
1
1
1
1
1
1
1
1
1
1
1
1
1
1
1
1
1
1
1
1
1
1
1
1
1
1
1
1
1
1
1
1
1
1
1
1
1
1
1
1
1
1
1
1
1
1
1
1
1
1
1
1
1
1
1
1
1
1
1
1
1
1
1
1
1
1
1
1
1
1
1
1
1
1
1
1
1
1
1
1
1
1
1
1
1
1
1
1
1
1
1
1
1
1
1
1
1
1
1
1
1
1
1
1
1
1
1
1
1
1
1
1
1
1
1
1
1
1
1
1
1
1
1
1
1
1
1
1
1
1
1
1
1
1
1
1
1
1
1
1
1
1
1
1
1
1
1
1
1
1
1
1
1
1
1
1
1
1
1
1

SCALARS radius float 1
LOOKUP_TABLE default
5e-05
5e-05
5e-05
5e-05
5e-05
5e-05
5e-05
5e-05
5e-05
5e-05
5e-05
5e-05
5e-05
5e-05
5e-05
5e-05
5e-05
5e-05
5e-05
5e-05
5e-05
5e-05
5e-05
5e-05
5e-05
5e-05
5e-05
5e-05
5e-05
5e-05
5e-05
5e-05
5e-05
5e-05
5e-05
5e-05
5e-05
5e-05
5e-05
5e-05
5e-05
5e-05
5e-05
5e-05
5e-05
5e-05
5e-05
5e-05
5e-05
5e-05
5e-05
5e-05
5e-05
5e-05
5e-05
5e-05
5e-05
5e-05
5e-05
5e-05
5e-05
5e-05
5e-05
5e-05
5e-05
5e-05
5e-05
5e-05
5e-05
5e-05
5e-05
5e-05
5e-05
5e-05
5e-05
5e-05
5e-05
5e-05
5e-05
5e-05
5e-05
5e-05
5e-05
5e-05
5e-05
5e-05
5e-05
5e-05
5e-05
5e-05
5e-05
5e-05
5e-05
5e-05
5e-05
5e-05
5e-05
5e-05
5e-05
5e-05
5e-05
5e-05
5e-05
5e-05
5e-05
5e-05
5e-05
5e-05
5e-05
5e-05
5e-05
5e-05
5e-05
5e-05
5e-05
5e-05
5e-05
5e-05
5e-05
5e-05
5e-05
5e-05
5e-05
5e-05
5e-05
5e-05
5e-05
5e-05
5e-05
5e-05
5e-05
5e-05
5e-05
5e-05
5e-05
5e-05
5e-05
5e-05
5e-05
5e-05
5e-05
5e-05
5e-05
5e-05
5e-05
5e-05
5e-05
5e-05
5e-05
5e-05
5e-05
5e-05
5e-05
5e-05
5e-05
5e-05
5e-05
5e-05
5e-05
5e-05
5e-05
5e-05
5e-05
5e-05
5e-05
5e-05
5e-05
5e-05
5e-05
5e-05
5e-05
5e-05
5e-05
5e-05
5e-05
5e-05
5e-05
5e-05
5e-05
5e-05
5e-05
5e-05
5e-05
5e-05
5e-05
5e-05
5e-05
5e-05
5e-05
5e-05
5e-05
5e-05
5e-05
5e-05
5e-05
5e-05
5e-05
5e-05
5e-05
5e-05
5e-05
5e-05
5e-05
5e-05
5e-05
5e-05
5e-05
5e-05
5e-05
5e-05
5e-05
5e-05
5e-05
5e-05
5e-05
5e-05
5e-05
5e-05
5e-05
5e-05
5e-05
5e-05
5e-05
5e-05
5e-05
5e-05
5e-05
5e-05
5e-05
5e-05
5e-05
5e-05
5e-05
5e-05
5e-05
5e-05
5e-05
5e-05
5e-05
5e-05
5e-05
5e-05
5e-05
5e-05
5e-05
5e-05
5e-05
5e-05
5e-05
5e-05
5e-05
5e-05
5e-05
5e-05
5e-05
5e-05
5e-05
5e-05
5e-05
5e-05
5e-05
5e-05
5e-05
5e-05
5e-05
5e-05
5e-05
5e-05
5e-05
5e-05
5e-05
5e-05
5e-05
5e-05
5e-05
5e-05
5e-05

SCALARS mass float 1
LOOKUP_TABLE default
1.46608e-10
1.46608e-10
1.46608e-10
1.46608e-10
1.46608e-10
1.46608e-10
1.46608e-10
1.46608e-10
1.46608e-10
1.46608e-10
1.46608e-10
1.46608e-10
1.46608e-10
1.46608e-10
1.46608e-10
1.46608e-10
1.46608e-10
1.46608e-10
1.46608e-10
1.46608e-10
1.46608e-10
1.46608e-10
1.46608e-10
1.46608e-10
1.46608e-10
1.46608e-10
1.46608e-10
1.46608e-10
1.46608e-10
1.46608e-10
1.46608e-10
1.46608e-10
1.46608e-10
1.46608e-10
1.46608e-10
1.46608e-10
1.46608e-10
1.46608e-10
1.46608e-10
1.46608e-10
1.46608e-10
1.46608e-10
1.46608e-10
1.46608e-10
1.46608e-10
1.46608e-10
1.46608e-10
1.46608e-10
1.46608e-10
1.46608e-10
1.46608e-10
1.46608e-10
1.46608e-10
1.46608e-10
1.46608e-10
1.46608e-10
1.46608e-10
1.46608e-10
1.46608e-10
1.46608e-10
1.46608e-10
1.46608e-10
1.46608e-10
1.46608e-10
1.46608e-10
1.46608e-10
1.46608e-10
1.46608e-10
1.46608e-10
1.46608e-10
1.46608e-10
1.46608e-10
1.46608e-10
1.46608e-10
1.46608e-10
1.46608e-10
1.46608e-10
1.46608e-10
1.46608e-10
1.46608e-10
1.46608e-10
1.46608e-10
1.46608e-10
1.46608e-10
1.46608e-10
1.46608e-10
1.46608e-10
1.46608e-10
1.46608e-10
1.46608e-10
1.46608e-10
1.46608e-10
1.46608e-10
1.46608e-10
1.46608e-10
1.46608e-10
1.46608e-10
1.46608e-10
1.46608e-10
1.46608e-10
1.46608e-10
1.46608e-10
1.46608e-10
1.46608e-10
1.46608e-10
1.46608e-10
1.46608e-10
1.46608e-10
1.46608e-10
1.46608e-10
1.46608e-10
1.46608e-10
1.46608e-10
1.46608e-10
1.46608e-10
1.46608e-10
1.46608e-10
1.46608e-10
1.46608e-10
1.46608e-10
1.46608e-10
1.46608e-10
1.46608e-10
1.46608e-10
1.46608e-10
1.46608e-10
1.46608e-10
1.46608e-10
1.46608e-10
1.46608e-10
1.46608e-10
1.46608e-10
1.46608e-10
1.46608e-10
1.46608e-10
1.46608e-10
1.46608e-10
1.46608e-10
1.46608e-10
1.46608e-10
1.46608e-10
1.46608e-10
1.46608e-10
1.46608e-10
1.46608e-10
1.46608e-10
1.46608e-10
1.46608e-10
1.46608e-10
1.46608e-10
1.46608e-10
1.46608e-10
1.46608e-10
1.46608e-10
1.46608e-10
1.46608e-10
1.46608e-10
1.46608e-10
1.46608e-10
1.46608e-10
1.46608e-10
1.46608e-10
1.46608e-10
1.46608e-10
1.46608e-10
1.46608e-10
1.46608e-10
1.46608e-10
1.46608e-10
1.46608e-10
1.46608e-10
1.46608e-10
1.46608e-10
1.46608e-10
1.46608e-10
1.46608e-10
1.46608e-10
1.46608e-10
1.46608e-10
1.46608e-10
1.46608e-10
1.46608e-10
1.46608e-10
1.46608e-10
1.46608e-10
1.46608e-10
1.46608e-10
1.46608e-10
1.46608e-10
1.46608e-10
1.46608e-10
1.46608e-10
1.46608e-10
1.46608e-10
1.46608e-10
1.46608e-10
1.46608e-10
1.46608e-10
1.46608e-10
1.46608e-10
1.46608e-10
1.46608e-10
1.46608e-10
1.46608e-10
1.46608e-10
1.46608e-10
1.46608e-10
1.46608e-10
1.46608e-10
1.46608e-10
1.46608e-10
1.46608e-10
1.46608e-10
1.46608e-10
1.46608e-10
1.46608e-10
1.46608e-10
1.46608e-10
1.46608e-10
1.46608e-10
1.46608e-10
1.46608e-10
1.46608e-10
1.46608e-10
1.46608e-10
1.46608e-10
1.46608e-10
1.46608e-10
1.46608e-10
1.46608e-10
1.46608e-10
1.46608e-10
1.46608e-10
1.46608e-10
1.46608e-10
1.46608e-10
1.46608e-10
1.46608e-10
1.46608e-10
1.46608e-10
1.46608e-10
1.46608e-10
1.46608e-10
1.46608e-10
1.46608e-10
1.46608e-10
1.46608e-10
1.46608e-10
1.46608e-10
1.46608e-10
1.46608e-10
1.46608e-10
1.46608e-10
1.46608e-10
1.46608e-10
1.46608e-10
1.46608e-10
1.46608e-10
1.46608e-10
1.46608e-10
1.46608e-10
1.46608e-10
1.46608e-10
1.46608e-10
1.46608e-10
1.46608e-10
1.46608e-10
1.46608e-10
1.46608e-10
1.46608e-10
1.46608e-10
1.46608e-10
1.46608e-10
1.46608e-10
1.46608e-10
1.46608e-10
1.46608e-10

VECTORS velocity float
0.00472545 7.2059e-05 8.19046e-05
0.00487603 -7.21083e-05 -0.000159767
0.00483744 9.09375e-05 8.77983e-05
0.00478131 0.000107875 8.66361e-05
0.00452452 0.000113013 6.17e-05
0.00434615 -3.81917e-05 -0.000181087
0.00452461 0.00010628 6.62087e-05
0.00492104 -2.60201e-07 0.000163501
0.00443002 -6.39717e-05 -0.000170664
0.0043967 0.000194471 2.52537e-06
0.00483898 -5.64162e-05 1.78756e-05
0.00446445 8.1843e-06 -0.000171886
0.00495021 0.000173154 -5.78731e-05
0.00445048 -1.58168e-05 -0.000171929
0.0047728 0.000173443 -5.86223e-05
0.00494758 -1.80567e-06 0.000163671
0.00492201 0.000121468 0.000104395
0.00468313 9.52899e-05 7.84659e-05
0.00452488 0.000132037 4.85036e-05
0.00490298 8.30312e-05 9.53952e-05
0.00441891 -5.04274e-05 -0.000174947
0.00487208 -7.59819e-05 0.000197456
0.00438934 -4.58581e-05 -0.000177974
0.00465853 0.000209008 -6.60863e-05
0.00501383 6.15247e-05 0.000105991
0.00433009 -3.79255e-05 -0.000180387
0.00499717 7.78272e-05 -9.06839e-05
0.00485313 -4.6229e-05 -0.0001858
0.00435404 -4.26397e-05 -0.000178442
0.00496383 0.000104668 4.85607e-05
0.00483687 -0.000101939 -0.00018836
0.00492766 -5.76718e-07 0.000162572
0.0049542 -0.000119348 5.66623e-05
0.00429957 0.000141993 3.53778e-05
0.00488888 -6.43098e-05 0.000186802
0.00491505 -3.77965e-05 3.99921e-05
0.00497772 5.35288e-05 0.000111243
0.00470467 0.000104374 7.86277e-05
0.00435272 -4.47606e-05 -0.000177262
0.00441103 -5.07706e-05 -0.000177042
0.00434987 0.000301119 -6.57245e-05
0.00468308 0.000107855 7.21412e-05
0.00438699 -4.40428e-05 -0.00017862
0.00485354 2.59627e-05 0.000129061
0.00499161 0.000150265 -1.93347e-05
0.00488867 0.000144335 -2.09394e-05
0.00487807 -0.000100654 -0.000184775
0.00437669 -4.48542e-05 -0.000178246
0.0044178 0.000227949 -8.13391e-05
0.00446357 -1.32965e-05 -9.94102e-05
0.00485474 -9.0459e-05 -0.000183217
0.0045286 0.000163763 2.72893e-05
0.00440359 0.000137359 4.11772e-05
0.00483093 7.57753e-05 9.32273e-05
0.00441355 -5.10274e-05 -0.000176482
0.00423011 0.000271282 -5.38855e-05
0.00487922 0.000154643 -6.99173e-05
0.00485564 -0.000104586 -0.000188931
0.00463952 0.000202275 -6.23887e-05
0.00464026 0.000133361 5.15192e-05
0.00448547 4.41612e-05 -0.000134627
0.0043928 0.000291711 -0.000120697
0.00490882 1.58743e-06 0.000161491
0.00422359 0.000252755 -4.58513e-05
0.00443881 0.000191965 5.17252e-06
0.00496081 -0.000131958 6.09283e-05
0.00494 -1.74509e-06 0.000163135
0.00498624 2.63815e-05 2.65737e-06
0.00458628 -0.000370736 -0.000909043
1.64368e-18 3.29299e-20 -1.25496e-15
0.00492951 -0.00011557 4.31991e-05
0.00493706 0.000154784 -6.82426e-05
0.00488135 0.00022063 -7.03855e-05
0.00454884 -0.000334257 -0.000888014
0.00492398 -3.71075e-06 0.000162914
0.00437046 0.000232545 -8.44314e-05
0.00493849 6.47046e-05 0.000112929
0.00492482 -5.72992e-06 0.000163852
0.00447878 0.000138731 4.31253e-05
0.00479833 4.71556e-05 0.000115693
0.00443715 0.0001831 1.11706e-05
0.004235 0.000297064 -8.59922e-05
0.0046622 -8.67562e-05 0.000200402
0.00474497 0.000102571 7.82788e-05
0.00457942 0.000156256 3.41133e-05
0.00496153 -9.4865e-05 -0.000184867
0.00495831 -0.000142291 3.95286e-05
0.00501023 7.32219e-05 9.98945e-05
0.0049747 0.000209715 -6.20548e-05
0.00489494 -9.78805e-05 -0.000192589
0.00495627 0.000160671 -3.21716e-05
0.00491892 3.79514e-05 0.000127202
0.00491703 -9.57503e-05 4.45039e-05
0.00471894 0.000198235 -5.81569e-05
0.00493739 0.000133205 -1.4784e-05
0.00479267 8.41003e-05 9.05901e-05
0.00453543 -0.000360531 -0.000902127
0.00493144 -7.01068e-05 4.77131e-05
0.00486477 9.2955e-05 7.40017e-05
0.00496302 8.57401e-05 8.61203e-05
0.00453708 0.000262291 -4.6972e-05
0.00494272 -9.22398e-05 -0.000186915
0.00454053 0.000215218 -7.0932e-05
0.00467201 0.00010669 6.48143e-05
0.0046886 6.96655e-05 6.30844e-05
0.00434738 0.000214777 -1.25083e-05
0.00448883 0.000233945 -6.07453e-05
0.0043093 -3.72319e-05 -0.00017984
0.00476505 -9.26211e-05 0.000205614
0.00457995 -7.19125e-05 0.00018849
0.00453344 0.000173955 2.05425e-05
0.00501742 0.000104088 -7.42547e-05
0.00495122 -6.94927e-05 -0.000272652
0.00485449 -7.25101e-05 -0.000183088
0.00435972 0.000136961 4.02607e-05
0.0043349 2.83065e-05 -0.000524225
0.00443458 -5.09548e-06 -0.000171697
0.00433613 0.000274506 -0.0001103
0.00453531 0.000246634 -2.77046e-05
0.00495753 0.000169825 -4.9035e-05
0.00479637 0.000112397 7.65596e-05
0.00467101 0.000126156 5.73742e-05
0.00472029 5.65363e-05 0.00010191
0.00446066 0.000175032 1.76293e-05
0.0049495 0.000150726 -6.08927e-05
0.00480179 0.000196587 5.9209e-05
0.00456378 0.00017296 2.24407e-05
0.00454579 0.000133259 4.787e-05
0.00487286 -0.000119659 -0.00018846
0.00500723 0.000147939 -3.88962e-05
0.00452822 0.000261578 -3.55295e-05
0.00488543 -2.90697e-05 1.67279e-05
0.00474319 0.00011172 7.3707e-05
0.00440382 0.000217659 -1.26828e-05
0.00458268 -0.000371199 -0.000904827
0.00477186 -3.93358e-05 -0.000104052
0.0046172 -8.42769e-05 0.000198034
0.00417559 0.000290296 -7.19924e-05
0.00477462 0.000162395 -4.39063e-05
0.00494714 -1.30125e-05 -0.000226163
0.00465789 0.000199998 -6.95399e-05
0.00434806 0.000236228 -8.71382e-05
0.00490603 0.000155502 -6.90896e-05
0.00488657 7.19905e-05 9.73148e-05
0.00488487 0.00018407 -7.00237e-05
0.00486411 -0.000110568 -0.00018648
0.00488998 0.00017441 -4.01423e-05
0.00452699 0.000161945 2.77194e-05
0.00448562 0.00022272 -6.12062e-05
0.00461053 0.000173425 2.32012e-05
0.00489926 0.000137119 -2.20903e-05
0.00460469 0.000127481 5.36413e-05
0.00499528 0.000208831 -7.07684e-05
0.00491086 -0.000134707 6.38598e-05
0.00494278 0.00020868 -4.52218e-05
0.00504299 0.000123948 -0.000101975
0.00490237 -0.000106356 -0.000192631
0.00495534 0.000163499 -1.99684e-05
0.00477292 8.78182e-05 8.87179e-05
0.0048862 0.00017351 -4.16227e-05
0.00474744 0.000210468 -6.8306e-05
0.00470835 0.000216754 -6.79629e-05
0.00449109 0.000222969 -6.11552e-05
0.00486283 0.000174587 -4.49849e-05
0.00465286 0.000204415 -6.27594e-05
0.00497287 0.000114214 -9.66209e-05
0.00499054 0.000164959 -5.75924e-05
0.00485609 -0.000106882 -0.000176525
0.00497412 0.000150592 -7.16397e-05
0.00496861 -2.71187e-05 -4.03052e-05
0.00438235 0.000262469 -0.000102764
0.00472404 0.000181542 -4.99546e-05
0.00493154 -1.45332e-06 0.000162968
0.004605 0.00031852 -9.46518e-06
0.0046973 0.000209876 4.402e-05
0.00493063 3.95147e-05 0.000122748
0.00497832 0.000210612 -6.54965e-05
0.00487343 -0.000104281 -0.000185422
0.00453752 0.000228523 -1.66208e-05
0.00487212 0.000151401 -2.68633e-05
0.00499426 0.000221661 -7.25141e-05
0.00484617 6.64939e-05 9.79913e-05
0.00493469 0.00013858 -2.03416e-05
0.00503531 0.000190639 -6.82194e-05
0.0043185 0.000287793 -0.000121493
0.00501119 0.000199809 -5.64502e-05
0.00490373 0.000183982 -7.00809e-05
0.0048079 -2.98794e-05 -0.000185444
0.00490248 0.000188806 -3.45127e-05
0.00435357 0.000267274 -0.000105879
0.00482643 0.000151509 -2.79028e-05
0.00468082 0.000199139 -5.95192e-05
0.00487395 0.000184255 -6.90831e-05
0.00489828 -5.81825e-05 -0.000210993
0.00422231 0.000271223 -6.37413e-05
0.00446857 5.41003e-05 -0.000134648
0.00448943 0.000197487 4.27913e-06
0.00434572 0.000269585 -0.000106954
0.00438245 0.000230133 -3.04428e-05
0.00494277 -9.43019e-05 4.22077e-05
0.00492394 -8.67779e-05 -0.00025237
0.00471263 0.000215237 -6.57286e-05
0.00485893 -7.89933e-05 -0.000188159
0.00444327 0.000292411 -0.000120537
0.00432637 0.000281751 -0.000114422
0.00450373 8.81346e-05 0.000125774
0.00471304 0.000216605 -6.82463e-05
0.00500637 0.000143864 -2.32574e-05
0.00465238 0.000203597 -6.48053e-05
0.00479222 0.000204684 -6.56013e-05
0.00500498 0.000187377 -7.90748e-05
0.00435548 0.000268259 -0.000106855
0.00499779 0.000215181 -7.25413e-05
0.00464809 0.000139254 4.93978e-05
0.00472914 9.59482e-05 8.38277e-05
0.00446189 0.000285773 -5.80526e-05
0.00458477 0.000228236 -7.88985e-05
0.00499249 0.000180378 -7.72735e-05
0.00468864 0.000193079 -5.64859e-05
0.00463614 -0.000691977 9.15035e-05
0.00488137 0.000148165 -2.56921e-05
0.00465459 0.000221557 -7.21507e-05
0.00461483 -0.000687638 9.0234e-05
0.0046822 -0.00069995 9.38845e-05
0.00493533 0.000235827 -6.76217e-05
0.00470286 -0.000711394 9.39253e-05
0.00483323 -8.94767e-05 0.000204392
0.0046625 0.000154551 4.08289e-05
0.00501435 0.000227654 -7.17742e-05
0.00453585 0.000199869 2.93213e-06
6.8073e-15 2.29895e-14 -7.03243e-14
0.0046904 -0.000713054 9.74716e-05
0.00486651 0.000196206 -6.85272e-05
0.00496597 0.000157928 -3.03208e-05
0.00455759 0.000266948 -0.00010329
0.00493769 0.000174156 -3.49842e-05
0.00496623 0.000207383 -6.0926e-05
0.00487362 0.000155902 -2.91168e-05
0.00488092 0.000152545 -2.51261e-05
0.00494219 -0.000109927 -3.39596e-06
0.00491024 0.000193614 -6.80708e-05
0.00494664 0.000172226 -5.13192e-05
0.00476474 -0.000717541 9.8033e-05
0.00490581 0.000127612 -3.52503e-05
0.00464622 0.000230403 -6.64291e-05
0.00421622 0.000163613 1.68587e-05
0.00494192 0.000192042 -7.44406e-05
0.00502782 0.000114507 -1.08079e-05
0.00493895 0.000146875 -7.14901e-05
0.00499597 0.000129968 -6.5053e-06
0.00449354 0.000230776 -6.10036e-05
0.00492051 0.000170664 -2.38549e-05
0.00482887 0.000211051 -6.57299e-05
0.00499294 0.000149496 -6.12862e-05
0.00489159 0.000216496 -6.8158e-05
0.00477699 0.000183827 -6.15091e-05
0.00487784 9.57832e-05 8.97197e-05
-1.2829e-14 6.09112e-14 -1.90218e-13
0.00438411 -0.000585687 0.000218139
0.00500684 0.000133315 -1.1387e-05
0.00461959 -0.000676649 0.000122725
0.00476317 -0.000714089 9.29702e-05
0.00488369 0.000165437 -4.0046e-05
0.0046217 0.000223384 -7.35695e-05
0.00486132 0.000214408 -5.58695e-05
0.00491584 -0.000103577 -0.000132812
0.00502969 0.000152333 -3.47223e-05
0.00503586 0.00012952 -3.46317e-06
0.00486403 0.000124059 -3.51554e-05
0.00493597 0.00018331 -6.83469e-05
0.00498259 -2.13986e-05 -0.00019379
0.00468226 0.000215577 -7.05479e-05
0.00478817 0.000189244 -5.26287e-05
0.00476034 0.000108077 7.16112e-05
0.00472775 0.000110779 8.28847e-05
0.00503739 0.000137429 -9.86938e-06
0.00486057 8.31246e-05 8.63968e-05

VECTORS force float
-2.25738e-10 2.56589e-10 2.79542e-10
-6.85542e-10 -1.66916e-10 1.17589e-10
1.39633e-10 4.19348e-10 -3.61454e-10
-4.86484e-11 -3.1376e-10 1.10717e-11
1.84773e-11 1.62776e-11 -1.00356e-11
-7.87273e-11 4.39623e-11 -2.57368e-11
-2.65404e-11 -1.13159e-10 7.63823e-11
-2.72907e-12 8.12205e-11 -7.52638e-12
-6.37162e-11 2.64647e-10 1.14079e-11
4.64353e-10 1.91009e-10 -1.01437e-10
-1.89998e-11 8.84356e-12 -4.4187e-11
9.32114e-11 2.16161e-10 1.79539e-12
-7.60056e-11 -8.17319e-11 -1.3009e-10
7.83307e-11 -8.73429e-11 -4.45788e-12
-4.77931e-10 4.64361e-10 1.27608e-10
-2.11489e-11 3.08488e-11 3.59165e-12
-4.56627e-11 9.64509e-11 -2.12289e-10
-1.81626e-11 -1.73219e-11 9.78448e-11
-4.5663e-12 5.7824e-11 -3.57211e-11
-4.76319e-11 -2.61039e-11 2.95148e-11
5.43618e-11 -9.27894e-11 5.49188e-11
-5.80687e-10 3.33505e-11 8.02169e-12
-2.44724e-11 5.40826e-11 -4.22721e-11
3.62137e-11 -4.17311e-10 2.63668e-10
-3.32888e-12 1.08709e-10 1.02541e-10
-2.48276e-11 -1.26404e-11 1.29988e-11
4.2692e-10 7.13411e-10 6.86421e-10
-1.04024e-10 -6.93523e-11 5.33756e-11
1.82467e-10 -3.84161e-11 1.26789e-11
-1.17222e-10 1.12284e-10 2.60146e-11
2.21368e-10 8.48874e-12 -3.43724e-12
1.01429e-10 -4.1006e-11 8.92129e-12
3.65288e-11 -4.31102e-11 2.99514e-11
7.24723e-10 1.35936e-10 -3.78974e-11
-4.22224e-10 2.39573e-11 8.33002e-11
1.17484e-10 1.99351e-10 -5.11126e-11
2.40922e-10 1.92437e-10 5.91449e-11
1.08794e-10 -1.2981e-10 -1.97381e-11
7.64791e-11 -1.55468e-10 9.89952e-11
1.13476e-11 -2.94301e-11 1.64505e-11
-4.57613e-10 5.01915e-11 -7.90612e-11
-9.88014e-11 -7.95578e-11 4.94778e-11
6.41359e-11 8.00556e-11 -4.91852e-11
-6.10959e-11 8.79492e-11 -5.60506e-11
-5.8709e-11 1.34646e-10 -1.03176e-10
4.85114e-11 7.30505e-11 -3.12451e-11
-2.3271e-11 -1.82292e-10 -4.73204e-11
-1.03471e-10 -2.97711e-11 2.65527e-11
-5.5686e-11 6.07233e-11 -4.18876e-11
-5.77243e-11 -2.2046e-11 3.887e-11
1.72389e-10 1.0499e-10 -4.20068e-11
1.85264e-11 4.21327e-11 -3.17683e-11
-5.16253e-10 2.47744e-10 -1.91523e-10
-7.92e-11 -2.90345e-11 8.02943e-11
1.84664e-10 -3.82148e-11 6.29381e-11
-1.10356e-10 -2.84026e-10 8.27945e-10
-4.72998e-11 -9.82325e-11 4.81379e-12
8.516e-11 -7.55944e-11 4.02184e-11
3.17964e-10 -1.74641e-10 1.0196e-10
-1.20275e-10 2.15535e-10 -1.4651e-10
-1.14183e-11 3.21171e-11 7.88123e-13
7.13981e-12 1.46874e-10 -9.32023e-11
-8.13289e-11 1.81601e-11 -6.68524e-11
9.82048e-11 8.58657e-11 1.22989e-11
-4.87846e-10 -5.00146e-10 2.77333e-10
1.99335e-11 -1.40715e-10 -4.46311e-11
-4.30115e-11 -6.98357e-12 -1.10792e-13
1.67778e-10 4.88698e-11 -4.32562e-10
1.88512e-11 3.11923e-12 1.20451e-11
4.03897e-28 4.27169e-25 0.0
-1.66515e-10 -3.75674e-11 5.91092e-11
-3.98279e-12 -7.54544e-11 6.6685e-12
2.41579e-10 -1.35653e-10 8.80883e-11
-2.29574e-11 -1.47238e-12 3.49583e-11
-1.91925e-12 -1.29866e-11 9.03136e-13
-1.28013e-11 -3.31918e-11 2.82257e-11
1.9416e-10 5.94795e-11 -2.80759e-11
6.19048e-13 3.71605e-11 8.20894e-12
-3.42944e-10 2.29455e-10 -1.73579e-10
-2.51365e-10 -9.20997e-11 5.65154e-11
4.11038e-11 3.39553e-10 -2.56376e-10
-3.17764e-10 -2.9025e-10 2.37857e-10
-4.52532e-10 2.71716e-11 -4.67945e-11
2.4452e-10 -9.12177e-11 -1.16372e-10
1.85499e-10 1.97954e-10 -8.59841e-11
2.14191e-10 1.57858e-10 1.2806e-10
8.62793e-11 6.91546e-12 3.23463e-11
2.47238e-10 -2.25378e-10 1.13436e-10
1.78913e-10 3.02928e-11 -3.38453e-11
9.03996e-11 -3.74543e-11 -2.4096e-11
-7.62638e-11 7.28181e-11 -3.69513e-11
4.49945e-11 -5.81971e-11 6.76928e-11
-1.47646e-10 1.63829e-10 4.53348e-11
-2.72531e-10 2.31503e-11 -9.47949e-12
-1.66122e-10 1.05072e-10 -7.33389e-11
-5.29991e-11 2.00218e-10 4.26942e-11
3.00559e-11 3.51706e-11 -3.53178e-11
-4.79106e-11 1.13761e-10 2.84059e-12
1.72687e-10 -2.69383e-10 2.84989e-10
1.66919e-10 -8.12757e-12 -3.20525e-10
1.46769e-10 1.52022e-10 -1.95768e-10
5.97801e-12 1.33055e-10 -4.92122e-10
3.15877e-11 1.09561e-10 -5.51493e-11
1.83057e-10 2.28732e-10 -5.16052e-11
2.27763e-10 -5.65377e-10 1.91214e-09
2.57358e-10 1.09998e-10 -1.30097e-10
9.84875e-11 -1.19476e-10 -7.18124e-12
1.09959e-10 -2.40661e-11 6.98235e-12
-1.83961e-10 -6.01569e-11 6.71775e-11
4.5401e-11 2.99916e-10 -2.00656e-10
-1.8894e-11 2.70005e-10 -2.25425e-10
5.66196e-11 3.24387e-10 -2.94718e-12
-1.8843e-10 -9.0442e-11 -3.39945e-10
-1.97966e-11 1.03784e-10 2.46445e-11
4.45901e-11 2.08736e-10 -1.40189e-10
1.66067e-11 -2.83064e-11 1.64096e-11
-4.40199e-11 1.04323e-11 4.44721e-12
7.81955e-11 -4.7116e-11 2.45824e-11
2.16301e-10 1.70282e-10 -9.67468e-11
-3.55864e-11 -9.52759e-11 -1.46044e-12
-2.4457e-10 -4.21729e-10 6.56163e-11
-3.63374e-10 1.25066e-10 -9.4286e-11
1.07767e-10 -4.96207e-12 -3.0641e-12
-4.63796e-10 3.30011e-10 -2.17269e-10
-1.17936e-10 2.49606e-10 2.56366e-10
1.12609e-10 1.55961e-11 1.69966e-10
-2.66989e-10 -3.77695e-11 -4.60395e-12
8.12541e-11 1.15429e-10 -7.2498e-11
7.46306e-12 -1.01708e-10 -4.8741e-11
1.73782e-13 6.82974e-11 -1.32091e-10
1.68369e-10 1.49788e-10 -8.90872e-11
5.6045e-11 5.5849e-11 2.14894e-10
3.29046e-11 -1.94298e-12 -2.57099e-11
-8.79769e-11 -5.29826e-10 3.02052e-10
-6.61791e-11 2.67864e-11 -1.83525e-11
-4.16452e-10 6.9179e-11 -1.43676e-10
-1.65786e-10 1.54161e-10 -1.12347e-10
-6.02137e-10 9.53738e-12 3.05633e-10
-5.59575e-10 3.42838e-11 1.1357e-10
-7.60702e-11 -5.07285e-11 -4.67291e-11
1.76656e-10 -3.75741e-11 1.95065e-11
2.321e-11 -1.63226e-10 1.00683e-10
-4.46269e-11 -8.11597e-11 1.0034e-11
-7.43614e-11 -1.21448e-10 4.83902e-11
3.88049e-11 1.37105e-10 -5.3275e-12
5.74002e-11 -6.8516e-11 -1.66812e-11
2.20169e-11 1.92872e-10 -1.01661e-10
-1.09684e-10 2.0343e-10 -1.51512e-10
9.42532e-11 1.37075e-11 2.08375e-13
2.61887e-11 -1.4623e-11 1.02595e-11
-5.19898e-11 -3.52477e-10 2.5198e-10
2.84166e-10 1.36118e-10 -8.24282e-11
-3.02363e-10 -5.16977e-11 -4.25072e-11
-3.37122e-11 -4.61369e-11 5.43342e-11
4.64787e-11 7.14631e-11 2.25635e-11
5.77913e-11 -1.16386e-10 -2.1131e-10
-1.13698e-10 -1.22161e-10 8.94447e-11
4.74171e-11 1.29656e-10 -1.4731e-10
-2.25411e-10 -1.69932e-10 6.31158e-11
-8.705e-11 1.69685e-10 -1.02193e-10
-8.78376e-11 -5.6968e-11 2.13805e-11
-1.10728e-10 2.25314e-10 8.29858e-11
5.59564e-11 7.07758e-11 3.11754e-12
-3.01687e-10 2.125e-10 -1.06166e-10
2.41658e-10 -3.60224e-11 2.25169e-11
-9.64206e-11 3.00412e-10 6.21201e-10
-1.11281e-10 1.35341e-10 -8.71115e-11
-1.17877e-10 1.68587e-10 -4.1568e-11
3.24284e-11 -4.12077e-11 -3.61253e-11
7.71703e-11 2.15422e-10 -2.30277e-10
4.07971e-11 -6.81201e-11 4.00612e-11
-1.68058e-10 2.01719e-11 5.37223e-11
-1.44242e-11 -5.67925e-11 9.81645e-12
1.62231e-09 -2.73786e-10 1.8626e-09
-9.03826e-11 -2.43295e-10 3.99593e-10
-4.48164e-11 1.5046e-10 1.50481e-11
4.15172e-10 -3.40915e-12 5.42033e-11
-3.56765e-11 -5.74403e-11 1.50211e-10
4.81436e-12 1.33925e-10 -8.60505e-11
6.08618e-11 7.35672e-11 1.56429e-10
-1.27197e-10 7.65461e-12 -2.02733e-12
2.09356e-10 -9.14475e-11 1.26353e-10
5.76184e-11 1.30271e-10 -1.00782e-10
-7.06893e-11 -4.99729e-11 -7.03803e-11
-9.64237e-13 -2.06526e-11 1.8083e-11
-1.95984e-10 3.861e-11 -3.99007e-11
-7.82139e-11 -5.45105e-11 6.2586e-12
3.72919e-10 -1.08038e-10 -5.566e-12
4.06502e-11 -1.1469e-10 6.63122e-12
1.50145e-11 -3.68467e-11 5.04493e-12
-2.94582e-10 -1.09226e-10 1.37117e-10
-7.24259e-11 -2.26251e-11 -3.21545e-12
-6.85789e-11 3.46375e-11 6.08657e-12
-2.35984e-10 -3.28308e-10 -3.9907e-11
-2.45248e-10 -4.87061e-10 4.85667e-10
5.84069e-11 3.33135e-11 -4.36265e-11
-2.97753e-10 1.84998e-10 -7.99525e-11
1.81e-11 -2.26132e-11 2.28993e-11
2.01855e-10 -5.75356e-10 2.92504e-10
-2.54744e-11 1.49915e-10 -4.44527e-11
-6.63853e-11 -1.34008e-11 6.4146e-11
-1.87586e-11 -8.19569e-11 5.37806e-11
6.30901e-11 3.10822e-11 -1.57613e-11
-7.58409e-11 1.98422e-10 -1.25439e-10
7.129e-11 -4.54941e-11 1.63406e-11
-1.54302e-10 3.3368e-11 1.7716e-11
-1.00709e-10 -1.18579e-10 6.29526e-11
-2.17371e-10 7.37091e-11 -3.81281e-11
7.56529e-11 -1.45901e-11 -1.98825e-11
-1.79752e-10 4.72317e-11 -1.14467e-11
-3.11402e-11 -3.65595e-11 -4.65739e-11
4.23273e-11 -2.15157e-11 2.44935e-11
1.21437e-11 -2.40003e-11 4.73293e-11
1.11573e-10 6.28574e-11 -4.70239e-12
3.85884e-11 -2.96122e-11 -7.519e-11
-2.97787e-11 6.50051e-11 2.88975e-12
-1.71044e-11 -7.73382e-11 4.09968e-11
-1.1702e-10 1.19049e-10 2.58371e-11
-2.10958e-11 2.23708e-11 1.39309e-11
-1.03078e-10 -6.33867e-12 -8.16097e-14
3.10685e-12 1.00502e-11 2.06638e-11
1.15108e-10 -4.44989e-11 -1.62616e-12
1.32998e-11 6.63796e-13 -7.49143e-12
-8.15343e-11 1.06957e-10 -2.84499e-11
7.11075e-11 3.55899e-11 -2.44034e-13
5.81859e-11 -2.32863e-10 9.00154e-11
-2.08421e-10 -4.7672e-11 5.59783e-11
-9.57342e-12 -2.44505e-10 6.35609e-12
-1.18212e-10 -6.63241e-11 2.26729e-11
1.754e-11 6.8749e-11 -4.93088e-11
4.07645e-23 8.27181e-25 3.72231e-24
3.27196e-10 -1.31751e-11 3.16438e-11
-3.88798e-11 9.09252e-11 5.0238e-12
-1.38461e-10 1.81644e-10 -1.37264e-10
1.09844e-10 1.63276e-10 -9.87532e-11
-9.77457e-11 3.36513e-11 -1.23555e-10
-2.84098e-10 -3.59295e-11 1.17115e-11
4.51776e-11 -6.70124e-11 6.77956e-11
2.13972e-11 5.209e-11 -1.96506e-11
-5.14618e-11 1.08412e-11 -3.39727e-11
9.57378e-11 -6.35938e-11 1.75606e-12
-9.01792e-11 1.0402e-10 1.0425e-10
5.9758e-11 3.9113e-11 4.15453e-11
4.15232e-10 -1.75721e-10 -1.10171e-10
1.63099e-10 -1.21059e-10 4.92486e-12
8.24758e-10 -1.15873e-10 7.41629e-11
-7.2781e-11 -3.4365e-11 3.22273e-11
-1.78826e-10 4.48713e-11 -1.26389e-10
-3.24915e-11 -8.90812e-11 2.59767e-11
-1.79895e-10 1.5923e-10 -7.40692e-11
-2.81537e-12 -4.87435e-11 -8.41261e-12
-7.21227e-11 8.10322e-11 -1.39406e-10
-6.40865e-12 1.91816e-10 -1.58412e-11
-1.50221e-11 4.73355e-12 -1.34395e-10
-1.44507e-10 -1.01457e-10 -3.99708e-12
5.92724e-11 1.3735e-10 1.6312e-10
6.89985e-11 -8.29342e-13 -2.12263e-11
-3.61698e-22 -9.73488e-23 -9.92617e-24
-3.2037e-11 5.3646e-11 -9.09486e-12
6.10091e-11 2.01226e-10 -1.31578e-10
-1.2145e-10 7.68551e-11 -3.48054e-11
3.92836e-11 -1.25944e-10 4.16959e-11
-7.06076e-13 3.84474e-11 -7.04034e-11
-9.88748e-11 -4.69938e-11 5.36145e-11
1.82887e-10 4.14145e-10 -2.66305e-10
-1.74647e-10 -1.04137e-10 -8.27595e-11
-1.31636e-10 1.44521e-10 -8.4552e-11
7.62404e-11 1.30674e-10 -6.41159e-12
-9.82725e-11 -1.22402e-10 -1.35267e-10
-3.06308e-11 -3.87367e-11 6.37536e-12
5.82381e-11 2.48825e-10 -1.08868e-10
9.86182e-11 -1.19533e-10 5.85343e-11
-5.39296e-10 9.68958e-11 -3.72393e-11
-2.37741e-11 -2.81721e-10 1.73181e-10
3.22934e-11 2.75196e-10 3.51648e-11
1.62945e-10 1.08155e-10 -5.39204e-11
2.35165e-10 4.28167e-11 5.59104e-11
