# vtk DataFile Version 3.0
LIGGGHTS particles timestep 62400000
ASCII
DATASET POLYDATA
POINTS 283 float
0.298801 0.0164929 0.00774743
0.299131 0.0178425 0.00715786
0.299191 0.0182415 0.00694249
0.29917 0.0181477 0.00697027
0.29859 0.015805 0.00844185
0.304794 0.0164223 0.00766693
0.298794 0.0161636 0.00806791
0.298569 0.0157372 0.00851213
0.305029 0.0174567 0.00711011
0.299479 0.018328 0.0068986
0.298971 0.0167951 0.00745167
0.304989 0.0172777 0.00718917
0.29947 0.0178927 0.00704155
0.292422 0.0153616 0.00906319
0.299491 0.0179854 0.00701034
0.292658 0.0161932 0.00838713
0.305145 0.0180315 0.00698611
0.299109 0.0178692 0.007064
0.299181 0.0173703 0.0072245
0.298612 0.0158727 0.00837157
0.299233 0.0184271 0.00688133
0.304951 0.0171037 0.00727987
0.299334 0.0176784 0.00711731
0.304892 0.0168428 0.00741594
0.292691 0.0159949 0.008559
0.299069 0.0176831 0.00712659
0.304774 0.0163408 0.0077214
0.299308 0.0183627 0.00689417
0.299429 0.0177072 0.00710401
0.304814 0.0165038 0.00761241
0.299171 0.0180283 0.00709538
0.299512 0.0180781 0.00697912
0.305087 0.0177428 0.00704299
0.298816 0.0162314 0.0079976
0.299375 0.0178641 0.00705484
0.299014 0.0166042 0.00762284
0.299126 0.0175279 0.00717844
0.299256 0.0173066 0.00724231
0.299287 0.0182697 0.00692553
0.299164 0.0177128 0.00711296
0.304833 0.0165854 0.00755786
0.304912 0.0169297 0.00737059
0.298751 0.0160281 0.00820849
0.299161 0.0172777 0.00725664
0.304873 0.0167559 0.00746126
0.299279 0.0178351 0.00706824
0.293208 0.0183171 0.0070465
0.293248 0.0176386 0.00710072
0.299458 0.0182349 0.00692997
0.304853 0.016669 0.00750658
0.292898 0.0166532 0.00797564
0.304972 0.0171903 0.00723469
0.299267 0.0180575 0.00708188
0.298634 0.0159404 0.00830129
0.29905 0.0167453 0.00748592
0.299224 0.0179915 0.00701922
0.304932 0.0170167 0.00732526
0.298858 0.0163696 0.00785946
0.293421 0.0180348 0.00702988
0.299532 0.0181709 0.0069479
0.292956 0.0165368 0.00807489
0.299122 0.0170915 0.00731819
0.305201 0.0178709 0.00701909
0.29282 0.0167024 0.00793583
0.305009 0.0173647 0.00714381
0.298995 0.0165337 0.00769125
0.298912 0.0169282 0.00735234
0.29912 0.0176636 0.00723058
0.305126 0.0179353 0.00700507
0.299276 0.0186232 0.00687453
0.292485 0.0156085 0.0089049
0.292713 0.01607 0.00849249
0.299145 0.0176198 0.00714422
0.293464 0.0182292 0.00704683
0.293025 0.0167552 0.00788135
0.292507 0.0156816 0.00884018
0.305067 0.0176466 0.00706196
0.292873 0.0165806 0.00804008
0.299266 0.018177 0.00695675
0.305048 0.0175504 0.00708091
0.29907 0.016821 0.00742368
0.299259 0.0177422 0.00709949
0.298989 0.0168802 0.00740263
0.298878 0.0164396 0.00779086
0.299217 0.0171207 0.00730482
0.29922 0.0175562 0.007162
0.299047 0.017155 0.00729996
0.299341 0.0181133 0.00697455
0.299276 0.0173996 0.00721106
0.299106 0.0174351 0.0072101
0.293068 0.0169015 0.00775181
0.299246 0.0179648 0.00711315
0.293342 0.0176687 0.0070706
0.299299 0.0179279 0.00703701
0.29939 0.0175213 0.00716651
0.293005 0.0166819 0.00794618
0.293259 0.0177132 0.0070351
0.298915 0.0165807 0.00765398
0.292443 0.0154443 0.00901106
0.299395 0.0179569 0.00702361
0.299149 0.0180549 0.0070015
0.299255 0.0185256 0.00687792
0.298721 0.0162135 0.00802227
0.292735 0.0161438 0.00842717
0.299404 0.0183933 0.00688764
0.292922 0.016726 0.00791103
0.299089 0.0177763 0.00709525
0.29915 0.0179355 0.00712661
0.298952 0.0167217 0.00751713
0.293442 0.018132 0.00703836
0.304754 0.0162595 0.00777581
0.299295 0.0174926 0.00717981
0.299175 0.0169296 0.00736043
0.298952 0.0171223 0.00730552
0.293251 0.0185116 0.00706345
0.299444 0.0183129 0.00699113
0.299437 0.0181421 0.00696119
0.299032 0.0166747 0.0075544
0.29255 0.0158278 0.00871073
0.299501 0.0184251 0.00688912
0.292668 0.0159221 0.00862352
0.298699 0.0161449 0.00809173
0.293283 0.0182515 0.00704339
0.29901 0.0174038 0.00722048
0.299142 0.0171854 0.00728975
0.29924 0.0176492 0.00713074
0.299008 0.0169717 0.00736707
0.293143 0.0180252 0.00702109
0.298857 0.0167043 0.00754217
0.299067 0.0172486 0.00727081
0.299079 0.0169011 0.00736447
0.299427 0.0184915 0.00688425
0.293356 0.0177429 0.00700517
0.298773 0.0160959 0.00813821
0.299315 0.0175855 0.00714856
0.2992 0.0174633 0.00719325
0.298893 0.0168457 0.00740546
0.292464 0.015527 0.00895894
0.299192 0.0181211 0.00706416
0.299197 0.0170274 0.00733622
0.298897 0.0165101 0.00772244
0.293123 0.0171224 0.00755659
0.299555 0.0182637 0.0069182
0.292617 0.0160468 0.00851676
0.292761 0.0162162 0.00836292
0.293343 0.0182503 0.00712363
0.299245 0.0180843 0.00698799
0.293378 0.0178401 0.00701295
0.299236 0.0172137 0.00727356
0.293192 0.0174179 0.00729577
0.299028 0.01706 0.00732428
0.293399 0.0179375 0.00702141
0.298991 0.0173109 0.00725173
0.293165 0.0181225 0.00702956
0.299102 0.0169957 0.00734157
0.292852 0.0165074 0.00810487
0.299354 0.0177713 0.00708607
0.293118 0.0178137 0.00710199
0.293022 0.017383 0.00744625
0.299326 0.0181912 0.00703548
0.293105 0.0178296 0.0070042
0.299204 0.0178987 0.00705046
0.293174 0.0173441 0.00736094
0.292996 0.0173631 0.00735157
0.292637 0.0161201 0.00845185
0.293261 0.0181537 0.00703486
0.29314 0.0171963 0.00749139
0.292944 0.0168001 0.00784545
0.299352 0.0185578 0.00687939
0.293392 0.0182976 0.00705025
0.299272 0.0183475 0.00698642
0.293347 0.0181018 0.00703315
0.29932 0.0180206 0.00700577
0.292844 0.0167759 0.00787252
0.293006 0.0170206 0.00765035
0.305106 0.0178391 0.00702403
0.29882 0.0165632 0.00767906
0.298781 0.0164225 0.00781577
0.292706 0.0163384 0.00825835
0.29903 0.0174968 0.00718922
0.293059 0.0172419 0.00745486
0.299363 0.0180865 0.00706845
0.298677 0.0160769 0.00816173
0.293068 0.0176578 0.00709404
0.293088 0.016975 0.00768686
0.298934 0.0166512 0.00758556
0.293186 0.0182198 0.00703803
0.293161 0.0179045 0.00710237
0.292572 0.0159009 0.00864608
0.293042 0.0171681 0.00752007
0.293213 0.0177835 0.00709134
0.299449 0.0178 0.00707277
0.293049 0.0175829 0.00715748
0.292796 0.0166299 0.00800019
0.293158 0.0172701 0.00742623
0.29298 0.0166094 0.00801054
0.29331 0.0183558 0.00705259
0.292593 0.015974 0.00858128
0.299216 0.0182139 0.00703522
0.298838 0.0166338 0.00761061
0.305186 0.0182236 0.00694829
0.298932 0.0170235 0.00732913
0.292828 0.0164347 0.0081693
0.298875 0.0167749 0.00747375
0.298838 0.0163002 0.00792828
0.298742 0.0162819 0.00795248
0.299576 0.0183585 0.00689399
0.292683 0.0162666 0.00832402
0.299416 0.0180495 0.00699239
0.292784 0.016289 0.00829838
0.292529 0.0157547 0.00877545
0.305165 0.0181277 0.00696716
0.292979 0.0172893 0.0074168
0.293232 0.0175645 0.00716605
0.292966 0.0168735 0.00778048
0.29313 0.017537 0.0071943
0.293109 0.0177348 0.00716268
0.29275 0.0164844 0.00812909
0.293106 0.0170486 0.00762176
0.299086 0.0173419 0.00724061
0.299184 0.0178058 0.00708171
0.293184 0.0176336 0.00721995
0.292865 0.0168482 0.00780664
0.293205 0.0177089 0.00715745
0.292986 0.0169468 0.00771561
0.286992 0.0173188 0.00723209
0.293032 0.0175414 0.00733131
0.292908 0.0169976 0.00768079
0.286973 0.0172322 0.00727808
0.287012 0.0174054 0.0071861
0.293044 0.0174558 0.00738158
0.287051 0.0175787 0.00709412
0.29941 0.0176143 0.00713526
0.29905 0.0175899 0.00715792
0.292775 0.0165597 0.00806838
0.298656 0.0160082 0.00823101
0.215741 0.019982 0.00563384
0.287032 0.0174921 0.00714011
0.29324 0.0180564 0.00702639
0.293212 0.0174911 0.00723094
0.2928 0.0163629 0.00823316
0.293167 0.017685 0.00706503
0.293076 0.0173158 0.00738964
0.293109 0.0174637 0.00725915
0.293218 0.0179591 0.00701792
0.299362 0.018206 0.00694333
0.293109 0.017582 0.00728103
0.293031 0.0175195 0.00723268
0.28709 0.0177519 0.00700214
0.292963 0.0172154 0.00748201
0.292723 0.0164124 0.00819311
0.298762 0.0163522 0.00788411
0.293368 0.0181991 0.00704162
0.293123 0.0179275 0.00701264
0.293538 0.0181612 0.00704347
0.293284 0.0178095 0.00702449
0.293084 0.017655 0.00721748
0.293087 0.0177362 0.00703492
0.293149 0.0176106 0.00712934
0.293256 0.0178736 0.00709725
0.2932 0.0178612 0.00700948
0.292945 0.0171416 0.0075472
0.299098 0.0177534 0.00719218
0.404182 0.0211142 0.0056569
0.287127 0.0179483 0.00700177
0.293229 0.0184143 0.00705498
0.287109 0.0178501 0.0069976
0.287071 0.0176653 0.00704813
0.293025 0.0170943 0.00758524
0.292887 0.0169213 0.00774193
0.293177 0.0177608 0.00700074
0.299383 0.0182991 0.00691338
0.293093 0.0173897 0.00732442
0.293304 0.0179071 0.00701621
0.293012 0.0174374 0.00728636
0.293198 0.0180076 0.00710295
0.29933 0.0184599 0.00688278
0.292927 0.0170679 0.00761229
0.293047 0.0168283 0.00781664
0.298971 0.0172175 0.0072819
0.299128 0.0179622 0.00703274
0.293325 0.0180045 0.00702468
0.299211 0.018333 0.00690785

VERTICES 283 566
1 0
1 1
1 2
1 3
1 4
1 5
1 6
1 7
1 8
1 9
1 10
1 11
1 12
1 13
1 14
1 15
1 16
1 17
1 18
1 19
1 20
1 21
1 22
1 23
1 24
1 25
1 26
1 27
1 28
1 29
1 30
1 31
1 32
1 33
1 34
1 35
1 36
1 37
1 38
1 39
1 40
1 41
1 42
1 43
1 44
1 45
1 46
1 47
1 48
1 49
1 50
1 51
1 52
1 53
1 54
1 55
1 56
1 57
1 58
1 59
1 60
1 61
1 62
1 63
1 64
1 65
1 66
1 67
1 68
1 69
1 70
1 71
1 72
1 73
1 74
1 75
1 76
1 77
1 78
1 79
1 80
1 81
1 82
1 83
1 84
1 85
1 86
1 87
1 88
1 89
1 90
1 91
1 92
1 93
1 94
1 95
1 96
1 97
1 98
1 99
1 100
1 101
1 102
1 103
1 104
1 105
1 106
1 107
1 108
1 109
1 110
1 111
1 112
1 113
1 114
1 115
1 116
1 117
1 118
1 119
1 120
1 121
1 122
1 123
1 124
1 125
1 126
1 127
1 128
1 129
1 130
1 131
1 132
1 133
1 134
1 135
1 136
1 137
1 138
1 139
1 140
1 141
1 142
1 143
1 144
1 145
1 146
1 147
1 148
1 149
1 150
1 151
1 152
1 153
1 154
1 155
1 156
1 157
1 158
1 159
1 160
1 161
1 162
1 163
1 164
1 165
1 166
1 167
1 168
1 169
1 170
1 171
1 172
1 173
1 174
1 175
1 176
1 177
1 178
1 179
1 180
1 181
1 182
1 183
1 184
1 185
1 186
1 187
1 188
1 189
1 190
1 191
1 192
1 193
1 194
1 195
1 196
1 197
1 198
1 199
1 200
1 201
1 202
1 203
1 204
1 205
1 206
1 207
1 208
1 209
1 210
1 211
1 212
1 213
1 214
1 215
1 216
1 217
1 218
1 219
1 220
1 221
1 222
1 223
1 224
1 225
1 226
1 227
1 228
1 229
1 230
1 231
1 232
1 233
1 234
1 235
1 236
1 237
1 238
1 239
1 240
1 241
1 242
1 243
1 244
1 245
1 246
1 247
1 248
1 249
1 250
1 251
1 252
1 253
1 254
1 255
1 256
1 257
1 258
1 259
1 260
1 261
1 262
1 263
1 264
1 265
1 266
1 267
1 268
1 269
1 270
1 271
1 272
1 273
1 274
1 275
1 276
1 277
1 278
1 279
1 280
1 281
1 282

POINT_DATA 283
SCALARS id int 1
LOOKUP_TABLE default
1
2
3
4
5
6
7
8
9
10
11
12
13
14
15
16
18
19
20
21
22
24
25
26
27
29
30
31
32
33
34
35
36
37
38
40
41
42
43
44
45
46
47
48
49
50
52
55
56
57
58
59
60
61
62
63
64
65
66
67
68
69
70
71
72
73
74
75
76
77
78
79
80
81
82
83
84
85
86
87
88
89
90
91
92
93
94
95
96
98
99
100
101
102
103
104
105
106
107
108
109
110
111
112
113
114
115
116
117
118
119
120
121
122
123
124
125
126
127
128
129
130
131
132
133
134
135
136
137
138
139
140
141
142
144
145
146
147
148
149
150
152
153
154
155
156
157
158
159
160
161
162
164
165
166
167
168
169
170
171
172
173
174
175
176
177
178
179
180
181
182
183
184
185
186
187
188
189
190
191
192
193
194
195
196
197
198
199
200
201
202
203
204
205
206
207
208
209
210
211
213
214
215
217
218
219
220
221
222
223
224
225
226
227
228
229
230
231
232
233
234
235
236
237
238
239
241
242
243
244
245
246
247
248
249
250
251
252
253
254
255
256
257
258
259
260
261
262
263
264
265
267
268
269
270
271
272
273
274
275
276
277
278
279
280
281
282
283
284
285
286
287
288
289
290
292
293
294
295
296
297
298
300

SCALARS type int 1
LOOKUP_TABLE default
1
1
1
1
1
1
1
1
1
1
1
1
1
1
1
1
1
1
1
1
1
1
1
1
1
1
1
1
1
1
1
1
1
1
1
1
1
1
1
1
1
1
1
1
1
1
1
1
1
1
1
1
1
1
1
1
1
1
1
1
1
1
1
1
1
1
1
1
1
1
1
1
1
1
1
1
1
1
1
1
1
1
1
1
1
1
1
1
1
1
1
1
1
1
1
1
1
1
1
1
1
1
1
1
1
1
1
1
1
1
1
1
1
1
1
1
1
1
1
1
1
1
1
1
1
1
1
1
1
1
1
1
1
1
1
1
1
1
1
1
1
1
1
1
1
1
1
1
1
1
1
1
1
1
1
1
1
1
1
1
1
1
1
1
1
1
1
1
1
1
1
1
1
1
1
1
1
1
1
1
1
1
1
1
1
1
1
1
1
1
1
1
1
1
1
1
1
1
1
1
1
1
1
1
1
1
1
1
1
1
1
1
1
1
1
1
1
1
1
1
1
1
1
1
1
1
1
1
1
1
1
1
1
1
1
1
1
1
1
1
1
1
1
1
1
1
1
1
1
1
1
1
1
1
1
1
1
1
1
1
1
1
1
1
1
1
1
1
1
1
1
1
1
1
1
1
1
1
1
1
1
1
1

SCALARS radius float 1
LOOKUP_TABLE default
5e-05
5e-05
5e-05
5e-05
5e-05
5e-05
5e-05
5e-05
5e-05
5e-05
5e-05
5e-05
5e-05
5e-05
5e-05
5e-05
5e-05
5e-05
5e-05
5e-05
5e-05
5e-05
5e-05
5e-05
5e-05
5e-05
5e-05
5e-05
5e-05
5e-05
5e-05
5e-05
5e-05
5e-05
5e-05
5e-05
5e-05
5e-05
5e-05
5e-05
5e-05
5e-05
5e-05
5e-05
5e-05
5e-05
5e-05
5e-05
5e-05
5e-05
5e-05
5e-05
5e-05
5e-05
5e-05
5e-05
5e-05
5e-05
5e-05
5e-05
5e-05
5e-05
5e-05
5e-05
5e-05
5e-05
5e-05
5e-05
5e-05
5e-05
5e-05
5e-05
5e-05
5e-05
5e-05
5e-05
5e-05
5e-05
5e-05
5e-05
5e-05
5e-05
5e-05
5e-05
5e-05
5e-05
5e-05
5e-05
5e-05
5e-05
5e-05
5e-05
5e-05
5e-05
5e-05
5e-05
5e-05
5e-05
5e-05
5e-05
5e-05
5e-05
5e-05
5e-05
5e-05
5e-05
5e-05
5e-05
5e-05
5e-05
5e-05
5e-05
5e-05
5e-05
5e-05
5e-05
5e-05
5e-05
5e-05
5e-05
5e-05
5e-05
5e-05
5e-05
5e-05
5e-05
5e-05
5e-05
5e-05
5e-05
5e-05
5e-05
5e-05
5e-05
5e-05
5e-05
5e-05
5e-05
5e-05
5e-05
5e-05
5e-05
5e-05
5e-05
5e-05
5e-05
5e-05
5e-05
5e-05
5e-05
5e-05
5e-05
5e-05
5e-05
5e-05
5e-05
5e-05
5e-05
5e-05
5e-05
5e-05
5e-05
5e-05
5e-05
5e-05
5e-05
5e-05
5e-05
5e-05
5e-05
5e-05
5e-05
5e-05
5e-05
5e-05
5e-05
5e-05
5e-05
5e-05
5e-05
5e-05
5e-05
5e-05
5e-05
5e-05
5e-05
5e-05
5e-05
5e-05
5e-05
5e-05
5e-05
5e-05
5e-05
5e-05
5e-05
5e-05
5e-05
5e-05
5e-05
5e-05
5e-05
5e-05
5e-05
5e-05
5e-05
5e-05
5e-05
5e-05
5e-05
5e-05
5e-05
5e-05
5e-05
5e-05
5e-05
5e-05
5e-05
5e-05
5e-05
5e-05
5e-05
5e-05
5e-05
5e-05
5e-05
5e-05
5e-05
5e-05
5e-05
5e-05
5e-05
5e-05
5e-05
5e-05
5e-05
5e-05
5e-05
5e-05
5e-05
5e-05
5e-05
5e-05
5e-05
5e-05
5e-05
5e-05
5e-05
5e-05
5e-05
5e-05
5e-05
5e-05
5e-05
5e-05
5e-05
5e-05
5e-05
5e-05
5e-05
5e-05
5e-05
5e-05
5e-05
5e-05
5e-05
5e-05
5e-05
5e-05
5e-05
5e-05
5e-05
5e-05
5e-05
5e-05
5e-05
5e-05
5e-05
5e-05
5e-05
5e-05
5e-05
5e-05

SCALARS mass float 1
LOOKUP_TABLE default
1.46608e-10
1.46608e-10
1.46608e-10
1.46608e-10
1.46608e-10
1.46608e-10
1.46608e-10
1.46608e-10
1.46608e-10
1.46608e-10
1.46608e-10
1.46608e-10
1.46608e-10
1.46608e-10
1.46608e-10
1.46608e-10
1.46608e-10
1.46608e-10
1.46608e-10
1.46608e-10
1.46608e-10
1.46608e-10
1.46608e-10
1.46608e-10
1.46608e-10
1.46608e-10
1.46608e-10
1.46608e-10
1.46608e-10
1.46608e-10
1.46608e-10
1.46608e-10
1.46608e-10
1.46608e-10
1.46608e-10
1.46608e-10
1.46608e-10
1.46608e-10
1.46608e-10
1.46608e-10
1.46608e-10
1.46608e-10
1.46608e-10
1.46608e-10
1.46608e-10
1.46608e-10
1.46608e-10
1.46608e-10
1.46608e-10
1.46608e-10
1.46608e-10
1.46608e-10
1.46608e-10
1.46608e-10
1.46608e-10
1.46608e-10
1.46608e-10
1.46608e-10
1.46608e-10
1.46608e-10
1.46608e-10
1.46608e-10
1.46608e-10
1.46608e-10
1.46608e-10
1.46608e-10
1.46608e-10
1.46608e-10
1.46608e-10
1.46608e-10
1.46608e-10
1.46608e-10
1.46608e-10
1.46608e-10
1.46608e-10
1.46608e-10
1.46608e-10
1.46608e-10
1.46608e-10
1.46608e-10
1.46608e-10
1.46608e-10
1.46608e-10
1.46608e-10
1.46608e-10
1.46608e-10
1.46608e-10
1.46608e-10
1.46608e-10
1.46608e-10
1.46608e-10
1.46608e-10
1.46608e-10
1.46608e-10
1.46608e-10
1.46608e-10
1.46608e-10
1.46608e-10
1.46608e-10
1.46608e-10
1.46608e-10
1.46608e-10
1.46608e-10
1.46608e-10
1.46608e-10
1.46608e-10
1.46608e-10
1.46608e-10
1.46608e-10
1.46608e-10
1.46608e-10
1.46608e-10
1.46608e-10
1.46608e-10
1.46608e-10
1.46608e-10
1.46608e-10
1.46608e-10
1.46608e-10
1.46608e-10
1.46608e-10
1.46608e-10
1.46608e-10
1.46608e-10
1.46608e-10
1.46608e-10
1.46608e-10
1.46608e-10
1.46608e-10
1.46608e-10
1.46608e-10
1.46608e-10
1.46608e-10
1.46608e-10
1.46608e-10
1.46608e-10
1.46608e-10
1.46608e-10
1.46608e-10
1.46608e-10
1.46608e-10
1.46608e-10
1.46608e-10
1.46608e-10
1.46608e-10
1.46608e-10
1.46608e-10
1.46608e-10
1.46608e-10
1.46608e-10
1.46608e-10
1.46608e-10
1.46608e-10
1.46608e-10
1.46608e-10
1.46608e-10
1.46608e-10
1.46608e-10
1.46608e-10
1.46608e-10
1.46608e-10
1.46608e-10
1.46608e-10
1.46608e-10
1.46608e-10
1.46608e-10
1.46608e-10
1.46608e-10
1.46608e-10
1.46608e-10
1.46608e-10
1.46608e-10
1.46608e-10
1.46608e-10
1.46608e-10
1.46608e-10
1.46608e-10
1.46608e-10
1.46608e-10
1.46608e-10
1.46608e-10
1.46608e-10
1.46608e-10
1.46608e-10
1.46608e-10
1.46608e-10
1.46608e-10
1.46608e-10
1.46608e-10
1.46608e-10
1.46608e-10
1.46608e-10
1.46608e-10
1.46608e-10
1.46608e-10
1.46608e-10
1.46608e-10
1.46608e-10
1.46608e-10
1.46608e-10
1.46608e-10
1.46608e-10
1.46608e-10
1.46608e-10
1.46608e-10
1.46608e-10
1.46608e-10
1.46608e-10
1.46608e-10
1.46608e-10
1.46608e-10
1.46608e-10
1.46608e-10
1.46608e-10
1.46608e-10
1.46608e-10
1.46608e-10
1.46608e-10
1.46608e-10
1.46608e-10
1.46608e-10
1.46608e-10
1.46608e-10
1.46608e-10
1.46608e-10
1.46608e-10
1.46608e-10
1.46608e-10
1.46608e-10
1.46608e-10
1.46608e-10
1.46608e-10
1.46608e-10
1.46608e-10
1.46608e-10
1.46608e-10
1.46608e-10
1.46608e-10
1.46608e-10
1.46608e-10
1.46608e-10
1.46608e-10
1.46608e-10
1.46608e-10
1.46608e-10
1.46608e-10
1.46608e-10
1.46608e-10
1.46608e-10
1.46608e-10
1.46608e-10
1.46608e-10
1.46608e-10
1.46608e-10
1.46608e-10
1.46608e-10
1.46608e-10
1.46608e-10
1.46608e-10
1.46608e-10
1.46608e-10
1.46608e-10
1.46608e-10
1.46608e-10
1.46608e-10
1.46608e-10
1.46608e-10
1.46608e-10
1.46608e-10
1.46608e-10
1.46608e-10
1.46608e-10
1.46608e-10
1.46608e-10
1.46608e-10
1.46608e-10
1.46608e-10
1.46608e-10
1.46608e-10
1.46608e-10
1.46608e-10
1.46608e-10
1.46608e-10

VECTORS velocity float
0.00449616 -0.000239133 -0.000194346
0.00444087 -4.6548e-05 -0.000159551
0.00485614 -6.5695e-05 -0.000197607
0.00484 -7.03007e-05 -0.000175522
0.00472559 -0.000166247 7.5961e-05
0.0044146 4.84631e-05 0.000117073
0.00474929 -8.35719e-05 -6.88511e-06
0.00472472 -0.000172882 8.26868e-05
0.00447882 -4.16189e-05 1.91256e-06
0.00484728 -0.000162107 -0.000144424
0.0044023 -0.00011989 -0.000113112
0.00442933 -6.19701e-05 -6.16378e-05
0.00467215 -0.000188663 -0.000128246
0.00455666 0.000154424 0.000785744
0.00473995 -0.000183582 -0.000131379
0.00444789 -0.000278218 5.93352e-05
0.00442522 -1.3445e-05 6.93961e-05
0.00441273 -4.65304e-05 -0.000162241
0.0044079 -6.82073e-05 -0.000142684
0.00472896 -0.000156387 6.35834e-05
0.00495598 3.14185e-05 0.000133679
0.00440813 -5.10788e-05 -6.66289e-05
0.00454913 -0.000111969 -0.000149327
0.00448959 -7.26551e-05 -5.64954e-05
0.00448534 -0.00027827 6.03827e-05
0.00440341 -9.89468e-05 -0.000149878
0.00460171 2.81007e-05 0.000136724
0.00466378 -0.000250002 -0.000104581
0.00448544 -0.000178513 -0.000124251
0.00444067 3.28107e-05 0.000128738
0.00480547 -0.000136551 -0.000148861
0.00478485 -0.000184678 -0.000138298
0.00445493 -1.99246e-05 7.1522e-05
0.00477527 -7.76142e-05 -1.21638e-05
0.00465022 -0.00011522 -0.00015175
0.00435772 -0.000208512 -0.00019561
0.00443908 -7.1777e-05 -0.000154234
0.00438859 -9.41256e-05 -0.000148865
0.00488558 -8.56475e-05 -0.000176591
0.00442861 -3.97323e-05 -0.000167075
0.00445209 3.01903e-05 0.000131747
0.00439298 -4.96529e-05 -6.66352e-05
0.00468971 -0.000112271 2.39989e-05
0.00437145 -6.76903e-05 -0.000192117
0.0044935 -7.91495e-05 -5.13387e-05
0.00433374 -5.28224e-05 -0.000158995
0.00471349 -0.000304465 0.000112097
0.00442535 -0.000282077 6.96824e-05
0.00480469 -0.000169409 -0.000147024
0.00447672 -6.15414e-05 -1.74536e-05
0.00546398 -0.000414938 0.000139276
0.00442566 -5.73736e-05 -6.46898e-05
0.00481739 -5.28658e-05 -0.000163217
0.00473286 -0.000139281 4.91583e-05
0.00438218 -0.000201172 -0.000197035
0.00480442 -0.000145568 -0.000148071
0.00442013 -5.29828e-05 -6.58611e-05
0.00441545 -0.000141899 -0.000176365
0.00464004 -0.000410281 0.000100774
0.00480462 -0.000181293 -0.000138358
0.00549242 -0.000493351 0.00020664
0.00437442 -5.22864e-06 9.00721e-06
0.00444381 -9.85735e-06 6.89467e-05
0.00540626 -0.000454527 0.000176374
0.00444316 -6.1863e-05 -5.98503e-05
0.00432212 -0.000203869 -0.000196275
0.00440182 -1.32887e-05 0.000146795
0.00439477 -8.63916e-05 -0.00017879
0.00443354 -1.8667e-05 7.02226e-05
0.00492589 -8.83398e-05 0.000144871
0.00451157 -0.000392074 -1.62996e-05
0.00448147 -0.000271132 5.2715e-05
0.00441706 -0.000105638 -0.00014854
0.00457713 -0.00040854 9.89582e-05
0.00514348 -0.000430526 0.000165901
0.00450841 -0.000307982 7.94984e-05
0.00447439 -2.04268e-05 7.33436e-05
0.00549711 -0.000472381 0.000188339
0.00482097 -7.40372e-05 -0.000177009
0.00448348 -1.93268e-05 6.93502e-05
0.0042952 -0.000178721 -0.000199149
0.00442366 -6.23275e-05 -0.000161051
0.00439896 -1.26059e-05 7.51231e-05
0.00427698 -0.000165546 -0.000228725
0.00437991 -9.16317e-05 -0.000155819
0.00443318 -0.00011456 -0.00014397
0.00434264 1.45014e-05 0.000148009
0.00478629 -0.000104165 -0.00016563
0.00443396 -0.000107347 -0.000145626
0.00442128 -4.07701e-05 -0.000156019
0.00480348 -0.000367089 0.000126382
0.00480418 -0.000138327 -0.000145564
0.00426041 -0.000307585 0.000100123
0.00480288 -0.000149619 -0.000145291
0.00452107 -0.000185899 -0.000123139
0.00526815 -0.000451354 0.000179016
0.00428914 -0.000267009 5.65163e-05
0.00434623 -0.000189678 -0.000213181
0.00453268 0.000145353 0.000787944
0.00472626 -0.000130721 -0.00015197
0.00480257 -0.000143608 -0.000149127
0.00492879 -8.30972e-05 0.000147006
0.00476079 -8.28805e-05 -3.23448e-05
0.004458 -0.000263504 4.81086e-05
0.00489673 -8.13472e-05 0.000131938
0.00533602 -0.000367704 0.000103235
0.0044072 -5.5761e-05 -0.000160299
0.00437399 9.97562e-06 -0.000180247
0.00440242 -0.000197899 -0.00020563
0.00459252 -0.000407973 9.95299e-05
0.00459882 4.12702e-05 0.000127767
0.00448661 -0.000117747 -0.00014361
0.0043952 8.07908e-05 0.000123377
0.00436083 -3.7461e-05 0.000165833
0.00469117 -0.00029515 0.000111767
0.0047922 -0.000142116 -0.000173428
0.00479747 -0.00016026 -0.000146671
0.00439212 -0.000209435 -0.000193368
0.00449455 -0.000289251 7.0529e-05
0.00484443 -0.00013774 0.000146022
0.00448294 -0.000274746 5.7677e-05
0.00476264 -0.000105582 -2.25222e-05
0.00470194 -0.000299243 0.000110867
0.00441744 -5.5952e-06 -0.000178256
0.00436814 -4.26428e-05 -0.000134074
0.0044051 -5.88825e-05 -0.000161837
0.00439497 1.95604e-05 0.000156844
0.00476007 -0.000313907 0.000108014
0.00442455 -0.000256092 -0.000150063
0.00443005 -4.76129e-05 7.27541e-05
0.00440731 4.34607e-05 0.000131066
0.00483813 -0.000162602 0.000145852
0.00430996 -0.000319011 0.000101432
0.00474996 -0.00011575 2.58415e-05
0.00452602 -0.000116177 -0.000146199
0.00445198 -8.00511e-05 -0.000148
0.00442783 -9.35122e-05 4.18589e-05
0.00450208 0.000142336 0.000781243
0.00484873 -2.87208e-05 -0.000170123
0.00437543 -4.3073e-05 -0.000152766
0.0043143 -0.000178973 -0.000219693
0.00433937 -0.000293503 7.89996e-05
0.00480337 -0.00015326 -3.66411e-05
0.00447927 -0.00028226 6.43161e-05
0.00447067 -0.000258671 4.14783e-05
0.00469496 -0.000293793 0.00010916
0.0048104 -7.66594e-05 -0.000169391
0.00436616 -0.000338295 9.96233e-05
0.00439252 -9.426e-05 -0.000150275
0.00430421 -0.000279178 6.61837e-05
0.00437107 1.41291e-05 0.000151152
0.00447589 -0.000368149 9.90474e-05
0.0044029 -0.000192893 -2.42032e-05
0.00474628 -0.00031402 0.00010893
0.00438049 4.80741e-05 0.000127837
0.00528331 -0.00042347 0.000154509
0.00458216 -0.000109182 -0.000150944
0.0044032 -0.000259892 0.000106791
0.00421616 -0.000266193 2.47795e-05
0.00478342 -0.000105171 -0.000151471
0.00440655 -0.000249725 0.000106423
0.00438021 -1.61788e-05 -0.000171293
0.00426413 -0.000274493 6.12375e-05
0.00420593 -0.000218529 1.80848e-05
0.00446874 -0.000280862 6.43837e-05
0.00473879 -0.000297122 0.000112803
0.00423773 -0.000275122 6.73744e-05
0.00523398 -0.000318605 6.40736e-05
0.00488274 -0.000125634 0.000144176
0.00469056 -0.00029443 0.000110241
0.00603448 0.000986264 -0.00124853
0.00472107 -0.000323667 0.000110446
0.00476558 -9.96701e-05 -0.000162829
0.00528044 -0.000415524 0.000146532
0.00460104 -0.000359579 0.000126252
0.00444126 -1.98531e-05 7.02454e-05
0.00436784 -0.00022037 -0.000185953
0.0045712 -0.00021252 -0.000179876
0.00437513 -0.000273314 5.9369e-05
0.00444433 4.11524e-05 -0.000191663
0.00420317 -0.000287306 7.90725e-05
0.00468087 -0.000150837 -0.000179111
0.00473784 -0.000107476 5.8618e-07
0.00437757 -0.000253207 6.16286e-05
0.0046702 -0.000345497 0.000111381
0.00437216 -0.000195206 -0.000209379
0.00472779 -0.000310642 0.000111519
0.00449234 -0.000432095 0.00010222
0.00448705 -0.000283098 6.29958e-05
0.00426345 -0.000300013 8.77398e-05
0.00441948 -0.000282894 0.000113158
0.00456658 -0.000186528 -0.000125499
0.00433686 -0.000251209 4.55383e-05
0.00548632 -0.000481015 0.000196567
0.00424397 -0.000272792 6.42243e-05
0.00541627 -0.000479637 0.000197679
0.00470665 -0.000284046 0.000114927
0.00447892 -0.000280505 6.12926e-05
0.00479206 -4.32346e-05 -0.000198417
0.0043606 -0.000236513 -0.000171781
0.00485316 -9.27162e-05 9.18532e-05
0.00439291 1.06188e-06 0.00014714
0.00489941 -0.000338165 9.58143e-05
0.00444384 -0.000219955 -9.06598e-05
0.00468715 -9.92887e-05 -5.93238e-05
0.00473243 -9.48492e-05 -4.93961e-05
0.00483507 -0.000128303 0.000134584
0.00443799 -0.000278535 6.17215e-05
0.00475821 -0.000143158 -0.000145762
0.00443692 -0.000237271 2.52435e-05
0.00450081 -0.000293685 8.57784e-05
0.0044062 -5.66463e-06 6.76805e-05
0.00419208 -0.000212979 1.13791e-05
0.00441535 -0.000294253 7.18508e-05
0.00506474 -0.000314819 6.75551e-05
0.00434306 -0.000290395 7.62547e-05
0.00455093 -0.000381564 -2.85453e-05
0.00478687 -0.000354983 0.000114944
0.00453388 -0.000324315 9.825e-05
0.00438895 -2.63604e-05 -4.31641e-05
0.00441755 -5.64133e-05 -0.000162838
0.00441002 -0.000318729 8.17479e-05
0.00517508 -0.000382011 0.000122214
0.00442264 -0.000312285 8.92295e-05
0.00484018 -0.000333932 8.84962e-05
0.00443446 5.53226e-05 2.02183e-05
0.0044685 -0.000228767 0.000156531
0.00487337 -0.000316595 7.3069e-05
0.00442925 6.09959e-05 1.75385e-05
0.00444672 5.20053e-05 2.25292e-05
0.00428643 -0.000280493 0.000105995
0.004466 4.37774e-05 2.65132e-05
0.0045186 -0.000187543 -0.00012275
0.00441488 -6.22136e-05 -0.00015681
0.0052435 -0.0004477 0.000176633
0.00473375 -0.00011883 3.11944e-05
6.80529e-15 2.29913e-14 -7.0324e-14
0.00446317 4.77096e-05 2.49637e-05
0.00476824 -0.000299486 0.000112094
0.00437215 -0.000289351 7.32849e-05
0.00456522 -0.000253354 3.46305e-05
0.00439653 -0.000270744 0.000102957
0.00422862 -0.00028885 7.97335e-05
0.00428227 -0.000281277 7.60013e-05
0.0045945 -0.000268686 0.000111789
0.00483401 -0.000154759 -0.000140748
0.00445939 -0.000273199 9.9549e-05
0.00430798 -0.000247126 3.81482e-05
0.00449341 4.67453e-05 2.34943e-05
0.00428945 -0.000223534 1.75956e-05
0.00444752 -0.000283542 6.48566e-05
0.00465332 -0.000139817 -0.000105129
0.00468158 -0.000318981 0.000111118
0.00458743 -0.000281523 0.000105655
0.00458041 -0.000393874 0.0001008
0.00435843 -0.000268387 9.55747e-05
0.00449379 -0.000316519 3.15636e-05
0.00440118 -0.000249856 8.78925e-05
0.00438319 -0.00028686 8.28456e-05
0.00452547 -0.000330779 0.000108526
0.0043863 -0.00023433 0.000106244
0.00449993 -0.000251059 3.76283e-05
0.00441947 -6.62006e-05 -0.000158022
-1.28384e-14 6.09058e-14 -1.90219e-13
0.0048628 -3.01378e-05 -9.15473e-05
0.00470324 -0.000298615 0.000112026
0.00460958 1.72242e-05 -8.144e-05
0.00447613 4.61389e-05 2.54939e-05
0.00443279 -0.000330341 0.000107434
0.00503678 -0.000347191 9.63403e-05
0.00440761 -0.000260992 0.000107734
0.0048515 -0.0001122 -1.64171e-05
0.00424626 -0.000287432 8.17152e-05
0.00451487 -0.000288343 0.000113621
0.00429145 -0.000241809 2.22715e-05
0.00473901 -0.000237274 0.000130264
0.0049288 -6.61674e-05 0.00014929
0.00469812 -0.000283422 5.51316e-05
0.00497815 -0.000399088 0.000145437
0.00436562 -2.50803e-05 0.00015746
0.00439894 -1.28543e-05 -0.000178739
0.00475855 -0.000332881 0.000109662
0.00491321 -5.92042e-05 -0.000187038

VECTORS force float
-5.08322e-11 -1.06904e-10 -5.07032e-11
-8.87887e-12 -3.50698e-11 -5.40633e-11
-1.09665e-10 -2.7982e-10 -1.98262e-10
-2.28967e-11 -3.74198e-10 1.2643e-10
-1.65901e-10 -5.41455e-10 5.47491e-10
6.01887e-12 -6.44421e-11 3.89272e-11
-2.07558e-10 1.50194e-10 -1.06122e-10
-2.18391e-10 -6.51363e-10 6.77055e-10
-2.24219e-11 -2.74197e-11 -8.09952e-11
2.38231e-11 3.05527e-10 -1.27841e-11
4.77974e-11 6.62499e-11 8.24969e-11
1.72396e-10 -5.56591e-11 7.21937e-11
-1.24963e-11 2.94898e-11 4.72661e-11
4.85015e-11 -1.49596e-11 3.55488e-11
5.04209e-10 -1.82983e-10 9.02233e-13
4.72367e-11 4.16625e-11 -2.13909e-11
-1.83816e-12 -7.13047e-12 -2.59443e-12
8.2214e-11 1.22157e-10 -4.1281e-11
-1.71552e-10 -1.34515e-10 -1.0768e-10
-3.61015e-11 -4.17514e-10 4.32568e-10
-2.97719e-10 3.41492e-10 2.20408e-10
5.09413e-11 -8.94458e-11 2.36502e-11
1.3156e-11 -7.59827e-11 2.60013e-11
-4.50383e-11 -9.52552e-11 1.32014e-11
-1.05695e-10 -7.62077e-11 8.38322e-11
1.10037e-10 3.55584e-10 -1.38934e-10
-4.32542e-12 -4.45548e-11 3.80796e-11
-6.39833e-10 4.69947e-10 -1.02665e-10
-2.30719e-10 7.47372e-11 -3.04702e-11
3.46717e-11 -5.5203e-12 2.98634e-12
2.27172e-11 -8.06935e-11 -2.30938e-11
5.12216e-10 -1.98163e-10 -3.80271e-11
-2.62075e-11 4.32899e-11 3.33286e-11
2.51343e-11 2.1616e-12 -9.50889e-11
-1.28195e-10 -7.06661e-11 -6.24186e-12
-3.18097e-10 7.68914e-11 -1.88486e-11
-5.36018e-11 6.51667e-11 -1.08775e-10
3.50554e-11 -3.05506e-11 1.4995e-10
5.69634e-11 -4.52268e-11 -1.85403e-11
-6.73417e-11 2.22346e-11 -7.00263e-12
-2.99561e-11 9.66673e-11 -2.10985e-11
-1.048e-10 -1.3569e-11 3.68593e-11
-7.7855e-11 3.07642e-10 -2.33056e-10
2.11301e-12 6.9599e-11 2.67489e-10
3.4216e-10 -5.66895e-11 -2.42598e-11
-3.43428e-11 -1.0522e-10 1.62992e-11
1.68517e-11 -8.41531e-12 -9.56322e-13
2.32325e-10 4.83909e-12 2.22998e-11
1.1018e-10 2.01947e-12 2.59129e-11
6.26473e-11 9.19905e-11 -1.21193e-10
7.19767e-11 1.7089e-10 -1.5638e-10
1.18883e-10 -1.13779e-10 4.71526e-11
5.57413e-11 -2.80945e-10 5.71762e-11
1.13791e-10 -2.96853e-10 3.62856e-10
-2.26017e-10 -7.9347e-12 -2.83995e-11
3.3235e-11 -5.01049e-11 7.5056e-12
-4.38024e-11 -3.29977e-11 1.85391e-11
2.73687e-10 -2.6297e-10 -2.06349e-10
-2.09502e-10 2.94458e-11 -2.04557e-12
1.08463e-10 6.41358e-11 1.05182e-10
3.21319e-10 1.04375e-10 -1.01747e-10
5.1569e-11 4.01443e-11 9.79619e-11
5.33414e-11 -2.57545e-11 -2.39154e-13
1.54419e-10 1.44439e-10 -1.29721e-10
2.43194e-11 -9.72436e-11 9.51255e-12
6.48832e-11 -8.6411e-12 -2.08238e-12
3.61703e-11 8.19531e-11 -2.24821e-12
4.48408e-11 -7.35917e-11 -6.20257e-11
2.40139e-11 5.94812e-12 -5.51131e-12
-7.25173e-11 -7.79529e-11 -2.89582e-11
-8.78367e-10 1.51252e-09 1.90047e-09
-7.39093e-11 -5.47709e-11 1.24073e-11
5.47336e-11 1.22821e-10 -5.08009e-11
4.87724e-11 -1.49046e-11 2.50606e-12
-1.18017e-10 1.62548e-10 -1.38972e-10
5.31052e-11 3.35491e-11 2.163e-10
-1.72885e-11 8.87829e-11 -1.76236e-11
1.40374e-10 1.46422e-11 -2.82991e-11
-9.64423e-11 -1.40454e-10 4.63542e-11
1.15212e-11 5.80597e-11 -1.77505e-11
-3.00448e-10 -2.45934e-11 4.02835e-11
2.42357e-10 -9.77847e-11 1.74818e-11
-1.13944e-11 1.17379e-10 6.52562e-11
2.3284e-11 -9.74551e-11 1.21571e-11
-1.64397e-11 2.44819e-10 -1.17711e-11
5.91797e-11 -4.82236e-11 1.89581e-11
4.48086e-10 -4.8671e-10 2.94271e-10
1.69147e-10 -4.93827e-12 -3.83113e-11
-2.5983e-12 -1.47071e-10 -2.68916e-11
-1.96723e-10 5.65545e-11 -2.77992e-10
-1.16191e-10 7.90498e-11 -6.6332e-11
7.43594e-11 -1.13709e-11 -8.2115e-12
1.6337e-10 1.97158e-11 -3.07072e-11
1.15233e-11 -9.34415e-11 1.63826e-11
-7.51688e-11 5.41481e-11 4.29692e-12
3.62216e-11 1.18998e-10 -1.03253e-10
1.06877e-11 4.35804e-11 6.01325e-11
1.32928e-10 -9.16078e-11 7.65457e-11
5.18922e-11 7.50664e-11 -6.26992e-12
-5.11871e-11 -1.69679e-10 2.69887e-11
9.55129e-12 -3.02468e-11 2.48013e-12
1.20296e-10 3.13152e-10 1.32661e-10
-1.15007e-11 1.62513e-10 -2.67382e-10
-9.91495e-11 5.54883e-11 -4.69521e-11
-9.3252e-11 1.58059e-10 3.58585e-11
-1.06145e-10 6.08289e-13 4.84973e-12
-8.63832e-12 7.95793e-11 -2.23995e-11
2.80687e-10 -1.27653e-10 1.37305e-10
5.19029e-11 -1.3039e-11 -3.84587e-11
-4.03598e-11 6.14796e-12 -2.75681e-12
-2.17757e-11 -6.11803e-12 -3.42486e-12
-1.35918e-10 -5.11237e-11 -3.04685e-11
2.81788e-10 3.82715e-10 -1.49731e-10
-2.75202e-11 -1.51408e-10 2.49475e-10
-2.44669e-11 -5.35242e-11 -4.25334e-12
4.40319e-10 3.13405e-10 1.13742e-10
4.50291e-10 -2.03454e-10 -2.21347e-11
-1.6796e-10 -9.613e-12 1.31057e-11
-3.96345e-11 -1.30472e-10 1.72091e-10
1.28734e-10 3.1633e-10 1.52816e-11
-2.22864e-10 -1.04459e-10 9.1655e-11
-2.42457e-10 1.67617e-10 -1.54194e-10
-5.20316e-11 -9.9269e-11 -1.26017e-11
-5.65088e-12 -2.70355e-11 8.86644e-12
-2.72574e-10 1.94948e-11 3.81481e-11
5.46287e-11 -1.51416e-10 5.08473e-11
6.74573e-11 -3.1575e-11 -1.63919e-10
2.29098e-11 5.05754e-11 -7.25856e-12
1.20506e-10 -1.03605e-10 9.37303e-11
1.10995e-09 -1.08783e-09 -4.696e-11
1.00458e-10 -1.31313e-10 2.89382e-11
1.09504e-11 7.52027e-11 -1.30083e-11
-6.00316e-12 3.62831e-11 -3.91293e-11
-8.12678e-11 2.79757e-10 -3.11474e-10
-8.62815e-11 -2.34954e-11 2.05637e-11
-6.4659e-11 -1.08689e-10 1.33421e-10
-5.04656e-13 7.33901e-11 6.20384e-11
-1.03157e-10 2.04499e-12 -3.12819e-11
7.99236e-11 -3.46285e-10 1.41421e-10
3.56151e-10 4.34921e-11 -3.77871e-11
3.96785e-11 -8.85201e-11 9.84212e-11
-9.41809e-11 -1.86172e-11 8.84519e-12
-3.70903e-10 1.70875e-10 1.26784e-10
-1.15803e-10 -4.25203e-11 4.80774e-11
1.18397e-10 -7.32984e-11 4.18339e-11
-4.74044e-11 -4.74299e-11 -5.99309e-12
1.18929e-10 -1.98143e-10 6.64734e-11
-5.46906e-12 1.70286e-11 1.91512e-12
-3.55169e-12 1.73627e-10 2.61105e-11
1.01079e-10 -1.49171e-10 7.41464e-11
8.25897e-11 -1.69415e-10 9.63198e-11
-5.30857e-11 8.59438e-12 4.52083e-12
7.74354e-10 -1.31717e-10 8.10222e-11
-1.25308e-11 2.22241e-11 2.31619e-11
-5.71739e-11 -1.87744e-10 -9.08802e-12
-2.51561e-10 1.1866e-10 -8.84279e-11
-2.03891e-10 -4.7285e-11 3.8747e-11
-4.37327e-11 1.55482e-10 4.63612e-11
1.72194e-11 1.10038e-10 -1.07817e-10
8.22953e-11 1.15307e-10 -1.2555e-10
-8.94283e-12 -4.24004e-12 1.14376e-11
-1.33065e-11 -1.23255e-10 2.886e-11
1.14036e-10 -1.55694e-10 8.39305e-11
-2.10235e-11 -3.9594e-11 -9.67428e-12
-1.05517e-10 -7.06245e-12 4.29512e-11
-6.85617e-11 4.04858e-11 7.59726e-12
6.10802e-11 -5.92097e-11 6.23233e-11
5.6129e-11 1.13447e-10 -8.90734e-11
-1.88918e-10 -1.91926e-10 2.92895e-11
3.02761e-11 -2.2112e-11 4.7022e-12
8.52065e-11 1.36787e-11 -3.56416e-10
-1.81793e-10 -2.04402e-12 -8.22273e-12
1.25339e-10 -8.9982e-11 4.88796e-11
-1.43908e-12 1.00074e-10 -8.13855e-11
-1.35569e-10 -8.32361e-11 7.95096e-11
-1.79848e-11 -4.45663e-12 2.28051e-11
1.20475e-10 -1.55876e-10 1.31174e-10
4.11191e-10 -1.2196e-11 -1.49423e-11
2.4803e-10 1.66062e-10 -9.8176e-11
-1.46466e-11 4.27448e-10 -2.31945e-10
-1.49224e-10 -4.72695e-11 5.02281e-11
1.71701e-10 3.52459e-11 -9.32034e-11
-9.8861e-11 -7.77382e-11 -1.57062e-10
3.24733e-12 -6.16727e-11 -8.12217e-11
-2.29021e-10 7.22785e-11 -4.36003e-11
-8.1218e-12 -2.32322e-11 1.96653e-11
-2.40361e-11 1.426e-12 1.13928e-11
-3.86811e-11 4.35138e-11 5.92175e-11
-1.64494e-10 -1.46156e-10 8.61662e-11
-3.36842e-10 -7.75852e-12 2.8606e-11
-1.64509e-11 2.60339e-11 -4.46085e-11
-2.44236e-10 4.33062e-11 -4.27901e-12
1.23515e-10 -5.23247e-11 -3.74249e-11
1.01348e-10 1.66621e-10 -1.6602e-10
-7.91482e-11 -8.60537e-11 5.09474e-11
-1.52326e-11 1.09433e-10 -9.50511e-11
5.70606e-11 1.29236e-11 -4.6794e-12
-8.04285e-11 -8.55525e-11 8.28008e-11
-2.24448e-10 4.23656e-11 -1.02584e-10
6.48721e-11 -1.46314e-10 1.51859e-10
2.67421e-11 6.11685e-12 -5.44903e-13
1.37971e-12 1.89238e-10 -1.19117e-10
-4.34571e-10 9.98771e-11 -7.88604e-11
6.50757e-11 6.11904e-11 8.49575e-11
2.53923e-10 -2.27466e-10 -2.61421e-10
1.46001e-10 -9.99144e-11 -4.89443e-10
-2.07377e-10 1.5565e-10 2.59401e-11
3.46959e-10 4.76773e-11 -6.49172e-11
1.4958e-10 -2.17977e-10 2.5491e-11
1.73212e-10 -8.1175e-11 2.45483e-11
2.26987e-10 -6.37753e-11 1.86979e-10
-9.02938e-11 -2.28766e-11 7.21406e-12
3.20154e-10 -9.23852e-11 8.05704e-11
-4.74527e-10 -1.83763e-11 -2.81912e-11
2.22693e-11 1.53267e-10 -1.40935e-10
-3.62572e-11 2.43848e-11 3.35825e-11
-1.00327e-10 1.8843e-10 1.00924e-10
7.16958e-11 1.99402e-10 -1.83887e-10
-2.61916e-10 5.21815e-11 -2.58475e-11
-2.32286e-10 -2.00966e-10 3.81838e-10
8.7325e-11 -2.45305e-11 -5.55253e-12
1.56067e-10 5.49641e-11 5.62617e-11
-8.15136e-11 4.04168e-11 -4.46378e-11
-1.27015e-11 4.40815e-11 -4.44294e-11
-1.23139e-10 -6.19442e-11 -1.6233e-11
5.1258e-12 -3.92164e-11 1.5776e-11
7.11109e-11 9.27414e-11 2.42833e-10
-5.43738e-11 -6.67168e-11 7.05495e-11
-2.80728e-11 -5.38879e-11 3.10702e-11
-3.71397e-11 9.34394e-13 7.66544e-13
2.96593e-10 -9.01574e-11 1.44482e-10
9.86972e-11 -8.45121e-12 9.74227e-12
-1.29095e-11 6.15832e-11 -8.1908e-12
9.88511e-11 4.1945e-10 -8.23614e-11
-1.40196e-10 2.35411e-10 -1.92346e-10
5.91919e-11 -1.86522e-10 1.1994e-10
-9.29286e-23 1.0133e-23 -6.82424e-24
2.263e-11 3.53583e-11 -6.39186e-12
-1.76201e-11 4.21355e-11 1.14016e-11
-2.45611e-10 -8.35503e-11 1.10054e-11
1.06752e-10 -3.7898e-11 3.1073e-11
-1.59949e-11 -5.65603e-11 1.28477e-10
5.95521e-11 -7.44831e-11 7.53409e-11
3.64188e-11 -2.16048e-11 5.04795e-11
1.37596e-10 6.72497e-11 4.55127e-12
2.16851e-10 6.89417e-11 -1.95888e-11
2.15529e-12 4.02807e-11 9.7698e-11
-1.0865e-11 -4.23746e-11 -2.96786e-11
-6.87452e-11 4.37065e-11 -4.37051e-11
2.14195e-10 -1.23924e-10 7.48218e-11
7.72619e-11 1.68812e-10 -1.73514e-10
4.86939e-10 -2.152e-11 -2.02202e-10
-4.40223e-11 -4.49582e-11 -1.1715e-11
7.76961e-11 2.13225e-11 -1.27585e-11
-2.16946e-11 -3.3621e-11 -3.75292e-12
3.31494e-11 4.03072e-11 1.79881e-11
-6.35175e-11 4.90085e-12 -5.85209e-11
-3.07024e-12 -5.813e-12 -1.41272e-12
-3.74026e-11 2.1421e-11 9.40971e-11
4.2423e-11 1.36814e-10 5.10829e-11
-8.11274e-12 2.37884e-11 2.16748e-11
-1.55499e-10 -9.55206e-11 4.5034e-11
-3.14725e-11 -8.06642e-11 -5.4121e-11
-9.21789e-22 -1.39173e-22 2.02659e-23
-2.71931e-11 3.43296e-11 -4.74384e-12
8.64056e-12 -1.22146e-11 3.92985e-12
6.70399e-11 5.39949e-11 2.80667e-11
-5.46675e-11 -1.88421e-11 -2.09439e-11
-1.30975e-10 -6.29332e-11 4.66428e-11
-1.42688e-10 -2.12484e-11 2.63825e-11
5.3153e-11 -3.69722e-11 2.86653e-11
-3.14402e-10 -1.87524e-11 -1.19756e-10
2.44874e-10 -5.79379e-11 5.36107e-11
-2.16903e-11 6.47752e-11 1.11641e-12
-1.83926e-10 -6.79076e-11 -1.03366e-10
2.6994e-11 -1.96081e-11 -7.34131e-12
-5.09595e-11 2.04838e-10 -2.47207e-11
-1.3737e-10 -8.74086e-11 5.77955e-11
2.93727e-11 1.06869e-10 -8.81192e-11
3.70465e-10 -4.35899e-10 4.81039e-11
-5.26194e-12 -1.39661e-10 9.78866e-11
-3.66135e-11 4.42233e-11 -1.1457e-11
-1.14414e-10 -1.39406e-10 -1.63305e-10
