# vtk DataFile Version 3.0
LIGGGHTS particles timestep 57800000
ASCII
DATASET POLYDATA
POINTS 283 float
0.277681 0.0163341 0.00781707
0.278005 0.0175309 0.0072157
0.278065 0.0180506 0.00698101
0.278045 0.0179565 0.00700857
0.277384 0.0154344 0.00883481
0.28374 0.0166334 0.00777564
0.277689 0.0160321 0.00816646
0.277363 0.0153694 0.00890764
0.283967 0.0175759 0.00709904
0.278358 0.018149 0.00694299
0.277849 0.0166349 0.00752344
0.283928 0.0173927 0.00716906
0.278352 0.0177033 0.00704371
0.271392 0.0157165 0.00906545
0.278372 0.0177972 0.00701559
0.271628 0.0163752 0.00822313
0.284084 0.0181392 0.00696377
0.277986 0.0176742 0.00709124
0.278068 0.0171893 0.00725571
0.277406 0.0154994 0.00876197
0.278104 0.0182407 0.00693306
0.28389 0.0172109 0.00724284
0.278219 0.01749 0.00712657
0.283836 0.0169941 0.00744327
0.271638 0.0161629 0.00851548
0.277947 0.0174863 0.00714735
0.283718 0.0165614 0.0078416
0.278187 0.0181841 0.00693488
0.278314 0.0175201 0.00711385
0.283761 0.0167054 0.00770956
0.278045 0.0177185 0.00715914
0.278391 0.0178913 0.00698819
0.284026 0.0178511 0.00699519
0.277699 0.0160982 0.00809211
0.278258 0.0176752 0.0070619
0.277491 0.0157554 0.00847505
0.278011 0.0173396 0.00719081
0.278143 0.0171292 0.00728181
0.278167 0.0180893 0.00696007
0.27805 0.017525 0.00712656
0.28378 0.0167775 0.00764311
0.283854 0.0170664 0.00737648
0.277449 0.0156294 0.00861631
0.278049 0.0170991 0.00729451
0.283818 0.0169219 0.00750996
0.278163 0.0176468 0.00707912
0.272208 0.0187043 0.00695034
0.272209 0.0178021 0.00709287
0.278336 0.0180516 0.00695083
0.2838 0.0168497 0.00757665
0.271834 0.0167042 0.00782374
0.283909 0.0173019 0.00720618
0.278173 0.0178154 0.00711757
0.277428 0.0155644 0.00868914
0.277923 0.0165693 0.00754205
0.278108 0.0178068 0.00704199
0.283872 0.0171386 0.00730969
0.277738 0.016226 0.00794327
0.272392 0.0182183 0.00703003
0.278412 0.0179857 0.00696198
0.271883 0.0166124 0.00796124
0.278 0.0169211 0.00737106
0.28414 0.0179756 0.00695928
0.271875 0.0168245 0.00766919
0.283948 0.0174841 0.00713366
0.277494 0.015689 0.00854978
0.277793 0.0167717 0.00744189
0.277936 0.017275 0.00730865
0.284065 0.0180411 0.00695871
0.278147 0.0184356 0.00694548
0.271472 0.0158976 0.0088416
0.271658 0.0162231 0.00843831
0.278031 0.0174327 0.00715996
0.272436 0.0184119 0.00700014
0.27195 0.0167933 0.00773027
0.271477 0.0159553 0.00876007
0.284007 0.0177594 0.00702981
0.27181 0.0166441 0.00790014
0.278148 0.017995 0.00698704
0.283987 0.0176676 0.00706442
0.277945 0.0166503 0.00748759
0.278144 0.0175532 0.00710856
0.277869 0.0167106 0.00746139
0.277759 0.0162891 0.00786858
0.278105 0.0169488 0.0073594
0.278106 0.0173696 0.00717815
0.277924 0.0169813 0.00734493
0.278222 0.0179291 0.00699644
0.278163 0.0172193 0.00724304
0.277991 0.0172495 0.00722958
0.272004 0.0169815 0.00750343
0.278154 0.0177213 0.00714513
0.272304 0.0178325 0.00708959
0.278183 0.0177409 0.00705156
0.278276 0.0173395 0.00719154
0.271929 0.0167332 0.00780738
0.272229 0.0178989 0.0070779
0.277797 0.0164166 0.00771929
0.271414 0.0157766 0.00898867
0.278277 0.0177691 0.00703358
0.278026 0.0178624 0.00703613
0.278126 0.0183381 0.00693924
0.277599 0.0160782 0.00811344
0.27168 0.0162832 0.00836134
0.278283 0.0182155 0.00694208
0.271856 0.0167643 0.00774699
0.277967 0.0175801 0.0071188
0.278025 0.0176245 0.00718688
0.277831 0.0165523 0.00757681
0.272414 0.0183147 0.00701516
0.283696 0.0164895 0.00790757
0.278182 0.0173095 0.00720425
0.278059 0.0167702 0.00743622
0.277832 0.0169542 0.00737397
0.272359 0.0185703 0.00702772
0.278288 0.0180856 0.00703186
0.278317 0.0179573 0.00697844
0.277909 0.0165037 0.0076162
0.271521 0.0160857 0.00861541
0.27838 0.0182466 0.00694924
0.271617 0.0161027 0.00859258
0.277594 0.0160118 0.00818801
0.272287 0.0186039 0.00696743
0.277888 0.0172095 0.00724654
0.278029 0.017009 0.00733328
0.278125 0.0174617 0.00714414
0.277889 0.0168032 0.00742909
0.272144 0.0184147 0.00699506
0.277735 0.0165268 0.00759144
0.277953 0.0170692 0.00730712
0.277964 0.0167404 0.00744883
0.278305 0.0183134 0.00694835
0.272327 0.0179287 0.00707475
0.277513 0.015821 0.00840277
0.278201 0.0173996 0.00716545
0.278087 0.0172794 0.00721695
0.277772 0.0166794 0.00747461
0.271435 0.0158368 0.00891163
0.278063 0.0178149 0.00713088
0.278078 0.0168604 0.00739742
0.277779 0.0163527 0.00779409
0.272051 0.0171535 0.00726267
0.278432 0.0180819 0.00694385
0.271585 0.0162549 0.00837695
0.271702 0.0163434 0.00828449
0.272302 0.018451 0.00706406
0.278128 0.0179009 0.00701443
0.272348 0.0180254 0.0070598
0.278124 0.017039 0.00732061
0.272125 0.0175202 0.00713609
0.277909 0.0168984 0.00740564
0.27237 0.0181218 0.00704492
0.277869 0.0171194 0.00728531
0.272165 0.0185112 0.00698015
0.277983 0.0168306 0.00741003
0.271789 0.0165839 0.00797708
0.278238 0.0175808 0.0070887
0.272111 0.0180796 0.00712272
0.27178 0.0168119 0.00770247
0.278193 0.0179095 0.00709001
0.272101 0.0182217 0.00702487
0.278089 0.0177127 0.00706955
0.272111 0.0174224 0.00715132
0.271978 0.0176413 0.00711472
0.271607 0.0163151 0.00830004
0.272264 0.0184972 0.00698393
0.272076 0.0172279 0.0071819
0.271972 0.0168535 0.00765342
0.27823 0.0183796 0.00694741
0.272362 0.0184784 0.00698846
0.278115 0.0181107 0.00704277
0.272318 0.0182844 0.00701841
0.278203 0.017835 0.007024
0.271895 0.0169006 0.00760747
0.271953 0.0171349 0.00729343
0.284046 0.017943 0.00696091
0.277699 0.0163979 0.00774236
0.277662 0.0162702 0.00789183
0.271672 0.0164955 0.00806932
0.277908 0.0173029 0.00721677
0.272018 0.0173863 0.00715553
0.278268 0.0178436 0.00709958
0.277556 0.0159499 0.00825711
0.272058 0.0180286 0.00705488
0.272019 0.0170333 0.0074192
0.277813 0.0164808 0.00764431
0.272187 0.0186078 0.00696525
0.272133 0.0181758 0.00710736
0.271542 0.0161346 0.00853076
0.271998 0.0172906 0.007177
0.2722 0.0179674 0.00714467
0.278333 0.0176103 0.00707504
0.272037 0.017932 0.00706964
0.271758 0.0167353 0.00776268
0.272096 0.0173247 0.0071665
0.271906 0.0166725 0.00788472
0.272444 0.0185625 0.00697649
0.271564 0.0161948 0.00845391
0.27808 0.0179162 0.00710063
0.277717 0.0164618 0.0076676
0.284124 0.0183348 0.00697401
0.277812 0.016859 0.00739733
0.271768 0.0165238 0.00805408
0.277753 0.0165908 0.00751655
0.277716 0.0161629 0.00801778
0.277621 0.0161432 0.00804059
0.278454 0.0181793 0.00695008
0.27165 0.0164354 0.00814622
0.278297 0.0178632 0.00700601
0.271723 0.0164035 0.00820753
0.271501 0.0160154 0.00868362
0.284102 0.0182373 0.00696884
0.271959 0.0175444 0.00712962
0.272189 0.0177052 0.00710787
0.271906 0.0169416 0.00751696
0.272109 0.0177966 0.00709217
0.27209 0.0179825 0.00713782
0.271715 0.0166243 0.00792305
0.272037 0.0170934 0.00734142
0.277972 0.0171601 0.00727014
0.278069 0.0176186 0.00709711
0.271882 0.0171686 0.0072224
0.271829 0.0169702 0.00745914
0.271953 0.0175081 0.00722268
0.271922 0.0170017 0.00743868
0.26588 0.0171818 0.00727939
0.271813 0.0169101 0.00753736
0.271938 0.0170629 0.00736124
0.265861 0.0170971 0.00732891
0.265899 0.0172665 0.00722987
0.2718 0.0168798 0.00763177
0.265938 0.0174359 0.00713086
0.278295 0.0174299 0.00715266
0.277927 0.0173935 0.00717918
0.271736 0.0166752 0.0078396
0.277543 0.015884 0.00833111
0.215741 0.019982 0.00563384
0.265918 0.0173513 0.00718035
0.272241 0.018393 0.00700004
0.272171 0.0176081 0.00712292
0.271745 0.0164636 0.00813069
0.272153 0.0179965 0.00706128
0.271982 0.0176032 0.00720707
0.272089 0.0176996 0.00710717
0.272218 0.0182898 0.00701597
0.278242 0.0180232 0.00696887
0.271862 0.0170926 0.00730001
0.272017 0.0178352 0.00708482
0.265977 0.0176143 0.00705204
0.271939 0.0174474 0.00714449
0.271693 0.0165556 0.00799241
0.277643 0.0162075 0.00796712
0.27234 0.0183813 0.00700346
0.272122 0.0183182 0.00700996
0.272509 0.0183449 0.00701189
0.272253 0.0179949 0.00706311
0.27194 0.017409 0.00723684
0.272079 0.0181252 0.00703977
0.272129 0.0178934 0.00707719
0.272221 0.0180637 0.00712867
0.272196 0.0181924 0.00703101
0.27192 0.0173503 0.00715842
0.27799 0.0174238 0.00725094
0.404182 0.0211142 0.0056569
0.266015 0.0178083 0.0070226
0.272308 0.0187083 0.00695129
0.265996 0.0177113 0.00703732
0.265957 0.0175207 0.00708133
0.271974 0.0172096 0.00723056
0.271845 0.0170304 0.00738089
0.272174 0.0180942 0.00704617
0.278261 0.0181179 0.00694118
0.27207 0.0176027 0.00712218
0.272274 0.0180915 0.00704818
0.271997 0.0177383 0.00709984
0.272155 0.0182722 0.00709221
0.278208 0.0182816 0.00694112
0.271901 0.0172532 0.00717265
0.271989 0.0169136 0.00757526
0.277852 0.0170505 0.0073558
0.278006 0.0177683 0.00706368
0.272296 0.0181879 0.0070333
0.278085 0.0181449 0.00695402

VERTICES 283 566
1 0
1 1
1 2
1 3
1 4
1 5
1 6
1 7
1 8
1 9
1 10
1 11
1 12
1 13
1 14
1 15
1 16
1 17
1 18
1 19
1 20
1 21
1 22
1 23
1 24
1 25
1 26
1 27
1 28
1 29
1 30
1 31
1 32
1 33
1 34
1 35
1 36
1 37
1 38
1 39
1 40
1 41
1 42
1 43
1 44
1 45
1 46
1 47
1 48
1 49
1 50
1 51
1 52
1 53
1 54
1 55
1 56
1 57
1 58
1 59
1 60
1 61
1 62
1 63
1 64
1 65
1 66
1 67
1 68
1 69
1 70
1 71
1 72
1 73
1 74
1 75
1 76
1 77
1 78
1 79
1 80
1 81
1 82
1 83
1 84
1 85
1 86
1 87
1 88
1 89
1 90
1 91
1 92
1 93
1 94
1 95
1 96
1 97
1 98
1 99
1 100
1 101
1 102
1 103
1 104
1 105
1 106
1 107
1 108
1 109
1 110
1 111
1 112
1 113
1 114
1 115
1 116
1 117
1 118
1 119
1 120
1 121
1 122
1 123
1 124
1 125
1 126
1 127
1 128
1 129
1 130
1 131
1 132
1 133
1 134
1 135
1 136
1 137
1 138
1 139
1 140
1 141
1 142
1 143
1 144
1 145
1 146
1 147
1 148
1 149
1 150
1 151
1 152
1 153
1 154
1 155
1 156
1 157
1 158
1 159
1 160
1 161
1 162
1 163
1 164
1 165
1 166
1 167
1 168
1 169
1 170
1 171
1 172
1 173
1 174
1 175
1 176
1 177
1 178
1 179
1 180
1 181
1 182
1 183
1 184
1 185
1 186
1 187
1 188
1 189
1 190
1 191
1 192
1 193
1 194
1 195
1 196
1 197
1 198
1 199
1 200
1 201
1 202
1 203
1 204
1 205
1 206
1 207
1 208
1 209
1 210
1 211
1 212
1 213
1 214
1 215
1 216
1 217
1 218
1 219
1 220
1 221
1 222
1 223
1 224
1 225
1 226
1 227
1 228
1 229
1 230
1 231
1 232
1 233
1 234
1 235
1 236
1 237
1 238
1 239
1 240
1 241
1 242
1 243
1 244
1 245
1 246
1 247
1 248
1 249
1 250
1 251
1 252
1 253
1 254
1 255
1 256
1 257
1 258
1 259
1 260
1 261
1 262
1 263
1 264
1 265
1 266
1 267
1 268
1 269
1 270
1 271
1 272
1 273
1 274
1 275
1 276
1 277
1 278
1 279
1 280
1 281
1 282

POINT_DATA 283
SCALARS id int 1
LOOKUP_TABLE default
1
2
3
4
5
6
7
8
9
10
11
12
13
14
15
16
18
19
20
21
22
24
25
26
27
29
30
31
32
33
34
35
36
37
38
40
41
42
43
44
45
46
47
48
49
50
52
55
56
57
58
59
60
61
62
63
64
65
66
67
68
69
70
71
72
73
74
75
76
77
78
79
80
81
82
83
84
85
86
87
88
89
90
91
92
93
94
95
96
98
99
100
101
102
103
104
105
106
107
108
109
110
111
112
113
114
115
116
117
118
119
120
121
122
123
124
125
126
127
128
129
130
131
132
133
134
135
136
137
138
139
140
141
142
144
145
146
147
148
149
150
152
153
154
155
156
157
158
159
160
161
162
164
165
166
167
168
169
170
171
172
173
174
175
176
177
178
179
180
181
182
183
184
185
186
187
188
189
190
191
192
193
194
195
196
197
198
199
200
201
202
203
204
205
206
207
208
209
210
211
213
214
215
217
218
219
220
221
222
223
224
225
226
227
228
229
230
231
232
233
234
235
236
237
238
239
241
242
243
244
245
246
247
248
249
250
251
252
253
254
255
256
257
258
259
260
261
262
263
264
265
267
268
269
270
271
272
273
274
275
276
277
278
279
280
281
282
283
284
285
286
287
288
289
290
292
293
294
295
296
297
298
300

SCALARS type int 1
LOOKUP_TABLE default
1
1
1
1
1
1
1
1
1
1
1
1
1
1
1
1
1
1
1
1
1
1
1
1
1
1
1
1
1
1
1
1
1
1
1
1
1
1
1
1
1
1
1
1
1
1
1
1
1
1
1
1
1
1
1
1
1
1
1
1
1
1
1
1
1
1
1
1
1
1
1
1
1
1
1
1
1
1
1
1
1
1
1
1
1
1
1
1
1
1
1
1
1
1
1
1
1
1
1
1
1
1
1
1
1
1
1
1
1
1
1
1
1
1
1
1
1
1
1
1
1
1
1
1
1
1
1
1
1
1
1
1
1
1
1
1
1
1
1
1
1
1
1
1
1
1
1
1
1
1
1
1
1
1
1
1
1
1
1
1
1
1
1
1
1
1
1
1
1
1
1
1
1
1
1
1
1
1
1
1
1
1
1
1
1
1
1
1
1
1
1
1
1
1
1
1
1
1
1
1
1
1
1
1
1
1
1
1
1
1
1
1
1
1
1
1
1
1
1
1
1
1
1
1
1
1
1
1
1
1
1
1
1
1
1
1
1
1
1
1
1
1
1
1
1
1
1
1
1
1
1
1
1
1
1
1
1
1
1
1
1
1
1
1
1
1
1
1
1
1
1
1
1
1
1
1
1
1
1
1
1
1
1

SCALARS radius float 1
LOOKUP_TABLE default
5e-05
5e-05
5e-05
5e-05
5e-05
5e-05
5e-05
5e-05
5e-05
5e-05
5e-05
5e-05
5e-05
5e-05
5e-05
5e-05
5e-05
5e-05
5e-05
5e-05
5e-05
5e-05
5e-05
5e-05
5e-05
5e-05
5e-05
5e-05
5e-05
5e-05
5e-05
5e-05
5e-05
5e-05
5e-05
5e-05
5e-05
5e-05
5e-05
5e-05
5e-05
5e-05
5e-05
5e-05
5e-05
5e-05
5e-05
5e-05
5e-05
5e-05
5e-05
5e-05
5e-05
5e-05
5e-05
5e-05
5e-05
5e-05
5e-05
5e-05
5e-05
5e-05
5e-05
5e-05
5e-05
5e-05
5e-05
5e-05
5e-05
5e-05
5e-05
5e-05
5e-05
5e-05
5e-05
5e-05
5e-05
5e-05
5e-05
5e-05
5e-05
5e-05
5e-05
5e-05
5e-05
5e-05
5e-05
5e-05
5e-05
5e-05
5e-05
5e-05
5e-05
5e-05
5e-05
5e-05
5e-05
5e-05
5e-05
5e-05
5e-05
5e-05
5e-05
5e-05
5e-05
5e-05
5e-05
5e-05
5e-05
5e-05
5e-05
5e-05
5e-05
5e-05
5e-05
5e-05
5e-05
5e-05
5e-05
5e-05
5e-05
5e-05
5e-05
5e-05
5e-05
5e-05
5e-05
5e-05
5e-05
5e-05
5e-05
5e-05
5e-05
5e-05
5e-05
5e-05
5e-05
5e-05
5e-05
5e-05
5e-05
5e-05
5e-05
5e-05
5e-05
5e-05
5e-05
5e-05
5e-05
5e-05
5e-05
5e-05
5e-05
5e-05
5e-05
5e-05
5e-05
5e-05
5e-05
5e-05
5e-05
5e-05
5e-05
5e-05
5e-05
5e-05
5e-05
5e-05
5e-05
5e-05
5e-05
5e-05
5e-05
5e-05
5e-05
5e-05
5e-05
5e-05
5e-05
5e-05
5e-05
5e-05
5e-05
5e-05
5e-05
5e-05
5e-05
5e-05
5e-05
5e-05
5e-05
5e-05
5e-05
5e-05
5e-05
5e-05
5e-05
5e-05
5e-05
5e-05
5e-05
5e-05
5e-05
5e-05
5e-05
5e-05
5e-05
5e-05
5e-05
5e-05
5e-05
5e-05
5e-05
5e-05
5e-05
5e-05
5e-05
5e-05
5e-05
5e-05
5e-05
5e-05
5e-05
5e-05
5e-05
5e-05
5e-05
5e-05
5e-05
5e-05
5e-05
5e-05
5e-05
5e-05
5e-05
5e-05
5e-05
5e-05
5e-05
5e-05
5e-05
5e-05
5e-05
5e-05
5e-05
5e-05
5e-05
5e-05
5e-05
5e-05
5e-05
5e-05
5e-05
5e-05
5e-05
5e-05
5e-05
5e-05
5e-05
5e-05
5e-05
5e-05
5e-05
5e-05
5e-05
5e-05
5e-05
5e-05
5e-05
5e-05
5e-05
5e-05
5e-05
5e-05
5e-05
5e-05
5e-05
5e-05
5e-05
5e-05
5e-05
5e-05
5e-05

SCALARS mass float 1
LOOKUP_TABLE default
1.46608e-10
1.46608e-10
1.46608e-10
1.46608e-10
1.46608e-10
1.46608e-10
1.46608e-10
1.46608e-10
1.46608e-10
1.46608e-10
1.46608e-10
1.46608e-10
1.46608e-10
1.46608e-10
1.46608e-10
1.46608e-10
1.46608e-10
1.46608e-10
1.46608e-10
1.46608e-10
1.46608e-10
1.46608e-10
1.46608e-10
1.46608e-10
1.46608e-10
1.46608e-10
1.46608e-10
1.46608e-10
1.46608e-10
1.46608e-10
1.46608e-10
1.46608e-10
1.46608e-10
1.46608e-10
1.46608e-10
1.46608e-10
1.46608e-10
1.46608e-10
1.46608e-10
1.46608e-10
1.46608e-10
1.46608e-10
1.46608e-10
1.46608e-10
1.46608e-10
1.46608e-10
1.46608e-10
1.46608e-10
1.46608e-10
1.46608e-10
1.46608e-10
1.46608e-10
1.46608e-10
1.46608e-10
1.46608e-10
1.46608e-10
1.46608e-10
1.46608e-10
1.46608e-10
1.46608e-10
1.46608e-10
1.46608e-10
1.46608e-10
1.46608e-10
1.46608e-10
1.46608e-10
1.46608e-10
1.46608e-10
1.46608e-10
1.46608e-10
1.46608e-10
1.46608e-10
1.46608e-10
1.46608e-10
1.46608e-10
1.46608e-10
1.46608e-10
1.46608e-10
1.46608e-10
1.46608e-10
1.46608e-10
1.46608e-10
1.46608e-10
1.46608e-10
1.46608e-10
1.46608e-10
1.46608e-10
1.46608e-10
1.46608e-10
1.46608e-10
1.46608e-10
1.46608e-10
1.46608e-10
1.46608e-10
1.46608e-10
1.46608e-10
1.46608e-10
1.46608e-10
1.46608e-10
1.46608e-10
1.46608e-10
1.46608e-10
1.46608e-10
1.46608e-10
1.46608e-10
1.46608e-10
1.46608e-10
1.46608e-10
1.46608e-10
1.46608e-10
1.46608e-10
1.46608e-10
1.46608e-10
1.46608e-10
1.46608e-10
1.46608e-10
1.46608e-10
1.46608e-10
1.46608e-10
1.46608e-10
1.46608e-10
1.46608e-10
1.46608e-10
1.46608e-10
1.46608e-10
1.46608e-10
1.46608e-10
1.46608e-10
1.46608e-10
1.46608e-10
1.46608e-10
1.46608e-10
1.46608e-10
1.46608e-10
1.46608e-10
1.46608e-10
1.46608e-10
1.46608e-10
1.46608e-10
1.46608e-10
1.46608e-10
1.46608e-10
1.46608e-10
1.46608e-10
1.46608e-10
1.46608e-10
1.46608e-10
1.46608e-10
1.46608e-10
1.46608e-10
1.46608e-10
1.46608e-10
1.46608e-10
1.46608e-10
1.46608e-10
1.46608e-10
1.46608e-10
1.46608e-10
1.46608e-10
1.46608e-10
1.46608e-10
1.46608e-10
1.46608e-10
1.46608e-10
1.46608e-10
1.46608e-10
1.46608e-10
1.46608e-10
1.46608e-10
1.46608e-10
1.46608e-10
1.46608e-10
1.46608e-10
1.46608e-10
1.46608e-10
1.46608e-10
1.46608e-10
1.46608e-10
1.46608e-10
1.46608e-10
1.46608e-10
1.46608e-10
1.46608e-10
1.46608e-10
1.46608e-10
1.46608e-10
1.46608e-10
1.46608e-10
1.46608e-10
1.46608e-10
1.46608e-10
1.46608e-10
1.46608e-10
1.46608e-10
1.46608e-10
1.46608e-10
1.46608e-10
1.46608e-10
1.46608e-10
1.46608e-10
1.46608e-10
1.46608e-10
1.46608e-10
1.46608e-10
1.46608e-10
1.46608e-10
1.46608e-10
1.46608e-10
1.46608e-10
1.46608e-10
1.46608e-10
1.46608e-10
1.46608e-10
1.46608e-10
1.46608e-10
1.46608e-10
1.46608e-10
1.46608e-10
1.46608e-10
1.46608e-10
1.46608e-10
1.46608e-10
1.46608e-10
1.46608e-10
1.46608e-10
1.46608e-10
1.46608e-10
1.46608e-10
1.46608e-10
1.46608e-10
1.46608e-10
1.46608e-10
1.46608e-10
1.46608e-10
1.46608e-10
1.46608e-10
1.46608e-10
1.46608e-10
1.46608e-10
1.46608e-10
1.46608e-10
1.46608e-10
1.46608e-10
1.46608e-10
1.46608e-10
1.46608e-10
1.46608e-10
1.46608e-10
1.46608e-10
1.46608e-10
1.46608e-10
1.46608e-10
1.46608e-10
1.46608e-10
1.46608e-10
1.46608e-10
1.46608e-10
1.46608e-10
1.46608e-10
1.46608e-10
1.46608e-10
1.46608e-10
1.46608e-10
1.46608e-10
1.46608e-10
1.46608e-10
1.46608e-10
1.46608e-10
1.46608e-10
1.46608e-10
1.46608e-10
1.46608e-10
1.46608e-10
1.46608e-10
1.46608e-10
1.46608e-10
1.46608e-10
1.46608e-10
1.46608e-10
1.46608e-10
1.46608e-10
1.46608e-10
1.46608e-10

VECTORS velocity float
0.00464895 -1.0171e-05 -4.74176e-05
0.00437736 -4.53618e-05 -0.000464182
0.00445627 -4.66756e-05 -0.000478744
0.00445465 -5.51568e-05 -0.000476109
0.00474436 2.39314e-05 3.55265e-05
0.00461203 0.000221212 0.000416165
0.0047921 5.62561e-05 5.01664e-07
0.00473464 2.40581e-05 3.53767e-05
0.00446714 7.83802e-06 -0.000107154
0.0048945 4.43837e-05 0.000284846
0.00449559 3.4347e-05 -6.85761e-05
0.00440892 6.13483e-05 3.42839e-05
0.00447873 1.22471e-05 -0.000229363
0.00440215 0.000546137 0.000325695
0.00447016 -6.16472e-05 -0.000473958
0.00452277 0.000562069 0.000333882
0.00462923 -1.12853e-05 0.000203834
0.00445755 -5.60795e-05 -0.000477781
0.00445044 0.000118241 -3.99206e-05
0.00475206 2.26965e-05 3.70994e-05
0.00443143 0.000128566 0.000282104
0.00442591 0.000218925 0.000391514
0.00448916 0.000102175 -3.40503e-05
0.00435212 0.000157577 0.000450259
0.00445694 0.00056008 0.000320505
0.00443248 -0.000104998 -0.000701362
0.00467227 0.00036048 0.000294234
0.004435 0.000134526 0.000263031
0.00449439 8.40264e-05 -2.31869e-05
0.0044506 0.000200544 0.000388058
0.00444413 -5.76202e-05 -0.000477229
0.00462296 -5.19205e-05 -0.000331169
0.00449712 2.05638e-05 -0.00014238
0.00478379 -9.03747e-06 -5.8608e-05
0.00446285 -4.49923e-05 -0.000415124
0.00477154 2.81218e-05 3.14057e-05
0.00449396 0.000138168 -4.97639e-05
0.00448626 0.00011662 -3.79437e-05
0.00445759 -3.84448e-05 -0.000373933
0.00446599 -1.62621e-05 -0.000430668
0.00447997 0.000193963 0.000427607
0.00436196 0.000193615 0.000424498
0.00475989 2.81062e-05 3.14312e-05
0.00444446 0.000123977 -4.15283e-05
0.00443035 0.000131391 0.000485739
0.00446348 -6.46074e-05 -0.000474509
0.00490272 0.000192889 4.71873e-05
0.00432803 0.000345044 1.34364e-05
0.00440691 9.14045e-05 -0.000508749
0.0044956 0.000145359 0.000486073
0.00452352 0.000558981 0.000336901
0.00442122 0.000168764 0.000281952
0.00445632 -6.65252e-05 -0.000470478
0.00475224 2.42755e-05 3.53768e-05
0.00454383 6.62061e-05 -4.18024e-05
0.00445379 -6.58196e-05 -0.000471242
0.00442492 0.000213771 0.000415746
0.00470027 2.80402e-06 -7.11703e-05
0.00471749 9.94064e-05 5.90803e-05
0.00486995 1.10509e-05 8.03455e-05
0.0045382 0.000600102 0.000284966
0.00444895 0.000118542 -3.43276e-05
0.00449585 6.66201e-05 0.000203067
0.00456358 0.000557898 0.000350046
0.00442344 3.75606e-06 -0.000113321
0.00477245 2.7017e-05 3.22685e-05
0.00451015 9.77749e-05 -2.40161e-05
0.00434448 0.000233789 -0.000174446
0.00446282 3.09167e-05 0.00020043
0.00486933 3.08138e-05 0.000282983
0.00443906 0.000549713 0.000340714
0.00448462 0.000561839 0.000324669
0.00447314 5.16805e-05 -0.000261037
0.00483746 0.000142774 5.47107e-05
0.00455468 0.00052408 0.000395109
0.00443662 0.000544799 0.000333012
0.00447258 1.95052e-05 -0.000112567
0.00454656 0.000557873 0.000344491
0.00445756 -5.79496e-05 -0.00044195
0.0044736 1.33246e-05 -0.000109099
0.00452949 8.35201e-05 -2.28112e-05
0.00447293 -5.68887e-05 -0.000499651
0.00450128 8.46515e-05 -1.98104e-05
0.00466244 1.15536e-05 -7.30392e-05
0.0044352 0.000119953 -4.06255e-05
0.00447705 0.000113633 -3.37197e-05
0.00437546 0.000150161 -4.88617e-05
0.00445436 -6.55495e-05 -0.000471435
0.00449559 0.00011925 -3.90986e-05
0.00443783 0.000136171 -5.4028e-05
0.00454535 0.000533928 0.000368867
0.00445817 -6.84641e-05 -0.000471082
0.00433486 0.000267425 2.60508e-05
0.00445641 -6.4477e-05 -0.000472043
0.00445531 0.00010531 -3.39313e-05
0.00449761 0.000522619 0.000381103
0.00445658 0.000312328 1.96022e-05
0.00461952 1.38911e-05 -7.76819e-05
0.00441444 0.00054563 0.000329989
0.00445888 -6.28857e-05 -0.00047739
0.00445517 -6.50801e-05 -0.000472411
0.00487624 2.90949e-05 0.000282873
0.00480208 2.57515e-05 3.55564e-05
0.00450708 0.000562121 0.000329247
0.00489268 4.23779e-05 0.000285177
0.0045302 0.000551658 0.000348331
0.00446098 -4.64328e-05 -0.000477204
0.00443206 -5.20158e-05 -0.000470437
0.00453982 -1.9656e-06 -0.000101202
0.00481205 0.000115672 5.78268e-05
0.00466906 0.000349547 0.000304712
0.004479 0.000118566 -3.89253e-05
0.00450784 0.000106101 -3.47946e-05
0.00439164 0.000117036 -3.63394e-05
0.00493846 0.000211228 3.09587e-05
0.00440454 0.000165767 -0.0005375
0.00446538 -4.22271e-05 -0.000479603
0.00453866 1.68474e-05 -7.79517e-05
0.00443536 0.000556933 0.000311368
0.00487519 4.54166e-05 0.000284128
0.0044368 0.000555086 0.000319838
0.00480107 2.31947e-05 3.47733e-05
0.00490359 0.000188108 4.83207e-05
0.00441806 0.000118852 -5.12177e-05
0.00443365 0.000127134 -4.17407e-05
0.0044739 5.99454e-05 -0.000206132
0.0045087 9.33698e-05 -1.41409e-05
0.00486981 0.000231229 4.03165e-05
0.00443372 5.30819e-05 -0.000131237
0.00436653 0.000148038 -4.87244e-05
0.00451839 9.17397e-05 -1.83395e-05
0.00487911 4.84848e-05 0.000284495
0.00459683 0.000177628 4.3584e-05
0.00476655 2.98011e-05 3.05184e-05
0.00446793 0.00011614 -3.69565e-05
0.00446516 0.000111241 -3.69147e-05
0.00450187 9.37546e-05 -2.99566e-05
0.00442073 0.000546112 0.000331417
0.00445006 -7.19415e-05 -0.000469524
0.00446754 0.000119969 -3.76238e-05
0.00464008 1.46598e-05 -7.52121e-05
0.00452122 0.000541906 0.000362532
0.00489732 4.61184e-05 0.000285609
0.00450084 0.000566993 0.000320624
0.00453139 0.000563085 0.000333734
0.00489601 0.000206075 4.33189e-05
0.00445304 -6.44934e-05 -0.00047338
0.00471743 0.000194603 4.45378e-05
0.00445179 0.000117781 -3.93377e-05
0.004408 0.000324288 2.06258e-05
0.0044152 0.00010435 -0.00011284
0.00470625 9.46217e-05 5.86334e-05
0.00442501 0.000115605 -3.28521e-05
0.00488497 0.000218598 4.32121e-05
0.0044978 9.90889e-05 -1.8592e-05
0.00456164 0.000556212 0.000350983
0.00448132 -5.06954e-05 -0.000478762
0.00478099 0.000179488 -7.17401e-06
0.00453517 0.000550236 0.000358268
0.00446501 -6.60674e-05 -0.000468891
0.00484224 0.000251689 3.5305e-05
0.00445727 -6.58395e-05 -0.000472375
0.00449127 0.00032141 2.17548e-05
0.00447788 0.000335061 3.33929e-05
0.0045129 0.000565081 0.000326137
0.00488686 0.000203954 4.50936e-05
0.00447802 0.000281413 -0.000306303
0.0045597 0.00052935 0.000389566
0.00487625 4.27065e-05 0.000284058
0.0048926 0.000207629 4.50453e-05
0.00439468 -6.79324e-05 -0.000406263
0.00485409 0.0002468 3.71467e-05
0.00445344 -6.5105e-05 -0.000471674
0.00452021 0.000556048 0.000329718
0.00446685 0.00045563 0.000211753
0.00450715 1.20366e-05 -0.000191142
0.00462776 -8.0596e-06 -5.03367e-05
0.00466793 -6.65771e-06 -3.78716e-05
0.00453547 0.000554187 0.000348212
0.0044312 5.60646e-05 -0.000268512
0.00450626 0.000322378 2.28265e-05
0.00446486 -6.7094e-05 -0.000477505
0.00479133 2.67419e-05 3.31772e-05
0.00474007 0.000285552 2.87805e-05
0.00455293 0.000539638 0.000367566
0.00458276 7.90528e-06 -8.58157e-05
0.00489763 0.00020594 4.53898e-05
0.00480868 0.000177579 -1.0121e-06
0.00446853 0.000557963 0.000319151
0.00450369 0.000332821 5.08125e-05
0.00471622 0.000340641 8.84006e-05
0.00449917 7.94649e-05 -2.44033e-05
0.00458308 0.000325081 2.2839e-05
0.00457631 0.000542895 0.000370104
0.00449901 0.000322993 1.71827e-05
0.0045435 0.00059095 0.000297877
0.00495627 0.000451706 8.64609e-06
0.00448142 0.000565298 0.000317875
0.0044571 -6.68629e-05 -0.000471233
0.00459924 -8.7989e-06 -5.34871e-05
0.00480376 -6.54563e-05 0.000213885
0.00451829 9.31436e-05 -2.53004e-05
0.00455559 0.00055864 0.000345316
0.004492 5.98439e-05 -0.000110857
0.00474745 -9.65461e-06 -6.84702e-05
0.0047678 3.30583e-05 2.94163e-05
0.00488059 5.04453e-05 0.00028453
0.00453351 0.000557914 0.000343121
0.00445878 -5.88668e-05 -0.000477184
0.00454138 0.000563355 0.00033643
0.00441154 0.000551978 0.000315384
0.0048056 -5.61005e-05 0.000212192
0.00450954 0.000332762 2.76041e-05
0.0043572 0.000343015 1.33789e-05
0.00443942 0.000565729 0.000325845
0.0043627 0.000251325 3.01183e-05
0.00472143 0.000240067 -1.6785e-06
0.00455597 0.000548826 0.000360022
0.00454958 0.000542291 0.000366675
0.00439482 0.000138699 -3.67457e-05
0.00446272 -6.53067e-05 -0.000474466
0.00452192 0.000305171 -0.000318034
0.00446313 0.00055153 0.00033545
0.00453287 0.000348585 3.43234e-05
0.00446019 0.000560119 0.000327333
0.00445191 0.000277543 -6.92476e-05
0.0044809 0.000549578 0.00034848
0.00446449 0.000531478 0.0003014
0.00443569 0.000280397 -7.13448e-05
0.00446802 0.000274538 -6.71409e-05
0.00453723 0.000547198 0.000358521
0.00453313 0.000266394 -6.1092e-05
0.004469 9.23304e-05 -2.8034e-05
0.00443612 -5.91749e-05 -0.000560863
0.00456229 0.000544572 0.000364416
0.0047771 2.76443e-05 3.16805e-05
6.80352e-15 2.29894e-14 -7.03247e-14
0.00451429 0.000267323 -6.17189e-05
0.004871 0.000222813 4.22546e-05
0.00438557 0.00033545 1.65869e-05
0.00454295 0.000561759 0.000338534
0.00471158 0.000219037 3.74122e-05
0.00448737 0.000328762 3.53482e-05
0.00436196 0.000283679 2.58917e-05
0.00485353 0.000249215 3.84434e-05
0.00445603 -5.28348e-05 -0.000475694
0.00446272 0.000509927 0.000381165
0.00447529 0.000336126 1.75056e-05
0.00454535 0.000247716 -9.76769e-05
0.00450722 0.000333363 4.46556e-05
0.00454846 0.000551538 0.000355389
0.00471212 2.50075e-05 2.06772e-06
0.00486924 0.000182213 4.85366e-05
0.00485365 0.000241435 3.78763e-05
0.00481225 0.000116817 5.82783e-05
0.0046994 0.000260209 3.52773e-05
0.00452824 0.000309001 5.0227e-05
0.00482522 0.000258959 3.14856e-05
0.00449497 0.000189907 4.19346e-05
0.00477894 0.000309044 5.44278e-05
0.00483897 0.000257156 3.75882e-05
0.00450859 0.000337856 3.87892e-05
0.00412875 0.000230747 -0.000403515
-1.29302e-14 6.08865e-14 -1.90219e-13
0.00451493 0.00025732 -0.000102996
0.00489523 0.000244715 3.90397e-05
0.0045299 0.000248877 -0.000101446
0.00455055 0.00026271 -6.16198e-05
0.00449939 0.000371615 0.000112571
0.00444422 0.000564249 0.000325489
0.00480916 0.000265259 3.57467e-05
0.00436643 0.000166418 -0.000526114
0.00445525 0.000261028 3.17378e-05
0.00479637 0.000252567 4.19923e-05
0.00444003 0.000329015 3.20682e-05
0.00482864 0.000182302 4.90257e-06
0.0048831 3.42038e-05 0.000283856
0.00454329 0.000309661 -0.000318632
0.00453923 0.00053226 0.000376458
0.00444355 0.000104594 -2.95956e-05
0.00445567 -6.28509e-05 -0.00047506
0.00483453 0.000246856 3.68092e-05
0.00444748 -5.75654e-05 -0.000420987

VECTORS force float
-1.80901e-10 5.6676e-13 -2.57405e-11
7.08643e-11 -7.37653e-11 -1.39201e-10
-1.99546e-11 3.61352e-11 3.36448e-12
-1.6469e-11 -3.06838e-11 7.2239e-12
-1.20406e-10 -2.51843e-11 2.78651e-11
-5.76968e-10 4.55033e-10 -7.21397e-10
-1.48287e-10 1.12121e-10 -1.41812e-10
-2.21574e-11 -7.81159e-11 9.05297e-11
-2.23881e-10 1.34206e-10 -2.03063e-10
1.35544e-11 -5.20575e-11 6.67908e-12
2.13356e-10 8.78971e-11 -1.61363e-11
9.44372e-11 2.73716e-10 -1.20091e-10
3.06793e-11 -1.36295e-11 7.8868e-11
3.85955e-11 1.03e-10 -1.43048e-10
3.69382e-11 -2.14609e-11 5.01716e-11
-5.4299e-14 -4.90939e-11 4.80904e-11
-5.65138e-11 8.2466e-13 8.92946e-11
4.34612e-11 1.49571e-10 -4.80749e-11
-9.49393e-12 -1.52007e-11 -9.67991e-12
1.0491e-10 7.32704e-13 -1.90006e-12
-3.12585e-11 -5.21439e-11 9.78006e-12
-4.54917e-11 2.20476e-10 -3.48373e-11
-8.69726e-12 2.96413e-12 -8.89111e-12
-3.25452e-10 -1.67404e-10 -1.37925e-11
-3.96844e-11 4.65895e-11 -8.54459e-11
7.46271e-11 1.01914e-10 -1.18521e-10
2.93371e-10 -3.83037e-10 4.23746e-10
3.31952e-11 1.25187e-11 7.83059e-12
2.99925e-11 -4.43548e-11 3.0512e-11
3.30781e-10 -1.69975e-09 1.20697e-09
-4.13756e-11 -1.74424e-11 -2.79162e-11
4.86021e-11 -3.89945e-11 5.36974e-11
-2.19471e-10 8.58158e-11 -2.13033e-10
-2.18234e-10 1.23931e-10 -7.69817e-11
1.72095e-11 -2.13002e-11 7.67488e-11
7.04623e-11 2.30921e-11 -1.30731e-11
2.76192e-11 1.04539e-11 -1.61849e-11
-1.5578e-10 1.81744e-11 -6.34001e-12
3.98773e-11 6.42541e-12 -3.44258e-11
1.98359e-11 4.01689e-11 -6.14357e-11
2.79565e-10 -1.5466e-10 -4.35631e-10
2.62863e-11 -2.05951e-10 1.01232e-10
-2.32516e-11 -3.29272e-11 3.52385e-11
1.89413e-10 -1.00034e-10 4.80739e-11
2.90491e-10 1.22113e-10 -1.78514e-10
-2.82141e-11 1.08012e-11 9.18813e-13
7.14061e-11 3.3993e-10 -5.57908e-11
4.65283e-10 -2.5432e-10 5.9954e-11
7.64758e-11 -1.15977e-10 5.01268e-12
-1.81569e-10 5.91468e-10 -6.58779e-10
1.54107e-10 -5.60124e-12 5.32331e-11
1.11171e-10 3.24627e-10 -9.30266e-11
-6.32372e-11 -5.11347e-11 2.46454e-11
6.62274e-11 -2.45469e-11 2.35282e-11
-2.83306e-11 2.33509e-11 -8.49099e-11
1.50015e-11 3.49669e-12 -5.03999e-12
-1.15342e-10 -1.14763e-10 -1.41592e-10
-6.50001e-11 3.10547e-11 -1.56554e-10
-2.33388e-10 1.71933e-11 -1.54084e-11
8.84551e-11 -6.70323e-12 1.86077e-10
-8.73754e-11 -6.60699e-11 7.22581e-11
9.82062e-12 -1.16819e-10 6.33238e-11
3.16198e-11 7.60574e-11 -5.25632e-11
2.72994e-11 1.5448e-10 -1.59319e-10
-5.51625e-12 2.64018e-10 -8.26748e-12
4.95481e-12 -8.85576e-12 8.59401e-12
-4.3292e-11 -4.52403e-12 -4.48889e-11
-1.09384e-10 1.78272e-11 2.30488e-10
-1.01018e-10 3.5797e-11 4.02492e-12
6.50351e-12 3.50428e-11 -1.14153e-12
1.12666e-10 4.62581e-12 8.57527e-11
-1.4879e-11 7.76014e-11 -1.13048e-10
-6.20995e-11 1.52704e-10 2.79813e-10
4.60816e-11 -2.04929e-11 3.58781e-12
9.5729e-11 -1.97078e-11 4.57757e-11
5.04652e-11 1.57891e-11 7.58898e-11
2.66235e-11 6.50294e-11 1.16401e-10
-4.60309e-11 -4.86417e-11 6.25364e-11
-1.9895e-11 -5.48352e-12 -5.2047e-11
2.82594e-10 7.51446e-11 4.22708e-11
-1.02525e-11 5.27589e-11 3.28242e-11
-1.18785e-10 1.32016e-10 1.31527e-10
5.04255e-11 2.07216e-10 2.43649e-11
2.25674e-12 8.2933e-11 -9.21795e-11
-4.88794e-11 1.15862e-10 -2.29624e-11
1.2041e-10 1.31888e-10 -3.37984e-12
-2.03041e-11 -1.57771e-10 5.43016e-11
-3.5181e-11 -2.68601e-12 1.08424e-10
1.61776e-10 -2.77168e-11 -6.21248e-12
-1.63105e-10 -5.49273e-11 8.16955e-12
1.05053e-10 4.74456e-11 -4.02277e-11
-6.35048e-12 -3.63666e-11 -7.77207e-12
4.00492e-10 -3.65266e-10 7.92363e-11
-1.41123e-12 -8.74919e-12 -1.26451e-11
3.30777e-11 1.44622e-10 -6.50895e-11
9.96787e-11 5.0689e-11 -2.93043e-11
-3.67468e-10 5.47736e-11 1.31421e-10
2.21747e-12 2.63898e-12 -3.57843e-11
1.36279e-11 7.81261e-11 -9.04332e-11
7.73027e-12 -4.46607e-11 2.32247e-11
-1.35189e-13 3.09613e-11 -1.30942e-11
9.46102e-12 -2.73791e-12 5.73299e-13
2.95888e-11 -1.59929e-11 -1.6677e-11
1.9651e-11 8.11633e-11 -1.02207e-10
-4.01182e-11 -4.05939e-11 -1.06269e-11
-6.42793e-11 4.92008e-11 -6.66628e-11
7.17079e-11 1.12558e-10 -9.81636e-11
8.2828e-11 6.72549e-12 -3.48402e-12
8.51749e-11 -8.3088e-11 -8.09661e-11
9.66901e-11 -1.08984e-10 2.88492e-12
7.79338e-11 2.65589e-10 -2.45222e-10
1.35639e-10 2.87533e-11 3.94214e-12
-1.46821e-10 2.0216e-10 -8.83261e-11
1.72672e-12 -9.41016e-11 -3.27408e-11
5.05908e-11 -1.03245e-10 -5.55296e-11
9.86853e-11 2.51097e-11 -3.13904e-11
4.53558e-11 -7.07631e-11 1.23472e-11
-9.08449e-11 8.33184e-12 -7.34762e-12
-8.71394e-11 -2.81536e-11 1.27955e-11
-6.08384e-11 -2.54749e-11 -5.17501e-12
-4.5649e-11 -2.49867e-12 -1.91572e-11
-6.14944e-11 -2.76575e-11 4.41875e-12
8.83114e-11 1.95114e-10 1.81487e-11
-5.10218e-11 -1.83331e-11 1.00769e-10
6.38838e-11 -1.14827e-10 5.13005e-11
-1.20497e-11 7.18859e-11 3.11734e-11
-9.00345e-11 -2.879e-11 -5.47335e-11
-6.1566e-11 -1.12017e-10 3.58873e-11
-5.85878e-11 -3.11228e-10 2.9114e-10
4.15943e-10 -2.58932e-10 1.19551e-10
-5.98324e-11 6.68364e-11 1.69055e-10
-7.21201e-12 1.71772e-11 4.84255e-13
7.5155e-11 -2.39669e-11 5.70557e-11
1.30893e-10 -3.11302e-11 3.5835e-11
1.04232e-11 6.62193e-11 -2.4147e-11
1.20138e-10 5.14153e-11 -1.37798e-11
3.56242e-11 5.7588e-11 1.59774e-10
5.06609e-11 1.01905e-11 -3.69979e-11
1.71209e-11 -1.63213e-10 3.75073e-11
-1.06144e-10 1.78301e-10 -1.44755e-11
1.29761e-10 3.99754e-11 -4.47291e-11
-1.02275e-10 -1.36913e-11 -2.32854e-11
8.8167e-11 -1.31691e-11 3.8142e-11
-1.38385e-11 2.13241e-13 -6.6325e-12
4.23989e-11 8.8138e-11 -1.14417e-10
2.56805e-11 -7.41169e-11 -7.72664e-11
-2.20193e-11 -6.14282e-12 -6.07674e-13
-9.59699e-11 1.68144e-10 5.53686e-11
-3.13924e-10 6.6882e-11 -4.08241e-11
-2.37087e-10 -9.59014e-11 1.93462e-11
1.18403e-10 1.0506e-10 5.153e-10
-2.88678e-10 8.74086e-11 -3.02873e-11
1.24878e-10 -1.24239e-12 2.6437e-11
-1.93016e-11 -7.06748e-11 -3.38607e-12
2.00173e-11 -4.54047e-11 4.38876e-11
-6.91683e-11 -2.58801e-11 1.51683e-11
-4.88795e-11 -3.31952e-11 2.48951e-11
-2.72967e-11 -4.82248e-11 4.99533e-11
-1.95737e-10 6.72681e-11 -6.70511e-11
-2.21467e-11 -6.87352e-11 1.37773e-10
-1.24899e-11 -7.4276e-11 -2.63288e-11
-7.19202e-11 5.63294e-11 -1.49749e-11
-3.17953e-10 2.45138e-11 9.30825e-11
8.4227e-11 -2.76781e-10 1.00044e-10
-1.68174e-11 -1.30616e-11 2.23773e-11
3.80963e-11 2.18165e-11 -2.55958e-11
-3.8822e-11 -5.45752e-11 1.27874e-10
-9.92588e-11 2.59052e-12 -5.91434e-11
6.38141e-12 2.3134e-11 -3.26637e-13
6.45539e-11 2.13801e-11 -3.46384e-11
1.21897e-10 -2.32301e-11 -2.23352e-11
-1.46909e-10 1.17678e-10 -2.37152e-11
1.37131e-11 -1.91667e-11 1.39618e-11
2.52907e-11 1.0705e-10 -5.15183e-11
1.71442e-10 -1.29666e-10 -1.77683e-10
5.64328e-11 1.50914e-11 -4.69295e-10
-5.07585e-11 -3.56224e-11 2.8085e-11
-1.91515e-10 2.53159e-11 -5.28533e-11
-1.40762e-12 -5.41507e-11 8.57573e-11
8.20346e-12 1.23112e-10 1.98871e-10
-4.3934e-11 -3.5365e-10 7.91291e-11
-1.73826e-11 -7.20288e-11 5.96253e-11
7.00409e-11 -2.779e-11 3.65013e-11
-1.45062e-11 -4.1608e-11 1.06279e-10
7.04095e-11 2.74602e-11 -1.66564e-11
-1.19422e-10 4.47623e-11 2.20955e-11
3.64435e-11 1.05043e-10 -2.29002e-11
-4.17553e-11 -5.71826e-11 -3.70025e-11
-2.36546e-11 -3.73925e-11 3.10366e-11
-2.47915e-10 -1.93345e-10 -4.04052e-12
-2.36323e-10 3.36798e-10 3.10941e-10
1.90663e-11 -4.47309e-11 1.54003e-11
3.2633e-11 -7.81931e-11 3.74234e-11
-1.39664e-11 -2.96661e-11 3.3384e-11
2.27871e-10 -2.48268e-10 -2.17095e-12
5.96659e-11 -9.41032e-11 1.49411e-10
3.72129e-11 -2.1352e-11 -2.25649e-11
-1.53301e-11 -1.611e-11 8.72148e-12
-4.20049e-11 -7.34623e-11 3.30926e-11
-5.08521e-11 -4.66236e-11 6.33491e-11
-3.18605e-11 -2.18566e-10 -3.32e-12
-6.92218e-11 -8.74633e-11 -1.58339e-11
9.78595e-11 -3.9229e-12 3.48989e-11
-1.24233e-10 -1.58192e-10 2.01584e-10
-8.34769e-11 1.64044e-11 -1.18801e-10
1.01713e-10 2.73129e-12 6.08021e-13
-4.12997e-11 5.92014e-12 -1.78991e-12
-9.99632e-12 -4.89527e-11 6.63886e-11
-9.97137e-11 -5.29417e-11 3.41912e-11
-4.29403e-11 7.1656e-11 -1.16821e-10
-9.5192e-11 -5.03024e-11 1.82412e-11
-1.23516e-10 -1.26239e-10 -5.4135e-11
8.93749e-11 -9.58135e-11 5.7737e-11
5.53592e-10 -6.47477e-10 6.5666e-11
2.0473e-10 1.62527e-10 -1.3441e-10
7.48273e-10 1.6528e-10 -2.59016e-11
9.72048e-11 -2.59542e-10 1.76348e-10
-1.44971e-10 -1.0242e-11 4.53038e-11
-7.01699e-11 2.46249e-12 -1.48577e-11
6.29182e-11 -1.39681e-10 -4.76567e-11
-5.11207e-11 7.07592e-11 2.16829e-11
2.95162e-11 1.48914e-10 -9.08349e-11
2.3174e-10 2.03348e-10 -1.89809e-10
-3.82873e-11 9.30858e-11 1.03736e-10
2.14198e-10 1.60442e-10 -1.70936e-10
-2.84077e-13 -1.30695e-12 4.44197e-12
8.38365e-11 1.72947e-10 -1.813e-10
2.30684e-10 4.37711e-12 -2.46122e-10
4.73235e-12 -2.55761e-12 7.31765e-13
-1.2682e-11 5.24379e-12 -3.61315e-12
-2.93755e-11 8.32802e-11 -1.38484e-10
-9.06606e-12 1.8951e-11 -1.57132e-11
-3.31865e-11 9.49947e-12 9.89113e-12
5.04695e-11 4.46967e-11 -5.15563e-11
-1.46774e-10 -2.08508e-11 2.64624e-11
6.16915e-13 -2.26052e-11 3.19016e-11
-3.38369e-23 4.03251e-24 -1.44757e-24
6.47423e-12 1.79295e-11 -1.67868e-11
-9.34191e-14 -1.0592e-11 -1.14553e-11
-3.58714e-11 -2.1639e-10 1.26295e-10
-5.01838e-13 3.93461e-11 -5.0484e-11
-5.55807e-11 8.24958e-12 1.32274e-11
-1.06041e-10 -1.67731e-10 1.06169e-10
2.7337e-10 4.74296e-10 -6.18304e-11
-4.22149e-11 1.82672e-10 1.92043e-11
3.20015e-11 -2.68273e-11 -5.63051e-11
3.61847e-11 6.05502e-11 -1.43778e-10
-3.79129e-10 -1.99358e-10 7.04905e-11
5.37908e-11 -1.26049e-11 1.10428e-11
4.59101e-11 -5.29292e-11 1.57645e-10
-7.75137e-11 -8.36302e-11 7.10334e-11
-4.53945e-11 3.77752e-11 -2.95919e-11
5.69378e-11 -8.31922e-11 2.35131e-11
-4.49199e-11 -8.8462e-11 1.34722e-11
1.19341e-10 6.65664e-11 -1.22263e-11
-1.26785e-10 -9.3786e-11 2.56017e-11
-1.12849e-10 -2.43036e-10 2.51997e-10
-6.8948e-11 -1.336e-10 1.10668e-11
-6.83001e-11 2.06535e-10 -3.77603e-11
4.51974e-11 8.05324e-11 1.63305e-10
-5.69882e-11 -3.8986e-11 -2.16687e-11
-5.50437e-11 -1.13715e-11 1.69134e-11
-2.82503e-10 -9.55924e-11 3.76973e-10
1.37932e-22 1.03036e-22 2.08863e-23
-2.61244e-11 -1.53424e-11 4.16266e-12
1.22894e-10 6.87491e-11 -8.46571e-12
7.86005e-11 -1.01391e-11 2.44933e-12
-6.60726e-11 -1.45623e-11 -2.50817e-12
-1.96807e-10 -1.44882e-10 -4.40096e-11
1.30758e-10 2.28396e-10 -2.32387e-10
6.69409e-11 -1.0722e-10 7.61437e-11
5.73283e-11 -6.95494e-12 -4.37589e-12
4.77455e-10 7.18871e-11 7.48957e-11
1.50558e-10 1.35644e-11 7.36725e-11
-2.76288e-10 -3.35233e-10 1.97769e-10
-1.34331e-10 -6.22114e-11 -1.53346e-11
-2.17671e-11 -3.33115e-12 -3.27752e-12
-4.43129e-13 -1.04035e-10 9.48786e-11
-1.29123e-10 5.63942e-11 -1.09702e-10
5.89159e-13 -9.07808e-11 9.9964e-11
-2.01219e-11 8.84088e-11 -4.13057e-11
-1.65936e-10 1.17103e-10 3.13169e-11
9.68104e-12 -4.473e-12 -1.01461e-11
