# vtk DataFile Version 3.0
LIGGGHTS particles timestep 34200000
ASCII
DATASET POLYDATA
POINTS 283 float
0.169561 0.0166687 0.00798503
0.169786 0.0172313 0.00761099
0.17 0.018252 0.00716791
0.169985 0.0181613 0.00720713
0.16911 0.0152517 0.00928885
0.175649 0.0169325 0.00738591
0.169261 0.0155669 0.00867935
0.169089 0.0152066 0.00937607
0.175894 0.0180605 0.00706575
0.169871 0.0174211 0.00762083
0.169478 0.0162987 0.00809901
0.175866 0.0178707 0.00712003
0.169846 0.0163572 0.00798027
0.163186 0.0154485 0.00901285
0.169704 0.0161385 0.00807923
0.163572 0.0165805 0.00753725
0.176022 0.0186238 0.00690377
0.16986 0.0179319 0.00730991
0.169806 0.0166329 0.00786471
0.169132 0.0152967 0.0092019
0.169974 0.0184237 0.00709596
0.175809 0.0176868 0.00717242
0.169789 0.0165159 0.00791514
0.175747 0.0174044 0.00725235
0.163464 0.0162215 0.00800556
0.169974 0.0177791 0.00737013
0.17563 0.0168381 0.00741263
0.170079 0.0181938 0.00718936
0.169874 0.0165641 0.00789113
0.175669 0.0170269 0.00735919
0.169889 0.0178019 0.00741753
0.169863 0.0164529 0.00793884
0.175958 0.0183422 0.00698476
0.169238 0.0155216 0.00876709
0.169922 0.0167535 0.00780858
0.169296 0.0156083 0.00859511
0.169828 0.0167223 0.00782575
0.169303 0.0156558 0.00850742
0.169983 0.0180564 0.0072518
0.169852 0.017094 0.00766662
0.175688 0.0171213 0.00733248
0.175766 0.0174988 0.00722564
0.169174 0.0153867 0.00902788
0.169697 0.0164819 0.00793347
0.175727 0.01731 0.00727906
0.169999 0.0169986 0.00770109
0.16422 0.0179319 0.00718579
0.163964 0.0175882 0.0072712
0.1699 0.0173522 0.00755478
0.175708 0.0172157 0.00730577
0.163686 0.0167012 0.0074862
0.17583 0.0177808 0.00714582
0.169815 0.0177387 0.00739394
0.169153 0.0153416 0.00911504
0.169444 0.0161808 0.00811118
0.170087 0.0177205 0.00739038
0.175787 0.0175929 0.00719902
0.169325 0.0157006 0.00842071
0.164156 0.0176469 0.00725452
0.16978 0.0168038 0.00779309
0.163586 0.0166343 0.00762031
0.169675 0.0160355 0.0081108
0.176055 0.0183732 0.00697398
0.163744 0.0169875 0.00741725
0.175872 0.0179666 0.00709275
0.169196 0.0154318 0.00894071
0.169649 0.0170201 0.00770656
0.169222 0.0154756 0.00885443
0.176 0.0185299 0.00693077
0.170004 0.0173805 0.0075384
0.163251 0.0156268 0.00878056
0.163361 0.0159238 0.00839357
0.169815 0.0169844 0.00771479
0.164082 0.0180486 0.00725515
0.163744 0.016562 0.00756543
0.163273 0.0156862 0.00870317
0.175936 0.0182483 0.00701176
0.163665 0.016603 0.00750986
0.16996 0.0179638 0.00729215
0.175915 0.0181544 0.00703875
0.169578 0.0163602 0.00799021
0.169896 0.0169296 0.00773473
0.169732 0.0166957 0.00784105
0.169381 0.0158555 0.00817896
0.169622 0.0165433 0.00791052
0.169641 0.0166409 0.00786822
0.16966 0.016475 0.00802621
0.169877 0.0173028 0.00763841
0.169717 0.0165806 0.00789065
0.169746 0.0170516 0.0076891
0.163781 0.0167316 0.00747763
0.169774 0.0175592 0.00747205
0.163555 0.0165206 0.00761556
0.169994 0.0169068 0.00774036
0.169559 0.0162672 0.00802994
0.16365 0.0165421 0.00759122
0.163954 0.0178107 0.00730323
0.169423 0.0160846 0.00815381
0.163208 0.0155079 0.00893542
0.169951 0.0170802 0.00766837
0.169902 0.0181112 0.00723188
0.170077 0.0170544 0.00767408
0.169483 0.0163262 0.008003
0.163425 0.0161023 0.00816133
0.170043 0.017227 0.00760209
0.163678 0.0170467 0.00750245
0.169919 0.0178567 0.00733943
0.169794 0.0176489 0.00743302
0.16954 0.016172 0.00805394
0.164177 0.017742 0.00723159
0.17561 0.0167485 0.00745253
0.169654 0.0162985 0.0080133
0.169608 0.0159624 0.00812182
0.16967 0.0171127 0.00766628
0.164316 0.0179609 0.00717754
0.169929 0.017442 0.0075154
0.169634 0.0162054 0.00805374
0.169368 0.0157392 0.00833936
0.163316 0.015805 0.00854827
0.17003 0.017136 0.00764136
0.163446 0.0161617 0.00808365
0.169464 0.0162309 0.00802691
0.164178 0.0184648 0.00705956
0.169734 0.017388 0.00754651
0.169729 0.0162365 0.00803653
0.169747 0.0163292 0.00799633
0.16951 0.0165004 0.00802813
0.164207 0.0182896 0.00710086
0.169606 0.0168271 0.00779043
0.169699 0.0168586 0.00777316
0.169516 0.0163985 0.00806379
0.170026 0.017601 0.0074437
0.16368 0.0166713 0.00758145
0.169399 0.0159198 0.0081047
0.169672 0.0163911 0.00797313
0.169744 0.0166659 0.00793574
0.169623 0.0169073 0.00784776
0.163229 0.0155673 0.00885799
0.169405 0.0159891 0.00817832
0.169598 0.0164543 0.00795072
0.169363 0.0157943 0.00825608
0.16384 0.0170177 0.00740872
0.169995 0.0168147 0.00777945
0.163502 0.016342 0.00785044
0.163381 0.0159833 0.008316
0.164233 0.0183833 0.00707818
0.1699 0.0175889 0.00745414
0.164038 0.0175226 0.00728576
0.169608 0.0161039 0.00808235
0.163921 0.0173983 0.00731698
0.169594 0.0168031 0.00788684
0.164103 0.0178076 0.00721701
0.169713 0.017299 0.00760378
0.1641 0.0185261 0.00704609
0.16966 0.0166186 0.00796369
0.163594 0.0167296 0.00759108
0.169797 0.0168943 0.0077539
0.163988 0.0184841 0.00710471
0.163725 0.0168921 0.00744023
0.169894 0.0176809 0.00741526
0.164146 0.0179975 0.00717122
0.169829 0.0174175 0.00753001
0.1639 0.0173034 0.00733988
0.163923 0.0181928 0.0071279
0.163616 0.0164211 0.00774731
0.164262 0.0181238 0.00713953
0.163859 0.017113 0.00738575
0.163676 0.0167757 0.00755648
0.169957 0.0172753 0.00758516
0.164294 0.0178659 0.00720045
0.170023 0.0178919 0.0073201
0.164072 0.0180628 0.00715673
0.169856 0.0175064 0.00749106
0.163763 0.0170829 0.00739428
0.163846 0.0174632 0.0073026
0.175979 0.0184361 0.00695777
0.169569 0.0167065 0.00789279
0.169573 0.0165698 0.00799392
0.163611 0.0167663 0.0074743
0.169766 0.0171415 0.00765004
0.163859 0.0177816 0.00731199
0.169776 0.017392 0.0076371
0.169475 0.016097 0.00806578
0.164019 0.018223 0.00711934
0.1638 0.016827 0.00745464
0.169512 0.0159853 0.00810216
0.164251 0.0176762 0.00724619
0.164114 0.0182544 0.00711055
0.163338 0.0158647 0.00847103
0.16389 0.0176532 0.00725679
0.163966 0.0183865 0.00710868
0.169874 0.0168352 0.00777577
0.163965 0.0182486 0.00719973
0.163705 0.0167965 0.00746324
0.163879 0.0172083 0.0073628
0.163541 0.0164604 0.00769403
0.164168 0.0180924 0.00714832
0.163484 0.0162812 0.00792773
0.169993 0.0176885 0.00740785
0.169645 0.0167418 0.0078251
0.176062 0.0188122 0.00684967
0.169711 0.0170408 0.0077821
0.163635 0.0164811 0.00766907
0.169626 0.0169226 0.00774898
0.169523 0.0165155 0.00792643
0.169503 0.0164213 0.00796736
0.169974 0.0165943 0.00787409
0.163592 0.0166741 0.00750797
0.169901 0.0166587 0.00784974
0.163403 0.0160427 0.00823855
0.163295 0.0157458 0.00862593
0.176043 0.0187177 0.00687678
0.163986 0.0176831 0.0072483
0.164017 0.0174275 0.00730869
0.163783 0.0171781 0.00737133
0.16406 0.0176176 0.00726284
0.163944 0.0182889 0.00711065
0.163649 0.0169565 0.00742597
0.16382 0.0169223 0.00743168
0.169721 0.0169553 0.00773112
0.169873 0.0171853 0.00762693
0.163793 0.0176228 0.00726537
0.163728 0.0173377 0.00733414
0.163879 0.0180028 0.00717373
0.163804 0.0172732 0.00734842
0.157615 0.0168296 0.00755016
0.163707 0.0172427 0.00735706
0.163825 0.0173683 0.00732549
0.157595 0.0167415 0.00759319
0.157635 0.0169178 0.00750713
0.163688 0.0171473 0.00738003
0.157674 0.017094 0.00742108
0.169771 0.0164189 0.00795716
0.169805 0.017322 0.00757165
0.163668 0.0170519 0.007403
0.169419 0.0160149 0.00808092
0.215741 0.019982 0.00563384
0.157654 0.0170059 0.0074641
0.164188 0.0181892 0.00712502
0.163943 0.0174933 0.00729409
0.163521 0.0164019 0.00777266
0.163995 0.0179985 0.00725706
0.163901 0.0180981 0.00715162
0.163954 0.0179381 0.00718808
0.164054 0.0184167 0.00707276
0.169972 0.0175244 0.00747857
0.163771 0.0175278 0.00728829
0.163997 0.0181279 0.00714229
0.157713 0.0172701 0.00733505
0.163911 0.0177481 0.0072339
0.16363 0.0168611 0.00744895
0.169548 0.016607 0.00788674
0.164199 0.0178369 0.00720869
0.164132 0.0183554 0.00708626
0.164125 0.0179026 0.00719412
0.164029 0.017873 0.00720252
0.163858 0.0179076 0.00719669
0.164094 0.0181578 0.00713382
0.164008 0.017778 0.00722542
0.164039 0.0183195 0.00709609
0.164008 0.0183426 0.0071882
0.163836 0.0178127 0.00721959
0.169756 0.0174852 0.00753694
0.404182 0.0211142 0.0056569
0.157755 0.017446 0.00724926
0.164242 0.0180268 0.00716289
0.157734 0.0173581 0.00729216
0.157694 0.0171821 0.00737805
0.163868 0.0175582 0.0072797
0.16375 0.0174329 0.00731118
0.16405 0.0179679 0.00717962
0.170074 0.017812 0.00735198
0.163933 0.017843 0.007211
0.164134 0.0175516 0.00727751
0.163976 0.018033 0.00716518
0.164006 0.018558 0.00703983
0.170074 0.0173138 0.00756386
0.163815 0.0177177 0.00724248
0.163763 0.0166361 0.00750082
0.169691 0.0172038 0.00762665
0.169881 0.0180216 0.00727089
0.164082 0.0177126 0.00723992
0.169953 0.018334 0.00713498

VERTICES 283 566
1 0
1 1
1 2
1 3
1 4
1 5
1 6
1 7
1 8
1 9
1 10
1 11
1 12
1 13
1 14
1 15
1 16
1 17
1 18
1 19
1 20
1 21
1 22
1 23
1 24
1 25
1 26
1 27
1 28
1 29
1 30
1 31
1 32
1 33
1 34
1 35
1 36
1 37
1 38
1 39
1 40
1 41
1 42
1 43
1 44
1 45
1 46
1 47
1 48
1 49
1 50
1 51
1 52
1 53
1 54
1 55
1 56
1 57
1 58
1 59
1 60
1 61
1 62
1 63
1 64
1 65
1 66
1 67
1 68
1 69
1 70
1 71
1 72
1 73
1 74
1 75
1 76
1 77
1 78
1 79
1 80
1 81
1 82
1 83
1 84
1 85
1 86
1 87
1 88
1 89
1 90
1 91
1 92
1 93
1 94
1 95
1 96
1 97
1 98
1 99
1 100
1 101
1 102
1 103
1 104
1 105
1 106
1 107
1 108
1 109
1 110
1 111
1 112
1 113
1 114
1 115
1 116
1 117
1 118
1 119
1 120
1 121
1 122
1 123
1 124
1 125
1 126
1 127
1 128
1 129
1 130
1 131
1 132
1 133
1 134
1 135
1 136
1 137
1 138
1 139
1 140
1 141
1 142
1 143
1 144
1 145
1 146
1 147
1 148
1 149
1 150
1 151
1 152
1 153
1 154
1 155
1 156
1 157
1 158
1 159
1 160
1 161
1 162
1 163
1 164
1 165
1 166
1 167
1 168
1 169
1 170
1 171
1 172
1 173
1 174
1 175
1 176
1 177
1 178
1 179
1 180
1 181
1 182
1 183
1 184
1 185
1 186
1 187
1 188
1 189
1 190
1 191
1 192
1 193
1 194
1 195
1 196
1 197
1 198
1 199
1 200
1 201
1 202
1 203
1 204
1 205
1 206
1 207
1 208
1 209
1 210
1 211
1 212
1 213
1 214
1 215
1 216
1 217
1 218
1 219
1 220
1 221
1 222
1 223
1 224
1 225
1 226
1 227
1 228
1 229
1 230
1 231
1 232
1 233
1 234
1 235
1 236
1 237
1 238
1 239
1 240
1 241
1 242
1 243
1 244
1 245
1 246
1 247
1 248
1 249
1 250
1 251
1 252
1 253
1 254
1 255
1 256
1 257
1 258
1 259
1 260
1 261
1 262
1 263
1 264
1 265
1 266
1 267
1 268
1 269
1 270
1 271
1 272
1 273
1 274
1 275
1 276
1 277
1 278
1 279
1 280
1 281
1 282

POINT_DATA 283
SCALARS id int 1
LOOKUP_TABLE default
1
2
3
4
5
6
7
8
9
10
11
12
13
14
15
16
18
19
20
21
22
24
25
26
27
29
30
31
32
33
34
35
36
37
38
40
41
42
43
44
45
46
47
48
49
50
52
55
56
57
58
59
60
61
62
63
64
65
66
67
68
69
70
71
72
73
74
75
76
77
78
79
80
81
82
83
84
85
86
87
88
89
90
91
92
93
94
95
96
98
99
100
101
102
103
104
105
106
107
108
109
110
111
112
113
114
115
116
117
118
119
120
121
122
123
124
125
126
127
128
129
130
131
132
133
134
135
136
137
138
139
140
141
142
144
145
146
147
148
149
150
152
153
154
155
156
157
158
159
160
161
162
164
165
166
167
168
169
170
171
172
173
174
175
176
177
178
179
180
181
182
183
184
185
186
187
188
189
190
191
192
193
194
195
196
197
198
199
200
201
202
203
204
205
206
207
208
209
210
211
213
214
215
217
218
219
220
221
222
223
224
225
226
227
228
229
230
231
232
233
234
235
236
237
238
239
241
242
243
244
245
246
247
248
249
250
251
252
253
254
255
256
257
258
259
260
261
262
263
264
265
267
268
269
270
271
272
273
274
275
276
277
278
279
280
281
282
283
284
285
286
287
288
289
290
292
293
294
295
296
297
298
300

SCALARS type int 1
LOOKUP_TABLE default
1
1
1
1
1
1
1
1
1
1
1
1
1
1
1
1
1
1
1
1
1
1
1
1
1
1
1
1
1
1
1
1
1
1
1
1
1
1
1
1
1
1
1
1
1
1
1
1
1
1
1
1
1
1
1
1
1
1
1
1
1
1
1
1
1
1
1
1
1
1
1
1
1
1
1
1
1
1
1
1
1
1
1
1
1
1
1
1
1
1
1
1
1
1
1
1
1
1
1
1
1
1
1
1
1
1
1
1
1
1
1
1
1
1
1
1
1
1
1
1
1
1
1
1
1
1
1
1
1
1
1
1
1
1
1
1
1
1
1
1
1
1
1
1
1
1
1
1
1
1
1
1
1
1
1
1
1
1
1
1
1
1
1
1
1
1
1
1
1
1
1
1
1
1
1
1
1
1
1
1
1
1
1
1
1
1
1
1
1
1
1
1
1
1
1
1
1
1
1
1
1
1
1
1
1
1
1
1
1
1
1
1
1
1
1
1
1
1
1
1
1
1
1
1
1
1
1
1
1
1
1
1
1
1
1
1
1
1
1
1
1
1
1
1
1
1
1
1
1
1
1
1
1
1
1
1
1
1
1
1
1
1
1
1
1
1
1
1
1
1
1
1
1
1
1
1
1
1
1
1
1
1
1

SCALARS radius float 1
LOOKUP_TABLE default
5e-05
5e-05
5e-05
5e-05
5e-05
5e-05
5e-05
5e-05
5e-05
5e-05
5e-05
5e-05
5e-05
5e-05
5e-05
5e-05
5e-05
5e-05
5e-05
5e-05
5e-05
5e-05
5e-05
5e-05
5e-05
5e-05
5e-05
5e-05
5e-05
5e-05
5e-05
5e-05
5e-05
5e-05
5e-05
5e-05
5e-05
5e-05
5e-05
5e-05
5e-05
5e-05
5e-05
5e-05
5e-05
5e-05
5e-05
5e-05
5e-05
5e-05
5e-05
5e-05
5e-05
5e-05
5e-05
5e-05
5e-05
5e-05
5e-05
5e-05
5e-05
5e-05
5e-05
5e-05
5e-05
5e-05
5e-05
5e-05
5e-05
5e-05
5e-05
5e-05
5e-05
5e-05
5e-05
5e-05
5e-05
5e-05
5e-05
5e-05
5e-05
5e-05
5e-05
5e-05
5e-05
5e-05
5e-05
5e-05
5e-05
5e-05
5e-05
5e-05
5e-05
5e-05
5e-05
5e-05
5e-05
5e-05
5e-05
5e-05
5e-05
5e-05
5e-05
5e-05
5e-05
5e-05
5e-05
5e-05
5e-05
5e-05
5e-05
5e-05
5e-05
5e-05
5e-05
5e-05
5e-05
5e-05
5e-05
5e-05
5e-05
5e-05
5e-05
5e-05
5e-05
5e-05
5e-05
5e-05
5e-05
5e-05
5e-05
5e-05
5e-05
5e-05
5e-05
5e-05
5e-05
5e-05
5e-05
5e-05
5e-05
5e-05
5e-05
5e-05
5e-05
5e-05
5e-05
5e-05
5e-05
5e-05
5e-05
5e-05
5e-05
5e-05
5e-05
5e-05
5e-05
5e-05
5e-05
5e-05
5e-05
5e-05
5e-05
5e-05
5e-05
5e-05
5e-05
5e-05
5e-05
5e-05
5e-05
5e-05
5e-05
5e-05
5e-05
5e-05
5e-05
5e-05
5e-05
5e-05
5e-05
5e-05
5e-05
5e-05
5e-05
5e-05
5e-05
5e-05
5e-05
5e-05
5e-05
5e-05
5e-05
5e-05
5e-05
5e-05
5e-05
5e-05
5e-05
5e-05
5e-05
5e-05
5e-05
5e-05
5e-05
5e-05
5e-05
5e-05
5e-05
5e-05
5e-05
5e-05
5e-05
5e-05
5e-05
5e-05
5e-05
5e-05
5e-05
5e-05
5e-05
5e-05
5e-05
5e-05
5e-05
5e-05
5e-05
5e-05
5e-05
5e-05
5e-05
5e-05
5e-05
5e-05
5e-05
5e-05
5e-05
5e-05
5e-05
5e-05
5e-05
5e-05
5e-05
5e-05
5e-05
5e-05
5e-05
5e-05
5e-05
5e-05
5e-05
5e-05
5e-05
5e-05
5e-05
5e-05
5e-05
5e-05
5e-05
5e-05
5e-05
5e-05
5e-05
5e-05
5e-05
5e-05
5e-05
5e-05
5e-05
5e-05
5e-05
5e-05
5e-05
5e-05
5e-05
5e-05
5e-05
5e-05
5e-05
5e-05
5e-05
5e-05
5e-05

SCALARS mass float 1
LOOKUP_TABLE default
1.46608e-10
1.46608e-10
1.46608e-10
1.46608e-10
1.46608e-10
1.46608e-10
1.46608e-10
1.46608e-10
1.46608e-10
1.46608e-10
1.46608e-10
1.46608e-10
1.46608e-10
1.46608e-10
1.46608e-10
1.46608e-10
1.46608e-10
1.46608e-10
1.46608e-10
1.46608e-10
1.46608e-10
1.46608e-10
1.46608e-10
1.46608e-10
1.46608e-10
1.46608e-10
1.46608e-10
1.46608e-10
1.46608e-10
1.46608e-10
1.46608e-10
1.46608e-10
1.46608e-10
1.46608e-10
1.46608e-10
1.46608e-10
1.46608e-10
1.46608e-10
1.46608e-10
1.46608e-10
1.46608e-10
1.46608e-10
1.46608e-10
1.46608e-10
1.46608e-10
1.46608e-10
1.46608e-10
1.46608e-10
1.46608e-10
1.46608e-10
1.46608e-10
1.46608e-10
1.46608e-10
1.46608e-10
1.46608e-10
1.46608e-10
1.46608e-10
1.46608e-10
1.46608e-10
1.46608e-10
1.46608e-10
1.46608e-10
1.46608e-10
1.46608e-10
1.46608e-10
1.46608e-10
1.46608e-10
1.46608e-10
1.46608e-10
1.46608e-10
1.46608e-10
1.46608e-10
1.46608e-10
1.46608e-10
1.46608e-10
1.46608e-10
1.46608e-10
1.46608e-10
1.46608e-10
1.46608e-10
1.46608e-10
1.46608e-10
1.46608e-10
1.46608e-10
1.46608e-10
1.46608e-10
1.46608e-10
1.46608e-10
1.46608e-10
1.46608e-10
1.46608e-10
1.46608e-10
1.46608e-10
1.46608e-10
1.46608e-10
1.46608e-10
1.46608e-10
1.46608e-10
1.46608e-10
1.46608e-10
1.46608e-10
1.46608e-10
1.46608e-10
1.46608e-10
1.46608e-10
1.46608e-10
1.46608e-10
1.46608e-10
1.46608e-10
1.46608e-10
1.46608e-10
1.46608e-10
1.46608e-10
1.46608e-10
1.46608e-10
1.46608e-10
1.46608e-10
1.46608e-10
1.46608e-10
1.46608e-10
1.46608e-10
1.46608e-10
1.46608e-10
1.46608e-10
1.46608e-10
1.46608e-10
1.46608e-10
1.46608e-10
1.46608e-10
1.46608e-10
1.46608e-10
1.46608e-10
1.46608e-10
1.46608e-10
1.46608e-10
1.46608e-10
1.46608e-10
1.46608e-10
1.46608e-10
1.46608e-10
1.46608e-10
1.46608e-10
1.46608e-10
1.46608e-10
1.46608e-10
1.46608e-10
1.46608e-10
1.46608e-10
1.46608e-10
1.46608e-10
1.46608e-10
1.46608e-10
1.46608e-10
1.46608e-10
1.46608e-10
1.46608e-10
1.46608e-10
1.46608e-10
1.46608e-10
1.46608e-10
1.46608e-10
1.46608e-10
1.46608e-10
1.46608e-10
1.46608e-10
1.46608e-10
1.46608e-10
1.46608e-10
1.46608e-10
1.46608e-10
1.46608e-10
1.46608e-10
1.46608e-10
1.46608e-10
1.46608e-10
1.46608e-10
1.46608e-10
1.46608e-10
1.46608e-10
1.46608e-10
1.46608e-10
1.46608e-10
1.46608e-10
1.46608e-10
1.46608e-10
1.46608e-10
1.46608e-10
1.46608e-10
1.46608e-10
1.46608e-10
1.46608e-10
1.46608e-10
1.46608e-10
1.46608e-10
1.46608e-10
1.46608e-10
1.46608e-10
1.46608e-10
1.46608e-10
1.46608e-10
1.46608e-10
1.46608e-10
1.46608e-10
1.46608e-10
1.46608e-10
1.46608e-10
1.46608e-10
1.46608e-10
1.46608e-10
1.46608e-10
1.46608e-10
1.46608e-10
1.46608e-10
1.46608e-10
1.46608e-10
1.46608e-10
1.46608e-10
1.46608e-10
1.46608e-10
1.46608e-10
1.46608e-10
1.46608e-10
1.46608e-10
1.46608e-10
1.46608e-10
1.46608e-10
1.46608e-10
1.46608e-10
1.46608e-10
1.46608e-10
1.46608e-10
1.46608e-10
1.46608e-10
1.46608e-10
1.46608e-10
1.46608e-10
1.46608e-10
1.46608e-10
1.46608e-10
1.46608e-10
1.46608e-10
1.46608e-10
1.46608e-10
1.46608e-10
1.46608e-10
1.46608e-10
1.46608e-10
1.46608e-10
1.46608e-10
1.46608e-10
1.46608e-10
1.46608e-10
1.46608e-10
1.46608e-10
1.46608e-10
1.46608e-10
1.46608e-10
1.46608e-10
1.46608e-10
1.46608e-10
1.46608e-10
1.46608e-10
1.46608e-10
1.46608e-10
1.46608e-10
1.46608e-10
1.46608e-10
1.46608e-10
1.46608e-10
1.46608e-10
1.46608e-10
1.46608e-10
1.46608e-10
1.46608e-10
1.46608e-10
1.46608e-10
1.46608e-10
1.46608e-10
1.46608e-10
1.46608e-10
1.46608e-10
1.46608e-10
1.46608e-10

VECTORS velocity float
0.00493255 3.82344e-05 -0.000232812
0.00448303 0.000574163 -0.000432335
0.00480126 0.00076455 -0.000525724
0.00460153 0.000798795 -0.000531918
0.00527058 0.000833975 -0.0029278
0.00425148 -0.000757067 0.000221028
0.00665305 0.00330038 -0.00775261
0.00506595 0.000448482 -0.00217684
0.00463371 -0.00079898 0.000130408
0.0045237 0.000532165 -0.000418609
0.00547608 0.00198722 0.000300859
0.00438041 -0.000778583 0.000129888
0.00539799 0.000164775 -0.000294822
0.00469247 0.000112629 -4.12281e-05
0.00431183 0.00013125 -0.00022981
0.004458 0.000132729 -7.28618e-05
0.00474473 -0.000822256 0.000134695
0.00470834 0.000542088 -0.000427776
0.00517626 9.92183e-05 -0.000257869
0.00535547 0.000967539 -0.0031917
0.00494271 0.000812369 -0.0005515
0.00455091 -0.00081811 0.000238807
0.00503426 0.000259335 -0.000320406
0.00422308 -0.000750865 0.000219144
0.00453222 0.000131994 -6.92613e-05
0.0046625 0.00051115 -0.000415101
0.00426427 -0.000759518 0.000221743
0.00464804 0.000588091 -0.000444235
0.00517382 9.67824e-05 -0.000251582
0.00426719 -0.000759926 0.000221841
0.00464568 0.000528666 -0.000460977
0.00518959 0.0003967 -0.000384961
0.00468919 -0.000810814 0.00013263
0.00588923 0.00222224 -0.005599
0.00447537 0.000479303 -0.000390791
0.0065592 0.00159256 -0.00461115
0.00457417 0.000266711 -0.000305027
0.00624733 0.00205863 -0.00529157
0.00475533 0.000517708 -0.000418686
0.00444064 0.000548774 -0.000421267
0.00425617 -0.000757612 0.000221159
0.00421187 -0.00074858 0.000218577
0.00515514 0.00170539 -0.00446951
0.00527009 5.26512e-05 -0.000241926
0.00423408 -0.000753045 0.000219847
0.00448168 0.000516793 -0.00040712
0.00473345 2.29831e-05 -7.23461e-05
0.00468403 6.14886e-05 -8.07669e-05
0.00450093 0.000509524 -0.000404877
0.00424515 -0.000755313 0.000220462
0.00443661 0.000134427 -9.33234e-05
0.0045691 -0.000821842 0.00023976
0.0046344 0.000506679 -0.000406603
0.00538675 0.00102529 -0.00329805
0.00507855 0.00538319 0.00185566
0.00462069 0.000503974 -0.000407711
0.00453287 -0.000814454 0.000237659
0.00651846 0.00251614 -0.00602513
0.00468861 1.96652e-05 -7.09814e-05
0.00495057 0.000443438 -0.000397292
0.00446748 0.000194154 -0.000114594
0.00248393 0.000416429 0.000229621
0.00470785 -0.000814411 0.000133237
0.00443954 0.000133669 -9.45907e-05
0.00461523 -0.000795009 0.000129652
0.00562601 0.00239396 -0.00464117
0.00442522 0.000569033 -0.000432407
0.00402302 0.00270379 -0.00596609
0.00472622 -0.000818488 0.000134008
0.00458362 0.000489225 -0.000399164
0.00469505 0.000118973 -5.00748e-05
0.00470518 0.000122946 -5.45062e-05
0.00453414 0.000628337 -0.000457281
0.0047572 3.77955e-05 -7.89356e-05
0.00440475 0.000136479 -8.18027e-05
0.00469373 0.000121682 -5.30291e-05
0.00467066 -0.000806868 0.000131882
0.00444394 0.000156117 -0.000101725
0.004743 0.000544754 -0.000429569
0.0046522 -0.000802952 0.00013109
0.00461168 0.000313338 -0.00033414
0.00451264 0.000619275 -0.000452115
0.00510002 6.82635e-06 -0.000218551
0.00659003 0.00482615 -0.00185513
0.00517278 -4.05639e-05 -0.000206237
0.00493072 0.000143597 -0.000274109
0.0045261 0.000432406 -0.000504171
0.00451262 0.000512971 -0.000402815
0.00502645 0.000252697 -0.000325461
0.00448828 0.000594158 -0.000439997
0.00440861 0.000113767 -9.2117e-05
0.00457188 0.0004963 -0.00040184
0.00441003 0.000137745 -8.00634e-05
0.00447681 0.000522104 -0.000409068
0.0080237 0.0047213 -0.000835074
0.0044179 0.000121925 -5.86488e-05
0.00474539 5.6438e-05 -6.0219e-05
0.0056265 0.00990989 -0.000449937
0.00469285 0.000114319 -4.34447e-05
0.00445041 0.000515475 -0.000402838
0.00477754 0.000548287 -0.000431898
0.00447111 0.000523472 -0.000409121
0.00453182 0.00140281 0.000181073
0.00465246 0.000122958 -5.75939e-05
0.00449605 0.00049134 -0.000396445
0.00442318 0.000145087 -9.33158e-05
0.00469774 0.000534818 -0.000425346
0.00459191 0.000458812 -0.000386893
0.00673917 0.00449309 -0.000360121
0.00470817 2.33192e-05 -7.20724e-05
0.00426319 -0.000950298 -0.00020681
0.00454229 0.000253829 -0.000297543
0.00343393 -0.000416266 0.00059434
0.0044414 0.000560716 -0.000422864
0.00473386 1.75709e-05 -7.10476e-05
0.00458257 0.000495018 -0.000402001
0.00775746 0.00312869 -0.00142541
0.00735003 0.00177358 -0.00543618
0.00469789 0.000123573 -5.56074e-05
0.00445882 0.000507223 -0.000402748
0.00458526 0.000131478 -6.31618e-05
0.00484934 0.00229069 0.000114339
0.00479701 4.1285e-05 -7.75894e-05
0.00450884 0.000498516 -0.000402409
0.00449869 0.000206978 -0.000275894
0.0044773 0.000384561 -0.000349543
0.00506541 0.000206007 -0.000260081
0.00475067 4.24578e-05 -7.72247e-05
0.00498805 -0.000128089 -0.00017475
0.00489309 0.000498676 -0.000409495
0.00493122 0.00130772 -0.000160203
0.00459089 0.000500809 -0.000404649
0.00445553 0.000143271 -9.04844e-05
0.00595463 0.00664657 -0.000781588
0.00438042 0.00028423 -0.000306963
0.00505125 5.06983e-05 -0.000204393
0.00439951 0.000647481 -0.000471358
0.00469431 0.000116863 -4.68028e-05
0.00589747 0.00810556 -0.00293575
0.00459193 0.000394636 -0.000622864
0.00783536 0.00119009 -0.00478314
0.00453796 9.20601e-05 -8.60251e-05
0.00443277 0.000509961 -0.000401826
0.00437635 0.000107784 -0.000113434
0.0047041 0.000122053 -5.30096e-05
0.00477993 3.20958e-05 -7.51288e-05
0.00461324 0.000491794 -0.000407706
0.0046729 5.12783e-05 -7.82238e-05
0.00205442 0.000656672 0.000102779
0.00465264 7.11503e-05 -8.26737e-05
0.00493303 4.53194e-05 -0.00012836
0.00471962 3.65264e-05 -7.53615e-05
0.00448231 0.000577237 -0.000445016
0.00480233 4.62814e-05 -7.88993e-05
0.0049636 0.000102002 -0.000313979
0.00436868 0.000203362 -0.000119439
0.00457007 0.000590078 -0.000441657
0.00475194 5.56082e-05 -8.81175e-05
0.00441724 0.000135452 -9.45091e-05
0.00463761 0.000507724 -0.000407025
0.00474409 3.3193e-05 -7.51499e-05
0.00449925 0.000506332 -0.000404025
0.00461899 7.82436e-05 -8.39012e-05
0.00476154 5.51941e-05 -8.01625e-05
0.00429087 0.000122986 -6.3814e-05
0.00473019 5.33662e-05 -7.95058e-05
0.00456236 8.8332e-05 -8.54412e-05
0.00442221 0.000133178 -9.50018e-05
0.00450813 0.000512183 -0.000405447
0.00472744 1.87027e-05 -7.12242e-05
0.00472647 0.00053367 -0.000424328
0.00475285 4.30534e-05 -7.74438e-05
0.00457441 0.000491991 -0.000400072
0.00442765 0.000137117 -9.51666e-05
0.00467583 8.67797e-05 -8.66288e-05
0.00470781 -0.000814538 0.000133272
0.00489063 5.9495e-05 -0.00019677
0.00508752 0.000113965 -0.000279094
0.00443476 0.000130038 -8.64294e-05
0.0044644 0.000599238 -0.000441062
0.00471706 7.67649e-05 -7.04482e-05
0.00452598 0.000538562 -0.00041791
0.00358575 0.0059569 -0.00118066
0.00475769 5.08161e-05 -7.935e-05
0.004444 0.000107511 -8.82084e-05
0.0043554 0.00288756 -0.000199612
0.00469119 5.659e-06 -6.76567e-05
0.00474837 5.71392e-05 -8.08067e-05
0.00470138 0.000123755 -5.55727e-05
0.00467853 4.48171e-05 -7.67268e-05
0.00475431 5.52261e-05 -8.14604e-05
0.00460042 0.000583764 -0.000440582
0.00476253 5.817e-05 -7.91108e-05
0.0044337 0.000132943 -9.38784e-05
0.00458464 8.41447e-05 -8.47759e-05
0.00432594 0.000144895 -9.22395e-05
0.00473796 2.36562e-05 -7.25588e-05
0.00448266 0.000128963 -7.69809e-05
0.00462562 0.0005078 -0.000407889
0.00502072 -0.000126169 -0.000147283
0.00431907 -0.000743274 0.000121135
0.00443388 0.000591733 -0.000469923
0.00433152 0.000127955 -6.94167e-05
0.00438217 0.000652797 -0.000464107
0.00462531 0.000488042 -0.000405325
0.00466383 0.000352994 -0.000346902
0.00550733 0.00124988 -0.000760585
0.00444831 0.000132274 -7.64753e-05
0.00497595 0.000759643 -0.000532829
0.00469622 0.0001215 -5.12133e-05
0.00469548 0.000123215 -5.46132e-05
0.00476326 -0.000826075 0.000135388
0.00469635 5.70614e-05 -7.96925e-05
0.00465131 5.3039e-05 -7.83125e-05
0.00448767 0.000127373 -9.37258e-05
0.00468512 4.63095e-05 -7.713e-05
0.00476375 5.20756e-05 -8.02532e-05
0.00442916 0.000127608 -9.24962e-05
0.00449424 9.91695e-05 -8.69275e-05
0.0045088 0.000581993 -0.000436931
0.0044753 0.000542193 -0.000416481
0.00469388 7.6087e-05 -8.41804e-05
0.00466361 7.74144e-05 -8.43386e-05
0.00474082 6.21954e-05 -8.1789e-05
0.00460796 0.000104722 -9.0001e-05
0.00447171 0.000619482 -0.000131931
0.00437795 0.00013737 -9.43528e-05
0.00466364 9.2527e-05 -8.79065e-05
0.00446863 0.000608718 -0.000126701
0.00446375 0.000580627 -0.000112925
0.00439632 0.000134811 -9.40923e-05
0.00446344 0.000574547 -0.000109858
0.00533352 0.000114143 -0.000270414
0.00451648 0.000509721 -0.000403851
0.00441484 0.000132267 -9.36354e-05
0.00574047 0.0068127 -0.00107254
6.8008e-15 2.29898e-14 -7.03248e-14
0.00446421 0.000578526 -0.000111917
0.00474472 6.26473e-05 -8.19684e-05
0.00467351 6.65186e-05 -8.19937e-05
0.0042887 0.000115168 -0.000125472
0.00473797 4.96153e-05 -8.05354e-05
0.00475193 5.95744e-05 -8.12553e-05
0.00473769 5.70713e-05 -8.06155e-05
0.00475529 5.51027e-05 -8.01137e-05
0.00462392 0.000484414 -0.000397216
0.00469644 0.000107527 -9.21462e-05
0.00475837 5.07309e-05 -7.90231e-05
0.00478889 0.000516953 -6.82779e-05
0.00468944 3.88334e-05 -7.53669e-05
0.00442134 0.000132262 -9.33883e-05
0.0050663 -0.000158602 -0.000144885
0.00472388 2.40489e-05 -7.25237e-05
0.0047563 5.7478e-05 -8.06732e-05
0.00473207 3.46615e-05 -7.49146e-05
0.00472992 4.77691e-05 -7.8264e-05
0.00471578 3.25249e-06 -6.7432e-05
0.00474916 3.87778e-05 -7.63245e-05
0.00471496 5.17671e-05 -7.86429e-05
0.0047494 5.41597e-05 -7.96567e-05
0.00475155 6.21496e-05 -7.94765e-05
0.00472427 7.36644e-05 -8.18057e-05
0.00450888 0.000509234 -0.000401341
-1.28938e-14 6.0893e-14 -1.90219e-13
0.00484935 0.000503182 -5.93192e-05
0.00473226 1.65486e-05 -7.07917e-05
0.00481929 0.000510059 -6.40117e-05
0.00446409 0.000572418 -0.00010882
0.00468896 7.8644e-05 -8.49292e-05
0.0046761 0.000100951 -8.98537e-05
0.0047406 4.51606e-05 -7.7722e-05
0.00466521 0.000504926 -0.000409687
0.00473044 2.0424e-05 -7.15597e-05
0.00467687 3.94326e-05 -7.54505e-05
0.00474693 5.43113e-05 -8.01865e-05
0.00480353 4.77572e-05 -7.96975e-05
0.0045525 0.000462772 -0.00038697
0.00470848 7.50522e-05 -8.42372e-05
0.00440073 0.000114984 -0.000102637
0.00447836 0.000624632 -0.000452412
0.0047408 0.000545062 -0.000429693
0.00470298 3.7373e-05 -7.56481e-05
0.00491004 0.000815324 -0.000551929

VECTORS force float
-1.28195e-10 2.64296e-11 1.12304e-09
4.19598e-11 3.19014e-10 -1.47039e-10
2.90917e-11 -7.76098e-12 3.43309e-12
-3.65714e-11 -1.29897e-11 6.92017e-12
1.75254e-10 3.65611e-10 -7.06736e-10
1.18748e-12 -2.71133e-12 -6.87662e-15
-1.24505e-10 4.92924e-10 -8.57002e-10
1.78683e-10 3.7535e-10 -7.25413e-10
3.51037e-13 -1.27942e-12 -4.16653e-13
-9.11465e-12 -4.30318e-11 2.4259e-11
-6.49211e-10 -7.28541e-10 8.39156e-10
2.00153e-12 -1.0657e-12 6.30565e-13
-1.81541e-11 5.44565e-11 -1.3442e-11
-1.57467e-11 -4.63788e-11 6.04704e-11
-7.37121e-10 6.01141e-10 7.72055e-11
-1.05043e-11 -4.50739e-11 4.80781e-11
4.93721e-13 5.34098e-13 -5.14795e-13
1.78729e-11 7.34217e-11 -3.34179e-11
1.50122e-09 -1.1219e-09 1.05479e-10
1.75189e-10 3.61599e-10 -7.0118e-10
-2.27094e-11 -1.49056e-12 -3.17568e-12
7.60841e-13 4.62884e-14 1.77216e-12
3.25331e-10 -2.75473e-10 7.6372e-11
7.97549e-13 7.60134e-13 1.4345e-13
-1.17861e-11 -2.67993e-11 3.10173e-11
-7.26311e-11 -1.10342e-11 6.6758e-12
9.12267e-13 1.11234e-12 3.38302e-13
2.27099e-11 -1.88336e-11 7.07765e-12
2.19959e-09 -1.66466e-09 5.37786e-10
2.2582e-12 -1.46722e-12 3.49891e-13
-1.02105e-10 -7.18906e-12 -1.96891e-10
4.98135e-10 -3.69389e-10 1.27955e-10
-2.32434e-13 1.73404e-13 -1.31387e-12
-1.52651e-10 5.10507e-10 -8.74114e-10
3.44128e-10 -4.57203e-11 -1.89729e-12
-7.72005e-10 -3.77775e-10 -4.53451e-10
1.07063e-09 -1.04652e-09 3.89573e-10
-3.21333e-09 -6.50291e-09 1.0722e-08
-1.16397e-10 -5.67561e-12 9.08379e-12
1.67124e-10 3.05706e-10 -1.25895e-10
-2.69949e-13 1.29602e-12 -1.11969e-12
-4.31804e-13 5.56753e-13 6.05687e-13
-1.63701e-10 5.15443e-10 -8.86912e-10
-3.53156e-10 -1.64995e-10 -5.80974e-11
-1.73538e-12 7.22608e-13 -2.91817e-13
2.0818e-10 -1.1431e-10 5.31044e-11
-1.96524e-11 -4.93201e-12 1.07944e-12
6.08888e-11 4.81625e-11 -1.47981e-11
5.91545e-11 -7.66343e-11 4.25111e-11
-5.95355e-13 2.11129e-12 3.59515e-14
-1.92594e-12 -1.91229e-11 7.67491e-12
-6.15398e-13 -2.34705e-14 -1.01257e-12
-3.37906e-11 -1.45431e-10 1.21215e-10
-2.20266e-10 5.95442e-10 -8.80135e-10
2.22414e-10 -1.43544e-10 -1.33525e-09
-4.43426e-11 7.73313e-11 -4.36839e-11
1.22419e-12 -2.16081e-13 -1.12073e-12
-3.0647e-09 -5.73257e-09 1.13898e-08
-3.37025e-12 4.8389e-12 4.80534e-13
1.29058e-10 -1.07167e-09 4.91737e-10
-8.69699e-12 -5.19504e-12 4.08733e-11
-8.56333e-10 2.54615e-10 -1.91452e-10
-2.82783e-12 -3.3535e-12 9.60778e-13
2.0882e-10 -3.73474e-11 6.48109e-12
1.37326e-13 -1.2178e-12 -2.22686e-13
0.0 0.0 -1.43822e-09
1.17435e-10 9.79499e-12 -1.05185e-10
-8.8687e-11 4.75094e-10 -8.39252e-10
-6.69522e-13 1.35291e-12 4.57616e-14
-4.64903e-11 1.74082e-10 -6.46381e-11
2.77909e-12 7.45204e-12 -1.27758e-11
8.44477e-12 1.75105e-11 -2.65092e-11
1.27881e-10 -6.55532e-10 2.28129e-10
3.863e-11 6.84581e-11 8.81358e-12
1.02471e-10 -2.97817e-11 3.10577e-11
4.1579e-12 2.67408e-11 -3.58717e-11
2.03622e-13 -8.3029e-13 1.81829e-12
-2.3125e-11 1.08332e-11 -1.75173e-11
-6.4126e-11 -2.24342e-11 1.09707e-11
-1.69828e-13 -8.6763e-13 -2.19994e-13
-3.3608e-10 -2.49432e-10 -8.0525e-12
4.09911e-10 -5.18255e-10 2.37993e-10
1.06992e-09 -8.12043e-10 2.58577e-10
-3.01643e-09 3.56848e-09 -7.79478e-10
-4.35405e-10 -5.72227e-10 2.99566e-10
1.79919e-10 -4.31641e-10 2.79454e-10
-1.09795e-10 2.37935e-10 -7.50823e-11
1.91023e-10 5.11855e-11 6.1196e-12
3.77398e-10 -2.90782e-10 1.35844e-10
1.00071e-10 -1.54207e-10 -5.99929e-12
3.13355e-11 -1.04253e-11 9.16547e-12
-4.71329e-11 -4.22756e-11 2.66607e-12
2.91021e-11 -1.73811e-11 2.66721e-11
2.58574e-10 -1.96462e-10 4.25947e-11
-5.63522e-10 5.97625e-11 -3.40152e-10
4.64816e-11 9.31787e-12 -2.00422e-11
-7.4065e-12 -2.74567e-11 1.97351e-11
0.0 0.0 -1.43822e-09
-4.26286e-12 -3.37387e-11 4.39234e-11
1.18241e-10 7.70007e-11 -5.46293e-11
-4.21916e-11 -7.77861e-12 2.67774e-12
6.68683e-11 3.98746e-11 -3.04583e-11
-1.06941e-09 8.92835e-10 -1.35246e-09
4.69157e-11 -5.26098e-11 1.59492e-11
1.67796e-10 9.71726e-11 -6.62448e-11
1.41446e-11 6.94296e-11 2.99992e-12
-3.71746e-12 5.69674e-11 -3.80976e-11
-3.14907e-12 -1.65557e-11 7.16287e-12
4.49089e-10 -3.96019e-09 9.71542e-10
1.3099e-11 -1.03389e-11 4.27971e-12
-2.83773e-13 -3.82005e-14 -1.64426e-12
-1.44647e-10 1.66999e-10 -6.89979e-11
-8.58439e-10 4.48887e-10 -2.3767e-10
2.08206e-10 3.2848e-10 -1.90087e-10
-3.82238e-11 3.41153e-11 -7.41231e-12
9.40132e-12 1.8435e-10 -8.68311e-11
0.0 0.0 -1.43822e-09
3.55593e-10 7.6572e-10 -9.34253e-09
2.70876e-11 4.42189e-11 -5.04799e-11
2.17738e-10 6.19075e-11 -6.15101e-12
1.048e-10 -6.76858e-11 2.52709e-11
3.2969e-09 -3.49342e-10 -6.48479e-10
-3.11703e-11 3.74781e-11 -9.47232e-12
-7.89492e-12 -2.16915e-10 9.60822e-11
-1.34653e-10 2.20053e-10 -8.73081e-11
-2.4662e-10 2.35438e-10 -8.50405e-11
-1.84179e-10 -4.94306e-10 -1.47086e-11
7.09519e-12 7.5556e-12 -2.11746e-12
5.30621e-10 3.59552e-10 -4.2887e-10
1.17579e-09 1.15468e-09 -3.12264e-10
1.02815e-11 2.12398e-10 1.15928e-10
-6.82114e-11 1.04841e-10 -3.55527e-11
-5.63695e-11 -1.72787e-12 -1.06731e-12
3.74405e-09 1.05815e-09 -3.24972e-11
-3.91006e-10 4.59408e-11 3.93274e-11
8.54752e-10 -6.2083e-10 6.65129e-10
-7.6521e-11 4.45487e-11 -3.95205e-11
-5.24252e-12 -1.22254e-11 1.52648e-11
0.0 0.0 -1.43822e-09
-7.63768e-11 1.22913e-10 -5.40216e-10
4.98911e-09 2.92928e-09 -1.4972e-09
1.30063e-10 -1.77744e-11 3.11092e-12
-2.13877e-10 -1.5164e-11 1.82734e-11
-1.62516e-10 2.13579e-10 1.62141e-10
-5.61766e-12 1.63792e-13 -6.01351e-12
-7.27577e-11 2.77695e-11 -4.15238e-12
-1.21599e-10 1.99928e-10 4.01721e-11
2.18527e-11 4.96049e-11 -1.25683e-11
-8.36738e-10 1.59521e-10 -1.60458e-10
1.12994e-11 1.04269e-11 -1.98537e-12
-4.79262e-10 4.05558e-10 1.11215e-11
2.65485e-11 -1.17284e-11 2.45944e-12
8.37047e-11 3.88262e-10 -2.94051e-10
6.95371e-13 4.63518e-11 -9.29589e-12
8.54939e-10 2.24348e-10 5.11965e-10
4.63866e-13 -2.36723e-11 -1.3933e-11
-3.6475e-10 -7.24784e-10 3.59217e-10
6.87953e-12 -2.03654e-11 -3.31869e-11
5.8934e-11 -8.70594e-11 2.16905e-11
1.21194e-10 1.28455e-11 -1.7597e-10
-1.96181e-11 -8.96402e-12 2.15493e-12
5.3721e-11 -4.54878e-11 2.21123e-11
6.4508e-11 -8.39027e-12 -1.67862e-13
-1.81881e-12 -1.08053e-11 7.85966e-13
5.23628e-11 -6.49184e-12 3.41769e-11
2.13821e-13 -6.15149e-11 1.50885e-11
1.65726e-11 7.25813e-12 -2.82781e-12
-2.07426e-11 2.59327e-13 -8.78521e-12
1.21929e-10 -6.2224e-11 1.70061e-11
5.7485e-13 1.70383e-11 -4.6091e-12
-1.22793e-11 1.53091e-11 -1.62892e-12
-2.76163e-11 -1.57636e-11 2.00979e-12
-8.52341e-12 8.989e-11 -4.21516e-11
-3.08477e-11 4.03659e-11 -1.09273e-11
-2.24425e-12 -7.96244e-13 2.80992e-13
5.19526e-12 3.96016e-12 -5.15319e-13
-1.13413e-10 -3.9682e-10 1.12222e-10
-1.71239e-10 -1.99278e-10 2.15562e-10
-1.46918e-11 -7.11156e-11 -5.37409e-13
1.32106e-10 7.32246e-11 -4.4897e-11
-6.50706e-11 5.00842e-11 -1.03754e-10
1.86262e-10 -1.79223e-10 5.26551e-11
-5.55565e-10 -2.24308e-10 5.05628e-11
8.11982e-12 2.58936e-11 -3.98924e-12
-1.00574e-11 -1.19325e-11 -8.72535e-14
-7.52277e-10 -1.17711e-11 -1.07215e-10
2.01208e-11 -7.98055e-12 1.45904e-12
3.05877e-11 -4.24645e-11 1.18487e-11
2.60293e-11 3.39009e-11 -3.91561e-11
-8.45971e-11 1.29682e-11 -1.44528e-12
-5.15437e-12 -1.87654e-11 1.99701e-11
-6.08825e-12 -2.46931e-10 1.11647e-10
-3.24218e-11 -4.45875e-11 1.70509e-12
-3.22952e-11 -3.86072e-11 -6.18305e-12
2.60433e-11 7.30979e-14 -2.8048e-13
3.93654e-11 -4.8628e-12 3.58919e-11
-3.68915e-11 -4.61794e-12 9.42517e-13
-1.35942e-10 9.84353e-11 8.70016e-11
2.54461e-11 1.07339e-10 2.8456e-11
1.50108e-09 5.34762e-10 -8.35209e-10
1.14817e-12 1.18473e-12 -3.09942e-13
1.07174e-10 -1.53331e-10 -5.60679e-11
-1.17705e-10 5.41758e-11 -7.85368e-11
-1.45729e-11 -1.47196e-11 9.94448e-12
-6.98812e-11 6.07964e-11 -2.9605e-11
-3.73836e-11 -2.18307e-10 5.83506e-11
-1.95499e-10 2.23373e-10 -1.12395e-10
-1.07026e-11 -7.92788e-11 3.73052e-11
1.94509e-10 2.25998e-10 -1.83416e-10
-2.4835e-11 -1.82362e-11 1.21997e-11
5.40156e-12 3.74752e-11 -5.10244e-11
1.5878e-13 1.66681e-12 -8.90258e-14
2.04171e-11 4.70849e-11 -1.09183e-11
2.32921e-11 3.21864e-11 -8.44441e-12
3.53105e-11 1.59009e-12 -4.2689e-13
1.09019e-11 3.42076e-11 -1.20592e-11
-1.72197e-11 -3.44231e-11 1.72497e-11
-2.85698e-11 -4.37386e-11 1.6204e-11
9.42257e-11 -2.33084e-11 1.41053e-12
1.50749e-10 -2.82177e-10 8.02852e-11
-1.09352e-10 5.91321e-11 -2.04956e-11
1.37544e-11 -2.90011e-13 -2.33487e-12
1.01738e-11 3.10802e-11 -8.73706e-12
8.79666e-12 -5.22181e-12 5.88728e-13
-1.73999e-12 -3.54533e-11 9.8226e-12
3.05676e-12 1.28525e-11 -6.27459e-12
-5.87692e-12 2.18647e-11 -3.22507e-12
-2.22335e-10 -1.2925e-11 7.00727e-12
4.10436e-12 1.73532e-11 -8.46374e-12
3.06768e-12 1.39938e-11 -6.84285e-12
8.20524e-12 6.22224e-13 -9.27962e-13
9.61639e-12 2.41125e-12 4.12641e-12
3.46227e-11 2.18171e-10 -7.1024e-11
1.35705e-10 -1.26601e-10 3.66952e-11
-3.0819e-11 -3.06652e-11 5.51287e-12
5.14584e-09 -4.71857e-09 4.58325e-09
-2.94425e-23 -6.25555e-24 -3.72231e-24
-8.56131e-12 -2.20392e-11 8.01326e-12
4.91486e-11 -2.48892e-11 4.15711e-12
4.99464e-11 3.81438e-11 -7.49336e-12
-7.29481e-11 1.26008e-10 1.09858e-10
2.865e-12 3.71414e-11 1.18843e-12
-4.49195e-12 -8.43736e-12 -6.73384e-12
2.24167e-11 -1.76938e-12 8.34967e-13
-1.6764e-11 -2.62964e-11 -7.09454e-12
-2.52623e-11 1.62481e-10 -1.46076e-10
-5.13334e-11 -1.88718e-11 1.05822e-11
-2.09958e-11 -1.98136e-11 2.57886e-12
2.82486e-12 -8.58314e-12 3.06278e-12
5.68782e-11 -3.03609e-11 2.91659e-11
-9.59911e-11 -8.05313e-12 -3.48242e-12
-1.29648e-10 -6.73053e-10 3.61087e-10
8.84559e-12 -1.16063e-12 3.04938e-12
-1.97974e-11 -2.16712e-11 1.03497e-11
1.53866e-12 -5.69904e-12 -1.07246e-12
2.12335e-11 7.79486e-12 -1.48106e-12
-7.56566e-12 -1.57248e-11 1.72987e-11
-6.76914e-13 3.11536e-11 -7.87544e-12
1.09126e-11 3.36165e-11 -4.7201e-12
9.97506e-12 -2.28787e-11 1.30486e-11
-1.62263e-11 -3.30956e-11 2.1868e-11
2.40884e-11 8.92009e-11 -5.49444e-11
5.27981e-11 2.3219e-11 -1.34816e-12
1.0746e-21 2.19203e-22 -2.06795e-25
-1.4166e-12 -3.26021e-12 2.70979e-12
-4.54323e-11 4.07815e-12 -3.69216e-13
-1.84424e-12 -3.81778e-12 2.18301e-12
-7.84151e-12 -7.49209e-12 1.10072e-12
3.73589e-11 9.77982e-12 2.29184e-12
-5.99626e-11 1.34506e-11 2.80043e-12
5.48595e-12 -1.30312e-11 6.31512e-12
-2.89722e-11 2.43671e-11 -1.26267e-11
-2.73018e-11 -4.03124e-11 -1.0648e-11
1.01201e-11 3.30216e-12 1.06273e-14
9.19526e-13 1.77254e-12 -6.24573e-12
1.03063e-11 3.40886e-11 -5.63449e-12
-1.14719e-11 2.10464e-10 -9.2374e-11
-1.15364e-11 3.44533e-11 -1.09526e-11
8.03939e-11 8.19058e-12 7.12171e-11
1.13975e-10 1.78428e-10 -7.55255e-11
-3.39672e-11 -2.29599e-12 -6.03895e-12
-5.74089e-12 3.93545e-12 -4.76511e-12
9.69682e-12 1.10731e-11 -3.26814e-12
