# vtk DataFile Version 3.0
LIGGGHTS particles timestep 39800000
ASCII
DATASET POLYDATA
POINTS 283 float
0.195186 0.016394 0.00773386
0.195544 0.0175559 0.00715089
0.195654 0.0184459 0.00687718
0.195634 0.0183481 0.00688318
0.194827 0.0151559 0.00897854
0.201243 0.0167007 0.00770574
0.194976 0.0156119 0.00847695
0.194807 0.0151264 0.00907174
0.201491 0.0177201 0.00712328
0.19588 0.0182483 0.00688367
0.195358 0.0167559 0.00751902
0.20145 0.0175502 0.00722033
0.195907 0.0175856 0.00714904
0.188781 0.0151509 0.00922806
0.195884 0.0174973 0.00719471
0.189125 0.0162037 0.00800777
0.201614 0.0182516 0.0068893
0.195573 0.0180554 0.00690909
0.195576 0.0173198 0.00726369
0.194848 0.0151955 0.00888892
0.195694 0.0186414 0.00686518
0.201408 0.0173803 0.00731741
0.195736 0.0176161 0.00713167
0.201346 0.0171255 0.00746302
0.189048 0.0158761 0.00822322
0.195533 0.0178804 0.00699662
0.201223 0.0166156 0.00775444
0.195749 0.0184779 0.00687334
0.195832 0.0176444 0.00711832
0.201263 0.0167857 0.00765717
0.195512 0.0177919 0.00703815
0.195928 0.0176712 0.00710122
0.201553 0.0179749 0.00697765
0.194949 0.0155424 0.0085439
0.195874 0.0178161 0.00702233
0.19499 0.0156831 0.00840827
0.195619 0.0174974 0.00718205
0.19563 0.0171722 0.00733582
0.195729 0.0183801 0.00687934
0.195683 0.0177623 0.00705667
0.201284 0.0168706 0.00760864
0.201367 0.0172104 0.00741448
0.194888 0.015331 0.00874771
0.195555 0.017231 0.00730455
0.201325 0.0170405 0.00751156
0.195778 0.0177909 0.00704357
0.189736 0.0188451 0.00685602
0.189702 0.0178267 0.0070118
0.195859 0.0181514 0.00689785
0.201305 0.0169556 0.0075601
0.189318 0.0166434 0.00772629
0.201429 0.0174653 0.00726887
0.19549 0.0177031 0.00707898
0.194868 0.0152605 0.00881567
0.195434 0.0166974 0.00755019
0.195669 0.0180873 0.00690537
0.201387 0.0172954 0.00736594
0.195242 0.0162681 0.00783969
0.189898 0.0183347 0.00688897
0.19595 0.0177585 0.00705234
0.189374 0.0165084 0.00781648
0.195513 0.0170535 0.00738614
0.201648 0.0180048 0.00696613
0.189357 0.0167972 0.00760461
0.20147 0.0176352 0.00717179
0.194909 0.0154023 0.00868064
0.195303 0.0169033 0.00744693
0.194929 0.0154722 0.00861212
0.201595 0.018155 0.00690641
0.19579 0.0186746 0.00686125
0.188846 0.0152844 0.00896739
0.18895 0.0155075 0.00853242
0.19564 0.0175862 0.00714123
0.189937 0.0185276 0.00685286
0.189434 0.0167436 0.00763996
0.188867 0.0153289 0.00888049
0.201533 0.01789 0.00702623
0.189298 0.0165631 0.00778242
0.195709 0.0182823 0.00688534
0.201512 0.0178051 0.00707471
0.195453 0.0167864 0.00750916
0.195661 0.0176749 0.00710041
0.195378 0.016845 0.00747798
0.195261 0.0163388 0.00777161
0.195588 0.0169945 0.00741752
0.195693 0.0174385 0.00721332
0.195438 0.017112 0.007355
0.195838 0.0180533 0.00691284
0.195651 0.017261 0.00729496
0.195502 0.0173784 0.00723253
0.189494 0.0169787 0.00746347
0.195448 0.0175256 0.00716061
0.189754 0.0176664 0.00705304
0.195798 0.017875 0.00699322
0.195767 0.0173791 0.00724483
0.189414 0.0166652 0.0076988
0.189819 0.0179528 0.00698279
0.195301 0.0164933 0.00765113
0.188802 0.0151954 0.00914117
0.195818 0.0179615 0.0069471
0.195613 0.0182503 0.00688924
0.195714 0.0187391 0.00685919
0.195091 0.0160355 0.00806858
0.189009 0.0157073 0.0083229
0.195825 0.0184126 0.00687546
0.189337 0.0167204 0.00766552
0.195554 0.0179663 0.00694988
0.195469 0.0176144 0.00711979
0.195339 0.0166669 0.00756014
0.189918 0.0184304 0.00686823
0.201204 0.0165305 0.00780313
0.195672 0.0173498 0.00725414
0.195548 0.0168165 0.00749949
0.195342 0.0170815 0.00736482
0.189731 0.0187727 0.00692481
0.195608 0.0178213 0.00702639
0.196027 0.0177023 0.00708157
0.195224 0.0161972 0.00790787
0.188908 0.015421 0.00870769
0.1959 0.0183461 0.00687767
0.189025 0.0157911 0.00827079
0.195071 0.0159658 0.00813753
0.189799 0.0187679 0.00684834
0.195405 0.017348 0.00724227
0.195534 0.0171423 0.00734533
0.195715 0.0175273 0.0071725
0.195398 0.0169341 0.00743694
0.18969 0.0186247 0.00684309
0.195244 0.0166361 0.00757003
0.195459 0.0172008 0.00731418
0.195473 0.0168755 0.00746812
0.195845 0.0185104 0.00686946
0.189776 0.0177616 0.0070297
0.195012 0.0157533 0.00834048
0.195789 0.0174679 0.00720401
0.195598 0.0174086 0.00722287
0.195283 0.0168143 0.00748796
0.188824 0.0152399 0.00905428
0.195505 0.0176889 0.00717681
0.195568 0.0169055 0.00745848
0.195281 0.016413 0.00770763
0.189554 0.0172137 0.007287
0.195933 0.0180847 0.00690919
0.18909 0.0160376 0.00811338
0.188969 0.0155579 0.00844835
0.18965 0.018431 0.0068731
0.195764 0.01812 0.0069015
0.189798 0.0178564 0.00700645
0.195609 0.0170834 0.00737663
0.189637 0.0175417 0.00708168
0.195417 0.0170231 0.0073959
0.189992 0.0183656 0.00688329
0.195384 0.0172592 0.0072831
0.18971 0.0187229 0.00684061
0.195492 0.0169645 0.00742709
0.189278 0.0164808 0.00783568
0.195757 0.0177034 0.00708746
0.189592 0.0181426 0.00693037
0.189262 0.0167738 0.00762631
0.195629 0.0179069 0.00697914
0.189727 0.0183677 0.00688114
0.195723 0.0179337 0.00696087
0.189614 0.0174487 0.00711058
0.189507 0.0177629 0.00702353
0.189105 0.0161219 0.00806176
0.189787 0.0186584 0.00683685
0.189574 0.0172922 0.00722814
0.189454 0.016822 0.0075811
0.195865 0.0186081 0.00686346
0.189862 0.0185933 0.00684444
0.195689 0.0181847 0.00689369
0.189822 0.018399 0.00687468
0.195743 0.0180211 0.00691663
0.189377 0.0168754 0.00754556
0.189457 0.0171888 0.0073103
0.201574 0.0180599 0.0069291
0.195206 0.0164716 0.00767386
0.195167 0.0163189 0.007797
0.189164 0.0163706 0.00790464
0.195523 0.0174672 0.00719171
0.189517 0.0174282 0.00714005
0.195587 0.0177335 0.00706925
0.195055 0.0158937 0.008205
0.189688 0.0181763 0.00692404
0.189514 0.0170571 0.00740462
0.195319 0.0165778 0.00760109
0.189756 0.0189423 0.00686826
0.189611 0.0182379 0.00690695
0.188931 0.0154625 0.00861972
0.189497 0.0173455 0.00719264
0.189551 0.0179525 0.00697704
0.195853 0.0177301 0.00707038
0.189669 0.018081 0.00694748
0.189242 0.0166959 0.00768583
0.189593 0.0173706 0.00716928
0.189394 0.0165868 0.00775763
0.189951 0.0186382 0.00683661
0.189065 0.0159565 0.00816647
0.195648 0.0179927 0.00693005
0.195225 0.0165471 0.00761106
0.201654 0.018446 0.00686743
0.195323 0.0169924 0.00740589
0.189259 0.016398 0.00788833
0.195264 0.0167252 0.007529
0.19513 0.0161793 0.00793521
0.195109 0.0161063 0.00800055
0.195954 0.0181827 0.0068942
0.189144 0.0162865 0.00795532
0.195894 0.0179021 0.00697427
0.188985 0.0156276 0.00837823
0.188889 0.0153734 0.00879363
0.201634 0.018348 0.00687222
0.189563 0.0176073 0.00706503
0.189681 0.0177319 0.00703506
0.189397 0.0169537 0.00748675
0.189724 0.0179216 0.00698854
0.189529 0.0178577 0.00700029
0.189203 0.0165348 0.00779756
0.189534 0.0171354 0.00734581
0.19548 0.0172896 0.00727336
0.195704 0.0178477 0.00700894
0.189382 0.0172439 0.00727338
0.189322 0.0170088 0.00744984
0.189464 0.0175728 0.00707013
0.189417 0.0170321 0.00742793
0.183353 0.0171247 0.00734483
0.189302 0.0169305 0.00750866
0.189437 0.0171105 0.00736912
0.183332 0.0170372 0.00738851
0.183374 0.0172121 0.00730118
0.189282 0.0168521 0.00756748
0.183417 0.0173869 0.0072139
0.19581 0.0175567 0.00716317
0.195565 0.0176447 0.00711007
0.189223 0.016617 0.00774399
0.195031 0.0158248 0.00827328
0.215741 0.019982 0.00563384
0.183396 0.0172995 0.00725754
0.189768 0.0185613 0.00685132
0.189659 0.0176372 0.00705828
0.189239 0.0163152 0.00794082
0.189764 0.0181125 0.00694165
0.189485 0.0176676 0.00704689
0.189606 0.0177962 0.00701736
0.189747 0.0184645 0.00686613
0.195785 0.018217 0.00688751
0.189362 0.0171656 0.0073322
0.189649 0.0179858 0.00697085
0.18346 0.0175618 0.00712661
0.189541 0.0175155 0.00709773
0.189183 0.016452 0.00785011
0.195148 0.0162476 0.00786439
0.189843 0.0184957 0.00685954
0.18967 0.0185278 0.0068581
0.190012 0.0184622 0.00686125
0.189839 0.0180486 0.00695926
0.189442 0.017479 0.00709692
0.189708 0.0182716 0.00690088
0.189744 0.018017 0.00696511
0.189572 0.0180473 0.00695379
0.189802 0.0183031 0.0068948
0.189422 0.0174006 0.00715574
0.195427 0.0174368 0.00720144
0.404182 0.0211142 0.0056569
0.183502 0.0177366 0.00703932
0.189876 0.0187036 0.00684254
0.183481 0.0176492 0.00708296
0.183438 0.0174744 0.00717025
0.189477 0.0172674 0.00725198
0.189342 0.0170872 0.00739102
0.189783 0.0182078 0.00691823
0.195805 0.0183148 0.00688146
0.189584 0.0177037 0.0070483
0.189859 0.0181441 0.00693579
0.189628 0.017891 0.00699414
0.18963 0.0183341 0.00688811
0.195769 0.0185756 0.00686734
0.189402 0.0173223 0.00721456
0.189474 0.0169003 0.00752229
0.195363 0.0171704 0.00732392
0.195594 0.0181526 0.00689793
0.189878 0.0182394 0.00691238
0.195674 0.0185436 0.00687118

VERTICES 283 566
1 0
1 1
1 2
1 3
1 4
1 5
1 6
1 7
1 8
1 9
1 10
1 11
1 12
1 13
1 14
1 15
1 16
1 17
1 18
1 19
1 20
1 21
1 22
1 23
1 24
1 25
1 26
1 27
1 28
1 29
1 30
1 31
1 32
1 33
1 34
1 35
1 36
1 37
1 38
1 39
1 40
1 41
1 42
1 43
1 44
1 45
1 46
1 47
1 48
1 49
1 50
1 51
1 52
1 53
1 54
1 55
1 56
1 57
1 58
1 59
1 60
1 61
1 62
1 63
1 64
1 65
1 66
1 67
1 68
1 69
1 70
1 71
1 72
1 73
1 74
1 75
1 76
1 77
1 78
1 79
1 80
1 81
1 82
1 83
1 84
1 85
1 86
1 87
1 88
1 89
1 90
1 91
1 92
1 93
1 94
1 95
1 96
1 97
1 98
1 99
1 100
1 101
1 102
1 103
1 104
1 105
1 106
1 107
1 108
1 109
1 110
1 111
1 112
1 113
1 114
1 115
1 116
1 117
1 118
1 119
1 120
1 121
1 122
1 123
1 124
1 125
1 126
1 127
1 128
1 129
1 130
1 131
1 132
1 133
1 134
1 135
1 136
1 137
1 138
1 139
1 140
1 141
1 142
1 143
1 144
1 145
1 146
1 147
1 148
1 149
1 150
1 151
1 152
1 153
1 154
1 155
1 156
1 157
1 158
1 159
1 160
1 161
1 162
1 163
1 164
1 165
1 166
1 167
1 168
1 169
1 170
1 171
1 172
1 173
1 174
1 175
1 176
1 177
1 178
1 179
1 180
1 181
1 182
1 183
1 184
1 185
1 186
1 187
1 188
1 189
1 190
1 191
1 192
1 193
1 194
1 195
1 196
1 197
1 198
1 199
1 200
1 201
1 202
1 203
1 204
1 205
1 206
1 207
1 208
1 209
1 210
1 211
1 212
1 213
1 214
1 215
1 216
1 217
1 218
1 219
1 220
1 221
1 222
1 223
1 224
1 225
1 226
1 227
1 228
1 229
1 230
1 231
1 232
1 233
1 234
1 235
1 236
1 237
1 238
1 239
1 240
1 241
1 242
1 243
1 244
1 245
1 246
1 247
1 248
1 249
1 250
1 251
1 252
1 253
1 254
1 255
1 256
1 257
1 258
1 259
1 260
1 261
1 262
1 263
1 264
1 265
1 266
1 267
1 268
1 269
1 270
1 271
1 272
1 273
1 274
1 275
1 276
1 277
1 278
1 279
1 280
1 281
1 282

POINT_DATA 283
SCALARS id int 1
LOOKUP_TABLE default
1
2
3
4
5
6
7
8
9
10
11
12
13
14
15
16
18
19
20
21
22
24
25
26
27
29
30
31
32
33
34
35
36
37
38
40
41
42
43
44
45
46
47
48
49
50
52
55
56
57
58
59
60
61
62
63
64
65
66
67
68
69
70
71
72
73
74
75
76
77
78
79
80
81
82
83
84
85
86
87
88
89
90
91
92
93
94
95
96
98
99
100
101
102
103
104
105
106
107
108
109
110
111
112
113
114
115
116
117
118
119
120
121
122
123
124
125
126
127
128
129
130
131
132
133
134
135
136
137
138
139
140
141
142
144
145
146
147
148
149
150
152
153
154
155
156
157
158
159
160
161
162
164
165
166
167
168
169
170
171
172
173
174
175
176
177
178
179
180
181
182
183
184
185
186
187
188
189
190
191
192
193
194
195
196
197
198
199
200
201
202
203
204
205
206
207
208
209
210
211
213
214
215
217
218
219
220
221
222
223
224
225
226
227
228
229
230
231
232
233
234
235
236
237
238
239
241
242
243
244
245
246
247
248
249
250
251
252
253
254
255
256
257
258
259
260
261
262
263
264
265
267
268
269
270
271
272
273
274
275
276
277
278
279
280
281
282
283
284
285
286
287
288
289
290
292
293
294
295
296
297
298
300

SCALARS type int 1
LOOKUP_TABLE default
1
1
1
1
1
1
1
1
1
1
1
1
1
1
1
1
1
1
1
1
1
1
1
1
1
1
1
1
1
1
1
1
1
1
1
1
1
1
1
1
1
1
1
1
1
1
1
1
1
1
1
1
1
1
1
1
1
1
1
1
1
1
1
1
1
1
1
1
1
1
1
1
1
1
1
1
1
1
1
1
1
1
1
1
1
1
1
1
1
1
1
1
1
1
1
1
1
1
1
1
1
1
1
1
1
1
1
1
1
1
1
1
1
1
1
1
1
1
1
1
1
1
1
1
1
1
1
1
1
1
1
1
1
1
1
1
1
1
1
1
1
1
1
1
1
1
1
1
1
1
1
1
1
1
1
1
1
1
1
1
1
1
1
1
1
1
1
1
1
1
1
1
1
1
1
1
1
1
1
1
1
1
1
1
1
1
1
1
1
1
1
1
1
1
1
1
1
1
1
1
1
1
1
1
1
1
1
1
1
1
1
1
1
1
1
1
1
1
1
1
1
1
1
1
1
1
1
1
1
1
1
1
1
1
1
1
1
1
1
1
1
1
1
1
1
1
1
1
1
1
1
1
1
1
1
1
1
1
1
1
1
1
1
1
1
1
1
1
1
1
1
1
1
1
1
1
1
1
1
1
1
1
1

SCALARS radius float 1
LOOKUP_TABLE default
5e-05
5e-05
5e-05
5e-05
5e-05
5e-05
5e-05
5e-05
5e-05
5e-05
5e-05
5e-05
5e-05
5e-05
5e-05
5e-05
5e-05
5e-05
5e-05
5e-05
5e-05
5e-05
5e-05
5e-05
5e-05
5e-05
5e-05
5e-05
5e-05
5e-05
5e-05
5e-05
5e-05
5e-05
5e-05
5e-05
5e-05
5e-05
5e-05
5e-05
5e-05
5e-05
5e-05
5e-05
5e-05
5e-05
5e-05
5e-05
5e-05
5e-05
5e-05
5e-05
5e-05
5e-05
5e-05
5e-05
5e-05
5e-05
5e-05
5e-05
5e-05
5e-05
5e-05
5e-05
5e-05
5e-05
5e-05
5e-05
5e-05
5e-05
5e-05
5e-05
5e-05
5e-05
5e-05
5e-05
5e-05
5e-05
5e-05
5e-05
5e-05
5e-05
5e-05
5e-05
5e-05
5e-05
5e-05
5e-05
5e-05
5e-05
5e-05
5e-05
5e-05
5e-05
5e-05
5e-05
5e-05
5e-05
5e-05
5e-05
5e-05
5e-05
5e-05
5e-05
5e-05
5e-05
5e-05
5e-05
5e-05
5e-05
5e-05
5e-05
5e-05
5e-05
5e-05
5e-05
5e-05
5e-05
5e-05
5e-05
5e-05
5e-05
5e-05
5e-05
5e-05
5e-05
5e-05
5e-05
5e-05
5e-05
5e-05
5e-05
5e-05
5e-05
5e-05
5e-05
5e-05
5e-05
5e-05
5e-05
5e-05
5e-05
5e-05
5e-05
5e-05
5e-05
5e-05
5e-05
5e-05
5e-05
5e-05
5e-05
5e-05
5e-05
5e-05
5e-05
5e-05
5e-05
5e-05
5e-05
5e-05
5e-05
5e-05
5e-05
5e-05
5e-05
5e-05
5e-05
5e-05
5e-05
5e-05
5e-05
5e-05
5e-05
5e-05
5e-05
5e-05
5e-05
5e-05
5e-05
5e-05
5e-05
5e-05
5e-05
5e-05
5e-05
5e-05
5e-05
5e-05
5e-05
5e-05
5e-05
5e-05
5e-05
5e-05
5e-05
5e-05
5e-05
5e-05
5e-05
5e-05
5e-05
5e-05
5e-05
5e-05
5e-05
5e-05
5e-05
5e-05
5e-05
5e-05
5e-05
5e-05
5e-05
5e-05
5e-05
5e-05
5e-05
5e-05
5e-05
5e-05
5e-05
5e-05
5e-05
5e-05
5e-05
5e-05
5e-05
5e-05
5e-05
5e-05
5e-05
5e-05
5e-05
5e-05
5e-05
5e-05
5e-05
5e-05
5e-05
5e-05
5e-05
5e-05
5e-05
5e-05
5e-05
5e-05
5e-05
5e-05
5e-05
5e-05
5e-05
5e-05
5e-05
5e-05
5e-05
5e-05
5e-05
5e-05
5e-05
5e-05
5e-05
5e-05
5e-05
5e-05
5e-05
5e-05
5e-05
5e-05
5e-05
5e-05
5e-05
5e-05
5e-05
5e-05
5e-05
5e-05
5e-05
5e-05
5e-05
5e-05
5e-05
5e-05

SCALARS mass float 1
LOOKUP_TABLE default
1.46608e-10
1.46608e-10
1.46608e-10
1.46608e-10
1.46608e-10
1.46608e-10
1.46608e-10
1.46608e-10
1.46608e-10
1.46608e-10
1.46608e-10
1.46608e-10
1.46608e-10
1.46608e-10
1.46608e-10
1.46608e-10
1.46608e-10
1.46608e-10
1.46608e-10
1.46608e-10
1.46608e-10
1.46608e-10
1.46608e-10
1.46608e-10
1.46608e-10
1.46608e-10
1.46608e-10
1.46608e-10
1.46608e-10
1.46608e-10
1.46608e-10
1.46608e-10
1.46608e-10
1.46608e-10
1.46608e-10
1.46608e-10
1.46608e-10
1.46608e-10
1.46608e-10
1.46608e-10
1.46608e-10
1.46608e-10
1.46608e-10
1.46608e-10
1.46608e-10
1.46608e-10
1.46608e-10
1.46608e-10
1.46608e-10
1.46608e-10
1.46608e-10
1.46608e-10
1.46608e-10
1.46608e-10
1.46608e-10
1.46608e-10
1.46608e-10
1.46608e-10
1.46608e-10
1.46608e-10
1.46608e-10
1.46608e-10
1.46608e-10
1.46608e-10
1.46608e-10
1.46608e-10
1.46608e-10
1.46608e-10
1.46608e-10
1.46608e-10
1.46608e-10
1.46608e-10
1.46608e-10
1.46608e-10
1.46608e-10
1.46608e-10
1.46608e-10
1.46608e-10
1.46608e-10
1.46608e-10
1.46608e-10
1.46608e-10
1.46608e-10
1.46608e-10
1.46608e-10
1.46608e-10
1.46608e-10
1.46608e-10
1.46608e-10
1.46608e-10
1.46608e-10
1.46608e-10
1.46608e-10
1.46608e-10
1.46608e-10
1.46608e-10
1.46608e-10
1.46608e-10
1.46608e-10
1.46608e-10
1.46608e-10
1.46608e-10
1.46608e-10
1.46608e-10
1.46608e-10
1.46608e-10
1.46608e-10
1.46608e-10
1.46608e-10
1.46608e-10
1.46608e-10
1.46608e-10
1.46608e-10
1.46608e-10
1.46608e-10
1.46608e-10
1.46608e-10
1.46608e-10
1.46608e-10
1.46608e-10
1.46608e-10
1.46608e-10
1.46608e-10
1.46608e-10
1.46608e-10
1.46608e-10
1.46608e-10
1.46608e-10
1.46608e-10
1.46608e-10
1.46608e-10
1.46608e-10
1.46608e-10
1.46608e-10
1.46608e-10
1.46608e-10
1.46608e-10
1.46608e-10
1.46608e-10
1.46608e-10
1.46608e-10
1.46608e-10
1.46608e-10
1.46608e-10
1.46608e-10
1.46608e-10
1.46608e-10
1.46608e-10
1.46608e-10
1.46608e-10
1.46608e-10
1.46608e-10
1.46608e-10
1.46608e-10
1.46608e-10
1.46608e-10
1.46608e-10
1.46608e-10
1.46608e-10
1.46608e-10
1.46608e-10
1.46608e-10
1.46608e-10
1.46608e-10
1.46608e-10
1.46608e-10
1.46608e-10
1.46608e-10
1.46608e-10
1.46608e-10
1.46608e-10
1.46608e-10
1.46608e-10
1.46608e-10
1.46608e-10
1.46608e-10
1.46608e-10
1.46608e-10
1.46608e-10
1.46608e-10
1.46608e-10
1.46608e-10
1.46608e-10
1.46608e-10
1.46608e-10
1.46608e-10
1.46608e-10
1.46608e-10
1.46608e-10
1.46608e-10
1.46608e-10
1.46608e-10
1.46608e-10
1.46608e-10
1.46608e-10
1.46608e-10
1.46608e-10
1.46608e-10
1.46608e-10
1.46608e-10
1.46608e-10
1.46608e-10
1.46608e-10
1.46608e-10
1.46608e-10
1.46608e-10
1.46608e-10
1.46608e-10
1.46608e-10
1.46608e-10
1.46608e-10
1.46608e-10
1.46608e-10
1.46608e-10
1.46608e-10
1.46608e-10
1.46608e-10
1.46608e-10
1.46608e-10
1.46608e-10
1.46608e-10
1.46608e-10
1.46608e-10
1.46608e-10
1.46608e-10
1.46608e-10
1.46608e-10
1.46608e-10
1.46608e-10
1.46608e-10
1.46608e-10
1.46608e-10
1.46608e-10
1.46608e-10
1.46608e-10
1.46608e-10
1.46608e-10
1.46608e-10
1.46608e-10
1.46608e-10
1.46608e-10
1.46608e-10
1.46608e-10
1.46608e-10
1.46608e-10
1.46608e-10
1.46608e-10
1.46608e-10
1.46608e-10
1.46608e-10
1.46608e-10
1.46608e-10
1.46608e-10
1.46608e-10
1.46608e-10
1.46608e-10
1.46608e-10
1.46608e-10
1.46608e-10
1.46608e-10
1.46608e-10
1.46608e-10
1.46608e-10
1.46608e-10
1.46608e-10
1.46608e-10
1.46608e-10
1.46608e-10
1.46608e-10
1.46608e-10
1.46608e-10
1.46608e-10
1.46608e-10
1.46608e-10
1.46608e-10
1.46608e-10
1.46608e-10
1.46608e-10
1.46608e-10
1.46608e-10
1.46608e-10
1.46608e-10
1.46608e-10

VECTORS velocity float
0.0043147 -6.41517e-05 -0.00017012
0.00487911 6.17673e-05 0.000202172
0.00453936 2.70688e-05 -9.65831e-05
0.00450668 3.19683e-05 -9.97852e-05
0.00495683 0.000186465 0.000139292
0.00433298 0.000220106 0.000143582
0.0045331 -0.000111735 -0.000151959
0.00496175 0.000182567 0.000144186
0.00488932 0.000174217 0.000199701
0.00443771 -6.47316e-05 -7.86778e-05
0.00441494 0.000114586 0.000156186
0.00486661 0.000212398 0.000190498
0.00504788 -0.000134266 -4.69692e-05
0.00489082 2.98425e-07 -0.00035736
0.00492754 1.33732e-05 0.000229026
0.0042878 0.000404622 -7.40039e-05
0.00450859 0.000201518 -8.59106e-05
0.00447358 3.35044e-05 5.14019e-05
0.00481997 5.9499e-05 0.000200906
0.00454387 -0.000127253 -9.85303e-05
0.00455213 1.29306e-05 -9.67048e-05
0.00475063 0.000179488 0.000184274
0.00490205 -6.90781e-06 0.000237687
0.00465568 0.000192728 0.000171863
0.00435379 0.000368325 4.5128e-05
0.00497742 -8.21342e-05 8.27252e-08
0.0043217 0.000218765 0.000143577
0.00453225 -1.14237e-06 -9.64074e-05
0.00505729 -0.000107778 -6.78974e-05
0.0045497 0.000193664 0.000172462
0.0049439 4.11913e-05 0.000209011
0.00510452 0.000134494 -0.000196223
0.00499277 0.000166467 0.000215008
0.00451335 -0.000112633 -0.000146222
0.00496301 0.000251844 -0.000252669
0.00455172 -0.000102858 -0.00015488
0.00486876 4.86187e-05 0.000208663
0.00481 4.71556e-05 0.000206523
0.0045236 -8.32693e-06 -9.31552e-05
0.00500228 -0.000134668 -6.70117e-05
0.00455675 0.000200949 0.000165525
0.00469941 0.000213169 0.000172567
0.0044702 -0.000124831 -0.000136014
0.00482812 5.94706e-05 0.000202215
0.00464955 0.000199627 0.000175319
0.00497521 -1.06699e-05 -0.000106046
0.00448851 7.80751e-05 0.000125306
0.00509635 0.000131051 7.78832e-05
0.00440856 -1.61123e-05 5.44189e-05
0.00461804 0.000213148 0.000169014
0.00443653 0.000216605 -0.000191424
0.00478045 0.000203699 0.000178546
0.0049244 5.55542e-05 0.000208767
0.00449685 -0.000128938 -0.00012303
0.00442102 0.000130085 0.00014979
0.00450982 5.69528e-05 4.18695e-05
0.00475949 0.00020047 0.000186146
0.00439722 -7.27838e-05 -0.000176619
0.00462272 0.000191787 4.93949e-05
0.00503407 0.000348764 -0.000310536
0.00429881 0.000121114 -0.000307035
0.00488323 6.3311e-05 0.000202552
0.00505016 0.000193153 0.000202911
0.0046412 0.000112026 -0.000264323
0.00486232 0.000182136 0.000199309
0.0044722 -0.000129541 -0.000151762
0.00442244 0.000126718 0.0001508
0.00449712 -0.000126759 -0.000152655
0.00468586 0.000170796 -6.70701e-05
0.00454945 2.43052e-05 -9.77231e-05
0.00491905 -1.84733e-05 -0.000323916
0.0043069 -7.81891e-05 -0.000439759
0.00489882 3.6368e-05 0.000216983
0.00459884 0.000124805 -0.000110133
0.00463174 7.74131e-05 -0.000289999
0.00490659 -2.04989e-05 -0.000310355
0.00493736 0.00017963 0.000203755
0.00433201 0.000303406 -9.55471e-05
0.00445894 -5.81459e-06 -9.38306e-05
0.00493485 0.000181638 0.000203064
0.00444132 0.000125759 0.000151931
0.00492357 1.88953e-05 0.00022511
0.00443702 0.000123528 0.000152961
0.00436546 -7.12433e-05 -0.000173053
0.00453018 8.42026e-05 0.000176031
0.00484502 2.93858e-05 0.000216786
0.00484167 5.60334e-05 0.000203367
0.00460671 0.000233698 1.8564e-05
0.00481783 4.85462e-05 0.000206411
0.00483988 7.48014e-05 0.000194846
0.00476798 5.05714e-05 -0.000277066
0.00487784 7.35173e-05 0.000196145
0.00505899 0.000103111 8.49828e-05
0.00487113 0.000145419 -0.000181232
0.00486009 4.5016e-05 0.00020992
0.00446013 7.45622e-05 -0.000283123
0.00452392 0.000384526 2.43453e-06
0.00440037 8.23083e-05 6.52844e-05
0.00489584 -3.22677e-06 -0.000350862
0.00482717 0.000181641 -8.64778e-05
0.00449104 3.00278e-05 -5.24886e-05
0.00458441 2.36074e-05 -9.82474e-05
0.00446858 -6.64834e-05 -0.000186569
0.00455342 0.000284421 1.42076e-05
0.00450282 -3.88516e-05 -9.29778e-05
0.00452275 0.000162564 -0.000242479
0.00495587 -0.000172435 -0.000158319
0.00489692 6.5698e-05 0.000201766
0.00442695 0.000128275 0.000160211
0.00462664 0.000168272 -1.02498e-05
0.00430689 0.000217155 0.000142192
0.00482394 3.90313e-05 0.000210149
0.00443327 0.000111878 0.000158124
0.0044005 0.000135237 0.00014575
0.00461674 8.94034e-05 0.0001406
0.00498336 -0.00010701 -3.30021e-05
0.00511797 0.00046016 -0.000379153
0.00440745 -6.97615e-05 -0.000178676
0.00452812 5.85448e-05 -0.000330631
0.00447896 -7.16987e-05 -9.31626e-05
0.00443831 0.000335312 4.78691e-05
0.00449908 -6.94723e-05 -0.000181318
0.00462333 0.000148315 0.000134995
0.00485068 9.25292e-05 0.000188246
0.00487832 5.76086e-05 0.000206561
0.00487189 1.74265e-05 0.000223363
0.00443271 0.000144119 0.00014307
0.00459618 -3.70361e-05 -8.49951e-05
0.00443669 0.000120471 0.000162632
0.00486451 5.0756e-05 0.000207856
0.00451596 0.000121218 0.000157556
0.00448755 -2.10496e-05 -9.42853e-05
0.00502642 0.000242677 4.8581e-05
0.00456028 -9.66828e-05 -0.000161496
0.00481875 -2.47307e-05 0.000241193
0.00483886 5.88624e-05 0.000204101
0.00442112 0.00012067 0.000154076
0.00490604 -1.0052e-05 -0.00033928
0.00490504 5.7333e-05 0.000212085
0.0043906 0.000110207 0.000157037
0.00433474 -1.07205e-05 -0.000100208
0.00474297 -1.54443e-05 -0.000227648
0.00461393 0.000217555 2.6332e-05
0.00435906 0.000354386 -3.97696e-05
0.00467138 -4.79229e-05 -0.000329499
0.00468378 4.36108e-05 -0.000198202
0.00442644 -6.119e-06 6.08579e-05
0.00475835 0.000304822 2.7157e-05
0.00473708 5.23805e-05 0.000200735
0.00498945 7.56099e-05 8.87303e-05
0.00440837 0.000130155 0.000148402
0.00465397 0.000236153 3.96107e-05
0.00483291 6.0841e-05 0.000206126
0.00463245 8.6834e-05 0.000129196
0.00472746 8.99491e-05 0.000183083
0.00431638 0.000345822 -3.4318e-05
0.00503259 -0.00011724 -6.70999e-05
0.0045671 0.000123523 6.30274e-05
0.0045966 8.72987e-05 -0.000289394
0.00493689 -0.000120514 -9.6881e-05
0.00492119 -0.000132096 -0.000221849
0.00489839 -1.86006e-05 -9.28614e-05
0.00483865 6.1482e-06 -0.000247873
0.00495921 6.77685e-05 8.81227e-05
0.00433355 0.000376796 -5.78733e-05
0.0046764 0.000167994 4.01701e-05
0.00486143 -1.30702e-05 -0.000235383
0.00471117 6.92031e-05 -0.000286564
0.00448507 -1.5611e-05 -9.36231e-05
0.00456032 6.90177e-05 -7.09512e-05
0.00444827 -2.15678e-06 2.47538e-05
0.00458892 0.000127634 1.1177e-05
0.00458949 0.000136305 4.30178e-05
0.0047201 7.00253e-05 -0.000284917
0.00481775 3.67858e-05 -0.000268406
0.00502372 0.000162663 0.000220862
0.00439834 5.3756e-05 3.23675e-05
0.00430357 -9.89594e-05 -0.000232731
0.00437112 0.000380073 -0.000145151
0.0048627 6.95373e-05 0.000198422
0.00494222 9.1185e-06 -0.00029989
0.00494274 3.07124e-05 0.000214938
0.00453415 -7.83677e-05 -0.000176745
0.00374552 0.000186835 4.14377e-05
0.0047903 2.56882e-05 -0.000259977
0.00443879 0.000121767 0.000152603
0.00441606 8.42643e-05 0.000122674
0.00450022 6.28691e-05 7.5522e-05
0.00437306 2.95664e-05 -0.000377085
0.00491562 2.30204e-05 -0.000261609
0.00499947 9.48793e-05 8.71507e-05
0.0050257 4.83494e-05 -0.000142348
0.00428918 0.000294626 1.20956e-05
0.00452451 0.000112171 -0.000303028
0.00491898 -1.55303e-05 -0.000243461
0.00438761 9.44174e-05 -0.000291962
0.00457285 9.87397e-05 0.000158181
0.00437783 0.000342418 -1.12039e-05
0.00450574 2.5429e-05 -0.000119086
0.0044423 0.000120854 0.000149587
0.00456925 0.000207411 0.000198728
0.00440953 0.000120344 0.000153187
0.00434769 0.000348007 -3.00854e-05
0.00443007 0.000112953 0.0001569
0.00440546 -6.04064e-05 -0.000186142
0.00444092 -6.48587e-05 -0.000187466
0.00441698 -3.81377e-05 5.52759e-05
0.00426246 0.000411731 -0.000108846
0.00497768 0.000306002 -0.000294799
0.00464421 0.000159972 -0.000122024
0.00476628 1.08539e-05 -0.000314887
0.00437513 0.000227523 -9.63457e-05
0.005043 5.39609e-05 -0.000218189
0.00506492 0.000120328 8.19611e-05
0.00474899 6.54156e-05 -0.000288069
0.00477703 0.000349824 1.63682e-05
0.00499743 8.33457e-05 8.56658e-05
0.00433585 0.000367166 -5.71265e-05
0.00482302 3.24259e-05 -0.000266333
0.0048479 6.71522e-05 0.000200571
0.00494901 -6.22028e-05 -8.83323e-05
0.00488198 1.88038e-05 -0.000258523
0.00473717 4.24074e-05 -0.000271066
0.00500416 0.000143902 8.4233e-05
0.00478301 5.26865e-05 -0.000280491
0.00490401 0.000437628 -2.9661e-05
0.00471792 7.15502e-05 -0.000287499
0.00481212 3.71012e-05 -0.000268604
0.00489771 0.000502716 -6.30312e-05
0.0049252 0.000433846 -2.6917e-05
0.00465281 8.17627e-05 -0.000291187
0.00496757 0.000426298 -2.14019e-05
0.00490105 -1.23046e-05 0.000236767
0.00490948 4.41529e-05 0.000213538
0.00438005 0.000164767 -0.000315498
0.00455902 -9.04866e-05 -0.000167542
6.80478e-15 2.29916e-14 -7.03239e-14
0.00494638 0.000430073 -2.41512e-05
0.00464309 0.000132033 -0.000212304
0.00505571 0.000111557 8.83289e-05
0.00429324 0.000355431 -4.48066e-05
0.0045052 0.000108715 8.75118e-05
0.00500714 0.000158109 7.04119e-05
0.0050894 0.000152172 7.66885e-05
0.00459286 2.7346e-05 -9.36762e-05
0.0044211 -2.87308e-05 -4.25037e-05
0.00482557 3.94599e-05 -0.000268254
0.00475234 0.000260574 4.21067e-05
0.00500994 0.000418746 -1.58887e-05
0.00497059 3.91356e-06 -0.000343222
0.00427842 0.000419926 -9.33406e-05
0.00435674 -6.28723e-05 -0.00019115
0.00462208 0.000118979 -0.000109556
0.00456243 -3.22156e-05 -8.55142e-05
0.00461894 0.000176814 -0.000115377
0.00465722 0.000289416 2.90229e-05
0.0049824 8.85564e-06 -0.000279829
0.00440503 -0.000363962 -0.00133256
0.00462952 0.000473263 -2.0111e-05
0.0046633 0.000151502 6.40588e-05
0.00459132 0.000130421 6.66109e-05
0.00493433 1.59002e-05 -0.000254653
0.00485257 7.09952e-05 0.000195604
-1.28e-14 6.09118e-14 -1.90219e-13
0.00505231 0.000411194 -1.03813e-05
0.00466062 0.000186667 0.000138972
0.00503112 0.000414969 -1.31392e-05
0.00498875 0.000422519 -1.86502e-05
0.00484447 3.60712e-05 -0.000264678
0.00477692 3.22982e-05 -0.000264966
0.0045923 0.000121431 6.16036e-05
0.00448393 -5.40624e-05 -9.05799e-05
0.00504268 0.00011698 -4.1184e-06
0.00451814 0.000147201 5.9403e-05
0.00508178 0.000176089 6.81693e-05
0.00452149 4.03358e-05 -0.000105188
0.0045266 6.19291e-06 -9.59295e-05
0.00493455 2.62585e-07 -0.000251274
0.0047396 5.97347e-05 -0.000282511
0.00480339 5.59098e-05 0.000203042
0.00449525 3.10994e-05 2.50661e-06
0.004536 0.00017587 4.90048e-05
0.00455369 2.31141e-05 -9.87897e-05

VECTORS force float
-1.30325e-10 -9.57273e-12 -1.56842e-10
-1.48671e-10 -1.85657e-10 8.22542e-11
1.29366e-10 1.15345e-10 6.16851e-12
-1.77879e-11 3.72682e-11 -2.19769e-11
4.97797e-11 2.71207e-11 -2.74463e-12
6.00914e-11 2.81509e-10 -1.0147e-10
-5.04844e-11 -8.06753e-13 1.7457e-11
-2.52122e-11 4.32133e-12 -9.47308e-12
-2.54506e-10 -1.23884e-11 6.87609e-11
2.98775e-10 1.98199e-10 2.56119e-11
1.14337e-11 -2.89755e-11 1.22504e-11
-2.34991e-11 1.84151e-10 -9.98266e-11
2.97049e-10 -2.39602e-10 3.94056e-11
-1.61315e-11 -3.26393e-11 6.51279e-11
7.68108e-11 -2.08069e-10 8.77765e-11
-5.8065e-10 4.67314e-10 -3.3288e-10
1.16838e-10 -1.59636e-11 -3.64444e-11
-6.52886e-11 -1.51476e-11 6.01166e-13
1.73821e-10 -2.53001e-10 1.36665e-10
-1.21254e-10 -2.60807e-10 -1.40181e-10
-1.47994e-10 -3.5144e-10 1.95179e-11
4.343e-10 -2.60941e-12 1.85705e-10
2.20269e-10 2.8919e-11 1.7646e-11
2.59197e-10 -1.06595e-10 6.97762e-11
8.82982e-11 2.64816e-10 -4.45878e-11
1.02098e-10 1.16363e-10 4.79037e-10
-2.04474e-10 4.43283e-11 -3.56961e-11
5.68095e-11 -5.35578e-11 -2.69339e-11
4.13964e-10 1.09719e-10 2.54439e-11
-1.73778e-11 8.46618e-11 -1.04291e-11
-1.12611e-11 -1.42423e-10 1.22168e-10
2.04754e-10 5.83868e-12 2.1467e-11
-6.34528e-11 -2.08804e-11 2.99644e-11
1.83817e-11 -3.56449e-11 3.79687e-11
2.68962e-10 -3.00291e-10 -4.73671e-11
-1.49196e-10 1.18877e-11 -1.07363e-11
9.94767e-11 -1.99269e-10 9.89536e-11
1.34553e-10 -2.50534e-10 1.26243e-10
7.48663e-11 -7.01025e-11 8.30491e-11
-4.09393e-11 -4.14213e-10 -1.31116e-10
1.56627e-11 -1.66851e-10 2.31007e-11
-6.26097e-10 -1.01047e-10 -9.16579e-11
-4.70901e-11 -3.81711e-11 1.31049e-10
1.08793e-10 -1.67633e-10 1.08764e-10
3.72269e-10 2.21298e-10 -1.04318e-11
1.67945e-10 -2.14131e-10 -1.09e-10
-8.26461e-11 1.72856e-10 1.15718e-11
-7.03143e-11 5.18582e-10 -1.66097e-10
8.28013e-10 1.82828e-10 -6.70092e-11
-4.12842e-10 8.57683e-11 -7.52948e-11
-3.0686e-10 -6.65445e-11 -5.88293e-11
-6.36295e-10 -3.20423e-10 -7.01736e-11
-4.60158e-11 -2.50006e-10 9.23353e-11
-1.21502e-10 -9.05143e-11 3.61023e-11
-6.57156e-11 1.40597e-10 -4.39222e-11
-5.20454e-11 -2.50272e-10 1.40556e-10
3.51627e-10 3.231e-10 -1.05365e-10
-1.1467e-10 1.51184e-10 -1.40963e-10
-2.19406e-10 -4.5098e-10 4.98641e-11
5.44935e-10 -1.26185e-10 1.04173e-10
-2.67822e-10 1.71091e-10 -4.60136e-11
5.80759e-10 2.49785e-11 -7.89864e-12
1.07585e-10 4.8461e-11 -2.55609e-11
1.98759e-10 -2.30907e-10 7.72791e-11
1.85832e-10 2.98121e-10 5.39426e-11
-2.91802e-11 4.18795e-11 2.07591e-10
-7.50992e-11 -1.99236e-12 7.28676e-12
-4.0135e-11 8.75841e-12 1.3158e-10
2.35045e-10 -1.83502e-10 -2.83421e-10
1.83853e-10 -1.51896e-10 8.13032e-12
-4.40133e-12 -1.33835e-10 2.76221e-10
3.57994e-11 -2.54639e-11 9.09909e-11
6.91808e-11 -2.01054e-10 9.08902e-11
-1.35481e-10 -1.14948e-10 -2.9229e-10
9.26242e-11 -2.50706e-10 1.54442e-10
-1.19106e-11 -1.26608e-10 2.28948e-10
4.82823e-11 -5.88139e-11 4.66387e-11
-1.09175e-10 6.33582e-11 -1.19933e-10
8.28384e-11 -3.32535e-11 -1.15056e-10
-5.02446e-11 -6.20206e-11 6.26717e-11
1.39817e-10 2.51829e-11 -7.10245e-12
6.03676e-11 -1.36562e-10 8.73387e-11
-3.37936e-11 6.53173e-11 -3.24455e-11
7.47066e-11 1.08101e-10 -9.24406e-11
-1.20978e-10 -1.8022e-10 7.95084e-11
1.15014e-10 -1.92864e-10 9.71555e-11
2.8422e-10 -2.31386e-12 5.07055e-11
1.98545e-10 -5.86371e-10 1.40515e-10
2.008e-10 -2.02751e-10 1.00405e-10
1.13473e-10 -3.70578e-10 1.92804e-10
3.54682e-10 -1.42208e-10 7.09989e-11
-3.81579e-11 -3.08211e-10 1.49519e-10
-2.25408e-10 -1.5238e-11 3.08677e-11
2.23781e-10 -3.57132e-10 -8.06495e-11
3.32327e-10 -2.81211e-11 3.18747e-11
-2.12797e-10 -1.88102e-10 1.45137e-10
-7.25226e-10 2.79988e-10 -8.41747e-11
1.71899e-11 9.35579e-11 -7.41726e-11
-5.92968e-12 -6.48882e-11 1.23039e-10
2.12307e-10 -3.78696e-10 3.1071e-10
8.15299e-11 -2.26086e-11 1.19817e-10
-1.24883e-10 -5.48136e-10 3.3764e-11
9.15529e-11 1.20244e-10 -1.10881e-10
1.05494e-10 9.52831e-11 1.51942e-11
2.00769e-10 -5.38624e-11 1.99472e-12
-6.51369e-11 -2.25956e-10 -7.89034e-11
8.38999e-11 -5.18653e-11 7.09523e-11
-9.56128e-11 -2.79439e-10 1.3612e-10
-1.09475e-10 2.53185e-10 5.07649e-11
-1.29775e-11 -4.60852e-10 4.40379e-11
2.775e-11 -1.15392e-10 6.96892e-11
8.64634e-11 -1.62854e-10 7.66145e-11
2.07675e-10 -1.13398e-10 6.16962e-11
9.11559e-12 3.64222e-11 -1.60296e-11
-2.01965e-10 -2.33942e-10 -2.24916e-10
8.02278e-11 -3.15651e-10 -2.74953e-10
3.68831e-10 -4.1502e-10 2.4175e-10
1.22842e-10 1.03594e-10 -9.80659e-11
-3.79315e-11 -5.96823e-11 9.13052e-11
2.84297e-10 1.38213e-10 2.78932e-11
2.83722e-11 1.97615e-10 -2.07381e-12
7.78912e-11 6.87962e-11 -8.0033e-11
2.93238e-10 3.38712e-10 -9.17941e-12
3.9142e-11 6.43995e-12 -2.33524e-11
1.1367e-10 -8.88503e-11 4.73069e-11
1.17738e-10 -2.71518e-10 1.20365e-10
-7.2441e-11 9.63636e-12 -8.52762e-12
-6.9962e-11 -2.74733e-10 4.31466e-11
-3.84216e-11 2.36807e-11 3.9111e-11
5.56489e-11 3.17107e-11 -5.47354e-11
4.12648e-10 4.55113e-11 8.63613e-12
-6.84263e-11 -1.48973e-10 1.89188e-12
8.50243e-11 2.14787e-10 -5.1514e-11
-5.27446e-11 1.29511e-12 5.18355e-13
4.71376e-10 -1.00082e-10 7.31641e-11
1.10457e-10 -2.10911e-10 9.40955e-11
2.65525e-11 1.72454e-12 -7.55681e-12
-2.02661e-11 -1.18577e-10 2.26379e-10
1.64981e-10 -2.15008e-10 1.15854e-10
-8.95552e-11 -1.73672e-10 7.57314e-11
5.8146e-11 1.02163e-10 -5.15397e-11
4.70181e-10 5.48566e-11 -4.66718e-11
2.17577e-10 -6.00141e-10 1.0404e-10
1.95626e-10 3.07899e-10 -2.02521e-10
-7.33225e-11 1.01873e-10 1.53377e-10
-1.88592e-09 9.86177e-10 2.52455e-09
8.66552e-10 2.14015e-10 -2.99746e-11
-6.91039e-10 3.27374e-10 -9.66839e-11
-6.45569e-11 -1.98572e-10 8.93754e-11
-3.15291e-10 2.13476e-10 -5.06036e-11
3.80979e-11 -4.83043e-11 2.13481e-11
-1.25385e-10 -7.43464e-11 -6.3008e-11
-8.84486e-11 -7.47745e-11 2.48605e-11
1.45872e-10 -3.04999e-10 2.93354e-11
8.05288e-10 2.15485e-11 1.92647e-11
1.17713e-10 7.87367e-11 -1.66415e-10
8.55956e-11 -1.59389e-10 4.10596e-11
-1.77024e-10 -7.37124e-10 3.50451e-10
1.872e-10 -7.47508e-11 8.16277e-11
1.30885e-10 -2.18863e-10 2.06577e-10
-3.75308e-09 2.45709e-09 3.28564e-09
2.24971e-10 -2.25989e-10 3.46143e-10
-1.47178e-10 8.11654e-11 -9.06612e-11
-1.30414e-10 -5.7125e-11 -5.2013e-11
-1.67963e-11 3.56049e-10 -2.31967e-10
2.6227e-11 -3.55073e-10 -1.72395e-10
-4.19685e-11 4.40655e-11 -1.80568e-11
2.93619e-10 -2.96444e-10 2.0656e-10
1.73298e-10 -1.44481e-10 4.61226e-12
-2.19035e-10 1.47181e-10 -1.51941e-10
4.2663e-10 -3.37136e-11 -1.94431e-10
3.07286e-11 -2.81838e-10 1.56519e-10
-1.67259e-10 -4.93926e-10 -1.96688e-11
2.2064e-10 -1.82272e-10 1.55722e-10
9.74144e-11 -3.20166e-10 2.28665e-10
4.88439e-11 1.01308e-11 -1.52941e-11
-3.92387e-11 2.25358e-12 -6.04409e-11
-4.62192e-11 2.29241e-11 -1.5951e-10
-2.73668e-10 -1.13587e-10 -2.80333e-11
6.35334e-11 -2.70879e-10 1.23735e-10
2.366e-10 2.49898e-10 3.30829e-10
2.56147e-11 -1.40405e-10 8.20538e-11
1.66273e-11 3.61294e-11 -3.45077e-11
2.35837e-09 1.53695e-09 -1.40458e-09
4.21046e-10 -2.07376e-10 1.17921e-10
3.77609e-12 1.32979e-10 -6.98824e-11
-5.03488e-11 1.21477e-10 2.28768e-11
3.71775e-10 -1.42788e-10 1.93204e-10
5.36944e-11 -6.32664e-11 7.02163e-11
4.58153e-11 -1.11809e-10 1.40371e-10
-2.56457e-10 2.03443e-10 -4.65408e-11
2.37933e-10 9.45198e-12 -6.26602e-11
-3.35678e-09 -4.77159e-10 -3.91454e-11
6.63668e-10 -5.86239e-11 3.60104e-11
-6.76204e-12 -2.13431e-11 5.42516e-11
-1.98777e-10 -3.78086e-11 -1.21233e-11
1.31637e-10 6.60128e-10 9.39738e-10
1.71128e-10 2.8312e-10 -1.30076e-10
-1.45296e-10 -1.87847e-10 2.98012e-10
3.57872e-11 2.55855e-11 -1.37738e-13
-4.94421e-11 -1.70385e-10 -3.07513e-11
3.43392e-11 3.06443e-11 -1.09849e-11
-3.06526e-10 9.53411e-11 -3.92459e-11
-1.21144e-11 2.63203e-11 -4.61879e-12
4.3623e-11 1.97052e-10 -1.43054e-10
8.29538e-11 1.98684e-10 -1.09912e-10
4.57346e-10 3.58135e-10 3.34667e-12
-4.54277e-10 2.87867e-10 -4.13496e-10
1.58772e-10 -7.17066e-11 1.36808e-10
1.0379e-11 8.45884e-11 1.04725e-10
-9.1269e-12 -1.45961e-10 1.3591e-10
1.48711e-11 -1.13318e-10 5.71134e-11
-1.784e-10 2.01861e-10 -4.18587e-10
3.00893e-11 3.44175e-10 -6.81111e-11
2.88269e-10 -2.48314e-10 1.78966e-10
-3.51426e-10 2.3448e-10 -6.33668e-11
-3.01879e-10 1.41366e-10 -4.28469e-11
-7.09908e-11 -8.56765e-12 1.49121e-10
5.34051e-10 -2.43595e-10 1.5561e-10
1.00917e-10 -4.11318e-11 5.60732e-11
5.5101e-11 -4.30941e-10 1.55653e-10
3.08011e-10 1.32075e-10 5.62505e-13
2.48529e-10 2.52845e-10 -1.47079e-10
-8.5644e-11 2.03693e-10 3.47071e-13
1.98751e-10 -2.51229e-10 1.78327e-10
6.75655e-13 2.44696e-15 5.13811e-14
9.85299e-12 1.85117e-10 -8.73261e-11
2.15857e-10 -1.74217e-10 1.57454e-10
1.53608e-12 3.47268e-12 -1.67953e-12
4.49344e-13 2.34516e-14 5.65362e-14
-4.89359e-10 5.13218e-12 2.07527e-11
3.42094e-13 -7.29322e-14 1.94603e-13
2.3756e-10 6.26696e-11 -7.57591e-12
2.48135e-11 -2.1346e-10 8.34528e-11
-1.45054e-10 1.38681e-10 4.31422e-11
-1.03488e-11 4.69592e-12 4.74358e-13
-4.1876e-24 1.53545e-23 1.86116e-24
5.56784e-13 -1.32402e-13 -1.42009e-13
-1.99663e-10 -2.91634e-10 1.49228e-10
-2.04985e-10 2.91039e-10 -1.10518e-10
-1.45319e-10 -6.68849e-11 7.93401e-11
-5.76219e-10 -1.45664e-09 6.85306e-10
1.81231e-10 2.37534e-10 -9.36443e-11
-1.04902e-10 2.69282e-10 -2.64353e-11
-9.14151e-12 -4.11626e-10 9.13353e-11
5.37401e-10 8.5298e-11 3.13942e-10
-1.46258e-10 9.22888e-11 -1.65026e-11
6.91259e-10 -6.05191e-10 1.39678e-10
2.80222e-13 -2.85753e-13 1.25901e-14
5.25488e-11 2.45173e-10 -9.1482e-11
8.13405e-10 -5.20708e-10 3.11285e-10
-1.84884e-11 1.15489e-10 -1.34442e-10
2.17978e-11 -2.15113e-10 7.78261e-11
-3.22506e-11 -2.2869e-10 2.79652e-11
1.81111e-10 -2.47367e-10 4.11959e-11
-1.21524e-10 4.68086e-10 -1.34479e-10
9.6235e-11 -1.04592e-10 -5.06708e-10
2.17173e-10 1.02239e-09 5.36289e-10
2.9932e-10 -3.00699e-10 1.36223e-10
-1.3125e-10 -8.90995e-11 -1.80033e-10
1.30947e-10 -3.16324e-10 1.89978e-10
2.00935e-10 1.3176e-10 2.22561e-12
-6.87864e-11 -5.25459e-10 2.36504e-10
1.64984e-22 7.59455e-23 1.05466e-23
5.53513e-14 -2.71857e-13 1.05956e-13
-2.80734e-10 6.29337e-11 1.59294e-10
5.98276e-14 -1.828e-13 1.72985e-13
1.84423e-13 -4.57333e-14 1.35354e-13
-2.08786e-10 -2.37356e-10 1.55804e-10
5.9889e-11 1.4999e-10 -1.03525e-10
-9.99141e-10 -3.53838e-10 1.27316e-10
3.30669e-10 7.18546e-12 1.73527e-12
-9.96344e-11 2.18937e-10 5.9289e-11
-8.15051e-10 1.35966e-10 -7.72388e-11
-3.03094e-10 4.08216e-10 -1.00555e-10
1.015e-10 1.98774e-09 3.16894e-10
2.12957e-10 4.39729e-12 7.77647e-13
6.58288e-10 -4.96911e-11 6.83158e-11
4.38796e-10 -2.63195e-10 1.83693e-10
1.79224e-10 2.53977e-10 -1.44468e-10
-2.20302e-11 -1.86782e-11 5.91805e-11
-2.94391e-10 -2.50303e-10 -3.67925e-11
-5.15953e-11 -1.43285e-10 1.18577e-11
