# vtk DataFile Version 3.0
LIGGGHTS particles timestep 76400000
ASCII
DATASET POLYDATA
POINTS 280 float
0.363284 0.0174331 0.00737534
0.363473 0.0181173 0.00703137
0.363222 0.0175684 0.00718714
0.363202 0.0174937 0.0072506
0.36273 0.0155756 0.0084252
0.368985 0.0166425 0.00781036
0.36271 0.0155056 0.00849376
0.369242 0.0175949 0.00712893
0.363556 0.0186361 0.0069692
0.363087 0.0166854 0.00774182
0.36919 0.0174383 0.00724107
0.363477 0.0187339 0.00697181
0.357305 0.0179269 0.00709677
0.363583 0.0185399 0.0069662
0.357078 0.0170554 0.00777941
0.369352 0.0181357 0.00696913
0.36329 0.0178161 0.00712868
0.363351 0.0173754 0.00731096
0.36275 0.015659 0.00837375
0.363264 0.0177325 0.00708068
0.369149 0.0172793 0.00735486
0.363536 0.0176859 0.00710859
0.369087 0.0170405 0.00752567
0.357203 0.0168399 0.00792321
0.363407 0.0178412 0.0071043
0.368964 0.0165629 0.0078673
0.363391 0.0179357 0.00704326
0.363719 0.0182867 0.00695884
0.369005 0.0167221 0.00775342
0.363303 0.0179 0.00707584
0.36351 0.0184716 0.00696328
0.369324 0.0178414 0.00698986
0.363545 0.0179351 0.00694735
0.363161 0.0166292 0.00777799
0.363559 0.0177675 0.00705564
0.363728 0.0181453 0.00695416
0.363379 0.0178428 0.0070084
0.363255 0.0173495 0.00732879
0.369026 0.0168017 0.00769648
0.369109 0.0171198 0.00746889
0.362893 0.0162415 0.00801429
0.36333 0.0172933 0.00736426
0.369067 0.0169609 0.00758261
0.363418 0.0176247 0.00714913
0.357229 0.0175791 0.00713029
0.357276 0.0174114 0.00730312
0.363554 0.0182229 0.00695528
0.369046 0.0168813 0.00763954
0.357083 0.0167236 0.00802222
0.369173 0.0173581 0.0072984
0.363582 0.0183929 0.00699375
0.36277 0.0157423 0.00832229
0.363203 0.0167956 0.00767533
0.363319 0.0175952 0.007169
0.369128 0.0171997 0.0074118
0.362928 0.0164116 0.00791542
0.357391 0.0183247 0.00707363
0.363436 0.0185383 0.00696488
0.357224 0.0169077 0.00785286
0.363287 0.0171284 0.00747
0.369413 0.0184287 0.00694875
0.356964 0.0166181 0.00810927
0.36921 0.0175179 0.00718414
0.363045 0.016519 0.00784447
0.363012 0.0167415 0.00770566
0.363513 0.0179244 0.00705686
0.369331 0.018038 0.00697592
0.363301 0.0178972 0.00697379
0.356759 0.0160082 0.00873828
0.356851 0.0162815 0.00846132
0.363608 0.0180171 0.00694883
0.35735 0.018126 0.00705546
0.357412 0.0172803 0.00748468
0.356782 0.016076 0.00866863
0.369273 0.0177656 0.00703063
0.35706 0.0166543 0.00809368
0.363361 0.0177602 0.00706198
0.369256 0.0176766 0.00707272
0.363224 0.0168788 0.007624
0.363394 0.0175396 0.00720438
0.363108 0.0167686 0.00769049
0.362908 0.0163256 0.0079623
0.363471 0.0174403 0.00726801
0.363234 0.0172673 0.00738184
0.363171 0.0170182 0.0075365
0.363419 0.0179712 0.00694566
0.363637 0.017896 0.00697193
0.363467 0.0178039 0.00703283
0.357471 0.0174839 0.00727255
0.363395 0.0183427 0.00695795
0.357413 0.0175986 0.00715617
0.363439 0.0177072 0.00709559
0.363707 0.0180475 0.0069507
0.357261 0.0170434 0.00771056
0.357298 0.0174792 0.00723296
0.363341 0.0175975 0.00726644
0.356711 0.0158727 0.00887757
0.363633 0.018114 0.00695229
0.36324 0.0176544 0.00723479
0.363285 0.0178145 0.00702744
0.362868 0.0161633 0.00807149
0.356874 0.016347 0.00838923
0.363419 0.0180713 0.00694903
0.357099 0.0167918 0.00794993
0.363139 0.0172407 0.00739769
0.36318 0.0174057 0.00729275
0.363066 0.0166022 0.00779314
0.357412 0.0184241 0.0070808
0.368944 0.0164833 0.00792424
0.363492 0.0175223 0.00721478
0.363428 0.0172765 0.00737433
0.363054 0.0169079 0.00760301
0.357271 0.0177439 0.00702545
0.363353 0.0181471 0.00695102
0.363622 0.0183081 0.00695873
0.363182 0.0167124 0.00772666
0.356828 0.0162115 0.00852891
0.363456 0.0186361 0.00696835
0.356971 0.0163809 0.00837658
0.362829 0.0159926 0.00816782
0.357423 0.0179697 0.00712032
0.363248 0.0175727 0.00729194
0.363309 0.0172112 0.0074175
0.363373 0.0174576 0.00725762
0.363129 0.0168518 0.00763916
0.357309 0.0177407 0.00711788
0.363174 0.017336 0.00744422
0.363075 0.0169911 0.00755168
0.363245 0.016962 0.00757267
0.363469 0.018276 0.00695635
0.357362 0.0177988 0.00699789
0.362851 0.0160758 0.00811652
0.363557 0.0180115 0.00703446
0.363213 0.0171846 0.00743384
0.362991 0.0166583 0.00775699
0.356735 0.0159404 0.00880792
0.363428 0.0180284 0.00703891
0.363449 0.0173584 0.00732118
0.363023 0.0164354 0.00789603
0.357196 0.0171348 0.00759175
0.363339 0.0180688 0.00701147
0.357051 0.0168609 0.00800417
0.356995 0.0164487 0.00830684
0.35737 0.0182249 0.00706642
0.36334 0.0176781 0.00711526
0.357523 0.0180985 0.00704376
0.36349 0.0183738 0.00695981
0.357357 0.0173829 0.00735657
0.36315 0.016935 0.00758783
0.35749 0.0183632 0.0070695
0.363096 0.0170743 0.00750035
0.357189 0.0174311 0.00725849
0.363266 0.0170452 0.00752133
0.357041 0.0165865 0.00816463
0.363553 0.0178513 0.00700148
0.35751 0.0180279 0.00711914
0.357347 0.0176179 0.00722864
0.363448 0.0181782 0.00695288
0.357227 0.0175997 0.00722924
0.363298 0.0175132 0.00722222
0.357337 0.0173148 0.00742701
0.357093 0.0170919 0.00761291
0.357066 0.0169827 0.00785073
0.357509 0.0184611 0.00707666
0.357298 0.0171791 0.0075686
0.357118 0.0168631 0.00787533
0.363322 0.0179982 0.00708017
0.357289 0.0178378 0.00705424
0.363542 0.0183036 0.00701901
0.357379 0.0179958 0.0070344
0.363463 0.0178878 0.0069786
0.356983 0.016686 0.00803833
0.357176 0.0170669 0.00766243
0.369311 0.0179404 0.00698272
0.363183 0.0174236 0.00739108
0.363139 0.017257 0.00749635
0.356897 0.0164148 0.00831936
0.363384 0.0177609 0.00715938
0.357489 0.0175517 0.00720119
0.363415 0.0184405 0.00696142
0.36281 0.0159091 0.00821935
0.357194 0.0174542 0.00736277
0.357539 0.0177763 0.00700694
0.363357 0.017681 0.00721373
0.357209 0.0175069 0.00719651
0.357376 0.0178123 0.00709671
0.356924 0.0162434 0.00851809
0.357452 0.0174159 0.00734353
0.357452 0.0181675 0.00705714
0.363676 0.0183993 0.00696226
0.357168 0.0173881 0.00743312
0.356943 0.0165503 0.0081797
0.357213 0.0172086 0.00752625
0.357244 0.0169755 0.00778211
0.357471 0.0182651 0.0070674
0.356947 0.016312 0.00844737
0.363394 0.0181784 0.00703685
0.362949 0.0164919 0.00785969
0.369392 0.0183311 0.00695554
0.363033 0.0168247 0.00765433
0.35692 0.0164839 0.00825083
0.36297 0.0165751 0.00780832
0.363719 0.0179482 0.00694746
0.363374 0.0182449 0.00695449
0.357041 0.0169162 0.0079214
0.363653 0.0182118 0.00695576
0.35717 0.0167042 0.00806653
0.356805 0.0161437 0.00859878
0.369372 0.0182334 0.00696233
0.357076 0.017024 0.00768446
0.357394 0.017526 0.00722247
0.357138 0.016931 0.00780465
0.357113 0.0171615 0.00754394
0.35745 0.0177633 0.00705029
0.357018 0.0165166 0.00823675
0.357506 0.0176212 0.00712801
0.363192 0.0171014 0.00748517
0.363276 0.0174313 0.00727541
0.357584 0.0183962 0.00706526
0.357003 0.0167622 0.00797674
0.357447 0.0178566 0.00701453
0.357159 0.0169988 0.00773419
0.351117 0.017128 0.00738028
0.357253 0.0173384 0.0073787
0.357035 0.0168884 0.00782555
0.351096 0.0170408 0.00742426
0.351139 0.0172152 0.00733631
0.357555 0.0180044 0.00703306
0.351182 0.0173931 0.00725644
0.363515 0.0176039 0.0071618
0.363117 0.0171575 0.00744904
0.356986 0.0167081 0.00814638
0.36279 0.0158257 0.00827083
0.215741 0.019982 0.00563384
0.35116 0.0173024 0.00729233
0.357565 0.018298 0.00705809
0.357378 0.0174504 0.0072858
0.357186 0.016772 0.00799467
0.357432 0.0176856 0.00711058
0.357435 0.0173481 0.00741498
0.357234 0.0172705 0.00744969
0.35717 0.0173632 0.00732939
0.363509 0.0180282 0.00694835
0.35747 0.0179523 0.00703326
0.357336 0.0175409 0.00730206
0.351226 0.0175779 0.00719341
0.357127 0.0171895 0.00763895
0.357002 0.0167771 0.00807562
0.36314 0.016546 0.00782932
0.357401 0.0181416 0.00713964
0.357278 0.0176606 0.00716908
0.357328 0.0180372 0.00710923
0.357322 0.0175536 0.00715595
0.357432 0.0185239 0.00708801
0.357213 0.0175252 0.00729475
0.357131 0.0172275 0.00747117
0.357357 0.0179002 0.00701566
0.357546 0.0182 0.00705092
0.3571 0.0171219 0.00770801
0.36327 0.0177341 0.00718214
0.404182 0.0211142 0.0056569
0.351269 0.0177627 0.00713038
0.35725 0.0176585 0.00707309
0.351247 0.0176703 0.00716189
0.351204 0.0174855 0.00722492
0.357318 0.0172469 0.0074979
0.357019 0.0168206 0.00789713
0.357151 0.0172954 0.00740028
0.363533 0.0181251 0.00695182
0.357307 0.0174763 0.00737272
0.357342 0.0176215 0.00708514
0.357135 0.0172581 0.00756634
0.357431 0.0180713 0.00707485
0.363321 0.0179912 0.0069455
0.357055 0.0169562 0.00775491
0.357281 0.0171112 0.00764001
0.363319 0.0175108 0.00732335
0.36316 0.0173236 0.00734598
0.357363 0.0177077 0.00703914
0.363243 0.0176504 0.00713394

VERTICES 280 560
1 0
1 1
1 2
1 3
1 4
1 5
1 6
1 7
1 8
1 9
1 10
1 11
1 12
1 13
1 14
1 15
1 16
1 17
1 18
1 19
1 20
1 21
1 22
1 23
1 24
1 25
1 26
1 27
1 28
1 29
1 30
1 31
1 32
1 33
1 34
1 35
1 36
1 37
1 38
1 39
1 40
1 41
1 42
1 43
1 44
1 45
1 46
1 47
1 48
1 49
1 50
1 51
1 52
1 53
1 54
1 55
1 56
1 57
1 58
1 59
1 60
1 61
1 62
1 63
1 64
1 65
1 66
1 67
1 68
1 69
1 70
1 71
1 72
1 73
1 74
1 75
1 76
1 77
1 78
1 79
1 80
1 81
1 82
1 83
1 84
1 85
1 86
1 87
1 88
1 89
1 90
1 91
1 92
1 93
1 94
1 95
1 96
1 97
1 98
1 99
1 100
1 101
1 102
1 103
1 104
1 105
1 106
1 107
1 108
1 109
1 110
1 111
1 112
1 113
1 114
1 115
1 116
1 117
1 118
1 119
1 120
1 121
1 122
1 123
1 124
1 125
1 126
1 127
1 128
1 129
1 130
1 131
1 132
1 133
1 134
1 135
1 136
1 137
1 138
1 139
1 140
1 141
1 142
1 143
1 144
1 145
1 146
1 147
1 148
1 149
1 150
1 151
1 152
1 153
1 154
1 155
1 156
1 157
1 158
1 159
1 160
1 161
1 162
1 163
1 164
1 165
1 166
1 167
1 168
1 169
1 170
1 171
1 172
1 173
1 174
1 175
1 176
1 177
1 178
1 179
1 180
1 181
1 182
1 183
1 184
1 185
1 186
1 187
1 188
1 189
1 190
1 191
1 192
1 193
1 194
1 195
1 196
1 197
1 198
1 199
1 200
1 201
1 202
1 203
1 204
1 205
1 206
1 207
1 208
1 209
1 210
1 211
1 212
1 213
1 214
1 215
1 216
1 217
1 218
1 219
1 220
1 221
1 222
1 223
1 224
1 225
1 226
1 227
1 228
1 229
1 230
1 231
1 232
1 233
1 234
1 235
1 236
1 237
1 238
1 239
1 240
1 241
1 242
1 243
1 244
1 245
1 246
1 247
1 248
1 249
1 250
1 251
1 252
1 253
1 254
1 255
1 256
1 257
1 258
1 259
1 260
1 261
1 262
1 263
1 264
1 265
1 266
1 267
1 268
1 269
1 270
1 271
1 272
1 273
1 274
1 275
1 276
1 277
1 278
1 279

POINT_DATA 280
SCALARS id int 1
LOOKUP_TABLE default
1
2
3
4
5
6
8
9
10
11
12
13
14
15
16
18
19
20
21
22
24
25
26
27
29
30
31
32
33
34
35
36
38
40
41
42
43
44
45
46
47
48
49
50
52
55
56
57
58
59
60
61
62
63
64
65
66
67
68
69
70
71
72
73
74
75
76
77
78
79
80
81
82
83
84
85
86
87
88
89
90
91
92
93
94
95
96
98
99
100
101
102
103
104
105
106
107
108
109
110
111
112
113
114
115
116
117
118
119
120
121
122
123
124
125
126
127
128
129
130
131
132
133
134
135
136
137
138
139
140
141
142
144
145
146
147
148
149
150
152
153
154
155
156
157
158
159
160
161
162
164
165
166
167
168
169
170
171
172
173
174
175
176
177
178
179
180
181
182
183
184
185
186
187
188
189
190
191
192
193
194
195
196
197
198
199
200
201
202
203
204
205
206
207
208
209
210
211
213
214
215
217
218
220
221
222
223
224
225
226
227
228
229
230
231
232
233
234
235
236
237
238
239
241
242
243
244
245
246
247
248
249
250
251
252
253
254
255
256
257
258
259
260
261
262
263
264
265
267
268
269
270
271
272
273
274
275
276
277
278
279
280
281
282
283
284
285
286
287
288
289
290
292
293
294
295
296
297
298
300

SCALARS type int 1
LOOKUP_TABLE default
1
1
1
1
1
1
1
1
1
1
1
1
1
1
1
1
1
1
1
1
1
1
1
1
1
1
1
1
1
1
1
1
1
1
1
1
1
1
1
1
1
1
1
1
1
1
1
1
1
1
1
1
1
1
1
1
1
1
1
1
1
1
1
1
1
1
1
1
1
1
1
1
1
1
1
1
1
1
1
1
1
1
1
1
1
1
1
1
1
1
1
1
1
1
1
1
1
1
1
1
1
1
1
1
1
1
1
1
1
1
1
1
1
1
1
1
1
1
1
1
1
1
1
1
1
1
1
1
1
1
1
1
1
1
1
1
1
1
1
1
1
1
1
1
1
1
1
1
1
1
1
1
1
1
1
1
1
1
1
1
1
1
1
1
1
1
1
1
1
1
1
1
1
1
1
1
1
1
1
1
1
1
1
1
1
1
1
1
1
1
1
1
1
1
1
1
1
1
1
1
1
1
1
1
1
1
1
1
1
1
1
1
1
1
1
1
1
1
1
1
1
1
1
1
1
1
1
1
1
1
1
1
1
1
1
1
1
1
1
1
1
1
1
1
1
1
1
1
1
1
1
1
1
1
1
1
1
1
1
1
1
1
1
1
1
1
1
1
1
1
1
1
1
1
1
1
1
1
1
1

SCALARS radius float 1
LOOKUP_TABLE default
5e-05
5e-05
5e-05
5e-05
5e-05
5e-05
5e-05
5e-05
5e-05
5e-05
5e-05
5e-05
5e-05
5e-05
5e-05
5e-05
5e-05
5e-05
5e-05
5e-05
5e-05
5e-05
5e-05
5e-05
5e-05
5e-05
5e-05
5e-05
5e-05
5e-05
5e-05
5e-05
5e-05
5e-05
5e-05
5e-05
5e-05
5e-05
5e-05
5e-05
5e-05
5e-05
5e-05
5e-05
5e-05
5e-05
5e-05
5e-05
5e-05
5e-05
5e-05
5e-05
5e-05
5e-05
5e-05
5e-05
5e-05
5e-05
5e-05
5e-05
5e-05
5e-05
5e-05
5e-05
5e-05
5e-05
5e-05
5e-05
5e-05
5e-05
5e-05
5e-05
5e-05
5e-05
5e-05
5e-05
5e-05
5e-05
5e-05
5e-05
5e-05
5e-05
5e-05
5e-05
5e-05
5e-05
5e-05
5e-05
5e-05
5e-05
5e-05
5e-05
5e-05
5e-05
5e-05
5e-05
5e-05
5e-05
5e-05
5e-05
5e-05
5e-05
5e-05
5e-05
5e-05
5e-05
5e-05
5e-05
5e-05
5e-05
5e-05
5e-05
5e-05
5e-05
5e-05
5e-05
5e-05
5e-05
5e-05
5e-05
5e-05
5e-05
5e-05
5e-05
5e-05
5e-05
5e-05
5e-05
5e-05
5e-05
5e-05
5e-05
5e-05
5e-05
5e-05
5e-05
5e-05
5e-05
5e-05
5e-05
5e-05
5e-05
5e-05
5e-05
5e-05
5e-05
5e-05
5e-05
5e-05
5e-05
5e-05
5e-05
5e-05
5e-05
5e-05
5e-05
5e-05
5e-05
5e-05
5e-05
5e-05
5e-05
5e-05
5e-05
5e-05
5e-05
5e-05
5e-05
5e-05
5e-05
5e-05
5e-05
5e-05
5e-05
5e-05
5e-05
5e-05
5e-05
5e-05
5e-05
5e-05
5e-05
5e-05
5e-05
5e-05
5e-05
5e-05
5e-05
5e-05
5e-05
5e-05
5e-05
5e-05
5e-05
5e-05
5e-05
5e-05
5e-05
5e-05
5e-05
5e-05
5e-05
5e-05
5e-05
5e-05
5e-05
5e-05
5e-05
5e-05
5e-05
5e-05
5e-05
5e-05
5e-05
5e-05
5e-05
5e-05
5e-05
5e-05
5e-05
5e-05
5e-05
5e-05
5e-05
5e-05
5e-05
5e-05
5e-05
5e-05
5e-05
5e-05
5e-05
5e-05
5e-05
5e-05
5e-05
5e-05
5e-05
5e-05
5e-05
5e-05
5e-05
5e-05
5e-05
5e-05
5e-05
5e-05
5e-05
5e-05
5e-05
5e-05
5e-05
5e-05
5e-05
5e-05
5e-05
5e-05
5e-05
5e-05
5e-05
5e-05
5e-05
5e-05
5e-05
5e-05
5e-05
5e-05
5e-05
5e-05
5e-05
5e-05
5e-05
5e-05
5e-05
5e-05
5e-05
5e-05
5e-05
5e-05
5e-05

SCALARS mass float 1
LOOKUP_TABLE default
1.46608e-10
1.46608e-10
1.46608e-10
1.46608e-10
1.46608e-10
1.46608e-10
1.46608e-10
1.46608e-10
1.46608e-10
1.46608e-10
1.46608e-10
1.46608e-10
1.46608e-10
1.46608e-10
1.46608e-10
1.46608e-10
1.46608e-10
1.46608e-10
1.46608e-10
1.46608e-10
1.46608e-10
1.46608e-10
1.46608e-10
1.46608e-10
1.46608e-10
1.46608e-10
1.46608e-10
1.46608e-10
1.46608e-10
1.46608e-10
1.46608e-10
1.46608e-10
1.46608e-10
1.46608e-10
1.46608e-10
1.46608e-10
1.46608e-10
1.46608e-10
1.46608e-10
1.46608e-10
1.46608e-10
1.46608e-10
1.46608e-10
1.46608e-10
1.46608e-10
1.46608e-10
1.46608e-10
1.46608e-10
1.46608e-10
1.46608e-10
1.46608e-10
1.46608e-10
1.46608e-10
1.46608e-10
1.46608e-10
1.46608e-10
1.46608e-10
1.46608e-10
1.46608e-10
1.46608e-10
1.46608e-10
1.46608e-10
1.46608e-10
1.46608e-10
1.46608e-10
1.46608e-10
1.46608e-10
1.46608e-10
1.46608e-10
1.46608e-10
1.46608e-10
1.46608e-10
1.46608e-10
1.46608e-10
1.46608e-10
1.46608e-10
1.46608e-10
1.46608e-10
1.46608e-10
1.46608e-10
1.46608e-10
1.46608e-10
1.46608e-10
1.46608e-10
1.46608e-10
1.46608e-10
1.46608e-10
1.46608e-10
1.46608e-10
1.46608e-10
1.46608e-10
1.46608e-10
1.46608e-10
1.46608e-10
1.46608e-10
1.46608e-10
1.46608e-10
1.46608e-10
1.46608e-10
1.46608e-10
1.46608e-10
1.46608e-10
1.46608e-10
1.46608e-10
1.46608e-10
1.46608e-10
1.46608e-10
1.46608e-10
1.46608e-10
1.46608e-10
1.46608e-10
1.46608e-10
1.46608e-10
1.46608e-10
1.46608e-10
1.46608e-10
1.46608e-10
1.46608e-10
1.46608e-10
1.46608e-10
1.46608e-10
1.46608e-10
1.46608e-10
1.46608e-10
1.46608e-10
1.46608e-10
1.46608e-10
1.46608e-10
1.46608e-10
1.46608e-10
1.46608e-10
1.46608e-10
1.46608e-10
1.46608e-10
1.46608e-10
1.46608e-10
1.46608e-10
1.46608e-10
1.46608e-10
1.46608e-10
1.46608e-10
1.46608e-10
1.46608e-10
1.46608e-10
1.46608e-10
1.46608e-10
1.46608e-10
1.46608e-10
1.46608e-10
1.46608e-10
1.46608e-10
1.46608e-10
1.46608e-10
1.46608e-10
1.46608e-10
1.46608e-10
1.46608e-10
1.46608e-10
1.46608e-10
1.46608e-10
1.46608e-10
1.46608e-10
1.46608e-10
1.46608e-10
1.46608e-10
1.46608e-10
1.46608e-10
1.46608e-10
1.46608e-10
1.46608e-10
1.46608e-10
1.46608e-10
1.46608e-10
1.46608e-10
1.46608e-10
1.46608e-10
1.46608e-10
1.46608e-10
1.46608e-10
1.46608e-10
1.46608e-10
1.46608e-10
1.46608e-10
1.46608e-10
1.46608e-10
1.46608e-10
1.46608e-10
1.46608e-10
1.46608e-10
1.46608e-10
1.46608e-10
1.46608e-10
1.46608e-10
1.46608e-10
1.46608e-10
1.46608e-10
1.46608e-10
1.46608e-10
1.46608e-10
1.46608e-10
1.46608e-10
1.46608e-10
1.46608e-10
1.46608e-10
1.46608e-10
1.46608e-10
1.46608e-10
1.46608e-10
1.46608e-10
1.46608e-10
1.46608e-10
1.46608e-10
1.46608e-10
1.46608e-10
1.46608e-10
1.46608e-10
1.46608e-10
1.46608e-10
1.46608e-10
1.46608e-10
1.46608e-10
1.46608e-10
1.46608e-10
1.46608e-10
1.46608e-10
1.46608e-10
1.46608e-10
1.46608e-10
1.46608e-10
1.46608e-10
1.46608e-10
1.46608e-10
1.46608e-10
1.46608e-10
1.46608e-10
1.46608e-10
1.46608e-10
1.46608e-10
1.46608e-10
1.46608e-10
1.46608e-10
1.46608e-10
1.46608e-10
1.46608e-10
1.46608e-10
1.46608e-10
1.46608e-10
1.46608e-10
1.46608e-10
1.46608e-10
1.46608e-10
1.46608e-10
1.46608e-10
1.46608e-10
1.46608e-10
1.46608e-10
1.46608e-10
1.46608e-10
1.46608e-10
1.46608e-10
1.46608e-10
1.46608e-10
1.46608e-10
1.46608e-10
1.46608e-10
1.46608e-10
1.46608e-10
1.46608e-10
1.46608e-10
1.46608e-10
1.46608e-10
1.46608e-10
1.46608e-10
1.46608e-10
1.46608e-10
1.46608e-10
1.46608e-10
1.46608e-10
1.46608e-10
1.46608e-10

VECTORS velocity float
0.00476332 -0.000194865 7.37536e-05
0.00448418 -0.000130065 3.68162e-05
0.0048042 -0.000188978 7.91076e-05
0.00479204 -0.000191292 7.41625e-05
0.00440328 -0.000120199 0.000151156
0.00451887 0.000101528 -0.00012742
0.00439466 -0.000119644 0.000148059
0.00496221 6.40672e-06 -6.85015e-05
0.00451035 -0.000121842 3.4423e-05
0.00453751 -0.000128256 0.00015673
0.00484863 4.89121e-05 -9.37776e-05
0.00451256 -0.000120825 3.44862e-05
0.00472905 -0.000415015 0.000612286
0.00450965 -0.000123113 3.4221e-05
0.00456054 0.000507289 0.000718171
0.00451757 0.000131603 2.48641e-05
0.00461558 -0.000123844 7.97994e-05
0.00474324 -0.000190516 8.53316e-05
0.00439558 -0.000117138 0.000147474
0.00487698 -0.000192865 7.87663e-05
0.00481149 4.80321e-05 -8.87919e-05
0.00468574 -0.00017539 7.46962e-05
0.00469768 5.32233e-05 -9.70182e-05
0.00452721 0.000489337 0.00061996
0.00457747 -0.000123904 -1.55892e-05
0.00448332 9.62232e-05 -0.000126228
0.00441869 -0.000103475 2.88761e-05
0.00448253 -0.000149045 3.20059e-05
0.0045738 9.991e-05 -0.000127686
0.00443472 -0.000123533 4.93902e-05
0.00450741 -0.000124822 3.50362e-05
0.00478161 0.000182329 2.67304e-05
0.00446048 -0.000140203 5.12916e-05
0.00451438 -0.000146065 0.000167927
0.00451652 -0.00013891 5.86693e-05
0.004485 -0.00012493 3.44525e-05
0.00441817 -0.000106995 3.10199e-05
0.00476421 -0.000202093 8.53619e-05
0.00459787 8.67501e-05 -0.000121963
0.00469715 4.27668e-05 -8.97303e-05
0.00430063 -8.9118e-05 0.000129424
0.00476856 -0.000194794 8.31932e-05
0.00467048 6.47152e-05 -0.000107972
0.00485697 -0.000256625 0.000126766
0.0049002 -3.14583e-05 0.000493016
0.00492365 0.000418574 0.000848905
0.00447487 -0.000139418 3.28407e-05
0.00460786 7.36333e-05 -0.000115774
0.00347684 0.000408598 0.00046602
0.00482052 5.07324e-05 -9.6532e-05
0.00449641 -0.000137053 3.84316e-05
0.00439529 -0.000109654 0.000140437
0.00458285 -0.000154187 0.00017412
0.0047964 -0.000212484 0.000101371
0.00477267 3.82333e-05 -8.28334e-05
0.00445422 -0.000109111 0.000143815
0.00465403 -0.000509385 -0.000388321
0.00450826 -0.000121286 3.42207e-05
0.00464079 0.000470504 0.000676778
0.00467687 -0.000155991 0.000177748
0.00455523 0.000121267 2.68861e-05
0.00349295 0.000453715 0.000358558
0.00489966 4.36206e-05 -8.12054e-05
0.00448397 -0.00012838 0.000156404
0.00455374 -0.000114456 0.000148676
0.00442902 -0.000115557 4.74495e-05
0.00443937 0.000146329 2.45149e-05
0.00444742 -0.000111365 3.01643e-05
0.00478053 0.000527959 0.000648306
0.00468997 0.000432916 0.000689561
0.00446925 -0.000142247 3.3365e-05
0.00423217 -0.00095791 0.000143419
0.00474242 0.000450197 0.000725452
0.0048015 0.000539739 0.000638841
0.00498157 4.44642e-05 1.78541e-05
0.0033044 0.000758526 1.01661e-05
0.00449231 -2.85888e-05 -1.97754e-05
0.0051329 -1.9853e-05 -4.8145e-05
0.00461936 -0.000157368 0.000176845
0.00475078 -0.000245117 0.000114943
0.00456792 -0.00013067 0.000159185
0.00439067 -0.000100873 0.000138147
0.0047389 -0.00015438 6.12165e-05
0.00474598 -0.000191817 0.00010915
0.00466353 -0.000142368 0.000167083
0.00447786 -0.000129467 3.52417e-05
0.00441484 -0.000116262 3.26248e-05
0.0044274 -0.000104858 3.3268e-05
0.00490626 0.000407185 0.000822348
0.00449826 -0.000126219 3.45051e-05
0.00490374 0.000325251 0.000644041
0.00465433 0.000100416 -0.000101076
0.0044615 -0.000124296 3.27113e-05
0.00471022 0.000439669 0.000728158
0.00489402 0.000373371 0.00080185
0.00479905 -0.0002238 0.00010994
0.00473644 0.000508713 0.000657738
0.00446672 -0.000136735 3.22901e-05
0.00476938 -0.000182173 7.74432e-05
0.00439995 -0.000107278 3.40294e-05
0.00426041 -7.76819e-05 0.00012319
0.00469144 0.000431701 0.000739563
0.00448644 -0.000127809 3.48795e-05
0.00401795 0.000471024 0.000515192
0.00471287 -0.000132769 0.000166535
0.00476787 -0.000186836 8.09632e-05
0.00451152 -0.000126978 0.00015587
0.00461963 -0.000460395 -0.000389139
0.00445928 0.000102979 -0.000130173
0.00482539 -0.000178179 7.54127e-05
0.00477607 -0.000161303 6.77966e-05
0.00461792 -0.000120555 0.000154219
0.00490192 -0.000279731 -0.000154506
0.00449468 -0.000128741 3.39374e-05
0.00448072 -0.000144429 3.14603e-05
0.00454562 -0.00014931 0.000170451
0.00462235 0.000415807 0.000704948
0.00451104 -0.000120328 3.46637e-05
0.00469866 0.000395597 0.000775909
0.00425171 -7.89684e-05 0.000122094
0.00430231 4.00689e-05 0.000319477
0.00477158 -0.000194975 5.94552e-05
0.00476161 -0.000212244 9.61271e-05
0.00475224 -0.000211268 9.96135e-05
0.0046072 -0.000133231 0.000161629
0.00450496 -0.000309221 -0.00245878
0.00475165 -9.06477e-05 9.11033e-05
0.00465276 -0.000127027 0.000157639
0.00466209 -0.000144891 0.000169684
0.00448605 -0.000126473 3.34007e-05
0.00485022 -3.09851e-05 0.000363162
0.00422804 -7.23087e-05 0.000118119
0.00447128 -0.000138745 3.53349e-05
0.00469962 -0.00014271 0.000173426
0.00453477 -0.000111692 0.000147093
0.00475867 0.000520475 0.000650163
0.0044665 -0.00012159 4.06163e-05
0.00474274 -0.00014824 5.80591e-05
0.00445538 -0.000128909 0.000156427
0.0046939 0.000395851 0.000779116
0.0043863 -0.000129959 9.27981e-06
0.00401794 0.000470395 0.00050774
0.00470915 0.000398608 0.000776063
0.00474076 -0.000337882 -0.000390886
0.00487717 -0.00021787 9.97944e-05
0.0047679 -0.000374231 -0.000391485
0.00449852 -0.000126783 3.47289e-05
0.00480287 0.00042421 0.00077826
0.00464016 -0.000139236 0.000165812
0.00464338 -0.000402983 -0.000391899
0.00467354 -0.000132072 0.000159783
0.00490761 0.00039217 0.000907446
0.0046397 -0.000146436 0.00016916
0.00386928 0.000808143 9.8017e-05
0.00443326 -0.000135977 6.88549e-05
0.00490099 -0.000345355 -0.000367727
0.00463921 0.00126071 0.00016165
0.00449374 -0.000133233 3.49016e-05
0.0050175 0.000469363 -0.00100483
0.00477309 -0.000208761 9.64137e-05
0.00472421 0.000408206 0.000770983
0.00466776 0.000449595 0.000730802
0.00450723 0.000495155 0.000729288
0.00460602 -0.000390574 -0.000385111
0.00481398 0.000429007 0.000786865
0.00451095 0.00049074 0.00061876
0.00429449 -0.000104486 9.31308e-06
0.00476215 -0.000420013 0.000562419
0.00449027 -0.000151991 3.5635e-05
0.00431726 -0.000174144 0.000286052
0.00444266 -0.000120198 4.36118e-05
0.00305622 0.000493388 0.000230754
0.00469129 0.000440637 0.000732217
0.00450844 0.000138536 2.63422e-05
0.00477919 -0.000192172 9.54566e-05
0.00472179 -0.000153525 0.000173299
0.00469835 0.000421756 0.000750591
0.00458954 7.72582e-06 -3.18259e-05
0.00488866 0.000415698 0.000804651
0.00450351 -0.000122923 3.42599e-05
0.00434555 -9.41151e-05 0.000130924
0.00488934 0.000604153 0.000650516
0.00503179 4.79862e-05 0.000375214
0.0048745 -0.000201744 0.000107787
0.00487716 0.00013368 0.000696976
0.00496703 3.64343e-05 0.000395302
0.0046167 0.000393287 0.00078202
0.00501907 0.000508821 0.000731658
0.0047468 -0.000378559 -0.000384496
0.00449271 -0.000149223 3.42963e-05
0.00481331 0.000566628 0.00058951
0.00477149 0.000436043 0.000750222
0.00478826 0.000434274 0.00079386
0.0046688 0.000454821 0.000698329
0.00471001 -0.000399548 -0.000451739
0.00469909 0.00039468 0.000770013
0.00448973 -0.000123976 3.38304e-05
0.00447193 -0.000109398 0.000144563
0.0045472 0.000130302 2.62204e-05
0.00458463 -0.00011668 0.000150701
0.00472406 0.000422546 0.00075155
0.00450418 -0.000110908 0.00014618
0.0044403 -0.000132325 4.6876e-05
0.00449723 -0.000128637 3.45028e-05
0.00448548 0.000542235 0.000547699
0.00447287 -0.000138206 3.33313e-05
0.00340465 0.000513625 0.000308554
0.0046079 0.000406742 0.000734162
0.00453318 0.000131621 2.6216e-05
0.00461155 0.000425488 0.000732934
0.00489345 0.000409584 0.000770512
0.00461212 0.000454563 0.000686896
0.0046997 0.000468129 0.000743008
0.00503164 0.00016205 0.000390842
0.00477134 0.000419424 0.000768626
0.00490046 0.000341738 0.000832683
0.0046566 -0.000143871 0.000167329
0.00474076 -0.000197902 8.94224e-05
0.00462417 -0.00035622 -0.000383632
0.0035222 0.000484346 0.000396556
0.00481233 0.000114036 0.000366058
0.00463784 0.000425866 0.000725557
0.00479727 -2.27037e-05 0.000352796
0.00482116 0.000353217 0.000881022
0.0044671 0.000450681 0.000636126
0.00478354 -2.04115e-05 0.000350625
0.004811 -2.49936e-05 0.000354961
0.00482137 -0.000365482 -0.000398277
0.00482538 -0.000176539 -1.99214e-05
0.00487783 -0.000200988 8.99114e-05
0.00468917 -0.000134176 0.000160036
0.00327561 0.000446755 0.000434947
0.0043922 -0.000102283 0.000134481
6.80256e-15 2.2988e-14 -7.03252e-14
0.00482472 -2.72862e-05 0.000357127
0.00469397 -0.000342918 -0.000386163
0.00489035 0.000418349 0.000813924
0.00414895 0.000511319 0.000502363
0.0049246 0.00024637 0.000477282
0.00480031 0.000481357 0.000705436
0.00482826 0.000427666 0.000790564
0.00486898 0.000432152 0.000837435
0.00447459 -0.000136914 3.66891e-05
0.00448793 0.000172576 0.000370095
0.00485986 0.000494247 0.000733443
0.00482533 -0.000176533 -1.99285e-05
0.00471094 0.000549279 0.000709267
0.00323706 0.000436449 0.000406939
0.00448561 -0.000144545 0.000166477
0.00472854 -8.4274e-05 -0.000317703
0.00449235 -0.000322643 -0.00240248
0.00465889 -0.00049804 0.000696094
0.00478745 0.000268675 0.000950603
0.00459457 -0.00041432 -0.000382972
0.00493312 0.000711535 0.000761651
0.00476319 0.000468385 0.000755301
0.00435946 -0.000168569 0.000269577
0.00469431 -0.000262863 -0.000379357
0.00465633 0.000549444 0.000717949
0.00471544 -0.000170682 5.90056e-05
-1.28102e-14 6.09119e-14 -1.90219e-13
0.00482528 -0.000176509 -1.99362e-05
0.00491045 -0.000163269 0.000208542
0.0048253 -0.000176518 -1.9934e-05
0.00482535 -0.000176547 -1.99214e-05
0.00475453 0.000432776 0.000766584
0.00412019 0.000495387 0.000536474
0.00485646 0.000464943 0.000772526
0.00447303 -0.000138303 3.29314e-05
0.00484729 0.000503005 0.000737512
0.00501928 0.000271875 0.0010299
0.00473256 0.000541035 0.000730033
0.00471171 -0.000285489 -6.96062e-05
0.00448755 -0.000116758 3.26843e-05
0.00455253 0.000426553 0.000701958
0.00479435 0.000429 0.000771259
0.00475858 -0.00019585 8.93899e-05
0.0047475 -0.000168954 0.000104658
0.00506158 -7.64051e-07 0.000495052
0.00483351 -0.000178259 7.45278e-05

VECTORS force float
-2.01076e-10 1.17868e-10 8.57338e-11
7.78723e-12 -9.55882e-11 3.11755e-11
-1.64724e-11 8.60628e-11 -1.50712e-10
4.10576e-10 2.10477e-11 -2.57941e-10
6.71563e-11 2.98351e-11 -5.53156e-11
-3.16049e-10 5.1648e-11 -7.06781e-11
9.82145e-12 1.21401e-11 -1.5643e-10
9.42811e-11 3.38577e-10 -6.40323e-11
1.40625e-11 7.70442e-11 5.92227e-12
-3.75254e-12 5.79283e-11 -2.85355e-11
-3.32228e-10 -5.34941e-11 8.14455e-12
1.57972e-11 5.7774e-11 3.8963e-12
-3.01826e-10 4.75313e-11 -8.67596e-10
6.29568e-12 8.29959e-11 2.5533e-12
1.55258e-10 8.90338e-11 -1.99828e-10
1.51097e-10 -1.4541e-11 -4.72883e-12
9.79593e-11 -2.58237e-11 8.34247e-11
5.46305e-11 1.91465e-11 -6.76444e-11
5.84417e-12 7.22662e-11 -6.99846e-11
-8.77398e-11 -1.36448e-10 1.15631e-10
7.3046e-11 2.14952e-10 -1.07048e-10
-2.19791e-10 -1.14292e-11 2.56638e-11
1.87447e-10 3.7822e-12 8.10505e-11
-1.02266e-09 -5.92521e-11 -1.18988e-10
-2.06519e-10 6.29624e-12 -6.27856e-11
1.6406e-10 -6.97877e-11 3.11477e-11
-2.77418e-11 -5.17447e-11 -1.88216e-11
-1.32928e-10 -6.26857e-12 -5.49391e-13
-6.16643e-11 1.18084e-10 -1.01881e-10
9.62873e-11 -2.07593e-11 1.92515e-10
-1.21517e-11 7.62331e-11 4.68011e-12
-3.04239e-10 5.58899e-11 -1.09588e-11
8.93749e-11 -1.85213e-10 1.13381e-10
-1.79134e-11 7.11658e-11 -4.7817e-11
-3.44899e-10 -1.12345e-10 8.91563e-11
-2.18947e-10 -5.01756e-11 -1.21225e-11
-1.77312e-10 3.94647e-11 -1.10655e-11
-6.33839e-11 8.3507e-11 7.29259e-11
2.08375e-10 -3.1913e-11 2.24394e-11
-2.7846e-10 1.71553e-11 4.27164e-11
4.90319e-11 5.13873e-11 -4.53594e-11
3.44311e-11 1.32763e-10 -8.40158e-11
2.93959e-10 -2.94764e-10 2.1204e-10
-3.03213e-10 4.50768e-11 1.96094e-11
8.78771e-10 -2.42603e-09 -2.29658e-09
1.37283e-09 -2.09118e-10 6.14708e-10
-3.99161e-11 -8.76207e-12 9.8773e-12
1.69946e-10 -2.88789e-10 1.88302e-10
2.45777e-10 -7.58031e-10 9.52395e-10
-1.53455e-11 1.27968e-10 -8.03101e-11
-2.96757e-11 9.68819e-11 2.01571e-11
-3.37902e-11 1.41552e-10 -7.48167e-11
1.48012e-11 -3.26251e-12 4.94196e-12
-2.85281e-10 1.79818e-10 -6.13724e-11
-4.0621e-10 4.43675e-11 -3.30737e-11
-6.04596e-11 7.90152e-12 -2.25536e-11
5.2222e-11 1.49923e-10 -6.78687e-11
-4.38719e-12 4.43446e-11 1.93312e-12
1.43928e-10 4.35529e-11 -5.14469e-11
1.2453e-10 -2.03851e-10 1.04673e-10
2.58827e-11 1.27888e-12 3.35801e-12
-5.75261e-10 -2.30566e-10 -1.55873e-10
-2.32916e-10 1.59599e-10 6.35924e-11
9.13783e-11 5.32892e-11 -3.09517e-11
3.86656e-11 2.77368e-11 -1.75308e-11
3.08029e-11 -9.14495e-11 1.13855e-10
-1.74586e-11 3.51778e-11 4.09032e-11
7.59702e-11 1.29545e-11 -6.46682e-11
7.72362e-11 2.56335e-10 -2.78194e-10
1.09369e-10 -1.40968e-10 -7.49944e-11
8.73586e-11 -1.25596e-10 -6.45308e-12
-1.57928e-10 3.59519e-11 -3.01163e-11
4.91518e-09 3.17149e-10 1.11512e-09
9.46971e-11 2.43767e-10 -2.44248e-10
-4.65601e-10 1.67209e-10 -2.62831e-11
-3.95117e-10 4.50251e-11 3.95898e-10
1.16181e-10 2.35149e-10 -1.38695e-10
-2.61565e-10 4.2203e-10 -5.03268e-11
1.99355e-11 -1.09217e-11 5.54804e-12
-1.07253e-10 2.02891e-10 -8.14389e-11
-2.99451e-11 -9.96339e-12 -3.57961e-12
-5.23642e-11 4.8456e-11 -3.54511e-11
-2.56726e-10 8.00147e-11 -6.07116e-12
7.22076e-11 -1.47921e-11 -6.72886e-11
-5.16847e-11 -4.1057e-11 2.89362e-11
-1.7778e-10 -1.71476e-10 -8.24326e-11
2.08419e-11 -2.00022e-10 -1.49339e-10
-2.61488e-10 -1.80921e-10 9.43671e-11
2.60195e-10 2.63668e-11 -3.07622e-10
-1.66452e-12 -8.63441e-13 -5.74517e-12
3.45644e-10 2.07793e-10 -1.99937e-10
-3.03421e-10 3.00502e-10 -8.43708e-11
-1.0764e-10 -4.97747e-11 2.48413e-11
2.84194e-10 2.15766e-10 4.30609e-12
-2.49505e-11 -8.22498e-10 -3.22001e-10
-1.02038e-10 1.08212e-11 6.4858e-11
9.45942e-11 2.61246e-10 -2.65067e-10
2.45433e-11 -1.33354e-10 -7.00026e-12
-2.94112e-10 1.00265e-10 -2.39094e-12
-3.08449e-11 -7.37803e-12 -6.7059e-11
3.78271e-11 3.63999e-11 -2.37343e-11
2.26537e-10 2.34461e-10 -4.37291e-10
8.12078e-11 -1.453e-10 -1.92615e-11
-6.59078e-11 -4.48173e-11 2.58148e-10
8.85609e-11 1.59133e-10 -1.47766e-11
8.61586e-11 1.44467e-10 -1.47214e-10
-3.32084e-11 3.71426e-11 -1.30826e-11
-4.88965e-11 -1.73562e-10 9.05033e-12
3.57029e-11 -3.40399e-11 3.48619e-11
-1.33073e-10 6.4691e-11 -4.24016e-11
1.05359e-10 2.05684e-10 -1.22217e-10
3.03827e-11 -3.17471e-11 2.83997e-11
-7.1689e-10 -5.96231e-10 1.69363e-10
3.89063e-11 -6.72736e-11 -2.13044e-11
-1.13122e-10 6.95628e-11 2.39807e-11
-3.12079e-12 2.30127e-11 -1.53066e-11
-3.53161e-10 -5.36554e-10 4.98768e-10
1.14795e-11 5.2497e-11 -2.20011e-12
4.15638e-10 1.61355e-10 -6.32905e-11
-1.69017e-11 -3.41401e-11 1.97635e-11
1.54506e-10 4.86589e-11 -4.67046e-10
-2.43263e-10 1.07855e-10 2.09581e-10
-5.38602e-12 -1.00703e-10 6.62521e-11
1.12582e-10 1.62669e-10 -3.79301e-11
-3.42194e-11 -2.76748e-11 1.91263e-11
-1.048e-09 -1.08287e-09 1.12207e-09
1.03034e-10 -2.97533e-11 7.07463e-11
-8.50357e-11 -2.16139e-11 7.71091e-12
-5.96361e-12 -4.47877e-11 1.46853e-11
-6.56096e-11 1.24502e-11 -1.86855e-12
-3.05707e-10 -1.56896e-10 -5.20685e-11
4.37334e-11 -3.12768e-11 2.95309e-11
1.44475e-10 -1.13046e-10 3.3171e-11
1.53306e-10 5.44917e-11 2.49681e-11
-4.9437e-11 7.77774e-11 -3.60755e-11
8.65836e-11 2.58122e-10 -2.69469e-10
-5.89829e-12 -1.08164e-10 2.25079e-11
1.24821e-10 1.97373e-10 -8.78107e-11
-8.66488e-11 3.83943e-11 -2.9195e-11
-5.30735e-10 9.26495e-12 7.6792e-11
1.7382e-10 -1.18277e-10 -4.14339e-11
-1.01303e-10 2.51407e-10 9.89835e-10
1.43958e-10 1.6787e-10 -1.49169e-10
1.05598e-10 1.38721e-10 6.51881e-11
-3.40654e-10 1.17938e-10 2.32758e-11
2.80648e-10 1.34525e-10 -4.36158e-11
-3.6407e-12 5.04404e-11 7.55163e-13
1.56831e-09 -2.07645e-10 5.55533e-10
6.65796e-12 -1.16301e-11 3.33037e-12
9.63957e-11 2.88056e-11 1.67062e-10
-3.52385e-11 3.96993e-11 -1.76312e-11
3.84507e-10 -7.67667e-11 -9.60065e-10
1.03225e-10 -1.76443e-10 1.25821e-10
-5.86489e-10 5.62485e-10 -8.65012e-10
-3.0411e-11 -1.99204e-10 9.59057e-11
-1.89474e-10 1.48388e-10 -7.34129e-10
-1.43315e-09 -4.89815e-10 7.07353e-10
7.6242e-11 -7.56586e-11 5.12572e-13
1.77078e-09 3.15514e-09 5.82148e-09
-1.39405e-10 8.63053e-12 4.43672e-11
-2.95039e-10 -1.07768e-09 1.35141e-09
1.48503e-10 3.98538e-10 -2.79947e-10
1.24336e-12 -1.26152e-10 -1.60218e-10
-3.09487e-11 -2.77205e-11 2.7237e-12
-9.52932e-10 -2.13828e-10 -1.94861e-10
-4.3958e-10 1.69677e-10 -1.57883e-10
7.82108e-11 4.11347e-11 8.66128e-11
-3.06029e-10 -6.90561e-10 -3.99547e-10
-1.06182e-10 -2.74774e-12 2.21677e-11
1.93964e-11 2.61336e-10 -7.24838e-11
-7.1255e-12 -1.15454e-10 1.56585e-11
-4.77694e-10 -1.59584e-11 3.30647e-10
-2.18416e-11 5.27001e-11 -1.04438e-10
8.62502e-11 9.43198e-11 -1.97243e-11
9.16624e-11 6.57049e-11 -2.72041e-10
5.71217e-11 1.10875e-10 -3.53378e-11
2.30176e-10 2.35357e-10 -3.53612e-10
-1.13592e-10 5.77091e-11 -1.61796e-10
4.03229e-10 1.85158e-11 1.1122e-10
-1.53789e-11 1.6156e-11 2.78972e-12
-9.48487e-11 9.03633e-11 -5.60314e-11
5.02864e-11 4.69623e-10 -8.36549e-10
6.38887e-10 -7.94956e-12 2.78179e-10
9.59485e-11 2.32622e-10 7.57596e-11
5.41421e-10 -2.37156e-09 -2.44831e-09
-4.8203e-10 -6.37436e-10 1.1272e-10
-1.88386e-10 2.04047e-10 -5.78994e-10
1.35079e-10 -9.78185e-10 1.11243e-09
1.55958e-10 2.30117e-10 2.63914e-10
-2.02944e-12 -9.37757e-11 -1.39185e-12
8.06264e-11 7.8204e-11 -3.31537e-10
2.64124e-11 2.05684e-10 -2.13509e-10
-1.65174e-10 2.98984e-10 -4.61863e-10
9.65276e-10 9.63126e-11 4.49664e-11
8.11006e-11 4.0215e-11 2.71072e-10
-2.04228e-10 2.45339e-10 -3.89344e-10
3.2869e-11 -1.31069e-10 1.10794e-11
5.76051e-13 -1.33315e-11 -5.75939e-12
-4.94227e-12 -5.03099e-12 5.39828e-12
-5.3402e-11 -2.95896e-11 1.65666e-11
3.77577e-10 6.27379e-11 -2.33331e-10
-1.22587e-10 -4.89317e-11 2.4636e-11
1.55238e-10 -3.16522e-11 -1.66118e-11
4.27891e-11 -2.91187e-11 -1.60679e-12
-3.14848e-10 -7.39021e-10 -3.08659e-11
-6.77297e-11 1.88087e-11 -2.59174e-12
-6.12501e-10 -5.23458e-11 -1.05147e-10
1.59651e-10 -1.5145e-10 1.94355e-10
-3.36707e-11 -6.77132e-11 -1.70996e-11
2.44637e-10 3.4737e-10 -2.45532e-10
3.38966e-10 -1.60841e-10 -3.79123e-10
-2.74866e-10 9.16679e-11 -1.9594e-10
-1.70855e-10 4.07121e-10 -1.92598e-10
2.14646e-10 4.58641e-10 -8.32893e-11
-6.3668e-11 1.41198e-10 -1.01516e-10
2.8677e-10 1.71353e-10 -5.70662e-10
9.37128e-11 -6.16906e-11 -2.6478e-11
-2.36677e-11 -1.92686e-10 -9.58116e-12
9.58576e-11 1.64984e-10 1.72574e-11
3.75193e-10 -2.17522e-10 4.96518e-10
2.80149e-10 6.38871e-11 -5.54481e-11
6.82572e-10 1.87406e-10 -2.43011e-11
3.01424e-13 4.25585e-13 -2.2106e-13
-7.90838e-10 2.01605e-10 -8.1818e-10
8.03457e-12 2.14988e-10 -3.38049e-10
4.00682e-13 3.45279e-13 -1.47661e-13
2.9469e-13 3.45712e-13 -2.52172e-13
3.4884e-10 -2.19058e-10 -9.49194e-11
2.52983e-13 3.19754e-13 -3.65043e-13
-2.54586e-10 1.23841e-10 -6.26584e-11
8.56619e-11 8.25533e-11 -4.27019e-11
-1.7994e-10 -9.81751e-11 -5.99761e-11
-7.37039e-11 1.59841e-10 -8.92102e-11
6.33569e-23 5.48007e-24 7.44463e-24
-5.26142e-14 2.67938e-13 1.04674e-14
-3.99693e-11 -6.27595e-11 4.09608e-11
9.84475e-10 5.71431e-11 1.55297e-10
-5.1783e-10 -1.73979e-10 4.01001e-11
1.9043e-10 4.59023e-10 -2.51368e-10
4.02377e-10 -7.92891e-10 9.5354e-10
-1.60857e-09 -3.33664e-10 -4.0263e-10
-7.74101e-11 4.4825e-10 -9.39726e-10
1.21155e-10 -1.47541e-10 1.83263e-11
2.50302e-10 -1.04101e-10 -6.70075e-12
1.53257e-10 -1.72795e-10 -3.46391e-10
1.1687e-13 4.97828e-14 -2.66531e-14
7.20253e-11 6.73574e-11 -9.25474e-11
-3.66643e-10 -3.18286e-10 2.31726e-10
2.89926e-11 9.0975e-11 -5.98239e-11
4.38471e-12 -5.47485e-11 -1.1865e-10
-5.89779e-10 -1.85228e-09 -2.60784e-10
1.28349e-10 4.42852e-10 1.14419e-10
-3.96782e-10 -4.96451e-11 -1.06122e-10
-1.43485e-11 -1.54062e-10 -2.05369e-11
1.80961e-10 2.43424e-10 -2.53055e-09
-4.90581e-10 1.82683e-10 -5.62844e-10
-4.25697e-10 -3.06289e-11 -2.33227e-11
2.50207e-10 -7.58452e-13 -7.86737e-11
-9.75059e-11 2.04901e-11 -2.01964e-10
1.93427e-10 7.49447e-11 3.22117e-11
-4.51977e-22 -8.97491e-23 6.61744e-24
-4.15678e-14 2.47881e-13 -7.98482e-14
-4.87826e-10 2.03123e-12 1.0506e-09
5.51113e-14 1.54317e-13 -5.44711e-14
2.08672e-13 2.11146e-13 -1.22122e-13
5.80373e-12 -9.08295e-10 7.20951e-10
6.90063e-10 -2.73926e-10 -4.28148e-11
-3.14161e-10 4.86912e-10 -8.50238e-10
2.39259e-11 -9.1812e-11 7.43817e-12
5.61805e-10 2.03399e-11 6.55055e-10
5.60049e-11 3.51669e-10 -9.1196e-11
-1.38489e-10 1.75873e-10 -1.5798e-10
-2.448e-10 4.98591e-10 -2.47749e-10
1.68261e-11 2.86312e-10 2.69129e-11
2.23259e-10 2.6781e-10 -3.20033e-10
-3.79373e-10 -1.03902e-10 1.24917e-10
-9.5708e-11 1.23288e-10 1.40404e-11
9.80571e-11 2.34228e-10 -3.77219e-11
-4.02423e-10 5.89029e-11 -4.63477e-10
-3.10893e-10 4.76681e-11 -5.77211e-11
