# vtk DataFile Version 3.0
LIGGGHTS particles timestep 2000000
ASCII
DATASET POLYDATA
POINTS 291 float
0.0222148 0.0168265 0.00746867
0.0226031 0.0176667 0.00716607
0.0225235 0.0178208 0.00714172
0.0225785 0.018132 0.00709268
0.0220027 0.016687 0.00755654
0.0279878 0.0166209 0.00758792
0.0221792 0.0174747 0.00719389
0.0219828 0.0166056 0.00761099
0.0282812 0.0179725 0.0070951
0.0221195 0.0171841 0.0072387
0.0223709 0.0177078 0.00715872
0.0282421 0.0177814 0.00713895
0.0221595 0.0173778 0.00720926
0.0162761 0.017941 0.00703304
0.0223522 0.0178788 0.00712972
0.0162572 0.0178549 0.00708027
0.0220999 0.0170951 0.00727994
0.0281835 0.0174946 0.00720475
0.0220978 0.016715 0.0075405
0.0225085 0.0176348 0.00717057
0.0220226 0.0167685 0.00750209
0.0222791 0.0177466 0.0071503
0.028203 0.0175902 0.00718282
0.0222836 0.0175194 0.00718738
0.0280946 0.0170155 0.00731478
0.0167198 0.0199766 0.00709816
0.0221178 0.0167966 0.00748597
0.0279686 0.0165454 0.00765059
0.0221395 0.0172809 0.00722374
0.0222729 0.0179384 0.00711737
0.0280068 0.0166965 0.00752522
0.0222355 0.0173137 0.00722008
0.0223296 0.017347 0.00721442
0.0283009 0.0180681 0.00707317
0.0222155 0.0172179 0.00724055
0.022264 0.0174223 0.00720238
0.0281234 0.0172081 0.00727046
0.0221987 0.0175715 0.00717802
0.0221376 0.0168781 0.00743149
0.0222182 0.0176682 0.00716202
0.0224516 0.0178894 0.00713064
0.0226261 0.0178625 0.00713575
0.0280262 0.0167719 0.00746258
0.0281036 0.0171126 0.00729237
0.0220622 0.0169315 0.00739318
0.0224094 0.0176166 0.0071729
0.0280635 0.0169232 0.00733711
0.0224489 0.0183576 0.00705057
0.0169547 0.0198246 0.00706648
0.0281435 0.0173036 0.00724856
0.0222529 0.016987 0.0073555
0.016295 0.0180271 0.00698581
0.0223836 0.0175211 0.00718762
0.0280449 0.0168475 0.00739985
0.0167325 0.0196138 0.00706262
0.0282225 0.0176858 0.00716088
0.0224921 0.0174411 0.00720061
0.0220424 0.01685 0.00744764
0.0224102 0.0177987 0.0071448
0.0225865 0.0180129 0.00711216
0.0281635 0.0173991 0.00722666
0.021963 0.0165241 0.00766545
0.0168501 0.0198046 0.00707222
0.0224821 0.0177301 0.00715564
0.0167982 0.0195394 0.00705071
0.0222533 0.0178417 0.00713334
0.0283205 0.0181637 0.00705124
0.0163534 0.0183122 0.00692394
0.0282616 0.0178769 0.00711702
0.022081 0.017013 0.00733809
0.022579 0.0175648 0.00718181
0.0221959 0.0171251 0.0072723
0.0282386 0.017335 0.00724248
0.0225833 0.0193872 0.00687832
0.016413 0.0186041 0.00695937
0.0165647 0.0192825 0.00704164
0.0225867 0.0185823 0.00701596
0.0167676 0.0193105 0.00703111
0.0167413 0.0200739 0.00710587
0.0164778 0.0188949 0.00699463
0.0282183 0.0172391 0.00726446
0.0164344 0.0187011 0.00697113
0.0223946 0.0185186 0.00702155
0.0283368 0.0178129 0.00713282
0.0225118 0.0186471 0.00700282
0.0225449 0.0183893 0.00704778
0.022524 0.0182928 0.0070637
0.0223875 0.0180676 0.00709843
0.0226401 0.0184202 0.00704513
0.0226166 0.0191297 0.00692324
0.0224908 0.0185506 0.00701873
0.0225623 0.0192907 0.00689423
0.0226077 0.0186788 0.00700005
0.0225747 0.0189367 0.00695506
0.01677 0.0197448 0.00707237
0.0226737 0.0175968 0.0071773
0.0175971 0.0187166 0.00691378
0.0223122 0.0181322 0.00708533
0.0223099 0.0176294 0.00717041
0.0169826 0.0199457 0.00707599
0.0163923 0.018507 0.00694758
0.0223527 0.0183255 0.0070534
0.0163338 0.0182149 0.00693597
0.0221568 0.0169592 0.00737616
0.0224872 0.0180013 0.00711249
0.0224156 0.0186152 0.00700563
0.0225414 0.0191943 0.00691014
0.0166516 0.0196715 0.00707404
0.0224365 0.0187117 0.00698972
0.0171184 0.0200782 0.0070787
0.0225461 0.0179218 0.00712659
0.0224823 0.0175394 0.00718527
0.0219431 0.0164426 0.0077199
0.0172789 0.0200099 0.00706044
0.0279491 0.0164699 0.00771323
0.0223938 0.0174228 0.00720295
0.0219227 0.0163612 0.00777428
0.0226821 0.0186133 0.00701328
0.0165299 0.018731 0.00697444
0.0226705 0.0189682 0.00695232
0.0221756 0.0170391 0.00731908
0.0223925 0.0179692 0.00711541
0.0165213 0.0190887 0.00701814
0.0224699 0.0184541 0.00703465
0.0168307 0.0200304 0.00709518
0.0222925 0.0180352 0.00710136
0.016887 0.0198973 0.00707836
0.0226071 0.0177655 0.00715074
0.0223109 0.0172488 0.0072296
0.0224826 0.0180998 0.00709555
0.022234 0.0169068 0.00741225
0.0163145 0.0181244 0.00697398
0.0226495 0.0188717 0.00696823
0.0225658 0.0184858 0.00703187
0.0225031 0.0181963 0.00707961
0.0225537 0.0188403 0.00697097
0.0164561 0.018798 0.00698288
0.0224071 0.0181643 0.00708244
0.0224279 0.0182609 0.0070665
0.0223736 0.0184221 0.00703747
0.0227017 0.0177978 0.00714618
0.0163726 0.0184096 0.00693577
0.0223319 0.0182289 0.00706934
0.0225327 0.0187436 0.00698691
0.021901 0.01628 0.0078285
0.0173176 0.0202683 0.00708227
0.0218794 0.0161988 0.0078827
0.0170187 0.0200772 0.0070859
0.0166082 0.0194769 0.00705865
0.0168591 0.0197008 0.00706166
0.0225204 0.0190978 0.00692605
0.0167876 0.019904 0.00708628
0.0220779 0.0166335 0.00759495
0.0176727 0.0200095 0.0070316
0.023004 0.0193783 0.00689142
0.0170447 0.0198682 0.00706406
0.0232234 0.0194194 0.00689042
0.0180301 0.0196118 0.00696752
0.0222728 0.0170669 0.00729885
0.0174852 0.0188677 0.00693637
0.0224785 0.0189048 0.00695787
0.0185846 0.0193654 0.00690346
0.0172177 0.020088 0.00707237
0.0226612 0.0185168 0.00702919
0.0186323 0.0195255 0.00691524
0.0227079 0.0187156 0.00699651
0.0173231 0.0201063 0.00706642
0.0176709 0.016581 0.0077623
0.0166951 0.0198661 0.00708943
0.0193299 0.0191741 0.00683068
0.0191153 0.0189912 0.00684354
0.0171977 0.0202234 0.00708675
0.0224575 0.0188082 0.0069738
0.016669 0.0193243 0.00703964
0.0222897 0.0171511 0.00724469
0.0184567 0.0195313 0.00692864
0.0225905 0.0174237 0.00720379
0.0178255 0.0200335 0.00702272
0.0165864 0.0193796 0.00705125
0.0283401 0.0182592 0.00702932
0.022777 0.0186448 0.00701051
0.0224279 0.017329 0.00721771
0.0171559 0.0203202 0.00709904
0.0227329 0.0192572 0.00690466
0.0168434 0.0206039 0.00714898
0.0226285 0.0187752 0.00698414
0.0220383 0.0164705 0.00770387
0.019487 0.0198891 0.00702868
0.0175069 0.018762 0.00692471
0.0220184 0.0163891 0.00775831
0.0167033 0.0195074 0.0070546
0.0183005 0.0195198 0.00693897
0.016543 0.0191856 0.00702989
0.0205323 0.0241867 0.0121699
0.0181307 0.0196262 0.00696153
0.0223884 0.0171356 0.00724964
0.0175546 0.020033 0.00704249
0.0167761 0.0202508 0.00712021
0.0173805 0.0200179 0.00705377
0.0177111 0.0186479 0.00690115
0.0182134 0.0197095 0.00696343
0.0166734 0.0197688 0.00708173
0.0226543 0.0174998 0.00719228
0.0226375 0.0192262 0.00690733
0.0282782 0.0175262 0.00719862
0.0224994 0.0190013 0.00694196
0.0169304 0.0200302 0.00708787
0.0174736 0.0198494 0.00703089
0.022666 0.0179531 0.00712186
0.0235219 0.0194895 0.00688665
0.0225956 0.0190332 0.00693915
0.022195 0.016745 0.00752313
0.0166384 0.0192156 0.00703151
0.0220581 0.016552 0.0076494
0.0166299 0.0195742 0.00706634
0.0164995 0.0189918 0.00700639
0.0282587 0.0174305 0.00722056
0.0184464 0.0196471 0.00694044
0.0162384 0.0177688 0.0071275
0.018102 0.0199591 0.00699539
0.0178302 0.0189152 0.00691567
0.0196688 0.020719 0.00737827
0.0178433 0.0205683 0.00718992
0.0175976 0.0188214 0.00692374
0.0226585 0.0193227 0.00689142
0.0228692 0.0176948 0.00718832
0.0223281 0.0236438 0.0129364
0.0209975 0.0238417 0.0116835
0.0218482 0.0237411 0.0125304
0.0185863 0.0197904 0.00694388
0.0136979 0.0206674 0.00731998
0.0144089 0.0220531 0.0165617
0.0210696 0.0238338 0.0117565
0.0183674 0.0197118 0.00695239
0.0133079 0.0206979 0.00733676
0.0141209 0.0222261 0.00869258
0.0190604 0.0197836 0.00695746
0.0156334 0.019327 0.0175625
0.0219807 0.016231 0.00786399
0.0212763 0.0150593 0.0112218
0.0187174 0.0198707 0.00696919
0.0220236 0.0163064 0.00781432
0.0224094 0.0172319 0.00723272
0.0141494 0.0192542 0.015577
0.018108 0.0197386 0.00697392
0.0181084 0.019842 0.00698375
0.017769 0.0145256 0.0110305
0.0185414 0.0196789 0.00693653
0.0190169 0.0191241 0.00684881
0.0204069 0.0230592 0.00946098
0.0191238 0.0235031 0.010693
0.023144 0.0159791 0.0156157
0.0224813 0.0236097 0.0130607
0.0196791 0.0208884 0.00744176
0.0175015 0.0238868 0.0116244
0.0209259 0.0238495 0.0116111
0.0178523 0.0201893 0.00703844
0.0186525 0.0142474 0.0116876
0.023959 0.0192816 0.00692176
0.0179177 0.0169732 0.00748901
0.018753 0.0195087 0.00690481
0.0197695 0.021291 0.00765377
0.0197011 0.0142446 0.0116921
0.0206551 0.0200991 0.0154584
0.0227443 0.0235332 0.0132418
0.0193447 0.0190247 0.0163446
0.020168 0.022533 0.00853036
0.0198309 0.0217443 0.00776862
0.0224036 0.0236285 0.0130003
0.0226181 0.0195474 0.0068519
0.0169118 0.0239907 0.0123507
0.0170038 0.0238767 0.0121215
0.0183057 0.0142425 0.0116957
0.0175392 0.0239247 0.0117227
0.0172913 0.0238748 0.0116194
0.0207442 0.0236852 0.0109907
0.0210995 0.020093 0.0153558
0.0189762 0.0194158 0.00687962
0.0220701 0.0169266 0.00750564
0.0212474 0.021052 0.0149554
0.0163897 0.0180587 0.00696897
0.0200396 0.0142455 0.0116907
0.0179155 0.0188462 0.00690285
0.0227519 0.0175217 0.00718937
0.0228612 0.0234991 0.0133224
0.016637 0.0184411 0.00695054
0.0225445 0.0180813 0.00717188
0.0225261 0.0173481 0.00721522
0.0174602 0.0201079 0.00705654
0.0178885 0.0190002 0.00691952
0.0224333 0.0176958 0.00723593

VERTICES 291 582
1 0
1 1
1 2
1 3
1 4
1 5
1 6
1 7
1 8
1 9
1 10
1 11
1 12
1 13
1 14
1 15
1 16
1 17
1 18
1 19
1 20
1 21
1 22
1 23
1 24
1 25
1 26
1 27
1 28
1 29
1 30
1 31
1 32
1 33
1 34
1 35
1 36
1 37
1 38
1 39
1 40
1 41
1 42
1 43
1 44
1 45
1 46
1 47
1 48
1 49
1 50
1 51
1 52
1 53
1 54
1 55
1 56
1 57
1 58
1 59
1 60
1 61
1 62
1 63
1 64
1 65
1 66
1 67
1 68
1 69
1 70
1 71
1 72
1 73
1 74
1 75
1 76
1 77
1 78
1 79
1 80
1 81
1 82
1 83
1 84
1 85
1 86
1 87
1 88
1 89
1 90
1 91
1 92
1 93
1 94
1 95
1 96
1 97
1 98
1 99
1 100
1 101
1 102
1 103
1 104
1 105
1 106
1 107
1 108
1 109
1 110
1 111
1 112
1 113
1 114
1 115
1 116
1 117
1 118
1 119
1 120
1 121
1 122
1 123
1 124
1 125
1 126
1 127
1 128
1 129
1 130
1 131
1 132
1 133
1 134
1 135
1 136
1 137
1 138
1 139
1 140
1 141
1 142
1 143
1 144
1 145
1 146
1 147
1 148
1 149
1 150
1 151
1 152
1 153
1 154
1 155
1 156
1 157
1 158
1 159
1 160
1 161
1 162
1 163
1 164
1 165
1 166
1 167
1 168
1 169
1 170
1 171
1 172
1 173
1 174
1 175
1 176
1 177
1 178
1 179
1 180
1 181
1 182
1 183
1 184
1 185
1 186
1 187
1 188
1 189
1 190
1 191
1 192
1 193
1 194
1 195
1 196
1 197
1 198
1 199
1 200
1 201
1 202
1 203
1 204
1 205
1 206
1 207
1 208
1 209
1 210
1 211
1 212
1 213
1 214
1 215
1 216
1 217
1 218
1 219
1 220
1 221
1 222
1 223
1 224
1 225
1 226
1 227
1 228
1 229
1 230
1 231
1 232
1 233
1 234
1 235
1 236
1 237
1 238
1 239
1 240
1 241
1 242
1 243
1 244
1 245
1 246
1 247
1 248
1 249
1 250
1 251
1 252
1 253
1 254
1 255
1 256
1 257
1 258
1 259
1 260
1 261
1 262
1 263
1 264
1 265
1 266
1 267
1 268
1 269
1 270
1 271
1 272
1 273
1 274
1 275
1 276
1 277
1 278
1 279
1 280
1 281
1 282
1 283
1 284
1 285
1 286
1 287
1 288
1 289
1 290

POINT_DATA 291
SCALARS id int 1
LOOKUP_TABLE default
1
2
3
4
5
6
7
8
9
10
11
12
13
14
15
16
17
18
19
20
21
22
24
25
26
27
29
30
31
32
33
34
35
36
37
38
39
40
41
42
43
44
45
46
47
48
49
50
52
53
54
55
56
57
58
59
60
61
62
63
64
65
66
67
68
69
70
71
72
73
74
75
76
77
78
79
80
81
82
83
84
85
86
87
88
89
90
91
92
93
94
95
96
98
99
100
101
102
103
104
105
106
107
108
109
110
111
112
113
114
115
116
117
118
119
120
121
122
123
124
125
126
127
128
129
130
131
132
133
134
135
136
137
138
139
140
141
142
144
145
146
147
148
149
150
152
153
154
155
156
157
158
159
160
161
162
164
165
166
167
168
169
170
171
172
173
174
175
176
177
178
179
180
181
182
183
184
185
186
187
188
189
190
191
192
193
194
195
196
197
198
199
200
201
202
203
204
205
206
207
208
209
210
211
213
214
215
216
217
218
219
220
221
222
223
224
225
226
227
228
229
230
231
232
233
234
235
236
237
238
239
240
241
242
243
244
245
246
247
248
249
250
251
252
253
254
255
256
257
258
259
260
261
262
263
264
265
266
267
268
269
270
271
272
273
274
275
276
277
278
279
280
281
282
283
284
285
286
287
288
289
290
292
293
294
295
296
297
298
299
300

SCALARS type int 1
LOOKUP_TABLE default
1
1
1
1
1
1
1
1
1
1
1
1
1
1
1
1
1
1
1
1
1
1
1
1
1
1
1
1
1
1
1
1
1
1
1
1
1
1
1
1
1
1
1
1
1
1
1
1
1
1
1
1
1
1
1
1
1
1
1
1
1
1
1
1
1
1
1
1
1
1
1
1
1
1
1
1
1
1
1
1
1
1
1
1
1
1
1
1
1
1
1
1
1
1
1
1
1
1
1
1
1
1
1
1
1
1
1
1
1
1
1
1
1
1
1
1
1
1
1
1
1
1
1
1
1
1
1
1
1
1
1
1
1
1
1
1
1
1
1
1
1
1
1
1
1
1
1
1
1
1
1
1
1
1
1
1
1
1
1
1
1
1
1
1
1
1
1
1
1
1
1
1
1
1
1
1
1
1
1
1
1
1
1
1
1
1
1
1
1
1
1
1
1
1
1
1
1
1
1
1
1
1
1
1
1
1
1
1
1
1
1
1
1
1
1
1
1
1
1
1
1
1
1
1
1
1
1
1
1
1
1
1
1
1
1
1
1
1
1
1
1
1
1
1
1
1
1
1
1
1
1
1
1
1
1
1
1
1
1
1
1
1
1
1
1
1
1
1
1
1
1
1
1
1
1
1
1
1
1
1
1
1
1
1
1
1
1
1
1
1
1

SCALARS radius float 1
LOOKUP_TABLE default
5e-05
5e-05
5e-05
5e-05
5e-05
5e-05
5e-05
5e-05
5e-05
5e-05
5e-05
5e-05
5e-05
5e-05
5e-05
5e-05
5e-05
5e-05
5e-05
5e-05
5e-05
5e-05
5e-05
5e-05
5e-05
5e-05
5e-05
5e-05
5e-05
5e-05
5e-05
5e-05
5e-05
5e-05
5e-05
5e-05
5e-05
5e-05
5e-05
5e-05
5e-05
5e-05
5e-05
5e-05
5e-05
5e-05
5e-05
5e-05
5e-05
5e-05
5e-05
5e-05
5e-05
5e-05
5e-05
5e-05
5e-05
5e-05
5e-05
5e-05
5e-05
5e-05
5e-05
5e-05
5e-05
5e-05
5e-05
5e-05
5e-05
5e-05
5e-05
5e-05
5e-05
5e-05
5e-05
5e-05
5e-05
5e-05
5e-05
5e-05
5e-05
5e-05
5e-05
5e-05
5e-05
5e-05
5e-05
5e-05
5e-05
5e-05
5e-05
5e-05
5e-05
5e-05
5e-05
5e-05
5e-05
5e-05
5e-05
5e-05
5e-05
5e-05
5e-05
5e-05
5e-05
5e-05
5e-05
5e-05
5e-05
5e-05
5e-05
5e-05
5e-05
5e-05
5e-05
5e-05
5e-05
5e-05
5e-05
5e-05
5e-05
5e-05
5e-05
5e-05
5e-05
5e-05
5e-05
5e-05
5e-05
5e-05
5e-05
5e-05
5e-05
5e-05
5e-05
5e-05
5e-05
5e-05
5e-05
5e-05
5e-05
5e-05
5e-05
5e-05
5e-05
5e-05
5e-05
5e-05
5e-05
5e-05
5e-05
5e-05
5e-05
5e-05
5e-05
5e-05
5e-05
5e-05
5e-05
5e-05
5e-05
5e-05
5e-05
5e-05
5e-05
5e-05
5e-05
5e-05
5e-05
5e-05
5e-05
5e-05
5e-05
5e-05
5e-05
5e-05
5e-05
5e-05
5e-05
5e-05
5e-05
5e-05
5e-05
5e-05
5e-05
5e-05
5e-05
5e-05
5e-05
5e-05
5e-05
5e-05
5e-05
5e-05
5e-05
5e-05
5e-05
5e-05
5e-05
5e-05
5e-05
5e-05
5e-05
5e-05
5e-05
5e-05
5e-05
5e-05
5e-05
5e-05
5e-05
5e-05
5e-05
5e-05
5e-05
5e-05
5e-05
5e-05
5e-05
5e-05
5e-05
5e-05
5e-05
5e-05
5e-05
5e-05
5e-05
5e-05
5e-05
5e-05
5e-05
5e-05
5e-05
5e-05
5e-05
5e-05
5e-05
5e-05
5e-05
5e-05
5e-05
5e-05
5e-05
5e-05
5e-05
5e-05
5e-05
5e-05
5e-05
5e-05
5e-05
5e-05
5e-05
5e-05
5e-05
5e-05
5e-05
5e-05
5e-05
5e-05
5e-05
5e-05
5e-05
5e-05
5e-05
5e-05
5e-05
5e-05
5e-05
5e-05
5e-05
5e-05
5e-05
5e-05
5e-05
5e-05
5e-05
5e-05
5e-05
5e-05
5e-05
5e-05
5e-05
5e-05
5e-05
5e-05
5e-05
5e-05
5e-05
5e-05
5e-05

SCALARS mass float 1
LOOKUP_TABLE default
1.46608e-10
1.46608e-10
1.46608e-10
1.46608e-10
1.46608e-10
1.46608e-10
1.46608e-10
1.46608e-10
1.46608e-10
1.46608e-10
1.46608e-10
1.46608e-10
1.46608e-10
1.46608e-10
1.46608e-10
1.46608e-10
1.46608e-10
1.46608e-10
1.46608e-10
1.46608e-10
1.46608e-10
1.46608e-10
1.46608e-10
1.46608e-10
1.46608e-10
1.46608e-10
1.46608e-10
1.46608e-10
1.46608e-10
1.46608e-10
1.46608e-10
1.46608e-10
1.46608e-10
1.46608e-10
1.46608e-10
1.46608e-10
1.46608e-10
1.46608e-10
1.46608e-10
1.46608e-10
1.46608e-10
1.46608e-10
1.46608e-10
1.46608e-10
1.46608e-10
1.46608e-10
1.46608e-10
1.46608e-10
1.46608e-10
1.46608e-10
1.46608e-10
1.46608e-10
1.46608e-10
1.46608e-10
1.46608e-10
1.46608e-10
1.46608e-10
1.46608e-10
1.46608e-10
1.46608e-10
1.46608e-10
1.46608e-10
1.46608e-10
1.46608e-10
1.46608e-10
1.46608e-10
1.46608e-10
1.46608e-10
1.46608e-10
1.46608e-10
1.46608e-10
1.46608e-10
1.46608e-10
1.46608e-10
1.46608e-10
1.46608e-10
1.46608e-10
1.46608e-10
1.46608e-10
1.46608e-10
1.46608e-10
1.46608e-10
1.46608e-10
1.46608e-10
1.46608e-10
1.46608e-10
1.46608e-10
1.46608e-10
1.46608e-10
1.46608e-10
1.46608e-10
1.46608e-10
1.46608e-10
1.46608e-10
1.46608e-10
1.46608e-10
1.46608e-10
1.46608e-10
1.46608e-10
1.46608e-10
1.46608e-10
1.46608e-10
1.46608e-10
1.46608e-10
1.46608e-10
1.46608e-10
1.46608e-10
1.46608e-10
1.46608e-10
1.46608e-10
1.46608e-10
1.46608e-10
1.46608e-10
1.46608e-10
1.46608e-10
1.46608e-10
1.46608e-10
1.46608e-10
1.46608e-10
1.46608e-10
1.46608e-10
1.46608e-10
1.46608e-10
1.46608e-10
1.46608e-10
1.46608e-10
1.46608e-10
1.46608e-10
1.46608e-10
1.46608e-10
1.46608e-10
1.46608e-10
1.46608e-10
1.46608e-10
1.46608e-10
1.46608e-10
1.46608e-10
1.46608e-10
1.46608e-10
1.46608e-10
1.46608e-10
1.46608e-10
1.46608e-10
1.46608e-10
1.46608e-10
1.46608e-10
1.46608e-10
1.46608e-10
1.46608e-10
1.46608e-10
1.46608e-10
1.46608e-10
1.46608e-10
1.46608e-10
1.46608e-10
1.46608e-10
1.46608e-10
1.46608e-10
1.46608e-10
1.46608e-10
1.46608e-10
1.46608e-10
1.46608e-10
1.46608e-10
1.46608e-10
1.46608e-10
1.46608e-10
1.46608e-10
1.46608e-10
1.46608e-10
1.46608e-10
1.46608e-10
1.46608e-10
1.46608e-10
1.46608e-10
1.46608e-10
1.46608e-10
1.46608e-10
1.46608e-10
1.46608e-10
1.46608e-10
1.46608e-10
1.46608e-10
1.46608e-10
1.46608e-10
1.46608e-10
1.46608e-10
1.46608e-10
1.46608e-10
1.46608e-10
1.46608e-10
1.46608e-10
1.46608e-10
1.46608e-10
1.46608e-10
1.46608e-10
1.46608e-10
1.46608e-10
1.46608e-10
1.46608e-10
1.46608e-10
1.46608e-10
1.46608e-10
1.46608e-10
1.46608e-10
1.46608e-10
1.46608e-10
1.46608e-10
1.46608e-10
1.46608e-10
1.46608e-10
1.46608e-10
1.46608e-10
1.46608e-10
1.46608e-10
1.46608e-10
1.46608e-10
1.46608e-10
1.46608e-10
1.46608e-10
1.46608e-10
1.46608e-10
1.46608e-10
1.46608e-10
1.46608e-10
1.46608e-10
1.46608e-10
1.46608e-10
1.46608e-10
1.46608e-10
1.46608e-10
1.46608e-10
1.46608e-10
1.46608e-10
1.46608e-10
1.46608e-10
1.46608e-10
1.46608e-10
1.46608e-10
1.46608e-10
1.46608e-10
1.46608e-10
1.46608e-10
1.46608e-10
1.46608e-10
1.46608e-10
1.46608e-10
1.46608e-10
1.46608e-10
1.46608e-10
1.46608e-10
1.46608e-10
1.46608e-10
1.46608e-10
1.46608e-10
1.46608e-10
1.46608e-10
1.46608e-10
1.46608e-10
1.46608e-10
1.46608e-10
1.46608e-10
1.46608e-10
1.46608e-10
1.46608e-10
1.46608e-10
1.46608e-10
1.46608e-10
1.46608e-10
1.46608e-10
1.46608e-10
1.46608e-10
1.46608e-10
1.46608e-10
1.46608e-10
1.46608e-10
1.46608e-10
1.46608e-10
1.46608e-10
1.46608e-10
1.46608e-10
1.46608e-10
1.46608e-10
1.46608e-10
1.46608e-10
1.46608e-10
1.46608e-10
1.46608e-10
1.46608e-10
1.46608e-10
1.46608e-10

VECTORS velocity float
0.00443781 -0.00080226 0.000678978
0.00420177 -0.00106239 0.000185296
0.00409382 -0.00101735 0.000179192
0.00427919 -0.00123898 0.000329169
0.00429072 -0.000911271 0.000743871
0.00442468 -0.000317294 0.000137882
0.00414331 -0.0010532 0.000250702
0.0042795 -0.000913074 0.000746066
0.00429137 -0.000284492 0.00012014
0.00424661 -0.00110448 0.000194018
0.00412491 -0.00104706 0.000187967
0.00427522 -0.000283093 0.000119497
0.00423958 -0.00108317 0.000199227
0.00382581 -0.00269394 0.0014928
0.00411774 -0.00106196 0.000296949
0.00379857 -0.00269292 0.00149852
0.00424508 -0.000909469 0.000616335
0.00424407 -0.000287124 0.000120109
0.00429941 -0.000925604 0.00075376
0.00418858 -0.00101031 0.00017153
0.00432472 -0.000902813 0.000739825
0.0041052 -0.00105387 0.000293616
0.00424146 -0.000284077 0.000119338
0.00408554 -0.00105752 0.000180562
0.0043508 -0.000299349 0.000123843
0.00391729 -0.00378697 -0.000647898
0.00440297 -0.000872587 0.000721686
0.00439542 -0.00031051 0.000133526
0.00424772 -0.00109659 0.000191705
0.00412027 -0.0010593 0.000294327
0.00446381 -0.000319292 0.000139098
0.00425768 -0.00106456 0.000183779
0.00425698 -0.00106397 0.000186684
0.00429478 -0.000288817 0.000121041
0.00419765 -0.00102744 0.000253302
0.0042103 -0.00094746 0.000167904
0.00436124 -0.000300107 0.000123962
0.00408973 -0.00103762 0.000292181
0.00438916 -0.000867743 0.000719443
0.00410423 -0.0010467 0.000291904
0.00410315 -0.00100574 0.000285042
0.00419143 -0.00106019 0.000188047
0.0044991 -0.000323799 0.000140803
0.00435866 -0.00029975 0.00012479
0.0043707 -0.000901318 0.000740924
0.00411452 -0.00106158 0.000189091
0.00434969 -0.000298607 0.000123604
0.00443247 -0.00113997 0.000316666
0.00442805 -0.00304267 -0.000614332
0.0043612 -0.000303033 0.000125041
0.00430769 -0.000825499 0.000559357
0.00387895 -0.00269632 0.00152955
0.00409971 -0.00106499 0.000187173
0.00452583 -0.000329208 0.000143591
0.00403167 -0.00324301 -0.000604027
0.00425328 -0.000282461 0.000119257
0.00423239 -0.00102336 0.000179686
0.00436724 -0.000903283 0.00074393
0.00415057 -0.0010508 0.000231698
0.00412994 -0.00107597 0.000187584
0.00436205 -0.000308511 0.000127052
0.00421954 -0.00091581 0.000746579
0.00398905 -0.00316132 -0.000593356
0.00419145 -0.00102195 0.000100109
0.00400691 -0.00327347 -0.000605963
0.00411046 -0.00105363 0.0002935
0.00430106 -0.000288762 0.000121127
0.00384596 -0.00320645 -0.000380373
0.00428514 -0.000283683 0.000119897
0.00421033 -0.000883401 0.000600761
0.00418495 -0.000995232 0.000174937
0.00414301 -0.000946148 0.000443294
0.00435524 -0.000315069 0.000128007
0.00469812 -0.00115439 0.000326413
0.00395848 -0.00327418 -0.000413887
0.00402315 -0.00331355 -0.000413107
0.00450773 -0.00114266 0.000319135
0.004167 -0.00268313 -0.00055851
0.00367223 -0.00373547 -0.000624977
0.00402408 -0.00334442 -0.000422642
0.00436134 -0.000296375 0.000123899
0.00403031 -0.00331343 -0.000417965
0.00444348 -0.00114502 0.000317688
0.0042884 -0.000278438 0.00011867
0.00451074 -0.00113635 0.00031822
0.00444664 -0.00113385 0.000315988
0.00444522 -0.00113301 0.00031576
0.00411816 -0.00105891 0.000294102
0.00443378 -0.0011788 0.000323327
0.00461673 -0.00115608 0.000324291
0.00448244 -0.00111762 0.000314349
0.0046681 -0.00114942 0.000324239
0.0045286 -0.00114377 0.00032
0.0045808 -0.00113084 0.000319143
0.00403852 -0.00321796 -0.000602957
0.0041941 -0.00106595 0.000186343
7.18148e-07 -3.22576e-07 -8.33037e-08
0.00412063 -0.00104747 0.000292271
0.00410988 -0.00105153 0.000185988
0.00412881 -0.00254515 -0.000545088
0.00389539 -0.00324061 -0.000406968
0.00440307 -0.00108488 0.00030666
0.0038435 -0.00311985 0.00025217
0.00433846 -0.000832297 0.000688978
0.00413251 -0.0011065 0.000303007
0.00448179 -0.00111282 0.000313558
0.00463878 -0.00114097 0.000321711
0.00404707 -0.00322171 -0.000604503
0.00450291 -0.00114228 0.000319078
0.00307458 -0.000217384 -0.000245563
0.00413802 -0.00112279 0.000211784
0.00419095 -0.00101886 0.00017959
0.00423454 -0.000919821 0.000750591
0.000926505 -0.000678724 -0.000132558
0.00479142 -0.000377088 0.000176154
0.00424318 -0.00105346 0.000185123
0.00462291 -0.00100166 0.000815191
0.00453157 -0.0011402 0.000319408
0.00405044 -0.00332184 -0.000419696
0.00458473 -0.00115687 0.000323764
0.00419319 -0.000870649 0.000587973
0.00411571 -0.00106223 0.000296133
0.00401906 -0.0033387 -0.000424344
0.00444418 -0.00114066 0.000317064
0.00374402 -0.003579 -0.000615103
0.004117 -0.00107046 0.00029729
0.00420197 -0.00324708 -0.000617172
0.00421478 -0.00106518 0.000187255
0.00426988 -0.00106812 0.000175446
0.00424858 -0.0010974 0.000303504
0.00437755 -0.000852914 0.000561791
0.00386111 -0.00274372 0.0011797
0.00456301 -0.00114989 0.000321914
0.00446977 -0.00113697 0.000317186
0.00438015 -0.00112115 0.000311567
0.00455514 -0.00112517 0.000317468
0.00403849 -0.00333399 -0.000421551
0.00412087 -0.00105596 0.000293658
0.00441535 -0.00107656 0.000305371
0.00441617 -0.00115262 0.000318485
0.00422488 -0.00102021 0.000179389
0.00385235 -0.00321661 -0.000410584
0.00411438 -0.00106036 0.000294334
0.00452887 -0.00115063 0.000321079
0.00462196 -0.00101503 0.000824427
-1.91995e-15 2.50482e-15 -2.62516e-14
0.00462756 -0.00102329 0.000830192
0.0030816 -0.00154594 -0.000373386
0.00400347 -0.00325561 -0.000547989
0.00405576 -0.00319768 -0.000601622
0.00461823 -0.0011303 0.000320006
0.00417957 -0.0035452 -0.000643725
0.00428337 -0.000916395 0.00074773
-1.91973e-15 2.50482e-15 -2.62517e-14
5.15456e-15 -3.20383e-14 -1.87495e-13
0.00417296 -0.00250531 -0.000544256
-3.97537e-15 2.47092e-14 1.44604e-13
-1.91943e-15 2.50508e-15 -2.62517e-14
0.00422686 -0.000802617 0.000547241
-1.91999e-15 2.50475e-15 -2.62516e-14
0.00456393 -0.00111612 0.000316094
-1.92006e-15 2.50469e-15 -2.62516e-14
0.00296852 0.000921214 -0.00012908
0.00448193 -0.00117363 0.000323753
-1.91986e-15 2.50487e-15 -2.62516e-14
0.00451676 -0.00116321 0.000322956
-1.91966e-15 2.50468e-15 -2.62517e-14
0.00427814 0.114133 -0.033049
0.00404403 -0.00321652 -0.000602668
-0.00274803 -0.0459847 -0.00418642
-7.45697e-15 3.50334e-14 2.14188e-13
-1.92009e-15 2.50468e-15 -2.62516e-14
0.00452486 -0.00116101 0.000322558
0.00409471 -0.00312421 -0.000595414
0.00408148 -0.00114047 0.00020062
-1.92084e-15 2.50444e-15 -2.62516e-14
0.00422871 -0.00103802 0.000183429
-1.92104e-15 2.50382e-15 -2.62517e-14
0.00401075 -0.00328701 -0.000460279
0.0043035 -0.000288838 0.000121373
0.00447908 -0.00119299 0.000326985
0.00426177 -0.0010411 0.000180795
-1.92076e-15 2.50458e-15 -2.62516e-14
0.00467891 -0.00117224 0.000328941
0.00382236 -0.00314443 -0.000579586
0.00453911 -0.00114259 0.000320004
0.00427014 -0.000916545 0.000747469
-0.0122078 -0.0818248 -0.0336627
-1.92008e-15 2.50473e-15 -2.62516e-14
0.00428669 -0.000922418 0.000752154
0.00401171 -0.00328355 -0.000600157
-1.91923e-15 2.50497e-15 -2.62517e-14
0.00402018 -0.00332759 -0.000421478
-0.0171167 -0.0343426 -0.0497886
-1.92013e-15 2.50471e-15 -2.62516e-14
0.00408527 -0.00094288 0.000648812
-1.91953e-15 2.50493e-15 -2.62517e-14
0.00382337 -0.00330844 -0.000587815
-1.9201e-15 2.50465e-15 -2.62516e-14
0.00802814 0.00429893 -0.00737586
-1.92022e-15 2.5045e-15 -2.62516e-14
0.00404192 -0.00321836 -0.000602785
0.00420665 -0.00105612 0.000185108
0.00465697 -0.00115842 0.000325777
0.00424027 -0.000289001 0.000120546
0.00459114 -0.00112218 0.000317935
0.00374559 -0.00278867 -0.000539492
2.03104e-14 -2.64942e-14 2.77687e-13
0.00415147 -0.00104873 0.000184078
5.15444e-15 -3.20384e-14 -1.87495e-13
0.00460896 -0.00113622 0.000320769
0.004473 -0.000806291 0.000678763
0.00404278 -0.00325414 -0.00060461
0.00428229 -0.000916447 0.000748082
0.00403734 -0.00324043 -0.000595012
0.00402037 -0.00334645 -0.0004227
0.00423722 -0.000294418 0.00012173
-1.9201e-15 2.50467e-15 -2.62516e-14
0.00377839 -0.00269638 0.00150331
2.03111e-14 -2.64956e-14 2.77686e-13
-1.92112e-15 2.50467e-15 -2.62516e-14
-0.0137915 -0.0930782 -0.0456642
-9.19854e-15 -5.44991e-14 1.35808e-13
2.03106e-14 -2.64941e-14 2.77686e-13
0.00469233 -0.00116062 0.00032724
0.00256328 0.0111206 -0.0136698
-0.00448716 0.00224426 -0.0013934
-0.00735294 -0.000127475 -0.00908651
-0.00647365 0.00117891 -0.00571222
2.03101e-14 -2.64942e-14 2.77687e-13
0.000868101 -0.0059015 -0.0013818
0.916939 -3.34679 2.34272
-0.00733019 0.00017681 -0.00851993
-1.92005e-15 2.5047e-15 -2.62516e-14
-1.29118e-14 4.2933e-14 -2.30778e-13
-0.00916382 -0.067649 -0.118764
-9.19926e-15 -5.44986e-14 1.35808e-13
0.0 0.0 -0.134011
0.00465367 -0.000984476 0.000804794
0.0355947 0.0525318 -0.147661
-0.00473396 -0.0300798 -0.0123915
0.0044919 -0.000917648 0.000754794
0.0042953 -0.00105906 0.000152842
0.0 0.0 -0.238566
2.03105e-14 -2.64942e-14 2.77687e-13
-1.92007e-15 2.50471e-15 -2.62516e-14
-0.000805475 0.0246961 -0.102874
-1.91971e-15 2.50487e-15 -2.62517e-14
-1.30907e-11 2.18864e-11 2.99336e-12
-0.027069 -0.0670246 -0.130558
-9.49102e-06 -0.0878098 -0.109426
0.00132613 -0.0747875 0.0216743
-0.00282974 -0.000487563 -0.00251511
-0.014129 -0.0925801 -0.0196023
0.00525793 -0.00535387 -0.0135332
-0.00755694 -0.000409928 -0.0098328
8.58933e-15 5.08914e-14 -1.26818e-13
0.000108155 0.00288482 -0.00454427
1.31731e-15 -4.09634e-14 -2.63448e-13
0.00528302 0.128381 -0.0724261
-1.92012e-15 2.50464e-15 -2.62516e-14
-0.0198016 -0.0965972 -0.0466366
5.03405e-06 0.000795167 -0.00132023
2.73535e-05 0.0251028 0.0259757
-0.00655372 0.00155039 -0.00515049
-3.07297e-09 0.0230294 0.000140279
-0.0330675 -0.0844892 -0.147288
-0.0228925 -0.119059 -0.0109158
-0.0043745 0.00243468 -0.00104268
0.00452454 -0.00216907 0.000495028
0.0648631 -0.0576224 -0.038103
0.0283604 -0.0130048 -0.0594702
-0.000120797 -0.00135714 0.0022533
0.00502903 0.00449781 0.00164838
-0.00665851 0.0050198 0.00903246
-0.0135354 -0.0226425 -0.0863373
4.79438e-11 0.0182928 -0.00493087
-1.9201e-15 2.50466e-15 -2.62516e-14
0.0083739 0.0118493 -0.0180016
2.89813e-06 0.0178206 -0.0102664
0.00395216 -0.00271165 0.00153696
4.99626e-06 0.000788287 -0.00130881
-1.92036e-15 2.50426e-15 -2.62517e-14
0.0037792 0.000763049 -9.98829e-05
-0.0107031 0.00301949 -0.00754766
0.000784403 0.00980175 -0.00443214
0.00420377 -0.00115117 0.000327398
0.00424744 -0.00102879 0.000181785
2.03104e-14 -2.64949e-14 2.77686e-13
-1.91692e-15 2.50763e-15 -2.62516e-14
0.00427369 -0.00115684 6.37323e-05

VECTORS force float
-4.61164e-11 -3.3093e-11 1.55093e-11
-8.11953e-11 7.34198e-11 -2.24535e-11
2.79504e-11 2.65804e-11 -1.67301e-11
5.15149e-11 5.054e-11 -8.34575e-12
8.72751e-11 -4.37551e-11 3.25623e-11
-2.1483e-11 5.13185e-11 -2.34727e-11
1.02502e-10 7.3838e-11 -2.68577e-11
1.13273e-10 1.29266e-10 -5.53489e-11
-5.45768e-11 3.6733e-11 -8.67698e-12
1.87182e-11 4.18112e-13 -1.77323e-11
1.48152e-10 1.52131e-10 -5.49543e-11
3.66192e-11 -6.31915e-13 1.60488e-12
6.06053e-11 8.90107e-11 -5.44864e-11
-2.964e-11 2.82853e-11 -1.00647e-11
1.36015e-11 2.11168e-11 -1.93389e-11
1.69962e-10 1.28244e-10 -1.47163e-10
-1.81052e-11 -4.79825e-11 5.75878e-11
-1.66921e-11 -3.9021e-11 1.30083e-11
3.6656e-11 -3.62949e-11 2.30933e-11
-1.51387e-11 -5.84643e-11 5.20503e-11
-9.81602e-11 -1.1009e-10 5.02293e-11
-3.15441e-11 6.80433e-11 5.32576e-11
-6.76749e-11 -2.35115e-11 7.96538e-13
1.11801e-10 8.42368e-12 9.14004e-12
2.81805e-11 -2.54238e-11 1.37408e-11
-1.6723e-10 -1.6242e-11 6.79575e-12
-7.74771e-11 -1.25459e-10 8.62676e-11
4.69436e-11 5.6942e-11 -2.10476e-11
-3.81256e-11 9.36213e-11 -2.36446e-11
-4.79417e-11 -2.80116e-11 -7.41459e-11
-3.46818e-11 9.76191e-12 -1.03666e-11
-1.44443e-11 8.79432e-11 1.99134e-11
-8.37924e-11 1.02302e-10 -2.97769e-11
8.20843e-11 2.70451e-11 -2.65745e-12
1.91462e-11 4.37992e-11 -5.32965e-12
7.48771e-11 -5.55701e-11 1.63962e-11
-1.62534e-11 -1.04252e-11 1.01614e-11
1.8347e-10 -1.92261e-11 -1.69761e-11
1.80237e-11 -1.7748e-11 4.39851e-11
1.68159e-11 -3.65798e-11 4.48971e-12
1.23586e-11 -4.76409e-11 2.62079e-12
-2.84731e-11 -8.72487e-12 -2.34688e-11
1.83624e-10 -7.48673e-11 4.33524e-11
-8.86903e-11 -1.12362e-12 -8.59676e-12
-1.66128e-11 -8.21908e-11 1.23804e-10
-9.79011e-11 8.08323e-11 1.66499e-11
-2.95698e-11 -5.58677e-11 2.97836e-11
3.77997e-11 5.71083e-11 -9.20382e-12
-4.10586e-10 2.11542e-10 4.60718e-11
3.12341e-11 -2.8944e-11 7.03137e-13
-2.42029e-10 1.30615e-10 -6.28055e-11
-4.09452e-11 -5.46212e-11 -1.92255e-10
4.74128e-11 4.5794e-11 -2.89931e-12
-7.78576e-11 -1.23324e-10 5.81322e-11
-8.37766e-11 2.78106e-10 4.99899e-11
-3.87932e-11 -2.60092e-11 7.15786e-12
3.18591e-11 -1.17136e-10 1.34263e-12
-1.77385e-11 -1.12549e-10 1.09591e-10
6.4421e-11 4.12671e-11 -7.73643e-11
-7.83547e-12 -3.66328e-11 -1.71701e-11
1.94778e-11 -3.1131e-11 7.76251e-12
2.0225e-11 9.92135e-11 -7.03226e-11
3.26353e-11 2.12193e-10 1.75579e-11
6.56758e-11 -1.30924e-11 1.13152e-10
-3.69209e-10 2.5135e-10 5.33266e-11
-1.98325e-10 3.39948e-11 -3.38775e-11
-5.23707e-12 -1.03653e-11 2.85313e-12
1.11277e-10 1.26651e-10 2.60391e-10
4.88516e-12 2.40649e-11 -6.91901e-12
-5.46653e-11 -1.40546e-10 1.24293e-10
-1.42698e-10 -5.2337e-11 -2.26553e-12
-2.06178e-12 -2.18066e-11 -1.12495e-10
2.90028e-11 3.08857e-12 -5.13209e-14
-5.1992e-12 -7.56103e-12 1.75566e-12
-4.31222e-11 -2.05697e-10 -1.22996e-12
2.59512e-11 -4.2535e-11 -7.69771e-11
-4.19197e-11 2.52392e-11 -7.00718e-12
-2.70765e-10 1.16775e-10 -7.68888e-11
-1.6617e-11 -3.52628e-11 -2.09922e-12
-1.77671e-12 -1.84553e-10 -4.27115e-13
6.52859e-11 2.293e-11 -5.93993e-12
-1.27427e-10 -1.15167e-10 -3.11368e-11
-1.13561e-11 8.47504e-12 -3.10684e-12
-4.54679e-11 6.66578e-11 -1.61651e-11
7.84221e-12 8.90914e-11 -1.40776e-11
-1.95092e-11 2.39808e-11 -5.06571e-12
1.27901e-11 1.61643e-11 -4.5462e-12
-1.00379e-10 -5.01478e-11 4.12818e-12
-7.50466e-11 -2.24414e-11 1.6584e-12
2.28483e-11 1.14271e-11 -2.37084e-12
-2.45935e-11 2.67675e-11 -6.77787e-12
2.51729e-11 -6.17794e-12 5.05266e-12
-3.94283e-11 6.56404e-12 -1.28725e-12
-6.10817e-12 -1.42523e-11 2.30674e-12
-4.28539e-12 2.9596e-10 3.48892e-11
-7.64379e-11 1.22907e-10 -1.16131e-11
-3.94843e-12 -5.1798e-11 -4.65327e-12
-2.60274e-11 2.66286e-11 -6.22147e-12
5.58825e-11 1.63848e-11 -4.52932e-11
-7.84149e-11 1.26371e-10 3.00171e-11
-9.67362e-11 -1.63211e-10 -7.00711e-11
-2.02537e-11 -8.34232e-11 1.25015e-11
-6.8082e-11 8.16497e-11 -1.46156e-10
-7.23902e-11 8.27773e-11 9.95041e-11
-3.11806e-11 -4.46184e-11 2.34303e-11
7.93185e-13 3.65703e-11 -6.79541e-12
-2.83355e-11 -3.62882e-11 3.24001e-12
6.43994e-11 1.20395e-10 5.43351e-11
1.46757e-11 8.98993e-11 -1.66823e-11
-2.099e-10 -3.71663e-11 2.34249e-13
6.27538e-12 -3.43367e-11 -4.83171e-11
-4.21176e-11 -9.32775e-11 2.02112e-11
3.55693e-11 1.73249e-10 -9.50812e-11
-2.55131e-10 7.75448e-11 2.71214e-11
-9.20154e-12 -4.47934e-11 3.13616e-11
-2.61246e-11 4.3074e-11 -2.32119e-11
5.33264e-11 1.75061e-10 -1.16392e-10
-4.52236e-11 3.76523e-11 -7.92017e-12
2.53656e-10 -9.75468e-11 -1.29661e-11
5.80323e-11 -4.5398e-11 9.43518e-12
-8.87419e-11 -8.09505e-12 -1.42373e-11
-6.08548e-11 -1.25031e-11 1.35329e-11
-1.01545e-10 -1.26147e-10 -1.62217e-11
-4.51898e-11 -4.64874e-12 -4.82887e-13
-9.93992e-12 1.71192e-10 3.95666e-12
3.7564e-11 -3.5758e-11 -2.15925e-12
-1.96571e-10 2.46239e-10 4.50804e-11
-5.8204e-11 3.93587e-11 -8.03238e-13
-9.46455e-11 -3.45269e-11 1.50623e-11
1.54232e-11 -2.78101e-11 3.42634e-11
-2.30197e-10 5.53985e-11 -1.15065e-11
1.65489e-10 -1.21745e-10 -3.8001e-10
2.75744e-11 2.21517e-11 -3.48417e-12
-4.88621e-11 2.58853e-11 -4.65489e-12
1.9067e-11 -1.07784e-11 9.28816e-12
-1.07084e-11 -3.05176e-12 1.60599e-14
6.32796e-11 -1.53474e-10 -4.22017e-11
-2.11322e-11 -1.07881e-10 1.86593e-11
1.1921e-12 -4.71403e-11 8.81882e-12
-5.85748e-12 -5.19063e-12 -3.68651e-13
-4.06274e-11 7.05281e-12 1.43103e-12
-4.84972e-11 5.67612e-12 -3.60785e-11
2.99108e-11 3.52193e-12 -3.38766e-13
-3.02006e-11 -1.09693e-11 6.88847e-13
2.92796e-12 -5.45536e-11 3.5835e-11
-1.39587e-24 -1.60266e-24 0.0
2.14459e-12 -7.71315e-11 5.16047e-11
-1.18721e-10 1.5295e-11 2.05586e-11
-3.89405e-10 5.25709e-11 -7.12751e-11
-1.3904e-10 8.59939e-11 1.35167e-11
3.78175e-12 -3.70021e-11 7.97978e-12
-6.55391e-11 2.84769e-10 3.20652e-11
2.21571e-10 -9.41202e-12 2.51885e-12
-3.01145e-24 -2.50739e-24 0.0
-2.94037e-24 1.18907e-24 -4.1359e-25
-3.18403e-10 -4.50487e-12 1.58813e-11
-8.99559e-24 -1.29247e-24 0.0
8.40105e-25 1.29247e-25 0.0
3.08999e-11 8.10301e-11 -9.48047e-11
-3.87741e-26 2.58494e-26 0.0
1.43666e-12 8.2779e-13 -1.19239e-12
-1.70606e-24 -1.9904e-24 0.0
-3.0676e-10 -5.983e-11 1.8503e-11
-1.23518e-10 -5.33056e-11 6.04685e-12
2.97268e-25 -6.97934e-25 0.0
-5.02987e-11 -2.65685e-11 2.19798e-12
-1.66341e-23 -1.08309e-23 2.06795e-25
0.0 0.0 -1.43822e-09
-4.03558e-12 1.59585e-10 1.44162e-11
1.46005e-10 5.74513e-10 4.41366e-11
3.10193e-25 0.0 0.0
-2.1972e-25 -5.16988e-26 0.0
-6.74096e-12 -7.91507e-12 9.29159e-13
1.94185e-11 2.29868e-10 1.3992e-10
3.18281e-10 2.10703e-10 -1.31161e-10
3.87741e-26 -2.50739e-24 -4.1359e-25
1.53836e-10 3.58639e-11 -1.21488e-11
-3.26995e-23 -3.11227e-23 -8.27181e-25
-2.07457e-10 8.60821e-11 -5.35681e-12
-2.74098e-11 -3.15005e-11 3.20312e-12
-8.62023e-12 5.71498e-12 -7.61431e-13
-3.20006e-10 -2.00039e-10 -1.26703e-11
-1.51607e-23 -7.18613e-24 2.06795e-25
-1.48582e-11 2.21806e-12 -1.14984e-12
2.57887e-13 -5.43997e-13 -8.96238e-14
-4.20183e-11 -1.38298e-11 1.78897e-12
1.9012e-10 -2.53854e-11 2.24911e-11
7.46803e-12 1.15052e-10 4.66754e-11
1.60266e-24 4.91138e-25 0.0
2.44752e-10 9.52505e-12 2.19197e-12
8.10995e-11 1.86803e-10 5.30607e-11
5.67394e-24 1.80946e-24 -2.06795e-25
1.37226e-11 -1.07724e-10 5.25792e-11
0.0 0.0 -1.43822e-09
-7.50925e-24 -9.27993e-24 -2.06795e-25
4.02868e-10 4.18736e-11 -9.19748e-11
-2.24373e-23 -1.4424e-23 2.06795e-25
-4.66164e-10 3.5373e-10 1.78799e-10
-6.46235e-25 -5.42837e-25 0.0
0.0 0.0 -1.43822e-09
-1.35709e-24 3.61892e-24 2.06795e-25
2.94477e-11 1.72553e-10 7.82749e-12
3.98513e-11 2.37203e-10 -3.07642e-11
-1.76311e-12 3.22269e-12 1.09284e-13
-3.16394e-11 6.2694e-11 -1.46543e-11
-4.00489e-12 -1.78519e-11 3.06736e-12
-6.54351e-11 9.61915e-11 1.85733e-11
2.21012e-24 1.68021e-24 0.0
-1.18004e-11 -7.77412e-11 1.45996e-11
-6.85009e-25 -2.06795e-25 0.0
1.81258e-11 -4.75769e-11 8.45177e-12
-2.69098e-11 -2.78365e-11 2.60929e-11
-4.60473e-11 -1.13096e-10 5.09048e-11
6.74377e-11 -4.30281e-11 3.78324e-11
-7.82876e-11 3.08897e-11 -6.75169e-11
-4.74735e-11 -1.84999e-10 -4.25981e-11
4.24322e-11 2.17516e-11 -4.69903e-12
-1.16322e-25 -2.58494e-26 0.0
5.73247e-11 3.1918e-10 -1.42621e-10
8.29766e-23 5.99706e-23 -4.1359e-25
-1.12445e-24 -7.78067e-24 -4.1359e-25
0.0 0.0 -1.43822e-09
2.90806e-24 -1.44757e-24 -2.06795e-25
-1.78361e-24 -6.97934e-25 0.0
2.29507e-11 2.25997e-11 -2.35084e-12
0.0 0.0 -1.43822e-09
5.4702e-11 -5.75544e-11 -4.90836e-10
-1.86251e-11 5.0712e-12 -1.34803e-11
1.01527e-11 3.79141e-12 1.89381e-11
-6.75962e-24 -8.3235e-24 -4.1359e-25
0.0 0.0 -1.43822e-09
0.0 0.0 -1.43822e-09
5.03733e-12 3.09529e-12 1.1501e-11
2.58494e-25 -1.80946e-25 0.0
-6.46235e-26 -5.16988e-26 0.0
0.0 0.0 -1.43822e-09
-8.78879e-24 6.41065e-24 1.86116e-24
0.0 0.0 -1.43822e-09
-8.36617e-12 -1.0875e-10 7.43681e-11
0.0 0.0 -1.43822e-09
1.23414e-11 1.14294e-10 4.67014e-11
1.89185e-10 -1.15196e-10 8.18755e-11
-7.91782e-11 -1.13532e-10 -4.32441e-10
0.0 0.0 -1.43822e-09
2.97268e-25 1.03398e-25 0.0
7.21198e-24 7.54802e-24 2.06795e-25
0.0 0.0 -1.43822e-09
-2.2489e-24 -1.78361e-24 0.0
3.51111e-17 -8.72297e-17 -1.58149e-17
0.0 0.0 -1.43822e-09
0.0 0.0 -1.43822e-09
0.0 0.0 -1.43822e-09
0.0 0.0 -1.43822e-09
0.0 0.0 -1.43822e-09
-1.16262e-06 -3.26951e-06 1.38599e-07
-2.27172e-11 4.61198e-12 -1.9189e-11
0.0 0.0 0.0
0.0 0.0 -1.43822e-09
-2.70611e-25 0.0 0.0
0.0 0.0 -1.43822e-09
6.20385e-25 3.61892e-25 0.0
0.0 0.0 -1.43822e-09
-1.14587e-13 -1.79182e-11 2.97498e-11
0.0 0.0 -1.43822e-09
2.65859e-11 -2.29166e-12 2.78904e-11
-1.63294e-18 1.08453e-13 -1.60377e-11
0.0 0.0 -1.43822e-09
0.0 0.0 -1.43822e-09
1.83835e-10 6.00391e-11 1.11077e-09
-3.84285e-14 5.12677e-13 -1.28492e-13
0.0 0.0 -1.43822e-09
0.0 0.0 -1.43822e-09
-9.42487e-13 -1.12594e-11 1.86949e-11
0.0 0.0 -1.43822e-09
-3.95504e-07 -2.07157e-06 1.44174e-06
0.0 0.0 -1.43822e-09
8.10283e-21 -3.42002e-12 -1.27116e-11
3.74816e-25 1.29247e-25 0.0
1.37974e-11 4.74296e-11 -1.31337e-09
1.04725e-13 4.63438e-11 -4.26973e-11
2.9248e-10 -3.44415e-10 4.47039e-11
-8.95121e-14 -1.78996e-11 2.97194e-11
-1.04819e-23 2.3006e-24 1.03398e-24
1.76637e-11 4.50642e-11 -9.85944e-12
2.66435e-10 -7.45627e-11 1.88961e-10
0.0 0.0 -1.43822e-09
4.67399e-11 -4.46337e-11 3.97046e-12
-3.54677e-10 -3.05948e-10 5.23659e-12
-2.20108e-23 -1.83272e-23 -2.06795e-25
-1.35839e-23 -7.34123e-24 4.1359e-25
1.35355e-10 3.78856e-11 1.43918e-10
