# vtk DataFile Version 3.0
LIGGGHTS particles timestep 31200000
ASCII
DATASET POLYDATA
POINTS 283 float
0.15591 0.017 0.00752815
0.156173 0.0173464 0.00725758
0.156221 0.0180246 0.00717713
0.156372 0.0178268 0.00716677
0.155395 0.0153965 0.00924552
0.161782 0.0164179 0.00770986
0.155536 0.0157454 0.00865546
0.155373 0.015347 0.0093295
0.162021 0.0174877 0.00731769
0.156184 0.0175117 0.00729309
0.155829 0.0166575 0.00768238
0.16198 0.0172985 0.00736842
0.156184 0.0166831 0.00756668
0.14942 0.0154475 0.00911062
0.155637 0.0159946 0.00823396
0.149988 0.016932 0.00748997
0.162152 0.0177268 0.00725803
0.156147 0.0180912 0.00718349
0.156164 0.0169327 0.00744179
0.155414 0.0154466 0.00916097
0.156513 0.0173019 0.00727203
0.161939 0.0171082 0.00741403
0.156146 0.0168437 0.00748536
0.161877 0.0168228 0.00748282
0.14969 0.016136 0.00804171
0.156366 0.0176615 0.00717409
0.161762 0.0163583 0.00778751
0.156434 0.0173556 0.00724219
0.15624 0.0168758 0.00747309
0.161801 0.0164777 0.00763187
0.156155 0.0178443 0.00726557
0.156222 0.0167868 0.00751664
0.16206 0.017677 0.00726636
0.155516 0.015696 0.00874001
0.156362 0.0169901 0.00742105
0.155556 0.0157955 0.00857117
0.156258 0.0169655 0.00742918
0.155577 0.0158451 0.00848682
0.156439 0.0174675 0.00718675
0.156151 0.0172499 0.00728359
0.161816 0.0165378 0.00755341
0.161898 0.0169179 0.00745989
0.155457 0.0155457 0.00899288
0.156051 0.0168184 0.00750923
0.161857 0.0167276 0.00750578
0.156307 0.0171391 0.00734486
0.150569 0.0184126 0.00697725
0.150319 0.0180754 0.00709662
0.156192 0.01744 0.00722393
0.161836 0.0166327 0.00752946
0.150049 0.01721 0.00739478
0.16196 0.0172035 0.00739189
0.156125 0.0179937 0.00719
0.155435 0.0154962 0.00907693
0.1558 0.0164954 0.00766042
0.156358 0.0174128 0.00721079
0.161919 0.0170131 0.00743696
0.155597 0.015895 0.00840253
0.150509 0.0181345 0.00707246
0.15618 0.0170217 0.0073982
0.149893 0.0169029 0.00750211
0.155617 0.0159448 0.00831824
0.16214 0.017621 0.00728735
0.150108 0.0174888 0.00729934
0.162001 0.0173931 0.0073433
0.155475 0.0155959 0.00890827
0.155999 0.0173671 0.00723047
0.155495 0.0156459 0.0088239
0.162226 0.0175708 0.00729989
0.156266 0.0173722 0.00722732
0.149482 0.0156062 0.00886377
0.149586 0.015871 0.00845268
0.156135 0.0171672 0.00733714
0.150345 0.0184832 0.00704595
0.149776 0.0163639 0.00772706
0.149503 0.0156591 0.00878153
0.162115 0.0175197 0.00731361
0.150113 0.017066 0.00744195
0.156296 0.0176994 0.00723462
0.16204 0.0175823 0.00729204
0.155937 0.0166949 0.00755111
0.156212 0.0171071 0.00735698
0.156087 0.0169941 0.0074206
0.15572 0.0161995 0.00790071
0.155977 0.0168699 0.00746565
0.155993 0.0169603 0.00742132
0.155984 0.0167414 0.00762614
0.156116 0.0173737 0.00733457
0.15607 0.0169059 0.00746485
0.156077 0.0173144 0.00726366
0.150153 0.0172514 0.00737848
0.156085 0.0177983 0.00720275
0.149871 0.0168132 0.00754084
0.156384 0.0170826 0.00737592
0.155917 0.0166069 0.00759404
0.14979 0.0164443 0.00766938
0.150304 0.0182978 0.00710823
0.15578 0.0164022 0.0076904
0.149441 0.0155004 0.00902833
0.15623 0.0171955 0.00731378
0.15631 0.017979 0.0071682
0.156404 0.017172 0.0073323
0.15584 0.0166646 0.00756236
0.149649 0.0160295 0.00820577
0.15642 0.0172606 0.00728885
0.149933 0.0170881 0.00743846
0.156283 0.0177817 0.00717932
0.156105 0.0178961 0.00719645
0.155896 0.016519 0.00763691
0.150529 0.0182272 0.00704071
0.16174 0.0162982 0.0078646
0.156015 0.0165917 0.00760546
0.155658 0.0160444 0.00814971
0.15602 0.0174702 0.00722381
0.150664 0.0184422 0.00696513
0.156208 0.0175419 0.00719878
0.155994 0.0165038 0.00764833
0.155678 0.0160942 0.00806541
0.149544 0.015765 0.00861695
0.156327 0.0172272 0.00730179
0.14967 0.0160823 0.00812354
0.155821 0.0165828 0.00761643
0.150513 0.0189331 0.00694062
0.156055 0.0176585 0.00725992
0.15611 0.0165655 0.00762222
0.156089 0.0166528 0.00757802
0.155862 0.0168309 0.00766282
0.150558 0.0187676 0.00694589
0.156031 0.0171459 0.00735946
0.156103 0.0170773 0.00736751
0.155859 0.0167368 0.00762907
0.156204 0.0176079 0.00727515
0.150008 0.0170246 0.00745824
0.15574 0.0162606 0.00782428
0.156032 0.0167252 0.00753975
0.156135 0.0169314 0.00753748
0.155965 0.017221 0.007362
0.149462 0.0155533 0.00894607
0.155761 0.0163239 0.00774954
0.155956 0.0167871 0.0075175
0.155698 0.0161441 0.00798118
0.150202 0.0175186 0.00728718
0.156456 0.0170218 0.00740902
0.14981 0.0165336 0.007629
0.149607 0.0159237 0.00837016
0.150584 0.018864 0.00695347
0.156212 0.0176638 0.00719265
0.150395 0.0180122 0.00711627
0.155974 0.0164157 0.00769138
0.15028 0.0178898 0.00716014
0.155943 0.0171281 0.00740521
0.150453 0.0182906 0.00702099
0.156041 0.0174376 0.007316
0.150432 0.0189899 0.00692549
0.156 0.0169534 0.00752083
0.149913 0.0169955 0.00747018
0.156049 0.0171026 0.00744775
0.150333 0.0189566 0.00694445
0.150088 0.017396 0.0073311
0.156183 0.0177836 0.00719138
0.150494 0.0184767 0.00696017
0.156131 0.0176058 0.00720488
0.150261 0.017797 0.0071919
0.150268 0.0186671 0.00689799
0.149751 0.0162941 0.00779416
0.15061 0.0186056 0.0069525
0.150222 0.0176114 0.00725542
0.149954 0.0171807 0.00740674
0.156254 0.0173665 0.0073265
0.150644 0.0183492 0.006997
0.156441 0.0175957 0.00716762
0.150418 0.018539 0.0069379
0.156122 0.0177054 0.00720198
0.150127 0.0175816 0.00726758
0.150205 0.0179528 0.00714054
0.162079 0.0177607 0.00731754
0.155922 0.0170299 0.00743347
0.155889 0.0168663 0.0075731
0.149974 0.0172734 0.00737501
0.156098 0.0174091 0.00723871
0.150209 0.0182686 0.00712023
0.156075 0.0175331 0.00730565
0.155876 0.0164323 0.00768265
0.150364 0.0186999 0.00690455
0.150172 0.0173442 0.00734673
0.155834 0.01626 0.00777408
0.150604 0.018164 0.00706039
0.150464 0.0187396 0.0069263
0.149567 0.0158176 0.00853513
0.150244 0.0181383 0.00707702
0.150311 0.0188619 0.00689762
0.156289 0.0170529 0.00739242
0.150313 0.0187348 0.00698319
0.150069 0.0173029 0.00736297
0.150241 0.0177042 0.00722366
0.149851 0.0167183 0.00756513
0.150514 0.0185706 0.00693204
0.149713 0.0161899 0.00796065
0.156289 0.0175993 0.00718599
0.156001 0.0170517 0.00737625
0.162107 0.0179039 0.00720483
0.156004 0.0173398 0.00732657
0.149731 0.0162411 0.00787664
0.155976 0.0172611 0.00727114
0.155881 0.0168391 0.00747718
0.155861 0.0167573 0.00753122
0.156434 0.016929 0.00745425
0.150028 0.0171172 0.00742653
0.156336 0.0169033 0.0074632
0.149627 0.0159766 0.00828788
0.149524 0.0157131 0.00869994
0.162087 0.0178092 0.00723049
0.150339 0.0181681 0.00706486
0.150464 0.0179437 0.00713785
0.150147 0.0176744 0.00723582
0.150414 0.0181051 0.00708448
0.150289 0.0187645 0.00689081
0.150013 0.0174589 0.00731151
0.150223 0.0174257 0.00731809
0.156059 0.0172327 0.00731898
0.15625 0.0172835 0.00727077
0.150149 0.0181085 0.0070892
0.150091 0.0178301 0.00718447
0.150228 0.0184811 0.00696167
0.150166 0.0177672 0.00720406
0.143788 0.0166333 0.00795068
0.150071 0.0177373 0.00721623
0.150186 0.01786 0.0071723
0.143766 0.0165528 0.00800633
0.14381 0.0167138 0.007895
0.150052 0.0176445 0.00724799
0.143853 0.0168746 0.00778381
0.156126 0.0167555 0.0075284
0.156117 0.0175053 0.00721902
0.150033 0.0175517 0.00727981
0.155855 0.0163431 0.00772276
0.215741 0.019982 0.00563384
0.143831 0.0167943 0.00783935
0.150534 0.0186684 0.00693841
0.1503 0.0179826 0.00712838
0.149835 0.016625 0.00759698
0.150324 0.0183905 0.00707696
0.150248 0.0185744 0.00692973
0.150303 0.0184167 0.00698177
0.150406 0.0188937 0.0069178
0.156283 0.0174762 0.00719441
0.15013 0.0180157 0.00712096
0.150344 0.0186049 0.00692844
0.143918 0.0171155 0.00761723
0.150264 0.0182311 0.00704527
0.149994 0.0173661 0.00734327
0.155901 0.0169341 0.00745344
0.150549 0.0183199 0.00700898
0.150487 0.0188369 0.00693293
0.150474 0.0183835 0.00699009
0.150378 0.0183537 0.00700136
0.150208 0.0183872 0.00699381
0.150439 0.0186353 0.0069183
0.150358 0.0182609 0.0070331
0.150382 0.0187966 0.00692228
0.150317 0.0188342 0.00699347
0.150188 0.0182941 0.00702568
0.156089 0.0177479 0.00728899
0.143874 0.0169549 0.00772828
0.143939 0.0171959 0.0075617
0.150589 0.0185078 0.00695433
0.143964 0.0172761 0.00750718
0.143896 0.0170352 0.00767275
0.150225 0.0180455 0.00710878
0.15011 0.0179229 0.00715271
0.150398 0.0184463 0.00696963
0.156364 0.0175336 0.00718131
0.150283 0.0183239 0.00701351
0.150489 0.0180418 0.0071042
0.150323 0.01851 0.00695219
0.150352 0.0190487 0.00691068
0.156343 0.017317 0.00725783
0.150169 0.0182013 0.00705744
0.150133 0.0171587 0.00741022
0.156039 0.0175685 0.00721933
0.1562 0.0179271 0.00718364
0.150434 0.0181979 0.00705273
0.156288 0.0178815 0.00717471

VERTICES 283 566
1 0
1 1
1 2
1 3
1 4
1 5
1 6
1 7
1 8
1 9
1 10
1 11
1 12
1 13
1 14
1 15
1 16
1 17
1 18
1 19
1 20
1 21
1 22
1 23
1 24
1 25
1 26
1 27
1 28
1 29
1 30
1 31
1 32
1 33
1 34
1 35
1 36
1 37
1 38
1 39
1 40
1 41
1 42
1 43
1 44
1 45
1 46
1 47
1 48
1 49
1 50
1 51
1 52
1 53
1 54
1 55
1 56
1 57
1 58
1 59
1 60
1 61
1 62
1 63
1 64
1 65
1 66
1 67
1 68
1 69
1 70
1 71
1 72
1 73
1 74
1 75
1 76
1 77
1 78
1 79
1 80
1 81
1 82
1 83
1 84
1 85
1 86
1 87
1 88
1 89
1 90
1 91
1 92
1 93
1 94
1 95
1 96
1 97
1 98
1 99
1 100
1 101
1 102
1 103
1 104
1 105
1 106
1 107
1 108
1 109
1 110
1 111
1 112
1 113
1 114
1 115
1 116
1 117
1 118
1 119
1 120
1 121
1 122
1 123
1 124
1 125
1 126
1 127
1 128
1 129
1 130
1 131
1 132
1 133
1 134
1 135
1 136
1 137
1 138
1 139
1 140
1 141
1 142
1 143
1 144
1 145
1 146
1 147
1 148
1 149
1 150
1 151
1 152
1 153
1 154
1 155
1 156
1 157
1 158
1 159
1 160
1 161
1 162
1 163
1 164
1 165
1 166
1 167
1 168
1 169
1 170
1 171
1 172
1 173
1 174
1 175
1 176
1 177
1 178
1 179
1 180
1 181
1 182
1 183
1 184
1 185
1 186
1 187
1 188
1 189
1 190
1 191
1 192
1 193
1 194
1 195
1 196
1 197
1 198
1 199
1 200
1 201
1 202
1 203
1 204
1 205
1 206
1 207
1 208
1 209
1 210
1 211
1 212
1 213
1 214
1 215
1 216
1 217
1 218
1 219
1 220
1 221
1 222
1 223
1 224
1 225
1 226
1 227
1 228
1 229
1 230
1 231
1 232
1 233
1 234
1 235
1 236
1 237
1 238
1 239
1 240
1 241
1 242
1 243
1 244
1 245
1 246
1 247
1 248
1 249
1 250
1 251
1 252
1 253
1 254
1 255
1 256
1 257
1 258
1 259
1 260
1 261
1 262
1 263
1 264
1 265
1 266
1 267
1 268
1 269
1 270
1 271
1 272
1 273
1 274
1 275
1 276
1 277
1 278
1 279
1 280
1 281
1 282

POINT_DATA 283
SCALARS id int 1
LOOKUP_TABLE default
1
2
3
4
5
6
7
8
9
10
11
12
13
14
15
16
18
19
20
21
22
24
25
26
27
29
30
31
32
33
34
35
36
37
38
40
41
42
43
44
45
46
47
48
49
50
52
55
56
57
58
59
60
61
62
63
64
65
66
67
68
69
70
71
72
73
74
75
76
77
78
79
80
81
82
83
84
85
86
87
88
89
90
91
92
93
94
95
96
98
99
100
101
102
103
104
105
106
107
108
109
110
111
112
113
114
115
116
117
118
119
120
121
122
123
124
125
126
127
128
129
130
131
132
133
134
135
136
137
138
139
140
141
142
144
145
146
147
148
149
150
152
153
154
155
156
157
158
159
160
161
162
164
165
166
167
168
169
170
171
172
173
174
175
176
177
178
179
180
181
182
183
184
185
186
187
188
189
190
191
192
193
194
195
196
197
198
199
200
201
202
203
204
205
206
207
208
209
210
211
213
214
215
217
218
219
220
221
222
223
224
225
226
227
228
229
230
231
232
233
234
235
236
237
238
239
241
242
243
244
245
246
247
248
249
250
251
252
253
254
255
256
257
258
259
260
261
262
263
264
265
267
268
269
270
271
272
273
274
275
276
277
278
279
280
281
282
283
284
285
286
287
288
289
290
292
293
294
295
296
297
298
300

SCALARS type int 1
LOOKUP_TABLE default
1
1
1
1
1
1
1
1
1
1
1
1
1
1
1
1
1
1
1
1
1
1
1
1
1
1
1
1
1
1
1
1
1
1
1
1
1
1
1
1
1
1
1
1
1
1
1
1
1
1
1
1
1
1
1
1
1
1
1
1
1
1
1
1
1
1
1
1
1
1
1
1
1
1
1
1
1
1
1
1
1
1
1
1
1
1
1
1
1
1
1
1
1
1
1
1
1
1
1
1
1
1
1
1
1
1
1
1
1
1
1
1
1
1
1
1
1
1
1
1
1
1
1
1
1
1
1
1
1
1
1
1
1
1
1
1
1
1
1
1
1
1
1
1
1
1
1
1
1
1
1
1
1
1
1
1
1
1
1
1
1
1
1
1
1
1
1
1
1
1
1
1
1
1
1
1
1
1
1
1
1
1
1
1
1
1
1
1
1
1
1
1
1
1
1
1
1
1
1
1
1
1
1
1
1
1
1
1
1
1
1
1
1
1
1
1
1
1
1
1
1
1
1
1
1
1
1
1
1
1
1
1
1
1
1
1
1
1
1
1
1
1
1
1
1
1
1
1
1
1
1
1
1
1
1
1
1
1
1
1
1
1
1
1
1
1
1
1
1
1
1
1
1
1
1
1
1
1
1
1
1
1
1

SCALARS radius float 1
LOOKUP_TABLE default
5e-05
5e-05
5e-05
5e-05
5e-05
5e-05
5e-05
5e-05
5e-05
5e-05
5e-05
5e-05
5e-05
5e-05
5e-05
5e-05
5e-05
5e-05
5e-05
5e-05
5e-05
5e-05
5e-05
5e-05
5e-05
5e-05
5e-05
5e-05
5e-05
5e-05
5e-05
5e-05
5e-05
5e-05
5e-05
5e-05
5e-05
5e-05
5e-05
5e-05
5e-05
5e-05
5e-05
5e-05
5e-05
5e-05
5e-05
5e-05
5e-05
5e-05
5e-05
5e-05
5e-05
5e-05
5e-05
5e-05
5e-05
5e-05
5e-05
5e-05
5e-05
5e-05
5e-05
5e-05
5e-05
5e-05
5e-05
5e-05
5e-05
5e-05
5e-05
5e-05
5e-05
5e-05
5e-05
5e-05
5e-05
5e-05
5e-05
5e-05
5e-05
5e-05
5e-05
5e-05
5e-05
5e-05
5e-05
5e-05
5e-05
5e-05
5e-05
5e-05
5e-05
5e-05
5e-05
5e-05
5e-05
5e-05
5e-05
5e-05
5e-05
5e-05
5e-05
5e-05
5e-05
5e-05
5e-05
5e-05
5e-05
5e-05
5e-05
5e-05
5e-05
5e-05
5e-05
5e-05
5e-05
5e-05
5e-05
5e-05
5e-05
5e-05
5e-05
5e-05
5e-05
5e-05
5e-05
5e-05
5e-05
5e-05
5e-05
5e-05
5e-05
5e-05
5e-05
5e-05
5e-05
5e-05
5e-05
5e-05
5e-05
5e-05
5e-05
5e-05
5e-05
5e-05
5e-05
5e-05
5e-05
5e-05
5e-05
5e-05
5e-05
5e-05
5e-05
5e-05
5e-05
5e-05
5e-05
5e-05
5e-05
5e-05
5e-05
5e-05
5e-05
5e-05
5e-05
5e-05
5e-05
5e-05
5e-05
5e-05
5e-05
5e-05
5e-05
5e-05
5e-05
5e-05
5e-05
5e-05
5e-05
5e-05
5e-05
5e-05
5e-05
5e-05
5e-05
5e-05
5e-05
5e-05
5e-05
5e-05
5e-05
5e-05
5e-05
5e-05
5e-05
5e-05
5e-05
5e-05
5e-05
5e-05
5e-05
5e-05
5e-05
5e-05
5e-05
5e-05
5e-05
5e-05
5e-05
5e-05
5e-05
5e-05
5e-05
5e-05
5e-05
5e-05
5e-05
5e-05
5e-05
5e-05
5e-05
5e-05
5e-05
5e-05
5e-05
5e-05
5e-05
5e-05
5e-05
5e-05
5e-05
5e-05
5e-05
5e-05
5e-05
5e-05
5e-05
5e-05
5e-05
5e-05
5e-05
5e-05
5e-05
5e-05
5e-05
5e-05
5e-05
5e-05
5e-05
5e-05
5e-05
5e-05
5e-05
5e-05
5e-05
5e-05
5e-05
5e-05
5e-05
5e-05
5e-05
5e-05
5e-05
5e-05
5e-05
5e-05
5e-05
5e-05
5e-05
5e-05
5e-05
5e-05
5e-05
5e-05
5e-05
5e-05
5e-05
5e-05
5e-05
5e-05
5e-05

SCALARS mass float 1
LOOKUP_TABLE default
1.46608e-10
1.46608e-10
1.46608e-10
1.46608e-10
1.46608e-10
1.46608e-10
1.46608e-10
1.46608e-10
1.46608e-10
1.46608e-10
1.46608e-10
1.46608e-10
1.46608e-10
1.46608e-10
1.46608e-10
1.46608e-10
1.46608e-10
1.46608e-10
1.46608e-10
1.46608e-10
1.46608e-10
1.46608e-10
1.46608e-10
1.46608e-10
1.46608e-10
1.46608e-10
1.46608e-10
1.46608e-10
1.46608e-10
1.46608e-10
1.46608e-10
1.46608e-10
1.46608e-10
1.46608e-10
1.46608e-10
1.46608e-10
1.46608e-10
1.46608e-10
1.46608e-10
1.46608e-10
1.46608e-10
1.46608e-10
1.46608e-10
1.46608e-10
1.46608e-10
1.46608e-10
1.46608e-10
1.46608e-10
1.46608e-10
1.46608e-10
1.46608e-10
1.46608e-10
1.46608e-10
1.46608e-10
1.46608e-10
1.46608e-10
1.46608e-10
1.46608e-10
1.46608e-10
1.46608e-10
1.46608e-10
1.46608e-10
1.46608e-10
1.46608e-10
1.46608e-10
1.46608e-10
1.46608e-10
1.46608e-10
1.46608e-10
1.46608e-10
1.46608e-10
1.46608e-10
1.46608e-10
1.46608e-10
1.46608e-10
1.46608e-10
1.46608e-10
1.46608e-10
1.46608e-10
1.46608e-10
1.46608e-10
1.46608e-10
1.46608e-10
1.46608e-10
1.46608e-10
1.46608e-10
1.46608e-10
1.46608e-10
1.46608e-10
1.46608e-10
1.46608e-10
1.46608e-10
1.46608e-10
1.46608e-10
1.46608e-10
1.46608e-10
1.46608e-10
1.46608e-10
1.46608e-10
1.46608e-10
1.46608e-10
1.46608e-10
1.46608e-10
1.46608e-10
1.46608e-10
1.46608e-10
1.46608e-10
1.46608e-10
1.46608e-10
1.46608e-10
1.46608e-10
1.46608e-10
1.46608e-10
1.46608e-10
1.46608e-10
1.46608e-10
1.46608e-10
1.46608e-10
1.46608e-10
1.46608e-10
1.46608e-10
1.46608e-10
1.46608e-10
1.46608e-10
1.46608e-10
1.46608e-10
1.46608e-10
1.46608e-10
1.46608e-10
1.46608e-10
1.46608e-10
1.46608e-10
1.46608e-10
1.46608e-10
1.46608e-10
1.46608e-10
1.46608e-10
1.46608e-10
1.46608e-10
1.46608e-10
1.46608e-10
1.46608e-10
1.46608e-10
1.46608e-10
1.46608e-10
1.46608e-10
1.46608e-10
1.46608e-10
1.46608e-10
1.46608e-10
1.46608e-10
1.46608e-10
1.46608e-10
1.46608e-10
1.46608e-10
1.46608e-10
1.46608e-10
1.46608e-10
1.46608e-10
1.46608e-10
1.46608e-10
1.46608e-10
1.46608e-10
1.46608e-10
1.46608e-10
1.46608e-10
1.46608e-10
1.46608e-10
1.46608e-10
1.46608e-10
1.46608e-10
1.46608e-10
1.46608e-10
1.46608e-10
1.46608e-10
1.46608e-10
1.46608e-10
1.46608e-10
1.46608e-10
1.46608e-10
1.46608e-10
1.46608e-10
1.46608e-10
1.46608e-10
1.46608e-10
1.46608e-10
1.46608e-10
1.46608e-10
1.46608e-10
1.46608e-10
1.46608e-10
1.46608e-10
1.46608e-10
1.46608e-10
1.46608e-10
1.46608e-10
1.46608e-10
1.46608e-10
1.46608e-10
1.46608e-10
1.46608e-10
1.46608e-10
1.46608e-10
1.46608e-10
1.46608e-10
1.46608e-10
1.46608e-10
1.46608e-10
1.46608e-10
1.46608e-10
1.46608e-10
1.46608e-10
1.46608e-10
1.46608e-10
1.46608e-10
1.46608e-10
1.46608e-10
1.46608e-10
1.46608e-10
1.46608e-10
1.46608e-10
1.46608e-10
1.46608e-10
1.46608e-10
1.46608e-10
1.46608e-10
1.46608e-10
1.46608e-10
1.46608e-10
1.46608e-10
1.46608e-10
1.46608e-10
1.46608e-10
1.46608e-10
1.46608e-10
1.46608e-10
1.46608e-10
1.46608e-10
1.46608e-10
1.46608e-10
1.46608e-10
1.46608e-10
1.46608e-10
1.46608e-10
1.46608e-10
1.46608e-10
1.46608e-10
1.46608e-10
1.46608e-10
1.46608e-10
1.46608e-10
1.46608e-10
1.46608e-10
1.46608e-10
1.46608e-10
1.46608e-10
1.46608e-10
1.46608e-10
1.46608e-10
1.46608e-10
1.46608e-10
1.46608e-10
1.46608e-10
1.46608e-10
1.46608e-10
1.46608e-10
1.46608e-10
1.46608e-10
1.46608e-10
1.46608e-10
1.46608e-10
1.46608e-10
1.46608e-10
1.46608e-10
1.46608e-10
1.46608e-10
1.46608e-10
1.46608e-10
1.46608e-10
1.46608e-10
1.46608e-10
1.46608e-10
1.46608e-10

VECTORS velocity float
0.00465565 0.000567265 -8.89808e-05
0.00459729 0.000471693 -0.00105525
0.00455283 0.000465125 -0.000572183
0.0045141 0.000427426 -0.000564858
0.00442435 5.85349e-05 -0.000642883
0.00464618 0.000145667 -8.06879e-05
0.00463474 2.21484e-06 -0.000576297
0.0043797 6.81615e-05 -0.000653103
0.00428334 0.000266002 0.000195239
0.00439956 0.000707415 -0.000292971
0.00489971 0.000186916 -0.000612806
0.00443682 0.000222398 0.000123857
0.00465739 0.000595863 -0.000112599
0.00422377 -0.000422463 0.000837656
0.00483199 -5.97355e-05 -0.000501718
0.00425989 -0.000876761 0.000202328
0.00427221 0.000223084 0.000208446
0.00455506 0.000483976 -0.000574124
0.00464192 0.000663479 -0.000145354
0.0044471 5.21325e-05 -0.000635289
0.00455645 0.000745422 -0.000191012
0.00454901 0.00013889 -0.000101173
0.00466634 0.000625611 -0.000126018
0.00457198 0.000148814 -9.93317e-05
0.00439014 -0.00054547 0.00102552
0.00452469 0.000407022 -0.000565816
0.00493317 0.000120729 -4.25001e-05
0.00455024 0.000735106 -0.000186229
0.00467273 0.000701153 -0.000164743
0.00459008 0.000140432 -8.07932e-05
0.00440659 0.000428287 -0.000547366
0.00466864 0.000626298 -0.000128101
0.00428424 0.000267326 0.000194402
0.00460522 1.16011e-05 -0.000584895
0.00462353 0.000728007 -0.000179752
0.00468602 -1.08003e-05 -0.00056218
0.00462321 0.000696845 -0.000164591
0.00474726 -2.69255e-05 -0.000541862
0.00444141 0.000561204 -0.000100434
0.00464544 0.000508182 -0.000164455
0.00458039 0.000140835 -7.82558e-05
0.0045646 0.000144121 -9.92333e-05
0.00451915 3.21909e-05 -0.000611193
0.00466442 0.000596427 -0.000109241
0.0045732 0.000149794 -9.04172e-05
0.00459321 0.000708414 -0.00017057
0.00460356 -0.00109456 0.000197211
0.00416647 -0.000964175 0.000233044
0.00452446 0.000641021 -0.000213591
0.00456676 0.000148537 -7.80348e-05
0.00423626 -0.000851876 0.000193884
0.00451539 0.000165727 -3.10541e-05
0.00454234 0.000493231 -0.000572306
0.00447102 4.41239e-05 -0.000625094
0.00457506 0.000279484 -0.000670356
0.00440453 0.000590015 -0.00012078
0.00455312 0.000140663 -9.63146e-05
0.00479264 -4.32407e-05 -0.00051921
0.00420274 -0.00102909 0.000255526
0.00461887 0.00066435 -0.000148863
0.00428041 -0.000916853 0.000188115
0.00479205 -5.41299e-05 -0.000508174
0.00428046 0.000255788 0.000198854
0.0040625 -0.000903983 0.000215907
0.00435314 0.00025596 0.000199739
0.00455478 2.36578e-05 -0.000601903
0.0045093 -2.59814e-05 -0.000581437
0.00458606 1.66849e-05 -0.000593493
0.00428276 0.000179611 -0.000103972
0.00456492 0.00069017 -0.000164943
0.00430049 -0.000469638 0.000915926
0.00447089 -0.000560183 0.00106226
0.00460644 0.000626806 -0.000140654
0.00447667 -0.000991701 0.000423579
0.00434248 -0.000619593 0.000845483
0.00431587 -0.000489528 0.000947772
0.00428872 0.000196035 -0.000106529
0.00427908 -0.000968554 0.000232393
0.00449078 0.000405325 -0.00058504
0.00426014 0.00026993 0.000193834
0.00465248 0.000596624 -0.000113383
0.00460409 0.000669093 -0.000155122
0.00463023 0.000632812 -0.000138679
0.00518059 -0.000174935 -0.000535806
0.0046694 0.000596634 -0.000111984
0.00465589 0.000584027 -0.000104151
0.00462934 0.000633293 -0.000129071
0.00463128 0.000110303 -0.000693188
0.00466208 0.000623421 -0.000124254
0.0046381 0.000244646 -0.000391379
0.00390487 -0.000893712 0.000215357
0.0044183 0.000514829 -0.000560687
0.00430609 -0.000933993 0.000179164
0.00457876 0.000710435 -0.00017269
0.00464735 0.000597443 -0.000114638
0.00429577 -0.000873431 0.000455587
0.0041276 -0.000984856 0.000240437
0.00457259 0.000478715 -5.2101e-05
0.00426181 -0.000434882 0.000862193
0.0045968 0.000677342 -0.000159995
0.00454347 0.000437132 -0.000569446
0.00462135 0.000723056 -0.000176642
0.00464998 0.000614139 -0.000123378
0.00445038 -0.000558797 0.00106049
0.00458656 0.000728066 -0.000180632
0.00429683 -0.000907502 0.000213525
0.00450215 0.000427067 -0.000569988
0.00448878 0.000501933 -0.000564229
0.0046456 0.000595501 -0.000112967
0.00427429 -0.00103274 0.000253319
0.00487824 0.000244495 7.68288e-05
0.00464854 0.000601555 -0.000116019
0.00488842 -5.7505e-05 -0.000497547
0.00434023 0.000211994 -0.000536504
0.00462202 -0.00114353 0.000282011
0.00443057 0.000551316 -0.000490561
0.00465075 0.000606856 -0.000118803
0.00488881 -5.29838e-05 -0.000510447
0.00437909 -0.000526945 0.00101042
0.00460049 0.000704596 -0.000165656
0.00441493 -0.000551314 0.00104422
0.00462044 0.000270108 -0.000664807
0.00470706 -0.000947708 0.000937623
0.0043819 0.000514812 -0.000599594
0.00464197 0.000594251 -0.000112674
0.00464762 0.000598738 -0.000114355
0.00480354 0.000593552 -0.000102786
0.00468003 -0.00103814 0.000933489
0.00457267 0.000614206 -7.87991e-05
0.00459348 0.000646933 -0.000137813
0.00470188 0.000598843 -0.000114411
0.00452832 0.000661426 -0.000428797
0.00427124 -0.000906246 0.000210596
0.00499105 -6.89127e-06 -0.000449346
0.00464827 0.00059988 -0.000115918
0.00463539 0.000683532 -0.000141949
0.00452327 0.000550321 -8.068e-05
0.00426769 -0.000452771 0.000886736
0.00469826 0.00035267 -0.000198077
0.00466651 0.000593784 -0.00011266
0.00493911 -7.34367e-05 -0.000521743
0.0040487 -0.00091844 0.00022105
0.0045617 0.000700267 -0.000168703
0.0043114 -0.000960506 0.000230619
0.0044905 -0.000564521 0.00107313
0.00467719 -0.00103685 0.000933526
0.00442468 0.000497332 -0.000556685
0.00417526 -0.000991047 0.000242901
0.00465435 0.000607161 -0.000117769
0.00416088 -0.000962006 0.000232112
0.00462618 0.000505939 -3.16346e-05
0.00424754 -0.00100403 0.0002591
0.00469433 0.000169309 -0.000625604
0.00475541 -0.00080714 0.000955678
0.00471901 0.000620552 -0.000106624
0.00426733 -0.000904383 0.000207466
0.00460242 0.000660269 -0.000139412
0.00467682 -0.000794655 0.000887555
0.00407487 -0.000899387 0.000213053
0.0044405 0.000466669 -0.000558229
0.00459761 -0.000927904 0.000800439
0.00437093 0.00047533 -0.000550816
0.00414426 -0.000955728 0.000232029
0.00465145 -0.000919396 0.000212863
0.00428066 -0.000497228 0.0009684
0.00458159 -0.00104126 0.000916893
0.00404377 -0.000922163 0.000221504
0.00431237 -0.000919102 0.000216916
0.00457729 0.000691544 -0.000165673
0.00445586 -0.00123797 0.000322191
0.00454618 0.000408063 -0.000568935
0.00455629 -0.00104965 0.000255121
0.00441622 0.000494433 -0.000563773
0.00404429 -0.000905535 0.000216931
0.00413889 -0.000939495 0.000225378
0.00428124 0.000269723 0.000197086
0.00464984 0.000571093 -9.13654e-05
0.00469078 0.000624486 -0.000122187
0.00419114 -0.000903068 0.000212635
0.00453295 0.000388868 -0.00101013
0.00411442 -0.000919041 0.000189786
0.00444381 0.000738523 -0.000400981
0.00465491 0.000595074 -0.000109059
0.00468622 -0.000905947 0.000931485
0.0040454 -0.000919301 0.000221112
0.00472489 0.000148418 -0.000828576
0.00415286 -0.00115754 0.000297868
0.0046572 -0.000948834 0.000924471
0.00443227 -0.000547639 0.00104226
0.00414806 -0.000963009 0.000231495
0.00467023 -0.000943976 0.000929765
0.00459911 0.00070337 -0.00016938
0.00468311 -0.000912531 0.000933141
0.00414342 -0.000790724 0.000175151
0.00408851 -0.000938416 0.000225163
0.00429203 -0.00093502 0.000200763
0.00469691 -0.000905035 0.000944173
0.00434839 -0.00051324 0.00101556
0.00444187 0.000519586 -0.000559072
0.00463994 0.000549807 -9.38203e-05
0.0043011 0.000256991 0.000198689
0.00475014 0.000654272 -0.000394077
0.00429237 -0.000482534 0.0010021
0.00454196 0.000531595 -7.20944e-05
0.00467095 0.000594883 -0.000112143
0.00466215 0.000605637 -0.000113098
0.00466397 0.000752677 -0.00019047
0.00430908 -0.000920609 0.000215791
0.00466675 0.000722051 -0.00017526
0.00448519 -0.000563573 0.00107317
0.00432194 -0.000506974 0.000976796
0.00429008 0.000256713 0.000195801
0.00415656 -0.000953762 0.000228389
0.00414451 -0.00101629 0.000251175
0.00407311 -0.000917615 0.000219976
0.00416431 -0.00097209 0.000236714
0.00468247 -0.000917827 0.000928505
0.00405668 -0.000886416 0.000208299
0.00407009 -0.000919469 0.000219851
0.00458956 0.000595737 -0.000124677
0.00459115 0.000681026 -0.000166524
0.00415172 -0.000933321 0.000223403
0.00411196 -0.000905765 0.000215309
0.00448851 -0.00118599 0.000281574
0.00411685 -0.000928109 0.00022181
0.00454802 0.000740943 0.00096349
0.00410784 -0.000901462 0.000212148
0.0041266 -0.000931794 0.000223408
0.00455633 0.000735244 0.000970776
0.00454222 0.000756015 0.00094973
0.00408218 -0.000901459 0.000207029
0.00447103 0.000565111 0.00107493
0.00466157 0.000593913 -0.000109867
0.00445799 0.000545794 -0.000341442
0.00405573 -0.000895654 0.000206531
0.00466395 0.000599235 -0.000111835
6.8048e-15 2.29904e-14 -7.03242e-14
0.00453482 0.00076515 0.000940061
0.00459639 -0.00101583 0.000915774
0.00415577 -0.000960866 0.000232326
0.00429325 -0.000940517 0.000226508
0.00423828 -0.000977219 0.000316665
0.00460708 -0.000917138 0.000207615
0.00426979 -0.00101382 0.00022748
0.00471381 -0.000843511 0.000954629
0.00443241 0.000537746 -0.000487486
0.00414226 -0.000918729 0.00021888
0.00463528 -0.000924886 0.000779193
0.00444753 0.000616439 0.00101599
0.00414914 -0.000977635 0.000239947
0.00406733 -0.000883071 0.000208412
0.00466235 0.000585605 -0.000101748
0.00444143 -0.00105577 0.000246175
0.0045846 -0.000944023 0.000912114
0.00440898 -0.000982343 0.000466276
0.00417578 -0.000940989 0.000229951
0.00419657 -0.000853308 0.00019516
0.00468792 -0.000907132 0.000932933
0.00411638 -0.000938799 0.000224419
0.00467975 -0.00089947 0.000936943
0.00470456 -0.000907589 0.000941967
0.00416331 -0.000890225 0.000202008
0.0044109 0.000493441 -0.000567192
0.00447318 0.000610002 0.00104042
0.00443457 0.000665466 0.000965769
0.00463516 -0.00107203 0.000544253
0.0051655 0.000643001 0.00124432
0.0044734 0.00064486 0.00101381
0.00415581 -0.000951695 0.000229573
0.00412538 -0.000912753 0.000216952
0.00438601 -0.000993433 0.000240631
0.00443922 0.000525411 -0.000548546
0.00409793 -0.000970752 0.00024081
0.00419855 -0.00103564 0.000256293
0.00452506 -0.00102092 0.000422366
0.00474555 -0.000763304 0.000953429
0.00457091 0.000709102 -0.000173336
0.0041538 -0.000946725 0.000227333
0.00417391 -0.00094971 0.000228152
0.00439154 0.00045867 -0.000485197
0.00452784 0.000466177 -0.000567514
0.00416591 -0.000983236 0.000235378
0.00452333 0.000438062 -0.000568079

VECTORS force float
6.79183e-11 -1.95455e-11 -2.17457e-11
-3.95065e-11 6.75749e-11 8.94497e-10
2.64496e-11 1.84431e-10 -4.62125e-12
-3.24382e-10 -4.42363e-11 4.28947e-11
-6.28843e-12 2.98028e-11 -4.82262e-11
1.77466e-10 6.19506e-11 -2.13871e-10
1.70049e-10 -8.13057e-12 -4.54414e-11
2.44049e-11 5.33199e-11 -9.07148e-11
2.10757e-10 1.77945e-11 -7.72487e-12
6.53011e-11 -1.48578e-10 1.50241e-10
1.24648e-11 -1.90267e-10 1.73971e-10
-1.51575e-10 -1.06395e-11 8.43425e-11
1.47719e-11 -1.48763e-10 7.89972e-11
-2.55603e-10 -1.42531e-10 2.0288e-10
4.21121e-10 7.0372e-11 -2.1635e-10
-2.06136e-10 -9.45177e-12 3.87618e-11
6.64516e-12 -5.12154e-11 7.44091e-12
9.1645e-11 2.97654e-10 -2.95763e-11
1.56127e-10 -4.22106e-11 1.40852e-11
1.15279e-11 5.20051e-12 -1.38743e-11
-5.3629e-11 1.36739e-10 -6.95409e-11
1.9672e-11 -4.88996e-11 5.96209e-11
5.32395e-11 -3.36684e-11 2.79132e-11
2.6236e-11 2.3097e-12 -3.54288e-11
8.58747e-11 1.08004e-10 -1.61527e-10
2.32259e-11 -1.48669e-10 6.17746e-11
-3.50487e-10 -2.90755e-10 -3.12022e-10
-2.35055e-11 1.51493e-10 -9.39089e-11
1.47179e-10 -8.09677e-11 3.79192e-11
-1.38758e-10 1.32427e-10 -3.11666e-11
3.59366e-10 1.81842e-10 -1.51405e-10
1.24467e-10 5.84755e-11 -3.10145e-11
-1.04514e-11 4.67883e-11 -2.06231e-11
1.47379e-11 6.05575e-11 -9.52975e-11
-1.65396e-10 -1.37973e-10 5.60558e-11
2.06032e-11 -4.39506e-11 3.54822e-11
1.60157e-10 -3.57453e-12 1.90435e-12
-6.22557e-11 -1.15734e-10 1.79801e-10
-1.84789e-10 7.32112e-11 -4.623e-11
1.39703e-09 -8.72009e-10 1.46678e-09
-5.49373e-11 -7.98032e-11 1.03994e-10
4.41134e-11 2.53303e-12 -3.60649e-11
-1.0411e-10 4.05117e-11 -5.52025e-11
7.00222e-11 -9.09852e-12 -3.09416e-12
-5.12284e-11 -8.39076e-11 -1.68195e-10
1.00804e-10 -4.49151e-11 1.5209e-11
1.90258e-10 2.60907e-13 -2.26585e-10
-3.24714e-12 -6.03465e-11 -5.56649e-12
8.00234e-11 1.04767e-11 2.30925e-11
1.25958e-10 -1.33759e-10 1.05693e-10
-1.34665e-10 1.47266e-10 -4.27684e-11
-1.09141e-10 -6.33433e-11 1.09941e-11
-1.11434e-11 2.7674e-10 -8.1733e-12
1.40187e-10 -1.56344e-11 1.19702e-11
5.98253e-11 -2.55466e-10 -3.18844e-10
-1.68634e-10 2.52507e-11 -2.82535e-11
9.70499e-11 -1.82877e-11 -4.00001e-11
-1.90107e-10 -1.11026e-10 2.09396e-10
-4.72762e-11 3.43519e-11 -4.26519e-11
2.69533e-10 -8.22734e-11 6.90935e-11
-2.32722e-10 1.9433e-10 1.7394e-10
-7.79811e-11 -3.13504e-11 2.58838e-11
2.7111e-11 6.86956e-11 -1.66236e-11
-2.43922e-10 4.25535e-10 -1.4016e-10
-7.02728e-11 -1.65876e-12 6.99749e-11
-1.33604e-10 6.13958e-11 -9.1421e-11
-3.22179e-11 -4.04265e-10 -1.40486e-09
-5.55368e-11 6.48336e-11 -8.49543e-11
7.55224e-12 5.9366e-12 -1.26736e-12
2.32103e-11 -5.86883e-11 -1.38352e-11
-3.42427e-10 -2.48856e-10 3.18811e-10
1.12752e-10 -6.96984e-11 1.11988e-10
9.48338e-11 -4.73142e-10 6.88406e-10
1.67678e-10 -5.79883e-10 2.74477e-10
1.87636e-10 2.17817e-11 -2.81215e-10
7.48134e-11 -2.06514e-10 3.18511e-10
1.97788e-10 7.04904e-11 -2.54207e-11
2.90754e-10 2.29218e-10 -8.21446e-11
-7.61488e-11 -8.13263e-11 7.81835e-11
1.73316e-10 5.15348e-11 2.45183e-12
7.67133e-11 -1.88174e-11 2.72231e-11
1.93928e-10 -1.01255e-10 1.18813e-10
1.56332e-10 -5.32424e-11 -1.24132e-10
-8.49722e-11 3.37861e-10 -9.40152e-11
3.50361e-11 3.48173e-11 -2.67733e-11
-1.42719e-11 1.02702e-11 -2.99793e-12
-5.81811e-12 3.24175e-12 5.99644e-11
-4.19121e-10 2.38256e-09 3.55828e-10
6.51262e-11 -1.62077e-11 -2.92099e-11
1.24848e-10 7.07136e-10 5.44698e-09
-1.69023e-10 2.32076e-10 -6.51846e-11
5.17528e-11 8.65847e-11 -2.81868e-11
-1.11683e-10 2.21481e-10 3.50396e-10
1.25771e-10 -2.16886e-11 1.45928e-11
9.28045e-12 -6.88439e-11 3.62309e-11
-2.39533e-12 1.35721e-10 -1.28282e-10
-1.11466e-10 -1.42924e-10 2.21856e-10
1.21803e-11 -2.24676e-11 -9.06277e-11
4.29032e-11 -4.04573e-11 1.56974e-10
-2.04857e-11 -4.12754e-11 4.99764e-11
-4.8884e-11 6.76849e-11 1.18101e-11
1.55527e-10 5.09837e-11 -1.07472e-11
-5.14002e-11 -1.52418e-10 5.12943e-11
5.45855e-11 4.19584e-11 -1.46001e-10
6.08756e-11 1.82464e-11 1.83399e-12
-7.67138e-12 2.61339e-11 -3.68093e-11
-2.10272e-10 -7.19081e-11 3.15916e-11
-3.86109e-11 1.71117e-10 1.03584e-11
-4.4057e-11 -8.40472e-11 5.95578e-11
6.07149e-11 -4.97163e-11 1.26931e-11
9.04326e-11 6.90463e-11 2.66565e-10
-2.84041e-13 -1.31076e-10 6.17918e-11
3.1576e-10 8.14402e-12 -1.90478e-10
-1.3438e-10 -8.0558e-10 2.18106e-10
2.06124e-10 1.8323e-11 -5.39152e-11
-2.21377e-13 -5.2655e-11 4.75711e-11
-4.12987e-11 -1.22851e-10 6.38543e-11
1.91796e-10 -5.46434e-11 -1.40889e-10
-9.36764e-11 -1.15065e-10 1.83189e-10
3.73472e-11 -5.83798e-11 2.71431e-11
4.40129e-11 1.43812e-10 -1.2877e-10
2.47846e-11 -1.16116e-10 1.01996e-10
-8.44543e-10 1.70982e-11 -2.64666e-10
-9.539e-11 -7.62694e-11 3.52357e-11
3.09887e-11 -7.92358e-11 4.33924e-11
-2.13985e-11 -8.95671e-11 4.90235e-11
-7.44255e-12 -1.07977e-10 6.91112e-11
-1.47937e-10 2.90319e-10 -1.49915e-10
-8.21647e-11 5.51791e-11 2.76415e-10
-1.84455e-11 5.36665e-11 6.49182e-11
-7.14141e-11 -1.49839e-10 9.48343e-11
5.01608e-11 -1.16175e-10 1.68699e-10
4.66382e-11 -7.51537e-11 3.89834e-11
-5.0654e-11 2.55412e-10 -7.89088e-11
2.23132e-11 -2.95893e-11 3.30579e-11
6.62107e-11 -2.47183e-10 -1.33911e-11
-5.87729e-11 -2.57894e-10 1.68364e-10
-2.38659e-10 -1.24217e-10 2.09553e-10
1.1059e-10 -6.02634e-11 -2.89368e-10
5.93955e-11 5.05852e-11 9.5733e-12
-6.18555e-11 1.92325e-10 -9.85591e-11
-4.96767e-10 1.03638e-10 -9.24491e-11
4.53506e-10 1.25281e-10 -3.30821e-11
1.09682e-10 9.2553e-11 -2.04995e-10
1.2934e-10 -4.25918e-13 4.69377e-11
-7.7108e-10 3.89915e-10 -1.09841e-10
-1.29492e-10 -3.45255e-11 4.56672e-11
1.65767e-10 -4.34497e-11 -1.32444e-11
-2.56394e-11 -1.18325e-10 6.31814e-11
-2.50114e-11 9.92054e-12 2.58291e-11
7.72035e-11 1.15843e-10 4.61476e-10
1.51877e-10 -1.77998e-10 1.22467e-10
2.73196e-10 -5.40957e-10 -5.55318e-11
-4.76038e-11 5.59936e-10 -4.75888e-11
-5.13668e-11 -3.70711e-10 -6.97715e-11
-7.49992e-11 7.93865e-11 1.62259e-11
2.96217e-11 -1.32949e-10 1.88339e-10
1.80213e-10 3.80656e-10 -7.29176e-10
-6.81563e-11 2.44534e-10 -7.48211e-11
1.09205e-10 -8.08831e-11 -6.86222e-11
1.19135e-11 -1.44828e-10 -2.38141e-11
-3.32016e-10 2.41216e-11 3.75441e-11
1.17793e-11 -1.18653e-11 -1.18664e-11
-4.14106e-11 -4.30521e-10 2.38867e-10
-1.18943e-11 9.85891e-11 -3.09838e-10
-3.66127e-10 -1.16321e-10 -6.22065e-12
-5.34041e-11 1.62716e-11 7.19308e-11
-3.66641e-12 2.53759e-11 -2.87135e-11
-7.52991e-11 -2.07948e-11 -1.04152e-10
-9.50863e-12 -3.95903e-11 -2.11513e-11
2.9747e-11 -2.31388e-10 -8.99848e-12
3.25652e-10 -8.57008e-10 1.89115e-10
-1.97112e-10 -2.48998e-11 -2.07253e-11
-9.29173e-11 3.20828e-10 -1.20921e-10
2.2675e-11 -1.50883e-11 -8.13054e-12
-1.36119e-12 9.43117e-12 -3.70839e-12
-2.53981e-11 3.46044e-11 8.31189e-12
2.39036e-12 -2.91433e-11 8.00537e-11
1.35289e-12 4.60042e-11 -4.48401e-12
2.1685e-10 -9.87081e-11 5.05956e-10
-2.67913e-10 -4.76203e-11 -7.92954e-12
3.18984e-10 -2.27744e-11 2.15841e-10
7.74533e-11 -7.50712e-11 3.29995e-11
4.51275e-10 2.21343e-10 1.19267e-10
-2.66057e-11 1.97745e-10 -8.59187e-11
-2.12503e-10 2.68508e-12 1.02597e-10
1.49324e-10 -3.07526e-10 6.71172e-11
-1.38602e-10 2.26266e-10 1.11107e-10
2.17732e-10 -1.40774e-10 1.85849e-10
6.66805e-11 2.77196e-11 -4.11991e-11
1.92907e-10 4.17032e-10 8.51789e-11
8.30263e-11 -1.87104e-11 -7.21906e-12
1.71787e-11 -2.80094e-10 -2.62014e-11
1.76536e-10 -2.10378e-10 6.9236e-11
1.02286e-10 -8.13602e-11 1.132e-11
-5.80692e-11 2.11099e-10 2.31891e-10
4.68564e-10 -4.41704e-11 1.08565e-10
2.6848e-10 -6.36723e-11 -2.58922e-10
-1.332e-10 8.0217e-13 6.06522e-11
5.51715e-11 -9.90823e-11 1.93646e-10
-2.10969e-11 -2.60845e-11 2.8807e-12
3.66403e-10 -8.32666e-10 8.79171e-10
7.94148e-13 1.21367e-10 -2.59935e-10
8.61499e-11 -6.01885e-10 2.316e-10
2.04038e-11 9.61538e-12 2.67635e-11
4.0504e-12 -7.36936e-11 4.58239e-11
5.04629e-11 7.26158e-11 -3.50191e-11
8.41712e-11 -3.18132e-11 -2.55699e-12
1.06557e-10 -4.95529e-11 2.69435e-11
-6.26935e-12 1.55982e-11 -7.49973e-11
-3.57735e-10 -9.97525e-11 1.74888e-10
3.06254e-11 1.19254e-11 -5.51859e-12
-9.89738e-12 -1.8101e-10 3.7855e-11
8.95103e-11 -6.64787e-12 5.04173e-12
-3.87737e-12 2.51991e-10 -9.39797e-11
3.40591e-11 -6.03852e-11 7.4298e-11
1.9385e-10 4.01009e-10 6.13015e-11
-2.07033e-13 1.88797e-11 -4.85915e-11
-2.01888e-10 2.95635e-10 -4.93798e-11
4.91864e-10 -2.00094e-10 -4.36483e-10
-4.6264e-11 -6.35548e-11 -1.04339e-12
2.49319e-11 -2.66038e-11 1.03863e-11
6.7758e-11 -8.19963e-11 2.22692e-11
1.05043e-09 -2.7e-09 1.86788e-10
7.26974e-11 1.0074e-10 -3.40518e-11
5.14591e-12 2.15768e-11 -1.51981e-11
-6.45019e-11 -1.13772e-10 7.37978e-13
5.36933e-11 1.99296e-11 -1.06635e-11
6.95995e-12 2.79445e-11 -1.94953e-11
3.11951e-12 1.40184e-11 -9.83459e-12
-1.81992e-10 -1.28434e-10 6.55994e-11
-3.509e-12 3.6005e-11 -3.89947e-11
5.41928e-11 -9.16317e-11 4.05734e-11
6.29319e-11 -1.42303e-11 1.79635e-10
1.54153e-10 -3.84758e-11 3.76145e-11
1.40153e-11 6.39677e-11 -2.16351e-10
7.49632e-25 -1.03915e-23 -3.10193e-24
1.25752e-12 8.24982e-12 -6.0183e-12
-2.39538e-10 6.54576e-11 -1.24852e-10
7.1341e-11 -1.92933e-11 1.85546e-11
1.51529e-10 1.15382e-10 -2.30882e-11
-1.80398e-10 -1.49762e-10 4.58255e-10
-1.92185e-12 5.96976e-11 -2.49904e-11
1.28493e-09 -5.72573e-10 -2.1113e-10
3.30258e-11 3.43477e-10 -1.1359e-10
-1.8097e-10 -7.17321e-11 -3.91472e-10
-1.10749e-11 -9.48069e-12 6.56413e-12
6.48797e-10 -3.49447e-10 -5.60576e-11
-3.88273e-11 3.66541e-11 -1.94371e-10
4.92421e-10 1.48411e-10 -5.08742e-11
-1.29054e-10 5.35917e-11 -2.07491e-11
1.61603e-11 3.92516e-11 -1.4448e-11
1.33832e-10 6.56319e-11 1.18228e-10
-4.63678e-10 3.34934e-10 -6.07552e-11
-2.4653e-10 -1.38602e-10 5.46784e-11
-4.46269e-10 -2.53401e-10 1.36759e-10
1.61908e-11 7.37526e-11 -2.52444e-11
5.77235e-10 2.82085e-10 6.79088e-11
-1.44383e-10 -2.17346e-10 1.25625e-10
1.02793e-10 3.15453e-10 6.81771e-11
-6.26128e-12 -2.32643e-10 -1.52927e-10
-1.25355e-10 -2.89062e-10 2.80687e-11
-1.30657e-10 3.32328e-11 -4.95861e-11
6.32836e-12 1.68447e-11 -8.44762e-12
-1.65773e-10 1.08782e-10 1.4072e-10
6.2263e-12 -2.73345e-10 -5.94289e-11
2.16807e-11 -1.44526e-10 1.85435e-10
1.48857e-11 -3.72824e-13 1.94703e-11
2.81996e-11 -1.17704e-11 4.11738e-12
-1.24681e-10 -2.19177e-11 1.10222e-11
4.10794e-11 -5.80295e-10 1.76356e-10
-1.69403e-10 -2.16633e-11 -3.00606e-10
1.31796e-10 1.17206e-11 -5.29093e-10
1.57194e-10 7.04149e-11 -7.25568e-12
1.28776e-09 -8.16795e-10 3.28324e-11
-5.94502e-11 5.11992e-10 -2.29104e-10
3.90813e-11 -5.03902e-12 -2.42456e-11
-4.59314e-11 -9.28181e-11 1.09323e-11
-1.61867e-10 2.29315e-10 -7.38855e-11
-2.32722e-11 -1.88714e-10 2.29285e-10
-9.54721e-11 2.19488e-10 4.40252e-11
2.44064e-10 -1.84319e-10 -2.42922e-11
-2.61755e-10 2.08988e-11 7.13938e-12
