# vtk DataFile Version 3.0
LIGGGHTS particles timestep 39400000
ASCII
DATASET POLYDATA
POINTS 283 float
0.193366 0.0164471 0.00776825
0.193714 0.017544 0.00709612
0.193814 0.0184618 0.00688265
0.193794 0.0183637 0.0068841
0.19299 0.015207 0.00898358
0.1994 0.0165836 0.00768739
0.193133 0.015628 0.00846345
0.192971 0.0151736 0.00907592
0.199638 0.0175921 0.00708219
0.19404 0.0182646 0.00688877
0.193539 0.0167531 0.00747481
0.199599 0.0174226 0.007181
0.194074 0.0175716 0.00708033
0.186938 0.015193 0.00928175
0.194054 0.0174801 0.00711573
0.187288 0.0161423 0.00796782
0.199752 0.0181551 0.00692871
0.193736 0.0180746 0.00692894
0.193751 0.0172985 0.00718684
0.193009 0.0152403 0.00889125
0.193853 0.018658 0.00687979
0.199562 0.0172544 0.0072826
0.193904 0.0176046 0.00707333
0.199503 0.0170026 0.00743461
0.187206 0.0158135 0.00817943
0.193697 0.0178876 0.00698844
0.199379 0.0165 0.00773779
0.193909 0.018494 0.00688326
0.193998 0.0176348 0.00706195
0.199422 0.0166672 0.00763699
0.193678 0.0177941 0.00701821
0.194093 0.017665 0.00705057
0.199694 0.0178654 0.00698001
0.193107 0.0155544 0.00852577
0.194037 0.0178218 0.0070024
0.193149 0.0157032 0.00839947
0.19379 0.017481 0.00711511
0.193806 0.0171511 0.0072589
0.193889 0.0183959 0.00688469
0.193848 0.0177612 0.00702518
0.199443 0.0167509 0.00758652
0.199523 0.0170865 0.00738397
0.193049 0.0153332 0.00871979
0.193731 0.0172095 0.00722807
0.199483 0.0169187 0.00748524
0.193942 0.0177915 0.00701379
0.187894 0.018859 0.00684313
0.187857 0.0178027 0.00700858
0.194021 0.0181673 0.00690207
0.199463 0.0168348 0.0075359
0.18749 0.0165828 0.00769243
0.199581 0.0173383 0.00723194
0.193658 0.0177007 0.00704798
0.193028 0.0152779 0.00880061
0.193616 0.0167024 0.00751819
0.193831 0.0181049 0.00691772
0.199543 0.0171704 0.00733333
0.193419 0.0163231 0.0078758
0.188048 0.0183154 0.00692213
0.194112 0.0177585 0.0070208
0.187542 0.0164449 0.00778365
0.193691 0.0170314 0.00730985
0.199788 0.0178969 0.00697336
0.18753 0.0167486 0.00758726
0.199618 0.0175072 0.00713124
0.193067 0.015405 0.00865268
0.193482 0.0168807 0.00737089
0.193087 0.0154797 0.0085892
0.199733 0.0180586 0.00694581
0.193948 0.0186912 0.0068804
0.186998 0.0153271 0.00902019
0.187102 0.0155539 0.00858722
0.193809 0.0175743 0.00708475
0.188088 0.0185097 0.00689203
0.187605 0.0166945 0.00762537
0.187018 0.015372 0.00893299
0.199674 0.0177688 0.00699711
0.187468 0.0164998 0.00774502
0.19387 0.0182979 0.00688611
0.199655 0.0176776 0.00703317
0.193634 0.0167761 0.00745309
0.193828 0.0176678 0.00705495
0.193557 0.0168258 0.00740868
0.193441 0.0163975 0.00781265
0.193766 0.0169731 0.00734089
0.193865 0.0174184 0.00713576
0.193616 0.0170897 0.00727882
0.194001 0.018072 0.00692446
0.193826 0.0172402 0.00721788
0.193675 0.0173568 0.00715575
0.187666 0.0169428 0.0074679
0.19362 0.0175137 0.00710753
0.187913 0.0176423 0.00703945
0.193962 0.017885 0.00698402
0.19394 0.0173602 0.00716679
0.187585 0.0166118 0.00767786
0.187971 0.0179298 0.00698184
0.193484 0.0165405 0.00767904
0.186958 0.0152377 0.00919457
0.193981 0.0179784 0.00695426
0.193775 0.0182656 0.0068855
0.193872 0.018756 0.00687836
0.193258 0.0160751 0.00808398
0.187158 0.0156847 0.00832299
0.193984 0.0184287 0.0068853
0.18751 0.0166658 0.00763975
0.193717 0.0179811 0.00695867
0.193639 0.0176071 0.00707776
0.193522 0.0166819 0.00754287
0.188068 0.0184128 0.00690704
0.199357 0.0164164 0.00778818
0.193846 0.0173292 0.00717689
0.193728 0.0167952 0.00742397
0.193521 0.0170588 0.00728884
0.187881 0.0187912 0.00691548
0.193772 0.0178244 0.00700681
0.194188 0.0176953 0.00703918
0.193397 0.0162487 0.00793896
0.187058 0.015464 0.00876003
0.194059 0.0183629 0.00688735
0.18718 0.0157415 0.00824388
0.193236 0.0160015 0.00814793
0.187952 0.0187501 0.00685843
0.19358 0.017327 0.00716749
0.193711 0.0171205 0.00726884
0.193884 0.0175113 0.00710385
0.193577 0.0169115 0.00736091
0.187842 0.018609 0.00688188
0.193427 0.0166647 0.00757112
0.193635 0.0171788 0.00723778
0.193652 0.0168532 0.00739194
0.194004 0.0185268 0.00688388
0.187931 0.0177355 0.00700789
0.193172 0.0157775 0.00833646
0.19396 0.0174493 0.00712574
0.19377 0.0173895 0.00715038
0.193463 0.0168038 0.007432
0.186978 0.0152824 0.00910734
0.193681 0.0176757 0.00714217
0.193747 0.016884 0.00738193
0.193463 0.0164701 0.00774692
0.187724 0.0171918 0.00730983
0.194095 0.0181015 0.00691332
0.187245 0.0159799 0.00807611
0.187119 0.0155972 0.00849866
0.187803 0.0184152 0.0069119
0.193925 0.0181353 0.00690607
0.187952 0.017833 0.00699685
0.193786 0.0170622 0.00729985
0.187799 0.0175274 0.00710567
0.193596 0.0170006 0.00731987
0.188143 0.0183468 0.00691553
0.19356 0.017237 0.00720674
0.187862 0.0187059 0.00686687
0.193672 0.0169423 0.0073509
0.187447 0.0164172 0.00779738
0.193923 0.017698 0.00704356
0.187744 0.0181245 0.00695694
0.187435 0.0167201 0.0076015
0.193792 0.0179179 0.00697704
0.187878 0.0183498 0.00692029
0.193886 0.0179482 0.00696564
0.18778 0.0174416 0.00715354
0.187666 0.0177332 0.00700323
0.187265 0.0160628 0.00802372
0.187937 0.0186407 0.00687523
0.187743 0.0172747 0.00725717
0.187625 0.0167772 0.0075729
0.194023 0.0186249 0.00688245
0.188013 0.0185752 0.00688362
0.19385 0.018199 0.00688755
0.187973 0.0183814 0.00691364
0.193906 0.0180417 0.0069359
0.18755 0.0168313 0.00753479
0.187629 0.0171624 0.00732462
0.199713 0.017962 0.00696291
0.193388 0.0165211 0.0077046
0.193344 0.0163728 0.00783154
0.18733 0.0163097 0.00786663
0.193695 0.0174508 0.00712692
0.187686 0.0174137 0.00717116
0.193753 0.0177309 0.00703658
0.193219 0.0159257 0.00821083
0.187839 0.018156 0.00695031
0.187686 0.0170259 0.00741517
0.193503 0.0166111 0.00761102
0.187915 0.0189556 0.00682814
0.187764 0.0182214 0.00694193
0.187082 0.0155054 0.00867227
0.187667 0.0173292 0.00722118
0.187705 0.0179304 0.00698537
0.194018 0.0177283 0.00703218
0.187819 0.0180591 0.00696555
0.187415 0.0166374 0.007654
0.187761 0.0173576 0.0072045
0.187564 0.0165284 0.00773076
0.188102 0.0186191 0.00687524
0.187222 0.0158954 0.00812416
0.193811 0.0180114 0.00694727
0.193409 0.0165934 0.00763881
0.199791 0.0183482 0.00689451
0.193502 0.0169698 0.00732988
0.187425 0.0163347 0.00784961
0.193444 0.0167322 0.00749943
0.193302 0.0162271 0.00796174
0.193279 0.0161508 0.00802218
0.194115 0.0181988 0.00689082
0.187309 0.016225 0.00791578
0.194056 0.0179153 0.00697263
0.187137 0.01564 0.00841012
0.187038 0.0154166 0.00884581
0.199772 0.0182517 0.00691161
0.187723 0.0175865 0.00707768
0.187837 0.0177064 0.00702712
0.18757 0.016914 0.00748234
0.187877 0.0178986 0.00698841
0.187686 0.0178328 0.00699465
0.187373 0.0164723 0.00775864
0.187705 0.0171089 0.00736245
0.193655 0.0172678 0.00719674
0.193867 0.0178547 0.00699541
0.187553 0.0172173 0.00728731
0.187495 0.0169699 0.00744676
0.187628 0.0175584 0.00709252
0.18759 0.0169967 0.00742987
0.181496 0.0169546 0.0073583
0.187475 0.0168856 0.00749649
0.18761 0.0170795 0.00737749
0.181477 0.0168681 0.00740454
0.181516 0.0170423 0.00731443
0.187455 0.0168029 0.00754899
0.181555 0.0172177 0.00722671
0.193979 0.0175413 0.00709172
0.193734 0.0176375 0.00706635
0.187394 0.0165548 0.00770636
0.193192 0.0158525 0.00827364
0.215741 0.019982 0.00563384
0.181535 0.01713 0.00727057
0.187918 0.0185437 0.00689025
0.187818 0.017613 0.00705785
0.187405 0.0162521 0.00790204
0.187916 0.0180924 0.00695839
0.187647 0.0176442 0.00704465
0.187761 0.0177672 0.00700177
0.187898 0.0184467 0.00690527
0.193945 0.0182317 0.00688816
0.187534 0.0171339 0.00733891
0.1878 0.0179624 0.00698195
0.181594 0.0173937 0.00713978
0.187704 0.0174995 0.0071233
0.187351 0.0163899 0.00781087
0.193323 0.0162983 0.00789455
0.187993 0.0184783 0.00689863
0.187823 0.0185121 0.00689689
0.188163 0.0184442 0.00690044
0.187991 0.0180267 0.00696683
0.18761 0.0174726 0.00714038
0.187859 0.0182529 0.0069353
0.187896 0.0179957 0.00697482
0.187725 0.0180276 0.00697195
0.187954 0.0182876 0.00694219
0.187591 0.0173869 0.00718824
0.1936 0.0174203 0.00713729
0.404182 0.0211142 0.0056569
0.181633 0.0175876 0.00711022
0.188027 0.0186847 0.00686681
0.181613 0.0174906 0.007125
0.181574 0.0173055 0.00718284
0.187648 0.0172456 0.00727266
0.187516 0.017052 0.00739338
0.187935 0.0181893 0.00694338
0.193965 0.0183306 0.00688673
0.187743 0.0176744 0.00703425
0.188026 0.0181192 0.00695218
0.18778 0.017865 0.00699292
0.187784 0.0183183 0.00692691
0.193928 0.0185921 0.00688184
0.187572 0.0173012 0.00723616
0.187645 0.0168599 0.00752043
0.193541 0.0171479 0.0072478
0.193755 0.0181691 0.00690298
0.188032 0.0182179 0.00693717
0.193833 0.0185599 0.00688122

VERTICES 283 566
1 0
1 1
1 2
1 3
1 4
1 5
1 6
1 7
1 8
1 9
1 10
1 11
1 12
1 13
1 14
1 15
1 16
1 17
1 18
1 19
1 20
1 21
1 22
1 23
1 24
1 25
1 26
1 27
1 28
1 29
1 30
1 31
1 32
1 33
1 34
1 35
1 36
1 37
1 38
1 39
1 40
1 41
1 42
1 43
1 44
1 45
1 46
1 47
1 48
1 49
1 50
1 51
1 52
1 53
1 54
1 55
1 56
1 57
1 58
1 59
1 60
1 61
1 62
1 63
1 64
1 65
1 66
1 67
1 68
1 69
1 70
1 71
1 72
1 73
1 74
1 75
1 76
1 77
1 78
1 79
1 80
1 81
1 82
1 83
1 84
1 85
1 86
1 87
1 88
1 89
1 90
1 91
1 92
1 93
1 94
1 95
1 96
1 97
1 98
1 99
1 100
1 101
1 102
1 103
1 104
1 105
1 106
1 107
1 108
1 109
1 110
1 111
1 112
1 113
1 114
1 115
1 116
1 117
1 118
1 119
1 120
1 121
1 122
1 123
1 124
1 125
1 126
1 127
1 128
1 129
1 130
1 131
1 132
1 133
1 134
1 135
1 136
1 137
1 138
1 139
1 140
1 141
1 142
1 143
1 144
1 145
1 146
1 147
1 148
1 149
1 150
1 151
1 152
1 153
1 154
1 155
1 156
1 157
1 158
1 159
1 160
1 161
1 162
1 163
1 164
1 165
1 166
1 167
1 168
1 169
1 170
1 171
1 172
1 173
1 174
1 175
1 176
1 177
1 178
1 179
1 180
1 181
1 182
1 183
1 184
1 185
1 186
1 187
1 188
1 189
1 190
1 191
1 192
1 193
1 194
1 195
1 196
1 197
1 198
1 199
1 200
1 201
1 202
1 203
1 204
1 205
1 206
1 207
1 208
1 209
1 210
1 211
1 212
1 213
1 214
1 215
1 216
1 217
1 218
1 219
1 220
1 221
1 222
1 223
1 224
1 225
1 226
1 227
1 228
1 229
1 230
1 231
1 232
1 233
1 234
1 235
1 236
1 237
1 238
1 239
1 240
1 241
1 242
1 243
1 244
1 245
1 246
1 247
1 248
1 249
1 250
1 251
1 252
1 253
1 254
1 255
1 256
1 257
1 258
1 259
1 260
1 261
1 262
1 263
1 264
1 265
1 266
1 267
1 268
1 269
1 270
1 271
1 272
1 273
1 274
1 275
1 276
1 277
1 278
1 279
1 280
1 281
1 282

POINT_DATA 283
SCALARS id int 1
LOOKUP_TABLE default
1
2
3
4
5
6
7
8
9
10
11
12
13
14
15
16
18
19
20
21
22
24
25
26
27
29
30
31
32
33
34
35
36
37
38
40
41
42
43
44
45
46
47
48
49
50
52
55
56
57
58
59
60
61
62
63
64
65
66
67
68
69
70
71
72
73
74
75
76
77
78
79
80
81
82
83
84
85
86
87
88
89
90
91
92
93
94
95
96
98
99
100
101
102
103
104
105
106
107
108
109
110
111
112
113
114
115
116
117
118
119
120
121
122
123
124
125
126
127
128
129
130
131
132
133
134
135
136
137
138
139
140
141
142
144
145
146
147
148
149
150
152
153
154
155
156
157
158
159
160
161
162
164
165
166
167
168
169
170
171
172
173
174
175
176
177
178
179
180
181
182
183
184
185
186
187
188
189
190
191
192
193
194
195
196
197
198
199
200
201
202
203
204
205
206
207
208
209
210
211
213
214
215
217
218
219
220
221
222
223
224
225
226
227
228
229
230
231
232
233
234
235
236
237
238
239
241
242
243
244
245
246
247
248
249
250
251
252
253
254
255
256
257
258
259
260
261
262
263
264
265
267
268
269
270
271
272
273
274
275
276
277
278
279
280
281
282
283
284
285
286
287
288
289
290
292
293
294
295
296
297
298
300

SCALARS type int 1
LOOKUP_TABLE default
1
1
1
1
1
1
1
1
1
1
1
1
1
1
1
1
1
1
1
1
1
1
1
1
1
1
1
1
1
1
1
1
1
1
1
1
1
1
1
1
1
1
1
1
1
1
1
1
1
1
1
1
1
1
1
1
1
1
1
1
1
1
1
1
1
1
1
1
1
1
1
1
1
1
1
1
1
1
1
1
1
1
1
1
1
1
1
1
1
1
1
1
1
1
1
1
1
1
1
1
1
1
1
1
1
1
1
1
1
1
1
1
1
1
1
1
1
1
1
1
1
1
1
1
1
1
1
1
1
1
1
1
1
1
1
1
1
1
1
1
1
1
1
1
1
1
1
1
1
1
1
1
1
1
1
1
1
1
1
1
1
1
1
1
1
1
1
1
1
1
1
1
1
1
1
1
1
1
1
1
1
1
1
1
1
1
1
1
1
1
1
1
1
1
1
1
1
1
1
1
1
1
1
1
1
1
1
1
1
1
1
1
1
1
1
1
1
1
1
1
1
1
1
1
1
1
1
1
1
1
1
1
1
1
1
1
1
1
1
1
1
1
1
1
1
1
1
1
1
1
1
1
1
1
1
1
1
1
1
1
1
1
1
1
1
1
1
1
1
1
1
1
1
1
1
1
1
1
1
1
1
1
1

SCALARS radius float 1
LOOKUP_TABLE default
5e-05
5e-05
5e-05
5e-05
5e-05
5e-05
5e-05
5e-05
5e-05
5e-05
5e-05
5e-05
5e-05
5e-05
5e-05
5e-05
5e-05
5e-05
5e-05
5e-05
5e-05
5e-05
5e-05
5e-05
5e-05
5e-05
5e-05
5e-05
5e-05
5e-05
5e-05
5e-05
5e-05
5e-05
5e-05
5e-05
5e-05
5e-05
5e-05
5e-05
5e-05
5e-05
5e-05
5e-05
5e-05
5e-05
5e-05
5e-05
5e-05
5e-05
5e-05
5e-05
5e-05
5e-05
5e-05
5e-05
5e-05
5e-05
5e-05
5e-05
5e-05
5e-05
5e-05
5e-05
5e-05
5e-05
5e-05
5e-05
5e-05
5e-05
5e-05
5e-05
5e-05
5e-05
5e-05
5e-05
5e-05
5e-05
5e-05
5e-05
5e-05
5e-05
5e-05
5e-05
5e-05
5e-05
5e-05
5e-05
5e-05
5e-05
5e-05
5e-05
5e-05
5e-05
5e-05
5e-05
5e-05
5e-05
5e-05
5e-05
5e-05
5e-05
5e-05
5e-05
5e-05
5e-05
5e-05
5e-05
5e-05
5e-05
5e-05
5e-05
5e-05
5e-05
5e-05
5e-05
5e-05
5e-05
5e-05
5e-05
5e-05
5e-05
5e-05
5e-05
5e-05
5e-05
5e-05
5e-05
5e-05
5e-05
5e-05
5e-05
5e-05
5e-05
5e-05
5e-05
5e-05
5e-05
5e-05
5e-05
5e-05
5e-05
5e-05
5e-05
5e-05
5e-05
5e-05
5e-05
5e-05
5e-05
5e-05
5e-05
5e-05
5e-05
5e-05
5e-05
5e-05
5e-05
5e-05
5e-05
5e-05
5e-05
5e-05
5e-05
5e-05
5e-05
5e-05
5e-05
5e-05
5e-05
5e-05
5e-05
5e-05
5e-05
5e-05
5e-05
5e-05
5e-05
5e-05
5e-05
5e-05
5e-05
5e-05
5e-05
5e-05
5e-05
5e-05
5e-05
5e-05
5e-05
5e-05
5e-05
5e-05
5e-05
5e-05
5e-05
5e-05
5e-05
5e-05
5e-05
5e-05
5e-05
5e-05
5e-05
5e-05
5e-05
5e-05
5e-05
5e-05
5e-05
5e-05
5e-05
5e-05
5e-05
5e-05
5e-05
5e-05
5e-05
5e-05
5e-05
5e-05
5e-05
5e-05
5e-05
5e-05
5e-05
5e-05
5e-05
5e-05
5e-05
5e-05
5e-05
5e-05
5e-05
5e-05
5e-05
5e-05
5e-05
5e-05
5e-05
5e-05
5e-05
5e-05
5e-05
5e-05
5e-05
5e-05
5e-05
5e-05
5e-05
5e-05
5e-05
5e-05
5e-05
5e-05
5e-05
5e-05
5e-05
5e-05
5e-05
5e-05
5e-05
5e-05
5e-05
5e-05
5e-05
5e-05
5e-05
5e-05
5e-05
5e-05
5e-05
5e-05
5e-05
5e-05
5e-05
5e-05
5e-05
5e-05
5e-05
5e-05
5e-05
5e-05

SCALARS mass float 1
LOOKUP_TABLE default
1.46608e-10
1.46608e-10
1.46608e-10
1.46608e-10
1.46608e-10
1.46608e-10
1.46608e-10
1.46608e-10
1.46608e-10
1.46608e-10
1.46608e-10
1.46608e-10
1.46608e-10
1.46608e-10
1.46608e-10
1.46608e-10
1.46608e-10
1.46608e-10
1.46608e-10
1.46608e-10
1.46608e-10
1.46608e-10
1.46608e-10
1.46608e-10
1.46608e-10
1.46608e-10
1.46608e-10
1.46608e-10
1.46608e-10
1.46608e-10
1.46608e-10
1.46608e-10
1.46608e-10
1.46608e-10
1.46608e-10
1.46608e-10
1.46608e-10
1.46608e-10
1.46608e-10
1.46608e-10
1.46608e-10
1.46608e-10
1.46608e-10
1.46608e-10
1.46608e-10
1.46608e-10
1.46608e-10
1.46608e-10
1.46608e-10
1.46608e-10
1.46608e-10
1.46608e-10
1.46608e-10
1.46608e-10
1.46608e-10
1.46608e-10
1.46608e-10
1.46608e-10
1.46608e-10
1.46608e-10
1.46608e-10
1.46608e-10
1.46608e-10
1.46608e-10
1.46608e-10
1.46608e-10
1.46608e-10
1.46608e-10
1.46608e-10
1.46608e-10
1.46608e-10
1.46608e-10
1.46608e-10
1.46608e-10
1.46608e-10
1.46608e-10
1.46608e-10
1.46608e-10
1.46608e-10
1.46608e-10
1.46608e-10
1.46608e-10
1.46608e-10
1.46608e-10
1.46608e-10
1.46608e-10
1.46608e-10
1.46608e-10
1.46608e-10
1.46608e-10
1.46608e-10
1.46608e-10
1.46608e-10
1.46608e-10
1.46608e-10
1.46608e-10
1.46608e-10
1.46608e-10
1.46608e-10
1.46608e-10
1.46608e-10
1.46608e-10
1.46608e-10
1.46608e-10
1.46608e-10
1.46608e-10
1.46608e-10
1.46608e-10
1.46608e-10
1.46608e-10
1.46608e-10
1.46608e-10
1.46608e-10
1.46608e-10
1.46608e-10
1.46608e-10
1.46608e-10
1.46608e-10
1.46608e-10
1.46608e-10
1.46608e-10
1.46608e-10
1.46608e-10
1.46608e-10
1.46608e-10
1.46608e-10
1.46608e-10
1.46608e-10
1.46608e-10
1.46608e-10
1.46608e-10
1.46608e-10
1.46608e-10
1.46608e-10
1.46608e-10
1.46608e-10
1.46608e-10
1.46608e-10
1.46608e-10
1.46608e-10
1.46608e-10
1.46608e-10
1.46608e-10
1.46608e-10
1.46608e-10
1.46608e-10
1.46608e-10
1.46608e-10
1.46608e-10
1.46608e-10
1.46608e-10
1.46608e-10
1.46608e-10
1.46608e-10
1.46608e-10
1.46608e-10
1.46608e-10
1.46608e-10
1.46608e-10
1.46608e-10
1.46608e-10
1.46608e-10
1.46608e-10
1.46608e-10
1.46608e-10
1.46608e-10
1.46608e-10
1.46608e-10
1.46608e-10
1.46608e-10
1.46608e-10
1.46608e-10
1.46608e-10
1.46608e-10
1.46608e-10
1.46608e-10
1.46608e-10
1.46608e-10
1.46608e-10
1.46608e-10
1.46608e-10
1.46608e-10
1.46608e-10
1.46608e-10
1.46608e-10
1.46608e-10
1.46608e-10
1.46608e-10
1.46608e-10
1.46608e-10
1.46608e-10
1.46608e-10
1.46608e-10
1.46608e-10
1.46608e-10
1.46608e-10
1.46608e-10
1.46608e-10
1.46608e-10
1.46608e-10
1.46608e-10
1.46608e-10
1.46608e-10
1.46608e-10
1.46608e-10
1.46608e-10
1.46608e-10
1.46608e-10
1.46608e-10
1.46608e-10
1.46608e-10
1.46608e-10
1.46608e-10
1.46608e-10
1.46608e-10
1.46608e-10
1.46608e-10
1.46608e-10
1.46608e-10
1.46608e-10
1.46608e-10
1.46608e-10
1.46608e-10
1.46608e-10
1.46608e-10
1.46608e-10
1.46608e-10
1.46608e-10
1.46608e-10
1.46608e-10
1.46608e-10
1.46608e-10
1.46608e-10
1.46608e-10
1.46608e-10
1.46608e-10
1.46608e-10
1.46608e-10
1.46608e-10
1.46608e-10
1.46608e-10
1.46608e-10
1.46608e-10
1.46608e-10
1.46608e-10
1.46608e-10
1.46608e-10
1.46608e-10
1.46608e-10
1.46608e-10
1.46608e-10
1.46608e-10
1.46608e-10
1.46608e-10
1.46608e-10
1.46608e-10
1.46608e-10
1.46608e-10
1.46608e-10
1.46608e-10
1.46608e-10
1.46608e-10
1.46608e-10
1.46608e-10
1.46608e-10
1.46608e-10
1.46608e-10
1.46608e-10
1.46608e-10
1.46608e-10
1.46608e-10
1.46608e-10
1.46608e-10
1.46608e-10
1.46608e-10
1.46608e-10
1.46608e-10
1.46608e-10
1.46608e-10
1.46608e-10
1.46608e-10
1.46608e-10
1.46608e-10

VECTORS velocity float
0.00479819 -0.000137842 0.00024269
0.0043894 -6.63627e-05 -6.11746e-05
0.00445094 -9.7722e-05 2.51809e-05
0.00445624 -7.36179e-05 3.9587e-05
0.0043797 -0.000176803 0.000120953
0.00486517 0.000202649 7.29382e-05
0.00469286 -0.0001429 0.000243731
0.00435633 -0.000173622 0.000111
0.00451251 0.000275142 0.000120886
0.00446079 -1.83275e-05 5.58526e-05
0.00455571 -0.000199886 2.80366e-05
0.00450221 0.000233886 4.27271e-05
0.00439236 -8.94436e-05 -5.87422e-05
0.00426947 -0.000119405 -8.28315e-05
0.00437927 1.31084e-05 0.000203618
0.00488112 8.7762e-05 0.000155771
0.00452007 0.000221115 -9.34886e-05
0.0044814 -6.55352e-05 -0.000144201
0.00437214 3.7081e-05 0.000188293
0.00440845 -0.000180028 0.00012503
0.00441924 -5.92947e-05 5.65659e-05
0.00448487 0.000259153 2.30691e-05
0.00439646 -5.86302e-05 -4.41207e-05
0.00457415 0.000283942 1.0846e-05
0.00492166 3.79785e-05 0.000122681
0.00440844 -0.000134728 -3.84066e-05
0.00487001 0.000180855 8.62655e-05
0.00443987 -4.96071e-05 5.48346e-05
0.00439918 -8.16896e-05 -5.97743e-05
0.00485908 0.000218854 6.2729e-05
0.00440278 -0.000130011 -4.74314e-05
0.00440205 -8.91211e-05 -5.88438e-05
0.00452013 0.000221098 -8.9942e-05
0.00458427 -0.000123852 0.000223699
0.00444321 -0.00010735 -5.53011e-05
0.00475131 -0.000146713 0.000247987
0.00437029 -2.50055e-05 2.9724e-05
0.00442863 2.66682e-05 0.00019824
0.00444414 -5.36932e-05 4.6184e-05
0.00441668 -9.55507e-05 -5.82059e-05
0.00449115 0.000284347 7.02106e-06
0.00459656 0.000272078 1.83847e-05
0.00440795 -0.000137971 0.00015084
0.00439197 3.63217e-05 0.000193432
0.00454589 0.000287177 7.7556e-06
0.00442867 -8.34768e-05 -6.19798e-05
0.004898 -0.000125325 -7.75436e-05
0.00444984 3.52232e-05 -6.94949e-05
0.00443908 -3.59602e-05 -7.14081e-05
0.00449402 0.000290479 3.55185e-06
0.00461592 0.000145054 0.000106281
0.00447107 0.000244916 2.97416e-05
0.00440277 -9.30508e-05 -5.6109e-05
0.00442575 -0.000184662 0.00012173
0.0046186 -0.000231176 -3.73756e-05
0.00449128 -2.0285e-05 -0.000115702
0.00460479 0.000258062 2.78466e-05
0.00478785 -0.000138801 0.000242617
0.00442021 4.8341e-05 -9.38522e-05
0.00442577 -0.000110112 -5.34387e-05
0.00486855 0.000145645 0.000116857
0.00444701 2.58118e-05 0.000198444
0.00452462 0.000231297 -9.64494e-05
0.00453876 0.000138626 0.000106917
0.0045121 0.000253044 8.71027e-05
0.00439868 -9.73152e-05 0.000195201
0.00460869 -1.84342e-05 0.000228234
0.00446841 -0.000107557 0.000206552
0.00445244 0.000237999 -9.49334e-05
0.00440503 -2.07724e-05 5.46511e-05
0.00450315 -0.000146043 -5.23355e-05
0.00471688 -0.000161108 -7.59862e-05
0.00438962 -6.01969e-05 -4.43203e-05
0.00442087 8.51772e-05 -0.000100627
0.00455039 0.000155731 9.6703e-05
0.00457522 -0.000153615 -4.8761e-05
0.00449583 0.000232825 -1.57452e-05
0.00484607 0.000119803 0.000132662
0.00446971 -3.2848e-05 3.95992e-05
0.00447365 0.000280343 0.00011032
0.0045275 -6.73796e-05 0.000121138
0.0044268 -8.50229e-05 -5.88565e-05
0.00450071 -0.000109698 0.000117972
0.00479234 -0.000139483 0.000243919
0.00445911 2.6107e-05 0.000199642
0.00436759 3.29021e-05 0.000189293
0.00445029 2.64157e-05 0.000199408
0.00447965 -7.25622e-05 -6.84016e-05
0.00438516 3.30069e-05 0.000193594
0.00451981 -6.86633e-05 0.000298038
0.00455737 0.000204824 6.55615e-05
0.00439062 -3.57382e-05 -8.30535e-05
0.00448939 5.2383e-05 -0.000141538
0.00447923 -0.000112077 -4.99033e-05
0.004362 2.86028e-05 0.000195564
0.00459767 0.000166661 9.16442e-05
0.00446943 3.24218e-05 -0.000103374
0.00479689 -0.000274043 -6.57189e-06
0.00438828 -0.000133789 -6.33314e-05
0.00448683 -0.000122471 -4.09009e-05
0.00446985 -2.53428e-05 3.38122e-05
0.00440505 -5.07318e-05 5.55529e-05
0.00476591 -0.000141284 0.000244024
0.00483541 -0.000148131 -6.90397e-05
0.0044594 -1.66445e-05 5.45588e-05
0.00456866 0.000137656 0.00010911
0.00442287 -0.000105441 -6.98226e-05
0.00437836 -0.000144114 -4.14422e-05
0.00462826 -0.000251516 -1.6071e-05
0.00441032 6.84396e-05 -9.49312e-05
0.00487603 0.000164127 9.69744e-05
0.00436524 3.59166e-05 0.000191751
0.00446352 -0.00012114 -0.000128021
0.00443388 3.4795e-05 0.000194596
0.00480783 -7.00242e-05 -3.02231e-05
0.0044053 -0.000134054 -4.33948e-05
0.0044017 -0.000140966 -4.28044e-05
0.00478285 -0.00013809 0.000241592
0.00466342 -0.000139882 -4.78047e-05
0.00445631 -8.80352e-06 5.48829e-05
0.0048479 -6.9842e-05 -1.88674e-05
0.00476752 -0.000144689 0.000246676
0.00476047 -4.96059e-05 -7.27749e-05
0.00441812 -0.000870475 -0.00264187
0.00442415 2.91121e-05 0.000193039
0.00437724 -4.27308e-05 -4.34495e-06
0.00439971 2.9981e-05 0.000195406
0.0044524 6.21584e-05 -9.73566e-05
0.00468096 -0.000256556 9.01158e-05
0.00447345 5.07021e-05 0.000188845
0.00447645 1.48223e-05 0.000204758
0.00444435 -6.49261e-06 5.48007e-05
0.00447621 7.95568e-05 7.44377e-05
0.00475553 -0.000147027 0.000248389
0.00437412 2.37792e-05 0.00019716
0.00436836 1.49401e-05 0.000136746
0.00452367 -0.000323499 -6.61629e-06
0.00448402 -0.000144754 -4.89192e-05
0.00441374 -7.74136e-05 -5.15947e-05
0.00446763 2.96224e-05 0.000198928
0.00484872 -0.000279671 -4.5157e-06
0.00450979 0.000153276 9.66348e-05
0.00446633 -1.24977e-05 -8.25769e-05
0.00490292 7.81209e-05 0.00016277
0.004771 -0.000153032 -7.0216e-05
0.00446754 7.83159e-05 -9.99426e-05
0.00442413 -5.808e-05 -8.07175e-05
0.00444627 2.16662e-05 -8.95758e-05
0.00445767 2.3364e-05 0.000200882
0.00437775 1.52175e-05 -0.000113566
0.00442606 2.97067e-05 0.000196655
0.00440956 7.50346e-05 -9.9429e-05
0.0044837 6.24039e-05 0.000184382
0.00443278 5.04354e-05 -9.72542e-05
0.00445877 2.14252e-05 0.000201479
0.00484931 0.00010548 0.000142115
0.00440594 -6.89365e-05 -6.35316e-05
0.00447713 7.63835e-05 -0.000105358
0.0045645 0.000111985 0.000125225
0.00440734 -0.000151267 -3.75472e-05
0.0044768 8.68704e-05 -0.000101009
0.00447064 -0.000124091 -3.64452e-05
0.00442763 5.9187e-05 -0.000137105
0.00446459 0.000101847 7.97786e-05
0.00488674 8.38121e-05 0.000158641
0.00441994 6.57502e-05 -9.73462e-05
0.00451511 0.000159962 9.13781e-05
0.00453102 0.000135757 0.000108702
0.00441096 5.58696e-06 5.42015e-05
0.00441154 7.00664e-05 -9.72459e-05
0.00470408 -0.000135759 0.000102907
0.00442352 4.94342e-05 -9.5545e-05
0.0044716 -0.000104619 -5.78376e-05
0.00453043 0.00013766 0.00010714
0.00442522 0.000158022 9.22904e-05
0.00450495 0.000232052 -9.63589e-05
0.00480031 -0.000160916 0.000220336
0.00479071 -0.000134974 0.000243565
0.00485641 9.12338e-05 0.000148442
0.00437798 -1.85162e-05 3.17015e-05
0.00441535 2.20862e-05 -0.000105648
0.00441472 -0.000111886 -5.34469e-05
0.00476337 -0.000146805 0.00024846
0.00450989 6.33307e-05 -0.000103416
0.00449395 0.000165805 8.81041e-05
0.00471666 -0.000264413 -1.18969e-05
0.00491283 -0.000113521 -7.96772e-05
0.00447889 4.42107e-05 -9.37397e-05
0.00467722 -0.000145309 -6.22767e-05
0.00440848 6.44858e-05 -4.62826e-05
0.00443984 7.26234e-05 6.70021e-05
0.00440679 -8.69455e-05 -5.90817e-05
0.00448851 5.8371e-05 -8.74389e-05
0.00458687 0.000113046 0.000125704
0.00445652 0.00018053 8.82163e-05
0.00466609 0.00019577 7.5837e-05
0.00456205 -0.000208259 -5.90704e-05
0.00490848 7.26063e-05 0.000164749
0.00444823 -0.0001421 -5.84467e-05
0.00475791 -0.000206641 0.000159268
0.00452716 0.000219321 -9.31428e-05
0.00441138 3.85845e-05 0.00019157
0.00486454 0.000106477 0.000142042
0.00460644 -0.000302947 3.28223e-05
0.0047854 -0.000137513 0.000244003
0.00477617 -0.000139275 0.000243133
0.00445636 -1.95253e-05 5.55038e-05
0.00487587 9.0351e-05 0.000152581
0.00447218 -0.000121823 -5.16878e-05
0.00483052 -0.000152687 -6.27591e-05
0.00465343 -0.000153678 -4.30397e-05
0.00452326 0.000218353 -9.29286e-05
0.00439964 3.84367e-05 -6.77909e-05
0.00445759 3.42957e-05 -5.70465e-05
0.00451842 0.000140349 0.000105731
0.00447019 3.51518e-05 -8.66829e-05
0.00446322 7.60728e-05 9.34303e-05
0.0048417 8.90321e-05 0.000152316
0.00448433 0.000146614 9.86913e-05
0.00406474 7.84775e-05 0.00014893
0.00444761 -0.000111118 -5.46592e-05
0.00441618 9.61083e-05 1.93589e-05
0.00450185 0.000120033 0.000114879
0.00441057 2.08275e-05 -0.000116156
0.00449465 0.000146513 0.000101686
0.00444593 0.00012823 0.000109742
0.00453253 0.0001134 0.000121494
0.00446623 0.000153303 9.70134e-05
0.00440326 -3.09524e-05 -0.000206079
0.0044679 0.00012457 0.000112423
0.00455366 0.000110794 0.000125321
0.00451182 0.000117151 0.000117921
0.00438532 -7.61392e-05 -5.06172e-05
0.00439787 -8.56725e-05 -6.13316e-05
0.00481649 8.49209e-05 0.000153997
0.00475689 -0.000146657 0.000248498
6.80609e-15 2.29899e-14 -7.03243e-14
0.00448984 0.000120904 0.000115168
0.00444491 7.52726e-05 -9.92769e-05
0.00443183 2.80558e-06 -0.000108833
0.00487547 0.000104914 0.000143395
0.00448796 3.37559e-05 -8.73442e-05
0.00444588 1.6582e-05 -0.000117122
0.00446566 7.43316e-05 7.36046e-05
0.00444125 5.52157e-05 -9.47855e-05
0.00450003 -5.08095e-05 5.77693e-05
0.00442133 0.000142862 9.98285e-05
0.00448579 5.55953e-05 -4.42752e-06
0.00441199 -3.61103e-05 -0.000239905
0.00438723 2.07266e-05 -0.000110045
0.00484897 9.13526e-05 0.000150077
0.004786 -0.000134829 0.000244758
0.00442481 6.7238e-05 -9.52167e-05
0.00445811 6.78696e-05 -9.80301e-05
0.00441282 6.8739e-05 -9.81532e-05
0.00450321 2.20504e-05 -9.89998e-05
0.00438936 4.67841e-06 -0.000103758
0.00449602 8.21787e-05 -0.00010439
0.00448706 3.34887e-05 -9.42741e-05
0.0044763 5.84177e-05 -0.000104074
0.00443234 4.70535e-05 -8.86223e-05
0.00449524 -8.05875e-06 -0.000100057
0.00454476 1.03478e-07 3.9378e-05
-1.28498e-14 6.09047e-14 -1.90218e-13
0.00439858 -3.35761e-05 -0.000239394
0.00463715 -0.000155712 -7.72632e-05
0.00440536 -3.47615e-05 -0.000239617
0.00453356 0.000113435 0.000120772
0.00441551 0.000125345 5.06178e-05
0.00446824 0.00013018 0.000109033
0.00445665 3.83291e-05 -8.62741e-05
0.00446159 -2.24299e-05 5.42629e-05
0.00444219 6.09849e-05 6.96744e-06
0.00451927 2.12266e-05 -8.9312e-05
0.00447644 6.41113e-05 8.00138e-05
0.00447689 7.87191e-05 -9.9323e-05
0.00442121 -3.96934e-05 5.61419e-05
0.00445944 1.17596e-05 -8.02968e-05
0.00455346 0.000166712 8.94615e-05
0.00445462 2.86559e-05 0.000198081
0.00451375 6.17139e-07 -7.45659e-05
0.00446421 2.97612e-05 -8.577e-05
0.00443418 -8.57436e-05 5.96986e-05

VECTORS force float
5.9587e-11 1.06146e-11 -7.72074e-12
2.4336e-10 -9.58582e-11 3.65679e-11
-7.2079e-12 2.68958e-10 -2.91648e-10
3.67202e-10 5.99265e-10 6.71571e-10
1.33739e-10 8.09496e-11 -7.23905e-11
1.29994e-11 -5.9554e-11 3.45749e-11
-1.01113e-10 1.42659e-11 -1.92615e-11
-2.92438e-11 3.82096e-11 -9.29602e-11
4.34628e-11 6.43151e-11 -5.21633e-11
8.02214e-11 2.84163e-12 1.04329e-11
-1.91036e-11 1.77178e-11 -2.77939e-11
-5.50243e-11 -5.22007e-11 1.48393e-12
3.72071e-12 5.7631e-11 -2.11803e-11
-2.08287e-11 -5.28264e-12 3.67148e-11
4.01377e-11 6.5233e-11 -1.66452e-11
-1.72426e-12 -1.41794e-10 7.41759e-11
-7.68418e-11 -8.42382e-11 4.71504e-12
5.67801e-10 5.95915e-10 -6.39969e-10
-5.22808e-11 -6.13491e-11 3.5546e-12
-2.03646e-10 -9.80892e-12 -1.17122e-10
-1.90039e-10 -5.50129e-10 -4.01723e-12
2.68282e-13 -1.93451e-10 1.32189e-10
-1.8209e-11 3.12449e-11 7.36982e-11
-1.10386e-12 3.69654e-11 -1.84474e-11
-1.27013e-10 7.63701e-11 -6.44682e-11
-9.10069e-11 2.57633e-10 -1.35168e-10
-3.32967e-11 -6.95928e-11 4.23571e-11
1.03595e-10 -1.50821e-10 -2.27684e-11
2.57865e-11 -7.05492e-13 -9.13617e-12
-2.81107e-11 2.20329e-11 -1.52195e-11
-6.01067e-11 -3.69976e-10 1.72825e-10
1.27557e-11 5.39667e-11 -5.1473e-12
5.26557e-11 8.45928e-11 -1.8999e-10
2.15856e-12 -1.88312e-11 3.47978e-12
2.75159e-10 -3.68638e-10 1.08877e-10
-5.00206e-11 -2.359e-12 2.67862e-12
-1.66724e-11 -9.06953e-11 5.20834e-11
3.60526e-11 1.70205e-11 -1.714e-11
3.19923e-10 5.0023e-11 -1.04871e-11
-4.76381e-11 -4.74087e-10 1.24533e-10
9.20588e-11 1.38269e-10 -7.8804e-11
1.35915e-10 -6.02368e-11 6.18906e-11
5.67501e-11 -2.31608e-11 -3.30882e-11
-7.09234e-11 -2.08402e-11 2.77046e-11
4.66938e-12 6.96605e-11 -4.55624e-11
1.75932e-10 -2.30136e-10 6.72867e-11
-1.26622e-10 -5.84388e-11 -2.6097e-11
4.00317e-10 -1.43967e-10 -7.29739e-12
-2.43462e-10 -9.59414e-12 -1.22611e-10
3.96455e-11 1.20558e-10 -7.12391e-11
5.94704e-11 -1.5742e-10 1.018e-10
-4.72981e-11 -1.50639e-10 9.79239e-11
4.41077e-11 -3.44167e-10 1.66534e-10
-4.42104e-11 -6.4515e-11 -8.81698e-11
2.85858e-11 -2.49091e-11 -6.68646e-13
-7.53069e-11 1.64675e-09 -4.37604e-10
-1.91762e-10 -1.76625e-10 7.72579e-11
2.25149e-11 3.35074e-11 -2.64635e-11
2.56675e-11 1.67828e-11 8.32949e-11
8.34975e-11 -3.37493e-11 1.22941e-11
1.33894e-10 -3.70985e-11 2.9352e-11
2.95746e-11 -2.76989e-13 2.71046e-11
5.07617e-11 3.75282e-10 -1.51302e-10
3.45058e-11 -1.85905e-10 1.17527e-10
1.04202e-10 7.794e-11 -4.61637e-11
8.98743e-12 -2.38776e-11 -1.48605e-11
2.15618e-11 3.38489e-11 -1.03185e-11
2.1754e-11 -2.10529e-11 1.99032e-11
-1.74867e-10 1.48505e-10 2.04926e-11
2.45715e-10 -2.49988e-10 7.13771e-12
3.59407e-11 1.17719e-10 -1.8174e-10
4.26387e-11 3.2733e-11 -9.84323e-11
8.47463e-11 -1.99458e-10 1.51901e-10
-1.61644e-11 2.22901e-11 3.23358e-11
-2.26981e-11 -2.50243e-10 1.60984e-10
1.47148e-11 1.69945e-10 -1.18654e-10
1.7844e-10 -8.18273e-12 -4.73458e-10
-7.71542e-11 -2.02304e-10 1.30243e-10
-4.26804e-10 6.03029e-11 -3.78263e-11
-1.08341e-10 6.89809e-11 5.07385e-11
-5.14096e-11 -3.6353e-11 -7.07501e-11
2.31315e-10 -3.66841e-10 9.14692e-11
-3.31216e-11 3.23627e-11 9.17534e-12
6.50522e-11 2.1515e-11 -1.97743e-11
3.97948e-11 2.12464e-11 2.32683e-12
1.24306e-11 1.51574e-12 -2.08722e-11
2.62101e-12 -5.74092e-11 2.25937e-11
8.59716e-11 -3.98782e-10 -9.34842e-12
6.5463e-11 9.29454e-12 1.3078e-11
-3.51275e-10 5.74935e-10 5.94933e-10
-1.61703e-10 -5.48118e-11 5.12593e-11
-2.35429e-12 1.69315e-10 -2.06002e-10
1.50775e-10 -3.23399e-11 -2.41253e-11
2.79016e-10 -1.65773e-10 1.48329e-10
7.91087e-11 3.41762e-11 -1.6994e-11
-2.60871e-11 -2.87294e-10 1.85128e-10
7.00334e-11 -3.19665e-11 6.6469e-11
-4.30312e-11 2.03602e-11 -1.59901e-11
4.64062e-10 9.80031e-12 5.95935e-12
-7.39095e-10 -2.54187e-10 1.74919e-10
2.52788e-10 4.3948e-10 8.15329e-10
3.1822e-12 -4.03528e-10 1.00527e-11
-4.40399e-11 -8.33964e-12 7.50994e-12
4.34309e-11 4.84176e-11 -6.83652e-11
8.41713e-11 -1.83169e-10 1.08482e-12
2.21673e-11 -1.96924e-10 1.20341e-10
1.27153e-10 8.64627e-10 -6.47692e-10
-9.54897e-12 -5.08643e-11 1.62436e-11
-1.67909e-11 3.56104e-11 -3.72569e-11
1.01551e-10 1.75573e-10 -1.31482e-11
3.00046e-12 -1.05139e-11 7.18803e-12
5.80238e-11 -3.462e-11 -3.78838e-11
-3.00283e-11 -1.87228e-11 -2.52025e-12
3.50431e-11 -3.64704e-11 1.57819e-11
3.18337e-10 6.19789e-11 -3.8277e-12
-2.39844e-10 -5.55771e-11 9.53052e-11
-1.17442e-10 -5.18914e-11 1.26611e-11
1.96897e-11 3.31851e-11 -3.27048e-11
1.74226e-10 1.22819e-10 -1.47484e-10
3.47898e-11 1.57067e-12 -4.17811e-12
3.3145e-11 1.09926e-10 -4.4718e-11
4.41363e-11 -1.91834e-11 1.73481e-11
4.01493e-10 -8.69826e-11 -3.80807e-11
1.12797e-10 -3.13041e-11 -1.25006e-10
-2.08044e-11 -2.72293e-12 3.41403e-11
-3.90737e-12 -4.57465e-12 1.30994e-11
1.7662e-11 -4.2338e-11 2.30011e-11
3.28934e-11 -5.34566e-11 -4.39738e-12
-2.68802e-11 -2.27238e-11 5.89247e-11
-2.6131e-10 -3.13132e-10 1.32571e-10
-1.04361e-11 1.48064e-11 -6.14525e-12
1.6998e-10 -1.47676e-10 4.72968e-12
2.15006e-10 1.00949e-10 -1.07941e-10
3.69703e-12 -2.43385e-11 1.41828e-11
4.13757e-11 4.83073e-11 -5.32935e-12
1.59572e-12 -1.09916e-10 -6.93782e-11
-1.18764e-11 -5.10789e-11 7.60609e-11
-3.98797e-11 7.54632e-11 -1.34109e-10
4.61307e-10 -4.92753e-10 1.64346e-10
5.47852e-11 -6.34413e-12 1.83558e-11
3.36154e-11 2.01356e-11 -2.37176e-11
5.9158e-11 6.17254e-11 -8.11259e-11
-2.31836e-10 8.879e-12 5.17476e-12
5.34442e-11 -8.60326e-11 4.86902e-11
-1.53655e-10 -2.81166e-11 -1.20235e-10
-4.01489e-11 -1.01085e-10 4.5541e-11
8.86022e-10 -2.34829e-10 -2.10482e-10
3.23816e-10 5.63888e-12 3.43166e-12
2.27034e-11 2.75354e-11 -1.55306e-11
1.73576e-10 -1.33546e-10 1.22033e-10
9.62311e-11 -4.3756e-11 3.24995e-11
-2.00844e-11 1.72495e-12 -3.80498e-11
-6.0567e-11 -1.08725e-10 5.5748e-11
-7.10594e-11 -1.3179e-10 -5.3395e-12
4.77841e-11 7.14747e-13 -7.15453e-13
2.41571e-11 -6.5139e-11 4.77348e-11
-1.49484e-11 -7.34487e-11 3.5729e-11
-3.81068e-10 -1.33436e-10 -9.22386e-12
-7.7842e-11 -8.55839e-11 5.1694e-11
-1.80526e-10 3.84542e-10 -2.39795e-10
-1.46544e-11 1.61893e-11 3.46313e-11
-3.31103e-10 2.16786e-10 -1.92508e-10
-4.39694e-12 6.44064e-11 1.43213e-11
2.36305e-10 -2.91809e-10 -3.46786e-11
3.53747e-11 -1.11303e-10 5.01298e-11
2.87879e-10 1.73318e-10 -5.15104e-11
4.33629e-11 1.21622e-10 -3.81198e-11
-8.22413e-11 -1.71291e-10 1.03643e-10
3.35404e-10 -1.03559e-10 5.60745e-12
1.18499e-10 4.30858e-11 3.44762e-12
-5.98436e-10 2.02299e-10 -6.36795e-12
1.95911e-11 -7.54911e-11 -3.49722e-12
-1.53267e-10 1.06935e-09 -6.06653e-10
-1.13567e-10 -1.29504e-10 8.76437e-11
1.01045e-10 7.20299e-11 6.84751e-12
2.27733e-11 2.31899e-10 -1.2158e-10
9.22503e-12 1.15886e-11 -2.13409e-12
2.52225e-11 2.92324e-11 4.21298e-12
-4.94775e-11 -1.24035e-10 9.13642e-11
1.44396e-11 1.57748e-12 -1.91829e-10
-4.34548e-11 -4.52569e-11 -1.39796e-10
2.86198e-11 -4.03662e-10 1.26551e-10
7.06725e-11 -4.62998e-11 5.16058e-11
-1.32032e-10 6.59152e-12 4.52882e-11
-3.14513e-11 -4.86915e-11 4.87033e-11
-1.10595e-11 2.11227e-11 -2.53909e-11
-6.74052e-11 -2.891e-10 4.80128e-11
-2.28752e-11 3.76411e-10 -2.65863e-10
-1.04002e-11 1.40466e-10 -1.21248e-10
-1.69492e-11 -3.87919e-11 -1.46782e-10
-1.83783e-10 4.52721e-10 1.97354e-10
-1.27602e-12 -1.37922e-10 3.54917e-11
-4.55981e-10 8.4013e-11 2.78638e-10
1.35125e-11 -1.49724e-10 1.07681e-10
-1.00904e-11 1.13069e-10 1.66282e-11
1.42098e-10 -1.13585e-10 8.07641e-11
2.55857e-10 -5.93369e-10 7.40183e-11
-1.07458e-10 -3.58607e-11 -1.8747e-11
3.74214e-10 4.56412e-10 -7.17121e-10
-2.04845e-11 1.88857e-11 1.69158e-11
-5.56424e-11 -1.9354e-10 3.11188e-11
3.50827e-11 8.6008e-11 -3.33735e-11
4.83821e-11 -8.61862e-11 5.85634e-11
1.67674e-11 -6.41638e-11 7.26016e-11
4.25565e-11 6.0239e-13 8.81389e-12
-5.4156e-11 -1.22028e-11 1.25279e-11
-3.07352e-11 -6.7016e-11 2.11937e-11
-5.34326e-11 -1.24269e-10 1.01953e-10
3.835e-10 -2.10864e-10 9.25748e-11
-3.37451e-11 1.88472e-11 -5.9766e-11
5.05517e-11 1.2002e-10 -1.48031e-10
-4.01138e-11 -1.10838e-10 2.84126e-11
1.07444e-10 -7.76766e-11 -3.88406e-11
2.6025e-10 -1.69309e-10 -8.40395e-11
-2.02019e-10 -5.78757e-11 2.26252e-11
1.90746e-10 -3.38815e-11 -7.67094e-11
1.45851e-10 2.90159e-10 -2.17109e-10
-3.31908e-11 -1.1972e-10 7.58204e-11
2.07814e-10 -3.36896e-11 3.47333e-11
4.39269e-10 1.25983e-10 5.8011e-11
1.78035e-10 -7.04224e-10 1.98646e-10
2.30289e-10 1.32928e-10 -2.88132e-11
3.69163e-11 8.06599e-11 -4.88858e-11
-8.76792e-11 -3.63139e-11 -1.35182e-11
-8.12105e-12 5.86298e-12 -3.01321e-11
-4.07756e-14 -8.41499e-13 1.59465e-12
-6.19982e-12 3.34356e-11 -1.83162e-11
4.23076e-11 8.23904e-11 -4.85306e-11
8.87874e-13 -1.21044e-12 8.49622e-13
5.2276e-13 -1.14908e-12 -6.85093e-13
-5.06611e-11 -3.2379e-11 -7.61981e-12
4.03723e-13 -1.50213e-12 1.11465e-12
-5.7011e-12 1.49074e-11 -5.29047e-11
2.54629e-10 -3.18354e-10 9.40996e-11
-4.01322e-11 -1.4563e-10 8.27592e-11
5.27348e-11 -4.23382e-11 3.72983e-11
-1.91027e-23 0.0 -1.65436e-24
9.11188e-13 -1.1066e-12 6.72445e-13
-1.03445e-10 -1.57133e-10 3.51736e-11
2.26202e-10 -2.32372e-10 2.77744e-11
1.12607e-11 -1.19503e-10 9.76308e-11
6.82575e-11 -1.6829e-10 2.25038e-11
1.11461e-12 -6.07496e-11 1.3128e-10
1.68597e-10 1.03968e-10 1.89925e-11
5.15343e-11 -6.77262e-11 -3.85045e-11
-3.6797e-10 -6.26086e-11 -7.90789e-11
2.1647e-11 1.18761e-10 -1.39864e-10
-1.35256e-10 -1.3025e-10 -1.38477e-11
-1.56766e-12 -1.11063e-12 -8.57939e-13
-6.14909e-12 -8.19235e-11 -1.35164e-10
-2.89042e-11 -1.29999e-10 7.12643e-11
1.66512e-11 2.70171e-11 9.80542e-12
-9.34289e-11 -9.22198e-11 -1.00253e-11
2.81807e-11 7.43953e-12 2.04622e-11
-6.11667e-11 -6.50182e-11 -5.15544e-12
1.74983e-11 4.67066e-11 -2.01113e-10
4.24377e-11 1.40953e-10 -1.41553e-10
9.22339e-12 -1.23236e-10 1.91652e-11
1.15181e-11 -7.03885e-11 2.09741e-10
-1.16937e-10 3.37586e-10 -6.8241e-10
-1.05715e-10 -6.20699e-11 1.0309e-10
-1.42089e-10 3.41027e-10 -2.09192e-10
-5.90643e-10 -2.49595e-10 -5.80137e-10
-1.19184e-21 -1.62851e-22 2.85377e-23
6.88909e-14 1.53716e-13 4.63521e-13
4.1849e-10 -1.85311e-10 -6.8467e-11
-6.52211e-13 1.75237e-12 -1.27835e-12
4.11409e-12 -1.77328e-13 2.56348e-12
2.03156e-10 -2.76369e-12 -1.00601e-10
1.38399e-11 8.5407e-11 -1.04209e-10
5.55748e-12 -1.25277e-10 7.83804e-11
1.03529e-10 -7.28353e-11 7.2807e-12
1.35048e-10 2.8317e-11 6.98223e-11
-1.17205e-10 2.28614e-10 -1.70427e-10
2.11426e-10 -1.46028e-10 -2.1636e-10
5.37801e-11 -7.87846e-11 -3.66946e-11
1.83029e-11 -2.17927e-10 4.51417e-12
8.96781e-11 2.79707e-10 -4.0522e-11
-2.37091e-10 -6.76065e-11 4.18872e-11
3.7766e-12 -2.85559e-11 2.26674e-11
-6.27868e-10 -2.51586e-10 2.9306e-11
2.07207e-11 1.95726e-10 -1.08932e-11
7.87699e-11 -3.44171e-10 -3.7918e-11
