# vtk DataFile Version 3.0
LIGGGHTS particles timestep 70600000
ASCII
DATASET POLYDATA
POINTS 283 float
0.336432 0.0167059 0.00769354
0.336933 0.0184317 0.0070451
0.336775 0.018237 0.00703908
0.336755 0.018147 0.00707757
0.336232 0.0158746 0.0081592
0.342345 0.0163169 0.00785847
0.336445 0.0163746 0.00783411
0.336212 0.0158348 0.00824858
0.34258 0.0173378 0.00730412
0.337144 0.0186876 0.00686252
0.336627 0.0171851 0.00748768
0.342541 0.017162 0.00739111
0.337174 0.0184378 0.00693769
0.330856 0.0185952 0.00686278
0.337197 0.0185258 0.00689573
0.330321 0.0164436 0.00814971
0.342699 0.0178989 0.00715262
0.33676 0.0181602 0.00717656
0.336864 0.0178441 0.00720493
0.336248 0.0159148 0.00806902
0.336815 0.0184172 0.00696219
0.342502 0.0169861 0.00747812
0.336999 0.0180527 0.00711467
0.342443 0.0167246 0.00760721
0.330355 0.0162211 0.00828212
0.336725 0.0178828 0.00728782
0.342326 0.0162591 0.00793777
0.33693 0.0185361 0.00691081
0.337134 0.0182606 0.00702179
0.342362 0.0163755 0.00777921
0.336814 0.0183085 0.00709695
0.337124 0.0185941 0.00689147
0.342638 0.0176071 0.00718754
0.336466 0.0164646 0.00779564
0.337039 0.0182329 0.00703768
0.336683 0.0170334 0.00755143
0.337054 0.0179012 0.00717837
0.337114 0.0181714 0.00706287
0.33691 0.0184458 0.00694877
0.336789 0.0179055 0.00717973
0.342382 0.0164633 0.00773597
0.342463 0.0168183 0.00757857
0.336404 0.0161946 0.00791104
0.336844 0.017754 0.00724343
0.342423 0.0166368 0.00765052
0.336924 0.0181142 0.00708945
0.330773 0.0182234 0.00696932
0.330778 0.0178413 0.00719769
0.337046 0.0186535 0.00685235
0.342403 0.0165568 0.00770697
0.330564 0.0169583 0.00780967
0.342522 0.017074 0.00743463
0.337051 0.0185458 0.00698851
0.336268 0.0159864 0.00800201
0.336723 0.0172136 0.0074744
0.33685 0.0181757 0.00706425
0.342483 0.0168982 0.00752153
0.336507 0.0166446 0.0077187
0.331101 0.0184923 0.00686564
0.337218 0.0186211 0.00687292
0.33066 0.0169886 0.00780064
0.336803 0.0175739 0.00732041
0.342815 0.0180247 0.00712812
0.330487 0.0170045 0.00776532
0.34256 0.0172499 0.00734761
0.336663 0.0169433 0.00758994
0.336553 0.0172464 0.00746251
0.336822 0.0178576 0.0072947
0.342678 0.0178018 0.00716433
0.336856 0.0185982 0.0068847
0.330153 0.0157792 0.00856195
0.330377 0.0163044 0.00823109
0.336987 0.0182791 0.00710885
0.330899 0.0187855 0.00689015
0.330724 0.0172334 0.00763211
0.330174 0.0158626 0.00851091
0.342619 0.0175137 0.00721715
0.330542 0.0168781 0.00786482
0.33689 0.0183558 0.00698726
0.342599 0.0174257 0.00726064
0.336743 0.0173037 0.00743589
0.336904 0.0180242 0.00712794
0.336648 0.0172751 0.00744919
0.336528 0.0167346 0.00768023
0.336938 0.0177826 0.00723015
0.336769 0.0178154 0.00721822
0.336708 0.0175453 0.00733371
0.336985 0.0183844 0.00697397
0.337074 0.0179913 0.00713987
0.336899 0.0182198 0.00713885
0.330858 0.0174348 0.00750448
0.337176 0.0188396 0.00694984
0.33089 0.0179548 0.00713096
0.336944 0.0182043 0.00705096
0.337094 0.0180814 0.00710137
0.330705 0.0171511 0.00768924
0.330796 0.017922 0.00714159
0.336568 0.0169147 0.00760324
0.330111 0.0156124 0.00866403
0.33706 0.0183228 0.00699841
0.336734 0.0180569 0.00711606
0.336835 0.0185072 0.00692358
0.33635 0.016346 0.00784741
0.330398 0.0163876 0.00818008
0.336971 0.0187193 0.0068419
0.330587 0.0170386 0.00775445
0.336674 0.0177868 0.00723155
0.336714 0.0179669 0.00715456
0.336607 0.017095 0.00752618
0.331027 0.0185594 0.00685908
0.342305 0.0162079 0.00802114
0.336959 0.0178726 0.00719166
0.336898 0.0176025 0.00730714
0.336593 0.0174265 0.00738553
0.330813 0.0184006 0.00689611
0.33692 0.0188845 0.00684139
0.3371 0.0184998 0.00691435
0.336703 0.0171235 0.00751291
0.330216 0.0160294 0.00840883
0.33707 0.0187532 0.00685206
0.330334 0.0161377 0.00833316
0.336329 0.016256 0.00788588
0.33089 0.0183424 0.00692233
0.336709 0.0177249 0.00734848
0.336823 0.0176639 0.00728192
0.336884 0.0179341 0.00716644
0.336668 0.0173652 0.00741069
0.330776 0.0181865 0.00706222
0.336493 0.0169761 0.00757806
0.336613 0.0175166 0.00734703
0.336763 0.0173938 0.0073974
0.336993 0.0188169 0.00684147
0.330912 0.0180352 0.00707558
0.336425 0.0162846 0.00787257
0.336909 0.0183372 0.00708364
0.336749 0.0177254 0.00725672
0.336532 0.0171564 0.00750101
0.330132 0.0156958 0.00861299
0.336854 0.0184887 0.00701996
0.336918 0.0176925 0.00726865
0.336548 0.0168246 0.00764175
0.330764 0.0173945 0.00752061
0.336898 0.0187869 0.00683927
0.330279 0.0162808 0.00825775
0.330422 0.0164704 0.00812914
0.330952 0.0186261 0.00685257
0.33687 0.0182657 0.00702575
0.330952 0.0181765 0.0069785
0.33714 0.0188242 0.00685793
0.330842 0.0176375 0.00735487
0.336688 0.0174552 0.0073722
0.331078 0.0183938 0.00688256
0.336633 0.0176066 0.00730854
0.330732 0.0180428 0.00704474
0.336783 0.0174838 0.00735891
0.330519 0.0167977 0.00792003
0.337019 0.0181428 0.00707617
0.330852 0.0180982 0.00712783
0.330817 0.0177408 0.00739099
0.336971 0.0186038 0.00697221
0.330718 0.0179813 0.00719907
0.336829 0.0180856 0.00710274
0.3308 0.0175611 0.00740459
0.330624 0.0175658 0.00737632
0.3303 0.0163629 0.00820464
0.330861 0.0182678 0.00698266
0.330688 0.0174418 0.00747556
0.330609 0.0171189 0.00769922
0.336876 0.0186892 0.00684283
0.330835 0.0184983 0.00687939
0.336989 0.018699 0.00693822
0.330983 0.0183644 0.00689248
0.336965 0.0182943 0.00701246
0.33051 0.0170848 0.00771009
0.330665 0.0173615 0.00753063
0.342658 0.0177046 0.00717597
0.336453 0.0167959 0.00765507
0.336412 0.0166159 0.00773201
0.330369 0.0166038 0.00804003
0.336799 0.0177676 0.00733196
0.330778 0.0176553 0.0074297
0.337088 0.0187124 0.00694145
0.336309 0.016166 0.00792434
0.330683 0.0178252 0.00723922
0.330935 0.0177409 0.00729282
0.336588 0.0170048 0.00756471
0.330751 0.0181236 0.00698864
0.330786 0.0182861 0.00704604
0.330237 0.0161128 0.00835779
0.330719 0.0176208 0.00750302
0.331003 0.0180727 0.00706115
0.337154 0.0183491 0.00697976
0.330678 0.0177969 0.00733505
0.330465 0.0169242 0.00782046
0.33078 0.0174797 0.0074609
0.330683 0.0170694 0.00774554
0.330932 0.0185296 0.00686904
0.330258 0.016197 0.0083082
0.33689 0.0186754 0.00694089
0.336473 0.0168859 0.00761659
0.342742 0.0180928 0.0071291
0.336573 0.0173365 0.00742402
0.330495 0.0167176 0.00797498
0.336512 0.0170663 0.00753952
0.336486 0.0165546 0.00775717
0.33637 0.016436 0.00780894
0.337062 0.0188893 0.00684713
0.330345 0.0165238 0.0080947
0.33708 0.0184113 0.00695639
0.330447 0.0165532 0.00807806
0.330195 0.015946 0.00845987
0.34272 0.0179958 0.00714086
0.330609 0.0174962 0.00744667
0.330876 0.0178373 0.00721446
0.33063 0.0171999 0.00764333
0.330642 0.0176483 0.00731898
0.3308 0.0179284 0.00724129
0.330418 0.0167638 0.00793056
0.330879 0.0175173 0.00744754
0.336728 0.0176353 0.00729521
0.336809 0.0179956 0.00714124
0.330988 0.0179885 0.00712024
0.330532 0.017165 0.00765487
0.330929 0.018139 0.00706812
0.330647 0.0172808 0.0075868
0.324569 0.0172738 0.0072559
0.330758 0.0177607 0.00725351
0.330569 0.0173264 0.00754275
0.32455 0.0171928 0.00731128
0.324588 0.0173548 0.00720052
0.330974 0.017818 0.00724222
0.324626 0.0175248 0.00710366
0.336979 0.0179627 0.00715316
0.336654 0.0176967 0.00727004
0.330442 0.016844 0.00787561
0.336288 0.016076 0.00796281
0.215741 0.019982 0.00563384
0.324607 0.0174362 0.00714565
0.33087 0.0182197 0.00706992
0.330838 0.017718 0.00729574
0.330472 0.0166355 0.00802724
0.3308 0.0178413 0.00729511
0.3307 0.0175374 0.00744141
0.330737 0.0176802 0.00730903
0.330714 0.0179617 0.00710113
0.337005 0.0184735 0.00693312
0.330951 0.0178953 0.00718287
0.330718 0.0177273 0.00739519
0.324665 0.0177178 0.00706804
0.330627 0.0175844 0.00749026
0.330395 0.0166837 0.00798554
0.336391 0.016526 0.00777047
0.330911 0.0184335 0.00688685
0.330737 0.0180631 0.00714256
0.330878 0.0186928 0.00685879
0.330814 0.0180027 0.0070855
0.330957 0.0180872 0.00714877
0.330706 0.0179159 0.00727377
0.330661 0.0177302 0.00726202
0.33094 0.018256 0.00691902
0.330823 0.0180081 0.00718498
0.330608 0.0174849 0.00754602
0.336779 0.0180664 0.00720505
0.404182 0.0211142 0.0056569
0.324704 0.0179107 0.00703242
0.330791 0.0183037 0.00691271
0.324685 0.0178143 0.00705023
0.324646 0.0176213 0.00708585
0.330699 0.0174504 0.00757457
0.330553 0.0172455 0.00759928
0.330695 0.017881 0.00715723
0.337026 0.0185632 0.00689036
0.330717 0.0175996 0.00736488
0.330837 0.0180831 0.00703019
0.330652 0.0176538 0.00741838
0.331006 0.0184626 0.00687561
0.336951 0.018628 0.00687726
0.330587 0.0174071 0.00748659
0.330742 0.0173142 0.00757587
0.336689 0.0176338 0.0073871
0.336694 0.0178768 0.00719305
0.330853 0.0181639 0.00697374
0.336795 0.0183271 0.00700058

VERTICES 283 566
1 0
1 1
1 2
1 3
1 4
1 5
1 6
1 7
1 8
1 9
1 10
1 11
1 12
1 13
1 14
1 15
1 16
1 17
1 18
1 19
1 20
1 21
1 22
1 23
1 24
1 25
1 26
1 27
1 28
1 29
1 30
1 31
1 32
1 33
1 34
1 35
1 36
1 37
1 38
1 39
1 40
1 41
1 42
1 43
1 44
1 45
1 46
1 47
1 48
1 49
1 50
1 51
1 52
1 53
1 54
1 55
1 56
1 57
1 58
1 59
1 60
1 61
1 62
1 63
1 64
1 65
1 66
1 67
1 68
1 69
1 70
1 71
1 72
1 73
1 74
1 75
1 76
1 77
1 78
1 79
1 80
1 81
1 82
1 83
1 84
1 85
1 86
1 87
1 88
1 89
1 90
1 91
1 92
1 93
1 94
1 95
1 96
1 97
1 98
1 99
1 100
1 101
1 102
1 103
1 104
1 105
1 106
1 107
1 108
1 109
1 110
1 111
1 112
1 113
1 114
1 115
1 116
1 117
1 118
1 119
1 120
1 121
1 122
1 123
1 124
1 125
1 126
1 127
1 128
1 129
1 130
1 131
1 132
1 133
1 134
1 135
1 136
1 137
1 138
1 139
1 140
1 141
1 142
1 143
1 144
1 145
1 146
1 147
1 148
1 149
1 150
1 151
1 152
1 153
1 154
1 155
1 156
1 157
1 158
1 159
1 160
1 161
1 162
1 163
1 164
1 165
1 166
1 167
1 168
1 169
1 170
1 171
1 172
1 173
1 174
1 175
1 176
1 177
1 178
1 179
1 180
1 181
1 182
1 183
1 184
1 185
1 186
1 187
1 188
1 189
1 190
1 191
1 192
1 193
1 194
1 195
1 196
1 197
1 198
1 199
1 200
1 201
1 202
1 203
1 204
1 205
1 206
1 207
1 208
1 209
1 210
1 211
1 212
1 213
1 214
1 215
1 216
1 217
1 218
1 219
1 220
1 221
1 222
1 223
1 224
1 225
1 226
1 227
1 228
1 229
1 230
1 231
1 232
1 233
1 234
1 235
1 236
1 237
1 238
1 239
1 240
1 241
1 242
1 243
1 244
1 245
1 246
1 247
1 248
1 249
1 250
1 251
1 252
1 253
1 254
1 255
1 256
1 257
1 258
1 259
1 260
1 261
1 262
1 263
1 264
1 265
1 266
1 267
1 268
1 269
1 270
1 271
1 272
1 273
1 274
1 275
1 276
1 277
1 278
1 279
1 280
1 281
1 282

POINT_DATA 283
SCALARS id int 1
LOOKUP_TABLE default
1
2
3
4
5
6
7
8
9
10
11
12
13
14
15
16
18
19
20
21
22
24
25
26
27
29
30
31
32
33
34
35
36
37
38
40
41
42
43
44
45
46
47
48
49
50
52
55
56
57
58
59
60
61
62
63
64
65
66
67
68
69
70
71
72
73
74
75
76
77
78
79
80
81
82
83
84
85
86
87
88
89
90
91
92
93
94
95
96
98
99
100
101
102
103
104
105
106
107
108
109
110
111
112
113
114
115
116
117
118
119
120
121
122
123
124
125
126
127
128
129
130
131
132
133
134
135
136
137
138
139
140
141
142
144
145
146
147
148
149
150
152
153
154
155
156
157
158
159
160
161
162
164
165
166
167
168
169
170
171
172
173
174
175
176
177
178
179
180
181
182
183
184
185
186
187
188
189
190
191
192
193
194
195
196
197
198
199
200
201
202
203
204
205
206
207
208
209
210
211
213
214
215
217
218
219
220
221
222
223
224
225
226
227
228
229
230
231
232
233
234
235
236
237
238
239
241
242
243
244
245
246
247
248
249
250
251
252
253
254
255
256
257
258
259
260
261
262
263
264
265
267
268
269
270
271
272
273
274
275
276
277
278
279
280
281
282
283
284
285
286
287
288
289
290
292
293
294
295
296
297
298
300

SCALARS type int 1
LOOKUP_TABLE default
1
1
1
1
1
1
1
1
1
1
1
1
1
1
1
1
1
1
1
1
1
1
1
1
1
1
1
1
1
1
1
1
1
1
1
1
1
1
1
1
1
1
1
1
1
1
1
1
1
1
1
1
1
1
1
1
1
1
1
1
1
1
1
1
1
1
1
1
1
1
1
1
1
1
1
1
1
1
1
1
1
1
1
1
1
1
1
1
1
1
1
1
1
1
1
1
1
1
1
1
1
1
1
1
1
1
1
1
1
1
1
1
1
1
1
1
1
1
1
1
1
1
1
1
1
1
1
1
1
1
1
1
1
1
1
1
1
1
1
1
1
1
1
1
1
1
1
1
1
1
1
1
1
1
1
1
1
1
1
1
1
1
1
1
1
1
1
1
1
1
1
1
1
1
1
1
1
1
1
1
1
1
1
1
1
1
1
1
1
1
1
1
1
1
1
1
1
1
1
1
1
1
1
1
1
1
1
1
1
1
1
1
1
1
1
1
1
1
1
1
1
1
1
1
1
1
1
1
1
1
1
1
1
1
1
1
1
1
1
1
1
1
1
1
1
1
1
1
1
1
1
1
1
1
1
1
1
1
1
1
1
1
1
1
1
1
1
1
1
1
1
1
1
1
1
1
1
1
1
1
1
1
1

SCALARS radius float 1
LOOKUP_TABLE default
5e-05
5e-05
5e-05
5e-05
5e-05
5e-05
5e-05
5e-05
5e-05
5e-05
5e-05
5e-05
5e-05
5e-05
5e-05
5e-05
5e-05
5e-05
5e-05
5e-05
5e-05
5e-05
5e-05
5e-05
5e-05
5e-05
5e-05
5e-05
5e-05
5e-05
5e-05
5e-05
5e-05
5e-05
5e-05
5e-05
5e-05
5e-05
5e-05
5e-05
5e-05
5e-05
5e-05
5e-05
5e-05
5e-05
5e-05
5e-05
5e-05
5e-05
5e-05
5e-05
5e-05
5e-05
5e-05
5e-05
5e-05
5e-05
5e-05
5e-05
5e-05
5e-05
5e-05
5e-05
5e-05
5e-05
5e-05
5e-05
5e-05
5e-05
5e-05
5e-05
5e-05
5e-05
5e-05
5e-05
5e-05
5e-05
5e-05
5e-05
5e-05
5e-05
5e-05
5e-05
5e-05
5e-05
5e-05
5e-05
5e-05
5e-05
5e-05
5e-05
5e-05
5e-05
5e-05
5e-05
5e-05
5e-05
5e-05
5e-05
5e-05
5e-05
5e-05
5e-05
5e-05
5e-05
5e-05
5e-05
5e-05
5e-05
5e-05
5e-05
5e-05
5e-05
5e-05
5e-05
5e-05
5e-05
5e-05
5e-05
5e-05
5e-05
5e-05
5e-05
5e-05
5e-05
5e-05
5e-05
5e-05
5e-05
5e-05
5e-05
5e-05
5e-05
5e-05
5e-05
5e-05
5e-05
5e-05
5e-05
5e-05
5e-05
5e-05
5e-05
5e-05
5e-05
5e-05
5e-05
5e-05
5e-05
5e-05
5e-05
5e-05
5e-05
5e-05
5e-05
5e-05
5e-05
5e-05
5e-05
5e-05
5e-05
5e-05
5e-05
5e-05
5e-05
5e-05
5e-05
5e-05
5e-05
5e-05
5e-05
5e-05
5e-05
5e-05
5e-05
5e-05
5e-05
5e-05
5e-05
5e-05
5e-05
5e-05
5e-05
5e-05
5e-05
5e-05
5e-05
5e-05
5e-05
5e-05
5e-05
5e-05
5e-05
5e-05
5e-05
5e-05
5e-05
5e-05
5e-05
5e-05
5e-05
5e-05
5e-05
5e-05
5e-05
5e-05
5e-05
5e-05
5e-05
5e-05
5e-05
5e-05
5e-05
5e-05
5e-05
5e-05
5e-05
5e-05
5e-05
5e-05
5e-05
5e-05
5e-05
5e-05
5e-05
5e-05
5e-05
5e-05
5e-05
5e-05
5e-05
5e-05
5e-05
5e-05
5e-05
5e-05
5e-05
5e-05
5e-05
5e-05
5e-05
5e-05
5e-05
5e-05
5e-05
5e-05
5e-05
5e-05
5e-05
5e-05
5e-05
5e-05
5e-05
5e-05
5e-05
5e-05
5e-05
5e-05
5e-05
5e-05
5e-05
5e-05
5e-05
5e-05
5e-05
5e-05
5e-05
5e-05
5e-05
5e-05
5e-05
5e-05
5e-05
5e-05
5e-05
5e-05
5e-05
5e-05
5e-05
5e-05
5e-05
5e-05

SCALARS mass float 1
LOOKUP_TABLE default
1.46608e-10
1.46608e-10
1.46608e-10
1.46608e-10
1.46608e-10
1.46608e-10
1.46608e-10
1.46608e-10
1.46608e-10
1.46608e-10
1.46608e-10
1.46608e-10
1.46608e-10
1.46608e-10
1.46608e-10
1.46608e-10
1.46608e-10
1.46608e-10
1.46608e-10
1.46608e-10
1.46608e-10
1.46608e-10
1.46608e-10
1.46608e-10
1.46608e-10
1.46608e-10
1.46608e-10
1.46608e-10
1.46608e-10
1.46608e-10
1.46608e-10
1.46608e-10
1.46608e-10
1.46608e-10
1.46608e-10
1.46608e-10
1.46608e-10
1.46608e-10
1.46608e-10
1.46608e-10
1.46608e-10
1.46608e-10
1.46608e-10
1.46608e-10
1.46608e-10
1.46608e-10
1.46608e-10
1.46608e-10
1.46608e-10
1.46608e-10
1.46608e-10
1.46608e-10
1.46608e-10
1.46608e-10
1.46608e-10
1.46608e-10
1.46608e-10
1.46608e-10
1.46608e-10
1.46608e-10
1.46608e-10
1.46608e-10
1.46608e-10
1.46608e-10
1.46608e-10
1.46608e-10
1.46608e-10
1.46608e-10
1.46608e-10
1.46608e-10
1.46608e-10
1.46608e-10
1.46608e-10
1.46608e-10
1.46608e-10
1.46608e-10
1.46608e-10
1.46608e-10
1.46608e-10
1.46608e-10
1.46608e-10
1.46608e-10
1.46608e-10
1.46608e-10
1.46608e-10
1.46608e-10
1.46608e-10
1.46608e-10
1.46608e-10
1.46608e-10
1.46608e-10
1.46608e-10
1.46608e-10
1.46608e-10
1.46608e-10
1.46608e-10
1.46608e-10
1.46608e-10
1.46608e-10
1.46608e-10
1.46608e-10
1.46608e-10
1.46608e-10
1.46608e-10
1.46608e-10
1.46608e-10
1.46608e-10
1.46608e-10
1.46608e-10
1.46608e-10
1.46608e-10
1.46608e-10
1.46608e-10
1.46608e-10
1.46608e-10
1.46608e-10
1.46608e-10
1.46608e-10
1.46608e-10
1.46608e-10
1.46608e-10
1.46608e-10
1.46608e-10
1.46608e-10
1.46608e-10
1.46608e-10
1.46608e-10
1.46608e-10
1.46608e-10
1.46608e-10
1.46608e-10
1.46608e-10
1.46608e-10
1.46608e-10
1.46608e-10
1.46608e-10
1.46608e-10
1.46608e-10
1.46608e-10
1.46608e-10
1.46608e-10
1.46608e-10
1.46608e-10
1.46608e-10
1.46608e-10
1.46608e-10
1.46608e-10
1.46608e-10
1.46608e-10
1.46608e-10
1.46608e-10
1.46608e-10
1.46608e-10
1.46608e-10
1.46608e-10
1.46608e-10
1.46608e-10
1.46608e-10
1.46608e-10
1.46608e-10
1.46608e-10
1.46608e-10
1.46608e-10
1.46608e-10
1.46608e-10
1.46608e-10
1.46608e-10
1.46608e-10
1.46608e-10
1.46608e-10
1.46608e-10
1.46608e-10
1.46608e-10
1.46608e-10
1.46608e-10
1.46608e-10
1.46608e-10
1.46608e-10
1.46608e-10
1.46608e-10
1.46608e-10
1.46608e-10
1.46608e-10
1.46608e-10
1.46608e-10
1.46608e-10
1.46608e-10
1.46608e-10
1.46608e-10
1.46608e-10
1.46608e-10
1.46608e-10
1.46608e-10
1.46608e-10
1.46608e-10
1.46608e-10
1.46608e-10
1.46608e-10
1.46608e-10
1.46608e-10
1.46608e-10
1.46608e-10
1.46608e-10
1.46608e-10
1.46608e-10
1.46608e-10
1.46608e-10
1.46608e-10
1.46608e-10
1.46608e-10
1.46608e-10
1.46608e-10
1.46608e-10
1.46608e-10
1.46608e-10
1.46608e-10
1.46608e-10
1.46608e-10
1.46608e-10
1.46608e-10
1.46608e-10
1.46608e-10
1.46608e-10
1.46608e-10
1.46608e-10
1.46608e-10
1.46608e-10
1.46608e-10
1.46608e-10
1.46608e-10
1.46608e-10
1.46608e-10
1.46608e-10
1.46608e-10
1.46608e-10
1.46608e-10
1.46608e-10
1.46608e-10
1.46608e-10
1.46608e-10
1.46608e-10
1.46608e-10
1.46608e-10
1.46608e-10
1.46608e-10
1.46608e-10
1.46608e-10
1.46608e-10
1.46608e-10
1.46608e-10
1.46608e-10
1.46608e-10
1.46608e-10
1.46608e-10
1.46608e-10
1.46608e-10
1.46608e-10
1.46608e-10
1.46608e-10
1.46608e-10
1.46608e-10
1.46608e-10
1.46608e-10
1.46608e-10
1.46608e-10
1.46608e-10
1.46608e-10
1.46608e-10
1.46608e-10
1.46608e-10
1.46608e-10
1.46608e-10
1.46608e-10
1.46608e-10
1.46608e-10
1.46608e-10
1.46608e-10
1.46608e-10
1.46608e-10
1.46608e-10
1.46608e-10
1.46608e-10
1.46608e-10

VECTORS velocity float
0.00437901 -0.000464833 0.000144914
0.00468638 -0.000537582 0.000173231
0.0046774 -0.000456769 0.000138346
0.00465643 -0.000433035 0.00013019
0.00480524 -0.000172267 0.000593386
0.00441474 -0.000394653 0.000343576
0.00440016 -0.000470834 0.000147182
0.00472098 -0.000174173 0.000585853
0.00430164 -1.0144e-05 0.00067081
0.00485826 -0.000448395 0.000569309
0.00423477 -0.00043392 0.000133851
0.00424435 -6.29423e-06 0.000659063
0.00486424 -0.00050604 -0.00011224
0.00512676 0.000680376 -0.000391774
0.004748 -0.000592592 -5.91975e-05
0.00500395 0.000869669 5.53345e-05
0.0045535 -0.000412221 -0.000434286
0.00460878 -0.000449552 0.000133132
0.00449802 -0.000490949 0.000153599
0.00441855 -0.000150808 0.0005275
0.00470508 -0.000489027 0.000162056
0.00423185 9.03046e-06 0.000652705
0.00463875 -0.000551364 0.00017881
0.00430523 -2.56457e-05 0.000680135
0.00473931 0.00035691 -0.000710445
0.00449685 -0.000464869 0.000131003
0.00434056 -0.000914246 -1.87934e-05
0.00477115 -0.000490079 0.00027315
0.0046887 -0.000681277 -2.9433e-06
0.00445365 -6.57911e-06 0.000660824
0.00465247 -0.000512302 0.000149758
0.00480441 -0.000515016 0.000339724
0.00432908 -0.000361482 -0.000417498
0.00437515 -0.000466877 0.000145844
0.00461152 -0.000556087 0.000181216
0.00418684 -0.000445816 0.000139167
0.00457211 -0.000605478 0.000202489
0.00461485 -0.000545131 0.00017615
0.00472668 -0.000526026 0.000167478
0.00453849 -0.000456494 0.000137824
0.00447221 -8.4506e-07 0.000689013
0.00432829 -1.91385e-05 0.000681814
0.00438626 -0.000497525 0.000158906
0.00444978 -0.000484104 0.000154554
0.00447116 -3.91783e-05 0.000706878
0.00465478 -0.000516285 0.000164294
0.00506142 0.000870861 5.46093e-05
0.00486922 0.00089269 3.54179e-05
0.00479958 -0.000472324 0.000563272
0.00449391 -2.58918e-05 0.000695617
0.00512023 0.000861788 9.28262e-05
0.00424213 -7.67831e-07 0.00065679
0.00487105 -0.00078663 0.000175168
0.00439408 -0.00049798 0.000158949
0.00424512 -0.000455837 0.000142722
0.00466289 -0.000490158 0.000152176
0.00434015 -3.92119e-06 0.000677998
0.00437579 -0.000466338 0.000145999
0.00511933 0.000673455 -0.00039117
0.00486316 -0.000461067 0.000578098
0.00550077 0.000852687 -0.000547757
0.00437624 -0.000480937 0.000151353
0.00456258 -0.000428603 -0.000434154
0.00511796 0.000856647 9.58201e-05
0.00427708 -8.42249e-06 0.000666036
0.00422811 -0.000454747 0.000142503
0.00424671 -0.000418269 0.000126365
0.00448337 -0.000459923 0.000136808
0.00437129 -0.000371357 -0.000420484
0.00486436 -0.000322545 7.86924e-05
0.00486906 0.000354429 -0.000709218
0.00472142 0.000370621 -0.000711414
0.00461356 -0.000539191 0.000175765
0.00499449 0.000352075 0.000688086
0.00446193 0.000871118 -5.78887e-06
0.00482846 0.00033703 -0.00069269
0.00432599 -1.61594e-05 0.000677431
0.00514228 0.00086265 9.62323e-05
0.00467017 -0.000517488 0.000164347
0.00431246 -1.23981e-05 0.000673099
0.00431076 -0.0004691 0.000147563
0.00462206 -0.000512695 0.000162577
0.0042819 -0.000443547 0.000137194
0.00436956 -0.000466762 0.000146075
0.00445515 -0.000529382 0.000171437
0.00449052 -0.000459418 0.000139847
0.00437407 -0.000464126 0.00014312
0.00467228 -0.000556255 0.000179128
0.00459213 -0.000610544 0.000204144
0.00465192 -0.000502401 0.000158788
0.00458162 0.0008665 1.63543e-05
0.00412443 0.00471154 -0.00074375
0.00494275 0.000852189 7.5771e-05
0.00465201 -0.000520627 0.000164762
0.00459782 -0.000573664 0.000188538
0.00440645 0.000821274 2.27935e-05
0.00493061 0.000882232 5.18139e-05
0.00422542 -0.000446537 0.000138964
0.00493841 0.000422685 -0.000754272
0.00468804 -0.000725263 -0.000124264
0.00459907 -0.000426368 0.000126437
0.00476983 -0.000513329 0.000161671
0.00439735 -0.000477054 0.000149152
0.00495753 0.000321313 -0.000691793
0.00488208 -0.000397621 0.000571514
0.0051027 0.000858229 9.2766e-05
0.0044698 -0.000456273 0.000139132
0.0045495 -0.000450001 0.000131929
0.00419481 -0.000428839 0.00013202
0.00514309 0.000705676 -0.00039766
0.00453958 -0.000971275 9.51851e-05
0.00452787 -0.0005468 0.000177675
0.00437376 -0.000502027 0.000161245
0.00432907 -0.000434544 0.000133066
0.00509594 0.000710246 -0.000392885
0.00490085 -0.000360408 0.000129706
0.0047622 -0.00061649 -1.73405e-05
0.00417572 -0.00044272 0.000137994
0.00477232 0.000329458 -0.000682162
0.00487269 -0.00041786 0.000562182
0.00472911 0.00034772 -0.000687731
0.00439104 -0.000490267 0.00015419
0.00508786 0.00084569 -5.88383e-05
0.00443603 -0.000455533 0.000133216
0.00441005 -0.000482607 0.000153257
0.00456251 -0.000502316 0.000158327
0.00432029 -0.000451482 0.000139946
0.00508866 0.000954476 8.93123e-05
0.00412299 -0.000390435 0.000116499
0.00436059 -0.00045038 0.000138449
0.00433518 -0.000473875 0.000149344
0.00489101 -0.000387633 0.000567173
0.0049812 0.000846558 8.43008e-05
0.00440528 -0.000475473 0.000149178
0.0046046 -0.000556407 0.000165564
0.0044511 -0.000458422 0.000141287
0.00422322 -0.000355553 0.000100344
0.00490427 0.000396368 -0.000736107
0.00480792 -0.000476915 0.000170354
0.0043988 -0.000513321 0.000166111
0.00417783 -0.000435501 0.000134903
0.0045281 0.000866314 5.5658e-06
0.00489114 -0.000386854 0.000568468
0.00471688 0.000431171 -0.000648257
0.00549794 0.000170579 -0.000669693
0.00513332 0.000703544 -0.000391436
0.00466036 -0.000509614 0.000158097
0.00504642 0.000816725 0.00011705
0.00287541 0.00157681 0.000279889
0.0046817 0.000769745 9.86583e-05
0.00434945 -0.000459543 0.000142854
0.00508322 0.000609612 -0.000376209
0.00439043 -0.000463218 0.000141391
0.00501296 0.000994267 -1.69877e-05
0.0043551 -0.000477578 0.000150153
0.00504331 0.00078882 0.00012843
0.00463401 -0.000539103 0.000173351
0.00494864 0.000848723 7.93335e-05
0.00476244 0.000805293 9.6372e-05
0.00487239 -0.000671644 0.000442291
0.00494235 0.000894512 4.72205e-05
0.00463436 -0.000476825 0.000147026
0.00462757 0.000811091 6.09766e-05
0.0046574 0.000919123 -1.56575e-05
0.00468095 0.000679774 -0.00033717
0.00507916 0.000874144 -1.17184e-05
0.00455296 0.000889958 -1.37021e-05
0.00509533 0.000863203 8.83231e-05
0.00488995 -0.000422919 -0.000137207
0.00511707 0.000732841 -0.000414134
0.00485726 -0.000417193 0.000564411
0.00503627 0.00062459 -0.000383957
0.00463881 -0.000539133 0.000172693
0.00509592 0.000854041 9.72696e-05
0.00456093 0.000937421 -3.99236e-05
0.00432398 -0.000356922 -0.000419335
0.00437931 -0.000460126 0.000143047
0.0043806 -0.000468863 0.000146712
0.005752 0.000761542 0.000240145
0.00443439 -0.000444619 0.000146046
0.00469184 0.000815664 8.91173e-05
0.00485689 -0.000412664 0.00057023
0.00439494 -0.000497291 0.000167935
0.00488145 0.000891198 3.76815e-05
0.00477901 0.000818384 7.72512e-05
0.00413996 -0.000420807 0.000128988
0.00506994 0.000996694 -1.13606e-05
0.00502406 0.00107953 -0.00012443
0.00474399 0.000339381 -0.000683236
0.00460153 0.000854527 3.06014e-05
0.00498914 0.00080411 0.000107159
0.00474355 -0.000643436 -1.82894e-05
0.00487514 0.000921783 5.62916e-05
0.0051481 0.000863195 9.59915e-05
0.00458575 0.000873372 1.38218e-05
0.00511742 0.000883768 7.6931e-05
0.00515117 0.000701583 -0.000395806
0.00473007 0.00036578 -0.000689343
0.0044846 -0.000176224 -3.4795e-05
0.00421571 -0.000420716 0.000128256
0.00457414 -0.000416731 -0.000436682
0.00429849 -0.000420773 0.000127593
0.00488058 0.00080177 0.000121691
0.00414773 -0.00033392 9.21342e-05
0.00437724 -0.000467708 0.00014641
0.00439304 -0.000474324 0.000148865
0.00271273 0.00171241 0.000256937
0.00556598 0.000789381 0.000171104
0.00472959 -0.00066585 -2.14428e-05
0.00562331 0.000118069 -0.000576596
0.00480463 0.000330139 -0.00068709
0.00456217 -0.000413288 -0.000434885
0.00458937 0.000921703 -3.10995e-05
0.0048594 0.000856728 6.09946e-05
0.00446104 0.000878686 -1.12673e-05
0.00471302 0.000912589 -3.79496e-06
0.00494258 0.000825986 5.5534e-05
0.0049848 0.000896156 5.11994e-05
0.00456834 0.000743344 0.000100974
0.00440416 -0.000462606 0.000142343
0.00458078 -0.000467605 0.000143217
0.00495182 0.000816403 0.000102615
0.00508671 0.000850622 9.5681e-05
0.00500207 0.000798613 9.82063e-05
0.00451608 0.000882285 -6.12883e-06
0.00427748 -0.000653032 0.000148564
0.00485028 0.000856314 5.77486e-05
0.00453593 0.000917509 -2.73553e-05
0.00426452 -0.000656537 0.000154329
0.00431447 -0.000654155 0.000143804
0.0048444 0.000800776 9.96937e-05
0.00435599 -0.000547361 0.000336131
0.00460608 -0.000553458 0.00017967
0.00442435 -0.000460462 0.000140549
0.00512112 0.00087534 8.57508e-05
0.00440786 -0.00049741 0.000178842
6.80536e-15 2.29891e-14 -7.03246e-14
0.0043477 -0.000608496 0.000218384
0.00512448 0.000882647 2.25778e-06
0.00479169 0.000783145 0.000105499
0.00510471 0.000219104 -0.000660972
0.00483939 0.000843581 4.43054e-05
0.00459989 0.000885972 -5.19752e-06
0.00476221 0.000871136 3.5427e-05
0.00494214 0.000904766 4.23883e-05
0.00474565 -0.000602334 7.36102e-05
0.00490313 0.000818558 9.49121e-05
0.00476536 0.000882279 9.3497e-05
0.00431939 -0.000519788 0.000324264
0.00457329 0.000995859 -0.000163061
0.00516117 0.000867628 0.000103379
0.00438629 -0.000471145 0.000148284
0.00513536 0.000738698 -0.000289213
0.00501594 0.000999683 -1.76089e-05
0.00511849 0.00068038 -0.000354222
0.00489191 0.000882793 4.63262e-05
0.00495629 0.000746251 8.70858e-05
0.00491028 0.000882636 3.6934e-05
0.00476575 0.000893635 1.8433e-05
0.00508649 0.000827751 0.000123195
0.00490616 0.000812597 4.63077e-05
0.00451956 0.000938998 -3.2204e-05
0.00456872 -0.00046016 0.000129821
-1.29048e-14 6.08944e-14 -1.90218e-13
0.00429062 -0.000512002 0.000321812
0.0050525 0.000567756 -0.000368884
0.00430731 -0.000513851 0.000323204
0.00433747 -0.00053175 0.000328052
0.00449378 0.000898522 -1.48504e-05
0.00449685 0.000915734 -3.30963e-05
0.00487482 0.000898138 3.15341e-05
0.00469457 -0.000685766 -5.13951e-06
0.00467643 0.000882153 1.37288e-05
0.00498742 0.000862634 7.34125e-05
0.00472189 0.000881316 -6.62376e-06
0.00514007 0.000677929 -0.000390356
0.00482826 -0.000429822 0.00048457
0.00455209 0.000924933 -3.09467e-05
0.00447954 0.00087152 -3.64737e-06
0.00438487 -0.00045626 0.000135718
0.00451435 -0.000454285 0.000136684
0.00504942 0.000856296 8.83605e-05
0.00470121 -0.000490372 0.000148626

VECTORS force float
-5.4498e-11 -4.66414e-11 1.32014e-11
1.05123e-10 -2.97588e-10 1.9688e-10
1.64582e-10 4.29427e-10 -1.72506e-10
-1.24444e-10 2.95307e-10 -1.32714e-10
2.90898e-11 1.58323e-10 -2.11747e-10
1.28707e-10 1.12247e-12 -3.9077e-10
-3.68268e-10 -3.68946e-11 2.41947e-11
-9.95453e-11 2.78426e-11 -4.44246e-11
5.20649e-11 -6.76835e-11 6.31598e-11
1.03908e-10 9.41008e-11 -1.62507e-11
-4.559e-11 -7.40726e-11 2.4292e-11
2.26223e-11 -1.4857e-11 5.32494e-12
-6.18202e-11 -3.94512e-10 1.58933e-10
6.92757e-11 1.66083e-10 -2.55125e-12
3.96856e-11 1.69644e-10 3.35256e-11
1.07148e-10 -1.83244e-10 -1.41816e-10
1.156e-11 -8.26991e-12 -7.95014e-12
-3.27867e-11 2.76707e-10 -1.6711e-10
-1.56349e-10 1.71804e-10 -5.87646e-11
-1.92821e-10 -3.10249e-11 -2.86631e-10
-5.97535e-11 -3.12427e-10 1.85327e-10
-6.1221e-12 8.6419e-11 -5.08378e-11
-1.0663e-10 3.31675e-11 -6.55842e-12
2.45258e-10 -5.50747e-11 1.14514e-10
-9.33156e-11 9.07628e-12 -2.38398e-10
-2.1998e-10 4.29592e-10 3.38413e-11
-9.54153e-11 -1.63711e-10 1.45184e-10
-1.29344e-10 4.11922e-11 2.00793e-10
-1.64928e-10 -1.02336e-11 2.85899e-10
-2.5734e-10 -1.68014e-10 -5.13341e-10
-1.68223e-10 -2.58025e-10 2.61388e-11
7.7452e-11 2.97936e-11 -2.54929e-10
-8.29368e-11 2.6299e-11 -2.90684e-11
-8.71071e-11 1.17281e-10 -5.34661e-11
9.13046e-11 -2.14492e-10 7.27516e-11
-1.73084e-10 -1.39265e-10 6.12176e-11
-1.24947e-10 1.75773e-10 -7.53693e-11
1.76475e-10 -1.35056e-10 5.06554e-11
1.29117e-10 -6.82776e-11 1.15028e-10
-1.06137e-10 2.03714e-11 -4.55054e-11
-8.53843e-11 2.211e-10 -2.29662e-11
-2.42725e-10 -9.56591e-11 -3.92766e-11
-3.25595e-10 9.79404e-11 -2.70547e-11
-8.38831e-11 7.30226e-11 -1.39515e-11
-1.27299e-10 1.23482e-10 -4.52393e-12
-1.5139e-10 2.61442e-11 -9.22393e-12
-8.05974e-12 -3.90578e-11 -7.77401e-11
1.24366e-10 6.87396e-11 -4.5161e-11
1.62689e-10 -3.54432e-11 6.01116e-11
-7.68743e-11 3.48469e-10 8.72755e-12
-3.98346e-10 -1.29859e-10 3.13472e-11
6.77428e-11 6.36696e-11 -1.74258e-11
-1.87087e-10 -1.73045e-10 -2.55933e-10
4.57258e-11 2.06411e-10 1.57667e-10
2.29817e-10 -1.54466e-10 6.11071e-11
2.0037e-11 1.95569e-10 -8.4361e-11
-3.44765e-11 -2.90154e-12 -5.41001e-13
-1.62801e-10 -1.98859e-11 1.07904e-11
-7.45825e-11 -1.09506e-10 8.93645e-11
1.9986e-10 1.51396e-10 1.43322e-11
1.77249e-10 -2.2172e-10 2.91163e-11
1.96684e-10 6.15731e-13 3.15969e-12
2.2925e-11 -2.36882e-11 1.24322e-12
5.43143e-11 1.15995e-10 -1.00702e-10
5.85705e-11 -7.78684e-11 4.85405e-11
-1.34627e-10 -1.16507e-10 5.06906e-11
-1.10352e-10 -2.16924e-10 8.77896e-11
-2.3348e-10 1.83447e-10 1.39346e-11
2.19673e-11 5.95129e-11 -2.57461e-11
8.27428e-12 3.56136e-11 -1.50132e-11
-7.42844e-11 -2.17837e-11 3.61733e-11
-4.71577e-10 2.22772e-10 -1.48559e-10
-7.31326e-11 -3.67189e-10 2.2019e-11
1.29872e-10 2.32802e-10 2.95588e-10
-4.98526e-11 1.21865e-10 -9.78842e-11
-3.82308e-11 -1.76007e-10 9.1887e-11
3.28655e-11 -3.39482e-11 7.26988e-11
-8.00679e-11 1.11655e-10 -8.77651e-11
3.05969e-10 -1.10448e-11 4.19956e-11
-8.92601e-11 -8.33046e-11 2.51035e-11
3.2384e-10 -9.08219e-11 3.85788e-11
-3.25752e-10 8.80418e-11 -3.35294e-11
1.76064e-10 -4.00149e-11 1.69026e-11
-9.8639e-11 -4.32358e-11 2.37185e-11
-2.76285e-10 2.74007e-10 -9.84351e-11
-2.57545e-11 2.97417e-11 -4.15801e-12
1.22287e-10 -3.77386e-11 3.6424e-11
3.80848e-10 8.20438e-11 3.14297e-11
-2.18276e-11 1.06127e-10 -4.54063e-11
3.0289e-10 -4.27063e-11 1.1937e-11
-2.36011e-11 -4.79771e-11 3.50738e-12
5.30785e-13 6.17063e-11 -1.4002e-10
-2.57683e-11 3.81542e-11 -3.11391e-11
9.39327e-11 1.69764e-12 2.37918e-11
4.95197e-11 -2.19371e-12 3.79692e-12
-1.98336e-11 -2.53559e-11 1.48591e-11
-8.25e-11 -4.57874e-11 -1.89507e-11
-8.97519e-11 -9.82091e-11 4.31911e-11
6.67582e-11 2.30958e-10 -1.30341e-10
-3.55708e-10 -6.89821e-11 -1.40374e-10
-3.86575e-10 -2.7654e-10 4.66167e-11
-2.31588e-11 -2.33749e-10 1.50469e-10
-9.86615e-11 1.02897e-10 -5.97054e-11
4.21343e-10 -2.28191e-10 3.28275e-11
-2.96323e-11 -1.73277e-11 2.20618e-11
8.27731e-11 -3.79462e-11 8.01721e-11
-1.81796e-10 -1.85485e-10 5.5505e-11
1.83782e-10 -2.90591e-10 3.58952e-11
7.09816e-11 -1.08521e-10 5.10701e-11
-2.79197e-12 -2.3578e-11 -2.13264e-11
1.68254e-09 -4.55185e-10 1.37991e-09
-2.60888e-10 1.41813e-10 -6.26019e-11
3.13259e-10 1.31353e-10 -6.42246e-11
1.1765e-10 5.30587e-11 1.50759e-11
-1.05193e-10 -1.64619e-10 -5.6709e-12
9.95851e-11 2.35782e-10 -6.69186e-11
1.52493e-10 -3.39588e-11 -3.25933e-11
4.54444e-11 -1.7026e-10 7.1951e-11
1.41576e-11 4.44991e-11 -1.83758e-11
-6.127e-12 2.6468e-11 -7.75212e-11
-4.12686e-10 2.25285e-10 -9.74799e-11
-1.23298e-11 -3.11409e-11 7.55197e-11
-5.02061e-11 -2.1837e-11 -2.25603e-10
-2.4435e-10 9.50047e-11 -5.12009e-12
2.06756e-11 -8.85952e-12 9.65496e-12
-3.19488e-10 1.56743e-10 -6.26827e-11
2.5885e-10 -2.47968e-11 1.86252e-11
7.60623e-11 6.69918e-11 -4.68675e-12
-8.67312e-11 -1.12893e-10 5.4986e-11
1.20834e-10 8.91631e-11 -5.35097e-11
2.69691e-10 -4.11518e-11 8.36132e-12
6.22911e-11 9.29337e-11 2.58163e-12
3.65355e-11 5.81262e-11 -6.20998e-11
-2.13394e-10 4.68028e-11 -1.93323e-11
1.81636e-10 -2.34361e-10 -1.37839e-11
-4.08032e-11 -6.09159e-11 1.13584e-11
1.42161e-11 1.12896e-10 -4.90702e-11
-1.35585e-10 -7.107e-10 4.10098e-10
-2.28698e-10 -2.1699e-10 1.52021e-10
2.23875e-11 2.44201e-10 -9.32605e-11
-3.99536e-11 -5.87753e-11 2.70648e-11
-8.90657e-11 -2.71739e-11 2.5348e-11
5.32036e-11 1.78431e-10 -5.49124e-12
9.92702e-11 7.88148e-11 -6.94849e-10
-3.84964e-11 -2.81393e-10 2.84267e-10
7.47784e-11 4.84917e-11 -2.27307e-11
2.30253e-10 8.46624e-11 -3.62502e-11
-1.93949e-10 4.4306e-12 -1.46615e-10
-8.33479e-11 1.53952e-11 -2.4253e-11
-3.53417e-11 -5.54539e-11 2.72257e-11
1.29152e-10 -3.64987e-11 7.65119e-12
-7.7696e-11 -1.87734e-10 2.74241e-11
4.50824e-11 2.27613e-11 2.32506e-11
3.73136e-12 2.20329e-11 -1.73656e-11
1.54976e-10 -3.25766e-11 6.74761e-12
1.14937e-10 -2.89001e-11 1.20806e-10
3.72478e-11 -4.10313e-11 1.32555e-12
1.90395e-10 -1.60628e-10 -4.07031e-12
-6.95428e-11 -1.41427e-10 1.24083e-10
-2.80087e-10 -2.48596e-10 1.14783e-10
-2.76585e-11 -7.65243e-11 -1.37734e-10
-2.90716e-10 1.86962e-10 -7.82574e-11
6.89461e-12 -3.95859e-12 -1.30191e-11
-2.04101e-11 -1.39958e-11 -2.28918e-11
1.60254e-10 1.12198e-10 -1.86788e-10
6.36785e-11 1.07251e-10 -3.6736e-11
-2.32053e-12 -1.52251e-11 1.23626e-11
1.55615e-10 1.24681e-10 -4.53194e-11
-5.62896e-13 -1.01968e-11 -2.5669e-11
-8.34475e-11 -1.30239e-10 1.77218e-10
1.03166e-10 9.82512e-11 6.37471e-11
-3.76169e-10 1.76287e-11 1.25041e-10
2.84215e-10 2.90386e-15 1.23095e-11
2.04864e-10 1.14638e-10 -5.58811e-11
2.08375e-10 9.97714e-11 -3.47854e-11
5.1981e-11 1.02496e-10 -2.93765e-11
-9.83201e-11 -1.23606e-10 5.9312e-11
-7.20071e-11 4.36208e-11 3.37526e-12
-3.21776e-10 -3.71099e-10 -6.80939e-11
-2.76698e-10 1.72729e-10 -3.21291e-11
6.33532e-12 2.76985e-11 3.62037e-11
9.94394e-11 1.00865e-10 -1.05442e-10
3.68512e-10 4.13122e-11 1.21381e-10
2.67563e-11 -3.86317e-12 -3.00607e-11
-7.08288e-11 5.53337e-11 -4.56499e-11
-2.48691e-11 -1.75173e-10 7.3209e-11
1.47594e-12 5.49378e-12 -3.71789e-12
6.80377e-11 9.34442e-11 -1.99411e-10
1.25056e-10 2.18138e-10 -1.216e-10
-6.6476e-11 -4.65092e-11 -1.73159e-10
1.36065e-10 -2.14583e-10 1.25053e-10
-2.25784e-11 -6.5965e-11 3.7956e-11
-8.722e-11 4.90703e-11 2.24286e-11
7.35517e-11 1.00301e-10 -6.72469e-12
4.51748e-12 -4.44179e-11 -4.13422e-11
-1.12447e-10 5.03483e-11 -5.40375e-11
4.38665e-12 5.21124e-11 -1.33948e-10
1.07831e-10 2.28767e-10 -4.43918e-10
-3.78467e-10 2.01077e-10 1.17443e-10
-5.06088e-12 -1.26789e-10 5.75324e-11
-2.41179e-11 -5.35135e-11 1.12532e-11
4.74549e-11 -9.0183e-11 2.45388e-11
3.12788e-10 -8.21786e-11 1.01853e-10
2.58875e-11 6.06427e-11 -2.62518e-11
-1.76759e-10 7.6578e-11 -3.59798e-11
-4.85584e-11 1.46017e-10 -5.62999e-11
1.35087e-10 7.36473e-11 9.91819e-12
-1.14925e-10 -1.05424e-10 7.79885e-11
-1.19992e-10 1.30404e-11 1.48506e-11
1.10445e-09 -1.69186e-10 -9.20905e-10
-2.05404e-11 -1.37925e-10 8.59096e-11
-2.01604e-11 -3.29094e-11 1.00337e-11
4.98469e-11 -2.1515e-11 -3.66702e-11
1.68621e-10 -5.86148e-11 7.03648e-11
4.86825e-11 8.02231e-11 -4.38236e-11
5.169e-11 -1.12184e-10 1.43671e-10
-5.36964e-11 -1.56184e-12 -8.07021e-11
-2.2072e-10 -2.0539e-11 -2.40403e-11
-8.9562e-11 -1.22895e-10 6.83968e-11
-4.90183e-11 -6.01465e-11 5.65746e-11
-2.35052e-10 1.74937e-10 -8.62692e-11
1.38192e-10 1.79016e-10 -1.08665e-10
4.55722e-11 9.75376e-11 -4.89212e-11
2.64463e-10 3.65929e-11 -1.65836e-11
3.06265e-11 3.82915e-11 -9.63486e-12
-2.5574e-10 -7.00968e-11 -1.05515e-11
4.85343e-11 1.69264e-11 1.2129e-11
1.06564e-11 3.99878e-11 -1.28731e-11
9.99746e-11 -9.30045e-12 6.01941e-12
-2.0445e-10 5.96735e-11 -7.02756e-12
1.32082e-10 7.00089e-12 5.33272e-12
1.2538e-10 -4.39974e-11 -1.5121e-10
-2.26833e-10 1.24221e-10 -4.59949e-11
-6.23684e-11 -1.55324e-10 4.50591e-11
1.7252e-10 -3.22738e-11 1.50466e-11
4.39617e-10 6.36152e-11 -1.84402e-10
4.98635e-23 6.72084e-24 6.41065e-24
1.42693e-10 -1.47226e-13 -2.51935e-10
1.20665e-10 -7.04965e-11 5.21636e-11
-2.49221e-11 -9.24307e-11 6.40951e-11
-1.55786e-10 -1.17423e-10 -5.51671e-10
-3.08014e-11 2.6032e-10 -6.97384e-11
2.57017e-11 -1.4573e-10 -3.60511e-11
-7.68165e-12 9.84745e-13 -1.01846e-11
-4.83279e-11 -2.60535e-11 -4.61287e-11
-5.18456e-12 -4.00087e-12 1.24671e-11
1.56692e-10 5.7571e-11 -2.14093e-11
-1.0883e-10 3.74166e-11 1.0237e-10
-2.40454e-11 -2.17088e-11 -1.43486e-11
-3.98206e-11 1.59596e-10 -4.33449e-10
6.24915e-11 -1.11819e-10 4.19557e-11
1.42638e-11 1.05888e-10 -3.77601e-11
-1.5678e-10 -3.7739e-11 -3.33723e-10
-1.4791e-11 1.89338e-12 -1.40281e-11
6.20959e-11 1.71602e-10 -1.13196e-10
-1.10712e-10 -9.75992e-11 1.19644e-11
6.15294e-11 -5.38387e-11 1.19748e-11
3.49427e-11 -5.85236e-11 -1.69175e-10
4.42029e-12 2.13546e-11 -8.18513e-12
-2.96468e-10 -7.50701e-12 -1.98573e-10
-6.96482e-11 -1.86726e-10 -3.46384e-11
2.02087e-11 -4.75249e-12 2.12211e-11
-1.37926e-10 2.56421e-10 -4.70466e-11
-6.47721e-22 -1.34882e-22 -1.44757e-24
9.67901e-12 6.02432e-11 -1.38635e-11
1.54047e-11 6.6623e-11 -2.11864e-11
1.46332e-11 6.27059e-11 -2.30362e-12
-2.14457e-11 -5.74163e-11 2.2119e-11
4.19134e-11 -4.26842e-11 -5.61102e-11
7.11788e-11 4.39687e-11 -3.40689e-11
1.65708e-11 8.65784e-12 -2.40618e-11
-4.34095e-10 -7.53992e-12 -5.63965e-11
-3.39516e-11 -4.51311e-11 -2.63928e-12
-1.6082e-10 -8.94631e-11 4.61959e-11
8.41553e-11 6.01798e-11 1.90413e-10
-8.67447e-12 -1.91946e-11 -4.57526e-11
-2.61378e-10 7.55892e-11 1.99208e-10
4.24064e-11 2.78938e-11 3.5899e-12
-9.28524e-11 5.08764e-11 -5.99768e-11
-1.04582e-10 3.94912e-11 8.79209e-11
-7.37198e-11 -1.17655e-10 8.44989e-11
-8.04315e-11 -1.04812e-10 5.14402e-11
-3.07156e-11 -1.79669e-10 4.68481e-11
