# vtk DataFile Version 3.0
LIGGGHTS particles timestep 44600000
ASCII
DATASET POLYDATA
POINTS 283 float
0.217184 0.0164784 0.00796644
0.21752 0.0174762 0.00710432
0.217627 0.0183131 0.0070156
0.217607 0.0182168 0.00699776
0.216807 0.0151192 0.00908321
0.223256 0.0167658 0.00773417
0.216947 0.0156476 0.00864613
0.216787 0.0150438 0.00914563
0.2235 0.0177019 0.00704754
0.21787 0.0181463 0.00701767
0.217358 0.0167944 0.00767914
0.223459 0.0175147 0.00710451
0.217927 0.017779 0.00707176
0.210778 0.0151532 0.00929277
0.217952 0.0176833 0.00708624
0.211118 0.016205 0.00800527
0.223621 0.0182835 0.00696627
0.217547 0.0179293 0.00705386
0.217586 0.0172701 0.00727092
0.216827 0.0151947 0.0090208
0.217665 0.0185044 0.00697246
0.223423 0.0173643 0.00723126
0.217729 0.0175464 0.00709721
0.22336 0.0171402 0.00741961
0.211048 0.0159559 0.00830959
0.217505 0.0177346 0.00706216
0.223235 0.0166909 0.00779709
0.217733 0.0183632 0.00698182
0.217825 0.0175753 0.00709674
0.223277 0.0168407 0.00767125
0.217488 0.0176518 0.00711558
0.217983 0.0179025 0.00705641
0.22356 0.0179921 0.00700341
0.216929 0.0155718 0.00870873
0.217828 0.0177638 0.00707017
0.216969 0.0157229 0.00858378
0.217614 0.0174264 0.0071497
0.217643 0.0171436 0.00737025
0.217712 0.0182663 0.00699474
0.217585 0.0176823 0.00709204
0.223298 0.0169156 0.00760836
0.223381 0.0172151 0.00735669
0.216868 0.0153456 0.00889595
0.217565 0.0171948 0.00733349
0.223341 0.0170651 0.00748287
0.217679 0.0177103 0.00707215
0.211717 0.0187698 0.0068983
0.211681 0.0178364 0.00709579
0.217851 0.0180497 0.00703503
0.223319 0.0169905 0.00754542
0.211312 0.0165392 0.00760592
0.223443 0.0174393 0.00716839
0.21755 0.0176881 0.00718548
0.216848 0.0152701 0.00895838
0.21744 0.016747 0.00771247
0.217637 0.0179828 0.00708177
0.22341 0.0172888 0.00729541
0.217232 0.0163469 0.00805784
0.211882 0.0182957 0.00694869
0.218004 0.018001 0.00704325
0.211367 0.0164255 0.00772421
0.217524 0.0170455 0.00745982
0.223655 0.0180225 0.00699537
0.211356 0.0166851 0.00747646
0.223479 0.0176084 0.00707602
0.216888 0.015421 0.00883351
0.217302 0.0169203 0.0075791
0.216908 0.0154965 0.00877105
0.223601 0.0181859 0.00697529
0.217774 0.0185592 0.00695564
0.21084 0.0153389 0.00906537
0.210942 0.0156483 0.00868647
0.21762 0.0175118 0.00709801
0.211926 0.0184895 0.00688796
0.211431 0.0166413 0.00752613
0.21086 0.0154008 0.00898957
0.22354 0.0178953 0.00701814
0.211292 0.0164754 0.00768025
0.217694 0.0181689 0.00700782
0.223526 0.0177974 0.00703279
0.217461 0.0168216 0.00764931
0.21765 0.0176065 0.00708574
0.217379 0.016869 0.00761598
0.21726 0.01642 0.00799547
0.217601 0.0169943 0.0074966
0.217695 0.0173734 0.00717673
0.217442 0.0170929 0.00742649
0.21781 0.0179591 0.00704186
0.217664 0.0172183 0.00730706
0.217505 0.0173178 0.00723623
0.211495 0.0168957 0.00738968
0.217448 0.0174655 0.00717318
0.211755 0.0176769 0.00714219
0.217701 0.0178071 0.00705927
0.217775 0.0173125 0.00722129
0.21141 0.0165682 0.00759113
0.211728 0.017951 0.00705917
0.217298 0.0165699 0.00786886
0.210799 0.0152151 0.00921697
0.21779 0.0178563 0.00706563
0.217587 0.0181196 0.00701076
0.217685 0.0186023 0.00696742
0.217072 0.0160997 0.00827192
0.211006 0.0158335 0.00845967
0.217809 0.0183009 0.00700247
0.211335 0.0166132 0.0075427
0.217526 0.0178316 0.00704922
0.217468 0.0175616 0.00715383
0.217338 0.0167195 0.00774239
0.211903 0.018389 0.00691945
0.223214 0.0166161 0.00786001
0.217679 0.017294 0.00724347
0.217559 0.016845 0.00762295
0.217344 0.0170697 0.00745297
0.21174 0.01868 0.00693745
0.217726 0.0178561 0.00714264
0.217909 0.0179685 0.00704429
0.217213 0.016272 0.00812111
0.210901 0.0155245 0.00883806
0.217891 0.0182434 0.00700469
0.211021 0.0159051 0.00839149
0.217052 0.0160241 0.00833435
0.211792 0.0187159 0.00685974
0.217406 0.0172936 0.00726329
0.217545 0.0171202 0.00739665
0.217704 0.0174509 0.0071121
0.2174 0.0169436 0.00755282
0.21168 0.0185835 0.00687108
0.21724 0.0166963 0.00776874
0.217463 0.017168 0.00736294
0.217482 0.0168962 0.00758615
0.217831 0.0183961 0.00698084
0.211772 0.0177709 0.00711286
0.216988 0.0157984 0.0085213
0.217792 0.0173879 0.00715779
0.2176 0.0173457 0.00720697
0.217281 0.0168457 0.00764226
0.210819 0.015277 0.00914117
0.217519 0.017783 0.00714864
0.217581 0.0169196 0.00755981
0.217277 0.0164954 0.00793195
0.21156 0.0171758 0.00730186
0.217946 0.0180816 0.00702967
0.211085 0.0160801 0.00815778
0.210962 0.0157143 0.00861385
0.211648 0.0184199 0.00696815
0.217716 0.0180177 0.00703004
0.211776 0.0178664 0.00708351
0.217622 0.017069 0.00743342
0.211643 0.01755 0.00718466
0.217422 0.0170182 0.00748968
0.211977 0.0183244 0.0069368
0.217385 0.0172189 0.00732645
0.211698 0.0186787 0.00684652
0.217503 0.0169708 0.00752301
0.211272 0.0164095 0.00775289
0.217752 0.0176429 0.00708442
0.211592 0.0181524 0.00709192
0.211258 0.0166568 0.00749055
0.217564 0.0178708 0.00713304
0.211703 0.0183408 0.00694071
0.217633 0.0178797 0.00704645
0.211623 0.0174556 0.00721417
0.211514 0.0177767 0.0071715
0.211099 0.0161431 0.00808136
0.211775 0.0186176 0.00686727
0.211581 0.017269 0.00727265
0.211452 0.0167144 0.00746117
0.217849 0.0184937 0.00696771
0.211851 0.0185533 0.00687115
0.217665 0.0180947 0.00706825
0.211806 0.0183586 0.00693191
0.21772 0.0179273 0.00707273
0.211377 0.0167767 0.00743978
0.211463 0.0171463 0.00731402
0.223581 0.0180889 0.00698868
0.217197 0.0165471 0.00789493
0.217156 0.0163994 0.00802062
0.211157 0.0163291 0.00785345
0.217521 0.0173968 0.00716983
0.211528 0.017426 0.00722634
0.217645 0.0177131 0.00716608
0.217032 0.0159487 0.00839676
0.211663 0.0181611 0.00702218
0.211516 0.0169889 0.00736046
0.21732 0.0166445 0.00780574
0.211736 0.0188663 0.00688074
0.211613 0.018242 0.00705242
0.210922 0.0155872 0.00876295
0.211506 0.0173327 0.0072556
0.211562 0.017966 0.00715707
0.217853 0.0176712 0.00709777
0.211578 0.0180779 0.00702524
0.211237 0.0165837 0.00755561
0.211603 0.0173622 0.00724343
0.211387 0.0164954 0.00765561
0.211944 0.018587 0.00685753
0.211062 0.0160209 0.00823492
0.217556 0.0179798 0.00713966
0.217218 0.0166218 0.00783175
0.223661 0.0184794 0.00696239
0.217323 0.016995 0.00751595
0.211252 0.0163458 0.00782736
0.21726 0.016771 0.00770545
0.217114 0.0162501 0.00814697
0.217093 0.0161749 0.00820957
0.217966 0.0181788 0.00701667
0.211138 0.0162672 0.00792955
0.217889 0.0178703 0.0070574
0.210982 0.0157721 0.00853493
0.210884 0.0154622 0.0089144
0.223641 0.0183815 0.00696433
0.211567 0.0176133 0.00716775
0.211677 0.0177408 0.00712514
0.211398 0.0168667 0.00740169
0.211633 0.0179209 0.00707149
0.211544 0.0178712 0.00718388
0.211197 0.0164537 0.00770202
0.211538 0.0170826 0.00733108
0.217485 0.017243 0.00729948
0.217606 0.0177789 0.00707704
0.211387 0.0172094 0.00729717
0.211323 0.0169308 0.00738732
0.211472 0.0175824 0.00718028
0.21142 0.0169599 0.00737248
0.205401 0.0172576 0.00726019
0.211301 0.0168389 0.00742036
0.211441 0.017053 0.00734327
0.20538 0.017173 0.00730901
0.20542 0.0173428 0.00721122
0.211281 0.0167468 0.00745347
0.205459 0.0175129 0.00711333
0.217807 0.0174804 0.00712303
0.217541 0.0175722 0.0070865
0.211217 0.016517 0.00762727
0.21701 0.0158737 0.00845898
0.215741 0.019982 0.00563384
0.205439 0.0174279 0.00716226
0.211757 0.0185211 0.0068865
0.211661 0.0176459 0.00715472
0.211233 0.0162837 0.0079033
0.211724 0.0180813 0.00701944
0.211492 0.0176794 0.00716572
0.211585 0.0178065 0.00710804
0.21174 0.0184333 0.00693115
0.217768 0.0181025 0.00701999
0.211366 0.0171163 0.00732639
0.211558 0.0179844 0.00705451
0.205497 0.0176965 0.00705889
0.211548 0.0175196 0.00719705
0.211177 0.0163912 0.00777757
0.217136 0.0163245 0.00808391
0.211832 0.0184573 0.00690089
0.211661 0.0184888 0.00689681
0.211997 0.018421 0.00690661
0.211799 0.0180178 0.00703642
0.211452 0.017489 0.00720954
0.21167 0.0182473 0.00697041
0.211653 0.0180144 0.00704222
0.211574 0.0180596 0.00712413
0.211773 0.0182687 0.0069605
0.21143 0.0173958 0.00723875
0.217428 0.0173741 0.00720803
0.404182 0.0211142 0.0056569
0.205538 0.0178917 0.00704559
0.211868 0.0186514 0.00685467
0.205518 0.0177941 0.00705224
0.205477 0.0175988 0.00706553
0.211485 0.0172395 0.00728481
0.211344 0.0170232 0.00735592
0.211757 0.0181745 0.00698986
0.217788 0.0182021 0.00700668
0.211582 0.0177109 0.00713738
0.21183 0.0181085 0.00700767
0.211538 0.0178909 0.00708377
0.211632 0.0183307 0.0070103
0.217755 0.0184601 0.00696892
0.211409 0.0173026 0.00726796
0.211473 0.0168026 0.00741889
0.217365 0.0171444 0.00738984
0.217566 0.0180226 0.00702371
0.211852 0.018205 0.00697745
0.217646 0.0184095 0.00699733

VERTICES 283 566
1 0
1 1
1 2
1 3
1 4
1 5
1 6
1 7
1 8
1 9
1 10
1 11
1 12
1 13
1 14
1 15
1 16
1 17
1 18
1 19
1 20
1 21
1 22
1 23
1 24
1 25
1 26
1 27
1 28
1 29
1 30
1 31
1 32
1 33
1 34
1 35
1 36
1 37
1 38
1 39
1 40
1 41
1 42
1 43
1 44
1 45
1 46
1 47
1 48
1 49
1 50
1 51
1 52
1 53
1 54
1 55
1 56
1 57
1 58
1 59
1 60
1 61
1 62
1 63
1 64
1 65
1 66
1 67
1 68
1 69
1 70
1 71
1 72
1 73
1 74
1 75
1 76
1 77
1 78
1 79
1 80
1 81
1 82
1 83
1 84
1 85
1 86
1 87
1 88
1 89
1 90
1 91
1 92
1 93
1 94
1 95
1 96
1 97
1 98
1 99
1 100
1 101
1 102
1 103
1 104
1 105
1 106
1 107
1 108
1 109
1 110
1 111
1 112
1 113
1 114
1 115
1 116
1 117
1 118
1 119
1 120
1 121
1 122
1 123
1 124
1 125
1 126
1 127
1 128
1 129
1 130
1 131
1 132
1 133
1 134
1 135
1 136
1 137
1 138
1 139
1 140
1 141
1 142
1 143
1 144
1 145
1 146
1 147
1 148
1 149
1 150
1 151
1 152
1 153
1 154
1 155
1 156
1 157
1 158
1 159
1 160
1 161
1 162
1 163
1 164
1 165
1 166
1 167
1 168
1 169
1 170
1 171
1 172
1 173
1 174
1 175
1 176
1 177
1 178
1 179
1 180
1 181
1 182
1 183
1 184
1 185
1 186
1 187
1 188
1 189
1 190
1 191
1 192
1 193
1 194
1 195
1 196
1 197
1 198
1 199
1 200
1 201
1 202
1 203
1 204
1 205
1 206
1 207
1 208
1 209
1 210
1 211
1 212
1 213
1 214
1 215
1 216
1 217
1 218
1 219
1 220
1 221
1 222
1 223
1 224
1 225
1 226
1 227
1 228
1 229
1 230
1 231
1 232
1 233
1 234
1 235
1 236
1 237
1 238
1 239
1 240
1 241
1 242
1 243
1 244
1 245
1 246
1 247
1 248
1 249
1 250
1 251
1 252
1 253
1 254
1 255
1 256
1 257
1 258
1 259
1 260
1 261
1 262
1 263
1 264
1 265
1 266
1 267
1 268
1 269
1 270
1 271
1 272
1 273
1 274
1 275
1 276
1 277
1 278
1 279
1 280
1 281
1 282

POINT_DATA 283
SCALARS id int 1
LOOKUP_TABLE default
1
2
3
4
5
6
7
8
9
10
11
12
13
14
15
16
18
19
20
21
22
24
25
26
27
29
30
31
32
33
34
35
36
37
38
40
41
42
43
44
45
46
47
48
49
50
52
55
56
57
58
59
60
61
62
63
64
65
66
67
68
69
70
71
72
73
74
75
76
77
78
79
80
81
82
83
84
85
86
87
88
89
90
91
92
93
94
95
96
98
99
100
101
102
103
104
105
106
107
108
109
110
111
112
113
114
115
116
117
118
119
120
121
122
123
124
125
126
127
128
129
130
131
132
133
134
135
136
137
138
139
140
141
142
144
145
146
147
148
149
150
152
153
154
155
156
157
158
159
160
161
162
164
165
166
167
168
169
170
171
172
173
174
175
176
177
178
179
180
181
182
183
184
185
186
187
188
189
190
191
192
193
194
195
196
197
198
199
200
201
202
203
204
205
206
207
208
209
210
211
213
214
215
217
218
219
220
221
222
223
224
225
226
227
228
229
230
231
232
233
234
235
236
237
238
239
241
242
243
244
245
246
247
248
249
250
251
252
253
254
255
256
257
258
259
260
261
262
263
264
265
267
268
269
270
271
272
273
274
275
276
277
278
279
280
281
282
283
284
285
286
287
288
289
290
292
293
294
295
296
297
298
300

SCALARS type int 1
LOOKUP_TABLE default
1
1
1
1
1
1
1
1
1
1
1
1
1
1
1
1
1
1
1
1
1
1
1
1
1
1
1
1
1
1
1
1
1
1
1
1
1
1
1
1
1
1
1
1
1
1
1
1
1
1
1
1
1
1
1
1
1
1
1
1
1
1
1
1
1
1
1
1
1
1
1
1
1
1
1
1
1
1
1
1
1
1
1
1
1
1
1
1
1
1
1
1
1
1
1
1
1
1
1
1
1
1
1
1
1
1
1
1
1
1
1
1
1
1
1
1
1
1
1
1
1
1
1
1
1
1
1
1
1
1
1
1
1
1
1
1
1
1
1
1
1
1
1
1
1
1
1
1
1
1
1
1
1
1
1
1
1
1
1
1
1
1
1
1
1
1
1
1
1
1
1
1
1
1
1
1
1
1
1
1
1
1
1
1
1
1
1
1
1
1
1
1
1
1
1
1
1
1
1
1
1
1
1
1
1
1
1
1
1
1
1
1
1
1
1
1
1
1
1
1
1
1
1
1
1
1
1
1
1
1
1
1
1
1
1
1
1
1
1
1
1
1
1
1
1
1
1
1
1
1
1
1
1
1
1
1
1
1
1
1
1
1
1
1
1
1
1
1
1
1
1
1
1
1
1
1
1
1
1
1
1
1
1

SCALARS radius float 1
LOOKUP_TABLE default
5e-05
5e-05
5e-05
5e-05
5e-05
5e-05
5e-05
5e-05
5e-05
5e-05
5e-05
5e-05
5e-05
5e-05
5e-05
5e-05
5e-05
5e-05
5e-05
5e-05
5e-05
5e-05
5e-05
5e-05
5e-05
5e-05
5e-05
5e-05
5e-05
5e-05
5e-05
5e-05
5e-05
5e-05
5e-05
5e-05
5e-05
5e-05
5e-05
5e-05
5e-05
5e-05
5e-05
5e-05
5e-05
5e-05
5e-05
5e-05
5e-05
5e-05
5e-05
5e-05
5e-05
5e-05
5e-05
5e-05
5e-05
5e-05
5e-05
5e-05
5e-05
5e-05
5e-05
5e-05
5e-05
5e-05
5e-05
5e-05
5e-05
5e-05
5e-05
5e-05
5e-05
5e-05
5e-05
5e-05
5e-05
5e-05
5e-05
5e-05
5e-05
5e-05
5e-05
5e-05
5e-05
5e-05
5e-05
5e-05
5e-05
5e-05
5e-05
5e-05
5e-05
5e-05
5e-05
5e-05
5e-05
5e-05
5e-05
5e-05
5e-05
5e-05
5e-05
5e-05
5e-05
5e-05
5e-05
5e-05
5e-05
5e-05
5e-05
5e-05
5e-05
5e-05
5e-05
5e-05
5e-05
5e-05
5e-05
5e-05
5e-05
5e-05
5e-05
5e-05
5e-05
5e-05
5e-05
5e-05
5e-05
5e-05
5e-05
5e-05
5e-05
5e-05
5e-05
5e-05
5e-05
5e-05
5e-05
5e-05
5e-05
5e-05
5e-05
5e-05
5e-05
5e-05
5e-05
5e-05
5e-05
5e-05
5e-05
5e-05
5e-05
5e-05
5e-05
5e-05
5e-05
5e-05
5e-05
5e-05
5e-05
5e-05
5e-05
5e-05
5e-05
5e-05
5e-05
5e-05
5e-05
5e-05
5e-05
5e-05
5e-05
5e-05
5e-05
5e-05
5e-05
5e-05
5e-05
5e-05
5e-05
5e-05
5e-05
5e-05
5e-05
5e-05
5e-05
5e-05
5e-05
5e-05
5e-05
5e-05
5e-05
5e-05
5e-05
5e-05
5e-05
5e-05
5e-05
5e-05
5e-05
5e-05
5e-05
5e-05
5e-05
5e-05
5e-05
5e-05
5e-05
5e-05
5e-05
5e-05
5e-05
5e-05
5e-05
5e-05
5e-05
5e-05
5e-05
5e-05
5e-05
5e-05
5e-05
5e-05
5e-05
5e-05
5e-05
5e-05
5e-05
5e-05
5e-05
5e-05
5e-05
5e-05
5e-05
5e-05
5e-05
5e-05
5e-05
5e-05
5e-05
5e-05
5e-05
5e-05
5e-05
5e-05
5e-05
5e-05
5e-05
5e-05
5e-05
5e-05
5e-05
5e-05
5e-05
5e-05
5e-05
5e-05
5e-05
5e-05
5e-05
5e-05
5e-05
5e-05
5e-05
5e-05
5e-05
5e-05
5e-05
5e-05
5e-05
5e-05
5e-05
5e-05
5e-05
5e-05
5e-05
5e-05
5e-05
5e-05
5e-05
5e-05
5e-05

SCALARS mass float 1
LOOKUP_TABLE default
1.46608e-10
1.46608e-10
1.46608e-10
1.46608e-10
1.46608e-10
1.46608e-10
1.46608e-10
1.46608e-10
1.46608e-10
1.46608e-10
1.46608e-10
1.46608e-10
1.46608e-10
1.46608e-10
1.46608e-10
1.46608e-10
1.46608e-10
1.46608e-10
1.46608e-10
1.46608e-10
1.46608e-10
1.46608e-10
1.46608e-10
1.46608e-10
1.46608e-10
1.46608e-10
1.46608e-10
1.46608e-10
1.46608e-10
1.46608e-10
1.46608e-10
1.46608e-10
1.46608e-10
1.46608e-10
1.46608e-10
1.46608e-10
1.46608e-10
1.46608e-10
1.46608e-10
1.46608e-10
1.46608e-10
1.46608e-10
1.46608e-10
1.46608e-10
1.46608e-10
1.46608e-10
1.46608e-10
1.46608e-10
1.46608e-10
1.46608e-10
1.46608e-10
1.46608e-10
1.46608e-10
1.46608e-10
1.46608e-10
1.46608e-10
1.46608e-10
1.46608e-10
1.46608e-10
1.46608e-10
1.46608e-10
1.46608e-10
1.46608e-10
1.46608e-10
1.46608e-10
1.46608e-10
1.46608e-10
1.46608e-10
1.46608e-10
1.46608e-10
1.46608e-10
1.46608e-10
1.46608e-10
1.46608e-10
1.46608e-10
1.46608e-10
1.46608e-10
1.46608e-10
1.46608e-10
1.46608e-10
1.46608e-10
1.46608e-10
1.46608e-10
1.46608e-10
1.46608e-10
1.46608e-10
1.46608e-10
1.46608e-10
1.46608e-10
1.46608e-10
1.46608e-10
1.46608e-10
1.46608e-10
1.46608e-10
1.46608e-10
1.46608e-10
1.46608e-10
1.46608e-10
1.46608e-10
1.46608e-10
1.46608e-10
1.46608e-10
1.46608e-10
1.46608e-10
1.46608e-10
1.46608e-10
1.46608e-10
1.46608e-10
1.46608e-10
1.46608e-10
1.46608e-10
1.46608e-10
1.46608e-10
1.46608e-10
1.46608e-10
1.46608e-10
1.46608e-10
1.46608e-10
1.46608e-10
1.46608e-10
1.46608e-10
1.46608e-10
1.46608e-10
1.46608e-10
1.46608e-10
1.46608e-10
1.46608e-10
1.46608e-10
1.46608e-10
1.46608e-10
1.46608e-10
1.46608e-10
1.46608e-10
1.46608e-10
1.46608e-10
1.46608e-10
1.46608e-10
1.46608e-10
1.46608e-10
1.46608e-10
1.46608e-10
1.46608e-10
1.46608e-10
1.46608e-10
1.46608e-10
1.46608e-10
1.46608e-10
1.46608e-10
1.46608e-10
1.46608e-10
1.46608e-10
1.46608e-10
1.46608e-10
1.46608e-10
1.46608e-10
1.46608e-10
1.46608e-10
1.46608e-10
1.46608e-10
1.46608e-10
1.46608e-10
1.46608e-10
1.46608e-10
1.46608e-10
1.46608e-10
1.46608e-10
1.46608e-10
1.46608e-10
1.46608e-10
1.46608e-10
1.46608e-10
1.46608e-10
1.46608e-10
1.46608e-10
1.46608e-10
1.46608e-10
1.46608e-10
1.46608e-10
1.46608e-10
1.46608e-10
1.46608e-10
1.46608e-10
1.46608e-10
1.46608e-10
1.46608e-10
1.46608e-10
1.46608e-10
1.46608e-10
1.46608e-10
1.46608e-10
1.46608e-10
1.46608e-10
1.46608e-10
1.46608e-10
1.46608e-10
1.46608e-10
1.46608e-10
1.46608e-10
1.46608e-10
1.46608e-10
1.46608e-10
1.46608e-10
1.46608e-10
1.46608e-10
1.46608e-10
1.46608e-10
1.46608e-10
1.46608e-10
1.46608e-10
1.46608e-10
1.46608e-10
1.46608e-10
1.46608e-10
1.46608e-10
1.46608e-10
1.46608e-10
1.46608e-10
1.46608e-10
1.46608e-10
1.46608e-10
1.46608e-10
1.46608e-10
1.46608e-10
1.46608e-10
1.46608e-10
1.46608e-10
1.46608e-10
1.46608e-10
1.46608e-10
1.46608e-10
1.46608e-10
1.46608e-10
1.46608e-10
1.46608e-10
1.46608e-10
1.46608e-10
1.46608e-10
1.46608e-10
1.46608e-10
1.46608e-10
1.46608e-10
1.46608e-10
1.46608e-10
1.46608e-10
1.46608e-10
1.46608e-10
1.46608e-10
1.46608e-10
1.46608e-10
1.46608e-10
1.46608e-10
1.46608e-10
1.46608e-10
1.46608e-10
1.46608e-10
1.46608e-10
1.46608e-10
1.46608e-10
1.46608e-10
1.46608e-10
1.46608e-10
1.46608e-10
1.46608e-10
1.46608e-10
1.46608e-10
1.46608e-10
1.46608e-10
1.46608e-10
1.46608e-10
1.46608e-10
1.46608e-10
1.46608e-10
1.46608e-10
1.46608e-10
1.46608e-10
1.46608e-10
1.46608e-10
1.46608e-10
1.46608e-10
1.46608e-10
1.46608e-10
1.46608e-10
1.46608e-10

VECTORS velocity float
0.00453515 -0.000107845 -0.000244103
0.00414509 -7.46671e-06 -0.000291066
0.00435899 3.64471e-05 0.000154363
0.0043835 3.9604e-05 0.000158575
0.00460111 -0.000116481 -0.000164448
0.00472729 0.000333278 8.52624e-05
0.00435679 -5.56791e-05 -0.000199369
0.00460923 -0.000131186 -0.000152018
0.004588 0.000232379 -0.000207347
0.00437077 3.78913e-05 0.000156672
0.00470339 -0.000154763 -0.000208132
0.00456238 0.000324911 7.78161e-05
0.00448947 -3.47491e-05 0.000173708
0.00458174 -0.000126695 -0.000137325
0.00447317 -5.18901e-05 0.000175903
0.00465561 -0.000177332 -6.66278e-05
0.00446504 0.000272712 7.59992e-05
0.0045719 2.8143e-05 0.000169215
0.00472459 -0.000288881 -0.000106573
0.00459308 -0.000104481 -0.000172039
0.00442788 2.4349e-05 0.000184134
0.00495013 0.000289541 0.000139463
0.00447011 -4.2648e-05 0.000168115
0.00486498 0.00030863 0.000119119
0.00455227 -0.000193936 -5.40781e-05
0.0045541 3.86498e-05 0.000165751
0.00468355 0.00033824 7.77602e-05
0.00438117 3.38551e-06 0.000162012
0.0044732 -6.0727e-05 0.000177552
0.00474645 0.0003241 9.2623e-05
0.00450377 4.03885e-05 0.000154139
0.0045381 1.52184e-05 0.000168537
0.00463105 0.000215943 -0.000210038
0.00433235 -5.44523e-05 -0.000199935
0.00449493 -6.17543e-05 0.00017772
0.00435719 -4.72498e-05 -0.000206217
0.0045005 -0.000115371 4.39437e-05
0.00475661 -0.000285973 -0.00010156
0.0043462 1.14588e-05 0.00016533
0.00453232 8.46599e-06 0.000167656
0.00475787 0.000322274 9.71818e-05
0.00489583 0.000299732 0.000129398
0.00450475 -8.14686e-05 -0.000184631
0.00474996 -0.000293024 -9.35363e-05
0.00485439 0.000311688 0.000115082
0.0045425 -2.15302e-05 0.000174825
0.00441234 0.000170732 0.000396201
0.00453129 0.000135382 -0.000188747
0.00446366 1.74038e-05 0.000121854
0.00481478 0.000319792 0.000105429
0.00486518 0.000240329 0.000383461
0.00479384 0.000329438 0.00013818
0.00451867 1.92599e-05 0.000160565
0.00456598 -9.47398e-05 -0.000175798
0.00455069 -0.000305439 -7.25609e-05
0.00457858 2.07664e-05 0.000161443
0.00492266 0.000291037 0.000138259
0.00454632 -0.000103148 -0.00023974
0.00451902 0.000119241 -0.00018412
0.00453499 0.000116009 0.000152863
0.00483672 -0.000222415 -2.99338e-05
0.00461199 -0.000288134 -9.11512e-05
0.00463204 0.000214196 -0.000209292
0.004971 0.000230247 0.000401498
0.00458066 0.000265721 -0.00010974
0.00443812 -7.07382e-05 -0.000192464
0.00472481 -0.000161558 -0.000209592
0.00436376 -5.82947e-05 -0.000200995
0.00460792 0.000221316 -0.000175403
0.00430503 1.68243e-05 0.000163386
0.0045802 -0.000131803 -0.000129635
0.00426089 -0.00013599 -0.000104423
0.00443276 -2.84428e-05 0.00016711
0.00439014 0.000273986 -0.000222548
0.00492576 0.000180231 0.000437343
0.00455027 -0.000136045 -0.000122974
0.00461943 0.000219863 -0.000211024
0.00484996 0.000107135 0.000277118
0.0042886 3.58751e-05 0.000157309
0.0046036 0.000223575 -0.00021296
0.00454645 -0.000298162 -7.83068e-05
0.00449021 -2.96558e-05 0.000170484
0.00470556 -0.00015848 -0.000206257
0.00454562 -0.000103901 -0.000237096
0.0046966 -0.00021017 -0.0001616
0.00459221 -0.000118885 -0.000223513
0.00472874 -0.000177578 -0.000190376
0.00455771 -1.68673e-05 0.000174807
0.00475335 -0.000279517 -0.000111808
0.00497544 9.60202e-05 -0.00043607
0.00484978 -1.80972e-05 -0.000153278
0.00443524 2.17753e-05 1.06962e-05
0.00444764 0.000149368 -0.000190381
0.0045474 -1.79025e-05 0.000172491
0.00468569 -0.000210543 -0.000154395
0.00486324 0.000188242 0.000420175
0.00432368 0.000138043 -0.000183221
0.00454962 -0.000112684 -0.000231711
0.00458058 -0.000127035 -0.000136155
0.00452524 -4.68231e-05 0.00017639
0.00457837 1.56626e-05 0.00017043
0.00430909 3.9466e-05 0.000135925
0.00442804 -4.44676e-05 -0.000214139
0.00429481 -0.000154152 -8.38973e-05
0.00438024 2.22917e-06 0.000161959
0.00490997 0.000231184 0.000389049
0.00455826 3.55358e-05 0.000166828
0.00439935 4.90907e-05 0.000111239
0.00466958 -0.00014306 -0.000215582
0.00441753 0.000135618 -0.000185884
0.00465756 0.00033701 7.44093e-05
0.00470342 -0.000255526 -0.000133308
0.00457153 -0.000225122 -0.000140443
0.00472111 -0.000148423 -0.000214279
0.0044955 0.000189206 0.000380575
0.00455642 -1.96464e-05 0.00017004
0.00455854 4.98494e-05 0.000166219
0.00454499 -0.000100816 -0.000239352
0.00430166 -0.000120215 -0.000127924
0.00438998 2.94793e-05 0.000160966
0.00441415 -0.000164531 -7.78364e-05
0.00439969 -3.56553e-05 -0.000222021
0.00447147 0.000234939 0.000385722
0.00487626 -0.000174681 -0.000207141
0.00470059 -0.00029371 -9.25511e-05
0.00440241 -7.77899e-05 -0.000242117
0.00470578 -0.000157814 -0.000206036
0.00446599 0.000251432 5.11615e-05
0.0046581 -0.000134889 -0.000218766
0.00479381 -0.000204443 -0.000174308
0.00453178 -0.000284344 -8.86578e-05
0.00441042 -9.37038e-06 0.000168665
0.00437325 0.000146233 -0.000187013
0.00434404 -3.34567e-05 -0.00021739
0.00461515 -0.000202033 -0.000162755
0.00467712 -0.000249376 -8.83466e-05
0.00471516 -0.000151488 -0.000213209
0.00458029 -0.000127758 -0.000135436
0.00457423 3.926e-05 0.00016592
0.00463576 -0.000219585 -0.000149582
0.00454101 -0.000106793 -0.000235576
0.004863 8.58531e-05 -0.000184265
0.00444439 5.00493e-05 0.000157246
0.00460369 -0.00019446 -6.38717e-05
0.00428104 -0.000147302 -9.30166e-05
0.00434368 0.000245941 -0.000195152
0.00453528 -1.67546e-05 0.000169816
0.00430372 0.000140841 -0.00018306
0.00475004 -0.000232277 -0.000147341
0.00452443 0.000194581 -0.000207576
0.00469689 -0.000162954 -0.000200606
0.00449292 0.000242815 -0.000218053
0.00484741 -0.000166392 -0.000210498
0.00448529 0.000310283 0.0003815
0.00455706 -0.000284686 -9.0161e-05
0.00484362 -0.000136806 5.83211e-05
0.00449987 -7.27541e-05 0.000179383
0.00454547 0.000164846 -0.000236575
0.0049764 0.000251935 0.00036798
0.00459624 2.30904e-05 0.000152018
0.0043819 0.000295568 -0.000228722
0.00456079 3.33106e-06 0.000167817
0.0045 0.000184131 -0.00020297
0.00455378 0.000176615 -0.000178045
0.00458311 -0.000182067 -7.33715e-05
0.00444775 0.000210563 0.000246436
0.00487379 6.6488e-05 -0.00017891
0.00491197 0.000222282 0.00039226
0.00440056 0.000105036 0.000151157
0.00449136 0.000251779 -0.000823685
0.00454244 -3.36952e-05 0.000204913
0.0044921 0.000113343 -0.000181393
0.00455569 -1.69138e-05 0.000171626
0.00496145 0.000211862 0.00023192
0.00490643 0.000100877 -0.000189848
0.00463577 0.000213013 -0.000206317
0.00456622 -0.000112532 -0.00023665
0.00454638 -0.00010766 -0.000246334
0.00481908 -0.000192988 -3.21041e-05
0.00438105 -6.15063e-06 -0.000309606
0.00480716 0.000201318 -0.000217817
0.00453403 -2.56564e-05 0.000176915
0.00436891 -2.80071e-05 -0.000223622
0.00458218 0.0001244 -0.000202151
0.00483609 -2.02288e-05 -0.000150646
0.00459316 -0.000125262 -0.000224711
0.00445155 0.000178147 0.000368201
0.00451752 0.00019489 -0.000199644
0.00425028 -0.000121751 -0.000117038
0.00488841 8.15552e-05 -0.000184188
0.00434054 0.000252135 -5.37932e-05
0.00447789 -6.69622e-05 0.000176537
0.00438939 0.000159752 -0.000192328
0.0049055 0.00025849 0.000358432
0.00472672 0.000118207 -0.000190052
0.00482682 0.000195833 0.000403511
0.00453586 0.000321194 -0.000247815
0.00460427 -0.000195933 -5.36151e-05
0.00451553 0.000228472 5.66235e-05
0.0046174 -0.000128647 -0.000225951
0.00447127 0.000273326 7.68047e-05
0.00471052 -0.0001547 -0.000210293
0.00482158 -0.000248234 -2.05306e-05
0.004702 -0.000145206 -0.000213842
0.00449759 -7.26449e-05 -0.000231149
0.00444455 -4.63669e-05 -0.00021568
0.00440997 5.55458e-05 0.000157178
0.00477388 -0.000189075 -4.17919e-05
0.00452018 -2.61712e-05 0.000173681
0.00428988 -0.000154981 -8.65234e-05
0.00442627 -0.000134182 -0.000137606
0.00446185 0.000273799 7.7125e-05
0.00450402 0.000180446 -0.000198169
0.00448072 0.000141623 -0.000189388
0.00492457 4.9228e-05 -0.00016698
0.00457304 0.000146671 -0.000193796
0.00474126 0.000129918 -0.000204611
0.00484663 2.2421e-05 0.000143628
0.00487044 7.20152e-05 -0.000179959
0.00481295 -0.000229862 -0.000154303
0.00453781 3.9415e-06 0.000139969
0.00491502 8.76322e-05 -0.00018487
0.00495988 0.000115038 -4.84768e-05
0.00454945 0.000169052 -0.000192928
0.00492966 6.04027e-05 -0.000178302
0.00422104 -0.000922844 0.000267576
0.00496847 0.000153328 7.70608e-05
0.00492525 6.89223e-05 -0.00017475
0.00467135 -0.00102016 0.000294979
0.0042847 -0.000931525 0.000269883
0.00498228 0.000207609 0.000254497
0.00436728 -0.000956164 0.000274427
0.00451678 -0.000119523 8.80733e-06
0.00446224 7.76368e-06 0.000166858
0.00485095 0.000175803 0.000272858
0.0043663 -3.12693e-05 -0.000220828
6.8044e-15 2.29885e-14 -7.03249e-14
0.00431434 -0.000946773 0.000274079
0.00436506 0.000150571 -2.64506e-05
0.00448019 0.000159493 -0.000193706
0.00479166 -0.000245034 -1.10251e-05
0.00446794 4.59719e-05 -0.000160778
0.00449472 0.000178279 -0.000190047
0.00453114 0.00015518 -0.000194965
0.00438599 3.71115e-05 -0.000210225
0.00432129 0.000115605 0.000146926
0.00494251 8.61829e-05 -0.000166288
0.00457698 0.000137034 -0.000191546
0.00438283 -0.000954271 0.000271462
0.00453799 0.000200209 -0.000212324
0.00483889 -0.000129383 2.50264e-05
0.0045374 -9.7508e-05 -0.000243043
0.00435969 0.000102148 -0.000170945
0.00441539 0.00021578 -0.000198879
0.00439894 0.000214786 -0.000211127
0.00440893 5.35215e-05 -0.000159846
0.00474603 0.000127248 -0.000191034
0.00447122 0.000260439 -0.000222825
0.00436565 0.00015899 -0.000190643
0.00448344 0.000156148 -0.000286175
0.00456688 8.33641e-05 -0.000172616
0.00489842 9.10012e-05 -0.000186663
0.00471985 -9.37341e-05 -0.000140182
-1.28943e-14 6.08958e-14 -1.90218e-13
0.00437872 -0.000951892 0.000271157
0.00444501 0.000226824 0.00036107
0.00437916 -0.000953171 0.000271288
0.00439791 -0.000952982 0.000272626
0.00488106 9.56255e-05 -0.000188316
0.00495371 9.46446e-05 -0.000124177
0.00459986 7.53873e-05 -0.000172775
0.00432816 -2.05753e-05 0.000168537
0.00448178 0.000169449 -0.000194543
0.00455808 1.35594e-05 -0.000150779
0.00456837 0.000156948 -0.000196661
0.00443408 0.000230292 -0.000183324
0.00443235 2.01295e-05 0.00016781
0.00489609 9.33909e-05 -0.000187615
0.00482771 -5.14822e-05 -0.000143326
0.00477705 -0.000151866 -0.00021542
0.00457731 2.56735e-05 0.000166946
0.00460078 9.44743e-05 -0.000177566
0.0043904 2.13027e-05 0.000156322

VECTORS force float
-1.02188e-10 1.58466e-10 1.05294e-10
2.07082e-10 2.11522e-12 -3.65242e-11
1.209e-10 -7.18215e-11 -4.51093e-11
4.37386e-11 -1.22544e-10 7.71042e-12
-9.70896e-11 -2.38869e-10 2.17023e-10
8.90735e-12 1.78946e-11 6.32321e-11
1.03503e-10 2.67345e-10 -2.29988e-10
-4.66822e-11 -1.92594e-10 1.61804e-10
7.02172e-11 -5.56424e-11 -3.45157e-11
-1.74007e-10 -4.87266e-11 4.7618e-11
4.43541e-11 -5.32955e-11 3.89442e-11
-6.7812e-11 -5.29011e-11 -3.56619e-11
-5.85441e-11 3.9318e-11 -7.32157e-12
-4.09458e-11 2.07144e-11 -2.39674e-11
-1.51511e-10 1.18526e-10 -2.31266e-11
-1.01481e-10 -9.28535e-12 -2.55698e-10
3.6095e-11 2.3214e-11 2.46745e-12
-4.87138e-11 4.34273e-11 2.89514e-11
-1.55907e-10 -4.64777e-11 -3.83651e-10
-1.66178e-10 -2.4517e-10 2.05672e-10
1.11096e-11 1.53297e-11 -9.11595e-12
-1.37546e-10 2.76593e-11 -4.63822e-11
-5.6011e-11 6.97183e-11 -3.13937e-11
-8.70029e-12 1.0264e-10 -8.13272e-11
1.11722e-10 1.95942e-10 -1.57571e-10
-7.19958e-11 -8.12063e-11 2.01191e-11
-9.4188e-11 -1.07194e-10 1.84385e-11
9.34708e-11 1.98931e-11 1.70116e-11
-5.23389e-11 1.40032e-10 3.7837e-11
-7.08989e-12 -4.00573e-12 2.31273e-11
-1.54498e-10 -6.48e-11 8.12148e-11
-1.08277e-10 2.06062e-11 4.68206e-12
9.87476e-12 2.32369e-11 -8.11999e-12
2.61852e-10 2.33366e-10 -2.29324e-10
-1.17325e-10 1.24968e-10 -1.85074e-11
6.22809e-11 2.59398e-10 -2.14697e-10
-4.52567e-11 1.46131e-10 2.7434e-10
-1.35042e-10 -1.54891e-11 4.08537e-11
1.823e-10 -3.03793e-11 1.48258e-11
-4.07088e-12 1.81897e-11 -5.02691e-11
-4.24718e-10 8.30591e-11 -6.66279e-11
8.2444e-11 1.20232e-10 -8.361e-11
2.34756e-10 -1.11175e-10 7.26458e-11
7.84212e-11 1.58775e-10 -2.0142e-10
3.25567e-11 1.14058e-10 -9.6338e-11
-1.46023e-11 1.13225e-10 -3.854e-11
2.14522e-11 1.40907e-10 1.13202e-10
1.0675e-10 2.31558e-10 -7.42078e-11
-6.51223e-11 -8.98497e-11 1.10395e-10
-3.261e-11 1.07376e-10 -5.86806e-11
8.66334e-11 1.03281e-10 3.11448e-11
9.75671e-11 3.87499e-11 5.12828e-11
-1.00906e-10 6.42711e-11 -1.84309e-10
1.27044e-11 -2.1318e-10 1.49609e-10
2.00483e-10 1.35308e-10 -1.2779e-10
6.88071e-11 1.57223e-10 -6.70464e-11
-1.97551e-10 1.29569e-10 -1.42725e-10
-4.08982e-11 6.20749e-11 -1.0872e-10
-1.41476e-10 -1.74036e-10 5.37595e-11
-1.31102e-10 1.2564e-10 -2.41706e-11
-5.46996e-11 2.5508e-11 -4.73478e-11
1.73714e-10 3.07318e-10 -2.66257e-10
7.03486e-12 -3.35126e-11 1.17827e-11
-2.12411e-11 -1.62179e-11 -1.24534e-11
-4.62987e-11 -9.7539e-11 -1.47529e-10
-8.52153e-11 1.1625e-10 -9.70351e-11
-3.3062e-11 -4.9465e-11 4.95452e-11
4.9268e-11 2.03708e-10 -2.14458e-10
6.32538e-12 2.20058e-11 1.76849e-11
-1.39699e-11 -1.26104e-10 -6.74274e-12
-2.92882e-11 -7.54741e-11 1.05976e-10
-6.00457e-11 -5.22818e-11 9.90595e-11
-3.77531e-11 7.45112e-11 1.60236e-10
-4.71684e-10 1.92911e-10 -1.40253e-10
5.94181e-11 4.61754e-11 -9.07803e-11
-1.59179e-10 -1.40295e-10 1.75643e-10
-5.67293e-11 7.50145e-12 -2.37551e-11
-2.65931e-12 2.2077e-10 9.43022e-11
-1.87774e-11 1.67321e-10 -4.42766e-13
-6.98351e-11 5.60749e-12 -2.26885e-12
2.28073e-10 1.78238e-10 -1.68272e-10
2.87289e-11 1.54971e-11 1.6691e-11
-2.27349e-11 -9.22375e-11 6.43215e-11
-9.68079e-11 1.6219e-10 -1.54843e-10
-1.3798e-10 2.80545e-10 -2.22461e-10
-7.21015e-11 -1.87108e-11 5.19454e-11
-1.83926e-10 -7.20452e-11 7.26168e-11
5.76223e-11 -1.33844e-11 -2.21188e-12
-3.19709e-10 4.63945e-11 -9.96522e-12
7.38624e-11 -1.97882e-10 1.1978e-10
-1.04357e-10 3.02495e-11 -1.90607e-12
2.90135e-10 -3.16255e-10 6.66345e-11
-5.14826e-12 1.31562e-10 -4.03577e-11
-5.85463e-11 7.47915e-11 -4.57336e-11
-1.12349e-10 6.36007e-11 1.15854e-10
4.29208e-11 2.11499e-11 -3.96025e-11
5.07597e-11 -1.24295e-10 4.07424e-11
7.46268e-12 1.18645e-10 -9.50859e-11
-2.66771e-11 1.52365e-11 -8.39443e-12
-6.6274e-11 8.91745e-11 3.51651e-11
1.54421e-11 4.27839e-11 1.7618e-11
-2.70382e-11 -2.36094e-10 -1.27168e-10
-1.80329e-11 -7.21927e-11 7.55629e-11
-2.11481e-10 1.71506e-10 -1.69772e-10
3.83082e-11 -6.42392e-11 8.63606e-12
7.21792e-11 3.33905e-11 7.77069e-12
-5.11925e-11 -1.45534e-11 2.02451e-11
3.08735e-11 -2.41406e-10 -7.24212e-11
1.10372e-10 -2.20697e-11 4.26448e-12
-1.62968e-10 7.0715e-11 -1.13243e-10
5.75548e-11 -3.30371e-11 3.44473e-11
-2.5394e-10 1.49531e-10 -2.93112e-10
-1.57195e-10 -6.49834e-11 6.89265e-11
-1.70224e-10 -1.93379e-11 2.8347e-11
-4.61686e-10 -6.04262e-11 -1.99036e-10
-3.55037e-11 -3.34259e-11 -3.68058e-11
3.13788e-11 9.1577e-11 -1.90015e-11
5.72886e-11 7.00175e-12 -5.83588e-11
2.28101e-11 -1.64081e-10 2.13982e-10
-2.63399e-11 -1.01422e-10 1.55067e-11
-9.30319e-11 1.58086e-10 -1.86273e-10
1.11818e-10 3.57598e-11 5.06387e-11
2.10068e-10 1.45989e-10 2.57104e-10
-2.42264e-11 -1.05992e-10 1.82325e-10
3.48823e-10 2.17979e-10 -1.98078e-10
1.50959e-10 -1.90259e-10 -6.2927e-11
-1.48824e-10 -8.34756e-11 4.54648e-11
-1.51974e-10 -1.72791e-11 2.01367e-10
-1.24539e-10 -2.95266e-11 1.26027e-11
-7.18011e-11 -1.75516e-10 1.52473e-10
1.50267e-11 2.6576e-10 -2.22323e-10
-1.2153e-13 -1.47574e-11 9.98004e-12
1.75818e-10 -3.72369e-11 7.72408e-12
5.12525e-11 2.40526e-10 -1.96045e-10
-7.65238e-11 5.70434e-12 5.51252e-11
1.28649e-10 -2.05108e-10 -2.55252e-10
7.47222e-11 -2.46575e-11 2.51266e-11
-1.12993e-10 -5.26101e-12 1.48059e-11
-3.44855e-11 -4.86275e-11 5.66069e-11
-1.6237e-10 -7.62498e-11 7.67855e-11
-1.42924e-10 1.28774e-10 -9.48542e-11
4.54495e-11 -2.09364e-11 6.00945e-12
-2.22315e-10 3.89105e-11 -4.37306e-11
-3.68103e-10 2.06865e-10 -2.04405e-10
-2.20991e-11 -2.86402e-11 1.9537e-11
-9.31309e-11 5.70015e-11 -1.42655e-10
-2.08235e-12 3.80515e-11 5.11022e-11
-1.04017e-11 -1.31997e-10 3.76714e-11
2.25692e-10 -4.7278e-11 1.10474e-11
1.61797e-10 -3.52063e-10 1.23419e-10
-2.33452e-10 -6.41112e-11 4.90853e-11
-2.2641e-10 2.28905e-10 -6.43049e-11
-5.33103e-11 -9.1294e-11 8.64951e-11
-6.89222e-11 -1.48533e-10 -8.24158e-11
1.18152e-10 2.9429e-10 -2.51628e-10
6.86747e-11 -3.76521e-11 -1.50773e-10
1.14934e-10 1.23393e-10 -3.00071e-12
8.43259e-11 3.97863e-10 1.47617e-10
-1.97777e-11 -5.91389e-11 -7.7181e-11
-6.32328e-11 -2.01297e-11 6.15458e-11
-3.84735e-11 4.57727e-10 -2.13677e-10
-5.86135e-11 2.4639e-11 -3.3101e-12
-8.36534e-12 -8.69509e-11 1.55643e-11
2.72405e-10 -1.05536e-10 -1.73027e-10
-2.36714e-10 2.29601e-10 -1.45363e-10
-1.27097e-10 2.38222e-11 7.19371e-11
1.46093e-10 -3.32922e-11 6.92394e-12
-6.70269e-11 3.13467e-11 -3.66858e-11
2.07272e-10 1.08384e-10 1.19595e-11
-3.05245e-10 1.44094e-10 -1.22585e-09
1.47303e-10 1.49812e-10 -4.02569e-11
-2.02696e-10 2.44542e-10 -2.69104e-10
2.42866e-12 6.62913e-11 -1.53286e-12
-6.7262e-11 -9.17293e-11 -2.50113e-10
1.32126e-10 -1.527e-10 4.02176e-11
3.17589e-11 1.09217e-11 -1.53993e-11
2.18151e-10 7.62623e-12 1.1266e-10
-4.79244e-11 3.42725e-11 -2.26484e-11
-1.83324e-10 1.63061e-10 -1.73368e-10
-2.27233e-11 -7.04718e-10 4.5035e-10
1.30102e-10 -1.43753e-10 5.4259e-11
7.44755e-11 -1.51749e-11 -4.99807e-11
-2.12744e-10 1.93723e-10 -1.15426e-10
-1.00206e-10 4.36388e-10 -4.04949e-11
1.79796e-10 -1.03906e-10 2.55967e-11
1.17449e-10 5.17779e-11 -4.42246e-11
-2.91214e-11 9.30248e-11 -2.47865e-11
4.53157e-11 4.31864e-10 9.36234e-11
2.11706e-10 -1.50393e-10 1.9535e-10
-5.54622e-12 -1.65153e-10 4.81296e-11
1.27413e-10 3.29558e-11 -5.0126e-10
-7.08639e-11 1.69959e-10 -2.84595e-11
5.98654e-11 6.67527e-11 -1.96454e-11
3.7143e-12 5.51032e-11 -2.7999e-11
2.2459e-10 -1.08415e-10 2.68621e-11
5.23782e-11 5.12372e-11 -2.22125e-12
-1.96294e-10 5.97496e-11 1.55592e-10
-8.58764e-11 1.27001e-10 -2.19074e-10
2.38935e-10 -2.03326e-10 2.76643e-10
1.30226e-11 -4.45555e-11 4.0827e-11
1.49518e-11 3.58076e-11 9.32647e-13
-1.57946e-10 -4.05296e-11 4.31999e-11
1.12578e-10 2.49561e-11 -1.13234e-10
2.21926e-10 -5.93104e-11 4.72715e-11
-8.57852e-12 6.44437e-11 1.7779e-10
-2.15104e-10 2.55896e-11 1.19402e-10
-2.07278e-10 -1.03114e-10 -1.60891e-11
-8.5842e-11 -9.56585e-11 -3.80531e-10
-3.81374e-11 6.27127e-12 -5.20309e-12
-8.7864e-11 8.01992e-11 -6.78543e-11
-4.29169e-10 -1.27535e-10 1.56794e-10
6.92239e-12 3.71277e-11 -8.22024e-12
3.09657e-10 -1.60864e-10 3.62382e-11
-5.57769e-11 1.98859e-10 -7.55913e-11
3.23001e-11 2.21826e-11 -8.66255e-11
9.16749e-11 1.55178e-10 -5.41343e-11
9.95173e-11 8.63073e-12 -3.87519e-10
1.83388e-11 -9.36537e-11 -3.06899e-10
1.52859e-10 -4.56998e-11 2.98159e-13
-9.6879e-11 -1.12248e-10 7.46957e-11
-6.8577e-11 6.37853e-11 -3.04267e-11
1.35123e-10 -1.90348e-10 2.86515e-11
-7.23076e-11 -1.03166e-10 -1.54868e-10
3.13665e-11 -1.09914e-10 -6.70331e-12
-8.67765e-11 -4.88859e-12 3.32614e-12
-2.37907e-10 2.01229e-11 -9.57637e-12
-4.61979e-11 -2.38203e-10 -3.54383e-10
6.14855e-11 -1.73574e-10 2.03292e-11
-3.42127e-11 4.76399e-11 -2.49991e-11
1.31002e-11 9.68113e-11 -2.24397e-11
-1.59088e-11 -1.98488e-10 -2.95857e-10
-3.04933e-10 -2.96417e-12 2.56944e-11
-2.40289e-10 9.09905e-11 3.26432e-12
1.39241e-11 4.66079e-11 7.24469e-12
5.87907e-12 2.3175e-11 -1.57819e-10
-1.01057e-10 2.36098e-10 -1.91259e-10
7.85822e-24 -1.60266e-24 1.65436e-24
2.13732e-10 2.87553e-11 2.47518e-11
-3.23389e-10 -7.22085e-11 -4.73657e-10
1.32747e-10 1.45599e-10 -3.36801e-11
-1.28997e-10 1.34431e-10 -8.21813e-11
-2.85627e-10 3.6474e-10 -4.19085e-11
1.13463e-10 -8.71743e-11 -1.13173e-10
-4.85017e-11 -9.26316e-11 2.70411e-11
-4.89476e-10 -8.54858e-11 -7.57522e-10
-1.20563e-10 1.84083e-10 -4.50812e-11
1.09438e-11 -1.51921e-10 -5.29884e-11
2.40058e-11 2.09305e-11 -2.06117e-12
8.56642e-11 -9.08751e-12 1.33171e-11
3.6735e-11 -9.06277e-11 6.83594e-11
-4.08802e-11 1.06497e-10 -1.77459e-10
2.49913e-11 -6.45602e-11 -1.98544e-11
-2.31459e-10 -6.51019e-11 -3.96178e-10
-1.16921e-10 3.68534e-11 6.98081e-11
-3.97294e-11 6.83483e-10 -1.86543e-10
-4.44257e-11 4.74628e-11 -1.61712e-11
5.79268e-11 -1.684e-10 6.33068e-11
1.08521e-10 4.30818e-10 -6.90547e-11
1.09997e-10 1.41566e-11 -7.69769e-12
1.67778e-10 2.23165e-10 -1.4646e-10
-5.35414e-12 2.94194e-10 -1.06857e-10
-6.71896e-11 -2.07043e-10 7.02473e-11
8.71102e-11 -1.21694e-10 3.31414e-10
1.01058e-21 1.68745e-22 -1.26145e-23
-5.40969e-12 -2.0485e-12 1.07483e-12
-2.59049e-10 -1.61335e-10 -1.29944e-10
-1.38192e-11 -4.97809e-11 2.54268e-12
3.54649e-11 4.92832e-11 2.71144e-11
5.1986e-11 -3.22111e-11 1.08817e-11
-1.03258e-10 -7.51719e-11 -5.95485e-11
-1.02414e-10 3.09483e-10 -8.80123e-11
1.5242e-11 -2.53827e-10 5.53617e-11
9.5815e-11 -4.93889e-11 -3.0399e-11
-1.66539e-10 1.47908e-10 -2.89412e-11
-3.19722e-11 -7.70206e-11 2.90243e-11
4.73822e-11 2.90158e-10 -9.33895e-11
9.6536e-11 9.2443e-11 2.68871e-11
2.54837e-11 -2.1406e-10 5.67214e-11
-3.44134e-11 -1.50181e-10 9.48859e-11
-1.21392e-10 -3.01594e-11 3.62714e-11
-1.79065e-11 4.38128e-11 -2.65052e-12
-9.58588e-12 -8.67491e-11 2.71796e-11
1.55909e-11 -1.68556e-11 1.00453e-10
