# vtk DataFile Version 3.0
LIGGGHTS particles timestep 58200000
ASCII
DATASET POLYDATA
POINTS 283 float
0.27951 0.0163538 0.0077705
0.279842 0.0175937 0.00718767
0.279916 0.0180801 0.00694083
0.279896 0.0179834 0.00695599
0.279238 0.0154692 0.0088064
0.285567 0.0167096 0.00793585
0.279526 0.0160534 0.00812093
0.279218 0.0154057 0.00888083
0.285807 0.0175608 0.00712492
0.280212 0.0181868 0.00690423
0.279683 0.0166721 0.00749962
0.285765 0.0174188 0.00725929
0.280206 0.0177509 0.0070535
0.273213 0.0155847 0.0089956
0.280226 0.0178428 0.00701939
0.273453 0.0162303 0.00814655
0.285924 0.0181137 0.0070261
0.279839 0.0177074 0.00705849
0.279913 0.0172307 0.00724275
0.279259 0.0155328 0.00873198
0.279957 0.0182728 0.00692338
0.285725 0.017277 0.00739461
0.280073 0.0175358 0.00713065
0.285666 0.0170642 0.00759757
0.273478 0.016005 0.0084142
0.279797 0.0175239 0.00712657
0.285547 0.0166386 0.00800351
0.28004 0.0182176 0.00691588
0.280168 0.0175669 0.00712183
0.285587 0.0167804 0.0078682
0.279878 0.0177786 0.00712009
0.280246 0.0179346 0.00698531
0.285862 0.0178202 0.0070194
0.279532 0.0161183 0.00804509
0.280112 0.0177197 0.00706232
0.279338 0.0157829 0.00843918
0.27986 0.0173825 0.00718194
0.279988 0.0171697 0.00726922
0.280018 0.0181182 0.00690882
0.279903 0.0175655 0.00711411
0.285606 0.0168514 0.00780054
0.285686 0.0171352 0.00753
0.2793 0.0156599 0.00858309
0.279892 0.017141 0.00728132
0.285646 0.0169933 0.00766522
0.280017 0.0176888 0.00707108
0.27404 0.0186752 0.00698497
0.274048 0.0177947 0.00715494
0.280191 0.0180873 0.00692587
0.285626 0.0169223 0.00773289
0.273651 0.0165868 0.00775118
0.285745 0.017348 0.00732704
0.280015 0.0178624 0.00709336
0.279279 0.0155963 0.00865752
0.279757 0.0166042 0.00751222
0.279961 0.0178415 0.00701161
0.285705 0.017206 0.00746225
0.279566 0.0162463 0.00789531
0.274231 0.0182173 0.00708148
0.280266 0.0180265 0.0069512
0.273715 0.0164806 0.00785805
0.279841 0.0169634 0.00735769
0.285978 0.0179492 0.0070226
0.273685 0.0167215 0.00760744
0.285787 0.0174891 0.00719177
0.279345 0.0157178 0.00851488
0.279626 0.0168134 0.00742177
0.279777 0.0173204 0.00729116
0.285904 0.0180159 0.00702388
0.279998 0.0184681 0.00693754
0.273306 0.0157525 0.00876637
0.273499 0.016064 0.0083362
0.279881 0.017474 0.00714803
0.274245 0.018462 0.00703492
0.27377 0.0166821 0.00764278
0.273309 0.0158148 0.0086882
0.285842 0.0177225 0.00701493
0.27363 0.01652 0.0078228
0.28 0.0180258 0.00694318
0.285824 0.0176353 0.00706047
0.279781 0.0166934 0.00747384
0.279998 0.0175967 0.00710528
0.279704 0.0167547 0.00744724
0.279586 0.0163099 0.00782078
0.279945 0.01699 0.0073465
0.279957 0.0174132 0.00717336
0.279765 0.017024 0.00733138
0.280075 0.0179648 0.00696858
0.28001 0.0172603 0.00723279
0.279838 0.0172914 0.00721705
0.273836 0.0168814 0.00742918
0.279996 0.0177704 0.00712752
0.274143 0.017825 0.00715323
0.280036 0.0177809 0.00703686
0.280127 0.0173808 0.00719087
0.273754 0.0166147 0.00771473
0.274069 0.0178907 0.00713737
0.279627 0.0164371 0.00767183
0.273238 0.0156427 0.00891801
0.280131 0.0178117 0.00702816
0.279877 0.0178914 0.00699015
0.279977 0.0183704 0.00693045
0.279433 0.0160989 0.00806899
0.273518 0.016124 0.0082584
0.280139 0.0182539 0.00691325
0.273669 0.0166539 0.00767944
0.279819 0.0176154 0.00709265
0.279861 0.0176858 0.00715351
0.279664 0.0165839 0.00754267
0.274253 0.0183146 0.00706364
0.285527 0.0165677 0.00807116
0.280031 0.0173518 0.00719888
0.279896 0.016812 0.00742308
0.27967 0.0169927 0.00734462
0.27421 0.0186437 0.00699841
0.280158 0.0181291 0.00701057
0.280171 0.0179954 0.00695997
0.279739 0.0165239 0.00756911
0.273365 0.0159369 0.00854087
0.280233 0.0182853 0.00691136
0.273459 0.0159457 0.0084923
0.279431 0.0160346 0.00814551
0.274116 0.0186113 0.00700055
0.279732 0.0172514 0.00723369
0.27987 0.0170513 0.00731993
0.279978 0.0175047 0.00713944
0.279725 0.0168444 0.00740866
0.273981 0.018386 0.0070383
0.279568 0.0165464 0.00754503
0.279795 0.0171118 0.00729364
0.279801 0.0167834 0.00743515
0.280159 0.0183515 0.00692034
0.274166 0.0179206 0.00713583
0.279357 0.0158465 0.00836455
0.280053 0.0174434 0.00716494
0.279935 0.0173216 0.00720728
0.279607 0.0167233 0.0074605
0.273263 0.0157005 0.00884047
0.2799 0.0178706 0.00708525
0.279916 0.016902 0.00738437
0.279607 0.0163734 0.0077464
0.273892 0.0171226 0.007291
0.280285 0.0181196 0.00691659
0.273416 0.0161076 0.00830024
0.273536 0.0161858 0.00818182
0.274165 0.0184848 0.00709091
0.27998 0.0179338 0.00697732
0.274189 0.0180187 0.00711792
0.279966 0.01708 0.00730779
0.273969 0.017505 0.00720736
0.279746 0.0169365 0.00737591
0.27421 0.0181191 0.00709949
0.279711 0.0171616 0.00727198
0.274001 0.0184825 0.00702122
0.279821 0.0168734 0.00739643
0.273613 0.0164569 0.00789844
0.280092 0.0176277 0.0070965
0.273954 0.0180528 0.00717458
0.273587 0.0167038 0.00765268
0.280027 0.0179745 0.0070557
0.273941 0.0181933 0.0070735
0.279942 0.0177495 0.00704579
0.273957 0.0174074 0.00722562
0.273814 0.0176166 0.00717945
0.273434 0.016168 0.00822254
0.274098 0.0185063 0.00702002
0.273911 0.0172159 0.00726055
0.2738 0.0167469 0.00757274
0.280083 0.0184157 0.00692922
0.27419 0.0185466 0.00701626
0.279977 0.0181344 0.00699864
0.274158 0.0182829 0.00706564
0.280056 0.0178729 0.00700269
0.273716 0.0167921 0.00754378
0.273782 0.0170818 0.00728078
0.285883 0.0179181 0.00702251
0.27953 0.0164175 0.00769596
0.279491 0.0162901 0.00784512
0.273488 0.016361 0.00799937
0.279754 0.0173415 0.00719628
0.273859 0.0173792 0.00722685
0.280109 0.0178943 0.00708451
0.279395 0.0159734 0.00821596
0.2739 0.0180008 0.00710893
0.273855 0.0169543 0.00736348
0.279643 0.0165044 0.00759979
0.274021 0.0185787 0.00700274
0.273975 0.0181494 0.00715659
0.273376 0.0159892 0.00845635
0.273838 0.0172825 0.00724456
0.274046 0.0179621 0.00720357
0.280187 0.0176589 0.00708766
0.273878 0.0179047 0.00712639
0.273567 0.0166275 0.00771427
0.273934 0.0173117 0.00724308
0.273736 0.0165475 0.00778648
0.274135 0.0187078 0.00698279
0.273396 0.0160486 0.00837825
0.279913 0.0179655 0.00705295
0.279548 0.0164814 0.00762134
0.285965 0.0183094 0.00703052
0.279648 0.016903 0.0073832
0.273591 0.0163862 0.00796573
0.279587 0.0166332 0.00749929
0.279547 0.0161825 0.00796995
0.279452 0.0161626 0.00799438
0.280308 0.0182162 0.00690215
0.27347 0.0162959 0.00807319
0.28015 0.0179037 0.006994
0.273553 0.0162522 0.00810906
0.273332 0.0158738 0.00861075
0.285945 0.0182116 0.00702831
0.273793 0.0175204 0.00719673
0.274026 0.0176986 0.00717253
0.273731 0.0168532 0.00746604
0.27395 0.0177736 0.00715477
0.273931 0.0179571 0.00719316
0.273531 0.0165035 0.00786631
0.273864 0.0170267 0.00729497
0.279816 0.0172015 0.00725511
0.279923 0.0176575 0.00707996
0.273707 0.0171463 0.00729598
0.273643 0.0168897 0.00743383
0.273791 0.0174862 0.00729067
0.27375 0.0169212 0.00739537
0.267739 0.0172828 0.00725923
0.273627 0.0168239 0.00750743
0.27377 0.0169998 0.00733686
0.267718 0.0171985 0.00730848
0.267761 0.0173671 0.00720999
0.273608 0.0167842 0.00759714
0.267802 0.0175362 0.00711125
0.280148 0.0174747 0.00715608
0.279776 0.0174324 0.00716048
0.273546 0.0165608 0.00778584
0.279386 0.0159087 0.00829162
0.215741 0.019982 0.00563384
0.267782 0.0174515 0.00716074
0.27408 0.0183708 0.00704534
0.274005 0.0176025 0.00719011
0.273571 0.0163194 0.00803729
0.273995 0.0179734 0.00711825
0.273842 0.0175738 0.00726545
0.273928 0.0176774 0.00717237
0.274058 0.0182709 0.00706367
0.280094 0.0180585 0.00693374
0.273687 0.0170568 0.00733578
0.273857 0.0178087 0.00714402
0.267838 0.017706 0.00701195
0.273771 0.0174244 0.00721459
0.273508 0.0164284 0.00792812
0.279472 0.0162264 0.00791974
0.274178 0.0183886 0.00704618
0.273961 0.0182897 0.00705579
0.274315 0.0183921 0.00705141
0.274094 0.0179879 0.00711973
0.273791 0.0173856 0.00730454
0.27392 0.0180971 0.00709133
0.273971 0.0178701 0.00713711
0.274067 0.0180588 0.00718489
0.274038 0.0181711 0.007082
0.27375 0.0173285 0.00723342
0.279819 0.0175006 0.00722143
0.404182 0.0211142 0.0056569
0.267878 0.0178995 0.0069824
0.27406 0.018772 0.00696901
0.267858 0.0178027 0.0069971
0.26782 0.0176211 0.0070616
0.27381 0.0171764 0.00726378
0.273663 0.0169677 0.0073747
0.274017 0.0180742 0.00709976
0.280119 0.0181563 0.00692279
0.273907 0.0175813 0.00718995
0.274116 0.0180853 0.00710194
0.273835 0.0177126 0.00716157
0.273997 0.0182456 0.00713799
0.280062 0.0183177 0.0069221
0.273728 0.0172322 0.00724948
0.273816 0.0168145 0.00750073
0.279691 0.0170904 0.00733926
0.279858 0.0177994 0.00702432
0.274137 0.018185 0.00708361
0.279936 0.0181751 0.00691699

VERTICES 283 566
1 0
1 1
1 2
1 3
1 4
1 5
1 6
1 7
1 8
1 9
1 10
1 11
1 12
1 13
1 14
1 15
1 16
1 17
1 18
1 19
1 20
1 21
1 22
1 23
1 24
1 25
1 26
1 27
1 28
1 29
1 30
1 31
1 32
1 33
1 34
1 35
1 36
1 37
1 38
1 39
1 40
1 41
1 42
1 43
1 44
1 45
1 46
1 47
1 48
1 49
1 50
1 51
1 52
1 53
1 54
1 55
1 56
1 57
1 58
1 59
1 60
1 61
1 62
1 63
1 64
1 65
1 66
1 67
1 68
1 69
1 70
1 71
1 72
1 73
1 74
1 75
1 76
1 77
1 78
1 79
1 80
1 81
1 82
1 83
1 84
1 85
1 86
1 87
1 88
1 89
1 90
1 91
1 92
1 93
1 94
1 95
1 96
1 97
1 98
1 99
1 100
1 101
1 102
1 103
1 104
1 105
1 106
1 107
1 108
1 109
1 110
1 111
1 112
1 113
1 114
1 115
1 116
1 117
1 118
1 119
1 120
1 121
1 122
1 123
1 124
1 125
1 126
1 127
1 128
1 129
1 130
1 131
1 132
1 133
1 134
1 135
1 136
1 137
1 138
1 139
1 140
1 141
1 142
1 143
1 144
1 145
1 146
1 147
1 148
1 149
1 150
1 151
1 152
1 153
1 154
1 155
1 156
1 157
1 158
1 159
1 160
1 161
1 162
1 163
1 164
1 165
1 166
1 167
1 168
1 169
1 170
1 171
1 172
1 173
1 174
1 175
1 176
1 177
1 178
1 179
1 180
1 181
1 182
1 183
1 184
1 185
1 186
1 187
1 188
1 189
1 190
1 191
1 192
1 193
1 194
1 195
1 196
1 197
1 198
1 199
1 200
1 201
1 202
1 203
1 204
1 205
1 206
1 207
1 208
1 209
1 210
1 211
1 212
1 213
1 214
1 215
1 216
1 217
1 218
1 219
1 220
1 221
1 222
1 223
1 224
1 225
1 226
1 227
1 228
1 229
1 230
1 231
1 232
1 233
1 234
1 235
1 236
1 237
1 238
1 239
1 240
1 241
1 242
1 243
1 244
1 245
1 246
1 247
1 248
1 249
1 250
1 251
1 252
1 253
1 254
1 255
1 256
1 257
1 258
1 259
1 260
1 261
1 262
1 263
1 264
1 265
1 266
1 267
1 268
1 269
1 270
1 271
1 272
1 273
1 274
1 275
1 276
1 277
1 278
1 279
1 280
1 281
1 282

POINT_DATA 283
SCALARS id int 1
LOOKUP_TABLE default
1
2
3
4
5
6
7
8
9
10
11
12
13
14
15
16
18
19
20
21
22
24
25
26
27
29
30
31
32
33
34
35
36
37
38
40
41
42
43
44
45
46
47
48
49
50
52
55
56
57
58
59
60
61
62
63
64
65
66
67
68
69
70
71
72
73
74
75
76
77
78
79
80
81
82
83
84
85
86
87
88
89
90
91
92
93
94
95
96
98
99
100
101
102
103
104
105
106
107
108
109
110
111
112
113
114
115
116
117
118
119
120
121
122
123
124
125
126
127
128
129
130
131
132
133
134
135
136
137
138
139
140
141
142
144
145
146
147
148
149
150
152
153
154
155
156
157
158
159
160
161
162
164
165
166
167
168
169
170
171
172
173
174
175
176
177
178
179
180
181
182
183
184
185
186
187
188
189
190
191
192
193
194
195
196
197
198
199
200
201
202
203
204
205
206
207
208
209
210
211
213
214
215
217
218
219
220
221
222
223
224
225
226
227
228
229
230
231
232
233
234
235
236
237
238
239
241
242
243
244
245
246
247
248
249
250
251
252
253
254
255
256
257
258
259
260
261
262
263
264
265
267
268
269
270
271
272
273
274
275
276
277
278
279
280
281
282
283
284
285
286
287
288
289
290
292
293
294
295
296
297
298
300

SCALARS type int 1
LOOKUP_TABLE default
1
1
1
1
1
1
1
1
1
1
1
1
1
1
1
1
1
1
1
1
1
1
1
1
1
1
1
1
1
1
1
1
1
1
1
1
1
1
1
1
1
1
1
1
1
1
1
1
1
1
1
1
1
1
1
1
1
1
1
1
1
1
1
1
1
1
1
1
1
1
1
1
1
1
1
1
1
1
1
1
1
1
1
1
1
1
1
1
1
1
1
1
1
1
1
1
1
1
1
1
1
1
1
1
1
1
1
1
1
1
1
1
1
1
1
1
1
1
1
1
1
1
1
1
1
1
1
1
1
1
1
1
1
1
1
1
1
1
1
1
1
1
1
1
1
1
1
1
1
1
1
1
1
1
1
1
1
1
1
1
1
1
1
1
1
1
1
1
1
1
1
1
1
1
1
1
1
1
1
1
1
1
1
1
1
1
1
1
1
1
1
1
1
1
1
1
1
1
1
1
1
1
1
1
1
1
1
1
1
1
1
1
1
1
1
1
1
1
1
1
1
1
1
1
1
1
1
1
1
1
1
1
1
1
1
1
1
1
1
1
1
1
1
1
1
1
1
1
1
1
1
1
1
1
1
1
1
1
1
1
1
1
1
1
1
1
1
1
1
1
1
1
1
1
1
1
1
1
1
1
1
1
1

SCALARS radius float 1
LOOKUP_TABLE default
5e-05
5e-05
5e-05
5e-05
5e-05
5e-05
5e-05
5e-05
5e-05
5e-05
5e-05
5e-05
5e-05
5e-05
5e-05
5e-05
5e-05
5e-05
5e-05
5e-05
5e-05
5e-05
5e-05
5e-05
5e-05
5e-05
5e-05
5e-05
5e-05
5e-05
5e-05
5e-05
5e-05
5e-05
5e-05
5e-05
5e-05
5e-05
5e-05
5e-05
5e-05
5e-05
5e-05
5e-05
5e-05
5e-05
5e-05
5e-05
5e-05
5e-05
5e-05
5e-05
5e-05
5e-05
5e-05
5e-05
5e-05
5e-05
5e-05
5e-05
5e-05
5e-05
5e-05
5e-05
5e-05
5e-05
5e-05
5e-05
5e-05
5e-05
5e-05
5e-05
5e-05
5e-05
5e-05
5e-05
5e-05
5e-05
5e-05
5e-05
5e-05
5e-05
5e-05
5e-05
5e-05
5e-05
5e-05
5e-05
5e-05
5e-05
5e-05
5e-05
5e-05
5e-05
5e-05
5e-05
5e-05
5e-05
5e-05
5e-05
5e-05
5e-05
5e-05
5e-05
5e-05
5e-05
5e-05
5e-05
5e-05
5e-05
5e-05
5e-05
5e-05
5e-05
5e-05
5e-05
5e-05
5e-05
5e-05
5e-05
5e-05
5e-05
5e-05
5e-05
5e-05
5e-05
5e-05
5e-05
5e-05
5e-05
5e-05
5e-05
5e-05
5e-05
5e-05
5e-05
5e-05
5e-05
5e-05
5e-05
5e-05
5e-05
5e-05
5e-05
5e-05
5e-05
5e-05
5e-05
5e-05
5e-05
5e-05
5e-05
5e-05
5e-05
5e-05
5e-05
5e-05
5e-05
5e-05
5e-05
5e-05
5e-05
5e-05
5e-05
5e-05
5e-05
5e-05
5e-05
5e-05
5e-05
5e-05
5e-05
5e-05
5e-05
5e-05
5e-05
5e-05
5e-05
5e-05
5e-05
5e-05
5e-05
5e-05
5e-05
5e-05
5e-05
5e-05
5e-05
5e-05
5e-05
5e-05
5e-05
5e-05
5e-05
5e-05
5e-05
5e-05
5e-05
5e-05
5e-05
5e-05
5e-05
5e-05
5e-05
5e-05
5e-05
5e-05
5e-05
5e-05
5e-05
5e-05
5e-05
5e-05
5e-05
5e-05
5e-05
5e-05
5e-05
5e-05
5e-05
5e-05
5e-05
5e-05
5e-05
5e-05
5e-05
5e-05
5e-05
5e-05
5e-05
5e-05
5e-05
5e-05
5e-05
5e-05
5e-05
5e-05
5e-05
5e-05
5e-05
5e-05
5e-05
5e-05
5e-05
5e-05
5e-05
5e-05
5e-05
5e-05
5e-05
5e-05
5e-05
5e-05
5e-05
5e-05
5e-05
5e-05
5e-05
5e-05
5e-05
5e-05
5e-05
5e-05
5e-05
5e-05
5e-05
5e-05
5e-05
5e-05
5e-05
5e-05
5e-05
5e-05
5e-05
5e-05
5e-05
5e-05
5e-05
5e-05
5e-05
5e-05
5e-05
5e-05

SCALARS mass float 1
LOOKUP_TABLE default
1.46608e-10
1.46608e-10
1.46608e-10
1.46608e-10
1.46608e-10
1.46608e-10
1.46608e-10
1.46608e-10
1.46608e-10
1.46608e-10
1.46608e-10
1.46608e-10
1.46608e-10
1.46608e-10
1.46608e-10
1.46608e-10
1.46608e-10
1.46608e-10
1.46608e-10
1.46608e-10
1.46608e-10
1.46608e-10
1.46608e-10
1.46608e-10
1.46608e-10
1.46608e-10
1.46608e-10
1.46608e-10
1.46608e-10
1.46608e-10
1.46608e-10
1.46608e-10
1.46608e-10
1.46608e-10
1.46608e-10
1.46608e-10
1.46608e-10
1.46608e-10
1.46608e-10
1.46608e-10
1.46608e-10
1.46608e-10
1.46608e-10
1.46608e-10
1.46608e-10
1.46608e-10
1.46608e-10
1.46608e-10
1.46608e-10
1.46608e-10
1.46608e-10
1.46608e-10
1.46608e-10
1.46608e-10
1.46608e-10
1.46608e-10
1.46608e-10
1.46608e-10
1.46608e-10
1.46608e-10
1.46608e-10
1.46608e-10
1.46608e-10
1.46608e-10
1.46608e-10
1.46608e-10
1.46608e-10
1.46608e-10
1.46608e-10
1.46608e-10
1.46608e-10
1.46608e-10
1.46608e-10
1.46608e-10
1.46608e-10
1.46608e-10
1.46608e-10
1.46608e-10
1.46608e-10
1.46608e-10
1.46608e-10
1.46608e-10
1.46608e-10
1.46608e-10
1.46608e-10
1.46608e-10
1.46608e-10
1.46608e-10
1.46608e-10
1.46608e-10
1.46608e-10
1.46608e-10
1.46608e-10
1.46608e-10
1.46608e-10
1.46608e-10
1.46608e-10
1.46608e-10
1.46608e-10
1.46608e-10
1.46608e-10
1.46608e-10
1.46608e-10
1.46608e-10
1.46608e-10
1.46608e-10
1.46608e-10
1.46608e-10
1.46608e-10
1.46608e-10
1.46608e-10
1.46608e-10
1.46608e-10
1.46608e-10
1.46608e-10
1.46608e-10
1.46608e-10
1.46608e-10
1.46608e-10
1.46608e-10
1.46608e-10
1.46608e-10
1.46608e-10
1.46608e-10
1.46608e-10
1.46608e-10
1.46608e-10
1.46608e-10
1.46608e-10
1.46608e-10
1.46608e-10
1.46608e-10
1.46608e-10
1.46608e-10
1.46608e-10
1.46608e-10
1.46608e-10
1.46608e-10
1.46608e-10
1.46608e-10
1.46608e-10
1.46608e-10
1.46608e-10
1.46608e-10
1.46608e-10
1.46608e-10
1.46608e-10
1.46608e-10
1.46608e-10
1.46608e-10
1.46608e-10
1.46608e-10
1.46608e-10
1.46608e-10
1.46608e-10
1.46608e-10
1.46608e-10
1.46608e-10
1.46608e-10
1.46608e-10
1.46608e-10
1.46608e-10
1.46608e-10
1.46608e-10
1.46608e-10
1.46608e-10
1.46608e-10
1.46608e-10
1.46608e-10
1.46608e-10
1.46608e-10
1.46608e-10
1.46608e-10
1.46608e-10
1.46608e-10
1.46608e-10
1.46608e-10
1.46608e-10
1.46608e-10
1.46608e-10
1.46608e-10
1.46608e-10
1.46608e-10
1.46608e-10
1.46608e-10
1.46608e-10
1.46608e-10
1.46608e-10
1.46608e-10
1.46608e-10
1.46608e-10
1.46608e-10
1.46608e-10
1.46608e-10
1.46608e-10
1.46608e-10
1.46608e-10
1.46608e-10
1.46608e-10
1.46608e-10
1.46608e-10
1.46608e-10
1.46608e-10
1.46608e-10
1.46608e-10
1.46608e-10
1.46608e-10
1.46608e-10
1.46608e-10
1.46608e-10
1.46608e-10
1.46608e-10
1.46608e-10
1.46608e-10
1.46608e-10
1.46608e-10
1.46608e-10
1.46608e-10
1.46608e-10
1.46608e-10
1.46608e-10
1.46608e-10
1.46608e-10
1.46608e-10
1.46608e-10
1.46608e-10
1.46608e-10
1.46608e-10
1.46608e-10
1.46608e-10
1.46608e-10
1.46608e-10
1.46608e-10
1.46608e-10
1.46608e-10
1.46608e-10
1.46608e-10
1.46608e-10
1.46608e-10
1.46608e-10
1.46608e-10
1.46608e-10
1.46608e-10
1.46608e-10
1.46608e-10
1.46608e-10
1.46608e-10
1.46608e-10
1.46608e-10
1.46608e-10
1.46608e-10
1.46608e-10
1.46608e-10
1.46608e-10
1.46608e-10
1.46608e-10
1.46608e-10
1.46608e-10
1.46608e-10
1.46608e-10
1.46608e-10
1.46608e-10
1.46608e-10
1.46608e-10
1.46608e-10
1.46608e-10
1.46608e-10
1.46608e-10
1.46608e-10
1.46608e-10
1.46608e-10
1.46608e-10
1.46608e-10
1.46608e-10
1.46608e-10
1.46608e-10
1.46608e-10
1.46608e-10
1.46608e-10
1.46608e-10
1.46608e-10
1.46608e-10
1.46608e-10

VECTORS velocity float
0.00447928 0.000180785 -0.00026925
0.00484893 0.000231706 7.87077e-05
0.00465391 0.000253785 7.02383e-05
0.00461198 0.000255184 3.72339e-05
0.00453774 0.000192861 -0.000283489
0.00435032 -0.000439159 -0.000377791
0.00439354 0.00017885 -0.000265611
0.00452578 0.00019531 -0.000286121
0.00457533 -0.000394272 -0.000247175
0.00460725 0.000265503 -0.000188003
0.00451273 0.000247376 -0.000138781
0.00466589 -0.000523336 -0.000369459
0.00458894 0.000399186 -8.28635e-06
0.00448932 -0.000549505 -0.00031071
0.00466419 0.0003808 1.1831e-06
0.00423196 -0.000463248 -0.000133105
0.00443295 -0.000227126 4.45097e-06
0.00444187 0.000320628 1.6437e-05
0.00500758 0.000169341 -0.000134703
0.00453562 0.000190716 -0.000280995
0.00466032 0.000279937 -0.00024038
0.00468164 -0.000506552 -0.000388694
0.00482433 0.000320627 2.85529e-05
0.00454584 -0.000474301 -0.00038177
0.00469045 -0.000766627 -8.53444e-05
0.00494514 0.000175837 8.35868e-05
0.00431633 -0.000425246 -0.000383979
0.00464222 0.000250279 -8.10682e-05
0.00476322 0.000521354 -4.92618e-05
0.0044171 -0.000461138 -0.000369644
0.00457977 0.00033582 2.22034e-05
0.0047763 0.000362984 1.09495e-05
0.00444107 -0.000234825 -4.24061e-05
0.00441163 0.000178271 -0.000264844
0.00455655 0.000383497 -3.7195e-06
0.00438652 0.000184731 -0.000275312
0.00500905 0.00023586 6.37467e-05
0.00496823 0.000155416 -5.33685e-05
0.00472545 0.000238158 8.01398e-05
0.00486652 0.000233067 6.71849e-05
0.00443956 -0.000461574 -0.00037288
0.00459689 -0.00048247 -0.000385409
0.00456641 0.000183472 -0.000272221
0.00497571 0.000180664 -6.90007e-05
0.00449456 -0.000468819 -0.000376371
0.00460314 0.000397353 -3.48313e-06
0.00434264 -0.000158383 0.000223387
0.00467551 9.62017e-05 0.000184025
0.00465373 0.000278777 4.58927e-05
0.00444933 -0.00046728 -0.000374209
0.00467931 -0.000359267 4.93219e-05
0.00473848 -0.000524982 -0.000385408
0.00455589 0.000325861 1.25889e-05
0.00454754 0.000187058 -0.000276884
0.00455813 0.000249362 -9.60968e-05
0.00455786 0.000281381 3.4029e-05
0.0046262 -0.000486238 -0.000384204
0.00446182 0.000171661 -0.000257377
0.00434326 -0.00013656 0.000214596
0.00475976 0.000372696 4.83671e-06
0.00468685 -0.000352789 4.54568e-05
0.00495604 0.000185689 -6.66462e-05
0.00442598 -0.00022994 8.53992e-06
0.00468801 -0.000345483 4.04197e-05
0.00458799 -0.000517756 -0.000372318
0.0045215 0.000193358 -0.000284813
0.0049488 0.00018833 -6.7977e-05
0.00504099 0.000101651 2.18218e-06
0.00442717 -0.000233309 9.03175e-06
0.00442453 0.000346479 -0.000166659
0.00478671 -0.000693339 -0.000203115
0.00445727 -0.000729255 -0.000130699
0.00496431 0.000235977 6.52659e-05
0.00453891 -9.93203e-05 0.000211694
0.00470929 -0.000379978 7.2544e-05
0.00475694 -0.000684312 -0.000179144
0.00443338 -0.000228706 -9.2851e-05
0.00464101 -0.000381815 4.43286e-05
0.00466203 0.000254296 4.46849e-05
0.00443062 -0.000279506 -0.000170101
0.00467868 0.00022278 -8.31346e-05
0.00478146 0.000355991 1.77695e-05
0.00467285 0.000238414 -9.02267e-05
0.00448326 0.000169326 -0.000255321
0.00493439 0.000168541 -5.93045e-05
0.00499242 0.000260041 5.69401e-05
0.00497085 0.000188795 -6.86927e-05
0.00465684 0.000273141 4.47134e-05
0.0049491 0.000196345 7.93553e-05
0.00501342 0.000191728 -9.2916e-05
0.00476671 -0.000381281 0.000151612
0.00455574 0.000332394 2.99762e-05
0.00476546 5.94624e-05 0.000194554
0.00456674 0.000313408 2.50785e-05
0.00488422 0.000272614 4.88693e-05
0.00468582 -0.000363731 5.60452e-05
0.00474282 4.27673e-05 0.000196998
0.00451272 0.00016628 -0.000252434
0.00470236 -0.00063215 -0.000252257
0.00457307 0.000326372 1.79847e-05
0.00458182 0.000281354 3.4758e-05
0.00466582 0.000304558 -0.000180833
0.00440878 0.000192238 -0.000280963
0.0042322 -0.00061421 -0.000110104
0.0046361 0.000275565 -0.000167731
0.00467504 -0.000344251 4.22496e-05
0.0048668 0.000191631 7.54632e-05
0.00451871 0.000306953 -2.10867e-05
0.00453416 0.000219462 -0.000185305
0.0044099 8.29741e-05 0.000175288
0.00426372 -0.000406426 -0.000391755
0.00492804 0.000195086 7.97718e-05
0.0048674 0.000173942 -6.20204e-05
0.00496392 0.000187562 -6.75072e-05
0.0043516 -0.00016553 0.000220416
0.00467541 0.000371112 2.41545e-05
0.00464136 0.000278747 4.12922e-05
0.00450931 0.000160825 -0.000244647
0.00488888 -0.000797047 -0.000188994
0.00461158 0.000283704 -0.000199536
0.00481268 -0.000801104 -6.71067e-05
0.00439057 0.000192504 -0.000279669
0.00435314 -0.000137856 0.000218014
0.00497333 0.000189548 -2.5044e-05
0.00495094 0.00018512 -6.72607e-05
0.00482952 0.000221325 6.75529e-05
0.00486512 0.000200548 -7.39458e-05
0.00446811 -0.000182996 0.000209484
0.00454774 0.000179855 -0.000268071
0.00497871 0.000194572 -7.36716e-05
0.00485818 0.000188379 -6.81252e-05
0.00440145 0.000318495 -0.00018173
0.00460597 0.000176003 0.000166106
0.00434939 0.000193191 -0.000280287
0.00483518 0.000242325 5.85971e-05
0.00500179 0.000244182 6.19563e-05
0.00450709 0.000272027 -0.000104601
0.00483302 -0.000693108 -0.000206536
0.00458476 0.000338731 3.64694e-05
0.00495038 0.000165604 -5.83888e-05
0.00449309 0.000168792 -0.00025425
0.00487517 -0.000348956 -3.8865e-05
0.00461582 0.000322458 2.10819e-05
0.00455423 -0.000631473 -0.000150427
0.00422923 -0.000422318 2.66165e-05
0.00451345 -0.000138842 0.00021194
0.00461394 0.000258062 4.2076e-05
0.00449824 0.000355364 0.00012575
0.00495547 0.000159416 -5.46278e-05
0.00480781 -0.000250218 0.000256957
0.00496183 0.000183478 -6.63498e-05
0.00447282 0.000165536 0.000163438
0.0049711 0.000179834 -6.35289e-05
0.00447958 -0.00018247 0.000212795
0.00495514 0.000168496 -5.96096e-05
0.004521 -0.000373404 4.01846e-05
0.00470514 0.000398121 -4.67011e-06
0.0044687 -0.000137526 0.000209725
0.0046834 -0.0003088 2.24764e-05
0.00459251 0.00031088 3.21911e-05
0.0044001 -0.000189122 0.000230093
0.00456531 0.000286504 3.50508e-05
0.00482743 -0.000250373 0.000257734
0.00478022 -0.000280519 0.000259099
0.00432247 -0.000520296 -0.000135534
0.0044822 -0.000163374 0.000221462
0.00485865 -0.000252005 0.000257899
0.00472303 -0.000397009 8.51712e-05
0.00428189 0.000214291 -0.000183988
0.0044101 -8.82339e-05 0.000207468
0.00461433 0.000326793 7.78244e-05
0.0044471 -2.74856e-05 0.000198065
0.00463125 0.00029068 3.44289e-05
0.00473681 -0.000366949 5.18354e-05
0.00479393 -0.000290685 0.000258983
0.00443077 -0.000240834 1.20979e-06
0.00450025 0.000179107 -0.000263983
0.00446755 0.000183728 -0.000272198
0.00445045 -0.000302907 1.2601e-05
0.00498505 0.00020571 4.17297e-05
0.00480662 -0.000268877 0.000260028
0.00457776 0.0002677 2.0944e-05
0.00437543 0.000194992 -0.000282925
0.00453617 -0.00022884 0.000226417
0.00478482 -0.000335272 0.000215058
0.0045305 0.000186435 -0.000230906
0.00440081 -0.000168666 0.000222709
0.00440763 -0.000218738 0.00023039
0.00485292 -0.000736605 -0.0001587
0.00484619 -0.000264286 0.000261859
0.00463416 9.57347e-05 0.000190597
0.00468892 0.000396 -4.2363e-06
0.00473057 -0.000270189 0.000253587
0.0046591 -0.000305415 7.24349e-06
0.00484119 -0.000250849 0.000257887
0.00467321 -0.000357786 4.9389e-05
0.00433964 -0.00016675 0.000223435
0.00476748 -0.000710465 -0.000146497
0.00464904 0.000287419 5.68809e-05
0.00452556 0.000181578 -0.000255082
0.00443293 -0.000230588 6.92189e-06
0.00495617 0.000187542 -6.80008e-05
0.0044463 -0.000358557 6.19168e-05
0.00452635 0.000269263 -0.000104516
0.00443601 0.000175208 -0.000261734
0.00442211 0.000190693 -0.000279672
0.00461345 0.000238099 -0.000202406
0.00432438 -0.000360296 -4.23274e-05
0.0046171 0.000281352 3.88377e-05
0.00428476 -0.000349912 8.29558e-05
0.00473459 -0.000636172 -0.000131379
0.00443439 -0.000227809 5.88937e-06
0.00479644 -0.000280472 0.000264432
0.00469321 9.98932e-05 0.000184038
0.00479786 -0.000382741 6.67991e-05
0.00474969 -0.00025009 0.000253901
0.0046578 -0.000180391 0.000218374
0.00455394 -0.000296359 1.02205e-05
0.00478696 -0.000303345 0.000257791
0.00499595 0.000195711 -8.93164e-05
0.00469281 0.000254068 4.95359e-05
0.00480892 -0.000281824 0.000249885
0.00480412 -0.000360357 4.26346e-05
0.00482672 -0.000265578 0.000267053
0.00482418 -0.000365272 0.000112839
0.00497763 0.000316796 -8.17846e-05
0.00470455 -0.000332039 3.24226e-05
0.00480671 -0.000314734 0.000204607
0.00496227 0.000318613 -8.26436e-05
0.004994 0.000315748 -8.00514e-05
0.00469471 -0.000308777 3.05061e-05
0.00454663 0.000386328 -0.000129559
0.00492439 0.000427012 -8.27913e-06
0.00498654 0.000204111 7.57858e-05
0.00459712 -0.000288172 7.2896e-06
0.00438398 0.00018943 -0.000277733
6.80315e-15 2.29897e-14 -7.03246e-14
0.0050078 0.000312712 -7.85638e-05
0.00447156 -0.000147953 0.000222758
0.00471664 8.76844e-05 0.000187559
0.00437689 -0.000358132 7.26753e-05
0.00459555 -3.56336e-05 0.000202754
0.00479152 -0.000265951 0.000259984
0.00476738 -0.000249324 0.000254279
0.0044599 -0.000135689 0.000219616
0.00471468 0.000207874 7.4113e-05
0.00478954 -0.000291182 0.000207138
0.00473934 -0.000275206 0.00025783
0.00462481 0.000366992 -0.000119886
0.00480622 -0.000278451 0.000278187
0.00451329 -0.000302663 9.89667e-06
0.00444889 0.000187637 -0.000276382
0.00445288 -4.73687e-05 0.000202948
0.00445068 -0.000184196 0.000228834
0.00460242 -6.21183e-05 0.000211739
0.00457278 0.000155226 0.000167527
0.00485186 -0.000276295 0.000270279
0.00438771 -0.00019121 0.000220694
0.00478032 -0.000174418 0.000239892
0.00449024 0.000108954 0.000174921
0.00443498 -0.000135621 0.00022344
0.00483372 -0.000282276 0.000279082
0.00496468 0.000206075 7.54798e-05
-1.29574e-14 6.08747e-14 -1.90221e-13
0.00465607 0.00037866 -0.000123032
0.00435862 -0.000174031 0.000106546
0.00463529 0.000376755 -0.000122401
0.00458147 0.000374601 -0.00012358
0.00483185 -0.000315165 0.000271367
0.00482596 -0.0003441 8.87239e-05
0.00441798 -1.94963e-05 0.000197045
0.00464722 0.000279941 1.09123e-05
0.00479024 -0.000263584 0.000257963
0.00438267 0.000231183 0.000146114
0.00475678 -0.000277876 0.000258262
0.00447099 -0.000224723 0.000199611
0.00466856 0.000301514 -0.00018193
0.00484819 -0.000285443 0.000271247
0.00476564 -0.000411299 0.000103366
0.00496893 0.00018383 -6.63675e-05
0.00455529 0.000297997 2.60535e-05
0.00441631 0.000119241 0.000166796
0.00467455 0.000240479 8.23416e-05

VECTORS force float
2.06328e-10 -4.75137e-11 7.97403e-11
2.93893e-11 -1.59913e-10 9.80124e-11
1.87124e-10 3.10449e-10 2.72332e-12
8.05016e-11 8.69863e-11 1.1664e-10
-4.02311e-11 -1.74128e-12 3.33489e-12
6.88679e-11 3.03307e-11 -2.42248e-11
1.23764e-10 7.74953e-11 -7.27059e-11
-4.5469e-11 -4.63433e-11 5.83293e-11
2.17933e-10 2.98987e-12 7.69723e-12
5.43487e-11 9.60846e-11 2.33762e-10
-2.0567e-11 -8.27611e-11 -9.4888e-11
1.46685e-10 1.8429e-10 -3.03773e-11
6.14686e-10 4.2889e-10 -1.49751e-10
-6.84543e-11 -1.84458e-10 2.6763e-10
-2.27458e-10 4.67822e-10 -1.89175e-10
2.8721e-11 -2.84294e-10 -1.38151e-10
-6.1995e-11 -3.1727e-11 2.17633e-13
-6.29836e-10 -2.04915e-10 4.10254e-11
-2.30516e-11 -8.87765e-11 -2.31332e-10
1.86128e-11 4.33789e-11 -4.96821e-11
3.06755e-11 -2.00289e-10 -1.31894e-10
-4.63848e-10 1.60425e-10 -4.94185e-11
1.41847e-10 -3.85837e-11 1.94476e-11
-7.47161e-11 -2.44591e-10 9.52013e-11
5.29401e-10 -6.83175e-11 -1.97809e-10
-2.38567e-10 -4.28965e-10 2.12067e-10
-3.51121e-12 1.47386e-11 -3.8472e-11
9.65767e-11 -1.68693e-10 3.30574e-11
-2.71981e-10 3.18207e-12 -1.34844e-11
4.29216e-12 1.45331e-10 -1.15533e-10
-1.06974e-10 -1.46415e-10 1.39808e-10
-3.05043e-10 3.43472e-10 -1.40038e-10
-2.74858e-11 2.32336e-10 -3.86629e-11
-9.04453e-11 4.54395e-11 -4.80408e-11
2.94831e-10 -8.91748e-11 7.59209e-11
1.61515e-11 1.5579e-11 -1.89556e-11
-6.51164e-11 -2.97602e-10 4.17991e-11
-4.83812e-12 8.20649e-11 -4.7018e-11
1.06104e-09 1.41686e-10 -7.04905e-11
2.46991e-10 -6.3307e-11 2.65811e-11
9.57909e-11 1.39386e-10 -1.23851e-10
4.15466e-10 -1.58057e-10 8.44508e-11
1.20161e-11 7.17575e-11 -6.38698e-11
-4.94219e-11 3.79548e-11 -1.48169e-11
-2.07939e-10 -1.85123e-10 1.61238e-10
6.94406e-10 -3.34492e-10 1.89852e-10
1.28064e-10 4.9032e-11 -1.33606e-10
-5.8068e-11 1.26156e-10 -2.64368e-11
-2.73398e-10 -1.8945e-12 -6.21481e-11
6.30359e-10 -1.31468e-10 6.27619e-11
-3.14344e-10 1.63452e-10 -2.32471e-10
-8.11536e-11 2.57351e-10 -1.56657e-10
-7.87454e-11 7.32275e-11 3.23707e-11
6.3785e-11 6.18464e-11 -7.15356e-11
-4.51601e-11 -8.3959e-12 -6.03426e-12
-1.39512e-10 -2.75564e-10 1.25083e-10
-3.45583e-10 1.6045e-10 2.16824e-12
-4.27153e-11 -1.74681e-11 1.39174e-11
8.89022e-11 -9.4826e-11 2.09379e-11
-8.35789e-11 2.46396e-10 -7.99573e-11
-3.97019e-10 3.36002e-10 -3.42333e-10
2.5927e-11 9.95998e-11 -3.41959e-11
-1.33396e-11 -6.60994e-11 6.29538e-11
-1.15149e-10 1.90015e-10 -1.99496e-10
-4.96465e-10 1.99577e-10 3.79314e-11
-1.08547e-10 3.51142e-11 -4.47894e-11
2.80147e-11 7.07928e-11 -3.03929e-11
1.26709e-10 -3.49693e-11 4.1805e-11
-6.39966e-11 -6.56e-11 5.07988e-11
5.79621e-10 -6.25765e-10 -1.8462e-10
6.95807e-10 -4.58184e-10 4.00728e-10
4.38205e-10 -7.02428e-11 -1.84114e-10
1.37931e-10 -1.44702e-10 1.64934e-10
7.03518e-11 -9.51801e-11 7.22795e-11
-3.89611e-10 1.2216e-10 -1.85324e-10
-3.79467e-11 -2.22328e-10 5.8988e-10
-4.30229e-10 1.06573e-10 -1.03486e-11
-6.34287e-10 2.16565e-10 -1.38342e-10
3.17558e-10 1.53873e-10 -6.14181e-12
-2.24633e-10 5.50062e-11 -1.66693e-10
-8.61484e-11 1.34335e-11 -1.25592e-11
3.14904e-10 3.56308e-10 -1.02074e-10
-3.38815e-11 -1.65385e-11 -1.39007e-11
-3.76026e-11 -1.84756e-12 1.78112e-11
-2.81877e-11 1.24792e-10 -4.63989e-11
-2.26105e-11 -1.86638e-10 5.54175e-11
5.89704e-11 9.49691e-12 -1.20727e-11
5.03133e-10 -5.68285e-11 -3.36308e-11
-3.12041e-11 -1.3664e-11 2.82576e-12
-6.2644e-11 -9.43953e-11 1.79907e-10
9.74888e-11 1.55619e-10 -4.94927e-11
-4.21135e-11 -2.03018e-11 1.17527e-10
7.7554e-11 -6.20944e-11 -2.61911e-13
-7.99803e-11 -2.31401e-10 9.2086e-11
4.04675e-11 1.612e-10 -6.03394e-11
-2.91293e-10 2.19014e-10 -1.82019e-10
1.08462e-10 3.76966e-11 1.50428e-12
4.83836e-11 -4.4427e-11 -1.64021e-11
2.42154e-12 -1.67914e-10 1.97252e-10
2.27492e-10 -3.45183e-10 1.39846e-10
-8.63905e-11 -3.06745e-10 5.74335e-11
-9.48003e-11 -2.87184e-10 -3.2283e-12
4.92474e-11 -6.90719e-12 3.42175e-11
-3.26879e-10 -8.91601e-11 -2.66911e-10
8.27259e-11 2.24699e-10 4.49748e-11
-1.16329e-10 1.39754e-10 -1.90784e-10
9.1336e-11 -3.41913e-10 8.59484e-11
-9.98374e-11 -5.85138e-10 -2.90989e-11
2.68423e-12 -5.08706e-11 -1.18711e-11
7.97623e-11 -1.75202e-11 3.10873e-12
2.93095e-11 1.93617e-11 -1.50238e-11
2.26803e-10 2.67064e-11 4.48915e-12
-9.79161e-11 4.51358e-11 -1.9554e-11
2.5047e-11 -8.93229e-12 1.08644e-11
-1.40166e-10 2.72696e-10 -2.64826e-11
2.51844e-11 9.02316e-11 -9.42879e-11
-2.71135e-10 -5.68993e-11 7.97119e-12
-1.9415e-11 -2.69017e-11 4.01726e-11
4.55332e-11 -8.27024e-11 2.26325e-10
2.64799e-10 5.69166e-11 7.56438e-11
8.25931e-10 -1.1642e-10 -2.98349e-11
2.23519e-11 -4.37958e-11 6.42051e-11
-2.11724e-10 1.00949e-10 -8.63412e-12
-1.57012e-11 -8.49238e-11 8.67466e-11
-1.01588e-10 6.07494e-11 -4.05245e-11
5.93284e-10 3.41406e-10 -4.74272e-11
1.16351e-10 -1.24874e-11 1.0602e-11
-1.20827e-12 -6.50683e-11 -5.28764e-11
4.97192e-12 2.09249e-11 -2.6847e-11
1.24664e-11 -8.08751e-12 1.06919e-12
-5.78162e-11 -1.14245e-11 4.40015e-12
-4.06495e-10 2.92575e-10 1.44545e-10
9.07428e-11 -8.7118e-11 3.67844e-11
-5.38711e-11 -2.29702e-12 -7.74547e-14
-1.12225e-10 -4.97417e-11 1.35552e-11
3.14243e-11 -8.18068e-11 2.22837e-11
2.9463e-12 5.28507e-11 -2.13754e-11
1.1613e-10 -1.82581e-10 1.01862e-10
9.70939e-11 -9.37688e-11 2.62571e-10
2.18392e-10 9.69402e-12 -4.03016e-12
6.09104e-11 -1.49298e-11 1.67074e-11
-1.07671e-10 2.54331e-11 -1.15734e-10
-2.41989e-10 -1.67174e-10 -6.74188e-12
3.85031e-10 -3.81799e-10 -5.17677e-12
-2.42514e-10 3.67651e-11 -3.08812e-11
5.40397e-11 1.00083e-10 1.04317e-10
6.56792e-11 -2.80001e-10 4.78957e-11
-2.58533e-10 2.88214e-10 -5.22745e-11
-9.99129e-11 1.0055e-10 -5.8848e-11
-2.53671e-12 -4.14671e-11 9.98724e-12
1.31133e-10 -3.19477e-12 -5.06444e-12
-7.64785e-11 -7.59885e-11 -5.06714e-12
4.83615e-12 -3.27144e-11 3.86613e-11
4.45714e-11 -7.18137e-11 -4.83411e-11
1.30726e-10 -4.3537e-11 1.81317e-11
-4.56661e-10 2.65323e-10 -2.72454e-11
5.76791e-10 -6.47721e-11 9.01679e-11
-1.7259e-10 -9.43464e-11 1.87904e-10
1.43945e-10 1.79103e-10 -1.34809e-10
1.23753e-10 -6.04848e-11 -1.26011e-10
-4.93006e-12 9.95231e-12 -6.22308e-12
1.24734e-10 -3.01453e-10 4.74171e-11
1.17884e-12 -2.83392e-11 6.91108e-13
-3.50504e-11 -8.07564e-11 2.80622e-11
4.12825e-11 -3.61118e-10 -8.96766e-11
7.28724e-11 -9.36349e-11 -3.03397e-11
-6.99251e-11 1.62179e-11 -1.16693e-11
-2.5093e-10 5.25782e-11 -8.4394e-11
-6.41605e-10 -1.52652e-10 5.29011e-12
-1.82935e-10 2.0764e-10 -5.46254e-11
4.64927e-10 2.60337e-10 -5.92601e-10
9.10852e-11 -7.79054e-11 2.17449e-11
2.92116e-10 -3.84389e-10 1.23582e-10
-6.75873e-11 1.42835e-10 -1.4478e-10
-1.93431e-10 4.84404e-11 -1.86744e-11
1.16558e-10 1.9117e-11 -1.21399e-10
1.13822e-10 -1.3134e-11 5.36899e-11
8.85583e-11 -3.85938e-11 5.70906e-11
-1.53661e-10 6.44988e-11 -8.92212e-11
-7.2055e-11 -2.07485e-10 9.74487e-11
-1.30633e-10 -7.64381e-11 1.87627e-11
-1.61823e-11 4.91023e-11 1.44578e-10
3.2194e-11 -4.61378e-11 5.21627e-11
-1.58112e-10 -9.68054e-13 2.84284e-11
-7.59117e-11 2.14067e-10 -1.56141e-11
2.41993e-11 -1.94039e-11 1.49053e-12
-1.20387e-10 -7.45347e-12 5.28071e-11
5.04921e-12 -1.05635e-10 -1.2235e-10
4.6883e-10 9.25364e-11 -1.27707e-10
-2.45696e-11 2.48937e-11 9.14696e-12
-3.84972e-11 -7.04164e-11 -1.78518e-11
9.91989e-10 4.20506e-10 -1.46531e-10
-2.31923e-11 2.56537e-12 -2.90947e-12
-3.2769e-11 2.08841e-10 -1.89291e-10
-2.54466e-11 -1.76037e-12 -1.44172e-12
-2.71365e-10 1.94253e-10 -1.75597e-10
-8.86962e-11 1.80803e-10 -1.80889e-10
6.26424e-10 -1.38422e-10 7.54227e-11
-7.55381e-11 -1.18556e-11 -3.43916e-11
1.72726e-11 4.62788e-11 5.66459e-11
2.11814e-11 -4.58912e-11 -7.02397e-12
2.78105e-11 6.09708e-11 -2.76703e-11
1.12623e-10 -1.01366e-11 -3.66954e-11
1.25563e-11 3.87071e-11 -1.20564e-11
6.27038e-12 -5.43695e-12 -1.93959e-12
3.37714e-11 -3.51482e-11 5.2455e-11
-1.20316e-10 -2.65596e-11 -8.35072e-13
-5.77763e-11 -1.14857e-10 -1.13495e-10
3.17396e-10 -2.74586e-10 1.20069e-10
-2.0788e-10 5.27811e-11 1.96051e-11
-5.9081e-10 2.13769e-11 4.6233e-10
9.48962e-12 1.72084e-11 -1.95172e-11
-4.03854e-11 -7.35421e-11 3.74239e-11
2.55371e-11 2.48578e-11 -4.37921e-12
1.89156e-10 1.50176e-10 1.13221e-11
2.82254e-12 -7.03883e-11 1.52891e-11
8.68065e-11 -2.14036e-11 -2.46596e-11
-3.33172e-10 1.91568e-10 -2.71241e-10
-2.10646e-10 9.40932e-11 -5.194e-11
-3.44215e-11 -6.02733e-11 -4.96895e-11
3.10687e-10 -4.58738e-10 -2.42893e-11
-1.02001e-10 1.18003e-10 -3.17987e-11
1.16641e-10 1.53715e-10 -1.64585e-10
-4.21329e-11 -3.49629e-11 7.76751e-11
-1.78847e-11 2.03604e-10 1.43081e-10
2.39475e-13 3.30611e-12 1.69143e-12
-8.40518e-11 1.89643e-10 -9.94032e-11
-1.91741e-10 9.65248e-11 3.13437e-11
-3.27975e-12 -5.15035e-12 8.62835e-13
3.20552e-11 -9.93228e-12 4.84423e-12
-2.49198e-11 1.32386e-10 -8.73728e-11
1.03249e-10 1.75713e-11 5.71056e-11
-3.13403e-10 1.12738e-10 -5.14756e-11
-5.86532e-11 -3.68218e-10 7.11616e-11
-6.22844e-11 1.21753e-10 -2.61657e-10
-6.33982e-11 -2.78615e-11 3.67861e-11
-3.95496e-23 1.42172e-23 6.20385e-25
-3.13676e-11 -3.79708e-11 2.33427e-11
2.15649e-13 6.12154e-11 -1.9241e-11
-1.08295e-10 1.01384e-10 -2.16034e-11
-1.81871e-12 -9.74374e-11 -5.40195e-11
-1.02524e-10 -8.61178e-11 -4.57955e-12
-5.30476e-11 -1.43773e-10 3.73161e-11
2.73403e-12 2.69628e-11 1.0757e-13
6.32239e-11 4.17225e-11 -8.63393e-12
7.80455e-10 -6.56561e-10 2.78711e-10
-3.29493e-11 2.45848e-10 -1.64131e-11
2.33457e-12 -2.53289e-11 1.26791e-12
1.55372e-10 -9.69115e-11 1.01224e-10
-7.32263e-11 -3.6687e-11 8.55312e-11
-4.73991e-10 2.32676e-10 -2.15274e-10
-3.54425e-11 -4.86931e-11 5.52811e-11
-5.25248e-11 1.61246e-10 -2.40933e-11
2.85062e-11 1.61878e-11 -1.89339e-12
8.72798e-11 -5.64494e-11 3.19269e-11
-1.2949e-10 -1.04176e-10 -2.95531e-11
-7.93973e-11 -9.3932e-11 1.19756e-10
-1.91113e-10 2.64725e-11 -4.43886e-11
2.98718e-11 1.38976e-10 -3.76089e-11
-5.91831e-11 -1.2434e-10 7.49695e-11
5.98103e-11 1.24165e-10 -5.77498e-12
-5.63025e-11 -1.64232e-11 4.46034e-11
6.83509e-11 -9.56368e-11 2.93012e-10
5.13576e-22 4.33236e-23 -2.31611e-23
1.1602e-11 1.00185e-10 -7.01655e-12
1.72453e-11 -1.80282e-10 4.88503e-10
-9.02845e-11 -1.75723e-10 4.19108e-11
9.59146e-11 1.13121e-11 8.4203e-11
-7.02253e-11 1.66025e-11 -1.59304e-12
1.6077e-10 2.54298e-10 -1.06698e-10
-1.70311e-10 -1.12102e-10 6.31409e-11
-2.32072e-11 8.04382e-11 1.25942e-11
-5.26597e-11 -8.41442e-11 2.14308e-11
-2.49969e-10 7.13499e-11 -1.28591e-11
-1.96591e-11 -4.75315e-11 2.17686e-11
7.04189e-11 6.80542e-11 -3.01689e-11
-3.05824e-11 -3.5921e-11 7.06602e-11
-2.04325e-11 1.41616e-11 -4.19053e-12
3.59426e-11 9.47034e-11 -8.96865e-12
2.88121e-11 -1.9355e-11 7.48931e-11
-1.19765e-10 -4.0599e-10 1.3389e-10
-2.07115e-11 3.62186e-11 -1.41047e-11
2.44731e-10 1.12123e-10 -4.83185e-10
