# vtk DataFile Version 3.0
LIGGGHTS particles timestep 47400000
ASCII
DATASET POLYDATA
POINTS 283 float
0.230115 0.0168473 0.0076639
0.230397 0.0179702 0.00719131
0.230522 0.0186298 0.00686485
0.230503 0.0185374 0.00689839
0.229749 0.0155125 0.00871095
0.236088 0.0166588 0.00754603
0.229883 0.0158927 0.00814899
0.229731 0.0154666 0.00879784
0.236335 0.017711 0.00704382
0.230809 0.0187267 0.00683588
0.230297 0.0172198 0.00746887
0.236294 0.0175201 0.0070866
0.23083 0.0183274 0.00697666
0.223617 0.0150961 0.00921253
0.230912 0.018382 0.00695894
0.22397 0.0163609 0.00813949
0.236454 0.0182885 0.00693224
0.230447 0.0182591 0.0069939
0.230578 0.0177782 0.00718314
0.229768 0.0155583 0.00862405
0.23056 0.0188206 0.00683655
0.236254 0.0173365 0.00715473
0.230684 0.0180874 0.00705846
0.236197 0.0170816 0.007302
0.223885 0.0160617 0.00839072
0.230409 0.0180737 0.00705841
0.236067 0.0165743 0.00759483
0.230634 0.0187554 0.00682271
0.230794 0.0181417 0.00704133
0.23611 0.0167434 0.00749722
0.230438 0.0181521 0.00712653
0.230858 0.0184613 0.0069301
0.236395 0.0179997 0.00698804
0.229863 0.0158136 0.00820711
0.230721 0.018273 0.00699386
0.229905 0.015981 0.00810796
0.230466 0.0179194 0.00711365
0.230626 0.0176959 0.00721353
0.230616 0.0186619 0.00685527
0.230504 0.0181048 0.00704915
0.236132 0.0168279 0.00744841
0.236217 0.0171664 0.00725301
0.229809 0.0156516 0.00845199
0.230518 0.017705 0.00721584
0.236175 0.016997 0.0073508
0.230618 0.018229 0.00700749
0.22455 0.0187756 0.00703704
0.224554 0.01789 0.00699297
0.230786 0.0186339 0.00686813
0.236153 0.0169125 0.00739961
0.224173 0.0167612 0.00781038
0.236274 0.0174271 0.00711733
0.230563 0.0182695 0.00708106
0.229788 0.0156042 0.00853751
0.230383 0.0171712 0.00748744
0.230561 0.018386 0.00695872
0.236237 0.0172513 0.00720399
0.230167 0.0166977 0.00773435
0.224729 0.0183155 0.00698618
0.230902 0.0185705 0.00689247
0.224224 0.0166373 0.0079212
0.230475 0.0175286 0.00730547
0.236509 0.0181275 0.00696351
0.224214 0.0169111 0.00768433
0.236314 0.017615 0.00706237
0.229824 0.0156956 0.00836353
0.230245 0.0173693 0.00739844
0.229844 0.0157583 0.00828812
0.236434 0.0181922 0.00695084
0.230598 0.0190133 0.00687363
0.223677 0.0153157 0.00901746
0.22378 0.0156902 0.00870281
0.230485 0.0180121 0.0070814
0.224768 0.018512 0.00698227
0.224289 0.0168631 0.0077316
0.223696 0.0153907 0.00895435
0.236375 0.0179034 0.00700664
0.22415 0.0166866 0.00787287
0.230598 0.0185691 0.00688757
0.236355 0.0178072 0.00702523
0.230404 0.0172582 0.0074432
0.230599 0.0181359 0.00703988
0.230319 0.0173068 0.00742463
0.230188 0.0167848 0.00769009
0.230575 0.0175239 0.00730153
0.23056 0.0179505 0.00710438
0.230384 0.0175678 0.00729188
0.230674 0.0185082 0.00691034
0.230673 0.0178008 0.00715904
0.230447 0.0178317 0.00715791
0.224352 0.0170877 0.00754292
0.230542 0.0181749 0.00711249
0.224623 0.0178171 0.00699597
0.230636 0.0183223 0.006975
0.230728 0.0179218 0.00711746
0.224269 0.0167882 0.00779458
0.224575 0.017989 0.00699102
0.230232 0.0169588 0.0076016
0.223637 0.0151658 0.00914362
0.230739 0.0183659 0.00696152
0.230485 0.0184442 0.00692945
0.230579 0.0189174 0.00685304
0.230008 0.0164156 0.00788341
0.223845 0.0159144 0.00851453
0.230734 0.0187936 0.00683689
0.224194 0.016836 0.00774752
0.230429 0.018167 0.00702807
0.230432 0.0180561 0.00715418
0.230275 0.0171328 0.00751311
0.224748 0.0184136 0.00698423
0.236045 0.0164898 0.00764364
0.230634 0.0178878 0.00712777
0.230526 0.0173512 0.00738972
0.230289 0.0175433 0.00730995
0.224609 0.018698 0.00705984
0.230717 0.0185154 0.00700026
0.230807 0.0185416 0.00690094
0.230158 0.0166086 0.00777883
0.223737 0.0155407 0.00882825
0.230828 0.0188266 0.00682727
0.223883 0.0159859 0.00845589
0.229985 0.0163287 0.00792765
0.224623 0.0187474 0.006974
0.230352 0.0178047 0.00717719
0.230498 0.0176177 0.00726013
0.230579 0.0180432 0.00707213
0.230341 0.0173938 0.00738038
0.224515 0.0186008 0.00697545
0.23018 0.0171083 0.00753117
0.230406 0.017655 0.00724754
0.230427 0.017346 0.00739852
0.230754 0.0188915 0.00684325
0.224649 0.0179218 0.00699399
0.229921 0.0160675 0.00806041
0.230665 0.0179947 0.00709071
0.230541 0.0178664 0.00715466
0.230224 0.0172823 0.00744269
0.223657 0.0152407 0.00908054
0.230467 0.0182454 0.00709102
0.230551 0.0174375 0.00734565
0.23021 0.0168718 0.00764584
0.224423 0.0173112 0.0073558
0.230882 0.0186628 0.00685966
0.223931 0.0162108 0.00826582
0.223805 0.0157646 0.00864056
0.224519 0.0184527 0.00706061
0.230579 0.0184762 0.00691988
0.22467 0.0180209 0.00699204
0.230597 0.0176107 0.00725732
0.224484 0.0176126 0.00710078
0.230362 0.0174808 0.00733613
0.224709 0.0182173 0.00698813
0.230332 0.0177174 0.00722146
0.224535 0.0187 0.00697348
0.230451 0.0174374 0.00735194
0.224129 0.0166118 0.00793568
0.230703 0.0181801 0.00702619
0.224458 0.0181548 0.00706477
0.224119 0.0168841 0.00770006
0.230584 0.0183635 0.00705348
0.224476 0.0184047 0.00697936
0.230542 0.0182902 0.00698462
0.224463 0.0175378 0.00716355
0.224356 0.0178167 0.00699794
0.223949 0.016287 0.00820342
0.224617 0.0186435 0.00697635
0.224437 0.0173867 0.00729183
0.224311 0.016938 0.00766879
0.230674 0.0189494 0.00685783
0.224693 0.0185779 0.00697931
0.230558 0.0185599 0.00697892
0.224654 0.0183814 0.00698322
0.230655 0.0184191 0.00695173
0.224236 0.016986 0.00762143
0.224321 0.0172857 0.00736977
0.236415 0.018096 0.00696944
0.230137 0.0169343 0.00761966
0.230093 0.0167603 0.00770815
0.224012 0.0165102 0.00801406
0.230371 0.0178927 0.00713362
0.224371 0.0175316 0.00720243
0.230663 0.0183038 0.00706944
0.229964 0.0162417 0.00797187
0.224437 0.0182086 0.00698326
0.224374 0.0171626 0.00748009
0.230254 0.0170458 0.00755735
0.224565 0.0188489 0.00697052
0.224478 0.0182529 0.00706287
0.223758 0.0156155 0.00876542
0.224355 0.0174548 0.00726494
0.224538 0.0179467 0.00707378
0.230812 0.0182345 0.00700901
0.224417 0.0181107 0.0069852
0.224099 0.0168123 0.00776677
0.224447 0.0174624 0.00722734
0.224246 0.0167121 0.00785841
0.224781 0.0186254 0.00697983
0.223906 0.0161367 0.00832804
0.230487 0.0184365 0.00702913
0.230158 0.0170213 0.00757542
0.236493 0.0184811 0.00689502
0.230267 0.0174563 0.00735419
0.224108 0.0165369 0.00799865
0.230202 0.0171953 0.00748693
0.230064 0.0165914 0.0078093
0.230029 0.0165027 0.00783914
0.230903 0.0187598 0.00682594
0.223996 0.0164367 0.00807987
0.230759 0.0184586 0.00692928
0.223822 0.0158421 0.00857978
0.223717 0.0154657 0.00889134
0.236474 0.0183848 0.00691364
0.224419 0.0176937 0.00710106
0.224527 0.0177869 0.00699564
0.224257 0.017061 0.00755845
0.22448 0.0179573 0.00699296
0.224454 0.0180174 0.00706864
0.224055 0.0166599 0.00788839
0.224395 0.0172374 0.00741726
0.230427 0.0177431 0.00720283
0.230523 0.0181975 0.0070169
0.224247 0.0173331 0.00732307
0.224183 0.0171086 0.00751157
0.224319 0.0176374 0.00706646
0.224278 0.0171359 0.00749561
0.218215 0.0171715 0.0073064
0.224161 0.0170338 0.0075744
0.2243 0.0172107 0.00743278
0.218196 0.0170964 0.00736976
0.218233 0.0172467 0.00724297
0.22414 0.016959 0.00763723
0.21827 0.0174103 0.00713685
0.230775 0.0180489 0.0070736
0.23039 0.017981 0.00709065
0.224076 0.0167347 0.00782556
0.229942 0.0161549 0.00801645
0.215741 0.019982 0.00563384
0.218251 0.0173219 0.00717963
0.224598 0.0185454 0.00697831
0.224497 0.0176882 0.00703662
0.224092 0.0164615 0.00806226
0.22452 0.0181532 0.00698614
0.224337 0.0177198 0.00701267
0.224459 0.01786 0.00700202
0.224579 0.0184473 0.00698027
0.230692 0.018601 0.00687802
0.224225 0.0172583 0.00738591
0.224397 0.0180126 0.00698714
0.218311 0.0176043 0.00711095
0.224392 0.0176048 0.0071376
0.224034 0.0165851 0.00795122
0.230071 0.0166733 0.00775239
0.224673 0.0184795 0.00698127
0.224495 0.0185027 0.00697741
0.224843 0.0184461 0.00698522
0.224595 0.018087 0.00698908
0.224302 0.017562 0.00713006
0.224456 0.0183066 0.00698131
0.2245 0.0180552 0.00698806
0.224554 0.0180497 0.0070722
0.224559 0.0183493 0.00698222
0.224283 0.0174834 0.00719642
0.230395 0.017878 0.00723009
0.404182 0.0211142 0.0056569
0.218352 0.0177984 0.00708501
0.224705 0.018691 0.00697687
0.218332 0.0177013 0.007098
0.21829 0.0175073 0.0071239
0.224341 0.0173609 0.00730657
0.224204 0.0171834 0.00744874
0.22454 0.0182512 0.00698417
0.23071 0.0186947 0.00684539
0.224439 0.0177691 0.00703827
0.224615 0.0181852 0.00698713
0.224377 0.0179147 0.00698908
0.2245 0.0183544 0.00706248
0.230654 0.0188534 0.00683727
0.224267 0.017408 0.00726001
0.224331 0.0170129 0.00760575
0.230311 0.0176303 0.00726571
0.230467 0.0183537 0.00696795
0.224634 0.0182834 0.00698518
0.23054 0.0187226 0.00683255

VERTICES 283 566
1 0
1 1
1 2
1 3
1 4
1 5
1 6
1 7
1 8
1 9
1 10
1 11
1 12
1 13
1 14
1 15
1 16
1 17
1 18
1 19
1 20
1 21
1 22
1 23
1 24
1 25
1 26
1 27
1 28
1 29
1 30
1 31
1 32
1 33
1 34
1 35
1 36
1 37
1 38
1 39
1 40
1 41
1 42
1 43
1 44
1 45
1 46
1 47
1 48
1 49
1 50
1 51
1 52
1 53
1 54
1 55
1 56
1 57
1 58
1 59
1 60
1 61
1 62
1 63
1 64
1 65
1 66
1 67
1 68
1 69
1 70
1 71
1 72
1 73
1 74
1 75
1 76
1 77
1 78
1 79
1 80
1 81
1 82
1 83
1 84
1 85
1 86
1 87
1 88
1 89
1 90
1 91
1 92
1 93
1 94
1 95
1 96
1 97
1 98
1 99
1 100
1 101
1 102
1 103
1 104
1 105
1 106
1 107
1 108
1 109
1 110
1 111
1 112
1 113
1 114
1 115
1 116
1 117
1 118
1 119
1 120
1 121
1 122
1 123
1 124
1 125
1 126
1 127
1 128
1 129
1 130
1 131
1 132
1 133
1 134
1 135
1 136
1 137
1 138
1 139
1 140
1 141
1 142
1 143
1 144
1 145
1 146
1 147
1 148
1 149
1 150
1 151
1 152
1 153
1 154
1 155
1 156
1 157
1 158
1 159
1 160
1 161
1 162
1 163
1 164
1 165
1 166
1 167
1 168
1 169
1 170
1 171
1 172
1 173
1 174
1 175
1 176
1 177
1 178
1 179
1 180
1 181
1 182
1 183
1 184
1 185
1 186
1 187
1 188
1 189
1 190
1 191
1 192
1 193
1 194
1 195
1 196
1 197
1 198
1 199
1 200
1 201
1 202
1 203
1 204
1 205
1 206
1 207
1 208
1 209
1 210
1 211
1 212
1 213
1 214
1 215
1 216
1 217
1 218
1 219
1 220
1 221
1 222
1 223
1 224
1 225
1 226
1 227
1 228
1 229
1 230
1 231
1 232
1 233
1 234
1 235
1 236
1 237
1 238
1 239
1 240
1 241
1 242
1 243
1 244
1 245
1 246
1 247
1 248
1 249
1 250
1 251
1 252
1 253
1 254
1 255
1 256
1 257
1 258
1 259
1 260
1 261
1 262
1 263
1 264
1 265
1 266
1 267
1 268
1 269
1 270
1 271
1 272
1 273
1 274
1 275
1 276
1 277
1 278
1 279
1 280
1 281
1 282

POINT_DATA 283
SCALARS id int 1
LOOKUP_TABLE default
1
2
3
4
5
6
7
8
9
10
11
12
13
14
15
16
18
19
20
21
22
24
25
26
27
29
30
31
32
33
34
35
36
37
38
40
41
42
43
44
45
46
47
48
49
50
52
55
56
57
58
59
60
61
62
63
64
65
66
67
68
69
70
71
72
73
74
75
76
77
78
79
80
81
82
83
84
85
86
87
88
89
90
91
92
93
94
95
96
98
99
100
101
102
103
104
105
106
107
108
109
110
111
112
113
114
115
116
117
118
119
120
121
122
123
124
125
126
127
128
129
130
131
132
133
134
135
136
137
138
139
140
141
142
144
145
146
147
148
149
150
152
153
154
155
156
157
158
159
160
161
162
164
165
166
167
168
169
170
171
172
173
174
175
176
177
178
179
180
181
182
183
184
185
186
187
188
189
190
191
192
193
194
195
196
197
198
199
200
201
202
203
204
205
206
207
208
209
210
211
213
214
215
217
218
219
220
221
222
223
224
225
226
227
228
229
230
231
232
233
234
235
236
237
238
239
241
242
243
244
245
246
247
248
249
250
251
252
253
254
255
256
257
258
259
260
261
262
263
264
265
267
268
269
270
271
272
273
274
275
276
277
278
279
280
281
282
283
284
285
286
287
288
289
290
292
293
294
295
296
297
298
300

SCALARS type int 1
LOOKUP_TABLE default
1
1
1
1
1
1
1
1
1
1
1
1
1
1
1
1
1
1
1
1
1
1
1
1
1
1
1
1
1
1
1
1
1
1
1
1
1
1
1
1
1
1
1
1
1
1
1
1
1
1
1
1
1
1
1
1
1
1
1
1
1
1
1
1
1
1
1
1
1
1
1
1
1
1
1
1
1
1
1
1
1
1
1
1
1
1
1
1
1
1
1
1
1
1
1
1
1
1
1
1
1
1
1
1
1
1
1
1
1
1
1
1
1
1
1
1
1
1
1
1
1
1
1
1
1
1
1
1
1
1
1
1
1
1
1
1
1
1
1
1
1
1
1
1
1
1
1
1
1
1
1
1
1
1
1
1
1
1
1
1
1
1
1
1
1
1
1
1
1
1
1
1
1
1
1
1
1
1
1
1
1
1
1
1
1
1
1
1
1
1
1
1
1
1
1
1
1
1
1
1
1
1
1
1
1
1
1
1
1
1
1
1
1
1
1
1
1
1
1
1
1
1
1
1
1
1
1
1
1
1
1
1
1
1
1
1
1
1
1
1
1
1
1
1
1
1
1
1
1
1
1
1
1
1
1
1
1
1
1
1
1
1
1
1
1
1
1
1
1
1
1
1
1
1
1
1
1
1
1
1
1
1
1

SCALARS radius float 1
LOOKUP_TABLE default
5e-05
5e-05
5e-05
5e-05
5e-05
5e-05
5e-05
5e-05
5e-05
5e-05
5e-05
5e-05
5e-05
5e-05
5e-05
5e-05
5e-05
5e-05
5e-05
5e-05
5e-05
5e-05
5e-05
5e-05
5e-05
5e-05
5e-05
5e-05
5e-05
5e-05
5e-05
5e-05
5e-05
5e-05
5e-05
5e-05
5e-05
5e-05
5e-05
5e-05
5e-05
5e-05
5e-05
5e-05
5e-05
5e-05
5e-05
5e-05
5e-05
5e-05
5e-05
5e-05
5e-05
5e-05
5e-05
5e-05
5e-05
5e-05
5e-05
5e-05
5e-05
5e-05
5e-05
5e-05
5e-05
5e-05
5e-05
5e-05
5e-05
5e-05
5e-05
5e-05
5e-05
5e-05
5e-05
5e-05
5e-05
5e-05
5e-05
5e-05
5e-05
5e-05
5e-05
5e-05
5e-05
5e-05
5e-05
5e-05
5e-05
5e-05
5e-05
5e-05
5e-05
5e-05
5e-05
5e-05
5e-05
5e-05
5e-05
5e-05
5e-05
5e-05
5e-05
5e-05
5e-05
5e-05
5e-05
5e-05
5e-05
5e-05
5e-05
5e-05
5e-05
5e-05
5e-05
5e-05
5e-05
5e-05
5e-05
5e-05
5e-05
5e-05
5e-05
5e-05
5e-05
5e-05
5e-05
5e-05
5e-05
5e-05
5e-05
5e-05
5e-05
5e-05
5e-05
5e-05
5e-05
5e-05
5e-05
5e-05
5e-05
5e-05
5e-05
5e-05
5e-05
5e-05
5e-05
5e-05
5e-05
5e-05
5e-05
5e-05
5e-05
5e-05
5e-05
5e-05
5e-05
5e-05
5e-05
5e-05
5e-05
5e-05
5e-05
5e-05
5e-05
5e-05
5e-05
5e-05
5e-05
5e-05
5e-05
5e-05
5e-05
5e-05
5e-05
5e-05
5e-05
5e-05
5e-05
5e-05
5e-05
5e-05
5e-05
5e-05
5e-05
5e-05
5e-05
5e-05
5e-05
5e-05
5e-05
5e-05
5e-05
5e-05
5e-05
5e-05
5e-05
5e-05
5e-05
5e-05
5e-05
5e-05
5e-05
5e-05
5e-05
5e-05
5e-05
5e-05
5e-05
5e-05
5e-05
5e-05
5e-05
5e-05
5e-05
5e-05
5e-05
5e-05
5e-05
5e-05
5e-05
5e-05
5e-05
5e-05
5e-05
5e-05
5e-05
5e-05
5e-05
5e-05
5e-05
5e-05
5e-05
5e-05
5e-05
5e-05
5e-05
5e-05
5e-05
5e-05
5e-05
5e-05
5e-05
5e-05
5e-05
5e-05
5e-05
5e-05
5e-05
5e-05
5e-05
5e-05
5e-05
5e-05
5e-05
5e-05
5e-05
5e-05
5e-05
5e-05
5e-05
5e-05
5e-05
5e-05
5e-05
5e-05
5e-05
5e-05
5e-05
5e-05
5e-05
5e-05
5e-05
5e-05
5e-05
5e-05
5e-05
5e-05
5e-05
5e-05
5e-05
5e-05
5e-05

SCALARS mass float 1
LOOKUP_TABLE default
1.46608e-10
1.46608e-10
1.46608e-10
1.46608e-10
1.46608e-10
1.46608e-10
1.46608e-10
1.46608e-10
1.46608e-10
1.46608e-10
1.46608e-10
1.46608e-10
1.46608e-10
1.46608e-10
1.46608e-10
1.46608e-10
1.46608e-10
1.46608e-10
1.46608e-10
1.46608e-10
1.46608e-10
1.46608e-10
1.46608e-10
1.46608e-10
1.46608e-10
1.46608e-10
1.46608e-10
1.46608e-10
1.46608e-10
1.46608e-10
1.46608e-10
1.46608e-10
1.46608e-10
1.46608e-10
1.46608e-10
1.46608e-10
1.46608e-10
1.46608e-10
1.46608e-10
1.46608e-10
1.46608e-10
1.46608e-10
1.46608e-10
1.46608e-10
1.46608e-10
1.46608e-10
1.46608e-10
1.46608e-10
1.46608e-10
1.46608e-10
1.46608e-10
1.46608e-10
1.46608e-10
1.46608e-10
1.46608e-10
1.46608e-10
1.46608e-10
1.46608e-10
1.46608e-10
1.46608e-10
1.46608e-10
1.46608e-10
1.46608e-10
1.46608e-10
1.46608e-10
1.46608e-10
1.46608e-10
1.46608e-10
1.46608e-10
1.46608e-10
1.46608e-10
1.46608e-10
1.46608e-10
1.46608e-10
1.46608e-10
1.46608e-10
1.46608e-10
1.46608e-10
1.46608e-10
1.46608e-10
1.46608e-10
1.46608e-10
1.46608e-10
1.46608e-10
1.46608e-10
1.46608e-10
1.46608e-10
1.46608e-10
1.46608e-10
1.46608e-10
1.46608e-10
1.46608e-10
1.46608e-10
1.46608e-10
1.46608e-10
1.46608e-10
1.46608e-10
1.46608e-10
1.46608e-10
1.46608e-10
1.46608e-10
1.46608e-10
1.46608e-10
1.46608e-10
1.46608e-10
1.46608e-10
1.46608e-10
1.46608e-10
1.46608e-10
1.46608e-10
1.46608e-10
1.46608e-10
1.46608e-10
1.46608e-10
1.46608e-10
1.46608e-10
1.46608e-10
1.46608e-10
1.46608e-10
1.46608e-10
1.46608e-10
1.46608e-10
1.46608e-10
1.46608e-10
1.46608e-10
1.46608e-10
1.46608e-10
1.46608e-10
1.46608e-10
1.46608e-10
1.46608e-10
1.46608e-10
1.46608e-10
1.46608e-10
1.46608e-10
1.46608e-10
1.46608e-10
1.46608e-10
1.46608e-10
1.46608e-10
1.46608e-10
1.46608e-10
1.46608e-10
1.46608e-10
1.46608e-10
1.46608e-10
1.46608e-10
1.46608e-10
1.46608e-10
1.46608e-10
1.46608e-10
1.46608e-10
1.46608e-10
1.46608e-10
1.46608e-10
1.46608e-10
1.46608e-10
1.46608e-10
1.46608e-10
1.46608e-10
1.46608e-10
1.46608e-10
1.46608e-10
1.46608e-10
1.46608e-10
1.46608e-10
1.46608e-10
1.46608e-10
1.46608e-10
1.46608e-10
1.46608e-10
1.46608e-10
1.46608e-10
1.46608e-10
1.46608e-10
1.46608e-10
1.46608e-10
1.46608e-10
1.46608e-10
1.46608e-10
1.46608e-10
1.46608e-10
1.46608e-10
1.46608e-10
1.46608e-10
1.46608e-10
1.46608e-10
1.46608e-10
1.46608e-10
1.46608e-10
1.46608e-10
1.46608e-10
1.46608e-10
1.46608e-10
1.46608e-10
1.46608e-10
1.46608e-10
1.46608e-10
1.46608e-10
1.46608e-10
1.46608e-10
1.46608e-10
1.46608e-10
1.46608e-10
1.46608e-10
1.46608e-10
1.46608e-10
1.46608e-10
1.46608e-10
1.46608e-10
1.46608e-10
1.46608e-10
1.46608e-10
1.46608e-10
1.46608e-10
1.46608e-10
1.46608e-10
1.46608e-10
1.46608e-10
1.46608e-10
1.46608e-10
1.46608e-10
1.46608e-10
1.46608e-10
1.46608e-10
1.46608e-10
1.46608e-10
1.46608e-10
1.46608e-10
1.46608e-10
1.46608e-10
1.46608e-10
1.46608e-10
1.46608e-10
1.46608e-10
1.46608e-10
1.46608e-10
1.46608e-10
1.46608e-10
1.46608e-10
1.46608e-10
1.46608e-10
1.46608e-10
1.46608e-10
1.46608e-10
1.46608e-10
1.46608e-10
1.46608e-10
1.46608e-10
1.46608e-10
1.46608e-10
1.46608e-10
1.46608e-10
1.46608e-10
1.46608e-10
1.46608e-10
1.46608e-10
1.46608e-10
1.46608e-10
1.46608e-10
1.46608e-10
1.46608e-10
1.46608e-10
1.46608e-10
1.46608e-10
1.46608e-10
1.46608e-10
1.46608e-10
1.46608e-10
1.46608e-10
1.46608e-10
1.46608e-10
1.46608e-10
1.46608e-10
1.46608e-10
1.46608e-10
1.46608e-10
1.46608e-10
1.46608e-10
1.46608e-10
1.46608e-10
1.46608e-10
1.46608e-10

VECTORS velocity float
0.00473754 -4.91974e-05 -0.000273794
0.00462283 4.92917e-05 -5.42036e-05
0.00446423 0.000193483 1.23479e-05
0.00443462 0.000197713 9.05953e-06
0.00433829 0.000375503 -9.43776e-05
0.00481198 -0.000375428 0.000266013
0.00447635 4.58054e-05 -0.000299785
0.00431374 0.000372678 -9.52384e-05
0.00453219 -0.000382215 8.31808e-05
0.00449501 0.000161483 2.36895e-05
0.00473468 -2.47099e-05 -0.000285544
0.00449003 -0.000378527 6.19917e-05
0.00443863 0.000163837 2.10052e-05
0.00435173 -0.000347765 -0.000232499
0.00444579 0.000136659 3.09481e-05
0.00451282 0.000111478 0.000258871
0.00440659 -0.000358015 7.69544e-05
0.00445427 0.000149529 1.41559e-05
0.00458059 9.22838e-05 -0.000248848
0.00439584 0.000377988 -8.48652e-05
0.00449158 0.000182715 3.04741e-06
0.00446185 -0.000308547 0.00022612
0.00442548 0.000222511 8.02298e-07
0.0048503 -0.000382045 0.00027083
0.00442119 0.000118543 0.000246707
0.00440826 0.000154922 1.40465e-05
0.0048102 -0.000377143 0.000267033
0.00449273 0.000182079 1.57191e-05
0.00442233 0.000172597 1.75946e-05
0.00482222 -0.000373815 0.000265421
0.00439203 0.00014719 -4.05322e-05
0.00445893 0.000146922 2.69267e-05
0.00434697 -0.000347558 7.47472e-05
0.00446113 9.87422e-05 -0.000239799
0.00444511 0.000188592 9.82912e-06
0.00449986 3.46265e-05 -0.000290026
0.0045932 0.000171604 1.62221e-05
0.00472413 0.000138942 -0.000354922
0.0044868 0.000181995 1.58407e-05
0.00442065 0.000191267 1.88271e-06
0.00483361 -0.000378541 0.000268294
0.0044707 -0.000315241 0.000227539
0.00447489 0.00037017 -5.99117e-05
0.00468806 1.33289e-05 -0.000306603
0.0048423 -0.000385058 0.000272008
0.00442622 0.000238708 -3.89453e-06
0.0043721 3.89977e-05 8.36539e-05
0.00446235 -4.06025e-06 7.63849e-05
0.00449073 0.000163807 2.16109e-05
0.00483627 -0.000384491 0.000271454
0.00462141 7.52855e-05 0.000298071
0.00448066 -0.000396184 1.14538e-05
0.0044161 0.000186484 1.58983e-05
0.00443597 0.000382534 -6.97338e-05
0.00472435 -2.83007e-05 -0.000283267
0.00442594 0.000168865 -9.50149e-06
0.00445921 -0.000312329 0.000224103
0.00473749 -6.3552e-05 -0.000266526
0.00443445 5.24663e-05 8.13614e-05
0.00448045 0.000166032 2.14327e-05
0.00460579 7.43706e-05 0.000297404
0.00481501 1.79308e-05 -0.000312546
0.00436897 -0.000377131 8.05805e-05
0.00468003 7.62824e-05 0.000302514
0.00451497 -0.00037843 8.18761e-05
0.00447675 0.000364467 -5.47996e-05
0.00473604 -3.36096e-05 -0.000281087
0.00447476 0.000257857 -0.000132241
0.00439124 -0.000352603 7.61647e-05
0.00448131 0.000184685 -6.23613e-05
0.00432133 0.000122756 0.000234097
0.00431435 0.000117623 0.000238542
0.0045366 0.000205286 2.39256e-05
0.00436953 3.72595e-05 8.0632e-05
0.00461921 5.98729e-05 0.000312015
0.00423669 0.000132947 0.000219034
0.00433632 -0.000345635 7.45246e-05
0.00461469 7.89826e-05 0.000295183
0.00446071 0.000185081 1.58861e-05
0.0045338 -0.000383898 8.2531e-05
0.00473897 -3.17903e-05 -0.0002824
0.00441999 0.000253376 -1.47112e-05
0.00473606 -2.61837e-05 -0.000285029
0.00473529 -5.54374e-05 -0.000270746
0.00483313 0.00010316 -0.000354804
0.00453597 0.000203097 2.42639e-05
0.00476143 -4.52823e-05 -0.000275659
0.00445622 0.000178712 1.73383e-05
0.00457771 0.000226223 -3.02985e-06
0.00369369 0.000612289 -0.000456508
0.00470256 2.9939e-05 0.000344098
0.00440838 0.000225731 -1.48126e-05
0.00427558 -0.000216782 7.54248e-05
0.00445235 0.000205291 9.81659e-06
0.00451301 0.000263355 -1.1875e-05
0.00463437 8.12808e-05 0.000294848
0.00447154 7.81551e-06 8.22794e-05
0.00473981 -3.9374e-05 -0.000278532
0.00434173 0.000118549 0.000238305
0.00444355 0.000178492 1.50775e-05
0.00439083 0.000205673 4.36378e-06
0.00450098 0.000181527 -4.56886e-05
0.00473981 -4.3123e-05 -0.000277266
0.00438109 0.000113889 0.000244337
0.00449556 0.000164604 6.38105e-06
0.0046246 7.11551e-05 0.000302594
0.00441226 0.00015089 -1.37572e-05
0.00442298 0.000173438 7.69833e-06
0.00473418 -2.62905e-05 -0.000284775
0.00438107 5.65807e-05 8.0548e-05
0.00480122 -0.00037791 0.000267396
0.0045316 0.000205679 1.53177e-05
0.00472203 0.000112209 -0.00035238
0.00473102 -3.83133e-05 -0.000278268
0.00437993 4.37077e-05 8.28805e-05
0.00446643 0.000169173 1.85433e-05
0.00448074 0.000158388 2.40706e-05
0.00473787 -6.66593e-05 -0.000265563
0.00428131 0.00012088 0.000232355
0.0044899 0.000161605 -6.95872e-05
0.00438762 0.000115998 0.000245671
0.00474177 -3.7818e-05 -0.000280658
0.0043644 3.73246e-05 7.91218e-05
0.00467726 -9.67688e-06 -0.000210522
0.00474597 -1.12845e-05 -0.00029652
0.00444233 0.000236687 -2.55326e-06
0.00473245 -2.72203e-05 -0.000284362
0.00437074 6.96199e-05 8.01877e-05
0.00473841 -3.61671e-05 -0.000280007
0.00472223 -2.34159e-05 -0.000289648
0.00473993 -4.55591e-06 -0.000295801
0.00449769 0.000170742 -6.61041e-05
0.00445174 -1.06834e-05 8.47124e-05
0.00462363 -9.69675e-07 -0.000290043
0.0044532 0.000219777 4.60907e-07
0.00446141 9.57834e-05 -0.000142064
0.00473557 -3.10006e-05 -0.000282566
0.00433506 0.000120575 0.000236648
0.00442725 0.000156223 2.22016e-06
0.00472332 0.000125568 -0.000359038
0.00473818 -4.74981e-05 -0.000274705
0.00473603 2.7554e-05 0.000348986
0.00449378 0.000162534 2.38067e-05
0.00447251 0.000117485 0.000251048
0.00433636 0.000117153 0.000239992
0.00427933 -7.98829e-06 3.87018e-05
0.00442364 0.000181447 1.41473e-05
0.00447381 -1.83644e-05 8.33282e-05
0.00478246 0.000115018 -0.000359536
0.00447488 7.57424e-05 0.000290276
0.00472428 -2.67361e-05 -0.000284192
0.00444742 -1.23224e-05 8.32986e-05
0.00471541 -4.6504e-05 -0.000284114
0.00436377 3.94516e-05 8.12655e-05
0.0047307 4.09157e-06 -0.000299199
0.00459638 8.41022e-05 0.000290942
0.00443764 0.00020792 6.77036e-06
0.00445749 5.92652e-06 8.02301e-05
0.00465299 7.66292e-05 0.000300779
0.00438686 0.000180628 2.94893e-06
0.00435376 5.56447e-05 7.46253e-05
0.00443445 0.000238816 -3.25405e-07
0.00454568 5.7774e-05 0.000309736
0.00437454 -0.000381184 -0.00011468
0.00448077 0.000116802 0.000253638
0.00436438 3.72539e-05 8.07303e-05
0.00469326 3.47488e-05 0.000339294
0.00463006 5.03584e-05 0.000320967
0.00450115 0.000181109 -6.30411e-05
0.00436621 3.5664e-05 8.09465e-05
0.00444392 0.000174265 1.08866e-05
0.00439341 3.74056e-05 8.09894e-05
0.00443647 0.000177382 1.29782e-05
0.00469745 7.28117e-05 0.000307053
0.0047868 6.71973e-05 0.00031898
0.00436747 -0.00035031 7.51923e-05
0.00473902 -4.46505e-05 -0.000276275
0.00473671 -5.37505e-05 -0.000271192
0.00455551 0.000106015 0.000267947
0.00462866 6.18149e-05 -6.20561e-05
0.00452729 7.16763e-05 0.000286885
0.00448128 0.000223674 8.13248e-06
0.00475133 -3.55956e-05 -0.000279411
0.00446543 2.13585e-05 8.21232e-05
0.00472311 2.51206e-05 0.000349994
0.00473751 -3.26951e-05 -0.000282073
0.00436687 4.253e-05 8.17143e-05
0.00447384 -2.63312e-05 0.000102299
0.00429856 0.000116353 0.000238327
0.00455885 0.000173596 0.000198456
0.00447375 -2.27345e-05 6.37959e-05
0.0044364 0.000170488 1.90209e-05
0.004458 1.51097e-05 8.14514e-05
0.00462535 8.14159e-05 0.000294246
0.0046258 4.3812e-05 0.000326627
0.00461844 7.42558e-05 0.000300132
0.00436284 3.53846e-05 8.05007e-05
0.00445129 0.000120434 0.00024873
0.00440781 0.000229865 4.46229e-06
0.00473917 -3.97153e-05 -0.000278493
0.0043198 -0.000337242 7.21333e-05
0.00473052 -3.44543e-05 -0.000280812
0.00457724 8.89116e-05 0.000284546
0.004738 -3.38883e-05 -0.000281401
0.00473697 -5.56459e-05 -0.000269569
0.00473706 -4.97766e-05 -0.000272744
0.00449551 0.000164207 2.28009e-05
0.00454486 0.000106978 0.000265916
0.00445374 0.000168568 1.85858e-05
0.00436691 0.000117132 0.000243387
0.00424745 0.000128826 0.000222997
0.00430103 -0.000337613 7.24499e-05
0.00437136 0.000130786 0.000293375
0.00425684 -9.7684e-05 -0.000145847
0.00469742 4.85667e-05 0.000327937
0.00447555 2.23466e-05 6.79253e-05
0.00447822 9.97146e-06 7.94315e-05
0.00460832 9.34886e-05 0.000282441
0.00474276 2.30652e-05 0.000353545
0.00469364 -2.62962e-05 -0.000318251
0.004374 0.000227836 -4.34279e-06
0.00478392 6.64384e-05 0.000320295
0.00471212 6.32263e-05 0.000316262
0.00459149 -6.43149e-05 0.000408572
0.00470814 3.34898e-05 0.00034142
0.00432146 -0.000683975 0.00025731
0.00469125 6.63179e-05 0.000311201
0.00473858 3.65215e-05 0.000342206
0.00469012 -0.000749436 0.000283604
0.00435976 -0.000697964 0.000262622
0.00467672 7.21059e-05 0.000305738
0.00444883 -0.000698629 0.000267102
0.00441117 0.00017484 1.68541e-05
0.00456793 0.000123453 4.27471e-05
0.00461542 8.71779e-05 0.000287921
0.00473344 -3.51327e-05 -0.00028552
6.80542e-15 2.29884e-14 -7.03249e-14
0.00444751 -0.00070851 0.000267079
0.0043635 3.5858e-05 8.10393e-05
0.00441603 9.01768e-05 0.000288968
0.0045528 9.09751e-05 0.000279154
0.00446533 1.32698e-05 8.41229e-05
0.00436354 -0.000373603 -0.000112416
0.00444822 4.1175e-05 0.000125721
0.00436007 3.31362e-05 8.29182e-05
0.00448935 0.000185726 1.44781e-05
0.00476377 6.05013e-05 0.000323597
0.00447222 6.99723e-05 8.31033e-05
0.00444289 -0.000698113 0.000265975
0.00447805 8.70509e-05 0.000290462
0.00457818 0.000102739 0.000272949
0.00473793 -5.59128e-05 -0.000270009
0.00436322 3.67449e-05 8.04328e-05
0.00433102 6.23229e-05 7.66612e-05
0.00437147 3.42331e-05 8.06469e-05
0.00447612 -2.349e-06 8.3656e-05
0.00456753 1.49544e-05 0.000352227
0.00441702 3.82767e-05 7.97746e-05
0.00446937 2.10372e-05 7.96473e-05
0.0044893 -4.9526e-05 6.74181e-05
0.00439744 2.70477e-05 8.46509e-05
0.00451687 9.38373e-05 0.000268168
0.00483539 -6.22222e-05 -0.000257626
-1.28438e-14 6.09078e-14 -1.90218e-13
0.0042482 -0.000652033 0.000252453
0.0043631 3.46416e-05 7.99727e-05
0.00423397 -0.00065367 0.000251799
0.00444497 -0.00069914 0.000266589
0.00464624 0.000145843 0.000239404
0.00473365 6.00045e-05 0.000320534
0.00445428 1.09975e-05 8.37461e-05
0.00449186 0.000173947 1.82357e-05
0.00439219 9.10676e-05 0.000233409
0.00445535 -2.55613e-06 8.33613e-05
0.00447011 6.78542e-05 7.77767e-05
0.00421365 -0.000142299 -2.42162e-05
0.00449795 0.000169157 -1.93064e-05
0.00458895 9.26264e-05 0.000280301
0.0046638 3.95308e-05 0.000333169
0.0047373 -4.45677e-05 -0.000276466
0.00437199 0.000192038 -1.38187e-05
0.00444688 1.64125e-05 8.29214e-05
0.00449081 0.000185097 1.46934e-05

VECTORS force float
3.44187e-11 7.27256e-11 -3.42696e-11
-3.7684e-11 2.02554e-10 1.82947e-10
-9.33388e-11 -8.78869e-11 3.26973e-11
3.58122e-11 -1.10223e-10 4.65308e-11
-1.73474e-10 -1.44961e-10 2.38455e-10
2.10787e-11 -3.64165e-11 1.80679e-11
-5.1938e-12 1.74112e-10 -4.57591e-11
-6.74414e-12 -1.21932e-10 2.97283e-10
-1.00875e-11 5.40148e-11 4.30465e-12
3.31204e-11 -5.16074e-11 7.64836e-12
-1.06235e-10 3.40647e-11 -6.26732e-12
-2.49957e-11 7.4441e-11 1.92345e-10
7.73944e-11 1.65756e-10 -5.28128e-11
3.8373e-12 -8.51078e-11 7.42292e-11
1.76484e-11 2.37289e-11 -9.55584e-12
-2.53677e-11 4.56991e-11 -4.98777e-11
-2.70935e-11 5.90933e-11 -1.2079e-11
-1.74233e-10 -2.11841e-10 2.04467e-11
2.32177e-10 -9.59637e-11 2.70276e-10
-9.69612e-11 -1.15472e-10 2.28369e-10
2.59097e-11 2.85017e-11 1.37229e-10
1.48849e-12 -3.60907e-11 2.9664e-11
-1.78784e-11 -7.84103e-11 -1.57414e-11
-4.48992e-11 -4.77039e-11 2.56553e-11
-7.98729e-11 3.21424e-12 -4.9056e-12
8.38307e-12 3.99707e-11 2.9548e-11
2.81628e-11 1.65296e-11 -1.02698e-11
7.11164e-11 -9.73839e-12 4.26758e-11
3.26117e-10 8.13491e-11 -1.90731e-11
-1.19397e-10 -2.78549e-11 1.32232e-11
-6.14107e-11 -2.16165e-10 7.99281e-11
5.10225e-11 5.82849e-11 -1.5138e-11
-6.44668e-11 5.77533e-11 -1.18652e-11
-3.7403e-11 3.03279e-10 1.70145e-10
1.67731e-10 1.18875e-10 -8.81559e-11
1.16051e-10 1.22968e-10 -4.92162e-11
2.71206e-10 -1.27344e-10 -4.90629e-12
2.88652e-10 -2.05979e-10 5.02106e-11
-4.39637e-12 3.42655e-11 -5.49815e-12
-9.33969e-11 2.92177e-11 1.06984e-10
4.24077e-12 -1.59067e-11 1.34058e-11
-9.18888e-11 5.60519e-12 -1.01057e-11
-4.44713e-11 -8.1806e-11 1.23303e-10
-4.36677e-10 6.0522e-11 -5.59554e-11
-6.25865e-11 -5.67719e-11 3.68196e-11
5.61212e-11 -5.59422e-11 4.52083e-11
-2.83453e-11 -8.06105e-11 1.69479e-11
-7.16624e-11 1.08224e-10 -4.95856e-11
7.69121e-11 -4.33744e-12 -3.07813e-12
2.37493e-11 -3.84099e-11 3.37236e-11
4.04588e-11 -3.0862e-11 3.60201e-11
-2.47573e-11 9.01761e-11 3.21227e-10
-6.55906e-12 -3.42408e-11 -3.84804e-11
1.2985e-11 -1.53419e-10 1.68274e-10
-1.5367e-10 1.38969e-11 3.59811e-12
2.69074e-11 2.83398e-11 2.33237e-11
-8.1077e-11 -7.38066e-12 1.76052e-12
2.05068e-11 -1.15991e-10 4.56898e-11
8.67534e-11 1.12936e-10 -7.41146e-12
-1.33102e-11 -7.46741e-11 3.6766e-11
4.10702e-11 -7.15796e-11 6.90559e-11
-1.51114e-10 1.26056e-10 -6.10659e-11
7.36399e-11 -9.33336e-12 -2.78355e-13
-2.62772e-11 -3.94528e-11 2.66233e-11
-3.4693e-12 3.50755e-11 1.38673e-12
5.82252e-11 2.89337e-11 9.75098e-11
-5.81302e-11 -5.48666e-11 3.36745e-11
5.40536e-11 2.64336e-10 2.20505e-10
2.70711e-11 4.97982e-11 -3.7226e-12
1.84948e-11 -1.15944e-11 3.07903e-11
8.03438e-12 4.00705e-12 1.07559e-11
1.8736e-10 -1.04631e-10 9.63666e-11
4.714e-10 -1.45042e-10 6.79285e-11
-7.00289e-11 6.91609e-11 5.40006e-13
7.47598e-11 -5.34905e-11 5.57495e-11
7.97137e-11 -1.20681e-11 1.45761e-11
-3.70835e-11 5.81163e-11 -1.24095e-11
6.89592e-11 -1.45845e-11 2.77032e-11
4.88398e-11 7.70027e-11 -2.14541e-11
3.77761e-11 5.59239e-11 -1.07086e-11
-1.97255e-10 1.04563e-10 -3.73694e-11
-1.48892e-10 2.36903e-10 -7.93877e-11
-1.87618e-10 2.42116e-11 -1.15997e-12
2.66973e-11 3.55991e-12 7.43136e-12
-2.92174e-10 3.04581e-10 -1.26558e-10
6.7277e-10 -1.70287e-10 1.7749e-11
-1.28621e-10 -1.18491e-10 6.48759e-11
3.12187e-11 7.08313e-11 -2.66908e-11
2.94094e-10 -3.88957e-10 6.6511e-11
-1.5032e-08 1.29753e-08 3.16735e-08
-9.9747e-11 -3.64181e-12 -6.39761e-12
-1.00941e-10 1.51794e-10 -3.08172e-11
1.33835e-10 5.32559e-12 6.33538e-11
-6.16604e-11 -4.88428e-11 2.19617e-11
3.29838e-10 3.75509e-11 1.03128e-10
4.29115e-11 -1.39351e-10 1.21944e-10
-3.73993e-11 1.41257e-10 -6.76411e-12
1.60932e-11 8.77023e-11 -4.60863e-11
4.08805e-12 -1.53477e-11 6.07253e-11
3.50748e-11 1.11957e-10 -5.25742e-11
-7.37476e-11 -2.08791e-10 3.93228e-11
1.97633e-12 -1.62982e-11 1.82987e-10
-2.98391e-11 -9.94573e-11 4.78047e-11
-3.18557e-11 5.37192e-11 -5.60077e-11
2.81805e-11 -3.74369e-11 -9.37238e-11
5.20953e-11 -5.43572e-11 4.22129e-11
-1.40957e-10 -3.18777e-11 3.46829e-11
-3.30794e-11 -2.70435e-10 -1.38203e-11
-1.08305e-12 6.45224e-11 -3.6414e-11
-4.99656e-11 1.2332e-10 -1.0335e-11
1.52438e-11 2.44948e-11 -1.34658e-11
6.1716e-10 -4.17331e-10 -1.09929e-10
2.39014e-11 3.5839e-10 -1.7675e-10
-5.82594e-11 -9.69905e-11 5.38309e-11
-7.43046e-11 -5.37564e-11 4.88029e-12
-1.35198e-10 -6.28151e-11 3.87749e-11
7.2618e-11 6.6797e-11 -2.56105e-11
-6.16529e-11 -1.83585e-10 1.0408e-10
2.84493e-11 -7.76299e-11 7.41922e-11
2.49926e-12 -5.37663e-11 -2.93973e-11
-3.90575e-11 6.88434e-11 -5.91625e-11
-2.5733e-11 -7.77902e-11 5.48553e-11
-3.33585e-11 -4.53057e-11 6.53278e-12
-7.92889e-10 2.58656e-10 2.93629e-10
-2.40663e-10 -4.73132e-10 2.46479e-10
7.36839e-11 7.7579e-11 -1.68938e-11
-1.3024e-10 1.3952e-11 -2.40591e-12
-4.6736e-11 -1.68242e-10 1.05795e-11
7.39924e-12 4.82183e-11 -2.51739e-11
8.21366e-12 -1.91245e-10 1.00497e-10
-2.2851e-11 1.30531e-10 -6.51072e-11
1.50018e-11 8.84245e-12 -2.2562e-11
-6.7654e-11 -6.61761e-11 -1.75061e-11
4.11944e-10 4.23056e-11 -3.77309e-11
-3.98695e-11 -1.13793e-10 1.25397e-10
6.03606e-10 -4.74193e-11 -1.81799e-10
-5.21835e-11 -1.18735e-11 4.75372e-12
3.39256e-11 3.72696e-12 5.83227e-12
1.23257e-11 -1.40845e-12 3.79267e-10
-1.96499e-10 4.19428e-10 -1.95292e-10
2.76223e-11 6.68306e-11 -4.319e-11
6.26541e-11 5.02743e-11 -3.72526e-11
1.21467e-10 -2.33796e-11 -6.80345e-12
7.55295e-11 2.52363e-11 1.39541e-11
-1.19184e-10 -1.75829e-11 3.16508e-11
-1.16942e-10 1.16276e-10 5.05714e-11
2.21247e-11 -5.80137e-13 1.51439e-11
-1.25459e-10 3.89338e-11 -9.24324e-13
-2.26485e-10 2.2763e-10 -1.26058e-10
-1.04866e-10 7.49561e-11 -2.53027e-11
-1.28986e-10 -4.07039e-11 2.35635e-11
8.52256e-11 -7.08899e-11 -8.1194e-12
-4.93636e-10 -1.19795e-10 -6.05643e-11
-2.36577e-11 -3.04054e-11 5.17443e-12
-8.87966e-11 8.81488e-11 -3.49668e-11
5.09942e-11 1.07799e-12 9.78043e-12
6.19141e-11 1.34983e-10 -7.80459e-12
7.59628e-11 1.03982e-10 4.44632e-12
-8.60558e-12 -1.94126e-11 2.9259e-11
1.52502e-10 -3.40943e-12 3.4035e-11
-1.63037e-10 9.207e-12 -3.01589e-11
-1.59001e-10 1.21415e-11 2.97924e-11
-5.3405e-11 1.28006e-10 -1.08049e-10
-1.02595e-10 -2.94582e-11 2.25446e-11
3.19147e-11 2.52017e-11 -4.82866e-11
-7.16721e-11 1.18056e-11 -5.03971e-12
-3.94701e-11 1.29866e-10 -1.12076e-10
1.65953e-11 -4.61847e-11 4.21331e-11
6.51551e-11 3.2443e-11 5.43241e-11
-8.63836e-11 6.75782e-12 -3.99988e-12
4.60301e-11 -1.42564e-11 -4.95116e-11
1.82587e-13 8.51464e-11 3.24724e-12
1.51437e-11 9.68326e-11 1.74512e-11
-5.71889e-11 -5.58437e-11 3.75276e-11
-1.10001e-11 -2.38295e-11 2.76186e-11
-1.01343e-10 3.7189e-11 -1.2483e-11
1.79132e-11 7.9535e-11 -4.27668e-11
2.46325e-11 3.81394e-11 -1.95376e-11
5.25935e-11 4.0918e-11 -5.11134e-11
-5.55262e-10 2.8099e-10 2.22572e-10
-7.93523e-13 -2.25843e-10 1.9253e-10
2.31811e-10 -1.63214e-11 8.58861e-12
8.86721e-11 -5.68498e-12 6.41083e-12
-1.7938e-13 1.54095e-10 5.55628e-11
-4.29505e-11 2.14531e-12 -3.949e-12
1.00001e-11 8.57596e-11 -3.61614e-11
-9.54164e-12 -9.61106e-11 9.34821e-12
2.10603e-10 2.03716e-10 3.83802e-11
1.39969e-10 -6.14949e-11 7.43843e-11
7.82392e-13 1.62828e-10 -1.66672e-10
-2.03415e-10 6.37194e-12 -7.56278e-11
1.17654e-10 1.95639e-10 -5.11613e-11
3.3048e-11 1.86522e-10 6.21176e-13
2.01757e-11 -8.3491e-12 1.82308e-11
-2.01118e-11 1.64794e-10 -1.6474e-10
9.68171e-11 -7.52759e-11 6.65265e-11
-5.44301e-11 -1.26331e-10 -7.37117e-13
-1.11709e-10 9.92454e-12 1.42977e-11
2.15156e-11 -1.23575e-10 -4.34271e-11
1.32962e-11 7.30783e-11 -3.44037e-11
7.46602e-11 -4.79715e-11 1.49042e-11
-1.20375e-10 -5.58327e-11 4.1251e-11
1.79404e-11 2.54333e-11 -6.60385e-12
-2.70627e-11 1.31729e-11 -2.61288e-12
-9.45855e-11 -5.24325e-11 2.84915e-11
-6.04841e-11 -9.16113e-11 5.11073e-11
9.90655e-12 -3.30714e-11 -2.09667e-12
4.18178e-11 6.16834e-11 -1.90831e-11
1.39621e-11 8.89295e-11 -7.0542e-12
-9.14246e-12 2.81003e-11 1.02593e-11
-5.68545e-11 -3.87814e-11 2.87061e-11
-1.39957e-11 2.33329e-12 -6.68761e-12
-3.9764e-10 -1.52864e-10 6.72836e-12
-7.94703e-10 1.1653e-10 5.87403e-11
-3.01471e-11 -9.45944e-11 8.25148e-11
-2.3568e-11 1.9284e-10 6.8836e-11
1.14586e-10 3.15765e-10 -1.12209e-10
5.51606e-11 4.9856e-11 -3.61937e-11
8.11381e-11 -2.08344e-11 3.00806e-11
-7.88605e-10 3.28226e-11 1.35167e-11
-1.66322e-10 1.09771e-10 -4.82846e-11
4.29488e-11 2.02851e-11 2.89328e-11
-6.46547e-11 -1.04292e-10 4.96379e-11
-2.66088e-10 -2.57043e-11 -2.01132e-10
-2.8868e-11 -5.91593e-11 7.77804e-11
5.49142e-11 2.63298e-11 2.6031e-11
-2.66985e-11 -9.8528e-11 6.40635e-11
5.81671e-11 -1.03473e-10 8.47808e-11
-2.28962e-11 -2.6976e-11 1.17821e-11
1.97707e-10 -1.99771e-11 4.39109e-11
4.38113e-11 -1.61931e-11 4.67975e-11
-9.03088e-11 3.63843e-12 1.7676e-12
2.45491e-10 1.06768e-11 5.28741e-12
1.7181e-10 1.53021e-10 -8.94625e-12
6.68544e-11 5.78542e-11 -2.29727e-11
2.91021e-10 8.81213e-11 -4.78331e-11
1.32349e-23 1.42689e-23 3.10193e-24
-1.60967e-10 -9.14347e-12 7.62127e-12
1.60639e-11 4.89134e-11 9.32797e-12
1.77179e-10 7.01699e-11 -1.55941e-11
1.24705e-11 -1.15627e-12 -4.50248e-11
-3.3653e-11 1.51597e-10 -3.23458e-11
1.47458e-10 1.42055e-10 -5.19578e-11
-3.85812e-10 5.82477e-11 8.42651e-11
-3.64173e-11 6.9843e-11 1.35344e-11
-4.32469e-11 -2.92944e-12 -1.08254e-12
6.63701e-11 -3.27187e-11 4.82375e-11
-2.77915e-12 1.50951e-10 -1.19492e-10
-2.28891e-11 2.0492e-11 -7.36035e-12
-3.07853e-10 -1.04678e-10 1.54813e-10
-3.78574e-11 9.65869e-12 -5.18884e-11
-1.22503e-11 -3.90661e-12 3.12672e-12
-6.00639e-11 9.6799e-11 -2.79004e-12
1.55204e-10 -1.0064e-10 -3.59479e-11
-1.51786e-10 5.75097e-11 -2.59414e-12
-6.94087e-11 1.34779e-10 -3.64916e-11
1.35478e-10 2.41508e-10 -1.27797e-10
-2.55091e-10 1.26339e-10 -8.39095e-12
-2.02918e-11 1.55565e-10 -3.78355e-11
1.27677e-10 2.03278e-10 -3.86524e-11
-6.07658e-11 1.27893e-10 -1.36892e-11
-7.02562e-11 -1.5503e-10 9.23471e-11
1.48961e-10 1.22258e-10 -4.30457e-10
9.11475e-22 2.03176e-22 5.58347e-24
1.89287e-11 -2.58822e-11 7.2195e-12
-2.46497e-11 -5.97359e-11 8.73251e-12
-2.83724e-11 -6.14595e-11 5.14125e-12
5.7023e-11 6.96705e-11 -2.98829e-12
-6.88042e-11 1.21401e-11 -3.77927e-11
2.2388e-11 -4.06415e-11 3.2292e-11
2.27214e-11 1.70064e-10 -3.74813e-11
5.2836e-11 -5.31659e-11 2.47516e-11
-4.18809e-10 -1.34468e-10 -8.47046e-11
-8.11363e-12 1.75488e-11 2.68092e-12
-9.6384e-11 1.71688e-10 6.31531e-11
-7.32318e-11 3.09162e-12 -4.86058e-12
1.72786e-11 -3.85536e-11 -2.76339e-11
1.6464e-11 -3.64904e-11 6.12503e-11
-2.21481e-11 -3.2511e-11 2.42558e-11
-8.95879e-11 -1.49839e-10 5.0592e-11
-2.1607e-10 -3.27962e-10 -2.47046e-10
9.37869e-11 1.35617e-10 7.81347e-12
4.49532e-11 5.16713e-12 9.78338e-13
