# vtk DataFile Version 3.0
LIGGGHTS particles timestep 11400000
ASCII
DATASET POLYDATA
POINTS 289 float
0.0653538 0.016713 0.00769367
0.0656627 0.0176228 0.00705478
0.0654969 0.0175254 0.00721706
0.065582 0.0176794 0.00702169
0.0649866 0.0163533 0.00795095
0.0709943 0.016367 0.00790554
0.0651236 0.0169159 0.00755762
0.0649661 0.0162731 0.00800704
0.0712796 0.0175926 0.00722901
0.0652611 0.0174879 0.00726431
0.0653541 0.0171304 0.00740396
0.0712408 0.0173964 0.00722369
0.0652364 0.0174063 0.00732047
0.0588314 0.0159407 0.00852537
0.0652763 0.0171827 0.00736925
0.0588099 0.0158717 0.00859449
0.0651993 0.0172525 0.00743162
0.0711857 0.0171243 0.00728114
0.0651601 0.0170893 0.00754437
0.0654916 0.0172755 0.00730042
0.0650071 0.0164335 0.00789486
0.0652569 0.0171028 0.00742619
0.071204 0.0171999 0.00721836
0.0652376 0.017022 0.00748179
0.0710906 0.0167466 0.00759467
0.0591611 0.017038 0.00747564
0.0651796 0.0171703 0.00748809
0.0709739 0.0162903 0.00796628
0.0653671 0.0174039 0.00731779
0.065201 0.0172375 0.00733277
0.0710144 0.0164439 0.00784474
0.0654058 0.0175653 0.00720622
0.0652952 0.0168883 0.00757323
0.0713011 0.0176902 0.00723166
0.0651043 0.0168355 0.00761383
0.0652183 0.0169418 0.00753833
0.0711284 0.0168977 0.00746923
0.065143 0.0169963 0.00750141
0.0652356 0.0166455 0.00774298
0.0651623 0.0170767 0.00744519
0.0653932 0.0172912 0.00729157
0.0657063 0.0178134 0.00702478
0.0710338 0.01652 0.00778284
0.0711095 0.0168222 0.00753204
0.0650463 0.0165942 0.00778248
0.065472 0.0171951 0.00735661
0.0710723 0.0166711 0.00765759
0.0653724 0.0175861 0.00708729
0.0594303 0.0170241 0.00744397
0.0711473 0.0169733 0.00740651
0.0653938 0.0168736 0.00758138
0.0588529 0.0160097 0.00845624
0.0654237 0.0176457 0.00714951
0.0710529 0.0165955 0.00772012
0.0591738 0.0167723 0.00769338
0.0712224 0.0172982 0.00722102
0.0654527 0.0171147 0.00741282
0.065027 0.0165138 0.00783869
0.0653735 0.0172108 0.00734775
0.0655686 0.017597 0.00707669
0.0711665 0.0170488 0.00734383
0.0649455 0.0161929 0.00806313
0.0593165 0.0169265 0.00754155
0.0655116 0.0173605 0.00725177
0.0592722 0.0167926 0.00767461
0.0651817 0.0171571 0.00738898
0.0713227 0.0177878 0.00723432
0.0588744 0.0160786 0.00838712
0.07126 0.0174945 0.00722635
0.0650656 0.0166747 0.00772626
0.0657627 0.0176554 0.0070291
0.0650849 0.0167551 0.00767004
0.0712612 0.0170737 0.00732293
0.0654908 0.0185255 0.00705913
0.0589175 0.0162166 0.00824889
0.0590315 0.0165607 0.00790453
0.0655309 0.0179028 0.00702584
0.0591498 0.0166785 0.00786435
0.0591671 0.0170789 0.00738456
0.0589398 0.0162855 0.00817988
0.071242 0.0169982 0.00738563
0.0589914 0.0161697 0.00829732
0.0653193 0.0177463 0.00705336
0.0713547 0.0175266 0.00722738
0.0654356 0.0178724 0.00702805
0.0654854 0.017705 0.00702517
0.0654686 0.0176138 0.00706603
0.0653154 0.0173436 0.00725706
0.0656483 0.0179719 0.00702515
0.0655432 0.0183607 0.00704868
0.0654123 0.0177733 0.0070267
0.0654694 0.0184279 0.00705501
0.0655527 0.0180009 0.00702997
0.0655003 0.0181655 0.00704043
0.0592291 0.0169323 0.0075939
0.0657436 0.0180023 0.00702372
0.0593286 0.0166798 0.00778912
0.0652399 0.0173986 0.00722083
0.0653347 0.01705 0.0074602
0.0593488 0.017065 0.0074015
0.058896 0.0161476 0.008318
0.0652783 0.0175583 0.00710672
0.0589483 0.0160317 0.00843556
0.0653874 0.0174847 0.00726249
0.0654136 0.0173715 0.00723538
0.0653405 0.0178424 0.00703561
0.0654479 0.0183303 0.00705088
0.0590985 0.0168275 0.00765757
0.0653622 0.01794 0.00703439
0.0592236 0.0172984 0.00718974
0.0655301 0.017607 0.00716969
0.065606 0.0173811 0.00722475
0.064925 0.0161127 0.00811922
0.0592988 0.0172608 0.00724384
0.0709535 0.0162135 0.00802702
0.0653147 0.0169689 0.00751688
0.0649044 0.0160325 0.00817531
0.0656912 0.0181671 0.00703298
0.0590838 0.0164451 0.00802152
0.0656171 0.0182936 0.00704235
0.0651603 0.0167008 0.00770718
0.0652956 0.0172635 0.00731357
0.0589866 0.0164229 0.0080423
0.0653943 0.0176805 0.0070605
0.0592529 0.0170345 0.00743068
0.0652203 0.0173179 0.00727656
0.0593388 0.0169948 0.00747202
0.0656833 0.0177161 0.00702518
0.0651989 0.016862 0.00759543
0.0654319 0.0174524 0.00717883
0.0653733 0.0167934 0.00763747
0.0589268 0.0159627 0.00850468
0.0655956 0.018196 0.00703822
0.0655076 0.0178033 0.00702206
0.0654498 0.0175333 0.0071223
0.0654788 0.018068 0.0070363
0.0590136 0.0162386 0.00822832
0.0653357 0.0174244 0.00720174
0.0653547 0.0175054 0.00714366
0.0652988 0.0176538 0.00708531
0.0657864 0.0181975 0.00703077
0.0589698 0.0161007 0.00836644
0.0652604 0.0174788 0.00716473
0.0654574 0.0179704 0.00703218
0.0648839 0.0159523 0.0082314
0.0593475 0.0174455 0.00718548
0.0648633 0.0158721 0.00828749
0.0592047 0.0172176 0.00724549
0.0590617 0.016679 0.00778557
0.0593076 0.0168717 0.00762474
0.0655075 0.0183139 0.00712952
0.0592305 0.0169656 0.00749964
0.0651216 0.0165395 0.00781894
0.0594642 0.0175733 0.00718168
0.0656075 0.0186535 0.00706105
0.0594508 0.0170933 0.00737468
0.0655337 0.0187206 0.00706738
0.0593795 0.0172044 0.00726157
0.0652549 0.0167259 0.00768676
0.0592334 0.0166541 0.00781346
0.065405 0.0181351 0.0070427
0.0596695 0.0176534 0.00717786
0.0593266 0.0173533 0.00721796
0.0656697 0.0180695 0.00702886
0.0596173 0.0178186 0.00717517
0.0657126 0.0182647 0.0070371
0.0594188 0.0173754 0.00718609
0.0595892 0.0171681 0.00730158
0.0591327 0.0169501 0.00751374
0.0594602 0.0171635 0.00730412
0.0593668 0.0171344 0.00733185
0.0592416 0.0173968 0.0071876
0.0653836 0.0180376 0.00703851
0.0591266 0.016583 0.00788325
0.0651796 0.0167807 0.0076503
0.0595529 0.0175258 0.00718165
0.0656442 0.017542 0.00711205
0.0593689 0.0175432 0.00718332
0.0590541 0.0166556 0.00788249
0.0713442 0.0178854 0.00723697
0.0657339 0.0184211 0.00704423
0.0654331 0.0170343 0.00746901
0.0592604 0.017495 0.00718546
0.0656385 0.0183912 0.00704647
0.0592819 0.0175926 0.00718332
0.0655742 0.0180985 0.0070341
0.0650821 0.0163784 0.00793156
0.059691 0.0177511 0.00717569
0.0592266 0.0165837 0.0078842
0.0650613 0.016298 0.00798779
0.0591553 0.0167106 0.0077698
0.0596196 0.0174512 0.00718239
0.0590095 0.0164916 0.00797341
0.0594983 0.0181289 0.00717035
0.0594596 0.017261 0.00728216
0.0652744 0.0168065 0.00763043
0.059487 0.017354 0.00725752
0.0591858 0.0171484 0.00731514
0.0593823 0.0172749 0.00719067
0.0593498 0.0167488 0.00771995
0.0595741 0.0176235 0.00718234
0.0591182 0.0169096 0.00760403
0.0656248 0.0174617 0.00716843
0.0655646 0.0184583 0.0070528
0.0713031 0.0172391 0.00721959
0.0654265 0.0182327 0.00704676
0.0592636 0.0171046 0.00736023
0.0592825 0.017174 0.00729069
0.065765 0.0180999 0.00702665
0.0655551 0.0188182 0.00707151
0.0655217 0.0182631 0.00704455
0.0651409 0.0166199 0.00776273
0.0591058 0.016514 0.00795248
0.0651023 0.0164591 0.00787516
0.0590792 0.0167485 0.00771585
0.058963 0.0163542 0.00811105
0.0712805 0.0171502 0.00725943
0.0595083 0.0177697 0.00717733
0.0587883 0.0158027 0.00866361
0.0593904 0.0176408 0.00718116
0.0591915 0.0168439 0.00762165
0.0597343 0.0179463 0.00717137
0.0593252 0.017788 0.00717897
0.059251 0.0167236 0.00774374
0.065586 0.0185559 0.00705693
0.0656269 0.0178742 0.00702545
0.0594763 0.0184715 0.00716383
0.0594115 0.0181786 0.00717032
0.0596166 0.0182581 0.00716651
0.059412 0.0177384 0.007179
0.0531179 0.0168834 0.00753482
0.0593899 0.018081 0.00717248
0.0594335 0.0178361 0.00717684
0.0530983 0.0167934 0.00757371
0.0531376 0.0169734 0.00749593
0.0594551 0.0179337 0.00717467
0.0531778 0.0171532 0.00741818
0.0650202 0.0161376 0.00809999
0.0656599 0.0184888 0.0070506
0.0593468 0.0178858 0.00717681
0.0650408 0.0162178 0.0080439
0.0654134 0.016954 0.00752519
0.0531572 0.0170634 0.00745704
0.0595291 0.0174378 0.00722274
0.0594868 0.017672 0.00717949
0.0593847 0.0168151 0.00765374
0.0593684 0.0179834 0.00717464
0.0597559 0.0180439 0.00716921
0.059595 0.0181605 0.00716867
0.0596487 0.0175544 0.00718004
0.0656041 0.0177769 0.00702126
0.0594547 0.0183739 0.007166
0.0596821 0.0181114 0.00716868
0.0532474 0.017449 0.00729011
0.0595199 0.0182265 0.00716819
0.0593036 0.0176904 0.00718114
0.0656289 0.0187511 0.00706517
0.0594197 0.016954 0.00751444
0.0595957 0.017721 0.00717733
0.0595515 0.0179649 0.007173
0.0595734 0.0180629 0.00717083
0.059563 0.0184217 0.00716386
0.0596382 0.0183557 0.00716434
0.0595299 0.0178673 0.00717516
0.0596605 0.0180138 0.00717084
0.0597126 0.0178487 0.00717353
0.0594979 0.0185691 0.00716167
0.0655123 0.0186231 0.00706326
0.0531989 0.0172429 0.00737935
0.053308 0.0173746 0.00731815
0.0594819 0.0172831 0.00718721
0.0532684 0.0175387 0.00725127
0.05322 0.0173326 0.00734051
0.0594767 0.0180313 0.00717251
0.0594331 0.0182762 0.00716816
0.0596388 0.0179162 0.00717301
0.0653001 0.017568 0.00720383
0.0595415 0.0183241 0.00716603
0.059037 0.0163075 0.00815931
0.0597037 0.0182091 0.00716652
0.0595551 0.017234 0.00723462
0.065549 0.0175162 0.00713225
0.0595846 0.0185194 0.0071617
0.0590609 0.0163763 0.00809041
0.0655354 0.0176869 0.00710985
0.0655863 0.0173007 0.00728094
0.0594428 0.0174756 0.00718384
0.0593978 0.0168851 0.0075835
0.0655304 0.0174356 0.00718846

VERTICES 289 578
1 0
1 1
1 2
1 3
1 4
1 5
1 6
1 7
1 8
1 9
1 10
1 11
1 12
1 13
1 14
1 15
1 16
1 17
1 18
1 19
1 20
1 21
1 22
1 23
1 24
1 25
1 26
1 27
1 28
1 29
1 30
1 31
1 32
1 33
1 34
1 35
1 36
1 37
1 38
1 39
1 40
1 41
1 42
1 43
1 44
1 45
1 46
1 47
1 48
1 49
1 50
1 51
1 52
1 53
1 54
1 55
1 56
1 57
1 58
1 59
1 60
1 61
1 62
1 63
1 64
1 65
1 66
1 67
1 68
1 69
1 70
1 71
1 72
1 73
1 74
1 75
1 76
1 77
1 78
1 79
1 80
1 81
1 82
1 83
1 84
1 85
1 86
1 87
1 88
1 89
1 90
1 91
1 92
1 93
1 94
1 95
1 96
1 97
1 98
1 99
1 100
1 101
1 102
1 103
1 104
1 105
1 106
1 107
1 108
1 109
1 110
1 111
1 112
1 113
1 114
1 115
1 116
1 117
1 118
1 119
1 120
1 121
1 122
1 123
1 124
1 125
1 126
1 127
1 128
1 129
1 130
1 131
1 132
1 133
1 134
1 135
1 136
1 137
1 138
1 139
1 140
1 141
1 142
1 143
1 144
1 145
1 146
1 147
1 148
1 149
1 150
1 151
1 152
1 153
1 154
1 155
1 156
1 157
1 158
1 159
1 160
1 161
1 162
1 163
1 164
1 165
1 166
1 167
1 168
1 169
1 170
1 171
1 172
1 173
1 174
1 175
1 176
1 177
1 178
1 179
1 180
1 181
1 182
1 183
1 184
1 185
1 186
1 187
1 188
1 189
1 190
1 191
1 192
1 193
1 194
1 195
1 196
1 197
1 198
1 199
1 200
1 201
1 202
1 203
1 204
1 205
1 206
1 207
1 208
1 209
1 210
1 211
1 212
1 213
1 214
1 215
1 216
1 217
1 218
1 219
1 220
1 221
1 222
1 223
1 224
1 225
1 226
1 227
1 228
1 229
1 230
1 231
1 232
1 233
1 234
1 235
1 236
1 237
1 238
1 239
1 240
1 241
1 242
1 243
1 244
1 245
1 246
1 247
1 248
1 249
1 250
1 251
1 252
1 253
1 254
1 255
1 256
1 257
1 258
1 259
1 260
1 261
1 262
1 263
1 264
1 265
1 266
1 267
1 268
1 269
1 270
1 271
1 272
1 273
1 274
1 275
1 276
1 277
1 278
1 279
1 280
1 281
1 282
1 283
1 284
1 285
1 286
1 287
1 288

POINT_DATA 289
SCALARS id int 1
LOOKUP_TABLE default
1
2
3
4
5
6
7
8
9
10
11
12
13
14
15
16
17
18
19
20
21
22
24
25
26
27
29
30
31
32
33
34
35
36
37
38
39
40
41
42
43
44
45
46
47
48
49
50
52
53
54
55
56
57
58
59
60
61
62
63
64
65
66
67
68
69
70
71
72
73
74
75
76
77
78
79
80
81
82
83
84
85
86
87
88
89
90
91
92
93
94
95
96
98
99
100
101
102
103
104
105
106
107
108
109
110
111
112
113
114
115
116
117
118
119
120
121
122
123
124
125
126
127
128
129
130
131
132
133
134
135
136
137
138
139
140
141
142
144
145
146
147
148
149
150
152
153
154
155
156
157
158
159
160
161
162
164
165
166
167
168
169
170
171
172
173
174
175
176
177
178
179
180
181
182
183
184
185
186
187
188
189
190
191
192
193
194
195
196
197
198
199
200
201
202
203
204
205
206
207
208
209
210
211
213
214
215
216
217
218
219
220
221
222
223
224
225
226
227
228
229
230
231
232
233
234
235
236
237
238
239
241
242
243
244
245
246
247
248
249
250
251
252
253
254
255
256
257
258
259
260
261
262
263
264
265
267
268
269
270
271
272
273
274
275
276
277
278
279
280
281
282
283
284
285
286
287
288
289
290
292
293
294
295
296
297
298
299
300

SCALARS type int 1
LOOKUP_TABLE default
1
1
1
1
1
1
1
1
1
1
1
1
1
1
1
1
1
1
1
1
1
1
1
1
1
1
1
1
1
1
1
1
1
1
1
1
1
1
1
1
1
1
1
1
1
1
1
1
1
1
1
1
1
1
1
1
1
1
1
1
1
1
1
1
1
1
1
1
1
1
1
1
1
1
1
1
1
1
1
1
1
1
1
1
1
1
1
1
1
1
1
1
1
1
1
1
1
1
1
1
1
1
1
1
1
1
1
1
1
1
1
1
1
1
1
1
1
1
1
1
1
1
1
1
1
1
1
1
1
1
1
1
1
1
1
1
1
1
1
1
1
1
1
1
1
1
1
1
1
1
1
1
1
1
1
1
1
1
1
1
1
1
1
1
1
1
1
1
1
1
1
1
1
1
1
1
1
1
1
1
1
1
1
1
1
1
1
1
1
1
1
1
1
1
1
1
1
1
1
1
1
1
1
1
1
1
1
1
1
1
1
1
1
1
1
1
1
1
1
1
1
1
1
1
1
1
1
1
1
1
1
1
1
1
1
1
1
1
1
1
1
1
1
1
1
1
1
1
1
1
1
1
1
1
1
1
1
1
1
1
1
1
1
1
1
1
1
1
1
1
1
1
1
1
1
1
1
1
1
1
1
1
1
1
1
1
1
1
1

SCALARS radius float 1
LOOKUP_TABLE default
5e-05
5e-05
5e-05
5e-05
5e-05
5e-05
5e-05
5e-05
5e-05
5e-05
5e-05
5e-05
5e-05
5e-05
5e-05
5e-05
5e-05
5e-05
5e-05
5e-05
5e-05
5e-05
5e-05
5e-05
5e-05
5e-05
5e-05
5e-05
5e-05
5e-05
5e-05
5e-05
5e-05
5e-05
5e-05
5e-05
5e-05
5e-05
5e-05
5e-05
5e-05
5e-05
5e-05
5e-05
5e-05
5e-05
5e-05
5e-05
5e-05
5e-05
5e-05
5e-05
5e-05
5e-05
5e-05
5e-05
5e-05
5e-05
5e-05
5e-05
5e-05
5e-05
5e-05
5e-05
5e-05
5e-05
5e-05
5e-05
5e-05
5e-05
5e-05
5e-05
5e-05
5e-05
5e-05
5e-05
5e-05
5e-05
5e-05
5e-05
5e-05
5e-05
5e-05
5e-05
5e-05
5e-05
5e-05
5e-05
5e-05
5e-05
5e-05
5e-05
5e-05
5e-05
5e-05
5e-05
5e-05
5e-05
5e-05
5e-05
5e-05
5e-05
5e-05
5e-05
5e-05
5e-05
5e-05
5e-05
5e-05
5e-05
5e-05
5e-05
5e-05
5e-05
5e-05
5e-05
5e-05
5e-05
5e-05
5e-05
5e-05
5e-05
5e-05
5e-05
5e-05
5e-05
5e-05
5e-05
5e-05
5e-05
5e-05
5e-05
5e-05
5e-05
5e-05
5e-05
5e-05
5e-05
5e-05
5e-05
5e-05
5e-05
5e-05
5e-05
5e-05
5e-05
5e-05
5e-05
5e-05
5e-05
5e-05
5e-05
5e-05
5e-05
5e-05
5e-05
5e-05
5e-05
5e-05
5e-05
5e-05
5e-05
5e-05
5e-05
5e-05
5e-05
5e-05
5e-05
5e-05
5e-05
5e-05
5e-05
5e-05
5e-05
5e-05
5e-05
5e-05
5e-05
5e-05
5e-05
5e-05
5e-05
5e-05
5e-05
5e-05
5e-05
5e-05
5e-05
5e-05
5e-05
5e-05
5e-05
5e-05
5e-05
5e-05
5e-05
5e-05
5e-05
5e-05
5e-05
5e-05
5e-05
5e-05
5e-05
5e-05
5e-05
5e-05
5e-05
5e-05
5e-05
5e-05
5e-05
5e-05
5e-05
5e-05
5e-05
5e-05
5e-05
5e-05
5e-05
5e-05
5e-05
5e-05
5e-05
5e-05
5e-05
5e-05
5e-05
5e-05
5e-05
5e-05
5e-05
5e-05
5e-05
5e-05
5e-05
5e-05
5e-05
5e-05
5e-05
5e-05
5e-05
5e-05
5e-05
5e-05
5e-05
5e-05
5e-05
5e-05
5e-05
5e-05
5e-05
5e-05
5e-05
5e-05
5e-05
5e-05
5e-05
5e-05
5e-05
5e-05
5e-05
5e-05
5e-05
5e-05
5e-05
5e-05
5e-05
5e-05
5e-05
5e-05
5e-05
5e-05
5e-05
5e-05
5e-05
5e-05
5e-05
5e-05
5e-05
5e-05
5e-05
5e-05
5e-05
5e-05
5e-05
5e-05
5e-05
5e-05

SCALARS mass float 1
LOOKUP_TABLE default
1.46608e-10
1.46608e-10
1.46608e-10
1.46608e-10
1.46608e-10
1.46608e-10
1.46608e-10
1.46608e-10
1.46608e-10
1.46608e-10
1.46608e-10
1.46608e-10
1.46608e-10
1.46608e-10
1.46608e-10
1.46608e-10
1.46608e-10
1.46608e-10
1.46608e-10
1.46608e-10
1.46608e-10
1.46608e-10
1.46608e-10
1.46608e-10
1.46608e-10
1.46608e-10
1.46608e-10
1.46608e-10
1.46608e-10
1.46608e-10
1.46608e-10
1.46608e-10
1.46608e-10
1.46608e-10
1.46608e-10
1.46608e-10
1.46608e-10
1.46608e-10
1.46608e-10
1.46608e-10
1.46608e-10
1.46608e-10
1.46608e-10
1.46608e-10
1.46608e-10
1.46608e-10
1.46608e-10
1.46608e-10
1.46608e-10
1.46608e-10
1.46608e-10
1.46608e-10
1.46608e-10
1.46608e-10
1.46608e-10
1.46608e-10
1.46608e-10
1.46608e-10
1.46608e-10
1.46608e-10
1.46608e-10
1.46608e-10
1.46608e-10
1.46608e-10
1.46608e-10
1.46608e-10
1.46608e-10
1.46608e-10
1.46608e-10
1.46608e-10
1.46608e-10
1.46608e-10
1.46608e-10
1.46608e-10
1.46608e-10
1.46608e-10
1.46608e-10
1.46608e-10
1.46608e-10
1.46608e-10
1.46608e-10
1.46608e-10
1.46608e-10
1.46608e-10
1.46608e-10
1.46608e-10
1.46608e-10
1.46608e-10
1.46608e-10
1.46608e-10
1.46608e-10
1.46608e-10
1.46608e-10
1.46608e-10
1.46608e-10
1.46608e-10
1.46608e-10
1.46608e-10
1.46608e-10
1.46608e-10
1.46608e-10
1.46608e-10
1.46608e-10
1.46608e-10
1.46608e-10
1.46608e-10
1.46608e-10
1.46608e-10
1.46608e-10
1.46608e-10
1.46608e-10
1.46608e-10
1.46608e-10
1.46608e-10
1.46608e-10
1.46608e-10
1.46608e-10
1.46608e-10
1.46608e-10
1.46608e-10
1.46608e-10
1.46608e-10
1.46608e-10
1.46608e-10
1.46608e-10
1.46608e-10
1.46608e-10
1.46608e-10
1.46608e-10
1.46608e-10
1.46608e-10
1.46608e-10
1.46608e-10
1.46608e-10
1.46608e-10
1.46608e-10
1.46608e-10
1.46608e-10
1.46608e-10
1.46608e-10
1.46608e-10
1.46608e-10
1.46608e-10
1.46608e-10
1.46608e-10
1.46608e-10
1.46608e-10
1.46608e-10
1.46608e-10
1.46608e-10
1.46608e-10
1.46608e-10
1.46608e-10
1.46608e-10
1.46608e-10
1.46608e-10
1.46608e-10
1.46608e-10
1.46608e-10
1.46608e-10
1.46608e-10
1.46608e-10
1.46608e-10
1.46608e-10
1.46608e-10
1.46608e-10
1.46608e-10
1.46608e-10
1.46608e-10
1.46608e-10
1.46608e-10
1.46608e-10
1.46608e-10
1.46608e-10
1.46608e-10
1.46608e-10
1.46608e-10
1.46608e-10
1.46608e-10
1.46608e-10
1.46608e-10
1.46608e-10
1.46608e-10
1.46608e-10
1.46608e-10
1.46608e-10
1.46608e-10
1.46608e-10
1.46608e-10
1.46608e-10
1.46608e-10
1.46608e-10
1.46608e-10
1.46608e-10
1.46608e-10
1.46608e-10
1.46608e-10
1.46608e-10
1.46608e-10
1.46608e-10
1.46608e-10
1.46608e-10
1.46608e-10
1.46608e-10
1.46608e-10
1.46608e-10
1.46608e-10
1.46608e-10
1.46608e-10
1.46608e-10
1.46608e-10
1.46608e-10
1.46608e-10
1.46608e-10
1.46608e-10
1.46608e-10
1.46608e-10
1.46608e-10
1.46608e-10
1.46608e-10
1.46608e-10
1.46608e-10
1.46608e-10
1.46608e-10
1.46608e-10
1.46608e-10
1.46608e-10
1.46608e-10
1.46608e-10
1.46608e-10
1.46608e-10
1.46608e-10
1.46608e-10
1.46608e-10
1.46608e-10
1.46608e-10
1.46608e-10
1.46608e-10
1.46608e-10
1.46608e-10
1.46608e-10
1.46608e-10
1.46608e-10
1.46608e-10
1.46608e-10
1.46608e-10
1.46608e-10
1.46608e-10
1.46608e-10
1.46608e-10
1.46608e-10
1.46608e-10
1.46608e-10
1.46608e-10
1.46608e-10
1.46608e-10
1.46608e-10
1.46608e-10
1.46608e-10
1.46608e-10
1.46608e-10
1.46608e-10
1.46608e-10
1.46608e-10
1.46608e-10
1.46608e-10
1.46608e-10
1.46608e-10
1.46608e-10
1.46608e-10
1.46608e-10
1.46608e-10
1.46608e-10
1.46608e-10
1.46608e-10
1.46608e-10
1.46608e-10
1.46608e-10
1.46608e-10
1.46608e-10
1.46608e-10
1.46608e-10
1.46608e-10
1.46608e-10
1.46608e-10
1.46608e-10
1.46608e-10
1.46608e-10
1.46608e-10

VECTORS velocity float
0.00420423 -0.000261524 9.49769e-05
0.00475099 -0.000393612 0.000141608
0.00449997 -0.00029819 0.000126801
0.00484 -0.000345277 0.000196822
0.00440145 -0.000305847 0.000121532
0.00449778 6.33895e-05 9.49493e-05
0.0042526 -0.000214744 6.17722e-05
0.00439302 -0.000307136 0.000122816
0.00468026 -9.69889e-05 6.6843e-06
0.0044255 -0.000345549 0.000160948
0.00428008 -0.000248582 8.39778e-05
0.00439139 -2.78926e-05 7.3449e-06
0.00456576 -0.000314776 3.38656e-05
0.00462568 0.000246684 -0.000173531
0.00430587 -0.000235936 6.73e-05
0.00463253 0.000212488 -0.000139054
0.00446943 -0.000326447 8.85418e-05
0.00446689 -2.38322e-05 8.89845e-06
0.0043815 -0.000305475 7.15209e-05
0.00434481 -0.000284042 0.000103859
0.00441654 -0.000300261 0.000117616
0.00429506 -0.000226938 7.10853e-05
0.00447346 -3.21677e-05 9.12912e-06
0.00427801 -0.000228287 6.93539e-05
0.00431278 2.45329e-05 -2.47107e-05
0.00445146 0.000128596 -0.000101651
0.00442514 -0.000324541 7.78589e-05
0.00449371 7.83073e-05 8.32313e-05
0.00427163 -0.000357216 0.000139748
0.00432189 -0.000223059 6.10128e-05
0.00434862 9.57426e-05 7.56642e-05
0.00445691 -0.0003734 0.00019896
0.0042414 -0.000239373 7.89092e-05
0.0046602 -0.000109167 7.6253e-06
0.00422733 -0.000223882 6.7409e-05
0.00425769 -0.000227231 6.92947e-05
0.00436541 1.44994e-05 -1.97251e-05
0.0042739 -0.000215297 6.14479e-05
0.00419177 -0.000231477 7.42952e-05
0.00428798 -0.000216699 6.11463e-05
0.004341 -0.000273365 8.7661e-05
0.00470937 -0.000364072 0.000190483
0.00436235 4.40935e-06 -3.91011e-05
0.00432511 2.28307e-05 -2.66865e-05
0.00419225 -0.000237896 7.85267e-05
0.00433882 -0.00027383 0.000100887
0.00433107 1.47305e-05 -2.46853e-05
0.00440882 -0.000316031 0.000134531
0.00436545 8.81677e-05 -1.64075e-05
0.00440783 1.38865e-06 -9.48017e-06
0.00423438 -0.000256343 9.08629e-05
0.00462213 0.000284046 -0.00021135
0.00456892 -0.000417981 0.000167265
0.00433453 1.45634e-05 -2.58124e-05
0.00437194 0.000114965 -4.11746e-05
0.00435045 -1.54862e-05 7.69869e-06
0.00431861 -0.000264259 9.49851e-05
0.00426455 -0.000261099 9.33073e-05
0.00431661 -0.000256282 8.84645e-05
0.00474382 -0.000335361 0.000187858
0.00444482 -1.29361e-05 2.54821e-06
0.00439747 -0.00031337 0.000126854
0.00414759 0.000152203 -8.46963e-05
0.00433517 -0.000296669 0.000102734
0.00429944 0.000123819 -0.000116006
0.00430559 -0.000217097 6.33526e-05
0.00464302 -0.000119511 8.69237e-06
0.00461897 0.000311641 -0.000239031
0.0045753 -6.90328e-05 6.36608e-06
0.00420548 -0.000233534 7.53784e-05
0.00470751 -0.000469608 0.000192065
0.00422101 -0.000231021 7.25368e-05
0.00447042 -2.08139e-05 8.62378e-06
0.00470837 -0.000342302 -0.000203802
0.00459887 0.00032795 -0.000255993
0.00498326 0.000136204 -3.19045e-05
0.00484011 -0.000309711 -0.000207661
0.00473473 0.000281352 -9.21336e-05
0.00441285 0.000156792 -9.30723e-05
0.00473026 0.00029579 -0.000220497
0.00442226 -3.65133e-05 2.17597e-05
0.0044901 0.000351488 -0.000281346
0.00471946 -0.000327175 -1.61273e-05
0.00459585 -0.000192578 3.36355e-06
0.00483468 -0.000330989 -0.000206578
0.00484089 -0.000339462 0.000121481
0.00466052 -0.000481185 0.000248371
0.00435469 -0.000292424 3.29141e-05
0.00478246 -0.000317742 -0.000211438
0.00475424 -0.000324077 -0.000203585
0.0048315 -0.000353292 -5.38551e-05
0.00473015 -0.00033889 -0.000205676
0.00478842 -0.000313003 -0.000207133
0.00477982 -0.000323624 -0.000205058
0.0044841 7.77057e-05 -4.54991e-05
0.00480059 -0.00034918 0.000196102
0.00407293 7.60461e-05 -1.29833e-05
0.00435728 -0.000262874 3.14521e-05
0.00429324 -0.000231738 7.33427e-05
0.00446414 0.000112779 -3.95168e-05
0.00460104 0.000328683 -0.000257298
0.00438593 -0.000164788 0.000229478
0.00460261 0.00028984 -0.0002174
0.00436325 -0.000343039 0.000208252
0.00433436 -0.000283856 0.000101317
0.00482914 -0.000354534 -0.000174759
0.0047504 -0.000334774 -0.000207838
0.00443467 0.000123451 -7.53409e-05
0.00481614 -0.000347095 -0.000216042
0.00449674 0.000139846 -5.6305e-05
0.00467474 -0.000313058 0.000154801
0.00438965 -0.000326329 0.000131777
0.00439418 -0.000313539 0.000126771
0.00448614 0.000131783 -5.05015e-05
0.00448281 9.00008e-05 7.42389e-05
0.00425724 -0.000249541 8.5613e-05
0.00438366 -0.000311588 0.000125802
0.00479673 -0.000319839 -0.000205597
0.00508114 0.000182675 -0.000105341
0.00478602 -0.000313862 -0.000203917
0.00420426 -0.000227981 7.16797e-05
0.00432772 -0.000277744 2.85173e-05
0.00511772 0.000181109 -9.67447e-05
0.00467754 -0.000423758 0.000121301
0.00446119 0.000120376 -4.55298e-05
0.00433508 -0.000260408 1.54263e-05
0.00427923 0.000118805 -6.49144e-05
0.0047756 -0.000384428 0.000192573
0.00423702 -0.000228296 7.15282e-05
0.00436472 -0.000298516 0.000121268
0.0042174 -0.000259438 9.33592e-05
0.00460095 0.000277885 -0.000205459
0.0047905 -0.000318135 -0.000204495
0.00481022 -0.000358924 -0.000411077
0.00448373 -0.000470605 0.000239744
0.00478922 -0.000321225 -0.000205572
0.00467651 0.000286731 -0.000212831
0.0043699 -0.000258468 9.03566e-05
0.00434158 -0.000322912 0.000111473
0.00448911 -0.00021351 0.000163193
0.00479892 -0.000322441 -0.000204584
0.00457173 0.000316466 -0.000244814
0.00438282 -0.00020492 0.000149693
0.00481191 -0.000323391 -0.000207608
0.00437841 -0.000310716 0.000125384
0.00465184 9.73746e-05 -4.79054e-05
0.00437292 -0.000310148 0.000125124
0.00450218 0.00014213 -6.40206e-05
0.00423831 9.04409e-05 -1.25007e-05
0.00420574 0.000130336 -0.000114638
0.00474524 -0.000325529 -0.000204368
0.00442808 0.000111086 -4.04299e-05
0.0042075 -0.00022575 7.00941e-05
0.00476517 2.67574e-05 -5.60031e-05
0.00468175 -0.000331525 -0.000201476
0.00441278 8.49916e-05 -1.28805e-05
0.00466832 -0.000348166 -0.000201584
0.00447116 0.000108784 -3.73874e-05
0.00421321 -0.000239387 7.92451e-05
0.00437402 0.00013359 -6.74008e-05
0.00477805 -0.000336222 -0.00020601
0.00485893 3.12323e-05 -5.38183e-05
0.00454224 0.000128983 -5.24841e-05
0.0047941 -0.000319847 -0.000207773
0.00473397 3.20535e-05 -5.23352e-05
0.00480312 -0.000314147 -0.000205044
0.00459079 -9.357e-07 -4.86829e-05
0.00463688 0.00014352 -6.91632e-05
0.00440246 0.000151651 -7.37066e-05
0.00443628 9.08007e-05 -1.29431e-05
0.00451325 0.000104489 -3.30955e-05
0.00446862 0.000144056 -5.29987e-05
0.00479428 -0.000340036 -0.00020647
0.00494475 0.000224443 -0.000101028
0.00422252 -0.0002274 7.1001e-05
0.00477723 -4.98349e-06 -4.89303e-05
0.00464358 -0.000458416 0.000188316
0.0047637 7.2237e-05 -4.65798e-05
0.00492629 0.000119806 0.000115547
0.00463117 -0.00012243 5.3277e-06
0.00473747 -0.000285624 -0.000201315
0.00428926 -0.000256175 8.93369e-05
0.00481737 8.13477e-05 -5.47322e-05
0.00475182 -0.000308899 -0.000202832
0.00479786 0.000114961 0.000122973
0.00479159 -0.000316457 -0.000205446
0.00444057 -0.000264518 9.21957e-05
0.00481088 -2.24175e-05 -5.20686e-05
0.00496108 8.8946e-05 -9.46425e-06
0.00440257 -0.000297766 0.000116024
0.0042906 0.000171421 -8.99774e-05
0.00464579 -0.000120909 -4.77833e-05
0.00503555 0.000153128 -6.99794e-05
0.00474088 3.09034e-05 -5.19461e-05
0.00452088 9.54505e-05 -1.57919e-05
0.00422468 -0.000239131 7.88644e-05
0.0044736 9.76231e-05 -5.1597e-05
0.00447014 0.000156902 -6.79472e-05
0.0044958 0.000101222 -3.73638e-05
0.00422293 6.54445e-05 3.86677e-06
0.00486311 -9.86743e-06 -5.76948e-05
0.0044756 0.000137983 -5.36227e-05
0.00445813 -0.000407096 0.000190524
0.00472781 -0.000325318 -0.000203197
0.0043773 1.8933e-05 8.62293e-06
0.00476591 -0.000333957 -0.000207624
0.00446528 0.000126623 -5.86458e-05
0.00448441 0.000128201 -5.532e-05
0.00479453 -0.000328576 -0.000209544
0.0046538 -0.000340766 -0.000200887
0.00476964 -0.000324224 -0.000204438
0.00419138 -0.000226799 7.10882e-05
0.00501738 0.000180932 -9.22936e-05
0.0042998 -0.000237322 7.62116e-05
0.00438825 0.00010432 -5.2061e-05
0.00500867 0.000217488 -0.000137602
0.00448737 -1.22011e-05 8.6785e-08
0.00482688 3.22163e-05 -5.33644e-05
0.00463797 0.000185979 -0.000112254
0.00483657 5.04659e-05 -4.73742e-05
0.00440616 9.63395e-05 -4.01648e-05
0.00475187 5.20374e-06 -5.14112e-05
0.00478171 5.81317e-05 -4.56305e-05
0.00424437 0.000170669 -0.000123237
0.00470371 -0.000328622 -0.000202403
0.00474755 -0.000308084 -0.000129557
0.00467591 -3.96846e-06 -5.12844e-05
0.00471594 9.50726e-06 -5.14477e-05
0.00471514 5.57599e-06 -5.18387e-05
0.00486701 2.84316e-05 -5.30182e-05
0.00449736 0.000616623 -0.000499764
0.00472564 9.01288e-06 -5.0802e-05
0.0048131 3.54686e-05 -5.57705e-05
0.00450228 0.000615632 -0.000499589
0.00449249 0.000617607 -0.000499865
0.00475697 3.50808e-05 -5.2918e-05
0.00476274 0.000559584 -0.000489952
0.00442728 -0.000300767 0.000117573
0.0047248 -0.000305565 -0.000201903
0.00476117 -9.52608e-06 -5.36138e-05
0.00439786 -0.000298236 0.000116584
0.00425866 -0.000254509 8.86868e-05
0.00448758 0.000618575 -0.00050006
0.00462205 3.69267e-05 -3.39477e-05
0.00486303 1.25437e-05 -5.45127e-05
0.00418743 8.41754e-05 -2.10907e-05
0.00473827 2.19713e-06 -5.226e-05
0.00476603 8.99966e-05 -5.4322e-05
0.0047234 1.24779e-05 -5.13639e-05
0.00479218 -6.19916e-05 -5.26627e-05
0.00481567 -0.000337586 0.000192228
0.00468937 -7.38303e-08 -5.1828e-05
0.00475771 1.13782e-05 -5.24237e-05
0.00483621 0.000506972 -0.000471771
0.00471806 2.12729e-05 -5.17273e-05
0.00478849 2.07464e-05 -0.000194455
0.00466077 -0.000333213 -0.000200696
0.00423314 8.87363e-05 -2.58218e-05
0.0048128 4.59471e-06 -5.33989e-05
0.00475859 7.56115e-05 -5.17762e-05
0.00475422 5.47191e-06 -5.15521e-05
0.00468782 4.8247e-06 -5.12451e-05
0.00470019 2.67325e-06 -5.15219e-05
0.00479403 6.02572e-05 -5.33483e-05
0.00476777 1.74103e-05 -5.33154e-05
0.00473231 5.42155e-06 -5.29213e-05
0.00466293 -8.20318e-07 -5.12676e-05
0.00468814 -0.000346237 -0.000202667
0.00478749 0.000554128 -0.000489003
0.00483622 0.000506965 -0.000471769
0.00450501 7.74967e-05 -3.83835e-05
0.00486096 0.000501532 -0.000470808
0.00481223 0.000548678 -0.000488019
0.00474421 3.50126e-05 -5.21507e-05
0.00470415 9.23386e-06 -5.19739e-05
0.00472516 4.03943e-05 -5.24535e-05
0.00438836 -0.000157611 0.000228415
0.00470795 9.42614e-06 -5.18161e-05
0.00515348 0.000295313 -0.000211977
0.00472437 1.15699e-05 -5.22222e-05
0.00453563 0.000112381 -4.78034e-05
0.00457035 -0.000324628 0.0001533
0.00467331 1.0343e-05 -5.14668e-05
0.00520212 0.000202667 -0.000121322
0.00479724 -0.000308315 0.000157002
0.00436228 -0.000320429 0.000133316
0.00468975 -5.51044e-06 -4.82383e-05
0.00415219 9.53205e-05 -3.3891e-05
0.00440253 -0.000311552 0.00011855

VECTORS force float
3.01039e-11 2.54219e-10 -1.8518e-10
-2.55876e-10 3.08677e-11 -4.7755e-11
-7.16262e-11 2.80071e-11 7.43227e-11
-2.80653e-12 4.78389e-12 5.05401e-11
1.49585e-12 -8.92277e-11 6.06484e-11
2.17836e-10 4.47666e-11 4.37152e-11
-1.97647e-10 -2.58825e-11 7.98294e-12
4.37175e-11 -1.32273e-10 9.01135e-11
-6.99271e-11 -8.65587e-11 -8.48756e-12
-8.70998e-11 -2.14084e-11 -1.27044e-10
2.23455e-10 1.58318e-10 -1.20466e-10
5.0895e-11 -8.17428e-11 -2.88341e-12
-3.89279e-11 -1.45669e-10 -2.06704e-11
9.14163e-11 1.8183e-10 -1.6796e-10
1.30805e-11 4.20282e-11 -5.88064e-11
4.21218e-11 1.05032e-10 -1.15541e-10
9.65157e-11 2.01808e-11 -7.18272e-11
-2.64652e-13 -5.39826e-11 2.51575e-11
1.45396e-11 8.74563e-11 -3.93569e-11
-1.5588e-10 8.90415e-11 -1.54239e-10
1.92162e-10 -2.2402e-12 -3.40889e-12
-4.04237e-11 3.73241e-11 -3.0523e-11
-5.62099e-11 -1.05526e-10 2.82375e-11
1.11195e-11 6.75848e-11 -5.34021e-11
4.9349e-11 4.44897e-12 7.54376e-12
-2.37261e-10 -1.23469e-10 2.47131e-10
4.00522e-12 9.30442e-11 -3.08873e-11
-5.51581e-11 -8.04148e-11 5.63663e-11
4.78375e-11 1.73496e-10 -6.75455e-11
-5.26861e-11 1.03185e-11 -6.97005e-11
4.32188e-11 1.47496e-10 -1.34234e-10
-8.72563e-11 -3.32472e-11 7.86248e-12
-8.20375e-11 1.30935e-10 -9.64559e-11
7.44303e-11 -1.76266e-10 -3.0484e-11
4.20799e-11 -1.41324e-10 7.42567e-11
-9.64567e-11 6.12932e-11 -5.05872e-11
2.14419e-11 7.30686e-12 -1.78867e-11
1.16633e-10 7.11467e-11 -6.38196e-11
-7.39642e-11 1.10898e-10 -8.20918e-11
2.7904e-11 2.08383e-11 -2.92145e-11
-3.49905e-11 7.28811e-11 -4.11079e-11
-1.53557e-10 2.13042e-12 -4.34958e-11
-1.70909e-10 1.80643e-10 -2.01407e-11
-5.66146e-11 -2.16557e-12 4.62243e-12
-5.07527e-11 3.18266e-11 -2.15991e-11
-1.57287e-10 8.10304e-11 -7.85054e-11
1.07902e-10 -1.0431e-11 -1.04692e-10
5.825e-11 4.78125e-11 -1.23262e-10
2.20784e-10 -7.83852e-11 1.57672e-11
1.30577e-12 1.95644e-11 -2.06173e-12
-1.1846e-10 1.62267e-10 -1.08242e-10
1.19247e-10 2.31168e-10 -2.4017e-10
-6.45157e-11 7.97587e-11 5.7115e-11
9.48266e-11 8.3502e-11 -1.25209e-10
-4.25255e-10 1.21741e-10 1.94027e-10
-2.30428e-11 -1.0547e-10 -8.20074e-12
-2.67692e-10 1.10928e-10 -6.85518e-11
-8.95744e-11 -4.85792e-11 4.06379e-11
-4.26503e-11 1.22361e-10 -1.13267e-10
-7.71179e-11 6.19382e-11 1.87717e-10
-5.99134e-11 -1.99429e-11 2.33976e-11
5.2726e-11 -1.10048e-10 7.25061e-11
6.82563e-10 -2.18196e-11 6.52508e-11
-1.64623e-10 -7.44613e-12 -5.97792e-11
1.09724e-09 9.6302e-11 -1.38012e-10
-3.27562e-11 3.48515e-11 -3.44647e-11
9.09649e-11 -1.75092e-10 -1.89296e-11
-1.04902e-10 1.2866e-10 -1.28656e-10
1.01865e-10 -7.53379e-11 5.10993e-12
1.11272e-11 2.0544e-11 -3.94025e-12
-1.26422e-10 -5.07267e-12 6.42267e-12
2.38169e-10 -1.05174e-11 9.27857e-12
2.26513e-11 -1.71367e-11 1.32582e-11
-2.05894e-11 -1.12392e-10 -7.1391e-12
9.26658e-10 -2.72394e-10 2.99738e-10
-2.08113e-12 -9.54599e-10 5.24386e-10
4.41107e-11 -3.29709e-11 -5.56655e-11
5.94102e-10 1.12976e-10 1.6147e-09
-1.77015e-10 -2.81602e-10 1.87444e-10
-6.00937e-10 -1.48067e-10 1.24109e-10
-1.00905e-11 -2.07156e-11 1.17373e-11
-2.85287e-10 2.38677e-10 -2.49392e-10
-1.92852e-10 5.81705e-11 1.41955e-10
-2.46495e-10 -1.23401e-10 6.10229e-12
-1.26609e-11 1.96973e-11 9.8364e-12
2.65614e-12 5.24677e-11 -7.85508e-11
-4.12134e-11 2.44781e-10 -5.07378e-11
8.11631e-11 9.80115e-11 -1.02569e-10
4.4505e-11 -4.92611e-11 1.81329e-10
9.83724e-11 -5.90925e-12 -1.61392e-11
-1.46219e-12 8.39527e-11 -2.65004e-10
2.8386e-11 -2.84414e-11 -1.73257e-11
1.19328e-11 -4.38187e-11 5.15766e-11
7.73057e-11 8.28503e-14 -2.42072e-11
2.99072e-10 -9.25356e-11 -1.63163e-11
1.63259e-10 -1.16411e-10 5.2577e-11
3.85121e-11 -2.17974e-10 2.63613e-10
-6.12627e-11 3.75637e-12 -2.07666e-12
-1.09593e-10 -3.87855e-11 2.88883e-11
-3.46394e-10 -1.21049e-10 7.5807e-11
-8.54139e-11 -6.94123e-11 6.37792e-11
-3.70184e-11 -5.09687e-12 -3.59221e-11
-1.67189e-10 3.22403e-10 -3.18745e-10
5.80908e-11 -1.22631e-10 -1.67693e-10
1.0719e-10 3.88137e-12 -1.92354e-10
-5.78724e-11 -1.89048e-11 -7.37151e-11
5.50423e-11 3.49008e-11 -2.70899e-11
-8.65819e-11 1.51224e-10 -6.04088e-11
-5.79045e-11 1.64474e-12 1.95919e-12
2.69972e-11 1.17602e-10 1.14403e-11
-6.94089e-11 7.76658e-11 1.84181e-10
6.77542e-11 1.80708e-10 -2.0402e-10
1.22082e-11 -8.49479e-11 4.89635e-11
1.12647e-10 1.04686e-10 4.92533e-11
5.31025e-12 -1.06853e-11 -5.7604e-12
1.39148e-10 1.97377e-10 -1.48715e-10
-6.36669e-11 -8.23559e-11 5.81435e-11
1.94273e-10 -5.81942e-11 -2.24954e-11
9.38407e-10 -1.70074e-10 2.94963e-10
1.01788e-10 -8.99759e-11 -1.27308e-11
-1.81308e-12 1.16746e-10 -9.57512e-11
9.76806e-11 7.26926e-11 -1.0149e-10
-1.56051e-10 -3.268e-10 4.87354e-10
-2.15342e-10 1.47381e-10 2.50723e-11
-4.95373e-11 -5.93292e-12 2.61183e-11
-5.3765e-11 1.05531e-12 -2.11637e-11
2.73768e-10 -1.60506e-10 -2.94247e-11
-5.98052e-11 -1.4801e-11 1.11999e-12
-1.50156e-10 1.13517e-10 -7.18646e-11
2.24145e-10 -4.43133e-10 2.87478e-11
-1.14955e-10 2.2419e-10 -1.53939e-10
2.28425e-11 2.25229e-10 -2.3055e-10
1.23834e-10 -7.38787e-11 -1.34289e-11
1.58019e-11 1.95031e-10 -1.05517e-10
-1.99211e-11 2.15443e-10 -1.10309e-10
2.6345e-11 1.15544e-11 -1.41452e-11
-3.98351e-10 1.90277e-10 -1.68677e-10
4.13908e-12 1.46112e-10 -4.96867e-11
8.53592e-11 -1.69614e-10 -1.93167e-10
-1.39139e-10 1.19923e-11 1.53628e-10
2.98293e-10 -1.7786e-10 -1.85584e-11
1.861e-11 2.75967e-10 -2.7686e-10
-7.50496e-11 -9.50126e-12 -1.04971e-10
-3.71571e-11 1.23254e-11 -3.06669e-11
-1.79895e-11 -7.55438e-11 5.40349e-11
1.97367e-10 1.75648e-10 9.92563e-11
-2.48369e-11 -6.05904e-11 4.35109e-11
-1.15698e-10 3.31676e-11 -4.26452e-11
-1.73522e-09 2.93831e-10 5.56248e-10
6.39814e-10 1.01492e-10 -1.29095e-10
3.31452e-11 -8.5269e-11 -5.69685e-11
1.59426e-11 -1.05267e-10 3.93957e-11
3.59838e-11 9.16848e-11 -6.33924e-11
-2.11067e-10 9.4055e-11 -1.2198e-10
-4.5233e-11 -1.6872e-10 -7.98808e-12
2.14176e-10 2.14738e-11 -2.85589e-12
-2.79422e-11 -1.62168e-10 -9.4315e-12
2.84746e-10 9.90373e-11 8.01466e-14
-7.78061e-11 6.38179e-11 -3.48518e-11
2.5945e-11 4.64634e-10 -6.19665e-10
5.09704e-11 6.33879e-11 -4.85895e-11
4.9234e-11 1.09152e-11 -4.17374e-12
4.07942e-11 1.70042e-10 -4.62266e-11
9.25445e-11 -1.31794e-10 -2.44554e-11
-3.16521e-10 -1.32857e-11 1.54459e-11
1.76644e-10 -5.58679e-11 -4.13614e-12
3.12029e-10 4.49303e-11 -7.3065e-12
-8.90179e-11 -2.05086e-11 3.49516e-11
-6.95496e-12 1.44233e-10 6.34138e-11
-7.93495e-11 -4.89073e-11 -6.99758e-11
2.24346e-10 -5.79328e-11 1.24479e-10
-2.06005e-10 2.67506e-11 -1.77889e-11
2.19063e-11 4.08586e-11 2.24119e-11
5.50665e-11 2.80194e-11 4.31841e-10
2.14601e-11 1.46097e-10 -1.095e-10
1.16957e-10 -4.50559e-12 -2.49023e-11
-1.13727e-10 -6.44026e-11 7.39026e-12
2.21333e-10 1.63544e-10 1.88225e-10
-1.52771e-10 -8.77492e-10 1.91192e-10
-1.90008e-11 5.1504e-11 3.2877e-11
1.00487e-10 -1.43526e-11 -3.96556e-12
-9.28309e-11 9.02722e-11 -5.15755e-11
-6.19275e-12 -4.64409e-11 -9.74323e-12
1.45515e-10 -5.85252e-11 -7.26873e-12
4.60676e-11 3.01482e-11 3.12331e-10
8.10554e-11 -9.93575e-11 -5.64877e-12
4.51577e-11 -2.28462e-10 1.55537e-10
-3.62809e-10 3.31346e-10 3.29795e-13
-4.13953e-10 5.74007e-10 -5.92487e-10
1.20118e-11 -1.51262e-10 1.04438e-10
-6.93136e-10 -3.37078e-10 1.71662e-10
1.71874e-10 1.25794e-11 9.03134e-12
1.13632e-09 -1.19453e-09 1.06628e-09
6.60435e-11 8.26297e-11 -9.18375e-12
2.86962e-10 -4.07806e-11 -7.21413e-11
-1.73639e-10 9.18428e-11 -6.17475e-11
2.31829e-10 -5.70569e-11 -8.19586e-11
1.76249e-11 -2.25897e-10 -5.57988e-11
1.34712e-10 1.41401e-10 -3.44463e-11
4.95292e-10 -8.79119e-11 2.77836e-10
9.99307e-11 4.04759e-11 -1.92934e-11
2.16346e-10 2.93816e-10 9.05995e-11
-1.72783e-10 1.77511e-11 -1.01402e-12
7.00074e-11 -4.04404e-11 -5.06482e-12
-7.6005e-12 -1.57098e-10 2.10747e-11
5.91321e-11 6.64099e-11 -6.03275e-11
-2.10391e-11 -1.73309e-11 -3.66472e-12
-7.1462e-11 5.85927e-11 -1.07548e-11
1.16522e-10 -9.70148e-11 -1.39209e-11
-6.51235e-11 -2.70339e-10 -1.03756e-11
8.83999e-11 -1.75759e-11 -3.35178e-11
-5.77255e-11 5.84216e-11 -4.17559e-11
-7.19336e-11 -3.60712e-11 4.07309e-10
-3.18841e-11 1.13744e-10 -7.95788e-11
-3.26469e-10 -4.60769e-10 4.01942e-10
-1.18582e-09 -2.16071e-10 1.40669e-10
-8.78416e-11 -1.47201e-10 1.29245e-10
-1.56636e-10 -6.10762e-11 -6.16536e-12
1.5068e-11 7.65082e-11 -7.33733e-11
-1.77093e-11 1.24507e-10 1.68874e-10
5.79524e-10 -2.2898e-11 1.11363e-10
-4.2141e-10 -8.31403e-11 -9.24224e-13
-1.40041e-10 -2.18316e-10 3.14201e-11
6.00309e-10 -1.38281e-10 -1.02715e-10
-4.2719e-11 -9.27444e-11 -1.85555e-12
-6.75708e-11 4.65731e-11 -1.75841e-10
5.82067e-11 1.56883e-10 -9.14545e-12
8.17869e-12 -5.1162e-11 -1.84878e-12
-9.03344e-11 2.61846e-10 5.01223e-12
4.96031e-11 4.48014e-11 1.16205e-10
-4.42203e-13 4.47232e-13 1.33608e-12
7.32962e-11 -3.1357e-11 -1.38408e-11
1.28273e-10 1.28497e-11 1.78248e-11
3.55212e-13 -1.85523e-13 -2.23992e-13
9.06008e-13 -5.30805e-13 -1.62523e-12
3.50334e-11 -5.65387e-12 -4.26218e-11
1.05975e-12 -3.73147e-14 1.26513e-13
1.48461e-11 -1.79068e-10 1.22776e-10
-1.61412e-11 1.85494e-12 3.5342e-14
5.96862e-11 -6.90569e-11 -1.95522e-11
5.38505e-11 -1.82653e-10 1.26737e-10
6.35469e-11 8.24145e-11 -6.01406e-11
-2.3485e-13 2.59456e-13 3.05308e-13
9.36762e-11 -4.37911e-11 -1.28766e-10
-2.88599e-12 -9.57988e-11 1.74644e-11
-4.20699e-11 -2.69694e-11 1.24391e-10
-2.65702e-11 -4.53477e-11 -2.49711e-11
-5.01433e-10 7.26178e-11 -4.38201e-12
-3.53131e-11 1.2934e-10 7.99404e-12
1.54591e-10 -3.78432e-11 -2.57977e-11
-1.95692e-11 5.20689e-11 7.69502e-12
2.76175e-11 6.61971e-11 -9.78158e-14
-1.6587e-10 5.02541e-11 5.49705e-12
4.14658e-13 3.2137e-13 -1.63029e-13
-8.55834e-11 6.10683e-11 6.11369e-12
3.64044e-11 -8.54209e-11 -7.56651e-10
-2.55958e-11 -2.10355e-10 -8.23193e-12
-2.23103e-10 -2.24904e-10 7.01351e-11
-2.82211e-10 6.45647e-11 1.60524e-11
-8.36923e-11 -1.5841e-10 2.3922e-11
-1.38265e-10 2.90169e-11 2.36764e-12
2.99136e-11 2.04129e-10 -9.72581e-12
-1.60374e-10 8.27802e-11 2.41005e-12
-1.34691e-10 -3.48819e-11 9.31117e-12
-3.057e-10 -1.01617e-11 2.93851e-11
-6.0319e-10 1.2797e-10 -3.28547e-11
-3.88454e-12 2.1575e-10 -7.93536e-13
-4.02331e-11 -1.38241e-10 -5.78846e-12
8.89226e-13 1.08985e-13 -4.42971e-14
1.30558e-12 9.45372e-13 -4.44793e-13
1.11964e-10 4.05268e-11 -4.29829e-11
8.7438e-13 7.32569e-13 -3.46023e-13
9.78673e-13 1.63704e-13 -1.46392e-13
1.04451e-10 2.28922e-11 -1.07909e-11
-6.59262e-11 -1.03924e-11 5.46409e-12
-3.33198e-11 -1.21975e-11 4.17804e-11
-6.31603e-11 8.06046e-11 4.63469e-11
-4.69999e-11 9.69386e-11 -8.99358e-13
-3.25639e-10 1.83035e-10 -1.7926e-10
9.50222e-11 5.63074e-10 -1.64978e-11
6.78395e-11 -3.48838e-11 -9.21766e-12
-5.83444e-11 1.54347e-11 2.00951e-10
6.42092e-11 3.32417e-10 -5.53281e-12
-3.2206e-10 -6.80123e-10 7.04581e-10
-2.16761e-11 1.13938e-11 1.48776e-10
-9.55011e-11 1.42988e-10 -1.22265e-10
2.8121e-10 1.78691e-11 -4.79019e-11
3.59227e-11 -1.19456e-10 1.10337e-10
-4.81982e-11 -4.91672e-11 8.30085e-11
