# vtk DataFile Version 3.0
LIGGGHTS particles timestep 17000000
ASCII
DATASET POLYDATA
POINTS 289 float
0.0909361 0.0163868 0.00779536
0.0913201 0.017577 0.00708073
0.0911484 0.017363 0.00728909
0.0912265 0.0175478 0.00710021
0.0905725 0.0159641 0.00804245
0.0967028 0.0165243 0.00771771
0.0907099 0.0165505 0.00768556
0.0905524 0.0158808 0.00809411
0.0970056 0.0178094 0.00708814
0.0908657 0.0171352 0.0074272
0.0909387 0.0167758 0.00755523
0.0969622 0.0176199 0.00713499
0.0908247 0.0170554 0.00747943
0.0845614 0.0159561 0.00813254
0.0908636 0.0168306 0.00751844
0.0845411 0.0158849 0.00819975
0.0908252 0.0169681 0.00752901
0.0968975 0.0173355 0.0072053
0.0907429 0.0167233 0.00768327
0.0910956 0.0170559 0.00738824
0.0905925 0.0160478 0.00799153
0.0908439 0.0167469 0.00756941
0.0969187 0.0174304 0.00718184
0.0908243 0.0166631 0.00762039
0.0967995 0.0168994 0.00740164
0.0848559 0.0171748 0.00735877
0.0907718 0.0168111 0.00763215
0.0966834 0.0164482 0.00777958
0.0909632 0.0171656 0.00741567
0.0907885 0.0168857 0.00748151
0.0967222 0.0166004 0.00765582
0.0910451 0.01731 0.00729488
0.0908797 0.0165245 0.00770815
0.097049 0.0179988 0.00704096
0.0906902 0.0164667 0.00773653
0.0908046 0.0165794 0.00767136
0.0968383 0.01705 0.00727586
0.0907295 0.0166342 0.00763458
0.0908209 0.0162732 0.00786109
0.0907492 0.016718 0.00758361
0.0909792 0.0169431 0.00745347
0.0912589 0.0177356 0.00701856
0.0967417 0.0166752 0.00759236
0.0968198 0.016974 0.00733812
0.0906316 0.0162153 0.00788954
0.0910746 0.0169714 0.00743962
0.0967802 0.0168247 0.00746517
0.0909655 0.0172494 0.0072651
0.0851449 0.017262 0.00732511
0.0968578 0.0171452 0.00725233
0.090976 0.016555 0.00769305
0.0845798 0.0160174 0.00805571
0.0910657 0.0174337 0.00725503
0.0967609 0.01675 0.00752882
0.0848684 0.0168411 0.00749235
0.0969404 0.0175251 0.00715842
0.0910363 0.0168072 0.00753961
0.0906121 0.0161315 0.00794053
0.0909587 0.0168595 0.00750431
0.0912069 0.0174574 0.00714554
0.0968774 0.0172404 0.0072288
0.0905347 0.0158316 0.00817933
0.0850056 0.01705 0.0074038
0.0911131 0.0171429 0.00733519
0.0849635 0.0168683 0.00747621
0.0907688 0.0168017 0.00753263
0.0970708 0.0180935 0.00701727
0.0845989 0.0160839 0.00798349
0.0969839 0.0177147 0.00711157
0.0906511 0.0162992 0.00783851
0.0913981 0.01796 0.00702945
0.0906706 0.0163829 0.00778751
0.0970149 0.0174603 0.0071743
0.0910578 0.0180294 0.00701934
0.0846369 0.0162206 0.00784262
0.0847337 0.0166339 0.00758738
0.0911383 0.0176086 0.00707534
0.0851392 0.0177828 0.00722539
0.0848776 0.0172664 0.00732497
0.0846559 0.0162919 0.00777511
0.0969932 0.0173656 0.00719773
0.0847132 0.0161753 0.00788878
0.090963 0.0174509 0.0072581
0.0970273 0.0179041 0.00706465
0.0910334 0.0175085 0.00713016
0.0911074 0.0174332 0.00716413
0.0910854 0.0173469 0.00720946
0.0909036 0.016998 0.00741659
0.0911821 0.0178007 0.00699547
0.0911351 0.0179661 0.00701505
0.0910085 0.017422 0.00717385
0.0910375 0.017932 0.00700481
0.0910702 0.0176762 0.00704731
0.0910863 0.0178265 0.00710781
0.0849093 0.017021 0.00741503
0.0912829 0.0178318 0.0070055
0.085038 0.0168051 0.00749775
0.0908279 0.0170533 0.00737951
0.090919 0.016692 0.0076062
0.0850488 0.0172332 0.00733621
0.0846176 0.0161504 0.00791114
0.0908697 0.0172215 0.00727968
0.084675 0.0160424 0.00803328
0.0909916 0.0172449 0.00736152
0.0909999 0.0170267 0.00740267
0.0909118 0.0173962 0.00719186
0.0910163 0.0178376 0.00702996
0.084793 0.0169035 0.00746987
0.090936 0.0174908 0.00717051
0.0849424 0.0175412 0.0072236
0.0911924 0.0175489 0.00719421
0.0912465 0.0173102 0.007237
0.0905169 0.0157824 0.00826455
0.0850174 0.0174789 0.00724606
0.0966641 0.0163721 0.00784147
0.0908994 0.0166083 0.00765718
0.0904988 0.0157332 0.0083497
0.0913244 0.0180277 0.0070343
0.0847894 0.0164816 0.00764879
0.09123 0.0179961 0.00702458
0.0907458 0.0163281 0.00782429
0.0908833 0.0169144 0.00746748
0.0846948 0.0164544 0.0076666
0.0909865 0.017335 0.00721779
0.0849525 0.0172042 0.00734745
0.0908082 0.0169696 0.00743047
0.0850272 0.0171416 0.00737004
0.0913287 0.0176663 0.00703656
0.090785 0.0164956 0.00772233
0.09102 0.0171103 0.00735172
0.0909557 0.0164706 0.00774438
0.0846558 0.0159759 0.00810564
0.0912084 0.0178983 0.00701015
0.0911327 0.0175192 0.00711972
0.0910538 0.0172104 0.00729121
0.0910178 0.0177276 0.00711531
0.084732 0.0162418 0.00781648
0.0909242 0.0170816 0.00736574
0.0909449 0.0171667 0.00731737
0.0908906 0.0173089 0.00723576
0.0912892 0.0182957 0.00706839
0.0846937 0.0161089 0.00796096
0.0908486 0.0171369 0.00732867
0.0910465 0.0176064 0.00711494
0.0904795 0.0156842 0.00843469
0.0850606 0.0176621 0.00717848
0.0904603 0.0156351 0.0085197
0.0849208 0.0174496 0.00725739
0.0847532 0.0167238 0.00754819
0.084984 0.0169584 0.00743761
0.0911043 0.0180015 0.00710336
0.0849309 0.0171125 0.00738124
0.0907069 0.0161605 0.0079263
0.0851785 0.0177828 0.00713345
0.0911951 0.0182558 0.00705756
0.0851665 0.0173536 0.00729131
0.0910782 0.0181263 0.00703335
0.0850921 0.0174164 0.00726863
0.0908405 0.016357 0.00781011
0.0849234 0.0166883 0.00755366
0.0909741 0.0176532 0.00706266
0.0853702 0.01784 0.00711137
0.085039 0.0175705 0.00721227
0.0913037 0.0179286 0.00701975
0.0853177 0.0179948 0.00705474
0.0913456 0.0181244 0.00704856
0.0851353 0.0175996 0.00720104
0.085469 0.0178718 0.0070991
0.0848343 0.0170834 0.00739292
0.0851881 0.0174452 0.00725752
0.0850705 0.0173248 0.00730242
0.084964 0.0176328 0.0071898
0.0909547 0.0175655 0.00710664
0.0848284 0.0166614 0.00757042
0.0907653 0.0164119 0.00777331
0.0852529 0.01772 0.00715613
0.0913008 0.0174877 0.00712948
0.0850822 0.0177537 0.00714468
0.0851481 0.0179187 0.00717277
0.0970925 0.0181882 0.00699358
0.0912108 0.0183576 0.00707219
0.0910164 0.0167234 0.00759055
0.0849856 0.0177244 0.00715601
0.0912498 0.0180946 0.00703901
0.085045 0.0178145 0.00721482
0.091091 0.0177713 0.00702455
0.0906677 0.015993 0.00802826
0.0853918 0.0179316 0.00707757
0.0849037 0.0165985 0.00759284
0.0906507 0.015919 0.00809328
0.0848482 0.0167512 0.00753124
0.085327 0.0176567 0.00717896
0.0847143 0.016544 0.00762659
0.0852067 0.0183054 0.0069412
0.0852115 0.0177167 0.00724707
0.09086 0.0164407 0.00775912
0.0852224 0.0178557 0.00719536
0.0848992 0.017358 0.00729118
0.0851137 0.017508 0.00723483
0.0850584 0.0168956 0.00746028
0.0852746 0.0178116 0.00712234
0.0848129 0.0169934 0.00743102
0.0912777 0.0173981 0.00718392
0.0911554 0.018063 0.00702928
0.097067 0.0176607 0.00712477
0.0909952 0.0177405 0.00701875
0.0849741 0.0172957 0.00731365
0.0849957 0.0173873 0.00727986
0.0913634 0.0182288 0.00706367
0.0910984 0.0182232 0.00704757
0.0911135 0.0178687 0.00702134
0.0907262 0.0162443 0.00787528
0.0848089 0.0165715 0.00760961
0.0906875 0.0160767 0.00797731
0.0847729 0.0168136 0.00750901
0.0846754 0.0163684 0.00771373
0.0970366 0.0175551 0.00715088
0.0852218 0.017966 0.00706586
0.0845217 0.0158185 0.00827194
0.0851038 0.0178453 0.00711089
0.0848889 0.0169311 0.00745381
0.0854323 0.0181194 0.0070083
0.0850289 0.0179076 0.00708842
0.0849432 0.0167782 0.00751448
0.091174 0.0181581 0.00705391
0.0911648 0.0177042 0.00703104
0.0851679 0.0185523 0.0068543
0.0851123 0.0182746 0.00695305
0.0853197 0.0184284 0.00689535
0.0851254 0.017937 0.00707709
0.0788767 0.0172447 0.00727225
0.0850936 0.0181824 0.00698704
0.0851471 0.0180286 0.00704329
0.0788556 0.01716 0.00732101
0.0788977 0.0173294 0.00722348
0.0851687 0.0181202 0.00700947
0.0789398 0.0174989 0.00712595
0.0906134 0.0157927 0.00824037
0.0912713 0.0181912 0.00705327
0.0850505 0.0179992 0.00705463
0.0906353 0.0158435 0.00815701
0.0909966 0.0166397 0.0076415
0.0789188 0.0174142 0.00717472
0.0852313 0.0176284 0.00718993
0.0852001 0.0178744 0.00709966
0.08508 0.0169872 0.00742649
0.0850721 0.0180908 0.00702084
0.085452 0.0182128 0.00697387
0.0853011 0.0183362 0.00692934
0.0853486 0.0177483 0.00714517
0.0912347 0.0176371 0.00705604
0.0851495 0.018459 0.00688512
0.0853768 0.0182748 0.0069515
0.0790034 0.0177652 0.00701579
0.0852253 0.0183976 0.00690721
0.0850072 0.017816 0.00712222
0.0911186 0.0183201 0.0070618
0.0851232 0.0171704 0.0073589
0.0852962 0.0179032 0.00708855
0.0852633 0.0181508 0.0069977
0.0852824 0.018244 0.00696336
0.0852636 0.0185877 0.00686899
0.0853475 0.0185347 0.0068561
0.0852433 0.0180577 0.00703205
0.0853576 0.0181819 0.00698575
0.0854127 0.0180258 0.00704283
0.0851855 0.0186299 0.00691488
0.0911245 0.0180985 0.00711749
0.0789609 0.0175836 0.00707718
0.0790772 0.0176978 0.00702036
0.0852097 0.0175368 0.00722372
0.0790231 0.0178615 0.0070343
0.0789819 0.0176683 0.00702842
0.0851881 0.0182129 0.0069753
0.0851306 0.0183668 0.00691904
0.085338 0.0180883 0.00702026
0.0909115 0.017299 0.00733307
0.0852439 0.0184897 0.00687322
0.0847495 0.0163084 0.00774397
0.0853955 0.018367 0.00691749
0.0853051 0.0175649 0.00721286
0.0911814 0.0173737 0.00719529
0.085206 0.0187275 0.00692185
0.0847697 0.0163917 0.00768798
0.0912468 0.0176294 0.007155
0.0911865 0.0172019 0.00730158
0.0851569 0.0176912 0.00716725
0.0851016 0.0170788 0.0073927
0.0911287 0.0172703 0.00725709

VERTICES 289 578
1 0
1 1
1 2
1 3
1 4
1 5
1 6
1 7
1 8
1 9
1 10
1 11
1 12
1 13
1 14
1 15
1 16
1 17
1 18
1 19
1 20
1 21
1 22
1 23
1 24
1 25
1 26
1 27
1 28
1 29
1 30
1 31
1 32
1 33
1 34
1 35
1 36
1 37
1 38
1 39
1 40
1 41
1 42
1 43
1 44
1 45
1 46
1 47
1 48
1 49
1 50
1 51
1 52
1 53
1 54
1 55
1 56
1 57
1 58
1 59
1 60
1 61
1 62
1 63
1 64
1 65
1 66
1 67
1 68
1 69
1 70
1 71
1 72
1 73
1 74
1 75
1 76
1 77
1 78
1 79
1 80
1 81
1 82
1 83
1 84
1 85
1 86
1 87
1 88
1 89
1 90
1 91
1 92
1 93
1 94
1 95
1 96
1 97
1 98
1 99
1 100
1 101
1 102
1 103
1 104
1 105
1 106
1 107
1 108
1 109
1 110
1 111
1 112
1 113
1 114
1 115
1 116
1 117
1 118
1 119
1 120
1 121
1 122
1 123
1 124
1 125
1 126
1 127
1 128
1 129
1 130
1 131
1 132
1 133
1 134
1 135
1 136
1 137
1 138
1 139
1 140
1 141
1 142
1 143
1 144
1 145
1 146
1 147
1 148
1 149
1 150
1 151
1 152
1 153
1 154
1 155
1 156
1 157
1 158
1 159
1 160
1 161
1 162
1 163
1 164
1 165
1 166
1 167
1 168
1 169
1 170
1 171
1 172
1 173
1 174
1 175
1 176
1 177
1 178
1 179
1 180
1 181
1 182
1 183
1 184
1 185
1 186
1 187
1 188
1 189
1 190
1 191
1 192
1 193
1 194
1 195
1 196
1 197
1 198
1 199
1 200
1 201
1 202
1 203
1 204
1 205
1 206
1 207
1 208
1 209
1 210
1 211
1 212
1 213
1 214
1 215
1 216
1 217
1 218
1 219
1 220
1 221
1 222
1 223
1 224
1 225
1 226
1 227
1 228
1 229
1 230
1 231
1 232
1 233
1 234
1 235
1 236
1 237
1 238
1 239
1 240
1 241
1 242
1 243
1 244
1 245
1 246
1 247
1 248
1 249
1 250
1 251
1 252
1 253
1 254
1 255
1 256
1 257
1 258
1 259
1 260
1 261
1 262
1 263
1 264
1 265
1 266
1 267
1 268
1 269
1 270
1 271
1 272
1 273
1 274
1 275
1 276
1 277
1 278
1 279
1 280
1 281
1 282
1 283
1 284
1 285
1 286
1 287
1 288

POINT_DATA 289
SCALARS id int 1
LOOKUP_TABLE default
1
2
3
4
5
6
7
8
9
10
11
12
13
14
15
16
17
18
19
20
21
22
24
25
26
27
29
30
31
32
33
34
35
36
37
38
39
40
41
42
43
44
45
46
47
48
49
50
52
53
54
55
56
57
58
59
60
61
62
63
64
65
66
67
68
69
70
71
72
73
74
75
76
77
78
79
80
81
82
83
84
85
86
87
88
89
90
91
92
93
94
95
96
98
99
100
101
102
103
104
105
106
107
108
109
110
111
112
113
114
115
116
117
118
119
120
121
122
123
124
125
126
127
128
129
130
131
132
133
134
135
136
137
138
139
140
141
142
144
145
146
147
148
149
150
152
153
154
155
156
157
158
159
160
161
162
164
165
166
167
168
169
170
171
172
173
174
175
176
177
178
179
180
181
182
183
184
185
186
187
188
189
190
191
192
193
194
195
196
197
198
199
200
201
202
203
204
205
206
207
208
209
210
211
213
214
215
216
217
218
219
220
221
222
223
224
225
226
227
228
229
230
231
232
233
234
235
236
237
238
239
241
242
243
244
245
246
247
248
249
250
251
252
253
254
255
256
257
258
259
260
261
262
263
264
265
267
268
269
270
271
272
273
274
275
276
277
278
279
280
281
282
283
284
285
286
287
288
289
290
292
293
294
295
296
297
298
299
300

SCALARS type int 1
LOOKUP_TABLE default
1
1
1
1
1
1
1
1
1
1
1
1
1
1
1
1
1
1
1
1
1
1
1
1
1
1
1
1
1
1
1
1
1
1
1
1
1
1
1
1
1
1
1
1
1
1
1
1
1
1
1
1
1
1
1
1
1
1
1
1
1
1
1
1
1
1
1
1
1
1
1
1
1
1
1
1
1
1
1
1
1
1
1
1
1
1
1
1
1
1
1
1
1
1
1
1
1
1
1
1
1
1
1
1
1
1
1
1
1
1
1
1
1
1
1
1
1
1
1
1
1
1
1
1
1
1
1
1
1
1
1
1
1
1
1
1
1
1
1
1
1
1
1
1
1
1
1
1
1
1
1
1
1
1
1
1
1
1
1
1
1
1
1
1
1
1
1
1
1
1
1
1
1
1
1
1
1
1
1
1
1
1
1
1
1
1
1
1
1
1
1
1
1
1
1
1
1
1
1
1
1
1
1
1
1
1
1
1
1
1
1
1
1
1
1
1
1
1
1
1
1
1
1
1
1
1
1
1
1
1
1
1
1
1
1
1
1
1
1
1
1
1
1
1
1
1
1
1
1
1
1
1
1
1
1
1
1
1
1
1
1
1
1
1
1
1
1
1
1
1
1
1
1
1
1
1
1
1
1
1
1
1
1
1
1
1
1
1
1

SCALARS radius float 1
LOOKUP_TABLE default
5e-05
5e-05
5e-05
5e-05
5e-05
5e-05
5e-05
5e-05
5e-05
5e-05
5e-05
5e-05
5e-05
5e-05
5e-05
5e-05
5e-05
5e-05
5e-05
5e-05
5e-05
5e-05
5e-05
5e-05
5e-05
5e-05
5e-05
5e-05
5e-05
5e-05
5e-05
5e-05
5e-05
5e-05
5e-05
5e-05
5e-05
5e-05
5e-05
5e-05
5e-05
5e-05
5e-05
5e-05
5e-05
5e-05
5e-05
5e-05
5e-05
5e-05
5e-05
5e-05
5e-05
5e-05
5e-05
5e-05
5e-05
5e-05
5e-05
5e-05
5e-05
5e-05
5e-05
5e-05
5e-05
5e-05
5e-05
5e-05
5e-05
5e-05
5e-05
5e-05
5e-05
5e-05
5e-05
5e-05
5e-05
5e-05
5e-05
5e-05
5e-05
5e-05
5e-05
5e-05
5e-05
5e-05
5e-05
5e-05
5e-05
5e-05
5e-05
5e-05
5e-05
5e-05
5e-05
5e-05
5e-05
5e-05
5e-05
5e-05
5e-05
5e-05
5e-05
5e-05
5e-05
5e-05
5e-05
5e-05
5e-05
5e-05
5e-05
5e-05
5e-05
5e-05
5e-05
5e-05
5e-05
5e-05
5e-05
5e-05
5e-05
5e-05
5e-05
5e-05
5e-05
5e-05
5e-05
5e-05
5e-05
5e-05
5e-05
5e-05
5e-05
5e-05
5e-05
5e-05
5e-05
5e-05
5e-05
5e-05
5e-05
5e-05
5e-05
5e-05
5e-05
5e-05
5e-05
5e-05
5e-05
5e-05
5e-05
5e-05
5e-05
5e-05
5e-05
5e-05
5e-05
5e-05
5e-05
5e-05
5e-05
5e-05
5e-05
5e-05
5e-05
5e-05
5e-05
5e-05
5e-05
5e-05
5e-05
5e-05
5e-05
5e-05
5e-05
5e-05
5e-05
5e-05
5e-05
5e-05
5e-05
5e-05
5e-05
5e-05
5e-05
5e-05
5e-05
5e-05
5e-05
5e-05
5e-05
5e-05
5e-05
5e-05
5e-05
5e-05
5e-05
5e-05
5e-05
5e-05
5e-05
5e-05
5e-05
5e-05
5e-05
5e-05
5e-05
5e-05
5e-05
5e-05
5e-05
5e-05
5e-05
5e-05
5e-05
5e-05
5e-05
5e-05
5e-05
5e-05
5e-05
5e-05
5e-05
5e-05
5e-05
5e-05
5e-05
5e-05
5e-05
5e-05
5e-05
5e-05
5e-05
5e-05
5e-05
5e-05
5e-05
5e-05
5e-05
5e-05
5e-05
5e-05
5e-05
5e-05
5e-05
5e-05
5e-05
5e-05
5e-05
5e-05
5e-05
5e-05
5e-05
5e-05
5e-05
5e-05
5e-05
5e-05
5e-05
5e-05
5e-05
5e-05
5e-05
5e-05
5e-05
5e-05
5e-05
5e-05
5e-05
5e-05
5e-05
5e-05
5e-05
5e-05
5e-05
5e-05
5e-05
5e-05
5e-05
5e-05
5e-05
5e-05
5e-05
5e-05
5e-05
5e-05
5e-05
5e-05
5e-05

SCALARS mass float 1
LOOKUP_TABLE default
1.46608e-10
1.46608e-10
1.46608e-10
1.46608e-10
1.46608e-10
1.46608e-10
1.46608e-10
1.46608e-10
1.46608e-10
1.46608e-10
1.46608e-10
1.46608e-10
1.46608e-10
1.46608e-10
1.46608e-10
1.46608e-10
1.46608e-10
1.46608e-10
1.46608e-10
1.46608e-10
1.46608e-10
1.46608e-10
1.46608e-10
1.46608e-10
1.46608e-10
1.46608e-10
1.46608e-10
1.46608e-10
1.46608e-10
1.46608e-10
1.46608e-10
1.46608e-10
1.46608e-10
1.46608e-10
1.46608e-10
1.46608e-10
1.46608e-10
1.46608e-10
1.46608e-10
1.46608e-10
1.46608e-10
1.46608e-10
1.46608e-10
1.46608e-10
1.46608e-10
1.46608e-10
1.46608e-10
1.46608e-10
1.46608e-10
1.46608e-10
1.46608e-10
1.46608e-10
1.46608e-10
1.46608e-10
1.46608e-10
1.46608e-10
1.46608e-10
1.46608e-10
1.46608e-10
1.46608e-10
1.46608e-10
1.46608e-10
1.46608e-10
1.46608e-10
1.46608e-10
1.46608e-10
1.46608e-10
1.46608e-10
1.46608e-10
1.46608e-10
1.46608e-10
1.46608e-10
1.46608e-10
1.46608e-10
1.46608e-10
1.46608e-10
1.46608e-10
1.46608e-10
1.46608e-10
1.46608e-10
1.46608e-10
1.46608e-10
1.46608e-10
1.46608e-10
1.46608e-10
1.46608e-10
1.46608e-10
1.46608e-10
1.46608e-10
1.46608e-10
1.46608e-10
1.46608e-10
1.46608e-10
1.46608e-10
1.46608e-10
1.46608e-10
1.46608e-10
1.46608e-10
1.46608e-10
1.46608e-10
1.46608e-10
1.46608e-10
1.46608e-10
1.46608e-10
1.46608e-10
1.46608e-10
1.46608e-10
1.46608e-10
1.46608e-10
1.46608e-10
1.46608e-10
1.46608e-10
1.46608e-10
1.46608e-10
1.46608e-10
1.46608e-10
1.46608e-10
1.46608e-10
1.46608e-10
1.46608e-10
1.46608e-10
1.46608e-10
1.46608e-10
1.46608e-10
1.46608e-10
1.46608e-10
1.46608e-10
1.46608e-10
1.46608e-10
1.46608e-10
1.46608e-10
1.46608e-10
1.46608e-10
1.46608e-10
1.46608e-10
1.46608e-10
1.46608e-10
1.46608e-10
1.46608e-10
1.46608e-10
1.46608e-10
1.46608e-10
1.46608e-10
1.46608e-10
1.46608e-10
1.46608e-10
1.46608e-10
1.46608e-10
1.46608e-10
1.46608e-10
1.46608e-10
1.46608e-10
1.46608e-10
1.46608e-10
1.46608e-10
1.46608e-10
1.46608e-10
1.46608e-10
1.46608e-10
1.46608e-10
1.46608e-10
1.46608e-10
1.46608e-10
1.46608e-10
1.46608e-10
1.46608e-10
1.46608e-10
1.46608e-10
1.46608e-10
1.46608e-10
1.46608e-10
1.46608e-10
1.46608e-10
1.46608e-10
1.46608e-10
1.46608e-10
1.46608e-10
1.46608e-10
1.46608e-10
1.46608e-10
1.46608e-10
1.46608e-10
1.46608e-10
1.46608e-10
1.46608e-10
1.46608e-10
1.46608e-10
1.46608e-10
1.46608e-10
1.46608e-10
1.46608e-10
1.46608e-10
1.46608e-10
1.46608e-10
1.46608e-10
1.46608e-10
1.46608e-10
1.46608e-10
1.46608e-10
1.46608e-10
1.46608e-10
1.46608e-10
1.46608e-10
1.46608e-10
1.46608e-10
1.46608e-10
1.46608e-10
1.46608e-10
1.46608e-10
1.46608e-10
1.46608e-10
1.46608e-10
1.46608e-10
1.46608e-10
1.46608e-10
1.46608e-10
1.46608e-10
1.46608e-10
1.46608e-10
1.46608e-10
1.46608e-10
1.46608e-10
1.46608e-10
1.46608e-10
1.46608e-10
1.46608e-10
1.46608e-10
1.46608e-10
1.46608e-10
1.46608e-10
1.46608e-10
1.46608e-10
1.46608e-10
1.46608e-10
1.46608e-10
1.46608e-10
1.46608e-10
1.46608e-10
1.46608e-10
1.46608e-10
1.46608e-10
1.46608e-10
1.46608e-10
1.46608e-10
1.46608e-10
1.46608e-10
1.46608e-10
1.46608e-10
1.46608e-10
1.46608e-10
1.46608e-10
1.46608e-10
1.46608e-10
1.46608e-10
1.46608e-10
1.46608e-10
1.46608e-10
1.46608e-10
1.46608e-10
1.46608e-10
1.46608e-10
1.46608e-10
1.46608e-10
1.46608e-10
1.46608e-10
1.46608e-10
1.46608e-10
1.46608e-10
1.46608e-10
1.46608e-10
1.46608e-10
1.46608e-10
1.46608e-10
1.46608e-10
1.46608e-10
1.46608e-10
1.46608e-10
1.46608e-10
1.46608e-10
1.46608e-10
1.46608e-10
1.46608e-10
1.46608e-10
1.46608e-10
1.46608e-10
1.46608e-10
1.46608e-10
1.46608e-10
1.46608e-10

VECTORS velocity float
0.00434208 -6.7433e-05 0.000209348
0.0048715 -0.000340003 -0.000105128
0.00473081 -0.000171928 0.000282449
0.00486523 -0.000342815 -0.000101981
0.00444699 -6.82356e-05 0.000217605
0.00438031 0.000124143 4.75853e-05
0.00434775 -6.23942e-05 0.000205796
0.00444083 -0.000192952 2.95578e-05
0.00487715 -3.96246e-05 1.69781e-06
0.00476244 -0.000102173 0.000259109
0.00435301 -5.83923e-05 0.000207953
0.00487087 -4.05287e-05 2.61062e-06
0.00478779 -0.000115963 0.000246261
0.00439301 0.000112559 0.00011863
0.00436417 -6.97758e-05 0.000209699
0.00441926 0.000110821 0.000118686
0.00445716 1.81203e-07 0.000158863
0.00476512 -1.78465e-05 -2.99208e-06
0.00434923 -7.40669e-05 0.000209062
0.00476468 -8.68869e-05 0.000238783
0.00445099 -6.59115e-05 0.000211108
0.00435564 -6.98859e-05 0.000210116
0.00486702 -3.88392e-05 1.94701e-06
0.00436304 -6.99339e-05 0.00021128
0.00445647 4.15705e-05 -2.20485e-05
0.00476221 -8.2372e-05 3.19621e-06
0.0043474 -6.97565e-05 0.000208568
0.00436534 0.000126099 4.4833e-05
0.00470039 0.00013081 0.000214918
0.00436906 -1.1685e-05 0.000176145
0.00439664 0.000121362 4.90414e-05
0.00467261 -0.000116091 4.21131e-05
0.00434667 -6.71406e-05 0.000210856
0.00488371 -3.38224e-05 2.36712e-05
0.00434681 -5.95925e-05 0.000204456
0.00435017 -6.54721e-05 0.000209386
0.00448796 3.74853e-05 -1.54175e-05
0.00435081 -6.19951e-05 0.000206277
0.00432234 -7.49497e-05 0.000213143
0.00435406 -6.16809e-05 0.000206468
0.0045337 -7.38732e-05 0.000209141
0.0048873 -0.000284642 0.000101928
0.00440698 5.07827e-05 -2.74571e-05
0.0044843 3.77834e-05 -1.70892e-05
0.00431991 -6.06472e-05 0.000204168
0.00456382 -0.000168968 0.000277845
0.00444401 4.63185e-05 -2.17008e-05
0.00480652 -0.000302176 1.80197e-05
0.00478784 -0.000103785 1.12118e-05
0.00447284 4.08206e-05 -1.67529e-05
0.004359 -6.45795e-05 0.000206564
0.00435123 0.000116562 0.000110007
0.00476842 -0.000279515 -0.000100623
0.00442746 4.7674e-05 -2.46493e-05
0.00457992 -0.000125983 -0.000146364
0.00486801 -4.04103e-05 2.47285e-06
0.00436983 -0.000138134 0.000253914
0.00432123 -6.15164e-05 0.000204754
0.00441244 -6.6303e-05 0.000209421
0.00482375 -0.000361424 -5.20368e-05
0.00456603 2.22356e-05 -1.26238e-05
0.00439934 -0.000188789 2.69583e-05
0.00473861 -0.000114088 1.47915e-05
0.00477454 -6.66831e-05 0.000228831
0.0046506 -0.000188674 -0.000185271
0.00435738 -5.95371e-05 0.00020654
0.00488699 -3.33158e-05 2.34768e-05
0.00438367 0.000109343 0.000119104
0.00487466 -3.97323e-05 2.10399e-06
0.00432571 -3.13928e-05 0.000186463
0.0048157 -0.000225147 0.000248351
0.00432489 -5.02873e-05 0.000197949
0.00486267 -4.59294e-05 3.85861e-06
0.00482504 -0.000322886 0.000236979
0.00440337 0.000102008 0.000115998
0.00442863 -9.92771e-05 -0.000206235
0.00489288 -0.000350934 -0.000105823
0.00484167 -0.000126107 2.18375e-05
0.00477234 -8.38871e-05 4.93712e-06
0.00442028 8.4176e-05 0.000109726
0.00487384 -3.13694e-05 2.67787e-07
0.00438924 6.32942e-05 0.000166612
0.00483338 -0.000379152 -9.42914e-05
0.00488032 -3.41978e-05 2.37106e-05
0.00483581 -0.000376512 -8.47781e-05
0.00480812 -0.000326782 -8.32979e-05
0.00478144 -0.000299996 -3.3131e-05
0.00452368 -8.009e-05 0.000224079
0.00493952 -0.000234245 0.000258895
0.00484691 -0.000293045 0.00024354
0.00479579 -0.000368578 -9.84667e-05
0.0048601 -0.000328769 0.000234526
0.00489006 -0.000341069 -9.35155e-05
0.00459733 -0.000396537 5.88019e-05
0.0047339 -9.52967e-05 7.50703e-06
0.00487537 -0.00026325 0.00024949
0.00456137 -0.000201981 -0.000171056
0.00472895 -0.000104476 0.000243475
0.00436216 -6.49309e-05 0.000206374
0.00477318 -0.000107852 1.27875e-05
0.00439484 0.000111699 0.000114405
0.00471436 -0.000317129 -9.35382e-05
0.00436706 7.83263e-05 0.000147986
0.00450379 4.71121e-05 9.67063e-05
0.00467708 -8.32484e-05 0.000224767
0.00481082 -0.000352922 -9.20061e-05
0.00484959 -0.000366084 5.5973e-05
0.00463252 -0.000131702 -0.000196595
0.00481041 -0.000350467 -9.2155e-05
0.004801 -9.76494e-05 9.06544e-06
0.00487321 -0.00033507 -0.000101707
0.0047606 -0.000207345 0.000312906
0.00441298 -4.79176e-05 -0.000210154
0.00479574 -0.000105785 1.19536e-05
0.00432573 0.000132243 3.83945e-05
0.00435799 -6.43933e-05 0.000208993
0.00443562 -5.74591e-05 -0.000198295
0.0048291 -0.000223053 0.000249297
0.00443498 -0.000105954 -0.000204395
0.00483913 -0.000259038 0.000245797
0.0043248 -5.58572e-05 0.00020164
0.00440203 -7.2031e-05 0.000210862
0.00444591 -8.83308e-05 -0.000146385
0.00478434 -0.000352319 -8.01881e-05
0.00476689 -9.72795e-05 8.2691e-06
0.00436599 -2.24609e-05 0.000181741
0.0047571 -0.000111661 1.30849e-05
0.00487365 -0.000347118 -0.000101799
0.00434174 -6.43747e-05 0.000208062
0.00476232 -9.43536e-05 0.000244795
0.00434965 -5.84905e-05 0.000203669
0.00444148 0.000176671 4.64221e-05
0.0048593 -0.000278733 0.00024463
0.00486043 -0.000344587 -9.79826e-05
0.00484067 -0.000169707 0.00033562
0.0049018 -0.000347699 -7.27464e-05
0.00442129 6.32346e-05 0.000169937
0.00468418 -9.33306e-05 0.000250303
0.00477301 -0.000158937 0.000174412
0.00481371 -0.000336887 -8.20657e-05
0.00469939 -0.000254094 0.000237679
0.00436578 6.80175e-05 0.000159544
0.00476187 -0.000117636 0.00025321
0.0048889 -0.000387981 -0.000141662
0.00454146 -7.42682e-05 -0.000174434
0.00481719 -0.000118643 1.69767e-05
0.00449281 -7.51425e-05 -0.000172857
0.0047924 -9.33298e-05 7.32191e-06
0.00440957 -9.26304e-05 -0.000208128
0.00471102 -0.000116314 1.70466e-05
0.00482976 -0.000299056 0.000241196
0.00475221 -9.61988e-05 8.09015e-06
0.00434603 -5.61447e-05 0.000202464
0.00483909 -0.000135601 2.199e-05
0.00473624 -0.000277157 0.00023664
0.00479322 -0.00010568 1.20299e-05
0.0047876 -0.000319853 0.000234243
0.00479319 -0.000108546 1.32547e-05
0.00433715 -7.59914e-05 0.000215107
0.00450568 -0.00017043 -0.000181713
0.0048859 -0.000353428 -9.80198e-05
0.00485308 -0.000175954 3.74728e-05
0.00480583 -0.000113173 1.45835e-05
0.00483462 -0.000259937 0.000245106
0.00467771 -2.35231e-05 -1.7528e-05
0.00479075 -0.000215222 0.00024836
0.00481471 -0.000120822 1.70396e-05
0.00458593 -0.000159514 3.30008e-05
0.00474875 -8.23624e-05 -7.18863e-06
0.00480919 -0.000108671 1.24175e-05
0.00478519 -0.000106684 1.22679e-05
0.00481401 -0.000106321 1.19274e-05
0.00484896 -0.000351215 -9.43302e-05
0.00446645 -0.000118907 -0.000201447
0.00433443 -6.19207e-05 0.000205031
0.0048344 -0.000140485 2.44648e-05
0.00482774 -0.000190845 0.000301607
0.00482691 -0.000127248 1.95949e-05
0.00488404 -0.000127436 3.30542e-05
0.00489 -3.33463e-05 2.33905e-05
0.00468872 -0.000274596 0.000234443
0.00434805 -0.00015015 0.000259931
0.00481887 -0.000116615 1.62177e-05
0.00480152 -0.000254402 0.000244113
0.00484312 -0.000111352 2.10815e-05
0.00487802 -0.000311448 1.46224e-05
0.00445949 -6.45366e-05 0.000211445
0.00467199 -4.96678e-05 -8.17395e-06
0.00444818 -0.00015922 -0.000182827
0.00448546 -9.80577e-05 0.000180026
0.00451672 -0.000129345 -0.000195637
0.0048319 -0.000142492 2.58568e-05
0.0044361 -0.00011089 -0.000213212
0.00446699 -4.86865e-05 -8.56669e-06
0.00481686 -9.41437e-05 1.76663e-05
0.00433669 -7.17206e-05 0.000210153
0.00486694 -0.000150558 2.98093e-05
0.00478539 -8.6728e-05 5.29617e-06
0.00480609 -0.000113224 1.53089e-05
0.004682 -0.000141857 2.88761e-05
0.00485599 -0.000151409 2.77781e-05
0.00472899 -0.000115119 -0.000102596
0.00478447 -0.000150344 0.000268238
0.00481408 -0.000289096 0.000240965
0.00487306 -4.27392e-05 3.09217e-06
0.00490948 -0.000362069 -9.02691e-05
0.00477874 -9.87165e-05 9.41766e-06
0.00478886 -0.000100569 1.02526e-05
0.00474224 -0.000203283 0.000247083
0.0047505 -0.000315761 0.000232764
0.00485664 -0.000299245 0.000177238
0.00431624 -5.5188e-05 0.000200185
0.00443414 -0.000111671 -0.000202731
0.0044115 -6.17231e-05 0.000208476
0.00446767 -0.000100922 -0.000208362
0.00444745 1.45975e-06 2.01947e-05
0.00486523 -4.66098e-05 4.06297e-06
0.00489045 -0.000129886 2.02826e-05
0.00438656 0.000110254 0.00011447
0.00483732 -0.000133406 2.19795e-05
0.0046691 -0.000107289 -4.65895e-05
0.00470848 0.00010133 -6.36332e-05
0.00484043 -0.000132944 2.22418e-05
0.00455824 -0.000174412 -0.000179695
0.00477552 -0.000283636 0.000239335
0.00488188 -0.000311779 -3.64275e-05
0.00461211 -2.87094e-05 5.16518e-05
0.00445805 -4.92067e-05 -6.19311e-06
0.00448853 -6.76073e-05 1.80273e-08
0.00485072 -0.000149951 2.96608e-05
0.00493425 0.000293211 -0.000154317
0.00453725 -7.67741e-05 3.50184e-06
0.00486216 -0.000152491 2.88805e-05
0.00490849 0.000298 -0.000157609
0.00496026 0.00028758 -0.000151528
0.00461817 -2.58824e-05 -1.5982e-05
0.00500878 0.000282388 -0.000147899
0.00450712 -0.000221111 7.20944e-05
0.00476192 -0.000246437 0.000242232
0.00484736 -0.000143918 2.63897e-05
0.00447399 -0.000171703 9.10715e-05
0.00428697 -0.00015029 0.000258599
0.00498339 0.000282808 -0.000148616
0.00480603 -0.000146003 2.74544e-05
0.00485483 -0.000145238 2.65331e-05
0.00471938 -0.000142767 2.6442e-05
0.0048591 -0.000147863 2.73177e-05
0.00467388 -2.49181e-05 -1.69483e-05
0.00446587 -8.78417e-05 7.64195e-06
0.00483869 -0.000173401 3.61392e-05
0.00487729 -0.000340379 -0.000102634
0.00436931 -5.0324e-05 -6.1855e-05
0.00453161 -0.000112326 1.50827e-05
0.00505008 0.000253759 -0.000267384
0.00445487 -2.5438e-05 -2.36699e-05
0.00483034 -0.000121688 1.91358e-05
0.00470968 -0.00031128 0.000231745
0.00475811 -0.000122489 1.81695e-05
0.00490643 -0.000118546 1.5956e-05
0.00453357 8.32463e-05 -5.5989e-05
0.00450943 -3.99708e-05 -1.0948e-05
0.0045446 -2.25176e-05 4.80731e-05
0.00454451 -4.44355e-05 -2.62249e-06
0.0046375 -3.79956e-05 -1.20595e-05
0.00456558 -2.12418e-05 -1.73011e-05
0.00454947 0.000154339 -8.22471e-05
0.00453463 -0.00012145 0.000135467
0.00479065 -0.000303662 0.000239492
0.00504056 0.000275006 -0.000144467
0.00492925 0.000156291 0.000242757
0.00481891 -0.000116073 1.57254e-05
0.00502355 0.000287686 -0.000385854
0.00505856 0.000267408 -0.00013974
0.00448997 1.64206e-05 -3.15257e-05
0.00449817 -5.93836e-05 -5.74622e-06
0.0045659 0.000145879 -7.93665e-05
0.00472623 -0.000321484 -7.41361e-06
0.00451751 -2.29384e-05 -1.16234e-05
0.00444402 6.70323e-05 0.000167834
0.00444414 -8.50714e-05 6.93956e-06
0.00477669 -0.000176559 3.81142e-05
0.00478634 -0.000179455 0.00030245
0.00451645 -0.000139833 1.70875e-05
0.00443869 -0.000106974 -0.000199169
0.00494191 -0.000364256 -0.000116139
0.00477936 -7.33728e-05 0.000227662
0.00482356 -0.000128084 1.98873e-05
0.00473963 -0.000131364 2.16095e-05
0.00470582 -0.000150788 0.000261979

VECTORS force float
-4.04624e-12 6.90774e-12 -8.31744e-12
1.37562e-10 2.204e-11 7.61801e-11
2.48627e-11 5.67216e-12 -8.91108e-11
7.15762e-11 1.04976e-10 -2.55513e-11
5.14448e-11 9.43247e-11 9.0051e-12
-5.09717e-12 1.11414e-11 -7.50645e-12
-8.83613e-12 -2.13079e-11 3.68612e-12
-1.23885e-13 -5.50675e-11 -1.18407e-10
-9.24146e-12 4.61561e-12 1.02784e-12
-2.00177e-10 -6.4133e-11 -5.1634e-10
1.92842e-11 1.08426e-10 -7.39591e-11
1.52323e-12 -5.7334e-12 -8.09688e-13
1.73886e-10 -2.78402e-12 -3.47583e-10
1.11654e-10 -7.18198e-11 -1.58913e-10
8.06687e-11 2.86886e-11 -7.12973e-11
-3.19578e-12 -8.74817e-11 -3.59611e-11
-5.68535e-11 1.75496e-10 -1.42248e-10
-3.47542e-11 1.74997e-11 -4.70122e-12
-1.0454e-11 -1.00464e-10 -1.1016e-11
-2.25738e-10 2.93808e-10 -1.21824e-10
-4.81439e-11 2.69258e-11 -2.51872e-11
-6.49195e-11 -2.26299e-12 -1.70455e-11
-6.60149e-12 1.21917e-11 -2.15989e-12
-4.16725e-11 -4.96174e-11 2.53068e-11
-4.00035e-12 -1.40603e-12 5.12524e-12
3.25448e-11 3.66993e-12 -1.43118e-11
1.06495e-11 -7.82002e-11 -1.15182e-11
4.59654e-12 2.87176e-12 3.8636e-12
-2.34685e-11 -9.41927e-11 4.84222e-10
1.30799e-11 6.93177e-11 -5.05383e-11
-1.03673e-11 -1.04128e-12 -2.23396e-11
5.31479e-10 -6.11122e-10 4.08394e-10
1.36267e-10 9.80683e-11 4.5198e-11
1.98057e-12 -8.47792e-14 -1.3607e-12
-4.68262e-12 -1.21864e-11 5.92454e-12
7.07937e-11 -1.41899e-12 -6.91037e-12
3.65453e-11 -2.10788e-11 1.09709e-11
1.0982e-11 2.25696e-12 2.99852e-12
8.23419e-12 -1.6007e-11 1.10999e-11
1.98769e-13 2.30369e-11 -1.54662e-11
1.19773e-10 8.15379e-11 -1.58314e-10
-7.40604e-11 2.86843e-11 -3.39059e-11
-1.68935e-11 2.57301e-11 2.32559e-11
2.46417e-11 -3.69409e-11 1.40653e-11
-2.56532e-11 3.48965e-12 8.74701e-14
-1.13005e-10 7.56631e-11 -5.55701e-11
3.28665e-11 2.81938e-11 -1.53227e-11
5.83688e-11 -9.79578e-10 -7.24845e-10
1.24242e-10 3.41725e-11 -1.50236e-11
-3.91468e-11 -5.14643e-12 9.29524e-12
8.72878e-11 -1.36371e-10 -3.99555e-11
-3.84764e-13 4.70184e-11 -1.02587e-10
5.19258e-11 3.4532e-11 -1.31164e-11
-2.83446e-11 1.21438e-12 -2.56828e-11
-7.06637e-11 -1.78776e-11 2.19739e-11
7.46755e-12 8.9849e-12 -3.99972e-12
-8.95841e-12 5.78677e-11 -2.04238e-11
3.89635e-12 4.59e-12 -2.22087e-12
-6.30716e-11 1.20566e-10 -9.99307e-11
3.54414e-10 -4.79515e-11 -9.0549e-11
-3.401e-11 5.05416e-12 4.31962e-13
1.31865e-10 7.99525e-11 -1.09284e-11
4.92711e-11 2.15101e-11 -9.04322e-12
-2.36887e-10 2.70871e-11 -1.85857e-11
-5.70858e-11 -3.52332e-11 -1.73003e-10
1.74108e-11 2.48659e-11 -1.73108e-11
-3.49333e-13 -2.40131e-12 2.91406e-12
-1.29668e-11 1.16659e-10 -1.06665e-10
-2.09835e-12 -3.30682e-12 -4.28124e-13
-2.536e-11 -1.49757e-10 9.03942e-11
-2.53694e-11 5.84844e-11 8.26635e-12
6.92059e-12 -3.29517e-12 2.47889e-12
3.81418e-11 3.54371e-11 -8.94046e-12
-1.27761e-11 6.90186e-11 1.0172e-11
-2.46563e-11 3.15689e-10 1.22133e-10
-8.9541e-12 -7.49267e-11 4.64391e-11
-1.75869e-10 -1.71044e-10 -3.33104e-11
1.19394e-11 -9.25197e-11 3.63048e-11
-4.09708e-12 -1.31678e-11 -5.12792e-12
5.06321e-11 3.1253e-10 1.87155e-10
-1.01896e-12 -2.09301e-11 3.15478e-12
1.69916e-11 1.99453e-11 -2.95984e-11
-7.07686e-10 2.28986e-10 1.62375e-10
7.72625e-12 4.81824e-12 -5.46481e-12
-5.79035e-10 -4.26187e-11 1.76608e-10
-1.18162e-10 -5.89414e-11 -5.4444e-11
6.88891e-11 -3.21183e-11 1.80864e-11
1.83441e-11 1.5207e-10 -4.93337e-11
6.23917e-11 4.68076e-11 1.01684e-10
-7.61898e-11 2.04276e-11 -1.03472e-11
-7.07129e-11 4.56844e-12 3.29227e-10
-4.26704e-11 2.45783e-11 3.22232e-11
-1.18848e-10 -6.5058e-11 8.35191e-11
1.56103e-10 5.61073e-11 1.31925e-10
1.8197e-11 -1.02971e-11 -5.52089e-12
-2.99641e-11 -7.48754e-12 8.36011e-13
-3.58748e-11 2.95186e-11 -2.59738e-12
-1.19072e-10 1.02192e-10 -1.94619e-10
1.20221e-11 7.09626e-11 -8.08332e-11
5.35745e-11 -2.28048e-11 3.41902e-13
1.29585e-12 1.24018e-10 -8.75818e-11
2.5582e-10 2.14952e-10 -9.81906e-11
-1.49675e-10 1.04535e-10 -1.05798e-10
1.58302e-09 -9.57408e-10 3.43902e-10
1.34083e-10 7.54402e-11 2.97896e-11
3.45811e-10 1.47975e-10 2.67113e-11
1.09212e-10 1.49408e-11 2.57813e-10
1.35301e-11 -1.26679e-10 7.90785e-11
-3.60162e-10 1.10783e-11 -4.133e-11
-4.67217e-11 -3.47927e-11 1.32749e-11
-3.94478e-10 -1.89352e-11 1.39321e-10
-6.54914e-11 4.77756e-11 -4.36956e-11
-5.03901e-11 4.75328e-11 -6.57886e-11
3.10439e-11 3.85624e-13 -7.51474e-13
6.6742e-12 8.46917e-14 -1.96979e-12
8.29396e-11 1.32309e-10 2.23348e-11
-2.03987e-10 6.29703e-11 -9.94437e-11
5.99394e-11 9.79499e-12 5.82099e-12
-3.40478e-11 -2.75386e-11 1.8873e-11
-2.09351e-11 1.79064e-11 -4.4634e-13
1.56846e-11 -9.08639e-11 5.38488e-11
-4.18955e-11 2.06855e-10 -2.79717e-11
1.97382e-11 -2.03684e-11 1.10425e-11
-6.12957e-11 -7.50456e-11 6.75116e-10
3.7082e-11 1.07238e-11 -7.34436e-12
1.9531e-10 -6.44658e-11 -9.87518e-11
5.35704e-11 -7.84612e-12 -5.29217e-12
-1.14962e-10 7.02095e-11 -3.67742e-11
1.26097e-11 -1.38741e-11 -1.52602e-12
-1.39538e-10 -1.91334e-10 -3.65795e-11
5.28968e-11 -1.1731e-11 2.72852e-12
1.68011e-11 -6.11513e-12 -2.06301e-11
-4.76407e-11 1.16948e-11 9.20458e-13
3.09655e-11 -2.04219e-10 -4.57864e-11
1.7887e-09 -6.44289e-10 1.11127e-10
-1.34637e-10 2.09953e-11 1.0172e-10
-8.30142e-12 2.5472e-11 -2.77434e-11
3.01552e-11 3.35045e-11 -1.01301e-11
3.30641e-10 -3.14357e-10 7.25633e-11
3.6846e-10 2.81481e-10 1.12688e-10
9.12654e-11 4.93378e-11 1.15585e-11
-7.03419e-11 5.33404e-11 -7.56252e-11
-1.48757e-10 1.00513e-10 -2.18706e-10
-1.10055e-10 -2.17042e-11 -5.14531e-12
-5.54126e-11 3.73495e-11 -7.17289e-11
5.15062e-11 -5.43828e-11 3.28948e-11
-4.4562e-11 2.83668e-11 -5.6955e-11
6.37902e-11 2.81031e-12 1.62681e-12
-5.68307e-11 -1.16094e-10 5.68328e-11
3.20534e-11 -2.45215e-11 -1.05031e-11
-1.79454e-11 4.4947e-11 -6.62738e-12
3.34588e-11 -3.07955e-12 3.20318e-12
-1.01089e-10 -7.85084e-11 4.62425e-11
8.13633e-11 -7.02713e-11 3.13356e-11
-2.74426e-11 -3.57179e-11 1.51539e-12
1.23991e-10 5.4351e-11 -1.73976e-11
-6.45594e-12 3.78434e-11 2.96568e-11
5.87298e-11 -1.91839e-11 1.71372e-12
4.0492e-13 4.05019e-11 -1.733e-11
-4.01632e-11 5.81172e-11 1.07292e-11
-1.43326e-10 -1.34189e-10 4.2146e-11
1.74835e-10 -1.51473e-10 5.51993e-11
1.19808e-11 -6.89368e-11 2.30626e-11
-3.22704e-11 3.02302e-11 2.78966e-12
-5.00139e-11 -5.32286e-11 2.08048e-11
3.63223e-11 4.10173e-11 7.58135e-12
3.93381e-11 -4.89943e-11 2.9994e-11
1.73569e-10 5.72972e-11 -1.96041e-11
-1.27536e-11 4.54653e-12 7.41702e-11
8.507e-11 -1.84577e-11 4.54615e-12
7.25196e-11 -8.57259e-12 1.277e-11
2.70635e-11 1.42932e-11 -4.67728e-13
-3.63057e-10 -4.97809e-11 1.22709e-11
-6.54482e-12 -7.45802e-11 5.53242e-11
8.67364e-12 -3.76374e-11 2.43826e-11
8.57875e-11 -9.07612e-11 3.27948e-11
9.00714e-11 -1.3052e-10 -7.56546e-12
1.95942e-11 -4.93226e-11 2.60141e-11
1.90497e-10 -4.33518e-11 2.811e-11
7.31853e-13 5.0619e-13 -5.97615e-13
1.44186e-11 -4.56341e-11 -2.43937e-12
-5.85806e-12 -3.0965e-11 1.35792e-13
7.39629e-11 -5.68806e-11 1.76702e-11
-8.60269e-12 -2.97075e-12 -7.14743e-15
-2.07723e-11 -7.48478e-11 3.31424e-11
-1.94195e-11 -3.31456e-11 6.93814e-11
-1.4669e-10 3.71673e-11 -2.43763e-11
-2.88254e-11 -1.28314e-10 4.28868e-11
-7.99616e-11 4.34524e-11 -4.48273e-12
-3.91521e-11 3.28938e-11 -9.66947e-13
4.7849e-11 -6.91493e-11 6.11004e-11
7.27613e-11 -5.48716e-11 1.58023e-11
-1.22314e-11 -6.77747e-11 2.42712e-11
-2.42004e-10 -1.60727e-11 4.47766e-11
9.44182e-11 -7.0022e-11 2.74735e-11
4.50348e-11 3.57493e-11 -3.36083e-11
1.62566e-10 -1.11074e-10 -4.38227e-12
1.03654e-11 3.49778e-11 -1.11668e-11
6.51598e-11 -3.33171e-11 1.42029e-11
3.88813e-11 1.76925e-12 2.36161e-12
1.15437e-10 -8.55987e-11 2.1086e-11
1.67926e-11 -4.09058e-11 1.4333e-10
9.93622e-11 -1.73985e-10 -9.32352e-11
-1.83909e-11 1.27877e-11 -4.8691e-12
9.39504e-12 9.94693e-12 -5.1743e-12
6.32617e-11 -3.65573e-12 1.24851e-11
3.80502e-11 -1.53162e-11 1.43304e-12
4.5483e-11 -6.86278e-12 1.88464e-13
-2.10373e-11 -7.28208e-11 -1.0988e-11
-1.20685e-11 3.01119e-12 3.37091e-12
-7.03862e-11 -1.05554e-11 -2.05153e-12
4.25254e-12 -9.55834e-11 6.10558e-11
-4.57024e-11 -4.41168e-11 2.38472e-11
-2.31993e-10 -1.82212e-11 -2.17439e-12
-5.00862e-11 -1.34583e-10 6.33475e-11
9.94072e-11 2.72269e-11 4.41934e-11
-2.90204e-11 -2.84958e-11 8.19435e-12
1.03586e-10 -5.69846e-11 2.39337e-11
-1.66873e-10 -1.80979e-10 1.98482e-10
2.39358e-11 -7.00131e-11 2.42486e-11
-4.9277e-11 -1.16435e-11 -5.10698e-11
-2.91303e-10 5.51146e-11 -1.15405e-11
4.33777e-11 6.30127e-11 -1.54278e-11
-3.16231e-11 3.70577e-11 -2.9176e-11
-2.32317e-11 -1.60513e-11 2.56219e-11
8.21395e-11 -1.03552e-10 -1.39401e-10
-2.89114e-10 -3.60556e-10 -2.57533e-10
-1.89947e-10 1.7866e-10 -6.41874e-11
-1.56023e-10 -1.13242e-10 1.81211e-10
1.2232e-10 3.72018e-11 -2.15478e-12
5.51e-12 -5.72998e-12 3.99391e-12
-2.27326e-11 2.33947e-10 -8.76091e-11
2.20679e-13 -7.34631e-11 2.76806e-11
2.62883e-12 -2.13299e-12 1.23799e-12
-1.62457e-11 6.62158e-13 4.39169e-12
-1.4269e-11 2.30852e-10 -9.20865e-11
-1.44196e-10 -2.08728e-11 -7.15537e-12
1.01507e-11 -3.17148e-12 1.86502e-11
-2.46245e-11 -1.7957e-11 -2.12513e-12
8.71367e-11 1.32614e-10 -3.72927e-11
-4.09536e-13 2.59607e-11 1.64766e-11
-1.58067e-10 -2.57845e-11 9.09475e-12
8.39413e-11 1.43842e-11 -2.67923e-12
7.13099e-11 -5.64261e-11 2.53731e-11
6.32507e-11 -5.46613e-11 2.29053e-11
3.54385e-11 1.50462e-11 8.65313e-12
1.13162e-10 1.75699e-10 -5.56326e-11
-1.48388e-10 -1.74747e-10 5.12728e-11
-3.35338e-10 -2.89311e-10 1.26313e-10
1.23933e-10 -1.25705e-10 3.83811e-11
1.15294e-10 -4.16279e-11 -1.24609e-11
2.95531e-10 -8.29238e-11 -2.45174e-10
-6.58464e-12 -6.88445e-11 3.43183e-11
-7.60022e-12 -1.06567e-11 1.07489e-11
-2.09387e-10 -1.65668e-10 1.06806e-11
-4.13292e-11 -6.62439e-11 3.03495e-11
4.65702e-13 -1.5933e-11 -8.28432e-13
9.89535e-11 -1.80852e-11 3.90007e-12
1.59328e-10 -1.00621e-10 3.2823e-11
-8.17434e-11 -2.09247e-10 7.44698e-11
1.02091e-10 5.27604e-10 -2.27337e-10
-1.01333e-11 5.9452e-11 2.23038e-10
-6.15984e-11 5.95675e-11 -5.43424e-11
-1.85544e-10 -6.27313e-11 2.78852e-11
-2.60391e-10 2.04681e-10 -7.9809e-11
6.90997e-11 3.35651e-11 -1.66568e-11
-6.6143e-11 1.8006e-10 -6.06163e-11
6.98727e-12 1.59065e-11 -6.99927e-12
9.74834e-11 -1.40059e-12 1.07126e-11
-4.17409e-12 -3.29584e-12 -3.29998e-12
7.83694e-11 -3.61898e-11 1.40944e-11
-1.06931e-11 4.27202e-11 -4.97008e-11
2.61907e-11 6.45743e-12 4.92419e-11
8.24403e-11 5.14483e-11 -2.01395e-11
-6.76222e-11 3.30777e-11 -7.85156e-11
4.2443e-12 -1.10638e-10 4.68379e-11
-1.27009e-09 1.70129e-09 6.85775e-10
-1.10779e-10 -9.22056e-11 -8.42512e-11
8.14428e-11 4.36825e-11 -5.0361e-12
-2.74064e-10 1.3074e-10 -5.36788e-11
6.69466e-11 -5.80006e-11 2.18988e-11
-5.05235e-11 6.21311e-11 -2.02812e-11
3.01358e-10 -3.25818e-11 1.08544e-10
2.29484e-10 -2.90084e-11 -8.7941e-11
5.7276e-11 -4.4903e-11 -5.69238e-11
-2.26549e-10 -1.443e-10 6.10894e-11
4.2345e-11 -6.17271e-11 4.18516e-12
9.35786e-11 9.63937e-12 -5.212e-12
1.45515e-10 -1.10858e-10 -2.63486e-11
