# vtk DataFile Version 3.0
LIGGGHTS particles timestep 26200000
ASCII
DATASET POLYDATA
POINTS 289 float
0.133066 0.0162115 0.00786919
0.133428 0.0175272 0.00744036
0.133387 0.0175748 0.00751797
0.133325 0.017328 0.0075162
0.132664 0.0157213 0.00834699
0.13887 0.0165799 0.00785109
0.1328 0.0162151 0.00787568
0.132646 0.015666 0.00842817
0.139169 0.0177773 0.0071371
0.13306 0.0172925 0.0076061
0.133051 0.0165531 0.00775783
0.139126 0.0175857 0.00717478
0.133023 0.0172032 0.0076361
0.12668 0.0157778 0.00828998
0.132954 0.0165182 0.00776136
0.12666 0.0157047 0.0083552
0.132967 0.0170046 0.0077303
0.139061 0.0172983 0.00723129
0.133184 0.0170521 0.0076872
0.133201 0.0168719 0.00766702
0.132684 0.0157808 0.00826893
0.132932 0.0164249 0.00778971
0.139083 0.0173941 0.00721245
0.132914 0.0163346 0.00782846
0.138961 0.0169043 0.00748263
0.126954 0.0168515 0.00743925
0.133135 0.0171364 0.0077088
0.13885 0.0165096 0.00791956
0.133122 0.0172149 0.00764818
0.132876 0.0165796 0.00773536
0.138889 0.0166501 0.00778258
0.133312 0.0174424 0.00755317
0.13299 0.016272 0.00784364
0.139213 0.0179689 0.00709942
0.13278 0.0161321 0.00792784
0.132896 0.016238 0.00784707
0.139005 0.0170391 0.00734151
0.13282 0.0162972 0.0078219
0.132935 0.0160273 0.00799881
0.132838 0.0163911 0.00779309
0.133093 0.0167405 0.00770082
0.133327 0.017571 0.00742715
0.138907 0.0167167 0.00771038
0.138983 0.0169721 0.00741222
0.132723 0.0159167 0.00812747
0.133186 0.0167774 0.00769633
0.138944 0.0168427 0.00755936
0.133046 0.0170138 0.0076693
0.127264 0.0170129 0.00733537
0.139018 0.0171068 0.00726897
0.133107 0.0163988 0.00781203
0.127172 0.0174391 0.0072432
0.133287 0.0175733 0.00751879
0.138927 0.0167804 0.0076357
0.12697 0.0165469 0.00763216
0.139105 0.0174898 0.00719367
0.133169 0.0166797 0.00772642
0.132703 0.015848 0.00819754
0.133073 0.0166465 0.00772951
0.1333 0.0172342 0.00755127
0.139039 0.0172026 0.00725015
0.132627 0.0156089 0.00850795
0.127105 0.016738 0.00750796
0.133197 0.016967 0.00763611
0.127065 0.0165734 0.00761448
0.132857 0.0164864 0.00776608
0.139234 0.0180647 0.00708058
0.127127 0.0175228 0.00721138
0.139148 0.0176815 0.00715594
0.132742 0.0159854 0.0080574
0.133346 0.0181822 0.00720281
0.132761 0.0160541 0.00798733
0.139223 0.0176177 0.0071733
0.13317 0.0176274 0.0075011
0.126739 0.0159974 0.00809405
0.126836 0.0163633 0.00776753
0.133249 0.0173904 0.00749547
0.127278 0.0175929 0.00719188
0.126976 0.0169345 0.00738751
0.126758 0.0160706 0.00802873
0.139201 0.0175218 0.00719215
0.126814 0.0159524 0.00814255
0.133198 0.0174337 0.0075722
0.139191 0.0178731 0.00711826
0.133122 0.0172573 0.00753648
0.133204 0.0172047 0.00755998
0.133181 0.0171162 0.0076003
0.132996 0.0167052 0.00770443
0.133207 0.017565 0.00743273
0.13322 0.0176782 0.00739093
0.133101 0.0171639 0.00756488
0.1331 0.0175406 0.0075474
0.133168 0.0174455 0.00747762
0.133267 0.0176624 0.00747806
0.12701 0.0167114 0.00752561
0.133417 0.0176861 0.00738245
0.12716 0.016598 0.00759424
0.132919 0.0167637 0.0076794
0.133031 0.0164593 0.00778649
0.127147 0.0169039 0.00740443
0.127163 0.0176131 0.0071863
0.132965 0.016954 0.0076441
0.1267 0.015851 0.0082247
0.133193 0.0172808 0.00762395
0.133105 0.0168416 0.00766918
0.133005 0.0171329 0.00756725
0.133092 0.0175064 0.00745375
0.126895 0.016602 0.00759489
0.133027 0.0172262 0.00753888
0.127039 0.0171832 0.00723228
0.13338 0.0176636 0.0074724
0.133372 0.0171684 0.00757333
0.132611 0.0155725 0.00859972
0.127114 0.0171263 0.00726691
0.138831 0.0164393 0.00798805
0.133009 0.0163659 0.00781485
0.132591 0.0155351 0.00869027
0.133465 0.0179658 0.0072787
0.126892 0.0162451 0.00788137
0.133348 0.0177544 0.00735941
0.132839 0.0160065 0.00802795
0.132974 0.016612 0.00773278
0.126797 0.0162169 0.00789816
0.133068 0.017107 0.00764046
0.12705 0.0168776 0.00742193
0.132898 0.0166764 0.00772338
0.127125 0.016821 0.00745614
0.133511 0.0177815 0.00734488
0.132876 0.0161553 0.00789973
0.133102 0.0169367 0.0076382
0.133085 0.0163055 0.00784038
0.126794 0.0158792 0.00820786
0.133319 0.0176648 0.00739305
0.133226 0.0172982 0.0075299
0.133125 0.0170304 0.00760985
0.133166 0.0175177 0.00761938
0.126833 0.0160256 0.00807723
0.133016 0.0168021 0.00768865
0.13303 0.0169008 0.00769824
0.132983 0.0170395 0.00759563
0.133245 0.0181628 0.00724584
0.126719 0.0159242 0.00815938
0.132941 0.0168571 0.00765103
0.133144 0.017351 0.00750805
0.13257 0.015498 0.00878093
0.127157 0.0172991 0.00717744
0.132549 0.0154609 0.00887125
0.127018 0.0171003 0.00728402
0.126856 0.0164369 0.00770181
0.127085 0.0166548 0.00755984
0.133283 0.0177672 0.00743455
0.12703 0.0167945 0.00747374
0.132801 0.0158691 0.0081681
0.127276 0.0174254 0.00714745
0.133216 0.0180308 0.00726188
0.127285 0.0170959 0.00728355
0.133134 0.0176959 0.0074378
0.127189 0.0170697 0.00730098
0.132953 0.0161016 0.00793436
0.127025 0.0164189 0.0077347
0.13307 0.017413 0.00748213
0.12751 0.0176748 0.00709155
0.127135 0.0172093 0.00721497
0.133429 0.0178363 0.00732714
0.127436 0.0177403 0.00707546
0.133392 0.0180314 0.0072567
0.127232 0.0172361 0.0071971
0.127645 0.0178975 0.00708857
0.126934 0.0167684 0.00749111
0.127306 0.0171787 0.00723189
0.127168 0.0169867 0.00735274
0.12706 0.017268 0.00718371
0.133049 0.0173196 0.0075105
0.12693 0.0163915 0.00775072
0.132858 0.0160791 0.00796182
0.127371 0.0174549 0.00714153
0.133456 0.0174215 0.00747829
0.127179 0.017394 0.00715424
0.127283 0.0177391 0.00715772
0.139256 0.0181604 0.00706174
0.133195 0.0179393 0.007296
0.133149 0.0165859 0.00775508
0.127082 0.0173628 0.00716012
0.13335 0.017947 0.00728882
0.127186 0.0177085 0.00716413
0.133198 0.0175282 0.00752521
0.132762 0.0157331 0.00830944
0.127531 0.01777 0.00706951
0.127006 0.0163457 0.00780002
0.132742 0.015671 0.00838528
0.12695 0.0164646 0.00768549
0.127467 0.0174844 0.00713561
0.126817 0.0162901 0.00783283
0.127306 0.0179684 0.00704531
0.127375 0.0176222 0.0071863
0.132972 0.0161779 0.00787249
0.127396 0.0177173 0.00716428
0.126997 0.0170174 0.00733576
0.12721 0.0171527 0.00724916
0.12718 0.0166811 0.00754237
0.127393 0.01755 0.00711952
0.126915 0.0166852 0.007543
0.133396 0.0172613 0.00753863
0.133242 0.0177945 0.00734769
0.139266 0.0178093 0.00713561
0.133092 0.0174447 0.00757457
0.127072 0.0169604 0.00737023
0.127093 0.0170433 0.00731858
0.133266 0.018239 0.00718426
0.133155 0.0177842 0.00739607
0.133114 0.017599 0.0074229
0.13282 0.0159378 0.008098
0.126911 0.0163186 0.00781635
0.132781 0.0158007 0.0082385
0.126875 0.0165191 0.00764794
0.126777 0.0161437 0.00796342
0.139244 0.0177135 0.00715446
0.127319 0.0176156 0.00710342
0.12664 0.0156316 0.00842041
0.1272 0.017489 0.0071318
0.12699 0.0166287 0.0075783
0.127571 0.017965 0.00708185
0.127125 0.017553 0.00711607
0.127045 0.0164936 0.00767131
0.133276 0.0178853 0.00731693
0.13327 0.017491 0.00745806
0.127272 0.0182272 0.00705318
0.127211 0.0179337 0.00702793
0.127423 0.0180989 0.00707738
0.127222 0.0175841 0.00710978
0.120916 0.0166531 0.00748361
0.12719 0.0178384 0.00705001
0.127244 0.0176792 0.00708777
0.120897 0.0165833 0.00755253
0.120936 0.0167377 0.00743411
0.127265 0.0177744 0.00706579
0.120975 0.0169195 0.0073652
0.132706 0.0155972 0.00856754
0.133316 0.0180925 0.0072365
0.127147 0.0176481 0.00709405
0.132727 0.0156344 0.00847719
0.133126 0.0164926 0.00778339
0.120956 0.0168239 0.00738764
0.12735 0.0173598 0.00716355
0.127298 0.0175205 0.00712544
0.1272 0.0167641 0.00749056
0.127168 0.0177432 0.00707203
0.127592 0.0180619 0.0070952
0.127403 0.0180019 0.00706098
0.127488 0.0175795 0.0071136
0.133363 0.0174564 0.00746811
0.127251 0.0181302 0.0070399
0.127498 0.0180324 0.00707507
0.12104 0.0172045 0.00729792
0.127328 0.018066 0.00704743
0.127103 0.0174579 0.00713808
0.13319 0.0178763 0.00737349
0.127243 0.0169299 0.00738713
0.127415 0.0176451 0.0070975
0.127362 0.0178061 0.00705983
0.127381 0.0179024 0.00704102
0.127369 0.0182606 0.00707409
0.127445 0.0181963 0.00708163
0.127341 0.0177107 0.00708141
0.127478 0.0179353 0.00706187
0.127552 0.0178679 0.00706867
0.127312 0.0184214 0.00707956
0.133346 0.0178521 0.00738036
0.120997 0.0170145 0.00734277
0.121062 0.0172996 0.00727549
0.127328 0.0172646 0.00718557
0.121083 0.0173946 0.00725307
0.121018 0.0171095 0.00732035
0.127286 0.0178704 0.00704708
0.12723 0.0180317 0.00702641
0.127456 0.0178377 0.00706464
0.133135 0.0173607 0.00760717
0.127348 0.0181629 0.00706071
0.126853 0.0160988 0.00801194
0.127519 0.0181297 0.00708856
0.127445 0.0173893 0.00715763
0.133277 0.0171412 0.00758601
0.127292 0.0183243 0.00706641
0.126872 0.0161719 0.00794665
0.133515 0.017884 0.00730724
0.133349 0.0170755 0.007608
0.127254 0.0173302 0.00716947
0.127222 0.016847 0.00743883
0.133253 0.0170479 0.00761443

VERTICES 289 578
1 0
1 1
1 2
1 3
1 4
1 5
1 6
1 7
1 8
1 9
1 10
1 11
1 12
1 13
1 14
1 15
1 16
1 17
1 18
1 19
1 20
1 21
1 22
1 23
1 24
1 25
1 26
1 27
1 28
1 29
1 30
1 31
1 32
1 33
1 34
1 35
1 36
1 37
1 38
1 39
1 40
1 41
1 42
1 43
1 44
1 45
1 46
1 47
1 48
1 49
1 50
1 51
1 52
1 53
1 54
1 55
1 56
1 57
1 58
1 59
1 60
1 61
1 62
1 63
1 64
1 65
1 66
1 67
1 68
1 69
1 70
1 71
1 72
1 73
1 74
1 75
1 76
1 77
1 78
1 79
1 80
1 81
1 82
1 83
1 84
1 85
1 86
1 87
1 88
1 89
1 90
1 91
1 92
1 93
1 94
1 95
1 96
1 97
1 98
1 99
1 100
1 101
1 102
1 103
1 104
1 105
1 106
1 107
1 108
1 109
1 110
1 111
1 112
1 113
1 114
1 115
1 116
1 117
1 118
1 119
1 120
1 121
1 122
1 123
1 124
1 125
1 126
1 127
1 128
1 129
1 130
1 131
1 132
1 133
1 134
1 135
1 136
1 137
1 138
1 139
1 140
1 141
1 142
1 143
1 144
1 145
1 146
1 147
1 148
1 149
1 150
1 151
1 152
1 153
1 154
1 155
1 156
1 157
1 158
1 159
1 160
1 161
1 162
1 163
1 164
1 165
1 166
1 167
1 168
1 169
1 170
1 171
1 172
1 173
1 174
1 175
1 176
1 177
1 178
1 179
1 180
1 181
1 182
1 183
1 184
1 185
1 186
1 187
1 188
1 189
1 190
1 191
1 192
1 193
1 194
1 195
1 196
1 197
1 198
1 199
1 200
1 201
1 202
1 203
1 204
1 205
1 206
1 207
1 208
1 209
1 210
1 211
1 212
1 213
1 214
1 215
1 216
1 217
1 218
1 219
1 220
1 221
1 222
1 223
1 224
1 225
1 226
1 227
1 228
1 229
1 230
1 231
1 232
1 233
1 234
1 235
1 236
1 237
1 238
1 239
1 240
1 241
1 242
1 243
1 244
1 245
1 246
1 247
1 248
1 249
1 250
1 251
1 252
1 253
1 254
1 255
1 256
1 257
1 258
1 259
1 260
1 261
1 262
1 263
1 264
1 265
1 266
1 267
1 268
1 269
1 270
1 271
1 272
1 273
1 274
1 275
1 276
1 277
1 278
1 279
1 280
1 281
1 282
1 283
1 284
1 285
1 286
1 287
1 288

POINT_DATA 289
SCALARS id int 1
LOOKUP_TABLE default
1
2
3
4
5
6
7
8
9
10
11
12
13
14
15
16
17
18
19
20
21
22
24
25
26
27
29
30
31
32
33
34
35
36
37
38
39
40
41
42
43
44
45
46
47
48
49
50
52
53
54
55
56
57
58
59
60
61
62
63
64
65
66
67
68
69
70
71
72
73
74
75
76
77
78
79
80
81
82
83
84
85
86
87
88
89
90
91
92
93
94
95
96
98
99
100
101
102
103
104
105
106
107
108
109
110
111
112
113
114
115
116
117
118
119
120
121
122
123
124
125
126
127
128
129
130
131
132
133
134
135
136
137
138
139
140
141
142
144
145
146
147
148
149
150
152
153
154
155
156
157
158
159
160
161
162
164
165
166
167
168
169
170
171
172
173
174
175
176
177
178
179
180
181
182
183
184
185
186
187
188
189
190
191
192
193
194
195
196
197
198
199
200
201
202
203
204
205
206
207
208
209
210
211
213
214
215
216
217
218
219
220
221
222
223
224
225
226
227
228
229
230
231
232
233
234
235
236
237
238
239
241
242
243
244
245
246
247
248
249
250
251
252
253
254
255
256
257
258
259
260
261
262
263
264
265
267
268
269
270
271
272
273
274
275
276
277
278
279
280
281
282
283
284
285
286
287
288
289
290
292
293
294
295
296
297
298
299
300

SCALARS type int 1
LOOKUP_TABLE default
1
1
1
1
1
1
1
1
1
1
1
1
1
1
1
1
1
1
1
1
1
1
1
1
1
1
1
1
1
1
1
1
1
1
1
1
1
1
1
1
1
1
1
1
1
1
1
1
1
1
1
1
1
1
1
1
1
1
1
1
1
1
1
1
1
1
1
1
1
1
1
1
1
1
1
1
1
1
1
1
1
1
1
1
1
1
1
1
1
1
1
1
1
1
1
1
1
1
1
1
1
1
1
1
1
1
1
1
1
1
1
1
1
1
1
1
1
1
1
1
1
1
1
1
1
1
1
1
1
1
1
1
1
1
1
1
1
1
1
1
1
1
1
1
1
1
1
1
1
1
1
1
1
1
1
1
1
1
1
1
1
1
1
1
1
1
1
1
1
1
1
1
1
1
1
1
1
1
1
1
1
1
1
1
1
1
1
1
1
1
1
1
1
1
1
1
1
1
1
1
1
1
1
1
1
1
1
1
1
1
1
1
1
1
1
1
1
1
1
1
1
1
1
1
1
1
1
1
1
1
1
1
1
1
1
1
1
1
1
1
1
1
1
1
1
1
1
1
1
1
1
1
1
1
1
1
1
1
1
1
1
1
1
1
1
1
1
1
1
1
1
1
1
1
1
1
1
1
1
1
1
1
1
1
1
1
1
1
1

SCALARS radius float 1
LOOKUP_TABLE default
5e-05
5e-05
5e-05
5e-05
5e-05
5e-05
5e-05
5e-05
5e-05
5e-05
5e-05
5e-05
5e-05
5e-05
5e-05
5e-05
5e-05
5e-05
5e-05
5e-05
5e-05
5e-05
5e-05
5e-05
5e-05
5e-05
5e-05
5e-05
5e-05
5e-05
5e-05
5e-05
5e-05
5e-05
5e-05
5e-05
5e-05
5e-05
5e-05
5e-05
5e-05
5e-05
5e-05
5e-05
5e-05
5e-05
5e-05
5e-05
5e-05
5e-05
5e-05
5e-05
5e-05
5e-05
5e-05
5e-05
5e-05
5e-05
5e-05
5e-05
5e-05
5e-05
5e-05
5e-05
5e-05
5e-05
5e-05
5e-05
5e-05
5e-05
5e-05
5e-05
5e-05
5e-05
5e-05
5e-05
5e-05
5e-05
5e-05
5e-05
5e-05
5e-05
5e-05
5e-05
5e-05
5e-05
5e-05
5e-05
5e-05
5e-05
5e-05
5e-05
5e-05
5e-05
5e-05
5e-05
5e-05
5e-05
5e-05
5e-05
5e-05
5e-05
5e-05
5e-05
5e-05
5e-05
5e-05
5e-05
5e-05
5e-05
5e-05
5e-05
5e-05
5e-05
5e-05
5e-05
5e-05
5e-05
5e-05
5e-05
5e-05
5e-05
5e-05
5e-05
5e-05
5e-05
5e-05
5e-05
5e-05
5e-05
5e-05
5e-05
5e-05
5e-05
5e-05
5e-05
5e-05
5e-05
5e-05
5e-05
5e-05
5e-05
5e-05
5e-05
5e-05
5e-05
5e-05
5e-05
5e-05
5e-05
5e-05
5e-05
5e-05
5e-05
5e-05
5e-05
5e-05
5e-05
5e-05
5e-05
5e-05
5e-05
5e-05
5e-05
5e-05
5e-05
5e-05
5e-05
5e-05
5e-05
5e-05
5e-05
5e-05
5e-05
5e-05
5e-05
5e-05
5e-05
5e-05
5e-05
5e-05
5e-05
5e-05
5e-05
5e-05
5e-05
5e-05
5e-05
5e-05
5e-05
5e-05
5e-05
5e-05
5e-05
5e-05
5e-05
5e-05
5e-05
5e-05
5e-05
5e-05
5e-05
5e-05
5e-05
5e-05
5e-05
5e-05
5e-05
5e-05
5e-05
5e-05
5e-05
5e-05
5e-05
5e-05
5e-05
5e-05
5e-05
5e-05
5e-05
5e-05
5e-05
5e-05
5e-05
5e-05
5e-05
5e-05
5e-05
5e-05
5e-05
5e-05
5e-05
5e-05
5e-05
5e-05
5e-05
5e-05
5e-05
5e-05
5e-05
5e-05
5e-05
5e-05
5e-05
5e-05
5e-05
5e-05
5e-05
5e-05
5e-05
5e-05
5e-05
5e-05
5e-05
5e-05
5e-05
5e-05
5e-05
5e-05
5e-05
5e-05
5e-05
5e-05
5e-05
5e-05
5e-05
5e-05
5e-05
5e-05
5e-05
5e-05
5e-05
5e-05
5e-05
5e-05
5e-05
5e-05
5e-05
5e-05
5e-05
5e-05
5e-05
5e-05
5e-05
5e-05
5e-05
5e-05
5e-05
5e-05

SCALARS mass float 1
LOOKUP_TABLE default
1.46608e-10
1.46608e-10
1.46608e-10
1.46608e-10
1.46608e-10
1.46608e-10
1.46608e-10
1.46608e-10
1.46608e-10
1.46608e-10
1.46608e-10
1.46608e-10
1.46608e-10
1.46608e-10
1.46608e-10
1.46608e-10
1.46608e-10
1.46608e-10
1.46608e-10
1.46608e-10
1.46608e-10
1.46608e-10
1.46608e-10
1.46608e-10
1.46608e-10
1.46608e-10
1.46608e-10
1.46608e-10
1.46608e-10
1.46608e-10
1.46608e-10
1.46608e-10
1.46608e-10
1.46608e-10
1.46608e-10
1.46608e-10
1.46608e-10
1.46608e-10
1.46608e-10
1.46608e-10
1.46608e-10
1.46608e-10
1.46608e-10
1.46608e-10
1.46608e-10
1.46608e-10
1.46608e-10
1.46608e-10
1.46608e-10
1.46608e-10
1.46608e-10
1.46608e-10
1.46608e-10
1.46608e-10
1.46608e-10
1.46608e-10
1.46608e-10
1.46608e-10
1.46608e-10
1.46608e-10
1.46608e-10
1.46608e-10
1.46608e-10
1.46608e-10
1.46608e-10
1.46608e-10
1.46608e-10
1.46608e-10
1.46608e-10
1.46608e-10
1.46608e-10
1.46608e-10
1.46608e-10
1.46608e-10
1.46608e-10
1.46608e-10
1.46608e-10
1.46608e-10
1.46608e-10
1.46608e-10
1.46608e-10
1.46608e-10
1.46608e-10
1.46608e-10
1.46608e-10
1.46608e-10
1.46608e-10
1.46608e-10
1.46608e-10
1.46608e-10
1.46608e-10
1.46608e-10
1.46608e-10
1.46608e-10
1.46608e-10
1.46608e-10
1.46608e-10
1.46608e-10
1.46608e-10
1.46608e-10
1.46608e-10
1.46608e-10
1.46608e-10
1.46608e-10
1.46608e-10
1.46608e-10
1.46608e-10
1.46608e-10
1.46608e-10
1.46608e-10
1.46608e-10
1.46608e-10
1.46608e-10
1.46608e-10
1.46608e-10
1.46608e-10
1.46608e-10
1.46608e-10
1.46608e-10
1.46608e-10
1.46608e-10
1.46608e-10
1.46608e-10
1.46608e-10
1.46608e-10
1.46608e-10
1.46608e-10
1.46608e-10
1.46608e-10
1.46608e-10
1.46608e-10
1.46608e-10
1.46608e-10
1.46608e-10
1.46608e-10
1.46608e-10
1.46608e-10
1.46608e-10
1.46608e-10
1.46608e-10
1.46608e-10
1.46608e-10
1.46608e-10
1.46608e-10
1.46608e-10
1.46608e-10
1.46608e-10
1.46608e-10
1.46608e-10
1.46608e-10
1.46608e-10
1.46608e-10
1.46608e-10
1.46608e-10
1.46608e-10
1.46608e-10
1.46608e-10
1.46608e-10
1.46608e-10
1.46608e-10
1.46608e-10
1.46608e-10
1.46608e-10
1.46608e-10
1.46608e-10
1.46608e-10
1.46608e-10
1.46608e-10
1.46608e-10
1.46608e-10
1.46608e-10
1.46608e-10
1.46608e-10
1.46608e-10
1.46608e-10
1.46608e-10
1.46608e-10
1.46608e-10
1.46608e-10
1.46608e-10
1.46608e-10
1.46608e-10
1.46608e-10
1.46608e-10
1.46608e-10
1.46608e-10
1.46608e-10
1.46608e-10
1.46608e-10
1.46608e-10
1.46608e-10
1.46608e-10
1.46608e-10
1.46608e-10
1.46608e-10
1.46608e-10
1.46608e-10
1.46608e-10
1.46608e-10
1.46608e-10
1.46608e-10
1.46608e-10
1.46608e-10
1.46608e-10
1.46608e-10
1.46608e-10
1.46608e-10
1.46608e-10
1.46608e-10
1.46608e-10
1.46608e-10
1.46608e-10
1.46608e-10
1.46608e-10
1.46608e-10
1.46608e-10
1.46608e-10
1.46608e-10
1.46608e-10
1.46608e-10
1.46608e-10
1.46608e-10
1.46608e-10
1.46608e-10
1.46608e-10
1.46608e-10
1.46608e-10
1.46608e-10
1.46608e-10
1.46608e-10
1.46608e-10
1.46608e-10
1.46608e-10
1.46608e-10
1.46608e-10
1.46608e-10
1.46608e-10
1.46608e-10
1.46608e-10
1.46608e-10
1.46608e-10
1.46608e-10
1.46608e-10
1.46608e-10
1.46608e-10
1.46608e-10
1.46608e-10
1.46608e-10
1.46608e-10
1.46608e-10
1.46608e-10
1.46608e-10
1.46608e-10
1.46608e-10
1.46608e-10
1.46608e-10
1.46608e-10
1.46608e-10
1.46608e-10
1.46608e-10
1.46608e-10
1.46608e-10
1.46608e-10
1.46608e-10
1.46608e-10
1.46608e-10
1.46608e-10
1.46608e-10
1.46608e-10
1.46608e-10
1.46608e-10
1.46608e-10
1.46608e-10
1.46608e-10
1.46608e-10
1.46608e-10
1.46608e-10
1.46608e-10
1.46608e-10
1.46608e-10
1.46608e-10
1.46608e-10
1.46608e-10
1.46608e-10
1.46608e-10
1.46608e-10
1.46608e-10
1.46608e-10
1.46608e-10

VECTORS velocity float
0.0043275 -7.76371e-05 0.000370437
0.00421803 0.000355754 -0.000265193
0.00443996 0.000384985 -0.00018934
0.00479063 -0.000129229 -7.89329e-05
0.00427941 0.000208805 -2.22396e-05
0.00439147 -0.000328892 0.000569294
0.00439288 -6.08695e-05 0.000193672
0.00440741 0.000414177 0.000167752
0.00469573 -0.000628127 0.00038377
0.00463628 7.5247e-06 0.000368591
0.0045081 -1.51835e-05 0.00036639
0.00471446 -0.000631306 0.000385381
0.00460865 2.50296e-05 0.000360578
0.00433627 -0.00023288 0.000633901
0.00446986 4.14673e-05 0.000344992
0.00430599 -0.000258729 0.000652314
0.00451901 0.000196907 0.000283887
0.00475733 -0.00063379 0.00039206
0.0045947 2.06863e-06 0.000376039
0.00456224 6.74795e-06 0.000361605
0.00437509 -4.87696e-05 -0.000235289
0.00439512 5.32861e-05 0.000365575
0.00472938 -0.000645425 0.000388864
0.00439832 5.06753e-05 0.00038068
0.00458544 -0.000684644 0.000288322
0.00476167 -0.000526959 0.000273886
0.00480378 0.000158043 0.000136826
0.00430851 -0.000325512 0.000558467
0.00464336 0.000199714 0.000237066
0.00458786 1.48369e-05 0.000358087
0.00440765 -0.000337932 0.000573768
0.00469113 1.05105e-05 -0.000114156
0.00435474 1.5957e-06 0.000345728
0.00467882 -0.0006252 0.000382282
0.0043712 -0.0001505 -2.16808e-06
0.00440235 4.34031e-05 0.000356813
0.00472028 -0.00063076 0.000367745
0.00439911 0.000117923 0.000470244
0.00426575 -0.000349995 -1.59138e-05
0.00436478 0.00015041 0.000324006
0.00456243 1.91123e-05 0.000360602
0.00432096 0.000328671 -0.000213485
0.00424916 -0.00062803 0.000272674
0.00475689 -0.000569387 0.000436142
0.00431685 -0.000123446 -0.000249886
0.00456404 1.05312e-05 0.000361639
0.00443766 -0.000804143 0.000169661
0.00459167 3.02835e-05 0.000360854
0.00480053 -0.000662443 0.000353372
0.00473084 -0.000639584 0.000382192
0.00433782 -8.15646e-05 0.000372161
0.00491069 -0.000593089 0.000211034
0.0044422 0.000283079 -0.000100849
0.00438896 -0.000847462 0.00012764
0.00436806 -0.000371231 0.000590114
0.0047164 -0.000642338 0.000387522
0.00452102 -2.08652e-05 0.0003681
0.00434457 -0.000147277 -0.000324378
0.00455975 -7.69895e-06 0.000366958
0.00474312 -0.000129802 -1.61053e-05
0.00475534 -0.00063149 0.000396807
0.00462295 0.000515168 0.000314013
0.00465415 -0.000619239 0.000327307
0.00456745 -1.0724e-06 0.000367846
0.004505 -0.000540536 0.000433954
0.00461123 -0.00162736 -0.0046398
0.00467087 -0.000623032 0.000381469
0.00480271 -0.000659289 0.000201594
0.00470495 -0.000626814 0.000384156
0.00439446 -0.000180694 -0.000216085
0.00478707 0.000471226 -0.000307521
0.00439203 -0.000199752 -0.000151852
0.00471184 -0.000621918 0.000383474
0.00460406 -0.000136116 -2.60348e-05
0.00420968 -0.000319379 0.000697668
0.0042955 -0.000290265 0.000677549
0.00466134 -0.000185308 2.88823e-05
0.00474382 -0.000643409 0.000224931
0.00474569 -0.000532542 0.000275266
0.00423434 -0.000310786 0.00069245
0.00471819 -0.000623757 0.00038412
0.00416932 -0.0002521 0.000631803
0.00567455 -0.000280376 -0.000129369
0.00468716 -0.000627374 0.000383267
0.00463638 2.10181e-05 0.000361719
0.00466218 3.32921e-05 0.000365331
0.00460769 3.47612e-05 0.000359994
0.0045958 3.60677e-05 0.00035554
0.00462997 -0.000135651 -5.59726e-05
0.00451024 0.000105556 -0.000172346
0.00460623 4.087e-05 0.000355531
0.00458503 3.14657e-05 0.000383471
0.00458455 -0.000163893 0.000223881
0.00468242 0.000285818 -0.000231403
0.00463846 -0.000616559 0.0002951
0.00463941 0.00030739 -0.000226982
0.00449883 -0.000626061 0.000337112
0.00460209 5.31208e-05 0.000348942
0.00439341 -2.91295e-05 0.000360726
0.00474535 -0.000630178 0.000333955
0.00478323 -0.00065154 0.000200962
0.00459936 3.7836e-05 0.000368449
0.00410667 -0.00023101 0.000606003
0.00474343 0.000112572 0.000296077
0.00457304 9.91998e-06 0.00036094
0.0045996 3.13811e-05 0.000359285
0.00459431 -4.18227e-05 0.000394208
0.00431657 -0.000481509 0.000246289
0.00459723 2.6126e-05 0.000359135
0.00485922 -0.00057091 0.000287926
0.00454205 0.000422519 -0.000215194
0.00469329 -0.000174788 -8.08341e-05
0.00475581 0.000486955 0.00034784
0.00482652 -0.000611233 0.000317729
0.00426794 -0.000326534 0.000556906
0.00435065 -1.35904e-05 0.000354709
0.00463771 0.000506848 0.00031586
0.00476958 0.000474755 -0.000302444
0.0042658 -0.000275352 0.000664066
0.00469224 0.000345813 -0.000285034
0.00424004 -0.000325768 -0.000123926
0.00455892 3.25174e-05 0.000350399
0.00426675 -0.000290176 0.000676636
0.00460993 4.19273e-05 0.00036022
0.00470081 -0.00059094 0.00030994
0.00459104 6.19088e-05 0.000347524
0.00467 -0.000616681 0.000326367
0.00497129 0.000430016 -0.00027628
0.00439669 -3.78651e-05 0.000246481
0.00458887 1.46211e-05 0.000365788
0.00431343 -6.99294e-05 0.000368598
0.00415669 -0.000258647 0.000637036
0.00459151 0.000406987 -0.000265613
0.00469183 -0.000114253 0.000150305
0.00459571 2.23817e-05 0.000365438
0.00477136 -0.000216139 0.000111678
0.00419326 -0.000254113 0.00063654
0.00458164 3.4922e-05 0.000360692
0.00458428 1.1661e-05 0.000362808
0.00459989 3.52957e-05 0.000361392
0.0047401 0.000459416 -0.000306587
0.00419131 -0.000263706 0.000643849
0.00460014 4.62464e-05 0.000355892
0.00461677 -6.48155e-05 0.000393254
0.00467798 0.000484054 0.000420153
0.0048842 -0.000627538 0.000291275
0.0046526 0.000437836 0.000503008
0.00482669 -0.000552073 0.000279752
0.00430138 -0.000319445 0.000704898
0.00460349 -0.000621078 0.000331507
0.00490217 -1.97875e-06 -3.84663e-05
0.00464938 -0.000600474 0.000314174
0.00443157 -0.000254402 -5.30076e-05
0.00473753 -0.000690319 0.000206661
0.00597583 0.0001835 -0.00029162
0.00483339 -0.00062313 0.000328846
0.00453519 -0.000246376 -1.93698e-05
0.00481885 -0.000632215 0.000335097
0.00412247 -0.000252319 2.56107e-05
0.00431346 -0.000306998 0.000692265
0.00459787 -2.88638e-05 0.000375235
0.00450598 -0.00049251 0.000158337
0.00483903 -0.000604094 0.000312517
0.00486555 0.000448674 -0.000345318
0.00444214 -0.000569988 0.000184113
0.00472515 0.000431637 -0.000291145
0.00486116 -0.000649147 0.000348039
0.00435175 -0.00069845 0.000720825
0.0045862 -0.00052168 0.000269427
0.00486749 -0.00064893 0.000348939
0.00478409 -0.00062773 0.000332476
0.00483904 -0.000587204 0.000276773
0.00460271 4.82024e-06 0.00036817
0.00430004 -0.000291228 0.000681777
0.0043128 -0.000222321 -8.45929e-07
0.00472178 -0.000641466 0.000197269
0.0047825 0.00022983 -0.000218894
0.00486401 -0.000635855 0.000234602
0.00454453 -0.000547821 0.000236268
0.00466239 -0.000621729 0.000380713
0.0044996 -0.000671935 0.00015517
0.00446867 -0.000109797 0.000392864
0.00481891 -0.000635323 0.000163129
0.00418344 0.000688283 -0.0003699
0.00478489 -0.000618273 0.000197291
0.00456836 -2.2919e-05 2.66043e-05
0.00429575 0.000135919 0.000235636
0.00443885 -0.000583426 0.000186187
0.00428631 -0.000300525 0.000689237
0.00416672 0.000417794 0.000431997
0.00429991 -0.000292506 0.000687419
0.00472979 -0.000602444 0.000191836
0.0042852 -0.000291529 0.00067942
0.00437818 -0.000487421 0.000623198
0.00470325 -0.000658672 0.000217715
0.00433241 -2.30709e-05 0.000353463
0.00448762 -0.000586733 0.00018687
0.00477625 -0.000532452 0.000272081
0.00483386 -0.000615447 0.000323566
0.00460703 -0.000640641 0.000344612
0.00469743 -0.000648648 0.000199659
0.0043298 -0.000474188 0.000242918
0.00479359 -0.000174017 -7.39024e-05
0.00456271 -0.000165151 -3.96779e-05
0.00469349 -0.000619842 0.000382019
0.0046071 1.48739e-05 0.000359799
0.00476769 -0.000606922 0.000314176
0.00480639 -0.000614938 0.000313304
0.004781 0.000460696 -0.000303065
0.00448208 -0.000277122 8.34669e-07
0.00459024 -0.000183728 -3.92454e-05
0.00431321 -0.000297229 -9.09187e-05
0.0042815 -0.000285097 0.000674148
0.00442785 -0.000132539 3.13274e-05
0.00439954 -0.00342854 -0.00456569
0.00426674 -0.000302855 0.00068827
0.00470026 -0.000624163 0.000383208
0.00470686 -0.00066775 0.000203669
0.004295 -0.000272997 0.000663281
0.00479745 -0.000629987 0.000197215
0.00455353 -0.000544234 0.000385467
0.0044498 -0.000595144 0.000750282
0.00479134 -0.000662091 0.000204669
0.00435877 -0.00038486 0.000610187
0.00484702 -0.0003388 -0.000105703
0.0046711 -0.000106066 -8.02548e-05
0.00435745 -0.000477788 0.000744641
0.00429864 -0.000473553 0.000214074
0.00433945 -0.000522943 0.000737581
0.0047709 -0.000626611 0.00019485
0.00446561 7.76069e-06 0.000120019
0.00440916 -0.000493771 0.000159951
0.00476914 -0.000620536 0.000193601
0.00444447 -0.00018599 -8.22276e-05
0.00445665 9.2925e-06 0.000118859
0.00451207 -0.000568685 0.000103295
0.00487763 -0.000233198 -0.000157799
0.0045283 0.000424135 0.000506623
0.00473767 0.000449971 -0.000297996
0.00477322 -0.000663557 0.000203412
0.00427383 0.000529776 0.000493264
0.00444886 -7.02701e-05 0.000377927
0.00470456 -0.000198939 -0.000157409
0.00479272 -0.000649794 0.000201907
0.00470562 -0.000671552 0.000204226
0.00464811 -0.000642937 0.000344303
0.0047793 -0.000624539 0.000196265
0.00454182 -0.000617073 0.000765358
0.00435585 -0.000493405 0.000742173
0.00458365 -0.000509934 0.000163993
0.00470978 1.28563e-05 -0.000118932
0.0043642 -0.000465877 0.000750051
0.0043365 -0.000527121 0.000735874
0.00484688 -0.000226032 -0.000157808
0.00436275 -0.00048378 0.000751666
0.00480133 -0.000650149 0.000194887
0.00409577 -0.00036387 0.000345081
0.00474105 -0.000657482 0.000351208
0.00452435 -0.000569794 0.000178275
0.00437965 -0.000598176 0.000199253
0.00437839 -0.000487268 0.000741515
0.00458933 -0.000540956 0.000781376
0.00459676 -0.000544424 0.000782243
0.00446039 -0.000619452 0.000194541
0.00432636 -0.000518211 0.000733466
0.00431505 -0.00056133 0.000722325
0.00453785 -0.000527966 0.000773256
0.00517096 0.000213159 -5.19756e-05
0.00486553 -0.000230654 -0.000157016
0.00483746 -0.000223972 -0.000157675
0.00483962 -0.00070223 0.000214496
0.00482791 -0.000221789 -0.000157759
0.00485632 -0.000228065 -0.000157454
0.00437995 -0.000496271 0.000295776
0.00435146 -0.000482914 0.000736706
0.00432267 -0.000514743 0.000523509
0.00457979 9.56905e-06 0.000392059
0.00435767 -0.000491613 0.000743847
0.00426654 -0.000264807 0.000653631
0.00457568 -0.000575972 0.000775407
0.00477296 -0.000565859 0.000182539
0.00467347 -7.95618e-05 0.000128111
0.00458001 -0.000536226 0.000780071
0.00427753 -0.000273339 0.000662851
0.00488134 0.000534844 -0.000327464
0.00460049 -0.000222042 -4.17328e-05
0.00480907 -0.000721046 0.000207497
0.00468216 -0.000646458 0.000344628
0.00458069 7.46878e-06 0.000363893

VECTORS force float
3.85819e-10 1.88628e-10 -8.40023e-11
2.38255e-10 -4.26468e-10 3.03367e-10
5.1124e-10 5.84909e-10 -1.92841e-11
5.36537e-11 -4.08033e-10 2.43548e-10
3.20695e-10 -7.31425e-10 4.19626e-10
1.1799e-10 -5.5428e-11 2.88834e-11
6.64906e-11 3.61701e-10 -1.48958e-10
-7.60683e-10 -3.77024e-10 -6.16072e-10
1.44487e-11 2.94677e-11 -5.07801e-12
-7.27849e-11 -2.04102e-10 9.64879e-11
-1.34522e-10 -9.66744e-11 6.29327e-12
-6.08972e-11 -9.32571e-11 1.53112e-11
-7.83454e-11 -1.27549e-11 -5.08631e-11
-4.00604e-10 2.97916e-10 -3.3763e-10
-6.79716e-11 -1.42257e-10 1.17091e-10
2.14632e-10 3.5244e-10 -3.11704e-10
-4.7429e-11 5.69569e-11 -1.88868e-10
1.32952e-10 1.3864e-10 3.89603e-11
-4.27055e-10 -5.61898e-11 1.20154e-10
1.49817e-10 -9.78087e-11 5.11408e-11
-1.33511e-09 -1.21661e-10 -2.9643e-10
-5.10425e-11 -1.79299e-10 4.12685e-10
2.22317e-10 1.64681e-10 -3.77811e-12
2.73301e-10 -2.038e-10 3.62734e-10
-2.7411e-10 1.43264e-10 -1.40385e-10
-1.2315e-10 -2.9971e-10 2.39985e-10
3.7701e-10 1.36878e-10 -1.97273e-10
-6.52077e-11 -7.55209e-11 1.29375e-11
-4.80004e-11 2.24352e-11 7.38472e-11
-9.94407e-12 3.90898e-11 -1.84874e-12
1.6304e-11 -4.29499e-11 4.7222e-11
7.98195e-10 -6.11197e-11 -2.29068e-10
5.54985e-10 -5.20784e-11 1.88239e-11
-9.87316e-13 -1.07996e-11 1.89502e-12
3.28452e-10 6.76805e-10 -1.28134e-10
1.71685e-10 -1.76589e-10 5.8836e-11
5.4475e-10 3.65373e-11 3.01631e-10
2.1427e-10 3.49766e-10 -3.59329e-10
7.75625e-10 -4.34577e-10 6.42102e-11
9.51818e-10 -6.9112e-10 1.70971e-10
1.08625e-10 6.3907e-11 -3.47771e-11
1.92623e-10 7.80917e-11 5.01955e-12
-2.37635e-11 1.70345e-11 1.18592e-10
-2.19572e-10 7.87486e-11 -1.689e-10
-9.52075e-10 6.50727e-10 7.2731e-11
2.7354e-10 -2.47351e-10 9.03915e-11
8.85629e-11 2.88132e-10 7.27016e-11
4.43618e-11 8.33103e-11 -8.78126e-11
-2.20343e-10 -5.72166e-12 6.84767e-12
-9.60265e-11 -3.56371e-10 6.29502e-11
-5.15232e-11 6.86457e-11 -8.01062e-13
3.40071e-10 -4.02491e-11 2.69944e-10
1.26025e-10 6.71242e-10 1.89724e-10
-1.33946e-10 -3.09725e-11 -8.13486e-11
-1.62321e-11 1.74395e-10 -5.32982e-11
-4.61241e-11 -8.30289e-12 -8.9124e-12
-1.76055e-10 -1.62769e-10 4.25917e-11
-7.3995e-10 -3.93652e-11 1.92902e-10
-8.00599e-11 3.564e-11 -2.99472e-11
5.72156e-10 -1.95935e-10 2.74017e-10
-3.50806e-10 -1.21726e-10 4.91751e-11
-3.72259e-10 -2.88424e-10 -6.97729e-10
-3.00666e-11 3.38419e-10 -2.45564e-10
1.21039e-11 -2.62602e-11 3.73018e-11
5.81459e-11 1.28421e-10 -1.512e-10
1.0204e-10 -2.39222e-10 -1.16292e-09
1.24464e-12 -1.09064e-12 7.73502e-13
1.14449e-10 -1.15579e-10 2.6583e-10
-5.18233e-13 -1.56818e-12 4.20716e-13
-2.72771e-10 3.85868e-10 -5.16327e-10
-2.70451e-11 -5.14347e-11 2.16895e-11
2.75507e-10 5.31618e-10 -7.2691e-10
-2.00139e-11 1.34442e-11 -3.23157e-12
3.3525e-11 -1.59513e-09 4.7303e-10
-3.47979e-11 1.09923e-10 -9.20416e-11
7.75656e-11 1.33634e-10 -6.54822e-11
2.07901e-10 -1.48498e-10 5.88695e-10
-6.30962e-11 7.95105e-11 1.88343e-10
3.92973e-11 -5.86832e-11 8.94519e-11
-1.03501e-10 1.71449e-11 -5.62069e-11
-8.5013e-12 -3.36116e-11 3.92689e-12
-1.75784e-11 -2.85547e-10 2.70859e-10
2.46669e-10 -3.75428e-10 -9.54972e-10
2.21333e-14 3.47813e-12 -1.12501e-12
-8.52604e-11 -9.46759e-11 3.68478e-11
-1.78333e-10 -9.47006e-11 -6.34432e-11
7.56017e-11 1.21912e-10 2.26457e-10
-1.01826e-12 5.36247e-11 -6.0798e-11
4.18271e-10 -7.04073e-10 8.7833e-11
-2.67155e-10 -9.58528e-10 1.99528e-10
3.89028e-11 7.20803e-11 7.9034e-12
4.34461e-11 -1.42061e-10 -2.32292e-10
3.75841e-10 -3.80455e-11 -3.32718e-10
-2.2664e-10 7.75266e-11 7.92627e-11
-1.0852e-10 1.1502e-11 -1.73452e-10
-4.0073e-10 5.47177e-10 -2.08072e-10
2.60932e-10 3.38966e-11 -1.41615e-11
-5.90751e-11 3.22302e-11 -2.77115e-11
-1.01901e-10 -1.80028e-10 7.5896e-11
-8.0839e-11 1.91577e-11 -1.09935e-11
-5.87538e-11 -1.03305e-10 1.0287e-10
-6.51878e-11 6.72197e-11 -1.41756e-10
-1.30159e-10 -1.17439e-10 8.39672e-11
2.74091e-10 -2.43407e-10 2.66076e-11
-5.52194e-11 5.89616e-11 3.30291e-11
-4.31981e-11 -4.63217e-11 -1.37824e-11
-4.90499e-11 -4.51944e-10 8.52753e-11
-1.38839e-10 1.45443e-10 -1.04359e-10
-3.22168e-11 -5.52623e-11 3.36438e-11
-1.7756e-11 2.29994e-10 7.31602e-11
-7.00029e-11 6.9952e-10 -3.13511e-10
2.77468e-10 -4.36766e-10 4.63909e-10
-1.24397e-10 2.33851e-10 -8.6616e-10
-7.7082e-11 1.41098e-10 -1.54567e-10
1.66993e-10 -3.91104e-12 5.2007e-11
3.87609e-11 -1.50075e-10 1.43515e-10
-2.73428e-10 1.99896e-10 -9.17922e-10
-3.87075e-11 1.29117e-10 -1.5929e-10
-1.98162e-11 -5.74261e-11 5.89856e-11
4.72338e-10 -1.41774e-09 4.81715e-10
6.14718e-11 -3.90575e-10 -2.29237e-10
-2.09117e-11 -5.07373e-11 -4.45674e-11
-2.49419e-11 -7.25766e-11 6.61424e-11
1.43922e-11 6.81069e-11 6.42116e-12
-2.19071e-11 7.17658e-11 -3.18429e-11
-5.27575e-11 5.59629e-12 1.06197e-10
-5.36668e-10 1.8354e-11 1.24138e-12
-1.92023e-10 1.23455e-10 -1.04373e-09
5.14977e-11 -5.75762e-11 -1.02056e-10
5.00316e-11 -2.32909e-11 2.60054e-11
1.81576e-10 9.5296e-11 -2.96826e-11
-2.22425e-10 -4.04558e-10 3.38646e-10
2.59691e-10 -1.63779e-10 7.18337e-11
5.72262e-10 -1.08662e-10 1.42522e-10
-3.30222e-11 8.16393e-11 -4.78692e-11
-9.14194e-10 7.14826e-11 6.93727e-12
5.64522e-11 -2.97602e-10 2.70355e-10
4.45358e-11 6.3367e-11 -1.23005e-10
-1.25039e-10 9.72427e-11 -1.57259e-10
-3.81282e-11 -8.96607e-12 -5.73984e-11
-1.51086e-11 -9.42956e-11 -1.18523e-11
-2.72432e-11 -1.86193e-10 1.56298e-10
1.1212e-11 7.55915e-11 -5.91673e-11
3.54595e-10 -1.58545e-10 2.35956e-10
-8.07165e-12 1.61536e-10 -1.25101e-09
2.53041e-10 1.38443e-10 3.19832e-11
3.79522e-10 3.59406e-10 -5.47679e-10
-3.18656e-11 1.96873e-10 9.28999e-12
5.89133e-11 -3.28219e-11 3.35424e-11
-1.24629e-10 3.04225e-10 -1.8441e-10
-5.11385e-10 5.37924e-10 -1.01959e-09
-3.05597e-10 1.10002e-10 -2.66572e-11
-4.03586e-10 -2.38166e-11 2.44217e-11
-2.06713e-10 -7.26213e-11 -1.35782e-11
-1.07592e-09 7.2777e-10 7.51659e-10
-6.23729e-12 1.02167e-10 -6.53032e-11
3.6171e-10 -9.06224e-10 -6.29262e-11
-1.54543e-10 8.83451e-11 -3.78846e-11
9.08389e-10 -2.73354e-10 1.30572e-10
-1.54024e-11 4.80153e-11 -3.10747e-11
1.4214e-10 -1.33977e-10 -3.26225e-11
-3.39364e-10 -9.70815e-11 -3.92527e-11
9.96042e-11 1.40936e-10 -9.97136e-11
4.39614e-10 2.81999e-11 6.21054e-10
-1.06542e-10 4.70211e-11 5.46458e-11
-7.46349e-11 9.29012e-11 1.0891e-11
2.06217e-10 7.7375e-12 3.32055e-11
1.02428e-10 4.68091e-11 1.1613e-11
-2.46793e-10 -1.98946e-10 1.99747e-10
1.03802e-10 -4.09125e-11 5.616e-11
-6.31327e-11 8.8211e-11 -8.60196e-11
3.73142e-11 -5.3823e-11 -3.8929e-10
-6.60824e-11 -1.6591e-10 -1.30786e-11
6.23826e-11 3.12573e-11 -2.45217e-11
2.99757e-10 -3.9478e-10 -2.74579e-10
6.80604e-11 -4.1918e-12 -5.41042e-11
6.65789e-10 -5.30143e-10 3.27985e-10
3.4003e-10 1.17646e-10 1.56439e-10
-1.00489e-10 2.0814e-10 2.18321e-10
2.22101e-13 6.50086e-12 -1.54618e-12
6.97813e-11 -3.80485e-10 -3.87385e-10
-8.35529e-11 7.40889e-11 -2.93883e-11
-1.20782e-11 3.32982e-11 5.92321e-10
-6.18814e-10 2.34784e-10 -4.70928e-11
-2.35209e-10 5.86326e-11 5.97021e-11
-1.29898e-09 1.13171e-10 -3.01408e-10
-5.04612e-10 1.88413e-10 -1.01792e-10
4.10051e-11 -6.32967e-11 6.8614e-11
5.54206e-11 -3.09454e-11 3.98899e-11
-6.80616e-10 6.68795e-11 -2.74532e-10
7.31616e-11 1.07644e-10 -5.64108e-11
-4.19118e-11 -1.47256e-10 4.23554e-11
-5.1224e-11 1.23339e-11 -3.34282e-11
-2.78406e-10 2.10879e-10 -1.85486e-10
1.61387e-10 -1.27505e-10 -6.27659e-12
4.91623e-10 -2.26117e-10 1.23245e-10
1.65629e-11 -1.37103e-10 1.88598e-10
-3.42696e-11 1.64472e-11 -2.58277e-11
7.37017e-12 1.1696e-10 -5.50928e-11
-2.64943e-10 1.08226e-10 -9.3986e-11
1.9474e-10 2.54451e-11 -9.88631e-11
-2.27876e-10 -1.42728e-10 9.53538e-11
8.59242e-10 -6.47156e-10 4.28455e-10
1.11047e-09 2.03591e-10 -1.68379e-09
6.44214e-12 1.03724e-12 3.8349e-13
-7.52277e-12 -4.55526e-12 2.31217e-12
1.19274e-10 7.82991e-11 -8.59914e-11
-1.11691e-11 1.08058e-10 -1.20174e-10
-1.6494e-12 -4.33516e-11 3.05922e-11
8.53957e-10 2.1596e-09 6.34973e-10
-3.87111e-11 -7.65477e-10 1.88475e-10
-5.03915e-10 1.11548e-11 1.37032e-10
1.0901e-11 -2.04677e-11 3.79209e-11
1.16689e-10 -1.71773e-10 -1.72158e-10
4.59227e-11 -4.95111e-10 -4.66253e-10
9.70631e-11 -1.57291e-11 5.07748e-11
6.95083e-12 4.90483e-12 -5.84443e-13
2.98733e-10 -1.22709e-11 3.16089e-11
1.93187e-10 3.53223e-10 -3.0664e-10
1.24436e-10 7.62325e-11 6.36959e-11
4.74975e-11 7.39312e-11 -1.92094e-10
-6.44096e-11 -4.68307e-11 -1.94616e-11
4.31443e-11 -1.42104e-10 8.49441e-11
4.65154e-11 7.99462e-11 -6.05188e-11
-7.78165e-10 2.6511e-09 -7.91726e-10
1.10284e-09 -7.02531e-10 2.23575e-10
4.15638e-11 5.6171e-11 2.1174e-11
-1.21012e-10 -3.55471e-10 -2.94243e-10
1.03656e-10 -4.15681e-11 -5.0308e-12
9.19296e-11 -3.29017e-11 3.1193e-11
-5.60263e-13 7.2813e-12 9.90139e-12
-9.14342e-10 -1.67425e-10 -8.66333e-11
1.84727e-10 -1.38281e-10 1.33892e-10
-2.15352e-12 2.20391e-12 -2.49306e-12
6.26288e-12 -1.67578e-11 -1.50283e-11
-1.83934e-10 8.07647e-11 6.87739e-11
3.49096e-12 1.92823e-11 -2.53741e-11
-3.17167e-10 1.30542e-11 -3.49586e-10
9.15906e-12 1.58581e-11 -2.29411e-11
4.99264e-11 -1.29685e-11 2.92401e-11
-9.66202e-10 -2.02812e-10 -5.23164e-10
-1.05866e-10 9.61739e-11 -3.2922e-11
-1.57705e-11 4.63468e-12 8.43263e-12
-2.09077e-10 -8.40026e-12 -2.10518e-11
9.40429e-11 4.90112e-11 5.3116e-11
1.40858e-11 5.30431e-11 -1.77544e-11
-2.82528e-11 -4.33783e-10 -2.28642e-12
-3.15633e-13 -4.96442e-11 -1.15599e-11
-2.84485e-10 -3.89862e-11 1.94331e-10
-3.69005e-10 1.52234e-10 -9.02229e-11
1.3013e-09 -5.14559e-10 1.92795e-10
8.75689e-12 2.24077e-10 -3.43615e-11
-2.58458e-11 -2.18941e-10 7.088e-11
-4.88132e-13 1.91785e-12 4.1754e-13
-5.26726e-11 1.54378e-10 5.6383e-11
-5.19543e-12 -1.66752e-10 3.87972e-11
3.41162e-10 -4.67023e-10 -1.05029e-09
-2.76312e-10 -1.96043e-11 1.42683e-11
-2.61929e-10 6.4232e-12 -3.86833e-11
8.13423e-11 9.1894e-11 5.6482e-10
-1.11391e-10 2.17386e-10 1.6742e-10
4.20562e-12 8.16569e-11 5.34011e-12
-2.19383e-11 4.58176e-11 1.20596e-12
-2.0142e-10 6.83056e-11 7.95608e-11
-1.22065e-10 3.76646e-11 -6.50709e-11
5.88817e-11 -3.28301e-11 3.71146e-11
-2.21788e-11 3.82719e-11 2.7496e-12
5.10115e-10 -5.42066e-10 -5.84752e-10
5.63149e-12 -6.88748e-12 -4.46993e-12
6.22741e-13 8.38145e-13 -3.25581e-12
1.63099e-10 -1.12236e-11 -6.05866e-11
5.40958e-13 2.47633e-14 1.17983e-12
7.81323e-13 -3.1966e-12 7.25684e-12
-3.46155e-10 1.80585e-10 -5.77403e-11
-6.74651e-11 -1.47381e-10 8.63644e-11
-4.58761e-11 1.01161e-10 1.71071e-10
6.76683e-11 -2.26106e-10 2.14152e-11
1.24047e-10 8.30962e-11 5.22262e-11
2.14173e-10 -2.34512e-10 2.3783e-10
7.26041e-11 1.05951e-10 2.57709e-11
-1.29991e-10 4.29892e-11 3.88959e-13
-1.93825e-11 -3.34651e-11 -4.00004e-10
3.42858e-12 5.63774e-11 5.2332e-12
1.22823e-10 -1.132e-10 1.0762e-10
-3.18344e-10 -4.15469e-10 -3.33761e-10
1.39755e-11 -7.9047e-12 -1.77093e-11
-1.17251e-10 -2.25081e-10 -4.38685e-12
1.24114e-10 -4.51196e-11 3.02032e-11
-2.27158e-10 -3.51358e-10 1.82226e-10
