# vtk DataFile Version 3.0
LIGGGHTS particles timestep 57200000
ASCII
DATASET POLYDATA
POINTS 283 float
0.274887 0.0162586 0.00800959
0.275215 0.0173926 0.00736767
0.275294 0.0179402 0.00718096
0.275273 0.0178441 0.00719852
0.274601 0.0153323 0.00900594
0.280966 0.0164714 0.00761581
0.274896 0.015947 0.00833586
0.27458 0.0152717 0.00908252
0.28121 0.0175451 0.00716247
0.275589 0.0180424 0.00717405
0.275064 0.0165511 0.00769034
0.281166 0.017362 0.00723033
0.275576 0.0175921 0.00726025
0.268665 0.0154859 0.00876105
0.275598 0.0176881 0.00724268
0.268877 0.0161529 0.00792834
0.281337 0.0180948 0.00695871
0.275208 0.0175561 0.00725121
0.275274 0.0170481 0.00735197
0.274622 0.0153966 0.0089324
0.275338 0.0181322 0.00714583
0.281123 0.0171789 0.00729818
0.275437 0.0173692 0.00729716
0.281062 0.0169035 0.00740036
0.268896 0.0159107 0.00819259
0.275165 0.0173639 0.00728637
0.280947 0.0164071 0.00768989
0.27542 0.0180769 0.00716005
0.275533 0.0173995 0.00729545
0.280985 0.0165383 0.00754383
0.275259 0.0175856 0.00733209
0.27562 0.0177845 0.00722506
0.281274 0.0178198 0.00706069
0.274913 0.0160144 0.00826397
0.275481 0.0175618 0.00726195
0.274706 0.0156588 0.00865149
0.275224 0.0172111 0.00731838
0.275351 0.016985 0.00736743
0.275398 0.0179808 0.00717761
0.275268 0.0174039 0.00728312
0.281004 0.0166285 0.00750508
0.281081 0.0169955 0.0073662
0.274664 0.0155331 0.00879242
0.275247 0.0169533 0.00736905
0.281043 0.0168115 0.00743453
0.275385 0.017531 0.00726373
0.269483 0.0188049 0.00687905
0.26947 0.0178205 0.00702074
0.275568 0.0179463 0.00719163
0.281024 0.0167196 0.00746869
0.26907 0.0165908 0.00764532
0.281145 0.0172705 0.00726426
0.275386 0.017697 0.00731498
0.274643 0.0154633 0.00886095
0.275143 0.0165061 0.00773203
0.275333 0.0176927 0.00723031
0.281102 0.0170873 0.00733211
0.274951 0.0161486 0.00812053
0.269645 0.01824 0.00696304
0.275641 0.0178805 0.0072075
0.269126 0.0164463 0.00772752
0.275216 0.0167757 0.00744411
0.281393 0.0179423 0.00701805
0.26911 0.0167597 0.00754598
0.281188 0.0174536 0.0071964
0.27471 0.0155897 0.00872372
0.275002 0.0166609 0.0075795
0.275135 0.0171346 0.00741342
0.281318 0.0180029 0.00699283
0.275381 0.0183252 0.00711054
0.268726 0.0156591 0.00852947
0.268916 0.0159708 0.0081152
0.275246 0.0173071 0.00730083
0.269685 0.0184353 0.00693512
0.269186 0.0166998 0.00757844
0.268744 0.0157018 0.0084408
0.281253 0.0177282 0.00709462
0.26905 0.0165063 0.00769502
0.275376 0.0178848 0.00719518
0.281231 0.0176367 0.00712855
0.275162 0.0165732 0.00766031
0.275363 0.017435 0.0072813
0.275083 0.0166182 0.00761862
0.274969 0.0162159 0.00804872
0.275312 0.0168062 0.00743733
0.27532 0.0172419 0.0073166
0.275136 0.0168256 0.00740908
0.275451 0.0178197 0.00721095
0.275372 0.0170811 0.00734987
0.275202 0.0171163 0.00734177
0.269247 0.0169529 0.00742949
0.275364 0.0176007 0.00733255
0.269565 0.0178519 0.00701848
0.275407 0.0176274 0.00724612
0.27549 0.0172074 0.00733061
0.269166 0.0166153 0.00762812
0.26949 0.0179174 0.00700668
0.275007 0.01635 0.00790535
0.268684 0.0155283 0.00867246
0.275503 0.0176578 0.00724438
0.275251 0.0177481 0.00721609
0.275359 0.0182288 0.00712817
0.27481 0.0159904 0.00829627
0.268934 0.016031 0.00803725
0.275515 0.0181079 0.00715822
0.26909 0.0166753 0.00759564
0.275186 0.01746 0.00726878
0.275237 0.0174894 0.00734968
0.275045 0.0164841 0.00776197
0.269665 0.018337 0.00694917
0.280928 0.0163433 0.00776459
0.275394 0.017177 0.00733233
0.275277 0.0166573 0.00756409
0.275043 0.016806 0.00744903
0.269599 0.0185825 0.00697848
0.275508 0.0179732 0.00726702
0.275546 0.0178503 0.0072092
0.275124 0.0164391 0.00780366
0.268783 0.0158338 0.00829658
0.275611 0.0181386 0.00715645
0.268878 0.0158505 0.00827032
0.274806 0.0159242 0.0083716
0.269548 0.018655 0.00689871
0.2751 0.0170761 0.00734017
0.275229 0.0168566 0.00738689
0.275342 0.0173387 0.0072989
0.275103 0.0166851 0.00754702
0.269424 0.0185132 0.00691633
0.274945 0.0164596 0.00779464
0.275155 0.0169297 0.00739917
0.275182 0.0166401 0.00758871
0.275537 0.0182042 0.00714061
0.269585 0.017949 0.00700461
0.274727 0.0157275 0.0085817
0.275416 0.0172731 0.00731474
0.275298 0.0171457 0.00733418
0.274983 0.0165938 0.00765123
0.268704 0.0155841 0.00859194
0.27528 0.0176831 0.00731431
0.275298 0.0167243 0.00749277
0.274988 0.0162829 0.00797705
0.269311 0.0172055 0.0072808
0.275663 0.0179767 0.0071899
0.268839 0.0160137 0.00806678
0.268951 0.0160919 0.00795823
0.269559 0.0184846 0.00700871
0.275355 0.0177888 0.00721275
0.269605 0.018046 0.00699075
0.275323 0.0168904 0.00738448
0.269383 0.017544 0.00708191
0.275123 0.0167526 0.00747609
0.269625 0.018143 0.0069769
0.275079 0.0169796 0.00735671
0.269444 0.0186104 0.00690478
0.275202 0.0167073 0.0075168
0.269031 0.0164218 0.00774472
0.275459 0.0174655 0.00727955
0.269384 0.0181753 0.00704587
0.269015 0.0167342 0.00756377
0.275408 0.0177931 0.00729735
0.269383 0.0183157 0.00694452
0.275311 0.0175966 0.00724789
0.269375 0.0174579 0.00713216
0.26926 0.0177342 0.00702753
0.268858 0.0160837 0.00799789
0.269528 0.0185574 0.00691265
0.269332 0.0172897 0.00723122
0.269206 0.0167842 0.00752879
0.275463 0.018269 0.00712489
0.269609 0.0184995 0.00692349
0.275335 0.0179966 0.00725329
0.26957 0.0183054 0.00695123
0.275429 0.0177235 0.00722853
0.269131 0.0168441 0.00749633
0.269215 0.017181 0.00729801
0.281296 0.0179113 0.00702676
0.274906 0.0163256 0.00793794
0.274868 0.0161915 0.00808128
0.268916 0.016311 0.00781278
0.275121 0.017172 0.00732162
0.269277 0.0174345 0.00714882
0.275482 0.0177275 0.00731318
0.274769 0.0158586 0.0084375
0.269342 0.0181217 0.00697223
0.269268 0.0170371 0.00737992
0.275027 0.0164169 0.00783376
0.269464 0.0187076 0.00689175
0.269405 0.0182719 0.00703151
0.268801 0.0158808 0.00821015
0.269257 0.01735 0.00719853
0.269449 0.0180267 0.00707113
0.275554 0.0174958 0.00727785
0.269322 0.0180248 0.00698608
0.268995 0.0166497 0.00761348
0.269354 0.0173737 0.00718172
0.269146 0.0165308 0.00767783
0.269697 0.0185472 0.00691883
0.26882 0.015941 0.00813257
0.275301 0.0177795 0.0072967
0.274925 0.0163927 0.00786622
0.281374 0.018279 0.00689023
0.27502 0.0167292 0.00750905
0.269011 0.0163373 0.00779443
0.274963 0.0165268 0.00772286
0.274932 0.0160814 0.0081923
0.27483 0.0160574 0.00822464
0.275685 0.0180728 0.00717232
0.268897 0.0162289 0.00786628
0.275525 0.0177542 0.00722677
0.268971 0.0161682 0.00789387
0.268763 0.015762 0.00836332
0.281356 0.0181869 0.00692447
0.26928 0.0176169 0.00706993
0.269452 0.0177231 0.00703448
0.269151 0.0169284 0.0074467
0.269389 0.0178776 0.00700977
0.269364 0.0180781 0.00705949
0.268956 0.0164801 0.00771321
0.269289 0.0171213 0.00733038
0.275179 0.0170259 0.00737759
0.27529 0.0175006 0.00726545
0.26914 0.0172398 0.00726615
0.269077 0.0169871 0.0074149
0.269225 0.017602 0.00715179
0.269172 0.0170127 0.00739711
0.2631 0.017088 0.00739256
0.269056 0.0169029 0.00746449
0.269194 0.0170968 0.00734756
0.263081 0.0170188 0.00746216
0.26312 0.0171571 0.00732295
0.269035 0.0168187 0.00751408
0.263159 0.0172954 0.00718387
0.275511 0.0173035 0.00731301
0.275143 0.017268 0.00730391
0.268975 0.0165648 0.0076634
0.274755 0.0157908 0.00850964
0.215741 0.019982 0.00563384
0.263139 0.0172263 0.00725335
0.269508 0.0184598 0.00692658
0.269428 0.0176271 0.00704865
0.268991 0.0162528 0.00784413
0.269429 0.0180716 0.00698206
0.269252 0.0176986 0.00712063
0.269368 0.0177808 0.00702368
0.269488 0.0183626 0.00694048
0.275472 0.0179157 0.00719338
0.269119 0.0171556 0.00731573
0.269302 0.0179278 0.00699993
0.263201 0.0174769 0.00712535
0.269277 0.0175213 0.00709927
0.268936 0.0163955 0.00776296
0.274849 0.0161252 0.0081537
0.26959 0.0184023 0.0069374
0.269403 0.0184138 0.00693052
0.269759 0.0183697 0.00694693
0.26951 0.0180143 0.00699283
0.269207 0.017505 0.00716847
0.269363 0.0182187 0.00695837
0.269409 0.0179746 0.00699592
0.269469 0.0181242 0.00705714
0.269469 0.0182656 0.00695435
0.269182 0.0174081 0.00716711
0.275199 0.0172815 0.00738547
0.404182 0.0211142 0.0056569
0.263243 0.0176716 0.00710808
0.269646 0.0186318 0.00690484
0.263222 0.0175742 0.00711672
0.263179 0.0173796 0.00713399
0.269236 0.0172652 0.00724842
0.269098 0.0170714 0.00736532
0.269449 0.0181686 0.0069682
0.275494 0.0180118 0.00717582
0.269346 0.0176841 0.00703735
0.26953 0.0181114 0.00697897
0.269282 0.0178309 0.00701377
0.269425 0.0183699 0.00701762
0.275441 0.018173 0.00714247
0.269162 0.0173264 0.00722128
0.269226 0.0168686 0.00747913
0.275062 0.0168921 0.00740201
0.275229 0.0176521 0.00723365
0.26955 0.0182084 0.0069651
0.275316 0.0180362 0.00716339

VERTICES 283 566
1 0
1 1
1 2
1 3
1 4
1 5
1 6
1 7
1 8
1 9
1 10
1 11
1 12
1 13
1 14
1 15
1 16
1 17
1 18
1 19
1 20
1 21
1 22
1 23
1 24
1 25
1 26
1 27
1 28
1 29
1 30
1 31
1 32
1 33
1 34
1 35
1 36
1 37
1 38
1 39
1 40
1 41
1 42
1 43
1 44
1 45
1 46
1 47
1 48
1 49
1 50
1 51
1 52
1 53
1 54
1 55
1 56
1 57
1 58
1 59
1 60
1 61
1 62
1 63
1 64
1 65
1 66
1 67
1 68
1 69
1 70
1 71
1 72
1 73
1 74
1 75
1 76
1 77
1 78
1 79
1 80
1 81
1 82
1 83
1 84
1 85
1 86
1 87
1 88
1 89
1 90
1 91
1 92
1 93
1 94
1 95
1 96
1 97
1 98
1 99
1 100
1 101
1 102
1 103
1 104
1 105
1 106
1 107
1 108
1 109
1 110
1 111
1 112
1 113
1 114
1 115
1 116
1 117
1 118
1 119
1 120
1 121
1 122
1 123
1 124
1 125
1 126
1 127
1 128
1 129
1 130
1 131
1 132
1 133
1 134
1 135
1 136
1 137
1 138
1 139
1 140
1 141
1 142
1 143
1 144
1 145
1 146
1 147
1 148
1 149
1 150
1 151
1 152
1 153
1 154
1 155
1 156
1 157
1 158
1 159
1 160
1 161
1 162
1 163
1 164
1 165
1 166
1 167
1 168
1 169
1 170
1 171
1 172
1 173
1 174
1 175
1 176
1 177
1 178
1 179
1 180
1 181
1 182
1 183
1 184
1 185
1 186
1 187
1 188
1 189
1 190
1 191
1 192
1 193
1 194
1 195
1 196
1 197
1 198
1 199
1 200
1 201
1 202
1 203
1 204
1 205
1 206
1 207
1 208
1 209
1 210
1 211
1 212
1 213
1 214
1 215
1 216
1 217
1 218
1 219
1 220
1 221
1 222
1 223
1 224
1 225
1 226
1 227
1 228
1 229
1 230
1 231
1 232
1 233
1 234
1 235
1 236
1 237
1 238
1 239
1 240
1 241
1 242
1 243
1 244
1 245
1 246
1 247
1 248
1 249
1 250
1 251
1 252
1 253
1 254
1 255
1 256
1 257
1 258
1 259
1 260
1 261
1 262
1 263
1 264
1 265
1 266
1 267
1 268
1 269
1 270
1 271
1 272
1 273
1 274
1 275
1 276
1 277
1 278
1 279
1 280
1 281
1 282

POINT_DATA 283
SCALARS id int 1
LOOKUP_TABLE default
1
2
3
4
5
6
7
8
9
10
11
12
13
14
15
16
18
19
20
21
22
24
25
26
27
29
30
31
32
33
34
35
36
37
38
40
41
42
43
44
45
46
47
48
49
50
52
55
56
57
58
59
60
61
62
63
64
65
66
67
68
69
70
71
72
73
74
75
76
77
78
79
80
81
82
83
84
85
86
87
88
89
90
91
92
93
94
95
96
98
99
100
101
102
103
104
105
106
107
108
109
110
111
112
113
114
115
116
117
118
119
120
121
122
123
124
125
126
127
128
129
130
131
132
133
134
135
136
137
138
139
140
141
142
144
145
146
147
148
149
150
152
153
154
155
156
157
158
159
160
161
162
164
165
166
167
168
169
170
171
172
173
174
175
176
177
178
179
180
181
182
183
184
185
186
187
188
189
190
191
192
193
194
195
196
197
198
199
200
201
202
203
204
205
206
207
208
209
210
211
213
214
215
217
218
219
220
221
222
223
224
225
226
227
228
229
230
231
232
233
234
235
236
237
238
239
241
242
243
244
245
246
247
248
249
250
251
252
253
254
255
256
257
258
259
260
261
262
263
264
265
267
268
269
270
271
272
273
274
275
276
277
278
279
280
281
282
283
284
285
286
287
288
289
290
292
293
294
295
296
297
298
300

SCALARS type int 1
LOOKUP_TABLE default
1
1
1
1
1
1
1
1
1
1
1
1
1
1
1
1
1
1
1
1
1
1
1
1
1
1
1
1
1
1
1
1
1
1
1
1
1
1
1
1
1
1
1
1
1
1
1
1
1
1
1
1
1
1
1
1
1
1
1
1
1
1
1
1
1
1
1
1
1
1
1
1
1
1
1
1
1
1
1
1
1
1
1
1
1
1
1
1
1
1
1
1
1
1
1
1
1
1
1
1
1
1
1
1
1
1
1
1
1
1
1
1
1
1
1
1
1
1
1
1
1
1
1
1
1
1
1
1
1
1
1
1
1
1
1
1
1
1
1
1
1
1
1
1
1
1
1
1
1
1
1
1
1
1
1
1
1
1
1
1
1
1
1
1
1
1
1
1
1
1
1
1
1
1
1
1
1
1
1
1
1
1
1
1
1
1
1
1
1
1
1
1
1
1
1
1
1
1
1
1
1
1
1
1
1
1
1
1
1
1
1
1
1
1
1
1
1
1
1
1
1
1
1
1
1
1
1
1
1
1
1
1
1
1
1
1
1
1
1
1
1
1
1
1
1
1
1
1
1
1
1
1
1
1
1
1
1
1
1
1
1
1
1
1
1
1
1
1
1
1
1
1
1
1
1
1
1
1
1
1
1
1
1

SCALARS radius float 1
LOOKUP_TABLE default
5e-05
5e-05
5e-05
5e-05
5e-05
5e-05
5e-05
5e-05
5e-05
5e-05
5e-05
5e-05
5e-05
5e-05
5e-05
5e-05
5e-05
5e-05
5e-05
5e-05
5e-05
5e-05
5e-05
5e-05
5e-05
5e-05
5e-05
5e-05
5e-05
5e-05
5e-05
5e-05
5e-05
5e-05
5e-05
5e-05
5e-05
5e-05
5e-05
5e-05
5e-05
5e-05
5e-05
5e-05
5e-05
5e-05
5e-05
5e-05
5e-05
5e-05
5e-05
5e-05
5e-05
5e-05
5e-05
5e-05
5e-05
5e-05
5e-05
5e-05
5e-05
5e-05
5e-05
5e-05
5e-05
5e-05
5e-05
5e-05
5e-05
5e-05
5e-05
5e-05
5e-05
5e-05
5e-05
5e-05
5e-05
5e-05
5e-05
5e-05
5e-05
5e-05
5e-05
5e-05
5e-05
5e-05
5e-05
5e-05
5e-05
5e-05
5e-05
5e-05
5e-05
5e-05
5e-05
5e-05
5e-05
5e-05
5e-05
5e-05
5e-05
5e-05
5e-05
5e-05
5e-05
5e-05
5e-05
5e-05
5e-05
5e-05
5e-05
5e-05
5e-05
5e-05
5e-05
5e-05
5e-05
5e-05
5e-05
5e-05
5e-05
5e-05
5e-05
5e-05
5e-05
5e-05
5e-05
5e-05
5e-05
5e-05
5e-05
5e-05
5e-05
5e-05
5e-05
5e-05
5e-05
5e-05
5e-05
5e-05
5e-05
5e-05
5e-05
5e-05
5e-05
5e-05
5e-05
5e-05
5e-05
5e-05
5e-05
5e-05
5e-05
5e-05
5e-05
5e-05
5e-05
5e-05
5e-05
5e-05
5e-05
5e-05
5e-05
5e-05
5e-05
5e-05
5e-05
5e-05
5e-05
5e-05
5e-05
5e-05
5e-05
5e-05
5e-05
5e-05
5e-05
5e-05
5e-05
5e-05
5e-05
5e-05
5e-05
5e-05
5e-05
5e-05
5e-05
5e-05
5e-05
5e-05
5e-05
5e-05
5e-05
5e-05
5e-05
5e-05
5e-05
5e-05
5e-05
5e-05
5e-05
5e-05
5e-05
5e-05
5e-05
5e-05
5e-05
5e-05
5e-05
5e-05
5e-05
5e-05
5e-05
5e-05
5e-05
5e-05
5e-05
5e-05
5e-05
5e-05
5e-05
5e-05
5e-05
5e-05
5e-05
5e-05
5e-05
5e-05
5e-05
5e-05
5e-05
5e-05
5e-05
5e-05
5e-05
5e-05
5e-05
5e-05
5e-05
5e-05
5e-05
5e-05
5e-05
5e-05
5e-05
5e-05
5e-05
5e-05
5e-05
5e-05
5e-05
5e-05
5e-05
5e-05
5e-05
5e-05
5e-05
5e-05
5e-05
5e-05
5e-05
5e-05
5e-05
5e-05
5e-05
5e-05
5e-05
5e-05
5e-05
5e-05
5e-05
5e-05
5e-05
5e-05
5e-05
5e-05
5e-05
5e-05
5e-05
5e-05
5e-05
5e-05
5e-05

SCALARS mass float 1
LOOKUP_TABLE default
1.46608e-10
1.46608e-10
1.46608e-10
1.46608e-10
1.46608e-10
1.46608e-10
1.46608e-10
1.46608e-10
1.46608e-10
1.46608e-10
1.46608e-10
1.46608e-10
1.46608e-10
1.46608e-10
1.46608e-10
1.46608e-10
1.46608e-10
1.46608e-10
1.46608e-10
1.46608e-10
1.46608e-10
1.46608e-10
1.46608e-10
1.46608e-10
1.46608e-10
1.46608e-10
1.46608e-10
1.46608e-10
1.46608e-10
1.46608e-10
1.46608e-10
1.46608e-10
1.46608e-10
1.46608e-10
1.46608e-10
1.46608e-10
1.46608e-10
1.46608e-10
1.46608e-10
1.46608e-10
1.46608e-10
1.46608e-10
1.46608e-10
1.46608e-10
1.46608e-10
1.46608e-10
1.46608e-10
1.46608e-10
1.46608e-10
1.46608e-10
1.46608e-10
1.46608e-10
1.46608e-10
1.46608e-10
1.46608e-10
1.46608e-10
1.46608e-10
1.46608e-10
1.46608e-10
1.46608e-10
1.46608e-10
1.46608e-10
1.46608e-10
1.46608e-10
1.46608e-10
1.46608e-10
1.46608e-10
1.46608e-10
1.46608e-10
1.46608e-10
1.46608e-10
1.46608e-10
1.46608e-10
1.46608e-10
1.46608e-10
1.46608e-10
1.46608e-10
1.46608e-10
1.46608e-10
1.46608e-10
1.46608e-10
1.46608e-10
1.46608e-10
1.46608e-10
1.46608e-10
1.46608e-10
1.46608e-10
1.46608e-10
1.46608e-10
1.46608e-10
1.46608e-10
1.46608e-10
1.46608e-10
1.46608e-10
1.46608e-10
1.46608e-10
1.46608e-10
1.46608e-10
1.46608e-10
1.46608e-10
1.46608e-10
1.46608e-10
1.46608e-10
1.46608e-10
1.46608e-10
1.46608e-10
1.46608e-10
1.46608e-10
1.46608e-10
1.46608e-10
1.46608e-10
1.46608e-10
1.46608e-10
1.46608e-10
1.46608e-10
1.46608e-10
1.46608e-10
1.46608e-10
1.46608e-10
1.46608e-10
1.46608e-10
1.46608e-10
1.46608e-10
1.46608e-10
1.46608e-10
1.46608e-10
1.46608e-10
1.46608e-10
1.46608e-10
1.46608e-10
1.46608e-10
1.46608e-10
1.46608e-10
1.46608e-10
1.46608e-10
1.46608e-10
1.46608e-10
1.46608e-10
1.46608e-10
1.46608e-10
1.46608e-10
1.46608e-10
1.46608e-10
1.46608e-10
1.46608e-10
1.46608e-10
1.46608e-10
1.46608e-10
1.46608e-10
1.46608e-10
1.46608e-10
1.46608e-10
1.46608e-10
1.46608e-10
1.46608e-10
1.46608e-10
1.46608e-10
1.46608e-10
1.46608e-10
1.46608e-10
1.46608e-10
1.46608e-10
1.46608e-10
1.46608e-10
1.46608e-10
1.46608e-10
1.46608e-10
1.46608e-10
1.46608e-10
1.46608e-10
1.46608e-10
1.46608e-10
1.46608e-10
1.46608e-10
1.46608e-10
1.46608e-10
1.46608e-10
1.46608e-10
1.46608e-10
1.46608e-10
1.46608e-10
1.46608e-10
1.46608e-10
1.46608e-10
1.46608e-10
1.46608e-10
1.46608e-10
1.46608e-10
1.46608e-10
1.46608e-10
1.46608e-10
1.46608e-10
1.46608e-10
1.46608e-10
1.46608e-10
1.46608e-10
1.46608e-10
1.46608e-10
1.46608e-10
1.46608e-10
1.46608e-10
1.46608e-10
1.46608e-10
1.46608e-10
1.46608e-10
1.46608e-10
1.46608e-10
1.46608e-10
1.46608e-10
1.46608e-10
1.46608e-10
1.46608e-10
1.46608e-10
1.46608e-10
1.46608e-10
1.46608e-10
1.46608e-10
1.46608e-10
1.46608e-10
1.46608e-10
1.46608e-10
1.46608e-10
1.46608e-10
1.46608e-10
1.46608e-10
1.46608e-10
1.46608e-10
1.46608e-10
1.46608e-10
1.46608e-10
1.46608e-10
1.46608e-10
1.46608e-10
1.46608e-10
1.46608e-10
1.46608e-10
1.46608e-10
1.46608e-10
1.46608e-10
1.46608e-10
1.46608e-10
1.46608e-10
1.46608e-10
1.46608e-10
1.46608e-10
1.46608e-10
1.46608e-10
1.46608e-10
1.46608e-10
1.46608e-10
1.46608e-10
1.46608e-10
1.46608e-10
1.46608e-10
1.46608e-10
1.46608e-10
1.46608e-10
1.46608e-10
1.46608e-10
1.46608e-10
1.46608e-10
1.46608e-10
1.46608e-10
1.46608e-10
1.46608e-10
1.46608e-10
1.46608e-10
1.46608e-10
1.46608e-10
1.46608e-10
1.46608e-10
1.46608e-10
1.46608e-10
1.46608e-10
1.46608e-10
1.46608e-10
1.46608e-10
1.46608e-10
1.46608e-10
1.46608e-10
1.46608e-10
1.46608e-10
1.46608e-10

VECTORS velocity float
0.00421697 -0.000330562 5.33074e-05
0.0047161 -0.000222534 0.000253641
0.00467083 -0.00032543 0.000264463
0.00467837 -0.000318544 0.00026483
0.00469969 -0.000561455 3.45835e-05
0.00448103 -4.12684e-05 2.12101e-05
0.00449581 -0.000329712 3.44326e-05
0.00472163 -0.000757967 -0.000103842
0.00486135 -7.30791e-05 0.000178546
0.00465389 -0.000348518 0.000268165
0.0043353 -0.000349598 7.04928e-05
0.00484717 -6.11057e-05 0.00017427
0.00457506 -0.000347991 0.000265012
0.0043468 -0.000507246 0.000154103
0.00456277 -0.000314473 0.000258296
0.00435009 0.000110613 0.000427143
0.0044553 6.58928e-06 0.000136239
0.00472074 -0.000276107 0.000257541
0.00456714 -0.000393694 0.000273561
0.00467355 -0.000432291 0.00012983
0.00465421 -0.000326349 0.000265488
0.00481347 -5.8014e-05 0.000171538
0.00456181 -0.000441446 0.00028427
0.00442697 1.53768e-05 0.000131902
0.00440932 0.000322606 0.000632831
0.00474714 -0.000271143 0.000255818
0.00441719 -4.72185e-05 5.72196e-07
0.00463893 -0.000319766 0.000262717
0.00454872 -0.000434919 0.000281375
0.00449474 -3.88531e-05 2.83238e-05
0.0046755 -0.000237827 0.00027208
0.00460001 -0.000394586 0.000274789
0.00489298 -7.44685e-05 0.000180877
0.00446693 -0.000329559 3.47395e-05
0.00459028 -0.000379794 0.000271253
0.00461604 -0.000399734 9.87752e-05
0.00473299 -0.000330413 0.000270792
0.00452566 -0.000463882 0.000285417
0.00467175 -0.00033584 0.000265285
0.0047259 -0.00029272 0.00025878
0.00449142 -3.97526e-05 2.80297e-05
0.00440872 1.97459e-05 0.000129731
0.00464684 -0.00041687 0.000112911
0.00447728 -0.000372337 0.000264267
0.00444564 1.16944e-05 0.000133644
0.00461736 -0.000375818 0.000271401
0.00436855 -0.000262546 4.80475e-05
0.00453496 -0.0001811 0.000152268
0.00459608 -0.000358963 0.000268515
0.00446373 8.04063e-06 0.00013525
0.0043686 -0.000210755 -1.31836e-05
0.00482981 -5.70069e-05 0.000172063
0.004643 -0.000309776 0.000287687
0.00465442 -0.000424365 0.000120826
0.00431163 -0.000374603 8.71497e-05
0.00466889 -0.000316926 0.00026517
0.00460322 -1.50804e-05 0.000148636
0.00434388 -0.00032442 3.83742e-05
0.00448561 -0.000198642 0.00015346
0.00462208 -0.000374801 0.00027272
0.00436764 -0.000219515 -8.14509e-06
0.00424893 -0.000416338 0.000147028
0.00491221 -7.53781e-05 0.00018135
0.0045443 -0.000241172 -1.22536e-06
0.00485684 -6.7035e-05 0.000176779
0.00464002 -0.000406999 0.000104026
0.00436991 -0.00034694 6.05837e-05
0.00464779 -0.000279384 0.00027892
0.00491591 -7.64422e-05 0.000181642
0.00467296 -0.000253693 0.000252263
0.00452091 0.000321446 0.000661385
0.00438628 0.000323052 0.000627071
0.00472802 -0.000300555 0.000262762
0.00456364 -0.0002105 0.000157886
0.00444122 -0.00024184 2.58011e-06
0.00450421 0.000319981 0.000655329
0.00488739 -6.53598e-05 0.000177291
0.00436639 -0.000210732 -1.32058e-05
0.00464623 -0.000324267 0.000264426
0.00486368 -6.98193e-05 0.000176441
0.00435064 -0.000376665 9.42981e-05
0.00462216 -0.00037471 0.000271901
0.00436953 -0.000355696 6.72066e-05
0.00428695 -0.000324855 4.24661e-05
0.00435607 -0.000464706 0.000234973
0.0046377 -0.000408304 0.000276933
0.00431586 -0.000303893 9.15883e-05
0.00460809 -0.000335707 0.000266703
0.00461242 -0.000475151 0.000292095
0.00463351 -0.000314948 0.000270484
0.00475292 -0.000300699 2.71189e-05
0.00469041 -0.000419315 0.000263644
0.00449321 -6.12571e-05 0.0001335
0.00463502 -0.000342862 0.000267613
0.00459271 -0.000437961 0.000283406
0.00437831 -0.000227023 -4.20433e-06
0.00441203 -0.000158995 0.000145739
0.00422079 -0.000329938 5.20992e-05
0.00443966 4.67002e-05 0.000448302
0.00456377 -0.000369661 0.000267083
0.00469125 -0.000306526 0.000262379
0.00466116 -0.000292482 0.000258568
0.00439207 -0.000359451 7.17577e-05
0.00435396 0.000322853 0.000619981
0.0046353 -0.00034976 0.000268377
0.00442798 -0.000220122 -9.64653e-06
0.00473582 -0.000269731 0.000256813
0.00472382 -0.000225551 0.00026331
0.00429815 -0.000346272 6.73893e-05
0.00451996 -0.00020421 0.000155465
0.00438628 -4.81487e-05 -3.11504e-06
0.0046056 -0.0004617 0.000287768
0.00441566 -0.000496952 0.000209312
0.00438834 -0.000332643 7.62202e-05
0.00457816 -0.000171255 0.000120148
0.0046041 -0.000329963 0.000267024
0.0046277 -0.000365529 0.000269979
0.00428605 -0.000368505 8.83647e-05
0.00443775 0.000305278 0.000645805
0.00470043 -0.000378191 0.000276717
0.00442798 0.000321052 0.000635629
0.00451117 -0.000349742 6.41209e-05
0.00438967 -0.000192329 0.000147799
0.00464361 -0.000271015 0.000260449
0.00437948 -0.000364038 0.000257713
0.00464755 -0.000381013 0.000273977
0.00438446 -0.000355804 6.92009e-05
0.00452226 -0.000273332 0.000166486
0.00427517 -0.000341727 6.15242e-05
0.00439956 -0.000578531 -0.000205143
0.00436894 -0.000377337 9.50456e-05
0.00469449 -0.000342585 0.000269554
0.00441319 -0.000181672 0.000149192
0.00457246 -0.000385399 8.47553e-05
0.00458392 -0.000450435 0.000285059
0.00466585 -0.000414455 0.000282201
0.00436089 -0.000348844 6.85234e-05
0.0044687 0.000319311 0.000651624
0.00465706 -0.000251974 0.000275203
0.00438468 -0.000490229 0.000208695
0.00423942 -0.000325176 4.72576e-05
0.00480787 -0.00029927 2.45077e-05
0.00460162 -0.000398108 0.000276101
0.00436189 0.000340973 0.000664666
0.00432012 0.000226044 0.000744927
0.00454666 -0.000159329 0.000147646
0.00465266 -0.00031941 0.00026335
0.00443589 -0.000189313 0.000151117
0.00442424 -0.000442285 0.000277796
0.00492545 -0.000295832 3.07734e-05
0.0044066 -0.000351763 7.11172e-05
0.00445084 -0.000192753 0.000151717
0.00436126 -0.000232692 0.000236097
0.00452234 -0.00029729 0.000171425
0.00434767 -0.000412064 0.000130001
0.00436869 -0.000211439 -1.25572e-05
0.00455372 -0.000434434 0.000280688
0.00447253 -0.000202142 0.000152102
0.00431579 -0.000201117 -1.67817e-05
0.00462416 -0.000320569 0.000282896
0.00449624 -0.000202392 0.000156668
0.00468916 -0.00031 0.000264119
0.00490974 -0.00030419 2.15088e-05
0.00489785 -0.000295725 0.000179034
0.00433725 0.000279491 0.000593014
0.00455306 -0.000238865 0.000162231
0.00484313 -0.000299985 2.37086e-05
0.00455303 -0.000264867 1.25142e-05
0.00468621 -0.000298082 0.000260673
0.00457305 -0.000200726 0.00015637
0.0046627 -0.000365198 0.000262264
0.00455699 -0.000191525 0.000154135
0.00460627 -0.000337267 0.000263966
0.00466676 -0.000263963 8.63644e-06
0.00480387 -0.000290429 1.93421e-05
0.00490199 -7.90463e-05 0.000182508
0.00423105 -0.000331321 5.40216e-05
0.00417092 -0.000322782 4.86638e-05
0.00437575 -0.000180723 4.437e-05
0.00476564 -0.000282294 0.000260078
0.0048891 -0.000317581 3.05969e-05
0.00460082 -0.000362812 0.000261417
0.00452848 -0.000363353 6.76764e-05
0.00444831 -0.000172965 0.000147217
0.0047687 -0.000301082 2.68964e-05
0.00424991 -0.000339236 5.98623e-05
0.00434108 -0.000274272 9.4599e-05
0.00452691 -0.000218822 0.000148038
0.00440731 0.000312077 0.000649499
0.00483274 -0.000311985 3.16056e-05
0.00443694 -0.000144985 0.000150746
0.00451955 -0.000351753 0.000264063
0.00447179 -0.000181092 0.00014985
0.0043576 -0.000205912 -1.56586e-05
0.00488384 -0.000303322 2.26563e-05
0.00437109 -0.000223232 -6.02188e-06
0.00440336 0.000105882 0.000106153
0.00437196 0.000326889 0.000654395
0.00466471 -0.000297463 0.000273128
0.00425785 -0.000336623 5.76967e-05
0.00453951 -1.01417e-05 0.00014495
0.00438401 -0.000350741 4.68851e-05
0.0043713 -0.000210004 -1.39622e-05
0.00431027 -0.000346445 6.48368e-05
0.00441805 -0.000327843 3.69196e-05
0.00413145 -0.000315463 4.39501e-05
0.00468756 -0.000414887 0.000282836
0.00434632 -6.2909e-05 0.00021333
0.00458768 -0.000339153 0.00026437
0.0042392 -0.000272873 2.64327e-05
0.00445176 0.000316102 0.000646922
0.00449701 -1.67391e-06 0.000140511
0.00491094 -0.000278716 0.000126684
0.00479009 -0.000224232 0.000162349
0.0047435 -0.000278978 1.48379e-05
0.00454409 -0.000182098 0.000152786
0.00441511 -0.000184877 0.000144901
0.00436684 -0.000213083 -1.18933e-05
0.00478646 -0.000300766 2.57403e-05
0.00454067 -0.000296793 0.000266209
0.00470476 -0.00027832 0.000254697
0.00483072 -0.000271142 7.98651e-06
0.00474819 -0.000271367 1.0149e-05
0.00483286 -0.00025096 8.12441e-05
0.00476316 -0.000282529 1.57419e-05
0.00489834 0.000395825 -0.000188824
0.0047278 -0.000271705 1.10459e-05
0.00478014 -0.000285219 1.79147e-05
0.00485339 0.000399834 -0.000197635
0.0049774 0.000387192 -0.000165629
0.00469671 -0.000268211 9.9317e-06
0.00502597 0.000366425 -0.000145499
0.00458376 -0.000440689 0.000283836
0.00475451 -0.000275654 0.000260556
0.00436399 -0.000204799 -1.66379e-05
0.00454108 -0.000370481 7.35639e-05
6.80424e-15 2.29884e-14 -7.0325e-14
0.00500246 0.000368455 -0.000146479
0.00453864 -0.000234009 0.000161394
0.0049212 -0.000263466 0.000101705
0.0043815 -0.00020862 -1.5264e-05
0.00442064 -0.000172139 0.000147868
0.00490815 -0.000322605 0.000166886
0.00486592 -0.000243015 0.00016887
0.004536 -0.000213778 0.000156976
0.00465267 -0.000353901 0.000269561
0.0047961 -0.000270285 8.36135e-06
0.00452222 -0.000198588 0.000154739
0.00504054 0.000378989 -0.000152748
0.0048932 -0.000301288 5.43958e-05
0.00437184 -0.000213333 -1.11472e-05
0.00406952 -0.000304722 3.90542e-05
0.00452874 -0.000190797 0.000154048
0.00451683 -0.000207827 0.000157779
0.00453537 -0.000242102 0.000161426
0.00443171 -0.000164716 0.000147462
0.00485792 -0.00026835 2.58738e-05
0.00446869 -0.000194179 0.000153538
0.00443483 -0.000166751 0.000147589
0.00450026 -0.000154914 0.000158037
0.00451347 -0.000205418 0.000153752
0.00487335 -0.000275275 7.43366e-06
0.0047458 -0.000289219 0.000268178
-1.29099e-14 6.08881e-14 -1.9022e-13
0.00500972 0.000384334 -0.000153571
0.00443654 -2.02794e-05 0.000125796
0.00502229 0.00037674 -0.000151307
0.00507935 0.000374838 -0.000150178
0.004835 -0.000296373 2.16162e-05
0.00477625 -0.00027135 9.44918e-06
0.00447145 -0.00019076 0.00015205
0.00461231 -0.00034131 0.000264892
0.00491548 -0.000257043 0.000174899
0.00448103 -0.000173943 0.00014962
0.00484346 -0.000274363 0.000174511
0.00452394 -0.000235013 0.000148533
0.00465836 -0.000313186 0.000262859
0.00485723 -0.000272741 9.19094e-06
0.00467842 -0.000288515 2.21468e-05
0.00432776 -0.000278509 0.000153792
0.00470804 -0.0002898 0.000258602
0.00454959 -0.000183677 0.000152749
0.00467081 -0.000328574 0.000266397

VECTORS force float
1.29855e-10 -1.85868e-11 1.67706e-11
-6.12755e-11 2.47047e-10 -3.44492e-11
1.06478e-11 1.6091e-10 -5.39909e-11
-2.10533e-11 -1.73367e-11 2.63114e-11
2.24213e-12 -8.80159e-11 -3.61949e-10
-1.84314e-11 3.02083e-11 -2.89751e-11
2.96351e-11 -6.98065e-11 8.1113e-11
8.96389e-11 2.25646e-10 -2.77612e-10
1.57988e-10 -1.90047e-11 2.48507e-11
1.56006e-10 -8.741e-11 3.28079e-11
1.49805e-10 -9.2469e-11 3.30114e-11
4.24206e-12 7.23797e-11 -2.68017e-11
8.01188e-11 -1.90711e-10 3.34629e-11
-1.1365e-10 3.29169e-11 -1.76346e-11
2.66963e-11 -4.95023e-10 9.77606e-11
-1.92703e-11 -1.26561e-11 2.98368e-12
-8.99178e-12 1.32492e-12 -1.16852e-11
-2.23056e-10 2.53529e-13 4.36611e-11
-1.44351e-10 1.33248e-10 -9.22732e-11
1.19909e-11 6.73803e-11 -5.49863e-11
1.11506e-10 1.32768e-10 -2.81766e-11
1.28675e-12 -5.10089e-11 1.423e-11
-2.49826e-10 3.36657e-10 -5.90471e-11
3.68399e-12 5.99309e-12 -2.04511e-12
-1.98619e-11 -2.58458e-12 -1.57518e-11
5.68554e-11 6.01979e-11 -1.86412e-11
1.27373e-11 2.49032e-11 -1.02697e-11
2.21636e-10 1.83729e-11 7.58594e-13
-4.30938e-10 1.06897e-10 -4.11182e-11
-6.17283e-11 -5.34715e-12 -1.01821e-11
-2.33302e-10 -7.22647e-11 -5.86074e-11
9.74967e-11 -2.40224e-10 6.14974e-11
7.79899e-11 8.18703e-11 -1.5218e-11
2.12326e-11 -8.249e-11 9.32433e-11
-3.73193e-10 -5.13967e-11 -9.28309e-12
-1.82987e-10 -1.62052e-11 3.30466e-11
-3.61116e-11 1.13905e-10 2.13441e-12
7.35434e-11 1.53388e-11 1.3349e-11
1.14387e-10 9.11922e-11 -3.40682e-11
-1.44168e-10 2.65646e-10 -7.26527e-11
1.71859e-12 2.06777e-11 9.5567e-12
-1.07554e-11 2.033e-11 -7.34784e-12
-9.08581e-11 2.06437e-11 7.97121e-11
7.90706e-11 -1.28489e-12 -3.1374e-11
-3.13134e-11 -1.85735e-13 -7.08881e-13
-3.0027e-10 6.91587e-11 -2.17198e-11
-2.80376e-11 -3.48485e-10 4.66333e-11
5.95854e-11 2.14022e-11 6.14759e-12
3.67669e-10 -2.62505e-10 4.49571e-11
2.07749e-11 1.81935e-11 -6.52028e-12
-1.43395e-11 -3.17088e-11 1.65408e-11
-1.59377e-10 4.07022e-12 -1.13947e-11
-5.71444e-10 1.16072e-10 8.13595e-11
2.71189e-11 3.6934e-11 3.477e-11
1.76704e-11 -6.91192e-11 1.10764e-10
-1.37897e-10 -4.31808e-11 -5.56003e-11
6.76227e-11 -2.11515e-11 6.88328e-12
-6.36079e-11 -1.26053e-10 1.27841e-10
3.15441e-12 -5.95222e-11 3.7551e-12
5.00016e-10 -3.75421e-10 1.06367e-10
-3.25398e-11 -3.5966e-11 2.28196e-11
-1.40843e-10 -1.19947e-10 2.24257e-10
9.3864e-12 -4.58412e-11 1.55029e-11
1.73485e-10 -3.76016e-11 1.89173e-11
-1.41762e-11 8.22838e-11 -2.26482e-11
-1.87483e-10 2.20442e-12 3.38679e-11
9.19919e-11 -3.7585e-11 -1.80351e-11
2.99801e-12 1.3839e-10 -1.59882e-10
2.03442e-11 1.75515e-11 4.27402e-12
1.91921e-11 2.53014e-10 -4.99507e-11
-1.37985e-10 -4.12188e-11 1.68013e-11
-1.18505e-11 3.70838e-12 -1.34399e-11
9.47369e-11 2.99208e-10 -2.61682e-11
1.96956e-10 -1.14138e-10 -5.11869e-13
1.33528e-11 -7.67224e-12 6.71859e-12
-6.12659e-11 -5.72148e-11 9.77316e-11
-1.56884e-10 2.2271e-11 -3.25981e-11
-3.37231e-11 -4.79785e-11 2.39871e-11
-9.02339e-11 1.09886e-10 -1.64116e-11
2.43641e-11 -1.52601e-10 5.03204e-11
2.2054e-10 -1.3367e-10 2.62338e-11
-3.33671e-10 2.72382e-10 -6.21778e-11
1.23436e-10 -2.33442e-11 1.34525e-10
-1.1589e-11 -1.33143e-10 1.6057e-10
1.12385e-10 -4.45734e-11 9.60474e-13
-1.32689e-10 1.61244e-10 5.35044e-12
-1.52758e-10 -1.57013e-10 7.13451e-11
-2.45711e-11 -5.04721e-11 1.00322e-10
1.01031e-10 7.05863e-11 -2.19068e-11
-1.47734e-10 6.83509e-11 -8.77556e-11
1.18404e-11 6.40722e-11 -3.31842e-11
-3.66978e-10 3.16381e-10 1.32584e-11
4.57049e-11 3.45201e-11 -1.28546e-13
-5.27489e-11 1.07323e-10 2.5762e-11
-2.79301e-10 3.06706e-10 -6.71353e-11
-1.93971e-11 -3.58077e-11 2.18416e-11
6.72868e-11 3.69127e-12 -2.60496e-12
2.70943e-10 -1.98914e-10 1.69666e-10
1.95416e-10 2.3733e-11 -7.34284e-11
-1.72593e-11 3.2073e-11 5.48719e-11
-5.21081e-11 -1.0978e-10 6.77603e-11
7.13138e-11 2.05346e-10 -3.65708e-11
-5.70163e-11 -7.3463e-11 8.0127e-11
2.23029e-11 1.35647e-11 3.34439e-12
-6.94198e-11 -1.81017e-10 3.54849e-11
1.20572e-10 -4.04435e-11 1.5617e-11
-1.19643e-10 3.32754e-11 6.27751e-12
-4.02714e-10 3.58652e-11 3.75096e-11
1.97513e-12 -7.47594e-11 6.76446e-11
2.22922e-11 -4.1907e-11 1.33236e-11
-7.79016e-12 -1.68565e-11 3.54259e-11
-1.65971e-10 1.48508e-10 -4.83602e-11
3.1447e-11 2.42898e-11 -6.67383e-11
6.28966e-11 -1.15867e-10 -1.80001e-10
3.87627e-11 -9.28598e-11 -9.15261e-11
3.13921e-10 -2.04083e-10 8.38485e-11
1.51227e-10 -2.36057e-10 5.02734e-11
-9.34287e-11 -6.06992e-11 1.02371e-10
4.78036e-11 -5.12561e-11 -9.23187e-11
-3.67884e-10 1.00391e-10 -3.24134e-11
2.40606e-11 -1.81029e-11 -3.42098e-11
1.72747e-11 -6.24143e-11 8.82934e-11
2.23901e-10 -1.76581e-10 1.10463e-10
-2.04761e-10 1.2428e-10 9.66836e-12
-9.41667e-11 -1.03416e-10 7.87916e-11
-1.44645e-10 3.36897e-10 -7.36332e-11
-8.01124e-11 -8.36123e-11 9.09065e-11
-5.43884e-11 -9.96935e-11 2.71916e-11
6.51746e-11 2.60875e-11 -3.9856e-11
2.04119e-10 3.9171e-10 2.18771e-10
9.49652e-11 -7.27128e-11 7.18091e-11
-2.57037e-10 1.07517e-10 -3.56318e-11
4.81012e-12 2.09418e-12 7.54203e-12
-3.16739e-11 -5.96602e-11 5.3333e-11
-2.62415e-10 2.61192e-10 -9.61955e-11
4.69776e-11 1.30034e-10 -3.25179e-11
-4.08672e-11 -2.59123e-12 -5.63964e-11
1.24366e-10 2.8983e-11 -1.41834e-11
1.60807e-11 -1.66119e-10 6.20372e-12
1.38746e-10 -3.76965e-11 -2.54115e-11
1.01355e-10 -1.38442e-10 1.40517e-10
-8.11425e-11 1.318e-10 -5.53512e-11
2.88902e-10 2.49864e-10 -2.1095e-11
1.37911e-10 -4.31782e-11 6.96617e-11
1.76081e-11 2.08136e-11 -9.11525e-12
6.58645e-11 -1.63057e-10 -9.34754e-11
-9.26209e-11 8.2385e-11 1.34264e-11
2.76784e-11 -2.99117e-11 2.06448e-11
1.67221e-10 -8.42864e-12 2.61366e-11
1.64775e-11 2.14416e-11 -1.59726e-11
9.39451e-11 -2.00598e-10 6.63887e-11
2.19472e-11 -6.83126e-11 2.06084e-11
4.9848e-11 7.74888e-11 2.56893e-11
5.34241e-11 -5.61613e-11 9.91393e-11
1.80206e-10 -2.34906e-10 3.03902e-10
-2.89096e-12 -5.92767e-11 3.07419e-11
-3.32615e-10 2.27146e-10 -7.89978e-11
1.7523e-11 -5.47413e-11 -9.89005e-11
4.5051e-10 -2.82207e-10 1.65891e-10
-4.7957e-10 9.11591e-11 9.30906e-11
1.34865e-11 1.11756e-10 1.20781e-12
-1.28668e-10 5.09386e-11 -5.39125e-11
-1.48859e-11 6.35802e-11 -2.67948e-11
-6.16413e-11 -1.06842e-10 1.10762e-11
9.59666e-12 8.21587e-12 5.28063e-11
-1.35597e-11 -3.07115e-10 1.34922e-10
7.09442e-12 9.66981e-11 -5.23261e-11
6.52873e-11 1.7501e-11 -1.54873e-11
-3.9712e-11 2.12148e-10 -3.97169e-11
1.67909e-10 -1.84604e-10 9.26944e-11
-1.66719e-10 -3.34439e-10 -2.06429e-10
1.56125e-10 1.77213e-11 1.80956e-11
-7.9982e-11 1.18014e-10 1.21247e-10
6.92782e-11 -6.06756e-12 6.76984e-12
-7.6778e-11 4.82088e-11 -4.89249e-11
-6.66732e-11 1.60068e-11 -1.33256e-11
1.2389e-11 -3.93144e-11 2.69154e-11
4.08545e-11 -4.09462e-11 4.16094e-11
-1.50815e-11 -3.61225e-11 1.77366e-11
-6.15152e-11 7.23417e-11 -2.91031e-11
-1.24664e-11 8.71011e-11 -6.28795e-11
-1.99707e-10 1.37828e-10 4.02831e-11
4.32177e-12 -6.39049e-11 7.57073e-11
-3.60636e-11 -2.44948e-11 1.42746e-12
9.08383e-11 7.25196e-11 -5.04407e-11
2.15457e-11 -9.95924e-11 1.33824e-10
1.1222e-10 4.55646e-11 5.13355e-10
5.38269e-12 7.08475e-11 -7.02188e-13
3.09678e-11 -4.57022e-12 -5.00859e-11
1.13994e-10 1.05317e-10 -7.44829e-11
-7.47642e-11 1.19609e-10 -2.45577e-11
-1.51887e-10 4.26259e-10 -9.40753e-11
-1.34097e-10 -1.24284e-11 -4.84286e-12
-2.0843e-11 -9.74578e-11 5.67502e-11
3.18474e-11 7.11106e-11 -5.05811e-11
-4.4157e-11 -4.45778e-11 2.91263e-11
-4.44842e-11 1.5513e-10 -1.80102e-11
1.36802e-10 -4.05e-11 3.91582e-11
1.48345e-10 -2.89584e-10 1.0375e-10
-1.39119e-11 1.71786e-11 -2.16031e-11
-8.61121e-12 -4.11837e-12 3.90256e-12
5.80967e-11 -2.89582e-11 -5.95408e-11
-1.10396e-11 -5.85312e-11 2.64689e-11
-9.5302e-11 9.41709e-12 -8.59067e-11
-1.26066e-10 -8.91187e-11 9.61807e-11
3.75531e-11 -4.57669e-11 5.20957e-11
-2.37376e-10 3.88233e-10 -9.02147e-11
-3.62855e-11 -1.74033e-11 9.57529e-12
2.04822e-10 -5.17162e-11 6.63914e-11
-2.62401e-11 2.70321e-11 -2.65675e-11
-2.95591e-11 3.24321e-11 3.10681e-11
1.24024e-11 1.32201e-11 1.67063e-12
-4.38813e-11 -4.07388e-12 -6.96026e-11
-1.19899e-10 6.65541e-11 1.18481e-11
1.22234e-11 1.61994e-11 -2.23504e-11
-2.04506e-12 -6.13929e-11 1.03792e-11
-5.78643e-11 1.13411e-10 3.62147e-11
-2.82734e-11 -7.57851e-11 5.35437e-11
1.84809e-11 1.0336e-10 -5.97169e-11
-4.21753e-11 2.55945e-11 -6.666e-11
-3.34894e-10 1.49202e-10 4.50417e-11
4.10379e-11 2.62588e-11 -3.69743e-11
3.62557e-11 4.77539e-11 -2.48368e-11
1.41318e-11 2.11292e-11 -5.70997e-11
6.20822e-11 1.50901e-11 -1.48297e-12
-2.97449e-10 -1.38112e-10 -1.29689e-11
-8.86631e-12 3.48369e-13 4.38884e-13
3.49434e-13 4.15819e-11 -1.09578e-11
1.38286e-10 -3.319e-11 1.70049e-11
3.06605e-12 1.42155e-10 -2.66027e-11
2.6922e-11 -5.20667e-11 2.9347e-11
-2.56388e-10 1.25345e-10 -3.57469e-11
-4.3685e-10 2.1788e-10 -5.06656e-11
-5.76512e-12 8.26937e-11 1.65482e-11
-2.1347e-11 -7.60914e-11 4.97285e-11
3.44663e-11 -8.40725e-11 6.6121e-11
3.43021e-23 -2.77106e-23 -6.20385e-24
1.13503e-10 3.14038e-10 2.47922e-11
-2.18115e-10 -9.63789e-11 6.69414e-11
-1.0881e-10 9.01836e-11 1.04676e-10
1.43734e-11 -4.76576e-11 3.20614e-11
2.01013e-11 -4.57881e-11 5.5963e-12
2.69642e-11 -6.91918e-11 3.6406e-11
-7.96076e-11 -4.78324e-11 -2.98723e-12
1.7289e-10 2.56681e-11 -1.7939e-11
2.91697e-10 1.863e-10 -4.48083e-11
-1.83852e-13 3.43463e-11 -2.60229e-11
-2.55408e-10 -7.63252e-12 -8.19782e-12
6.86494e-11 7.78905e-11 -2.05086e-11
3.71282e-11 3.85124e-11 -5.64666e-11
1.83943e-12 -3.54754e-11 2.04175e-11
8.32755e-12 -3.96042e-11 4.43036e-11
5.06273e-11 -6.11604e-11 1.75912e-11
1.21064e-10 2.07833e-10 -7.16601e-11
1.2999e-10 -1.59841e-10 3.41533e-11
-5.25433e-11 2.07564e-11 -1.23016e-11
-6.32366e-12 3.81909e-11 -5.85553e-11
7.43504e-12 5.68694e-11 -2.16724e-11
1.78493e-12 -4.83567e-11 6.6668e-12
8.79388e-11 1.38324e-10 -2.78164e-11
-3.00474e-11 6.93638e-11 -3.35804e-11
3.28777e-12 2.34832e-11 -2.70911e-11
2.70809e-10 2.57816e-10 -9.7491e-11
-7.35764e-22 -1.68331e-22 -4.1359e-24
1.63332e-11 -7.97845e-11 -3.52195e-12
3.07391e-10 -3.73293e-10 7.86704e-11
-1.11358e-11 1.5454e-12 4.74784e-11
-3.44111e-10 6.69228e-11 6.51971e-11
-3.9338e-12 3.86295e-11 -3.13421e-11
3.286e-11 4.59854e-11 -2.58988e-11
-4.68029e-11 -9.23612e-13 -1.13903e-13
3.77208e-10 -1.06585e-10 3.13622e-11
-9.65506e-11 -2.05105e-11 -3.80174e-11
-1.82159e-11 4.95301e-11 -3.30185e-11
-1.20154e-10 -4.99026e-11 2.54129e-12
-2.18575e-10 9.09626e-12 -2.09006e-10
-5.72211e-13 5.19913e-11 -1.7102e-11
5.3644e-11 2.9914e-11 -2.41013e-11
2.85156e-11 5.11601e-11 -3.09953e-11
3.63768e-11 -3.60912e-11 -1.44568e-10
-5.89131e-11 -4.5413e-11 9.74894e-12
8.94445e-11 6.86655e-11 -8.32832e-13
6.58929e-11 1.74475e-10 -7.22434e-11
