# vtk DataFile Version 3.0
LIGGGHTS particles timestep 5400000
ASCII
DATASET POLYDATA
POINTS 289 float
0.0376233 0.0161678 0.00790479
0.0380989 0.0173072 0.00723485
0.0379852 0.0171917 0.00729579
0.0380427 0.0174544 0.0071627
0.0374101 0.0160602 0.00803238
0.0434795 0.0162786 0.00776337
0.0375982 0.0167569 0.00752409
0.0373906 0.0159996 0.00810954
0.0438004 0.017671 0.0073075
0.0375326 0.0164986 0.00766159
0.0378004 0.0170111 0.00739126
0.0437575 0.0174838 0.00736324
0.0375761 0.0166699 0.00756821
0.0312486 0.0155359 0.00864453
0.0377747 0.017112 0.00734144
0.031229 0.0154638 0.00871103
0.0375102 0.0164093 0.00770052
0.0436928 0.0172054 0.00745419
0.0375082 0.0160849 0.00800572
0.0379349 0.0169533 0.00741651
0.0374296 0.0161207 0.00795521
0.0377016 0.0169987 0.00740019
0.0437144 0.017298 0.0074233
0.0376961 0.0167882 0.00750572
0.0435849 0.0167422 0.00760865
0.0316759 0.0170562 0.00734103
0.037528 0.0161454 0.00792861
0.0434609 0.0162197 0.00784196
0.0375536 0.0165831 0.00761231
0.0377009 0.0171731 0.0073129
0.0434996 0.0163715 0.00773232
0.0376545 0.0166136 0.00759427
0.0377521 0.0166411 0.00757781
0.0438219 0.0177646 0.00727963
0.0376319 0.0165267 0.00763838
0.0376766 0.0167005 0.00755013
0.043628 0.0169275 0.00754686
0.0376185 0.0168503 0.00749465
0.0375478 0.0162059 0.00785152
0.0376399 0.0169291 0.00743692
0.0378889 0.017164 0.0073123
0.0381372 0.0174825 0.00714605
0.0435201 0.0164644 0.00770132
0.0436065 0.0168349 0.00757776
0.0374692 0.0162419 0.00780111
0.0378392 0.0169283 0.00743166
0.0435633 0.0166496 0.00763954
0.0378756 0.0175512 0.00712029
0.0319578 0.0170308 0.00734666
0.0436496 0.0170201 0.00751597
0.0376638 0.0162931 0.00775443
0.0312681 0.015605 0.0085749
0.0377815 0.0168339 0.00748051
0.0435417 0.016557 0.00767043
0.0316864 0.0167243 0.00746947
0.0437359 0.0173906 0.00739241
0.0378576 0.0167751 0.00750784
0.0374492 0.0161812 0.00787808
0.0378672 0.017077 0.00735647
0.0380235 0.0173668 0.00720709
0.0436712 0.0171128 0.00748508
0.0373712 0.0159391 0.0081867
0.0318388 0.0169479 0.00737779
0.0379634 0.0171036 0.0073405
0.0317921 0.0167676 0.00745518
0.0376791 0.0170861 0.00735707
0.0438434 0.0178583 0.00725175
0.0313263 0.015813 0.00837468
0.0437789 0.0175774 0.00733537
0.0374894 0.0163223 0.00774526
0.0379979 0.0168832 0.00744987
0.0376102 0.0164393 0.00768272
0.0437468 0.0170518 0.0075091
0.0379916 0.0185419 0.00695676
0.031386 0.0160208 0.00817395
0.0315273 0.0164749 0.00767025
0.0380246 0.017785 0.00702132
0.0316434 0.0165587 0.0075705
0.0316973 0.0171462 0.00730309
0.0314459 0.0162145 0.00796275
0.0437252 0.0169592 0.00754
0.0314317 0.0160839 0.00811123
0.0378189 0.0176992 0.00704992
0.0438574 0.01752 0.00735868
0.037933 0.0178216 0.00700498
0.0379863 0.0176021 0.00709198
0.0379672 0.017514 0.00713528
0.0378175 0.0172868 0.00725276
0.0381002 0.0177241 0.00704533
0.0380402 0.0182989 0.00693551
0.0379138 0.0177285 0.00703612
0.0379721 0.0184442 0.00694833
0.0380438 0.0178781 0.00699017
0.0379929 0.0181053 0.00694046
0.0317324 0.0169045 0.00739211
0.0381754 0.0176627 0.00706951
0.0318357 0.0165855 0.00753743
0.0377427 0.0173475 0.00722444
0.0377404 0.0169159 0.00744059
0.031881 0.0171314 0.0072988
0.0313657 0.0159504 0.00824197
0.0377802 0.0175228 0.00713567
0.0313063 0.0157423 0.00844248
0.037567 0.0162665 0.00777431
0.0379097 0.0172512 0.00726806
0.0378385 0.0177897 0.00701202
0.0379524 0.0183465 0.00693992
0.0316123 0.0167843 0.00743962
0.0378577 0.0178827 0.00698088
0.0317555 0.0174104 0.00717718
0.0380043 0.0172793 0.00725144
0.037902 0.016858 0.00746511
0.0373517 0.0158785 0.00826387
0.0318303 0.0173484 0.00720085
0.0434408 0.0161613 0.00792063
0.0377718 0.0167289 0.00753334
0.0373322 0.015818 0.00834103
0.0381452 0.017909 0.00698375
0.0315822 0.0163636 0.00779023
0.0380987 0.0181621 0.00692196
0.037588 0.0163523 0.00772687
0.0377966 0.0171994 0.0072971
0.031487 0.0163446 0.00781652
0.0378947 0.0176397 0.007078
0.0317862 0.0171007 0.00730802
0.0377224 0.0172602 0.00726871
0.0318584 0.0170387 0.00733867
0.0381181 0.0173949 0.00719044
0.03773 0.0165541 0.00762195
0.0379289 0.0173388 0.00722371
0.0376426 0.0162283 0.00782759
0.0313099 0.015671 0.00851254
0.0380829 0.0180635 0.00692815
0.0380054 0.0176919 0.00705246
0.0379481 0.0174263 0.00717937
0.037971 0.0180078 0.00694265
0.0314256 0.0161498 0.00803622
0.0378373 0.0173755 0.00720784
0.0378563 0.0174631 0.00716356
0.0377994 0.0176103 0.00709133
0.0382205 0.0178477 0.00700787
0.0313677 0.015879 0.00831195
0.0377616 0.0174351 0.00718007
0.0379522 0.0179146 0.00697383
0.0373128 0.0157574 0.0084182
0.0318705 0.0175318 0.00713208
0.0372933 0.0156968 0.00849536
0.0317355 0.0173181 0.00720989
0.0315689 0.0166132 0.00753195
0.0318167 0.0168567 0.007417
0.0379341 0.0182567 0.00697986
0.0317539 0.0169948 0.00735325
0.0374886 0.0160243 0.00808286
0.0319864 0.017655 0.00708963
0.0380992 0.0185922 0.00695676
0.0319809 0.0171202 0.00730828
0.0380304 0.0187372 0.00697612
0.0319632 0.0172943 0.00723073
0.0376859 0.0163801 0.0077103
0.0317433 0.0165604 0.00756635
0.0378955 0.0180689 0.00691855
0.0321363 0.0175307 0.00713439
0.0318503 0.0174385 0.00716199
0.0381195 0.0178173 0.00701416
0.0321202 0.0178732 0.00702073
0.038162 0.0180066 0.00695095
0.0319453 0.0174689 0.00715295
0.0320128 0.0168812 0.00741513
0.0316543 0.0169644 0.00737439
0.0320381 0.017235 0.00726029
0.0319432 0.0172043 0.00726949
0.0317756 0.0175025 0.0071438
0.0378765 0.0179758 0.00694971
0.0316233 0.0164935 0.00764387
0.0377074 0.0164673 0.00766606
0.0320616 0.017592 0.00710891
0.0379751 0.0167962 0.00749407
0.0318907 0.0176248 0.00710121
0.0315482 0.0165432 0.00760031
0.0438649 0.0179519 0.00722388
0.0381773 0.0181003 0.00691944
0.0378475 0.0166696 0.00756093
0.0317958 0.0175957 0.00711379
0.0381302 0.0182569 0.0069235
0.0318161 0.0176896 0.00708601
0.0380694 0.0179711 0.00696379
0.0374497 0.0159032 0.00823719
0.0321562 0.0176215 0.00709526
0.0317231 0.0164939 0.00763826
0.0374303 0.0158427 0.00831436
0.0316641 0.0166342 0.00750817
0.0321524 0.0173563 0.00721197
0.0315069 0.0164095 0.00774314
0.0320085 0.01819 0.0069355
0.0320576 0.0173258 0.00722115
0.0378031 0.0164923 0.00765091
0.0320209 0.0174102 0.00718224
0.0317157 0.017228 0.00724869
0.0319264 0.0173798 0.00719419
0.0318666 0.016673 0.00750026
0.0320811 0.0176847 0.00707598
0.0316327 0.0168812 0.00742544
0.0380707 0.0168212 0.00747894
0.0380599 0.0183969 0.00693992
0.0437899 0.0172371 0.00744732
0.0379156 0.0181667 0.00692446
0.0318064 0.017191 0.00726912
0.0318684 0.0172638 0.00723987
0.0381948 0.017756 0.00703829
0.03805 0.0188351 0.00698204
0.0380101 0.0182038 0.00694217
0.0376035 0.0161073 0.00798189
0.0316026 0.0164286 0.00771703
0.0374692 0.0159638 0.00816002
0.0315904 0.0166947 0.00747814
0.0314663 0.0162796 0.00788962
0.0437683 0.0171445 0.00747821
0.0320256 0.0178432 0.00703331
0.0312095 0.0153933 0.00877912
0.0319112 0.017719 0.00707356
0.0317078 0.0168153 0.00743028
0.0322147 0.0179032 0.00700811
0.0318559 0.0178777 0.00703083
0.0317649 0.0166689 0.00749746
0.0380797 0.0184945 0.00694834
0.0380809 0.0176308 0.00707654
0.0319913 0.0185454 0.00692494
0.0319332 0.0182543 0.00692047
0.0321223 0.0183173 0.00689442
0.031931 0.0178134 0.00704588
0.0256229 0.0168363 0.00744635
0.0319139 0.0181601 0.00694806
0.0319505 0.0179075 0.00701827
0.0256014 0.0167582 0.00750494
0.0256444 0.0169145 0.00738777
0.0319699 0.0180017 0.00699068
0.0256826 0.0170742 0.00727361
0.0373913 0.0157216 0.00846868
0.0382377 0.0179459 0.00697491
0.0318752 0.0179718 0.00700324
0.0374108 0.0157821 0.00839151
0.0378273 0.0165813 0.00760567
0.0256644 0.0169939 0.00733044
0.0320408 0.0175002 0.00714347
0.0320061 0.017749 0.00706093
0.0318917 0.016762 0.00746215
0.0318946 0.018066 0.00697565
0.0322107 0.0174708 0.00716416
0.0321033 0.0182201 0.00692286
0.0321156 0.0174408 0.00717307
0.0380618 0.017542 0.00711834
0.0319718 0.018447 0.00690342
0.0321785 0.0181559 0.00693786
0.0257443 0.0173638 0.00722564
0.0320281 0.018285 0.0069113
0.0318364 0.0177836 0.00705842
0.0381179 0.0186901 0.00696523
0.0319382 0.0169407 0.00738547
0.0321007 0.0177789 0.00704836
0.0320645 0.0180317 0.00697806
0.0320838 0.0181259 0.00695047
0.0320673 0.0184808 0.00691702
0.0321428 0.0184156 0.00690894
0.0320451 0.0179375 0.00700569
0.032159 0.0180618 0.00696545
0.0321757 0.0177145 0.00706342
0.0320105 0.0186419 0.00694603
0.0380109 0.0186397 0.0069652
0.0257032 0.0171709 0.00725868
0.0257776 0.017105 0.00726929
0.0320653 0.0170728 0.00733305
0.0257648 0.0174599 0.00720713
0.0257237 0.0172676 0.00724374
0.0319892 0.0180958 0.00696309
0.0319522 0.0183485 0.00689287
0.0321397 0.0179675 0.00699306
0.0377058 0.0168849 0.00752916
0.0320483 0.0183829 0.00690959
0.0315415 0.0162335 0.00793672
0.0321969 0.0182526 0.0069096
0.0320331 0.0169719 0.00737604
0.0380797 0.0172197 0.0072792
0.032086 0.0185768 0.00693798
0.0315622 0.0162984 0.00786356
0.0380055 0.0174567 0.00725548
0.037933 0.0167155 0.0075356
0.0319655 0.0175602 0.0071165
0.0319163 0.0168511 0.00742399
0.0378955 0.0170406 0.00744522

VERTICES 289 578
1 0
1 1
1 2
1 3
1 4
1 5
1 6
1 7
1 8
1 9
1 10
1 11
1 12
1 13
1 14
1 15
1 16
1 17
1 18
1 19
1 20
1 21
1 22
1 23
1 24
1 25
1 26
1 27
1 28
1 29
1 30
1 31
1 32
1 33
1 34
1 35
1 36
1 37
1 38
1 39
1 40
1 41
1 42
1 43
1 44
1 45
1 46
1 47
1 48
1 49
1 50
1 51
1 52
1 53
1 54
1 55
1 56
1 57
1 58
1 59
1 60
1 61
1 62
1 63
1 64
1 65
1 66
1 67
1 68
1 69
1 70
1 71
1 72
1 73
1 74
1 75
1 76
1 77
1 78
1 79
1 80
1 81
1 82
1 83
1 84
1 85
1 86
1 87
1 88
1 89
1 90
1 91
1 92
1 93
1 94
1 95
1 96
1 97
1 98
1 99
1 100
1 101
1 102
1 103
1 104
1 105
1 106
1 107
1 108
1 109
1 110
1 111
1 112
1 113
1 114
1 115
1 116
1 117
1 118
1 119
1 120
1 121
1 122
1 123
1 124
1 125
1 126
1 127
1 128
1 129
1 130
1 131
1 132
1 133
1 134
1 135
1 136
1 137
1 138
1 139
1 140
1 141
1 142
1 143
1 144
1 145
1 146
1 147
1 148
1 149
1 150
1 151
1 152
1 153
1 154
1 155
1 156
1 157
1 158
1 159
1 160
1 161
1 162
1 163
1 164
1 165
1 166
1 167
1 168
1 169
1 170
1 171
1 172
1 173
1 174
1 175
1 176
1 177
1 178
1 179
1 180
1 181
1 182
1 183
1 184
1 185
1 186
1 187
1 188
1 189
1 190
1 191
1 192
1 193
1 194
1 195
1 196
1 197
1 198
1 199
1 200
1 201
1 202
1 203
1 204
1 205
1 206
1 207
1 208
1 209
1 210
1 211
1 212
1 213
1 214
1 215
1 216
1 217
1 218
1 219
1 220
1 221
1 222
1 223
1 224
1 225
1 226
1 227
1 228
1 229
1 230
1 231
1 232
1 233
1 234
1 235
1 236
1 237
1 238
1 239
1 240
1 241
1 242
1 243
1 244
1 245
1 246
1 247
1 248
1 249
1 250
1 251
1 252
1 253
1 254
1 255
1 256
1 257
1 258
1 259
1 260
1 261
1 262
1 263
1 264
1 265
1 266
1 267
1 268
1 269
1 270
1 271
1 272
1 273
1 274
1 275
1 276
1 277
1 278
1 279
1 280
1 281
1 282
1 283
1 284
1 285
1 286
1 287
1 288

POINT_DATA 289
SCALARS id int 1
LOOKUP_TABLE default
1
2
3
4
5
6
7
8
9
10
11
12
13
14
15
16
17
18
19
20
21
22
24
25
26
27
29
30
31
32
33
34
35
36
37
38
39
40
41
42
43
44
45
46
47
48
49
50
52
53
54
55
56
57
58
59
60
61
62
63
64
65
66
67
68
69
70
71
72
73
74
75
76
77
78
79
80
81
82
83
84
85
86
87
88
89
90
91
92
93
94
95
96
98
99
100
101
102
103
104
105
106
107
108
109
110
111
112
113
114
115
116
117
118
119
120
121
122
123
124
125
126
127
128
129
130
131
132
133
134
135
136
137
138
139
140
141
142
144
145
146
147
148
149
150
152
153
154
155
156
157
158
159
160
161
162
164
165
166
167
168
169
170
171
172
173
174
175
176
177
178
179
180
181
182
183
184
185
186
187
188
189
190
191
192
193
194
195
196
197
198
199
200
201
202
203
204
205
206
207
208
209
210
211
213
214
215
216
217
218
219
220
221
222
223
224
225
226
227
228
229
230
231
232
233
234
235
236
237
238
239
241
242
243
244
245
246
247
248
249
250
251
252
253
254
255
256
257
258
259
260
261
262
263
264
265
267
268
269
270
271
272
273
274
275
276
277
278
279
280
281
282
283
284
285
286
287
288
289
290
292
293
294
295
296
297
298
299
300

SCALARS type int 1
LOOKUP_TABLE default
1
1
1
1
1
1
1
1
1
1
1
1
1
1
1
1
1
1
1
1
1
1
1
1
1
1
1
1
1
1
1
1
1
1
1
1
1
1
1
1
1
1
1
1
1
1
1
1
1
1
1
1
1
1
1
1
1
1
1
1
1
1
1
1
1
1
1
1
1
1
1
1
1
1
1
1
1
1
1
1
1
1
1
1
1
1
1
1
1
1
1
1
1
1
1
1
1
1
1
1
1
1
1
1
1
1
1
1
1
1
1
1
1
1
1
1
1
1
1
1
1
1
1
1
1
1
1
1
1
1
1
1
1
1
1
1
1
1
1
1
1
1
1
1
1
1
1
1
1
1
1
1
1
1
1
1
1
1
1
1
1
1
1
1
1
1
1
1
1
1
1
1
1
1
1
1
1
1
1
1
1
1
1
1
1
1
1
1
1
1
1
1
1
1
1
1
1
1
1
1
1
1
1
1
1
1
1
1
1
1
1
1
1
1
1
1
1
1
1
1
1
1
1
1
1
1
1
1
1
1
1
1
1
1
1
1
1
1
1
1
1
1
1
1
1
1
1
1
1
1
1
1
1
1
1
1
1
1
1
1
1
1
1
1
1
1
1
1
1
1
1
1
1
1
1
1
1
1
1
1
1
1
1
1
1
1
1
1
1

SCALARS radius float 1
LOOKUP_TABLE default
5e-05
5e-05
5e-05
5e-05
5e-05
5e-05
5e-05
5e-05
5e-05
5e-05
5e-05
5e-05
5e-05
5e-05
5e-05
5e-05
5e-05
5e-05
5e-05
5e-05
5e-05
5e-05
5e-05
5e-05
5e-05
5e-05
5e-05
5e-05
5e-05
5e-05
5e-05
5e-05
5e-05
5e-05
5e-05
5e-05
5e-05
5e-05
5e-05
5e-05
5e-05
5e-05
5e-05
5e-05
5e-05
5e-05
5e-05
5e-05
5e-05
5e-05
5e-05
5e-05
5e-05
5e-05
5e-05
5e-05
5e-05
5e-05
5e-05
5e-05
5e-05
5e-05
5e-05
5e-05
5e-05
5e-05
5e-05
5e-05
5e-05
5e-05
5e-05
5e-05
5e-05
5e-05
5e-05
5e-05
5e-05
5e-05
5e-05
5e-05
5e-05
5e-05
5e-05
5e-05
5e-05
5e-05
5e-05
5e-05
5e-05
5e-05
5e-05
5e-05
5e-05
5e-05
5e-05
5e-05
5e-05
5e-05
5e-05
5e-05
5e-05
5e-05
5e-05
5e-05
5e-05
5e-05
5e-05
5e-05
5e-05
5e-05
5e-05
5e-05
5e-05
5e-05
5e-05
5e-05
5e-05
5e-05
5e-05
5e-05
5e-05
5e-05
5e-05
5e-05
5e-05
5e-05
5e-05
5e-05
5e-05
5e-05
5e-05
5e-05
5e-05
5e-05
5e-05
5e-05
5e-05
5e-05
5e-05
5e-05
5e-05
5e-05
5e-05
5e-05
5e-05
5e-05
5e-05
5e-05
5e-05
5e-05
5e-05
5e-05
5e-05
5e-05
5e-05
5e-05
5e-05
5e-05
5e-05
5e-05
5e-05
5e-05
5e-05
5e-05
5e-05
5e-05
5e-05
5e-05
5e-05
5e-05
5e-05
5e-05
5e-05
5e-05
5e-05
5e-05
5e-05
5e-05
5e-05
5e-05
5e-05
5e-05
5e-05
5e-05
5e-05
5e-05
5e-05
5e-05
5e-05
5e-05
5e-05
5e-05
5e-05
5e-05
5e-05
5e-05
5e-05
5e-05
5e-05
5e-05
5e-05
5e-05
5e-05
5e-05
5e-05
5e-05
5e-05
5e-05
5e-05
5e-05
5e-05
5e-05
5e-05
5e-05
5e-05
5e-05
5e-05
5e-05
5e-05
5e-05
5e-05
5e-05
5e-05
5e-05
5e-05
5e-05
5e-05
5e-05
5e-05
5e-05
5e-05
5e-05
5e-05
5e-05
5e-05
5e-05
5e-05
5e-05
5e-05
5e-05
5e-05
5e-05
5e-05
5e-05
5e-05
5e-05
5e-05
5e-05
5e-05
5e-05
5e-05
5e-05
5e-05
5e-05
5e-05
5e-05
5e-05
5e-05
5e-05
5e-05
5e-05
5e-05
5e-05
5e-05
5e-05
5e-05
5e-05
5e-05
5e-05
5e-05
5e-05
5e-05
5e-05
5e-05
5e-05
5e-05
5e-05
5e-05
5e-05
5e-05
5e-05
5e-05
5e-05
5e-05
5e-05
5e-05
5e-05
5e-05
5e-05

SCALARS mass float 1
LOOKUP_TABLE default
1.46608e-10
1.46608e-10
1.46608e-10
1.46608e-10
1.46608e-10
1.46608e-10
1.46608e-10
1.46608e-10
1.46608e-10
1.46608e-10
1.46608e-10
1.46608e-10
1.46608e-10
1.46608e-10
1.46608e-10
1.46608e-10
1.46608e-10
1.46608e-10
1.46608e-10
1.46608e-10
1.46608e-10
1.46608e-10
1.46608e-10
1.46608e-10
1.46608e-10
1.46608e-10
1.46608e-10
1.46608e-10
1.46608e-10
1.46608e-10
1.46608e-10
1.46608e-10
1.46608e-10
1.46608e-10
1.46608e-10
1.46608e-10
1.46608e-10
1.46608e-10
1.46608e-10
1.46608e-10
1.46608e-10
1.46608e-10
1.46608e-10
1.46608e-10
1.46608e-10
1.46608e-10
1.46608e-10
1.46608e-10
1.46608e-10
1.46608e-10
1.46608e-10
1.46608e-10
1.46608e-10
1.46608e-10
1.46608e-10
1.46608e-10
1.46608e-10
1.46608e-10
1.46608e-10
1.46608e-10
1.46608e-10
1.46608e-10
1.46608e-10
1.46608e-10
1.46608e-10
1.46608e-10
1.46608e-10
1.46608e-10
1.46608e-10
1.46608e-10
1.46608e-10
1.46608e-10
1.46608e-10
1.46608e-10
1.46608e-10
1.46608e-10
1.46608e-10
1.46608e-10
1.46608e-10
1.46608e-10
1.46608e-10
1.46608e-10
1.46608e-10
1.46608e-10
1.46608e-10
1.46608e-10
1.46608e-10
1.46608e-10
1.46608e-10
1.46608e-10
1.46608e-10
1.46608e-10
1.46608e-10
1.46608e-10
1.46608e-10
1.46608e-10
1.46608e-10
1.46608e-10
1.46608e-10
1.46608e-10
1.46608e-10
1.46608e-10
1.46608e-10
1.46608e-10
1.46608e-10
1.46608e-10
1.46608e-10
1.46608e-10
1.46608e-10
1.46608e-10
1.46608e-10
1.46608e-10
1.46608e-10
1.46608e-10
1.46608e-10
1.46608e-10
1.46608e-10
1.46608e-10
1.46608e-10
1.46608e-10
1.46608e-10
1.46608e-10
1.46608e-10
1.46608e-10
1.46608e-10
1.46608e-10
1.46608e-10
1.46608e-10
1.46608e-10
1.46608e-10
1.46608e-10
1.46608e-10
1.46608e-10
1.46608e-10
1.46608e-10
1.46608e-10
1.46608e-10
1.46608e-10
1.46608e-10
1.46608e-10
1.46608e-10
1.46608e-10
1.46608e-10
1.46608e-10
1.46608e-10
1.46608e-10
1.46608e-10
1.46608e-10
1.46608e-10
1.46608e-10
1.46608e-10
1.46608e-10
1.46608e-10
1.46608e-10
1.46608e-10
1.46608e-10
1.46608e-10
1.46608e-10
1.46608e-10
1.46608e-10
1.46608e-10
1.46608e-10
1.46608e-10
1.46608e-10
1.46608e-10
1.46608e-10
1.46608e-10
1.46608e-10
1.46608e-10
1.46608e-10
1.46608e-10
1.46608e-10
1.46608e-10
1.46608e-10
1.46608e-10
1.46608e-10
1.46608e-10
1.46608e-10
1.46608e-10
1.46608e-10
1.46608e-10
1.46608e-10
1.46608e-10
1.46608e-10
1.46608e-10
1.46608e-10
1.46608e-10
1.46608e-10
1.46608e-10
1.46608e-10
1.46608e-10
1.46608e-10
1.46608e-10
1.46608e-10
1.46608e-10
1.46608e-10
1.46608e-10
1.46608e-10
1.46608e-10
1.46608e-10
1.46608e-10
1.46608e-10
1.46608e-10
1.46608e-10
1.46608e-10
1.46608e-10
1.46608e-10
1.46608e-10
1.46608e-10
1.46608e-10
1.46608e-10
1.46608e-10
1.46608e-10
1.46608e-10
1.46608e-10
1.46608e-10
1.46608e-10
1.46608e-10
1.46608e-10
1.46608e-10
1.46608e-10
1.46608e-10
1.46608e-10
1.46608e-10
1.46608e-10
1.46608e-10
1.46608e-10
1.46608e-10
1.46608e-10
1.46608e-10
1.46608e-10
1.46608e-10
1.46608e-10
1.46608e-10
1.46608e-10
1.46608e-10
1.46608e-10
1.46608e-10
1.46608e-10
1.46608e-10
1.46608e-10
1.46608e-10
1.46608e-10
1.46608e-10
1.46608e-10
1.46608e-10
1.46608e-10
1.46608e-10
1.46608e-10
1.46608e-10
1.46608e-10
1.46608e-10
1.46608e-10
1.46608e-10
1.46608e-10
1.46608e-10
1.46608e-10
1.46608e-10
1.46608e-10
1.46608e-10
1.46608e-10
1.46608e-10
1.46608e-10
1.46608e-10
1.46608e-10
1.46608e-10
1.46608e-10
1.46608e-10
1.46608e-10
1.46608e-10
1.46608e-10
1.46608e-10
1.46608e-10
1.46608e-10
1.46608e-10
1.46608e-10
1.46608e-10
1.46608e-10
1.46608e-10
1.46608e-10
1.46608e-10
1.46608e-10
1.46608e-10
1.46608e-10
1.46608e-10
1.46608e-10
1.46608e-10
1.46608e-10
1.46608e-10

VECTORS velocity float
0.00487745 0.000516164 -0.000405176
0.00429256 0.000669679 -0.000450295
0.00435911 0.000580792 -0.000410589
0.00417883 0.000598205 -0.000416801
0.00454876 0.000635667 -0.000581841
0.00434084 -0.000423157 0.000324127
0.00503319 0.000467643 -0.000375893
0.00454262 0.000652843 -0.000601131
0.00454822 -0.000428739 0.000442177
0.00499318 0.000547957 -0.000367912
0.00501485 0.00038734 -0.000329643
0.00457874 -0.000434586 0.000446078
0.00504412 0.000472572 -0.000379127
0.00433141 8.97377e-05 0.000122109
0.00496942 0.000466981 -0.000370128
0.00430682 0.00011621 0.000125745
0.00501764 0.000560937 -0.00038278
0.00461982 -0.000473219 0.000352946
0.00456774 0.000594179 -0.00052148
0.00496166 0.000402601 -0.000337967
0.0045703 0.000621971 -0.000559697
0.00501894 0.000484138 -0.000379436
0.00460775 -0.000470846 0.00035164
0.00498231 0.000475147 -0.00037327
0.00468013 -0.000485221 0.000359621
0.00489642 -6.53423e-05 0.00024845
0.00466269 0.000564779 -0.000480426
0.00432987 -0.000421842 0.000322855
0.00501937 0.000496291 -0.000377288
0.00502537 0.000504743 -0.000389934
0.00452957 -0.000456903 0.000343331
0.00503657 0.000451607 -0.000364704
0.00509195 0.000480211 -0.000379127
0.00453296 -0.000425816 0.000440228
0.00504325 0.000493522 -0.000383339
0.00504695 0.000460471 -0.000369558
0.00465605 -0.000480345 0.00035688
0.00501023 0.000474216 -0.000380776
0.00480242 0.000528141 -0.000430753
0.00502217 0.000473798 -0.0003806
0.00472153 0.000478882 -0.000371274
0.00428586 0.000524721 -0.000391247
0.0047136 -0.000491583 0.000363141
0.00466809 -0.000482698 0.00035816
0.00473342 0.000572347 -0.000510686
0.00503041 0.000394638 -0.000334487
0.00469223 -0.000487669 0.000360917
0.00421508 0.000518042 -0.00083082
0.00473473 -3.90852e-05 0.000232269
0.00464395 -0.000477996 0.000355603
0.00505462 0.000611876 -0.000408869
0.00432431 9.88555e-05 0.00014503
0.00498178 0.000451265 -0.000363333
0.00470474 -0.000489487 0.000361854
0.00496085 -8.41483e-05 0.000263604
0.00459568 -0.000468469 0.000350322
0.00499057 0.00045746 -0.000365253
0.00460198 0.000603955 -0.000541879
0.00494991 0.000434644 -0.00035441
0.00420619 0.000622337 -0.000435243
0.00463188 -0.000475603 0.000354267
0.00455433 0.000671339 -0.000622757
0.00489625 -0.0001139 0.000273045
0.00499656 0.000737516 -0.000507286
0.00496635 -8.61017e-05 0.000262769
0.00501565 0.000493606 -0.000384621
0.00451771 -0.000422892 0.000438278
0.004284 6.79882e-05 0.000160921
0.00456348 -0.000431664 0.000444123
0.00490998 0.000564967 -0.000448737
0.00488841 0.000336959 -0.00030057
0.00500872 0.000593933 -0.000432993
0.00463998 -0.000466648 0.000351525
0.00445056 0.000684342 -0.000132787
0.00461827 2.93374e-05 0.00023368
0.00484775 -0.000233358 8.84209e-05
0.00454205 0.000738067 -6.57537e-05
0.00490408 -0.000270033 5.13943e-05
0.00447036 1.83098e-05 0.000193091
0.0046979 -0.000250179 3.56387e-05
0.00465203 -0.000469034 0.000352843
0.00462736 4.86125e-07 0.000227277
0.00457972 0.000716292 -0.000219221
0.00457314 -0.000419732 0.000441041
0.00454897 0.000766909 -7.29872e-05
0.00438062 0.000696543 -0.000191327
0.00421284 0.000633998 -0.000382906
0.00423335 0.00157357 -0.000903723
0.00454885 0.000728047 -6.29542e-05
0.00460128 0.000695466 -0.000158652
0.00453368 0.000772066 -8.11669e-05
0.0045073 0.000666829 -0.000138862
0.00454445 0.000739068 -6.87901e-05
0.00458535 0.00073393 -0.000114609
0.00490745 -7.75796e-05 0.000257061
0.00451492 0.000685452 -4.81995e-05
0.0049307 -9.35418e-05 0.000269329
0.0041247 0.000715312 -0.000470479
0.00501691 0.000468241 -0.000371606
0.00446279 -1.23765e-05 0.000208818
0.00452973 4.4224e-05 0.000206694
0.00467366 0.000611047 -0.000432023
0.00431221 7.98165e-05 0.000164358
0.00484816 0.000511436 -0.000411191
0.00433419 0.000561784 -0.000399212
0.00455135 0.000776321 -8.00553e-05
0.00459304 0.000652782 -0.000153947
0.00494168 -9.57978e-05 0.000276264
0.00456818 0.000772647 -7.66808e-05
0.00451955 5.13574e-06 0.000162506
0.00424133 0.000621179 -0.000427064
0.00499407 0.000354803 -0.000314764
0.00452887 0.000672519 -0.000629576
0.0044994 1.24024e-05 0.000196053
0.00430849 -0.000418487 0.000319718
0.00493419 0.000452507 -0.000361894
0.00453796 0.000664893 -0.000615812
0.00452773 0.000747378 -6.95429e-05
0.00476152 -0.000289933 7.54144e-05
0.00463644 0.000740001 -0.000136779
0.0050463 0.000605243 -0.000428627
0.00493142 0.00101259 -0.00064183
0.00475428 -0.000267231 4.06213e-05
0.00441904 0.000697156 -0.000343755
0.00446673 -3.71956e-06 0.000204896
0.00455992 0.000618637 -0.000434513
0.00448184 -1.39431e-06 0.000205162
0.00416229 0.000586899 -0.000408895
0.00507274 0.000481694 -0.000380171
0.00411909 0.000605202 -0.000414917
0.00489972 0.000522504 -0.000430991
0.00432286 9.25153e-05 0.000158114
0.00456113 0.000741284 -6.47385e-05
0.00451819 0.000735269 -6.72778e-05
0.004145 0.000601747 -0.000435054
0.004592 0.000748537 -7.0784e-05
0.00466987 -0.000240636 2.60607e-05
0.00414834 0.000726724 -0.000476447
0.00406834 0.000462375 -0.00102824
0.004631 0.000632825 -0.000390574
0.00450541 0.000748917 -7.12651e-05
0.00434962 5.13182e-05 0.000203352
0.00441165 0.00065984 -0.000451458
0.00456319 0.000753628 -7.06113e-05
0.00450752 0.000651693 -0.000598701
0.00456851 -4.89529e-05 0.000137778
0.00448661 0.000641226 -0.000587263
0.00450429 2.55345e-05 0.000195332
0.00491134 -0.000126696 0.000222771
0.00492243 -6.36686e-05 0.000251583
0.00458954 0.000684837 -0.000153094
0.00490237 -8.05339e-05 0.000258186
0.00445019 0.00060622 -0.000544092
0.00463115 -0.000169439 -0.000147262
0.00449032 0.000709121 -0.000132295
0.00455263 -9.83448e-06 0.000213319
0.00448158 0.000692047 -0.000157869
0.00446711 -4.71706e-05 0.000227084
0.00507287 0.000650515 -0.000456754
0.00491194 -0.000167343 0.000181578
0.00465035 0.000752145 -6.22379e-05
0.00464368 -0.000103223 0.000264626
0.00452565 1.25065e-05 0.00019871
0.00451429 0.000709434 -5.61297e-05
0.00442146 -0.000140646 -0.000149762
0.00455157 0.000738421 -6.62986e-05
0.00458277 -2.32277e-05 0.000233003
0.0050114 3.80821e-05 0.000211119
0.00490181 -7.72375e-05 0.000253569
0.00442545 -0.000102727 0.000247463
0.00445756 -4.92769e-05 0.000221706
0.00452853 -6.44712e-05 -1.60324e-05
0.00460169 0.000754871 -7.07853e-05
0.00488377 -0.000261723 0.000103359
0.005129 0.000568597 -0.000425491
0.00466124 -0.000117924 7.02111e-05
0.00496932 0.000314372 -0.000293045
0.00457058 -0.000172891 -0.000233651
0.00489839 -0.000179229 0.000162978
0.00450245 -0.000419968 0.00043633
0.00460421 0.000719906 -6.40889e-05
0.00493505 0.000467969 -0.000369337
0.00454931 -0.000124336 -0.000150386
0.00462075 0.000733859 -0.000139185
0.00456837 -0.000130047 -0.000139771
0.00454753 0.000742114 -6.92415e-05
0.00445087 0.00058905 -0.000521571
0.00458302 0.000202236 0.00012299
0.00488788 -0.000291721 7.18819e-05
0.00447801 0.000583662 -0.000513534
0.00487301 -0.000150227 0.000286782
0.00449768 -0.000154498 0.000270105
0.00480331 -0.000263815 4.83825e-05
0.00444478 -8.08543e-05 -0.000147055
0.00448347 -9.31628e-05 0.000244877
0.00513872 0.000537481 -0.000409691
0.0045542 -5.48305e-05 0.00023609
0.00447482 2.70663e-05 0.000191432
0.00452553 -2.34942e-05 0.000216744
0.00496006 -9.50312e-05 0.000267852
0.00451262 -9.24061e-06 -0.000165026
0.00493014 -9.04435e-05 0.000266372
0.0049566 0.000387156 -0.000329239
0.00456998 0.000698728 -0.000136222
0.00461583 -0.000461896 0.000348903
0.00464764 0.000766462 -0.000140564
0.00446245 -1.72805e-06 0.000202897
0.0044343 2.52579e-05 0.00019071
0.00456166 0.000742073 -6.56956e-05
0.0044793 0.000696427 -0.000137996
0.00460163 0.000703086 -0.000168041
0.00475504 0.000496553 -0.000385663
0.00482891 -0.000285428 8.64188e-05
0.00442647 0.00059824 -0.000534786
0.00492738 -0.000100153 0.000267151
0.00472153 -0.000263342 3.91989e-05
0.00462791 -0.000464271 0.000350215
0.00442689 -0.000112319 -0.000158768
0.00430996 0.000123636 0.000124637
0.00459341 -0.000164777 -0.000169809
0.0049511 -8.77686e-05 0.000259485
0.00441815 -0.000169645 -0.000142234
0.00445449 -9.12566e-05 -0.000163654
0.00499109 -5.22098e-05 0.000250263
0.00452147 0.00070372 -0.000133083
0.00449597 0.000718832 -5.78775e-05
0.004351 -8.41634e-05 0.000286768
0.00447888 -0.000138231 -0.000153536
0.00440173 -1.58517e-05 -0.000183899
0.00454633 3.92102e-06 -0.000191895
0.00489998 -8.3966e-05 0.000161297
0.00445814 -9.25345e-05 -0.000166385
0.00444893 -9.50723e-05 -0.000164768
0.00489049 -7.25576e-05 0.000152382
0.004909 -9.75952e-05 0.000170066
0.00445277 -9.35049e-05 -0.000166108
0.00445745 -9.36824e-05 3.79149e-05
0.00440166 0.000588739 -0.000524134
0.00452191 0.000742591 -6.79591e-05
0.00445322 -8.75259e-05 -0.000167944
0.0044783 0.000580394 -0.000510455
0.0051587 0.00053092 -0.00040705
0.00441036 -8.14125e-05 3.24031e-05
0.00460494 -3.509e-05 0.000241854
0.00450281 -3.91515e-05 -0.000188936
0.00497442 -8.85123e-05 0.000265559
0.00445158 -8.58762e-05 -0.000168083
0.00464992 -0.000139141 0.000266475
0.00435547 -9.56537e-05 -6.31428e-05
0.00456929 -0.000104096 0.000253556
0.00435272 0.000547536 -0.000483825
0.00435822 -0.000136367 0.000273606
0.00435233 -8.8172e-05 -0.00014044
0.00448111 -0.000102237 -0.000119853
0.00441182 -5.62592e-05 -5.49007e-05
0.00459161 -0.000125997 -0.000152747
0.00450198 0.000710464 -0.000129259
0.0049105 -6.40022e-05 0.000251848
0.00450498 -2.30918e-05 -0.000184189
0.00445047 -0.000111403 -0.000160838
0.00445338 -0.000104233 -0.000158579
0.00435954 -6.99928e-05 0.000287519
0.00438186 3.1813e-05 0.000314077
0.00444337 -0.000110223 -0.000160793
0.00445024 -0.000122009 -0.000157194
0.00452246 -3.78935e-06 -0.000192832
0.00433881 -5.62434e-05 0.000290947
0.00445428 0.000689925 -0.000135314
0.00447343 -8.97141e-05 3.61182e-05
0.00446148 -0.000116925 4.14219e-05
0.00461705 8.44764e-05 0.000172039
0.00448701 -9.92439e-05 -0.000119886
0.00447945 -7.93717e-05 3.50332e-05
0.00445967 -9.19494e-05 -0.000167632
0.00437943 -0.000112658 -0.000156834
0.00443908 -0.000141266 -0.000151053
0.00499202 0.000492428 -0.000375048
0.00440903 -6.60592e-05 0.000132802
0.00469954 -0.000275658 6.14044e-05
0.00440316 -1.48626e-05 -0.000182561
0.00486073 9.70857e-05 0.000178521
0.00425573 0.000643668 -0.000438567
0.00434052 -6.27932e-05 0.000290294
0.00473213 -0.000285499 7.02073e-05
0.00413313 0.000606959 -0.000443626
0.00502939 0.000495698 -0.000385912
0.00461116 -0.000148656 -0.000154263
0.00498741 -8.28609e-05 0.000263214
0.0050921 0.000493932 -0.000371786

VECTORS force float
4.49889e-10 -6.4631e-10 6.1138e-10
-1.31038e-10 -1.7087e-10 2.96198e-11
-3.14932e-10 3.42366e-10 -1.63588e-10
-1.96991e-10 -4.93516e-10 2.30495e-10
-2.90814e-10 -2.74704e-10 2.85718e-10
-1.54887e-11 8.5882e-12 -1.53137e-12
6.27897e-12 -2.80004e-11 6.74793e-11
-2.51381e-10 -1.34935e-10 1.09844e-10
-4.86633e-13 -3.14826e-14 -4.03501e-14
4.88184e-10 6.43269e-10 -9.9615e-11
-1.65772e-10 4.33889e-10 -1.56508e-10
-3.58689e-13 -6.7554e-14 5.13238e-14
1.55788e-11 7.59631e-11 -2.67587e-11
-6.31034e-11 3.43277e-10 1.46134e-10
2.0735e-10 -5.18427e-11 2.13139e-11
-1.40209e-11 9.63742e-11 -1.19156e-10
3.30446e-10 5.13186e-10 -1.15722e-10
-1.71298e-13 -8.84384e-14 4.04175e-14
7.74739e-11 -2.2178e-11 1.08693e-11
4.06458e-11 1.4934e-10 -1.29474e-10
4.01078e-10 -1.25398e-10 2.35344e-10
-1.10569e-10 -1.95981e-10 1.17162e-10
-1.5287e-13 -4.45533e-14 -6.73338e-14
9.6178e-11 1.20188e-10 -5.4981e-11
-3.50323e-14 -2.36784e-12 1.60184e-12
6.13197e-11 2.59159e-10 -1.40695e-10
6.64601e-10 -1.34543e-10 2.01239e-10
5.66219e-12 1.1783e-12 -1.17312e-12
-3.36843e-11 3.83042e-10 -1.15259e-11
-1.93403e-10 -4.7389e-10 2.34554e-10
2.10669e-11 4.64033e-12 2.19005e-12
9.37354e-11 8.13758e-11 -3.75164e-11
-9.33964e-11 8.30743e-11 -7.14163e-11
-5.43131e-13 -1.07987e-14 -1.76257e-14
-1.13791e-10 -8.31392e-11 1.08244e-10
-5.82434e-11 1.91294e-11 -1.31537e-11
2.17077e-13 6.79861e-13 -1.02198e-12
-1.69948e-12 -4.01994e-11 1.45148e-10
9.28989e-10 -1.39421e-10 2.22089e-10
-1.01938e-10 -1.01773e-10 1.44873e-10
1.02242e-11 2.17297e-12 4.92182e-11
-2.77353e-10 -8.35935e-11 6.72722e-11
2.24858e-12 -2.81617e-11 2.09906e-11
-5.28527e-13 -1.3055e-12 1.28718e-12
-6.97663e-10 5.19032e-10 -2.26927e-10
-2.93463e-10 9.39138e-11 1.6312e-11
3.17645e-12 5.30644e-12 -4.76263e-12
4.56511e-11 2.97185e-11 -3.66783e-10
-1.11732e-11 -2.18301e-10 6.23632e-11
1.98414e-13 1.15249e-13 -1.57673e-13
2.54183e-10 -8.02628e-10 1.69645e-10
1.72017e-11 5.5476e-11 -6.84601e-11
1.00698e-11 2.60394e-10 -8.95092e-11
-1.09697e-11 8.91408e-12 -1.60677e-12
1.24899e-10 -5.89066e-11 3.43113e-11
-2.32428e-13 -6.41866e-14 1.01063e-15
-1.05112e-10 2.25729e-10 -1.25738e-10
5.33014e-10 -1.07757e-11 1.23757e-12
3.01036e-10 8.16192e-11 -8.68402e-12
-1.61572e-10 -1.73576e-10 3.03171e-11
-1.02194e-13 -2.60747e-13 3.43989e-13
-1.16538e-10 -9.42583e-11 8.11855e-11
-5.98976e-12 3.76209e-11 -3.21277e-11
6.33968e-11 -1.75566e-10 8.73776e-11
1.45825e-10 -2.11398e-11 -1.35983e-11
-1.70522e-10 -4.5e-10 2.37048e-10
-6.31449e-13 7.79685e-15 -4.8341e-14
1.41195e-10 -1.1725e-10 8.75506e-11
-4.2781e-13 -3.36819e-14 -4.09298e-14
-2.6728e-10 6.20603e-10 -2.06613e-10
-3.13386e-10 1.11328e-10 -4.65979e-11
-1.77186e-11 4.60274e-12 -3.18058e-11
-1.43138e-13 -7.80741e-14 1.15786e-15
-7.10915e-12 -3.81655e-11 1.59095e-11
-7.45324e-11 -1.37492e-10 1.27896e-10
3.61738e-11 -1.17631e-10 3.50702e-11
-1.54164e-10 6.18978e-12 4.58704e-12
6.54187e-11 -2.63527e-11 7.1739e-11
-4.81335e-12 2.50095e-10 -1.35373e-10
-4.01506e-12 -1.22032e-10 1.18642e-10
1.25549e-13 -6.25867e-14 1.8901e-13
-1.83814e-11 -1.46435e-10 1.77165e-10
-8.38171e-11 4.30823e-11 1.37179e-10
-3.57507e-13 2.06952e-14 -4.33041e-14
-1.69332e-11 -1.877e-11 3.28743e-11
-5.14782e-11 -1.72548e-10 -5.22924e-10
2.64317e-10 -1.88912e-10 -5.88565e-10
-5.87072e-10 3.28668e-10 -1.44063e-10
-1.30032e-10 1.74661e-10 -1.21954e-10
-2.29442e-11 -1.41145e-12 -1.15964e-10
-4.12262e-11 1.90216e-11 -7.70964e-11
-3.16553e-11 3.8968e-11 -7.18218e-11
-3.45766e-11 -5.98008e-11 -1.1344e-11
-8.59708e-11 -1.20801e-10 3.04443e-10
-5.37066e-11 1.57518e-10 -7.92328e-11
-1.00525e-10 2.4274e-10 -7.00308e-11
2.18036e-10 -1.50429e-10 8.97531e-11
2.16254e-11 -1.38793e-11 4.87476e-11
-1.74464e-10 1.63487e-10 -6.58904e-11
-3.75221e-11 2.89695e-10 -1.31362e-10
1.93238e-10 -1.35194e-10 1.60278e-10
1.27337e-11 -7.3957e-12 -7.2596e-11
-8.78049e-12 -4.6195e-11 3.43412e-11
-9.61304e-11 5.00142e-11 3.71604e-10
-2.36167e-10 -6.04791e-11 1.65203e-11
1.94144e-11 -3.07281e-11 -3.39596e-11
2.9456e-12 1.76172e-10 -3.40036e-11
1.84762e-10 9.10567e-11 -6.14266e-11
-3.70695e-14 -4.43285e-11 9.79715e-12
3.75491e-11 -8.91578e-11 -9.78004e-11
-4.14535e-10 7.00887e-11 -4.03542e-11
2.46249e-11 1.72546e-10 -7.28831e-11
3.86521e-11 6.23634e-11 -1.14171e-10
1.21275e-10 1.60207e-10 -5.54458e-11
-4.39827e-12 9.94713e-13 -1.22472e-13
-1.44437e-11 2.29618e-10 -1.0741e-10
1.12559e-10 2.08669e-10 -1.79096e-10
1.89138e-10 -1.3165e-10 1.94447e-11
-3.90007e-11 -7.53833e-11 9.60856e-11
-2.04922e-10 3.57066e-11 5.663e-10
-4.73002e-10 -1.23654e-09 7.30471e-10
6.44871e-11 1.34022e-10 -6.80293e-11
-2.33662e-10 -1.52461e-10 1.56087e-10
1.68002e-11 -8.36784e-11 -4.70654e-10
-5.77437e-11 1.86419e-10 -1.10704e-10
-2.99454e-10 -2.31034e-10 1.09427e-10
-1.71338e-10 -1.14148e-10 4.84498e-11
1.02372e-11 -2.63803e-10 1.37721e-10
3.20065e-11 1.21829e-10 -8.91733e-11
3.0703e-10 -8.08359e-11 -1.14471e-11
5.99493e-10 -5.88058e-10 8.78589e-11
9.6868e-11 5.14111e-12 5.4515e-12
4.25215e-10 6.00624e-11 1.91515e-10
-1.87008e-10 -2.44784e-11 -5.85645e-11
2.22719e-10 -6.21187e-11 -2.2659e-10
1.05596e-10 -1.13183e-10 1.18438e-10
-6.46184e-11 -1.45279e-10 1.22829e-10
2.02922e-10 1.97568e-10 -2.97699e-10
-1.88142e-10 2.22463e-10 -4.31785e-10
-2.11405e-10 8.94632e-11 8.89466e-11
4.53569e-10 -2.94025e-11 4.34879e-11
2.72899e-10 -1.62001e-10 1.39198e-10
2.36471e-10 -4.0899e-11 1.67861e-11
1.70931e-11 -2.1741e-11 7.50635e-12
-2.16988e-10 1.55008e-10 -2.49844e-10
7.45057e-11 -1.71007e-10 -8.27298e-10
-5.00933e-11 2.14203e-10 -2.78988e-10
-2.92324e-11 7.31725e-11 -4.47434e-11
6.68168e-11 4.3538e-11 6.40776e-11
-2.28294e-10 -2.52153e-12 -4.89673e-12
2.37093e-10 5.79598e-10 4.02149e-10
1.73542e-10 3.69895e-10 -1.54857e-10
7.69885e-10 2.31359e-10 -2.26484e-10
-1.11405e-10 1.363e-10 -3.83682e-10
-1.99052e-10 9.74538e-11 -2.83117e-12
-1.96045e-11 -1.71919e-10 7.03051e-11
-2.89568e-11 2.29037e-11 -1.56065e-10
1.31625e-10 -5.7282e-11 -5.00371e-11
3.09909e-10 -5.09786e-10 3.00221e-10
1.2246e-10 -1.03957e-10 1.34475e-10
1.40687e-10 1.26876e-10 -4.84153e-11
-2.74912e-10 3.23041e-10 1.33447e-10
1.21485e-10 1.77836e-10 -1.26453e-10
1.11678e-10 -6.17731e-11 -4.05599e-12
9.52507e-11 -4.79679e-11 3.91165e-12
5.68476e-11 -6.49503e-11 7.78013e-11
2.66692e-11 7.87632e-12 -1.97832e-10
1.93538e-10 -6.1773e-11 3.85576e-11
6.24337e-11 1.97379e-10 -1.30304e-10
1.39314e-10 -1.87691e-10 1.13561e-10
9.39102e-12 -3.25324e-11 8.79883e-11
-8.34319e-12 -4.42671e-10 -5.83507e-10
5.06082e-11 9.96594e-12 6.63237e-12
1.30833e-10 -1.97537e-10 -2.71909e-11
1.39036e-10 -1.25665e-10 4.2425e-11
-1.44785e-10 1.60236e-10 -4.9829e-10
-2.6461e-10 1.33386e-10 -4.04913e-11
-1.04079e-10 -1.22306e-10 -9.85888e-10
-2.04886e-11 -1.26298e-10 1.49071e-11
-6.9156e-13 6.60248e-15 -4.97697e-14
-3.66217e-10 6.55796e-11 -1.36967e-10
-3.57172e-10 1.55893e-10 -6.99147e-11
-1.95396e-10 -3.86703e-10 -2.2582e-10
2.13387e-10 -1.43035e-11 -3.06755e-11
-3.75825e-10 -1.48701e-10 2.7377e-10
1.48901e-10 -6.62254e-12 9.44755e-11
-3.74664e-10 9.86914e-12 -1.8661e-11
1.61002e-10 -1.44332e-10 -1.04054e-11
8.98654e-11 -9.33908e-11 8.09074e-11
-4.86566e-10 -2.47986e-10 2.7322e-10
-5.10455e-12 -4.09467e-11 2.37823e-11
-8.01463e-11 4.27152e-11 -9.91563e-11
1.07141e-10 -1.10276e-10 1.29412e-10
-2.20613e-10 2.19341e-10 1.42331e-11
6.75484e-12 3.99337e-11 2.27065e-11
-2.39921e-10 5.89636e-11 -1.37386e-11
2.66344e-11 -8.62369e-11 -5.19735e-11
9.28859e-11 2.47547e-10 -7.42148e-11
3.004e-11 -7.41392e-12 7.42446e-12
3.33626e-10 -1.52912e-10 9.29771e-11
2.76277e-10 -4.28507e-11 -1.51752e-12
1.02251e-10 1.40466e-10 -1.3054e-10
-3.0775e-10 1.16151e-10 -2.24048e-11
1.48767e-10 2.91923e-12 -7.07155e-11
-7.58325e-14 -1.14063e-15 1.96062e-14
-1.14972e-10 1.44086e-10 -2.48784e-11
-1.50537e-10 3.38736e-11 1.53791e-11
-1.9761e-11 1.89424e-11 -7.96433e-11
-1.04513e-10 1.0488e-10 -2.75848e-11
-3.27606e-11 8.94116e-11 -1.81268e-11
-1.22577e-10 6.09384e-11 3.81715e-10
-4.68728e-10 -4.27562e-10 5.5388e-10
3.77153e-11 -2.37195e-11 4.11504e-11
1.25714e-10 2.80268e-10 -3.67672e-10
6.00002e-11 7.82933e-11 -2.72168e-11
6.54012e-11 -1.11703e-10 1.71132e-10
-6.318e-14 -2.02352e-14 -5.45719e-14
1.23105e-10 -9.13194e-11 1.04576e-11
4.76709e-11 1.53599e-10 -1.49354e-10
-1.81842e-10 -1.0852e-11 -4.39345e-11
1.79009e-10 1.87979e-10 -6.53961e-11
-3.47555e-12 3.26771e-11 -2.50734e-13
-2.67517e-10 1.97777e-11 6.83928e-11
1.03297e-10 -1.45299e-10 6.30012e-11
-6.80463e-11 7.1092e-11 4.07097e-11
8.29872e-11 5.55543e-11 1.39276e-10
-1.55581e-11 -5.2341e-11 -8.5038e-12
-1.98123e-11 -8.00131e-11 2.20374e-11
-1.50478e-10 5.27248e-11 -7.82487e-11
-1.67092e-10 1.58618e-10 -6.49504e-11
-4.86898e-11 -2.71813e-11 -1.09824e-11
-1.05566e-10 -1.41591e-10 5.94547e-11
-5.17634e-11 -1.55949e-10 8.40002e-11
1.8427e-11 3.93984e-11 -2.37805e-11
-1.70806e-11 2.39143e-12 -1.85274e-12
3.52112e-11 -1.28642e-10 8.33124e-12
3.08879e-11 -4.97788e-11 2.85658e-11
-2.7399e-10 -2.29499e-12 -1.63714e-11
2.30352e-10 -1.1766e-10 5.32509e-11
1.75708e-10 -5.18546e-11 -1.68052e-11
-2.96631e-10 -1.76188e-10 1.84015e-10
-1.54329e-10 6.16911e-11 -1.48508e-11
3.26208e-10 -7.6985e-11 4.92822e-11
-3.12733e-10 1.1651e-10 -8.57021e-11
1.19255e-11 2.06622e-10 -9.26711e-11
2.69108e-10 -1.48645e-10 7.10847e-11
1.61713e-10 -8.58694e-11 -1.67056e-12
-4.62553e-10 2.23513e-10 -1.91876e-10
1.1151e-09 -7.01446e-10 -1.45711e-10
-1.53555e-10 1.89944e-10 1.14713e-10
-3.03804e-10 -7.34093e-12 1.37621e-10
-2.81172e-11 1.77202e-10 -2.33941e-12
-8.17635e-11 2.99632e-10 -4.62008e-11
8.10252e-12 1.32166e-11 1.25041e-11
9.33986e-11 1.35149e-10 1.96492e-10
-9.26789e-11 -1.58492e-10 2.88682e-11
-7.8599e-11 8.38809e-11 -5.82888e-11
3.67844e-11 -1.66384e-10 8.56259e-11
7.00044e-11 -1.82466e-10 -2.25388e-11
-6.75889e-11 5.57236e-11 -2.63839e-11
-4.56453e-11 3.46636e-10 -4.99986e-11
2.47954e-11 6.72131e-11 -6.36467e-11
-3.25193e-11 3.51017e-11 3.26031e-11
8.15081e-11 -1.33281e-10 2.97347e-11
-5.80734e-11 2.0608e-10 -5.74872e-11
2.33722e-10 -1.21087e-10 8.64382e-11
-3.1121e-11 -4.07155e-11 -5.21302e-12
-1.77145e-10 -1.07874e-10 5.96236e-12
-3.59459e-11 -2.28973e-11 1.55672e-11
-5.44099e-11 -1.16494e-11 9.3343e-13
1.59462e-10 1.55321e-10 -5.2516e-11
3.12781e-11 -4.80791e-11 1.3124e-11
-2.60562e-11 1.48104e-11 -6.71767e-12
3.61922e-11 -4.66544e-12 1.18588e-11
-1.37588e-11 -8.43934e-11 2.59008e-11
6.44246e-11 2.01769e-10 -5.67964e-11
-1.4319e-10 4.23227e-10 1.72523e-10
-1.57195e-10 1.84179e-10 1.3656e-10
-6.22807e-11 -1.12894e-10 1.26399e-10
-2.88663e-11 -6.86802e-11 3.82228e-11
7.51432e-11 -1.8352e-10 8.66462e-11
-3.62731e-10 -1.39079e-10 1.07939e-10
-3.70752e-11 1.7113e-11 1.22454e-11
-1.42492e-10 -8.96943e-11 1.3388e-10
-1.97411e-10 2.72313e-10 2.66824e-10
-3.03476e-10 1.11234e-10 -3.98282e-11
-1.96923e-10 -9.61026e-11 -8.57618e-10
1.9104e-10 -1.61839e-10 7.30975e-11
-2.55331e-10 4.67246e-11 1.14229e-10
