# vtk DataFile Version 3.0
LIGGGHTS particles timestep 63800000
ASCII
DATASET POLYDATA
POINTS 283 float
0.305167 0.0162952 0.0077656
0.305534 0.0176604 0.00715453
0.30558 0.0180618 0.0069866
0.30556 0.0179656 0.00700555
0.304972 0.0156509 0.0084948
0.311215 0.0164873 0.00764777
0.305164 0.0159611 0.00807457
0.304953 0.0155921 0.00857341
0.31147 0.0175463 0.00719269
0.305864 0.0181561 0.00696541
0.305348 0.0166474 0.00753328
0.311428 0.0173597 0.00725126
0.30586 0.0177067 0.00706188
0.298921 0.0155219 0.00872703
0.30588 0.0178032 0.00704287
0.299143 0.0162696 0.00795153
0.31159 0.0181071 0.00701644
0.305499 0.0176774 0.0070623
0.30557 0.0171831 0.00722578
0.304992 0.0157096 0.00841621
0.305619 0.0182539 0.00694713
0.311385 0.0171734 0.00730974
0.305724 0.0174831 0.00710458
0.31132 0.0168939 0.00739745
0.29918 0.0160896 0.00813639
0.305458 0.0174851 0.00710017
0.311195 0.0164226 0.00772128
0.305694 0.0181897 0.00696095
0.305819 0.0175145 0.00709973
0.311234 0.0165521 0.00757422
0.305576 0.0178535 0.00711655
0.305899 0.0178996 0.00702387
0.31153 0.0178267 0.00710457
0.305184 0.0160198 0.00799604
0.305765 0.0176752 0.00706674
0.305379 0.0164302 0.00768137
0.305515 0.0173301 0.00715294
0.305645 0.0171237 0.00725488
0.305675 0.0180936 0.00698168
0.305554 0.0175165 0.00709532
0.311256 0.0166288 0.00751383
0.311342 0.0169871 0.00736822
0.305125 0.0158437 0.00823176
0.305551 0.0170962 0.00727111
0.311298 0.0168007 0.00742669
0.30567 0.0176441 0.00707154
0.299689 0.0186079 0.00688701
0.299724 0.0179063 0.00702676
0.305844 0.0180603 0.00698882
0.311277 0.0167075 0.00745581
0.299366 0.0167008 0.00750244
0.311406 0.0172666 0.0072805
0.305671 0.017885 0.00711167
0.305011 0.0157683 0.00833762
0.305423 0.0165936 0.00757227
0.305615 0.0178048 0.00703856
0.311363 0.0170802 0.00733898
0.305222 0.0161631 0.00786395
0.299895 0.0183124 0.00690505
0.305919 0.0179957 0.00700274
0.299419 0.0165855 0.00762023
0.30551 0.0169224 0.00736177
0.311645 0.0179515 0.00706752
0.299288 0.0167499 0.00746355
0.311449 0.0174529 0.00722202
0.305357 0.016349 0.0077356
0.305295 0.016783 0.00744065
0.305481 0.0174539 0.00719248
0.31157 0.0180136 0.00704583
0.305658 0.0184445 0.00690054
0.29898 0.0157261 0.00851532
0.299201 0.0161576 0.00806593
0.305533 0.0174205 0.00711423
0.299934 0.0185089 0.0068981
0.29948 0.0167922 0.00740544
0.299 0.0157941 0.00844478
0.31151 0.0177332 0.00713394
0.299345 0.016633 0.00757282
0.305655 0.0179973 0.00700064
0.31149 0.0176398 0.00716331
0.305444 0.0166748 0.00751804
0.305649 0.017548 0.00709046
0.305369 0.0167294 0.00748029
0.305242 0.0162411 0.00780472
0.305605 0.0169495 0.00734576
0.305609 0.0173572 0.00713508
0.305435 0.0169819 0.00733261
0.30573 0.0179327 0.00701469
0.305665 0.0172107 0.00720949
0.305495 0.0172425 0.00719689
0.299521 0.0169763 0.00733971
0.305648 0.0177852 0.00713111
0.299819 0.0179361 0.00701313
0.30569 0.0177401 0.00705263
0.30578 0.0173248 0.00714812
0.299461 0.0167212 0.00747947
0.299743 0.0179995 0.00699545
0.305283 0.0164038 0.007696
0.29894 0.0155899 0.00865645
0.305785 0.0177714 0.0070478
0.30554 0.0178695 0.00702449
0.305638 0.0183492 0.00692384
0.305089 0.0160035 0.00802352
0.299221 0.0162255 0.00799548
0.305789 0.0182208 0.00695145
0.299387 0.0167746 0.00743851
0.305479 0.0175814 0.00708121
0.305551 0.0177573 0.00713691
0.305327 0.0165662 0.00758764
0.299915 0.0184105 0.00690159
0.311175 0.0163578 0.00779482
0.305685 0.0172977 0.00716415
0.305562 0.0167826 0.00744903
0.305338 0.0169551 0.00734852
0.299728 0.018804 0.00688008
0.305828 0.0181329 0.00705563
0.305825 0.0179644 0.00700978
0.3054 0.0165114 0.00762715
0.29904 0.01593 0.0083038
0.305884 0.0182518 0.006942
0.299159 0.0160217 0.00820684
0.305069 0.0159445 0.00810186
0.299765 0.0185422 0.00689187
0.3054 0.0172155 0.00721262
0.30553 0.0170092 0.00731651
0.305629 0.0174519 0.00710937
0.305391 0.0168102 0.00742544
0.299631 0.0183149 0.0069085
0.30523 0.016539 0.00760273
0.305455 0.0170686 0.00728735
0.305466 0.0167559 0.00746384
0.305809 0.0183163 0.00692812
0.299838 0.0180292 0.00698186
0.305145 0.0159024 0.00815317
0.305704 0.0173869 0.00712351
0.30559 0.0172701 0.00718042
0.305273 0.0167014 0.00749424
0.29896 0.015658 0.00858587
0.305602 0.0179564 0.00709594
0.305584 0.0168641 0.0073946
0.305262 0.0163233 0.00775135
0.299584 0.0172547 0.00724593
0.305939 0.0180912 0.00697939
0.299102 0.0161338 0.00809243
0.299242 0.0162934 0.00792503
0.299814 0.0185489 0.00697861
0.305635 0.017901 0.00701962
0.299857 0.0181223 0.00695058
0.305625 0.0170367 0.00730028
0.299665 0.0176262 0.00712097
0.305413 0.0168954 0.0073779
0.299876 0.0182153 0.00691932
0.305381 0.0171283 0.00725807
0.299651 0.0184119 0.00689395
0.305488 0.0168371 0.00740962
0.299324 0.0165663 0.00764443
0.305744 0.0175792 0.00708566
0.299625 0.0181581 0.00704893
0.299551 0.0176713 0.00719881
0.30571 0.0180024 0.00708373
0.299592 0.0181259 0.00696019
0.305595 0.0177086 0.0070575
0.299644 0.0175333 0.00715221
0.299475 0.0175683 0.00714768
0.299122 0.0162017 0.00802198
0.299745 0.0184441 0.00689534
0.299604 0.0173476 0.00721469
0.299402 0.016857 0.00738368
0.305733 0.0183806 0.00691428
0.299859 0.0185747 0.00689324
0.305654 0.0181699 0.00705041
0.29982 0.0183783 0.0069002
0.30571 0.0178363 0.0070337
0.299309 0.0168333 0.0074125
0.299469 0.0171329 0.00729053
0.31155 0.0179201 0.0070752
0.305187 0.0163765 0.0077112
0.305147 0.0162135 0.00782025
0.299184 0.0164055 0.00781067
0.305419 0.0173026 0.00716724
0.299529 0.0174115 0.0071968
0.305768 0.017919 0.00710631
0.30505 0.0158857 0.00818044
0.299554 0.0179398 0.00702272
0.299544 0.017069 0.00730843
0.305305 0.016485 0.00764178
0.29967 0.0185099 0.00689048
0.299671 0.0182371 0.00700806
0.299061 0.015998 0.00823339
0.299509 0.0173187 0.00722804
0.299718 0.0181069 0.00705249
0.30584 0.0176105 0.00708083
0.299535 0.0178468 0.00705397
0.299266 0.0166787 0.00753032
0.299624 0.0174405 0.00718345
0.29944 0.0166534 0.00754981
0.299788 0.0186445 0.00688833
0.299081 0.0160659 0.00816288
0.305635 0.018067 0.00706969
0.305209 0.0164578 0.00765696
0.311628 0.0182944 0.00695752
0.305317 0.0168688 0.00739421
0.299303 0.0164972 0.00771368
0.305252 0.0166202 0.0075485
0.305205 0.0160834 0.00792199
0.305109 0.0160668 0.00794871
0.305959 0.0181871 0.00695596
0.299163 0.0163376 0.00788108
0.305805 0.0178679 0.00702878
0.299262 0.0163613 0.00785459
0.29902 0.0158621 0.00837423
0.311609 0.0182008 0.00698698
0.299455 0.0174754 0.00717892
0.299705 0.0178132 0.00705804
0.299424 0.0169494 0.00735251
0.29961 0.017783 0.00707182
0.299595 0.0180061 0.00708528
0.299225 0.0165413 0.00766973
0.299564 0.0171618 0.00727718
0.305476 0.0171555 0.00724205
0.305574 0.0176126 0.00707641
0.299679 0.0179208 0.00711491
0.29933 0.0169271 0.00738518
0.299698 0.0180139 0.00708372
0.299449 0.0170444 0.00733281
0.293405 0.0172999 0.0073901
0.29953 0.0178297 0.00715238
0.299374 0.0171048 0.00730559
0.293383 0.0172267 0.00745488
0.293426 0.0173731 0.00732531
0.299595 0.0177578 0.00717643
0.293463 0.0175203 0.00719526
0.305799 0.0174184 0.00711865
0.305438 0.0173896 0.00712186
0.299246 0.0166097 0.00759977
0.305031 0.0158278 0.00825963
0.215741 0.019982 0.00563384
0.293446 0.0174464 0.00726044
0.299726 0.018346 0.00689881
0.299685 0.0177191 0.00708968
0.299283 0.0164293 0.00778413
0.299649 0.0179695 0.00700911
0.299549 0.0175044 0.00716556
0.29959 0.0176901 0.00710309
0.299706 0.0182491 0.00691519
0.30575 0.018029 0.00699573
0.29966 0.0178278 0.00714608
0.299515 0.0177539 0.00708521
0.293505 0.0176678 0.00706698
0.299435 0.0173826 0.00721016
0.299205 0.0164734 0.00774018
0.305128 0.0161316 0.007875
0.29984 0.0184764 0.00689673
0.299612 0.0182191 0.00692964
0.300009 0.0184431 0.00690296
0.299763 0.0180926 0.00696416
0.299576 0.017913 0.00711657
0.299573 0.0180328 0.00699145
0.29963 0.0178763 0.00704043
0.299759 0.0181951 0.00702973
0.299687 0.0181557 0.00694656
0.299415 0.0172897 0.0072414
0.305494 0.0175683 0.00717912
0.404182 0.0211142 0.0056569
0.293535 0.0178467 0.00701799
0.299709 0.018706 0.00688355
0.293515 0.0177491 0.00700954
0.293487 0.017593 0.00713078
0.299489 0.0172258 0.00725929
0.299352 0.0170188 0.00735187
0.299668 0.0180627 0.00697781
0.305769 0.0181249 0.0069749
0.29957 0.0175972 0.00713432
0.299782 0.0181861 0.00693274
0.299495 0.0176611 0.00711644
0.29972 0.0183249 0.00699638
0.305714 0.0182853 0.00693758
0.299395 0.017197 0.00727293
0.299498 0.0168843 0.00737083
0.30536 0.0170416 0.00730333
0.30552 0.0177734 0.0070434
0.2998 0.0182799 0.00690367
0.305599 0.018158 0.00696765

VERTICES 283 566
1 0
1 1
1 2
1 3
1 4
1 5
1 6
1 7
1 8
1 9
1 10
1 11
1 12
1 13
1 14
1 15
1 16
1 17
1 18
1 19
1 20
1 21
1 22
1 23
1 24
1 25
1 26
1 27
1 28
1 29
1 30
1 31
1 32
1 33
1 34
1 35
1 36
1 37
1 38
1 39
1 40
1 41
1 42
1 43
1 44
1 45
1 46
1 47
1 48
1 49
1 50
1 51
1 52
1 53
1 54
1 55
1 56
1 57
1 58
1 59
1 60
1 61
1 62
1 63
1 64
1 65
1 66
1 67
1 68
1 69
1 70
1 71
1 72
1 73
1 74
1 75
1 76
1 77
1 78
1 79
1 80
1 81
1 82
1 83
1 84
1 85
1 86
1 87
1 88
1 89
1 90
1 91
1 92
1 93
1 94
1 95
1 96
1 97
1 98
1 99
1 100
1 101
1 102
1 103
1 104
1 105
1 106
1 107
1 108
1 109
1 110
1 111
1 112
1 113
1 114
1 115
1 116
1 117
1 118
1 119
1 120
1 121
1 122
1 123
1 124
1 125
1 126
1 127
1 128
1 129
1 130
1 131
1 132
1 133
1 134
1 135
1 136
1 137
1 138
1 139
1 140
1 141
1 142
1 143
1 144
1 145
1 146
1 147
1 148
1 149
1 150
1 151
1 152
1 153
1 154
1 155
1 156
1 157
1 158
1 159
1 160
1 161
1 162
1 163
1 164
1 165
1 166
1 167
1 168
1 169
1 170
1 171
1 172
1 173
1 174
1 175
1 176
1 177
1 178
1 179
1 180
1 181
1 182
1 183
1 184
1 185
1 186
1 187
1 188
1 189
1 190
1 191
1 192
1 193
1 194
1 195
1 196
1 197
1 198
1 199
1 200
1 201
1 202
1 203
1 204
1 205
1 206
1 207
1 208
1 209
1 210
1 211
1 212
1 213
1 214
1 215
1 216
1 217
1 218
1 219
1 220
1 221
1 222
1 223
1 224
1 225
1 226
1 227
1 228
1 229
1 230
1 231
1 232
1 233
1 234
1 235
1 236
1 237
1 238
1 239
1 240
1 241
1 242
1 243
1 244
1 245
1 246
1 247
1 248
1 249
1 250
1 251
1 252
1 253
1 254
1 255
1 256
1 257
1 258
1 259
1 260
1 261
1 262
1 263
1 264
1 265
1 266
1 267
1 268
1 269
1 270
1 271
1 272
1 273
1 274
1 275
1 276
1 277
1 278
1 279
1 280
1 281
1 282

POINT_DATA 283
SCALARS id int 1
LOOKUP_TABLE default
1
2
3
4
5
6
7
8
9
10
11
12
13
14
15
16
18
19
20
21
22
24
25
26
27
29
30
31
32
33
34
35
36
37
38
40
41
42
43
44
45
46
47
48
49
50
52
55
56
57
58
59
60
61
62
63
64
65
66
67
68
69
70
71
72
73
74
75
76
77
78
79
80
81
82
83
84
85
86
87
88
89
90
91
92
93
94
95
96
98
99
100
101
102
103
104
105
106
107
108
109
110
111
112
113
114
115
116
117
118
119
120
121
122
123
124
125
126
127
128
129
130
131
132
133
134
135
136
137
138
139
140
141
142
144
145
146
147
148
149
150
152
153
154
155
156
157
158
159
160
161
162
164
165
166
167
168
169
170
171
172
173
174
175
176
177
178
179
180
181
182
183
184
185
186
187
188
189
190
191
192
193
194
195
196
197
198
199
200
201
202
203
204
205
206
207
208
209
210
211
213
214
215
217
218
219
220
221
222
223
224
225
226
227
228
229
230
231
232
233
234
235
236
237
238
239
241
242
243
244
245
246
247
248
249
250
251
252
253
254
255
256
257
258
259
260
261
262
263
264
265
267
268
269
270
271
272
273
274
275
276
277
278
279
280
281
282
283
284
285
286
287
288
289
290
292
293
294
295
296
297
298
300

SCALARS type int 1
LOOKUP_TABLE default
1
1
1
1
1
1
1
1
1
1
1
1
1
1
1
1
1
1
1
1
1
1
1
1
1
1
1
1
1
1
1
1
1
1
1
1
1
1
1
1
1
1
1
1
1
1
1
1
1
1
1
1
1
1
1
1
1
1
1
1
1
1
1
1
1
1
1
1
1
1
1
1
1
1
1
1
1
1
1
1
1
1
1
1
1
1
1
1
1
1
1
1
1
1
1
1
1
1
1
1
1
1
1
1
1
1
1
1
1
1
1
1
1
1
1
1
1
1
1
1
1
1
1
1
1
1
1
1
1
1
1
1
1
1
1
1
1
1
1
1
1
1
1
1
1
1
1
1
1
1
1
1
1
1
1
1
1
1
1
1
1
1
1
1
1
1
1
1
1
1
1
1
1
1
1
1
1
1
1
1
1
1
1
1
1
1
1
1
1
1
1
1
1
1
1
1
1
1
1
1
1
1
1
1
1
1
1
1
1
1
1
1
1
1
1
1
1
1
1
1
1
1
1
1
1
1
1
1
1
1
1
1
1
1
1
1
1
1
1
1
1
1
1
1
1
1
1
1
1
1
1
1
1
1
1
1
1
1
1
1
1
1
1
1
1
1
1
1
1
1
1
1
1
1
1
1
1
1
1
1
1
1
1

SCALARS radius float 1
LOOKUP_TABLE default
5e-05
5e-05
5e-05
5e-05
5e-05
5e-05
5e-05
5e-05
5e-05
5e-05
5e-05
5e-05
5e-05
5e-05
5e-05
5e-05
5e-05
5e-05
5e-05
5e-05
5e-05
5e-05
5e-05
5e-05
5e-05
5e-05
5e-05
5e-05
5e-05
5e-05
5e-05
5e-05
5e-05
5e-05
5e-05
5e-05
5e-05
5e-05
5e-05
5e-05
5e-05
5e-05
5e-05
5e-05
5e-05
5e-05
5e-05
5e-05
5e-05
5e-05
5e-05
5e-05
5e-05
5e-05
5e-05
5e-05
5e-05
5e-05
5e-05
5e-05
5e-05
5e-05
5e-05
5e-05
5e-05
5e-05
5e-05
5e-05
5e-05
5e-05
5e-05
5e-05
5e-05
5e-05
5e-05
5e-05
5e-05
5e-05
5e-05
5e-05
5e-05
5e-05
5e-05
5e-05
5e-05
5e-05
5e-05
5e-05
5e-05
5e-05
5e-05
5e-05
5e-05
5e-05
5e-05
5e-05
5e-05
5e-05
5e-05
5e-05
5e-05
5e-05
5e-05
5e-05
5e-05
5e-05
5e-05
5e-05
5e-05
5e-05
5e-05
5e-05
5e-05
5e-05
5e-05
5e-05
5e-05
5e-05
5e-05
5e-05
5e-05
5e-05
5e-05
5e-05
5e-05
5e-05
5e-05
5e-05
5e-05
5e-05
5e-05
5e-05
5e-05
5e-05
5e-05
5e-05
5e-05
5e-05
5e-05
5e-05
5e-05
5e-05
5e-05
5e-05
5e-05
5e-05
5e-05
5e-05
5e-05
5e-05
5e-05
5e-05
5e-05
5e-05
5e-05
5e-05
5e-05
5e-05
5e-05
5e-05
5e-05
5e-05
5e-05
5e-05
5e-05
5e-05
5e-05
5e-05
5e-05
5e-05
5e-05
5e-05
5e-05
5e-05
5e-05
5e-05
5e-05
5e-05
5e-05
5e-05
5e-05
5e-05
5e-05
5e-05
5e-05
5e-05
5e-05
5e-05
5e-05
5e-05
5e-05
5e-05
5e-05
5e-05
5e-05
5e-05
5e-05
5e-05
5e-05
5e-05
5e-05
5e-05
5e-05
5e-05
5e-05
5e-05
5e-05
5e-05
5e-05
5e-05
5e-05
5e-05
5e-05
5e-05
5e-05
5e-05
5e-05
5e-05
5e-05
5e-05
5e-05
5e-05
5e-05
5e-05
5e-05
5e-05
5e-05
5e-05
5e-05
5e-05
5e-05
5e-05
5e-05
5e-05
5e-05
5e-05
5e-05
5e-05
5e-05
5e-05
5e-05
5e-05
5e-05
5e-05
5e-05
5e-05
5e-05
5e-05
5e-05
5e-05
5e-05
5e-05
5e-05
5e-05
5e-05
5e-05
5e-05
5e-05
5e-05
5e-05
5e-05
5e-05
5e-05
5e-05
5e-05
5e-05
5e-05
5e-05
5e-05
5e-05
5e-05
5e-05
5e-05
5e-05
5e-05
5e-05
5e-05
5e-05
5e-05
5e-05
5e-05
5e-05
5e-05

SCALARS mass float 1
LOOKUP_TABLE default
1.46608e-10
1.46608e-10
1.46608e-10
1.46608e-10
1.46608e-10
1.46608e-10
1.46608e-10
1.46608e-10
1.46608e-10
1.46608e-10
1.46608e-10
1.46608e-10
1.46608e-10
1.46608e-10
1.46608e-10
1.46608e-10
1.46608e-10
1.46608e-10
1.46608e-10
1.46608e-10
1.46608e-10
1.46608e-10
1.46608e-10
1.46608e-10
1.46608e-10
1.46608e-10
1.46608e-10
1.46608e-10
1.46608e-10
1.46608e-10
1.46608e-10
1.46608e-10
1.46608e-10
1.46608e-10
1.46608e-10
1.46608e-10
1.46608e-10
1.46608e-10
1.46608e-10
1.46608e-10
1.46608e-10
1.46608e-10
1.46608e-10
1.46608e-10
1.46608e-10
1.46608e-10
1.46608e-10
1.46608e-10
1.46608e-10
1.46608e-10
1.46608e-10
1.46608e-10
1.46608e-10
1.46608e-10
1.46608e-10
1.46608e-10
1.46608e-10
1.46608e-10
1.46608e-10
1.46608e-10
1.46608e-10
1.46608e-10
1.46608e-10
1.46608e-10
1.46608e-10
1.46608e-10
1.46608e-10
1.46608e-10
1.46608e-10
1.46608e-10
1.46608e-10
1.46608e-10
1.46608e-10
1.46608e-10
1.46608e-10
1.46608e-10
1.46608e-10
1.46608e-10
1.46608e-10
1.46608e-10
1.46608e-10
1.46608e-10
1.46608e-10
1.46608e-10
1.46608e-10
1.46608e-10
1.46608e-10
1.46608e-10
1.46608e-10
1.46608e-10
1.46608e-10
1.46608e-10
1.46608e-10
1.46608e-10
1.46608e-10
1.46608e-10
1.46608e-10
1.46608e-10
1.46608e-10
1.46608e-10
1.46608e-10
1.46608e-10
1.46608e-10
1.46608e-10
1.46608e-10
1.46608e-10
1.46608e-10
1.46608e-10
1.46608e-10
1.46608e-10
1.46608e-10
1.46608e-10
1.46608e-10
1.46608e-10
1.46608e-10
1.46608e-10
1.46608e-10
1.46608e-10
1.46608e-10
1.46608e-10
1.46608e-10
1.46608e-10
1.46608e-10
1.46608e-10
1.46608e-10
1.46608e-10
1.46608e-10
1.46608e-10
1.46608e-10
1.46608e-10
1.46608e-10
1.46608e-10
1.46608e-10
1.46608e-10
1.46608e-10
1.46608e-10
1.46608e-10
1.46608e-10
1.46608e-10
1.46608e-10
1.46608e-10
1.46608e-10
1.46608e-10
1.46608e-10
1.46608e-10
1.46608e-10
1.46608e-10
1.46608e-10
1.46608e-10
1.46608e-10
1.46608e-10
1.46608e-10
1.46608e-10
1.46608e-10
1.46608e-10
1.46608e-10
1.46608e-10
1.46608e-10
1.46608e-10
1.46608e-10
1.46608e-10
1.46608e-10
1.46608e-10
1.46608e-10
1.46608e-10
1.46608e-10
1.46608e-10
1.46608e-10
1.46608e-10
1.46608e-10
1.46608e-10
1.46608e-10
1.46608e-10
1.46608e-10
1.46608e-10
1.46608e-10
1.46608e-10
1.46608e-10
1.46608e-10
1.46608e-10
1.46608e-10
1.46608e-10
1.46608e-10
1.46608e-10
1.46608e-10
1.46608e-10
1.46608e-10
1.46608e-10
1.46608e-10
1.46608e-10
1.46608e-10
1.46608e-10
1.46608e-10
1.46608e-10
1.46608e-10
1.46608e-10
1.46608e-10
1.46608e-10
1.46608e-10
1.46608e-10
1.46608e-10
1.46608e-10
1.46608e-10
1.46608e-10
1.46608e-10
1.46608e-10
1.46608e-10
1.46608e-10
1.46608e-10
1.46608e-10
1.46608e-10
1.46608e-10
1.46608e-10
1.46608e-10
1.46608e-10
1.46608e-10
1.46608e-10
1.46608e-10
1.46608e-10
1.46608e-10
1.46608e-10
1.46608e-10
1.46608e-10
1.46608e-10
1.46608e-10
1.46608e-10
1.46608e-10
1.46608e-10
1.46608e-10
1.46608e-10
1.46608e-10
1.46608e-10
1.46608e-10
1.46608e-10
1.46608e-10
1.46608e-10
1.46608e-10
1.46608e-10
1.46608e-10
1.46608e-10
1.46608e-10
1.46608e-10
1.46608e-10
1.46608e-10
1.46608e-10
1.46608e-10
1.46608e-10
1.46608e-10
1.46608e-10
1.46608e-10
1.46608e-10
1.46608e-10
1.46608e-10
1.46608e-10
1.46608e-10
1.46608e-10
1.46608e-10
1.46608e-10
1.46608e-10
1.46608e-10
1.46608e-10
1.46608e-10
1.46608e-10
1.46608e-10
1.46608e-10
1.46608e-10
1.46608e-10
1.46608e-10
1.46608e-10
1.46608e-10
1.46608e-10
1.46608e-10
1.46608e-10
1.46608e-10
1.46608e-10
1.46608e-10
1.46608e-10
1.46608e-10
1.46608e-10
1.46608e-10
1.46608e-10
1.46608e-10
1.46608e-10

VECTORS velocity float
0.00442851 4.10123e-05 0.000121912
0.00457102 -0.000102995 8.38269e-05
0.0044176 -5.79943e-05 8.17491e-05
0.0044098 -6.37407e-05 8.34376e-05
0.00430574 -0.000204115 2.96923e-05
0.00486576 0.000123447 0.000526261
0.00439185 -0.000209331 3.53848e-05
0.00428404 -0.000201854 2.80943e-05
0.00439812 -3.98985e-05 0.000120555
0.00452252 -0.000104587 -7.07091e-05
0.00490023 -7.90719e-05 0.000223742
0.0048342 -0.000124508 0.000158541
0.00452483 -2.78915e-05 7.36082e-05
0.00427564 3.86526e-05 -0.000126904
0.00452204 3.80193e-05 6.06415e-05
0.0047264 1.68034e-06 -0.000101261
0.00437316 -3.20795e-05 0.000117743
0.00457029 -6.73233e-05 8.27059e-05
0.00447148 -0.000119645 -6.94814e-05
0.00433227 -0.000206138 3.12649e-05
0.00444363 -8.4691e-05 -1.3837e-05
0.00486296 -0.000127644 0.000160047
0.00453386 -6.80218e-05 8.31965e-05
0.00490403 -0.000128391 0.000160646
0.00463766 -7.18782e-06 -8.68228e-05
0.00454508 -4.4613e-05 7.01513e-05
0.00481589 0.000118065 0.000524054
0.00441869 -0.00012357 -6.08643e-05
0.00453946 -9.29417e-05 8.71397e-05
0.00490228 0.000127595 0.000527474
0.00460182 -8.44082e-05 8.92387e-05
0.00447704 -6.8876e-05 7.09011e-05
0.0045098 -5.56473e-05 0.000130307
0.00438703 -0.000203127 1.38486e-05
0.00458388 -7.82959e-05 8.43301e-05
0.00482915 -9.80462e-05 0.000230306
0.00450422 -6.21052e-05 5.72036e-05
0.00447415 -0.000103104 -4.24026e-05
0.00444369 -7.48741e-05 8.34333e-05
0.00455246 -6.28609e-05 7.8252e-05
0.00492239 -8.23354e-05 0.000254306
0.0048906 -0.000126284 0.000160857
0.00438379 -0.000216106 4.37062e-05
0.00445874 -0.000105796 -4.03364e-05
0.00491308 -0.000133532 0.000159697
0.00457271 -8.05693e-05 8.52537e-05
0.00441027 7.69439e-05 0.000124498
0.00451645 -5.14927e-06 -0.000183053
0.00448163 -9.25347e-05 -7.00528e-05
0.00492878 -0.000137424 0.000171656
0.00494503 -4.0879e-05 -5.33681e-05
0.00485021 -0.000126861 0.000159302
0.00443892 -0.000121014 8.3062e-05
0.00434654 -0.000211976 3.71901e-05
0.00489895 -8.75219e-05 0.000224164
0.00457229 -9.93271e-05 8.99278e-05
0.00487559 -0.000127201 0.000160305
0.00445873 -5.83678e-05 0.000145332
0.00449199 0.000131428 0.000122717
0.00448108 -3.70098e-05 -9.68644e-05
0.00481468 4.42498e-05 -0.00014555
0.00494108 -0.000177425 -0.000237633
0.00453637 -6.89125e-05 0.00013249
0.00494886 -0.000126886 -0.000166446
0.00482704 -0.000122099 0.00015731
0.00475666 -9.16731e-05 0.000224428
0.00492201 -0.000113209 0.000138351
0.0045124 -5.71126e-06 7.03124e-05
0.00454007 -7.61934e-05 0.000134442
0.00438241 -0.000106936 -6.53457e-05
0.00437249 1.70997e-05 -0.000106236
0.00468246 -5.25405e-06 -8.9713e-05
0.0045279 -5.61273e-05 8.03394e-05
0.00440555 0.000126814 0.000121754
0.00480053 -9.96207e-05 -0.000133768
0.00447537 3.1137e-06 -9.40216e-05
0.00446957 -5.26969e-05 0.000126264
0.00493324 -5.4752e-05 -7.36806e-05
0.00442368 -7.05892e-05 8.53868e-05
0.00443269 -4.48263e-05 0.000123115
0.00490579 -8.74676e-05 0.000222933
0.00455575 -7.53326e-05 8.43438e-05
0.00491447 -9.45265e-05 0.000189989
0.00458537 -4.72605e-05 0.000189338
0.00459068 5.29629e-05 -0.000126587
0.00451392 -6.73013e-05 5.89012e-05
0.00487179 -0.00021447 1.85459e-05
0.00442438 -5.94202e-05 7.73623e-05
0.00446913 -8.43454e-05 -5.15308e-05
0.00448164 -8.08711e-05 1.03871e-05
0.00494738 -0.000138563 -0.000154584
0.00459845 -7.88914e-05 8.79258e-05
0.00451084 3.24375e-06 -0.000184406
0.00457231 -8.68808e-05 8.57365e-05
0.00448403 -0.000106474 -4.04528e-05
0.00472964 9.57781e-06 -0.000128938
0.00449375 4.6711e-05 -0.000198122
0.00484461 -8.07818e-05 0.000219151
0.0043072 3.19979e-05 -0.000121035
0.00453535 -1.95251e-05 7.23554e-05
0.00457945 -9.58315e-05 9.073e-05
0.00446819 -0.00010461 -6.21822e-05
0.00440061 -0.00119437 -0.000955439
0.00471282 2.2454e-06 -9.74889e-05
0.0045281 -0.000104763 -7.33131e-05
0.00476928 -7.30965e-05 -0.000215982
0.00456197 -5.02365e-05 7.92599e-05
0.00454087 -9.67878e-05 0.000113222
0.00487871 -8.65263e-05 0.000221766
0.00451873 0.000168244 0.000122042
0.00476998 0.000112825 0.000522316
0.00447851 -8.87248e-05 -4.44657e-05
0.00496827 -6.51942e-05 0.000213685
0.00494068 -0.000167739 1.79074e-05
0.00442212 7.77472e-05 0.000123437
0.00446629 -7.76482e-05 -8.26784e-05
0.0044829 -6.02433e-05 8.29354e-05
0.0048718 -9.9853e-05 0.000230743
0.00454062 5.56453e-06 -9.7803e-05
0.00453651 -3.52424e-05 -8.87818e-05
0.00460355 -4.91574e-06 -8.8124e-05
0.00438989 -0.000231378 4.61869e-05
0.00440189 8.036e-05 0.00012424
0.00448348 3.26043e-05 -0.000111453
0.0044948 -3.14769e-05 -8.67452e-05
0.00453277 -6.98807e-05 8.17268e-05
0.00493331 -0.000116724 0.000153916
0.00451952 3.86201e-05 -5.10089e-05
0.00488574 -4.41146e-05 0.00023032
0.00440888 -0.000104236 -3.72264e-05
0.00492373 -8.45267e-05 0.000225261
0.00450202 -7.31801e-05 -7.85432e-05
0.00448308 1.25604e-05 -0.000189222
0.00438096 -0.000216042 3.70752e-05
0.00451206 -5.67838e-05 7.40485e-05
0.00449203 -0.000102547 -3.77652e-05
0.00490899 -6.55661e-05 0.000215043
0.00430998 2.83681e-05 -0.000117047
0.00442802 -0.000109591 8.78225e-05
0.00492573 4.09064e-05 0.00013801
0.00474362 -6.83446e-05 0.000205532
0.00464665 -4.58694e-05 -0.000173795
0.00452895 -9.02326e-05 -6.45807e-05
0.00465436 1.11908e-05 -0.000104887
0.00472922 1.65819e-07 -9.54785e-05
0.00440443 8.39936e-05 0.000127232
0.0044201 -9.07926e-05 8.40967e-05
0.00445546 8.70307e-05 -0.000210754
0.00444434 -0.000126009 -2.92249e-05
0.00456958 -4.18937e-05 -0.000172906
0.00494272 -0.000115091 0.000148052
0.00450021 8.19181e-05 -0.000206475
0.00444206 -8.29737e-05 -5.48171e-05
0.00434853 9.94699e-05 0.00011736
0.00495594 -7.16885e-05 0.000214902
0.00486059 -6.65571e-05 -0.000109281
0.00455784 -8.22817e-05 8.42122e-05
0.00449547 2.30234e-05 -0.000179019
0.00458409 -4.76254e-05 -0.000173906
0.00445627 -7.65654e-05 8.89259e-05
0.00446665 8.46189e-06 -0.000180872
0.00457748 -7.82683e-05 8.60161e-05
0.00460556 -3.31981e-05 -0.000177291
0.00452262 -2.86595e-05 -0.000175077
0.00470932 1.23615e-05 -0.000106936
0.00438246 7.81317e-05 0.000120483
0.00465454 -4.6961e-05 -0.000174323
0.00492476 -0.000110044 -0.000168394
0.0044487 -0.000104509 -6.93448e-05
0.00438532 9.19921e-05 0.000121898
0.00451025 -7.40914e-05 4.5427e-06
0.00451778 0.000155966 0.000122727
0.00446474 -6.54888e-05 7.78026e-05
0.00494553 -0.000114625 -0.000149809
0.00484668 -5.87922e-05 -0.000180704
0.00452685 -6.87972e-05 0.000134662
0.00485029 -4.72695e-05 0.000191532
0.00447772 0.000205362 1.21523e-05
0.00479636 -4.57652e-07 -9.26132e-05
0.00452077 3.10238e-05 -0.00011142
0.00461653 -8.63264e-05 -0.000159716
0.00440257 -5.84504e-05 8.73414e-05
0.00439172 -0.000228547 5.4507e-05
0.00450802 -7.80741e-06 -0.000182091
0.00472719 -0.000198598 -0.000128503
0.00486482 -8.57201e-05 0.00022201
0.00439341 8.33967e-05 0.000125177
0.00451468 -4.35826e-06 -0.00017274
0.00459246 3.44871e-06 -9.76223e-05
0.00463305 -9.84205e-05 -0.000155604
0.0045199 9.86869e-06 -0.000174223
0.00456907 -9.87504e-05 8.87605e-05
0.00459052 -2.92637e-05 -0.000176891
0.00488815 -9.6056e-05 -0.000149348
0.00463843 -4.25589e-05 -0.000175287
0.00477458 3.66449e-05 -0.000133025
0.0043897 7.50943e-05 0.000122877
0.0046238 4.25066e-06 -9.95254e-05
0.00441731 -5.27616e-05 8.34151e-05
0.00486572 -5.73992e-05 0.000206863
0.00442318 -5.33497e-05 0.000125247
0.00493373 -0.000151438 5.8798e-05
0.00484623 -2.42649e-05 -7.52711e-05
0.00490124 -3.67151e-05 0.000250376
0.00436327 -0.000140267 3.41249e-05
0.00444126 -0.000382201 -0.000241308
0.0045191 -8.90516e-05 -7.43933e-05
0.00474689 6.20763e-06 -0.000102083
0.00445422 -1.50236e-05 7.17839e-05
0.00478121 -3.8806e-06 -9.2637e-05
0.00452533 8.56336e-07 -9.30095e-05
0.00439674 -4.03346e-05 0.000121802
0.00447823 -2.0619e-05 -0.000176936
0.0045253 1.43621e-05 -0.000190231
0.00495111 -0.000129478 -0.000156401
0.00460184 -2.21453e-05 -0.000180126
0.00452129 -1.43195e-05 -0.000177596
0.00486137 -1.4673e-05 -7.88369e-05
0.00464505 5.33788e-06 -0.00019101
0.00445486 -0.000101987 -3.94697e-05
0.00457127 -7.11063e-05 8.10474e-05
0.00452289 -1.00603e-05 -0.00017831
0.00494717 -0.000104557 -0.000141557
0.00453199 -4.62763e-06 -0.000182607
0.00498069 -9.22279e-05 -0.00017613
0.00466153 -0.000375538 0.000137606
0.00456587 -5.35701e-05 -0.000178495
0.00493837 -0.000111591 -0.000160921
0.00463818 -0.000379576 0.000141196
0.00470213 -0.000370818 0.00013408
0.00457874 -4.36516e-05 -0.000175065
0.0037941 -0.000219301 3.66139e-05
0.00451867 -8.2838e-05 8.18126e-05
0.00453881 -6.48858e-05 -5.56233e-05
0.00486564 -3.86115e-05 -9.85369e-05
0.00437958 -0.000222818 4.85281e-05
6.80583e-15 2.29908e-14 -7.0324e-14
0.00437322 -0.000309879 9.27711e-05
0.0045155 0.000136393 0.000128927
0.0046159 -1.04509e-05 -0.000184398
0.00483152 -1.5839e-05 -8.50085e-05
0.00451139 -3.8975e-06 -0.000181065
0.0045985 -6.81861e-05 -0.000164871
0.00457834 -4.30976e-05 -0.000173589
0.00449966 9.89806e-06 -0.000155473
0.00445423 -7.6207e-05 8.64243e-05
0.00455447 -2.63211e-05 -0.000177729
0.00458737 -3.47696e-05 -0.000175511
0.00416291 -0.000273561 8.56994e-05
0.00450107 -2.46272e-05 -0.000175771
0.00483576 -1.03421e-05 -8.58088e-05
0.00443945 1.97067e-05 0.000132484
0.0044004 8.54198e-05 0.000120004
0.00448387 1.7527e-05 -0.000156799
0.00449935 0.000226252 0.000119736
0.00447802 1.46067e-05 -0.000192851
0.0044874 3.60431e-05 -0.000180076
0.0044897 -3.14639e-06 -0.000178266
0.00450748 -3.89653e-06 -0.00017555
0.00452736 1.08676e-05 -0.000177612
0.00447659 4.93556e-06 -0.000207179
0.0046094 -4.45233e-05 -0.000170614
0.00456347 -3.57105e-06 8.58808e-05
-1.29035e-14 6.08966e-14 -1.90217e-13
0.00435943 -0.000296896 0.000101793
0.00441478 7.80922e-05 0.000123685
0.00436386 -0.000296691 0.000100041
0.00375638 -0.000213832 3.12415e-05
0.00463811 -1.21664e-05 -0.00018382
0.00495507 -0.000112852 -0.0001539
0.00446528 1.29169e-05 -0.0001851
0.00444871 -0.000117691 -8.04218e-05
0.00458046 -5.00299e-05 -0.000171026
0.00451028 5.92951e-06 -0.000187801
0.00457233 -3.72593e-05 -0.000173797
0.00455596 8.77771e-05 0.000124292
0.00451007 -9.40717e-05 -7.05875e-05
0.004808 -8.34686e-05 -0.0001616
0.00496135 -0.000135573 -0.000158789
0.00493781 -0.000172292 -1.34775e-05
0.00457729 -8.5361e-05 8.95719e-05
0.00448184 0.000105219 0.000122664
0.00442634 -6.19595e-05 7.74433e-05

VECTORS force float
3.72199e-11 -2.39229e-11 1.21319e-11
-1.93646e-11 1.31255e-10 -1.96463e-11
5.96646e-12 8.01788e-11 -1.21127e-11
1.03468e-10 9.91272e-11 -1.23715e-11
2.49531e-11 -1.64661e-10 2.15512e-10
-4.09247e-11 3.30516e-12 -4.36726e-11
1.60502e-10 -1.76661e-10 2.17989e-10
1.8354e-10 -1.007e-10 1.35542e-10
-4.46532e-10 4.48616e-11 -2.72908e-11
1.35066e-10 -4.52637e-10 5.7021e-11
8.78883e-11 3.3596e-11 7.13875e-12
4.48913e-12 1.40631e-11 -4.2597e-12
2.96447e-10 -3.34982e-10 7.76332e-11
-1.92535e-10 -7.14247e-11 9.23576e-11
3.12068e-10 -1.04685e-09 2.26826e-10
1.39536e-10 5.96083e-11 -5.22865e-11
-1.54383e-10 -7.6861e-11 1.088e-11
1.2896e-11 8.50878e-11 -2.95156e-11
-6.76094e-11 -7.99198e-11 -3.1301e-12
-2.84443e-10 -1.60522e-10 2.26152e-10
2.03547e-11 -1.21954e-11 -1.92821e-10
2.63493e-11 1.49769e-10 -4.2273e-11
1.92434e-10 -2.73224e-11 -1.67578e-11
-6.75875e-11 9.7507e-11 -4.9002e-11
1.06421e-10 1.70938e-10 -1.79681e-10
-1.42619e-10 -2.27082e-10 -2.69932e-11
-9.83826e-11 -5.6396e-11 -2.89606e-11
-4.06843e-12 1.49973e-10 1.97802e-10
2.55218e-10 -1.0149e-10 -4.71976e-12
-6.7932e-11 -5.48254e-12 -1.12097e-11
-5.54873e-11 -1.24643e-10 1.97751e-11
6.25247e-10 4.12491e-10 -6.69739e-11
-1.76679e-10 7.22654e-11 -1.94662e-11
-2.50794e-11 -2.69889e-10 1.13193e-10
1.81856e-10 -7.24499e-11 1.68438e-11
-5.84764e-11 7.68756e-11 -6.4862e-11
-3.61697e-11 -1.00759e-10 1.45821e-10
-5.27084e-11 1.25858e-10 -8.23188e-11
-6.7965e-11 1.63695e-10 -1.17867e-10
-5.04506e-11 -1.31178e-10 -5.39175e-11
9.51223e-12 -1.18239e-10 -2.17094e-10
6.00302e-11 1.38313e-10 -4.1802e-11
5.52347e-11 -2.41651e-10 2.7238e-10
-1.02092e-10 -1.52167e-10 1.56159e-10
-2.03171e-10 1.52121e-10 -2.85709e-12
1.55593e-10 -7.71498e-11 1.18967e-12
9.81235e-11 -2.33674e-11 3.23417e-11
4.83706e-11 9.77848e-11 -4.5991e-11
1.98761e-10 -9.64772e-11 -1.44395e-10
2.11667e-11 1.12896e-10 4.94274e-12
5.72795e-11 3.92612e-11 2.27559e-10
2.50384e-11 9.20988e-11 -3.25348e-11
5.06858e-10 -3.15162e-10 -3.63562e-11
-5.42057e-11 -2.08013e-10 2.59068e-10
1.13933e-10 8.49476e-11 -5.57345e-11
8.85659e-11 3.06527e-11 -1.15244e-11
5.29107e-11 1.67563e-10 -5.16735e-11
-2.07031e-10 1.06871e-11 2.684e-10
-9.6387e-11 -3.05955e-11 -3.72545e-12
5.639e-10 -1.42511e-10 -2.04707e-12
-1.3088e-10 -2.74348e-10 2.71757e-10
-8.288e-10 -5.8401e-10 8.4482e-11
-6.40855e-12 -5.71894e-11 1.03768e-11
-8.7765e-11 -4.90607e-11 1.07041e-10
-1.86108e-11 3.92895e-12 -3.89199e-12
-1.08958e-10 1.19742e-10 -8.4123e-11
-6.08462e-11 -7.80328e-11 1.96195e-11
2.61842e-10 4.49113e-11 5.41734e-12
6.50823e-11 -9.82172e-11 4.20474e-11
1.88949e-11 6.35421e-10 -1.7449e-10
-1.79543e-10 -1.79055e-11 1.59714e-11
-4.12828e-11 2.63114e-11 -2.51937e-11
-7.16721e-11 -8.35203e-11 3.13311e-11
-1.64031e-10 -7.15547e-11 -3.64233e-13
6.7109e-11 9.13015e-11 -8.26234e-11
-2.73901e-11 -2.44094e-13 4.62801e-12
-1.02724e-10 -5.84047e-11 -1.37642e-11
-1.55632e-12 -1.60003e-10 6.22306e-11
4.69353e-11 6.5111e-11 -1.43002e-12
-9.64109e-11 -3.85066e-11 2.99776e-12
5.67986e-11 5.30623e-11 -3.709e-11
-1.22556e-10 -9.33091e-11 4.71522e-11
2.3522e-11 2.09224e-11 7.36702e-12
-3.07126e-11 -4.21984e-11 1.00614e-10
-1.87669e-11 4.05546e-10 -2.60556e-10
-9.64099e-12 -1.53971e-10 -1.8628e-10
2.74586e-10 -8.81194e-11 -4.25075e-10
3.67211e-10 1.02336e-11 7.62228e-11
1.46976e-10 6.34459e-12 5.99759e-11
2.36285e-11 -1.24209e-10 9.78199e-11
1.58946e-11 9.71909e-11 9.23525e-12
1.77927e-11 -8.91905e-11 9.7003e-12
-3.99612e-11 3.13434e-10 -1.11825e-10
7.53677e-11 -2.98389e-11 -2.66381e-12
1.2273e-10 -9.07112e-11 9.58609e-11
7.12033e-11 -2.24421e-10 3.9595e-10
2.34945e-11 -8.49218e-12 1.5145e-11
-3.49265e-11 5.59954e-11 -8.65234e-12
-2.88976e-11 -3.10103e-11 3.31865e-11
1.74017e-10 -2.75957e-10 6.06589e-11
4.749e-11 7.93602e-11 -1.8061e-11
1.40667e-10 7.83466e-11 1.13837e-10
-4.73633e-11 -6.48745e-10 -5.3081e-10
3.57199e-11 4.88692e-11 -6.57364e-11
2.46835e-10 1.97905e-10 -5.89634e-11
1.17618e-10 1.37446e-10 6.03693e-10
-5.48248e-11 -1.11025e-10 -5.92419e-11
1.35338e-11 1.6481e-10 -6.21695e-12
9.6625e-12 4.39702e-11 -2.72876e-11
-4.88197e-11 2.20502e-10 1.37502e-11
-2.18365e-11 -6.43749e-11 3.64274e-11
1.53391e-10 1.11373e-10 3.64577e-10
-2.5304e-11 -4.37161e-11 3.05649e-11
1.12365e-10 8.09455e-11 6.96873e-11
-3.09815e-11 -5.7189e-11 5.3226e-12
3.10056e-10 -2.65091e-10 -2.54774e-11
3.17317e-10 -2.38349e-10 1.25084e-10
-1.17169e-11 4.3664e-11 -9.66525e-12
-2.99021e-11 8.75845e-11 -9.16762e-11
1.70922e-10 8.88203e-11 -3.60025e-11
1.04706e-10 1.98887e-10 -2.06844e-10
7.13815e-11 -7.11082e-11 5.15593e-11
-8.25577e-11 -1.49467e-11 -4.36883e-12
2.58379e-11 1.12208e-10 -5.85506e-11
-1.59819e-10 2.41785e-10 -1.75308e-10
-1.17099e-11 -1.25721e-10 -5.59356e-11
7.58223e-11 -9.67434e-11 -1.69676e-10
1.87582e-11 4.68225e-12 -4.75691e-10
-5.03313e-11 9.73602e-12 -4.50384e-11
-1.63588e-10 4.08997e-11 -2.07356e-10
5.95015e-11 1.20373e-11 -9.52596e-12
-2.52029e-10 -3.75225e-11 1.3769e-11
-2.55736e-10 2.74457e-10 -1.03073e-10
1.58191e-10 -2.33309e-10 2.65779e-10
-1.32098e-11 -7.43548e-11 -9.11048e-11
1.08529e-10 -2.43713e-10 5.76816e-11
1.01036e-10 -5.03252e-11 -1.53063e-11
1.90244e-11 -2.02031e-11 1.38621e-11
2.58612e-11 -2.42618e-10 6.9841e-11
-3.60391e-10 4.16678e-10 -3.83734e-10
-1.33909e-11 -9.19005e-12 3.21442e-13
9.52595e-12 1.63868e-11 -5.03649e-12
5.2803e-10 -6.27178e-10 8.1238e-11
-1.92692e-10 2.1412e-11 -3.6769e-11
-5.97935e-11 -4.28636e-11 4.98135e-11
-6.59046e-11 -2.48516e-10 -5.25323e-11
2.76089e-10 4.72662e-11 -1.14254e-11
-3.60487e-10 3.16948e-10 -6.28621e-11
2.29093e-10 -1.71204e-12 -2.17526e-11
9.18278e-11 4.65078e-11 -1.60218e-11
1.40359e-10 9.58707e-14 -3.94134e-11
-7.3465e-12 5.00652e-11 -8.03173e-12
-6.84113e-11 1.379e-11 1.09325e-10
-1.08737e-10 3.81598e-11 4.59136e-11
8.91124e-11 3.21752e-11 -1.40279e-10
-4.12441e-11 -1.13607e-10 2.11571e-10
3.04858e-10 -6.84608e-12 -4.33368e-12
-8.30959e-11 1.16806e-10 2.16396e-10
-8.07761e-12 -2.88751e-11 2.93765e-11
-6.05122e-11 -2.06594e-10 3.01338e-11
1.81368e-10 1.83355e-10 -2.6512e-11
3.83154e-11 -6.02412e-11 2.81258e-11
-9.27838e-11 -1.06921e-10 3.88729e-11
-9.87691e-12 -5.98917e-12 -7.10463e-12
-4.62858e-11 1.66173e-10 -1.18755e-10
-8.67557e-11 6.15775e-11 4.98524e-11
-4.67231e-11 -1.63724e-11 9.05264e-12
8.81832e-11 1.4212e-11 4.01411e-11
-1.68222e-10 3.51426e-10 -6.28052e-11
-4.35616e-11 1.89007e-10 2.36374e-11
8.60547e-11 1.05057e-10 6.60221e-12
-3.91428e-11 -7.07014e-11 2.11321e-11
3.76908e-10 -5.49401e-11 -7.75038e-12
1.73314e-11 6.65787e-11 2.16627e-10
2.75679e-10 -1.08196e-10 8.2354e-12
1.43908e-10 6.18263e-11 2.51684e-11
-5.59446e-11 4.04795e-12 1.20735e-11
-3.1227e-11 7.68727e-11 -4.97652e-11
2.55003e-11 -1.58738e-10 5.77376e-11
2.48497e-11 1.11088e-10 -5.80514e-11
-8.31732e-11 -1.6684e-10 6.32257e-11
3.37396e-10 -2.84972e-10 6.04518e-11
5.8319e-11 -8.17666e-11 1.16168e-10
-7.93198e-12 1.4549e-11 -4.50222e-11
2.98609e-10 -1.24612e-10 3.21755e-11
2.99638e-11 4.98284e-11 -4.10319e-11
1.23008e-10 -3.51126e-11 5.94185e-11
2.03229e-12 -1.03842e-12 -1.1561e-10
2.56687e-10 3.70075e-11 -5.40991e-11
-3.93828e-11 -1.59729e-10 5.57667e-11
-2.67686e-11 1.09663e-10 1.14451e-10
3.14078e-10 -2.61838e-11 1.5072e-11
-4.74278e-12 -4.9896e-11 -5.13159e-11
-2.3983e-10 -1.01888e-11 1.78088e-10
1.165e-11 -8.33474e-11 2.4379e-11
-3.4498e-11 -3.6142e-10 3.13226e-10
-2.15789e-10 8.7239e-12 9.00196e-12
3.15168e-10 9.92457e-11 -1.13849e-10
1.78434e-10 -1.63232e-10 -1.50158e-10
-8.81575e-12 1.20977e-11 -1.73699e-11
3.00899e-11 1.31243e-10 -3.63088e-11
3.57114e-11 1.81564e-11 5.6173e-11
1.71001e-10 -1.82364e-10 1.93815e-10
1.15282e-10 -1.01701e-11 -7.27627e-11
-1.91783e-10 -2.04001e-10 1.10821e-10
5.82913e-11 -2.49479e-10 -3.11364e-11
1.18964e-10 -1.93406e-11 -3.61163e-12
-1.80298e-10 -6.32708e-11 2.45133e-11
6.52597e-10 -4.15418e-10 1.64058e-10
5.13747e-11 -1.33821e-10 1.19962e-10
1.12416e-10 7.90868e-11 -6.58409e-11
6.52745e-11 8.19924e-11 -2.2694e-11
-7.75595e-11 3.7559e-11 3.5637e-12
2.62136e-10 -6.65483e-11 5.89034e-11
5.20302e-11 1.66438e-10 -1.0236e-10
5.03275e-11 -4.24065e-11 -2.364e-12
7.69562e-11 -1.85564e-11 4.42906e-11
7.08143e-11 -7.59192e-11 8.49211e-11
-6.92069e-11 1.57809e-11 2.20253e-12
-1.2254e-10 -3.21748e-11 2.69866e-11
-7.03863e-11 -8.46365e-11 -2.74601e-12
1.87402e-10 -3.6142e-11 -5.37461e-11
1.01493e-10 8.08831e-11 1.31592e-10
3.64298e-11 3.55315e-11 -1.95951e-11
-1.77079e-10 -4.64986e-11 6.45083e-11
1.00993e-13 6.08686e-11 -6.10634e-11
-5.72299e-13 4.73818e-11 -1.24011e-10
1.73497e-11 6.52379e-11 -3.8311e-11
1.22597e-11 5.96323e-11 -5.61422e-11
-2.73692e-12 4.88072e-11 -5.78938e-11
-1.5105e-11 1.98616e-11 6.33387e-11
-3.76375e-10 1.27158e-11 -4.15912e-12
2.76221e-10 -8.66537e-11 4.44912e-11
1.81963e-10 -1.94157e-10 1.17229e-10
1.01177e-10 3.44037e-11 2.67301e-10
2.70761e-11 -1.38774e-10 2.18161e-10
-4.43059e-23 -1.29764e-23 -7.03104e-24
-1.4553e-10 -1.15065e-11 -1.01551e-11
-4.71646e-11 3.00459e-11 -5.79789e-11
6.81546e-11 -5.20608e-11 1.33168e-11
-9.07731e-11 -1.14103e-10 6.7168e-11
1.48402e-13 3.64879e-11 -2.06959e-11
-1.30104e-10 -1.41575e-10 5.13023e-11
-1.17226e-12 -4.87584e-11 3.59042e-11
1.28933e-10 1.18006e-10 1.07692e-10
9.91655e-11 1.24225e-10 -6.15574e-11
1.32323e-10 -4.55991e-11 7.25121e-11
-4.87051e-11 -5.34158e-11 2.23124e-11
2.37676e-10 -9.05969e-11 5.70828e-11
-2.20291e-10 6.57149e-11 1.67396e-11
-8.43448e-11 -7.86891e-11 8.69288e-11
-5.47353e-11 -1.5847e-10 1.52939e-10
-1.96233e-10 1.22739e-10 -2.01986e-11
1.87105e-10 7.33951e-11 -3.62827e-10
4.57272e-11 2.46499e-10 -1.4915e-11
-1.82861e-10 1.46673e-10 7.04194e-12
-1.7685e-10 -3.24888e-10 -6.36813e-11
8.2607e-11 8.1901e-11 -2.84119e-11
1.1898e-10 -2.62934e-11 -5.09277e-11
1.11323e-11 3.96104e-11 9.13595e-11
9.23542e-11 2.11493e-10 3.52654e-11
1.5468e-13 -2.112e-11 -3.47742e-11
-1.79272e-10 -9.50556e-11 -6.39868e-11
-9.75026e-22 -2.04003e-22 1.03398e-24
1.61287e-11 -2.76513e-11 -1.79623e-12
-8.56371e-11 -5.4206e-11 -1.09596e-11
5.5547e-11 -3.97113e-11 7.24201e-12
8.67663e-11 -7.49936e-11 6.61325e-11
2.16573e-11 6.79554e-11 -4.00729e-11
9.97033e-11 1.50266e-10 1.58373e-10
1.74879e-10 7.99199e-11 -2.95116e-12
-8.05297e-11 -2.86494e-11 1.58941e-10
-5.51438e-11 -7.85486e-11 2.96853e-11
2.31867e-11 2.0033e-12 -4.20248e-12
3.43191e-12 -4.15016e-11 1.69971e-11
-4.89921e-11 1.45506e-10 4.76489e-11
2.1802e-10 5.70156e-11 4.594e-11
2.86564e-10 -4.59299e-11 -1.18573e-10
-1.06448e-10 7.19254e-11 -2.74642e-11
-2.5023e-11 -1.03193e-10 -5.2498e-11
6.3121e-11 9.6799e-11 -2.4747e-11
-3.89029e-11 6.15006e-11 -8.19434e-11
-5.75107e-11 7.37595e-11 -4.65046e-11
