# vtk DataFile Version 3.0
LIGGGHTS particles timestep 66600000
ASCII
DATASET POLYDATA
POINTS 283 float
0.317985 0.0162593 0.00787963
0.318448 0.0177709 0.00728402
0.318399 0.0179987 0.00705059
0.31838 0.0179085 0.0070907
0.317798 0.0157705 0.008731
0.324054 0.0165599 0.00776635
0.318006 0.0160283 0.00823668
0.317781 0.0157221 0.00881681
0.324305 0.0175352 0.00711495
0.318685 0.0181056 0.00702547
0.318184 0.0166451 0.00765825
0.324267 0.0173661 0.00721444
0.318685 0.0176839 0.00722046
0.311753 0.0155799 0.00879046
0.318703 0.0177738 0.00718046
0.311979 0.0162858 0.00797847
0.324422 0.0181043 0.00698007
0.318325 0.0176596 0.00730603
0.318405 0.0172325 0.00745668
0.317816 0.0158187 0.00864526
0.318438 0.0181862 0.00700396
0.324227 0.0172044 0.00732505
0.318531 0.0175226 0.00735296
0.324162 0.0169628 0.00749067
0.312013 0.0161222 0.00818369
0.31828 0.0174517 0.00729338
0.324032 0.0164768 0.00781759
0.318517 0.0181251 0.00700214
0.318643 0.0175053 0.00729948
0.324076 0.0166407 0.0077115
0.318377 0.0178976 0.00719005
0.318721 0.0178637 0.00714037
0.324362 0.0178151 0.0070334
0.318021 0.0160774 0.00815073
0.318584 0.0176507 0.00722726
0.318231 0.016432 0.00776086
0.31834 0.0173777 0.00743212
0.318575 0.0172673 0.00740381
0.318495 0.0180415 0.00705261
0.318379 0.0175166 0.00731663
0.324097 0.0167212 0.0076563
0.324184 0.0170434 0.00743547
0.317965 0.0159333 0.00840769
0.318355 0.0171474 0.0074405
0.324141 0.0168823 0.00754588
0.31849 0.0176172 0.00723473
0.312522 0.0186062 0.00687556
0.312559 0.0179157 0.00707984
0.318666 0.0180099 0.00706812
0.324119 0.0168018 0.00760109
0.312198 0.0166956 0.00751658
0.324248 0.0172851 0.00726979
0.318506 0.0178849 0.00720426
0.317835 0.0158665 0.00855964
0.318275 0.0166106 0.00768195
0.318437 0.0177772 0.0071848
0.324205 0.0171239 0.00738026
0.318058 0.0161734 0.00797932
0.31273 0.0183229 0.00695503
0.318742 0.0179535 0.00710068
0.312251 0.0165795 0.00763039
0.318358 0.0169703 0.00752881
0.324496 0.0180401 0.00699647
0.312124 0.0167278 0.00744257
0.324286 0.0174493 0.00716223
0.318208 0.016343 0.00779999
0.318113 0.0167656 0.00759654
0.318274 0.0174418 0.00739275
0.324402 0.0180079 0.00699784
0.318476 0.01838 0.00696726
0.311815 0.0157741 0.00857037
0.312033 0.0161842 0.0081079
0.318389 0.0174567 0.00739596
0.312767 0.0185131 0.00689767
0.312313 0.0167863 0.0074209
0.311835 0.0158388 0.0084969
0.324342 0.0177187 0.00705116
0.312176 0.0166241 0.00758271
0.318476 0.017943 0.00708286
0.324322 0.0176224 0.00706887
0.318296 0.0166999 0.0076425
0.318469 0.0175278 0.0072743
0.318206 0.0167344 0.0076188
0.31808 0.0162206 0.00789395
0.31845 0.0171235 0.00745965
0.318354 0.017394 0.0073264
0.318265 0.0170101 0.00752248
0.318551 0.0178866 0.00711537
0.318475 0.0172675 0.00739522
0.318319 0.0172841 0.00746427
0.312358 0.0169773 0.00736316
0.318544 0.0177795 0.00725363
0.312654 0.0179463 0.00706861
0.318508 0.0177071 0.00719469
0.318539 0.0173508 0.00736213
0.31229 0.0167037 0.00747856
0.312578 0.0180097 0.00705146
0.318117 0.0163844 0.0077892
0.311774 0.0156447 0.00871707
0.318608 0.0177395 0.00718826
0.318361 0.0178188 0.00713057
0.318457 0.0182802 0.00697573
0.317913 0.016058 0.00821716
0.312054 0.0162471 0.00803282
0.31861 0.0181622 0.00699288
0.312222 0.0167739 0.00745908
0.3183 0.0175412 0.00725369
0.318344 0.0177438 0.00719443
0.318163 0.0165558 0.0076978
0.312749 0.0184169 0.00692667
0.324011 0.0163938 0.00786884
0.31844 0.0173575 0.00736995
0.318453 0.0169426 0.00754358
0.318156 0.0169441 0.00751763
0.31256 0.0187942 0.00681885
0.318672 0.0180965 0.00712418
0.318645 0.0179205 0.00710766
0.318253 0.0165212 0.00772148
0.311877 0.0159682 0.00835016
0.318706 0.0181963 0.00698527
0.311993 0.0160594 0.00825877
0.317891 0.0160107 0.00830258
0.312597 0.0185433 0.00689254
0.318214 0.0172153 0.00747477
0.318343 0.0170569 0.00748131
0.318442 0.0174395 0.00731285
0.31823 0.0168232 0.00757985
0.312465 0.0183239 0.00696069
0.318048 0.0164979 0.00771539
0.318178 0.0170339 0.00747797
0.318321 0.0167886 0.00760355
0.31863 0.0182528 0.0069527
0.312673 0.0180405 0.00704018
0.317984 0.0159811 0.00832206
0.3185 0.0174369 0.00739442
0.318331 0.0173027 0.00736664
0.318091 0.0166763 0.00763599
0.311794 0.0157094 0.00864368
0.318412 0.0179839 0.0071486
0.318438 0.0170321 0.00750086
0.318097 0.016295 0.00782937
0.312419 0.0172585 0.00727824
0.31876 0.0180482 0.0070584
0.311938 0.0161619 0.00813007
0.312074 0.0163082 0.00795639
0.312662 0.0185631 0.00696646
0.318457 0.0178532 0.00712282
0.312692 0.0181348 0.00701174
0.318522 0.0171887 0.00743561
0.3125 0.0176335 0.00716499
0.318249 0.0169128 0.00754002
0.312711 0.0182288 0.00698338
0.3182 0.0171232 0.00743852
0.312484 0.018418 0.00693232
0.31834 0.0168783 0.00756373
0.312155 0.0165563 0.00765335
0.318566 0.0175606 0.00726735
0.312467 0.0182005 0.0070824
0.31237 0.0177301 0.00722419
0.318509 0.0180119 0.00714713
0.312427 0.0181354 0.00701757
0.318417 0.017685 0.00722903
0.31248 0.0175398 0.0071933
0.312308 0.0175721 0.00718759
0.311959 0.0162238 0.00805425
0.312578 0.0184493 0.00692089
0.312439 0.0173522 0.00724993
0.312242 0.0168542 0.00740312
0.318554 0.0183172 0.00696356
0.312702 0.0185857 0.00687758
0.318521 0.0182132 0.00705897
0.312654 0.018386 0.00693797
0.318532 0.017796 0.00715567
0.312144 0.0168214 0.00741428
0.312303 0.0171351 0.00731749
0.324382 0.0179115 0.00701561
0.318005 0.0163281 0.00780998
0.317964 0.0162032 0.00795992
0.31202 0.0164098 0.00782695
0.318238 0.0172985 0.00740713
0.312365 0.0174163 0.00723259
0.318637 0.0179106 0.0072068
0.317872 0.0159641 0.00838897
0.312388 0.0179473 0.00707432
0.312379 0.017071 0.00733485
0.318141 0.0164665 0.00773716
0.312503 0.0185121 0.00690392
0.312486 0.0182948 0.00705402
0.311898 0.0160378 0.00828142
0.312344 0.0173226 0.00726115
0.31258 0.0181803 0.00708619
0.318661 0.0175951 0.00725947
0.312368 0.0178534 0.00710266
0.312103 0.0166638 0.00751664
0.312459 0.0174461 0.0072216
0.312273 0.0166414 0.00755484
0.312622 0.0186441 0.00686214
0.311918 0.0160974 0.00820369
0.318434 0.0180994 0.00710879
0.318027 0.0164084 0.00775435
0.324461 0.0182984 0.00695484
0.318135 0.0168548 0.00755709
0.312135 0.0164942 0.00772918
0.31807 0.0165869 0.0076756
0.31804 0.0161254 0.00806503
0.317927 0.0161071 0.00813132
0.31878 0.0181379 0.00701859
0.311999 0.0163478 0.0079027
0.318626 0.0178293 0.00714827
0.312095 0.0163702 0.00788068
0.311857 0.0159037 0.00842386
0.324441 0.0182007 0.0069623
0.312287 0.0174776 0.00721611
0.31254 0.0178217 0.0071082
0.312263 0.0169475 0.00737412
0.312445 0.0177914 0.00711939
0.312466 0.0180558 0.00712568
0.31206 0.0165338 0.00767543
0.312399 0.0171647 0.00730655
0.318286 0.0172106 0.0074054
0.318391 0.0175825 0.00724237
0.312542 0.0179915 0.0071429
0.312165 0.0169151 0.00738598
0.312562 0.018086 0.00711461
0.312283 0.0170414 0.00734581
0.306184 0.0169973 0.00732476
0.31237 0.0178434 0.00720214
0.312206 0.0171026 0.00732938
0.306165 0.0169156 0.00737937
0.306203 0.0170789 0.00727016
0.312487 0.0177867 0.00721008
0.306242 0.0172511 0.00717646
0.318574 0.017437 0.00732523
0.318258 0.0173624 0.00733284
0.312081 0.0165964 0.00759899
0.317856 0.0159142 0.00847407
0.215741 0.019982 0.00563384
0.306222 0.0171642 0.00722179
0.31256 0.0183553 0.00694931
0.31252 0.0177275 0.00713664
0.312116 0.0164325 0.00780538
0.312484 0.0179792 0.00706267
0.312385 0.0175101 0.00720427
0.312425 0.0176975 0.00714767
0.312541 0.0182612 0.0069776
0.318569 0.0179776 0.0070748
0.312523 0.0178975 0.00717126
0.312349 0.0177595 0.00713099
0.306282 0.0174384 0.00712193
0.312267 0.0173837 0.00724447
0.31204 0.0164718 0.00775125
0.317946 0.0161549 0.00804553
0.312673 0.0184802 0.00690957
0.312446 0.0182297 0.0069891
0.312842 0.0184493 0.00691492
0.312597 0.018104 0.00702304
0.312447 0.0179617 0.00715382
0.312407 0.0180412 0.00704599
0.312465 0.0178853 0.00709101
0.312599 0.0182752 0.00705788
0.312522 0.0181672 0.00700596
0.312246 0.01729 0.00727277
0.318301 0.0175722 0.00734876
0.404182 0.0211142 0.0056569
0.306322 0.0176303 0.00708191
0.312541 0.0187002 0.0068472
0.306302 0.0175345 0.007103
0.306262 0.0173424 0.00714084
0.312324 0.0172289 0.00728935
0.312185 0.0170088 0.00735768
0.312503 0.0180732 0.00703453
0.318593 0.0180688 0.00703464
0.312405 0.0176038 0.007176
0.312616 0.018198 0.00699468
0.312328 0.0176658 0.00715929
0.3126 0.018421 0.0070144
0.318534 0.0182192 0.00696009
0.312226 0.0171963 0.00730107
0.312338 0.0168826 0.00739173
0.318173 0.0170228 0.0075772
0.318323 0.0176468 0.00720687
0.312635 0.018292 0.00696633
0.318418 0.0180884 0.00701067

VERTICES 283 566
1 0
1 1
1 2
1 3
1 4
1 5
1 6
1 7
1 8
1 9
1 10
1 11
1 12
1 13
1 14
1 15
1 16
1 17
1 18
1 19
1 20
1 21
1 22
1 23
1 24
1 25
1 26
1 27
1 28
1 29
1 30
1 31
1 32
1 33
1 34
1 35
1 36
1 37
1 38
1 39
1 40
1 41
1 42
1 43
1 44
1 45
1 46
1 47
1 48
1 49
1 50
1 51
1 52
1 53
1 54
1 55
1 56
1 57
1 58
1 59
1 60
1 61
1 62
1 63
1 64
1 65
1 66
1 67
1 68
1 69
1 70
1 71
1 72
1 73
1 74
1 75
1 76
1 77
1 78
1 79
1 80
1 81
1 82
1 83
1 84
1 85
1 86
1 87
1 88
1 89
1 90
1 91
1 92
1 93
1 94
1 95
1 96
1 97
1 98
1 99
1 100
1 101
1 102
1 103
1 104
1 105
1 106
1 107
1 108
1 109
1 110
1 111
1 112
1 113
1 114
1 115
1 116
1 117
1 118
1 119
1 120
1 121
1 122
1 123
1 124
1 125
1 126
1 127
1 128
1 129
1 130
1 131
1 132
1 133
1 134
1 135
1 136
1 137
1 138
1 139
1 140
1 141
1 142
1 143
1 144
1 145
1 146
1 147
1 148
1 149
1 150
1 151
1 152
1 153
1 154
1 155
1 156
1 157
1 158
1 159
1 160
1 161
1 162
1 163
1 164
1 165
1 166
1 167
1 168
1 169
1 170
1 171
1 172
1 173
1 174
1 175
1 176
1 177
1 178
1 179
1 180
1 181
1 182
1 183
1 184
1 185
1 186
1 187
1 188
1 189
1 190
1 191
1 192
1 193
1 194
1 195
1 196
1 197
1 198
1 199
1 200
1 201
1 202
1 203
1 204
1 205
1 206
1 207
1 208
1 209
1 210
1 211
1 212
1 213
1 214
1 215
1 216
1 217
1 218
1 219
1 220
1 221
1 222
1 223
1 224
1 225
1 226
1 227
1 228
1 229
1 230
1 231
1 232
1 233
1 234
1 235
1 236
1 237
1 238
1 239
1 240
1 241
1 242
1 243
1 244
1 245
1 246
1 247
1 248
1 249
1 250
1 251
1 252
1 253
1 254
1 255
1 256
1 257
1 258
1 259
1 260
1 261
1 262
1 263
1 264
1 265
1 266
1 267
1 268
1 269
1 270
1 271
1 272
1 273
1 274
1 275
1 276
1 277
1 278
1 279
1 280
1 281
1 282

POINT_DATA 283
SCALARS id int 1
LOOKUP_TABLE default
1
2
3
4
5
6
7
8
9
10
11
12
13
14
15
16
18
19
20
21
22
24
25
26
27
29
30
31
32
33
34
35
36
37
38
40
41
42
43
44
45
46
47
48
49
50
52
55
56
57
58
59
60
61
62
63
64
65
66
67
68
69
70
71
72
73
74
75
76
77
78
79
80
81
82
83
84
85
86
87
88
89
90
91
92
93
94
95
96
98
99
100
101
102
103
104
105
106
107
108
109
110
111
112
113
114
115
116
117
118
119
120
121
122
123
124
125
126
127
128
129
130
131
132
133
134
135
136
137
138
139
140
141
142
144
145
146
147
148
149
150
152
153
154
155
156
157
158
159
160
161
162
164
165
166
167
168
169
170
171
172
173
174
175
176
177
178
179
180
181
182
183
184
185
186
187
188
189
190
191
192
193
194
195
196
197
198
199
200
201
202
203
204
205
206
207
208
209
210
211
213
214
215
217
218
219
220
221
222
223
224
225
226
227
228
229
230
231
232
233
234
235
236
237
238
239
241
242
243
244
245
246
247
248
249
250
251
252
253
254
255
256
257
258
259
260
261
262
263
264
265
267
268
269
270
271
272
273
274
275
276
277
278
279
280
281
282
283
284
285
286
287
288
289
290
292
293
294
295
296
297
298
300

SCALARS type int 1
LOOKUP_TABLE default
1
1
1
1
1
1
1
1
1
1
1
1
1
1
1
1
1
1
1
1
1
1
1
1
1
1
1
1
1
1
1
1
1
1
1
1
1
1
1
1
1
1
1
1
1
1
1
1
1
1
1
1
1
1
1
1
1
1
1
1
1
1
1
1
1
1
1
1
1
1
1
1
1
1
1
1
1
1
1
1
1
1
1
1
1
1
1
1
1
1
1
1
1
1
1
1
1
1
1
1
1
1
1
1
1
1
1
1
1
1
1
1
1
1
1
1
1
1
1
1
1
1
1
1
1
1
1
1
1
1
1
1
1
1
1
1
1
1
1
1
1
1
1
1
1
1
1
1
1
1
1
1
1
1
1
1
1
1
1
1
1
1
1
1
1
1
1
1
1
1
1
1
1
1
1
1
1
1
1
1
1
1
1
1
1
1
1
1
1
1
1
1
1
1
1
1
1
1
1
1
1
1
1
1
1
1
1
1
1
1
1
1
1
1
1
1
1
1
1
1
1
1
1
1
1
1
1
1
1
1
1
1
1
1
1
1
1
1
1
1
1
1
1
1
1
1
1
1
1
1
1
1
1
1
1
1
1
1
1
1
1
1
1
1
1
1
1
1
1
1
1
1
1
1
1
1
1
1
1
1
1
1
1

SCALARS radius float 1
LOOKUP_TABLE default
5e-05
5e-05
5e-05
5e-05
5e-05
5e-05
5e-05
5e-05
5e-05
5e-05
5e-05
5e-05
5e-05
5e-05
5e-05
5e-05
5e-05
5e-05
5e-05
5e-05
5e-05
5e-05
5e-05
5e-05
5e-05
5e-05
5e-05
5e-05
5e-05
5e-05
5e-05
5e-05
5e-05
5e-05
5e-05
5e-05
5e-05
5e-05
5e-05
5e-05
5e-05
5e-05
5e-05
5e-05
5e-05
5e-05
5e-05
5e-05
5e-05
5e-05
5e-05
5e-05
5e-05
5e-05
5e-05
5e-05
5e-05
5e-05
5e-05
5e-05
5e-05
5e-05
5e-05
5e-05
5e-05
5e-05
5e-05
5e-05
5e-05
5e-05
5e-05
5e-05
5e-05
5e-05
5e-05
5e-05
5e-05
5e-05
5e-05
5e-05
5e-05
5e-05
5e-05
5e-05
5e-05
5e-05
5e-05
5e-05
5e-05
5e-05
5e-05
5e-05
5e-05
5e-05
5e-05
5e-05
5e-05
5e-05
5e-05
5e-05
5e-05
5e-05
5e-05
5e-05
5e-05
5e-05
5e-05
5e-05
5e-05
5e-05
5e-05
5e-05
5e-05
5e-05
5e-05
5e-05
5e-05
5e-05
5e-05
5e-05
5e-05
5e-05
5e-05
5e-05
5e-05
5e-05
5e-05
5e-05
5e-05
5e-05
5e-05
5e-05
5e-05
5e-05
5e-05
5e-05
5e-05
5e-05
5e-05
5e-05
5e-05
5e-05
5e-05
5e-05
5e-05
5e-05
5e-05
5e-05
5e-05
5e-05
5e-05
5e-05
5e-05
5e-05
5e-05
5e-05
5e-05
5e-05
5e-05
5e-05
5e-05
5e-05
5e-05
5e-05
5e-05
5e-05
5e-05
5e-05
5e-05
5e-05
5e-05
5e-05
5e-05
5e-05
5e-05
5e-05
5e-05
5e-05
5e-05
5e-05
5e-05
5e-05
5e-05
5e-05
5e-05
5e-05
5e-05
5e-05
5e-05
5e-05
5e-05
5e-05
5e-05
5e-05
5e-05
5e-05
5e-05
5e-05
5e-05
5e-05
5e-05
5e-05
5e-05
5e-05
5e-05
5e-05
5e-05
5e-05
5e-05
5e-05
5e-05
5e-05
5e-05
5e-05
5e-05
5e-05
5e-05
5e-05
5e-05
5e-05
5e-05
5e-05
5e-05
5e-05
5e-05
5e-05
5e-05
5e-05
5e-05
5e-05
5e-05
5e-05
5e-05
5e-05
5e-05
5e-05
5e-05
5e-05
5e-05
5e-05
5e-05
5e-05
5e-05
5e-05
5e-05
5e-05
5e-05
5e-05
5e-05
5e-05
5e-05
5e-05
5e-05
5e-05
5e-05
5e-05
5e-05
5e-05
5e-05
5e-05
5e-05
5e-05
5e-05
5e-05
5e-05
5e-05
5e-05
5e-05
5e-05
5e-05
5e-05
5e-05
5e-05
5e-05
5e-05
5e-05
5e-05
5e-05
5e-05
5e-05
5e-05
5e-05
5e-05

SCALARS mass float 1
LOOKUP_TABLE default
1.46608e-10
1.46608e-10
1.46608e-10
1.46608e-10
1.46608e-10
1.46608e-10
1.46608e-10
1.46608e-10
1.46608e-10
1.46608e-10
1.46608e-10
1.46608e-10
1.46608e-10
1.46608e-10
1.46608e-10
1.46608e-10
1.46608e-10
1.46608e-10
1.46608e-10
1.46608e-10
1.46608e-10
1.46608e-10
1.46608e-10
1.46608e-10
1.46608e-10
1.46608e-10
1.46608e-10
1.46608e-10
1.46608e-10
1.46608e-10
1.46608e-10
1.46608e-10
1.46608e-10
1.46608e-10
1.46608e-10
1.46608e-10
1.46608e-10
1.46608e-10
1.46608e-10
1.46608e-10
1.46608e-10
1.46608e-10
1.46608e-10
1.46608e-10
1.46608e-10
1.46608e-10
1.46608e-10
1.46608e-10
1.46608e-10
1.46608e-10
1.46608e-10
1.46608e-10
1.46608e-10
1.46608e-10
1.46608e-10
1.46608e-10
1.46608e-10
1.46608e-10
1.46608e-10
1.46608e-10
1.46608e-10
1.46608e-10
1.46608e-10
1.46608e-10
1.46608e-10
1.46608e-10
1.46608e-10
1.46608e-10
1.46608e-10
1.46608e-10
1.46608e-10
1.46608e-10
1.46608e-10
1.46608e-10
1.46608e-10
1.46608e-10
1.46608e-10
1.46608e-10
1.46608e-10
1.46608e-10
1.46608e-10
1.46608e-10
1.46608e-10
1.46608e-10
1.46608e-10
1.46608e-10
1.46608e-10
1.46608e-10
1.46608e-10
1.46608e-10
1.46608e-10
1.46608e-10
1.46608e-10
1.46608e-10
1.46608e-10
1.46608e-10
1.46608e-10
1.46608e-10
1.46608e-10
1.46608e-10
1.46608e-10
1.46608e-10
1.46608e-10
1.46608e-10
1.46608e-10
1.46608e-10
1.46608e-10
1.46608e-10
1.46608e-10
1.46608e-10
1.46608e-10
1.46608e-10
1.46608e-10
1.46608e-10
1.46608e-10
1.46608e-10
1.46608e-10
1.46608e-10
1.46608e-10
1.46608e-10
1.46608e-10
1.46608e-10
1.46608e-10
1.46608e-10
1.46608e-10
1.46608e-10
1.46608e-10
1.46608e-10
1.46608e-10
1.46608e-10
1.46608e-10
1.46608e-10
1.46608e-10
1.46608e-10
1.46608e-10
1.46608e-10
1.46608e-10
1.46608e-10
1.46608e-10
1.46608e-10
1.46608e-10
1.46608e-10
1.46608e-10
1.46608e-10
1.46608e-10
1.46608e-10
1.46608e-10
1.46608e-10
1.46608e-10
1.46608e-10
1.46608e-10
1.46608e-10
1.46608e-10
1.46608e-10
1.46608e-10
1.46608e-10
1.46608e-10
1.46608e-10
1.46608e-10
1.46608e-10
1.46608e-10
1.46608e-10
1.46608e-10
1.46608e-10
1.46608e-10
1.46608e-10
1.46608e-10
1.46608e-10
1.46608e-10
1.46608e-10
1.46608e-10
1.46608e-10
1.46608e-10
1.46608e-10
1.46608e-10
1.46608e-10
1.46608e-10
1.46608e-10
1.46608e-10
1.46608e-10
1.46608e-10
1.46608e-10
1.46608e-10
1.46608e-10
1.46608e-10
1.46608e-10
1.46608e-10
1.46608e-10
1.46608e-10
1.46608e-10
1.46608e-10
1.46608e-10
1.46608e-10
1.46608e-10
1.46608e-10
1.46608e-10
1.46608e-10
1.46608e-10
1.46608e-10
1.46608e-10
1.46608e-10
1.46608e-10
1.46608e-10
1.46608e-10
1.46608e-10
1.46608e-10
1.46608e-10
1.46608e-10
1.46608e-10
1.46608e-10
1.46608e-10
1.46608e-10
1.46608e-10
1.46608e-10
1.46608e-10
1.46608e-10
1.46608e-10
1.46608e-10
1.46608e-10
1.46608e-10
1.46608e-10
1.46608e-10
1.46608e-10
1.46608e-10
1.46608e-10
1.46608e-10
1.46608e-10
1.46608e-10
1.46608e-10
1.46608e-10
1.46608e-10
1.46608e-10
1.46608e-10
1.46608e-10
1.46608e-10
1.46608e-10
1.46608e-10
1.46608e-10
1.46608e-10
1.46608e-10
1.46608e-10
1.46608e-10
1.46608e-10
1.46608e-10
1.46608e-10
1.46608e-10
1.46608e-10
1.46608e-10
1.46608e-10
1.46608e-10
1.46608e-10
1.46608e-10
1.46608e-10
1.46608e-10
1.46608e-10
1.46608e-10
1.46608e-10
1.46608e-10
1.46608e-10
1.46608e-10
1.46608e-10
1.46608e-10
1.46608e-10
1.46608e-10
1.46608e-10
1.46608e-10
1.46608e-10
1.46608e-10
1.46608e-10
1.46608e-10
1.46608e-10
1.46608e-10
1.46608e-10
1.46608e-10
1.46608e-10
1.46608e-10
1.46608e-10
1.46608e-10
1.46608e-10
1.46608e-10
1.46608e-10
1.46608e-10
1.46608e-10

VECTORS velocity float
0.00491797 -0.000158106 -0.000647352
0.00458953 0.000589721 8.90256e-05
0.00453042 0.000584075 0.000118282
0.00449525 0.000595095 0.000108593
0.00382433 -0.000174852 -0.000922557
0.00474383 -7.1401e-05 0.00012717
0.00477477 -0.000177579 -0.00122032
0.00275885 7.15481e-05 -0.000992936
0.00440371 -8.71835e-05 2.99515e-05
0.00448343 0.000644968 8.30759e-05
0.00492558 0.000567109 0.000155739
0.0044129 -0.000193399 -0.000168343
0.00467014 0.000654876 9.42056e-05
0.00444812 0.000539102 -2.51441e-05
0.00466999 0.00069577 7.55895e-05
0.00478917 0.000313639 -9.7048e-05
0.00446468 1.51157e-05 0.000236059
0.0046085 0.000553584 0.000142445
0.00488826 0.000553708 0.000158607
0.00437078 -0.000303535 -0.000881859
0.0044366 0.000585899 9.88721e-05
0.00482804 -0.00027742 -0.000136967
0.00478431 0.000622023 0.000112758
0.00478134 -0.000266805 -0.000141576
0.00480432 0.00032146 -0.000218256
0.00485524 0.000537609 0.000169612
0.0047352 -7.11834e-05 0.000126618
0.00445536 0.000617248 9.13917e-05
0.0047246 0.000636829 0.000106143
0.00473906 -0.000257061 -0.000147747
0.00450498 0.000602346 0.000110512
0.0045955 0.000709803 6.17692e-05
0.0044686 2.66799e-05 0.000224972
0.00481795 -0.000191638 -0.00121143
0.00467783 0.000643769 0.000100642
0.00495372 0.0005745 0.000155331
0.0048993 0.000515263 0.00015305
0.00485191 0.000612606 0.000128465
0.00456132 0.000565174 0.000128995
0.00470082 0.000499745 0.000102035
0.00475163 -0.000257589 -0.000146997
0.00480692 -0.000269824 -0.000140968
0.00465908 -0.000140464 -0.00124438
0.0049114 0.000550292 0.000162288
0.00477635 -0.000266465 -0.000141288
0.00468591 0.000607139 0.000119143
0.00451548 0.000440268 -0.000233383
0.00447644 0.000387174 -0.00021619
0.00451406 0.000686716 6.7858e-05
0.00477184 -0.000262336 -0.000144326
0.00468099 0.000364337 -0.000211124
0.00470231 -0.00025155 -0.000148922
0.00455837 0.00062066 8.3913e-05
0.00437536 -0.000305634 -0.000879367
0.00492676 0.000572225 0.000154196
0.00458633 0.00057151 8.90535e-05
0.00480895 -0.000273223 -0.000138282
0.0049675 -0.000234041 -0.00118761
0.00445993 0.000430826 -0.000228547
0.00454132 0.000720228 5.33909e-05
0.00488685 0.000419143 -0.000222878
0.00490249 0.000555829 0.000161055
0.00445438 2.39303e-06 0.000232151
0.00506646 0.000282644 -0.000197907
0.00421333 -0.000112629 -0.000104246
0.004976 0.000572761 0.000153421
0.00492494 0.00057213 0.000154248
0.00486576 0.000506527 0.000175107
0.00443186 4.05518e-06 0.000226989
0.00448746 0.000663405 -0.000650665
0.00452528 0.000521953 7.62437e-06
0.00473094 0.000386102 -0.000188611
0.00481659 0.000561644 0.000144887
0.00450137 0.000430124 -0.00022801
0.00459573 0.000438157 -0.000231996
0.00458326 0.000517657 1.87753e-05
0.00457513 2.96724e-06 0.000235788
0.00481134 0.000355478 -0.000162123
0.00455539 0.000599847 0.000111766
0.00461113 -1.49702e-05 0.000239519
0.00492117 0.000568858 0.000155341
0.0047502 0.000588878 0.000131793
0.00492494 0.000569397 0.00015595
0.00503284 -0.000253798 -0.00117741
0.0049285 0.000567816 0.000156475
0.00483855 0.000498913 0.000181294
0.00489487 0.000574776 0.00015321
0.00458937 0.00062544 0.000101249
0.00485775 0.000575582 0.000147843
0.00486608 0.000513351 0.000190058
0.00455907 0.000413244 -0.000225855
0.00458206 0.000637838 9.73724e-05
0.00457088 0.000556366 -0.000267899
0.00462088 0.000605738 0.000113101
0.00480608 0.000595893 0.0001313
0.00465283 0.00043555 -0.000258383
0.00448187 0.000471172 -0.000240398
0.00491537 0.000349239 -0.000172811
0.00450109 0.000537849 -9.54526e-06
0.00466174 0.000649772 9.5477e-05
0.00465039 0.000549549 0.000141486
0.00444765 0.000563744 0.000133919
0.0046254 -0.000364283 -0.000859421
0.00470192 0.000390682 -0.000184198
0.00447173 0.000614829 9.81105e-05
0.00459864 0.000389405 -0.000232583
0.00457257 0.000581081 0.000118482
0.00459942 0.000533306 0.000111942
0.00493382 0.00056283 0.000157042
0.00448265 0.000424168 -0.000227286
0.0047294 -6.929e-05 0.000124841
0.00480097 0.000560814 0.000153831
0.00491093 0.000583171 0.000148286
0.00491156 0.000591502 0.00014493
0.00459358 0.000427607 -0.000231064
0.0045564 0.000640067 9.17634e-05
0.00456623 0.00067511 7.56082e-05
0.00493668 0.000574649 0.000154512
0.00466161 0.000524032 2.91498e-05
0.00445754 0.000560238 0.000120778
0.00462193 0.000590013 -6.40772e-05
0.00455703 -0.000349149 -0.000866003
0.00450849 0.000440309 -0.000235166
0.00482626 0.000609336 8.34245e-05
0.00491322 0.000552589 0.000162426
0.00480799 0.000568046 0.000145002
0.00490591 0.000574169 0.000152418
0.00445889 0.00050175 -0.000254707
0.00494534 0.000553437 0.00016472
0.00490118 0.00058539 0.000146475
0.00490841 0.000564826 0.000156195
0.00447943 0.00057406 0.000110111
0.00442448 0.000421715 -0.00022539
0.00469484 -0.000151854 -0.00123653
0.00483433 0.000605367 0.000126552
0.00486376 0.000505833 0.00017798
0.00492915 0.000563595 0.000158217
0.00452919 0.000529648 2.65378e-06
0.00457166 0.000621417 0.000120463
0.00491617 0.000549204 0.000164457
0.00497119 1.662e-05 -0.000879283
0.00461385 0.000392559 -0.000220734
0.00442064 0.000594769 0.000100865
0.00475511 0.000462373 -9.77575e-06
0.00475897 0.000373671 -0.000171504
0.00450173 0.000444223 -0.000236646
0.00451893 0.000604832 0.000107329
0.00443666 0.000439486 -0.000231067
0.00490465 0.000596864 0.000141419
0.00447408 0.000475882 -0.000242049
0.00486744 0.000579478 0.000147747
0.00444224 0.000436721 -0.000229981
0.00488852 0.000579525 0.000146232
0.00447185 0.000441499 -0.000233482
0.00490323 0.000559911 0.000157975
0.00493205 0.000343995 -0.000128123
0.00473714 0.00065378 0.00010077
0.00440725 0.000463769 -0.000235389
0.00445177 0.000448611 -0.000229204
0.00457245 0.000563851 0.00013193
0.00439898 0.000407303 -0.000220072
0.00463676 0.00056882 0.000123538
0.00460347 0.000483914 -0.000248018
0.0046179 0.000391948 -0.000221008
0.00476627 0.00036582 -6.82296e-05
0.00449179 0.000449581 -0.000235586
0.00463555 0.000391016 -0.000220827
0.00456585 0.000411716 -0.000226229
0.00449198 0.000623703 -0.000147274
0.00452836 0.00044756 -0.000233118
0.00450682 0.000579734 0.000129096
0.00448088 0.000448663 -0.000233965
0.00454301 0.000625671 9.80129e-05
0.00451582 0.000393556 -0.000218506
0.00457447 0.000417073 -0.000227494
0.0044232 1.85311e-05 0.000224101
0.00494119 0.000350761 -0.000140671
0.00479693 -0.000423347 -0.00086163
0.00487694 0.000305168 -8.13791e-05
0.00484336 0.000519129 0.000165625
0.00463295 0.000401447 -0.000223765
0.0046229 0.000620792 7.55946e-05
0.00452027 -0.000342862 -0.000866511
0.00443507 0.00043512 -0.000228129
0.00456027 0.000409407 -0.000224628
0.00494842 0.000559709 0.000163945
0.0044996 0.0004589 -0.000238245
0.00437115 0.000484901 -0.000259945
0.00467362 0.000534038 4.13501e-05
0.00463094 0.000402712 -0.000223579
0.00446243 0.000442639 -0.000247353
0.00468839 0.000646232 9.96543e-05
0.00439661 0.0004333 -0.0002307
0.00503989 0.000358556 -0.000143416
0.00463601 0.000415684 -0.000228141
0.00475965 0.000433587 -0.000244052
0.00453857 0.000447537 -0.000238465
0.00471256 0.00052053 3.50968e-05
0.00454929 0.000556774 0.000133898
0.00495376 0.000553164 0.000161267
0.00430719 1.20672e-05 -0.000148472
0.0049188 0.000584342 0.000147947
0.00496186 0.000339375 -0.000124739
0.00493493 0.000556871 0.000159428
0.00488239 -0.000208835 -0.00120142
0.00468402 -0.000376562 -0.000855958
0.00448825 0.000596052 0.000105734
0.0048358 0.000307779 -8.73964e-05
0.00463 0.000658589 8.8765e-05
0.00483102 0.000360002 -0.000153453
0.00464983 0.000515726 2.58737e-05
0.00451317 4.23162e-05 0.000220889
0.00461455 0.000393046 -0.000221156
0.00445001 0.000417305 -0.000222343
0.00455821 0.000415446 -0.000226467
0.00443993 0.000444282 -0.000229539
0.0044812 0.000442212 -0.000216718
0.00494945 0.000304273 -7.49343e-05
0.00458008 0.000401645 -0.00022286
0.00489124 0.000537303 0.000160855
0.00462706 0.000562149 0.000136912
0.00450237 0.000441658 -0.000232788
0.00453435 0.000393709 -0.000218311
0.00442984 0.000425658 -0.000235799
0.00455607 0.00041853 -0.000227696
0.00448461 -9.28099e-05 0.000212817
0.00450575 0.000392242 -0.000238296
0.00455563 0.000392302 -0.000218933
0.00444264 -8.53383e-05 0.000207092
0.00451166 -0.000104099 0.000220346
0.00444783 0.000451228 -0.000234972
0.00456045 -0.000223196 1.17891e-05
0.00475647 0.000608483 0.000119817
0.00486323 0.000528823 0.00017062
0.00492729 0.00013643 0.000129047
0.00444829 -0.000325663 -0.000870462
6.80474e-15 2.2989e-14 -7.03248e-14
0.00453166 -0.000217779 2.07524e-05
0.00447512 0.000448789 -0.00023512
0.00444971 0.000461331 -0.000238342
0.00489234 0.000347795 -0.000139778
0.00450219 0.00042396 -0.000225419
0.0046272 0.000408539 -0.000226818
0.00446695 0.000444268 -0.000229161
0.00444184 0.000475287 -0.000229057
0.00456921 0.000572208 0.000123797
0.0044631 0.000405891 -0.000219215
0.00444533 0.000423484 -0.00022858
0.00435364 -0.000152655 9.70932e-05
0.00460298 0.000434685 -0.000233004
0.0049243 0.000302895 -7.54853e-05
0.00473671 -0.000393494 -0.000852669
0.00449585 0.000432881 -0.000231634
0.00442 0.000439011 -0.000233752
0.00448464 0.000417638 -0.000225238
0.00443765 0.000441252 -0.000233034
0.00445545 0.000425447 -0.000236093
0.00451089 0.000430764 -0.000230556
0.00446029 0.000435473 -0.0002268
0.00447258 0.000438719 -0.000238979
0.00442717 0.000457164 -0.000232015
0.0045895 0.000437408 -0.00023343
0.00456055 0.000557234 0.000123467
-1.2817e-14 6.09117e-14 -1.90218e-13
0.00439702 -0.000187013 -5.12814e-05
0.0045389 0.000437999 -0.000232636
0.00437028 -0.000161596 0.000101089
0.00459072 -0.000181139 0.000111964
0.00461059 0.000408059 -0.000225141
0.00454452 0.000394073 -0.00021992
0.0044317 0.000442702 -0.000236131
0.00448331 0.000652624 7.9617e-05
0.00455364 0.00042696 -0.000227078
0.00445681 0.00044631 -0.00023604
0.0046281 0.000379035 -0.000216555
0.00447783 0.000450616 -0.000236221
0.00445914 0.000587636 0.000114554
0.00458343 0.000439559 -0.000234453
0.00453842 0.000385976 -0.000216158
0.0049067 0.000594238 0.000144594
0.00459648 0.00053804 0.000143115
0.00447483 0.000446268 -0.00023505
0.00456104 0.000574602 0.000125441

VECTORS force float
5.40399e-11 1.27061e-10 -7.33722e-11
5.05488e-11 9.84691e-11 -1.08818e-10
-2.83635e-12 -2.99938e-11 2.25253e-11
2.40826e-12 3.28905e-11 -1.67152e-11
5.96071e-11 -1.14416e-11 1.80355e-11
2.61663e-11 1.85258e-11 -5.80587e-11
-2.03857e-10 1.23853e-10 -1.29795e-10
7.65741e-11 -8.06631e-13 2.08847e-11
6.26693e-11 -1.01759e-11 -1.60344e-11
-2.78059e-12 -1.65857e-10 5.00557e-11
-1.37225e-11 -7.15708e-11 3.18162e-11
-9.61774e-11 -2.05299e-11 2.11099e-10
-8.65233e-11 1.01558e-10 -6.4586e-11
-9.77364e-11 -2.45986e-10 2.14566e-10
6.95915e-12 1.8357e-10 -8.743e-11
4.71262e-11 1.58946e-10 1.06178e-12
6.62767e-11 4.59734e-10 -1.64304e-10
-1.47158e-10 -7.99725e-12 5.37267e-11
-5.14965e-11 3.5882e-11 -4.38821e-11
-4.39646e-11 5.67695e-12 1.76563e-12
1.43862e-11 -7.38059e-11 2.1124e-10
1.18967e-10 1.15103e-10 -8.48853e-11
1.74493e-11 -1.49823e-11 -1.67269e-11
-2.04731e-11 -1.20109e-10 8.07821e-11
-2.26416e-10 2.05222e-10 3.28427e-10
5.71947e-11 1.69809e-10 -4.65664e-11
-1.22272e-11 2.00473e-11 -1.37132e-11
-1.54224e-10 -2.94338e-10 1.15106e-10
2.14089e-11 3.55128e-11 -9.60571e-12
-7.25155e-12 2.16423e-11 5.25931e-11
-4.47523e-11 3.69336e-11 -9.49853e-12
2.02263e-11 1.77896e-10 -1.02185e-10
1.79182e-11 -2.8931e-10 3.65759e-11
-2.44285e-10 1.34767e-10 -1.32576e-10
-1.44091e-11 7.59754e-11 -2.75206e-11
1.30831e-10 -3.75306e-11 1.3946e-11
1.91669e-10 -9.56824e-11 -1.04502e-10
4.0284e-11 -1.00264e-11 1.26995e-11
7.8614e-12 -9.60815e-11 6.39815e-11
-1.62988e-10 -2.1083e-10 -9.52242e-11
-1.06467e-10 -2.2525e-11 2.5758e-11
-1.65693e-10 -4.77325e-11 4.45022e-11
1.03183e-10 1.65057e-10 -3.04317e-10
3.02126e-11 2.26119e-11 -5.57433e-12
2.30957e-10 -2.91999e-11 -4.64822e-12
3.52001e-12 8.50971e-11 -4.3064e-11
1.68794e-11 -1.29771e-11 2.75292e-12
-8.9859e-11 -5.46921e-11 2.87134e-11
5.82929e-16 -4.40886e-11 1.92937e-11
1.1323e-10 -2.34922e-11 -3.44911e-12
-1.41475e-10 2.92913e-11 -2.91935e-11
-9.39152e-11 1.61903e-11 -7.75483e-12
-1.38851e-11 -3.16446e-11 -5.74695e-11
1.20907e-10 -2.2092e-11 2.36719e-12
-2.76163e-11 -9.03235e-11 4.28185e-11
1.77293e-12 4.95775e-11 -9.87057e-11
1.42348e-10 4.13913e-11 -2.43441e-11
2.99248e-10 -2.04877e-11 -1.01207e-10
-1.13552e-10 1.2879e-11 1.87037e-12
1.78874e-10 9.50978e-11 -2.15102e-11
4.04399e-11 4.21601e-11 -3.01569e-12
6.96126e-11 -7.5641e-11 3.01549e-11
-4.07582e-11 -3.52523e-11 5.99655e-11
1.27354e-11 -5.95443e-12 -1.57859e-11
-4.35671e-11 -8.25363e-11 1.51122e-10
1.03877e-10 -4.90059e-11 4.43885e-11
-1.0249e-11 -5.7509e-11 2.92171e-11
1.15262e-10 4.11375e-11 -3.37161e-12
-2.32428e-11 -5.34935e-11 4.29967e-11
-9.26064e-12 -8.77439e-11 -1.03027e-10
-2.32706e-11 -7.66649e-11 6.9661e-11
1.83299e-10 -4.04668e-11 5.09409e-12
1.80818e-11 -2.48579e-11 -6.55164e-11
1.33344e-10 -1.31122e-11 -1.3434e-11
-4.29236e-11 -1.50807e-11 1.08013e-11
-7.22909e-11 -6.24548e-11 1.42221e-10
-5.49277e-11 2.33218e-11 -4.60135e-12
3.933e-11 7.61045e-11 9.8317e-11
2.63511e-11 3.19971e-12 9.26639e-13
1.93119e-10 2.00865e-10 3.7123e-11
-6.08534e-11 -1.40307e-10 6.0147e-11
-1.98972e-11 5.38742e-11 -3.2347e-11
-2.74541e-11 -8.83818e-11 4.05701e-11
1.18228e-10 5.24809e-11 -9.17386e-12
6.03838e-11 -2.88465e-11 1.47585e-11
-4.54054e-11 2.82806e-12 -1.89508e-11
4.01813e-11 -4.82229e-11 -4.49186e-12
2.82487e-11 4.40157e-11 -2.31651e-11
8.02203e-11 -4.85998e-11 2.47937e-11
-1.49353e-10 -1.82571e-11 -1.12039e-10
-1.30934e-10 -3.28422e-11 1.82866e-11
6.65858e-11 -1.46355e-12 7.43835e-12
-4.68318e-12 3.17751e-11 -1.52259e-11
3.2892e-11 6.66666e-12 4.74761e-12
-1.1318e-11 -4.19984e-12 2.82592e-11
-2.0496e-10 -4.6459e-12 -6.34754e-11
1.97724e-11 1.38788e-12 -8.57117e-12
1.34885e-10 8.71781e-11 8.61489e-11
-1.48613e-10 -6.4257e-11 8.62474e-11
-4.31759e-11 9.46818e-11 -3.08152e-11
2.77045e-11 -6.10485e-12 9.3542e-12
2.86322e-11 1.80338e-11 2.13024e-10
-3.17771e-11 -1.22773e-11 -4.65999e-12
-1.62511e-10 2.19024e-10 -6.8401e-11
2.19631e-10 1.90822e-10 -7.43174e-11
-1.70627e-10 -3.21049e-12 -9.32395e-11
-1.60252e-11 1.09469e-10 -9.73123e-11
-1.4052e-11 -1.24737e-10 -9.45026e-11
7.00116e-11 -3.0212e-11 2.29508e-11
1.48191e-11 -3.4339e-11 3.93329e-12
-3.95212e-13 -7.97479e-12 1.15251e-11
-7.36764e-11 -7.88967e-11 -5.08387e-11
6.14106e-11 -1.36079e-10 6.86546e-11
-1.24163e-11 -4.63813e-11 1.73905e-11
-4.94727e-11 -1.37558e-10 3.92323e-11
5.76473e-11 1.6386e-10 -2.71184e-11
4.58117e-11 2.52744e-11 -1.36899e-11
9.1192e-11 -4.27584e-11 1.88665e-11
4.19005e-11 -2.42933e-11 -2.64744e-11
5.52008e-11 1.28293e-10 -6.30304e-11
3.95792e-11 -1.79403e-10 2.17471e-10
-2.92609e-10 9.36047e-11 -6.41705e-11
1.77839e-11 -1.69661e-11 1.06224e-11
3.52841e-11 -4.99445e-11 7.15721e-11
7.34879e-11 -3.17965e-11 1.22874e-11
7.84147e-12 -1.39982e-11 -4.71522e-11
-3.44356e-11 -7.8373e-11 3.52575e-11
-1.50031e-10 1.63607e-10 -1.82831e-10
6.85335e-11 9.35426e-11 -3.61599e-11
3.04076e-12 -3.74343e-11 1.62986e-11
-5.81718e-11 -1.46376e-10 6.45324e-11
-1.73351e-10 -1.77977e-10 -2.02101e-11
-7.55096e-11 8.87672e-11 -2.26354e-11
-4.34847e-10 1.93482e-10 -1.82058e-10
-7.09994e-11 1.87317e-11 -5.79157e-11
-1.12073e-10 5.22346e-11 -8.85081e-11
3.12565e-13 -3.00443e-11 8.06658e-12
1.17851e-11 4.22729e-12 1.98264e-11
5.5529e-12 -1.86073e-11 3.18558e-11
6.69382e-11 -1.63779e-10 8.26149e-11
-1.7785e-10 1.65485e-10 1.74951e-10
-8.09038e-11 -7.05581e-11 2.30812e-11
1.27633e-10 -1.00909e-10 4.32158e-11
6.67732e-11 1.57096e-10 -1.46608e-10
-2.03089e-10 2.13376e-10 -1.24943e-10
5.31243e-12 2.29497e-10 1.3287e-12
-3.38689e-11 -1.66575e-11 -2.52305e-11
-1.41834e-10 7.16626e-11 -1.49035e-11
2.09222e-10 -5.13737e-11 5.11899e-11
-1.42727e-10 7.94552e-11 1.39113e-11
2.46534e-11 -6.79601e-11 1.20491e-11
-1.63341e-10 5.15842e-11 -1.78466e-11
2.04688e-11 -5.44805e-11 2.23099e-11
1.30545e-11 3.46948e-11 -8.75962e-12
-2.96916e-11 -1.09762e-10 5.33273e-11
2.84799e-11 4.73937e-12 3.21863e-11
-2.20401e-11 2.72417e-11 -2.8198e-11
2.5066e-10 7.35825e-12 1.45148e-10
-1.85538e-10 9.1053e-11 -1.21817e-10
7.5164e-11 -8.81719e-11 7.96007e-11
-1.27971e-11 -5.54903e-12 7.64219e-12
2.36889e-11 3.92172e-11 -6.86005e-11
-1.3793e-10 1.67342e-10 -4.56717e-11
-1.21228e-10 -3.08893e-10 9.96532e-11
9.41617e-11 2.44938e-10 -5.20075e-11
1.88572e-11 2.00971e-11 -2.01592e-13
-1.44145e-11 -2.32497e-11 7.26691e-12
-6.91805e-12 3.85525e-11 3.05001e-11
5.7935e-11 2.13201e-11 -3.0962e-10
9.67567e-11 3.21983e-11 1.86758e-12
1.91961e-11 -2.96302e-11 -1.42535e-11
3.62946e-11 1.6264e-10 -5.31168e-11
-1.68919e-12 -1.27557e-11 -2.8069e-12
1.44246e-10 1.95581e-11 -3.09335e-11
-7.66044e-11 1.50417e-11 5.86512e-12
2.54313e-10 -3.80983e-10 1.19458e-10
-7.5774e-14 2.69979e-10 -2.17761e-11
-7.18523e-11 1.03468e-10 2.77916e-11
-1.13054e-11 -1.12237e-11 -3.34127e-12
-2.80154e-12 1.00288e-10 -1.69276e-10
3.60722e-11 8.95337e-11 -2.62867e-11
2.70529e-10 -8.50962e-11 3.7116e-12
-8.42155e-11 2.19776e-11 -2.41926e-11
-2.10033e-10 6.57227e-11 3.92012e-11
-4.54287e-11 -8.96888e-11 2.92365e-11
1.36594e-10 1.76539e-11 5.68641e-12
-1.06068e-11 -4.17944e-11 6.46006e-12
-4.98366e-10 5.59841e-10 -3.36344e-10
-7.15803e-11 -7.16266e-11 -1.70263e-10
5.33234e-13 5.48105e-11 -6.47888e-12
-1.11937e-10 2.64608e-11 3.51718e-11
-1.09532e-10 8.11812e-11 -6.31332e-11
2.31628e-10 -1.23744e-11 -3.41709e-11
-2.36889e-11 -1.02813e-11 7.98292e-11
-2.64096e-12 -7.0662e-11 1.52222e-11
-4.67894e-11 6.83378e-11 -1.00575e-12
3.7306e-11 -1.47406e-11 -8.62127e-12
-9.24719e-11 1.26857e-10 -1.46505e-10
-7.26397e-11 1.44814e-10 6.11031e-11
-9.50442e-11 1.1558e-10 -7.12756e-11
-4.3051e-10 -1.73207e-10 7.86624e-10
-1.38298e-11 -5.388e-11 2.29246e-11
-4.89251e-11 -9.99072e-12 -1.25829e-12
6.02641e-11 1.10071e-12 -1.73817e-11
-3.05554e-10 1.66318e-10 -1.73508e-10
-1.62441e-10 -4.33592e-11 2.63082e-11
-1.65221e-10 -3.75879e-11 2.95705e-12
-5.83945e-11 -1.09529e-11 -2.24934e-11
-1.78794e-11 8.26367e-11 -2.97954e-11
1.37163e-10 3.69444e-11 -9.5158e-11
-1.86436e-10 -7.98331e-12 4.89045e-11
-5.31542e-10 6.10134e-10 -7.07513e-10
8.24756e-11 2.86892e-10 -8.90935e-11
-1.70619e-10 -6.6275e-11 4.54649e-11
-1.06223e-10 4.15001e-11 7.01981e-12
-1.01085e-10 -8.20513e-12 -3.02816e-11
1.42673e-11 -4.11182e-11 1.02382e-11
1.26469e-11 3.26334e-11 -3.04228e-11
-3.80173e-11 -9.11732e-11 3.14202e-11
2.15496e-11 4.88408e-11 -3.59137e-11
-6.6794e-12 -7.12966e-11 7.30779e-11
-7.05956e-11 -1.26039e-11 2.81548e-11
-6.3367e-11 -5.94214e-11 -5.48317e-13
-1.92928e-10 -3.14155e-11 -2.82169e-11
-1.64831e-10 4.11188e-11 1.81521e-12
7.12804e-11 -4.73487e-11 3.46181e-11
-3.39375e-11 -1.12727e-10 -3.29643e-11
5.27977e-11 8.18262e-11 -2.47111e-11
1.03875e-11 3.84657e-11 -2.71722e-11
-9.85014e-12 -4.82177e-11 1.7424e-10
-1.63092e-10 9.08342e-11 1.39213e-11
1.79034e-11 6.55231e-11 -2.51412e-10
1.75142e-11 -7.83129e-12 -2.30473e-11
-4.57251e-12 1.8619e-10 -8.92489e-11
-3.32695e-12 2.50567e-11 -7.25312e-11
-7.10153e-11 2.95809e-11 -2.28024e-11
-1.53804e-23 5.73857e-24 -2.06795e-25
1.14282e-10 -2.84153e-11 -1.27563e-10
4.75221e-11 3.41404e-11 2.03048e-11
-3.4773e-11 -1.90352e-12 7.63806e-11
-3.72201e-11 5.1201e-11 -2.15952e-11
-7.9631e-13 8.07376e-11 5.01205e-12
4.40303e-11 -2.25715e-11 1.92485e-12
-1.57136e-10 -1.32762e-11 -2.5201e-11
-7.63013e-11 3.19397e-10 -1.06253e-10
7.89874e-11 -1.64701e-11 1.95065e-11
-1.00541e-10 1.05982e-10 3.01979e-11
-6.9574e-11 1.16906e-10 -4.93672e-11
2.27789e-10 -1.80207e-10 6.40867e-11
5.90715e-11 1.68285e-10 -4.78615e-11
4.55407e-11 8.52948e-12 -1.2867e-11
-4.24454e-10 8.0633e-11 1.85409e-11
3.36545e-11 -2.48142e-11 1.39155e-11
-9.64902e-11 -2.64664e-10 1.0833e-10
8.46952e-11 -1.14261e-10 4.1123e-11
-1.06292e-10 2.17996e-11 2.59562e-12
2.86407e-11 1.12224e-10 -8.04169e-11
-5.23067e-11 2.15749e-11 4.01106e-11
-6.76743e-11 2.13803e-11 -1.53974e-11
-8.423e-11 7.37863e-12 -3.76481e-11
-1.71069e-12 1.40125e-10 -3.87996e-11
-2.98734e-12 1.36134e-10 -4.16103e-11
-1.69455e-11 -6.18886e-11 -1.00186e-10
6.14789e-22 5.63517e-23 -2.25407e-23
-1.529e-10 1.54624e-10 -1.82514e-10
-1.29698e-11 -5.03447e-11 1.71614e-11
7.90632e-11 -1.65609e-10 1.46215e-10
-2.0922e-10 1.07346e-10 -9.90249e-13
2.68143e-12 -8.67557e-12 -2.88561e-12
3.12114e-11 1.55513e-11 -3.51391e-11
-9.4243e-11 6.11217e-11 -4.23623e-11
-3.99076e-11 -1.2178e-10 5.79233e-11
4.29166e-11 6.6042e-11 7.13861e-12
-1.37217e-10 1.8366e-11 6.0318e-12
4.46144e-10 -4.33827e-11 -2.40105e-12
6.33748e-11 5.59161e-11 -1.54195e-11
1.80291e-11 3.92857e-11 -3.17184e-11
1.15389e-11 1.03137e-10 -3.35546e-11
-1.29323e-10 3.52604e-11 4.14567e-12
7.93524e-11 -6.35234e-11 1.62504e-11
-1.2783e-11 -1.10766e-10 6.17817e-11
2.98526e-11 -4.53698e-11 6.8402e-12
2.02388e-11 -1.315e-11 2.47136e-11
