# vtk DataFile Version 3.0
LIGGGHTS particles timestep 79800000
ASCII
DATASET POLYDATA
POINTS 277 float
0.37885 0.0172424 0.00757244
0.379028 0.0179744 0.00727282
0.378747 0.0173668 0.00741896
0.378726 0.0172761 0.0074559
0.378253 0.0155211 0.00875924
0.384475 0.0181511 5.23933e-05
0.378231 0.0154602 0.00883552
0.383863 0.0194589 5.15912e-05
0.379022 0.0185649 0.00693146
0.37862 0.0164021 0.00782118
0.383688 0.0179876 5.13622e-05
0.379001 0.0184743 0.00696833
0.37292 0.0180001 0.00707209
0.379077 0.0184178 0.00700048
0.372729 0.0171419 0.00744264
0.383665 0.0192295 5.13314e-05
0.378843 0.0176489 0.00740186
0.378876 0.0171601 0.00752116
0.378275 0.015582 0.00868295
0.378789 0.0175485 0.00734503
0.383698 0.0193876 5.13745e-05
0.379052 0.0174918 0.00739646
0.384086 0.0170583 5.18834e-05
0.372798 0.0167829 0.00758054
0.378979 0.0176953 0.00739568
0.384727 0.0168558 5.27234e-05
0.378935 0.0177798 0.00736515
0.379173 0.0184514 0.00699589
0.384123 0.0182489 5.19315e-05
0.378841 0.0177466 0.00738104
0.37905 0.0183186 0.00704035
0.383825 0.0179556 5.15414e-05
0.379074 0.0178017 0.00726534
0.378694 0.0163436 0.00785399
0.379076 0.0175867 0.00735809
0.379198 0.0181211 0.00714057
0.378907 0.0176716 0.00730415
0.378781 0.0171279 0.00752527
0.384273 0.0173755 5.21276e-05
0.383711 0.0197285 5.13925e-05
0.378427 0.0160082 0.00814898
0.378855 0.0170696 0.007558
0.383864 0.0175678 5.15927e-05
0.378939 0.0174339 0.00740984
0.372821 0.0176529 0.00707091
0.372858 0.0174087 0.00716043
0.379097 0.0180808 0.00714755
0.384694 0.0174241 5.26798e-05
0.372665 0.0165969 0.00771169
0.383705 0.0178593 0.00531919
0.379146 0.018354 0.007035
0.378297 0.0156428 0.00860668
0.378735 0.0165253 0.00777996
0.378843 0.0173997 0.00741465
0.384287 0.0165871 5.2146e-05
0.378465 0.0161315 0.00799609
0.372969 0.0183191 0.00691182
0.378955 0.0182713 0.00705095
0.372817 0.0168639 0.00752524
0.378815 0.0168882 0.00763191
0.383741 0.0189021 5.1431e-05
0.37274 0.0165398 0.00774641
0.383839 0.0177605 5.15594e-05
0.378577 0.0162196 0.00789527
0.378545 0.0164602 0.00778848
0.379066 0.0177865 0.00736388
0.383768 0.017831 5.14665e-05
0.378831 0.0177334 0.00728239
0.372387 0.0158448 0.00823011
0.392848 0.0240513 6.33589e-05
0.379138 0.017921 0.00722057
0.372926 0.0181284 0.00695628
0.373047 0.0174628 0.00712555
0.372408 0.0159255 0.00817471
0.383768 0.0202023 5.14667e-05
0.372645 0.0165155 0.00776721
0.378884 0.0175811 0.00734082
0.384029 0.0172432 5.18084e-05
0.378755 0.016616 0.00774294
0.378917 0.0173414 0.00744736
0.37864 0.0164927 0.00778425
0.378445 0.0160697 0.00807232
0.378987 0.0172169 0.0075082
0.37876 0.0170372 0.00756218
0.3787 0.016765 0.00767311
0.378927 0.0177632 0.00726686
0.379173 0.0178148 0.0072699
0.378982 0.0176149 0.00733636
0.373108 0.0177483 0.00705669
0.378913 0.0180909 0.00712433
0.373012 0.0177169 0.00706129
0.37896 0.0175245 0.00737297
0.379258 0.0179794 0.00720781
0.372856 0.017026 0.00741463
0.372877 0.0174942 0.00711216
0.378899 0.0174256 0.00750088
0.372346 0.0156834 0.00834093
0.379178 0.0180303 0.00717761
0.378773 0.017481 0.00747911
0.37881 0.0176391 0.00730817
0.378405 0.0159477 0.00822555
0.378949 0.0178544 0.00722978
0.372684 0.0166781 0.00765628
0.378664 0.0170041 0.00756657
0.378706 0.0171855 0.00749276
0.378599 0.0163115 0.00785803
0.372991 0.0184163 0.00690102
0.384248 0.0170186 5.20952e-05
0.379009 0.01731 0.00747036
0.378946 0.017035 0.0075822
0.378585 0.0166409 0.00771478
0.372861 0.0178434 0.00702492
0.378872 0.0179097 0.00719807
0.379138 0.0182622 0.00707372
0.378715 0.0164343 0.00781703
0.372428 0.0160061 0.00811932
0.37898 0.0183813 0.00700617
0.37249 0.0162486 0.00795371
0.378363 0.0158254 0.00837793
0.373055 0.0180749 0.0070577
0.378805 0.0173905 0.0075071
0.378835 0.0169789 0.00759491
0.378896 0.0172508 0.00748425
0.37866 0.0165835 0.00774723
0.373013 0.0178849 0.00710351
0.378755 0.0172098 0.00757642
0.378605 0.0167317 0.00767773
0.378775 0.0167067 0.00770592
0.378997 0.0180447 0.00715286
0.372958 0.017875 0.00702025
0.378383 0.0158864 0.00830154
0.379131 0.018011 0.00726362
0.378739 0.0169466 0.00759905
0.378525 0.0163755 0.00783774
0.372367 0.0157641 0.00828552
0.378997 0.0178411 0.00731615
0.378967 0.0171256 0.00754535
0.378561 0.0161487 0.00796386
0.37278 0.0170834 0.00737976
0.3789 0.0179141 0.00729378
0.372669 0.0168966 0.007609
0.372625 0.0164345 0.00782248
0.372947 0.0182233 0.00693341
0.378863 0.0174903 0.00737773
0.373119 0.0181917 0.00694694
0.379019 0.0181355 0.00711604
0.372953 0.017435 0.00714415
0.37868 0.0166743 0.00771018
0.373088 0.0184485 0.00689537
0.378624 0.0168225 0.00764066
0.372782 0.0174642 0.00712413
0.378795 0.0167975 0.0076689
0.373225 0.0178733 0.00702948
0.379102 0.0176969 0.00731329
0.373077 0.0181698 0.00703486
0.373109 0.0179166 0.0070988
0.378976 0.017953 0.00719012
0.372841 0.0177529 0.00714775
0.378822 0.0173091 0.00745152
0.372933 0.0173503 0.00719347
0.372686 0.0170585 0.00740091
0.372708 0.0170588 0.00749837
0.373034 0.018611 0.00687942
0.372895 0.0171881 0.00730404
0.372703 0.0167591 0.00760097
0.378857 0.0178333 0.00733376
0.372892 0.0179072 0.00709656
0.37904 0.0182268 0.00707882
0.372904 0.0180334 0.00697914
0.379003 0.0177062 0.00729917
0.37257 0.0165722 0.00773275
0.372761 0.0170023 0.00743506
0.383657 0.020044 5.13217e-05
0.378776 0.0173005 0.00753956
0.378667 0.0170175 0.00766561
0.378934 0.0176069 0.00742356
0.37313 0.0178433 0.00703378
0.378934 0.0181846 0.0070967
0.37834 0.0157647 0.0084541
0.372825 0.0175591 0.0071911
0.373076 0.0180018 0.00699266
0.378913 0.0175165 0.00746064
0.372802 0.0175575 0.00709395
0.373034 0.01798 0.00708056
0.372449 0.0160869 0.00806411
0.373088 0.0176532 0.00707961
0.373044 0.0182551 0.00692871
0.379098 0.0185084 0.00696361
0.372803 0.0174659 0.00722186
0.372531 0.0164103 0.00784328
0.3728 0.0171644 0.00732446
0.372837 0.016945 0.00746994
0.373067 0.0183522 0.00691205
0.378926 0.0180105 0.00725493
0.378484 0.016202 0.00792787
0.383648 0.0188198 5.13098e-05
0.378565 0.0165538 0.00775958
0.37251 0.0163294 0.0078985
0.378505 0.0162868 0.00787899
0.379234 0.0178894 0.00724406
0.378892 0.0180003 0.0071612
0.372664 0.0169848 0.0075559
0.379117 0.0181716 0.00711052
0.37276 0.0166208 0.00769114
0.372469 0.0161678 0.0080089
0.383653 0.018609 5.13166e-05
0.372666 0.0169775 0.00745621
0.372991 0.0176218 0.00708422
0.372722 0.0168402 0.00754567
0.372705 0.0171396 0.00734561
0.373055 0.0179069 0.00701553
0.37255 0.0164912 0.00778801
0.373151 0.0179385 0.00701087
0.378719 0.0168558 0.00763605
0.378801 0.0172185 0.0074884
0.37311 0.0185454 0.00688408
0.372589 0.0166532 0.00767745
0.372979 0.01797 0.00699737
0.372742 0.0169213 0.00749036
0.366769 0.0174468 0.0072407
0.372838 0.0173265 0.0072139
0.372628 0.0168154 0.00756682
0.36675 0.0173653 0.00729534
0.366788 0.0175283 0.00718606
0.373098 0.0180968 0.0069698
0.366827 0.017692 0.00707802
0.379031 0.0174011 0.00743336
0.378644 0.0169133 0.00760359
0.373173 0.0180335 0.006988
0.378318 0.0157038 0.00853038
0.215741 0.019982 0.00563384
0.366808 0.0176098 0.00713142
0.373162 0.0183816 0.00690118
0.372972 0.0175281 0.00711319
0.372779 0.0167018 0.00763585
0.373033 0.0178119 0.00703842
0.373067 0.0175581 0.00710256
0.372819 0.0172455 0.00726916
0.372763 0.0173828 0.0071797
0.379043 0.0178878 0.00722509
0.373001 0.018065 0.0069745
0.373088 0.0178213 0.00712185
0.366866 0.0178566 0.00697127
0.37292 0.0175286 0.00719867
0.37265 0.0168153 0.00766434
0.378673 0.0162529 0.00789086
0.373002 0.0182331 0.00701668
0.372917 0.017818 0.00713368
0.372944 0.0180986 0.0070499
0.372896 0.0175895 0.00708912
0.373012 0.0185139 0.0068902
0.372822 0.017657 0.00717082
0.372724 0.0172206 0.00729031
0.372883 0.0179385 0.00700201
0.373141 0.0182866 0.00692409
0.372721 0.0172283 0.00738996
0.378823 0.0175582 0.00743873
0.404182 0.0211142 0.0056569
0.366909 0.0180518 0.00697432
0.372841 0.0177482 0.00704787
0.366888 0.0179542 0.00697473
0.366848 0.0177742 0.00702472
0.372914 0.0172692 0.00724873
0.372609 0.0167343 0.00762214
0.372744 0.0173017 0.00723501
0.379073 0.0179883 0.00718494
0.372959 0.0177279 0.00714536
0.372916 0.0176849 0.00706608
0.372785 0.0173833 0.00727713
0.373022 0.0181599 0.00695163
0.378851 0.0178191 0.00723494
0.372647 0.0168964 0.00751151
0.372875 0.0171071 0.00735933
0.37888 0.0173324 0.0075397
0.378685 0.0170947 0.00752969
0.372936 0.01778 0.00704313
0.378768 0.0174575 0.00738207

VERTICES 277 554
1 0
1 1
1 2
1 3
1 4
1 5
1 6
1 7
1 8
1 9
1 10
1 11
1 12
1 13
1 14
1 15
1 16
1 17
1 18
1 19
1 20
1 21
1 22
1 23
1 24
1 25
1 26
1 27
1 28
1 29
1 30
1 31
1 32
1 33
1 34
1 35
1 36
1 37
1 38
1 39
1 40
1 41
1 42
1 43
1 44
1 45
1 46
1 47
1 48
1 49
1 50
1 51
1 52
1 53
1 54
1 55
1 56
1 57
1 58
1 59
1 60
1 61
1 62
1 63
1 64
1 65
1 66
1 67
1 68
1 69
1 70
1 71
1 72
1 73
1 74
1 75
1 76
1 77
1 78
1 79
1 80
1 81
1 82
1 83
1 84
1 85
1 86
1 87
1 88
1 89
1 90
1 91
1 92
1 93
1 94
1 95
1 96
1 97
1 98
1 99
1 100
1 101
1 102
1 103
1 104
1 105
1 106
1 107
1 108
1 109
1 110
1 111
1 112
1 113
1 114
1 115
1 116
1 117
1 118
1 119
1 120
1 121
1 122
1 123
1 124
1 125
1 126
1 127
1 128
1 129
1 130
1 131
1 132
1 133
1 134
1 135
1 136
1 137
1 138
1 139
1 140
1 141
1 142
1 143
1 144
1 145
1 146
1 147
1 148
1 149
1 150
1 151
1 152
1 153
1 154
1 155
1 156
1 157
1 158
1 159
1 160
1 161
1 162
1 163
1 164
1 165
1 166
1 167
1 168
1 169
1 170
1 171
1 172
1 173
1 174
1 175
1 176
1 177
1 178
1 179
1 180
1 181
1 182
1 183
1 184
1 185
1 186
1 187
1 188
1 189
1 190
1 191
1 192
1 193
1 194
1 195
1 196
1 197
1 198
1 199
1 200
1 201
1 202
1 203
1 204
1 205
1 206
1 207
1 208
1 209
1 210
1 211
1 212
1 213
1 214
1 215
1 216
1 217
1 218
1 219
1 220
1 221
1 222
1 223
1 224
1 225
1 226
1 227
1 228
1 229
1 230
1 231
1 232
1 233
1 234
1 235
1 236
1 237
1 238
1 239
1 240
1 241
1 242
1 243
1 244
1 245
1 246
1 247
1 248
1 249
1 250
1 251
1 252
1 253
1 254
1 255
1 256
1 257
1 258
1 259
1 260
1 261
1 262
1 263
1 264
1 265
1 266
1 267
1 268
1 269
1 270
1 271
1 272
1 273
1 274
1 275
1 276

POINT_DATA 277
SCALARS id int 1
LOOKUP_TABLE default
1
2
3
4
5
6
8
9
10
11
12
13
14
15
16
18
19
20
21
22
24
25
26
27
29
30
31
32
33
34
35
36
38
40
41
42
43
44
45
46
47
48
49
50
52
55
56
57
58
59
60
61
62
63
64
65
66
67
68
69
70
71
72
73
74
75
76
77
78
79
80
81
82
83
84
85
86
87
88
89
90
91
92
93
94
95
96
98
99
100
101
102
103
104
105
106
107
108
109
110
111
113
114
115
116
117
118
119
120
121
122
123
124
125
126
127
128
129
130
131
132
133
134
135
136
137
138
139
140
141
142
144
145
146
147
148
149
150
152
153
154
155
156
157
158
159
160
161
162
164
165
166
167
168
169
170
171
172
173
174
175
176
177
178
179
180
181
182
183
184
185
186
187
188
189
191
192
193
194
195
196
197
198
199
200
201
202
203
204
205
206
207
208
210
211
213
214
215
217
218
220
221
222
223
224
225
226
227
228
229
230
231
232
233
234
235
236
237
238
239
241
242
243
244
245
246
247
248
249
250
251
252
253
254
255
256
257
258
259
260
261
262
263
264
265
267
268
269
270
271
272
273
274
275
276
277
278
279
280
281
282
283
284
285
286
287
288
289
290
292
293
294
295
296
297
298
300

SCALARS type int 1
LOOKUP_TABLE default
1
1
1
1
1
1
1
1
1
1
1
1
1
1
1
1
1
1
1
1
1
1
1
1
1
1
1
1
1
1
1
1
1
1
1
1
1
1
1
1
1
1
1
1
1
1
1
1
1
1
1
1
1
1
1
1
1
1
1
1
1
1
1
1
1
1
1
1
1
1
1
1
1
1
1
1
1
1
1
1
1
1
1
1
1
1
1
1
1
1
1
1
1
1
1
1
1
1
1
1
1
1
1
1
1
1
1
1
1
1
1
1
1
1
1
1
1
1
1
1
1
1
1
1
1
1
1
1
1
1
1
1
1
1
1
1
1
1
1
1
1
1
1
1
1
1
1
1
1
1
1
1
1
1
1
1
1
1
1
1
1
1
1
1
1
1
1
1
1
1
1
1
1
1
1
1
1
1
1
1
1
1
1
1
1
1
1
1
1
1
1
1
1
1
1
1
1
1
1
1
1
1
1
1
1
1
1
1
1
1
1
1
1
1
1
1
1
1
1
1
1
1
1
1
1
1
1
1
1
1
1
1
1
1
1
1
1
1
1
1
1
1
1
1
1
1
1
1
1
1
1
1
1
1
1
1
1
1
1
1
1
1
1
1
1
1
1
1
1
1
1
1
1
1
1
1
1

SCALARS radius float 1
LOOKUP_TABLE default
5e-05
5e-05
5e-05
5e-05
5e-05
5e-05
5e-05
5e-05
5e-05
5e-05
5e-05
5e-05
5e-05
5e-05
5e-05
5e-05
5e-05
5e-05
5e-05
5e-05
5e-05
5e-05
5e-05
5e-05
5e-05
5e-05
5e-05
5e-05
5e-05
5e-05
5e-05
5e-05
5e-05
5e-05
5e-05
5e-05
5e-05
5e-05
5e-05
5e-05
5e-05
5e-05
5e-05
5e-05
5e-05
5e-05
5e-05
5e-05
5e-05
5e-05
5e-05
5e-05
5e-05
5e-05
5e-05
5e-05
5e-05
5e-05
5e-05
5e-05
5e-05
5e-05
5e-05
5e-05
5e-05
5e-05
5e-05
5e-05
5e-05
5e-05
5e-05
5e-05
5e-05
5e-05
5e-05
5e-05
5e-05
5e-05
5e-05
5e-05
5e-05
5e-05
5e-05
5e-05
5e-05
5e-05
5e-05
5e-05
5e-05
5e-05
5e-05
5e-05
5e-05
5e-05
5e-05
5e-05
5e-05
5e-05
5e-05
5e-05
5e-05
5e-05
5e-05
5e-05
5e-05
5e-05
5e-05
5e-05
5e-05
5e-05
5e-05
5e-05
5e-05
5e-05
5e-05
5e-05
5e-05
5e-05
5e-05
5e-05
5e-05
5e-05
5e-05
5e-05
5e-05
5e-05
5e-05
5e-05
5e-05
5e-05
5e-05
5e-05
5e-05
5e-05
5e-05
5e-05
5e-05
5e-05
5e-05
5e-05
5e-05
5e-05
5e-05
5e-05
5e-05
5e-05
5e-05
5e-05
5e-05
5e-05
5e-05
5e-05
5e-05
5e-05
5e-05
5e-05
5e-05
5e-05
5e-05
5e-05
5e-05
5e-05
5e-05
5e-05
5e-05
5e-05
5e-05
5e-05
5e-05
5e-05
5e-05
5e-05
5e-05
5e-05
5e-05
5e-05
5e-05
5e-05
5e-05
5e-05
5e-05
5e-05
5e-05
5e-05
5e-05
5e-05
5e-05
5e-05
5e-05
5e-05
5e-05
5e-05
5e-05
5e-05
5e-05
5e-05
5e-05
5e-05
5e-05
5e-05
5e-05
5e-05
5e-05
5e-05
5e-05
5e-05
5e-05
5e-05
5e-05
5e-05
5e-05
5e-05
5e-05
5e-05
5e-05
5e-05
5e-05
5e-05
5e-05
5e-05
5e-05
5e-05
5e-05
5e-05
5e-05
5e-05
5e-05
5e-05
5e-05
5e-05
5e-05
5e-05
5e-05
5e-05
5e-05
5e-05
5e-05
5e-05
5e-05
5e-05
5e-05
5e-05
5e-05
5e-05
5e-05
5e-05
5e-05
5e-05
5e-05
5e-05
5e-05
5e-05
5e-05
5e-05
5e-05
5e-05
5e-05
5e-05
5e-05
5e-05
5e-05
5e-05
5e-05
5e-05
5e-05
5e-05
5e-05
5e-05
5e-05
5e-05
5e-05
5e-05
5e-05
5e-05
5e-05
5e-05
5e-05

SCALARS mass float 1
LOOKUP_TABLE default
1.46608e-10
1.46608e-10
1.46608e-10
1.46608e-10
1.46608e-10
1.46608e-10
1.46608e-10
1.46608e-10
1.46608e-10
1.46608e-10
1.46608e-10
1.46608e-10
1.46608e-10
1.46608e-10
1.46608e-10
1.46608e-10
1.46608e-10
1.46608e-10
1.46608e-10
1.46608e-10
1.46608e-10
1.46608e-10
1.46608e-10
1.46608e-10
1.46608e-10
1.46608e-10
1.46608e-10
1.46608e-10
1.46608e-10
1.46608e-10
1.46608e-10
1.46608e-10
1.46608e-10
1.46608e-10
1.46608e-10
1.46608e-10
1.46608e-10
1.46608e-10
1.46608e-10
1.46608e-10
1.46608e-10
1.46608e-10
1.46608e-10
1.46608e-10
1.46608e-10
1.46608e-10
1.46608e-10
1.46608e-10
1.46608e-10
1.46608e-10
1.46608e-10
1.46608e-10
1.46608e-10
1.46608e-10
1.46608e-10
1.46608e-10
1.46608e-10
1.46608e-10
1.46608e-10
1.46608e-10
1.46608e-10
1.46608e-10
1.46608e-10
1.46608e-10
1.46608e-10
1.46608e-10
1.46608e-10
1.46608e-10
1.46608e-10
1.46608e-10
1.46608e-10
1.46608e-10
1.46608e-10
1.46608e-10
1.46608e-10
1.46608e-10
1.46608e-10
1.46608e-10
1.46608e-10
1.46608e-10
1.46608e-10
1.46608e-10
1.46608e-10
1.46608e-10
1.46608e-10
1.46608e-10
1.46608e-10
1.46608e-10
1.46608e-10
1.46608e-10
1.46608e-10
1.46608e-10
1.46608e-10
1.46608e-10
1.46608e-10
1.46608e-10
1.46608e-10
1.46608e-10
1.46608e-10
1.46608e-10
1.46608e-10
1.46608e-10
1.46608e-10
1.46608e-10
1.46608e-10
1.46608e-10
1.46608e-10
1.46608e-10
1.46608e-10
1.46608e-10
1.46608e-10
1.46608e-10
1.46608e-10
1.46608e-10
1.46608e-10
1.46608e-10
1.46608e-10
1.46608e-10
1.46608e-10
1.46608e-10
1.46608e-10
1.46608e-10
1.46608e-10
1.46608e-10
1.46608e-10
1.46608e-10
1.46608e-10
1.46608e-10
1.46608e-10
1.46608e-10
1.46608e-10
1.46608e-10
1.46608e-10
1.46608e-10
1.46608e-10
1.46608e-10
1.46608e-10
1.46608e-10
1.46608e-10
1.46608e-10
1.46608e-10
1.46608e-10
1.46608e-10
1.46608e-10
1.46608e-10
1.46608e-10
1.46608e-10
1.46608e-10
1.46608e-10
1.46608e-10
1.46608e-10
1.46608e-10
1.46608e-10
1.46608e-10
1.46608e-10
1.46608e-10
1.46608e-10
1.46608e-10
1.46608e-10
1.46608e-10
1.46608e-10
1.46608e-10
1.46608e-10
1.46608e-10
1.46608e-10
1.46608e-10
1.46608e-10
1.46608e-10
1.46608e-10
1.46608e-10
1.46608e-10
1.46608e-10
1.46608e-10
1.46608e-10
1.46608e-10
1.46608e-10
1.46608e-10
1.46608e-10
1.46608e-10
1.46608e-10
1.46608e-10
1.46608e-10
1.46608e-10
1.46608e-10
1.46608e-10
1.46608e-10
1.46608e-10
1.46608e-10
1.46608e-10
1.46608e-10
1.46608e-10
1.46608e-10
1.46608e-10
1.46608e-10
1.46608e-10
1.46608e-10
1.46608e-10
1.46608e-10
1.46608e-10
1.46608e-10
1.46608e-10
1.46608e-10
1.46608e-10
1.46608e-10
1.46608e-10
1.46608e-10
1.46608e-10
1.46608e-10
1.46608e-10
1.46608e-10
1.46608e-10
1.46608e-10
1.46608e-10
1.46608e-10
1.46608e-10
1.46608e-10
1.46608e-10
1.46608e-10
1.46608e-10
1.46608e-10
1.46608e-10
1.46608e-10
1.46608e-10
1.46608e-10
1.46608e-10
1.46608e-10
1.46608e-10
1.46608e-10
1.46608e-10
1.46608e-10
1.46608e-10
1.46608e-10
1.46608e-10
1.46608e-10
1.46608e-10
1.46608e-10
1.46608e-10
1.46608e-10
1.46608e-10
1.46608e-10
1.46608e-10
1.46608e-10
1.46608e-10
1.46608e-10
1.46608e-10
1.46608e-10
1.46608e-10
1.46608e-10
1.46608e-10
1.46608e-10
1.46608e-10
1.46608e-10
1.46608e-10
1.46608e-10
1.46608e-10
1.46608e-10
1.46608e-10
1.46608e-10
1.46608e-10
1.46608e-10
1.46608e-10
1.46608e-10
1.46608e-10
1.46608e-10
1.46608e-10
1.46608e-10
1.46608e-10
1.46608e-10
1.46608e-10
1.46608e-10
1.46608e-10
1.46608e-10
1.46608e-10
1.46608e-10
1.46608e-10
1.46608e-10
1.46608e-10

VECTORS velocity float
0.00435629 -0.000168449 0.000529304
0.00471011 -0.000196165 0.000550309
0.00443001 -0.0001544 0.000520716
0.00440112 -0.000171615 0.000523989
0.00466326 -0.000538815 0.000142315
1.79759e-18 -8.60318e-21 -1.37249e-15
0.00465681 -0.000549008 0.000155512
-3.50213e-19 8.43786e-21 2.67382e-16
0.00485665 -0.000178766 0.000577217
0.00454447 -0.00023023 0.000565314
-8.52191e-23 -5.32327e-23 -3.70833e-22
0.00483305 -0.000184981 0.000578418
0.00490014 -9.73888e-05 0.000176898
0.00486676 -0.000182243 0.000578954
0.00436852 -0.000102879 -0.000147702
2.81059e-18 2.5941e-22 -2.14593e-15
0.00453566 -6.63786e-05 0.000466754
0.00430553 -0.000163843 0.000513991
0.00468318 -0.000528956 0.000128142
0.00451095 -7.33531e-05 0.000486806
-3.50212e-19 -6.82819e-23 2.67382e-16
0.00446721 -3.4383e-05 0.000472742
2.24034e-18 -9.3008e-21 -1.71051e-15
0.00428506 -5.25319e-05 -0.000168626
0.00464949 -0.000175442 0.000512804
2.24032e-18 -2.01338e-21 -1.71052e-15
0.00460769 -0.000182536 0.000548537
0.00481758 -0.000189165 0.000576414
1.79758e-18 -6.0944e-22 -1.37249e-15
0.00461819 -4.43014e-05 0.000464404
0.0048522 -0.000121368 0.000552527
2.24031e-18 8.73453e-21 -1.71051e-15
0.00460258 -0.000213995 0.000557397
0.0045655 -0.000229579 0.000569304
0.00452664 -4.32194e-05 0.000482221
0.00487469 -0.000158831 0.000569418
0.00453472 -0.00010953 0.000513045
0.00433282 -0.000168336 0.000517504
2.24032e-18 1.43813e-21 -1.71051e-15
-3.50175e-19 1.00312e-20 2.67381e-16
0.00459182 -0.00055221 0.000175626
0.00427857 -0.000161549 0.000509848
-9.20566e-19 2.36067e-23 7.02843e-16
0.00439108 -0.000149387 0.000521624
0.00444884 5.9696e-05 0.000131903
0.00443993 -1.04061e-05 1.42712e-05
0.00472894 -0.000219737 0.000581219
2.24032e-18 2.65217e-22 -1.71052e-15
0.00435226 -6.75908e-05 -0.000161552
-2.09109e-15 5.04126e-14 2.1718e-13
0.00488559 -0.000194114 0.000586188
0.00467778 -0.000519848 0.000117985
0.0043203 -0.000158918 0.000513628
0.00441174 -0.000138413 0.000513322
2.24033e-18 8.68847e-22 -1.71052e-15
0.00442148 -0.000512406 0.000175772
0.00492941 -0.000121316 -0.000131488
0.00474208 -0.000332017 0.000642944
0.0043154 -6.30359e-05 -0.000162926
0.00422301 -0.000131827 0.000490406
-3.50195e-19 7.54884e-21 2.67382e-16
0.00436128 -5.50472e-05 -0.000170461
2.24036e-18 1.89979e-22 -1.71052e-15
0.00449542 -0.000235612 0.000581087
0.00428393 -0.000163954 0.000502213
0.00460713 -0.000270637 0.000538354
2.24035e-18 -5.69819e-21 -1.71051e-15
0.0045815 -5.88026e-05 0.000482559
0.00446908 -0.000109691 -0.000159998
1.64368e-18 1.11781e-20 -1.25496e-15
0.00471992 -0.000247884 0.000591385
0.00490965 -7.22581e-05 0.000181519
0.00445839 3.80751e-05 0.000139183
0.00448239 -0.00010744 -0.000162785
-3.50175e-19 -5.66774e-21 2.67382e-16
0.00436223 -5.90186e-05 -0.000167791
0.00446281 -0.000101233 0.000499772
-9.20572e-19 -1.92929e-23 7.02844e-16
0.00432037 -0.000156236 0.000512368
0.00439086 -0.000154994 0.000519596
0.00431957 -0.000173095 0.000520277
0.00448916 -0.000612356 0.000106071
0.00436542 -0.000176594 0.000525097
0.00432782 -0.000157771 0.000512338
0.00417678 -0.000161987 0.000498663
0.00455609 -0.000148241 0.000530492
0.00459439 -9.06241e-05 0.000509204
0.0044727 -0.000197125 0.000537089
0.00472545 -1.78607e-05 0.000159102
0.00466691 -0.000284888 0.000603949
0.00454658 1.20478e-05 0.000146932
0.00438492 -0.000178067 0.000528421
0.00483272 -8.08968e-05 0.000534521
0.00437126 -8.06162e-05 -0.000152957
0.00445482 6.47259e-05 0.000139388
0.0044113 -0.000184157 0.000548557
0.00445242 -0.000114986 -0.000155962
0.00479982 -0.000143207 0.000551724
0.00445401 -8.93868e-05 0.000489487
0.00454379 -5.9406e-05 0.000484431
0.00467327 -0.000551075 0.000194886
0.00462908 -0.000139354 0.000530617
0.00423058 -6.74876e-05 -0.000155894
0.00430804 -0.000170451 0.000515805
0.0043504 -0.00021208 0.000531558
0.00447558 -0.000217844 0.00056371
0.0049448 -8.68445e-05 -0.000136437
2.24033e-18 -3.28954e-21 -1.71051e-15
0.00436836 -0.000198153 0.000535285
0.0042545 -0.000151 0.00050208
0.00429108 -0.00015137 0.000510178
0.00487489 -3.47563e-05 0.000169625
0.00463352 -0.000113642 0.00052009
0.00483702 -0.000204926 0.000584407
0.00432428 -0.000188409 0.000524946
0.00447426 -9.77202e-05 -0.000158545
0.00480049 -0.000155006 0.000562543
0.00442621 -7.40927e-05 -0.000161075
0.00466789 -0.000538974 0.000146329
0.00492022 -8.32692e-05 0.000184751
0.00440125 -0.000119946 0.000513618
0.0042254 -0.000139172 0.00049393
0.00436559 -0.000178244 0.000528215
0.00431146 -0.000157779 0.000513555
0.00479847 1.33641e-05 0.000142081
0.00432203 -0.000126399 0.000512669
0.00414669 -0.000157355 0.000493771
0.0043283 -0.000153288 0.000510339
0.00466936 -0.000293368 0.000602699
0.00487755 -2.34835e-05 0.000165513
0.00469296 -0.000563444 0.000166048
0.00474937 -0.000133505 0.000522549
0.00430001 -0.000162976 0.000511444
0.00448192 -0.000186652 0.000538611
0.004463 -0.00011221 -0.000158601
0.0046046 -0.000195169 0.000540586
0.00429175 -0.000145207 0.000503733
0.00449542 -0.000604619 0.000246077
0.00438591 -9.07269e-05 -0.000148096
0.00463877 -0.00014319 0.00051758
0.0043395 -6.18602e-05 -0.000161185
0.00436017 -5.58226e-05 -0.000169881
0.00491793 -8.14812e-05 0.000183566
0.00444805 -0.000128068 0.000507869
0.00492738 -8.73944e-05 0.000184024
0.00465504 -0.000320246 0.000613558
0.0044334 -3.47828e-05 -9.30293e-05
0.0041373 -0.000146894 0.000488196
0.00496005 -0.000123031 6.9131e-05
0.00416459 -0.000194033 0.000511314
0.00446894 -5.59822e-05 -0.000180802
0.00428394 -0.000141626 0.00050171
0.00487475 -6.37576e-05 0.000175211
0.00481165 0.00107328 3.35389e-05
0.00493613 -7.46707e-05 0.000188247
0.00492472 -6.62318e-05 0.00017385
0.00464499 -0.000189337 0.000556666
0.00443123 1.06822e-05 0.000137061
0.00440448 -0.0001468 0.000519979
0.0044569 -6.08728e-05 -0.000122287
0.00437513 -8.1407e-05 -0.000156875
0.00433314 -9.77283e-05 -0.000156816
0.00492034 -0.000178219 -0.00012651
0.00445495 -9.2772e-05 -0.000149377
0.00430126 -7.1895e-05 -0.00015625
0.00462288 -5.63476e-05 0.000458112
0.00484485 2.87626e-06 0.000193785
0.00479942 -0.000289673 0.000623206
0.00489831 -6.31675e-05 0.000179753
0.0045692 -0.000153807 0.000523794
0.00436223 -7.13023e-05 -0.000159587
0.00436707 -8.2933e-05 -0.000152682
-3.50221e-19 -2.31424e-22 2.67382e-16
0.00438499 -0.000116495 0.0005159
0.0043084 -0.000189577 0.000518092
0.00448021 -0.000249654 0.000531145
0.00488984 -9.75429e-05 0.000188981
0.00465174 -0.000354665 0.000611516
0.00466074 -0.00052774 0.00013055
0.0044486 8.80194e-05 0.000130511
0.00491775 -8.00832e-05 0.000181243
0.0044285 -0.000243666 0.000546264
0.0044579 5.95896e-05 0.000132821
0.00491547 -8.64998e-05 0.000177074
0.00448261 -9.05009e-05 -0.000152224
0.00465435 -8.23457e-06 0.000155309
0.00490817 -6.6502e-05 0.000178892
0.00485704 -0.000167712 0.000571336
0.00427542 4.76357e-05 -0.000151152
0.00436189 -5.8972e-05 -0.000167844
0.00440559 -9.82247e-05 -0.000143213
0.0043479 -7.3342e-05 -0.000156967
0.00495082 -8.48279e-05 -1.44998e-05
0.00468945 -0.000200007 0.000562882
0.00445555 -0.000303941 0.000398171
2.81054e-18 -4.95352e-24 -2.14593e-15
0.00426887 -0.000182474 0.000453764
0.00436136 -5.96809e-05 -0.000167251
0.00447059 -0.00022034 0.000521069
0.00447205 -1.06335e-06 0.000460167
0.00467767 -0.000134407 0.000543654
0.00435916 -6.56486e-05 -0.000163899
0.00487244 -0.000212472 0.000592443
0.00433771 -5.21563e-05 -0.000171158
0.00449998 -9.24491e-05 -0.000152772
-3.5022e-19 -4.75933e-23 2.67382e-16
0.00436335 -6.91088e-05 -0.000162259
0.00442256 4.62355e-05 0.000135692
0.0043342 -7.39626e-05 -0.000156735
0.00438808 -8.99511e-05 -0.000150077
0.00491667 -5.99747e-05 0.000178335
0.00436008 -5.93183e-05 -0.000167522
0.00488798 -5.0237e-05 0.000170805
0.00417531 -0.000146928 0.000492514
0.00437508 -0.000164186 0.000524816
0.00493312 -0.000155165 -0.000125886
0.00418017 -3.79764e-06 -0.000196148
0.0049114 -5.67003e-05 0.000175067
0.00435203 -7.85037e-05 -0.000155789
0.00438957 0.000113734 6.00351e-05
0.00445966 -0.000104922 -0.00013249
0.00429833 -5.73891e-05 -0.000167613
0.0043757 0.000121736 5.1283e-05
0.00439806 0.000109729 5.9325e-05
0.00492116 -8.21514e-05 0.000184392
0.00443992 2.18418e-05 -2.68213e-05
0.0043842 -3.95333e-05 0.000467767
0.00419123 -0.000117004 0.000481561
0.00493805 -6.28609e-05 0.000178515
0.00468285 -0.000522387 0.00011947
6.80583e-15 2.29894e-14 -7.03245e-14
0.00440022 9.81406e-05 5.30087e-05
0.00495598 -0.000107828 0.00019314
0.00436171 2.22629e-05 2.29289e-05
0.00429697 -4.96353e-05 -0.000170944
0.00470114 -2.56244e-05 0.000162205
0.00456908 1.09924e-05 0.000147962
0.00445996 -0.000107735 -0.000139141
0.00444275 -0.000118677 -0.000132281
0.00460991 -0.000221319 0.00056778
0.00491373 -7.96421e-05 0.000182265
0.00473685 -1.35957e-05 0.000142026
0.00494924 -5.86608e-05 -1.35688e-06
0.0043704 -0.00016308 3.41681e-05
0.00430609 -7.41198e-05 -0.00017212
0.00451731 -0.000198696 0.000547992
0.00492702 -7.6659e-05 0.000183578
0.00471726 -3.44695e-06 0.000257683
0.00492632 -6.05078e-05 0.000184449
0.004455 7.13795e-05 0.00012961
0.00492087 -0.000175424 -0.000129481
0.00445411 4.3088e-05 0.000133758
0.00440323 -9.69497e-05 -0.000144856
0.00487511 -5.31284e-05 0.00017307
0.00493369 -9.19547e-05 0.000188981
0.00441897 -9.02332e-05 -0.000145586
0.0044698 -8.0157e-05 0.000465068
-1.28261e-14 6.09101e-14 -1.90218e-13
0.00490098 -3.91637e-05 -0.000179714
0.00441874 4.06281e-05 0.00013587
0.00493001 -4.20587e-05 4.83438e-05
0.00475786 -4.38237e-05 -2.57864e-06
0.00446947 -8.70665e-05 -0.000147797
0.00428467 -2.70746e-05 -0.00018562
0.00441917 -0.000108629 -0.000138613
0.00473579 -0.000225035 0.000573931
0.00455911 -7.98139e-05 0.000159881
0.0044431 8.22494e-05 0.000127044
0.00443917 -0.000127976 -0.000126561
0.00491838 -8.48789e-05 0.000184442
0.00460993 -8.2337e-05 0.000493259
0.00433818 -6.33669e-05 -0.000163313
0.00440889 -8.72783e-05 -0.000150595
0.00437945 -0.000163307 0.000523209
0.00434971 -0.000139034 0.000506147
0.00432875 0.000107446 0.000119364
0.00444542 -0.000156099 0.000516569

VECTORS force float
-2.07843e-10 3.50043e-10 1.17667e-11
-2.39839e-10 -3.49342e-10 -1.89403e-10
-1.52609e-10 -1.46551e-10 1.20706e-11
-8.07312e-12 4.45026e-11 -4.73523e-11
9.62896e-11 3.75696e-10 -4.58361e-10
0.0 -6.39914e-26 0.0
1.12023e-10 4.5825e-10 -5.67234e-10
4.03897e-28 2.03922e-25 0.0
-1.26397e-11 4.04719e-11 -1.99627e-11
7.01354e-10 -3.22083e-10 1.21187e-10
0.0 0.0 -2.01948e-28
1.06818e-10 1.26601e-10 -1.55029e-12
1.7593e-11 5.66075e-11 -5.99763e-11
-1.10258e-11 -1.03392e-11 -9.80674e-13
1.36678e-10 3.71133e-11 4.56304e-11
0.0 -1.64885e-27 0.0
-2.1704e-10 2.90682e-10 -6.00435e-11
3.87936e-11 -3.33432e-11 1.61631e-11
1.32454e-10 2.30381e-10 -3.06968e-10
-7.45706e-11 -6.88005e-11 -9.11703e-11
0.0 7.70997e-27 0.0
-7.71194e-10 5.18615e-10 -3.14117e-10
-4.03897e-28 2.66063e-25 0.0
-4.75831e-11 -1.8803e-11 1.25251e-11
-4.88198e-10 5.83938e-10 -5.61984e-10
0.0 8.46423e-28 0.0
-8.47505e-10 4.45442e-10 -6.19333e-10
-2.39329e-11 -4.65881e-12 3.96944e-12
0.0 3.92193e-27 0.0
-5.13896e-11 1.24014e-10 -1.86626e-10
6.67314e-12 2.07962e-10 -1.04198e-10
0.0 -2.14968e-26 0.0
-6.06491e-10 1.09157e-10 -8.37215e-11
6.83247e-10 -4.22565e-10 3.08257e-10
-5.74059e-10 2.67243e-10 -2.11757e-10
6.47882e-10 4.38253e-10 -1.12363e-10
-5.19436e-10 1.72836e-10 -1.04804e-10
4.44115e-11 -1.61831e-10 7.06768e-11
0.0 -7.97914e-26 0.0
0.0 -8.3633e-26 0.0
3.44454e-10 -3.77137e-10 2.26236e-10
3.21302e-10 -1.81992e-10 1.27919e-10
0.0 -9.00369e-27 0.0
5.94136e-11 6.00707e-10 -3.30416e-10
9.10226e-12 5.1049e-11 -2.11501e-11
2.45459e-10 -6.66765e-11 1.66083e-10
4.4925e-10 -2.85497e-10 1.33544e-10
0.0 -3.90906e-27 0.0
-2.34227e-11 -7.2108e-12 4.35414e-12
-8.98266e-25 0.0 0.0
-4.3619e-11 2.80227e-11 -2.43637e-11
-2.11319e-11 -2.84227e-11 2.2192e-11
2.29136e-10 -1.4097e-10 7.20298e-11
5.17272e-11 1.18153e-10 -8.37763e-11
0.0 1.89683e-26 0.0
-3.77512e-10 6.14841e-10 4.60803e-10
-2.21467e-11 -1.01301e-10 1.21907e-12
-9.25795e-11 -8.28901e-11 -6.74987e-12
-1.80703e-10 -1.14716e-13 1.42888e-11
-3.49554e-11 -1.42567e-10 7.6073e-11
0.0 -1.60765e-26 0.0
7.78401e-11 -3.85224e-12 -2.92513e-12
0.0 -1.95788e-26 0.0
3.06992e-10 1.1339e-10 1.04585e-10
-1.04205e-10 4.09852e-10 -1.99944e-10
7.68923e-11 -4.78667e-11 -8.0036e-11
0.0 -3.55326e-26 0.0
-8.27627e-11 1.53471e-10 -1.01121e-10
6.1502e-11 4.85733e-11 -3.43943e-11
0.0 -1.59221e-25 0.0
1.66524e-10 5.18924e-12 2.33975e-11
2.58817e-11 9.24624e-11 7.38172e-12
4.27843e-11 2.00149e-10 -4.80148e-11
-7.66307e-12 4.04023e-11 -2.43219e-11
0.0 -7.67969e-26 0.0
9.09483e-11 -5.72068e-11 3.33271e-11
-1.25841e-10 2.23516e-10 -1.48792e-10
0.0 -8.1795e-29 0.0
-9.77436e-11 -1.60031e-11 3.38285e-11
-9.09155e-11 1.35954e-10 -1.36754e-10
1.18349e-11 -1.88476e-10 1.07513e-10
-3.65627e-10 1.98424e-10 3.83649e-10
-1.80292e-10 3.75248e-11 -3.57715e-11
8.01121e-12 8.08123e-11 -2.74368e-11
3.35774e-10 -2.46522e-10 1.37987e-10
-5.16443e-10 2.84847e-10 -3.08061e-10
-3.05521e-10 -7.89347e-11 -4.17009e-12
-6.95051e-10 1.58447e-10 -1.50118e-10
-4.98493e-11 1.93102e-10 -1.33497e-10
1.52784e-10 6.60586e-10 -2.9286e-10
-3.0422e-11 -1.2365e-10 5.64458e-11
-2.37664e-10 2.82075e-10 -3.56464e-11
5.73853e-10 -7.33363e-10 3.47067e-10
1.04148e-11 3.26459e-11 -1.56894e-11
5.57579e-11 -1.43872e-13 5.84132e-11
-1.51347e-10 9.30571e-11 -2.63456e-10
5.42493e-11 1.45603e-10 -1.03268e-10
7.0308e-10 -3.57745e-10 1.7808e-10
-2.79803e-10 1.05706e-10 -2.37314e-10
-1.85258e-12 4.97856e-11 -4.65736e-11
1.70829e-10 -2.10932e-10 4.67914e-10
7.56563e-11 5.26689e-10 -1.88622e-10
-2.33839e-10 8.82851e-11 -4.92602e-11
-3.81343e-12 -1.88845e-10 1.10911e-10
2.94034e-11 7.28963e-12 -2.74862e-11
1.03135e-10 3.04632e-10 -1.14433e-11
-1.47432e-11 -1.50243e-10 1.25691e-11
-4.03897e-28 6.28271e-26 0.0
-1.17886e-10 9.62385e-11 -5.52139e-11
3.91344e-10 -3.42411e-10 1.87806e-10
6.76309e-11 1.21741e-10 -1.60944e-10
3.14606e-11 3.51424e-11 -6.61803e-12
2.12097e-10 3.7647e-10 -1.36881e-10
-3.07005e-10 2.92698e-11 -3.71681e-11
8.00371e-11 -3.10317e-10 1.25564e-10
8.25393e-11 1.52469e-11 2.44093e-11
-1.96467e-10 -2.59877e-10 -6.22863e-11
-5.78081e-11 2.25685e-11 -9.8412e-12
8.00036e-11 -7.26518e-10 7.9637e-10
-1.02104e-10 -1.44369e-10 -9.45561e-12
-2.13272e-10 1.90188e-10 -2.39487e-10
3.65032e-10 -2.26244e-10 1.16845e-10
-2.0146e-10 5.04511e-11 -4.73596e-11
1.17033e-10 -8.34373e-11 3.4799e-11
1.49955e-11 -3.54074e-10 2.0219e-10
-2.53456e-11 -5.28053e-11 4.24927e-11
5.00722e-11 -8.93959e-11 4.39454e-11
-3.38619e-10 -6.95888e-11 -8.29933e-12
-6.32527e-11 -2.49588e-11 2.09564e-11
-1.23454e-10 3.23825e-11 -7.54839e-12
-1.55168e-10 -5.81468e-10 5.89853e-10
2.43656e-10 -4.81972e-12 1.42935e-10
3.15315e-10 1.3467e-11 4.13297e-11
3.01161e-10 3.17099e-10 -4.81886e-10
-1.3199e-11 1.06584e-10 -6.35284e-11
-2.21757e-10 6.91736e-10 -1.65783e-10
6.2382e-11 -5.73361e-11 3.72566e-11
-9.23647e-11 -1.90572e-10 -5.9841e-10
1.49924e-10 -2.81599e-10 1.7614e-10
-4.06906e-10 7.01351e-10 -4.25148e-10
-1.86289e-10 -7.39179e-11 -9.44776e-12
4.88212e-11 -6.16647e-11 3.9977e-11
1.56005e-11 5.98831e-11 -2.06714e-11
-3.15924e-11 2.15147e-10 -1.37572e-10
-3.32773e-11 -1.14579e-10 4.27783e-11
5.35729e-10 -7.29954e-11 9.00406e-11
4.87683e-11 5.80763e-12 -9.56724e-11
1.75438e-10 -1.5442e-10 8.86683e-11
6.29196e-11 1.44163e-10 2.25432e-10
7.71536e-11 -1.51458e-10 7.87318e-11
-1.01198e-10 3.3233e-11 -6.76524e-11
-3.4523e-10 -1.01599e-10 4.32168e-13
1.07996e-10 -3.97246e-11 7.81983e-12
-7.59573e-10 3.7192e-10 -2.49182e-10
-4.60827e-11 -1.14485e-10 7.15772e-11
-9.00609e-11 -5.92039e-11 5.62279e-11
-3.38168e-10 7.31131e-10 -3.77711e-10
2.16565e-11 5.08451e-11 4.62434e-12
-1.25556e-10 8.31992e-11 -6.906e-11
3.60277e-10 -1.97068e-11 -4.04608e-12
1.19498e-10 -2.96604e-11 2.15343e-11
1.05385e-11 -1.01907e-11 3.68587e-11
-1.43833e-11 2.62779e-10 -3.41144e-11
3.38715e-10 3.16234e-11 -1.33583e-11
-1.18132e-10 2.16894e-11 -8.63199e-12
3.23765e-10 8.71585e-11 -3.68345e-11
3.90026e-11 -1.67883e-10 -1.22956e-10
-9.06961e-11 1.40882e-10 -9.69833e-11
1.40538e-10 1.3131e-10 -3.15608e-11
-8.90695e-10 5.29401e-10 -4.06006e-10
-1.44275e-11 -1.14849e-10 7.72366e-11
2.9355e-11 -1.54814e-10 1.15633e-10
4.03897e-28 8.07243e-27 0.0
-1.37729e-10 8.8539e-11 -1.48561e-11
-5.51346e-11 8.39847e-12 1.50273e-10
-5.14862e-10 4.10512e-11 -2.28958e-10
2.24721e-10 4.00706e-12 1.67862e-11
1.45602e-10 -2.21379e-10 -6.49565e-11
1.41732e-10 -5.63844e-10 7.50843e-10
-6.79964e-11 9.47198e-11 -1.77648e-11
-4.90273e-11 -1.72143e-10 3.77393e-11
-6.80723e-10 1.37745e-10 3.12843e-11
-1.11443e-11 8.73502e-12 -1.46432e-11
-5.2183e-11 -1.2553e-10 6.29358e-11
3.16706e-11 -1.26767e-11 2.95421e-11
2.71156e-11 2.26503e-10 -2.93794e-11
-1.98514e-11 -1.05027e-10 3.31241e-12
2.85605e-11 2.43243e-11 -1.2346e-11
-2.28174e-10 1.77911e-10 -3.61343e-10
-3.00073e-11 2.10715e-11 -1.52034e-11
4.14949e-10 -2.089e-10 1.21057e-10
-1.51172e-10 4.25271e-12 4.64973e-12
4.06673e-11 -1.9593e-10 -5.08621e-10
-1.82593e-10 5.01202e-10 -1.50121e-10
5.67258e-11 1.56287e-10 -3.43357e-10
0.0 -6.1896e-28 0.0
-2.46999e-11 1.43043e-10 -6.69053e-10
-9.1118e-11 4.77071e-11 -2.88123e-11
1.37255e-10 2.31926e-10 -3.49262e-10
1.06682e-09 -9.29512e-10 4.94365e-10
-3.72191e-10 -2.22446e-10 5.57751e-12
9.6766e-12 -4.98614e-11 1.62079e-11
-1.90468e-10 -4.30985e-11 4.80672e-11
4.94096e-11 1.36224e-12 7.21701e-13
2.72268e-11 -4.65317e-11 5.31669e-11
0.0 -2.85927e-28 0.0
-7.51863e-11 1.96496e-11 1.25481e-11
-1.34308e-10 -1.0794e-10 -2.537e-11
-7.96703e-11 -2.41385e-11 2.82654e-11
5.81171e-11 -9.72313e-11 5.48406e-11
-1.65028e-11 -1.61716e-10 3.1618e-11
3.43054e-11 -2.37155e-11 1.67276e-11
5.06956e-11 -7.95795e-11 5.1952e-11
-1.09578e-10 -6.35562e-11 2.43653e-11
-1.25086e-10 -1.00285e-10 -1.0207e-11
-1.42758e-10 2.19694e-10 -1.09805e-10
-3.03916e-10 1.234e-10 -6.86129e-11
-3.06674e-11 -1.76715e-10 5.54518e-11
-2.11822e-11 -9.75309e-11 6.68172e-11
1.96576e-11 3.07514e-11 -7.00747e-11
3.08806e-10 -1.15393e-10 6.11625e-11
6.72018e-11 4.67199e-11 -1.50688e-11
5.92236e-11 1.40408e-10 -2.59036e-11
-2.48785e-11 -2.2055e-11 -6.55702e-11
-2.22192e-12 -1.29808e-10 3.3326e-11
3.33542e-10 2.1354e-10 6.6428e-11
-2.22679e-10 -2.06562e-10 9.76252e-11
1.11674e-11 2.21555e-11 -6.59192e-12
-1.45579e-11 -1.7574e-10 3.68564e-11
-3.92589e-11 -2.98855e-10 3.64106e-10
-1.73449e-23 -7.13443e-24 -4.75629e-24
-3.72119e-10 -2.69058e-10 -1.27974e-11
1.50264e-10 -5.37326e-11 1.61563e-10
-3.23812e-10 -4.83406e-12 -1.58265e-10
6.72091e-11 -2.07519e-11 8.93291e-12
-1.25925e-10 -7.56725e-11 2.72416e-11
9.47255e-11 1.94606e-10 -5.27074e-11
4.17819e-10 -1.94614e-10 4.3002e-11
1.60944e-10 7.23494e-13 3.90599e-11
-1.07422e-09 3.31264e-10 -1.53205e-10
-6.89959e-11 -7.66879e-11 -4.54313e-12
1.43057e-10 1.03415e-10 -5.87928e-11
-1.6502e-10 1.74852e-10 -3.14376e-11
-3.55964e-11 1.2667e-10 -9.65183e-12
-1.37488e-11 1.75711e-10 -3.59894e-12
-1.62647e-10 2.84519e-10 -1.22583e-10
2.32139e-11 -1.01836e-11 -2.93919e-11
9.29033e-11 -1.59023e-10 -1.46559e-10
1.19298e-10 4.18148e-11 4.01242e-11
-9.61879e-11 5.72892e-11 -2.96414e-11
2.11602e-11 1.87657e-10 -1.18118e-10
2.70787e-11 1.89654e-10 -3.88232e-11
1.36778e-10 -1.02295e-10 7.5274e-11
-5.88863e-11 8.17734e-11 -4.60583e-11
-1.7646e-11 -1.08111e-10 1.27598e-11
-4.63364e-11 -2.40598e-10 1.22548e-10
-1.07896e-10 1.91677e-10 -3.24831e-11
1.38178e-22 -4.0842e-23 -1.67504e-23
2.07073e-10 -1.48597e-10 1.39512e-10
5.85929e-12 -4.3908e-11 7.3079e-12
2.69657e-11 -1.32929e-11 -9.27266e-11
-2.18109e-10 2.72961e-10 -9.2258e-11
4.85107e-10 -8.19186e-12 1.00274e-11
-1.24601e-10 -1.67293e-11 1.15003e-11
4.03483e-11 -3.76487e-11 3.51868e-11
6.19111e-11 -1.09013e-10 1.09212e-10
4.11583e-11 -1.97469e-10 1.35146e-10
7.65649e-11 -9.44209e-12 1.40041e-12
3.64484e-10 -1.94499e-10 1.34901e-10
-1.38812e-11 -4.67624e-11 1.42674e-11
-2.27837e-10 8.77376e-11 -1.53392e-10
-1.04831e-10 -3.8526e-11 3.11815e-11
8.01872e-11 1.0423e-10 -5.63108e-11
-3.53088e-10 1.12336e-10 -2.55455e-10
-2.34249e-11 2.21316e-12 2.14318e-12
3.81346e-10 -1.77449e-10 5.14303e-11
-8.99642e-11 -1.73452e-10 -1.30097e-11
