# vtk DataFile Version 3.0
LIGGGHTS particles timestep 21200000
ASCII
DATASET POLYDATA
POINTS 289 float
0.1103 0.0168459 0.00761231
0.110631 0.0179322 0.00708864
0.110476 0.0178256 0.00723018
0.110536 0.0179041 0.00710561
0.109887 0.0162945 0.00800022
0.115911 0.0164443 0.00801015
0.110036 0.0168402 0.00759585
0.109862 0.0161995 0.00805867
0.116207 0.0175741 0.00712609
0.110271 0.0176668 0.00730085
0.110286 0.0171477 0.00741454
0.116174 0.0173919 0.00716108
0.110179 0.0174568 0.00739327
0.103791 0.0159179 0.0082273
0.110191 0.0171176 0.00742687
0.103769 0.0158366 0.00828139
0.110204 0.0173624 0.00741514
0.116118 0.0171703 0.00735483
0.110099 0.0171057 0.00753733
0.110439 0.0174445 0.00727675
0.109908 0.0163623 0.00792997
0.110171 0.0170366 0.00748208
0.116135 0.017243 0.0072884
0.110151 0.0169522 0.00753165
0.11602 0.0168066 0.00768358
0.104104 0.0171135 0.00737805
0.110122 0.017202 0.00749946
0.115889 0.0163718 0.00807553
0.110348 0.0175959 0.0073189
0.110116 0.0171788 0.00740239
0.115932 0.0165167 0.00794476
0.110386 0.0177847 0.00724995
0.110226 0.016899 0.00757201
0.116243 0.0177678 0.00716029
0.110016 0.0167574 0.00764828
0.110131 0.0168694 0.00758407
0.116063 0.0169531 0.00755439
0.110056 0.016923 0.00754344
0.110163 0.0166498 0.00772972
0.110077 0.0170098 0.00749829
0.110325 0.0173244 0.00732806
0.110575 0.018088 0.00703714
0.115954 0.0165892 0.00787938
0.116041 0.0168791 0.00761787
0.109951 0.0165097 0.0078048
0.110419 0.0173525 0.007311
0.115997 0.0167342 0.00774862
0.110289 0.0175721 0.00724227
0.104406 0.0172786 0.00726922
0.116081 0.0170244 0.00748651
0.110341 0.0170118 0.00750727
0.103813 0.0159992 0.00817322
0.110401 0.0178895 0.00721291
0.115976 0.0166617 0.007814
0.104122 0.0168253 0.00759401
0.116152 0.0173161 0.00722245
0.1104 0.0172618 0.00734883
0.10993 0.0164272 0.00785697
0.110305 0.0172324 0.00736224
0.110517 0.0178122 0.00713984
0.1161 0.0170971 0.00742079
0.109842 0.0161059 0.0080918
0.104255 0.0170123 0.00746075
0.110458 0.0175364 0.00724253
0.104217 0.0168541 0.00757705
0.110096 0.0170879 0.00743898
0.116261 0.0178646 0.00717739
0.103834 0.0160809 0.00811978
0.116189 0.017477 0.00711057
0.109973 0.0165923 0.00775264
0.110709 0.0183019 0.00695098
0.109995 0.0166749 0.00770047
0.116277 0.0174324 0.00712446
0.11037 0.0183712 0.00695125
0.103877 0.0162444 0.00801288
0.103985 0.0166395 0.00772621
0.110461 0.017968 0.00708835
0.104371 0.0177945 0.00709759
0.104122 0.0171926 0.0073199
0.103899 0.0163244 0.00795698
0.116264 0.0173593 0.00719136
0.103951 0.016185 0.00804507
0.110296 0.0178871 0.00721624
0.116225 0.017671 0.00714317
0.110347 0.0178479 0.00713959
0.110422 0.0177841 0.00715681
0.110403 0.0176922 0.00719104
0.11023 0.0172962 0.00734502
0.1105 0.018152 0.00701981
0.110445 0.0183078 0.00696832
0.110328 0.017756 0.00717381
0.11035 0.0182793 0.00698548
0.110386 0.0180317 0.00707114
0.110369 0.0182566 0.00708104
0.10416 0.0169835 0.00747776
0.110595 0.0181801 0.00700285
0.104312 0.0168828 0.00756016
0.110155 0.0173601 0.00732772
0.110266 0.0170649 0.00746697
0.104293 0.0171706 0.00734441
0.103856 0.0161628 0.0080666
0.110194 0.017544 0.00725927
0.103908 0.0160224 0.00815325
0.110367 0.0176909 0.0072844
0.110344 0.0174164 0.00729373
0.110233 0.0177278 0.00719082
0.110331 0.0181874 0.0070197
0.104046 0.0168762 0.00755239
0.110253 0.0178197 0.0071566
0.104177 0.0174321 0.00714383
0.110505 0.0180353 0.00714799
0.110572 0.0176564 0.00719133
0.109822 0.0160119 0.00811942
0.104253 0.0173806 0.0071858
0.115867 0.0162993 0.00814091
0.110246 0.0169817 0.00751964
0.1098 0.0159293 0.00817159
0.110633 0.0183651 0.006934
0.104038 0.0165085 0.00782641
0.110539 0.0183359 0.00695135
0.110068 0.0166209 0.00774127
0.110211 0.0172063 0.00738449
0.103942 0.016482 0.00784166
0.110308 0.0176641 0.00720804
0.104198 0.017142 0.00736129
0.110136 0.0172689 0.00736381
0.104274 0.0170915 0.00740259
0.11065 0.0180241 0.00705441
0.110111 0.0167867 0.00763644
0.110364 0.0175083 0.00725951
0.110321 0.016929 0.00755974
0.103886 0.0159411 0.00820734
0.11052 0.0182439 0.00698559
0.110442 0.017876 0.00712258
0.110383 0.0176003 0.00722527
0.110352 0.0181638 0.00711447
0.103973 0.0162663 0.007991
0.11025 0.0173883 0.00731072
0.110269 0.0174802 0.0072765
0.110214 0.0176359 0.00722505
0.11053 0.0186896 0.00684258
0.103929 0.0161037 0.00809916
0.110175 0.0174521 0.00729349
0.110367 0.0179398 0.00710536
0.109779 0.0158468 0.00822375
0.10429 0.017543 0.00707214
0.109757 0.0157642 0.00827592
0.104159 0.0173511 0.00720339
0.104006 0.0167183 0.00766837
0.104236 0.0169332 0.00751892
0.110428 0.0183997 0.00702698
0.104179 0.0170629 0.00741944
0.110025 0.0164558 0.00784561
0.104406 0.0176715 0.00704111
0.11051 0.0185935 0.00686166
0.104424 0.0173578 0.00721098
0.110389 0.0184632 0.00691703
0.10433 0.017329 0.00722806
0.110185 0.0167335 0.00767679
0.104178 0.0166961 0.00769308
0.110292 0.0180036 0.00708815
0.104635 0.0179241 0.00697845
0.104272 0.0174605 0.00712713
0.110615 0.0182726 0.00696834
0.104558 0.0179909 0.00696775
0.110653 0.0184595 0.00689886
0.10437 0.0174957 0.00712682
0.104768 0.0181523 0.00698824
0.104085 0.0170344 0.00743623
0.104446 0.0174365 0.0071533
0.104311 0.0172498 0.00728623
0.104196 0.0175158 0.0070925
0.110272 0.0179117 0.00712237
0.104082 0.0166673 0.00771
0.11009 0.0167035 0.00768902
0.104501 0.017702 0.00703111
0.110611 0.0178402 0.00712287
0.10431 0.0176391 0.00705031
0.104397 0.0178982 0.00707698
0.116281 0.0179611 0.00719464
0.110449 0.0187486 0.00684263
0.11038 0.0171789 0.00740135
0.104215 0.0176083 0.00705976
0.110559 0.0184297 0.00691641
0.104298 0.0178632 0.00708617
0.110406 0.0181237 0.0070369
0.109976 0.0162908 0.00794936
0.104653 0.0180223 0.00697679
0.104158 0.0166171 0.00775107
0.109942 0.0162109 0.00799886
0.104102 0.0167463 0.007652
0.104595 0.0177328 0.00702166
0.103964 0.0165607 0.00778394
0.104428 0.0182196 0.0069568
0.104465 0.0176775 0.00712135
0.110206 0.0168162 0.00762442
0.104466 0.0178267 0.00708812
0.104141 0.0172718 0.00726172
0.104347 0.0174082 0.0071697
0.104331 0.0169619 0.00750199
0.10452 0.0177977 0.00700937
0.104066 0.0169553 0.00749435
0.110592 0.0177483 0.00715711
0.110465 0.0184002 0.0069339
0.116315 0.0176275 0.00714388
0.110311 0.0180955 0.00705393
0.104217 0.0172212 0.0073031
0.104236 0.0173003 0.00724492
0.110608 0.0186267 0.00684257
0.110409 0.0185571 0.00688204
0.110425 0.0182156 0.00700267
0.110047 0.0165383 0.00779344
0.104059 0.0165872 0.00776869
0.110003 0.0163731 0.00789784
0.104026 0.0167973 0.00761039
0.10392 0.0164033 0.00789939
0.116297 0.0175304 0.00712868
0.104445 0.0178625 0.00699711
0.103748 0.0157553 0.00833547
0.10433 0.0177349 0.00702857
0.104141 0.0169043 0.00753596
0.104693 0.0182183 0.00698161
0.104255 0.0177998 0.00701628
0.104198 0.0167751 0.00763509
0.110483 0.0184924 0.00689968
0.110481 0.0180599 0.00705411
0.104393 0.0184805 0.00695497
0.104333 0.0181854 0.00694776
0.104544 0.0183505 0.00696838
0.104349 0.0178307 0.00700681
0.098061 0.0169069 0.00739972
0.104314 0.0180867 0.00695114
0.104369 0.0179264 0.00698508
0.0980427 0.0168321 0.00746344
0.0980795 0.0169818 0.00733603
0.104389 0.018022 0.00696337
0.0981175 0.0171518 0.00724877
0.109918 0.0160436 0.00810616
0.110577 0.018522 0.00688219
0.104274 0.0178955 0.00699457
0.109931 0.0161272 0.0080526
0.110361 0.0170947 0.00745475
0.0980975 0.0170567 0.00727228
0.104481 0.0176062 0.00705285
0.104426 0.0177669 0.00701882
0.10435 0.017041 0.00744383
0.104294 0.0179911 0.00697285
0.104709 0.0183258 0.00698372
0.104522 0.0182528 0.00696585
0.104615 0.0178284 0.00699995
0.110556 0.017996 0.00707137
0.104371 0.0183829 0.00695243
0.104619 0.0182846 0.00697502
0.098176 0.0174374 0.00717816
0.104447 0.0183183 0.00695918
0.104235 0.0177039 0.00703805
0.110429 0.0186517 0.00685637
0.104387 0.0171993 0.00732747
0.10454 0.0178937 0.00698758
0.104484 0.0180574 0.00697596
0.104503 0.0181547 0.00696351
0.104483 0.0185219 0.00696368
0.104559 0.0184574 0.00697043
0.104465 0.0179595 0.00698248
0.104599 0.0181866 0.00697262
0.104674 0.0181202 0.00697925
0.104414 0.0185353 0.00703586
0.110447 0.0184919 0.00699305
0.098137 0.017247 0.00722523
0.0981955 0.0175326 0.00715463
0.104462 0.0175164 0.00709443
0.098215 0.0176279 0.0071311
0.0981565 0.0173422 0.0072017
0.104408 0.0181197 0.00695442
0.104352 0.0182849 0.00695714
0.104579 0.018089 0.00698031
0.110289 0.0177645 0.00726548
0.104469 0.0184162 0.00696173
0.103994 0.0163482 0.00793783
0.104635 0.0183917 0.00697708
0.104576 0.0176368 0.00704346
0.110497 0.0177202 0.00717408
0.104419 0.018598 0.00695806
0.104016 0.0164291 0.00788322
0.110599 0.0180634 0.00713102
0.110553 0.0175644 0.00722556
0.104387 0.017579 0.00707416
0.104368 0.0171202 0.00738565
0.110478 0.0176283 0.0072083

VERTICES 289 578
1 0
1 1
1 2
1 3
1 4
1 5
1 6
1 7
1 8
1 9
1 10
1 11
1 12
1 13
1 14
1 15
1 16
1 17
1 18
1 19
1 20
1 21
1 22
1 23
1 24
1 25
1 26
1 27
1 28
1 29
1 30
1 31
1 32
1 33
1 34
1 35
1 36
1 37
1 38
1 39
1 40
1 41
1 42
1 43
1 44
1 45
1 46
1 47
1 48
1 49
1 50
1 51
1 52
1 53
1 54
1 55
1 56
1 57
1 58
1 59
1 60
1 61
1 62
1 63
1 64
1 65
1 66
1 67
1 68
1 69
1 70
1 71
1 72
1 73
1 74
1 75
1 76
1 77
1 78
1 79
1 80
1 81
1 82
1 83
1 84
1 85
1 86
1 87
1 88
1 89
1 90
1 91
1 92
1 93
1 94
1 95
1 96
1 97
1 98
1 99
1 100
1 101
1 102
1 103
1 104
1 105
1 106
1 107
1 108
1 109
1 110
1 111
1 112
1 113
1 114
1 115
1 116
1 117
1 118
1 119
1 120
1 121
1 122
1 123
1 124
1 125
1 126
1 127
1 128
1 129
1 130
1 131
1 132
1 133
1 134
1 135
1 136
1 137
1 138
1 139
1 140
1 141
1 142
1 143
1 144
1 145
1 146
1 147
1 148
1 149
1 150
1 151
1 152
1 153
1 154
1 155
1 156
1 157
1 158
1 159
1 160
1 161
1 162
1 163
1 164
1 165
1 166
1 167
1 168
1 169
1 170
1 171
1 172
1 173
1 174
1 175
1 176
1 177
1 178
1 179
1 180
1 181
1 182
1 183
1 184
1 185
1 186
1 187
1 188
1 189
1 190
1 191
1 192
1 193
1 194
1 195
1 196
1 197
1 198
1 199
1 200
1 201
1 202
1 203
1 204
1 205
1 206
1 207
1 208
1 209
1 210
1 211
1 212
1 213
1 214
1 215
1 216
1 217
1 218
1 219
1 220
1 221
1 222
1 223
1 224
1 225
1 226
1 227
1 228
1 229
1 230
1 231
1 232
1 233
1 234
1 235
1 236
1 237
1 238
1 239
1 240
1 241
1 242
1 243
1 244
1 245
1 246
1 247
1 248
1 249
1 250
1 251
1 252
1 253
1 254
1 255
1 256
1 257
1 258
1 259
1 260
1 261
1 262
1 263
1 264
1 265
1 266
1 267
1 268
1 269
1 270
1 271
1 272
1 273
1 274
1 275
1 276
1 277
1 278
1 279
1 280
1 281
1 282
1 283
1 284
1 285
1 286
1 287
1 288

POINT_DATA 289
SCALARS id int 1
LOOKUP_TABLE default
1
2
3
4
5
6
7
8
9
10
11
12
13
14
15
16
17
18
19
20
21
22
24
25
26
27
29
30
31
32
33
34
35
36
37
38
39
40
41
42
43
44
45
46
47
48
49
50
52
53
54
55
56
57
58
59
60
61
62
63
64
65
66
67
68
69
70
71
72
73
74
75
76
77
78
79
80
81
82
83
84
85
86
87
88
89
90
91
92
93
94
95
96
98
99
100
101
102
103
104
105
106
107
108
109
110
111
112
113
114
115
116
117
118
119
120
121
122
123
124
125
126
127
128
129
130
131
132
133
134
135
136
137
138
139
140
141
142
144
145
146
147
148
149
150
152
153
154
155
156
157
158
159
160
161
162
164
165
166
167
168
169
170
171
172
173
174
175
176
177
178
179
180
181
182
183
184
185
186
187
188
189
190
191
192
193
194
195
196
197
198
199
200
201
202
203
204
205
206
207
208
209
210
211
213
214
215
216
217
218
219
220
221
222
223
224
225
226
227
228
229
230
231
232
233
234
235
236
237
238
239
241
242
243
244
245
246
247
248
249
250
251
252
253
254
255
256
257
258
259
260
261
262
263
264
265
267
268
269
270
271
272
273
274
275
276
277
278
279
280
281
282
283
284
285
286
287
288
289
290
292
293
294
295
296
297
298
299
300

SCALARS type int 1
LOOKUP_TABLE default
1
1
1
1
1
1
1
1
1
1
1
1
1
1
1
1
1
1
1
1
1
1
1
1
1
1
1
1
1
1
1
1
1
1
1
1
1
1
1
1
1
1
1
1
1
1
1
1
1
1
1
1
1
1
1
1
1
1
1
1
1
1
1
1
1
1
1
1
1
1
1
1
1
1
1
1
1
1
1
1
1
1
1
1
1
1
1
1
1
1
1
1
1
1
1
1
1
1
1
1
1
1
1
1
1
1
1
1
1
1
1
1
1
1
1
1
1
1
1
1
1
1
1
1
1
1
1
1
1
1
1
1
1
1
1
1
1
1
1
1
1
1
1
1
1
1
1
1
1
1
1
1
1
1
1
1
1
1
1
1
1
1
1
1
1
1
1
1
1
1
1
1
1
1
1
1
1
1
1
1
1
1
1
1
1
1
1
1
1
1
1
1
1
1
1
1
1
1
1
1
1
1
1
1
1
1
1
1
1
1
1
1
1
1
1
1
1
1
1
1
1
1
1
1
1
1
1
1
1
1
1
1
1
1
1
1
1
1
1
1
1
1
1
1
1
1
1
1
1
1
1
1
1
1
1
1
1
1
1
1
1
1
1
1
1
1
1
1
1
1
1
1
1
1
1
1
1
1
1
1
1
1
1
1
1
1
1
1
1

SCALARS radius float 1
LOOKUP_TABLE default
5e-05
5e-05
5e-05
5e-05
5e-05
5e-05
5e-05
5e-05
5e-05
5e-05
5e-05
5e-05
5e-05
5e-05
5e-05
5e-05
5e-05
5e-05
5e-05
5e-05
5e-05
5e-05
5e-05
5e-05
5e-05
5e-05
5e-05
5e-05
5e-05
5e-05
5e-05
5e-05
5e-05
5e-05
5e-05
5e-05
5e-05
5e-05
5e-05
5e-05
5e-05
5e-05
5e-05
5e-05
5e-05
5e-05
5e-05
5e-05
5e-05
5e-05
5e-05
5e-05
5e-05
5e-05
5e-05
5e-05
5e-05
5e-05
5e-05
5e-05
5e-05
5e-05
5e-05
5e-05
5e-05
5e-05
5e-05
5e-05
5e-05
5e-05
5e-05
5e-05
5e-05
5e-05
5e-05
5e-05
5e-05
5e-05
5e-05
5e-05
5e-05
5e-05
5e-05
5e-05
5e-05
5e-05
5e-05
5e-05
5e-05
5e-05
5e-05
5e-05
5e-05
5e-05
5e-05
5e-05
5e-05
5e-05
5e-05
5e-05
5e-05
5e-05
5e-05
5e-05
5e-05
5e-05
5e-05
5e-05
5e-05
5e-05
5e-05
5e-05
5e-05
5e-05
5e-05
5e-05
5e-05
5e-05
5e-05
5e-05
5e-05
5e-05
5e-05
5e-05
5e-05
5e-05
5e-05
5e-05
5e-05
5e-05
5e-05
5e-05
5e-05
5e-05
5e-05
5e-05
5e-05
5e-05
5e-05
5e-05
5e-05
5e-05
5e-05
5e-05
5e-05
5e-05
5e-05
5e-05
5e-05
5e-05
5e-05
5e-05
5e-05
5e-05
5e-05
5e-05
5e-05
5e-05
5e-05
5e-05
5e-05
5e-05
5e-05
5e-05
5e-05
5e-05
5e-05
5e-05
5e-05
5e-05
5e-05
5e-05
5e-05
5e-05
5e-05
5e-05
5e-05
5e-05
5e-05
5e-05
5e-05
5e-05
5e-05
5e-05
5e-05
5e-05
5e-05
5e-05
5e-05
5e-05
5e-05
5e-05
5e-05
5e-05
5e-05
5e-05
5e-05
5e-05
5e-05
5e-05
5e-05
5e-05
5e-05
5e-05
5e-05
5e-05
5e-05
5e-05
5e-05
5e-05
5e-05
5e-05
5e-05
5e-05
5e-05
5e-05
5e-05
5e-05
5e-05
5e-05
5e-05
5e-05
5e-05
5e-05
5e-05
5e-05
5e-05
5e-05
5e-05
5e-05
5e-05
5e-05
5e-05
5e-05
5e-05
5e-05
5e-05
5e-05
5e-05
5e-05
5e-05
5e-05
5e-05
5e-05
5e-05
5e-05
5e-05
5e-05
5e-05
5e-05
5e-05
5e-05
5e-05
5e-05
5e-05
5e-05
5e-05
5e-05
5e-05
5e-05
5e-05
5e-05
5e-05
5e-05
5e-05
5e-05
5e-05
5e-05
5e-05
5e-05
5e-05
5e-05
5e-05
5e-05
5e-05
5e-05
5e-05
5e-05
5e-05
5e-05
5e-05
5e-05
5e-05
5e-05
5e-05
5e-05
5e-05
5e-05
5e-05

SCALARS mass float 1
LOOKUP_TABLE default
1.46608e-10
1.46608e-10
1.46608e-10
1.46608e-10
1.46608e-10
1.46608e-10
1.46608e-10
1.46608e-10
1.46608e-10
1.46608e-10
1.46608e-10
1.46608e-10
1.46608e-10
1.46608e-10
1.46608e-10
1.46608e-10
1.46608e-10
1.46608e-10
1.46608e-10
1.46608e-10
1.46608e-10
1.46608e-10
1.46608e-10
1.46608e-10
1.46608e-10
1.46608e-10
1.46608e-10
1.46608e-10
1.46608e-10
1.46608e-10
1.46608e-10
1.46608e-10
1.46608e-10
1.46608e-10
1.46608e-10
1.46608e-10
1.46608e-10
1.46608e-10
1.46608e-10
1.46608e-10
1.46608e-10
1.46608e-10
1.46608e-10
1.46608e-10
1.46608e-10
1.46608e-10
1.46608e-10
1.46608e-10
1.46608e-10
1.46608e-10
1.46608e-10
1.46608e-10
1.46608e-10
1.46608e-10
1.46608e-10
1.46608e-10
1.46608e-10
1.46608e-10
1.46608e-10
1.46608e-10
1.46608e-10
1.46608e-10
1.46608e-10
1.46608e-10
1.46608e-10
1.46608e-10
1.46608e-10
1.46608e-10
1.46608e-10
1.46608e-10
1.46608e-10
1.46608e-10
1.46608e-10
1.46608e-10
1.46608e-10
1.46608e-10
1.46608e-10
1.46608e-10
1.46608e-10
1.46608e-10
1.46608e-10
1.46608e-10
1.46608e-10
1.46608e-10
1.46608e-10
1.46608e-10
1.46608e-10
1.46608e-10
1.46608e-10
1.46608e-10
1.46608e-10
1.46608e-10
1.46608e-10
1.46608e-10
1.46608e-10
1.46608e-10
1.46608e-10
1.46608e-10
1.46608e-10
1.46608e-10
1.46608e-10
1.46608e-10
1.46608e-10
1.46608e-10
1.46608e-10
1.46608e-10
1.46608e-10
1.46608e-10
1.46608e-10
1.46608e-10
1.46608e-10
1.46608e-10
1.46608e-10
1.46608e-10
1.46608e-10
1.46608e-10
1.46608e-10
1.46608e-10
1.46608e-10
1.46608e-10
1.46608e-10
1.46608e-10
1.46608e-10
1.46608e-10
1.46608e-10
1.46608e-10
1.46608e-10
1.46608e-10
1.46608e-10
1.46608e-10
1.46608e-10
1.46608e-10
1.46608e-10
1.46608e-10
1.46608e-10
1.46608e-10
1.46608e-10
1.46608e-10
1.46608e-10
1.46608e-10
1.46608e-10
1.46608e-10
1.46608e-10
1.46608e-10
1.46608e-10
1.46608e-10
1.46608e-10
1.46608e-10
1.46608e-10
1.46608e-10
1.46608e-10
1.46608e-10
1.46608e-10
1.46608e-10
1.46608e-10
1.46608e-10
1.46608e-10
1.46608e-10
1.46608e-10
1.46608e-10
1.46608e-10
1.46608e-10
1.46608e-10
1.46608e-10
1.46608e-10
1.46608e-10
1.46608e-10
1.46608e-10
1.46608e-10
1.46608e-10
1.46608e-10
1.46608e-10
1.46608e-10
1.46608e-10
1.46608e-10
1.46608e-10
1.46608e-10
1.46608e-10
1.46608e-10
1.46608e-10
1.46608e-10
1.46608e-10
1.46608e-10
1.46608e-10
1.46608e-10
1.46608e-10
1.46608e-10
1.46608e-10
1.46608e-10
1.46608e-10
1.46608e-10
1.46608e-10
1.46608e-10
1.46608e-10
1.46608e-10
1.46608e-10
1.46608e-10
1.46608e-10
1.46608e-10
1.46608e-10
1.46608e-10
1.46608e-10
1.46608e-10
1.46608e-10
1.46608e-10
1.46608e-10
1.46608e-10
1.46608e-10
1.46608e-10
1.46608e-10
1.46608e-10
1.46608e-10
1.46608e-10
1.46608e-10
1.46608e-10
1.46608e-10
1.46608e-10
1.46608e-10
1.46608e-10
1.46608e-10
1.46608e-10
1.46608e-10
1.46608e-10
1.46608e-10
1.46608e-10
1.46608e-10
1.46608e-10
1.46608e-10
1.46608e-10
1.46608e-10
1.46608e-10
1.46608e-10
1.46608e-10
1.46608e-10
1.46608e-10
1.46608e-10
1.46608e-10
1.46608e-10
1.46608e-10
1.46608e-10
1.46608e-10
1.46608e-10
1.46608e-10
1.46608e-10
1.46608e-10
1.46608e-10
1.46608e-10
1.46608e-10
1.46608e-10
1.46608e-10
1.46608e-10
1.46608e-10
1.46608e-10
1.46608e-10
1.46608e-10
1.46608e-10
1.46608e-10
1.46608e-10
1.46608e-10
1.46608e-10
1.46608e-10
1.46608e-10
1.46608e-10
1.46608e-10
1.46608e-10
1.46608e-10
1.46608e-10
1.46608e-10
1.46608e-10
1.46608e-10
1.46608e-10
1.46608e-10
1.46608e-10
1.46608e-10
1.46608e-10
1.46608e-10
1.46608e-10
1.46608e-10
1.46608e-10
1.46608e-10
1.46608e-10
1.46608e-10
1.46608e-10
1.46608e-10
1.46608e-10
1.46608e-10
1.46608e-10
1.46608e-10
1.46608e-10

VECTORS velocity float
0.0045839 0.000658399 -7.93574e-05
0.00438545 0.000360308 -0.000451188
0.00439681 0.000358288 -0.000449594
0.0043849 0.000363756 -0.000453324
0.00483255 0.000488665 4.11283e-05
0.0045511 -0.00013076 0.00049943
0.00456021 0.000505552 1.83789e-05
0.00485101 0.000482717 6.17179e-05
0.00426274 -0.000252236 0.000496077
0.00439903 0.000379368 -0.000458737
0.00449799 0.000608923 -5.65638e-05
0.00437321 -0.000195373 0.000325744
0.00440349 0.000403844 -0.000463999
0.00474462 -0.000478035 6.95754e-05
0.00446008 0.000583945 -4.22456e-05
0.00475653 -0.000484969 7.52362e-05
0.00434701 0.000390787 -0.00046012
0.00442519 -0.000104329 0.000467455
0.00451956 0.0005728 -1.59331e-05
0.00438894 0.000366592 -0.000454237
0.00484399 0.00050629 5.26972e-05
0.00455007 0.00057133 -3.52266e-05
0.00438767 -9.61521e-05 0.000461346
0.00462096 0.000534399 5.23727e-06
0.00458732 -0.00011487 0.000484472
0.00430975 -0.000171684 0.000332694
0.0042742 0.000769189 -0.000217973
0.00454718 -0.000135243 0.00050294
0.00438231 0.000343079 -0.000448845
0.00444216 0.000493788 -0.000164654
0.00456175 -0.000125396 0.000496894
0.00440463 0.00037073 -0.000456851
0.0045545 0.000622589 -5.84618e-05
0.00430293 -0.000240807 0.000495678
0.00454836 0.000567965 -2.39953e-05
0.0045936 0.000538615 -4.29944e-07
0.00457489 -0.000119168 0.000481154
0.00457888 0.000502884 2.24178e-05
0.00512014 0.00110344 -0.000328035
0.00459063 0.000493084 2.33889e-06
0.00432791 0.000330015 -0.000519046
0.004382 0.000395344 -0.000462591
0.0045689 -0.000123617 0.000494526
0.00458599 -0.000114369 0.000485381
0.00484142 0.000507574 3.8309e-05
0.00433268 0.000325161 -0.000436216
0.00457503 -0.000115502 0.000486837
0.00438559 0.000365013 -0.000453668
0.00432753 -0.000166679 0.000330097
0.00454097 -0.000114922 0.000483994
0.00455482 0.00063856 -6.8975e-05
0.00473362 -0.000490993 3.93712e-05
0.00442953 0.000393675 -0.000465991
0.00456933 -0.000121459 0.000490461
0.00428919 -0.000157313 0.000321546
0.00437485 -0.000129436 0.000412781
0.00436522 0.000536057 -1.54059e-05
0.00486048 0.000503776 4.59371e-05
0.0043499 0.000390919 -0.000458311
0.00439108 0.000360713 -0.000451884
0.00448739 -0.00011022 0.000477797
0.00488011 0.000473062 7.09718e-05
0.00430709 -0.000168832 0.000330627
0.00439039 0.00035442 -0.000450192
0.00430714 -0.000162496 0.000326058
0.00443688 0.000539688 -4.20918e-06
0.00430024 -0.000214521 0.00051133
0.00471864 -0.000518766 -7.90632e-06
0.00436358 -0.000230757 0.000270672
0.00482617 0.000516466 3.19206e-05
0.00431496 0.000322999 -0.000433267
0.00482258 0.000527223 2.36734e-05
0.00446846 -0.000150115 5.5093e-05
0.00449688 0.000406799 -0.000480808
0.00468619 -0.000481939 3.39949e-05
0.00463867 -0.000206081 0.000374491
0.00441259 0.000385798 -0.00046342
0.00441121 -0.000405792 -3.64607e-05
0.00431096 -0.000175794 0.000335706
0.00467336 -0.000311346 0.000264806
0.00446883 5.95911e-05 0.000316786
0.00469206 -0.000454875 5.52888e-05
0.00444134 0.000413441 -0.000469101
0.00427232 -0.000248364 0.000489197
0.00442912 0.000391788 -0.000465344
0.00440195 0.000369521 -0.000455639
0.00439833 0.000367424 -0.000454732
0.00434827 0.000389584 -0.000458859
0.00441216 0.000405471 -0.000470072
0.0044695 0.000424366 -0.000481112
0.00441856 0.000384886 -0.000462107
0.00448497 0.000417024 -0.000479515
0.00445026 0.000405873 -0.000471623
0.00448325 0.000424896 -0.000480599
0.00431177 -0.000167817 0.000330013
0.00443265 0.000413953 -0.000474632
0.00431881 -0.000163754 0.000327321
0.00434991 0.000394634 -0.000459235
0.00452979 0.000612558 -5.22792e-05
0.00430822 -0.000171891 0.00033287
0.00470388 -0.000546386 -5.38436e-05
0.0043883 0.000385002 -0.000461001
0.0047303 -0.000461644 6.13662e-05
0.00439644 0.000361341 -0.000455131
0.00435302 0.000352713 -0.000447225
0.004415 0.000384624 -0.000463031
0.00448051 0.000419491 -0.000479827
0.00429783 -0.00015748 0.000321105
0.00443296 0.000393713 -0.000467142
0.00436852 -0.000153537 0.000325993
0.00440032 0.000394989 -0.000465406
0.00437788 0.000351427 -0.000447899
0.00491895 0.000467627 7.07913e-05
0.00430832 -0.000184277 0.000340612
0.00454419 -0.000136466 0.00050428
0.00457755 0.000615922 -5.19314e-05
0.00493788 0.000465758 7.29843e-05
0.00444047 0.000448041 -0.000486798
0.0046581 -0.000201961 0.000372572
0.00444748 0.000444655 -0.000485812
0.00481492 0.000513822 3.26272e-05
0.00448167 0.000513435 -0.000180007
0.00466078 -0.000211369 0.000379486
0.00439924 0.000366321 -0.000455649
0.00430898 -0.00017465 0.000335038
0.004455 0.000410368 -0.000363707
0.0043028 -0.000169541 0.000330887
0.00436453 0.000366126 -0.000451897
0.00456052 0.000543357 -4.61742e-06
0.00437906 0.000354374 -0.000449082
0.00459226 0.000634183 -6.29208e-05
0.00474509 -0.000463962 6.3308e-05
0.00444059 0.000403947 -0.000470665
0.00442204 0.000385204 -0.000463363
0.00438642 0.000349939 -0.00044808
0.00448899 0.000427558 -0.00049251
0.00449426 -0.000410765 4.12807e-05
0.00434761 0.000373114 -0.000460485
0.00437123 0.000369543 -0.000453501
0.00440336 0.000382034 -0.000460815
0.00490626 0.000105899 0.00034529
0.00471524 -0.000458906 5.81855e-05
0.0043685 0.000390677 -0.000461502
0.00443858 0.000402224 -0.000470217
0.00494913 0.000459344 7.82918e-05
0.00438274 -0.000351495 -4.14546e-05
0.0049628 0.000452703 8.3611e-05
0.00431788 -0.000189064 0.000344195
0.00438863 -0.000168587 0.000333244
0.0043126 -0.00016687 0.000329186
0.00444285 0.000452864 -0.000466441
0.00430857 -0.000171657 0.00033275
0.00485343 0.000520589 3.1485e-05
0.00438721 -0.0003939 -3.95268e-05
0.00476081 4.39435e-05 -0.000315619
0.00430901 -0.000167464 0.000329299
0.00450901 0.000403493 -0.000480387
0.00431445 -0.000172295 0.000333626
0.00453837 0.000511418 1.32516e-05
0.00428119 -0.000149897 0.000315153
0.00445311 0.000402494 -0.000471715
0.00452357 -0.000488539 -1.62188e-05
0.00438941 -0.000145572 0.000321069
0.00440634 0.000407269 -0.000469904
0.00439849 -0.000273621 0.000404145
0.00461227 -5.0801e-05 -0.000317826
0.00429118 -0.000217135 0.000233055
0.00443738 -0.000702399 0.000411265
0.0043115 -0.000167709 0.000330259
0.00428625 -0.000168465 0.000329124
0.00431522 -0.000172606 0.00033388
0.00437892 -0.000330436 2.4835e-05
0.00444364 0.000397199 -0.000469471
0.00444209 -0.000116028 0.000297793
0.00473211 0.000746293 -0.000125877
0.00440954 -0.000437273 -2.61238e-05
0.00438513 0.00035423 -0.000449731
0.00438296 -0.000346876 -4.50662e-05
0.00439096 -0.000440965 -3.06003e-05
0.00440081 -0.000207277 0.000516033
0.0049544 0.000111631 0.000360612
0.00443923 0.000744807 -0.000147644
0.00438483 -0.000344445 -3.99872e-05
0.00416822 0.000154405 -0.000362539
0.00439987 -0.000386654 -3.6643e-05
0.00446632 0.000419292 -0.00047857
0.00483509 0.000494779 4.89182e-05
0.00435322 -0.000443391 0.000404685
0.00439452 -0.00016112 0.000328946
0.00484662 0.000491079 5.29808e-05
0.00427324 -0.000154922 0.000318272
0.00442982 -0.000472654 -1.51552e-05
0.00465275 -0.000208248 0.000377942
0.00434939 -0.000351374 0.000405112
0.00438545 -0.000442819 -3.56171e-05
0.00456339 0.000507688 1.72444e-05
0.00441354 -0.000411995 -2.80054e-05
0.00431572 -0.000180806 0.000339634
0.00429562 -0.000168892 0.000329583
0.00430982 -0.000165313 0.000328103
0.00444254 -0.000433804 -2.80102e-05
0.00431169 -0.000162583 0.000325449
0.0043725 0.000340201 -0.000443686
0.00446499 0.000363785 -0.000460574
0.00434301 -9.35047e-05 -0.00061328
0.00446979 0.000413719 -0.000475967
0.00431133 -0.000176461 0.000336431
0.00431598 -0.00017836 0.000337824
0.00482342 0.000287739 -0.000453471
0.00452767 0.000425535 -0.000487423
0.00444032 0.000418261 -0.000477698
0.00483549 0.000522004 2.85205e-05
0.00465119 -0.000199508 0.000367173
0.0048692 0.000510382 4.07832e-05
0.00427741 -0.000151627 0.000317358
0.00466534 -0.000215173 0.000382735
0.00440067 -9.77257e-05 -0.000640523
0.00441799 -0.000398252 -2.88525e-05
0.0047685 -0.000493189 8.08087e-05
0.00440187 -0.00037682 -3.95998e-05
0.00430944 -0.000161202 0.000324915
0.00455412 -0.000583804 0.000422137
0.0044021 -0.000376584 -3.88663e-05
0.00429065 -0.000155541 0.000319412
0.00453424 0.000350473 -0.000465045
0.00443023 0.000397583 -0.000469031
0.00470914 -0.000445675 0.000436536
0.00435118 -0.000381103 0.000404842
0.00470612 -0.000435154 0.000436798
0.0044025 -0.000391891 -3.52804e-05
0.00445635 4.99944e-05 -2.68159e-05
0.00440041 -0.000388692 -3.54909e-05
0.00440847 -0.000396923 -3.24049e-05
0.00441742 5.60541e-05 -3.18366e-05
0.00449783 4.65833e-05 -2.28667e-05
0.00440759 -0.000396259 -3.10579e-05
0.00440885 6.60325e-05 -2.30895e-05
0.0049004 0.000499785 4.86167e-05
0.00467948 9.9011e-06 -0.000342377
0.00440435 -0.000378505 -3.77501e-05
0.00487112 0.000490037 5.84486e-05
0.00451968 0.000635725 -6.94035e-05
0.00452605 4.28383e-05 -1.87366e-05
0.00434975 -0.00043447 -2.56144e-05
0.00442118 -0.000401914 -3.55114e-05
0.00430153 -0.000168281 0.000329874
0.00440383 -0.000383029 -3.68519e-05
0.00466035 -0.000488127 0.000432179
0.00433478 -0.00033785 0.000403851
0.00447265 -0.000487836 -2.47632e-05
0.00439331 0.000371554 -0.000456786
0.00431067 -0.000360433 0.000400367
0.0046588 -0.0004834 0.000431862
0.00439974 6.71292e-05 -2.33569e-05
0.00431706 -0.000355421 0.000400817
0.00438414 -0.000339744 -4.74785e-05
0.00459953 -0.000328682 -0.00312073
0.00430865 -0.000175678 0.000335922
0.00440822 -0.000353648 -4.45166e-05
0.00434804 -0.000346498 0.000334281
0.00435786 -0.00033998 0.000408647
0.00471176 -0.000459437 0.000437428
0.00471417 -0.000445294 0.000439297
0.00438491 -0.000368173 0.00011611
0.00452803 -0.000460359 0.000420548
0.00440217 -0.000573806 0.000413124
0.00471109 -0.00046883 0.000439165
0.00450047 0.000413947 -0.000484236
0.00440452 6.53202e-05 -2.25899e-05
0.00439685 6.75974e-05 -2.34103e-05
0.00434423 -0.000241481 0.000384335
0.00442352 6.25503e-05 -2.22767e-05
0.00440201 6.6231e-05 -2.32822e-05
0.00436079 -0.000354694 0.000403729
0.00433088 -0.000366458 0.000400925
0.00436383 -0.000426916 0.000428073
0.00441084 0.000385216 -0.000463836
0.00471281 -0.000434156 0.000437077
0.00467187 -0.000612466 -0.000196349
0.00471557 -0.000438401 0.000437639
0.00436697 -0.000504897 -1.02293e-05
0.00438042 0.000355549 -0.000449353
0.00470722 -0.000473708 0.000438065
0.00468568 -0.000545522 -9.27279e-05
0.00437261 0.000383762 -0.000460925
0.00438975 0.00035836 -0.000451203
0.00434773 -0.000346672 5.49659e-05
0.00430091 -0.000172767 0.0003331
0.00438488 0.00035442 -0.000449844

VECTORS force float
-3.33618e-11 1.3544e-11 -1.34847e-11
-8.4425e-11 2.51091e-10 -9.17191e-11
-9.65601e-11 1.44751e-10 -4.91962e-11
-1.07336e-10 3.02061e-11 -1.85923e-11
4.3884e-11 -4.75407e-11 -3.45941e-12
-2.92939e-11 -2.36825e-11 -4.3168e-13
-1.65563e-11 -4.91862e-11 1.94871e-11
4.49775e-11 2.88867e-11 -1.18397e-10
-1.43854e-10 -4.38444e-11 3.75344e-10
-1.00702e-10 1.37087e-10 -4.63414e-12
5.95927e-12 8.79165e-13 3.71705e-11
-1.9664e-11 8.9966e-11 1.2215e-10
-9.16714e-12 -5.06899e-11 2.21199e-12
-2.71588e-11 3.99451e-11 -5.58566e-11
1.18178e-10 -1.0639e-11 3.22069e-11
9.5477e-12 9.99886e-11 -6.37237e-11
1.56348e-11 -4.44275e-11 1.78894e-11
-9.93964e-11 -1.44482e-12 -9.58825e-11
6.79719e-12 -1.32493e-10 8.51427e-11
1.72737e-11 -7.41639e-12 2.55599e-12
7.42392e-11 8.33431e-11 1.03913e-10
-1.15117e-11 -1.35119e-10 -1.42304e-10
7.88911e-11 7.975e-11 -4.18556e-11
-8.37908e-11 6.57404e-12 -8.25207e-12
2.4643e-11 -7.66205e-11 7.14612e-11
-1.53093e-12 -2.77264e-12 1.3068e-11
-8.87955e-11 -1.11327e-10 1.07157e-11
3.91515e-11 9.25508e-15 6.32466e-12
-3.59489e-11 2.77564e-11 1.82234e-11
1.32775e-10 -7.31695e-11 6.54689e-13
-6.89575e-11 1.72393e-11 -2.88018e-11
-4.60313e-11 1.62749e-10 -1.35005e-11
5.52511e-12 2.54578e-11 -1.36843e-11
2.10062e-11 2.42369e-10 -4.06298e-11
3.4883e-11 -1.67001e-10 6.77694e-11
5.0673e-11 1.91499e-11 1.97909e-11
-8.98868e-11 -8.273e-11 5.27737e-11
-2.99947e-11 -2.97496e-12 4.23947e-11
-1.14723e-10 1.91889e-10 -1.2315e-10
-4.08943e-11 -9.02463e-11 -2.14395e-10
-9.1723e-11 8.84269e-11 2.88508e-11
-3.06102e-10 4.27154e-11 -1.59296e-11
6.17513e-11 4.27187e-11 -5.19708e-12
2.70365e-11 -4.80534e-11 6.59918e-11
-1.73022e-11 2.40366e-11 -8.81393e-12
-9.56732e-11 -1.32792e-12 -1.26013e-11
-5.17158e-11 -8.84461e-11 5.632e-11
-1.87189e-11 -4.67519e-11 2.56919e-11
1.31326e-10 -2.0402e-11 2.20072e-11
-3.04088e-10 -5.61537e-11 2.50954e-11
-6.36607e-11 -2.16072e-11 1.38306e-11
-8.05649e-12 -3.62543e-11 -7.92468e-11
-1.28362e-11 2.20271e-10 -7.20383e-11
5.0928e-11 -2.73075e-11 3.89601e-11
6.09277e-11 1.9724e-11 -4.57493e-12
6.40748e-11 5.46943e-11 -2.32625e-11
-4.01307e-11 1.10494e-10 -6.49434e-11
-1.66769e-12 4.60696e-12 1.57768e-11
1.9706e-11 1.95958e-12 1.11453e-11
-2.30147e-11 9.20279e-11 -3.388e-11
-3.02961e-10 -3.03901e-11 -5.10286e-11
4.52285e-11 -5.851e-11 1.59396e-11
1.3406e-11 -1.62074e-11 8.4278e-12
-1.10965e-10 4.70832e-11 -6.98919e-12
2.03102e-11 5.79512e-12 -2.80354e-13
2.35242e-10 -8.9711e-11 -8.62416e-11
-4.32538e-10 3.00472e-10 1.72104e-11
4.22196e-14 -5.07306e-12 3.23594e-11
-9.96209e-11 -1.04546e-10 5.09709e-11
4.36226e-11 5.72406e-11 -4.20919e-11
-4.99106e-10 3.92585e-10 -9.96035e-11
-2.06559e-10 -4.01048e-11 -7.24553e-12
-5.60915e-11 -2.05716e-11 -1.46505e-10
8.1416e-11 -1.32228e-10 3.05738e-11
9.32198e-12 -4.37907e-11 -5.70765e-12
8.34016e-12 1.37979e-11 5.04002e-11
4.4511e-13 -2.05873e-11 2.685e-11
6.53431e-11 4.86967e-11 -8.97155e-12
3.32766e-11 -1.19169e-11 5.49193e-12
1.05906e-11 -3.74233e-11 -3.70922e-11
-1.03026e-11 -9.3362e-12 -2.16984e-11
2.34354e-11 -4.51668e-11 1.9574e-11
2.48844e-10 2.89787e-10 -3.76822e-12
-3.68475e-11 5.07165e-11 4.98457e-11
5.65834e-12 2.66236e-11 -7.43315e-12
-7.98449e-11 5.05217e-11 -2.1237e-11
-1.04097e-10 2.3702e-11 2.32237e-12
-5.14992e-11 -4.9143e-11 3.75811e-11
1.05943e-10 1.3312e-11 -4.33772e-11
9.97314e-11 -1.85244e-10 -3.05503e-11
-2.96133e-12 4.46665e-11 -7.82178e-12
-1.05354e-10 -1.70408e-10 1.12036e-10
2.0994e-11 2.46692e-11 4.54597e-12
-5.19621e-11 -1.05204e-10 1.00382e-10
3.05547e-11 1.47286e-11 -3.96487e-12
2.65686e-10 1.52235e-10 -6.36643e-11
1.56893e-11 -2.79784e-11 2.15344e-11
-2.78283e-11 5.05325e-11 4.37727e-11
-2.6616e-11 2.78038e-12 2.50276e-11
2.47365e-11 -4.487e-11 3.2226e-11
-6.80069e-12 -4.42632e-12 5.42075e-11
-2.74352e-11 2.68393e-11 -5.15661e-12
3.87342e-11 2.58983e-12 6.03687e-12
-2.36668e-11 1.28627e-10 -1.48618e-11
-4.82053e-11 1.95846e-11 -5.14697e-12
-6.57324e-12 -1.70669e-11 8.24223e-12
-1.21954e-10 -1.57893e-10 4.49954e-11
3.82921e-11 -3.99641e-12 2.88892e-11
-3.30699e-11 5.84529e-11 -1.16474e-11
2.02594e-12 -5.11136e-11 5.15666e-11
-1.38779e-10 8.46753e-11 5.34033e-12
-1.44681e-10 9.19702e-11 -2.32679e-11
-2.77719e-11 -7.447e-11 5.22551e-11
4.00865e-11 -4.7103e-11 3.08052e-11
2.35043e-12 1.24203e-11 -7.68128e-12
5.65168e-12 -1.45713e-11 -2.27481e-11
2.21267e-11 2.48033e-12 -2.124e-12
-2.86058e-10 5.26188e-10 -1.52519e-10
1.21952e-11 6.95797e-11 4.63501e-11
-1.67081e-10 1.00551e-10 -2.99156e-11
5.09824e-11 7.72437e-11 -5.38585e-11
-2.42805e-11 1.72167e-11 1.36478e-11
1.74478e-11 -3.81912e-12 -2.17809e-11
-3.90996e-11 4.82568e-11 5.43945e-12
1.44194e-11 -2.54521e-11 1.58779e-11
-4.98586e-11 -3.36303e-11 7.12255e-11
-4.89184e-12 -2.39914e-11 2.62715e-11
-1.50983e-10 2.54797e-10 -9.12834e-11
-1.27809e-10 1.07512e-10 -1.23481e-10
-9.96096e-12 -7.97274e-13 8.68105e-12
-2.2351e-11 -7.60414e-12 1.24678e-11
-6.67333e-12 3.31814e-11 -2.20106e-11
3.93263e-10 -2.21223e-12 -9.31072e-12
-8.78975e-11 6.45172e-11 -2.63902e-11
-8.94062e-11 3.25635e-11 -4.72656e-13
-4.2349e-11 -2.02404e-10 5.06806e-11
-1.23783e-10 7.60337e-12 9.1458e-12
-5.31621e-11 4.10482e-11 -5.36023e-11
-9.27123e-12 4.26417e-11 -2.2203e-11
2.71362e-11 1.8751e-11 -1.13241e-11
-2.56666e-10 -2.25211e-11 2.40547e-10
-4.40859e-11 -3.84426e-11 1.42783e-11
-1.41514e-11 1.5559e-11 -1.44929e-11
-6.28568e-11 7.39931e-11 -3.01121e-11
1.85031e-11 7.01593e-11 -4.50312e-11
3.06988e-11 -7.08887e-11 -2.2938e-12
2.50369e-11 1.03281e-10 -6.45991e-11
1.76778e-11 3.62406e-12 7.69639e-12
-6.22456e-11 -3.3869e-11 1.21295e-12
2.64869e-11 3.31955e-12 3.54244e-12
-6.01912e-10 -7.88116e-11 1.44507e-10
4.33747e-13 -1.42766e-11 9.15044e-12
1.99036e-11 4.91133e-11 -2.33617e-11
3.6262e-11 2.53188e-11 4.21348e-11
5.25115e-10 -1.79027e-10 3.13326e-10
2.37749e-11 -3.42837e-12 1.61334e-12
-7.08902e-11 -3.30963e-10 1.78497e-10
8.13264e-11 -6.81766e-11 5.29896e-11
-1.02488e-10 7.97938e-11 -4.28686e-11
-5.07809e-11 -3.68561e-11 2.0342e-11
-2.396e-11 -1.32937e-11 1.74139e-12
-4.47666e-11 -6.76028e-11 -3.75494e-10
-1.52372e-11 -8.81493e-11 8.05563e-11
-1.99861e-10 2.41958e-10 -6.68895e-11
1.77556e-10 -5.36096e-11 3.12117e-11
6.29241e-10 -2.5816e-10 -1.23657e-11
-4.01752e-11 -1.95028e-11 4.65546e-11
1.86636e-10 -7.03116e-11 2.29241e-11
2.67472e-12 -7.76932e-12 -4.6993e-13
-3.40961e-11 4.01558e-12 2.09151e-11
6.77136e-11 -6.55085e-11 4.8519e-11
-3.19628e-12 -2.01942e-10 -2.38694e-10
1.05761e-10 1.04408e-10 -3.49246e-11
-1.28043e-10 -4.69887e-11 2.29157e-11
6.81132e-11 2.28363e-10 -1.79293e-10
7.97025e-11 -3.40084e-12 1.06756e-11
-7.04463e-12 1.97634e-10 -7.23146e-11
4.93512e-11 6.25338e-11 -1.59328e-11
-1.67648e-10 -3.04939e-10 -9.9925e-11
-4.28935e-10 -1.89755e-10 1.47239e-10
-4.15844e-11 3.37106e-10 -2.47452e-11
-2.18433e-11 -6.04599e-11 4.1948e-11
1.02996e-11 -5.91379e-11 -6.49774e-12
-1.91553e-10 -4.79278e-10 2.38267e-10
1.71333e-11 1.6674e-11 -9.38814e-12
-1.75888e-10 -5.29483e-11 2.93646e-11
3.20848e-11 1.24727e-11 -6.91282e-12
1.46124e-11 -1.30566e-10 4.63549e-12
-1.71244e-10 -4.505e-11 2.59743e-11
6.94804e-11 -1.08587e-11 -2.93279e-11
7.63141e-11 2.08882e-11 -3.86453e-12
7.56921e-11 3.79013e-11 -8.42067e-11
2.10285e-11 -3.6104e-11 -3.13857e-11
2.1476e-10 7.51992e-11 -1.07209e-11
1.66299e-10 -2.8283e-11 1.28237e-11
-6.51713e-11 5.57062e-11 -3.73328e-11
9.51623e-11 1.7191e-10 -9.90987e-11
3.52797e-11 -1.64487e-11 1.657e-11
3.44391e-11 -5.60699e-11 3.80429e-11
2.9061e-11 -2.07609e-11 1.42852e-11
7.02594e-11 -1.25492e-10 3.37583e-11
2.40183e-13 -1.68416e-11 -8.25417e-12
-5.74818e-11 8.77232e-11 -1.9797e-11
-2.59344e-10 9.07166e-11 1.07352e-10
6.90279e-11 -1.83954e-10 -2.1334e-10
-4.36337e-11 -2.66521e-11 -4.28361e-11
5.38799e-11 -2.0498e-11 1.84043e-11
7.15484e-11 -3.95514e-11 3.34395e-11
-5.52392e-10 3.8933e-10 -1.60324e-10
5.8135e-11 -1.0037e-10 5.67922e-11
2.32226e-11 -1.38703e-10 7.58057e-11
3.17154e-11 7.42195e-11 -4.24043e-11
-4.20752e-11 3.99382e-11 -2.40768e-11
3.86768e-11 -3.34511e-11 3.29756e-11
9.97067e-11 -3.6884e-11 1.35257e-11
-9.0531e-12 1.05528e-11 -3.33292e-12
7.27724e-11 -6.53036e-11 -3.60777e-10
-1.80297e-11 5.3047e-11 -8.74575e-11
4.05398e-11 1.20916e-10 -8.21167e-11
4.1525e-11 2.76179e-11 8.98905e-12
1.34227e-11 3.65417e-12 -6.70205e-12
1.0463e-10 -1.85021e-11 9.27334e-13
1.87433e-11 2.90697e-11 -8.81526e-12
3.5961e-11 -2.08853e-11 8.49581e-12
-1.38554e-10 1.45541e-11 9.05542e-11
-1.7424e-10 2.86533e-11 4.4673e-11
9.7522e-12 -2.96622e-11 9.22871e-12
-4.91236e-11 -2.07051e-10 -2.88126e-15
-1.51881e-11 -8.49544e-11 6.40439e-12
5.80592e-11 5.50263e-11 -1.00812e-11
-6.79904e-12 2.38791e-11 -1.17421e-11
5.51149e-11 1.91744e-10 -3.43908e-11
-5.0608e-11 -2.78982e-12 -2.37914e-11
8.41348e-12 -8.52639e-12 4.64546e-12
1.00813e-10 1.4229e-11 -1.96562e-11
2.75647e-12 1.91629e-11 -1.17724e-11
4.70814e-11 2.7548e-11 -2.27875e-11
1.00774e-10 -7.23441e-11 6.41461e-11
2.14521e-11 -6.2722e-10 -1.02208e-11
1.52367e-11 2.72768e-11 -9.60878e-12
1.16934e-10 5.90842e-12 -7.34828e-12
5.727e-12 -6.93391e-11 3.83455e-11
-9.01514e-11 -9.29684e-11 3.6044e-11
-7.43871e-11 -4.5076e-11 2.72294e-11
4.95075e-11 3.93324e-11 -5.92117e-12
-1.07114e-11 -2.62252e-11 1.9469e-11
-3.84042e-11 -4.28983e-11 8.17353e-12
-4.94392e-12 3.40905e-11 1.01613e-11
8.80054e-11 7.50434e-11 4.905e-12
-5.86472e-11 6.59236e-11 -8.30711e-11
-1.25425e-10 1.52549e-10 -4.61253e-11
-8.21447e-11 -4.45493e-11 -8.41437e-12
6.42622e-12 -3.28083e-12 -4.2751e-12
-9.75619e-15 5.09947e-12 -5.44621e-12
1.10434e-11 4.8715e-11 3.34086e-12
7.06886e-12 9.50237e-12 1.84756e-12
-3.2326e-11 -2.00238e-10 -1.26292e-09
4.20089e-11 -8.01965e-11 6.41653e-11
-7.82873e-11 6.7271e-11 1.14603e-11
1.44775e-10 -3.72477e-12 -5.12205e-10
1.67389e-10 3.43459e-11 -6.87578e-11
9.87943e-11 5.0265e-11 -3.60477e-11
3.02845e-11 -8.89587e-12 2.14772e-11
1.55722e-11 2.61861e-11 -4.61554e-10
-4.59329e-12 3.56231e-11 -1.84862e-11
2.13265e-10 -1.07594e-10 4.4908e-11
7.72424e-11 6.76887e-11 4.70782e-11
4.4847e-10 -9.93609e-11 7.52847e-11
-5.61952e-12 1.61324e-11 -1.30256e-12
1.52149e-12 5.62299e-12 3.52208e-13
-6.96595e-11 -1.04936e-11 1.0302e-11
1.57097e-12 5.12108e-12 -1.59112e-12
1.82755e-12 -4.3714e-12 5.35754e-12
7.33997e-11 -3.59341e-11 -1.41343e-11
1.06267e-10 8.04533e-11 -4.25073e-11
1.37855e-10 -1.15199e-11 -2.26164e-10
-8.7659e-11 1.78763e-10 -5.34397e-11
-9.47501e-12 -8.13823e-11 -6.84728e-12
-3.86888e-11 -1.16408e-11 -1.26673e-11
-5.34961e-11 -1.78752e-11 -3.97334e-12
-5.83834e-11 -1.58874e-10 5.00686e-11
-5.21182e-11 1.13352e-10 -3.5085e-11
5.02171e-11 -3.43627e-11 -3.96246e-11
-9.94681e-13 -3.14555e-11 -7.00523e-11
-1.52712e-10 4.11143e-10 -9.60161e-11
-1.31028e-10 4.21553e-11 -4.9026e-12
-8.0616e-11 2.45289e-11 6.68445e-11
-1.22558e-11 -5.95303e-11 4.29521e-11
-1.23867e-10 4.80613e-11 -1.01828e-11
