# vtk DataFile Version 3.0
LIGGGHTS particles timestep 22800000
ASCII
DATASET POLYDATA
POINTS 289 float
0.117564 0.0165853 0.00779822
0.117931 0.0176508 0.00711967
0.117776 0.0175957 0.0072137
0.117803 0.0175289 0.00714434
0.117146 0.0161 0.00828367
0.123271 0.0164182 0.00768818
0.117293 0.0165956 0.00781195
0.117125 0.0160292 0.00835106
0.123581 0.0177347 0.00706853
0.117543 0.0174353 0.00725402
0.117549 0.0168466 0.00755749
0.123541 0.0175441 0.0071134
0.11752 0.0173422 0.00728296
0.111143 0.0160389 0.00820266
0.117452 0.0168264 0.00758455
0.111121 0.0159563 0.00825479
0.117475 0.0172561 0.00730527
0.12348 0.0172625 0.00719492
0.117463 0.0171068 0.00743561
0.11771 0.0170838 0.0073292
0.117167 0.0161708 0.00821628
0.11743 0.0167556 0.00765194
0.1235 0.0173538 0.00715936
0.117409 0.0166848 0.00771933
0.12338 0.0168396 0.00744209
0.111459 0.0172397 0.00744406
0.117483 0.017178 0.00736738
0.123249 0.0163339 0.0077374
0.117645 0.0173554 0.00727719
0.117378 0.0168789 0.00754239
0.123293 0.0165025 0.00763897
0.117666 0.017546 0.00722428
0.117486 0.0166342 0.00775967
0.123621 0.0179269 0.00702971
0.117272 0.0165248 0.00787933
0.117389 0.016614 0.00778676
0.123422 0.0170083 0.00734357
0.117314 0.0166665 0.00774455
0.117422 0.0164218 0.00796185
0.117335 0.0167373 0.00767716
0.117595 0.0169922 0.00741874
0.117854 0.017714 0.00710162
0.123314 0.0165868 0.00758975
0.123401 0.0169239 0.00739288
0.117209 0.0163124 0.0080815
0.11769 0.0170102 0.00739382
0.123358 0.0167553 0.00749131
0.117554 0.0171891 0.00725575
0.111769 0.0174136 0.00735437
0.123442 0.0170931 0.00729402
0.117606 0.0167269 0.00766344
0.111161 0.0161335 0.00822891
0.117694 0.0176565 0.00719577
0.123336 0.0166711 0.00754053
0.111467 0.0169383 0.00764113
0.12352 0.0174488 0.00713583
0.117669 0.0169393 0.00746125
0.117188 0.0162416 0.00814889
0.11757 0.0169174 0.0074901
0.117783 0.0174317 0.00716701
0.123462 0.0171775 0.00724469
0.117103 0.0159584 0.00841845
0.111607 0.0171325 0.00752522
0.117728 0.0171655 0.00727436
0.111563 0.0169669 0.0076298
0.117356 0.0168081 0.00760977
0.123641 0.018023 0.00701058
0.111186 0.0162368 0.00818226
0.123561 0.0176394 0.00709097
0.11723 0.0163832 0.00801415
0.117987 0.0179364 0.00705294
0.117251 0.016454 0.00794672
0.123636 0.0175738 0.00710257
0.117628 0.017966 0.00703262
0.111221 0.0163452 0.00803444
0.111328 0.0167445 0.00775684
0.117728 0.0175932 0.0071261
0.111728 0.0179262 0.0071181
0.11148 0.0173222 0.00739193
0.111242 0.0164145 0.00796537
0.123615 0.0174786 0.00712501
0.111286 0.0162738 0.00806045
0.1176 0.0176197 0.0072032
0.123601 0.0178307 0.00704885
0.117614 0.0174641 0.00715299
0.117688 0.0173998 0.00717121
0.117665 0.0173049 0.00719323
0.117494 0.0169681 0.00744975
0.117779 0.0177805 0.00709606
0.11772 0.0179358 0.00705821
0.117594 0.0173747 0.00719289
0.117609 0.0178706 0.00705489
0.117648 0.0176603 0.007107
0.117646 0.0179316 0.00712487
0.111511 0.0171035 0.00753682
0.117873 0.0178096 0.00707932
0.111659 0.0169964 0.00761794
0.11742 0.0170205 0.00740761
0.117528 0.0167758 0.00762488
0.111651 0.0172986 0.00742036
0.111211 0.0163187 0.00813034
0.117457 0.0171636 0.00727183
0.111173 0.0161519 0.00813124
0.117646 0.0174506 0.00724655
0.117615 0.0170632 0.00735126
0.117494 0.0173308 0.00718072
0.117589 0.0177751 0.00707717
0.111394 0.0169921 0.00760045
0.117515 0.0174261 0.00715851
0.111542 0.0175733 0.00724014
0.117814 0.0177517 0.00718529
0.117858 0.0173677 0.00718518
0.117082 0.0158876 0.00848584
0.111618 0.0175174 0.00727516
0.123228 0.0162496 0.00778662
0.117507 0.016705 0.00769228
0.117061 0.0158168 0.00855323
0.117913 0.0180005 0.00703476
0.111381 0.0166083 0.00784966
0.117815 0.0179682 0.00703896
0.117325 0.0164016 0.00798893
0.117473 0.0168972 0.00751715
0.111285 0.0165795 0.00786111
0.117573 0.0172817 0.00722305
0.111555 0.0172686 0.00743249
0.117399 0.0169496 0.007475
0.111629 0.0172152 0.00747297
0.117949 0.0177466 0.00709727
0.117367 0.0165432 0.00785412
0.117633 0.017135 0.00728318
0.117585 0.0166561 0.00773083
0.111234 0.0160882 0.00817749
0.117797 0.0178724 0.00706139
0.117709 0.0174959 0.00714883
0.117642 0.0172101 0.00721523
0.117626 0.0178361 0.00714716
0.111316 0.0163607 0.00800607
0.117514 0.0170394 0.00738192
0.117535 0.0171107 0.00731476
0.117474 0.0172356 0.00720367
0.117795 0.0183192 0.00706064
0.111194 0.0162344 0.00807911
0.117439 0.0170921 0.00733957
0.117634 0.0175596 0.00713073
0.11704 0.015746 0.00862062
0.111656 0.0176831 0.00717012
0.117019 0.0156752 0.00868802
0.111523 0.0174874 0.0072875
0.11135 0.0168271 0.00770471
0.111585 0.0170498 0.00757743
0.117695 0.0180175 0.00711232
0.111533 0.017186 0.00748466
0.117283 0.01626 0.0081237
0.111768 0.0177978 0.0071039
0.117775 0.0182222 0.00704563
0.111789 0.0174964 0.00730188
0.11765 0.0180733 0.00704264
0.111693 0.0174654 0.00731482
0.117443 0.0164926 0.00789447
0.111519 0.0168018 0.00773411
0.117557 0.0176208 0.00711315
0.111994 0.0180247 0.00697323
0.111637 0.0176002 0.00722267
0.117892 0.0179052 0.00705698
0.111918 0.0180867 0.00695287
0.117929 0.0180997 0.0070115
0.111732 0.0176321 0.00721107
0.112126 0.0182405 0.00691015
0.111437 0.017158 0.00749754
0.111808 0.0175793 0.00724932
0.111673 0.0173824 0.00736738
0.111561 0.0176529 0.00718251
0.117536 0.0175243 0.00713563
0.111424 0.0167733 0.00774539
0.117346 0.0164724 0.0079215
0.111863 0.0178282 0.00709131
0.11791 0.0175554 0.00714192
0.111675 0.0177661 0.00711741
0.111753 0.0180117 0.00707218
0.12366 0.0181191 0.00699144
0.117708 0.0183652 0.0070813
0.117648 0.0168685 0.00752865
0.111581 0.0177421 0.00714203
0.117837 0.0180666 0.00703237
0.111654 0.0179868 0.00708958
0.117685 0.0177528 0.00711606
0.117241 0.0161184 0.00825846
0.112013 0.0181129 0.00692232
0.111498 0.0167192 0.00778624
0.11722 0.0160476 0.00832586
0.111446 0.0168558 0.00769326
0.111958 0.0178586 0.0070787
0.111307 0.016662 0.00780898
0.111786 0.0183074 0.00689302
0.11181 0.0178824 0.00715601
0.117465 0.0165633 0.0078271
0.111846 0.0180442 0.00705432
0.111502 0.0174047 0.0073398
0.111713 0.0175483 0.00726228
0.111681 0.0170789 0.00756578
0.111881 0.0179112 0.00703858
0.111415 0.0170746 0.00754831
0.117878 0.0174632 0.00716293
0.117737 0.0180275 0.00702179
0.123684 0.0177751 0.00705771
0.117575 0.0177109 0.00715252
0.111577 0.0173514 0.00738021
0.111598 0.0174345 0.00732769
0.117874 0.0182617 0.00703895
0.11767 0.0181711 0.00705126
0.117703 0.0178377 0.00706626
0.117304 0.0163307 0.00805632
0.111402 0.0166908 0.00779753
0.117262 0.0161892 0.00819107
0.111372 0.0169096 0.00765258
0.111263 0.016497 0.00791324
0.123656 0.0176692 0.00708014
0.111805 0.0179638 0.00699847
0.111099 0.0158738 0.00830693
0.111692 0.0178497 0.00706424
0.111489 0.0170209 0.00758899
0.112051 0.0183069 0.00691132
0.111616 0.0179085 0.00703669
0.111541 0.0168843 0.00768195
0.117756 0.0181251 0.00703122
0.117761 0.0176875 0.00712804
0.11175 0.0185699 0.00691553
0.111691 0.0182757 0.00690102
0.111901 0.018439 0.00691352
0.11171 0.017933 0.00701127
0.105468 0.0172245 0.00729081
0.111672 0.0181803 0.00692402
0.111729 0.0180254 0.00697599
0.105449 0.0171427 0.0073451
0.105487 0.0173063 0.00723653
0.111748 0.018117 0.00694041
0.105525 0.0174731 0.00713296
0.117177 0.015906 0.00846064
0.117855 0.0181647 0.00702392
0.111634 0.017996 0.00699192
0.117198 0.0159768 0.00839325
0.117627 0.0167977 0.00759605
0.105506 0.0173895 0.00718448
0.111845 0.0177452 0.00714395
0.111787 0.0178807 0.00705123
0.111703 0.0171619 0.0075134
0.111654 0.018088 0.00695769
0.11207 0.0184046 0.00692197
0.111882 0.0183412 0.00690614
0.111976 0.0179416 0.00702599
0.117837 0.0176228 0.00713915
0.11173 0.0184721 0.00690492
0.111976 0.018373 0.00691243
0.105582 0.0177455 0.00702105
0.111806 0.0184064 0.00690383
0.111598 0.017825 0.00708882
0.117689 0.0182681 0.00706628
0.111749 0.0173308 0.00740685
0.111899 0.0179943 0.00698581
0.111842 0.0181463 0.00692301
0.11186 0.0182404 0.00689177
0.111847 0.0186044 0.00692553
0.11192 0.0185365 0.00692415
0.111823 0.0180537 0.0069574
0.111957 0.0182754 0.00690178
0.112031 0.0182088 0.0069006
0.111789 0.0187649 0.00693682
0.117714 0.0181156 0.00712148
0.105544 0.0175639 0.00709565
0.105602 0.017841 0.00699916
0.111826 0.0176623 0.00719663
0.105622 0.0179389 0.00699686
0.105563 0.0176547 0.00705835
0.111766 0.0182094 0.00690607
0.111711 0.0183735 0.00689414
0.111938 0.0181787 0.0069189
0.117566 0.0175299 0.00723091
0.111825 0.018504 0.00691445
0.111337 0.0164432 0.00795392
0.111995 0.0184706 0.00692306
0.111939 0.0177757 0.00713131
0.117763 0.0173384 0.00719651
0.111769 0.0186674 0.00692618
0.111359 0.0165257 0.00790179
0.117905 0.0177951 0.00717299
0.117836 0.0172715 0.00720756
0.11175 0.0177143 0.00715697
0.111727 0.0172464 0.00746015
0.117741 0.0172419 0.00721119

VERTICES 289 578
1 0
1 1
1 2
1 3
1 4
1 5
1 6
1 7
1 8
1 9
1 10
1 11
1 12
1 13
1 14
1 15
1 16
1 17
1 18
1 19
1 20
1 21
1 22
1 23
1 24
1 25
1 26
1 27
1 28
1 29
1 30
1 31
1 32
1 33
1 34
1 35
1 36
1 37
1 38
1 39
1 40
1 41
1 42
1 43
1 44
1 45
1 46
1 47
1 48
1 49
1 50
1 51
1 52
1 53
1 54
1 55
1 56
1 57
1 58
1 59
1 60
1 61
1 62
1 63
1 64
1 65
1 66
1 67
1 68
1 69
1 70
1 71
1 72
1 73
1 74
1 75
1 76
1 77
1 78
1 79
1 80
1 81
1 82
1 83
1 84
1 85
1 86
1 87
1 88
1 89
1 90
1 91
1 92
1 93
1 94
1 95
1 96
1 97
1 98
1 99
1 100
1 101
1 102
1 103
1 104
1 105
1 106
1 107
1 108
1 109
1 110
1 111
1 112
1 113
1 114
1 115
1 116
1 117
1 118
1 119
1 120
1 121
1 122
1 123
1 124
1 125
1 126
1 127
1 128
1 129
1 130
1 131
1 132
1 133
1 134
1 135
1 136
1 137
1 138
1 139
1 140
1 141
1 142
1 143
1 144
1 145
1 146
1 147
1 148
1 149
1 150
1 151
1 152
1 153
1 154
1 155
1 156
1 157
1 158
1 159
1 160
1 161
1 162
1 163
1 164
1 165
1 166
1 167
1 168
1 169
1 170
1 171
1 172
1 173
1 174
1 175
1 176
1 177
1 178
1 179
1 180
1 181
1 182
1 183
1 184
1 185
1 186
1 187
1 188
1 189
1 190
1 191
1 192
1 193
1 194
1 195
1 196
1 197
1 198
1 199
1 200
1 201
1 202
1 203
1 204
1 205
1 206
1 207
1 208
1 209
1 210
1 211
1 212
1 213
1 214
1 215
1 216
1 217
1 218
1 219
1 220
1 221
1 222
1 223
1 224
1 225
1 226
1 227
1 228
1 229
1 230
1 231
1 232
1 233
1 234
1 235
1 236
1 237
1 238
1 239
1 240
1 241
1 242
1 243
1 244
1 245
1 246
1 247
1 248
1 249
1 250
1 251
1 252
1 253
1 254
1 255
1 256
1 257
1 258
1 259
1 260
1 261
1 262
1 263
1 264
1 265
1 266
1 267
1 268
1 269
1 270
1 271
1 272
1 273
1 274
1 275
1 276
1 277
1 278
1 279
1 280
1 281
1 282
1 283
1 284
1 285
1 286
1 287
1 288

POINT_DATA 289
SCALARS id int 1
LOOKUP_TABLE default
1
2
3
4
5
6
7
8
9
10
11
12
13
14
15
16
17
18
19
20
21
22
24
25
26
27
29
30
31
32
33
34
35
36
37
38
39
40
41
42
43
44
45
46
47
48
49
50
52
53
54
55
56
57
58
59
60
61
62
63
64
65
66
67
68
69
70
71
72
73
74
75
76
77
78
79
80
81
82
83
84
85
86
87
88
89
90
91
92
93
94
95
96
98
99
100
101
102
103
104
105
106
107
108
109
110
111
112
113
114
115
116
117
118
119
120
121
122
123
124
125
126
127
128
129
130
131
132
133
134
135
136
137
138
139
140
141
142
144
145
146
147
148
149
150
152
153
154
155
156
157
158
159
160
161
162
164
165
166
167
168
169
170
171
172
173
174
175
176
177
178
179
180
181
182
183
184
185
186
187
188
189
190
191
192
193
194
195
196
197
198
199
200
201
202
203
204
205
206
207
208
209
210
211
213
214
215
216
217
218
219
220
221
222
223
224
225
226
227
228
229
230
231
232
233
234
235
236
237
238
239
241
242
243
244
245
246
247
248
249
250
251
252
253
254
255
256
257
258
259
260
261
262
263
264
265
267
268
269
270
271
272
273
274
275
276
277
278
279
280
281
282
283
284
285
286
287
288
289
290
292
293
294
295
296
297
298
299
300

SCALARS type int 1
LOOKUP_TABLE default
1
1
1
1
1
1
1
1
1
1
1
1
1
1
1
1
1
1
1
1
1
1
1
1
1
1
1
1
1
1
1
1
1
1
1
1
1
1
1
1
1
1
1
1
1
1
1
1
1
1
1
1
1
1
1
1
1
1
1
1
1
1
1
1
1
1
1
1
1
1
1
1
1
1
1
1
1
1
1
1
1
1
1
1
1
1
1
1
1
1
1
1
1
1
1
1
1
1
1
1
1
1
1
1
1
1
1
1
1
1
1
1
1
1
1
1
1
1
1
1
1
1
1
1
1
1
1
1
1
1
1
1
1
1
1
1
1
1
1
1
1
1
1
1
1
1
1
1
1
1
1
1
1
1
1
1
1
1
1
1
1
1
1
1
1
1
1
1
1
1
1
1
1
1
1
1
1
1
1
1
1
1
1
1
1
1
1
1
1
1
1
1
1
1
1
1
1
1
1
1
1
1
1
1
1
1
1
1
1
1
1
1
1
1
1
1
1
1
1
1
1
1
1
1
1
1
1
1
1
1
1
1
1
1
1
1
1
1
1
1
1
1
1
1
1
1
1
1
1
1
1
1
1
1
1
1
1
1
1
1
1
1
1
1
1
1
1
1
1
1
1
1
1
1
1
1
1
1
1
1
1
1
1
1
1
1
1
1
1

SCALARS radius float 1
LOOKUP_TABLE default
5e-05
5e-05
5e-05
5e-05
5e-05
5e-05
5e-05
5e-05
5e-05
5e-05
5e-05
5e-05
5e-05
5e-05
5e-05
5e-05
5e-05
5e-05
5e-05
5e-05
5e-05
5e-05
5e-05
5e-05
5e-05
5e-05
5e-05
5e-05
5e-05
5e-05
5e-05
5e-05
5e-05
5e-05
5e-05
5e-05
5e-05
5e-05
5e-05
5e-05
5e-05
5e-05
5e-05
5e-05
5e-05
5e-05
5e-05
5e-05
5e-05
5e-05
5e-05
5e-05
5e-05
5e-05
5e-05
5e-05
5e-05
5e-05
5e-05
5e-05
5e-05
5e-05
5e-05
5e-05
5e-05
5e-05
5e-05
5e-05
5e-05
5e-05
5e-05
5e-05
5e-05
5e-05
5e-05
5e-05
5e-05
5e-05
5e-05
5e-05
5e-05
5e-05
5e-05
5e-05
5e-05
5e-05
5e-05
5e-05
5e-05
5e-05
5e-05
5e-05
5e-05
5e-05
5e-05
5e-05
5e-05
5e-05
5e-05
5e-05
5e-05
5e-05
5e-05
5e-05
5e-05
5e-05
5e-05
5e-05
5e-05
5e-05
5e-05
5e-05
5e-05
5e-05
5e-05
5e-05
5e-05
5e-05
5e-05
5e-05
5e-05
5e-05
5e-05
5e-05
5e-05
5e-05
5e-05
5e-05
5e-05
5e-05
5e-05
5e-05
5e-05
5e-05
5e-05
5e-05
5e-05
5e-05
5e-05
5e-05
5e-05
5e-05
5e-05
5e-05
5e-05
5e-05
5e-05
5e-05
5e-05
5e-05
5e-05
5e-05
5e-05
5e-05
5e-05
5e-05
5e-05
5e-05
5e-05
5e-05
5e-05
5e-05
5e-05
5e-05
5e-05
5e-05
5e-05
5e-05
5e-05
5e-05
5e-05
5e-05
5e-05
5e-05
5e-05
5e-05
5e-05
5e-05
5e-05
5e-05
5e-05
5e-05
5e-05
5e-05
5e-05
5e-05
5e-05
5e-05
5e-05
5e-05
5e-05
5e-05
5e-05
5e-05
5e-05
5e-05
5e-05
5e-05
5e-05
5e-05
5e-05
5e-05
5e-05
5e-05
5e-05
5e-05
5e-05
5e-05
5e-05
5e-05
5e-05
5e-05
5e-05
5e-05
5e-05
5e-05
5e-05
5e-05
5e-05
5e-05
5e-05
5e-05
5e-05
5e-05
5e-05
5e-05
5e-05
5e-05
5e-05
5e-05
5e-05
5e-05
5e-05
5e-05
5e-05
5e-05
5e-05
5e-05
5e-05
5e-05
5e-05
5e-05
5e-05
5e-05
5e-05
5e-05
5e-05
5e-05
5e-05
5e-05
5e-05
5e-05
5e-05
5e-05
5e-05
5e-05
5e-05
5e-05
5e-05
5e-05
5e-05
5e-05
5e-05
5e-05
5e-05
5e-05
5e-05
5e-05
5e-05
5e-05
5e-05
5e-05
5e-05
5e-05
5e-05
5e-05
5e-05
5e-05
5e-05
5e-05
5e-05
5e-05
5e-05
5e-05
5e-05
5e-05
5e-05
5e-05
5e-05

SCALARS mass float 1
LOOKUP_TABLE default
1.46608e-10
1.46608e-10
1.46608e-10
1.46608e-10
1.46608e-10
1.46608e-10
1.46608e-10
1.46608e-10
1.46608e-10
1.46608e-10
1.46608e-10
1.46608e-10
1.46608e-10
1.46608e-10
1.46608e-10
1.46608e-10
1.46608e-10
1.46608e-10
1.46608e-10
1.46608e-10
1.46608e-10
1.46608e-10
1.46608e-10
1.46608e-10
1.46608e-10
1.46608e-10
1.46608e-10
1.46608e-10
1.46608e-10
1.46608e-10
1.46608e-10
1.46608e-10
1.46608e-10
1.46608e-10
1.46608e-10
1.46608e-10
1.46608e-10
1.46608e-10
1.46608e-10
1.46608e-10
1.46608e-10
1.46608e-10
1.46608e-10
1.46608e-10
1.46608e-10
1.46608e-10
1.46608e-10
1.46608e-10
1.46608e-10
1.46608e-10
1.46608e-10
1.46608e-10
1.46608e-10
1.46608e-10
1.46608e-10
1.46608e-10
1.46608e-10
1.46608e-10
1.46608e-10
1.46608e-10
1.46608e-10
1.46608e-10
1.46608e-10
1.46608e-10
1.46608e-10
1.46608e-10
1.46608e-10
1.46608e-10
1.46608e-10
1.46608e-10
1.46608e-10
1.46608e-10
1.46608e-10
1.46608e-10
1.46608e-10
1.46608e-10
1.46608e-10
1.46608e-10
1.46608e-10
1.46608e-10
1.46608e-10
1.46608e-10
1.46608e-10
1.46608e-10
1.46608e-10
1.46608e-10
1.46608e-10
1.46608e-10
1.46608e-10
1.46608e-10
1.46608e-10
1.46608e-10
1.46608e-10
1.46608e-10
1.46608e-10
1.46608e-10
1.46608e-10
1.46608e-10
1.46608e-10
1.46608e-10
1.46608e-10
1.46608e-10
1.46608e-10
1.46608e-10
1.46608e-10
1.46608e-10
1.46608e-10
1.46608e-10
1.46608e-10
1.46608e-10
1.46608e-10
1.46608e-10
1.46608e-10
1.46608e-10
1.46608e-10
1.46608e-10
1.46608e-10
1.46608e-10
1.46608e-10
1.46608e-10
1.46608e-10
1.46608e-10
1.46608e-10
1.46608e-10
1.46608e-10
1.46608e-10
1.46608e-10
1.46608e-10
1.46608e-10
1.46608e-10
1.46608e-10
1.46608e-10
1.46608e-10
1.46608e-10
1.46608e-10
1.46608e-10
1.46608e-10
1.46608e-10
1.46608e-10
1.46608e-10
1.46608e-10
1.46608e-10
1.46608e-10
1.46608e-10
1.46608e-10
1.46608e-10
1.46608e-10
1.46608e-10
1.46608e-10
1.46608e-10
1.46608e-10
1.46608e-10
1.46608e-10
1.46608e-10
1.46608e-10
1.46608e-10
1.46608e-10
1.46608e-10
1.46608e-10
1.46608e-10
1.46608e-10
1.46608e-10
1.46608e-10
1.46608e-10
1.46608e-10
1.46608e-10
1.46608e-10
1.46608e-10
1.46608e-10
1.46608e-10
1.46608e-10
1.46608e-10
1.46608e-10
1.46608e-10
1.46608e-10
1.46608e-10
1.46608e-10
1.46608e-10
1.46608e-10
1.46608e-10
1.46608e-10
1.46608e-10
1.46608e-10
1.46608e-10
1.46608e-10
1.46608e-10
1.46608e-10
1.46608e-10
1.46608e-10
1.46608e-10
1.46608e-10
1.46608e-10
1.46608e-10
1.46608e-10
1.46608e-10
1.46608e-10
1.46608e-10
1.46608e-10
1.46608e-10
1.46608e-10
1.46608e-10
1.46608e-10
1.46608e-10
1.46608e-10
1.46608e-10
1.46608e-10
1.46608e-10
1.46608e-10
1.46608e-10
1.46608e-10
1.46608e-10
1.46608e-10
1.46608e-10
1.46608e-10
1.46608e-10
1.46608e-10
1.46608e-10
1.46608e-10
1.46608e-10
1.46608e-10
1.46608e-10
1.46608e-10
1.46608e-10
1.46608e-10
1.46608e-10
1.46608e-10
1.46608e-10
1.46608e-10
1.46608e-10
1.46608e-10
1.46608e-10
1.46608e-10
1.46608e-10
1.46608e-10
1.46608e-10
1.46608e-10
1.46608e-10
1.46608e-10
1.46608e-10
1.46608e-10
1.46608e-10
1.46608e-10
1.46608e-10
1.46608e-10
1.46608e-10
1.46608e-10
1.46608e-10
1.46608e-10
1.46608e-10
1.46608e-10
1.46608e-10
1.46608e-10
1.46608e-10
1.46608e-10
1.46608e-10
1.46608e-10
1.46608e-10
1.46608e-10
1.46608e-10
1.46608e-10
1.46608e-10
1.46608e-10
1.46608e-10
1.46608e-10
1.46608e-10
1.46608e-10
1.46608e-10
1.46608e-10
1.46608e-10
1.46608e-10
1.46608e-10
1.46608e-10
1.46608e-10
1.46608e-10
1.46608e-10
1.46608e-10
1.46608e-10
1.46608e-10
1.46608e-10
1.46608e-10
1.46608e-10
1.46608e-10
1.46608e-10
1.46608e-10
1.46608e-10
1.46608e-10
1.46608e-10
1.46608e-10
1.46608e-10

VECTORS velocity float
0.00475793 -3.11881e-05 -0.000381218
0.0045854 0.000386035 7.37373e-05
0.00464556 0.000354807 0.000110046
0.00466981 0.000348761 8.53128e-05
0.00457525 9.152e-06 -0.000402356
0.00489928 -1.31639e-05 0.000144519
0.00474033 -6.54004e-06 -0.000402859
0.00456721 1.67787e-05 -0.000409369
0.0043834 -2.52275e-05 -0.000183132
0.00538968 0.000388877 -0.00032303
0.00484626 -1.46351e-05 -0.000404112
0.0045825 -6.57633e-05 -0.000183216
0.00393994 0.00129865 -0.00145995
0.00463298 3.8542e-05 0.00032831
0.00481323 -4.11492e-05 -0.000375983
0.0046291 4.0416e-05 0.000326656
0.00388032 0.00122138 -0.00195346
0.00455013 4.1781e-05 0.000101464
0.00558251 0.000602761 -0.00101799
0.0048289 5.13896e-05 -0.00025433
0.00460695 1.03339e-05 -0.000406683
0.00479183 -3.59952e-05 -0.000380299
0.00456393 -5.07828e-05 -0.000130972
0.00476882 -2.78817e-05 -0.000385357
0.00492162 -5.96054e-06 0.000141023
0.00465155 -9.38694e-05 0.000416355
0.00472506 0.000743939 -0.00124508
0.00489507 -1.93827e-05 0.00014805
0.00467541 0.000294211 0.000102383
0.00482398 -3.64942e-05 -0.000383898
0.00490396 -7.45782e-06 0.000141282
0.00469292 0.000273103 9.81566e-05
0.00474309 -3.83433e-05 -0.000374169
0.00441727 -1.33557e-05 -0.000101807
0.00472566 -6.73884e-06 -0.000401585
0.00473178 -1.3094e-05 -0.000395564
0.00444033 7.09827e-05 8.16839e-05
0.00477869 -1.88412e-05 -0.000395066
0.00470412 -1.09007e-05 -0.000395375
0.00479861 -2.94325e-05 -0.000389754
0.00492836 -6.79731e-05 -0.000421185
0.00458432 0.000364957 8.72806e-05
0.00491081 -4.44445e-06 0.000139707
0.0049228 -8.54933e-06 0.000142388
0.00466238 5.48005e-06 -0.000407089
0.00483314 -5.16841e-05 -0.000358038
0.00491594 -5.15945e-06 0.000140205
0.00469071 0.00023822 -5.24074e-05
0.00444271 -0.000140689 0.000431145
0.00409373 0.000121585 4.24104e-05
0.00475807 -2.52435e-05 -0.000386381
0.00463736 3.33989e-05 0.000332351
0.00461297 0.000337782 0.00012219
0.00491361 -4.54571e-06 0.000139786
0.00464869 -7.29783e-05 0.000402342
0.0045745 -6.36086e-05 -0.000177996
0.00485671 -5.41003e-05 -0.000365638
0.00464569 1.13071e-05 -0.000411059
0.00490349 -3.1187e-05 -0.000392034
0.00472085 0.000303297 0.000100185
0.00439138 6.74742e-05 8.36256e-05
0.00454411 3.38982e-05 -0.000424875
0.00478525 3.88046e-05 0.000339929
0.00477225 0.000206901 -1.90884e-05
0.00463988 -8.10693e-05 0.000406845
0.00481155 -3.56373e-05 -0.000382329
0.00443479 -1.27538e-05 -0.000102359
0.00457772 3.53625e-05 0.000341455
0.00458973 -6.75991e-05 -0.00018239
0.00469363 -1.70063e-06 -0.000402982
0.0045056 0.000528772 3.75412e-05
0.00471852 -3.59249e-06 -0.000403432
0.00459402 -6.46556e-05 -0.000183156
0.00450058 0.000294823 0.000106789
0.0045878 1.27184e-05 0.000341751
0.00464456 -4.18934e-05 0.000381824
0.0046489 0.000309996 9.87591e-05
0.00426742 3.39881e-05 0.000155342
0.00466013 -0.000100998 0.000422215
0.00464027 -2.69517e-06 0.000351642
0.00457023 -7.83428e-05 -0.000179375
0.00449997 -5.85553e-05 0.000382904
0.00508239 0.000699786 -0.000114276
0.00440112 -1.24302e-05 -0.000101566
0.00469251 0.000275115 0.000114996
0.00471947 0.000297095 0.000109109
0.00474159 0.000297273 0.000107305
0.0049085 -3.89153e-05 -0.000391141
0.0045452 0.00030412 9.04186e-05
0.00450804 0.000206776 0.000107879
0.00463134 0.000305658 0.000147523
0.00447186 0.000292593 9.53594e-05
0.00461903 0.000247681 0.000110201
0.00447395 0.000247411 0.000127122
0.0046739 -5.11607e-05 0.000390309
0.00453004 0.000418367 6.49953e-05
0.00484214 0.000117222 0.00029313
0.00489857 -5.28583e-05 -0.000380231
0.0048601 -8.25922e-06 -0.000411647
0.00481439 3.71498e-05 0.000343688
0.00444502 7.31615e-05 0.000339877
0.00254335 0.000889537 -0.000969311
0.00463675 3.52827e-05 0.00033152
0.00471934 0.000304477 0.000110861
0.00486758 -1.49415e-05 -0.000391579
0.00453174 4.78276e-06 0.000188101
0.00445308 0.000294291 8.46326e-05
0.00464914 -7.2074e-05 0.000401899
0.00456533 -2.7715e-05 -1.25594e-05
0.00453678 -0.00010171 0.000410817
0.00455146 0.000363114 9.23856e-05
0.00473939 0.000312894 9.31114e-05
0.00451717 4.79097e-05 -0.000435904
0.00452511 -8.91221e-05 0.000402464
0.0048904 -2.39142e-05 0.00015061
0.00475676 -3.59266e-05 -0.000375373
0.00447623 5.54602e-05 -0.000437307
0.0044592 0.000473188 7.86915e-05
0.00464085 -3.69627e-05 0.000378321
0.00448368 0.000231458 0.000119513
0.00471454 -1.54759e-05 -0.000391993
0.0048439 -3.59128e-05 -0.000383747
0.00464144 -2.11792e-05 0.000367939
0.00458133 0.00029705 7.29881e-05
0.00471498 -5.09978e-05 0.000393129
0.00486226 -3.87068e-05 -0.000381156
0.00482144 5.12688e-05 0.000334574
0.00454124 0.000421781 6.8255e-05
0.00471531 -9.84287e-06 -0.000397111
0.00474498 0.000132161 -0.000511853
0.00474011 -2.87931e-05 -0.000381813
0.00464298 4.01535e-05 0.000329078
0.00450705 0.000252271 0.000101057
0.00468878 0.000281737 0.000101143
0.0047526 0.000293771 0.000106712
0.00452095 0.000247419 7.72768e-05
0.0046043 -1.46958e-05 0.00036288
0.00489971 -7.31024e-05 -0.000359587
0.0048338 9.32302e-05 -0.000198956
0.00455487 -9.25126e-05 -0.000305382
0.0043839 0.000305029 -0.00055123
0.00464679 4.30913e-05 0.000328441
0.00456697 0.000409978 -0.000766954
0.00466226 0.000265492 0.000101135
0.00445318 5.62104e-05 -0.000434345
0.00433252 -8.04803e-05 0.000385
0.00444958 5.87888e-05 -0.000437941
0.00455047 -0.000104115 0.000414337
0.00464395 -5.33692e-05 0.000388953
0.0047581 3.31926e-05 0.000341678
0.00450304 0.000199903 0.000146601
0.00469804 -4.79823e-05 0.000389911
0.0046611 3.00673e-05 -0.000429815
0.00435445 -0.000117522 0.000408577
0.00438677 0.00031622 -0.000564676
0.00440029 -0.000132477 0.000422292
0.00444598 0.000147627 0.000149115
0.00450723 -9.16236e-05 0.000403632
0.00469464 -1.48937e-05 -0.000390832
0.0046447 -6.98617e-05 0.000400077
0.00463635 0.000238716 0.000105418
0.00442526 -0.000132473 0.000415814
0.00442558 -8.82682e-05 0.000395186
0.00448436 0.000448476 5.65541e-05
0.00443735 -0.000137475 0.000376351
0.00406073 0.00102789 -0.000158268
0.00429143 -0.000106389 0.000392237
0.00441008 -0.000157817 0.000291203
0.00464073 -8.73696e-05 0.000410749
0.00422686 -0.000160334 0.000425751
0.0044837 -0.000162712 0.000447869
0.00449176 -9.46449e-05 0.000405443
0.00461942 0.00021151 0.000109721
0.0046412 -5.58928e-05 0.00039048
0.00471268 -1.00241e-05 -0.000396697
0.00405206 -0.000123769 0.000384789
0.00463264 0.000388185 7.91742e-05
0.00433687 -8.4173e-05 0.000385956
0.00430256 0.000171886 0.000244192
0.00445154 -1.27234e-05 -0.000102723
0.00432889 0.000248378 -0.000549247
0.00486631 -4.69826e-05 -0.000376174
0.00433356 -7.54758e-05 0.000388009
0.00438076 0.000399719 -1.76686e-05
0.00425175 -0.000166118 -0.000178151
0.00457109 0.000236081 0.000112599
0.00461718 4.81044e-06 -0.000402253
0.00433758 -0.000246358 -0.000230298
0.00463218 -6.71114e-05 0.000397269
0.00457339 2.80368e-06 -0.000396303
0.00464552 -6.6141e-05 0.00039762
0.00432015 -0.000112325 0.000404744
0.00464224 -3.07026e-05 0.000374473
0.00438074 -0.000214533 0.000285407
0.00429246 0.000220041 0.000272662
0.00470945 -2.59438e-05 -0.000381918
0.00406103 0.000209769 -0.000113533
0.00465388 -0.000109356 0.00042557
0.0044695 -5.60804e-05 0.000377469
0.00484769 0.000102506 0.000303249
0.00443656 -0.000142437 0.000443309
0.00464505 -8.10517e-05 0.00040692
0.00470717 0.000366684 8.33423e-05
0.00447846 0.000215393 0.000127503
0.00439723 -1.61711e-05 -0.000100662
0.00455861 0.000271584 7.88473e-05
0.00469969 -7.13509e-05 0.000405303
0.00454647 -0.000105745 0.000415612
0.00445769 0.000388854 -0.000550081
0.00432935 0.000321477 -0.000490249
0.00453089 0.000203289 0.00011473
0.00474894 2.67247e-05 -0.000434136
0.00463958 -4.54744e-05 0.000383656
0.00462425 1.50184e-05 -0.000412547
0.00464573 -6.27575e-05 0.000395653
0.00464098 -1.07273e-05 0.000361391
0.00438006 -2.85725e-05 -0.00018226
0.00442845 -0.000117194 0.000434576
0.00462611 4.21087e-05 0.00032563
0.00439743 3.48048e-06 0.000330526
0.00464841 -7.49823e-05 0.00040355
0.00439497 -0.000161701 0.000287499
0.00435507 -0.00047072 -0.000549233
0.00463034 -9.25897e-05 0.000413726
0.00435781 0.00029806 -0.000323883
0.00459814 0.00031934 9.86706e-05
0.0043808 -0.000133917 0.00028903
0.00436399 -0.000312034 -0.000241411
0.00441435 -0.00012001 0.000293997
0.00438243 -0.000131526 0.000414543
0.00443539 -0.000364588 1.37612e-05
0.00433323 -0.000327193 -0.000248467
0.00438867 -0.00020036 0.000137195
0.00439876 -0.000357026 1.03072e-05
0.00447376 -0.000371607 1.68887e-05
0.00434807 -0.000304139 -0.00021504
0.00437529 -7.97947e-05 0.000452146
0.00449455 2.62154e-06 -0.000390102
0.00418527 0.000414391 -0.000446053
0.00441208 -0.000312286 -0.000209731
0.00453713 3.50934e-07 -0.000391169
0.00481361 -3.40979e-05 -0.000385364
0.00445928 -0.000355448 3.85605e-05
0.0043195 -0.000129478 0.00041299
0.00441891 -0.00012744 0.000416526
0.00492355 0.000150855 0.000277405
0.00434598 -0.000304064 -0.000210807
0.00442072 -0.000116861 0.000294573
0.00439376 -0.000124441 0.000291639
0.00437142 -0.000120595 0.000411147
0.00460496 0.00036089 8.02913e-05
0.00438401 -0.000127238 0.000286839
0.0044057 -0.000138037 0.000291552
0.004457 -9.16274e-05 0.000465672
0.00440255 -0.000114736 0.000293606
0.00382026 -0.00314342 -0.00500414
0.00437313 0.000377779 -0.000574992
0.00434645 -0.000296126 0.000524955
0.00444163 -0.000130996 0.000428916
0.00433484 -0.000281759 -0.000218017
0.00438499 -0.000182306 0.000286284
0.00440168 -0.000130572 0.000291986
0.0044194 -0.000117602 0.00029442
0.00433397 -0.000279075 -0.000215586
0.00438254 -0.000144708 0.000287682
0.00440239 -0.000142873 0.000288136
0.0043652 -0.000146073 0.000287844
0.00414318 0.000358175 -0.000390632
0.00440466 -8.51519e-05 0.000457821
0.00445278 -0.000250234 -0.000246025
0.00429816 -0.000145053 0.000423602
0.00444639 -0.000252047 -0.000245155
0.00442639 -9.26839e-05 0.000459152
0.00434456 -0.000297418 -0.000219685
0.00436988 -0.000253473 0.000282707
0.00440062 -0.000147273 0.000312836
0.0050118 0.000455728 -4.13399e-05
0.00440708 -0.000122765 0.000292538
0.00462851 -2.13433e-05 0.000367399
0.00442036 -0.000119381 0.000294417
0.00430936 -0.000113452 0.000402638
0.00475144 0.000314471 0.000104309
0.00437824 -0.000151719 0.000288191
0.00463714 -2.89104e-05 0.000372993
0.00451884 0.00042457 5.68998e-05
0.00476399 0.000300352 0.000105245
0.00432031 -9.7424e-05 0.000393251
0.00492917 0.000149693 0.000278222
0.00475464 0.000304726 9.85408e-05

VECTORS force float
1.70303e-10 1.71537e-10 -1.84151e-10
2.0713e-10 3.4126e-10 -1.35645e-10
-1.06158e-10 -2.68396e-10 1.81989e-11
-2.85583e-10 -1.08379e-10 -3.15546e-12
4.73291e-11 -9.3949e-11 8.01642e-11
1.38117e-11 -2.2146e-12 9.90434e-13
2.00618e-11 -9.81938e-11 9.17543e-11
1.7008e-10 3.71927e-11 -7.26697e-11
3.67967e-11 1.5741e-11 -1.25059e-11
1.52806e-09 4.74021e-10 4.43499e-09
-6.2323e-11 -5.93917e-11 1.4514e-10
7.53995e-12 -3.44948e-12 7.82074e-13
-5.08516e-10 6.61769e-11 -7.63927e-10
1.58354e-11 7.99301e-11 -5.94648e-11
-8.6991e-11 -4.69371e-12 1.34473e-11
2.84714e-11 9.46145e-11 -5.94255e-11
0.0 0.0 -1.43822e-09
2.51982e-11 -4.21247e-11 4.27125e-11
3.0577e-10 -1.54476e-10 -2.37847e-10
4.25553e-10 2.91826e-10 -2.31083e-10
-3.36354e-10 -9.5474e-11 1.26634e-10
6.04504e-11 -1.28589e-11 2.67346e-11
2.82025e-11 1.84348e-11 1.54091e-10
1.54678e-10 -8.06955e-11 4.09255e-11
1.04058e-11 1.78962e-11 -8.3883e-12
-2.14319e-11 2.12695e-11 -1.49728e-11
0.0 0.0 -1.43822e-09
3.7239e-12 1.16023e-12 -5.61304e-13
2.66271e-10 1.0882e-10 2.71381e-10
-1.82134e-11 9.87479e-11 -6.42472e-11
-1.63807e-11 -6.67182e-12 2.97051e-12
2.03556e-10 9.29074e-12 7.30528e-11
2.27913e-10 8.49446e-11 -7.91591e-11
2.41821e-12 4.2731e-13 5.79151e-13
7.39559e-11 -7.69701e-11 5.35929e-11
2.80745e-10 -9.19811e-11 5.67195e-11
-5.46339e-11 -4.43242e-11 1.70704e-11
1.09687e-10 -1.19477e-10 9.97543e-11
1.5309e-10 6.67019e-11 -7.26035e-11
1.11508e-10 -9.56127e-11 1.08666e-10
-1.87059e-10 -7.72399e-10 6.71782e-10
4.93779e-10 -5.34704e-10 1.68691e-10
-2.02901e-11 4.88868e-12 -1.94947e-12
2.06841e-11 -1.83308e-11 6.16388e-12
2.16183e-10 1.98503e-10 -1.94933e-10
2.40932e-11 1.96383e-10 -2.19305e-10
1.53312e-11 1.12472e-11 -4.2792e-12
3.38862e-11 2.39152e-10 4.91424e-10
4.58591e-10 1.72025e-10 -5.70301e-11
1.07165e-11 -4.46149e-11 2.95135e-11
7.44563e-11 2.36667e-10 -2.39224e-10
6.60762e-11 5.15312e-11 -7.22676e-11
-2.23935e-11 -5.12283e-10 -2.08226e-11
3.7286e-11 1.06728e-11 -4.28196e-12
-2.51574e-11 -8.79923e-11 5.33831e-11
5.4792e-11 -9.52366e-12 2.83459e-11
-1.53388e-10 1.52431e-10 -7.59723e-11
1.56516e-10 1.02547e-10 -1.08148e-10
-2.21807e-10 -2.00065e-10 7.00576e-11
-7.12128e-12 -1.386e-10 5.87214e-11
6.50222e-11 -6.19293e-11 3.92238e-11
-1.44139e-10 -2.63586e-11 3.80613e-11
-3.50524e-11 -1.3773e-11 4.90072e-12
1.05293e-10 3.18304e-10 -2.11763e-10
-9.72214e-11 -1.50053e-10 9.17979e-11
-1.07879e-10 -6.37096e-11 3.10807e-11
-1.08508e-11 -1.78045e-11 4.44098e-12
2.77321e-11 -1.75609e-10 3.72366e-10
-1.26193e-11 8.71691e-12 -9.19677e-12
-2.44335e-10 6.88822e-11 -4.31223e-11
2.37547e-10 -1.12024e-10 7.43368e-11
-2.26698e-11 -2.94091e-11 2.25927e-11
-2.02469e-11 1.59266e-11 -3.4627e-12
2.05437e-11 6.59064e-11 -5.33745e-12
2.57487e-11 -3.77607e-10 1.45482e-10
-1.93411e-11 -9.13992e-11 6.44251e-11
-1.22495e-10 -3.84944e-10 1.13743e-10
1.93293e-10 1.17366e-10 6.60652e-10
4.34835e-12 6.12045e-11 -5.40337e-11
-1.00486e-10 -3.37966e-10 1.44205e-10
-3.19019e-11 -6.87897e-12 -6.37341e-12
1.60338e-10 -3.64694e-10 3.44898e-10
-7.26285e-11 -2.70419e-10 3.45299e-10
2.40551e-11 2.41152e-11 -9.41076e-12
1.41686e-10 -5.77756e-11 3.16236e-11
5.96597e-11 -6.47433e-11 -2.54308e-11
-8.03372e-11 5.20913e-11 6.87635e-11
-2.35254e-10 9.54923e-11 5.33819e-11
4.68688e-10 -5.24301e-10 -9.25987e-11
4.75968e-10 7.41696e-11 1.94224e-11
-2.62308e-10 2.83993e-11 -5.22032e-10
-8.69813e-11 -6.74282e-11 1.87958e-11
-7.96363e-11 -6.82907e-10 7.78241e-11
1.15948e-10 -1.88599e-10 -6.29674e-11
2.33707e-11 -3.53434e-12 -1.39548e-12
4.56245e-10 -3.79671e-10 9.04377e-12
4.02869e-11 -4.43465e-11 3.42517e-11
-4.76631e-12 3.26306e-11 -9.59896e-11
1.94225e-10 -7.16286e-12 -4.79537e-12
-3.6751e-11 2.40607e-11 -1.34527e-11
-1.88546e-10 -1.50883e-10 2.05079e-10
-1.88211e-10 2.61906e-10 -9.62866e-10
3.5762e-11 9.79142e-11 -6.0308e-11
-6.35542e-11 7.04297e-11 -9.25139e-11
1.00974e-10 9.47785e-11 1.42359e-10
1.53039e-09 -9.78497e-10 -2.20713e-10
-1.44912e-10 -1.68339e-10 -2.86904e-11
-4.04927e-11 -8.47637e-11 5.33077e-11
-6.89787e-09 1.96378e-09 2.23103e-09
2.82851e-10 2.59903e-10 -1.36881e-10
2.72092e-10 -3.06344e-10 6.82212e-11
1.23862e-11 -6.97367e-11 3.39214e-11
-5.1674e-10 -2.68451e-10 3.37892e-10
1.75432e-10 1.12407e-10 -6.90518e-11
-5.98492e-13 -3.71561e-12 2.15152e-12
2.12732e-10 3.78924e-11 -8.00384e-11
-4.85873e-10 -5.0453e-10 5.57113e-10
7.97029e-10 3.72369e-10 1.45976e-10
-3.70036e-11 -1.29791e-10 8.17489e-11
7.77256e-10 -2.88842e-10 1.06192e-10
-2.91919e-10 -7.31387e-11 8.8882e-11
5.25853e-11 -2.88598e-11 1.23634e-11
-1.80249e-11 -1.84825e-10 1.20669e-10
-2.01715e-10 1.51482e-10 -3.38602e-10
-5.08179e-11 3.70891e-11 -2.37146e-11
6.25305e-11 9.33697e-11 -1.18646e-10
-1.94453e-11 2.58745e-11 -1.57979e-11
5.71911e-11 3.3193e-10 -1.00379e-10
2.5419e-10 -8.86711e-11 5.6905e-11
7.56193e-11 2.02566e-10 2.12937e-11
1.43292e-10 1.99908e-10 -1.74188e-10
1.0651e-10 9.66392e-11 -6.11538e-11
3.93142e-11 -2.64021e-10 -1.03622e-10
-6.9228e-11 -1.50097e-10 2.9399e-11
7.15948e-11 -4.38916e-11 9.60047e-11
-7.72996e-11 -2.00838e-10 -8.74876e-11
1.1161e-10 -2.85519e-10 2.08498e-10
1.46507e-10 1.11346e-11 4.0372e-10
-4.46606e-11 -1.48744e-10 1.54118e-10
4.98128e-11 1.83592e-11 -6.55881e-11
6.16744e-10 -7.21267e-11 -2.15675e-10
4.26914e-11 -2.55576e-11 5.79844e-11
-1.92912e-11 6.51502e-10 -5.1127e-10
-1.09807e-10 -2.78253e-10 3.62537e-11
4.64874e-11 -7.2488e-10 6.79307e-10
-9.34183e-11 2.25413e-10 -8.92963e-11
-1.45835e-10 -7.57946e-10 7.0044e-10
1.87431e-10 6.04477e-11 1.8375e-11
1.10262e-11 -1.00225e-10 6.57418e-11
4.23754e-11 -1.22354e-11 1.03128e-11
4.40786e-10 -2.57466e-10 -4.3188e-10
-6.94489e-11 -2.61571e-11 6.92112e-12
-1.27863e-10 5.78063e-11 -4.10754e-11
-2.4e-10 3.60276e-10 -1.76089e-10
7.42395e-10 2.40871e-10 -4.61147e-10
2.90592e-10 2.47531e-10 -1.2498e-10
4.137e-10 7.38469e-10 3.62303e-10
3.22265e-10 1.16132e-10 -7.00849e-11
3.11607e-10 5.70453e-12 -2.68348e-11
-2.52394e-11 -7.32065e-11 4.42907e-11
-1.08484e-10 -4.31679e-10 1.85166e-10
1.82915e-10 4.87139e-12 -3.98094e-11
-2.02578e-11 1.05817e-10 -8.60439e-11
4.62436e-10 -2.19651e-10 -3.51141e-11
2.56798e-10 2.97852e-11 7.92352e-11
1.25732e-09 -9.18663e-12 4.0474e-10
-1.10666e-10 1.76719e-10 -1.36113e-10
9.86557e-11 -2.50537e-10 -2.31482e-11
4.01019e-12 -2.43662e-11 1.69299e-12
-2.14499e-10 8.53739e-11 -1.10277e-10
3.73804e-10 -9.28961e-11 5.72849e-11
-2.34402e-10 2.22868e-10 -1.60883e-10
-6.88157e-11 -3.10154e-10 -2.17358e-11
-4.4623e-12 -8.67968e-11 5.56381e-11
-9.07385e-11 -7.59081e-11 7.18198e-11
1.44475e-10 -8.0258e-11 3.73102e-11
2.10684e-10 -2.31262e-10 6.01572e-13
-6.48099e-11 1.80821e-10 -1.75852e-10
-8.16e-11 4.46724e-11 -9.02608e-10
-7.43841e-12 -2.56098e-11 4.77785e-12
-1.23541e-10 -4.50597e-10 -6.4024e-10
-1.20801e-13 1.35361e-10 -6.85082e-11
1.47525e-11 3.60994e-10 -9.77874e-11
1.64938e-10 -6.67064e-11 4.9694e-10
-3.51285e-11 7.31314e-12 4.24257e-10
3.05799e-10 -7.01332e-10 6.3184e-11
7.12727e-11 5.94852e-11 -5.56997e-11
1.64057e-10 3.6914e-11 -3.41118e-11
-6.62458e-11 -7.68978e-11 4.40092e-11
-8.87763e-11 4.31142e-11 -3.39835e-11
-1.92597e-11 -8.05046e-11 5.1298e-11
-3.63574e-11 1.96169e-10 -9.65986e-11
-6.01892e-11 -1.42934e-10 8.49622e-11
-7.00276e-11 -7.48024e-11 -3.15674e-11
4.15046e-10 -1.52742e-10 3.40031e-10
5.15656e-10 3.17847e-11 -7.69622e-11
5.07655e-10 -4.81771e-10 5.97409e-11
-6.17105e-11 3.0984e-11 -4.07998e-11
2.17027e-10 2.90149e-10 -1.72515e-10
3.77281e-11 2.70401e-11 -1.36183e-11
-1.45524e-10 4.74356e-11 -6.57188e-11
1.48991e-12 -4.32624e-11 3.67822e-11
1.18927e-10 -1.79363e-10 6.4906e-11
4.79619e-10 2.10176e-10 -3.38076e-10
-4.46489e-12 3.4315e-12 8.09628e-13
-6.52966e-11 -1.66433e-10 -5.78569e-12
-3.8953e-11 6.62421e-11 -4.89493e-11
3.81006e-10 3.72316e-11 2.88902e-13
1.20311e-09 -2.62884e-10 -3.98573e-10
1.2127e-10 2.03349e-10 3.96198e-10
2.72045e-10 -4.11147e-10 9.82232e-11
-5.47628e-11 1.26685e-10 -1.14945e-10
1.40078e-11 -1.14371e-10 7.90523e-11
3.40447e-11 -9.91574e-12 7.91834e-12
-3.84384e-11 -1.1865e-10 6.87842e-11
-6.36204e-11 -2.20805e-10 1.4119e-10
3.12717e-11 -4.65197e-11 -6.24555e-13
5.75727e-11 9.3e-11 -3.25219e-10
2.68786e-11 9.66515e-11 -6.10563e-11
-8.867e-11 -2.74638e-10 1.70226e-10
-7.40458e-12 -8.48952e-11 5.58883e-11
9.09528e-11 -1.51217e-10 -1.06043e-11
-6.47097e-11 -1.67067e-10 -1.02229e-10
3.53103e-11 -9.15248e-11 6.26774e-11
9.26102e-11 -1.48928e-10 3.84465e-10
2.91221e-10 -4.00798e-10 -1.45181e-11
1.87441e-11 1.61503e-10 2.10566e-11
-9.8809e-12 -8.45554e-11 -1.21214e-10
-1.58631e-10 -8.30465e-11 -1.35392e-11
-7.63842e-11 8.34237e-11 -2.43072e-10
1.55929e-11 -2.96499e-12 2.95106e-12
-8.8616e-11 9.63889e-11 5.44357e-10
2.21678e-10 -1.3631e-10 -8.09936e-10
-3.51345e-13 -7.62871e-12 6.71867e-12
-1.08727e-11 -4.08143e-12 -2.52111e-11
1.26216e-10 2.41912e-10 -1.19396e-10
-4.57786e-11 9.08929e-12 -3.71984e-11
2.34121e-10 -1.44737e-10 9.68237e-11
-1.06541e-10 -1.25683e-10 4.60306e-10
3.50121e-11 -6.37301e-11 2.19038e-10
9.32942e-11 -6.71599e-11 3.85192e-11
2.1579e-10 1.29184e-10 -1.81403e-10
6.33447e-12 3.86443e-12 -3.47453e-11
4.76132e-11 1.05203e-10 -8.19161e-11
-2.43889e-10 2.83227e-10 -1.33075e-10
4.57688e-12 1.25544e-11 -9.50676e-12
3.09749e-10 1.71322e-10 3.56214e-10
-2.29038e-10 -2.54053e-10 -3.70097e-11
-1.05335e-10 -1.09281e-10 -5.44504e-11
6.09975e-11 9.0554e-11 -8.99475e-11
2.9913e-11 -1.83936e-10 7.37017e-11
2.63213e-11 1.26002e-10 -7.95542e-11
-1.26851e-10 -1.97172e-10 -4.22602e-11
1.17298e-11 -9.47601e-11 6.88742e-11
-1.43862e-10 -4.56256e-11 -1.03158e-11
-8.17062e-11 -4.6527e-10 -4.54613e-10
1.9086e-10 9.44187e-11 -3.4034e-10
4.34172e-10 -7.93777e-11 1.10861e-10
9.74109e-11 3.33958e-11 -4.73808e-11
-3.45261e-11 -3.33395e-11 8.4375e-11
-9.01649e-11 -1.57263e-10 -3.04914e-11
-3.42528e-11 5.70541e-11 4.63562e-12
-8.55321e-11 -1.98252e-11 -6.77976e-12
1.92377e-10 1.46858e-10 -1.2122e-10
-3.37632e-11 -5.49481e-11 3.46824e-11
1.09223e-11 -4.86824e-11 3.95332e-11
3.08812e-11 1.06229e-10 1.2469e-11
8.12712e-11 2.3917e-10 -2.74881e-10
1.37375e-10 7.84742e-12 4.90182e-11
-2.84075e-11 -2.26e-11 -1.67501e-11
1.85757e-11 1.0855e-10 -7.52045e-11
2.9429e-11 6.68014e-11 -5.50594e-12
-1.87854e-11 -1.37601e-11 3.9814e-11
-1.13371e-10 -1.56641e-10 1.13473e-11
-1.1541e-10 -9.33158e-11 -1.01964e-11
1.23508e-10 -1.48053e-11 6.8776e-11
2.45117e-11 -1.54371e-10 -2.1783e-10
-2.35444e-10 4.82847e-11 -2.19827e-11
-6.73497e-12 -2.22527e-10 1.34869e-10
-1.79686e-10 -1.82011e-10 -2.85294e-11
7.65424e-11 1.72383e-10 -1.30537e-10
-1.20076e-11 4.10212e-11 -2.10825e-11
-6.00771e-12 5.81008e-11 5.82784e-12
-6.1232e-11 -1.48867e-10 9.7678e-11
5.80626e-11 -2.42656e-10 -4.37932e-11
4.94568e-11 3.11969e-10 -3.67939e-11
-4.38242e-11 1.3118e-10 -3.88456e-11
-1.20139e-11 2.55131e-11 -1.66615e-11
-2.5472e-10 2.0037e-10 -1.05447e-10
