# vtk DataFile Version 3.0
LIGGGHTS particles timestep 11200000
ASCII
DATASET POLYDATA
POINTS 289 float
0.0644391 0.0166973 0.00772207
0.06474 0.0175967 0.00706444
0.0645744 0.017494 0.00723692
0.0646648 0.0176622 0.00705832
0.0640648 0.0163485 0.00797042
0.0700808 0.0163652 0.00787722
0.0642132 0.0169003 0.00756606
0.0640432 0.0162698 0.00802813
0.0703709 0.0176076 0.0072188
0.0643427 0.0174649 0.00725881
0.0644404 0.0171139 0.00741384
0.0703334 0.0174112 0.00721498
0.0643236 0.0173858 0.00731688
0.0579086 0.0159148 0.00853654
0.0643647 0.0171655 0.00737374
0.0578869 0.0158474 0.00860718
0.0642889 0.0172359 0.00743192
0.0702771 0.0171352 0.00727031
0.0642504 0.017074 0.00754877
0.0645761 0.0172508 0.00731611
0.0640864 0.0164273 0.00791272
0.0643461 0.0170861 0.00743198
0.0702955 0.0172148 0.00721268
0.0643272 0.0170068 0.00749021
0.0701828 0.016749 0.00757353
0.0582411 0.0170169 0.00748407
0.064269 0.0171532 0.00749065
0.0700591 0.0162886 0.00793776
0.0644539 0.0173792 0.00732238
0.0642888 0.0172169 0.00733373
0.0701025 0.0164418 0.00781668
0.06449 0.0175384 0.00720682
0.0643827 0.0168749 0.00758922
0.0703901 0.0177057 0.00722082
0.0641932 0.0168213 0.007624
0.0643079 0.0169273 0.00754853
0.0702224 0.0169028 0.00745186
0.0642327 0.0169793 0.00750806
0.0643218 0.0166369 0.00776369
0.0642517 0.0170585 0.00744998
0.0644809 0.017276 0.00729501
0.0647794 0.0177919 0.00704848
0.0701238 0.0165184 0.00775608
0.0702025 0.0168259 0.00751268
0.0641297 0.0165848 0.0077973
0.0645557 0.0171718 0.00737399
0.0701639 0.0166721 0.00763448
0.0644556 0.0175635 0.00708164
0.0585162 0.0169983 0.00745516
0.0702399 0.0169799 0.00739071
0.0644793 0.0168552 0.00760622
0.0579303 0.0159837 0.00846746
0.0645063 0.017618 0.00714844
0.0701438 0.0165952 0.00769527
0.0582612 0.0167494 0.00770176
0.0703144 0.017313 0.00721346
0.0645364 0.0170927 0.00743203
0.064108 0.016506 0.00785501
0.0644601 0.0171943 0.00735492
0.0646438 0.0175677 0.00708338
0.0702583 0.017057 0.00732968
0.0640216 0.0161901 0.00808462
0.0584059 0.0169003 0.00755225
0.0645944 0.0173354 0.00726613
0.0583581 0.0167675 0.00768509
0.0642704 0.0171377 0.00739187
0.0704095 0.0178038 0.00722285
0.057952 0.0160527 0.00839837
0.070352 0.0175094 0.0072168
0.0641513 0.0166635 0.0077396
0.0648046 0.0174723 0.00715813
0.0641728 0.0167423 0.00768188
0.0703531 0.0170841 0.00731109
0.0645648 0.0185099 0.00709396
0.0579955 0.0161906 0.00826021
0.0581041 0.0165367 0.00791627
0.0646097 0.0178894 0.00705988
0.05823 0.0166508 0.00787167
0.0582536 0.017056 0.00739289
0.0580172 0.0162595 0.00819112
0.0703343 0.0170071 0.00737206
0.0580704 0.0161435 0.00830876
0.064401 0.0177272 0.00706754
0.0704463 0.017542 0.00722343
0.0645147 0.0178575 0.00706175
0.06457 0.0176936 0.00705113
0.0645497 0.0175937 0.0070617
0.0644016 0.017324 0.00725745
0.0647246 0.0179559 0.00705908
0.0646179 0.0183463 0.00708344
0.0644951 0.0177595 0.00705749
0.0645431 0.0184123 0.00708967
0.0646298 0.0179872 0.00706425
0.0645754 0.018151 0.00707482
0.0583221 0.0169081 0.00760618
0.0648198 0.0179866 0.00705715
0.0584117 0.0166545 0.00779969
0.0643258 0.0173754 0.00721744
0.0644219 0.0170347 0.00747199
0.0584316 0.01704 0.00741182
0.0579751 0.0161214 0.00832951
0.064362 0.017534 0.00710108
0.0580258 0.0160057 0.00844685
0.0644724 0.0174587 0.00726457
0.0644999 0.0173551 0.00723693
0.0644201 0.0178254 0.00706599
0.0645214 0.0183148 0.00708539
0.0581855 0.0168052 0.00766762
0.0644392 0.0179235 0.00706801
0.058307 0.0172777 0.00720019
0.0646063 0.0175747 0.00718722
0.0646886 0.0173584 0.00723935
0.0640001 0.0161099 0.00814026
0.0583806 0.0172395 0.00725708
0.0700374 0.016212 0.0079983
0.0644025 0.0169548 0.00753059
0.0639785 0.0160299 0.00819624
0.0647662 0.0181513 0.00706774
0.0581566 0.0164197 0.00803203
0.064693 0.0182804 0.00707721
0.0642471 0.0166894 0.00772295
0.0643832 0.0172447 0.0073156
0.0580608 0.0163986 0.00805419
0.0644759 0.0176611 0.00706351
0.0583415 0.0170084 0.00744225
0.0643071 0.0172962 0.00727556
0.0584244 0.0169696 0.00748259
0.0647587 0.0176934 0.0070441
0.064288 0.0168479 0.00760674
0.0645174 0.0174347 0.00717854
0.0644594 0.0167762 0.00766417
0.058004 0.0159367 0.00851602
0.064671 0.0181827 0.00707292
0.0645898 0.0177915 0.00705552
0.0645336 0.0175142 0.00712013
0.0645544 0.0180534 0.00707051
0.0580911 0.0162126 0.00823951
0.0644208 0.0174033 0.00719926
0.0644393 0.0174839 0.00714012
0.0643817 0.0176308 0.00708557
0.0648618 0.018182 0.00706579
0.0580489 0.0160745 0.00837799
0.0643447 0.0174546 0.00715937
0.0645344 0.0179555 0.00706614
0.063957 0.0159499 0.00825222
0.0584314 0.0174235 0.00719798
0.0639354 0.0158698 0.0083082
0.0582883 0.0171951 0.00725336
0.0581432 0.0166565 0.00779339
0.0583954 0.0168459 0.00763545
0.0645814 0.0182996 0.00716397
0.0583195 0.0169395 0.00751127
0.0642036 0.0165316 0.00783854
0.0585449 0.017554 0.00719213
0.0646828 0.0186389 0.00709631
0.0585312 0.0170681 0.00738513
0.0646084 0.0187054 0.00710255
0.0584599 0.0171802 0.00727111
0.0643422 0.0167159 0.00770581
0.0583149 0.0166296 0.00782328
0.0644779 0.0181195 0.00707681
0.0587457 0.0176309 0.00718842
0.0584099 0.0173304 0.00722743
0.0647451 0.0180537 0.00706343
0.0586915 0.0177957 0.00718576
0.0647877 0.0182489 0.00707204
0.0585023 0.0173529 0.00719657
0.0586647 0.0171396 0.00731529
0.0582209 0.0169268 0.00752245
0.0585397 0.0171384 0.00731452
0.0584478 0.0171097 0.00734193
0.0583259 0.0173758 0.00719805
0.0644581 0.0180216 0.00707243
0.058199 0.0165582 0.00789322
0.0642678 0.0167686 0.00766484
0.0586305 0.0175022 0.00719222
0.0647226 0.0175173 0.00712271
0.0584501 0.0175217 0.00719381
0.0581278 0.0166298 0.00788854
0.0704313 0.0179014 0.00722504
0.0648105 0.0184064 0.00707941
0.0645181 0.0170134 0.00749019
0.0583447 0.017474 0.0071959
0.0647147 0.018378 0.0070815
0.0583637 0.0175722 0.00719376
0.0646503 0.018085 0.00706859
0.0641604 0.0163739 0.00795371
0.0587661 0.0177288 0.00718626
0.058299 0.0165599 0.0078932
0.0641388 0.0162939 0.00800965
0.0582385 0.0166878 0.00777916
0.0586989 0.0174292 0.00719291
0.0580823 0.0164663 0.00798388
0.058574 0.0181086 0.00718087
0.0585407 0.017236 0.00729283
0.0643626 0.0167953 0.00764759
0.0585685 0.0173287 0.00726748
0.058271 0.0171255 0.00732312
0.0584638 0.0172506 0.00720023
0.0584352 0.0167232 0.0077309
0.0586495 0.0176004 0.00719329
0.0582063 0.0168861 0.00761261
0.0647051 0.0174379 0.00718097
0.0646396 0.0184438 0.00708773
0.0703942 0.017253 0.00721779
0.0644996 0.018217 0.00708109
0.0583487 0.0170787 0.00737152
0.0583652 0.0171579 0.00731283
0.0648403 0.0180844 0.00706149
0.0646302 0.0188031 0.00710685
0.0645962 0.0182487 0.00707916
0.0642253 0.0166104 0.00778083
0.0581786 0.0164889 0.00796269
0.064182 0.0164529 0.00789625
0.058164 0.0167256 0.00772416
0.0580389 0.0163285 0.00812203
0.0703715 0.0171611 0.00725007
0.0585842 0.01775 0.00718784
0.0578653 0.0157841 0.00868156
0.0584691 0.0176198 0.00719167
0.0582799 0.0168207 0.00763025
0.0588091 0.017924 0.00718194
0.0584019 0.0177685 0.00718947
0.0583346 0.0166988 0.00775388
0.0646611 0.0185413 0.00709202
0.0647046 0.017858 0.00705471
0.0585531 0.0184533 0.0071743
0.0584878 0.0181594 0.00718082
0.0586923 0.0182381 0.00717702
0.0584885 0.0177179 0.00718952
0.0521786 0.0167546 0.00763189
0.0584661 0.0180618 0.00718298
0.0585089 0.0178158 0.00718736
0.052158 0.0166631 0.00766654
0.0521991 0.0168461 0.00759724
0.0585305 0.0179134 0.0071852
0.0522419 0.0170376 0.00751683
0.0640956 0.0161339 0.0081216
0.0647361 0.0184755 0.00708579
0.0584226 0.0178664 0.00718731
0.0641172 0.0162139 0.00806562
0.0644988 0.0169343 0.00754822
0.0522204 0.0169406 0.00755878
0.0586085 0.0174135 0.00723271
0.058564 0.0176522 0.00718999
0.058472 0.016789 0.00766524
0.0584444 0.0179642 0.00718514
0.0588308 0.0180216 0.00717978
0.058671 0.0181404 0.00717918
0.0587256 0.0175329 0.00719057
0.0646847 0.0177601 0.00705259
0.0585314 0.0183555 0.00717647
0.0587565 0.0180885 0.00717927
0.0523066 0.0173364 0.00738778
0.0585957 0.0182062 0.00717871
0.0583828 0.0176703 0.00719162
0.0647044 0.0187364 0.0071006
0.0585054 0.0169282 0.00752562
0.0586702 0.017698 0.00718792
0.0586276 0.0179453 0.00718351
0.0586493 0.0180428 0.00718135
0.0586387 0.0184015 0.00717439
0.058714 0.0183357 0.00717486
0.0586059 0.0178477 0.00718567
0.0587348 0.0179909 0.00718143
0.0587873 0.0178264 0.0071841
0.0585754 0.0185535 0.00717208
0.0645867 0.0186078 0.00709827
0.0522614 0.0171277 0.00747794
0.0523709 0.0172559 0.00741816
0.0585635 0.0172571 0.00719779
0.0523279 0.0174344 0.00734542
0.0522809 0.0172177 0.00743904
0.0585523 0.0180111 0.00718304
0.0585095 0.018257 0.00717866
0.058713 0.0178934 0.0071836
0.0643804 0.0175423 0.00719902
0.058617 0.0183039 0.00717655
0.0581128 0.0162816 0.00817042
0.0587778 0.0181862 0.00717711
0.0586339 0.0172064 0.00724754
0.0646277 0.0174882 0.0071418
0.0586595 0.0184993 0.00717223
0.0581347 0.0163505 0.00810136
0.0646058 0.0176623 0.0071391
0.0646704 0.0172787 0.00729787
0.0585259 0.0174559 0.00719428
0.0584867 0.0168588 0.00759517
0.0646114 0.0174087 0.00720022

VERTICES 289 578
1 0
1 1
1 2
1 3
1 4
1 5
1 6
1 7
1 8
1 9
1 10
1 11
1 12
1 13
1 14
1 15
1 16
1 17
1 18
1 19
1 20
1 21
1 22
1 23
1 24
1 25
1 26
1 27
1 28
1 29
1 30
1 31
1 32
1 33
1 34
1 35
1 36
1 37
1 38
1 39
1 40
1 41
1 42
1 43
1 44
1 45
1 46
1 47
1 48
1 49
1 50
1 51
1 52
1 53
1 54
1 55
1 56
1 57
1 58
1 59
1 60
1 61
1 62
1 63
1 64
1 65
1 66
1 67
1 68
1 69
1 70
1 71
1 72
1 73
1 74
1 75
1 76
1 77
1 78
1 79
1 80
1 81
1 82
1 83
1 84
1 85
1 86
1 87
1 88
1 89
1 90
1 91
1 92
1 93
1 94
1 95
1 96
1 97
1 98
1 99
1 100
1 101
1 102
1 103
1 104
1 105
1 106
1 107
1 108
1 109
1 110
1 111
1 112
1 113
1 114
1 115
1 116
1 117
1 118
1 119
1 120
1 121
1 122
1 123
1 124
1 125
1 126
1 127
1 128
1 129
1 130
1 131
1 132
1 133
1 134
1 135
1 136
1 137
1 138
1 139
1 140
1 141
1 142
1 143
1 144
1 145
1 146
1 147
1 148
1 149
1 150
1 151
1 152
1 153
1 154
1 155
1 156
1 157
1 158
1 159
1 160
1 161
1 162
1 163
1 164
1 165
1 166
1 167
1 168
1 169
1 170
1 171
1 172
1 173
1 174
1 175
1 176
1 177
1 178
1 179
1 180
1 181
1 182
1 183
1 184
1 185
1 186
1 187
1 188
1 189
1 190
1 191
1 192
1 193
1 194
1 195
1 196
1 197
1 198
1 199
1 200
1 201
1 202
1 203
1 204
1 205
1 206
1 207
1 208
1 209
1 210
1 211
1 212
1 213
1 214
1 215
1 216
1 217
1 218
1 219
1 220
1 221
1 222
1 223
1 224
1 225
1 226
1 227
1 228
1 229
1 230
1 231
1 232
1 233
1 234
1 235
1 236
1 237
1 238
1 239
1 240
1 241
1 242
1 243
1 244
1 245
1 246
1 247
1 248
1 249
1 250
1 251
1 252
1 253
1 254
1 255
1 256
1 257
1 258
1 259
1 260
1 261
1 262
1 263
1 264
1 265
1 266
1 267
1 268
1 269
1 270
1 271
1 272
1 273
1 274
1 275
1 276
1 277
1 278
1 279
1 280
1 281
1 282
1 283
1 284
1 285
1 286
1 287
1 288

POINT_DATA 289
SCALARS id int 1
LOOKUP_TABLE default
1
2
3
4
5
6
7
8
9
10
11
12
13
14
15
16
17
18
19
20
21
22
24
25
26
27
29
30
31
32
33
34
35
36
37
38
39
40
41
42
43
44
45
46
47
48
49
50
52
53
54
55
56
57
58
59
60
61
62
63
64
65
66
67
68
69
70
71
72
73
74
75
76
77
78
79
80
81
82
83
84
85
86
87
88
89
90
91
92
93
94
95
96
98
99
100
101
102
103
104
105
106
107
108
109
110
111
112
113
114
115
116
117
118
119
120
121
122
123
124
125
126
127
128
129
130
131
132
133
134
135
136
137
138
139
140
141
142
144
145
146
147
148
149
150
152
153
154
155
156
157
158
159
160
161
162
164
165
166
167
168
169
170
171
172
173
174
175
176
177
178
179
180
181
182
183
184
185
186
187
188
189
190
191
192
193
194
195
196
197
198
199
200
201
202
203
204
205
206
207
208
209
210
211
213
214
215
216
217
218
219
220
221
222
223
224
225
226
227
228
229
230
231
232
233
234
235
236
237
238
239
241
242
243
244
245
246
247
248
249
250
251
252
253
254
255
256
257
258
259
260
261
262
263
264
265
267
268
269
270
271
272
273
274
275
276
277
278
279
280
281
282
283
284
285
286
287
288
289
290
292
293
294
295
296
297
298
299
300

SCALARS type int 1
LOOKUP_TABLE default
1
1
1
1
1
1
1
1
1
1
1
1
1
1
1
1
1
1
1
1
1
1
1
1
1
1
1
1
1
1
1
1
1
1
1
1
1
1
1
1
1
1
1
1
1
1
1
1
1
1
1
1
1
1
1
1
1
1
1
1
1
1
1
1
1
1
1
1
1
1
1
1
1
1
1
1
1
1
1
1
1
1
1
1
1
1
1
1
1
1
1
1
1
1
1
1
1
1
1
1
1
1
1
1
1
1
1
1
1
1
1
1
1
1
1
1
1
1
1
1
1
1
1
1
1
1
1
1
1
1
1
1
1
1
1
1
1
1
1
1
1
1
1
1
1
1
1
1
1
1
1
1
1
1
1
1
1
1
1
1
1
1
1
1
1
1
1
1
1
1
1
1
1
1
1
1
1
1
1
1
1
1
1
1
1
1
1
1
1
1
1
1
1
1
1
1
1
1
1
1
1
1
1
1
1
1
1
1
1
1
1
1
1
1
1
1
1
1
1
1
1
1
1
1
1
1
1
1
1
1
1
1
1
1
1
1
1
1
1
1
1
1
1
1
1
1
1
1
1
1
1
1
1
1
1
1
1
1
1
1
1
1
1
1
1
1
1
1
1
1
1
1
1
1
1
1
1
1
1
1
1
1
1
1
1
1
1
1
1

SCALARS radius float 1
LOOKUP_TABLE default
5e-05
5e-05
5e-05
5e-05
5e-05
5e-05
5e-05
5e-05
5e-05
5e-05
5e-05
5e-05
5e-05
5e-05
5e-05
5e-05
5e-05
5e-05
5e-05
5e-05
5e-05
5e-05
5e-05
5e-05
5e-05
5e-05
5e-05
5e-05
5e-05
5e-05
5e-05
5e-05
5e-05
5e-05
5e-05
5e-05
5e-05
5e-05
5e-05
5e-05
5e-05
5e-05
5e-05
5e-05
5e-05
5e-05
5e-05
5e-05
5e-05
5e-05
5e-05
5e-05
5e-05
5e-05
5e-05
5e-05
5e-05
5e-05
5e-05
5e-05
5e-05
5e-05
5e-05
5e-05
5e-05
5e-05
5e-05
5e-05
5e-05
5e-05
5e-05
5e-05
5e-05
5e-05
5e-05
5e-05
5e-05
5e-05
5e-05
5e-05
5e-05
5e-05
5e-05
5e-05
5e-05
5e-05
5e-05
5e-05
5e-05
5e-05
5e-05
5e-05
5e-05
5e-05
5e-05
5e-05
5e-05
5e-05
5e-05
5e-05
5e-05
5e-05
5e-05
5e-05
5e-05
5e-05
5e-05
5e-05
5e-05
5e-05
5e-05
5e-05
5e-05
5e-05
5e-05
5e-05
5e-05
5e-05
5e-05
5e-05
5e-05
5e-05
5e-05
5e-05
5e-05
5e-05
5e-05
5e-05
5e-05
5e-05
5e-05
5e-05
5e-05
5e-05
5e-05
5e-05
5e-05
5e-05
5e-05
5e-05
5e-05
5e-05
5e-05
5e-05
5e-05
5e-05
5e-05
5e-05
5e-05
5e-05
5e-05
5e-05
5e-05
5e-05
5e-05
5e-05
5e-05
5e-05
5e-05
5e-05
5e-05
5e-05
5e-05
5e-05
5e-05
5e-05
5e-05
5e-05
5e-05
5e-05
5e-05
5e-05
5e-05
5e-05
5e-05
5e-05
5e-05
5e-05
5e-05
5e-05
5e-05
5e-05
5e-05
5e-05
5e-05
5e-05
5e-05
5e-05
5e-05
5e-05
5e-05
5e-05
5e-05
5e-05
5e-05
5e-05
5e-05
5e-05
5e-05
5e-05
5e-05
5e-05
5e-05
5e-05
5e-05
5e-05
5e-05
5e-05
5e-05
5e-05
5e-05
5e-05
5e-05
5e-05
5e-05
5e-05
5e-05
5e-05
5e-05
5e-05
5e-05
5e-05
5e-05
5e-05
5e-05
5e-05
5e-05
5e-05
5e-05
5e-05
5e-05
5e-05
5e-05
5e-05
5e-05
5e-05
5e-05
5e-05
5e-05
5e-05
5e-05
5e-05
5e-05
5e-05
5e-05
5e-05
5e-05
5e-05
5e-05
5e-05
5e-05
5e-05
5e-05
5e-05
5e-05
5e-05
5e-05
5e-05
5e-05
5e-05
5e-05
5e-05
5e-05
5e-05
5e-05
5e-05
5e-05
5e-05
5e-05
5e-05
5e-05
5e-05
5e-05
5e-05
5e-05
5e-05
5e-05
5e-05
5e-05
5e-05
5e-05
5e-05
5e-05
5e-05
5e-05
5e-05
5e-05
5e-05
5e-05

SCALARS mass float 1
LOOKUP_TABLE default
1.46608e-10
1.46608e-10
1.46608e-10
1.46608e-10
1.46608e-10
1.46608e-10
1.46608e-10
1.46608e-10
1.46608e-10
1.46608e-10
1.46608e-10
1.46608e-10
1.46608e-10
1.46608e-10
1.46608e-10
1.46608e-10
1.46608e-10
1.46608e-10
1.46608e-10
1.46608e-10
1.46608e-10
1.46608e-10
1.46608e-10
1.46608e-10
1.46608e-10
1.46608e-10
1.46608e-10
1.46608e-10
1.46608e-10
1.46608e-10
1.46608e-10
1.46608e-10
1.46608e-10
1.46608e-10
1.46608e-10
1.46608e-10
1.46608e-10
1.46608e-10
1.46608e-10
1.46608e-10
1.46608e-10
1.46608e-10
1.46608e-10
1.46608e-10
1.46608e-10
1.46608e-10
1.46608e-10
1.46608e-10
1.46608e-10
1.46608e-10
1.46608e-10
1.46608e-10
1.46608e-10
1.46608e-10
1.46608e-10
1.46608e-10
1.46608e-10
1.46608e-10
1.46608e-10
1.46608e-10
1.46608e-10
1.46608e-10
1.46608e-10
1.46608e-10
1.46608e-10
1.46608e-10
1.46608e-10
1.46608e-10
1.46608e-10
1.46608e-10
1.46608e-10
1.46608e-10
1.46608e-10
1.46608e-10
1.46608e-10
1.46608e-10
1.46608e-10
1.46608e-10
1.46608e-10
1.46608e-10
1.46608e-10
1.46608e-10
1.46608e-10
1.46608e-10
1.46608e-10
1.46608e-10
1.46608e-10
1.46608e-10
1.46608e-10
1.46608e-10
1.46608e-10
1.46608e-10
1.46608e-10
1.46608e-10
1.46608e-10
1.46608e-10
1.46608e-10
1.46608e-10
1.46608e-10
1.46608e-10
1.46608e-10
1.46608e-10
1.46608e-10
1.46608e-10
1.46608e-10
1.46608e-10
1.46608e-10
1.46608e-10
1.46608e-10
1.46608e-10
1.46608e-10
1.46608e-10
1.46608e-10
1.46608e-10
1.46608e-10
1.46608e-10
1.46608e-10
1.46608e-10
1.46608e-10
1.46608e-10
1.46608e-10
1.46608e-10
1.46608e-10
1.46608e-10
1.46608e-10
1.46608e-10
1.46608e-10
1.46608e-10
1.46608e-10
1.46608e-10
1.46608e-10
1.46608e-10
1.46608e-10
1.46608e-10
1.46608e-10
1.46608e-10
1.46608e-10
1.46608e-10
1.46608e-10
1.46608e-10
1.46608e-10
1.46608e-10
1.46608e-10
1.46608e-10
1.46608e-10
1.46608e-10
1.46608e-10
1.46608e-10
1.46608e-10
1.46608e-10
1.46608e-10
1.46608e-10
1.46608e-10
1.46608e-10
1.46608e-10
1.46608e-10
1.46608e-10
1.46608e-10
1.46608e-10
1.46608e-10
1.46608e-10
1.46608e-10
1.46608e-10
1.46608e-10
1.46608e-10
1.46608e-10
1.46608e-10
1.46608e-10
1.46608e-10
1.46608e-10
1.46608e-10
1.46608e-10
1.46608e-10
1.46608e-10
1.46608e-10
1.46608e-10
1.46608e-10
1.46608e-10
1.46608e-10
1.46608e-10
1.46608e-10
1.46608e-10
1.46608e-10
1.46608e-10
1.46608e-10
1.46608e-10
1.46608e-10
1.46608e-10
1.46608e-10
1.46608e-10
1.46608e-10
1.46608e-10
1.46608e-10
1.46608e-10
1.46608e-10
1.46608e-10
1.46608e-10
1.46608e-10
1.46608e-10
1.46608e-10
1.46608e-10
1.46608e-10
1.46608e-10
1.46608e-10
1.46608e-10
1.46608e-10
1.46608e-10
1.46608e-10
1.46608e-10
1.46608e-10
1.46608e-10
1.46608e-10
1.46608e-10
1.46608e-10
1.46608e-10
1.46608e-10
1.46608e-10
1.46608e-10
1.46608e-10
1.46608e-10
1.46608e-10
1.46608e-10
1.46608e-10
1.46608e-10
1.46608e-10
1.46608e-10
1.46608e-10
1.46608e-10
1.46608e-10
1.46608e-10
1.46608e-10
1.46608e-10
1.46608e-10
1.46608e-10
1.46608e-10
1.46608e-10
1.46608e-10
1.46608e-10
1.46608e-10
1.46608e-10
1.46608e-10
1.46608e-10
1.46608e-10
1.46608e-10
1.46608e-10
1.46608e-10
1.46608e-10
1.46608e-10
1.46608e-10
1.46608e-10
1.46608e-10
1.46608e-10
1.46608e-10
1.46608e-10
1.46608e-10
1.46608e-10
1.46608e-10
1.46608e-10
1.46608e-10
1.46608e-10
1.46608e-10
1.46608e-10
1.46608e-10
1.46608e-10
1.46608e-10
1.46608e-10
1.46608e-10
1.46608e-10
1.46608e-10
1.46608e-10
1.46608e-10
1.46608e-10
1.46608e-10
1.46608e-10
1.46608e-10
1.46608e-10
1.46608e-10
1.46608e-10
1.46608e-10
1.46608e-10
1.46608e-10
1.46608e-10
1.46608e-10
1.46608e-10
1.46608e-10
1.46608e-10
1.46608e-10
1.46608e-10
1.46608e-10

VECTORS velocity float
0.00463076 0.000298494 -0.000101505
0.00450131 0.000274432 -8.86177e-05
0.00447554 0.00028745 -0.000101445
0.00449311 0.000267621 -0.000108104
0.00477948 0.000241992 -5.44567e-05
0.00469889 -0.000234187 0.000340403
0.00455122 0.000264617 -7.81897e-05
0.00478884 0.000241776 -5.63599e-05
0.00428026 -0.000207717 0.000287509
0.0044563 0.000288365 -9.76114e-05
0.00447482 0.000319601 -0.000121378
0.00428055 -0.000220241 0.000295471
0.00444992 0.000289965 -9.62372e-05
0.00460041 5.18796e-05 1.90922e-05
0.00446656 0.0003109 -0.00011523
0.00457607 -0.000114225 -0.000135309
0.00445175 0.000299886 -0.000109419
0.00436263 -0.000303986 0.000135883
0.00446632 0.000274466 -0.000100786
0.00447236 0.000309387 -0.000113945
0.00476789 0.000238399 -5.2086e-05
0.0044798 0.000309961 -0.000114675
0.00433432 -0.00026913 0.00017508
0.00454358 0.000342633 -0.000136545
0.0044819 -0.0001512 0.000267
0.0044357 0.000111442 -4.15406e-05
0.00447093 0.000279484 -0.000101844
0.00471162 -0.000245573 0.000350167
0.0044337 0.000289445 -0.000116992
0.00443445 0.000300123 -0.000108342
0.00471959 -0.000223396 0.000332375
0.00445824 0.000274958 -8.98415e-05
0.00458142 0.000262078 -7.57487e-05
0.00425663 -0.000208096 0.000286286
0.00456201 0.000269347 -8.15161e-05
0.00457518 0.000256961 -7.21384e-05
0.00441668 -0.000132303 0.000250491
0.00458039 0.00026947 -8.04695e-05
0.00467303 0.000317188 -0.000114292
0.00448514 0.0002891 -0.000100094
0.0044716 0.000319633 -0.00012422
0.00454841 0.000214429 -0.000157822
0.00438586 -0.000157679 0.00026919
0.00450871 -0.000152292 0.000268768
0.00474275 0.000237093 -5.31049e-05
0.00446624 0.000317807 -0.000119637
0.00437713 -0.000140081 0.000254521
0.00448523 0.000279334 -9.05128e-05
0.00446776 0.000118111 -4.46679e-05
0.00438088 -0.000120231 0.000242096
0.00459273 0.000301033 -0.000104412
0.00461216 6.28636e-05 1.00464e-05
0.00446252 0.000266448 -8.91512e-05
0.00428289 -0.000131479 0.000244878
0.00458281 6.23629e-05 9.45848e-06
0.0043127 -0.000232372 0.000349667
0.0044791 0.00032163 -0.000122486
0.00475564 0.000236177 -5.19786e-05
0.0044961 0.000333 -0.000131231
0.00447972 0.000275339 -8.89019e-05
0.00440954 -0.000193961 0.000307833
0.00480699 0.000145677 -0.000190745
0.00444689 0.000121834 -4.69684e-05
0.00447868 0.000300952 -0.000108045
0.00454985 0.000104257 -3.51586e-05
0.0044613 0.000297773 -0.000105303
0.00441672 -0.000247491 0.000297887
0.00462595 7.09464e-05 1.4601e-06
0.00427327 -0.000210581 0.000288226
0.00473803 0.000240746 -5.56301e-05
0.00451914 0.000278369 -8.77515e-05
0.00460591 0.000265993 -7.74136e-05
0.00437478 -0.000176645 0.000282395
0.00472593 0.000247021 -0.000163045
0.00462718 8.12402e-05 -7.72278e-06
0.00464593 9.89007e-05 -1.16218e-05
0.00456651 0.000238612 -0.000157027
0.00465826 8.00862e-05 -1.86135e-05
0.00444753 0.000107821 -3.81882e-05
0.00463206 8.60197e-05 -1.27176e-05
0.00440569 -0.000166427 0.000281004
0.00462423 8.29954e-05 -7.88078e-06
0.00450762 0.000293218 -9.66864e-05
0.00427108 -0.000221487 0.000288856
0.00451859 0.000272227 -0.00015608
0.00450143 0.000249447 -0.000152239
0.00447855 0.00026919 -8.48414e-05
0.00444564 0.000311649 -0.000119445
0.00462043 0.000233831 -0.000159599
0.00471493 0.000239 -0.000163177
0.00451477 0.000273819 -0.000130043
0.00472129 0.000241574 -0.000162833
0.00461967 0.000229986 -0.000159699
0.00469119 0.000243396 -0.000161133
0.00444497 0.000123963 -3.9656e-05
0.00463132 0.000194056 -0.000162169
0.0045965 0.000104319 -3.0864e-05
0.00442229 0.000295354 -0.000103941
0.00450575 0.000326583 -0.000125634
0.00445116 0.000109959 -3.95235e-05
0.00462727 7.79116e-05 -1.70344e-06
0.00448633 0.000285611 -9.42354e-05
0.00465792 8.10538e-05 -6.41393e-06
0.00445256 0.000287794 -8.61893e-05
0.00446813 0.000317093 -0.000117822
0.00451271 0.000298094 -0.000130888
0.00472355 0.000244286 -0.000161334
0.00463697 8.25182e-05 -1.31275e-05
0.00453095 0.000300738 -0.000150902
0.00444647 0.000101621 -4.8506e-05
0.00446952 0.000291414 -0.000106918
0.00450097 0.000295327 -0.000103675
0.00482061 0.000140949 -0.000197205
0.00442128 0.000109837 -4.08739e-05
0.00471631 -0.000250563 0.000354341
0.00455774 0.000357457 -0.000147331
0.00483336 0.000138729 -0.000195722
0.00468398 0.000212013 -0.000163081
0.00464574 9.80141e-05 -2.36159e-05
0.00470584 0.000228062 -0.000163406
0.00463142 0.000283814 -9.05424e-05
0.00446928 0.000309947 -0.000116089
0.00464486 9.0121e-05 -1.92323e-05
0.00449234 0.000280118 -8.80515e-05
0.00445695 0.000108098 -4.18295e-05
0.0044012 0.000303339 -0.000108843
0.00446348 0.000117676 -4.30041e-05
0.00449898 0.000218736 -0.000154729
0.00457549 0.000264312 -7.75019e-05
0.00447394 0.000275955 -8.73062e-05
0.00463185 0.000298219 -0.000101298
0.00462276 6.56412e-05 7.39064e-06
0.00470018 0.000218648 -0.000163264
0.00452434 0.000245445 -0.000152406
0.00447045 0.000270729 -8.47799e-05
0.00459019 0.000261788 -0.000156556
0.00462686 8.4125e-05 -1.00458e-05
0.00446236 0.000300411 -0.0001077
0.00447339 0.000274041 -8.75816e-05
0.00449781 0.000291174 -8.54282e-05
0.00468249 0.000185704 -0.000164529
0.00463249 8.38722e-05 -7.83242e-06
0.00446716 0.00029067 -0.000100396
0.00456012 0.000265776 -0.000156486
0.00484573 0.000134916 -0.000193434
0.00440584 0.000126921 -5.51032e-05
0.00485904 0.000130364 -0.000190655
0.00440523 0.000104677 -3.89415e-05
0.00465046 8.45433e-05 -6.66315e-06
0.00450344 0.000102565 -5.90542e-05
0.004708 0.000246263 -0.000165556
0.00444971 0.000109936 -4.08629e-05
0.00475956 0.00024758 -6.03877e-05
0.00445539 0.000122926 -5.32178e-05
0.00472678 0.000239399 -0.000163384
0.00444975 0.000121487 -4.86336e-05
0.0047238 0.000235536 -0.000163499
0.00441648 0.000112388 -4.34601e-05
0.00462936 0.000322962 -0.000119498
0.00462279 0.000107673 -3.42145e-05
0.00472723 0.000265678 -0.000161814
0.00427943 0.000173985 -4.984e-05
0.00442201 0.000111654 -4.71906e-05
0.00466068 0.000220127 -0.00016183
0.00455648 0.00014882 -5.33323e-05
0.00470219 0.000209051 -0.000163776
0.00442135 0.000127231 -4.85599e-05
0.00448459 0.000166584 -9.49686e-05
0.00444265 0.000110766 -4.45747e-05
0.00442143 0.000125375 -5.09566e-05
0.0044428 0.000112886 -3.97179e-05
0.00441503 0.000103094 -5.03827e-05
0.0045433 0.000301526 -0.000153284
0.00464593 9.06852e-05 -1.55326e-05
0.00459805 0.000296573 -0.000100834
0.00446636 0.000121019 -5.06113e-05
0.00450894 0.000275457 -8.90958e-05
0.00440817 0.000130601 -4.88463e-05
0.00466527 9.2255e-05 -7.428e-06
0.004428 -0.00025473 0.000298062
0.00470687 0.000216463 -0.000163714
0.00450935 0.000317362 -0.000118513
0.00439804 9.18633e-05 -5.061e-05
0.00471101 0.000226306 -0.000163517
0.0043847 8.76699e-05 -4.91451e-05
0.0046666 0.000222287 -0.000162106
0.00478265 0.000184837 -0.000141978
0.00429891 0.00015218 -5.03966e-05
0.00464437 0.000109069 -3.49504e-05
0.00478261 0.000145512 -0.000200336
0.0046274 8.77216e-05 -1.47077e-05
0.00442881 2.74495e-05 -4.72009e-05
0.00464624 9.55401e-05 -1.84112e-05
0.00457992 6.95496e-05 -5.13662e-05
0.00441037 0.000127697 -5.44912e-05
0.00460561 0.000276329 -8.57481e-05
0.00441939 0.000128613 -4.85345e-05
0.00435393 0.000100927 -3.49013e-05
0.00442475 0.000115722 -4.62993e-05
0.00454884 0.000108861 -3.62283e-05
0.00446926 0.000147987 -5.13726e-05
0.00449553 0.000113634 -3.23701e-05
0.00449303 0.000280912 -9.25922e-05
0.0047216 0.000237645 -0.000163368
0.00432921 -0.000199682 0.000308238
0.00472851 0.000266624 -0.000162143
0.00444581 0.000107818 -3.85898e-05
0.00443392 0.000107876 -3.72591e-05
0.00466493 0.000188553 -0.000163761
0.00472753 0.000249963 -0.000162872
0.0047162 0.000237905 -0.000162378
0.00475014 0.000248018 -6.10915e-05
0.00465343 0.000103438 -2.83719e-05
0.00476629 0.000245922 -6.05452e-05
0.00463768 7.84052e-05 -5.85733e-06
0.00463819 9.09234e-05 -1.41223e-05
0.00432651 -0.000187931 0.000284621
0.00466062 0.000111722 -5.29038e-05
0.00457629 -0.000261059 -0.000248072
0.00436224 0.000142175 -5.0262e-05
0.00449079 0.000104932 -2.99563e-05
0.00449751 5.30314e-05 -5.02614e-05
0.00434293 8.80649e-05 -4.96602e-05
0.00460679 0.00010414 -3.16033e-05
0.00472823 0.000235889 -0.00016365
0.00457294 0.000246514 -0.000158215
0.00459148 -2.89044e-05 -4.99878e-05
0.00459074 7.47472e-05 -5.11222e-05
0.00464546 4.23613e-05 -5.17911e-05
0.00442943 0.000134985 -5.12033e-05
0.00440799 -0.000287747 0.000474266
0.00458571 7.93864e-05 -5.07269e-05
0.00461407 9.9749e-05 -5.24749e-05
0.00441288 -0.00028857 0.000474992
0.0044031 -0.000286924 0.000473539
0.00460044 0.000105184 -5.24556e-05
0.00436899 0.000126956 -0.000287024
0.00481401 0.000149382 -0.000201547
0.00472102 0.000221301 -0.000164089
0.00460591 0.000139004 -5.63849e-05
0.00479413 0.000148241 -0.000201279
0.00454633 0.000309571 -0.000111876
0.00448618 0.000703164 -0.00053553
0.0044386 0.0001264 -3.68118e-05
0.0044328 0.000135074 -5.32181e-05
0.00450354 0.000116402 -4.58693e-05
0.00458998 8.70261e-05 -5.20409e-05
0.00457932 -5.9868e-06 -5.02184e-05
0.00460877 6.63716e-05 -5.18021e-05
0.00444865 0.000156518 -5.29319e-05
0.00452855 0.000257533 -0.000140758
0.00459032 -2.36386e-05 -4.98247e-05
0.00470508 0.000143124 -5.43056e-05
0.00439964 0.000583846 -0.00048074
0.00460511 4.38474e-05 -5.13426e-05
0.00435604 8.76476e-05 -4.82987e-05
0.00472518 0.00024406 -0.000163064
0.00446829 0.000117993 -4.50235e-05
0.00449461 0.000154304 -5.10092e-05
0.00457693 9.27778e-05 -5.18094e-05
0.00457033 8.33833e-05 -5.17304e-05
0.00461847 7.16224e-06 -5.07129e-05
0.0046635 3.82767e-05 -5.18273e-05
0.0046121 0.000126166 -5.23452e-05
0.00458042 0.000160894 -5.35196e-05
0.00451414 8.44333e-05 -5.098e-05
0.00458046 -5.92681e-05 -4.8402e-05
0.00472533 0.000236632 -0.000163592
0.00425756 0.000149552 -0.000290556
0.00246202 0.00368669 -0.00168153
0.00442213 0.000133965 -5.2774e-05
0.00440704 0.000561829 -0.000471881
0.00428932 0.000143149 -0.000289589
0.00457675 8.01787e-05 -5.16577e-05
0.00461065 7.72193e-05 -5.29677e-05
0.00459499 0.000144996 -5.3115e-05
0.00451697 0.000317822 -9.58394e-05
0.00462836 2.24664e-05 -5.10861e-05
0.00463558 8.77584e-05 -1.34422e-05
0.00472806 0.000149824 -5.469e-05
0.00444984 0.000155984 -8.26162e-05
0.00447911 0.000283092 -9.36074e-05
0.00459865 -2.19775e-06 -5.03679e-05
0.00464437 8.85426e-05 -1.44337e-05
0.00447843 0.000299108 -0.000113905
0.00446762 0.000308677 -0.000113819
0.0044185 0.000125423 -5.22337e-05
0.00447844 0.000117032 -4.53496e-05
0.00448102 0.000289796 -9.88718e-05

VECTORS force float
2.85372e-10 -2.56747e-10 1.98266e-10
-7.79798e-11 -4.03431e-11 3.54177e-11
5.42894e-11 3.68195e-11 -6.56153e-11
3.61543e-11 1.16971e-10 -1.21325e-11
-1.87718e-11 -2.84761e-13 1.19883e-11
-1.53831e-10 7.97597e-11 -7.52662e-11
-1.28498e-10 3.26731e-11 -2.75526e-11
1.70745e-11 9.70348e-12 -5.58593e-12
-1.41246e-11 1.31856e-10 -8.73855e-13
1.81093e-10 -7.02532e-11 1.52505e-10
4.20268e-12 1.91908e-10 -1.3922e-10
-1.16196e-10 -2.39253e-11 -5.35752e-12
-2.21963e-10 -7.15648e-11 -9.2033e-12
1.217e-11 1.05163e-10 4.11918e-11
-4.7852e-11 6.17952e-11 -6.34923e-11
4.64885e-11 6.9131e-11 1.20881e-11
-1.4937e-10 -1.50857e-10 -3.66366e-11
-1.02542e-10 -2.1115e-10 9.1826e-10
1.04884e-10 -1.32438e-10 -7.67357e-11
3.93373e-10 1.32595e-11 -2.94729e-11
-4.7098e-13 -4.33389e-12 1.62751e-11
-1.00095e-10 8.28181e-11 -6.924e-11
2.29564e-10 -2.40685e-10 3.94257e-10
-1.24328e-10 3.35161e-11 -3.35388e-12
-6.45808e-11 5.29407e-11 -1.14348e-11
-7.09289e-11 -9.00158e-11 1.17235e-10
1.42128e-10 -1.25754e-10 -1.01697e-10
1.31323e-11 -4.85074e-11 3.32442e-11
8.66653e-11 -7.07246e-11 6.96437e-11
-8.02984e-11 4.15547e-12 -2.02757e-11
1.29259e-10 2.10528e-10 -1.52971e-10
-7.36894e-11 -6.39343e-11 5.19265e-11
4.65972e-11 8.99195e-11 -6.22412e-11
-2.23479e-10 1.23226e-10 -1.23368e-11
7.7771e-11 -5.24559e-11 4.12983e-11
-5.64661e-11 -3.73639e-11 2.96754e-11
2.51e-11 1.0232e-10 -9.84081e-11
-4.55518e-11 1.06087e-11 -3.70242e-12
-7.74494e-11 -2.93343e-10 2.15145e-10
-1.48873e-10 7.61227e-11 -6.22842e-11
-2.90562e-10 -1.09004e-10 1.16486e-10
-7.356e-12 2.34698e-10 1.03385e-11
-1.82757e-10 1.91637e-10 -1.6849e-10
7.51572e-11 9.2375e-11 -3.20357e-11
-1.02153e-11 1.5099e-11 -1.07555e-11
3.83942e-10 4.69884e-11 -3.58132e-11
-2.69485e-10 1.04052e-10 -8.55473e-11
2.47918e-11 -1.35757e-11 4.84281e-11
5.67275e-11 -3.8015e-11 3.20717e-11
-3.21901e-10 1.12201e-10 -2.22695e-10
4.0192e-11 -3.33737e-11 2.56912e-11
-7.92297e-11 1.01469e-10 -4.23804e-11
-8.6473e-12 -1.16954e-10 6.27204e-11
-9.44545e-11 1.30631e-10 -1.12934e-10
1.88876e-10 2.11748e-10 -1.88765e-10
1.7112e-10 -3.76804e-11 1.64634e-10
7.20587e-11 8.58355e-11 -6.55313e-11
1.95439e-11 -3.91863e-12 1.13687e-11
-1.18526e-10 -4.59484e-11 3.38984e-11
1.92813e-10 7.99302e-11 -3.31731e-11
1.5907e-10 -4.66e-10 5.66651e-10
-1.02863e-12 -4.59445e-11 -1.42648e-10
-4.23841e-11 1.95736e-11 7.74559e-12
2.36274e-10 2.56846e-12 -1.78329e-11
7.83234e-11 2.46059e-11 -9.63926e-12
-3.55436e-11 4.20911e-11 -6.78893e-11
-1.27963e-10 -9.39501e-11 -9.67121e-12
4.41363e-12 7.36216e-11 -1.09445e-10
-8.36569e-11 8.12694e-11 -7.09152e-11
4.59783e-11 4.65917e-11 -2.78099e-11
1.80806e-11 -8.97196e-11 -8.5965e-11
-3.28672e-11 3.00549e-11 -2.41945e-11
1.78828e-10 -1.08069e-11 -2.23396e-11
-1.86235e-11 -4.03684e-11 -9.35818e-13
2.27054e-12 6.53781e-11 -6.27773e-11
-9.53043e-12 -6.83368e-11 1.03456e-10
4.82249e-11 -4.5885e-11 -3.19006e-11
-2.7463e-10 1.47778e-10 7.94026e-11
-1.94064e-12 -8.57789e-11 8.80935e-11
7.83212e-13 2.44498e-11 -6.74717e-11
-6.95318e-11 1.22053e-11 1.88591e-11
-2.28058e-11 7.38101e-11 -9.04498e-11
1.2091e-11 -1.82278e-11 8.94355e-11
6.28645e-11 5.64239e-11 1.0806e-11
6.89221e-11 -1.74917e-11 4.03507e-12
-5.79557e-11 -1.46617e-10 2.16901e-12
8.65644e-11 -7.13923e-11 6.21902e-11
1.14027e-10 8.20056e-11 -8.41452e-11
-1.73729e-12 5.45069e-11 2.1634e-12
2.09049e-11 -2.79066e-11 -9.50062e-12
-9.317e-13 -8.89727e-11 4.14413e-11
-1.60251e-11 -9.8728e-11 8.8274e-12
4.6645e-11 -2.76888e-12 -1.04372e-11
9.99888e-11 2.58767e-12 6.44729e-12
-8.46284e-11 -4.45504e-11 1.12013e-10
-6.18416e-11 7.26583e-11 4.86711e-12
-1.15712e-10 2.82986e-11 -3.75053e-11
2.28922e-10 8.06666e-12 1.2455e-11
-2.14715e-10 1.0725e-10 -9.61498e-11
4.18676e-11 9.68564e-11 -9.16941e-11
4.94e-11 9.6628e-11 -8.76913e-11
-2.49272e-11 -3.74837e-11 1.40043e-11
-9.14185e-13 9.3249e-11 -1.08173e-10
1.04391e-10 2.20648e-12 1.31103e-10
2.76412e-10 1.72076e-11 5.16683e-11
1.04438e-10 -1.201e-11 1.02542e-11
-3.54973e-13 -5.28085e-11 -3.1279e-11
-1.59076e-10 -1.01421e-10 1.55738e-10
8.50679e-11 2.41286e-11 -1.59154e-11
-1.24933e-10 4.13367e-10 4.80989e-11
-3.35313e-11 1.00494e-10 -6.99621e-11
-1.43554e-10 -5.08766e-11 1.02439e-11
3.53037e-12 4.78949e-11 -4.09846e-11
-1.68201e-11 1.38467e-10 -5.92243e-12
-6.08615e-11 -1.32348e-10 1.0657e-10
-7.79426e-11 6.40523e-11 -5.55404e-11
2.89235e-11 5.92079e-11 -3.76789e-11
5.65474e-11 2.42053e-11 -1.67934e-12
1.9355e-10 6.96414e-11 -6.12838e-11
3.63377e-11 8.38751e-12 -4.60065e-12
-2.2174e-10 -2.49288e-10 1.82578e-10
-1.90624e-10 7.68242e-11 -5.2878e-11
-3.23465e-11 -2.32033e-11 1.43441e-11
5.28071e-11 -6.61075e-11 1.04985e-10
3.76516e-11 -1.06579e-11 -4.21476e-12
-3.95573e-11 -6.66599e-11 3.62506e-11
-3.41848e-12 -2.5788e-11 -1.77206e-11
3.82641e-11 4.1419e-11 2.41077e-11
-6.9949e-11 1.62956e-10 -1.16991e-10
-1.10306e-10 -3.81039e-11 -1.77811e-11
-7.85046e-11 -9.03184e-11 6.42642e-11
-1.17733e-10 2.20546e-11 -1.09365e-10
1.04728e-10 -1.45073e-11 -1.81441e-11
-1.55923e-11 -8.08717e-11 1.92651e-12
4.19352e-12 -8.1886e-11 3.5038e-11
-1.12255e-10 2.11078e-11 2.88741e-13
4.04864e-13 5.87142e-11 -4.08637e-11
2.8699e-10 3.02637e-11 2.84309e-11
-9.03077e-11 -4.37327e-11 -1.01521e-11
-1.94319e-11 -1.60488e-11 8.0676e-11
-4.36011e-11 -7.2267e-11 1.06863e-12
4.35261e-11 9.88366e-11 -1.22927e-10
1.71827e-10 -2.61484e-12 5.84551e-11
-2.02711e-12 -1.76017e-11 -1.4123e-11
1.52165e-11 5.60089e-11 -3.72266e-11
9.54715e-11 4.18327e-11 -1.1116e-10
1.36281e-11 5.45706e-11 -3.92445e-11
-3.08486e-10 8.84354e-11 -1.10206e-10
-1.0102e-10 -1.39686e-10 1.42197e-10
-1.84528e-11 7.38272e-11 7.85775e-12
-3.94763e-11 -5.8436e-11 -5.62134e-11
-1.55132e-11 -7.84304e-11 5.09551e-11
1.6037e-11 -6.25516e-11 4.7416e-11
1.18763e-11 -2.10378e-10 1.61823e-11
1.2733e-11 1.76573e-11 1.50709e-12
-7.48029e-11 8.74442e-13 1.09918e-11
1.86225e-11 4.98925e-11 7.52907e-13
-8.59903e-11 5.42255e-11 -7.5117e-11
1.71286e-10 -1.67593e-11 1.60742e-11
-6.42658e-11 4.2826e-12 2.02875e-12
3.03916e-11 6.60005e-11 2.84371e-12
2.81605e-10 6.37092e-11 -3.1864e-11
5.47672e-11 1.56408e-10 -2.76178e-11
-3.92076e-11 3.73337e-11 -5.66429e-13
1.26418e-10 6.32989e-11 -1.94881e-12
6.23598e-11 2.99289e-11 -5.49538e-12
1.41753e-10 3.98843e-11 5.06216e-12
1.57279e-10 -8.0504e-11 8.26451e-11
-5.09308e-11 -7.22653e-11 1.11193e-10
-1.24657e-10 4.21237e-11 2.2293e-11
-4.27499e-11 1.05706e-10 -7.91182e-11
5.16288e-11 2.64914e-10 -9.33912e-12
5.36844e-11 5.23862e-11 -1.90122e-12
4.00949e-12 -1.17173e-12 1.22722e-11
1.36686e-10 -6.41094e-11 5.11695e-11
1.01885e-10 1.07349e-10 7.68871e-13
-9.64935e-11 5.37931e-11 1.7612e-10
2.18156e-10 4.48215e-11 -1.18851e-11
2.0262e-11 -1.53934e-10 1.09539e-10
-8.56709e-12 -1.12236e-10 -6.43937e-13
-2.64472e-11 4.59121e-12 1.67216e-12
-2.72149e-10 1.10123e-10 -9.29162e-11
5.49021e-13 1.20544e-10 -2.26908e-12
-2.20229e-11 3.07337e-11 -3.29613e-12
-4.15512e-11 1.37965e-12 1.31603e-11
2.17719e-11 4.18035e-13 2.80803e-12
-1.71113e-11 -2.26996e-11 1.45177e-12
-3.53094e-11 6.47488e-11 1.36457e-11
1.48521e-11 -3.13716e-11 5.05825e-11
-5.44718e-12 3.99969e-11 -8.42977e-12
-1.97911e-10 2.15438e-11 5.08062e-11
4.65685e-11 -1.02141e-11 -2.41091e-11
-1.18364e-11 -5.64863e-11 2.91157e-11
-5.24701e-11 -3.25418e-11 4.19755e-12
6.19601e-11 5.60735e-11 6.30801e-12
-2.42576e-10 4.71923e-11 -4.17251e-11
1.7836e-10 2.05583e-11 -4.34578e-11
3.39045e-11 -9.78439e-11 -9.29511e-12
6.68308e-11 7.91993e-11 -4.95469e-11
-2.53064e-11 -2.50539e-11 1.05227e-11
-1.1757e-11 1.54858e-10 6.89106e-12
-4.58093e-11 -5.32135e-11 1.39662e-10
-1.13509e-10 -1.69867e-11 1.2696e-11
-1.47841e-11 4.12497e-12 -3.13784e-14
2.60911e-10 -2.06185e-10 1.65273e-10
-9.02219e-12 6.01864e-11 9.41119e-12
-1.41414e-11 4.10736e-11 1.05253e-11
-8.42793e-11 9.79788e-11 4.45095e-13
6.19264e-12 3.04984e-12 1.53927e-12
1.05406e-13 -1.60849e-11 -7.22606e-13
6.04267e-11 -9.44454e-12 -2.23022e-11
-6.78226e-11 -1.24913e-10 9.19734e-11
2.30676e-11 -1.11732e-10 1.24717e-10
1.4677e-11 -5.5546e-11 2.24016e-11
-4.86685e-11 -1.6567e-10 1.23352e-10
5.16325e-11 2.62497e-11 -7.71082e-12
-3.75647e-11 -5.90844e-11 -1.73457e-11
2.71998e-10 -1.59877e-10 -2.39278e-11
5.86089e-11 -5.13836e-11 -1.20106e-10
1.32168e-10 3.3997e-11 -5.56268e-13
-7.16853e-11 -1.0067e-10 7.94538e-11
-5.05084e-10 -1.40577e-12 5.83088e-12
-1.14894e-11 1.44067e-10 8.82854e-12
-1.02081e-10 2.53434e-11 9.24729e-12
-2.05107e-11 2.0703e-11 7.85414e-13
3.64171e-11 1.15234e-10 1.76588e-11
-7.70711e-11 -2.69352e-11 1.17857e-11
-5.22793e-11 -1.29103e-10 8.77956e-12
-1.15655e-10 -1.53245e-10 4.64633e-12
-1.05825e-10 1.64672e-11 -8.74625e-14
3.62153e-13 3.0743e-13 -9.21401e-14
3.85745e-12 -6.34847e-11 5.27125e-12
6.34109e-11 -6.73051e-11 2.18001e-12
4.30301e-13 2.94317e-13 -8.27061e-14
2.95246e-13 3.2001e-13 -1.0217e-13
1.75707e-10 -8.98727e-11 -7.91755e-12
9.44055e-13 1.82232e-12 -5.95019e-13
2.13438e-11 9.08952e-11 -6.21221e-11
-5.39604e-11 2.1536e-11 4.73668e-12
6.50516e-11 2.10156e-10 -3.21759e-11
1.24665e-10 4.25368e-11 -6.36376e-11
-2.72877e-11 -1.13926e-11 7.37682e-12
1.76647e-13 -2.22406e-12 8.88311e-13
1.14912e-10 8.35301e-11 -5.43171e-11
-3.71253e-10 -1.21099e-10 -5.24158e-12
-2.93962e-10 5.85208e-13 -4.6005e-11
8.64552e-11 2.98342e-11 -1.26759e-11
5.58465e-11 -5.19281e-11 -2.25059e-12
1.2201e-10 -1.73286e-10 2.53476e-12
1.33951e-10 9.26385e-11 3.10184e-11
5.4691e-11 1.25109e-10 7.1461e-11
6.81109e-11 -3.13233e-11 -8.98636e-12
-1.34643e-10 -9.72528e-11 -1.31635e-12
4.53843e-13 1.96526e-13 -1.0811e-13
-3.26257e-11 6.77431e-11 -2.62484e-12
-8.16977e-12 5.78289e-11 9.0686e-12
2.25267e-11 7.51644e-12 -1.51704e-12
-2.96054e-11 -1.87761e-11 2.63798e-11
8.38588e-11 1.40704e-10 2.169e-11
8.1783e-11 1.08949e-10 -2.51437e-12
-1.19759e-11 -3.29409e-11 3.0201e-12
-1.37583e-10 3.68956e-11 1.96323e-12
-4.02268e-10 -1.21457e-10 8.02428e-12
1.54368e-10 -1.35507e-10 6.84622e-12
-3.78947e-10 8.54079e-13 9.83736e-12
-1.4047e-10 -1.18393e-11 2.55537e-12
1.22181e-11 -1.16389e-10 2.64944e-12
5.92047e-12 4.77526e-11 4.05905e-12
7.01729e-13 2.18685e-12 -1.39638e-12
-3.21864e-11 1.00713e-11 -2.67559e-12
7.7084e-11 -4.29329e-11 -1.13588e-11
3.6846e-13 2.90607e-13 -1.39721e-13
2.48246e-12 -1.97657e-13 4.32198e-13
-4.80372e-11 -7.63415e-11 3.2239e-12
-7.7725e-11 -1.01273e-10 2.76711e-12
-1.56939e-10 -1.80353e-11 3.14048e-12
-5.36e-11 -1.99485e-10 3.00316e-11
1.47722e-10 4.81713e-12 -1.57906e-12
2.1898e-11 1.91501e-11 -1.12471e-11
-2.35409e-10 -1.46375e-10 5.52338e-12
-4.95941e-11 -1.39484e-10 1.16464e-10
1.61467e-10 4.07293e-11 1.04555e-11
8.2493e-11 1.01405e-10 -2.61607e-12
-7.66408e-12 8.85337e-14 -1.54202e-11
-3.72667e-11 1.48292e-10 8.32396e-11
1.36801e-10 -8.74721e-11 5.63194e-11
1.52901e-10 -2.86672e-10 9.16119e-12
-3.12551e-10 6.03559e-12 -3.33937e-11
-4.18646e-11 9.89201e-12 -7.42606e-12
