# vtk DataFile Version 3.0
LIGGGHTS particles timestep 57600000
ASCII
DATASET POLYDATA
POINTS 283 float
0.276726 0.0162304 0.00793066
0.27707 0.0174194 0.00734758
0.277128 0.0179431 0.00711315
0.277109 0.0178489 0.00714069
0.276435 0.0153251 0.00894525
0.282817 0.0165778 0.00770257
0.276731 0.0159249 0.00827439
0.276415 0.0152598 0.00901842
0.283056 0.0175764 0.00711983
0.277421 0.0180414 0.0070544
0.276907 0.0165131 0.00761504
0.283017 0.0173929 0.00718907
0.277416 0.0175956 0.00717528
0.270483 0.0156289 0.00896389
0.277435 0.0176906 0.00714746
0.270712 0.0162876 0.00811977
0.283171 0.0181309 0.00692244
0.27705 0.0175666 0.00722336
0.277126 0.0170679 0.00734968
0.276455 0.0153903 0.00887209
0.277167 0.0181314 0.00705806
0.282977 0.0172095 0.00725827
0.277281 0.0173778 0.00724888
0.282916 0.0169383 0.0073707
0.270725 0.0160752 0.00841309
0.27701 0.0173786 0.00727851
0.282796 0.0165058 0.00776858
0.277252 0.0180784 0.00706304
0.277376 0.0174059 0.00723091
0.282839 0.0166497 0.00763656
0.27711 0.0176076 0.00729205
0.277455 0.017785 0.00711982
0.283114 0.0178518 0.00701595
0.276743 0.0159909 0.00820024
0.277322 0.0175673 0.00719329
0.276536 0.015647 0.00858441
0.277072 0.0172278 0.00731243
0.2772 0.0170014 0.00735945
0.277232 0.0179842 0.0070906
0.277113 0.017416 0.00725714
0.28286 0.0167217 0.00757055
0.282936 0.0170272 0.00732977
0.276495 0.0155212 0.00872627
0.277104 0.0169743 0.00737734
0.282901 0.0168659 0.00743794
0.277227 0.0175389 0.00721132
0.271287 0.018719 0.0069334
0.271301 0.0177964 0.00707496
0.277401 0.0179462 0.00708232
0.28288 0.0167938 0.00750427
0.270915 0.0166165 0.00771987
0.282997 0.0173011 0.00722368
0.277238 0.0177081 0.00724953
0.276474 0.0154556 0.00879896
0.27699 0.0164769 0.00765685
0.277173 0.0176996 0.00717398
0.282957 0.0171179 0.00729292
0.276779 0.0161218 0.00805354
0.271476 0.018216 0.00701586
0.277475 0.0178801 0.00709199
0.270966 0.0165245 0.00785786
0.277055 0.0167884 0.00743281
0.283228 0.0179735 0.00696797
0.270951 0.0167368 0.00756431
0.283036 0.0174846 0.00715445
0.276539 0.0155806 0.00865913
0.27685 0.0166451 0.00751967
0.277002 0.0171578 0.00742379
0.283152 0.018037 0.00695116
0.277206 0.0183197 0.00700296
0.270553 0.015821 0.00874628
0.270744 0.0161353 0.00833562
0.277092 0.0173217 0.00728482
0.271516 0.01841 0.00698584
0.271029 0.0167052 0.00762652
0.270566 0.0158672 0.00865847
0.283095 0.0177599 0.00705059
0.270893 0.0165564 0.00779656
0.277212 0.0178891 0.00711847
0.283075 0.0176681 0.00708521
0.277006 0.0165422 0.00758282
0.277207 0.017444 0.0072392
0.276926 0.0165821 0.00753736
0.276801 0.0161869 0.00798062
0.277157 0.016814 0.00741497
0.277167 0.0172556 0.00729445
0.27698 0.0168565 0.00742277
0.277287 0.017823 0.00712812
0.27722 0.0170952 0.00733184
0.277051 0.017134 0.00734004
0.271085 0.0169073 0.00741695
0.277218 0.0176137 0.00727721
0.271396 0.017828 0.00707271
0.277247 0.0176334 0.00718364
0.277335 0.0172169 0.00728632
0.27101 0.0166453 0.00770414
0.271321 0.0178933 0.00706093
0.276843 0.016317 0.00783478
0.270504 0.015689 0.0088868
0.277341 0.0176617 0.00716562
0.27709 0.0177548 0.00716824
0.277187 0.0182255 0.00703051
0.276641 0.0159701 0.00822231
0.270765 0.0161955 0.00825842
0.277346 0.018107 0.00704492
0.270935 0.0166767 0.00764244
0.27703 0.0174726 0.00725093
0.277091 0.0175132 0.0073197
0.276885 0.0164473 0.0076888
0.271496 0.0183128 0.00700088
0.282774 0.0164338 0.00783459
0.277241 0.0171891 0.00730424
0.277113 0.0166347 0.00749211
0.276889 0.0168254 0.0074499
0.271432 0.0185666 0.00701356
0.277353 0.01798 0.00716329
0.277381 0.0178512 0.00711013
0.276969 0.0164118 0.00772982
0.270608 0.0159984 0.00851442
0.27744 0.0181355 0.00702684
0.270704 0.016015 0.00849015
0.276636 0.0159037 0.00829692
0.271366 0.0186094 0.00695197
0.276949 0.0170969 0.00736131
0.277083 0.0168804 0.00740495
0.277187 0.0173498 0.00726683
0.276946 0.0166767 0.00750544
0.271228 0.0184283 0.00697838
0.276789 0.0164256 0.00771191
0.277011 0.0169501 0.00740719
0.277018 0.0166073 0.00750779
0.277366 0.018202 0.00701706
0.271416 0.017925 0.00705885
0.276557 0.0157132 0.00851255
0.277261 0.0172833 0.00727658
0.277146 0.0171617 0.00732207
0.276831 0.0165621 0.00757213
0.270525 0.0157492 0.0088097
0.277129 0.0177048 0.00726364
0.277133 0.016725 0.00745327
0.276822 0.0162519 0.00790769
0.271145 0.0171521 0.00725481
0.277495 0.0179746 0.00706428
0.27067 0.0161672 0.00827395
0.270786 0.0162556 0.00818146
0.271377 0.0184564 0.00704981
0.277193 0.017794 0.00714632
0.271436 0.018022 0.00704501
0.277178 0.0169078 0.00738717
0.271211 0.0175162 0.00711416
0.276968 0.0167703 0.00747709
0.271456 0.0181191 0.00703085
0.276928 0.017003 0.0073889
0.271247 0.0185252 0.00696339
0.277038 0.0166997 0.00747573
0.270871 0.0164962 0.00787349
0.277301 0.0174721 0.00722123
0.271196 0.0180923 0.0071056
0.270859 0.0167319 0.00760782
0.277258 0.0178027 0.00722164
0.271188 0.0182342 0.00700661
0.277153 0.017605 0.00720167
0.271199 0.017418 0.00712815
0.271071 0.0176518 0.0070899
0.270691 0.0162274 0.00819686
0.271345 0.0185043 0.00696823
0.271166 0.0172384 0.00720872
0.271047 0.0167653 0.00754865
0.277291 0.0182668 0.00700789
0.27144 0.0184749 0.00697439
0.27718 0.0180033 0.00717383
0.271401 0.0182812 0.00700437
0.277267 0.0177278 0.00715596
0.270972 0.0168141 0.00750427
0.271049 0.0171286 0.00727147
0.283133 0.0179437 0.00698147
0.276747 0.0162955 0.00785773
0.276704 0.0161653 0.00800358
0.270754 0.0164094 0.0079636
0.276969 0.0171913 0.0073354
0.271103 0.0173891 0.00712979
0.277332 0.0177365 0.00723136
0.276599 0.0158417 0.0083662
0.271149 0.0180401 0.00703436
0.271105 0.0169863 0.00735894
0.276864 0.0163821 0.00776187
0.271267 0.0186221 0.00694839
0.271219 0.0181883 0.00708985
0.270628 0.0160469 0.00842814
0.271087 0.0172994 0.00717107
0.271281 0.0179602 0.00712385
0.277395 0.0175005 0.0072032
0.271129 0.017943 0.00704825
0.270837 0.016648 0.00765781
0.271189 0.0173261 0.00716628
0.270988 0.0165847 0.00778099
0.271517 0.0185462 0.00696435
0.270649 0.0161071 0.00835105
0.277147 0.0178026 0.00723485
0.276768 0.0163605 0.00778482
0.28321 0.0183269 0.0069326
0.276869 0.0167294 0.00746929
0.27085 0.0164361 0.00795052
0.27681 0.0164909 0.00763923
0.276759 0.0160566 0.00812657
0.276662 0.0160352 0.0081494
0.277515 0.0180698 0.00703636
0.270733 0.0163477 0.00804268
0.277361 0.0177568 0.0071378
0.270807 0.0163158 0.00810425
0.270589 0.0159273 0.0085819
0.283191 0.0182289 0.00692752
0.271051 0.0175547 0.00710376
0.271284 0.0176988 0.00708881
0.270989 0.016873 0.00742184
0.2712 0.0178025 0.00707107
0.271177 0.017995 0.00711906
0.270797 0.0165429 0.00782204
0.271125 0.0170678 0.00730443
0.277032 0.0170438 0.00737873
0.277133 0.0175108 0.00722928
0.270973 0.0171855 0.00724078
0.270915 0.0169349 0.00739487
0.271044 0.0175216 0.00719786
0.271009 0.0169589 0.00737129
0.26496 0.0171389 0.00728523
0.270895 0.0168619 0.00746037
0.271029 0.0170438 0.00732135
0.264941 0.0170541 0.00733477
0.264979 0.0172237 0.00723567
0.270878 0.0167989 0.00753618
0.265017 0.0173932 0.00713655
0.277356 0.0173115 0.00725859
0.27699 0.0172847 0.00730611
0.270816 0.0165879 0.00773489
0.276586 0.0157758 0.00844025
0.215741 0.019982 0.00563384
0.264998 0.0173084 0.00718611
0.271324 0.0184031 0.00698389
0.27126 0.0176026 0.00710249
0.270828 0.0163759 0.00802716
0.271241 0.0180023 0.00704253
0.271071 0.0176169 0.00718361
0.27118 0.0177053 0.00708496
0.271303 0.0182996 0.0069999
0.277307 0.0179173 0.00710048
0.270953 0.017101 0.00729048
0.27111 0.0178459 0.00706213
0.265056 0.0175747 0.00707108
0.271031 0.0174578 0.00711762
0.270775 0.0164696 0.00788651
0.276683 0.0161003 0.00807648
0.271421 0.018378 0.0069894
0.271208 0.0183313 0.00699274
0.271591 0.0183449 0.00699732
0.271341 0.0179903 0.00704708
0.271027 0.0174241 0.00721168
0.271169 0.0181372 0.00702049
0.271219 0.0178995 0.00705719
0.271303 0.0180587 0.00710945
0.271283 0.0182026 0.00701394
0.27101 0.017355 0.00714147
0.277058 0.0173046 0.00737696
0.404182 0.0211142 0.0056569
0.265095 0.0177686 0.00704164
0.271386 0.0187063 0.00693697
0.265075 0.0176717 0.00705636
0.265036 0.017478 0.007087
0.271069 0.0172134 0.00722159
0.270934 0.0170165 0.00734019
0.271261 0.0180999 0.00702859
0.277327 0.0180129 0.00707247
0.271161 0.0176083 0.00709884
0.271361 0.0180873 0.00703324
0.271091 0.0177488 0.00707602
0.271239 0.0182854 0.00707591
0.277271 0.0181727 0.00703544
0.270993 0.0172717 0.00719415
0.271065 0.0168255 0.00747091
0.276909 0.0169233 0.00744612
0.27707 0.0176606 0.00719579
0.271381 0.0181843 0.00701936
0.277148 0.0180373 0.00708561

VERTICES 283 566
1 0
1 1
1 2
1 3
1 4
1 5
1 6
1 7
1 8
1 9
1 10
1 11
1 12
1 13
1 14
1 15
1 16
1 17
1 18
1 19
1 20
1 21
1 22
1 23
1 24
1 25
1 26
1 27
1 28
1 29
1 30
1 31
1 32
1 33
1 34
1 35
1 36
1 37
1 38
1 39
1 40
1 41
1 42
1 43
1 44
1 45
1 46
1 47
1 48
1 49
1 50
1 51
1 52
1 53
1 54
1 55
1 56
1 57
1 58
1 59
1 60
1 61
1 62
1 63
1 64
1 65
1 66
1 67
1 68
1 69
1 70
1 71
1 72
1 73
1 74
1 75
1 76
1 77
1 78
1 79
1 80
1 81
1 82
1 83
1 84
1 85
1 86
1 87
1 88
1 89
1 90
1 91
1 92
1 93
1 94
1 95
1 96
1 97
1 98
1 99
1 100
1 101
1 102
1 103
1 104
1 105
1 106
1 107
1 108
1 109
1 110
1 111
1 112
1 113
1 114
1 115
1 116
1 117
1 118
1 119
1 120
1 121
1 122
1 123
1 124
1 125
1 126
1 127
1 128
1 129
1 130
1 131
1 132
1 133
1 134
1 135
1 136
1 137
1 138
1 139
1 140
1 141
1 142
1 143
1 144
1 145
1 146
1 147
1 148
1 149
1 150
1 151
1 152
1 153
1 154
1 155
1 156
1 157
1 158
1 159
1 160
1 161
1 162
1 163
1 164
1 165
1 166
1 167
1 168
1 169
1 170
1 171
1 172
1 173
1 174
1 175
1 176
1 177
1 178
1 179
1 180
1 181
1 182
1 183
1 184
1 185
1 186
1 187
1 188
1 189
1 190
1 191
1 192
1 193
1 194
1 195
1 196
1 197
1 198
1 199
1 200
1 201
1 202
1 203
1 204
1 205
1 206
1 207
1 208
1 209
1 210
1 211
1 212
1 213
1 214
1 215
1 216
1 217
1 218
1 219
1 220
1 221
1 222
1 223
1 224
1 225
1 226
1 227
1 228
1 229
1 230
1 231
1 232
1 233
1 234
1 235
1 236
1 237
1 238
1 239
1 240
1 241
1 242
1 243
1 244
1 245
1 246
1 247
1 248
1 249
1 250
1 251
1 252
1 253
1 254
1 255
1 256
1 257
1 258
1 259
1 260
1 261
1 262
1 263
1 264
1 265
1 266
1 267
1 268
1 269
1 270
1 271
1 272
1 273
1 274
1 275
1 276
1 277
1 278
1 279
1 280
1 281
1 282

POINT_DATA 283
SCALARS id int 1
LOOKUP_TABLE default
1
2
3
4
5
6
7
8
9
10
11
12
13
14
15
16
18
19
20
21
22
24
25
26
27
29
30
31
32
33
34
35
36
37
38
40
41
42
43
44
45
46
47
48
49
50
52
55
56
57
58
59
60
61
62
63
64
65
66
67
68
69
70
71
72
73
74
75
76
77
78
79
80
81
82
83
84
85
86
87
88
89
90
91
92
93
94
95
96
98
99
100
101
102
103
104
105
106
107
108
109
110
111
112
113
114
115
116
117
118
119
120
121
122
123
124
125
126
127
128
129
130
131
132
133
134
135
136
137
138
139
140
141
142
144
145
146
147
148
149
150
152
153
154
155
156
157
158
159
160
161
162
164
165
166
167
168
169
170
171
172
173
174
175
176
177
178
179
180
181
182
183
184
185
186
187
188
189
190
191
192
193
194
195
196
197
198
199
200
201
202
203
204
205
206
207
208
209
210
211
213
214
215
217
218
219
220
221
222
223
224
225
226
227
228
229
230
231
232
233
234
235
236
237
238
239
241
242
243
244
245
246
247
248
249
250
251
252
253
254
255
256
257
258
259
260
261
262
263
264
265
267
268
269
270
271
272
273
274
275
276
277
278
279
280
281
282
283
284
285
286
287
288
289
290
292
293
294
295
296
297
298
300

SCALARS type int 1
LOOKUP_TABLE default
1
1
1
1
1
1
1
1
1
1
1
1
1
1
1
1
1
1
1
1
1
1
1
1
1
1
1
1
1
1
1
1
1
1
1
1
1
1
1
1
1
1
1
1
1
1
1
1
1
1
1
1
1
1
1
1
1
1
1
1
1
1
1
1
1
1
1
1
1
1
1
1
1
1
1
1
1
1
1
1
1
1
1
1
1
1
1
1
1
1
1
1
1
1
1
1
1
1
1
1
1
1
1
1
1
1
1
1
1
1
1
1
1
1
1
1
1
1
1
1
1
1
1
1
1
1
1
1
1
1
1
1
1
1
1
1
1
1
1
1
1
1
1
1
1
1
1
1
1
1
1
1
1
1
1
1
1
1
1
1
1
1
1
1
1
1
1
1
1
1
1
1
1
1
1
1
1
1
1
1
1
1
1
1
1
1
1
1
1
1
1
1
1
1
1
1
1
1
1
1
1
1
1
1
1
1
1
1
1
1
1
1
1
1
1
1
1
1
1
1
1
1
1
1
1
1
1
1
1
1
1
1
1
1
1
1
1
1
1
1
1
1
1
1
1
1
1
1
1
1
1
1
1
1
1
1
1
1
1
1
1
1
1
1
1
1
1
1
1
1
1
1
1
1
1
1
1
1
1
1
1
1
1

SCALARS radius float 1
LOOKUP_TABLE default
5e-05
5e-05
5e-05
5e-05
5e-05
5e-05
5e-05
5e-05
5e-05
5e-05
5e-05
5e-05
5e-05
5e-05
5e-05
5e-05
5e-05
5e-05
5e-05
5e-05
5e-05
5e-05
5e-05
5e-05
5e-05
5e-05
5e-05
5e-05
5e-05
5e-05
5e-05
5e-05
5e-05
5e-05
5e-05
5e-05
5e-05
5e-05
5e-05
5e-05
5e-05
5e-05
5e-05
5e-05
5e-05
5e-05
5e-05
5e-05
5e-05
5e-05
5e-05
5e-05
5e-05
5e-05
5e-05
5e-05
5e-05
5e-05
5e-05
5e-05
5e-05
5e-05
5e-05
5e-05
5e-05
5e-05
5e-05
5e-05
5e-05
5e-05
5e-05
5e-05
5e-05
5e-05
5e-05
5e-05
5e-05
5e-05
5e-05
5e-05
5e-05
5e-05
5e-05
5e-05
5e-05
5e-05
5e-05
5e-05
5e-05
5e-05
5e-05
5e-05
5e-05
5e-05
5e-05
5e-05
5e-05
5e-05
5e-05
5e-05
5e-05
5e-05
5e-05
5e-05
5e-05
5e-05
5e-05
5e-05
5e-05
5e-05
5e-05
5e-05
5e-05
5e-05
5e-05
5e-05
5e-05
5e-05
5e-05
5e-05
5e-05
5e-05
5e-05
5e-05
5e-05
5e-05
5e-05
5e-05
5e-05
5e-05
5e-05
5e-05
5e-05
5e-05
5e-05
5e-05
5e-05
5e-05
5e-05
5e-05
5e-05
5e-05
5e-05
5e-05
5e-05
5e-05
5e-05
5e-05
5e-05
5e-05
5e-05
5e-05
5e-05
5e-05
5e-05
5e-05
5e-05
5e-05
5e-05
5e-05
5e-05
5e-05
5e-05
5e-05
5e-05
5e-05
5e-05
5e-05
5e-05
5e-05
5e-05
5e-05
5e-05
5e-05
5e-05
5e-05
5e-05
5e-05
5e-05
5e-05
5e-05
5e-05
5e-05
5e-05
5e-05
5e-05
5e-05
5e-05
5e-05
5e-05
5e-05
5e-05
5e-05
5e-05
5e-05
5e-05
5e-05
5e-05
5e-05
5e-05
5e-05
5e-05
5e-05
5e-05
5e-05
5e-05
5e-05
5e-05
5e-05
5e-05
5e-05
5e-05
5e-05
5e-05
5e-05
5e-05
5e-05
5e-05
5e-05
5e-05
5e-05
5e-05
5e-05
5e-05
5e-05
5e-05
5e-05
5e-05
5e-05
5e-05
5e-05
5e-05
5e-05
5e-05
5e-05
5e-05
5e-05
5e-05
5e-05
5e-05
5e-05
5e-05
5e-05
5e-05
5e-05
5e-05
5e-05
5e-05
5e-05
5e-05
5e-05
5e-05
5e-05
5e-05
5e-05
5e-05
5e-05
5e-05
5e-05
5e-05
5e-05
5e-05
5e-05
5e-05
5e-05
5e-05
5e-05
5e-05
5e-05
5e-05
5e-05
5e-05
5e-05
5e-05
5e-05
5e-05
5e-05
5e-05
5e-05
5e-05
5e-05
5e-05
5e-05

SCALARS mass float 1
LOOKUP_TABLE default
1.46608e-10
1.46608e-10
1.46608e-10
1.46608e-10
1.46608e-10
1.46608e-10
1.46608e-10
1.46608e-10
1.46608e-10
1.46608e-10
1.46608e-10
1.46608e-10
1.46608e-10
1.46608e-10
1.46608e-10
1.46608e-10
1.46608e-10
1.46608e-10
1.46608e-10
1.46608e-10
1.46608e-10
1.46608e-10
1.46608e-10
1.46608e-10
1.46608e-10
1.46608e-10
1.46608e-10
1.46608e-10
1.46608e-10
1.46608e-10
1.46608e-10
1.46608e-10
1.46608e-10
1.46608e-10
1.46608e-10
1.46608e-10
1.46608e-10
1.46608e-10
1.46608e-10
1.46608e-10
1.46608e-10
1.46608e-10
1.46608e-10
1.46608e-10
1.46608e-10
1.46608e-10
1.46608e-10
1.46608e-10
1.46608e-10
1.46608e-10
1.46608e-10
1.46608e-10
1.46608e-10
1.46608e-10
1.46608e-10
1.46608e-10
1.46608e-10
1.46608e-10
1.46608e-10
1.46608e-10
1.46608e-10
1.46608e-10
1.46608e-10
1.46608e-10
1.46608e-10
1.46608e-10
1.46608e-10
1.46608e-10
1.46608e-10
1.46608e-10
1.46608e-10
1.46608e-10
1.46608e-10
1.46608e-10
1.46608e-10
1.46608e-10
1.46608e-10
1.46608e-10
1.46608e-10
1.46608e-10
1.46608e-10
1.46608e-10
1.46608e-10
1.46608e-10
1.46608e-10
1.46608e-10
1.46608e-10
1.46608e-10
1.46608e-10
1.46608e-10
1.46608e-10
1.46608e-10
1.46608e-10
1.46608e-10
1.46608e-10
1.46608e-10
1.46608e-10
1.46608e-10
1.46608e-10
1.46608e-10
1.46608e-10
1.46608e-10
1.46608e-10
1.46608e-10
1.46608e-10
1.46608e-10
1.46608e-10
1.46608e-10
1.46608e-10
1.46608e-10
1.46608e-10
1.46608e-10
1.46608e-10
1.46608e-10
1.46608e-10
1.46608e-10
1.46608e-10
1.46608e-10
1.46608e-10
1.46608e-10
1.46608e-10
1.46608e-10
1.46608e-10
1.46608e-10
1.46608e-10
1.46608e-10
1.46608e-10
1.46608e-10
1.46608e-10
1.46608e-10
1.46608e-10
1.46608e-10
1.46608e-10
1.46608e-10
1.46608e-10
1.46608e-10
1.46608e-10
1.46608e-10
1.46608e-10
1.46608e-10
1.46608e-10
1.46608e-10
1.46608e-10
1.46608e-10
1.46608e-10
1.46608e-10
1.46608e-10
1.46608e-10
1.46608e-10
1.46608e-10
1.46608e-10
1.46608e-10
1.46608e-10
1.46608e-10
1.46608e-10
1.46608e-10
1.46608e-10
1.46608e-10
1.46608e-10
1.46608e-10
1.46608e-10
1.46608e-10
1.46608e-10
1.46608e-10
1.46608e-10
1.46608e-10
1.46608e-10
1.46608e-10
1.46608e-10
1.46608e-10
1.46608e-10
1.46608e-10
1.46608e-10
1.46608e-10
1.46608e-10
1.46608e-10
1.46608e-10
1.46608e-10
1.46608e-10
1.46608e-10
1.46608e-10
1.46608e-10
1.46608e-10
1.46608e-10
1.46608e-10
1.46608e-10
1.46608e-10
1.46608e-10
1.46608e-10
1.46608e-10
1.46608e-10
1.46608e-10
1.46608e-10
1.46608e-10
1.46608e-10
1.46608e-10
1.46608e-10
1.46608e-10
1.46608e-10
1.46608e-10
1.46608e-10
1.46608e-10
1.46608e-10
1.46608e-10
1.46608e-10
1.46608e-10
1.46608e-10
1.46608e-10
1.46608e-10
1.46608e-10
1.46608e-10
1.46608e-10
1.46608e-10
1.46608e-10
1.46608e-10
1.46608e-10
1.46608e-10
1.46608e-10
1.46608e-10
1.46608e-10
1.46608e-10
1.46608e-10
1.46608e-10
1.46608e-10
1.46608e-10
1.46608e-10
1.46608e-10
1.46608e-10
1.46608e-10
1.46608e-10
1.46608e-10
1.46608e-10
1.46608e-10
1.46608e-10
1.46608e-10
1.46608e-10
1.46608e-10
1.46608e-10
1.46608e-10
1.46608e-10
1.46608e-10
1.46608e-10
1.46608e-10
1.46608e-10
1.46608e-10
1.46608e-10
1.46608e-10
1.46608e-10
1.46608e-10
1.46608e-10
1.46608e-10
1.46608e-10
1.46608e-10
1.46608e-10
1.46608e-10
1.46608e-10
1.46608e-10
1.46608e-10
1.46608e-10
1.46608e-10
1.46608e-10
1.46608e-10
1.46608e-10
1.46608e-10
1.46608e-10
1.46608e-10
1.46608e-10
1.46608e-10
1.46608e-10
1.46608e-10
1.46608e-10
1.46608e-10
1.46608e-10
1.46608e-10
1.46608e-10
1.46608e-10
1.46608e-10
1.46608e-10
1.46608e-10
1.46608e-10
1.46608e-10
1.46608e-10
1.46608e-10

VECTORS velocity float
0.00509254 0.00075113 -0.000780741
0.00465619 0.000946954 -0.000720509
0.00449275 0.000911209 -0.000740423
0.00447788 0.000912452 -0.000739983
0.0045791 0.000815279 -0.00085627
0.00480799 0.000165767 0.000499319
0.00498071 0.000762798 -0.00079252
0.00458196 0.000816048 -0.000857653
0.00440301 -3.28235e-05 -9.02198e-05
0.00450583 0.000852578 -0.000726681
0.00511448 0.00078866 -0.000816916
0.00414409 -1.204e-05 -8.99824e-05
0.00451412 0.000984476 -0.000762823
0.00443327 0.000650704 0.00019237
0.00446988 0.000906731 -0.000736608
0.00465292 0.000406043 0.000583789
0.0044513 5.11254e-05 0.000207426
0.00447838 0.000918734 -0.000741976
0.00474897 0.000862431 -0.000758682
0.00465454 0.000804292 -0.000842587
0.00454538 0.000907393 -0.000745353
0.00456971 -9.50795e-05 -6.9162e-05
0.00457411 0.0010164 -0.000778245
0.00457598 0.000187174 0.000451043
0.00451634 0.000463557 0.000476616
0.00475684 0.000856616 -0.000754888
0.00479504 0.000164638 0.000499685
0.00453605 0.000901734 -0.000742873
0.00456147 0.00103976 -0.000783006
0.00483191 0.000171092 0.000498327
0.00444733 0.000968536 -0.000746528
0.00448193 0.00090505 -0.000738072
0.00405728 1.10772e-05 -9.37172e-05
0.00498786 0.000761401 -0.000790437
0.00451648 0.000972683 -0.000760002
0.0048724 0.000773393 -0.000805433
0.00474302 0.000865628 -0.000757446
0.00477211 0.000874227 -0.000761992
0.00451611 0.000872875 -0.000732724
0.0045745 0.000947698 -0.000759374
0.00483985 0.0001737 0.000496294
0.00455653 -3.75392e-05 -2.60207e-05
0.00482575 0.000773718 -0.000807241
0.00474178 0.000852447 -0.000753222
0.00460651 0.000185722 0.000456072
0.00451037 0.000985979 -0.000763124
0.00428138 -0.000533874 0.000153445
0.00443979 0.000575117 3.39813e-05
0.00449448 0.000864818 -0.000727622
0.00462713 0.000187088 0.000453278
0.00513698 0.00049784 0.000570125
0.00437633 -7.3593e-05 -7.4793e-05
0.00446285 0.000898365 -0.00073973
0.00477467 0.000785434 -0.000821245
0.00512635 0.000803368 -0.000845828
0.00446304 0.00091257 -0.000738944
0.00458341 -6.60388e-05 -4.84135e-05
0.00504713 0.000747113 -0.000773842
0.00431848 0.000586958 -2.42147e-05
0.0044984 0.000870177 -0.000730169
0.00449007 0.000595064 0.000280678
0.00475467 0.000857406 -0.000750777
0.0040795 -0.000228164 -1.02945e-05
0.00473252 0.000507863 0.000477623
0.00415462 7.99277e-06 -9.86752e-05
0.00483849 0.000770974 -0.000803552
0.0048795 0.000801128 -0.000754532
0.00474593 0.000873204 -0.000755293
0.00429704 3.89314e-05 9.17869e-05
0.00457951 0.00091669 -0.000751716
0.00446973 0.000447835 0.000339685
0.00463741 0.000458273 0.000505453
0.00475248 0.000849099 -0.000754118
0.00456009 0.000534703 -2.16812e-05
0.00492367 0.00062754 0.000355657
0.00450694 0.000491341 0.000403487
0.00436028 -1.6397e-05 -9.36457e-05
0.00516598 0.00049088 0.000589364
0.00448908 0.00091302 -0.000741098
0.00449105 -2.04633e-05 -9.30218e-05
0.00500941 0.000736473 -0.000925593
0.00455512 0.000986991 -0.000768028
0.00486877 0.000738155 -0.000928338
0.00507537 0.000741185 -0.000766606
0.00486935 0.000977844 -0.000416214
0.0047501 0.000843461 -0.000751334
0.00473517 0.000848606 -0.000744567
0.00448284 0.000911897 -0.000739727
0.0047938 0.000856103 -0.000759719
0.00474893 0.000864418 -0.000755709
0.00391488 0.000614059 -2.15263e-05
0.00445544 0.000926067 -0.000740578
0.00444142 0.000614357 2.9715e-05
0.00446295 0.000914749 -0.000739582
0.00478911 0.00102401 -0.000803907
0.00508629 0.000310623 0.000166872
0.00441961 0.000586466 3.35911e-05
0.00511446 0.000729877 -0.000753943
0.004467 0.000663754 0.000183951
0.00446407 0.000924576 -0.000741491
0.00446697 0.000915471 -0.000739668
0.00456651 0.000912649 -0.000749161
0.00500062 0.000768388 -0.000797675
0.00470448 0.000461166 0.000528641
0.00452583 0.00086957 -0.000734005
0.0050184 0.000507029 0.000529913
0.00455404 0.000902188 -0.000744198
0.00452738 0.0009588 -0.000751884
0.00519733 0.000745494 -0.000772177
0.00437703 0.000555407 -1.82655e-05
0.00477569 0.000166391 0.000495007
0.00476772 0.00085774 -0.000758523
0.00489863 0.00103093 -0.000424106
0.00473614 0.000850432 -0.000730463
0.00478384 0.000608133 6.73254e-05
0.0045021 0.00088287 -0.000729505
0.00448476 0.00090721 -0.000738682
0.00525634 0.000804331 -0.000831133
0.00455542 0.000495552 0.000474768
0.00450389 0.000844323 -0.000723998
0.00455025 0.000480813 0.000478984
0.00497315 0.000766062 -0.000796622
0.00437809 3.70428e-05 7.22513e-05
0.00474839 0.000851417 -0.000751843
0.0047406 0.000857959 -0.000753319
0.00459114 0.000971318 -0.000767761
0.00474246 0.000599333 -0.00116831
0.00424626 -0.000578296 0.000128541
0.0051607 0.000737446 -0.000761669
0.00474409 0.000855668 -0.000760033
0.00488352 0.000750708 -0.000930089
0.0045262 0.000864531 -0.000731819
0.00442257 0.000624623 3.35799e-05
0.00489201 0.000769207 -0.000802997
0.00471541 0.000944431 -0.000774106
0.00474652 0.000872386 -0.000759564
0.0050676 0.000741443 -0.000776197
0.00449098 0.000642666 0.000165278
0.00445876 0.000907182 -0.00073946
0.00485992 0.000978615 -0.000410946
0.00509672 0.000735669 -0.000761404
0.00427334 0.000357252 -0.000340918
0.00449683 0.000843602 -0.000723114
0.00464945 0.000406136 0.000619034
0.00466115 0.00044213 0.000539543
0.00485897 -0.000425764 -0.000134831
0.0044753 0.000913917 -0.000739079
0.0044345 0.000606227 2.90765e-05
0.00480668 0.000928272 -0.000632211
0.00420384 0.000629469 2.59155e-05
0.00475292 0.000789588 -0.000862299
0.00439582 0.000613639 -2.11574e-05
0.00473919 0.000848904 -0.000747689
0.0042877 -0.000567381 0.000152769
0.00479551 0.000816506 -0.000818474
0.00514431 0.000479186 0.000599563
0.00454198 0.00101836 -0.000775199
0.00427697 -0.000610136 0.000201524
0.00481031 0.000378039 0.000727392
0.00446856 0.000921928 -0.000739669
0.00425001 -0.000586593 0.000203072
0.0044555 0.000932177 -0.000741413
0.00415615 0.000618807 3.01457e-05
0.0042419 -0.000561978 0.000194675
0.00465428 0.000407978 0.000599904
0.00432547 -0.000356535 0.000115393
0.00439678 0.000404504 -0.000240472
0.00471865 0.000629457 0.000295114
0.00456232 0.00089903 -0.000745149
0.00460154 0.000621321 -2.75237e-05
0.00452718 0.000913894 -0.000737469
0.00436683 0.000592837 -3.39481e-05
0.00446077 0.000917477 -0.000738174
0.00445812 0.000479563 0.000442188
0.00432561 -0.000185654 -2.51509e-05
0.00398969 3.45911e-05 -6.97058e-05
0.00510948 0.000744079 -0.000775355
0.00506406 0.00075943 -0.000787663
0.00462176 0.000177709 0.000874898
0.00474364 0.000858276 -0.000754957
0.00449847 -0.000524842 0.00024541
0.00447678 0.000921378 -0.000738211
0.00494583 0.000766439 -0.000798628
0.00425596 -0.000573157 0.000201535
0.0040381 0.000441512 -0.000239511
0.00514002 0.000724857 -0.000746916
0.00428006 -0.000551284 0.000155345
0.00427482 -0.000581917 0.000168607
0.00451131 0.000317856 0.000669295
0.00431425 -0.000591858 0.000259584
0.00460912 0.000379636 0.000380872
0.0045466 0.000999287 -0.000770476
0.00423688 -0.000552037 0.000196924
0.00485292 0.000330852 0.000773402
0.00428406 0.000547273 -5.30333e-05
0.00525693 0.000577978 0.00048541
0.00477577 0.000735984 -3.83772e-05
0.00455271 0.000347723 0.000631902
0.00446132 0.00092857 -0.000744628
0.00513082 0.000741704 -0.000768666
0.00444795 5.8831e-05 0.000201602
0.00471806 0.000848115 -0.000743501
0.00495616 0.000464899 0.000572667
0.00517372 0.000718786 -0.000770281
0.00501457 0.000754984 -0.000783341
0.00503082 0.00076507 -0.00079443
0.00450303 0.00084351 -0.000723696
0.00473261 0.00043604 0.000591218
0.00447872 0.000912745 -0.00073902
0.00466825 0.000438879 0.000545312
0.00458508 0.000493446 0.000471571
0.00443876 5.76485e-05 0.000201525
0.00437158 -0.000603059 0.000205789
0.00442956 0.00056386 3.40818e-05
0.00410004 -0.000302708 5.45194e-05
0.00420711 -0.000537537 0.000196244
0.00438907 -0.000633345 0.000134837
0.00468492 0.000164873 0.000806136
0.00412412 0.000355513 -0.00036554
0.00474767 0.000863277 -0.000754563
0.00451316 0.000971492 -0.000759457
0.00421402 -0.000341248 6.78244e-05
0.00420702 -0.000148953 0.00013977
0.00435889 -0.00058101 0.000198016
0.00428134 -0.000241547 1.03187e-05
0.00444512 0.000190348 -1.86101e-05
0.00419249 0.000120305 0.000377372
0.00432871 -0.000223358 -1.18774e-06
0.00463179 0.000161777 2.75235e-06
0.0044764 0.000185246 -1.40643e-05
0.00451864 0.000343067 0.000594928
0.00454087 0.000173241 -7.10771e-06
0.00465572 0.00111252 -0.000813147
0.00474569 0.000860452 -0.000755786
0.00473029 0.000257273 0.000782368
0.00490775 0.000770006 -0.000801279
6.80565e-15 2.29897e-14 -7.03244e-14
0.00451535 0.000177865 -8.94123e-06
0.00436351 6.86339e-05 5.49042e-05
0.00434375 0.000566899 8.86516e-06
0.00478438 0.000450983 0.000550147
0.00440722 -0.000233069 0.000158427
0.004279 -0.000564287 0.000175045
0.00421357 -0.000538488 0.000196209
0.00427411 -0.000464319 0.000143615
0.00448842 0.000907956 -0.00073927
0.00427632 -0.000331088 5.53491e-05
0.00421967 -0.000534523 0.000195386
0.00445047 0.000183662 -8.98556e-05
0.00432667 -0.000626099 0.000220513
0.00464213 0.000162414 0.000863838
0.00504443 0.000762754 -0.000792442
0.00446121 0.000614542 -2.09955e-05
0.00425128 -0.000578829 0.000207731
0.00447547 0.000573815 -1.93811e-05
0.00441656 0.000578211 5.78989e-05
0.00443835 -0.000601021 0.000240212
0.00425985 -0.000594454 0.000204568
0.00422309 -0.000545473 0.000197434
0.00479979 0.00055629 0.000325321
0.00427541 -0.000387799 0.000176569
0.00442441 -0.000445261 4.92193e-05
0.00475284 0.000843932 -0.000759004
-1.28498e-14 6.09046e-14 -1.90218e-13
0.00444112 0.000183628 -9.0342e-05
0.00433964 2.71398e-06 6.86092e-05
0.00444334 0.000181044 -8.97733e-05
0.00457116 0.000172648 -6.09094e-06
0.00439022 -0.000341358 6.5377e-05
0.00426968 -0.000271812 5.34956e-05
0.00443609 -0.000157028 0.000148118
0.00450701 0.000876507 -0.000732144
0.00425602 -0.000549701 0.000196981
0.00441178 0.000560101 4.03141e-05
0.0042218 -0.000539434 0.000196106
0.00441856 -0.000639774 0.000111001
0.00455567 0.000899528 -0.000744629
0.00433337 -0.000411113 5.12657e-05
0.00436282 0.000639317 0.000200866
0.00473582 0.000850982 -0.000737336
0.0044505 0.000922785 -0.000739698
0.0044099 0.000539659 -1.15409e-05
0.00453138 0.000904543 -0.000742736

VECTORS force float
5.93699e-11 -3.37423e-11 3.50842e-11
-2.55977e-11 7.84667e-12 9.24112e-12
-2.80072e-11 -6.49983e-12 1.71573e-11
-6.30169e-11 -1.43358e-12 -2.90255e-12
3.61499e-11 -5.04762e-11 3.74735e-11
4.75641e-11 5.2505e-11 -2.94588e-11
6.49347e-11 1.17e-11 -9.84655e-12
-3.71878e-11 -7.14864e-11 7.54576e-11
9.49614e-12 -7.5408e-11 -6.78162e-11
-8.54258e-11 8.07438e-11 -9.84079e-12
5.32972e-11 -8.53592e-11 7.88664e-11
1.58016e-09 -6.05572e-11 -3.47315e-11
-5.00277e-11 -3.63191e-13 6.51761e-12
9.25254e-11 3.34425e-10 -4.21273e-10
-5.36178e-11 -4.95008e-12 7.98135e-12
4.74079e-10 -4.9225e-11 -5.48914e-10
1.23588e-10 -1.63707e-10 4.41589e-11
-5.21675e-11 4.66819e-11 -7.90864e-12
-4.41551e-11 -1.27132e-11 -4.80797e-12
2.57271e-10 -1.25576e-10 1.38361e-10
3.16224e-11 5.94769e-11 -1.0696e-11
-5.06061e-10 -3.39414e-10 2.14403e-10
-6.92254e-12 1.10943e-10 -3.17393e-11
9.22812e-11 4.88269e-11 -6.88954e-11
1.12807e-09 -1.13693e-10 6.74716e-10
-3.59515e-11 1.77825e-11 1.4437e-11
3.75991e-12 1.25032e-11 1.11702e-11
-2.07217e-11 7.29354e-11 -1.32127e-11
-2.14959e-11 2.29285e-10 -6.16194e-11
-4.79322e-11 6.24344e-12 -2.75357e-11
-3.53757e-11 -5.81273e-13 -1.22732e-11
-7.57709e-11 -1.4898e-10 4.8263e-11
1.97331e-10 3.21371e-10 -1.7624e-10
-1.05907e-10 4.20576e-11 -5.02234e-11
-4.84891e-11 5.76121e-11 -1.02052e-11
2.87489e-10 -3.33474e-11 4.90274e-11
-6.04501e-11 3.26807e-11 -4.02812e-11
6.23673e-11 2.49256e-10 1.09125e-10
3.85662e-12 -3.59093e-13 -7.27248e-12
-3.9138e-11 5.33908e-12 5.56315e-12
-8.00368e-11 -8.03982e-11 2.6191e-11
2.555e-12 -8.43516e-11 1.18614e-10
9.64129e-11 -4.56634e-11 5.61841e-11
-7.76999e-11 -2.34638e-11 7.53544e-11
4.17161e-11 2.63971e-11 4.73705e-11
-3.63897e-11 9.77156e-11 -2.00938e-11
-1.52414e-11 -6.58139e-11 1.79429e-12
-4.93471e-10 8.30564e-11 2.12377e-10
-1.08549e-10 8.87231e-11 -1.45504e-11
2.38902e-10 -9.01153e-11 1.242e-10
-2.78992e-10 3.78923e-10 -5.74165e-10
6.71535e-10 2.22258e-11 -2.32191e-11
-2.12793e-11 -4.65426e-11 -6.41463e-12
1.87255e-10 -1.06057e-10 1.27359e-10
6.96899e-11 -1.83403e-10 1.77988e-10
-4.76855e-11 3.88136e-11 -2.81637e-12
-2.77745e-11 -3.29783e-10 2.71273e-10
-1.82949e-11 -2.33204e-12 2.80974e-12
-3.85232e-11 4.42575e-10 -1.10635e-10
-6.53654e-11 1.54129e-10 -3.59067e-11
-3.82292e-10 6.50586e-11 -1.99099e-10
3.95877e-11 -1.75314e-11 -7.11182e-12
9.61701e-11 -3.68792e-10 1.25509e-10
-5.82975e-10 1.98068e-10 -5.19872e-10
5.70836e-10 3.99624e-11 -6.09806e-11
2.59663e-10 -4.87033e-11 6.2583e-11
6.68129e-12 1.06152e-11 2.0198e-11
-1.0895e-10 -9.49809e-11 -3.32376e-11
-2.14622e-11 -2.82833e-10 -5.53407e-11
-2.76324e-11 -1.73497e-11 9.16947e-12
-6.10773e-11 7.82593e-10 1.69243e-09
-3.47474e-10 -3.26103e-12 -6.66759e-12
-1.33451e-10 3.2269e-11 -1.22492e-11
-4.20819e-10 -3.93148e-10 1.98563e-10
1.40168e-10 7.04394e-11 7.61408e-11
1.1783e-10 -7.15272e-10 1.2868e-09
-3.51373e-10 6.65626e-10 -1.91155e-10
-3.60731e-10 4.4412e-10 -5.36618e-10
6.44471e-12 -1.64935e-11 -4.26987e-14
-8.31089e-10 8.25682e-11 -1.16621e-10
1.94877e-10 -1.68498e-10 8.10574e-11
-6.86196e-11 6.03703e-11 -8.79918e-12
1.20869e-10 5.22727e-11 -1.01618e-10
-3.2325e-12 -3.41264e-11 5.3939e-11
-3.55063e-11 5.85653e-11 -1.79455e-10
-1.17674e-10 1.16836e-10 -4.03934e-11
1.64403e-10 1.73227e-10 -4.49138e-11
-2.5254e-11 -3.75379e-11 1.36988e-11
-1.79799e-10 1.1074e-10 -8.70574e-12
7.8855e-12 3.24136e-11 8.5927e-12
7.021e-11 -9.57178e-11 2.00847e-10
-4.93715e-11 -3.20044e-11 -2.17683e-11
-3.84487e-10 2.17699e-10 -4.84075e-11
-6.72088e-11 1.81372e-11 -4.94333e-12
-1.27132e-10 2.65902e-11 7.2152e-12
-1.38779e-10 -1.92043e-10 -1.15619e-10
-8.48667e-11 -4.2183e-11 6.05193e-11
2.39383e-11 -4.05442e-11 4.30651e-11
1.26973e-10 3.21579e-10 -3.73527e-10
-8.55231e-11 4.32782e-11 -1.68907e-11
-5.23173e-11 -1.1497e-11 6.79619e-12
-1.71016e-11 2.19763e-12 1.43215e-12
6.96244e-11 1.69334e-11 -3.61618e-11
-2.09151e-10 4.31388e-12 2.28012e-11
-1.51164e-11 9.31484e-11 -2.12171e-11
1.11232e-10 2.34283e-10 -4.31228e-10
-6.12532e-12 1.48681e-11 -6.73973e-12
1.26961e-11 3.51907e-11 -1.70714e-11
-4.01199e-11 -1.12181e-10 1.13031e-10
-6.02035e-10 2.62583e-10 -3.11938e-11
-6.3353e-11 -9.38505e-11 5.9496e-11
-1.38372e-10 3.44893e-11 9.91232e-12
2.36796e-11 2.85078e-11 -9.18182e-11
9.81185e-11 9.22239e-11 -4.93687e-11
3.63463e-10 -3.1294e-10 1.73468e-10
-9.56084e-11 5.76849e-11 -1.4484e-11
6.40116e-12 -5.04807e-11 1.53346e-11
5.75819e-12 -1.00839e-10 1.47853e-10
4.84487e-10 -8.21835e-11 2.50951e-11
-1.8609e-10 -3.20237e-11 2.98919e-11
1.10704e-09 -6.9156e-10 4.9587e-10
-7.93784e-11 4.79653e-11 -6.58934e-11
2.3668e-10 -2.75743e-10 1.2579e-10
-5.45124e-12 -5.02642e-11 -4.46009e-11
-2.07624e-10 1.43213e-11 1.94417e-10
-1.37886e-11 2.63304e-11 -2.06951e-12
1.91459e-10 -2.29151e-11 1.15738e-10
6.62875e-11 -4.15774e-11 -2.84364e-10
8.07595e-12 -6.1598e-11 5.79307e-11
-8.05445e-11 3.17495e-11 2.06565e-10
1.16147e-10 -2.09388e-10 -1.69639e-10
-9.79745e-11 3.13202e-11 1.87201e-12
2.12715e-10 -8.14863e-10 1.11716e-10
-3.04122e-11 -1.26334e-11 1.20089e-11
-1.29864e-10 1.90263e-12 1.31212e-11
-2.31017e-11 1.01888e-10 2.17857e-11
-2.95929e-11 -5.63952e-11 1.02101e-10
-3.58911e-10 -1.65468e-09 1.09821e-09
-2.0415e-11 1.54134e-12 1.06291e-11
-3.71996e-11 3.85421e-12 -3.50782e-11
7.44232e-11 -4.16329e-11 3.86233e-11
3.79449e-10 -2.94977e-10 2.07921e-11
-1.20016e-10 1.01957e-10 -1.32798e-11
-7.6983e-11 1.46231e-10 2.50343e-10
3.60241e-10 2.64401e-10 -1.82936e-10
1.06076e-11 -2.42141e-11 -7.94026e-10
3.77313e-11 6.28733e-11 -2.22008e-11
6.00434e-10 -4.03911e-10 1.00916e-10
1.13247e-10 1.73358e-10 -6.54563e-11
-1.77002e-10 1.87591e-10 2.27608e-11
7.21216e-11 1.27473e-11 -1.84658e-10
2.54652e-10 5.90707e-10 -3.24496e-11
2.87262e-12 -1.2485e-11 5.45717e-11
-3.85823e-10 -1.25466e-10 1.23042e-10
-1.98396e-12 -1.58351e-10 -2.2842e-10
2.31029e-11 3.72022e-10 -4.7149e-10
-9.68776e-11 1.09206e-10 -2.26823e-11
1.23197e-10 1.84707e-10 -1.07182e-10
3.64777e-11 3.42339e-10 -1.59573e-10
-3.7881e-11 -2.72952e-11 1.64083e-11
2.90481e-10 2.9253e-10 -4.78511e-11
-2.72528e-11 1.71854e-11 3.71453e-14
7.09237e-11 7.11359e-11 -9.4412e-11
-4.57741e-11 -9.68099e-11 1.72555e-12
5.61848e-11 1.00816e-10 -6.11704e-10
-4.54059e-10 2.91145e-10 -3.31135e-10
1.63142e-10 -2.85049e-10 -2.68004e-10
-1.27631e-10 5.17786e-11 2.79467e-10
-6.29635e-11 1.95736e-11 1.8282e-12
-6.81563e-10 -5.01582e-10 1.34615e-10
2.14354e-10 5.94695e-11 5.26135e-11
8.91795e-11 1.47006e-10 -2.90799e-10
-4.43681e-11 3.14389e-12 5.59281e-12
-1.30132e-10 -3.41707e-10 -4.89151e-10
-4.19967e-10 5.58963e-11 -2.26665e-11
-1.93486e-10 -9.60866e-11 -1.42642e-10
3.95601e-11 -2.29499e-11 4.90991e-11
1.0838e-11 -3.1709e-11 2.89983e-11
6.27383e-11 1.13886e-10 -2.50569e-10
-2.31248e-11 -5.95119e-12 -1.78781e-12
9.49965e-10 2.70428e-10 1.69251e-10
-1.43002e-10 4.1741e-11 -2.40569e-11
8.29684e-11 2.40956e-11 -1.05076e-11
2.73474e-12 1.30083e-10 -7.34088e-11
2.28853e-10 -1.67935e-10 1.9032e-10
3.12987e-11 -5.19249e-11 6.77477e-11
1.70512e-10 -1.41798e-10 5.95038e-11
3.10266e-10 -6.33666e-11 -8.67641e-11
-9.73805e-11 -1.28905e-10 1.37512e-10
4.1176e-11 1.79142e-10 -6.76751e-10
2.27447e-10 -2.68672e-10 2.83101e-10
-8.58293e-11 3.01999e-11 1.79693e-12
4.20429e-11 3.09619e-10 -9.19792e-11
-2.47638e-12 1.3785e-10 -3.83304e-10
-2.3229e-10 -5.98421e-11 -3.55859e-10
-3.30062e-10 3.32009e-10 -5.10822e-10
2.415e-10 3.13558e-11 6.17279e-11
1.09275e-10 -2.20217e-10 3.71038e-10
-5.7218e-11 6.78479e-11 -5.51732e-11
2.15234e-12 -4.87371e-11 5.11327e-11
-9.47943e-11 -2.02207e-11 1.25284e-11
1.0414e-10 2.46758e-11 -3.73586e-12
-3.1373e-10 3.53496e-10 -6.36228e-10
-2.77897e-11 -6.54112e-11 7.23915e-11
-6.12243e-11 2.99891e-11 -3.80586e-11
2.19654e-11 1.54038e-12 1.40487e-12
-1.20382e-10 7.31082e-11 -6.64444e-12
2.61528e-10 4.82569e-10 -4.44706e-11
-5.1828e-11 -7.61172e-12 7.89174e-12
1.50568e-12 4.93652e-10 -6.79812e-10
6.51116e-11 -1.22365e-10 8.62805e-10
9.59921e-13 -6.87427e-11 -1.31191e-11
-1.60071e-10 -2.47406e-10 1.15723e-10
-1.03548e-10 8.49328e-11 5.89867e-11
7.61936e-11 -3.96792e-11 -6.98959e-12
6.28941e-11 1.00213e-10 -1.59222e-11
1.034e-10 1.79517e-10 -2.70852e-10
1.02995e-10 1.13389e-10 -3.98295e-10
2.63614e-10 -2.64839e-10 8.25723e-11
-9.25519e-11 1.14256e-10 3.09511e-10
-2.48494e-11 2.19739e-11 -2.00933e-11
3.91417e-10 -4.3054e-10 1.86729e-10
-1.19044e-11 6.17226e-11 3.81875e-10
-1.6944e-10 1.62405e-10 2.68105e-10
-4.85331e-10 -6.2602e-11 1.68009e-10
1.14924e-11 -3.15803e-11 1.76542e-11
7.7733e-11 -5.64187e-10 -5.2981e-10
1.85383e-10 -1.21994e-09 8.11051e-10
-9.56551e-12 5.21641e-12 -4.50574e-12
-1.07916e-10 -3.96796e-11 3.65593e-12
-2.18733e-10 -2.02355e-10 -6.51042e-10
-5.8936e-12 3.21246e-11 -1.54472e-11
-1.71381e-10 -1.21815e-10 5.34743e-11
-3.5061e-11 3.68104e-11 1.45699e-11
-7.0342e-10 7.12525e-11 -5.16154e-10
5.60843e-11 -1.57368e-11 1.08073e-11
2.67024e-23 -1.49926e-24 2.68834e-24
1.5615e-10 4.01344e-11 -5.56667e-12
-3.35279e-10 -1.11683e-10 -1.27e-10
-2.19419e-10 1.67307e-10 1.41178e-10
-1.13802e-11 4.6367e-10 -5.87472e-10
2.3709e-10 -1.31206e-10 1.0687e-10
1.24582e-10 3.3047e-11 9.06862e-12
-4.35206e-11 1.47459e-10 -4.6196e-11
-4.2057e-10 9.08357e-10 -2.05128e-10
1.58867e-11 -6.19968e-11 1.81885e-11
3.42166e-10 -1.54322e-10 2.97144e-10
1.77788e-10 1.12563e-10 -1.9762e-12
4.15167e-11 1.55821e-11 -1.15464e-11
-1.00985e-11 -5.14038e-10 1.42564e-10
1.12563e-10 4.35991e-10 1.04716e-10
1.11967e-11 -2.40248e-11 2.02262e-11
-1.39036e-11 1.22998e-10 2.34425e-10
-1.54369e-10 -2.53482e-11 -3.73435e-11
-7.22496e-10 1.3054e-10 -4.03959e-11
3.18646e-10 -5.23434e-11 -1.61354e-10
-1.5453e-10 4.5945e-11 4.33049e-10
6.80441e-11 2.19733e-10 -8.42076e-11
-4.36595e-10 1.2404e-10 -4.89361e-11
1.84711e-10 -1.01269e-10 1.26217e-10
4.20866e-10 -8.19534e-10 1.56166e-10
1.41989e-10 1.52853e-10 1.301e-10
7.24638e-11 6.76882e-11 -1.39221e-11
-5.81586e-22 -1.15082e-22 3.72231e-24
1.11464e-12 -6.28046e-12 7.45202e-12
-5.74317e-11 8.1151e-11 1.82789e-12
6.2156e-11 8.51276e-12 -3.41431e-12
-7.94227e-11 -7.96584e-11 1.76713e-12
1.89692e-10 -9.41503e-10 1.64923e-10
3.43615e-11 4.52046e-11 2.08253e-10
2.55212e-10 1.57426e-10 7.78018e-11
-2.5659e-11 1.3491e-10 -2.91825e-11
-5.12976e-11 1.64169e-10 -7.44332e-11
1.49499e-10 -9.75955e-12 -2.22622e-11
5.17428e-11 -7.19916e-11 -1.8497e-11
-4.23523e-11 7.31865e-11 9.70995e-11
6.43014e-12 4.81802e-11 -1.07928e-11
-4.63261e-11 -5.62648e-10 5.3145e-10
-2.9106e-11 -8.33865e-11 1.36521e-10
1.0334e-10 5.93976e-11 9.67367e-11
-2.87771e-11 3.02982e-11 5.29209e-12
7.12599e-10 -1.83056e-10 4.17098e-11
5.31075e-11 2.22063e-11 7.57177e-12
